<svg width="24" height="24" viewBox="0 0 24 24" fill="none" xmlns="http://www.w3.org/2000/svg">
<path d="M2.3042 18.8519H3.4562V15.3479H20.5442V18.8519H21.6962V11.6279C21.6962 9.77995 20.3042 8.38795 18.4802 8.38795L11.6642 8.41195V14.1479H3.4562V5.14795H2.3042V18.8519ZM4.6082 10.0919C4.6082 11.7239 5.9282 13.0199 7.5602 13.0199C9.1682 13.0199 10.5122 11.7239 10.5122 10.0919C10.5122 8.45995 9.1682 7.13995 7.5602 7.13995C5.9282 7.13995 4.6082 8.45995 4.6082 10.0919ZM5.6402 10.0919C5.6402 9.01195 6.5042 8.17195 7.5602 8.17195C8.6162 8.17195 9.4802 9.01195 9.4802 10.0919C9.4802 11.1479 8.6162 12.0119 7.5602 12.0119C6.5042 12.0119 5.6402 11.1479 5.6402 10.0919ZM12.7922 14.1479V9.53995H18.7682C19.8962 9.53995 20.5682 10.2119 20.5682 11.3399L20.5442 14.1479H12.7922Z" fill="black"/>
</svg>
