<svg width="24" height="24" viewBox="0 0 24 24" fill="none" xmlns="http://www.w3.org/2000/svg">
<path d="M3.35986 19.3201L7.94386 21.9841L11.9999 19.6321L16.0559 21.9841L20.6399 19.3201V14.0401L17.1119 12.0001L20.6399 9.96011V4.68011L16.0559 2.01611L11.9999 4.36811L7.94386 2.01611L3.35986 4.68011V9.96011L6.88786 12.0001L3.35986 14.0401V19.3201ZM4.41586 18.6961V15.1681L7.51186 16.9441V20.4961L4.41586 18.6961ZM4.41586 9.33611V5.80811L7.51186 7.58411V11.1361L4.41586 9.33611ZM4.87186 14.4001L8.03986 12.5521L11.1119 14.3521L7.94386 16.1761L4.87186 14.4001ZM4.87186 5.04011L7.94386 3.26411L11.0159 5.04011L7.94386 6.81611L4.87186 5.04011ZM8.37586 20.4961V16.9441L11.5679 15.1201V18.6481L8.37586 20.4961ZM8.37586 11.2321V7.58411L11.5679 5.76011V9.38411L8.37586 11.2321ZM8.80786 12.0001L11.9999 10.1521L15.1919 12.0001L11.9999 13.8481L8.80786 12.0001ZM12.4319 18.6481V15.1201L15.6239 16.9441V20.4961L12.4319 18.6481ZM12.4319 9.38411V5.76011L15.6239 7.58411V11.2321L12.4319 9.38411ZM12.8879 14.3521L15.9599 12.5521L19.1279 14.4001L16.0559 16.1761L12.8879 14.3521ZM12.9839 5.04011L16.0559 3.26411L19.1279 5.04011L16.0559 6.81611L12.9839 5.04011ZM16.4879 20.4961V16.9441L19.5839 15.1681V18.6961L16.4879 20.4961ZM16.4879 11.1361V7.58411L19.5839 5.80811V9.33611L16.4879 11.1361Z" fill="black"/>
</svg>
