<svg width="24" height="24" viewBox="0 0 24 24" fill="none" xmlns="http://www.w3.org/2000/svg">
<path d="M3.35999 19.3201L7.94399 21.9841L12 19.6321L16.056 21.9841L20.64 19.3201V14.0401L17.112 12.0001L20.64 9.96011V4.68011L16.056 2.01611L12 4.36811L7.94399 2.01611L3.35999 4.68011V9.96011L6.88799 12.0001L3.35999 14.0401V19.3201ZM4.41599 18.6961V15.1681L7.51199 16.9441V20.4961L4.41599 18.6961ZM4.41599 9.33611V5.80811L7.51199 7.58411V11.1361L4.41599 9.33611ZM4.87199 14.4001L8.03999 12.5521L11.112 14.3521L7.94399 16.1761L4.87199 14.4001ZM4.87199 5.04011L7.94399 3.26411L11.016 5.04011L7.94399 6.81611L4.87199 5.04011ZM8.37599 20.4961V16.9441L11.568 15.1201V18.6481L8.37599 20.4961ZM8.37599 11.2321V7.58411L11.568 5.76011V9.38411L8.37599 11.2321ZM8.80798 12.0001L12 10.1521L15.192 12.0001L12 13.8481L8.80798 12.0001ZM12.432 18.6481V15.1201L15.624 16.9441V20.4961L12.432 18.6481ZM12.432 9.38411V5.76011L15.624 7.58411V11.2321L12.432 9.38411ZM12.888 14.3521L15.96 12.5521L19.128 14.4001L16.056 16.1761L12.888 14.3521ZM12.984 5.04011L16.056 3.26411L19.128 5.04011L16.056 6.81611L12.984 5.04011ZM16.488 20.4961V16.9441L19.584 15.1681V18.6961L16.488 20.4961ZM16.488 11.1361V7.58411L19.584 5.80811V9.33611L16.488 11.1361Z" fill="black"/>
</svg>
