<svg width="24" height="24" viewBox="0 0 24 24" fill="none" xmlns="http://www.w3.org/2000/svg">
<path d="M2.64005 12H3.79205V6.67195H20.2801C19.7521 7.17595 19.2001 7.70395 18.6961 8.20795L17.2321 9.69595L17.9761 10.44L22.3201 6.09595L17.9761 1.75195L17.2321 2.51995L18.6961 3.98395C19.2001 4.48795 19.7281 5.01595 20.2561 5.51995H2.64005V12ZM1.68005 17.904L6.02405 22.248L6.79205 21.48L5.32805 20.016C4.82405 19.512 4.27205 18.984 3.74405 18.48H21.3601V12H20.2081V17.328H3.72005C4.27205 16.8 4.80005 16.296 5.32805 15.768L6.79205 14.304L6.02405 13.536L1.68005 17.904Z" fill="black"/>
</svg>
