<svg width="24" height="24" viewBox="0 0 24 24" fill="none" xmlns="http://www.w3.org/2000/svg">
<path d="M2.64018 12H3.79218V6.67195H20.2802C19.7522 7.17595 19.2002 7.70395 18.6962 8.20795L17.2322 9.69595L17.9762 10.44L22.3202 6.09595L17.9762 1.75195L17.2322 2.51995L18.6962 3.98395C19.2002 4.48795 19.7282 5.01595 20.2562 5.51995H2.64018V12ZM1.68018 17.904L6.02418 22.248L6.79218 21.48L5.32818 20.016C4.82418 19.512 4.27218 18.984 3.74418 18.48H21.3602V12H20.2082V17.328H3.72018C4.27218 16.8 4.80018 16.296 5.32818 15.768L6.79218 14.304L6.02418 13.536L1.68018 17.904Z" fill="black"/>
</svg>
