<svg width="24" height="24" viewBox="0 0 24 24" fill="none" xmlns="http://www.w3.org/2000/svg">
<path d="M11.9999 21.1199C17.1119 21.1199 21.1199 16.9679 21.1199 11.9999C21.1199 6.91188 17.0879 2.87988 11.9999 2.87988C6.91188 2.87988 2.87988 6.91188 2.87988 11.9999C2.87988 17.0879 6.91188 21.1199 11.9999 21.1199ZM4.07988 11.9999C4.07988 7.55988 7.55988 4.07988 11.9999 4.07988C16.4399 4.07988 19.9199 7.55988 19.9199 11.9999C19.9199 16.3199 16.4399 19.9199 11.9999 19.9199C7.55988 19.9199 4.07988 16.4399 4.07988 11.9999ZM8.32788 13.4159C8.32788 15.3119 9.64788 16.6319 11.5679 16.7999V17.9759H12.4559V16.7999C14.2559 16.6319 15.5999 15.5279 15.5999 13.9439C15.5999 12.5279 14.5439 11.6879 12.9359 11.4719L11.3759 11.2799C10.2719 11.1359 9.76788 10.7039 9.76788 9.81588C9.76788 8.71188 10.6319 8.15988 12.0239 8.15988C13.5359 8.15988 14.2559 8.85588 14.2319 10.2719H15.4079C15.4079 8.59188 14.1839 7.31988 12.4559 7.15188V5.97588H11.5679V7.15188C9.88788 7.31988 8.63988 8.39988 8.63988 9.86388C8.63988 11.2319 9.52788 12.0479 11.0399 12.2399L12.5999 12.4559C13.8479 12.6239 14.4239 13.0559 14.4239 14.0159C14.4239 15.1919 13.5839 15.7679 12.0239 15.7679C10.2719 15.7679 9.45588 15.0479 9.45588 13.4159H8.32788Z" fill="black"/>
</svg>
