<svg width="24" height="24" viewBox="0 0 24 24" fill="none" xmlns="http://www.w3.org/2000/svg">
<path d="M19.6921 20.2441C20.9641 20.2441 22.0441 19.1881 22.0441 17.9161C22.0441 16.6441 20.9641 15.5641 19.6921 15.5641C19.0441 15.5641 18.4441 15.8521 18.0361 16.3081L15.4681 14.7721C15.6121 14.4121 15.7081 14.0041 15.7081 13.5721C15.7081 11.7961 14.2441 10.3561 12.4681 10.3561C12.1561 10.3561 11.8441 10.4041 11.5561 10.5001L10.3321 7.9081C10.8601 7.5001 11.2201 6.8281 11.2201 6.1081C11.2201 4.8361 10.1401 3.7561 8.86806 3.7561C7.59606 3.7561 6.54006 4.8361 6.54006 6.1081C6.54006 7.3801 7.59606 8.4361 8.86806 8.4361C9.06006 8.4361 9.22806 8.4121 9.42006 8.3641L10.6201 10.9321C9.80406 11.5081 9.25206 12.4921 9.25206 13.5721C9.25206 15.3721 10.6681 16.7881 12.4681 16.7881C13.4521 16.7881 14.3401 16.3561 14.9401 15.6601L17.4841 17.1721C17.4121 17.3881 17.3641 17.6521 17.3641 17.9161C17.3641 19.1881 18.4201 20.2441 19.6921 20.2441ZM1.95605 13.5961C1.95605 14.5561 2.74805 15.3481 3.70805 15.3481C4.69205 15.3481 5.46005 14.5561 5.46005 13.5961C5.46005 12.6121 4.69205 11.8441 3.70805 11.8441C2.74805 11.8441 1.95605 12.6121 1.95605 13.5961ZM6.34806 14.0521H8.34006V13.1401H6.34806V14.0521ZM7.54806 6.1081C7.54806 5.3881 8.14806 4.7881 8.86806 4.7881C9.58806 4.7881 10.1881 5.3881 10.1881 6.1081C10.1881 6.8281 9.58806 7.4281 8.86806 7.4281C8.14806 7.4281 7.54806 6.8281 7.54806 6.1081ZM10.3321 13.5721C10.3321 12.3961 11.2681 11.4361 12.4681 11.4361C13.6681 11.4361 14.6281 12.3961 14.6281 13.5721C14.6281 14.7721 13.6681 15.7081 12.4681 15.7081C11.2681 15.7081 10.3321 14.7721 10.3321 13.5721ZM15.6361 10.6921L16.1641 11.4121L18.2761 9.8761L17.7241 9.1561L15.6361 10.6921ZM18.3721 17.9161C18.3721 17.1961 18.9721 16.5961 19.6921 16.5961C20.4121 16.5961 21.0121 17.1961 21.0121 17.9161C21.0121 18.6361 20.4121 19.2361 19.6921 19.2361C18.9721 19.2361 18.3721 18.6361 18.3721 17.9161ZM18.4681 7.8841C18.4681 8.8441 19.2601 9.6361 20.2201 9.6361C21.2041 9.6361 21.9721 8.8441 21.9721 7.8841C21.9721 6.9001 21.2041 6.1321 20.2201 6.1321C19.2601 6.1321 18.4681 6.9001 18.4681 7.8841Z" fill="black"/>
</svg>
