<svg width="24" height="24" viewBox="0 0 24 24" fill="none" xmlns="http://www.w3.org/2000/svg">
<path d="M9.264 10.0799L15.096 15.9119L15.936 15.0959L10.08 9.23988C10.872 9.26388 11.64 9.28788 12.408 9.28788L14.376 9.26388V8.20788H8.208V14.3519H9.288V12.3839C9.288 11.6399 9.288 10.8479 9.264 10.0799ZM2.88 11.9999C2.88 17.0879 6.912 21.1199 12 21.1199C17.112 21.1199 21.12 16.9679 21.12 11.9999C21.12 6.91188 17.088 2.87988 12 2.87988C6.912 2.87988 2.88 6.91188 2.88 11.9999ZM4.08 11.9999C4.08 7.55988 7.56 4.07988 12 4.07988C16.44 4.07988 19.92 7.55988 19.92 11.9999C19.92 16.3199 16.44 19.9199 12 19.9199C7.56 19.9199 4.08 16.4399 4.08 11.9999Z" fill="black"/>
</svg>
