<svg width="24" height="24" viewBox="0 0 24 24" fill="none" xmlns="http://www.w3.org/2000/svg">
<path d="M8.78388 16.0799L11.9999 12.8399L15.2159 16.0799L16.0799 15.2159L12.8399 11.9999L16.0799 8.78388L15.2159 7.91988L11.9999 11.1599L8.78388 7.91988L7.91988 8.78388L11.1599 11.9999L7.91988 15.2159L8.78388 16.0799ZM2.87988 11.9999C2.87988 17.0879 6.91188 21.1199 11.9999 21.1199C17.1119 21.1199 21.1199 16.9679 21.1199 11.9999C21.1199 6.91188 17.0879 2.87988 11.9999 2.87988C6.91188 2.87988 2.87988 6.91188 2.87988 11.9999ZM4.07988 11.9999C4.07988 7.55988 7.55988 4.07988 11.9999 4.07988C16.4399 4.07988 19.9199 7.55988 19.9199 11.9999C19.9199 16.3199 16.4399 19.9199 11.9999 19.9199C7.55988 19.9199 4.07988 16.4399 4.07988 11.9999Z" fill="black"/>
</svg>
