<svg width="24" height="24" viewBox="0 0 24 24" fill="none" xmlns="http://www.w3.org/2000/svg">
<path d="M8.20788 15.7919H14.3519V14.7119H12.4079C11.6399 14.7119 10.8719 14.7119 10.0799 14.7359L15.9359 8.90388L15.0959 8.06388L9.26388 13.9199C9.26388 13.1279 9.28788 12.3599 9.28788 11.5919V9.62388H8.20788V15.7919ZM2.87988 11.9999C2.87988 17.0879 6.91188 21.1199 11.9999 21.1199C17.1119 21.1199 21.1199 16.9679 21.1199 11.9999C21.1199 6.91188 17.0879 2.87988 11.9999 2.87988C6.91188 2.87988 2.87988 6.91188 2.87988 11.9999ZM4.07988 11.9999C4.07988 7.55988 7.55988 4.07988 11.9999 4.07988C16.4399 4.07988 19.9199 7.55988 19.9199 11.9999C19.9199 16.3199 16.4399 19.9199 11.9999 19.9199C7.55988 19.9199 4.07988 16.4399 4.07988 11.9999Z" fill="black"/>
</svg>
