<svg width="24" height="24" viewBox="0 0 24 24" fill="none" xmlns="http://www.w3.org/2000/svg">
<path d="M12 17.2799L16.344 12.9359L15.576 12.1679L14.208 13.5599C13.656 14.0879 13.128 14.6399 12.576 15.2159V6.95988H11.424V15.2399C10.872 14.6639 10.344 14.1119 9.792 13.5599L8.4 12.1679L7.656 12.9359L12 17.2799ZM2.88 11.9999C2.88 17.0879 6.912 21.1199 12 21.1199C17.112 21.1199 21.12 16.9679 21.12 11.9999C21.12 6.91188 17.088 2.87988 12 2.87988C6.912 2.87988 2.88 6.91188 2.88 11.9999ZM4.08 11.9999C4.08 7.55988 7.56 4.07988 12 4.07988C16.44 4.07988 19.92 7.55988 19.92 11.9999C19.92 16.3199 16.44 19.9199 12 19.9199C7.56 19.9199 4.08 16.4399 4.08 11.9999Z" fill="black"/>
</svg>
