<svg width="24" height="24" viewBox="0 0 24 24" fill="none" xmlns="http://www.w3.org/2000/svg">
<path d="M9.26388 10.0799L15.0959 15.9119L15.9359 15.0959L10.0799 9.23988C10.8719 9.26388 11.6399 9.28788 12.4079 9.28788L14.3759 9.26388V8.20788H8.20788V14.3519H9.28788V12.3839C9.28788 11.6399 9.28788 10.8479 9.26388 10.0799ZM2.87988 11.9999C2.87988 17.0879 6.91188 21.1199 11.9999 21.1199C17.1119 21.1199 21.1199 16.9679 21.1199 11.9999C21.1199 6.91188 17.0879 2.87988 11.9999 2.87988C6.91188 2.87988 2.87988 6.91188 2.87988 11.9999ZM4.07988 11.9999C4.07988 7.55988 7.55988 4.07988 11.9999 4.07988C16.4399 4.07988 19.9199 7.55988 19.9199 11.9999C19.9199 16.3199 16.4399 19.9199 11.9999 19.9199C7.55988 19.9199 4.07988 16.4399 4.07988 11.9999Z" fill="black"/>
</svg>
