<svg width="24" height="24" viewBox="0 0 24 24" fill="none" xmlns="http://www.w3.org/2000/svg">
<path d="M11.0639 16.3439L11.8319 15.5759L10.4399 14.1839C9.91188 13.6559 9.35988 13.1039 8.78388 12.5759H17.0399V11.4239H8.75988C9.33588 10.8719 9.88788 10.3439 10.4399 9.79188L11.8319 8.39988L11.0639 7.63188L6.71988 11.9999L11.0639 16.3439ZM2.87988 11.9999C2.87988 17.0879 6.91188 21.1199 11.9999 21.1199C17.1119 21.1199 21.1199 16.9679 21.1199 11.9999C21.1199 6.91188 17.0879 2.87988 11.9999 2.87988C6.91188 2.87988 2.87988 6.91188 2.87988 11.9999ZM4.07988 11.9999C4.07988 7.55988 7.55988 4.07988 11.9999 4.07988C16.4399 4.07988 19.9199 7.55988 19.9199 11.9999C19.9199 16.3199 16.4399 19.9199 11.9999 19.9199C7.55988 19.9199 4.07988 16.4399 4.07988 11.9999Z" fill="black"/>
</svg>
