<svg width="24" height="24" viewBox="0 0 24 24" fill="none" xmlns="http://www.w3.org/2000/svg">
<path d="M9.64788 15.7919H15.7919V9.64788H14.7119V11.5919C14.7119 12.3599 14.7119 13.1279 14.7359 13.9199L8.90388 8.06388L8.08788 8.90388L13.9439 14.7359C13.1519 14.7359 12.3839 14.7119 11.5919 14.7119H9.64788V15.7919ZM2.87988 11.9999C2.87988 17.0879 6.91188 21.1199 11.9999 21.1199C17.1119 21.1199 21.1199 16.9679 21.1199 11.9999C21.1199 6.91188 17.0879 2.87988 11.9999 2.87988C6.91188 2.87988 2.87988 6.91188 2.87988 11.9999ZM4.07988 11.9999C4.07988 7.55988 7.55988 4.07988 11.9999 4.07988C16.4399 4.07988 19.9199 7.55988 19.9199 11.9999C19.9199 16.3199 16.4399 19.9199 11.9999 19.9199C7.55988 19.9199 4.07988 16.4399 4.07988 11.9999Z" fill="black"/>
</svg>
