<svg width="24" height="24" viewBox="0 0 24 24" fill="none" xmlns="http://www.w3.org/2000/svg">
<path d="M8.784 16.0799L12 12.8399L15.216 16.0799L16.08 15.2159L12.84 11.9999L16.08 8.78388L15.216 7.91988L12 11.1599L8.784 7.91988L7.92 8.78388L11.16 11.9999L7.92 15.2159L8.784 16.0799ZM2.88 11.9999C2.88 17.0879 6.912 21.1199 12 21.1199C17.112 21.1199 21.12 16.9679 21.12 11.9999C21.12 6.91188 17.088 2.87988 12 2.87988C6.912 2.87988 2.88 6.91188 2.88 11.9999ZM4.08 11.9999C4.08 7.55988 7.56 4.07988 12 4.07988C16.44 4.07988 19.92 7.55988 19.92 11.9999C19.92 16.3199 16.44 19.9199 12 19.9199C7.56 19.9199 4.08 16.4399 4.08 11.9999Z" fill="black"/>
</svg>
