<svg width="24" height="24" viewBox="0 0 24 24" fill="none" xmlns="http://www.w3.org/2000/svg">
<path d="M5.25603 18.024H18.768V16.944H16.704C18.768 15.504 20.04 13.176 20.04 10.56C20.04 6.14402 16.416 2.52002 12 2.52002C7.58403 2.52002 3.96003 6.14402 3.96003 10.56C3.96003 13.176 5.20803 15.504 7.29603 16.944H5.25603V18.024ZM2.16003 21.48H21.84V14.88H20.64V20.328H3.36003V14.88H2.16003V21.48ZM5.16003 10.56C5.16003 6.76802 8.23203 3.72002 12 3.72002C15.792 3.72002 18.84 6.76802 18.84 10.56C18.84 13.608 16.824 16.152 14.064 16.944H9.93603C7.20003 16.152 5.16003 13.608 5.16003 10.56ZM9.07203 11.616C9.04803 13.128 10.08 14.184 11.592 14.352V15.288H12.432V14.352C13.872 14.208 14.928 13.296 14.928 12.048C14.928 10.896 14.088 10.224 12.792 10.056L11.544 9.88802C10.68 9.79202 10.296 9.45602 10.296 8.78402C10.296 7.94402 10.944 7.51202 12.048 7.51202C13.248 7.51202 13.752 8.01602 13.752 9.14402H14.784C14.784 7.77602 13.824 6.76802 12.432 6.62402V5.68802H11.592V6.62402C10.272 6.79202 9.33603 7.65602 9.33603 8.83202C9.33603 9.93602 10.056 10.608 11.256 10.752L12.48 10.896C13.44 11.016 13.896 11.352 13.896 12.096C13.896 13.032 13.272 13.464 12.024 13.464C10.656 13.464 10.056 12.912 10.056 11.616H9.07203Z" fill="black"/>
</svg>
