<svg width="24" height="24" viewBox="0 0 24 24" fill="none" xmlns="http://www.w3.org/2000/svg">
<path d="M17.808 16.1879V17.3399C20.28 17.0519 22.08 15.1079 22.08 12.7319C22.08 10.4039 20.376 8.55588 18.192 8.19588C17.808 5.36388 15.336 3.27588 12.504 3.27588C10.392 3.27588 8.49604 4.40388 7.51204 6.15588C4.51204 6.17988 1.92004 8.62788 1.92004 11.7479C1.92004 14.2679 3.57604 16.4279 5.97604 17.1479V15.9239C4.29604 15.2999 3.12004 13.6919 3.12004 11.7479C3.12004 8.96388 5.59204 6.92388 8.30404 7.37988C8.92804 5.57988 10.56 4.42788 12.504 4.42788C15.096 4.42788 17.232 6.53988 16.992 9.27588C19.128 9.10788 20.88 10.5959 20.88 12.7319C20.88 14.5079 19.584 15.9239 17.808 16.1879ZM7.63204 16.3799L11.976 20.7239L16.32 16.3799L15.552 15.6119L14.088 17.0759C13.584 17.5799 13.056 18.1319 12.552 18.6599V11.3639H11.4V18.6839C10.896 18.1319 10.368 17.6039 9.86404 17.0759L8.37604 15.6119L7.63204 16.3799Z" fill="black"/>
</svg>
