<svg width="24" height="24" viewBox="0 0 24 24" fill="none" xmlns="http://www.w3.org/2000/svg">
<path d="M17.8079 16.1879V17.3399C20.2799 17.0519 22.0799 15.1079 22.0799 12.7319C22.0799 10.4039 20.3759 8.55588 18.1919 8.19588C17.8079 5.36388 15.3359 3.27588 12.5039 3.27588C10.3919 3.27588 8.49592 4.40388 7.51192 6.15588C4.51192 6.17988 1.91992 8.62788 1.91992 11.7479C1.91992 14.2679 3.57592 16.4279 5.97592 17.1479V15.9239C4.29592 15.2999 3.11992 13.6919 3.11992 11.7479C3.11992 8.96388 5.59192 6.92388 8.30392 7.37988C8.92792 5.57988 10.5599 4.42788 12.5039 4.42788C15.0959 4.42788 17.2319 6.53988 16.9919 9.27588C19.1279 9.10788 20.8799 10.5959 20.8799 12.7319C20.8799 14.5079 19.5839 15.9239 17.8079 16.1879ZM7.63192 16.3799L11.9759 20.7239L16.3199 16.3799L15.5519 15.6119L14.0879 17.0759C13.5839 17.5799 13.0559 18.1319 12.5519 18.6599V11.3639H11.3999V18.6839C10.8959 18.1319 10.3679 17.6039 9.86392 17.0759L8.37592 15.6119L7.63192 16.3799Z" fill="black"/>
</svg>
