<svg width="24" height="24" viewBox="0 0 24 24" fill="none" xmlns="http://www.w3.org/2000/svg">
<path d="M8.85601 16.0801H11.808C13.416 16.0801 14.808 15.4801 15.792 14.1841C15.96 13.9921 16.08 13.8001 16.2 13.5841H16.92C19.704 13.5841 21.792 11.7361 21.792 9.16805C21.792 6.52805 19.704 4.68005 16.92 4.68005H3.79201V10.2001C3.79201 12.0241 4.12801 13.2241 4.89601 14.1841C5.90401 15.4801 7.24801 16.0801 8.85601 16.0801ZM2.20801 18.1201C2.37601 18.7921 3.02401 19.3201 3.79201 19.3201H17.952C18.744 19.3201 19.392 18.7921 19.56 18.1201H2.20801ZM5.06401 10.8481V5.80805H15.624V10.8481C15.624 13.4161 14.52 14.8801 11.928 14.8801H8.76001C6.21601 14.8801 5.06401 13.4641 5.06401 10.8481ZM16.632 12.4321C16.8 11.8081 16.872 11.0881 16.872 10.2001V5.80805C19.32 5.83205 20.544 6.79205 20.544 8.85605V9.43205C20.544 11.4241 19.344 12.4321 16.992 12.4321H16.632Z" fill="black"/>
</svg>
