<svg width="24" height="24" viewBox="0 0 24 24" fill="none" xmlns="http://www.w3.org/2000/svg">
<path d="M9.64796 21.2999C13.44 21.2999 16.392 20.0759 16.392 18.012V16.26C19.128 15.924 21.144 14.796 21.144 13.116V5.93995C21.144 3.92395 18.288 2.69995 14.4 2.69995C10.608 2.69995 7.60796 3.87595 7.60796 5.93995V7.76395C4.82396 8.09995 2.85596 9.20395 2.85596 10.836V18.012C2.85596 20.0519 5.75996 21.2999 9.64796 21.2999ZM3.93596 18.012V16.308C5.03996 17.22 7.12796 17.748 9.64796 17.748C12.096 17.748 14.184 17.22 15.312 16.284V18.012C15.312 19.26 13.128 20.2199 9.64796 20.2199C6.07196 20.2199 3.93596 19.284 3.93596 18.012ZM3.93596 14.46V12.684C5.03996 13.596 7.12796 14.124 9.64796 14.124C12.096 14.124 14.184 13.596 15.312 12.66V14.46C15.312 15.732 13.128 16.668 9.64796 16.668C6.07196 16.668 3.93596 15.732 3.93596 14.46ZM3.93596 10.836C3.93596 9.61195 6.11996 8.67595 9.64796 8.67595C13.224 8.67595 15.312 9.58795 15.312 10.836C15.312 12.108 13.128 13.044 9.64796 13.044C6.07196 13.044 3.93596 12.108 3.93596 10.836ZM8.68796 5.93995C8.68796 4.71595 10.872 3.77995 14.4 3.77995C17.976 3.77995 20.064 4.69195 20.064 5.93995C20.064 7.18795 17.616 8.31595 13.656 8.14795C12.744 7.85995 11.688 7.66795 10.536 7.61995C9.33596 7.23595 8.68796 6.63595 8.68796 5.93995ZM15.48 9.17995C17.472 9.08395 19.152 8.55595 20.064 7.76395V9.56395C20.064 10.548 18.72 11.34 16.392 11.628V10.836C16.392 10.188 16.056 9.63595 15.48 9.17995ZM16.392 15.18V12.732C17.976 12.54 19.272 12.06 20.064 11.388V13.116C20.064 14.1 18.72 14.892 16.392 15.18Z" fill="black"/>
</svg>
