<svg width="24" height="24" viewBox="0 0 24 24" fill="none" xmlns="http://www.w3.org/2000/svg">
<path d="M10.608 22.0799H13.488C17.232 22.0799 20.064 17.4479 20.064 11.9999C20.064 6.55192 17.232 1.91992 13.488 1.91992H10.608C6.74404 1.91992 3.93604 6.57592 3.93604 11.9999C3.93604 17.4239 6.74404 22.0799 10.608 22.0799ZM5.13604 11.9999C5.13604 7.10392 7.58404 3.11992 10.608 3.11992C13.536 3.11992 16.032 7.10392 16.032 11.9999C16.032 16.8959 13.536 20.8799 10.608 20.8799C7.58404 20.8799 5.13604 16.8959 5.13604 11.9999ZM13.488 20.8799C15.6 19.2479 17.04 15.8399 17.04 11.9999C17.04 8.15992 15.6 4.75192 13.488 3.11992C16.44 3.11992 18.864 7.10392 18.864 11.9999C18.864 16.8959 16.44 20.8799 13.488 20.8799Z" fill="black"/>
</svg>
