<svg width="24" height="24" viewBox="0 0 24 24" fill="none" xmlns="http://www.w3.org/2000/svg">
<path d="M2.64001 4.88398V17.292L6.76802 14.124H17.64V4.88398C17.64 3.89998 16.824 3.08398 15.84 3.08398H4.44001C3.45601 3.08398 2.64001 3.89998 2.64001 4.88398ZM3.84001 14.916V4.90798C3.84001 4.52398 4.15201 4.21198 4.53601 4.21198H15.768C16.128 4.21198 16.44 4.52398 16.44 4.90798V12.972H6.36001L3.84001 14.916ZM7.68002 15.924C7.68002 16.908 8.49602 17.724 9.48002 17.724H17.208L21.36 20.916V8.72398C21.36 7.73998 20.52 6.87598 19.512 6.87598V8.07598C19.872 8.07598 20.16 8.43598 20.16 8.96398V18.516L17.64 16.572H9.79202C9.19202 16.572 8.88002 16.284 8.88002 15.924H7.68002Z" fill="black"/>
</svg>
