<svg width="24" height="24" viewBox="0 0 24 24" fill="none" xmlns="http://www.w3.org/2000/svg">
<path d="M2.64014 4.88398V17.292L6.76814 14.124H17.6401V4.88398C17.6401 3.89998 16.8241 3.08398 15.8401 3.08398H4.44014C3.45614 3.08398 2.64014 3.89998 2.64014 4.88398ZM3.84014 14.916V4.90798C3.84014 4.52398 4.15214 4.21198 4.53614 4.21198H15.7681C16.1281 4.21198 16.4401 4.52398 16.4401 4.90798V12.972H6.36014L3.84014 14.916ZM7.68014 15.924C7.68014 16.908 8.49614 17.724 9.48014 17.724H17.2081L21.3601 20.916V8.72398C21.3601 7.73998 20.5201 6.87598 19.5121 6.87598V8.07598C19.8721 8.07598 20.1601 8.43598 20.1601 8.96398V18.516L17.6401 16.572H9.79214C9.19214 16.572 8.88014 16.284 8.88014 15.924H7.68014Z" fill="black"/>
</svg>
