<svg width="24" height="24" viewBox="0 0 24 24" fill="none" xmlns="http://www.w3.org/2000/svg">
<path d="M2.64014 4.58406V17.5921L6.76814 14.4241H17.6401V4.58406C17.6401 3.60006 16.8241 2.78406 15.8401 2.78406H4.44014C3.45614 2.78406 2.64014 3.60006 2.64014 4.58406ZM3.84014 15.2161V4.60806C3.84014 4.22406 4.15214 3.91206 4.53614 3.91206H15.7681C16.1281 3.91206 16.4401 4.22406 16.4401 4.60806V13.2721H6.36014L3.84014 15.2161ZM7.68014 16.2241C7.68014 17.2081 8.49614 18.0241 9.48014 18.0241H17.2081L21.3601 21.2161V8.54406C21.3601 7.56006 20.5201 6.69606 19.5121 6.69606V7.89606C19.8721 7.89606 20.1601 8.25606 20.1601 8.78406V18.8161L17.6401 16.8721H9.79214C9.19214 16.8721 8.88014 16.5841 8.88014 16.2241H7.68014ZM7.77614 9.38406C7.77614 10.5601 8.59214 11.4001 9.79214 11.5201V12.2401H10.4401V11.5201C11.5921 11.4241 12.4321 10.7041 12.4321 9.72006C12.4321 8.83206 11.7601 8.28006 10.7281 8.16006L9.76814 8.04006C9.09614 7.94406 8.80814 7.70406 8.80814 7.22406C8.80814 6.62406 9.28814 6.28806 10.1281 6.28806C11.0641 6.28806 11.4481 6.67206 11.4481 7.48806H12.3121C12.3121 6.45606 11.5441 5.64006 10.4401 5.52006V4.82406H9.79214V5.52006C8.76014 5.64006 7.99214 6.33606 7.99214 7.27206C7.99214 8.13606 8.54414 8.66406 9.50414 8.76006L10.4881 8.88006C11.2081 8.97606 11.5441 9.21606 11.5441 9.76806C11.5441 10.4401 11.0881 10.7521 10.1281 10.7521C9.07214 10.7521 8.61614 10.3681 8.61614 9.38406H7.77614Z" fill="black"/>
</svg>
