<svg width="24" height="24" viewBox="0 0 24 24" fill="none" xmlns="http://www.w3.org/2000/svg">
<path d="M2.64014 4.58394V17.5919L6.76814 14.4239H17.6401V4.58394C17.6401 3.59994 16.8241 2.78394 15.8401 2.78394H4.44014C3.45614 2.78394 2.64014 3.59994 2.64014 4.58394ZM3.84014 15.2159V4.60794C3.84014 4.22394 4.15214 3.91194 4.53614 3.91194H15.7681C16.1281 3.91194 16.4401 4.22394 16.4401 4.60794V13.2719H6.36014L3.84014 15.2159ZM7.68014 16.2239C7.68014 17.2079 8.49614 18.0239 9.48014 18.0239H17.2081L21.3601 21.2159V8.54394C21.3601 7.55994 20.5201 6.69594 19.5121 6.69594V7.89594C19.8721 7.89594 20.1601 8.25594 20.1601 8.78394V18.8159L17.6401 16.8719H9.79214C9.19214 16.8719 8.88014 16.5839 8.88014 16.2239H7.68014ZM7.77614 9.38393C7.77614 10.5599 8.59214 11.3999 9.79214 11.5199V12.2399H10.4401V11.5199C11.5921 11.4239 12.4321 10.7039 12.4321 9.71993C12.4321 8.83193 11.7601 8.27994 10.7281 8.15993L9.76814 8.03994C9.09614 7.94394 8.80814 7.70394 8.80814 7.22394C8.80814 6.62394 9.28814 6.28794 10.1281 6.28794C11.0641 6.28794 11.4481 6.67194 11.4481 7.48794H12.3121C12.3121 6.45594 11.5441 5.63994 10.4401 5.51994V4.82394H9.79214V5.51994C8.76014 5.63994 7.99214 6.33594 7.99214 7.27194C7.99214 8.13594 8.54414 8.66394 9.50414 8.75993L10.4881 8.87994C11.2081 8.97593 11.5441 9.21594 11.5441 9.76794C11.5441 10.4399 11.0881 10.7519 10.1281 10.7519C9.07214 10.7519 8.61614 10.3679 8.61614 9.38393H7.77614Z" fill="black"/>
</svg>
