<svg width="24" height="24" viewBox="0 0 24 24" fill="none" xmlns="http://www.w3.org/2000/svg">
<path d="M2.64001 4.58394V17.5919L6.76802 14.4239H17.64V4.58394C17.64 3.59994 16.824 2.78394 15.84 2.78394H4.44001C3.45601 2.78394 2.64001 3.59994 2.64001 4.58394ZM3.84001 15.2159V4.60794C3.84001 4.22394 4.15201 3.91194 4.53601 3.91194H15.768C16.128 3.91194 16.44 4.22394 16.44 4.60794V13.2719H6.36001L3.84001 15.2159ZM7.68002 16.2239C7.68002 17.2079 8.49602 18.0239 9.48002 18.0239H17.208L21.36 21.2159V8.54394C21.36 7.55994 20.52 6.69594 19.512 6.69594V7.89594C19.872 7.89594 20.16 8.25594 20.16 8.78394V18.8159L17.64 16.8719H9.79202C9.19202 16.8719 8.88002 16.5839 8.88002 16.2239H7.68002ZM7.77602 9.38394C7.77602 10.5599 8.59202 11.3999 9.79202 11.5199V12.2399H10.44V11.5199C11.592 11.4239 12.432 10.7039 12.432 9.71994C12.432 8.83194 11.76 8.27994 10.728 8.15994L9.76802 8.03994C9.09602 7.94394 8.80802 7.70394 8.80802 7.22394C8.80802 6.62394 9.28802 6.28794 10.128 6.28794C11.064 6.28794 11.448 6.67194 11.448 7.48794H12.312C12.312 6.45594 11.544 5.63994 10.44 5.51994V4.82394H9.79202V5.51994C8.76002 5.63994 7.99202 6.33594 7.99202 7.27194C7.99202 8.13594 8.54402 8.66394 9.50402 8.75994L10.488 8.87994C11.208 8.97594 11.544 9.21594 11.544 9.76794C11.544 10.4399 11.088 10.7519 10.128 10.7519C9.07202 10.7519 8.61602 10.3679 8.61602 9.38394H7.77602Z" fill="black"/>
</svg>
