<svg width="24" height="24" viewBox="0 0 24 24" fill="none" xmlns="http://www.w3.org/2000/svg">
<path d="M5.25614 20.4001H18.7441C18.5281 19.7761 17.9281 19.3201 17.1601 19.3201H14.8081L14.1601 16.3201H19.5601C20.5441 16.3201 21.3601 15.5041 21.3601 14.5201V5.4001C21.3601 4.4161 20.5441 3.6001 19.5601 3.6001H4.44014C3.45614 3.6001 2.64014 4.4161 2.64014 5.4001V14.5201C2.64014 15.5041 3.45614 16.3201 4.44014 16.3201H9.84014L9.19214 19.3201H6.84014C6.12014 19.3201 5.49614 19.7761 5.25614 20.4001ZM3.84014 14.4961V5.4241C3.84014 5.0161 4.12814 4.7281 4.53614 4.7281H19.4881C19.8961 4.7281 20.1601 5.0161 20.1601 5.4241V14.4961C20.1601 14.9041 19.8961 15.1681 19.4881 15.1681H4.53614C4.12814 15.1681 3.84014 14.9041 3.84014 14.4961ZM10.2481 19.3201L10.8961 16.3201H13.1041L13.7521 19.3201H10.2481Z" fill="black"/>
</svg>
