<svg width="24" height="24" viewBox="0 0 24 24" fill="none" xmlns="http://www.w3.org/2000/svg">
<path d="M5.25614 20.4H18.7441C18.5281 19.776 17.9281 19.32 17.1601 19.32H14.8081L14.1601 16.32H19.5601C20.5441 16.32 21.3601 15.504 21.3601 14.52V5.39998C21.3601 4.41598 20.5441 3.59998 19.5601 3.59998H4.44014C3.45614 3.59998 2.64014 4.41598 2.64014 5.39998V14.52C2.64014 15.504 3.45614 16.32 4.44014 16.32H9.84014L9.19214 19.32H6.84014C6.12014 19.32 5.49614 19.776 5.25614 20.4ZM3.84014 14.496V5.42398C3.84014 5.01598 4.12814 4.72798 4.53614 4.72798H19.4881C19.8961 4.72798 20.1601 5.01598 20.1601 5.42398V14.496C20.1601 14.904 19.8961 15.168 19.4881 15.168H4.53614C4.12814 15.168 3.84014 14.904 3.84014 14.496ZM10.2481 19.32L10.8961 16.32H13.1041L13.7521 19.32H10.2481Z" fill="black"/>
</svg>
