<svg width="24" height="24" viewBox="0 0 24 24" fill="none" xmlns="http://www.w3.org/2000/svg">
<path d="M5.64 21.36H12.432V20.208H5.736C5.328 20.208 5.04 19.944 5.04 19.536V4.46401C5.04 4.05601 5.328 3.76801 5.736 3.76801H15.528C15.936 3.76801 16.2 4.05601 16.2 4.46401V6.76802H17.4V4.44001C17.4 3.45601 16.584 2.64001 15.6 2.64001H5.64C4.656 2.64001 3.84 3.45601 3.84 4.44001V19.56C3.84 20.544 4.656 21.36 5.64 21.36ZM14.28 21.36H20.16V8.64002H14.28V21.36ZM15.432 20.208V9.76802H19.032V20.208H15.432Z" fill="black"/>
</svg>
