<svg width="24" height="24" viewBox="0 0 24 24" fill="none" xmlns="http://www.w3.org/2000/svg">
<path d="M5.95215 14.4961C6.02415 17.9041 8.18415 20.1121 11.4961 20.3761L11.4721 22.3201H12.7441V20.3761C15.6721 20.1601 18.0481 18.3601 18.0481 15.5281C18.0481 13.0321 16.2481 11.6881 13.5361 11.3281L11.0401 10.9681C9.00015 10.6801 7.94415 9.86405 7.94415 8.18405V7.99205C7.94415 6.04805 9.45615 4.89605 11.9041 4.89605H12.2641C14.9281 4.89605 16.2481 6.33605 16.2721 9.00005H17.7601C17.7121 5.95205 15.6961 3.86405 12.7441 3.62405V1.68005H11.4961V3.62405C8.85615 3.86405 6.55215 5.47205 6.55215 8.18405C6.55215 10.5361 8.13615 11.8801 10.7281 12.2401L13.1761 12.5761C15.4321 12.8641 16.6081 13.7521 16.6081 15.5281V15.7921C16.6081 17.9041 15.0001 19.0801 12.3361 19.0801H12.0241C8.92815 19.0801 7.44015 17.4721 7.41615 14.4961H5.95215Z" fill="black"/>
</svg>
