<svg width="24" height="24" viewBox="0 0 24 24" fill="none" xmlns="http://www.w3.org/2000/svg">
<path d="M11.8198 21.7248L14.0998 19.4208C14.9878 18.1968 13.9318 15.7728 11.5558 13.2288L13.0918 11.6688C15.6598 14.0928 18.0598 15.0528 19.4038 14.1168L21.6838 11.8368C22.7398 10.3968 21.5158 7.8528 18.8278 5.1648C16.1398 2.4768 13.5958 1.2528 12.1558 2.3088L9.87584 4.5888C8.93984 5.9328 9.89984 8.3328 12.3238 10.9008L10.7638 12.4368C8.21984 10.0608 5.79584 9.0048 4.57184 9.8928L2.29184 12.1728C1.30784 13.5888 2.41184 16.1568 5.12384 18.8688C7.83584 21.6048 10.4038 22.6848 11.8198 21.7248ZM3.13184 12.8928L4.33184 11.7168C4.40384 13.0128 5.60384 14.8128 7.40384 16.5888C9.17984 18.3888 10.9798 19.5888 12.2758 19.6608L11.0998 20.8608C10.2598 21.3168 8.12384 20.3088 5.89184 18.1008C3.68384 15.8688 2.67584 13.7328 3.13184 12.8928ZM5.29184 10.7328C6.05984 10.2528 7.97984 11.2128 10.0198 13.1808L8.81984 14.4048C8.74784 14.4528 8.81984 14.7168 9.05984 14.9328C9.27584 15.1728 9.53984 15.2448 9.58784 15.1728L10.8118 13.9728C12.7798 16.0128 13.7398 17.9328 13.2598 18.7008C12.6358 19.3248 10.3078 18.1008 8.12384 15.8688C5.89184 13.6848 4.66784 11.3568 5.29184 10.7328ZM10.7398 5.3088L11.9158 4.1088C11.9878 5.4288 13.2118 7.2048 15.0118 8.9808C16.7878 10.7808 18.5638 12.0048 19.8838 12.0768L18.6838 13.2528C17.8438 13.7088 15.7078 12.7008 13.4998 10.4928C11.2918 8.2848 10.2838 6.1488 10.7398 5.3088ZM12.8998 3.1488C13.7158 2.6448 15.8278 3.7488 18.0358 5.9568C20.2438 8.1648 21.3478 10.2768 20.8438 11.0928C20.2198 11.7408 17.9158 10.4928 15.7078 8.2848C13.4998 6.0768 12.2518 3.7728 12.8998 3.1488ZM16.3318 6.7728C16.2598 6.8448 16.3558 7.1328 16.6198 7.3728C16.8598 7.6368 17.1478 7.7328 17.2198 7.6608L17.8438 7.0608C17.9158 7.0128 17.7958 6.7248 17.5318 6.4608C17.2678 6.2208 16.9798 6.0768 16.9318 6.1488L16.3318 6.7728Z" fill="black"/>
</svg>
