<svg width="24" height="24" viewBox="0 0 24 24" fill="none" xmlns="http://www.w3.org/2000/svg">
<path d="M11.8199 21.7248L14.0999 19.4208C14.9879 18.1968 13.9319 15.7728 11.5559 13.2288L13.0919 11.6688C15.6599 14.0928 18.0599 15.0528 19.4039 14.1168L21.6839 11.8368C22.7399 10.3968 21.5159 7.8528 18.8279 5.1648C16.1399 2.4768 13.5959 1.2528 12.1559 2.3088L9.87587 4.5888C8.93987 5.9328 9.89987 8.3328 12.3239 10.9008L10.7639 12.4368C8.21987 10.0608 5.79587 9.0048 4.57187 9.8928L2.29187 12.1728C1.30787 13.5888 2.41187 16.1568 5.12387 18.8688C7.83587 21.6048 10.4039 22.6848 11.8199 21.7248ZM3.13187 12.8928L4.33187 11.7168C4.40387 13.0128 5.60387 14.8128 7.40387 16.5888C9.17987 18.3888 10.9799 19.5888 12.2759 19.6608L11.0999 20.8608C10.2599 21.3168 8.12387 20.3088 5.89187 18.1008C3.68387 15.8688 2.67587 13.7328 3.13187 12.8928ZM5.29187 10.7328C6.05987 10.2528 7.97987 11.2128 10.0199 13.1808L8.81987 14.4048C8.74787 14.4528 8.81987 14.7168 9.05987 14.9328C9.27587 15.1728 9.53987 15.2448 9.58787 15.1728L10.8119 13.9728C12.7799 16.0128 13.7399 17.9328 13.2599 18.7008C12.6359 19.3248 10.3079 18.1008 8.12387 15.8688C5.89187 13.6848 4.66787 11.3568 5.29187 10.7328ZM10.7399 5.3088L11.9159 4.1088C11.9879 5.4288 13.2119 7.2048 15.0119 8.9808C16.7879 10.7808 18.5639 12.0048 19.8839 12.0768L18.6839 13.2528C17.8439 13.7088 15.7079 12.7008 13.4999 10.4928C11.2919 8.2848 10.2839 6.1488 10.7399 5.3088ZM12.8999 3.1488C13.7159 2.6448 15.8279 3.7488 18.0359 5.9568C20.2439 8.1648 21.3479 10.2768 20.8439 11.0928C20.2199 11.7408 17.9159 10.4928 15.7079 8.2848C13.4999 6.0768 12.2519 3.7728 12.8999 3.1488ZM16.3319 6.7728C16.2599 6.8448 16.3559 7.1328 16.6199 7.3728C16.8599 7.6368 17.1479 7.7328 17.2199 7.6608L17.8439 7.0608C17.9159 7.0128 17.7959 6.7248 17.5319 6.4608C17.2679 6.2208 16.9799 6.0768 16.9319 6.1488L16.3319 6.7728Z" fill="black"/>
</svg>
