<svg width="24" height="24" viewBox="0 0 24 24" fill="none" xmlns="http://www.w3.org/2000/svg">
<path d="M11.976 16.704H12.024C13.944 16.704 15.336 15.552 15.336 14.04C15.336 13.056 14.76 12.24 13.776 11.928V11.76C14.568 11.448 15.072 10.704 15.072 9.84C15.072 8.424 13.752 7.344 12.024 7.344H11.976C10.248 7.344 8.92801 8.424 8.92801 9.84C8.92801 10.728 9.43201 11.448 10.248 11.76V11.928C9.26401 12.24 8.66401 13.056 8.66401 14.04C8.66401 15.552 10.056 16.704 11.976 16.704ZM5.76001 21.12H18.24V19.92H5.76001V21.12ZM5.76001 4.08H18.24V2.88H5.76001V4.08ZM9.93601 14.16V13.848C9.93601 12.936 10.584 12.432 11.952 12.432H12.096C13.464 12.432 14.112 12.936 14.112 13.848V14.16C14.112 15.096 13.44 15.624 12.096 15.624H11.952C10.608 15.624 9.93601 15.096 9.93601 14.16ZM10.08 10.08V9.768C10.08 8.928 10.704 8.424 11.928 8.424H12.072C13.272 8.424 13.92 8.928 13.92 9.768V10.08C13.92 10.92 13.296 11.4 12.072 11.4H11.928C10.68 11.4 10.08 10.92 10.08 10.08Z" fill="black"/>
</svg>
