<svg width="24" height="24" viewBox="0 0 24 24" fill="none" xmlns="http://www.w3.org/2000/svg">
<path d="M10.74 16.704H10.788C12.708 16.704 14.1 15.552 14.1 14.04C14.1 13.056 13.524 12.24 12.54 11.928V11.76C13.332 11.448 13.836 10.704 13.836 9.84C13.836 8.424 12.516 7.344 10.788 7.344H10.74C9.01203 7.344 7.69203 8.424 7.69203 9.84C7.69203 10.728 8.19603 11.448 9.01203 11.76V11.928C8.02803 12.24 7.42803 13.056 7.42803 14.04C7.42803 15.552 8.82003 16.704 10.74 16.704ZM4.11603 21.12H10.764C15.876 21.12 19.884 16.968 19.884 12C19.884 6.888 15.876 2.88 10.764 2.88H4.11603V4.08H10.764C15.204 4.08 18.684 7.56 18.684 12C18.684 16.32 15.204 19.92 10.764 19.92H4.11603V21.12ZM8.70003 14.16V13.848C8.70003 12.936 9.34803 12.432 10.716 12.432H10.86C12.228 12.432 12.876 12.936 12.876 13.848V14.16C12.876 15.096 12.204 15.624 10.86 15.624H10.716C9.37203 15.624 8.70003 15.096 8.70003 14.16ZM8.84403 10.08V9.768C8.84403 8.928 9.46803 8.424 10.692 8.424H10.836C12.036 8.424 12.684 8.928 12.684 9.768V10.08C12.684 10.92 12.06 11.4 10.836 11.4H10.692C9.44403 11.4 8.84403 10.92 8.84403 10.08Z" fill="black"/>
</svg>
