<svg width="24" height="24" viewBox="0 0 24 24" fill="none" xmlns="http://www.w3.org/2000/svg">
<path d="M12 21.12C17.112 21.12 21.12 16.968 21.12 12C21.12 6.912 17.088 2.88 12 2.88C6.912 2.88 2.88 6.912 2.88 12C2.88 17.088 6.912 21.12 12 21.12ZM4.08 12C4.08 7.56 7.56 4.08 12 4.08C16.44 4.08 19.92 7.56 19.92 12C19.92 16.32 16.44 19.92 12 19.92C7.56 19.92 4.08 16.44 4.08 12ZM8.664 14.04C8.664 15.552 10.056 16.704 11.976 16.704H12.024C13.944 16.704 15.336 15.552 15.336 14.04C15.336 13.056 14.736 12.264 13.776 11.928V11.76C14.568 11.448 15.072 10.728 15.072 9.84C15.072 8.424 13.752 7.344 12.024 7.344H11.976C10.248 7.344 8.928 8.424 8.928 9.84C8.928 10.728 9.432 11.472 10.248 11.784V11.928C9.264 12.24 8.664 13.056 8.664 14.04ZM9.936 14.16V13.848C9.936 12.936 10.584 12.432 11.952 12.432H12.096C13.464 12.432 14.112 12.936 14.112 13.848V14.16C14.112 15.096 13.44 15.624 12.096 15.624H11.952C10.608 15.624 9.936 15.096 9.936 14.16ZM10.08 10.08V9.768C10.08 8.928 10.704 8.424 11.928 8.424H12.072C13.272 8.424 13.92 8.928 13.92 9.768V10.08C13.92 10.92 13.296 11.4 12.072 11.4H11.928C10.68 11.4 10.08 10.92 10.08 10.08Z" fill="black"/>
</svg>
