<svg width="24" height="24" viewBox="0 0 24 24" fill="none" xmlns="http://www.w3.org/2000/svg">
<path d="M1.67999 21.36H7.67999V15.36H5.23199V12.528H11.472V15.36H8.99999V21.36H15V15.36H12.552V12.528H18.792V15.36H16.32V21.36H22.32V15.36H19.872V11.448H12.552V8.64002H15V2.64001H8.99999V8.64002H11.472V11.448H4.15199V15.36H1.67999V21.36ZM2.75999 20.304V16.392H6.59999V20.304H2.75999ZM10.08 20.304V16.392H13.92V20.304H10.08ZM10.08 7.58402V3.67201H13.92V7.58402H10.08ZM17.4 20.304V16.392H21.24V20.304H17.4Z" fill="black"/>
</svg>
