<svg width="24" height="24" viewBox="0 0 24 24" fill="none" xmlns="http://www.w3.org/2000/svg">
<path d="M20.9522 21.7681L21.7682 20.9521L3.04816 2.23206L2.23216 3.04806L6.14416 6.96006C4.48816 8.25606 3.07216 10.0081 2.16016 12.0001C4.10416 16.1761 8.20816 19.3201 12.0002 19.3201C13.6562 19.3201 15.3602 18.7441 16.8962 17.7121L20.9522 21.7681ZM3.43216 12.0001C4.29616 10.2961 5.52016 8.88006 6.96016 7.77606L9.24016 10.0561C8.88016 10.6081 8.64016 11.2801 8.64016 12.0001C8.64016 13.8481 10.1522 15.3601 12.0002 15.3601C12.6962 15.3601 13.3922 15.1201 13.9202 14.7361L16.0802 16.8961C14.7362 17.7361 13.3922 18.1921 12.0002 18.1921C8.71216 18.1921 5.30416 15.6721 3.43216 12.0001ZM9.19216 5.18406L10.0802 6.09606C10.7282 5.90406 11.3762 5.80806 12.0002 5.80806C15.2642 5.80806 18.6482 8.30406 20.5202 12.0001C20.0162 12.9841 19.3922 13.8961 18.6962 14.6881L19.5122 15.5041C20.4482 14.4721 21.2402 13.2721 21.8402 12.0001C19.8962 7.80006 15.8162 4.65606 12.0002 4.65606C11.0642 4.65606 10.1282 4.84806 9.19216 5.18406ZM9.72016 12.0001C9.72016 11.5681 9.84016 11.1841 10.0322 10.8481L13.1522 13.9681C12.8162 14.1601 12.4082 14.2801 12.0002 14.2801C10.7522 14.2801 9.72016 13.2481 9.72016 12.0001Z" fill="black"/>
</svg>
