<svg width="24" height="24" viewBox="0 0 24 24" fill="none" xmlns="http://www.w3.org/2000/svg">
<path d="M20.952 21.7681L21.768 20.9521L3.04803 2.23206L2.23203 3.04806L6.14403 6.96006C4.48803 8.25606 3.07203 10.0081 2.16003 12.0001C4.10403 16.1761 8.20803 19.3201 12 19.3201C13.656 19.3201 15.36 18.7441 16.896 17.7121L20.952 21.7681ZM3.43203 12.0001C4.29603 10.2961 5.52003 8.88006 6.96003 7.77606L9.24003 10.0561C8.88003 10.6081 8.64003 11.2801 8.64003 12.0001C8.64003 13.8481 10.152 15.3601 12 15.3601C12.696 15.3601 13.392 15.1201 13.92 14.7361L16.08 16.8961C14.736 17.7361 13.392 18.1921 12 18.1921C8.71203 18.1921 5.30403 15.6721 3.43203 12.0001ZM9.19203 5.18406L10.08 6.09606C10.728 5.90406 11.376 5.80806 12 5.80806C15.264 5.80806 18.648 8.30406 20.52 12.0001C20.016 12.9841 19.392 13.8961 18.696 14.6881L19.512 15.5041C20.448 14.4721 21.24 13.2721 21.84 12.0001C19.896 7.80006 15.816 4.65606 12 4.65606C11.064 4.65606 10.128 4.84806 9.19203 5.18406ZM9.72003 12.0001C9.72003 11.5681 9.84003 11.1841 10.032 10.8481L13.152 13.9681C12.816 14.1601 12.408 14.2801 12 14.2801C10.752 14.2801 9.72003 13.2481 9.72003 12.0001Z" fill="black"/>
</svg>
