<svg width="24" height="24" viewBox="0 0 24 24" fill="none" xmlns="http://www.w3.org/2000/svg">
<path d="M12 19.332C15.816 19.332 19.896 16.188 21.84 12.012C19.896 7.81197 15.816 4.66797 12 4.66797C8.20803 4.66797 4.10403 7.81197 2.16003 12.012C4.10403 16.188 8.20803 19.332 12 19.332ZM3.48003 12.012C5.37603 8.31597 8.76003 5.81997 12 5.81997C15.24 5.81997 18.624 8.31597 20.52 12.012C18.624 15.708 15.24 18.204 12 18.204C8.76003 18.204 5.37603 15.708 3.48003 12.012ZM8.64003 12.012C8.64003 13.86 10.152 15.372 12 15.372C13.848 15.372 15.36 13.86 15.36 12.012C15.36 10.164 13.848 8.65197 12 8.65197C10.152 8.65197 8.64003 10.164 8.64003 12.012ZM9.72003 12.012C9.72003 10.74 10.752 9.73197 12 9.73197C13.272 9.73197 14.28 10.74 14.28 12.012C14.28 13.26 13.272 14.292 12 14.292C10.752 14.292 9.72003 13.26 9.72003 12.012Z" fill="black"/>
</svg>
