<svg width="24" height="24" viewBox="0 0 24 24" fill="none" xmlns="http://www.w3.org/2000/svg">
<path fill-rule="evenodd" clip-rule="evenodd" d="M10.0954 8.21665C9.42877 8.21598 8.78961 7.95098 8.31807 7.47976C7.98924 7.15115 7.76064 6.74095 7.65202 6.29669H3.99268V5.10576H7.65262C7.76144 4.66253 7.98967 4.25329 8.31772 3.92525C8.78926 3.45371 9.42854 3.1884 10.0954 3.1875C10.7626 3.18772 11.4025 3.45276 11.8744 3.9244C12.2028 4.2526 12.4313 4.66216 12.5401 5.10576H20.0074V6.29669H12.5407C12.4321 6.74133 12.2033 7.15185 11.8741 7.48061C11.4021 7.95192 10.7624 8.21665 10.0954 8.21665ZM10.0954 4.37758C9.74411 4.37803 9.40736 4.51784 9.15904 4.76632C8.91072 5.0148 8.77115 5.35164 8.77092 5.70293C8.7716 6.05392 8.91137 6.39033 9.15964 6.63844C9.40791 6.88655 9.74441 7.02612 10.0954 7.02657C10.4468 7.02679 10.7838 6.88749 11.0325 6.63928C11.2812 6.39108 11.4211 6.05428 11.4216 5.70293C11.4214 5.35135 11.2815 5.01424 11.0329 4.76572C10.7842 4.51719 10.447 4.37758 10.0954 4.37758Z" fill="black"/>
<path fill-rule="evenodd" clip-rule="evenodd" d="M14.4602 14.515C13.793 14.5143 13.1534 14.2488 12.6819 13.7769C12.3538 13.4484 12.1258 13.0387 12.0174 12.5951H3.99268V11.4041H12.0172C12.1256 10.9597 12.3541 10.5493 12.6828 10.2206C13.1543 9.74913 13.7935 9.48398 14.4602 9.48331C15.1269 9.48398 15.7662 9.7491 16.2378 10.2205C16.5667 10.5493 16.7953 10.9597 16.9038 11.4041H20.0074V12.5951H16.9036C16.7951 13.0387 16.5669 13.4485 16.2387 13.7769C15.7671 14.2489 15.1274 14.5143 14.4602 14.515ZM14.4602 10.6759C14.1095 10.6764 13.7734 10.8158 13.5253 11.0635C13.2772 11.3113 13.1374 11.6473 13.1365 11.9979C13.1367 12.3489 13.2763 12.6856 13.5244 12.9339C13.7726 13.1822 14.1091 13.3219 14.4602 13.3224C14.8113 13.3219 15.1479 13.1822 15.3962 12.9339C15.6445 12.6856 15.7842 12.349 15.7847 11.9979C15.7835 11.6472 15.6435 11.3112 15.3953 11.0635C15.1471 10.8157 14.8109 10.6764 14.4602 10.6759Z" fill="black"/>
<path fill-rule="evenodd" clip-rule="evenodd" d="M8.31778 20.0753C8.78934 20.5467 9.42862 20.8118 10.0954 20.8125C10.7625 20.8125 11.4024 20.5477 11.8744 20.0762C12.2032 19.7477 12.4318 19.3376 12.5405 18.8934H20.0074V17.7025H12.5405C12.4318 17.2583 12.2032 16.8482 11.8744 16.5197C11.4024 16.0482 10.7625 15.7834 10.0954 15.7834C9.42862 15.784 8.78934 16.0492 8.31778 16.5206C7.98932 16.8489 7.76092 17.2587 7.65223 17.7025H3.99268V18.8934H7.65222C7.7609 19.3372 7.98931 19.747 8.31778 20.0753ZM9.15964 17.3624C9.40791 17.1143 9.74441 16.9748 10.0954 16.9743C10.4468 16.9741 10.7838 17.1134 11.0325 17.3616C11.2812 17.6098 11.4211 17.9466 11.4216 18.2979C11.4211 18.6493 11.2812 18.9861 11.0325 19.2343C10.7838 19.4825 10.4468 19.6218 10.0954 19.6216C9.74441 19.6211 9.40791 19.4816 9.15964 19.2335C8.91137 18.9853 8.7716 18.6489 8.77092 18.2979C8.7716 17.947 8.91137 17.6105 9.15964 17.3624Z" fill="black"/>
</svg>
