<svg width="24" height="24" viewBox="0 0 24 24" fill="none" xmlns="http://www.w3.org/2000/svg">
<path d="M11.9998 16.704C13.9198 16.704 15.2158 15.384 15.2158 13.608C15.2158 11.856 13.9678 10.536 12.2398 10.536C11.4478 10.536 10.7998 10.848 10.3678 11.376H10.2238L10.5358 8.64001H14.6878V7.584H9.57577L9.09577 12.744H10.1758C10.4398 12 10.9918 11.592 11.9758 11.592H12.0718C13.3438 11.592 14.0158 12.216 14.0158 13.416V13.776C14.0158 15 13.3918 15.624 12.0478 15.624H11.9518C10.5838 15.624 9.98377 14.952 9.95977 13.752H8.75977C8.75977 15.408 10.0798 16.704 11.9998 16.704ZM5.75977 21.12H18.2398V19.92H5.75977V21.12ZM5.75977 4.08H18.2398V2.88H5.75977V4.08Z" fill="black"/>
</svg>
