<svg width="24" height="24" viewBox="0 0 24 24" fill="none" xmlns="http://www.w3.org/2000/svg">
<path d="M10.7642 16.704C12.6842 16.704 13.9802 15.384 13.9802 13.608C13.9802 11.856 12.7322 10.536 11.0042 10.536C10.2122 10.536 9.56421 10.848 9.13221 11.376H8.98821L9.30021 8.64001H13.4522V7.584H8.34021L7.86021 12.744H8.94021C9.20421 12 9.75621 11.592 10.7402 11.592H10.8362C12.1082 11.592 12.7802 12.216 12.7802 13.416V13.776C12.7802 15 12.1562 15.624 10.8122 15.624H10.7162C9.34821 15.624 8.74821 14.952 8.72421 13.752H7.52421C7.52421 15.408 8.84421 16.704 10.7642 16.704ZM4.11621 21.12H10.7642C15.8762 21.12 19.8842 16.968 19.8842 12C19.8842 6.888 15.8762 2.88 10.7642 2.88H4.11621V4.08H10.7642C15.2042 4.08 18.6842 7.56 18.6842 12C18.6842 16.32 15.2042 19.92 10.7642 19.92H4.11621V21.12Z" fill="black"/>
</svg>
