<svg width="24" height="24" viewBox="0 0 24 24" fill="none" xmlns="http://www.w3.org/2000/svg">
<path d="M12 21.12C17.112 21.12 21.12 16.968 21.12 12C21.12 6.912 17.088 2.88 12 2.88C6.912 2.88 2.88 6.912 2.88 12C2.88 17.088 6.912 21.12 12 21.12ZM4.08 12C4.08 7.56 7.56 4.08 12 4.08C16.44 4.08 19.92 7.56 19.92 12C19.92 16.32 16.44 19.92 12 19.92C7.56 19.92 4.08 16.44 4.08 12ZM8.76 13.752C8.76 15.408 10.08 16.704 12 16.704C13.92 16.704 15.216 15.384 15.216 13.608C15.216 11.856 13.968 10.536 12.24 10.536C11.448 10.536 10.8 10.848 10.368 11.376H10.2L10.536 8.64H14.688V7.584H9.576L9.096 12.744H10.176C10.44 12 10.992 11.592 11.976 11.592H12.072C13.344 11.592 14.016 12.216 14.016 13.416V13.776C14.016 15 13.392 15.624 12.048 15.624H11.952C10.584 15.624 9.984 14.952 9.96 13.752H8.76Z" fill="black"/>
</svg>
