<svg width="24" height="24" viewBox="0 0 24 24" fill="none" xmlns="http://www.w3.org/2000/svg">
<path d="M13.2362 16.704C15.1562 16.704 16.4522 15.384 16.4522 13.608C16.4522 11.856 15.2042 10.536 13.4762 10.536C12.6842 10.536 12.0362 10.848 11.6042 11.376H11.4362L11.7722 8.64001H15.9242V7.584H10.8122L10.3322 12.744H11.4122C11.6762 12 12.2282 11.592 13.2122 11.592H13.3082C14.5802 11.592 15.2522 12.216 15.2522 13.416V13.776C15.2522 15 14.6282 15.624 13.2842 15.624H13.1882C11.8202 15.624 11.2202 14.952 11.1962 13.752H9.99621C9.99621 15.408 11.3162 16.704 13.2362 16.704ZM4.11621 12C4.11621 17.088 8.14821 21.12 13.2362 21.12H19.8842V19.92H13.2362C8.79621 19.92 5.31621 16.44 5.31621 12C5.31621 7.68001 8.79621 4.08 13.2362 4.08H19.8842V2.88H13.2362C8.12421 2.88 4.11621 7.032 4.11621 12Z" fill="black"/>
</svg>
