<svg width="24" height="24" viewBox="0 0 24 24" fill="none" xmlns="http://www.w3.org/2000/svg">
<path d="M13.7402 12.024V13.464H10.5002L13.5722 8.88H13.7642C13.7402 9.86401 13.7402 10.968 13.7402 12.024ZM4.11621 12C4.11621 17.088 8.14821 21.12 13.2362 21.12H19.8842V19.92H13.2362C8.79621 19.92 5.31621 16.44 5.31621 12C5.31621 7.68001 8.79621 4.08 13.2362 4.08H19.8842V2.88H13.2362C8.12421 2.88 4.11621 7.032 4.11621 12ZM9.37221 14.496H13.7402V16.464H14.8682V14.496H16.3082V13.464H14.8682V7.584H13.3082L9.37221 13.512V14.496Z" fill="black"/>
</svg>
