<svg width="24" height="24" viewBox="0 0 24 24" fill="none" xmlns="http://www.w3.org/2000/svg">
<path d="M11.2682 12.024V13.464H8.05221L11.1002 8.88H11.2922C11.2682 9.86401 11.2682 10.968 11.2682 12.024ZM4.11621 21.12H10.7642C15.8762 21.12 19.8842 16.968 19.8842 12C19.8842 6.888 15.8762 2.88 10.7642 2.88H4.11621V4.08H10.7642C15.2042 4.08 18.6842 7.56 18.6842 12C18.6842 16.32 15.2042 19.92 10.7642 19.92H4.11621V21.12ZM6.90021 14.496H11.2682V16.464H12.3962V14.496H13.8362V13.464H12.3962V7.584H10.8602L6.90021 13.512V14.496Z" fill="black"/>
</svg>
