<svg width="24" height="24" viewBox="0 0 24 24" fill="none" xmlns="http://www.w3.org/2000/svg">
<path d="M12 21.12C17.112 21.12 21.12 16.968 21.12 12C21.12 6.912 17.088 2.88 12 2.88C6.912 2.88 2.88 6.912 2.88 12C2.88 17.088 6.912 21.12 12 21.12ZM4.08 12C4.08 7.56 7.56 4.08 12 4.08C16.44 4.08 19.92 7.56 19.92 12C19.92 16.32 16.44 19.92 12 19.92C7.56 19.92 4.08 16.44 4.08 12ZM8.136 14.496H12.504V16.464H13.632V14.496H15.072V13.464H13.632V7.584H12.072L8.136 13.512V14.496ZM9.264 13.464L12.336 8.88H12.528C12.504 9.864 12.504 10.968 12.504 12.024V13.464H9.264Z" fill="black"/>
</svg>
