<svg width="24" height="24" viewBox="0 0 24 24" fill="none" xmlns="http://www.w3.org/2000/svg">
<path d="M11.4721 21.36H12.5521L12.5041 17.976L14.4721 19.968L15.1921 19.248L12.5521 16.584L12.5041 13.2L17.9041 18.624L18.6241 17.904L13.2001 12.504L16.5841 12.528L19.2481 15.192L19.9681 14.472L17.9761 12.504L21.3601 12.528V11.448L17.9761 11.496L19.9681 9.52802L19.2481 8.80802L16.5841 11.448L13.2001 11.496L18.6241 6.09601L17.9041 5.37601L12.5041 10.8L12.5521 7.41602L15.1921 4.75201L14.4721 4.03201L12.5041 6.02401L12.5521 2.64001H11.4721L11.4961 6.02401L9.52814 4.03201L8.80814 4.75201L11.4721 7.41602L11.4961 10.8L6.09614 5.37601L5.37614 6.09601L10.8001 11.496L7.41614 11.448L4.75214 8.80802L4.03214 9.52802L6.02414 11.496L2.64014 11.448V12.528L6.02414 12.504L4.03214 14.472L4.75214 15.192L7.41614 12.528L10.8001 12.504L5.37614 17.904L6.09614 18.624L11.4961 13.2L11.4721 16.584L8.80814 19.248L9.52814 19.968L11.4961 17.976L11.4721 21.36Z" fill="black"/>
</svg>
