<svg width="24" height="24" viewBox="0 0 24 24" fill="none" xmlns="http://www.w3.org/2000/svg">
<path d="M10.7401 20.616C11.0521 20.616 11.3641 20.616 11.6521 20.592L10.4761 19.392C10.2121 19.392 9.92413 19.368 9.68413 19.368C6.30013 19.224 4.23613 18.312 4.23613 17.112V15.12C5.43613 16.152 7.83613 16.728 10.7401 16.728C11.1241 16.728 11.5081 16.728 11.8681 16.704L12.8761 15.768L13.6201 16.44C15.1321 16.2 16.4041 15.768 17.2441 15.168V15.456L18.4441 14.256V5.61599C18.4441 3.40799 15.1801 2.13599 10.7401 2.13599C6.42013 2.13599 3.03613 3.40799 3.03613 5.61599V17.112C3.03613 19.32 6.37213 20.688 10.7401 20.616ZM4.23613 13.272V11.304C5.43613 12.336 7.83613 12.936 10.7401 12.936C13.5961 12.936 16.0201 12.336 17.2441 11.28V13.272C17.2441 14.928 13.6441 15.648 10.7401 15.648C6.70813 15.648 4.23613 14.616 4.23613 13.272ZM4.23613 9.43199V7.48799C5.43613 8.51999 7.83613 9.07199 10.7401 9.07199C13.5961 9.07199 16.0201 8.49599 17.2441 7.46399V9.43199C17.2441 10.8 14.7001 11.856 10.7401 11.856C6.70813 11.856 4.23613 10.8 4.23613 9.43199ZM4.23613 5.61599C4.23613 4.31999 6.73213 3.33599 10.7401 3.33599C14.8441 3.33599 17.2441 4.31999 17.2441 5.61599C17.2441 6.98399 14.7001 7.99199 10.7401 7.99199C6.70813 7.99199 4.23613 7.00799 4.23613 5.61599ZM12.1561 18.6L15.3961 21.864L20.9641 16.296L20.1241 15.456L15.3961 20.16L12.9961 17.76L12.1561 18.6Z" fill="black"/>
</svg>
