<svg width="24" height="24" viewBox="0 0 24 24" fill="none" xmlns="http://www.w3.org/2000/svg">
<path d="M4.79988 20.6279H19.1999C20.3039 20.6279 21.1199 19.8119 21.1199 18.7079V10.0679C21.1199 8.96395 20.3039 8.14795 19.1999 8.14795H17.9279C18.5039 7.64395 18.7439 6.92395 18.7439 6.27595C18.7439 4.73995 17.4959 3.37195 15.8879 3.37195C15.3599 3.37195 14.8319 3.51595 14.4239 3.77995C13.6079 4.25995 13.0319 5.14795 12.5279 6.08395L11.9999 7.11595L11.4719 6.08395C10.9679 5.14795 10.3919 4.25995 9.57588 3.77995C9.16788 3.51595 8.63988 3.37195 8.13588 3.37195C6.50388 3.37195 5.27988 4.73995 5.27988 6.27595C5.27988 6.92395 5.49588 7.64395 6.07188 8.14795H4.79988C3.69588 8.14795 2.87988 8.96395 2.87988 10.0679V18.7079C2.87988 19.8119 3.69588 20.6279 4.79988 20.6279ZM4.07988 18.7319V13.6679H19.9199V18.7319C19.9199 19.2119 19.6559 19.4759 19.1759 19.4759H4.82388C4.36788 19.4759 4.07988 19.2119 4.07988 18.7319ZM4.07988 11.7479V10.0199C4.07988 9.56395 4.36788 9.27595 4.82388 9.27595H19.1759C19.6559 9.27595 19.9199 9.56395 19.9199 10.0199V11.7479H4.07988ZM5.75988 17.6279H9.35988V15.7079H5.75988V17.6279ZM6.35988 6.27595C6.35988 5.31595 7.12788 4.45195 8.13588 4.45195C9.26388 4.45195 9.95988 5.48395 10.5119 6.58795L11.3519 8.19595H9.50388C8.68788 8.19595 7.77588 8.17195 7.17588 7.78795C6.59988 7.45195 6.35988 6.82795 6.35988 6.27595ZM12.6479 8.19595L13.4879 6.58795C14.0639 5.48395 14.7359 4.45195 15.8879 4.45195C16.8959 4.45195 17.6639 5.31595 17.6639 6.27595C17.6639 6.82795 17.4239 7.45195 16.8479 7.78795C16.2239 8.17195 15.3359 8.19595 14.4959 8.19595H12.6479Z" fill="black"/>
</svg>
