<svg width="24" height="24" viewBox="0 0 24 24" fill="none" xmlns="http://www.w3.org/2000/svg">
<path d="M4.79988 20.6281H19.1999C20.3039 20.6281 21.1199 19.8121 21.1199 18.7081V10.0681C21.1199 8.96407 20.3039 8.14807 19.1999 8.14807H17.9279C18.5039 7.64407 18.7439 6.92407 18.7439 6.27607C18.7439 4.74007 17.4959 3.37207 15.8879 3.37207C15.3599 3.37207 14.8319 3.51607 14.4239 3.78007C13.6079 4.26007 13.0319 5.14807 12.5279 6.08407L11.9999 7.11607L11.4719 6.08407C10.9679 5.14807 10.3919 4.26007 9.57588 3.78007C9.16788 3.51607 8.63988 3.37207 8.13588 3.37207C6.50388 3.37207 5.27988 4.74007 5.27988 6.27607C5.27988 6.92407 5.49588 7.64407 6.07188 8.14807H4.79988C3.69588 8.14807 2.87988 8.96407 2.87988 10.0681V18.7081C2.87988 19.8121 3.69588 20.6281 4.79988 20.6281ZM4.07988 18.7321V13.6681H19.9199V18.7321C19.9199 19.2121 19.6559 19.4761 19.1759 19.4761H4.82388C4.36788 19.4761 4.07988 19.2121 4.07988 18.7321ZM4.07988 11.7481V10.0201C4.07988 9.56407 4.36788 9.27607 4.82388 9.27607H19.1759C19.6559 9.27607 19.9199 9.56407 19.9199 10.0201V11.7481H4.07988ZM5.75988 17.6281H9.35988V15.7081H5.75988V17.6281ZM6.35988 6.27607C6.35988 5.31607 7.12788 4.45207 8.13588 4.45207C9.26388 4.45207 9.95988 5.48407 10.5119 6.58807L11.3519 8.19607H9.50388C8.68788 8.19607 7.77588 8.17207 7.17588 7.78807C6.59988 7.45207 6.35988 6.82807 6.35988 6.27607ZM12.6479 8.19607L13.4879 6.58807C14.0639 5.48407 14.7359 4.45207 15.8879 4.45207C16.8959 4.45207 17.6639 5.31607 17.6639 6.27607C17.6639 6.82807 17.4239 7.45207 16.8479 7.78807C16.2239 8.17207 15.3359 8.19607 14.4959 8.19607H12.6479Z" fill="black"/>
</svg>
