<svg width="24" height="24" viewBox="0 0 24 24" fill="none" xmlns="http://www.w3.org/2000/svg">
<path d="M9.072 21.0794C9.456 21.1994 9.696 20.9594 9.696 20.6474C9.696 20.6234 9.672 20.3114 9.672 19.6875C9.648 19.1115 9.648 18.6555 9.648 18.3435C9.336 18.4395 8.952 18.4635 8.688 18.4635C7.872 18.4635 6.816 18.2235 6.504 17.2155C6.12 16.5915 5.784 16.0155 5.448 15.8235C4.92 15.4395 4.968 15.2235 5.52 15.2235L5.736 15.2715C6.072 15.3435 6.648 15.6795 6.96 16.2075C7.272 16.8315 7.8 17.2395 8.616 17.2395C8.928 17.2395 9.312 17.1675 9.696 17.0475C9.768 16.4475 10.008 16.0395 10.296 15.7515C9.264 15.6555 8.808 15.5835 7.92 15.1995C7.488 15.0315 7.2 14.8155 6.96 14.5275C6.504 13.9755 6.072 12.9675 6.072 11.5275C6.072 10.7355 6.36 9.99145 6.96 9.34345C6.648 8.59945 6.696 7.73545 7.056 6.77545C7.728 6.58345 8.904 7.30345 9.648 7.83145C10.416 7.59145 11.208 7.47145 12.024 7.47145C12.84 7.47145 13.656 7.59145 14.424 7.83145L14.88 7.47145C15.48 7.01545 16.536 6.65545 17.016 6.77545C17.376 7.73545 17.4 8.59945 17.064 9.34345C17.808 10.1115 18.072 10.5915 18.072 11.5275C18.072 13.3515 17.544 14.6955 16.152 15.1995C15.264 15.5835 14.856 15.6075 13.752 15.7515C14.184 16.0875 14.376 16.6395 14.376 17.4795C14.376 17.9835 14.376 18.6315 14.376 19.4235V20.6474C14.376 20.9594 14.616 21.1994 15.024 21.0794C18.816 19.8315 21.36 16.2555 21.36 12.1035C21.36 6.82345 17.088 2.88745 12 2.88745C6.96 2.88745 2.64 6.84745 2.64 12.1035C2.64 16.2555 5.256 19.8315 9.072 21.0794ZM5.904 15.6075C5.88 15.6555 5.904 15.7035 6.024 15.7515C6.072 15.7995 6.12 15.7755 6.168 15.7035C6.192 15.6795 6.168 15.6315 6.072 15.5595C6.024 15.5355 5.952 15.5595 5.904 15.6075ZM6.288 15.8955C6.264 15.9435 6.264 15.9915 6.336 16.0875C6.432 16.1355 6.504 16.1595 6.528 16.1115C6.576 16.0635 6.576 15.9915 6.504 15.9195C6.432 15.8715 6.336 15.8475 6.288 15.8955ZM6.696 16.3755C6.576 16.3995 6.744 16.8075 6.912 16.6875C6.96 16.6155 6.96 16.5435 6.912 16.4475C6.84 16.3275 6.744 16.3035 6.696 16.3755ZM7.128 16.9275C7.056 16.9995 7.056 17.0715 7.2 17.1675C7.272 17.2875 7.368 17.2875 7.44 17.2155C7.488 17.1435 7.44 17.0715 7.368 16.9515C7.272 16.8555 7.2 16.8315 7.128 16.9275ZM7.896 17.5755C8.016 17.6235 8.088 17.5995 8.112 17.5035C8.136 17.4075 8.088 17.3355 7.968 17.3115C7.728 17.2395 7.608 17.5275 7.896 17.5755ZM8.496 17.5515C8.496 17.6715 8.592 17.7195 8.712 17.6955C8.856 17.6955 8.928 17.6235 8.928 17.5515C8.928 17.4555 8.832 17.4075 8.688 17.4315C8.568 17.4315 8.496 17.4795 8.496 17.5515ZM9.384 17.3115C9.144 17.3595 9.192 17.6715 9.432 17.5995C9.672 17.5275 9.624 17.3115 9.384 17.3115Z" fill="black"/>
</svg>
