<svg width="24" height="24" viewBox="0 0 24 24" fill="none" xmlns="http://www.w3.org/2000/svg">
<path d="M11.9999 21.1199C17.1359 21.1199 21.1199 16.9679 21.1199 11.9999C21.1199 6.88788 17.1359 2.87988 11.9999 2.87988C6.86388 2.87988 2.87988 6.88788 2.87988 11.9999C2.87988 17.1119 6.86388 21.1199 11.9999 21.1199ZM4.03188 11.9999C4.03188 11.0159 4.19988 10.1039 4.48788 9.23988H7.94388C7.82388 10.1039 7.75188 11.0399 7.75188 11.9999C7.75188 12.9599 7.82388 13.8719 7.94388 14.7359H4.48788C4.19988 13.8959 4.03188 12.9599 4.03188 11.9999ZM4.91988 8.23188C5.97588 6.14388 7.91988 4.63188 10.2959 4.12788C9.23988 5.06388 8.54388 6.50388 8.13588 8.23188H4.91988ZM4.91988 15.7679H8.13588C8.54388 17.4959 9.23988 18.9359 10.2719 19.8719C7.91988 19.3679 5.99988 17.8559 4.91988 15.7679ZM8.90388 11.9999C8.90388 11.0399 8.97588 10.1039 9.11988 9.23988H14.9039C15.0479 10.1039 15.1199 11.0399 15.1199 11.9999C15.1199 12.9599 15.0479 13.8719 14.9039 14.7359H9.11988C8.97588 13.8719 8.90388 12.9599 8.90388 11.9999ZM9.31188 15.7679H14.7119C14.1839 17.9519 13.2239 19.5599 11.9999 20.0399C10.7999 19.5599 9.83988 17.9519 9.31188 15.7679ZM9.31188 8.23188C9.83988 6.04788 10.7999 4.43988 11.9999 3.95988C13.2239 4.43988 14.1839 6.04788 14.7119 8.23188H9.31188ZM13.7039 4.12788C16.0799 4.63188 18.0239 6.14388 19.1039 8.23188H15.8639C15.4559 6.50388 14.7599 5.06388 13.7039 4.12788ZM13.7279 19.8479C14.7599 18.9359 15.4559 17.4959 15.8639 15.7679H19.0559C17.9999 17.8079 16.0559 19.3439 13.7279 19.8479ZM16.0559 9.23988H19.5359C19.8239 10.1039 19.9919 11.0159 19.9919 11.9999C19.9919 12.9599 19.8239 13.8719 19.5119 14.7359H16.0559C16.1759 13.8719 16.2479 12.9599 16.2479 11.9999C16.2479 11.0399 16.1759 10.1039 16.0559 9.23988Z" fill="black"/>
</svg>
