<svg width="24" height="24" viewBox="0 0 24 24" fill="none" xmlns="http://www.w3.org/2000/svg">
<path fill-rule="evenodd" clip-rule="evenodd" d="M5.5531 9.28797L1.01025 7.49428L12.003 3.1875L22.9896 7.49156L18.6516 9.2224V15.4865L20.3955 17.6939L18.287 20.8125L16.1418 17.6939L17.6994 15.7561V14.1671L12.0024 16.2976L5.5531 13.8701V9.28797ZM6.50533 9.66394L12.054 11.8548L17.6722 9.61318V13.1607L12.0037 15.2801L6.50533 13.211V9.66394ZM16.7219 8.966L12.052 10.8305L3.61187 7.49768L12.003 4.21046L20.3996 7.49768L18.0752 8.42568L12.271 6.42165L11.9609 7.32218L16.7219 8.966ZM17.328 17.7382L18.2803 19.1236L19.2182 17.7382L18.2803 16.5526L17.328 17.7382Z" fill="black"/>
</svg>
