<svg width="24" height="24" viewBox="0 0 24 24" fill="none" xmlns="http://www.w3.org/2000/svg">
<path d="M2.98779 14.4001L7.71579 9.69612H15.2278L19.9558 4.96812C19.9318 5.83212 19.9318 6.67212 19.9318 7.51212V9.28812H21.0118L20.9878 3.12012H14.8438V4.20012H16.6198C17.4598 4.20012 18.2998 4.20012 19.1398 4.17612L14.7238 8.56812H7.23579L2.98779 12.7921V14.4001ZM2.98779 20.8801H4.23579V17.9521H2.98779V20.8801ZM7.16379 20.8801H8.43579V16.0561H7.16379V20.8801ZM11.3638 20.8801H12.6118V12.9601H11.3638V20.8801ZM15.5398 20.8801H16.8118V15.1201H15.5398V20.8801ZM19.7158 20.8801H20.9878V12.0001H19.7158V20.8801Z" fill="black"/>
</svg>
