<svg width="24" height="24" viewBox="0 0 24 24" fill="none" xmlns="http://www.w3.org/2000/svg">
<path d="M2.98801 14.4L7.71601 9.696H15.228L19.956 4.968C19.932 5.832 19.932 6.672 19.932 7.512V9.288H21.012L20.988 3.12H14.844V4.2H16.62C17.46 4.2 18.3 4.2 19.14 4.176L14.724 8.568H7.23601L2.98801 12.792V14.4ZM2.98801 20.88H4.23601V17.952H2.98801V20.88ZM7.16401 20.88H8.43601V16.056H7.16401V20.88ZM11.364 20.88H12.612V12.96H11.364V20.88ZM15.54 20.88H16.812V15.12H15.54V20.88ZM19.716 20.88H20.988V12H19.716V20.88Z" fill="black"/>
</svg>
