<svg width="24" height="24" viewBox="0 0 24 24" fill="none" xmlns="http://www.w3.org/2000/svg">
<path d="M5.87999 17.82V19.572H18.144V17.82C18.144 14.892 16.008 13.116 13.584 13.116H10.416C7.77599 13.116 5.87999 15.108 5.87999 17.82ZM1.67999 19.572H2.87999V18.18C2.87999 17.1 3.43199 16.356 4.36799 16.188C4.46399 15.732 4.60799 15.348 4.79999 14.988C3.07199 15.084 1.67999 16.404 1.67999 18.54V19.572ZM1.79999 10.332C1.79999 11.916 3.09599 13.212 4.67999 13.212C6.26399 13.212 7.55999 11.916 7.55999 10.332C7.55999 8.74798 6.26399 7.45198 4.67999 7.45198C3.09599 7.45198 1.79999 8.74798 1.79999 10.332ZM2.83199 10.332C2.83199 9.29998 3.64799 8.45998 4.67999 8.45998C5.71199 8.45998 6.55199 9.29998 6.55199 10.332C6.55199 11.364 5.71199 12.18 4.67999 12.18C3.64799 12.18 2.83199 11.364 2.83199 10.332ZM7.10399 18.516V17.268C7.10399 15.444 8.30399 14.244 10.224 14.244H13.8C15.696 14.244 16.92 15.444 16.92 17.268V18.516H7.10399ZM8.35199 8.02798C8.35199 10.044 10.008 11.628 12 11.628C13.992 11.628 15.672 10.044 15.672 8.02798C15.672 6.03598 13.992 4.42798 12 4.42798C10.008 4.42798 8.35199 6.03598 8.35199 8.02798ZM9.47999 8.02798C9.47999 6.63598 10.608 5.50798 12 5.50798C13.392 5.50798 14.52 6.63598 14.52 8.02798C14.52 9.41998 13.392 10.548 12 10.548C10.608 10.548 9.47999 9.41998 9.47999 8.02798ZM16.44 10.332C16.44 11.916 17.736 13.212 19.32 13.212C20.904 13.212 22.2 11.916 22.2 10.332C22.2 8.74798 20.904 7.45198 19.32 7.45198C17.736 7.45198 16.44 8.74798 16.44 10.332ZM17.472 10.332C17.472 9.29998 18.288 8.45998 19.32 8.45998C20.352 8.45998 21.192 9.29998 21.192 10.332C21.192 11.364 20.352 12.18 19.32 12.18C18.288 12.18 17.472 11.364 17.472 10.332ZM19.224 14.988C19.416 15.348 19.536 15.732 19.656 16.188C20.568 16.356 21.12 17.1 21.12 18.18V19.572H22.32V18.54C22.32 16.404 20.928 15.084 19.224 14.988Z" fill="black"/>
</svg>
