<svg width="24" height="24" viewBox="0 0 24 24" fill="none" xmlns="http://www.w3.org/2000/svg">
<path d="M7.95602 20.2708C9.10802 20.9188 10.524 20.9668 12.156 20.2228L20.844 16.1668C21.516 15.8548 21.972 15.1588 21.972 14.3428C21.972 13.2628 21.06 12.4468 20.052 12.4468C19.764 12.4468 19.596 12.4948 18.996 12.7588L18.9 12.5668C18.42 11.6308 17.316 11.2708 16.38 11.7028L14.124 12.6868C14.388 12.9028 14.628 13.2148 14.772 13.5748L16.836 12.6868C17.268 12.4948 17.772 12.6628 17.964 13.1188L18.06 13.3588L13.452 15.4228C13.74 14.5108 13.284 13.5268 12.42 13.1428L8.72402 11.4388C6.25202 10.2868 3.94802 10.6948 2.02802 12.8548V18.6388H3.18002V13.2868C4.66802 11.7988 6.32402 11.5828 8.24402 12.4708L11.94 14.1748C12.252 14.3188 12.468 14.6548 12.468 15.0148C12.468 15.6628 11.748 16.1188 11.172 15.8548L7.88402 14.3188L7.47602 15.1828L10.908 16.7908C11.532 17.0788 12.228 17.0308 13.26 16.5748L19.716 13.6468C20.244 13.4068 20.844 13.7908 20.844 14.3428C20.844 14.6788 20.652 14.9908 20.364 15.1348L11.676 19.1668C10.452 19.7428 9.42002 19.7668 8.50802 19.2628L6.06002 17.8948L5.50802 18.9028L7.95602 20.2708ZM9.06002 6.27883C9.06002 7.98284 10.428 9.35084 12.108 9.35084C13.812 9.35084 15.18 7.98284 15.18 6.27883C15.18 4.59883 13.812 3.23083 12.108 3.23083C10.428 3.23083 9.06002 4.59883 9.06002 6.27883ZM10.14 6.27883C10.14 5.19883 11.028 4.31083 12.108 4.31083C13.212 4.31083 14.1 5.19883 14.1 6.27883C14.1 7.38283 13.212 8.27084 12.108 8.27084C11.028 8.27084 10.14 7.38283 10.14 6.27883Z" fill="black"/>
</svg>
