<svg width="24" height="24" viewBox="0 0 24 24" fill="none" xmlns="http://www.w3.org/2000/svg">
<path d="M13.68 7.95603L11.16 10.452C10.896 10.716 10.68 10.812 10.416 10.812C9.79199 10.812 9.38399 10.332 9.38399 9.80403C9.38399 9.54003 9.52799 9.25203 9.69599 9.08403L12.264 6.56403C12.624 6.22803 13.08 6.01203 13.56 6.01203H15.552C16.032 6.01203 16.488 6.22803 16.848 6.56403L18.336 8.02803C18.696 8.36403 19.176 8.55603 19.656 8.55603H22.32V7.40403H19.776C19.512 7.40403 19.32 7.33203 19.128 7.16403L17.688 5.77203C17.136 5.19603 16.344 4.88403 15.552 4.88403H8.47199C7.65599 4.88403 6.86399 5.19603 6.31199 5.77203L4.87199 7.16403C4.70399 7.33203 4.48799 7.40403 4.24799 7.40403H1.67999V8.55603H4.36799C4.84799 8.55603 5.30399 8.36403 5.66399 8.02803L7.15199 6.56403C7.51199 6.22803 7.96799 6.01203 8.47199 6.01203H11.352L8.97599 8.36403C8.61599 8.72403 8.37599 9.27603 8.37599 9.82803C8.37599 10.908 9.23999 11.844 10.416 11.844C10.92 11.844 11.424 11.652 11.808 11.244L12.576 10.476L17.04 14.964L14.544 17.436C14.208 17.772 13.752 17.964 13.272 17.964H9.19199C8.68799 17.964 8.23199 17.772 7.89599 17.436L5.20799 14.796C4.84799 14.46 4.39199 14.244 3.88799 14.244H1.67999V15.396H3.76799C4.00799 15.396 4.22399 15.468 4.39199 15.66L7.05599 18.252C7.58399 18.756 8.37599 19.116 9.19199 19.116H13.272C14.04 19.116 14.856 18.756 15.384 18.252L18.288 15.396H22.32V14.244H17.784L13.32 9.75603L14.376 8.70003L13.68 7.95603Z" fill="black"/>
</svg>
