<svg width="24" height="24" viewBox="0 0 24 24" fill="none" xmlns="http://www.w3.org/2000/svg">
<path d="M13.6802 7.95603L11.1602 10.452C10.8962 10.716 10.6802 10.812 10.4162 10.812C9.79218 10.812 9.38418 10.332 9.38418 9.80403C9.38418 9.54003 9.52818 9.25203 9.69618 9.08403L12.2642 6.56403C12.6242 6.22803 13.0802 6.01203 13.5602 6.01203H15.5522C16.0322 6.01203 16.4882 6.22803 16.8482 6.56403L18.3362 8.02803C18.6962 8.36403 19.1762 8.55603 19.6562 8.55603H22.3202V7.40403H19.7762C19.5122 7.40403 19.3202 7.33203 19.1282 7.16403L17.6882 5.77203C17.1362 5.19603 16.3442 4.88403 15.5522 4.88403H8.47218C7.65618 4.88403 6.86418 5.19603 6.31218 5.77203L4.87218 7.16403C4.70418 7.33203 4.48818 7.40403 4.24818 7.40403H1.68018V8.55603H4.36818C4.84818 8.55603 5.30418 8.36403 5.66418 8.02803L7.15218 6.56403C7.51218 6.22803 7.96818 6.01203 8.47218 6.01203H11.3522L8.97618 8.36403C8.61618 8.72403 8.37618 9.27603 8.37618 9.82803C8.37618 10.908 9.24018 11.844 10.4162 11.844C10.9202 11.844 11.4242 11.652 11.8082 11.244L12.5762 10.476L17.0402 14.964L14.5442 17.436C14.2082 17.772 13.7522 17.964 13.2722 17.964H9.19218C8.68818 17.964 8.23218 17.772 7.89618 17.436L5.20818 14.796C4.84818 14.46 4.39218 14.244 3.88818 14.244H1.68018V15.396H3.76818C4.00818 15.396 4.22418 15.468 4.39218 15.66L7.05618 18.252C7.58418 18.756 8.37618 19.116 9.19218 19.116H13.2722C14.0402 19.116 14.8562 18.756 15.3842 18.252L18.2882 15.396H22.3202V14.244H17.7842L13.3202 9.75603L14.3762 8.70003L13.6802 7.95603Z" fill="black"/>
</svg>
