<svg width="24" height="24" viewBox="0 0 24 24" fill="none" xmlns="http://www.w3.org/2000/svg">
<path d="M7.95583 20.2707C9.10783 20.9187 10.5238 20.9667 12.1558 20.2227L20.8438 16.1667C21.5158 15.8547 21.9718 15.1587 21.9718 14.3427C21.9718 13.2627 21.0598 12.4467 20.0518 12.4467C19.7638 12.4467 19.5958 12.4947 18.9958 12.7587L18.8998 12.5667C18.4198 11.6307 17.3158 11.2707 16.3798 11.7027L14.1238 12.6867C14.3878 12.9027 14.6278 13.2147 14.7718 13.5747L16.8358 12.6867C17.2678 12.4947 17.7718 12.6627 17.9638 13.1187L18.0598 13.3587L13.4518 15.4227C13.7398 14.5107 13.2838 13.5267 12.4198 13.1427L8.72383 11.4387C6.25183 10.2867 3.94783 10.6947 2.02783 12.8547V18.6387H3.17983V13.2867C4.66783 11.7987 6.32383 11.5827 8.24383 12.4707L11.9398 14.1747C12.2518 14.3187 12.4678 14.6547 12.4678 15.0147C12.4678 15.6627 11.7478 16.1187 11.1718 15.8547L7.88383 14.3187L7.47583 15.1827L10.9078 16.7907C11.5318 17.0787 12.2278 17.0307 13.2598 16.5747L19.7158 13.6467C20.2438 13.4067 20.8438 13.7907 20.8438 14.3427C20.8438 14.6787 20.6518 14.9907 20.3638 15.1347L11.6758 19.1667C10.4518 19.7427 9.41983 19.7667 8.50783 19.2627L6.05983 17.8947L5.50783 18.9027L7.95583 20.2707ZM9.05983 6.27871C9.05983 7.98271 10.4278 9.35071 12.1078 9.35071C13.8118 9.35071 15.1798 7.98271 15.1798 6.27871C15.1798 4.59871 13.8118 3.23071 12.1078 3.23071C10.4278 3.23071 9.05983 4.59871 9.05983 6.27871ZM10.1398 6.27871C10.1398 5.19871 11.0278 4.31071 12.1078 4.31071C13.2118 4.31071 14.0998 5.19871 14.0998 6.27871C14.0998 7.38271 13.2118 8.27071 12.1078 8.27071C11.0278 8.27071 10.1398 7.38271 10.1398 6.27871Z" fill="black"/>
</svg>
