<svg width="24" height="24" viewBox="0 0 24 24" fill="none" xmlns="http://www.w3.org/2000/svg">
<path d="M11.184 13.392H12.096C14.4 13.392 15.672 11.808 15.672 9.912C15.672 8.016 14.4 6.336 12.144 6.336C10.032 6.336 8.592 7.92 8.592 9.696V9.792H9.792V9.552C9.792 8.208 10.536 7.488 12.048 7.488H12.216C13.752 7.488 14.472 8.232 14.472 9.624V10.296C14.472 11.64 13.752 12.312 12.312 12.312H11.184V13.392ZM2.88 12C2.88 17.088 6.912 21.12 12 21.12C17.112 21.12 21.12 16.968 21.12 12C21.12 6.912 17.088 2.88 12 2.88C6.912 2.88 2.88 6.912 2.88 12ZM4.08 12C4.08 7.56 7.56 4.08 12 4.08C16.44 4.08 19.92 7.56 19.92 12C19.92 16.32 16.44 19.92 12 19.92C7.56 19.92 4.08 16.44 4.08 12ZM11.064 17.04H12.936V15.168H11.064V17.04Z" fill="black"/>
</svg>
