<svg width="24" height="24" viewBox="0 0 24 24" fill="none" xmlns="http://www.w3.org/2000/svg">
<path d="M11.1839 13.3919H12.0959C14.3999 13.3919 15.6719 11.8079 15.6719 9.91188C15.6719 8.01588 14.3999 6.33588 12.1439 6.33588C10.0319 6.33588 8.59188 7.91988 8.59188 9.69588V9.79188H9.79188V9.55188C9.79188 8.20788 10.5359 7.48788 12.0479 7.48788H12.2159C13.7519 7.48788 14.4719 8.23188 14.4719 9.62388V10.2959C14.4719 11.6399 13.7519 12.3119 12.3119 12.3119H11.1839V13.3919ZM2.87988 11.9999C2.87988 17.0879 6.91188 21.1199 11.9999 21.1199C17.1119 21.1199 21.1199 16.9679 21.1199 11.9999C21.1199 6.91188 17.0879 2.87988 11.9999 2.87988C6.91188 2.87988 2.87988 6.91188 2.87988 11.9999ZM4.07988 11.9999C4.07988 7.55988 7.55988 4.07988 11.9999 4.07988C16.4399 4.07988 19.9199 7.55988 19.9199 11.9999C19.9199 16.3199 16.4399 19.9199 11.9999 19.9199C7.55988 19.9199 4.07988 16.4399 4.07988 11.9999ZM11.0639 17.0399H12.9359V15.1679H11.0639V17.0399Z" fill="black"/>
</svg>
