<svg width="24" height="24" viewBox="0 0 24 24" fill="none" xmlns="http://www.w3.org/2000/svg">
<path d="M12 21.24C16.968 21.24 21.12 17.112 21.12 12.12C21.12 7.12801 16.968 3.00001 12 3.00001C8.928 3.00001 6.264 4.56001 4.632 6.98401C4.656 6.28801 4.656 5.56801 4.656 4.89601V2.76001H3.576V8.90401H9.072V7.82401H7.464C6.792 7.82401 6.072 7.84801 5.376 7.87201C6.768 5.66401 9.192 4.20001 12 4.20001C16.32 4.20001 19.92 7.77601 19.92 12.12C19.92 16.44 16.32 20.04 12 20.04C7.656 20.04 4.08 16.44 4.08 12.12H2.88C2.88 17.112 7.008 21.24 12 21.24ZM11.4 12.12C11.4 12.288 11.472 12.432 11.568 12.552L15.024 16.008L15.888 15.144L12.6 11.88V6.60001H11.4V12.12Z" fill="black"/>
</svg>
