<svg width="24" height="24" viewBox="0 0 24 24" fill="none" xmlns="http://www.w3.org/2000/svg">
<path d="M9.312 17.04H14.712V16.008H12.696V10.224H9.552V11.232H11.568V16.008H9.312V17.04ZM2.88 12C2.88 17.088 6.912 21.12 12 21.12C17.112 21.12 21.12 16.968 21.12 12C21.12 6.912 17.088 2.88 12 2.88C6.912 2.88 2.88 6.912 2.88 12ZM4.08 12C4.08 7.56 7.56 4.08 12 4.08C16.44 4.08 19.92 7.56 19.92 12C19.92 16.32 16.44 19.92 12 19.92C7.56 19.92 4.08 16.44 4.08 12ZM11.136 8.496H13.008V6.624H11.136V8.496Z" fill="black"/>
</svg>
