<svg width="24" height="24" viewBox="0 0 24 24" fill="none" xmlns="http://www.w3.org/2000/svg">
<path d="M8.07605 21.24L8.94005 20.328L6.49205 17.904L8.07605 16.32L10.5 18.768L11.412 17.856L8.96405 15.432L13.308 11.088C14.052 11.64 14.988 11.976 16.02 11.976C18.6361 11.976 20.7001 9.91201 20.7001 7.36801C20.7001 4.82401 18.6361 2.76001 16.02 2.76001C13.404 2.76001 11.364 4.82401 11.364 7.36801C11.364 8.44801 11.724 9.45601 12.372 10.248L3.30005 19.296L4.21205 20.208L5.60405 18.792L8.07605 21.24ZM12.612 7.36801C12.612 5.47201 14.124 3.96001 16.02 3.96001C17.9161 3.96001 19.4281 5.47201 19.4281 7.36801C19.4281 9.26401 17.9161 10.776 16.02 10.776C14.124 10.776 12.612 9.26401 12.612 7.36801Z" fill="black"/>
</svg>
