<svg width="24" height="24" viewBox="0 0 24 24" fill="none" xmlns="http://www.w3.org/2000/svg">
<path d="M5.39998 22.0799H17.88C18.984 22.0799 19.8 21.2639 19.8 20.1599V8.39992H20.52V5.03992H19.8V3.83992C19.8 2.73592 18.984 1.91992 17.88 1.91992H5.39998C4.29598 1.91992 3.47998 2.73592 3.47998 3.83992V20.1599C3.47998 21.2639 4.29598 22.0799 5.39998 22.0799ZM4.63198 20.1839V3.79192C4.63198 3.33592 4.89598 3.04792 5.37598 3.04792H17.928C18.384 3.04792 18.672 3.33592 18.672 3.79192V20.1839C18.672 20.6639 18.384 20.9519 17.928 20.9519H5.37598C4.89598 20.9519 4.63198 20.6639 4.63198 20.1839ZM6.35998 19.1999H16.92V4.79992H6.35998V19.1999ZM7.39198 18.1679V5.80792H15.912V18.1679H7.39198Z" fill="black"/>
</svg>
