<svg width="24" height="24" viewBox="0 0 24 24" fill="none" xmlns="http://www.w3.org/2000/svg">
<path d="M2.98779 13.752V14.904C9.82779 13.992 15.5398 10.248 19.9558 4.92C19.9318 5.784 19.9318 6.624 19.9318 7.464V9.288H21.0118L20.9878 3.12H14.8438V4.2H16.6198C17.4358 4.2 18.2758 4.2 19.0918 4.176C14.8678 9.312 9.49179 12.84 2.98779 13.752ZM2.98779 20.88H4.23579V17.952H2.98779V20.88ZM7.16379 20.88H8.43579V16.608H7.16379V20.88ZM11.3638 20.88H12.6118V15.192H11.3638V20.88ZM15.5398 20.88H16.8118V13.824H15.5398V20.88ZM19.7158 20.88H20.9878V12.48H19.7158V20.88Z" fill="black"/>
</svg>
