<svg width="24" height="24" viewBox="0 0 24 24" fill="none" xmlns="http://www.w3.org/2000/svg">
<path d="M2.98779 13.7521V14.9041C9.82779 13.9921 15.5398 10.2481 19.9558 4.92012C19.9318 5.78412 19.9318 6.62412 19.9318 7.46412V9.28812H21.0118L20.9878 3.12012H14.8438V4.20012H16.6198C17.4358 4.20012 18.2758 4.20012 19.0918 4.17612C14.8678 9.31212 9.49179 12.8401 2.98779 13.7521ZM2.98779 20.8801H4.23579V17.9521H2.98779V20.8801ZM7.16379 20.8801H8.43579V16.6081H7.16379V20.8801ZM11.3638 20.8801H12.6118V15.1921H11.3638V20.8801ZM15.5398 20.8801H16.8118V13.8241H15.5398V20.8801ZM19.7158 20.8801H20.9878V12.4801H19.7158V20.8801Z" fill="black"/>
</svg>
