<svg width="24" height="24" viewBox="0 0 24 24" fill="none" xmlns="http://www.w3.org/2000/svg">
<path d="M11.9999 14.7839C10.4639 14.7839 9.21588 13.5359 9.21588 11.9999C9.21588 10.4399 10.4639 9.19188 11.9999 9.19188C13.5599 9.19188 14.8079 10.4399 14.8079 11.9999C14.8079 13.5359 13.5599 14.7839 11.9999 14.7839ZM2.87988 11.9999C2.87988 17.0879 6.91188 21.1199 11.9999 21.1199C17.1119 21.1199 21.1199 16.9679 21.1199 11.9999C21.1199 6.91188 17.0879 2.87988 11.9999 2.87988C6.91188 2.87988 2.87988 6.91188 2.87988 11.9999ZM4.07988 11.9999C4.07988 10.0079 4.77588 8.18388 5.97588 6.81588L8.87988 9.71988C8.39988 10.3679 8.13588 11.1359 8.13588 11.9999C8.13588 12.8639 8.39988 13.6319 8.87988 14.2799L5.97588 17.1839C4.77588 15.8159 4.07988 13.9919 4.07988 11.9999ZM6.81588 18.0239L9.71988 15.1199C10.3679 15.5999 11.1359 15.8639 11.9999 15.8639C12.8639 15.8639 13.6319 15.5999 14.2799 15.1199L17.1599 17.9999C15.7919 19.1999 13.9919 19.9199 11.9999 19.9199C10.0079 19.9199 8.18388 19.2239 6.81588 18.0239ZM6.81588 5.97588C8.18388 4.77588 10.0079 4.07988 11.9999 4.07988C13.9919 4.07988 15.8159 4.77588 17.1839 5.97588L14.2799 8.87988C13.6319 8.39988 12.8639 8.11188 11.9999 8.11188C11.1359 8.11188 10.3679 8.39988 9.71988 8.87988L6.81588 5.97588ZM15.1199 14.2799C15.5999 13.6319 15.8879 12.8639 15.8879 11.9999C15.8879 11.1359 15.5999 10.3679 15.1199 9.71988L18.0239 6.81588C19.2239 8.18388 19.9199 10.0079 19.9199 11.9999C19.9199 13.9679 19.1999 15.7679 17.9999 17.1599L15.1199 14.2799Z" fill="black"/>
</svg>
