<svg width="24" height="24" viewBox="0 0 24 24" fill="none" xmlns="http://www.w3.org/2000/svg">
<path d="M8.8682 17.8319V21.5999H15.1082V17.8319C15.1082 16.7279 15.3962 16.2239 16.5002 14.9519L17.0762 14.3039C18.3962 12.7919 19.0922 11.2319 19.0922 9.4079C19.0922 5.2319 15.7322 2.3999 11.9882 2.3999C8.2442 2.3999 4.9082 5.2319 4.9082 9.4079C4.9082 11.2319 5.5802 12.7919 6.9002 14.3039L7.4762 14.9519C8.5802 16.2239 8.8682 16.7279 8.8682 17.8319ZM6.1082 9.4079C6.1082 5.9039 8.8682 3.5279 11.9882 3.5279C15.1322 3.5279 17.8922 5.9039 17.8922 9.4079C17.8922 10.9439 17.3162 12.2639 16.1882 13.5359L15.6122 14.2079C14.4602 15.5039 13.9562 16.3679 13.9082 17.7839H12.5642V12.5039H11.4122V17.7839H10.0682C10.0202 16.3679 9.5162 15.5039 8.3882 14.2079L7.8122 13.5359C6.6842 12.2639 6.1082 10.9439 6.1082 9.4079ZM10.0682 20.4479V18.8639H13.9082V20.4479H10.0682Z" fill="black"/>
</svg>
