<svg width="24" height="24" viewBox="0 0 24 24" fill="none" xmlns="http://www.w3.org/2000/svg">
<path d="M8.8682 17.832V21.6H15.1082V17.832C15.1082 16.728 15.3962 16.224 16.5002 14.952L17.0762 14.304C18.3962 12.792 19.0922 11.232 19.0922 9.40802C19.0922 5.23202 15.7322 2.40002 11.9882 2.40002C8.2442 2.40002 4.9082 5.23202 4.9082 9.40802C4.9082 11.232 5.5802 12.792 6.9002 14.304L7.4762 14.952C8.5802 16.224 8.8682 16.728 8.8682 17.832ZM6.1082 9.40802C6.1082 5.90402 8.8682 3.52802 11.9882 3.52802C15.1322 3.52802 17.8922 5.90402 17.8922 9.40802C17.8922 10.944 17.3162 12.264 16.1882 13.536L15.6122 14.208C14.4602 15.504 13.9562 16.368 13.9082 17.784H12.5642V12.504H11.4122V17.784H10.0682C10.0202 16.368 9.5162 15.504 8.3882 14.208L7.8122 13.536C6.6842 12.264 6.1082 10.944 6.1082 9.40802ZM10.0682 20.448V18.864H13.9082V20.448H10.0682Z" fill="black"/>
</svg>
