<svg width="24" height="24" viewBox="0 0 24 24" fill="none" xmlns="http://www.w3.org/2000/svg">
<path d="M19.9679 20.832L20.8319 19.968L4.03191 3.16804L3.16791 4.03204L19.9679 20.832ZM4.00791 19.992C5.75991 21.72 8.61591 21.72 10.3679 19.992L13.4639 16.92L12.5759 16.008L9.47991 19.08C7.99191 20.568 6.38391 20.568 4.91991 19.08C3.45591 17.616 3.45591 16.008 4.91991 14.52L7.99191 11.424L7.07991 10.536L4.00791 13.632C2.27991 15.384 2.27991 18.24 4.00791 19.992ZM10.5359 7.08004L11.4479 7.96804L14.5439 4.89604C16.0079 3.43204 17.6399 3.43204 19.1039 4.89604C20.5679 6.36004 20.5679 7.99204 19.1039 9.45604L16.0319 12.552L16.9199 13.464L19.9919 10.368C21.7199 8.61604 21.7199 5.76004 19.9919 4.00804C18.2399 2.28004 15.3839 2.28004 13.6319 4.00804L10.5359 7.08004Z" fill="black"/>
</svg>
