<svg width="24" height="24" viewBox="0 0 24 24" fill="none" xmlns="http://www.w3.org/2000/svg">
<path d="M10.2 13.8C11.976 15.552 14.808 15.576 16.56 13.8L19.992 10.368C21.744 8.61597 21.744 5.75997 19.992 4.00797C18.24 2.25597 15.384 2.25597 13.632 4.00797L11.088 6.52797L11.976 7.41597L14.544 4.89597C16.008 3.40797 17.64 3.43197 19.104 4.89597C20.592 6.38397 20.592 7.99197 19.104 9.45597L15.672 12.888C14.184 14.4 12.552 14.424 11.064 12.936L10.32 12.24L9.47997 13.104L10.2 13.8ZM4.00797 19.992C5.75997 21.744 8.61597 21.744 10.368 19.992L12.912 17.472L12.024 16.56L9.47997 19.08C7.99197 20.592 6.38397 20.568 4.91997 19.08C3.43197 17.616 3.40797 15.984 4.91997 14.52L8.35197 11.088C9.81597 9.57597 11.472 9.57597 12.96 11.04L13.704 11.76L14.52 10.896L13.8 10.2C12.024 8.44797 9.19197 8.42397 7.43997 10.2L4.00797 13.632C2.25597 15.384 2.25597 18.24 4.00797 19.992Z" fill="black"/>
</svg>
