<svg width="24" height="24" viewBox="0 0 24 24" fill="none" xmlns="http://www.w3.org/2000/svg">
<path d="M10.1998 13.8001C11.9758 15.5521 14.8078 15.5761 16.5598 13.8001L19.9918 10.3681C21.7438 8.61609 21.7438 5.76009 19.9918 4.00809C18.2398 2.25609 15.3838 2.25609 13.6318 4.00809L11.0878 6.52809L11.9758 7.41609L14.5438 4.89609C16.0078 3.40809 17.6398 3.43209 19.1038 4.89609C20.5918 6.38409 20.5918 7.99209 19.1038 9.45609L15.6718 12.8881C14.1838 14.4001 12.5518 14.4241 11.0638 12.9361L10.3198 12.2401L9.47985 13.1041L10.1998 13.8001ZM4.00785 19.9921C5.75985 21.7441 8.61585 21.7441 10.3678 19.9921L12.9118 17.4721L12.0238 16.5601L9.47985 19.0801C7.99185 20.5921 6.38385 20.5681 4.91985 19.0801C3.43185 17.6161 3.40785 15.9841 4.91985 14.5201L8.35185 11.0881C9.81585 9.57609 11.4718 9.57609 12.9598 11.0401L13.7038 11.7601L14.5198 10.8961L13.7998 10.2001C12.0238 8.44809 9.19185 8.42409 7.43985 10.2001L4.00785 13.6321C2.25585 15.3841 2.25585 18.2401 4.00785 19.9921Z" fill="black"/>
</svg>
