<svg width="24" height="24" viewBox="0 0 24 24" fill="none" xmlns="http://www.w3.org/2000/svg">
<path d="M10.1998 13.8C11.9758 15.552 14.8078 15.576 16.5598 13.8L19.9918 10.368C21.7438 8.61597 21.7438 5.75997 19.9918 4.00797C18.2398 2.25597 15.3838 2.25597 13.6318 4.00797L11.0878 6.52797L11.9758 7.41597L14.5438 4.89597C16.0078 3.40797 17.6398 3.43197 19.1038 4.89597C20.5918 6.38397 20.5918 7.99197 19.1038 9.45597L15.6718 12.888C14.1838 14.4 12.5518 14.424 11.0638 12.936L10.3198 12.24L9.47985 13.104L10.1998 13.8ZM4.00785 19.992C5.75985 21.744 8.61585 21.744 10.3678 19.992L12.9118 17.472L12.0238 16.56L9.47985 19.08C7.99185 20.592 6.38385 20.568 4.91985 19.08C3.43185 17.616 3.40785 15.984 4.91985 14.52L8.35185 11.088C9.81585 9.57597 11.4718 9.57597 12.9598 11.04L13.7038 11.76L14.5198 10.896L13.7998 10.2C12.0238 8.44797 9.19185 8.42397 7.43985 10.2L4.00785 13.632C2.25585 15.384 2.25585 18.24 4.00785 19.992Z" fill="black"/>
</svg>
