<svg width="24" height="24" viewBox="0 0 24 24" fill="none" xmlns="http://www.w3.org/2000/svg">
<path d="M19.9679 20.8319L20.8319 19.9679L4.03191 3.16791L3.16791 4.03191L19.9679 20.8319ZM4.00791 19.9919C5.75991 21.7199 8.61591 21.7199 10.3679 19.9919L13.4639 16.9199L12.5759 16.0079L9.47991 19.0799C7.99191 20.5679 6.38391 20.5679 4.91991 19.0799C3.45591 17.6159 3.45591 16.0079 4.91991 14.5199L7.99191 11.4239L7.07991 10.5359L4.00791 13.6319C2.27991 15.3839 2.27991 18.2399 4.00791 19.9919ZM10.5359 7.07991L11.4479 7.96791L14.5439 4.89591C16.0079 3.43191 17.6399 3.43191 19.1039 4.89591C20.5679 6.35991 20.5679 7.99191 19.1039 9.45591L16.0319 12.5519L16.9199 13.4639L19.9919 10.3679C21.7199 8.61591 21.7199 5.75991 19.9919 4.00791C18.2399 2.27991 15.3839 2.27991 13.6319 4.00791L10.5359 7.07991Z" fill="black"/>
</svg>
