<svg width="24" height="24" viewBox="0 0 24 24" fill="none" xmlns="http://www.w3.org/2000/svg">
<path d="M7.86 16.3441L11.988 21.8881L16.116 16.3441C17.796 14.0881 19.164 11.8321 19.164 9.38406C19.116 4.89606 15.684 2.11206 11.988 2.11206C8.292 2.11206 4.86 4.89606 4.836 9.38406C4.836 11.8321 6.18 14.0881 7.86 16.3441ZM6.036 9.38406C6.06 5.59206 8.916 3.31206 11.988 3.31206C15.084 3.31206 17.94 5.59206 17.964 9.38406C17.964 11.4481 16.764 13.4641 15.156 15.6241L11.988 19.8721L8.844 15.6241C7.212 13.4641 6.036 11.4481 6.036 9.38406ZM8.628 9.31206C8.628 11.1601 10.14 12.6721 11.988 12.6721C13.86 12.6721 15.348 11.1601 15.348 9.31206C15.348 7.44006 13.86 5.95206 11.988 5.95206C10.14 5.95206 8.628 7.44006 8.628 9.31206ZM9.708 9.31206C9.708 8.04006 10.74 7.03206 11.988 7.03206C13.26 7.03206 14.268 8.04006 14.268 9.31206C14.268 10.5601 13.26 11.5921 11.988 11.5921C10.74 11.5921 9.708 10.5601 9.708 9.31206Z" fill="black"/>
</svg>
