<svg width="24" height="24" viewBox="0 0 24 24" fill="none" xmlns="http://www.w3.org/2000/svg">
<path d="M7.85994 16.3441L11.9879 21.8881L16.1159 16.3441C17.7959 14.0881 19.1639 11.8321 19.1639 9.38406C19.1159 4.89606 15.6839 2.11206 11.9879 2.11206C8.29194 2.11206 4.85994 4.89606 4.83594 9.38406C4.83594 11.8321 6.17994 14.0881 7.85994 16.3441ZM6.03594 9.38406C6.05994 5.59206 8.91594 3.31206 11.9879 3.31206C15.0839 3.31206 17.9399 5.59206 17.9639 9.38406C17.9639 11.4481 16.7639 13.4641 15.1559 15.6241L11.9879 19.8721L8.84394 15.6241C7.21194 13.4641 6.03594 11.4481 6.03594 9.38406ZM8.62794 9.31206C8.62794 11.1601 10.1399 12.6721 11.9879 12.6721C13.8599 12.6721 15.3479 11.1601 15.3479 9.31206C15.3479 7.44006 13.8599 5.95206 11.9879 5.95206C10.1399 5.95206 8.62794 7.44006 8.62794 9.31206ZM9.70794 9.31206C9.70794 8.04006 10.7399 7.03206 11.9879 7.03206C13.2599 7.03206 14.2679 8.04006 14.2679 9.31206C14.2679 10.5601 13.2599 11.5921 11.9879 11.5921C10.7399 11.5921 9.70794 10.5601 9.70794 9.31206Z" fill="black"/>
</svg>
