<svg width="24" height="24" viewBox="0 0 24 24" fill="none" xmlns="http://www.w3.org/2000/svg">
<path d="M6.96001 13.7519V21.5999L12 18.7919L17.04 21.5999V13.7519C18.12 12.5279 18.792 10.9439 18.792 9.1919C18.792 5.4479 15.744 2.3999 12 2.3999C8.25601 2.3999 5.20801 5.4479 5.20801 9.1919C5.20801 10.9439 5.88001 12.5279 6.96001 13.7519ZM6.40801 9.1919C6.40801 6.0959 8.92801 3.5999 12 3.5999C15.096 3.5999 17.592 6.0959 17.592 9.1919C17.592 12.2639 15.096 14.7839 12 14.7839C8.92801 14.7839 6.40801 12.2639 6.40801 9.1919ZM8.11201 19.7039V14.6879C9.19201 15.4799 10.536 15.9839 12 15.9839C13.464 15.9839 14.808 15.4799 15.912 14.6879V19.7039L12 17.5439L8.11201 19.7039Z" fill="black"/>
</svg>
