<svg width="24" height="24" viewBox="0 0 24 24" fill="none" xmlns="http://www.w3.org/2000/svg">
<path d="M7.992 21.12H9.072V17.76H11.472V21.12H12.552V17.76H14.952V21.12H16.032V17.76H17.76V16.008H21.12V14.928H17.76V12.528H21.12V11.448H17.76V9.04801H21.12V7.968H17.76V6.24001H16.032V2.88H14.952V6.24001H12.552V2.88H11.472V6.24001H9.072V2.88H7.992V6.24001H6.24001V7.968H2.88V9.04801H6.24001V11.448H2.88V12.528H6.24001V14.928H2.88V16.008H6.24001V17.76H7.992V21.12ZM7.392 16.608V7.368H16.632V16.608H7.392ZM10.032 13.968H13.992V10.008H10.032V13.968Z" fill="black"/>
</svg>
