<svg width="24" height="24" viewBox="0 0 24 24" fill="none" xmlns="http://www.w3.org/2000/svg">
<path d="M7.99188 21.1199H9.07188V17.7599H11.4719V21.1199H12.5519V17.7599H14.9519V21.1199H16.0319V17.7599H17.7599V16.0079H21.1199V14.9279H17.7599V12.5279H21.1199V11.4479H17.7599V9.04788H21.1199V7.96788H17.7599V6.23988H16.0319V2.87988H14.9519V6.23988H12.5519V2.87988H11.4719V6.23988H9.07188V2.87988H7.99188V6.23988H6.23988V7.96788H2.87988V9.04788H6.23988V11.4479H2.87988V12.5279H6.23988V14.9279H2.87988V16.0079H6.23988V17.7599H7.99188V21.1199ZM7.39188 16.6079V7.36788H16.6319V16.6079H7.39188ZM10.0319 13.9679H13.9919V10.0079H10.0319V13.9679Z" fill="black"/>
</svg>
