<svg width="24" height="24" viewBox="0 0 24 24" fill="none" xmlns="http://www.w3.org/2000/svg">
<path d="M7.08003 22.3201H16.92C17.904 22.3201 18.72 21.5041 18.72 20.5201V3.48005C18.72 2.49605 17.904 1.68005 16.92 1.68005H7.08003C6.09603 1.68005 5.28003 2.49605 5.28003 3.48005V20.5201C5.28003 21.5041 6.09603 22.3201 7.08003 22.3201ZM6.48003 20.4961V3.50405C6.48003 3.09605 6.76803 2.80805 7.17603 2.80805H16.848C17.256 2.80805 17.52 3.09605 17.52 3.50405V20.4961C17.52 20.9041 17.256 21.1921 16.848 21.1921H7.17603C6.76803 21.1921 6.48003 20.9041 6.48003 20.4961ZM10.728 18.6961C10.728 19.3681 11.28 19.9681 12 19.9681C12.696 19.9681 13.248 19.3681 13.248 18.6961C13.248 18.0001 12.696 17.4481 12 17.4481C11.28 17.4481 10.728 18.0001 10.728 18.6961Z" fill="black"/>
</svg>
