<svg width="24" height="24" viewBox="0 0 24 24" fill="none" xmlns="http://www.w3.org/2000/svg">
<path d="M7.07978 22.3201H16.9198C17.9038 22.3201 18.7198 21.5041 18.7198 20.5201V3.48005C18.7198 2.49605 17.9038 1.68005 16.9198 1.68005H7.07978C6.09579 1.68005 5.27979 2.49605 5.27979 3.48005V20.5201C5.27979 21.5041 6.09579 22.3201 7.07978 22.3201ZM6.47979 20.4961V3.50405C6.47979 3.09605 6.76779 2.80805 7.17579 2.80805H16.8478C17.2558 2.80805 17.5198 3.09605 17.5198 3.50405V20.4961C17.5198 20.9041 17.2558 21.1921 16.8478 21.1921H7.17579C6.76779 21.1921 6.47979 20.9041 6.47979 20.4961ZM10.7278 18.6961C10.7278 19.3681 11.2798 19.9681 11.9998 19.9681C12.6958 19.9681 13.2478 19.3681 13.2478 18.6961C13.2478 18.0001 12.6958 17.4481 11.9998 17.4481C11.2798 17.4481 10.7278 18.0001 10.7278 18.6961Z" fill="black"/>
</svg>
