<svg width="24" height="24" viewBox="0 0 24 24" fill="none" xmlns="http://www.w3.org/2000/svg">
<path d="M7.07978 22.3199H16.9198C17.9038 22.3199 18.7198 21.5039 18.7198 20.5199V3.47993C18.7198 2.49593 17.9038 1.67993 16.9198 1.67993H7.07978C6.09579 1.67993 5.27979 2.49593 5.27979 3.47993V20.5199C5.27979 21.5039 6.09579 22.3199 7.07978 22.3199ZM6.47979 20.4959V3.50393C6.47979 3.09593 6.76779 2.80793 7.17579 2.80793H16.8478C17.2558 2.80793 17.5198 3.09593 17.5198 3.50393V20.4959C17.5198 20.9039 17.2558 21.1919 16.8478 21.1919H7.17579C6.76779 21.1919 6.47979 20.9039 6.47979 20.4959ZM10.7278 18.6959C10.7278 19.3679 11.2798 19.9679 11.9998 19.9679C12.6958 19.9679 13.2478 19.3679 13.2478 18.6959C13.2478 17.9999 12.6958 17.4479 11.9998 17.4479C11.2798 17.4479 10.7278 17.9999 10.7278 18.6959Z" fill="black"/>
</svg>
