<svg width="24" height="24" viewBox="0 0 24 24" fill="none" xmlns="http://www.w3.org/2000/svg">
<path d="M8.064 20.8801H11.016C12.624 20.8801 14.016 20.2801 15 18.9841C15.144 18.7921 15.288 18.6001 15.408 18.3841H16.128C18.912 18.3841 21 16.5361 21 13.9681C21 11.3281 18.912 9.48012 16.128 9.48012H3V15.0001C3 16.8241 3.336 18.0241 4.104 18.9841C5.112 20.2801 6.456 20.8801 8.064 20.8801ZM4.272 15.6481V10.6081H14.832V15.6481C14.832 18.2161 13.728 19.6801 11.136 19.6801H7.968C5.424 19.6801 4.272 18.2641 4.272 15.6481ZM6.768 7.92012H8.04C7.968 6.81612 8.568 6.31212 9.96 6.14412L11.688 5.92812C13.488 5.71212 14.64 4.77612 14.52 3.12012H13.272C13.32 4.22412 12.696 4.70412 11.328 4.87212L9.6 5.08812C7.8 5.30412 6.648 6.24012 6.768 7.92012ZM15.84 17.2321C16.008 16.6321 16.08 15.8881 16.08 15.0001V10.6321C18.528 10.6321 19.752 11.5921 19.752 13.6561V14.2321C19.752 16.2241 18.552 17.2321 16.2 17.2321H15.84Z" fill="black"/>
</svg>
