<svg width="24" height="24" viewBox="0 0 24 24" fill="none" xmlns="http://www.w3.org/2000/svg">
<path d="M14.8198 20.0399L4.42782 9.64791L8.29182 5.78391L18.6838 16.1759C19.2838 16.7519 19.5478 17.4239 19.5478 18.1679C19.5478 19.6799 18.2998 20.9039 16.8118 20.9039C16.0918 20.9039 15.3958 20.6159 14.8198 20.0399ZM2.81982 9.64791L13.2118 20.0639V21.8399H20.4598V12.0239H21.1798V9.52791H20.4598V6.76791H21.1798V4.29591H20.4598V2.15991H13.3798V9.26391L8.29182 4.17591L2.81982 9.64791ZM15.2758 18.1439C15.2758 18.9839 15.9478 19.7039 16.8118 19.7039C17.6518 19.7039 18.3238 18.9839 18.3238 18.1439C18.3238 17.3039 17.6518 16.6319 16.8118 16.6319C15.9478 16.6319 15.2758 17.3039 15.2758 18.1439Z" fill="black"/>
</svg>
