<svg width="24" height="24" viewBox="0 0 24 24" fill="none" xmlns="http://www.w3.org/2000/svg">
<path d="M2.64001 21.24H21.36V14.928H2.66401L2.64001 21.24ZM3.72001 20.16L3.74401 16.008H10.92C10.368 16.512 10.032 17.256 10.032 18.072C10.032 18.888 10.368 19.632 10.92 20.16H3.72001ZM7.65602 8.73601L12 13.08L16.344 8.73601L15.576 7.96801L14.16 9.40801C13.632 9.91201 13.104 10.464 12.576 11.016V2.76001H11.424V11.04C10.896 10.488 10.368 9.93601 9.84002 9.40801L8.40002 7.96801L7.65602 8.73601ZM11.112 18.072C11.112 16.944 12.048 16.008 13.128 16.008H20.28V20.16H13.128C12.048 20.16 11.112 19.224 11.112 18.072ZM12.12 18.096C12.12 18.72 12.648 19.248 13.272 19.248C13.92 19.248 14.448 18.72 14.448 18.096C14.448 17.448 13.92 16.92 13.272 16.92C12.648 16.92 12.12 17.448 12.12 18.096Z" fill="black"/>
</svg>
