<svg width="24" height="24" viewBox="0 0 24 24" fill="none" xmlns="http://www.w3.org/2000/svg">
<path d="M13.5722 21.8399H20.8202V2.15991H13.7402V9.26391L8.65218 4.17591L3.18018 9.64791L13.5722 20.0639V21.8399ZM4.78818 9.64791L8.65218 5.78391L19.0442 16.1759C19.6442 16.7759 19.9082 17.4239 19.9082 18.1679C19.9082 19.6799 18.6602 20.9039 17.1722 20.9039C16.4522 20.9039 15.7562 20.6159 15.1802 20.0399L4.78818 9.64791ZM15.2762 5.73591C15.2762 4.63191 16.1642 3.74391 17.3162 3.74391C18.3962 3.74391 19.2842 4.63191 19.2842 5.73591C19.2842 6.76791 18.3962 7.77591 17.3162 7.77591C16.1882 7.75191 15.2762 6.76791 15.2762 5.73591ZM15.6362 18.1439C15.6362 18.9839 16.3082 19.7039 17.1722 19.7039C18.0122 19.7039 18.6842 18.9839 18.6842 18.1439C18.6842 17.3039 18.0122 16.6319 17.1722 16.6319C16.3082 16.6319 15.6362 17.3039 15.6362 18.1439ZM16.0202 5.73591C16.0202 6.43191 16.5722 7.05591 17.3162 7.03191C18.0122 7.05591 18.5882 6.43191 18.5882 5.73591C18.5642 5.03991 18.0122 4.46391 17.3162 4.46391C16.5722 4.46391 16.0202 5.03991 16.0202 5.73591Z" fill="black"/>
</svg>
