<svg width="24" height="24" viewBox="0 0 24 24" fill="none" xmlns="http://www.w3.org/2000/svg">
<path d="M17.8562 22.3201L22.3202 17.8561L6.14418 1.68005L1.68018 6.14405L17.8562 22.3201ZM3.21618 6.14405L6.14418 3.19205L12.9842 10.0321C12.2402 10.0081 11.4722 10.2961 10.8722 10.8721C10.2962 11.4481 10.0322 12.2401 10.0562 12.9841L3.21618 6.14405ZM4.96818 6.12005C4.96818 6.76805 5.49618 7.29605 6.14418 7.29605C6.76818 7.29605 7.32018 6.76805 7.32018 6.12005C7.32018 5.47205 6.76818 4.94405 6.14418 4.94405C5.49618 4.94405 4.96818 5.47205 4.96818 6.12005ZM11.5922 14.5201C10.8242 13.7521 10.8482 12.4561 11.6402 11.6401C12.4562 10.8481 13.7522 10.8481 14.5202 11.5921L20.8082 17.8561L17.8562 20.8081L11.5922 14.5201ZM12.0242 13.1761C12.0242 13.8241 12.5522 14.3521 13.1762 14.3521C13.8242 14.3521 14.3522 13.8241 14.3522 13.1761C14.3522 12.5281 13.8242 12.0001 13.1762 12.0001C12.5522 12.0001 12.0242 12.5281 12.0242 13.1761Z" fill="black"/>
</svg>
