<svg width="24" height="24" viewBox="0 0 24 24" fill="none" xmlns="http://www.w3.org/2000/svg">
<path d="M17.8562 22.3199L22.3202 17.8559L6.14418 1.67993L1.68018 6.14393L17.8562 22.3199ZM3.21618 6.14393L6.14418 3.19193L12.9842 10.0319C12.2402 10.0079 11.4722 10.2959 10.8722 10.8719C10.2962 11.4479 10.0322 12.2399 10.0562 12.9839L3.21618 6.14393ZM11.5922 14.5199C10.8482 13.7519 10.8482 12.4559 11.6402 11.6399C12.4562 10.8479 13.7522 10.8479 14.5202 11.5919L20.8082 17.8559L17.8562 20.8079L11.5922 14.5199ZM12.0242 13.1759C12.0242 13.8239 12.5522 14.3519 13.1762 14.3519C13.8242 14.3519 14.3522 13.8239 14.3522 13.1759C14.3522 12.5279 13.8242 11.9999 13.1762 11.9999C12.5522 11.9999 12.0242 12.5279 12.0242 13.1759Z" fill="black"/>
</svg>
