<svg width="24" height="24" viewBox="0 0 24 24" fill="none" xmlns="http://www.w3.org/2000/svg">
<path d="M5.57031 21.0933C4.91357 21.0926 4.28393 20.8309 3.81954 20.3657C3.35516 19.9004 3.09397 19.2696 3.09326 18.6116V2.90649H18.7723V6.9498H8.04869V18.6116C8.04798 19.2698 7.78659 19.9008 7.32192 20.3661C6.85725 20.8314 6.22727 21.093 5.57031 21.0933ZM4.16669 3.97792V18.6116C4.16705 18.9855 4.31547 19.344 4.57938 19.6084C4.84328 19.8728 5.2011 20.0215 5.57432 20.0219C5.94759 20.0217 6.30552 19.8731 6.56946 19.6086C6.8334 19.3442 6.98177 18.9856 6.98195 18.6116V5.87837H17.7069V3.97792H4.16669Z" fill="black"/>
<path d="M18.702 21.0933L5.57031 21.0933L5.5702 20.0219H18.7007C19.002 20.0219 19.291 19.902 19.5041 19.6885C19.7172 19.475 19.8369 19.1854 19.8369 18.8835V6.9498H18.2375V5.87837H20.9063V18.8835C20.9063 19.4693 20.6741 20.0312 20.2608 20.4456C19.8474 20.86 19.2868 21.093 18.702 21.0933Z" fill="black"/>
<path d="M17.694 9.40337H10.0831V10.4748H17.694V9.40337Z" fill="black"/>
<path d="M17.694 13.0991H10.0831V14.1706H17.694V13.0991Z" fill="black"/>
</svg>
