<svg width="24" height="24" viewBox="0 0 24 24" fill="none" xmlns="http://www.w3.org/2000/svg">
<path d="M10.8362 16.704C13.0922 16.704 14.3642 14.832 14.3402 11.904C14.3162 9.04801 13.0202 7.34401 10.8362 7.34401C9.10821 7.34401 7.71621 8.664 7.71621 10.464C7.71621 12.216 8.98821 13.512 10.6922 13.512C11.7482 13.512 12.6362 12.96 12.9962 12.096H13.1402C13.2122 14.16 12.6362 15.624 10.8122 15.624C9.63621 15.624 8.98821 15.048 8.84421 13.896H7.66821C7.81221 15.6 9.10821 16.704 10.8362 16.704ZM4.11621 21.12H10.7642C15.8762 21.12 19.8842 16.968 19.8842 12C19.8842 6.888 15.8762 2.88 10.7642 2.88H4.11621V4.08H10.7642C15.2042 4.08 18.6842 7.56 18.6842 12C18.6842 16.32 15.2042 19.92 10.7642 19.92H4.11621V21.12ZM8.89221 10.632V10.224C8.89221 9.096 9.56421 8.42401 10.8122 8.42401H10.9562C12.2282 8.42401 12.8762 9.168 12.8762 10.224V10.632C12.8762 11.76 12.2042 12.432 10.9562 12.432H10.8122C9.56421 12.432 8.89221 11.76 8.89221 10.632Z" fill="black"/>
</svg>
