<svg width="24" height="24" viewBox="0 0 24 24" fill="none" xmlns="http://www.w3.org/2000/svg">
<path d="M11.9999 21.1199C17.1119 21.1199 21.1199 16.9679 21.1199 11.9999C21.1199 6.91188 17.0879 2.87988 11.9999 2.87988C6.91188 2.87988 2.87988 6.91188 2.87988 11.9999C2.87988 17.0879 6.91188 21.1199 11.9999 21.1199ZM4.07988 11.9999C4.07988 7.55988 7.55988 4.07988 11.9999 4.07988C16.4399 4.07988 19.9199 7.55988 19.9199 11.9999C19.9199 16.3199 16.4399 19.9199 11.9999 19.9199C7.55988 19.9199 4.07988 16.4399 4.07988 11.9999ZM8.87988 13.8959C9.04788 15.5999 10.3439 16.7039 12.0719 16.7039C14.3279 16.7039 15.5999 14.8319 15.5759 11.9039C15.5519 9.04788 14.2559 7.34388 12.0719 7.34388C10.3439 7.34388 8.95188 8.66388 8.95188 10.4639C8.95188 12.2159 10.2239 13.5119 11.9279 13.5119C12.9839 13.5119 13.8719 12.9839 14.2319 12.0959H14.3759C14.4479 14.1599 13.8719 15.6239 12.0479 15.6239C10.8719 15.6239 10.1999 15.0479 10.0799 13.8959H8.87988ZM10.1279 10.6319V10.2239C10.1279 9.09588 10.7999 8.42388 12.0479 8.42388H12.1919C13.4639 8.42388 14.1119 9.16788 14.1119 10.2239V10.6319C14.1119 11.7599 13.4399 12.4319 12.1919 12.4319H12.0479C10.7999 12.4319 10.1279 11.7599 10.1279 10.6319Z" fill="black"/>
</svg>
