<svg width="24" height="24" viewBox="0 0 24 24" fill="none" xmlns="http://www.w3.org/2000/svg">
<path d="M12.0718 16.7039C14.3278 16.7039 15.5998 14.8319 15.5758 11.9039C15.5518 9.04788 14.2558 7.34388 12.0718 7.34388C10.3438 7.34388 8.95177 8.66388 8.95177 10.4639C8.95177 12.2159 10.2238 13.5119 11.9278 13.5119C12.9838 13.5119 13.8718 12.9599 14.2318 12.0959H14.3758C14.4478 14.1599 13.8718 15.6239 12.0478 15.6239C10.8718 15.6239 10.2238 15.0479 10.0798 13.8959H8.90377C9.04777 15.5999 10.3438 16.7039 12.0718 16.7039ZM5.75977 21.1199H18.2398V19.9199H5.75977V21.1199ZM5.75977 4.07988H18.2398V2.87988H5.75977V4.07988ZM10.1278 10.6319V10.2239C10.1278 9.09588 10.7998 8.42388 12.0478 8.42388H12.1918C13.4638 8.42388 14.1118 9.16788 14.1118 10.2239V10.6319C14.1118 11.7599 13.4398 12.4319 12.1918 12.4319H12.0478C10.7998 12.4319 10.1278 11.7599 10.1278 10.6319Z" fill="black"/>
</svg>
