<svg width="24" height="24" viewBox="0 0 24 24" fill="none" xmlns="http://www.w3.org/2000/svg">
<path d="M13.3082 16.704C15.5642 16.704 16.8362 14.832 16.8122 11.904C16.7882 9.04801 15.4922 7.34401 13.3082 7.34401C11.5802 7.34401 10.1882 8.664 10.1882 10.464C10.1882 12.216 11.4602 13.512 13.1642 13.512C14.2202 13.512 15.1082 12.984 15.4682 12.096H15.6122C15.6842 14.16 15.1082 15.624 13.2842 15.624C12.1082 15.624 11.4362 15.048 11.3162 13.896H10.1162C10.2842 15.6 11.5802 16.704 13.3082 16.704ZM4.11621 12C4.11621 17.088 8.14821 21.12 13.2362 21.12H19.8842V19.92H13.2362C8.79621 19.92 5.31621 16.44 5.31621 12C5.31621 7.68001 8.79621 4.08 13.2362 4.08H19.8842V2.88H13.2362C8.12421 2.88 4.11621 7.032 4.11621 12ZM11.3642 10.632V10.224C11.3642 9.096 12.0362 8.42401 13.2842 8.42401H13.4282C14.7002 8.42401 15.3482 9.168 15.3482 10.224V10.632C15.3482 11.76 14.6762 12.432 13.4282 12.432H13.2842C12.0362 12.432 11.3642 11.76 11.3642 10.632Z" fill="black"/>
</svg>
