<svg width="24" height="24" viewBox="0 0 24 24" fill="none" xmlns="http://www.w3.org/2000/svg">
<path d="M10.8362 16.7039C13.0922 16.7039 14.3642 14.8319 14.3402 11.9039C14.3162 9.04788 13.0202 7.34388 10.8362 7.34388C9.10821 7.34388 7.71621 8.66388 7.71621 10.4639C7.71621 12.2159 8.98821 13.5119 10.6922 13.5119C11.7482 13.5119 12.6362 12.9599 12.9962 12.0959H13.1402C13.2122 14.1599 12.6362 15.6239 10.8122 15.6239C9.63621 15.6239 8.98821 15.0479 8.84421 13.8959H7.66821C7.81221 15.5999 9.10821 16.7039 10.8362 16.7039ZM4.11621 21.1199H10.7642C15.8762 21.1199 19.8842 16.9679 19.8842 11.9999C19.8842 6.88788 15.8762 2.87988 10.7642 2.87988H4.11621V4.07988H10.7642C15.2042 4.07988 18.6842 7.55988 18.6842 11.9999C18.6842 16.3199 15.2042 19.9199 10.7642 19.9199H4.11621V21.1199ZM8.89221 10.6319V10.2239C8.89221 9.09588 9.56421 8.42388 10.8122 8.42388H10.9562C12.2282 8.42388 12.8762 9.16788 12.8762 10.2239V10.6319C12.8762 11.7599 12.2042 12.4319 10.9562 12.4319H10.8122C9.56421 12.4319 8.89221 11.7599 8.89221 10.6319Z" fill="black"/>
</svg>
