<svg width="24" height="24" viewBox="0 0 24 24" fill="none" xmlns="http://www.w3.org/2000/svg">
<path d="M12.0718 16.704C14.3278 16.704 15.5998 14.832 15.5758 11.904C15.5518 9.04801 14.2558 7.34401 12.0718 7.34401C10.3438 7.34401 8.95177 8.664 8.95177 10.464C8.95177 12.216 10.2238 13.512 11.9278 13.512C12.9838 13.512 13.8718 12.96 14.2318 12.096H14.3758C14.4478 14.16 13.8718 15.624 12.0478 15.624C10.8718 15.624 10.2238 15.048 10.0798 13.896H8.90377C9.04777 15.6 10.3438 16.704 12.0718 16.704ZM5.75977 21.12H18.2398V19.92H5.75977V21.12ZM5.75977 4.08H18.2398V2.88H5.75977V4.08ZM10.1278 10.632V10.224C10.1278 9.096 10.7998 8.42401 12.0478 8.42401H12.1918C13.4638 8.42401 14.1118 9.168 14.1118 10.224V10.632C14.1118 11.76 13.4398 12.432 12.1918 12.432H12.0478C10.7998 12.432 10.1278 11.76 10.1278 10.632Z" fill="black"/>
</svg>
