<svg width="24" height="24" viewBox="0 0 24 24" fill="none" xmlns="http://www.w3.org/2000/svg">
<path d="M13.3082 16.7039C15.5642 16.7039 16.8362 14.8319 16.8122 11.9039C16.7882 9.04788 15.4922 7.34388 13.3082 7.34388C11.5802 7.34388 10.1882 8.66388 10.1882 10.4639C10.1882 12.2159 11.4602 13.5119 13.1642 13.5119C14.2202 13.5119 15.1082 12.9839 15.4682 12.0959H15.6122C15.6842 14.1599 15.1082 15.6239 13.2842 15.6239C12.1082 15.6239 11.4362 15.0479 11.3162 13.8959H10.1162C10.2842 15.5999 11.5802 16.7039 13.3082 16.7039ZM4.11621 11.9999C4.11621 17.0879 8.14821 21.1199 13.2362 21.1199H19.8842V19.9199H13.2362C8.79621 19.9199 5.31621 16.4399 5.31621 11.9999C5.31621 7.67988 8.79621 4.07988 13.2362 4.07988H19.8842V2.87988H13.2362C8.12421 2.87988 4.11621 7.03188 4.11621 11.9999ZM11.3642 10.6319V10.2239C11.3642 9.09588 12.0362 8.42388 13.2842 8.42388H13.4282C14.7002 8.42388 15.3482 9.16788 15.3482 10.2239V10.6319C15.3482 11.7599 14.6762 12.4319 13.4282 12.4319H13.2842C12.0362 12.4319 11.3642 11.7599 11.3642 10.6319Z" fill="black"/>
</svg>
