<svg width="24" height="24" viewBox="0 0 24 24" fill="none" xmlns="http://www.w3.org/2000/svg">
<path d="M12 21.12C17.112 21.12 21.12 16.968 21.12 12C21.12 6.912 17.088 2.88 12 2.88C6.912 2.88 2.88 6.912 2.88 12C2.88 17.088 6.912 21.12 12 21.12ZM4.08 12C4.08 7.56 7.56 4.08 12 4.08C13.992 4.08 15.792 4.776 17.184 5.952L5.952 17.184C4.776 15.792 4.08 13.992 4.08 12ZM6.816 18.048L18.048 6.816C19.224 8.208 19.92 10.008 19.92 12C19.92 16.32 16.44 19.92 12 19.92C10.008 19.92 8.208 19.224 6.816 18.048Z" fill="black"/>
</svg>
