<svg width="24" height="24" viewBox="0 0 24 24" fill="none" xmlns="http://www.w3.org/2000/svg">
<path d="M11.9999 21.1199C17.1119 21.1199 21.1199 16.9679 21.1199 11.9999C21.1199 6.91188 17.0879 2.87988 11.9999 2.87988C6.91188 2.87988 2.87988 6.91188 2.87988 11.9999C2.87988 17.0879 6.91188 21.1199 11.9999 21.1199ZM4.07988 11.9999C4.07988 7.55988 7.55988 4.07988 11.9999 4.07988C13.9919 4.07988 15.7919 4.77588 17.1839 5.95188L5.95188 17.1839C4.77588 15.7919 4.07988 13.9919 4.07988 11.9999ZM6.81588 18.0479L18.0479 6.81588C19.2239 8.20788 19.9199 10.0079 19.9199 11.9999C19.9199 16.3199 16.4399 19.9199 11.9999 19.9199C10.0079 19.9199 8.20788 19.2239 6.81588 18.0479Z" fill="black"/>
</svg>
