<svg width="24" height="24" viewBox="0 0 24 24" fill="none" xmlns="http://www.w3.org/2000/svg">
<path d="M18.0119 21.3721L21.3719 17.9161L15.9959 13.0921L11.7479 17.2441C10.8119 16.5721 9.89993 15.8041 9.05993 14.9401C8.21993 14.1001 7.42793 13.1881 6.75593 12.2521L10.9079 8.00405L6.08393 2.62805L2.62793 5.98805C3.34793 9.56405 5.48393 13.0441 8.21993 15.7801C10.9799 18.5401 14.4119 20.6761 18.0119 21.3721ZM3.94793 6.37205L6.03593 4.35605L9.27593 7.95605L6.05993 11.2201C5.09993 9.70805 4.35593 8.07605 3.94793 6.37205ZM12.7799 17.9401L16.0439 14.7241L19.6439 17.9641L17.6279 20.0521C15.9239 19.6441 14.2919 18.9241 12.7799 17.9401Z" fill="black"/>
</svg>
