<svg width="24" height="24" viewBox="0 0 24 24" fill="none" xmlns="http://www.w3.org/2000/svg">
<path d="M9.84 21.876L12.6 19.236L11.496 16.02L14.136 13.38L18.072 20.892L20.232 18.516L18.192 9.34802L21.168 6.34802C21.624 5.91602 21.864 5.29202 21.864 4.62002C21.864 3.18002 20.736 2.12402 19.368 2.12402C18.648 2.12402 18.048 2.43602 17.424 3.06002L14.664 5.79602L5.448 3.70802L3.144 5.96402L10.608 9.85202L7.992 12.492L4.776 11.46L2.136 14.148L7.152 16.908L9.84 21.876ZM4.008 13.884L5.088 12.756L8.304 13.764L12.528 9.56402L5.064 5.67602L5.808 4.95602L15.024 7.04402L18.24 3.87602C18.672 3.44402 18.984 3.25202 19.368 3.25202C20.112 3.25202 20.736 3.80402 20.736 4.62002C20.736 4.98002 20.616 5.31602 20.376 5.53202L16.944 8.96402L19.008 18.18L18.336 18.924L14.424 11.484L10.2 15.708L11.304 18.924L10.128 20.004L8.016 16.068L4.008 13.884Z" fill="black"/>
</svg>
