<svg width="24" height="24" viewBox="0 0 24 24" fill="none" xmlns="http://www.w3.org/2000/svg">
<path d="M13.5841 9.7559H19.9921V3.3479H13.5841V9.7559ZM2.64014 12.8999H21.3601V11.7479H2.64014V12.8999ZM4.00814 20.6519H10.4161V14.8439H9.38414V19.5959H5.06414V14.8439H4.00814V20.6519ZM4.00814 9.7559H10.4161V3.3479H4.00814V9.7559ZM5.06414 8.6999V4.3799H9.38414V8.6999H5.06414ZM6.48014 18.1559H7.96814V16.6679H6.48014V18.1559ZM6.48014 7.3079H7.96814V5.7959H6.48014V7.3079ZM13.5841 20.6279H15.0481V19.1639H13.5841V20.6279ZM13.5841 16.2839H16.4881V14.8439H13.5841V16.2839ZM14.6401 8.6999V4.3799H18.9601V8.6999H14.6401ZM15.0481 19.1639H17.9281V16.2839H16.4881V17.7239H15.0481V19.1639ZM16.0321 7.3079H17.5201V5.7959H16.0321V7.3079ZM18.2161 20.6279H19.9921V17.7239H18.2161V20.6279Z" fill="black"/>
</svg>
