<svg width="24" height="24" viewBox="0 0 24 24" fill="none" xmlns="http://www.w3.org/2000/svg">
<path d="M13.584 9.75602H19.992V3.34802H13.584V9.75602ZM2.64001 12.9H21.36V11.748H2.64001V12.9ZM4.00801 20.652H10.416V14.844H9.38402V19.596H5.06401V14.844H4.00801V20.652ZM4.00801 9.75602H10.416V3.34802H4.00801V9.75602ZM5.06401 8.70002V4.38002H9.38402V8.70002H5.06401ZM6.48001 18.156H7.96802V16.668H6.48001V18.156ZM6.48001 7.30802H7.96802V5.79602H6.48001V7.30802ZM13.584 20.628H15.048V19.164H13.584V20.628ZM13.584 16.284H16.488V14.844H13.584V16.284ZM14.64 8.70002V4.38002H18.96V8.70002H14.64ZM15.048 19.164H17.928V16.284H16.488V17.724H15.048V19.164ZM16.032 7.30802H17.52V5.79602H16.032V7.30802ZM18.216 20.628H19.992V17.724H18.216V20.628Z" fill="black"/>
</svg>
