<svg width="24" height="24" viewBox="0 0 24 24" fill="none" xmlns="http://www.w3.org/2000/svg">
<path d="M2.63999 8.18395V12H3.79199V8.18395C3.79199 7.43995 4.53599 6.67195 5.30399 6.67195H20.28C19.752 7.17595 19.2 7.70395 18.696 8.20795L17.232 9.69595L17.976 10.44L22.32 6.09595L17.976 1.75195L17.232 2.51995L18.696 3.98395C19.2 4.48795 19.728 5.01595 20.256 5.51995H5.30399C3.98399 5.51995 2.63999 6.91195 2.63999 8.18395ZM1.67999 17.904L6.02399 22.248L6.79199 21.48L5.32799 20.016C4.82399 19.512 4.27199 18.984 3.74399 18.48H18.696C20.04 18.48 21.36 17.088 21.36 15.816V12H20.208V15.816C20.208 16.536 19.464 17.328 18.696 17.328H3.71999C4.27199 16.8 4.79999 16.296 5.32799 15.768L6.79199 14.304L6.02399 13.536L1.67999 17.904Z" fill="black"/>
</svg>
