<svg width="24" height="24" viewBox="0 0 24 24" fill="none" xmlns="http://www.w3.org/2000/svg">
<path d="M2.87988 11.8559V12.4559H4.07988V11.8559C4.07988 7.51189 7.58388 4.07989 11.9759 4.07989C14.7599 4.07989 17.2079 5.54389 18.6239 7.72789C17.9039 7.70389 17.1119 7.70389 16.3679 7.70389H14.2799V8.78389H20.4239V2.63989H19.3439V4.72789C19.3439 5.39989 19.3439 6.14389 19.3679 6.86389C17.6159 4.31989 14.8559 2.87989 11.9759 2.87989C6.93588 2.87989 2.87988 6.86389 2.87988 11.8559ZM3.59988 21.3599H4.67988V19.2719C4.67988 18.5759 4.67988 17.8559 4.65588 17.1119C6.40788 19.6559 9.16788 21.1199 12.0239 21.1199C17.0879 21.1199 21.1199 17.1359 21.1199 12.1199V11.5199H19.9199V12.1199C19.9199 16.4639 16.4159 19.9199 12.0239 19.9199C9.26388 19.9199 6.81588 18.4559 5.39988 16.2479C6.11988 16.2719 6.91188 16.2959 7.65588 16.2959H9.74388V15.2159H3.59988V21.3599Z" fill="black"/>
</svg>
