<svg width="24" height="24" viewBox="0 0 24 24" fill="none" xmlns="http://www.w3.org/2000/svg">
<path d="M2.88 11.856V12.456H4.08V11.856C4.08 7.51202 7.584 4.08001 11.976 4.08001C14.76 4.08001 17.208 5.54401 18.624 7.72802C17.904 7.70402 17.112 7.70402 16.368 7.70402H14.28V8.78402H20.424V2.64001H19.344V4.72801C19.344 5.40001 19.344 6.14401 19.368 6.86402C17.616 4.32001 14.856 2.88001 11.976 2.88001C6.936 2.88001 2.88 6.86402 2.88 11.856ZM3.6 21.36H4.68V19.272C4.68 18.576 4.68 17.856 4.656 17.112C6.408 19.656 9.168 21.12 12.024 21.12C17.088 21.12 21.12 17.136 21.12 12.12V11.52H19.92V12.12C19.92 16.464 16.416 19.92 12.024 19.92C9.264 19.92 6.816 18.456 5.4 16.248C6.12 16.272 6.912 16.296 7.656 16.296H9.744V15.216H3.6V21.36Z" fill="black"/>
</svg>
