<svg width="24" height="24" viewBox="0 0 24 24" fill="none" xmlns="http://www.w3.org/2000/svg">
<path d="M15.3 16.188L21.036 21.948L21.948 21.036L16.188 15.3C17.412 13.908 18.132 12.084 18.132 10.092C18.132 5.676 14.508 2.052 10.092 2.052C5.676 2.052 2.052 5.676 2.052 10.092C2.052 14.508 5.676 18.132 10.092 18.132C12.084 18.132 13.908 17.412 15.3 16.188ZM3.252 10.092C3.252 6.324 6.324 3.252 10.092 3.252C13.86 3.252 16.932 6.324 16.932 10.092C16.932 13.86 13.86 16.932 10.092 16.932C6.324 16.932 3.252 13.86 3.252 10.092Z" fill="black"/>
</svg>
