<svg width="24" height="24" viewBox="0 0 24 24" fill="none" xmlns="http://www.w3.org/2000/svg">
<path d="M15.3 16.188L21.036 21.948L21.948 21.036L16.188 15.3C17.412 13.908 18.132 12.084 18.132 10.092C18.132 5.676 14.508 2.052 10.092 2.052C5.676 2.052 2.052 5.676 2.052 10.092C2.052 14.508 5.676 18.132 10.092 18.132C12.084 18.132 13.908 17.412 15.3 16.188ZM3.252 10.092C3.252 6.324 6.324 3.252 10.092 3.252C13.86 3.252 16.932 6.324 16.932 10.092C16.932 13.86 13.86 16.932 10.092 16.932C6.324 16.932 3.252 13.86 3.252 10.092ZM7.164 11.148C7.14 12.66 8.172 13.716 9.684 13.884V14.82H10.524V13.884C11.988 13.74 13.02 12.804 13.02 11.58C13.02 10.428 12.18 9.756 10.884 9.564L9.636 9.42C8.772 9.3 8.388 8.988 8.388 8.316C8.388 7.452 9.036 7.044 10.14 7.044C11.34 7.044 11.844 7.524 11.844 8.676H12.876C12.876 7.308 11.916 6.3 10.524 6.156V5.22H9.684V6.156C8.364 6.324 7.428 7.188 7.428 8.364C7.428 9.468 8.148 10.14 9.372 10.284L10.596 10.428C11.556 10.548 11.988 10.884 11.988 11.628C11.988 12.54 11.364 12.996 10.116 12.996C8.772 12.996 8.172 12.444 8.148 11.148H7.164Z" fill="black"/>
</svg>
