<svg width="24" height="24" viewBox="0 0 24 24" fill="none" xmlns="http://www.w3.org/2000/svg">
<path d="M11.9999 21.1199C17.1119 21.1199 21.1199 16.9679 21.1199 11.9999C21.1199 6.91188 17.0879 2.87988 11.9999 2.87988C6.91188 2.87988 2.87988 6.91188 2.87988 11.9999C2.87988 17.0879 6.91188 21.1199 11.9999 21.1199ZM4.07988 11.9999C4.07988 7.55988 7.55988 4.07988 11.9999 4.07988C16.4399 4.07988 19.9199 7.55988 19.9199 11.9999C19.9199 16.3199 16.4399 19.9199 11.9999 19.9199C7.55988 19.9199 4.07988 16.4399 4.07988 11.9999ZM8.71188 8.63988H13.8959V8.97588C11.8799 11.0879 10.7279 13.5839 10.3919 16.4399H11.7599C12.0719 13.2959 13.2479 10.7519 15.2879 8.85588V7.58388H8.71188V8.63988Z" fill="black"/>
</svg>
