<svg width="24" height="24" viewBox="0 0 24 24" fill="none" xmlns="http://www.w3.org/2000/svg">
<path d="M12.0001 21.84C18.2401 19.368 21.3601 15.432 21.3601 10.128V5.08803C18.6961 3.16803 15.4561 2.16003 12.0001 2.16003C8.54414 2.16003 5.30414 3.16803 2.64014 5.08803V10.128C2.64014 15.432 5.76014 19.368 12.0001 21.84ZM3.84014 10.128V5.66403C6.24014 4.08003 8.95214 3.28803 12.0001 3.28803C15.0481 3.28803 17.7601 4.08003 20.1601 5.66403V10.128C20.1601 14.928 17.6161 18.264 12.0001 20.592C6.38414 18.264 3.84014 14.928 3.84014 10.128ZM8.04014 11.184L11.2801 14.448L16.8481 8.88003L16.0081 8.04003L11.2801 12.744L8.88014 10.344L8.04014 11.184Z" fill="black"/>
</svg>
