<svg width="24" height="24" viewBox="0 0 24 24" fill="none" xmlns="http://www.w3.org/2000/svg">
<path d="M12.0001 21.8399C18.2401 19.3679 21.3601 15.4319 21.3601 10.1279V5.08791C18.6961 3.16791 15.4561 2.15991 12.0001 2.15991C8.54414 2.15991 5.30414 3.16791 2.64014 5.08791V10.1279C2.64014 15.4319 5.76014 19.3679 12.0001 21.8399ZM3.84014 10.1279V5.66391C6.24014 4.07991 8.95214 3.28791 12.0001 3.28791C15.0481 3.28791 17.7601 4.07991 20.1601 5.66391V10.1279C20.1601 14.9279 17.6161 18.2639 12.0001 20.5919C6.38414 18.2639 3.84014 14.9279 3.84014 10.1279ZM8.04014 11.1839L11.2801 14.4479L16.8481 8.87991L16.0081 8.03991L11.2801 12.7439L8.88014 10.3439L8.04014 11.1839Z" fill="black"/>
</svg>
