<svg width="24" height="24" viewBox="0 0 24 24" fill="none" xmlns="http://www.w3.org/2000/svg">
<path d="M18.8759 16.9679V15.8399H8.79595L8.36395 13.7039H19.8839L21.8519 4.8239L6.61195 4.7999L6.25195 2.9519H2.14795V4.1039H5.24395L7.78795 16.9679H18.8759ZM6.82795 5.9519H20.3639L18.9239 12.5759H8.14795L6.82795 5.9519ZM7.25995 19.6799C7.25995 20.4239 7.85995 21.0479 8.60395 21.0479C9.34795 21.0479 9.94795 20.4239 9.94795 19.6799C9.94795 18.9599 9.34795 18.3359 8.60395 18.3359C7.85995 18.3359 7.25995 18.9599 7.25995 19.6799ZM16.5959 19.6799C16.5959 20.4239 17.1959 21.0479 17.9399 21.0479C18.6839 21.0479 19.2839 20.4239 19.2839 19.6799C19.2839 18.9599 18.6839 18.3359 17.9399 18.3359C17.1959 18.3359 16.5959 18.9599 16.5959 19.6799Z" fill="black"/>
</svg>
