<svg width="24" height="24" viewBox="0 0 24 24" fill="none" xmlns="http://www.w3.org/2000/svg">
<path d="M3.83984 20.772H20.1598V9.25203H16.7998V8.07603C16.7998 6.80403 16.5118 5.84403 15.9118 5.07603C14.9998 3.90003 13.5358 3.22803 11.9998 3.22803C10.4878 3.22803 8.99984 3.90003 8.11184 5.07603C7.51184 5.84403 7.19984 6.82803 7.19984 8.07603V9.25203H3.83984V20.772ZM5.03984 19.62V10.38H7.19984V12.972H8.39984V10.38H15.5998V12.972H16.7998V10.38H18.9598V19.62H5.03984ZM8.39984 9.25203V7.57203C8.39984 5.62803 9.64784 4.40403 11.6638 4.40403H12.3358C14.3518 4.40403 15.5998 5.62803 15.5998 7.57203V9.25203H8.39984Z" fill="black"/>
</svg>
