<svg width="24" height="24" viewBox="0 0 24 24" fill="none" xmlns="http://www.w3.org/2000/svg">
<path d="M3.83997 20.772H20.16V9.25203H16.8V8.07603C16.8 6.80403 16.512 5.84403 15.912 5.07603C15 3.90003 13.536 3.22803 12 3.22803C10.488 3.22803 8.99997 3.90003 8.11197 5.07603C7.51197 5.84403 7.19997 6.82803 7.19997 8.07603V9.25203H3.83997V20.772ZM5.03997 19.62V10.38H7.19997V12.972H8.39997V10.38H15.6V12.972H16.8V10.38H18.96V19.62H5.03997ZM8.39997 9.25203V7.57203C8.39997 5.62803 9.64797 4.40403 11.664 4.40403H12.336C14.352 4.40403 15.6 5.62803 15.6 7.57203V9.25203H8.39997Z" fill="black"/>
</svg>
