<svg width="24" height="24" viewBox="0 0 24 24" fill="none" xmlns="http://www.w3.org/2000/svg">
<path d="M13.2122 16.704C15.0602 16.704 16.3562 15.384 16.3562 13.608C16.3562 11.832 15.0602 10.512 13.3562 10.512C12.3002 10.512 11.4122 11.064 11.0522 11.928H10.8842C10.8602 9.912 11.3642 8.4 13.2362 8.4C14.3642 8.4 15.0602 8.952 15.2042 10.008H16.3322C16.0922 8.376 14.9402 7.34401 13.2602 7.34401C10.9802 7.34401 9.68421 9.216 9.70821 12.144C9.73221 15 11.0282 16.704 13.2122 16.704ZM4.11621 12C4.11621 17.088 8.14821 21.12 13.2362 21.12H19.8842V19.92H13.2362C8.79621 19.92 5.31621 16.44 5.31621 12C5.31621 7.68001 8.79621 4.08 13.2362 4.08H19.8842V2.88H13.2362C8.12421 2.88 4.11621 7.032 4.11621 12ZM11.1482 13.776V13.368C11.1482 12.24 11.8202 11.544 13.1162 11.544H13.2602C14.5082 11.544 15.2042 12.216 15.2042 13.368V13.776C15.2042 14.928 14.5082 15.6 13.2602 15.6H13.1162C11.8202 15.6 11.1482 14.856 11.1482 13.776Z" fill="black"/>
</svg>
