<svg width="24" height="24" viewBox="0 0 24 24" fill="none" xmlns="http://www.w3.org/2000/svg">
<path d="M10.7402 16.704C12.5882 16.704 13.8842 15.384 13.8842 13.608C13.8842 11.832 12.5882 10.512 10.8842 10.512C9.82821 10.512 8.96421 11.064 8.58021 11.928H8.41221C8.38821 9.912 8.91621 8.4 10.7642 8.4C11.8922 8.4 12.5882 8.928 12.7562 9.984H13.8602C13.6442 8.376 12.4682 7.34401 10.7882 7.34401C8.50821 7.34401 7.21221 9.216 7.23621 12.144C7.26021 15 8.55621 16.704 10.7402 16.704ZM4.11621 21.12H10.7642C15.8762 21.12 19.8842 16.968 19.8842 12C19.8842 6.888 15.8762 2.88 10.7642 2.88H4.11621V4.08H10.7642C15.2042 4.08 18.6842 7.56 18.6842 12C18.6842 16.32 15.2042 19.92 10.7642 19.92H4.11621V21.12ZM8.67621 13.776V13.368C8.67621 12.24 9.34821 11.544 10.6442 11.544H10.7882C12.0362 11.544 12.7322 12.216 12.7322 13.368V13.776C12.7322 14.928 12.0362 15.6 10.7882 15.6H10.6442C9.34821 15.6 8.67621 14.856 8.67621 13.776Z" fill="black"/>
</svg>
