<svg width="24" height="24" viewBox="0 0 24 24" fill="none" xmlns="http://www.w3.org/2000/svg">
<path d="M11.9758 16.704C13.8238 16.704 15.1198 15.384 15.1198 13.608C15.1198 11.832 13.8238 10.512 12.1198 10.512C11.0638 10.512 10.1998 11.064 9.81577 11.928H9.64777C9.62377 9.912 10.1518 8.4 11.9998 8.4C13.1278 8.4 13.8238 8.928 13.9918 9.984H15.0958C14.8798 8.376 13.7038 7.34401 12.0238 7.34401C9.74377 7.34401 8.44777 9.216 8.47177 12.144C8.49577 15 9.79177 16.704 11.9758 16.704ZM5.75977 21.12H18.2398V19.92H5.75977V21.12ZM5.75977 4.08H18.2398V2.88H5.75977V4.08ZM9.91177 13.776V13.368C9.91177 12.24 10.5838 11.544 11.8798 11.544H12.0238C13.2718 11.544 13.9678 12.216 13.9678 13.368V13.776C13.9678 14.928 13.2718 15.6 12.0238 15.6H11.8798C10.5838 15.6 9.91177 14.856 9.91177 13.776Z" fill="black"/>
</svg>
