<svg width="24" height="24" viewBox="0 0 24 24" fill="none" xmlns="http://www.w3.org/2000/svg">
<path d="M10.7402 16.7039C12.5882 16.7039 13.8842 15.3839 13.8842 13.6079C13.8842 11.8319 12.5882 10.5119 10.8842 10.5119C9.82821 10.5119 8.96421 11.0639 8.58021 11.9279H8.41221C8.38821 9.91188 8.91621 8.39988 10.7642 8.39988C11.8922 8.39988 12.5882 8.92788 12.7562 9.98388H13.8602C13.6442 8.37588 12.4682 7.34388 10.7882 7.34388C8.50821 7.34388 7.21221 9.21588 7.23621 12.1439C7.26021 14.9999 8.55621 16.7039 10.7402 16.7039ZM4.11621 21.1199H10.7642C15.8762 21.1199 19.8842 16.9679 19.8842 11.9999C19.8842 6.88788 15.8762 2.87988 10.7642 2.87988H4.11621V4.07988H10.7642C15.2042 4.07988 18.6842 7.55988 18.6842 11.9999C18.6842 16.3199 15.2042 19.9199 10.7642 19.9199H4.11621V21.1199ZM8.67621 13.7759V13.3679C8.67621 12.2399 9.34821 11.5439 10.6442 11.5439H10.7882C12.0362 11.5439 12.7322 12.2159 12.7322 13.3679V13.7759C12.7322 14.9279 12.0362 15.5999 10.7882 15.5999H10.6442C9.34821 15.5999 8.67621 14.8559 8.67621 13.7759Z" fill="black"/>
</svg>
