<svg width="24" height="24" viewBox="0 0 24 24" fill="none" xmlns="http://www.w3.org/2000/svg">
<path d="M11.9758 16.7039C13.8238 16.7039 15.1198 15.3839 15.1198 13.6079C15.1198 11.8319 13.8238 10.5119 12.1198 10.5119C11.0638 10.5119 10.1998 11.0639 9.81577 11.9279H9.64777C9.62377 9.91188 10.1518 8.39988 11.9998 8.39988C13.1278 8.39988 13.8238 8.92788 13.9918 9.98388H15.0958C14.8798 8.37588 13.7038 7.34388 12.0238 7.34388C9.74377 7.34388 8.44777 9.21588 8.47177 12.1439C8.49577 14.9999 9.79177 16.7039 11.9758 16.7039ZM5.75977 21.1199H18.2398V19.9199H5.75977V21.1199ZM5.75977 4.07988H18.2398V2.87988H5.75977V4.07988ZM9.91177 13.7759V13.3679C9.91177 12.2399 10.5838 11.5439 11.8798 11.5439H12.0238C13.2718 11.5439 13.9678 12.2159 13.9678 13.3679V13.7759C13.9678 14.9279 13.2718 15.5999 12.0238 15.5999H11.8798C10.5838 15.5999 9.91177 14.8559 9.91177 13.7759Z" fill="black"/>
</svg>
