<svg width="24" height="24" viewBox="0 0 24 24" fill="none" xmlns="http://www.w3.org/2000/svg">
<path d="M11.9999 21.1199C17.1119 21.1199 21.1199 16.9679 21.1199 11.9999C21.1199 6.91188 17.0879 2.87988 11.9999 2.87988C6.91188 2.87988 2.87988 6.91188 2.87988 11.9999C2.87988 17.0879 6.91188 21.1199 11.9999 21.1199ZM4.07988 11.9999C4.07988 7.55988 7.55988 4.07988 11.9999 4.07988C16.4399 4.07988 19.9199 7.55988 19.9199 11.9999C19.9199 16.3199 16.4399 19.9199 11.9999 19.9199C7.55988 19.9199 4.07988 16.4399 4.07988 11.9999ZM8.47188 12.1439C8.49588 14.9999 9.79188 16.7039 11.9759 16.7039C13.8239 16.7039 15.1199 15.3839 15.1199 13.6079C15.1199 11.8319 13.8239 10.5119 12.1199 10.5119C11.0639 10.5119 10.1759 11.0639 9.81588 11.9279H9.64788C9.62388 9.91188 10.1279 8.39988 11.9999 8.39988C13.1279 8.39988 13.8239 8.95188 13.9679 10.0079H15.0959C14.8559 8.37588 13.7039 7.34388 12.0239 7.34388C9.74388 7.34388 8.44788 9.21588 8.47188 12.1439ZM9.91188 13.7759V13.3679C9.91188 12.2399 10.5839 11.5439 11.8799 11.5439H12.0239C13.2719 11.5439 13.9679 12.2159 13.9679 13.3679V13.7759C13.9679 14.9279 13.2719 15.5999 12.0239 15.5999H11.8799C10.5839 15.5999 9.91188 14.8559 9.91188 13.7759Z" fill="black"/>
</svg>
