<svg width="24" height="24" viewBox="0 0 24 24" fill="none" xmlns="http://www.w3.org/2000/svg">
<path d="M13.2122 16.7039C15.0602 16.7039 16.3562 15.3839 16.3562 13.6079C16.3562 11.8319 15.0602 10.5119 13.3562 10.5119C12.3002 10.5119 11.4122 11.0639 11.0522 11.9279H10.8842C10.8602 9.91188 11.3642 8.39988 13.2362 8.39988C14.3642 8.39988 15.0602 8.95188 15.2042 10.0079H16.3322C16.0922 8.37588 14.9402 7.34388 13.2602 7.34388C10.9802 7.34388 9.68421 9.21588 9.70821 12.1439C9.73221 14.9999 11.0282 16.7039 13.2122 16.7039ZM4.11621 11.9999C4.11621 17.0879 8.14821 21.1199 13.2362 21.1199H19.8842V19.9199H13.2362C8.79621 19.9199 5.31621 16.4399 5.31621 11.9999C5.31621 7.67988 8.79621 4.07988 13.2362 4.07988H19.8842V2.87988H13.2362C8.12421 2.87988 4.11621 7.03188 4.11621 11.9999ZM11.1482 13.7759V13.3679C11.1482 12.2399 11.8202 11.5439 13.1162 11.5439H13.2602C14.5082 11.5439 15.2042 12.2159 15.2042 13.3679V13.7759C15.2042 14.9279 14.5082 15.5999 13.2602 15.5999H13.1162C11.8202 15.5999 11.1482 14.8559 11.1482 13.7759Z" fill="black"/>
</svg>
