<svg width="24" height="24" viewBox="0 0 24 24" fill="none" xmlns="http://www.w3.org/2000/svg">
<path d="M12.3121 6.98389L7.9441 2.63989L3.6001 6.98389L4.3681 7.72789L5.8321 6.26389C6.3361 5.75989 6.8641 5.23189 7.3681 4.70389V20.3999H8.5201V4.67989C9.0481 5.20789 9.5521 5.75989 10.0801 6.26389L11.5441 7.72789L12.3121 6.98389ZM11.7121 17.0159L16.0561 21.3599L20.4001 17.0159L19.6321 16.2479L18.1681 17.7119C17.6641 18.2159 17.1361 18.7679 16.6321 19.2959V3.59989H15.4801V19.3199C14.9761 18.7679 14.4481 18.2399 13.9441 17.7119L12.4561 16.2479L11.7121 17.0159Z" fill="black"/>
</svg>
