<svg width="24" height="24" viewBox="0 0 24 24" fill="none" xmlns="http://www.w3.org/2000/svg">
<path d="M12 21.0241C17.088 21.0241 21 19.3921 21 16.7761V7.17607C21 4.58407 17.232 2.97607 12 2.97607C6.936 2.97607 3 4.58407 3 7.17607V16.7761C3 19.3921 6.84 21.0241 12 21.0241ZM4.2 16.7761V14.1601C5.592 15.4561 8.472 16.2481 12 16.2481C15.48 16.2481 18.384 15.4561 19.8 14.1361V16.7761C19.8 18.5761 16.752 19.8721 12 19.8721C7.176 19.8721 4.2 18.5761 4.2 16.7761ZM4.2 12.0481V9.28807C5.592 10.5841 8.472 11.3761 12 11.3761C15.48 11.3761 18.384 10.5841 19.8 9.28807V12.0481C19.8 13.7521 16.728 15.0961 12 15.0961C7.2 15.0961 4.2 13.7761 4.2 12.0481ZM4.2 7.17607C4.2 5.40007 7.272 4.12807 12 4.12807C16.896 4.12807 19.8 5.40007 19.8 7.17607C19.8 8.90407 16.728 10.2241 12 10.2241C7.2 10.2241 4.2 8.92807 4.2 7.17607Z" fill="black"/>
</svg>
