<svg width="24" height="24" viewBox="0 0 24 24" fill="none" xmlns="http://www.w3.org/2000/svg">
<path d="M10.6322 21.1199H13.3922C14.0882 21.1199 14.6642 20.6399 14.6882 19.8239C16.6562 19.0319 18.0722 17.2799 18.4562 15.1919H18.8882C20.5682 15.1919 21.8402 13.8959 21.8402 12.2399V11.2799C21.8402 9.59988 20.5682 8.32788 18.8882 8.32788H18.4562C17.9522 5.25588 15.2642 2.87988 12.0002 2.87988C8.73616 2.87988 6.04816 5.25588 5.54416 8.32788H5.11216C3.45616 8.32788 2.16016 9.59988 2.16016 11.2799V12.2399C2.16016 13.8959 3.45616 15.1919 5.11216 15.1919H6.64816V9.43188C6.64816 6.45588 9.02416 4.00788 12.0002 4.00788C14.9762 4.00788 17.3762 6.45588 17.3762 9.43188V14.0399C17.3762 15.9839 16.2722 17.6879 14.6642 18.5279C14.6162 17.8319 14.0642 17.3519 13.3922 17.3519H10.6322C9.86416 17.3519 9.31216 17.9039 9.31216 18.6719V19.7999C9.31216 20.5679 9.86416 21.1199 10.6322 21.1199ZM3.24016 12.2399V11.2799C3.24016 10.0559 3.88816 9.40788 5.11216 9.40788H5.44816V14.1119H5.11216C3.88816 14.1119 3.24016 13.4639 3.24016 12.2399ZM10.3202 19.7279V18.7439C10.3202 18.5039 10.4402 18.3599 10.7042 18.3599H13.3202C13.5602 18.3599 13.6802 18.5039 13.6802 18.7439V19.7279C13.6802 19.9679 13.5602 20.0879 13.3202 20.0879H10.7042C10.4402 20.0879 10.3202 19.9679 10.3202 19.7279ZM18.5762 14.1119V9.40788H18.8882C20.1122 9.40788 20.7602 10.0559 20.7602 11.2799V12.2399C20.7602 13.4639 20.1122 14.1119 18.8882 14.1119H18.5762Z" fill="black"/>
</svg>
