<svg width="24" height="24" viewBox="0 0 24 24" fill="none" xmlns="http://www.w3.org/2000/svg">
<path d="M4.1638 19.8599H19.8118C21.0358 18.2759 21.8038 16.2119 21.8038 14.0039C21.8038 9.29989 18.4678 5.33989 14.0278 4.42789V5.65189C17.7958 6.56389 20.6038 9.97189 20.6038 14.0039C20.6038 15.7079 20.0758 17.3159 19.2118 18.6599H4.7878C3.8998 17.3159 3.3958 15.7079 3.3958 14.0039C3.3958 9.97189 6.1798 6.56389 9.9478 5.65189V4.42789C5.5318 5.33989 2.1958 9.29989 2.1958 14.0039C2.1958 16.1879 2.9398 18.2519 4.1638 19.8599ZM11.3878 14.0039C11.3878 14.3399 11.6518 14.6039 11.9878 14.6039C12.3238 14.6039 12.5878 14.3399 12.5878 14.0039V4.13989H11.3878V14.0039Z" fill="black"/>
</svg>
