<svg width="24" height="24" viewBox="0 0 24 24" fill="none" xmlns="http://www.w3.org/2000/svg">
<path d="M4.15208 19.8361H19.7761C20.5681 18.8521 21.2641 17.4121 21.5521 16.0201H20.3281C20.1121 16.9561 19.7041 17.8681 19.2001 18.6361H4.77608C3.88808 17.2921 3.38408 15.6841 3.38408 13.9801C3.38408 9.22806 7.22408 5.36406 11.9761 5.36406C16.0321 5.36406 19.4161 8.17206 20.3281 11.9401H21.5521C20.6401 7.50006 16.7041 4.16406 11.9761 4.16406C6.57608 4.16406 2.18408 8.58006 2.18408 13.9801C2.18408 16.1641 2.92808 18.2281 4.15208 19.8361ZM11.3761 13.9801C11.3761 14.3161 11.6401 14.5801 11.9761 14.5801H21.8161V13.3801H11.9761C11.6401 13.3801 11.3761 13.6441 11.3761 13.9801Z" fill="black"/>
</svg>
