<svg width="24" height="24" viewBox="0 0 24 24" fill="none" xmlns="http://www.w3.org/2000/svg">
<path d="M4.16398 19.8359H19.812C21.036 18.2519 21.804 16.1879 21.804 13.9799C21.804 12.0119 21.228 10.1639 20.22 8.62794L19.332 9.51594C20.148 10.8119 20.604 12.3479 20.604 13.9799C20.604 15.6839 20.076 17.2919 19.212 18.6359H4.78798C3.89998 17.2919 3.39598 15.6839 3.39598 13.9799C3.39598 9.22794 7.23598 5.36394 11.988 5.36394C13.62 5.36394 15.156 5.81994 16.452 6.63594L17.34 5.74794C15.804 4.73994 13.956 4.16394 11.988 4.16394C6.58798 4.16394 2.19598 8.57994 2.19598 13.9799C2.19598 16.1639 2.93998 18.2279 4.16398 19.8359ZM11.388 13.9799C11.388 14.3159 11.652 14.5799 11.988 14.5799C12.156 14.5799 12.3 14.5079 12.42 14.4119L19.38 7.45194L18.516 6.58794L11.556 13.5479C11.46 13.6679 11.388 13.8119 11.388 13.9799Z" fill="black"/>
</svg>
