<svg width="24" height="24" viewBox="0 0 24 24" fill="none" xmlns="http://www.w3.org/2000/svg">
<path d="M4.17602 19.8359H19.824C21.048 18.2279 21.816 16.1639 21.816 13.9799C21.816 8.55594 17.424 4.16394 12 4.16394C10.032 4.16394 8.20802 4.73994 6.67202 5.74794L7.56002 6.63594C8.83202 5.81994 10.368 5.36394 12 5.36394C16.752 5.36394 20.616 9.22794 20.616 13.9799C20.616 15.6839 20.088 17.2919 19.224 18.6359H4.80002C3.91202 17.2919 3.38402 15.6839 3.38402 13.9799C3.38402 12.3479 3.86402 10.8119 4.65602 9.51594L3.79202 8.62794C2.78402 10.1639 2.18402 12.0119 2.18402 13.9799C2.18402 16.1639 2.95202 18.2279 4.17602 19.8359ZM4.63202 7.42794L11.592 14.3879C11.688 14.5079 11.832 14.5799 12 14.5799C12.336 14.5799 12.6 14.3159 12.6 13.9799C12.6 13.8119 12.552 13.6679 12.432 13.5479L5.47202 6.58794L4.63202 7.42794Z" fill="black"/>
</svg>
