<svg width="24" height="24" viewBox="0 0 24 24" fill="none" xmlns="http://www.w3.org/2000/svg">
<path d="M4.17608 19.8361H19.8241C21.0481 18.2281 21.8161 16.1641 21.8161 13.9801C21.8161 8.55606 17.4241 4.16406 12.0001 4.16406C10.0321 4.16406 8.20808 4.74006 6.67208 5.74806L7.56008 6.63606C8.83208 5.82006 10.3681 5.36406 12.0001 5.36406C16.7521 5.36406 20.6161 9.22806 20.6161 13.9801C20.6161 15.6841 20.0881 17.2921 19.2241 18.6361H4.80008C3.91208 17.2921 3.38408 15.6841 3.38408 13.9801C3.38408 12.3481 3.86408 10.8121 4.65608 9.51606L3.79208 8.62806C2.78408 10.1641 2.18408 12.0121 2.18408 13.9801C2.18408 16.1641 2.95208 18.2281 4.17608 19.8361ZM4.63208 7.42806L11.5921 14.3881C11.6881 14.5081 11.8321 14.5801 12.0001 14.5801C12.3361 14.5801 12.6001 14.3161 12.6001 13.9801C12.6001 13.8121 12.5521 13.6681 12.4321 13.5481L5.47208 6.58806L4.63208 7.42806Z" fill="black"/>
</svg>
