<svg width="24" height="24" viewBox="0 0 24 24" fill="none" xmlns="http://www.w3.org/2000/svg">
<path d="M4.1638 19.8361H19.8118C21.0358 18.2521 21.8038 16.1881 21.8038 13.9801C21.8038 12.0121 21.2278 10.1641 20.2198 8.62806L19.3318 9.51606C20.1478 10.8121 20.6038 12.3481 20.6038 13.9801C20.6038 15.6841 20.0758 17.2921 19.2118 18.6361H4.7878C3.8998 17.2921 3.3958 15.6841 3.3958 13.9801C3.3958 9.22806 7.2358 5.36406 11.9878 5.36406C13.6198 5.36406 15.1558 5.82006 16.4518 6.63606L17.3398 5.74806C15.8038 4.74006 13.9558 4.16406 11.9878 4.16406C6.5878 4.16406 2.1958 8.58006 2.1958 13.9801C2.1958 16.1641 2.9398 18.2281 4.1638 19.8361ZM11.3878 13.9801C11.3878 14.3161 11.6518 14.5801 11.9878 14.5801C12.1558 14.5801 12.2998 14.5081 12.4198 14.4121L19.3798 7.45206L18.5158 6.58806L11.5558 13.5481C11.4598 13.6681 11.3878 13.8121 11.3878 13.9801Z" fill="black"/>
</svg>
