<svg width="24" height="24" viewBox="0 0 24 24" fill="none" xmlns="http://www.w3.org/2000/svg">
<path d="M10.764 16.68C12.66 16.68 14.1 15.552 14.1 13.992C14.1 13.008 13.5 12.216 12.444 11.928V11.736C13.38 11.424 13.812 10.704 13.812 9.888C13.812 8.424 12.468 7.32 10.764 7.32C8.94003 7.32 7.62003 8.568 7.62003 10.128V10.296H8.79603C8.79603 9 9.37203 8.4 10.764 8.4C12.036 8.4 12.636 8.904 12.636 9.984C12.636 10.92 12.324 11.352 10.764 11.352H9.94803V12.432H10.788C12.372 12.432 12.876 12.888 12.876 13.968C12.876 15.072 12.204 15.6 10.74 15.6C9.22803 15.6 8.67603 15 8.67603 13.56H7.47603V13.68C7.47603 15.408 8.74803 16.68 10.764 16.68ZM4.11603 21.12H10.764C15.876 21.12 19.884 16.968 19.884 12C19.884 6.888 15.876 2.88 10.764 2.88H4.11603V4.08H10.764C15.204 4.08 18.684 7.56 18.684 12C18.684 16.32 15.204 19.92 10.764 19.92H4.11603V21.12Z" fill="black"/>
</svg>
