<svg width="24" height="24" viewBox="0 0 24 24" fill="none" xmlns="http://www.w3.org/2000/svg">
<path d="M10.7642 16.6799C12.6602 16.6799 14.1002 15.5519 14.1002 13.9919C14.1002 13.0079 13.5002 12.2159 12.4442 11.9279V11.7359C13.3802 11.4239 13.8122 10.7039 13.8122 9.88788C13.8122 8.42388 12.4682 7.31988 10.7642 7.31988C8.94021 7.31988 7.62021 8.56788 7.62021 10.1279V10.2959H8.79621C8.79621 8.99988 9.37221 8.39988 10.7642 8.39988C12.0362 8.39988 12.6362 8.90388 12.6362 9.98388C12.6362 10.9199 12.3242 11.3519 10.7642 11.3519H9.94821V12.4319H10.7882C12.3722 12.4319 12.8762 12.8879 12.8762 13.9679C12.8762 15.0719 12.2042 15.5999 10.7402 15.5999C9.22821 15.5999 8.67621 14.9999 8.67621 13.5599H7.47621V13.6799C7.47621 15.4079 8.74821 16.6799 10.7642 16.6799ZM4.11621 21.1199H10.7642C15.8762 21.1199 19.8842 16.9679 19.8842 11.9999C19.8842 6.88788 15.8762 2.87988 10.7642 2.87988H4.11621V4.07988H10.7642C15.2042 4.07988 18.6842 7.55988 18.6842 11.9999C18.6842 16.3199 15.2042 19.9199 10.7642 19.9199H4.11621V21.1199Z" fill="black"/>
</svg>
