<svg width="24" height="24" viewBox="0 0 24 24" fill="none" xmlns="http://www.w3.org/2000/svg">
<path d="M11.9998 16.6799C13.8958 16.6799 15.3358 15.5519 15.3358 13.9919C15.3358 13.0079 14.7358 12.2159 13.6798 11.9279V11.7359C14.6158 11.4239 15.0478 10.7039 15.0478 9.88788C15.0478 8.42388 13.7038 7.31988 11.9998 7.31988C10.1758 7.31988 8.85577 8.56788 8.85577 10.1279V10.2959H10.0318C10.0318 8.99988 10.6078 8.39988 11.9998 8.39988C13.2718 8.39988 13.8718 8.90388 13.8718 9.98388C13.8718 10.9199 13.5598 11.3519 11.9998 11.3519H11.1838V12.4319H12.0238C13.6078 12.4319 14.1118 12.8879 14.1118 13.9679C14.1118 15.0719 13.4398 15.5999 11.9758 15.5999C10.4638 15.5999 9.91177 14.9999 9.91177 13.5599H8.71177V13.6799C8.71177 15.4079 9.98377 16.6799 11.9998 16.6799ZM5.75977 21.1199H18.2398V19.9199H5.75977V21.1199ZM5.75977 4.07988H18.2398V2.87988H5.75977V4.07988Z" fill="black"/>
</svg>
