<svg width="24" height="24" viewBox="0 0 24 24" fill="none" xmlns="http://www.w3.org/2000/svg">
<path d="M11.9999 21.1199C17.1119 21.1199 21.1199 16.9679 21.1199 11.9999C21.1199 6.91188 17.0879 2.87988 11.9999 2.87988C6.91188 2.87988 2.87988 6.91188 2.87988 11.9999C2.87988 17.0879 6.91188 21.1199 11.9999 21.1199ZM4.07988 11.9999C4.07988 7.55988 7.55988 4.07988 11.9999 4.07988C16.4399 4.07988 19.9199 7.55988 19.9199 11.9999C19.9199 16.3199 16.4399 19.9199 11.9999 19.9199C7.55988 19.9199 4.07988 16.4399 4.07988 11.9999ZM8.71188 13.6799C8.71188 15.4079 9.98388 16.6799 11.9999 16.6799C13.8959 16.6799 15.3359 15.5519 15.3359 13.9919C15.3359 13.0079 14.7359 12.2159 13.6799 11.9279V11.7359C14.6159 11.4239 15.0479 10.7039 15.0479 9.88788C15.0479 8.42388 13.7039 7.31988 11.9999 7.31988C10.1759 7.31988 8.85588 8.56788 8.85588 10.1279V10.2959H10.0319C10.0319 8.99988 10.6079 8.39988 11.9999 8.39988C13.2719 8.39988 13.8719 8.90388 13.8719 9.98388C13.8719 10.9199 13.5599 11.3519 11.9999 11.3519H11.1839V12.4319H12.0239C13.6079 12.4319 14.1119 12.8879 14.1119 13.9679C14.1119 15.0719 13.4399 15.5999 11.9759 15.5999C10.4639 15.5999 9.91188 14.9999 9.91188 13.5599H8.71188V13.6799Z" fill="black"/>
</svg>
