<svg width="24" height="24" viewBox="0 0 24 24" fill="none" xmlns="http://www.w3.org/2000/svg">
<path d="M13.2362 16.6799C15.1322 16.6799 16.5722 15.5519 16.5722 13.9919C16.5722 13.0079 15.9722 12.2159 14.9162 11.9279V11.7359C15.8522 11.4239 16.2842 10.7039 16.2842 9.88788C16.2842 8.42388 14.9402 7.31988 13.2362 7.31988C11.4122 7.31988 10.0922 8.56788 10.0922 10.1279V10.2959H11.2682C11.2682 8.99988 11.8442 8.39988 13.2362 8.39988C14.5082 8.39988 15.1082 8.90388 15.1082 9.98388C15.1082 10.9199 14.7962 11.3519 13.2362 11.3519H12.4202V12.4319H13.2602C14.8442 12.4319 15.3482 12.8879 15.3482 13.9679C15.3482 15.0719 14.6762 15.5999 13.2122 15.5999C11.7002 15.5999 11.1482 14.9999 11.1482 13.5599H9.94821V13.6799C9.94821 15.4079 11.2202 16.6799 13.2362 16.6799ZM4.11621 11.9999C4.11621 17.0879 8.14821 21.1199 13.2362 21.1199H19.8842V19.9199H13.2362C8.79621 19.9199 5.31621 16.4399 5.31621 11.9999C5.31621 7.67988 8.79621 4.07988 13.2362 4.07988H19.8842V2.87988H13.2362C8.12421 2.87988 4.11621 7.03188 4.11621 11.9999Z" fill="black"/>
</svg>
