<svg width="24" height="24" viewBox="0 0 24 24" fill="none" xmlns="http://www.w3.org/2000/svg">
<path d="M4.51216 21.8399C5.08816 21.8399 5.71216 21.6239 6.16816 21.1679L15.7922 11.5199C16.2002 11.6399 16.6562 11.6879 17.0642 11.6879C19.7042 11.6879 21.8402 9.55191 21.8402 6.93591C21.8402 4.31991 19.7042 2.15991 17.0642 2.15991C14.4482 2.15991 12.3122 4.29591 12.3122 6.93591C12.3122 7.36791 12.3602 7.79991 12.4802 8.20791L2.85616 17.8319C2.40016 18.2879 2.16016 18.8879 2.16016 19.4879C2.16016 20.7839 3.19216 21.8399 4.51216 21.8399ZM3.31216 19.4879C3.31216 19.1759 3.40816 18.8879 3.67216 18.6239L13.8002 8.49591C13.5842 8.01591 13.4402 7.48791 13.4402 6.93591C13.4402 4.91991 15.0722 3.28791 17.0642 3.28791C17.6402 3.28791 18.1922 3.43191 18.6722 3.69591L15.9842 6.38391L17.6162 8.01591L20.3042 5.32791C20.5682 5.80791 20.7122 6.35991 20.7122 6.93591C20.7122 8.92791 19.0802 10.5599 17.0642 10.5599C16.5122 10.5599 15.9842 10.4159 15.5042 10.1999L5.35216 20.3519C5.11216 20.5919 4.82416 20.7119 4.51216 20.7119C3.84016 20.7119 3.31216 20.1599 3.31216 19.4879Z" fill="black"/>
</svg>
