<svg width="24" height="24" viewBox="0 0 24 24" fill="none" xmlns="http://www.w3.org/2000/svg">
<path d="M11.9999 21.1081C17.0399 21.1081 21.1199 17.0281 21.1199 12.0121C21.1199 6.97209 17.0399 2.89209 11.9999 2.89209C6.98388 2.89209 2.87988 6.97209 2.87988 12.0121C2.87988 17.0281 6.98388 21.1081 11.9999 21.1081ZM5.59188 9.10809V8.07609H12.0239V9.10809H9.35988V16.4281H8.25588V9.10809H5.59188ZM13.0799 16.4281V8.07609H16.0799C17.7119 8.07609 18.8639 9.18009 18.8639 10.6681C18.8639 12.1561 17.7119 13.2361 16.0799 13.2361H14.1839V16.4281H13.0799ZM14.1839 12.2281H16.1519C17.2079 12.2281 17.7119 11.7241 17.7119 10.7881V10.5481C17.7119 9.58809 17.2079 9.10809 16.1519 9.10809H14.1839V12.2281Z" fill="black"/>
</svg>
