<svg width="24" height="24" viewBox="0 0 24 24" fill="none" xmlns="http://www.w3.org/2000/svg">
<path d="M12 21.108C17.04 21.108 21.12 17.028 21.12 12.012C21.12 6.97197 17.04 2.89197 12 2.89197C6.984 2.89197 2.88 6.97197 2.88 12.012C2.88 17.028 6.984 21.108 12 21.108ZM5.592 9.10797V8.07597H12.024V9.10797H9.36V16.428H8.256V9.10797H5.592ZM13.08 16.428V8.07597H16.08C17.712 8.07597 18.864 9.17997 18.864 10.668C18.864 12.156 17.712 13.236 16.08 13.236H14.184V16.428H13.08ZM14.184 12.228H16.152C17.208 12.228 17.712 11.724 17.712 10.788V10.548C17.712 9.58797 17.208 9.10797 16.152 9.10797H14.184V12.228Z" fill="black"/>
</svg>
