<svg width="24" height="24" viewBox="0 0 24 24" fill="none" xmlns="http://www.w3.org/2000/svg">
<path d="M17.0161 12.288L21.3601 7.94398L17.0161 3.59998L16.2721 4.36798L17.7361 5.83198C18.2401 6.33598 18.7681 6.86398 19.2961 7.36798H3.60014V8.51998H19.3201C18.7921 9.02398 18.2401 9.55198 17.7361 10.056L16.2721 11.544L17.0161 12.288ZM2.64014 16.056L6.98414 20.4L7.75214 19.632L6.28814 18.168C5.78414 17.664 5.23214 17.136 4.70414 16.632H20.4001V15.48H4.68014C5.23214 14.952 5.76014 14.448 6.28814 13.92L7.75214 12.456L6.98414 11.688L2.64014 16.056Z" fill="black"/>
</svg>
