<svg width="24" height="24" viewBox="0 0 24 24" fill="none" xmlns="http://www.w3.org/2000/svg">
<path d="M17.016 12.288L21.36 7.94398L17.016 3.59998L16.272 4.36798L17.736 5.83198C18.24 6.33598 18.768 6.86398 19.296 7.36798H3.60001V8.51998H19.32C18.792 9.02398 18.24 9.55198 17.736 10.056L16.272 11.544L17.016 12.288ZM2.64001 16.056L6.98402 20.4L7.75202 19.632L6.28801 18.168C5.78401 17.664 5.23201 17.136 4.70401 16.632H20.4V15.48H4.68001C5.23201 14.952 5.76001 14.448 6.28801 13.92L7.75202 12.456L6.98402 11.688L2.64001 16.056Z" fill="black"/>
</svg>
