<svg width="24" height="24" viewBox="0 0 24 24" fill="none" xmlns="http://www.w3.org/2000/svg">
<path d="M17.0161 12.2881L21.3601 7.9441L17.0161 3.6001L16.2721 4.3681L17.7361 5.8321C18.2401 6.3361 18.7681 6.8641 19.2961 7.3681H3.60014V8.5201H19.3201C18.7921 9.0241 18.2401 9.5521 17.7361 10.0561L16.2721 11.5441L17.0161 12.2881ZM2.64014 16.0561L6.98414 20.4001L7.75214 19.6321L6.28814 18.1681C5.78414 17.6641 5.23214 17.1361 4.70414 16.6321H20.4001V15.4801H4.68014C5.23214 14.9521 5.76014 14.4481 6.28814 13.9201L7.75214 12.4561L6.98414 11.6881L2.64014 16.0561Z" fill="black"/>
</svg>
