<svg width="24" height="24" viewBox="0 0 24 24" fill="none" xmlns="http://www.w3.org/2000/svg">
<path d="M7.20022 21.36H16.8002C17.7842 21.36 18.6002 20.544 18.6002 19.56V9.00002H17.4002V19.536C17.4002 19.944 17.1122 20.208 16.7282 20.208H7.29622C6.88822 20.208 6.60022 19.944 6.60022 19.536V9.00002H5.40022V19.56C5.40022 20.544 6.21622 21.36 7.20022 21.36ZM3.72021 7.32001H20.2802V6.16802H15.9602V4.17601C15.9602 3.31201 15.2882 2.64001 14.4242 2.64001H9.57622C8.71222 2.64001 8.04022 3.31201 8.04022 4.17601V6.16802H3.72021V7.32001ZM9.12022 6.16802V4.27201C9.12022 3.93601 9.33622 3.72001 9.67222 3.72001H14.3282C14.6642 3.72001 14.8802 3.93601 14.8802 4.27201V6.16802H9.12022ZM9.50422 17.4H10.6562V10.32H9.50422V17.4ZM13.3442 17.4H14.4962V10.32H13.3442V17.4Z" fill="black"/>
</svg>
