<svg width="24" height="24" viewBox="0 0 24 24" fill="none" xmlns="http://www.w3.org/2000/svg">
<path d="M7.20022 21.3599H16.8002C17.7842 21.3599 18.6002 20.5439 18.6002 19.5599V8.99989H17.4002V19.5359C17.4002 19.9439 17.1122 20.2079 16.7282 20.2079H7.29622C6.88822 20.2079 6.60022 19.9439 6.60022 19.5359V8.99989H5.40022V19.5599C5.40022 20.5439 6.21622 21.3599 7.20022 21.3599ZM3.72021 7.31989H20.2802V6.16789H15.9602V4.17589C15.9602 3.31189 15.2882 2.63989 14.4242 2.63989H9.57622C8.71222 2.63989 8.04022 3.31189 8.04022 4.17589V6.16789H3.72021V7.31989ZM9.12022 6.16789V4.27189C9.12022 3.93589 9.33622 3.71989 9.67222 3.71989H14.3282C14.6642 3.71989 14.8802 3.93589 14.8802 4.27189V6.16789H9.12022ZM9.50422 17.3999H10.6562V10.3199H9.50422V17.3999ZM13.3442 17.3999H14.4962V10.3199H13.3442V17.3999Z" fill="black"/>
</svg>
