<svg width="24" height="24" viewBox="0 0 24 24" fill="none" xmlns="http://www.w3.org/2000/svg">
<path d="M9.02377 16.464H15.1438V15.384L10.3918 15.408V15L13.0318 13.2C14.5678 12.144 15.1438 11.256 15.1438 10.128C15.1438 8.35201 13.7278 7.34401 12.0238 7.34401C10.0558 7.34401 8.80777 8.664 8.80777 10.2V10.464H10.0078V10.224C10.0078 9.12001 10.5838 8.42401 11.9518 8.42401H12.0718C13.2478 8.42401 13.9438 8.952 13.9438 10.152C13.9438 10.968 13.6318 11.568 12.0478 12.648L9.02377 14.736V16.464ZM5.75977 21.12H18.2398V19.92H5.75977V21.12ZM5.75977 4.08H18.2398V2.88H5.75977V4.08Z" fill="black"/>
</svg>
