<svg width="24" height="24" viewBox="0 0 24 24" fill="none" xmlns="http://www.w3.org/2000/svg">
<path d="M10.2602 16.464H16.3802V15.384L11.6282 15.408V15L14.2682 13.2C15.8042 12.144 16.3802 11.256 16.3802 10.128C16.3802 8.35201 14.9642 7.34401 13.2602 7.34401C11.2922 7.34401 10.0442 8.688 10.0442 10.2V10.464H11.2442V10.224C11.2442 9.12001 11.8202 8.42401 13.1882 8.42401H13.3082C14.4842 8.42401 15.1802 8.952 15.1802 10.152C15.1802 10.992 14.8682 11.568 13.2842 12.648L10.2602 14.736V16.464ZM4.11621 12C4.11621 17.088 8.14821 21.12 13.2362 21.12H19.8842V19.92H13.2362C8.79621 19.92 5.31621 16.44 5.31621 12C5.31621 7.68001 8.79621 4.08 13.2362 4.08H19.8842V2.88H13.2362C8.12421 2.88 4.11621 7.032 4.11621 12Z" fill="black"/>
</svg>
