<svg width="24" height="24" viewBox="0 0 24 24" fill="none" xmlns="http://www.w3.org/2000/svg">
<path d="M11.9999 21.1199C17.1119 21.1199 21.1199 16.9679 21.1199 11.9999C21.1199 6.91188 17.0879 2.87988 11.9999 2.87988C6.91188 2.87988 2.87988 6.91188 2.87988 11.9999C2.87988 17.0879 6.91188 21.1199 11.9999 21.1199ZM4.07988 11.9999C4.07988 7.55988 7.55988 4.07988 11.9999 4.07988C16.4399 4.07988 19.9199 7.55988 19.9199 11.9999C19.9199 16.3199 16.4399 19.9199 11.9999 19.9199C7.55988 19.9199 4.07988 16.4399 4.07988 11.9999ZM8.80788 10.4639H10.0079V10.2239C10.0079 9.11988 10.5839 8.42388 11.9519 8.42388H12.0719C13.2479 8.42388 13.9439 8.95188 13.9439 10.1519C13.9439 10.9919 13.6319 11.5679 12.0479 12.6479L9.02388 14.7359V16.4639H15.1439V15.3839L10.3919 15.4079V14.9999L13.0319 13.1999C14.5679 12.1439 15.1439 11.2559 15.1439 10.1279C15.1439 8.35188 13.7279 7.34388 12.0239 7.34388C10.0559 7.34388 8.80788 8.68788 8.80788 10.1999V10.4639Z" fill="black"/>
</svg>
