<svg width="24" height="24" viewBox="0 0 24 24" fill="none" xmlns="http://www.w3.org/2000/svg">
<path d="M10.2602 16.4639H16.3802V15.3839L11.6282 15.4079V14.9999L14.2682 13.1999C15.8042 12.1439 16.3802 11.2559 16.3802 10.1279C16.3802 8.35188 14.9642 7.34388 13.2602 7.34388C11.2922 7.34388 10.0442 8.68788 10.0442 10.1999V10.4639H11.2442V10.2239C11.2442 9.11988 11.8202 8.42388 13.1882 8.42388H13.3082C14.4842 8.42388 15.1802 8.95188 15.1802 10.1519C15.1802 10.9919 14.8682 11.5679 13.2842 12.6479L10.2602 14.7359V16.4639ZM4.11621 11.9999C4.11621 17.0879 8.14821 21.1199 13.2362 21.1199H19.8842V19.9199H13.2362C8.79621 19.9199 5.31621 16.4399 5.31621 11.9999C5.31621 7.67988 8.79621 4.07988 13.2362 4.07988H19.8842V2.87988H13.2362C8.12421 2.87988 4.11621 7.03188 4.11621 11.9999Z" fill="black"/>
</svg>
