<svg width="24" height="24" viewBox="0 0 24 24" fill="none" xmlns="http://www.w3.org/2000/svg">
<path d="M7.78821 16.4639H13.9082V15.3839L9.15621 15.4079V14.9999L11.7962 13.1999C13.3322 12.1439 13.9082 11.2559 13.9082 10.1279C13.9082 8.35188 12.4922 7.34388 10.7882 7.34388C8.82021 7.34388 7.57221 8.66388 7.57221 10.1999V10.4639H8.77221V10.2239C8.77221 9.11988 9.34821 8.42388 10.7162 8.42388H10.8362C12.0122 8.42388 12.7082 8.95188 12.7082 10.1519C12.7082 10.9679 12.3962 11.5679 10.8122 12.6479L7.78821 14.7359V16.4639ZM4.11621 21.1199H10.7642C15.8762 21.1199 19.8842 16.9679 19.8842 11.9999C19.8842 6.88788 15.8762 2.87988 10.7642 2.87988H4.11621V4.07988H10.7642C15.2042 4.07988 18.6842 7.55988 18.6842 11.9999C18.6842 16.3199 15.2042 19.9199 10.7642 19.9199H4.11621V21.1199Z" fill="black"/>
</svg>
