<svg width="24" height="24" viewBox="0 0 24 24" fill="none" xmlns="http://www.w3.org/2000/svg">
<path d="M7.78821 16.464H13.9082V15.384L9.15621 15.408V15L11.7962 13.2C13.3322 12.144 13.9082 11.256 13.9082 10.128C13.9082 8.35201 12.4922 7.34401 10.7882 7.34401C8.82021 7.34401 7.57221 8.664 7.57221 10.2V10.464H8.77221V10.224C8.77221 9.12001 9.34821 8.42401 10.7162 8.42401H10.8362C12.0122 8.42401 12.7082 8.952 12.7082 10.152C12.7082 10.968 12.3962 11.568 10.8122 12.648L7.78821 14.736V16.464ZM4.11621 21.12H10.7642C15.8762 21.12 19.8842 16.968 19.8842 12C19.8842 6.888 15.8762 2.88 10.7642 2.88H4.11621V4.08H10.7642C15.2042 4.08 18.6842 7.56 18.6842 12C18.6842 16.32 15.2042 19.92 10.7642 19.92H4.11621V21.12Z" fill="black"/>
</svg>
