<svg width="24" height="24" viewBox="0 0 24 24" fill="none" xmlns="http://www.w3.org/2000/svg">
<path d="M9.02377 16.4639H15.1438V15.3839L10.3918 15.4079V14.9999L13.0318 13.1999C14.5678 12.1439 15.1438 11.2559 15.1438 10.1279C15.1438 8.35188 13.7278 7.34388 12.0238 7.34388C10.0558 7.34388 8.80777 8.66388 8.80777 10.1999V10.4639H10.0078V10.2239C10.0078 9.11988 10.5838 8.42388 11.9518 8.42388H12.0718C13.2478 8.42388 13.9438 8.95188 13.9438 10.1519C13.9438 10.9679 13.6318 11.5679 12.0478 12.6479L9.02377 14.7359V16.4639ZM5.75977 21.1199H18.2398V19.9199H5.75977V21.1199ZM5.75977 4.07988H18.2398V2.87988H5.75977V4.07988Z" fill="black"/>
</svg>
