<svg width="24" height="24" viewBox="0 0 24 24" fill="none" xmlns="http://www.w3.org/2000/svg">
<path d="M8.26806 9.35993L20.6761 21.7679L21.4921 20.9519L2.77205 2.23193L1.95605 3.04793L7.42806 8.49593C6.66006 9.47993 6.18006 10.6799 6.18006 11.9999V20.3999H7.38005V11.9999C7.38005 10.9679 7.69206 10.0799 8.26806 9.35993ZM10.4281 6.62393L11.4601 7.63193H11.7721H20.0041C19.4761 8.13593 18.9241 8.66393 18.4201 9.16793L16.9561 10.6559L17.7001 11.3999L22.0441 7.05593L17.7001 2.71193L16.9561 3.47993L18.4201 4.94393C18.9241 5.44793 19.4521 5.97593 19.9801 6.47993H11.7241C11.2681 6.47993 10.8361 6.52793 10.4281 6.62393Z" fill="black"/>
</svg>
