<svg width="24" height="24" viewBox="0 0 24 24" fill="none" xmlns="http://www.w3.org/2000/svg">
<path d="M20.9641 21.7559L21.7561 20.9639L3.03614 2.2439L2.24414 3.0359L10.6201 11.4119L7.47614 11.3879L4.81214 8.7479L4.09214 9.4679L6.10814 11.4359L2.70014 11.3879V12.4679L6.10814 12.4439L4.09214 14.4119L4.81214 15.1319L7.47614 12.4679L10.8601 12.4439L5.43614 17.8439L6.15614 18.5639L11.5561 13.1399L11.5321 16.5239L8.86814 19.1879L9.58814 19.9079L11.5561 17.8919L11.5321 21.2999H12.6121L12.5641 17.8919L14.5321 19.9079L15.2521 19.1879L12.6121 16.5239L12.5881 13.3799L20.9641 21.7559ZM8.86814 4.6919L12.5881 8.4119L12.6121 7.3319L15.2521 4.6919L14.5321 3.9719L12.5641 5.9639L12.6121 2.5799H11.5321L11.5561 5.9639L9.58814 3.9719L8.86814 4.6919ZM13.7401 9.5639L14.4361 10.2599L18.6841 6.0359L17.9641 5.3159L13.7401 9.5639ZM15.5881 11.4119L19.3081 15.1319L20.0281 14.4119L18.0361 12.4439L21.4201 12.4679V11.3879L18.0361 11.4359L20.0281 9.4679L19.3081 8.7479L16.6681 11.3879L15.5881 11.4119Z" fill="black"/>
</svg>
