<svg width="24" height="24" viewBox="0 0 24 24" fill="none" xmlns="http://www.w3.org/2000/svg">
<path d="M11.9639 22.3199C13.0679 22.3199 13.9559 21.4319 13.9559 20.3279C13.9559 19.4639 13.3559 18.7199 12.5639 18.4559V15.0959L16.9079 13.7279C17.6759 13.4879 18.1559 12.8639 18.1559 12.0959V8.42393H18.8279V6.02393H16.3559V8.42393H17.0759V12.0479C17.0759 12.4079 16.9079 12.5999 16.5719 12.6959L12.5639 13.9679V4.84793H13.8839L11.9639 1.67993L10.0439 4.84793H11.3639V15.6479L7.61987 14.3999C7.25987 14.2799 7.09187 14.0879 7.09187 13.7279V10.0319C7.57187 9.81593 7.93187 9.33593 7.93187 8.75993C7.93187 8.01593 7.30787 7.39193 6.56387 7.39193C5.79587 7.39193 5.17188 8.01593 5.17188 8.75993C5.17188 9.33593 5.53187 9.81593 6.01187 10.0319V13.7999C6.01187 14.5679 6.49187 15.1679 7.23587 15.4079L11.3639 16.7759V18.4559C10.5719 18.7199 9.99587 19.4639 9.99587 20.3279C9.99587 21.4319 10.8839 22.3199 11.9639 22.3199Z" fill="black"/>
</svg>
