<svg width="24" height="24" viewBox="0 0 24 24" fill="none" xmlns="http://www.w3.org/2000/svg">
<path d="M11.964 22.3199C13.068 22.3199 13.956 21.4319 13.956 20.3279C13.956 19.4639 13.356 18.7199 12.564 18.4559V15.0959L16.908 13.7279C17.676 13.4879 18.156 12.8639 18.156 12.0959V8.42393H18.828V6.02393H16.356V8.42393H17.076V12.0479C17.076 12.4079 16.908 12.5999 16.572 12.6959L12.564 13.9679V4.84793H13.884L11.964 1.67993L10.044 4.84793H11.364V15.6479L7.62 14.3999C7.26 14.2799 7.092 14.0879 7.092 13.7279V10.0319C7.572 9.81593 7.932 9.33593 7.932 8.75993C7.932 8.01593 7.308 7.39193 6.564 7.39193C5.796 7.39193 5.172 8.01593 5.172 8.75993C5.172 9.33593 5.532 9.81593 6.012 10.0319V13.7999C6.012 14.5679 6.492 15.1679 7.236 15.4079L11.364 16.7759V18.4559C10.572 18.7199 9.996 19.4639 9.996 20.3279C9.996 21.4319 10.884 22.3199 11.964 22.3199Z" fill="black"/>
</svg>
