<svg width="24" height="24" viewBox="0 0 24 24" fill="none" xmlns="http://www.w3.org/2000/svg">
<path d="M4.60791 19.4159V21.3599H19.3919V19.4159C19.3919 17.1839 18.3839 15.3599 16.5599 14.5439V11.1119H7.46391V14.5439C5.63991 15.3839 4.60791 17.1839 4.60791 19.4159ZM5.75991 7.43989H9.52791C9.04791 7.65589 8.73591 8.11189 8.73591 8.66389C8.73591 9.38389 9.33591 10.0079 10.0799 10.0079C10.8239 10.0079 11.4479 9.38389 11.4479 8.66389C11.4479 8.11189 11.1119 7.65589 10.6319 7.43989H13.3439C12.8639 7.65589 12.5519 8.11189 12.5519 8.66389C12.5519 9.38389 13.1519 10.0079 13.9199 10.0079C14.6399 10.0079 15.2639 9.38389 15.2639 8.66389C15.2639 8.11189 14.9279 7.65589 14.4719 7.43989H18.2399V6.28789H15.9599V4.17589C15.9599 3.31189 15.2879 2.63989 14.4239 2.63989H9.57591C8.71191 2.63989 8.03991 3.31189 8.03991 4.17589V6.28789H5.75991V7.43989ZM5.87991 20.2079V18.8159C5.87991 16.9199 6.76791 15.7919 8.59191 15.3599V12.1919H11.4959V20.2079H5.87991ZM9.11991 6.28789V4.27189C9.11991 3.93589 9.33591 3.71989 9.67191 3.71989H14.3279C14.6639 3.71989 14.8799 3.93589 14.8799 4.27189V6.28789H9.11991ZM12.5039 20.2079V12.1919H15.4079V15.3599C17.2319 15.7679 18.1439 16.9199 18.1439 18.8159V20.2079H12.5039Z" fill="black"/>
</svg>
