<svg width="24" height="24" viewBox="0 0 24 24" fill="none" xmlns="http://www.w3.org/2000/svg">
<path d="M4.608 19.4159V21.3599H19.392V19.4159C19.392 17.1839 18.384 15.3599 16.56 14.5439V11.1119H7.464V14.5439C5.64 15.3839 4.608 17.1839 4.608 19.4159ZM5.76 7.43989H9.528C9.048 7.65589 8.736 8.11189 8.736 8.66389C8.736 9.38389 9.336 10.0079 10.08 10.0079C10.824 10.0079 11.448 9.38389 11.448 8.66389C11.448 8.11189 11.112 7.65589 10.632 7.43989H13.344C12.864 7.65589 12.552 8.11189 12.552 8.66389C12.552 9.38389 13.152 10.0079 13.92 10.0079C14.64 10.0079 15.264 9.38389 15.264 8.66389C15.264 8.11189 14.928 7.65589 14.472 7.43989H18.24V6.28789H15.96V4.17589C15.96 3.31189 15.288 2.63989 14.424 2.63989H9.576C8.712 2.63989 8.04 3.31189 8.04 4.17589V6.28789H5.76V7.43989ZM5.88 20.2079V18.8159C5.88 16.9199 6.768 15.7919 8.592 15.3599V12.1919H11.496V20.2079H5.88ZM9.12 6.28789V4.27189C9.12 3.93589 9.336 3.71989 9.672 3.71989H14.328C14.664 3.71989 14.88 3.93589 14.88 4.27189V6.28789H9.12ZM12.504 20.2079V12.1919H15.408V15.3599C17.232 15.7679 18.144 16.9199 18.144 18.8159V20.2079H12.504Z" fill="black"/>
</svg>
