<svg width="24" height="24" viewBox="0 0 24 24" fill="none" xmlns="http://www.w3.org/2000/svg">
<path d="M7.33209 11.7599V21.8399H8.53209V11.7599C10.4281 11.4719 11.8681 9.83991 11.8681 7.91991V2.39991H10.7161V7.91991C10.7161 9.31191 9.82809 10.4159 8.53209 10.6559V2.39991H7.33209V10.6559C6.06009 10.4159 5.14809 9.31191 5.14809 7.91991V2.39991H3.99609V7.91991C3.99609 9.83991 5.46009 11.4719 7.33209 11.7599ZM14.1241 16.7999H18.8041V21.8399H20.0041V2.15991C16.7401 2.15991 14.1241 4.75191 14.1241 8.03991V16.7999ZM15.3241 15.7199V8.03991C15.3241 5.63991 16.7401 3.86391 18.8041 3.43191V15.7199H15.3241Z" fill="black"/>
</svg>
