<svg width="24" height="24" viewBox="0 0 24 24" fill="none" xmlns="http://www.w3.org/2000/svg">
<path d="M6.25986 10.5738C5.23103 10.5725 4.24471 10.1631 3.51729 9.43554C2.78987 8.70796 2.38075 7.72157 2.37964 6.69273C2.38075 5.66397 2.78993 4.67766 3.51737 3.95022C4.24481 3.22278 5.2311 2.81361 6.25986 2.8125C7.28862 2.81361 8.27492 3.22278 9.00236 3.95022C9.7298 4.67766 10.139 5.66397 10.1401 6.69273C10.139 7.72157 9.72986 8.70796 9.00244 9.43554C8.27502 10.1631 7.2887 10.5725 6.25986 10.5738ZM6.25986 3.90505C5.5208 3.90594 4.81227 4.19992 4.28967 4.72252C3.76707 5.24512 3.47308 5.95367 3.47219 6.69273C3.47286 7.43195 3.76672 8.1407 4.28934 8.66348C4.81197 9.18626 5.52065 9.48036 6.25986 9.48125C6.99908 9.48036 7.70776 9.18626 8.23038 8.66348C8.75301 8.1407 9.04687 7.43195 9.04754 6.69273C9.04665 5.95367 8.75266 5.24512 8.23006 4.72252C7.70746 4.19992 6.99893 3.90594 6.25986 3.90505Z" fill="black"/>
<path d="M13.7396 10.5738C12.7108 10.5725 11.7245 10.1631 10.9971 9.43554C10.2696 8.70796 9.86051 7.72157 9.8594 6.69273C9.86051 5.66397 10.2697 4.67766 10.9971 3.95022C11.7246 3.22278 12.7109 2.81361 13.7396 2.8125C14.7685 2.81361 15.7549 3.22275 16.4824 3.95017C17.21 4.67759 17.6194 5.6639 17.6207 6.69273C17.6194 7.72165 17.21 8.70803 16.4825 9.43559C15.7549 10.1631 14.7685 10.5725 13.7396 10.5738ZM13.7396 3.90505C13.0006 3.90594 12.292 4.19992 11.7694 4.72252C11.2468 5.24512 10.9528 5.95367 10.952 6.69273C10.9526 7.43195 11.2465 8.1407 11.7691 8.66348C12.2917 9.18626 13.0004 9.48036 13.7396 9.48125C14.4789 9.48036 15.1877 9.18629 15.7104 8.66353C16.2332 8.14077 16.5273 7.43202 16.5282 6.69273C16.5271 5.95359 16.2329 5.24505 15.7101 4.72247C15.1874 4.1999 14.4788 3.90594 13.7396 3.90505Z" fill="black"/>
<path d="M17.9098 21.1875H2.10986V10.3713H17.9098V21.1875ZM3.20241 20.095H16.8173V11.4638H3.20241V20.095Z" fill="black"/>
<path d="M21.89 20.7858L16.8172 16.5652V14.5692L21.89 10.046V20.7858ZM17.9098 16.0559L20.7975 18.457V12.49L17.9098 15.0642V16.0559Z" fill="black"/>
</svg>
