<svg width="24" height="24" viewBox="0 0 24 24" fill="none" xmlns="http://www.w3.org/2000/svg">
<path d="M4.79988 20.1601H21.1199V7.20009H6.35988V8.32809H19.9919V19.0081H4.79988C4.29588 19.0081 4.03188 18.7441 4.03188 18.2401V5.76009C4.03188 5.23209 4.29588 4.96809 4.79988 4.96809H19.1279C18.9359 4.29609 18.3119 3.84009 17.5199 3.84009H4.79988C3.69588 3.84009 2.87988 4.65609 2.87988 5.76009V18.2401C2.87988 19.3441 3.69588 20.1601 4.79988 20.1601ZM15.2639 13.7761C15.2639 14.3521 15.7439 14.8561 16.3439 14.8561C16.8959 14.8561 17.3759 14.3521 17.3759 13.7761C17.3759 13.2241 16.8959 12.7441 16.3439 12.7441C15.7439 12.7441 15.2639 13.2241 15.2639 13.7761Z" fill="black"/>
</svg>
