<svg width="24" height="24" viewBox="0 0 24 24" fill="none" xmlns="http://www.w3.org/2000/svg">
<path d="M12.12 19.56H21.24V6.59999H6.48001V7.72799H20.04V18.408H12.12V19.56ZM2.76001 17.256H6.26401V20.76H7.41601V17.256H10.92V16.104H7.41601V12.6H6.26401V16.104H2.76001V17.256ZM3.00001 11.64H4.15201V5.15999C4.15201 4.63199 4.41601 4.36799 4.92001 4.36799H19.248C19.056 3.69599 18.432 3.23999 17.64 3.23999H4.92001C3.81601 3.23999 3.00001 4.05599 3.00001 5.15999V11.64ZM15.384 13.176C15.384 13.752 15.864 14.256 16.464 14.256C17.016 14.256 17.496 13.752 17.496 13.176C17.496 12.624 17.016 12.144 16.464 12.144C15.864 12.144 15.384 12.624 15.384 13.176Z" fill="black"/>
</svg>
