<svg width="24" height="24" viewBox="0 0 24 24" fill="none" xmlns="http://www.w3.org/2000/svg">
<path d="M1.95599 8.49594L2.81999 9.40794C5.19599 7.12794 8.26799 5.71194 11.988 5.71194C15.708 5.71194 18.78 7.12794 21.156 9.40794L22.044 8.49594C19.5 6.07194 15.996 4.43994 11.988 4.43994C7.97999 4.43994 4.47599 6.07194 1.95599 8.49594ZM5.07599 11.9039L5.91599 12.8399C7.59599 11.3759 9.56399 10.5599 11.988 10.5599C14.412 10.5599 16.38 11.3999 18.06 12.8399L18.9 11.9039C17.052 10.3199 14.676 9.28794 11.988 9.28794C9.29999 9.28794 6.92399 10.2959 5.07599 11.9039ZM8.26799 15.4319L11.988 19.5599L15.732 15.4319C14.748 14.5919 13.452 14.0639 11.988 14.0639C10.548 14.0639 9.27599 14.5919 8.26799 15.4319Z" fill="black"/>
</svg>
