<svg width="24" height="24" viewBox="0 0 24 24" fill="none" xmlns="http://www.w3.org/2000/svg">
<path d="M19.5481 21.2039L20.3641 20.3879L7.23606 7.2599L6.30006 6.2999L2.77205 2.7959L1.95605 3.6119L5.17206 6.8279C3.97205 7.4759 2.89205 8.2679 1.95605 9.1799L2.82005 10.0679C3.80405 9.1319 4.88405 8.3399 6.08405 7.7399L8.79606 10.4519C7.40406 10.9079 6.15605 11.6519 5.07606 12.5639L5.91605 13.5239C7.09206 12.5159 8.34006 11.8199 9.82806 11.4839L13.2121 14.8679C12.8281 14.7959 12.4201 14.7479 11.9881 14.7479C10.5481 14.7479 9.27606 15.2759 8.26806 16.1159L11.9881 20.2439L15.1321 16.7879L19.5481 21.2039ZM8.70006 5.5079L9.75606 6.5639C10.4761 6.4439 11.2201 6.3959 11.9881 6.3959C15.7081 6.3959 18.8041 7.7879 21.1561 10.0679L22.0441 9.1799C19.5241 6.7319 15.9961 5.1239 11.9881 5.1239C10.8601 5.1239 9.73206 5.2679 8.70006 5.5079ZM13.2361 10.0439L14.9881 11.8199C16.1401 12.1559 17.1721 12.7559 18.0841 13.5239L18.9001 12.5639C17.3401 11.2439 15.3961 10.3079 13.2361 10.0439Z" fill="black"/>
</svg>
