<svg width="24" height="24" viewBox="0 0 24 24" fill="none" xmlns="http://www.w3.org/2000/svg">
<path d="M11.9998 16.7039C14.3518 16.7039 15.5758 14.8559 15.5758 12.0239C15.5758 9.16788 14.3758 7.34388 11.9998 7.34388C9.67177 7.34388 8.42377 9.19188 8.42377 12.0239C8.42377 14.8559 9.67177 16.7039 11.9998 16.7039ZM5.75977 21.1199H18.2398V19.9199H5.75977V21.1199ZM5.75977 4.07988H18.2398V2.87988H5.75977V4.07988ZM9.67177 12.5999V11.4719C9.67177 9.28788 10.3918 8.37588 11.9998 8.37588C12.8878 8.37588 13.4878 8.63988 13.8718 9.26388L9.79177 13.8959C9.71977 13.5119 9.67177 13.1039 9.67177 12.5999ZM10.1038 14.7839L14.2078 10.1519C14.2798 10.5119 14.3278 10.9679 14.3278 11.4719V12.5999C14.3278 14.7839 13.6078 15.6719 11.9998 15.6719C11.1118 15.6719 10.4878 15.4079 10.1038 14.7839Z" fill="black"/>
</svg>
