<svg width="24" height="24" viewBox="0 0 24 24" fill="none" xmlns="http://www.w3.org/2000/svg">
<path d="M13.2362 16.7039C15.5882 16.7039 16.8122 14.8559 16.8122 12.0239C16.8122 9.16788 15.6122 7.34388 13.2362 7.34388C10.9082 7.34388 9.66021 9.19188 9.66021 12.0239C9.66021 14.8559 10.9082 16.7039 13.2362 16.7039ZM4.11621 11.9999C4.11621 17.0879 8.14821 21.1199 13.2362 21.1199H19.8842V19.9199H13.2362C8.79621 19.9199 5.31621 16.4399 5.31621 11.9999C5.31621 7.67988 8.79621 4.07988 13.2362 4.07988H19.8842V2.87988H13.2362C8.12421 2.87988 4.11621 7.03188 4.11621 11.9999ZM10.9082 12.5999V11.4719C10.9082 9.28788 11.6282 8.37588 13.2362 8.37588C14.1002 8.37588 14.7242 8.63988 15.1082 9.23988L11.0282 13.8719C10.9322 13.5119 10.9082 13.0799 10.9082 12.5999ZM11.3402 14.7839L15.4442 10.1519C15.5162 10.5119 15.5642 10.9679 15.5642 11.4719V12.5999C15.5642 14.7839 14.8442 15.6719 13.2362 15.6719C12.3482 15.6719 11.7242 15.4079 11.3402 14.7839Z" fill="black"/>
</svg>
