<svg width="24" height="24" viewBox="0 0 24 24" fill="none" xmlns="http://www.w3.org/2000/svg">
<path d="M10.7642 16.7039C13.1162 16.7039 14.3402 14.8559 14.3402 12.0239C14.3402 9.16788 13.1402 7.34388 10.7642 7.34388C8.43621 7.34388 7.18821 9.19188 7.18821 12.0239C7.18821 14.8559 8.43621 16.7039 10.7642 16.7039ZM4.11621 21.1199H10.7642C15.8762 21.1199 19.8842 16.9679 19.8842 11.9999C19.8842 6.88788 15.8762 2.87988 10.7642 2.87988H4.11621V4.07988H10.7642C15.2042 4.07988 18.6842 7.55988 18.6842 11.9999C18.6842 16.3199 15.2042 19.9199 10.7642 19.9199H4.11621V21.1199ZM8.43621 12.5999V11.4719C8.43621 9.28788 9.15621 8.37588 10.7642 8.37588C11.6522 8.37588 12.2522 8.63988 12.6362 9.26388L8.55621 13.8959C8.48421 13.5119 8.43621 13.1039 8.43621 12.5999ZM8.86821 14.7839L12.9722 10.1519C13.0442 10.5119 13.0922 10.9679 13.0922 11.4719V12.5999C13.0922 14.7839 12.3722 15.6719 10.7642 15.6719C9.87621 15.6719 9.25221 15.4079 8.86821 14.7839Z" fill="black"/>
</svg>
