<svg width="24" height="24" viewBox="0 0 24 24" fill="none" xmlns="http://www.w3.org/2000/svg">
<path d="M11.9999 21.1199C17.1119 21.1199 21.1199 16.9679 21.1199 11.9999C21.1199 6.91188 17.0879 2.87988 11.9999 2.87988C6.91188 2.87988 2.87988 6.91188 2.87988 11.9999C2.87988 17.0879 6.91188 21.1199 11.9999 21.1199ZM4.07988 11.9999C4.07988 7.55988 7.55988 4.07988 11.9999 4.07988C16.4399 4.07988 19.9199 7.55988 19.9199 11.9999C19.9199 16.3199 16.4399 19.9199 11.9999 19.9199C7.55988 19.9199 4.07988 16.4399 4.07988 11.9999ZM8.42388 12.0239C8.42388 14.8559 9.67188 16.7039 11.9999 16.7039C14.3519 16.7039 15.5759 14.8559 15.5759 12.0239C15.5759 9.16788 14.3759 7.34388 11.9999 7.34388C9.67188 7.34388 8.42388 9.19188 8.42388 12.0239ZM9.67188 12.5999V11.4719C9.67188 9.28788 10.3919 8.37588 11.9999 8.37588C12.8639 8.37588 13.4879 8.63988 13.8719 9.23988L9.79188 13.8719C9.69588 13.5119 9.67188 13.0799 9.67188 12.5999ZM10.1039 14.7839L14.2079 10.1519C14.2799 10.5119 14.3279 10.9679 14.3279 11.4719V12.5999C14.3279 14.7839 13.6079 15.6719 11.9999 15.6719C11.1119 15.6719 10.4879 15.4079 10.1039 14.7839Z" fill="black"/>
</svg>
