<svg width="24" height="24" viewBox="0 0 24 24" fill="none" xmlns="http://www.w3.org/2000/svg">
<path d="M12 16.7039C14.352 16.7039 15.576 14.8559 15.576 12.0239C15.576 9.16788 14.376 7.34388 12 7.34388C9.67201 7.34388 8.42401 9.19188 8.42401 12.0239C8.42401 14.8559 9.67201 16.7039 12 16.7039ZM5.76001 21.1199H18.24V19.9199H5.76001V21.1199ZM5.76001 4.07988H18.24V2.87988H5.76001V4.07988ZM9.67201 12.5999V11.4719C9.67201 9.28788 10.392 8.37588 12 8.37588C12.888 8.37588 13.488 8.63988 13.872 9.26388L9.79201 13.8959C9.72001 13.5119 9.67201 13.1039 9.67201 12.5999ZM10.104 14.7839L14.208 10.1519C14.28 10.5119 14.328 10.9679 14.328 11.4719V12.5999C14.328 14.7839 13.608 15.6719 12 15.6719C11.112 15.6719 10.488 15.4079 10.104 14.7839Z" fill="black"/>
</svg>
