<svg fill="none" viewBox="0 0 24 24">
  <path fill="url(#a)" fill-rule="evenodd" d="M12 24c6.627 0 12-5.372 12-12 0-6.627-5.373-12-12-12-4.033 0-7.601 1.99-9.777 5.04h4.44a.96.96 0 0 1 0 1.92H1.106C.891 7.425.704 7.905.55 8.4h13.173a.96.96 0 1 1 0 1.92H.116A12.098 12.098 0 0 0 0 11.915h4.687a.96.96 0 1 1 0 1.92H.139c.08.52.193 1.03.337 1.525h13.246a.96.96 0 1 1 0 1.92H1.221c.283.578.612 1.13.982 1.651h4.46a.96.96 0 1 1 0 1.92H3.897A11.957 11.957 0 0 0 12 24.002zm4.358-6.72a.96.96 0 1 1 0-1.92.96.96 0 0 1 0 1.92zm-.96-7.92a.96.96 0 1 0 1.92 0 .96.96 0 0 0-1.92 0zm-7.21 10.538a.96.96 0 1 0 1.92 0 .96.96 0 0 0-1.92 0zm.96-12.938a.96.96 0 1 1 0-1.92.96.96 0 0 1 0 1.92zm.042 5.915c0 .53.43.96.96.96h10.797a.96.96 0 1 0 0-1.92H10.15a.96.96 0 0 0-.96.96zm-1.778.96a.96.96 0 1 1 0-1.92.96.96 0 0 1 0 1.92z" clip-rule="evenodd"/>
  <defs>
    <linearGradient id="a" x1="19.68" x2="11.847" y1="3" y2="23.943" gradientUnits="userSpaceOnUse">
      <stop offset=".066" stop-color="#B6B2ED"/>
      <stop offset=".268" stop-color="#DAB9C9"/>
      <stop offset=".491" stop-color="#ECBBBA"/>
      <stop offset=".741" stop-color="#FBA994"/>
      <stop offset="1" stop-color="#FA9A65"/>
    </linearGradient>
  </defs>
</svg>
