<svg width="44" height="44" viewBox="0 0 44 44" xmlns="http://www.w3.org/2000/svg" xmlns:xlink="http://www.w3.org/1999/xlink">
  <path fill="currentColor" d="m33.402116,11.525909c5.84126,0 10.59347,4.69867 10.59347,10.47414c0,0.42744 -0.02666,0.84881 -0.07718,1.26296l-12.50663,0l0,-2.52592l9.93479,0c-0.61454,-3.78439 -3.94241,-6.68536 -7.94445,-6.68536c-3.48412,0 -5.97303,2.52059 -8.31499,5.72423l-1.5149,-2.21291c2.55646,-3.34074 5.51442,-6.03714 9.82989,-6.03714zm0,18.42225c3.04917,0 5.7076,-1.68381 7.07253,-4.15932l2.80339,0c-1.53896,3.90811 -5.38537,6.68525 -9.87592,6.68525c-5.22525,0 -8.45806,-3.77425 -12.17081,-9.35206c-3.71275,-5.5778 -6.37254,-9.0703 -10.63332,-9.0703c-4.43731,0 -8.04725,3.56571 -8.04725,7.94832c0,4.38262 3.60994,7.94811 8.04725,7.94811c3.48288,0 5.97126,-2.51871 8.31259,-5.72088l1.50382,2.22713c-2.55333,3.33259 -5.50857,6.01968 -9.81641,6.01968c-5.84136,0 -10.59357,-4.69867 -10.59357,-10.47404c0,-5.77547 4.75221,-10.47414 10.59357,-10.47414c5.22515,0 8.59392,3.94399 12.16287,9.34317c3.56895,5.39917 6.38039,9.07908 10.64126,9.07908z" />
</svg>
