<svg width="24" height="24" viewBox="0 0 24 24" fill="none">
<path d="M14.3029 15.5404C14.2663 15.5387 14.231 15.5267 14.2009 15.5059C14.1735 15.4888 14.1505 15.4657 14.1334 15.4384H14.1266L12.4631 18.3596C14.1536 17.9884 15.8381 17.6096 17.5279 17.2376C17.4893 17.1898 17.4532 17.14 17.4199 17.0884C17.3726 17.0209 17.3321 16.9399 17.2849 16.8521C17.2417 16.7723 17.2011 16.691 17.1634 16.6084V16.6016C17.1634 16.5949 17.1559 16.5881 17.1559 16.5881C17.0755 16.4173 17.0012 16.2437 16.9331 16.0676C16.9129 16.0204 16.8994 15.9799 16.8791 15.9394C16.7762 15.6847 16.6791 15.4276 16.5881 15.1684C16.3039 15.2224 16.0676 15.2696 15.9056 15.3034C15.8981 15.3034 15.8914 15.3034 15.8846 15.3101C15.6349 15.3641 15.3979 15.4114 15.1684 15.4526C15.0394 15.4789 14.9179 15.4924 14.8031 15.5126C14.7761 15.5201 14.7424 15.5201 14.7019 15.5269C14.7019 15.5269 14.6201 15.5404 14.5121 15.5471C14.4421 15.5524 14.3716 15.5499 14.3021 15.5396L14.3029 15.5404ZM15.8576 12.9566C15.8216 12.8275 15.7923 12.6966 15.7699 12.5644L14.4986 14.7964L14.5061 14.7889C14.5594 14.7694 14.6201 14.7491 14.6951 14.7289C14.8706 14.6741 15.0866 14.6201 15.3506 14.5526C15.6146 14.4851 15.9259 14.4101 16.2904 14.3164C16.2161 14.0929 16.1351 13.8634 16.0609 13.6264C15.9847 13.4058 15.9172 13.1824 15.8584 12.9566H15.8576ZM17.8189 9.00112H17.7919L16.1494 11.8886C16.1554 11.8886 16.1689 11.8954 16.1891 11.8954C16.1966 11.8954 16.1966 11.8954 16.2026 11.9021C16.2101 11.9021 16.2101 11.9021 16.2161 11.9089C16.2236 11.9089 16.2236 11.9156 16.2296 11.9156C16.2371 11.9156 16.2371 11.9156 16.2431 11.9224C16.2631 11.933 16.2813 11.9467 16.2971 11.9629C16.3241 11.9899 16.3451 12.0169 16.3519 12.0236C16.3586 12.0311 16.3586 12.0371 16.3654 12.0439C16.3803 12.0655 16.3939 12.088 16.4059 12.1114C16.4396 12.1721 16.4599 12.2059 16.4599 12.2059C16.5409 12.3619 16.6219 12.5441 16.7029 12.7609C16.7846 12.9769 16.8724 13.2071 16.9534 13.4509C16.9736 13.5049 16.9871 13.5521 17.0074 13.6061C17.0546 13.7486 17.1154 13.9241 17.1836 14.1266C17.4671 14.0726 17.7379 14.0186 18.0011 13.9714C18.2651 13.9241 18.5021 13.8904 18.7181 13.8701C18.9349 13.8491 19.1171 13.8356 19.2731 13.8424C19.3609 13.8424 19.4284 13.8499 19.4891 13.8634C19.5026 13.8634 19.5229 13.8701 19.5364 13.8701C19.4081 13.5116 19.2731 13.1126 19.1171 12.6866L17.8196 9.00112H17.8189ZM19.3676 14.4716C19.1807 14.5403 18.9911 14.6011 18.7991 14.6539C18.7586 14.6674 18.7181 14.6741 18.6844 14.6884C18.6506 14.6951 18.6169 14.7086 18.5831 14.7154C18.4892 14.7411 18.3944 14.7637 18.2989 14.7829C18.2453 14.798 18.1913 14.8115 18.1369 14.8234H18.1294C17.9674 14.8639 17.7514 14.9111 17.5009 14.9659C17.5549 15.1549 17.6231 15.3641 17.7034 15.6011C17.7784 15.8374 17.8534 16.0676 17.9134 16.2836C17.9336 16.3511 17.9471 16.4126 17.9674 16.4801C18.0019 16.5814 18.0289 16.6826 18.0491 16.8049C18.0559 16.8251 18.0559 16.8454 18.0626 16.8649C18.0896 16.9736 18.0964 17.0546 18.0896 17.1154C18.0896 17.1154 18.3731 17.0614 18.5156 17.0276C19.0766 16.305 19.5131 15.4939 19.8071 14.6276C19.7666 14.5054 19.7261 14.3906 19.6856 14.2684C19.6241 14.3501 19.5229 14.4109 19.3676 14.4716ZM10.4749 3.99037H10.5019C10.5289 3.99037 10.5634 4.00387 10.6039 4.03087C10.6241 4.04437 10.6511 4.05787 10.6714 4.07812C10.7 4.0986 10.7271 4.12116 10.7524 4.14562C10.8739 4.25362 11.0096 4.38262 11.1649 4.53787C11.3134 4.68637 11.4694 4.84912 11.6314 5.02537C11.7866 5.19337 11.9291 5.34937 12.0574 5.47762C12.1181 5.41687 12.1789 5.34937 12.2404 5.27512C12.3146 5.19337 12.3889 5.11237 12.4631 5.02462C12.5381 4.94362 12.6116 4.85587 12.6934 4.78087C12.7676 4.69987 12.8419 4.62562 12.9161 4.55137L13.0241 4.44337C13.0654 4.40287 13.1059 4.36837 13.1396 4.33462C13.2071 4.27462 13.2679 4.21987 13.3286 4.17262C13.4576 4.06462 13.5521 4.01737 13.6264 4.01737C13.6534 4.01737 13.6804 4.02412 13.7074 4.03087L13.6331 3.94237L13.4366 3.90187C13.4299 3.90187 13.4231 3.90187 13.4164 3.89512C13.3564 3.88162 13.2949 3.87487 13.2341 3.86812H13.2206C13.1599 3.86137 13.0924 3.84787 13.0316 3.84112H13.0241C12.6866 3.80062 12.3416 3.77362 11.9899 3.77362H11.8001C11.7401 3.77362 11.6854 3.78112 11.6314 3.78112H11.6111C11.5504 3.78112 11.4964 3.78712 11.4356 3.79387H11.4281C11.1176 3.81412 10.8131 3.85462 10.5154 3.90862C10.4884 3.93562 10.4681 3.96337 10.4411 3.99712C10.4546 3.99712 10.4614 3.98962 10.4749 3.98962V3.99037ZM5.83612 7.83787C5.86987 7.81087 5.91112 7.77037 5.97862 7.74337C6.0572 7.70728 6.14199 7.68665 6.22837 7.68262C6.34312 7.67512 6.43087 7.70962 6.47887 7.72312C7.55362 6.51262 8.62912 5.30812 9.70387 4.09837L9.44062 4.17937C8.83837 4.38187 8.04037 4.72012 7.20862 5.31562C6.4821 5.84326 5.84326 6.4821 5.31562 7.20862C5.26162 7.29037 5.20087 7.36462 5.14612 7.44562C5.37637 7.57387 5.60662 7.70962 5.83612 7.83787ZM5.66062 8.64262C5.6113 8.55113 5.58553 8.44881 5.58562 8.34487V8.29762C5.58562 8.29762 5.59312 8.26387 5.59312 8.25037L4.89562 7.85812C4.2115 9.02173 3.82604 10.3366 3.77362 11.6854V12.2539C3.79387 12.8891 3.88162 13.5049 4.03762 14.0929C4.63912 12.3484 5.24812 10.6106 5.84962 8.86537C5.77122 8.8057 5.70673 8.7297 5.66062 8.64262ZM13.8701 4.41637C13.8545 4.4645 13.8318 4.51001 13.8026 4.55137C13.757 4.63508 13.7072 4.71643 13.6534 4.79512C13.6196 4.84237 13.5859 4.89637 13.5521 4.95037C13.4638 5.07963 13.3713 5.20595 13.2746 5.32912C13.2274 5.38312 13.1869 5.44387 13.1396 5.50462C13.1321 5.51212 13.1261 5.52487 13.1194 5.53162C13.0316 5.64037 12.9364 5.75512 12.8351 5.86987C12.7601 5.95762 12.6926 6.03937 12.6116 6.12712C12.7136 6.24187 12.8284 6.36337 12.9431 6.49912C12.9836 6.53962 13.0241 6.58687 13.0586 6.63412C13.1396 6.72187 13.2139 6.80962 13.2881 6.89812L13.5049 7.15462C13.6399 7.32412 13.7546 7.47262 13.8499 7.60762C13.9309 7.72987 13.9714 7.81762 13.9849 7.88512V7.91212C13.9849 7.97962 13.9511 8.04712 13.8904 8.10862H17.1229C17.1431 8.05547 17.1703 8.00528 17.2039 7.95937L13.8964 4.24687V4.26037C13.8984 4.31362 13.8894 4.36671 13.8701 4.41637ZM15.8104 4.71337C15.7969 4.70662 15.7901 4.69987 15.7766 4.69987C15.6861 4.65082 15.5936 4.60578 15.4991 4.56487C15.4813 4.56002 15.4651 4.55073 15.4519 4.53787C15.3624 4.49611 15.2724 4.45561 15.1819 4.41637C15.1616 4.40887 15.1481 4.40287 15.1279 4.39612C15.0302 4.35355 14.9309 4.31502 14.8301 4.28062C14.8166 4.27387 14.8031 4.27387 14.7896 4.26712C14.6884 4.22662 14.5796 4.19287 14.4716 4.15912C15.5201 5.33587 16.5679 6.51937 17.6231 7.69612C17.6366 7.69612 17.6569 7.68862 17.6704 7.68862H17.8121C17.8459 7.69612 17.9066 7.70287 17.9816 7.72987C17.9884 7.72987 17.9951 7.73662 18.0019 7.74337C18.0086 7.75012 18.0221 7.75012 18.0289 7.75687C18.0796 7.78282 18.1272 7.81453 18.1706 7.85137C18.1774 7.85137 18.1774 7.85812 18.1841 7.85812C18.2044 7.87162 18.2179 7.89187 18.2314 7.90537C18.4549 7.77712 18.6776 7.65487 18.8944 7.52662C18.184 6.44054 17.23 5.53528 16.1081 4.88287H16.1014C16.0069 4.82212 15.9049 4.76737 15.8104 4.71337ZM13.2746 8.01337C13.2409 7.98637 13.2139 7.95937 13.1801 7.93237L12.9701 7.74337L12.8621 7.63462C12.7421 7.51796 12.627 7.39635 12.5171 7.27012C12.4361 7.18162 12.3619 7.09387 12.2876 7.01287C12.2126 6.92512 12.1316 6.84337 12.0574 6.76237C11.8076 7.01962 11.5976 7.24237 11.4221 7.43212C11.3816 7.47262 11.3404 7.51987 11.2999 7.56037L11.2864 7.57387C11.2054 7.65487 11.1379 7.72987 11.0704 7.79737L10.9759 7.89187C10.8945 7.97124 10.8086 8.04587 10.7186 8.11537H13.3894C13.3826 8.10787 13.3691 8.10187 13.3624 8.09512C13.3354 8.06062 13.3024 8.04037 13.2746 8.01337ZM6.86437 8.10862H10.2049C10.1914 8.09512 10.1779 8.07412 10.1644 8.06062C10.1509 8.04712 10.1441 8.02687 10.1366 8.01337C10.1231 7.97962 10.1096 7.94587 10.1096 7.91212C10.1096 7.89187 10.1171 7.86487 10.1231 7.83112C10.1231 7.82362 10.1306 7.81762 10.1306 7.81087C10.1366 7.79737 10.1441 7.77712 10.1576 7.75687C10.1779 7.71637 10.2049 7.66837 10.2386 7.62187C10.2454 7.61437 10.2454 7.60762 10.2521 7.60762C10.4548 7.32278 10.6736 7.04983 10.9076 6.79012C10.9507 6.73871 10.9958 6.68892 11.0426 6.64087C11.0906 6.59362 11.1311 6.53962 11.1784 6.49237C11.2796 6.37687 11.3809 6.26212 11.4694 6.15412C11.4761 6.14662 11.4829 6.14062 11.4829 6.13387C11.2361 5.84778 10.9948 5.55698 10.7591 5.26162C10.6916 5.17312 10.6309 5.08537 10.5701 5.00437C10.4699 4.86292 10.3772 4.71621 10.2926 4.56487L10.2521 4.48387C10.2386 4.45687 10.2319 4.42987 10.2184 4.40887C10.2049 4.36162 10.1914 4.32112 10.1914 4.28737L6.83662 8.04712C6.84412 8.06737 6.85762 8.08837 6.86437 8.10862ZM12.3011 20.2196C14.4611 20.1412 16.5027 19.2128 17.9816 17.6366C16.0879 18.0559 14.1941 18.4751 12.3011 18.8876V20.2196ZM20.1319 13.2139C20.1386 13.1869 20.1386 13.1666 20.1454 13.1389C20.1521 13.0714 20.1656 13.0114 20.1724 12.9439V12.9364L20.1926 12.7264C20.1926 12.7069 20.1994 12.6866 20.1994 12.6664C20.1994 12.6259 20.2061 12.5914 20.2061 12.5509C20.2196 12.3409 20.2264 12.1459 20.2264 11.9629C20.2203 10.7326 19.9384 9.51928 19.4014 8.41237L19.3811 8.37187C19.3541 8.31112 19.3204 8.25712 19.2934 8.19637L19.2529 8.11537C19.2191 8.05387 19.1854 7.98637 19.1509 7.92562C18.9011 8.06812 18.6574 8.20312 18.4076 8.34562C18.4076 8.36512 18.4076 8.38537 18.4001 8.40562C18.3941 8.44612 18.3866 8.48062 18.3799 8.51437C18.3731 8.53462 18.3664 8.54812 18.3596 8.56837C18.3404 8.61831 18.3155 8.66587 18.2854 8.71012C18.2719 8.72362 18.2651 8.73712 18.2516 8.75062C18.8404 10.4479 19.4284 12.1384 20.0164 13.8356C20.0509 13.6939 20.0779 13.5454 20.1049 13.4029C20.1049 13.3894 20.1116 13.3759 20.1116 13.3556C20.1199 13.3083 20.1266 13.2608 20.1319 13.2131V13.2139Z" fill="#436697"/>
<path fill-rule="evenodd" clip-rule="evenodd" d="M12.0304 18.1638L6.71512 8.81134L12.0304 18.1638L17.3254 8.85184L12.0304 18.1638Z" fill="#436697"/>
<path d="M17.1289 8.58185C17.1697 8.68742 17.2375 8.78049 17.3254 8.85185L12.0304 18.1638L6.71511 8.81135C6.77856 8.74469 6.82916 8.66688 6.86436 8.58185H17.1289ZM11.7799 14.6883C11.6869 14.6883 11.6111 14.7633 11.6111 14.8571V14.8601C11.6111 14.9426 11.6629 15.0078 11.7349 15.0266L11.7799 15.0326C11.8025 15.0329 11.8249 15.0286 11.8458 15.02C11.8667 15.0115 11.8856 14.9987 11.9015 14.9826C11.9173 14.9665 11.9297 14.9473 11.938 14.9262C11.9462 14.9052 11.9501 14.8827 11.9494 14.8601V14.8571C11.9494 14.8349 11.945 14.8129 11.9364 14.7923C11.9279 14.7718 11.9154 14.7532 11.8997 14.7375C11.8839 14.7218 11.8652 14.7094 11.8447 14.701C11.8241 14.6925 11.8021 14.6882 11.7799 14.6883ZM10.3541 13.0233C10.3204 13.0233 10.2875 13.0334 10.2595 13.0522C10.2316 13.0711 10.2099 13.0978 10.1974 13.1291L10.1914 13.1471L10.1854 13.1921C10.1854 13.2873 10.2596 13.3616 10.3541 13.3616C10.4486 13.3616 10.5229 13.2873 10.5229 13.1928C10.5229 13.0983 10.4486 13.0233 10.3541 13.0233ZM13.0661 9.69635C12.7279 9.5711 12.5276 9.7076 12.4406 9.79835L12.4339 9.80585C12.4137 9.82551 12.3965 9.84799 12.3829 9.8726C12.3829 9.87935 12.3754 9.8861 12.3829 9.8861C12.3829 9.89285 12.3896 9.89285 12.3964 9.8996C12.9979 10.1973 13.4516 10.4268 13.6474 10.5281L13.6676 10.5416C13.6879 10.5551 13.7486 10.5828 13.7554 10.6301C13.7636 10.6698 13.7381 10.7103 13.7044 10.7463L13.6751 10.7748L13.6406 10.8056L13.6106 10.8311C13.5334 10.8956 13.4299 10.9796 12.8629 11.4213C12.8398 11.4446 12.8122 11.463 12.7819 11.4753C12.7528 11.4914 12.7205 11.5006 12.6874 11.5023H12.6671C12.6334 11.5023 12.6056 11.5023 12.4909 11.4551C12.4415 11.4361 12.3882 11.4291 12.3356 11.4348L12.2681 11.4551C12.2546 11.4618 12.2479 11.4686 12.2344 11.4753C12.2282 11.4812 12.2216 11.4867 12.2149 11.4918L12.2276 11.4821C12.2102 11.4939 12.1942 11.5075 12.1796 11.5226C12.1729 11.5293 12.1729 11.5361 12.1729 11.5428C12.1834 11.5428 12.1901 11.5428 12.1954 11.5458L12.1976 11.5518L12.2074 11.5563C12.2209 11.5563 12.2276 11.5563 12.2411 11.5631C12.2578 11.5635 12.274 11.5681 12.2884 11.5766C12.3441 11.5994 12.3969 11.6286 12.4459 11.6636L12.4099 11.6373C12.4385 11.6578 12.4656 11.6804 12.4909 11.7048C12.5153 11.7302 12.5379 11.7572 12.5584 11.7858L12.6199 11.8743L12.6739 11.9486C12.6891 11.9785 12.7005 12.0103 12.7076 12.0431C12.721 12.0894 12.7278 12.1374 12.7279 12.1856V12.2666C12.7279 12.2733 12.7279 12.2801 12.7346 12.2868L12.7376 12.2883L12.7414 12.2936H12.7616C12.7819 12.2801 12.8021 12.2733 12.8156 12.2598C12.8224 12.2463 12.8359 12.2396 12.8426 12.2328C12.8618 12.2196 12.8761 12.2003 12.8831 12.1781C12.9101 12.1181 12.9101 12.0566 12.9101 12.0228C12.8966 11.8946 12.9101 11.8676 12.9236 11.8406C12.9236 11.8331 12.9311 11.8271 12.9311 11.8203C12.9432 11.7898 12.9613 11.762 12.9844 11.7386C13.0099 11.7141 13.0372 11.6915 13.0661 11.6711C13.3186 11.4892 13.5759 11.3141 13.8379 11.1461L13.8844 11.1161C13.9444 11.0831 14.0329 11.0223 14.0944 11.0561C14.1025 11.0609 14.1098 11.067 14.1161 11.0741C14.1341 11.1033 14.1431 11.1446 14.1476 11.1641L14.1551 11.1978C14.1949 11.4348 14.2766 11.9216 14.3779 12.5703C14.3779 12.5778 14.3846 12.5838 14.3846 12.5838C14.3854 12.5883 14.3869 12.5913 14.3914 12.5913C14.3981 12.5973 14.3981 12.5973 14.4049 12.5973C14.4116 12.5973 14.7971 12.5096 14.7701 12.0026L14.7161 10.7921V10.7621C14.7174 10.6991 14.7333 10.6372 14.7626 10.5814C14.7919 10.5255 14.8337 10.4773 14.8849 10.4403L15.2501 10.1501C15.2501 10.1501 15.4729 9.9941 15.4324 9.7511C15.4256 9.7436 15.4256 9.7376 15.4189 9.7376L15.4241 9.7406C15.4189 9.73235 15.4159 9.7301 15.4121 9.7301C15.1894 9.61535 14.9794 9.78485 14.9794 9.78485L14.5871 10.0481C14.5335 10.0906 14.4695 10.1181 14.4017 10.1276C14.3339 10.1371 14.2649 10.1283 14.2016 10.1021L13.8364 9.9746L13.0661 9.69635ZM10.0226 10.1021C9.97779 10.1023 9.93487 10.1202 9.90324 10.152C9.87162 10.1838 9.85386 10.2268 9.85386 10.2716V10.2746C9.85386 10.3571 9.90561 10.4216 9.97761 10.4411L10.0226 10.4471C10.0452 10.4474 10.0676 10.4431 10.0885 10.4345C10.1095 10.426 10.1284 10.4132 10.1442 10.3971C10.1601 10.381 10.1725 10.3618 10.1807 10.3407C10.1889 10.3197 10.1928 10.2972 10.1921 10.2746V10.2716C10.1921 10.2266 10.1743 10.1835 10.1425 10.1517C10.1107 10.12 10.0676 10.1021 10.0226 10.1021ZM11.3006 9.25685C11.2558 9.25705 11.2129 9.27499 11.1812 9.30676C11.1496 9.33852 11.1319 9.38152 11.1319 9.42635V9.42935C11.1319 9.51185 11.1836 9.57635 11.2556 9.59585L11.3006 9.60185C11.3232 9.60216 11.3456 9.59789 11.3665 9.5893C11.3875 9.5807 11.4064 9.56796 11.4222 9.55184C11.4381 9.53571 11.4505 9.51655 11.4587 9.4955C11.4669 9.47444 11.4708 9.45194 11.4701 9.42935V9.42635C11.4701 9.38139 11.4523 9.33828 11.4205 9.30649C11.3887 9.27471 11.3456 9.25685 11.3006 9.25685ZM8.21061 9.25685C8.18835 9.25685 8.16631 9.26123 8.14575 9.26975C8.12518 9.27827 8.10649 9.29075 8.09076 9.30649C8.07502 9.32223 8.06253 9.34092 8.05401 9.36148C8.04549 9.38205 8.04111 9.40409 8.04111 9.42635L8.04186 9.42935C8.04186 9.51185 8.09286 9.57635 8.16486 9.59585L8.20986 9.60185C8.23246 9.60216 8.25489 9.59789 8.2758 9.5893C8.2967 9.5807 8.31565 9.56796 8.33149 9.55184C8.34733 9.53571 8.35974 9.51655 8.36797 9.4955C8.3762 9.47444 8.38007 9.45194 8.37936 9.42935V9.42635C8.37936 9.3326 8.30436 9.25685 8.21061 9.25685ZM6.01911 16.8723C6.04611 16.7433 6.07911 16.6083 6.12036 16.4523L6.16086 16.2903C6.22161 16.0743 6.28911 15.8441 6.37086 15.6078C6.39036 15.5471 6.41061 15.4923 6.42411 15.4383C6.45861 15.3303 6.49161 15.2223 6.52611 15.1211C6.53869 15.0726 6.55448 15.025 6.57336 14.9786C6.39036 14.9381 6.17436 14.8841 5.94411 14.8361C5.7175 14.7854 5.49219 14.7292 5.26836 14.6673C5.10561 14.6201 4.95711 14.5796 4.82886 14.5323C4.78161 14.5188 4.74036 14.4986 4.69986 14.4851C4.65159 14.4673 4.60428 14.447 4.55811 14.4243C4.52263 14.4071 4.48875 14.3868 4.45686 14.3636C4.39611 14.5323 4.34136 14.7011 4.28061 14.8706C4.57161 15.6483 4.97061 16.3653 5.47086 17.0141C5.64711 17.0546 5.81586 17.0891 5.99136 17.1288C5.98921 17.0425 5.99854 16.9562 6.01911 16.8723ZM4.62561 13.8633C4.67961 13.8558 4.73361 13.8491 4.80186 13.8491C4.95711 13.8491 5.13936 13.8566 5.34936 13.8768C5.56536 13.8971 5.80236 13.9308 6.05961 13.9781C6.32286 14.0253 6.59361 14.0726 6.87111 14.1333C6.94536 13.9233 7.01961 13.7006 7.10061 13.4576C7.21325 13.1264 7.33732 12.7992 7.47261 12.4766C7.51049 12.3899 7.55101 12.3043 7.59411 12.2201C7.62111 12.1586 7.64811 12.1113 7.67586 12.0708C7.69769 12.0372 7.72254 12.0055 7.75011 11.9763C7.76418 11.9629 7.78009 11.9516 7.79736 11.9426C7.82792 11.9243 7.863 11.915 7.89861 11.9156L6.29661 9.0551L4.62636 13.8626L4.62561 13.8633ZM8.87886 15.4586C8.82486 15.4451 8.76411 15.4383 8.71011 15.4248C8.59009 15.4027 8.47057 15.3779 8.35161 15.3506L8.16936 15.3101C7.91886 15.2561 7.68936 15.2088 7.47261 15.1676C7.42536 15.3033 7.37811 15.4316 7.32411 15.5673C7.27846 15.6952 7.22868 15.8215 7.17486 15.9461C7.12761 16.0676 7.08036 16.1823 7.03311 16.2971C6.98818 16.402 6.94066 16.5058 6.89061 16.6083C6.81195 16.7756 6.72406 16.9383 6.62736 17.0958C6.6002 17.1475 6.56614 17.1952 6.52611 17.2376L11.5841 18.3528L9.90036 15.4653L9.87336 15.4923C9.86158 15.5039 9.84787 15.5133 9.83286 15.5201C9.77211 15.5538 9.65661 15.5606 9.48036 15.5471C9.33572 15.5314 9.19164 15.5109 9.04836 15.4856C8.98761 15.4788 8.93361 15.4653 8.87886 15.4586ZM8.24361 12.7473C8.23011 12.8148 8.20986 12.8898 8.18961 12.9701L8.14911 13.1328C8.10186 13.2948 8.05386 13.4643 7.99311 13.6398C7.95181 13.7561 7.91355 13.8734 7.87836 13.9916C7.83786 14.1063 7.80336 14.2211 7.76361 14.3291C7.94586 14.3771 8.12211 14.4176 8.27736 14.4581C8.35836 14.4783 8.43261 14.4986 8.50761 14.5121C8.58186 14.5323 8.64936 14.5458 8.71686 14.5661C8.75061 14.5736 8.78436 14.5796 8.81136 14.5931L8.90661 14.6133C8.96661 14.6268 9.02136 14.6403 9.07536 14.6606C9.18336 14.6883 9.28536 14.7153 9.36636 14.7423C9.44736 14.7626 9.51486 14.7896 9.57636 14.8098L8.29086 12.5508C8.27037 12.6151 8.25458 12.6808 8.24361 12.7473ZM7.42536 18.8403C7.56036 18.9281 7.70286 19.0158 7.85811 19.1036C8.27736 19.3473 8.67636 19.5296 9.03486 19.6721C9.13611 19.7126 9.23736 19.7531 9.35286 19.7936C10.1466 20.062 10.9766 20.2079 11.8144 20.2263V18.8943C9.86661 18.4683 7.92561 18.0356 5.97786 17.6096C6.41556 18.0696 6.90077 18.4819 7.42536 18.8396V18.8403Z" fill="#436697"/>
</svg>
