<?xml version="1.0" encoding="utf-8"?>
<!-- Generator: Adobe Illustrator 19.0.0, SVG Export Plug-In . SVG Version: 6.00 Build 0)  -->
<svg version="1.1" id="Layer_1" xmlns="http://www.w3.org/2000/svg" xmlns:xlink="http://www.w3.org/1999/xlink" x="0px" y="0px"
	 viewBox="0 0 1024 1024" style="enable-background:new 0 0 1024 1024;" xml:space="preserve">
<style type="text/css">
	.st0{fill:#FFFFFF;}
	.st1{fill:url(#XMLID_2_);}
</style>
<g id="XMLID_3_">
	<circle id="XMLID_4_" class="st0" cx="512" cy="512.9" r="497.2"/>
	
		<linearGradient id="XMLID_2_" gradientUnits="userSpaceOnUse" x1="-482.2892" y1="267.9627" x2="423.2673" y2="-306.8956" gradientTransform="matrix(1 0 0 1 535.4571 536.2386)">
		<stop  offset="0" style="stop-color:#00C7FF"/>
		<stop  offset="0.3568" style="stop-color:#00BEFF"/>
		<stop  offset="0.9483" style="stop-color:#00A4FF"/>
		<stop  offset="0.9944" style="stop-color:#00A2FF"/>
	</linearGradient>
	<circle id="XMLID_751_" class="st1" cx="512" cy="512.9" r="487.7"/>
	<path id="XMLID_21_" class="st0" d="M683.6,485.3c-28.3-0.7-53.7,12.2-70.1,32.6c-4.7,5.9-13.2,7.3-19.6,3.3l-64.5-39.7
		c-4.5-2.7-7.2-7.6-7.2-12.9v-0.6c0-7,4.8-12.9,11.5-14.7c39.5-10.3,68-47.4,65-90.8c-3.1-43.7-39-78.7-82.8-80.7
		c-50-2.3-91.3,37.6-91.3,87.1c0,38.6,25,71.3,59.7,82.8c6.2,2.1,10.4,7.8,10.4,14.3v3.7c0,5.5-3,10.5-7.7,13.2l-61.4,34.4
		c-6.1,3.4-13.8,2.3-18.5-2.9c-16.3-18.2-40.1-29.6-66.5-29.2c-47.3,0.7-85.7,39.8-85.8,87.1c-0.1,49.1,40.5,88.8,89.9,87.3
		c45.1-1.4,82.1-37.6,84.4-82.6c0.3-5.7,0-11.4-0.8-16.9c-0.8-5.9,1.9-11.7,7-14.9l63.8-39.4c4.8-3,10.8-3,15.7-0.1l72.7,43.5
		c5,3,7.8,8.6,7.3,14.4c-0.5,5.3-0.6,10.8-0.1,16.3c3.7,43.1,39.1,77.3,82.4,79.5c51.3,2.6,93.5-39.1,91.6-90.3
		C767,523.5,729.4,486.4,683.6,485.3z"/>
	<path id="XMLID_18_" class="st0" d="M510.5,59.2c-249.8,0-452.3,202.5-452.3,452.3s202.5,452.3,452.3,452.3
		c249.8,0,452.3-202.5,452.3-452.3S760.3,59.2,510.5,59.2z M510.5,925C282.2,925,97,739.9,97,511.5S282.2,98,510.5,98
		c228.4,0,413.5,185.1,413.5,413.5S738.9,925,510.5,925z"/>
	<path id="XMLID_17_" class="st0" d="M731.4,375.2c-0.7,23.8-5.1,46.6-12.7,67.9c56.3,16.1,97.4,68,97.4,129.4
		c0,74.3-60.3,134.6-134.6,134.6c-69.8,0-127.2-53.2-133.9-121.2c-11.7,1.9-23.6,2.9-35.8,2.9c-11.3,0-22.4-0.9-33.2-2.5
		c7.1,105.9,95.3,189.6,203,189.6c112.4,0,203.4-91.1,203.4-203.4C885,477.3,819.7,397.5,731.4,375.2z"/>
	<g id="XMLID_15_">
		<path id="XMLID_16_" class="st0" d="M342,707.1c-74.3,0-134.6-60.3-134.6-134.6c0-74.3,60.3-134.6,134.6-134.6
			c29.6,0,56.9,9.6,79.1,25.7c-24-23-39.3-55.2-40.3-90.8c-12.6-2.4-25.6-3.7-38.8-3.7c-112.4,0-203.4,91.1-203.4,203.4
			c0,112.4,91.1,203.4,203.4,203.4c64.5,0,122-30,159.3-76.9c-16-22.7-27.8-48.6-34.3-76.6C447.1,672.1,398.6,707.1,342,707.1z"/>
	</g>
	<g id="XMLID_13_">
		<path id="XMLID_14_" class="st0" d="M642.8,369c0,37.1-15.5,70.7-40.3,94.5c22.2-16.1,49.5-25.7,79-25.7c7.9,0,15.6,0.7,23.1,2
			c8.1-22.1,12.5-45.9,12.5-70.8c0-113.5-92-205.5-205.5-205.5c-108.8,0-197.8,84.5-205,191.5c11.5-1.8,23.2-2.8,35.2-2.8
			c13.5,0,26.6,1.2,39.4,3.5C388,289.6,443.9,238,511.7,238C584.1,238,642.8,296.7,642.8,369z"/>
	</g>
</g>
</svg>
