<svg xmlns="http://www.w3.org/2000/svg" xmlns:xlink="http://www.w3.org/1999/xlink" width="16" height="16" viewBox="-503 505 16 16">
	<path fill="currentColor" d="M-493.7,514.2c0.1,0.7,0.6,1.3,1.3,1.3c0.8,0,1.5-0.6,1.5-1.5c0-0.7-0.6-1.3-1.4-1.4c-0.5,0-0.9,0.2-1.1,0.5
		c-0.1,0.1-0.2,0.1-0.3,0.1l-1-0.6c-0.1,0-0.1-0.1-0.1-0.2v0c0-0.1,0.1-0.2,0.2-0.2c0.6-0.2,1.1-0.8,1.1-1.5
		c-0.1-0.7-0.6-1.3-1.3-1.3c-0.8,0-1.5,0.6-1.5,1.4c0,0.6,0.4,1.2,1,1.3c0.1,0,0.2,0.1,0.2,0.2v0.1c0,0.1,0,0.2-0.1,0.2l-1,0.6
		c-0.1,0.1-0.2,0-0.3,0c-0.3-0.3-0.7-0.5-1.1-0.5c-0.8,0-1.4,0.6-1.4,1.4c0,0.8,0.7,1.4,1.5,1.4c0.7,0,1.3-0.6,1.4-1.3
		c0-0.1,0-0.2,0-0.3c0-0.1,0-0.2,0.1-0.2l1-0.6c0.1,0,0.2,0,0.3,0l1.2,0.7c0.1,0,0.1,0.1,0.1,0.2
		C-493.7,514-493.7,514.1-493.7,514.2z"/>
	<path fill="currentColor" d="M-495.1,505.7c-4.1,0-7.4,3.3-7.4,7.4c0,4.1,3.3,7.4,7.4,7.4c4.1,0,7.4-3.3,7.4-7.4C-487.7,509-491,505.7-495.1,505.7z
		 M-495.1,519.8c-3.7,0-6.7-3-6.7-6.7c0-3.7,3-6.7,6.7-6.7c3.7,0,6.7,3,6.7,6.7C-488.3,516.8-491.3,519.8-495.1,519.8z"/>
	<path fill="currentColor" d="M-491.5,510.8c0,0.4-0.1,0.8-0.2,1.1c0.9,0.3,1.6,1.1,1.6,2.1c0,1.2-1,2.2-2.2,2.2c-1.1,0-2.1-0.9-2.2-2
		c-0.2,0-0.4,0-0.6,0c-0.2,0-0.4,0-0.5,0c0.1,1.7,1.5,3.1,3.3,3.1c1.8,0,3.3-1.5,3.3-3.3C-489,512.5-490,511.2-491.5,510.8z"/>
	<path fill="currentColor" d="M-497.8,516.2c-1.2,0-2.2-1-2.2-2.2s1-2.2,2.2-2.2c0.5,0,0.9,0.2,1.3,0.4c-0.4-0.4-0.6-0.9-0.7-1.5c-0.2,0-0.4-0.1-0.6-0.1
		c-1.8,0-3.3,1.5-3.3,3.3c0,1.8,1.5,3.3,3.3,3.3c1,0,2-0.5,2.6-1.3c-0.3-0.4-0.5-0.8-0.6-1.2C-496.1,515.7-496.9,516.2-497.8,516.2z"/>
	<path fill="currentColor" d="M-497.2,510.5c0.1-1.1,1-1.9,2.1-1.9c1.2,0,2.1,1,2.1,2.1c0,0.6-0.3,1.1-0.7,1.5c0.4-0.3,0.8-0.4,1.3-0.4
		c0.1,0,0.3,0,0.4,0c0.1-0.4,0.2-0.7,0.2-1.2c0-1.8-1.5-3.3-3.3-3.3c-1.8,0-3.2,1.4-3.3,3.1c0.2,0,0.4,0,0.6,0
		C-497.6,510.5-497.4,510.5-497.2,510.5z"/>
</svg>
