<svg xmlns="http://www.w3.org/2000/svg" xmlns:xlink="http://www.w3.org/1999/xlink" width="16" height="16" viewBox="-503 505 16 16">
	<path fill="currentColor" d="M-495,505.8c-4,0-7.2,3.3-7.2,7.3c0,4,3.3,7.2,7.3,7.2c4,0,7.2-3.3,7.2-7.3C-487.8,509-491,505.7-495,505.8z
	 	M-495,519.6c-3.6,0-6.6-2.9-6.6-6.5c0-3.6,2.9-6.6,6.5-6.6c3.6,0,6.6,2.9,6.6,6.5C-488.4,516.6-491.4,519.5-495,519.6z"/>
	<path fill="currentColor" d="M-498.9,513.1c-0.1,0.1-0.2,0.2-0.3,0.2s-0.3,0-0.4,0c-0.1,0-0.3-0.1-0.4-0.2s-0.2-0.2-0.2-0.3
		c0-0.1,0-0.3,0-0.4c0-0.2,0.1-0.3,0.2-0.4c0.1-0.1,0.2-0.2,0.3-0.2s0.3,0,0.4,0c0.1,0,0.3,0.1,0.4,0.2c0.1,0.1,0.2,0.2,0.2,0.3
		c0,0.1,0,0.3,0,0.4C-498.7,512.9-498.8,513-498.9,513.1z M-499,512.3c-0.1-0.1-0.2-0.2-0.3-0.2c-0.1,0-0.2,0-0.2,0
		c-0.1,0-0.1,0-0.2,0.1c-0.1,0-0.1,0.1-0.1,0.2c0,0.1,0,0.2,0.1,0.3c0.1,0.1,0.2,0.2,0.3,0.2c0.1,0,0.3,0,0.4,0s0.2-0.1,0.2-0.3
		C-498.9,512.5-499,512.4-499,512.3z"/>
	<path fill="currentColor" d="M-498.9,511.2l0,0.2l0.5,0.1l-0.1,0.3l-1.4-0.4l0.1-0.6c0.1-0.4,0.3-0.5,0.6-0.4c0.2,0.1,0.3,0.2,0.3,0.4
		l0.6-0.2l-0.1,0.4L-498.9,511.2z M-499.2,511.3l0.1-0.2c0-0.1,0-0.2-0.1-0.2c-0.1,0-0.1,0-0.1,0c0,0-0.1,0.1-0.1,0.1l-0.1,0.2
		L-499.2,511.3z"/>
	<path fill="currentColor" d="M-498.2,509.5l0.3,0.1l-0.2,1l-1.4-0.4l0.2-0.9l0.3,0.1l-0.2,0.6l0.3,0.1l0.1-0.5l0.3,0.1l-0.1,0.5
		l0.3,0.1L-498.2,509.5z"/>
	<path fill="currentColor" d="M-499.2,513.5C-499.2,513.5-499.2,513.5-499.2,513.5c-0.1,0.1-0.1,0.1-0.1,0.2c0,0.1,0,0.1,0,0.2
		c0,0.1-0.1,0.2-0.2,0.3c-0.1,0.1-0.2,0.1-0.4,0c-0.1,0-0.2-0.1-0.2-0.1c-0.1-0.1-0.1-0.1-0.1-0.2c0-0.1,0-0.2,0-0.2
		c0-0.1,0.1-0.2,0.1-0.3c0,0,0,0,0,0c-0.1-0.1-0.1-0.1-0.1-0.2c-0.1,0.1-0.1,0.1-0.1,0.1c0,0.1-0.1,0.1-0.1,0.2c0,0,0,0.1-0.1,0.2
		c0,0.2,0,0.3,0,0.4c0,0.1,0.1,0.2,0.2,0.3c0.1,0.1,0.2,0.1,0.4,0.2c0.2,0.1,0.4,0,0.6,0c0.2-0.1,0.3-0.3,0.3-0.5c0-0.1,0-0.2,0-0.2
		c0-0.1,0-0.2,0-0.3h0C-499,513.4-499.1,513.5-499.2,513.5z"/>
	<path fill="currentColor" d="M-491,514.7c-0.2-1-1-1.3-1-1.3l0,0c0.8-0.1,1.1-0.9,1.2-1c0-0.1,0.4-1-0.3-1.7c-0.5-0.6-1.3-0.9-1.5-0.9
		l0.4-1.7l-1-0.3l-0.4,1.6h0l-0.8-0.2l0.4-1.7l-1-0.3l-0.4,1.6l-2-0.6l-0.3,1.1c0,0,0.4,0.1,0.8,0.2c0.4,0.1,0.3,0.5,0.3,0.6
		c0,0.1-0.9,3.7-1.1,4.2s-0.7,0.3-0.7,0.3l-0.6-0.2l-0.5,1.1l2,0.6l0.1,0l-0.4,1.6l1,0.3l0.4-1.6l0.6,0.2l0.1,0l-0.4,1.6l1,0.3
		l0.4-1.7c0.1,0,0.3,0.1,0.6,0.1c0.8,0.2,1.7,0,2.3-0.6C-491.1,516.2-490.9,515.4-491,514.7z M-492.6,511.8c-0.3,1.2-2,0.6-2.5,0.5
		l0.5-2C-494.6,510.3-492.4,510.7-492.6,511.8z M-494.3,515.8c-1-0.1-1.6-0.4-1.6-0.4l0.5-2.1c0,0,0.9,0.1,1.6,0.5s0.8,0.9,0.7,1.2
		C-493.1,515.2-493.4,515.9-494.3,515.8z"/>
</svg>
