<svg width="24" height="24" viewBox="0 0 24 24" fill="none">
<path d="M11.9996 5.34735C9.21932 5.34735 6.94757 7.60635 6.94757 10.3994C6.94757 10.9611 7.04057 11.5094 7.21457 12.0434C7.27616 12.2197 7.40451 12.3647 7.57199 12.4473C7.73947 12.53 7.93269 12.5435 8.11007 12.4851C8.28623 12.4234 8.43113 12.2949 8.5136 12.1275C8.59607 11.96 8.60952 11.7669 8.55107 11.5896C8.40443 11.1733 8.33653 10.7333 8.35082 10.2921C8.40407 8.4081 9.92807 6.8571 11.8128 6.7641C12.3065 6.73816 12.8003 6.81292 13.2642 6.98384C13.7281 7.15475 14.1524 7.41825 14.5112 7.7583C14.8701 8.09834 15.156 8.50784 15.3516 8.96187C15.5472 9.4159 15.6484 9.90498 15.6491 10.3994C15.648 11.3291 15.2917 12.2233 14.6533 12.8991C14.0148 13.575 13.1423 13.9814 12.2141 14.0354C12.2141 14.0354 11.5053 14.0751 11.1581 14.1291C10.9841 14.1554 10.8506 14.1824 10.7568 14.1959C10.7163 14.2094 10.6766 14.1689 10.6893 14.1284L10.8101 13.5411L11.4648 10.5201C11.503 10.3395 11.4683 10.1511 11.3683 9.99588C11.2683 9.84069 11.1111 9.73125 10.9308 9.69135C10.7501 9.65321 10.5616 9.688 10.4064 9.78815C10.2512 9.8883 10.1418 10.0457 10.1021 10.2261C10.1021 10.2261 8.52482 17.5776 8.51132 17.6579C8.47318 17.8386 8.50797 18.0271 8.60812 18.1823C8.70827 18.3375 8.86567 18.4469 9.04607 18.4866C9.22681 18.5247 9.4153 18.49 9.57051 18.3898C9.72572 18.2897 9.83509 18.1322 9.87482 17.9519C9.88757 17.8716 10.1021 16.8959 10.1021 16.8959C10.178 16.5381 10.3625 16.2125 10.6305 15.9637C10.8984 15.7148 11.2367 15.5547 11.5991 15.5054C11.8612 15.4766 12.1241 15.4544 12.3873 15.4386C13.6563 15.3397 14.8414 14.766 15.706 13.832C16.5707 12.8979 17.0515 11.6722 17.0523 10.3994C17.0523 7.60635 14.7798 5.34735 11.9996 5.34735ZM12.3603 16.9761C12.2515 16.9526 12.1391 16.951 12.0296 16.9713C11.9202 16.9915 11.8158 17.0333 11.7226 17.0942C11.6294 17.1551 11.5492 17.2339 11.4867 17.326C11.4242 17.4182 11.3805 17.5218 11.3583 17.6309C11.2646 18.0854 11.5458 18.5399 12.0131 18.6336C12.122 18.6572 12.2345 18.6589 12.3441 18.6386C12.4537 18.6183 12.5582 18.5765 12.6515 18.5155C12.7448 18.4545 12.825 18.3756 12.8876 18.2833C12.9501 18.1911 12.9937 18.0873 13.0158 17.9781C13.1088 17.5109 12.8283 17.0691 12.3603 16.9761Z" fill="#E6007A"/>
</svg>
