<svg fill="none" viewBox="0 0 24 24">
  <path fill="url(#a)" fill-rule="evenodd" d="M11.9999 22.5602c5.8322 0 10.5601-4.7279 10.5601-10.56 0-5.8321-4.7279-10.56-10.5601-10.56-3.549 0-6.689 1.7506-8.6036 4.4353h3.9074a.8448.8448 0 0 1 0 1.6896H2.4134a10.4866 10.4866 0 0 0-.4901 1.2668h11.5923a.8448.8448 0 0 1 0 1.6896H1.5425a10.6456 10.6456 0 0 0-.1025 1.4041h4.1244a.8448.8448 0 0 1 0 1.6896h-4.002c.0703.4576.1699.9055.2969 1.3417h11.6563a.8448.8448 0 0 1 0 1.6896H2.5142c.2497.5088.5391.9946.8643 1.4533h3.9252a.8448.8448 0 0 1 .8448.8448.8448.8448 0 0 1-.8448.8448H4.8693c1.8788 1.7208 4.382 2.7708 7.1306 2.7708Zm3.8353-5.9137a.8448.8448 0 1 1 0-1.6897.8448.8448 0 0 1 0 1.6897Zm-.8448-6.9698a.8448.8448 0 1 0 1.6897 0 .8448.8448 0 0 0-1.6897 0ZM8.6454 18.95c0 .4666.3783.8448.8449.8448a.8448.8448 0 1 0-.8448-.8448Zm.8449-11.385a.8448.8448 0 1 1 0-1.6896.8448.8448 0 0 1 0 1.6896Zm.0372 5.2053c0 .4666.3782.8448.8448.8448h9.5014a.8448.8448 0 0 0 0-1.6896h-9.5014a.8448.8448 0 0 0-.8448.8448Zm-1.5654.8448a.8448.8448 0 1 1 .8449-.8448.8448.8448 0 0 1-.8449.8448Z" clip-rule="evenodd"/>
  <circle cx="12" cy="12" r="11.76" stroke="url(#b)" stroke-width=".48"/>
  <defs>
    <linearGradient id="a" x1="18.7583" x2="11.865" y1="4.0802" y2="22.5097" gradientUnits="userSpaceOnUse">
      <stop offset=".0657" stop-color="#B6B2ED"/>
      <stop offset=".2681" stop-color="#DAB9C9"/>
      <stop offset=".4908" stop-color="#ECBBBA"/>
      <stop offset=".741" stop-color="#FBA994"/>
      <stop offset="1" stop-color="#FA9A65"/>
    </linearGradient>
    <linearGradient id="b" x1="22.0892" x2=".4619" y1="0" y2=".4088" gradientUnits="userSpaceOnUse">
      <stop stop-color="#B6B2ED"/>
      <stop offset=".3544" stop-color="#ECBBBA"/>
      <stop offset=".6566" stop-color="#F5AB82"/>
      <stop offset=".8619" stop-color="#B6B2ED"/>
      <stop offset="1" stop-color="#FBA994"/>
    </linearGradient>
  </defs>
</svg>
