<svg width="24" height="24" viewBox="0 0 24 24" fill="none" xmlns="http://www.w3.org/2000/svg">
<g clip-path="url(#clip0)">
<path fill-rule="evenodd" clip-rule="evenodd" d="M17.7188 22.5525L17.7818 22.506C17.6078 22.1873 17.3258 22.02 17.0085 21.9443C16.5555 21.8363 16.095 21.7365 15.633 21.7043C14.6063 21.63 13.5765 21.6128 12.549 21.5505C11.4045 21.4808 10.2615 21.384 9.11627 21.309C9.01652 21.3015 8.87327 21.339 8.81627 21.4103C8.51627 21.7778 8.22602 22.1558 7.95602 22.5458C7.82402 22.737 7.74227 22.962 7.63952 23.1683L7.71827 23.2133C7.26683 23.0409 6.82627 22.8413 6.39902 22.6155C6.47702 22.6305 6.57902 22.6185 6.61727 22.5803C7.08677 22.11 7.54127 21.6248 7.99802 21.1448C7.65677 20.8718 7.32302 20.6295 7.01927 20.355C6.73577 20.0985 6.61727 19.7588 6.64202 19.3695C6.67952 18.7718 6.94127 18.2625 7.32602 17.835C7.78127 17.3303 8.29202 16.875 8.77952 16.3995C8.83952 16.3418 8.90177 16.2885 8.95727 16.2375C8.93852 16.2045 8.93627 16.1948 8.93102 16.191L8.78852 16.1085C7.22252 15.2055 6.44177 13.8338 6.42152 12.0435C6.40352 10.5105 7.05602 9.26925 8.21027 8.28901C9.33527 7.33426 10.6605 6.99901 12.1148 7.03201C13.191 7.05676 14.1968 7.29451 15.1335 7.82926C15.186 7.85926 15.318 7.824 15.366 7.77376C15.8093 7.3095 16.2585 6.84975 16.674 6.36C17.19 5.7525 17.6265 5.0925 17.8073 4.29601C17.9483 3.67501 17.8883 3.09151 17.4383 2.60701C16.7775 1.89526 15.6405 1.99126 15.0608 2.80201C14.9468 2.961 14.8808 3.15451 14.769 3.31726C14.7278 3.37725 14.6228 3.39451 14.5463 3.43201C14.5283 3.36451 14.4863 3.29475 14.496 3.2325C14.5215 3.06151 14.5545 2.88751 14.6108 2.72551C14.8958 1.908 15.4253 1.35001 16.3133 1.22551C16.602 1.18501 16.902 1.21876 17.2035 1.21876C17.1885 1.19851 17.1825 1.18126 17.1705 1.17601C17.1147 1.14594 17.0579 1.11767 17.0003 1.09126C16.4343 0.832674 15.8496 0.617065 15.2513 0.446255C16.375 0.76176 17.4464 1.24035 18.4313 1.86676C18.4373 1.93201 18.4335 1.94926 18.441 1.95826C19.1033 2.77501 19.0185 3.64126 18.6015 4.52326C18.2475 5.26951 17.7315 5.90101 17.1743 6.50251C16.6643 7.05301 16.1513 7.60125 15.6375 8.1525C15.6585 8.16601 15.6705 8.18101 15.6825 8.18101C16.4678 8.18176 17.253 8.19301 18.0375 8.17651C18.447 8.16901 18.8108 8.03325 19.0635 7.671C19.1115 7.60125 19.242 7.5885 19.335 7.54951L19.3875 7.62226C19.17 8.24926 18.9555 8.877 18.726 9.49875C18.7065 9.55126 18.591 9.594 18.5175 9.597C18.24 9.609 17.9625 9.60225 17.685 9.60225H16.6875L16.8008 9.82726C17.3408 10.8848 17.484 12.006 17.211 13.1498C16.8083 14.8373 15.7043 15.9278 14.0985 16.4948C12.7875 16.9583 11.442 16.9418 10.0958 16.62C9.97652 16.5915 9.79202 16.5675 9.72827 16.6313C9.43877 16.9208 9.13277 17.2125 8.92427 17.559C8.49452 18.273 8.74427 18.7695 9.56327 18.942L9.58652 18.945C10.3905 19.0073 11.1938 19.0838 11.9985 19.128C13.137 19.1903 14.277 19.215 15.4148 19.2833C16.104 19.3245 16.7843 19.446 17.4053 19.7753C18.2048 20.1975 18.771 20.82 19.0193 21.7298C19.0778 21.6885 19.1363 21.6473 19.1948 21.6045C18.7275 21.9548 18.2348 22.272 17.7173 22.5525H17.7188ZM14.0813 23.82C13.3533 23.9474 12.6152 24.0076 11.8763 24C12.6146 23.9927 13.3515 23.9326 14.0813 23.82ZM24 12.0375V12C24 10.965 23.8688 9.96075 23.6228 9.00301C23.8678 9.99633 23.9944 11.0152 24 12.0383V12.0375ZM21.21 4.30875C20.5145 3.47659 19.71 2.74197 18.8183 2.12475C19.731 2.78475 20.5305 3.51225 21.2108 4.30875H21.21ZM6.22952 22.5225C5.63756 22.1973 5.07406 21.8227 4.54502 21.4028C5.07977 21.8085 5.66327 22.1565 6.22952 22.5225ZM2.44355e-05 12.0233C0.0014958 11.384 0.0508841 10.7457 0.147774 10.1138C0.0481442 10.7451 -0.00126065 11.3834 2.44355e-05 12.0225V12.0233ZM2.18702 5.09101C2.65774 4.4362 3.18745 3.8259 3.76952 3.26776C3.18243 3.82083 2.65228 4.43139 2.18702 5.09026V5.09101ZM8.34977 0.565505C9.53261 0.200756 10.7623 0.0102555 12 5.08252e-06C10.7614 -0.00113528 9.53002 0.189627 8.34977 0.565505ZM14.6745 12.492L14.6295 12.4808C14.6033 12.1178 14.589 11.7533 14.55 11.3918C14.4615 10.5548 14.2238 9.76426 13.7625 9.05175C13.08 7.99576 11.94 7.56975 10.8465 7.99275C9.94877 8.33925 9.47252 9.05175 9.25802 9.96C9.05402 10.8195 9.07052 11.6903 9.17402 12.5573C9.27377 13.3823 9.50927 14.1675 9.98402 14.8658C10.5945 15.762 11.4458 16.1535 12.504 15.9765C13.509 15.81 14.1405 15.1598 14.3978 14.193C14.5455 13.641 14.586 13.0605 14.6753 12.492H14.6745Z" fill="#377E96"/>
</g>
<defs>
<clipPath id="clip0">
<rect width="24" height="24" fill="white"/>
</clipPath>
</defs>
</svg>
