<svg xmlns="http://www.w3.org/2000/svg" xmlns:xlink="http://www.w3.org/1999/xlink" width="16" height="16" viewBox="-503 505 16 16">
	<path fill="currentColor" d="M-496.8,508.9c0-0.4-0.3-0.7-0.7-0.7h-0.9c-0.4,0-0.7,0.3-0.7,0.7v5.1h2.3V508.9z"/>
	<path fill="currentColor" d="M-494.9,505.4c-4.2,0-7.6,3.4-7.6,7.6c0,4.2,3.4,7.6,7.6,7.6s7.6-3.4,7.6-7.6C-487.3,508.8-490.7,505.4-494.9,505.4z M-494.9,519.7c-3.7,0-6.7-3-6.7-6.7c0-3.7,3-6.7,6.7-6.7s6.7,3,6.7,6.7C-488.1,516.7-491.2,519.7-494.9,519.7z"/>
	<path fill="currentColor" d="M-493.7,508.9c0-0.4-0.3-0.7-0.7-0.7h-0.9c-0.4,0-0.7,0.3-0.7,0.7v5.1h2.3V508.9z"/>
	<path fill="currentColor" d="M-490.6,508.9c0-0.4-0.3-0.7-0.7-0.7h-0.9c-0.4,0-0.7,0.3-0.7,0.7v5.1h2.3V508.9z"/>
	<polygon fill="currentColor" points="-497.1,516.7 -497.7,514.5 -499,514.5 -499,517.8 -498.3,517.8 -498.3,515.3 -497.5,517.8 -496.7,517.8 -495.9,515.3 -495.9,517.8 -495.1,517.8 -495.1,514.5 -496.4,514.5"/>
	<path fill="currentColor" d="M-491.3,515.3c0.1,0,0.3,0,0.4,0.1c0.1-0.2,0.3-0.5,0.5-0.6c-0.2-0.1-0.5-0.2-0.8-0.2c-0.9,0-1.7,0.7-1.7,1.7 c0,0.9,0.7,1.7,1.7,1.7c0.3,0,0.6-0.1,0.8-0.2c-0.2-0.2-0.4-0.4-0.5-0.6c-0.1,0.1-0.2,0.1-0.4,0.1c-0.5,0-0.9-0.4-0.9-0.9 C-492.1,515.7-491.7,515.3-491.3,515.3z"/>
	<path fill="currentColor" d="M-494,516.4h1c0-0.1,0-0.2,0-0.2c0-0.1,0-0.2,0-0.4h-1v-0.6h1.2v-0.6h-2.1v3.3h2.1v-0.6c0,0,0,0,0,0h-1.2V516.4z"/>
</svg>
