<svg xmlns="http://www.w3.org/2000/svg" xmlns:xlink="http://www.w3.org/1999/xlink" width="16" height="16" viewBox="0 0 16 16">
<path fill="currentColor" d="M 11.101562 3.355469 C 10.746094 3.355469 10.527344 3.511719 10.316406 3.800781 L 9.019531 5.496094 L 8.527344 6.136719 L 9.460938 7.347656 L 10.289062 6.316406 L 11.585938 4.703125 C 11.742188 4.503906 11.835938 4.320312 11.835938 4.085938 C 11.832031 3.683594 11.503906 3.355469 11.101562 3.355469 Z M 11.714844 11.257812 L 10.371094 9.582031 L 9.460938 8.449219 L 8.488281 9.722656 L 9.078125 10.488281 L 10.433594 12.257812 C 10.632812 12.519531 10.828125 12.648438 11.167969 12.648438 C 11.378906 12.65625 11.585938 12.578125 11.734375 12.429688 C 11.886719 12.28125 11.972656 12.078125 11.96875 11.863281 C 11.964844 11.625 11.847656 11.429688 11.714844 11.257812 Z M 8.027344 6.792969 L 7.769531 6.453125 L 7.640625 6.285156 L 7.164062 5.65625 L 5.710938 3.746094 C 5.511719 3.484375 5.316406 3.355469 4.976562 3.355469 C 4.765625 3.347656 4.558594 3.425781 4.410156 3.574219 C 4.257812 3.722656 4.171875 3.925781 4.175781 4.140625 C 4.175781 4.363281 4.292969 4.570312 4.425781 4.738281 L 6.03125 6.734375 L 6.992188 7.921875 L 5.980469 9.175781 L 4.265625 11.296875 C 4.121094 11.496094 4.03125 11.675781 4.03125 11.898438 C 4.027344 12.09375 4.105469 12.285156 4.242188 12.425781 C 4.378906 12.5625 4.566406 12.644531 4.765625 12.644531 C 5.117188 12.644531 5.328125 12.488281 5.550781 12.199219 L 7.03125 10.265625 L 7.972656 9.042969 L 8.855469 7.886719 Z M 8.027344 6.792969 "/>
</svg>
