<svg xmlns="http://www.w3.org/2000/svg" xmlns:xlink="http://www.w3.org/1999/xlink" x="0px" y="0px" viewBox="0 0 16 16">
	<path fill="currentColor" d="M8.08,0C4.74,0.01,2.03,2.72,2.02,6.06c0,0.67,0.11,1.33,0.32,1.97C2.5,8.46,2.97,8.69,3.4,8.56
		C3.83,8.4,4.06,7.93,3.92,7.5C3.74,7,3.66,6.48,3.68,5.95c0.07-2.41,2.09-4.31,4.5-4.24s4.31,2.09,4.24,4.5
		c-0.07,2.26-1.85,4.09-4.11,4.23c0,0-0.85,0.05-1.27,0.1c-0.16,0.02-0.31,0.05-0.46,0.09c-0.02,0.02-0.06,0.02-0.08,0l0,0
		c-0.02-0.02-0.02-0.05,0-0.07l0.13-0.72l0.8-3.59c0.1-0.45-0.19-0.89-0.64-0.99C6.35,5.18,5.9,5.47,5.81,5.92c0,0-1.9,8.8-1.9,8.88
		c-0.11,0.43,0.15,0.86,0.58,0.97c0,0,0.01,0,0.01,0h0.04c0.43,0.11,0.86-0.15,0.97-0.57c0-0.01,0-0.01,0.01-0.02
		c0-0.01,0-0.03,0-0.04c0.02-0.1,0.26-1.27,0.26-1.27c0.18-0.88,0.89-1.56,1.78-1.7c0.18-0.03,0.95-0.08,0.95-0.08
		c3.33-0.33,5.76-3.3,5.43-6.63C13.65,2.42,11.13,0.08,8.08,0z"/>
	<path fill="currentColor" d="M8.45,13.98c-0.55-0.11-1.08,0.24-1.19,0.78c0,0.01,0,0.01,0,0.02c-0.12,0.54,0.23,1.08,0.77,1.2c0,0,0,0,0,0
		h0.03c0.53,0.13,1.07-0.2,1.19-0.73c0,0,0-0.01,0-0.01v-0.06C9.34,14.63,8.99,14.1,8.45,13.98z"/>
</svg>
