<svg fill="none" viewBox="0 0 24 24">
  <path fill="#fff" fill-rule="evenodd" d="M3.764 3.2725C5.913 1.2437 8.8112 0 12 0c6.6274 0 12 5.3726 12 12s-5.3726 12-12 12c-2.8924 0-5.5457-1.0233-7.6178-2.7275h5.348a.8183.8183 0 0 0 0-1.6364H2.7427a12.0186 12.0186 0 0 1-1.407-2.1286l12.0011-.0002a.8182.8182 0 0 0 0-1.6363l-12.6986.0001a11.9238 11.9238 0 0 1-.5275-2.235h3.9803a.8182.8182 0 0 0 .8181-.8182.8182.8182 0 0 0-.8181-.8182h-4.091c0-.9931.1207-1.958.3482-2.8809h13.0155a.8182.8182 0 0 0 0-1.6364H.8793a11.9801 11.9801 0 0 1 1.439-2.5736h7.412a.8182.8182 0 0 0 0-1.6363zm6.0541 9.5454c0 .4519.3663.8182.8182.8182h8.7273a.8182.8182 0 0 0 0-1.6364h-8.7273a.8182.8182 0 0 0-.8182.8182zm-3.3097 0c0-.4519.3667-.8182.819-.8182.4523 0 .819.3663.819.8182s-.3667.8182-.819.8182c-.4523 0-.819-.3663-.819-.8182zm6.5189-9.5454c-.4523 0-.819.3663-.819.8182 0 .4518.3667.8181.819.8181.4523 0 .819-.3663.819-.8181 0-.4519-.3667-.8182-.819-.8182zm-.819 17.1818c0-.4519.3667-.8182.819-.8182.4523 0 .819.3663.819.8182 0 .4518-.3667.8182-.819.8182-.4523 0-.819-.3664-.819-.8182z" clip-rule="evenodd"/>
  <path fill="url(#a)" d="M3.764 3.2725v.48H2.5563l.878-.829Zm.6182 18-.3048.3706-1.0342-.8506h1.339Zm-1.6396-1.6364v.4799h-.226l-.144-.1743Zm-1.407-2.1286-.4262.2205-.3625-.7005h.7887Zm12.0011-.0002v-.4799zm0-1.6363v-.48zm-12.6986.0001v.4799l-.3436.0001-.1108-.3253zm-.5275-2.235-.4756.0648-.0743-.5448h.5499ZM0 11.9997v.4799h-.48v-.4799zm.348-2.8809-.466-.1148.09-.3651h.376Zm.5313-1.6364v.48H.1661l.2686-.6607Zm1.439-2.5736-.387-.2839.1438-.196h.2431ZM12 .48c-3.0614 0-5.843 1.1935-7.9066 3.1416l-.659-.698C5.6692.8139 8.684-.48 12-.48ZM23.5201 12C23.5201 5.6376 18.3623.4799 12 .4799V-.48c6.8925 0 12.4799 5.5875 12.4799 12.48zM12 23.5201c6.3623 0 11.5201-5.1578 11.5201-11.5201h.9598c0 6.8925-5.5874 12.4799-12.4799 12.4799zm-7.3129-2.6183C6.6765 22.538 9.223 23.5201 12 23.5201v.9598c-3.0076 0-5.7678-1.0645-7.9226-2.8368zm5.0432.8506h-5.348v-.9599h5.348zm1.2981-1.2981c0 .7169-.5812 1.2981-1.2981 1.2981v-.9599a.3382.3382 0 0 0 .3382-.3382zm-1.2981-1.2982c.7169 0 1.2981.5812 1.2981 1.2982h-.9599a.3383.3383 0 0 0-.3382-.3383zm-6.9877 0h6.9877v.9599H2.7426Zm-.9807-1.8692a11.5402 11.5402 0 0 0 1.3508 2.0436l-.7401.6112A12.4983 12.4983 0 0 1 .9094 17.728Zm11.5748.7004-12.001.0001v-.9599l12.001-.0001zm1.2981-1.2982c0 .717-.5812 1.2982-1.2981 1.2982v-.9599a.3383.3383 0 0 0 .3382-.3383zm-1.2981-1.2981c.7169 0 1.2981.5812 1.2981 1.2981h-.9599a.3382.3382 0 0 0-.3382-.3382zM.638 15.3912l12.6987-.0002v.9599L.6381 16.351Zm-.0519-1.82a11.444 11.444 0 0 0 .5063 2.1452l-.9087.3094a12.4027 12.4027 0 0 1-.5487-2.3249Zm3.5048.5448H.1106v-.9599h3.9803Zm1.298-1.2981c0 .7169-.5811 1.2981-1.298 1.2981v-.9599a.3382.3382 0 0 0 .3382-.3382zm-1.298-1.2981c.7169 0 1.298.5811 1.298 1.2981h-.9598a.3383.3383 0 0 0-.3382-.3383zm-4.091 0h4.091v.9598h-4.091Zm.8142-2.2861a11.548 11.548 0 0 0-.3342 2.766H-.48c0-1.0321.1254-2.0356.362-2.9957zm12.5495.365H.3481V8.639h13.0155Zm1.2981-1.298c0 .7169-.5812 1.298-1.2981 1.298V8.639a.3382.3382 0 0 0 .3382-.3383zm-1.2981-1.2982c.7169 0 1.2981.5812 1.2981 1.2981h-.9599a.3382.3382 0 0 0-.3382-.3382zm-12.4843 0h12.4843v.9599H.8793Zm1.826-1.8097a11.5 11.5 0 0 0-1.3814 2.4704l-.8892-.3615a12.4597 12.4597 0 0 1 1.4966-2.6768Zm7.025.196h-7.412v-.9599h7.412Zm1.2981-1.2981c0 .717-.5812 1.2981-1.2981 1.2981v-.9599a.3383.3383 0 0 0 .3382-.3382zM9.7303 2.7925c.7169 0 1.2981.5812 1.2981 1.2982h-.9599a.3383.3383 0 0 0-.3382-.3383zm-5.9664 0h5.9664v.96H3.7638Zm6.8724 11.3235c-.717 0-1.2981-.5812-1.2981-1.2981h.9598c0 .1868.1515.3382.3383.3382zm8.7273 0h-8.7273v-.9599h8.7273zm1.2981-1.2981c0 .7169-.5812 1.2981-1.2981 1.2981v-.9599a.3382.3382 0 0 0 .3382-.3382zm-1.2981-1.2981c.7169 0 1.2981.5811 1.2981 1.2981h-.9599a.3383.3383 0 0 0-.3382-.3383zm-8.7273 0h8.7273v.9598h-8.7273zm-1.2982 1.2981c0-.717.5812-1.2981 1.2982-1.2981v.9598a.3383.3383 0 0 0-.3383.3383zm-2.0107-.3383a.3387.3387 0 0 0-.339.3383h-.96c0-.7174.582-1.2981 1.299-1.2981zm.339.3383a.3387.3387 0 0 0-.339-.3383v-.9598c.717 0 1.299.5807 1.299 1.2981zm-.339.3382a.3386.3386 0 0 0 .339-.3382h.96c0 .7174-.582 1.2981-1.299 1.2981zm-.339-.3382c0 .1863.1513.3382.339.3382v.9599c-.717 0-1.299-.5807-1.299-1.2981zm4.74-8.7272c0-.7174.5819-1.2982 1.2989-1.2982v.96a.3387.3387 0 0 0-.3391.3382zm1.2989 1.2981c-.717 0-1.2989-.5808-1.2989-1.2981h.9598c0 .1863.1514.3382.3391.3382zm1.2989-1.2981c0 .7173-.582 1.2981-1.2989 1.2981v-.9599a.3386.3386 0 0 0 .339-.3382zm-1.2989-1.2982c.7169 0 1.2989.5808 1.2989 1.2982h-.9599a.3386.3386 0 0 0-.339-.3383zm0 17.3235a.3387.3387 0 0 0-.3391.3383h-.9598c0-.7174.5819-1.2982 1.2989-1.2982zm.339.3383a.3386.3386 0 0 0-.339-.3383v-.9599c.7169 0 1.2989.5808 1.2989 1.2982zm-.339.3382a.3386.3386 0 0 0 .339-.3382h.9599c0 .7174-.582 1.2981-1.2989 1.2981zm-.3391-.3382c0 .1863.1514.3382.3391.3382v.9599c-.717 0-1.2989-.5807-1.2989-1.2981z" mask="url(#b)"/>
  <defs>
    <linearGradient id="a" x1="21.2727" x2="20.9697" y1="4.6363" y2="23.4404" gradientUnits="userSpaceOnUse">
      <stop stop-color="#C0BCFD"/>
      <stop offset=".2626" stop-color="#FFC3C1"/>
      <stop offset=".5679" stop-color="#F4B8B6"/>
      <stop offset=".9632" stop-color="#F9B691"/>
    </linearGradient>
    <mask id="b" fill="#fff">
      <path fill-rule="evenodd" d="M3.764 3.2725C5.913 1.2437 8.8112 0 12 0c6.6274 0 12 5.3726 12 12s-5.3726 12-12 12c-2.8924 0-5.5457-1.0233-7.6178-2.7275h5.348a.8183.8183 0 0 0 0-1.6364H2.7427a12.0186 12.0186 0 0 1-1.407-2.1286l12.0011-.0002a.8182.8182 0 0 0 0-1.6363l-12.6986.0001a11.9238 11.9238 0 0 1-.5275-2.235h3.9803a.8182.8182 0 0 0 .8181-.8182.8182.8182 0 0 0-.8181-.8182h-4.091c0-.9931.1207-1.958.3482-2.8809h13.0155a.8182.8182 0 0 0 0-1.6364H.8793a11.9801 11.9801 0 0 1 1.439-2.5736h7.412a.8182.8182 0 0 0 0-1.6363H3.7638Zm6.0541 9.5454c0 .4519.3663.8182.8182.8182h8.7273a.8182.8182 0 0 0 0-1.6364h-8.7273a.8182.8182 0 0 0-.8182.8182Zm-3.3097 0c0-.4519.3667-.8182.819-.8182.4523 0 .819.3663.819.8182s-.3667.8182-.819.8182c-.4523 0-.819-.3663-.819-.8182Zm6.5189-9.5454c-.4523 0-.819.3663-.819.8182 0 .4518.3667.8182.819.8182.4523 0 .819-.3664.819-.8182 0-.4519-.3667-.8182-.819-.8182Zm-.819 17.1818c0-.4519.3667-.8182.819-.8182.4523 0 .819.3663.819.8182 0 .4518-.3667.8182-.819.8182-.4523 0-.819-.3664-.819-.8182Z" clip-rule="evenodd"/>
    </mask>
  </defs>
</svg>
