<svg version="1.1" xmlns="http://www.w3.org/2000/svg" xmlns:xlink="http://www.w3.org/1999/xlink" width="16" height="16" viewBox="0 0 14 16">
			<path fill="currentColor" d="M13,4.9c0-0.3-0.1-0.6-0.4-0.7L7.4,1.1C7.1,1,6.9,1,6.6,1.1l-3.5,2
				C2.7,3.4,2.6,4.1,3.1,4.5C4,5.3,5.5,5.9,7.3,6.3c2.6,0.5,4.4,1.4,5.7,2.5V4.9z M12.6,9.8c-1.1-1.1-2.9-2-5.5-2.5
				c-2-0.4-3.7-1.1-4.7-2.1C1.5,4.4,1.6,2.9,2.7,2.3l3.5-2c0.5-0.3,1.2-0.3,1.8,0l5.2,3.1C13.7,3.7,14,4.3,14,4.9v4.3
				C14,9.9,13.2,10.3,12.6,9.8z M1,11.1c0,0.3,0.1,0.6,0.4,0.7l5.2,3.1c0.2,0.1,0.5,0.1,0.8,0l3.5-2c0.5-0.3,0.5-0.9,0.1-1.3
				c-0.9-0.8-2.5-1.5-4.3-1.8C4.1,9.1,2.3,8.3,1,7.2V11.1z M1.4,6.2c1.1,1.1,2.9,2,5.5,2.5c2,0.4,3.7,1.1,4.7,2.1
				c0.9,0.8,0.8,2.3-0.3,2.9l-3.5,2c-0.5,0.3-1.2,0.3-1.8,0l-5.2-3.1C0.3,12.3,0,11.7,0,11.1V6.8C0,6.1,0.8,5.7,1.4,6.2z"/>
</svg>
