<svg width="200" height="200" viewBox="0 0 200 200" fill="none" xmlns="http://www.w3.org/2000/svg">
  <path d="M171.772 37.1164L147.69 49.3702L31.4013 108.527C31.008 105.531 30.8102 102.514 30.8089 99.4927C30.8248 87.4391 33.9935 75.5987 40.001 65.1444C46.0086 54.6902 54.6465 45.9848 65.0593 39.8906C75.4721 33.7963 87.2983 30.5247 99.3667 30.3998C111.435 30.2749 123.327 33.301 133.864 39.1784L147.648 32.1641L149.704 31.1162C137.077 21.9629 122.162 16.4747 106.607 15.258C91.0518 14.0414 75.4629 17.1437 61.563 24.2221C47.6631 31.3005 35.9934 42.0794 27.8437 55.3675C19.694 68.6556 15.3817 83.9353 15.3833 99.5181C15.3833 101.67 15.4651 103.814 15.6287 105.949C15.8578 108.973 15.1863 111.997 13.6988 114.641C12.2112 117.284 9.97394 119.429 7.26857 120.806L0 124.507V141.773L21.3996 130.879L28.3297 127.347L35.1582 123.874L157.751 61.4889L171.526 54.4831L200 39.9897V22.7329L171.772 37.1164ZM200 57.2634L42.1222 137.547L28.3466 144.57L0 158.996V176.244L28.152 161.92L52.2339 149.666L168.641 90.4249C169.035 93.44 169.232 96.4774 169.233 99.5181C169.226 111.586 166.058 123.441 160.045 133.908C154.031 144.375 145.381 153.089 134.954 159.186C124.526 165.282 112.683 168.548 100.6 168.66C88.5181 168.772 76.6164 165.726 66.0772 159.824L65.231 160.272L50.2877 167.878C62.9119 177.031 77.824 182.521 93.3765 183.741C108.929 184.96 124.516 181.862 138.416 174.788C152.316 167.715 163.988 156.941 172.141 143.658C180.294 130.374 184.612 115.099 184.617 99.5181C184.617 97.3462 184.532 95.1743 184.371 93.0278C184.143 90.005 184.813 86.9822 186.299 84.3389C187.785 81.6956 190.02 79.5498 192.723 78.171L200 74.4695V57.2634Z" fill="black"/>
</svg>
