<svg width="24" height="24" viewBox="0 0 24 24" fill="none">
<path d="m 5.64711,19.908436 c 0.55681,-0.81551 3.21252,-4.90704 3.21573,-4.95433 0.004,-0.0544 -0.26101,-0.0621 -2.42935,-0.0712 L 4,14.872706 v -0.94551 -0.94551 h 8 8 v 0.92611 0.9261 h -2.39912 c -2.04484,0 -2.4061,0.008 -2.44642,0.057 -0.0387,0.0466 0.18408,0.41061 1.22402,2 0.69923,1.06865 1.45386,2.22231 1.67697,2.56369 l 0.40565,0.62069 -1.21084,-6.5e-4 -1.21086,-6.5e-4 -1.96885,-3.01616 c -1.08288,-1.6589 -1.99115,-3.03466 -2.01838,-3.05727 -0.0272,-0.0226 -0.0683,-0.0348 -0.0913,-0.0272 -0.023,0.008 -0.93403,1.37928 -2.02456,3.04806 l -1.9828,3.03414 -1.21057,0.0104 -1.21058,0.0104 z M 4,10.026396 V 9.0808862 l 2.37384,-0.0102 c 2.12568,-0.009 2.3751,-0.0167 2.38582,-0.0723 0.007,-0.0342 -0.72479,-1.18691 -1.62527,-2.56158 l -1.63725,-2.49939 1.19032,-0.0104 c 0.91996,-0.008 1.20086,8.7e-4 1.23676,0.0394 0.0255,0.0274 0.93775,1.4198 2.02712,3.09418 1.27819,1.96462 2.00321,3.0441898 2.04422,3.0439198 0.0406,-3.1e-4 0.79027,-1.1134898 2.0734,-3.0787398 1.10542,-1.69308 2.02778,-3.08528 2.04969,-3.09378 0.0219,-0.009 0.5668,-0.0108 1.21085,-0.005 l 1.17101,0.0104 -1.63623,2.49858 c -0.89993,1.37422 -1.63078,2.52692 -1.62411,2.56158 0.0109,0.0567 0.24723,0.064 2.38598,0.0731 L 20,9.0808562 v 0.9455098 0.9455 H 12 4 Z" fill="#5546FF"/>
</svg>
