<svg width="24" height="24" viewBox="0 0 24 24" fill="none" xmlns="http://www.w3.org/2000/svg">
<path d="M20.8744 10.0965V9.75C20.3062 9.75112 19.7594 9.9669 19.3435 10.3541C18.9277 10.7413 18.6735 11.2713 18.6319 11.838C18.5917 11.2721 18.339 10.7423 17.9245 10.355C17.5099 9.96775 16.9642 9.75161 16.3969 9.75V10.0965C16.9017 10.0965 17.3859 10.297 17.7429 10.654C18.0998 11.011 18.3004 11.4952 18.3004 12C18.3011 12.2502 18.2523 12.498 18.1569 12.7293C18.0615 12.9605 17.9213 13.1706 17.7444 13.3475C17.5675 13.5244 17.3574 13.6646 17.1261 13.76C16.8949 13.8554 16.647 13.9042 16.3969 13.9035V14.25C16.9651 14.2489 17.5119 14.0331 17.9277 13.6459C18.3436 13.2587 18.5978 12.7287 18.6394 12.162C18.6798 12.7291 18.9336 13.2599 19.3497 13.6473C19.7658 14.0348 20.3133 14.2501 20.8819 14.25V13.9035C20.3772 13.9033 19.8932 13.7027 19.5364 13.3457C19.1796 12.9888 18.9791 12.5047 18.9791 12C18.9783 11.7505 19.0268 11.5033 19.1216 11.2725C19.2165 11.0418 19.3559 10.832 19.532 10.6552C19.708 10.4784 19.9172 10.338 20.1475 10.2422C20.3779 10.1463 20.6249 10.0968 20.8744 10.0965ZM8.85038 14.25V13.992L8.84288 12H8.51063V14.25H8.85038ZM13.3504 9.75C12.1106 9.75 11.1004 10.761 11.1004 12C11.1004 13.239 12.1106 14.25 13.3504 14.25C13.9471 14.25 14.5194 14.0129 14.9414 13.591C15.3633 13.169 15.6004 12.5967 15.6004 12C15.6004 11.4033 15.3633 10.831 14.9414 10.409C14.5194 9.98705 13.9471 9.75 13.3504 9.75ZM13.3504 13.9035C13.0973 13.9085 12.8457 13.863 12.6104 13.7696C12.3751 13.6762 12.1608 13.5369 11.98 13.3596C11.7993 13.1824 11.6557 12.9709 11.5576 12.7375C11.4596 12.5041 11.4091 12.2535 11.4091 12.0004C11.4091 11.7472 11.4596 11.4966 11.5576 11.2632C11.6557 11.0298 11.7993 10.8183 11.98 10.6411C12.1608 10.4639 12.3751 10.3245 12.6104 10.2311C12.8457 10.1377 13.0973 10.0922 13.3504 10.0973C13.855 10.0974 14.3388 10.298 14.6956 10.6548C15.0524 11.0116 15.2529 11.4954 15.2531 12C15.2538 12.2501 15.2051 12.4979 15.1097 12.7291C15.0144 12.9603 14.8742 13.1704 14.6974 13.3473C14.5206 13.5241 14.3106 13.6643 14.0794 13.7598C13.8482 13.8553 13.6005 13.9041 13.3504 13.9035ZM7.27163 9.75C6.03188 9.75 5.02163 10.761 5.02163 12C5.02045 12.5045 4.81952 12.9879 4.4628 13.3447C4.10608 13.7014 3.62261 13.9023 3.11813 13.9035V14.25C4.35713 14.25 5.36813 13.239 5.36813 12C5.36932 11.4955 5.57025 11.0121 5.92697 10.6553C6.28369 10.2986 6.76716 10.0977 7.27163 10.0965H10.1629V9.75H7.27163Z" fill="#7324F0"/>
</svg>
