<svg xmlns="http://www.w3.org/2000/svg" xmlns:xlink="http://www.w3.org/1999/xlink" width="16" height="16" viewBox="0 0 16 16">
  <path fill="currentColor" transform="translate(2,0)" d="M7.563 15.86c-1.137 0-1.966-.272-2.486-.816-.52-.545-.78-1.132-.78-1.76 0-.23.045-.424.135-.582a.998.998 0 0 1 .372-.372c.158-.09.351-.136.581-.136.23 0 .424.045.581.136a1 1 0 0 1 .372.373c.09.157.136.35.136.58 0 .279-.067.505-.2.68a.927.927 0 0 1-.471.346c.157.217.405.372.744.462.339.097.677.145 1.016.145.472 0 .898-.127 1.28-.38.38-.255.662-.63.844-1.126.181-.496.272-1.059.272-1.688 0-.683-.1-1.267-.3-1.751-.194-.49-.48-.853-.862-1.089a2.303 2.303 0 0 0-1.234-.354c-.29 0-.653.121-1.089.363l-.798.4v-.4L9.268 4.1H4.296v4.973c0 .411.091.75.272 1.016.182.266.46.4.836.4.29 0 .568-.098.834-.291a2.95 2.95 0 0 0 .69-.708.267.267 0 0 1 .09-.118.18.18 0 0 1 .119-.045c.066 0 .145.033.236.1a.493.493 0 0 1 .127.335 2.31 2.31 0 0 1-.046.255c-.205.46-.49.81-.853 1.052-.353.24-.77.366-1.197.363-1.077 0-1.822-.212-2.233-.635-.411-.424-.617-.998-.617-1.724V4.1H.013v-.926h2.541V1.07l-.58-.581V.017H3.66l.635.326v2.831l6.57-.018.654.653-4.03 4.03c.244-.098.501-.159.763-.182.435 0 .925.14 1.47.418.55.272.974.647 1.27 1.125.296.472.487.925.572 1.36.09.436.136.823.136 1.162 0 .775-.164 1.495-.49 2.16a3.173 3.173 0 0 1-1.488 1.488 4.834 4.834 0 0 1-2.16.49z" />
</svg>
