<svg xmlns="http://www.w3.org/2000/svg" xmlns:xlink="http://www.w3.org/1999/xlink" width="16" height="16" viewBox="0 0 16 16">
  <path fill="currentColor" d="M4.247 10.34l-.008-3.084L6.883 5.67l-1.79-1.02-2.843 1.51v3.102l1.997 1.078zM5.74 8.105l.012 4.755L.75 10.157V5.26l4.368-2.32 4.739 2.7L5.74 8.104zM11.51 4.14v3.044l2.105-1.182v-2.9L10.72 1.45 8.807 2.633 11.51 4.14zm-1.5.882L5.843 2.698l4.847-2.99 4.425 2.521v4.65L10.01 9.747V5.02zm-2.184 7.528l2.744 1.633 2.816-1.674.006-2.265-2.745 1.614-2.819-1.47-.002 2.162zm7.072-4.932l-.014 5.745-4.314 2.566L6.324 13.4l.008-5.488 4.271 2.23 4.295-2.526z"/>
</svg>
