<svg viewBox="0 0 16 16">
  <path fill="currentColor" d="M5.37450709,7.09180543 C6.83757418,6.43811564 8.49989576,6.07614128 10.3268913,6.14102456 C9.86175393,5.28518582 8.95405419,4.71384277 7.9272,4.71384277 C6.51367937,4.71384277 5.35109112,5.78879201 5.21223268,7.16581305 C5.26522886,7.14114272 5.31932261,7.11646152 5.37450709,7.09180543 Z M3.89833889,7.44289833 C3.89833889,5.21780439 5.7021571,3.41384277 7.9272,3.41384277 C9.89549879,3.41384277 11.5663411,4.83468565 11.8974049,6.75372923 L12.0443885,7.60573413 L11.1850862,7.51025609 C9.19418109,7.27641521 7.42548596,7.59929622 5.90481494,8.27872311 C5.49458049,8.46201345 5.13594397,8.65757266 4.83228415,8.85167982 C4.65597908,8.96437854 4.5409834,9.04820162 4.50019203,9.0812803 C4.43294396,9.13823204 4.363518,9.20017145 4.29214142,9.26683491 C4.06119256,9.4825338 3.8141889,9.7434812 3.55757984,10.0394327 C3.26698486,10.3745808 2.98004553,10.7357271 2.71042229,11.0970731 C2.5488895,11.3135575 2.42988864,11.4807827 2.36627403,11.5735541 L1.76480571,12.4506969 L1.25855913,11.5153585 C0.665191573,10.4190558 0.349922222,9.19022614 0.349922222,7.91732222 C0.349922222,3.73808713 3.73804825,0.349961111 7.91728333,0.349961111 C9.35915617,0.349961111 10.7431832,0.754705733 11.9385076,1.50582171 L11.2468369,2.60654496 C10.257215,1.98468799 9.11261416,1.64996111 7.91728333,1.64996111 C4.45601842,1.64996111 1.64992222,4.45605731 1.64992222,7.91732222 C1.64992222,8.60721838 1.76133913,9.28042146 1.97569632,9.91743201 C2.17037391,9.66855794 2.37131947,9.42314342 2.57537741,9.18779997 C2.85983401,8.85973137 3.13727144,8.56663217 3.40480539,8.31676398 C3.49112645,8.23614285 3.57620512,8.16023866 3.66957603,8.08131858 C3.74112398,8.02303131 3.8257019,7.9592385 3.92306227,7.89124037 C3.90663109,7.74307421 3.89833889,7.59344228 3.89833889,7.44289833 Z M13.2355828,4.59976501 L14.3378672,3.91058499 C15.0832319,5.10273193 15.4845861,6.4811709 15.4845861,7.91714722 C15.4845861,12.0965768 12.0966545,15.4845083 7.917225,15.4845083 C6.48156187,15.4845083 5.10354134,15.0835692 3.91207828,14.3387957 L4.6011495,13.2364432 C5.58741865,13.8529518 6.72697246,14.1845083 7.917225,14.1845083 C11.3786844,14.1845083 14.1845861,11.3786066 14.1845861,7.91714722 C14.1845861,6.72669303 13.8526732,5.58674828 13.2355828,4.59976501 Z M4.62941559,10.6252481 L4.25769333,10.0885792 L4.79597367,9.71919441 C5.07690803,9.52640846 5.57549102,9.25367346 6.26527869,8.9852515 C7.77341595,8.39837937 9.48365001,8.12938223 11.3353997,8.35476162 L12.0153749,8.43752249 L11.8971048,9.11222829 C11.5772149,10.9371305 9.8669461,12.3626944 7.94353333,12.3626944 C6.60534359,12.3626944 5.37702804,11.7046031 4.62941559,10.6252481 Z M7.94353333,11.0626944 C8.97612219,11.0626944 9.9287301,10.4425942 10.378515,9.5818664 C9.0609626,9.53373906 7.83662779,9.76874107 6.73672001,10.196756 C6.54316819,10.2720742 6.36239143,10.3501962 6.19506371,10.4293531 C6.67685464,10.8319198 7.29048523,11.0626944 7.94353333,11.0626944 Z"></path>
</svg>