<svg width="24" height="24" viewBox="0 0 24 24" fill="none" xmlns="http://www.w3.org/2000/svg">
<path d="M3.06 19.488L7.932 22.32L11.988 19.968L16.044 22.32L20.94 19.488V13.872L17.7 12L20.94 10.128V4.51199L16.044 1.67999L11.988 4.03199L7.932 1.67999L3.06 4.51199V10.128L6.276 12L3.06 13.872V19.488ZM4.716 18.528V15.6L7.284 17.064V20.016L4.716 18.528ZM4.716 9.16799V6.23999L7.284 7.70399V10.656L4.716 9.16799ZM5.364 14.448L8.1 12.864L10.668 14.352L7.932 15.912L5.364 14.448ZM5.364 5.08799L7.932 3.59999L10.5 5.08799L7.932 6.55199L5.364 5.08799ZM8.604 20.016V17.064L11.34 15.48V18.432L8.604 20.016ZM8.604 10.848V7.70399L11.34 6.11999V9.26399L8.604 10.848ZM9.252 12L11.988 10.416L14.724 12L11.988 13.584L9.252 12ZM12.66 18.432V15.48L15.396 17.064V20.016L12.66 18.432ZM12.66 9.26399V6.11999L15.396 7.70399V10.848L12.66 9.26399ZM13.308 14.352L15.876 12.864L18.612 14.448L16.044 15.912L13.308 14.352ZM13.476 5.08799L16.044 3.59999L18.612 5.08799L16.044 6.55199L13.476 5.08799ZM16.716 20.016V17.064L19.284 15.6V18.528L16.716 20.016ZM16.716 10.656V7.70399L19.284 6.23999V9.16799L16.716 10.656Z" fill="black"/>
</svg>
