<svg width="24" height="24" viewBox="0 0 24 24" fill="none" xmlns="http://www.w3.org/2000/svg">
<path d="M9.84002 11.1359L14.856 16.1519L16.152 14.8559L11.112 9.81589C11.712 9.83989 12.288 9.88789 12.864 9.88789L14.376 9.86389V8.20789H8.20802V14.3519H9.88802V12.8399C9.88802 12.3119 9.88802 11.7119 9.84002 11.1359ZM2.64001 11.9999C2.64001 17.2319 6.76802 21.3599 12 21.3599C17.256 21.3599 21.36 17.0879 21.36 11.9999C21.36 6.76789 17.232 2.63989 12 2.63989C6.76802 2.63989 2.64001 6.76789 2.64001 11.9999ZM4.56001 11.9999C4.56001 7.82389 7.82402 4.55989 12 4.55989C16.176 4.55989 19.44 7.82389 19.44 11.9999C19.44 16.0559 16.176 19.4399 12 19.4399C7.82402 19.4399 4.56001 16.1759 4.56001 11.9999Z" fill="black"/>
</svg>
