<svg width="24" height="24" viewBox="0 0 24 24" fill="none" xmlns="http://www.w3.org/2000/svg">
<path d="M12.936 16.368L17.28 12L12.936 7.65601L11.76 8.85602L12.816 9.91202C13.2 10.296 13.632 10.704 14.064 11.088H6.96001V12.912H14.112C13.656 13.32 13.224 13.704 12.816 14.112L11.76 15.192L12.936 16.368ZM2.64001 12C2.64001 17.232 6.76801 21.36 12 21.36C17.256 21.36 21.36 17.088 21.36 12C21.36 6.76801 17.232 2.64001 12 2.64001C6.76801 2.64001 2.64001 6.76801 2.64001 12ZM4.56001 12C4.56001 7.82402 7.82402 4.56001 12 4.56001C16.176 4.56001 19.44 7.82402 19.44 12C19.44 16.056 16.176 19.44 12 19.44C7.82402 19.44 4.56001 16.176 4.56001 12Z" fill="black"/>
</svg>
