<svg width="24" height="24" viewBox="0 0 24 24" fill="none" xmlns="http://www.w3.org/2000/svg">
<path d="M11.064 16.3439L12.24 15.1439L11.184 14.0879C10.8 13.7039 10.368 13.2959 9.93602 12.9119H17.04V11.0879H9.88802C10.344 10.6799 10.776 10.2959 11.184 9.88789L12.24 8.80789L11.064 7.63189L6.72002 11.9999L11.064 16.3439ZM2.64001 11.9999C2.64001 17.2319 6.76802 21.3599 12 21.3599C17.256 21.3599 21.36 17.0879 21.36 11.9999C21.36 6.76789 17.232 2.63989 12 2.63989C6.76802 2.63989 2.64001 6.76789 2.64001 11.9999ZM4.56001 11.9999C4.56001 7.82389 7.82402 4.55989 12 4.55989C16.176 4.55989 19.44 7.82389 19.44 11.9999C19.44 16.0559 16.176 19.4399 12 19.4399C7.82402 19.4399 4.56001 16.1759 4.56001 11.9999Z" fill="black"/>
</svg>
