<svg width="24" height="24" viewBox="0 0 24 24" fill="none" xmlns="http://www.w3.org/2000/svg">
<path d="M12 17.2799L16.344 12.9359L15.144 11.7599L14.088 12.8159C13.704 13.1999 13.296 13.6319 12.912 14.0639V6.95989H11.088V14.1119C10.68 13.6559 10.296 13.2239 9.888 12.8159L8.808 11.7599L7.632 12.9359L12 17.2799ZM2.64 11.9999C2.64 17.2319 6.768 21.3599 12 21.3599C17.256 21.3599 21.36 17.0879 21.36 11.9999C21.36 6.76789 17.232 2.63989 12 2.63989C6.768 2.63989 2.64 6.76789 2.64 11.9999ZM4.56 11.9999C4.56 7.82389 7.824 4.55989 12 4.55989C16.176 4.55989 19.44 7.82389 19.44 11.9999C19.44 16.0559 16.176 19.4399 12 19.4399C7.824 19.4399 4.56 16.1759 4.56 11.9999Z" fill="black"/>
</svg>
