<svg width="24" height="24" viewBox="0 0 24 24" fill="none" xmlns="http://www.w3.org/2000/svg">
<path d="M5.18405 18.3599H18.8161V16.6799H17.2321C19.1521 15.2159 20.2801 12.9599 20.2801 10.4399C20.2801 5.87991 16.5601 2.15991 12.0001 2.15991C7.44005 2.15991 3.72005 5.87991 3.72005 10.4399C3.72005 12.9599 4.84805 15.2159 6.76805 16.6799H5.18405V18.3599ZM1.68005 21.8399H22.3201V14.7599H20.4001V20.0399H3.60005V14.7599H1.68005V21.8399ZM5.64005 10.4399C5.64005 6.93591 8.49605 4.07991 12.0001 4.07991C15.5041 4.07991 18.3601 6.93591 18.3601 10.4399C18.3601 13.5359 16.1281 16.1039 13.2241 16.6799H10.7761C7.87205 16.1039 5.64005 13.5359 5.64005 10.4399ZM8.95205 11.4959C8.90405 12.9119 9.91205 13.9919 11.4001 14.2079V15.1679H12.6001V14.2079C14.0401 13.9919 15.0721 13.0079 15.0721 11.8079C15.0721 10.6319 14.2561 9.93591 12.8881 9.74391L11.6161 9.57591C10.8961 9.47991 10.6321 9.28791 10.6321 8.73591C10.6321 8.03991 11.0881 7.82391 12.0241 7.82391C13.0801 7.82391 13.3441 8.06391 13.3201 9.02391H14.9041C14.9041 7.77591 13.9201 6.76791 12.6001 6.52791V5.56791H11.4001V6.52791C10.0561 6.74391 9.16805 7.67991 9.16805 8.85591C9.16805 10.0079 9.88805 10.6799 11.1361 10.8239L12.3601 10.9679C13.2001 11.0639 13.4881 11.2799 13.4881 11.9039C13.4881 12.6719 13.1041 12.9119 12.0001 12.9119C10.7521 12.9119 10.4641 12.6239 10.4641 11.4959H8.95205Z" fill="black"/>
</svg>
