<svg width="24" height="24" viewBox="0 0 24 24" fill="none" xmlns="http://www.w3.org/2000/svg">
<path d="M5.18399 18.36H18.816V16.68H17.232C19.152 15.216 20.28 12.96 20.28 10.44C20.28 5.88 16.56 2.16 12 2.16C7.43999 2.16 3.71999 5.88 3.71999 10.44C3.71999 12.96 4.84799 15.216 6.76799 16.68H5.18399V18.36ZM1.67999 21.84H22.32V14.76H20.4V20.04H3.59999V14.76H1.67999V21.84ZM5.63999 10.44C5.63999 6.936 8.49599 4.08 12 4.08C15.504 4.08 18.36 6.936 18.36 10.44C18.36 13.536 16.128 16.104 13.224 16.68H10.776C7.87199 16.104 5.63999 13.536 5.63999 10.44ZM8.95199 11.496C8.90399 12.912 9.91199 13.992 11.4 14.208V15.168H12.6V14.208C14.04 13.992 15.072 13.008 15.072 11.808C15.072 10.632 14.256 9.936 12.888 9.744L11.616 9.576C10.896 9.48 10.632 9.288 10.632 8.736C10.632 8.04 11.088 7.824 12.024 7.824C13.08 7.824 13.344 8.064 13.32 9.024H14.904C14.904 7.776 13.92 6.768 12.6 6.528V5.568H11.4V6.528C10.056 6.744 9.16799 7.68 9.16799 8.856C9.16799 10.008 9.88799 10.68 11.136 10.824L12.36 10.968C13.2 11.064 13.488 11.28 13.488 11.904C13.488 12.672 13.104 12.912 12 12.912C10.752 12.912 10.464 12.624 10.464 11.496H8.95199Z" fill="black"/>
</svg>
