<svg width="24" height="24" viewBox="0 0 24 24" fill="none" xmlns="http://www.w3.org/2000/svg">
<path d="M18.144 15.576V17.424C20.544 17.064 22.344 15.072 22.344 12.624C22.344 10.224 20.616 8.376 18.408 7.92C17.952 5.112 15.384 3.12 12.528 3.12C10.392 3.12 8.40001 4.224 7.39201 6.072C4.39201 6.12 1.65601 8.52 1.65601 11.76C1.65601 14.208 3.21601 16.344 5.61601 17.16V15.192C4.39201 14.544 3.57601 13.248 3.57601 11.76C3.57601 9.096 6.21601 7.248 8.66401 8.064C9.04801 6.12 10.704 4.92 12.528 4.92C14.928 4.92 17.016 7.008 16.488 9.672C18.528 9.24 20.424 10.56 20.424 12.624C20.424 14.04 19.488 15.264 18.144 15.576ZM7.60801 16.536L11.976 20.88L16.32 16.536L15.12 15.36L14.064 16.416C13.68 16.8 13.272 17.232 12.888 17.664V11.52H11.064V17.712C10.656 17.256 10.272 16.824 9.86401 16.416L8.78401 15.36L7.60801 16.536Z" fill="black"/>
</svg>
