<svg width="24" height="24" viewBox="0 0 24 24" fill="none" xmlns="http://www.w3.org/2000/svg">
<path d="M8.90404 15.9601H11.856C13.464 15.9601 14.856 15.3601 15.84 14.0641C15.936 13.9441 16.032 13.8241 16.104 13.7041H17.064C19.944 13.7041 22.08 11.8081 22.08 9.16806C22.08 6.45606 19.944 4.56006 17.064 4.56006H3.84004V10.0801C3.84004 11.9041 4.17604 13.1041 4.94404 14.0641C5.95204 15.3601 7.29604 15.9601 8.90404 15.9601ZM1.92004 17.5201C1.92004 18.5761 2.78404 19.4401 3.84004 19.4401H18C19.08 19.4401 19.92 18.5761 19.92 17.5201H1.92004ZM5.88004 11.4001V6.36006H14.88V11.4001C14.88 13.3681 14.136 14.0401 12.072 14.0401H8.71204C6.62404 14.0401 5.88004 13.3681 5.88004 11.4001ZM16.776 11.9041C16.872 11.3761 16.92 10.7761 16.92 10.0801V6.36006C19.344 6.36006 20.04 6.79206 20.04 8.59206V9.69606C20.04 11.4001 19.416 11.9041 17.208 11.9041H16.776Z" fill="black"/>
</svg>
