<svg width="24" height="24" viewBox="0 0 24 24" fill="none" xmlns="http://www.w3.org/2000/svg">
<path d="M2.64001 4.77607V17.3041L7.10402 13.8961H17.52V4.77607C17.52 3.79207 16.704 2.97607 15.72 2.97607H4.44001C3.45601 2.97607 2.64001 3.79207 2.64001 4.77607ZM4.56001 13.5121V4.82407C4.56001 4.80007 4.58401 4.77607 4.60801 4.77607H15.552C15.576 4.77607 15.6 4.80007 15.6 4.82407V12.0961H6.43201L4.56001 13.5121ZM7.92002 15.8161C7.92002 16.8001 8.73602 17.6161 9.72002 17.6161H16.896L21.36 21.0241V8.73607C21.36 7.70407 20.496 6.81607 19.44 6.81607V8.73607V9.21607V17.2321L17.568 15.8161H10.32H9.84002H7.92002Z" fill="black"/>
</svg>
