<svg width="24" height="24" viewBox="0 0 24 24" fill="none" xmlns="http://www.w3.org/2000/svg">
<path d="M2.64001 4.17601V17.904L7.10401 14.496H17.52V4.17601C17.52 3.19201 16.704 2.37601 15.72 2.37601H4.44001C3.45601 2.37601 2.64001 3.19201 2.64001 4.17601ZM4.56001 14.112V4.22401C4.56001 4.20001 4.58401 4.17601 4.60801 4.17601H15.552C15.576 4.17601 15.6 4.20001 15.6 4.22401V12.696H6.43201L4.56001 14.112ZM7.75202 9.19201C7.72801 10.248 8.54401 11.088 9.69602 11.256V11.976H10.536V11.256C11.64 11.088 12.48 10.344 12.48 9.43201C12.48 8.56801 11.88 8.01601 10.8 7.87201L9.84002 7.75201C9.31202 7.68001 9.09601 7.53601 9.09601 7.17601C9.09601 6.72001 9.40802 6.55201 10.128 6.55201C10.896 6.55201 11.112 6.72001 11.088 7.36801H12.336C12.336 6.45601 11.568 5.66401 10.536 5.49601V4.77601H9.69602V5.49601C8.64002 5.66401 7.92002 6.38401 7.92002 7.27201C7.92002 8.13601 8.42402 8.64001 9.40802 8.76001L10.392 8.88001C10.992 8.95201 11.184 9.09601 11.184 9.50401C11.184 10.008 10.92 10.176 10.104 10.176C9.19202 10.176 8.97602 9.98401 8.97602 9.19201H7.75202ZM7.92002 16.416C7.92002 17.4 8.73602 18.216 9.72002 18.216H16.896L21.36 21.624V8.37601C21.36 7.34401 20.496 6.45601 19.44 6.45601V8.37601V8.85601V17.832L17.568 16.416H10.32H9.84002H7.92002Z" fill="black"/>
</svg>
