<svg width="24" height="24" viewBox="0 0 24 24" fill="none" xmlns="http://www.w3.org/2000/svg">
<path d="M5.18401 20.4001H18.816C18.72 19.4641 17.928 18.7201 16.92 18.7201H14.976L14.472 16.3201H19.56C20.544 16.3201 21.36 15.5041 21.36 14.5201V5.4001C21.36 4.4161 20.544 3.6001 19.56 3.6001H4.44001C3.45601 3.6001 2.64001 4.4161 2.64001 5.4001V14.5201C2.64001 15.5041 3.45601 16.3201 4.44001 16.3201H9.52802L9.02402 18.7201H7.08002C6.12001 18.7201 5.30401 19.4641 5.18401 20.4001ZM4.56001 14.4721V5.4481C4.56001 5.4241 4.58401 5.4001 4.60801 5.4001H19.392C19.416 5.4001 19.44 5.4241 19.44 5.4481V14.4721C19.44 14.4961 19.416 14.5201 19.392 14.5201H4.60801C4.58401 14.5201 4.56001 14.4961 4.56001 14.4721ZM10.632 18.7201L11.136 16.3201H12.864L13.368 18.7201H10.632Z" fill="black"/>
</svg>
