<svg width="24" height="24" viewBox="0 0 24 24" fill="none" xmlns="http://www.w3.org/2000/svg">
<path d="M12.0698 21.7945L14.3018 19.5625C15.2858 18.2425 14.4938 15.7705 12.0938 13.1305L13.0298 12.1945C15.6698 14.6425 18.0458 15.4825 19.5578 14.3065L21.7898 12.0745C23.0618 10.4185 21.9578 7.77854 19.0778 4.92254C16.2218 2.04254 13.5818 0.938544 11.9258 2.21054L9.69378 4.44254C8.51778 5.95454 9.35778 8.33054 11.8058 10.9705L10.8698 11.9065C8.22978 9.50654 5.75778 8.71454 4.43777 9.69854L2.20577 11.9305C0.957775 13.5625 2.01377 16.2025 4.91778 19.0825C7.79778 21.9865 10.4378 23.0425 12.0698 21.7945ZM3.52577 13.0825L4.24577 12.3625C4.38978 13.6825 5.46978 15.2185 7.12578 16.8745C8.78178 18.5305 10.3178 19.6105 11.6378 19.7545L10.9178 20.4745C10.1738 20.9305 8.20578 19.8985 6.14178 17.8585C4.10178 15.7945 3.06977 13.8265 3.52577 13.0825ZM5.58978 11.0185C6.28578 10.6105 7.94178 11.4025 9.74178 13.0345L8.56578 14.2105C8.46978 14.3065 8.58978 14.6905 8.97378 15.0265C9.30978 15.4105 9.69378 15.5305 9.78978 15.4345L10.9658 14.2585C12.5978 16.0585 13.3898 17.7145 12.9818 18.4105C12.4058 18.9865 10.2218 17.8585 8.20578 15.7945C6.14178 13.7785 5.01378 11.5945 5.58978 11.0185ZM11.0138 5.59454L11.7098 4.89854C11.8778 6.19454 12.9578 7.75454 14.6138 9.38654C16.2458 11.0425 17.8058 12.1225 19.1018 12.2905L18.4058 12.9865C17.6618 13.4425 15.6698 12.4105 13.6298 10.3705C11.5898 8.33054 10.5578 6.33854 11.0138 5.59454ZM13.0778 3.53054C13.8458 3.07454 15.7898 4.10654 17.8538 6.14654C19.8938 8.21054 20.9258 10.1545 20.4698 10.9225C19.8698 11.5225 17.7098 10.3705 15.6698 8.33054C13.6298 6.29054 12.4778 4.13054 13.0778 3.53054ZM15.8858 6.67454C15.7898 6.79454 15.9578 7.22654 16.3658 7.63454C16.7738 8.04254 17.2058 8.21054 17.3258 8.11454L17.9978 7.49054C18.1178 7.39454 17.9018 6.93854 17.4698 6.53054C17.0378 6.12254 16.6058 5.88254 16.5098 6.00254L15.8858 6.67454Z" fill="black"/>
</svg>
