<svg width="24" height="24" viewBox="0 0 24 24" fill="none" xmlns="http://www.w3.org/2000/svg">
<path d="M10.416 16.704H10.464C12.456 16.704 13.992 15.528 13.992 13.992C13.992 13.056 13.44 12.264 12.552 12V11.712C13.224 11.448 13.68 10.728 13.68 9.93602C13.68 8.47202 12.216 7.34402 10.44 7.34402H10.416C8.63995 7.34402 7.17595 8.47202 7.17595 9.93602C7.17595 10.752 7.65595 11.472 8.35195 11.736V12C7.46395 12.264 6.88795 13.032 6.88795 13.992C6.88795 15.528 8.42395 16.704 10.416 16.704ZM4.19995 21.36H10.44C15.696 21.36 19.7999 17.088 19.7999 12C19.7999 6.76801 15.672 2.64001 10.44 2.64001H4.19995V4.56001H10.44C14.616 4.56001 17.88 7.82402 17.88 12C17.88 16.056 14.616 19.44 10.44 19.44H4.19995V21.36ZM8.92795 14.208V13.632C8.92795 13.032 9.33595 12.792 10.344 12.792H10.584C11.616 12.792 12.024 13.032 12.024 13.632V14.208C12.024 14.808 11.616 15.024 10.584 15.024H10.344C9.33595 15.024 8.92795 14.808 8.92795 14.208ZM9.02395 10.392V9.81602C9.02395 9.26402 9.38395 9.04802 10.32 9.04802H10.536C11.448 9.04802 11.832 9.26402 11.832 9.81602V10.392C11.832 10.944 11.448 11.16 10.536 11.16H10.32C9.38395 11.16 9.02395 10.944 9.02395 10.392Z" fill="black"/>
</svg>
