<svg width="24" height="24" viewBox="0 0 24 24" fill="none" xmlns="http://www.w3.org/2000/svg">
<path d="M11.976 16.7039H12.024C14.016 16.7039 15.552 15.5279 15.552 13.9919C15.552 13.0559 15 12.2639 14.112 11.9999V11.7119C14.784 11.4479 15.24 10.7279 15.24 9.93589C15.24 8.47189 13.776 7.34389 12 7.34389H11.976C10.2 7.34389 8.73601 8.47189 8.73601 9.93589C8.73601 10.7519 9.21601 11.4719 9.91201 11.7359V11.9999C9.02401 12.2639 8.44801 13.0319 8.44801 13.9919C8.44801 15.5279 9.98401 16.7039 11.976 16.7039ZM5.76001 21.3599H18.24V19.4399H5.76001V21.3599ZM5.76001 4.55989H18.24V2.63989H5.76001V4.55989ZM10.488 14.2079V13.6319C10.488 13.0319 10.896 12.7919 11.904 12.7919H12.144C13.176 12.7919 13.584 13.0319 13.584 13.6319V14.2079C13.584 14.8079 13.176 15.0239 12.144 15.0239H11.904C10.896 15.0239 10.488 14.8079 10.488 14.2079ZM10.584 10.3919V9.81589C10.584 9.26389 10.944 9.04789 11.88 9.04789H12.096C13.008 9.04789 13.392 9.26389 13.392 9.81589V10.3919C13.392 10.9439 13.008 11.1599 12.096 11.1599H11.88C10.944 11.1599 10.584 10.9439 10.584 10.3919Z" fill="black"/>
</svg>
