<svg width="24" height="24" viewBox="0 0 24 24" fill="none" xmlns="http://www.w3.org/2000/svg">
<path d="M13.536 16.7039H13.584C15.576 16.7039 17.112 15.5279 17.112 13.9919C17.112 13.0559 16.56 12.2639 15.672 11.9999V11.7119C16.344 11.4479 16.8 10.7279 16.8 9.93589C16.8 8.47189 15.336 7.34389 13.56 7.34389H13.536C11.76 7.34389 10.296 8.47189 10.296 9.93589C10.296 10.7519 10.776 11.4719 11.472 11.7359V11.9999C10.584 12.2639 10.008 13.0319 10.008 13.9919C10.008 15.5279 11.544 16.7039 13.536 16.7039ZM4.20001 11.9999C4.20001 17.2319 8.32801 21.3599 13.56 21.3599H19.8V19.4399H13.56C9.38401 19.4399 6.12001 16.1759 6.12001 11.9999C6.12001 7.94389 9.38401 4.55989 13.56 4.55989H19.8V2.63989H13.56C8.30401 2.63989 4.20001 6.91189 4.20001 11.9999ZM12.048 14.2079V13.6319C12.048 13.0319 12.456 12.7919 13.464 12.7919H13.704C14.736 12.7919 15.144 13.0319 15.144 13.6319V14.2079C15.144 14.8079 14.736 15.0239 13.704 15.0239H13.464C12.456 15.0239 12.048 14.8079 12.048 14.2079ZM12.144 10.3919V9.81589C12.144 9.26389 12.504 9.04789 13.44 9.04789H13.656C14.568 9.04789 14.952 9.26389 14.952 9.81589V10.3919C14.952 10.9439 14.568 11.1599 13.656 11.1599H13.44C12.504 11.1599 12.144 10.9439 12.144 10.3919Z" fill="black"/>
</svg>
