<svg width="24" height="24" viewBox="0 0 24 24" fill="none" xmlns="http://www.w3.org/2000/svg">
<path d="M20.712 22.0079L22.008 20.7119L3.28799 1.99194L1.99199 3.28794L5.61599 6.91194C3.98399 8.25594 2.59199 10.0079 1.67999 11.9999C3.71999 16.3919 8.01599 19.6799 12 19.6799C13.632 19.6799 15.312 19.1279 16.872 18.1679L20.712 22.0079ZM3.69599 11.9999C4.53599 10.4879 5.56799 9.21594 6.88799 8.18394L8.90399 10.1999C8.56799 10.7279 8.39999 11.3519 8.39999 11.9999C8.39999 13.9919 10.008 15.5999 12 15.5999C12.648 15.5999 13.272 15.4319 13.8 15.0959L15.552 16.8479C14.376 17.5439 13.224 17.8799 12 17.8799C8.85599 17.8799 5.61599 15.5759 3.69599 11.9999ZM8.92799 4.91994L10.32 6.33594C10.872 6.19194 11.448 6.11994 12 6.11994C15.096 6.11994 18.264 8.39994 20.208 11.9999C19.704 12.9359 19.128 13.7519 18.48 14.4959L19.776 15.7919C20.784 14.6879 21.672 13.3919 22.32 11.9999C20.28 7.60794 15.984 4.31994 12 4.31994C10.968 4.31994 9.93599 4.53594 8.92799 4.91994ZM10.08 11.9999C10.08 11.8079 10.104 11.6399 10.152 11.4479L12.552 13.8479C12.36 13.8959 12.192 13.9199 12 13.9199C10.944 13.9199 10.08 13.0559 10.08 11.9999Z" fill="black"/>
</svg>
