<svg width="24" height="24" viewBox="0 0 24 24" fill="none" xmlns="http://www.w3.org/2000/svg">
<path d="M12.0001 19.6801C15.9841 19.6801 20.2801 16.3921 22.3201 12.0001C20.2801 7.60807 15.9841 4.32007 12.0001 4.32007C8.01605 4.32007 3.72005 7.60807 1.68005 12.0001C3.72005 16.3921 8.01605 19.6801 12.0001 19.6801ZM3.79205 12.0001C5.73605 8.40007 8.90405 6.12007 12.0001 6.12007C15.0961 6.12007 18.2641 8.40007 20.2081 12.0001C18.2641 15.6001 15.0961 17.8801 12.0001 17.8801C8.90405 17.8801 5.73605 15.6001 3.79205 12.0001ZM8.40005 12.0001C8.40005 13.9921 10.0081 15.6001 12.0001 15.6001C13.9921 15.6001 15.6001 13.9921 15.6001 12.0001C15.6001 10.0081 13.9921 8.40007 12.0001 8.40007C10.0081 8.40007 8.40005 10.0081 8.40005 12.0001ZM10.0801 12.0001C10.0801 10.9441 10.9441 10.0801 12.0001 10.0801C13.0561 10.0801 13.9201 10.9441 13.9201 12.0001C13.9201 13.0561 13.0561 13.9201 12.0001 13.9201C10.9441 13.9201 10.0801 13.0561 10.0801 12.0001Z" fill="black"/>
</svg>
