<svg width="24" height="24" viewBox="0 0 24 24" fill="none" xmlns="http://www.w3.org/2000/svg">
<path d="M7.32 12.888H13.32V11.088H7.32V12.888ZM3.36 12C3.36 17.472 6.264 22.32 10.44 22.32H13.632C17.712 22.32 20.64 17.544 20.64 12C20.64 6.45599 17.712 1.67999 13.632 1.67999H10.44C6.264 1.67999 3.36 6.52799 3.36 12ZM5.28 12C5.28 7.36799 7.584 3.59999 10.44 3.59999C13.224 3.59999 15.576 7.36799 15.576 12C15.576 16.632 13.224 20.4 10.44 20.4C7.584 20.4 5.28 16.632 5.28 12ZM14.112 20.352C15.96 18.576 17.136 15.456 17.136 12C17.136 8.54399 15.96 5.42399 14.112 3.64799C16.68 4.03199 18.72 7.63199 18.72 12C18.72 16.368 16.68 19.968 14.112 20.352Z" fill="black"/>
</svg>
