<svg width="24" height="24" viewBox="0 0 24 24" fill="none" xmlns="http://www.w3.org/2000/svg">
<path d="M13.56 16.704C15.504 16.704 16.896 15.408 16.896 13.632C16.896 11.928 15.648 10.584 13.968 10.584C13.344 10.584 12.816 10.776 12.456 11.112H12.168L12.456 9.21602H16.368V7.58401H10.968L10.512 12.744H12.192C12.408 12.336 12.72 12.192 13.464 12.192H13.584C14.616 12.192 14.976 12.456 14.976 13.272V13.944C14.976 14.784 14.64 15.048 13.608 15.048H13.488C12.408 15.048 12.096 14.736 12.048 13.752H10.152C10.152 15.456 11.592 16.704 13.56 16.704ZM4.20001 12C4.20001 17.232 8.32801 21.36 13.56 21.36H19.8V19.44H13.56C9.38401 19.44 6.12001 16.176 6.12001 12C6.12001 7.94402 9.38401 4.56001 13.56 4.56001H19.8V2.64001H13.56C8.30401 2.64001 4.20001 6.91201 4.20001 12Z" fill="black"/>
</svg>
