<svg width="24" height="24" viewBox="0 0 24 24" fill="none" xmlns="http://www.w3.org/2000/svg">
<path d="M12 21.3599C17.256 21.3599 21.36 17.0879 21.36 11.9999C21.36 6.76789 17.232 2.63989 12 2.63989C6.76802 2.63989 2.64001 6.76789 2.64001 11.9999C2.64001 17.2319 6.76802 21.3599 12 21.3599ZM4.56001 11.9999C4.56001 7.82389 7.82402 4.55989 12 4.55989C16.176 4.55989 19.44 7.82389 19.44 11.9999C19.44 16.0559 16.176 19.4399 12 19.4399C7.82402 19.4399 4.56001 16.1759 4.56001 11.9999ZM8.59202 13.7519C8.59202 15.4559 10.032 16.7039 12 16.7039C13.944 16.7039 15.336 15.4079 15.336 13.6319C15.336 11.9279 14.088 10.5839 12.408 10.5839C11.784 10.5839 11.256 10.7759 10.896 11.1119H10.608L10.896 9.21589H14.808V7.58389H9.40802L8.95202 12.7439H10.632C10.848 12.3359 11.16 12.1919 11.904 12.1919H12.024C13.056 12.1919 13.416 12.4559 13.416 13.2719V13.9439C13.416 14.7839 13.08 15.0479 12.048 15.0479H11.928C10.848 15.0479 10.536 14.7359 10.488 13.7519H8.59202Z" fill="black"/>
</svg>
