<svg width="24" height="24" viewBox="0 0 24 24" fill="none" xmlns="http://www.w3.org/2000/svg">
<path d="M12 21.3599C17.256 21.3599 21.36 17.0879 21.36 11.9999C21.36 6.76789 17.232 2.63989 12 2.63989C6.76802 2.63989 2.64001 6.76789 2.64001 11.9999C2.64001 17.2319 6.76802 21.3599 12 21.3599ZM4.56001 11.9999C4.56001 7.82389 7.82402 4.55989 12 4.55989C16.176 4.55989 19.44 7.82389 19.44 11.9999C19.44 16.0559 16.176 19.4399 12 19.4399C7.82402 19.4399 4.56001 16.1759 4.56001 11.9999ZM7.89602 14.6639H11.904V16.4639H13.704V14.6639H15.072V13.1039H13.704V7.58389H11.688L7.89602 13.2959V14.6639ZM9.67202 13.1039L11.928 9.69589H11.952C11.928 10.4879 11.904 11.4959 11.904 12.4079V13.1039H9.67202Z" fill="black"/>
</svg>
