<svg width="24" height="24" viewBox="0 0 24 24" fill="none" xmlns="http://www.w3.org/2000/svg">
<path d="M12 21.36C17.256 21.36 21.36 17.088 21.36 12C21.36 6.76801 17.232 2.64001 12 2.64001C6.76801 2.64001 2.64001 6.76801 2.64001 12C2.64001 17.232 6.76801 21.36 12 21.36ZM4.56001 12C4.56001 7.82402 7.82402 4.56001 12 4.56001C16.176 4.56001 19.44 7.82402 19.44 12C19.44 16.056 16.176 19.44 12 19.44C7.82402 19.44 4.56001 16.176 4.56001 12ZM7.89602 14.664H11.904V16.464H13.704V14.664H15.072V13.104H13.704V7.58401H11.688L7.89602 13.296V14.664ZM9.67202 13.104L11.928 9.69602H11.952C11.928 10.488 11.904 11.496 11.904 12.408V13.104H9.67202Z" fill="black"/>
</svg>
