<svg width="24" height="24" viewBox="0 0 24 24" fill="none" xmlns="http://www.w3.org/2000/svg">
<path d="M10.344 12.408V13.104H8.11195L10.368 9.69602H10.392C10.368 10.488 10.344 11.496 10.344 12.408ZM4.19995 21.36H10.44C15.696 21.36 19.7999 17.088 19.7999 12C19.7999 6.76801 15.672 2.64001 10.44 2.64001H4.19995V4.56001H10.44C14.616 4.56001 17.88 7.82402 17.88 12C17.88 16.056 14.616 19.44 10.44 19.44H4.19995V21.36ZM6.33595 14.664H10.344V16.464H12.144V14.664H13.512V13.104H12.144V7.58401H10.128L6.33595 13.296V14.664Z" fill="black"/>
</svg>
