<svg width="24" height="24" viewBox="0 0 24 24" fill="none" xmlns="http://www.w3.org/2000/svg">
<path d="M12 21.3599C16.248 21.3599 19.704 20.0159 19.704 17.5679V6.40789C19.704 3.95989 16.368 2.63989 12 2.63989C7.752 2.63989 4.296 3.95989 4.296 6.40789V17.5679C4.296 20.0159 7.68 21.3599 12 21.3599ZM6.216 17.5679V16.3199C7.56 17.0879 9.624 17.5199 12 17.5199C14.352 17.5199 16.416 17.0879 17.784 16.2959V17.5679C17.784 18.5759 15.72 19.4399 12 19.4399C8.208 19.4399 6.216 18.5999 6.216 17.5679ZM6.216 13.8479V12.5999C7.56 13.3919 9.624 13.8239 12 13.8239C14.352 13.8239 16.416 13.3919 17.784 12.5999V13.8479C17.784 14.9519 15.672 15.8399 12 15.8399C8.256 15.8399 6.216 14.9519 6.216 13.8479ZM6.216 10.1279V8.90389C7.56 9.67189 9.624 10.1039 12 10.1039C14.328 10.1039 16.416 9.67189 17.784 8.87989V10.1279C17.784 11.2319 15.672 12.1439 12 12.1439C8.256 12.1439 6.216 11.2319 6.216 10.1279ZM6.216 6.40789C6.216 5.39989 8.28 4.55989 12 4.55989C15.84 4.55989 17.784 5.37589 17.784 6.40789C17.784 7.53589 15.672 8.42389 12 8.42389C8.256 8.42389 6.216 7.53589 6.216 6.40789Z" fill="black"/>
</svg>
