<svg width="24" height="24" viewBox="0 0 24 24" fill="none" xmlns="http://www.w3.org/2000/svg">
<path d="M12 21.36C17.304 21.36 21.36 17.088 21.36 12C21.36 6.79202 17.28 2.64001 12 2.64001C6.72002 2.64001 2.64001 6.79202 2.64001 12C2.64001 17.208 6.72002 21.36 12 21.36ZM4.44001 12C4.44001 11.28 4.53601 10.608 4.70401 9.96002H7.56002C7.46402 10.632 7.44001 11.328 7.44001 12C7.44001 12.672 7.46402 13.368 7.56002 14.04H4.70401C4.53601 13.392 4.44001 12.72 4.44001 12ZM5.28001 15.6H7.82402C8.16002 16.992 8.76002 18.264 9.69602 19.32C7.77602 18.72 6.19201 17.376 5.28001 15.6ZM5.28001 8.40002C6.19201 6.62402 7.77602 5.28001 9.69602 4.68001C8.76002 5.73601 8.16002 7.00802 7.82402 8.40002H5.28001ZM9.24002 12C9.24002 11.304 9.28802 10.632 9.36002 9.96002H14.64C14.712 10.632 14.76 11.304 14.76 12C14.76 12.696 14.712 13.368 14.64 14.04H9.36002C9.28802 13.368 9.24002 12.696 9.24002 12ZM9.67202 15.6H14.328C13.896 17.424 13.08 18.912 12 19.68C10.92 18.912 10.104 17.424 9.67202 15.6ZM9.67202 8.40002C10.104 6.57601 10.92 5.08801 12 4.32001C13.08 5.08801 13.896 6.57601 14.328 8.40002H9.67202ZM14.304 4.68001C16.224 5.28001 17.808 6.62402 18.72 8.40002H16.176C15.84 7.00802 15.24 5.73601 14.304 4.68001ZM14.328 19.32C15.24 18.264 15.84 16.968 16.176 15.6H18.696C17.784 17.352 16.224 18.696 14.328 19.32ZM16.44 14.04C16.536 13.368 16.56 12.672 16.56 12C16.56 11.328 16.536 10.632 16.44 9.96002H19.296C19.464 10.608 19.56 11.28 19.56 12C19.56 12.696 19.464 13.392 19.296 14.04H16.44Z" fill="black"/>
</svg>
