<svg width="24" height="24" viewBox="0 0 24 24" fill="none" xmlns="http://www.w3.org/2000/svg">
<path d="M2.62799 15.2401L7.83599 10.0321H15.732L19.764 6.02412C19.716 6.62412 19.716 7.20012 19.716 7.77612V9.28812H21.372L21.348 3.12012H15.204V4.80012H16.716C17.268 4.80012 17.868 4.80012 18.444 4.75212L14.964 8.23212H7.11599L2.62799 12.6961V15.2401ZM2.62799 20.8801H4.66799V17.9521H2.62799V20.8801ZM6.80399 20.8801H8.84399V16.0561H6.80399V20.8801ZM10.98 20.8801H13.02V12.9601H10.98V20.8801ZM15.156 20.8801H17.196V15.1201H15.156V20.8801ZM19.308 20.8801H21.348V12.0001H19.308V20.8801Z" fill="black"/>
</svg>
