<svg width="24" height="24" viewBox="0 0 24 24" fill="none" xmlns="http://www.w3.org/2000/svg">
<path d="M5.808 17.976V19.68H18.192V17.976C18.192 14.472 15.96 13.032 13.584 13.032H10.416C7.584 13.032 5.808 14.904 5.808 17.976ZM1.68 19.68H3.6V18.336C3.6 17.424 3.816 16.944 4.44 16.728C4.56 16.008 4.728 15.408 4.992 14.856C3.144 15.024 1.68 16.344 1.68 19.08V19.68ZM1.68 10.44C1.68 12.096 3.024 13.44 4.68 13.44C6.336 13.44 7.68 12.096 7.68 10.44C7.68 8.78401 6.336 7.44001 4.68 7.44001C3.024 7.44001 1.68 8.78401 1.68 10.44ZM3.24 10.44C3.24 9.64801 3.888 9.00001 4.68 9.00001C5.472 9.00001 6.12 9.64801 6.12 10.44C6.12 11.232 5.472 11.88 4.68 11.88C3.888 11.88 3.24 11.232 3.24 10.44ZM7.776 18.048V16.896C7.776 15.36 8.352 14.832 10.008 14.832H13.992C15.624 14.832 16.224 15.36 16.224 16.896V18.048H7.776ZM8.04 8.13601C8.04 10.32 9.84 11.976 12 11.976C14.16 11.976 15.96 10.32 15.96 8.13601C15.96 5.97601 14.16 4.32001 12 4.32001C9.84 4.32001 8.04 5.97601 8.04 8.13601ZM9.84 8.13601C9.84 6.93601 10.8 6.00001 12 6.00001C13.2 6.00001 14.16 6.93601 14.16 8.13601C14.16 9.36001 13.2 10.296 12 10.296C10.8 10.296 9.84 9.36001 9.84 8.13601ZM16.32 10.44C16.32 12.096 17.664 13.44 19.32 13.44C20.976 13.44 22.32 12.096 22.32 10.44C22.32 8.78401 20.976 7.44001 19.32 7.44001C17.664 7.44001 16.32 8.78401 16.32 10.44ZM17.88 10.44C17.88 9.64801 18.528 9.00001 19.32 9.00001C20.112 9.00001 20.76 9.64801 20.76 10.44C20.76 11.232 20.112 11.88 19.32 11.88C18.528 11.88 17.88 11.232 17.88 10.44ZM19.008 14.856C19.272 15.408 19.44 16.008 19.56 16.728C20.184 16.944 20.4 17.424 20.4 18.336V19.68H22.32V19.08C22.32 16.344 20.856 15.024 19.008 14.856Z" fill="black"/>
</svg>
