<svg width="24" height="24" viewBox="0 0 24 24" fill="none" xmlns="http://www.w3.org/2000/svg">
<path d="M5.80799 17.9761V19.6801H18.192V17.9761C18.192 14.4721 15.96 13.0321 13.584 13.0321H10.416C7.58399 13.0321 5.80799 14.9041 5.80799 17.9761ZM1.67999 19.6801H3.59999V18.3361C3.59999 17.4241 3.81599 16.9441 4.43999 16.7281C4.55999 16.0081 4.72799 15.4081 4.99199 14.8561C3.14399 15.0241 1.67999 16.3441 1.67999 19.0801V19.6801ZM1.67999 10.4401C1.67999 12.0961 3.02399 13.4401 4.67999 13.4401C6.33599 13.4401 7.67999 12.0961 7.67999 10.4401C7.67999 8.78407 6.33599 7.44007 4.67999 7.44007C3.02399 7.44007 1.67999 8.78407 1.67999 10.4401ZM3.23999 10.4401C3.23999 9.64807 3.88799 9.00007 4.67999 9.00007C5.47199 9.00007 6.11999 9.64807 6.11999 10.4401C6.11999 11.2321 5.47199 11.8801 4.67999 11.8801C3.88799 11.8801 3.23999 11.2321 3.23999 10.4401ZM7.77599 18.0481V16.8961C7.77599 15.3601 8.35199 14.8321 10.008 14.8321H13.992C15.624 14.8321 16.224 15.3601 16.224 16.8961V18.0481H7.77599ZM8.03999 8.13607C8.03999 10.3201 9.83999 11.9761 12 11.9761C14.16 11.9761 15.96 10.3201 15.96 8.13607C15.96 5.97607 14.16 4.32007 12 4.32007C9.83999 4.32007 8.03999 5.97607 8.03999 8.13607ZM9.83999 8.13607C9.83999 6.93607 10.8 6.00007 12 6.00007C13.2 6.00007 14.16 6.93607 14.16 8.13607C14.16 9.36007 13.2 10.2961 12 10.2961C10.8 10.2961 9.83999 9.36007 9.83999 8.13607ZM16.32 10.4401C16.32 12.0961 17.664 13.4401 19.32 13.4401C20.976 13.4401 22.32 12.0961 22.32 10.4401C22.32 8.78407 20.976 7.44007 19.32 7.44007C17.664 7.44007 16.32 8.78407 16.32 10.4401ZM17.88 10.4401C17.88 9.64807 18.528 9.00007 19.32 9.00007C20.112 9.00007 20.76 9.64807 20.76 10.4401C20.76 11.2321 20.112 11.8801 19.32 11.8801C18.528 11.8801 17.88 11.2321 17.88 10.4401ZM19.008 14.8561C19.272 15.4081 19.44 16.0081 19.56 16.7281C20.184 16.9441 20.4 17.4241 20.4 18.3361V19.6801H22.32V19.0801C22.32 16.3441 20.856 15.0241 19.008 14.8561Z" fill="black"/>
</svg>
