<svg width="24" height="24" viewBox="0 0 24 24" fill="none" xmlns="http://www.w3.org/2000/svg">
<path d="M13.56 8.232L11.16 10.608C10.968 10.776 10.776 10.896 10.512 10.896C9.88799 10.896 9.55199 10.416 9.55199 9.96C9.55199 9.696 9.67199 9.432 9.81599 9.288L12.24 6.912C12.576 6.6 13.008 6.408 13.464 6.408H15.312C15.768 6.408 16.2 6.6 16.536 6.912L17.928 8.28C18.264 8.616 18.696 8.784 19.152 8.784H22.32V6.984H19.392C19.32 6.984 19.248 6.96 19.2 6.912L17.904 5.64C17.232 4.992 16.272 4.608 15.312 4.608H8.68799C7.72799 4.608 6.76799 4.992 6.09599 5.64L4.79999 6.912C4.75199 6.96 4.70399 6.984 4.60799 6.984H1.67999V8.784H4.84799C5.30399 8.784 5.73599 8.616 6.07199 8.28L7.46399 6.912C7.79999 6.6 8.23199 6.408 8.68799 6.408H10.536L8.73599 8.184C8.27999 8.64 8.01599 9.312 8.01599 9.936C8.01599 11.328 9.11999 12.456 10.512 12.456C11.16 12.456 11.76 12.216 12.24 11.736L12.528 11.448L16.296 15.216L14.376 17.088C14.064 17.4 13.632 17.592 13.176 17.592H9.35999C8.90399 17.592 8.47199 17.4 8.15999 17.088L5.63999 14.616C5.30399 14.304 4.87199 14.112 4.41599 14.112H1.67999V15.912H4.17599C4.24799 15.912 4.31999 15.936 4.36799 15.984L6.81599 18.36C7.43999 18.984 8.39999 19.392 9.35999 19.392H13.176C14.136 19.392 15.096 18.984 15.72 18.36L18.216 15.912H22.32V14.112H17.4L13.656 10.344L14.664 9.336L13.56 8.232Z" fill="black"/>
</svg>
