<svg width="24" height="24" viewBox="0 0 24 24" fill="none" xmlns="http://www.w3.org/2000/svg">
<path d="M13.56 8.23191L11.16 10.6079C10.968 10.7759 10.776 10.8959 10.512 10.8959C9.88799 10.8959 9.55199 10.4159 9.55199 9.95991C9.55199 9.69591 9.67199 9.43191 9.81599 9.28791L12.24 6.91191C12.576 6.59991 13.008 6.40791 13.464 6.40791H15.312C15.768 6.40791 16.2 6.59991 16.536 6.91191L17.928 8.27991C18.264 8.61591 18.696 8.78391 19.152 8.78391H22.32V6.98391H19.392C19.32 6.98391 19.248 6.95991 19.2 6.91191L17.904 5.63991C17.232 4.99191 16.272 4.60791 15.312 4.60791H8.68799C7.72799 4.60791 6.76799 4.99191 6.09599 5.63991L4.79999 6.91191C4.75199 6.95991 4.70399 6.98391 4.60799 6.98391H1.67999V8.78391H4.84799C5.30399 8.78391 5.73599 8.61591 6.07199 8.27991L7.46399 6.91191C7.79999 6.59991 8.23199 6.40791 8.68799 6.40791H10.536L8.73599 8.18391C8.27999 8.63991 8.01599 9.31191 8.01599 9.93591C8.01599 11.3279 9.11999 12.4559 10.512 12.4559C11.16 12.4559 11.76 12.2159 12.24 11.7359L12.528 11.4479L16.296 15.2159L14.376 17.0879C14.064 17.3999 13.632 17.5919 13.176 17.5919H9.35999C8.90399 17.5919 8.47199 17.3999 8.15999 17.0879L5.63999 14.6159C5.30399 14.3039 4.87199 14.1119 4.41599 14.1119H1.67999V15.9119H4.17599C4.24799 15.9119 4.31999 15.9359 4.36799 15.9839L6.81599 18.3599C7.43999 18.9839 8.39999 19.3919 9.35999 19.3919H13.176C14.136 19.3919 15.096 18.9839 15.72 18.3599L18.216 15.9119H22.32V14.1119H17.4L13.656 10.3439L14.664 9.33591L13.56 8.23191Z" fill="black"/>
</svg>
