<svg width="24" height="24" viewBox="0 0 24 24" fill="none" xmlns="http://www.w3.org/2000/svg">
<path d="M8.03999 21.0092C9.07199 21.5852 10.368 21.7292 12 20.9852L20.832 16.9532C21.744 16.5452 22.32 15.6092 22.32 14.6492C22.32 13.2092 21.144 12.1532 19.8 12.1532C19.584 12.1532 19.368 12.1772 19.152 12.2492L19.08 12.1052C18.504 11.0252 17.184 10.5932 16.032 11.1212L14.568 11.7932C14.976 12.1772 15.312 12.6572 15.528 13.1852L16.728 12.6572C17.088 12.4892 17.496 12.6332 17.664 13.0172L17.76 13.2332L14.376 14.7692C14.376 13.7612 13.776 12.8252 12.864 12.3932L8.90399 10.5452C6.23999 9.29722 3.69599 9.82522 1.67999 12.2492V18.9452H3.47999V12.9452C4.84799 11.5772 6.35999 11.3612 8.13599 12.1772L12.096 14.0252C12.384 14.1692 12.576 14.4572 12.576 14.7932C12.576 15.3932 11.928 15.8012 11.4 15.5612L8.32799 14.1452L7.72799 15.4412L11.184 17.0492C11.712 17.2892 12.384 17.2412 13.296 16.8332L19.512 14.0252C19.992 13.8092 20.52 14.1452 20.52 14.6492C20.52 14.9132 20.352 15.2012 20.088 15.3212L11.256 19.3532C10.32 19.7852 9.59999 19.8092 8.90399 19.4252L6.19199 17.9132L5.30399 19.4972L8.03999 21.0092ZM8.39999 6.10522C8.39999 8.09722 10.008 9.70522 12 9.70522C13.992 9.70522 15.6 8.09722 15.6 6.10522C15.6 4.11322 13.992 2.50522 12 2.50522C10.008 2.50522 8.39999 4.11322 8.39999 6.10522ZM10.08 6.10522C10.08 5.04922 10.944 4.18522 12 4.18522C13.056 4.18522 13.92 5.04922 13.92 6.10522C13.92 7.16122 13.056 8.02522 12 8.02522C10.944 8.02522 10.08 7.16122 10.08 6.10522Z" fill="black"/>
</svg>
