<svg width="24" height="24" viewBox="0 0 24 24" fill="none" xmlns="http://www.w3.org/2000/svg">
<path d="M11.016 13.5359H12C14.688 13.5359 15.864 11.7599 15.864 9.95989C15.864 8.11189 14.592 6.21589 12.168 6.21589C10.032 6.21589 8.44802 7.94389 8.44802 9.69589V9.88789H10.368V9.43189C10.368 8.35189 10.8 8.01589 12 8.01589H12.288C13.512 8.01589 13.944 8.35189 13.944 9.43189V10.7039C13.944 11.6159 13.608 11.8559 12.432 11.8559H11.016V13.5359ZM2.64001 11.9999C2.64001 17.2319 6.76802 21.3599 12 21.3599C17.256 21.3599 21.36 17.0879 21.36 11.9999C21.36 6.76789 17.232 2.63989 12 2.63989C6.76802 2.63989 2.64001 6.76789 2.64001 11.9999ZM4.56001 11.9999C4.56001 7.82389 7.82402 4.55989 12 4.55989C16.176 4.55989 19.44 7.82389 19.44 11.9999C19.44 16.0559 16.176 19.4399 12 19.4399C7.82402 19.4399 4.56001 16.1759 4.56001 11.9999ZM10.848 17.2799H13.152V14.9759H10.848V17.2799Z" fill="black"/>
</svg>
