<svg width="24" height="24" viewBox="0 0 24 24" fill="none" xmlns="http://www.w3.org/2000/svg">
<path d="M7.77605 21.4921L9.21605 20.0521L7.03205 17.8921L8.06405 16.8601L10.224 19.0201L11.664 17.5801L9.50405 15.4201L13.416 11.5081C14.16 11.9401 15.048 12.2041 16.008 12.2041C18.816 12.2041 20.976 9.99606 20.976 7.35606C20.976 4.71606 18.816 2.50806 16.008 2.50806C13.2 2.50806 11.04 4.71606 11.04 7.35606C11.04 8.38806 11.352 9.32406 11.928 10.1161L3.02405 19.0201L4.46405 20.4601L5.59205 19.3321L7.77605 21.4921ZM13.08 7.35606C13.08 5.72406 14.376 4.42806 16.008 4.42806C17.64 4.42806 18.936 5.72406 18.936 7.35606C18.936 8.98806 17.64 10.2841 16.008 10.2841C14.376 10.2841 13.08 8.98806 13.08 7.35606Z" fill="black"/>
</svg>
