<svg width="24" height="24" viewBox="0 0 24 24" fill="none" xmlns="http://www.w3.org/2000/svg">
<path d="M7.77599 21.492L9.21599 20.052L7.03199 17.892L8.06399 16.86L10.224 19.02L11.664 17.58L9.50399 15.42L13.416 11.508C14.16 11.94 15.048 12.204 16.008 12.204C18.816 12.204 20.976 9.996 20.976 7.356C20.976 4.716 18.816 2.508 16.008 2.508C13.2 2.508 11.04 4.716 11.04 7.356C11.04 8.388 11.352 9.324 11.928 10.116L3.02399 19.02L4.46399 20.46L5.59199 19.332L7.77599 21.492ZM13.08 7.356C13.08 5.724 14.376 4.428 16.008 4.428C17.64 4.428 18.936 5.724 18.936 7.356C18.936 8.988 17.64 10.284 16.008 10.284C14.376 10.284 13.08 8.988 13.08 7.356Z" fill="black"/>
</svg>
