<svg width="24" height="24" viewBox="0 0 24 24" fill="none" xmlns="http://www.w3.org/2000/svg">
<path d="M2.62805 13.3441V15.1681C9.49205 14.3041 15.3001 10.8721 19.7641 5.92812C19.7161 6.52812 19.7161 7.10412 19.7161 7.68012V9.28812H21.3721L21.3481 3.12012H15.2041V4.80012H16.7161C17.2441 4.80012 17.8201 4.80012 18.3961 4.75212C14.1961 9.38412 8.96405 12.5041 2.62805 13.3441ZM2.62805 20.8801H4.66805V17.9521H2.62805V20.8801ZM6.80405 20.8801H8.84405V16.6081H6.80405V20.8801ZM10.9801 20.8801H13.0201V15.1921H10.9801V20.8801ZM15.1561 20.8801H17.1961V13.8241H15.1561V20.8801ZM19.3081 20.8801H21.3481V12.4801H19.3081V20.8801Z" fill="black"/>
</svg>
