<svg width="24" height="24" viewBox="0 0 24 24" fill="none" xmlns="http://www.w3.org/2000/svg">
<path d="M19.7279 21.0721L21.0719 19.7281L4.27194 2.92807L2.92794 4.27207L19.7279 21.0721ZM3.74394 20.2561C5.68794 22.2241 8.87994 22.2241 10.8479 20.2561L13.5119 17.5921L12.0719 16.1521L9.38394 18.8161C7.79994 20.4001 6.76794 20.4001 5.18394 18.8161C3.59994 17.2321 3.59994 16.2001 5.18394 14.6161L7.84794 11.9281L6.40794 10.4881L3.74394 13.1761C1.77594 15.1201 1.77594 18.3121 3.74394 20.2561ZM10.4879 6.40807L11.9279 7.84807L14.6159 5.18407C16.1999 3.60007 17.2319 3.60007 18.8159 5.18407C20.3999 6.76807 20.3999 7.80007 18.8159 9.38407L16.1519 12.0721L17.5919 13.5121L20.2559 10.8481C22.2239 8.88007 22.2239 5.68807 20.2559 3.74407C18.3119 1.77607 15.1199 1.77607 13.1759 3.74407L10.4879 6.40807Z" fill="black"/>
</svg>
