<svg width="24" height="24" viewBox="0 0 24 24" fill="none" xmlns="http://www.w3.org/2000/svg">
<path fill-rule="evenodd" clip-rule="evenodd" d="M8.53515 3.53515C9.45408 2.61622 10.7004 2.09998 12 2.09998C13.2995 2.09998 14.5459 2.61622 15.4648 3.53515C16.3837 4.45408 16.9 5.70041 16.9 6.99998V10.1H18C18.7691 10.1 19.5067 10.4055 20.0506 10.9494C20.5944 11.4932 20.9 12.2308 20.9 13V19C20.9 19.7691 20.5944 20.5067 20.0506 21.0506C19.5067 21.5944 18.7691 21.9 18 21.9H5.99998C5.23085 21.9 4.49322 21.5944 3.94937 21.0506C3.40551 20.5067 3.09998 19.7691 3.09998 19V13C3.09998 12.2308 3.40551 11.4932 3.94937 10.9494C4.49322 10.4055 5.23085 10.1 5.99998 10.1H7.09998V6.99998C7.09998 5.70041 7.61622 4.45408 8.53515 3.53515ZM8.89998 10.1H15.1V6.99998C15.1 6.1778 14.7734 5.38931 14.192 4.80794C13.6106 4.22658 12.8221 3.89998 12 3.89998C11.1778 3.89998 10.3893 4.22658 9.80794 4.80794C9.22658 5.38931 8.89998 6.1778 8.89998 6.99998V10.1ZM5.99998 11.9C5.70824 11.9 5.42845 12.0159 5.22216 12.2222C5.01587 12.4284 4.89998 12.7082 4.89998 13V19C4.89998 19.2917 5.01587 19.5715 5.22216 19.7778C5.42845 19.9841 5.70824 20.1 5.99998 20.1H18C18.2917 20.1 18.5715 19.9841 18.7778 19.7778C18.9841 19.5715 19.1 19.2917 19.1 19V13C19.1 12.7082 18.9841 12.4284 18.7778 12.2222C18.5715 12.0159 18.2917 11.9 18 11.9H5.99998ZM12 14.1C12.497 14.1 12.9 14.5029 12.9 15V17C12.9 17.497 12.497 17.9 12 17.9C11.5029 17.9 11.1 17.497 11.1 17V15C11.1 14.5029 11.5029 14.1 12 14.1Z" fill="black"/>
</svg>
