<svg width="24" height="24" viewBox="0 0 24 24" fill="none" xmlns="http://www.w3.org/2000/svg">
<path d="M6.84001 13.7759V21.8399L12 18.9599L17.16 21.8399V13.7759C18.288 12.5519 18.96 10.9199 18.96 9.11991C18.96 5.27991 15.84 2.15991 12 2.15991C8.16001 2.15991 5.04001 5.27991 5.04001 9.11991C5.04001 10.9199 5.71201 12.5519 6.84001 13.7759ZM6.96001 9.11991C6.96001 6.33591 9.21601 4.07991 12 4.07991C14.784 4.07991 17.04 6.33591 17.04 9.11991C17.04 11.9039 14.784 14.1599 12 14.1599C9.21601 14.1599 6.96001 11.9039 6.96001 9.11991ZM8.64001 18.8879V15.2159C9.64801 15.7679 10.776 16.0799 12 16.0799C13.224 16.0799 14.352 15.7679 15.36 15.2159V18.8879L12 16.9919L8.64001 18.8879Z" fill="black"/>
</svg>
