<svg width="24" height="24" viewBox="0 0 24 24" fill="none" xmlns="http://www.w3.org/2000/svg">
<path d="M7.68002 21.36H9.36002V18H11.16V21.36H12.84V18H14.64V21.36H16.32V18H18V16.32H21.36V14.64H18V12.84H21.36V11.16H18V9.36H21.36V7.68H18V6H16.32V2.64H14.64V6H12.84V2.64H11.16V6H9.36002V2.64H7.68002V6H6.00002V7.68H2.64001V9.36H6.00002V11.16H2.64001V12.84H6.00002V14.64H2.64001V16.32H6.00002V18H7.68002V21.36ZM7.80001 16.2V7.8H16.2V16.2H7.80001ZM10.56 13.44H13.44V10.56H10.56V13.44Z" fill="black"/>
</svg>
