<svg width="24" height="24" viewBox="0 0 24 24" fill="none" xmlns="http://www.w3.org/2000/svg">
<path d="M6.71998 22.3199H17.28C18.264 22.3199 19.08 21.5039 19.08 20.5199V3.47993C19.08 2.49593 18.264 1.67993 17.28 1.67993H6.71998C5.73598 1.67993 4.91998 2.49593 4.91998 3.47993V20.5199C4.91998 21.5039 5.73598 22.3199 6.71998 22.3199ZM6.83998 20.4719V3.52793C6.83998 3.50393 6.86398 3.47993 6.88798 3.47993H17.112C17.136 3.47993 17.16 3.50393 17.16 3.52793V20.4719C17.16 20.4959 17.136 20.5199 17.112 20.5199H6.88798C6.86398 20.5199 6.83998 20.4959 6.83998 20.4719ZM10.728 17.9279C10.728 18.5999 11.28 19.1999 12 19.1999C12.696 19.1999 13.248 18.5999 13.248 17.9279C13.248 17.2319 12.696 16.6799 12 16.6799C11.28 16.6799 10.728 17.2319 10.728 17.9279Z" fill="black"/>
</svg>
