<svg width="24" height="24" viewBox="0 0 24 24" fill="none" xmlns="http://www.w3.org/2000/svg">
<path d="M7.944 20.8801H10.896C12.504 20.8801 13.896 20.2801 14.88 18.9841C14.976 18.8641 15.072 18.7441 15.144 18.6241H16.104C18.984 18.6241 21.12 16.7281 21.12 14.0881C21.12 11.3761 18.984 9.48012 16.104 9.48012H2.88V15.0001C2.88 16.8241 3.216 18.0241 3.984 18.9841C4.992 20.2801 6.336 20.8801 7.944 20.8801ZM4.92 16.3201V11.2801H13.92V16.3201C13.92 18.2881 13.176 18.9601 11.112 18.9601H7.752C5.664 18.9601 4.92 18.2881 4.92 16.3201ZM6.48 7.92012H8.52C8.52 6.96012 8.928 6.62412 10.2 6.45612L11.952 6.24012C13.92 6.00012 15.12 4.96812 15.024 3.12012H12.984C12.984 4.10412 12.576 4.44012 11.304 4.60812L9.552 4.82412C7.584 5.06412 6.384 6.09612 6.48 7.92012ZM15.816 16.8241C15.912 16.2961 15.96 15.6961 15.96 15.0001V11.2801C18.384 11.2801 19.08 11.7121 19.08 13.5121V14.6161C19.08 16.3201 18.456 16.8241 16.248 16.8241H15.816Z" fill="black"/>
</svg>
