<svg width="24" height="24" viewBox="0 0 24 24" fill="none" xmlns="http://www.w3.org/2000/svg">
<path d="M2.64001 9.48002H21.36V2.64001H2.66401L2.64001 9.48002ZM4.32001 7.80001L4.34401 4.32001H10.2C9.88802 4.82401 9.72002 5.42401 9.72002 6.07202C9.72002 6.69601 9.88802 7.29602 10.2 7.80001H4.32001ZM7.63202 17.016L12 21.36L16.344 17.016L15.144 15.84L14.088 16.896C13.704 17.28 13.296 17.712 12.912 18.144V11.04H11.088V18.192C10.68 17.736 10.296 17.304 9.88802 16.896L8.80802 15.84L7.63202 17.016ZM11.4 6.07202C11.4 5.11201 12.192 4.32001 13.08 4.32001H19.68V7.80001H13.08C12.192 7.80001 11.4 7.00802 11.4 6.07202ZM12.408 6.07202C12.408 6.55202 12.816 6.96001 13.296 6.96001C13.776 6.96001 14.208 6.55202 14.208 6.07202C14.208 5.56801 13.776 5.16001 13.296 5.16001C12.816 5.16001 12.408 5.56801 12.408 6.07202Z" fill="black"/>
</svg>
