<svg width="24" height="24" viewBox="0 0 24 24" fill="none" xmlns="http://www.w3.org/2000/svg">
<path d="M1.92001 21.36H17.952C20.208 21.36 22.08 19.488 22.08 17.208C22.08 16.152 21.696 15.144 21 14.424L9.24001 2.64001L3.50401 8.37602L8.23201 13.08H1.92001V21.36ZM3.72001 19.56V14.88H17.952C19.224 14.88 20.28 15.936 20.28 17.208C20.28 18.504 19.224 19.56 17.952 19.56H3.72001ZM6.04801 8.37602L9.24001 5.18401L17.112 13.08H16.392H10.776L6.04801 8.37602ZM8.06401 8.44802C8.06401 9.12002 8.61601 9.72002 9.33601 9.72002C10.032 9.72002 10.584 9.12002 10.584 8.44802C10.584 7.75202 10.032 7.20002 9.33601 7.20002C8.61601 7.20002 8.06401 7.75202 8.06401 8.44802ZM16.56 17.208C16.56 17.88 17.112 18.48 17.832 18.48C18.528 18.48 19.08 17.88 19.08 17.208C19.08 16.512 18.528 15.96 17.832 15.96C17.112 15.96 16.56 16.512 16.56 17.208Z" fill="black"/>
</svg>
