<svg width="24" height="24" viewBox="0 0 24 24" fill="none" xmlns="http://www.w3.org/2000/svg">
<path d="M13.512 21.8399H20.88V2.15991H13.68V8.75991L8.976 4.05591L3.12 9.88791L13.512 20.3039V21.8399ZM5.664 9.88791L8.976 6.59991L18.72 16.3439C19.296 16.9199 19.512 17.4959 19.512 18.0959C19.512 19.4159 18.48 20.4479 17.16 20.4479C16.56 20.4479 15.96 20.2079 15.408 19.6559L5.664 9.88791ZM15.048 5.85591C15.048 4.63191 16.032 3.64791 17.304 3.64791C18.504 3.64791 19.488 4.63191 19.488 5.85591C19.488 6.95991 18.504 8.08791 17.304 8.08791C16.056 8.06391 15.048 6.95991 15.048 5.85591ZM15.888 18.0959C15.888 18.7679 16.44 19.3679 17.16 19.3679C17.856 19.3679 18.408 18.7679 18.408 18.0959C18.408 17.3999 17.856 16.8479 17.16 16.8479C16.44 16.8479 15.888 17.3999 15.888 18.0959ZM16.032 5.85591C16.032 6.50391 16.56 7.12791 17.304 7.10391C18 7.12791 18.552 6.52791 18.552 5.85591C18.528 5.15991 18 4.60791 17.304 4.58391C16.584 4.58391 16.032 5.15991 16.032 5.85591Z" fill="black"/>
</svg>
