<svg width="24" height="24" viewBox="0 0 24 24" fill="none" xmlns="http://www.w3.org/2000/svg">
<path d="M2.64001 21.36H21.36V14.52H2.66401L2.64001 21.36ZM4.32001 19.68L4.34401 16.2H10.2C9.88802 16.704 9.72002 17.304 9.72002 17.952C9.72002 18.576 9.88802 19.176 10.2 19.68H4.32001ZM7.63202 8.61601L12 12.96L16.344 8.61601L15.144 7.44001L14.088 8.49602C13.704 8.88002 13.296 9.31202 12.912 9.74402V2.64001H11.088V9.79202C10.68 9.33602 10.296 8.90402 9.88802 8.49602L8.80802 7.44001L7.63202 8.61601ZM11.4 17.952C11.4 16.992 12.192 16.2 13.08 16.2H19.68V19.68H13.08C12.192 19.68 11.4 18.888 11.4 17.952ZM12.408 17.952C12.408 18.432 12.816 18.84 13.296 18.84C13.776 18.84 14.208 18.432 14.208 17.952C14.208 17.448 13.776 17.04 13.296 17.04C12.816 17.04 12.408 17.448 12.408 17.952Z" fill="black"/>
</svg>
