<svg width="24" height="24" viewBox="0 0 24 24" fill="none" xmlns="http://www.w3.org/2000/svg">
<path d="M2.64001 21.36H21.36V14.52H2.66401L2.64001 21.36ZM4.32001 19.68L4.34401 16.2H10.2C9.88802 16.704 9.72002 17.304 9.72002 17.952C9.72002 18.576 9.88802 19.176 10.2 19.68H4.32001ZM11.4 17.952C11.4 16.992 12.192 16.2 13.08 16.2H19.68V19.68H13.08C12.192 19.68 11.4 18.888 11.4 17.952ZM12.408 17.952C12.408 18.432 12.816 18.84 13.296 18.84C13.776 18.84 14.208 18.432 14.208 17.952C14.208 17.448 13.776 17.04 13.296 17.04C12.816 17.04 12.408 17.448 12.408 17.952Z" fill="black"/>
<path fill-rule="evenodd" clip-rule="evenodd" d="M12 12C14.7614 12 17 9.76142 17 7C17 4.23858 14.7614 2 12 2C9.23859 2 7.00001 4.23858 7.00001 7C7.00001 9.76142 9.23859 12 12 12ZM11.25 4V6.25L9.00001 6.25V7.75L11.25 7.75V10H12.75V7.75H15V6.25H12.75V4H11.25Z" fill="black"/>
</svg>
