<svg width="24" height="24" viewBox="0 0 24 24" fill="none" xmlns="http://www.w3.org/2000/svg">
<path d="M12 21.36C17.256 21.36 21.36 17.088 21.36 12C21.36 6.76801 17.232 2.64001 12 2.64001C6.768 2.64001 2.64 6.76801 2.64 12C2.64 17.232 6.768 21.36 12 21.36ZM4.56 12C4.56 7.82402 7.824 4.56001 12 4.56001C13.728 4.56001 15.312 5.13601 16.56 6.09601L6.096 16.56C5.136 15.312 4.56 13.728 4.56 12ZM7.44 17.904L17.904 7.44001C18.864 8.68801 19.44 10.272 19.44 12C19.44 16.056 16.176 19.44 12 19.44C10.272 19.44 8.688 18.864 7.44 17.904Z" fill="black"/>
</svg>
