<svg width="24" height="24" viewBox="0 0 24 24" fill="none" xmlns="http://www.w3.org/2000/svg">
<path d="M11.2791 2C7.47521 2.38696 4.50006 5.80463 4.50006 9.96352L4.50001 15.9635H2V17.9635H22V15.9635H19.4999L19.5 10.8024C19.0168 10.9079 18.5149 10.9635 18 10.9635C17.8319 10.9635 17.6651 10.9576 17.5 10.9459L17.4999 15.9635H6.50002L6.50006 9.96352C6.50006 6.92536 8.51731 4.57044 11.0007 4.06453C11.0002 4.03092 11 3.99725 11 3.96352C11 3.28187 11.0974 2.62297 11.2791 2Z" fill="black"/>
<path d="M15 21.9635H9V19.9635H15V21.9635Z" fill="black"/>
<circle cx="18" cy="4" r="4" fill="#F04F52"/>
</svg>
