<svg width="24" height="24" viewBox="0 0 24 24" fill="none" xmlns="http://www.w3.org/2000/svg">
<path d="M18.096 21.84L21.84 17.952L15.936 12.648L11.664 16.848C10.824 16.224 10.008 15.528 9.24 14.76C8.496 13.992 7.776 13.176 7.152 12.336L11.352 8.06397L6.048 2.15997L2.16 5.92797C2.88 9.64797 5.088 13.272 7.896 16.104C10.752 18.936 14.328 21.144 18.096 21.84ZM4.272 6.55197L5.952 4.94397L8.712 8.01597L6.072 10.704C5.28 9.38397 4.656 7.99197 4.272 6.55197ZM13.272 17.952L15.984 15.288L19.056 18.048L17.448 19.728C16.008 19.344 14.616 18.744 13.272 17.952Z" fill="black"/>
</svg>
