<svg width="24" height="24" viewBox="0 0 24 24" fill="none" xmlns="http://www.w3.org/2000/svg">
<path fill-rule="evenodd" clip-rule="evenodd" d="M3.80546 3.80546C4.32118 3.28973 5.02065 3 5.75 3H17.75C18.4793 3 19.1788 3.28973 19.6945 3.80546C20.2103 4.32118 20.5 5.02065 20.5 5.75V17.75C20.5 18.4793 20.2103 19.1788 19.6945 19.6945C19.1788 20.2103 18.4793 20.5 17.75 20.5H5.75C5.02065 20.5 4.32118 20.2103 3.80546 19.6945C3.28973 19.1788 3 18.4793 3 17.75V5.75C3 5.02065 3.28973 4.32118 3.80546 3.80546ZM4.5 16.0607V17.75C4.5 18.0815 4.6317 18.3995 4.86612 18.6339C5.10054 18.8683 5.41848 19 5.75 19H17.75C18.0815 19 18.3995 18.8683 18.6339 18.6339C18.8683 18.3995 19 18.0815 19 17.75V14.0607L17.6337 12.6944C17.6337 12.6944 17.6338 12.6944 17.6337 12.6944C17.3993 12.4601 17.0814 12.3284 16.75 12.3284C16.4186 12.3284 16.1007 12.46 15.8663 12.6943C15.8663 12.6944 15.8664 12.6943 15.8663 12.6943L14.8107 13.75L16.2803 15.2197C16.5732 15.5126 16.5732 15.9874 16.2803 16.2803C15.9874 16.5732 15.5126 16.5732 15.2197 16.2803L10.6337 11.6944C10.6337 11.6944 10.6338 11.6944 10.6337 11.6944C10.3993 11.4601 10.0814 11.3284 9.75 11.3284C9.41858 11.3284 9.10073 11.46 8.86633 11.6943C8.8663 11.6944 8.86636 11.6943 8.86633 11.6943L4.5 16.0607ZM13.75 12.6893L11.6943 10.6337C11.1786 10.1181 10.4792 9.82843 9.75 9.82843C9.0208 9.82843 8.32145 10.118 7.80575 10.6336L4.5 13.9393V5.75C4.5 5.41848 4.6317 5.10054 4.86612 4.86612C5.10054 4.6317 5.41848 4.5 5.75 4.5H17.75C18.0815 4.5 18.3995 4.6317 18.6339 4.86612C18.8683 5.10054 19 5.41848 19 5.75V11.9393L18.6943 11.6337C18.1786 11.1181 17.4792 10.8284 16.75 10.8284C16.0208 10.8284 15.3215 11.118 14.8058 11.6336L13.75 12.6893ZM13 7.75C13 7.33579 13.3358 7 13.75 7H13.76C14.1742 7 14.51 7.33579 14.51 7.75C14.51 8.16421 14.1742 8.5 13.76 8.5H13.75C13.3358 8.5 13 8.16421 13 7.75Z" fill="black"/>
</svg>
