<svg width="24" height="24" viewBox="0 0 24 24" fill="none" xmlns="http://www.w3.org/2000/svg">
<path fill-rule="evenodd" clip-rule="evenodd" d="M21.4 10.9V9.95C21.4 8.97165 21.2073 8.00288 20.8329 7.09901C20.4585 6.19513 19.9097 5.37385 19.218 4.68206C18.5262 3.99026 17.7049 3.4415 16.801 3.0671C15.8971 2.6927 14.9284 2.5 13.95 2.5L13 2.5V10.9L21.4 10.9ZM19.0775 7.82611C19.2343 8.20457 19.3483 8.59831 19.4181 9L14.9 9V4.48191C15.3017 4.5517 15.6954 4.6657 16.0739 4.82247C16.7473 5.10138 17.3591 5.51019 17.8744 6.02556C18.3898 6.54092 18.7986 7.15275 19.0775 7.82611Z" fill="black"/>
<path fill-rule="evenodd" clip-rule="evenodd" d="M10.95 4.5C9.27875 4.5 7.64503 4.99558 6.25544 5.92408C4.86584 6.85258 3.78278 8.17229 3.14322 9.71632C2.50366 11.2604 2.33632 12.9594 2.66237 14.5985C2.98841 16.2377 3.7932 17.7433 4.97495 18.9251C6.15671 20.1068 7.66235 20.9116 9.30149 21.2376C10.9406 21.5637 12.6396 21.3963 14.1837 20.7568C15.7277 20.1172 17.0474 19.0342 17.9759 17.6446C18.9044 16.255 19.4 14.6213 19.4 12.95V12H11.9V4.5H10.95ZM7.31102 7.50387C8.12273 6.96151 9.0419 6.6097 10 6.46925V13.9H17.4307C17.2903 14.8581 16.9385 15.7773 16.3961 16.589C15.6764 17.6661 14.6534 18.5057 13.4566 19.0014C12.2597 19.4972 10.9427 19.6269 9.67216 19.3741C8.40159 19.1214 7.23449 18.4976 6.31845 17.5815C5.40242 16.6655 4.77859 15.4984 4.52586 14.2278C4.27313 12.9573 4.40284 11.6403 4.89859 10.4434C5.39435 9.24657 6.23388 8.2236 7.31102 7.50387Z" fill="black"/>
</svg>
