<svg width="24" height="24" viewBox="0 0 24 24" fill="none" xmlns="http://www.w3.org/2000/svg">
<path d="M11.9999 9.07117C10.3824 9.07117 9.07109 10.3824 9.07109 12H7.17109C7.17109 9.3331 9.33302 7.17118 11.9999 7.17117L11.9999 9.07117Z" fill="black"/>
<path fill-rule="evenodd" clip-rule="evenodd" d="M16.3342 5.01092C15.0758 4.22891 13.5906 3.77728 12.0001 3.77728C7.45875 3.77728 3.77729 7.45874 3.77729 12C3.77729 12.0831 3.77853 12.1659 3.78097 12.2484C2.81877 13.2027 2.05391 14.1609 1.58328 15.061C1.08368 16.0165 0.79003 17.1639 1.35965 18.1485C1.37412 18.1735 1.38957 18.1976 1.40591 18.2208C1.88398 18.9783 2.72123 19.3166 3.55274 19.437C4.42554 19.5634 5.46759 19.4815 6.58404 19.253C6.93418 19.1814 7.29697 19.0942 7.67047 18.992C8.9279 19.7723 10.4114 20.2228 12.0001 20.2228C16.5414 20.2228 20.2228 16.5413 20.2228 12C20.2228 11.9155 20.2215 11.8313 20.219 11.7474C20.4946 11.4748 20.7518 11.2039 20.9892 10.9362C21.7452 10.0836 22.3373 9.2221 22.6642 8.40302C22.9762 7.62135 23.1017 6.72536 22.6822 5.93159C22.6693 5.90352 22.6549 5.87583 22.639 5.8486C22.0689 4.87124 20.9308 4.5547 19.8558 4.51101C18.8441 4.46988 17.6365 4.65332 16.3342 5.01092ZM12.0001 5.67728C8.50809 5.67728 5.67729 8.50808 5.67729 12C5.67729 12.1723 5.68418 12.3429 5.6977 12.5117C5.70046 12.5344 5.7024 12.5571 5.70353 12.5799C5.86204 14.3232 6.72814 15.862 8.01224 16.9069C9.64968 16.3764 11.512 15.5483 13.4144 14.4499C15.3172 13.3514 16.9658 12.1523 18.2441 10.9993C17.9731 9.29544 17.0215 7.81839 15.6767 6.85556C15.6427 6.83476 15.61 6.81182 15.5788 6.78686C14.5612 6.08696 13.3285 5.67728 12.0001 5.67728ZM18.1519 6.5438C18.8815 7.36584 19.4489 8.33513 19.8038 9.40148C20.3493 8.74892 20.7109 8.17122 20.8995 7.6987C21.1192 7.14835 21.0482 6.89826 20.9952 6.80653L20.9974 6.80526C20.9305 6.69139 20.6588 6.44522 19.7787 6.40944C19.3232 6.39092 18.7762 6.43431 18.1519 6.5438ZM3.00278 17.1945L3.0046 17.1934C3.05757 17.2851 3.23865 17.4717 3.82509 17.5566C4.32914 17.6297 5.01117 17.6052 5.85031 17.4586C5.11935 16.6357 4.55105 15.665 4.19584 14.5971C3.78924 15.0843 3.47841 15.5371 3.267 15.9414C2.86053 16.7188 2.93636 17.0764 3.00278 17.1945ZM12.0001 18.3228C14.9482 18.3228 17.4251 16.305 18.1251 13.5751C17.0111 14.4444 15.7425 15.2997 14.3644 16.0954C12.9863 16.891 11.6113 17.562 10.3015 18.0921C10.842 18.2424 11.4116 18.3228 12.0001 18.3228Z" fill="black"/>
</svg>
