<svg width="24" height="24" viewBox="0 0 24 24" fill="none" xmlns="http://www.w3.org/2000/svg">
<path d="M10.056 22.32L13.632 18.816L12.6 15.768L14.088 14.28L17.832 21.408L20.856 18.144L18.888 9.47999L21.456 6.91199C22.008 6.35999 22.32 5.59199 22.32 4.77599C22.32 2.99999 20.928 1.67999 19.224 1.67999C18.384 1.67999 17.616 2.03999 16.872 2.78399L14.52 5.11199L5.80799 3.11999L2.68799 6.23999L9.71999 9.91199L8.23199 11.4L5.20799 10.44L1.67999 13.968L7.12799 16.944L10.056 22.32ZM4.65599 13.536L5.71199 12.48L8.73599 13.44L12.744 9.45599L5.68799 5.78399L6.38399 5.08799L15.096 7.07999L18.144 4.05599C18.552 3.64799 18.864 3.47999 19.224 3.47999C19.944 3.47999 20.52 3.98399 20.52 4.77599C20.52 5.11199 20.4 5.42399 20.184 5.63999L16.92 8.90399L18.888 17.616L18.24 18.312L14.544 11.28L10.536 15.288L11.568 18.312L10.488 19.368L8.44799 15.624L4.65599 13.536Z" fill="black"/>
</svg>
