<svg width="24" height="24" viewBox="0 0 24 24" fill="none" xmlns="http://www.w3.org/2000/svg">
<path fill-rule="evenodd" clip-rule="evenodd" d="M9.61425 13.7386C10.2471 14.3653 11.1052 14.7178 12.0003 14.7188C12.8954 14.7178 13.7534 14.3653 14.3861 13.7386C15.0189 13.1119 15.3745 12.2623 15.375 11.3763V6.06003C15.3742 5.17422 15.0184 4.32492 14.3857 3.6985C13.753 3.07208 12.8951 2.71972 12.0003 2.71875C11.1054 2.71972 10.2475 3.07206 9.61467 3.69846C8.98189 4.32486 8.62598 5.17416 8.625 6.06003V11.3763C8.62565 12.2623 8.98144 13.1119 9.61425 13.7386ZM10.9225 4.9922C11.2082 4.70883 11.5959 4.54936 12.0003 4.54888C12.2005 4.54912 12.3987 4.58839 12.5836 4.66446C12.7685 4.74054 12.9365 4.85192 13.0779 4.99224C13.2193 5.13257 13.3314 5.29908 13.4078 5.48229C13.4842 5.66551 13.5234 5.86182 13.5231 6.06003V11.3763C13.5228 11.776 13.3623 12.1593 13.0768 12.4421C12.7913 12.7248 12.4042 12.8839 12.0003 12.8843C11.5964 12.8839 11.2092 12.7248 10.9236 12.4421C10.638 12.1594 10.4773 11.7761 10.4769 11.3763V6.06003C10.4765 5.65967 10.6368 5.27558 10.9225 4.9922Z" fill="black"/>
<path d="M7.62686 16.0922C8.56352 17.0288 9.7693 17.6345 11.0625 17.8339V19.4062H9.5625V21.2812H14.4375V19.4062H12.9375V17.8339C14.2308 17.6345 15.4367 17.0288 16.3734 16.092C17.5333 14.932 18.1857 13.3592 18.1875 11.7188H16.3658C16.364 12.8761 15.9035 13.9855 15.0852 14.8038C14.2669 15.6221 13.1576 16.0827 12.0003 16.0844C10.843 16.0828 9.73343 15.6224 8.915 14.804C8.09657 13.9857 7.63598 12.8762 7.63422 11.7188H5.8125C5.81427 13.3593 6.46679 14.9322 7.62686 16.0922Z" fill="black"/>
</svg>
