<svg width="24" height="24" viewBox="0 0 24 24" fill="none" xmlns="http://www.w3.org/2000/svg">
<path d="M13.344 10.008H20.232V3.12H13.344V10.008ZM2.64 13.224H21.36V11.424H2.64V13.224ZM3.768 20.88H10.656V14.664H9.048V19.272H5.376V14.664H3.768V20.88ZM3.768 10.008H10.656V3.12H3.768V10.008ZM5.376 8.4V4.728H9.048V8.4H5.376ZM6.456 18.216H7.992V16.656H6.456V18.216ZM6.456 7.344H7.992V5.784H6.456V7.344ZM13.344 20.88H14.904V19.32H13.344V20.88ZM13.344 16.224H16.464V14.664H13.344V16.224ZM14.904 19.32H18.024V20.88H20.232V17.76H18.024V16.224H16.464V17.76H14.904V19.32ZM14.952 8.4V4.728H18.624V8.4H14.952ZM16.008 7.344H17.544V5.784H16.008V7.344Z" fill="black"/>
</svg>
