<svg width="24" height="24" viewBox="0 0 24 24" fill="none" xmlns="http://www.w3.org/2000/svg">
<path d="M13.344 10.0081H20.232V3.12012H13.344V10.0081ZM2.64001 13.2241H21.36V11.4241H2.64001V13.2241ZM3.76801 20.8801H10.656V14.6641H9.04802V19.2721H5.37601V14.6641H3.76801V20.8801ZM3.76801 10.0081H10.656V3.12012H3.76801V10.0081ZM5.37601 8.40012V4.72812H9.04802V8.40012H5.37601ZM6.45601 18.2161H7.99202V16.6561H6.45601V18.2161ZM6.45601 7.34412H7.99202V5.78412H6.45601V7.34412ZM13.344 20.8801H14.904V19.3201H13.344V20.8801ZM13.344 16.2241H16.464V14.6641H13.344V16.2241ZM14.904 19.3201H18.024V20.8801H20.232V17.7601H18.024V16.2241H16.464V17.7601H14.904V19.3201ZM14.952 8.40012V4.72812H18.624V8.40012H14.952ZM16.008 7.34412H17.544V5.78412H16.008V7.34412Z" fill="black"/>
</svg>
