<svg width="24" height="24" viewBox="0 0 24 24" fill="none" xmlns="http://www.w3.org/2000/svg">
<path d="M2.63999 8.18395V12H4.46399V8.18395C4.46399 7.58395 5.01599 7.00795 5.63999 7.00795H19.152C18.696 7.41595 18.264 7.79995 17.856 8.20795L16.8 9.28795L17.976 10.464L22.32 6.09595L17.976 1.75195L16.8 2.95195L17.856 4.00795C18.24 4.39195 18.672 4.79995 19.104 5.18395H5.63999C4.12799 5.18395 2.63999 6.74395 2.63999 8.18395ZM1.67999 17.904L6.02399 22.248L7.19999 21.048L6.14399 19.992C5.75999 19.608 5.32799 19.2 4.89599 18.816H18.36C19.872 18.816 21.36 17.256 21.36 15.816V12H19.536V15.816C19.536 16.416 18.984 16.992 18.36 16.992H4.84799C5.30399 16.584 5.73599 16.2 6.14399 15.792L7.19999 14.712L6.02399 13.536L1.67999 17.904Z" fill="black"/>
</svg>
