<svg width="24" height="24" viewBox="0 0 24 24" fill="none" xmlns="http://www.w3.org/2000/svg">
<path d="M2.64001 11.8799V12.8399H4.56001V11.8799C4.56001 7.79989 7.84802 4.55989 11.976 4.55989C14.328 4.55989 16.344 5.56789 17.712 7.17589C17.088 7.12789 16.416 7.10389 15.792 7.10389H14.28V8.78389H20.424V2.63989H18.744V4.15189C18.744 4.65589 18.768 5.18389 18.792 5.71189C16.848 3.52789 14.328 2.63989 11.976 2.63989C6.79202 2.63989 2.64001 6.74389 2.64001 11.8799ZM3.60001 21.3599H5.28001V19.8479C5.28001 19.3439 5.25601 18.8159 5.23201 18.2879C7.17602 20.4719 9.69602 21.3599 12.024 21.3599C17.208 21.3599 21.36 17.2559 21.36 12.1199V11.1599H19.44V12.1199C19.44 16.1999 16.152 19.4399 12.024 19.4399C9.69602 19.4399 7.68002 18.4319 6.31201 16.8239C6.93602 16.8719 7.60802 16.8959 8.23202 16.8959H9.74402V15.2159H3.60001V21.3599Z" fill="black"/>
</svg>
