<svg width="24" height="24" viewBox="0 0 24 24" fill="none" xmlns="http://www.w3.org/2000/svg">
<path d="M2.64001 11.88V12.84H4.56001V11.88C4.56001 7.80001 7.84802 4.56001 11.976 4.56001C14.328 4.56001 16.344 5.56801 17.712 7.17601C17.088 7.12802 16.416 7.10401 15.792 7.10401H14.28V8.78402H20.424V2.64001H18.744V4.15201C18.744 4.65601 18.768 5.18401 18.792 5.71201C16.848 3.52801 14.328 2.64001 11.976 2.64001C6.79202 2.64001 2.64001 6.74402 2.64001 11.88ZM3.60001 21.36H5.28001V19.848C5.28001 19.344 5.25601 18.816 5.23201 18.288C7.17601 20.472 9.69602 21.36 12.024 21.36C17.208 21.36 21.36 17.256 21.36 12.12V11.16H19.44V12.12C19.44 16.2 16.152 19.44 12.024 19.44C9.69602 19.44 7.68002 18.432 6.31202 16.824C6.93602 16.872 7.60802 16.896 8.23202 16.896H9.74402V15.216H3.60001V21.36Z" fill="black"/>
</svg>
