<svg width="24" height="24" viewBox="0 0 24 24" fill="none" xmlns="http://www.w3.org/2000/svg">
<path d="M5.18399 18.36H18.816V16.68H17.232C19.152 15.216 20.28 12.96 20.28 10.44C20.28 5.88 16.56 2.16 12 2.16C7.43999 2.16 3.71999 5.88 3.71999 10.44C3.71999 12.96 4.84799 15.216 6.76799 16.68H5.18399V18.36ZM1.67999 21.84H22.32V14.76H20.4V20.04H3.59999V14.76H1.67999V21.84ZM5.63999 10.44C5.63999 6.936 8.49599 4.08 12 4.08C15.504 4.08 18.36 6.936 18.36 10.44C18.36 13.536 16.128 16.104 13.224 16.68H10.776C7.87199 16.104 5.63999 13.536 5.63999 10.44Z" fill="black"/>
</svg>
