<svg width="24" height="24" viewBox="0 0 24 24" fill="none" xmlns="http://www.w3.org/2000/svg">
<path d="M15.168 16.6081L20.7601 22.2001L22.2001 20.7601L16.6081 15.168C17.7121 13.752 18.3601 12 18.3601 10.08C18.3601 5.52005 14.64 1.80005 10.08 1.80005C5.52005 1.80005 1.80005 5.52005 1.80005 10.08C1.80005 14.64 5.52005 18.3601 10.08 18.3601C12 18.3601 13.752 17.7121 15.168 16.6081ZM3.72005 10.08C3.72005 6.57605 6.57605 3.72005 10.08 3.72005C13.584 3.72005 16.4401 6.57605 16.4401 10.08C16.4401 13.584 13.584 16.4401 10.08 16.4401C6.57605 16.4401 3.72005 13.584 3.72005 10.08Z" fill="black"/>
</svg>
