<svg width="24" height="24" viewBox="0 0 24 24" fill="none" xmlns="http://www.w3.org/2000/svg">
<path d="M15.168 16.6081L20.76 22.2001L22.2 20.7601L16.608 15.168C17.712 13.752 18.36 12 18.36 10.08C18.36 5.52005 14.64 1.80005 10.08 1.80005C5.51999 1.80005 1.79999 5.52005 1.79999 10.08C1.79999 14.64 5.51999 18.3601 10.08 18.3601C12 18.3601 13.752 17.7121 15.168 16.6081ZM3.71999 10.08C3.71999 6.57605 6.57599 3.72005 10.08 3.72005C13.584 3.72005 16.44 6.57605 16.44 10.08C16.44 13.584 13.584 16.4401 10.08 16.4401C6.57599 16.4401 3.71999 13.584 3.71999 10.08ZM7.03199 11.136C6.98399 12.552 7.99199 13.632 9.47999 13.848V14.808H10.68V13.848C12.12 13.632 13.152 12.648 13.152 11.448C13.152 10.272 12.336 9.57605 10.968 9.38405L9.69599 9.21605C8.97599 9.12005 8.71199 8.92805 8.71199 8.37605C8.71199 7.68005 9.16799 7.46405 10.104 7.46405C11.16 7.46405 11.424 7.70405 11.4 8.66405H12.984C12.984 7.41605 12 6.40805 10.68 6.16805V5.20805H9.47999V6.16805C8.13599 6.38405 7.24799 7.32005 7.24799 8.49605C7.24799 9.64805 7.96799 10.32 9.21599 10.464L10.44 10.608C11.28 10.704 11.568 10.92 11.568 11.544C11.568 12.312 11.184 12.552 10.08 12.552C8.83199 12.552 8.54399 12.264 8.54399 11.136H7.03199Z" fill="black"/>
</svg>
