<svg width="24" height="24" viewBox="0 0 24 24" fill="none" xmlns="http://www.w3.org/2000/svg">
<path d="M14.712 22.2L14.976 19.056C15.624 18.792 16.2 18.456 16.728 18.072L19.608 19.416L22.224 14.856L19.68 13.128C19.728 12.744 19.752 12.384 19.752 12C19.752 11.616 19.728 11.256 19.68 10.872L22.224 9.144L19.608 4.608L16.776 5.928C16.224 5.52 15.624 5.184 14.976 4.944L14.712 1.8H9.288L9.024 4.944C8.376 5.208 7.8 5.52 7.248 5.928L4.416 4.608L1.776 9.12L4.368 10.896C4.32 11.256 4.296 11.616 4.296 12C4.296 12.384 4.32 12.744 4.368 13.104L1.776 14.88L4.416 19.392L7.248 18.072C7.8 18.48 8.376 18.792 9.024 19.056L9.288 22.2H14.712ZM4.272 15.408L6.528 13.848C6.288 13.2 6.216 12.696 6.216 12C6.216 11.304 6.288 10.8 6.528 10.152L4.272 8.592L5.208 6.984L7.608 8.112C8.544 7.128 9.504 6.552 10.848 6.288L11.064 3.6H12.936L13.152 6.288C14.544 6.576 15.48 7.104 16.416 8.088L18.792 6.984L19.728 8.616L17.544 10.104C17.76 10.824 17.832 11.328 17.832 12C17.832 12.672 17.76 13.176 17.544 13.896L19.728 15.384L18.792 17.016L16.392 15.888C15.48 16.848 14.52 17.4 13.152 17.736L12.936 20.4H11.064L10.848 17.712C9.504 17.448 8.544 16.872 7.608 15.888L5.208 17.016L4.272 15.408ZM8.4 12C8.4 13.992 10.008 15.6 12 15.6C13.992 15.6 15.6 13.992 15.6 12C15.6 10.008 13.992 8.4 12 8.4C10.008 8.4 8.4 10.008 8.4 12ZM10.08 12C10.08 10.944 10.944 10.08 12 10.08C13.056 10.08 13.92 10.944 13.92 12C13.92 13.056 13.056 13.92 12 13.92C10.944 13.92 10.08 13.056 10.08 12Z" fill="black"/>
</svg>
