<svg width="24" height="24" viewBox="0 0 24 24" fill="none" xmlns="http://www.w3.org/2000/svg">
<path d="M12 21.8399C18.24 19.3679 21.36 15.4319 21.36 10.1279V5.08791C18.696 3.16791 15.456 2.15991 12 2.15991C8.54402 2.15991 5.30401 3.16791 2.64001 5.08791V10.1279C2.64001 15.4319 5.76001 19.3679 12 21.8399ZM4.56001 10.1279V5.99991C6.79202 4.60791 9.19202 3.95991 12 3.95991C14.808 3.95991 17.208 4.60791 19.44 5.99991V10.1279C19.44 14.6399 17.208 17.6399 12 19.8719C6.79202 17.6399 4.56001 14.6399 4.56001 10.1279ZM7.32002 11.0639C7.32002 11.1839 7.34402 11.2799 7.41602 11.3759L9.52802 14.8079C10.056 15.7199 11.016 16.2959 12.12 16.2959C13.752 16.2959 15.048 15.0479 15.144 13.4159L15.264 7.82391C15.264 7.53591 15.048 7.29591 14.76 7.29591C14.472 7.29591 14.256 7.53591 14.256 7.79991L14.184 10.7999H13.656L13.68 6.79191C13.68 6.50391 13.488 6.26391 13.176 6.26391C12.888 6.26391 12.672 6.50391 12.672 6.76791L12.648 10.5599H12.12L12.096 6.26391C12.096 5.99991 11.904 5.75991 11.592 5.75991C11.304 5.75991 11.088 5.99991 11.088 6.28791L11.112 10.7999H10.56L10.512 7.29591C10.512 7.03191 10.32 6.76791 10.008 6.76791C9.69602 6.76791 9.50402 7.03191 9.50402 7.31991L9.57602 12.5279L8.47202 10.7279C8.37602 10.5359 8.16002 10.4159 7.94402 10.4159C7.58402 10.4159 7.32002 10.6799 7.32002 11.0639Z" fill="black"/>
</svg>
