<svg width="24" height="24" viewBox="0 0 24 24" fill="none" xmlns="http://www.w3.org/2000/svg">
<path d="M12.312 6.98401L7.94398 2.64001L3.59998 6.98401L4.79998 8.16002L5.85598 7.10401C6.23998 6.72002 6.64798 6.28801 7.03198 5.85601V20.4H8.85598V5.80801C9.26398 6.26401 9.64798 6.69601 10.056 7.10401L11.136 8.16002L12.312 6.98401ZM11.688 17.016L16.056 21.36L20.4 17.016L19.2 15.84L18.144 16.896C17.76 17.28 17.352 17.712 16.968 18.144V3.60001H15.144V18.192C14.736 17.736 14.352 17.304 13.944 16.896L12.864 15.84L11.688 17.016Z" fill="black"/>
</svg>
