<svg width="24" height="24" viewBox="0 0 24 24" fill="none" xmlns="http://www.w3.org/2000/svg">
<path d="M12.312 6.98389L7.944 2.63989L3.6 6.98389L4.8 8.15989L5.856 7.10389C6.24 6.71989 6.648 6.28789 7.032 5.85589V20.3999H8.856V5.80789C9.264 6.26389 9.648 6.69589 10.056 7.10389L11.136 8.15989L12.312 6.98389ZM11.688 17.0159L16.056 21.3599L20.4 17.0159L19.2 15.8399L18.144 16.8959C17.76 17.2799 17.352 17.7119 16.968 18.1439V3.59989H15.144V18.1919C14.736 17.7359 14.352 17.3039 13.944 16.8959L12.864 15.8399L11.688 17.0159Z" fill="black"/>
</svg>
