<svg width="24" height="24" viewBox="0 0 24 24" fill="none" xmlns="http://www.w3.org/2000/svg">
<path d="M4.00799 20.4119H19.992C21.432 18.6599 22.32 16.3799 22.32 13.9319C22.32 9.17989 19.056 5.12389 14.64 3.94789V5.96389C18 7.06789 20.4 10.2359 20.4 13.9319C20.4 15.6119 19.896 17.1719 19.032 18.4919H4.96799C4.10399 17.1719 3.59999 15.6119 3.59999 13.9319C3.59999 10.2359 5.99999 7.06789 9.35999 5.96389V3.94789C4.94399 5.12389 1.67999 9.17989 1.67999 13.9319C1.67999 16.3799 2.56799 18.6599 4.00799 20.4119ZM11.04 13.9319C11.04 14.4599 11.472 14.8919 12 14.8919C12.528 14.8919 12.96 14.4599 12.96 13.9319V3.58789H11.04V13.9319Z" fill="black"/>
</svg>
