<svg width="24" height="24" viewBox="0 0 24 24" fill="none" xmlns="http://www.w3.org/2000/svg">
<path d="M4.00799 20.412H19.992C21.432 18.66 22.32 16.38 22.32 13.932C22.32 9.18 19.056 5.124 14.64 3.948V5.964C18 7.068 20.4 10.236 20.4 13.932C20.4 15.612 19.896 17.172 19.032 18.492H4.96799C4.10399 17.172 3.59999 15.612 3.59999 13.932C3.59999 10.236 5.99999 7.068 9.35999 5.964V3.948C4.94399 5.124 1.67999 9.18 1.67999 13.932C1.67999 16.38 2.56799 18.66 4.00799 20.412ZM11.04 13.932C11.04 14.46 11.472 14.892 12 14.892C12.528 14.892 12.96 14.46 12.96 13.932V3.588H11.04V13.932Z" fill="black"/>
</svg>
