<svg width="24" height="24" viewBox="0 0 24 24" fill="none" xmlns="http://www.w3.org/2000/svg">
<path d="M4.00799 20.4001H19.968C20.808 19.5121 21.6 17.9761 21.984 16.5601H19.968C19.728 17.2321 19.416 17.9041 19.032 18.4801H4.96799C4.10399 17.1601 3.59999 15.6001 3.59999 13.9201C3.59999 9.2881 7.36799 5.5201 12 5.5201C15.72 5.5201 18.864 7.9201 19.968 11.2801H21.984C20.808 6.8641 16.8 3.6001 12 3.6001C6.31199 3.6001 1.67999 8.2321 1.67999 13.9201C1.67999 16.3681 2.56799 18.6481 4.00799 20.4001ZM11.04 13.9201C11.04 14.4481 11.472 14.8801 12 14.8801H22.32V12.9601H12C11.472 12.9601 11.04 13.3921 11.04 13.9201Z" fill="black"/>
</svg>
