<svg width="24" height="24" viewBox="0 0 24 24" fill="none" xmlns="http://www.w3.org/2000/svg">
<path d="M13.56 16.68C15.576 16.68 17.088 15.504 17.088 13.968C17.088 13.008 16.464 12.24 15.648 12V11.664C16.296 11.4 16.776 10.728 16.776 9.91202C16.776 8.47202 15.336 7.32001 13.56 7.32001C11.664 7.32001 10.2 8.56802 10.2 10.128V10.296H12.096C12.096 9.24002 12.336 9.00002 13.536 9.00002C14.664 9.00002 14.904 9.21602 14.904 10.104C14.904 11.016 14.712 11.112 13.752 11.112H12.72V12.792H13.776C14.856 12.792 15.12 12.984 15.12 13.896C15.12 14.808 14.832 15 13.536 15C12.24 15 12 14.784 12 13.56H10.056V13.68C10.056 15.408 11.52 16.68 13.56 16.68ZM4.20001 12C4.20001 17.232 8.32801 21.36 13.56 21.36H19.8V19.44H13.56C9.38401 19.44 6.12001 16.176 6.12001 12C6.12001 7.94402 9.38401 4.56001 13.56 4.56001H19.8V2.64001H13.56C8.30401 2.64001 4.20001 6.91201 4.20001 12Z" fill="black"/>
</svg>
