<svg width="24" height="24" viewBox="0 0 24 24" fill="none" xmlns="http://www.w3.org/2000/svg">
<path d="M13.56 16.6799C15.576 16.6799 17.088 15.5039 17.088 13.9679C17.088 13.0079 16.464 12.2399 15.648 11.9999V11.6639C16.296 11.3999 16.776 10.7279 16.776 9.91189C16.776 8.47189 15.336 7.31989 13.56 7.31989C11.664 7.31989 10.2 8.56789 10.2 10.1279V10.2959H12.096C12.096 9.23989 12.336 8.99989 13.536 8.99989C14.664 8.99989 14.904 9.21589 14.904 10.1039C14.904 11.0159 14.712 11.1119 13.752 11.1119H12.72V12.7919H13.776C14.856 12.7919 15.12 12.9839 15.12 13.8959C15.12 14.8079 14.832 14.9999 13.536 14.9999C12.24 14.9999 12 14.7839 12 13.5599H10.056V13.6799C10.056 15.4079 11.52 16.6799 13.56 16.6799ZM4.19995 11.9999C4.19995 17.2319 8.32795 21.3599 13.56 21.3599H19.8V19.4399H13.56C9.38395 19.4399 6.11995 16.1759 6.11995 11.9999C6.11995 7.94389 9.38395 4.55989 13.56 4.55989H19.8V2.63989H13.56C8.30395 2.63989 4.19995 6.91189 4.19995 11.9999Z" fill="black"/>
</svg>
