<svg width="24" height="24" viewBox="0 0 24 24" fill="none" xmlns="http://www.w3.org/2000/svg">
<path d="M12 16.68C14.016 16.68 15.528 15.504 15.528 13.968C15.528 13.008 14.904 12.24 14.088 12V11.664C14.736 11.4 15.216 10.728 15.216 9.91202C15.216 8.47202 13.776 7.32001 12 7.32001C10.104 7.32001 8.64 8.56802 8.64 10.128V10.296H10.536C10.536 9.24002 10.776 9.00002 11.976 9.00002C13.104 9.00002 13.344 9.21602 13.344 10.104C13.344 11.016 13.152 11.112 12.192 11.112H11.16V12.792H12.216C13.296 12.792 13.56 12.984 13.56 13.896C13.56 14.808 13.272 15 11.976 15C10.68 15 10.44 14.784 10.44 13.56H8.496V13.68C8.496 15.408 9.96 16.68 12 16.68ZM5.76 21.36H18.24V19.44H5.76V21.36ZM5.76 4.56001H18.24V2.64001H5.76V4.56001Z" fill="black"/>
</svg>
