<svg width="24" height="24" viewBox="0 0 24 24" fill="none" xmlns="http://www.w3.org/2000/svg">
<path d="M12 21.36C17.256 21.36 21.36 17.088 21.36 12C21.36 6.76801 17.232 2.64001 12 2.64001C6.76801 2.64001 2.64001 6.76801 2.64001 12C2.64001 17.232 6.76801 21.36 12 21.36ZM4.56001 12C4.56001 7.82402 7.82402 4.56001 12 4.56001C16.176 4.56001 19.44 7.82402 19.44 12C19.44 16.056 16.176 19.44 12 19.44C7.82402 19.44 4.56001 16.176 4.56001 12ZM8.49602 13.68C8.49602 15.408 9.96002 16.68 12 16.68C14.016 16.68 15.528 15.504 15.528 13.968C15.528 13.008 14.904 12.24 14.088 12V11.664C14.736 11.4 15.216 10.728 15.216 9.91202C15.216 8.47202 13.776 7.32001 12 7.32001C10.104 7.32001 8.64002 8.56802 8.64002 10.128V10.296H10.536C10.536 9.24002 10.776 9.00002 11.976 9.00002C13.104 9.00002 13.344 9.21602 13.344 10.104C13.344 11.016 13.152 11.112 12.192 11.112H11.16V12.792H12.216C13.296 12.792 13.56 12.984 13.56 13.896C13.56 14.808 13.272 15 11.976 15C10.68 15 10.44 14.784 10.44 13.56H8.49602V13.68Z" fill="black"/>
</svg>
