<svg width="24" height="24" viewBox="0 0 24 24" fill="none" xmlns="http://www.w3.org/2000/svg">
<path d="M4.92 21.96C5.688 21.96 6.408 21.672 6.96 21.12L15.936 12.12C16.32 12.192 16.68 12.24 17.04 12.24C19.944 12.24 22.32 9.86399 22.32 6.95999C22.32 4.05599 19.944 1.67999 17.04 1.67999C14.136 1.67999 11.76 4.05599 11.76 6.95999C11.76 7.31999 11.808 7.67999 11.88 8.06399L2.88 17.04C2.328 17.592 2.04 18.312 2.04 19.08C2.04 20.664 3.336 21.96 4.92 21.96ZM1.68 5.99999L6.528 10.848L8.688 8.68799L7.944 7.94399L6.96 8.90399L5.904 7.84799L6.864 6.86399L6.096 6.09599L5.112 7.05599L4.056 5.99999L6 4.05599L9.672 7.72799L9.984 7.41599C9.936 6.55199 9.984 6.14399 10.056 5.73599L6 1.67999L1.68 5.99999ZM3.84 19.08C3.84 18.792 3.936 18.528 4.152 18.312L13.944 8.54399C13.704 8.06399 13.56 7.53599 13.56 6.95999C13.56 5.03999 15.12 3.47999 17.04 3.47999C17.64 3.47999 18.216 3.64799 18.72 3.91199L16.2 6.45599L17.544 7.79999L20.088 5.27999C20.352 5.78399 20.52 6.35999 20.52 6.95999C20.52 8.87999 18.96 10.44 17.04 10.44C16.464 10.44 15.936 10.296 15.456 10.056L5.688 19.848C5.472 20.064 5.208 20.16 4.92 20.16C4.32 20.16 3.84 19.68 3.84 19.08ZM13.152 17.472L18 22.32L22.32 18L18.264 13.944C17.856 14.016 17.448 14.064 16.584 14.016L16.272 14.328L19.944 18L18 19.944L16.944 18.888L17.904 17.904L17.136 17.136L16.152 18.096L15.096 17.04L16.056 16.056L15.312 15.312L13.152 17.472Z" fill="black"/>
</svg>
