<svg width="24" height="24" viewBox="0 0 24 24" fill="none" xmlns="http://www.w3.org/2000/svg">
<path d="M6.98401 11.6879L2.64001 16.0559L6.98401 20.3999L8.16002 19.1999L7.10401 18.1439C6.72002 17.7599 6.28801 17.3519 5.85601 16.9679H20.4V15.1439H5.80801C6.26401 14.7359 6.69601 14.3519 7.10401 13.9439L8.16002 12.8639L6.98401 11.6879ZM17.016 12.3119L21.36 7.94391L17.016 3.59991L15.84 4.79991L16.896 5.85591C17.28 6.23991 17.712 6.64791 18.144 7.03191H3.60001V8.85592H18.192C17.736 9.26392 17.304 9.64791 16.896 10.0559L15.84 11.1359L17.016 12.3119Z" fill="black"/>
</svg>
