<svg width="24" height="24" viewBox="0 0 24 24" fill="none" xmlns="http://www.w3.org/2000/svg">
<path d="M6.83998 21.3599H17.16C18.144 21.3599 18.96 20.5439 18.96 19.5599V9.59989H17.04V19.5119C17.04 19.5359 17.016 19.5599 16.992 19.5599H7.00798C6.98398 19.5599 6.95998 19.5359 6.95998 19.5119V9.59989H5.03998V19.5599C5.03998 20.5439 5.85598 21.3599 6.83998 21.3599ZM3.59998 7.99189H20.4V6.19189H16.2V4.17589C16.2 3.31189 15.528 2.63989 14.664 2.63989H9.33598C8.47198 2.63989 7.79998 3.31189 7.79998 4.17589V6.19189H3.59998V7.99189ZM9.19198 17.1599H10.992V10.9199H9.19198V17.1599ZM9.47998 6.19189V4.36789C9.47998 4.34389 9.50398 4.31989 9.52798 4.31989H14.472C14.496 4.31989 14.52 4.34389 14.52 4.36789V6.19189H9.47998ZM13.032 17.1599H14.832V10.9199H13.032V17.1599Z" fill="black"/>
</svg>
