<svg width="24" height="24" viewBox="0 0 24 24" fill="none" xmlns="http://www.w3.org/2000/svg">
<path d="M6.84 21.36H17.16C18.144 21.36 18.96 20.544 18.96 19.56V9.6H17.04V19.512C17.04 19.536 17.016 19.56 16.992 19.56H7.008C6.984 19.56 6.96 19.536 6.96 19.512V9.6H5.04V19.56C5.04 20.544 5.856 21.36 6.84 21.36ZM3.6 7.992H20.4V6.192H16.2V4.176C16.2 3.312 15.528 2.64 14.664 2.64H9.336C8.472 2.64 7.8 3.312 7.8 4.176V6.192H3.6V7.992ZM9.192 17.16H10.992V10.92H9.192V17.16ZM9.48 6.192V4.368C9.48 4.344 9.504 4.32 9.528 4.32H14.472C14.496 4.32 14.52 4.344 14.52 4.368V6.192H9.48ZM13.032 17.16H14.832V10.92H13.032V17.16Z" fill="black"/>
</svg>
