<svg width="24" height="24" viewBox="0 0 24 24" fill="none" xmlns="http://www.w3.org/2000/svg">
<path d="M12 21.36C17.256 21.36 21.36 17.088 21.36 12C21.36 6.76801 17.232 2.64001 12 2.64001C6.76801 2.64001 2.64001 6.76801 2.64001 12C2.64001 17.232 6.76801 21.36 12 21.36ZM4.56001 12C4.56001 7.82402 7.82402 4.56001 12 4.56001C16.176 4.56001 19.44 7.82402 19.44 12C19.44 16.056 16.176 19.44 12 19.44C7.82402 19.44 4.56001 16.176 4.56001 12ZM8.64002 10.464H10.536V10.2C10.536 9.33602 10.824 9.02402 11.928 9.02402H12.096C13.104 9.02402 13.416 9.33602 13.416 10.272C13.416 10.944 13.248 11.448 11.64 12.456L8.85602 14.208V16.464H15.216V14.808L11.112 14.832V14.52L13.344 13.152C14.76 12.288 15.336 11.352 15.336 10.224C15.336 8.42402 13.872 7.34402 12.024 7.34402C10.032 7.34402 8.64002 8.64002 8.64002 10.152V10.464Z" fill="black"/>
</svg>
