<svg width="24" height="24" viewBox="0 0 24 24" fill="none" xmlns="http://www.w3.org/2000/svg">
<path d="M8.436 9.888L20.556 22.008L21.852 20.712L3.132 1.992L1.836 3.288L7.068 8.52C6.372 9.528 5.94 10.728 5.94 12V20.4H7.86V12C7.86 11.184 8.052 10.488 8.436 9.888ZM10.284 6.36L11.892 7.968H11.94H18.996C18.54 8.376 18.108 8.76 17.7 9.168L16.644 10.248L17.82 11.424L22.164 7.056L17.82 2.712L16.644 3.912L17.7 4.968C18.084 5.352 18.516 5.76 18.948 6.144H11.844C11.292 6.144 10.764 6.216 10.284 6.36Z" fill="black"/>
</svg>
