<svg width="24" height="24" viewBox="0 0 24 24" fill="none" xmlns="http://www.w3.org/2000/svg">
<path d="M20.712 22.008L22.008 20.712L3.288 1.992L1.992 3.288L9.792 11.064L7.608 11.04L5.064 8.496L3.96 9.6L5.472 11.112L2.76 11.04V12.72L5.472 12.648L3.96 14.16L5.064 15.264L7.608 12.72L10.248 12.696L5.304 17.592L6.408 18.696L11.304 13.752L11.28 16.392L8.736 18.936L9.84 20.04L11.352 18.528L11.28 21.24H12.96L12.888 18.528L14.4 20.04L15.504 18.936L12.96 16.392L12.936 14.208L20.712 22.008ZM8.736 4.824L12.936 9.024L12.96 7.368L15.504 4.824L14.4 3.72L12.888 5.232L12.96 2.52H11.28L11.352 5.232L9.84 3.72L8.736 4.824ZM13.416 9.504L14.496 10.584L18.936 6.168L17.832 5.064L13.416 9.504ZM14.976 11.064L19.176 15.264L20.28 14.16L18.768 12.648L21.48 12.72V11.04L18.768 11.112L20.28 9.6L19.176 8.496L16.632 11.04L14.976 11.064Z" fill="black"/>
</svg>
