<svg width="24" height="24" viewBox="0 0 24 24" fill="none" xmlns="http://www.w3.org/2000/svg">
<path fill-rule="evenodd" clip-rule="evenodd" d="M12 2.09998C12.2387 2.09999 12.4677 2.19483 12.6364 2.36364L17.6364 7.36464C17.9879 7.71615 17.9878 8.286 17.6363 8.63743C17.2848 8.98887 16.7149 8.98881 16.3635 8.63731L12.899 5.17207V17.001C12.899 17.498 12.496 17.901 11.999 17.901C11.5019 17.901 11.099 17.498 11.099 17.001V5.17377L7.63536 8.63737C7.28389 8.98884 6.71404 8.98884 6.36257 8.63737C6.0111 8.2859 6.0111 7.71605 6.36257 7.36458L11.3636 2.36358C11.5324 2.19479 11.7613 2.09996 12 2.09998ZM2.99998 16.1C3.49703 16.1 3.89998 16.5029 3.89998 17C3.89998 18.7119 5.28803 20.1 6.99998 20.1H17C18.7119 20.1 20.1 18.7119 20.1 17C20.1 16.5029 20.5029 16.1 21 16.1C21.497 16.1 21.9 16.5029 21.9 17C21.9 19.706 19.706 21.9 17 21.9H6.99998C4.29392 21.9 2.09998 19.706 2.09998 17C2.09998 16.5029 2.50292 16.1 2.99998 16.1Z" fill="black"/>
</svg>
