<svg width="24" height="24" viewBox="0 0 24 24" fill="none" xmlns="http://www.w3.org/2000/svg">
<path d="M11.916 22.32C13.308 22.32 14.436 21.192 14.436 19.8C14.436 18.744 13.788 17.856 12.876 17.472V15.192L17.22 13.848C17.988 13.608 18.468 12.984 18.468 12.216V8.75999H19.356V5.39999H15.852V8.75999H16.788V12.144C16.788 12.216 16.74 12.24 16.668 12.264L12.876 13.44V6.11999H14.604L11.916 1.67999L9.228 6.11999H10.956V14.976L7.572 13.848C7.452 13.8 7.404 13.776 7.404 13.656V10.128C8.052 9.81599 8.484 9.14399 8.484 8.39999C8.484 7.34399 7.62 6.47999 6.564 6.47999C5.508 6.47999 4.644 7.34399 4.644 8.39999C4.644 9.14399 5.076 9.81599 5.724 10.128V13.8C5.724 14.568 6.204 15.168 6.948 15.408L10.956 16.752V17.472C10.044 17.856 9.396 18.744 9.396 19.8C9.396 21.192 10.524 22.32 11.916 22.32Z" fill="black"/>
</svg>
