<svg width="24" height="24" viewBox="0 0 24 24" fill="none" xmlns="http://www.w3.org/2000/svg">
<path d="M4.48801 19.5599V21.3599H19.512V19.5599C19.488 17.7839 19.176 16.6079 18.432 15.6959C17.448 14.3999 15.816 13.6799 13.968 13.6799H10.032C8.18401 13.6799 6.60001 14.3999 5.59201 15.6959C4.84801 16.6319 4.51201 17.8079 4.48801 19.5599ZM6.52801 19.5599V18.3599C6.52801 16.3919 7.27201 15.7199 9.36001 15.7199H14.664C16.728 15.7199 17.472 16.3919 17.472 18.3599V19.5599H6.52801ZM7.15201 7.36789C7.15201 10.0319 9.33601 12.0959 12 12.0959C14.664 12.0959 16.848 10.0319 16.848 7.36789C16.848 4.70389 14.664 2.63989 12 2.63989C9.33601 2.63989 7.15201 4.70389 7.15201 7.36789ZM9.07201 7.36789C9.07201 5.73589 10.368 4.43989 12 4.43989C13.632 4.43989 14.928 5.73589 14.928 7.36789C14.928 8.99989 13.632 10.2959 12 10.2959C10.368 10.2959 9.07201 8.99989 9.07201 7.36789Z" fill="black"/>
</svg>
