<svg width="24" height="24" viewBox="0 0 24 24" fill="none" xmlns="http://www.w3.org/2000/svg">
<path d="M3.084 19.56V21.36H18.108V17.76L16.308 19.56H5.124V18.36C5.124 16.392 5.868 15.72 7.956 15.72H10.836L8.796 13.68H8.388C6.54 13.68 5.196 14.4 4.188 15.696C3.444 16.632 3.084 17.808 3.084 19.56ZM5.748 7.36802C5.748 10.032 7.932 12.096 10.596 12.096C13.26 12.096 15.444 10.032 15.444 7.36802C15.444 4.70401 13.26 2.64001 10.596 2.64001C7.932 2.64001 5.748 4.70401 5.748 7.36802ZM7.668 7.36802C7.668 5.73601 8.964 4.44001 10.596 4.44001C12.228 4.44001 13.524 5.73601 13.524 7.36802C13.524 9.00002 12.228 10.296 10.596 10.296C8.964 10.296 7.668 9.00002 7.668 7.36802ZM11.892 14.376L15.252 17.76L20.916 12.072L19.572 10.728L15.252 15.024L13.236 13.032L11.892 14.376Z" fill="black"/>
</svg>
