<svg width="24" height="24" viewBox="0 0 24 24" fill="none" xmlns="http://www.w3.org/2000/svg">
<path d="M3.08401 19.5599V21.3599H18.108V17.7599L16.308 19.5599H5.12401V18.3599C5.12401 16.3919 5.86801 15.7199 7.95601 15.7199H10.836L8.79601 13.6799H8.38801C6.54001 13.6799 5.19601 14.3999 4.18801 15.6959C3.44401 16.6319 3.08401 17.8079 3.08401 19.5599ZM5.74801 7.36789C5.74801 10.0319 7.93201 12.0959 10.596 12.0959C13.26 12.0959 15.444 10.0319 15.444 7.36789C15.444 4.70389 13.26 2.63989 10.596 2.63989C7.93201 2.63989 5.74801 4.70389 5.74801 7.36789ZM7.66801 7.36789C7.66801 5.73589 8.96401 4.43989 10.596 4.43989C12.228 4.43989 13.524 5.73589 13.524 7.36789C13.524 8.99989 12.228 10.2959 10.596 10.2959C8.96401 10.2959 7.66801 8.99989 7.66801 7.36789ZM11.892 14.3759L15.252 17.7599L20.916 12.0719L19.572 10.7279L15.252 15.0239L13.236 13.0319L11.892 14.3759Z" fill="black"/>
</svg>
