<svg width="22" height="20" viewBox="0 0 22 20" fill="none" xmlns="http://www.w3.org/2000/svg">
<path d="M7.03999 19.0091C8.07199 19.5851 9.36799 19.7291 11 18.9851L19.832 14.9531C20.744 14.5451 21.32 13.6091 21.32 12.6491C21.32 11.2091 20.144 10.1531 18.8 10.1531C18.584 10.1531 18.368 10.1771 18.152 10.2491L18.08 10.1051C17.504 9.02513 16.184 8.59313 15.032 9.12113L13.568 9.79313C13.976 10.1771 14.312 10.6571 14.528 11.1851L15.728 10.6571C16.088 10.4891 16.496 10.6331 16.664 11.0171L16.76 11.2331L13.376 12.7691C13.376 11.7611 12.776 10.8251 11.864 10.3931L7.90399 8.54513C5.23999 7.29713 2.69599 7.82513 0.679993 10.2491V16.9451H2.47999V10.9451C3.84799 9.57713 5.35999 9.36113 7.13599 10.1771L11.096 12.0251C11.384 12.1691 11.576 12.4571 11.576 12.7931C11.576 13.3931 10.928 13.8011 10.4 13.5611L7.32799 12.1451L6.72799 13.4411L10.184 15.0491C10.712 15.2891 11.384 15.2411 12.296 14.8331L18.512 12.0251C18.992 11.8091 19.52 12.1451 19.52 12.6491C19.52 12.9131 19.352 13.2011 19.088 13.3211L10.256 17.3531C9.31999 17.7851 8.59999 17.8091 7.90399 17.4251L5.19199 15.9131L4.30399 17.4971L7.03999 19.0091ZM7.39999 4.10513C7.39999 6.09713 9.00799 7.70513 11 7.70513C12.992 7.70513 14.6 6.09713 14.6 4.10513C14.6 2.11313 12.992 0.505127 11 0.505127C9.00799 0.505127 7.39999 2.11313 7.39999 4.10513ZM9.07999 4.10513C9.07999 3.04913 9.94399 2.18513 11 2.18513C12.056 2.18513 12.92 3.04913 12.92 4.10513C12.92 5.16113 12.056 6.02513 11 6.02513C9.94399 6.02513 9.07999 5.16113 9.07999 4.10513Z" fill="black"/>
</svg>
