<svg width="24" height="24" viewBox="0 0 24 24" fill="none" xmlns="http://www.w3.org/2000/svg">
<path d="M4.56001 20.4001H21.36V7.2001H6.36001V9.0001H19.56V18.6001H4.56001C4.44001 18.6001 4.44001 18.6001 4.44001 18.4801V5.5201C4.44001 5.4001 4.44001 5.4001 4.56001 5.4001H19.44C19.392 4.3441 18.576 3.6001 17.52 3.6001H4.56001C3.45601 3.6001 2.64001 4.4161 2.64001 5.5201V18.4801C2.64001 19.5841 3.45601 20.4001 4.56001 20.4001ZM15.048 13.9201C15.048 14.5921 15.6 15.1921 16.32 15.1921C17.016 15.1921 17.568 14.5921 17.568 13.9201C17.568 13.2241 17.016 12.6721 16.32 12.6721C15.6 12.6721 15.048 13.2241 15.048 13.9201Z" fill="black"/>
</svg>
