<svg width="24" height="24" viewBox="0 0 24 24" fill="none" xmlns="http://www.w3.org/2000/svg">
<path d="M19.344 21.4321L20.616 20.1601L7.87199 7.41611L6.33599 5.85612L3.02399 2.56812L1.75199 3.84012L4.60799 6.69611C3.52799 7.32011 2.54399 8.06411 1.67999 8.88011L3.09599 10.3441C3.98399 9.48011 4.99199 8.73611 6.07199 8.16011L8.37599 10.4641C7.10399 10.9201 5.97599 11.5921 4.99199 12.4561L6.33599 13.9921C7.43999 13.0321 8.61599 12.3841 9.98399 12.0721L12.984 15.0721C12.672 15.0001 12.336 14.9761 12 14.9761C10.608 14.9761 9.38399 15.4801 8.42399 16.2961L12 20.2321L14.904 16.9921L19.344 21.4321ZM8.37599 5.18412L10.08 6.88811C10.704 6.81611 11.328 6.76811 12 6.76811C15.624 6.76811 18.576 8.11211 20.904 10.3441L22.32 8.88011C19.752 6.40811 16.08 4.72812 12 4.72812C10.752 4.72812 9.52799 4.89612 8.37599 5.18412ZM13.056 9.86411L16.008 12.8401C16.584 13.1521 17.136 13.5361 17.664 13.9921L19.008 12.4561C17.4 11.0641 15.336 10.1041 13.056 9.86411Z" fill="black"/>
</svg>
