<svg width="24" height="24" viewBox="0 0 24 24" fill="none" xmlns="http://www.w3.org/2000/svg">
<path d="M1.68005 8.40005L3.09605 9.86405C5.42405 7.63205 8.37605 6.28805 12.0001 6.28805C15.6241 6.28805 18.5761 7.63205 20.9041 9.86405L22.3201 8.40005C19.7521 5.92805 16.0801 4.24805 12.0001 4.24805C7.92005 4.24805 4.24805 5.92805 1.68005 8.40005ZM4.99205 11.976L6.33605 13.512C7.94405 12.12 9.69605 11.376 12.0001 11.376C14.3041 11.376 16.0561 12.12 17.6641 13.512L19.0081 11.976C17.1601 10.368 14.7121 9.33605 12.0001 9.33605C9.28805 9.33605 6.84005 10.368 4.99205 11.976ZM8.42405 15.816L12.0001 19.752L15.5761 15.816C14.6161 15 13.3921 14.496 12.0001 14.496C10.6081 14.496 9.38405 15 8.42405 15.816Z" fill="black"/>
</svg>
