<svg width="24" height="24" viewBox="0 0 24 24" fill="none" xmlns="http://www.w3.org/2000/svg">
<path d="M12 21.3599C17.256 21.3599 21.36 17.0879 21.36 11.9999C21.36 6.76789 17.232 2.63989 12 2.63989C6.76802 2.63989 2.64001 6.76789 2.64001 11.9999C2.64001 17.2319 6.76802 21.3599 12 21.3599ZM4.56001 11.9999C4.56001 7.82389 7.82402 4.55989 12 4.55989C16.176 4.55989 19.44 7.82389 19.44 11.9999C19.44 16.0559 16.176 19.4399 12 19.4399C7.82402 19.4399 4.56001 16.1759 4.56001 11.9999ZM8.20802 12.0239C8.20802 14.8559 9.52802 16.7039 12 16.7039C14.472 16.7039 15.768 14.8559 15.768 12.0239C15.768 9.16789 14.496 7.34389 12 7.34389C9.52802 7.34389 8.20802 9.19189 8.20802 12.0239ZM10.2 13.1519V10.9439C10.2 9.26389 10.704 8.95189 11.976 8.95189C12.696 8.95189 13.176 9.04789 13.464 9.45589L10.2 13.1519ZM10.488 14.6399L13.776 10.9439V13.1759C13.776 14.8319 13.248 15.1439 11.976 15.1439C11.256 15.1439 10.776 15.0479 10.488 14.6399Z" fill="black"/>
</svg>
