<svg width="24" height="24" viewBox="0 0 24 24" fill="none" xmlns="http://www.w3.org/2000/svg">
<path d="M12 21.36C17.256 21.36 21.36 17.088 21.36 12C21.36 6.76801 17.232 2.64001 12 2.64001C6.76801 2.64001 2.64001 6.76801 2.64001 12C2.64001 17.232 6.76801 21.36 12 21.36ZM4.56001 12C4.56001 7.82402 7.82402 4.56001 12 4.56001C16.176 4.56001 19.44 7.82402 19.44 12C19.44 16.056 16.176 19.44 12 19.44C7.82402 19.44 4.56001 16.176 4.56001 12ZM8.20801 12.024C8.20801 14.856 9.52802 16.704 12 16.704C14.472 16.704 15.768 14.856 15.768 12.024C15.768 9.16802 14.496 7.34402 12 7.34402C9.52802 7.34402 8.20801 9.19202 8.20801 12.024ZM10.2 13.152V10.944C10.2 9.26402 10.704 8.95202 11.976 8.95202C12.696 8.95202 13.176 9.04802 13.464 9.45602L10.2 13.152ZM10.488 14.64L13.776 10.944V13.176C13.776 14.832 13.248 15.144 11.976 15.144C11.256 15.144 10.776 15.048 10.488 14.64Z" fill="black"/>
</svg>
