<svg width="24" height="24" viewBox="0 0 24 24" fill="none" xmlns="http://www.w3.org/2000/svg">
<path d="M2.21997 18.72H4.01997V15.96H19.98V18.72H21.78V12.096C21.78 9.88803 20.1 8.20803 17.892 8.20803H12.06V14.04H4.01997V5.28003H2.21997V18.72ZM5.02797 10.08C5.02797 11.736 6.37197 13.08 8.02797 13.08C9.68397 13.08 11.028 11.736 11.028 10.08C11.028 8.42403 9.68397 7.08003 8.02797 7.08003C6.37197 7.08003 5.02797 8.42403 5.02797 10.08ZM6.58797 10.08C6.58797 9.28803 7.23597 8.64003 8.02797 8.64003C8.81997 8.64003 9.46797 9.28803 9.46797 10.08C9.46797 10.872 8.81997 11.52 8.02797 11.52C7.23597 11.52 6.58797 10.872 6.58797 10.08ZM13.86 14.04V10.008H18.468C19.5 10.008 19.98 10.488 19.98 11.52V14.04H13.86Z" fill="black"/>
</svg>
