<svg width="24" height="24" viewBox="0 0 24 24" fill="none" xmlns="http://www.w3.org/2000/svg">
<path d="M12 22.32C17.424 22.32 19.896 19.128 19.944 12C19.896 4.87199 17.424 1.67999 12 1.67999C6.57603 1.67999 4.10403 4.87199 4.05603 12C4.10403 19.128 6.57603 22.32 12 22.32ZM7.53603 15.768L11.28 12L7.53603 8.23199L8.54403 7.22399L11.52 10.296V3.09599L16.728 8.47199L13.2 12L16.728 15.528L11.52 20.904V13.704L8.54403 16.776L7.53603 15.768ZM12.936 17.352L14.688 15.528L12.936 13.704V17.352ZM12.936 10.296L14.688 8.47199L12.936 6.64799V10.296Z" fill="black"/>
</svg>
