<svg width="24" height="24" viewBox="0 0 24 24" fill="none" xmlns="http://www.w3.org/2000/svg">
<path d="M12 21.36C17.256 21.36 21.36 17.088 21.36 12C21.36 6.76801 17.232 2.64001 12 2.64001C6.76801 2.64001 2.64001 6.76801 2.64001 12C2.64001 17.232 6.76801 21.36 12 21.36ZM4.56001 12C4.56001 7.82402 7.82402 4.56001 12 4.56001C16.176 4.56001 19.44 7.82402 19.44 12C19.44 16.056 16.176 19.44 12 19.44C7.82402 19.44 4.56001 16.176 4.56001 12ZM8.23202 13.416C8.18402 15.216 9.48002 16.536 11.352 16.776V17.976H12.672V16.776C14.496 16.536 15.792 15.336 15.792 13.776C15.792 12.312 14.784 11.472 13.104 11.232L11.544 11.016C10.608 10.896 10.248 10.656 10.248 9.93602C10.248 8.97602 10.824 8.73602 12.024 8.73602C13.368 8.73602 13.752 9.07202 13.728 10.272H15.576C15.576 8.71202 14.352 7.44001 12.672 7.17601V5.97601H11.352V7.17601C9.64802 7.41602 8.49602 8.59202 8.49602 10.056C8.49602 11.472 9.36002 12.288 10.92 12.504L12.48 12.72C13.56 12.864 13.92 13.128 13.92 13.92C13.92 14.928 13.416 15.192 12.024 15.192C10.44 15.192 10.008 14.808 10.032 13.416H8.23202Z" fill="black"/>
</svg>
