<svg width="24" height="24" viewBox="0 0 24 24" fill="none" xmlns="http://www.w3.org/2000/svg">
<path fill-rule="evenodd" clip-rule="evenodd" d="M7 6.5H2V20.5H22V6.5H17L15 3.5H9L7 6.5ZM10.0168 5.4L8.01685 8.4H3.9V18.6H20.1V8.4H15.9832L13.9832 5.4H10.0168Z" fill="black"/>
<path fill-rule="evenodd" clip-rule="evenodd" d="M12 15.35C13.2979 15.35 14.35 14.2979 14.35 13C14.35 11.7021 13.2979 10.65 12 10.65C10.7021 10.65 9.65 11.7021 9.65 13C9.65 14.2979 10.7021 15.35 12 15.35ZM12 17.25C14.3472 17.25 16.25 15.3472 16.25 13C16.25 10.6528 14.3472 8.75 12 8.75C9.65279 8.75 7.75 10.6528 7.75 13C7.75 15.3472 9.65279 17.25 12 17.25Z" fill="black"/>
</svg>
