<svg width="24" height="24" viewBox="0 0 24 24" fill="none" xmlns="http://www.w3.org/2000/svg">
<path d="M21.9999 17.975V6.50012H16.9999L14.9999 3.50012H8.99988L8.40993 4.38503L9.78004 5.75514L10.0167 5.40012H13.983L15.983 8.40012H20.0999V16.075L21.9999 17.975Z" fill="black"/>
<path d="M16.1622 12.1373C15.821 10.4824 14.5176 9.179 12.8626 8.83775L16.1622 12.1373Z" fill="black"/>
<path fill-rule="evenodd" clip-rule="evenodd" d="M4.51245 3.16919L3.17163 1.82837L1.82812 3.17187L5.15637 6.50012H1.99988V20.5001H19.1564L20.8281 22.1719L22.1689 20.8311L4.50977 3.17187L4.51245 3.16919ZM14.8284 16.1722L17.2564 18.6001H3.89988V8.40012H7.05637L8.8278 10.1715C8.15736 10.9229 7.74988 11.9139 7.74988 13.0001C7.74988 15.3473 9.65267 17.2501 11.9999 17.2501C13.0861 17.2501 14.0771 16.8426 14.8284 16.1722ZM10.1753 11.519L13.481 14.8247C13.0768 15.1532 12.5613 15.3501 11.9999 15.3501C10.702 15.3501 9.64988 14.298 9.64988 13.0001C9.64988 12.4387 9.84677 11.9232 10.1753 11.519Z" fill="black"/>
</svg>
