<svg width="24" height="24" viewBox="0 0 24 24" fill="none" xmlns="http://www.w3.org/2000/svg">
<path d="M19.728 20.472C21.144 20.472 22.296 19.32 22.296 17.904C22.296 16.488 21.144 15.336 19.728 15.336C19.08 15.336 18.504 15.576 18.048 15.96L15.792 14.64C15.912 14.304 15.96 13.944 15.96 13.584C15.96 11.664 14.424 10.128 12.504 10.128C12.24 10.128 12 10.152 11.76 10.2L10.68 7.94402C11.16 7.48802 11.472 6.81602 11.472 6.09602C11.472 4.68002 10.32 3.52802 8.904 3.52802C7.488 3.52802 6.336 4.68002 6.336 6.09602C6.336 7.51202 7.488 8.66402 8.904 8.66402C9.024 8.66402 9.168 8.66402 9.288 8.64002L10.344 10.896C9.576 11.52 9.072 12.504 9.072 13.584C9.072 15.504 10.584 17.016 12.504 17.016C13.488 17.016 14.376 16.608 15 15.96L17.232 17.304C17.184 17.496 17.16 17.688 17.16 17.904C17.16 19.32 18.312 20.472 19.728 20.472ZM1.68 13.584C1.68 14.712 2.616 15.648 3.744 15.648C4.896 15.648 5.808 14.712 5.808 13.584C5.808 12.408 4.896 11.52 3.744 11.52C2.616 11.52 1.68 12.408 1.68 13.584ZM6.6 14.232H8.208V12.912H6.6V14.232ZM7.896 6.09602C7.896 5.54402 8.352 5.08802 8.904 5.08802C9.456 5.08802 9.912 5.54402 9.912 6.09602C9.912 6.64802 9.456 7.10402 8.904 7.10402C8.352 7.10402 7.896 6.64802 7.896 6.09602ZM10.752 13.584C10.752 12.6 11.52 11.808 12.504 11.808C13.488 11.808 14.28 12.6 14.28 13.584C14.28 14.568 13.488 15.336 12.504 15.336C11.52 15.336 10.752 14.568 10.752 13.584ZM15.792 10.344L16.56 11.4L18.12 10.248L17.352 9.19202L15.792 10.344ZM18.192 7.87201C18.192 9.02401 19.128 9.96002 20.256 9.96002C21.432 9.96002 22.32 9.02401 22.32 7.87201C22.32 6.72002 21.432 5.80802 20.256 5.80802C19.128 5.80802 18.192 6.72002 18.192 7.87201ZM18.72 17.904C18.72 17.352 19.176 16.896 19.728 16.896C20.28 16.896 20.736 17.352 20.736 17.904C20.736 18.456 20.28 18.912 19.728 18.912C19.176 18.912 18.72 18.456 18.72 17.904Z" fill="black"/>
</svg>
