<svg width="24" height="24" viewBox="0 0 24 24" fill="none" xmlns="http://www.w3.org/2000/svg">
<path d="M12 17.28L16.344 12.936L15.144 11.76L14.088 12.816C13.704 13.2 13.296 13.632 12.912 14.064V6.96001H11.088V14.112C10.68 13.656 10.296 13.224 9.88802 12.816L8.80802 11.76L7.63202 12.936L12 17.28ZM2.64001 12C2.64001 17.232 6.76801 21.36 12 21.36C17.256 21.36 21.36 17.088 21.36 12C21.36 6.76801 17.232 2.64001 12 2.64001C6.76801 2.64001 2.64001 6.76801 2.64001 12ZM4.56001 12C4.56001 7.82402 7.82402 4.56001 12 4.56001C16.176 4.56001 19.44 7.82402 19.44 12C19.44 16.056 16.176 19.44 12 19.44C7.82402 19.44 4.56001 16.176 4.56001 12Z" fill="black"/>
</svg>
