<svg width="24" height="24" viewBox="0 0 24 24" fill="none" xmlns="http://www.w3.org/2000/svg">
<path d="M9.14402 16.152L14.184 11.112C14.16 11.712 14.112 12.288 14.112 12.864L14.136 14.376H15.792V8.20801H9.64802V9.88802H11.16C11.688 9.88802 12.288 9.88802 12.864 9.84002L7.84802 14.856L9.14402 16.152ZM2.64001 12C2.64001 17.232 6.76801 21.36 12 21.36C17.256 21.36 21.36 17.088 21.36 12C21.36 6.76801 17.232 2.64001 12 2.64001C6.76801 2.64001 2.64001 6.76801 2.64001 12ZM4.56001 12C4.56001 7.82402 7.82402 4.56001 12 4.56001C16.176 4.56001 19.44 7.82402 19.44 12C19.44 16.056 16.176 19.44 12 19.44C7.82402 19.44 4.56001 16.176 4.56001 12Z" fill="black"/>
</svg>
