<svg width="24" height="24" viewBox="0 0 24 24" fill="none" xmlns="http://www.w3.org/2000/svg">
<path d="M10.992 16.896H13.032V12.96H16.896V11.04H13.032V7.10401H10.992V11.04H7.104V12.96H10.992V16.896ZM2.64 12C2.64 17.232 6.768 21.36 12 21.36C17.256 21.36 21.36 17.088 21.36 12C21.36 6.76801 17.232 2.64001 12 2.64001C6.768 2.64001 2.64 6.76801 2.64 12ZM4.56 12C4.56 7.82402 7.824 4.56001 12 4.56001C16.176 4.56001 19.44 7.82402 19.44 12C19.44 16.056 16.176 19.44 12 19.44C7.824 19.44 4.56 16.176 4.56 12Z" fill="black"/>
</svg>
