<svg width="24" height="24" viewBox="0 0 24 24" fill="none" xmlns="http://www.w3.org/2000/svg">
<path d="M11.064 16.344L12.24 15.144L11.184 14.088C10.8 13.704 10.368 13.296 9.93602 12.912H17.04V11.088H9.88802C10.344 10.68 10.776 10.296 11.184 9.88802L12.24 8.80802L11.064 7.63202L6.72002 12L11.064 16.344ZM2.64001 12C2.64001 17.232 6.76801 21.36 12 21.36C17.256 21.36 21.36 17.088 21.36 12C21.36 6.76801 17.232 2.64001 12 2.64001C6.76801 2.64001 2.64001 6.76801 2.64001 12ZM4.56001 12C4.56001 7.82402 7.82402 4.56001 12 4.56001C16.176 4.56001 19.44 7.82402 19.44 12C19.44 16.056 16.176 19.44 12 19.44C7.82402 19.44 4.56001 16.176 4.56001 12Z" fill="black"/>
</svg>
