<svg width="24" height="24" viewBox="0 0 24 24" fill="none" xmlns="http://www.w3.org/2000/svg">
<path d="M9.62402 15.792H15.792V9.64802H14.112V11.16C14.112 11.688 14.112 12.288 14.16 12.864L9.14402 7.84802L7.84802 9.14402L12.888 14.184C12.288 14.16 11.712 14.112 11.136 14.112L9.62402 14.136V15.792ZM2.64001 12C2.64001 17.232 6.76801 21.36 12 21.36C17.256 21.36 21.36 17.088 21.36 12C21.36 6.76801 17.232 2.64001 12 2.64001C6.76801 2.64001 2.64001 6.76801 2.64001 12ZM4.56001 12C4.56001 7.82402 7.82402 4.56001 12 4.56001C16.176 4.56001 19.44 7.82402 19.44 12C19.44 16.056 16.176 19.44 12 19.44C7.82402 19.44 4.56001 16.176 4.56001 12Z" fill="black"/>
</svg>
