<svg width="24" height="24" viewBox="0 0 24 24" fill="none" xmlns="http://www.w3.org/2000/svg">
<path d="M8.90401 15.96H11.856C13.464 15.96 14.856 15.36 15.84 14.064C15.936 13.944 16.032 13.824 16.104 13.704H17.064C19.944 13.704 22.08 11.808 22.08 9.168C22.08 6.456 19.944 4.56 17.064 4.56H3.84001V10.08C3.84001 11.904 4.17601 13.104 4.94401 14.064C5.95201 15.36 7.29601 15.96 8.90401 15.96ZM1.92001 17.52C1.92001 18.576 2.78401 19.44 3.84001 19.44H18C19.08 19.44 19.92 18.576 19.92 17.52H1.92001ZM5.88001 11.4V6.36H14.88V11.4C14.88 13.368 14.136 14.04 12.072 14.04H8.71201C6.62401 14.04 5.88001 13.368 5.88001 11.4ZM16.776 11.904C16.872 11.376 16.92 10.776 16.92 10.08V6.36C19.344 6.36 20.04 6.792 20.04 8.592V9.696C20.04 11.4 19.416 11.904 17.208 11.904H16.776Z" fill="black"/>
</svg>
