<svg width="24" height="24" viewBox="0 0 24 24" fill="none" xmlns="http://www.w3.org/2000/svg">
<path d="M9.64801 21.372C13.584 21.372 16.68 20.1 16.68 17.868V16.428C19.392 16.044 21.408 14.892 21.408 13.092V6.10799C21.408 3.87599 18.408 2.62799 14.376 2.62799C10.512 2.62799 7.32001 3.85199 7.32001 6.10799V7.54799C4.58401 7.95599 2.59201 9.08399 2.59201 10.884V17.868C2.59201 20.1 5.64001 21.372 9.64801 21.372ZM4.27201 17.868V16.812C5.54401 17.532 7.46401 17.916 9.64801 17.916C11.808 17.916 13.728 17.532 15 16.812V17.868C15 18.876 13.08 19.692 9.64801 19.692C6.14401 19.692 4.27201 18.876 4.27201 17.868ZM4.27201 14.412V13.284C5.54401 14.004 7.46401 14.388 9.64801 14.388C11.808 14.388 13.728 14.004 15 13.284V14.412C15 15.42 13.08 16.236 9.64801 16.236C6.14401 16.236 4.27201 15.42 4.27201 14.412ZM4.27201 10.884C4.27201 9.87599 6.21601 9.08399 9.64801 9.08399C13.176 9.08399 15 9.87599 15 10.884C15 11.892 13.08 12.708 9.64801 12.708C6.14401 12.708 4.27201 11.892 4.27201 10.884ZM9.00001 6.10799C9.00001 5.09999 10.944 4.30799 14.376 4.30799C17.904 4.30799 19.728 5.09999 19.728 6.10799C19.728 7.11599 17.328 8.17199 13.656 7.90799C12.72 7.64399 11.64 7.47599 10.44 7.42799C9.48001 7.09199 9.00001 6.61199 9.00001 6.10799ZM16.224 9.51599C17.616 9.34799 18.84 9.01199 19.728 8.50799V9.63599C19.728 10.38 18.72 11.004 16.68 11.292V10.884C16.68 10.38 16.512 9.92399 16.224 9.51599ZM16.68 14.748V12.972C17.856 12.804 18.912 12.492 19.728 12.036V13.092C19.728 13.836 18.72 14.46 16.68 14.748Z" fill="black"/>
</svg>
