<svg width="24" height="24" viewBox="0 0 24 24" fill="none" xmlns="http://www.w3.org/2000/svg">
<path d="M2.64001 4.776V17.304L7.10401 13.896H17.52V4.776C17.52 3.792 16.704 2.976 15.72 2.976H4.44001C3.45601 2.976 2.64001 3.792 2.64001 4.776ZM4.56001 13.512V4.824C4.56001 4.8 4.58401 4.776 4.60801 4.776H15.552C15.576 4.776 15.6 4.8 15.6 4.824V12.096H6.43201L4.56001 13.512ZM7.92002 15.816C7.92002 16.8 8.73602 17.616 9.72002 17.616H16.896L21.36 21.024V8.736C21.36 7.704 20.496 6.816 19.44 6.816V8.736V9.216V17.232L17.568 15.816H10.32H9.84002H7.92002Z" fill="black"/>
</svg>
