<svg width="24" height="24" viewBox="0 0 24 24" fill="none" xmlns="http://www.w3.org/2000/svg">
<path d="M5.18401 20.4H18.816C18.72 19.464 17.928 18.72 16.92 18.72H14.976L14.472 16.32H19.56C20.544 16.32 21.36 15.504 21.36 14.52V5.40001C21.36 4.41601 20.544 3.60001 19.56 3.60001H4.44001C3.45601 3.60001 2.64001 4.41601 2.64001 5.40001V14.52C2.64001 15.504 3.45601 16.32 4.44001 16.32H9.52802L9.02402 18.72H7.08002C6.12001 18.72 5.30401 19.464 5.18401 20.4ZM4.56001 14.472V5.44801C4.56001 5.42401 4.58401 5.40001 4.60801 5.40001H19.392C19.416 5.40001 19.44 5.42401 19.44 5.44801V14.472C19.44 14.496 19.416 14.52 19.392 14.52H4.60801C4.58401 14.52 4.56001 14.496 4.56001 14.472ZM10.632 18.72L11.136 16.32H12.864L13.368 18.72H10.632Z" fill="black"/>
</svg>
