<svg width="24" height="24" viewBox="0 0 24 24" fill="none" xmlns="http://www.w3.org/2000/svg">
<path d="M4.464 19.92H11.76V18.24H9.912L10.416 15.84H11.76V14.04H3.888C3.864 14.04 3.84 14.016 3.84 13.992V4.968C3.84 4.944 3.864 4.92 3.888 4.92H18.672C18.696 4.92 18.72 4.944 18.72 4.968V6.12H20.64V4.92C20.64 3.936 19.824 3.12 18.84 3.12H3.72C2.736 3.12 1.92 3.936 1.92 4.92V14.04C1.92 15.024 2.736 15.84 3.72 15.84H8.808L8.304 18.24H6.36C5.4 18.24 4.584 18.984 4.464 19.92ZM13.32 19.08C13.32 20.064 14.136 20.88 15.12 20.88H20.28C21.264 20.88 22.08 20.064 22.08 19.08V9.6C22.08 8.616 21.264 7.8 20.28 7.8H15.12C14.136 7.8 13.32 8.616 13.32 9.6V19.08ZM15.12 19.152V9.528C15.12 9.504 15.144 9.48 15.168 9.48H20.232C20.256 9.48 20.28 9.504 20.28 9.528V19.152C20.28 19.176 20.256 19.2 20.232 19.2H15.168C15.144 19.2 15.12 19.176 15.12 19.152ZM16.92 17.688C16.92 18.12 17.256 18.48 17.712 18.48C18.144 18.48 18.48 18.12 18.48 17.688C18.48 17.256 18.144 16.92 17.712 16.92C17.256 16.92 16.92 17.256 16.92 17.688Z" fill="black"/>
</svg>
