<svg width="24" height="24" viewBox="0 0 24 24" fill="none" xmlns="http://www.w3.org/2000/svg">
<path d="M13.536 16.704H13.584C15.576 16.704 17.1119 15.528 17.1119 13.992C17.1119 13.056 16.5599 12.264 15.672 12V11.712C16.344 11.448 16.8 10.728 16.8 9.93602C16.8 8.47202 15.336 7.34402 13.56 7.34402H13.536C11.76 7.34402 10.296 8.47202 10.296 9.93602C10.296 10.752 10.776 11.472 11.472 11.736V12C10.584 12.264 10.008 13.032 10.008 13.992C10.008 15.528 11.544 16.704 13.536 16.704ZM4.19995 12C4.19995 17.232 8.32795 21.36 13.56 21.36H19.7999V19.44H13.56C9.38395 19.44 6.11995 16.176 6.11995 12C6.11995 7.94402 9.38395 4.56001 13.56 4.56001H19.7999V2.64001H13.56C8.30395 2.64001 4.19995 6.91201 4.19995 12ZM12.048 14.208V13.632C12.048 13.032 12.456 12.792 13.464 12.792H13.704C14.736 12.792 15.144 13.032 15.144 13.632V14.208C15.144 14.808 14.736 15.024 13.704 15.024H13.464C12.456 15.024 12.048 14.808 12.048 14.208ZM12.144 10.392V9.81602C12.144 9.26402 12.504 9.04802 13.44 9.04802H13.656C14.568 9.04802 14.952 9.26402 14.952 9.81602V10.392C14.952 10.944 14.568 11.16 13.656 11.16H13.44C12.504 11.16 12.144 10.944 12.144 10.392Z" fill="black"/>
</svg>
