<svg width="24" height="24" viewBox="0 0 24 24" fill="none" xmlns="http://www.w3.org/2000/svg">
<path d="M12 21.36C17.256 21.36 21.36 17.088 21.36 12C21.36 6.76801 17.232 2.64001 12 2.64001C6.76801 2.64001 2.64001 6.76801 2.64001 12C2.64001 17.232 6.76801 21.36 12 21.36ZM4.56001 12C4.56001 7.82402 7.82402 4.56001 12 4.56001C16.176 4.56001 19.44 7.82402 19.44 12C19.44 16.056 16.176 19.44 12 19.44C7.82402 19.44 4.56001 16.176 4.56001 12ZM8.44802 13.992C8.44802 15.528 9.98402 16.704 11.976 16.704H12.024C14.016 16.704 15.552 15.528 15.552 13.992C15.552 13.056 15 12.264 14.112 12V11.712C14.784 11.448 15.24 10.728 15.24 9.93602C15.24 8.47202 13.776 7.34402 12 7.34402H11.976C10.2 7.34402 8.73602 8.47202 8.73602 9.93602C8.73602 10.752 9.21602 11.472 9.91202 11.736V12C9.02402 12.264 8.44802 13.032 8.44802 13.992ZM10.488 14.208V13.632C10.488 13.032 10.896 12.792 11.904 12.792H12.144C13.176 12.792 13.584 13.032 13.584 13.632V14.208C13.584 14.808 13.176 15.024 12.144 15.024H11.904C10.896 15.024 10.488 14.808 10.488 14.208ZM10.584 10.392V9.81602C10.584 9.26402 10.944 9.04802 11.88 9.04802H12.096C13.008 9.04802 13.392 9.26402 13.392 9.81602V10.392C13.392 10.944 13.008 11.16 12.096 11.16H11.88C10.944 11.16 10.584 10.944 10.584 10.392Z" fill="black"/>
</svg>
