<svg width="24" height="24" viewBox="0 0 24 24" fill="none" xmlns="http://www.w3.org/2000/svg">
<path fill-rule="evenodd" clip-rule="evenodd" d="M12.0001 21.3606C6.76814 21.3606 2.64014 17.2326 2.64014 12.0006C2.64014 6.76863 6.76814 2.64062 12.0001 2.64062C17.2321 2.64062 21.3601 6.76863 21.3601 12.0006C21.3601 17.0886 17.2561 21.3606 12.0001 21.3606ZM12.0001 4.56063C7.82414 4.56063 4.56014 7.82463 4.56014 12.0006C4.56014 16.1766 7.82414 19.4406 12.0001 19.4406C16.1761 19.4406 19.4401 16.0566 19.4401 12.0006C19.4401 7.82463 16.1761 4.56063 12.0001 4.56063Z" fill="black"/>
<path d="M15.4649 14C15.194 14.4683 14.8309 14.8766 14.4004 15.2C13.7318 15.7023 12.9007 16 12 16C11.0994 16 10.2682 15.7023 9.59964 15.2C9.16915 14.8766 8.80605 14.4683 8.53516 14" stroke="black" stroke-width="1.92"/>
<circle cx="9" cy="10.25" r="1.25" fill="black"/>
<circle cx="15" cy="10.25" r="1.25" fill="black"/>
</svg>
