<svg width="24" height="24" viewBox="0 0 24 24" fill="none" xmlns="http://www.w3.org/2000/svg">
<path fill-rule="evenodd" clip-rule="evenodd" d="M12.0001 21.3606C6.76814 21.3606 2.64014 17.2326 2.64014 12.0006C2.64014 6.76863 6.76814 2.64062 12.0001 2.64062C17.2321 2.64062 21.3601 6.76863 21.3601 12.0006C21.3601 17.0886 17.2561 21.3606 12.0001 21.3606ZM12.0001 4.56063C7.82414 4.56063 4.56014 7.82463 4.56014 12.0006C4.56014 16.1766 7.82414 19.4406 12.0001 19.4406C16.1761 19.4406 19.4401 16.0566 19.4401 12.0006C19.4401 7.82463 16.1761 4.56063 12.0001 4.56063Z" fill="black"/>
<path d="M9.59964 14.8L9.02299 14.0325L9.02299 14.0325L9.59964 14.8ZM14.4004 14.8L14.9771 14.0325V14.0325L14.4004 14.8ZM10.1763 15.5675C10.6843 15.1858 11.3144 14.96 12 14.96V13.04C10.8843 13.04 9.85214 13.4095 9.02299 14.0325L10.1763 15.5675ZM12 14.96C12.6856 14.96 13.3157 15.1858 13.8238 15.5675L14.9771 14.0325C14.1479 13.4095 13.1157 13.04 12 13.04V14.96ZM9.36614 16.4807C9.57207 16.1247 9.84847 15.8138 10.1763 15.5675L9.02299 14.0325C8.48983 14.4331 8.04003 14.9387 7.70417 15.5193L9.36614 16.4807ZM13.8238 15.5675C14.1516 15.8138 14.428 16.1247 14.6339 16.4807L16.2959 15.5193C15.96 14.9387 15.5102 14.4331 14.9771 14.0325L13.8238 15.5675Z" fill="black"/>
<circle cx="9" cy="10.25" r="1.25" fill="black"/>
<circle cx="15" cy="10.25" r="1.25" fill="black"/>
</svg>
