<svg width="24" height="24" viewBox="0 0 24 24" fill="none" xmlns="http://www.w3.org/2000/svg">
<path d="M20.712 22.008L22.008 20.712L3.28799 1.992L1.99199 3.288L5.61599 6.912C3.98399 8.256 2.59199 10.008 1.67999 12C3.71999 16.392 8.01599 19.68 12 19.68C13.632 19.68 15.312 19.128 16.872 18.168L20.712 22.008ZM3.69599 12C4.53599 10.488 5.56799 9.216 6.88799 8.184L8.90399 10.2C8.56799 10.728 8.39999 11.352 8.39999 12C8.39999 13.992 10.008 15.6 12 15.6C12.648 15.6 13.272 15.432 13.8 15.096L15.552 16.848C14.376 17.544 13.224 17.88 12 17.88C8.85599 17.88 5.61599 15.576 3.69599 12ZM8.92799 4.92L10.32 6.336C10.872 6.192 11.448 6.12 12 6.12C15.096 6.12 18.264 8.4 20.208 12C19.704 12.936 19.128 13.752 18.48 14.496L19.776 15.792C20.784 14.688 21.672 13.392 22.32 12C20.28 7.608 15.984 4.32 12 4.32C10.968 4.32 9.93599 4.536 8.92799 4.92ZM10.08 12C10.08 11.808 10.104 11.64 10.152 11.448L12.552 13.848C12.36 13.896 12.192 13.92 12 13.92C10.944 13.92 10.08 13.056 10.08 12Z" fill="black"/>
</svg>
