<svg width="24" height="24" viewBox="0 0 24 24" fill="none" xmlns="http://www.w3.org/2000/svg">
<path d="M12 19.68C15.984 19.68 20.28 16.392 22.32 12C20.28 7.60801 15.984 4.32001 12 4.32001C8.01599 4.32001 3.71999 7.60801 1.67999 12C3.71999 16.392 8.01599 19.68 12 19.68ZM3.79199 12C5.73599 8.40001 8.90399 6.12001 12 6.12001C15.096 6.12001 18.264 8.40001 20.208 12C18.264 15.6 15.096 17.88 12 17.88C8.90399 17.88 5.73599 15.6 3.79199 12ZM8.39999 12C8.39999 13.992 10.008 15.6 12 15.6C13.992 15.6 15.6 13.992 15.6 12C15.6 10.008 13.992 8.40001 12 8.40001C10.008 8.40001 8.39999 10.008 8.39999 12ZM10.08 12C10.08 10.944 10.944 10.08 12 10.08C13.056 10.08 13.92 10.944 13.92 12C13.92 13.056 13.056 13.92 12 13.92C10.944 13.92 10.08 13.056 10.08 12Z" fill="black"/>
</svg>
