<svg width="24" height="24" viewBox="0 0 24 24" fill="none" xmlns="http://www.w3.org/2000/svg">
<path fill-rule="evenodd" clip-rule="evenodd" d="M10.1485 8.57115C9.43499 8.57027 8.75094 8.2865 8.24633 7.78206C7.98394 7.51974 7.7812 7.20888 7.64687 6.87057H4.21753V4.88642H7.64753C7.78176 4.54901 7.98406 4.23895 8.24575 3.97717C8.7504 3.47237 9.4347 3.18838 10.1485 3.1875C10.8623 3.18838 11.5466 3.47237 12.0512 3.97717C12.3129 4.23895 12.5152 4.54902 12.6495 4.88644H19.7814V6.87059H12.6501C12.5158 7.20889 12.313 7.51974 12.0506 7.78206C11.546 8.2865 10.862 8.57027 10.1485 8.57115ZM10.1485 4.84013C9.87295 4.84056 9.60883 4.95033 9.41415 5.14533C9.21946 5.34032 9.11012 5.60461 9.11012 5.88015C9.11034 6.15548 9.21981 6.41946 9.41449 6.61415C9.60917 6.80883 9.87317 6.9183 10.1485 6.91852C10.4238 6.9183 10.6878 6.80883 10.8825 6.61415C11.0772 6.41946 11.1866 6.15548 11.1869 5.88015C11.1869 5.60461 11.0775 5.34032 10.8828 5.14533C10.6882 4.95033 10.424 4.84056 10.1485 4.84013Z" fill="black"/>
<path fill-rule="evenodd" clip-rule="evenodd" d="M14.3904 14.6922C13.6763 14.6914 12.9918 14.4071 12.4871 13.902C12.2252 13.6399 12.0229 13.3295 11.8888 12.9917H4.21753V11.0075H11.8885C12.0227 10.669 12.2255 10.358 12.488 10.0955C12.9926 9.59086 13.6768 9.30698 14.3904 9.30611C15.1042 9.30676 15.7886 9.59055 16.2934 10.0952C16.556 10.3577 16.7588 10.6689 16.8932 11.0075H19.7823V12.9917H16.8926C16.7583 13.3295 16.5559 13.6399 16.294 13.902C15.7892 14.4072 15.1046 14.6914 14.3904 14.6922ZM14.3904 10.9612C14.1154 10.9617 13.8518 11.071 13.6572 11.2652C13.4626 11.4595 13.3529 11.723 13.352 11.9979C13.3523 12.2733 13.4617 12.5374 13.6563 12.7322C13.851 12.927 14.115 13.0367 14.3904 13.0371C14.6659 13.0367 14.9299 12.9271 15.1247 12.7323C15.3195 12.5375 15.4291 12.2734 15.4296 11.9979C15.4287 11.7228 15.3189 11.4593 15.1241 11.265C14.9293 11.0706 14.6655 10.9614 14.3904 10.9612Z" fill="black"/>
<path fill-rule="evenodd" clip-rule="evenodd" d="M8.24581 20.0234C8.75048 20.528 9.43478 20.8118 10.1485 20.8125C10.8621 20.8116 11.5463 20.5277 12.0509 20.0231C12.313 19.7611 12.5155 19.4506 12.6498 19.1127H19.7814V17.1286H12.6498C12.5155 16.7907 12.313 16.4803 12.0509 16.2182C11.5463 15.7136 10.8621 15.4297 10.1485 15.4289C9.43478 15.4295 8.75048 15.7133 8.24581 16.218C7.98371 16.4801 7.78118 16.7906 7.64695 17.1286H4.21753V19.1127H7.64694C7.78118 19.4507 7.98371 19.7613 8.24581 20.0234ZM9.41449 17.3867C9.60917 17.192 9.87317 17.0825 10.1485 17.0823C10.4238 17.0825 10.6878 17.192 10.8825 17.3867C11.0772 17.5814 11.1866 17.8454 11.1869 18.1207C11.1866 18.396 11.0772 18.66 10.8825 18.8547C10.6878 19.0494 10.4238 19.1588 10.1485 19.159C9.87317 19.1588 9.60917 19.0494 9.41449 18.8547C9.21981 18.66 9.11034 18.396 9.11012 18.1207C9.11034 17.8454 9.21981 17.5814 9.41449 17.3867Z" fill="black"/>
</svg>
