<svg width="24" height="24" viewBox="0 0 24 24" fill="none" xmlns="http://www.w3.org/2000/svg">
<path d="M12.132 2.63989H10.992V6.47989H9.00003V8.39989H13.5553C12.5826 7.1977 12 5.66689 12 4C12 3.53463 12.0454 3.07986 12.132 2.63989Z" fill="black"/>
<path d="M19 11C19.2953 11 19.5863 10.9817 19.872 10.9462V13.6319H17.832V10.903C18.2119 10.9668 18.602 11 19 11Z" fill="black"/>
<path d="M6.19203 17.4719V21.3599H4.15203V17.4719H2.16003V15.5519H8.16003V17.4719H6.19203Z" fill="black"/>
<path d="M6.19203 13.6319H4.15203V2.63989H6.19203V13.6319Z" fill="black"/>
<path d="M13.032 21.3599H10.992V10.3199H13.032V21.3599Z" fill="black"/>
<path d="M17.832 17.4719H15.84V15.5519H21.84V17.4719H19.872V21.3599H17.832V17.4719Z" fill="black"/>
<circle cx="19" cy="4" r="4" fill="#BBB0FF"/>
</svg>
