<svg width="24" height="24" viewBox="0 0 24 24" fill="none" xmlns="http://www.w3.org/2000/svg">
<path d="M12 21.36C17.256 21.36 21.36 17.088 21.36 12C21.36 6.76801 17.232 2.64001 12 2.64001C6.76801 2.64001 2.64001 6.76801 2.64001 12C2.64001 17.232 6.76801 21.36 12 21.36ZM4.56001 12C4.56001 7.82402 7.82402 4.56001 12 4.56001C16.176 4.56001 19.44 7.82402 19.44 12C19.44 16.056 16.176 19.44 12 19.44C7.82402 19.44 4.56001 16.176 4.56001 12ZM8.59202 13.752C8.59202 15.456 10.032 16.704 12 16.704C13.944 16.704 15.336 15.408 15.336 13.632C15.336 11.928 14.088 10.584 12.408 10.584C11.784 10.584 11.256 10.776 10.896 11.112H10.608L10.896 9.21602H14.808V7.58401H9.40802L8.95202 12.744H10.632C10.848 12.336 11.16 12.192 11.904 12.192H12.024C13.056 12.192 13.416 12.456 13.416 13.272V13.944C13.416 14.784 13.08 15.048 12.048 15.048H11.928C10.848 15.048 10.536 14.736 10.488 13.752H8.59202Z" fill="black"/>
</svg>
