<svg width="24" height="24" viewBox="0 0 24 24" fill="none" xmlns="http://www.w3.org/2000/svg">
<path d="M12 21.36C16.248 21.36 19.704 20.016 19.704 17.568V6.40802C19.704 3.96001 16.368 2.64001 12 2.64001C7.75202 2.64001 4.29602 3.96001 4.29602 6.40802V17.568C4.29602 20.016 7.68002 21.36 12 21.36ZM6.21602 17.568V16.32C7.56002 17.088 9.62402 17.52 12 17.52C14.352 17.52 16.416 17.088 17.784 16.296V17.568C17.784 18.576 15.72 19.44 12 19.44C8.20802 19.44 6.21602 18.6 6.21602 17.568ZM6.21602 13.848V12.6C7.56002 13.392 9.62402 13.824 12 13.824C14.352 13.824 16.416 13.392 17.784 12.6V13.848C17.784 14.952 15.672 15.84 12 15.84C8.25602 15.84 6.21602 14.952 6.21602 13.848ZM6.21602 10.128V8.90402C7.56002 9.67202 9.62402 10.104 12 10.104C14.328 10.104 16.416 9.67202 17.784 8.88002V10.128C17.784 11.232 15.672 12.144 12 12.144C8.25602 12.144 6.21602 11.232 6.21602 10.128ZM6.21602 6.40802C6.21602 5.40001 8.28002 4.56001 12 4.56001C15.84 4.56001 17.784 5.37601 17.784 6.40802C17.784 7.53602 15.672 8.42402 12 8.42402C8.25602 8.42402 6.21602 7.53602 6.21602 6.40802Z" fill="black"/>
</svg>
