<svg width="24" height="24" viewBox="0 0 24 24" fill="none" xmlns="http://www.w3.org/2000/svg">
<path d="M10.752 20.748H11.04L13.08 18.684C12.408 18.78 11.616 18.828 10.752 18.828C6.95998 18.828 4.96797 17.988 4.96797 16.956V15.708C6.31198 16.476 8.37598 16.908 10.752 16.908C11.232 16.908 11.712 16.884 12.168 16.86L11.352 16.02L12.192 15.18C11.736 15.204 11.256 15.228 10.752 15.228C7.00798 15.228 4.96797 14.34 4.96797 13.236V11.988C6.31198 12.78 8.37598 13.212 10.752 13.212C13.104 13.212 15.168 12.78 16.536 11.988V13.5L17.424 14.364L18.456 13.332V5.79602C18.456 3.34802 15.12 2.02802 10.752 2.02802C6.50397 2.02802 3.04797 3.34802 3.04797 5.79602V16.956C3.04797 19.404 6.43197 20.748 10.752 20.748ZM4.96797 9.51602V8.29202C6.31198 9.06002 8.37598 9.49202 10.752 9.49202C13.08 9.49202 15.168 9.06002 16.536 8.26802V9.51602C16.536 10.62 14.424 11.532 10.752 11.532C7.00798 11.532 4.96797 10.62 4.96797 9.51602ZM4.96797 5.79602C4.96797 4.78802 7.03198 3.94802 10.752 3.94802C14.592 3.94802 16.536 4.76402 16.536 5.79602C16.536 6.92402 14.424 7.81202 10.752 7.81202C7.00798 7.81202 4.96797 6.92402 4.96797 5.79602ZM13.944 20.676L15.24 21.972L17.448 19.764L19.656 21.972L20.952 20.676L18.744 18.468L20.952 16.26L19.656 14.964L17.448 17.172L15.24 14.964L13.944 16.26L16.152 18.468L13.944 20.676Z" fill="black"/>
</svg>
