<svg width="24" height="24" viewBox="0 0 24 24" fill="none" xmlns="http://www.w3.org/2000/svg">
<path d="M10.692 20.676C10.932 20.676 11.148 20.652 11.388 20.652L9.46798 18.732L8.55598 18.66C6.15598 18.396 4.90798 17.7 4.90798 16.884V15.636C6.25198 16.404 8.31598 16.836 10.692 16.836H11.484L13.332 14.988L14.676 16.332C16.908 15.708 18.396 14.532 18.396 12.924V5.72399C18.396 3.27599 15.06 1.95599 10.692 1.95599C6.44398 1.95599 2.98798 3.27599 2.98798 5.72399V16.884C2.98798 19.332 6.37198 20.82 10.692 20.676ZM4.90798 13.164V11.916C6.25198 12.708 8.31598 13.14 10.692 13.14C13.044 13.14 15.108 12.708 16.476 11.916V13.164C16.476 14.892 12.228 15.156 10.692 15.156C6.94798 15.156 4.90798 14.268 4.90798 13.164ZM4.90798 9.44399V8.21999C6.25198 8.98799 8.31598 9.41999 10.692 9.41999C13.02 9.41999 15.108 8.98799 16.476 8.19599V9.44399C16.476 10.548 14.364 11.46 10.692 11.46C6.94798 11.46 4.90798 10.548 4.90798 9.44399ZM4.90798 5.72399C4.90798 4.71599 6.97198 3.87599 10.692 3.87599C14.532 3.87599 16.476 4.69199 16.476 5.72399C16.476 6.85199 14.364 7.73999 10.692 7.73999C6.94798 7.73999 4.90798 6.85199 4.90798 5.72399ZM11.988 18.66L15.348 22.044L21.012 16.356L19.668 15.012L15.348 19.308L13.332 17.316L11.988 18.66Z" fill="black"/>
</svg>
