<svg width="24" height="24" viewBox="0 0 24 24" fill="none" xmlns="http://www.w3.org/2000/svg">
<path fill-rule="evenodd" clip-rule="evenodd" d="M8.83667 2.16531C9.4962 2.03412 10.1798 2.10145 10.8011 2.35879C11.4224 2.61612 11.9534 3.05191 12.327 3.61104C12.33 3.61561 12.3331 3.62019 12.3361 3.62478C12.5083 3.50415 12.694 3.402 12.8902 3.32073C13.4201 3.10123 14.0032 3.0438 14.5657 3.1557C15.1283 3.2676 15.645 3.5438 16.0506 3.94937C16.4562 4.35494 16.7324 4.87167 16.8443 5.43422C16.9555 5.9933 16.8994 6.57268 16.6833 7.09998H19C19.7691 7.09998 20.5067 7.40551 21.0506 7.94937C21.5944 8.49322 21.9 9.23085 21.9 9.99998C21.9 10.7691 21.5944 11.5067 21.0506 12.0506C20.7249 12.3763 20.3298 12.6165 19.9 12.7568V19C19.9 19.7691 19.5944 20.5067 19.0506 21.0506C18.5067 21.5944 17.7691 21.9 17 21.9H6.99998C6.23085 21.9 5.49322 21.5944 4.94937 21.0506C4.40551 20.5067 4.09998 19.7691 4.09998 19V12.7568C3.67019 12.6165 3.27503 12.3763 2.94937 12.0506C2.40551 11.5067 2.09998 10.7691 2.09998 9.99998C2.09998 9.23085 2.40551 8.49322 2.94937 7.94937C3.49322 7.40551 4.23085 7.09998 4.99998 7.09998H6.49997C6.44825 7.00299 6.4011 6.90327 6.35879 6.8011C6.10145 6.17983 6.03412 5.49621 6.16531 4.83667C6.2965 4.17713 6.62031 3.57131 7.09581 3.09581C7.57131 2.62032 8.17713 2.2965 8.83667 2.16531ZM9.49998 7.09998H11.1V5.49998C11.1 5.18353 11.0061 4.87418 10.8303 4.61106C10.6545 4.34795 10.4046 4.14287 10.1123 4.02177C9.81991 3.90067 9.4982 3.86898 9.18783 3.93072C8.87746 3.99246 8.59237 4.14484 8.3686 4.36861C8.14484 4.59237 7.99246 4.87746 7.93072 5.18783C7.86898 5.4982 7.90067 5.81991 8.02177 6.11227C8.14287 6.40463 8.34794 6.65452 8.61106 6.83033C8.87418 7.00614 9.18353 7.09998 9.49998 7.09998ZM12.9 7.09998V5.99998C12.9 5.78242 12.9645 5.56974 13.0854 5.38885C13.2062 5.20796 13.378 5.06697 13.579 4.98371C13.78 4.90045 14.0012 4.87867 14.2146 4.92111C14.428 4.96356 14.624 5.06832 14.7778 5.22216C14.9316 5.376 15.0364 5.572 15.0788 5.78538C15.1213 5.99876 15.0995 6.21993 15.0162 6.42093C14.933 6.62193 14.792 6.79372 14.6111 6.91459C14.4302 7.03546 14.2175 7.09998 14 7.09998H12.9ZM5.89998 12.9V19C5.89998 19.2917 6.01587 19.5715 6.22216 19.7778C6.42845 19.9841 6.70824 20.1 6.99998 20.1H11.1V12.9H5.89998ZM12.9 12.9V20.1H17C17.2917 20.1 17.5715 19.9841 17.7778 19.7778C17.9841 19.5715 18.1 19.2917 18.1 19V12.9H12.9ZM12.9 11.1V8.89998H19C19.2917 8.89998 19.5715 9.01587 19.7778 9.22216C19.9841 9.42845 20.1 9.70824 20.1 9.99998C20.1 10.2917 19.9841 10.5715 19.7778 10.7778C19.5715 10.9841 19.2917 11.1 19 11.1H12.9ZM11.1 8.89998V11.1H4.99998C4.70824 11.1 4.42845 10.9841 4.22216 10.7778C4.01587 10.5715 3.89998 10.2917 3.89998 9.99998C3.89998 9.70824 4.01587 9.42845 4.22216 9.22216C4.42845 9.01587 4.70824 8.89998 4.99998 8.89998H11.1Z" fill="black"/>
</svg>
