<svg width="24" height="24" viewBox="0 0 24 24" fill="none" xmlns="http://www.w3.org/2000/svg">
<path d="M4.56001 20.952H19.44C20.544 20.952 21.36 20.136 21.36 19.032V9.91201C21.36 8.80801 20.544 7.99201 19.44 7.99201H18.816C19.08 7.48801 19.224 6.91201 19.224 6.36001C19.224 4.56 17.784 3.048 15.936 3.048C15.36 3.048 14.736 3.216 14.256 3.504C13.44 4.008 12.816 4.848 12.288 5.88001L12 6.40801L11.712 5.88001C11.184 4.848 10.56 4.008 9.74402 3.504C9.26402 3.216 8.64002 3.048 8.06401 3.048C6.21601 3.048 4.77601 4.56 4.77601 6.36001C4.77601 6.91201 4.92001 7.48801 5.18401 7.99201H4.56001C3.45601 7.99201 2.64001 8.80801 2.64001 9.91201V19.032C2.64001 20.136 3.45601 20.952 4.56001 20.952ZM4.56001 19.104V13.752H19.44V19.104C19.44 19.128 19.416 19.152 19.392 19.152H4.60801C4.58401 19.152 4.56001 19.128 4.56001 19.104ZM4.56001 11.832V9.84001C4.56001 9.81601 4.58401 9.79201 4.60801 9.79201H19.392C19.416 9.79201 19.44 9.81601 19.44 9.84001V11.832H4.56001ZM6.00002 17.352H9.60002V15.432H6.00002V17.352ZM6.45601 6.36001C6.45601 5.49601 7.15202 4.728 8.06401 4.728C9.12002 4.728 9.74402 5.71201 10.224 6.64801L10.992 8.11201H9.31202C8.56802 8.11201 7.75202 8.08801 7.20002 7.72801C6.67202 7.44001 6.45601 6.86401 6.45601 6.36001ZM13.008 8.11201L13.776 6.64801C14.256 5.71201 14.88 4.728 15.936 4.728C16.848 4.728 17.544 5.49601 17.544 6.36001C17.544 6.86401 17.328 7.44001 16.8 7.72801C16.248 8.08801 15.432 8.11201 14.688 8.11201H13.008Z" fill="black"/>
</svg>
