<svg width="24" height="24" viewBox="0 0 24 24" fill="none" xmlns="http://www.w3.org/2000/svg">
<path d="M9.07202 21.0794C9.45602 21.1994 9.69602 20.9594 9.69602 20.6474C9.69602 20.6234 9.67202 20.3114 9.67202 19.6874C9.64802 19.1114 9.64802 18.6554 9.64802 18.3434C9.33602 18.4394 8.95202 18.4634 8.68801 18.4634C7.87201 18.4634 6.81602 18.2234 6.50401 17.2154C6.12001 16.5914 5.78401 16.0154 5.44801 15.8234C4.92001 15.4394 4.96801 15.2234 5.52002 15.2234L5.73601 15.2714C6.07202 15.3434 6.64802 15.6794 6.96001 16.2074C7.27202 16.8314 7.80001 17.2394 8.61601 17.2394C8.92802 17.2394 9.31202 17.1674 9.69602 17.0474C9.76802 16.4474 10.008 16.0394 10.296 15.7514C9.26402 15.6554 8.80802 15.5834 7.92002 15.1994C7.48802 15.0314 7.20002 14.8154 6.96001 14.5274C6.50401 13.9754 6.07202 12.9674 6.07202 11.5274C6.07202 10.7354 6.36001 9.99139 6.96001 9.34339C6.64802 8.59939 6.69601 7.73539 7.05602 6.77539C7.72801 6.58339 8.90402 7.30339 9.64802 7.83139C10.416 7.59139 11.208 7.47139 12.024 7.47139C12.84 7.47139 13.656 7.59139 14.424 7.83139L14.88 7.47139C15.48 7.01539 16.536 6.65539 17.016 6.77539C17.376 7.73539 17.4 8.59939 17.064 9.34339C17.808 10.1114 18.072 10.5914 18.072 11.5274C18.072 13.3514 17.544 14.6954 16.152 15.1994C15.264 15.5834 14.856 15.6074 13.752 15.7514C14.184 16.0874 14.376 16.6394 14.376 17.4794C14.376 17.9834 14.376 18.6314 14.376 19.4234V20.6474C14.376 20.9594 14.616 21.1994 15.024 21.0794C18.816 19.8314 21.36 16.2554 21.36 12.1034C21.36 6.82339 17.088 2.88739 12 2.88739C6.96001 2.88739 2.64001 6.84739 2.64001 12.1034C2.64001 16.2554 5.25601 19.8314 9.07202 21.0794ZM5.90401 15.6074C5.88001 15.6554 5.90401 15.7034 6.02401 15.7514C6.07202 15.7994 6.12001 15.7754 6.16802 15.7034C6.19201 15.6794 6.16802 15.6314 6.07202 15.5594C6.02401 15.5354 5.95201 15.5594 5.90401 15.6074ZM6.28801 15.8954C6.26401 15.9434 6.26401 15.9914 6.33601 16.0874C6.43201 16.1354 6.50401 16.1594 6.52801 16.1114C6.57601 16.0634 6.57601 15.9914 6.50401 15.9194C6.43201 15.8714 6.33601 15.8474 6.28801 15.8954ZM6.69601 16.3754C6.57601 16.3994 6.74402 16.8074 6.91201 16.6874C6.96001 16.6154 6.96001 16.5434 6.91201 16.4474C6.84001 16.3274 6.74402 16.3034 6.69601 16.3754ZM7.12802 16.9274C7.05602 16.9994 7.05602 17.0714 7.20002 17.1674C7.27202 17.2874 7.36802 17.2874 7.44001 17.2154C7.48802 17.1434 7.44001 17.0714 7.36802 16.9514C7.27202 16.8554 7.20002 16.8314 7.12802 16.9274ZM7.89602 17.5754C8.01602 17.6234 8.08802 17.5994 8.11202 17.5034C8.13601 17.4074 8.08802 17.3354 7.96802 17.3114C7.72801 17.2394 7.60802 17.5274 7.89602 17.5754ZM8.49602 17.5514C8.49602 17.6714 8.59202 17.7194 8.71202 17.6954C8.85602 17.6954 8.92802 17.6234 8.92802 17.5514C8.92802 17.4554 8.83202 17.4074 8.68801 17.4314C8.56802 17.4314 8.49602 17.4794 8.49602 17.5514ZM9.38402 17.3114C9.14402 17.3594 9.19202 17.6714 9.43202 17.5994C9.67202 17.5274 9.62402 17.3114 9.38402 17.3114Z" fill="black"/>
</svg>
