<svg width="24" height="24" viewBox="0 0 24 24" fill="none" xmlns="http://www.w3.org/2000/svg">
<path fill-rule="evenodd" clip-rule="evenodd" d="M5.48325 9.61858L0.556885 7.67295L12.006 3.1875L23.4433 7.66707L18.6888 9.56475L18.6887 15.4116L20.3092 17.4597L18.0394 20.8125L15.735 17.4603L17.3824 15.409V14.4655L12.0034 16.4773L5.48325 14.0232V9.61858ZM7.0509 10.2377L12.053 12.2133L17.1211 10.1904V12.8893L12.0047 14.8025L7.0509 12.9383V10.2377ZM15.8341 9.01636L12.0504 10.5267L4.83789 7.67883L12.0014 4.87338L19.1767 7.68209L17.6904 8.2754L12.4299 6.45932L12.0034 7.69385L15.8341 9.01636ZM17.362 17.5211L18.0316 18.4943L18.6906 17.5211L18.0316 16.6876L17.362 17.5211Z" fill="black"/>
</svg>
