<svg width="24" height="24" viewBox="0 0 24 24" fill="none" xmlns="http://www.w3.org/2000/svg">
<path d="M11.016 13.536H12C14.688 13.536 15.864 11.76 15.864 9.96002C15.864 8.11202 14.592 6.21601 12.168 6.21601C10.032 6.21601 8.448 7.94402 8.448 9.69602V9.88802H10.368V9.43202C10.368 8.35202 10.8 8.01602 12 8.01602H12.288C13.512 8.01602 13.944 8.35202 13.944 9.43202V10.704C13.944 11.616 13.608 11.856 12.432 11.856H11.016V13.536ZM2.64 12C2.64 17.232 6.768 21.36 12 21.36C17.256 21.36 21.36 17.088 21.36 12C21.36 6.76801 17.232 2.64001 12 2.64001C6.768 2.64001 2.64 6.76801 2.64 12ZM4.56 12C4.56 7.82402 7.824 4.56001 12 4.56001C16.176 4.56001 19.44 7.82402 19.44 12C19.44 16.056 16.176 19.44 12 19.44C7.824 19.44 4.56 16.176 4.56 12ZM10.848 17.28H13.152V14.976H10.848V17.28Z" fill="black"/>
</svg>
