<svg width="24" height="24" viewBox="0 0 24 24" fill="none" xmlns="http://www.w3.org/2000/svg">
<path d="M12 21.36C17.136 21.36 21.36 17.136 21.36 12C21.36 6.86402 17.136 2.64001 12 2.64001C9.28802 2.64001 6.91201 3.76801 5.20801 5.71201C5.23201 5.18401 5.25601 4.65601 5.25601 4.15201V2.64001H3.57601V8.78402H9.12002V7.10401H8.20801C7.58401 7.10401 6.91201 7.12802 6.28801 7.17601C7.63202 5.56801 9.64802 4.56001 12 4.56001C16.08 4.56001 19.44 7.92002 19.44 12C19.44 16.08 16.08 19.44 12 19.44C7.92002 19.44 4.56001 16.08 4.56001 12H2.64001C2.64001 17.136 6.86402 21.36 12 21.36ZM11.064 12C11.064 12.264 11.184 12.504 11.352 12.672L14.808 16.128L16.152 14.784L12.984 11.592V6.48002H11.064V12Z" fill="black"/>
</svg>
