<svg width="24" height="24" viewBox="0 0 24 24" fill="none" xmlns="http://www.w3.org/2000/svg">
<path d="M12 21.9991C6.477 21.9991 2 17.5221 2 11.9991C2 6.47608 6.477 1.99908 12 1.99908C17.523 1.99908 22 6.47608 22 11.9991C22 17.5221 17.523 21.9991 12 21.9991ZM12 19.9991C14.1217 19.9991 16.1566 19.1562 17.6569 17.6559C19.1571 16.1556 20 14.1208 20 11.9991C20 9.87735 19.1571 7.84252 17.6569 6.34223C16.1566 4.84194 14.1217 3.99908 12 3.99908C9.87827 3.99908 7.84344 4.84194 6.34315 6.34223C4.84285 7.84252 4 9.87735 4 11.9991C4 14.1208 4.84285 16.1556 6.34315 17.6559C7.84344 19.1562 9.87827 19.9991 12 19.9991ZM11 6.99908H13V8.99908H11V6.99908ZM11 10.9991H13V16.9991H11V10.9991Z" fill="black"/>
</svg>
