<svg width="24" height="24" viewBox="0 0 24 24" fill="none" xmlns="http://www.w3.org/2000/svg">
<path fill-rule="evenodd" clip-rule="evenodd" d="M16.1641 15.1369L15.8853 14.0623H14.6531L14.3546 15.1369H13.3218L14.7044 10.3461H15.8745L17.2159 15.1369H16.1641ZM15.6333 13.1197L15.2799 11.7729L14.9104 13.1197H15.6333Z" fill="black"/>
<path fill-rule="evenodd" clip-rule="evenodd" d="M3.35498 10.4242L9.10998 15.5399L8.21211 11.8331H9.89563V17.1249H15.9253L14.9474 20.8125L20.6451 15.6778V8.33478H14.0871V3.1875H3.35498V10.4242ZM12.8931 8.33478V4.38148H4.54896V9.88814L7.05156 12.1125L6.69455 10.6398H9.89563V9.73892C9.54956 9.67354 9.24567 9.56583 8.98027 9.43008C8.42522 9.75513 7.75423 9.91858 6.97515 9.91858H6.86052L6.885 8.7246C7.28766 8.73284 7.6459 8.68579 7.95717 8.5841C7.65205 8.19179 7.48527 7.78117 7.42408 7.47867L8.59478 7.23987V7.2339C8.60916 7.29815 8.68658 7.59746 8.93607 7.90086C9.20682 7.54364 9.33865 7.12718 9.40273 6.79811H6.87303V5.60413H8.3148V4.9313H9.50878V5.60413H10.9517V6.79811H10.6132C10.5534 7.21697 10.4128 7.79089 10.0838 8.33478H12.8931ZM17.4774 15.9309H11.0896V9.52936H19.4511V15.15L17.1306 17.2395L17.4774 15.9309Z" fill="black"/>
</svg>
