<svg width="24" height="24" viewBox="0 0 24 24" fill="none" xmlns="http://www.w3.org/2000/svg">
<path d="M5.04 22.32H18C19.104 22.32 19.92 21.504 19.92 20.4V8.39999H20.88V5.03999H19.92V3.59999C19.92 2.49599 19.104 1.67999 18 1.67999H5.04C3.936 1.67999 3.12 2.49599 3.12 3.59999V20.4C3.12 21.504 3.936 22.32 5.04 22.32ZM4.92 20.472V3.52799C4.92 3.50399 4.944 3.47999 4.968 3.47999H18.072C18.096 3.47999 18.12 3.50399 18.12 3.52799V20.472C18.12 20.496 18.096 20.52 18.072 20.52H4.968C4.944 20.52 4.92 20.496 4.92 20.472ZM6.48 18.96H16.56V5.03999H6.48V18.96ZM8.04 17.4V6.59999H15V17.4H8.04Z" fill="black"/>
</svg>
