<svg width="24" height="24" viewBox="0 0 24 24" fill="none" xmlns="http://www.w3.org/2000/svg">
<path d="M12 14.232C10.776 14.232 9.76802 13.224 9.76802 12C9.76802 10.776 10.776 9.76802 12 9.76802C13.224 9.76802 14.232 10.776 14.232 12C14.232 13.224 13.224 14.232 12 14.232ZM2.64001 12C2.64001 17.232 6.76801 21.36 12 21.36C17.256 21.36 21.36 17.088 21.36 12C21.36 6.76801 17.232 2.64001 12 2.64001C6.76801 2.64001 2.64001 6.76801 2.64001 12ZM4.56001 12C4.56001 10.272 5.13601 8.68801 6.07202 7.44001L8.64002 10.008C8.28001 10.584 8.08802 11.28 8.08802 12C8.08802 12.72 8.28001 13.416 8.64002 13.992L6.07202 16.56C5.13601 15.312 4.56001 13.728 4.56001 12ZM7.44001 17.928L10.008 15.36C10.584 15.72 11.28 15.912 12 15.912C12.72 15.912 13.416 15.72 13.992 15.36L16.536 17.904C15.288 18.864 13.728 19.44 12 19.44C10.272 19.44 8.68801 18.864 7.44001 17.928ZM7.44001 6.07202C8.68801 5.13601 10.272 4.56001 12 4.56001C13.728 4.56001 15.312 5.13601 16.56 6.07202L13.992 8.64002C13.416 8.28001 12.72 8.08802 12 8.08802C11.28 8.08802 10.584 8.28001 10.008 8.64002L7.44001 6.07202ZM15.36 13.992C15.72 13.416 15.912 12.72 15.912 12C15.912 11.28 15.72 10.584 15.36 10.008L17.928 7.44001C18.864 8.68801 19.44 10.272 19.44 12C19.44 13.704 18.864 15.288 17.904 16.536L15.36 13.992Z" fill="black"/>
</svg>
