<svg width="24" height="24" viewBox="0 0 24 24" fill="none" xmlns="http://www.w3.org/2000/svg">
<path d="M8.25598 17.544V21.84H15.744V17.544C15.744 16.656 15.888 16.368 16.872 15.288L17.424 14.664C18.816 13.104 19.512 11.448 19.512 9.528C19.512 5.184 15.984 2.16 12 2.16C8.01598 2.16 4.48798 5.184 4.48798 9.528C4.48798 11.448 5.18398 13.104 6.57598 14.664L7.12798 15.288C8.11198 16.368 8.25598 16.656 8.25598 17.544ZM6.40798 9.528C6.40798 6.216 9.02398 3.96 12 3.96C14.976 3.96 17.592 6.216 17.592 9.528C17.592 11.016 17.064 12.264 15.984 13.464L15.432 14.088C14.4 15.264 13.92 16.056 13.848 17.16H12.912V12.48H11.112V17.16H10.152C10.08 16.056 9.59998 15.264 8.56798 14.088L8.01598 13.464C6.93598 12.264 6.40798 11.016 6.40798 9.528ZM10.176 20.04V18.84H13.824V20.04H10.176Z" fill="black"/>
</svg>
