<svg width="24" height="24" viewBox="0 0 24 24" fill="none" xmlns="http://www.w3.org/2000/svg">
<path d="M9.93601 14.0884C11.952 15.9844 15.072 16.0324 17.04 14.0644L20.256 10.8484C22.224 8.88039 22.224 5.68839 20.256 3.74439C18.312 1.77639 15.144 1.80039 13.176 3.74439L10.776 6.09639L12.192 7.56039L14.616 5.18439C16.224 3.60039 17.232 3.60039 18.816 5.18439C20.424 6.79239 20.424 7.80039 18.816 9.38439L15.576 12.6244C13.968 14.2564 12.912 14.2804 11.28 12.7204L10.584 12.0484L9.26401 13.4404L9.93601 14.0884ZM3.74401 20.2564C5.68801 22.2244 8.85601 22.2004 10.824 20.2564L13.224 17.9044L11.808 16.4404L9.38401 18.8164C7.77601 20.4004 6.76801 20.4004 5.18401 18.8164C3.57601 17.2084 3.57601 16.2004 5.18401 14.6164L8.42401 11.3764C10.032 9.74439 11.088 9.72039 12.72 11.2804L13.416 11.9524L14.736 10.5604L14.064 9.91239C12.048 8.01639 8.92801 7.96839 6.96001 9.93639L3.74401 13.1524C1.77601 15.1204 1.77601 18.3124 3.74401 20.2564Z" fill="black"/>
</svg>
