<svg width="24" height="24" viewBox="0 0 24 24" fill="none" xmlns="http://www.w3.org/2000/svg">
<path d="M19.728 21.072L21.072 19.728L4.27201 2.92801L2.92801 4.27201L19.728 21.072ZM3.74401 20.256C5.68801 22.224 8.88001 22.224 10.848 20.256L13.512 17.592L12.072 16.152L9.38401 18.816C7.80001 20.4 6.76801 20.4 5.18401 18.816C3.60001 17.232 3.60001 16.2 5.18401 14.616L7.84801 11.928L6.40801 10.488L3.74401 13.176C1.77601 15.12 1.77601 18.312 3.74401 20.256ZM10.488 6.40801L11.928 7.84801L14.616 5.18401C16.2 3.60001 17.232 3.60001 18.816 5.18401C20.4 6.76801 20.4 7.80001 18.816 9.38401L16.152 12.072L17.592 13.512L20.256 10.848C22.224 8.88001 22.224 5.68801 20.256 3.74401C18.312 1.77601 15.12 1.77601 13.176 3.74401L10.488 6.40801Z" fill="black"/>
</svg>
