<svg width="24" height="24" viewBox="0 0 24 24" fill="none" xmlns="http://www.w3.org/2000/svg">
<path d="M6.83998 13.776V21.84L12 18.96L17.16 21.84V13.776C18.288 12.552 18.96 10.92 18.96 9.12C18.96 5.28 15.84 2.16 12 2.16C8.15998 2.16 5.03998 5.28 5.03998 9.12C5.03998 10.92 5.71198 12.552 6.83998 13.776ZM6.95998 9.12C6.95998 6.336 9.21598 4.08 12 4.08C14.784 4.08 17.04 6.336 17.04 9.12C17.04 11.904 14.784 14.16 12 14.16C9.21598 14.16 6.95998 11.904 6.95998 9.12ZM8.63998 18.888V15.216C9.64798 15.768 10.776 16.08 12 16.08C13.224 16.08 14.352 15.768 15.36 15.216V18.888L12 16.992L8.63998 18.888Z" fill="black"/>
</svg>
