<svg width="24" height="24" viewBox="0 0 24 24" fill="none" xmlns="http://www.w3.org/2000/svg">
<path fill-rule="evenodd" clip-rule="evenodd" d="M17.0938 5.09374C16.7914 4.41463 15.8801 4.29113 15.4079 4.86528L12.4437 8.46946L10.2706 9.43691L12.2462 13.8741L14.4193 12.9067L19.0811 13.1155C19.8238 13.1488 20.3418 12.3889 20.0394 11.7098L17.0938 5.09374ZM10.4191 14.6876L8.44354 10.2504L5.44189 11.5868C4.21658 12.1323 3.66552 13.5679 4.21106 14.7932C4.75661 16.0185 6.19216 16.5695 7.41746 16.024L10.4191 14.6876ZM6.93375 18.2064C5.06317 18.4212 3.19037 17.4178 2.38397 15.6067C1.38916 13.3723 2.39403 10.7545 4.62841 9.75969L11.1989 6.83438L13.8632 3.59488C15.2798 1.87243 18.0138 2.24293 18.9209 4.28027L21.8665 10.8963C22.7736 12.9336 21.2195 15.2133 18.9916 15.1135L14.8014 14.9258L13.2346 15.6233L14.4701 16.8248C15.9917 18.3044 15.5378 20.853 13.5989 21.7162L13.3584 21.8233C12.2377 22.3223 10.9262 22.0887 10.0467 21.2335L6.93375 18.2064ZM9.0584 17.4827L11.441 19.7996C11.7342 20.0847 12.1714 20.1625 12.5449 19.9962L12.7854 19.8891C13.4317 19.6014 13.583 18.7519 13.0758 18.2587L11.2668 16.4995L9.0584 17.4827Z" fill="black"/>
</svg>
