<svg width="24" height="24" viewBox="0 0 24 24" fill="none" xmlns="http://www.w3.org/2000/svg">
<path d="M7.94401 20.88H10.896C12.504 20.88 13.896 20.28 14.88 18.984C14.976 18.864 15.072 18.744 15.144 18.624H16.104C18.984 18.624 21.12 16.728 21.12 14.088C21.12 11.376 18.984 9.48 16.104 9.48H2.88V15C2.88 16.824 3.216 18.024 3.984 18.984C4.992 20.28 6.336 20.88 7.94401 20.88ZM4.92 16.32V11.28H13.92V16.32C13.92 18.288 13.176 18.96 11.112 18.96H7.75201C5.664 18.96 4.92 18.288 4.92 16.32ZM6.48001 7.92H8.52C8.52 6.96 8.928 6.624 10.2 6.456L11.952 6.24C13.92 6 15.12 4.968 15.024 3.12H12.984C12.984 4.104 12.576 4.44 11.304 4.608L9.552 4.824C7.584 5.064 6.384 6.096 6.48001 7.92ZM15.816 16.824C15.912 16.296 15.96 15.696 15.96 15V11.28C18.384 11.28 19.08 11.712 19.08 13.512V14.616C19.08 16.32 18.456 16.824 16.248 16.824H15.816Z" fill="black"/>
</svg>
