<svg width="24" height="24" viewBox="0 0 24 24" fill="none" xmlns="http://www.w3.org/2000/svg">
<path d="M17.832 18.4799C17.112 18.4799 16.56 17.8799 16.56 17.2079C16.56 16.5119 17.112 15.9599 17.832 15.9599C18.528 15.9599 19.08 16.5119 19.08 17.2079C19.08 17.8799 18.528 18.4799 17.832 18.4799Z" fill="black"/>
<path fill-rule="evenodd" clip-rule="evenodd" d="M11.0233 4.42676L9.24004 2.63989L3.50404 8.37589L8.23204 13.0799H1.92004V21.3599H17.952C20.208 21.3599 22.08 19.4879 22.08 17.2079C22.08 16.1519 21.696 15.1439 21 14.4239L18.5594 11.9782C18.3749 11.9928 18.1884 12.0002 18.0001 12.0002C17.1656 12.0002 16.3651 11.8542 15.623 11.5863L17.112 13.0799H10.776L6.04804 8.37589L9.24004 5.18389L11.4069 7.35734C11.1435 6.62082 11.0001 5.82728 11.0001 5.00024C11.0001 4.80716 11.0079 4.6159 11.0233 4.42676ZM3.72004 14.8799V19.5599H17.952C19.224 19.5599 20.28 18.5039 20.28 17.2079C20.28 15.9359 19.224 14.8799 17.952 14.8799H3.72004Z" fill="black"/>
<circle cx="18" cy="5" r="4" fill="#BBB0FF"/>
</svg>
