<svg width="24" height="24" viewBox="0 0 24 24" fill="none" xmlns="http://www.w3.org/2000/svg">
<path d="M17.472 22.32L22.32 17.472L6.50399 1.67999L1.67999 6.52799L17.472 22.32ZM4.05599 6.52799L6.50399 4.05599L12.528 10.056C11.952 10.2 11.4 10.512 10.92 10.968C10.488 11.4 10.2 11.952 10.056 12.528L4.05599 6.52799ZM5.66399 6.57599C5.66399 7.05599 6.07199 7.46399 6.55199 7.46399C7.03199 7.46399 7.46399 7.05599 7.46399 6.57599C7.46399 6.07199 7.03199 5.66399 6.55199 5.66399C6.07199 5.66399 5.66399 6.07199 5.66399 6.57599ZM12.048 14.544C11.424 13.896 11.472 12.816 12.12 12.144C12.816 11.472 13.896 11.472 14.52 12.072L19.944 17.472L17.472 19.944L12.048 14.544ZM12.6 13.512C12.6 13.992 13.008 14.4 13.488 14.4C13.968 14.4 14.4 13.992 14.4 13.512C14.4 13.008 13.968 12.6 13.488 12.6C13.008 12.6 12.6 13.008 12.6 13.512Z" fill="black"/>
</svg>
