<svg width="24" height="24" viewBox="0 0 24 24" fill="none" xmlns="http://www.w3.org/2000/svg">
<path d="M11.25 3V6.25L8 6.25V7.75L11.25 7.75V11H12.75V7.75L16 7.75V6.25L12.75 6.25V3H11.25Z" fill="black"/>
<path d="M13.2961 18.84C12.8161 18.84 12.4081 18.432 12.4081 17.952C12.4081 17.448 12.8161 17.04 13.2961 17.04C13.7761 17.04 14.2081 17.448 14.2081 17.952C14.2081 18.432 13.7761 18.84 13.2961 18.84Z" fill="black"/>
<path fill-rule="evenodd" clip-rule="evenodd" d="M21.3601 21.36H2.64014L2.66414 14.52H21.3601V21.36ZM4.34414 16.2L4.32014 19.68H10.2001C9.88814 19.176 9.72014 18.576 9.72014 17.952C9.72014 17.304 9.88814 16.704 10.2001 16.2H4.34414ZM13.0801 16.2C12.1921 16.2 11.4001 16.992 11.4001 17.952C11.4001 18.888 12.1921 19.68 13.0801 19.68H19.6801V16.2H13.0801Z" fill="black"/>
</svg>
