<svg width="24" height="24" viewBox="0 0 24 24" fill="none" xmlns="http://www.w3.org/2000/svg">
<path d="M17.8319 18.4799C17.1119 18.4799 16.5599 17.8799 16.5599 17.2079C16.5599 16.5119 17.1119 15.9599 17.8319 15.9599C18.5279 15.9599 19.0799 16.5119 19.0799 17.2079C19.0799 17.8799 18.5279 18.4799 17.8319 18.4799Z" fill="black"/>
<path fill-rule="evenodd" clip-rule="evenodd" d="M18 11C20.7614 11 23 8.76142 23 6C23 3.23858 20.7614 1 18 1C15.2386 1 13 3.23858 13 6C13 8.76142 15.2386 11 18 11ZM17.25 3V5.25L15 5.25V6.75L17.25 6.75V9H18.75V6.75H21V5.25H18.75V3H17.25Z" fill="black"/>
<path fill-rule="evenodd" clip-rule="evenodd" d="M11.1496 4.5535L9.23992 2.63989L3.50392 8.37589L8.23192 13.0799H1.91992V21.3599H17.9519C20.2079 21.3599 22.0799 19.4879 22.0799 17.2079C22.0799 16.1519 21.6959 15.1439 20.9999 14.4239L19.6003 13.0799H17.1119H10.7759L6.04792 8.37589L9.23992 5.18389L11.0744 7.02392C11.0254 6.6897 11 6.34781 11 6C11 5.5041 11.0516 5.02024 11.1496 4.5535ZM3.71992 14.8799V19.5599H17.9519C19.2239 19.5599 20.2799 18.5039 20.2799 17.2079C20.2799 15.9359 19.2239 14.8799 17.9519 14.8799H3.71992Z" fill="black"/>
<path fill-rule="evenodd" clip-rule="evenodd" d="M16.5599 17.2079C16.5599 17.8799 17.1119 18.4799 17.8319 18.4799C18.5279 18.4799 19.0799 17.8799 19.0799 17.2079C19.0799 16.5119 18.5279 15.9599 17.8319 15.9599C17.1119 15.9599 16.5599 16.5119 16.5599 17.2079Z" fill="black"/>
</svg>
