<svg width="24" height="24" viewBox="0 0 24 24" fill="none" xmlns="http://www.w3.org/2000/svg">
<path d="M13.704 16.704C16.08 16.704 17.352 14.832 17.328 11.904C17.304 9.04802 15.96 7.34402 13.68 7.34402C11.952 7.34402 10.416 8.66402 10.416 10.512C10.416 12.216 11.736 13.512 13.368 13.512C14.064 13.512 14.784 13.272 15.192 12.792H15.456C15.456 14.4 14.856 15.048 13.656 15.048C12.696 15.048 12.24 14.64 12.168 13.776H10.296C10.368 15.552 11.832 16.704 13.704 16.704ZM4.19995 12C4.19995 17.232 8.32795 21.36 13.56 21.36H19.7999V19.44H13.56C9.38395 19.44 6.11995 16.176 6.11995 12C6.11995 7.94402 9.38395 4.56001 13.56 4.56001H19.7999V2.64001H13.56C8.30395 2.64001 4.19995 6.91201 4.19995 12ZM12.312 10.8V10.056C12.312 9.33602 12.696 9.04802 13.632 9.04802H13.872C14.808 9.04802 15.192 9.33602 15.192 10.056V10.8C15.192 11.52 14.808 11.808 13.872 11.808H13.632C12.696 11.808 12.312 11.52 12.312 10.8Z" fill="black"/>
</svg>
