<svg width="24" height="24" viewBox="0 0 24 24" fill="none" xmlns="http://www.w3.org/2000/svg">
<path d="M10.584 16.704C12.96 16.704 14.232 14.832 14.208 11.904C14.184 9.04802 12.84 7.34402 10.56 7.34402C8.83195 7.34402 7.29595 8.66402 7.29595 10.512C7.29595 12.216 8.61595 13.512 10.248 13.512C10.944 13.512 11.664 13.272 12.072 12.792H12.336C12.336 14.4 11.736 15.048 10.536 15.048C9.57595 15.048 9.11995 14.64 9.04795 13.776H7.17595C7.24795 15.552 8.71195 16.704 10.584 16.704ZM4.19995 21.36H10.44C15.696 21.36 19.7999 17.088 19.7999 12C19.7999 6.76801 15.672 2.64001 10.44 2.64001H4.19995V4.56001H10.44C14.616 4.56001 17.88 7.82402 17.88 12C17.88 16.056 14.616 19.44 10.44 19.44H4.19995V21.36ZM9.19195 10.8V10.056C9.19195 9.33602 9.57595 9.04802 10.512 9.04802H10.752C11.688 9.04802 12.072 9.33602 12.072 10.056V10.8C12.072 11.52 11.688 11.808 10.752 11.808H10.512C9.57595 11.808 9.19195 11.52 9.19195 10.8Z" fill="black"/>
</svg>
