<svg width="24" height="24" viewBox="0 0 24 24" fill="none" xmlns="http://www.w3.org/2000/svg">
<path d="M12 21.36C17.256 21.36 21.36 17.088 21.36 12C21.36 6.76801 17.232 2.64001 12 2.64001C6.768 2.64001 2.64 6.76801 2.64 12C2.64 17.232 6.768 21.36 12 21.36ZM4.56 12C4.56 7.82402 7.824 4.56001 12 4.56001C16.176 4.56001 19.44 7.82402 19.44 12C19.44 16.056 16.176 19.44 12 19.44C7.824 19.44 4.56 16.176 4.56 12ZM8.736 13.776C8.808 15.552 10.272 16.704 12.144 16.704C14.52 16.704 15.792 14.832 15.768 11.904C15.744 9.04802 14.4 7.34402 12.12 7.34402C10.392 7.34402 8.856 8.66402 8.856 10.512C8.856 12.216 10.176 13.512 11.808 13.512C12.504 13.512 13.224 13.272 13.632 12.792H13.896C13.896 14.4 13.296 15.048 12.096 15.048C11.136 15.048 10.68 14.64 10.608 13.776H8.736ZM10.752 10.8V10.056C10.752 9.33602 11.136 9.04802 12.072 9.04802H12.312C13.248 9.04802 13.632 9.33602 13.632 10.056V10.8C13.632 11.52 13.248 11.808 12.312 11.808H12.072C11.136 11.808 10.752 11.52 10.752 10.8Z" fill="black"/>
</svg>
