<svg width="24" height="24" viewBox="0 0 24 24" fill="none" xmlns="http://www.w3.org/2000/svg">
<path d="M13.75 12.5479L11.765 10.563L11.765 10.5629C11.2306 10.0287 10.5057 9.72843 9.75 9.72843C8.99428 9.72843 8.26951 10.0286 7.73505 10.5629L7.73504 10.5629L4.6 13.6979V5.75C4.6 5.445 4.72116 5.15249 4.93683 4.93683C5.15249 4.72116 5.445 4.6 5.75 4.6H17.75C18.055 4.6 18.3475 4.72116 18.5632 4.93683C18.7788 5.15249 18.9 5.445 18.9 5.75V11.6979L18.765 11.563L18.765 11.5629C18.2306 11.0287 17.5057 10.7284 16.75 10.7284C15.9943 10.7284 15.2695 11.0286 14.7351 11.5629L14.735 11.5629L13.75 12.5479ZM5.75 2.9C4.99413 2.9 4.26922 3.20027 3.73475 3.73475C3.20027 4.26922 2.9 4.99413 2.9 5.75V17.75C2.9 18.5059 3.20027 19.2308 3.73475 19.7653C4.26922 20.2997 4.99413 20.6 5.75 20.6H17.75C18.5059 20.6 19.2308 20.2997 19.7653 19.7653C20.2997 19.2308 20.6 18.5059 20.6 17.75V5.75C20.6 4.99413 20.2997 4.26922 19.7653 3.73475C19.2308 3.20027 18.5059 2.9 17.75 2.9H5.75ZM4.6 17.75V16.1021L8.93702 11.7651C8.93703 11.7651 8.93704 11.765 8.93704 11.765C9.15269 11.5495 9.4451 11.4284 9.75 11.4284C10.0549 11.4284 10.3474 11.5496 10.563 11.7651C10.563 11.7651 10.5631 11.7651 10.5631 11.7651L15.149 16.351C15.4809 16.683 16.0191 16.683 16.351 16.351C16.683 16.0191 16.683 15.4809 16.351 15.149L14.9521 13.75L15.937 12.7651C15.937 12.7651 15.937 12.765 15.937 12.765C16.1527 12.5495 16.4451 12.4284 16.75 12.4284C17.0549 12.4284 17.3474 12.5496 17.563 12.7651C17.563 12.7651 17.5631 12.7651 17.5631 12.7651L18.9 14.1021V17.75C18.9 18.055 18.7788 18.3475 18.5632 18.5632C18.3475 18.7788 18.055 18.9 17.75 18.9H5.75C5.445 18.9 5.15249 18.7788 4.93683 18.5632C4.72116 18.3475 4.6 18.055 4.6 17.75ZM13.75 6.9C13.2806 6.9 12.9 7.28056 12.9 7.75C12.9 8.21944 13.2806 8.6 13.75 8.6H13.76C14.2294 8.6 14.61 8.21944 14.61 7.75C14.61 7.28056 14.2294 6.9 13.76 6.9H13.75Z" fill="black" stroke="black" stroke-width="0.2" stroke-linecap="round" stroke-linejoin="round"/>
</svg>
