<svg width="24" height="24" viewBox="0 0 24 24" fill="none" xmlns="http://www.w3.org/2000/svg">
<path d="M15.5 12.0006L10 8.5V15.5L15.5 12.0006Z" fill="black"/>
<path fill-rule="evenodd" clip-rule="evenodd" d="M12.0001 21.3606C6.76814 21.3606 2.64014 17.2326 2.64014 12.0006C2.64014 6.76863 6.76814 2.64062 12.0001 2.64062C17.2321 2.64062 21.3601 6.76863 21.3601 12.0006C21.3601 17.0886 17.2561 21.3606 12.0001 21.3606ZM12.0001 4.56063C7.82414 4.56063 4.56014 7.82463 4.56014 12.0006C4.56014 16.1766 7.82414 19.4406 12.0001 19.4406C16.1761 19.4406 19.4401 16.0566 19.4401 12.0006C19.4401 7.82463 16.1761 4.56063 12.0001 4.56063Z" fill="black"/>
</svg>
