<svg width="24" height="24" viewBox="0 0 24 24" fill="none" xmlns="http://www.w3.org/2000/svg">
<path d="M12 21.36C17.16 21.36 21.36 17.16 21.36 12C21.36 6.84001 17.16 2.64001 12 2.64001C6.84001 2.64001 2.64001 6.84001 2.64001 12C2.64001 17.16 6.84001 21.36 12 21.36ZM6.40802 11.712C6.40802 11.016 6.96001 10.464 7.65601 10.464C7.99201 10.464 8.30402 10.608 8.52002 10.824C9.38402 10.224 10.512 9.86402 11.784 9.81602L12.504 6.55202C12.528 6.40802 12.624 6.36001 12.768 6.38402L15.072 6.88801C15.216 6.57601 15.528 6.38402 15.912 6.38402C16.44 6.38402 16.848 6.79202 16.848 7.32001C16.848 7.84802 16.44 8.25602 15.912 8.25602C15.384 8.25602 14.976 7.84802 14.976 7.32001L12.888 6.86402L12.24 9.81602C13.488 9.86402 14.64 10.224 15.48 10.824C15.696 10.608 16.008 10.464 16.344 10.464C17.04 10.464 17.592 11.016 17.592 11.712C17.592 12.192 17.328 12.6 16.92 12.816C16.968 13.008 16.992 13.2 16.992 13.392C16.992 15.36 14.784 16.968 12 16.968C9.21602 16.968 7.00802 15.36 7.00802 13.392C7.00802 13.2 7.03201 13.008 7.08002 12.816C6.67202 12.6 6.40802 12.192 6.40802 11.712ZM9.00002 12.936C9.00002 13.464 9.40802 13.872 9.93602 13.872C10.464 13.872 10.872 13.464 10.872 12.936C10.872 12.408 10.464 12 9.93602 12C9.40802 12 9.00002 12.408 9.00002 12.936ZM9.81602 15C9.81602 15.072 9.84002 15.144 9.91202 15.192C10.392 15.576 11.232 15.792 12 15.792C12.792 15.792 13.656 15.576 14.112 15.168C14.16 15.144 14.184 15.072 14.184 15C14.184 14.856 14.088 14.76 13.944 14.76C13.872 14.76 13.824 14.784 13.776 14.832C13.416 15.144 12.744 15.312 12 15.312C11.28 15.312 10.608 15.144 10.2 14.808C10.176 14.784 10.104 14.76 10.056 14.76C9.91202 14.76 9.81602 14.856 9.81602 15ZM13.128 12.936C13.128 13.464 13.536 13.872 14.064 13.872C14.592 13.872 15 13.464 15 12.936C15 12.408 14.592 12 14.064 12C13.536 12 13.128 12.408 13.128 12.936Z" fill="black"/>
</svg>
