<svg width="24" height="24" viewBox="0 0 24 24" fill="none" xmlns="http://www.w3.org/2000/svg">
<path d="M15.168 16.608L20.76 22.2L22.2 20.76L16.608 15.168C17.712 13.752 18.36 12 18.36 10.08C18.36 5.52 14.64 1.8 10.08 1.8C5.51999 1.8 1.79999 5.52 1.79999 10.08C1.79999 14.64 5.51999 18.36 10.08 18.36C12 18.36 13.752 17.712 15.168 16.608ZM3.71999 10.08C3.71999 6.576 6.57599 3.72 10.08 3.72C13.584 3.72 16.44 6.576 16.44 10.08C16.44 13.584 13.584 16.44 10.08 16.44C6.57599 16.44 3.71999 13.584 3.71999 10.08ZM7.03199 11.136C6.98399 12.552 7.99199 13.632 9.47999 13.848V14.808H10.68V13.848C12.12 13.632 13.152 12.648 13.152 11.448C13.152 10.272 12.336 9.576 10.968 9.384L9.69599 9.216C8.97599 9.12 8.71199 8.928 8.71199 8.376C8.71199 7.68 9.16799 7.464 10.104 7.464C11.16 7.464 11.424 7.704 11.4 8.664H12.984C12.984 7.416 12 6.408 10.68 6.168V5.208H9.47999V6.168C8.13599 6.384 7.24799 7.32 7.24799 8.496C7.24799 9.648 7.96799 10.32 9.21599 10.464L10.44 10.608C11.28 10.704 11.568 10.92 11.568 11.544C11.568 12.312 11.184 12.552 10.08 12.552C8.83199 12.552 8.54399 12.264 8.54399 11.136H7.03199Z" fill="black"/>
</svg>
