<svg width="24" height="24" viewBox="0 0 24 24" fill="none" xmlns="http://www.w3.org/2000/svg">
<path d="M15.168 16.608L20.76 22.2L22.2 20.76L16.608 15.168C17.712 13.752 18.36 12 18.36 10.08C18.36 5.52 14.64 1.8 10.08 1.8C5.51999 1.8 1.79999 5.52 1.79999 10.08C1.79999 14.64 5.51999 18.36 10.08 18.36C12 18.36 13.752 17.712 15.168 16.608ZM3.71999 10.08C3.71999 6.576 6.57599 3.72 10.08 3.72C13.584 3.72 16.44 6.576 16.44 10.08C16.44 13.584 13.584 16.44 10.08 16.44C6.57599 16.44 3.71999 13.584 3.71999 10.08Z" fill="black"/>
</svg>
