<svg width="24" height="24" viewBox="0 0 24 24" fill="none" xmlns="http://www.w3.org/2000/svg">
<path d="M12 21.36C17.256 21.36 21.36 17.088 21.36 12C21.36 6.76801 17.232 2.64001 12 2.64001C6.76801 2.64001 2.64001 6.76801 2.64001 12C2.64001 17.232 6.76801 21.36 12 21.36ZM4.56001 12C4.56001 7.82402 7.82402 4.56001 12 4.56001C16.176 4.56001 19.44 7.82402 19.44 12C19.44 16.056 16.176 19.44 12 19.44C7.82402 19.44 4.56001 16.176 4.56001 12ZM8.64002 9.24002H13.128V9.55202C11.352 11.784 10.392 13.992 10.104 16.464H12.312C12.528 13.44 13.512 11.064 15.456 9.09601V7.58401H8.64002V9.24002Z" fill="black"/>
</svg>
