<svg width="24" height="24" viewBox="0 0 24 24" fill="none" xmlns="http://www.w3.org/2000/svg">
<path d="M12 21.84C18.24 19.368 21.36 15.432 21.36 10.128V5.088C18.696 3.168 15.456 2.16 12 2.16C8.54401 2.16 5.30401 3.168 2.64001 5.088V10.128C2.64001 15.432 5.76002 19.368 12 21.84ZM4.56001 10.128V6C6.79202 4.608 9.19202 3.96 12 3.96C14.808 3.96 17.208 4.608 19.44 6V10.128C19.44 14.64 17.208 17.64 12 19.872C6.79202 17.64 4.56001 14.64 4.56001 10.128ZM7.32001 11.064C7.32001 11.184 7.34402 11.28 7.41602 11.376L9.52802 14.808C10.056 15.72 11.016 16.296 12.12 16.296C13.752 16.296 15.048 15.048 15.144 13.416L15.264 7.824C15.264 7.536 15.048 7.296 14.76 7.296C14.472 7.296 14.256 7.536 14.256 7.8L14.184 10.8H13.656L13.68 6.792C13.68 6.504 13.488 6.264 13.176 6.264C12.888 6.264 12.672 6.504 12.672 6.768L12.648 10.56H12.12L12.096 6.264C12.096 6 11.904 5.76 11.592 5.76C11.304 5.76 11.088 6 11.088 6.288L11.112 10.8H10.56L10.512 7.296C10.512 7.032 10.32 6.768 10.008 6.768C9.69602 6.768 9.50402 7.032 9.50402 7.32L9.57602 12.528L8.47202 10.728C8.37602 10.536 8.16002 10.416 7.94402 10.416C7.58401 10.416 7.32001 10.68 7.32001 11.064Z" fill="black"/>
</svg>
