<svg width="24" height="24" viewBox="0 0 24 24" fill="none" xmlns="http://www.w3.org/2000/svg">
<path d="M19.116 17.664V15.864H9.132L8.772 13.992H19.86L21.852 4.848H6.972L6.54 2.664H2.148V4.464H4.956L7.548 17.664H19.116ZM7.212 20.064C7.212 20.736 7.764 21.336 8.484 21.336C9.18 21.336 9.732 20.736 9.732 20.064C9.732 19.368 9.18 18.816 8.484 18.816C7.764 18.816 7.212 19.368 7.212 20.064ZM7.332 6.648H19.5L18.276 12.192H8.412L7.332 6.648ZM16.908 20.064C16.908 20.736 17.46 21.336 18.18 21.336C18.876 21.336 19.428 20.736 19.428 20.064C19.428 19.368 18.876 18.816 18.18 18.816C17.46 18.816 16.908 19.368 16.908 20.064Z" fill="black"/>
</svg>
