<svg width="24" height="24" viewBox="0 0 24 24" fill="none" xmlns="http://www.w3.org/2000/svg">
<path d="M12 21.36C17.256 21.36 21.36 17.088 21.36 12C21.36 6.76801 17.232 2.64001 12 2.64001C6.76801 2.64001 2.64001 6.76801 2.64001 12C2.64001 17.232 6.76801 21.36 12 21.36ZM4.56001 12C4.56001 7.82402 7.82402 4.56001 12 4.56001C16.176 4.56001 19.44 7.82402 19.44 12C19.44 16.056 16.176 19.44 12 19.44C7.82402 19.44 4.56001 16.176 4.56001 12ZM8.30402 12.144C8.32802 15 9.67202 16.704 11.952 16.704C13.92 16.704 15.264 15.384 15.264 13.608C15.264 11.832 13.896 10.536 12.264 10.536C11.568 10.536 10.872 10.776 10.44 11.232H10.152C10.2 9.69602 10.728 9.00002 11.976 9.00002C12.84 9.00002 13.392 9.28802 13.488 9.98402H15.24C15 8.37602 13.776 7.34402 12 7.34402C9.62402 7.34402 8.28001 9.21602 8.30402 12.144ZM10.392 13.944V13.176C10.392 12.432 10.8 12.12 11.784 12.12H12.024C13.008 12.12 13.416 12.432 13.416 13.176V13.944C13.416 14.688 13.008 15 12.024 15H11.784C10.8 15 10.392 14.688 10.392 13.944Z" fill="black"/>
</svg>
