<svg width="24" height="24" viewBox="0 0 24 24" fill="none" xmlns="http://www.w3.org/2000/svg">
<path d="M13.512 16.704C15.4799 16.704 16.824 15.384 16.824 13.608C16.824 11.832 15.456 10.536 13.824 10.536C13.128 10.536 12.432 10.776 12 11.232H11.712C11.76 9.69602 12.288 9.00002 13.536 9.00002C14.4 9.00002 14.952 9.28802 15.048 9.98402H16.8C16.5599 8.37602 15.336 7.34402 13.56 7.34402C11.184 7.34402 9.83995 9.21602 9.86395 12.144C9.88795 15 11.232 16.704 13.512 16.704ZM4.19995 12C4.19995 17.232 8.32795 21.36 13.56 21.36H19.7999V19.44H13.56C9.38395 19.44 6.11995 16.176 6.11995 12C6.11995 7.94402 9.38395 4.56001 13.56 4.56001H19.7999V2.64001H13.56C8.30395 2.64001 4.19995 6.91201 4.19995 12ZM11.952 13.944V13.176C11.952 12.432 12.36 12.12 13.344 12.12H13.584C14.568 12.12 14.976 12.432 14.976 13.176V13.944C14.976 14.688 14.568 15 13.584 15H13.344C12.36 15 11.952 14.688 11.952 13.944Z" fill="black"/>
</svg>
