<svg width="24" height="24" viewBox="0 0 24 24" fill="none" xmlns="http://www.w3.org/2000/svg">
<path d="M12 22.08C16.56 22.08 20.28 18.36 20.28 13.8C20.28 11.88 19.632 10.128 18.528 8.712L19.68 7.56L18.24 6.12L17.088 7.272C15.912 6.36 14.496 5.76 12.96 5.568V3.84H14.76V1.92H9.23997V3.84H11.04V5.568C6.93597 6.048 3.71997 9.576 3.71997 13.8C3.71997 18.36 7.43997 22.08 12 22.08ZM5.63997 13.8C5.63997 10.296 8.49597 7.44 12 7.44C15.504 7.44 18.36 10.296 18.36 13.8C18.36 17.304 15.504 20.16 12 20.16C8.49597 20.16 5.63997 17.304 5.63997 13.8ZM11.04 14.28C11.04 14.808 11.472 15.24 12 15.24C12.528 15.24 12.96 14.808 12.96 14.28V9.12H11.04V14.28Z" fill="black"/>
</svg>
