<svg width="24" height="24" viewBox="0 0 24 24" fill="none" xmlns="http://www.w3.org/2000/svg">
<path d="M12 21.36C17.232 21.36 21.36 19.632 21.36 16.776V7.17601C21.36 4.34401 17.376 2.64001 12 2.64001C6.79202 2.64001 2.64001 4.32001 2.64001 7.17601V16.776C2.64001 19.632 6.67202 21.36 12 21.36ZM4.56001 16.776V14.88C6.21601 15.96 8.88002 16.56 12 16.56C15.072 16.56 17.76 15.96 19.44 14.88V16.776C19.44 18.36 16.656 19.536 12 19.536C7.27202 19.536 4.56001 18.36 4.56001 16.776ZM4.56001 10.032C6.21601 11.112 8.88002 11.688 12 11.688C15.072 11.688 17.76 11.088 19.44 10.008V12.048C19.44 13.536 16.632 14.76 12 14.76C7.29602 14.76 4.58401 13.56 4.58401 12.048L4.56001 10.032ZM4.58401 7.17601C4.56001 5.61601 7.36802 4.44001 12 4.44001C16.8 4.44001 19.44 5.61601 19.44 7.17601C19.44 8.68801 16.632 9.88802 12 9.88802C7.29602 9.88802 4.58401 8.71202 4.58401 7.17601Z" fill="black"/>
</svg>
