<svg width="24" height="24" viewBox="0 0 24 24" fill="none" xmlns="http://www.w3.org/2000/svg">
<path d="M10.464 21.36H13.536C14.28 21.36 14.856 20.856 14.976 20.16C16.968 19.224 18.384 17.472 18.84 15.36H19.224C20.976 15.36 22.32 14.016 22.32 12.264V11.256C22.32 9.504 20.976 8.16 19.224 8.16H18.84C18.192 5.04 15.408 2.64 12 2.64C8.59199 2.64 5.80799 5.04 5.15999 8.16H4.77599C3.02399 8.16 1.67999 9.504 1.67999 11.256V12.264C1.67999 14.016 3.02399 15.36 4.77599 15.36H6.93599V9.552C6.93599 6.744 9.19199 4.44 12 4.44C14.808 4.44 17.064 6.744 17.064 9.552V13.92C17.064 15.624 16.224 17.136 14.952 18.072C14.76 17.448 14.232 17.04 13.536 17.04H10.464C9.62399 17.04 8.99999 17.664 8.99999 18.504V19.896C8.99999 20.736 9.62399 21.36 10.464 21.36ZM3.35999 12.264V11.256C3.35999 10.2 3.71999 9.84 4.77599 9.84H5.01599V13.68H4.77599C3.71999 13.68 3.35999 13.32 3.35999 12.264ZM10.56 19.752V18.648C10.56 18.624 10.584 18.6 10.608 18.6H13.392C13.416 18.6 13.44 18.624 13.44 18.648V19.752C13.44 19.776 13.416 19.8 13.392 19.8H10.608C10.584 19.8 10.56 19.776 10.56 19.752ZM18.984 13.68V9.84H19.224C20.28 9.84 20.64 10.2 20.64 11.256V12.264C20.64 13.32 20.28 13.68 19.224 13.68H18.984Z" fill="black"/>
</svg>
