<svg width="24" height="24" viewBox="0 0 24 24" fill="none" xmlns="http://www.w3.org/2000/svg">
<path d="M4.00799 20.4H19.968C20.808 19.512 21.6 17.976 21.984 16.56H19.968C19.728 17.232 19.416 17.904 19.032 18.48H4.96799C4.10399 17.16 3.59999 15.6 3.59999 13.92C3.59999 9.28801 7.36799 5.52001 12 5.52001C15.72 5.52001 18.864 7.92001 19.968 11.28H21.984C20.808 6.86401 16.8 3.60001 12 3.60001C6.31199 3.60001 1.67999 8.23201 1.67999 13.92C1.67999 16.368 2.56799 18.648 4.00799 20.4ZM11.04 13.92C11.04 14.448 11.472 14.88 12 14.88H22.32V12.96H12C11.472 12.96 11.04 13.392 11.04 13.92Z" fill="black"/>
</svg>
