<svg width="24" height="24" viewBox="0 0 24 24" fill="none" xmlns="http://www.w3.org/2000/svg">
<path d="M4.00799 20.4H19.992C21.432 18.648 22.32 16.368 22.32 13.92C22.32 12.024 21.816 10.248 20.928 8.73601L19.512 10.152C20.088 11.28 20.4 12.576 20.4 13.92C20.4 15.6 19.896 17.16 19.032 18.48H4.96799C4.10399 17.16 3.59999 15.6 3.59999 13.92C3.59999 9.28801 7.36799 5.52001 12 5.52001C13.344 5.52001 14.64 5.83201 15.768 6.40801L17.184 4.99201C15.672 4.10401 13.896 3.60001 12 3.60001C6.31199 3.60001 1.67999 8.23201 1.67999 13.92C1.67999 16.368 2.56799 18.648 4.00799 20.4ZM11.04 13.92C11.04 14.448 11.472 14.88 12 14.88C12.264 14.88 12.504 14.784 12.672 14.592L19.992 7.27201L18.648 5.92801L11.328 13.248C11.136 13.416 11.04 13.656 11.04 13.92Z" fill="black"/>
</svg>
