<svg width="24" height="24" viewBox="0 0 24 24" fill="none" xmlns="http://www.w3.org/2000/svg">
<path d="M4.00799 20.4H19.992C21.432 18.648 22.32 16.368 22.32 13.92C22.32 8.23201 17.688 3.60001 12 3.60001C10.104 3.60001 8.32799 4.10401 6.81599 4.99201L8.23199 6.40801C9.35999 5.83201 10.656 5.52001 12 5.52001C16.632 5.52001 20.4 9.28801 20.4 13.92C20.4 15.6 19.896 17.16 19.032 18.48H4.96799C4.10399 17.16 3.59999 15.6 3.59999 13.92C3.59999 12.576 3.91199 11.28 4.48799 10.152L3.07199 8.73601C2.18399 10.248 1.67999 12.024 1.67999 13.92C1.67999 16.368 2.56799 18.648 4.00799 20.4ZM4.00799 7.27201L11.328 14.592C11.496 14.784 11.736 14.88 12 14.88C12.528 14.88 12.96 14.448 12.96 13.92C12.96 13.656 12.864 13.416 12.672 13.248L5.35199 5.92801L4.00799 7.27201Z" fill="black"/>
</svg>
