<svg width="24" height="24" viewBox="0 0 24 24" fill="none" xmlns="http://www.w3.org/2000/svg">
<path fill-rule="evenodd" clip-rule="evenodd" d="M2.94937 4.94937C3.49322 4.40551 4.23085 4.09998 4.99998 4.09998H19C19.7691 4.09998 20.5067 4.40551 21.0506 4.94937C21.5944 5.49322 21.9 6.23085 21.9 6.99998V9.99998C21.9 10.497 21.497 10.9 21 10.9C20.7082 10.9 20.4284 11.0159 20.2222 11.2222C20.0159 11.4284 19.9 11.7082 19.9 12C19.9 12.2917 20.0159 12.5715 20.2222 12.7778C20.4284 12.9841 20.7082 13.1 21 13.1C21.497 13.1 21.9 13.5029 21.9 14V17C21.9 17.7691 21.5944 18.5067 21.0506 19.0506C20.5067 19.5944 19.7691 19.9 19 19.9H4.99998C4.23085 19.9 3.49322 19.5944 2.94937 19.0506C2.40551 18.5067 2.09998 17.7691 2.09998 17V14C2.09998 13.5029 2.50292 13.1 2.99998 13.1C3.29171 13.1 3.5715 12.9841 3.77779 12.7778C3.98408 12.5715 4.09998 12.2917 4.09998 12C4.09998 11.7082 3.98408 11.4284 3.77779 11.2222C3.5715 11.0159 3.29171 10.9 2.99998 10.9C2.50292 10.9 2.09998 10.497 2.09998 9.99998V6.99998C2.09998 6.23085 2.40551 5.49322 2.94937 4.94937ZM4.99998 5.89998C4.70824 5.89998 4.42845 6.01587 4.22216 6.22216C4.01587 6.42845 3.89998 6.70824 3.89998 6.99998V9.24316C4.32977 9.38349 4.72492 9.6237 5.05059 9.94937C5.59444 10.4932 5.89998 11.2308 5.89998 12C5.89998 12.7691 5.59444 13.5067 5.05059 14.0506C4.72492 14.3763 4.32977 14.6165 3.89998 14.7568V17C3.89998 17.2917 4.01587 17.5715 4.22216 17.7778C4.42845 17.9841 4.70824 18.1 4.99998 18.1H14.1V17C14.1 16.5029 14.5029 16.1 15 16.1C15.497 16.1 15.9 16.5029 15.9 17V18.1H19C19.2917 18.1 19.5715 17.9841 19.7778 17.7778C19.9841 17.5715 20.1 17.2917 20.1 17V14.7568C19.6702 14.6165 19.275 14.3763 18.9494 14.0506C18.4055 13.5067 18.1 12.7691 18.1 12C18.1 11.2308 18.4055 10.4932 18.9494 9.94937C19.275 9.6237 19.6702 9.38349 20.1 9.24316V6.99998C20.1 6.70824 19.9841 6.42845 19.7778 6.22216C19.5715 6.01587 19.2917 5.89998 19 5.89998H15.9V6.99998C15.9 7.49703 15.497 7.89998 15 7.89998C14.5029 7.89998 14.1 7.49703 14.1 6.99998V5.89998H4.99998ZM15 10.1C15.497 10.1 15.9 10.5029 15.9 11V13C15.9 13.497 15.497 13.9 15 13.9C14.5029 13.9 14.1 13.497 14.1 13V11C14.1 10.5029 14.5029 10.1 15 10.1Z" fill="black"/>
</svg>
