<svg width="28" height="32" viewBox="0 0 28 32" fill="none" xmlns="http://www.w3.org/2000/svg">
<path d="M23.8179 6.41421C22.0884 5.29006 20.8398 3.49215 20.4506 1.39611C20.3665 0.943031 20.3204 0.477126 20.3204 0H14.8001L14.791 22.0482C14.6983 24.5172 12.6595 26.4989 10.1596 26.4989C9.38283 26.4989 8.65106 26.3055 8.0072 25.9673C6.53024 25.1925 5.51969 23.6495 5.51969 21.874C5.51969 19.3238 7.60137 17.2492 10.1596 17.2492C10.6373 17.2492 11.0951 17.3277 11.5288 17.4629V11.8464C11.0801 11.7855 10.6244 11.7475 10.1596 11.7475C4.55793 11.7481 0 16.2907 0 21.874C0 25.2999 1.71767 28.3315 4.33759 30.1647C5.98771 31.3193 7.99541 32 10.1602 32C15.7624 32 20.3204 27.4574 20.3204 21.874V10.6939C22.4851 12.2428 25.1378 13.1554 28 13.1554V7.65378C26.4582 7.65378 25.022 7.19695 23.8179 6.41421Z" fill="white"/>
</svg>
