<svg width="24" height="24" viewBox="0 0 24 24" fill="none" xmlns="http://www.w3.org/2000/svg">
<path d="M4.55999 22.32C5.32799 22.32 6.04799 22.032 6.59999 21.48L15.936 12.12C16.32 12.192 16.68 12.24 17.04 12.24C19.944 12.24 22.32 9.86399 22.32 6.95999C22.32 4.05599 19.944 1.67999 17.04 1.67999C14.136 1.67999 11.76 4.05599 11.76 6.95999C11.76 7.31999 11.808 7.67999 11.88 8.06399L2.51999 17.4C1.96799 17.952 1.67999 18.672 1.67999 19.44C1.67999 21.024 2.97599 22.32 4.55999 22.32ZM3.47999 19.44C3.47999 19.152 3.57599 18.888 3.79199 18.672L13.944 8.54399C13.704 8.06399 13.56 7.53599 13.56 6.95999C13.56 5.03999 15.12 3.47999 17.04 3.47999C17.64 3.47999 18.216 3.64799 18.72 3.91199L16.2 6.45599L17.544 7.79999L20.088 5.27999C20.352 5.78399 20.52 6.35999 20.52 6.95999C20.52 8.87999 18.96 10.44 17.04 10.44C16.464 10.44 15.936 10.296 15.456 10.056L5.32799 20.208C5.11199 20.424 4.84799 20.52 4.55999 20.52C3.95999 20.52 3.47999 20.04 3.47999 19.44Z" fill="black"/>
</svg>
