<svg width="24" height="24" viewBox="0 0 24 24" fill="none" xmlns="http://www.w3.org/2000/svg">
<path d="M2.64 20.4H21.36V11.16L18.6 8.40001H16.824V5.37601C16.824 4.36801 16.056 3.60001 15.072 3.60001H8.928C7.944 3.60001 7.176 4.36801 7.176 5.37601V8.40001H5.4L2.64 11.16V20.4ZM4.512 18.6V15.648H7.632V16.776H9.432V15.648H14.592V16.776H16.392V15.648H19.488V18.6H4.512ZM4.512 13.848V11.88L6.192 10.2H17.808L19.488 11.88V13.848H16.392V12.696H14.592V13.848H9.432V12.696H7.632V13.848H4.512ZM8.976 8.40001V5.44801C8.976 5.42401 9 5.40001 9.024 5.40001H14.976C15 5.40001 15.024 5.42401 15.024 5.44801V8.40001H8.976Z" fill="black"/>
</svg>
