<svg width="24" height="24" viewBox="0 0 24 24" fill="none" xmlns="http://www.w3.org/2000/svg">
<path d="M12 21.348C17.16 21.348 21.36 17.172 21.36 12.012C21.36 6.85199 17.16 2.65199 12 2.65199C6.84 2.65199 2.64 6.85199 2.64 12.012C2.64 17.172 6.84 21.348 12 21.348ZM5.52 9.65999V8.07599H11.952V9.65999H9.6V16.428H7.896V9.65999H5.52ZM12.888 16.428V8.07599H15.936C17.64 8.07599 18.84 9.25199 18.84 10.812C18.84 12.372 17.64 13.5 15.936 13.5H14.616V16.428H12.888ZM14.616 11.94H16.08C16.824 11.94 17.04 11.7 17.04 11.028V10.572C17.04 9.87599 16.824 9.65999 16.08 9.65999H14.616V11.94Z" fill="black"/>
</svg>
