<svg width="24" height="24" viewBox="0 0 24 24" fill="none" xmlns="http://www.w3.org/2000/svg">
<path d="M17.016 12.312L21.36 7.94398L17.016 3.59998L15.84 4.79998L16.896 5.85598C17.28 6.23998 17.712 6.64798 18.144 7.03198H3.60001V8.85598H18.192C17.736 9.26398 17.304 9.64798 16.896 10.056L15.84 11.136L17.016 12.312ZM2.64001 16.056L6.98401 20.4L8.16002 19.2L7.10401 18.144C6.72002 17.76 6.28801 17.352 5.85601 16.968H20.4V15.144H5.80801C6.26401 14.736 6.69601 14.352 7.10401 13.944L8.16002 12.864L6.98401 11.688L2.64001 16.056Z" fill="black"/>
</svg>
