<svg width="24" height="24" viewBox="0 0 24 24" fill="none" xmlns="http://www.w3.org/2000/svg">
<path d="M10.416 16.464H16.776V14.808L12.672 14.832V14.52L14.904 13.152C16.32 12.288 16.896 11.352 16.896 10.224C16.896 8.42402 15.432 7.34402 13.584 7.34402C11.592 7.34402 10.2 8.64002 10.2 10.152V10.464H12.096V10.2C12.096 9.33602 12.384 9.02402 13.488 9.02402H13.656C14.664 9.02402 14.976 9.33602 14.976 10.272C14.976 10.944 14.808 11.448 13.2 12.456L10.416 14.208V16.464ZM4.20001 12C4.20001 17.232 8.32801 21.36 13.56 21.36H19.8V19.44H13.56C9.38401 19.44 6.12001 16.176 6.12001 12C6.12001 7.94402 9.38401 4.56001 13.56 4.56001H19.8V2.64001H13.56C8.30401 2.64001 4.20001 6.91201 4.20001 12Z" fill="black"/>
</svg>
