<svg width="24" height="24" viewBox="0 0 24 24" fill="none" xmlns="http://www.w3.org/2000/svg">
<path d="M7.29595 16.464H13.656V14.808L9.55195 14.832V14.52L11.784 13.152C13.2 12.288 13.776 11.352 13.776 10.224C13.776 8.42402 12.312 7.34402 10.464 7.34402C8.47195 7.34402 7.07995 8.64002 7.07995 10.152V10.464H8.97595V10.2C8.97595 9.33602 9.26395 9.02402 10.368 9.02402H10.536C11.544 9.02402 11.856 9.33602 11.856 10.272C11.856 10.944 11.688 11.448 10.08 12.456L7.29595 14.208V16.464ZM4.19995 21.36H10.44C15.696 21.36 19.7999 17.088 19.7999 12C19.7999 6.76801 15.672 2.64001 10.44 2.64001H4.19995V4.56001H10.44C14.616 4.56001 17.88 7.82402 17.88 12C17.88 16.056 14.616 19.44 10.44 19.44H4.19995V21.36Z" fill="black"/>
</svg>
