<svg width="24" height="24" viewBox="0 0 24 24" fill="none" xmlns="http://www.w3.org/2000/svg">
<path d="M8.856 16.464H15.216V14.808L11.112 14.832V14.52L13.344 13.152C14.76 12.288 15.336 11.352 15.336 10.224C15.336 8.42402 13.872 7.34402 12.024 7.34402C10.032 7.34402 8.64 8.64002 8.64 10.152V10.464H10.536V10.2C10.536 9.33602 10.824 9.02402 11.928 9.02402H12.096C13.104 9.02402 13.416 9.33602 13.416 10.272C13.416 10.944 13.248 11.448 11.64 12.456L8.856 14.208V16.464ZM5.76 21.36H18.24V19.44H5.76V21.36ZM5.76 4.56001H18.24V2.64001H5.76V4.56001Z" fill="black"/>
</svg>
