<svg width="24" height="24" viewBox="0 0 24 24" fill="none" xmlns="http://www.w3.org/2000/svg">
<path d="M4.488 19.56V21.36H19.512V19.56C19.512 17.064 18.648 15.192 16.728 14.352V11.112H7.272V14.352C5.352 15.192 4.488 17.064 4.488 19.56ZM5.76 7.99201H9.048C8.904 8.18402 8.832 8.44802 8.832 8.71202C8.832 9.38402 9.384 9.98402 10.08 9.98402C10.8 9.98402 11.352 9.38402 11.352 8.71202C11.352 8.44802 11.28 8.18402 11.136 7.99201H12.864C12.72 8.18402 12.648 8.44802 12.648 8.71202C12.648 9.38402 13.2 9.98402 13.92 9.98402C14.616 9.98402 15.168 9.38402 15.168 8.71202C15.168 8.44802 15.096 8.18402 14.952 7.99201H18.24V6.19201H16.2V4.17601C16.2 3.31201 15.528 2.64001 14.664 2.64001H9.336C8.472 2.64001 7.8 3.31201 7.8 4.17601V6.19201H5.76V7.99201ZM6.528 19.56V18.36C6.528 16.488 7.2 15.792 9.072 15.72V12.792H11.232V19.56H6.528ZM9.48 6.19201V4.36801C9.48 4.34401 9.504 4.32001 9.528 4.32001H14.472C14.496 4.32001 14.52 4.34401 14.52 4.36801V6.19201H9.48ZM12.792 19.56V12.792H14.928V15.72C16.8 15.792 17.472 16.488 17.472 18.36V19.56H12.792Z" fill="black"/>
</svg>
