<svg width="24" height="24" viewBox="0 0 24 24" fill="none" xmlns="http://www.w3.org/2000/svg">
<path d="M4.488 19.56V21.36H19.512V19.56C19.488 17.784 19.176 16.608 18.432 15.696C17.448 14.4 15.816 13.68 13.968 13.68H10.032C8.184 13.68 6.6 14.4 5.592 15.696C4.848 16.632 4.512 17.808 4.488 19.56ZM6.528 19.56V18.36C6.528 16.392 7.272 15.72 9.36 15.72H14.664C16.728 15.72 17.472 16.392 17.472 18.36V19.56H6.528ZM7.152 7.36802C7.152 10.032 9.336 12.096 12 12.096C14.664 12.096 16.848 10.032 16.848 7.36802C16.848 4.70401 14.664 2.64001 12 2.64001C9.336 2.64001 7.152 4.70401 7.152 7.36802ZM9.072 7.36802C9.072 5.73601 10.368 4.44001 12 4.44001C13.632 4.44001 14.928 5.73601 14.928 7.36802C14.928 9.00002 13.632 10.296 12 10.296C10.368 10.296 9.072 9.00002 9.072 7.36802Z" fill="black"/>
</svg>
