<svg width="24" height="24" viewBox="0 0 24 24" fill="none" xmlns="http://www.w3.org/2000/svg">
<path d="M6.88798 12V21.84H8.80798V12.024C10.728 11.568 12.12 9.86397 12.12 7.91997V2.39997H10.32V7.91997C10.32 9.07197 9.74398 9.93597 8.80798 10.272V2.39997H6.88798V10.272C5.97598 9.91197 5.39998 9.04797 5.39998 7.91997V2.39997H3.59998V7.91997C3.59998 9.86397 4.99198 11.568 6.88798 12ZM13.92 16.8H18.48V21.84H20.4V2.15997C16.8 2.15997 13.92 5.03997 13.92 8.63997V16.8ZM15.84 15.12V8.63997C15.84 6.43197 16.848 4.84797 18.48 4.19997V15.12H15.84Z" fill="black"/>
</svg>
