<svg width="24" height="24" viewBox="0 0 24 24" fill="none" xmlns="http://www.w3.org/2000/svg">
<path fill-rule="evenodd" clip-rule="evenodd" d="M3.38373 9.38558C3.92004 9.92189 4.59233 10.291 5.3196 10.4593H2.47159V21.2317H17.7237V18.0859L21.7934 21.4687V9.517L17.7237 13.1456V10.4593H14.9881C15.7156 10.2909 16.3881 9.92164 16.9245 9.38504C17.6772 8.63209 18.1004 7.61126 18.1012 6.54662C18.1 5.48218 17.6766 4.46166 16.924 3.70892C16.1714 2.95617 15.151 2.53265 14.0865 2.53125C13.0218 2.53265 12.0012 2.95638 11.2485 3.70945C10.6888 4.26948 10.3113 4.97764 10.1542 5.74177C9.99707 4.97726 9.61928 4.2688 9.05913 3.70865C8.30636 2.95588 7.28573 2.53245 6.22116 2.53125C5.15645 2.53265 4.13579 2.95638 3.38314 3.70945C2.63049 4.46252 2.20734 5.48343 2.20654 6.54814C2.20774 7.61251 2.63111 8.63295 3.38373 9.38558ZM13.1857 10.4593H7.1228C7.85037 10.2909 8.52292 9.92166 9.05939 9.38509C9.6194 8.82498 9.9971 8.11662 10.1542 7.35223C10.3114 8.11676 10.6892 8.82522 11.2493 9.38536C11.7858 9.92178 12.4582 10.291 13.1857 10.4593ZM4.82434 5.15108C5.1948 4.78048 5.69715 4.57201 6.22116 4.57141V4.56989C6.74556 4.5703 7.24834 4.77889 7.619 5.14984C7.98967 5.52079 8.1979 6.02374 8.1979 6.54814C8.1973 7.07214 7.98879 7.57451 7.61819 7.94497C7.24759 8.31543 6.74516 8.52371 6.22116 8.52411C5.69728 8.52351 5.19504 8.31514 4.8246 7.9447C4.45417 7.57426 4.24579 7.07201 4.24519 6.54814C4.24559 6.02413 4.45389 5.52168 4.82434 5.15108ZM12.6897 5.15108C13.0602 4.78048 13.5625 4.57201 14.0865 4.57141V4.56989C14.6109 4.5703 15.1137 4.77889 15.4844 5.14984C15.8551 5.52079 16.0633 6.02374 16.0633 6.54814C16.0627 7.07201 15.8543 7.57426 15.4839 7.9447C15.1134 8.31514 14.6112 8.52351 14.0873 8.52411C13.5633 8.52371 13.0608 8.31543 12.6902 7.94497C12.3196 7.57451 12.1112 7.07214 12.1106 6.54814C12.111 6.02413 12.3193 5.52168 12.6897 5.15108ZM4.51023 19.193H15.685V12.4979H4.51023V19.193ZM19.7547 17.1227L18.2174 15.8443V15.4359L19.7547 14.0654V17.1227Z" fill="black"/>
</svg>
