<svg width="24" height="24" viewBox="0 0 24 24" fill="none" xmlns="http://www.w3.org/2000/svg">
<path d="M10.8126 12.9882C10.924 13.0996 11.1837 13.0996 11.3322 12.9882L15.674 8.64645C15.8224 8.49801 15.8224 8.27536 15.7111 8.12692L14.8204 7.2363C14.7091 7.12497 14.4493 7.12497 14.3009 7.2363L11.0724 10.4648L9.66223 9.05466C9.51379 8.90622 9.29114 8.90622 9.1427 9.05466L8.28919 9.90817C8.14075 10.0566 8.14075 10.2793 8.28919 10.4277L10.8126 12.9882ZM22.0939 12.4687L19.1251 12.4687L19.1251 3.82223C19.1251 3.04294 18.5685 2.37497 17.9005 2.37497L6.06262 2.37497C5.39465 2.37497 4.87512 3.04294 4.87512 3.82223L4.87512 12.4687L1.90637 12.4687C0.90442 12.4687 0.125123 13.2851 0.125123 14.25L0.125124 19.5937C0.125124 20.5957 0.904421 21.375 1.90637 21.375L22.0939 21.375C23.0587 21.375 23.8751 20.5957 23.8751 19.5937L23.8751 14.25C23.8751 13.2851 23.0587 12.4687 22.0939 12.4687ZM17.3439 4.15622L17.3439 16.0312L6.65637 16.0312L6.65637 4.15622L17.3439 4.15622ZM22.0939 19.5937L1.90637 19.5937L1.90637 14.25L4.87512 14.25L4.87512 16.0312L4.02161 16.0312C3.83606 16.0312 3.68762 16.1797 3.68762 16.3281L3.68762 17.5156C3.68762 17.7011 3.83606 17.8125 4.02161 17.8125L19.9415 17.8125C20.1271 17.8125 20.3126 17.7011 20.3126 17.5156L20.3126 16.3281C20.3126 16.1797 20.1271 16.0312 19.9415 16.0312L19.1251 16.0312L19.1251 14.25L22.0939 14.25L22.0939 19.5937Z" fill="black"/>
</svg>
