<svg width="24" height="24" viewBox="0 0 24 24" fill="none" xmlns="http://www.w3.org/2000/svg">
<path d="M1.67999 8.39999L3.09599 9.86399C5.42399 7.63199 8.37599 6.28799 12 6.28799C15.624 6.28799 18.576 7.63199 20.904 9.86399L22.32 8.39999C19.752 5.92799 16.08 4.24799 12 4.24799C7.91999 4.24799 4.24799 5.92799 1.67999 8.39999ZM4.99199 11.976L6.33599 13.512C7.94399 12.12 9.69599 11.376 12 11.376C14.304 11.376 16.056 12.12 17.664 13.512L19.008 11.976C17.16 10.368 14.712 9.33599 12 9.33599C9.28799 9.33599 6.83999 10.368 4.99199 11.976ZM8.42399 15.816L12 19.752L15.576 15.816C14.616 15 13.392 14.496 12 14.496C10.608 14.496 9.38399 15 8.42399 15.816Z" fill="black"/>
</svg>
