<svg width="24" height="24" viewBox="0 0 24 24" fill="none" xmlns="http://www.w3.org/2000/svg">
<path d="M19.344 21.432L20.616 20.16L7.87199 7.41599L6.33599 5.85599L3.02399 2.56799L1.75199 3.83999L4.60799 6.69599C3.52799 7.31999 2.54399 8.06399 1.67999 8.87999L3.09599 10.344C3.98399 9.47999 4.99199 8.73599 6.07199 8.15999L8.37599 10.464C7.10399 10.92 5.97599 11.592 4.99199 12.456L6.33599 13.992C7.43999 13.032 8.61599 12.384 9.98399 12.072L12.984 15.072C12.672 15 12.336 14.976 12 14.976C10.608 14.976 9.38399 15.48 8.42399 16.296L12 20.232L14.904 16.992L19.344 21.432ZM8.37599 5.18399L10.08 6.88799C10.704 6.81599 11.328 6.76799 12 6.76799C15.624 6.76799 18.576 8.11199 20.904 10.344L22.32 8.87999C19.752 6.40799 16.08 4.72799 12 4.72799C10.752 4.72799 9.52799 4.89599 8.37599 5.18399ZM13.056 9.86399L16.008 12.84C16.584 13.152 17.136 13.536 17.664 13.992L19.008 12.456C17.4 11.064 15.336 10.104 13.056 9.86399Z" fill="black"/>
</svg>
