<svg width="24" height="24" viewBox="0 0 24 24" fill="none" xmlns="http://www.w3.org/2000/svg">
<path d="M12 19.248C16.32 19.248 19.008 19.128 20.064 18.864C21.048 18.552 21.648 17.952 21.888 17.04C22.272 15.624 22.32 13.176 22.32 12C22.32 10.872 22.248 8.35201 21.888 6.96001C21.648 6.04801 21.048 5.44801 20.064 5.13601C19.008 4.87201 16.32 4.75201 12 4.75201C7.67999 4.75201 4.99199 4.87201 3.93599 5.13601C2.95199 5.44801 2.35199 6.04801 2.11199 6.96001C1.75199 8.35201 1.67999 10.872 1.67999 12C1.67999 13.176 1.72799 15.624 2.11199 17.04C2.35199 17.952 2.95199 18.552 3.93599 18.864C4.99199 19.128 7.67999 19.248 12 19.248ZM9.88799 15.096V8.92801L15.312 12L9.88799 15.096Z" fill="black"/>
</svg>
