<svg width="24" height="24" viewBox="0 0 24 24" fill="none" xmlns="http://www.w3.org/2000/svg">
<path d="M12 16.704C14.472 16.704 15.768 14.856 15.768 12.024C15.768 9.16802 14.496 7.34402 12 7.34402C9.528 7.34402 8.208 9.19202 8.208 12.024C8.208 14.856 9.528 16.704 12 16.704ZM5.76 21.36H18.24V19.44H5.76V21.36ZM5.76 4.56001H18.24V2.64001H5.76V4.56001ZM10.2 13.152V10.944C10.2 9.26402 10.704 8.95202 11.976 8.95202C12.696 8.95202 13.176 9.04802 13.464 9.45602L10.2 13.152ZM10.488 14.64L13.776 10.944V13.176C13.776 14.832 13.248 15.144 11.976 15.144C11.256 15.144 10.776 15.048 10.488 14.64Z" fill="black"/>
</svg>
