<svg width="24" height="24" viewBox="0 0 24 24" fill="none" xmlns="http://www.w3.org/2000/svg">
<path d="M10.44 16.704C12.912 16.704 14.208 14.856 14.208 12.024C14.208 9.16802 12.936 7.34402 10.44 7.34402C7.96795 7.34402 6.64795 9.19202 6.64795 12.024C6.64795 14.856 7.96795 16.704 10.44 16.704ZM4.19995 21.36H10.44C15.696 21.36 19.7999 17.088 19.7999 12C19.7999 6.76801 15.672 2.64001 10.44 2.64001H4.19995V4.56001H10.44C14.616 4.56001 17.88 7.82402 17.88 12C17.88 16.056 14.616 19.44 10.44 19.44H4.19995V21.36ZM8.63995 13.152V10.944C8.63995 9.26402 9.14395 8.95202 10.416 8.95202C11.136 8.95202 11.616 9.04802 11.904 9.45602L8.63995 13.152ZM8.92795 14.64L12.216 10.944V13.176C12.216 14.832 11.688 15.144 10.416 15.144C9.69595 15.144 9.21595 15.048 8.92795 14.64Z" fill="black"/>
</svg>
