<svg width="24" height="24" viewBox="0 0 24 24" fill="none" xmlns="http://www.w3.org/2000/svg">
<path d="M13.56 16.704C16.032 16.704 17.328 14.856 17.328 12.024C17.328 9.16802 16.056 7.34402 13.56 7.34402C11.088 7.34402 9.76801 9.19202 9.76801 12.024C9.76801 14.856 11.088 16.704 13.56 16.704ZM4.20001 12C4.20001 17.232 8.32801 21.36 13.56 21.36H19.8V19.44H13.56C9.38401 19.44 6.12001 16.176 6.12001 12C6.12001 7.94402 9.38401 4.56001 13.56 4.56001H19.8V2.64001H13.56C8.30401 2.64001 4.20001 6.91201 4.20001 12ZM11.76 13.152V10.944C11.76 9.26402 12.264 8.95202 13.536 8.95202C14.256 8.95202 14.736 9.04802 15.024 9.45602L11.76 13.152ZM12.048 14.64L15.336 10.944V13.176C15.336 14.832 14.808 15.144 13.536 15.144C12.816 15.144 12.336 15.048 12.048 14.64Z" fill="black"/>
</svg>
