<svg xmlns="http://www.w3.org/2000/svg" width="72" height="89" fill="none" viewBox="0 0 72 89"><g clip-path="url(#a)"><path fill="url(#b)" d="m42.884 23.87.898 1.692 1.69.9-1.69.936-.898 1.693-.935-1.693-1.69-.936 1.69-.9z"/><path fill="url(#c)" d="m1.654 68.406.575 1.044 1.078.612-1.078.576-.575 1.08-.576-1.08L0 70.062l1.078-.612z"/><path fill="url(#d)" d="m64.99 0 .612 1.08 1.042.576-1.043.576-.61 1.08-.576-1.08-1.078-.576 1.078-.576z"/><path fill="url(#e)" d="m64.595 48.424.899 1.657 1.69.936-1.69.9-.899 1.692-.934-1.692-1.654-.9 1.654-.937z"/><path fill="url(#f)" d="m28.326 14.833.539 1.044 1.042.576-1.042.576-.54 1.009-.575-1.009-1.042-.576 1.042-.576z"/><path fill="#e0ecff" d="m29.656 33.735-1.834.54.647-.216a7.3 7.3 0 0 1 1.186-.324"/><path fill="url(#g)" d="M56.975 68.37v.504c0 .432-.036.828-.036 1.26a33 33 0 0 1-.36 3.385 17 17 0 0 1-.431 2.052c-.18.684-.36 1.368-.611 2.016a18.6 18.6 0 0 1-2.193 4.392c-1.294 1.837-2.84 3.277-4.673 4.213q-.755.378-1.51.648l-.647.216-4.206 1.296a11 11 0 0 0 1.474-.648c.144-.072.288-.18.468-.252.467-.252.898-.576 1.33-.9.072-.036.108-.108.18-.144.287-.216.539-.468.79-.684.036-.036.072-.036.072-.072.144-.108.252-.252.36-.396a.8.8 0 0 0 .143-.18 10 10 0 0 0 .791-.936c.108-.144.216-.252.288-.397.072-.108.18-.215.251-.36.036-.035.036-.072.072-.108.072-.108.144-.252.216-.36.072-.072.108-.18.18-.252a.8.8 0 0 1 .143-.216c.108-.216.252-.396.36-.612.036-.072.108-.18.144-.252.072-.108.108-.252.18-.36l.107-.216.216-.432c0-.036.036-.072.036-.108.072-.144.108-.252.144-.396.072-.144.108-.288.18-.468.251-.684.503-1.404.682-2.16.036-.18.108-.36.144-.54s.072-.36.144-.576c.036-.144.072-.288.072-.432.036-.144.072-.288.072-.432.036-.144.036-.288.072-.432.035-.18.072-.36.072-.504.035-.18.035-.324.071-.504 0-.144.036-.252.036-.396a5 5 0 0 0 .072-.756v-.072c.036-.289.036-.54.072-.829 0-.108 0-.252.036-.36.036-.576.036-1.152.036-1.764v-1.188l-.108-1.872c-.036-.216-.036-.432-.072-.648-.072-.54-.108-1.044-.18-1.584-.035-.252-.071-.54-.107-.792s-.072-.54-.144-.792v-.108c-.036-.216-.072-.432-.144-.648-.036-.144-.036-.252-.072-.396l-.108-.432c-.036-.217-.108-.433-.143-.649-.072-.252-.108-.468-.18-.72-.036-.18-.108-.396-.144-.576a5 5 0 0 1-.108-.36c-.072-.18-.108-.396-.18-.576a24 24 0 0 0-.467-1.512c-.072-.216-.144-.468-.251-.684-.108-.288-.18-.54-.288-.828-.036-.144-.108-.288-.18-.432 0-.036-.036-.036-.036-.072-.071-.216-.18-.432-.251-.648-.18-.468-.396-.936-.611-1.404a12 12 0 0 0-.324-.684c-.036-.036-.036-.108-.072-.144-.072-.18-.18-.36-.251-.54l-.324-.648c-.108-.18-.216-.396-.323-.576a14 14 0 0 0-.72-1.26c-.143-.217-.251-.433-.395-.649s-.251-.432-.395-.648l-.863-1.296c-.036-.072-.108-.144-.144-.216-.18-.288-.395-.54-.575-.828-.036-.036-.072-.108-.108-.144-.143-.18-.251-.324-.395-.504a.6.6 0 0 0-.144-.18c-.108-.144-.251-.324-.36-.468a17 17 0 0 0-1.042-1.224c-.072-.108-.18-.18-.251-.288-.18-.18-.36-.396-.54-.576-.071-.108-.18-.18-.251-.288l-.396-.396c-.143-.144-.287-.252-.395-.396-.18-.18-.36-.324-.54-.468-.179-.144-.359-.324-.538-.468-.072-.072-.18-.144-.252-.216-.036-.036-.036-.036-.072-.036l-.036-.036c-.072-.072-.144-.108-.215-.18-.036-.036-.072-.036-.108-.072-.144-.145-.324-.253-.468-.36a5 5 0 0 0-.539-.397s-.036 0-.036-.035a6 6 0 0 0-.575-.397c-.144-.108-.288-.18-.431-.288-.108-.072-.252-.144-.36-.216-.287-.18-.575-.36-.862-.504a1.5 1.5 0 0 0-.324-.18c-.144-.072-.252-.144-.395-.216-.468-.252-.97-.468-1.438-.648 0 0-.036 0-.036-.036a4.4 4.4 0 0 1-.611-.252.5.5 0 0 0-.216-.072c-.108-.036-.18-.072-.288-.108s-.18-.072-.287-.072c-.108-.036-.18-.072-.288-.072-.107-.036-.18-.072-.287-.072-.108-.036-.18-.036-.288-.072-.072-.036-.18-.036-.251-.072-.108-.036-.216-.036-.324-.072-.36-.072-.719-.144-1.078-.18-.108 0-.216-.036-.36-.036h-.036c-.215-.036-.431-.036-.647-.036h-.647c-.215 0-.467 0-.683.036h-.18c-.539.036-1.042.108-1.545.216-.18.036-.396.072-.575.144l3.702-1.116 1.834-.54a12 12 0 0 1 1.653-.216h.072c1.617-.108 3.307.144 5.068.72.396.144.827.288 1.222.468q1.024.432 2.05.972a21.3 21.3 0 0 1 2.911 1.908 29 29 0 0 1 2.3 1.98c.755.72 1.474 1.477 2.193 2.305.611.72 1.222 1.476 1.798 2.268a40 40 0 0 1 1.725 2.556c.431.72.863 1.476 1.294 2.232.036.072.072.144.108.252.467.9.934 1.837 1.33 2.773.395.864.719 1.764 1.078 2.628.36.972.683 1.98.97 2.988 0 .036.037.108.037.144.251.9.467 1.764.647 2.664.215 1.044.395 2.125.539 3.205.144 1.008.216 2.016.288 3.024-.036.468 0 1.08 0 1.656"/><path fill="#e0ecff" d="m47.125 86.876-.647.216zm4.709-20.702c-.072-.54-.108-1.044-.18-1.584.072.54.108 1.044.18 1.584"/><path fill="url(#h)" d="M52.014 69.882c0 6.013-1.546 10.91-4.098 14.258-.072.108-.144.18-.215.288a12.6 12.6 0 0 1-3.487 3.024c-.144.072-.288.18-.468.252-.467.252-.97.468-1.473.648 0 0-.036 0-.036.036-.288.108-.54.18-.827.252-2.588.684-5.5.468-8.591-.792-10.64-4.356-19.267-19.442-19.267-33.7 0-9.468 3.81-16.2 9.454-18.36.18-.073.359-.145.575-.217l.539-.144h.072c.18-.036.395-.108.575-.144a11 11 0 0 1 1.546-.216h.18c1.94-.144 4.061.216 6.29 1.116a18 18 0 0 1 1.474.684c1.617.828 3.199 1.909 4.673 3.169 7.584 6.516 13.048 18.325 13.12 29.666-.036.072-.036.108-.036.18"/><path fill="url(#i)" d="M47.233 68.226c0 4.753-1.222 8.605-3.235 11.27-.862 1.115-1.833 1.98-2.947 2.627a1.7 1.7 0 0 1-.36.18c-.36.18-.755.36-1.15.505h-.036l-.647.215c-2.049.54-4.35.36-6.794-.648-8.411-3.42-15.205-15.337-15.205-26.606 0-7.705 3.2-13.141 7.908-14.653l.395-.108h.036c.144-.036.324-.072.468-.108.395-.072.79-.144 1.222-.18h.144c1.545-.072 3.235.216 4.96.936q.594.216 1.186.54c1.294.648 2.517 1.512 3.667 2.52 5.967 5.148 10.28 14.473 10.352 23.402.036 0 .036.072.036.108"/><path fill="#fff" d="M25.936 61.29 31.4 48.88l6.759 14.575-7.213 1.173z"/><path fill="#fff" d="m32.419 73.686-6.057-9.78 4.965 3.069 7.483-1.648z"/><path fill="url(#j)" d="m36.45 34.24-3.667 1.98s-.036 0-.036-.037a4.4 4.4 0 0 1-.611-.252c-.072-.036-.144-.072-.216-.072-.108-.036-.18-.072-.287-.108-.108-.036-.18-.072-.288-.072-.108-.036-.18-.072-.288-.072-.107-.036-.18-.072-.287-.072-.108-.036-.18-.036-.288-.072-.072-.036-.18-.036-.251-.072-.108-.036-.216-.036-.324-.072-.36-.072-.719-.144-1.078-.18-.108 0-.216-.036-.36-.036h-.036l2.876-1.548h.072c1.617-.144 3.307.108 5.068.684"/><path fill="url(#k)" d="m42.668 37.587-4.062 2.197-.036-.036c-.072-.072-.144-.108-.215-.18-.036-.036-.072-.036-.108-.072-.144-.144-.324-.252-.468-.36a5 5 0 0 0-.539-.397s-.036 0-.036-.035a6 6 0 0 0-.575-.397c-.144-.108-.287-.18-.431-.288-.108-.072-.252-.144-.36-.216l3.919-2.124c.97.54 1.94 1.188 2.911 1.908"/><path fill="url(#l)" d="m47.125 41.872-4.277 2.304a17 17 0 0 0-1.043-1.224c-.072-.108-.18-.18-.251-.288-.18-.18-.36-.396-.54-.576-.071-.108-.18-.18-.251-.288l4.17-2.268c.79.72 1.51 1.512 2.192 2.34"/><path fill="url(#m)" d="m50.648 46.66-4.421 2.376c-.144-.216-.252-.432-.396-.648-.143-.216-.251-.432-.395-.648l-.863-1.296 4.35-2.34a40 40 0 0 1 1.725 2.556"/><path fill="url(#n)" d="m53.38 51.917-4.53 2.448c-.179-.468-.395-.936-.61-1.404a12 12 0 0 0-.324-.684c-.036-.036-.036-.108-.072-.144-.072-.18-.18-.36-.251-.54l4.457-2.413c.467.864.899 1.765 1.33 2.737"/><path fill="url(#o)" d="m55.393 57.533-4.673 2.52c-.036-.18-.108-.396-.144-.576a5 5 0 0 1-.108-.36c-.072-.18-.108-.396-.18-.576a24 24 0 0 0-.467-1.512l4.601-2.484c.36.972.683 1.98.97 2.988"/><path fill="url(#p)" d="m56.651 63.546-4.817 2.592c-.072-.54-.107-1.044-.18-1.584-.035-.252-.071-.54-.107-.792s-.072-.54-.144-.792v-.108l4.709-2.556q.323 1.674.54 3.24"/><path fill="url(#q)" d="M56.975 68.37v.504c0 .432-.036.828-.036 1.26l-5.033 2.7c.036-.288.036-.54.072-.828 0-.108 0-.252.036-.36.036-.576.036-1.152.036-1.764v-.612l4.889-2.7c0 .612.036 1.224.036 1.8"/><path fill="url(#r)" d="M56.543 73.519q-.16 1.08-.431 2.052c-.18.684-.36 1.368-.611 2.016l-5.5 2.988c0-.036.036-.072.036-.108a1.8 1.8 0 0 0 .144-.396c.072-.144.108-.288.18-.468.251-.684.503-1.404.683-2.16.036-.18.108-.36.143-.54.036-.18.072-.36.144-.576z"/><path fill="url(#s)" d="M53.308 82.015c-1.294 1.837-2.84 3.277-4.673 4.213a14 14 0 0 1-1.51.648l-.647.216-4.205 1.296c.503-.18 1.006-.396 1.473-.648.144-.072.288-.18.468-.252.467-.252.898-.576 1.33-.9.072-.036.108-.108.18-.144.287-.216.539-.468.79-.684.036-.036.072-.036.072-.072z"/><path fill="url(#t)" d="M52.014 69.882c0 6.013-1.546 10.91-4.098 14.258-.072.108-.144.18-.215.288C33.43 79.35 22.86 61.242 22.86 39.676c0-1.333.037-2.629.109-3.925.18-.072.36-.144.575-.216l.539-.144h.072c.18-.036.395-.108.575-.144a11 11 0 0 1 1.546-.216h.18c1.976-.108 4.097.252 6.326 1.152a18 18 0 0 1 1.474.684c1.617.828 3.199 1.909 4.673 3.169 7.584 6.516 13.048 18.325 13.12 29.666-.036.072-.036.108-.036.18"/><path fill="url(#u)" d="M69.088 30.64s.396.108.396.144c-.252.576-.899 1.044-1.222 1.62l-.036.036c-.36.54-.288 1.152-.611 1.62-.504.684-1.007 1.332-1.582 1.908-.216.216-.468.432-.683.648-.108.108-.216.216-.36.288-.503.432-1.078.828-1.69 1.188-1.221.684-2.515 1.188-3.594 1.296-.36.036-.683.036-1.042.036-.108 0-.108-.396-.216-.396-.036 0-.072-.036-.144 0a4.7 4.7 0 0 1-.934-.288c-.18-.072-.431-.18-.611-.252-1.043-.576-1.87-1.548-2.337-2.772-.97-2.448-.719-5.869.827-9.145.144-.288.323-.648.503-.936.324-.648.72-1.224 1.15-1.8.971-1.332 2.085-2.448 3.272-3.24 1.401-.972 2.875-1.512 4.277-1.584.432 0 .863 0 1.258.108a4.5 4.5 0 0 1 1.474.504c.18.108.395.216.575.36.288.18.504.396.72.648.143.18.287.324.395.504.143.18.647.504.754.72.324.576.54 1.26.683 1.944.108.54.18 1.08.18 1.656.036.612-.395 1.152-.503 1.8l.395.108a10 10 0 0 1-.36 1.728l-.395-.108c-.143.54-.323 1.08-.539 1.657"/><path fill="url(#v)" d="M59.455 35.643c-.252-.072-.468-.072-.647-.216a2 2 0 0 1-.396-.18c-.755-.432-1.294-1.116-1.617-1.944-.611-1.656-.432-3.924.647-6.193.072-.18.18-.396.251-.54.252-.468.54-.864.791-1.26 1.438-1.908 3.307-3.096 4.96-3.204a3.4 3.4 0 0 1 1.906.36c.144.072.252.144.36.252.18.108.323.252.467.432.072.072.143.18.215.288 1.079 1.476 1.187 3.96.216 6.445-.18.432-.36.864-.575 1.296-.216.36-.396.684-.611.972-1.654 2.448-4.026 3.816-5.967 3.492"/><path fill="#fff" d="m62.09 28.041-.564 1.849 3.666-1.128z"/><path fill="#fff" d="m63.279 24.866-1.19 3.175 3.103.721z"/><path fill="#fff" d="m58.613 28.59 3.477-.549 1.189-3.175zm.123.932 2.055 3.462.657-2.138zm2.712 1.324-.657 2.138 4.477-3.145z"/><path fill="#fff" d="m58.613 28.59 2.913 1.3.563-1.849z"/><path fill="url(#w)" d="M71.892 28.263q-.108.864-.323 1.728c-.144.54-.324 1.116-.576 1.656 0 0 0 .036-.036.036a9.5 9.5 0 0 1-.826 1.728c-.396.54-.72 1.08-1.079 1.584-.395.54-.827 1.044-1.222 1.548-.467.504-.899.936-1.366 1.332a8.8 8.8 0 0 1-1.582 1.08c-.718.397-1.437.684-2.156.937a5.9 5.9 0 0 1-2.229.18 4 4 0 0 1-.719-.144 5 5 0 0 1-.79-.288c-.108-.037-.935-.505-1.079-.577l-.935-.504c.036 0 .072.037.108.037.108.036.252.108.36.108.323.143.61.215.934.288.144.036.288.036.468.036h.035a7 7 0 0 0 2.085-.216H61c.683-.18 1.366-.505 2.05-.865h.035c.036-.036.072-.036.108-.036a10 10 0 0 0 1.51-1.08h.036c.467-.396.898-.828 1.33-1.26h.036c.431-.468.862-.972 1.222-1.548.287-.396.575-.828.79-1.296l.108-.216s0-.036.036-.036v-.036c.324-.576.612-1.188.827-1.764 0-.072.072-.144.072-.216l.036-.036c0-.036.036-.072.036-.108s.036-.072.036-.108.036-.036.036-.072l.108-.324c.036-.144.107-.288.143-.432s.072-.288.144-.396v-.036c.144-.576.252-1.152.36-1.729v-.108c.072-.504.108-.972.108-1.44v-.36c0-.576-.072-1.152-.144-1.656-.144-.684-.36-1.368-.683-1.98-.108-.18-.252-.396-.36-.576v-.036c-.072-.108-.143-.18-.18-.288-.035-.036-.071-.108-.107-.144s-.072-.072-.072-.108l-.18-.18-.036-.036-.144-.144c-.035-.036-.107-.072-.143-.144-.072-.036-.144-.108-.216-.144 0 0-.036 0-.036-.036-.036-.036-.108-.072-.144-.108-.036 0-.036-.036-.072-.036h.036l1.833 1.008-.143-.072c.323.216.683.504.97.792.144.18.288.324.432.504.036.036.036.036.036.072.395.576.755 1.26.934 1.98v.072c.18.648.288 1.332.324 2.124v.576c-.072.576-.108 1.044-.18 1.512"/><path fill="url(#x)" d="m70.059 33.447-.97 1.584-1.834-1.044c.36-.468.647-.972.934-1.512z"/><path fill="url(#y)" d="M67.866 36.543c-.467.504-.898.936-1.366 1.332l-1.797-1.044h.036c.467-.396.898-.828 1.33-1.26z"/><path fill="url(#z)" d="M64.882 38.956c-.718.395-1.437.683-2.156.9l-1.762-1.044H61c.683-.18 1.366-.505 2.05-.865z"/><path fill="url(#A)" d="M60.497 40.036c-.54-.072-1.042-.18-1.51-.433-.108-.035-.934-.504-1.078-.54l-.79-.432c.107.036.25.072.359.108.287.145.61.217.934.289.144.035.288.035.432.035h.035z"/><path fill="url(#B)" d="M71.569 30.027a9 9 0 0 1-.576 1.656s0 .036-.036.036l-1.905-1.08v-.036a.5.5 0 0 0 .072-.216.6.6 0 0 0 .072-.18c.072-.18.144-.36.18-.54.036-.108.072-.18.108-.288.035-.144.072-.288.143-.396z"/><path fill="url(#C)" d="m71.892 28.263-1.905-1.045v-.072c.072-.504.108-.972.108-1.476v-.36l1.869 1.008v.54c.036.468 0 .936-.072 1.404"/><path fill="url(#D)" d="m71.64 24.122-1.653-.432c-.144-.684-.36-1.368-.683-1.98l1.366.36c.036.036.036.036.036.072.431.54.755 1.224.934 1.98"/><path fill="url(#E)" d="M70.023 27.182q0 .054 0 0 0 .054 0 0a21 21 0 0 1-.36 1.729v.036a6 6 0 0 1-.108.396c-.036.144-.107.288-.143.432l-.108.324c0 .036-.036.036-.036.072s-.036.072-.036.108-.036.072-.036.108l-.036.036c0 .072-.072.144-.072.216-.251.576-.503 1.188-.827 1.764v.036s0 .036-.035.036l-.108.216c-.252.468-.504.9-.791 1.296-.36.576-.791 1.08-1.222 1.548h-.036c-.432.468-.863.9-1.33 1.26h-.036c-.468.432-.97.756-1.51 1.08-2.84-4.392-3.99-10.693-2.948-17.353 1.402-.972 2.876-1.512 4.278-1.584.431 0 .863 0 1.294.108a4.5 4.5 0 0 1 1.474.504c.108.072.252.144.36.216h-.037c.036 0 .072.036.072.036.036.036.108.072.144.108 0 0 .036 0 .036.036.072.036.144.108.216.144.036.036.108.072.144.144l.143.144.036.036.144.144a.5.5 0 0 1 .108.144c.036.036.072.108.108.144.072.072.143.18.18.252l.035.036c.108.18.252.396.36.576a7.2 7.2 0 0 1 .683 1.98c.108.504.144 1.08.144 1.656v.36c-.036.504-.036.972-.108 1.44-.036 0-.036.036-.036.036" opacity=".5"/><path fill="url(#F)" d="M70.67 26.283c-.036 0-.036-.037-.072-.037h.036z" opacity=".5"/><path fill="url(#G)" d="M69.196 30.315c0-.036.036-.072.036-.108s.036-.036.036-.072c0 .072-.036.108-.072.18" opacity=".5"/><path fill="url(#H)" d="M50.612 10.333c0 .792-.108 1.512-.323 2.124 0 .036 0 .072-.036.072-.288.792-.72 1.44-1.222 1.872q-.27.216-.54.324a2.4 2.4 0 0 1-.718.216c-.072 0-.216.036-.324.036-.18 0-.323-.036-.467-.036-.108-.036-.216-.036-.324-.072s-.395 0-.503-.072a3.1 3.1 0 0 1-.827-.576c-.18-.18-.36-.396-.539-.612-.18-.252-.18-.576-.324-.864l-.18.072a5.3 5.3 0 0 1-.359-.792l.18-.072c-.108-.252-.18-.54-.252-.828l-.18.072c-.071-.288.037-.684 0-1.008v-.036c0-.324-.215-.54-.215-.828 0-.432.036-.828.072-1.224.036-.144.036-.288.072-.432 0-.072.036-.144.036-.216a5 5 0 0 1 .323-.972c.288-.612.647-1.189 1.043-1.549.143-.108.251-.216.395-.288.036-.036.18.144.216.108 0 0 .036 0 .072-.036.143-.072.287-.144.431-.144.036 0 .108-.036.144-.036.072 0 .108-.036.18-.036a2.54 2.54 0 0 1 1.725.432c1.078.685 1.977 2.089 2.3 3.853.036.18.036.36.072.504.036.36.072.684.072 1.044"/><path fill="url(#I)" d="M46.19 6.373c.109-.036.217-.108.324-.108.072 0 .144-.036.216-.036q.647-.054 1.186.324c.72.468 1.294 1.44 1.51 2.628a.7.7 0 0 0 .072.288c.036.252.036.504.036.72 0 1.152-.395 2.16-1.043 2.7-.251.216-.539.36-.862.396h-.216c-.108 0-.216 0-.323-.036-.072 0-.108-.036-.144-.036-.863-.288-1.618-1.224-1.941-2.484a4 4 0 0 1-.144-.684c-.036-.216-.036-.396-.036-.576-.036-1.44.503-2.664 1.366-3.096"/><path fill="url(#J)" d="M47.63 14.978h-.072l-1.007.108h.072c-.215 0-.431 0-.61-.036-.109-.037-.216-.037-.324-.073h-.036a2.8 2.8 0 0 1-.935-.54l-.036-.035c-.251-.216-.503-.432-.719-.757-.036-.072-.108-.144-.144-.216-.143-.18-.251-.396-.359-.576a5.3 5.3 0 0 1-.36-.792 5.6 5.6 0 0 1-.251-.828v-.036a8 8 0 0 1-.18-.9c0-.324-.036-.648-.036-.936 0-.324.036-.648.036-.972.036-.324.108-.648.18-.9a3.8 3.8 0 0 1 .324-.9c.18-.36.359-.684.575-.972.251-.288.539-.54.826-.72.108-.072.216-.108.324-.144.144-.036.252-.072.395-.108.072-.036.504-.072.575-.108l.576-.072c-.036 0-.072 0-.108.036-.072.036-.108.036-.18.072-.18.036-.288.108-.467.144-.072.036-.144.072-.18.108a2.7 2.7 0 0 0-.755.684 6 6 0 0 0-.575.936v.072c-.108.252-.216.54-.288.864a7 7 0 0 0-.18.9c-.035.288-.071.648-.035.972 0 .252 0 .504.036.756v.108c.036.324.107.648.18.936 0 .036 0 .072.035.108 0 .036 0 .072.036.108.036.072.036.144.072.216s.036.144.072.216.036.144.072.18a5.3 5.3 0 0 0 .36.792s0 .036.035.036c.108.216.252.396.36.612.036.036.072.108.108.144.18.216.36.432.539.613.252.252.54.431.827.575.108.037.18.072.287.108h.036c.072.037.108.037.18.073.036 0 .108.036.144.036s.072 0 .108.036c.107.035.251.035.359.035-.036.036.036.036.108.036"/><path fill="url(#K)" d="m42.632 10.297-.072-.9 1.043-.108c0 .288 0 .576.072.864z"/><path fill="url(#L)" d="M42.632 8.425a7 7 0 0 1 .18-.9l1.007-.108c-.072.288-.144.576-.18.9z"/><path fill="url(#M)" d="M43.1 6.625c.18-.36.36-.684.575-.973l1.006-.108a6 6 0 0 0-.575.937z"/><path fill="url(#N)" d="M44.537 4.932a1.7 1.7 0 0 1 .72-.252c.071 0 .503-.072.574-.108l.432-.072c-.072 0-.108.036-.18.036-.18.036-.288.108-.431.144-.072.036-.144.072-.18.108z"/><path fill="url(#O)" d="M43.028 12.097c-.108-.252-.18-.54-.252-.828v-.036l1.078-.108c0 .036.036.072.036.108s0 .072.036.108c.036.108.036.18.072.252 0 .036.036.108.036.144.036.072.036.144.072.216z"/><path fill="url(#P)" d="m43.387 12.853 1.042-.144v.036c.108.216.252.432.396.612.036.036.072.108.108.144l-1.043.144c-.036-.072-.108-.144-.144-.216a4 4 0 0 1-.359-.576"/><path fill="url(#Q)" d="m44.681 14.437.791-.288c.252.252.54.432.827.576l-.647.252h-.036a2.8 2.8 0 0 1-.935-.54"/><path fill="#fff" d="m47.018 9.433.467.9.431-2.196z"/><path fill="#fff" d="m46.263 7.777.755 1.656.898-1.296z"/><path fill="#fff" d="m46.442 11.341.576-1.908-.755-1.656zm.324.252 1.546.144-.54-1.044zm1.007-.9.539 1.044-.036-3.276z"/><path fill="#fff" d="m46.442 11.341 1.043-1.008-.468-.9z"/><path fill="url(#R)" d="M50.612 10.333c0 .792-.108 1.512-.323 2.124-2.373-.576-4.134-3.24-4.134-6.408 0-.54.036-1.045.144-1.549.072 0 .107-.036.18-.036a2.54 2.54 0 0 1 1.725.432c1.078.684 1.977 2.089 2.3 3.853.036.18.036.36.072.504 0 .396.036.72.036 1.08"/></g><defs><linearGradient id="b" x1="40.273" x2="45.464" y1="26.477" y2="26.477" gradientUnits="userSpaceOnUse"><stop stop-color="#fba03a"/><stop offset=".21" stop-color="#fa9a38"/><stop offset=".504" stop-color="#f78732"/><stop offset=".846" stop-color="#f36a29"/><stop offset="1" stop-color="#f15a24"/></linearGradient><linearGradient id="c" x1="0" x2="3.302" y1="70.048" y2="70.048" gradientUnits="userSpaceOnUse"><stop stop-color="#fba03a"/><stop offset=".21" stop-color="#fa9a38"/><stop offset=".504" stop-color="#f78732"/><stop offset=".846" stop-color="#f36a29"/><stop offset="1" stop-color="#f15a24"/></linearGradient><linearGradient id="d" x1="63.355" x2="66.656" y1="1.654" y2="1.654" gradientUnits="userSpaceOnUse"><stop stop-color="#fba03a"/><stop offset=".21" stop-color="#fa9a38"/><stop offset=".504" stop-color="#f78732"/><stop offset=".846" stop-color="#f36a29"/><stop offset="1" stop-color="#f15a24"/></linearGradient><linearGradient id="e" x1="61.997" x2="67.187" y1="51.006" y2="51.006" gradientUnits="userSpaceOnUse"><stop offset=".134" stop-color="#fbdf7a"/><stop offset=".329" stop-color="#fbdd74"/><stop offset=".579" stop-color="#fbd864"/><stop offset=".858" stop-color="#fbd04a"/><stop offset="1" stop-color="#fbcb3a"/></linearGradient><linearGradient id="f" x1="26.705" x2="29.921" y1="16.443" y2="16.443" gradientUnits="userSpaceOnUse"><stop offset=".134" stop-color="#fbdf7a"/><stop offset=".329" stop-color="#fbdd74"/><stop offset=".579" stop-color="#fbd864"/><stop offset=".858" stop-color="#fbd04a"/><stop offset="1" stop-color="#fbcb3a"/></linearGradient><linearGradient id="g" x1="24.128" x2="56.958" y1="60.929" y2="60.929" gradientUnits="userSpaceOnUse"><stop stop-color="#e59730"/><stop offset="1" stop-color="#e75440"/></linearGradient><linearGradient id="h" x1="13.502" x2="52.025" y1="62.007" y2="62.007" gradientUnits="userSpaceOnUse"><stop offset=".134" stop-color="#fbdf7a"/><stop offset=".329" stop-color="#fbdd74"/><stop offset=".579" stop-color="#fbd864"/><stop offset=".858" stop-color="#fbd04a"/><stop offset="1" stop-color="#fbcb3a"/></linearGradient><linearGradient id="i" x1="16.821" x2="47.221" y1="62.007" y2="62.007" gradientUnits="userSpaceOnUse"><stop stop-color="#fba03a"/><stop offset=".21" stop-color="#fa9a38"/><stop offset=".504" stop-color="#f78732"/><stop offset=".846" stop-color="#f36a29"/><stop offset="1" stop-color="#f15a24"/></linearGradient><linearGradient id="j" x1="28.447" x2="36.459" y1="34.848" y2="34.848" gradientUnits="userSpaceOnUse"><stop stop-color="#fb8f60"/><stop offset=".228" stop-color="#fb895e"/><stop offset=".546" stop-color="#fd765a"/><stop offset=".915" stop-color="#fe5953"/><stop offset="1" stop-color="#ff5151"/></linearGradient><linearGradient id="k" x1="35.844" x2="42.661" y1="37.719" y2="37.719" gradientUnits="userSpaceOnUse"><stop stop-color="#fb8f60"/><stop offset=".228" stop-color="#fb895e"/><stop offset=".546" stop-color="#fd765a"/><stop offset=".915" stop-color="#fe5953"/><stop offset="1" stop-color="#ff5151"/></linearGradient><linearGradient id="l" x1="40.786" x2="47.143" y1="41.858" y2="41.858" gradientUnits="userSpaceOnUse"><stop stop-color="#fb8f60"/><stop offset=".228" stop-color="#fb895e"/><stop offset=".546" stop-color="#fd765a"/><stop offset=".915" stop-color="#fe5953"/><stop offset="1" stop-color="#ff5151"/></linearGradient><linearGradient id="m" x1="44.59" x2="50.641" y1="46.586" y2="46.586" gradientUnits="userSpaceOnUse"><stop stop-color="#fb8f60"/><stop offset=".228" stop-color="#fb895e"/><stop offset=".546" stop-color="#fd765a"/><stop offset=".915" stop-color="#fe5953"/><stop offset="1" stop-color="#ff5151"/></linearGradient><linearGradient id="n" x1="47.574" x2="53.373" y1="51.75" y2="51.75" gradientUnits="userSpaceOnUse"><stop stop-color="#fb8f60"/><stop offset=".228" stop-color="#fb895e"/><stop offset=".546" stop-color="#fd765a"/><stop offset=".915" stop-color="#fe5953"/><stop offset="1" stop-color="#ff5151"/></linearGradient><linearGradient id="o" x1="49.84" x2="55.392" y1="57.301" y2="57.301" gradientUnits="userSpaceOnUse"><stop stop-color="#fb8f60"/><stop offset=".228" stop-color="#fb895e"/><stop offset=".546" stop-color="#fd765a"/><stop offset=".915" stop-color="#fe5953"/><stop offset="1" stop-color="#ff5151"/></linearGradient><linearGradient id="p" x1="51.37" x2="56.64" y1="63.265" y2="63.265" gradientUnits="userSpaceOnUse"><stop stop-color="#fb8f60"/><stop offset=".228" stop-color="#fb895e"/><stop offset=".546" stop-color="#fd765a"/><stop offset=".915" stop-color="#fe5953"/><stop offset="1" stop-color="#ff5151"/></linearGradient><linearGradient id="q" x1="51.895" x2="56.958" y1="69.712" y2="69.712" gradientUnits="userSpaceOnUse"><stop stop-color="#fb8f60"/><stop offset=".228" stop-color="#fb895e"/><stop offset=".546" stop-color="#fd765a"/><stop offset=".915" stop-color="#fe5953"/><stop offset="1" stop-color="#ff5151"/></linearGradient><linearGradient id="r" x1="50.011" x2="56.551" y1="77.038" y2="77.038" gradientUnits="userSpaceOnUse"><stop stop-color="#fb8f60"/><stop offset=".228" stop-color="#fb895e"/><stop offset=".546" stop-color="#fd765a"/><stop offset=".915" stop-color="#fe5953"/><stop offset="1" stop-color="#ff5151"/></linearGradient><linearGradient id="s" x1="42.256" x2="53.32" y1="85.181" y2="85.181" gradientUnits="userSpaceOnUse"><stop stop-color="#fb8f60"/><stop offset=".228" stop-color="#fb895e"/><stop offset=".546" stop-color="#fd765a"/><stop offset=".915" stop-color="#fe5953"/><stop offset="1" stop-color="#ff5151"/></linearGradient><linearGradient id="t" x1="29.399" x2="49.372" y1="31.048" y2="94.574" gradientUnits="userSpaceOnUse"><stop stop-color="#fff" stop-opacity=".3"/><stop offset="1" stop-color="#fff" stop-opacity="0"/></linearGradient><linearGradient id="u" x1="57.075" x2="68.285" y1="17.082" y2="43.117" gradientUnits="userSpaceOnUse"><stop offset=".134" stop-color="#fbdf7a"/><stop offset=".329" stop-color="#fbdd74"/><stop offset=".579" stop-color="#fbd864"/><stop offset=".858" stop-color="#fbd04a"/><stop offset="1" stop-color="#fbcb3a"/></linearGradient><linearGradient id="v" x1="57.655" x2="69.289" y1="29.441" y2="27.942" gradientUnits="userSpaceOnUse"><stop stop-color="#fba03a"/><stop offset=".21" stop-color="#fa9a38"/><stop offset=".504" stop-color="#f78732"/><stop offset=".846" stop-color="#f36a29"/><stop offset="1" stop-color="#f15a24"/></linearGradient><linearGradient id="w" x1="66.034" x2="63.87" y1="21.499" y2="37.812" gradientUnits="userSpaceOnUse"><stop stop-color="#fba03a"/><stop offset=".21" stop-color="#fa9a38"/><stop offset=".504" stop-color="#f78732"/><stop offset=".846" stop-color="#f36a29"/><stop offset="1" stop-color="#f15a24"/></linearGradient><linearGradient id="x" x1="67.769" x2="69.572" y1="33.152" y2="34.282" gradientUnits="userSpaceOnUse"><stop stop-color="#fb6b3a"/><stop offset=".448" stop-color="#f86634"/><stop offset="1" stop-color="#f15a24"/></linearGradient><linearGradient id="y" x1="65.183" x2="67.339" y1="36.009" y2="37.361" gradientUnits="userSpaceOnUse"><stop stop-color="#fb6b3a"/><stop offset=".448" stop-color="#f86634"/><stop offset="1" stop-color="#f15a24"/></linearGradient><linearGradient id="z" x1="61.492" x2="64.364" y1="37.994" y2="39.796" gradientUnits="userSpaceOnUse"><stop stop-color="#fb6b3a"/><stop offset=".448" stop-color="#f86634"/><stop offset="1" stop-color="#f15a24"/></linearGradient><linearGradient id="A" x1="57.271" x2="60.333" y1="38.359" y2="40.279" gradientUnits="userSpaceOnUse"><stop stop-color="#fb6b3a"/><stop offset=".448" stop-color="#f86634"/><stop offset="1" stop-color="#f15a24"/></linearGradient><linearGradient id="B" x1="69.231" x2="71.427" y1="29.647" y2="31.024" gradientUnits="userSpaceOnUse"><stop stop-color="#fb6b3a"/><stop offset=".448" stop-color="#f86634"/><stop offset="1" stop-color="#f15a24"/></linearGradient><linearGradient id="C" x1="69.727" x2="72.324" y1="25.978" y2="27.606" gradientUnits="userSpaceOnUse"><stop stop-color="#fb6b3a"/><stop offset=".448" stop-color="#f86634"/><stop offset="1" stop-color="#f15a24"/></linearGradient><linearGradient id="D" x1="69.077" x2="71.848" y1="22.058" y2="23.795" gradientUnits="userSpaceOnUse"><stop stop-color="#fb6b3a"/><stop offset=".448" stop-color="#f86634"/><stop offset="1" stop-color="#f15a24"/></linearGradient><linearGradient id="E" x1="66.417" x2="61.538" y1="19.198" y2="37.454" gradientUnits="userSpaceOnUse"><stop stop-color="#fff"/><stop offset="1" stop-color="#fff" stop-opacity=".5"/></linearGradient><linearGradient id="F" x1="70.598" x2="70.668" y1="26.203" y2="26.32" gradientUnits="userSpaceOnUse"><stop stop-color="#fff"/><stop offset="1" stop-color="#fff" stop-opacity=".5"/></linearGradient><linearGradient id="G" x1="69.199" x2="69.291" y1="30.152" y2="30.307" gradientUnits="userSpaceOnUse"><stop stop-color="#fff"/><stop offset="1" stop-color="#fff" stop-opacity=".5"/></linearGradient><linearGradient id="H" x1="42.451" x2="52.308" y1="3.969" y2="16.474" gradientUnits="userSpaceOnUse"><stop offset=".134" stop-color="#fbdf7a"/><stop offset=".329" stop-color="#fbdd74"/><stop offset=".579" stop-color="#fbd864"/><stop offset=".858" stop-color="#fbd04a"/><stop offset="1" stop-color="#fbcb3a"/></linearGradient><linearGradient id="I" x1="41.198" x2="47.438" y1="16.193" y2="9.48" gradientUnits="userSpaceOnUse"><stop stop-color="#fba03a"/><stop offset=".21" stop-color="#fa9a38"/><stop offset=".504" stop-color="#f78732"/><stop offset=".846" stop-color="#f36a29"/><stop offset="1" stop-color="#f15a24"/></linearGradient><linearGradient id="J" x1="45.024" x2="47.847" y1="9.088" y2="16.061" gradientUnits="userSpaceOnUse"><stop stop-color="#fba03a"/><stop offset=".21" stop-color="#fa9a38"/><stop offset=".504" stop-color="#f78732"/><stop offset=".846" stop-color="#f36a29"/><stop offset="1" stop-color="#f15a24"/></linearGradient><linearGradient id="K" x1="43.587" x2="42.549" y1="9.727" y2="9.799" gradientUnits="userSpaceOnUse"><stop stop-color="#fb6b3a"/><stop offset=".448" stop-color="#f86634"/><stop offset="1" stop-color="#f15a24"/></linearGradient><linearGradient id="L" x1="43.787" x2="42.546" y1="7.853" y2="7.939" gradientUnits="userSpaceOnUse"><stop stop-color="#fb6b3a"/><stop offset=".448" stop-color="#f86634"/><stop offset="1" stop-color="#f15a24"/></linearGradient><linearGradient id="M" x1="44.674" x2="43.021" y1="6.004" y2="6.119" gradientUnits="userSpaceOnUse"><stop stop-color="#fb6b3a"/><stop offset=".448" stop-color="#f86634"/><stop offset="1" stop-color="#f15a24"/></linearGradient><linearGradient id="N" x1="46.236" x2="44.474" y1="4.643" y2="4.765" gradientUnits="userSpaceOnUse"><stop stop-color="#fb6b3a"/><stop offset=".448" stop-color="#f86634"/><stop offset="1" stop-color="#f15a24"/></linearGradient><linearGradient id="O" x1="44.017" x2="42.754" y1="11.534" y2="11.621" gradientUnits="userSpaceOnUse"><stop stop-color="#fb6b3a"/><stop offset=".448" stop-color="#f86634"/><stop offset="1" stop-color="#f15a24"/></linearGradient><linearGradient id="P" x1="44.876" x2="43.382" y1="13.126" y2="13.229" gradientUnits="userSpaceOnUse"><stop stop-color="#fb6b3a"/><stop offset=".448" stop-color="#f86634"/><stop offset="1" stop-color="#f15a24"/></linearGradient><linearGradient id="Q" x1="46.26" x2="44.666" y1="14.487" y2="14.597" gradientUnits="userSpaceOnUse"><stop stop-color="#fb6b3a"/><stop offset=".448" stop-color="#f86634"/><stop offset="1" stop-color="#f15a24"/></linearGradient><linearGradient id="R" x1="48.091" x2="50.467" y1="7.503" y2="13.372" gradientUnits="userSpaceOnUse"><stop stop-color="#fff" stop-opacity=".3"/><stop offset="1" stop-color="#fff" stop-opacity="0"/></linearGradient><clipPath id="a"><path fill="#fff" d="M0 0h72v89H0z"/></clipPath></defs></svg>