<svg xmlns="http://www.w3.org/2000/svg" width="120" height="120" fill="none" viewBox="0 0 120 120"><mask id="a" width="120" height="120" x="0" y="0" maskUnits="userSpaceOnUse" style="mask-type:luminance"><path fill="#fff" d="M120 0H0v120h120z"/></mask><g mask="url(#a)"><path fill="#565656" d="M91.124 60.285c0 17.289-14.015 31.304-31.304 31.304S28.516 77.574 28.516 60.285c0-17.29 14.015-31.304 31.304-31.304s31.304 14.015 31.304 31.304"/><path fill="#565656" d="M112.068 60.284c0 28.856-23.393 52.249-52.249 52.249S7.57 89.14 7.57 60.284 30.963 8.035 59.82 8.035c28.855 0 52.248 23.393 52.248 52.249" opacity=".209"/><path fill="#565656" d="M97.138 60.286c0 20.61-16.708 37.317-37.317 37.317S22.504 80.895 22.504 60.286 39.21 22.969 59.82 22.969s37.317 16.707 37.317 37.317" opacity=".499"/><path fill="#fff" d="M59.754 74.026a3.214 3.214 0 0 0 3.215-3.215c0-1.347-.827-2.48-1.99-2.97v-2.908l5.541-1.715c.98-.306 1.592-1.101 1.592-2.081v-4.41h1.133v-4.285h-4.47v4.285h1.194v4.318c0 .092-.061.122-.153.153l-4.838 1.5v-9.339h2.204l-3.428-5.664-3.43 5.664h2.205v11.299l-4.317-1.44c-.153-.06-.214-.092-.214-.245v-4.5a2.46 2.46 0 0 0 1.377-2.205 2.456 2.456 0 0 0-2.449-2.449 2.456 2.456 0 0 0-2.45 2.449c0 .95.552 1.807 1.379 2.205v4.685c0 .98.612 1.745 1.561 2.05l5.113 1.716v.918c-1.163.49-1.99 1.622-1.99 2.97a3.214 3.214 0 0 0 3.215 3.214"/></g></svg>