<svg xmlns="http://www.w3.org/2000/svg" width="224" height="159" fill="none" viewBox="0 0 224 159"><mask id="b" width="202" height="147" x="11" y="12" mask-type="alpha" maskUnits="userSpaceOnUse"><path fill="#c4c4c4" fill-rule="evenodd" d="M213 34.777a20 20 0 0 1-3 .223c-11.046 0-20-8.954-20-20q.001-1.53.223-3H14a3 3 0 0 0-3 3v141a3 3 0 0 0 3 3h196a3 3 0 0 0 3-3z" clip-rule="evenodd"/></mask><g filter="url(#a)" mask="url(#b)"><path fill="#f5f5f5" d="M11 12h202v147H11z"/><path fill="#fff" d="M11 12.775h42.083v146.45H11z"/><circle cx="18.154" cy="19.929" r="1.262" fill="#142533" fill-opacity=".1"/><circle cx="22.363" cy="19.929" r="1.262" fill="#142533" fill-opacity=".1"/><circle cx="26.571" cy="19.929" r="1.262" fill="#142533" fill-opacity=".1"/><rect width="7.575" height="1.683" x="16.892" y="38.867" fill="#142533" fill-opacity=".3" rx=".842"/><rect width="42.083" height="1.683" x="64.025" y="32.975" fill="#142533" fill-opacity=".3" rx=".842"/><rect width="16.833" height="1.683" x="64.025" y="37.183" fill="#142533" fill-opacity=".1" rx=".842"/><rect width="7.575" height="1.683" x="16.892" y="89.367" fill="#142533" fill-opacity=".3" rx=".842"/><rect width="25.25" height="1.683" x="16.892" y="45.6" fill="#142533" fill-opacity=".1" rx=".842"/><rect width="21.883" height="1.683" x="16.892" y="52.333" fill="#142533" fill-opacity=".1" rx=".842"/><rect width="25.25" height="1.683" x="16.892" y="59.067" fill="#142533" fill-opacity=".1" rx=".842"/><rect width="21.883" height="1.683" x="16.892" y="65.8" fill="#142533" fill-opacity=".1" rx=".842"/><rect width="25.25" height="1.683" x="16.892" y="72.533" fill="#142533" fill-opacity=".1" rx=".842"/><rect width="17.675" height="1.683" x="26.15" y="96.1" fill="#142533" fill-opacity=".1" rx=".842"/><rect width="12.625" height="1.683" x="26.15" y="99.467" fill="#142533" fill-opacity=".1" rx=".842"/><rect width="5.05" height="5.05" x="17.733" y="96.1" fill="#142533" fill-opacity=".1" rx=".842"/><rect width="17.675" height="1.683" x="26.15" y="107.042" fill="#142533" fill-opacity=".1" rx=".842"/><rect width="12.625" height="1.683" x="26.15" y="110.408" fill="#142533" fill-opacity=".1" rx=".842"/><rect width="5.05" height="5.05" x="17.733" y="107.042" fill="#142533" fill-opacity=".1" rx=".842"/><rect width="17.675" height="1.683" x="26.15" y="117.983" fill="#142533" fill-opacity=".1" rx=".842"/><rect width="12.625" height="1.683" x="26.15" y="121.35" fill="#142533" fill-opacity=".1" rx=".842"/><rect width="5.05" height="5.05" x="17.733" y="117.983" fill="#142533" fill-opacity=".1" rx=".842"/><rect width="135.508" height="10.942" x="64.025" y="118.825" fill="#fff" rx="2"/><rect width="135.508" height="33.667" x="64.025" y="132.292" fill="#fff" rx="2"/><rect width="19.358" height="1.683" x="64.025" y="111.25" fill="#142533" fill-opacity=".3" rx=".842"/><rect width="26.933" height="1.683" x="69.917" y="123.875" fill="#142533" fill-opacity=".1" rx=".842"/><rect width="43.767" height="1.683" x="69.917" y="139.025" fill="#142533" fill-opacity=".1" rx=".842"/><rect width="25.25" height="1.683" x="69.917" y="145.758" fill="#142533" fill-opacity=".1" rx=".842"/><rect width="31.142" height="1.683" x="69.917" y="152.492" fill="#142533" fill-opacity=".1" rx=".842"/><rect width="14.308" height="1.683" x="180.175" y="123.875" fill="#142533" fill-opacity=".1" rx=".842"/><rect width="135.508" height="50.5" x="64.025" y="48.967" fill="#fff" rx="2"/><rect width="21.883" height="1.683" x="69.917" y="56.542" fill="#142533" fill-opacity=".3" rx=".842"/><path stroke="#142533" stroke-opacity=".1" stroke-width="1.262" d="m69.075 70.85 4.18 3.156c4.18 3.157 12.541 9.47 20.902 8.838 8.36-.631 16.721-8.206 25.081-8.206 8.361 0 16.721 7.575 25.082 10.73 8.361 3.157 16.721 1.895 25.082-1.262 8.36-3.156 16.721-8.206 20.901-10.73l4.18-2.526"/><path fill="url(#c)" d="m73.255 74.006-2.831-2.138a.842.842 0 0 0-1.349.672v19.773a2.525 2.525 0 0 0 2.525 2.525h120.358a2.525 2.525 0 0 0 2.525-2.525V72.342a.842.842 0 0 0-1.277-.72l-2.903 1.753c-4.18 2.525-12.541 7.575-20.901 10.731-8.361 3.157-16.721 4.42-25.082 1.263s-16.721-10.731-25.082-10.731c-8.36 0-16.721 7.575-25.081 8.206s-16.721-5.681-20.902-8.838"/><rect width="201" height="146" x="11.5" y="12.5" stroke="#142533" stroke-opacity=".1" rx="2.5"/></g><circle cx="210.054" cy="14.879" r="13.887" fill="#ea2e49"/><path fill="#fff" fill-rule="evenodd" d="M209.212 8.567v9.755h1.684V8.567zm1.684 12.04a.842.842 0 0 0-1.684 0v.01a.842.842 0 0 0 1.684 0z" clip-rule="evenodd"/><defs><linearGradient id="c" x1="131.779" x2="131.779" y1="70.85" y2="94.838" gradientUnits="userSpaceOnUse"><stop stop-color="#c4c4c4" stop-opacity=".28"/><stop offset="1" stop-color="#fff" stop-opacity="0"/></linearGradient><filter id="a" width="212.1" height="164.058" x="5.95" y="9.475" color-interpolation-filters="sRGB" filterUnits="userSpaceOnUse"><feFlood flood-opacity="0" result="BackgroundImageFix"/><feColorMatrix in="SourceAlpha" values="0 0 0 0 0 0 0 0 0 0 0 0 0 0 0 0 0 0 127 0"/><feOffset dy="2.525"/><feGaussianBlur stdDeviation="2.525"/><feColorMatrix values="0 0 0 0 0 0 0 0 0 0 0 0 0 0 0 0 0 0 0.04 0"/><feBlend in2="BackgroundImageFix" result="effect1_dropShadow"/><feBlend in="SourceGraphic" in2="effect1_dropShadow" result="shape"/></filter></defs></svg>