<svg xmlns="http://www.w3.org/2000/svg" xmlns:xlink="http://www.w3.org/1999/xlink" width="194" height="62"><defs><filter id="a" width="118.7%" height="168%" x="-9.3%" y="-30%" filterUnits="objectBoundingBox"><feOffset dy="2" in="SourceAlpha" result="shadowOffsetOuter1"/><feGaussianBlur in="shadowOffsetOuter1" result="shadowBlurOuter1" stdDeviation="2"/><feColorMatrix in="shadowBlurOuter1" result="shadowMatrixOuter1" values="0 0 0 0 0 0 0 0 0 0 0 0 0 0 0 0 0 0 0.06 0"/><feMerge><feMergeNode in="shadowMatrixOuter1"/><feMergeNode in="SourceGraphic"/></feMerge></filter><filter id="c" width="112%" height="440%" x="-6%" y="-130%" filterUnits="objectBoundingBox"><feOffset dy="2" in="SourceAlpha" result="shadowOffsetOuter1"/><feGaussianBlur in="shadowOffsetOuter1" result="shadowBlurOuter1" stdDeviation="2.5"/><feComposite in="shadowBlurOuter1" in2="SourceAlpha" operator="out" result="shadowBlurOuter1"/><feColorMatrix in="shadowBlurOuter1" values="0 0 0 0 0 0 0 0 0 0 0 0 0 0 0 0 0 0 0.04 0"/></filter><filter id="f" width="110.5%" height="383.3%" x="-5.2%" y="-108.3%" filterUnits="objectBoundingBox"><feOffset dy="2" in="SourceAlpha" result="shadowOffsetOuter1"/><feGaussianBlur in="shadowOffsetOuter1" result="shadowBlurOuter1" stdDeviation="2.5"/><feComposite in="shadowBlurOuter1" in2="SourceAlpha" operator="out" result="shadowBlurOuter1"/><feColorMatrix in="shadowBlurOuter1" values="0 0 0 0 0 0 0 0 0 0 0 0 0 0 0 0 0 0 0.04 0"/></filter><filter id="h" width="109.3%" height="141.5%" x="-4.7%" y="-15.9%" filterUnits="objectBoundingBox"><feOffset dy="2" in="SourceAlpha" result="shadowOffsetOuter1"/><feGaussianBlur in="shadowOffsetOuter1" result="shadowBlurOuter1" stdDeviation="2.5"/><feComposite in="shadowBlurOuter1" in2="SourceAlpha" operator="out" result="shadowBlurOuter1"/><feColorMatrix in="shadowBlurOuter1" values="0 0 0 0 0 0 0 0 0 0 0 0 0 0 0 0 0 0 0.04 0"/></filter><path id="b" d="M20 45h142v1a4 4 0 0 1-4 4H24a4 4 0 0 1-4-4z"/><path id="d" d="M10 40h162v3a3 3 0 0 1-3 3H13a3 3 0 0 1-3-3z"/><rect id="g" width="182" height="41" x="0" y="0" rx="4"/></defs><g fill="none" fill-rule="evenodd" filter="url(#a)" transform="translate(6 3)"><g fill="#000" opacity=".3"><use xlink:href="#b" filter="url(#c)"/><path fill-opacity=".16" stroke="#3d3d3e" stroke-linejoin="square" d="M20.5 45.5v.5a3.5 3.5 0 0 0 3.5 3.5h134a3.5 3.5 0 0 0 3.5-3.5v-.5z"/></g><g fill="#000" opacity=".6"><use xlink:href="#d" filter="url(#f)"/><path fill-opacity=".16" stroke="#3d3d3e" stroke-linejoin="square" d="M10.5 40.5V43a2.5 2.5 0 0 0 2.5 2.5h156a2.5 2.5 0 0 0 2.5-2.5v-2.5z"/></g><g fill="#000"><use xlink:href="#g" filter="url(#h)"/><rect width="181" height="40" x=".5" y=".5" fill-opacity=".16" stroke="#3d3d3e" stroke-linejoin="square" rx="4"/></g><circle cx="17.5" cy="20.5" r="7.5" fill="#fff" opacity=".2"/><rect width="120" height="5" x="35" y="13" fill="#fff" opacity=".4" rx="2.5"/><rect width="70" height="5" x="35" y="23" fill="#fff" opacity=".2" rx="2.5"/></g></svg>