<svg xmlns="http://www.w3.org/2000/svg" xmlns:xlink="http://www.w3.org/1999/xlink" width="398" height="88"><defs><filter id="b" width="104.7%" height="254.5%" x="-2.4%" y="-59.1%" filterUnits="objectBoundingBox"><feOffset dy="2" in="SourceAlpha" result="shadowOffsetOuter1"/><feGaussianBlur in="shadowOffsetOuter1" result="shadowBlurOuter1" stdDeviation="2.5"/><feComposite in="shadowBlurOuter1" in2="SourceAlpha" operator="out" result="shadowBlurOuter1"/><feColorMatrix in="shadowBlurOuter1" values="0 0 0 0 0 0 0 0 0 0 0 0 0 0 0 0 0 0 0.04 0"/></filter><filter id="e" width="104.6%" height="254.5%" x="-2.3%" y="-59.1%" filterUnits="objectBoundingBox"><feOffset dy="2" in="SourceAlpha" result="shadowOffsetOuter1"/><feGaussianBlur in="shadowOffsetOuter1" result="shadowBlurOuter1" stdDeviation="2.5"/><feComposite in="shadowBlurOuter1" in2="SourceAlpha" operator="out" result="shadowBlurOuter1"/><feColorMatrix in="shadowBlurOuter1" values="0 0 0 0 0 0 0 0 0 0 0 0 0 0 0 0 0 0 0.04 0"/></filter><filter id="g" width="104.4%" height="129.3%" x="-2.2%" y="-11.2%" filterUnits="objectBoundingBox"><feOffset dy="2" in="SourceAlpha" result="shadowOffsetOuter1"/><feGaussianBlur in="shadowOffsetOuter1" result="shadowBlurOuter1" stdDeviation="2.5"/><feComposite in="shadowBlurOuter1" in2="SourceAlpha" operator="out" result="shadowBlurOuter1"/><feColorMatrix in="shadowBlurOuter1" values="0 0 0 0 0 0 0 0 0 0 0 0 0 0 0 0 0 0 0.04 0"/></filter><path id="a" d="M15 67h358v7a4 4 0 0 1-4 4H19a4 4 0 0 1-4-4z"/><path id="c" d="M7 57h373v7a4 4 0 0 1-4 4H11a4 4 0 0 1-4-4z"/><rect id="f" width="388" height="58" x="0" y="0" rx="4"/></defs><g fill="none" fill-rule="evenodd"><g fill="#000" opacity=".3" transform="translate(5 3)"><use xlink:href="#a" filter="url(#b)"/><path fill-opacity=".16" stroke="#3d3d3e" stroke-linejoin="square" d="M15.5 67.5V74a3.5 3.5 0 0 0 3.5 3.5h350a3.5 3.5 0 0 0 3.5-3.5v-6.5z"/></g><g fill="#000" opacity=".6" transform="translate(5 3)"><use xlink:href="#c" filter="url(#e)"/><path fill-opacity=".16" stroke="#3d3d3e" stroke-linejoin="square" d="M7.5 57.5V64a3.5 3.5 0 0 0 3.5 3.5h365a3.5 3.5 0 0 0 3.5-3.5v-6.5z"/></g><g fill="#000" transform="translate(5 3)"><use xlink:href="#f" filter="url(#g)"/><rect width="387" height="57" x=".5" y=".5" fill-opacity=".16" stroke="#3d3d3e" stroke-linejoin="square" rx="4"/></g><path fill="#fff" d="M88.787 35a2 2 0 1 1 0 4H60a2 2 0 1 1 0-4zm291.085 0a2 2 0 0 1 0 4h-27.9a2 2 0 0 1 0-4zM272 30a2 2 0 0 1 0 4h-96a2 2 0 0 1 0-4zm-152.564-5a2 2 0 1 1 0 4H60a2 2 0 1 1 0-4zm260.436 0a2 2 0 0 1 0 4H343.81a2 2 0 0 1 0-4z" opacity=".3"/><g fill="#66be54" transform="translate(22 20)"><rect width="24" height="24" opacity=".2" rx="12"/><path fill-rule="nonzero" d="M16.188 16.313c.276 0 .5.251.5.562s-.224.563-.5.563h-8c-.277 0-.5-.252-.5-.563s.223-.562.5-.562zM12 6.374c.31 0 .563.233.563.52v6.934l2.04-2.04a.563.563 0 0 1 .795.796l-2.928 2.93a.56.56 0 0 1-.313.214l-.11.019-.047.002a.57.57 0 0 1-.47-.235l-2.928-2.93a.563.563 0 0 1 .796-.795l2.04 2.04V6.896c0-.288.251-.521.562-.521"/></g></g></svg>