<svg xmlns="http://www.w3.org/2000/svg" width="180" height="130" fill="none" viewBox="0 0 180 130"><rect width="180" height="130" fill="#fff" rx="4"/><rect width="32" height="12" x="136" y="110" fill="#8a80db" rx="2"/><path fill="#fff" d="M144.173 118h2.379v-.552h-1.721v-.993h1.584v-.552h-1.584v-.987h1.707v-.552h-2.365zm3.651-1.598c0-.394.238-.621.577-.621.332 0 .531.218.531.582V118h.643v-1.737c.002-.653-.371-1.026-.934-1.026-.409 0-.689.196-.813.499h-.032v-.463h-.615V118h.643zm3.189 1.653c.428 0 .684-.201.801-.43h.021V118h.618v-1.825c0-.721-.588-.938-1.108-.938-.573 0-1.014.256-1.156.753l.6.085c.064-.186.245-.346.56-.346.298 0 .461.153.461.421v.011c0 .184-.193.193-.674.245-.53.056-1.036.214-1.036.829 0 .536.393.82.913.82m.167-.472c-.268 0-.46-.123-.46-.359 0-.247.215-.35.503-.391.168-.023.506-.065.589-.133v.322c0 .303-.245.561-.632.561m1.948.417h.632v-.43h.037a.82.82 0 0 0 .781.478c.643 0 1.124-.51 1.124-1.408 0-.909-.495-1.403-1.125-1.403-.482 0-.682.29-.78.487h-.027v-1.36h-.642zm.63-1.364c0-.529.227-.871.641-.871.428 0 .648.364.648.871 0 .512-.224.885-.648.885-.41 0-.641-.356-.641-.885m3.133-2.272h-.642V118h.642zm1.869 3.689c.635 0 1.072-.31 1.186-.785l-.6-.067c-.087.231-.3.352-.577.352-.416 0-.691-.274-.696-.741h1.9v-.197c0-.957-.576-1.378-1.247-1.378-.781 0-1.291.574-1.291 1.415 0 .856.503 1.401 1.325 1.401m-.686-1.674c.02-.348.277-.641.661-.641.369 0 .618.27.621.641z"/><rect width="40" height="3" x="12" y="54" fill="#142533" fill-opacity=".3" rx="1.5"/><rect width="16" height="3" x="12" y="78" fill="#142533" fill-opacity=".3" rx="1.5"/><rect width="64" height="3" x="90" y="54" fill="#142533" fill-opacity=".3" rx="1.5"/><rect width="32" height="3" x="66" y="78" fill="#142533" fill-opacity=".3" rx="1.5"/><rect width="32" height="3" x="136" y="78" fill="#142533" fill-opacity=".3" rx="1.5"/><path fill="#000" d="M52.717 23h4.759v-1.104h-3.441V19.91h3.167v-1.104h-3.167v-1.974h3.412v-1.105h-4.73zm7.303-3.196c0-.788.476-1.243 1.154-1.243.664 0 1.062.437 1.062 1.165V23h1.286v-3.473c.003-1.307-.742-2.053-1.868-2.053-.817 0-1.378.391-1.627.998h-.064v-.927h-1.228V23h1.285zm6.378 3.306c.856 0 1.367-.401 1.602-.86h.042V23h1.236v-3.65c0-1.442-1.175-1.876-2.216-1.876-1.147 0-2.028.512-2.312 1.506l1.2.17c.129-.372.49-.692 1.12-.692.596 0 .923.306.923.842v.021c0 .37-.387.387-1.35.49-1.058.114-2.07.43-2.07 1.659 0 1.072.785 1.64 1.825 1.64m.334-.944c-.536 0-.92-.245-.92-.718 0-.494.43-.7 1.005-.781.338-.046 1.012-.132 1.18-.266v.642c0 .608-.491 1.123-1.265 1.123m3.895.834h1.265v-.86h.074c.203.398.625.956 1.563.956 1.285 0 2.248-1.02 2.248-2.816 0-1.818-.991-2.806-2.252-2.806-.962 0-1.363.58-1.559.973h-.053v-2.72h-1.285zm1.261-2.727c0-1.058.455-1.744 1.282-1.744.856 0 1.296.728 1.296 1.744 0 1.023-.447 1.768-1.296 1.768-.82 0-1.282-.71-1.282-1.768m6.267-4.546H76.87V23h1.285zm3.737 7.38c1.271 0 2.145-.622 2.372-1.57l-1.2-.135c-.174.462-.6.703-1.155.703-.83 0-1.38-.547-1.392-1.48h3.8v-.395c0-1.914-1.15-2.756-2.493-2.756-1.562 0-2.581 1.147-2.581 2.83 0 1.712 1.005 2.803 2.649 2.803m-1.371-3.35c.039-.695.554-1.281 1.321-1.281.739 0 1.236.54 1.243 1.282zm8.934 3.353c.856 0 1.367-.401 1.601-.86h.043V23h1.236v-3.65c0-1.442-1.176-1.876-2.216-1.876-1.147 0-2.028.512-2.312 1.506l1.2.17c.128-.372.49-.692 1.119-.692.596 0 .923.306.923.842v.021c0 .37-.387.387-1.35.49-1.058.114-2.07.43-2.07 1.659 0 1.072.785 1.64 1.826 1.64m.334-.944c-.537 0-.92-.245-.92-.718 0-.494.43-.7 1.005-.781.337-.046 1.012-.132 1.179-.266v.642c0 .608-.49 1.123-1.264 1.123m6.218.94c1.37 0 2.244-.813 2.336-1.97h-1.228c-.11.586-.533.923-1.098.923-.802 0-1.32-.671-1.32-1.786 0-1.101.528-1.762 1.32-1.762.618 0 .998.398 1.098.924h1.228c-.089-1.183-1.012-1.96-2.344-1.96-1.597 0-2.606 1.154-2.606 2.819 0 1.651.984 2.813 2.614 2.813m5.771 0c1.371 0 2.244-.813 2.337-1.97h-1.229c-.11.586-.533.923-1.097.923-.803 0-1.321-.671-1.321-1.786 0-1.101.529-1.762 1.321-1.762.618 0 .998.398 1.097.924h1.229c-.089-1.183-1.012-1.96-2.344-1.96-1.598 0-2.607 1.154-2.607 2.819 0 1.651.984 2.813 2.614 2.813m5.772 0c1.598 0 2.613-1.125 2.613-2.812 0-1.69-1.015-2.82-2.613-2.82s-2.614 1.13-2.614 2.82c0 1.687 1.016 2.813 2.614 2.813m.007-1.03c-.885 0-1.318-.788-1.318-1.785 0-.998.433-1.797 1.318-1.797.87 0 1.303.799 1.303 1.797s-.433 1.786-1.303 1.786m7.174-1.37c0 .83-.593 1.243-1.161 1.243-.618 0-1.03-.437-1.03-1.13V17.55h-1.286v3.473c0 1.31.746 2.052 1.818 2.052.817 0 1.392-.43 1.641-1.04h.057V23h1.246v-5.454h-1.285zm3.893-.902c0-.788.476-1.243 1.154-1.243.664 0 1.062.437 1.062 1.165V23h1.285v-3.473c.004-1.307-.742-2.053-1.868-2.053-.816 0-1.378.391-1.626.998h-.064v-.927h-1.229V23h1.286zm7.532-2.258h-1.076v-1.307h-1.286v1.306h-.774v.995h.774v3.032c-.007 1.027.739 1.531 1.705 1.503.366-.011.618-.082.756-.128l-.216-1.005a1.6 1.6 0 0 1-.377.05c-.323 0-.582-.114-.582-.633v-2.82h1.076z"/><rect width="26" height="12" x="58" y="49" fill="#8a80db" rx="2"/><rect width="26" height="12" x="34" y="73" fill="#8a80db" rx="2"/><rect width="26" height="12" x="104" y="73" fill="#8a80db" rx="2"/><path stroke="#142533" stroke-opacity=".1" stroke-width=".5" d="M180 102.25H0"/></svg>