<svg xmlns="http://www.w3.org/2000/svg" width="180" height="143" fill="none" viewBox="0 0 180 143"><rect width="180" height="143" fill="#fff" rx="4"/><g filter="url(#a)"><rect width="156" height="17.745" x="12" y="47.497" fill="#fff" rx="2.226"/><rect width="155.444" height="17.189" x="12.278" y="47.775" stroke="#142533" stroke-opacity=".2" stroke-width=".556" rx="1.947"/></g><rect width="24" height="2" x="16.856" y="55.815" fill="#142533" fill-opacity=".2" rx="1"/><rect width="32" height="3" x="12" y="40.397" fill="#142533" fill-opacity=".3" rx="1.5"/><rect width="40" height="3" x="12" y="77.551" fill="#142533" fill-opacity=".3" rx="1.5"/><g filter="url(#b)"><rect width="156" height="17.745" x="12" y="84.651" fill="#fff" rx="2.226"/><rect width="155.444" height="17.189" x="12.278" y="84.93" stroke="#142533" stroke-opacity=".2" stroke-width=".556" rx="1.947"/></g><rect width="24" height="2" x="16.856" y="92.415" fill="#142533" fill-opacity=".2" rx="1"/><rect width="15.782" height="6.655" x="147.361" y="90.197" fill="#8a80db" rx="1.113"/><rect width="15.782" height="6.655" x="129.152" y="90.197" fill="#8a80db" rx="1.113"/><rect width="15.782" height="6.655" x="110.941" y="90.197" fill="#8a80db" rx="1.113"/><rect width="37" height="16" x="131" y="121" fill="#8a80db" rx="2"/><path fill="#fff" d="M136.751 131.333h.78l.876-3.061h.034l.873 3.061h.78l1.232-4.363h-.851l-.786 3.209h-.038l-.842-3.209h-.773l-.84 3.206h-.04l-.786-3.206h-.85zm5.089 0h.771v-3.272h-.771zm.387-3.737c.245 0 .446-.187.446-.417 0-.233-.201-.42-.446-.42-.247 0-.447.187-.447.42 0 .23.2.417.447.417m2.811.465h-.645v-.784h-.772v.784h-.464v.596h.464v1.82c-.004.616.444.918 1.023.901.22-.006.371-.049.454-.077l-.13-.603a1 1 0 0 1-.226.03c-.194 0-.349-.068-.349-.379v-1.692h.645zm1.487 1.355c0-.473.294-.746.707-.746.405 0 .644.258.644.699v1.964h.771v-2.083c0-.791-.447-1.232-1.127-1.232-.503 0-.822.228-.974.599h-.038v-1.647h-.754v4.363h.771zm4.123 1.975c.562 0 .816-.335.937-.573h.047v.515h.759v-4.363h-.774v1.632h-.032c-.117-.237-.358-.584-.935-.584-.756 0-1.351.592-1.351 1.683 0 1.078.578 1.69 1.349 1.69m.215-.633c-.509 0-.778-.447-.778-1.061 0-.609.265-1.046.778-1.046.497 0 .769.411.769 1.046s-.277 1.061-.769 1.061m2.35.575h.771v-1.924c0-.415.313-.709.737-.709.13 0 .292.023.358.045v-.71a2 2 0 0 0-.277-.021.816.816 0 0 0-.807.592h-.034v-.545h-.748zm3.256.066c.513 0 .82-.24.961-.515h.025v.449h.742v-2.19c0-.865-.705-1.125-1.33-1.125-.688 0-1.216.307-1.387.903l.72.103c.077-.224.294-.416.672-.416.358 0 .554.183.554.505v.013c0 .222-.233.232-.81.294-.635.068-1.242.258-1.242.995 0 .643.471.984 1.095.984m.2-.566c-.322 0-.552-.147-.552-.431 0-.296.258-.42.603-.469.203-.027.608-.078.708-.159v.385c0 .365-.294.674-.759.674m2.979.5h.805l.614-2.211h.045l.613 2.211h.804l.926-3.272h-.788l-.567 2.288h-.032l-.588-2.288h-.777l-.588 2.301h-.03l-.576-2.301h-.786z"/><path fill="#000" d="M51.248 23h1.3l1.46-5.103h.056L55.52 23h1.3l2.052-7.273h-1.417l-1.31 5.348h-.064l-1.403-5.348H53.39l-1.399 5.345h-.067l-1.31-5.345h-1.418zm8.48 0h1.286v-5.454H59.73zm.647-6.229c.409 0 .742-.312.742-.696 0-.387-.333-.7-.742-.7-.412 0-.746.313-.746.7 0 .384.334.696.746.696m4.685.774h-1.076V16.24h-1.285v1.306h-.775v.995h.775v3.032c-.008 1.027.738 1.531 1.704 1.503.366-.011.618-.082.756-.128l-.216-1.005c-.071.017-.217.05-.377.05-.323 0-.582-.114-.582-.633v-2.82h1.076zm2.478 2.259c0-.788.49-1.243 1.179-1.243.674 0 1.072.43 1.072 1.165V23h1.286v-3.473c0-1.318-.746-2.053-1.879-2.053-.838 0-1.37.38-1.623.998h-.064v-2.745h-1.257V23h1.286zm6.871 3.292c.938 0 1.36-.558 1.563-.955h.078V23h1.264v-7.273h-1.289v2.72h-.053c-.195-.394-.597-.973-1.56-.973-1.26 0-2.25.988-2.25 2.806 0 1.797.962 2.816 2.247 2.816m.359-1.055c-.849 0-1.296-.745-1.296-1.768 0-1.016.44-1.744 1.296-1.744.827 0 1.282.686 1.282 1.744s-.462 1.768-1.282 1.768m3.916.959h1.285v-3.207c0-.692.523-1.182 1.23-1.182.216 0 .486.039.596.074v-1.182a3 3 0 0 0-.462-.036c-.625 0-1.147.355-1.346.988h-.057v-.91h-1.246zm5.427.11c.856 0 1.367-.401 1.602-.86h.042V23h1.236v-3.65c0-1.442-1.175-1.876-2.216-1.876-1.147 0-2.028.512-2.312 1.506l1.2.17c.128-.372.49-.692 1.12-.692.596 0 .922.306.922.842v.021c0 .37-.387.387-1.349.49-1.058.114-2.07.43-2.07 1.659 0 1.072.784 1.64 1.825 1.64m.334-.944c-.536 0-.92-.245-.92-.718 0-.494.43-.7 1.005-.781.337-.046 1.012-.132 1.179-.266v.642c0 .608-.49 1.123-1.264 1.123m4.964.834h1.343l1.022-3.686h.075L92.872 23h1.338l1.545-5.454h-1.314l-.944 3.813h-.054l-.98-3.814h-1.296l-.98 3.836h-.05l-.959-3.835h-1.31zm11.294.11c.856 0 1.367-.401 1.601-.86h.043V23h1.236v-3.65c0-1.442-1.176-1.876-2.216-1.876-1.147 0-2.028.512-2.312 1.506l1.2.17c.128-.372.49-.692 1.119-.692.597 0 .923.306.923.842v.021c0 .37-.387.387-1.349.49-1.058.114-2.07.43-2.07 1.659 0 1.072.784 1.64 1.825 1.64m.334-.944c-.537 0-.92-.245-.92-.718 0-.494.43-.7 1.005-.781.337-.046 1.012-.132 1.179-.266v.642c0 .608-.49 1.123-1.264 1.123m8.149-3.179c-.177-.923-.916-1.513-2.194-1.513-1.314 0-2.209.647-2.205 1.655-.004.796.486 1.321 1.534 1.538l.93.195c.501.11.735.313.735.622 0 .372-.405.653-1.015.653-.59 0-.973-.256-1.084-.746l-1.253.121c.16 1.002 1.001 1.595 2.34 1.595 1.364 0 2.326-.707 2.33-1.74-.004-.778-.505-1.254-1.534-1.478l-.931-.199c-.554-.124-.774-.316-.77-.632-.004-.37.404-.625.941-.625.593 0 .905.323 1.005.682zm5.489 0c-.178-.923-.916-1.513-2.195-1.513-1.314 0-2.209.647-2.205 1.655-.004.796.486 1.321 1.534 1.538l.93.195c.501.11.735.313.735.622 0 .372-.404.653-1.015.653-.59 0-.973-.256-1.083-.746l-1.254.121c.16 1.002 1.002 1.595 2.34 1.595 1.364 0 2.326-.707 2.33-1.74-.004-.778-.504-1.254-1.534-1.478l-.931-.199c-.554-.124-.774-.316-.77-.632-.004-.37.405-.625.941-.625.593 0 .905.323 1.005.682zm3.592 4.12c1.271 0 2.145-.622 2.372-1.57l-1.2-.135c-.174.462-.601.703-1.155.703-.831 0-1.381-.547-1.392-1.48h3.8v-.395c0-1.914-1.15-2.756-2.493-2.756-1.562 0-2.581 1.147-2.581 2.83 0 1.712 1.005 2.803 2.649 2.803m-1.371-3.35c.039-.695.554-1.281 1.321-1.281.739 0 1.236.54 1.243 1.282zm7.607-2.212h-1.076V16.24h-1.285v1.306h-.774v.995h.774v3.032c-.007 1.027.739 1.531 1.704 1.503a2.6 2.6 0 0 0 .757-.128l-.217-1.005a1.6 1.6 0 0 1-.376.05c-.323 0-.583-.114-.583-.633v-2.82h1.076zm5.308 1.442c-.177-.923-.916-1.513-2.194-1.513-1.314 0-2.209.647-2.205 1.655-.004.796.486 1.321 1.534 1.538l.93.195c.501.11.735.313.735.622 0 .372-.405.653-1.015.653-.59 0-.973-.256-1.084-.746l-1.253.121c.16 1.002 1.001 1.595 2.34 1.595 1.364 0 2.326-.707 2.33-1.74-.004-.778-.505-1.254-1.534-1.478l-.931-.199c-.554-.124-.774-.316-.77-.632-.004-.37.404-.625.941-.625.593 0 .905.323 1.005.682z"/><path stroke="#142533" stroke-opacity=".1" stroke-width=".5" d="M180 115.25H0"/><defs><filter id="a" width="162.677" height="24.422" x="8.661" y="45.828" color-interpolation-filters="sRGB" filterUnits="userSpaceOnUse"><feFlood flood-opacity="0" result="BackgroundImageFix"/><feColorMatrix in="SourceAlpha" values="0 0 0 0 0 0 0 0 0 0 0 0 0 0 0 0 0 0 127 0"/><feOffset dy="1.669"/><feGaussianBlur stdDeviation="1.669"/><feColorMatrix values="0 0 0 0 0 0 0 0 0 0 0 0 0 0 0 0 0 0 0.04 0"/><feBlend in2="BackgroundImageFix" result="effect1_dropShadow"/><feBlend in="SourceGraphic" in2="effect1_dropShadow" result="shape"/></filter><filter id="b" width="162.677" height="24.422" x="8.661" y="82.982" color-interpolation-filters="sRGB" filterUnits="userSpaceOnUse"><feFlood flood-opacity="0" result="BackgroundImageFix"/><feColorMatrix in="SourceAlpha" values="0 0 0 0 0 0 0 0 0 0 0 0 0 0 0 0 0 0 127 0"/><feOffset dy="1.669"/><feGaussianBlur stdDeviation="1.669"/><feColorMatrix values="0 0 0 0 0 0 0 0 0 0 0 0 0 0 0 0 0 0 0.04 0"/><feBlend in2="BackgroundImageFix" result="effect1_dropShadow"/><feBlend in="SourceGraphic" in2="effect1_dropShadow" result="shape"/></filter></defs></svg>