<svg xmlns="http://www.w3.org/2000/svg" width="80" height="92" fill="none" viewBox="0 0 80 92"><path fill="url(#a)" fill-opacity=".3" d="M14 38h52v54H14z"/><g filter="url(#b)"><path fill="#2775ca" d="M14 38c0-14.36 11.64-26 26-26s26 11.64 26 26-11.64 26-26 26-26-11.64-26-26"/><g clip-path="url(#c)"><path fill="#fff" fill-rule="evenodd" d="M37.263 47.515c0 .342-.273.536-.593.434a10.95 10.95 0 0 1-7.617-10.435c0-4.88 3.193-9.02 7.617-10.434.331-.103.593.091.593.433v.856c0 .228-.17.49-.387.57-3.501 1.288-5.999 4.653-5.999 8.575 0 3.935 2.498 7.287 5.999 8.564.216.08.387.342.387.57zm3.65-3.159a.46.46 0 0 1-.457.457h-.912a.46.46 0 0 1-.456-.457V42.92c-1.996-.274-2.965-1.38-3.227-2.908a.42.42 0 0 1 .422-.49h1.037c.217 0 .4.159.445.364.194.901.718 1.597 2.315 1.597 1.175 0 2.018-.662 2.018-1.642 0-.981-.49-1.357-2.223-1.642-2.555-.343-3.764-1.118-3.764-3.114 0-1.54 1.175-2.748 2.977-2.999v-1.414c0-.25.205-.456.456-.456h.912c.251 0 .456.205.456.456v1.448c1.471.263 2.407 1.095 2.714 2.486a.42.42 0 0 1-.421.502h-.958a.45.45 0 0 1-.434-.33c-.262-.879-.89-1.266-1.984-1.266-1.209 0-1.836.581-1.836 1.402 0 .867.354 1.3 2.212 1.563 2.51.342 3.81 1.06 3.81 3.193 0 1.619-1.21 2.93-3.091 3.227v1.46zm1.824 3.16c0 .341.262.535.593.433a10.95 10.95 0 0 0 7.618-10.435c0-4.88-3.193-9.02-7.618-10.411-.32-.103-.593.091-.593.433v.855c0 .229.171.49.388.57 3.5 1.278 5.998 4.63 5.998 8.565 0 3.922-2.509 7.287-5.998 8.564a.59.59 0 0 0-.388.57z" clip-rule="evenodd"/></g></g><defs><linearGradient id="a" x1="40" x2="40" y1="38" y2="92" gradientUnits="userSpaceOnUse"><stop stop-color="#2775ca"/><stop offset="1" stop-color="#2775ca" stop-opacity="0"/></linearGradient><clipPath id="c"><path fill="#fff" d="M29.053 27.053h21.895v21.895H29.053z"/></clipPath><filter id="b" width="80" height="80" x="0" y="0" color-interpolation-filters="sRGB" filterUnits="userSpaceOnUse"><feFlood flood-opacity="0" result="BackgroundImageFix"/><feColorMatrix in="SourceAlpha" values="0 0 0 0 0 0 0 0 0 0 0 0 0 0 0 0 0 0 127 0"/><feOffset dy="2"/><feGaussianBlur stdDeviation="7"/><feColorMatrix values="0 0 0 0 0.152941 0 0 0 0 0.458824 0 0 0 0 0.792157 0 0 0 0.35 0"/><feBlend in2="BackgroundImageFix" result="effect1_dropShadow"/><feBlend in="SourceGraphic" in2="effect1_dropShadow" result="shape"/></filter></defs></svg>