<svg xmlns="http://www.w3.org/2000/svg" width="72" height="86" fill="none" viewBox="0 0 72 86"><path fill="url(#a)" fill-opacity=".3" d="M14 32h44v54H14z"/><g filter="url(#b)"><path fill="#f5ac37" d="M14 34c0-12.15 9.85-22 22-22s22 9.85 22 22-9.85 22-22 22-22-9.85-22-22"/><g clip-path="url(#c)"><path fill="#fff" d="M36.221 34.776h5.385c.114 0 .169 0 .177-.15q.066-.824 0-1.648c0-.106-.053-.15-.169-.15H30.9c-.133 0-.169.044-.169.168v1.576c0 .204 0 .204.213.204zm4.96-3.79a.17.17 0 0 0 0-.124 3.5 3.5 0 0 0-.32-.558 4.5 4.5 0 0 0-.655-.824 2.2 2.2 0 0 0-.408-.398 6.4 6.4 0 0 0-2.657-1.346 6.6 6.6 0 0 0-1.505-.16H30.88c-.132 0-.15.053-.15.168v3.144c0 .133 0 .168.168.168h10.22s.088-.017.106-.07zm0 5.632a2 2 0 0 0-.452 0h-9.821c-.133 0-.178 0-.178.177v3.074c0 .141 0 .177.178.177h4.534q.327.024.646-.044a6.8 6.8 0 0 0 1.922-.425q.339-.118.646-.301h.062a5.75 5.75 0 0 0 2.471-2.488s.062-.134-.008-.169m-12.23 5.021v-4.896c0-.116 0-.133-.142-.133h-1.922c-.106 0-.15 0-.15-.142v-1.683h2.054c.115 0 .16 0 .16-.15V32.97c0-.106 0-.133-.142-.133h-1.922c-.106 0-.15 0-.15-.141v-1.558c0-.098 0-.124.141-.124h1.904c.133 0 .169 0 .169-.169v-4.773c0-.142 0-.177.177-.177h6.642q.723.028 1.435.16c.976.18 1.914.528 2.771 1.026a7.8 7.8 0 0 1 1.559 1.205q.526.547.947 1.178c.279.425.51.88.692 1.355a.23.23 0 0 0 .265.186h1.585c.203 0 .203 0 .212.195v1.453c0 .141-.053.177-.195.177H43.82c-.124 0-.16 0-.15.16a9 9 0 0 1 0 1.62c0 .15 0 .168.168.168h1.399c.062.08 0 .16 0 .24q.014.154 0 .309v1.072c0 .15-.044.195-.178.195h-1.673a.22.22 0 0 0-.257.168 7.1 7.1 0 0 1-1.86 2.71q-.452.407-.948.761c-.355.205-.7.417-1.063.585a9.6 9.6 0 0 1-2.09.664q-1.027.184-2.073.168h-6.146v-.008z"/></g></g><defs><linearGradient id="a" x1="36" x2="36" y1="32" y2="86" gradientUnits="userSpaceOnUse"><stop stop-color="#f5ac37"/><stop offset="1" stop-color="#f5ac37" stop-opacity="0"/></linearGradient><clipPath id="c"><path fill="#fff" d="M26.737 24.737h18.526v18.526H26.737z"/></clipPath><filter id="b" width="72" height="72" x="0" y="0" color-interpolation-filters="sRGB" filterUnits="userSpaceOnUse"><feFlood flood-opacity="0" result="BackgroundImageFix"/><feColorMatrix in="SourceAlpha" values="0 0 0 0 0 0 0 0 0 0 0 0 0 0 0 0 0 0 127 0"/><feOffset dy="2"/><feGaussianBlur stdDeviation="7"/><feColorMatrix values="0 0 0 0 0.960784 0 0 0 0 0.67451 0 0 0 0 0.215686 0 0 0 0.35 0"/><feBlend in2="BackgroundImageFix" result="effect1_dropShadow"/><feBlend in="SourceGraphic" in2="effect1_dropShadow" result="shape"/></filter></defs></svg>