<svg xmlns="http://www.w3.org/2000/svg" width="356" height="203" fill="none" viewBox="0 0 356 203"><g filter="url(#a)"><rect width="356" height="260" fill="#f5f5f5" rx="4"/><path fill="#fff" d="M0 5a4 4 0 0 1 4-4h70v257H4a4 4 0 0 1-4-4z"/><circle cx="12.608" cy="13.974" r="2.225" fill="#142533" fill-opacity=".1"/><circle cx="20.025" cy="13.974" r="2.225" fill="#142533" fill-opacity=".1"/><circle cx="27.442" cy="13.974" r="2.225" fill="#142533" fill-opacity=".1"/><rect width="13.35" height="2.967" x="10.383" y="47.349" fill="#142533" fill-opacity=".3" rx="1.483"/><rect width="74.167" height="3" x="94" y="36.966" fill="#142533" fill-opacity=".3" rx="1.5"/><rect width="30" height="3" x="94" y="44" fill="#142533" fill-opacity=".1" rx="1.5"/><rect width="13.35" height="2.967" x="10.383" y="136.349" fill="#142533" fill-opacity=".3" rx="1.483"/><rect width="44.5" height="2.967" x="10.383" y="59.216" fill="#142533" fill-opacity=".1" rx="1.483"/><rect width="38.567" height="2.967" x="10.383" y="71.083" fill="#142533" fill-opacity=".1" rx="1.483"/><rect width="44.5" height="2.967" x="10.383" y="82.949" fill="#142533" fill-opacity=".1" rx="1.483"/><rect width="38.567" height="2.967" x="10.383" y="94.816" fill="#142533" fill-opacity=".1" rx="1.483"/><rect width="44.5" height="2.967" x="10.383" y="106.682" fill="#8a80db" rx="1.483"/><rect width="31.15" height="2.967" x="26.7" y="148.216" fill="#142533" fill-opacity=".1" rx="1.483"/><rect width="22.25" height="2.967" x="26.7" y="154.149" fill="#142533" fill-opacity=".1" rx="1.483"/><rect width="8.9" height="8.9" x="11.867" y="148.216" fill="#142533" fill-opacity=".1" rx="4"/><rect width="31.15" height="2.967" x="26.7" y="167.499" fill="#142533" fill-opacity=".1" rx="1.483"/><rect width="22.25" height="2.967" x="26.7" y="173.432" fill="#142533" fill-opacity=".1" rx="1.483"/><rect width="8.9" height="8.9" x="11.867" y="167.499" fill="#142533" fill-opacity=".1" rx="4"/><rect width="31.15" height="2.967" x="26.7" y="186.782" fill="#142533" fill-opacity=".1" rx="1.483"/><rect width="22.25" height="2.967" x="26.7" y="192.716" fill="#142533" fill-opacity=".1" rx="1.483"/><rect width="8.9" height="8.9" x="11.867" y="186.783" fill="#142533" fill-opacity=".1" rx="4"/><rect width="32" height="3" x="94" y="152" fill="#142533" fill-opacity=".3" rx="1.5"/><rect width="240" height="72" x="94" y="64" fill="#fff" rx="4"/><rect width="8" height="8" x="106" y="76" fill="#142533" fill-opacity=".3" rx="4"/><rect width="24" height="2.967" x="154" y="78.5" fill="#142533" fill-opacity=".3" rx="1.483"/><rect width="16" height="3" x="117" y="78.5" fill="#142533" fill-opacity=".3" rx="1.5"/><rect width="24" height="3" x="202" y="78.5" fill="#142533" fill-opacity=".3" rx="1.5"/><rect width="24" height="8" x="250.167" y="76" fill="#8a80db" fill-opacity=".2" rx="4"/><path fill="#8a80db" d="M256.217 81.325h1.735V82h.629v-.675h.465v-.541h-.465v-2.42h-.821l-1.543 2.438zm1.742-.541h-1.067v-.029l1.039-1.646h.028zm1.955 1.255a.395.395 0 0 0 .39-.39.394.394 0 0 0-.39-.388.388.388 0 1 0 0 .778m2.251-3.725c-.789-.005-1.312.536-1.312 1.246.001.686.49 1.181 1.127 1.181.392 0 .733-.19.909-.502h.025c-.002.777-.284 1.24-.787 1.24a.57.57 0 0 1-.591-.47h-.648c.075.602.55 1.04 1.239 1.04.872 0 1.428-.727 1.426-1.979-.002-1.325-.691-1.752-1.388-1.756m.001.533c.389 0 .675.323.675.694a.69.69 0 0 1-.682.7c-.387 0-.665-.306-.667-.695 0-.39.289-.7.674-.7m3.923 2.471c.001.423.27.783.769.783.497 0 .77-.36.768-.783v-.192c.002-.426-.264-.783-.768-.783-.492 0-.768.36-.769.783zm-1.849-2.08c.002.422.27.779.771.779.495 0 .769-.354.767-.78v-.191c.002-.427-.265-.784-.767-.784-.49 0-.769.357-.771.784zM264.4 82h.446l2.5-3.636h-.446zm2.152-.874c.002-.188.082-.378.306-.378.234 0 .303.19.301.378v.192c.002.188-.074.375-.301.375-.228 0-.304-.188-.306-.375zm-1.845-2.08c.002-.187.078-.379.304-.379.234 0 .302.19.3.379v.191c.002.188-.073.375-.3.375s-.302-.187-.304-.375z"/><rect width="24" height="3" x="298" y="78.5" fill="#142533" fill-opacity=".3" rx="1.5"/><rect width="8" height="8" x="106" y="96" fill="#142533" fill-opacity=".3" rx="4"/><rect width="24" height="3" x="154" y="98.5" fill="#142533" fill-opacity=".3" rx="1.5"/><rect width="16" height="3" x="117" y="98.5" fill="#142533" fill-opacity=".3" rx="1.5"/><rect width="24" height="3" x="202" y="98.5" fill="#142533" fill-opacity=".3" rx="1.5"/><rect width="24" height="8" x="250.167" y="96" fill="#8a80db" fill-opacity=".2" rx="4"/><path fill="#8a80db" d="M256.217 101.325h1.735V102h.629v-.675h.465v-.541h-.465v-2.42h-.821l-1.543 2.437zm1.742-.541h-1.067v-.029l1.039-1.646h.028zm1.955 1.255a.395.395 0 0 0 .39-.391.394.394 0 0 0-.39-.387.388.388 0 1 0 0 .778m2.251-3.725c-.789-.005-1.312.536-1.312 1.246.001.686.49 1.181 1.127 1.181.392 0 .733-.19.909-.502h.025c-.002.777-.284 1.241-.787 1.241a.57.57 0 0 1-.591-.471h-.648c.075.602.55 1.041 1.239 1.041.872 0 1.428-.728 1.426-1.98-.002-1.325-.691-1.752-1.388-1.756m.001.533c.389 0 .675.323.675.694a.69.69 0 0 1-.682.699c-.387 0-.665-.305-.667-.694 0-.39.289-.7.674-.7m3.923 2.471c.001.423.27.783.769.783.497 0 .77-.36.768-.783v-.192c.002-.426-.264-.783-.768-.783-.492 0-.768.361-.769.783zm-1.849-2.08c.002.422.27.779.771.779.495 0 .769-.354.767-.78v-.191c.002-.427-.265-.784-.767-.784-.49 0-.769.357-.771.784zm.16 2.762h.446l2.5-3.636h-.446zm2.152-.874c.002-.188.082-.378.306-.378.234 0 .303.19.301.378v.192c.002.188-.074.375-.301.375-.228 0-.304-.188-.306-.375zm-1.845-2.08c.002-.187.078-.379.304-.379.234 0 .302.19.3.379v.191c.002.188-.073.375-.3.375s-.302-.187-.304-.375z"/><rect width="24" height="3" x="298" y="98.5" fill="#142533" fill-opacity=".3" rx="1.5"/><rect width="8" height="8" x="106" y="116" fill="#142533" fill-opacity=".3" rx="4"/><rect width="24" height="3" x="154" y="118.5" fill="#142533" fill-opacity=".3" rx="1.5"/><rect width="16" height="3" x="117" y="118.5" fill="#142533" fill-opacity=".3" rx="1.5"/><rect width="24" height="3" x="202" y="118.5" fill="#142533" fill-opacity=".3" rx="1.5"/><rect width="24" height="8" x="250.167" y="116" fill="#8a80db" fill-opacity=".2" rx="4"/><path fill="#8a80db" d="M256.217 121.325h1.735V122h.629v-.675h.465v-.541h-.465v-2.42h-.821l-1.543 2.437zm1.742-.541h-1.067v-.029l1.039-1.646h.028zm1.955 1.255a.395.395 0 0 0 .39-.391.394.394 0 0 0-.39-.387.388.388 0 1 0 0 .778m2.251-3.725c-.789-.005-1.312.536-1.312 1.246.001.686.49 1.181 1.127 1.181.392 0 .733-.19.909-.502h.025c-.002.777-.284 1.241-.787 1.241a.57.57 0 0 1-.591-.471h-.648c.075.602.55 1.041 1.239 1.041.872 0 1.428-.728 1.426-1.98-.002-1.325-.691-1.753-1.388-1.756m.001.533c.389 0 .675.323.675.694a.69.69 0 0 1-.682.699c-.387 0-.665-.305-.667-.694 0-.39.289-.699.674-.699m3.923 2.471c.001.423.27.783.769.783.497 0 .77-.36.768-.783v-.192c.002-.426-.264-.783-.768-.783-.492 0-.768.361-.769.783zm-1.849-2.081c.002.423.27.78.771.78.495 0 .769-.354.767-.78v-.192c.002-.426-.265-.783-.767-.783-.49 0-.769.357-.771.783zm.16 2.763h.446l2.5-3.636h-.446zm2.152-.874c.002-.188.082-.378.306-.378.234 0 .303.19.301.378v.192c.002.188-.074.375-.301.375-.228 0-.304-.188-.306-.375zm-1.845-2.081c.002-.186.078-.378.304-.378.234 0 .302.19.3.378v.192c.002.188-.073.375-.3.375s-.302-.187-.304-.375z"/><rect width="24" height="3" x="298" y="118.5" fill="#142533" fill-opacity=".3" rx="1.5"/><rect width="240" height="37" x="94" y="167" fill="#fff" rx="4"/><rect width="32" height="12" x="290" y="180" fill="#8a80db" rx="2"/><path fill="#fff" d="M294.642 188h2.261v-.552h-1.602v-3.084h-.659zm4.011.053c.636 0 1.073-.31 1.186-.785l-.6-.067c-.087.231-.3.352-.577.352-.415 0-.69-.274-.696-.741h1.9v-.197c0-.957-.575-1.378-1.246-1.378-.782 0-1.291.574-1.291 1.415 0 .856.502 1.401 1.324 1.401m-.685-1.674c.02-.348.277-.641.661-.641.369 0 .617.27.621.641zm3.085.023c0-.394.238-.621.577-.621.332 0 .531.218.531.582V188h.642v-1.737c.002-.653-.371-1.026-.934-1.026-.408 0-.689.196-.813.499h-.032v-.463h-.614V188h.643zm3.416 1.646c.469 0 .68-.279.781-.478h.039v.43h.632v-3.636h-.644v1.36h-.027c-.098-.197-.298-.487-.779-.487-.631 0-1.126.494-1.126 1.403 0 .898.481 1.408 1.124 1.408m.179-.527c-.424 0-.648-.373-.648-.885 0-.507.22-.871.648-.871.414 0 .641.342.641.871s-.231.885-.641.885m3.841-1.119c0-.394.238-.621.577-.621.332 0 .531.218.531.582V188h.643v-1.737c.002-.653-.371-1.026-.934-1.026-.408 0-.689.196-.813.499h-.032v-.463h-.615V188h.643zm3.594 1.651c.799 0 1.307-.563 1.307-1.406 0-.845-.508-1.41-1.307-1.41s-1.307.565-1.307 1.41c0 .843.508 1.406 1.307 1.406m.003-.515c-.442 0-.658-.394-.658-.893s.216-.898.658-.898c.435 0 .652.399.652.898s-.217.893-.652.893m2.339.462h.671l.511-1.843h.038l.511 1.843h.669l.773-2.727h-.657l-.472 1.907h-.027l-.49-1.907h-.648l-.49 1.917h-.025l-.48-1.917h-.655z"/><rect width="104" height="3" x="106" y="179" fill="#142533" fill-opacity=".2" rx="1.5"/><rect width="72" height="3" x="106" y="189" fill="#142533" fill-opacity=".1" rx="1.5"/><rect width="355" height="259" x=".5" y=".5" stroke="#142533" stroke-opacity=".1" rx="3.5"/></g><defs><filter id="a" width="366.1" height="270.1" x="-5.05" y="-2.525" color-interpolation-filters="sRGB" filterUnits="userSpaceOnUse"><feFlood flood-opacity="0" result="BackgroundImageFix"/><feColorMatrix in="SourceAlpha" values="0 0 0 0 0 0 0 0 0 0 0 0 0 0 0 0 0 0 127 0"/><feOffset dy="2.525"/><feGaussianBlur stdDeviation="2.525"/><feColorMatrix values="0 0 0 0 0 0 0 0 0 0 0 0 0 0 0 0 0 0 0.04 0"/><feBlend in2="BackgroundImageFix" result="effect1_dropShadow"/><feBlend in="SourceGraphic" in2="effect1_dropShadow" result="shape"/></filter></defs></svg>