<svg xmlns="http://www.w3.org/2000/svg" width="180" height="143" fill="none" viewBox="0 0 180 143"><rect width="180" height="143" fill="#fff" rx="4"/><g filter="url(#a)"><rect width="156" height="17.745" x="12" y="47.497" fill="#fff" rx="2.226"/><rect width="155.444" height="17.189" x="12.278" y="47.775" stroke="#142533" stroke-opacity=".2" stroke-width=".556" rx="1.947"/></g><rect width="24" height="2" x="16.856" y="55.815" fill="#142533" fill-opacity=".2" rx="1"/><rect width="32" height="3" x="12" y="40.397" fill="#142533" fill-opacity=".3" rx="1.5"/><rect width="40" height="3" x="12" y="77.551" fill="#142533" fill-opacity=".3" rx="1.5"/><g filter="url(#b)"><rect width="156" height="17.745" x="12" y="84.651" fill="#fff" rx="2.226"/><rect width="155.444" height="17.189" x="12.278" y="84.93" stroke="#142533" stroke-opacity=".2" stroke-width=".556" rx="1.947"/></g><rect width="24" height="2" x="16.856" y="92.415" fill="#142533" fill-opacity=".2" rx="1"/><rect width="15.782" height="6.655" x="147.361" y="90.197" fill="#8a80db" rx="1.113"/><rect width="15.782" height="6.655" x="129.152" y="90.197" fill="#8a80db" rx="1.113"/><rect width="15.782" height="6.655" x="110.941" y="90.197" fill="#8a80db" rx="1.113"/><rect width="32" height="16" x="136" y="121" fill="#8a80db" rx="2"/><path fill="#fff" d="M144.765 127.836h.76c-.015-.737-.643-1.259-1.572-1.259-.916 0-1.604.515-1.602 1.287 0 .626.445.986 1.163 1.172l.496.127c.471.12.782.267.785.605-.003.373-.356.623-.872.623-.494 0-.878-.222-.91-.68h-.777c.032.867.677 1.355 1.694 1.355 1.046 0 1.653-.522 1.655-1.291-.002-.757-.626-1.102-1.283-1.257l-.409-.103c-.358-.085-.745-.236-.741-.6.002-.328.296-.569.79-.569.471 0 .782.219.823.59m3.577 1.788c0 .498-.356.745-.697.745-.371 0-.618-.262-.618-.677v-1.965h-.771v2.084c0 .786.447 1.232 1.091 1.232.49 0 .835-.258.984-.625h.034V131h.748v-3.273h-.771zm1.564 2.603h.771v-1.743h.032c.122.239.375.574.938.574.771 0 1.349-.612 1.349-1.69 0-1.091-.595-1.683-1.351-1.683-.578 0-.818.347-.936.583h-.044v-.541h-.759zm.756-2.863c0-.635.273-1.047.77-1.047.513 0 .777.437.777 1.047 0 .613-.268 1.061-.777 1.061-.493 0-.77-.426-.77-1.061m2.994 2.863h.771v-1.743h.032c.122.239.375.574.938.574.771 0 1.349-.612 1.349-1.69 0-1.091-.595-1.683-1.351-1.683-.578 0-.818.347-.936.583h-.044v-.541h-.759zm.756-2.863c0-.635.273-1.047.77-1.047.513 0 .777.437.777 1.047 0 .613-.268 1.061-.777 1.061-.493 0-.77-.426-.77-1.061m3.765-2.728h-.771V131h.771zm1.273 5.591c.601 0 .948-.309 1.133-.831l1.315-3.664-.824-.005-.757 2.472h-.034l-.754-2.472h-.818l1.186 3.341-.066.177c-.142.373-.368.398-.705.3l-.179.601c.104.043.292.081.503.081"/><path fill="#000" d="M60.67 17.727h1.267c-.024-1.23-1.072-2.1-2.62-2.1-1.527 0-2.674.86-2.67 2.146 0 1.044.742 1.644 1.938 1.953l.828.213c.784.199 1.303.444 1.306 1.008-.003.622-.593 1.037-1.452 1.037-.824 0-1.463-.369-1.516-1.132h-1.296c.053 1.445 1.129 2.258 2.823 2.258 1.743 0 2.755-.87 2.759-2.152-.004-1.26-1.044-1.836-2.138-2.095l-.682-.17c-.596-.143-1.243-.395-1.236-1.002.004-.547.494-.948 1.318-.948.785 0 1.303.366 1.37.984m5.961 2.979c0 .83-.593 1.243-1.161 1.243-.618 0-1.03-.437-1.03-1.13v-3.273h-1.285v3.473c0 1.31.745 2.052 1.818 2.052.817 0 1.392-.43 1.64-1.04h.057V23h1.247v-5.454H66.63zm2.608 4.34h1.285V22.14h.053c.203.397.625.955 1.563.955 1.285 0 2.248-1.02 2.248-2.816 0-1.818-.991-2.806-2.252-2.806-.962 0-1.363.58-1.559.973h-.074v-.901h-1.264zm1.26-4.773c0-1.058.455-1.744 1.282-1.744.856 0 1.296.728 1.296 1.744 0 1.023-.447 1.768-1.296 1.768-.82 0-1.282-.71-1.282-1.768m4.99 4.773h1.285V22.14h.053c.203.397.625.955 1.563.955 1.285 0 2.248-1.02 2.248-2.816 0-1.818-.991-2.806-2.252-2.806-.962 0-1.363.58-1.559.973h-.074v-.901h-1.264zm1.26-4.773c0-1.058.455-1.744 1.282-1.744.856 0 1.296.728 1.296 1.744 0 1.023-.447 1.768-1.296 1.768-.82 0-1.282-.71-1.282-1.768m6.275-4.546H81.74V23h1.285zm2.121 9.319c1.002 0 1.58-.515 1.89-1.386l2.19-6.107-1.374-.008-1.26 4.12h-.057l-1.258-4.12h-1.363l1.978 5.569-.11.294c-.238.622-.615.664-1.176.501l-.298 1.002c.174.07.486.134.838.134m9.023-1.936c.855 0 1.367-.401 1.601-.86h.043V23h1.236v-3.65c0-1.442-1.176-1.876-2.216-1.876-1.147 0-2.028.512-2.312 1.506l1.2.17c.128-.372.49-.692 1.119-.692.596 0 .923.306.923.842v.021c0 .37-.387.387-1.35.49-1.058.114-2.07.43-2.07 1.659 0 1.072.785 1.64 1.826 1.64m.333-.944c-.536 0-.92-.245-.92-.718 0-.494.43-.7 1.006-.781.337-.046 1.012-.132 1.179-.266v.642c0 .608-.49 1.123-1.265 1.123m8.15-3.179c-.177-.923-.916-1.513-2.194-1.513-1.314 0-2.21.647-2.206 1.655-.003.796.487 1.321 1.534 1.538l.931.195c.501.11.735.313.735.622 0 .372-.405.653-1.016.653-.59 0-.973-.256-1.083-.746l-1.253.121c.16 1.002 1.001 1.595 2.34 1.595 1.364 0 2.326-.707 2.329-1.74-.003-.778-.504-1.254-1.534-1.478l-.93-.199c-.554-.124-.774-.316-.77-.632-.004-.37.404-.625.94-.625.593 0 .906.323 1.005.682zm5.489 0c-.178-.923-.917-1.513-2.195-1.513-1.314 0-2.209.647-2.205 1.655-.004.796.486 1.321 1.534 1.538l.93.195c.501.11.735.313.735.622 0 .372-.405.653-1.015.653-.59 0-.973-.256-1.083-.746l-1.254.121c.16 1.002 1.001 1.595 2.34 1.595 1.364 0 2.326-.707 2.33-1.74-.004-.778-.505-1.254-1.534-1.478l-.931-.199c-.554-.124-.774-.316-.77-.632-.004-.37.404-.625.941-.625.593 0 .905.323 1.005.682zm3.592 4.12c1.271 0 2.144-.622 2.372-1.57l-1.201-.135c-.174.462-.6.703-1.154.703-.831 0-1.381-.547-1.392-1.48h3.8v-.395c0-1.914-1.151-2.756-2.493-2.756-1.562 0-2.582 1.147-2.582 2.83 0 1.712 1.005 2.803 2.65 2.803m-1.371-3.35c.039-.695.554-1.281 1.321-1.281.738 0 1.236.54 1.243 1.282zm7.607-2.212h-1.076V16.24h-1.285v1.306h-.774v.995h.774v3.032c-.007 1.027.738 1.531 1.704 1.503a2.6 2.6 0 0 0 .757-.128l-.217-1.005c-.071.017-.217.05-.376.05-.324 0-.583-.114-.583-.633v-2.82h1.076zm5.308 1.442c-.177-.923-.916-1.513-2.194-1.513-1.314 0-2.209.647-2.206 1.655-.003.796.487 1.321 1.535 1.538l.93.195c.501.11.735.313.735.622 0 .372-.405.653-1.016.653-.589 0-.973-.256-1.083-.746l-1.253.121c.16 1.002 1.001 1.595 2.34 1.595 1.364 0 2.326-.707 2.329-1.74-.003-.778-.504-1.254-1.534-1.478l-.93-.199c-.554-.124-.774-.316-.771-.632-.003-.37.405-.625.941-.625.593 0 .906.323 1.005.682z"/><path stroke="#142533" stroke-opacity=".1" stroke-width=".5" d="M180 115.25H0"/><defs><filter id="a" width="162.677" height="24.422" x="8.661" y="45.828" color-interpolation-filters="sRGB" filterUnits="userSpaceOnUse"><feFlood flood-opacity="0" result="BackgroundImageFix"/><feColorMatrix in="SourceAlpha" values="0 0 0 0 0 0 0 0 0 0 0 0 0 0 0 0 0 0 127 0"/><feOffset dy="1.669"/><feGaussianBlur stdDeviation="1.669"/><feColorMatrix values="0 0 0 0 0 0 0 0 0 0 0 0 0 0 0 0 0 0 0.04 0"/><feBlend in2="BackgroundImageFix" result="effect1_dropShadow"/><feBlend in="SourceGraphic" in2="effect1_dropShadow" result="shape"/></filter><filter id="b" width="162.677" height="24.422" x="8.661" y="82.982" color-interpolation-filters="sRGB" filterUnits="userSpaceOnUse"><feFlood flood-opacity="0" result="BackgroundImageFix"/><feColorMatrix in="SourceAlpha" values="0 0 0 0 0 0 0 0 0 0 0 0 0 0 0 0 0 0 127 0"/><feOffset dy="1.669"/><feGaussianBlur stdDeviation="1.669"/><feColorMatrix values="0 0 0 0 0 0 0 0 0 0 0 0 0 0 0 0 0 0 0.04 0"/><feBlend in2="BackgroundImageFix" result="effect1_dropShadow"/><feBlend in="SourceGraphic" in2="effect1_dropShadow" result="shape"/></filter></defs></svg>