<svg xmlns="http://www.w3.org/2000/svg" width="43" height="67" fill="none" viewBox="0 0 43 67"><path fill="url(#a)" fill-opacity=".3" d="M0 21.5h43v44.654H0z"/><path fill="#00a478" d="M0 21.5C0 9.626 9.626 0 21.5 0S43 9.626 43 21.5 33.374 43 21.5 43 0 33.374 0 21.5"/><path fill="#fff" d="M23.017 17.472V15.48h5.227v-3.033H14.756v3.033h5.228v1.991c-3.95.148-7.537.878-7.537 2.14 0 1.26 3.588 1.99 7.537 2.144v8.798h3.032v-8.798c3.961-.153 7.537-.877 7.537-2.145 0-1.267-3.587-1.991-7.536-2.139m.367 3.802H23c-.504 0-1.008.034-1.517.034h-1.516l-.832-.04h-.21c-3.767-.289-6.02-1.064-6.02-1.658s2.66-1.51 7.079-1.697v2.325c.486 0 .984.034 1.516.034h1.517v-2.336c4.418.164 7.078 1.035 7.078 1.697s-2.518 1.443-6.71 1.64"/><defs><linearGradient id="a" x1="21.5" x2="21.5" y1="21.5" y2="66.154" gradientUnits="userSpaceOnUse"><stop stop-color="#00a478"/><stop offset="1" stop-color="#00a478" stop-opacity="0"/></linearGradient></defs></svg>