<svg xmlns="http://www.w3.org/2000/svg" xmlns:xlink="http://www.w3.org/1999/xlink" width="400" height="90"><defs><filter id="b" width="105%" height="263.6%" x="-2.5%" y="-63.6%" filterUnits="objectBoundingBox"><feMorphology in="SourceAlpha" operator="dilate" radius=".5" result="shadowSpreadOuter1"/><feOffset dy="2" in="shadowSpreadOuter1" result="shadowOffsetOuter1"/><feGaussianBlur in="shadowOffsetOuter1" result="shadowBlurOuter1" stdDeviation="2.5"/><feComposite in="shadowBlurOuter1" in2="SourceAlpha" operator="out" result="shadowBlurOuter1"/><feColorMatrix in="shadowBlurOuter1" values="0 0 0 0 0 0 0 0 0 0 0 0 0 0 0 0 0 0 0.03 0"/></filter><filter id="e" width="104.8%" height="263.6%" x="-2.4%" y="-63.6%" filterUnits="objectBoundingBox"><feMorphology in="SourceAlpha" operator="dilate" radius=".5" result="shadowSpreadOuter1"/><feOffset dy="2" in="shadowSpreadOuter1" result="shadowOffsetOuter1"/><feGaussianBlur in="shadowOffsetOuter1" result="shadowBlurOuter1" stdDeviation="2.5"/><feComposite in="shadowBlurOuter1" in2="SourceAlpha" operator="out" result="shadowBlurOuter1"/><feColorMatrix in="shadowBlurOuter1" values="0 0 0 0 0 0 0 0 0 0 0 0 0 0 0 0 0 0 0.03 0"/></filter><filter id="g" width="104.6%" height="131%" x="-2.3%" y="-12.1%" filterUnits="objectBoundingBox"><feMorphology in="SourceAlpha" operator="dilate" radius=".5" result="shadowSpreadOuter1"/><feOffset dy="2" in="shadowSpreadOuter1" result="shadowOffsetOuter1"/><feGaussianBlur in="shadowOffsetOuter1" result="shadowBlurOuter1" stdDeviation="2.5"/><feComposite in="shadowBlurOuter1" in2="SourceAlpha" operator="out" result="shadowBlurOuter1"/><feColorMatrix in="shadowBlurOuter1" values="0 0 0 0 0 0 0 0 0 0 0 0 0 0 0 0 0 0 0.03 0"/></filter><path id="a" d="M15 67h358v7a4 4 0 0 1-4 4H19a4 4 0 0 1-4-4z"/><path id="c" d="M7 57h373v7a4 4 0 0 1-4 4H11a4 4 0 0 1-4-4z"/><rect id="f" width="388" height="58" x="0" y="0" rx="4"/></defs><g fill="none" fill-rule="evenodd"><g stroke-linecap="round" opacity=".3" transform="translate(6 4)"><use xlink:href="#a" fill="#000" filter="url(#b)"/><use xlink:href="#a" fill="#fff" stroke="#eee"/></g><g stroke-linecap="round" opacity=".6" transform="translate(6 4)"><use xlink:href="#c" fill="#000" filter="url(#e)"/><use xlink:href="#c" fill="#fff" stroke="#eee"/></g><g stroke-linecap="round" transform="translate(6 4)"><use xlink:href="#f" fill="#000" filter="url(#g)"/><use xlink:href="#f" fill="#fff" stroke="#eee"/></g><path fill="#000" d="M89.787 36a2 2 0 1 1 0 4H61a2 2 0 1 1 0-4zm291.085 0a2 2 0 0 1 0 4h-27.9a2 2 0 0 1 0-4zM273 31a2 2 0 0 1 0 4h-96a2 2 0 0 1 0-4zm-152.564-5a2 2 0 1 1 0 4H61a2 2 0 1 1 0-4zm260.436 0a2 2 0 0 1 0 4H344.81a2 2 0 0 1 0-4z" opacity=".16"/><g fill="#66be54" transform="translate(23 21)"><rect width="24" height="24" opacity=".2" rx="12"/><path fill-rule="nonzero" d="M16.188 16.313c.276 0 .5.251.5.562s-.224.563-.5.563h-8c-.277 0-.5-.252-.5-.563s.223-.562.5-.562zM12 6.374c.31 0 .563.233.563.52v6.934l2.04-2.04a.563.563 0 0 1 .795.796l-2.928 2.93a.56.56 0 0 1-.313.214l-.11.019-.047.002a.57.57 0 0 1-.47-.235l-2.928-2.93a.563.563 0 0 1 .796-.795l2.04 2.04V6.896c0-.288.251-.521.562-.521"/></g></g></svg>