<svg xmlns="http://www.w3.org/2000/svg" width="51" height="252" fill="none" viewBox="0 0 51 252"><mask id="a" fill="#fff"><path fill-rule="evenodd" d="M27.693 134.578c-2.342-1.545-4.45-3.939-6.012-6.642-1.695-2.937-2.744-6.238-2.744-9.21q0-.803.101-1.519a15 15 0 0 0-1.557-1.035c-2.895-1.671-5.655-1.919-7.772-.696-2.1 1.212-3.257 3.696-3.257 6.993 0 6.476 4.591 14.395 10.233 17.652 2.894 1.672 5.654 1.919 7.772.697 1.937-1.118 3.071-3.318 3.236-6.24" clip-rule="evenodd"/></mask><path fill="#000" fill-rule="evenodd" d="M27.693 134.578c-2.342-1.545-4.45-3.939-6.012-6.642-1.695-2.937-2.744-6.238-2.744-9.21q0-.803.101-1.519a15 15 0 0 0-1.557-1.035c-2.895-1.671-5.655-1.919-7.772-.696-2.1 1.212-3.257 3.696-3.257 6.993 0 6.476 4.591 14.395 10.233 17.652 2.894 1.672 5.654 1.919 7.772.697 1.937-1.118 3.071-3.318 3.236-6.24" clip-rule="evenodd"/><path fill="#000" d="m21.682 127.936-1.294.747zm6.011 6.642 1.491.084.049-.858-.718-.473zm-8.756-15.852h1.494zm.101-1.519 1.48.208.122-.872-.703-.529zm-1.557-1.035.747-1.294zm-7.772-.696-.747-1.294zm-3.257 6.993H4.958zm10.233 17.652.747-1.294zm7.772.697.746 1.294zm-4.07-12.135c1.652 2.86 3.91 5.444 6.484 7.142l1.644-2.494c-2.11-1.392-4.07-3.596-5.54-6.142zm-2.944-9.957c0 3.297 1.154 6.855 2.945 9.957l2.587-1.494c-1.6-2.771-2.544-5.817-2.544-8.463zm.116-1.728q-.116.83-.116 1.728h2.988q0-.708.087-1.311zm2.378-.984a17 17 0 0 0-1.709-1.136l-1.494 2.588q.71.41 1.406.934zm-1.71-1.136c-3.165-1.827-6.522-2.28-9.265-.696l1.494 2.587c1.49-.86 3.654-.818 6.279.697zm-9.265-.696c-2.724 1.572-4.004 4.673-4.004 8.287h2.988c0-2.98 1.033-4.847 2.51-5.7zm-4.004 8.287c0 3.565 1.254 7.42 3.203 10.782s4.676 6.374 7.777 8.164l1.493-2.588c-2.54-1.467-4.93-4.044-6.686-7.074s-2.799-6.372-2.8-9.284zm10.98 18.946c3.165 1.827 6.522 2.28 9.265.697l-1.493-2.587c-1.491.86-3.654.818-6.278-.698zm9.265.697c2.509-1.448 3.798-4.203 3.981-7.45l-2.982-.169c-.147 2.598-1.126 4.243-2.492 5.032z" mask="url(#a)"/><path stroke="#000" stroke-width="1.494" d="M17.059 139.474c2.76 1.593 5.22 1.738 7.025.697zm0 0c-2.681-1.548-5.154-4.233-6.959-7.346s-2.9-6.584-2.9-9.659c0-3.139 1.095-5.314 2.883-6.347 1.804-1.041 4.265-.896 7.026.697 2.692 1.554 5.174 4.255 6.98 7.383 1.793 3.105 2.879 6.559 2.879 9.622m-9.91 5.65 9.91-5.65m0 0c0 3.139-1.096 5.315-2.884 6.347z"/><path fill="#fff" d="M14.308 172.222v-1.262l-4.745-2.745-.007 8.661 1.053.609.005-7.4zm10.911 13.713 1.052.608.006-8.661-4.745-2.745-.001 1.262 3.693 2.136zm-.033 42.587-.005 7.399-3.694-2.136v1.262l4.745 2.745.007-8.661zm-4.224-25.317c.423-.275.65-.862.651-1.567 0-.742-.247-1.566-.783-2.223v-.173l.681.394.001-1.138-3.724-2.154-.003 3.353.95.549.001-2.166.495.286c1.042.603 1.382 1.258 1.382 2.408v.273c-.001 1.151-.311 1.528-1.745.699l-1.94-1.122c-1.445-.835-1.743-1.59-1.743-2.741v-.247c.001-1.126.352-1.282 1.322-.733l.001-1.361c-1.423-.7-2.322-.081-2.323 1.627 0 .829.215 1.647.628 2.405.608 1.132 1.64 2.161 3.084 2.997 1.392.805 2.425 1.031 3.065.634m-6.696 17.731-.001 1.262 7.222 4.177.004-5.692-.949-.549-.003 4.43zm-3.696 6.537.006-7.399-1.052-.609-.006 8.662 4.746 2.744v-1.262zm10.927-14.029-.95-.549-.003 4.368-2.207-1.277.003-3.811-.95-.549-.003 3.811-2.166-1.253.003-4.183-.95-.548-.003 5.444 7.222 4.177zm.018-22.273-.95-.549-.003 4.368-2.208-1.277.003-3.811-.95-.549-.002 3.811-2.167-1.253.004-4.182-.95-.549-.004 5.444 7.222 4.177zm-.015 17.967c.002-2.363-1.493-4.107-3.608-5.33-2.146-1.241-3.612-1.148-3.613 1.178l-.003 2.673 7.222 4.176zm-6.274-2.168.001-1.349c.001-1.275.27-1.813 1.715-.977l1.898 1.098c1.444.835 1.712 1.683 1.711 2.958l-.001 1.349zm6.291-18.705-2.878-1.665.001-1.856c0-.953.331-1.146 1.157-.668l1.723.996v-1.262l-1.557-.901c-1.135-.656-1.569-.585-1.693.333l-.145-.083c-.195-1.017-.896-2.054-1.732-2.537-.526-.304-1-.331-1.383-.082-.475.319-.713.974-.714 2.001l-.002 2.784 7.222 4.177zm-6.273-3.628.002-1.98c0-.965.27-1.157 1.002-.733l.433.251c.753.435 1.01.919 1.01 1.896l-.002 1.98z"/><path fill="#fff" fill-rule="evenodd" d="M33.888 31.935c0-4.519-2.374-8.706-6.253-11.025l-16.647-9.956a5.98 5.98 0 0 0-5.471-.341l-2.019.887A8.3 8.3 0 0 1 6.03 9.05l11.86-7.355a6.8 6.8 0 0 1 6.986-.11l18.948 10.94a11 11 0 0 1 5.5 9.582l-.49 96.721c1.253 3.846 1.963 7.773 1.963 11.42v110.424l-16.263 10.196v.133L.872 231.566V121.123c-.001-2.484.318-4.743.92-6.711l-.096-.041.113-97.7c.005-3.857 4.19-6.257 7.521-4.312l15.558 9.082a14.94 14.94 0 0 1 7.407 12.9l.003 93.005-.017-.007a41.4 41.4 0 0 1 1.607 5.977zM2.466 121.123v109.524l25.587 14.773.01-.017 4.877 2.818V139.638c0-11.535-7.014-24.969-15.636-29.946-3.598-2.077-7.04-2.378-9.695-.846-3.269 1.887-5.144 6.362-5.143 12.277M49.205 239.79l-.001-109.542c0-1.579-.143-3.216-.403-4.874l-.055 10.801a8.96 8.96 0 0 1-4.481 7.716l-9.732 5.619v99.478zm-6.16-203.193a.15.15 0 0 0-.241-.118l-2.228 1.732a1.35 1.35 0 0 0-.519 1.062v14.571a.15.15 0 0 0 .241.118l2.228-1.732c.327-.255.519-.646.519-1.061zM41.887 35.3c1.08-.84 2.652-.07 2.652 1.297v14.572c0 .876-.405 1.702-1.096 2.24l-2.227 1.733c-1.08.839-2.652.07-2.652-1.298v-14.57c0-.876.404-1.703 1.095-2.24zm1.158 43.122a.15.15 0 0 0-.241-.118l-2.228 1.733a1.35 1.35 0 0 0-.519 1.061V95.67a.15.15 0 0 0 .241.118l2.228-1.733c.327-.254.519-.646.519-1.06zm-1.158-1.297c1.08-.84 2.652-.07 2.652 1.297v14.572c0 .876-.405 1.703-1.096 2.24l-2.227 1.733c-1.08.84-2.652.07-2.652-1.297V81.098c0-.876.404-1.703 1.095-2.24z" clip-rule="evenodd"/></svg>