<svg xmlns="http://www.w3.org/2000/svg" width="55" height="252" fill="none" viewBox="0 0 55 252"><path fill="#fff" d="M29.348 135.746c0-3.193-1.127-6.74-2.95-9.896-1.835-3.18-4.377-5.962-7.181-7.581-2.867-1.654-5.6-1.9-7.696-.69-2.079 1.201-3.224 3.66-3.224 6.925 0 6.412 4.545 14.252 10.13 17.477 2.867 1.655 5.6 1.9 7.696.69 2.079-1.2 3.224-3.66 3.225-6.925m-10.131 4.868c-2.587-1.493-4.932-4.059-6.625-6.992-1.679-2.907-2.718-6.176-2.717-9.118 0-2.678.864-4.651 2.435-5.558 1.588-.917 3.76-.672 6.117.69 5.151 2.973 9.344 10.2 9.343 16.11 0 2.678-.865 4.652-2.436 5.559-1.587.916-3.76.671-6.117-.691m9.169-92.283c0-5.908-4.19-13.135-9.342-16.11-2.357-1.362-4.53-1.607-6.117-.691-1.571.907-2.436 2.88-2.436 5.558 0 2.942 1.039 6.212 2.718 9.12 1.693 2.932 4.037 5.498 6.624 6.991 2.358 1.362 4.53 1.607 6.118.69 1.57-.907 2.435-2.88 2.435-5.558"/><path fill="#fff" d="M35.461 28.109v107.134a41 41 0 0 0-1.59-5.917l.016.007-.003-100.574L3.71 11.144l-.12 105.342.094.04c-.596 1.949-.911 4.186-.91 6.645V232.52L36.1 251.762v-.132l16.103-10.095v-109.33c0-3.61-.704-7.498-1.945-11.306l.517-102.087L19.025.482 3.49 9.193l31.972 18.46zm-16.42 26.458C13.456 51.34 8.91 43.502 8.911 37.089c0-3.264 1.145-5.723 3.224-6.924 2.095-1.21 4.829-.965 7.696.69 2.803 1.619 5.345 4.401 7.181 7.581 1.822 3.156 2.95 6.703 2.95 9.896 0 3.265-1.146 5.724-3.225 6.925-2.096 1.21-4.829.965-7.696-.69M4.35 231.609V123.171c0-5.856 1.856-10.286 5.093-12.155 2.627-1.517 6.036-1.219 9.599.838 8.535 4.927 15.48 18.227 15.48 29.649v107.506l-4.829-2.79-.01.017zm46.275-99.403v108.456L36.1 249.768v-98.491l14.046-8.11.08-15.787c.257 1.642.399 3.262.399 4.826"/><path fill="#fff" d="M16.075 173.763v-1.249l-4.698-2.718-.007 8.575 1.042.603.006-7.326zm10.802 13.578 1.042.602.006-8.575-4.698-2.718-.001 1.25 3.657 2.115zm-.032 42.165-.006 7.326-3.656-2.115-.001 1.249 4.699 2.718.006-8.576zm-4.182-25.067c.42-.272.644-.853.645-1.551 0-.735-.244-1.551-.775-2.201v-.171l.674.39.001-1.127-3.687-2.133-.003 3.32.94.544.002-2.145.49.284c1.031.597 1.368 1.245 1.367 2.384v.27c0 1.139-.308 1.513-1.727.692l-1.92-1.111c-1.43-.827-1.727-1.574-1.726-2.713v-.245c.001-1.115.349-1.269 1.309-.726v-1.348c-1.409-.693-2.298-.079-2.3 1.611 0 .821.214 1.631.622 2.382.602 1.12 1.623 2.14 3.053 2.967 1.38.797 2.401 1.02 3.035.627m-6.625 17.556-.001 1.249 7.15 4.136.005-5.636-.94-.543-.003 4.386zm-3.663 6.473.005-7.326-1.041-.603-.007 8.576 4.699 2.717v-1.249zm10.823-13.891-.94-.544-.003 4.325-2.186-1.264.003-3.774-.94-.543-.002 3.773-2.146-1.241.004-4.14-.94-.544-.004 5.391 7.15 4.135zm.017-22.051-.94-.544-.003 4.325-2.186-1.265.003-3.773-.94-.543-.003 3.773-2.145-1.241.003-4.141-.94-.543-.004 5.39 7.15 4.136zm-.013 17.788c.002-2.34-1.479-4.067-3.573-5.278-2.125-1.229-3.576-1.136-3.577 1.167l-.002 2.646 7.15 4.136zm-6.212-2.147.001-1.335c0-1.262.267-1.795 1.697-.968l1.88 1.087c1.43.827 1.695 1.667 1.694 2.929l-.001 1.335zm6.228-18.52-2.85-1.648.001-1.838c0-.943.328-1.134 1.145-.661l1.706.987.001-1.25-1.542-.892c-1.124-.65-1.553-.58-1.676.33l-.144-.083c-.193-1.006-.887-2.033-1.715-2.511-.52-.302-.99-.329-1.369-.082-.47.316-.706.965-.707 1.981l-.002 2.757 7.15 4.135zm-6.21-3.592v-1.96c.001-.956.267-1.145.992-.725l.43.248c.745.431 1 .909 1 1.877l-.002 1.96z"/></svg>