<svg xmlns="http://www.w3.org/2000/svg" width="51" height="251" fill="none" viewBox="0 0 51 251"><mask id="a" fill="#fff"><path fill-rule="evenodd" d="M27.329 135.37c-2.308-1.522-4.386-3.88-5.924-6.544-1.67-2.894-2.704-6.148-2.704-9.076q0-.792.1-1.496-.751-.567-1.535-1.02c-2.853-1.647-5.573-1.891-7.66-.687-2.069 1.195-3.209 3.643-3.209 6.892.001 6.382 4.524 14.185 10.084 17.395 2.852 1.647 5.572 1.891 7.658.687 1.91-1.102 3.027-3.27 3.19-6.151" clip-rule="evenodd"/></mask><path fill="#000" fill-rule="evenodd" d="M27.329 135.37c-2.308-1.522-4.386-3.88-5.924-6.544-1.67-2.894-2.704-6.148-2.704-9.076q0-.792.1-1.496-.751-.567-1.535-1.02c-2.853-1.647-5.573-1.891-7.66-.687-2.069 1.195-3.209 3.643-3.209 6.892.001 6.382 4.524 14.185 10.084 17.395 2.852 1.647 5.572 1.891 7.658.687 1.91-1.102 3.027-3.27 3.19-6.151" clip-rule="evenodd"/><path fill="#000" d="m21.405 128.826 1.275-.736zm5.924 6.544 1.47.083.047-.845-.707-.467zM18.7 119.75h1.472zm.1-1.496 1.457.205.121-.859-.693-.522zm-1.535-1.02.736-1.275zm-7.66-.687.737 1.275zm-3.209 6.892H4.925zm10.084 17.395.736-1.275zm7.658.687.736 1.275zm-4.008-11.959c1.627 2.818 3.85 5.364 6.387 7.037l1.621-2.458c-2.079-1.371-4.01-3.542-5.459-6.051zm-2.902-9.812c0 3.249 1.137 6.755 2.902 9.812l2.55-1.472c-1.578-2.731-2.508-5.732-2.508-8.34zm.114-1.701a12 12 0 0 0-.114 1.701h2.944q.001-.698.085-1.291zm2.343-.971a17 17 0 0 0-1.684-1.119l-1.472 2.55q.7.404 1.385.921zm-1.684-1.119c-3.12-1.801-6.428-2.247-9.131-.686l1.472 2.549c1.469-.848 3.6-.806 6.187.687zm-9.131-.686c-2.684 1.549-3.946 4.605-3.946 8.166H7.87c0-2.937 1.019-4.777 2.474-5.617zm-3.946 8.166c0 3.513 1.236 7.312 3.156 10.625 1.92 3.314 4.609 6.281 7.664 8.044l1.472-2.549c-2.504-1.446-4.858-3.985-6.589-6.971s-2.758-6.28-2.759-9.149zm10.82 18.669c3.119 1.802 6.427 2.248 9.13.688l-1.471-2.55c-1.47.848-3.601.806-6.187-.687zm9.13.688c2.472-1.427 3.743-4.143 3.924-7.343l-2.94-.166c-.144 2.561-1.11 4.182-2.456 4.959z" mask="url(#a)"/><path stroke="#000" stroke-width="1.472" d="M16.848 140.196c2.72 1.57 5.145 1.713 6.923.687zm0 0c-2.642-1.525-5.079-4.171-6.857-7.239m6.857 7.239-6.857-7.239m16.622 1.671c0-3.018-1.07-6.422-2.837-9.481-1.78-3.083-4.226-5.745-6.879-7.276m9.716 16.757-19.48-11.189c0-3.093 1.079-5.237 2.841-6.254 1.778-1.027 4.203-.884 6.923.686m9.716 16.757.736.001m-.736-.001L6.397 123.439c0-3.249 1.14-5.697 3.21-6.892 2.085-1.204 4.805-.96 7.658.687m-.368.637.368-.637m-.368.637.368-.637m0 0c2.791 1.611 5.321 4.38 7.149 7.545 1.813 3.141 2.935 6.671 2.935 9.85m0 0h-.736m.736 0h-.736m0 0c0 3.093-1.08 5.237-2.842 6.254zM9.99 132.957c-1.779-3.068-2.858-6.488-2.858-9.518z"/><path fill="#fff" d="M14.138 172.466v-1.243l-4.676-2.705-.006 8.535 1.037.6.005-7.292zM24.89 185.98l1.036.599.007-8.535-4.677-2.704v1.243l3.639 2.105zm-.034 41.966-.005 7.291-3.64-2.105v1.244l4.676 2.705.007-8.535zm-4.161-24.948c.417-.271.641-.849.642-1.544 0-.732-.244-1.543-.772-2.19v-.171l.671.388.001-1.122-3.67-2.122-.002 3.304.935.541.002-2.134.488.282c1.026.594 1.362 1.239 1.36 2.373v.268c0 1.134-.306 1.506-1.719.689l-1.911-1.105c-1.424-.823-1.718-1.567-1.717-2.701v-.244c0-1.109.347-1.263 1.302-.722l.001-1.341c-1.403-.69-2.288-.08-2.29 1.603 0 .817.213 1.623.62 2.37.599 1.115 1.615 2.13 3.038 2.953 1.373.794 2.39 1.016 3.02.625m-6.591 17.473-.001 1.243 7.116 4.116.005-5.609-.936-.54-.003 4.365zm-3.649 6.442.006-7.292-1.037-.599-.007 8.535 4.677 2.704.001-1.243zm10.774-13.826-.935-.54-.003 4.304-2.176-1.259.003-3.755-.935-.541-.003 3.755-2.135-1.235.003-4.121-.936-.541-.004 5.365 7.117 4.116zm.017-21.947-.935-.541-.004 4.304-2.175-1.258.003-3.756-.936-.54-.003 3.755-2.135-1.235.003-4.121-.935-.541-.004 5.365 7.117 4.116zm-.014 17.704c.002-2.329-1.472-4.047-3.556-5.252-2.115-1.223-3.559-1.132-3.56 1.161l-.003 2.633 7.117 4.117zm-6.183-2.136.001-1.33c.001-1.255.266-1.785 1.69-.962l1.87 1.082c1.423.823 1.687 1.659 1.686 2.915v1.329zm6.2-18.433-2.837-1.64.002-1.829c0-.939.326-1.129 1.14-.658l1.697.982.001-1.244-1.535-.888c-1.118-.647-1.546-.577-1.668.328l-.143-.082c-.192-1.002-.883-2.023-1.707-2.5-.518-.299-.986-.326-1.363-.08-.468.314-.702.96-.703 1.971l-.002 2.744 7.117 4.116zm-6.182-3.575.002-1.951c0-.951.265-1.139.987-.722l.427.247c.742.429.996.906.995 1.869l-.001 1.951z"/><path fill="#fff" fill-rule="evenodd" d="M33.439 27.498v106.63a41 41 0 0 0-1.584-5.89l.017.007-.003-100.1L1.838 10.612l-.122 104.846.094.04c-.593 1.94-.907 4.166-.907 6.614v108.833l33.171 19.152v-.132l16.027-10.047V131.104c0-3.593-.7-7.463-1.935-11.253l.514-101.606L17.08 0 1.617 8.672l31.821 18.373zM2.472 230.04V122.113c0-5.829 1.848-10.239 5.07-12.099 2.615-1.51 6.007-1.213 9.553.834 8.496 4.904 15.408 18.142 15.408 29.51v107l-4.806-2.777-.01.017zm46.058-98.936V239.05l-14.457 9.063v-98.028l13.98-8.071.08-15.713a31 31 0 0 1 .397 4.803M10.078 26.862l1.122.692 13.248 8.17.35.216v63.865l-1.132-.723-13.248-8.457-.34-.217zM11.55 29.5v60.102l11.776 7.518V36.76zm30.912 9.32a.147.147 0 0 0-.237-.117L40.03 40.41a1.33 1.33 0 0 0-.512 1.045v14.36c0 .122.141.191.238.116l2.195-1.707c.322-.251.511-.637.511-1.046zm-1.141-1.279c1.064-.827 2.613-.069 2.613 1.279v14.36c0 .862-.398 1.677-1.08 2.207l-2.194 1.707c-1.064.827-2.614.07-2.614-1.278v-14.36c0-.863.399-1.677 1.08-2.207zm1.141 42.495a.147.147 0 0 0-.237-.117l-2.195 1.708a1.33 1.33 0 0 0-.512 1.045v14.36c0 .122.141.191.238.116l2.195-1.707c.322-.251.511-.637.511-1.046zm-1.141-1.278c1.064-.828 2.613-.07 2.613 1.278v14.36c0 .862-.398 1.677-1.08 2.207L40.66 98.31c-1.064.827-2.614.07-2.614-1.278V82.67c0-.863.399-1.677 1.08-2.207z" clip-rule="evenodd"/></svg>