<svg xmlns="http://www.w3.org/2000/svg" xmlns:xlink="http://www.w3.org/1999/xlink" width="250" height="250" fill="none" viewBox="0 0 250 250"><g clip-path="url(#a)"><circle cx="125" cy="125.104" r="103" fill="url(#b)" opacity=".15"/><mask id="d" width="229" height="221" x="-1" y="22" mask-type="alpha" maskUnits="userSpaceOnUse"><path fill="#8a80db" d="M228 125.105c0 56.885-46.115 103-103 103S-.5 292.104-.5 151.604c0-56.885 68.615-129.5 125.5-129.5S228 68.22 228 125.106"/></mask><g filter="url(#c)" mask="url(#d)"><path fill="url(#e)" d="M34 74.104h290v128H34z"/></g><g filter="url(#g)"><path fill="#0998a5" d="M82.272 77.827a2.61 2.61 0 0 1-1.261-2.235v-4.617l23.975-11.81a7.83 7.83 0 0 1 6.833-.042l23.923 11.416.001 5.054a2.61 2.61 0 0 1-1.261 2.234l-22.041 13.324a7.83 7.83 0 0 1-8.099.002z"/><path fill="#0ebdcd" d="M82.277 73.104c-1.707-1.01-1.707-3.48 0-4.491l22.122-13.11a7.83 7.83 0 0 1 7.985 0l22.122 13.11c1.706 1.011 1.706 3.48 0 4.491l-22.122 13.11a7.83 7.83 0 0 1-7.985 0z"/><g filter="url(#h)"><g clip-path="url(#i)"><g clip-path="url(#j)"><path fill="#fff" fill-rule="evenodd" d="m107.5 72.955 3.228-1.005 1.74-1.865 1.13 3.523zm3.771-4.034-2.027 2.172-3.758 1.17-1.315-4.101zm2.559-.893-12.139-1.3 2.248 7.014 12.139 1.299z" clip-rule="evenodd"/></g></g></g><path fill="#25282c" d="M33.423 71.863a1.47 1.47 0 0 1-.71-1.257V68.01L46.2 61.366a4.4 4.4 0 0 1 3.844-.024L63.5 67.764v2.843c0 .514-.27.99-.71 1.256l-12.397 7.495a4.4 4.4 0 0 1-4.556.001z"/><path fill="#3a4148" d="M33.425 69.189a1.468 1.468 0 0 1 0-2.526l12.444-7.375a4.4 4.4 0 0 1 4.492 0l12.444 7.374c.96.57.96 1.958 0 2.527L50.36 76.563a4.4 4.4 0 0 1-4.492 0z"/><g filter="url(#k)"><g fill="#fff" clip-path="url(#l)"><path d="m43.59 67.175-1.233.711 4.334.058c1.525.02 2.734-.678 2.7-1.558l-.1-2.502-1.232.711.07 1.78c.02.476-.632.852-1.456.841zm7.659.284c-1.525-.02-2.735.677-2.7 1.558l.101 2.516 1.232-.711-.072-1.795c-.019-.475.633-.852 1.457-.84l3.108.04 1.232-.71z"/></g></g><path fill="#000" fill-opacity=".15" fill-rule="evenodd" d="m121.945 61.169-3.768 2.278a11.45 11.45 0 0 1-11.837.003l-7.604-4.592 5.663-3.356a7.83 7.83 0 0 1 7.985 0z" clip-rule="evenodd"/><path fill="#da9021" d="M74.086 38.888a3.82 3.82 0 0 1-1.843-3.266v-6.749l35.038-17.258a11.44 11.44 0 0 1 9.986-.062l34.964 16.684v7.386a3.82 3.82 0 0 1-1.841 3.265L118.177 58.36a11.45 11.45 0 0 1-11.837.003z"/><path fill="#ffae35" d="M74.093 31.986c-2.493-1.478-2.493-5.086 0-6.564l32.331-19.16a11.45 11.45 0 0 1 11.67 0l32.331 19.16c2.493 1.478 2.493 5.086 0 6.564l-32.331 19.16a11.45 11.45 0 0 1-11.67 0z"/><g filter="url(#m)"><g clip-path="url(#n)"><path fill="#fff" fill-rule="evenodd" d="m107.262 22.349.387-.224c2.243-1.116 5.914-.87 8.182.564l.389.227c1.276.664 2.03 1.52 2.225 2.38 1.828-.089 3.817.326 5.306 1.218l.469.271c2.544 1.421 2.852 3.592.751 4.884l-.559.323 2.839 1.639-1.964 1.133-2.839-1.639-1.971 1.139 2.839 1.639-1.964 1.133-2.839-1.639-2.01 1.16-16.93-9.772.982-.567 1.029-.594-2.744-1.584 1.964-1.133 2.744 1.584 1.749-1.009-2.745-1.585 1.964-1.133zm3.932 8.876 4.881 2.818 6.479-3.74c1.062-.654.913-1.707-.274-2.37l-.521-.3c-1.123-.675-2.952-.763-4.061-.162zm3.14-7.132-.531-.309c-1.035-.653-2.765-.77-3.824-.245l-6.05 3.493 4.873 2.813 6.013-3.471c.949-.651.734-1.647-.481-2.281" clip-rule="evenodd"/></g></g></g><path fill="#5d7fcc" d="m111.5 101.604-1.592-1.311a.1.1 0 0 1 .011-.162l3.629-2.247a1 1 0 0 1 .937-.061l1.515.681z"/><path fill="#4b6aaf" d="M109.779 100.418a.2.2 0 0 1 .284-.181l2.689 1.252c.153.071.253.22.262.388l1.3 25.669-4.535 3.779z"/><path fill="#4b6aaf" d="M114.779 133.484a.45.45 0 0 1-.416.272h-1.48a1 1 0 0 1-.668-.256l-4.748-4.267a.454.454 0 0 1 .078-.731l9.275-5.295a.45.45 0 0 1 .375-.034l1.344.47a.454.454 0 0 1 .266.609z"/><path fill="#8a80db" d="M111.779 101.296c0-.263.137-.508.362-.645l3.483-2.126a.454.454 0 0 1 .69.387v28.634l-4.535 3.779z"/><path fill="#8a80db" d="M114.765 133.521a.453.453 0 0 1-.727.139l-4.592-4.418a.454.454 0 0 1 .098-.725l8.766-4.766c.382-.207.81.19.63.586z"/></g><defs><clipPath id="a"><path fill="#fff" d="M0 0h250v250H0z"/></clipPath><clipPath id="i"><path fill="#fff" d="m94.497 70.884 14.388-8.312 14.387 8.312-14.387 8.312z"/></clipPath><clipPath id="j"><path fill="#fff" d="m96.296 69.845 10.79-6.234 14.388 8.312-10.79 6.235z"/></clipPath><clipPath id="l"><path fill="#fff" d="m42.058 67.683 6.957-4.016 6.957 4.016-6.957 4.016z"/></clipPath><clipPath id="n"><path fill="#fff" d="m93.364 27.201 18.484-10.67 22.512 12.996-18.484 10.67z"/></clipPath><filter id="c" width="322" height="160" x="18" y="66.104" color-interpolation-filters="sRGB" filterUnits="userSpaceOnUse"><feFlood flood-opacity="0" result="BackgroundImageFix"/><feColorMatrix in="SourceAlpha" values="0 0 0 0 0 0 0 0 0 0 0 0 0 0 0 0 0 0 127 0"/><feOffset dy="8"/><feGaussianBlur stdDeviation="8"/><feColorMatrix values="0 0 0 0 0 0 0 0 0 0 0 0 0 0 0 0 0 0 0.15 0"/><feBlend in2="BackgroundImageFix" result="effect1_dropShadow"/><feBlend in="SourceGraphic" in2="effect1_dropShadow" result="shape"/></filter><filter id="g" width="163.748" height="131.776" x="10.626" y="-6.377" color-interpolation-filters="sRGB" filterUnits="userSpaceOnUse"><feFlood flood-opacity="0" result="BackgroundImageFix"/><feColorMatrix in="SourceAlpha" values="0 0 0 0 0 0 0 0 0 0 0 0 0 0 0 0 0 0 127 0"/><feOffset dy="11.04"/><feGaussianBlur stdDeviation="11.04"/><feColorMatrix values="0 0 0 0 0 0 0 0 0 0 0 0 0 0 0 0 0 0 0.15 0"/><feBlend in2="BackgroundImageFix" result="effect1_dropShadow"/><feBlend in="SourceGraphic" in2="effect1_dropShadow" result="shape"/></filter><filter id="h" width="28.775" height="17.896" x="94.497" y="62.572" color-interpolation-filters="sRGB" filterUnits="userSpaceOnUse"><feFlood flood-opacity="0" result="BackgroundImageFix"/><feColorMatrix in="SourceAlpha" values="0 0 0 0 0 0 0 0 0 0 0 0 0 0 0 0 0 0 127 0"/><feOffset dy="1.272"/><feColorMatrix values="0 0 0 0 0 0 0 0 0 0 0 0 0 0 0 0 0 0 0.15 0"/><feBlend in2="BackgroundImageFix" result="effect1_dropShadow"/><feBlend in="SourceGraphic" in2="effect1_dropShadow" result="shape"/></filter><filter id="k" width="13.914" height="8.865" x="42.058" y="63.667" color-interpolation-filters="sRGB" filterUnits="userSpaceOnUse"><feFlood flood-opacity="0" result="BackgroundImageFix"/><feColorMatrix in="SourceAlpha" values="0 0 0 0 0 0 0 0 0 0 0 0 0 0 0 0 0 0 127 0"/><feOffset dy=".832"/><feColorMatrix values="0 0 0 0 0 0 0 0 0 0 0 0 0 0 0 0 0 0 0.65 0"/><feBlend in2="BackgroundImageFix" result="effect1_dropShadow"/><feBlend in="SourceGraphic" in2="effect1_dropShadow" result="shape"/></filter><filter id="m" width="40.996" height="24.939" x="93.364" y="16.531" color-interpolation-filters="sRGB" filterUnits="userSpaceOnUse"><feFlood flood-opacity="0" result="BackgroundImageFix"/><feColorMatrix in="SourceAlpha" values="0 0 0 0 0 0 0 0 0 0 0 0 0 0 0 0 0 0 127 0"/><feOffset dy="1.272"/><feColorMatrix values="0 0 0 0 0 0 0 0 0 0 0 0 0 0 0 0 0 0 0.15 0"/><feBlend in2="BackgroundImageFix" result="effect1_dropShadow"/><feBlend in="SourceGraphic" in2="effect1_dropShadow" result="shape"/></filter><linearGradient id="b" x1="177" x2="81" y1="214.105" y2="28.105" gradientUnits="userSpaceOnUse"><stop stop-color="#3670c6"/><stop offset=".495" stop-color="#8a80db"/><stop offset="1" stop-color="#64bef1"/></linearGradient><pattern id="e" width="1" height="1" patternContentUnits="objectBoundingBox"><use xlink:href="#o" transform="matrix(.0008 0 0 .00181 -.004 0)"/></pattern><image xlink:href="no-apps_image_0.webp" id="o" width="1260" height="552"/></defs></svg>