<svg xmlns="http://www.w3.org/2000/svg" width="253" height="170" fill="none" viewBox="0 0 253 170"><g filter="url(#a)"><path fill="#d5dfec" d="M35.223 92.639a6.9 6.9 0 0 1-3.571-6.043c0-1.095.888-1.983 1.983-1.983h76.203c1.095 0 1.983.888 1.983 1.983a6.9 6.9 0 0 1-3.571 6.042l-26.816 14.758c-5.356 2.948-14.04 2.948-19.395 0z"/></g><path fill="#d5dfec" d="M35.097 92.569a6.65 6.65 0 0 1-3.445-5.828v-6.982a6.65 6.65 0 0 1 3.445-5.828l26.942-14.827c5.356-2.948 14.04-2.948 19.395 0l26.943 14.827a6.65 6.65 0 0 1 3.444 5.828v6.982a6.65 6.65 0 0 1-3.444 5.828l-26.943 14.827c-5.356 2.948-14.04 2.948-19.395 0z"/><rect width="50.806" height="50.806" x=".365" fill="#fbfbfd" stroke="url(#b)" stroke-width=".416" rx="9.77" transform="matrix(.8769 -.48069 .8769 .48069 26.633 78.784)"/><path fill="#2962ef" d="m66.244 72.208-.827.496c-2.604 1.563-5.227 3.113-7.812 4.687a2.7 2.7 0 0 1-.775.334 3.6 3.6 0 0 1-.927.115c-1.886.027-3.164-.022-5.05.019-.332.007-1.96.005-1.96.005l.978-.587 19.132-11.48c.43-.258.858-.588 1.554-.435.64.136.815.49.914.861.54 2.058 1.095 4.114 1.608 6.174.052.2.132.308-.087.443-1.634 1.009-5.412 3.248-5.412 3.248l-1.075-3.822zm9.209 8.604s.57 2.697.959 4.081l1-.6c2.5-1.5 5.007-2.993 7.488-4.503.204-.135.45-.244.723-.32.273-.078.568-.122.866-.13 2.023-.072 4.05-.181 6.076-.27.33-.02 1.582-.03 1.582-.03l-.97.582L73.67 91.326c-.953.571-2.059.376-2.45-.442a6.3 6.3 0 0 1-.35-1.196c-.42-1.616-.825-3.233-1.267-4.847-.086-.322.026-.537.438-.782a733 733 0 0 0 4.595-2.757l.624-.375z"/><g filter="url(#c)"><path fill="#d5dfec" d="M93.001 61.5a6.9 6.9 0 0 1-3.572-6.042c0-1.096.889-1.984 1.984-1.984h76.203c1.095 0 1.983.888 1.983 1.984a6.9 6.9 0 0 1-3.571 6.042l-26.816 14.758c-5.356 2.947-14.039 2.947-19.395 0z"/></g><path fill="#d5dfec" d="M92.874 61.43a6.65 6.65 0 0 1-3.444-5.828V48.62a6.65 6.65 0 0 1 3.444-5.828l26.943-14.827c5.356-2.948 14.039-2.948 19.395 0l26.942 14.827a6.65 6.65 0 0 1 3.445 5.828v6.982a6.65 6.65 0 0 1-3.445 5.828l-26.942 14.828c-5.356 2.947-14.039 2.947-19.395 0z"/><rect width="50.806" height="50.806" x=".365" fill="#fbfbfd" stroke="url(#d)" stroke-width=".416" rx="9.77" transform="matrix(.8769 -.48069 .8769 .48069 84.411 47.645)"/><path fill="#94c5ff" d="m131.426 45.84 7.499-4.5 5.861 8.369c.819 1.167.384 2.503-1.101 3.393l-7.499 4.5-5.86-8.37c-.845-1.181-.384-2.502 1.1-3.393"/><path fill="#1a32af" d="m138.923 41.341 1.229 6.204c.23.967-.231 1.95-1.459 2.687l-5.452 3.27-2.968-4.268c-.794-1.152-.359-2.488 1.126-3.378z"/><path fill="#0092ff" d="m122.826 43.69 7.499-4.5 5.861 8.37c.819 1.167.384 2.503-1.101 3.393l-7.498 4.5-5.861-8.37c-.819-1.166-.359-2.518 1.1-3.393"/><path fill="#1a32af" d="m130.349 39.177 1.228 6.203c.231.968-.23 1.95-1.459 2.688l-5.451 3.27-2.969-4.269c-.793-1.151-.358-2.487 1.126-3.378z"/><path fill="#05f" d="m114.251 41.526 7.499-4.5 5.861 8.37c.819 1.166.384 2.502-1.1 3.393l-7.499 4.5-5.861-8.37c-.819-1.167-.384-2.503 1.1-3.393"/><g filter="url(#e)"><path fill="#d5dfec" d="M150.108 29.652a6.9 6.9 0 0 1-3.571-6.043c0-1.095.888-1.983 1.983-1.983h76.203c1.095 0 1.983.888 1.983 1.983a6.9 6.9 0 0 1-3.571 6.042L196.319 44.41c-5.356 2.948-14.039 2.948-19.395 0z"/></g><path fill="#d5dfec" d="M149.981 29.582a6.65 6.65 0 0 1-3.444-5.828v-6.982a6.65 6.65 0 0 1 3.444-5.828l26.943-14.827c5.356-2.948 14.039-2.948 19.395 0l26.943 14.827a6.65 6.65 0 0 1 3.444 5.828v6.982a6.65 6.65 0 0 1-3.444 5.828l-26.943 14.827c-5.356 2.948-14.039 2.948-19.395 0z"/><rect width="50.806" height="50.806" x=".365" fill="#fbfbfd" stroke="url(#f)" stroke-width=".416" rx="9.77" transform="matrix(.8769 -.48069 .8769 .48069 141.518 15.797)"/><g fill="#266ef0" clip-path="url(#g)"><path d="m179.013 18.506-13.745-2.21 10.062-6.037z"/><path fill-rule="evenodd" d="m177.861 8.772 29.099 4.678-21.302 12.781zm5.234 3.14 16.716 2.687-12.237 7.343z" clip-rule="evenodd"/></g><g filter="url(#h)"><path fill="#d5dfec" d="M11.063 169.513a6.9 6.9 0 0 1-3.572-6.042c0-1.095.888-1.983 1.984-1.983h76.202c1.096 0 1.984.888 1.984 1.983a6.9 6.9 0 0 1-3.572 6.042l-26.815 14.758c-5.356 2.948-14.04 2.948-19.396 0z"/></g><path fill="#d5dfec" d="M10.936 169.444a6.65 6.65 0 0 1-3.445-5.828v-6.982a6.65 6.65 0 0 1 3.445-5.828l26.942-14.827c5.356-2.948 14.04-2.948 19.396 0l26.942 14.827a6.65 6.65 0 0 1 3.445 5.828v6.982a6.65 6.65 0 0 1-3.445 5.828l-26.942 14.827c-5.356 2.948-14.04 2.948-19.396 0z"/><rect width="50.806" height="50.806" x=".365" fill="#fbfbfd" stroke="url(#i)" stroke-width=".416" rx="9.77" transform="matrix(.8769 -.48069 .8769 .48069 2.473 155.659)"/><g clip-path="url(#j)"><path fill="#0f67ff" d="M59.652 162.864c-1.836 1.084-3.698 2.153-5.497 3.26-1.093.673-2.329.86-3.83.62q-7.58-1.21-15.17-2.403c-1.418-.223-2.296-.745-2.677-1.59a1395 1395 0 0 0-4.064-8.962c-.213-.467-.312-.936.032-1.379.238-.308.562-.591.957-.837 1.267-.772 2.587-1.513 3.876-2.272 2.223-1.308 4.436-2.621 6.654-3.931.343-.203.679-.413 1.035-.605.89-.479 1.956-.585 3.082-.409 3.946.614 7.882 1.247 11.823 1.872 1.168.185 2.333.377 3.508.556 1.458.22 2.392.74 2.783 1.608q1.857 4.116 3.731 8.225c.127.278.259.556.381.834.346.786.078 1.465-.923 2.048-1.913 1.115-3.802 2.243-5.701 3.365m-7.193-4.294q.206-.11.392-.231c.21-.159.423-.318.607-.488 1.981-1.842 1.217-4.312-1.612-5.615-1.676-.773-3.56-1.085-5.635-.882-2.794.274-4.695 1.233-5.707 2.789-1.12 1.718.022 3.841 2.583 4.9a11 11 0 0 0 2.545.69c.19.03.408.046.403.208l-.046 1.238c-3.522-.205-7.17-1.92-8.09-4.426-.889-2.423 1.13-5.018 4.91-6.205 1.836-.579 3.942-.79 6.002-.599 2.06.19 3.96.77 5.417 1.653 1.51.893 2.45 2.067 2.66 3.323.32 1.788-.623 3.337-2.694 4.653l1.678.992q.1-.028.188-.07c.165-.112.323-.228.488-.344 1.605-1.122 2.55-2.413 2.762-3.881.38-2.628-1.194-4.781-4.725-6.385-5.668-2.575-13.954-1.606-17.596 2.017-1.29 1.284-1.866 2.674-1.666 4.163.292 2.172 1.909 3.93 4.876 5.238 2 .882 4.264 1.324 6.75 1.386.907.023 1.469-.28 1.48-.822.033-1.47.073-2.944.074-4.415 0-.362.106-.633.604-.889.767-.394.913-1.032.506-1.588-.187-.263-.504-.487-.907-.642a3.7 3.7 0 0 0-1.36-.233 3.8 3.8 0 0 0-1.385.237c-.411.159-.732.387-.922.655-.403.56-.152 1.254.56 1.62.203.105.452.259.468.399.05.412-.007.828-.022 1.244-1.42-.095-3.005-.985-3.419-2.059-.451-1.183.464-2.466 2.233-3.077 1.75-.605 4.052-.507 5.477.227.857.44 1.476.962 1.7 1.63.33.99-.163 1.848-1.24 2.604z"/></g><g filter="url(#k)"><path fill="#d5dfec" d="M68.84 138.375a6.9 6.9 0 0 1-3.571-6.042c0-1.096.888-1.984 1.983-1.984h76.203c1.095 0 1.983.888 1.983 1.984a6.9 6.9 0 0 1-3.571 6.042l-26.816 14.758c-5.356 2.947-14.039 2.947-19.395 0z"/></g><path fill="#d5dfec" d="M68.714 138.305a6.65 6.65 0 0 1-3.445-5.828v-6.982a6.65 6.65 0 0 1 3.445-5.828l26.942-14.827c5.356-2.948 14.039-2.948 19.395 0l26.943 14.827a6.65 6.65 0 0 1 3.444 5.828v6.982a6.65 6.65 0 0 1-3.444 5.828l-26.943 14.828c-5.356 2.947-14.039 2.947-19.395 0z"/><rect width="50.806" height="50.806" x=".365" fill="#fbfbfd" stroke="url(#l)" stroke-width=".416" rx="9.77" transform="matrix(.8769 -.48069 .8769 .48069 60.25 124.52)"/><path fill="#6436ff" d="m118.152 115.141-20.554-.025c-1.008-.002-1.823.487-1.82 1.092l.024 7.229-3.488-.004c-1.007-.001-1.822.488-1.824 1.094l.027 7.901c.002.604.82 1.095 1.832 1.099l13.174.016c1.008.001 1.823-.488 1.824-1.094l-.005-1.385-9.69-.009c-1.007-.002-1.825-.493-1.827-1.097l-.002-.321 22.375.027c1.008.002 1.823-.487 1.821-1.092l-.043-12.332c.002-.607-.816-1.098-1.824-1.099"/><g filter="url(#m)"><path fill="#d5dfec" d="M125.947 106.526a6.9 6.9 0 0 1-3.571-6.042c0-1.095.888-1.983 1.984-1.983h76.202c1.095 0 1.984.888 1.984 1.983a6.9 6.9 0 0 1-3.572 6.042l-26.816 14.758c-5.355 2.948-14.039 2.948-19.395 0z"/></g><path fill="#d5dfec" d="M125.821 106.457a6.65 6.65 0 0 1-3.445-5.828v-6.982a6.65 6.65 0 0 1 3.445-5.828l26.942-14.827c5.356-2.948 14.04-2.948 19.395 0l26.943 14.827a6.65 6.65 0 0 1 3.445 5.828v6.982a6.65 6.65 0 0 1-3.445 5.828l-26.943 14.827c-5.355 2.948-14.039 2.948-19.395 0z"/><rect width="50.806" height="50.806" x=".365" fill="#fbfbfd" stroke="url(#n)" stroke-width=".416" rx="9.77" transform="matrix(.8769 -.48069 .8769 .48069 117.357 92.672)"/><path fill="#47a1f8" fill-rule="evenodd" d="m149.947 83.932 15.824 2.311-2.323 5.79-9.649 1.393zm5.219 8.115-2.673-6.588 10.98 1.604-1.612 4.017z" clip-rule="evenodd"/><path fill="#47a1f8" d="m165.602 93.335-11.194 1.617.122.3c1.377 3.393 6.458 5.868 12.217 5.952 6.776.099 12.136-3.117 11.971-7.183-.139-3.455-4.265-6.504-9.919-7.33l-.501-.073z"/><g filter="url(#o)"><path fill="#d5dfec" d="M184.153 74.678a6.9 6.9 0 0 1-3.572-6.042c0-1.095.889-1.983 1.984-1.983h76.203c1.095 0 1.983.888 1.983 1.983a6.9 6.9 0 0 1-3.571 6.042l-26.816 14.758c-5.356 2.948-14.04 2.948-19.395 0z"/></g><path fill="#d5dfec" d="M184.026 74.609a6.65 6.65 0 0 1-3.445-5.828v-6.982a6.65 6.65 0 0 1 3.445-5.828l26.943-14.828c5.355-2.947 14.039-2.947 19.395 0l26.942 14.828a6.65 6.65 0 0 1 3.445 5.828v6.982a6.65 6.65 0 0 1-3.445 5.828l-26.942 14.827c-5.356 2.948-14.04 2.948-19.395 0z"/><rect width="50.806" height="50.806" x=".365" fill="#fbfbfd" stroke="url(#p)" stroke-width=".416" rx="9.77" transform="matrix(.8769 -.48069 .8769 .48069 175.563 60.824)"/><g clip-path="url(#q)"><path fill="#fff" d="m213.587 67.705-5.228-4.074-11.585 1.173 8.332-2.423-.836-2.255 1.943-5.235 18.395-3.072 10.736 5.71 2.22 7.618-3.49 2.874-1.875-3.694-3.866-2.32-4.576-.877-2.655.305.137 3.002 2.72 1.632-.078 2.233-2.113 1.627-.448 1.013-2.326.708-3.425-1.178-.58-1.926z"/><path fill="#94a6c3" d="M213.522 54.694c-1.564.61-2.902 1.5-2.902 1.5s1.731 1.593-.564 3.663c.021-.013 5.116-1.484 3.466-5.163m21.075 11.242c.308-1.683-.242-3.416-1.649-4.906-.048-.059.041-.266.088-.413.093-.235.215-.457.06-.605a13 13 0 0 0-1.624-1.15c-.223-.133-.671-.137-1.11-.14-.321.013-.667.01-.791-.064-2.513-1.217-5.657-1.876-8.833-1.823l.005.207c3.104-.035 6.196.593 8.611 1.777.226.105.615.108 1.012.111.321-.013.744.005.842.065q.859.515 1.573 1.119c.073.074-.041.266-.114.427-.118.22-.215.427-.06.575 1.537 1.623 2.045 3.536 1.464 5.321-.38-.609-1.653-2.57-2.269-3.58l-3.787-2.157-6.159.016-1.505 1.2 1.271 3.072s2.073.162 2.177 1.747c.107 1.552-.57 2.317-.57 2.317l-1.402.241c-.084-.37-.067-1.007-.004-1.465.106-.782.76-1.237.115-1.624-1.322-.828-2.365.244-2.365.244l-.013.608 1.63 1.239.304 1.465-.146.057-2.151.813s.499-.987.021-1.48c-.454-.477-3.037-1.411-3.186-1.47.051 0 .962-.04 1.877.249-.711-.893-1.246-1.83-1.198-1.976.048-.147.944-1.973.944-1.973l1.116 1.456.214-.457-1.773-2.467s.57-1.03 1.422-1.54c1.506-.935 1.852-3.447-2.613-4.9.416-.1 8.075-1.58 14.04.947 4.569 1.955 6.067 5.453 4.536 8.917"/><path fill="#1b314f" d="M209.445 57.797c-.117-.741-1.33-1.209-1.33-1.209l.84 2.462c-.026.015.605-.332.49-1.253m8.016 11.386-.8-.716s.64 1.35.77 1.514c.151.18.674.344.962.141.291-.206.205-.723-.142-.931-.449-.27-.79-.008-.79-.008"/><path fill="#1b314f" d="M216.058 50.986s1.27-.701 2.685-1.37c-5.148.333-8.519 1.55-10.711 2.865-3.017 1.81-3.788 3.802-3.841 3.92l-.596-1.499s-4.175 2.053-1.396 5.328c-1.215-.318-2.802-.895-2.802-.895s-.2 2.25 3.669 3.459c-3.113.852-7.524 2.087-7.67 2.15-.197.086-.17.163-.17.163s.022.073.297.063c.489-.032 9.472-.778 11.343-1.003.656.684 1.08.939 1.745 1.047.915.139 1.236.306 1.613.587.373.284 3.604 2.749 3.957 3.076s.926 1.898 1.447 2.155c.524.255 3.173 1.088 3.963.886.563-.159 1.911-.577 2.591-.985.242-.146.412-.31.41-.426.041-.47.085-.59.377-.765l.071-.043c.121-.072.293-.144.464-.247.388-.233.824-.587.841-1.013-.013-.649.165-1.654.107-2.04-.108-.505-.561-1.008-1.307-1.34-.674-.314-.883-.82-1.037-1.353-.162-.653-.431-1.836-.431-1.836 2.974-.234 5.993.32 8.187 1.636 3.891 2.335 3.725 6.207-.366 8.661-.634.38-1.312.7-2.071.976 2.546-.722 4.354-1.535 5.648-2.311 2.751-1.65 3.189-3.14 3.189-3.14s.167.71.106 1.671l.025-.015c3.904-3.122 2.28-6.756 2.28-6.756s1.077.852 1.707 1.49c1.391-6.433-5.469-9.322-5.691-9.425.123.014 1.48.097 2.195.15-9.304-6.754-20.828-3.822-20.828-3.822m7.093 15.444c.028.132-.009.606-.027.946s-.062.694-.052.99q.004.177-.435.44l-.267.161-.146.088-.317.19c-.133-.52-.211-1.85-.091-2.219.139-.442.06-.754-.733-.905-.793-.155-1.37.345-1.37.345s.238-.353.605-.573c-.587.203-1.047.628-1.041.953-.018.34 1.007.894 1.506 1.339.529.463.441.906.405 1.645-.017.4-.161.605-.357.723a15 15 0 0 1-1.569.551c-.567-.05-2.008-.473-2.553-.685-.177-.192-.411-.682-.564-.95-.281-.519-.435-.817-.684-1.026-.327-.312-2.632-2.075-3.605-2.805.74.064 1.88.222 2.229.551-.317-1.036-1.827-1.33-2.471-1.422-.615-.108-1.706-.413-2.311-1.066s-2.076-2.588-2.076-2.588.818.14 1.129-.169c.315-.307-1.491-5.392-1.491-5.392s2.92.67 3.444 2.126c.499 1.466-.179 2.202-.179 2.202s1.587-.655 1.903-1.953c1.733.428 3.491.897 3.691.987.101.15 1.523 2.17 1.577 2.318.001.061-.239.323-.434.502-.289.322-.454.513-.482.617-.021.192 1.392 1.977 2.103 2.839-.315.337-.501.752-.322 1.24.047-.178.505-.544.85-.808.317-.22 1.933-.503 3.278-.022l.051.031c.448.204.703.502.806.8m-1.988 1.552c-.103-.327-.676-.64-.826-.761-.151-.12-.43-.343-.28-.489.144-.148.685-.38 1.031-.172.325.195.056.444.04.725-.004.208.03.64.035.697m4.945-8.688a15 15 0 0 0-3.071-2.078c2.243.209 4.401.803 6.193 1.672.226.106.614.109 1.012.112.32-.013.718-.01.842.064a12 12 0 0 1 1.577 1.122c.048.058-.041.266-.114.427-.118.22-.215.427-.06.575 1.386 1.473 1.936 3.18 1.601 4.818-.158-2.81-3.059-5.862-7.98-6.712m8.274 6.803c.333-1.699-.193-3.477-1.63-4.98-.048-.059.041-.266.088-.413.118-.22.215-.457.06-.605a13 13 0 0 0-1.624-1.15c-.223-.133-.671-.137-1.11-.14-.271-.017-.642-.005-.766-.08-2.018-.974-4.443-1.583-6.96-1.781-3.482-1.503-6.351-.89-6.427-.876.127.016 3.261.379 4.578 2.221 1.318 1.873-1.341 3.052-1.515 3.183-.197.117.049 1.166.944 2.846a3.8 3.8 0 0 0-1.291.687c-.811-1.012-1.922-2.47-1.95-2.632-.001-.061.263-.338.437-.53.339-.352.479-.528.456-.632-.027-.077-.358-.566-.714-1.07.221-.133.729-.5.749-.542-.001-.061-.757-1.07-.906-1.16-.124-.075-3.497-.956-4.783-1.292a3.2 3.2 0 0 0-.214-.74c5.544-2.663 13.783-2.398 19.043.758 4.041 2.425 5.248 5.924 3.535 8.928"/><path fill="#1b314f" d="M214.432 61.901c-.084-.606-1.348-1.074-2.379-.666-.3-.446-1.035-1.262-1.035-1.262s1.507 3.884 1.366 4.06c-.144.179-1.237-.217-1.237-.217 1.358 1.371 2.85.774 2.423.342.501-.516.921-1.666.862-2.257"/><path fill="#ffd923" d="m213.283 63.756-.955-2.09s1.107-.213 1.338.367c.238.693-.383 1.723-.383 1.723"/><path fill="#d82122" d="M239.219 60.53c.134.521.242 1.082.258 1.673-3.049-5.596-11.704-7.198-12.047-7.259.448.004.913.022 1.331.038 5.15.2 9.56 2.495 10.458 5.549m-5.037-6.528c-4.116-1.153-8.243-1.761-13.992-1.093-5.555.638-8.936 2.877-9.106 3.01l-.051.03c.07-.103.166-.191.265-.277.508-.602 1.279-1.306 2.132-1.966 2.203-1.779 5.705-2.803 9.408-2.715l.101.001c4.214.104 8.003 1.12 11.243 3.01m-19.216-3.291c-4.324 1.758-6.315 3.368-7.347 4.767-.251-.09-.82-.226-1.291-.334.12.678.33 1.45.466 1.938-.276.946-.04 1.553-.04 1.553-1.339-1.444-1.172-3.217.376-4.567q.653-.57 1.604-1.142c1.703-.991 3.804-1.744 6.232-2.215m-8.625 10.922c-2.945 1.65-5.393-.956-5.539-1.105.025.016 2.86 1.486 5.539 1.105m-3.31-5.347c-.844 2.123 2.81 3.79 2.81 3.79-5.358-.7-2.904-3.64-2.81-3.79"/><path fill="#fff" d="M206.438 62.654c.27-.013.643.035.797.333.079.163-.093.235-.412.309-.442.085-3.243.508-5.898.813 2.453-.691 4.974-1.368 5.416-1.453 0 0 .05 0 .097-.002"/></g><g filter="url(#r)"><path fill="#d5dfec" d="M237.818 178.431a6.9 6.9 0 0 1-3.571-6.042c0-1.095.888-1.984 1.983-1.984h76.203c1.095 0 1.983.889 1.983 1.984a6.9 6.9 0 0 1-3.571 6.042l-26.816 14.758c-5.356 2.948-14.039 2.948-19.395 0z"/></g><path fill="#d5dfec" d="M237.691 178.361a6.65 6.65 0 0 1-3.444-5.827v-6.982a6.65 6.65 0 0 1 3.444-5.828l26.943-14.828c5.356-2.947 14.039-2.947 19.395 0l26.943 14.828a6.65 6.65 0 0 1 3.444 5.828v6.982a6.65 6.65 0 0 1-3.444 5.827l-26.943 14.828c-5.356 2.948-14.039 2.948-19.395 0z"/><rect width="50.806" height="50.806" x=".365" fill="#fbfbfd" stroke="url(#s)" stroke-width=".416" rx="9.77" transform="matrix(.8769 -.48069 .8769 .48069 229.228 164.577)"/><g filter="url(#t)"><path fill="#d5dfec" d="M241.26 42.83a6.9 6.9 0 0 1-3.572-6.042c0-1.096.888-1.984 1.984-1.984h76.202c1.096 0 1.984.888 1.984 1.984a6.9 6.9 0 0 1-3.571 6.042l-26.816 14.758c-5.356 2.948-14.04 2.948-19.396 0z"/></g><path fill="#d5dfec" d="M241.133 42.76a6.65 6.65 0 0 1-3.445-5.827V29.95a6.65 6.65 0 0 1 3.445-5.828l26.942-14.828c5.356-2.947 14.04-2.947 19.396 0l26.942 14.828a6.65 6.65 0 0 1 3.445 5.828v6.982a6.65 6.65 0 0 1-3.445 5.827l-26.942 14.828c-5.356 2.948-14.04 2.948-19.396 0z"/><rect width="50.806" height="50.806" x=".365" fill="#fbfbfd" stroke="url(#u)" stroke-width=".416" rx="9.77" transform="matrix(.8769 -.48069 .8769 .48069 232.67 28.976)"/><path fill="#d5dfec" d="M95.07 188.823a6.65 6.65 0 0 1-3.444-5.828v-6.982a6.65 6.65 0 0 1 3.445-5.828l26.942-14.827c5.356-2.948 14.04-2.948 19.396 0l26.942 14.827a6.65 6.65 0 0 1 3.445 5.828v6.982a6.65 6.65 0 0 1-3.445 5.828l-26.942 14.828c-5.356 2.947-14.04 2.947-19.396 0z"/><rect width="50.806" height="50.806" x=".365" fill="#fbfbfd" stroke="url(#v)" stroke-width=".416" rx="9.77" transform="matrix(.8769 -.48069 .8769 .48069 86.607 175.038)"/><g filter="url(#w)"><path fill="#d5dfec" d="M152.304 157.044a6.9 6.9 0 0 1-3.571-6.042c0-1.095.888-1.983 1.984-1.983h76.202c1.096 0 1.984.888 1.984 1.983a6.9 6.9 0 0 1-3.572 6.042l-26.815 14.758c-5.356 2.948-14.04 2.948-19.396 0z"/></g><path fill="#d5dfec" d="M152.178 156.975a6.65 6.65 0 0 1-3.445-5.828v-6.982a6.65 6.65 0 0 1 3.445-5.828l26.942-14.828c5.356-2.947 14.04-2.947 19.396 0l26.942 14.828a6.65 6.65 0 0 1 3.445 5.828v6.982a6.65 6.65 0 0 1-3.445 5.828l-26.942 14.827c-5.356 2.948-14.04 2.948-19.396 0z"/><rect width="50.806" height="50.806" x=".365" fill="#fbfbfd" stroke="url(#x)" stroke-width=".416" rx="9.77" transform="matrix(.8769 -.48069 .8769 .48069 143.715 143.19)"/><path fill="#00d395" fill-rule="evenodd" d="M187.17 153.5c-1.108.16-2.276-.036-3.081-.518l-4.494-2.697c-.533-.32-.531-.84.005-1.159.17-.102.384-.175.616-.212l16.052-2.536c.938-.149 1.939.012 2.626.425l4.655 2.793c.641.382.644 1.004.004 1.388a2.1 2.1 0 0 1-.777.262zm6.584-14.185c.939-.149 1.939.015 2.627.425l9.447 5.668c.278.167.386.411.278.639l-.97 2.08a.3.3 0 0 1-.053.076l-5.246-3.147c-.678-.407-1.665-.571-2.599-.431l-14.23 2.147-5.922-3.553c-.533-.32-.531-.84.005-1.159.17-.102.384-.175.616-.212zm-2.538-6.85c.94-.15 1.943.013 2.63.425l13.798 8.279c.281.171.385.421.272.651l-.968 1.944-9.606-5.763c-.678-.407-1.663-.57-2.592-.432l-14.561 2.186-5.616-3.37a.9.9 0 0 1-.357-.368c-.19-.438.244-.886.971-1.002z" clip-rule="evenodd"/><g filter="url(#y)"><path fill="#d5dfec" d="M210.51 125.196a6.9 6.9 0 0 1-3.572-6.042c0-1.096.889-1.984 1.984-1.984h76.202c1.096 0 1.984.888 1.984 1.984a6.9 6.9 0 0 1-3.571 6.042l-26.816 14.758c-5.356 2.948-14.04 2.948-19.395 0z"/></g><path fill="#d5dfec" d="M210.383 125.126a6.65 6.65 0 0 1-3.445-5.827v-6.982a6.65 6.65 0 0 1 3.445-5.828l26.943-14.828c5.355-2.947 14.039-2.947 19.395 0l26.942 14.828a6.65 6.65 0 0 1 3.445 5.828v6.982a6.65 6.65 0 0 1-3.445 5.827l-26.942 14.828c-5.356 2.948-14.04 2.948-19.395 0z"/><rect width="50.806" height="50.806" x=".365" fill="#fbfbfd" stroke="url(#z)" stroke-width=".416" rx="9.77" transform="matrix(.8769 -.48069 .8769 .48069 201.92 111.342)"/><mask id="A" width="46" height="15" x="224" y="104" mask-type="alpha" maskUnits="userSpaceOnUse"><path fill="#c4c4c4" d="m234.933 118.394-9.891-5.934c-1.271-.763-1.248-2.013.023-2.775 12.083-7.25 31.889-7.379 43.973-.129 1.257.754 1.257 1.977 0 2.732l-10.177 6.106c-1.293.776-3.389.776-4.682 0-4.022-2.413-10.543-2.413-14.564 0-1.293.776-3.389.776-4.682 0"/></mask><g mask="url(#A)"><path fill="url(#B)" d="m234.933 118.394-9.891-5.934c-1.271-.763-1.248-2.013.023-2.775 12.083-7.25 31.889-7.379 43.973-.129 1.257.754 1.257 1.977 0 2.732l-10.177 6.106c-1.293.776-3.389.776-4.682 0-4.022-2.413-10.543-2.413-14.564 0-1.293.776-3.389.776-4.682 0"/><circle r="20.612" fill="url(#C)" transform="matrix(.8575 -.5145 .8575 .5145 246.963 123.491)"/><circle r="15.116" fill="url(#D)" transform="matrix(.8575 -.5145 .8575 .5145 246.962 123.491)"/></g><defs><linearGradient id="b" x1="49.616" x2="7.788" y1="3.367" y2=".199" gradientUnits="userSpaceOnUse"><stop stop-color="#c9cfdc"/><stop offset=".484" stop-color="#b0c1e4"/><stop offset="1" stop-color="#bfcce7" stop-opacity=".67"/></linearGradient><linearGradient id="d" x1="49.616" x2="7.788" y1="3.367" y2=".199" gradientUnits="userSpaceOnUse"><stop stop-color="#c9cfdc"/><stop offset=".484" stop-color="#b0c1e4"/><stop offset="1" stop-color="#bfcce7" stop-opacity=".67"/></linearGradient><linearGradient id="f" x1="49.616" x2="7.788" y1="3.367" y2=".199" gradientUnits="userSpaceOnUse"><stop stop-color="#c9cfdc"/><stop offset=".484" stop-color="#b0c1e4"/><stop offset="1" stop-color="#bfcce7" stop-opacity=".67"/></linearGradient><linearGradient id="i" x1="49.616" x2="7.788" y1="3.367" y2=".199" gradientUnits="userSpaceOnUse"><stop stop-color="#c9cfdc"/><stop offset=".484" stop-color="#b0c1e4"/><stop offset="1" stop-color="#bfcce7" stop-opacity=".67"/></linearGradient><linearGradient id="l" x1="49.616" x2="7.788" y1="3.367" y2=".199" gradientUnits="userSpaceOnUse"><stop stop-color="#c9cfdc"/><stop offset=".484" stop-color="#b0c1e4"/><stop offset="1" stop-color="#bfcce7" stop-opacity=".67"/></linearGradient><linearGradient id="n" x1="49.616" x2="7.788" y1="3.367" y2=".199" gradientUnits="userSpaceOnUse"><stop stop-color="#c9cfdc"/><stop offset=".484" stop-color="#b0c1e4"/><stop offset="1" stop-color="#bfcce7" stop-opacity=".67"/></linearGradient><linearGradient id="p" x1="49.616" x2="7.788" y1="3.367" y2=".199" gradientUnits="userSpaceOnUse"><stop stop-color="#c9cfdc"/><stop offset=".484" stop-color="#b0c1e4"/><stop offset="1" stop-color="#bfcce7" stop-opacity=".67"/></linearGradient><linearGradient id="s" x1="49.616" x2="7.788" y1="3.367" y2=".199" gradientUnits="userSpaceOnUse"><stop stop-color="#c9cfdc"/><stop offset=".484" stop-color="#b0c1e4"/><stop offset="1" stop-color="#bfcce7" stop-opacity=".67"/></linearGradient><linearGradient id="u" x1="49.616" x2="7.788" y1="3.367" y2=".199" gradientUnits="userSpaceOnUse"><stop stop-color="#c9cfdc"/><stop offset=".484" stop-color="#b0c1e4"/><stop offset="1" stop-color="#bfcce7" stop-opacity=".67"/></linearGradient><linearGradient id="v" x1="49.616" x2="7.788" y1="3.367" y2=".199" gradientUnits="userSpaceOnUse"><stop stop-color="#c9cfdc"/><stop offset=".484" stop-color="#b0c1e4"/><stop offset="1" stop-color="#bfcce7" stop-opacity=".67"/></linearGradient><linearGradient id="x" x1="49.616" x2="7.788" y1="3.367" y2=".199" gradientUnits="userSpaceOnUse"><stop stop-color="#c9cfdc"/><stop offset=".484" stop-color="#b0c1e4"/><stop offset="1" stop-color="#bfcce7" stop-opacity=".67"/></linearGradient><linearGradient id="z" x1="49.616" x2="7.788" y1="3.367" y2=".199" gradientUnits="userSpaceOnUse"><stop stop-color="#c9cfdc"/><stop offset=".484" stop-color="#b0c1e4"/><stop offset="1" stop-color="#bfcce7" stop-opacity=".67"/></linearGradient><filter id="a" width="93.348" height="38.173" x="25.063" y="79.122" color-interpolation-filters="sRGB" filterUnits="userSpaceOnUse"><feFlood flood-opacity="0" result="BackgroundImageFix"/><feColorMatrix in="SourceAlpha" values="0 0 0 0 0 0 0 0 0 0 0 0 0 0 0 0 0 0 127 0"/><feOffset dy="1.098"/><feGaussianBlur stdDeviation="3.295"/><feColorMatrix values="0 0 0 0 0 0 0 0 0 0 0 0 0 0 0 0 0 0 0.3 0"/><feBlend in2="BackgroundImageFix" result="effect1_dropShadow"/><feBlend in="SourceGraphic" in2="effect1_dropShadow" result="shape"/></filter><filter id="c" width="93.348" height="38.173" x="82.84" y="47.983" color-interpolation-filters="sRGB" filterUnits="userSpaceOnUse"><feFlood flood-opacity="0" result="BackgroundImageFix"/><feColorMatrix in="SourceAlpha" values="0 0 0 0 0 0 0 0 0 0 0 0 0 0 0 0 0 0 127 0"/><feOffset dy="1.098"/><feGaussianBlur stdDeviation="3.295"/><feColorMatrix values="0 0 0 0 0 0 0 0 0 0 0 0 0 0 0 0 0 0 0.3 0"/><feBlend in2="BackgroundImageFix" result="effect1_dropShadow"/><feBlend in="SourceGraphic" in2="effect1_dropShadow" result="shape"/></filter><filter id="e" width="93.348" height="38.173" x="139.947" y="16.135" color-interpolation-filters="sRGB" filterUnits="userSpaceOnUse"><feFlood flood-opacity="0" result="BackgroundImageFix"/><feColorMatrix in="SourceAlpha" values="0 0 0 0 0 0 0 0 0 0 0 0 0 0 0 0 0 0 127 0"/><feOffset dy="1.098"/><feGaussianBlur stdDeviation="3.295"/><feColorMatrix values="0 0 0 0 0 0 0 0 0 0 0 0 0 0 0 0 0 0 0.3 0"/><feBlend in2="BackgroundImageFix" result="effect1_dropShadow"/><feBlend in="SourceGraphic" in2="effect1_dropShadow" result="shape"/></filter><filter id="h" width="93.348" height="38.173" x=".902" y="155.997" color-interpolation-filters="sRGB" filterUnits="userSpaceOnUse"><feFlood flood-opacity="0" result="BackgroundImageFix"/><feColorMatrix in="SourceAlpha" values="0 0 0 0 0 0 0 0 0 0 0 0 0 0 0 0 0 0 127 0"/><feOffset dy="1.098"/><feGaussianBlur stdDeviation="3.295"/><feColorMatrix values="0 0 0 0 0 0 0 0 0 0 0 0 0 0 0 0 0 0 0.3 0"/><feBlend in2="BackgroundImageFix" result="effect1_dropShadow"/><feBlend in="SourceGraphic" in2="effect1_dropShadow" result="shape"/></filter><filter id="k" width="93.348" height="38.173" x="58.679" y="124.858" color-interpolation-filters="sRGB" filterUnits="userSpaceOnUse"><feFlood flood-opacity="0" result="BackgroundImageFix"/><feColorMatrix in="SourceAlpha" values="0 0 0 0 0 0 0 0 0 0 0 0 0 0 0 0 0 0 127 0"/><feOffset dy="1.098"/><feGaussianBlur stdDeviation="3.295"/><feColorMatrix values="0 0 0 0 0 0 0 0 0 0 0 0 0 0 0 0 0 0 0.3 0"/><feBlend in2="BackgroundImageFix" result="effect1_dropShadow"/><feBlend in="SourceGraphic" in2="effect1_dropShadow" result="shape"/></filter><filter id="m" width="93.348" height="38.173" x="115.787" y="93.01" color-interpolation-filters="sRGB" filterUnits="userSpaceOnUse"><feFlood flood-opacity="0" result="BackgroundImageFix"/><feColorMatrix in="SourceAlpha" values="0 0 0 0 0 0 0 0 0 0 0 0 0 0 0 0 0 0 127 0"/><feOffset dy="1.098"/><feGaussianBlur stdDeviation="3.295"/><feColorMatrix values="0 0 0 0 0 0 0 0 0 0 0 0 0 0 0 0 0 0 0.3 0"/><feBlend in2="BackgroundImageFix" result="effect1_dropShadow"/><feBlend in="SourceGraphic" in2="effect1_dropShadow" result="shape"/></filter><filter id="o" width="93.348" height="38.173" x="173.992" y="61.161" color-interpolation-filters="sRGB" filterUnits="userSpaceOnUse"><feFlood flood-opacity="0" result="BackgroundImageFix"/><feColorMatrix in="SourceAlpha" values="0 0 0 0 0 0 0 0 0 0 0 0 0 0 0 0 0 0 127 0"/><feOffset dy="1.098"/><feGaussianBlur stdDeviation="3.295"/><feColorMatrix values="0 0 0 0 0 0 0 0 0 0 0 0 0 0 0 0 0 0 0.3 0"/><feBlend in2="BackgroundImageFix" result="effect1_dropShadow"/><feBlend in="SourceGraphic" in2="effect1_dropShadow" result="shape"/></filter><filter id="r" width="93.348" height="38.173" x="227.657" y="164.914" color-interpolation-filters="sRGB" filterUnits="userSpaceOnUse"><feFlood flood-opacity="0" result="BackgroundImageFix"/><feColorMatrix in="SourceAlpha" values="0 0 0 0 0 0 0 0 0 0 0 0 0 0 0 0 0 0 127 0"/><feOffset dy="1.098"/><feGaussianBlur stdDeviation="3.295"/><feColorMatrix values="0 0 0 0 0 0 0 0 0 0 0 0 0 0 0 0 0 0 0.3 0"/><feBlend in2="BackgroundImageFix" result="effect1_dropShadow"/><feBlend in="SourceGraphic" in2="effect1_dropShadow" result="shape"/></filter><filter id="t" width="93.348" height="38.173" x="231.099" y="29.313" color-interpolation-filters="sRGB" filterUnits="userSpaceOnUse"><feFlood flood-opacity="0" result="BackgroundImageFix"/><feColorMatrix in="SourceAlpha" values="0 0 0 0 0 0 0 0 0 0 0 0 0 0 0 0 0 0 127 0"/><feOffset dy="1.098"/><feGaussianBlur stdDeviation="3.295"/><feColorMatrix values="0 0 0 0 0 0 0 0 0 0 0 0 0 0 0 0 0 0 0.3 0"/><feBlend in2="BackgroundImageFix" result="effect1_dropShadow"/><feBlend in="SourceGraphic" in2="effect1_dropShadow" result="shape"/></filter><filter id="w" width="93.348" height="38.173" x="142.144" y="143.527" color-interpolation-filters="sRGB" filterUnits="userSpaceOnUse"><feFlood flood-opacity="0" result="BackgroundImageFix"/><feColorMatrix in="SourceAlpha" values="0 0 0 0 0 0 0 0 0 0 0 0 0 0 0 0 0 0 127 0"/><feOffset dy="1.098"/><feGaussianBlur stdDeviation="3.295"/><feColorMatrix values="0 0 0 0 0 0 0 0 0 0 0 0 0 0 0 0 0 0 0.3 0"/><feBlend in2="BackgroundImageFix" result="effect1_dropShadow"/><feBlend in="SourceGraphic" in2="effect1_dropShadow" result="shape"/></filter><filter id="y" width="93.348" height="38.173" x="200.349" y="111.679" color-interpolation-filters="sRGB" filterUnits="userSpaceOnUse"><feFlood flood-opacity="0" result="BackgroundImageFix"/><feColorMatrix in="SourceAlpha" values="0 0 0 0 0 0 0 0 0 0 0 0 0 0 0 0 0 0 127 0"/><feOffset dy="1.098"/><feGaussianBlur stdDeviation="3.295"/><feColorMatrix values="0 0 0 0 0 0 0 0 0 0 0 0 0 0 0 0 0 0 0.3 0"/><feBlend in2="BackgroundImageFix" result="effect1_dropShadow"/><feBlend in="SourceGraphic" in2="effect1_dropShadow" result="shape"/></filter><radialGradient id="B" cx="0" cy="0" r="1" gradientTransform="rotate(-97.987 176.939 -46.214)scale(19.3156 32.1396)" gradientUnits="userSpaceOnUse"><stop offset=".765" stop-color="#f62c00"/><stop offset=".976" stop-color="#8d54cd"/></radialGradient><radialGradient id="C" cx="0" cy="0" r="1" gradientTransform="rotate(-46.225 35.748 -11.175)scale(22.7316 22.9498)" gradientUnits="userSpaceOnUse"><stop offset=".828" stop-color="#edfc04"/><stop offset="1" stop-color="#ff8f14"/></radialGradient><radialGradient id="D" cx="0" cy="0" r="1" gradientTransform="rotate(-49.112 24.863 -7.12)scale(16.5612 16.7201)" gradientUnits="userSpaceOnUse"><stop offset=".722" stop-color="#12b1e6"/><stop offset="1" stop-color="#0cdc02"/></radialGradient><clipPath id="g"><path fill="#fff" d="M162.946 14.903 186.164.972l23.219 13.93-23.219 13.932z"/></clipPath><clipPath id="j"><path fill="#fff" d="m21.081 156.486 27.78-16.415 24.693 14.591-27.78 16.415z"/></clipPath><clipPath id="q"><path fill="#fff" d="m190.893 62.513 29.5-17.7 28.448 17.068-29.5 17.7z"/></clipPath></defs></svg>