<svg xmlns="http://www.w3.org/2000/svg" width="123" height="139" viewBox="0 0 123 139"><defs><linearGradient id="a" x1="113.622%" x2="-4.138%" y1="45.001%" y2="55.677%"><stop offset="0%" stop-color="#49c1aa"/><stop offset="100%" stop-color="#31827a"/></linearGradient><linearGradient id="b" x1="43.363%" x2="12.374%" y1="104.827%" y2="355.608%"><stop offset="0%" stop-color="#49c1aa"/><stop offset="100%" stop-color="#31827a"/></linearGradient><linearGradient id="c" x1="87.797%" x2="31.822%" y1="27.236%" y2="60.873%"><stop offset="0%" stop-color="#49c1aa"/><stop offset="100%" stop-color="#31827a"/></linearGradient><linearGradient id="d" x1="35.111%" x2="-114.536%" y1="57.624%" y2="135.523%"><stop offset="0%" stop-color="#49c1aa"/><stop offset="100%" stop-color="#31827a"/></linearGradient><linearGradient id="e" x1="31.09%" x2="10.151%" y1="271.434%" y2="514.514%"><stop offset="0%" stop-color="#49c1aa"/><stop offset="100%" stop-color="#31827a"/></linearGradient><linearGradient id="g" x1="12.857%" x2="53.714%" y1="-28.147%" y2="60.358%"><stop offset="0%" stop-color="#dde6ff"/><stop offset="5.49%" stop-color="#f0f4ff"/><stop offset="11.2%" stop-color="#fbfcff"/><stop offset="17.19%" stop-color="#fff"/><stop offset="100%" stop-color="#d5e0ff"/></linearGradient><linearGradient id="h" x1="43.917%" x2="57.429%" y1="103.911%" y2="-14.984%"><stop offset="0%" stop-color="#99aac4"/><stop offset="100%" stop-color="#d5e0ff"/></linearGradient><linearGradient id="i" x1="27.574%" x2="72.414%" y1="53.885%" y2="45.596%"><stop offset="0%" stop-color="#99aac4"/><stop offset="100%" stop-color="#d5e0ff"/></linearGradient><linearGradient id="j" x1="28.922%" x2="82.962%" y1="6.948%" y2="117.264%"><stop offset="0%" stop-color="#dde6ff"/><stop offset="5.49%" stop-color="#f0f4ff"/><stop offset="11.2%" stop-color="#fbfcff"/><stop offset="17.19%" stop-color="#fff"/><stop offset="100%" stop-color="#d5e0ff"/></linearGradient><linearGradient id="k" x1="20.195%" x2="83.073%" y1="16.867%" y2="76.589%"><stop offset="0%" stop-color="#dde6ff"/><stop offset="5.49%" stop-color="#f0f4ff"/><stop offset="11.2%" stop-color="#fbfcff"/><stop offset="17.19%" stop-color="#fff"/><stop offset="100%" stop-color="#d5e0ff"/></linearGradient><linearGradient id="n" x1="78.217%" x2="-51.997%" y1="56.684%" y2="24.26%"><stop offset="0%" stop-color="#49c1aa"/><stop offset="100%" stop-color="#31827a"/></linearGradient><linearGradient id="o" x1=".005%" x2="100.002%" y1="50.016%" y2="50.016%"><stop offset="0%" stop-color="#49c1aa"/><stop offset="100%" stop-color="#80d8a7"/></linearGradient><linearGradient id="p" x1=".013%" x2="100.003%" y1="50.056%" y2="50.056%"><stop offset="0%" stop-color="#49c1aa"/><stop offset="100%" stop-color="#80d8a7"/></linearGradient><linearGradient id="q" x1="15.095%" x2="162.048%" y1="19.21%" y2="151.015%"><stop offset="0%" stop-color="#49c1aa"/><stop offset="100%" stop-color="#31827a"/></linearGradient><linearGradient id="r" x1="-56.392%" x2="95.825%" y1="-35.457%" y2="87.451%"><stop offset="0%" stop-color="#49c1aa"/><stop offset="100%" stop-color="#31827a"/></linearGradient><linearGradient id="s" x1="-.005%" x2="100.003%" y1="49.998%" y2="49.998%"><stop offset="0%" stop-color="#49c1aa"/><stop offset="100%" stop-color="#31827a"/></linearGradient><linearGradient id="t" x1=".003%" x2="100.002%" y1="50.004%" y2="50.004%"><stop offset="0%" stop-color="#49c1aa"/><stop offset="100%" stop-color="#80d8a7"/></linearGradient><linearGradient id="u" x1="36.296%" x2="39.8%" y1="54.227%" y2="53.31%"><stop offset="0%" stop-color="#99aac4"/><stop offset="100%" stop-color="#e9edff"/></linearGradient><linearGradient id="v" x1="46.61%" x2="48.045%" y1="75.476%" y2="60.665%"><stop offset="0%" stop-color="#99aac4"/><stop offset="100%" stop-color="#e9edff"/></linearGradient><linearGradient id="w" x1="389.809%" x2="-671.444%" y1="3.452%" y2="151.871%"><stop offset="0%" stop-color="#b4db3b"/><stop offset="54.1%" stop-color="#85a22c"/><stop offset="100%" stop-color="#bcdc6c"/></linearGradient><linearGradient id="x" x1="6.19%" x2="416.503%" y1="30.21%" y2="223.264%"><stop offset="0%" stop-color="#b4db3b"/><stop offset="54.1%" stop-color="#85a22c"/><stop offset="100%" stop-color="#bcdc6c"/></linearGradient><linearGradient id="y" x1="418.989%" x2="-267.017%" y1="17.948%" y2="77.474%"><stop offset="0%" stop-color="#b4db3b"/><stop offset="54.1%" stop-color="#85a22c"/><stop offset="100%" stop-color="#bcdc6c"/></linearGradient><linearGradient id="z" x1="63.91%" x2="49.39%" y1="44.146%" y2="50.41%"><stop offset="0%" stop-color="#b4db3b"/><stop offset="54.1%" stop-color="#85a22c"/><stop offset="100%" stop-color="#bcdc6c"/></linearGradient><linearGradient id="A" x1="442.281%" x2="-185.979%" y1="-24.193%" y2="94.129%"><stop offset="0%" stop-color="#b4db3b"/><stop offset="54.1%" stop-color="#85a22c"/><stop offset="100%" stop-color="#bcdc6c"/></linearGradient><linearGradient id="C" x1="39.08%" x2="61.09%" y1="50.28%" y2="50.28%"><stop offset=".046%" stop-color="#fff"/><stop offset="100%" stop-color="#d5e0ff"/></linearGradient><linearGradient id="D" x1="43.58%" x2="60.532%" y1="58.081%" y2="22.928%"><stop offset="0%" stop-color="#99aac4"/><stop offset="100%" stop-color="#d5e0ff"/></linearGradient><linearGradient id="E" x1="26.7%" x2="72.32%" y1="49.98%" y2="49.98%"><stop offset=".046%" stop-color="#fff"/><stop offset="100%" stop-color="#d5e0ff"/></linearGradient><linearGradient id="F" x1=".005%" x2="100.269%" y1="50.33%" y2="50.33%"><stop offset=".046%" stop-color="#fff"/><stop offset="100%" stop-color="#d5e0ff"/></linearGradient><linearGradient id="G" x1="45.866%" x2="57.336%" y1="4.991%" y2="75.365%"><stop offset="0%" stop-color="#dde6ff"/><stop offset="5.49%" stop-color="#f0f4ff"/><stop offset="11.2%" stop-color="#fbfcff"/><stop offset="17.19%" stop-color="#fff"/><stop offset="100%" stop-color="#d5e0ff"/></linearGradient><linearGradient id="H" x1="49.697%" x2="52.124%" y1="61.573%" y2="96.816%"><stop offset="0%" stop-color="#99aac4"/><stop offset="100%" stop-color="#d5e0ff"/></linearGradient><linearGradient id="I" x1="49.812%" x2="52.833%" y1="37.091%" y2="69.563%"><stop offset="0%" stop-color="#dde6ff"/><stop offset="5.49%" stop-color="#f0f4ff"/><stop offset="11.2%" stop-color="#fbfcff"/><stop offset="17.19%" stop-color="#fff"/><stop offset="100%" stop-color="#d5e0ff"/></linearGradient><linearGradient id="J" x1="67.124%" x2="11.687%" y1="40.963%" y2="77.492%"><stop offset=".046%" stop-color="#fff"/><stop offset="100%" stop-color="#d5e0ff"/></linearGradient><linearGradient id="K" x1=".018%" x2="99.979%" y1="49.957%" y2="49.957%"><stop offset="0%" stop-color="#99aac4"/><stop offset="100%" stop-color="#d5e0ff"/></linearGradient><linearGradient id="L" x1="57.322%" x2="44.304%" y1="58.141%" y2="36.528%"><stop offset="0%" stop-color="#dde6ff"/><stop offset="5.49%" stop-color="#f0f4ff"/><stop offset="11.2%" stop-color="#fbfcff"/><stop offset="17.19%" stop-color="#fff"/><stop offset="100%" stop-color="#d5e0ff"/></linearGradient><linearGradient id="M" x1="26.637%" x2="104.263%" y1="37.234%" y2="62.893%"><stop offset=".046%" stop-color="#fff"/><stop offset="100%" stop-color="#d5e0ff"/></linearGradient><linearGradient id="N" x1=".04%" x2="99.896%" y1="49.777%" y2="49.777%"><stop offset="0%" stop-color="#f4eee5"/><stop offset="100%" stop-color="#f4e2cb"/></linearGradient><linearGradient id="O" x1=".038%" x2="100.007%" y1="49.991%" y2="49.991%"><stop offset="0%" stop-color="#49c1aa"/><stop offset="100%" stop-color="#80d8a7"/></linearGradient><linearGradient id="P" x1="-.136%" x2="99.935%" y1="49.849%" y2="49.849%"><stop offset="13.44%" stop-color="#f1d57a"/><stop offset="32.93%" stop-color="#f1d374"/><stop offset="57.9%" stop-color="#f1ce64"/><stop offset="85.75%" stop-color="#f1c64a"/><stop offset="100%" stop-color="#f1c13a"/></linearGradient><linearGradient id="Q" x1=".058%" x2="99.418%" y1="40.93%" y2="58.881%"><stop offset="0%" stop-color="#ffdf9e"/><stop offset="100%" stop-color="#ffba66"/></linearGradient><linearGradient id="R" x1="7.09%" x2="93.353%" y1="65.156%" y2="34.319%"><stop offset="0%" stop-color="#f4eee5"/><stop offset="100%" stop-color="#f4e2cb"/></linearGradient><linearGradient id="S" x1="3.415%" x2="95.874%" y1="58.844%" y2="41.309%"><stop offset="0%" stop-color="#f4eee5"/><stop offset="100%" stop-color="#f4e2cb"/></linearGradient><linearGradient id="T" x1="-.074%" x2="99.85%" y1="49.788%" y2="49.788%"><stop offset="0%" stop-color="#f1963a"/><stop offset="23.27%" stop-color="#f09038"/><stop offset="55.77%" stop-color="#ed7d31"/><stop offset="93.53%" stop-color="#e86026"/><stop offset="100%" stop-color="#e75a24"/></linearGradient><linearGradient id="U" x1=".044%" x2="99.968%" y1="49.47%" y2="49.47%"><stop offset="0%" stop-color="#f4eee5"/><stop offset="100%" stop-color="#f4e2cb"/></linearGradient><linearGradient id="V" x1="-.039%" x2="99.885%" y1="49.837%" y2="49.837%"><stop offset="0%" stop-color="#f4eee5"/><stop offset="100%" stop-color="#f4e2cb"/></linearGradient><linearGradient id="W" x1=".885%" x2="99.325%" y1="46.863%" y2="52.866%"><stop offset="13.44%" stop-color="#f1d57a"/><stop offset="32.93%" stop-color="#f1d374"/><stop offset="57.9%" stop-color="#f1ce64"/><stop offset="85.75%" stop-color="#f1c64a"/><stop offset="100%" stop-color="#f1c13a"/></linearGradient><linearGradient id="X" x1="91.4%" x2="-44.972%" y1="61.373%" y2="23.413%"><stop offset="0%" stop-color="#49c1aa"/><stop offset="100%" stop-color="#31827a"/></linearGradient><linearGradient id="Z" x1="31.952%" x2="66.406%" y1="74.115%" y2="24.802%"><stop offset="0%" stop-color="#dde6ff"/><stop offset="5.49%" stop-color="#f0f4ff"/><stop offset="11.2%" stop-color="#fbfcff"/><stop offset="17.19%" stop-color="#fff"/><stop offset="100%" stop-color="#d5e0ff"/></linearGradient><linearGradient id="aa" x1="112.789%" x2="23.362%" y1="128.606%" y2="18.54%"><stop offset="0%" stop-color="#99aac4"/><stop offset="100%" stop-color="#d5e0ff"/></linearGradient><linearGradient id="ab" x1="22.215%" x2="120.597%" y1="34.861%" y2="93.699%"><stop offset="0%" stop-color="#99aac4"/><stop offset="100%" stop-color="#d5e0ff"/></linearGradient><linearGradient id="ac" x1="9.838%" x2="87.416%" y1="28.278%" y2="61.474%"><stop offset="13.44%" stop-color="#f1d57a"/><stop offset="32.93%" stop-color="#f1d374"/><stop offset="57.9%" stop-color="#f1ce64"/><stop offset="85.75%" stop-color="#f1c64a"/><stop offset="100%" stop-color="#f1c13a"/></linearGradient><linearGradient id="ad" x1="5.142%" x2="95.357%" y1="43.761%" y2="56.015%"><stop offset="0%" stop-color="#f1963a"/><stop offset="23.27%" stop-color="#f09038"/><stop offset="55.77%" stop-color="#ed7d31"/><stop offset="93.53%" stop-color="#e86026"/><stop offset="100%" stop-color="#e75a24"/></linearGradient><linearGradient id="ae" x1="44.223%" x2="55.785%" y1="39.773%" y2="60.248%"><stop offset="0%" stop-color="#f1963a"/><stop offset="23.27%" stop-color="#f09038"/><stop offset="55.77%" stop-color="#ed7d31"/><stop offset="93.53%" stop-color="#e86026"/><stop offset="100%" stop-color="#e75a24"/></linearGradient><linearGradient id="af" x1="139.428%" x2="19.41%" y1="32.865%" y2="56.003%"><stop offset="0%" stop-color="#f1963a"/><stop offset="23.27%" stop-color="#f09038"/><stop offset="55.77%" stop-color="#ed7d31"/><stop offset="93.53%" stop-color="#e86026"/><stop offset="100%" stop-color="#e75a24"/></linearGradient><linearGradient id="ag" x1="44.331%" x2="55.704%" y1="43.984%" y2="56.734%"><stop offset="0%" stop-color="#f1963a"/><stop offset="23.27%" stop-color="#f09038"/><stop offset="55.77%" stop-color="#ed7d31"/><stop offset="93.53%" stop-color="#e86026"/><stop offset="100%" stop-color="#e75a24"/></linearGradient><radialGradient id="f" cx="212.249%" cy="-4.499%" r="297.359%" fx="212.249%" fy="-4.499%" gradientTransform="matrix(.97543 .09951 -.2203 .44061 .042 -.236)"><stop offset="10.29%" stop-color="#fff" stop-opacity=".8"/><stop offset="100%" stop-color="#fff" stop-opacity="0"/></radialGradient><radialGradient id="l" cx="50.005%" cy="50.012%" r="146.503%" fx="50.005%" fy="50.012%" gradientTransform="matrix(.24869 0 0 1 .376 0)"><stop offset="0%" stop-color="#babac4" stop-opacity=".7"/><stop offset="100%" stop-color="#fff" stop-opacity="0"/></radialGradient><radialGradient id="B" cx="-53.634%" cy="42.432%" r="179.408%" fx="-53.634%" fy="42.432%" gradientTransform="matrix(-.47372 .7643 -.56145 -.64487 -.552 1.108)"><stop offset="10.29%" stop-color="#fff" stop-opacity=".8"/><stop offset="100%" stop-color="#fff" stop-opacity="0"/></radialGradient><radialGradient id="Y" cx="49.948%" cy="50.041%" r="66.906%" fx="49.948%" fy="50.041%" gradientTransform="matrix(.74715 0 0 1 .126 0)"><stop offset="0%" stop-color="#babac4" stop-opacity=".7"/><stop offset="100%" stop-color="#fff" stop-opacity="0"/></radialGradient><radialGradient id="ah" cx="98.278%" cy="-.577%" r="132.819%" fx="98.278%" fy="-.577%" gradientTransform="matrix(.93226 .2788 -.36178 .71845 .064 -.276)"><stop offset="23.81%" stop-color="#fff" stop-opacity=".8"/><stop offset="100%" stop-color="#fff" stop-opacity="0"/></radialGradient><filter id="m" width="136.9%" height="248.3%" x="-18.4%" y="-74.1%" filterUnits="objectBoundingBox"><feGaussianBlur in="SourceGraphic" stdDeviation="5"/></filter></defs><g fill="none" fill-rule="evenodd"><g fill-rule="nonzero"><path fill="#88d6c8" d="m22.14 65.28-2.77 1.31-.19.41-.97 2.05-.42.9-.61-2.01-.17-.58-1.29.22-1.37.25 2.29-2.91-.07-3.08 2.2.79.33-.3 2.28-2.06-.43 1.6-.5 1.8z"/><path fill="url(#a)" d="m3.18 7.94-1.86.32c-.09.02-.19 0-.27-.05l-.7-.38 1.38-.24 1.28-.22z" transform="translate(14 60)"/><path fill="url(#b)" d="M6.19 7.05 4.7 10.23c-.04.09-.16.13-.25.08l-.66-.36.42-.89L5.36 6.6z" transform="translate(14 60)"/><path fill="url(#c)" d="M8.97 5.74 6.19 7.05l-.82-.46 2.77-1.31z" transform="translate(14 60)"/><path fill="url(#d)" d="m8.97 5.74-.83-.46-1.69-1.61.83.45z" transform="translate(14 60)"/><path fill="url(#e)" d="m8.17.87-.89 3.25-.83-.45.49-1.8.43-1.6.7.38c.09.05.12.14.1.22" transform="translate(14 60)"/><path fill="url(#f)" d="M8.14 5.28 5.37 6.59 5.18 7 5.1 2.33 7.38.27l-.43 1.6-.5 1.8z" transform="translate(14 60)"/></g><g fill-rule="nonzero"><path fill="url(#g)" d="M8.25 17.12c-.24.07-2.28.3-2.52.27C2.72 17.05.01 8.7.01 8.7l3.49.12c0-.01 2.14 6.59 4.75 8.3" transform="translate(0 48)"/><path fill="url(#h)" d="M19.93 1.12c-2.79.7-5.16 7.27-8.08 13.86-.98 2.21-2 2.98-2.99 2.85l-1.74-.21-1.39-.25c.24.03.48 0 .72-.07.77-.25 1.56-1.1 2.3-2.79C11.92 7.34 14.43.24 17.55.6c.02 0 .06.01.08.01.04 0 .09.02.13.03.26.07 1.9.31 2.17.48" transform="translate(0 48)"/><path fill="url(#i)" d="M40.29 13.99c-2.43-.28-5.08.07-7.75 1.02-1.44.52-2.41.3-3.32-.13.54-.01-1.44-.5-.8-.73 3.33-1.17 9.01-.87 11.87-.16" transform="translate(0 48)"/><path fill="url(#j)" d="M22.69 2.82c3.39 4.43 4.11 10.88 7.38 12.37-4.81.23-6.18-7.69-10.09-12.81-.5-.66-1.01-1.13-1.46-1.41-.27-.17-.51-.27-.76-.33l1.41.27 1.41.21c.68.19 1.38.73 2.11 1.7" transform="translate(0 48)"/><path fill="url(#k)" d="M49.62 18.37c3.32 5.08 5.35 9.54 8.07 10.67l-1.71-.31c-2.7-1.14-5.51-4.84-8.83-9.95-1.64-2.51-4.05-4.11-6.85-4.79 3.52.39 7.35 1.35 9.32 4.38" transform="translate(0 48)"/></g><path fill="url(#l)" fill-rule="nonzero" d="M23.64 114.24s-1.1.9 3.39 2.62 28.76 10.79 33.93 10.44c5.17-.34 45.32-7.93 43.87-12.5s-35.77-7.74-40.64-7.72c-4.85.03-40.55 7.16-40.55 7.16" filter="url(#m)"/><path fill="url(#n)" fill-rule="nonzero" d="m66.53 117.75-37.32-13.06-7.47-27.37 37.33 9.95z"/><path fill="url(#o)" fill-rule="nonzero" d="m69.66 54.31-.02-.01-47.9 23.02 37.32 9.95 16.35-8.68 34.04-18.07zm5.68 23.99-16.27 8.65-31.21-8.25-5.22-1.38 47.09-22.71h.01l.01-.01 38.83 6.02-4.92 2.62z"/><path fill="#88d6c8" fill-rule="nonzero" d="M70.56 58.11h-.01L27.86 78.7l-5.22-1.38 47.09-22.71z"/><path fill="url(#p)" fill-rule="nonzero" d="m108.58 60.63-4.92 2.61-33.1-5.13-.83-3.5.02-.01z"/><path fill="#e3eeed" fill-rule="nonzero" d="m75.34 78.3-16.27 8.65-31.21-8.25 42.69-20.59h.01z"/><path fill="#d3e0df" fill-rule="nonzero" d="M103.66 63.24 75.34 78.3l-4.78-20.19z"/><path fill="url(#q)" fill-rule="nonzero" d="m37.94.88 10.5 9.4-3.05 9.3L35.2 9.89z"/><path fill="url(#r)" fill-rule="nonzero" d="m65.76 25.81-3.53 9.79-15.88-15.27 3.18-9.41 3.66 3.63z"/><path fill="url(#s)" fill-rule="nonzero" d="m122.14 35.99-3.39 8.62-56.52-9.01 3.53-9.79L116.63 35l2.57.46z"/><path d="m45.39 19.58-.02.05m7.5-5.72-.09.27m-3.18 9.41-.07.21"/><path fill="url(#t)" fill-rule="nonzero" d="m122.14 35.99-2.94-.53-2.57-.46-15.84-2.86-9.82-1.78-25.21-4.55-12.57-11.26-.41-.37-4.34-3.9-10.5-9.4 24.94 4.06 7.63 1.24 17.17 2.79 13.6 10.66 5.3 4.17h.01z"/><path fill="url(#u)" fill-rule="nonzero" d="m106.58 23.79-19.45-3.37-8.83-1.53s-23.38-4.85-25.52-4.71c-2.48.16-3.18 9.41-3.18 9.41l-4.21-4.01s.78-8.38 3.05-9.3c3.37-1.36 25.29 4.48 25.29 4.48l8.55 1.51 19 3.36z"/><path fill="url(#v)" fill-rule="nonzero" d="M100.79 32.14c.75 2.29-3.17 9.1-3.17 9.1l-9.94-1.58s4.07-6.92 3.26-9.23C89.16 25.34 61.24 4.7 61.24 4.7l7.63 1.25s30.29 21.17 31.92 26.19"/><path d="m69.73 54.61-.07-.3"/><g fill-rule="nonzero"><path fill="#cee580" d="m20.48 30.26 4.5-.53.63.36 3.22 1.83 1.39.8-1.37-3.02-.39-.86 1.69-.74 1.82-.78-5.6-1.87-3.08-3.93-1.69 2.73-.7-.12-4.71-.79 2.14 1.67 2.41 1.88z"/><path fill="url(#w)" d="m13.99 9.06 2.05-.65.93-2.09-1.82.78-1.69.74z" transform="translate(15 21)"/><path fill="url(#x)" d="M9.06 10.82 14 13.64c.16.09.36.02.43-.14l.79-1.78-1.4-.8-3.84-2.19z" transform="translate(15 21)"/><path fill="url(#y)" d="m4.55 11.36 4.51-.54.92-2.09-4.5.53z" transform="translate(15 21)"/><path fill="url(#z)" d="m4.55 11.36.93-2.1.26-3.37-.93 2.1z" transform="translate(15 21)"/><path fill="url(#A)" d="m.56 4.67 4.25 3.32.93-2.09-2.41-1.88-2.14-1.67L.41 4.1c-.08.19-.02.43.15.57" transform="translate(15 21)"/><path fill="url(#B)" d="m5.48 9.26 4.5-.53.63.36L5.9 3.13l-4.71-.79 2.14 1.67 2.41 1.88z" transform="translate(15 21)"/></g><path fill="url(#C)" fill-rule="nonzero" d="m78.89 18.43-.22-.17c.02-.02.03-.04.05-.05.1.14.17.22.17.22"/><g fill-rule="nonzero"><path fill="#6d6d6d" d="M84.72 18.22c-1.44.07-2.68.54-2.68.54"/><path fill="url(#D)" d="M18.66 21.44c-2.1.84-9.12-6.55-9.82-6.81-.06-.06-.11.11 0 0 .65-.41 2.03-.33 3.88-.4 2.11-.12 5.35.07 8.48 1.71 5.26 2.73-2.54 5.5-2.54 5.5" transform="translate(72 4)"/><path fill="url(#E)" d="M3.22 1.61c.15.14.3.32.46.52-.17-.2-.31-.37-.46-.52" transform="translate(72 4)"/><path fill="url(#F)" d="m7.36 12.61 1.82 1.42c-.09.07-.19.16-.28.25-.47.47-.56-.74-1.3-.55v-.01c0 .01-.08-.42-.24-1.11" transform="translate(72 4)"/><path fill="url(#G)" d="M10.77 11.94c.07.99-.47 1.09-1.54 2.05-.49-.62-1.93-2.57-2.23-4.48-.37-2.32-1.92-8.78-4.56-9C6.5.33 7.64.21 8.47 1.63c1.66 2.83 2 6.15 2.3 10.31" transform="translate(72 4)"/><path fill="url(#H)" d="M7 11.08C5.57 10.01 3.22 8.57.59 7.09.26 5.94-.38 3.14.52 1.6c0 0 .01-.01.02-.03l.03-.03v-.01c.04-.04.09-.1.16-.17s.16-.14.26-.21c.33-.22.81-.39 1.41-.13.08.04.17.07.26.14.18.09.36.24.56.46.15.14.3.32.46.52.1.14.21.29.32.46 1.26 1.96 2.35 5.86 3 8.48" transform="translate(72 4)"/><path fill="url(#I)" d="M9.1 13.12c-.42-.41-.74-.32.98-.5 1.64-.18 1.65-.2 1.65-.2l.39.2c0 .31-.94 1.79-1.73 1.58-.8-.22-.92-.72-1.29-1.08" transform="translate(71 4)"/><path fill="url(#J)" d="M8.36 9.59C7.97 7.27 6.08.73 3.43.51 1.45.34.99 1.9.89 2.74.74 3.91.64 6.12 1.68 7.4c1.36 1.66 6.33 5.8 6.33 5.8l1.82 1.42c.02-.02.37-.62.39-.63-.48-.62-1.2-.47-1.86-4.4M1.83 7c-.74-.94-1.21-3.86-.3-5.41 0 0 .01-.01.02-.03l.03-.03v-.01c.04-.04.09-.1.16-.17s.16-.15.26-.21c.33-.22.81-.39 1.41-.13.08.04.17.07.26.14.18.09.36.24.56.46.15.14.3.32.46.52.1.14.21.29.32.46 1.27 1.97 2.36 5.87 3.01 8.49C6.56 10.01 3.69 9.37 1.83 7" transform="translate(71 4)"/><path fill="url(#K)" d="M5.12 2.66c1.27 1.97 2.9 8.17 3.54 10.79C7.23 12.38 2.79 8.6 1.83 7 1.21 5.97.75 3.21 1.66 1.66c0 0 .01-.01.02-.03l.03-.03c.04-.04.09-.1.16-.17s.16-.14.26-.21c.33-.22.81-.39 1.41-.13.08.04.17.07.26.14.18.09.36.24.56.46.15.14.3.32.46.52.09.13.2.28.3.45" transform="translate(71 4)"/><path fill="url(#L)" d="M25.56 21.1c-.7.79-4.51.74-6.01.49-.29-.05-.49-.1-.58-.16 0 0 2.88-2.9-2.38-5.65-3.13-1.63-4.29-1.47-6.41-1.35.01-.16.04-.29.07-.4.2-.56.8-.71 1.86-1.42 1.38-.42 6.45-.6 8.63-.2 6.56 1.18 6.21 7.13 4.82 8.69" transform="translate(71 4)"/><path fill="url(#M)" d="M19.55 21.6c-.29-.05-.49-.1-.58-.16 0 0 2.88-2.9-2.38-5.65-3.13-1.63-4.29-1.47-6.41-1.35.01-.16.04-.29.07-.4 1.2-.23 9.44-.05 10.16 5.15.2 1.38-.34 2.1-.86 2.41" transform="translate(71 4)"/></g><ellipse cx="24.69" cy="53.15" fill="url(#N)" fill-rule="nonzero" rx="2.12" ry="1.03"/><ellipse cx="67.58" cy="72.4" fill="url(#O)" fill-rule="nonzero" rx="2.08" ry="1.61"/><ellipse cx="6.78" cy="73.05" fill="#cee580" fill-rule="nonzero" rx="1.64" ry="1.23"/><path fill="url(#P)" fill-rule="nonzero" d="M91.54 56.01c.31.47-.27 1.4-1.29 2.08s-2.11.83-2.42.36.27-1.4 1.29-2.08 2.11-.84 2.42-.36"/><ellipse cx="79.356" cy="45.149" fill="#e9e5f3" fill-rule="nonzero" rx="1.17" ry="1" transform="rotate(-65.329 79.356 45.149)"/><ellipse cx="41.824" cy="27.317" fill="#cee580" fill-rule="nonzero" rx="1.46" ry="1" transform="rotate(-80.439 41.824 27.317)"/><path fill="url(#Q)" fill-rule="nonzero" d="M19.67 45.76c-.1.27-.9.21-1.8-.13s-1.53-.82-1.43-1.09.9-.21 1.8.13 1.53.82 1.43 1.09"/><circle cx="108.575" cy="51.689" r="1" fill="#e9e5f3" fill-rule="nonzero" transform="rotate(-30.001 108.575 51.689)"/><ellipse cx="98.865" cy="55.707" fill="#cee580" fill-rule="nonzero" rx="1.57" ry="1" transform="rotate(-19.537 98.865 55.707)"/><path fill="url(#R)" fill-rule="nonzero" d="M36.81 115.91c.12.42-.44.95-1.26 1.19-.82.23-1.57.08-1.69-.35-.12-.42.44-.95 1.26-1.19.81-.23 1.57-.08 1.69.35"/><path fill="url(#S)" fill-rule="nonzero" d="M77.48 120.32c.03.44-.62.85-1.47.91-.85.07-1.56-.24-1.59-.68s.62-.85 1.47-.91c.84-.06 1.55.24 1.59.68"/><ellipse cx="37.537" cy="116.316" fill="#cee580" fill-rule="nonzero" rx="1" ry="1.54" transform="rotate(-85.527 37.537 116.316)"/><ellipse cx="27.87" cy="110.214" fill="#e9e5f3" fill-rule="nonzero" rx="1.28" ry="1" transform="rotate(-9.015 27.87 110.214)"/><path fill="url(#T)" fill-rule="nonzero" d="M56.34 121.55c.06.36-.46.75-1.16.86s-1.31-.09-1.37-.45.46-.75 1.16-.86 1.31.09 1.37.45"/><path fill="url(#U)" fill-rule="nonzero" d="M38.21 127.12c.06.36-.46.75-1.16.86s-1.31-.09-1.37-.45.46-.75 1.16-.86 1.31.08 1.37.45"/><path fill="url(#V)" fill-rule="nonzero" d="M94.72 105.8c.06.36-.46.75-1.16.86s-1.31-.09-1.37-.45.46-.75 1.16-.86c.7-.12 1.31.09 1.37.45"/><ellipse cx="59.081" cy="124.483" fill="#88d6c8" fill-rule="nonzero" rx="1.28" ry="1" transform="rotate(-9.015 59.08 124.483)"/><ellipse cx="60.24" cy="123.623" fill="#e9e5f3" fill-rule="nonzero" rx="1.28" ry="1" transform="rotate(-9.015 60.24 123.623)"/><ellipse cx="71.842" cy="127.323" fill="#e9e5f3" fill-rule="nonzero" rx="1.28" ry="1" transform="rotate(-9.015 71.842 127.323)"/><ellipse cx="109.32" cy="106.66" fill="#e9e5f3" fill-rule="nonzero" rx="1.28" ry="1"/><ellipse cx="27.149" cy="114.474" fill="#88d6c8" fill-rule="nonzero" rx="1.28" ry="1" transform="rotate(-9.015 27.149 114.474)"/><path fill="url(#W)" fill-rule="nonzero" d="M87.6 117.7c.01.37-.55.69-1.25.72-.71.03-1.29-.24-1.31-.61-.01-.37.55-.69 1.25-.72.71-.03 1.3.25 1.31.61"/><path fill="url(#X)" fill-rule="nonzero" d="m116.29 89.76-49.76 27.99-7.46-30.48 16.34-8.67 34.04-18.07z"/><ellipse cx="52.78" cy="72.51" fill="url(#Y)" fill-rule="nonzero" rx="24.6" ry="18.38"/><g fill-rule="nonzero"><path fill="url(#Z)" d="M23.55 1.49c-5.74 1.31-9.6 3.88-10.4 5.97-.56 1.47-1.59 1.71-2.31 1.74.4-.27-.72-.42-.38-1.02 1.99-3.5 7.42-6.81 13.09-6.69" transform="translate(48 63)"/><path fill="url(#aa)" d="M4.77 1c2.96 2.53 4.85 7.93 7.44 7.75-3.58 2.56-6.09-3.92-9.51-6.84-.44-.38-.86-.57-1.23-.61-.22-.03-.41 0-.6.06L1.95.93 3.03.44c.52-.16 1.1.01 1.74.56" transform="translate(48 63)"/><path fill="url(#ab)" d="M26.44 2.55c2.98 3.18 4.93 6.39 7.07 6.13l-1.31.54c-3.44.88-4.59-1.88-7.57-5.08-1.47-1.57-3.43-1.9-5.59-1.18 2.67-1.35 5.63-2.31 7.4-.41" transform="translate(48 63)"/></g><g fill-rule="nonzero"><path fill="url(#ac)" d="m21.65 26.2-2.2 10.03-7.26-9.07-11.47 1.8 6.26-10.82L2.55 7.05l10.72 2.29.4.09L22.43.78l.61 12.29 9.83 5.74-10.74 5.2z" transform="translate(32 40)"/><path fill="url(#ad)" d="m.71 28.96 2.09 2.68c.24.31.62.46 1 .4l10.86-1.7-2.47-3.17z" transform="translate(32 40)"/><path fill="url(#ae)" d="m22.43.77 2.06 2.64c.27.34.42.78.45 1.24l.49 9.81-2.38-1.39z" transform="translate(32 40)"/><path fill="url(#af)" d="m32.87 18.81 2.31 2.96c.08.1.04.27-.08.33l-10.5 5.09-2.47-3.17z" transform="translate(32 40)"/><path fill="url(#ag)" d="m19.45 36.23 1.98 2.54c.2.26.6.13.68-.21L24.6 27.2l-2.47-3.17z" transform="translate(32 40)"/><path fill="url(#ah)" d="m22.13 24.01-.48 2.18c-3.99-4.71-6.72-11.59-8.37-16.86l.4.09L22.43.77l.61 12.29 9.83 5.75z" transform="translate(32 40)"/></g></g></svg>