<svg xmlns="http://www.w3.org/2000/svg" width="48" height="48" fill="none" viewBox="0 0 48 48"><rect width="48" height="48" fill="#15111d" rx="14"/><rect width="47" height="47" x=".5" y=".5" stroke="#fff" stroke-opacity=".1" rx="13.5"/><path fill="#ec136d" d="m30.548 19.466 1.698 1.995c.194.224.367.409.437.514.508.504.792 1.187.792 1.898-.048.838-.594 1.41-1.1 2.02l-1.19 1.396-.62.723a.169.169 0 0 0 .136.282h6.197c.946 0 2.138.796 2.069 2.003a2.06 2.06 0 0 1-.618 1.463 2.13 2.13 0 0 1-1.484.609H27.16c-.638 0-2.355.069-2.835-1.396a1.7 1.7 0 0 1-.04-.947c.139-.463.36-.899.652-1.287a59 59 0 0 1 1.537-2.148c.672-.918 1.361-1.807 2.04-2.744a.17.17 0 0 0 0-.213l-2.465-2.892a.17.17 0 0 0-.138-.068.17.17 0 0 0-.137.068c-.66.878-3.551 4.768-4.168 5.557-.616.788-2.135.831-2.975 0l-3.856-3.815a.18.18 0 0 0-.192-.038.18.18 0 0 0-.108.161v7.336c.009.52-.148 1.03-.448 1.46-.3.428-.728.753-1.225.93a2.14 2.14 0 0 1-1.914-.268 2.1 2.1 0 0 1-.653-.74 2.06 2.06 0 0 1-.236-.952V17.184c.022-.475.196-.931.496-1.304a2.3 2.3 0 0 1 1.177-.771 2.4 2.4 0 0 1 1.216.003c.399.107.761.315 1.051.604l5.928 5.85a.174.174 0 0 0 .265-.022l4.211-5.744a2.1 2.1 0 0 1 1.599-.756h10.955a2.13 2.13 0 0 1 1.582.71 2.05 2.05 0 0 1 .502 1.64 2.1 2.1 0 0 1-.737 1.304 2.17 2.17 0 0 1-1.424.504h-6.134a.17.17 0 0 0-.149.091.17.17 0 0 0 .01.172"/></svg>