<svg xmlns="http://www.w3.org/2000/svg" width="48" height="48" fill="none" viewBox="0 0 48 48"><rect width="48" height="48" fill="#2081e2" rx="14"/><rect width="47" height="47" x=".5" y=".5" stroke="#fff" stroke-opacity=".1" rx="13.5"/><path fill="#fff" d="m11.314 25.833.1-.157 6.077-9.463a.208.208 0 0 1 .365.026c1.015 2.265 1.891 5.082 1.481 6.835-.175.721-.655 1.698-1.195 2.601q-.105.198-.228.385a.2.2 0 0 1-.173.09h-6.25a.206.206 0 0 1-.177-.317"/><path fill="#fff" d="M38.4 27.59v1.498a.22.22 0 0 1-.13.196c-.47.201-2.08.937-2.75 1.864-1.709 2.367-3.014 5.752-5.933 5.752H17.412c-4.315 0-7.812-3.492-7.812-7.802v-.139c0-.114.094-.207.209-.207h6.787c.134 0 .233.124.22.255-.047.44.034.889.243 1.297a2.39 2.39 0 0 0 2.141 1.324h3.36v-2.611h-3.322a.213.213 0 0 1-.172-.335q.054-.081.12-.176a25 25 0 0 0 1.21-1.921c.304-.53.6-1.097.837-1.665.048-.103.086-.208.125-.31.064-.182.132-.352.18-.521.048-.144.086-.294.124-.435.113-.483.161-.994.161-1.524 0-.208-.01-.426-.029-.633a8 8 0 0 0-.067-.681 7 7 0 0 0-.093-.607 10 10 0 0 0-.192-.908l-.027-.114c-.057-.208-.105-.407-.173-.614a23 23 0 0 0-.638-1.883c-.084-.236-.18-.463-.276-.69-.142-.342-.286-.652-.418-.946a13 13 0 0 1-.182-.38 13 13 0 0 0-.2-.416c-.047-.102-.102-.198-.14-.294l-.411-.755a.133.133 0 0 1 .151-.193l2.568.693h.007l.01.002.338.093.372.105.137.039v-1.52c0-.733.59-1.328 1.32-1.328.365 0 .696.148.934.39.237.24.386.57.386.938v2.255l.274.077a.2.2 0 0 1 .062.03q.101.078.286.216c.096.076.199.17.324.265.247.198.542.454.866.748q.13.111.247.227c.418.387.886.84 1.332 1.342q.186.21.372.435c.125.153.257.303.372.454.151.2.315.409.456.626.067.103.144.208.209.31.182.275.343.56.497.844.065.131.132.274.19.415.17.38.304.767.39 1.154.027.084.046.175.056.256v.019c.029.115.038.236.048.36a3.84 3.84 0 0 1-.209 1.692c-.058.162-.115.332-.19.492a7 7 0 0 1-.516.975 6 6 0 0 1-.218.351c-.084.122-.17.236-.247.349a7 7 0 0 1-.334.427 5 5 0 0 1-.324.406c-.16.19-.314.368-.475.54-.096.113-.2.227-.305.33-.103.115-.209.217-.305.313-.16.16-.295.284-.408.387l-.264.241a.22.22 0 0 1-.141.053H25.2v2.61h2.573c.576 0 1.123-.202 1.565-.575.15-.131.81-.7 1.59-1.558a.2.2 0 0 1 .1-.06l7.106-2.044a.21.21 0 0 1 .266.2"/></svg>