<svg width="24" height="24" viewBox="0 0 24 24" fill="none"><path fill="#fff" fill-rule="evenodd" d="M12 20.444A8.443 8.443 0 0 1 3.557 12 8.443 8.443 0 0 1 12 3.557 8.443 8.443 0 0 1 20.444 12 8.443 8.443 0 0 1 12 20.444m0-.497a7.947 7.947 0 1 0 0-15.894 7.947 7.947 0 0 0 0 15.894" clip-rule="evenodd"/><path fill="#fff" d="M10.568 18.099c.186-.076.913-.637 1.616-1.241q1.307-1.112 2.51-2.335c.77-.77 1.056-1.1 1.103-1.271.167-.601-1.654-7.205-2.024-7.346-.226-.087-2.245 1.592-4.033 3.35-1.048 1.03-1.338 1.373-1.361 1.597-.015.174.045.608.157 1.122.445 2.042 1.254 4.862 1.663 5.789.172.393.191.41.368.335"/><path fill="#ff914d" fill-rule="evenodd" d="M12 20.444A8.443 8.443 0 0 1 3.556 12 8.443 8.443 0 0 1 12 3.556 8.443 8.443 0 0 1 20.444 12 8.443 8.443 0 0 1 12 20.444m0-.497a7.947 7.947 0 1 0 0-15.894 7.947 7.947 0 0 0 0 15.894" clip-rule="evenodd"/><path fill="#ff914d" d="M10.568 18.099c.186-.076.913-.637 1.616-1.241q1.307-1.112 2.51-2.335c.77-.77 1.056-1.1 1.103-1.271.167-.601-1.654-7.205-2.024-7.347-.226-.087-2.245 1.593-4.033 3.35-1.048 1.031-1.339 1.374-1.361 1.598-.015.174.045.608.157 1.122.444 2.042 1.254 4.862 1.663 5.789.172.393.191.41.368.335"/></svg>