<svg width="32" height="32" viewBox="0 0 32 32" fill="none" xmlns="http://www.w3.org/2000/svg">
<path fill-rule="evenodd" clip-rule="evenodd" d="M30.6818 9.63008C31.0233 10.4163 31.3036 11.2352 31.5166 12.081L27.9936 15.6038C27.9617 14.6199 27.8113 13.666 27.5563 12.7558L30.6818 9.63008ZM28.1209 5.5554C28.6317 6.14758 29.0998 6.77758 29.5204 7.44065L26.5968 10.3641C26.2233 9.6633 25.7823 9.00392 25.2825 8.39462L28.1209 5.5554ZM24.5598 2.4799C25.2227 2.90047 25.8526 3.36845 26.4446 3.87908L23.6059 6.7179C22.9965 6.21801 22.3371 5.77693 21.6362 5.40337L24.5598 2.4799ZM19.9193 0.483643C20.7649 0.696551 21.5837 0.97676 22.3697 1.31824L19.2437 4.44365C18.3335 4.18869 17.3795 4.03838 16.3956 4.00651L19.9193 0.483643ZM9.63032 1.31826C10.4163 0.976781 11.2351 0.696573 12.0806 0.483663L15.6037 4.00654C14.6199 4.03846 13.6661 4.1888 12.756 4.44376L9.63032 1.31826ZM5.55548 3.87906C6.14754 3.36844 6.77741 2.90045 7.44032 2.47988L10.3641 5.40325C9.6632 5.77681 9.00371 6.21788 8.39433 6.71778L5.55548 3.87906ZM2.47964 7.44065C2.90031 6.77755 3.36842 6.14752 3.87919 5.55532L6.71802 8.39402C6.21801 9.00348 5.77685 9.66307 5.40323 10.3641L2.47964 7.44065ZM0.483517 12.081C0.696409 11.2355 0.976599 10.4167 1.31806 9.63068L4.44365 12.7561C4.18871 13.6662 4.03838 14.62 4.00646 15.6038L0.483517 12.081ZM30.6822 22.3691C31.0236 21.5831 31.3038 20.7643 31.5167 19.9188L27.9936 16.3959C27.9618 17.3797 27.8115 18.3335 27.5565 19.2436L30.6822 22.3691ZM29.5223 24.5566L26.598 21.6339C26.2246 22.3349 25.7837 22.9944 25.284 23.6039L28.1228 26.4426C28.6336 25.8502 29.1017 25.2199 29.5223 24.5566ZM26.4434 28.1222L23.6047 25.2833C22.9952 25.7832 22.3355 26.2243 21.6344 26.5978L24.5579 29.5215C25.2211 29.1009 25.8512 28.6329 26.4434 28.1222ZM22.3676 30.6829L19.2417 27.5571C18.3314 27.8119 17.3774 27.9621 16.3935 27.9938L19.9176 31.517C20.763 31.3043 21.5817 31.0242 22.3676 30.6829ZM12.0824 31.517L15.6058 27.9938C14.6219 27.962 13.6679 27.8118 12.7576 27.5569L9.63182 30.6826C10.4179 31.024 11.2368 31.3042 12.0824 31.517ZM7.44217 29.5215L10.3659 26.5979C9.66477 26.2244 9.00508 25.7833 8.39551 25.2834L5.55664 28.1222C6.14891 28.6329 6.77901 29.1009 7.44217 29.5215ZM3.87892 26.4446L6.71775 23.6059C6.21768 22.9963 5.77647 22.3366 5.40282 21.6354L2.47908 24.5587C2.89982 25.222 3.36802 25.8522 3.87892 26.4446ZM0.483398 19.9188C0.696269 20.7643 0.976439 21.5831 1.31788 22.3691L4.44352 19.2436C4.18861 18.3335 4.03832 17.3797 4.00644 16.3959L0.483398 19.9188Z" fill="white"/>
<path d="M23.2686 14.1464C23.5872 12.0171 21.966 10.8725 19.7493 10.1089L20.4683 7.22463L18.7126 6.78708L18.0126 9.59538C17.551 9.48037 17.077 9.37186 16.6059 9.26435L17.311 6.43755L15.5563 6L14.8367 8.88331C14.4547 8.7963 14.0796 8.71029 13.7156 8.61978L13.7176 8.61078L11.2964 8.00621L10.8293 9.88141C10.8293 9.88141 12.1319 10.1799 12.1044 10.1984C12.8155 10.376 12.944 10.8465 12.9225 11.2196L12.1034 14.5054C12.1524 14.5179 12.2159 14.5359 12.286 14.5639C12.2274 14.5494 12.1649 14.5334 12.1004 14.5179L10.9523 19.1209C10.8653 19.3369 10.6448 19.661 10.1477 19.5379C10.1652 19.5634 8.87159 19.2194 8.87159 19.2194L8 21.2291L10.2847 21.7987C10.7098 21.9052 11.1263 22.0167 11.5364 22.1217L10.8098 25.039L12.5635 25.4766L13.2831 22.5903C13.7621 22.7203 14.2272 22.8403 14.6822 22.9533L13.9651 25.8261L15.7208 26.2637L16.4474 23.3518C19.4412 23.9184 21.6925 23.6899 22.6401 20.9821C23.4036 18.8019 22.6021 17.5442 21.0269 16.7241C22.174 16.4596 23.0381 15.705 23.2686 14.1464ZM19.2572 19.7715C18.7146 21.9517 15.0438 20.7731 13.8536 20.4775L14.8177 16.6126C16.0079 16.9097 19.8243 17.4977 19.2572 19.7715ZM19.8003 14.1149C19.3052 16.0981 16.2499 15.0905 15.2588 14.8434L16.1329 11.3381C17.124 11.5851 20.3158 12.0461 19.8003 14.1149Z" fill="white"/>
</svg>