<svg width="24" height="24" viewBox="0 0 24 24" fill="none"><path fill="#134451" d="M10.506 12.251q-.558.002-.85.182a.58.58 0 0 0-.282.524.53.53 0 0 0 .169.41q.171.15.47.15.462 0 .768-.285.309-.288.413-.805l.031-.176zm3.948-1.627q-.171-.148-.47-.148-.462 0-.768.285-.308.288-.412.805l-.032.175.72-.003q.557-.002.849-.182a.58.58 0 0 0 .282-.524.51.51 0 0 0-.169-.408"/><path fill="#134451" d="M20.23 11.042c-.245-2.223-4.132-3.598-8.677-3.071s-8.03 2.756-7.784 4.98c.247 2.223 4.13 3.598 8.678 3.071s8.03-2.757 7.784-4.98m-4.754 1.113c-.461.329-1.132.49-2.014.494l-.855.003-.026.123a.3.3 0 0 0-.013.082q-.005.027-.004.047a.45.45 0 0 0 .26.42q.259.144.761.143.478-.002.911-.102.429-.1.823-.299l-.217 1.167c-.327.08-.641.142-.953.182q-.45.064-.904.067-.621.001-1.034-.156c-.285-.11-.603-.348-.761-.69-.294.28-.634.507-1.005.67a2.8 2.8 0 0 1-1.09.221q-.711.004-1.112-.34c-.269-.229-.402-.548-.405-.948-.004-.617.227-1.084.684-1.409q.69-.49 2.013-.493l.855-.003.026-.123a.3.3 0 0 0 .014-.083q.004-.025.003-.046a.45.45 0 0 0-.26-.42q-.258-.144-.761-.143-.478.002-.911.102a3.6 3.6 0 0 0-.824.299l.218-1.166c.327-.08.641-.143.952-.183q.45-.064.905-.066.622-.002 1.035.156c.285.11.602.348.761.689a3.5 3.5 0 0 1 1.005-.67 2.8 2.8 0 0 1 1.09-.222q.711-.003 1.11.341.403.347.406.948.007.92-.683 1.408"/><path fill="#134451" d="M12.399 16.287a17 17 0 0 1-1.942.112c-1.504 0-2.91-.211-4.081-.626a6.6 6.6 0 0 1-1.38-.662c-.16.838-.053 1.577.359 2.127 1.183 1.58 4.492 1.077 7.767-1.05q-.36.054-.723.099m-.768-8.548c2.22-.259 4.36-.076 6.023.513.484.167.948.39 1.381.663.158-.838.052-1.577-.36-2.127-1.184-1.58-4.493-1.077-7.767 1.05q.362-.06.723-.099"/><path fill="#134451" d="M9.216 18.208a7 7 0 0 1-1.32.183c.334.885.856 1.504 1.547 1.736 1.666.56 3.822-1.275 5.349-4.314-.36.1-.733.189-1.109.265-1.492 1.054-3.047 1.8-4.467 2.13m5.699-12.414q.651-.152 1.32-.176c-.332-.885-.85-1.507-1.541-1.742-1.663-.567-3.828 1.258-5.365 4.287q.542-.15 1.112-.258c1.491-1.05 3.05-1.787 4.474-2.111"/></svg>