<svg width="320" height="320" viewBox="0 0 320 320" fill="none" xmlns="http://www.w3.org/2000/svg">
<path d="M203.994 185.331C203.994 161.999 189.994 153.999 161.994 150.666C141.994 147.999 137.994 142.666 137.994 133.331C137.994 123.997 144.661 117.999 157.994 117.999C169.994 117.999 176.661 121.999 179.994 131.999C180.661 133.999 182.661 135.331 184.661 135.331H195.326C197.994 135.331 199.994 133.331 199.994 130.666V129.999C197.326 115.331 185.326 103.999 169.994 102.666V86.6659C169.994 83.9987 167.994 81.9987 164.661 81.3315H154.661C151.994 81.3315 149.994 83.3315 149.326 86.6659V101.999C129.326 104.666 116.661 117.999 116.661 134.666C116.661 156.666 129.994 165.331 157.994 168.666C176.661 171.999 182.661 175.999 182.661 186.666C182.661 197.333 173.326 204.666 160.661 204.666C143.326 204.666 137.326 197.331 135.326 187.331C134.661 184.666 132.661 183.331 130.661 183.331H119.326C116.661 183.331 114.661 185.331 114.661 187.999V188.666C117.326 205.332 127.994 217.332 149.994 220.666V236.666C149.994 239.332 151.994 241.331 155.326 241.999H165.326C167.994 241.999 169.994 239.999 170.661 236.666V220.666C190.661 217.332 203.994 203.331 203.994 185.331Z" fill="white"/>
<path d="M125.992 255.332C73.9915 236.667 47.3243 178.667 66.6587 127.332C76.6587 99.3324 98.6587 77.9996 125.992 67.9996C128.659 66.6668 129.992 64.6668 129.992 61.3324V51.9995C129.992 49.3323 128.659 47.3323 125.992 46.6667C125.324 46.6667 123.992 46.6667 123.324 47.3323C59.9915 67.3324 25.3243 134.667 45.3243 198C57.3243 235.332 85.9915 264 123.324 276C125.992 277.333 128.659 276 129.324 273.332C129.992 272.667 129.992 272 129.992 270.667V261.332C129.992 259.332 127.992 256.667 125.992 255.332ZM196.659 47.3323C193.992 45.9995 191.324 47.3323 190.659 49.9995C189.992 50.6667 189.992 51.3324 189.992 52.6668V61.9996C189.992 64.6668 191.992 67.3324 193.992 68.6668C245.992 87.3324 272.659 145.332 253.324 196.667C243.324 224.667 221.324 246 193.992 256C191.324 257.332 189.992 259.333 189.992 262.667V272C189.992 274.667 191.324 276.667 193.992 277.333C194.659 277.333 195.992 277.333 196.659 276.667C259.992 256.667 294.659 189.332 274.659 126C262.659 87.9996 233.324 59.3324 196.659 47.3323Z" fill="white"/>
</svg>