<svg width="320" height="320" viewBox="0 0 320 320" fill="none" xmlns="http://www.w3.org/2000/svg">
<path d="M233.599 140.013C236.787 118.579 220.575 107.054 198.424 99.3645L205.611 70.3224L188.069 65.9252L181.065 94.2003C176.456 93.0345 171.725 91.9506 167.005 90.8666L174.06 62.4074L156.518 58L149.331 87.0318C145.514 86.1524 141.758 85.2934 138.123 84.3731L138.144 84.281L113.942 78.1965L109.272 97.0738C109.272 97.0738 122.297 100.08 122.023 100.264C129.129 102.054 130.408 106.789 130.195 110.552L122.013 143.633C122.5 143.756 123.129 143.94 123.84 144.216L121.982 143.756L110.511 190.1C109.638 192.268 107.435 195.531 102.461 194.293C102.643 194.549 89.7101 191.092 89.7101 191.092L81 211.32L103.841 217.056C108.085 218.13 112.247 219.255 116.338 220.308L109.079 249.678L126.611 254.075L133.799 225.033C138.59 226.331 143.24 227.538 147.788 228.683L140.621 257.603L158.163 262L165.421 232.692C195.348 238.398 217.844 236.097 227.316 208.835C234.95 186.889 226.94 174.219 211.195 165.967C222.666 163.308 231.295 155.71 233.599 140.013ZM193.5 196.645C188.09 218.601 151.391 206.728 139.494 203.752L149.138 164.842C161.036 167.838 199.175 173.759 193.5 196.645ZM198.932 139.696C193.988 159.668 163.452 149.513 153.554 147.028L162.284 111.748C172.182 114.233 204.089 118.866 198.932 139.696Z" fill="white"/>
</svg>