<svg width="24" height="24" viewBox="0 0 24 24" fill="none"><path fill="#6916ff" fill-opacity=".2" d="M12.739 5.04a.21.21 0 0 1-.06-.271.22.22 0 0 1 .233 0 4.2 4.2 0 0 1 1.406.954c.228.21.418.456.563.727q.23.415.375.864c.092.31.14.632.141.954-.047.319-.094 1.864-.985 2.591a.535.535 0 0 1-.703-.136.47.47 0 0 1-.047-.546 3.79 3.79 0 0 0 .094-3.954 8 8 0 0 0-1.017-1.182m-1.383 13.937c.094.091.094.182.047.227-.046.046-.14.091-.187.046a4.2 4.2 0 0 1-1.407-.954 2.8 2.8 0 0 1-.562-.728 5 5 0 0 1-.375-.863 3.4 3.4 0 0 1-.141-.955c.047-.318.094-1.864.985-2.591a.536.536 0 0 1 .703.136.405.405 0 0 1 0 .546 3.79 3.79 0 0 0-.094 3.954q.458.639 1.031 1.182"/><path fill="#6916ff" d="M15.402 15.227a4.1 4.1 0 0 0-.985-2.363 8.1 8.1 0 0 0-1.969-1.455c-.633-.35-1.23-.763-1.781-1.232a3 3 0 0 1-.89-1.59 3.2 3.2 0 0 1 .229-1.86 5 5 0 0 1 1.317-1.682.195.195 0 0 0 .047-.227.18.18 0 0 0-.281-.045A4.2 4.2 0 0 0 9.26 6.318a3.76 3.76 0 0 0-.66 2.455c.037.44.148.87.328 1.273a4.5 4.5 0 0 0 .75 1.09 8.1 8.1 0 0 0 2.015 1.41c.636.33 1.234.726 1.782 1.181.481.423.797 1.003.89 1.637.133.659.05 1.342-.234 1.954a4.6 4.6 0 0 1-1.36 1.637.15.15 0 0 0-.074.103.15.15 0 0 0 .027.124.18.18 0 0 0 .13.09.2.2 0 0 0 .152-.044 5.85 5.85 0 0 0 1.781-1.592 3.88 3.88 0 0 0 .614-2.409"/></svg>