<svg width="40" height="40" viewBox="0 0 40 40" fill="none" xmlns="http://www.w3.org/2000/svg">
<path d="M8.24337 30.1847C7.76262 29.6297 7.32144 29.0415 6.92306 28.4246L15.3492 19.9998L6.92306 11.5739C7.32162 10.9575 7.76281 10.3696 8.24337 9.81475L18.4289 19.9998L8.24337 30.1847ZM5.81535 13.6084C5.48477 14.3406 5.21215 15.0977 5 15.8726L9.12737 19.9998L5 24.1269C5.21229 24.9018 5.48491 25.6587 5.81535 26.3911L12.207 19.9998L5.81535 13.6084ZM20.0004 21.5737L9.81494 31.7588C10.3694 32.24 10.9573 32.6812 11.5743 33.0791L20.0004 24.6532L28.4258 33.0791C29.0428 32.6812 29.6306 32.24 30.1851 31.7588L20.0004 21.5737ZM26.3921 34.1876L19.9996 27.7954L13.6079 34.1867C14.3403 34.517 15.0974 34.7896 15.8722 35.002L19.9996 30.8749L24.1278 35.002C24.9026 34.7884 25.6596 34.5149 26.3921 34.1841V34.1876ZM20.0004 18.4282L30.1851 8.24325C29.6304 7.76256 29.0425 7.32169 28.4258 6.92381L20.0004 15.3488L11.5743 6.92381C10.9575 7.32169 10.3696 7.76256 9.81494 8.24325L20.0004 18.4282ZM34.1846 26.3911C34.5152 25.6588 34.7879 24.9018 35 24.1269L30.8726 19.9998L35 15.8726C34.7877 15.0974 34.5151 14.3401 34.1846 13.6075L27.793 19.9998L34.1846 26.3911ZM24.6507 19.9998L33.0769 11.5739C32.6786 10.9573 32.2374 10.3695 31.7566 9.81475L21.5746 19.9998L31.76 30.1847C32.2408 29.6297 32.682 29.0415 33.0804 28.4246L24.6507 19.9998ZM19.9996 12.2067L26.3921 5.81531C25.6597 5.48502 24.9026 5.21242 24.1278 5L19.9996 9.12712L15.8722 5C15.0975 5.2128 14.3404 5.48539 13.6079 5.81531L19.9996 12.2067Z" fill="white"/>
</svg>
