<svg width="24" height="24" viewBox="0 0 24 24" fill="none"><path fill="#2daee4" fill-rule="evenodd" d="M5.852 8.593h.083q1.083-.02 1.882-.818.777-.839.777-1.924a1.3 1.3 0 0 1 .4-.952 1.32 1.32 0 0 1 .971-.399q.553 0 .951.4.4.399.4.951 0 .553-.379.952a1.28 1.28 0 0 1-.91.42Q8.86 7.18 8.02 8.02t-.798 1.965q.041 1.165.84 1.944.878.777 1.964.757a1.28 1.28 0 0 1 .91.42q.378.398.378.93 0 .574-.399.973a1.3 1.3 0 0 1-.95.399q-.574 0-.973-.4a1.32 1.32 0 0 1-.399-.971 2.57 2.57 0 0 0-.777-1.883 2.68 2.68 0 0 0-1.883-.84 1.3 1.3 0 0 1-.664-.122 1.2 1.2 0 0 1-.45-.399 1.76 1.76 0 0 1-.276-1.197q.266-1.002 1.308-1.003m.02 4.093q.531 0 .93.39.399.388.42.92-.021 1.125.777 1.964.798.819 1.924.819h.061q1.104 0 1.903-.819a2.6 2.6 0 0 0 .798-1.965 2.6 2.6 0 0 0-.84-1.902q-.806-.769-1.88-.778H9.88a1.28 1.28 0 0 1-.91-.42 1.33 1.33 0 0 1-.379-.951q0-.553.4-.952.338-.337.802-.39l.09-.009.034.001h.107q1.057-.012 1.843-.799.84-.839.818-1.985 0-.45.308-.818l.02-.02.02-.022q.001-.02.02-.02l.022-.02v-.02h.02v-.022q.02 0 .02-.02l.02-.02h.042q0-.022.02-.022l.02-.02v-.02h.041q.001-.021.02-.021l.022-.02.02-.02h.02q0-.02.021-.02.02 0 .02-.022h.02l.02-.02h.042v-.02h.02l.021-.021h.04v-.019h.042l.02-.02h.042l.02-.02h.061l.02-.022h.062q.02 0 .02-.02h.43l.01.01q.01.01.03.01h.042l.01.011q.01.01.03.01h.042l.02.02h.041l.02.021h.042q.02.02.04.02l.021.021h.04v.02h.022l.02.02.01.011q.01.011.03.01l.021.021h.02q0 .02.041.02l.021.02v.021h.02q0 .02.042.02 0 .021.02.021v.021h.02l.021.02q.02.02.04.02l.02.021q0 .02.022.02v.021h.02q0 .02.01.03l.01.011q0 .02.021.02l.02.02q0 .022.01.031l.01.011.021.02.021.02v.042l.02.02v.02h.02q0 .02.011.03l.01.01q0 .021.02.021v.021q0 .02.01.03l.011.01.02.02q0 .042.021.042v.02q0 .02.01.031l.01.01v.041l.02.021v.061q.021.02.021.041v.061q.021.02.021.042v.162q0 1.085.777 1.924a2.68 2.68 0 0 0 1.904.818q.551-.02.982.38.43.398.43.971 0 .572-.4.972a1.3 1.3 0 0 1-.952.4 1.33 1.33 0 0 1-.95-.38 1.3 1.3 0 0 1-.42-.931q.02-1.125-.818-1.985a2.63 2.63 0 0 0-1.985-.798 2.68 2.68 0 0 0-1.883.84 2.56 2.56 0 0 0-.778 1.882v.063q.022 1.047.777 1.86a2.67 2.67 0 0 0 1.902.82q.736-.042 1.125.532.39.552.246 1.166-.285 1.023-1.31 1.023h-.06q-1.148.04-1.903.84-.779.777-.778 1.902 0 .552-.4.952a1.3 1.3 0 0 1-.95.399h-.041q-.553 0-.942-.4a1.32 1.32 0 0 1-.389-.951q0-1.125-.777-1.903a2.68 2.68 0 0 0-1.882-.839 1.35 1.35 0 0 1-1.013-.379 1.3 1.3 0 0 1-.42-.992 1.3 1.3 0 0 1 .4-.952 1.32 1.32 0 0 1 .971-.399z" clip-rule="evenodd"/></svg>