<?xml version="1.0" encoding="UTF-8"?>
<svg width="24" height="24" id="Calque_1" data-name="Calque 1" xmlns="http://www.w3.org/2000/svg" viewBox="0 0 24 24">
  <path style="fill:#76a0fc;fill-rule:evenodd;stroke-width:0px" d="m3.33,13.04l4.21,4.25,4.32-4.36s.03,0,.04-.02c0,0,0-.01.01-.02s.01,0,.02,0c.01,0,.02-.02.04-.02s.02.01.04.02c0,0,.01,0,.02,0,0,0,0,.01.01.02.01,0,.03,0,.04.02l4.32,4.36,4.21-4.25L11.97,4.33,3.33,13.04Z"/>
  <polygon style="fill:#76a0fc;fill-rule:evenodd;stroke-width:0px" points="3.82 13.95 4.72 15.53 7.87 18.71 7.42 17.59 3.82 13.95"/>
  <polygon style="fill:#76a0fc;fill-rule:evenodd;stroke-width:0px" points="12.12 15.56 15.6 19.08 16.22 17.54 12.12 13.41 12.12 15.56"/>
  <path style="fill:#76a0fc;fill-rule:evenodd;stroke-width:0px" d="m12,0C5.37,0,0,5.37,0,12s5.37,12,12,12,12-5.37,12-12S18.62,0,12,0Zm8.95,13.11l-1.47,2.58s-.01.02-.02.03l-3.69,3.72s-.04.02-.06.03c0,0-.01.01-.02.02,0,0,0,0,0,0-.04,0-.07,0-.1-.02,0,0,0,0,0-.01,0,0,0,0-.01,0l-3.58-3.61-3.58,3.61s0,0-.01,0c0,0,0,0,0,.01-.03.02-.07.03-.1.02,0,0,0,0,0,0,0,0-.01-.01-.02-.02-.02,0-.04-.01-.06-.03l-3.69-3.72s-.02-.02-.02-.03l-1.47-2.58s0-.03,0-.04c0-.02,0-.03,0-.04,0-.02.01-.04.02-.06,0-.01,0-.02.01-.03L11.86,4.01s.07-.04.11-.04.08.02.11.04l8.85,8.93s0,.02.01.03c.01.02.02.04.02.06,0,.02,0,.03,0,.04,0,.01,0,.03,0,.04Z"/>
</svg>