<svg width="24" height="24" viewBox="0 0 24 24" fill="none"><path fill="#fd875e" d="m10.245 13.415 1.79-5.334 1.822 5.334zm7.584 3.373-1.48-3.982h.884a.637.637 0 0 0 .637-.627.6.6 0 0 0-.178-.42.62.62 0 0 0-.43-.175h-1.38l-.22-.62h1.57a.63.63 0 0 0 .635-.605.6.6 0 0 0-.186-.443.64.64 0 0 0-.451-.182h-2.04l-1.105-2.976a2.7 2.7 0 0 0-.793-1.096 1.87 1.87 0 0 0-1.247-.41 1.93 1.93 0 0 0-1.253.41 2.7 2.7 0 0 0-.795 1.095L8.839 9.76H6.811a.607.607 0 0 0-.612.598c0 .344.284.622.635.622h1.54l-.237.603h-1.38a.606.606 0 0 0-.614.6c0 .34.28.616.627.617h.886L6.15 16.787a2 2 0 0 0-.151.706c.015.34.166.66.42.892.28.238.637.367 1.005.363a1.35 1.35 0 0 0 1.38-.98l.582-1.7h5.358l.583 1.741a1.36 1.36 0 0 0 1.38.93c.232.006.46-.052.663-.165q.263-.191.46-.448a1.2 1.2 0 0 0 .169-.633 4 4 0 0 0-.171-.695z"/></svg>