<svg width="24" height="24" viewBox="0 0 24 24" fill="none"><path fill="#000" fill-rule="evenodd" d="M15.246 4.794c.096 0 .192-.02.277-.059a.7.7 0 0 0 .233-.159l1.022-1.057A.6.6 0 0 1 17 3.367a.6.6 0 0 1 .266-.055h.047q.144.002.277.059c.087.04.167.098.229.169l.862.964a.88.88 0 0 0 .648.285h2.304A12.05 12.05 0 0 0 12.007.001c-1.867 0-3.711.433-5.381 1.263a12 12 0 0 0-4.248 3.525h12.876zm1.218 3.236h6.904c.338.954.548 1.948.632 2.959h-8.949a.9.9 0 0 1-.358-.073.9.9 0 0 1-.289-.214l-.863-.967a.7.7 0 0 0-.228-.166.8.8 0 0 0-.277-.057h-.042a.68.68 0 0 0-.49.207l-1.024 1.059a.7.7 0 0 1-.51.219H0a12 12 0 0 1 .631-2.959h11.618c.18 0 .358-.037.524-.111q.25-.112.431-.317l.74-.832a.65.65 0 0 1 .227-.164.7.7 0 0 1 .28-.057c.094 0 .19.021.277.057a.65.65 0 0 1 .226.164l.865.969a.86.86 0 0 0 .645.291zm-9.549 9.124a.7.7 0 0 1-.276.059l-5.485.008a12 12 0 0 1-.989-2.988h7.813a1.3 1.3 0 0 0 .954-.428l.738-.829a.7.7 0 0 1 .23-.169.56.56 0 0 1 .276-.057.65.65 0 0 1 .278.06.8.8 0 0 1 .228.171l.863.964a.8.8 0 0 0 .291.211.85.85 0 0 0 .352.077h11.65a11.8 11.8 0 0 1-.993 2.98H10.71a.9.9 0 0 1-.356-.08.8.8 0 0 1-.289-.214l-.859-.966a.7.7 0 0 0-.229-.166.7.7 0 0 0-.278-.057h-.045a.7.7 0 0 0-.489.206l-1.021 1.063a.7.7 0 0 1-.232.159zm.544 3.018h3.156l10.199.017a12.1 12.1 0 0 1-4.003 2.817 12.1 12.1 0 0 1-9.601 0 12.1 12.1 0 0 1-4.002-2.817h.046a1.27 1.27 0 0 0 .954-.43l.741-.846a.67.67 0 0 1 .506-.222.66.66 0 0 1 .506.222l.858.966q.122.138.292.215a.9.9 0 0 0 .353.078z" clip-rule="evenodd"/></svg>