<svg width="24" height="24" viewBox="0 0 24 24" fill="none"><path fill="#a71435" d="M8.028 3.967a8.952 8.952 0 0 1 10.736 13.89c-.446-.972-.788-1.991-1.17-2.995l-2.31-6.052c-.224-.614-.598-1.203-1.179-1.522a4.56 4.56 0 0 0-2.62-.407c-.717.08-1.466.327-1.952.893-.462.533-.669 1.219-.932 1.864l-1.665 4.22c-.557 1.339-1.027 2.725-1.632 4.055a8.3 8.3 0 0 1-1.872-3.306A8.96 8.96 0 0 1 8.036 3.96z"/><path fill="#a71435" d="M11.357 10.068c.159-.478.797-.638 1.21-.367.223.168.303.454.407.71 1.035 2.707 2.055 5.43 3.082 8.147.136.39.334.765.415 1.17a1 1 0 0 1-.224.176 8.98 8.98 0 0 1-7.375.494c-.446-.184-.907-.343-1.298-.622.04-.366.223-.693.358-1.027 1.147-2.89 2.27-5.79 3.425-8.681"/></svg>