<svg width="24" height="24" viewBox="0 0 24 24" fill="none"><path fill="#346fce" fill-rule="evenodd" d="m15.193 14.206.717 1.348a3.277 3.277 0 0 1-1.355 4.431l-.093.05a3.277 3.277 0 0 1-4.432-1.355l-2.417-4.546a3.277 3.277 0 0 1 1.194-4.34L8.09 8.445a3.277 3.277 0 0 1 1.355-4.431l.093-.05A3.277 3.277 0 0 1 13.97 5.32l2.418 4.546a3.277 3.277 0 0 1-1.194 4.34m0 0-1.7-3.198A3.277 3.277 0 0 0 9.06 9.653l-.093.049q-.082.045-.16.091l1.7 3.2a3.277 3.277 0 0 0 4.431 1.354l.093-.05z" clip-rule="evenodd"/></svg>