<svg width="24" height="24" viewBox="0 0 24 24" fill="none">
<path fill="#0044FF" d="M16.62,22H7.38c-0.72,0-1.38-0.38-1.73-1l-4.62-8c-0.36-0.62-0.36-1.38,0-2l4.62-8c0.36-0.62,1.02-1,1.73-1
	h9.24c0.72,0,1.38,0.38,1.73,1l4.62,8c0.36,0.62,0.36,1.38,0,2l-4.62,8C17.99,21.62,17.33,22,16.62,22z"/>
<path fill="white" d="M6.62,18c-0.02,0-0.03,0-0.05-0.01c-0.05-0.02-0.08-0.07-0.08-0.11V8.62c0-0.48,0.39-0.88,0.88-0.88h6.25
	c0.05,0,0.1,0.03,0.11,0.08c0.02,0.05,0.01,0.1-0.03,0.14l-1.5,1.5c-0.02,0.02-0.05,0.04-0.09,0.04H8.25V11h3.62
	c0.05,0,0.1,0.03,0.11,0.08c0.02,0.05,0.01,0.1-0.03,0.14l-1.5,1.5c-0.02,0.02-0.05,0.04-0.09,0.04H8.25v3.62
	c0,0.03-0.01,0.07-0.04,0.09l-1.5,1.5C6.69,17.99,6.66,18,6.62,18z"/>
<path fill="white" d="M17.38,6c0.02,0,0.03,0,0.05,0.01c0.05,0.02,0.08,0.06,0.08,0.11v9.25c0,0.48-0.39,0.88-0.88,0.88h-6.25
	c-0.05,0-0.1-0.03-0.11-0.08c-0.02-0.05-0.01-0.1,0.03-0.14l1.5-1.5c0.02-0.02,0.06-0.04,0.09-0.04h3.88V13h-3.63
	c-0.05,0-0.1-0.03-0.11-0.08c-0.02-0.05-0.01-0.1,0.03-0.14l1.5-1.5c0.02-0.02,0.06-0.04,0.09-0.04h2.12V7.62
	c0-0.03,0.01-0.07,0.04-0.09l1.5-1.5C17.31,6.01,17.34,6,17.38,6z"/>
</svg>
