<svg width="32" height="32" viewBox="0 0 32 32" fill="none" xmlns="http://www.w3.org/2000/svg">
<path fill-rule="evenodd" clip-rule="evenodd" d="M30.6818 9.63008C31.0233 10.4163 31.3036 11.2352 31.5166 12.081L27.9936 15.6038C27.9617 14.6199 27.8113 13.666 27.5563 12.7558L30.6818 9.63008ZM28.1209 5.5554C28.6317 6.14758 29.0998 6.77758 29.5204 7.44065L26.5968 10.3641C26.2233 9.6633 25.7823 9.00392 25.2825 8.39462L28.1209 5.5554ZM24.5598 2.4799C25.2227 2.90047 25.8526 3.36845 26.4446 3.87908L23.6059 6.7179C22.9965 6.21801 22.3371 5.77693 21.6362 5.40337L24.5598 2.4799ZM19.9193 0.483643C20.7649 0.696551 21.5837 0.97676 22.3697 1.31824L19.2437 4.44365C18.3335 4.18869 17.3795 4.03838 16.3956 4.00651L19.9193 0.483643ZM9.63032 1.31826C10.4163 0.976781 11.2351 0.696573 12.0806 0.483663L15.6037 4.00654C14.6199 4.03846 13.6661 4.1888 12.756 4.44376L9.63032 1.31826ZM5.55548 3.87906C6.14754 3.36844 6.77741 2.90045 7.44032 2.47988L10.3641 5.40325C9.6632 5.77681 9.00371 6.21788 8.39433 6.71778L5.55548 3.87906ZM2.47964 7.44065C2.90031 6.77755 3.36842 6.14752 3.87919 5.55532L6.71802 8.39402C6.21801 9.00348 5.77685 9.66307 5.40323 10.3641L2.47964 7.44065ZM0.483517 12.081C0.696409 11.2355 0.976599 10.4167 1.31806 9.63068L4.44365 12.7561C4.18871 13.6662 4.03838 14.62 4.00646 15.6038L0.483517 12.081ZM30.6822 22.3691C31.0236 21.5831 31.3038 20.7643 31.5167 19.9188L27.9936 16.3959C27.9618 17.3797 27.8115 18.3335 27.5565 19.2436L30.6822 22.3691ZM29.5223 24.5566L26.598 21.6339C26.2246 22.3349 25.7837 22.9944 25.284 23.6039L28.1228 26.4426C28.6336 25.8502 29.1017 25.2199 29.5223 24.5566ZM26.4434 28.1222L23.6047 25.2833C22.9952 25.7832 22.3355 26.2243 21.6344 26.5978L24.5579 29.5215C25.2211 29.1009 25.8512 28.6329 26.4434 28.1222ZM22.3676 30.6829L19.2417 27.5571C18.3314 27.8119 17.3774 27.9621 16.3935 27.9938L19.9176 31.517C20.763 31.3043 21.5817 31.0242 22.3676 30.6829ZM12.0824 31.517L15.6058 27.9938C14.6219 27.962 13.6679 27.8118 12.7576 27.5569L9.63182 30.6826C10.4179 31.024 11.2368 31.3042 12.0824 31.517ZM7.44217 29.5215L10.3659 26.5979C9.66477 26.2244 9.00508 25.7833 8.39551 25.2834L5.55664 28.1222C6.14891 28.6329 6.77901 29.1009 7.44217 29.5215ZM3.87892 26.4446L6.71775 23.6059C6.21768 22.9963 5.77647 22.3366 5.40282 21.6354L2.47908 24.5587C2.89982 25.222 3.36802 25.8522 3.87892 26.4446ZM0.483398 19.9188C0.696269 20.7643 0.976439 21.5831 1.31788 22.3691L4.44352 19.2436C4.18861 18.3335 4.03832 17.3797 4.00644 16.3959L0.483398 19.9188Z" fill="white"/>
<path d="M21.4001 18.9165C21.4001 16.0411 19.7076 15.0552 16.3225 14.6445C13.9045 14.3158 13.4209 13.6586 13.4209 12.5083C13.4209 11.3579 14.227 10.6187 15.8389 10.6187C17.2896 10.6187 18.0957 11.1116 18.4986 12.344C18.5792 12.5905 18.821 12.7547 19.0628 12.7547H20.3523C20.6747 12.7547 20.9165 12.5083 20.9165 12.1798V12.0975C20.5941 10.29 19.1433 8.89339 17.2896 8.72914V6.75737C17.2896 6.42867 17.0478 6.1822 16.6449 6.09998H15.4359C15.1135 6.09998 14.8717 6.34645 14.791 6.75737V8.64692C12.3731 8.97562 10.8419 10.6187 10.8419 12.6727C10.8419 15.3839 12.4538 16.4518 15.8389 16.8627C18.0957 17.2734 18.821 17.7664 18.821 19.081C18.821 20.3956 17.6925 21.2992 16.1613 21.2992C14.0657 21.2992 13.3403 20.3954 13.0985 19.163C13.018 18.8345 12.7762 18.6701 12.5344 18.6701H11.1642C10.8419 18.6701 10.6001 18.9165 10.6001 19.2452V19.3274C10.9224 21.3813 12.212 22.8601 14.8717 23.271V25.2428C14.8717 25.5713 15.1135 25.8178 15.5164 25.9H16.7254C17.0478 25.9 17.2896 25.6535 17.3703 25.2428V23.271C19.7882 22.8601 21.4001 21.1348 21.4001 18.9165Z" fill="white"/>
</svg>