<svg width="24" height="24" viewBox="0 0 24 24" fill="none"><path fill="#3f43ad" d="M8.973 5.877a.658.658 0 0 0 0 1.313.658.658 0 0 0 0-1.313m3.038-1.823a.658.658 0 0 0 0 1.314.658.658 0 0 0 0-1.314m0 7.29a.657.657 0 0 0 0 1.313.658.658 0 0 0 0-1.314m3.037-1.823a.657.657 0 1 0 .001 1.314.657.657 0 0 0-.001-1.314m3.036-1.822a.658.658 0 1 0-.042 1.315.658.658 0 0 0 .042-1.315m-9.11 5.467a.658.658 0 0 0 0 1.313.658.658 0 0 0 0-1.313M5.935 7.699a.657.657 0 1 0 .001 1.314.657.657 0 0 0-.001-1.314m0 7.289a.658.658 0 1 0 .001 1.315.658.658 0 0 0-.001-1.315m0-3.645a.658.658 0 0 0 0 1.314.658.658 0 0 0 0-1.314M12.01 7.7a.657.657 0 1 0-.045 1.314.657.657 0 0 0 .045-1.314m3.037-1.822a.658.658 0 1 0-.043 1.315.658.658 0 0 0 .043-1.315m0 7.289a.657.657 0 1 0 0 1.314.657.657 0 0 0 0-1.314m3.036-1.823a.657.657 0 0 0 0 1.314.658.658 0 0 0 0-1.314m-3.036 5.467a.658.658 0 1 0 0 1.317.658.658 0 0 0 0-1.317m3.036-1.822a.657.657 0 0 0 0 1.314.658.658 0 0 0 0-1.314m-6.073 3.645a.658.658 0 0 0 0 1.313.658.658 0 0 0 0-1.313m0-3.645a.659.659 0 1 0 .001 1.317.659.659 0 0 0-.001-1.317M8.973 9.52a.658.658 0 0 0 0 1.313.658.658 0 0 0 0-1.312zm0 7.29a.658.658 0 0 0 0 1.312.658.658 0 0 0 0-1.313"/></svg>