<svg width="24" height="24" viewBox="0 0 24 24" fill="none"><path fill="#404040" d="M12 20.25a8.25 8.25 0 1 1 0-16.5 8.25 8.25 0 0 1 0 16.5m0-.826a7.424 7.424 0 1 0-.001-14.848A7.424 7.424 0 0 0 12 19.424M16.532 9.09c.124 2.204-1.912 2.786-1.912 2.786 2.327.332 2.203 2.328 2.203 2.328 0 3.241-3.617 3.368-3.617 3.368H8.134V6.429h4.573c3.825.167 3.825 2.661 3.825 2.661m-5.78-.665v2.701h1.83s1.29-.041 1.372-1.08V9.38s0-.872-1.248-.955zm3.45 6.112v-.666s0-.873-1.246-.957h-2.204v2.704h2.08s1.288-.041 1.371-1.082z"/></svg>