<svg width="24" height="24" viewBox="0 0 24 24" fill="none"><path fill="#000" d="M12.706 18.433a.8.8 0 0 1 .06.296.777.777 0 0 1-.784.771.777.777 0 0 1-.784-.771q0-.154.057-.289l-4.657-2.645a.8.8 0 0 1-.564.236.777.777 0 0 1-.784-.771c0-.36.25-.662.588-.748v-5.27a.774.774 0 0 1-.588-.747c0-.426.351-.77.784-.77.26 0 .49.124.633.316l4.554-2.588a.7.7 0 0 1-.023-.182c0-.426.352-.771.784-.771a.778.778 0 0 1 .763.949l4.58 2.602a.79.79 0 0 1 .641-.327c.433 0 .784.345.784.771 0 .36-.251.663-.59.748l-.014 5.265c.346.08.604.386.604.752a.777.777 0 0 1-.784.77.8.8 0 0 1-.582-.255zm-.21-.285 4.716-2.68a.76.76 0 0 1 .015-.466l-4.549-2.925a.93.93 0 0 1-1.086.198.9.9 0 0 1-.326-.263l-4.483 3.02a.76.76 0 0 1-.003.462l4.681 2.659a.79.79 0 0 1 1.036-.006m.09-12.385a.8.8 0 0 1-.41.255l-.012 4.542a.916.916 0 0 1 .762.897.9.9 0 0 1-.06.322l4.553 2.928a.8.8 0 0 1 .371-.199l.014-5.258a.775.775 0 0 1-.612-.87zm-1.204.004L6.806 8.365a.775.775 0 0 1-.612.885v5.254c.16.033.3.113.408.225l4.504-3.033a.917.917 0 0 1 .701-1.13l.012-4.54a.8.8 0 0 1-.437-.26"/></svg>