<svg width="24" height="24" viewBox="0 0 24 24" fill="none"><path fill="#2aabe4" fill-rule="evenodd" d="M5.925 5.25h4.65a.675.675 0 0 1 .675.675v4.65a.675.675 0 0 1-.675.675h-4.65a.675.675 0 0 1-.675-.675v-4.65a.675.675 0 0 1 .675-.675m7.5 0h4.65a.675.675 0 0 1 .675.675v4.65a.675.675 0 0 1-.675.675h-4.65a.675.675 0 0 1-.675-.675v-4.65a.675.675 0 0 1 .675-.675m0 7.5h4.65a.675.675 0 0 1 .675.675v4.65a.675.675 0 0 1-.675.675h-4.65a.675.675 0 0 1-.675-.675v-4.65a.675.675 0 0 1 .675-.675m-7.5 0h4.65a.675.675 0 0 1 .675.675v4.65a.675.675 0 0 1-.675.675h-4.65a.675.675 0 0 1-.675-.675v-4.65a.675.675 0 0 1 .675-.675" clip-rule="evenodd"/></svg>