<svg width="24" height="24" viewBox="0 0 24 24" fill="none"><path fill="#101341" fill-rule="evenodd" d="M8.266 5.25h7.672L19.875 12l-3.937 6.75h-7.74l3.87-6.75zm4.073 2.375L14.852 12l-2.512 4.375h2.24L17.093 12 14.58 7.625z" clip-rule="evenodd"/><path fill="#101341" fill-rule="evenodd" d="M9.085 8.27 6.908 12l2.157 3.698-1.379 2.406L4.125 12l3.592-6.158z" clip-rule="evenodd" opacity=".5"/><path fill="#101341" fill-rule="evenodd" d="M8.266 5.25h7.672L19.875 12l-3.937 6.75h-7.74l3.87-6.75zm4.073 2.375L14.852 12l-2.512 4.375h2.24L17.093 12 14.58 7.625z" clip-rule="evenodd"/><path fill="#101341" fill-rule="evenodd" d="M9.085 8.27 6.908 12l2.157 3.698-1.379 2.406L4.125 12l3.592-6.158z" clip-rule="evenodd" opacity=".5"/></svg>