<svg width="24" height="24" viewBox="0 0 24 24" fill="none"><path fill="#18578c" d="M8.725 15.252a1.314 1.314 0 0 1 0 1.833 1.257 1.257 0 0 1-1.8.002 1.31 1.31 0 0 1 0-1.837 1.257 1.257 0 0 1 1.8.002m8.297-8.707a1.3 1.3 0 0 1 .786 1.199c0 .525-.31.997-.786 1.198a1.255 1.255 0 0 1-1.387-.281 1.31 1.31 0 0 1 0-1.834 1.26 1.26 0 0 1 1.387-.282m-8.464 7.707 1.227-1.257a2.45 2.45 0 0 0 1.347 1.373l-1.23 1.253zM15.83 9.65l-1.23 1.255a2.4 2.4 0 0 0-.533-.824 2.4 2.4 0 0 0-.81-.545l1.23-1.254zm-.515 5.957a1.27 1.27 0 0 1 1.177-.8c.515 0 .98.316 1.177.8a1.32 1.32 0 0 1-.277 1.414 1.26 1.26 0 0 1-1.389.281 1.3 1.3 0 0 1-.411-.281 1.32 1.32 0 0 1-.277-1.414M6.776 7.133a1.27 1.27 0 0 1 1.177-.801c.515 0 .98.315 1.177.8a1.32 1.32 0 0 1-.276 1.414 1.26 1.26 0 0 1-1.801 0 1.32 1.32 0 0 1-.277-1.413m7.609 8.433-1.234-1.25a2.45 2.45 0 0 0 1.347-1.373l1.23 1.254zm-4.38-7.358 1.23 1.255a2.4 2.4 0 0 0-.808.542 2.5 2.5 0 0 0-.536.826l-1.23-1.253zm2.206-1.11a1.287 1.287 0 0 1-1.275-1.3c0-.718.57-1.298 1.275-1.298.337 0 .662.136.901.38.24.244.374.574.373.918 0 .718-.57 1.3-1.275 1.3m1.275 11.104c0 .717-.572 1.298-1.275 1.298a1.287 1.287 0 0 1-1.275-1.298c0-.717.57-1.3 1.275-1.3.337 0 .662.137.901.381.24.244.374.574.373.919m-.812-10.425v1.608a2.3 2.3 0 0 0-.803 0V7.777zm0 6.909v1.608h-.803v-1.609c.265.047.537.047.803 0m3.999-2.544a1.32 1.32 0 0 1 .276-1.415 1.26 1.26 0 0 1 1.39-.283 1.313 1.313 0 0 1 .414 2.119 1.262 1.262 0 0 1-2.08-.421m-11.798-.277c0-.717.57-1.298 1.275-1.298.704 0 1.274.58 1.275 1.297 0 .345-.135.675-.373.919a1.26 1.26 0 0 1-.902.38 1.287 1.287 0 0 1-1.275-1.297zm11.312.409-1.578-.002c.046-.27.046-.547 0-.817h1.578zm-6.482 0H8.126v-.818h1.579c-.046.27-.046.547 0 .818m2.467 1.528c-.998 0-1.807-.825-1.807-1.841s.81-1.841 1.807-1.841c.998 0 1.807.825 1.808 1.841 0 1.016-.81 1.84-1.808 1.84"/></svg>