<svg width="24" height="24" viewBox="0 0 24 24" fill="none"><path fill="#feffff" d="M5.83 17.235v.117H4.622v-2.215l-.037.122-1.155-.352.652-2.134-.08.119L3 12.217l1.251-1.856-.12.097-.759-.939 1.8-1.458-.23.088-.432-1.127 2.15-.825-.251.017-.084-1.205 2.251-.157-.202-.048.271-1.177 2.151.497-.135-.078L11.264 3l1.877 1.083-.074-.078.884-.824 1.46 1.567-.03-.064 1.085-.53.938 1.922-.009-.054 1.193-.19.352 2.22.024-.157 1.194.189-.357 2.252.088-.181 1.086.53-1.005 2.06.146-.158.884.825-1.561 1.673.189-.108.603 1.046-1.963 1.133.198-.046.271 1.177-2.169.501.167.011-.084 1.206-2.171-.152.11.042-.432 1.128-2.08-.798.132.106-.76.939-1.716-1.389.085.125-1.001.675-1.226-1.817.036.12-1.155.352zm0-1.435.754-.23.587 1.917.652-.44L8.938 18.7l.498-.615 1.545 1.25.277-.72 1.861.716.055-.78 1.992.139-.18-.776 1.954-.452-.405-.7 1.744-1.007-.598-.556 1.378-1.478-.735-.357.886-1.816-.803-.128.314-1.993-.768.121-.314-1.993-.693.337-.88-1.802-.563.526-1.361-1.459-.39.674-1.722-.994-.178.77-1.938-.447.056.805-1.989.139.294.766-1.872.718.504.623-1.573 1.274.664.447-1.134 1.68.764.233-.593 1.937h.795zM8.5 8.413h2.435q.425 0 .845.06t.738.24.484.502q.167.324.092.858-.073.554-.438.918-.365.365-.89.521v.02q.313.045.558.18.245.132.401.34.158.209.222.485t.018.59q-.074.517-.341.863a2.1 2.1 0 0 1-.646.559c-.26.144-.54.246-.83.304q-.438.09-.886.092H7.586zm1.07 2.612h1.043q.165 0 .332-.037a1.1 1.1 0 0 0 .309-.12.75.75 0 0 0 .24-.222.76.76 0 0 0 .124-.332.56.56 0 0 0-.042-.337.5.5 0 0 0-.198-.207 1 1 0 0 0-.3-.106 2 2 0 0 0-.336-.032h-.979zm-.379 2.703h1.292q.166 0 .345-.037a.95.95 0 0 0 .586-.37.75.75 0 0 0 .14-.36.56.56 0 0 0-.065-.372.6.6 0 0 0-.259-.218 1.4 1.4 0 0 0-.364-.101 3 3 0 0 0-.373-.028h-1.09zm6.945-5.211-1.527 5.58-1.262-.088.951-5.753zm-1.332 6.162-.396 1.971-1.678-.489.384-1.89z"/><path fill="#00b4f4" d="M5.83 17.1v.117H4.622v-2.215l-.037.122-1.155-.352.652-2.135-.08.12L3 12.082l1.251-1.856-.12.097-.759-.939 1.8-1.458-.23.088-.432-1.128 2.15-.825-.251.018-.084-1.205 2.251-.157-.202-.048.271-1.177 2.151.497-.135-.078.603-1.046 1.877 1.083-.074-.078.884-.824 1.46 1.567-.03-.064 1.085-.53.938 1.922-.009-.054 1.193-.19.352 2.22.024-.158 1.194.19L19.8 10.2l.088-.181 1.086.53-1.005 2.06.146-.158.884.825-1.561 1.674.189-.11.603 1.047-1.963 1.132.198-.044.271 1.176-2.169.501.167.012-.084 1.205-2.171-.152.11.042-.432 1.127-2.08-.797.132.106-.76.939-1.716-1.389.085.125-1.001.675-1.226-1.817.036.12-1.155.352zm0-1.436.754-.23.587 1.918.652-.44 1.115 1.653.498-.615 1.545 1.25.277-.72 1.861.715.055-.78 1.992.14-.18-.776 1.954-.452-.405-.7 1.744-1.007-.598-.556 1.378-1.478-.735-.357.886-1.816-.803-.128.314-1.993-.768.121-.314-1.993-.693.337-.88-1.802-.563.526-1.361-1.459-.39.674-1.722-.994-.178.77-1.938-.447.056.805-1.989.138.294.767-1.872.718.504.623-1.573 1.273.664.447-1.134 1.68.764.234-.593 1.937h.795zM8.5 8.279h2.435q.425 0 .845.06t.738.24.484.502.092.858q-.073.554-.438.918-.365.365-.89.521v.02q.313.045.558.18.245.133.401.34.158.209.222.485t.018.59q-.074.517-.341.863a2.1 2.1 0 0 1-.646.559 2.9 2.9 0 0 1-.83.304q-.438.09-.886.092H7.586zm1.07 2.612h1.043q.165 0 .332-.038a1.1 1.1 0 0 0 .309-.12.75.75 0 0 0 .24-.22.76.76 0 0 0 .124-.333.56.56 0 0 0-.042-.337.5.5 0 0 0-.198-.208 1 1 0 0 0-.3-.105 2 2 0 0 0-.336-.033h-.979zm-.379 2.703h1.292q.166 0 .345-.037a.95.95 0 0 0 .586-.37.75.75 0 0 0 .14-.36.56.56 0 0 0-.065-.372.6.6 0 0 0-.259-.218 1.4 1.4 0 0 0-.364-.101 3 3 0 0 0-.373-.028h-1.09zm6.945-5.211-1.527 5.58-1.262-.088.951-5.753zm-1.332 6.162-.396 1.971-1.678-.489.384-1.89z"/></svg>