<svg width="24" height="24" viewBox="0 0 24 24" fill="none"><path fill="#fe5d86" d="M5.625 6.78c0-.431.354-.78.79-.78h5.692c3.357 0 4.54.396 5.357 1.2a2.57 2.57 0 0 1 .735 1.955c0 1.389-.748 2.33-2.765 2.743 1.948.34 2.937 1.133 2.937 2.726a2.7 2.7 0 0 1-.765 2.021C16.808 17.434 15.503 18 11.99 18H6.416a.785.785 0 0 1-.79-.78zm4.32 4.47c0-.287.237-.519.528-.519h1.832c1.046 0 1.828-.051 2.19-.426a.9.9 0 0 0 .243-.668.84.84 0 0 0-.225-.657c-.368-.361-1.15-.425-2.208-.425h-3.41v6.924h3.375c1.15 0 2-.085 2.398-.481a.92.92 0 0 0 .26-.703.97.97 0 0 0-.26-.72c-.402-.395-1.253-.425-2.398-.425h-1.785a.53.53 0 0 1-.503-.33.5.5 0 0 1-.037-.207z"/></svg>