<svg width="24" height="24" viewBox="0 0 24 24" fill="none"><path fill="#eab304" d="m16.771 9.766.052-.105c0-.053 0-.105.105-.068a.4.4 0 0 0 0-.142.3.3 0 0 0 0-.21 1.3 1.3 0 0 1-.052-.818.2.2 0 0 0 0-.105l.052-.052q.033.03.053.067a.2.2 0 0 1 0 .105v.053c0 .052.09-.053.127-.09a1 1 0 0 1 .15-.09 1 1 0 0 0-.052-.405 1.25 1.25 0 0 1 .053-.855c0 .052.067.09.067.142a.8.8 0 0 0 .232.518c.153.175.268.379.338.6 0 0 0 .067.052.067.216.063.413.178.57.338q.272.245.518.517.042.047.067.105h.053q.014-.247 0-.495c0-.142.068-.285.21-.262h.067a.29.29 0 0 1 .226-.27.3.3 0 0 1 0 .3c.105.127.127.195 0 .337-.128.143-.068.158 0 .3a.7.7 0 0 1 .09-.232c.037-.075.052-.195.142-.233q.045-.015.09 0a.7.7 0 0 0 .262 0 .26.26 0 0 1 .263.158l-.247.12c.052.105 0 .142-.105.21q-.079.072-.143.157.144-.026.285-.067a.28.28 0 0 1 .323.157q.03.065.09.105a.38.38 0 0 1 .127.248.14.14 0 0 1 0 .067l-.142-.105a.097.097 0 0 0-.136 0 .135.135 0 0 1-.187 0 .33.33 0 0 0-.337 0q-.12.079-.248.143a.64.64 0 0 1 .473.322c.052.105.127.21.18.323a.187.187 0 0 1-.09.247h-.038v-.037c0-.09-.052-.105-.142-.09a.196.196 0 0 1-.248-.128.83.83 0 0 0-.412-.39l-.158-.067a.6.6 0 0 1-.067.195.5.5 0 0 1-.09.105c-.105.09-.105.105 0 .232.105.128.052.068.09.128a.37.37 0 0 1-.3-.128 1.3 1.3 0 0 1-.226-.352.29.29 0 0 1 .105-.338.6.6 0 0 0 .128-.18l-.532-.142q.012.123 0 .247.027.454 0 .908-.03.675-.21 1.327a4.5 4.5 0 0 1-.375.96q-.204.413-.458.795a5 5 0 0 1-.48.6 4.4 4.4 0 0 1-.585.57c-.232.195-.48.353-.75.518-.364.23-.757.41-1.17.532a7 7 0 0 1-.847.195 5 5 0 0 1-.48.068.32.32 0 0 0-.21.21.9.9 0 0 1-.39.585c-.09.067-.195.127-.3.195l.052-.158a.2.2 0 0 0-.053-.195c-.052-.052-.127 0-.194 0-.068 0-.128.09-.143.195a.58.58 0 0 1-.338.443h-.09a1 1 0 0 0 .053-.195c0-.053-.053-.105-.09-.158-.037-.052-.067 0-.105 0l-.322.158-.106.052.285.128a.75.75 0 0 1 .353.352.24.24 0 0 1 0 .285.08.08 0 0 0 0 .09.7.7 0 0 1-.068.533c0 .052-.09.105-.127.157l-.053-.36a.07.07 0 0 0-.067-.067.56.56 0 0 1-.518-.3l-.052-.068a.65.65 0 0 1-.39.263.8.8 0 0 0-.442.517q-.04.196-.128.375a.34.34 0 0 1-.427.195v.285a.316.316 0 0 1-.225-.39.3.3 0 0 0 0-.127.465.465 0 0 1 .157-.6c.147-.107.274-.24.375-.39a.1.1 0 0 0 0-.053l-.532-.067a.5.5 0 0 0-.39.052l-.105.135c-.158.18-.233.195-.443.09a.75.75 0 0 0-.09.48.56.56 0 0 1-.157-.285.6.6 0 0 1 0-.18v-.105a.25.25 0 0 1 0-.157.62.62 0 0 1 .322-.323 1.13 1.13 0 0 1 .533-.18q.213-.013.427 0h.105a.6.6 0 0 0-.352-.337l-.405-.158a.17.17 0 0 1-.195-.142.07.07 0 0 0-.068-.068.64.64 0 0 0-.352.105c.052-.157.127-.322.3-.352q.116-.015.232 0h.068c.105-.158.262-.128.405-.053.207.1.38.258.495.458a.4.4 0 0 0 .262.21 1 1 0 0 0-.052-.405.285.285 0 0 0-.21-.263c-.18-.052-.233-.18-.143-.375a.45.45 0 0 0-.442-.09c.052-.142.262-.195.405-.18a.75.75 0 0 0 .427.105.32.32 0 0 1 .233.18l.105.21c.09.158.157.338.232.495.105-.3.232-.622.352-.96l-.18-.067-.517-.21a6 6 0 0 1-1.117-.638.6.6 0 0 0-.195-.067c-.053 0-.128.067-.09.127.037.06.09.068.127.128s0 .052.068.09h-.09a.6.6 0 0 1-.57-.375 1.9 1.9 0 0 1-.195-.713.07.07 0 0 0 0-.052l-.48-.533a.4.4 0 0 0 0 .285l.052.105v.128h-.142a1.1 1.1 0 0 1-.195-.3c-.068-.263-.105-.533-.158-.795a3 3 0 0 0-.067-.39 4 4 0 0 0-.143-.443v.413c0 .037-.09 0-.105-.068a1.1 1.1 0 0 1-.142-.457 3.5 3.5 0 0 1 .157-1.118 3 3 0 0 1 .128-.39.5.5 0 0 1-.068.12l-.067.068v-.09a.9.9 0 0 1 .127-.48c.128-.285.285-.57.428-.848q.088-.149.195-.285l-.128.135-.09.053v-.053q.071-.12.158-.232a2.8 2.8 0 0 1 .585-.533.24.24 0 0 1 .157 0l.75.158.263.067a1 1 0 0 0-.18.248.32.32 0 0 0 0 .292.11.11 0 0 1 0 .128 2 2 0 0 0-.428.517v.068s.248.247.375.39a.1.1 0 0 1 0 .067.63.63 0 0 0 0 .638.255.255 0 0 0 .323.18.62.62 0 0 0 .127.405c.053.052.128.09.18.142a.2.2 0 0 1 .068.09.75.75 0 0 0 .6.518.95.95 0 0 0 .622-.128c.068 0 .09-.052.105 0a2.5 2.5 0 0 0 .248.75q.234.414.57.75c.2.192.445.33.712.405.33.074.675-.019.923-.247a2.3 2.3 0 0 0 .39-.533l.322-.517a1.7 1.7 0 0 1 .533-.48.3.3 0 0 1 .247-.053l-.053.105a.4.4 0 0 0 0 .428c.053.067.09.067.128 0 .037-.068.105-.195.248-.18.142.015.142-.09.157-.18.015-.39.131-.77.338-1.103a1 1 0 0 1 .127-.105v.285a1.2 1.2 0 0 0 .067.233l.046-.098a.16.16 0 0 1 .142-.09.15.15 0 0 0 .09-.052.46.46 0 0 0 .09-.428 1 1 0 0 1 0-.337c0-.142.036-.282.105-.405a.4.4 0 0 1 .067-.105h.053v.247a.14.14 0 0 0 0 .068h.067l.136-.09a.54.54 0 0 0 .067-.3.5.5 0 0 1 0-.18V9.66c0-.083 0-.09.052-.143l.083-.045v.33a.07.07 0 0 1 .06-.037m-9.217-3.42.442-.443a.3.3 0 0 1 .09-.067c.053-.053 0-.105 0-.158 0-.052-.067 0-.127 0H7.89v-.09a.44.44 0 0 1 .248-.277.9.9 0 0 1 .6 0 .12.12 0 0 0 .105 0l.427-.233c.068 0 .053-.067 0-.105-.052-.037-.127-.09-.195 0a.14.14 0 0 1-.067 0c0-.127.127-.232.247-.285a1.06 1.06 0 0 1 .623 0h.03c.052 0 .21.068.337 0l.262-.09c.068 0 .068-.052 0-.09-.067-.037-.09-.105-.157-.052-.068.052 0 0-.068 0a.083.083 0 0 1 0-.113.62.62 0 0 1 .458-.12.75.75 0 0 1 .405.158h.052a.21.21 0 0 0 .21.067.28.28 0 0 1 .286 0h.052V4.38a.21.21 0 0 0-.21-.158h-.053a.65.65 0 0 1 .638-.09.93.93 0 0 1 .39.3q.06.037.128.053a.8.8 0 0 1 .3.052c.09.053.052 0 .067.068a.203.203 0 0 0-.098-.27h-.15v-.113a.7.7 0 0 1 .248 0c.237.028.45.156.585.353q.08.135.128.285a.37.37 0 0 1 .337.142h.053a.4.4 0 0 0 .09-.03.285.285 0 0 0-.195-.262h-.053c.067 0 .127-.053.195 0q.17.016.322.09a.92.92 0 0 1 .54.615c.128.067.21.142.3.195h.106v-.158a.35.35 0 0 0-.195-.247l-.068-.053a.48.48 0 0 1 .457.143c.14.117.243.27.3.442a.18.18 0 0 0 .106.128q.084.064.157.142c.067-.195-.09-.3-.142-.442a.4.4 0 0 1 .3.142q.156.165.284.353.082.137.18.262.083.152.105.323a2.1 2.1 0 0 1-.104.75q-.015.247 0 .495a.1.1 0 0 1 0 .067.65.65 0 0 0-.233.443 2.2 2.2 0 0 0 0 .675v.052a.75.75 0 0 0-.337.623v.39a.62.62 0 0 0-.466.42c-.052.105-.067.232-.127.337s-.068.068-.105.105v-.142q.067-.353.053-.713a2.5 2.5 0 0 0-.196-1.027v-.128a.75.75 0 0 0 .21-.442q.03-.375 0-.75a.7.7 0 0 0-.18-.48.435.435 0 0 0-.48-.098.58.58 0 0 0-.352.533v.262a2.6 2.6 0 0 0-.937-.6 3.5 3.5 0 0 0-.623-.157h-.458a2.8 2.8 0 0 0-.87.142c-.157.053-.3.128-.457.18a.11.11 0 0 1-.105 0 4.1 4.1 0 0 0-1.08-.457 2.7 2.7 0 0 0-.547-.09c-.375-.075-.75-.128-1.065-.225a2.6 2.6 0 0 1-.795-.338.27.27 0 0 0-.09-.127M14.64 9.87c0 .127-.232.157-.48.09v.262q.006.045 0 .09h-.105a2 2 0 0 1-.21-.195.32.32 0 0 0-.18.21c-.053.143-.127.158-.232 0a1 1 0 0 0-.128-.105q-.072.104-.157.195a.15.15 0 0 1-.105.053.4.4 0 0 1-.068-.09.5.5 0 0 1 0-.158c-.09.233-.195.428-.458.48a.53.53 0 0 1 .053-.285c.053-.09 0 0 0-.052a.64.64 0 0 0-.195.427c.012.325.096.643.248.93.104.263.232.518.337.75.096.238.14.494.127.75a.675.675 0 0 1-1.08.6 1.6 1.6 0 0 1-.442-.405 7 7 0 0 1-.3-.427 2.4 2.4 0 0 1-.127-.323v-.105a.195.195 0 0 1 .195.128c.037.06.194.3.3.442.086.173.216.32.374.428a.435.435 0 0 0 .57-.233v-.052a.7.7 0 0 0-.052-.57c-.127-.285-.285-.57-.428-.848a3.1 3.1 0 0 1-.337-.96 1.2 1.2 0 0 1 0-.247 2 2 0 0 1-.337 0l-.338-.09-.158.105a.3.3 0 0 0 0-.105.37.37 0 0 0-.195-.338.14.14 0 0 0-.142.143.43.43 0 0 0 .195.39l.3.21c.105.067.09.067.143 0a.3.3 0 0 0 0-.105c.142 0 .195.09.21.232q.052.271.142.533a.28.28 0 0 1-.067.21.86.86 0 0 1-.353.262.5.5 0 0 1-.352 0q.097-.098.21-.18a.26.26 0 0 0 .067-.247.08.08 0 0 0-.068-.053 1 1 0 0 0-.21 0 .22.22 0 0 0-.142.068 3 3 0 0 1-.39.262.59.59 0 0 1-.69-.105.7.7 0 0 1-.142-.247l-.053-.105a.4.4 0 0 1-.09.067c-.037 0-.052-.09 0-.105q.034-.146.09-.285a.11.11 0 0 0 0-.105.6.6 0 0 0-.232-.195c-.068-.052-.128 0-.18 0h-.09a1 1 0 0 0 0-.09.42.42 0 0 1 .3-.337h.09a1.6 1.6 0 0 1-.57-.375c-.053-.053-.068-.09 0-.143.067-.052.195-.172.3-.247a.93.93 0 0 1 .622 0c.185.061.355.163.495.3l.053.052a.88.88 0 0 0-.548-.555 2.3 2.3 0 0 0-.712-.142.25.25 0 0 1 .195-.18l.405-.075a.9.9 0 0 0 .39-.195 1.5 1.5 0 0 0-.233-.158c-.21-.09-.427-.195-.637-.262a2.1 2.1 0 0 0-.6-.165 4.2 4.2 0 0 1-.848-.21 3.5 3.5 0 0 1-.937-.413c-.3-.195-.555-.45-.75-.75a1 1 0 0 1-.105-.247v-.09h.09l.12.067c.195.158.375.353.57.495.239.174.508.301.795.375.232.053.457.105.69.143s.39 0 .585.052l.427.053q.245.017.48.09c.248.09.48.195.713.285a.08.08 0 0 0 .09 0q.146-.034.284-.09v-.083a6 6 0 0 0-.532-.262 3.8 3.8 0 0 0-1.065-.248L8.55 7.41a6 6 0 0 1-.802-.188 2.6 2.6 0 0 1-.75-.427 1.2 1.2 0 0 1-.405-.57v-.158a.17.17 0 0 1 .127 0l.195.21c.105.105.21.21.338.323a2.7 2.7 0 0 0 1.005.495c.21.052.427.09.637.127.338.053.69.105 1.028.18.4.072.773.25 1.08.518.127.105.232.052.352 0a.3.3 0 0 1 .322.157c.09.243.09.508 0 .75a.225.225 0 0 0 .105.233h.09a.64.64 0 0 1 .638.09.16.16 0 0 0 .195 0 4 4 0 0 0 .428-.233c.142-.09.067-.127.104-.195a.55.55 0 0 1 .57-.3q.244 0 .48.053a.75.75 0 0 0 .39 0 .38.38 0 0 0 .33-.308v-.48c0-.052 0-.105.09-.105s.068.068.068.128c.054.247.054.502 0 .75a.41.41 0 0 1-.457.352h-.638a.36.36 0 0 0-.375.285.2.2 0 0 0 0 .105c.053.105.09.195.248.18.083.008.15.074.157.158a.41.41 0 0 0 .375.337zm-4.177-.518q.135.139.284.263a.29.29 0 0 0 .353 0q.15-.09.285-.195v-.053a.24.24 0 0 0-.127-.157.4.4 0 0 0-.196 0l-.127.052a.75.75 0 0 1-.39 0zm2.444.248q.047.038.106.052c.13.025.25.094.337.195q.131.014.262 0c.053 0 .09-.052.143-.067q-.064-.078-.143-.143a1.04 1.04 0 0 0-.704-.037m-9.344 2.31a.75.75 0 0 0 .75.21.3.3 0 0 0 .195-.18 1.22 1.22 0 0 1-.833-.105 1 1 0 0 1-.48-.653.975.975 0 0 1 .405-1.08.983.983 0 0 0 .645 1.23h.105a1.03 1.03 0 0 0 1.133-.555 3 3 0 0 0-.225.195.96.96 0 0 1-1.088 0 .668.668 0 0 1-.037-1.087.42.42 0 0 0 .21.3q.166.091.352.127a.89.89 0 0 0 .75-.232c.109-.112.193-.245.248-.39.142-.338.247-.69.405-1.028q.152-.308.337-.6c0-.052.068 0 .105 0l.39.21.248.105-.105.09a4 4 0 0 0-.6.833c-.128.232-.248.442-.353.675a10 10 0 0 0-.3.795l-.21.6c-.052.157-.127.3-.195.457a1.1 1.1 0 0 1-.495.533c-.13.063-.27.1-.412.112a1.7 1.7 0 0 1-.428 0 .57.57 0 0 1-.502-.405.3.3 0 0 0-.015-.157m10.552-.6q.014.123 0 .247c0 .105-.067.105-.157.053l-.21-.105h-.09a.43.43 0 0 1 0 .39.2.2 0 0 1-.068.09h-.082l-.053-.158a.17.17 0 0 0-.225-.09.7.7 0 0 0-.195.09h-.105a2.3 2.3 0 0 1-.247-.795l.075.09a.35.35 0 0 0 .427 0 .3.3 0 0 0 0-.247c0-.053-.053-.09-.068-.143.105 0 .105-.09.375.233l.195-.105c.068 0 0-.105 0-.143v-.157l.128.052a.2.2 0 0 1 .09.068q.169.19.375.337a.35.35 0 0 1 .127.285v.068h-.052c-.187-.06-.187-.06-.24-.06m-8.857-1.193a.8.8 0 0 0-.48-.105 1 1 0 0 1-.21 0 .286.286 0 0 1-.21-.405c.067 0 .127.09.195.128.067.037.09 0 .09-.053a.22.22 0 0 1 .127-.21.34.34 0 0 1 .338.068c.151.15.21.372.15.577"/></svg>