<svg width="24" height="24" viewBox="0 0 24 24" fill="none">
<path d="M16.771 9.76576L16.8235 9.66076C16.8235 9.60826 16.8235 9.55576 16.9285 9.59326C16.9366 9.54611 16.9366 9.49792 16.9285 9.45076C16.9538 9.38305 16.9538 9.30848 16.9285 9.24076C16.8221 8.98133 16.8037 8.69417 16.876 8.42326C16.8843 8.38875 16.8843 8.35277 16.876 8.31826L16.9285 8.26576C16.9498 8.28505 16.9676 8.30789 16.981 8.33326C16.9893 8.36777 16.9893 8.40375 16.981 8.43826V8.49076C16.981 8.54326 17.071 8.43826 17.1085 8.40076C17.1548 8.36501 17.2052 8.33481 17.2585 8.31076C17.2685 8.1736 17.2506 8.03584 17.206 7.90576C17.1225 7.62345 17.1411 7.32073 17.2585 7.05076C17.2585 7.10326 17.326 7.14076 17.326 7.19326C17.3388 7.38826 17.4213 7.57201 17.5585 7.71076C17.7108 7.88551 17.8255 8.08951 17.896 8.31076C17.896 8.31076 17.896 8.37826 17.9485 8.37826C18.1645 8.44051 18.361 8.55601 18.5185 8.71576C18.7 8.87926 18.8725 9.05176 19.036 9.23326C19.0643 9.26416 19.0872 9.29967 19.1035 9.33826H19.156C19.1648 9.17338 19.1648 9.00815 19.156 8.84326C19.156 8.70076 19.2235 8.55826 19.366 8.58076H19.4335C19.4367 8.51746 19.4604 8.4569 19.5009 8.4082C19.5415 8.35951 19.5968 8.32531 19.6585 8.31076C19.6848 8.35637 19.6987 8.4081 19.6987 8.46076C19.6987 8.51342 19.6848 8.56516 19.6585 8.61076C19.7635 8.73826 19.786 8.80576 19.6585 8.94826C19.531 9.09076 19.591 9.10576 19.6585 9.24826C19.6731 9.16565 19.7037 9.08667 19.7485 9.01576C19.786 8.94076 19.801 8.82076 19.891 8.78326C19.9201 8.77297 19.9519 8.77297 19.981 8.78326C20.0677 8.80044 20.1569 8.80044 20.2435 8.78326C20.2983 8.77876 20.353 8.79153 20.4001 8.81979C20.4472 8.84804 20.4842 8.89035 20.506 8.94076L20.2585 9.06076C20.311 9.16576 20.2585 9.20326 20.1535 9.27076C20.1013 9.31874 20.0535 9.37147 20.011 9.42826C20.1072 9.41121 20.2024 9.38867 20.296 9.36076C20.3597 9.34457 20.4271 9.35151 20.4862 9.38036C20.5452 9.4092 20.5921 9.45807 20.6185 9.51826C20.6386 9.56068 20.6697 9.59694 20.7085 9.62326C20.7812 9.68634 20.8269 9.77496 20.836 9.87076C20.8417 9.8929 20.8417 9.91613 20.836 9.93826L20.6935 9.83326C20.6754 9.81584 20.6512 9.80612 20.626 9.80612C20.6009 9.80612 20.5767 9.81584 20.5585 9.83326C20.5334 9.85755 20.4997 9.87112 20.4648 9.87112C20.4298 9.87112 20.3962 9.85755 20.371 9.83326C20.32 9.80289 20.2617 9.78685 20.2023 9.78685C20.1429 9.78685 20.0846 9.80289 20.0335 9.83326C19.9539 9.8856 19.8713 9.93319 19.786 9.97576C19.8845 9.98899 19.9784 10.025 20.0605 10.081C20.1425 10.137 20.2103 10.2114 20.2585 10.2983C20.311 10.4033 20.386 10.5083 20.4385 10.6208C20.4591 10.6656 20.4611 10.7167 20.4443 10.763C20.4274 10.8093 20.393 10.8471 20.3485 10.8683H20.311V10.8308C20.311 10.7408 20.2585 10.7258 20.1685 10.7408C20.1439 10.7489 20.1179 10.752 20.0921 10.75C20.0662 10.748 20.041 10.7408 20.018 10.729C19.995 10.7171 19.9745 10.7008 19.9579 10.6809C19.9412 10.661 19.9287 10.638 19.921 10.6133C19.834 10.4386 19.6878 10.3004 19.5085 10.2233L19.351 10.1558C19.3393 10.224 19.3165 10.2899 19.2835 10.3508C19.2588 10.39 19.2285 10.4254 19.1935 10.4558C19.0885 10.5458 19.0885 10.5608 19.1935 10.6883C19.2985 10.8158 19.246 10.7558 19.2835 10.8158C19.2271 10.819 19.1706 10.8092 19.1186 10.7871C19.0666 10.765 19.0203 10.7312 18.9835 10.6883C18.8904 10.5834 18.8144 10.4644 18.7585 10.3358C18.7368 10.2758 18.7353 10.2103 18.7543 10.1494C18.7732 10.0884 18.8116 10.0354 18.8635 9.99826C18.9162 9.94613 18.9593 9.88522 18.991 9.81826L18.4585 9.67576C18.467 9.75804 18.467 9.84098 18.4585 9.92326C18.4765 10.2255 18.4765 10.5285 18.4585 10.8308C18.4404 11.2799 18.3699 11.7254 18.2485 12.1583C18.1607 12.4916 18.0349 12.8137 17.8735 13.1183C17.7382 13.3928 17.5854 13.6583 17.416 13.9133C17.2713 14.125 17.1109 14.3256 16.936 14.5133C16.759 14.7209 16.5632 14.9117 16.351 15.0833C16.1185 15.2783 15.871 15.4358 15.601 15.6008C15.2375 15.8315 14.8438 16.0107 14.431 16.1333C14.1526 16.2149 13.8696 16.28 13.5835 16.3283C13.4249 16.3595 13.2646 16.382 13.1035 16.3958C13.0542 16.4114 13.0095 16.4386 12.9729 16.4752C12.9364 16.5117 12.9091 16.5565 12.8935 16.6058C12.8715 16.7246 12.8256 16.8377 12.7586 16.9383C12.6915 17.0388 12.6047 17.1247 12.5035 17.1908C12.4135 17.2583 12.3085 17.3183 12.2035 17.3858L12.256 17.2283C12.2651 17.194 12.265 17.158 12.2558 17.1237C12.2466 17.0895 12.2286 17.0583 12.2035 17.0333C12.151 16.9808 12.076 17.0333 12.0085 17.0333C11.941 17.0333 11.881 17.1233 11.866 17.2283C11.8516 17.3245 11.8131 17.4155 11.7541 17.4928C11.6951 17.5702 11.6175 17.6314 11.5285 17.6708H11.4385C11.462 17.6075 11.4796 17.5422 11.491 17.4758C11.491 17.4233 11.4385 17.3708 11.401 17.3183C11.3635 17.2658 11.3335 17.3183 11.296 17.3183L10.9735 17.4758L10.8685 17.5283L11.1535 17.6558C11.3078 17.7296 11.4321 17.854 11.506 18.0083C11.5365 18.0495 11.5529 18.0995 11.5529 18.1508C11.5529 18.2021 11.5365 18.252 11.506 18.2933C11.4973 18.3067 11.4927 18.3223 11.4927 18.3383C11.4927 18.3542 11.4973 18.3699 11.506 18.3833C11.5305 18.4721 11.5371 18.5649 11.5255 18.6563C11.514 18.7477 11.4844 18.8359 11.4385 18.9158C11.4385 18.9683 11.3485 19.0208 11.311 19.0733L11.2585 18.7133C11.2585 18.6954 11.2514 18.6782 11.2387 18.6655C11.2261 18.6529 11.2089 18.6458 11.191 18.6458C11.0851 18.6504 10.9801 18.6246 10.8884 18.5714C10.7967 18.5183 10.7221 18.44 10.6735 18.3458L10.621 18.2783C10.5282 18.4112 10.3891 18.5048 10.231 18.5408C10.1238 18.5893 10.0286 18.6608 9.95216 18.7503C9.87569 18.8397 9.81983 18.9448 9.78852 19.0583C9.76278 19.1883 9.71991 19.3144 9.66102 19.4333C9.62907 19.5149 9.56657 19.581 9.48678 19.6174C9.40698 19.6538 9.31615 19.6577 9.23352 19.6283V19.9133C9.1929 19.9028 9.15477 19.8844 9.12137 19.859C9.08797 19.8337 9.05997 19.8019 9.03901 19.7656C9.01806 19.7292 9.00456 19.6891 8.99933 19.6475C8.99409 19.6059 8.99722 19.5636 9.00852 19.5233C9.01765 19.4813 9.01765 19.4378 9.00852 19.3958C8.95633 19.2939 8.94354 19.1764 8.9726 19.0657C9.00166 18.955 9.07053 18.8589 9.16602 18.7958C9.31288 18.6887 9.43981 18.5567 9.54102 18.4058C9.54624 18.3887 9.54624 18.3704 9.54102 18.3533L9.00852 18.2858C8.94332 18.2678 8.87518 18.2632 8.80817 18.2722C8.74115 18.2813 8.67665 18.3037 8.61852 18.3383L8.51352 18.4733C8.35602 18.6533 8.28102 18.6683 8.07102 18.5633C7.98831 18.7087 7.95663 18.8777 7.98102 19.0433C7.90157 18.9659 7.84677 18.8667 7.82352 18.7583C7.81435 18.6986 7.81435 18.6379 7.82352 18.5783V18.4733C7.80637 18.4222 7.80637 18.3669 7.82352 18.3158C7.88635 18.1713 8.00159 18.0561 8.14602 17.9933C8.30528 17.8889 8.48858 17.8269 8.67852 17.8133C8.82102 17.8043 8.96352 17.8043 9.10602 17.8133H9.21102C9.17919 17.7354 9.13136 17.6652 9.07063 17.6071C9.00991 17.5489 8.93764 17.5042 8.85852 17.4758L8.45352 17.3183C8.40883 17.3248 8.36338 17.3135 8.32692 17.2868C8.29046 17.2602 8.2659 17.2203 8.25852 17.1758C8.25852 17.1579 8.25141 17.1407 8.23875 17.128C8.22609 17.1154 8.20892 17.1083 8.19102 17.1083C8.06576 17.1079 7.94315 17.1444 7.83852 17.2133C7.89102 17.0558 7.96602 16.8908 8.13852 16.8608C8.21576 16.8518 8.29378 16.8518 8.37102 16.8608H8.43852C8.54352 16.7033 8.70102 16.7333 8.84352 16.8083C9.05127 16.9073 9.22377 17.0663 9.33852 17.2658C9.36469 17.3175 9.40166 17.3631 9.44695 17.3993C9.49224 17.4355 9.54478 17.4616 9.60102 17.4758C9.611 17.3386 9.59314 17.2008 9.54852 17.0708C9.54586 17.0104 9.52409 16.9524 9.48634 16.9053C9.4486 16.8581 9.39683 16.8241 9.33852 16.8083C9.15852 16.7558 9.10602 16.6283 9.19602 16.4333C9.13673 16.3806 9.06458 16.3445 8.98688 16.3287C8.90917 16.3129 8.82867 16.3179 8.75352 16.3433C8.80602 16.2008 9.01602 16.1483 9.15852 16.1633C9.28731 16.2402 9.43622 16.2768 9.58602 16.2683C9.63627 16.2777 9.68355 16.2989 9.72398 16.3302C9.7644 16.3615 9.79681 16.402 9.81852 16.4483L9.92352 16.6583C10.0135 16.8158 10.081 16.9958 10.156 17.1533C10.261 16.8533 10.3885 16.5308 10.5085 16.1933L10.3285 16.1258L9.81102 15.9158C9.41621 15.745 9.04145 15.5312 8.69352 15.2783C8.63262 15.2453 8.56675 15.2225 8.49852 15.2108C8.44602 15.2108 8.37102 15.2783 8.40852 15.3383C8.44602 15.3983 8.49852 15.4058 8.53602 15.4658C8.57352 15.5258 8.53602 15.5183 8.60352 15.5558H8.51352C8.39167 15.5585 8.27185 15.5242 8.17003 15.4572C8.0682 15.3902 7.98919 15.2938 7.94352 15.1808C7.83301 14.9581 7.76679 14.7161 7.74852 14.4683C7.75203 14.46 7.75383 14.451 7.75383 14.442C7.75383 14.433 7.75203 14.4241 7.74852 14.4158L7.26852 13.8833C7.23256 13.9749 7.23256 14.0767 7.26852 14.1683L7.32102 14.2733V14.4008H7.17852C7.09751 14.3121 7.03163 14.2108 6.98352 14.1008C6.91602 13.8383 6.87852 13.5683 6.82602 13.3058C6.81312 13.1743 6.79056 13.0439 6.75852 12.9158C6.71966 12.7656 6.67208 12.6179 6.61602 12.4733V12.8858C6.61602 12.9233 6.52602 12.8858 6.51102 12.8183C6.42962 12.6785 6.38091 12.5221 6.36852 12.3608C6.35973 11.9822 6.41294 11.6047 6.52602 11.2433C6.56041 11.1107 6.60299 10.9805 6.65352 10.8533C6.63631 10.896 6.61362 10.9364 6.58602 10.9733L6.51852 11.0408V10.9508C6.51634 10.7821 6.56044 10.6161 6.64602 10.4708C6.77352 10.1858 6.93102 9.90076 7.07352 9.62326C7.13239 9.52421 7.19752 9.42902 7.26852 9.33826L7.14102 9.47326L7.05102 9.52576V9.47326C7.09928 9.39298 7.15186 9.31536 7.20852 9.24076C7.37724 9.03638 7.57422 8.85708 7.79352 8.70826C7.84452 8.69055 7.90001 8.69055 7.95102 8.70826L8.70102 8.86576L8.96352 8.93326C8.89208 9.0068 8.83147 9.09014 8.78352 9.18076C8.76047 9.22607 8.74845 9.27618 8.74845 9.32701C8.74845 9.37784 8.76047 9.42796 8.78352 9.47326C8.79642 9.49202 8.80333 9.51425 8.80333 9.53701C8.80333 9.55978 8.79642 9.58201 8.78352 9.60076C8.61281 9.74788 8.46827 9.92286 8.35602 10.1183V10.1858C8.35602 10.1858 8.60352 10.4333 8.73102 10.5758C8.73852 10.5983 8.73852 10.6208 8.73102 10.6433C8.67432 10.7399 8.64443 10.85 8.64443 10.962C8.64443 11.0741 8.67432 11.1841 8.73102 11.2808C8.73963 11.3142 8.75494 11.3456 8.77603 11.3729C8.79711 11.4003 8.82354 11.423 8.85369 11.4399C8.88385 11.4567 8.91711 11.4672 8.95146 11.4708C8.98581 11.4744 9.02053 11.471 9.05352 11.4608C9.04724 11.6065 9.09237 11.7499 9.18102 11.8658C9.23352 11.9183 9.30852 11.9558 9.36102 12.0083C9.39256 12.0303 9.41621 12.0618 9.42852 12.0983C9.47025 12.2319 9.54856 12.3513 9.6546 12.4427C9.76064 12.5342 9.89017 12.5941 10.0285 12.6158C10.2445 12.6458 10.4635 12.6008 10.651 12.4883C10.7185 12.4883 10.741 12.4358 10.756 12.4883C10.798 12.75 10.882 13.0028 11.0035 13.2383C11.1588 13.5128 11.3508 13.7648 11.5735 13.9883C11.7738 14.1795 12.019 14.3183 12.286 14.3933C12.616 14.4675 12.961 14.3745 13.2085 14.1458C13.364 13.9884 13.4954 13.809 13.5985 13.6133L13.921 13.0958C14.0629 12.9002 14.2444 12.7367 14.4535 12.6158C14.4882 12.589 14.5285 12.5705 14.5713 12.5614C14.6141 12.5523 14.6585 12.5529 14.701 12.5633L14.6485 12.6683C14.6086 12.7324 14.5875 12.8065 14.5875 12.882C14.5875 12.9576 14.6086 13.0316 14.6485 13.0958C14.701 13.1633 14.7385 13.1633 14.776 13.0958C14.8135 13.0283 14.881 12.9008 15.0235 12.9158C15.166 12.9308 15.166 12.8258 15.181 12.7358C15.1958 12.3452 15.3122 11.9652 15.5185 11.6333C15.557 11.5937 15.5998 11.5585 15.646 11.5283V11.8133C15.6603 11.8928 15.6835 11.9708 15.7135 12.0458L15.7585 11.9483C15.7713 11.9213 15.7915 11.8985 15.8167 11.8826C15.8419 11.8667 15.8712 11.8582 15.901 11.8583C15.9363 11.8521 15.9683 11.8335 15.991 11.8058C16.0405 11.7477 16.0746 11.6781 16.0903 11.6034C16.1061 11.5288 16.1029 11.4514 16.081 11.3783C16.0632 11.2665 16.0632 11.1526 16.081 11.0408C16.0806 10.899 16.1168 10.7595 16.186 10.6358C16.2024 10.5972 16.2252 10.5617 16.2535 10.5308H16.306V10.7783C16.3003 10.8004 16.3003 10.8236 16.306 10.8458H16.3735L16.5085 10.7558C16.5596 10.6644 16.5831 10.5602 16.576 10.4558C16.5657 10.3962 16.5657 10.3353 16.576 10.2758V9.66076C16.576 9.57826 16.576 9.57076 16.6285 9.51826L16.711 9.47326V9.80326C16.7166 9.79207 16.7251 9.78264 16.7357 9.77602C16.7463 9.7694 16.7585 9.76585 16.771 9.76576ZM7.55352 6.34576L7.99602 5.90326C8.02161 5.87542 8.05212 5.85254 8.08602 5.83576C8.13852 5.78326 8.08602 5.73076 8.08602 5.67826C8.08602 5.62576 8.01852 5.67826 7.95852 5.67826H7.89102V5.58826C7.90967 5.52682 7.94147 5.47017 7.98421 5.42225C8.02695 5.37433 8.0796 5.33629 8.13852 5.31076C8.33242 5.2409 8.54462 5.2409 8.73852 5.31076C8.75488 5.31872 8.77283 5.32286 8.79102 5.32286C8.80921 5.32286 8.82716 5.31872 8.84352 5.31076L9.27102 5.07826C9.33852 5.07826 9.32352 5.01076 9.27102 4.97326C9.21852 4.93576 9.14352 4.88326 9.07602 4.97326C9.05388 4.97898 9.03066 4.97898 9.00852 4.97326C9.00852 4.84576 9.13602 4.74076 9.25602 4.68826C9.45852 4.62601 9.67602 4.62601 9.87852 4.68826H9.90852C9.96102 4.68826 10.1185 4.75576 10.246 4.68826L10.5085 4.59826C10.576 4.59826 10.576 4.54576 10.5085 4.50826C10.441 4.47076 10.4185 4.40326 10.351 4.45576C10.2835 4.50826 10.351 4.45576 10.2835 4.45576C10.2693 4.44049 10.2614 4.42039 10.2614 4.39951C10.2614 4.37864 10.2693 4.35853 10.2835 4.34326C10.4143 4.24463 10.5787 4.20151 10.741 4.22326C10.8886 4.23465 11.0295 4.28945 11.146 4.38076H11.1985C11.2238 4.41038 11.2569 4.43238 11.2939 4.4443C11.331 4.45623 11.3707 4.4576 11.4085 4.44826C11.4516 4.42249 11.5008 4.40888 11.551 4.40888C11.6012 4.40888 11.6505 4.42249 11.6935 4.44826H11.746V4.38076C11.7341 4.33456 11.7068 4.29379 11.6687 4.26516C11.6305 4.23653 11.5837 4.22175 11.536 4.22326H11.4835C11.5726 4.15374 11.6784 4.10883 11.7902 4.09303C11.9021 4.07724 12.0162 4.09111 12.121 4.13326C12.2755 4.19626 12.4105 4.29976 12.511 4.43326C12.5504 4.45755 12.5935 4.47528 12.6385 4.48576C12.7411 4.48256 12.8432 4.50043 12.9385 4.53826C13.0285 4.59076 12.991 4.53826 13.006 4.60576C13.0174 4.58164 13.0239 4.55551 13.0252 4.52887C13.0265 4.50222 13.0224 4.47559 13.0134 4.4505C13.0043 4.42541 12.9904 4.40236 12.9724 4.38267C12.9544 4.36298 12.9327 4.34704 12.9085 4.33576H12.7585V4.22326C12.8402 4.20729 12.9243 4.20729 13.006 4.22326C13.243 4.25101 13.456 4.37926 13.591 4.57576C13.6435 4.66576 13.687 4.76101 13.7185 4.86076C13.7823 4.85292 13.8471 4.86195 13.9063 4.88696C13.9655 4.91196 14.0171 4.95207 14.056 5.00326H14.1085C14.1396 4.99696 14.1699 4.98689 14.1985 4.97326C14.1969 4.91478 14.1773 4.85822 14.1424 4.81126C14.1075 4.7643 14.059 4.72921 14.0035 4.71076H13.951C14.0185 4.71076 14.0785 4.65826 14.146 4.71076C14.2585 4.72126 14.3673 4.75201 14.4685 4.80076C14.7355 4.90951 14.935 5.13751 15.0085 5.41576C15.136 5.48326 15.2185 5.55826 15.3085 5.61076H15.4135V5.45326C15.4024 5.39971 15.3791 5.34947 15.3452 5.30651C15.3114 5.26356 15.268 5.22906 15.2185 5.20576L15.151 5.15326C15.2331 5.13486 15.3185 5.13833 15.3988 5.16334C15.4791 5.18835 15.5514 5.23401 15.6085 5.29576C15.7473 5.41276 15.8508 5.56576 15.9085 5.73826C15.9146 5.76635 15.9273 5.79259 15.9455 5.81477C15.9638 5.83695 15.9871 5.85443 16.0135 5.86576C16.0705 5.90851 16.123 5.95576 16.171 6.00826C16.2385 5.81326 16.081 5.70826 16.0285 5.56576C16.0858 5.56696 16.1421 5.58028 16.1938 5.60485C16.2455 5.62941 16.2914 5.66466 16.3285 5.70826C16.4335 5.81776 16.528 5.93551 16.6135 6.06076C16.6675 6.15226 16.7275 6.24001 16.7935 6.32326C16.8475 6.42376 16.8828 6.53326 16.8985 6.64576C16.9091 6.90005 16.8735 7.15415 16.7935 7.39576C16.7844 7.56064 16.7844 7.72589 16.7935 7.89076C16.801 7.91326 16.801 7.93576 16.7935 7.95826C16.7273 8.01284 16.6726 8.08009 16.6327 8.15607C16.5927 8.23206 16.5684 8.31525 16.561 8.40076C16.5254 8.62435 16.5254 8.85217 16.561 9.07576V9.12826C16.4578 9.1962 16.3731 9.28858 16.3142 9.39717C16.2553 9.50577 16.2242 9.62723 16.2235 9.75076V10.1408C16.1155 10.1627 16.0153 10.2132 15.9335 10.2871C15.8517 10.361 15.7913 10.4555 15.7585 10.5608C15.706 10.6658 15.691 10.7933 15.631 10.8983C15.571 11.0033 15.5635 10.9658 15.526 11.0033V10.8608C15.5708 10.6261 15.5884 10.387 15.5785 10.1483C15.5859 9.79591 15.5194 9.44592 15.3835 9.12076V8.99326C15.5011 8.87342 15.575 8.71761 15.5935 8.55076C15.6123 8.30112 15.6123 8.05041 15.5935 7.80076C15.5966 7.62371 15.5323 7.45211 15.4135 7.32076C15.3526 7.25819 15.2742 7.21543 15.1885 7.19803C15.1029 7.18064 15.0141 7.18944 14.9335 7.22326C14.8289 7.26752 14.7397 7.34164 14.677 7.43636C14.6143 7.53107 14.5809 7.64217 14.581 7.75576V8.01826C14.3159 7.75243 13.996 7.54767 13.6435 7.41826C13.4412 7.34701 13.2329 7.2943 13.021 7.26076H12.5635C12.2678 7.26185 11.9741 7.30996 11.6935 7.40326C11.536 7.45576 11.3935 7.53076 11.236 7.58326C11.2198 7.5918 11.2018 7.59626 11.1835 7.59626C11.1652 7.59626 11.1472 7.5918 11.131 7.58326C10.7946 7.38028 10.4309 7.22624 10.051 7.12576C9.87204 7.0773 9.6886 7.04714 9.50352 7.03576C9.12852 6.96076 8.75352 6.90826 8.43852 6.81076C8.15653 6.74346 7.88781 6.62938 7.64352 6.47326C7.62672 6.42283 7.59542 6.37848 7.55352 6.34576ZM14.641 9.87076C14.641 9.99826 14.4085 10.0283 14.161 9.96076V10.2233C14.1648 10.2531 14.1648 10.2834 14.161 10.3133H14.056C13.9817 10.2531 13.9115 10.1879 13.846 10.1183C13.802 10.1373 13.7629 10.1661 13.7317 10.2024C13.7005 10.2388 13.6781 10.2819 13.666 10.3283C13.6135 10.4708 13.5385 10.4858 13.4335 10.3283C13.3948 10.2889 13.352 10.2537 13.306 10.2233C13.2579 10.2917 13.2053 10.3568 13.1485 10.4183C13.1354 10.4336 13.1194 10.4462 13.1014 10.4552C13.0833 10.4642 13.0637 10.4695 13.0435 10.4708C13.0166 10.4443 12.9939 10.414 12.976 10.3808C12.9683 10.3285 12.9683 10.2755 12.976 10.2233C12.886 10.4558 12.781 10.6508 12.5185 10.7033C12.5089 10.6052 12.5271 10.5065 12.571 10.4183C12.6235 10.3283 12.571 10.4183 12.571 10.3658C12.454 10.4782 12.3842 10.6311 12.376 10.7933C12.388 11.118 12.472 11.436 12.6235 11.7233C12.7285 11.9858 12.856 12.2408 12.961 12.4733C13.057 12.711 13.1005 12.9668 13.0885 13.2233C13.1006 13.3537 13.0744 13.4847 13.0133 13.6006C12.9522 13.7164 12.8587 13.8119 12.7442 13.8755C12.6297 13.9391 12.4992 13.968 12.3686 13.9587C12.238 13.9495 12.1129 13.9024 12.0085 13.8233C11.8371 13.717 11.687 13.5796 11.566 13.4183C11.461 13.2758 11.356 13.1333 11.266 12.9908C11.2157 12.8865 11.1731 12.7787 11.1385 12.6683V12.5633C11.1804 12.5607 11.222 12.5717 11.2572 12.5947C11.2923 12.6177 11.3191 12.6514 11.3335 12.6908C11.371 12.7508 11.5285 12.9908 11.6335 13.1333C11.7198 13.3058 11.8495 13.4528 12.0085 13.5608C12.0612 13.583 12.1178 13.5946 12.1749 13.5949C12.2321 13.5952 12.2888 13.5843 12.3417 13.5627C12.3947 13.5411 12.4428 13.5093 12.4835 13.469C12.5241 13.4288 12.5564 13.381 12.5785 13.3283V13.2758C12.6101 13.1824 12.6218 13.0834 12.6127 12.9852C12.6037 12.887 12.5741 12.7918 12.526 12.7058C12.3985 12.4208 12.241 12.1358 12.0985 11.8583C11.9336 11.5592 11.8196 11.2347 11.761 10.8983C11.7522 10.816 11.7522 10.733 11.761 10.6508C11.6485 10.6598 11.536 10.6598 11.4235 10.6508L11.086 10.5608L10.9285 10.6658C10.9356 10.6311 10.9356 10.5954 10.9285 10.5608C10.9301 10.492 10.9127 10.4242 10.8783 10.3647C10.8439 10.3052 10.7938 10.2562 10.7335 10.2233C10.6957 10.2233 10.6595 10.2383 10.6328 10.265C10.606 10.2917 10.591 10.328 10.591 10.3658C10.5855 10.4423 10.6007 10.5189 10.6351 10.5875C10.6694 10.6561 10.7215 10.7142 10.786 10.7558L11.086 10.9658C11.191 11.0333 11.176 11.0333 11.2285 10.9658C11.2358 10.9311 11.2358 10.8954 11.2285 10.8608C11.371 10.8608 11.4235 10.9508 11.4385 11.0933C11.473 11.2733 11.521 11.4518 11.581 11.6258C11.5843 11.6635 11.58 11.7015 11.5684 11.7376C11.5568 11.7736 11.5382 11.807 11.5135 11.8358C11.4209 11.9525 11.2994 12.043 11.161 12.0983C11.0476 12.1422 10.9219 12.1422 10.8085 12.0983C10.874 12.0332 10.9442 11.973 11.0185 11.9183C11.05 11.8862 11.0727 11.8467 11.0846 11.8033C11.0964 11.76 11.0969 11.7143 11.086 11.6708C11.0806 11.6567 11.0715 11.6443 11.0596 11.6351C11.0477 11.6258 11.0335 11.62 11.0185 11.6183C10.9488 11.6096 10.8783 11.6096 10.8085 11.6183C10.7542 11.6221 10.7034 11.6462 10.666 11.6858C10.5431 11.7833 10.4127 11.8711 10.276 11.9483C10.1647 12.006 10.0379 12.027 9.91392 12.0081C9.78992 11.9893 9.67511 11.9315 9.58602 11.8433C9.52196 11.7715 9.47344 11.6872 9.44352 11.5958L9.39102 11.4908C9.36458 11.5177 9.33424 11.5404 9.30102 11.5583C9.26352 11.5583 9.24852 11.4683 9.30102 11.4533C9.32277 11.3558 9.35352 11.2605 9.39102 11.1683C9.39956 11.1521 9.40402 11.1341 9.40402 11.1158C9.40402 11.0975 9.39956 11.0794 9.39102 11.0633C9.33102 10.9799 9.25109 10.9128 9.15852 10.8683C9.09102 10.8158 9.03102 10.8683 8.97852 10.8683H8.88852C8.89032 10.8383 8.89032 10.8082 8.88852 10.7783C8.90119 10.6993 8.93616 10.6256 8.9893 10.5658C9.04245 10.506 9.11156 10.4626 9.18852 10.4408H9.27852C9.06351 10.3587 8.86899 10.2307 8.70852 10.0658C8.65602 10.0133 8.64102 9.97576 8.70852 9.92326C8.77602 9.87076 8.90352 9.75076 9.00852 9.67576C9.20986 9.60425 9.42968 9.60425 9.63102 9.67576C9.81627 9.73726 9.98577 9.83926 10.126 9.97576L10.1785 10.0283C10.1362 9.89982 10.0648 9.7829 9.96979 9.68662C9.87481 9.59035 9.75887 9.51733 9.63102 9.47326C9.40259 9.38823 9.16208 9.34013 8.91852 9.33076C8.93058 9.28534 8.95532 9.24429 8.98986 9.21242C9.02439 9.18054 9.06728 9.15916 9.11352 9.15076L9.51852 9.07576C9.66254 9.04371 9.79647 8.97675 9.90852 8.88076C9.83611 8.82111 9.75827 8.76838 9.67602 8.72326C9.46602 8.63326 9.24852 8.52826 9.03852 8.46076C8.84771 8.37658 8.64554 8.32099 8.43852 8.29576C8.14949 8.2554 7.86546 8.18502 7.59102 8.08576C7.25985 7.99536 6.94391 7.85635 6.65352 7.67326C6.35352 7.47826 6.09852 7.22326 5.90352 6.92326C5.85806 6.8456 5.82277 6.76242 5.79852 6.67576V6.58576H5.88852L6.00852 6.65326C6.20352 6.81076 6.38352 7.00576 6.57852 7.14826C6.81773 7.32189 7.08739 7.4491 7.37352 7.52326C7.60602 7.57576 7.83102 7.62826 8.06352 7.66576C8.29602 7.70326 8.45352 7.66576 8.64852 7.71826L9.07602 7.77076C9.23877 7.78201 9.40002 7.81201 9.55602 7.86076C9.80352 7.95076 10.036 8.05576 10.2685 8.14576C10.2819 8.15448 10.2975 8.15912 10.3135 8.15912C10.3295 8.15912 10.3451 8.15448 10.3585 8.14576C10.456 8.12401 10.5513 8.09326 10.6435 8.05576V7.97326C10.4706 7.87677 10.2929 7.78916 10.111 7.71076C9.77002 7.57667 9.4112 7.49329 9.04602 7.46326L8.55102 7.41076C8.27971 7.36587 8.01163 7.30323 7.74852 7.22326C7.47616 7.12416 7.22257 6.97961 6.99852 6.79576C6.80993 6.65018 6.66894 6.45175 6.59352 6.22576V6.06826C6.61371 6.05981 6.63538 6.05545 6.65727 6.05545C6.67916 6.05545 6.70083 6.05981 6.72102 6.06826L6.91602 6.27826C7.02102 6.38326 7.12602 6.48826 7.25352 6.60076C7.55052 6.83326 7.89252 7.00201 8.25852 7.09576C8.46852 7.14826 8.68602 7.18576 8.89602 7.22326C9.23352 7.27576 9.58602 7.32826 9.92352 7.40326C10.3237 7.47503 10.6969 7.65386 11.0035 7.92076C11.131 8.02576 11.236 7.97326 11.356 7.92076C11.4196 7.90874 11.4853 7.91758 11.5434 7.94597C11.6015 7.97435 11.6489 8.02075 11.6785 8.07826C11.7685 8.32051 11.7685 8.58601 11.6785 8.82826C11.6704 8.87309 11.6761 8.91932 11.6949 8.96083C11.7136 9.00235 11.7445 9.03719 11.7835 9.06076H11.8735C11.9782 9.01784 12.0924 9.00356 12.2045 9.01937C12.3165 9.03519 12.4223 9.08054 12.511 9.15076C12.5388 9.17266 12.5731 9.18457 12.6085 9.18457C12.6439 9.18457 12.6782 9.17266 12.706 9.15076C12.8531 9.08202 12.9959 9.00437 13.1335 8.91826C13.276 8.82826 13.201 8.79076 13.2385 8.72326C13.2896 8.61943 13.3723 8.53447 13.4747 8.48057C13.5771 8.42667 13.694 8.40661 13.8085 8.42326C13.9698 8.42326 14.131 8.44051 14.2885 8.47576C14.4162 8.51015 14.5508 8.51015 14.6785 8.47576C14.759 8.46609 14.8344 8.4311 14.8937 8.37583C14.953 8.32056 14.9932 8.24787 15.0085 8.16826V7.68826C15.0085 7.63576 15.0085 7.58326 15.0985 7.58326C15.1885 7.58326 15.166 7.65076 15.166 7.71076C15.22 7.95826 15.22 8.21326 15.166 8.46076C15.1511 8.56771 15.0948 8.66453 15.0093 8.73044C14.9237 8.79634 14.8157 8.82608 14.7085 8.81326H14.071C13.9847 8.8078 13.8993 8.83359 13.8304 8.88592C13.7616 8.93826 13.7139 9.01363 13.696 9.09826C13.6877 9.13277 13.6877 9.16875 13.696 9.20326C13.7485 9.30826 13.786 9.39826 13.9435 9.38326C14.0275 9.39076 14.0935 9.45676 14.101 9.54076C14.1174 9.63059 14.163 9.71245 14.2309 9.77353C14.2988 9.8346 14.385 9.87144 14.476 9.87826L14.641 9.87076ZM10.4635 9.35326C10.5535 9.44551 10.6488 9.53326 10.7485 9.61576C10.7993 9.65409 10.8612 9.67483 10.9248 9.67483C10.9884 9.67483 11.0503 9.65409 11.101 9.61576C11.2001 9.55689 11.2953 9.49176 11.386 9.42076V9.36826C11.3775 9.3343 11.3617 9.3026 11.3397 9.2754C11.3177 9.24819 11.29 9.22613 11.2585 9.21076C11.1946 9.19392 11.1274 9.19392 11.0635 9.21076L10.936 9.26326C10.8083 9.29765 10.6737 9.29765 10.546 9.26326L10.4635 9.35326ZM12.9085 9.60076C12.9391 9.62596 12.975 9.64391 13.0135 9.65326C13.1448 9.67834 13.2637 9.74706 13.351 9.84826C13.438 9.85651 13.5265 9.85651 13.6135 9.84826C13.666 9.84826 13.7035 9.79576 13.756 9.78076C13.7131 9.72889 13.6654 9.68118 13.6135 9.63826C13.39 9.54415 13.1407 9.53089 12.9085 9.60076ZM3.56352 11.9108C3.65732 12.0111 3.77687 12.0837 3.90912 12.1207C4.04138 12.1578 4.18126 12.1578 4.31352 12.1208C4.35765 12.1077 4.39819 12.0847 4.432 12.0535C4.46582 12.0223 4.492 11.9837 4.50852 11.9408C4.22736 12.0057 3.93225 11.9685 3.67602 11.8358C3.55483 11.7666 3.44949 11.6728 3.3668 11.5604C3.28412 11.448 3.22594 11.3195 3.19602 11.1833C3.13986 10.9836 3.14885 10.7712 3.22169 10.5769C3.29452 10.3827 3.42741 10.2168 3.60102 10.1033C3.52356 10.3519 3.54799 10.6211 3.66894 10.8518C3.78988 11.0824 3.99745 11.2556 4.24602 11.3333H4.35102C4.57462 11.3798 4.80735 11.3505 5.01244 11.25C5.21752 11.1494 5.38328 10.9835 5.48352 10.7783C5.40493 10.839 5.32981 10.9041 5.25852 10.9733C4.93077 11.1983 4.49877 11.1983 4.17102 10.9733C4.08213 10.9146 4.00857 10.8355 3.95649 10.7426C3.9044 10.6497 3.87531 10.5456 3.87164 10.4392C3.86797 10.3327 3.88983 10.227 3.93539 10.1307C3.98094 10.0344 4.04888 9.95042 4.13352 9.88576C4.1436 9.94838 4.16773 10.0079 4.2041 10.0599C4.24047 10.1118 4.28814 10.1549 4.34352 10.1858C4.45362 10.2465 4.57257 10.2895 4.69602 10.3133C4.83049 10.3348 4.96813 10.3251 5.09822 10.2847C5.2283 10.2444 5.34732 10.1746 5.44602 10.0808C5.55461 9.96928 5.63888 9.83648 5.69352 9.69076C5.83602 9.35326 5.94102 9.00076 6.09852 8.66326C6.20049 8.45752 6.31315 8.25725 6.43602 8.06326C6.43602 8.01076 6.50352 8.06326 6.54102 8.06326L6.93102 8.27326L7.17852 8.37826L7.07352 8.46826C6.83852 8.71878 6.63685 8.99859 6.47352 9.30076C6.34602 9.53326 6.22602 9.74326 6.12102 9.97576C6.01602 10.2083 5.91102 10.5083 5.82102 10.7708L5.61102 11.3708C5.55852 11.5283 5.48352 11.6708 5.41602 11.8283C5.31548 12.0563 5.14112 12.2439 4.92102 12.3608C4.79172 12.4236 4.65182 12.4618 4.50852 12.4733C4.36658 12.4911 4.22296 12.4911 4.08102 12.4733C3.96614 12.4644 3.85663 12.421 3.76693 12.3487C3.67722 12.2764 3.61153 12.1786 3.57852 12.0683C3.58891 12.0154 3.5837 11.9607 3.56352 11.9108ZM14.116 11.3108C14.125 11.3933 14.125 11.4758 14.116 11.5583C14.116 11.6633 14.0485 11.6633 13.9585 11.6108L13.7485 11.5058H13.6585C13.6889 11.5663 13.7047 11.6331 13.7047 11.7008C13.7047 11.7685 13.6889 11.8352 13.6585 11.8958C13.6462 11.9322 13.6226 11.9637 13.591 11.9858H13.5085L13.456 11.8283C13.4379 11.7867 13.4041 11.7539 13.362 11.7371C13.3199 11.7203 13.2728 11.7207 13.231 11.7383C13.1615 11.7573 13.0956 11.7877 13.036 11.8283H12.931C12.8015 11.5803 12.7177 11.311 12.6835 11.0333L12.7585 11.1233C12.8199 11.1701 12.895 11.1955 12.9723 11.1955C13.0495 11.1955 13.1246 11.1701 13.186 11.1233C13.2041 11.0845 13.2135 11.0423 13.2135 10.9995C13.2135 10.9568 13.2041 10.9145 13.186 10.8758C13.186 10.8233 13.1335 10.7858 13.1185 10.7333C13.2235 10.7333 13.2235 10.6433 13.4935 10.9658L13.6885 10.8608C13.756 10.8608 13.6885 10.7558 13.6885 10.7183V10.5608L13.816 10.6133C13.8525 10.6256 13.884 10.6492 13.906 10.6808C14.018 10.807 14.1438 10.9202 14.281 11.0183C14.3227 11.0528 14.3559 11.0965 14.378 11.1459C14.4002 11.1953 14.4106 11.2492 14.4085 11.3033V11.3708H14.356C14.1685 11.3108 14.1685 11.3108 14.116 11.3108ZM5.25852 10.1183C5.11381 10.033 4.94562 9.99617 4.77852 10.0133C4.70879 10.0219 4.63825 10.0219 4.56852 10.0133C4.52484 10.006 4.48346 9.98868 4.44764 9.96265C4.41183 9.93662 4.38257 9.90261 4.36219 9.8633C4.34181 9.824 4.33087 9.78049 4.33023 9.73622C4.32959 9.69195 4.33928 9.64814 4.35852 9.60826C4.42602 9.60826 4.48602 9.69826 4.55352 9.73576C4.62102 9.77326 4.64352 9.73576 4.64352 9.68326C4.64113 9.63949 4.65203 9.59601 4.67478 9.55854C4.69753 9.52106 4.73108 9.49134 4.77102 9.47326C4.82816 9.4532 4.88964 9.44888 4.94902 9.46076C5.0084 9.47263 5.06349 9.50027 5.10852 9.54076C5.26002 9.69076 5.31852 9.91276 5.25852 10.1183Z" fill="#EAB304"/>
</svg>
