<svg width="24" height="24" viewBox="0 0 24 24" fill="none"><path fill="#4700c2" fill-rule="evenodd" d="M10.265 10.392c-.233.151-.499.312-.775.48v1.516q.376-.191.775-.382zM6.39 13.195a.585.585 0 0 0 .78.255l.724-.366c.005-.609.008-1.071.008-1.255v-.049c-.615.306-1.082.54-1.261.63a.58.58 0 0 0-.251.785m4.094-.154a.577.577 0 0 0 .577.58h.007a.58.58 0 0 0 .579-.58V8.239a.58.58 0 0 0-.655-.576.576.576 0 0 0-.506.573v2.399q-.003 1.206-.002 2.406" clip-rule="evenodd"/><path fill="#4700c2" fill-rule="evenodd" d="M18.742 9.322c-.037-.28-.223-.437-.506-.51a3 3 0 0 0-.694-.072c-.552-.002-1.1.087-1.643.193a22 22 0 0 0-2.322.585q-.344.106-.688.218l-.002-.01.041-.034c.444-.38.885-.759 1.332-1.134a23.6 23.6 0 0 0 2.684-2.695c.223-.26.416-.538.515-.855.15-.477-.018-.773-.501-.906a2.5 2.5 0 0 0-.626-.07c-.46-.002-.915.074-1.364.166a21 21 0 0 0-1.607.41c-.736.224-1.645.611-2.456.94-.414.16-.855.368-1.268.53l-1.56.634c-2.07.89-2.671.25-2.671.25l.002.008-.01-.02c-.402.794-.067 2.236 2.261 1.206.366-.142.738-.297 1.102-.437.701-.274 1.396-.612 2.1-.883q.727-.3 1.465-.568l.444-.173c.455-.15.91-.298 1.375-.414.506-.13.947-.21 1.215-.175q.04.003.08.01c.121.016.186.08.175.165-.005.131-.216.566-2.142 2.17l-.42.36c-.217.187-.426.37-.638.555l-.177.156-.002.002-.083.074-.02.018-.021.018-.161.123-.035.03v2.034c.681-.232 3.995-1.338 4.352-1.014.027.038.448.3-3.405 2.935-.151.115-.298.23-.45.345l-.557.425c-.697.504-1.389 1.01-2.085 1.514l-.302.218c-.005.55-.007 1.076-.009 1.56l7.35-5.424q.673-.567 1.272-1.212c.225-.24.427-.496.561-.788.069-.152.12-.3.099-.458M6.767 17.663a.62.62 0 0 0 .039.821.616.616 0 0 0 .764.106l.294-.216c.002-.442.008-.98.011-1.56l-.993.737a.7.7 0 0 0-.115.112" clip-rule="evenodd"/><path fill="#4700c2" fill-rule="evenodd" d="M9.276 9.218a.58.58 0 0 0-.637-.425.576.576 0 0 0-.506.573v2.398c0 .486-.02 2.894-.039 4.892-.004.573-.01 1.11-.012 1.56-.004.57-.007.997-.007 1.172a.58.58 0 0 0 .578.58h.007a.58.58 0 0 0 .58-.58c0-.402.004-1.136.008-2.035.003-.48.008-1.01.01-1.56.016-2.5.039-5.445.037-6.427q0-.075-.019-.148" clip-rule="evenodd"/></svg>