<svg width="24" height="24" viewBox="0 0 24 24" fill="none"><path fill="#0af" d="M11.972 3.705a8.267 8.267 0 1 0 0 16.534 8.267 8.267 0 0 0 0-16.534m.026 1.31a4.108 4.108 0 0 1 3.857 5.523 2.68 2.68 0 0 0-2.045.474 2.6 2.6 0 0 0 .806-1.888 2.623 2.623 0 0 0-2.62-2.622 2.62 2.62 0 0 0-2.605 2.355A4.5 4.5 0 0 0 7.9 8.842a4.11 4.11 0 0 1 4.098-3.828m1.511 7.719-1.453-.87a.3.3 0 0 0-.314.002l-1.275.787a.3.3 0 0 0-.141.297 1.75 1.75 0 0 1-1.672 1.988 1.743 1.743 0 0 1-1.797-1.745 1.75 1.75 0 0 1 1.715-1.741 1.74 1.74 0 0 1 1.33.583.3.3 0 0 0 .369.06l1.228-.689a.3.3 0 0 0 .154-.263v-.075a.3.3 0 0 0-.207-.286 1.745 1.745 0 0 1 .633-3.398 1.75 1.75 0 0 1 1.654 1.614 1.74 1.74 0 0 1-1.298 1.815.304.304 0 0 0-.231.292v.013c0 .105.055.202.144.257l1.29.794a.3.3 0 0 0 .392-.066 1.74 1.74 0 0 1 1.403-.653 1.745 1.745 0 0 1-.134 3.488 1.75 1.75 0 0 1-1.646-1.916.3.3 0 0 0-.144-.289m-4.91 4.524a4.065 4.065 0 0 1-3.68-5.802 4.065 4.065 0 0 1 4.458-2.257c.019.687.308 1.34.805 1.816a2.67 2.67 0 0 0-1.581-.515 2.692 2.692 0 0 0 0 5.384 2.69 2.69 0 0 0 2.497-1.695c.129.56.366 1.076.685 1.533A4.06 4.06 0 0 1 8.6 17.259m6.792 0a4.07 4.07 0 0 1-4.059-3.79c.458.07.924.067 1.381-.008a2.692 2.692 0 1 0 3.422-2.856c.156-.435.241-.893.253-1.356a4.068 4.068 0 0 1-.997 8.01"/><path fill="#0af" d="M12 2.25c-5.384 0-9.75 4.366-9.75 9.75s4.366 9.75 9.75 9.75 9.75-4.366 9.75-9.75S17.384 2.25 12 2.25m-.028 18.767a9.043 9.043 0 0 1-9.044-9.044 9.04 9.04 0 0 1 9.044-9.043 9.043 9.043 0 0 1 9.042 9.043 9.043 9.043 0 0 1-9.042 9.044"/></svg>