<svg width="24" height="24" viewBox="0 0 24 24" fill="none"><path fill="#fb2ea3" d="M15.532 10.534c-.17 1.151-.809 1.708-1.655 1.903 1.162.606 1.755 1.535 1.19 3.144-.7 2-2.361 2.168-4.571 1.75l-.538 2.15-1.296-.323.53-2.121q-.518-.129-1.034-.268L7.627 18.9l-1.296-.322.537-2.155c-.303-.077-.61-.16-.924-.239l-1.687-.42.643-1.485s.956.255.942.236c.368.09.53-.149.595-.308l.848-3.399.137.034a1 1 0 0 0-.135-.043l.604-2.426c.016-.276-.078-.623-.603-.755.02-.013-.942-.234-.942-.234L6.69 6l1.788.446-.002.008q.404.099.828.194l.532-2.13 1.296.323-.52 2.088c.347.08.697.16 1.037.245l.518-2.074 1.296.322-.531 2.13c1.637.564 2.834 1.41 2.599 2.982m-2.963 4.153c.42-1.678-2.398-2.112-3.277-2.332l-.712 2.854c.879.218 3.59 1.088 3.99-.522m.401-4.176c.381-1.528-1.975-1.868-2.707-2.051l-.645 2.588c.731.183 2.987.927 3.352-.537m3.773 5.721a.48.48 0 0 0-.357.096.56.56 0 0 0-.187.323.7.7 0 0 0-.016.214q.01.124.077.23a.7.7 0 0 0 .214.211q.147.098.406.158.14.033.287.032.148 0 .274-.047a.54.54 0 0 0 .353-.406.52.52 0 0 0-.053-.394.65.65 0 0 0-.34-.265l.115-.5q.427.174.6.491.174.32.072.759a1.2 1.2 0 0 1-.198.45 1.03 1.03 0 0 1-.745.415 1.63 1.63 0 0 1-.943-.215 1.1 1.1 0 0 1-.34-.3 1 1 0 0 1-.178-.409 1.4 1.4 0 0 1 .156-.874 1 1 0 0 1 .224-.28.8.8 0 0 1 .306-.167.9.9 0 0 1 .389-.022zm2.019-1.584a1.3 1.3 0 0 1-.202.464 1.1 1.1 0 0 1-.33.302 1.1 1.1 0 0 1-.429.136 1.5 1.5 0 0 1-.5-.034 1.5 1.5 0 0 1-.46-.187 1.06 1.06 0 0 1-.49-.727 1.3 1.3 0 0 1 .021-.506c.036-.166.104-.324.202-.464q.14-.191.331-.302c.132-.075.278-.122.429-.137q.236-.026.495.034c.164.036.322.1.465.188q.202.128.325.31.124.184.166.417c.026.168.018.34-.023.506m-1.968-2.099.109-.469.438.101.002-.008a.5.5 0 0 1-.16-.128.86.86 0 0 1-.195-.416.6.6 0 0 1 .008-.234 1 1 0 0 1 .057-.185l.482.11-.04.105a1 1 0 0 0-.031.105.56.56 0 0 0 .099.48.8.8 0 0 0 .213.188q.133.082.322.126l1.079.249-.116.5zm1.71-1.642a1 1 0 0 0 .262.022.6.6 0 0 0 .24-.063.55.55 0 0 0 .192-.155.64.64 0 0 0 .117-.258.6.6 0 0 0-.013-.375.57.57 0 0 0-.236-.265l.108-.473a.97.97 0 0 1 .567.839q.01.18-.031.364-.062.268-.197.454a1 1 0 0 1-.753.42 1.57 1.57 0 0 1-.94-.222 1.2 1.2 0 0 1-.33-.307 1.08 1.08 0 0 1-.172-.883c.034-.168.111-.324.221-.455.104-.12.233-.218.378-.285a1.33 1.33 0 0 1 .971-.025zm-.137 3.65a.59.59 0 0 0-.14-.55.8.8 0 0 0-.23-.175 1.2 1.2 0 0 0-.581-.136.8.8 0 0 0-.283.058.59.59 0 0 0-.365.433.59.59 0 0 0 .138.549q.093.105.23.175c.178.094.378.14.58.136a.8.8 0 0 0 .284-.058.59.59 0 0 0 .367-.432m.077-4.893a.8.8 0 0 0-.24-.002.58.58 0 0 0-.39.215.62.62 0 0 0-.112.468.6.6 0 0 0 .085.214c.093.134.23.231.388.273z"/></svg>