<svg xmlns="http://www.w3.org/2000/svg" xml:space="preserve" width="10%" height="10%" style="shape-rendering:geometricPrecision;text-rendering:geometricPrecision;image-rendering:optimizeQuality;fill-rule:evenodd;clip-rule:evenodd" viewBox="0 0 240000 240000"><defs><style>.fil2{fill:#fff}</style></defs><g id="Layer_x0020_1"><circle cx="119999.4" cy="120000.6" r="117877.5" style="fill:none;stroke:#039;stroke-width:3527.78;stroke-miterlimit:22.9256"/><circle cx="119999.4" cy="120000.6" r="114708.75" style="fill:#039;stroke:#fff;stroke-width:3527.78;stroke-miterlimit:22.9256"/><g id="_105553213762432"><path d="M203137.84 167000.6v-47761.4l-12800 7390.08v32981.23l12800 7390.09zm0-56993.16V73000.6l-12800 7390.09v37006.84l12800-7390.08zM119999.4 184000.6l55425.63-32000-4000-2309.4-51425.63 29690.6v4618.8zm-55425.63-32000 55425.62 32000v-4618.8l-51425.63-29690.6-4000 2309.4zm55425.63-96000 55425.63 32000-4000 2309.4-51425.62-29690.6v-4618.8zm0 0-55425.63 32000 4000 2309.4 51425.62-29690.6v-4618.8zm92400.44 57434.45c-3442.89-1988.14-4622.73-6390.56-2634.89-9833.97 1988.12-3442.89 6390.58-4622.72 9833.96-2634.89 3442.91 1988.12 4622.74 6390.57 2634.9 9833.98-1988.13 3442.89-6390.59 4622.71-9833.97 2634.88zm-46174.81 6565.54c0-3976.6 3223.39-7199.99 7200-7199.99 3976.62 0 7200 3223.39 7200 7199.99 0 3976.63-3223.38 7200.01-7200 7200.01s-7200-3223.38-7200-7200.01zm-92451.25.02c0 3976.6-3223.39 7199.99-7200 7199.99-3976.62 0-7200-3223.39-7200-7199.99 0-3976.63 3223.38-7200.01 7200-7200.01s7200 3223.38 7200 7200.01zm-46174.81 6565.54c3442.89 1988.14 4622.73 6390.56 2634.89 9833.97-1988.12 3442.89-6390.58 4622.72-9833.96 2634.89-3442.91-1988.12-4622.74-6390.57-2634.9-9833.98 1988.13-3442.89 6390.59-4622.71 9833.97-2634.88zm147826.06 25434.45v-23683.76l-4000 2309.4v19064.96l4000 2309.4zm35578.8-39614.22-1992.32-3455.9c320.83 1295.29 999.26 2500.67 1992.32 3455.9zm.45.77-1994.85-3460.28-33584.4 19389.96v4616.33l35579.24-20546.01zm3295.65-2242.45c-1626.47-938.84-2183.16-3018.13-1244.58-4643.84 938.59-1625.7 3018.01-2183.1 4643.7-1244.45 1625.99 939.14 2183.16 3018.14 1244.57 4643.84-939.05 1625.98-3018 2183.1-4643.7 1244.45zm-42874.9 2937.28h4000c-634.97-183.21-1306.01-281.38-2000-281.38-693.98 0-1365.03 98.17-2000 281.39zm4000 0V88000.6l-4000 2309.4v22771.98h4000zm-3791.37 3801.33c1721.29-993.75 3922.54-404.04 4916.88 1317.81 993.79 1721.25 404.07 3922.44-1317.82 4916.75-1721.29 993.75-3922.53 404.04-4916.31-1317.78-994.36-1721.25-404.63-3922.44 1317.24-4916.78zM64573.78 88000.59v23683.76l4000-2309.4V90309.99l-4000-2309.4zm-35578.8 39614.22 1992.32 3455.9c-320.83-1295.29-999.26-2500.67-1992.32-3455.9zm-.44-.77 1994.85 3460.28 33584.4-19389.96v-4616.33l-35579.24 20546.01zm-3295.66 2242.45c1626.47 938.84 2183.16 3018.13 1244.58 4643.83-938.59 1625.7-3018.01 2183.11-4643.71 1244.45-1625.99-939.14-2183.16-3018.14-1244.57-4643.84 939.05-1625.98 3018-2183.1 4643.7-1244.45zm42874.9-2937.28h-4000c634.97 183.21 1306.01 281.38 2000 281.38 693.98 0 1365.03-98.17 2000.01-281.39zm-4000 0v25081.38l4000-2309.4v-22771.98h-4000zm3791.37-3801.33c-1721.29 993.74-3922.54 404.04-4916.88-1317.81-993.79-1721.25-404.07-3922.44 1317.82-4916.76 1721.29-993.75 3922.53-404.04 4916.31 1317.78 994.36 1721.25 404.63 3922.44-1317.25 4916.78zM119999.4 216000.6l83138.44-48000-12800-7390.08-70338.44 40609.92v14780.17zm0 0-83138.44-48000 12800-7390.08 70338.44 40609.92v14780.17zm-83138.44-48000v-38006.84l12800-7390.08v38006.84l-12800 7390.08zm0-47238.59V72000.6l12800 7390.08v33981.24l-12800 7390.08zm0-48761.41 83138.44-48000v14780.17L49660.96 79390.69l-12800-7390.08zm166276.88 0-83138.44-48000v14780.17l70338.44 40609.92 12800-7390.08zM135158.7 99073.93l-.02-13473.33c-6394.15 20.05-9906.96 565.37-13113.71 3888.02 1415.31 977.22 2937.14 3141.28 3691.39 4640.28 1383.05 2579.2 1852.47 5977.23 1852.47 5977.23 1936.06-451.34 2798.34-619.2 3893-800.49 1281.83-206.36 2376.08-272.1 3676.88-231.71zm0 14190 .02 13473.33c6394.15-20.04 11194.61-1744.66 14401.36-5067.32 3226.21-3342.82 4839.32-8668.02 4839.32-15975.59l-12597.98 2.52c103.36 1024.14-306.88 4039.97-1395.24 5361.55-1088.36 1321.58-2837.54 2127.77-5247.48 2205.51zm-8422.64 13473.33v-13473.33h-13473.33v13473.33h13473.33zm-21895.97 0-.02-13473.33H135158.69l.02 13473.33h-30318.62zm21895.97 8422.64-13473.33.02c20.04 6394.15 1744.66 11194.61 5067.32 14401.36 3342.82 3226.21 8668.02 4839.32 15975.59 4839.32s13176.95-738.53 17608.14-2215.59v-12593.9c-4508.93 1632.54-9134.46 2448.81-13876.61 2448.81-4742.15 0-7774.01-544.18-9095.59-1632.54-1321.58-1088.36-2127.77-2837.54-2205.51-5247.48zm-13473.33-30318.6 13473.33-.02v30318.62l-13473.33.02V104841.3zm0 0 13473.33-.02c-20.04-6394.16-1744.66-11194.61-5067.31-14401.36-3342.83-3226.21-8668.02-4839.32-15975.59-4839.32s-13176.95 738.53-17608.14 2215.59v12593.9c4508.93-1632.54 9134.46-2448.81 13876.61-2448.81 4742.15 0 7774.01 544.18 9095.59 1632.54 1321.58 1088.36 2127.77 2837.53 2205.51 5247.48zm21895.97-5767.36.02-13473.33c6394.15 20.05 11194.61 1744.66 14401.36 5067.32 3226.21 3342.82 4839.32 7718.87 4839.32 15026.44h-9.29l-12588.69 2.52c2109.24.42 0 0 0 0 2.42-1118.37-260.41-3064.66-1395.24-4417.44-1088.36-1321.58-2837.54-2127.77-5247.48-2205.51zm-30318.6 41853.33.02 13473.33c6394.15-20.05 9906.96-565.36 13113.71-3888.02-1415.31-977.22-2937.14-3141.28-3691.39-4640.28-1383.05-2579.2-1852.47-5977.23-1852.47-5977.23-1936.06 451.34-2798.34 619.2-3893 800.49-1281.83 206.36-2376.09 272.1-3676.88 231.71zm0-14190-.02-13473.33c-6394.15 20.04-11194.61 1744.66-14401.36 5067.31-3226.22 3342.83-4839.32 8668.02-4839.32 15975.59l12597.98-2.52c-103.36-1024.14 306.88-4039.97 1395.24-5361.55 1088.36-1321.58 2837.54-2127.77 5247.48-2205.51zm0 14190-.02 13473.33c-6394.15-20.05-11194.61-1744.66-14401.36-5067.32-3226.22-3342.82-4839.32-7718.87-4839.32-15026.44h9.29l12588.69-2.52c-2109.24-.42 0 0 0 0-2.42 1118.36 260.41 3064.66 1395.24 4417.44 1088.36 1321.58 2837.54 2127.77 5247.48 2205.51z" class="fil2"/></g></g></svg>