<svg fill="none" height="24" viewBox="0 0 24 24" width="24" xmlns="http://www.w3.org/2000/svg"><path d="m22.2141 16.4776h-4.1504c1.0532-1.3577 1.6876-3.0543 1.6876-4.9025 0-1.84796-.6365-3.5486-1.6917-4.90628h4.1525c.7028 1.48926 1.0995 3.15192 1.0995 4.90628 0 1.7545-.3947 3.4133-1.0975 4.9025zm-10.5603 0c-2.72871 0-4.93982-2.195-4.93982-4.9044 0-2.70935 2.21111-4.90438 4.93982-4.90438 2.7286 0 4.9398 2.19701 4.9398 4.90438 0 2.7074-2.2112 4.9044-4.9398 4.9044zm-8.10147-4.9025c0 4.4419 3.62482 8.0445 8.09947 8.0445 1.2002 0 2.336-.2671 3.361-.7317v3.7721c-1.0633.317-2.191.4904-3.359.4904-6.43608 0-11.6538-5.1816-11.6538-11.5753 0-6.39356 5.21773-11.5751 11.6558-11.5751 1.168 0 2.2937.173449 3.359.490445v3.772015c-1.025-.46452-2.1608-.73168-3.361-.73168-4.47263 0-8.09946 3.60057-8.09946 8.04432z" fill="#000"/></svg>