<svg xmlns="http://www.w3.org/2000/svg" width="24" height="24" viewBox="0 0 24 24" fill="none"><path fill="#42d689" d="M10.105 19.105a5.21 5.21 0 1 0 0-10.42 5.21 5.21 0 1 0 0 10.42m0 1.895a7.105 7.105 0 1 1 0-14.21 7.105 7.105 0 0 1 0 14.21"/><path fill="#42d689" d="M13.895 15.316a5.21 5.21 0 1 0 0-10.421 5.21 5.21 0 1 0 0 10.42m0 1.894a7.105 7.105 0 1 1 0-14.21 7.105 7.105 0 0 1 0 14.21"/><path fill="#42d689" d="M14.13 17.21a5.2 5.2 0 0 0 1.032-2.048c.75-.187 1.45-.54 2.048-1.032a7 7 0 0 1-.553 2.53 7.1 7.1 0 0 1-2.527.55M8.838 8.839a5.2 5.2 0 0 0-2.049 1.032c.027-.87.215-1.726.554-2.527A7.1 7.1 0 0 1 9.87 6.79a5.2 5.2 0 0 0-1.032 2.049"/></svg>