<svg width="40" height="40" viewBox="0 0 40 40" fill="none" xmlns="http://www.w3.org/2000/svg">
    <path
        d="M21.2424 35.0078C21.2424 35.2104 21.2416 35.4138 21.2416 35.6164L21.2433 35.6147C20.8312 35.6147 20.4199 35.6147 20.0078 35.6147L20.0104 35.6173C19.9974 35.419 19.9844 35.2208 19.9706 35.0173C19.7481 35.0069 19.5654 34.9983 19.3827 34.9905L19.3853 34.9931C19.3853 33.3402 19.3853 31.6874 19.3853 29.9905C18.4961 29.9905 17.6892 29.9905 16.8831 29.9905L16.8857 29.9931C16.8736 29.7965 16.8624 29.5991 16.8476 29.3654C16.4139 29.3654 16.0234 29.3654 15.6329 29.3654L15.6355 29.3679C15.6225 29.1697 15.6095 28.9714 15.5957 28.7679C15.3732 28.7576 15.1905 28.7489 15.0078 28.7411L15.0104 28.7437C14.9983 28.5472 14.987 28.3498 14.9723 28.116C14.5385 28.116 14.1481 28.116 13.7576 28.116L13.7602 28.1186C13.7472 27.9203 13.7342 27.7221 13.7204 27.5186C13.4979 27.5082 13.3152 27.4996 13.1325 27.4918L13.1351 27.4944C13.1221 27.2961 13.1091 27.0978 13.0953 26.8944C12.8727 26.884 12.6901 26.8753 12.5074 26.8675L12.51 26.8701C12.4979 26.6727 12.4866 26.4753 12.4727 26.2424C11.6217 26.2424 10.8147 26.2424 10.0078 26.2424L10.0104 26.2459C10.0104 26.0424 10.0104 25.8381 10.0104 25.6346L10.0078 25.6381C10.2061 25.6251 10.4043 25.6121 10.6078 25.5983C10.6182 25.3757 10.6269 25.1931 10.6347 25.0104L10.6321 25.013C10.8295 25.0008 11.0269 24.9896 11.2191 24.9775C11.2191 24.335 11.2191 23.7394 11.2191 23.1177C11.0043 23.1177 10.8182 23.1177 10.6321 23.1177L10.6347 23.1203C10.6347 21.2502 10.6347 19.3801 10.6347 17.5099L10.6321 17.5125C10.8286 17.5004 11.026 17.4892 11.2598 17.4744C11.2598 17.0407 11.2598 16.6502 11.2598 16.2597L11.2572 16.2623C11.4537 16.2502 11.6511 16.2389 11.8849 16.2242C11.8849 15.7905 11.8849 15.4 11.8849 15.0095L11.8823 15.0121C12.0788 15 12.2762 14.9887 12.51 14.974C12.51 14.5402 12.51 14.1498 12.51 13.7593L12.5074 13.7619C12.7056 13.7489 12.9039 13.7359 13.1074 13.7221C13.1178 13.4996 13.1264 13.3169 13.1342 13.1342L13.1316 13.1368C13.3299 13.1238 13.5282 13.1108 13.7316 13.097C13.742 12.8744 13.7507 12.6918 13.7585 12.5091L13.7559 12.5117C13.9541 12.4987 14.1524 12.4857 14.3559 12.4718C14.3663 12.2493 14.3749 12.0666 14.3827 11.884L14.3801 11.8866C14.5784 11.8736 14.7766 11.8606 14.9801 11.8467C14.9905 11.6242 14.9992 11.4415 15.0069 11.2589L15.0044 11.2615C15.2026 11.2485 15.4009 11.2355 15.6043 11.2216C15.6147 10.9991 15.6234 10.8164 15.6312 10.6337L15.6286 10.6363C16.0373 10.6363 16.4459 10.6363 16.8805 10.6363C16.8805 10.3792 16.8805 10.1939 16.8805 10.0086L16.8779 10.0112C17.2857 10.0112 17.6935 10.0112 18.0909 10.0112C18.1178 9.7489 18.136 9.57055 18.1533 9.40171C18.3697 9.37747 18.5463 9.35843 18.7152 9.34024C18.7394 9.12466 18.7593 8.94804 18.7784 8.77747C18.9922 8.75496 19.168 8.73678 19.3801 8.71427C19.3801 7.66319 19.3801 6.64847 19.3801 5.63462L19.3775 5.63721C19.5758 5.62423 19.774 5.61124 19.9775 5.59739C19.9879 5.37488 19.9966 5.19219 20.0044 5.00951L20.0018 5.0121C20.2 4.99912 20.3983 4.98613 20.6018 4.97228C20.6121 4.74977 20.6208 4.56708 20.6286 4.3844L20.6277 4.38613C21.2476 4.38613 21.8667 4.38527 22.4866 4.38527C22.4866 4.58786 22.4866 4.79133 22.4866 4.99392C22.3039 4.99392 22.1212 4.99392 21.9005 4.99392C21.8857 5.22336 21.8736 5.42076 21.8615 5.61903C21.6788 5.61903 21.4961 5.61903 21.2753 5.61903C21.2606 5.84847 21.2485 6.04587 21.2364 6.24414C21.0537 6.24414 20.871 6.24414 20.6502 6.24414C20.6355 6.47358 20.6234 6.67098 20.6113 6.86925C20.4251 6.86925 20.239 6.86925 20.0243 6.86925C20.0243 8.73765 20.0243 10.5801 20.0243 12.4727C20.1931 12.4822 20.3663 12.4926 20.5775 12.5047C20.6 12.303 20.6208 12.1264 20.645 11.9099C20.813 11.8909 20.9896 11.871 21.2147 11.8459C21.2269 11.6563 21.239 11.458 21.2511 11.2606C21.4338 11.2606 21.6156 11.2606 21.8373 11.2606C21.852 11.0312 21.8641 10.8337 21.8762 10.6355C22.0589 10.6355 22.2407 10.6355 22.4624 10.6355C22.4771 10.406 22.4892 10.2086 22.5013 10.0104C22.684 10.0104 22.8667 10.0104 23.0875 10.0104C23.1022 9.78094 23.1143 9.58353 23.1264 9.38527C23.5377 9.38527 23.9489 9.38527 24.3602 9.38527C24.3602 9.57055 24.3602 9.75496 24.3602 10.0104C24.794 10.0104 25.2018 10.0104 25.6104 10.0104C25.6104 10.1931 25.6104 10.3757 25.6104 10.5965C25.8398 10.6112 26.0373 10.6234 26.2355 10.6355C26.2355 10.819 26.2355 11.0026 26.2355 11.2441C27.0901 11.2441 27.9212 11.2441 28.7524 11.2441C28.7472 11.4528 28.7411 11.6615 28.736 11.8701C28.5533 11.8701 28.3715 11.8701 28.1498 11.8701C28.1351 12.0996 28.123 12.297 28.1108 12.4952C27.9282 12.4952 27.7463 12.4952 27.5247 12.4952C27.51 12.7247 27.4979 12.9221 27.4857 13.1203C27.3031 13.1203 27.1212 13.1203 26.8996 13.1203C26.8849 13.3498 26.8727 13.5472 26.8606 13.7454C26.6779 13.7454 26.4961 13.7454 26.2745 13.7454C26.2598 13.9749 26.2476 14.1723 26.2355 14.3705C26.0528 14.3705 25.871 14.3705 25.6494 14.3705C25.6347 14.6 25.6225 14.7974 25.6104 14.9957C25.4277 14.9957 25.2459 14.9957 25.0243 14.9957C25.0095 15.2251 24.9974 15.4225 24.9853 15.6208C24.8 15.6208 24.6156 15.6208 24.3602 15.6208C24.3602 16.0545 24.3602 16.4623 24.3602 16.871C24.174 16.871 23.9879 16.871 23.7732 16.871C23.7732 17.6987 23.7732 18.5021 23.7732 19.3567C23.9654 19.3662 24.1628 19.3766 24.3602 19.387C24.3602 19.5697 24.3602 19.7515 24.3602 19.9731C24.5896 19.9879 24.787 20 24.9853 20.0121C24.9853 20.1948 24.9853 20.3766 24.9853 20.5983C25.2147 20.613 25.4121 20.6251 25.6104 20.6372C25.6104 20.8398 25.6095 21.0433 25.6095 21.2459L25.6113 21.2441C24.9914 21.2441 24.3714 21.2441 23.7515 21.2441L23.7541 21.2467C23.7411 21.0485 23.7282 20.8502 23.7143 20.6467C23.4918 20.6363 23.3091 20.6277 23.1264 20.6199L23.129 20.6225C23.116 20.4242 23.1031 20.226 23.0892 20.0225C22.8667 20.0121 22.684 20.0034 22.5013 19.9957L22.5039 19.9983C22.5039 19.5896 22.5039 19.1809 22.5039 18.7463C22.2468 18.7463 22.0615 18.7463 21.8762 18.7463L21.8788 18.7489C21.8788 17.9212 21.8779 17.0926 21.8779 16.2649C22.0753 16.2519 22.2736 16.2398 22.5031 16.2251C22.5031 16.0052 22.5031 15.8225 22.5031 15.6398C22.7005 15.6268 22.8987 15.6147 23.1282 15.6C23.1282 15.3792 23.1282 15.1974 23.1282 15.0147C23.3256 15.0017 23.5238 14.9896 23.7533 14.9749C23.7533 14.755 23.7533 14.5723 23.7533 14.3896C23.9507 14.3766 24.1489 14.3645 24.3784 14.3498C24.3784 14.129 24.3784 13.9472 24.3784 13.7645C24.5758 13.7541 24.7723 13.7428 24.9637 13.7325C24.9637 13.2961 24.9637 12.9091 24.9637 12.497C24.7489 12.497 24.5637 12.497 24.3784 12.497C24.368 12.2996 24.3567 12.103 24.3463 11.9108C23.7013 11.9108 23.1065 11.9108 22.4875 11.9108C22.4875 12.1247 22.4875 12.3108 22.4875 12.497L22.4857 12.4987C22.2883 12.5108 22.0901 12.5229 21.8624 12.5368C21.8624 12.7576 21.8624 12.9402 21.8624 13.1221L21.8606 13.1238C21.6632 13.1359 21.465 13.148 21.2373 13.1619C21.2373 13.3827 21.2373 13.5654 21.2373 13.7472L21.2355 13.7489C21.0381 13.761 20.8398 13.7731 20.6121 13.787C20.6121 14.0078 20.6121 14.1905 20.6121 14.3723L20.6095 14.374C20.4234 14.374 20.2364 14.374 20.0234 14.374C20.0234 17.2857 20.0234 20.1705 20.0234 23.1091C20.2156 23.1186 20.413 23.129 20.6113 23.1385C20.6113 23.3212 20.6113 23.503 20.6113 23.7247C20.8407 23.7394 21.0381 23.7515 21.2364 23.7636C21.2364 23.9662 21.2364 24.1697 21.2364 24.3723C21.0537 24.3723 20.8719 24.3723 20.6502 24.3723C20.6355 24.6017 20.6234 24.7991 20.6113 24.9974C20.4251 24.9974 20.239 24.9974 20.0243 24.9974C20.0243 25.8251 20.0243 26.6277 20.0243 27.4675C21.2416 27.4675 22.4554 27.4675 23.723 27.4675C23.7325 27.284 23.742 27.0866 23.7524 26.8892C24.1429 26.8892 24.5325 26.8892 24.9697 26.8892C24.9818 26.6571 24.9922 26.4606 25.0018 26.2641C25.1844 26.2641 25.3663 26.2641 25.5879 26.2641C25.6026 26.0346 25.6147 25.8372 25.6269 25.6389C25.8095 25.6389 25.9914 25.6389 26.213 25.6389C26.2277 25.4095 26.2398 25.2121 26.252 25.0138C26.4347 25.0138 26.6165 25.0138 26.8381 25.0138C26.8528 24.7844 26.865 24.587 26.8771 24.3887C27.0598 24.3887 27.2416 24.3887 27.4632 24.3887C27.4779 24.1593 27.4901 23.9619 27.5022 23.7636C27.7048 23.7636 27.9082 23.7636 28.1108 23.7636C28.1108 24.5913 28.1108 25.4199 28.1108 26.2476C27.9282 26.2476 27.7463 26.2476 27.5247 26.2476C27.51 26.477 27.4979 26.6744 27.4857 26.8727C27.3031 26.8727 27.1212 26.8727 26.8996 26.8727C26.8849 27.1021 26.8727 27.2996 26.8606 27.4978C26.6779 27.4978 26.4961 27.4978 26.2745 27.4978C26.2598 27.7273 26.2476 27.9247 26.2355 28.1229C26.0528 28.1229 25.871 28.1229 25.6494 28.1229C25.6347 28.3524 25.6225 28.5498 25.6104 28.748C25.2199 28.748 24.8303 28.748 24.3931 28.748C24.381 28.9801 24.3706 29.1766 24.3611 29.3731C23.9706 29.3731 23.581 29.3731 23.1437 29.3731C23.1316 29.6052 23.1212 29.8017 23.1117 29.9983C22.0979 29.9983 21.0831 29.9983 20.0329 29.9983C20.0329 31.2537 20.0329 32.4675 20.0329 33.735C20.2165 33.7446 20.4139 33.7541 20.6113 33.7645C20.6113 34.155 20.6113 34.5446 20.6113 34.9818C20.8485 34.9879 21.045 34.9974 21.2424 35.0078ZM16.2424 25.6329C16.2546 25.8312 16.2676 26.0286 16.2814 26.258C16.5022 26.258 16.6849 26.258 16.8667 26.258C16.8788 26.4563 16.8918 26.6537 16.9056 26.8831C17.1264 26.8831 17.3091 26.8831 17.4918 26.8831C17.5013 27.0805 17.5117 27.2779 17.5212 27.4606C18.1637 27.4606 18.7541 27.4606 19.3446 27.4606C19.3446 26.6208 19.3446 25.819 19.3446 24.9913C19.1308 24.9913 18.9446 24.9913 18.7585 24.9913C18.7455 24.7939 18.7334 24.5957 18.7186 24.3662C18.4979 24.3662 18.316 24.3662 18.1334 24.3662C18.1334 24.1636 18.1334 23.961 18.1334 23.7584C18.3308 23.7454 18.529 23.7333 18.7585 23.7186C18.7585 23.4978 18.7585 23.316 18.7585 23.1333C18.9559 23.1221 19.1533 23.1117 19.3429 23.1013C19.3429 18.9186 19.3429 14.787 19.3429 10.6268C19.1351 10.6363 18.9585 10.6441 18.7784 10.6528C18.7585 10.8701 18.742 11.0485 18.7247 11.2268C18.5082 11.2476 18.329 11.2641 18.116 11.284C18.116 11.4978 18.116 11.6822 18.116 11.8667C17.9186 11.8779 17.7212 11.8883 17.4918 11.9013C17.4918 15.2563 17.4918 18.5619 17.4918 21.8675C17.2935 21.8796 17.0961 21.8926 16.8667 21.9065C16.8667 22.1273 16.8667 22.3099 16.8667 22.4926C16.458 22.4926 16.0502 22.4926 15.6165 22.4926C15.6165 22.748 15.6165 22.9325 15.6165 23.1177C15.4191 23.1281 15.2217 23.1376 15.0295 23.1472C15.0295 23.7939 15.0295 24.3887 15.0295 25.0086C15.2442 25.0086 15.4303 25.0086 15.6165 25.0086C15.6286 25.2069 15.6416 25.4043 15.6554 25.6337C15.8771 25.6329 16.0598 25.6329 16.2424 25.6329ZM14.3836 22.5091C14.581 22.4961 14.7792 22.484 15.0087 22.4692C15.0087 22.2485 15.0087 22.0666 15.0087 21.884C15.2061 21.871 15.4044 21.8589 15.6338 21.8441C15.6338 21.6234 15.6338 21.4415 15.6338 21.2589C15.8312 21.2476 16.0286 21.2372 16.2173 21.2268C16.2173 18.0857 16.2173 14.9957 16.2173 11.8762C16.0087 11.8866 15.8321 11.8944 15.6528 11.903C15.6321 12.1203 15.6156 12.2987 15.5992 12.477C15.3827 12.4978 15.2035 12.5143 14.9914 12.5342C14.9914 12.7472 14.9914 12.9316 14.9914 13.116C14.7948 13.1264 14.5983 13.1376 14.3671 13.1498C14.3671 13.5861 14.3671 13.9766 14.3671 14.3662C14.1706 14.3766 13.974 14.387 13.742 14.3991C13.742 14.8355 13.742 15.226 13.742 15.6164C13.5446 15.626 13.3472 15.6363 13.155 15.6459C13.155 17.9593 13.155 20.2199 13.155 22.5082C13.3689 22.5082 13.555 22.5082 13.742 22.5082C13.7541 22.7056 13.7654 22.9021 13.7792 23.1255C14.0009 23.1134 14.1775 23.1039 14.3844 23.0926C14.3836 22.8753 14.3836 22.6918 14.3836 22.5091Z"
        fill="#FEFEFE" />
    <path
        d="M28.7575 10.6329C28.9601 10.6329 29.1636 10.6329 29.3662 10.6329C29.3662 10.8355 29.3662 11.039 29.3662 11.2416C29.1575 11.2468 28.9489 11.2528 28.7402 11.258C28.7472 11.0503 28.7524 10.8416 28.7575 10.6329Z"
        fill="#FEFEFE" />
</svg>