<svg xmlns="http://www.w3.org/2000/svg" xml:space="preserve" width="24" height="24" viewBox="0 0 24 24" stroke-miterlimit="10"><path d="M6.429 10.566 c-0.166 -0.171 -0.185 -0.284 -0.136 -0.839 0.033 -0.394 0.047 -0.727 0.026 -0.727 -0.007 0
-0.094 -0.012 -0.195 -0.026 -0.532 -0.073 -0.942 -0.347 -1.329 -0.884 l-0.089 -0.122 -0.127 0.108 c-0.117 0.101 -0.127 0.105
-0.103 0.047 0.059 -0.157 0.019 -0.504 -0.115 -0.982 -0.206 -0.745 -0.138 -1.47 0.188 -2.027 0.045 -0.073 0.157 -0.209 0.251
-0.302 0.138 -0.138 0.216 -0.192 0.401 -0.281 l0.23 -0.112 0.014 -0.129 c0.019 -0.178 0.054 -0.281 0.129 -0.396 0.103 -0.152 0.288
-0.277 0.52 -0.347 l0.204 -0.063 0.026 -0.281 c0.061 -0.633 0.255 -1.017 0.6 -1.186 0.157 -0.077 0.412 -0.127 0.511
-0.098 0.061 0.016 0.054 0.021 -0.108 0.105 -0.27 0.138 -0.478 0.37 -0.635 0.703 -0.19 0.403 -0.27 0.834 -0.286 1.54
l-0.009 0.527 0.143 -0.246 c0.188 -0.316 0.321 -0.518 0.497 -0.738 0.152 -0.197 0.173 -0.202 0.295 -0.087 0.155 0.148 0.518
0.415 0.649 0.478 0.084 0.04 0.18 0.066 0.239 0.066 0.087 0 0.103 -0.009 0.15 -0.087 0.03 -0.047 0.056 -0.075 0.061 -0.061 0.014 0.037
-0.157 0.314 -0.405 0.654 -0.595 0.82 -0.769 1.12 -0.832 1.437 -0.035 0.188 -0.019 0.53 0.033 0.63 0.056 0.103 0.021 0.094
-0.094 -0.023 -0.145 -0.15 -0.18 -0.239 -0.183 -0.429 0 -0.136 0.012 -0.19 0.073 -0.316 0.08 -0.169 0.347 -0.572 0.612
-0.921 0.096 -0.129 0.171 -0.234 0.166 -0.237 -0.005 -0.005 -0.07 -0.035 -0.145 -0.07 -0.077 -0.033 -0.23 -0.129 -0.34 -0.211
-0.23 -0.171 -0.373 -0.248 -0.457 -0.248 -0.094 0 -0.192 0.105 -0.328 0.347 l-0.127 0.227 -0.014 0.633 c-0.007 0.349 -0.007
0.771 0.005 0.94 0.019 0.302 0.019 0.307 0.103 0.422 0.045 0.063 0.101 0.15 0.124 0.195 l0.04 0.08 -0.131 0.122 -0.131 0.122 0 0.415 0
0.412 0.112 0.005 c0.462 0.014 0.773 -0.105 1.118 -0.431 0.199 -0.188 0.307 -0.361 0.352 -0.56 0.035 -0.162 0.045 -0.127 0.037
0.131 -0.009 0.277 -0.143 0.6 -0.356 0.855 -0.232 0.281 -0.736 0.591 -1.092 0.673 l-0.171 0.04 0 0.441 c0 0.487
0.03 0.841 0.094 1.066 0.021 0.082 0.04 0.148 0.037 0.148 -0.002 0 -0.049 -0.045 -0.101 -0.098z m-0.15 -3.084 c-0.056 -0.04
-0.209 -0.27 -0.209 -0.316 0 -0.016 0.037 -0.066 0.082 -0.11 0.159 -0.155 0.152 -0.056 0.152 -1.875 l0 -1.643 -0.073 0.052
c-0.185 0.131 -0.234 0.53 -0.19 1.479 0.042 0.867 0.037 1.434 -0.012 1.58 -0.056 0.166 -0.23 0.328 -0.49 0.459 -0.115
0.059 -0.225 0.11 -0.241 0.115 -0.066 0.023 0.178 0.41 0.405 0.652 0.169 0.176 0.305 0.274 0.483 0.347 l0.129 0.052 0.007 -0.377
c0.005 -0.361 0.005 -0.377 -0.045 -0.412z m-0.989 -0.373 c0.063 -0.082 0.141 -0.255 0.166 -0.37 0.061 -0.277 0.059 -0.33
-0.012 -1.98 l-0.012 -0.316 -0.131 0.141 c-0.164 0.176 -0.274 0.41 -0.337 0.705 -0.101 0.492 -0.012 1.205 0.22 1.751 0.026
0.061 0.054 0.11 0.061 0.11 0.005 0 0.026 -0.019 0.045 -0.04z"/></svg>