<svg width="24" height="24" viewBox="0 0 24 24" fill="none"><path fill="#ff3a00" d="M12.002 3.75c4.55.007 8.25 3.71 8.248 8.252-.002 4.548-3.703 8.248-8.253 8.248h-.008c-4.545-.005-8.241-3.71-8.239-8.26.002-4.542 3.705-8.24 8.252-8.24M12 4.814c-3.958 0-7.179 3.223-7.18 7.185-.001 3.957 3.216 7.178 7.171 7.181 3.962 0 7.189-3.221 7.192-7.181a7.13 7.13 0 0 0-2.104-5.078 7.13 7.13 0 0 0-5.078-2.107zm3.546 6.449c.254 1.289-.073 2.372-.999 3.313l-.128.128-.162-.08a5 5 0 0 0-.272-.123l-.367-.153.295-.265c.577-.518.884-1.194.913-2.008s-.259-1.525-.857-2.11a2.823 2.823 0 0 0-4.088.16 2.76 2.76 0 0 0-.66 2.402c.103.588.396 1.125.835 1.53l.29.27-.367.147-.29.12-.157.066-.12-.122A3.5 3.5 0 0 1 8.39 12.3c-.148-1.834 1.041-3.45 2.828-3.84q.396-.09.802-.09a3.6 3.6 0 0 1 3.525 2.893zM7.48 15.98c-1.107-1.234-2.005-3.424-1.203-5.868a6.024 6.024 0 0 1 11.423-.067c.71 2.079.216 4.443-1.256 6.022l-.188.2-.672-.751.148-.167c.921-1.037 1.349-2.267 1.271-3.655-.072-1.267-.576-2.372-1.498-3.28a4.95 4.95 0 0 0-3.5-1.432A5.02 5.02 0 0 0 8.726 8.2a4.94 4.94 0 0 0-1.507 2.278 4.96 4.96 0 0 0-.09 2.72 4.96 4.96 0 0 0 1.073 2.077l.147.17-.687.74z"/></svg>