<svg width="24" height="24" viewBox="0 0 24 24" fill="none">
<path d="M10.7994 3.1163C8.77292 3.04589 6.78378 3.67425 5.16545 4.89605C5.00854 5.01398 4.87983 5.16532 4.78862 5.33913C4.69742 5.51294 4.646 5.70485 4.63811 5.90097C4.63021 6.0971 4.66603 6.29252 4.74297 6.4731C4.8199 6.65368 4.93603 6.81488 5.08295 6.94505C5.54945 7.38605 6.26795 7.42055 6.77495 7.0268C8.01641 6.06064 9.57486 5.59478 11.1429 5.72113C12.7109 5.84747 14.1747 6.55683 15.2454 7.70929C15.6879 8.16679 15.7014 8.88754 15.2769 9.36154C15.1703 9.47598 15.0421 9.56827 14.8997 9.63314C14.7573 9.69802 14.6036 9.73421 14.4472 9.73964C14.2908 9.74507 14.1349 9.71964 13.9884 9.66481C13.8419 9.60997 13.7076 9.5268 13.5932 9.42004L13.5354 9.36154C13.0015 8.77606 12.303 8.36572 11.5316 8.1844C10.7603 8.00308 9.95211 8.05927 9.21326 8.34558C8.4744 8.63189 7.8394 9.13494 7.39162 9.78867C6.94384 10.4424 6.70422 11.2163 6.70422 12.0087C6.70422 12.8011 6.94384 13.5749 7.39162 14.2287C7.8394 14.8824 8.4744 15.3855 9.21326 15.6718C9.95211 15.9581 10.7603 16.0143 11.5316 15.8329C12.303 15.6516 13.0015 15.2413 13.5354 14.6558C13.7065 14.4644 13.9359 14.3347 14.1881 14.2868C14.4402 14.239 14.7012 14.2756 14.9304 14.391C15.0936 14.4729 15.2355 14.5913 15.3453 14.737C15.4551 14.8828 15.5296 15.052 15.5632 15.2313C15.5967 15.4107 15.5884 15.5954 15.5387 15.771C15.489 15.9466 15.3995 16.1083 15.2769 16.2435C14.2106 17.4108 12.7449 18.1353 11.17 18.2737C9.59497 18.412 8.02545 17.9541 6.77195 16.9905C6.52391 16.8016 6.21712 16.7062 5.90565 16.7213C5.59419 16.7364 5.29806 16.861 5.06945 17.073C4.92351 17.2068 4.80901 17.3712 4.73421 17.5545C4.65941 17.7377 4.62615 17.9353 4.63684 18.133C4.64753 18.3306 4.70189 18.5234 4.79601 18.6976C4.89014 18.8717 5.02169 19.0228 5.1812 19.14C6.29995 19.9697 7.59801 20.5249 8.97072 20.7608C10.3434 20.9967 11.7523 20.9067 13.0839 20.4981C14.4154 20.0895 15.6323 19.3737 16.6364 18.4084C17.6405 17.4432 18.4038 16.2555 18.8646 14.9411C19.3254 13.6267 19.4709 12.2224 19.2893 10.8415C19.1078 9.46053 18.6042 8.14158 17.8193 6.99098C17.0344 5.84037 15.9901 4.89031 14.7707 4.2174C13.5512 3.5445 12.1906 3.16758 10.7987 3.11705L10.7994 3.1163ZM10.6344 14.2073C10.3456 14.2062 10.0597 14.1482 9.79327 14.0367C9.5268 13.9251 9.28491 13.7622 9.08141 13.5572C8.87791 13.3521 8.71678 13.109 8.60724 12.8417C8.49769 12.5744 8.44187 12.2882 8.44295 11.9993C8.44403 11.7104 8.502 11.4246 8.61355 11.1581C8.7251 10.8916 8.88804 10.6498 9.09307 10.4463C9.29811 10.2428 9.54121 10.0816 9.80851 9.97208C10.0758 9.86254 10.3621 9.80671 10.6509 9.80779C11.2344 9.80988 11.793 10.0436 12.2041 10.4577C12.6152 10.8717 12.8449 11.432 12.8428 12.0154C12.8407 12.5988 12.607 13.1575 12.193 13.5686C11.779 13.9796 11.2186 14.2094 10.6352 14.2073H10.6344Z" fill="#2FD2E5"/>
</svg>
