<svg width="24" height="24" viewBox="0 0 24 24" fill="none"><path fill="#2fd2e5" d="M10.8 3.116a8.84 8.84 0 0 0-5.635 1.78 1.324 1.324 0 0 0-.082 2.05 1.3 1.3 0 0 0 1.692.08 6.29 6.29 0 0 1 8.47.683c.443.458.456 1.179.032 1.653a1.19 1.19 0 0 1-1.684.058l-.058-.058a3.928 3.928 0 1 0 0 5.294 1.168 1.168 0 0 1 1.81.081 1.184 1.184 0 0 1-.068 1.507 6.31 6.31 0 0 1-8.505.747 1.324 1.324 0 0 0-1.703.082 1.34 1.34 0 0 0 .112 2.067A8.889 8.889 0 1 0 10.8 3.117m-.166 11.091a2.2 2.2 0 1 1 .016-4.401 2.2 2.2 0 0 1-.015 4.401"/></svg>