<svg width="24" height="24" viewBox="0 0 24 24" fill="none"><path fill="#4c6bae" fill-rule="evenodd" d="m4.787 12.758-1.037.107q.832-2.33 3.293-3.726.232 1.93 1.83 3.194l-.975.101a4.13 4.13 0 0 0 3.415 3.634 4.56 4.56 0 0 1-2.24.889q.765 1.35 1.813 2.21a7.255 7.255 0 0 1-6.099-6.41m14.426-1.515 1.037-.108q-.832 2.33-3.293 3.726-.232-1.93-1.83-3.194l.975-.101a4.13 4.13 0 0 0-3.47-3.643 4.56 4.56 0 0 1 2.23-.88q-.773-1.36-1.83-2.222a7.255 7.255 0 0 1 6.18 6.422" clip-rule="evenodd" opacity=".5"/><path fill="#4c6bae" fill-rule="evenodd" d="m12.692 19.22.107 1.03q-2.33-.832-3.726-3.293 1.929-.232 3.193-1.83l.102.982a4.13 4.13 0 0 0 3.709-3.477c.486.652.79 1.421.88 2.23q1.36-.773 2.222-1.83a7.255 7.255 0 0 1-6.487 6.188m-1.45-14.433-.107-1.037q2.33.832 3.726 3.293-1.93.232-3.194 1.83l-.101-.975a4.13 4.13 0 0 0-3.643 3.47 4.56 4.56 0 0 1-.88-2.23q-1.36.773-2.222 1.83a7.256 7.256 0 0 1 6.422-6.18" clip-rule="evenodd"/></svg>