<svg width="24" height="24" viewBox="0 0 24 24" fill="none"><path fill="#fff" d="M12 18.75H8.598l1.704-2.968h3.396l1.704 2.968zM10.303 8.217 8.598 5.25h6.804l-1.704 2.967h-3.396m7.499 7.154-1.705 2.969-1.698-2.968h.001l1.697-2.969H19.5zM6.198 8.622l1.704-2.968L9.6 8.622l-1.698 2.967H4.5zm3.401 6.75L7.902 18.34l-1.704-2.968-1.698-2.97h3.402zm8.203-6.75L19.5 11.59h-3.402l-1.699-2.968 1.698-2.968z"/><path fill="#13bf99" d="M12 18.75H8.598l1.704-2.968h3.396l1.704 2.968zM10.303 8.217 8.598 5.25h6.804l-1.704 2.967h-3.396m7.499 7.154-1.705 2.969-1.698-2.968h.001l1.697-2.969H19.5zM6.198 8.622l1.704-2.968L9.6 8.622l-1.698 2.967H4.5zm3.401 6.75L7.902 18.34l-1.704-2.968-1.698-2.97h3.402zm8.203-6.75L19.5 11.59h-3.402l-1.699-2.968 1.698-2.968z"/></svg>