<?xml version="1.0" encoding="UTF-8"?>
<!DOCTYPE svg PUBLIC "-//W3C//DTD SVG 1.1//EN" "http://www.w3.org/Graphics/SVG/1.1/DTD/svg11.dtd">
<svg xmlns="http://www.w3.org/2000/svg" version="1.1" width="900px" height="900px" style="shape-rendering:geometricPrecision; text-rendering:geometricPrecision; image-rendering:optimizeQuality; fill-rule:evenodd; clip-rule:evenodd" xmlns:xlink="http://www.w3.org/1999/xlink">
<g><path style="opacity:0.994" fill="#ff9211" d="M 448.5,113.5 C 454.268,113.442 459.601,114.942 464.5,118C 554.833,170.333 645.167,222.667 735.5,275C 738.531,277.559 740.698,280.726 742,284.5C 742.667,393.167 742.667,501.833 742,610.5C 739.559,616.608 735.392,621.108 729.5,624C 639.33,676.253 548.997,728.253 458.5,780C 450.547,782.47 443.214,781.136 436.5,776C 347.167,724.333 257.833,672.667 168.5,621C 164.806,618.313 162.306,614.813 161,610.5C 160.006,500.777 160.34,391.111 162,281.5C 164.883,276.95 168.716,273.45 173.5,271C 261.33,220.586 348.997,169.919 436.5,119C 440.481,116.838 444.481,115.005 448.5,113.5 Z M 449.5,184.5 C 450.873,184.343 452.207,184.51 453.5,185C 528.585,228.626 603.752,272.126 679,315.5C 679.667,403.5 679.667,491.5 679,579.5C 603.272,623.404 527.439,667.071 451.5,710.5C 375.296,667.481 299.463,623.815 224,579.5C 223.333,491.5 223.333,403.5 224,315.5C 299.475,272.185 374.642,228.519 449.5,184.5 Z"/></g>
<g><path style="opacity:0.985" fill="#ff9211" d="M 447.5,247.5 C 453.394,246.943 458.727,248.443 463.5,252C 512.167,280 560.833,308 609.5,336C 615.041,339.265 620.374,342.765 625.5,346.5C 617.203,352.99 608.203,358.49 598.5,363C 597.5,363.667 596.5,363.667 595.5,363C 547.629,334.967 499.629,307.134 451.5,279.5C 403.204,307.3 355.037,335.3 307,363.5C 306.167,419.836 306.333,476.17 307.5,532.5C 355.167,560 402.833,587.5 450.5,615C 451.653,625.757 451.82,636.59 451,647.5C 450.586,647.957 450.086,648.291 449.5,648.5C 393.003,616.086 336.67,583.419 280.5,550.5C 278.703,548.869 277.536,546.869 277,544.5C 276.333,479.833 276.333,415.167 277,350.5C 278.4,347.098 280.567,344.264 283.5,342C 338.355,310.604 393.022,279.104 447.5,247.5 Z"/></g>
<g><path style="opacity:0.996" fill="#ff9210" d="M 620.5,371.5 C 621.822,371.33 622.989,371.663 624,372.5C 624.667,436.167 624.667,499.833 624,563.5C 575.311,592.345 526.311,620.679 477,648.5C 476.055,648.095 475.388,647.428 475,646.5C 474.333,581.167 474.333,515.833 475,450.5C 475.833,449.667 476.667,448.833 477.5,448C 525.546,422.98 573.213,397.48 620.5,371.5 Z"/></g>
</svg>
