<svg width="21px" height="24px" viewBox="0 0 21 24">
<path d="M 11.816406 12 C 11.816406 10.34375 10.453125 9 8.769531 9 C 7.085938 9 5.722656 10.34375 5.722656 12 C 5.722656 13.65625 7.085938 15 8.769531 15 C 10.453125 15 11.816406 13.65625 11.816406 12 M 8.769531 0 C 5.347656 0 2.253906 1.390625 0.0429688 3.628906 L 4.476562 7.953125 C 5.5625 6.847656 7.085938 6.148438 8.769531 6.148438 C 12.054688 6.148438 14.714844 8.765625 14.714844 12 C 14.714844 15.234375 12.054688 17.851562 8.769531 17.851562 C 7.109375 17.851562 5.597656 17.175781 4.523438 16.082031 L 0.105469 20.445312 C 2.316406 22.636719 5.375 24 8.757812 24 C 15.488281 24 20.945312 18.628906 20.945312 12 C 20.945312 5.371094 15.5 0 8.769531 0 Z M 8.769531 0 " fill="#6DD39A"/>
</svg>
