<svg width="24" height="24" viewBox="0 0 24 24" fill="none"><path fill="#00bdcd" d="M16.75 7.308a5.82 5.82 0 0 0-3.794-1.385c-3.146 0-5.737 2.488-5.953 5.668h-.617c.216-3.558 3.085-6.298 6.57-6.298 1.543 0 3.023.567 4.226 1.575zm-.216 2.078a4.4 4.4 0 0 0-3.578-1.857c-2.436 0-4.41 2.015-4.41 4.471 0 2.487 1.974 4.503 4.41 4.503a4.4 4.4 0 0 0 3.578-1.858l.433.44c-.957 1.291-2.438 2.048-4.01 2.048-2.777 0-5.029-2.3-5.029-5.133 0-2.802 2.252-5.101 5.028-5.101a4.99 4.99 0 0 1 4.01 2.047zm.71-1.605.432-.441c.154.157.277.314.4.472l-.431.44a6 6 0 0 0-.402-.472m-4.318 10.957c-3.486 0-6.354-2.739-6.57-6.297h.616c.216 3.18 2.807 5.668 5.953 5.668a5.82 5.82 0 0 0 3.794-1.386l.432.44a6.52 6.52 0 0 1-4.225 1.576zm4.317-2.487c.155-.158.278-.315.402-.473l.431.44c-.123.158-.246.316-.4.473zM5.493 12c0 4.188 3.36 7.62 7.463 7.62a7.26 7.26 0 0 0 5.738-2.77l.431.44c-1.542 1.89-3.763 2.96-6.169 2.96-4.472 0-8.081-3.716-8.081-8.25 0-4.566 3.64-8.25 8.081-8.25 2.374 0 4.628 1.07 6.169 2.96l-.432.441c-1.419-1.763-3.516-2.771-5.738-2.771-4.102 0-7.463 3.432-7.463 7.62"/></svg>