<svg xmlns="http://www.w3.org/2000/svg" width="24" height="24" viewBox="0 0 24 24"><path d="M6.137 4.422a1.52 1.52 0 0 0-.844.406 1.44 1.44 0 0 0-.43.879c-.02.16-.02 4.543 0 4.715.035.34.192.66.43.89.242.227.566.376.922.41.09.008.933.012 2.789.012h2.66v-1.468H9.152c-1.746 0-2.527-.004-2.558-.012a.38.38 0 0 1-.188-.164c-.023-.047-.023-.137-.023-2.02V6.094l.035-.063a.29.29 0 0 1 .207-.156c.043-.008.805-.012 2.563-.012h2.5V4.406h-.083a.8.8 0 0 0-.37.086.6.6 0 0 0-.22.156c-.163.16-.226.301-.25.567-.011.16-.038.219-.124.308a.36.36 0 0 1-.293.125.35.35 0 0 1-.18-.03.44.44 0 0 1-.211-.2.7.7 0 0 1-.043-.223c-.016-.25-.082-.394-.246-.554a.8.8 0 0 0-.324-.196L9.25 4.41H7.742c-1.164-.004-1.527 0-1.605.012m7.418 0a1.52 1.52 0 0 0-.84.406c-.246.234-.39.531-.43.879a27 27 0 0 0 0 1.79c.04.335.192.648.43.878.238.227.57.375.926.41.082.008.77.012 1.933.012h1.809l.066.035c.035.016.082.05.102.074.074.082.078.117.078.617 0 .282-.008.473-.016.512a.3.3 0 0 1-.16.2l-.07.03H12.27v1.47h2.69c1.77 0 2.735-.005 2.817-.012.707-.07 1.239-.547 1.352-1.215.027-.164.027-1.766 0-1.942-.098-.629-.602-1.109-1.262-1.203-.117-.02-.37-.02-1.965-.02-1.82 0-1.832 0-1.902-.027a.3.3 0 0 1-.18-.18c-.011-.03-.015-.199-.015-.542v-.5l.035-.063a.3.3 0 0 1 .203-.156c.047-.008.812-.012 2.586-.012h2.52V4.406h-.075a.9.9 0 0 0-.328.07.8.8 0 0 0-.492.704c-.012.175-.043.258-.137.347a.4.4 0 0 1-.152.106.43.43 0 0 1-.524-.219c-.027-.05-.035-.094-.043-.215a.81.81 0 0 0-.57-.754l-.094-.035h-1.539c-1.187-.004-1.558 0-1.64.012m-7.821 7.91c-.336.05-.62.258-.773.55-.117.231-.102-.214-.106 4.06l-.003 3.78.199.133c.219.153.535.352.738.47.172.097.57.312.582.312.008 0 .012-.657.016-1.465l.004-1.465.03-.07c.157-.313.602-.325.759-.016.039.07.043.098.05.227a.8.8 0 0 0 .094.363.85.85 0 0 0 .528.41c.078.02.16.02 1.316.02h1.234l.133-.028c.606-.125 1.035-.539 1.168-1.117l.031-.129v-2.383c0-1.957-.004-2.402-.02-2.476-.1-.535-.487-.957-1.034-1.121-.235-.07-.164-.07-2.625-.067-1.246 0-2.29.004-2.32.012m4.22 1.457c.093.02.175.078.218.152l.035.067v1.969c0 2.191.008 2.015-.086 2.109a.4.4 0 0 1-.098.07c-.046.024-.12.024-1.73.024-1.605 0-1.68 0-1.727-.024a.3.3 0 0 1-.097-.066c-.094-.094-.086.074-.082-2.125l.004-1.98.035-.06a.3.3 0 0 1 .199-.136c.086-.016 3.25-.02 3.328 0m2.355-.726v.734h.578c.547 0 .578.004.644.027a.3.3 0 0 1 .18.18c.012.035.016.535.016 1.996 0 1.93 0 1.95-.024 2.016a.32.32 0 0 1-.18.172 2 2 0 0 1-.277.019c-.16.004-.258.016-.309.027a.9.9 0 0 0-.539.418c-.082.16-.09.22-.09.645v.375h4.18v-1.469h-.496c-.558 0-.555 0-.644-.09-.094-.093-.09.063-.09-2.11 0-1.46.004-1.964.015-2a.31.31 0 0 1 .184-.179c.07-.027.082-.027 1.879-.027h1.812v-1.465h-1.14c-1.281 0-1.235-.004-1.43.086a.7.7 0 0 0-.21.148c-.169.16-.24.313-.259.567-.011.164-.047.246-.132.332a.425.425 0 0 1-.586.004c-.09-.078-.121-.156-.133-.324a.7.7 0 0 0-.09-.36.8.8 0 0 0-.395-.379c-.171-.074-.152-.074-1.367-.074H12.31Zm0 0"/></svg>