<svg xmlns="http://www.w3.org/2000/svg" xmlns:xlink="http://www.w3.org/1999/xlink" width="24" height="24" viewBox="0 0 24 24" version="1.1">
<g>
    <path fill="#000000" d="M 6.136719 4.421875 C 5.804688 4.472656 5.519531 4.609375 5.292969 4.828125 C 5.050781 5.0625 4.90625 5.359375 4.863281 5.707031 C 4.84375 5.867188 4.84375 10.25 4.863281 10.421875 C 4.898438 10.761719 5.054688 11.082031 5.292969 11.3125 C 5.535156 11.539062 5.859375 11.6875 6.214844 11.722656 C 6.304688 11.730469 7.148438 11.734375 9.003906 11.734375 L 11.664062 11.734375 L 11.664062 10.265625 L 9.152344 10.265625 C 7.40625 10.265625 6.625 10.261719 6.59375 10.253906 C 6.53125 10.238281 6.4375 10.152344 6.40625 10.089844 C 6.382812 10.042969 6.382812 9.953125 6.382812 8.070312 L 6.382812 6.09375 L 6.417969 6.03125 C 6.460938 5.949219 6.535156 5.890625 6.625 5.875 C 6.667969 5.867188 7.429688 5.863281 9.1875 5.863281 L 11.6875 5.863281 L 11.6875 4.40625 L 11.605469 4.40625 C 11.476562 4.40625 11.355469 4.433594 11.234375 4.492188 C 11.144531 4.53125 11.105469 4.5625 11.015625 4.648438 C 10.851562 4.808594 10.789062 4.949219 10.765625 5.214844 C 10.753906 5.375 10.726562 5.433594 10.640625 5.523438 C 10.546875 5.617188 10.476562 5.648438 10.347656 5.648438 C 10.257812 5.648438 10.226562 5.644531 10.167969 5.617188 C 10.078125 5.578125 9.996094 5.5 9.957031 5.417969 C 9.933594 5.363281 9.925781 5.320312 9.914062 5.195312 C 9.898438 4.945312 9.832031 4.800781 9.667969 4.640625 C 9.566406 4.542969 9.476562 4.492188 9.34375 4.445312 L 9.25 4.410156 L 7.742188 4.410156 C 6.578125 4.40625 6.214844 4.410156 6.136719 4.421875 Z M 6.136719 4.421875 "/>
    <path fill="#000000" d="M 13.554688 4.421875 C 13.226562 4.472656 12.941406 4.609375 12.714844 4.828125 C 12.46875 5.0625 12.324219 5.359375 12.285156 5.707031 C 12.265625 5.863281 12.265625 7.339844 12.285156 7.496094 C 12.324219 7.832031 12.476562 8.144531 12.714844 8.375 C 12.953125 8.601562 13.285156 8.75 13.640625 8.785156 C 13.722656 8.792969 14.410156 8.796875 15.574219 8.796875 L 17.382812 8.796875 L 17.449219 8.832031 C 17.484375 8.847656 17.53125 8.882812 17.550781 8.90625 C 17.625 8.988281 17.628906 9.023438 17.628906 9.523438 C 17.628906 9.804688 17.621094 9.996094 17.613281 10.035156 C 17.597656 10.117188 17.535156 10.191406 17.453125 10.234375 L 17.382812 10.265625 L 12.269531 10.265625 L 12.269531 11.734375 L 14.960938 11.734375 C 16.730469 11.734375 17.695312 11.730469 17.777344 11.722656 C 18.484375 11.652344 19.015625 11.175781 19.128906 10.507812 C 19.15625 10.34375 19.15625 8.742188 19.128906 8.566406 C 19.03125 7.9375 18.527344 7.457031 17.867188 7.363281 C 17.75 7.34375 17.496094 7.34375 15.902344 7.34375 C 14.082031 7.34375 14.070312 7.34375 14 7.316406 C 13.917969 7.289062 13.839844 7.210938 13.820312 7.136719 C 13.808594 7.105469 13.804688 6.9375 13.804688 6.59375 L 13.804688 6.09375 L 13.839844 6.03125 C 13.882812 5.949219 13.957031 5.890625 14.042969 5.875 C 14.089844 5.867188 14.855469 5.863281 16.628906 5.863281 L 19.148438 5.863281 L 19.148438 4.40625 L 19.074219 4.40625 C 18.972656 4.40625 18.839844 4.433594 18.746094 4.476562 C 18.449219 4.609375 18.273438 4.867188 18.253906 5.179688 C 18.242188 5.355469 18.210938 5.4375 18.117188 5.527344 C 18.058594 5.585938 18.019531 5.609375 17.964844 5.632812 C 17.765625 5.703125 17.53125 5.605469 17.441406 5.414062 C 17.414062 5.363281 17.40625 5.320312 17.398438 5.199219 C 17.390625 5.082031 17.378906 5.027344 17.351562 4.949219 C 17.265625 4.710938 17.082031 4.53125 16.828125 4.445312 L 16.734375 4.410156 L 15.195312 4.410156 C 14.007812 4.40625 13.636719 4.410156 13.554688 4.421875 Z M 13.554688 4.421875 "/>
    <path fill="#000000" d="M 5.734375 12.332031 C 5.398438 12.382812 5.113281 12.589844 4.960938 12.882812 C 4.84375 13.113281 4.859375 12.667969 4.855469 16.941406 L 4.851562 20.722656 L 5.050781 20.855469 C 5.269531 21.007812 5.585938 21.207031 5.789062 21.324219 C 5.960938 21.421875 6.359375 21.636719 6.371094 21.636719 C 6.378906 21.636719 6.382812 20.980469 6.386719 20.171875 L 6.390625 18.707031 L 6.421875 18.636719 C 6.578125 18.324219 7.023438 18.3125 7.179688 18.621094 C 7.21875 18.691406 7.222656 18.71875 7.230469 18.847656 C 7.242188 19.015625 7.265625 19.09375 7.324219 19.210938 C 7.429688 19.40625 7.621094 19.558594 7.851562 19.621094 C 7.929688 19.640625 8.011719 19.640625 9.167969 19.640625 L 10.402344 19.640625 L 10.535156 19.613281 C 11.140625 19.488281 11.570312 19.074219 11.703125 18.496094 L 11.734375 18.367188 L 11.734375 15.984375 C 11.734375 14.027344 11.730469 13.582031 11.714844 13.507812 C 11.613281 12.972656 11.226562 12.550781 10.679688 12.386719 C 10.445312 12.316406 10.515625 12.316406 8.054688 12.320312 C 6.808594 12.320312 5.765625 12.324219 5.734375 12.332031 Z M 9.953125 13.789062 C 10.046875 13.808594 10.128906 13.867188 10.171875 13.941406 L 10.207031 14.007812 L 10.207031 15.976562 C 10.207031 18.167969 10.214844 17.992188 10.121094 18.085938 C 10.09375 18.113281 10.050781 18.144531 10.023438 18.15625 C 9.976562 18.179688 9.902344 18.179688 8.292969 18.179688 C 6.6875 18.179688 6.613281 18.179688 6.566406 18.15625 C 6.535156 18.144531 6.492188 18.113281 6.46875 18.089844 C 6.375 17.996094 6.382812 18.164062 6.386719 15.964844 L 6.390625 13.984375 L 6.425781 13.925781 C 6.472656 13.851562 6.546875 13.800781 6.625 13.789062 C 6.710938 13.773438 9.875 13.769531 9.953125 13.789062 Z M 9.953125 13.789062 "/>
    <path fill="#000000" d="M 12.308594 13.0625 L 12.308594 13.796875 L 12.886719 13.796875 C 13.433594 13.796875 13.464844 13.800781 13.53125 13.824219 C 13.613281 13.851562 13.6875 13.929688 13.710938 14.003906 C 13.722656 14.039062 13.726562 14.539062 13.726562 16 C 13.726562 17.929688 13.726562 17.949219 13.703125 18.015625 C 13.671875 18.089844 13.59375 18.167969 13.523438 18.1875 C 13.5 18.195312 13.375 18.207031 13.246094 18.207031 C 13.085938 18.210938 12.988281 18.222656 12.9375 18.234375 C 12.710938 18.292969 12.5 18.460938 12.398438 18.652344 C 12.316406 18.8125 12.308594 18.871094 12.308594 19.296875 L 12.308594 19.671875 L 16.488281 19.671875 L 16.488281 18.203125 L 15.992188 18.203125 C 15.433594 18.203125 15.4375 18.203125 15.347656 18.113281 C 15.253906 18.019531 15.257812 18.175781 15.257812 16.003906 C 15.257812 14.542969 15.261719 14.039062 15.273438 14.003906 C 15.296875 13.929688 15.375 13.851562 15.457031 13.824219 C 15.527344 13.796875 15.539062 13.796875 17.335938 13.796875 L 19.148438 13.796875 L 19.148438 12.332031 L 18.007812 12.332031 C 16.726562 12.332031 16.773438 12.328125 16.578125 12.417969 C 16.492188 12.457031 16.445312 12.492188 16.367188 12.566406 C 16.199219 12.726562 16.128906 12.878906 16.109375 13.132812 C 16.097656 13.296875 16.0625 13.378906 15.976562 13.464844 C 15.808594 13.621094 15.570312 13.625 15.390625 13.46875 C 15.300781 13.390625 15.269531 13.3125 15.257812 13.144531 C 15.246094 12.964844 15.230469 12.90625 15.167969 12.785156 C 15.085938 12.617188 14.953125 12.492188 14.773438 12.40625 C 14.601562 12.332031 14.621094 12.332031 13.40625 12.332031 L 12.308594 12.332031 Z M 12.308594 13.0625 "/>
</g>
</svg>
