<svg width="24" height="24" viewBox="0 0 24 24" fill="none"><path fill="#000" d="M11.923 3.299c-.11-.248.286-.423.396-.188q3.861 6.65 7.722 13.311c-.137 0-.27-.045-.401-.066l-6.87-1.37c-.226-.01-.275-.375-.055-.429l2.695-.742a.225.225 0 0 0 .149-.313l-3.636-10.21v.006"/><path fill="#000" d="M11.528 3.321a1 1 0 0 1 .065.115c.814 2.31 1.65 4.62 2.458 6.93.072.193-.198.352-.33.209-.693-.726-1.353-1.474-2.034-2.2-.11-.099-.27-.033-.342.072l-7.084 8.322c-.082.087-.153.22-.291.236-.1 0-.165-.078-.22-.154v-.127q3.893-6.699 7.778-13.403"/><path fill="#000" d="M9.36 11.246c.132-.038.308.055.264.215-.275.957-.566 1.909-.853 2.86-.043.121.066.23.182.236 3.707.743 7.414 1.513 11.12 2.255.073.011.122.066.177.11v.154l-.105.11H4.41c1.65-1.98 3.295-3.971 4.95-5.94"/><path fill="#000" d="M11.923 3.299c-.11-.248.286-.423.396-.188q3.861 6.65 7.722 13.311c-.137 0-.27-.045-.401-.066l-6.87-1.37c-.226-.01-.275-.375-.055-.429l2.695-.742a.225.225 0 0 0 .149-.313l-3.636-10.21v.006"/><path fill="#000" d="M11.528 3.321a1 1 0 0 1 .065.115c.814 2.31 1.65 4.62 2.458 6.93.072.193-.198.352-.33.209-.693-.726-1.353-1.474-2.034-2.2-.11-.099-.27-.033-.342.072l-7.084 8.322c-.082.087-.153.22-.291.236-.1 0-.165-.078-.22-.154v-.127q3.893-6.699 7.778-13.403"/><path fill="#000" d="M9.36 11.246c.132-.038.308.055.264.215-.275.957-.566 1.909-.853 2.86-.043.121.066.23.182.236 3.707.743 7.414 1.513 11.12 2.255.073.011.122.066.177.11v.154l-.105.11H4.41c1.65-1.98 3.295-3.971 4.95-5.94"/></svg>