<?xml version="1.0" encoding="UTF-8"?>
<svg xmlns="http://www.w3.org/2000/svg" version="1.0" width="24" height="24" viewBox="0 0 400.000000 400.000000" preserveAspectRatio="xMidYMid meet">
  <g transform="translate(0.000000,400.000000) scale(0.100000,-0.100000)" fill="#4287f5" stroke="none">
    <path d="M0 2000 l0 -2000 2000 0 2000 0 0 2000 0 2000 -2000 0 -2000 0 0 -2000z m2770 969 c181 -80 233 -321 100 -472 -179 -204 -514 -75 -514 198 0 219 216 361 414 274z m-1242 -896 l2 -623 560 0 560 0 0 -150 0 -150 -730 0 -730 0 0 768 c0 423 3 772 7 776 4 3 79 5 167 4 l161 -3 3 -622z"></path>
  </g>
</svg>
