<svg width="378" height="183" viewBox="0 0 378 183" fill="none" xmlns="http://www.w3.org/2000/svg">
<path d="M20.6792 149.413C-8.81227 113.47 -6.75818 60.3506 26.8332 26.7966C62.6189 -8.93221 120.628 -8.93221 156.414 26.7966C192.192 62.5337 192.192 120.464 156.414 156.201C121.717 190.851 66.1166 191.897 30.1577 159.357L111.059 78.5569L120.777 88.2614L71.3797 137.6C89.8335 145.681 112.148 142.172 127.253 127.088C146.936 107.432 146.936 75.5664 127.253 55.9185C107.578 36.2622 75.6694 36.2622 55.9864 55.9185C38.5225 73.3586 36.5592 100.421 50.0964 120.028L20.6792 149.413Z" fill="#B75FFF"/>
<path d="M263.92 109.704V96.0207H378C375.682 142.986 337.809 180.61 290.697 182.604C236.771 184.894 192.439 139.914 195.557 86.102C198.329 38.2136 239.378 0.227555 286.754 0.227555C334.13 0.227555 373.075 36.2365 377.662 82.3371H336.168C331.878 58.982 311.386 41.2865 286.754 41.2865C255.728 41.2865 231.269 69.3703 237.481 101.483C241.325 121.328 256.974 136.907 276.863 140.696C302.279 145.532 325.155 131.231 333.577 109.704H263.92Z" fill="#B75FFF"/>
</svg>
