<svg xmlns="http://www.w3.org/2000/svg" xml:space="preserve" width="24" height="24" viewBox="0 0 24 24" stroke-miterlimit="10"><path transform="scale(1,-1) translate(0,-24)" d="M11.285 22.861 c-0.052 -0.005 -0.251 -0.026 -0.445 -0.045 -1.917 -0.197 -3.816 -0.945 -5.377
-2.121 -2.351 -1.77 -3.87 -4.362 -4.27 -7.289 -0.063 -0.457 -0.087 -1.659 -0.047 -2.208 0.061 -0.785
0.225 -1.664 0.436 -2.337 0.061 -0.188 0.061 -0.19 0.138 -0.19 0.12 0 0.752 0.087 1.111 0.155 1.943 0.359 3.827 1.28
5.325 2.602 2.285 2.02 3.645 4.802 3.82 7.821 0.014 0.244 0.037 0.462 0.052 0.485 0.03 0.047 0.117 0.094 0.171 0.094
0.084 0 0.164 -0.07 0.305 -0.267 0.248 -0.354 0.452 -0.595 0.773 -0.926 1.491 -1.533 3.478 -2.367 5.648
-2.37 0.785 0 1.849 0.192 2.632 0.473 l0.195 0.07 -0.131 0.246 c-0.323 0.602 -0.736 1.238 -1.111 1.706 -0.394
0.492 -1.066 1.188 -1.514 1.561 -1.65 1.383 -3.605 2.229 -5.74 2.484 -0.302 0.035 -0.581 0.049 -1.139 0.056
-0.405 0.002 -0.78 0.002 -0.832 -0.002z M21.891 15.305 c-1.72 -0.218 -3.302 -0.785 -4.716 -1.695 -0.687 -0.441 -1.198 -0.848
-1.786 -1.423 -1.32 -1.287 -2.276 -2.815 -2.845 -4.547 -0.314 -0.952 -0.487 -1.861 -0.551 -2.897
-0.028 -0.443 -0.033 -0.459 -0.087 -0.504 -0.07 -0.054 -0.159 -0.056 -0.227 -0.009 -0.028 0.021 -0.157 0.178 -0.286 0.349
-0.6 0.809 -1.348 1.498 -2.159 1.997 -0.675 0.415 -1.315 0.696 -2.051 0.898 -1.444 0.398 -3.124 0.354
-4.509 -0.12 -0.188 -0.063 -0.361 -0.122 -0.382 -0.129 -0.023 -0.007 -0.042 -0.023 -0.042 -0.037 0 -0.103 0.577 -1.05
0.956 -1.573 1.758 -2.409 4.43 -3.996 7.387 -4.383 0.743 -0.096 1.88 -0.108 2.578 -0.028 2.093 0.246
3.98 1.036 5.616 2.348 0.565 0.452 0.942 0.818 1.448 1.404 1.277 1.477 2.149 3.319 2.475 5.236 0.274
1.617 0.171 3.368 -0.291 4.898 -0.087 0.293 -0.042 0.274 -0.53 0.213z"/></svg>