<svg xmlns="http://www.w3.org/2000/svg" width="24" height="24" viewBox="0 0 24 24" fill="none"><path fill="#8247e5" d="M17.092 8.693c-.369-.215-.848-.215-1.254 0l-2.879 1.654-1.955 1.078-2.879 1.653c-.369.216-.848.216-1.254 0l-2.288-1.294c-.369-.215-.627-.61-.627-1.042V8.19c0-.431.221-.826.627-1.042l2.25-1.258c.37-.216.85-.216 1.256 0l2.25 1.258c.37.216.628.611.628 1.042v1.654l1.955-1.115V7.076a1.16 1.16 0 0 0-.627-1.042l-4.17-2.372c-.369-.216-.848-.216-1.254 0L2.627 6.034A1.16 1.16 0 0 0 2 7.076v4.78c0 .431.221.827.627 1.043l4.244 2.372c.369.215.849.215 1.254 0l2.879-1.618 1.955-1.114 2.879-1.617c.369-.216.848-.216 1.254 0l2.251 1.258c.37.215.627.61.627 1.042v2.552c0 .431-.22.826-.627 1.042l-2.25 1.294c-.37.216-.85.216-1.255 0l-2.251-1.258c-.37-.216-.628-.611-.628-1.042v-1.654l-1.955 1.115v1.653c0 .431.221.826.627 1.042l4.243 2.372c.37.216.85.216 1.255 0l4.244-2.372c.369-.216.627-.61.627-1.042v-4.78a1.16 1.16 0 0 0-.627-1.043z"/></svg>