<svg xmlns="http://www.w3.org/2000/svg" xml:space="preserve" width="24" height="24" viewBox="0 0 24 24" stroke-miterlimit="10"><path d="M10.156 10.531a.94.94 0 0 0-.625.219c-.173.145-.3.353-.375.656a14 14 0 0 0-.25 1.094 1.4 1.4 0 0 0-.031.281c-.004.41.233.625.656.625a.94.94 0 0 0 .625-.219c.177-.144.301-.383.375-.687.103-.417.166-.783.219-1.094.018-.091.031-.182.031-.281 0-.402-.205-.594-.625-.594m4 .032-.25 1.187h.781a.74.74 0 0 0 .47-.156.73.73 0 0 0 .28-.438c.015-.074.032-.13.032-.187a.43.43 0 0 0-.125-.313c-.074-.07-.195-.094-.375-.094z"/><path d="M12 3.188A8.8 8.8 0 0 0 3.188 12 8.8 8.8 0 0 0 12 20.813 8.8 8.8 0 0 0 20.813 12 8.8 8.8 0 0 0 12 3.188m-1.75 6.374c.339 0 .638.071.906.188.269.11.47.274.625.5.156.222.25.474.25.781 0 .092-.01.234-.031.375-.067.392-.155.755-.25 1.125-.155.604-.431 1.075-.812 1.375-.378.297-.865.438-1.5.438-.527 0-.978-.128-1.313-.375-.332-.25-.5-.6-.5-1.063 0-.099.01-.234.031-.375.057-.318.144-.676.25-1.125.3-1.214 1.094-1.844 2.344-1.844m3.063.094h1.75c.49 0 .89.08 1.187.281.3.205.438.49.438.876 0 .109-.007.255-.032.374-.11.509-.317.882-.656 1.126-.332.243-.796.343-1.375.343h-.906l-.281 1.469c-.011.05-.052.093-.094.125-.04.032-.08.031-.125.031h-.875c-.05 0-.097 0-.125-.031a.2.2 0 0 1-.031-.125l.906-4.312c.007-.05.051-.094.094-.126.038-.031.079-.03.124-.03"/></svg>