<svg width="385" height="386" viewBox="0 0 385 386" fill="none" xmlns="http://www.w3.org/2000/svg">
<mask id="mask0_724_362" style="mask-type:alpha" maskUnits="userSpaceOnUse" x="104" y="231" width="209" height="107">
<path d="M300.613 258.076L312.098 269.243C295.698 285.936 281.01 299.892 274.836 305.607C255.233 325.414 228.031 337.688 197.961 337.688C158.025 337.687 123.145 316.043 104.411 283.845C121.039 294.029 140.596 299.9 161.524 299.9C173.313 299.899 184.667 298.037 195.308 294.589C207.44 299.264 220.62 301.827 234.4 301.827C249.937 301.827 264.711 298.565 278.08 292.694L278.081 292.692C264.711 298.563 249.936 301.826 234.398 301.826C220.619 301.826 207.437 299.262 195.306 294.587C220.465 286.435 241.636 269.424 255.139 247.234C262.142 242.854 268.608 237.695 274.417 231.881L300.613 258.076Z" fill="white"/>
</mask>
<g mask="url(#mask0_724_362)">
<rect x="-90.5859" y="93.5798" width="8.19122" height="452.633" transform="rotate(-45 -90.5859 93.5798)" fill="#030206"/>
<rect x="-83.1685" y="77.4111" width="3.08473" height="465.011" transform="rotate(-45 -83.1685 77.4111)" fill="#030206"/>
<rect x="-78.2698" y="78.9694" width="12.288" height="455.884" transform="rotate(-45 -78.2698 78.9694)" fill="#030206"/>
<rect x="-65.7715" y="62.0927" width="3.08473" height="462.073" transform="rotate(-45 -65.7715 62.0927)" fill="#030206"/>
<rect x="136.809" y="262.688" width="13.2477" height="170.796" transform="rotate(-45 136.809 262.688)" fill="#030206"/>
<rect x="-38.0295" y="57.1124" width="3.08473" height="429.891" transform="rotate(-45 -38.0295 57.1124)" fill="#030206"/>
<rect x="-47.0842" y="44.2876" width="11.9881" height="460.835" transform="rotate(-45 -47.0842 44.2876)" fill="#030206"/>
<rect x="-33.9246" y="28.4996" width="3.08473" height="464.548" transform="rotate(-45 -33.9246 28.4996)" fill="#030206"/>
<rect x="-21.304" y="38.6327" width="15.3674" height="437.317" transform="rotate(-45 -21.304 38.6327)" fill="#030206"/>
<rect x="0.634644" y="13.9775" width="3.08473" height="436.216" transform="rotate(-45 0.634644 13.9775)" fill="#030206"/>
<rect x="-3.76538" y="-6.77637" width="3.08473" height="471.785" transform="rotate(-45 -3.76538 -6.77637)" fill="#030206"/>
<rect x="3.92688" y="-15.4396" width="3.08473" height="473.153" transform="rotate(-45 3.92688 -15.4396)" fill="#030206"/>
</g>
<mask id="mask1_724_362" style="mask-type:alpha" maskUnits="userSpaceOnUse" x="89" y="46" width="203" height="201">
<path d="M140.826 137.683C131.197 153.91 125.668 172.857 125.668 193.095C125.668 212.68 130.847 231.056 139.908 246.928C119.987 234.32 104.46 215.393 96.1456 192.965C104.432 169.895 120.337 150.456 140.826 137.683ZM197.775 46.9564C237.546 46.9564 272.314 68.3848 291.16 100.327C274.639 90.1978 255.204 84.3588 234.405 84.3588C223.46 84.3588 212.893 85.9754 202.929 88.9838C197.607 86.809 192.075 85.0428 186.373 83.7201C192.074 85.0427 197.604 86.8094 202.925 88.9838C176.643 96.9192 154.56 114.534 140.823 137.683C120.334 150.456 104.43 169.895 96.1437 192.965C91.7956 181.236 89.42 168.548 89.42 155.306C89.4201 132.973 96.177 112.218 107.758 94.974C107.76 94.9728 107.762 94.9712 107.764 94.9701C127.214 66.0118 160.269 46.9565 197.775 46.9564ZM180.695 82.5609C181.342 82.6751 181.986 82.7948 182.629 82.9203C181.986 82.7949 181.342 82.675 180.695 82.5609ZM174.425 81.641C174.862 81.6923 175.298 81.7457 175.734 81.8021C175.298 81.7457 174.862 81.6923 174.425 81.641ZM164.166 80.9193C164.732 80.9327 165.297 80.9511 165.861 80.973C165.297 80.9511 164.732 80.9327 164.166 80.9193Z" fill="white"/>
</mask>
<g mask="url(#mask1_724_362)">
<rect x="-86.9641" y="89.9692" width="3.08473" height="452.633" transform="rotate(-45 -86.9641 89.9692)" fill="#030206"/>
<rect x="-83.1633" y="77.4136" width="3.08473" height="465.011" transform="rotate(-45 -83.1633 77.4136)" fill="#030206"/>
<rect x="-71.7517" y="72.4614" width="3.08473" height="455.884" transform="rotate(-45 -71.7517 72.4614)" fill="#030206"/>
<rect x="-65.7666" y="62.0939" width="3.08473" height="462.073" transform="rotate(-45 -65.7666 62.0939)" fill="#030206"/>
<rect x="-53.2073" y="58.292" width="3.08473" height="449.695" transform="rotate(-45 -53.2073 58.292)" fill="#030206"/>
<rect x="-38.0256" y="57.1124" width="3.08473" height="429.891" transform="rotate(-45 -38.0256 57.1124)" fill="#030206"/>
<rect x="-48.1064" y="45.3164" width="13.4408" height="460.835" transform="rotate(-45 -48.1064 45.3164)" fill="#030206"/>
<rect x="-33.9204" y="28.5009" width="3.08473" height="464.548" transform="rotate(-45 -33.9204 28.5009)" fill="#030206"/>
<rect x="-23.2711" y="35.6035" width="11.8609" height="437.317" transform="rotate(-45 -23.2711 35.6035)" fill="#030206"/>
<rect x="-13.1808" y="16.5173" width="3.08473" height="452.171" transform="rotate(-45 -13.1808 16.5173)" fill="#030206"/>
<rect x="-5.89551" y="20.5045" width="12.3153" height="436.216" transform="rotate(-45 -5.89551 20.5045)" fill="#030206"/>
<rect x="-3.76147" y="-6.77539" width="3.08473" height="471.785" transform="rotate(-45 -3.76147 -6.77539)" fill="#030206"/>
<rect x="-2.70447" y="-8.79346" width="12.4811" height="473.153" transform="rotate(-45 -2.70447 -8.79346)" fill="#030206"/>
<rect x="20.3416" y="-15.3959" width="3.08473" height="346.693" transform="rotate(-45 20.3416 -15.3959)" fill="#030206"/>
<rect x="22.0496" y="-16.1426" width="12.9115" height="317.062" transform="rotate(-45 22.0496 -16.1426)" fill="#030206"/>
<rect x="37.6675" y="-30.7899" width="3.08473" height="447.16" transform="rotate(-45 37.6675 -30.7899)" fill="#030206"/>
<rect x="29.6699" y="-41.1749" width="12.9592" height="473.152" transform="rotate(-45 29.6699 -41.1749)" fill="#030206"/>
<rect x="45.3186" y="-55.8566" width="3.08473" height="471.785" transform="rotate(-45 45.3186 -55.8566)" fill="#030206"/>
<rect x="37.9106" y="-65.8573" width="12.8173" height="496.409" transform="rotate(-45 37.9106 -65.8573)" fill="#030206"/>
<rect x="65.5406" y="-68.3461" width="3.08473" height="460.841" transform="rotate(-45 65.5406 -68.3461)" fill="#030206"/>
<rect x="63.1224" y="-71.7246" width="13.9758" height="469.049" transform="rotate(-45 63.1224 -71.7246)" fill="#030206"/>
<rect x="79.9697" y="-86.6371" width="3.08473" height="466.312" transform="rotate(-45 79.9697 -86.6371)" fill="#030206"/>
<rect x="83.0189" y="-84.8431" width="19.7036" height="459.473" transform="rotate(-45 83.0189 -84.8431)" fill="#030206"/>
<path d="M96.1532 192.968C104.467 215.396 119.993 234.323 139.915 246.932C139.916 246.933 139.917 246.935 139.918 246.936C156.658 257.529 176.501 263.662 197.776 263.662C218.367 263.662 237.616 257.916 254.01 247.943C255.301 247.101 256.658 246.169 258.034 245.196C263.214 241.3 270.956 235.063 274.89 231.845C256.381 250.661 242.115 264.877 237.295 269.633C237.394 269.481 237.496 269.326 237.601 269.166C225.761 280.604 211.351 289.399 195.318 294.595L195.319 294.596C184.679 298.043 173.324 299.906 161.535 299.906C140.607 299.906 121.05 294.035 104.422 283.851C95.1345 267.89 89.8154 249.334 89.8153 229.536C89.8154 216.702 92.0507 204.389 96.1532 192.968ZM107.763 94.9764C96.1817 112.22 89.4248 132.976 89.4247 155.309C89.4247 168.551 91.8005 181.238 96.1483 192.968C92.0459 204.389 89.8105 216.701 89.8104 229.535C89.8104 249.333 95.1306 267.89 104.418 283.851C72.9916 264.604 52.0223 229.949 52.0223 190.397C52.0227 149.459 74.488 113.766 107.763 94.9764Z" fill="#030206"/>
</g>
<path d="M234.399 84.3544C255.198 84.3545 274.633 90.1935 291.154 100.322C291.238 100.464 291.318 100.608 291.401 100.75L291.273 100.358L311.903 116.167L300.142 127.349L300.139 127.339L274.434 153.044C269.656 148.266 264.433 143.933 258.832 140.113C258.831 140.111 258.829 140.109 258.828 140.107C241.49 128.284 220.535 121.37 197.966 121.37C176.989 121.37 157.405 127.342 140.825 137.679C154.562 114.531 176.643 96.9152 202.924 88.9794H202.923C212.886 85.9711 223.454 84.3544 234.399 84.3544Z" fill="#030206"/>
<path d="M192.598 293.501C193.5 293.878 194.408 294.244 195.322 294.596C184.681 298.044 173.327 299.907 161.538 299.907C140.61 299.907 121.053 294.036 104.424 283.852C95.1371 267.89 89.8182 249.334 89.818 229.537C89.818 216.703 92.0534 204.39 96.1559 192.968C104.469 215.395 119.994 234.321 139.914 246.929L140.701 247.422C157.276 257.714 176.833 263.659 197.779 263.659C218.425 263.659 237.722 257.882 254.144 247.86C255.367 247.06 256.647 246.18 257.945 245.263C263.124 241.372 270.934 235.081 274.89 231.844C256.382 250.661 242.114 264.877 237.295 269.632C237.395 269.479 237.499 269.321 237.606 269.159C225.764 280.599 211.353 289.398 195.318 294.593C194.405 294.242 193.499 293.877 192.598 293.501ZM190.076 292.41C190.387 292.549 190.697 292.689 191.009 292.825C190.697 292.689 190.387 292.549 190.076 292.41ZM188.606 291.741C188.937 291.894 189.268 292.047 189.6 292.198C189.268 292.047 188.937 291.894 188.606 291.741ZM187.255 291.1C187.577 291.255 187.899 291.41 188.223 291.562C187.899 291.41 187.577 291.255 187.255 291.1ZM185.916 290.443C186.209 290.589 186.502 290.735 186.797 290.878C186.502 290.735 186.209 290.589 185.916 290.443ZM184.529 289.739C184.825 289.892 185.123 290.044 185.421 290.195C185.123 290.044 184.825 289.892 184.529 289.739ZM183.191 289.036C183.462 289.181 183.734 289.324 184.006 289.466C183.734 289.324 183.462 289.181 183.191 289.036ZM181.784 288.269C182.076 288.431 182.369 288.591 182.663 288.75C182.369 288.591 182.076 288.431 181.784 288.269ZM180.45 287.518C180.753 287.692 181.057 287.863 181.362 288.034C181.057 287.863 180.753 287.692 180.45 287.518ZM179.128 286.749C179.411 286.916 179.696 287.082 179.981 287.248C179.696 287.082 179.411 286.916 179.128 286.749ZM177.852 285.983C178.098 286.133 178.346 286.281 178.593 286.429C178.346 286.281 178.098 286.133 177.852 285.983ZM176.515 285.154C176.73 285.289 176.947 285.422 177.163 285.556C176.947 285.422 176.73 285.289 176.515 285.154ZM172.62 282.582C173.74 283.356 174.876 284.108 176.026 284.841C175.325 284.394 174.628 283.942 173.938 283.479L172.62 282.582ZM107.765 94.9761C96.1844 112.22 89.4274 132.976 89.4274 155.309C89.4275 168.551 91.8031 181.238 96.151 192.967C92.0486 204.389 89.8132 216.701 89.8131 229.535C89.8132 249.332 95.1331 267.889 104.421 283.851C72.9942 264.604 52.0254 229.949 52.025 190.398C52.025 149.459 74.4904 113.766 107.765 94.9761Z" fill="#030206"/>
<path d="M274.726 231.803L240.448 266.081L277.874 303.508L312.152 269.23L274.726 231.803Z" fill="#030206"/>
<path d="M81.6205 264.067L126.03 308.477L96.4236 257.488L81.6205 264.067Z" fill="#030206"/>
<path d="M283.922 89.718L311.884 116.035L298.725 111.1L288.857 102.876L283.922 89.718Z" fill="#030206"/>
</svg>
