<svg width="24" height="24" viewBox="0 0 24 24" fill="none"><path fill="#38ff9c" d="M12 2.566A9.43 9.43 0 0 0 2.566 12 9.43 9.43 0 0 0 12 21.434 9.43 9.43 0 0 0 21.434 12 9.43 9.43 0 0 0 12 2.566m0 17.196A7.76 7.76 0 0 1 4.238 12 7.76 7.76 0 0 1 12 4.238 7.76 7.76 0 0 1 19.762 12 7.76 7.76 0 0 1 12 19.762m0 0"/><path fill="#38ff9c" d="M11.95 6.813c-2.856.027-5.169 2.394-5.137 5.246.007.73.167 1.425.449 2.05a.145.145 0 0 0 .238.043l1.14-1.18a.34.34 0 0 0 .087-.292 3.343 3.343 0 0 1 3.828-3.977c.12.02.242-.02.328-.11l1.137-1.171a.136.136 0 0 0-.043-.219 5.2 5.2 0 0 0-2.028-.39m.101 10.378c2.856-.027 5.169-2.39 5.137-5.246a5.2 5.2 0 0 0-.449-2.05.146.146 0 0 0-.238-.04l-1.14 1.18a.32.32 0 0 0-.087.29q.07.332.07.683a3.343 3.343 0 0 1-3.898 3.297.38.38 0 0 0-.328.105L9.98 16.586a.132.132 0 0 0 .043.219 5.2 5.2 0 0 0 2.028.39Zm-4.902-1.988 2.18-2.176a1.127 1.127 0 0 1 1.602 0 1.13 1.13 0 0 1 0 1.598l-2.18 2.18a1.134 1.134 0 0 1-1.602 0 1.134 1.134 0 0 1 0-1.602m5.875-5.859 2.18-2.18a1.13 1.13 0 0 1 1.598 0c.445.441.445 1.16 0 1.602l-2.176 2.18a1.134 1.134 0 0 1-1.602 0 1.134 1.134 0 0 1 0-1.602m0 0"/></svg>