<svg xmlns="http://www.w3.org/2000/svg" xml:space="preserve" width="24" height="24" viewBox="0 0 24 24" stroke-miterlimit="10"><path d="M9.127 15.372a.66.66 0 0 1-.652-.55L7.428 8.674l-.79-4.643a.66.66 0 1 1 1.298-.224l1.837 10.791a.66.66 0 0 1-.54.763c-.03.01-.07.01-.106.01"/><path d="M12.2 10.394a5.13 5.13 0 0 0-2.84.855l.225 1.308a3.98 3.98 0 0 1 2.621-.982 4 4 0 0 1 3.996 3.995 4 4 0 0 1-3.996 3.996 4 4 0 0 1-3.904-4.851l-.356-2.082a5.16 5.16 0 0 0-.916 2.937 5.18 5.18 0 0 0 5.17 5.171 5.18 5.18 0 0 0 5.172-5.17 5.18 5.18 0 0 0-2.863-4.633 5.1 5.1 0 0 0-2.308-.544"/><path fill-opacity=".6" d="M11.219 17.881a.702.702 0 1 1 1.404 0 .702.702 0 0 1-1.404 0m2.198-.819a.702.702 0 1 1 1.405 0 .702.702 0 0 1-1.405 0m-1.73-1.512a.702.702 0 1 1 1.405 0 .702.702 0 0 1-1.405 0m-2.184.717a.702.702 0 1 1 1.405 0 .702.702 0 0 1-1.405 0m4.367-1.44a.702.702 0 1 1 1.405 0 .702.702 0 0 1-1.405 0m-1.71-1.608a.702.702 0 1 1 1.405 0 .702.702 0 0 1-1.405 0m-2.209.819a.702.702 0 1 1 1.405 0 .702.702 0 0 1-1.405 0"/></svg>