<?xml version="1.0" encoding="UTF-8"?>
<svg xmlns="http://www.w3.org/2000/svg" xmlns:xlink="http://www.w3.org/1999/xlink" width="24px" height="24px" viewBox="0 0 24 24" version="1.1">
<g id="surface1">
<path style=" stroke:none;fill-rule:nonzero;fill:rgb(99.215686%,56.078434%,9.019608%);fill-opacity:1;" d="M 12 3.03125 L 12.269531 3.089844 L 12.960938 3.480469 L 13.679688 3.898438 L 15.238281 4.800781 L 15.960938 5.21875 L 16.800781 5.699219 L 17.519531 6.121094 L 19.078125 7.019531 L 19.53125 7.289062 L 19.738281 7.46875 L 19.800781 7.589844 L 19.800781 16.289062 L 19.679688 16.46875 L 19.5 16.621094 L 18.660156 17.101562 L 17.878906 17.550781 L 17.160156 17.96875 L 15.601562 18.871094 L 14.878906 19.289062 L 14.039062 19.769531 L 13.261719 20.21875 L 12.539062 20.640625 L 12.179688 20.820312 L 12.03125 20.851562 L 11.761719 20.761719 L 11.011719 20.339844 L 10.351562 19.949219 L 7.230469 18.148438 L 6.511719 17.730469 L 4.949219 16.828125 L 4.46875 16.53125 L 4.320312 16.351562 L 4.289062 16.289062 L 4.289062 7.589844 L 4.378906 7.441406 L 4.648438 7.230469 L 5.128906 6.960938 L 5.640625 6.660156 L 8.761719 4.859375 L 9.480469 4.441406 L 11.039062 3.539062 L 11.671875 3.179688 L 11.910156 3.058594 Z M 11.96875 4.921875 L 11.160156 5.398438 L 10.46875 5.789062 L 9.75 6.210938 L 8.96875 6.660156 L 8.128906 7.140625 L 7.558594 7.46875 L 6.78125 7.921875 L 6.058594 8.339844 L 5.941406 8.429688 L 5.941406 15.421875 L 6.089844 15.570312 L 6.691406 15.898438 L 7.199219 16.199219 L 7.980469 16.648438 L 8.820312 17.128906 L 9.328125 17.429688 L 11.671875 18.78125 L 12 18.988281 L 12.121094 18.960938 L 12.898438 18.511719 L 13.621094 18.089844 L 14.460938 17.609375 L 15.179688 17.191406 L 16.019531 16.710938 L 16.738281 16.289062 L 17.519531 15.839844 L 18.058594 15.539062 L 18.148438 15.449219 L 18.148438 8.429688 L 17.910156 8.28125 L 17.191406 7.859375 L 15.628906 6.960938 L 14.910156 6.539062 L 12.570312 5.191406 L 12.179688 4.949219 Z M 11.96875 4.921875 "/>
<path style=" stroke:none;fill-rule:nonzero;fill:rgb(99.215686%,56.078434%,9.019608%);fill-opacity:1;" d="M 16.558594 9.929688 L 16.648438 9.929688 L 16.648438 15.03125 L 15.839844 15.511719 L 15 15.988281 L 14.28125 16.410156 L 13.5 16.859375 L 12.78125 17.28125 L 12.691406 17.28125 L 12.691406 12 L 13.351562 11.640625 L 14.191406 11.191406 L 14.878906 10.828125 L 15.300781 10.589844 L 15.78125 10.351562 Z M 16.558594 9.929688 "/>
<path style=" stroke:none;fill-rule:nonzero;fill:rgb(99.215686%,56.078434%,9.019608%);fill-opacity:1;" d="M 12 6.601562 L 12.300781 6.691406 L 13.019531 7.109375 L 13.710938 7.5 L 14.429688 7.921875 L 15.210938 8.371094 L 16.050781 8.851562 L 16.648438 9.210938 L 16.621094 9.328125 L 15.988281 9.691406 L 15.839844 9.660156 L 13.5 8.308594 L 12.78125 7.890625 L 12.089844 7.5 L 11.941406 7.53125 L 11.191406 7.949219 L 10.679688 8.25 L 9.898438 8.699219 L 9.058594 9.179688 L 8.339844 9.601562 L 8.191406 9.691406 L 8.160156 14.21875 L 8.339844 14.28125 L 9.898438 15.179688 L 10.738281 15.660156 L 11.96875 16.378906 L 12.058594 16.53125 L 12.03125 17.28125 L 11.878906 17.25 L 11.371094 16.949219 L 8.25 15.148438 L 7.589844 14.761719 L 7.441406 14.640625 L 7.378906 14.429688 L 7.378906 9.390625 L 7.46875 9.238281 L 7.710938 9.058594 L 8.429688 8.640625 L 9.988281 7.738281 L 10.710938 7.320312 L 11.488281 6.871094 L 11.910156 6.628906 Z M 12 6.601562 "/>
</g>
</svg>
