<svg width="24" height="24" viewBox="0 0 24 24" fill="none"><path fill="#008ce7" d="M14.323 5.92H8.866l-.452 2.526 4.922.008c2.423 0 3.142.88 3.12 2.34-.011.748-.338 2.014-.476 2.422-.372 1.095-1.14 2.342-4.019 2.338l-4.783-.003-.452 2.528h5.443c1.92 0 2.737-.224 3.6-.622 1.915-.884 3.056-2.776 3.514-5.246.68-3.675-.168-6.29-4.96-6.29"/><path fill="#008ce7" d="M11.864 11.766c.177-.738.233-1.035.233-1.035H6.514c-1.428 0-1.632.93-1.768 1.493-.177.736-.234 1.036-.234 1.036h5.586c1.427 0 1.63-.93 1.767-1.494"/></svg>