<svg width="24" height="24" viewBox="0 0 24 24" fill="none"><path fill="#006ad2" fill-rule="evenodd" d="m8.901 18.75.36-.962-.638.064-.23.607c-.018.046-.033.094-.056.137-.05.094-.128.152-.235.153H6.686c-.011 0-.022-.007-.047-.015l.301-.814c-.55-.015-1.084-.024-1.617-.084.01-.1 3.047-7.759 3.168-7.99q.046-.005.101-.007h2.452q.038 0 .074.002c.248.018.386.229.3.467-.115.315-.236.629-.354.942L9.52 15.355l-.048.143c.043.002.077.007.11.005 2.323-.101 4.027-1.21 5.128-3.292.24-.456.41-.945.502-1.452.055-.296.072-.593-.002-.889a1.32 1.32 0 0 0-.524-.773 1.97 1.97 0 0 0-1.171-.363H5.25c.018-.045.026-.075.04-.102l1.041-1.875a.56.56 0 0 1 .53-.314h4.4l.45-1.192h1.337c.033 0 .066-.003.097.002.096.015.15.09.136.187a.6.6 0 0 1-.036.119l-.279.744c-.016.042-.028.085-.045.135h.604q.023-.048.043-.099l.372-.988c.038-.1.04-.1.139-.1q.635-.002 1.27 0c.178 0 .242.095.178.267q-.152.415-.309.827l-.045.13.109.02a5.8 5.8 0 0 1 1.706.45c.413.187.788.43 1.098.772.418.462.626 1.013.659 1.635a4.5 4.5 0 0 1-.28 1.748c-.473 1.331-1.147 2.541-2.122 3.56a9 9 0 0 1-2.298 1.712c-.918.487-1.888.829-2.893 1.07-.09.023-.137.061-.168.15q-.167.462-.343.92c-.071.187-.143.238-.339.238z" clip-rule="evenodd"/></svg>