<svg width="24" height="24" viewBox="0 0 24 24" fill="none">
<path d="M12.6977 8.18627L11.4759 6.96152C11.3114 6.80418 11.2162 6.58794 11.2111 6.36036C11.2061 6.13279 11.2916 5.91252 11.4489 5.74802C11.6063 5.58352 11.8225 5.48826 12.0501 5.4832C12.2777 5.47813 12.4979 5.56368 12.6624 5.72102L12.6909 5.74952L15.4179 8.47652C15.7532 8.81177 15.7532 9.35402 15.4179 9.68927L12.6879 12.4163C12.526 12.5708 12.31 12.6558 12.0861 12.6532C11.8623 12.6506 11.6483 12.5605 11.49 12.4022C11.3317 12.2439 11.2416 12.03 11.239 11.8061C11.2364 11.5822 11.3214 11.3662 11.4759 11.2043L12.7562 9.92402C11.8936 9.77177 11.0051 9.88837 10.2111 10.258C9.41703 10.6277 8.75581 11.2325 8.31705 11.9906C7.87828 12.7486 7.68317 13.6233 7.75816 14.4959C7.83315 15.3686 8.17461 16.1971 8.73628 16.8692C9.29795 17.5413 10.0527 18.0245 10.8981 18.2532C11.7436 18.482 12.639 18.4453 13.4629 18.1481C14.2868 17.851 14.9995 17.3077 15.5043 16.5919C16.0091 15.8761 16.2816 15.0224 16.2849 14.1465V4.71452C16.2849 4.48716 16.3753 4.26912 16.536 4.10835C16.6968 3.94759 16.9148 3.85727 17.1422 3.85727C17.3696 3.85727 17.5876 3.94759 17.7484 4.10835C17.9091 4.26912 17.9994 4.48716 17.9994 4.71452V14.2613C17.9755 15.4724 17.5855 16.6479 16.8808 17.6332C16.1761 18.6185 15.1897 19.3674 14.0512 19.7814C12.9128 20.1954 11.6757 20.2552 10.5027 19.9527C9.32971 19.6503 8.27571 18.9999 7.47935 18.0871C6.683 17.1743 6.1816 16.0418 6.04111 14.8386C5.90061 13.6354 6.1276 12.4179 6.69222 11.3461C7.25684 10.2744 8.13264 9.39866 9.20442 8.83412C10.2762 8.26958 11.4938 8.04268 12.6969 8.18327L12.6977 8.18627Z" fill="#786DBC"/>
</svg>
