<?xml version="1.0" encoding="UTF-8"?>
<svg xmlns="http://www.w3.org/2000/svg" xmlns:xlink="http://www.w3.org/1999/xlink" width="19pt" height="19pt" viewBox="0 0 19 19" version="1.1">
<defs>
<linearGradient id="dsmlinear0" gradientUnits="userSpaceOnUse" x1="8.03831" y1="108.042" x2="168.871002" y2="70.262703" gradientTransform="matrix(0.111765,0,0,0.111765,0,0)">
<stop offset="0" style="stop-color:rgb(100%,42.352942%,18.039216%);stop-opacity:1;"/>
<stop offset="1" style="stop-color:rgb(95.294118%,44.705883%,35.294119%);stop-opacity:0;"/>
</linearGradient>
<linearGradient id="dsmlinear1" gradientUnits="userSpaceOnUse" x1="136.488998" y1="41.118099" x2="6.95901" y2="139.345001" gradientTransform="matrix(0.111765,0,0,0.111765,0,0)">
<stop offset="0" style="stop-color:rgb(100%,65.490198%,33.725491%);stop-opacity:1;"/>
<stop offset="1" style="stop-color:rgb(97.254902%,46.27451%,36.862746%);stop-opacity:0;"/>
</linearGradient>
</defs>
<g id="surface180082">
<path style=" stroke:none;fill-rule:nonzero;fill:rgb(92.941177%,42.352942%,32.549021%);fill-opacity:1;" d="M 18.90625 9.4375 C 18.90625 14.640625 14.683594 18.863281 9.480469 18.863281 C 4.273438 18.863281 0.0546875 14.640625 0.0546875 9.4375 C 0.0546875 4.230469 4.273438 0.0117188 9.480469 0.0117188 C 14.683594 0.0117188 18.90625 4.230469 18.90625 9.4375 Z M 18.90625 9.4375 "/>
<path style=" stroke:none;fill-rule:nonzero;fill:rgb(95.294118%,44.705883%,35.294119%);fill-opacity:1;" d="M 18.90625 9.4375 C 18.90625 14.640625 14.683594 18.863281 9.480469 18.863281 C 4.273438 18.863281 0.0546875 14.640625 0.0546875 9.4375 C 0.0546875 4.230469 4.273438 0.0117188 9.480469 0.0117188 C 14.683594 0.0117188 18.90625 4.230469 18.90625 9.4375 Z M 18.90625 9.4375 "/>
<path style=" stroke:none;fill-rule:nonzero;fill:url(#dsmlinear0);" d="M 18.90625 9.4375 C 18.90625 14.640625 14.683594 18.863281 9.480469 18.863281 C 4.273438 18.863281 0.0546875 14.640625 0.0546875 9.4375 C 0.0546875 4.230469 4.273438 0.0117188 9.480469 0.0117188 C 14.683594 0.0117188 18.90625 4.230469 18.90625 9.4375 Z M 18.90625 9.4375 "/>
<path style=" stroke:none;fill-rule:nonzero;fill:url(#dsmlinear1);" d="M 18.148438 9.421875 C 18.148438 14.21875 14.261719 18.105469 9.464844 18.105469 C 4.667969 18.105469 0.777344 14.21875 0.777344 9.421875 C 0.777344 4.625 4.667969 0.734375 9.464844 0.734375 C 14.261719 0.734375 18.148438 4.625 18.148438 9.421875 Z M 18.148438 9.421875 "/>
<path style=" stroke:none;fill-rule:evenodd;fill:rgb(100%,100%,100%);fill-opacity:1;" d="M 8.070312 14.730469 C 8.746094 14.730469 9.515625 14.558594 10.300781 14.238281 C 10.324219 14.230469 10.351562 14.21875 10.375 14.207031 C 10.394531 14.199219 10.417969 14.1875 10.441406 14.175781 L 10.449219 14.171875 L 10.453125 14.171875 C 10.78125 14.089844 11.128906 13.976562 11.472656 13.835938 C 13.683594 12.929688 14.617188 11.476562 14.75 10.410156 C 14.914062 9.105469 14.082031 7.855469 13.039062 6.921875 C 12.542969 6.34375 11.929688 5.835938 11.316406 5.445312 C 10.542969 4.949219 9.75 4.609375 9.050781 4.453125 C 8.355469 4.296875 7.746094 4.320312 7.34375 4.566406 C 6.960938 4.800781 6.675781 5.25 6.480469 5.917969 C 6.195312 6.246094 5.984375 6.75 5.84375 7.429688 C 5.699219 8.113281 5.621094 8.988281 5.605469 10.066406 C 5.589844 11.191406 5.667969 12.113281 5.839844 12.824219 C 6.007812 13.535156 6.273438 14.042969 6.640625 14.328125 C 6.976562 14.59375 7.472656 14.730469 8.070312 14.730469 Z M 10.824219 13.179688 C 11.550781 12.882812 12.136719 12.523438 12.609375 12.140625 C 12.148438 12.746094 11.417969 13.351562 10.332031 13.828125 C 10.089844 13.886719 9.855469 13.925781 9.636719 13.949219 C 9.40625 13.972656 9.1875 13.972656 8.988281 13.957031 C 8.59375 13.925781 8.269531 13.820312 8.042969 13.644531 L 8.015625 13.621094 C 8.195312 13.652344 8.386719 13.671875 8.59375 13.671875 C 9.269531 13.671875 10.042969 13.5 10.824219 13.179688 Z M 13.210938 10.765625 C 13.207031 10.8125 13.199219 10.859375 13.191406 10.910156 C 13.179688 10.953125 13.167969 11 13.15625 11.046875 C 12.679688 11.691406 11.886719 12.347656 10.683594 12.84375 C 10.070312 13.09375 9.472656 13.246094 8.945312 13.292969 C 8.425781 13.339844 7.976562 13.285156 7.644531 13.132812 C 7.292969 12.453125 7.121094 11.296875 7.144531 9.667969 C 7.160156 8.640625 7.234375 7.804688 7.367188 7.152344 C 7.496094 6.515625 7.679688 6.058594 7.917969 5.773438 C 8.65625 5.824219 9.628906 6.1875 10.59375 6.804688 C 11.292969 7.253906 11.996094 7.859375 12.5 8.542969 C 13.007812 9.230469 13.308594 9.996094 13.210938 10.765625 Z M 10.792969 6.5 C 9.941406 5.957031 9.066406 5.597656 8.320312 5.464844 C 8.40625 5.433594 8.5 5.40625 8.605469 5.390625 C 8.695312 5.378906 8.792969 5.371094 8.898438 5.371094 C 9.675781 5.371094 10.75 5.757812 11.769531 6.410156 C 12.117188 6.632812 12.464844 6.894531 12.785156 7.183594 C 13.429688 7.9375 13.847656 8.820312 13.738281 9.707031 C 13.714844 9.886719 13.667969 10.078125 13.589844 10.277344 C 13.539062 9.550781 13.203125 8.855469 12.722656 8.234375 C 12.195312 7.546875 11.492188 6.949219 10.792969 6.5 Z M 6.8125 6.09375 C 6.875 6.027344 6.945312 5.972656 7.015625 5.929688 C 7.074219 5.894531 7.140625 5.863281 7.214844 5.839844 C 7.289062 5.816406 7.371094 5.796875 7.460938 5.785156 C 7.25 6.132812 7.089844 6.605469 6.980469 7.207031 C 6.859375 7.867188 6.792969 8.679688 6.777344 9.664062 C 6.761719 10.867188 6.851562 11.835938 7.046875 12.566406 C 6.886719 12.285156 6.757812 11.910156 6.667969 11.4375 C 6.542969 10.796875 6.484375 9.988281 6.5 9.007812 C 6.515625 7.757812 6.621094 6.789062 6.8125 6.09375 Z M 8.253906 4.710938 C 8.808594 4.710938 9.515625 4.910156 10.25 5.261719 C 9.917969 5.152344 9.601562 5.078125 9.308594 5.039062 C 8.777344 4.96875 8.316406 5.023438 7.992188 5.222656 C 7.90625 5.273438 7.832031 5.335938 7.753906 5.410156 C 7.480469 5.40625 7.230469 5.445312 7.019531 5.523438 C 7.167969 5.210938 7.34375 5 7.542969 4.875 C 7.714844 4.769531 7.953125 4.710938 8.253906 4.710938 Z M 7.316406 13.367188 L 7.332031 13.378906 C 7.347656 13.386719 7.363281 13.398438 7.382812 13.40625 C 7.503906 13.621094 7.648438 13.796875 7.816406 13.925781 C 8.0625 14.121094 8.402344 14.246094 8.800781 14.300781 C 8.441406 14.363281 8.109375 14.378906 7.8125 14.355469 C 7.417969 14.324219 7.097656 14.21875 6.871094 14.042969 C 6.566406 13.800781 6.332031 13.351562 6.179688 12.6875 C 6.03125 12.019531 5.960938 11.148438 5.976562 10.066406 C 5.992188 9.011719 6.066406 8.15625 6.207031 7.5 C 6.164062 7.949219 6.140625 8.449219 6.132812 9.003906 C 6.117188 10.128906 6.191406 11.050781 6.363281 11.761719 C 6.535156 12.472656 6.800781 12.980469 7.167969 13.269531 L 7.171875 13.269531 C 7.207031 13.296875 7.242188 13.320312 7.28125 13.34375 Z M 14.101562 9.753906 C 14.144531 9.402344 14.117188 9.054688 14.03125 8.714844 C 14.3125 9.246094 14.453125 9.804688 14.382812 10.367188 C 14.28125 11.15625 13.671875 12.207031 12.277344 13.03125 C 12.945312 12.429688 13.332031 11.78125 13.496094 11.203125 C 13.859375 10.699219 14.046875 10.195312 14.101562 9.753906 Z M 14.101562 9.753906 "/>
</g>
</svg>
