<svg width="24" height="24" viewBox="0 0 24 24" fill="none"><path fill="#121747" d="M13.535 17.159c0 .858-.69 1.555-1.542 1.555a1.55 1.55 0 0 1-1.541-1.556V6.816c0-.859.69-1.555 1.541-1.555a1.55 1.55 0 0 1 1.542 1.556zm-5.19.003a1.55 1.55 0 0 1-.761 1.365 1.52 1.52 0 0 1-1.551 0 1.55 1.55 0 0 1-.76-1.365v-2.325a1.55 1.55 0 0 1 .76-1.365 1.52 1.52 0 0 1 1.55 0 1.55 1.55 0 0 1 .761 1.365z"/><path fill="#121747" d="M18.728 13.056c0 .859-.69 1.556-1.542 1.556a1.55 1.55 0 0 1-1.542-1.557V9.131c0-.86.69-1.557 1.542-1.557s1.542.697 1.542 1.557z" opacity=".5"/></svg>