<svg width="24" height="24" viewBox="0 0 24 24" fill="none"><path fill="#aa15dd" d="M11.999 19.209c.18 0 .326.15.327.333a.33.33 0 0 1-.326.333.33.33 0 0 1-.303-.46.33.33 0 0 1 .303-.206zM5.414 8.519a.338.338 0 0 1 .019-.59.327.327 0 0 1 .463.214.34.34 0 0 1-.118.351.32.32 0 0 1-.364.024m0 6.97a.325.325 0 0 1 .447.122.336.336 0 0 1-.12.455.323.323 0 0 1-.447-.123.336.336 0 0 1 .12-.454m13.17-6.97a.325.325 0 0 1-.447-.123.34.34 0 0 1 .022-.371.325.325 0 0 1 .51-.016.336.336 0 0 1-.085.51M12 4.79a.33.33 0 0 1-.322-.333c0-.135.08-.257.203-.308a.32.32 0 0 1 .358.075.338.338 0 0 1-.055.512.33.33 0 0 1-.184.054m5.85 10.645a.68.68 0 0 0 .166.864l-5.363 3.15a.66.66 0 0 0-.653-.576.66.66 0 0 0-.652.576L5.983 16.3a.678.678 0 0 0-.189-1.161.65.65 0 0 0-.463.01v-6.3a.653.653 0 0 0 .816-.286.68.68 0 0 0-.162-.862l5.363-3.15a.66.66 0 0 0 .652.577.66.66 0 0 0 .653-.578l5.365 3.15a.678.678 0 0 0 .188 1.161.65.65 0 0 0 .463-.011v6.296a.655.655 0 0 0-.819.29m-4.584-.965a2.72 2.72 0 0 1-3.58-.745l3.538-2.073 1.206-.708.572-.338.033-.016 2.43-1.43a.323.323 0 0 0-.073-.586.3.3 0 0 0-.24.035l-1.786 1.054a4.22 4.22 0 0 0-3.02-1.845V5.772a.33.33 0 0 0-.325-.33.327.327 0 0 0-.324.33V7.8a4.1 4.1 0 0 0-1.89.565A4.25 4.25 0 0 0 8.49 9.571L6.853 8.61a.31.31 0 0 0-.428.117.32.32 0 0 0 .115.435l1.625.955a4.3 4.3 0 0 0-.443 2.252l.151.858q.101.349.256.677l-1.59.934a.323.323 0 0 0 .077.585.3.3 0 0 0 .24-.032l1.595-.934a4.24 4.24 0 0 0 3.243 1.837v1.934c0 .182.146.33.325.33a.327.327 0 0 0 .324-.33v-1.95a4 4 0 0 0 1.65-.548 4.16 4.16 0 0 0 1.4-1.366l1.752 1.026c.15.085.34.032.426-.12a.323.323 0 0 0-.111-.434L15.696 13.8c.004-.01.015-.021.015-.033.535-1.233-.898-1.763-1.217-.813a2.78 2.78 0 0 1-1.23 1.516zm5.319 1.018a.337.337 0 0 1 .036.552.32.32 0 0 1-.363.025.336.336 0 0 1 .077-.61.32.32 0 0 1 .25.033M9.213 12.44c-.033-1.25.116-2.122 1.3-2.818a2.715 2.715 0 0 1 3.095.237z"/></svg>