<svg width="24" height="24" viewBox="0 0 24 24" fill="none">
<path fill-rule="evenodd" clip-rule="evenodd" d="M9.17443 7.40977C10.0286 6.8524 10.9649 6.59011 11.9998 6.57372C13.0183 6.57372 13.9546 6.8524 14.8252 7.40977L16.6322 5.60652C15.2195 4.54097 13.6918 4 11.9998 4C10.3079 4 8.76376 4.54097 7.38392 5.60652L9.17443 7.40977ZM16.8128 7.18025C16.7471 7.11468 16.7143 7.04911 16.7143 6.96714C16.7143 6.88518 16.7471 6.8196 16.8128 6.75403C16.9442 6.63928 17.1414 6.63928 17.2728 6.75403C17.3385 6.8196 17.3713 6.88518 17.3713 6.96714C17.3713 7.04911 17.3385 7.11468 17.2728 7.18025C17.2071 7.22943 17.1249 7.26222 17.0428 7.26222C16.9607 7.27861 16.8785 7.24583 16.8128 7.18025ZM16.0079 8.03279C15.9587 7.96722 15.9258 7.90165 15.9258 7.81968C15.9258 7.73772 15.9587 7.67214 16.0079 7.60657C16.1229 7.49182 16.3201 7.49182 16.435 7.60657C16.4843 7.67214 16.5172 7.73772 16.5172 7.81968C16.5172 7.90165 16.4843 7.96722 16.435 8.03279C16.3693 8.08197 16.3036 8.11476 16.2215 8.11476C16.1394 8.11476 16.0737 8.08197 16.0079 8.03279ZM15.0551 8.65562C15.0551 8.73759 15.088 8.81955 15.1373 8.86873C15.1866 8.91791 15.2687 8.9507 15.3508 8.9507C15.433 8.9507 15.4987 8.9343 15.5644 8.86873C15.6137 8.80316 15.6465 8.73759 15.6465 8.65562C15.6465 8.57365 15.6137 8.49169 15.5644 8.44251C15.4494 8.32776 15.2523 8.32776 15.1373 8.44251C15.088 8.50808 15.0551 8.57365 15.0551 8.65562ZM14.2996 9.70467C14.2339 9.65549 14.201 9.57352 14.201 9.49156C14.201 9.40959 14.2339 9.34402 14.2996 9.27845C14.431 9.16369 14.6281 9.16369 14.7595 9.27845C14.8252 9.32763 14.8581 9.40959 14.8581 9.49156C14.8581 9.57352 14.8252 9.65549 14.7595 9.70467C14.6938 9.77024 14.6117 9.78663 14.5295 9.78663C14.4474 9.78663 14.3653 9.77024 14.2996 9.70467ZM13.4125 10.3275C13.4125 10.4095 13.4289 10.4914 13.4946 10.5406C13.5439 10.6062 13.626 10.639 13.7082 10.6226C13.7903 10.6226 13.8724 10.6062 13.9217 10.5406C13.971 10.4914 14.0038 10.4095 14.0038 10.3275C14.0038 10.2455 13.9874 10.1636 13.9217 10.1144C13.8067 9.99963 13.6096 9.99963 13.4946 10.1144C13.4453 10.18 13.4125 10.2455 13.4125 10.3275ZM12.5254 11.1639C12.5254 11.082 12.5583 11.0164 12.6076 10.9508C12.7226 10.8361 12.9197 10.8361 13.0347 10.9508C13.1004 11.0164 13.1168 11.082 13.1168 11.1639C13.1168 11.2459 13.084 11.3115 13.0347 11.377C12.9854 11.4262 12.9033 11.459 12.8211 11.459C12.739 11.459 12.6733 11.4262 12.6076 11.377C12.5583 11.3279 12.5254 11.2459 12.5254 11.1639ZM10.8828 12.8031C10.8828 12.885 10.9156 12.967 10.9649 13.0162C11.0306 13.0818 11.0963 13.1145 11.1785 13.0982C11.2606 13.0982 11.3427 13.0818 11.392 13.0162C11.4413 12.9506 11.4741 12.885 11.4741 12.8031C11.4741 12.7211 11.4577 12.6555 11.392 12.59C11.277 12.4752 11.0799 12.4752 10.9649 12.59C10.9156 12.6555 10.8828 12.7211 10.8828 12.8031ZM10.0943 13.8521C10.0286 13.8029 9.99575 13.721 9.99575 13.639C9.99575 13.5571 10.0286 13.4915 10.0943 13.4259C10.2257 13.3112 10.4228 13.3112 10.5543 13.4259C10.62 13.4915 10.6528 13.5571 10.6528 13.639C10.6528 13.721 10.62 13.7866 10.5543 13.8521C10.4886 13.9177 10.4064 13.9341 10.3243 13.9341C10.2422 13.9505 10.16 13.9177 10.0943 13.8521ZM9.2073 14.4916C9.2073 14.5735 9.24016 14.6555 9.28944 14.7047C9.35514 14.7538 9.42085 14.7866 9.50298 14.7866C9.58512 14.7866 9.65082 14.7702 9.71653 14.7047C9.76581 14.6391 9.79866 14.5735 9.79866 14.4916C9.79866 14.4096 9.76581 14.3276 9.71653 14.2784C9.60154 14.1637 9.40442 14.1637 9.28944 14.2784C9.24016 14.3276 9.2073 14.4096 9.2073 14.4916ZM8.45166 15.5406C8.38595 15.4914 8.36952 15.4095 8.36952 15.3275C8.36952 15.2455 8.40238 15.18 8.45166 15.1144C8.56664 14.9996 8.76376 14.9996 8.87875 15.1144C8.92803 15.18 8.96088 15.2455 8.96088 15.3275C8.96088 15.4095 8.92803 15.4914 8.87875 15.5406C8.81304 15.6062 8.74734 15.6226 8.6652 15.6226C8.58307 15.6226 8.50094 15.6062 8.45166 15.5406ZM7.4825 16.1639C7.4825 16.2459 7.51535 16.3279 7.58106 16.377C7.63034 16.4426 7.71247 16.459 7.7946 16.459C7.87674 16.459 7.95887 16.4262 8.02458 16.377C8.09028 16.3279 8.12314 16.2459 8.12314 16.1639C8.12314 16.082 8.09028 16.0164 8.02458 15.9508C7.90959 15.8361 7.71247 15.8361 7.58106 15.9508C7.51535 16.0164 7.4825 16.082 7.4825 16.1639ZM6.75966 17.213C6.69395 17.1474 6.67752 17.0818 6.67752 16.9999C6.67752 16.9179 6.71038 16.8523 6.75966 16.7867C6.87464 16.672 7.07176 16.672 7.18675 16.7867C7.25246 16.8523 7.26888 16.9179 7.26888 16.9999C7.26888 17.0818 7.23603 17.1474 7.18675 17.213C7.13747 17.2621 7.05534 17.2949 6.9732 17.2949C6.9075 17.3113 6.82536 17.2785 6.75966 17.213ZM7.26888 6.96714C7.26888 7.04911 7.23603 7.11468 7.18675 7.18025C7.13747 7.24583 7.05534 7.27861 6.9732 7.26222C6.89107 7.26222 6.80894 7.22943 6.75966 7.18025C6.71038 7.11468 6.67752 7.04911 6.67752 6.96714C6.67752 6.88518 6.69395 6.8196 6.75966 6.75403C6.87464 6.63928 7.07176 6.63928 7.18675 6.75403C7.23603 6.8196 7.26888 6.88518 7.26888 6.96714ZM8.02456 8.03279C8.09027 7.96722 8.12312 7.90165 8.12312 7.81968C8.12312 7.73772 8.09027 7.67214 8.02456 7.60657C7.89315 7.49182 7.69603 7.49182 7.56461 7.60657C7.49891 7.67214 7.46605 7.73772 7.46605 7.81968C7.46605 7.90165 7.49891 7.96722 7.56461 8.03279C7.63032 8.08197 7.71245 8.11476 7.79459 8.11476C7.87672 8.11476 7.95885 8.08197 8.02456 8.03279ZM8.96088 8.65562C8.96088 8.73759 8.92803 8.81955 8.87875 8.86873C8.81304 8.91791 8.73091 8.9507 8.6652 8.9507C8.58307 8.9507 8.51736 8.9343 8.45166 8.86873C8.40238 8.80316 8.36952 8.73759 8.36952 8.65562C8.36952 8.57365 8.40238 8.49169 8.45166 8.44251C8.56664 8.32776 8.76376 8.32776 8.87875 8.44251C8.92803 8.50808 8.96088 8.57365 8.96088 8.65562ZM9.71653 9.70467C9.76581 9.65549 9.79866 9.57352 9.79866 9.49156C9.79866 9.40959 9.76581 9.34402 9.71653 9.27845C9.60154 9.16369 9.40442 9.16369 9.28944 9.27845C9.24016 9.32763 9.2073 9.40959 9.2073 9.49156C9.2073 9.57352 9.24016 9.65549 9.28944 9.70467C9.35514 9.77024 9.42085 9.78663 9.50298 9.78663C9.56869 9.78663 9.65082 9.77024 9.71653 9.70467ZM10.6364 10.3275C10.6364 10.4095 10.6035 10.4914 10.5378 10.5406C10.4886 10.6062 10.4064 10.639 10.3243 10.6226C10.2422 10.6226 10.16 10.6062 10.0943 10.5406C10.0286 10.4914 9.99575 10.4095 9.99575 10.3275C9.99575 10.2455 10.0286 10.1636 10.0943 10.1144C10.2093 9.99963 10.4228 9.99963 10.5378 10.1144C10.6035 10.18 10.6364 10.2455 10.6364 10.3275ZM11.4741 11.1639C11.4741 11.082 11.4413 11.0164 11.392 10.9508C11.277 10.8361 11.0799 10.8361 10.9649 10.9508C10.8992 11.0164 10.8828 11.082 10.8828 11.1639C10.8828 11.2459 10.9156 11.3115 10.9649 11.377C11.0142 11.4262 11.0963 11.459 11.1785 11.459C11.2606 11.459 11.3263 11.4262 11.392 11.377C11.4577 11.3279 11.4741 11.2459 11.4741 11.1639ZM12.3119 12.0165C12.3119 12.0984 12.2955 12.164 12.2298 12.2296C12.1805 12.2787 12.0984 12.3115 12.0162 12.3115C11.9341 12.3115 11.852 12.2787 11.8027 12.2296C11.7534 12.164 11.7206 12.0984 11.7206 12.0165C11.7206 11.9345 11.737 11.8689 11.8027 11.8033C11.9177 11.6886 12.1148 11.6886 12.2298 11.8033C12.2791 11.8689 12.3119 11.9345 12.3119 12.0165ZM13.0675 13.0162C13.1332 12.967 13.1661 12.885 13.1661 12.8031C13.1661 12.7211 13.1332 12.6555 13.0675 12.59C12.9361 12.4752 12.739 12.4752 12.624 12.59C12.5583 12.6555 12.5254 12.7211 12.5254 12.8031C12.5254 12.885 12.5583 12.9506 12.624 13.0162C12.6897 13.0818 12.7719 13.0982 12.854 13.0982C12.9197 13.1145 13.0018 13.0818 13.0675 13.0162ZM14.0038 13.639C14.0038 13.721 13.971 13.8029 13.9217 13.8521C13.856 13.9177 13.7739 13.9505 13.7082 13.9341C13.626 13.9341 13.5603 13.9177 13.4946 13.8521C13.4453 13.7866 13.4125 13.721 13.4125 13.639C13.4125 13.5571 13.4453 13.4915 13.4946 13.4259C13.6096 13.3112 13.8067 13.3112 13.9217 13.4259C13.971 13.4915 14.0038 13.5571 14.0038 13.639ZM14.7595 14.7047C14.8088 14.6555 14.8416 14.5735 14.8416 14.4916C14.8416 14.4096 14.8088 14.3276 14.7595 14.2784C14.6445 14.1637 14.4474 14.1637 14.3324 14.2784C14.2831 14.3276 14.2503 14.4096 14.2503 14.4916C14.2503 14.5735 14.2831 14.6391 14.3324 14.7047C14.3981 14.7702 14.4638 14.7866 14.5459 14.7866C14.6281 14.7866 14.6938 14.7538 14.7595 14.7047ZM15.6301 15.3275C15.6301 15.4095 15.6137 15.4914 15.548 15.5406C15.4987 15.6062 15.4166 15.6226 15.3345 15.6226C15.2523 15.6226 15.1866 15.6062 15.1209 15.5406C15.0716 15.4914 15.0388 15.4095 15.0388 15.3275C15.0388 15.2455 15.0716 15.18 15.1209 15.1144C15.2359 14.9996 15.433 14.9996 15.548 15.1144C15.5973 15.18 15.6301 15.2455 15.6301 15.3275ZM16.435 16.377C16.5007 16.3279 16.5172 16.2459 16.5172 16.1639C16.5172 16.082 16.4843 16.0164 16.435 15.9508C16.3201 15.8361 16.1229 15.8361 16.0079 15.9508C15.9422 16.0164 15.9258 16.082 15.9258 16.1639C15.9258 16.2459 15.9587 16.3279 16.0079 16.377C16.0572 16.4262 16.1394 16.459 16.2215 16.459C16.3036 16.459 16.3858 16.4426 16.435 16.377ZM17.3713 16.9999C17.3713 17.0818 17.3385 17.1474 17.2728 17.213C17.2071 17.2785 17.1249 17.3113 17.0592 17.2949C16.9771 17.2949 16.895 17.2621 16.8293 17.213C16.7636 17.1474 16.7307 17.0818 16.7307 16.9999C16.7307 16.9179 16.7636 16.8523 16.8293 16.7867C16.9443 16.672 17.1414 16.672 17.2728 16.7867C17.3385 16.8523 17.3713 16.9179 17.3713 16.9999ZM6.51329 11.9998C6.51329 12.9998 6.79254 13.9342 7.36748 14.803L5.59339 16.6227C4.52565 15.2292 4 13.6883 4 12.0162C4 10.3113 4.52565 8.78675 5.57696 7.40973L7.36748 9.19658C6.79254 10.049 6.51329 10.9834 6.51329 11.9998ZM14.8252 16.5898C13.971 17.1636 13.0347 17.4587 12.0162 17.4751C10.9814 17.4751 10.0286 17.1964 9.17442 16.6062L7.36748 18.3931C8.76375 19.475 10.3079 20.016 12.0162 19.9996C13.7082 19.9832 15.2359 19.4422 16.6157 18.3931L14.8252 16.5898ZM17.4371 12.0324C17.4535 10.9996 17.1578 10.0488 16.5829 9.17999L18.3898 7.36035C19.474 8.75377 20.0161 10.2947 19.9996 11.9996C19.9996 13.6717 19.4576 15.1963 18.3898 16.5733L16.5829 14.7864C17.1414 13.9504 17.4206 13.0324 17.4371 12.0324ZM18.4719 17.1475C19.1618 17.1475 19.7368 17.7048 19.7368 18.4097C19.7368 19.0982 19.1783 19.672 18.4719 19.672C17.782 19.672 17.2071 19.1146 17.2071 18.4097C17.2071 17.7048 17.7656 17.1475 18.4719 17.1475ZM6.80895 18.4097C6.80895 17.7048 6.25044 17.1475 5.56052 17.1475C4.8706 17.1475 4.31209 17.7048 4.31209 18.4097C4.31209 19.1146 4.8706 19.672 5.56052 19.672C6.25044 19.672 6.80895 19.0982 6.80895 18.4097ZM18.4884 4.27881C19.1783 4.27881 19.7368 4.83617 19.7368 5.54108C19.7368 6.24598 19.1783 6.80335 18.4884 6.80335C17.7985 6.80335 17.24 6.24598 17.24 5.54108C17.24 4.83617 17.7985 4.27881 18.4884 4.27881ZM6.809 5.52468C6.809 4.83617 6.23407 4.27881 5.54414 4.27881C4.83779 4.27881 4.27929 4.83617 4.27929 5.52468C4.27929 6.2132 4.85422 6.77056 5.54414 6.77056C6.25049 6.77056 6.809 6.2132 6.809 5.52468Z" fill="black"/>
</svg>
