<svg width="24" height="24" viewBox="0 0 24 24" fill="none"><path fill="#fff" fill-opacity=".4" d="M8.25 16.59 12 14.473V18.7zm0-6.75L12 7.723v4.227z"/><path fill="#fff" fill-opacity=".7" d="m19.5 14.423-3.75 2.164v-4.264zm0-6.75-3.75 2.164V5.572z"/><path fill="#fff" fill-opacity=".8" d="M8.25 16.587v-4.262L12 14.477zm0-6.75V5.575L12 7.727z"/><path fill="#fff" d="M15.75 16.587 12 14.478l3.75-2.155zm0-6.75L12 7.728l3.75-2.156z"/><path fill="#fff" fill-opacity=".6" d="M15.75 16.587 12 18.701v-4.223zm0-6.75L12 11.951V7.728z"/><path fill="#fff" fill-opacity=".5" d="M8.25 12.326v4.262L4.5 14.424zm0-6.75v4.262L4.5 7.674z"/><path fill="#3fbadf" fill-opacity=".4" d="M8.25 16.453 12 14.338v4.226zm0-6.75L12 7.588v4.226z"/><path fill="#3fbadf" fill-opacity=".7" d="m19.5 14.286-3.75 2.165v-4.265zm0-6.75-3.75 2.165V5.436z"/><path fill="#3fbadf" d="M8.25 16.45v-4.262L12 14.341zm0-6.75V5.439L12 7.591zm7.5 6.75L12 14.343l3.75-2.156zm0-6.75L12 7.592l3.75-2.156z"/><path fill="#3fbadf" fill-opacity=".6" d="M15.75 16.45 12 18.565v-4.222zm0-6.75L12 11.815V7.592z"/><path fill="#3fbadf" fill-opacity=".5" d="M8.25 12.189v4.262L4.5 14.287zm0-6.75v4.262L4.5 7.538z"/></svg>