<svg width="24" height="24" viewBox="0 0 24 24" fill="none"><path fill="#2f2f2f" fill-rule="evenodd" d="M18.862 7.721c.085.045.281.152.262.383l-.012 7.813a.36.36 0 0 1-.212.354l-1.725 1.008-1.365.796-3.633 2.121a.26.26 0 0 1-.16.054.4.4 0 0 1-.205-.066l-2.507-1.446c-1.392-.803-2.832-1.634-4.25-2.45-.12-.058-.19-.192-.18-.345l.006-2.064c.005-1.857.008-3.743.009-5.567v-.069c-.002-.101-.007-.309.188-.403a900 900 0 0 1 2.395-1.423l1.303-.772 2.977-1.767.008-.004q.096-.055.2-.094l.076-.03.072.043c.71.41 1.431.83 2.128 1.237l1.302.758 1.272.74 2 1.163h.001l.002.002zm-6.577 11.753 2.222-1.298 4.04-2.357.007-4.387.004-2.899-2.887 1.69v1.332q-.006 1.246.004 2.493v.057l-.034.047a.4.4 0 0 1-.138.12l-.02.012-.933.543c-.338.196-.686.398-1.027.598l-1.233.716zm-3.147-9.417q.946.545 1.893 1.086l.978.561 2.833-1.655-2.838-1.674zm-.292.488.053 3.292 2.826 1.646.004-3.284zM5.456 8.6l-.015 7.256 6.28 3.622.003-3.338-1.23-.716-.771-.45-1.205-.701a.34.34 0 0 1-.181-.335l-.06-3.72zm12.82-.56-1.102-.642-1.216-.709c-1.158-.672-2.531-1.47-3.948-2.3a2469 2469 0 0 0-4.302 2.548l-1.97 1.168L8.572 9.73l3.25-1.909a.34.34 0 0 1 .375.008l3.207 1.89zm-5.986 7.445q1.42-.828 2.844-1.653v-3.295l-2.842 1.661zm3.845-.594a.3.3 0 0 1-.087.012.3.3 0 0 1-.215-.088.35.35 0 0 1-.108-.33.34.34 0 0 1 .327-.282c.092 0 .182.042.247.115v.001a.35.35 0 0 1 .06.378.32.32 0 0 1-.224.194m1.548 1.056a.34.34 0 0 1-.13-.291.35.35 0 0 1 .167-.286.3.3 0 0 1 .165-.049q.099 0 .183.058a.35.35 0 0 1 .152.343.34.34 0 0 1-.337.3.3.3 0 0 1-.2-.075m-9.892-1.74a.32.32 0 0 1 .245.116.35.35 0 0 1 .058.372.33.33 0 0 1-.312.206.34.34 0 0 1-.32-.417.344.344 0 0 1 .329-.277m8.967 1.181a.35.35 0 0 1-.12-.332.345.345 0 0 1 .328-.292.33.33 0 0 1 .225.091.34.34 0 0 1 .103.337.33.33 0 0 1-.211.249.32.32 0 0 1-.325-.053m-9.679-.542c.1.083.147.214.121.335a.33.33 0 0 1-.19.251h-.001a.32.32 0 0 1-.309-.017.35.35 0 0 1-.163-.334.34.34 0 0 1 .217-.293.3.3 0 0 1 .116-.024c.075 0 .148.028.21.082m4.883-10.22a.34.34 0 0 1 .255.115c.08.085.11.202.08.315a.33.33 0 0 1-.274.253h-.004a.346.346 0 0 1-.41-.314.34.34 0 0 1 .033-.169v-.001a.34.34 0 0 1 .264-.195.3.3 0 0 1 .056-.005m-5.85 10.741a.34.34 0 0 1 .175.293.34.34 0 0 1-.159.306.34.34 0 0 1-.183.056.3.3 0 0 1-.153-.041.34.34 0 0 1-.177-.306.35.35 0 0 1 .174-.308.31.31 0 0 1 .324 0m6.03-8.463a.34.34 0 0 1 .162.315.33.33 0 0 1-.204.284.4.4 0 0 1-.15.033.34.34 0 0 1-.212-.072.33.33 0 0 1-.134-.3.33.33 0 0 1 .175-.272.34.34 0 0 1 .17-.045c.068 0 .136.02.194.057m-.427-.569a.33.33 0 0 1-.111-.28v-.002a.35.35 0 0 1 .164-.264.33.33 0 0 1 .183-.055q.091 0 .175.045a.34.34 0 0 1 .178.307.34.34 0 0 1-.207.308.4.4 0 0 1-.15.033.33.33 0 0 1-.232-.092" clip-rule="evenodd"/><path fill="#2f2f2f" fill-rule="evenodd" d="M18.862 7.721c.085.045.28.152.262.383l-.012 7.813a.36.36 0 0 1-.212.354l-1.725 1.008-1.365.796-3.633 2.121a.26.26 0 0 1-.16.054.4.4 0 0 1-.205-.066l-2.507-1.446c-1.392-.803-2.832-1.634-4.25-2.45-.12-.058-.19-.192-.18-.345l.006-2.064.009-5.567v-.069c-.002-.101-.007-.309.188-.403a900 900 0 0 1 2.395-1.423l1.303-.772 2.977-1.767.008-.004q.096-.055.2-.094l.076-.03.072.043c.71.41 1.431.83 2.128 1.237l1.302.758 1.271.74 2 1.163h.002l.002.002zm-6.577 11.753 2.221-1.298q2.02-1.177 4.04-2.357l.008-4.387.004-2.899-2.888 1.69v1.332q-.004 1.246.005 2.493v.057l-.034.047a.4.4 0 0 1-.138.12l-.02.012-.933.543-1.028.598-1.233.716zm-3.147-9.417q.945.545 1.893 1.086l.978.561 2.833-1.655-2.838-1.674zm-.293.488.054 3.292 2.826 1.646.004-3.284zM5.455 8.6l-.014 7.256 6.28 3.622.003-3.338-1.23-.716-.771-.45-1.205-.701a.34.34 0 0 1-.181-.335l-.06-3.72zm12.82-.56-1.1-.642-1.217-.709c-1.158-.672-2.532-1.47-3.948-2.3Q9.857 5.663 7.708 6.938l-1.97 1.168L8.572 9.73l3.25-1.909a.34.34 0 0 1 .375.008l3.207 1.89zm-5.986 7.445 2.844-1.653v-3.295l-2.841 1.661zm3.846-.594a.3.3 0 0 1-.087.012.3.3 0 0 1-.215-.088.35.35 0 0 1-.109-.33.336.336 0 0 1 .327-.282c.093 0 .183.042.248.115v.001a.35.35 0 0 1 .06.378.32.32 0 0 1-.224.194m1.548 1.056a.34.34 0 0 1-.13-.291.35.35 0 0 1 .167-.286.3.3 0 0 1 .165-.049q.099 0 .183.058a.35.35 0 0 1 .152.343.34.34 0 0 1-.337.3.3.3 0 0 1-.2-.075m-9.892-1.74a.32.32 0 0 1 .245.116.35.35 0 0 1 .058.372.33.33 0 0 1-.312.206.34.34 0 0 1-.321-.417.344.344 0 0 1 .33-.277m8.967 1.181a.35.35 0 0 1-.12-.332.345.345 0 0 1 .328-.292.33.33 0 0 1 .225.091.34.34 0 0 1 .103.337.33.33 0 0 1-.211.249.32.32 0 0 1-.325-.053m-9.679-.542c.1.083.146.214.12.335a.33.33 0 0 1-.19.251.32.32 0 0 1-.309-.017.35.35 0 0 1-.163-.334.34.34 0 0 1 .217-.293.3.3 0 0 1 .116-.024c.075 0 .148.028.21.082m4.883-10.22a.34.34 0 0 1 .255.115c.08.085.11.202.08.315a.33.33 0 0 1-.275.253h-.003a.346.346 0 0 1-.411-.314.34.34 0 0 1 .033-.169l.001-.001a.34.34 0 0 1 .264-.195.3.3 0 0 1 .056-.005m-5.85 10.741a.34.34 0 0 1 .174.293.34.34 0 0 1-.158.306.34.34 0 0 1-.183.056.3.3 0 0 1-.153-.041.34.34 0 0 1-.177-.306.35.35 0 0 1 .173-.308.31.31 0 0 1 .324 0m6.03-8.463a.34.34 0 0 1 .162.315.33.33 0 0 1-.204.284.4.4 0 0 1-.15.033.34.34 0 0 1-.213-.072.33.33 0 0 1-.133-.3.33.33 0 0 1 .175-.272.34.34 0 0 1 .17-.045c.068 0 .136.02.194.057m-.427-.569a.33.33 0 0 1-.111-.28v-.002a.35.35 0 0 1 .164-.264.33.33 0 0 1 .183-.055q.091 0 .175.045a.34.34 0 0 1 .178.307.34.34 0 0 1-.207.308.4.4 0 0 1-.15.033.33.33 0 0 1-.232-.092" clip-rule="evenodd"/></svg>