<svg width="24" height="24" viewBox="0 0 24 24" fill="none"><path fill="#000" fill-rule="evenodd" d="M12 3.039a.32.32 0 0 1 .26.13l3.836 5.24a.3.3 0 0 1 .054.12l1.856 8.478a.32.32 0 0 1-.143.34l-5.69 3.565a.3.3 0 0 1-.173.05.3.3 0 0 1-.172-.05l-5.692-3.565a.32.32 0 0 1-.142-.34L7.849 8.53a.3.3 0 0 1 .055-.12l3.835-5.24A.32.32 0 0 1 12 3.039m-.323 1.299-3.16 4.318.788 2.479 2.372-4.186zM12 7.678l-2.43 4.288 1.526 4.79h1.808l1.526-4.791zm2.86 5.046-1.284 4.032h3.568zm1.72 4.672h-3.208l-.8 2.51zM12 19.595l.7-2.2h-1.4zm-1.576-2.84-1.284-4.03-2.284 4.03zm-3.353-1.678 1.804-3.184-.656-2.06zm.349 2.319h3.208l.8 2.51zm9.508-2.32-1.804-3.183.656-2.06zm-1.445-6.42-.789 2.478-2.371-4.185V4.338z" clip-rule="evenodd"/></svg>