<svg width="24" height="24" viewBox="0 0 24 24" fill="none"><path fill="#c9a35e" d="M7.52 15.32a.28.28 0 0 1-.25.158H4.215a.28.28 0 0 1-.236-.137.28.28 0 0 1-.008-.279l5.553-10.01c.1-.179.387-.179.487 0l4.329 7.784a.3.3 0 0 1-.008.28.26.26 0 0 1-.236.135H12.83a.29.29 0 0 1-.243-.143L9.774 7.993 6.627 13.81H7.83a.29.29 0 0 1 .236.128.28.28 0 0 1 .014.272l-.558 1.109zm12.506-.258a.26.26 0 0 1-.008.28.26.26 0 0 1-.235.135h-8.335a.28.28 0 0 1-.279-.279V14.09a.28.28 0 0 1 .28-.279h5.93l-3.14-5.796-.595 1.187c-.1.186-.407.186-.5 0l-.558-1.108a.3.3 0 0 1 0-.25l1.387-2.783a.3.3 0 0 1 .243-.15.29.29 0 0 1 .251.142zm-3.613 1.109 1.38 2.504a.28.28 0 0 1 0 .279.26.26 0 0 1-.235.136H6.44a.28.28 0 0 1-.243-.143.28.28 0 0 1 .007-.28l2.225-3.612 2.217-3.885a.27.27 0 0 1 .251-.143.26.26 0 0 1 .244.15l.558 1.11a.27.27 0 0 1-.008.264l-2.818 4.865h6.253l-.58-.966a.26.26 0 0 1-.008-.28.28.28 0 0 1 .244-.142h1.387c.101 0 .194.057.244.143"/></svg>