<svg xmlns="http://www.w3.org/2000/svg" width="24" height="24" viewBox="0 0 24 24" fill="none"><path fill="#3a4aff" fill-rule="evenodd" d="M12 21a9 9 0 1 1 0-18 9 9 0 0 1 0 18M7.14 9.038c0 .529 2.174.957 4.856.957s4.856-.428 4.856-.957-2.174-.957-4.856-.957-4.856.429-4.856.957m4.856 3.873c-2.682 0-4.856-.428-4.856-.957s2.174-.957 4.856-.957 4.856.429 4.856.957c0 .529-2.174.957-4.856.957M7.14 14.963c0 .529 2.174.957 4.856.957s4.856-.428 4.856-.957-2.174-.957-4.856-.957-4.856.429-4.856.957" clip-rule="evenodd"/></svg>