<svg width="24" height="24" viewBox="0 0 24 24" fill="none"><path fill="#0b8311" d="M12 12.432 6.96 12 12 9.148zm0 3.345v5.205c-1.752-2.728-3.684-5.731-5.241-8.162 1.837 1.035 3.756 2.117 5.241 2.958m0-7.55L6.76 11.15 12 3.018zM17.041 12l-5.04.432V9.148zm-5.04 3.778c1.485-.84 3.402-1.923 5.24-2.958-1.556 2.432-3.488 5.435-5.24 8.162zm0-7.552V3.018l5.24 8.133z"/><path fill="#0b8311" fill-rule="evenodd" d="M12 12.432 17.04 12 12 14.83z" clip-rule="evenodd" opacity=".2"/><path fill="#0b8311" fill-rule="evenodd" d="M12 12.432 6.959 12l5.04 2.83z" clip-rule="evenodd" opacity=".603"/></svg>