<svg width="24" height="24" viewBox="0 0 24 24" fill="none"><path fill="#00ffba" d="M8.154 8.178a1.28 1.28 0 0 0-.146 1.61 1.27 1.27 0 0 0 1.065.568 1.641 1.641 0 1 1 0 3.283 4.564 4.564 0 0 1-3.208-7.814A4.563 4.563 0 0 1 12 5.57a4.56 4.56 0 0 0-1.637 3.504 1.64 1.64 0 0 0 1.631 1.642 1.64 1.64 0 0 1-1.64-1.642 1.27 1.27 0 0 0-.218-.716 1.3 1.3 0 0 0-.566-.466 1.3 1.3 0 0 0-.997 0q-.239.1-.42.287m10.98 4.97a4.57 4.57 0 0 1-3.267 6.248 4.564 4.564 0 0 1-5.502-4.47 1.641 1.641 0 1 1 3.281 0 1.27 1.27 0 0 0 .784 1.183 1.3 1.3 0 0 0 1.005-.004 1.3 1.3 0 0 0 .68-.688 1.29 1.29 0 0 0-.688-1.673 1.3 1.3 0 0 0-.498-.1 1.641 1.641 0 0 1 0-3.283 4.56 4.56 0 0 1 4.204 2.788"/><path fill="#00ffba" d="M11.996 13.286c.906 0 1.641.735 1.641 1.64a4.563 4.563 0 0 1-9.053.83 4.565 4.565 0 0 1 4.489-5.395 1.64 1.64 0 1 1 0 3.283c-.255 0-.504.075-.716.218a1.283 1.283 0 0 0-.207 1.955v.001a1.28 1.28 0 0 0 2.055-.288c.1-.186.15-.394.15-.604 0-.905.735-1.64 1.641-1.64m6.995-6.297a4.567 4.567 0 0 1-4.063 6.65 1.642 1.642 0 1 1 0-3.283 1.282 1.282 0 0 0 .803-2.285 1.28 1.28 0 0 0-1.518-.062 1.27 1.27 0 0 0-.567 1.065 1.641 1.641 0 1 1-3.282 0 4.565 4.565 0 0 1 7.288-3.665l.003.002a4.6 4.6 0 0 1 1.335 1.578" opacity=".7"/></svg>