<svg width="24" height="24" viewBox="0 0 24 24" fill="none">
<path d="M8.15375 8.17787C7.9478 8.38864 7.82086 8.66399 7.79435 8.95748C7.76784 9.25097 7.8434 9.54462 8.00825 9.78887C8.12482 9.9643 8.28319 10.108 8.46911 10.2069C8.65502 10.3059 8.86264 10.3571 9.07326 10.3559C9.50857 10.356 9.92603 10.529 10.2338 10.8369C10.5415 11.1448 10.7144 11.5623 10.7143 11.9976C10.7142 12.4329 10.5411 12.8504 10.2332 13.1581C9.92535 13.4659 9.50782 13.6387 9.0725 13.6386C8.167 13.639 7.28185 13.37 6.52965 12.8659C5.77744 12.3617 5.19217 11.6453 4.84828 10.8076C4.50438 9.96997 4.41741 9.04895 4.59841 8.16172C4.77941 7.27448 5.22022 6.46114 5.86475 5.82512C6.67216 5.02649 7.74836 4.55764 8.88302 4.51021C10.0177 4.46278 11.1293 4.84017 12.0005 5.56862C11.4877 5.99733 11.0754 6.53344 10.7926 7.13905C10.5098 7.74466 10.3635 8.40499 10.364 9.07337C10.3638 9.50704 10.5353 9.92316 10.8409 10.2308C11.1466 10.5384 11.5616 10.7125 11.9953 10.7151C11.7797 10.7151 11.5662 10.6727 11.3671 10.5901C11.168 10.5076 10.987 10.3867 10.8346 10.2342C10.6822 10.0818 10.5614 9.90077 10.479 9.70159C10.3965 9.5024 10.3542 9.28893 10.3543 9.07337C10.3555 8.81817 10.2797 8.56853 10.1368 8.35712C9.99711 8.15041 9.80074 7.98842 9.57125 7.89062C9.41328 7.82453 9.24375 7.7905 9.0725 7.7905C8.90126 7.7905 8.73173 7.82453 8.57375 7.89062C8.41601 7.95743 8.27322 8.05509 8.15375 8.17787ZM19.1338 13.1489C19.4826 13.9757 19.5802 14.887 19.4146 15.769C19.2489 16.651 18.8273 17.4647 18.2023 18.1086C17.5694 18.7607 16.7563 19.209 15.8671 19.3961C14.9779 19.5831 14.0531 19.5004 13.2111 19.1586C12.3692 18.8167 11.6485 18.2313 11.1414 17.4773C10.6343 16.7233 10.3639 15.835 10.3648 14.9264C10.3601 14.708 10.3991 14.4908 10.4794 14.2877C10.5598 14.0846 10.6799 13.8995 10.8327 13.7434C10.9855 13.5873 11.1679 13.4633 11.3693 13.3786C11.5707 13.2939 11.7869 13.2503 12.0054 13.2503C12.2238 13.2503 12.4401 13.2939 12.6415 13.3786C12.8428 13.4633 13.0253 13.5873 13.1781 13.7434C13.3309 13.8995 13.451 14.0846 13.5313 14.2877C13.6117 14.4908 13.6507 14.708 13.646 14.9264C13.6448 15.179 13.7186 15.4263 13.8582 15.6368C13.9977 15.8474 14.1966 16.0118 14.4298 16.1091C14.7523 16.2441 15.1145 16.2426 15.4355 16.1054C15.7424 15.9725 15.9857 15.7256 16.1143 15.4169C16.2424 15.1037 16.2422 14.7527 16.1136 14.4398C15.9851 14.1268 15.7385 13.877 15.4273 13.7444C15.2695 13.6776 15.0998 13.6434 14.9285 13.6439C14.4932 13.6439 14.0757 13.4709 13.7679 13.1631C13.4601 12.8553 13.2871 12.4378 13.2871 12.0025C13.2871 11.5672 13.4601 11.1497 13.7679 10.8419C14.0757 10.5341 14.4932 10.3611 14.9285 10.3611C15.8259 10.3606 16.7034 10.6249 17.4513 11.1207C18.1992 11.6166 18.7842 12.3221 19.133 13.1489H19.1338Z" fill="#00FFBA"/>
<path opacity="0.7" d="M11.9963 13.2856C12.9023 13.2856 13.6373 14.0206 13.6373 14.9266C13.6379 15.8367 13.3664 16.7262 12.8576 17.4808C12.3489 18.2354 11.6261 18.8207 10.7822 19.1614C9.93824 19.5021 9.01172 19.5828 8.12163 19.3929C7.23154 19.2031 6.41853 18.7515 5.78707 18.0961C5.16505 17.4513 4.74652 16.6377 4.58361 15.7567C4.42071 14.8757 4.52062 13.9662 4.87092 13.1416C5.22122 12.317 5.80641 11.6137 6.55358 11.1193C7.30076 10.6249 8.17689 10.3613 9.07282 10.3613C9.50814 10.3613 9.92563 10.5342 10.2334 10.8421C10.5413 11.1499 10.7142 11.5674 10.7142 12.0027C10.7142 12.438 10.5413 12.8555 10.2334 13.1633C9.92563 13.4711 9.50814 13.6441 9.07282 13.6441C8.81782 13.6433 8.56882 13.7191 8.35732 13.8616C8.15046 14.0014 7.98846 14.198 7.89082 14.4278C7.79329 14.6593 7.76589 14.9144 7.81202 15.1613C7.85815 15.4082 7.97579 15.6362 8.15032 15.8168V15.8183C8.35933 16.0353 8.63823 16.1716 8.93787 16.2032C9.23751 16.2347 9.53868 16.1595 9.78832 15.9908C9.96327 15.8738 10.1065 15.7153 10.2053 15.5295C10.3041 15.3437 10.3554 15.1363 10.3546 14.9258C10.3546 14.0206 11.0896 13.2856 11.9963 13.2856ZM18.9908 6.98857C19.3477 7.68472 19.5197 8.46085 19.4905 9.24259C19.4613 10.0243 19.2318 10.7855 18.824 11.453C18.4162 12.1206 17.8438 12.6723 17.1616 13.0552C16.4794 13.438 15.7103 13.6392 14.9281 13.6396C14.4926 13.6396 14.0751 13.4666 13.7672 13.1587C13.4593 12.8508 13.2863 12.4332 13.2863 11.9978C13.2863 11.5624 13.4593 11.1448 13.7672 10.8369C14.0751 10.529 14.4926 10.3561 14.9281 10.3561C15.1805 10.3563 15.4273 10.2821 15.6377 10.1426C15.8481 10.0032 16.0127 9.80484 16.1108 9.57232C16.183 9.39965 16.2167 9.21337 16.2097 9.02636C16.2027 8.83936 16.1552 8.65611 16.0703 8.48932C15.9882 8.32745 15.8726 8.18493 15.7311 8.07121C15.5896 7.9575 15.4256 7.8752 15.2498 7.8298C15.0741 7.78439 14.8907 7.77692 14.7119 7.80787C14.533 7.83882 14.3628 7.90749 14.2126 8.00932C14.0374 8.12613 13.8939 8.28455 13.7949 8.47041C13.696 8.65627 13.6447 8.86376 13.6456 9.07432C13.6502 9.29272 13.6112 9.50985 13.5308 9.71297C13.4504 9.91608 13.3302 10.1011 13.1774 10.2572C13.0245 10.4133 12.8421 10.5372 12.6407 10.6219C12.4393 10.7065 12.223 10.7501 12.0046 10.75C11.7861 10.75 11.5699 10.7063 11.3685 10.6216C11.1672 10.5369 10.9847 10.4128 10.832 10.2566C10.6792 10.1005 10.5591 9.91542 10.4788 9.71227C10.3985 9.50911 10.3596 9.29197 10.3643 9.07357C10.3638 8.22729 10.5986 7.39754 11.0424 6.67701C11.4863 5.95649 12.1218 5.37357 12.8779 4.99339C13.6339 4.61322 14.4808 4.45076 15.3239 4.52416C16.167 4.59756 16.9731 4.90394 17.6521 5.40907L17.6551 5.41132C18.2145 5.82843 18.6711 6.36793 18.9901 6.98857H18.9908Z" fill="#00FFBA"/>
</svg>
