<svg width="24" height="24" viewBox="0 0 24 24" fill="none"><path fill="#23bee2" d="m14.91 10.102 2.428-2.56a6.951 6.951 0 0 1-8.69 10.543l6.18-3.184 1.006-.519-.932-.644-.666-.46 1.942-.992.966-.494-.865-.654zm-5.82 4.15-2.264 2.385a6.92 6.92 0 0 1-1.78-4.64A6.951 6.951 0 0 1 15.68 6.098L9.173 9.453l-1.007.52.932.643.666.46-1.942.993-.966.493.865.655zm-2.688 2.833-.469.493a8.2 8.2 0 0 1-2.183-5.582C3.75 7.45 7.451 3.75 12 3.75c1.87 0 3.597.625 4.982 1.678l-.676.349A7.53 7.53 0 0 0 12 4.429c-4.174 0-7.57 3.395-7.57 7.567a7.53 7.53 0 0 0 1.973 5.088zm11.361-9.99.471-.495a8.2 8.2 0 0 1 2.016 5.396c0 4.547-3.701 8.246-8.25 8.246a8.2 8.2 0 0 1-4.69-1.466l.693-.357A7.53 7.53 0 0 0 12 19.562c4.174 0 7.57-3.394 7.57-7.566a7.53 7.53 0 0 0-1.807-4.9zm-9.631 5.58 2.955-1.51-1.602-1.107 8.872-4.573-4.465 4.7 1.976 1.495-2.955 1.51 1.602 1.107-8.872 4.574 4.465-4.701z"/></svg>