<svg xmlns="http://www.w3.org/2000/svg" xml:space="preserve" width="24" height="24" viewBox="0 0 24 24" stroke-miterlimit="10"><path d="M9.552 5.592c-3.81 1.468-4.16 5.23-5.252 6.987-1.106 1.778-3.639 2.758-3.293 3.664.347.906 2.883-.067 4.89.511 1.982.572 4.748 3.133 8.559 1.664a6.84 6.84 0 0 0 3.993-4.113.317.317 0 0 0-.267-.424.31.31 0 0 0-.309.17 5.408 5.408 0 0 1-9.731-.095q-.093-.193-.172-.397a6 6 0 0 1-.137-.41 62 62 0 0 1 3.966-1.681 62 62 0 0 1 3.996-1.393 45 45 0 0 1 2.21-.624l.143-.036a.206.206 0 0 1 .242.126v.002q.033.087.062.174.197.562.296 1.131a.245.245 0 0 0 .357.177 29 29 0 0 0 1.495-.86c1.666-1.03 2.59-1.904 2.4-2.399s-1.458-.524-3.383-.17a30 30 0 0 0-2.405.55q-.924.247-1.939.562a64 64 0 0 0-3.996 1.395 65 65 0 0 0-3.667 1.54 5.44 5.44 0 0 1 3.478-5.116 5.38 5.38 0 0 1 3.914.013c.12.047.256.014.344-.081a.318.318 0 0 0-.085-.495 6.8 6.8 0 0 0-5.709-.372"/></svg>