<svg width="24" height="24" viewBox="0 0 24 24" fill="none"><path fill="#fff" fill-rule="evenodd" d="m7.562 12.908-1.964 1.965-.922.922A8.2 8.2 0 0 1 3.75 12c0-4.549 3.701-8.25 8.25-8.25s8.25 3.701 8.25 8.25-3.701 8.25-8.25 8.25a8.2 8.2 0 0 1-4.732-1.496 8 8 0 0 1-.958-.786l.871-.872 6.313-6.312a1.216 1.216 0 0 1 2.024-.804c.223.201.363.478.394.777l2.905 2.906A7.024 7.024 0 0 0 12 4.983a7.024 7.024 0 0 0-6.84 8.584L7.024 11.7a1.216 1.216 0 0 1 1.978-.74c.219.183.366.436.416.717l1.188 1.186-.873.872-.835-.836a1.21 1.21 0 0 1-1.337.008m6.531-.98-5.938 5.938A7 7 0 0 0 12 19.018a7.03 7.03 0 0 0 6.365-4.063l-3.034-3.035a1.21 1.21 0 0 1-1.238.009m.633-1.587a.547.547 0 1 0-.038 1.093.547.547 0 0 0 .038-1.093m-6.495.995a.546.546 0 1 0 0 1.092.546.546 0 0 0 0-1.092" clip-rule="evenodd"/><path fill="#044aac" fill-rule="evenodd" d="m7.562 12.908-1.964 1.965-.922.922A8.2 8.2 0 0 1 3.75 12c0-4.549 3.701-8.25 8.25-8.25s8.25 3.701 8.25 8.25-3.701 8.25-8.25 8.25a8.2 8.2 0 0 1-4.732-1.496 8 8 0 0 1-.958-.786l.871-.872 6.313-6.312a1.216 1.216 0 0 1 2.024-.804c.223.201.363.478.394.777l2.905 2.906A7.024 7.024 0 0 0 12 4.983a7.024 7.024 0 0 0-6.84 8.584L7.024 11.7a1.216 1.216 0 0 1 1.978-.74c.219.183.366.436.416.717l1.188 1.186-.873.872-.835-.836a1.21 1.21 0 0 1-1.337.008m6.531-.98-5.938 5.938A7 7 0 0 0 12 19.018a7.03 7.03 0 0 0 6.365-4.063l-3.034-3.035a1.21 1.21 0 0 1-1.238.009m.633-1.587a.547.547 0 1 0-.038 1.093.547.547 0 0 0 .038-1.093m-6.495.995a.546.546 0 1 0 0 1.092.546.546 0 0 0 0-1.092" clip-rule="evenodd"/></svg>