<?xml version="1.0" encoding="UTF-8"?>
<svg id="Layer_1" xmlns="http://www.w3.org/2000/svg" version="1.1" viewBox="0 0 500 500">
  <!-- Generator: Adobe Illustrator 29.3.1, SVG Export Plug-In . SVG Version: 2.1.0 Build 151)  -->
  <defs>
    <style>
      .st0 {
        fill: #10003c;
      }
    </style>
  </defs>
  <path class="st0" d="M0,250v250h500V0H0v250ZM401.8,90.4c-.2.7-7,22.1-15.3,47.4l-14.9,46.1-92.6.3-92.5.3-7.5,2.3c-15.1,4.6-29.3,12.9-41.3,24.1-4.4,4.1-4.9,4.3-4.4,2.1.3-1.4,3.6-17.1,7.2-35,3.8-18.2,7.9-35.6,9.4-39.6,7.4-19,24.6-36.2,44.2-44.1,12.9-5.2,11.6-5.1,113.2-5.2,80.1-.1,94.8.1,94.5,1.3ZM312.8,198.2c-.3.7-7.2,22.1-15.4,47.5l-14.9,46.2-59,.3c-57.9.4-59.1.4-66.5,2.6-15,4.6-29.4,12.9-41.2,24-2.6,2.4-4.8,4.2-4.8,4,0-3.3,14.5-70.2,16.3-75.1,3.8-10.5,8.5-17.5,18.2-27.2s23.8-18.7,38.9-22c8.7-1.9,129-2.1,128.4-.3ZM223.8,306.2c-.3.7-9.2,28.2-19.9,61l-19.3,59.8h-20.3c-22.3,0-27.7-.8-37.3-5.3-16-7.5-26-24.3-26-43.6,0-32.5,27.9-64.8,61.9-71.6,9.2-1.8,61.5-2.1,60.9-.3Z"/>
</svg>