<svg width="24" height="24" viewBox="0 0 24 24" fill="none"><path fill="#ed1968" d="M9.594 20.11a7.3 7.3 0 0 1-2.625-1.35 8.7 8.7 0 0 1-1.95-2.1 8.4 8.4 0 0 1-1.2-2.775 8.3 8.3 0 0 1 0-3.6 9.8 9.8 0 0 1 1.125-2.85 7.74 7.74 0 0 1 3.15-2.85 8 8 0 0 1 1.425-.6c.75.9 1.5 1.875 2.25 2.85.075.15.225.225.3.375a5.8 5.8 0 0 0-2.175.525A5.1 5.1 0 0 0 8.319 9.01a6.3 6.3 0 0 0-.975 1.875c-.2.816-.174 1.672.075 2.475l3.225-2.55c.75.975 1.5 1.875 2.25 2.85-1.05.825-2.175 1.65-3.225 2.55 1.05 1.35 2.175 2.775 3.225 4.2a8 8 0 0 1-3.3-.3m7.147-9.086a5 5 0 0 0-.097-.364c-.101.08-2.332 1.785-3.225 2.55-.75-.975-1.5-1.875-2.25-2.85 1.05-.825 2.175-1.65 3.225-2.55-1.05-1.35-2.1-2.7-3.225-4.125 0-.075-.075-.075-.075-.15h1.05a8.25 8.25 0 0 1 5.25 1.95 8.1 8.1 0 0 1 1.8 2.1c.56.859.919 1.833 1.05 2.85a9.3 9.3 0 0 1-.075 3.525 7.4 7.4 0 0 1-1.2 2.7 8 8 0 0 1-1.875 2.025 6.6 6.6 0 0 1-2.475 1.35 52 52 0 0 1-1.875-2.4 5.7 5.7 0 0 1-.6-.825 4.62 4.62 0 0 0 3.675-1.8 4.85 4.85 0 0 0 .9-1.875q.21-.855.022-2.11m-3.542 6.28q.777 1.061 1.613 2.078a6.1 6.1 0 0 0 1.94-1.144 7.5 7.5 0 0 0 1.759-1.905 6.8 6.8 0 0 0 1.108-2.492 8.8 8.8 0 0 0 .068-3.334 6.3 6.3 0 0 0-.976-2.634 7.6 7.6 0 0 0-1.68-1.958 7.7 7.7 0 0 0-4.82-1.817c.695.885 1.4 1.787 2.627 3.367l.33.423-.408.349a42 42 0 0 1-1.633 1.32c-.053.042-.69.531-1.169.902.197.251.426.537.775.975.345.431.574.718.771.97.348-.288.728-.59 1.183-.942.073-.057 1.272-.98 1.61-1.245l.642-.504.242.78c.28.898.31 1.856.085 2.77a5.4 5.4 0 0 1-1.001 2.09 5.18 5.18 0 0 1-3.093 1.92z"/></svg>