<svg width="24" height="24" viewBox="0 0 24 24" fill="none"><path fill="#1666af" d="M11.774 8.255v1.544H8.25a2.64 2.64 0 0 0-1.44.458c-.52.369-.81.922-.81 1.745s.29 1.377.81 1.745c.42.297.983.458 1.44.458h1.5v1.545h-1.5a4.1 4.1 0 0 1-2.29-.73c-.921-.654-1.459-1.678-1.459-3.018s.538-2.364 1.459-3.018a4.1 4.1 0 0 1 2.29-.73zm-3.75 4.636v-1.545h3.75v4.404h-1.499v-2.859zm6.226-3.096V8.25h5.25v7.5h-6.751V9.8h1.5v4.404H18V9.796z"/><path fill="#1666af" d="M11.774 8.255v1.544H8.25a2.64 2.64 0 0 0-1.44.458c-.52.369-.81.922-.81 1.745s.29 1.377.81 1.745c.42.297.983.458 1.44.458h1.5v1.545h-1.5a4.1 4.1 0 0 1-2.29-.73c-.921-.654-1.459-1.678-1.459-3.018s.538-2.364 1.459-3.018a4.1 4.1 0 0 1 2.29-.73zm-3.75 4.636v-1.545h3.75v4.404h-1.499v-2.859zm6.226-3.096V8.25h5.25v7.5h-6.751V9.8h1.5v4.404H18V9.796z"/></svg>