<svg width="24" height="24" viewBox="0 0 24 24" fill="none"><path fill="#008dde" d="M18.057 12.764a.543.543 0 0 0 .566-.545.545.545 0 0 0-.566-.545h-1.245v-1.231h2.604a.547.547 0 0 0 .398-.938.55.55 0 0 0-.398-.152h-2.614a2.65 2.65 0 0 0-2.2-2.376V5.665a.545.545 0 1 0-1.09 0V6.94H12.28V4.074a.545.545 0 1 0-1.09 0V6.94H9.958V5.664a.545.545 0 0 0-1.09 0v1.313a2.65 2.65 0 0 0-2.2 2.376H3.59a.545.545 0 1 0 0 1.09h3.067v1.231H5.413a.547.547 0 0 0-.398.938.54.54 0 0 0 .398.152h1.245v1.231H4.286a.545.545 0 1 0 0 1.09h2.382a2.65 2.65 0 0 0 2.2 2.376v.848a.546.546 0 1 0 1.09 0v-.811h1.232v2.468a.545.545 0 0 0 1.09 0v-2.468h1.23v1.275a.543.543 0 0 0 .546.565.547.547 0 0 0 .545-.565v-1.311a2.65 2.65 0 0 0 2.2-2.376h3.608a.543.543 0 0 0 .566-.545.545.545 0 0 0-.566-.545h-3.596v-1.231zm-2.115 2.086a1.78 1.78 0 0 1-1.777 1.778h-4.86a1.78 1.78 0 0 1-1.778-1.778V9.587a1.78 1.78 0 0 1 1.778-1.778h4.86a1.78 1.78 0 0 1 1.777 1.778z"/><path fill="#008dde" d="M10.461 9.096a6 6 0 0 0-.63.021c-.332.038-.576.338-.586.663-.017.738-.003 1.478-.008 2.216.01.376-.025.757.03 1.13.054.333.38.548.702.547 1.005.007 2.01.002 3.015.003v.416H9.748l-.416 1.249h3.22c.377-.01.757.025 1.13-.03.334-.053.547-.378.547-.701.007-1.315.001-2.63.003-3.945-.012-.353.031-.712-.04-1.06-.076-.355-.456-.53-.792-.508h-2.307c-.21.004-.422 0-.632-.002m.025 1.25h2.498v2.081h-2.498z"/></svg>