<?xml version="1.0" encoding="UTF-8" standalone="no"?>
<svg
   width="24"
   height="24"
   viewBox="0 0 24 24"
   fill="none"
   version="1.1"
   id="svg8"
   xmlns="http://www.w3.org/2000/svg"
   xmlns:svg="http://www.w3.org/2000/svg">
    <circle
       cx="80"
       cy="80"
       r="80"
       fill="#958fdc"
       id="circle1" 
	   transform="matrix(0.1375,0,0,0.1375,1,1)"/>
    <path
       d="m 135.912,80.0686 c 0,-30.5655 -24.89,-55.3426 -55.5892,-55.3426 -30.6989,0 -55.5956,24.7771 -55.5956,55.3426 0,6.3192 1.0664,12.3886 3.0235,18.0458 0.0126,0.025 0.1192,0.3497 0.1192,0.3497 0.7904,2.5039 -3.1301,3.4839 -3.1301,4.9829 0,2.348 8.2675,2.029 8.2675,4.758 0,2.379 -8.1797,3.116 -8.1797,5.514 0,3.315 18.1095,2.16 18.3416,5.008 0.1756,2.198 -6.2289,2.335 -6.2665,4.683 -0.0627,3.753 24.7147,2.522 24.7147,5.02 0,1.892 -11.2722,1.205 -11.2722,3.441 0,2.235 14.8352,3.646 31.1883,3.646 16.3531,0 27.6315,-1.81 27.6315,-3.765 0,-1.954 -10.5257,-1.555 -10.3061,-3.316 0.3764,-3.078 23.7421,-1.504 23.7421,-5.07 0,-1.879 -6.423,-2.316 -6.216,-4.34 0.295,-2.859 19.527,-2.435 19.527,-5.407 0,-2.335 -9.534,-2.91 -9.516,-5.339 0.013,-2.479 9.516,-2.373 9.453,-4.696 -0.05,-1.785 -4.252,-1.742 -2.935,-5.5257 1.944,-5.6386 3.011,-11.6892 3.011,-17.9897 z m -17.664,15.7168 c -1.932,4.3526 -6.273,3.478 -6.762,5.3076 -0.508,1.892 5.351,2.167 5.351,4.146 0,2.404 -17.8589,1.443 -17.6833,4.615 0.1129,1.998 12.6833,2.335 12.4453,4.421 -0.345,3.022 -19.4771,1.511 -19.6653,4.408 -0.138,2.123 9.3403,2.198 9.3593,4.134 0.019,1.629 -7.4398,2.516 -21.7292,2.516 -16.2715,0 -24.1878,-0.874 -23.2845,-2.691 0.8405,-1.699 15.2491,-1.386 15.1048,-4.059 -0.1442,-2.666 -25.5866,-1.886 -26.3519,-4.477 -0.6398,-2.154 8.3616,-2.598 8.3052,-4.646 -0.0565,-2.085 -11.5231,-1.611 -11.774,-4.14 -0.1631,-1.654 5.9905,-1.555 5.727,-3.64 -0.1945,-1.517 -2.7349,-1.305 -4.2404,-4.4335 -2.4276,-5.2264 -3.795,-11.046 -3.795,-17.1841 0,-22.5791 18.3918,-40.8872 41.0741,-40.8872 22.6819,0 41.0739,18.3081 41.0739,40.8872 0,5.5698 -1.123,10.8774 -3.149,15.7167 z"
       fill="#2b1d3c"
       id="path1-4" 
	   transform="matrix(0.1375,0,0,0.1375,1,1)"/>
    <path
       fill-rule="evenodd"
       clip-rule="evenodd"
       d="m 27.7507,98.1144 c -1.9571,-5.6572 -3.0235,-11.7266 -3.0235,-18.0458 0,-30.5655 24.8967,-55.3426 55.5956,-55.3426 30.6992,0 55.5892,24.7771 55.5892,55.3426 h 0.013 c 0,0.1491 -0.001,0.298 -0.002,0.4468 -0.049,6.1397 -1.111,12.0377 -3.009,17.5429 -0.817,2.3467 0.488,3.2207 1.61,3.9727 0.688,0.46 1.306,0.875 1.325,1.553 0.031,1.145 -2.261,1.7 -4.596,2.265 -2.403,0.582 -4.85,1.174 -4.857,2.431 -0.009,1.227 2.42,1.981 4.826,2.728 2.356,0.731 4.69,1.455 4.69,2.611 0,1.505 -4.933,2.139 -9.841,2.77 -4.783,0.615 -9.54,1.226 -9.686,2.637 -0.106,1.04 1.539,1.661 3.163,2.274 1.536,0.58 3.053,1.153 3.053,2.066 0,1.852 -6.305,2.318 -12.418,2.769 -5.654,0.417 -11.1433,0.822 -11.3241,2.301 -0.1074,0.862 2.3561,1.206 4.9011,1.562 2.658,0.372 5.405,0.756 5.405,1.754 0,1.955 -11.2784,3.765 -27.6315,3.765 -16.3531,0 -31.1883,-1.411 -31.1883,-3.646 0,-1.165 3.0579,-1.536 5.9883,-1.892 2.6959,-0.328 5.2839,-0.642 5.2839,-1.549 0,-1.122 -4.9981,-1.491 -10.4989,-1.898 -6.747,-0.5 -14.2504,-1.055 -14.2158,-3.122 0.0189,-1.183 1.6535,-1.805 3.2487,-2.411 1.5716,-0.598 3.105,-1.182 3.0178,-2.272 -0.1114,-1.367 -4.34,-1.811 -8.7085,-2.271 -4.7344,-0.498 -9.6331,-1.013 -9.6331,-2.737 0,-1.201 2.0529,-1.986 4.1019,-2.769 2.0409,-0.779 4.0778,-1.558 4.0778,-2.745 0,-1.415 -2.2251,-2.011 -4.3666,-2.584 -1.9864,-0.532 -3.9009,-1.044 -3.9009,-2.174 0,-0.612 0.6546,-1.138 1.3749,-1.717 1.0425,-0.837 2.2226,-1.7851 1.7552,-3.2659 0,0 -0.1066,-0.3247 -0.1192,-0.3497 z m -0.3053,0.4869 c 0.1563,0.4971 0.0813,0.9012 -0.122,1.2719 -0.2149,0.3918 -0.5772,0.7518 -1.0099,1.1178 -0.1409,0.119 -0.2954,0.244 -0.4523,0.37 -0.2919,0.235 -0.5923,0.476 -0.8302,0.705 -0.3664,0.353 -0.7372,0.809 -0.7372,1.381 0,0.442 0.2001,0.803 0.4895,1.086 0.2811,0.275 0.6593,0.492 1.0681,0.673 0.7503,0.332 1.7218,0.592 2.6653,0.844 0.0807,0.022 0.1612,0.043 0.2414,0.065 1.0427,0.28 2.0301,0.558 2.757,0.925 0.7446,0.375 1.0462,0.754 1.0462,1.165 0,0.158 -0.0649,0.329 -0.2391,0.525 -0.1782,0.202 -0.4514,0.407 -0.8151,0.616 -0.7299,0.42 -1.7153,0.797 -2.7486,1.192 l -0.0133,0.005 c -1.0079,0.385 -2.0619,0.787 -2.8625,1.25 -0.4034,0.234 -0.7693,0.497 -1.0382,0.803 -0.2731,0.31 -0.4629,0.685 -0.4629,1.123 0,0.652 0.453,1.115 0.9989,1.435 0.5537,0.326 1.3138,0.576 2.1778,0.78 1.7342,0.411 4.035,0.669 6.3063,0.909 0.1815,0.019 0.3629,0.038 0.5439,0.057 2.0999,0.221 4.14,0.435 5.7101,0.747 0.8552,0.17 1.5376,0.363 2.0037,0.586 0.4951,0.237 0.5943,0.432 0.6024,0.53 0.0226,0.286 -0.1497,0.576 -0.6906,0.913 -0.5308,0.33 -1.2682,0.611 -2.0731,0.917 l -0.0034,10e-4 c -0.7806,0.297 -1.624,0.619 -2.2715,1.024 -0.6403,0.401 -1.216,0.963 -1.2293,1.784 -0.0126,0.753 0.6,1.258 1.2932,1.6 0.7255,0.356 1.7349,0.635 2.9026,0.863 2.3434,0.457 5.46,0.734 8.5499,0.971 0.6334,0.049 1.2656,0.095 1.8903,0.142 2.4374,0.18 4.7615,0.352 6.5981,0.585 1.1563,0.147 2.091,0.314 2.7286,0.515 0.3216,0.101 0.536,0.2 0.6614,0.29 0.0497,0.035 0.0745,0.06 0.0862,0.075 -0.0032,0.006 -0.0089,0.015 -0.0192,0.027 -0.0333,0.041 -0.1013,0.099 -0.2267,0.166 -0.2529,0.137 -0.6447,0.264 -1.1623,0.38 -0.9457,0.211 -2.1878,0.362 -3.4849,0.52 -0.1152,0.014 -0.2308,0.028 -0.3466,0.042 -1.4019,0.171 -2.8429,0.357 -3.9347,0.646 -0.5433,0.144 -1.0373,0.322 -1.4046,0.559 -0.3661,0.236 -0.6888,0.589 -0.6888,1.088 0,0.542 0.4394,0.924 0.8927,1.185 0.4871,0.281 1.1738,0.532 2.0102,0.759 1.6798,0.456 4.0722,0.844 6.9561,1.161 5.7742,0.635 13.5885,0.988 21.7752,0.988 8.1902,0 15.1204,-0.453 20.0115,-1.154 2.442,-0.35 4.394,-0.764 5.745,-1.222 0.673,-0.228 1.222,-0.475 1.613,-0.746 0.372,-0.259 0.708,-0.617 0.708,-1.09 0,-0.475 -0.326,-0.8 -0.662,-1.01 -0.343,-0.215 -0.804,-0.38 -1.309,-0.516 -1.016,-0.274 -2.355,-0.466 -3.649,-0.647 l -0.155,-0.022 c -1.257,-0.175 -2.46,-0.344 -3.351,-0.568 -0.467,-0.117 -0.8074,-0.241 -1.0157,-0.367 -0.1027,-0.062 -0.1476,-0.11 -0.1639,-0.134 -0.0012,-0.001 -0.0021,-0.003 -0.0029,-0.004 0.0072,-0.043 0.0386,-0.12 0.1688,-0.228 0.1395,-0.115 0.36,-0.237 0.6747,-0.358 0.629,-0.241 1.535,-0.44 2.648,-0.609 2.051,-0.312 4.708,-0.508 7.427,-0.709 0.227,-0.017 0.455,-0.034 0.683,-0.051 2.938,-0.218 5.896,-0.453 8.121,-0.86 1.108,-0.203 2.069,-0.454 2.763,-0.784 0.662,-0.315 1.259,-0.791 1.259,-1.519 0,-0.374 -0.163,-0.688 -0.389,-0.941 -0.222,-0.248 -0.519,-0.455 -0.839,-0.635 -0.596,-0.335 -1.368,-0.627 -2.102,-0.904 -0.048,-0.018 -0.096,-0.036 -0.144,-0.054 -0.8,-0.302 -1.54,-0.591 -2.069,-0.918 -0.553,-0.342 -0.699,-0.615 -0.675,-0.842 0.01,-0.101 0.131,-0.312 0.674,-0.575 0.506,-0.245 1.241,-0.466 2.154,-0.668 1.777,-0.394 4.113,-0.694 6.484,-0.999 l 0.175,-0.022 c 2.415,-0.311 4.853,-0.628 6.688,-1.057 0.914,-0.214 1.711,-0.463 2.289,-0.769 0.548,-0.289 1.065,-0.721 1.065,-1.363 0,-0.46 -0.238,-0.834 -0.551,-1.127 -0.31,-0.29 -0.731,-0.537 -1.195,-0.755 -0.903,-0.425 -2.089,-0.793 -3.24,-1.15 l -0.093,-0.029 c -1.2,-0.373 -2.355,-0.735 -3.209,-1.15 -0.428,-0.207 -0.75,-0.413 -0.959,-0.617 -0.205,-0.2 -0.27,-0.366 -0.269,-0.507 v -0.002 c 0.001,-0.149 0.068,-0.307 0.268,-0.49 0.206,-0.189 0.524,-0.374 0.95,-0.553 0.852,-0.358 2.001,-0.642 3.196,-0.931 l 0.12,-0.029 c 1.135,-0.275 2.303,-0.557 3.191,-0.915 0.459,-0.185 0.88,-0.404 1.19,-0.678 0.316,-0.279 0.551,-0.649 0.538,-1.114 v 0 c -0.018,-0.648 -0.421,-1.09 -0.831,-1.421 -0.208,-0.167 -0.442,-0.324 -0.665,-0.473 l -0.022,-0.016 c -0.221,-0.147 -0.434,-0.29 -0.637,-0.446 -0.418,-0.321 -0.746,-0.664 -0.913,-1.107 -0.164,-0.4337 -0.196,-1.0293 0.108,-1.9036 v -0.0013 c 1.961,-5.6843 3.036,-11.7842 3.036,-18.1355 v -0.4467 h -0.015 c -0.241,-30.6091 -25.24,-55.3426 -56.0332,-55.3426 -30.9426,0 -56.0416,24.9744 -56.0416,55.7893 0,6.3699 1.075,12.4887 3.0481,18.1921 l 0.0097,0.028 0.0039,0.0078 c 0.0027,0.0075 0.0062,0.0174 0.0104,0.0296 0.011,0.0317 0.0249,0.0729 0.0389,0.1146 0.0138,0.0414 0.0274,0.0822 0.0375,0.1128 l 0.0121,0.0366 0.0029,0.0087 m 33.7319,29.8592 c 0,0 -10e-4,-0.001 -0.002,-0.005 0.0015,0.003 0.002,0.005 0.002,0.005 z M 118.254,95.7791 c 2.026,-4.8393 3.149,-10.1469 3.149,-15.7167 0,-22.5791 -18.392,-40.8872 -41.0739,-40.8872 -22.6823,0 -41.0741,18.3081 -41.0741,40.8872 0,6.1381 1.3674,11.9577 3.795,17.1841 0.8386,1.7425 1.9982,2.4486 2.8947,2.9945 0.713,0.434 1.2596,0.767 1.3457,1.439 0.1396,1.105 -1.5226,1.596 -3.092,2.061 -1.3923,0.411 -2.7117,0.801 -2.635,1.579 0.1311,1.322 3.3259,1.823 6.3542,2.298 2.7659,0.434 5.3928,0.847 5.4198,1.842 0.0273,0.992 -2.0694,1.607 -4.1668,2.223 -2.2338,0.656 -4.4684,1.312 -4.1384,2.423 0.3782,1.281 6.7849,1.738 13.1858,2.194 6.5496,0.468 13.0932,0.935 13.1661,2.283 0.0815,1.51 -4.4811,2.067 -8.6184,2.572 -3.1865,0.389 -6.1207,0.748 -6.4864,1.487 -0.9033,1.817 7.013,2.691 23.2845,2.691 14.2894,0 21.7482,-0.887 21.7292,-2.516 -0.009,-0.942 -2.2564,-1.443 -4.5462,-1.954 -2.4181,-0.539 -4.8839,-1.09 -4.8131,-2.18 0.0932,-1.435 4.8316,-1.788 9.6333,-2.147 4.896,-0.365 9.858,-0.736 10.032,-2.261 0.121,-1.063 -3.081,-1.672 -6.267,-2.277 -3.069,-0.584 -6.1229,-1.164 -6.1783,-2.144 -0.094,-1.698 4.9793,-2.212 9.7153,-2.691 4.111,-0.416 7.968,-0.807 7.968,-1.924 0,-0.976 -1.425,-1.537 -2.808,-2.083 -1.422,-0.56 -2.801,-1.104 -2.543,-2.063 0.197,-0.736 1.017,-1.034 2.052,-1.4114 1.539,-0.5604 3.555,-1.2944 4.71,-3.8962 z m -0.377,-0.2543 c 1.982,-4.7639 3.08,-9.9845 3.08,-15.4624 0,-22.3298 -18.189,-40.4405 -40.6279,-40.4405 -22.4387,0 -40.6281,18.1107 -40.6281,40.4405 0,6.0698 1.3518,11.8243 3.752,16.9928 0.7005,1.4539 1.6313,2.1267 2.4442,2.6327 0.0853,0.0531 0.1723,0.106 0.2595,0.159 0.3161,0.1921 0.6354,0.3861 0.8871,0.5971 0.3441,0.289 0.6216,0.654 0.689,1.179 l 1e-4,10e-4 c 0.1009,0.799 -0.4434,1.323 -1.0267,1.659 -0.59,0.34 -1.3805,0.588 -2.1145,0.807 -0.0898,0.027 -0.1788,0.053 -0.2668,0.079 -0.6585,0.195 -1.2588,0.373 -1.7105,0.583 -0.2549,0.118 -0.4226,0.23 -0.5183,0.331 -0.0847,0.089 -0.0936,0.145 -0.0889,0.193 0.013,0.132 0.1013,0.299 0.3849,0.495 0.283,0.195 0.7017,0.376 1.2405,0.543 1.075,0.332 2.5009,0.571 3.96,0.801 0.1327,0.021 0.2656,0.042 0.3985,0.063 1.3103,0.205 2.62,0.411 3.6322,0.679 0.5554,0.148 1.0574,0.323 1.4313,0.547 0.363,0.218 0.7152,0.551 0.7286,1.044 m 0,0 c 0.012,0.439 -0.2248,0.787 -0.5171,1.046 -0.2907,0.258 -0.6844,0.474 -1.1133,0.662 -0.8016,0.353 -1.8428,0.658 -2.8472,0.953 -0.0715,0.021 -0.1429,0.042 -0.214,0.063 -1.0923,0.321 -2.1141,0.632 -2.8245,0.987 -0.3572,0.178 -0.5908,0.347 -0.7167,0.499 -0.1094,0.131 -0.1199,0.222 -0.0907,0.321 h 2e-4 c -6e-4,-0.002 0.0041,0.017 0.0385,0.053 0.0351,0.037 0.0931,0.084 0.1837,0.139 0.1833,0.11 0.4563,0.223 0.8247,0.334 0.7343,0.221 1.7631,0.41 3.0043,0.576 2.424,0.323 5.5772,0.548 8.7482,0.775 l 0.2134,0.015 c 3.2321,0.23 6.467,0.465 8.9031,0.81 1.2149,0.172 2.2567,0.375 3.0078,0.627 0.3734,0.125 0.7035,0.272 0.9512,0.452 0.2438,0.178 0.4752,0.438 0.4947,0.799 0.0307,0.57 -0.3394,0.984 -0.7741,1.27 -0.4399,0.288 -1.0471,0.517 -1.7332,0.707 -1.3791,0.383 -3.2234,0.651 -5.0651,0.885 -0.4851,0.061 -0.9701,0.121 -1.4478,0.179 -1.3518,0.165 -2.6454,0.323 -3.7198,0.507 -0.727,0.125 -1.3311,0.258 -1.7722,0.406 -0.2207,0.074 -0.3849,0.147 -0.4979,0.215 -0.1191,0.072 -0.1422,0.116 -0.1405,0.112 l -4e-4,10e-4 c -0.0251,0.05 -0.023,0.074 -0.0223,0.079 6e-4,0.006 0.0042,0.03 0.0418,0.076 0.0874,0.107 0.2977,0.256 0.7114,0.416 0.8126,0.316 2.1775,0.591 4.1221,0.813 3.8735,0.443 9.8992,0.661 18.0323,0.661 7.1398,0 12.5562,-0.221 16.1785,-0.644 1.8153,-0.211 3.155,-0.471 4.0295,-0.768 0.4392,-0.149 0.7312,-0.298 0.9042,-0.433 0.171,-0.134 0.171,-0.209 0.171,-0.219 v -0.001 c -10e-4,-0.038 -0.02,-0.136 -0.231,-0.29 -0.208,-0.153 -0.53,-0.306 -0.9606,-0.457 -0.8147,-0.286 -1.8933,-0.527 -3.018,-0.778 l -0.1801,-0.04 c -1.1685,-0.261 -2.376,-0.537 -3.2825,-0.887 -0.4517,-0.174 -0.8653,-0.381 -1.1678,-0.638 -0.3078,-0.261 -0.548,-0.62 -0.5183,-1.077 0.0413,-0.635 0.5889,-1.027 1.1484,-1.276 0.5939,-0.266 1.4024,-0.463 2.325,-0.622 1.8116,-0.31 4.1915,-0.488 6.5569,-0.664 l 0.155,-0.012 c 2.433,-0.182 4.837,-0.365 6.655,-0.689 0.912,-0.162 1.644,-0.355 2.149,-0.585 0.534,-0.243 0.664,-0.457 0.678,-0.582 10e-4,-0.009 0.003,-0.028 -0.026,-0.071 -0.035,-0.052 -0.106,-0.125 -0.239,-0.213 -0.267,-0.177 -0.69,-0.354 -1.252,-0.528 -1.118,-0.347 -2.643,-0.643 -4.214,-0.942 l -0.188,-0.035 c -1.495,-0.285 -3.015,-0.574 -4.182,-0.912 -0.605,-0.175 -1.1458,-0.372 -1.5471,-0.604 -0.3733,-0.216 -0.7715,-0.546 -0.7994,-1.04 l -1e-4,-0.001 c -0.0358,-0.647 0.4033,-1.106 0.9261,-1.418 0.5305,-0.318 1.2675,-0.562 2.1045,-0.762 1.683,-0.402 3.929,-0.656 6.145,-0.884 0.315,-0.032 0.63,-0.064 0.942,-0.096 1.902,-0.193 3.727,-0.377 5.145,-0.63 0.828,-0.147 1.484,-0.312 1.923,-0.501 0.22,-0.095 0.357,-0.184 0.433,-0.257 0.036,-0.035 0.052,-0.059 0.058,-0.072 0.006,-0.011 0.006,-0.016 0.006,-0.019 0,-0.246 -0.179,-0.518 -0.696,-0.836 -0.492,-0.304 -1.152,-0.564 -1.853,-0.84 l -0.035,-0.014 c -0.686,-0.271 -1.422,-0.562 -1.949,-0.918 -0.266,-0.18 -0.514,-0.399 -0.674,-0.674 -0.168,-0.29 -0.224,-0.623 -0.129,-0.98 0.174,-0.65 0.688,-1.0157 1.229,-1.2759 0.274,-0.1319 0.581,-0.2487 0.894,-0.3634 0.07,-0.0257 0.14,-0.0514 0.211,-0.0772 0.251,-0.0914 0.507,-0.1847 0.772,-0.2903 1.334,-0.5329 2.78,-1.3407 3.68,-3.3664 l 0.033,-0.0764 0.003,-0.0026"
       fill="#2b1d3c"
       id="path2-2" 
	   transform="matrix(0.1375,0,0,0.1375,1,1)"/>
</svg>
