<svg width="256" height="256" version="1.1" viewBox="0 0 256 256" xmlns="http://www.w3.org/2000/svg">
 <path d="m237.97 127.9c0-60.473-49.243-109.49-109.98-109.49-60.736 0-109.99 49.021-109.99 109.49 0 12.503 2.1098 24.511 5.9819 35.702 0.02493 0.0496 0.23583 0.69188 0.23583 0.69188 1.5637 4.9539-6.1928 6.8928-6.1928 9.8588 0 4.6454 16.357 4.0143 16.357 9.4133 0 4.7067-16.184 6.165-16.184 10.909 0 6.5586 35.829 4.2734 36.288 9.9076 0.34743 4.3487-12.324 4.6197-12.397 9.2655-0.12405 7.4252 48.898 4.9897 48.898 9.9315 0 3.7432-22.302 2.3841-22.302 6.8079 0 4.4219 29.351 7.2135 61.704 7.2135 32.354 0 54.667-3.581 54.667-7.4489 0-3.8659-20.824-3.0764-20.39-6.5606 0.7447-6.0898 46.973-2.9756 46.973-10.031 0-3.7175-12.708-4.5821-12.298-8.5866 0.58365-5.6565 38.634-4.8175 38.634-10.698 0-4.6197-18.862-5.7573-18.827-10.563 0.0256-4.9045 18.827-4.6949 18.703-9.291-0.0989-3.5316-8.4124-3.4465-5.8068-10.932 3.8462-11.156 5.9571-23.128 5.9571-35.592zm-34.947 31.095c-3.8223 8.6114-12.412 6.8811-13.378 10.501-1.005 3.7432 10.587 4.2873 10.587 8.2027 0 4.7562-35.333 2.8549-34.986 9.1308 0.22339 3.9529 25.093 4.6197 24.623 8.7468-0.68256 5.9789-38.534 2.9894-38.906 8.7211-0.27302 4.2004 18.479 4.3487 18.517 8.179 0.0377 3.2229-14.72 4.9778-42.991 4.9778-32.192 0-47.855-1.7292-46.067-5.3241 1.6629-3.3614 30.17-2.7421 29.884-8.0305-0.28529-5.2746-50.623-3.7314-52.136-8.8572-1.2659-4.2617 16.544-5.14 16.431-9.1916-0.11179-4.1251-22.798-3.1873-23.293-8.1908-0.32269-3.2723 11.852-3.0764 11.331-7.2016-0.38482-3.0014-5.4108-2.5819-8.3894-8.7715-4.803-10.34-7.5083-21.854-7.5083-33.998 0-44.672 36.388-80.895 81.264-80.895 44.875 0 81.263 36.221 81.263 80.895 0 11.019-2.2218 21.521-6.2302 31.095z" fill="#2b1d3c" stroke-width="1.9785"/>
</svg>
