<svg width="256" height="256" version="1.1" viewBox="0 0 256 256" xmlns="http://www.w3.org/2000/svg">
 <path d="m252.97 127.88c0-68.72-55.959-124.42-124.98-124.42-69.019 0-124.99 55.705-124.99 124.42 0 14.208 2.3975 27.853 6.7976 40.571 0.02833 0.0563 0.26799 0.78623 0.26799 0.78623 1.777 5.6294-7.0373 7.8327-7.0373 11.203 0 5.2789 18.588 4.5617 18.588 10.697 0 5.3486-18.391 7.0056-18.391 12.397 0 7.453 40.715 4.8562 41.237 11.259 0.3948 4.9417-14.004 5.2497-14.088 10.529-0.14097 8.4377 55.566 5.6701 55.566 11.286 0 4.2537-25.344 2.7092-25.344 7.7363 0 5.0249 33.353 8.1972 70.119 8.1972 36.766 0 62.122-4.0694 62.122-8.4647 0-4.3931-23.664-3.496-23.171-7.4552 0.84625-6.9202 53.378-3.3814 53.378-11.399 0-4.2245-14.441-5.207-13.975-9.7575 0.66324-6.4278 43.902-5.4745 43.902-12.156 0-5.2497-21.434-6.5424-21.395-12.003 0.0292-5.5734 21.395-5.3351 21.253-10.558-0.11238-4.0132-9.5596-3.9165-6.5987-12.423 4.3706-12.677 6.7695-26.281 6.7695-40.446zm-39.713 35.336c-4.3436 9.7858-14.104 7.8194-15.202 11.933-1.1421 4.2537 12.03 4.872 12.03 9.3213 0 5.4048-40.151 3.2442-39.756 10.376 0.25384 4.492 28.515 5.2497 27.98 9.9396-0.77565 6.7942-43.789 3.3971-44.212 9.9104-0.31025 4.7731 20.999 4.9417 21.042 9.2943 0.0428 3.6624-16.727 5.6566-48.853 5.6566-36.582 0-54.38-1.965-52.349-6.0501 1.8897-3.8198 34.285-3.1161 33.96-9.1257-0.3242-5.9939-57.526-4.2402-59.246-10.065-1.4385-4.8428 18.8-5.841 18.672-10.445-0.12703-4.6876-25.907-3.622-26.47-9.3078-0.36669-3.7186 13.468-3.496 12.876-8.1837-0.43729-3.4106-6.1487-2.934-9.5335-9.9677-5.4579-11.75-8.5322-24.835-8.5322-38.635 0-50.764 41.35-91.926 92.346-91.926 50.995 0 92.345 41.161 92.345 91.926 0 12.522-2.5248 24.455-7.0798 35.336z" fill="#2b1d3c" stroke-width="2.2483"/>
</svg>
