<svg width="24" height="24" viewBox="0 0 24 24" fill="none"><path fill="#005396" d="M9.245 3.45a9.03 9.03 0 0 1 5.72.068 9 9 0 0 1 4.309 3.221c.247.33.456.685.657 1.045.233.456.444.926.603 1.412.21.669.367 1.36.416 2.062.026.152.01.306.03.458.008.19.005.379 0 .57-.02.152-.004.307-.03.459a9 9 0 0 1-.94 3.319 9.02 9.02 0 0 1-4.058 4.002 8.2 8.2 0 0 1-1.525.58 9 9 0 0 1-2.713.334c-.152-.02-.31-.004-.458-.03a8.8 8.8 0 0 1-2.013-.4A9.03 9.03 0 0 1 3.53 15a8.8 8.8 0 0 1-.503-2.643c-.03-.433.003-.868.038-1.3.065-.639.21-1.27.406-1.88a9.03 9.03 0 0 1 3.266-4.452 9 9 0 0 1 1.045-.657 9 9 0 0 1 1.463-.62m1.732 3.247V8.8c-.004.037.03.058.05.084l.97 1.015a742 742 0 0 1 0-3.2c-.34 0-.68-.003-1.02 0M6.545 7.785c.077.05.133.125.199.189.694.701 1.391 1.4 2.082 2.106q.953.959 1.9 1.919c-.763.783-1.542 1.553-2.304 2.335L6.594 16.18l-.05.037c.899 0 1.799.002 2.699-.004.918-.962 1.842-1.92 2.758-2.883q1.38 1.44 2.759 2.883c.897.006 1.795.002 2.692.004-.137-.11-.245-.247-.373-.367-.643-.65-1.29-1.3-1.932-1.952-.621-.633-1.254-1.258-1.872-1.896.15-.15.29-.306.444-.453 1.176-1.185 2.348-2.375 3.523-3.56.07-.068.13-.148.21-.203-.9 0-1.797-.003-2.695.001-.918.961-1.84 1.92-2.758 2.88-.917-.963-1.84-1.921-2.759-2.88q-1.347-.002-2.695-.002m5.458 6.311c0 1.07.003 2.139-.002 3.21.341-.003.683 0 1.022 0v-2.105a.07.07 0 0 0-.024-.06c-.172-.188-.355-.363-.525-.55-.155-.168-.32-.322-.47-.495"/></svg>