<svg width="24" height="24" viewBox="0 0 24 24" fill="none">
<path d="M17.0276 7.15066C16.7726 6.57991 16.5364 5.45191 15.8839 5.20066C15.0439 4.87816 14.5256 6.99166 14.4019 7.52566H14.2766C14.0651 6.61066 13.7816 5.31316 12.7766 5.02516C12.3116 6.97891 13.2626 9.08566 14.1521 10.7769C15.1016 10.3224 15.5644 8.90191 15.6521 7.90066H15.7774L16.7779 10.9014C17.5826 10.6704 17.8624 9.87391 18.1526 9.15091C18.7766 7.59991 19.3001 5.69191 18.9026 4.02466C17.7026 4.36516 17.3366 6.08191 17.0276 7.15066ZM5.02461 11.1519C6.09861 10.6389 6.61011 9.01441 6.77511 7.90066H6.89961C7.02711 8.43766 7.36686 9.82216 8.03736 9.91066C8.89236 10.0239 9.34011 8.12791 9.40011 7.52566H9.52536C9.79761 8.46691 10.0849 9.69166 11.0254 10.1514C11.3734 8.69341 10.9579 7.13866 10.4246 5.77516C10.2874 5.42491 10.0061 4.47916 9.52236 4.47916C8.73036 4.47916 8.28486 6.56716 8.14986 7.15066H8.02536L7.02486 4.14991C5.26536 4.98991 4.30986 9.45766 5.02461 11.1519ZM3.14886 12.6519C4.45386 18.3474 10.4771 21.5769 15.9026 19.1709C17.8696 18.2969 19.4496 16.7345 20.3456 14.7774C20.5789 14.2719 21.0371 13.3562 20.7701 12.6924C20.5039 12.0309 17.9239 13.1109 17.2789 13.3937C17.2343 13.4134 17.1954 13.4439 17.1658 13.4826C17.1362 13.5213 17.1168 13.5668 17.1094 13.6149C17.0988 13.6836 17.1026 13.7537 17.1205 13.8208C17.1383 13.8879 17.1698 13.9507 17.2131 14.005C17.2563 14.0594 17.3103 14.1043 17.3717 14.1368C17.4331 14.1693 17.5006 14.1887 17.5699 14.1939L18.6529 14.2779C16.6916 18.0744 11.3884 19.7529 7.65036 16.7199C6.81336 16.0412 6.06711 15.2349 5.56461 14.2779C5.32161 13.8152 5.09586 13.2234 4.68336 12.9054C4.28586 12.6009 3.68436 12.4959 3.14886 12.6519Z" fill="#FFF300"/>
</svg>
