<svg width="24" height="24" viewBox="0 0 460 450" fill="none">
<path d="M118.5 68C94.9 91.6 75.8 111.1 76 111.3c.3.2 17.6 7.4 38.5 16.1l38 15.7-35 35.2c-19.2 19.4-48.5 48.8-65 65.5l-30 30.3 7-2.9c3.9-1.6 53.4-22.3 110.2-46.1C196.4 201.4 243.4 182 244 182c.7 0 44.9 18.3 98.4 40.6 53.4 22.4 103 43.1 110.1 46.1l13 5.4-65-65c-40-40.1-64.6-65.4-64-66 .6-.5 17-7.5 36.5-15.6s36.3-15.2 37.4-15.7c1.6-.9-3.5-6.4-41-43.9L326.5 25h-165l-43 43zm218.7 8.7c12.6 12.5 22.8 23.2 22.8 23.8 0 .5-10.5 5.3-23.3 10.6l-23.2 9.6-10.6-9.9-10.7-9.8-51.7.2-51.7.3 34.1 14.2L257 130h23.5l30 30.1c16.5 16.6 29.3 29.9 28.5 29.6-.8-.3-23.1-9.6-49.5-20.7s-72.3-30.3-102-42.7c-29.7-12.4-55.5-23.2-57.4-24l-3.4-1.5 23.4-23.4L173.5 54h141l22.7 22.7zm-143.1 83.9c6.1 2.6 10.7 5 10.2 5.4-.6.5-36.1 15.7-53.3 22.7-2.7 1.1.2-2.2 13.5-15.6 9.3-9.4 17.3-17.1 17.8-17.1.4 0 5.7 2.1 11.8 4.6z" fill="#000000"/>
</svg>