<svg width="24" height="24" viewBox="0 0 24 24" fill="none"><path fill="#00dcfa" d="M14.534 3.75c-2.903 0-5.368 2.232-5.678 5.105-2.875.31-5.106 2.776-5.106 5.678a5.72 5.72 0 0 0 5.717 5.717c2.902 0 5.377-2.232 5.677-5.105 2.874-.31 5.106-2.776 5.106-5.678a5.72 5.72 0 0 0-5.716-5.717m4.376 6.357a4.45 4.45 0 0 1-3.727 3.728v-3.728zM5.09 13.893a4.45 4.45 0 0 1 3.727-3.737v3.727H5.09zm8.754 1.29a4.42 4.42 0 0 1-4.377 3.776 4.42 4.42 0 0 1-4.377-3.775zm.049-5.076v3.776h-3.786v-3.776zm5.017-1.29h-8.754a4.42 4.42 0 0 1 4.377-3.776 4.42 4.42 0 0 1 4.377 3.775z"/></svg>