<svg width="24" height="24" viewBox="0 0 24 24" fill="none" xmlns="http://www.w3.org/2000/svg">
<path d="M16.0892 6.353C16.7881 5.65426 17.9259 5.65426 18.6247 6.353C19.3236 7.05174 19.3236 8.1893 18.6247 8.88804C18.2199 9.29283 17.6659 9.47601 17.1034 9.39508C17.0779 9.39082 17.048 9.39082 17.0225 9.39508C16.8563 9.37375 16.6816 9.39508 16.5153 9.47175C16.281 9.57826 16.1148 9.77425 16.0338 10.0001C15.9529 10.2216 15.9571 10.473 16.0637 10.6988C16.6645 11.9983 16.3875 13.5534 15.3733 14.5675C14.3591 15.5815 12.8037 15.8584 11.504 15.2577C11.2696 15.1512 11.0182 15.1469 10.7924 15.2321C10.5707 15.313 10.3832 15.4792 10.2767 15.7093C10.2085 15.8584 10.183 16.0118 10.1915 16.1652C10.1872 16.195 10.1872 16.2248 10.1915 16.2547C10.2852 16.8256 10.0977 17.4093 9.68866 17.8183C8.98979 18.517 7.85202 18.517 7.15315 17.8183C6.81224 17.4774 6.629 17.0301 6.629 16.5486C6.629 16.0714 6.8165 15.6198 7.15315 15.279C7.55797 14.8742 8.11196 14.691 8.67444 14.772C8.68296 14.772 8.69151 14.772 8.70429 14.772C8.76395 14.7847 8.82361 14.7933 8.8875 14.7933C9.01964 14.7933 9.15174 14.7677 9.27529 14.708C9.50542 14.6015 9.66733 14.4141 9.75258 14.1968C9.8378 13.971 9.8378 13.7153 9.72699 13.481C9.12615 12.1815 9.40313 10.6264 10.4173 9.61237C11.4315 8.59835 12.9869 8.3214 14.2867 8.92215C14.5168 9.02866 14.7725 9.03292 14.994 8.95196C15.2157 8.871 15.4074 8.70486 15.5139 8.47477C15.5949 8.29585 15.6162 8.10412 15.5864 7.92091V7.91665C15.4926 7.34572 15.6801 6.76201 16.0892 6.353ZM14.3165 13.5108C15.0921 12.7354 15.0921 11.4785 14.3165 10.7031C13.5409 9.92765 12.2838 9.92765 11.5083 10.7031C10.7327 11.4785 10.7327 12.7354 11.5083 13.5108C12.2838 14.2862 13.5409 14.2862 14.3165 13.5108ZM12.8975 0.111206C19.5239 0.111206 24.8975 5.48382 24.8975 12.1091C24.8975 18.7343 19.5282 24.1112 12.8975 24.1112C6.26677 24.1112 0.897461 18.7386 0.897461 12.1091C0.897461 5.47957 6.27103 0.111206 12.8975 0.111206ZM19.2938 9.55696C20.3548 8.4961 20.3548 6.77905 19.2938 5.71818C18.2327 4.65728 16.5153 4.65728 15.4543 5.71818C15.0622 6.11012 14.8151 6.59584 14.7128 7.10288C12.7909 6.37855 10.5836 6.83871 9.11337 8.30863C7.64319 9.77851 7.18296 11.9855 7.91168 13.9113C7.40031 14.0136 6.9145 14.2607 6.51819 14.6569C5.45712 15.7178 5.45712 17.4348 6.51819 18.4957C7.57926 19.5566 9.29662 19.5566 10.3577 18.4957C10.754 18.0995 11.0054 17.6052 11.1034 17.094C11.7 17.3155 12.3222 17.4263 12.9401 17.4263C14.3165 17.4263 15.6759 16.8937 16.6858 15.884C18.1474 14.4226 18.612 12.2284 17.9003 10.3068C18.4074 10.2003 18.8975 9.9532 19.2938 9.55696Z" fill="white"/>
</svg>
