<svg width="24" height="24" viewBox="0 0 24 24" fill="none"><path fill="#292929" fill-rule="evenodd" d="M11.255 13.993q.002-.518 0-1.033c-.001-.097.026-.17.116-.209.082-.036.168-.01.24.074q.322.376.642.754.113.131.223.265a.13.13 0 0 1 .029.075q.002.546 0 1.091a.636.636 0 0 1-.578.641.63.63 0 0 1-.666-.544c-.007-.041-.006-.084-.006-.126zm.002-6.757-.002-.045V5.142c0-.315.217-.58.51-.632a.623.623 0 0 1 .737.616c.007.698.003 1.397.004 2.095l-.004.036c-.145-.249-.346-.373-.62-.372-.272 0-.475.12-.625.35m-.002 9.46c.153.232.357.35.63.35.274-.001.473-.126.621-.357v1.736c0 .17.005.342-.01.51a.62.62 0 0 1-.653.565.63.63 0 0 1-.586-.625q-.004-1.004-.002-2.01zm1.251-6.62v1.245c0 .119-.037.184-.127.22a.23.23 0 0 1-.27-.071l-.543-.636q-.142-.163-.28-.33a.13.13 0 0 1-.03-.075q-.003-.804 0-1.607a.63.63 0 0 1 .574-.632c.297-.033.59.188.66.498a1 1 0 0 1 .015.16zm1.298-2.533V5.878c.002-.301.174-.547.44-.631.406-.129.81.177.813.618q.002.624 0 1.246v2.096a.64.64 0 0 1-.47.638.627.627 0 0 1-.778-.562l-.004-.115V7.543m-3.783 8.027v1.924a.634.634 0 0 1-.52.635c-.36.07-.719-.223-.73-.598q-.002-.16 0-.321v-3.565c0-.3.192-.552.471-.624a.625.625 0 0 1 .779.609q.002.97 0 1.94m0-7.084v2.624a.634.634 0 0 1-.492.63.626.626 0 0 1-.757-.607c-.004-.38 0-.759-.002-1.138v-4.13c0-.309.201-.567.49-.632a.626.626 0 0 1 .76.616c.003.674 0 1.348 0 2.022zm3.783 6.14v-2.85c0-.285.122-.496.375-.614.407-.189.863.112.878.572v5.736c0 .314-.18.563-.462.643a.626.626 0 0 1-.786-.555l-.004-.12v-2.814zm3.82-2.9v4.455a.64.64 0 0 1-.502.639.63.63 0 0 1-.747-.6V7.28c0-.288.144-.518.389-.62.412-.173.86.138.86.598zm-9.999-.007v4.462a.634.634 0 0 1-.489.637c-.375.09-.75-.205-.761-.599V7.266c0-.306.184-.555.465-.633a.625.625 0 0 1 .784.601c.004.491.001.983.001 1.475z" clip-rule="evenodd"/></svg>