<svg width="24" height="24" viewBox="0 0 24 24" fill="none">
<path fill-rule="evenodd" clip-rule="evenodd" d="M8.472 16.854L10.095 15.231C10.8113 15.6541 11.6479 15.827 12.4732 15.7225C13.2985 15.6181 14.0656 15.2421 14.6539 14.6539C15.2421 14.0656 15.6181 13.2985 15.7225 12.4732C15.827 11.6479 15.6541 10.8113 15.231 10.095L16.854 8.472C17.6953 9.62777 18.0963 11.0459 17.9848 12.4711C17.8733 13.8963 17.2565 15.2349 16.2457 16.2457C15.2349 17.2565 13.8963 17.8733 12.4711 17.9848C11.0459 18.0963 9.62777 17.6953 8.472 16.854ZM7.146 15.528C6.3047 14.3722 5.9037 12.9541 6.01522 11.5289C6.12675 10.1037 6.74346 8.76514 7.7543 7.7543C8.76514 6.74346 10.1037 6.12675 11.5289 6.01522C12.9541 5.9037 14.3722 6.3047 15.528 7.146L13.905 8.769C13.1887 8.34591 12.3521 8.17299 11.5268 8.27747C10.7015 8.38195 9.93436 8.75789 9.34613 9.34613C8.75789 9.93436 8.38195 10.7015 8.27747 11.5268C8.17299 12.3521 8.34591 13.1887 8.769 13.905L7.146 15.528ZM18 7.5C17.6022 7.5 17.2206 7.34196 16.9393 7.06066C16.658 6.77936 16.5 6.39782 16.5 6C16.5 5.60218 16.658 5.22064 16.9393 4.93934C17.2206 4.65804 17.6022 4.5 18 4.5C18.3978 4.5 18.7794 4.65804 19.0607 4.93934C19.342 5.22064 19.5 5.60218 19.5 6C19.5 6.39782 19.342 6.77936 19.0607 7.06066C18.7794 7.34196 18.3978 7.5 18 7.5ZM6 19.5C5.60218 19.5 5.22064 19.342 4.93934 19.0607C4.65804 18.7794 4.5 18.3978 4.5 18C4.5 17.6022 4.65804 17.2206 4.93934 16.9393C5.22064 16.658 5.60218 16.5 6 16.5C6.39782 16.5 6.77936 16.658 7.06066 16.9393C7.34196 17.2206 7.5 17.6022 7.5 18C7.5 18.3978 7.34196 18.7794 7.06066 19.0607C6.77936 19.342 6.39782 19.5 6 19.5Z" fill="#1FC5C9"/>
</svg>
