<svg version="1.0" xmlns="http://www.w3.org/2000/svg"
 width="48" height="48" viewBox="0 0 48 48"
 preserveAspectRatio="xMidYMid meet">

<g transform="translate(0.000000,48.000000) scale(0.100000,-0.100000)"
fill="#000000" stroke="none">
<path d="M241 413 c61 -32 99 -80 99 -127 0 -17 -13 -53 -29 -80 l-30 -50 41
-58 c23 -32 44 -58 48 -58 15 0 64 57 81 95 10 22 19 63 19 90 0 48 -27 126
-48 139 -5 3 -1 -11 9 -31 11 -21 19 -58 19 -83 0 -46 -26 -111 -47 -118 -20
-6 -25 41 -9 73 20 37 20 98 2 133 -31 59 -101 102 -167 102 l-43 0 55 -27z"/>
<path d="M87 390 c-65 -51 -88 -181 -46 -266 11 -23 27 -48 37 -56 11 -9 10
-4 -5 17 -46 68 -52 128 -17 201 19 39 29 42 44 14 8 -15 6 -29 -11 -62 -47
-93 20 -200 145 -228 60 -13 83 2 27 18 -23 7 -54 28 -75 52 -45 51 -48 98
-10 167 l27 48 -39 57 c-21 32 -42 57 -45 58 -4 0 -18 -9 -32 -20z"/>
</g>
</svg>
