<svg width="24" height="24" viewBox="0 0 24 24" fill="none"><path fill="#fff" d="M10.085 9.215c-.57 0-1.032-.45-1.032-1.006a1.02 1.02 0 0 1 1.031-1.007c.57 0 1.032.45 1.032 1.007s-.462 1.006-1.031 1.006m2.945-1.15a1.02 1.02 0 0 1-1.031-1.007 1.02 1.02 0 0 1 1.03-1.007c.57 0 1.032.45 1.032 1.007S13.6 8.065 13.03 8.065m1.18 6.904c-.57 0-1.032-.45-1.032-1.007s.461-1.007 1.031-1.007 1.032.45 1.032 1.007-.462 1.007-1.031 1.007M4.34 13.53a.58.58 0 0 1-.59-.575c0-.318.264-.575.589-.575s.59.257.59.575a.58.58 0 0 1-.59.575m1.62 3.741a.436.436 0 0 1-.443-.432c0-.238.198-.431.443-.431.244 0 .442.192.442.431a.437.437 0 0 1-.442.432m4.713 2.876a.437.437 0 0 1-.442-.432c0-.238.198-.431.442-.431.245 0 .443.193.443.431a.437.437 0 0 1-.443.432m7.661-2.589a.437.437 0 0 1-.442-.432c0-.238.198-.432.442-.432s.443.194.443.432a.44.44 0 0 1-.443.432m-4.714-.862a.44.44 0 0 1-.442-.432c0-.239.198-.431.442-.431s.443.192.443.43a.44.44 0 0 1-.443.433m2.652-2.014a.437.437 0 0 1-.442-.432c0-.239.197-.431.442-.431.244 0 .443.192.443.431a.44.44 0 0 1-.443.432m-3.094 5.465a.583.583 0 0 1-.59-.575c0-.317.265-.575.59-.575s.589.257.589.575a.58.58 0 0 1-.589.575m2.651-7.192a.58.58 0 0 1-.588-.575c0-.318.263-.576.588-.576.326 0 .59.258.59.575a.58.58 0 0 1-.59.576m.886 5.754a.59.59 0 0 1-.543-.353.6.6 0 0 1-.047-.223c0-.317.264-.575.589-.575s.59.258.59.576a.583.583 0 0 1-.59.575M5.074 15.833a.73.73 0 0 1-.737-.72c0-.396.33-.718.737-.718s.736.322.736.718-.33.72-.736.72m7.072 2.876a1.02 1.02 0 0 1-1.031-1.008c0-.556.461-1.007 1.031-1.007s1.031.452 1.031 1.008a1.02 1.02 0 0 1-1.03 1.007m-5.598-4.89a1.02 1.02 0 0 1-1.032-1.008 1.02 1.02 0 0 1 1.032-1.007c.57 0 1.03.451 1.03 1.008a1.02 1.02 0 0 1-1.03 1.007m5.598 2.3a.73.73 0 0 1-.737-.719c0-.396.33-.718.737-.718s.737.322.737.718c0 .397-.33.719-.737.719M8.61 9.792a.437.437 0 0 1-.442-.432c0-.238.198-.432.442-.432.245 0 .443.194.443.432a.437.437 0 0 1-.443.432m2.799 1.725a.874.874 0 0 1-.884-.862c0-.477.396-.864.884-.864.487 0 .883.386.883.863a.874.874 0 0 1-.883.864zm2.063.863a.58.58 0 0 1-.59-.576c0-.317.264-.575.59-.575s.588.258.588.575a.58.58 0 0 1-.588.575m1.03-7.191a.437.437 0 0 1-.442-.432c0-.238.198-.432.443-.432.244 0 .442.194.442.432a.437.437 0 0 1-.442.432m-2.062-.001a.73.73 0 0 1-.736-.72.725.725 0 0 1 .736-.718.727.727 0 0 1 .738.719.73.73 0 0 1-.738.719m.443 4.603a.58.58 0 0 1-.589-.576c0-.318.263-.575.589-.575s.589.258.589.575a.58.58 0 0 1-.59.576m-5.599 6.33a.874.874 0 0 1-.883-.864c0-.477.396-.863.883-.863.488 0 .884.386.884.863a.873.873 0 0 1-.884.864m8.545.862a.874.874 0 0 1-.884-.864c0-.476.396-.862.884-.862s.883.386.883.862a.874.874 0 0 1-.883.864m-1.178 2.014a.874.874 0 0 1-.884-.863c0-.477.396-.864.883-.864.488 0 .884.387.884.864a.873.873 0 0 1-.884.862zm-6.924 0a1.02 1.02 0 0 1-1.032-1.008c0-.556.462-1.006 1.032-1.006.569 0 1.03.45 1.03 1.006a1.02 1.02 0 0 1-1.03 1.008m-3.094-7.48a.874.874 0 0 1-.884-.863c0-.476.396-.863.884-.863s.883.386.883.863a.874.874 0 0 1-.883.864"/><path fill="#fff" d="M9.053 12.955c-.651 0-1.18-.515-1.18-1.15 0-.636.529-1.151 1.18-1.151.652 0 1.18.515 1.18 1.15 0 .636-.529 1.15-1.18 1.15m6.187-1.725c-.651 0-1.179-.516-1.179-1.152s.528-1.15 1.18-1.15c.65 0 1.179.515 1.179 1.15 0 .636-.528 1.151-1.18 1.151m3.24 4.89a.874.874 0 0 1-.883-.863c0-.477.396-.863.884-.863.487 0 .883.386.883.863a.873.873 0 0 1-.883.864m.886-3.452a.876.876 0 0 1-.884-.864c0-.476.396-.862.884-.862.487 0 .883.386.883.862a.874.874 0 0 1-.883.864M15.978 8.64a.73.73 0 0 1-.736-.72.727.727 0 0 1 .736-.719.727.727 0 0 1 .737.72.73.73 0 0 1-.737.718m.146-2.302a.58.58 0 0 1-.588-.575c0-.318.264-.575.588-.575.326 0 .59.258.59.575a.583.583 0 0 1-.59.575m1.326.575a.437.437 0 0 1-.442-.431c0-.238.198-.432.442-.432.245 0 .443.194.443.432a.437.437 0 0 1-.442.431m2.358 3.453a.44.44 0 0 1-.442-.432c0-.238.199-.432.443-.432.243 0 .442.194.442.432a.437.437 0 0 1-.442.432M7.14 6.625a.437.437 0 0 1-.442-.431c0-.239.198-.432.442-.432.245 0 .443.193.443.432a.437.437 0 0 1-.443.431m-.589 3.74a.437.437 0 0 1-.442-.432c0-.238.198-.432.442-.432.245 0 .443.194.443.432a.437.437 0 0 1-.443.432m1.18.575a.437.437 0 0 1-.443-.431c0-.239.198-.432.442-.432.245 0 .443.193.443.431a.437.437 0 0 1-.443.433M9.2 5.476a.437.437 0 0 1-.443-.432c0-.238.198-.431.443-.431.244 0 .442.193.442.431a.437.437 0 0 1-.442.432m10.608 8.632a.44.44 0 0 1-.443-.432c0-.239.199-.432.443-.432.243 0 .442.193.442.432a.437.437 0 0 1-.442.432m-1.474-4.604c-.57 0-1.03-.45-1.03-1.006 0-.557.46-1.007 1.03-1.007s1.032.45 1.032 1.007a1.02 1.02 0 0 1-1.032 1.006m-.884 2.301a.73.73 0 0 1-.737-.718c0-.398.33-.719.736-.719a.726.726 0 0 1 .737.719.725.725 0 0 1-.736.718M7.433 8.64a.73.73 0 0 1-.737-.718c0-.398.33-.72.737-.72a.73.73 0 0 1 .737.72.73.73 0 0 1-.737.718m3.24-2.014a.73.73 0 0 1-.737-.718c0-.398.33-.72.737-.72.408 0 .737.323.737.72a.73.73 0 0 1-.737.718m-1.914.288a.58.58 0 0 1-.59-.575c0-.318.264-.575.59-.575s.588.258.588.575a.58.58 0 0 1-.588.575M5.517 9.215a.58.58 0 0 1-.589-.575c0-.317.264-.575.589-.575.326 0 .589.258.589.575a.58.58 0 0 1-.589.575m12.375 4.604a.58.58 0 0 1-.589-.576c0-.318.264-.575.589-.575.326 0 .589.258.589.575a.58.58 0 0 1-.589.576m-6.334.288a1.02 1.02 0 0 1-1.032-1.007c0-.557.462-1.007 1.031-1.007.57 0 1.032.45 1.032 1.007a1.02 1.02 0 0 1-1.032 1.007m-1.916.575a.58.58 0 0 1-.589-.575c0-.318.264-.575.589-.575.326 0 .589.257.589.575a.58.58 0 0 1-.589.575m.294 2.301a.874.874 0 0 1-.883-.864c0-.476.396-.862.883-.862.488 0 .883.386.883.862a.874.874 0 0 1-.883.864m0 1.725a.58.58 0 0 1-.589-.574c0-.319.264-.576.589-.576s.59.258.59.576a.58.58 0 0 1-.59.575z" opacity=".5"/><path fill="#b2a3f6" d="M10.085 9.267c-.57 0-1.031-.451-1.031-1.007a1.02 1.02 0 0 1 1.03-1.007c.57 0 1.032.45 1.032 1.007s-.462 1.007-1.031 1.007m2.945-1.15A1.02 1.02 0 0 1 12 7.11a1.02 1.02 0 0 1 1.031-1.008c.57 0 1.031.451 1.031 1.008 0 .555-.46 1.006-1.03 1.006m1.18 6.903c-.57 0-1.031-.45-1.031-1.007a1.02 1.02 0 0 1 1.03-1.007c.57 0 1.032.45 1.032 1.007s-.462 1.007-1.031 1.007M4.34 13.58a.58.58 0 0 1-.59-.575c0-.317.264-.575.59-.575.324 0 .589.258.589.575a.58.58 0 0 1-.59.575m1.62 3.741a.436.436 0 0 1-.443-.432c0-.238.198-.43.443-.43.244 0 .442.192.442.43a.437.437 0 0 1-.442.432m4.714 2.877a.437.437 0 0 1-.443-.432c0-.239.198-.432.443-.432.244 0 .442.193.442.432a.437.437 0 0 1-.442.432m7.66-2.59a.437.437 0 0 1-.442-.431c0-.239.198-.432.443-.432.244 0 .442.193.442.432a.44.44 0 0 1-.442.432m-4.714-.862a.44.44 0 0 1-.442-.432c0-.238.199-.431.442-.431.244 0 .443.193.443.431a.44.44 0 0 1-.443.432m2.652-2.014a.437.437 0 0 1-.442-.432c0-.238.198-.43.442-.43s.443.192.443.43a.44.44 0 0 1-.443.432M13.18 20.2a.583.583 0 0 1-.59-.576c0-.317.264-.575.59-.575.324 0 .588.257.588.575a.58.58 0 0 1-.588.576m2.65-7.193a.58.58 0 0 1-.588-.575c0-.317.263-.575.589-.575s.589.258.589.575a.58.58 0 0 1-.59.575m.886 5.754a.584.584 0 0 1-.59-.575c0-.318.264-.575.59-.575s.589.257.589.575a.58.58 0 0 1-.59.575m-11.64-2.876a.73.73 0 0 1-.737-.72c0-.396.33-.718.736-.718.407 0 .737.323.737.719s-.33.719-.737.719m7.072 2.876c-.57 0-1.032-.45-1.032-1.007s.462-1.007 1.032-1.007c.569 0 1.03.451 1.03 1.007a1.02 1.02 0 0 1-1.03 1.007m-5.6-4.89a1.02 1.02 0 0 1-1.03-1.007 1.02 1.02 0 0 1 1.03-1.007c.57 0 1.032.45 1.032 1.007a1.02 1.02 0 0 1-1.031 1.007m5.6 2.3a.73.73 0 0 1-.738-.718c0-.397.33-.719.738-.719.406 0 .736.322.736.719s-.33.718-.736.718M8.61 9.843a.437.437 0 0 1-.442-.432c0-.238.198-.432.442-.432.245 0 .443.194.443.432a.437.437 0 0 1-.443.432m2.8 1.725a.874.874 0 0 1-.884-.862c0-.477.396-.864.883-.864.488 0 .884.387.884.863a.874.874 0 0 1-.884.864m2.062.863a.583.583 0 0 1-.589-.575c0-.318.263-.576.589-.576s.589.258.589.576a.58.58 0 0 1-.59.575m1.031-7.191a.437.437 0 0 1-.442-.431c0-.239.198-.432.442-.432.245 0 .443.193.443.432a.437.437 0 0 1-.443.43m-2.062 0a.727.727 0 0 1-.737-.72.73.73 0 0 1 .737-.719.73.73 0 0 1 .737.719.727.727 0 0 1-.737.72m.442 4.602a.58.58 0 0 1-.589-.575c0-.318.264-.576.59-.576s.588.258.588.576a.58.58 0 0 1-.589.575m-5.599 6.33a.874.874 0 0 1-.883-.863c0-.477.396-.864.883-.864.488 0 .884.387.884.863a.873.873 0 0 1-.884.864m8.545.862a.874.874 0 0 1-.883-.864c0-.476.395-.862.883-.862s.884.386.884.862a.874.874 0 0 1-.884.864m-1.177 2.014a.874.874 0 0 1-.885-.863c0-.477.396-.864.884-.864.487 0 .883.387.883.864a.873.873 0 0 1-.883.862zm-6.925 0c-.57 0-1.031-.45-1.031-1.007s.462-1.007 1.03-1.007c.57 0 1.032.45 1.032 1.007a1.02 1.02 0 0 1-1.031 1.007M4.633 11.57a.874.874 0 0 1-.883-.864c0-.476.395-.862.883-.862s.884.386.884.862a.874.874 0 0 1-.884.864"/><path fill="#b2a3f6" d="M9.053 13.006c-.651 0-1.18-.514-1.18-1.15s.529-1.15 1.18-1.15c.652 0 1.18.514 1.18 1.15s-.528 1.15-1.18 1.15m6.187-1.725c-.65 0-1.179-.515-1.179-1.151 0-.635.528-1.15 1.18-1.15s1.18.515 1.18 1.15c0 .636-.529 1.15-1.18 1.15zm3.241 4.89a.874.874 0 0 1-.883-.862c0-.477.396-.864.883-.864.488 0 .884.387.884.863a.873.873 0 0 1-.884.864m.885-3.451a.874.874 0 0 1-.883-.864c0-.477.395-.863.883-.863s.883.386.883.863a.874.874 0 0 1-.883.864m-3.388-4.028a.727.727 0 0 1-.737-.72.727.727 0 0 1 .737-.718.73.73 0 0 1 .736.719.725.725 0 0 1-.736.718zm.146-2.302a.58.58 0 0 1-.589-.575c0-.318.264-.575.589-.575s.59.258.59.575a.583.583 0 0 1-.59.575m1.326.576a.437.437 0 0 1-.443-.432c0-.237.198-.432.443-.432.244 0 .442.194.442.432a.437.437 0 0 1-.442.432m2.358 3.453a.44.44 0 0 1-.443-.432c0-.239.2-.432.443-.432.244 0 .442.193.442.432a.437.437 0 0 1-.442.432M7.138 6.68a.437.437 0 0 1-.443-.432c0-.238.198-.432.442-.432.245 0 .443.194.443.432a.437.437 0 0 1-.443.431m-.59 3.74a.437.437 0 0 1-.442-.432c0-.239.198-.432.443-.432.244 0 .442.193.442.432a.437.437 0 0 1-.442.432m1.18.575a.437.437 0 0 1-.443-.432c0-.239.198-.432.443-.432.244 0 .442.193.442.432a.437.437 0 0 1-.442.432M9.2 5.526a.437.437 0 0 1-.443-.432c0-.238.198-.43.443-.43.244 0 .442.192.442.43a.437.437 0 0 1-.442.432m10.608 8.632a.44.44 0 0 1-.443-.432c0-.238.2-.431.443-.431.244 0 .442.193.442.431a.437.437 0 0 1-.442.432m-1.473-4.603c-.57 0-1.031-.45-1.031-1.007a1.02 1.02 0 0 1 1.03-1.007c.57 0 1.032.45 1.032 1.007a1.02 1.02 0 0 1-1.031 1.007m-.885 2.3a.727.727 0 0 1-.737-.718c0-.397.33-.718.737-.718a.73.73 0 0 1 .736.718.73.73 0 0 1-.736.719M7.433 8.692a.73.73 0 0 1-.737-.718c0-.398.33-.72.737-.72a.73.73 0 0 1 .737.72.73.73 0 0 1-.737.718m3.24-2.013a.73.73 0 0 1-.737-.719c0-.397.33-.72.738-.72.407 0 .736.323.736.72a.725.725 0 0 1-.736.719zm-1.914.288a.58.58 0 0 1-.589-.576c0-.318.263-.575.589-.575s.589.258.589.575a.58.58 0 0 1-.59.576m-3.242 2.3a.58.58 0 0 1-.588-.575c0-.317.263-.575.588-.575.326 0 .59.258.59.575a.58.58 0 0 1-.59.576m12.375 4.604a.58.58 0 0 1-.588-.575c0-.318.263-.575.588-.575.326 0 .59.257.59.575a.58.58 0 0 1-.59.575m-6.334.288c-.57 0-1.031-.45-1.031-1.007s.462-1.007 1.03-1.007c.57 0 1.032.45 1.032 1.007s-.461 1.007-1.031 1.007m-1.916.575a.58.58 0 0 1-.588-.575c0-.318.263-.575.588-.575.326 0 .59.257.59.575a.58.58 0 0 1-.59.575m.294 2.301a.874.874 0 0 1-.882-.864c0-.476.395-.862.882-.862.488 0 .884.386.884.862a.874.874 0 0 1-.884.864m0 1.725a.58.58 0 0 1-.588-.574c0-.318.264-.575.588-.575.325 0 .59.257.59.575a.58.58 0 0 1-.59.575" opacity=".5"/></svg>