<svg width="24" height="24" viewBox="0 0 24 24" fill="none"><path fill="#0cafa5" d="M6.31 7.469c-.025-.015-.045-.003-.045.026v1.727a.1.1 0 0 0 .045.078l2.183 1.262a.1.1 0 0 1 .045.079v6.247a.1.1 0 0 0 .046.079l1.495.862c.025.015.045.003.045-.026V9.726a.1.1 0 0 0-.045-.08zm11.38 0c.025-.015.046-.003.046.026v1.727a.1.1 0 0 1-.045.078l-2.183 1.26a.1.1 0 0 0-.045.08v6.247a.1.1 0 0 1-.046.08l-1.494.862c-.026.015-.046.003-.046-.026V9.726a.1.1 0 0 1 .045-.08z"/><path fill="#0cafa5" d="M17.985 4.157c0-.029-.02-.04-.045-.026L12.045 7.54a.1.1 0 0 1-.09 0L6.06 4.13c-.025-.014-.045-.002-.045.027v1.726a.1.1 0 0 0 .045.079l5.103 2.95a.1.1 0 0 1 .045.08v10.713a.1.1 0 0 0 .045.08l.702.404a.1.1 0 0 0 .091 0l.701-.404a.1.1 0 0 0 .045-.08V8.992a.1.1 0 0 1 .046-.079l5.102-2.951a.1.1 0 0 0 .045-.08zm-5.958 4.362q-.01-.001-.005-.01.006-.008.01 0t-.005.01"/><path fill="#0cafa5" d="M11.26 3.931a.066.066 0 0 0-.052.063V6.15a.1.1 0 0 0 .046.079l.7.405a.1.1 0 0 0 .092 0l.702-.405a.1.1 0 0 0 .045-.08V3.994a.065.065 0 0 0-.051-.063l-.69-.126a.3.3 0 0 0-.103 0z"/></svg>