<svg width="24" height="24" viewBox="0 0 24 24" fill="none"><path fill="#242424" d="M16.693 5.077a.954.954 0 0 1-1.63.674.952.952 0 0 1 .674-1.626c.528 0 .956.426.956.952m-.689 3.318a.81.81 0 0 1-.81-.807c0-.445.363-.806.81-.806a.808.808 0 1 1 0 1.613m-.251 1.99a.683.683 0 1 1 .632-.943.682.682 0 0 1-.632.943m-.04 1.029a.585.585 0 1 1-1.17 0 .585.585 0 0 1 1.17 0m-.926 1.293a.5.5 0 1 1-1.002 0 .5.5 0 0 1 1.003 0zm-1.013.917a.43.43 0 1 1-.86 0 .43.43 0 0 1 .86 0m5.156-5.557a.813.813 0 0 1-1.582-.368.813.813 0 0 1 1.582.368m-.389 2.103a.688.688 0 1 1-1.34-.313.688.688 0 0 1 1.34.313m-.723 1.677a.581.581 0 1 1-1.132-.264.582.582 0 0 1 1.133.264m-.931 1.278a.497.497 0 0 1-.968-.225.498.498 0 0 1 .974.031q.016.098-.006.194m-1.018.891a.428.428 0 1 1-.832-.195.428.428 0 0 1 .832.195m-1.016.564a.367.367 0 0 1-.714-.167.367.367 0 0 1 .714.167m5.328-3.642a.692.692 0 0 1-1.245-.602.692.692 0 0 1 1.245.602m-.72 1.66a.589.589 0 0 1-1.06-.51.591.591 0 0 1 1.085.062.58.58 0 0 1-.026.449m-.907 1.26a.51.51 0 0 1-.937-.053.5.5 0 0 1 .022-.387.508.508 0 0 1 .915.442zm-1.01.892a.44.44 0 0 1-.588.204.44.44 0 1 1 .384-.792.44.44 0 0 1 .248.422.4.4 0 0 1-.043.166m-1.015.549a.377.377 0 0 1-.68-.328.378.378 0 0 1 .68.328m-.955.277a.321.321 0 0 1-.59-.035.32.32 0 1 1 .59.035m.777 3.642a.95.95 0 0 1 .23-1.745.96.96 0 0 1 .724.095.95.95 0 0 1-.229 1.744.96.96 0 0 1-.724-.094zm-2.243-1.15a.803.803 0 0 1 .194-1.477.805.805 0 1 1 .42 1.557.8.8 0 0 1-.614-.08m-1.651-1.38a.68.68 0 0 1 .164-1.25.685.685 0 0 1 .855.747.68.68 0 0 1-.5.571.68.68 0 0 1-.52-.067m-1.126-1.48a.583.583 0 1 1 .584-1.008.583.583 0 0 1-.584 1.008m-.662-1.444a.497.497 0 0 1-.185-.684.503.503 0 0 1 .687-.183.5.5 0 0 1-.12.916.5.5 0 0 1-.382-.05m-.292-1.333a.43.43 0 1 1 .429-.746.43.43 0 0 1-.429.746m2.813 7.444a.81.81 0 1 1 0-1.619.81.81 0 1 1 0 1.62M11 18.272a.684.684 0 0 1 .448-1.186.684.684 0 1 1 .045 1.37.7.7 0 0 1-.493-.184M9.902 16.81a.58.58 0 1 1 .796-.847.577.577 0 0 1 .027.82.584.584 0 0 1-.823.027m-.644-1.443a.493.493 0 0 1 .324-.856.498.498 0 0 1 .481.67.497.497 0 0 1-.805.186m-.267-1.323a.424.424 0 0 1-.02-.6.43.43 0 0 1 .604-.021.425.425 0 0 1-.278.736.43.43 0 0 1-.306-.115m.018-1.16a.365.365 0 1 1 .501-.532.367.367 0 0 1-.501.532m.506 6.42a.69.69 0 0 1 .702-1.065.693.693 0 0 1 .55.806.69.69 0 0 1-.808.549.7.7 0 0 1-.444-.29m-1.084-1.452a.586.586 0 0 1 .596-.906.59.59 0 0 1 .468.686.585.585 0 0 1-.687.466.6.6 0 0 1-.377-.246m-.644-1.412a.505.505 0 0 1 .515-.782.51.51 0 0 1 .405.593.506.506 0 0 1-.595.402.5.5 0 0 1-.325-.213m-.27-1.315a.439.439 0 0 1 .447-.68.443.443 0 0 1 .352.515.44.44 0 0 1-.516.35.44.44 0 0 1-.283-.185m.03-1.152a.375.375 0 0 1 .382-.581.38.38 0 0 1 .242.158.377.377 0 0 1-.624.423m.236-.963a.32.32 0 1 1 .52-.373.32.32 0 0 1-.52.373m-3.555-1.156a.957.957 0 0 1 1.424.701.95.95 0 0 1-.47.949.957.957 0 0 1-1.424-.7.95.95 0 0 1 .47-.95m2.122-1.358a.81.81 0 0 1 1.106.295.806.806 0 0 1-.91 1.182.81.81 0 0 1-.594-.674.805.805 0 0 1 .398-.803m2.026-.732a.686.686 0 0 1 1.02.502.683.683 0 1 1-1.02-.502m1.85-.23a.585.585 0 0 1 .856.656.58.58 0 0 1-.488.426.587.587 0 0 1-.656-.502.58.58 0 0 1 .288-.58m1.586.153a.5.5 0 0 1 .685.184.503.503 0 0 1-.87.5.5.5 0 0 1 .185-.684m1.303.416a.433.433 0 0 1 .633.484.43.43 0 0 1-.679.23.43.43 0 0 1 .046-.714M5.711 8.43a.813.813 0 0 1 1.012.541.813.813 0 0 1-1.555.468.81.81 0 0 1 .543-1.01m2.02-.715a.686.686 0 0 1 .398 1.312.686.686 0 0 1-.398-1.312m1.82-.215a.58.58 0 1 1 .335 1.11.58.58 0 0 1-.335-1.11m1.575.167a.496.496 0 1 1-.17.09.5.5 0 0 1 .17-.09m1.282.433a.426.426 0 0 1 .246.814.425.425 0 1 1-.246-.814m.998.596a.365.365 0 1 1 .212.699.365.365 0 0 1-.213-.7m-5.828-2.78a.69.69 0 1 1 .101 1.377.692.692 0 0 1-.1-1.377zm1.805-.209a.587.587 0 1 1 .027 1.174.587.587 0 0 1-.027-1.174m1.548.153a.508.508 0 0 1 .074 1.011.507.507 0 0 1-.074-1.01m1.278.426a.44.44 0 1 1 .028.88.44.44 0 0 1-.028-.88"/></svg>