<svg width="24" height="24" viewBox="0 0 24 24" fill="none"><path fill="#00d4d5" d="M13.892 3.496v4.092l3.553-2.043z"/><path fill="#00d4d5" d="M17.445 5.545v4.092l3.553-2.049z" opacity=".9"/><path fill="#00d4d5" d="M13.892 7.589v4.092l3.553-2.043zm3.553 2.05v4.091l3.553-2.049z" opacity=".8"/><path fill="#00d4d5" d="M13.892 11.681v4.093l3.553-2.044z" opacity=".8"/><path fill="#00d4d5" d="M17.445 13.73v4.093l3.553-2.049z"/><path fill="#00d4d5" d="M4.707 7.45v4.093l3.554-2.049z" opacity=".4"/><path fill="#00d4d5" d="M9.19 8.972v4.093l3.547-2.044z" opacity=".2"/><path fill="#00d4d5" d="M6.556 11.56v4.093l3.552-2.049z" opacity=".3"/><path fill="#00d4d5" d="M8.897 14.649v4.093l3.548-2.05z" opacity=".9"/><path fill="#00d4d5" d="M13.862 16.41v4.094l3.548-2.05z" opacity=".7"/><path fill="#00d4d5" d="M9.781 6.95v4.094l3.548-2.043z" opacity=".9"/><path fill="#00d4d5" d="M13.892 3.496v4.092l-3.554-2.043z" opacity=".8"/><path fill="#00d4d5" d="M9.781 5.236v4.092l-3.554-2.05zm3.554 2.024v4.094l-3.554-2.05z" opacity=".6"/><path fill="#00d4d5" d="M9.173 8.972v4.093L5.62 11.02z" opacity=".95"/><path fill="#00d4d5" d="M13.892 11.681v4.093l-3.548-2.044z" opacity=".6"/><path fill="#00d4d5" d="M6.556 12.635v4.092l-3.554-2.05z" opacity=".55"/><path fill="#00d4d5" d="M20.998 7.589v4.092l-3.553-2.043z"/><path fill="#00d4d5" d="M17.445 9.638v4.092l-3.553-2.049z" opacity=".95"/><path fill="#00d4d5" d="M20.998 11.681v4.093l-3.553-2.044z" opacity=".9"/><path fill="#00d4d5" d="M17.445 13.73v4.093l-3.553-2.049z" opacity=".7"/><path fill="#00d4d5" d="M13.105 15.436v4.093l-3.553-2.044z" opacity=".4"/><path fill="#00d4d5" d="M17.445 5.545v4.092l-3.553-2.049z"/></svg>