<svg width="24" height="24" viewBox="0 0 24 24" fill="none"><path fill="#102044" d="M18.04 14.512a.863.863 0 0 1-.291 1.675.9.9 0 0 1-.433-.105l-4.523 2.468a.871.871 0 0 1-1.472.71.87.87 0 0 1-.27-.608l-2.205-1.263h-.05v-.026l-2.324-1.328a.87.87 0 0 1-.493.153.87.87 0 0 1-.866-.745.865.865 0 0 1 .624-.953V9.528a.87.87 0 0 1-.63-.76.865.865 0 0 1 .494-.853.88.88 0 0 1 .98.155l4.477-2.565A.87.87 0 0 1 11.92 4.5a.87.87 0 0 1 .853 1.05l4.371 2.503a.87.87 0 0 1 .584-.223.864.864 0 1 1 .312 1.675v5.008m-3.088-1.953v4.262l2.004-1.093a.87.87 0 0 1 .598-1.255V9.545a.87.87 0 0 1-.669-1.086l-1.9-1.089v3.963h-.002l-.008.26-.107.05-.685.41.655.39.104.049.003.046.004.02zm-3.03-6.327a.87.87 0 0 1-.652-.29L9.283 7.08v4.209l.816.486 1.03-.606a.769.769 0 0 1 1.08-.844.77.77 0 0 1 .441.814l1.064.633.79-.473V7.093l-1.961-1.122a.87.87 0 0 1-.621.26m.51 6.316.812-.489-.816-.487a.776.776 0 0 1-1.064.018l-.802.465.799.477a.776.776 0 0 1 1.07.016m-5.646 3.11 2.01 1.152V12.69l.004-.132.033-.034.168-.1.624-.366-.564-.333-.261-.133v-.16h-.003V7.357l-1.971 1.13c.116.45-.15.91-.6 1.038v4.968a.87.87 0 0 1 .542.458.86.86 0 0 1 .018.707m5.136 2.095c.273 0 .53.128.694.347l1.853-1.013v-4.302l-.755-.45-1.065.64q.011.056.01.112a.77.77 0 0 1-1.097.695.77.77 0 0 1-.432-.83l-1.045-.62-.805.47v4.285l1.893 1.085a.87.87 0 0 1 .749-.419"/></svg>