<svg xmlns="http://www.w3.org/2000/svg" width="24" height="24" viewBox="0 0 24 24" fill="none"><path fill="#fff" fill-rule="evenodd" d="M10.346 2.963a.5.5 0 1 1 .194.98 8.2 8.2 0 0 0-2.96 1.22.5.5 0 1 1-.553-.833 9 9 0 0 1 1.593-.846l.188.458-.188-.458a9 9 0 0 1 1.726-.521m3.002.399a.5.5 0 0 1 .589-.391 9.3 9.3 0 0 1 3.313 1.38.5.5 0 1 1-.556.83 8.3 8.3 0 0 0-2.955-1.23.5.5 0 0 1-.391-.59M5.177 6.727a.5.5 0 0 1 .137.694 8.3 8.3 0 0 0-1.231 2.955.5.5 0 0 1-.98-.198 9.3 9.3 0 0 1 1.38-3.314.5.5 0 0 1 .694-.137m13.914.028a.5.5 0 0 1 .693.14 9.2 9.2 0 0 1 1.367 3.32.5.5 0 1 1-.98.193 8.2 8.2 0 0 0-1.22-2.96.5.5 0 0 1 .14-.693M3.488 13.18a.5.5 0 0 1 .588.393 8.2 8.2 0 0 0 1.219 2.96.5.5 0 0 1-.833.554 9 9 0 0 1-.846-1.594l.458-.188-.458.189a9 9 0 0 1-.521-1.727.5.5 0 0 1 .393-.587m17.264.035a.5.5 0 0 1 .391.589 9.3 9.3 0 0 1-1.38 3.313.5.5 0 0 1-.83-.556 8.3 8.3 0 0 0 1.23-2.955.5.5 0 0 1 .59-.391M6.86 18.938a.5.5 0 0 1 .694-.138 8.3 8.3 0 0 0 2.954 1.231.5.5 0 1 1-.198.98 9.3 9.3 0 0 1-3.313-1.38.5.5 0 0 1-.137-.694m10.5.021a.5.5 0 0 1-.14.693 9.3 9.3 0 0 1-3.32 1.369.5.5 0 1 1-.194-.98 8 8 0 0 0 1.54-.466l.19.462-.19-.462a8 8 0 0 0 1.42-.754.5.5 0 0 1 .694.14M12.137 6.951a.48.48 0 0 1 .415.24l2.593 4.491 2.858-1.91a.48.48 0 0 1 .736.5l-1.12 5.201-.487-.13a21 21 0 0 0-2.957-.592l-.064-.008a17 17 0 0 0-2.157-.117 17 17 0 0 0-1.792.117l-.064.008a21 21 0 0 0-2.957.591l-.487.131-1.12-5.202a.48.48 0 0 1 .736-.5l2.858 1.911 2.593-4.49a.48.48 0 0 1 .416-.24m-3.49 5.564-1.925-1.287.659 3.06q.491-.122.97-.22a1.19 1.19 0 0 1 .044-1.117zm1.393 1.276h-.605a.24.24 0 0 1-.208-.36l.22-.38 1.037.693q-.222.021-.444.047m3.75-.047q.22.021.443.047h.606c.184 0 .3-.2.207-.36l-.22-.38zm.555-1.527-1.728-2.994v4.15zm-2.688 1.156-1.73-1.156 1.73-2.994zm3.97-.858.25.436c.214.369.206.78.045 1.116q.48.099.97.222l.659-3.06zm-3.49 3.597-.183.001c-1.256.014-2.521.174-3.877.484a1.125 1.125 0 0 1-1.299-.66c1.782-.48 3.53-.765 5.165-.784a18 18 0 0 1 .387 0c1.635.018 3.383.305 5.165.784-.208.51-.762.782-1.299.66-1.356-.31-2.62-.47-3.877-.484z" clip-rule="evenodd"/></svg>