<svg version="1.1" id="Layer_1" xmlns="http://www.w3.org/2000/svg" xmlns:xlink="http://www.w3.org/1999/xlink" x="0px" y="0px"
	 width="100%" viewBox="0 0 400 400" enable-background="new 0 0 400 400" xml:space="preserve">
<path fill="#142552" opacity="1.000000" stroke="none" 
	d="
M269.000000,401.000000 
	C179.361191,401.000000 90.222389,401.000000 1.041790,401.000000 
	C1.041790,267.736206 1.041790,134.472382 1.041790,1.104279 
	C134.222092,1.104279 267.444275,1.104279 400.833252,1.104279 
	C400.833252,134.333160 400.833252,267.666565 400.833252,401.000000 
	C357.139130,401.000000 313.319550,401.000000 269.000000,401.000000 
M117.844833,319.695740 
	C118.517532,320.845154 119.379501,321.925110 119.830879,323.155701 
	C122.042336,329.184784 126.203423,330.577545 132.527786,330.536835 
	C179.680206,330.233185 226.835678,330.335999 273.989716,330.474304 
	C277.680786,330.485168 279.520142,329.186066 281.345459,326.094147 
	C304.193481,287.392120 326.986511,248.653656 350.361816,210.270554 
	C354.606445,203.300705 355.012268,198.346680 350.303131,191.658127 
	C344.220886,183.019302 339.302429,173.561111 333.612152,164.001022 
	C332.377991,165.977219 331.479950,167.355804 330.639832,168.768860 
	C306.566864,209.261383 282.476807,249.743851 258.488495,290.286499 
	C257.053101,292.712463 255.546921,293.712830 252.687241,293.705597 
	C218.529831,293.619293 184.371826,293.708771 150.215073,293.537170 
	C148.368668,293.527893 145.749969,292.081238 144.806458,290.512390 
	C127.560890,261.837036 110.554497,233.017914 93.364861,204.308640 
	C91.841988,201.765213 92.019897,199.981857 93.463768,197.566269 
	C110.460770,169.130600 127.391319,140.654953 144.229904,112.125214 
	C145.843796,109.390778 147.508789,108.243752 150.878998,108.266144 
	C177.370834,108.442192 203.864578,108.384705 230.357178,108.270813 
	C232.118713,108.263245 234.752945,107.749359 235.498337,106.549629 
	C242.495865,95.286873 249.170013,83.823212 256.164520,72.035172 
	C254.972748,71.826355 254.376434,71.630524 253.780106,71.630417 
	C211.624420,71.622635 169.468536,71.587402 127.313766,71.789055 
	C125.565506,71.797424 123.169487,73.640221 122.181747,75.290627 
	C98.247276,115.282883 74.520020,155.399185 50.567146,195.380341 
	C48.114662,199.473923 48.092224,202.499054 50.562187,206.621094 
	C72.980621,244.034332 95.175514,281.581512 117.844833,319.695740 
M197.499969,256.752014 
	C208.499252,256.752106 219.503220,256.916199 230.493530,256.602325 
	C232.491669,256.545227 235.269760,255.035172 236.279739,253.351303 
	C260.869171,212.354965 285.303772,171.265350 309.568970,130.076309 
	C310.545471,128.418732 310.384827,125.184616 309.409729,123.433655 
	C303.819336,113.395088 297.833862,103.576096 291.946777,93.703865 
	C291.309235,92.634735 290.442566,91.702248 289.292908,90.196609 
	C282.104401,102.277847 275.214630,113.845848 268.335632,125.420235 
	C250.632446,155.206970 232.960617,185.012451 215.168823,214.746155 
	C214.079758,216.566223 212.134735,219.026566 210.454330,219.135956 
	C204.002930,219.555984 196.959549,220.609879 191.203827,218.507141 
	C187.479614,217.146576 185.608658,210.712296 182.908630,206.550674 
	C182.636551,206.131287 182.415421,205.671600 182.100204,205.288574 
	C179.766296,202.452515 180.099365,199.880814 182.010406,196.740997 
	C191.362076,181.376175 200.478088,165.867798 209.651840,150.394989 
	C210.514877,148.939331 211.199661,147.377975 212.278793,145.251785 
	C197.962082,145.251785 184.642868,145.153305 171.329422,145.385391 
	C169.789780,145.412216 167.706635,146.926376 166.847626,148.341202 
	C156.905045,164.716766 147.075150,181.162766 137.463181,197.733826 
	C136.526428,199.348755 136.407166,202.403488 137.316559,203.975098 
	C146.994949,220.701447 156.894516,237.301773 166.952866,253.802887 
	C167.845566,255.267426 170.254440,256.556946 172.006531,256.620453 
	C180.161880,256.916046 188.333893,256.751587 197.499969,256.752014 
z"/>
<path fill="#FDFDFE" opacity="1.000000" stroke="none" 
	d="
M117.640335,319.392609 
	C95.175514,281.581512 72.980621,244.034332 50.562187,206.621094 
	C48.092224,202.499054 48.114662,199.473923 50.567146,195.380341 
	C74.520020,155.399185 98.247276,115.282883 122.181747,75.290627 
	C123.169487,73.640221 125.565506,71.797424 127.313766,71.789055 
	C169.468536,71.587402 211.624420,71.622635 253.780106,71.630417 
	C254.376434,71.630524 254.972748,71.826355 256.164520,72.035172 
	C249.170013,83.823212 242.495865,95.286873 235.498337,106.549629 
	C234.752945,107.749359 232.118713,108.263245 230.357178,108.270813 
	C203.864578,108.384705 177.370834,108.442192 150.878998,108.266144 
	C147.508789,108.243752 145.843796,109.390778 144.229904,112.125214 
	C127.391319,140.654953 110.460770,169.130600 93.463768,197.566269 
	C92.019897,199.981857 91.841988,201.765213 93.364861,204.308640 
	C110.554497,233.017914 127.560890,261.837036 144.806458,290.512390 
	C145.749969,292.081238 148.368668,293.527893 150.215073,293.537170 
	C184.371826,293.708771 218.529831,293.619293 252.687241,293.705597 
	C255.546921,293.712830 257.053101,292.712463 258.488495,290.286499 
	C282.476807,249.743851 306.566864,209.261383 330.639832,168.768860 
	C331.479950,167.355804 332.377991,165.977219 333.612152,164.001022 
	C339.302429,173.561111 344.220886,183.019302 350.303131,191.658127 
	C355.012268,198.346680 354.606445,203.300705 350.361816,210.270554 
	C326.986511,248.653656 304.193481,287.392120 281.345459,326.094147 
	C279.520142,329.186066 277.680786,330.485168 273.989716,330.474304 
	C226.835678,330.335999 179.680206,330.233185 132.527786,330.536835 
	C126.203423,330.577545 122.042336,329.184784 119.830879,323.155701 
	C119.379501,321.925110 118.517532,320.845154 117.640335,319.392609 
z"/>
<path fill="#CA051D" opacity="1.000000" stroke="none" 
	d="
M196.999969,256.751831 
	C188.333893,256.751587 180.161880,256.916046 172.006531,256.620453 
	C170.254440,256.556946 167.845566,255.267426 166.952866,253.802887 
	C156.894516,237.301773 146.994949,220.701447 137.316559,203.975098 
	C136.407166,202.403488 136.526428,199.348755 137.463181,197.733826 
	C147.075150,181.162766 156.905045,164.716766 166.847626,148.341202 
	C167.706635,146.926376 169.789780,145.412216 171.329422,145.385391 
	C184.642868,145.153305 197.962082,145.251785 212.278793,145.251785 
	C211.199661,147.377975 210.514877,148.939331 209.651840,150.394989 
	C200.478088,165.867798 191.362076,181.376175 182.010406,196.740997 
	C180.099365,199.880814 179.766296,202.452515 182.100204,205.288574 
	C182.415421,205.671600 182.636551,206.131287 182.908630,206.550674 
	C185.608658,210.712296 187.479614,217.146576 191.203827,218.507141 
	C196.959549,220.609879 204.002930,219.555984 210.454330,219.135956 
	C212.134735,219.026566 214.079758,216.566223 215.168823,214.746155 
	C232.960617,185.012451 250.632446,155.206970 268.335632,125.420235 
	C275.214630,113.845848 282.104401,102.277847 289.292908,90.196609 
	C290.442566,91.702248 291.309235,92.634735 291.946777,93.703865 
	C297.833862,103.576096 303.819336,113.395088 309.409729,123.433655 
	C310.384827,125.184616 310.545471,128.418732 309.568970,130.076309 
	C285.303772,171.265350 260.869171,212.354965 236.279739,253.351303 
	C235.269760,255.035172 232.491669,256.545227 230.493530,256.602325 
	C219.503220,256.916199 208.499252,256.752106 196.999969,256.751831 
z"/>
</svg>