<svg width="24" height="24" viewBox="0 0 24 24" fill="none">
<path d="M12 20.8125C7.1325 20.8125 3.1875 16.8675 3.1875 12C3.1875 7.1325 7.1325 3.1875 12 3.1875C16.8675 3.1875 20.8125 7.1325 20.8125 12C20.8125 14.3372 19.884 16.5787 18.2314 18.2314C16.5787 19.884 14.3372 20.8125 12 20.8125ZM11.475 8.73C10.9928 8.75391 10.537 8.9572 10.197 9.29995C9.85706 9.6427 9.65749 10.1002 9.6375 10.5825C9.6375 11.49 10.1925 12.0825 11.37 12.33L12.195 12.525C12.9975 12.7125 13.3275 12.9825 13.3275 13.44C13.3275 13.8975 12.75 14.3475 12 14.3475C11.7336 14.3719 11.4657 14.3209 11.227 14.2002C10.9882 14.0795 10.7883 13.894 10.65 13.665C10.609 13.5781 10.5444 13.5045 10.4634 13.4528C10.3825 13.4011 10.2886 13.3732 10.1925 13.3725H9.75C9.71597 13.3788 9.68353 13.3918 9.65453 13.4107C9.62553 13.4296 9.60056 13.454 9.58104 13.4826C9.56152 13.5111 9.54785 13.5433 9.5408 13.5772C9.53376 13.6111 9.53349 13.646 9.54 13.68C9.64779 14.1199 9.8984 14.5117 10.2526 14.794C10.6068 15.0762 11.0446 15.2331 11.4975 15.24V15.87C11.4975 16.0102 11.5532 16.1447 11.6524 16.2439C11.7515 16.343 11.886 16.3988 12.0262 16.3988C12.1665 16.3988 12.301 16.343 12.4001 16.2439C12.4993 16.1447 12.555 16.0102 12.555 15.87V15.2325C13.0671 15.2267 13.5567 15.0212 13.9195 14.6598C14.2823 14.2984 14.4897 13.8096 14.4975 13.2975C14.4975 12.345 13.95 11.7975 12.6525 11.52L11.9025 11.355C11.1525 11.1675 10.8 10.92 10.8 10.5C10.8 10.08 11.25 9.615 12 9.615C12.2362 9.59033 12.4745 9.63456 12.6861 9.74237C12.8977 9.85017 13.0736 10.0169 13.1925 10.2225C13.2407 10.3252 13.317 10.4121 13.4126 10.4731C13.5082 10.5342 13.6191 10.5669 13.7325 10.5675H14.085C14.1651 10.5479 14.2344 10.4976 14.2779 10.4275C14.3214 10.3574 14.3356 10.273 14.3175 10.1925C14.2159 9.78633 13.9886 9.42262 13.6681 9.15326C13.3475 8.8839 12.9501 8.72264 12.5325 8.6925V8.175C12.5325 8.03477 12.4768 7.90028 12.3776 7.80112C12.2785 7.70196 12.144 7.64625 12.0037 7.64625C11.8635 7.64625 11.729 7.70196 11.6299 7.80112C11.5307 7.90028 11.475 8.03477 11.475 8.175V8.73ZM5.3925 12C5.39336 13.3816 5.82823 14.7279 6.63569 15.8489C7.44315 16.97 8.58239 17.809 9.8925 18.2475H9.9975C10.087 18.2475 10.1729 18.2119 10.2361 18.1486C10.2994 18.0854 10.335 17.9995 10.335 17.91V17.7525C10.3352 17.6129 10.294 17.4763 10.2166 17.3602C10.1392 17.244 10.029 17.1535 9.9 17.1C8.8797 16.6882 8.00576 15.9808 7.39034 15.0688C6.77492 14.1567 6.44611 13.0815 6.44611 11.9813C6.44611 10.881 6.77492 9.8058 7.39034 8.89374C8.00576 7.98167 8.8797 7.27433 9.9 6.8625C10.0284 6.81035 10.1383 6.72116 10.2158 6.60628C10.2933 6.49141 10.3348 6.35606 10.335 6.2175V6.045C10.3355 5.99435 10.3238 5.94433 10.3008 5.89919C10.2778 5.85404 10.2443 5.81509 10.2031 5.78565C10.1619 5.75621 10.1142 5.73715 10.064 5.73007C10.0139 5.72299 9.96275 5.72811 9.915 5.745C8.59947 6.18007 7.45447 7.01858 6.64262 8.14143C5.83078 9.26429 5.39336 10.6144 5.3925 12ZM18.6075 12C18.6051 10.6197 18.1695 9.27504 17.3621 8.15551C16.5548 7.03599 15.4164 6.1981 14.1075 5.76H13.995C13.9015 5.76 13.8119 5.79714 13.7457 5.86325C13.6796 5.92935 13.6425 6.01901 13.6425 6.1125V6.225C13.6455 6.36965 13.6903 6.51034 13.7715 6.63011C13.8527 6.74987 13.9668 6.8436 14.1 6.9C15.118 7.31303 15.9895 8.02042 16.6032 8.93163C17.2168 9.84284 17.5446 10.9164 17.5446 12.015C17.5446 13.1136 17.2168 14.1872 16.6032 15.0984C15.9895 16.0096 15.118 16.717 14.1 17.13C13.9693 17.187 13.8576 17.28 13.7779 17.3983C13.6982 17.5165 13.6538 17.655 13.65 17.7975V17.925C13.6506 17.9806 13.6644 18.0353 13.6902 18.0845C13.716 18.1338 13.7531 18.1762 13.7985 18.2084C13.8438 18.2406 13.8961 18.2616 13.9511 18.2697C14.0062 18.2778 14.0623 18.2727 14.115 18.255C15.4249 17.8148 16.5634 16.9741 17.3695 15.8517C18.1757 14.7293 18.6087 13.3819 18.6075 12Z" fill="#2775C9"/>
</svg>
