<svg width="24" height="24" viewBox="0 0 24 24">
  <path fill="#70c7ba" fill-rule="nonzero" d="M22.3,7.5h0c-.6-1.4-1.5-2.6-2.5-3.7-1-1-2.3-1.8-3.7-2.4-1.3-.6-2.8-.8-4.3-.8s-3.1,0-4.4.6c-1.4.6-2.5,1.6-3.6,2.7-1,1-2.2,2.1-2.8,3.5-.6,1.3-.4,2.9-.4,4.5s.1,3,.7,4.3c.6,1.4,1.7,2.3,2.8,3.4,1,1,2,2.3,3.3,2.8,1.3.6,2.9.9,4.4.9s3-.5,4.3-1c1.4-.6,2.6-1.5,3.6-2.5,1-1,1.9-2.3,2.4-3.7.6-1.3,1.2-2.8,1.2-4.3s-.5-3-1.1-4.4h0ZM15,18.4h0l-2.4-.4.7-4.7-5,3.9-1.5-1.9,4.4-3.4-4.4-3.4,1.5-1.9,5,3.9-.7-4.7,2.4-.4,1,6.5-1,6.5Z"/>
</svg>