<svg width="24" height="24" viewBox="0 0 24 24" fill="none">
<path fill-rule="evenodd" clip-rule="evenodd" d="M10.2758 13.5052V9.89249H11.1195C11.3018 9.89249 11.4495 10.038 11.4495 10.2172V10.5292C11.4495 10.8682 11.7435 11.1592 12.0863 11.1592C12.429 11.1592 12.6893 10.8682 12.6893 10.5292V10.2292C12.6893 10.0432 12.8415 9.89174 13.0305 9.89174H13.9703V10.8052C13.9703 10.9912 13.8173 11.1427 13.629 11.1427H13.3102C13.1467 11.1419 12.9896 11.206 12.8732 11.3208C12.7568 11.4357 12.6906 11.592 12.6893 11.7555C12.6893 12.0937 13.0072 12.3682 13.35 12.3682H13.6312C13.8187 12.3682 13.9703 12.5182 13.9703 12.7027V13.5052H14.727C14.9895 13.5052 15.2017 13.7137 15.2017 13.9702V14.2455C15.2017 14.502 14.9887 14.7105 14.727 14.7105H14.445C14.3833 14.7112 14.322 14.6997 14.2648 14.6767C14.2075 14.6537 14.1553 14.6196 14.1112 14.5764C14.0671 14.5332 14.032 14.4818 14.0078 14.425C13.9836 14.3682 13.9708 14.3072 13.9703 14.2455V13.626H13.0275C12.84 13.626 12.6893 13.476 12.6893 13.2915V12.9825C12.6861 12.8165 12.6184 12.6583 12.5005 12.5415C12.3826 12.4247 12.2237 12.3585 12.0577 12.357C11.715 12.357 11.4488 12.657 11.4488 13.0132V13.2937C11.4488 13.4775 11.2988 13.626 11.1128 13.626H10.2758V14.2455C10.2758 14.502 10.0635 14.7105 9.801 14.7105H9.51975C9.45803 14.7112 9.39678 14.6997 9.3395 14.6767C9.28223 14.6537 9.23005 14.6196 9.18595 14.5764C9.14186 14.5332 9.10671 14.4818 9.08253 14.425C9.05834 14.3682 9.04559 14.3072 9.045 14.2455V13.9702C9.045 13.7137 9.25725 13.5052 9.51975 13.5052H10.2758ZM14.727 9.77174H13.9695V9.03224C13.9695 8.77574 14.1825 8.56724 14.445 8.56724H14.727C14.9895 8.56724 15.2017 8.77574 15.2017 9.03224V9.30749C15.2017 9.56399 14.9887 9.77249 14.727 9.77249V9.77174ZM10.2758 9.77174H9.51975C9.45809 9.77243 9.3969 9.76097 9.33968 9.73801C9.28245 9.71506 9.2303 9.68105 9.18622 9.63794C9.14213 9.59483 9.10697 9.54346 9.08274 9.48676C9.05851 9.43006 9.04569 9.36914 9.045 9.30749V9.03224C9.045 8.77574 9.25725 8.56724 9.51975 8.56724H9.801C10.0635 8.56724 10.2758 8.77574 10.2758 9.03224V9.77174ZM11.982 8.68799C11.9203 8.68868 11.859 8.6772 11.8018 8.65419C11.7445 8.63119 11.6923 8.59712 11.6482 8.55393C11.6041 8.51074 11.569 8.45928 11.5448 8.40249C11.5206 8.3457 11.5078 8.28471 11.5073 8.22299V7.94774C11.5073 7.69124 11.7202 7.48349 11.982 7.48349H12.264C12.5265 7.48349 12.7388 7.69124 12.7388 7.94849V8.22374C12.7381 8.28539 12.7252 8.34631 12.701 8.40301C12.6768 8.45971 12.6416 8.51108 12.5975 8.55419C12.5534 8.5973 12.5013 8.63131 12.4441 8.65426C12.3868 8.67722 12.3257 8.68868 12.264 8.68799H11.982ZM11.982 16.035C11.9203 16.0357 11.859 16.0242 11.8018 16.0012C11.7445 15.9782 11.6923 15.9441 11.6482 15.9009C11.6041 15.8577 11.569 15.8063 11.5448 15.7495C11.5206 15.6927 11.5078 15.6317 11.5073 15.57V15.2947C11.5073 15.0382 11.7202 14.8297 11.982 14.8297H12.264C12.5265 14.8297 12.7388 15.0382 12.7388 15.2947V15.5707C12.7381 15.6324 12.7252 15.6933 12.701 15.75C12.6768 15.8067 12.6416 15.8581 12.5975 15.9012C12.5534 15.9443 12.5013 15.9783 12.4441 16.0013C12.3868 16.0242 12.3257 16.0357 12.264 16.035H11.982ZM15.6765 12.3007C15.6148 12.3014 15.5537 12.29 15.4964 12.267C15.4392 12.2441 15.3871 12.2101 15.343 12.1669C15.2989 12.1238 15.2637 12.0725 15.2395 12.0158C15.2153 11.9591 15.2024 11.8981 15.2017 11.8365V11.5612C15.2017 11.3047 15.414 11.0962 15.6765 11.0962H15.9578C16.2203 11.0962 16.4325 11.3047 16.4325 11.5612V11.8365C16.4325 12.093 16.2203 12.3015 15.9578 12.3015L15.6765 12.3007ZM8.16525 12.3007C8.10359 12.3014 8.0424 12.29 7.98518 12.267C7.92795 12.2441 7.8758 12.2101 7.83172 12.1669C7.78763 12.1238 7.75247 12.0725 7.72824 12.0158C7.70401 11.9591 7.69119 11.8981 7.6905 11.8365V11.5612C7.6905 11.3047 7.90275 11.0962 8.16525 11.0962H8.4465C8.709 11.0962 8.922 11.3047 8.922 11.5612V11.8365C8.922 12.093 8.709 12.3015 8.4465 12.3015L8.16525 12.3007ZM13.9897 16.0665C14.0948 16.0237 14.2124 16.0237 14.3175 16.0665C14.4226 16.1092 14.5068 16.1913 14.5522 16.2952C14.5738 16.3466 14.5849 16.4017 14.5848 16.4574C14.5847 16.513 14.5735 16.5681 14.5519 16.6194C14.5302 16.6707 14.4985 16.7172 14.4587 16.756C14.4188 16.7949 14.3716 16.8254 14.3197 16.8457C14.2148 16.8885 14.0972 16.8886 13.9922 16.8461C13.8871 16.8035 13.8028 16.7215 13.7572 16.6177C13.7357 16.5663 13.7246 16.5112 13.7247 16.4554C13.7247 16.3997 13.7359 16.3446 13.7576 16.2932C13.7792 16.2419 13.8109 16.1954 13.8508 16.1564C13.8907 16.1175 13.9379 16.0869 13.9897 16.0665ZM10.05 6.67274C10.155 6.62995 10.2725 6.62984 10.3776 6.67242C10.4826 6.71501 10.5669 6.79693 10.6125 6.90074C10.6339 6.95208 10.6449 7.00719 10.6448 7.06284C10.6447 7.11848 10.6335 7.17354 10.6118 7.2248C10.5902 7.27606 10.5585 7.32249 10.5187 7.36137C10.4789 7.40025 10.4318 7.4308 10.38 7.45124C10.2749 7.49425 10.1572 7.49448 10.052 7.45188C9.94673 7.40928 9.86231 7.32723 9.81675 7.22324C9.79531 7.17189 9.78433 7.11678 9.78444 7.06114C9.78456 7.00549 9.79576 6.95043 9.81741 6.89917C9.83906 6.84791 9.87072 6.80148 9.91053 6.7626C9.95033 6.72372 9.99749 6.69317 10.0493 6.67274H10.05ZM16.4655 9.99374C16.444 9.9423 16.4329 9.88708 16.433 9.83132C16.4331 9.77556 16.4444 9.72038 16.4661 9.66902C16.4878 9.61767 16.5196 9.57117 16.5596 9.53227C16.5995 9.49337 16.6468 9.46284 16.6987 9.44249C16.8037 9.3997 16.9213 9.39959 17.0263 9.44217C17.1314 9.48476 17.2157 9.56668 17.2612 9.67049C17.2828 9.72188 17.2939 9.77705 17.2938 9.83278C17.2938 9.88851 17.2826 9.94366 17.2609 9.99501C17.2393 10.0464 17.2076 10.0929 17.1677 10.1318C17.1278 10.1707 17.0806 10.2013 17.0287 10.2217C16.9238 10.2645 16.8062 10.2646 16.7012 10.2221C16.5961 10.1795 16.5118 10.0975 16.4662 9.99374H16.4655ZM6.984 13.8472C6.96258 13.7958 6.95163 13.7407 6.9518 13.685C6.95196 13.6293 6.96324 13.5742 6.98496 13.523C7.00668 13.4717 7.03842 13.4253 7.0783 13.3864C7.11819 13.3476 7.16543 13.3171 7.21725 13.2967C7.3223 13.2535 7.4401 13.2532 7.5454 13.2958C7.65069 13.3384 7.73509 13.4206 7.7805 13.5247C7.80194 13.5761 7.81292 13.6312 7.81281 13.6868C7.81269 13.7425 7.80149 13.7975 7.77984 13.8488C7.75819 13.9001 7.72653 13.9465 7.68672 13.9854C7.64692 14.0243 7.59976 14.0548 7.548 14.0752C7.44284 14.1185 7.32493 14.1188 7.21952 14.0762C7.1141 14.0336 7.02956 13.9514 6.984 13.8472ZM6.984 9.67049C7.02956 9.56649 7.11398 9.48444 7.21922 9.44184C7.32446 9.39924 7.44218 9.39947 7.54725 9.44249C7.59916 9.46284 7.64649 9.49337 7.68644 9.53227C7.72639 9.57117 7.75816 9.61767 7.77989 9.66902C7.80162 9.72038 7.81287 9.77556 7.81297 9.83132C7.81308 9.88708 7.80204 9.9423 7.7805 9.99374C7.73494 10.0975 7.65065 10.1795 7.54559 10.2221C7.44052 10.2646 7.32298 10.2645 7.218 10.2217C7.16602 10.2015 7.11862 10.171 7.07859 10.1321C7.03856 10.0932 7.00671 10.0468 6.9849 9.99539C6.9631 9.94403 6.95179 9.88883 6.95163 9.83303C6.95148 9.77723 6.96248 9.72197 6.984 9.67049ZM13.8668 7.45124C13.815 7.4308 13.7678 7.40025 13.728 7.36137C13.6882 7.32249 13.6566 7.27606 13.6349 7.2248C13.6133 7.17354 13.6021 7.11848 13.6019 7.06284C13.6018 7.00719 13.6128 6.95208 13.6343 6.90074C13.6798 6.79693 13.7641 6.71501 13.8692 6.67242C13.9742 6.62984 14.0918 6.62995 14.1968 6.67274C14.2485 6.69317 14.2957 6.72372 14.3355 6.7626C14.3753 6.80148 14.4069 6.84791 14.4286 6.89917C14.4502 6.95043 14.4614 7.00549 14.4616 7.06114C14.4617 7.11678 14.4507 7.17189 14.4293 7.22324C14.3837 7.32704 14.2994 7.40896 14.1943 7.45155C14.0893 7.49414 13.9717 7.49402 13.8668 7.45124ZM16.4655 13.5247C16.5109 13.4208 16.5952 13.3388 16.7003 13.2961C16.8054 13.2535 16.923 13.2538 17.028 13.2967C17.0799 13.317 17.1272 13.3475 17.1672 13.3863C17.2071 13.4251 17.239 13.4715 17.2607 13.5228C17.2825 13.5741 17.2939 13.6292 17.2941 13.6849C17.2943 13.7406 17.2834 13.7958 17.262 13.8472C17.2164 13.951 17.1321 14.033 17.0271 14.0756C16.922 14.1181 16.8045 14.118 16.6995 14.0752C16.6476 14.0549 16.6003 14.0245 16.5603 13.9857C16.5204 13.9469 16.4885 13.9005 16.4668 13.8492C16.445 13.7979 16.4336 13.7428 16.4334 13.6871C16.4332 13.6314 16.4441 13.5762 16.4655 13.5247ZM9.80325 16.9657C9.75143 16.9454 9.7042 16.9149 9.66434 16.876C9.62447 16.8372 9.59278 16.7907 9.57112 16.7394C9.54946 16.6881 9.53827 16.633 9.5382 16.5774C9.53814 16.5217 9.54921 16.4666 9.57075 16.4152C9.61631 16.3114 9.7006 16.2295 9.80567 16.1869C9.91073 16.1443 10.0283 16.1445 10.1332 16.1872C10.185 16.2077 10.2322 16.2382 10.272 16.2771C10.3118 16.316 10.3434 16.3624 10.3651 16.4137C10.3867 16.4649 10.3979 16.52 10.3981 16.5756C10.3982 16.6313 10.3872 16.6864 10.3658 16.7377C10.3202 16.8415 10.2359 16.9235 10.1308 16.9661C10.0258 17.0086 9.90823 17.0085 9.80325 16.9657ZM16.1355 15.7432C16.1822 15.6981 16.2446 15.6729 16.3095 15.6729C16.3744 15.6729 16.4368 15.6981 16.4835 15.7432C16.5803 15.8377 16.5803 15.9907 16.4835 16.0845C16.3868 16.1782 16.2323 16.1782 16.1355 16.0845C16.1127 16.0624 16.0945 16.0359 16.0822 16.0067C16.0698 15.9774 16.0634 15.946 16.0634 15.9142C16.0634 15.8825 16.0698 15.851 16.0822 15.8218C16.0945 15.7925 16.1127 15.7661 16.1355 15.744V15.7432ZM7.7625 7.43399C7.8585 7.34024 8.0145 7.34024 8.1105 7.43399C8.2065 7.52774 8.2065 7.68149 8.1105 7.77524C8.0638 7.82033 8.00142 7.84553 7.9365 7.84553C7.87158 7.84553 7.8092 7.82033 7.7625 7.77524C7.73968 7.75314 7.72154 7.72668 7.70915 7.69743C7.69676 7.66819 7.69038 7.63675 7.69038 7.60499C7.69038 7.57322 7.69676 7.54178 7.70915 7.51254C7.72154 7.48329 7.73968 7.45683 7.7625 7.43474V7.43399ZM16.1355 7.77524C16.1127 7.75314 16.0945 7.72668 16.0822 7.69743C16.0698 7.66819 16.0634 7.63675 16.0634 7.60499C16.0634 7.57322 16.0698 7.54178 16.0822 7.51254C16.0945 7.48329 16.1127 7.45683 16.1355 7.43474C16.2323 7.34024 16.3875 7.34024 16.4835 7.43474C16.5795 7.52924 16.5803 7.68074 16.4835 7.77524C16.4368 7.82033 16.3744 7.84553 16.3095 7.84553C16.2446 7.84553 16.1822 7.82033 16.1355 7.77524ZM7.7625 16.0845C7.73968 16.0624 7.72154 16.0359 7.70915 16.0067C7.69676 15.9774 7.69038 15.946 7.69038 15.9142C7.69038 15.8825 7.69676 15.851 7.70915 15.8218C7.72154 15.7925 7.73968 15.7661 7.7625 15.744C7.8092 15.6989 7.87158 15.6737 7.9365 15.6737C8.00142 15.6737 8.0638 15.6989 8.1105 15.744C8.2065 15.8377 8.2065 15.9907 8.1105 16.0845C8.0145 16.1782 7.8585 16.1782 7.7625 16.0845ZM17.91 11.6992C17.91 11.5657 18.021 11.4577 18.1567 11.4577C18.2925 11.4577 18.4028 11.5657 18.4028 11.6992C18.4018 11.7636 18.3753 11.825 18.3292 11.87C18.2832 11.9149 18.2211 11.9398 18.1567 11.9392C18.0924 11.9398 18.0303 11.9149 17.9843 11.87C17.9382 11.825 17.9117 11.7636 17.9108 11.6992H17.91ZM5.96625 11.6992C5.96625 11.5657 6.0765 11.4577 6.213 11.4577C6.348 11.4577 6.459 11.5657 6.459 11.6992C6.45801 11.7636 6.43159 11.825 6.38549 11.87C6.3394 11.9149 6.27739 11.9398 6.213 11.9392C6.14848 11.94 6.08627 11.9152 6.04002 11.8702C5.99377 11.8252 5.96724 11.7638 5.96625 11.6992ZM12.1238 6.15899C12.0917 6.15948 12.0598 6.15364 12.03 6.1418C12.0002 6.12996 11.973 6.11235 11.95 6.08999C11.927 6.06762 11.9087 6.04094 11.896 6.01146C11.8834 5.98199 11.8766 5.95031 11.8763 5.91824C11.8763 5.78473 11.9873 5.67674 12.1238 5.67674C12.2588 5.67674 12.3698 5.78473 12.3698 5.91824C12.3688 5.98275 12.3422 6.04425 12.296 6.08923C12.2497 6.13422 12.1875 6.15904 12.123 6.15824L12.1238 6.15899ZM12.1238 17.841C12.0917 17.8415 12.0599 17.8357 12.0302 17.8239C12.0004 17.8121 11.9733 17.7945 11.9503 17.7723C11.9273 17.75 11.9089 17.7234 11.8962 17.694C11.8835 17.6646 11.8767 17.633 11.8763 17.601C11.8763 17.4675 11.9873 17.3595 12.1238 17.3595C12.2588 17.3595 12.3698 17.4675 12.3698 17.6002C12.3694 17.6322 12.3627 17.6639 12.3501 17.6933C12.3374 17.7227 12.3192 17.7494 12.2962 17.7717C12.2733 17.7941 12.2462 17.8117 12.2165 17.8236C12.1868 17.8355 12.155 17.8414 12.123 17.841H12.1238ZM19.7572 11.6985C19.7572 11.5657 19.8682 11.4585 20.004 11.4585C20.139 11.4585 20.25 11.5657 20.25 11.6985C20.2497 11.7305 20.2431 11.7621 20.2306 11.7916C20.2181 11.8211 20.1999 11.8478 20.177 11.8702C20.1542 11.8926 20.1271 11.9103 20.0975 11.9223C20.0678 11.9343 20.036 11.9403 20.004 11.94C19.972 11.9404 19.9402 11.9345 19.9105 11.9226C19.8808 11.9107 19.8537 11.8931 19.8308 11.8707C19.8078 11.8484 19.7896 11.8217 19.7769 11.7923C19.7643 11.7629 19.7576 11.7312 19.7572 11.6992V11.6985ZM3.9345 11.5785C4.0365 11.5785 4.11975 11.6595 4.11975 11.7585C4.11975 11.8575 4.03725 11.94 3.9345 11.94C3.8325 11.94 3.75 11.859 3.75 11.7592C3.75 11.6595 3.8325 11.5785 3.9345 11.5785ZM11.754 3.99073C11.754 3.85798 11.8643 3.74998 12 3.74998C12.1357 3.74998 12.246 3.85798 12.246 3.99073C12.246 4.12348 12.1357 4.23149 12 4.23149C11.8643 4.23149 11.754 4.12348 11.754 3.99148V3.99073ZM19.0477 14.5695C19.0873 14.4806 19.16 14.4106 19.2504 14.3746C19.3408 14.3386 19.4417 14.3394 19.5315 14.3767C19.5758 14.3946 19.6162 14.4211 19.6502 14.4547C19.6841 14.4883 19.7111 14.5283 19.7295 14.5724C19.7478 14.6165 19.7572 14.6639 19.7571 14.7116C19.757 14.7594 19.7473 14.8067 19.7288 14.8507C19.6895 14.9401 19.6167 15.0104 19.526 15.0463C19.4353 15.0823 19.334 15.081 19.2443 15.0427C19.2 15.0249 19.1598 14.9984 19.1259 14.9649C19.092 14.9313 19.0651 14.8914 19.0468 14.8473C19.0285 14.8033 19.0192 14.756 19.0193 14.7083C19.0195 14.6606 19.0292 14.6134 19.0477 14.5695ZM15.0502 18.462C15.08 18.474 15.1071 18.4919 15.1299 18.5146C15.1527 18.5373 15.1708 18.5643 15.183 18.594C15.1952 18.6231 15.2015 18.6544 15.2014 18.6859C15.2012 18.7175 15.1947 18.7487 15.1823 18.7777C15.1626 18.8217 15.1305 18.859 15.09 18.8851C15.0494 18.9112 15.0022 18.9249 14.954 18.9246C14.9058 18.9243 14.8588 18.9099 14.8186 18.8833C14.7784 18.8567 14.7469 18.819 14.7277 18.7747C14.7154 18.7457 14.709 18.7144 14.709 18.6829C14.709 18.6513 14.7154 18.62 14.7277 18.591C14.7405 18.5615 14.759 18.5348 14.7822 18.5125C14.8054 18.4903 14.8328 18.4728 14.8627 18.4612C14.9231 18.4377 14.9903 18.4382 15.0502 18.4627V18.462ZM4.8315 8.46674C4.8915 8.49224 4.93875 8.53874 4.9635 8.59799C4.97584 8.6272 4.98214 8.6586 4.98201 8.69031C4.98188 8.72202 4.97533 8.75338 4.96275 8.78249C4.94306 8.82647 4.911 8.86378 4.87047 8.88985C4.82995 8.91592 4.78271 8.92963 4.73452 8.92932C4.68633 8.929 4.63928 8.91466 4.5991 8.88806C4.55892 8.86145 4.52735 8.82373 4.50825 8.77949C4.49591 8.75028 4.48961 8.71887 4.48974 8.68716C4.48987 8.65545 4.49642 8.62409 4.509 8.59499C4.52173 8.56567 4.54015 8.53917 4.56319 8.51703C4.58624 8.49488 4.61345 8.47754 4.64325 8.46599C4.70374 8.44191 4.7712 8.44218 4.8315 8.46674ZM4.1445 14.6542C4.17744 14.5801 4.23811 14.5217 4.31353 14.4917C4.38894 14.4617 4.47311 14.4624 4.548 14.4937C4.58494 14.5085 4.61854 14.5305 4.64684 14.5585C4.67515 14.5865 4.69757 14.6198 4.71281 14.6566C4.72804 14.6933 4.73577 14.7327 4.73555 14.7725C4.73532 14.8123 4.72715 14.8517 4.7115 14.8882C4.67843 14.9623 4.6177 15.0205 4.54229 15.0503C4.46689 15.0802 4.3828 15.0793 4.308 15.048C4.27106 15.0332 4.23746 15.0112 4.20916 14.9832C4.18085 14.9553 4.15843 14.9219 4.1432 14.8852C4.12796 14.8484 4.12023 14.809 4.12045 14.7692C4.12068 14.7294 4.12885 14.6901 4.1445 14.6535V14.6542ZM14.8973 4.68898C14.8602 4.67427 14.8266 4.6523 14.7982 4.62437C14.7698 4.59644 14.7473 4.56311 14.732 4.52635C14.7167 4.48959 14.7089 4.45013 14.7091 4.41031C14.7092 4.37049 14.7174 4.33111 14.733 4.29448C14.7659 4.2203 14.8266 4.16196 14.902 4.13197C14.9774 4.10197 15.0616 4.10269 15.1365 4.13398C15.1734 4.14877 15.207 4.1708 15.2353 4.19876C15.2636 4.22672 15.2861 4.26006 15.3013 4.29681C15.3165 4.33357 15.3243 4.373 15.324 4.41278C15.3238 4.45257 15.3156 4.4919 15.3 4.52849C15.2671 4.60248 15.2065 4.66068 15.1313 4.69067C15.056 4.72065 14.9721 4.72005 14.8973 4.68898ZM19.503 8.33924C19.5485 8.32101 19.5994 8.32128 19.6448 8.33999C19.6779 8.35365 19.7062 8.37691 19.7261 8.40678C19.7459 8.43664 19.7564 8.47176 19.7562 8.50762C19.7559 8.54348 19.745 8.57845 19.7247 8.60805C19.7045 8.63765 19.6758 8.66052 19.6425 8.67374C19.5974 8.69181 19.547 8.69158 19.502 8.67309C19.4571 8.65461 19.4211 8.61932 19.4017 8.57474C19.3924 8.55277 19.3877 8.52914 19.3878 8.50528C19.388 8.48143 19.393 8.45785 19.4025 8.43599C19.412 8.41403 19.4258 8.39417 19.4431 8.37757C19.4603 8.36096 19.4807 8.34794 19.503 8.33924ZM8.69025 4.46248C8.70985 4.41799 8.74616 4.38299 8.79134 4.36503C8.83652 4.34707 8.88695 4.34759 8.93175 4.36648C8.96521 4.37986 8.99385 4.40302 9.01395 4.43292C9.03406 4.46283 9.04468 4.4981 9.04444 4.53413C9.04419 4.57016 9.0331 4.60528 9.01259 4.63491C8.99209 4.66454 8.96313 4.68731 8.9295 4.70024C8.88419 4.71834 8.83361 4.71807 8.7885 4.69948C8.76637 4.69053 8.74624 4.67726 8.72928 4.66045C8.71233 4.64363 8.69889 4.62362 8.68974 4.60156C8.6806 4.5795 8.67593 4.55585 8.67602 4.53197C8.67611 4.50809 8.68095 4.48447 8.69025 4.46248ZM8.7375 18.684C8.7615 18.684 8.7855 18.6892 8.80875 18.699C8.83086 18.7079 8.85097 18.7211 8.86792 18.7378C8.88487 18.7545 8.89831 18.7745 8.90745 18.7965C8.9166 18.8185 8.92127 18.8421 8.9212 18.8659C8.92112 18.8897 8.91629 18.9133 8.907 18.9352C8.88724 18.9796 8.85092 19.0145 8.8058 19.0324C8.76067 19.0503 8.71032 19.0499 8.6655 19.0312C8.64339 19.0223 8.62327 19.0092 8.6063 18.9924C8.58933 18.9757 8.57584 18.9558 8.56664 18.9338C8.55743 18.9118 8.55267 18.8882 8.55265 18.8644C8.55263 18.8406 8.55733 18.817 8.5665 18.795C8.58102 18.7618 8.60496 18.7336 8.63536 18.7138C8.66575 18.6941 8.70126 18.6837 8.7375 18.684ZM17.469 17.409C17.4223 17.4543 17.3597 17.4796 17.2946 17.4796C17.2295 17.4796 17.167 17.4543 17.1202 17.409C17.0974 17.3869 17.0793 17.3604 17.0669 17.3312C17.0545 17.3019 17.0481 17.2705 17.0481 17.2387C17.0481 17.207 17.0545 17.1755 17.0669 17.1463C17.0793 17.117 17.0974 17.0906 17.1202 17.0685C17.1669 17.0229 17.2297 16.9975 17.295 16.998C17.36 16.9977 17.4225 17.023 17.469 17.0685C17.4919 17.0906 17.5102 17.1171 17.5226 17.1464C17.5351 17.1757 17.5415 17.2073 17.5415 17.2391C17.5415 17.271 17.5351 17.3025 17.5226 17.3318C17.5102 17.3611 17.4919 17.3876 17.469 17.4097V17.409ZM5.95125 6.02474C6.02134 5.95687 6.11507 5.91893 6.21262 5.91893C6.31018 5.91893 6.40391 5.95687 6.474 6.02474C6.50813 6.05793 6.53526 6.09764 6.55379 6.1415C6.57231 6.18536 6.58186 6.2325 6.58186 6.28011C6.58186 6.32772 6.57231 6.37486 6.55379 6.41872C6.53526 6.46258 6.50813 6.50229 6.474 6.53549C6.40428 6.60405 6.31041 6.64248 6.21262 6.64248C6.11484 6.64248 6.02097 6.60405 5.95125 6.53549C5.91712 6.50229 5.88999 6.46258 5.87146 6.41872C5.85294 6.37486 5.84339 6.32772 5.84339 6.28011C5.84339 6.2325 5.85294 6.18536 5.87146 6.1415C5.88999 6.09764 5.91712 6.05793 5.95125 6.02474ZM17.595 6.09224C17.6298 6.05797 17.6767 6.03877 17.7255 6.03877C17.7743 6.03877 17.8212 6.05797 17.856 6.09224C17.873 6.10886 17.8864 6.12869 17.8956 6.15059C17.9048 6.17248 17.9096 6.19599 17.9096 6.21974C17.9096 6.24348 17.9048 6.26699 17.8956 6.28889C17.8864 6.31078 17.873 6.33062 17.856 6.34724C17.821 6.38114 17.7742 6.4001 17.7255 6.4001C17.6768 6.4001 17.63 6.38114 17.595 6.34724C17.5779 6.33072 17.5642 6.31092 17.5549 6.28901C17.5456 6.2671 17.5408 6.24354 17.5408 6.21974C17.5408 6.19593 17.5456 6.17237 17.5549 6.15046C17.5642 6.12855 17.5779 6.10875 17.595 6.09224ZM6.02025 17.0512C6.05505 17.017 6.10192 16.9978 6.15075 16.9978C6.19958 16.9978 6.24645 17.017 6.28125 17.0512C6.29831 17.0678 6.31186 17.0876 6.32112 17.1095C6.33038 17.1314 6.33515 17.155 6.33515 17.1787C6.33515 17.2025 6.33038 17.2261 6.32112 17.248C6.31186 17.2699 6.29831 17.2897 6.28125 17.3062C6.24627 17.3401 6.19947 17.3591 6.15075 17.3591C6.10203 17.3591 6.05523 17.3401 6.02025 17.3062C6.0032 17.2897 5.98964 17.2699 5.98038 17.248C5.97112 17.2261 5.96635 17.2025 5.96635 17.1787C5.96635 17.155 5.97112 17.1314 5.98038 17.1095C5.98964 17.0876 6.0032 17.0678 6.02025 17.0512ZM12.0615 20.25C11.9809 20.2508 11.9032 20.2196 11.8456 20.1632C11.7879 20.1068 11.755 20.0299 11.754 19.9492C11.754 19.7827 11.8913 19.6477 12.0615 19.6477C12.2318 19.6477 12.369 19.7827 12.369 19.9492C12.368 20.0299 12.3351 20.1068 12.2774 20.1632C12.2198 20.2196 12.1421 20.2508 12.0615 20.25Z" fill="#005FFF"/>
</svg>
