<svg width="24" height="24" viewBox="0 0 24 24" fill="none"><path fill="#2b6680" d="M3.75 11.992a8.25 8.25 0 1 0 16.5.032v-.063a8.3 8.3 0 0 0-.226-1.886.885.885 0 1 0-1.721.41 6.484 6.484 0 1 1-4.8-4.796.885.885 0 0 0 .41-1.722A8.25 8.25 0 0 0 3.75 11.992"/><path fill="#2b6680" d="M16.17 5.958q-.017.017-.03.036a1.3 1.3 0 0 0-.351.78v.14c0 .033-.007.064-.01.096a2.357 2.357 0 0 1-3.06 2.014 3.04 3.04 0 0 0-2.787.727c-.03.028-.063.052-.092.081a3.053 3.053 0 1 0 4.317 4.317 3 3 0 0 0 .342-.416 3.05 3.05 0 0 0 .467-2.453 2 2 0 0 1-.045-.166q-.002-.012-.007-.025a2.357 2.357 0 0 1 2.1-2.878c.017 0 .034-.005.051-.006.05 0 .1-.006.15-.006h.011c.305-.028.59-.162.806-.379q.078-.08.14-.171a1.315 1.315 0 0 0-2.001-1.69"/></svg>