<svg width="24" height="24" viewBox="0 0 24 24" fill="none"><path fill="#188c92" d="M16.002 15.773a.41.41 0 0 0-.028.42l-4.445 3.478a.44.44 0 0 0-.197-.088l-.135-8.562a.4.4 0 0 0 .135-.053zm.125-.119-4.667-4.802a.4.4 0 0 0 .065-.355l4.745-2.31a.44.44 0 0 0 .242.15l-.236 7.258a.5.5 0 0 0-.149.06zm-5.055 3.958-2.513-3.377a.41.41 0 0 0 0-.574.43.43 0 0 0-.28-.133l-.784-7.1a.425.425 0 0 0 .33-.41.4.4 0 0 0-.098-.266l3.154-3.385q.06.035.133.05v5.778a.425.425 0 0 0-.35.413.43.43 0 0 0 .357.415l.135 8.562zm.118-9.417V4.418a.44.44 0 0 0 .205-.101l4.82 3.431a.4.4 0 0 0-.026.29l-4.743 2.31a.44.44 0 0 0-.256-.153m-.088-6.445c.145 0 .263.113.263.253a.257.257 0 0 1-.263.253.26.26 0 0 1-.262-.253c0-.14.117-.253.262-.253M7.388 7.766c.145 0 .262.112.262.252a.26.26 0 0 1-.263.254.26.26 0 0 1-.262-.254c0-.14.118-.253.263-.253m.85 7.929c.145 0 .262.113.262.253a.26.26 0 0 1-.263.253.26.26 0 0 1-.262-.253c0-.14.117-.254.262-.254m8.375-8.022c.144 0 .262.113.262.252a.257.257 0 0 1-.262.254.26.26 0 0 1-.263-.254c0-.14.117-.252.262-.252m-5.51 2.682c.144 0 .262.113.262.253a.257.257 0 0 1-.263.253.26.26 0 0 1-.262-.253c0-.14.117-.253.262-.253m.148 9.389c.145 0 .262.113.262.253a.26.26 0 0 1-.262.253.26.26 0 0 1-.263-.253c0-.14.118-.253.263-.253m5.116-3.99c.145 0 .263.113.263.253a.26.26 0 0 1-.263.253.26.26 0 0 1-.262-.253c0-.14.117-.253.262-.253"/></svg>