<svg width="40" height="40" viewBox="0 0 40 40" fill="none" xmlns="http://www.w3.org/2000/svg">
    <path
        d="M29.0858 17.683C29.484 15.0214 27.4575 13.5907 24.6866 12.6362L25.5854 9.03079L23.3908 8.48386L22.5157 11.9942C21.9388 11.8505 21.3462 11.7148 20.7574 11.5804L21.6387 8.04693L19.4454 7.5L18.5459 11.1041C18.0684 10.9954 17.5996 10.8879 17.1445 10.7747L17.147 10.7635L14.1204 10.0078L13.5366 12.3518C13.5366 12.3518 15.1649 12.7249 15.1305 12.7481C16.0194 12.97 16.18 13.5581 16.1532 14.0244L15.1293 18.1318C15.1906 18.1474 15.2699 18.1699 15.3574 18.2049C15.2843 18.1868 15.2062 18.1668 15.1255 18.1474L13.6904 23.9011C13.5816 24.1712 13.306 24.5762 12.6847 24.4224C12.7065 24.4543 11.0895 24.0243 11.0895 24.0243L10 26.5364L12.8559 27.2484C13.3872 27.3815 13.9079 27.5209 14.4205 27.6521L13.5122 31.2988L15.7044 31.8457L16.6038 28.2378C17.2026 28.4004 17.784 28.5504 18.3528 28.6916L17.4564 32.2826L19.651 32.8296L20.5593 29.1898C24.3015 29.898 27.1156 29.6124 28.3001 26.2276C29.2546 23.5023 28.2526 21.9303 26.2836 20.9052C27.7175 20.5745 28.7976 19.6313 29.0858 17.683ZM24.0715 24.7143C23.3933 27.4396 18.8047 25.9663 17.317 25.5969L18.5222 20.7658C20.0098 21.1371 24.7803 21.8722 24.0715 24.7143ZM24.7503 17.6436C24.1315 20.1226 20.3123 18.8631 19.0735 18.5543L20.1661 14.1726C21.405 14.4814 25.3948 15.0577 24.7503 17.6436Z"
        fill="#131313" />
</svg>