<svg width="40" height="40" viewBox="0 0 40 40" fill="none" xmlns="http://www.w3.org/2000/svg">
    <path
        d="M8.2434 30.1865C7.76261 29.6315 7.32141 29.0434 6.92306 28.4265L15.3492 20.0015L6.92306 11.5758C7.32164 10.9593 7.76282 10.3715 8.2434 9.81657L18.4289 20.0015L8.2434 30.1865ZM5.81535 13.6103C5.48477 14.3425 5.21215 15.0995 5 15.8744L9.12735 20.0015L5 24.1288C5.21229 24.9035 5.4849 25.6606 5.81535 26.3929L12.207 20.0015L5.81535 13.6103ZM20.0004 21.5756L9.81495 31.7606C10.3694 32.2419 10.9573 32.683 11.5743 33.0809L20.0004 24.6551L28.4258 33.0809C29.0428 32.683 29.6306 32.2419 30.185 31.7606L20.0004 21.5756ZM26.3921 34.1894L19.9996 27.7973L13.6079 34.1885C14.3404 34.5189 15.0974 34.7914 15.8722 35.0039L19.9996 30.8768L24.1278 35.0039C24.9026 34.7903 25.6596 34.5168 26.3921 34.186V34.1894ZM20.0004 18.4301L30.185 8.24509C29.6304 7.76441 29.0425 7.32351 28.4258 6.92567L20.0004 15.3506L11.5743 6.92567C10.9575 7.32351 10.3696 7.76441 9.81495 8.24509L20.0004 18.4301ZM34.1846 26.3929C34.5152 25.6606 34.7879 24.9036 35 24.1288L30.8726 20.0015L35 15.8744C34.7878 15.0993 34.5151 14.342 34.1846 13.6094L27.793 20.0015L34.1846 26.3929ZM24.6507 20.0015L33.0769 11.5758C32.6786 10.9592 32.2374 10.3713 31.7566 9.81657L21.5745 20.0015L31.76 30.1865C32.2408 29.6315 32.682 29.0434 33.0804 28.4265L24.6507 20.0015ZM19.9996 12.2085L26.3921 5.81716C25.6596 5.48686 24.9026 5.21426 24.1278 5.00183L19.9996 9.12899L15.8722 5.00183C15.0975 5.21463 14.3405 5.48723 13.6079 5.81716L19.9996 12.2085Z"
        fill="#131313" />
</svg>