<?xml version="1.0" encoding="utf-8"?>
<svg viewBox="0 0 1200 1200" xmlns="http://www.w3.org/2000/svg">
  <g transform="matrix(3.0657799243927, 0, 0, 3.0657799243927, -1238.469970703125, -930.6123046875)">
    <g>
      <g>
        <path d="M572,502c-5,5-5,13.3,0,18.4l36.8,36.8c5.1,5.1,13.3,5.1,18.4,0c5-5,5-13.3,0-18.4l-36.8-36.8 C585.4,497,577.1,497,572,502z" fill="#000000"/>
        <path fill="#000000" d="M697.1,487.3c5.1-5.1,5.1-13.3,0-18.4 c-5-5-13.3-5-18.4,0l-51.5,51.5c-5.1,5.1-4.2,4.2-9.2,9.2c-11.4,11.4-27,9.6-32.1,4.6c0,0,22.9,22.9,22.9,22.9c5,5,13.3,5,18.4,0 L697.1,487.3z"/>
      </g>
      <g>
        <path fill="#000000" d="M627.5,483.8c5-5,5-13.3,0-18.4 l-36.8-36.8c-5.1-5.1-13.3-5.1-18.4,0c-5,5-5,13.3,0,18.4l36.8,36.8C614.2,488.8,622.4,488.8,627.5,483.8z"/>
        <path fill="#000000" d="M502.4,498.6c-5.1,5.1-5.1,13.3,0,18.4 c5,5,13.3,5,18.4,0l51.5-51.6c5.1-5.1,4.2-4.2,9.2-9.2c11.4-11.4,27-9.6,32.1-4.6c0,0-22.9-22.9-22.9-22.9c-5-5-13.3-5-18.4,0 L502.4,498.6z"/>
      </g>
    </g>
    <g/>
  </g>
</svg>