<svg width="24" height="24" viewBox="0 0 24 24" fill="none"><path fill="#48beff" d="M16.646 19.68 4.358 11.057a3.186 3.186 0 0 1 0-5.215L7.335 3.75l12.29 8.62a3.184 3.184 0 0 1 0 5.215zM7.332 5.146 5.012 6.77a2.047 2.047 0 0 0 0 3.355l11.636 8.158 2.32-1.623a2.047 2.047 0 0 0 0-3.355z"/><path fill="#48beff" d="m7.322 18.282-2.317-1.626a2.046 2.046 0 0 1 0-3.354l6-4.188-.99-.696-5.658 3.951a3.186 3.186 0 0 0 0 5.215l2.967 2.084 3.673-2.572-.985-.694zM19.627 5.846l-2.97-2.082-3.675 2.572.986.693 2.685-1.878 2.317 1.625a2.047 2.047 0 0 1 0 3.355l-6 4.186.987.694 5.665-3.957a3.183 3.183 0 0 0 0-5.215l.006.007"/><path fill="#48beff" d="M5.06 11.872 9.731 8.6l.65.93-4.672 3.272zm13.312-1.319-2.276 1.594.65.93 2.357-1.652q-.373-.432-.736-.873z"/><path fill="#48beff" d="M16.646 19.68 4.358 11.057a3.186 3.186 0 0 1 0-5.215L7.335 3.75l12.29 8.62a3.184 3.184 0 0 1 0 5.215zM7.332 5.146 5.012 6.77a2.047 2.047 0 0 0 0 3.355l11.636 8.158 2.32-1.623a2.047 2.047 0 0 0 0-3.355z"/><path fill="#48beff" d="m7.322 18.282-2.317-1.626a2.046 2.046 0 0 1 0-3.354l6-4.188-.99-.696-5.658 3.951a3.186 3.186 0 0 0 0 5.215l2.967 2.084 3.673-2.572-.985-.694zM19.627 5.846l-2.97-2.082-3.675 2.572.986.693 2.685-1.878 2.317 1.625a2.047 2.047 0 0 1 0 3.355l-6 4.186.987.694 5.665-3.957a3.183 3.183 0 0 0 0-5.215l.006.007"/><path fill="#48beff" d="M5.06 11.872 9.731 8.6l.65.93-4.672 3.272zm13.312-1.319-2.276 1.594.65.93 2.357-1.652q-.373-.432-.736-.873z"/></svg>