<svg width="24" height="24" viewBox="0 0 24 24" fill="none"><path fill="#f55749" d="M11.86 4.536a.29.29 0 0 1 .279 0L18.308 8a.27.27 0 0 1 0 .47l-5.366 3.026a1.24 1.24 0 0 0-.73-.405V9.446a1.21 1.21 0 0 0 1.025-1.183c0-.664-.552-1.202-1.234-1.202s-1.234.538-1.234 1.202c0 .59.439 1.081 1.016 1.182v1.648a1.24 1.24 0 0 0-.72.402L5.699 8.483a.269.269 0 0 1 0-.471l6.162-3.474zm6.466 4.365a.284.284 0 0 1 .38.098.3.3 0 0 1 .039.137l.005 6.724a.27.27 0 0 1-.14.236l-5.973 3.367c-.186.105-.418-.026-.418-.235l-.005-5.77a1.24 1.24 0 0 0 .74-.416l1.492.836a1.2 1.2 0 0 0-.027.471c.094.658.719 1.115 1.393 1.023.675-.093 1.145-.701 1.05-1.359s-.72-1.115-1.394-1.022a1.23 1.23 0 0 0-.841.508l-1.463-.82a1.15 1.15 0 0 0-.019-.859zm-13.07.234c0-.159.133-.272.279-.272q.075 0 .14.037l5.186 2.924a1.16 1.16 0 0 0-.018.855l-1.461.82a1.23 1.23 0 0 0-.842-.508c-.675-.093-1.298.365-1.393 1.022-.096.657.375 1.265 1.05 1.358s1.297-.365 1.393-1.022a1.2 1.2 0 0 0-.027-.472l1.491-.836c.187.22.447.366.733.416l-.005 5.77c0 .21-.232.34-.418.236l-5.975-3.368a.27.27 0 0 1-.139-.235z"/></svg>