<?xml version="1.0" encoding="UTF-8"?>
<svg xmlns:xodm="http://www.corel.com/coreldraw/odm/2003" xmlns="http://www.w3.org/2000/svg" xmlns:xlink="http://www.w3.org/1999/xlink" version="1.1" id="Layer_1" x="0px" y="0px" viewBox="0 0 2500 2500" style="enable-background:new 0 0 2500 2500;" xml:space="preserve">
<style type="text/css">
	.st0{fill:#FFD53E;}
	.st1{fill:#FE6E09;}
</style>
<g id="Layer_x0020_1">
	<g id="_2990658801984">
		<path class="st0" d="M1369.9,1562.2C826.3,1319,486.6,824.7,466.6,327.3c-1-21-26-31-42-18C161.9,540.5-3,880.7,0,1259    c6,674.5,552.5,1226.9,1226,1239.9c543.6,10,1010.2-327.2,1192-804.6c7-19-10-38-29-33c-316.7,80.1-678.4,53-1020.2-100.1    L1369.9,1562.2z"></path>
		<path class="st1" d="M2479,1023.8L2479,1023.8c0-3-1-5-1-8l0,0c-7-36-15-72.1-25-106.1c0-2-1-3-1-5l0,0c-5-17-10-33-15-50    c0-1-1-3-1-4l0,0c-12-34-24-68-39-101.1c0-1-1-1-1-2l0,0c-7-16-14-32-22-47l0,0c0,0,0-1-1-1c-8-16-16-32-25-47l0,0c0,0,0-1-1-1    l0,0c-9-16-18-32-27-47l-1-1l0,0c-9-14-18-28-27-42l0,0c-1-2-2-3-3-5l0,0c-19-29-40-57-61.9-85.1c-1-2-3-3-4-5l0,0    c-12-14-23-28-36-42l0,0c-12-13-24-26-36-39c0-1-1-1-1-2l0,0c-11-12-22-23-34-34l0,0c-2-2-3-3-5-5l0,0c-12-11-24-22-36-33    c-1-1-3-2-4-4l0,0c-12-11-25-22-38-32l0,0c-1-1-2-2-4-3l0,0c-14-11-28-22-42-32c0,0-1,0-1-1l0,0c-14-10-29-21-43-30c0,0,0,0-1,0    l0,0c-29-20-60-38-90.9-55l0,0c-1-1-2-1-4-2c-15-8-30-16-45-23l0,0c-2-1-4-2-6-3l0,0c-32-15-63.9-30-96.9-42c-2-1-4-1-6-2l0,0    c-17-7-35-13-52-18h-1l0,0c-16-5-33-10-49-15c-2,0-3-1-5-1l0,0c-18-5-36-10-54-14h-1l0,0c-17-4-34-8-52-11c-1,0-2,0-3-1l0,0    c-18-3-36-6-55-9l0,0l0,0c-29-4-57-7-86.9-9c5,0,10,1,14,1l0,0c11,1,23,2,33,3l0,0c11,1,21,3,31,4l0,0c10,1,20,3,29,5h1    c9,2,19,3,28,5h1c9,2,17,4,26,6c1,0,1,0,2,0c8,2,16,4,24,6c1,0,1,0,2,1c7,2,15,5,22,7c1,0,2,1,3,1c7,2,14,5,20,8c1,0,2,1,3,1    c6,3,12,5,18,8c1,1,2,1,4,2c6,3,11,6,17,8c1,1,3,2,4,2c5,3,10,6,15,9c2,1,3,2,5,3c4,3,9,6,13,9c2,1,4,3,6,4c4,3,8,6,11,9    c2,2,4,4,7,6c3,3,6,5,9,8c3,3,6,6,9,8c2,2,5,4,7,7c5,5,10,11,14,16c7,8,42,54,61.9,133.1c23,96.1,19,195.1,41,291.2    c4,16,8,32,12,47c1,4,2,8,3,12c3,12,7,24,10,35c1,4,2,7,3,11c112.9,363.3,337.7,535.4,640.5,766.5c10-65,16-131.1,16-199.1    c0-77.1-7-152.1-20-226.2L2479,1023.8z"></path>
		<path class="st0" d="M2487,1076.9c-44-102.1-44-102.1-1229-531.4C661.5,329.3,550.6,121.2,982.2,27.1c21-5,42-9,63.9-12    c65.9-11,133.9-16,202.8-16C1880.5-0.9,2403.1,468.4,2487,1076.9z"></path>
	</g>
</g>
</svg>
