<svg width="24" height="24" viewBox="0 0 24 24" fill="none"><path fill="#103f68" d="m11.985 3.757 7.14 4.112v8.25l-7.132 4.124-.058-.014-7.06-4.11v-8.25l7.06-4.112zm-.023.853L5.625 8.3v7.388l6.336 3.689.774-.448 5.64-3.243V8.301l-5.64-3.263zm-5.355 7.958 1.875-1.403 1.659 1.06v1.904l1.255 1.21-.001.566-1.21 1.133h-1.02zm5.927 3.339-.002-.57 1.25-1.208v-1.905l1.64-1.072 1.872 1.417-2.545 4.456h-1.008zm-1.777-3.683-.611-1.598h3.628l-.598 1.598.177 1.787-1.4.003-1.384.002zm1.196-2.036-3.449-.002.642-2.864h5.597l.675 2.868z"/></svg>