<svg width="24" height="24" viewBox="0 0 24 24" fill="none"><path fill="#1e252c" d="M10.665 11.692a1.13 1.13 0 1 1 0-2.261 1.13 1.13 0 0 1 0 2.26m2.774 0a1.13 1.13 0 1 1 0-2.261 1.13 1.13 0 0 1 0 2.26m-2.775 2.774a1.13 1.13 0 1 1 0-2.26 1.13 1.13 0 0 1 0 2.26m2.774 0a1.13 1.13 0 1 1 0-2.26 1.13 1.13 0 0 1 0 2.26m2.774-3.083a.823.823 0 1 1 0-1.645.823.823 0 0 1 0 1.645m0 2.775a.822.822 0 1 1 0-1.644.822.822 0 0 1 0 1.644m-8.424-2.775a.822.822 0 1 1 0-1.643.822.822 0 0 1 0 1.643m0 2.775a.822.822 0 1 1 0-1.645.822.822 0 0 1 0 1.645m2.876 2.773a.823.823 0 1 1-.05-1.644.823.823 0 0 1 .05 1.644m2.774 0a.822.822 0 1 1-.05-1.644.822.822 0 0 1 .05 1.644M10.665 8.61a.822.822 0 1 1-.05-1.644.822.822 0 0 1 .05 1.644m2.774 0a.822.822 0 1 1-.05-1.643.822.822 0 0 1 .05 1.643m-2.774-3.083a.514.514 0 1 1 0-1.026.514.514 0 1 1 0 1.027m2.774 0a.513.513 0 1 1 0-1.026.514.514 0 0 1 0 1.027m5.548 5.549a.514.514 0 1 1 0-1.028.514.514 0 0 1 0 1.028m0 2.774a.513.513 0 1 1 0-1.027.513.513 0 0 1 0 1.027M5.014 11.076a.514.514 0 1 1 0-1.028.514.514 0 0 1 0 1.028m0 2.774a.514.514 0 1 1 0-1.027.514.514 0 0 1 0 1.027m5.65 5.65a.514.514 0 1 1 0-1.028.514.514 0 0 1 0 1.028m2.774 0a.514.514 0 1 1 0-1.028.514.514 0 0 1 0 1.028"/></svg>