<svg width="24" height="24" viewBox="0 0 24 24" fill="none">
<path d="M10.665 11.6916C10.3652 11.6916 10.0778 11.5725 9.86579 11.3606C9.65383 11.1486 9.53475 10.8611 9.53475 10.5614C9.53475 10.2616 9.65383 9.97412 9.86579 9.76216C10.0778 9.5502 10.3652 9.43112 10.665 9.43112C10.9648 9.43112 11.2522 9.5502 11.4642 9.76216C11.6762 9.97412 11.7952 10.2616 11.7952 10.5614C11.7952 10.8611 11.6762 11.1486 11.4642 11.3606C11.2522 11.5725 10.9648 11.6916 10.665 11.6916ZM13.4385 11.6916C13.1387 11.6916 12.8513 11.5725 12.6393 11.3606C12.4273 11.1486 12.3082 10.8611 12.3082 10.5614C12.3082 10.2616 12.4273 9.97412 12.6393 9.76216C12.8513 9.5502 13.1387 9.43112 13.4385 9.43112C13.7383 9.43112 14.0257 9.5502 14.2377 9.76216C14.4497 9.97412 14.5687 10.2616 14.5687 10.5614C14.5687 10.8611 14.4497 11.1486 14.2377 11.3606C14.0257 11.5725 13.7383 11.6916 13.4385 11.6916ZM10.6642 14.4659C10.3645 14.4659 10.077 14.3468 9.86504 14.1348C9.65308 13.9229 9.534 13.6354 9.534 13.3356C9.534 13.0359 9.65308 12.7484 9.86504 12.5364C10.077 12.3244 10.3645 12.2054 10.6642 12.2054C10.964 12.2054 11.2515 12.3244 11.4635 12.5364C11.6754 12.7484 11.7945 13.0359 11.7945 13.3356C11.7945 13.6354 11.6754 13.9229 11.4635 14.1348C11.2515 14.3468 10.964 14.4659 10.6642 14.4659ZM13.4385 14.4659C13.1387 14.4659 12.8513 14.3468 12.6393 14.1348C12.4273 13.9229 12.3082 13.6354 12.3082 13.3356C12.3082 13.0359 12.4273 12.7484 12.6393 12.5364C12.8513 12.3244 13.1387 12.2054 13.4385 12.2054C13.7383 12.2054 14.0257 12.3244 14.2377 12.5364C14.4497 12.7484 14.5687 13.0359 14.5687 13.3356C14.5687 13.6354 14.4497 13.9229 14.2377 14.1348C14.0257 14.3468 13.7383 14.4659 13.4385 14.4659ZM16.212 11.3834C16.1041 11.3834 15.9972 11.3621 15.8974 11.3208C15.7977 11.2795 15.7071 11.2189 15.6308 11.1426C15.5544 11.0663 15.4939 10.9757 15.4526 10.8759C15.4113 10.7762 15.39 10.6693 15.39 10.5614C15.39 10.4534 15.4113 10.3465 15.4526 10.2468C15.4939 10.1471 15.5544 10.0565 15.6308 9.98013C15.7071 9.9038 15.7977 9.84325 15.8974 9.80194C15.9972 9.76063 16.1041 9.73937 16.212 9.73937C16.43 9.73937 16.6391 9.82597 16.7932 9.98013C16.9474 10.1343 17.034 10.3434 17.034 10.5614C17.034 10.7794 16.9474 10.9885 16.7932 11.1426C16.6391 11.2968 16.43 11.3834 16.212 11.3834ZM16.212 14.1576C15.994 14.1576 15.7849 14.071 15.6308 13.9169C15.4766 13.7627 15.39 13.5536 15.39 13.3356C15.39 13.1176 15.4766 12.9085 15.6308 12.7544C15.7849 12.6002 15.994 12.5136 16.212 12.5136C16.43 12.5136 16.6391 12.6002 16.7932 12.7544C16.9474 12.9085 17.034 13.1176 17.034 13.3356C17.034 13.5536 16.9474 13.7627 16.7932 13.9169C16.6391 14.071 16.43 14.1576 16.212 14.1576ZM7.788 11.3834C7.56999 11.3834 7.36091 11.2968 7.20676 11.1426C7.0526 10.9885 6.966 10.7794 6.966 10.5614C6.966 10.3434 7.0526 10.1343 7.20676 9.98013C7.36091 9.82597 7.56999 9.73937 7.788 9.73937C8.00601 9.73937 8.21509 9.82597 8.36924 9.98013C8.5234 10.1343 8.61 10.3434 8.61 10.5614C8.61 10.7794 8.5234 10.9885 8.36924 11.1426C8.21509 11.2968 8.00601 11.3834 7.788 11.3834ZM7.788 14.1576C7.56999 14.1576 7.36091 14.071 7.20676 13.9169C7.0526 13.7627 6.966 13.5536 6.966 13.3356C6.966 13.1176 7.0526 12.9085 7.20676 12.7544C7.36091 12.6002 7.56999 12.5136 7.788 12.5136C8.00601 12.5136 8.21509 12.6002 8.36924 12.7544C8.5234 12.9085 8.61 13.1176 8.61 13.3356C8.61 13.5536 8.5234 13.7627 8.36924 13.9169C8.21509 14.071 8.00601 14.1576 7.788 14.1576ZM10.6642 16.9311C10.5543 16.9344 10.4447 16.9157 10.3421 16.8759C10.2396 16.8361 10.146 16.7761 10.067 16.6994C9.98805 16.6228 9.92527 16.5311 9.88239 16.4298C9.83952 16.3284 9.81742 16.2195 9.81742 16.1095C9.81742 15.9995 9.83952 15.8905 9.88239 15.7892C9.92527 15.6879 9.98805 15.5962 10.067 15.5195C10.146 15.4429 10.2396 15.3829 10.3421 15.3431C10.4447 15.3033 10.5543 15.2845 10.6642 15.2879C10.8779 15.2943 11.0806 15.3837 11.2294 15.5371C11.3782 15.6905 11.4614 15.8958 11.4614 16.1095C11.4614 16.3232 11.3782 16.5285 11.2294 16.6819C11.0806 16.8353 10.8779 16.9247 10.6642 16.9311ZM13.4385 16.9311C13.3285 16.9344 13.219 16.9157 13.1164 16.8759C13.0138 16.8361 12.9202 16.7761 12.8413 16.6994C12.7623 16.6228 12.6995 16.5311 12.6566 16.4298C12.6138 16.3284 12.5917 16.2195 12.5917 16.1095C12.5917 15.9995 12.6138 15.8905 12.6566 15.7892C12.6995 15.6879 12.7623 15.5962 12.8413 15.5195C12.9202 15.4429 13.0138 15.3829 13.1164 15.3431C13.219 15.3033 13.3285 15.2845 13.4385 15.2879C13.6521 15.2943 13.8548 15.3837 14.0036 15.5371C14.1524 15.6905 14.2357 15.8958 14.2357 16.1095C14.2357 16.3232 14.1524 16.5285 14.0036 16.6819C13.8548 16.8353 13.6521 16.9247 13.4385 16.9311ZM10.6642 8.60987C10.5543 8.61319 10.4447 8.5944 10.3421 8.5546C10.2396 8.51481 10.146 8.45482 10.067 8.3782C9.98805 8.30157 9.92527 8.20988 9.88239 8.10854C9.83952 8.0072 9.81742 7.89828 9.81742 7.78824C9.81742 7.67821 9.83952 7.56929 9.88239 7.46795C9.92527 7.36661 9.98805 7.27491 10.067 7.19829C10.146 7.12167 10.2396 7.06168 10.3421 7.02188C10.4447 6.98209 10.5543 6.9633 10.6642 6.96662C10.8779 6.97307 11.0806 7.06247 11.2294 7.21585C11.3782 7.36923 11.4614 7.57453 11.4614 7.78824C11.4614 8.00195 11.3782 8.20726 11.2294 8.36064C11.0806 8.51402 10.8779 8.60341 10.6642 8.60987ZM13.4385 8.60987C13.3285 8.61319 13.219 8.5944 13.1164 8.5546C13.0138 8.51481 12.9202 8.45482 12.8413 8.3782C12.7623 8.30157 12.6995 8.20988 12.6566 8.10854C12.6138 8.0072 12.5917 7.89828 12.5917 7.78824C12.5917 7.67821 12.6138 7.56929 12.6566 7.46795C12.6995 7.36661 12.7623 7.27491 12.8413 7.19829C12.9202 7.12167 13.0138 7.06168 13.1164 7.02188C13.219 6.98209 13.3285 6.9633 13.4385 6.96662C13.6521 6.97307 13.8548 7.06247 14.0036 7.21585C14.1524 7.36923 14.2357 7.57453 14.2357 7.78824C14.2357 8.00195 14.1524 8.20726 14.0036 8.36064C13.8548 8.51402 13.6521 8.60341 13.4385 8.60987ZM10.6642 5.52737C10.5952 5.53001 10.5263 5.51869 10.4617 5.49408C10.3971 5.46947 10.3382 5.43208 10.2884 5.38414C10.2386 5.33621 10.1989 5.27872 10.1719 5.21512C10.1448 5.15152 10.1309 5.08311 10.1309 5.01399C10.1309 4.94488 10.1448 4.87647 10.1719 4.81287C10.1989 4.74926 10.2386 4.69178 10.2884 4.64384C10.3382 4.59591 10.3971 4.55852 10.4617 4.53391C10.5263 4.5093 10.5952 4.49798 10.6642 4.50062C10.8005 4.50062 10.9312 4.55475 11.0275 4.65109C11.1239 4.74744 11.178 4.87811 11.178 5.01437C11.178 5.15062 11.1239 5.2813 11.0275 5.37765C10.9312 5.47399 10.8005 5.52812 10.6642 5.52812V5.52737ZM13.4385 5.52737C13.3694 5.53001 13.3005 5.51869 13.236 5.49408C13.1714 5.46947 13.1124 5.43208 13.0626 5.38414C13.0128 5.33621 12.9732 5.27872 12.9461 5.21512C12.9191 5.15152 12.9051 5.08311 12.9051 5.01399C12.9051 4.94488 12.9191 4.87647 12.9461 4.81287C12.9732 4.74926 13.0128 4.69178 13.0626 4.64384C13.1124 4.59591 13.1714 4.55852 13.236 4.53391C13.3005 4.5093 13.3694 4.49798 13.4385 4.50062C13.5748 4.50062 13.7054 4.55475 13.8018 4.65109C13.8981 4.74744 13.9523 4.87811 13.9523 5.01437C13.9523 5.15062 13.8981 5.2813 13.8018 5.37765C13.7054 5.47399 13.5748 5.52812 13.4385 5.52812V5.52737ZM18.9862 11.0759C18.85 11.0759 18.7193 11.0217 18.623 10.9254C18.5266 10.829 18.4725 10.6984 18.4725 10.5621C18.4725 10.4259 18.5266 10.2952 18.623 10.1988C18.7193 10.1025 18.85 10.0484 18.9862 10.0484C19.1225 10.0484 19.2532 10.1025 19.3495 10.1988C19.4459 10.2952 19.5 10.4259 19.5 10.5621C19.5 10.6984 19.4459 10.829 19.3495 10.9254C19.2532 11.0217 19.1225 11.0759 18.9862 11.0759ZM18.9862 13.8501C18.85 13.8501 18.7193 13.796 18.623 13.6996C18.5266 13.6033 18.4725 13.4726 18.4725 13.3364C18.4725 13.2001 18.5266 13.0694 18.623 12.9731C18.7193 12.8767 18.85 12.8226 18.9862 12.8226C19.1225 12.8226 19.2532 12.8767 19.3495 12.9731C19.4459 13.0694 19.5 13.2001 19.5 13.3364C19.5 13.4726 19.4459 13.6033 19.3495 13.6996C19.2532 13.796 19.1225 13.8501 18.9862 13.8501ZM5.01375 11.0759C4.87749 11.0759 4.74682 11.0217 4.65047 10.9254C4.55413 10.829 4.5 10.6984 4.5 10.5621C4.5 10.4259 4.55413 10.2952 4.65047 10.1988C4.74682 10.1025 4.87749 10.0484 5.01375 10.0484C5.15 10.0484 5.28068 10.1025 5.37703 10.1988C5.47337 10.2952 5.5275 10.4259 5.5275 10.5621C5.5275 10.6984 5.47337 10.829 5.37703 10.9254C5.28068 11.0217 5.15 11.0759 5.01375 11.0759ZM5.01375 13.8501C4.87749 13.8501 4.74682 13.796 4.65047 13.6996C4.55413 13.6033 4.5 13.4726 4.5 13.3364C4.5 13.2001 4.55413 13.0694 4.65047 12.9731C4.74682 12.8767 4.87749 12.8226 5.01375 12.8226C5.15 12.8226 5.28068 12.8767 5.37703 12.9731C5.47337 13.0694 5.5275 13.2001 5.5275 13.3364C5.5275 13.4726 5.47337 13.6033 5.37703 13.6996C5.28068 13.796 5.15 13.8501 5.01375 13.8501ZM10.6642 19.4999C10.528 19.4999 10.3973 19.4457 10.301 19.3494C10.2046 19.253 10.1505 19.1224 10.1505 18.9861C10.1505 18.8499 10.2046 18.7192 10.301 18.6228C10.3973 18.5265 10.528 18.4724 10.6642 18.4724C10.8005 18.4724 10.9312 18.5265 11.0275 18.6228C11.1239 18.7192 11.178 18.8499 11.178 18.9861C11.178 19.1224 11.1239 19.253 11.0275 19.3494C10.9312 19.4457 10.8005 19.4999 10.6642 19.4999ZM13.4385 19.4999C13.3022 19.4999 13.1716 19.4457 13.0752 19.3494C12.9789 19.253 12.9247 19.1224 12.9247 18.9861C12.9247 18.8499 12.9789 18.7192 13.0752 18.6228C13.1716 18.5265 13.3022 18.4724 13.4385 18.4724C13.5748 18.4724 13.7054 18.5265 13.8018 18.6228C13.8981 18.7192 13.9523 18.8499 13.9523 18.9861C13.9523 19.1224 13.8981 19.253 13.8018 19.3494C13.7054 19.4457 13.5748 19.4999 13.4385 19.4999Z" fill="#1E252C"/>
</svg>
