<svg xmlns="http://www.w3.org/2000/svg" xml:space="preserve" width="24" height="24" viewBox="0 0 24 24" stroke-miterlimit="10"><path d="M5.156 16.289 l0 -0.117 -0.234 0 -0.234 0 0 -0.117 0 -0.117 -0.234 0 -0.234 0 0 -0.117 0
-0.117 -0.234 0 -0.234 0 0 -0.117 0 -0.117 -0.117 0 -0.117 0 0 -0.117 0 -0.117 -0.117 0 -0.117 0 0 -0.117 0
-0.117 -0.117 0 -0.117 0 0 -4.688 0 -4.688 0.117 0 0.117 0 0 -0.117 0 -0.117 0.117 0 0.117 0 0 -0.117 0 -0.117
0.117 0 0.117 0 0 -0.117 0 -0.117 0.234 0 0.234 0 0 -0.117 0 -0.117 0.234 0 0.234 0 0 -0.117 0 -0.117 0.234 0
0.234 0 0 -0.117 0 -0.117 0.234 0 0.234 0 0 -0.117 0 -0.117 0.234 0 0.234 0 0 -0.117 0 -0.117 0.234 0 0.234
0 0 -0.117 0 -0.117 0.234 0 0.234 0 0 -0.117 0 -0.117 0.234 0 0.234 0 0 -0.117 0 -0.117 0.234 0 0.234 0 0
-0.117 0 -0.117 0.234 0 0.234 0 0 -0.117 0 -0.117 0.234 0 0.234 0 0 -0.117 0 -0.117 0.234 0 0.234 0 0 -0.117
0 -0.117 0.234 0 0.234 0 0 -0.117 0 -0.117 0.234 0 0.234 0 0 -0.117 0 -0.117 0.234 0 0.234 0 0 -0.117 0
-0.117 0.469 0 0.469 0 0 0.117 0 0.117 0.234 0 0.234 0 0 0.117 0 0.117 0.234 0 0.234 0 0 0.117 0 0.117 0.117 0
0.117 0 0 0.117 0 0.117 0.117 0 0.117 0 0 0.234 0 0.234 0.117 0 0.117 0 0 4.805 0 4.805 -0.117 0 -0.117 0 0
0.117 0 0.117 -0.117 0 -0.117 0 0 0.117 0 0.117 -0.117 0 -0.117 0 0 0.117 0 0.117 -0.234 0 -0.234 0 0 0.117 0 0.117
-0.234 0 -0.234 0 0 0.117 0 0.117 -0.234 0 -0.234 0 0 0.117 0 0.117 -0.234 0 -0.234 0 0 0.117 0 0.117
-0.234 0 -0.234 0 0 0.117 0 0.117 -0.234 0 -0.234 0 0 0.117 0 0.117 -0.234 0 -0.234 0 0 0.117 0 0.117
-0.234 0 -0.234 0 0 0.117 0 0.117 -0.234 0 -0.234 0 0 0.117 0 0.117 -0.234 0 -0.234 0 0 0.117 0 0.117
-0.234 0 -0.234 0 0 0.117 0 0.117 -0.234 0 -0.234 0 0 0.117 0 0.117 -0.234 0 -0.234 0 0 0.117 0 0.117
-0.234 0 -0.234 0 0 0.117 0 0.117 -0.469 0 -0.469 0 0 -0.117z m0.938 -0.234 l0 -0.117 0.234 0 0.234 0 0
-0.117 0 -0.117 0.234 0 0.234 0 0 -0.117 0 -0.117 0.234 0 0.234 0 0 -0.117 0 -0.117 0.234 0 0.234 0 0 -0.117
0 -0.117 0.234 0 0.234 0 0 -0.117 0 -0.117 0.234 0 0.234 0 0 -0.117 0 -0.117 0.234 0 0.234 0 0 -0.117 0
-0.117 0.234 0 0.234 0 0 -0.117 0 -0.117 0.234 0 0.234 0 0 -0.117 0 -0.117 0.234 0 0.234 0 0 -0.117 0 -0.117
0.234 0 0.234 0 0 -0.117 0 -0.117 0.234 0 0.234 0 0 -0.117 0 -0.117 0.234 0 0.234 0 0 -0.117 0 -0.117 0.234
0 0.234 0 0 -0.117 0 -0.117 0.117 0 0.117 0 0 -0.117 0 -0.117 0.117 0 0.117 0 0 -4.805 0 -4.805 -0.117 0
-0.117 0 0 -0.234 0 -0.234 -0.117 0 -0.117 0 0 -0.117 0 -0.117 -0.234 0 -0.234 0 0 -0.117 0 -0.117 -0.234
0 -0.234 0 0 -0.117 0 -0.117 -0.469 0 -0.469 0 0 0.117 0 0.117 -0.234 0 -0.234 0 0 0.117 0 0.117 -0.234 0
-0.234 0 0 0.117 0 0.117 -0.234 0 -0.234 0 0 0.117 0 0.117 -0.234 0 -0.234 0 0 0.117 0 0.117 -0.234 0
-0.234 0 0 0.117 0 0.117 -0.234 0 -0.234 0 0 0.117 0 0.117 -0.234 0 -0.234 0 0 0.117 0 0.117 -0.234 0
-0.234 0 0 0.117 0 0.117 -0.234 0 -0.234 0 0 0.117 0 0.117 -0.234 0 -0.234 0 0 0.117 0 0.117 -0.234 0
-0.234 0 0 0.117 0 0.117 -0.234 0 -0.234 0 0 0.117 0 0.117 -0.234 0 -0.234 0 0 0.117 0 0.117 -0.234 0
-0.234 0 0 0.117 0 0.117 -0.234 0 -0.234 0 0 0.117 0 0.117 -0.117 0 -0.117 0 0 0.117 0 0.117 -0.117 0 -0.117 0
0 4.688 0 4.688 0.117 0 0.117 0 0 0.117 0 0.117 0.117 0 0.117 0 0 0.117 0 0.117 0.234 0 0.234 0 0 0.117 0 0.117
0.234 0 0.234 0 0 0.117 0 0.117 0.234 0 0.234 0 0 0.117 0 0.117 0.469 0 0.469 0 0 -0.117z M5.391 15.352 l0 -0.117 -0.117 0 -0.117 0 0 -4.453 0 -4.453 0.117 0 0.117 0 0 -0.117 0
-0.117 0.117 0 0.117 0 0 -0.117 0 -0.117 0.234 0 0.234 0 0 -0.117 0 -0.117 0.234 0 0.234 0 0 -0.117 0 -0.117
0.234 0 0.234 0 0 -0.117 0 -0.117 0.234 0 0.234 0 0 -0.117 0 -0.117 0.234 0 0.234 0 0 -0.117 0 -0.117 0.234
0 0.234 0 0 -0.117 0 -0.117 0.234 0 0.234 0 0 -0.117 0 -0.117 0.234 0 0.234 0 0 -0.117 0 -0.117 0.234 0
0.234 0 0 -0.117 0 -0.117 0.234 0 0.234 0 0 -0.117 0 -0.117 0.234 0 0.234 0 0 -0.117 0 -0.117 0.234 0 0.234
0 0 -0.117 0 -0.117 0.234 0 0.234 0 0 -0.117 0 -0.117 0.234 0 0.234 0 0 0.117 0 0.117 0.117 0 0.117 0 0
4.57 0 4.57 -0.117 0 -0.117 0 0 0.117 0 0.117 -0.234 0 -0.234 0 0 0.117 0 0.117 -0.234 0 -0.234 0 0
0.117 0 0.117 -0.234 0 -0.234 0 0 0.117 0 0.117 -0.234 0 -0.234 0 0 0.117 0 0.117 -0.234 0 -0.234 0 0 0.117
0 0.117 -0.234 0 -0.234 0 0 0.117 0 0.117 -0.234 0 -0.234 0 0 0.117 0 0.117 -0.234 0 -0.234 0 0 0.117 0
0.117 -0.234 0 -0.234 0 0 0.117 0 0.117 -0.234 0 -0.234 0 0 0.117 0 0.117 -0.234 0 -0.234 0 0 0.117 0 0.117
-0.234 0 -0.234 0 0 0.117 0 0.117 -0.234 0 -0.234 0 0 0.117 0 0.117 -0.352 0 -0.352 0 0 -0.117z m3.984
-1.875 l0 -0.117 0.234 0 0.234 0 0 -0.117 0 -0.117 0.234 0 0.234 0 0 -0.117 0 -0.117 0.234 0 0.234 0 0
-0.117 0 -0.117 0.234 0 0.234 0 0 -0.117 0 -0.117 0.234 0 0.234 0 0 -0.117 0 -0.117 0.117 0 0.117 0 0 -0.117 0
-0.117 0.117 0 0.117 0 0 -0.352 0 -0.352 -0.117 0 -0.117 0 0 0.352 0 0.352 -0.117 0 -0.117 0 0 0.117 0 0.117
-0.234 0 -0.234 0 0 0.117 0 0.117 -0.234 0 -0.234 0 0 0.117 0 0.117 -0.234 0 -0.234 0 0 0.117 0 0.117
-0.234 0 -0.234 0 0 0.117 0 0.117 -0.234 0 -0.234 0 0 0.117 0 0.117 -0.234 0 -0.234 0 0 0.117 0 0.117 0.234
0 0.234 0 0 -0.117z m-2.344 -0.703 l0 -0.117 0.234 0 0.234 0 0 -1.875 0 -1.875 0.117 0 0.117 0 0 -0.117
0 -0.117 0.234 0 0.234 0 0 -0.117 0 -0.117 0.117 0 0.117 0 0 1.875 0 1.875 0.117 0 0.117 0 0 -0.117 0 -0.117
0.234 0 0.234 0 0 -1.992 0 -1.992 0.117 0 0.117 0 0 -0.117 0 -0.117 0.234 0 0.234 0 0 -0.117 0 -0.117 0.117
0 0.117 0 0 1.875 0 1.875 0.117 0 0.117 0 0 -0.117 0 -0.117 0.234 0 0.234 0 0 -2.344 0 -2.344 -0.117 0
-0.117 0 0 -0.117 0 -0.117 -0.234 0 -0.234 0 0 0.117 0 0.117 -0.117 0 -0.117 0 0 0.117 0 0.117 -0.117 0 -0.117 0
0 -0.352 0 -0.352 -0.352 0 -0.352 0 0 0.117 0 0.117 0.117 0 0.117 0 0 0.352 0 0.352 -0.117 0 -0.117 0 0
0.117 0 0.117 -0.234 0 -0.234 0 0 0.117 0 0.117 -0.117 0 -0.117 0 0 0.117 0 0.117 -0.117 0 -0.117 0 0 -0.352 0
-0.352 -0.352 0 -0.352 0 0 0.117 0 0.117 0.117 0 0.117 0 0 0.352 0 0.352 -0.234 0 -0.234 0 0 0.117 0 0.117
-0.234 0 -0.234 0 0 -0.117 0 -0.117 -0.117 0 -0.117 0 0 0.117 0 0.117 -0.117 0 -0.117 0 0 0.234 0 0.234 0.117
0 0.117 0 0 -0.234 0 -0.234 0.117 0 0.117 0 0 0.117 0 0.117 0.117 0 0.117 0 0 0.938 0 0.938 -0.234 0 -0.234
0 0 -0.117 0 -0.117 -0.117 0 -0.117 0 0 0.117 0 0.117 -0.117 0 -0.117 0 0 0.117 0 0.117 -0.117 0 -0.117 0 0 0.117
0 0.117 0.117 0 0.117 0 0 -0.117 0 -0.117 0.117 0 0.117 0 0 0.234 0 0.234 0.352 0 0.352 0 0 1.055 0 1.055 0.117
0 0.117 0 0 -0.117z m4.219 -4.219 l0 -0.117 0.117 0 0.117 0 0 -0.234 0 -0.234 -0.234 0 -0.234 0 0
0.352 0 0.352 0.117 0 0.117 0 0 -0.117z m-4.219 -1.875 l0 -0.117 0.234 0 0.234 0 0 -0.117 0 -0.117 -0.234
0 -0.234 0 0 0.117 0 0.117 -0.117 0 -0.117 0 0 0.117 0 0.117 0.117 0 0.117 0 0 -0.117z m1.641 -0.938 l0 -0.117
0.234 0 0.234 0 0 -0.117 0 -0.117 -0.234 0 -0.234 0 0 0.117 0 0.117 -0.117 0 -0.117 0 0 0.117 0 0.117 0.117 0
0.117 0 0 -0.117z M6.094 10.195 l0 -0.117 0.117 0 0.117 0 0 0.117 0 0.117 -0.117 0 -0.117 0 0 -0.117z"/></svg>