<svg xmlns="http://www.w3.org/2000/svg" width="24" height="24" viewBox="0 0 24 24" fill="none"><path fill="#fff" fill-rule="evenodd" d="M8.253 14.553a.5.5 0 0 1 .5-.5h6.751a.5.5 0 1 1 0 1H8.753a.5.5 0 0 1-.5-.5m0-5.115a.5.5 0 0 1 .5-.5h1.688a.5.5 0 0 1 0 1H8.753a.5.5 0 0 1-.5-.5m5.063 0a.5.5 0 0 1 .5-.5h1.688a.5.5 0 1 1 0 1h-1.688a.5.5 0 0 1-.5-.5" clip-rule="evenodd"/><path fill="#fff" fill-rule="evenodd" d="M3.139 12a8.99 8.99 0 1 1 17.98 0 8.99 8.99 0 0 1-17.98 0m8.99-7.99a7.99 7.99 0 1 0 0 15.98 7.99 7.99 0 0 0 0-15.98" clip-rule="evenodd"/></svg>