<svg xmlns="http://www.w3.org/2000/svg" xml:space="preserve" width="24" height="24" viewBox="0 0 24 24" stroke-miterlimit="10"><path d="M21.047 12.032a9.048 9.048 0 1 0-12.644 8.497 7.8 7.8 0 0 0 .999-2.149c.181-.461.378-.915.582-1.355a2.84 2.84 0 0 0 2.83-.719l.03-.03a2.81 2.81 0 0 0-2.685.4c.25-.523.522-1.03.802-1.522a2.83 2.83 0 0 0 2.852-.582l.03-.03a2.82 2.82 0 0 0-2.662.25c.28-.462.567-.916.87-1.34a2.83 2.83 0 0 0 2.815-.833l.023-.03a2.78 2.78 0 0 0-2.475.378l.076-.098c.181-.235.37-.47.56-.696a3.33 3.33 0 0 0 2.246-2.603l.008-.046h-.008a3.32 3.32 0 0 0-2.414 2.543c-.181.22-.363.44-.537.665a2.78 2.78 0 0 0-.181-2.368l-.023.03c-.63.86-.723 2-.242 2.951-.288.41-.567.825-.832 1.264a2.8 2.8 0 0 0-.735-2.474l-.015.038a2.82 2.82 0 0 0 .485 2.897q-.396.693-.757 1.43a2.92 2.92 0 0 0-.833-2.542l-.015.038a2.93 2.93 0 0 0 .636 2.957c-.16.34-.31.68-.454 1.037a.4.4 0 0 0-.136-.083 3 3 0 0 1-.734-.325 3 3 0 0 0-.6-.273c-.817-.265-.696-.658-1.119-1.453a6 6 0 0 0-.438-.468 1 1 0 0 1-.34-.37 1.8 1.8 0 0 1-.174-.6.55.55 0 0 0-.386-.515c-1.204-.416-.666-1.975-.62-2.18a2.6 2.6 0 0 0-.175-.77 1.06 1.06 0 0 1 .227-1.014c.144-.145.643-.38.75-.515.105-.137.18-.288.287-.416a4.4 4.4 0 0 1 1.15-.825c.348-.19.409-.673.545-.825.227-.257.575-.257.832-.484.129-.114.32-.174.44-.295a3.95 3.95 0 0 1 2.179-1.006 5 5 0 0 1 1.678.151q.12.02.235.053c1.248.046 2.747.303 3.291.833.27.259.47.581.583.938q.133.415.363.787l.333.544c.212.344.28.757.19 1.15a1.05 1.05 0 0 0-.016.59q.264.4.613.727.139.137.303.242.384.23.741.5a.41.41 0 0 1-.174.378c-.212.19-.62.485-.62.485q.022.125.075.242c.06.106.197.272.151.416-.045.143-.34.265-.257.423.083.167.295.212.235.364-.06.143-.356.4-.326.507s.273 1.119-.287 1.294q-1.042.205-2.104.234a.68.68 0 0 0-.552.348c-.107.2-.177.418-.204.644a15 15 0 0 1-.81 2.353s-.023.046-.053.113q-.11.226-.136.477a.95.95 0 0 0 .211.325c.1.114.256.158.4.114a9.12 9.12 0 0 0 6.117-8.773"/></svg>