<svg width="24" height="24" viewBox="0 0 24 24" fill="none"><path fill="#da1157" d="M15.752 14.27a2.27 2.27 0 1 0 0-4.54 2.27 2.27 0 0 0 0 4.54m0-7.505a5.235 5.235 0 1 1-3.753 8.883A5.22 5.22 0 0 0 13.482 12a5.22 5.22 0 0 0-1.483-3.648 5.22 5.22 0 0 1 3.752-1.587M8.248 14.27a2.27 2.27 0 1 0 0-4.539 2.27 2.27 0 0 0 0 4.54M12 8.352A5.22 5.22 0 0 0 10.518 12 5.22 5.22 0 0 0 12 15.648a5.234 5.234 0 1 1 0-7.296M10.517 12c0 1.42.566 2.706 1.483 3.648A5.22 5.22 0 0 0 13.482 12 5.22 5.22 0 0 0 12 8.352 5.22 5.22 0 0 0 10.517 12"/></svg>