<?xml version="1.0" encoding="UTF-8"?>
<svg id="Layer_1" data-name="Layer 1" xmlns="http://www.w3.org/2000/svg" version="1.1" viewBox="0 0 24 24">
  <defs>
    <style>
      .cls-1 {
        fill: none;
      }

      .cls-1, .cls-2, .cls-3, .cls-4 {
        stroke-width: 0px;
      }

      .cls-2 {
        fill: #2d2d2d;
      }

      .cls-3 {
        fill-rule: evenodd;
      }

      .cls-3, .cls-4 {
        fill: #fff;
      }
    </style>
  </defs>
  <path class="cls-1" d="M12,20.4c-.6,0-1.2-.5-1.3-1.1v-1.1c-1.5-.4-2.3-1.4-2.5-3l-1.2-9.3c-.3,0-.5,0-.8,0-.4,0-.8,0-1.1.1v14.1h-2.4v-11.4c0-1.5.7-2.6,2-3.1v-.7c0-.8.5-1.4,1.3-1.4s1.2.5,1.4,1.3v.7c1.5.4,2.3,1.5,2.5,3.3l1.1,9c.7.1,1.4.1,2,0l1.1-9c.2-1.8,1-2.9,2.4-3.3v-.7c.2-.9.7-1.3,1.5-1.3s1.3.6,1.3,1.4v.7c1.3.5,2,1.5,2,3.1v11.4h-2.4V6c-.4-.1-.8-.2-1.1-.1-.3,0-.5,0-.8,0l-1.2,9.3c-.2,1.6-1,2.6-2.3,3v1.1c-.2.7-.7,1.1-1.4,1.1ZM11,18.3v1c.2.4.5.8,1,.7.4,0,.8-.3.8-.7,0,0,0,0,0,0v-1c-.5.1-1.2.1-1.8,0h0ZM19.3,19.7h1.5v-10.9c0-1.3-.5-2.2-1.5-2.6v13.6ZM3.2,19.7h1.5V6.2c-1,.4-1.5,1.3-1.5,2.6v10.9ZM7.5,6.1l1.2,9.1c.2,1.3.8,2.2,1.9,2.6l-1.1-8.8c-.2-1.6-.8-2.5-1.9-2.9ZM16.5,6.1c-1.1.4-1.7,1.3-1.9,2.9l-1.1,8.8c1.1-.4,1.7-1.2,1.9-2.6l1.2-9.1ZM5.1,5.6h0c.4,0,.8-.1,1.1-.1.2,0,.5,0,.7,0v-.5c-.2-.6-.5-1-1-1s-.9.4-.9,1v.6ZM17.7,5.4c.4,0,.8,0,1.1.1v-.6c0-.6-.3-1-.9-1s-.9.3-.9,1v.5c.2,0,.4,0,.7,0h0Z"/>
  <path class="cls-3" d="M12,20.4c-4.7,0-8.4-3.8-8.4-8.4S7.3,3.6,12,3.6s8.4,3.8,8.4,8.4-3.8,8.4-8.4,8.4ZM12,19.9c4.4,0,7.9-3.6,7.9-7.9s-3.6-7.9-7.9-7.9-7.9,3.6-7.9,7.9,3.6,7.9,7.9,7.9Z"/>
  <path class="cls-4" d="M10.6,18.1c.2,0,.9-.6,1.6-1.2.9-.7,1.7-1.5,2.5-2.3.8-.8,1.1-1.1,1.1-1.3.2-.6-1.7-7.2-2-7.3-.2,0-2.2,1.6-4,3.4-1,1-1.3,1.4-1.4,1.6,0,.2,0,.6.2,1.1.4,2,1.3,4.9,1.7,5.8.2.4.2.4.4.3h0Z"/>
  <path class="cls-2" d="M12,20.4c-.6,0-1.2-.5-1.3-1.1v-1.1c-1.5-.4-2.3-1.4-2.5-3l-1.2-9.3c-.3,0-.5,0-.8,0-.4,0-.8,0-1.1.1v14.1h-2.4v-11.4c0-1.5.7-2.6,2-3.1v-.7c0-.8.5-1.4,1.3-1.4s1.2.5,1.4,1.3v.7c1.5.4,2.3,1.5,2.5,3.3l1.1,9c.7.1,1.4.1,2,0l1.1-9c.2-1.8,1-2.9,2.4-3.3v-.7c.2-.9.7-1.3,1.5-1.3s1.3.6,1.3,1.4v.7c1.3.5,2,1.5,2,3.1v11.4h-2.4V6c-.4-.1-.8-.2-1.1-.1-.3,0-.5,0-.8,0l-1.2,9.3c-.2,1.6-1,2.6-2.3,3v1.1c-.2.7-.7,1.1-1.4,1.1ZM11,18.3v1c.2.4.5.8,1,.7.4,0,.8-.3.8-.7,0,0,0,0,0,0v-1c-.5.1-1.2.1-1.8,0h0ZM19.3,19.7h1.5v-10.9c0-1.3-.5-2.2-1.5-2.6v13.6ZM3.2,19.7h1.5V6.2c-1,.4-1.5,1.3-1.5,2.6v10.9ZM7.5,6.1l1.2,9.1c.2,1.3.8,2.2,1.9,2.6l-1.1-8.8c-.2-1.6-.8-2.5-1.9-2.9ZM16.5,6.1c-1.1.4-1.7,1.3-1.9,2.9l-1.1,8.8c1.1-.4,1.7-1.2,1.9-2.6l1.2-9.1ZM5.1,5.6h0c.4,0,.8-.1,1.1-.1.2,0,.5,0,.7,0v-.5c-.2-.6-.5-1-1-1s-.9.4-.9,1v.6ZM17.7,5.4c.4,0,.8,0,1.1.1v-.6c0-.6-.3-1-.9-1s-.9.3-.9,1v.5c.2,0,.4,0,.7,0h0Z"/>
</svg>