<?xml version="1.0" encoding="UTF-8"?>
<svg id="Layer_1" data-name="Layer 1" xmlns="http://www.w3.org/2000/svg" version="1.1" viewBox="0 0 24 24">
  <defs>
    <style>
      .cls-1 {
        fill: #fff;
        stroke-width: 0px;
      }
    </style>
  </defs>
  <path class="cls-1" d="M12,20.5c-.7,0-1.2-.5-1.3-1.1v-1.1c-1.5-.4-2.3-1.4-2.5-3l-1.2-9.4c-.3,0-.5,0-.8,0-.4,0-.8,0-1.2.2v14.2h-2.4v-11.5c0-1.6.7-2.7,2-3.1v-.7c0-.9.5-1.4,1.3-1.4s1.3.5,1.4,1.4v.7c1.5.4,2.3,1.5,2.5,3.3l1.1,9.1c.7.1,1.4.1,2,0l1.1-9.1c.2-1.8,1.1-2.9,2.4-3.3v-.7c.2-.9.7-1.4,1.5-1.4s1.3.6,1.3,1.4v.7c1.3.5,2,1.6,2,3.1v11.5h-2.4V6c-.4-.1-.8-.2-1.2-.2-.3,0-.5,0-.8,0l-1.2,9.4c-.2,1.6-1,2.6-2.4,3v1.1c-.2.7-.7,1.2-1.4,1.1ZM11,18.4v1c.2.4.5.8,1,.7.4,0,.8-.3.8-.7,0,0,0,0,0,0v-1c-.5.1-1.2.1-1.8,0h0ZM19.4,19.8h1.5v-11c0-1.3-.5-2.2-1.5-2.6v13.7ZM3.1,19.8h1.5V6.1c-1,.4-1.5,1.3-1.5,2.6v11ZM7.5,6l1.2,9.2c.2,1.3.8,2.2,1.9,2.6l-1.1-8.9c-.2-1.6-.8-2.5-2-2.9ZM16.5,6c-1.1.4-1.8,1.3-2,2.9l-1.1,8.9c1.1-.4,1.7-1.2,1.9-2.6l1.2-9.2ZM5.1,5.5h0c.4,0,.8-.1,1.2-.1.2,0,.5,0,.7,0v-.5c-.2-.7-.5-1-1-1s-.9.4-.9,1v.6ZM17.8,5.4c.4,0,.8,0,1.2.1v-.6c0-.6-.3-1-.9-1s-.9.3-1,1v.5c.2,0,.4,0,.7,0h0Z"/>
</svg>