<svg width="24" height="24" viewBox="0 0 24 24" fill="none"><path fill="#fff" fill-rule="evenodd" d="m6.47 15.093 3.954 2.319v1.297L5.25 15.664V7.72L12 3.75l6.75 3.971v7.943l-5.174 3.045V17.41l3.953-2.318-1.02-.59.133-.231 1.008.582v-5.89l-5.115 3.032v8.67L12 21l-.536-.334v-8.67L6.35 8.965v5.888l1.007-.581.133.232zm5.382-9.982L6.885 8.024 12 11.057l5.115-3.033-4.996-2.93v1.202h-.268zm0 1.944h.267v1.242h-.268zm0 2h.267v1.243l-.134.061-.133-.06zm4.17 4.838-.134.232-1.077-.622.134-.232zm-1.7-1-.133.232-1.077-.623.015-.145.119-.085zm-6.344 1 1.076-.622.134.233-1.076.62zm1.7-1 1.076-.622.12.086.013.146-1.076.621z" clip-rule="evenodd"/><path fill="#0b1529" fill-rule="evenodd" d="m6.47 14.718 3.954 2.319v1.297L5.25 15.289V7.346L12 3.375l6.75 3.971v7.943l-5.174 3.045v-1.298l3.953-2.318-1.02-.59.133-.231 1.008.582v-5.89l-5.115 3.032v8.67l-.535.334-.536-.334v-8.67L6.35 8.59v5.888l1.007-.581.133.232zm5.382-9.982L6.885 7.649 12 10.681l5.115-3.032-4.996-2.93V5.92h-.268zm0 1.944h.267v1.242h-.268zm0 2h.267v1.243l-.134.061-.133-.06zm4.17 4.838-.134.232-1.077-.622.134-.232zm-1.7-1-.133.232-1.077-.623.015-.145.119-.085zm-6.344 1 1.076-.622.134.233-1.076.62zm1.7-1 1.076-.622.12.086.013.146-1.076.621z" clip-rule="evenodd"/></svg>