<svg width="24" height="24" viewBox="0 0 24 24" fill="none"><path fill="#fff" fill-rule="evenodd" d="M11.147 20.24C6.99 19.804 3.75 16.28 3.75 12s3.24-7.804 7.397-8.24v2.528A5.775 5.775 0 0 0 6.252 12a5.775 5.775 0 0 0 4.895 5.712zm1.631-16.49a8.28 8.28 0 0 1 7.461 7.378h-2.522a5.775 5.775 0 0 0-4.938-4.856zm7.472 9.013c-.361 3.967-3.513 7.125-7.472 7.487v-2.522a5.775 5.775 0 0 0 4.955-4.965z" clip-rule="evenodd"/><path fill="#00adef" fill-rule="evenodd" d="M11.147 20.24C6.99 19.804 3.75 16.28 3.75 12s3.24-7.804 7.397-8.24v2.528A5.775 5.775 0 0 0 6.252 12a5.775 5.775 0 0 0 4.895 5.712zm1.631-16.49a8.28 8.28 0 0 1 7.461 7.378h-2.522a5.775 5.775 0 0 0-4.938-4.856zm7.472 9.013c-.361 3.967-3.513 7.125-7.472 7.487v-2.522a5.775 5.775 0 0 0 4.955-4.965z" clip-rule="evenodd"/></svg>