<svg width="24" height="24" stroke-miterlimit="10" version="1.1" viewBox="0 0 24 24" xml:space="preserve" xmlns="http://www.w3.org/2000/svg" xmlns:xlink="http://www.w3.org/1999/xlink">
<path d="M11.8779 3.16096C8.22649 3.16096 5.26875 6.12115 5.26631 9.77253C5.26631 10.1902 5.30538 10.6078 5.38354 11.0182L6.23838 10.4344C7.74046 9.40373 10.1755 9.40373 11.6752 10.4344L12.5715 11.0499L13.0576 11.3845C14.4106 12.3126 16.6039 12.3126 17.9546 11.3845L18.3527 11.1134C19.0854 7.53529 16.7798 4.04022 13.2017 3.30506C12.7669 3.21469 12.3248 3.17073 11.8803 3.17073L11.8779 3.16096Z" fill="#000000" fill-rule="nonzero" opacity="1" stroke="none"/>
<path d="M15.5928 13.7439C14.6476 13.761 13.7194 13.4972 12.9281 12.9867L11.5482 12.0415C10.0168 11.1012 8.08483 11.1012 6.55101 12.0415L5.65953 12.6521C5.48368 12.7742 5.24188 12.7278 5.11976 12.552C4.99764 12.3761 5.04405 12.1343 5.2199 12.0122L6.11138 11.4016C7.90898 10.2854 10.1853 10.2854 11.9829 11.4016L13.3629 12.3468C14.7282 13.1846 16.4501 13.1846 17.8154 12.3468L18.338 11.9878C18.5139 11.8657 18.7557 11.9121 18.8778 12.0879C18.9999 12.2638 18.9535 12.5056 18.7777 12.6277L18.255 12.9867C17.4636 13.4947 16.5355 13.7585 15.5928 13.7439" fill="#000000" fill-rule="nonzero" opacity="1" stroke="none"/>
<path d="M9.02027 16.5209L9.02027 12.784C9.01783 12.7059 9.02027 12.6277 9.03004 12.5495C9.05447 12.3371 9.2352 12.1759 9.45014 12.1759C9.65774 12.1832 9.82626 12.3419 9.8458 12.5495C9.8629 12.679 9.86534 12.8109 9.86046 12.9403L9.86046 20.3896C9.87023 20.6314 9.68216 20.8317 9.44037 20.8415C9.43792 20.8415 9.43548 20.8415 9.43304 20.8415C9.19613 20.8293 9.01539 20.6266 9.0276 20.3896C9.0276 20.3823 9.0276 20.375 9.03004 20.3701L9.03004 17.8837L9.02027 16.5209Z" fill="#000000" fill-rule="nonzero" opacity="1" stroke="none"/>
<path d="M8.23626 14.6402L8.23626 16.4965C8.23626 16.814 8.06285 17.0191 7.82594 17.0191C7.59147 17.0191 7.40341 16.7969 7.40096 16.4965L7.40096 12.7816C7.40096 12.4567 7.59147 12.2369 7.83815 12.2589C8.08483 12.2809 8.23138 12.4665 8.23382 12.7938C8.23626 13.4019 8.23626 14.0199 8.23626 14.6402" fill="#000000" fill-rule="nonzero" opacity="1" stroke="none"/>
<path d="M10.6469 14.6378L10.6469 13.336C10.6469 13.0331 10.8081 12.8377 11.0475 12.8377C11.2941 12.85 11.4871 13.06 11.4749 13.3067C11.4749 13.3116 11.4749 13.3189 11.4749 13.3238C11.4822 14.2104 11.4822 15.097 11.4749 15.986C11.4749 16.2889 11.3015 16.472 11.0499 16.4671C10.8008 16.4647 10.6494 16.2791 10.6469 15.9689L10.6469 14.6378L10.6469 14.6378Z" fill="#000000" fill-rule="nonzero" opacity="1" stroke="none"/>
<path d="M5.78409 14.9065L5.78409 13.6022C5.78409 13.2994 5.94529 13.104 6.18465 13.104C6.43133 13.1162 6.62428 13.3262 6.61207 13.5729C6.61207 13.5778 6.61207 13.5851 6.61207 13.59C6.61939 14.479 6.61939 15.3656 6.61207 16.2547C6.61207 16.5575 6.43866 16.7383 6.18953 16.7358C5.94285 16.7334 5.78654 16.5477 5.78409 16.2376L5.78409 14.9065L5.78409 14.9065Z" fill="#000000" fill-rule="nonzero" opacity="1" stroke="none"/>
<path d="M12.6717 13.7976L12.6717 13.7976C12.8988 13.7976 13.082 13.9808 13.082 14.2079L13.082 14.9162C13.082 15.1434 12.8988 15.3265 12.6717 15.3265C12.4445 15.3265 12.2613 15.1434 12.2613 14.9162L12.2613 14.2079C12.2638 13.9832 12.447 13.7976 12.6717 13.7976" fill="#000000" fill-rule="nonzero" opacity="1" stroke="none"/>
<path d="M14.2959 14.4204L14.2959 14.4204C14.523 14.4204 14.7062 14.6036 14.7062 14.8307L14.7062 18.8094C14.7062 19.0366 14.523 19.2197 14.2959 19.2197C14.0687 19.2197 13.8855 19.0366 13.8855 18.8094L13.8855 14.8307C13.8855 14.6036 14.0687 14.4204 14.2959 14.4204" fill="#000000" fill-rule="nonzero" opacity="1" stroke="none"/>
<path d="M15.9103 14.5743L15.9103 14.5743C16.1374 14.5743 16.3206 14.7575 16.3206 14.9846L16.3206 18.3649C16.3206 18.592 16.1374 18.7752 15.9103 18.7752C15.6831 18.7752 15.5 18.592 15.5 18.3649L15.5 14.9846C15.5 14.7575 15.6831 14.5743 15.9103 14.5743" fill="#000000" fill-rule="nonzero" opacity="1" stroke="none"/>
<path d="M17.5442 14.1884L17.5442 14.1884C17.7714 14.1884 17.9546 14.3716 17.9546 14.5987L17.9546 16.0568C17.9546 16.284 17.7714 16.4671 17.5442 16.4671C17.3171 16.4671 17.1339 16.284 17.1339 16.0568L17.1339 14.5987C17.1339 14.3716 17.3195 14.1884 17.5442 14.1884" fill="#000000" fill-rule="nonzero" opacity="1" stroke="none"/>
</svg>
