<svg width="256" height="256" version="1.1" viewBox="0 0 256 256" xmlns="http://www.w3.org/2000/svg">
 <path d="m219.04 183.89c0.03-4.9216 18.811-4.7102 18.69-9.3199-0.07-2.7373-5.0624-3.311-6.109-6.9143-0.18121-0.66409-0.23151-1.4289-0.12147-2.3245 0.08-0.53376 0.21136-1.1074 0.43301-1.731 3.8442-11.202 5.9481-23.218 5.9481-35.72-0.0104-60.69-49.206-109.88-109.88-109.88-60.677 0-109.88 49.193-109.88 109.88 0 12.43 2.0732 24.377 5.8775 35.518 0.02029 0.10003 0.06031 0.21136 0.10075 0.32197 0.11061 0.29182 0.20097 0.56377 0.28192 0.83544 1.3583 4.8713-6.2301 6.8137-6.2301 9.7525 0 4.6599 16.344 4.0359 16.344 9.4508 0 4.7202-16.164 6.1796-16.164 10.95 0 6.5821 35.8 4.2872 36.241 9.9435 0.35205 4.3681-12.309 4.6298-12.38 9.2996-0.12047 7.4476 48.853 5.0125 48.853 9.9741 0 3.7539-22.272 2.3951-22.272 6.8339 0 4.4383 29.318 7.2363 61.636 7.2363 32.319 0 54.609-3.593 54.609-7.4782 0-3.8848-20.803-3.0795-20.38-6.5919 0.74498-6.109 46.921-2.9891 46.921-10.064 0-3.7238-12.702-4.5996-12.289-8.6252 0.58363-5.6766 38.598-4.8412 38.598-10.739 0-4.6396-18.841-5.7772-18.811-10.598zm-49.235 27.778c0 3.2509-14.724 4.7305-42.995 4.7305-23.118 0-46.075-1.4497-46.075-5.2237s27.385-4.1163 46.216-4.0862c25.07 0.05 42.865 1.2077 42.865 4.5795zm-41.808-164.97c34.662 0 64.244 21.719 75.888 52.294 1.3489 3.9653-3.5327 3.7238-6.9746 3.7238h-9.3599c-6.6828 0-15.097 0.80529-15.097 2.6366 0 2.295 20.43 2.1641 22.675 2.1641 6.5925 0 11.755 0.49317 12.51 4.539 1.0161 5.1231 1.5498 10.417 1.5498 15.831 0 10.89-2.1538 21.276-6.039 30.757-1.2679 2.7881-2.9185 4.2372-4.9315 5.4449-9.662 5.3743-27.174 4.4081-27.174 7.649 0 4.7 29.499 2.6972 29.539 6.7836 0.06 6.2399-52.629 2.5363-52.629 8.162 0 5.5758 42.392 2.9792 42.392 8.8266 0 2.9388-13.617 4.026-28.453 4.3983-23.058 0.30211-63.821 0.13147-79.178-0.40243l0.02029 0.02c-10.397-0.37251-19.243-1.7915-22.715-3.291-0.9559-0.41272-0.99637-1.5701-0.08046-2.0432 10.497-5.4045 74.598-1.0971 74.598-7.3775 0-6.28-63.335-1.932-63.284-7.377 0.04001-3.875 27.677-3.5327 49.598-3.5327 28.392 0 37.107-1.4191 37.097-3.4621-0.02-4.1163-34.914-1.7009-35.044-6.3204-0.12147-4.4787 55.221-1.2077 55.221-5.596 0-2.7877-24.044-3.0494-48.087-2.959-24.044 0.0915-48.087 0.13147-48.087 3.1101 0 3.3713 28.453 2.0633 28.453 5.4449 0 2.6667-15.64 3.2207-31.964 3.2207-10.779 0-19.133-0.81558-23.23-5.8982-0.3318-0.42258-0.67397-1.0265-0.94601-1.58-4.7601-10.336-7.4378-21.839-7.4378-33.968 0-44.837 36.343-81.179 81.179-81.179z" fill="#95f921" style="stroke-width:.47065"/>
 <path d="m126.34 151.25c34.964 0 69.012 0.50318 69.012-3.4019 0-4.7305-48.826-4.1766-74.194-4.1766-20.119 0-56.191-0.63437-56.191 3.8645 0 4.499 40.389 3.7139 61.363 3.7139z" fill="#95f921" style="stroke-width:.47065"/>
 <path d="m148.93 137.83c22.987 0 34.501-0.27152 34.501-3.0395 0-4.0057-31.3-1.7815-31.3-5.7566 0-3.4927 19.777-1.5301 19.777-5.2742 0-2.9486-22.142-2.6771-34.219-2.6771-13.386 0-26.571 0.50318-26.571 3.0192 0 3.2513 33.746 1.4294 33.746 4.7607 0 4.7706-53.542 1.3286-53.542 5.9278 0 4.3583 34.802 3.0395 57.599 3.0395z" fill="#95f921" style="stroke-width:.47065"/>
 <path d="m171.48 116.53c4.9212 0 19.364-0.30168 19.364-2.2845s-10.698-2.6168-21.819-2.5966c-7.6392 0-23.218 0.13148-23.218 2.365 0 2.2342 11.826 2.516 25.675 2.516z" fill="#95f921" style="stroke-width:.47065"/>
 <path d="m179.8 123.81c0 1.8718 8.2628 2.6366 14.594 2.6366 3.6636 0 10.638-0.76484 10.638-2.2441 0-1.7918-7.1657-2.3453-11.524-2.4056-5.646-0.07-13.708 0.39257-13.708 2.0027z" fill="#95f921" style="stroke-width:.47065"/>
</svg>
