<?xml version="1.0" encoding="UTF-8" standalone="no"?>
<svg
   width="24"
   height="24"
   stroke-miterlimit="10"
   version="1.1"
   viewBox="0 0 24 24"
   xml:space="preserve"
   id="svg10"
   xmlns="http://www.w3.org/2000/svg"
   xmlns:svg="http://www.w3.org/2000/svg">

<circle
     cx="334"
     cy="334"
     r="334"
     fill="#06353d"
     id="circle1"
     transform="matrix(0.03293413,0,0,0.03293413,1.0000006,1.0000006)" />
<circle
     cx="334"
     cy="334"
     r="333.5"
     stroke="#ffffff"
     stroke-opacity="0.3"
     id="circle2"
     transform="matrix(0.03293413,0,0,0.03293413,1.0000006,1.0000006)" />
  
	 
<path
     d="m 527.427,452.767 c 0.064,-10.457 39.967,-10.008 39.71,-19.802 -0.15,-5.816 -10.756,-7.035 -12.98,-14.691 -0.385,-1.411 -0.492,-3.036 -0.257,-4.939 0.171,-1.134 0.449,-2.353 0.92,-3.678 8.168,-23.801 12.638,-49.333 12.638,-75.893 -0.022,-128.946 -104.547,-233.471 -233.472,-233.471 -128.925,0 -233.471,104.525 -233.471,233.471 0,26.41 4.405,51.793 12.488,75.465 0.043,0.214 0.128,0.449 0.214,0.684 0.235,0.62 0.427,1.198 0.599,1.775 2.886,10.35 -13.237,14.477 -13.237,20.721 0,9.901 34.728,8.575 34.728,20.08 0,10.029 -34.343,13.13 -34.343,23.266 0,13.985 76.063,9.109 77.004,21.127 0.748,9.281 -26.153,9.837 -26.303,19.759 -0.256,15.824 103.799,10.65 103.799,21.192 0,7.976 -47.323,5.089 -47.323,14.52 0,9.43 62.292,15.375 130.956,15.375 68.664,0 116.03,-7.634 116.03,-15.889 0,-8.254 -44.201,-6.543 -43.303,-14.006 1.583,-12.98 99.693,-6.351 99.693,-21.384 0,-7.912 -26.987,-9.773 -26.11,-18.326 1.24,-12.061 82.008,-10.286 82.008,-22.817 0,-9.858 -40.031,-12.275 -39.967,-22.518 z m -104.611,59.02 c 0,6.907 -31.285,10.051 -91.353,10.051 -49.119,0 -97.897,-3.08 -97.897,-11.099 0,-8.019 58.187,-8.746 98.196,-8.682 53.268,0.107 91.075,2.566 91.075,9.73 z m -88.83,-350.528 c 73.647,0 136.495,46.147 161.236,111.112 2.866,8.425 -7.506,7.912 -14.819,7.912 h -19.887 c -14.199,0 -32.076,1.711 -32.076,5.602 0,4.876 43.409,4.598 48.178,4.598 14.007,0 24.977,1.048 26.581,9.644 2.159,10.885 3.293,22.133 3.293,33.637 0,23.138 -4.576,45.206 -12.831,65.35 -2.694,5.924 -6.201,9.003 -10.478,11.569 -20.529,11.419 -57.737,9.366 -57.737,16.252 0,9.986 62.677,5.731 62.762,14.413 0.129,13.258 -111.817,5.389 -111.817,17.342 0,11.847 90.07,6.33 90.07,18.754 0,6.244 -28.933,8.554 -60.453,9.345 -48.991,0.642 -135.597,0.278 -168.229,-0.855 0,0 0,0 0.043,0.042 -22.09,-0.791 -40.886,-3.806 -48.264,-6.992 -2.031,-0.877 -2.117,-3.336 -0.171,-4.341 22.304,-11.483 158.499,-2.331 158.499,-15.675 0,-13.343 -134.57,-4.105 -134.463,-15.674 0.085,-8.233 58.806,-7.506 105.38,-7.506 60.325,0 78.844,-3.015 78.822,-7.356 -0.043,-8.746 -74.181,-3.614 -74.459,-13.429 -0.257,-9.516 117.334,-2.566 117.334,-11.89 0,-5.923 -51.086,-6.479 -102.173,-6.287 -51.086,0.193 -102.173,0.278 -102.173,6.608 0,7.163 60.453,4.384 60.453,11.569 0,5.666 -33.231,6.843 -67.916,6.843 -22.902,0 -40.651,-1.733 -49.355,-12.532 -0.705,-0.898 -1.432,-2.181 -2.01,-3.357 -10.114,-21.961 -15.803,-46.403 -15.803,-72.171 0,-95.266 77.218,-172.484 172.485,-172.484 z"
     fill="#95f921"
     id="path2-3" 
	 transform="matrix(0.03293413,0,0,0.03293413,1.0000006,1.0000006)"/>
	 
<path
     d="m 330.458,383.44 c 74.288,0 146.631,1.069 146.631,-7.228 0,-10.051 -103.735,-8.874 -157.644,-8.874 -42.747,0 -119.387,-1.348 -119.387,8.211 0,9.559 85.814,7.891 130.378,7.891 z"
     fill="#95f921"
     id="path3-0" 
	 transform="matrix(0.03293413,0,0,0.03293413,1.0000006,1.0000006)"/>
	 
<path
     d="m 378.444,354.913 c 48.841,0 73.304,-0.577 73.304,-6.458 0,-8.511 -66.504,-3.785 -66.504,-12.231 0,-7.421 42.02,-3.251 42.02,-11.206 0,-6.265 -47.045,-5.688 -72.706,-5.688 -28.441,0 -56.454,1.069 -56.454,6.415 0,6.908 71.701,3.037 71.701,10.115 0,10.136 -113.764,2.823 -113.764,12.595 0,9.26 73.946,6.458 122.381,6.458 z"
     fill="#95f921"
     id="path4-5" 
	 transform="matrix(0.03293413,0,0,0.03293413,1.0000006,1.0000006)"/>
	 
<path
     d="m 426.366,309.643 c 10.456,0 41.142,-0.641 41.142,-4.854 0,-4.213 -22.731,-5.56 -46.36,-5.517 -16.231,0 -49.333,0.278 -49.333,5.025 0,4.747 25.126,5.346 54.551,5.346 z"
     fill="#95f921"
     id="path5-7" 
	 transform="matrix(0.03293413,0,0,0.03293413,1.0000006,1.0000006)"/>
	 
<path
     d="m 444.05,325.147 c 0,3.977 17.556,5.602 31.007,5.602 7.784,0 22.603,-1.625 22.603,-4.768 0,-3.807 -15.225,-4.983 -24.485,-5.111 -11.996,-0.15 -29.125,0.834 -29.125,4.255 z"
     fill="#95f921"
     id="path6-9" 
	 transform="matrix(0.03293413,0,0,0.03293413,1.0000006,1.0000006)"/>









</svg>
