<svg width="256" height="256" version="1.1" viewBox="0 0 256 256" xmlns="http://www.w3.org/2000/svg">
  <path transform="matrix(16.24 0 0 16.24 -66.869 -66.882)" fill="#95f921" d="m18.37 15.912c0.0021-0.34439 1.3163-0.3296 1.3078-0.65216-0.0049-0.19154-0.35424-0.23169-0.42748-0.48383-0.01268-0.04647-0.0162-0.09999-0.0085-0.16266 0.0056-0.03735 0.01479-0.07749 0.0303-0.12113 0.269-0.78386 0.41622-1.6247 0.41622-2.4995-7.25e-4 -4.2468-3.4432-7.6891-7.6891-7.6891-4.2459 0-7.6891 3.4423-7.6891 7.6891 0 0.86979 0.14507 1.7058 0.41128 2.4854 0.00142 7e-3 0.00422 0.01479 0.00705 0.02253 0.00774 0.02042 0.014063 0.03945 0.019727 0.05846 0.095048 0.34087-0.43595 0.47679-0.43595 0.68243 0 0.32608 1.1437 0.28241 1.1437 0.66132 0 0.3303-1.1311 0.43242-1.1311 0.76624 0 0.46058 2.5051 0.3 2.536 0.6958 0.024635 0.30566-0.86132 0.32397-0.86626 0.65074-0.00843 0.52115 3.4185 0.35075 3.4185 0.69794 0 0.26268-1.5585 0.1676-1.5585 0.4782 0 0.31057 2.0515 0.50636 4.313 0.50636 2.2615 0 3.8213-0.25142 3.8213-0.52329 0-0.27184-1.4557-0.21549-1.4261-0.46127 0.05213-0.42748 3.2833-0.20916 3.2833-0.70426 0-0.26057-0.88879-0.32186-0.85991-0.60355 0.04084-0.39722 2.7009-0.33876 2.7009-0.75146 0-0.32466-1.3184-0.40426-1.3163-0.74161zm-3.4452 1.9438c0 0.22748-1.0303 0.33102-3.0086 0.33102-1.6177 0-3.2241-0.10144-3.2241-0.36553s1.9163-0.28804 3.234-0.28593c1.7543 0.0035 2.9995 0.08451 2.9995 0.32045zm-2.9255-11.544c2.4255 0 4.4955 1.5198 5.3103 3.6593 0.09439 0.27747-0.2472 0.26057-0.48805 0.26057h-0.65496c-0.46763 0-1.0564 0.05635-1.0564 0.1845 0 0.16059 1.4296 0.15143 1.5867 0.15143 0.46131 0 0.82259 0.03451 0.87542 0.31762 0.0711 0.35849 0.10845 0.72893 0.10845 1.1078 0 0.76203-0.15071 1.4888-0.42258 2.1522-0.08872 0.1951-0.20422 0.2965-0.34508 0.38101-0.6761 0.37607-1.9015 0.30846-1.9015 0.53524 0 0.32888 2.0642 0.18874 2.067 0.47468 0.0042 0.43664-3.6827 0.17748-3.6827 0.57114 0 0.39017 2.9664 0.20847 2.9664 0.61764 0 0.20564-0.95288 0.28172-1.991 0.30777-1.6135 0.02114-4.4659 0.0092-5.5405-0.02816l0.00142 0.0014c-0.72752-0.026066-1.3465-0.12536-1.5895-0.23029-0.066889-0.02888-0.069721-0.10987-0.00563-0.14297 0.73456-0.37818 5.22-0.07677 5.22-0.51624 0-0.43944-4.4319-0.13519-4.4283-0.51621 0.0028-0.27115 1.9367-0.2472 3.4706-0.2472 1.9867 0 2.5966-0.0993 2.5959-0.24226-0.0014-0.28804-2.4431-0.11902-2.4522-0.44227-0.0085-0.3134 3.8641-0.08451 3.8641-0.39158 0-0.19507-1.6825-0.21338-3.3649-0.20706-1.6825 0.0064-3.3649 0.0092-3.3649 0.21763 0 0.23591 1.991 0.14438 1.991 0.38101 0 0.1866-1.0944 0.22537-2.2367 0.22537-0.75425 0-1.3388-0.05707-1.6255-0.41273-0.023218-0.02957-0.047161-0.07183-0.066197-0.11056-0.33309-0.72326-0.52046-1.5282-0.52046-2.3769 0-3.1375 2.5431-5.6805 5.6805-5.6805z" style="stroke-width:.032934"/>
  <path transform="matrix(16.24 0 0 16.24 -66.869 -66.882)" fill="#95f921" d="m11.883 13.628c2.4466 0 4.8291 0.03521 4.8291-0.23805 0-0.33102-3.4166-0.29226-5.1917-0.29226-1.4078 0-3.932-0.04439-3.932 0.27042 0 0.31482 2.8262 0.25988 4.2939 0.25988z" style="stroke-width:.032934"/>
  <path transform="matrix(16.24 0 0 16.24 -66.869 -66.882)" fill="#95f921" d="m13.464 12.689c1.6085 0 2.4142-0.019 2.4142-0.21269 0-0.2803-2.1902-0.12466-2.1902-0.40282 0-0.2444 1.3839-0.10707 1.3839-0.36906 0-0.20633-1.5494-0.18733-2.3945-0.18733-0.93668 0-1.8593 0.03521-1.8593 0.21127 0 0.22751 2.3614 0.10002 2.3614 0.33313 0 0.33382-3.7466 0.09297-3.7466 0.4148 0 0.30497 2.4353 0.21269 4.0305 0.21269z" style="stroke-width:.032934"/>
  <path transform="matrix(16.24 0 0 16.24 -66.869 -66.882)" fill="#95f921" d="m15.042 11.198c0.34436 0 1.355-0.02111 1.355-0.15986 0-0.13875-0.74862-0.18311-1.5268-0.1817-0.53455 0-1.6247 0.0092-1.6247 0.16549 0 0.15634 0.8275 0.17606 1.7966 0.17606z" style="stroke-width:.032934"/>
  <path transform="matrix(16.24 0 0 16.24 -66.869 -66.882)" fill="#95f921" d="m15.624 11.708c0 0.13098 0.57819 0.1845 1.0212 0.1845 0.25636 0 0.74441-0.05352 0.74441-0.15703 0-0.12538-0.50142-0.16411-0.80639-0.16833-0.39508-0.0049-0.9592 0.02747-0.9592 0.14014z" style="stroke-width:.032934"/>
</svg>
