<svg width="24" height="24" viewBox="0 0 24 24" fill="none"><path fill="#47b95c" d="M12.003 4.5c-4.14 0-7.5 3.36-7.5 7.5 0 .1.01.195.015.295h3.52l1.7-2.925 2.265 3.245 2.26-3.245 1.7 2.925h3.52c.005-.1.014-.195.014-.295.006-4.14-3.354-7.5-7.494-7.5m5.17 6.89a5.21 5.21 0 0 0-5.17-4.595 5.217 5.217 0 0 0-5.17 4.595h-.91a6.116 6.116 0 0 1 6.08-5.5c3.165 0 5.77 2.415 6.08 5.5z"/><path fill="#47b95c" d="m14.198 11.05-2.195 3.15-2.196-3.15-1.25 2.15h-3.95c.576 3.57 3.66 6.3 7.396 6.3s6.82-2.73 7.395-6.305h-3.95zm2.565 3.05h.97c-.86 2.335-3.1 4.01-5.73 4.01s-4.87-1.675-5.73-4.01h.97a5.21 5.21 0 0 0 4.76 3.105c2.124 0 3.95-1.28 4.76-3.105"/></svg>