<svg width="24" height="24" viewBox="0 0 24 24" fill="none"><path fill="#fff" fill-opacity=".5" d="m5.25 7.176 3.175 5.327V18c-1.753 0-3.175-1.377-3.175-3.076z"/><path fill="#fff" fill-opacity=".6" d="m15.574 12.497 3.174-5.324h.001v7.752c0 1.698-1.421 3.075-3.175 3.075z"/><path fill="#fff" fill-opacity=".8" d="m11.998 12.343-1.588 2.664q-.494-.124-1.062-.958L5.25 7.175c1.519-.85 3.461-.345 4.338 1.125z"/><path fill="#fff" d="M14.412 8.295c.877-1.472 2.82-1.976 4.338-1.126l-4.098 6.874A3.2 3.2 0 0 1 12 15.426c-.494 0-.98-.11-1.425-.326l-.165-.092z"/><path fill="#104fca" fill-opacity=".5" d="m5.25 6.798 3.175 5.327v5.497c-1.753 0-3.175-1.377-3.175-3.076z"/><path fill="#104fca" fill-opacity=".6" d="m15.574 12.119 3.174-5.324h.001v7.752c0 1.698-1.421 3.075-3.175 3.075z"/><path fill="#104fca" fill-opacity=".8" d="m11.998 11.965-1.588 2.664q-.494-.124-1.062-.958L5.25 6.797c1.519-.85 3.461-.345 4.338 1.125z"/><path fill="#104fca" d="M14.412 7.917c.877-1.472 2.82-1.976 4.338-1.126l-4.098 6.874A3.2 3.2 0 0 1 12 15.048c-.494 0-.98-.11-1.425-.326l-.165-.093z"/></svg>