<svg width="24" height="24" viewBox="0 0 24 24" fill="none"><path fill="#622fba" fill-rule="evenodd" d="M13.94 13.032q-.099.03-.19.073l-2.757-2.865a1.433 1.433 0 0 0-.855-2.096V6.14L9.4 5.727l1.704-.986a1.79 1.79 0 0 1 1.792 0l3.389 1.962-1.34.774a1.433 1.433 0 1 0-1.005 2.679zm.853 0v-2.877a1.43 1.43 0 0 0 .819-2.08l1.522-.88.728.42a1.78 1.78 0 0 1 .888 1.54v5.69a1.78 1.78 0 0 1-.889 1.54l-3.067 1.775v-2.394a1.432 1.432 0 0 0-.001-2.734m-1.67.652a1.433 1.433 0 0 0 .817 2.082v2.889l-1.044.604a1.79 1.79 0 0 1-1.792 0l-3.649-2.112 1.371-1.07a1.43 1.43 0 0 0 1.472.226 1.433 1.433 0 0 0-.161-2.703v-2.698q.118-.033.228-.085zm-3.839-.06a1.433 1.433 0 0 0-.92 1.731l-1.703 1.332-.522-.302a1.78 1.78 0 0 1-.889-1.54v-5.69c0-.634.338-1.22.889-1.54l2.404-1.392.742.415v1.53a1.432 1.432 0 0 0 0 2.71zm.466-3.482a.62.62 0 1 1-.045-1.238.62.62 0 0 1 .045 1.238m0 5.456a.621.621 0 1 1-.045-1.241.621.621 0 0 1 .045 1.241m4.616-6.19a.62.62 0 1 1-.044-1.241.62.62 0 0 1 .044 1.24m0 5.61a.62.62 0 1 1-.001-1.24.62.62 0 0 1 .001 1.24" clip-rule="evenodd"/></svg>