<svg width="24" height="24" viewBox="0 0 24 24"><path fill="#fff" d="M17.448 3.914 13.685 9.5a.4.4 0 0 0 .594.525l3.704-3.213a.15.15 0 0 1 .25.114v10.058a.15.15 0 0 1-.265.096L6.773 3.679A1.92 1.92 0 0 0 5.309 3h-.391A1.92 1.92 0 0 0 3 4.917v14.165A1.92 1.92 0 0 0 4.918 21a1.92 1.92 0 0 0 1.635-.914l3.762-5.586a.4.4 0 0 0-.594-.525l-3.703 3.212a.15.15 0 0 1-.25-.113V7.014a.15.15 0 0 1 .265-.097l11.193 13.404A1.92 1.92 0 0 0 18.69 21h.391A1.92 1.92 0 0 0 21 19.082V4.917A1.92 1.92 0 0 0 19.083 3a1.92 1.92 0 0 0-1.635.914"/></svg>