<svg xmlns="http://www.w3.org/2000/svg" xml:space="preserve" width="24" height="24" viewBox="0 0 24 24" stroke-miterlimit="10"><path fill="#df42ab" fill-rule="evenodd" d="M24 12c0 6.627-5.373 12-12 12S0 18.627 0 12 5.373 0 12 0s12 5.373 12 12M7.359 6.902l4.49 4.49V7.127a.32.32 0 0 1 .322-.32h5.073a.32.32 0 0 1 .316.32v5.015l.002.036v5.052a.322.322 0 0 1-.45.298.3.3 0 0 1-.11-.073H17l-4.49-4.49v4.265a.32.32 0 0 1-.32.323H7.12a.32.32 0 0 1-.323-.323v-5.052a.3.3 0 0 1 .01-.077V7.127a.323.323 0 0 1 .552-.225"/></svg>