<svg width="24" height="24" viewBox="0 0 24 24" fill="none"><path fill="#b3ba00" d="m9.848 7.998-.098.06L14.25 15V8.051L12.003 6.75zm-.098 7.876 2.352 1.376 2.148-1.254L9.75 9zM7.5 9.267v5.466L9 15.75v-7.5zM15 15.75l1.5-1.04V9.29L15 8.25z"/><path fill="#b3ba00" d="M12 3c-4.969 0-9 4.031-9 9s4.031 9 9 9 9-4.031 9-9-4.031-9-9-9m-.037 14.715-4.857-2.88V9.084l4.857-2.872 4.857 2.872v5.752z"/><path fill="#b3ba00" d="m9.848 7.998-.098.06L14.25 15V8.051L12.003 6.75zm-.098 7.876 2.352 1.376 2.148-1.254L9.75 9zM7.5 9.267v5.466L9 15.75v-7.5zM15 15.75l1.5-1.04V9.29L15 8.25z"/><path fill="#b3ba00" d="M12 3c-4.969 0-9 4.031-9 9s4.031 9 9 9 9-4.031 9-9-4.031-9-9-9m-.037 14.715-4.857-2.88V9.084l4.857-2.872 4.857 2.872v5.752z"/></svg>