<svg width="24" height="24" viewBox="0 0 24 24" fill="none">
<path d="M9.8475 7.998L9.75 8.05725L14.25 15V8.05125L12.003 6.75L9.8475 7.998ZM9.75 15.8738L12.102 17.25L14.25 15.996L9.75 9V15.8738ZM7.5 9.267V14.733L9 15.75V8.25L7.5 9.267ZM15 15.75L16.5 14.7098V9.29025L15 8.25V15.75Z" fill="#B3BA00"/>
<path d="M12 3C7.03125 3 3 7.03125 3 12C3 16.9688 7.03125 21 12 21C16.9688 21 21 16.9688 21 12C21 7.03125 16.9688 3 12 3ZM11.9625 17.715L7.1055 14.835V9.084L11.9633 6.2115L16.8202 9.084V14.8358L11.9633 17.7142L11.9625 17.715Z" fill="#B3BA00"/>
<path d="M9.8475 7.998L9.75 8.05725L14.25 15V8.05125L12.003 6.75L9.8475 7.998ZM9.75 15.8738L12.102 17.25L14.25 15.996L9.75 9V15.8738ZM7.5 9.267V14.733L9 15.75V8.25L7.5 9.267ZM15 15.75L16.5 14.7098V9.29025L15 8.25V15.75Z" fill="#B3BA00"/>
<path d="M12 3C7.03125 3 3 7.03125 3 12C3 16.9688 7.03125 21 12 21C16.9688 21 21 16.9688 21 12C21 7.03125 16.9688 3 12 3ZM11.9625 17.715L7.1055 14.835V9.084L11.9633 6.2115L16.8202 9.084V14.8358L11.9633 17.7142L11.9625 17.715Z" fill="#B3BA00"/>
</svg>
