<svg width="24" height="24" viewBox="0 0 24 24" fill="none"><path fill="#1a4199" d="m8.047 4.987 8.05 4.643v4.74L3.79 7.263l3.95-2.276a.32.32 0 0 1 .314 0" opacity=".7"/><path fill="#1a4199" d="m16.096 4.893-4.1 2.37 4.1 2.367z" opacity=".9"/><path fill="#1a4199" d="m16.096 4.893 3.948 2.277a.31.31 0 0 1 .165.276v9.291l-4.113-2.367z"/><path fill="#1a4199" d="m20.201 16.737-3.948 2.275a.33.33 0 0 1-.315 0L7.89 14.37V9.624z" opacity=".9"/><path fill="#1a4199" d="M3.79 7.263v9.29a.32.32 0 0 0 .165.277l3.95 2.277V9.624z" opacity=".6"/><path fill="#1a4199" d="m7.897 19.106 4.1-2.369-4.1-2.367z" opacity=".7"/></svg>