<svg width="24" height="24" viewBox="0 0 24 24" fill="none"><path fill="#050708" d="M11.891 3.76a.58.58 0 0 1 .47.116l6.527 4.849c.15.112.244.3.236.49v5.568a.6.6 0 0 1-.26.512l-6.503 4.831a.59.59 0 0 1-.744-.018l-6.479-4.814a.62.62 0 0 1-.262-.51V9.219a.62.62 0 0 1 .26-.51l6.48-4.815a.7.7 0 0 1 .275-.134m-.078 15.011a7 7 0 0 0-.006.262l.002.522q.168.004.337 0v-.767a4 4 0 0 0-.333-.017m-1.282-.689-.19.001c.136.237.264.477.402.71q.168.002.339-.007c-.09-.249-.245-.466-.362-.702a13 13 0 0 0-.378 0zm2.045.36q-.004.173.002.344h.315a2.4 2.4 0 0 0 .013-.336q-.165-.01-.33-.008M12.22 16.6c-.473.003-.946-.003-1.42.003v.323c.42.01.838.002 1.258.005v.771c-.087.001-.173-.002-.258.007-.025.102-.012.208-.014.312q.228.007.455 0 .068-.076.14-.152v-1.103zm2.508.432c-.108-.053-.222-.231-.347-.124-.373.248-.757.48-1.125.735.002.107.002.213.01.319q.518.006 1.033-.001l.001-.337-.253-.003-.16.001c.274-.194.56-.367.84-.55zm-4.907.186-.671.002a9 9 0 0 0 0 .339c.447.002.895.005 1.342-.002v-.336a80 80 0 0 0-1.342-.001zm-1.127-.493h-.166q-.002.17 0 .34h.332q.003-.169 0-.338a10 10 0 0 0-.332-.001zm6.445-1.21c-.005.184-.003.368-.003.553q.268.417.539.833c.151-.232.3-.47.454-.701.028-.051.074-.1.07-.163q.005-.254-.003-.507c-.14.228-.289.448-.427.675-.032.044-.055.1-.105.122-.182-.267-.35-.543-.525-.813m-1.077-.415c-.21 0-.421-.002-.633.002q-.184.69-.385 1.378l.325.002.291-1.066.177.01c.095.351.195.7.288 1.053q.163.003.325.002zm-6.564.772-.294.006v.333c.293.006.587.013.88-.002.014-.11.008-.222.005-.334-.295-.001-.59-.007-.885.003zm2.363-.786c-.407.253-.808.517-1.21.78l.002.323c.633.007 1.265.004 1.897.002a7 7 0 0 0 0-.342c-.427-.006-.853.003-1.28-.005.295-.18.58-.373.872-.557q-.14-.102-.281-.2m1.425-.25h-.168c-.005.422 0 .844-.002 1.266l.1.018a5 5 0 0 1 .24-.015c-.003-.423 0-.846-.003-1.269h-.335zm1.033.312a3 3 0 0 1-.351.022q.199.35.393.703l.33-.002c-.07-.263-.234-.492-.372-.723m4.47.16-.173.002a8 8 0 0 0 0 .333q.172.008.345.003v-.337a6 6 0 0 0-.345.002zm-8.091-1.344c-.184.271-.35.554-.536.824q-.26-.41-.524-.818-.006.28-.002.56c.182.266.35.54.525.81.188-.269.356-.552.54-.825-.002-.184 0-.368-.003-.552m.862.356a3 3 0 0 0-.002.348q.166.002.332 0a8 8 0 0 0 0-.34q-.165-.011-.33-.008m4.587-.918-.168.157q0 .225.002.449.162 0 .323-.002.003-.138.002-.277h.753c-.004.304-.001.607 0 .91q.162.004.326.003V13.56l-.162-.158q-.538.002-1.076-.001m-8.398-.215h-.211l-.16.158v.736l.004.367c.028.067.09.124.151.16.368.011.736 0 1.104.005h.309l-.002-.32c-.414-.005-.829-.001-1.243-.002-.003-.258 0-.516-.003-.774l.263-.003v-.325a17 17 0 0 0-.423-.002zm7.24.285c-.398.27-.81.52-1.209.79.002.109.002.217.017.325.63 0 1.261.004 1.891 0a7 7 0 0 0 0-.354c-.42-.006-.841.003-1.263-.005.281-.19.575-.361.85-.559q-.143-.098-.284-.198zm4.493-.053q-.604.384-1.2.777a12 12 0 0 0 0 .33q.945.003 1.888 0 .003-.172 0-.344c-.424-.002-.847.003-1.27-.002l.864-.56q-.14-.102-.282-.201m-7.463-1.487h-.166q-.005.962 0 1.923.169.004.336.002c.014-.427-.02-.856.021-1.281.228.39.478.77.717 1.155l.114-.002c-.018-.175.05-.376-.064-.526-.265-.423-.533-.844-.793-1.27a9 9 0 0 0-.331 0zm6.137.693c-.11-.018-.22-.01-.332-.008q-.006.595 0 1.19.168.004.335 0c.002-.394.008-.789-.003-1.182m-7.432.446c-.386.012-.776-.022-1.161.021l.001.335c.487.003.972 0 1.46.001v-.344q-.15-.015-.3-.013m9.696-1.516q-.547-.01-1.095-.002l-.148.153q0 .22.002.438l.321-.002.003-.266c.255.003.51-.003.765.004l-.001 1.431h.311c-.005-.103.023-.205.017-.308.003-.128-.003-.255.001-.381q-.002-.396 0-.793c.02-.123-.084-.218-.176-.274m-5.492 1.294h-.162v.342q.162.003.324 0 .003-.171 0-.34l-.324-.001zm-1.432-.672-.169.002q-.004.42 0 .838.168.004.338.002v-.84a8 8 0 0 0-.338 0zm3.459.389-.515.002a6 6 0 0 0-.001.338c.29.034.583.008.875.016.059-.006.136.02.169-.046a1.3 1.3 0 0 0-.013-.309c-.343 0-.686-.003-1.03.002zm-1.422-.013h-.166v.342h.332a10 10 0 0 0 0-.341h-.332zm-6.263-.987h-.339v1.086h.34v-1.085m1.227-.43h-.315l-.39 1.382.326.002c.086-.355.2-.702.279-1.058l.18-.013c.11.354.193.715.301 1.07h.315c-.12-.463-.255-.921-.382-1.382q-.315-.003-.629 0zm4.047-.103-.052.002h-1.286q-.003.165 0 .328c.417.011.837-.02 1.254.018v.757l-.267.003v.33q.213.003.426.002l.165-.18v-.962c.02-.157-.135-.321-.292-.296zm-6.677.837q-.005.165-.003.33.17.004.337 0v-.322a4 4 0 0 0-.334-.008m7.98-1.384h-.214c-.06.08-.178.14-.163.257a96 96 0 0 0 0 .93c-.014.116.101.176.161.256.472-.002.944.001 1.415-.002q.004-.165.002-.33c-.42-.004-.838 0-1.256-.003v-.776l.27-.002q.003-.165-.002-.328-.213-.003-.427-.002zm-3.625.549h-.82a5 5 0 0 0 .001.346h.82a9 9 0 0 0 0-.346m6.67-.399-.732.004v.338c.488.007.975.003 1.463.003v-.344c-.487 0-.975-.004-1.462.002zm-1.661 0-.173.004q-.003.168 0 .337.172.008.346 0 .003-.169 0-.338a5 5 0 0 0-.346 0zm-9.012-.705-.84.003a9 9 0 0 0 0 .343c.35.003.703 0 1.054.001-.135.095-.275.181-.414.27.093.068.176.16.285.2.257-.155.507-.322.757-.49v-.324q-.843-.006-1.683 0zm2.323-.276c-.269.184-.549.353-.811.547.26.19.534.357.798.54q.274.001.549-.003c-.272-.176-.54-.359-.813-.534.265-.19.547-.355.811-.547-.178-.003-.355 0-.534-.003m2.358.61h-.727l.001.34 1.45-.002q.022-.168.004-.337c-.485-.005-.97 0-1.455-.002zm1.22 0-.176.001v.335q.175.002.35-.002v-.332a6 6 0 0 0-.35-.001zm.808-1.005h-.162v1.088h.325q.002-.544 0-1.087h-.325zm4.132.625-.169.002q-.002.17 0 .34.17.006.336 0a6 6 0 0 0 .001-.34 10 10 0 0 0-.337 0zm-1.128-1.333c-.21-.034-.422-.001-.633 0-.128.46-.254.918-.388 1.374q.164.002.327.001c.091-.356.198-.707.285-1.063l.179-.002c.106.353.195.712.298 1.065h.324zm-1.86.808h-.164q-.003.171 0 .341h.328q.002-.169 0-.339a8 8 0 0 0-.328-.001zm3.99-.384-.375.002.4.705q.17.001.34-.004c-.092-.25-.242-.47-.366-.703zm-6.165-1.031-.161.002c-.005.423-.002.847-.002 1.27-.256-.006-.512.015-.766-.014q.001-.127-.002-.255h-.309c0 .149-.013.299.006.446.043.051.093.096.142.144.37-.002.738.002 1.108-.002l.148-.146c-.003-.482.003-.963-.003-1.444a11 11 0 0 0-.322 0zm-2.546.795H9.19c-.007.266-.004.53-.003.795h.33q.002-.396-.001-.793H9.19zm7.708-.464-.168.002q-.005.546 0 1.09.168.003.336 0 .004-.545 0-1.09a7 7 0 0 0-.336 0zm-10.052.448-.73.003a13 13 0 0 0 0 .341q.73.005 1.46 0a7 7 0 0 0 0-.341 96 96 0 0 0-1.46 0zm1.29.003h-.331v.342H8.3a8 8 0 0 0 0-.342m2.408-1.262c-.181.274-.355.554-.534.83-.18-.272-.353-.55-.53-.824-.001.185-.015.371.004.555q.083.14.17.276l.354.546c.177-.279.368-.55.533-.837.015-.181.003-.364.003-.546m2.196-.822-.162.002q-.004.96 0 1.921.168.005.337 0l.002-1.287c.248.381.479.774.73 1.154l.125.022q.004-.21.003-.42c-.295-.46-.58-.928-.873-1.39a9 9 0 0 0-.324 0zm-3.976.36-.242.01h-.271q-.002.17.001.34.182-.001.364.006c-.24.142-.472.298-.709.444.087.073.17.16.276.201.362-.209.705-.45 1.062-.668q.003-.16.001-.32a6 6 0 0 0-.724-.003zm6.433.513-.8.001v.331h1.6v-.33a142 142 0 0 0-1.6 0zm-3.923-.378-.166.002a8 8 0 0 0 0 .34q.166.004.333 0a9 9 0 0 0 0-.34 6 6 0 0 0-.333 0zm2.814-.235-.172.002v.332q.172.003.345-.001v-.33a7 7 0 0 0-.345 0zm-3.682-1.38-.173.004c.008.497-.022.996.015 1.491l.33-.002q.007-.744.002-1.49a5 5 0 0 0-.348.001zm1.276.706q-.187 0-.373.002.193.356.395.705.172.001.343-.005c-.096-.248-.246-.467-.365-.702m1.96-.17-.464.002v.343q.463.007.925 0 .003-.171 0-.343a46 46 0 0 0-.925 0zM11.98 4.933h-.514c-.1-.013-.16.09-.216.156-.02.142-.005.288-.006.432h.32l.002-.27h.754c.023.268 0 .537 0 .805l.024.1c.101.008.204.003.306.001V5.08l-.1-.1-.056-.043c-.342-.009-.685-.001-1.027-.004z"/></svg>