<svg width="24" height="24" viewBox="0 0 24 24" fill="none">
<path d="M11.8911 3.76046C11.9731 3.74453 12.0577 3.74661 12.1389 3.76655C12.2201 3.78649 12.296 3.82382 12.3613 3.87596L18.8878 8.72471C19.0378 8.83721 19.1316 9.02471 19.1241 9.21521V14.7832C19.1268 14.8833 19.1045 14.9826 19.0592 15.0719C19.0139 15.1612 18.947 15.2378 18.8646 15.2947L12.3613 20.1262C12.2543 20.2096 12.1216 20.2534 11.986 20.25C11.8503 20.2465 11.72 20.1962 11.6173 20.1075C9.45732 18.5025 7.29807 16.8975 5.13807 15.294C5.05645 15.2364 4.98995 15.16 4.94424 15.0712C4.89853 14.9824 4.87498 14.8838 4.87557 14.784V9.21896C4.87472 9.11929 4.89794 9.02088 4.94324 8.93209C4.98855 8.84331 5.05461 8.76676 5.13582 8.70896L11.6166 3.89396C11.6967 3.82911 11.7906 3.78345 11.8911 3.76046ZM11.8131 18.771C11.8093 18.858 11.8078 18.9457 11.8071 19.0327L11.8086 19.5555C11.9211 19.557 12.0336 19.5577 12.1461 19.5555V18.7875C12.0354 18.7771 11.9243 18.7715 11.8131 18.771ZM10.5306 18.0825L10.3416 18.0832C10.4766 18.3195 10.6048 18.5595 10.7428 18.7935C10.8553 18.7935 10.9678 18.7935 11.0818 18.786C10.9918 18.537 10.8366 18.3202 10.7203 18.084C10.5941 18.0821 10.4678 18.0821 10.3416 18.084L10.5306 18.0825ZM12.5758 18.4425C12.5737 18.557 12.5745 18.6715 12.5781 18.786H12.8931C12.9073 18.6742 12.9081 18.5625 12.9058 18.45C12.796 18.4433 12.6859 18.4408 12.5758 18.4425ZM12.2196 16.5997C11.7471 16.6027 11.2738 16.5967 10.8006 16.6035C10.7991 16.711 10.7991 16.8185 10.8006 16.926C11.2191 16.9357 11.6383 16.9282 12.0576 16.9305V17.7022C11.9706 17.703 11.8851 17.7 11.7996 17.709C11.7748 17.811 11.7876 17.9167 11.7861 18.021C11.9376 18.0255 12.0891 18.0247 12.2406 18.0217C12.2863 17.97 12.3336 17.9197 12.3808 17.8687C12.3808 17.5012 12.3801 17.1337 12.3816 16.7662C12.3277 16.7106 12.2737 16.6551 12.2196 16.5997ZM14.7276 17.0317C14.6203 16.9792 14.5063 16.8007 14.3811 16.908C14.0083 17.1562 13.6243 17.388 13.2561 17.643C13.2576 17.7495 13.2583 17.856 13.2658 17.9617C13.6108 17.9647 13.9551 17.9662 14.2993 17.961C14.3008 17.8485 14.3008 17.736 14.3001 17.6235C14.2156 17.6215 14.1311 17.6205 14.0466 17.6205L13.8876 17.622C14.1613 17.4285 14.4478 17.2552 14.7276 17.0715V17.0317ZM9.82107 17.2177L9.14982 17.22C9.14757 17.3325 9.14757 17.445 9.14982 17.559C9.59682 17.5612 10.0446 17.5635 10.4923 17.5575V17.2207C10.0446 17.2155 9.59682 17.2177 9.14982 17.22L9.82107 17.2177ZM8.69382 16.725L8.52807 16.7257C8.52657 16.8382 8.52582 16.9515 8.52807 17.0647C8.63832 17.0662 8.74932 17.0662 8.86032 17.0647C8.86182 16.9522 8.86182 16.8397 8.86032 16.7272C8.74959 16.7248 8.63882 16.7243 8.52807 16.7257L8.69382 16.725ZM15.1386 15.5145C15.1341 15.699 15.1356 15.8835 15.1363 16.068C15.3163 16.3455 15.4926 16.6252 15.6748 16.9012C15.8263 16.6687 15.9748 16.4317 16.1286 16.2C16.1571 16.149 16.2028 16.0995 16.1991 16.0365C16.2028 15.8677 16.2006 15.699 16.1961 15.5302C16.0566 15.7575 15.9073 15.978 15.7686 16.2052C15.7371 16.2487 15.7138 16.3042 15.6636 16.3267C15.4821 16.0597 15.3148 15.7837 15.1386 15.5145ZM14.0623 15.0997C13.8516 15.1005 13.6408 15.0982 13.4293 15.102C13.3061 15.5627 13.1776 16.022 13.0438 16.4797L13.3693 16.482L13.6603 15.4162L13.8373 15.4252C13.9318 15.777 14.0323 16.1265 14.1246 16.479C14.2326 16.4812 14.3421 16.4812 14.4501 16.4812L14.0623 15.0997ZM7.49832 15.8722L7.20357 15.8782V16.2112C7.49682 16.2165 7.79082 16.224 8.08407 16.209C8.09832 16.0987 8.09157 15.987 8.08932 15.8752C7.79382 15.8737 7.49832 15.8685 7.20357 15.8782L7.49832 15.8722ZM9.86082 15.0862C9.45357 15.339 9.05307 15.603 8.65182 15.8655C8.65032 15.9735 8.65032 16.0815 8.65332 16.1895C9.28557 16.1962 9.91782 16.1932 10.5501 16.191C10.5531 16.077 10.5531 15.963 10.5508 15.849C10.1233 15.843 9.69732 15.852 9.27057 15.8437C9.56532 15.6645 9.85032 15.471 10.1421 15.2865C10.0491 15.2182 9.95457 15.153 9.86082 15.0862ZM11.2858 14.8357L11.1178 14.8365C11.1133 15.258 11.1178 15.6802 11.1156 16.1017L11.2168 16.1205C11.2963 16.113 11.3758 16.1092 11.4553 16.1055C11.4531 15.6825 11.4561 15.2595 11.4531 14.8365C11.3413 14.8352 11.2296 14.8352 11.1178 14.8365L11.2858 14.8357ZM12.3193 15.1477C12.2031 15.1635 12.0853 15.1702 11.9676 15.1702C12.1003 15.4027 12.2316 15.6375 12.3613 15.873L12.6913 15.8707C12.6201 15.6082 12.4573 15.3787 12.3193 15.1477ZM16.7886 15.3075L16.6161 15.3105C16.6138 15.4215 16.6138 15.5325 16.6161 15.6435C16.7308 15.6487 16.8463 15.6487 16.9611 15.6457V15.309C16.8461 15.3064 16.731 15.3069 16.6161 15.3105L16.7886 15.3075ZM8.69757 13.9635C8.51382 14.235 8.34732 14.5185 8.16207 14.7877C7.98882 14.5147 7.81332 14.2425 7.63782 13.9702C7.6337 14.1569 7.63295 14.3437 7.63557 14.5305C7.81782 14.796 7.98657 15.0705 8.16057 15.3405C8.34882 15.0712 8.51682 14.7877 8.70057 14.5147C8.69907 14.331 8.70132 14.1472 8.69757 13.9635ZM9.56007 14.3197C9.55257 14.436 9.55332 14.5522 9.55782 14.6685C9.66882 14.67 9.77982 14.6692 9.89007 14.6685C9.89264 14.555 9.89264 14.4414 9.89007 14.328C9.78026 14.3201 9.67014 14.3173 9.56007 14.3197ZM14.1471 13.4017L13.9791 13.5592C13.9791 13.7092 13.9783 13.8585 13.9813 14.0077C14.0886 14.0077 14.1966 14.0077 14.3038 14.0062C14.3061 13.914 14.3068 13.8217 14.3061 13.7287L15.0591 13.7295C15.0553 14.0332 15.0576 14.3362 15.0583 14.6392C15.1671 14.6422 15.2758 14.643 15.3853 14.6422V13.56L15.2226 13.4025C14.8641 13.4017 14.5056 13.404 14.1471 13.401V13.4017ZM5.74932 13.1865H5.53782L5.37882 13.3447L5.37732 14.0805L5.38182 14.448C5.40957 14.5147 5.47182 14.5725 5.53332 14.6085C5.90082 14.619 6.26907 14.6085 6.63732 14.613H6.79107L6.94557 14.6122C6.94632 14.5057 6.94632 14.3992 6.94407 14.2927C6.53007 14.2882 6.11532 14.292 5.70057 14.2905C5.69757 14.0325 5.70057 13.7752 5.69832 13.5172L5.96082 13.5135C5.96179 13.4052 5.96154 13.297 5.96007 13.1887C5.81933 13.1864 5.67857 13.1859 5.53782 13.1872L5.74932 13.1865ZM12.9898 13.4715C12.5908 13.7415 12.1798 13.9912 11.7801 14.2612C11.7816 14.3707 11.7816 14.4795 11.7973 14.5875C12.4273 14.5875 13.0581 14.5905 13.6881 14.5867C13.6911 14.4687 13.6911 14.3507 13.6881 14.2327C13.2681 14.2275 12.8466 14.2357 12.4251 14.2282C12.7063 14.0385 12.9996 13.8667 13.2756 13.6695C13.1788 13.605 13.0851 13.5375 12.9906 13.4707L12.9898 13.4715ZM17.4816 13.419C17.0803 13.6762 16.6791 13.9327 16.2816 14.196C16.2801 14.3055 16.2801 14.4157 16.2816 14.526C16.9116 14.5282 17.5408 14.5282 18.1701 14.526C18.1716 14.412 18.1716 14.2965 18.1701 14.1825C17.7463 14.1795 17.3226 14.1847 16.8996 14.1802L17.7643 13.62C17.6713 13.5525 17.5768 13.4835 17.4816 13.419ZM10.0191 11.9317L9.85257 11.9325C9.85032 12.5737 9.85032 13.2142 9.85257 13.8547C9.96507 13.8577 10.0776 13.8577 10.1893 13.857C10.2028 13.4295 10.1691 13.0005 10.2103 12.576C10.4383 12.9667 10.6881 13.3455 10.9266 13.731L11.0413 13.7287C11.0233 13.554 11.0916 13.353 10.9768 13.203C10.7121 12.78 10.4443 12.3592 10.1841 11.9332C10.0736 11.9312 9.96306 11.9312 9.85257 11.9332L10.0191 11.9317ZM16.1563 12.6247C16.0468 12.6075 15.9351 12.615 15.8241 12.6172C15.8204 13.0137 15.8204 13.4102 15.8241 13.8067C15.9358 13.809 16.0476 13.8097 16.1593 13.8067C16.1608 13.413 16.1668 13.0185 16.1563 12.6247ZM8.72382 13.071C8.33757 13.083 7.94832 13.0492 7.56282 13.092C7.56207 13.2037 7.56207 13.3147 7.56432 13.4265C8.05107 13.4302 8.53632 13.4265 9.02382 13.428V13.0845C8.92417 13.0741 8.824 13.0696 8.72382 13.071ZM18.4198 11.5545C18.0549 11.5476 17.6898 11.5471 17.3248 11.553L17.1771 11.706C17.1771 11.8515 17.1771 11.9985 17.1786 12.144C17.2858 12.1447 17.3931 12.144 17.5003 12.1425L17.5026 11.8762C17.7576 11.8785 18.0126 11.8732 18.2676 11.88L18.2668 13.311L18.5781 13.3117C18.5728 13.2082 18.6006 13.1062 18.5946 13.0027C18.5983 12.8752 18.5923 12.7485 18.5961 12.6217C18.5938 12.3577 18.5961 12.093 18.5961 11.829C18.6156 11.706 18.5121 11.6115 18.4198 11.5545ZM12.9283 12.849L12.7656 12.8497V13.191C12.8743 13.1925 12.9823 13.1925 13.0903 13.191C13.0918 13.077 13.0918 12.963 13.0903 12.8505C12.9821 12.8494 12.8738 12.8491 12.7656 12.8497L12.9283 12.849ZM11.4958 12.177L11.3271 12.1792C11.3241 12.4582 11.3248 12.738 11.3263 13.017C11.4388 13.02 11.5513 13.02 11.6646 13.0185C11.6653 12.738 11.6661 12.4582 11.6646 12.1785C11.5521 12.1762 11.4396 12.1762 11.3271 12.1785L11.4958 12.177ZM14.9548 12.5655L14.4403 12.5685C14.4366 12.681 14.4366 12.7935 14.4388 12.906C14.7291 12.9397 15.0223 12.9135 15.3141 12.9225C15.3726 12.9165 15.4498 12.9427 15.4828 12.876C15.4905 12.7728 15.4862 12.6691 15.4701 12.567C15.1266 12.567 14.7838 12.564 14.4403 12.5685L14.9548 12.5655ZM13.5328 12.5527L13.3671 12.5535C13.3656 12.6675 13.3656 12.7815 13.3671 12.8947C13.4773 12.8955 13.5876 12.8962 13.6986 12.8955C13.7006 12.7815 13.7006 12.6675 13.6986 12.5535C13.5881 12.5524 13.4776 12.5524 13.3671 12.5535L13.5328 12.5527ZM7.27032 11.5665H6.93132L6.93057 12.6525H7.27107V11.5665H7.27032ZM8.49657 11.1352L8.18232 11.1367C8.05032 11.5965 7.92207 12.0577 7.79232 12.5182L8.11782 12.5197C8.20407 12.165 8.31732 11.8177 8.39682 11.4622L8.57682 11.4487C8.68707 11.8027 8.77032 12.1642 8.87832 12.5197L9.19332 12.519C9.07332 12.0562 8.93832 11.598 8.81082 11.1375C8.60082 11.1345 8.39232 11.136 8.18232 11.1375L8.49657 11.1352ZM12.5436 11.0332L12.4918 11.0347H11.2056C11.2045 11.1442 11.2045 11.2537 11.2056 11.3632C11.6233 11.3745 12.0433 11.343 12.4596 11.3812V12.138L12.1926 12.141V12.471C12.3351 12.4725 12.4768 12.4725 12.6186 12.4725L12.7836 12.2925V11.331C12.8038 11.1742 12.6486 11.01 12.4918 11.0347L12.5436 11.0332ZM5.86707 11.8695C5.86332 11.9797 5.86332 12.09 5.86407 12.2002C5.97657 12.2025 6.08907 12.2017 6.20082 12.2002V11.8777C6.08973 11.8704 5.97839 11.8676 5.86707 11.8695ZM13.8471 10.4857H13.6333C13.5726 10.566 13.4548 10.626 13.4698 10.743C13.4683 11.0527 13.4683 11.3625 13.4698 11.673C13.4556 11.7885 13.5711 11.8492 13.6311 11.9287C14.1028 11.9272 14.5746 11.9302 15.0456 11.9272C15.0486 11.8177 15.0486 11.7075 15.0478 11.5972C14.6286 11.5927 14.2101 11.5972 13.7916 11.5942V10.818L14.0616 10.8157C14.0635 10.7065 14.063 10.5972 14.0601 10.488C13.9176 10.485 13.7751 10.4865 13.6326 10.4857H13.8471ZM10.2223 11.0347H9.40257C9.39807 11.1502 9.39882 11.2657 9.40332 11.3812H10.2223C10.2246 11.2657 10.2246 11.1502 10.2223 11.0347ZM16.8921 10.6365L16.1601 10.6395C16.1586 10.752 16.1593 10.866 16.1601 10.9785C16.6476 10.9852 17.1351 10.9807 17.6226 10.9807C17.6241 10.8667 17.6241 10.752 17.6233 10.6372C17.1358 10.6372 16.6483 10.6327 16.1608 10.6395L16.8921 10.6365ZM15.2308 10.6365L15.0576 10.6395C15.0561 10.752 15.0561 10.8645 15.0576 10.977C15.1731 10.9815 15.2886 10.9815 15.4041 10.977C15.4056 10.8645 15.4063 10.752 15.4041 10.6395C15.2886 10.6352 15.173 10.6352 15.0576 10.6395L15.2308 10.6365ZM6.21882 9.93146L5.37882 9.93371C5.37657 10.0477 5.37657 10.1625 5.37882 10.2765C5.72982 10.2802 6.08157 10.2765 6.43332 10.278C6.29832 10.3732 6.15807 10.4595 6.01932 10.548C6.11232 10.6155 6.19482 10.7077 6.30357 10.7482C6.56082 10.593 6.81132 10.4257 7.06107 10.2585L7.06032 9.93446C6.49932 9.92921 5.93832 9.93071 5.37807 9.93371L6.21882 9.93146ZM8.54232 9.65471C8.27307 9.83921 7.99332 10.008 7.73082 10.2022C7.99107 10.3912 8.26482 10.5592 8.52882 10.7415C8.71182 10.7415 8.89482 10.743 9.07782 10.7392C8.80632 10.563 8.53782 10.38 8.26482 10.2052C8.53032 10.0155 8.81232 9.84971 9.07632 9.65771C8.89782 9.65471 8.72082 9.65771 8.54232 9.65471ZM10.9003 10.2645H10.1728C10.1728 10.377 10.1728 10.4902 10.1743 10.6042C10.6573 10.6042 11.1396 10.605 11.6233 10.6035C11.6383 10.491 11.6398 10.3785 11.6278 10.266C11.1433 10.2615 10.6581 10.266 10.1728 10.2637L10.9003 10.2645ZM12.1191 10.2645L11.9443 10.266V10.6005C12.0606 10.602 12.1768 10.602 12.2938 10.599V10.2675C12.1774 10.2637 12.0608 10.2632 11.9443 10.266L12.1191 10.2645ZM12.9283 9.26021H12.7656V10.3477H13.0911C13.0911 9.98546 13.0933 9.62321 13.0911 9.26096C12.9826 9.26 12.8741 9.26 12.7656 9.26096L12.9283 9.26021ZM17.0601 9.88496L16.8913 9.88721C16.8891 10.0005 16.8898 10.1145 16.8913 10.2277C17.0038 10.2307 17.1163 10.2307 17.2273 10.2277C17.2306 10.114 17.2309 10.0002 17.2281 9.88646C17.1156 9.88421 17.0031 9.88496 16.8913 9.88646L17.0601 9.88496ZM15.9321 8.55221C15.7221 8.51771 15.5098 8.55071 15.2991 8.55221C15.1708 9.01121 15.0448 9.47021 14.9113 9.92621C15.0201 9.92696 15.1288 9.92771 15.2376 9.92696C15.3291 9.57146 15.4356 9.22046 15.5233 8.86421L15.7018 8.86196C15.8083 9.21521 15.8968 9.57371 15.9996 9.92696H16.3236L15.9321 8.55221ZM14.0721 9.35996L13.9078 9.36071C13.9064 9.47421 13.9064 9.58772 13.9078 9.70121H14.2356C14.2371 9.58871 14.2371 9.47546 14.2363 9.36221C14.1268 9.35945 14.0173 9.35895 13.9078 9.36071L14.0721 9.35996ZM18.0621 8.97596C17.9368 8.97596 17.8116 8.97596 17.6871 8.97821L18.0861 9.68321C18.1993 9.68321 18.3141 9.68321 18.4273 9.67871C18.3351 9.42971 18.1851 9.20921 18.0613 8.97596H18.0621ZM11.8971 7.94471L11.7358 7.94696C11.7306 8.36996 11.7343 8.79446 11.7336 9.21746C11.4778 9.21146 11.2221 9.23246 10.9678 9.20321C10.9694 9.11821 10.9689 9.03319 10.9663 8.94821H10.6573C10.6573 9.09671 10.6438 9.24671 10.6626 9.39446C10.7061 9.44546 10.7563 9.49046 10.8051 9.53846C11.1741 9.53621 11.5431 9.53996 11.9128 9.53621C11.9616 9.48671 12.0111 9.43796 12.0613 9.38996C12.0576 8.90846 12.0636 8.42696 12.0583 7.94621C11.9508 7.94456 11.8433 7.94456 11.7358 7.94621L11.8971 7.94471ZM9.35082 8.74046H9.18807C9.18057 9.00596 9.18432 9.27071 9.18507 9.53546H9.51507C9.51507 9.27071 9.51657 9.00596 9.51357 8.74196C9.40482 8.74046 9.29607 8.74046 9.18807 8.74121L9.35082 8.74046ZM17.0586 8.27621L16.8913 8.27846C16.888 8.64171 16.888 9.00497 16.8913 9.36821C17.0031 9.36971 17.1148 9.37046 17.2266 9.36821C17.2303 9.00521 17.2303 8.64146 17.2266 8.27846C17.1148 8.27579 17.0031 8.27579 16.8913 8.27846L17.0586 8.27621ZM7.00707 8.72396L6.27732 8.72696C6.27582 8.83946 6.27582 8.95421 6.27732 9.06821C6.76407 9.07121 7.25007 9.07196 7.73682 9.06821C7.73947 8.95448 7.73947 8.8407 7.73682 8.72696C7.25033 8.72325 6.76381 8.72325 6.27732 8.72696L7.00707 8.72396ZM8.29707 8.72696H7.96557V9.06896C8.07657 9.06971 8.18682 9.07046 8.29782 9.06896C8.30025 8.95498 8.30025 8.84095 8.29782 8.72696H8.29707ZM10.7046 7.46546C10.5238 7.73921 10.3498 8.01896 10.1706 8.29421C9.99057 8.02271 9.81807 7.74521 9.64032 7.47146C9.63957 7.65596 9.62607 7.84196 9.64482 8.02646C9.70032 8.11871 9.75732 8.21096 9.81582 8.30246L10.1691 8.84771C10.3461 8.56946 10.5366 8.29796 10.7016 8.01146C10.7166 7.82996 10.7046 7.64696 10.7046 7.46546ZM12.9013 6.64346L12.7393 6.64496C12.7356 7.28546 12.7371 7.92596 12.7386 8.56646C12.8511 8.56871 12.9636 8.56871 13.0761 8.56646L13.0783 7.27946C13.3258 7.66046 13.5568 8.05346 13.8073 8.43296L13.9333 8.45546C13.9363 8.31521 13.9356 8.17496 13.9356 8.03546C13.6408 7.57421 13.3558 7.10696 13.0633 6.64421C12.9553 6.64239 12.8473 6.64264 12.7393 6.64496L12.9013 6.64346ZM8.92482 7.00346L8.68332 7.01321C8.59283 7.01209 8.50232 7.01209 8.41182 7.01321C8.41032 7.12571 8.41107 7.23896 8.41332 7.35221C8.53407 7.35371 8.65557 7.35221 8.77707 7.35896C8.53707 7.50146 8.30532 7.65671 8.06832 7.80296C8.15532 7.87571 8.23707 7.96271 8.34357 8.00396C8.70582 7.79546 9.04857 7.55396 9.40632 7.33571C9.40782 7.22921 9.40782 7.12196 9.40707 7.01546C9.16611 6.99942 8.92438 6.99867 8.68332 7.01321L8.92482 7.00346ZM15.3583 7.51571L14.5581 7.51721V7.84796C15.0921 7.84946 15.6246 7.84871 16.1578 7.84796V7.51796C15.6253 7.51496 15.0913 7.51496 14.5581 7.51796L15.3583 7.51571ZM11.4351 7.13771L11.2686 7.13996C11.2663 7.25321 11.2663 7.36646 11.2686 7.47971C11.3796 7.48271 11.4906 7.48271 11.6016 7.47971C11.6038 7.36571 11.6038 7.25321 11.6016 7.13996C11.4906 7.13687 11.3795 7.13687 11.2686 7.13996L11.4351 7.13771ZM14.2491 6.90296L14.0766 6.90521L14.0773 7.23671C14.1921 7.23896 14.3068 7.23896 14.4216 7.23596V6.90596C14.3066 6.90281 14.1916 6.90256 14.0766 6.90521L14.2491 6.90296ZM10.5666 5.52371L10.3941 5.52746C10.4016 6.02396 10.3716 6.52271 10.4091 7.01846C10.5193 7.01846 10.6296 7.01846 10.7398 7.01621C10.7451 6.51971 10.7428 6.02321 10.7413 5.52596C10.6253 5.52275 10.5093 5.52325 10.3933 5.52746L10.5666 5.52371ZM11.8431 6.22871C11.7186 6.22871 11.5941 6.22871 11.4696 6.23096C11.5986 6.46796 11.7291 6.70346 11.8648 6.93596C11.9788 6.93596 12.0936 6.93596 12.2076 6.93071C12.1116 6.68321 11.9616 6.46421 11.8431 6.22871ZM13.8021 6.05921L13.3393 6.06146C13.3378 6.17546 13.3378 6.29021 13.3393 6.40421C13.6476 6.40946 13.9558 6.40796 14.2641 6.40421C14.2655 6.28972 14.2655 6.17521 14.2641 6.06071C13.9558 6.05787 13.6476 6.05812 13.3393 6.06146L13.8021 6.05921ZM11.9773 4.93271L11.4628 4.93346C11.3623 4.91996 11.3038 5.02346 11.2468 5.08871C11.2266 5.23121 11.2416 5.37746 11.2408 5.52146H11.5603L11.5626 5.25146H12.3171C12.3396 5.51921 12.3163 5.78771 12.3163 6.05621L12.3411 6.15671C12.4423 6.16421 12.5451 6.15896 12.6471 6.15746C12.6456 5.79821 12.6456 5.43896 12.6471 5.07971L12.5466 4.97996L12.4911 4.93721C12.1491 4.92821 11.8056 4.93571 11.4636 4.93346L11.9773 4.93271Z" fill="#050708"/>
</svg>
