<svg width="19" height="19" viewBox="0 0 19 19" fill="none">
<path fill="#8c94d3" d="M 4.128906 4.003906 C 3.722656 4.058594 3.390625 4.222656 3.125 4.5 C 3.003906 4.625 2.921875 4.746094 2.835938 4.917969 C 2.726562 5.128906 2.664062 5.351562 2.625 5.625 C 2.601562 5.789062 2.601562 6.160156 2.625 6.339844 C 2.738281 7.242188 3.167969 8.136719 3.894531 8.984375 C 4.042969 9.160156 4.445312 9.566406 4.625 9.714844 C 4.90625 9.957031 5.160156 10.152344 5.457031 10.351562 L 5.621094 10.460938 L 5.457031 10.625 C 5.054688 11.03125 4.71875 11.5 4.464844 12.023438 C 4.355469 12.242188 4.296875 12.390625 4.25 12.546875 C 4.105469 13.050781 4.105469 13.523438 4.242188 13.945312 C 4.414062 14.464844 4.785156 14.828125 5.28125 14.957031 C 5.542969 15.027344 5.859375 15.027344 6.160156 14.960938 C 6.6875 14.847656 7.195312 14.578125 7.667969 14.167969 C 7.734375 14.109375 7.917969 13.933594 8.078125 13.777344 C 8.414062 13.449219 8.539062 13.335938 8.703125 13.230469 C 8.875 13.113281 9.023438 13.046875 9.207031 13.003906 C 9.324219 12.976562 9.578125 12.96875 9.714844 12.992188 C 9.90625 13.019531 10.097656 13.097656 10.273438 13.210938 C 10.449219 13.328125 10.515625 13.386719 10.90625 13.765625 C 11.261719 14.109375 11.3125 14.15625 11.480469 14.292969 C 11.714844 14.480469 11.902344 14.597656 12.144531 14.714844 C 12.46875 14.871094 12.777344 14.96875 13.070312 15 C 13.226562 15.019531 13.496094 15.007812 13.632812 14.976562 C 13.910156 14.917969 14.121094 14.8125 14.320312 14.632812 C 14.546875 14.429688 14.714844 14.140625 14.792969 13.816406 C 14.84375 13.617188 14.851562 13.550781 14.851562 13.289062 C 14.851562 13.019531 14.84375 12.917969 14.785156 12.691406 C 14.621094 12.015625 14.074219 11.128906 13.476562 10.558594 C 13.417969 10.503906 13.375 10.457031 13.382812 10.453125 C 13.386719 10.449219 13.46875 10.398438 13.558594 10.335938 C 14.46875 9.722656 15.222656 8.960938 15.699219 8.171875 C 15.925781 7.800781 16.070312 7.492188 16.191406 7.121094 C 16.289062 6.828125 16.34375 6.574219 16.378906 6.28125 C 16.394531 6.128906 16.394531 5.785156 16.375 5.640625 C 16.273438 4.867188 15.890625 4.332031 15.261719 4.101562 C 15.058594 4.023438 14.847656 3.988281 14.574219 3.988281 C 14.148438 3.988281 13.726562 4.089844 13.222656 4.304688 C 13.050781 4.378906 12.398438 4.699219 12.230469 4.792969 C 11.738281 5.066406 11.289062 5.378906 10.84375 5.746094 C 10.757812 5.820312 10.636719 5.910156 10.582031 5.949219 C 10.375 6.089844 10.097656 6.203125 9.84375 6.253906 C 9.695312 6.285156 9.449219 6.296875 9.304688 6.28125 C 8.988281 6.242188 8.6875 6.132812 8.425781 5.960938 C 8.371094 5.921875 8.238281 5.820312 8.132812 5.734375 C 7.667969 5.351562 7.238281 5.058594 6.753906 4.789062 C 6.570312 4.683594 6.003906 4.402344 5.8125 4.320312 C 5.421875 4.148438 5.074219 4.046875 4.71875 4.003906 C 4.574219 3.984375 4.261719 3.988281 4.128906 4.003906 Z M 5.808594 6.148438 C 6.316406 6.257812 6.824219 6.527344 7.277344 6.921875 C 7.394531 7.027344 7.550781 7.1875 7.625 7.285156 C 7.683594 7.355469 7.738281 7.476562 7.761719 7.570312 C 7.789062 7.675781 7.785156 7.867188 7.753906 7.980469 C 7.695312 8.199219 7.558594 8.433594 7.359375 8.671875 C 7.226562 8.828125 6.890625 9.148438 6.859375 9.148438 C 6.851562 9.148438 6.804688 9.121094 6.75 9.089844 C 5.871094 8.554688 5.148438 7.789062 4.675781 6.902344 L 4.621094 6.804688 L 4.648438 6.703125 C 4.726562 6.378906 4.929688 6.191406 5.261719 6.132812 C 5.378906 6.109375 5.667969 6.121094 5.808594 6.148438 Z M 13.726562 6.132812 C 14.074219 6.1875 14.292969 6.402344 14.359375 6.742188 L 14.371094 6.808594 L 14.3125 6.921875 C 13.871094 7.765625 13.085938 8.585938 12.226562 9.101562 L 12.128906 9.160156 L 12.027344 9.070312 C 11.753906 8.832031 11.523438 8.5625 11.386719 8.332031 C 11.253906 8.101562 11.203125 7.917969 11.210938 7.714844 C 11.222656 7.476562 11.3125 7.316406 11.574219 7.054688 C 12.0625 6.570312 12.710938 6.222656 13.285156 6.132812 C 13.398438 6.113281 13.625 6.113281 13.726562 6.132812 Z M 9.65625 8.695312 C 9.820312 8.84375 10.257812 9.238281 10.5625 9.519531 C 10.671875 9.621094 10.757812 9.707031 10.757812 9.710938 C 10.753906 9.714844 10.6875 9.730469 10.613281 9.746094 C 10.007812 9.875 9.382812 9.898438 8.757812 9.8125 C 8.625 9.792969 8.339844 9.738281 8.261719 9.71875 L 8.222656 9.707031 L 8.261719 9.671875 C 8.28125 9.652344 8.425781 9.523438 8.578125 9.382812 C 9.042969 8.953125 9.484375 8.558594 9.496094 8.5625 C 9.503906 8.5625 9.574219 8.625 9.65625 8.695312 Z M 6.722656 11.210938 C 7.101562 11.53125 7.398438 11.878906 7.578125 12.207031 L 7.617188 12.28125 L 7.558594 12.371094 C 7.351562 12.679688 7.027344 12.96875 6.722656 13.113281 C 6.5625 13.191406 6.492188 13.210938 6.332031 13.210938 C 6.21875 13.210938 6.191406 13.207031 6.136719 13.1875 C 6.011719 13.144531 5.902344 13.046875 5.835938 12.921875 C 5.75 12.742188 5.75 12.46875 5.84375 12.199219 C 5.925781 11.957031 6.101562 11.6875 6.335938 11.433594 C 6.402344 11.359375 6.628906 11.144531 6.640625 11.144531 C 6.640625 11.144531 6.679688 11.175781 6.722656 11.210938 Z M 12.46875 11.242188 C 12.761719 11.515625 12.9375 11.738281 13.078125 12.023438 C 13.34375 12.550781 13.25 13.050781 12.863281 13.1875 C 12.808594 13.207031 12.78125 13.210938 12.667969 13.210938 C 12.503906 13.210938 12.425781 13.191406 12.261719 13.105469 C 11.945312 12.949219 11.648438 12.679688 11.445312 12.378906 L 11.378906 12.28125 L 11.425781 12.199219 C 11.558594 11.949219 11.8125 11.628906 12.066406 11.398438 C 12.175781 11.296875 12.351562 11.144531 12.359375 11.144531 C 12.363281 11.144531 12.410156 11.1875 12.46875 11.242188 Z M 12.46875 11.242188 "/>
</svg>
