<svg width="24" height="24" viewBox="0 0 24 24" fill="none"><path fill="#f5d100" d="M11.993 3.017c-4.95 0-8.98 4.03-8.98 8.98s4.03 8.986 8.987 8.986 8.986-4.03 8.986-8.987-4.036-8.979-8.992-8.979zm0 17.273c-4.57 0-8.294-3.717-8.294-8.294.008-4.569 3.725-8.287 8.294-8.287s8.294 3.718 8.294 8.295c0 4.569-3.718 8.287-8.294 8.287z"/><path fill="#f5d100" d="m7.344 8.01.66-.661 3.516 3.515-.66.66zm5.114 5.115.66-.66 3.516 3.515-.66.66zm-1.121-1.126.66-.66.666.664-.66.662zm1.13-1.107 3.516-3.514.66.66-3.515 3.516zM7.37 15.983l3.514-3.514.661.66-3.514 3.515z"/></svg>