<svg width="24" height="24" viewBox="0 0 24 24" fill="none"><path fill="#4099cd" fill-rule="evenodd" d="M.771 15.353c.454-1.323 1.328-2.756 2.546-4.17a1.5 1.5 0 0 1 2.091-2.108 26 26 0 0 1 3.078-2.331c5.2-3.378 10.697-4.455 13.377-2.849a11.9 11.9 0 0 1 1.366 4.677c-.866 2.834-3.724 6.219-7.798 8.865-2.81 1.825-5.708 2.979-8.2 3.4a12.04 12.04 0 0 1-6.46-5.484m2.812-3.896c-1.758 2.03-2.462 4.12-1.61 5.433 1.287 1.982 5.64 1.44 9.721-1.21s6.347-6.407 5.06-8.389-5.64-1.44-9.722 1.21q-.68.442-1.288.918a1.5 1.5 0 0 1-2.16 2.037" clip-rule="evenodd"/></svg>