<svg xmlns="http://www.w3.org/2000/svg" width="20" height="20" viewBox="0 0 20 20" fill="none"><path fill="#fff" d="M10 20c5.523 0 10-4.477 10-10S15.523 0 10 0 0 4.477 0 10s4.477 10 10 10"/><path fill="#ff6c5a" d="M10 19.999a9.94 9.94 0 0 1-7.071-2.929A9.93 9.93 0 0 1 0 10a9.93 9.93 0 0 1 2.929-7.072A9.93 9.93 0 0 1 9.999 0a9.93 9.93 0 0 1 7.072 2.928A9.93 9.93 0 0 1 19.999 10a9.94 9.94 0 0 1-2.928 7.071A9.94 9.94 0 0 1 10 20m0-18.57A8.58 8.58 0 0 0 1.429 10a8.58 8.58 0 0 0 8.57 8.571A8.58 8.58 0 0 0 18.572 10 8.58 8.58 0 0 0 10 1.428"/><path fill="#fff" d="M9.285 19.974v-1.433a8.5 8.5 0 0 0 1.428 0v1.434a10 10 0 0 1-1.428 0m6.246-3.433a8.6 8.6 0 0 0 1.01-1.01l1.016 1.016a10 10 0 0 1-1.01 1.01zm-12.602.53q-.254-.255-.488-.524l1.017-1.016q.463.547 1.01 1.01L3.45 17.557a10 10 0 0 1-.523-.487zm15.612-6.358a9 9 0 0 0 0-1.428h1.433a10 10 0 0 1 0 1.428zm-18.516 0a10 10 0 0 1 0-1.428h1.434a9 9 0 0 0 0 1.428zm2.416-7.261a10 10 0 0 1 1.011-1.01l1.016 1.015a9 9 0 0 0-1.01 1.011zm13.09.005 1.016-1.015a10 10 0 0 1 1.01 1.01l-1.016 1.016a8.6 8.6 0 0 0-1.01-1.01M9.286.025a10 10 0 0 1 1.428 0v1.432a9 9 0 0 0-1.428 0z" opacity=".41"/><path fill="#141521" d="M14.039 5.96a5.71 5.71 0 0 0-8.079 0 5.71 5.71 0 0 0 0 8.079 5.71 5.71 0 0 0 8.079 0 5.71 5.71 0 0 0 0-8.079m-.492 7.587a5.025 5.025 0 0 1-7.101 0 5.025 5.025 0 0 1 0-7.101 5.025 5.025 0 0 1 7.101 0 5.013 5.013 0 0 1 0 7.101"/><path fill="#141521" d="M13.084 13.33V6.67a4.6 4.6 0 0 0-.966-.704v6.37L7.914 5.943a4.5 4.5 0 0 0-1 .72v6.667c.29.275.615.511.966.703v-6.37l4.205 6.393q.549-.294.999-.726"/></svg>