<svg width="24" height="24" viewBox="0 0 24 24" fill="none">
<path opacity="0.15" d="M12 11.2453C14.0007 11.2453 15.6226 9.62337 15.6226 7.62264C15.6226 5.62191 14.0007 4 12 4C9.99923 4 8.37732 5.62191 8.37732 7.62264C8.37732 9.62337 9.99923 11.2453 12 11.2453Z" fill="#2D60E0"/>
<path opacity="0.4" d="M16.3775 15.6227C18.3782 15.6227 20.0001 14.0008 20.0001 12.0001C20.0001 9.99935 18.3782 8.37744 16.3775 8.37744C14.3767 8.37744 12.7548 9.99935 12.7548 12.0001C12.7548 14.0008 14.3767 15.6227 16.3775 15.6227Z" fill="#2D60E0"/>
<path opacity="0.6" d="M12 20C14.0007 20 15.6226 18.3781 15.6226 16.3774C15.6226 14.3767 14.0007 12.7548 12 12.7548C9.99923 12.7548 8.37732 14.3767 8.37732 16.3774C8.37732 18.3781 9.99923 20 12 20Z" fill="#2D60E0"/>
<path opacity="0.85" d="M7.62258 15.6226C9.62331 15.6226 11.2452 14.0007 11.2452 12C11.2452 9.99923 9.62331 8.37732 7.62258 8.37732C5.62185 8.37732 3.99994 9.99923 3.99994 12C3.99994 14.0007 5.62185 15.6226 7.62258 15.6226Z" fill="#2D60E0"/>
</svg>
