
<svg version="1.0" xmlns="http://www.w3.org/2000/svg"
 width="400" height="400" viewBox="0 0 400 400">

<g transform="translate(0.0,400.0) scale(0.1,-0.1)" fill="#f8b994" stroke="none">
<path d="M1878 3132 c-65 -64 -118 -122 -118 -127 0 -6 54 -64 120 -130 l120
-120 125 125 125 125 -120 120 c-66 66 -123 121 -128 122 -4 2 -60 -50 -124
-115z"/>
<path d="M952 2863 l-121 -128 -1 -992 0 -993 175 0 175 0 0 816 c0 487 4 814
9 812 5 -1 93 -84 196 -183 103 -99 213 -196 244 -216 223 -142 525 -143 742
-1 45 29 148 120 257 227 100 97 182 173 182 169 0 -5 1 -371 3 -814 l2 -805
178 -3 c138 -2 177 0 177 10 0 7 1 455 2 996 l2 983 -119 119 c-66 66 -125
120 -132 120 -7 0 -16 -6 -20 -12 -6 -11 -290 -287 -658 -642 -78 -74 -142
-101 -245 -101 -130 0 -155 17 -487 340 -153 148 -314 305 -359 347 l-81 78
-121 -127z"/>
</g>
</svg>
