<svg width="24" height="24" viewBox="0 0 24 24" fill="none">
<path d="M12.6838 8.72844L14.1913 6.37644C14.5781 6.43918 14.9742 6.35037 15.2972 6.12848C15.6202 5.90659 15.8452 5.56872 15.9254 5.18515C16.0056 4.80159 15.9348 4.40188 15.7277 4.06918C15.5207 3.73648 15.1934 3.49642 14.8138 3.39894C14.5115 3.33633 14.1973 3.36712 13.9129 3.48722C13.6284 3.60731 13.3872 3.81104 13.2213 4.07138C13.0553 4.33172 12.9724 4.63636 12.9836 4.9449C12.9948 5.25344 13.0995 5.55129 13.2838 5.79894L11.4133 8.71719C10.6327 8.79397 9.87489 9.02383 9.18316 9.39362C8.49142 9.76341 7.87934 10.2659 7.38189 10.8724C6.88444 11.4788 6.51137 12.1773 6.28401 12.928C6.05665 13.6787 5.97945 14.4669 6.05683 15.2474C6.21286 16.8234 6.9883 18.273 8.21271 19.2774C9.43711 20.2818 11.0103 20.759 12.5863 20.6039C14.1624 20.4481 15.6122 19.6727 16.6168 18.4483C17.6214 17.2239 18.0986 15.6506 17.9436 14.0744C17.8089 12.7168 17.2137 11.4461 16.2569 10.4735C15.3 9.50096 14.0391 8.88515 12.6838 8.72844ZM11.9976 17.8199C11.5815 17.8203 11.1694 17.7387 10.7849 17.5797C10.4005 17.4206 10.0511 17.1874 9.75685 16.8932C9.46261 16.599 9.22925 16.2497 9.07014 15.8653C8.91103 15.4808 8.82928 15.0688 8.82958 14.6527C8.82918 14.2366 8.91086 13.8244 9.06993 13.4399C9.22899 13.0553 9.46233 12.706 9.75658 12.4117C10.0508 12.1174 10.4002 11.8841 10.7848 11.725C11.1693 11.566 11.5814 11.4843 11.9976 11.4847C12.6411 11.4845 13.2695 11.6806 13.7987 12.0466C14.328 12.4127 14.7332 12.9315 14.9601 13.5337C14.6624 13.1504 14.2248 12.9008 13.7433 12.84C13.2618 12.7791 12.7758 12.9118 12.3921 13.2089C12.0086 13.5065 11.7589 13.9441 11.698 14.4257C11.6371 14.9073 11.77 15.3933 12.0673 15.7769C12.2381 15.9967 12.4568 16.1746 12.7067 16.2971C12.9566 16.4197 13.2311 16.4836 13.5094 16.4841C13.7877 16.4846 14.0625 16.4217 14.3128 16.3C14.5632 16.1784 14.7825 16.0013 14.9541 15.7822C14.7262 16.3817 14.3214 16.8977 13.7933 17.2617C13.2652 17.6257 12.6389 17.8204 11.9976 17.8199Z" fill="#34445B"/>
<path d="M12.6838 8.72844L14.1913 6.37644C14.5781 6.43918 14.9742 6.35037 15.2972 6.12848C15.6202 5.90659 15.8452 5.56872 15.9254 5.18515C16.0056 4.80159 15.9348 4.40188 15.7277 4.06918C15.5207 3.73648 15.1934 3.49642 14.8138 3.39894C14.5115 3.33633 14.1973 3.36712 13.9129 3.48722C13.6284 3.60731 13.3872 3.81104 13.2213 4.07138C13.0553 4.33172 12.9724 4.63636 12.9836 4.9449C12.9948 5.25344 13.0995 5.55129 13.2838 5.79894L11.4133 8.71719C10.6327 8.79397 9.87489 9.02383 9.18316 9.39362C8.49142 9.76341 7.87934 10.2659 7.38189 10.8724C6.88444 11.4788 6.51137 12.1773 6.28401 12.928C6.05665 13.6787 5.97945 14.4669 6.05683 15.2474C6.21286 16.8234 6.9883 18.273 8.21271 19.2774C9.43711 20.2818 11.0103 20.759 12.5863 20.6039C14.1624 20.4481 15.6122 19.6727 16.6168 18.4483C17.6214 17.2239 18.0986 15.6506 17.9436 14.0744C17.8089 12.7168 17.2137 11.4461 16.2569 10.4735C15.3 9.50096 14.0391 8.88515 12.6838 8.72844ZM11.9976 17.8199C11.5815 17.8203 11.1694 17.7387 10.7849 17.5797C10.4005 17.4206 10.0511 17.1874 9.75685 16.8932C9.46261 16.599 9.22925 16.2497 9.07014 15.8653C8.91103 15.4808 8.82928 15.0688 8.82958 14.6527C8.82918 14.2366 8.91086 13.8244 9.06993 13.4399C9.22899 13.0553 9.46233 12.706 9.75658 12.4117C10.0508 12.1174 10.4002 11.8841 10.7848 11.725C11.1693 11.566 11.5814 11.4843 11.9976 11.4847C12.6411 11.4845 13.2695 11.6806 13.7987 12.0466C14.328 12.4127 14.7332 12.9315 14.9601 13.5337C14.6624 13.1504 14.2248 12.9008 13.7433 12.84C13.2618 12.7791 12.7758 12.9118 12.3921 13.2089C12.0086 13.5065 11.7589 13.9441 11.698 14.4257C11.6371 14.9073 11.77 15.3933 12.0673 15.7769C12.2381 15.9967 12.4568 16.1746 12.7067 16.2971C12.9566 16.4197 13.2311 16.4836 13.5094 16.4841C13.7877 16.4846 14.0625 16.4217 14.3128 16.3C14.5632 16.1784 14.7825 16.0013 14.9541 15.7822C14.7262 16.3817 14.3214 16.8977 13.7933 17.2617C13.2652 17.6257 12.6389 17.8204 11.9976 17.8199Z" fill="#34445B"/>
</svg>
