<svg width="24" height="24" viewBox="0 0 24 24" fill="none"><path fill="#34445b" d="m12.684 8.728 1.507-2.352a1.523 1.523 0 0 0 .623-2.977 1.522 1.522 0 0 0-1.53 2.4l-1.87 2.918a5.97 5.97 0 0 0-3.201 10.56 5.974 5.974 0 0 0 8.404-.829 5.97 5.97 0 0 0 1.327-4.374 5.976 5.976 0 0 0-5.26-5.346m-.686 9.092a3.165 3.165 0 0 1-2.928-4.38 3.165 3.165 0 0 1 4.729-1.393c.529.366.934.884 1.161 1.487a1.831 1.831 0 0 0-2.893 2.243 1.83 1.83 0 0 0 2.887.005 3.16 3.16 0 0 1-2.956 2.038"/><path fill="#34445b" d="m12.684 8.728 1.507-2.352a1.523 1.523 0 0 0 .623-2.977 1.522 1.522 0 0 0-1.53 2.4l-1.87 2.918a5.97 5.97 0 0 0-3.201 10.56 5.974 5.974 0 0 0 8.404-.829 5.97 5.97 0 0 0 1.327-4.374 5.976 5.976 0 0 0-5.26-5.346m-.686 9.092a3.165 3.165 0 0 1-2.928-4.38 3.165 3.165 0 0 1 4.729-1.393c.529.366.934.884 1.161 1.487a1.831 1.831 0 0 0-2.893 2.243 1.83 1.83 0 0 0 2.887.005 3.16 3.16 0 0 1-2.956 2.038"/></svg>