<svg width="24" height="24" viewBox="0 0 24 24" fill="none"><path fill="#5f45ba" d="M8.61 6.821a.824.824 0 1 1-1.418-.841.824.824 0 0 1 1.418.841m-2.813-.366a.583.583 0 1 1-1.002-.594.583.583 0 0 1 1.002.594m7.83 11.925a6.41 6.41 0 0 0 4.815-9.548 6.41 6.41 0 0 0-6.41-3.176 5.3 5.3 0 0 0-1.566.393c-.581.285-.956.76-.956 1.395 0 .825.669 1.496 1.495 1.496.138 0 .616-.152.73-.19a3.455 3.455 0 0 1 3.809 5.457 3.455 3.455 0 0 1-5.559-.29c-.69-.903-.53-2.348-.531-2.367a1.498 1.498 0 0 0-2.942-.338 3 3 0 0 0-.046.541 6.41 6.41 0 0 0 7.16 6.627M7.753 9.109a1.068 1.068 0 1 1-1.835-1.091 1.068 1.068 0 0 1 1.834 1.09"/></svg>