<svg width="24" height="24" viewBox="0 0 24 24" fill="none">
<path d="M8.6099 6.82104C8.5267 6.9613 8.40376 7.07372 8.25665 7.14409C8.10953 7.21446 7.94485 7.2396 7.78344 7.21635C7.62203 7.19309 7.47115 7.12247 7.34988 7.01344C7.22862 6.9044 7.14242 6.76184 7.1022 6.6038C7.06198 6.44576 7.06955 6.27934 7.12394 6.1256C7.17833 5.97186 7.27711 5.83771 7.40777 5.74013C7.53842 5.64254 7.69509 5.58591 7.85795 5.5774C8.0208 5.56888 8.18253 5.60886 8.32265 5.69229C8.7134 5.92479 8.8424 6.42954 8.6099 6.82104ZM5.7974 6.45504C5.73861 6.55429 5.65169 6.63386 5.54765 6.68367C5.44361 6.73348 5.32712 6.75129 5.21295 6.73485C5.09878 6.71841 4.99205 6.66846 4.90629 6.59131C4.82053 6.51417 4.75959 6.41331 4.73119 6.30151C4.70279 6.18971 4.70822 6.072 4.74677 5.96328C4.78532 5.85456 4.85527 5.75973 4.94776 5.6908C5.04025 5.62187 5.15112 5.58193 5.26632 5.57606C5.38152 5.57018 5.49588 5.59863 5.5949 5.65779C5.8709 5.82279 5.9624 6.17904 5.7974 6.45504ZM13.6266 18.38C14.4667 18.2809 15.2787 18.0165 16.0161 17.6021C16.7535 17.1877 17.4016 16.6316 17.9231 15.9656C18.4446 15.2997 18.8292 14.5371 19.0547 13.7219C19.2802 12.9067 19.3421 12.0549 19.237 11.2156C19.1319 10.3763 18.8617 9.56615 18.4421 8.83173C18.0225 8.09731 17.4617 7.45318 16.7921 6.93643C16.1225 6.41968 15.3572 6.04053 14.5404 5.82083C13.7236 5.60112 12.8714 5.5452 12.0329 5.65629C11.4937 5.70672 10.9653 5.83925 10.4661 6.04929C9.8849 6.33429 9.5099 6.80904 9.5099 7.44429C9.5099 8.26929 10.1789 8.93979 11.0054 8.93979C11.1434 8.93979 11.6211 8.78829 11.7351 8.74929C12.2735 8.56144 12.85 8.50977 13.4132 8.59888C13.9763 8.688 14.5087 8.91513 14.9628 9.26002C15.4168 9.6049 15.7784 10.0568 16.0154 10.5754C16.2523 11.0941 16.3572 11.6633 16.3206 12.2323C16.2752 12.9557 16.0034 13.6465 15.5438 14.207C15.0842 14.7675 14.46 15.1693 13.7595 15.3555C13.059 15.5418 12.3177 15.5031 11.6404 15.2449C10.9631 14.9867 10.3841 14.5221 9.9854 13.9168V13.9175C9.2954 13.0138 9.4544 11.5693 9.45365 11.5505C9.44017 11.1929 9.29907 10.8519 9.05591 10.5893C8.81275 10.3267 8.4836 10.1599 8.12806 10.119C7.77252 10.0781 7.4141 10.1659 7.11768 10.3665C6.82127 10.567 6.60646 10.8671 6.51215 11.2123C6.4784 11.3375 6.46115 11.7043 6.4664 11.753C6.42857 12.6799 6.59234 13.6039 6.94641 14.4612C7.30047 15.3186 7.83638 16.0889 8.51715 16.719C9.19792 17.349 10.0073 17.8239 10.8895 18.1106C11.7716 18.3974 12.7055 18.4893 13.6266 18.38ZM7.75265 9.10854C7.6448 9.29013 7.48553 9.43566 7.29498 9.52674C7.10443 9.61783 6.89116 9.65037 6.68211 9.62025C6.47307 9.59014 6.27765 9.49872 6.12056 9.35756C5.96347 9.21639 5.85175 9.03182 5.79954 8.82718C5.74733 8.62253 5.75697 8.407 5.82724 8.20784C5.89751 8.00867 6.02525 7.83481 6.19431 7.70823C6.36338 7.58165 6.56618 7.50804 6.77707 7.4967C6.98797 7.48537 7.19749 7.53681 7.37915 7.64454C7.88615 7.94604 8.05265 8.60154 7.7519 9.10854" fill="#5F45BA"/>
</svg>
