<svg width="24" height="24" viewBox="0 0 24 24" fill="none"><path fill="#f5eb16" d="M11.998 3a9 9 0 1 0 .004 18 9 9 0 0 0-.004-18M8.344 6.943a.093.093 0 0 1 .094-.09h3.75a5.3 5.3 0 0 1 2.281.473q.205.1.399.22l-2.44 1.397h-1.274a.093.093 0 0 0-.09.095v.703l-2.72 1.572zm-1.01 7.9-1.63-1.647 5.368-3.097v2.007a.093.093 0 0 0 .095.09h.766L7.34 14.843zm8.039-1.53q-1.181.985-3.241.985h-.978a.093.093 0 0 0-.093.093v2.027l-1.365.785-1.274.737-.08.045v-3.359l4.224-2.43a1.55 1.55 0 0 0 .978-.387q.145-.144.24-.326l2.697-1.561a4 4 0 0 1 .067.75q.004 1.653-1.176 2.64m-1.448-2.277q.027-.173.028-.35a1.82 1.82 0 0 0-.424-1.262 1.4 1.4 0 0 0-.615-.393l3.75-2.164 1.644 1.646z"/></svg>