<svg width="40" height="40" viewBox="0 0 40 40" fill="none" xmlns="http://www.w3.org/2000/svg">
    <path
        d="M0.170616 19.9575C0.0797066 9.18177 8.93425 0.145403 19.9672 0.165316C30.6052 0.184364 39.7403 8.76272 39.7048 20.0363C39.6702 31.1506 30.6563 39.806 19.8364 39.7497C8.76196 39.6917 0.0831698 30.619 0.170616 19.9575ZM15.7065 16.5844L15.7135 16.5809C15.5767 16.6181 15.4364 16.6467 15.3031 16.6943C14.5767 16.9515 13.839 16.9999 13.0858 16.8372C11.0104 16.3896 9.57841 14.3393 9.91174 12.2735C10.2719 10.0441 12.1507 8.65363 14.2511 8.82073C15.8148 8.9454 17.1325 8.49778 18.2312 7.41034C19.9169 5.7428 21.5819 4.05449 23.2537 2.37311C23.3273 2.29865 23.3871 2.21034 23.4676 2.11164C21.4355 1.70731 19.4338 1.64064 17.4347 1.93588C12.8312 2.61553 8.97062 4.70384 6.00611 8.29519C2.29616 12.7896 1.02256 17.9541 2.14724 23.6727C2.88317 27.4155 4.71434 30.5809 7.47365 33.2008C9.42949 35.058 11.697 36.4121 14.2693 37.2363C14.3957 37.277 14.6165 37.2337 14.7074 37.1428C16.2364 35.6268 17.7524 34.0969 19.271 32.5705C19.5161 32.6225 19.7611 32.6735 20.0156 32.7281C20.1429 32.2883 20.265 31.8692 20.3862 31.4502C21.0814 30.8623 21.4962 30.0978 21.7697 29.245C22.5464 29.2909 23.323 29.38 24.0996 29.374C25.9602 29.3593 27.5117 28.7047 28.3516 26.9437C28.7117 26.1887 28.8615 25.3342 29.1065 24.5246C29.1403 24.5714 29.1749 24.6173 29.207 24.664C30.1897 26.0779 30.3117 27.5705 29.4788 29.0718C28.6685 30.5333 27.3368 31.2441 25.697 31.122C24.0425 30.9991 22.6944 31.4961 21.5446 32.6458C19.9403 34.2519 18.3343 35.8571 16.7299 37.464C16.6312 37.5627 16.5403 37.6683 16.4338 37.7835C18.1706 38.2476 21.1611 38.264 23.4226 37.8294C31.3706 36.3038 37.4546 29.5064 38.071 21.4207C38.3585 17.645 37.581 14.0865 35.6537 10.8147C33.3481 6.89865 30.0269 4.20428 25.7334 2.7177C25.5775 2.66402 25.3065 2.66921 25.207 2.76705C23.6633 4.28999 22.1394 5.83285 20.6113 7.37138C20.3464 7.32116 20.0823 7.27094 19.8096 7.21986C19.6814 7.67008 19.555 8.1125 19.4295 8.55406C18.781 9.1151 18.394 9.83978 18.1273 10.6398C16.9031 10.3385 15.6797 10.0363 14.4381 9.73068C14.3317 10.1541 14.233 10.5428 14.1368 10.9324C14.0416 11.3186 13.9481 11.7056 13.8477 12.1151C14.1836 12.1956 14.4762 12.2614 14.7672 12.3359C15.0598 12.4103 15.355 12.4787 15.6399 12.5766C16.2451 12.7835 16.5914 13.2744 16.4667 13.8233C16.2624 14.7203 16.0113 15.6069 15.7801 16.4978C15.7559 16.5264 15.7317 16.5558 15.7065 16.5844Z"
        fill="#2B2338" />
    <path
        d="M20.613 7.3714C21.0692 7.49954 21.5255 7.62854 22.0277 7.76967C21.7394 8.94109 21.4528 10.1091 21.1584 11.3056C21.7385 11.4433 22.2822 11.5731 22.8857 11.7169C23.1775 10.5645 23.4692 9.41296 23.7775 8.19651C24.5151 8.37573 25.2337 8.54975 26.0069 8.73677C25.7065 9.95755 25.4155 11.1437 25.122 12.335C25.7255 12.6034 26.3376 12.8026 26.871 13.1307C27.5281 13.5359 28.1922 13.9775 28.7255 14.5272C30.3679 16.2225 29.5852 19.9194 27.1151 20.6138C27.0363 20.6363 26.9619 20.6744 26.8017 20.7394C28.3177 21.5896 29.2433 22.7472 29.1065 24.5246C28.8606 25.3342 28.7108 26.1887 28.3506 26.9437C27.5108 28.7047 25.9593 29.3593 24.0987 29.374C23.322 29.3801 22.5454 29.2909 21.7688 29.245C21.4978 29.1878 21.2277 29.1298 20.9246 29.0658C20.7368 29.8987 20.561 30.6744 20.3861 31.4502C20.2649 31.8692 20.1428 32.2883 20.0155 32.7281C19.761 32.6744 19.516 32.6225 19.271 32.5705C18.7861 32.4424 18.3013 32.3143 17.7982 32.1809C18.0978 30.974 18.3896 29.8 18.6917 28.5809C18.1177 28.4294 17.5653 28.2839 16.9653 28.1264C16.6606 29.3368 16.3593 30.5298 16.051 31.7549C15.3082 31.5714 14.6 31.3965 13.8277 31.206C14.1272 29.9792 14.419 28.7801 14.7255 27.5246C13.2484 27.1515 11.7887 26.7818 10.2831 26.4008C10.6606 25.5281 11.0181 24.7013 11.3852 23.8528C11.9472 23.9887 12.4762 24.122 13.0078 24.2433C13.5021 24.3558 13.8874 24.161 14.0104 23.6736C14.5922 21.3801 15.1541 19.0814 15.7203 16.7835C15.7359 16.7203 15.7151 16.6476 15.7117 16.5792L15.7047 16.5827C15.7298 16.5541 15.7549 16.5255 15.7801 16.4961C16.0112 15.6052 16.2623 14.7186 16.4666 13.8216C16.5922 13.2727 16.245 12.7818 15.6398 12.5749C15.3549 12.477 15.0597 12.4095 14.7671 12.3342C14.4762 12.2597 14.1835 12.1939 13.8476 12.1134C13.948 11.703 14.0415 11.3169 14.1368 10.9307C14.2329 10.5411 14.3316 10.1515 14.4381 9.72897C15.6796 10.0346 16.903 10.3368 18.1272 10.6381C18.3723 10.6987 18.6173 10.7593 18.9021 10.8303C19.0831 10.0485 19.2562 9.3004 19.4285 8.55148C19.5541 8.10906 19.6805 7.6675 19.8086 7.21729C20.0839 7.27096 20.348 7.32118 20.613 7.3714ZM24.3826 23.3333C24.1065 22.9749 23.8909 22.5333 23.5402 22.277C23.0346 21.9082 22.4554 21.6043 21.8632 21.3991C20.9047 21.0666 19.9108 20.8363 18.9004 20.5541C18.4839 22.2355 18.0926 23.813 17.6935 25.4225C17.9775 25.5021 18.2363 25.5818 18.4995 25.6467C19.6484 25.929 20.7974 26.2199 21.9974 26.1385C22.458 26.0476 22.9472 26.0268 23.374 25.8528C24.3463 25.4571 24.7783 24.3039 24.3826 23.3333ZM20.5723 13.8363C20.1783 15.432 19.8216 16.8744 19.4614 18.3324C20.7056 18.6762 21.8727 18.9835 23.1021 18.922C24.3411 18.8606 25.1506 18.1151 25.1965 16.9974C25.2381 16.0008 24.6666 15.3723 23.851 15.0164C22.8173 14.5653 21.7255 14.2441 20.5723 13.8363Z"
        fill="#FEFDFC" />
    <path
        d="M21.9983 26.1386C22.3437 24.8208 23.1195 23.8702 24.3827 23.3334C24.7784 24.3039 24.3463 25.4572 23.3749 25.8529C22.9481 26.0269 22.4598 26.0477 21.9983 26.1386Z"
        fill="#2C2439" />
</svg>