<svg width="3270" height="3270" viewBox="0 0 3270 3270" fill="none" xmlns="http://www.w3.org/2000/svg">
<path d="M2050.8 459.532C2079.45 466.693 2115.25 477.436 2154.64 491.759C2233.42 520.406 2326.52 549.052 2419.62 545.472C2559.28 538.31 2695.35 452.37 2766.96 148C2544.95 208.874 2290.71 29.8327 2047.22 420.143C2047.22 420.143 2047.22 423.723 2043.64 427.304C2032.89 441.628 2025.73 448.789 2018.57 455.951C2029.31 455.951 2036.48 455.951 2047.22 459.532H2050.8Z" fill="black"/>
<path d="M2523.39 2404.01C2480.42 2532.92 2412.39 2647.51 2322.87 2751.35C2236.93 2851.61 2129.5 2937.55 2007.75 2998.43C1889.59 3062.88 1760.68 3102.27 1628.19 3116.59H1624.6C1434.82 3138.08 1241.46 3098.69 1069.58 3009.17C729.398 2830.13 579.004 2640.34 503.806 2407.59C618.393 2529.34 765.206 2622.44 940.667 2672.57C1356.04 2787.16 1785.74 2611.7 2000.59 2257.2L2176.05 2307.33C2204.7 2314.49 2229.76 2285.84 2215.44 2260.78L2018.5 1795.27C2011.33 1773.78 1986.27 1770.2 1964.78 1780.95L1556.57 2078.15C1535.08 2096.06 1538.66 2131.87 1567.31 2139.03L1742.77 2189.16C1574.47 2407.59 1288.01 2511.43 1008.7 2432.66C729.398 2353.88 543.195 2121.12 507.387 1856.14C493.064 1759.46 514.549 1662.78 561.099 1576.84C625.554 1447.93 718.656 1333.34 829.661 1240.24C854.727 1222.34 869.05 1208.01 890.535 1193.69C1048.09 1071.94 1134.03 971.679 1180.58 907.224C1198.49 882.158 1212.81 849.931 1230.71 810.542C1288.01 667.309 1399.01 545.561 1538.66 477.525C1681.9 409.489 1843.03 395.166 1997.01 438.136C2147.4 481.106 2276.31 581.369 2358.67 717.44C2441.03 849.931 2466.1 1011.07 2437.45 1165.04C2437.45 1182.95 2430.29 1197.27 2430.29 1211.59C2362.25 1172.21 2287.06 1139.98 2204.7 1114.91C1789.32 1000.33 1359.62 1175.79 1144.77 1530.29L969.313 1480.16C940.667 1472.99 915.601 1501.64 926.344 1526.71L1123.29 1992.21C1130.45 2013.7 1155.52 2017.28 1173.42 2006.54L1581.63 1709.33C1606.7 1691.42 1599.54 1655.62 1570.89 1648.45L1395.43 1598.32C1563.73 1379.89 1853.78 1276.05 2133.08 1354.83C2190.37 1369.15 2244.09 1394.22 2294.22 1422.86C2412.39 1490.9 2491.16 1609.07 2534.13 1737.98C2534.13 1741.56 2534.13 1745.14 2534.13 1745.14C2598.59 1952.83 2595.01 2182 2519.81 2396.85L2523.39 2404.01Z" fill="black"/>
</svg>
