<svg width="24" height="24" viewBox="0 0 24 24" fill="none"><path fill="#96b73d" d="M8.695 12.079q.098.291.283.538l-1.87-1.888a1.05 1.05 0 0 1 0-1.478l2.359-2.36a2 2 0 0 0 .14-.115l.068-.06 1.91-1.912a1.03 1.03 0 0 1 1.465.002l6.258 6.302a1.056 1.056 0 0 1-.755 1.66 1.07 1.07 0 0 1-.694-.163l-5.527-5.58-.006-.007-.018-.02L9.35 9.956l-.045.038L9.3 10l2.922 2.945a1.05 1.05 0 0 1-.465 1.749 1.03 1.03 0 0 1-1.002-.27l-1.497-1.508q-.032-.03-.07-.072l-.07-.07a2 2 0 0 1-.14-.177l.034.04-.023-.03a1.9 1.9 0 0 1-.294-.528m6.11 1.93-2.926-2.947a1.05 1.05 0 0 1 .337-1.703 1.03 1.03 0 0 1 1.13.228l1.498 1.508c.02.018.042.045.07.071l.068.069q.06.065.108.137l.017.02-.065-.089L17 13.273a1.05 1.05 0 0 1 0 1.48l-2.36 2.36q-.074.054-.143.114l-1.968 1.968a1.033 1.033 0 0 1-1.465 0l-6.358-6.41a1.056 1.056 0 0 1 .139-1.408 1.04 1.04 0 0 1 1.404.008l5.538 5.591.018.023 2.952-2.95.043-.036z"/></svg>