<svg xmlns="http://www.w3.org/2000/svg" width="24" height="24" viewBox="0 0 24 24" fill="none"><path fill="#fff" fill-rule="evenodd" d="M20.966 5.847 3.091 9.518a.5.5 0 0 0-.147.924l4.934 2.813.894 4.906a.5.5 0 0 0 .78.32l3.287-2.317 3.48 2.46a.5.5 0 0 0 .757-.232l4.463-11.878.001-.002m-5.172 10.922 3.664-9.75-8.727 6.165 1.824 1.295zm-1.526-7.309L8.886 13.21l.48 2.632.592-2.126a.5.5 0 0 1 .193-.276zm-4.72 6.73 1.852-1.305-1.243-.882zm-1.783-4.488 9.298-4.815L4.592 10.23z" clip-rule="evenodd"/></svg>