<svg width="24" height="24" viewBox="0 0 24 24" fill="none" xmlns="http://www.w3.org/2000/svg">
<g clip-path="url(#clip0_3_11)">
<path fill-rule="evenodd" clip-rule="evenodd" d="M20.644 12.92C20.644 13.004 20.624 13.08 20.588 13.148L16.88 19.568C16.724 19.84 16.432 20.008 16.116 20.008H7.884C7.568 20.008 7.28 19.84 7.12 19.568L3.416 13.144C3.38 13.076 3.36 13 3.36 12.916C3.36 12.652 3.576 12.436 3.84 12.436H7.908L8.94 14.188L8.948 14.2C9.084 14.42 9.376 14.492 9.6 14.36L9.612 14.352C9.716 14.288 9.792 14.184 9.824 14.064L11.136 8.98801L12.264 17.16V17.172C12.308 17.428 12.548 17.608 12.808 17.572H12.82C13.008 17.54 13.16 17.4 13.208 17.216L14.792 11.096L15.44 12.2L15.448 12.212C15.536 12.352 15.688 12.44 15.856 12.44H20.168C20.432 12.44 20.648 12.656 20.648 12.92H20.644ZM16.12 3.98001C16.436 3.98001 16.724 4.14801 16.884 4.42001L20.592 10.84C20.628 10.908 20.648 10.984 20.648 11.068C20.648 11.332 20.432 11.548 20.168 11.548H16.088L15.056 9.79601L15.048 9.78401C14.984 9.68001 14.88 9.60401 14.76 9.57201H14.748C14.496 9.50801 14.24 9.66401 14.172 9.91601L12.86 14.992L11.732 6.82001V6.80801C11.7 6.62001 11.56 6.46801 11.376 6.42001C11.12 6.35201 10.856 6.50801 10.788 6.76401L9.204 12.884L8.556 11.78L8.548 11.768C8.46 11.628 8.308 11.54 8.14 11.54H3.84C3.576 11.54 3.36 11.324 3.36 11.06C3.36 10.796 3.38 10.9 3.412 10.836L7.12 4.42001C7.276 4.14801 7.568 3.98001 7.884 3.98001H16.12Z" fill="url(#paint0_linear_3_11)"/>
</g>
<defs>
<linearGradient id="paint0_linear_3_11" x1="15.848" y1="4.14601" x2="8.1625" y2="19.064" gradientUnits="userSpaceOnUse">
<stop stop-color="#00EAFF"/>
<stop offset="0.3" stop-color="#0080FF"/>
<stop offset="0.5" stop-color="#8000FF"/>
<stop offset="0.7" stop-color="#E619E6"/>
<stop offset="1" stop-color="#FF0000"/>
</linearGradient>
<clipPath id="clip0_3_11">
<rect width="18" height="18" fill="white" transform="translate(3 3)"/>
</clipPath>
</defs>
</svg>
