<svg width="24" height="24" viewBox="0 0 24 24" fill="none"><path fill="#fff" d="M3.75 18 12 3.75 20.25 18zm5.154-7.257q1.447-.966 3.096-.968 1.65.002 3.096.968L12 5.396zm-1.463 2.528-2.248 3.882h13.614l-2.248-3.882c-1.357 1.492-2.882 2.25-4.559 2.25s-3.203-.758-4.56-2.25M12 14.674c1.454 0 2.783-.668 4.003-2.025-1.22-1.36-2.55-2.027-4.003-2.027s-2.783.668-4.003 2.026c1.22 1.359 2.55 2.027 4.003 2.027zm0-.362c-.87 0-1.576-.732-1.576-1.634s.705-1.633 1.576-1.633c.87 0 1.576.732 1.576 1.633 0 .902-.705 1.633-1.576 1.633m0-.848c.42 0 .759-.352.759-.786a.773.773 0 0 0-.759-.786.773.773 0 0 0-.759.786c0 .435.34.787.759.787z"/><path fill="#444fa1" d="M3.75 19.125 12 4.875l8.25 14.25zm5.154-7.257q1.447-.966 3.096-.968 1.65.002 3.096.968L12 6.521zm-1.463 2.528-2.248 3.882h13.614l-2.248-3.882c-1.357 1.492-2.882 2.25-4.559 2.25s-3.203-.758-4.56-2.25M12 15.799c1.454 0 2.783-.668 4.003-2.025-1.22-1.36-2.55-2.027-4.003-2.027s-2.783.668-4.003 2.026C9.217 15.132 10.547 15.8 12 15.8zm0-.362c-.87 0-1.576-.732-1.576-1.634S11.13 12.17 12 12.17s1.576.732 1.576 1.633c0 .902-.705 1.633-1.576 1.633m0-.848c.42 0 .759-.352.759-.786a.773.773 0 0 0-.759-.786.773.773 0 0 0-.759.786c0 .435.34.787.759.787z"/></svg>