<svg width="24" height="24" viewBox="0 0 24 24" fill="none"><path fill="#05bca9" fill-rule="evenodd" d="M20.996 11.965a.155.155 0 0 1-.086.174l-.057.027-1.73 1.734.671 2.508a.155.155 0 0 1-.108.19l-2.407.645-.664 2.483a.153.153 0 0 1-.187.11l-2.543-.683-1.798 1.802a.154.154 0 0 1-.218 0l-1.777-1.781-2.461.661a.15.15 0 0 1-.161-.055.2.2 0 0 1-.027-.054l-.664-2.482-2.406-.647a.154.154 0 0 1-.109-.189l.649-2.427-1.868-1.873a.154.154 0 0 1 0-.218l1.816-1.821-.649-2.427a.155.155 0 0 1 .11-.19l2.516-.676.656-2.452a.155.155 0 0 1 .189-.11l2.38.64 1.806-1.81a.157.157 0 0 1 .218 0l1.827 1.831 2.462-.662a.154.154 0 0 1 .188.11l.017.064.009.03.63 2.358 2.517.677c.082.022.13.106.108.189l-.67 2.508 1.693 1.697a.15.15 0 0 1 .128.119m-1.964 1.59 1.01-1.01-1.139.53.129.481m.368 2.57-.527-1.973-1.048 1.05zm-1.658-.614-.37 1.389 1.878-.505zm-1.348 3.852.542-2.028-1.48.398zm-1.878-.844-.38.382 1.491.4zm-2.384 1.954 1.41-1.413-1.41-.38zm-.308-1.764-1.388.372 1.387 1.392zm-3.892.726 1.91-.513-1.023-1.026zm-.81-2.1.424 1.586.128-1.437zm-2.317-.94 1.882.505-.375-1.4zm1.355-1.163-.996-1-.505 1.89zM3.55 12.18l1.455 1.458.39-1.458zm1.56-1.181-.157-.585-1.225 1.228zM4.606 7.92l.506 1.896 1.013-1.015zm1.754.645.387-1.446-1.988.534 1.59.922zm1.329-3.78-.507 1.898 1.385-.372zm1.756.687.367-.367-1.437-.386zm2.38-1.948-1.418 1.421 1.417.381zm.307 1.83 1.44-.387-1.44-1.443zm4.047-.768-2.013.54 1.078 1.082zm.227 1.971.47.126-.361-1.355zm2.887 1.095-1.981-.533.382 1.434zM17.85 8.82l1.074 1.076.53-1.982zm2.581 3.023-1.348-1.35-.361 1.35zm-1.774.308.165.619 1.328-.619zm-.233.804.115-.052-.05-.188zm-.103.389-.338 1.26.797-.798-.16-.602zm-.931 2.292-1.712 1.716 1.35-.362zm-2.15 1.72 2.309-2.315.408-1.528-3.887 1.811zm-.066.503-.437.437 1.158.815zm-.819.168.126.089.168-.168zm-.387.104-1.344.361 1.169.315.468-.47zm-2.533.361L9.27 17.91l.915.918zm-3.418-1.4-.015.16.238.063zm-.284-.286L6.706 15.78l.324 1.213.671.18.032-.364zm-1.62-2.06-.544-2.03-.313 1.171zm-.77-2.876-.153-.57-1.224.57zm.348-.805-.217.102.095.357zm.105-.388L6.2 9.162l-.996.999.188.705zm.999-2.548 1.394-1.397-1.1.295zm2.013-2.018.417-.417-1.107-.78zm.87-.099-.198-.138-.262.262zm.387-.104 1.37-.367-1.28-.344-.454.455zm2.558-.367L14.7 6.1l-.877-.88zm3.433 1.48.02-.234-.347-.093zm.283.285.962.964-.333-1.243-.59-.159zm1.556 1.995.594 2.223.343-1.283zm-4.33 5.146.35.61 4.146-1.932.26-.973h-2.41l-.123 1.375a.154.154 0 0 1-.285.066l-.749-1.268zm-.589 1.048.66-.308-.247-.427zm-2.614-.278 3.665 2.58.962-.259-1.2-2.082-1.116.52a.154.154 0 0 1-.199-.216l.7-1.247-2.422.027zm-.155.268L9.03 17.529l3 .805 1.61-.432zm.187-.941-.973.01.688.485zM8.45 12.179l-.399 4.514.7.7 1.202-2.086-1.1-.774a.154.154 0 0 1 .086-.28l1.488-.017-1.215-2.057zm-.307 0h-2.4l.802 3.004 1.223 1.225zm.886-.308-.479-.812-.072.812zm1.088-2.867-4.062 1.893-.26.974H8.17l.116-1.316a.154.154 0 0 1 .285-.065l.752 1.273L10.5 9.668zm-.155-.267L8.741 6.615 6.636 8.726l-.477 1.783zm3.756.121-3.713-2.614-.972.262 1.21 2.1 1.2-.56a.154.154 0 0 1 .198.217l-.702 1.25 2.416-.026zm.154-.268 1.193-2.073-3.037-.816-1.635.44zm-.159.892.878-.009-.62-.437zm1.887 2.67h-.592l.515.872zm-4.926-2.797.465-.827-.742.346zm2.672 4.85 1.226-2.185-1.309-2.215-.004-.009-2.495.028-1.26 2.246 1.279 2.162 2.548-.029q.008 0 .015.003m2.957-6.497-.367 4.137h2.32l-.797-2.978zm-.675 4.137.391-4.422-.71-.712-1.185 2.056 1.035.728a.155.155 0 0 1-.087.281l-1.459.016 1.213 2.053zm.475-5.368.12-1.352-.69 1.198zM7.975 17.565l-.124 1.393.713-1.236z" clip-rule="evenodd"/></svg>