<svg width="24" height="24" viewBox="0 0 24 24" fill="none"><path fill="#348f8d" d="M17.483 5.283a1 1 0 0 1 0 1.384l-2.347 2.407a1 1 0 0 1-.257.188.89.89 0 0 1-1.081-.159l-2.339-2.395-4.503 4.62 1.087 1.111a.88.88 0 0 1-.005 1.215.83.83 0 0 1-1.187.006l-1.73-1.765a.88.88 0 0 1 0-1.224l.013-.011.01-.012 5.718-5.865h.001l.02-.02a.86.86 0 0 1 1.116-.106 1 1 0 0 1 .15.126l2.238 2.29 1.746-1.79a.94.94 0 0 1 1.351 0m1.394 6.826a.874.874 0 0 1 0 1.22l-.011.012-.012.011-5.74 5.885a.862.862 0 0 1-1.316-.09l-2.187-2.238-1.735 1.783a.94.94 0 0 1-.925.257.97.97 0 0 1-.678-.694 1 1 0 0 1 .251-.947l2.347-2.406a.94.94 0 0 1 .493-.271.9.9 0 0 1 .84.252l2.344 2.398 4.495-4.608-1.087-1.112a.88.88 0 0 1 .005-1.215.83.83 0 0 1 1.186-.005l1.705 1.744.002.001.002.002z"/></svg>