<svg width="24" height="24" viewBox="0 0 24 24" fill="none"><path fill="#1061e3" fill-rule="evenodd" d="M18.21 16.025c.064.646-.138 1.283-.763 1.697-.299.2-.633.278-.991.278l-8.91-.002q-.098 0-.195-.005a1.71 1.71 0 0 1-1.476-1.123c-.093-.272-.108-.55-.096-.845h1.807c.174 0 .29-.127.25-.286a.4.4 0 0 0-.104-.16q-1.106-1.104-2.215-2.204L4.84 12.7c-.254-.251-.376-.555-.331-.909.022-.174.079-.345.135-.513a7.6 7.6 0 0 1 1.475-2.587A7.7 7.7 0 0 1 9.631 6.37a7.5 7.5 0 0 1 2.754-.357c2.202.132 4.036 1.027 5.489 2.678a7.4 7.4 0 0 1 1.582 2.932c.113.404.006.768-.293 1.065-.562.561-1.13 1.118-1.694 1.677l-1.243 1.233c-.136.135-.123.315.033.396a.35.35 0 0 0 .152.03q.855.002 1.712.001zm-11.879.405c.009.242.073.456.214.644.234.312.55.459.941.458h9.022q.053 0 .105-.004a1.08 1.08 0 0 0 .842-.457 1.07 1.07 0 0 0 .208-.64zm7.702-5.81.05.032c.74.552 1.21 1.275 1.389 2.18q.144.739-.032 1.471a3.5 3.5 0 0 1-.562 1.232.27.27 0 0 0-.051.227c.052.204.283.27.436.12q.336-.328.668-.66l2.691-2.676a.75.75 0 0 0 .233-.695c-.022-.117-.064-.23-.104-.343a8.2 8.2 0 0 0-1.266-2.344 6.8 6.8 0 0 0-1.478-1.413.14.14 0 0 1-.055-.085.512.512 0 0 0-.708-.419.13.13 0 0 1-.095 0 6.8 6.8 0 0 0-2.52-.65 8 8 0 0 0-2.078.117 6.7 6.7 0 0 0-1.652.544.13.13 0 0 1-.13 0 .5.5 0 0 0-.72.434c0 .045-.017.071-.052.098-.23.182-.468.356-.682.554-1.008.934-1.694 2.073-2.134 3.366-.111.327-.038.607.206.85l2.67 2.654q.334.334.672.666c.13.128.326.105.41-.045.058-.105.044-.207-.024-.303a3.46 3.46 0 0 1-.64-1.69 3.4 3.4 0 0 1 .173-1.484c.038-.11.084-.216.128-.328l1.06.622a2.335 2.335 0 0 0 1.036 2.94 2.345 2.345 0 0 0 2.927-.553q.52-.617.538-1.423c.015-.8-.316-1.437-.937-1.933zm3.498 2.28c-.02-.125-.037-.24-.057-.354a5.3 5.3 0 0 0-.369-1.23c-.018-.045-.023-.08 0-.126a.497.497 0 0 0-.277-.68.51.51 0 0 0-.66.309.495.495 0 0 0 .34.639.2.2 0 0 1 .154.135 5 5 0 0 1 .373 1.74.15.15 0 0 1-.033.1l-1.033 1.03-.031.025c.328-1.628-.072-3.039-1.379-4.1-1.358-1.103-2.872-1.188-4.461-.47l-.485-.839c.173-.077.34-.157.51-.228a5 5 0 0 1 1.369-.337.17.17 0 0 1 .152.05.495.495 0 0 0 .714-.003.14.14 0 0 1 .13-.048 5.05 5.05 0 0 1 2.989 1.366q.1.097.197.196c.116.117.244.12.363.006l.788-.762.073-.07c.095.12.19.235.279.355a7.7 7.7 0 0 1 1.162 2.288.26.26 0 0 1-.068.281l-.693.69zm-.95-3.983-.673.652q-.03-.025-.056-.05a5.5 5.5 0 0 0-2.515-1.38c-.264-.064-.538-.094-.807-.137-.048-.008-.08-.018-.11-.063a.508.508 0 0 0-.85.002.15.15 0 0 1-.093.057C9.742 8.188 8.38 9 7.382 10.422a.14.14 0 0 1-.102.062.5.5 0 0 0-.382.72.12.12 0 0 1 0 .09c-.21.478-.35.984-.417 1.502-.004.033-.01.064-.018.108l-.065-.06c-.214-.213-.427-.43-.645-.64-.1-.098-.133-.201-.086-.338.505-1.447 1.307-2.686 2.557-3.61q.023-.015.043-.032c.045-.04.086-.05.153-.033a.503.503 0 0 0 .63-.393.12.12 0 0 1 .053-.07q.487-.24 1.01-.387c.82-.233 1.659-.294 2.507-.233a6.3 6.3 0 0 1 2.253.576c.045.02.068.045.075.097a.503.503 0 0 0 .69.393c.024-.009.063-.01.081.003q.46.319.85.716.006.008.013.024m-2.747 4.635c.005.999-.818 1.821-1.827 1.827a1.837 1.837 0 0 1-1.842-1.82c-.005-1 .817-1.82 1.828-1.826a1.83 1.83 0 0 1 1.84 1.819M8.06 14.5l-.474-.476q-.293-.29-.585-.583a.15.15 0 0 1-.042-.096 5 5 0 0 1 .396-1.802.11.11 0 0 1 .085-.071c.337-.079.493-.373.374-.694-.007-.022-.007-.056.004-.075A5 5 0 0 1 9.21 9.331c.002-.002.004-.002.015-.005l.199.34.417.72c.084.146.193.178.338.09a3.4 3.4 0 0 1 1.235-.452 3.53 3.53 0 0 1 2.2.34q.009.004.026.019l-.629 1.055c-1.189-.446-2.171-.18-2.965.808l-1.055-.62q.14-.19.277-.37.057-.072.123-.14c.064-.072.064-.113-.002-.18l-.175-.176c-.08-.078-.119-.078-.194.003-.32.343-.577.739-.759 1.17a3.94 3.94 0 0 0-.298 1.92c.02.21.062.419.097.647m3.936-6.007a.29.29 0 0 1-.282-.283.29.29 0 0 1 .285-.28.29.29 0 0 1 .281.283.287.287 0 0 1-.284.28m-3.45-1.06a.28.28 0 0 1 .287.275.283.283 0 1 1-.567 0 .28.28 0 0 1 .28-.276m8.101 3.824a.28.28 0 0 1-.005-.557.28.28 0 0 1 .259.17.28.28 0 0 1-.148.365.3.3 0 0 1-.106.022m-1.202-3.825c.16 0 .281.12.28.28a.278.278 0 0 1-.385.257.28.28 0 0 1-.095-.457.28.28 0 0 1 .2-.08M7.63 10.978a.28.28 0 0 1-.282.28.276.276 0 0 1-.28-.282.28.28 0 0 1 .279-.276.28.28 0 0 1 .283.278" clip-rule="evenodd"/></svg>