<?xml version="1.0" encoding="UTF-8"?>
<svg id="Layer_2" data-name="Layer 2" xmlns="http://www.w3.org/2000/svg" viewBox="0 0 19.33 23.28">
  <defs>
    <style>
      .cls-1 {
        fill: #273658;
      }
    </style>
  </defs>
  <g id="Layer_1-2" data-name="Layer 1">
    <g>
      <path class="cls-1" d="m13.41,11.64c0-1.11-.9-2-2-2h-2.6s-1.15,4.01-1.15,4.01h3.75c1.11,0,2-.91,2-2.01Z"/>
      <path class="cls-1" d="m11.39,3.7h-.89L11.56,0h-2.97s-1.06,3.7-1.06,3.7H1.85l-.85,2.97h10.4c2.74,0,4.98,2.23,4.98,4.98s-2.23,4.98-4.98,4.98h-4.6l-.85,2.97h5.45c4.38,0,7.95-3.56,7.95-7.95s-3.56-7.95-7.95-7.95Z"/>
      <polygon class="cls-1" points="1.91 23.28 4.88 23.28 5.94 19.59 2.97 19.59 1.91 23.28"/>
      <polygon class="cls-1" points="2.86 9.64 0 19.59 2.97 19.59 5.83 9.64 2.86 9.64"/>
    </g>
  </g>
</svg>