<svg xmlns="http://www.w3.org/2000/svg" width="24" height="24" viewBox="0 0 24 24" fill="none"><path fill="#fff" fill-rule="evenodd" d="M12.137 4.084a7.953 7.953 0 1 0 0 15.905 7.953 7.953 0 0 0 0-15.905m-8.953 7.952a8.953 8.953 0 1 1 17.906 0 8.953 8.953 0 0 1-17.906 0" clip-rule="evenodd"/><path fill="#fff" d="M10.248 7.268H8.145V9.81H6.828v1.225h1.317v1.317H6.828v1.225h1.317v2.47h1.28v1.244h5.688v-1.244h1.28v-8.78H14.29v7.628h-4.042v-1.318h1.244v-1.225h-1.244v-1.317h1.244V9.81h-1.244z"/></svg>