<svg width="24" height="24" viewBox="0 0 24 24" fill="none"><path fill="#1347e8" d="M12 3.75a8.25 8.25 0 1 0 0 16.5 8.25 8.25 0 0 0 0-16.5m7.83 7.913-.667.006-.003-.28.668-.005zm-.171-1.443-.662.092-.038-.277.661-.091zm-.57-1.756.116.255-.609.276-.115-.254zm-.834-1.272.184.21-.502.441-.184-.21zm-.979-1.044.212.183-.436.505-.212-.182zm-1.166-.944.234.152-.364.56-.234-.152zm-1.327-.655.27.071-.17.646-.27-.072zm-1.46-.359.279.023-.056.666-.278-.023zm-1.51-.176h.28v.668h-.28zm-1.24.176.055.665-.279.024-.055-.665zm-1.46.359.17.645-.27.072-.17-.645zm-1.326.654.363.561-.235.152-.363-.56zM6.62 6.15l.436.505-.212.182-.435-.505zm-.978 1.04.503.441-.185.21-.502-.44zM4.81 8.463l.607.277-.114.255-.608-.278zm-.532 1.48.662.091-.038.278-.662-.092zm-.207 1.44.668.006-.003.28-.667-.007zm.062 1.569.664-.068.028.278-.664.067zm.302 1.42.651-.151.064.272-.651.152zm.728 1.698-.138-.244.58-.331.139.243zm.947 1.19-.203-.192.46-.486.202.192zm1.069.95-.228-.162.388-.544.227.162zm1.247.833-.247-.13.31-.59.248.13zm1.381.531-.276-.046.11-.659.276.047zm1.207.227-.005-.668.28-.003.005.668zM5.055 12A6.953 6.953 0 0 1 12 5.055 6.953 6.953 0 0 1 18.945 12 6.953 6.953 0 0 1 12 18.945 6.953 6.953 0 0 1 5.055 12m7.49 7.86-.01.002-.06-.665.278-.025.009-.002.06.665zm1.488-.313-.116-.657.275-.05.117.66zm1.42-.49-.228-.628.263-.095.228.628zm1.262-.773-.413-.525.219-.174.413.525zm1.075-1.047-.48-.464.194-.202.48.465zm.879-1.13-.54-.393.165-.226.54.393zm.714-1.342-.631-.22.092-.264.63.22zm.394-1.522-.668-.03.013-.28.668.03zm-5.125 2.306c.111.12.114.303.004.412-.11.11-.293.104-.412-.01l-.208-.21-.474-.48a2.1 2.1 0 0 1-.987.2H11.27c-1.18.044-2.271-.546-2.183-2.463.004-.08-.005-1.112-.005-1.194l.002-.774c-.002-1.912.465-2.78 1.754-3.086.146-.035.944-.053 1.096-.053h.068c.153 0 .857.018 1.003.053 1.288.307 1.755 1.174 1.753 3.086l.002.775c0 .082-.008 1.113-.004 1.194.048 1.035-.249 1.485-.718 1.93l.405.41zm-1.994-.696q.225 0 .44-.063l-.268-.27-.208-.211c-.113-.12-.115-.303-.005-.411.11-.11.293-.105.412.008l.208.21.374.38.055-.055c.35-.366.516-.672.483-1.414-.002-.053-.003-.053.002-.985l.002-.238-.001-.523c-.001-.32-.002-.207-.002-.252.001-.847-.095-1.584-.301-1.916-.123-.198-.334-.42-.974-.574q-.435-.036-.871-.038h-.07c-.192 0-.837.019-.963.038-.64.154-.852.376-.974.574-.207.332-.303 1.069-.301 1.917l-.002.25v.762c.006.931.006.933.003.985-.034.742.133 1.048.483 1.414.325.34.727.413 1.008.413l.06-.002h1.349z"/></svg>