<svg width="24" height="24" viewBox="0 0 24 24" fill="none"><path fill="#252525" d="M19.221 16.282a.285.285 0 0 1 .279.288V18h-4.71l-.017-1.245a.28.28 0 0 1 .1-.213.4.4 0 0 1 .063-.065c2.075-1.448 2.872-4.204 1.906-6.588-.967-2.384-3.429-3.734-5.885-3.225S6.733 9.397 6.733 11.98c-.002 1.767.84 3.42 2.25 4.422a.2.2 0 0 1 .072.074.3.3 0 0 1 .172.269l-.018 1.245H4.5v-1.43c0-.159.125-.288.279-.288s.279.129.279.288v.864h3.601l.01-.538h-.01c-2.07-1.502-2.959-4.214-2.197-6.704C7.226 7.692 9.465 6 11.996 6s4.77 1.692 5.533 4.182-.126 5.202-2.197 6.704l.01.547h3.6v-.863a.285.285 0 0 1 .28-.288zM15.502 12.4c.621.79.81 1.495.54 1.96-.207.362-.648.557-1.287.557a5 5 0 0 1-1.188-.176c-.351 1.226-.919 2.015-1.567 2.015s-1.215-.79-1.558-2.015a5 5 0 0 1-1.188.176c-.64 0-1.08-.195-1.287-.557-.333-.576.045-1.477.909-2.397a5 5 0 0 1-.37-.427c-.62-.79-.81-1.487-.54-1.97.208-.362.648-.557 1.288-.557.402.01.801.07 1.188.177.351-1.226.919-2.016 1.567-2.016s1.215.79 1.558 2.025a5 5 0 0 1 1.188-.176c.64 0 1.08.195 1.287.557.27.483.081 1.18-.54 1.97a5 5 0 0 1-.369.427q.196.202.37.427m-.738-3.038a5 5 0 0 0-1.107.158q.145.661.207 1.338.533.394 1.018.855c.126-.13.242-.27.35-.4.514-.66.703-1.226.514-1.57-.171-.316-.63-.38-.982-.38m-1.98 4.004c.26-.158.513-.325.747-.492a10 10 0 0 0 .036-.91c0-.316-.018-.623-.036-.911q-.365-.256-.748-.483a16 16 0 0 0-.783-.418q-.403.187-.783.418c-.27.157-.514.316-.748.483a10 10 0 0 0-.036.91c0 .315.018.623.036.91q.732.514 1.531.91.403-.186.783-.417m.71-.028c-.18.111-.35.223-.53.335q-.27.166-.54.306.443.2.909.344.095-.459.162-.985m-1.899.64-.54-.306q-.272-.167-.532-.334.05.498.162.985.465-.147.91-.344m-1.477-1.374q-.016-.32-.018-.64c0-.223.01-.428.018-.642a8 8 0 0 0-.747.641q.356.343.747.64m.405-1.997q.255-.178.522-.334c.19-.112.37-.214.55-.307a8 8 0 0 0-.91-.343c-.063.306-.117.631-.162.984m1.891-.641q.27.14.54.307.272.166.532.334a7.5 7.5 0 0 0-.162-.984 9 9 0 0 0-.91.343m1.486 1.365c.009.215.018.418.018.641s-.01.437-.018.642c.26-.214.513-.428.738-.642a7 7 0 0 0-.738-.64zM12.01 7.524c-.459 0-.927.65-1.234 1.755q.633.2 1.234.482.6-.281 1.234-.481c-.307-1.105-.784-1.756-1.234-1.756m-3.736 2.22c-.198.344-.01.92.513 1.56.107.139.225.269.35.408q.482-.461 1.018-.853.061-.676.207-1.338a4.7 4.7 0 0 0-1.107-.158c-.351 0-.801.066-.981.381m.981 4.83a4.3 4.3 0 0 0 1.107-.168q-.144-.661-.207-1.336a9 9 0 0 1-1.027-.855c-.774.827-1.08 1.57-.854 1.978.17.316.63.381.981.381m2.755 1.84c.45 0 .927-.651 1.234-1.756a10 10 0 0 1-1.234-.483q-.6.283-1.234.483c.307 1.105.784 1.755 1.234 1.755m3.736-2.22c.19-.335 0-.91-.512-1.57a7 7 0 0 0-.351-.4q-.482.462-1.018.855-.062.676-.207 1.338c.361.096.733.15 1.107.157.352 0 .802-.065.982-.38m-3.736-3.586c.727 0 1.319.606 1.324 1.356 0 .748-.588 1.355-1.312 1.356s-1.314-.602-1.318-1.35c-.003-.747.582-1.357 1.306-1.362m0 2.369c.535-.005.968-.451.973-1.004 0-.554-.435-1.002-.973-1.002s-.973.448-.973 1.002c0 .555.436 1.004.973 1.004"/></svg>