<svg width="24" height="24" viewBox="0 0 24 24" fill="none"><path fill="#454545" fill-rule="evenodd" d="M8.625 12A3.38 3.38 0 0 1 12 8.625 3.38 3.38 0 0 1 15.375 12c0 .49-.107.954-.296 1.375l-2.227-2.228-1.704 1.705 2.228 2.227a3.35 3.35 0 0 1-1.376.296A3.38 3.38 0 0 1 8.625 12m8.86 0a5.45 5.45 0 0 0-.885-2.983l2.15-2.151-1.616-1.616-2.15 2.151A5.45 5.45 0 0 0 12 6.515a5.46 5.46 0 0 0-2.983.885L6.866 5.25 5.25 6.866l2.151 2.15a5.46 5.46 0 0 0 0 5.967L5.25 17.135l1.616 1.616 2.15-2.151c.86.559 1.883.886 2.984.886a5.45 5.45 0 0 0 2.983-.886l2.151 2.151 1.616-1.616-2.151-2.15A5.45 5.45 0 0 0 17.485 12" clip-rule="evenodd"/></svg>