<svg width="24" height="24" viewBox="0 0 24 24" fill="none"><path fill="#2e9ad0" d="m18.61 17.727-1.48-1.317-2.994 2.246a.6.6 0 0 1-.115.668.6.6 0 0 1-.415.176.59.59 0 0 1-.574-.483H9.8a.59.59 0 0 1-.574.483.59.59 0 0 1-.584-.594.6.6 0 0 1 .053-.248l-2.66-1.98a.576.576 0 0 1-.802-.027.597.597 0 0 1 .135-.94l-.977-3.12A.59.59 0 0 1 3.75 12a.59.59 0 0 1 .66-.589l.96-3.12a.6.6 0 0 1-.306-.524.59.59 0 0 1 .584-.594c.152 0 .29.058.393.154l2.68-1.934a.6.6 0 0 1-.08-.299.59.59 0 0 1 .585-.594c.285 0 .523.208.574.483h3.232a.59.59 0 0 1 .575-.483c.322 0 .583.266.583.594a.6.6 0 0 1-.071.285l2.662 1.958a.58.58 0 0 1 .403-.164c.322 0 .583.266.583.594a.6.6 0 0 1-.265.499l.957 3.142a.584.584 0 0 1 .622.592.59.59 0 0 1-.602.594l-1.123 3.623 1.438 1.279a.86.86 0 0 1 .58-.223c.484 0 .876.399.876.89a.884.884 0 0 1-.876.892.884.884 0 0 1-.876-.892.9.9 0 0 1 .112-.436m-4.954.587 1.115-2.511a.6.6 0 0 1-.192-.292l-2.587.377a.6.6 0 0 1-.141.296l1.535 2.171a.6.6 0 0 1 .27-.04m.295.113 2.901-2.177-1.25-.545a.58.58 0 0 1-.565.221l-1.105 2.487zm-.799.105-1.545-2.183a.57.57 0 0 1-.382 0L9.68 18.532q.067.085.1.188h3.27a.6.6 0 0 1 .102-.187m5.046-6.022a.6.6 0 0 1-.284-.51c0-.21.106-.394.267-.5l-.904-2.97-.203 2.906c.233.078.402.3.402.564a.59.59 0 0 1-.397.563l.2 2.914zm-1.69-.958L15.32 9.224a.6.6 0 0 1-.3.016l-1.044 2.3a.596.596 0 0 1 .156.718.6.6 0 0 1-.163.207l1.076 2.29a.6.6 0 0 1 .232.01l1.215-2.333a.6.6 0 0 1 .015-.88m.28 1.033-.04-.009-1.213 2.328a.6.6 0 0 1 .182.528l1.305.568zm-.005-1.169.215-3.085a.6.6 0 0 1-.282-.208l-1.004.42a.6.6 0 0 1-.146.52l1.203 2.356zm-3.08 1.17a.6.6 0 0 1-.252-.013L11.86 15.4q.072.086.109.191l2.6-.378a.6.6 0 0 1 .21-.337zm.007-1.17 1.048-2.308a.6.6 0 0 1-.197-.362l-2.606-.379a.6.6 0 0 1-.123.188l1.604 2.877a.6.6 0 0 1 .275-.016zm-.512 1.01a.6.6 0 0 1-.176-.426c0-.16.063-.307.165-.413l-1.605-2.879a.6.6 0 0 1-.276.014l-1.655 2.87a.6.6 0 0 1-.011.827l1.626 2.794a.6.6 0 0 1 .352.017zm-8.532.063.931 2.974.22-2.882a.59.59 0 0 1-.46-.581.59.59 0 0 1 .47-.583L5.6 8.542l-.918 2.981A.6.6 0 0 1 4.92 12a.6.6 0 0 1-.253.489m2.916 2.27a.6.6 0 0 1 .26.008l1.028-2.295A.6.6 0 0 1 8.642 12c0-.186.084-.352.215-.46l-1.044-2.3a.6.6 0 0 1-.22.004l-1.258 2.318a.6.6 0 0 1 .01.867zm.243 1.162a.58.58 0 0 1-.585-.205l-1.013.441a.6.6 0 0 1-.028.274l2.681 1.996.024-.017zm-.707-.475a.6.6 0 0 1 .2-.56l-1.21-2.277-.235 3.075a.6.6 0 0 1 .246.197zm1.147-.224 2.599.37a.6.6 0 0 1 .147-.234L9.39 12.572a.6.6 0 0 1-.25.017l-1.042 2.326a.6.6 0 0 1 .168.308m-.015.298a.6.6 0 0 1-.166.262l1.097 2.532a.6.6 0 0 1 .265.041l1.536-2.17a.6.6 0 0 1-.141-.295zM7.123 8.528l-.998-.417a.6.6 0 0 1-.25.204l.24 3.039 1.212-2.232a.6.6 0 0 1-.204-.593m.712-.446 1.032-2.43-2.665 1.925q.041.125.027.257l1.027.43a.58.58 0 0 1 .58-.182m.437.655a.6.6 0 0 1-.197.371l1.047 2.308a.6.6 0 0 1 .283.018l1.636-2.839a.6.6 0 0 1-.165-.23zm-.18-.512q.095.092.145.217l2.598-.37a.6.6 0 0 1 .12-.299L9.463 5.637a.6.6 0 0 1-.293.049zm6.992-.158a.58.58 0 0 1 .501.208l1.02-.426a.6.6 0 0 1 .022-.26L13.98 5.643zm-.492.383a.6.6 0 0 1 .217-.282l-1.132-2.484a.6.6 0 0 1-.307-.047l-1.493 2.136a.6.6 0 0 1 .12.3zM13.14 5.453a.6.6 0 0 1-.088-.173H9.78a.6.6 0 0 1-.09.172l1.496 2.14a.57.57 0 0 1 .458 0z"/></svg>