<svg width="24" height="24" viewBox="0 0 24 24" fill="none"><path fill="#fff" d="M8.603 5.746a2.856 2.856 0 1 1 0 5.712 2.856 2.856 0 0 1 0-5.712m2.855 9.652a2.857 2.857 0 1 1-2.856-2.856 3.94 3.94 0 0 0 3.94-3.94 2.856 2.856 0 1 1 2.856 2.857 3.94 3.94 0 0 0-3.94 3.94m3.94 2.856a2.856 2.856 0 1 1 0-5.712 2.856 2.856 0 0 1 0 5.712m0-1.995a.861.861 0 1 0 0-1.722.861.861 0 0 0 0 1.722m-6.795 0a.861.861 0 1 0 0-1.722.861.861 0 0 0 0 1.722m6.795-6.796a.86.86 0 1 0 0-1.722.86.86 0 0 0 0 1.722m-6.795 0a.861.861 0 1 0 0-1.722.861.861 0 0 0 0 1.722"/><path fill="#9d4bef" d="M8.603 5.746a2.856 2.856 0 1 1 0 5.712 2.856 2.856 0 0 1 0-5.712m2.855 9.652a2.856 2.856 0 1 1-2.856-2.856 3.94 3.94 0 0 0 3.94-3.94 2.855 2.855 0 1 1 2.856 2.857 3.94 3.94 0 0 0-3.94 3.94m3.94 2.856a2.856 2.856 0 1 1 0-5.712 2.856 2.856 0 0 1 0 5.712m0-1.995a.861.861 0 1 0 0-1.723.861.861 0 0 0 0 1.723m-6.795 0a.861.861 0 1 0 0-1.722.861.861 0 0 0 0 1.722m6.795-6.796a.861.861 0 1 0 0-1.723.861.861 0 0 0 0 1.723m-6.795 0a.861.861 0 1 0 0-1.722.861.861 0 0 0 0 1.722"/></svg>