<svg width="24" height="24" viewBox="0 0 24 24" fill="none">
<path d="M8.6026 5.74574C9.36006 5.74574 10.0865 6.04664 10.6221 6.58225C11.1577 7.11785 11.4586 7.84428 11.4586 8.60174C11.4586 9.3592 11.1577 10.0856 10.6221 10.6212C10.0865 11.1568 9.36006 11.4577 8.6026 11.4577C7.84514 11.4577 7.11871 11.1568 6.5831 10.6212C6.0475 10.0856 5.7466 9.3592 5.7466 8.60174C5.7466 7.84428 6.0475 7.11785 6.5831 6.58225C7.11871 6.04664 7.84514 5.74574 8.6026 5.74574ZM11.4579 15.3982C11.4579 15.9631 11.2903 16.5153 10.9765 16.985C10.6627 17.4546 10.2167 17.8207 9.69479 18.0368C9.17293 18.253 8.59868 18.3096 8.04467 18.1994C7.49066 18.0892 6.98177 17.8172 6.58235 17.4177C6.18294 17.0183 5.91093 16.5094 5.80073 15.9554C5.69053 15.4014 5.74709 14.8272 5.96325 14.3053C6.17941 13.7834 6.54548 13.3374 7.01514 13.0236C7.48481 12.7097 8.03699 12.5422 8.60185 12.5422C9.64674 12.5422 10.6488 12.1272 11.3877 11.3883C12.1265 10.6495 12.5416 9.64738 12.5416 8.60249C12.5416 8.03763 12.7091 7.48545 13.0229 7.01578C13.3367 6.54612 13.7828 6.18006 14.3047 5.96389C14.8265 5.74773 15.4008 5.69117 15.9548 5.80137C16.5088 5.91157 17.0177 6.18358 17.4171 6.583C17.8165 6.98241 18.0885 7.4913 18.1987 8.04531C18.3089 8.59932 18.2524 9.17357 18.0362 9.69544C17.82 10.2173 17.454 10.6633 16.9843 10.9772C16.5146 11.291 15.9625 11.4585 15.3976 11.4585C14.3528 11.4587 13.3509 11.8739 12.6123 12.6127C11.8736 13.3515 11.4586 14.3535 11.4586 15.3982H11.4579ZM15.3976 18.2542C14.6401 18.2542 13.9137 17.9533 13.3781 17.4177C12.8425 16.8821 12.5416 16.1557 12.5416 15.3982C12.5416 14.6408 12.8425 13.9143 13.3781 13.3787C13.9137 12.8431 14.6401 12.5422 15.3976 12.5422C16.1551 12.5422 16.8815 12.8431 17.4171 13.3787C17.9527 13.9143 18.2536 14.6408 18.2536 15.3982C18.2536 16.1557 17.9527 16.8821 17.4171 17.4177C16.8815 17.9533 16.1551 18.2542 15.3976 18.2542ZM15.3976 16.2592C15.626 16.2592 15.845 16.1685 16.0064 16.0071C16.1679 15.8456 16.2586 15.6266 16.2586 15.3982C16.2586 15.1699 16.1679 14.9509 16.0064 14.7894C15.845 14.628 15.626 14.5372 15.3976 14.5372C15.1693 14.5372 14.9503 14.628 14.7888 14.7894C14.6273 14.9509 14.5366 15.1699 14.5366 15.3982C14.5366 15.6266 14.6273 15.8456 14.7888 16.0071C14.9503 16.1685 15.1693 16.2592 15.3976 16.2592ZM8.6026 16.2592C8.83095 16.2592 9.04995 16.1685 9.21142 16.0071C9.37289 15.8456 9.4636 15.6266 9.4636 15.3982C9.4636 15.1699 9.37289 14.9509 9.21142 14.7894C9.04995 14.628 8.83095 14.5372 8.6026 14.5372C8.37425 14.5372 8.15525 14.628 7.99378 14.7894C7.83231 14.9509 7.7416 15.1699 7.7416 15.3982C7.7416 15.6266 7.83231 15.8456 7.99378 16.0071C8.15525 16.1685 8.37425 16.2592 8.6026 16.2592ZM15.3976 9.46274C15.626 9.46274 15.845 9.37203 16.0064 9.21056C16.1679 9.04909 16.2586 8.83009 16.2586 8.60174C16.2586 8.37339 16.1679 8.15439 16.0064 7.99292C15.845 7.83146 15.626 7.74074 15.3976 7.74074C15.1693 7.74074 14.9503 7.83146 14.7888 7.99292C14.6273 8.15439 14.5366 8.37339 14.5366 8.60174C14.5366 8.83009 14.6273 9.04909 14.7888 9.21056C14.9503 9.37203 15.1693 9.46274 15.3976 9.46274ZM8.6026 9.46274C8.83095 9.46274 9.04995 9.37203 9.21142 9.21056C9.37289 9.04909 9.4636 8.83009 9.4636 8.60174C9.4636 8.37339 9.37289 8.15439 9.21142 7.99292C9.04995 7.83146 8.83095 7.74074 8.6026 7.74074C8.37425 7.74074 8.15525 7.83146 7.99378 7.99292C7.83231 8.15439 7.7416 8.37339 7.7416 8.60174C7.7416 8.83009 7.83231 9.04909 7.99378 9.21056C8.15525 9.37203 8.37425 9.46274 8.6026 9.46274Z" fill="white"/>
<path d="M8.60285 5.74576C9.3603 5.74576 10.0867 6.04666 10.6223 6.58226C11.1579 7.11787 11.4588 7.8443 11.4588 8.60176C11.4588 9.35922 11.1579 10.0857 10.6223 10.6213C10.0867 11.1569 9.3603 11.4578 8.60285 11.4578C7.84539 11.4578 7.11895 11.1569 6.58335 10.6213C6.04774 10.0857 5.74685 9.35922 5.74685 8.60176C5.74685 7.8443 6.04774 7.11787 6.58335 6.58226C7.11895 6.04666 7.84539 5.74576 8.60285 5.74576ZM11.4581 15.3983C11.4581 15.9631 11.2906 16.5153 10.9768 16.985C10.663 17.4546 10.2169 17.8207 9.69504 18.0369C9.17317 18.253 8.59893 18.3096 8.04492 18.1994C7.49091 18.0892 6.98202 17.8172 6.5826 17.4178C6.18318 17.0183 5.91117 16.5094 5.80097 15.9554C5.69077 15.4014 5.74733 14.8272 5.9635 14.3053C6.17966 13.7834 6.54572 13.3374 7.01539 13.0236C7.48505 12.7098 8.03723 12.5423 8.6021 12.5423C9.64698 12.5423 10.6491 12.1272 11.3879 11.3883C12.1268 10.6495 12.5418 9.64739 12.5418 8.60251C12.5418 8.03764 12.7093 7.48547 13.0232 7.0158C13.337 6.54613 13.783 6.18007 14.3049 5.96391C14.8268 5.74774 15.401 5.69119 15.955 5.80139C16.509 5.91159 17.0179 6.18359 17.4173 6.58301C17.8168 6.98243 18.0888 7.49132 18.199 8.04533C18.3092 8.59934 18.2526 9.17359 18.0364 9.69545C17.8203 10.2173 17.4542 10.6634 16.9846 10.9772C16.5149 11.291 15.9627 11.4585 15.3978 11.4585C14.3531 11.4587 13.3512 11.8739 12.6125 12.6127C11.8738 13.3515 11.4588 14.3535 11.4588 15.3983H11.4581ZM15.3978 18.2543C14.6404 18.2543 13.914 17.9534 13.3783 17.4178C12.8427 16.8822 12.5418 16.1557 12.5418 15.3983C12.5418 14.6408 12.8427 13.9144 13.3783 13.3788C13.914 12.8432 14.6404 12.5423 15.3978 12.5423C16.1553 12.5423 16.8817 12.8432 17.4173 13.3788C17.9529 13.9144 18.2538 14.6408 18.2538 15.3983C18.2538 16.1557 17.9529 16.8822 17.4173 17.4178C16.8817 17.9534 16.1553 18.2543 15.3978 18.2543ZM15.3978 16.2593C15.6262 16.2593 15.8452 16.1685 16.0067 16.0071C16.1681 15.8456 16.2588 15.6266 16.2588 15.3983C16.2588 15.1699 16.1681 14.9509 16.0067 14.7894C15.8452 14.628 15.6262 14.5373 15.3978 14.5373C15.1695 14.5373 14.9505 14.628 14.789 14.7894C14.6276 14.9509 14.5368 15.1699 14.5368 15.3983C14.5368 15.6266 14.6276 15.8456 14.789 16.0071C14.9505 16.1685 15.1695 16.2593 15.3978 16.2593ZM8.60285 16.2593C8.8312 16.2593 9.0502 16.1685 9.21166 16.0071C9.37313 15.8456 9.46385 15.6266 9.46385 15.3983C9.46385 15.1699 9.37313 14.9509 9.21166 14.7894C9.0502 14.628 8.8312 14.5373 8.60285 14.5373C8.37449 14.5373 8.1555 14.628 7.99403 14.7894C7.83256 14.9509 7.74185 15.1699 7.74185 15.3983C7.74185 15.6266 7.83256 15.8456 7.99403 16.0071C8.1555 16.1685 8.37449 16.2593 8.60285 16.2593ZM15.3978 9.46276C15.6262 9.46276 15.8452 9.37205 16.0067 9.21058C16.1681 9.04911 16.2588 8.83011 16.2588 8.60176C16.2588 8.37341 16.1681 8.15441 16.0067 7.99294C15.8452 7.83147 15.6262 7.74076 15.3978 7.74076C15.1695 7.74076 14.9505 7.83147 14.789 7.99294C14.6276 8.15441 14.5368 8.37341 14.5368 8.60176C14.5368 8.83011 14.6276 9.04911 14.789 9.21058C14.9505 9.37205 15.1695 9.46276 15.3978 9.46276ZM8.60285 9.46276C8.8312 9.46276 9.0502 9.37205 9.21166 9.21058C9.37313 9.04911 9.46385 8.83011 9.46385 8.60176C9.46385 8.37341 9.37313 8.15441 9.21166 7.99294C9.0502 7.83147 8.8312 7.74076 8.60285 7.74076C8.37449 7.74076 8.1555 7.83147 7.99403 7.99294C7.83256 8.15441 7.74185 8.37341 7.74185 8.60176C7.74185 8.83011 7.83256 9.04911 7.99403 9.21058C8.1555 9.37205 8.37449 9.46276 8.60285 9.46276Z" fill="#9D4BEF"/>
</svg>
