<svg width="24" height="24" viewBox="0 0 24 24" fill="none"><path fill="#0e0e21" fill-rule="evenodd" d="m8.662 11.434-.93-.604a.19.19 0 0 1-.059-.253l3.588-6.083a.37.37 0 0 1 .315-.181h.847a.37.37 0 0 1 .315.181l3.588 6.083a.187.187 0 0 1-.06.253l-.93.604a.183.183 0 0 1-.255-.062l-3.002-5.09a.092.092 0 0 0-.158 0l-3.002 5.09a.18.18 0 0 1-.257.062m8.608.746 1.428 2.421a.38.38 0 0 1-.116.505L12.2 19.255a.36.36 0 0 1-.398 0l-6.383-4.148a.375.375 0 0 1-.117-.505L6.73 12.18a.18.18 0 0 1 .257-.062l.93.604a.19.19 0 0 1 .058.253l-.816 1.384a.095.095 0 0 0 .03.126l4.762 3.093c.03.02.067.02.098 0l4.762-3.093a.094.094 0 0 0 .03-.126l-.816-1.384a.19.19 0 0 1 .06-.253l.93-.604a.18.18 0 0 1 .255.062" clip-rule="evenodd"/><path fill="#0e0e21" fill-rule="evenodd" d="m8.663 11.62-.93-.603a.187.187 0 0 1-.06-.253l3.588-6.083a.37.37 0 0 1 .315-.181h.847a.37.37 0 0 1 .315.181l3.588 6.083a.187.187 0 0 1-.06.253l-.93.604a.183.183 0 0 1-.255-.062l-3.002-5.09a.092.092 0 0 0-.158 0L8.92 11.56a.18.18 0 0 1-.256.062m8.607.747 1.428 2.421a.38.38 0 0 1-.116.506L12.2 19.44a.36.36 0 0 1-.398 0L5.42 15.294a.375.375 0 0 1-.117-.506l1.428-2.42a.18.18 0 0 1 .256-.062l.93.603a.187.187 0 0 1 .059.253l-.816 1.384a.095.095 0 0 0 .03.126l4.76 3.094c.03.02.068.02.099 0l4.762-3.094a.094.094 0 0 0 .03-.126l-.816-1.384a.19.19 0 0 1 .06-.253l.93-.603a.18.18 0 0 1 .207.007q.03.022.048.054" clip-rule="evenodd"/></svg>