<?xml version="1.0" encoding="UTF-8"?>
<svg id="Layer_1" data-name="Layer 1" xmlns="http://www.w3.org/2000/svg" viewBox="0 0 32 32">
  <defs>
    <style>
      .cls-1 {
        fill: #fff;
      }
    </style>
  </defs>
  <g>
    <path class="cls-1" d="m16,31.81C7.28,31.81.19,24.72.19,16S7.28.19,16,.19s15.81,7.09,15.81,15.81-7.09,15.81-15.81,15.81Z"/>
    <path class="cls-1" d="m16,.35c8.63,0,15.65,7.02,15.65,15.65s-7.02,15.65-15.65,15.65S.35,24.63.35,16,7.37.35,16,.35m0-.32C7.18.03.03,7.18.03,16s7.15,15.97,15.97,15.97,15.97-7.15,15.97-15.97S24.82.03,16,.03h0Z"/>
  </g>
  <path d="m24.98,20.38c-.2.6-.76,1.03-1.43,1.03s-1.23-.43-1.43-1.03h-.91c-.2.6-.76,1.03-1.43,1.03s-1.23-.43-1.43-1.03h-.91c-.2.6-.76,1.03-1.43,1.03s-1.23-.43-1.43-1.03h-.91c-.2.6-.76,1.03-1.43,1.03-.83,0-1.51-.67-1.51-1.51s.68-1.51,1.51-1.51c.67,0,1.23.43,1.43,1.03h.91c.2-.6.76-1.03,1.43-1.03s1.23.43,1.43,1.03h.91c.2-.6.76-1.03,1.43-1.03s1.23.43,1.43,1.03h.91c.2-.6.76-1.03,1.43-1.03s1.23.43,1.43,1.03h6.05c.22-.96.35-1.95.38-2.97h-6.43c-.2.6-.76,1.03-1.43,1.03s-1.23-.43-1.43-1.03h-.91c-.2.6-.76,1.03-1.43,1.03s-1.23-.43-1.43-1.03h-.91c-.2.6-.76,1.03-1.43,1.03-.83,0-1.51-.67-1.51-1.51s.68-1.51,1.51-1.51c.67,0,1.23.43,1.43,1.03h.91c.2-.6.76-1.03,1.43-1.03s1.23.43,1.43,1.03h.91c.2-.6.76-1.03,1.43-1.03s1.23.43,1.43,1.03h6.43c-.07-2.49-.74-4.83-1.86-6.88h-4.57c-.2.6-.76,1.03-1.43,1.03-.83,0-1.51-.67-1.51-1.51s.68-1.51,1.51-1.51c.67,0,1.23.43,1.43,1.03h4.01C26.26,3.43,21.46.59,16,.59,8.97.59,3.03,5.31,1.18,11.75h5.8c.15-.67.75-1.17,1.47-1.17.83,0,1.51.67,1.51,1.51s-.68,1.51-1.51,1.51c-.62,0-1.15-.37-1.38-.9H.95c-.23,1.06-.36,2.17-.36,3.3,0,2.66.68,5.17,1.86,7.35h4.57c.2-.6.76-1.03,1.43-1.03s1.23.43,1.43,1.03h.91c.2-.6.76-1.03,1.43-1.03s1.23.43,1.43,1.03h.91c.2-.6.76-1.03,1.43-1.03s1.23.43,1.43,1.03h.91c.2-.6.76-1.03,1.43-1.03.83,0,1.51.67,1.51,1.51s-.68,1.51-1.51,1.51c-.67,0-1.23-.43-1.43-1.03h-.91c-.2.6-.76,1.03-1.43,1.03s-1.23-.43-1.43-1.03h-.91c-.2.6-.76,1.03-1.43,1.03s-1.23-.43-1.43-1.03h-.91c-.2.6-.76,1.03-1.43,1.03s-1.23-.43-1.43-1.03H3.01c2.74,4.28,7.53,7.11,12.99,7.11,6.99,0,12.89-4.65,14.78-11.03h-5.8Zm-1.43-9.8c.83,0,1.51.67,1.51,1.51s-.68,1.51-1.51,1.51-1.51-.67-1.51-1.51.68-1.51,1.51-1.51Zm-3.77-3.91c.83,0,1.51.67,1.51,1.51s-.68,1.51-1.51,1.51-1.51-.67-1.51-1.51.68-1.51,1.51-1.51Zm0,3.91c.83,0,1.51.67,1.51,1.51s-.68,1.51-1.51,1.51-1.51-.67-1.51-1.51.68-1.51,1.51-1.51Zm-3.77-3.91c.83,0,1.51.67,1.51,1.51s-.68,1.51-1.51,1.51-1.51-.67-1.51-1.51.68-1.51,1.51-1.51Zm0,3.91c.83,0,1.51.67,1.51,1.51s-.68,1.51-1.51,1.51-1.51-.67-1.51-1.51.68-1.51,1.51-1.51Zm-3.77-3.91c.83,0,1.51.67,1.51,1.51s-.68,1.51-1.51,1.51-1.51-.67-1.51-1.51.68-1.51,1.51-1.51Zm0,3.91c.83,0,1.51.67,1.51,1.51s-.68,1.51-1.51,1.51-1.51-.67-1.51-1.51.68-1.51,1.51-1.51Zm0,3.91c.83,0,1.51.67,1.51,1.51s-.68,1.51-1.51,1.51-1.51-.67-1.51-1.51.68-1.51,1.51-1.51Zm-3.77,6.92c-.83,0-1.51-.67-1.51-1.51s.68-1.51,1.51-1.51,1.51.67,1.51,1.51-.68,1.51-1.51,1.51Zm0-3.91c-.83,0-1.51-.67-1.51-1.51s.68-1.51,1.51-1.51,1.51.67,1.51,1.51-.68,1.51-1.51,1.51Zm0-7.82c-.83,0-1.51-.67-1.51-1.51s.68-1.51,1.51-1.51,1.51.67,1.51,1.51-.68,1.51-1.51,1.51Zm15.09,15.65c-.83,0-1.51-.67-1.51-1.51s.68-1.51,1.51-1.51,1.51.67,1.51,1.51-.68,1.51-1.51,1.51Z"/>
</svg>