<?xml version="1.0" encoding="UTF-8"?>
<svg id="Layer_2" data-name="Layer 2" xmlns="http://www.w3.org/2000/svg" viewBox="0 0 1001.31 1001.31">
  <g id="Layer_1-2" data-name="Layer 1">
    <path d="m792.52,643.06c-6.44,19.52-24.82,33.63-46.53,33.63s-40.09-14.11-46.53-33.63h-29.55c-6.44,19.52-24.82,33.63-46.53,33.63s-40.09-14.11-46.53-33.63h-29.55c-6.44,19.52-24.82,33.63-46.53,33.63s-40.09-14.11-46.53-33.63h-29.55c-6.44,19.52-24.82,33.63-46.53,33.63-27.07,0-49.01-21.91-49.01-48.94s21.94-48.94,49.01-48.94c21.71,0,40.09,14.11,46.53,33.63h29.55c6.44-19.52,24.82-33.63,46.53-33.63s40.09,14.11,46.53,33.63h29.55c6.44-19.52,24.82-33.63,46.53-33.63s40.09,14.11,46.53,33.63h29.55c6.44-19.52,24.82-33.63,46.53-33.63s40.09,14.11,46.53,33.63h196.49c7.11-31.15,11.3-63.42,12.29-96.48h-208.78c-6.44,19.52-24.82,33.63-46.53,33.63s-40.09-14.11-46.53-33.63h-29.55c-6.44,19.52-24.82,33.63-46.53,33.63s-40.09-14.11-46.53-33.63h-29.55c-6.44,19.52-24.82,33.63-46.53,33.63-27.07,0-49.01-21.91-49.01-48.94s21.94-48.94,49.01-48.94c21.71,0,40.09,14.11,46.53,33.63h29.55c6.44-19.52,24.82-33.63,46.53-33.63s40.09,14.11,46.53,33.63h29.55c6.44-19.52,24.82-33.63,46.53-33.63s40.09,14.11,46.53,33.63h208.78c-2.43-80.8-23.98-156.78-60.32-223.58h-148.46c-6.44,19.52-24.82,33.63-46.53,33.63-27.07,0-49.01-21.91-49.01-48.94s21.94-48.94,49.01-48.94c21.71,0,40.09,14.11,46.53,33.63h130.36C833.9,92.15,678.11,0,500.78,0,272.07,0,79.18,153.28,19.26,362.69h188.55c4.95-21.79,24.43-38.07,47.76-38.07,27.07,0,49.01,21.91,49.01,48.94s-21.94,48.94-49.01,48.94c-20.02,0-37.22-12.01-44.82-29.19H11.58C4.02,427.89,0,463.8,0,500.65c0,86.51,21.95,167.89,60.58,238.88h148.46c6.44-19.52,24.82-33.63,46.53-33.63s40.09,14.11,46.53,33.63h29.55c6.44-19.52,24.82-33.63,46.53-33.63s40.09,14.11,46.53,33.63h29.55c6.44-19.52,24.82-33.63,46.53-33.63s40.09,14.11,46.53,33.63h29.55c6.44-19.52,24.82-33.63,46.53-33.63,27.07,0,49.01,21.91,49.01,48.94s-21.94,48.94-49.01,48.94c-21.71,0-40.09-14.11-46.53-33.63h-29.55c-6.44,19.52-24.82,33.63-46.53,33.63s-40.09-14.11-46.53-33.63h-29.55c-6.44,19.52-24.82,33.63-46.53,33.63s-40.09-14.11-46.53-33.63h-29.55c-6.44,19.52-24.82,33.63-46.53,33.63s-40.09-14.11-46.53-33.63H78.67c88.98,139.01,244.78,231.15,422.11,231.15,227.08,0,418.83-151.12,480.19-358.25h-188.45Zm-46.53-318.44c27.07,0,49.01,21.91,49.01,48.94s-21.94,48.94-49.01,48.94-49.01-21.91-49.01-48.94,21.94-48.94,49.01-48.94Zm-122.61-127.1c27.07,0,49.01,21.91,49.01,48.94s-21.94,48.94-49.01,48.94-49.01-21.91-49.01-48.94,21.94-48.94,49.01-48.94Zm0,127.1c27.07,0,49.01,21.91,49.01,48.94s-21.94,48.94-49.01,48.94-49.01-21.91-49.01-48.94,21.94-48.94,49.01-48.94Zm-122.61-127.1c27.07,0,49.01,21.91,49.01,48.94s-21.94,48.94-49.01,48.94-49.01-21.91-49.01-48.94,21.94-48.94,49.01-48.94Zm0,127.1c27.07,0,49.01,21.91,49.01,48.94s-21.94,48.94-49.01,48.94-49.01-21.91-49.01-48.94,21.94-48.94,49.01-48.94Zm-122.61-127.1c27.07,0,49.01,21.91,49.01,48.94s-21.94,48.94-49.01,48.94-49.01-21.91-49.01-48.94,21.94-48.94,49.01-48.94Zm0,127.1c27.07,0,49.01,21.91,49.01,48.94s-21.94,48.94-49.01,48.94-49.01-21.91-49.01-48.94,21.94-48.94,49.01-48.94Zm0,127.1c27.07,0,49.01,21.91,49.01,48.94s-21.94,48.94-49.01,48.94-49.01-21.91-49.01-48.94,21.94-48.94,49.01-48.94Zm-122.61,224.97c-27.07,0-49.01-21.91-49.01-48.94s21.94-48.94,49.01-48.94,49.01,21.91,49.01,48.94-21.94,48.94-49.01,48.94Zm0-127.1c-27.07,0-49.01-21.91-49.01-48.94s21.94-48.94,49.01-48.94,49.01,21.91,49.01,48.94-21.94,48.94-49.01,48.94Zm0-254.19c-27.07,0-49.01-21.91-49.01-48.94s21.94-48.94,49.01-48.94,49.01,21.91,49.01,48.94-21.94,48.94-49.01,48.94Zm490.43,508.38c-27.07,0-49.01-21.91-49.01-48.94s21.94-48.94,49.01-48.94,49.01,21.91,49.01,48.94-21.94,48.94-49.01,48.94Z"/>
  </g>
</svg>