<svg xmlns="http://www.w3.org/2000/svg" xml:space="preserve" width="64" height="64" viewBox="0 0 64 64"><path fill="#fff" d="M47.19 50.77c1.68 0 3.03-1.36 3.03-3.03 0-1.68-1.36-3.03-3.03-3.03-1.68 0-3.03 1.36-3.03 3.03 0 1.68 1.35 3.03 3.03 3.03m-7.6-31.48c1.68 0 3.03-1.36 3.03-3.03 0-1.68-1.36-3.03-3.03-3.03-1.68 0-3.03 1.36-3.03 3.03s1.36 3.03 3.03 3.03m7.6 7.87a3.02 3.02 0 0 0 3.03-3.02c0-1.68-1.36-3.03-3.03-3.03a3.02 3.02 0 0 0-3.03 3.02c0 1.67 1.35 3.03 3.03 3.03m-30.37 9.67c-1.68 0-3.03 1.36-3.03 3.03 0 1.68 1.36 3.03 3.03 3.03 1.68 0 3.04-1.36 3.03-3.03 0-1.67-1.35-3.03-3.03-3.03m0-7.86c-1.68 0-3.03 1.36-3.03 3.03 0 1.68 1.36 3.03 3.03 3.03 1.68 0 3.03-1.36 3.03-3.03s-1.35-3.03-3.03-3.03m22.77-1.81a3.02 3.02 0 0 0 3.03-3.02c0-1.68-1.36-3.03-3.03-3.03a3.02 3.02 0 0 0-3.03 3.02c0 1.67 1.36 3.03 3.03 3.03m-7.58 0a3.02 3.02 0 0 0 3.03-3.02c0-1.68-1.36-3.03-3.03-3.03a3.02 3.02 0 0 0-3.03 3.02c0 1.67 1.35 3.03 3.03 3.03"/><circle cx="24.41" cy="16.26" r="3.03" fill="#fff"/><path fill="#fff" d="M32.01 19.29c1.68 0 3.03-1.36 3.03-3.03 0-1.68-1.36-3.03-3.03-3.03-1.68 0-3.03 1.36-3.03 3.03s1.35 3.03 3.03 3.03"/><path fill="#fff" d="M32 0C14.33 0 0 14.33 0 32s14.33 32 32 32 32-14.33 32-32S49.67 0 32 0m30.23 38.93H50.07c-.4-1.21-1.53-2.08-2.88-2.08s-2.48.87-2.89 2.08h-1.83a3.034 3.034 0 0 0-5.76 0h-1.83A3.025 3.025 0 0 0 32 36.85c-1.35 0-2.48.87-2.86 2.07h-1.83a3.025 3.025 0 0 0-2.88-2.08c-1.68 0-3.03 1.36-3.03 3.03 0 1.68 1.36 3.03 3.03 3.03 1.34 0 2.48-.87 2.88-2.08h1.83a3.034 3.034 0 0 0 5.76 0h1.83a3.034 3.034 0 0 0 5.76 0h1.83a3.034 3.034 0 0 0 5.76 0h11.66C57.94 53.64 46.07 63 32.01 63c-10.99 0-20.62-5.71-26.14-14.31h8.07a3.034 3.034 0 0 0 5.76 0h1.83a3.034 3.034 0 0 0 5.76 0h1.83a3.034 3.034 0 0 0 5.76 0h1.83c.4 1.21 1.53 2.08 2.88 2.08 1.68 0 3.03-1.36 3.03-3.03 0-1.68-1.36-3.03-3.03-3.03-1.34 0-2.48.87-2.88 2.08h-1.83a3.034 3.034 0 0 0-5.76 0h-1.83a3.034 3.034 0 0 0-5.76 0H19.7a3.034 3.034 0 0 0-5.76 0H4.75C2.36 42.39 1 37.36 1 32c0-2.29.25-4.5.72-6.66h12.34a3.02 3.02 0 0 0 2.77 1.81c1.68 0 3.02-1.35 3.02-3.02a3.028 3.028 0 0 0-5.98-.68H2.19C5.9 10.49 17.85 1 32.01 1c10.98 0 20.62 5.71 26.13 14.31h-8.07a3.025 3.025 0 0 0-2.88-2.08c-1.68 0-3.03 1.36-3.03 3.03 0 1.68 1.36 3.03 3.03 3.03 1.34 0 2.48-.87 2.88-2.08h9.19c2.26 4.14 3.58 8.84 3.74 13.84H50.07a3.034 3.034 0 0 0-5.76 0h-1.83a3.034 3.034 0 0 0-5.76 0H34.9a3.025 3.025 0 0 0-2.88-2.08c-1.68 0-3.03 1.36-3.03 3.03 0 1.68 1.36 3.03 3.03 3.03 1.34 0 2.48-.87 2.88-2.08h1.83a3.034 3.034 0 0 0 5.76 0h1.83c.4 1.21 1.53 2.08 2.88 2.08s2.48-.87 2.89-2.08H63c-.07 2.05-.33 4.05-.77 5.98"/><path fill="#fff" d="M16.82 13.23c-1.68 0-3.03 1.36-3.03 3.03 0 1.68 1.36 3.03 3.03 3.03 1.68 0 3.03-1.36 3.03-3.03 0-1.68-1.35-3.03-3.03-3.03"/><circle cx="24.41" cy="32" r="3.03" fill="#fff"/><path fill="#fff" d="M24.41 21.09c-1.68 0-3.03 1.36-3.03 3.03 0 1.68 1.36 3.03 3.03 3.03 1.68 0 3.03-1.36 3.03-3.03a3.02 3.02 0 0 0-3.03-3.03"/><path d="M47.19 35.03c-1.35 0-2.48-.87-2.88-2.08h-1.83a3.034 3.034 0 0 1-5.76 0H34.9a3.03 3.03 0 0 1-2.88 2.08c-1.68 0-3.03-1.36-3.03-3.03 0-1.68 1.36-3.03 3.03-3.03 1.35 0 2.48.87 2.88 2.08h1.83a3.034 3.034 0 0 1 5.76 0h1.83a3.034 3.034 0 0 1 5.76 0H63c-.16-5-1.48-9.71-3.74-13.84h-9.19a3.03 3.03 0 0 1-2.88 2.08c-1.68 0-3.03-1.36-3.03-3.03 0-1.68 1.36-3.03 3.03-3.03 1.35 0 2.48.87 2.88 2.08h8.07C52.63 6.71 42.99 1 32.01 1 17.85 1 5.9 10.49 2.19 23.46h11.67a3.028 3.028 0 0 1 5.98.68c0 1.68-1.35 3.02-3.02 3.02-1.24 0-2.31-.75-2.77-1.81H1.72C1.25 27.5 1 29.71 1 32c0 5.36 1.36 10.39 3.75 14.79h9.19a3.034 3.034 0 0 1 5.76 0h1.83a3.034 3.034 0 0 1 5.76 0h1.83a3.034 3.034 0 0 1 5.76 0h1.83c.4-1.21 1.54-2.08 2.88-2.08 1.68 0 3.03 1.36 3.03 3.03 0 1.68-1.36 3.03-3.03 3.03-1.35 0-2.48-.87-2.88-2.08h-1.83a3.034 3.034 0 0 1-5.76 0h-1.83a3.034 3.034 0 0 1-5.76 0H19.7a3.034 3.034 0 0 1-5.76 0H5.87C11.39 57.29 21.02 63 32.01 63c14.06 0 25.93-9.36 29.73-22.18H50.08a3.034 3.034 0 0 1-5.76 0h-1.83a3.034 3.034 0 0 1-5.76 0H34.9a3.034 3.034 0 0 1-5.76 0h-1.83a3.03 3.03 0 0 1-2.88 2.08c-1.68 0-3.03-1.36-3.03-3.03 0-1.68 1.36-3.03 3.03-3.03 1.35 0 2.48.87 2.88 2.08h1.83c.38-1.2 1.51-2.07 2.86-2.07s2.48.87 2.88 2.08h1.83a3.034 3.034 0 0 1 5.76 0h1.83c.41-1.21 1.54-2.08 2.89-2.08s2.48.87 2.88 2.08h12.17c.43-1.93.69-3.93.76-5.98H50.08a3.05 3.05 0 0 1-2.89 2.08M16.82 42.9c-1.68 0-3.03-1.36-3.03-3.03 0-1.68 1.36-3.03 3.03-3.03 1.68 0 3.03 1.36 3.03 3.03a3.02 3.02 0 0 1-3.03 3.03m0-7.87c-1.68 0-3.03-1.36-3.03-3.03 0-1.68 1.36-3.03 3.03-3.03 1.68 0 3.03 1.36 3.03 3.03s-1.35 3.03-3.03 3.03m30.37 9.68c1.68 0 3.03 1.36 3.03 3.03 0 1.68-1.36 3.03-3.03 3.03-1.68 0-3.03-1.36-3.03-3.03s1.35-3.03 3.03-3.03m0-23.61c1.68 0 3.03 1.36 3.03 3.03a3.02 3.02 0 0 1-3.03 3.02c-1.68 0-3.03-1.36-3.03-3.03a3.02 3.02 0 0 1 3.03-3.02m-7.6-7.87c1.68 0 3.03 1.36 3.03 3.03 0 1.68-1.36 3.03-3.03 3.03-1.68 0-3.03-1.36-3.03-3.03 0-1.68 1.36-3.03 3.03-3.03m0 7.87c1.68 0 3.03 1.36 3.03 3.03a3.02 3.02 0 0 1-3.03 3.02 3.026 3.026 0 1 1 0-6.05m-7.58-7.87c1.68 0 3.03 1.36 3.03 3.03 0 1.68-1.36 3.03-3.03 3.03-1.68 0-3.03-1.36-3.03-3.03 0-1.68 1.35-3.03 3.03-3.03m-15.19 6.06c-1.68 0-3.03-1.36-3.03-3.03 0-1.68 1.36-3.03 3.03-3.03 1.68 0 3.03 1.36 3.03 3.03s-1.35 3.03-3.03 3.03m7.59 15.74c-1.68 0-3.03-1.36-3.03-3.03 0-1.68 1.36-3.03 3.03-3.03 1.68 0 3.03 1.36 3.03 3.03s-1.35 3.03-3.03 3.03m0-7.87c-1.68 0-3.03-1.36-3.03-3.03 0-1.68 1.36-3.03 3.03-3.03 1.68 0 3.03 1.36 3.03 3.03a3.02 3.02 0 0 1-3.03 3.03m0-7.87c-1.68 0-3.03-1.36-3.03-3.03 0-1.68 1.36-3.03 3.03-3.03 1.68 0 3.03 1.36 3.03 3.03a3.02 3.02 0 0 1-3.03 3.03m7.6 1.81c1.68 0 3.03 1.36 3.03 3.03a3.02 3.02 0 0 1-3.03 3.02c-1.68 0-3.03-1.36-3.03-3.03a3.02 3.02 0 0 1 3.03-3.02"/></svg>