<?xml version="1.0" encoding="utf-8"?>
<!-- Generator: Adobe Illustrator 27.5.0, SVG Export Plug-In . SVG Version: 6.00 Build 0)  -->
<svg version="1.1" id="Layer_1" xmlns="http://www.w3.org/2000/svg" xmlns:xlink="http://www.w3.org/1999/xlink" x="0" y="0"
	 width="64" height="64" viewBox="0 0 64 64" style="enable-background:new 0 0 64 64;" xml:space="preserve">
	<path fill="#FFFFFF" d="M47.19,50.77c1.68,0,3.03-1.36,3.03-3.03c0-1.68-1.36-3.03-3.03-3.03c-1.68,0-3.03,1.36-3.03,3.03
		C44.16,49.42,45.51,50.77,47.19,50.77z"/>
	<path fill="#FFFFFF" d="M39.59,19.29c1.68,0,3.03-1.36,3.03-3.03c0-1.68-1.36-3.03-3.03-3.03c-1.68,0-3.03,1.36-3.03,3.03
		C36.56,17.93,37.92,19.29,39.59,19.29z"/>
	<path fill="#FFFFFF" d="M47.19,27.16c1.68,0,3.03-1.35,3.03-3.02c0-1.68-1.36-3.03-3.03-3.03c-1.68,0-3.03,1.35-3.03,3.02
		C44.16,25.8,45.51,27.16,47.19,27.16z"/>
	<path fill="#FFFFFF" d="M16.82,36.83c-1.68,0-3.03,1.36-3.03,3.03c0,1.68,1.36,3.03,3.03,3.03c1.68,0,3.04-1.36,3.03-3.03
		C19.85,38.19,18.5,36.83,16.82,36.83z"/>
	<path fill="#FFFFFF" d="M16.82,28.97c-1.68,0-3.03,1.36-3.03,3.03c0,1.68,1.36,3.03,3.03,3.03c1.68,0,3.03-1.36,3.03-3.03
		S18.5,28.97,16.82,28.97z"/>
	<path fill="#FFFFFF" d="M39.59,27.16c1.68,0,3.03-1.35,3.03-3.02c0-1.68-1.36-3.03-3.03-3.03c-1.68,0-3.03,1.35-3.03,3.02
		C36.56,25.8,37.92,27.16,39.59,27.16z"/>
	<path fill="#FFFFFF" d="M32.01,27.16c1.68,0,3.03-1.35,3.03-3.02c0-1.68-1.36-3.03-3.03-3.03c-1.68,0-3.03,1.35-3.03,3.02
		C28.98,25.8,30.33,27.16,32.01,27.16z"/>
	<circle fill="#FFFFFF" cx="24.41" cy="16.26" r="3.03"/>
	<path fill="#FFFFFF" d="M32.01,19.29c1.68,0,3.03-1.36,3.03-3.03c0-1.68-1.36-3.03-3.03-3.03c-1.68,0-3.03,1.36-3.03,3.03
		C28.98,17.93,30.33,19.29,32.01,19.29z"/>
	<path fill="#FFFFFF" d="M32,0C14.33,0,0,14.33,0,32s14.33,32,32,32s32-14.33,32-32S49.67,0,32,0z M62.23,38.93H50.07
		c-0.4-1.21-1.53-2.08-2.88-2.08s-2.48,0.87-2.89,2.08h-1.83c-0.4-1.21-1.54-2.08-2.88-2.08c-1.34,0-2.48,0.87-2.88,2.08h-1.83
		c-0.4-1.21-1.53-2.08-2.88-2.08c-1.35,0-2.48,0.87-2.86,2.07h-1.83c-0.4-1.21-1.53-2.08-2.88-2.08c-1.68,0-3.03,1.36-3.03,3.03
		c0,1.68,1.36,3.03,3.03,3.03c1.34,0,2.48-0.87,2.88-2.08h1.83c0.4,1.21,1.54,2.08,2.88,2.08s2.48-0.87,2.88-2.08h1.83
		c0.4,1.21,1.54,2.08,2.88,2.08c1.34,0,2.48-0.87,2.88-2.08h1.83c0.4,1.21,1.54,2.08,2.88,2.08c1.34,0,2.48-0.87,2.88-2.08h11.66
		C57.94,53.64,46.07,63,32.01,63c-10.99,0-20.62-5.71-26.14-14.31h8.07c0.4,1.21,1.54,2.08,2.88,2.08c1.34,0,2.48-0.87,2.88-2.08
		h1.83c0.4,1.21,1.53,2.08,2.88,2.08c1.34,0,2.48-0.87,2.88-2.08h1.83c0.4,1.21,1.54,2.08,2.88,2.08s2.48-0.87,2.88-2.08h1.83
		c0.4,1.21,1.53,2.08,2.88,2.08c1.68,0,3.03-1.36,3.03-3.03c0-1.68-1.36-3.03-3.03-3.03c-1.34,0-2.48,0.87-2.88,2.08h-1.83
		c-0.4-1.21-1.54-2.08-2.88-2.08s-2.48,0.87-2.88,2.08h-1.83c-0.4-1.21-1.54-2.08-2.88-2.08c-1.34,0-2.48,0.87-2.88,2.08H19.7
		c-0.4-1.21-1.54-2.08-2.88-2.08c-1.34,0-2.48,0.87-2.88,2.08H4.75C2.36,42.39,1,37.36,1,32c0-2.29,0.25-4.5,0.72-6.66h12.34
		c0.47,1.07,1.53,1.81,2.77,1.81c1.68,0,3.02-1.35,3.02-3.02c0-1.68-1.36-3.03-3.03-3.03c-1.44,0-2.64,1.01-2.95,2.35H2.19
		C5.9,10.49,17.85,1,32.01,1c10.98,0,20.62,5.71,26.13,14.31h-8.07c-0.4-1.21-1.53-2.08-2.88-2.08c-1.68,0-3.03,1.36-3.03,3.03
		c0,1.68,1.36,3.03,3.03,3.03c1.34,0,2.48-0.87,2.88-2.08h9.19c2.26,4.14,3.58,8.84,3.74,13.84H50.07c-0.4-1.21-1.54-2.08-2.88-2.08
		c-1.34,0-2.48,0.87-2.88,2.08h-1.83c-0.4-1.21-1.54-2.08-2.88-2.08s-2.48,0.87-2.88,2.08H34.9c-0.4-1.21-1.53-2.08-2.88-2.08
		c-1.68,0-3.03,1.36-3.03,3.03c0,1.68,1.36,3.03,3.03,3.03c1.34,0,2.48-0.87,2.88-2.08h1.83c0.4,1.21,1.54,2.08,2.88,2.08
		s2.48-0.87,2.88-2.08h1.83c0.4,1.21,1.53,2.08,2.88,2.08s2.48-0.87,2.89-2.08H63C62.93,35,62.67,37,62.23,38.93z"/>
	<path fill="#FFFFFF" d="M16.82,13.23c-1.68,0-3.03,1.36-3.03,3.03c0,1.68,1.36,3.03,3.03,3.03c1.68,0,3.03-1.36,3.03-3.03
		C19.85,14.58,18.5,13.23,16.82,13.23z"/>
	<circle fill="#FFFFFF" cx="24.41" cy="32" r="3.03"/>
	<path fill="#FFFFFF" d="M24.41,21.09c-1.68,0-3.03,1.36-3.03,3.03c0,1.68,1.36,3.03,3.03,3.03c1.68,0,3.03-1.36,3.03-3.03
		C27.45,22.45,26.09,21.09,24.41,21.09z"/>
	<path d="M47.19,35.03c-1.35,0-2.48-0.87-2.88-2.08h-1.83c-0.4,1.21-1.54,2.08-2.88,2.08s-2.48-0.87-2.88-2.08H34.9
		c-0.4,1.21-1.54,2.08-2.88,2.08c-1.68,0-3.03-1.36-3.03-3.03c0-1.68,1.36-3.03,3.03-3.03c1.35,0,2.48,0.87,2.88,2.08h1.83
		c0.4-1.21,1.54-2.08,2.88-2.08s2.48,0.87,2.88,2.08h1.83c0.4-1.21,1.54-2.08,2.88-2.08c1.34,0,2.48,0.87,2.88,2.08H63
		c-0.16-5-1.48-9.71-3.74-13.84h-9.19c-0.4,1.21-1.54,2.08-2.88,2.08c-1.68,0-3.03-1.36-3.03-3.03c0-1.68,1.36-3.03,3.03-3.03
		c1.35,0,2.48,0.87,2.88,2.08h8.07C52.63,6.71,42.99,1,32.01,1C17.85,1,5.9,10.49,2.19,23.46h11.67c0.31-1.35,1.51-2.35,2.95-2.35
		c1.68,0,3.03,1.36,3.03,3.03c0,1.68-1.35,3.02-3.02,3.02c-1.24,0-2.31-0.75-2.77-1.81H1.72C1.25,27.5,1,29.71,1,32
		c0,5.36,1.36,10.39,3.75,14.79h9.19c0.4-1.21,1.54-2.08,2.88-2.08c1.34,0,2.48,0.87,2.88,2.08h1.83c0.4-1.21,1.54-2.08,2.88-2.08
		c1.34,0,2.48,0.87,2.88,2.08h1.83c0.4-1.21,1.54-2.08,2.88-2.08s2.48,0.87,2.88,2.08h1.83c0.4-1.21,1.54-2.08,2.88-2.08
		c1.68,0,3.03,1.36,3.03,3.03c0,1.68-1.36,3.03-3.03,3.03c-1.35,0-2.48-0.87-2.88-2.08h-1.83c-0.4,1.21-1.54,2.08-2.88,2.08
		s-2.48-0.87-2.88-2.08h-1.83c-0.4,1.21-1.54,2.08-2.88,2.08c-1.35,0-2.48-0.87-2.88-2.08H19.7c-0.4,1.21-1.54,2.08-2.88,2.08
		c-1.34,0-2.48-0.87-2.88-2.08H5.87C11.39,57.29,21.02,63,32.01,63c14.06,0,25.93-9.36,29.73-22.18H50.08
		c-0.4,1.21-1.54,2.08-2.88,2.08c-1.34,0-2.48-0.87-2.88-2.08h-1.83c-0.4,1.21-1.54,2.08-2.88,2.08c-1.34,0-2.48-0.87-2.88-2.08
		h-1.83c-0.4,1.21-1.54,2.08-2.88,2.08s-2.48-0.87-2.88-2.08h-1.83c-0.4,1.21-1.54,2.08-2.88,2.08c-1.68,0-3.03-1.36-3.03-3.03
		c0-1.68,1.36-3.03,3.03-3.03c1.35,0,2.48,0.87,2.88,2.08h1.83c0.38-1.2,1.51-2.07,2.86-2.07c1.35,0,2.48,0.87,2.88,2.08h1.83
		c0.4-1.21,1.54-2.08,2.88-2.08c1.34,0,2.48,0.87,2.88,2.08h1.83c0.41-1.21,1.54-2.08,2.89-2.08s2.48,0.87,2.88,2.08h12.17
		C62.67,37,62.93,35,63,32.95H50.08C49.67,34.16,48.54,35.03,47.19,35.03z M16.82,42.9c-1.68,0-3.03-1.36-3.03-3.03
		c0-1.68,1.36-3.03,3.03-3.03c1.68,0,3.03,1.36,3.03,3.03C19.86,41.54,18.5,42.9,16.82,42.9z M16.82,35.03
		c-1.68,0-3.03-1.36-3.03-3.03c0-1.68,1.36-3.03,3.03-3.03c1.68,0,3.03,1.36,3.03,3.03S18.5,35.03,16.82,35.03z M47.19,44.71
		c1.68,0,3.03,1.36,3.03,3.03c0,1.68-1.36,3.03-3.03,3.03c-1.68,0-3.03-1.36-3.03-3.03C44.16,46.07,45.51,44.71,47.19,44.71z
		 M47.19,21.1c1.68,0,3.03,1.36,3.03,3.03c0,1.68-1.36,3.02-3.03,3.02c-1.68,0-3.03-1.36-3.03-3.03
		C44.16,22.45,45.51,21.1,47.19,21.1z M39.59,13.23c1.68,0,3.03,1.36,3.03,3.03c0,1.68-1.36,3.03-3.03,3.03
		c-1.68,0-3.03-1.36-3.03-3.03C36.56,14.58,37.92,13.23,39.59,13.23z M39.59,21.1c1.68,0,3.03,1.36,3.03,3.03
		c0,1.68-1.36,3.02-3.03,3.02c-1.68,0-3.03-1.36-3.03-3.03C36.56,22.45,37.92,21.1,39.59,21.1z M32.01,13.23
		c1.68,0,3.03,1.36,3.03,3.03c0,1.68-1.36,3.03-3.03,3.03c-1.68,0-3.03-1.36-3.03-3.03C28.98,14.58,30.33,13.23,32.01,13.23z
		 M16.82,19.29c-1.68,0-3.03-1.36-3.03-3.03c0-1.68,1.36-3.03,3.03-3.03c1.68,0,3.03,1.36,3.03,3.03
		C19.85,17.93,18.5,19.29,16.82,19.29z M24.41,35.03c-1.68,0-3.03-1.36-3.03-3.03c0-1.68,1.36-3.03,3.03-3.03
		c1.68,0,3.03,1.36,3.03,3.03S26.09,35.03,24.41,35.03z M24.41,27.16c-1.68,0-3.03-1.36-3.03-3.03c0-1.68,1.36-3.03,3.03-3.03
		c1.68,0,3.03,1.36,3.03,3.03C27.45,25.8,26.09,27.16,24.41,27.16z M24.41,19.29c-1.68,0-3.03-1.36-3.03-3.03
		c0-1.68,1.36-3.03,3.03-3.03c1.68,0,3.03,1.36,3.03,3.03C27.45,17.93,26.09,19.29,24.41,19.29z M32.01,21.1
		c1.68,0,3.03,1.36,3.03,3.03c0,1.68-1.36,3.02-3.03,3.02c-1.68,0-3.03-1.36-3.03-3.03C28.98,22.45,30.33,21.1,32.01,21.1z"/>
</svg>