<svg xmlns="http://www.w3.org/2000/svg" width="407" height="405" viewBox="0 0 407 405" fill="none"><g clip-path="url(#a)"><path fill="#000" d="M406.88 202.69v-.01c0-1.1.01-2.2 0-3.31v-.11c0-.88-.02-1.73-.03-2.57-.03-1.52-.07-2.98-.14-4.37v-.09c-.05-1.15-.1-2.3-.17-3.43-.07-1.14-.15-2.28-.23-3.47a195 195 0 0 0-1.07-10.39v-.08c-.1-.76-.2-1.5-.3-2.24a174 174 0 0 0-.72-4.74 243 243 0 0 0-.92-5.23c-.05-.27-.1-.53-.15-.79l-.18-.94c-.06-.3-.12-.59-.18-.88-.06-.27-.11-.54-.17-.8-.06-.29-.12-.57-.19-.86-.05-.23-.1-.46-.15-.68 0-.04-.02-.08-.03-.12 0-.02 0-.05-.01-.07-.01-.06-.02-.12-.04-.17-.23-.99-.45-1.99-.68-2.99-.04-.2-.1-.45-.18-.73 0-.04-.02-.08-.03-.11-.21-.87-.43-1.74-.66-2.66-.02-.06-.03-.12-.04-.18 0-.01 0-.03-.01-.04v-.01c0-.02-.01-.04-.02-.06-.54-2.16-1.15-4.4-1.82-6.66-.01-.04-.03-.09-.04-.13 0-.02-.01-.04-.02-.05 0-.01 0-.03-.01-.04l-.05-.18-.07-.22s-.01-.05-.02-.07v-.04c-.23-.75-.46-1.49-.68-2.23v-.02c-.02-.07-.04-.14-.07-.21-.23-.75-.46-1.5-.71-2.24-.05-.16-.1-.32-.16-.48 0-.01 0-.03-.01-.04-.07-.23-.15-.45-.23-.68l-.04-.13v-.02c-.02-.07-.05-.15-.07-.22-.12-.37-.25-.74-.37-1.11v-.03c-.11-.33-.22-.66-.34-1l-.02-.06-.07-.2c-.11-.32-.22-.65-.34-.98a.5.5 0 0 0-.04-.11c-.04-.11-.08-.21-.11-.32-.07-.21-.15-.42-.22-.63l-.04-.11-.23-.62-.54-1.48s0-.02-.01-.03c-.03-.08-.06-.16-.09-.25l-.2-.55c-.05-.14-.1-.28-.16-.41l-.05-.12s-.05-.12-.05-.14c-.18-.48-.37-.95-.56-1.45-.07-.18-.14-.36-.21-.53l-.03-.09c-.16-.41-.32-.81-.48-1.22 0-.01-.01-.03-.02-.04 0-.02-.02-.04-.02-.06-.24-.61-.48-1.21-.74-1.81-.01-.03-.03-.06-.04-.09s-.02-.06-.04-.09c0-.01-.01-.02-.02-.04 0-.01-.01-.03-.02-.04-.43-1.05-.88-2.1-1.33-3.14 0-.02-.02-.04-.03-.06l-.03-.06c-.21-.48-.43-.97-.65-1.46-.27-.62-.54-1.24-.83-1.86-.08-.18-.16-.36-.25-.53-.19-.44-.4-.87-.6-1.3-.16-.36-.34-.73-.51-1.09-.1-.22-.2-.43-.31-.64l-.09-.18-.57-1.18s-.03-.06-.05-.09l-.05-.11-.48-.96c-.15-.3-.29-.59-.44-.88q-.435-.885-.9-1.77c-.09-.17-.18-.35-.27-.52-.06-.11-.11-.22-.17-.33-.04-.07-.08-.15-.12-.22 0-.01-.01-.02-.02-.04 0-.01-.01-.02-.02-.04s-.03-.05-.04-.07l-.51-.96-.02-.04s-.03-.05-.04-.08c-.08-.14-.15-.29-.23-.43-.24-.46-.5-.93-.75-1.39-.03-.05-.06-.11-.09-.17v-.01c-.04-.08-.07-.13-.11-.2s-.08-.16-.12-.22a43 43 0 0 0-.65-1.16c-.06-.1-.11-.2-.17-.3-.09-.16-.16-.3-.23-.42-.13-.24-.27-.49-.41-.73l-.13-.22c-.05-.09-.09-.15-.14-.25l-.05-.09c-.06-.11-.12-.22-.19-.33a1 1 0 0 1-.06-.1 309 309 0 0 0-2.91-4.89c-.07-.13-.16-.26-.23-.39-.06-.1-.11-.19-.17-.29-.23-.37-.46-.74-.7-1.11-.06-.1-.14-.23-.24-.38-.06-.1-.13-.2-.19-.3-.05-.07-.09-.14-.14-.22-.23-.38-.47-.76-.72-1.12l-.37-.57c-.31-.49-.63-.98-.95-1.45-.01-.02-.03-.04-.04-.06-.08-.13-.17-.27-.27-.41-.18-.27-.36-.54-.55-.82 0 0-.01-.02-.02-.03-.05-.07-.1-.14-.14-.22-.04-.06-.08-.12-.12-.17-.08-.12-.16-.23-.24-.35-.06-.08-.11-.17-.17-.25-.16-.24-.33-.49-.5-.73-.01-.02-.03-.04-.04-.06-.02-.04-.05-.07-.07-.11-.25-.36-.49-.72-.75-1.08l-.09-.12-.29-.41c-.03-.04-.05-.08-.08-.12l-.64-.91-.14-.2-.82-1.12-.09-.12s-.05-.08-.08-.11v-.01c-.23-.33-.47-.65-.71-.98 0 0 0-.01-.01-.02-.21-.29-.42-.57-.63-.85l-.3-.4c-.3-.42-.62-.83-.93-1.24l-.1-.13-.02-.02-.01-.01c-.77-1-1.55-2.01-2.35-3.04-.47-.59-.93-1.17-1.41-1.76l-.1-.13s-.03-.03-.04-.05c-.2-.25-.4-.5-.6-.73l-.54-.66-.14-.17c-.2-.24-.39-.48-.59-.72-.09-.12-.19-.23-.29-.35l-.15-.18c-.11-.13-.22-.27-.33-.4l-.01-.01c-.01-.02-.03-.03-.04-.05 0-.01-.02-.02-.03-.03-.21-.25-.41-.49-.62-.73a4 4 0 0 1-.23-.28c-.05-.06-.1-.12-.16-.18-.17-.19-.33-.38-.5-.58l-.05-.05c-.12-.15-.24-.28-.33-.38-.6-.7-1.22-1.4-1.84-2.08-.18-.21-.36-.42-.54-.61-.04-.04-.07-.08-.11-.12-.35-.39-.7-.78-1.06-1.16-.22-.25-.45-.49-.67-.73-.38-.41-.76-.82-1.1-1.17a.4.4 0 0 1-.06-.07l-.06-.06c-.18-.19-.36-.39-.55-.58-.15-.16-.3-.32-.46-.48-.13-.14-.26-.27-.39-.4-.06-.07-.13-.14-.19-.2l-.08-.08-.92-.96s-.09-.09-.13-.14l-.14-.14-.55-.55c-.6-.61-1.2-1.22-1.82-1.82-.04-.04-.08-.07-.12-.11l-.01-.01-.03-.03c-.1-.1-.21-.2-.31-.3l-.11-.11-.02-.02c-.98-.96-1.97-1.91-2.99-2.86l-1.64-1.52c-.63-.58-1.25-1.13-1.86-1.68-1.26-1.12-2.47-2.19-3.68-3.21-.08-.07-.17-.14-.25-.21l-1.32-1.11c-.38-.32-.76-.62-1.14-.94-.34-.28-.68-.56-1.02-.83l-.22-.18c-.45-.37-.91-.75-1.34-1.08a218 218 0 0 0-7.07-5.37l-.57-.41c-.43-.31-.87-.62-1.25-.89-1.72-1.22-3.5-2.44-5.45-3.72q-1.11-.75-2.25-1.47l-.17-.11c-.67-.43-1.34-.86-2.02-1.27-.57-.35-1.13-.7-1.63-1.01-1.58-.97-3.19-1.92-4.79-2.84-.77-.44-1.55-.88-2.34-1.33-.76-.42-1.53-.85-2.37-1.3-.08-.05-.17-.09-.25-.13l-.78-.42c-.16-.09-.32-.17-.48-.26-.29-.15-.57-.3-.86-.45-.16-.09-.33-.17-.49-.26-.28-.14-.54-.28-.8-.41-.15-.08-.3-.16-.45-.23-.39-.2-.76-.39-1.11-.56-.04-.02-.09-.04-.14-.06A204.6 204.6 0 0 0 235.86.29c-4.96-.8-9.92 1.45-12.59 5.71-11.24 17.96-18.96 37.36-23.19 57.31-4.08-17.29-10.81-34.05-20.14-49.76-1.23-2.07-2.54-4.17-4.01-6.41-2.8-4.29-7.94-6.43-12.96-5.41a203 203 0 0 0-57.81 21.31c-.24.13-.49.27-.73.42l-.09.05c-1.31.73-2.5 1.41-3.63 2.07-.12.07-.23.13-.34.2-.15.09-.3.18-.45.26-.09.05-.18.1-.26.16-.98.58-1.94 1.17-2.85 1.73-.45.27-.88.54-1.3.81-1.49.93-2.86 1.81-4.16 2.68-.21.14-.42.28-.63.41-.22.14-.44.29-.66.43l-.26.17c-.72.48-1.43.96-2.13 1.45-.17.11-.34.23-.5.35-.89.62-1.77 1.24-2.65 1.87-.43.3-.84.61-1.26.92-.26.19-.53.38-.79.58-.14.1-.27.2-.41.3-.41.3-.81.6-1.17.87a159 159 0 0 0-4.93 3.84c-.68.55-1.37 1.1-2.05 1.66-.23.18-.45.37-.66.55-.24.2-.49.41-.73.62-.68.56-1.35 1.13-2.02 1.71-.77.65-1.54 1.33-2.32 2.02l-.71.64c-.77.69-1.54 1.39-2.22 2.03-.86.79-1.7 1.59-2.54 2.39q-1.2 1.14-2.37 2.31l-.01.01c-.16.15-.3.29-.42.41-.67.67-1.34 1.35-2 2.02-.02.02-.1.11-.13.13-.63.65-1.26 1.31-1.88 1.97-.03.03-.06.05-.08.08-.17.18-.35.36-.52.56-.2.21-.4.42-.59.63-.38.4-.75.8-1.12 1.21-.03.03-.05.06-.08.08-.21.22-.42.45-.62.68-.1.11-.21.22-.31.34-.07.08-.15.17-.24.26-.11.12-.21.24-.32.36-.02.03-.05.06-.08.09 0 0-.02.02-.02.03-.34.38-.68.76-1.01 1.14a9 9 0 0 0-.51.58q-.51.57-.99 1.14c-.31.35-.61.7-.92 1.08-.18.21-.37.43-.54.64-.05.05-.09.1-.13.16l-.14.17c-.36.43-.72.86-1.07 1.29-.08.09-.16.19-.23.28-.08.09-.16.19-.23.28-.34.41-.68.82-1 1.23-.18.22-.36.44-.54.67l-.17.21c-.15.19-.31.38-.46.58q-.225.27-.45.57l-.12.15c-.31.4-.62.8-.93 1.19-.2.25-.38.49-.58.75l-.04.05q-1.065 1.38-2.1 2.79c-.05.07-.1.14-.16.22-.16.22-.32.45-.48.67-.22.31-.45.61-.67.92-.29.39-.58.8-.87 1.21l-.37.52-1.17 1.68c-.11.15-.22.31-.33.47-.35.51-.69 1.02-1.04 1.54-.17.26-.35.52-.52.78l-.25.37c-.05.08-.1.15-.15.23l-.24.38c-.36.54-.72 1.11-1.08 1.67-.76 1.18-1.51 2.37-2.26 3.59-.57.93-1.14 1.86-1.69 2.79-.06.1-.14.22-.22.36-.06.1-.11.2-.18.31-.16.28-.32.55-.48.83l-.2.35-.48.84-.08.14c-.05.08-.09.16-.14.25a209 209 0 0 0-1.51 2.7l-.33.63c-.27.49-.53.98-.79 1.47-.19.34-.38.7-.56 1.05 0 0-.01.02-.02.03-.08.16-.17.32-.26.5-.22.4-.43.82-.64 1.24l-.09.18c0 .02-.02.04-.03.05l-.15.29c-.16.31-.32.62-.48.94l-.05.1s-.05.09-.07.14c-.19.39-.39.78-.58 1.17-.15.3-.3.6-.44.91-.12.24-.23.47-.34.71 0 .02-.02.03-.02.05s-.02.04-.03.06c-.03.05-.05.1-.08.16-.02.03-.03.07-.05.11-.14.3-.29.59-.43.9-.29.61-.58 1.21-.85 1.83l-.27.6c-.16.34-.31.68-.47 1.03v.03s-.05.08-.07.13c-.27.59-.54 1.19-.8 1.79-.03.07-.06.13-.09.19 0 .01-.01.03-.02.04-.01.03-.02.05-.03.08-.33.76-.66 1.52-.99 2.3v.01c0 .01 0 .02-.01.03-.01.03-.03.06-.04.08 0 .02-.02.04-.02.06-.22.53-.44 1.05-.65 1.56-.67 1.63-1.28 3.15-1.83 4.6 0 .01 0 .02-.01.03-.03.09-.07.2-.12.32 0 .02-.01.03-.02.05-.34.89-.67 1.78-1 2.69-.14.4-.28.79-.42 1.18l-.08.23c-.03.08-.06.17-.09.25-.01.03-.03.1-.04.11 0 .01 0 .03-.01.04l-.29.8c-.06.17-.13.34-.18.51l-.94 2.79c-.23.68-.44 1.37-.66 2.06-.4 1.25-.79 2.49-1.15 3.74l-.04.12s0 .02-.01.03c-.01.04-.03.08-.04.12v.01c0 .02-.01.04-.02.06l-.16.56v.01c0 .02-.01.04-.02.06l-.06.18c-.02.06-.04.11-.05.17 0 .02-.01.04-.02.07-.01.04-.02.08-.03.11-.02.06-.03.12-.05.17 0 .02-.01.04-.02.06-.16.55-.32 1.1-.47 1.66l-.18.66s-.02.06-.02.09l-.2.72-.03.12c-.05.18-.1.36-.14.53l-.2.77c-.13.47-.23.96-.36 1.44q-.39 1.545-.78 3.12a230 230 0 0 0-1.53 6.9v.04q-.33 1.65-.63 3.27c0 .03 0 .05-.01.08a201 201 0 0 0-2.7 20.13v.04c-.05.63-.1 1.24-.15 1.85-.13 1.74-.23 3.36-.3 4.9-.06 1.12-.1 2.23-.15 3.45-.03 1.1-.06 2.21-.08 3.36-.02 1.1-.02 2.2-.02 3.34v.26c0 3.3.08 6.68.25 10.04 1.05 20.67 5.25 41 12.49 60.42 1.79 4.79 6.31 8.01 11.42 8.13 1.35.03 2.7.05 4.05.05 20.4 0 40.55-3.57 59.62-10.44a175.9 175.9 0 0 0-39.6 50.92 12.51 12.51 0 0 0 1.67 13.92 201.9 201.9 0 0 0 51.51 42.53c1.49.86 2.98 1.69 4.46 2.5.99.54 1.98 1.07 3.03 1.62.97.5 1.95 1.01 3.02 1.55 1.01.5 2.01.99 2.97 1.46.01 0 .03.01.04.02.03.02.07.03.1.05.77.37 1.57.75 2.39 1.14 1.17.54 2.39 1.1 3.69 1.68.09.04.18.07.27.11a203 203 0 0 0 18.77 7.17c1.02.33 2.04.66 3.11 1 .03 0 .06.02.09.03h.05c1.59.49 3.12.94 4.64 1.36.67.19 1.35.38 2.02.56 1.13.31 2.25.6 3.36.88.46.12.91.25 1.38.36l.69.17c.12.03.24.06.35.09l.18.04s.08.02.11.03l.73.17s.05.01.07.02l.69.16c.57.14 1.13.27 1.69.39h.02c.01 0 .03 0 .05.01.14.03.3.07.46.1.08.02.16.03.25.05.02 0 .04 0 .06.01l.18.04.46.1s.06.01.09.02c.02 0 .04 0 .06.01l.29.06 2.16.45c1.2.24 2.41.48 3.65.7l2.88.51.56.09.84.13h.19l.12.03.27.04c.43.07.86.14 1.32.21.9.14 1.82.27 2.73.39.09.02.19.02.28.04.03 0 .07 0 .1.01l.22.03c.04 0 .07.01.11.02l.14.02h.04l1.12.14c.49.06.99.13 1.43.18h.08c1.28.16 2.55.3 3.79.41h.04c.76.07 1.51.15 2.26.21h.05c.28.03.57.05.86.08h.04c.24.03.49.04.74.06h.32l1.62.12h.04c.77.06 1.55.1 2.32.15.13 0 .27.02.4.03h.16c.29.02.59.03.88.04.69.04 1.37.08 2.06.1h.21l1.38.06h.13c.48.02.96.03 1.41.04h.17c.61.02 1.22.04 1.83.04h.58c.69.01 1.38.03 2.06.03h1.54c.55 0 1.11 0 1.66-.02h.43c.26 0 .51 0 .75-.02h.87c.1 0 .21 0 .31-.01h.44c.1-.02.2-.02.3-.02.11 0 .22 0 .33-.01.11 0 .21 0 .32-.01.32 0 .65-.02.97-.03h.2c.91-.04 1.82-.07 2.73-.12.22 0 .43-.02.65-.03.82-.04 1.63-.09 2.44-.14l.46-.03h.11c1.27-.09 2.54-.18 3.82-.3a512 512 0 0 0 3.65-.35c.14-.02.29-.03.44-.04.24-.02.47-.05.71-.08.14-.02.29-.03.44-.05l.26-.03.3-.03h.07c.18-.02.34-.04.51-.06.03 0 .07 0 .1-.01l.52-.06c.62-.08 1.24-.15 1.85-.23.33-.04.65-.08.97-.13.44-.06.89-.12 1.33-.19.29-.04.59-.08.9-.13.39-.05.77-.11 1.18-.18.04 0 .09-.01.13-.02.26-.04.53-.08.76-.12.6-.1 1.22-.2 1.83-.3.34-.05.67-.11 1.01-.17l.27-.05s.09-.02.11-.02c.38-.07.76-.13 1.13-.2.55-.09 1.09-.19 1.64-.31.56-.1 1.11-.22 1.66-.32.33-.06.66-.13.99-.19.3-.06.6-.12.9-.19.99-.2 1.99-.42 2.98-.65.06-.01.12-.03.17-.04h.03c.07-.01.13-.03.2-.05l.78-.18c.03 0 .05-.01.08-.02.03 0 .06-.01.09-.02.15-.03.3-.07.44-.1.39-.09.77-.18 1.16-.28.07-.02.14-.03.21-.05.03 0 .06-.01.08-.02.1-.02.2-.05.3-.07.07-.02.15-.03.21-.05.02 0 .05-.01.07-.02l.48-.12c.03 0 .06-.01.09-.02.76-.18 1.51-.38 2.26-.57h.01l.59-.15h-.05c.11-.02.23-.04.34-.08q.705-.18 1.41-.39c.09-.03.18-.05.27-.07l1.26-.35.11-.03c.91-.26 1.82-.52 2.73-.79.17-.05.36-.11.58-.18 1.05-.31 2.11-.64 3.15-.98 1.11-.35 2.21-.71 3.25-1.06.97-.32 1.95-.66 2.89-.99l.96-.34c.95-.34 1.91-.69 2.86-1.06.66-.24 1.32-.5 1.97-.76.13-.05.27-.1.4-.15.34-.13.68-.26 1.02-.4.16-.06.32-.13.48-.19.09-.04.18-.07.28-.11.43-.17.87-.35 1.31-.53 1.34-.55 2.75-1.15 4.28-1.81.86-.37 1.71-.75 2.56-1.14.46-.2.91-.41 1.36-.62a6 6 0 0 0 .43-.2c.77-.35 1.54-.72 2.31-1.09.9-.43 1.78-.87 2.68-1.31.08-.04.15-.07.23-.11.09-.04.18-.09.28-.14.09-.05.19-.09.28-.14.77-.38 1.53-.78 2.29-1.17.1-.05.19-.1.28-.15.45-.23.9-.47 1.36-.72 1.79-.93 3.64-1.96 5.63-3.1q1.47-.84 2.94-1.71c.35-.21.7-.42 1.06-.64 1.1-.67 2.27-1.39 3.54-2.19l.08-.05c.24-.15.48-.29.73-.45a203 203 0 0 0 46.38-40.55c3.3-3.92 3.88-9.46 1.45-13.97a175.8 175.8 0 0 0-39.77-49.76 177 177 0 0 0 52.15 7.87c3.94 0 7.88-.13 11.82-.4 5.02-.34 9.35-3.65 10.98-8.4 6.8-19.75 10.53-40.32 11.09-61.14.01-.49.01-.98.02-1.48 0-.53.02-1.07.03-1.63v-.41zM338.69 84.58c.44.51.88 1.02 1.31 1.53.03.04.07.08.1.12.58.69 1.16 1.39 1.72 2.09.07.08.14.18.22.27.02.02.04.04.05.07.44.54.86 1.07 1.27 1.58.71.91 1.42 1.82 2.12 2.74.39.5.76 1.01 1.13 1.52 0 0 .01.01.01.02l.08.1c.3.4.6.8.89 1.22.07.1.14.2.22.3.05.08.11.15.17.23.36.48.7.97 1.05 1.47l.33.46s.01.02.02.02l.11.16c.22.32.45.64.67.96.07.1.14.2.21.29.04.06.08.12.13.19.04.06.08.11.12.17l.17.25.22.34c.24.35.48.7.7 1.05a15 15 0 0 0 .36.53c.06.09.11.18.17.26.28.42.57.85.85 1.3l.45.71c.06.09.12.19.18.28.04.06.08.13.12.19.08.14.19.31.28.45l.14.21c.1.16.19.32.3.47.04.07.08.13.13.2.18.28.35.55.52.83a.3.3 0 0 1 .04.08c.05.09.11.18.16.27.48.78.96 1.57 1.43 2.35.42.7.83 1.41 1.24 2.12 0 .02.02.03.03.05.07.13.15.27.23.4l.02.04c.18.3.34.59.5.89.04.07.08.15.13.23.06.11.12.21.18.32.23.4.46.8.67 1.2.06.1.12.22.18.33.02.04.05.09.07.13.06.12.13.23.18.33.09.19.19.37.29.55.03.05.06.11.09.17.18.32.35.64.52.96l.12.22s.03.07.05.1c.15.29.3.57.45.86.06.12.12.24.19.36 0 0 0 .01.01.02l.1.21s.05.09.07.13c.23.43.45.86.66 1.3.03.07.07.14.1.21.09.18.19.36.28.55l.09.18c.37.75.74 1.49 1.1 2.25l.03.05s0 .02.01.03c.08.18.16.35.25.52.1.2.2.4.29.6.06.14.12.27.19.41l.39.84c.11.24.22.48.34.72-.01-.03-.02-.05-.03-.07-.02-.04-.04-.07-.04-.07.04.08.07.16.11.25.22.46.42.93.62 1.39.04.1.09.2.14.3.17.36.32.71.47 1.06 0 .01.01.03.02.04 0 .01.01.03.02.04.15.35.3.71.45 1.07.25.58.49 1.15.73 1.73.06.15.11.29.18.44.36.84.69 1.67 1.02 2.52.04.09.07.19.11.28v.01c.02.04.03.08.05.13.07.18.13.35.2.53a37.27 37.27 0 0 1-29.19-18.15 37.31 37.31 0 0 1-2.07-34.06zm-30.27-27.93c1.17.85 2.37 1.75 3.61 2.7.83.64 1.68 1.3 2.57 2 .31.24.62.5.93.75l.31.25s.08.07.13.1c.6.48 1.21.98 1.8 1.48l.1.08c.38.31.76.62 1.12.94.05.04.09.08.14.12.39.33.79.68 1.18 1.02-12.45 19.49-13.22 44.8-1.05 65.3 11.44 19.27 31.99 30.5 53.53 30.5 1.58 0 3.16-.07 4.75-.19 0 .03.01.06.02.09.06.27.13.55.19.82v.04l.03.16c.15.68.29 1.33.42 1.98.29 1.42.56 2.79.81 4.13.19 1.01.35 2.02.53 3.06 0 .04.01.08.02.13.1.58.19 1.17.28 1.76.11.75.23 1.52.34 2.31.09.62.17 1.24.25 1.88.13 1.01.25 2.04.37 3.06a175 175 0 0 1 .93 12.13v.06l.06 1.73v.06c-36.57 3.44-72.4-14.45-91.46-46.55-18.9-31.82-17.6-71.62 2.54-102.01.37.22.75.43 1.13.66.21.12.42.24.63.37.59.35 1.18.71 1.78 1.08.08.05.16.09.24.14.49.3.98.6 1.47.91.04.02.08.05.12.07.51.31 1.02.63 1.52.96l.17.11c.62.39 1.23.79 1.83 1.19.05.03.1.07.15.1 1.72 1.13 3.28 2.2 4.81 3.29l1.71 1.22zM82.19 70.04c.61-.57 1.23-1.14 1.9-1.73l.62-.55c.65-.58 1.31-1.16 1.97-1.72.04-.04.09-.08.13-.12.51-.44 1.02-.88 1.54-1.31.09-.07.17-.14.26-.22.17-.15.34-.3.52-.44l.39-.33.06-.05s.06-.05.09-.08c.62-.51 1.24-1.01 1.9-1.54 1.34-1.08 2.72-2.16 4.31-3.35.29-.22.57-.44.87-.65.18-.13.37-.27.55-.41.55-.41 1.1-.81 1.67-1.22l.1-.07c.78-.57 1.57-1.12 2.37-1.68.11-.07.21-.14.32-.22.57-.4 1.15-.79 1.73-1.18.18-.11.35-.23.52-.35.29-.2.59-.39.89-.59l.18-.12c.4-.27.82-.55 1.25-.82l.34-.22c.33-.21.67-.43 1.02-.65.06-.04.12-.07.17-.11.93 1.4 1.83 2.82 2.68 4.26 13.08 22.03 16.8 47.83 10.47 72.65S99.07 172.92 77.04 186c-15.98 9.49-33.79 14.04-52.05 13.41v-1.14c.02-1.03.05-2.06.07-3 .04-1 .08-1.99.13-2.98v-.07c.09-1.79.22-3.74.39-5.95.05-.63.12-1.26.18-1.89.08-.85.15-1.69.25-2.54.01-.1.03-.21.04-.31.15-1.38.32-2.76.5-4.13.4-2.96.87-5.92 1.41-8.86.17-.93.35-1.84.53-2.75 10.97-.07 21.8-3.04 31.35-8.71 14.3-8.49 24.44-22.05 28.55-38.16 4.11-16.12 1.69-32.87-6.8-47.17-.15-.25-.32-.5-.47-.75.33-.31.67-.63 1.03-.96zm-35.07 65.55c-3.54 2.1-7.37 3.58-11.34 4.42.15-.43.31-.85.47-1.28.18-.49.36-.99.54-1.48.03-.08.07-.16.1-.24.31-.81.62-1.61.95-2.42.41-1.04.84-2.06 1.28-3.11.27-.63.53-1.25.8-1.87 0 0 0-.02.01-.03.06-.12.11-.24.16-.36.07-.16.14-.32.21-.47l.33-.75c.07-.16.14-.32.22-.49l.05-.12c.1-.23.2-.46.31-.68.04-.08.08-.17.11-.25l.11-.25c.06-.12.11-.23.16-.35 0-.02.01-.03.02-.04l.04-.08c.08-.16.15-.31.23-.47.21-.46.42-.91.64-1.36.08-.16.16-.33.23-.5.05-.09.08-.18.13-.28l.22-.44c.06-.12.12-.25.18-.38.03-.07.06-.13.1-.19.05-.11.11-.21.16-.32l.06-.12c.05-.1.11-.21.16-.31a70 70 0 0 1 .88-1.73c.01-.03.03-.05.04-.08 0 0 .01-.04.02-.05.03-.05.06-.11.08-.16.14-.27.28-.55.42-.81.08-.15.17-.33.25-.48l.06-.12c.07-.12.13-.24.19-.37.05-.1.1-.2.16-.29.07-.12.14-.25.2-.37.21-.4.42-.8.64-1.19.04-.07.08-.15.12-.22l.33-.62c.4-.72.8-1.44 1.22-2.18l.82-1.43c.15-.26.3-.52.45-.77.03-.05.06-.1.08-.14.06-.1.13-.21.19-.31.48-.83.99-1.66 1.51-2.5.97-1.59 1.96-3.15 2.93-4.62l.08-.12.85-1.28c.04-.05.07-.1.1-.16.31-.46.61-.92.93-1.37.03-.04.06-.08.07-.1.04-.06.08-.11.12-.17.36-.53.73-1.05 1.1-1.57l.37-.53c.2-.29.41-.58.62-.86.04-.06.08-.11.12-.17.35-.5.71-.98 1.07-1.48l.17-.23c.22-.3.45-.6.67-.9.34-.45.68-.9 1.04-1.37l.28-.37c.06-.07.11-.14.17-.22.33-.42.66-.85.99-1.27v-.01c6.05 16.51-.32 35.55-15.98 44.85zm-20.59 88.83c.49 0 .98.03 1.47.03 21.63 0 43.09-5.82 61.81-16.94 27.77-16.49 47.46-42.81 55.44-74.1s3.29-63.82-13.2-91.59c-.68-1.14-1.39-2.27-2.11-3.4 9.52-4.32 19.39-7.8 29.51-10.38 19.79 34.39 25.28 74.41 15.46 112.93-10 39.22-34.67 72.2-69.47 92.86-21.98 13.05-46.75 20.3-72.11 21.16a177 177 0 0 1-6.81-30.57zm201.16 153.39c-.09.01-.21.03-.3.04-.13.02-.26.03-.4.05-.05 0-.1.01-.15.02-.54.07-1.08.14-1.62.2l-.6.07s-.07 0-.11.01h-.04l-.2.03c-.14.01-.28.03-.36.04-.39.05-.78.09-1.17.13-.07 0-.15.02-.22.02-.38.04-.75.08-1.14.12-.05 0-.1 0-.15.01-.73.07-1.47.14-2.18.21-1.11.1-2.24.18-3.36.26l-.42.03c-.73.05-1.47.09-2.2.13h-.11c-.14 0-.27.01-.41.02-.77.05-1.54.08-2.36.1h-.33c-.18.02-.35.03-.53.03h-.32c-.73.03-1.47.04-2.21.05h-1c-.37.01-.75.02-1.12.02h-.43c-.76 0-1.52 0-2.29-.01h-.19c-.7 0-1.41-.01-2.11-.04h-.75c-.13 0-.26-.01-.38-.01-.54-.01-1.07-.02-1.61-.05-.11 0-.23 0-.34-.01h-.4c-.6-.02-1.19-.05-1.79-.09-.12 0-.21-.01-.3-.02-.47-.02-.95-.05-1.42-.08-.05 0-.1 0-.15-.01-.1 0-.2-.01-.29-.02-.66-.04-1.33-.08-1.99-.13-.07 0-.15-.01-.22-.02h-.06l-1.11-.09c-.19-.02-.38-.03-.56-.05l-.42-.03h-.1c-.67-.06-1.33-.12-1.96-.18q-1.485-.15-3-.33c-.99-.11-1.99-.25-2.98-.38-.06 0-.13-.02-.19-.02-.43-.06-.87-.13-1.3-.19-.53-.08-1.06-.15-1.58-.24a37.2 37.2 0 0 1 9.3-7.84c8.56-5.08 18.59-6.53 28.23-4.07 7.39 1.88 13.88 5.89 18.8 11.51-.2.03-.41.07-.61.1-.04 0-.08.01-.13.02q-.45.075-.93.15l-.69.11c-.31.05-.62.1-.94.14-.07 0-.14.02-.21.03-.13.02-.26.04-.39.05l-.46.06-1.02.15zm55.81-17.36c-.11.05-.21.1-.31.16-.88.44-1.75.87-2.63 1.29-.04.02-.07.04-.11.05-.62.3-1.23.59-1.84.87-.22.09-.43.19-.65.3-.32.16-.65.3-.99.46-.04.02-.08.04-.12.05-.7.32-1.39.63-2.13.95-1.85.81-3.48 1.49-4.96 2.08-.06.02-.12.05-.18.07l-.05.02c-.16.06-.32.12-.48.19-.11.04-.22.09-.28.12-.22.08-.44.16-.66.25-.62.25-1.25.49-1.88.72-.06.02-.11.04-.17.06-.81.31-1.64.61-2.44.9l-.85.3c-.79.28-1.59.56-2.46.85-.42.14-.84.27-1.26.41-.15-.25-.28-.51-.43-.76-8.49-14.3-22.05-24.44-38.16-28.55-16.12-4.11-32.87-1.69-47.17 6.8a62.2 62.2 0 0 0-22.65 23.36c-.89-.28-1.78-.56-2.68-.86-.45-.15-.89-.3-1.33-.45-.98-.33-1.95-.65-2.93-1-.18-.06-.36-.13-.54-.2-4.01-1.44-7.97-3.01-11.81-4.7-.03-.01-.06-.02-.09-.04-2.03-.91-3.81-1.73-5.44-2.51-.91-.44-1.82-.89-2.64-1.29-.92-.47-1.85-.94-2.7-1.39-.36-.19-.71-.38-1.06-.57 8.18-16.34 20.7-29.79 36.68-39.27 45.47-27 104.43-11.97 131.43 33.5.85 1.44 1.67 2.9 2.46 4.39-.08.04-.15.08-.23.13-.34.19-.67.37-1 .55-.12.07-.25.14-.37.2-.45.24-.89.48-1.33.71-.06.03-.12.07-.19.1q-.48.27-.96.51c-.18.09-.36.18-.53.28-.63.33-1.25.65-1.88.96m50.74-38.05c-7.11 7.66-14.9 14.65-23.24 20.94-.64-1.17-1.29-2.34-1.97-3.48-34.04-57.33-108.37-76.27-165.69-42.23-19.15 11.37-34.8 27.91-45.15 47.46a177.5 177.5 0 0 1-23.57-20.6c12.9-21.85 31.11-40.13 53.09-53.18 71.23-42.29 163.4-19.31 206.54 51.1zm-188.76-86.97c26.17-23.2 44.83-53.65 53.66-88.28.62-2.45 1.19-4.91 1.7-7.37a177.2 177.2 0 0 0 20.18 49.96c9.74 16.4 21.98 30.99 36.19 43.31-35.84-11.07-75.07-10.78-111.73 2.38m157.92-1.1c-25.26-12.98-46.31-32.81-60.88-57.36-27.66-46.58-28.38-103.54-2.39-150.58 10.32 2.17 20.39 5.25 30.13 9.18-23.64 37.93-24.66 86.63-1.42 125.77 22.06 37.15 61.96 59.2 104.03 59.2 2.64 0 5.29-.1 7.94-.27a179 179 0 0 1-6.14 30.87c-24.73.29-49.18-5.47-71.26-16.82z"/></g><defs><clipPath id="a"><path fill="#fff" d="M0 0h406.89v404.44H0z"/></clipPath></defs></svg>