<svg xmlns="http://www.w3.org/2000/svg" xml:space="preserve" width="24" height="24" viewBox="0 0 24 24" stroke-miterlimit="10"><path d="M4.048 8.869 c-0.898 -0.138 -1.706 -0.551 -2.348 -1.193 -0.663 -0.666 -1.059 -1.453 -1.198
-2.391 -0.054 -0.363 -0.035 -1.071 0.035 -1.43 0.34 -1.676 1.636 -2.97 3.33 -3.319 0.239 -0.049 0.333
-0.056 0.82 -0.056 0.483 0 0.584 0.007 0.818 0.054 1.673 0.34 2.96 1.61 3.321 3.281 0.082 0.373 0.103 1.083 0.047
1.47 -0.138 0.938 -0.534 1.727 -1.198 2.391 -0.656 0.656 -1.451 1.057 -2.37 1.195 -0.291 0.045 -0.973 0.042
-1.259 -0.002z m0.973 -3.553 c0.347 -0.162 0.558 -0.534 0.558 -0.989 0 -0.462 -0.19 -0.811 -0.527 -0.977
-0.258 -0.127 -0.633 -0.131 -0.884 -0.012 -0.6 0.286 -0.743 1.256 -0.26 1.774 0.197 0.211 0.384 0.281 0.734 0.272
0.209 -0.005 0.267 -0.016 0.38 -0.068z m2.201 -0.012 c0.516 -0.255 0.713 -0.982 0.42 -1.554 -0.075 -0.148 -0.27 -0.342
-0.412 -0.412 -0.241 -0.117 -0.637 -0.112 -0.893 0.014 -0.33 0.162 -0.525 0.52 -0.527 0.963 -0.002 0.502 0.239 0.888
0.645 1.034 0.096 0.033 0.176 0.042 0.368 0.037 0.225 -0.007 0.263 -0.014 0.401 -0.082z m-5.07 -0.375 l0.005 -0.405 0.284 0
c0.307 0 0.41 0.03 0.429 0.124 0.007 0.028 0.016 0.173 0.021 0.321 0.012 0.375 0.012 0.375 0.286 0.375 0.192 0 0.223 -0.005 0.223 -0.04
0 -0.021 -0.016 -0.059 -0.04 -0.082 -0.028 -0.033 -0.042 -0.112 -0.054 -0.342 -0.019 -0.345 -0.049 -0.427 -0.18 -0.495 l-0.087
-0.042 0.073 -0.037 c0.037 -0.021 0.103 -0.075 0.143 -0.12 0.202 -0.23 0.141 -0.659 -0.117 -0.83 l-0.096 -0.063 -0.666 -0.007
-0.663 -0.007 0 1.017 c0 0.558 0.007 1.024 0.016 1.034 0.009 0.009 0.108 0.012 0.218 0.009 l0.199 -0.007 0.007 -0.403z M4.432 5.006 c-0.37 -0.122 -0.518 -0.738 -0.277 -1.141 0.225 -0.373 0.755 -0.328 0.933 0.08
0.07 0.164 0.089 0.473 0.035 0.654 -0.096 0.333 -0.389 0.504 -0.691 0.408z M6.623 5.011 c-0.131 -0.035 -0.279 -0.19 -0.34 -0.354 -0.063 -0.173 -0.068 -0.471 -0.009 -0.652 0.084
-0.26 0.319 -0.417 0.577 -0.389 0.314 0.037 0.49 0.291 0.492 0.708 0 0.274 -0.059 0.441 -0.209 0.572 -0.148 0.129
-0.312 0.166 -0.511 0.115z M2.156 3.902 l0 -0.27 0.305 0 c0.349 0 0.424 0.023 0.466 0.143 0.035 0.101 0.033 0.171 -0.007 0.267
-0.045 0.105 -0.136 0.129 -0.487 0.129 l-0.277 0 0 -0.27z"/></svg>