<svg width="24" height="24" viewBox="0 0 24 24" fill="none"><path fill="#8d181b" d="M18.897 11.799c.54 0 .978.427.978.956a.967.967 0 0 1-.978.956.98.98 0 0 1-.909-.603h-2.79l-1.029 1.83c-.17.301-.634.212-.674-.13l-.231-1.955-.855 6.34c-.057.422-.688.403-.717-.022l-.701-10.25-.743 6.79c-.045.406-.64.427-.712.025l-.787-4.317-.363 1.422a.36.36 0 0 1-.349.267H4.485a.356.356 0 0 1-.36-.353c0-.195.161-.352.36-.352h3.27l.704-2.754c.095-.369.636-.35.705.024l.637 3.502.914-8.36c.047-.428.689-.416.718.013l.736 10.755.76-5.643c.056-.411.667-.407.716.006l.436 3.686.588-1.047a.36.36 0 0 1 .316-.182h3.003a.98.98 0 0 1 .909-.604"/></svg>