<svg width="24" height="24" viewBox="0 0 24 24" fill="none"><path fill="#384182" fill-rule="evenodd" d="M7.123 20.25 9.837 7.658l1.523 9.45zM9.89 7.586l4.123 9.532-2.582-.045zm.062-.072 5.4.767-1.251 8.837zm4.245 9.468 1.217-8.62.797 1.011zM15.334 8.2l-5.27-.75 4.746-1.56zm-5.295-.83 3.23-2.24 1.54.678zm-.08-.027.623-1.192 2.634-1.056zm.623-1.245.297-.93 2.17-.073-2.467 1.002m.28-1.003.7-.75 1.505.678zm.743-.794 1.05-.515 1.358 1.589zm1.2-.452 1.566.686-.28.848zm1.338 1.561.29-.866.35 1.192zm-1.452-1.66h1.146l.568.632a.036.036 0 0 1-.017.058.04.04 0 0 1-.023-.001zm1.812.722 2.332.651a.054.054 0 0 1 0 .105l-1.982.544z" clip-rule="evenodd"/></svg>