<svg width="24" height="24" viewBox="0 0 24 24" fill="none"><path fill="#48b254" fill-rule="evenodd" d="m17.01 5.151.71.644-8.95 5.108L4.44 8.41l.404-.805 3.928 2.233zm-1.8-1.026.95.483-7.39 4.224L5.33 6.88l.586-.703 2.855 1.629zm3.137 2.333.526.704L8.77 12.936 3.893 10.16l.222-.885 4.657 2.656zm1.457 2.595q.447 1.248.446 2.615 0 1.369-.445 2.655l-.203.543a8.4 8.4 0 0 1-1.761 2.615 8.1 8.1 0 0 1-2.633 1.73 8.13 8.13 0 0 1-6.437 0 8.5 8.5 0 0 1-2.612-1.73 7.9 7.9 0 0 1-1.761-2.615 8.2 8.2 0 0 1-.648-3.198v-.543l5.02 2.836 10.59-6.034z" clip-rule="evenodd"/></svg>