<svg width="32" height="32" viewBox="0 0 32 32" fill="none" xmlns="http://www.w3.org/2000/svg">
<path d="M21.6697 17.1522C21.633 17.1316 21.65 17.0808 21.6925 17.0822C22.8109 17.1861 23.3735 15.9964 23.5295 15.4358C24.1319 13.2585 21.8936 12.3563 21.172 12.1257C21.0511 12.0867 20.9885 11.9592 21.0217 11.8384L21.4972 10.0824C21.5338 9.95507 21.4617 9.83245 21.3343 9.79584L20.8527 9.66265C20.7253 9.62605 20.59 9.69309 20.5542 9.82067L20.084 11.5755C20.0489 11.7033 19.9112 11.7639 19.7837 11.7306L18.6426 11.4249C18.515 11.389 18.4512 11.2727 18.4843 11.1461L18.9596 9.38761C18.9954 9.26003 18.9204 9.13001 18.793 9.0934L18.3119 8.96119C18.1845 8.92458 18.0543 9.00043 18.0177 9.1278L17.5376 10.8701C17.501 10.9975 17.364 11.0831 17.2374 11.05L16.6681 10.8925L15.0689 10.464C14.9416 10.4274 14.8074 10.4749 14.7715 10.6025L14.6246 11.1754C14.5888 11.303 14.6657 11.4261 14.7931 11.4627L16.068 11.8151C16.1953 11.8517 16.2679 11.9819 16.2346 12.1093L14.3032 19.2772C14.2666 19.4046 14.0911 19.4642 13.9635 19.4316L12.8578 19.1263C12.7487 19.0954 12.6325 19.1469 12.5808 19.2504L12.2879 19.8437C12.2215 19.9772 12.3134 20.1712 12.4558 20.2102L14.5506 20.7748C14.678 20.8114 14.7403 20.9273 14.7072 21.054L14.2008 22.9347C14.1642 23.062 14.2401 23.1923 14.3674 23.2289L14.8491 23.362C14.9764 23.3987 15.1344 23.3303 15.1703 23.2027L15.6697 21.3201C15.7063 21.1927 15.826 21.1132 15.9534 21.1466L17.0104 21.4331C17.1378 21.4697 17.213 21.6055 17.1799 21.7322L16.6747 23.6174C16.6381 23.7447 16.7028 23.8736 16.8296 23.9093L17.3112 24.0424C17.4386 24.079 17.5725 23.9893 17.6091 23.862L18.1061 22.0134C18.1418 21.8833 18.2909 21.8018 18.4184 21.8409C19.3335 22.1175 21.784 22.8014 22.8807 20.531C23.8486 18.5285 22.323 17.4867 21.6712 17.1526L21.6697 17.1522ZM18.0739 12.7269C18.1528 12.6208 18.2712 12.5459 18.3926 12.5677C22.1398 13.2511 21.367 15.0927 21.367 15.0927C20.8425 16.9884 18.233 16.0561 17.5008 15.7508C17.3916 15.705 17.3317 15.5832 17.3195 15.456L18.0747 12.7271L18.0739 12.7269ZM20.7881 19.5017C20.2547 21.4305 17.1047 20.3965 16.2727 20.0876C16.1576 20.0452 16.1174 19.9608 16.1515 19.8427L16.9413 16.8554C16.9746 16.737 17.093 16.6622 17.2137 16.6837C21.6551 17.4747 20.7873 19.5015 20.7873 19.5015L20.7881 19.5017Z" fill="white"/>
<path d="M13.8982 16.5985L13.9732 16.3186C14.222 15.3903 13.8067 14.6609 12.8884 14.4148L10.1011 13.668C9.83973 13.5979 9.7568 13.4633 9.8225 13.2181L9.8915 12.9606C9.94295 12.7686 10.1923 12.6586 10.3596 12.7034L14.5555 13.8277L14.8632 12.6796L10.6672 11.5553C9.78127 11.3179 9.02386 11.7637 8.78276 12.6635L8.71375 12.921C8.45613 13.8825 8.84813 14.5784 9.78956 14.8307L12.5776 15.5777C12.8475 15.65 12.9303 15.7788 12.8652 16.0217L12.7902 16.3016C12.7388 16.4936 12.4856 16.6026 12.3152 16.5569L8.11311 15.431L7.80342 16.5868L12.0056 17.7127C12.8953 17.9511 13.6564 17.5039 13.899 16.5987L13.8982 16.5985Z" fill="white"/>
</svg>
