<svg width="19" height="19" viewBox="0 0 19 19" fill="none"><path fill="#89395b" d="M9.477 19a9.52 9.52 0 0 0 7.101-3.168 2.264 2.264 0 0 0-2.898-.05l-.164.132a3.823 3.823 0 0 1-5.239-.43 2.037 2.037 0 0 0-2.843-.187L3.53 16.922A9.5 9.5 0 0 0 9.477 19m3.085-4.602a4.05 4.05 0 0 1 5.075.004A9.46 9.46 0 0 0 19 9.5a9.4 9.4 0 0 0-1.668-5.371 2.26 2.26 0 0 0-1.969.52l-.156.14a3.82 3.82 0 0 1-5.254-.187 2.043 2.043 0 0 0-2.851-.059L4.89 6.621 3.67 5.328l2.216-2.074a3.815 3.815 0 0 1 5.336.11 2.04 2.04 0 0 0 2.804.097l.157-.14a4.06 4.06 0 0 1 1.66-.884A9.5 9.5 0 0 0 9.477 0C4.64 0 .648 3.594.035 8.25a3.91 3.91 0 0 1 4.477.79 2.124 2.124 0 0 0 2.824.19l1.238-.964a4.124 4.124 0 0 1 5.242.136l2.41 2.098-1.167 1.336-2.41-2.094a2.345 2.345 0 0 0-2.981-.082l-1.238.965a3.906 3.906 0 0 1-5.192-.348 2.124 2.124 0 0 0-2.968-.062l-.27.25a9.4 9.4 0 0 0 2.246 5.219l2.031-1.735a3.816 3.816 0 0 1 5.325.356 2.04 2.04 0 0 0 2.796.226Zm0 0"/></svg>