<svg width="24" height="24" viewBox="0 0 24 24" fill="none"><path fill="#f5342e" d="M4.5 12.093a7.7 7.7 0 0 1 .38-2.461c.295-.9.757-1.737 1.362-2.465a7.3 7.3 0 0 1 2.527-1.973 7.1 7.1 0 0 1 2.05-.617 7 7 0 0 1 1.29-.072 7.2 7.2 0 0 1 2.479.537c.012.005.026.01.028.025.001.02-.016.026-.03.032l-.27.105q-.883.343-1.722.783a11.4 11.4 0 0 0-1.769 1.134c-.48.382-.919.806-1.275 1.315a3.4 3.4 0 0 0-.532 1.12c-.132.518-.1 1.032.05 1.541.11.377.276.73.459 1.073.231.435.493.851.734 1.28.219.39.423.788.558 1.219.093.3.15.609.143.925a2.6 2.6 0 0 1-.309 1.176c-.227.438-.538.807-.885 1.147-.32.314-.668.591-1.027.855-.053.04-.094.038-.149.01a7.4 7.4 0 0 1-1.458-.977 7.5 7.5 0 0 1-1.4-1.598A7.63 7.63 0 0 1 4.5 12.093"/><path fill="#f5342e" d="M9.035 18.93c.014-.032.047-.033.073-.042q.787-.287 1.545-.642a14 14 0 0 0 1.715-.948q.64-.417 1.2-.938c.366-.345.69-.723.942-1.158.204-.352.342-.728.387-1.134a2.9 2.9 0 0 0-.103-1.097 5.4 5.4 0 0 0-.487-1.127c-.237-.433-.506-.848-.754-1.274a7 7 0 0 1-.55-1.126 2.85 2.85 0 0 1-.178-1.191c.02-.278.092-.545.204-.801.168-.386.41-.723.691-1.033.411-.455.889-.833 1.387-1.188.055-.04.1-.044.161-.014.53.266 1.025.582 1.482.958a7.6 7.6 0 0 1 1.244 1.3 7.4 7.4 0 0 1 1.48 3.924c.016.236.031.472.024.71a7.7 7.7 0 0 1-.324 2.034 7.5 7.5 0 0 1-2.08 3.319 7.65 7.65 0 0 1-7.985 1.514c-.027-.012-.059-.015-.074-.045"/></svg>