<svg xmlns="http://www.w3.org/2000/svg" xml:space="preserve" width="24" height="24" viewBox="0 0 24 24" stroke-miterlimit="10"><path d="M4.718 9.809 c-0.635 -0.068 -1.294 -0.27 -1.812 -0.555 -0.448 -0.248 -1.043 -0.745 -1.352
-1.132 -0.108 -0.134 -0.335 -0.452 -0.335 -0.469 0 -0.005 -0.04 -0.073 -0.087 -0.148 -0.049 -0.075 -0.122 -0.209 -0.164
-0.3 -0.234 -0.511 -0.309 -0.759 -0.422 -1.369 -0.045 -0.244 -0.049 -1.055 -0.009 -1.313 0.056 -0.345 0.178
-0.811 0.267 -1.012 0.019 -0.042 0.063 -0.15 0.101 -0.241 0.082 -0.202 0.234 -0.49 0.279 -0.527 0.019 -0.016 0.035 -0.037 0.035
-0.049 0 -0.07 0.377 -0.553 0.659 -0.841 0.352 -0.361 0.909 -0.748 1.345 -0.93 0.077 -0.033 0.183 -0.077 0.237
-0.103 0.251 -0.112 0.607 -0.206 1.064 -0.281 0.281 -0.047 1.113 -0.04 1.395 0.009 0.511 0.094 0.867 0.209 1.32 0.434
0.326 0.162 0.427 0.22 0.696 0.42 0.839 0.612 1.47 1.526 1.737 2.515 0.253 0.933 0.227 1.802 -0.08 2.73 -0.108
0.33 -0.396 0.942 -0.441 0.933 -0.012 -0.002 -0.023 0.014 -0.023 0.035 0 0.073 -0.347 0.527 -0.605 0.797 -0.361 0.373
-0.872 0.743 -1.305 0.947 -0.387 0.183 -0.623 0.267 -1.005 0.356 -0.473 0.112 -1.022 0.148 -1.493 0.096z m0.841
-1.078 c0.682 -0.143 1.207 -0.64 1.416 -1.341 0.117 -0.394 0.077 -0.907 -0.101 -1.261 -0.145 -0.291 -0.199 -0.368
-0.387 -0.553 -0.209 -0.209 -0.663 -0.492 -0.727 -0.452 -0.016 0.009 -0.019 0.007 -0.009 -0.012 0.009 -0.014 0 -0.033 -0.026 -0.042
-0.023 -0.007 -0.094 -0.049 -0.159 -0.089 -0.232 -0.145 -0.427 -0.246 -0.445 -0.227 -0.012 0.009 -0.014 0.005 -0.005 -0.009 0.007 -0.012 -0.026
-0.045 -0.073 -0.068 -0.047 -0.026 -0.136 -0.075 -0.197 -0.112 -0.061 -0.037 -0.124 -0.059 -0.138 -0.049 -0.019 0.009 -0.021 0.007 -0.012 -0.009
0.009 -0.014 -0.014 -0.042 -0.056 -0.063 -0.037 -0.019 -0.07 -0.042 -0.07 -0.049 0 -0.026 0.129 -0.255 0.152 -0.272 0.014 -0.009 0.014 -0.019
0.002 -0.019 -0.012 0 -0.07 0.04 -0.129 0.087 -0.059 0.047 -0.12 0.096 -0.136 0.105 -0.035 0.028 -0.199 -0.143 -0.288 -0.298 -0.197
-0.347 -0.19 -0.825 0.014 -1.174 0.077 -0.134 0.305 -0.342 0.445 -0.415 0.253 -0.129 0.555 -0.166 0.806 -0.098 0.124 0.033
0.291 0.098 0.34 0.134 0.056 0.04 0.293 0.253 0.281 0.253 -0.007 0 0.012 0.035 0.045 0.077 0.127 0.164 0.185 0.337 0.197 0.579 0.016
0.345 -0.075 0.607 -0.293 0.841 l-0.112 0.122 -0.105 -0.077 c-0.059 -0.042 -0.112 -0.087 -0.122 -0.098 -0.009 -0.014 -0.023 -0.019
-0.03 -0.012 -0.012 0.012 0.11 0.232 0.455 0.823 0.045 0.08 0.045 0.08 0.127 0.012 0.035 -0.028 0.103 -0.082 0.152 -0.122 0.251 -0.195 0.509
-0.602 0.605 -0.949 0.059 -0.211 0.061 -0.724 0.002 -0.938 -0.246 -0.888 -1.085 -1.474 -1.983 -1.383 -0.122 0.014
-0.274 0.04 -0.34 0.059 -0.244 0.073 -0.687 0.319 -0.656 0.366 0.007 0.012 0.005 0.021 -0.007 0.019 -0.054 -0.009 -0.082 0.005 -0.068 0.04
0.009 0.021 0.005 0.03 -0.012 0.019 -0.042 -0.026 -0.366 0.368 -0.337 0.412 0.007 0.012 -0.002 0.028 -0.021 0.04 -0.052 0.028 -0.173 0.333 -0.216
0.539 -0.075 0.359 -0.009 0.853 0.152 1.174 0.202 0.398 0.45 0.63 1.052 0.977 0.241 0.138 0.602 0.347 0.802 0.464 0.199
0.115 0.375 0.22 0.391 0.237 0.019 0.019 0.005 0.066 -0.068 0.19 -0.052 0.091 -0.075 0.148 -0.049 0.127 0.192 -0.162 0.253 -0.209 0.274
-0.209 0.056 0 0.248 0.253 0.321 0.422 0.087 0.204 0.115 0.492 0.07 0.701 -0.077 0.359 -0.342 0.668 -0.705 0.823 -0.19
0.08 -0.527 0.091 -0.743 0.028 -0.361 -0.11 -0.647 -0.394 -0.757 -0.752 -0.094 -0.302 -0.054 -0.656 0.108 -0.938
0.066 -0.112 0.216 -0.284 0.251 -0.284 0.012 0 0.084 0.049 0.162 0.108 0.138 0.108 0.141 0.108 0.103 0.035 -0.023 -0.042 -0.049 -0.068
-0.066 -0.059 -0.016 0.009 -0.019 0.007 -0.009 -0.009 0.009 -0.016 -0.042 -0.131 -0.117 -0.255 -0.073 -0.127 -0.164 -0.288 -0.202 -0.359 -0.04
-0.07 -0.08 -0.138 -0.091 -0.15 -0.026 -0.028 -0.185 0.08 -0.347 0.23 -0.448 0.422 -0.654 1.09 -0.527 1.716 0.047
0.237 0.258 0.68 0.375 0.78 0.045 0.04 0.073 0.073 0.063 0.073 -0.03 0 0.145 0.164 0.286 0.267 0.246 0.178 0.443 0.26
0.844 0.349 0.108 0.023 0.504 0.014 0.649 -0.019z m-0.661 -1.631 c0.066 -0.026 0.159 -0.157 0.178 -0.251 0.016 -0.077 -0.037 -0.211
-0.112 -0.277 -0.183 -0.166 -0.438 -0.096 -0.534 0.15 -0.061 0.152 0.04 0.326 0.227 0.391 0.089 0.033 0.127 0.03 0.241 -0.014z
m0.916 -0.07 c0.084 -0.084 0.091 -0.103 0.091 -0.218 0 -0.112 -0.009 -0.138 -0.077 -0.209 -0.042 -0.045 -0.12 -0.094 -0.173 -0.11
-0.087 -0.026 -0.108 -0.023 -0.199 0.021 -0.183 0.089 -0.248 0.253 -0.171 0.424 0.098 0.218 0.359 0.263 0.53 0.091z m-0.53
-0.677 c0.061 -0.103 0.105 -0.197 0.101 -0.206 -0.014 -0.037 -0.152 0.019 -0.18 0.075 l-0.033 0.056 -0.054 -0.066 c-0.052 -0.061 -0.164
-0.11 -0.19 -0.084 -0.014 0.014 0.216 0.412 0.237 0.412 0.005 0 0.059 -0.084 0.12 -0.188z m-0.258 -2.18 c0.037 -0.014 0.054 -0.033
0.045 -0.052 -0.009 -0.014 -0.007 -0.019 0.009 -0.009 0.014 0.007 0.04 -0.007 0.059 -0.035 l0.035 -0.049 0.016 0.052 c0.016 0.054 0.164 0.136 0.192 0.108 0.009
-0.009 0.002 -0.026 -0.016 -0.037 -0.019 -0.014 -0.026 -0.023 -0.016 -0.023 0.016 0 -0.131 -0.288 -0.171 -0.335 -0.009 -0.012 -0.052 0.042 -0.094
0.117 -0.042 0.075 -0.098 0.171 -0.122 0.213 -0.049 0.08 -0.037 0.089 0.063 0.052z m-0.136 -0.368 c0.091 -0.042 0.164 -0.143 0.185
-0.258 0.019 -0.094 -0.066 -0.251 -0.166 -0.309 -0.157 -0.091 -0.359 -0.033 -0.452 0.134 -0.061 0.11 -0.063 0.138 -0.014 0.263
0.073 0.183 0.267 0.258 0.448 0.171z m0.848 -0.007 c0.105 -0.061 0.166 -0.164 0.166 -0.286 0 -0.12 -0.056 -0.213 -0.164 -0.274
-0.206 -0.115 -0.445 0.002 -0.483 0.237 -0.016 0.091 0.047 0.265 0.084 0.241 0.014 -0.009 0.021 -0.002 0.019 0.014 -0.009 0.04 0.138 0.115 0.225 0.115
0.035 0 0.105 -0.021 0.152 -0.047z"/></svg>