<svg width="24" height="24" viewBox="0 0 24 24" fill="none"><path fill="#0b1c26" d="M12 20.25c-4.551-.014-8.25-3.707-8.25-8.25S7.449 3.764 12 3.75c4.551.014 8.25 3.707 8.25 8.25s-3.699 8.241-8.25 8.25m7.316-6.937a.836.836 0 0 1-1.084.44c.291.305.474.714.474 1.163 0 .132-.018.255-.045.378a7.5 7.5 0 0 0 .655-1.98zm-.579-4.438a3.46 3.46 0 0 1-.62 3.403.85.85 0 0 1 .43-.123c.433 0 .787.331.824.759a7.26 7.26 0 0 0-.634-4.039m-.423 1.158a2.869 2.869 0 0 0-4.897-2.025 2.87 2.87 0 0 0-.843 2.025 2.869 2.869 0 0 0 4.896 2.024 2.87 2.87 0 0 0 .844-2.024m-2.984 4.885c0-.623.345-1.195.898-1.485-.7.162-1.434.105-2.1-.165a3.5 3.5 0 0 1 1.202 1.713c.005-.027 0-.046 0-.063m.164 1.108q0 .415-.1.817a.8.8 0 0 1 .72-.444q.064 0 .127.013a1.7 1.7 0 0 1-.784-.84q.036.226.037.454m1.521-.05a1.064 1.064 0 0 0 1.067-1.059c0-.585-.479-1.058-1.067-1.058a1.06 1.06 0 0 0-1.061 1.058c0 .586.479 1.059 1.062 1.059m.701-2.989a.85.85 0 0 1 .105-.4c-.302.28-.65.505-1.03.667.074-.008.147-.017.224-.017.303-.001.601.08.861.236a.82.82 0 0 1-.159-.487zM12 12.537c.45 0 .896.086 1.313.254A3.47 3.47 0 0 1 12 10.601a3.47 3.47 0 0 1-1.312 2.19A3.6 3.6 0 0 1 12 12.536zm0-4.63c-.317 0-.628-.089-.897-.258a3.44 3.44 0 0 1 .898 1.806 3.5 3.5 0 0 1 .898-1.807c-.269.17-.58.26-.898.259m1.704-1.699c0 .38-.128.75-.364 1.05a3.5 3.5 0 0 1 1.185-.582c-.019 0-.032.005-.046.005a.83.83 0 0 1-.775-.527c-.003.018 0 .037 0 .054m1.294-1.003c.188.154.31.381.31.64a.83.83 0 0 1-.497.759 3.5 3.5 0 0 1 3.298 1.172A7.53 7.53 0 0 0 15 5.204zm-.524.232a.414.414 0 1 0-.002.829.414.414 0 0 0 .002-.83m-1.959-.85a1.7 1.7 0 0 1 1.13 1.195.83.83 0 0 1 .826-.768q.04 0 .08.009a7.5 7.5 0 0 0-2.036-.436m-1.59 1.622a1.076 1.076 0 0 0 2.15 0 1.076 1.076 0 0 0-2.149 0m-1.48-1.186.082-.01a.825.825 0 0 1 .825.769 1.7 1.7 0 0 1 1.13-1.195c-.711.054-1.395.2-2.036.436m.852 1.186q-.001-.028.005-.055a.83.83 0 0 1-.774.527c-.02 0-.033-.005-.046-.005.427.117.83.316 1.185.582a1.67 1.67 0 0 1-.37-1.05m-1.184-.36a.414.414 0 1 0 .828 0 .414.414 0 0 0-.828 0M5.892 7.78a3.49 3.49 0 0 1 3.297-1.172.825.825 0 0 1-.187-1.4 7.46 7.46 0 0 0-3.11 2.573m-.206 2.254a2.869 2.869 0 0 0 4.897 2.024 2.87 2.87 0 0 0 .843-2.024 2.87 2.87 0 0 0-2.87-2.863 2.874 2.874 0 0 0-2.87 2.863m2.984 4.884c0 .018-.005.04-.005.059a3.5 3.5 0 0 1 1.203-1.713c-.667.27-1.4.326-2.1.163a1.69 1.69 0 0 1 .902 1.49m-2.387-1.932a.8.8 0 0 1-.165.486c.26-.155.558-.236.861-.235q.113-.001.224.018a3.4 3.4 0 0 1-1.03-.668c.072.12.11.259.11.4m-.365 1.931a1.061 1.061 0 1 0 2.122 0 1.061 1.061 0 0 0-2.122 0m1.836 1.495c.042-.004.083-.014.128-.014.305 0 .583.172.72.445a3.5 3.5 0 0 1-.1-.817q0-.231.031-.459a1.68 1.68 0 0 1-.779.845m-3.13-3.502a.83.83 0 0 1 .825-.76.83.83 0 0 1 .428.124 3.46 3.46 0 0 1-.62-3.403 7.34 7.34 0 0 0-.632 4.038m.825-.337a.414.414 0 1 0-.001.828.414.414 0 0 0 .001-.828m-.154 2.345c0-.435.17-.852.473-1.163a.837.837 0 0 1-1.084-.441 7.3 7.3 0 0 0 .656 1.98 1.7 1.7 0 0 1-.045-.377m2.132 1.621a1.68 1.68 0 0 1-1.59-.39 7.5 7.5 0 0 0 1.42 1.567.8.8 0 0 1-.186-.509c0-.268.134-.517.356-.667zm.063.667a.391.391 0 1 0 .783 0 .391.391 0 0 0-.783 0m3.503 2.159a3.5 3.5 0 0 1-2.304-2.23c0 .022.009.044.009.072a.81.81 0 0 1-1.162.728 7.43 7.43 0 0 0 3.457 1.43m3.873-3.339a2.865 2.865 0 1 0-5.731 0A2.867 2.867 0 0 0 12 18.887a2.87 2.87 0 0 0 2.865-2.862zm1.603 1.908a.81.81 0 0 1-1.162-.727q.001-.037.01-.073a3.5 3.5 0 0 1-2.306 2.231 7.5 7.5 0 0 0 3.457-1.431zm.041-.728a.391.391 0 1 0 0 .001m1.653-1.057a1.68 1.68 0 0 1-1.59.39c.223.15.356.4.356.667a.8.8 0 0 1-.187.51 7.5 7.5 0 0 0 1.421-1.568z"/></svg>