<svg width="24" height="24" viewBox="0 0 24 24"><path fill="#1ba5f8" d="m8.804 18.126 2.656-3.275a.693.693 0 0 1 1.077 0l2.657 3.275a.69.69 0 0 1 0 .873l-2.657 3.275a.693.693 0 0 1-1.077 0l-2.656-3.275a.69.69 0 0 1 0-.873m2.656-16.4L8.804 5.001a.694.694 0 0 0 0 .873L11.46 9.15c.278.342.8.342 1.077 0l2.657-3.275a.69.69 0 0 0 0-.873l-2.657-3.275a.693.693 0 0 0-1.077 0m-6.806 8.392 2.657-3.274a.693.693 0 0 1 1.077 0l2.656 3.274a.69.69 0 0 1 0 .874l-2.656 3.275a.693.693 0 0 1-1.077 0l-2.657-3.275a.69.69 0 0 1 0-.874m8.302 0 2.656-3.274a.693.693 0 0 1 1.077 0l2.657 3.274a.69.69 0 0 1 0 .874l-2.657 3.275a.693.693 0 0 1-1.077 0l-2.656-3.275a.69.69 0 0 1 0-.874"/></svg>