<svg width="24" height="24" viewBox="0 0 24 24">
  <path
    d="m 8.8036344,18.125582 2.6566186,-3.274406 c 0.277488,-0.342067 0.799434,-0.342067 1.076921,0 l 2.656578,3.274406 c 0.206574,0.254577 0.206574,0.619104 0,0.873721 l -2.656578,3.274406 c -0.277487,0.342026 -0.799433,0.342026 -1.076921,0 L 8.8036344,18.999303 c -0.206532,-0.254617 -0.206532,-0.619144 0,-0.873721 z"
    fill="#1ba5f8" />
  <path
    d="m 11.460253,1.7262965 -2.6566186,3.274407 c -0.206532,0.2546134 -0.206532,0.6191278 0,0.8737453 L 11.460253,9.148855 c 0.277488,0.342026 0.799434,0.342026 1.076921,0 l 2.656578,-3.2744062 c 0.206574,-0.2546175 0.206574,-0.6191319 0,-0.8737453 L 12.537174,1.726297 c -0.277487,-0.342034 -0.799433,-0.342034 -1.076921,-5e-7 z M 4.6542944,10.118417 7.3108934,6.8440109 c 0.277487,-0.3420266 0.799433,-0.3420266 1.076921,0 l 2.6565776,3.2744061 c 0.206573,0.254617 0.206573,0.619103 0,0.87372 l -2.6565776,3.274406 c -0.277488,0.342027 -0.799434,0.342027 -1.076921,0 l -2.656599,-3.274406 c -0.206573,-0.254617 -0.206573,-0.619103 0,-0.87372 z m 8.3012916,0 2.656578,-3.2744061 c 0.277529,-0.3420266 0.799433,-0.3420266 1.076921,0 l 2.656618,3.2744061 c 0.206576,0.254617 0.206576,0.619103 0,0.87372 l -2.656618,3.274406 c -0.277488,0.342027 -0.799392,0.342027 -1.076921,0 l -2.656578,-3.274406 c -0.206573,-0.254617 -0.206573,-0.619103 0,-0.87372 z"
    fill="#1ba5f8" />
</svg>