<svg xmlns="http://www.w3.org/2000/svg" xml:space="preserve" width="24" height="24" viewBox="0 0 24 24" stroke-miterlimit="10"><path d="M4.048 8.869 c-0.898 -0.138 -1.706 -0.551 -2.348 -1.193 -0.663 -0.666 -1.059 -1.453 -1.198
-2.391 -0.054 -0.363 -0.035 -1.071 0.035 -1.43 0.34 -1.676 1.636 -2.97 3.33 -3.319 0.239 -0.049 0.333
-0.056 0.82 -0.056 0.483 0 0.584 0.007 0.818 0.054 1.673 0.34 2.96 1.61 3.321 3.281 0.082 0.373 0.103 1.083 0.047
1.47 -0.138 0.938 -0.534 1.727 -1.198 2.391 -0.656 0.656 -1.451 1.057 -2.37 1.195 -0.291 0.045 -0.973 0.042
-1.259 -0.002z m2.824 -3.553 c0.157 -0.073 0.328 -0.223 0.408 -0.359 0.267 -0.457 0.211 -1.066 -0.134 -1.43 -0.152
-0.162 -0.319 -0.244 -0.53 -0.265 -0.363 -0.037 -0.663 0.059 -0.86 0.279 -0.188 0.209 -0.274 0.452 -0.277 0.776
-0.002 0.497 0.241 0.888 0.645 1.031 0.188 0.068 0.567 0.049 0.748 -0.033z m-3.427 -0.159 l0 -0.188 -0.48 0 -0.48
0 0 -0.844 0 -0.844 -0.223 0 -0.223 0 0 1.015 c0 0.56 0.007 1.024 0.016 1.031 0.007 0.009 0.323 0.016 0.703 0.016 l0.687 0
0 -0.188z m1.852 0 l0 -0.188 -0.551 0 -0.551 0 0 -0.258 0 -0.258 0.492 0 0.492 0 0 -0.176 0 -0.176
-0.492 0 -0.492 0 0 -0.234 0 -0.234 0.527 0 0.527 0 0 -0.176 0 -0.176 -0.738 0 -0.738 0 0 1.031 0
1.031 0.762 0 0.762 0 0 -0.188z M6.295 5.004 c-0.26 -0.091 -0.389 -0.321 -0.389 -0.694 0 -0.246 0.054 -0.403 0.188 -0.539 0.122
-0.127 0.253 -0.173 0.429 -0.155 0.309 0.037 0.487 0.288 0.492 0.696 0.002 0.138 -0.009 0.237 -0.04 0.326 -0.105 0.305 -0.401
0.464 -0.68 0.366z"/></svg>