<svg xmlns="http://www.w3.org/2000/svg" fill="none" viewBox="0 0 120 120" width="120" height="120">
  <path fill="#f31010" d="m30.501 43.651 23.545-13.749c.655.27 1.361.418 2.102.418 3.083 0 5.597-2.543 5.597-5.66S59.231 19 56.148 19c-3.084 0-5.58 2.525-5.598 5.634L26.23 38.836A6.584 6.584 0 0 0 23 44.505v30.233a6.585 6.585 0 0 0 3.238 5.668l27.386 15.987c.38.218.81.34 1.24.34.431 0 .862-.113 1.24-.34a2.5 2.5 0 0 0 1.24-2.176v-.81a3.734 3.734 0 0 0-1.834-3.213L30.501 75.59a2.55 2.55 0 0 1-1.249-2.186V45.837a2.54 2.54 0 0 1 1.25-2.186ZM52.79 23.336a3.606 3.606 0 0 1 3.918-2.281c.224.035.44.087.638.165a3.646 3.646 0 0 1 2.42 3.449c0 1.75-1.223 3.221-2.85 3.57-.242.052-.5.078-.759.078-1.998 0-3.617-1.637-3.617-3.657 0-.47.095-.914.25-1.324ZM95.695 40.57 68.292 24.572a2.48 2.48 0 0 0-1.258-.34c-.44 0-.87.123-1.257.34a2.53 2.53 0 0 0-1.258 2.203V27.9c0 1.097.586 2.116 1.525 2.664l25.38 14.812a2.412 2.412 0 0 1 1.196 2.09v27.69c0 .862-.456 1.663-1.197 2.09L68.481 90.307a5.496 5.496 0 0 0-2.55-.627c-3.082 0-5.597 2.543-5.597 5.66 0 3.118 2.515 5.66 5.598 5.66 2.799 0 5.124-2.08 5.537-4.798l24.235-14.15a6.453 6.453 0 0 0 3.177-5.564V46.133c-.008-2.29-1.223-4.423-3.186-5.564ZM68.429 97.978a3.57 3.57 0 0 1-2.506 1.019h-.112c-1.946-.061-3.505-1.672-3.505-3.649 0-2.02 1.62-3.657 3.617-3.657.19 0 .38.017.56.043 1.731.27 3.057 1.785 3.057 3.614a3.626 3.626 0 0 1-1.11 2.63Z"/>
  <path fill="#f50e0e" d="M58.256 38h4.524v5.616c1.04.139 2.132.381 3.276.728 1.144.347 2.27.832 3.38 1.456l-1.872 4.992c-1.005-.555-2.132-1.005-3.38-1.352a12.59 12.59 0 0 0-3.692-.572c-1.248 0-2.288.277-3.12.832-.797.52-1.196 1.283-1.196 2.288 0 .97.347 1.733 1.04 2.288.693.52 1.872 1.057 3.536 1.612l2.392.78c2.635.867 4.645 2.08 6.032 3.64 1.387 1.525 2.08 3.45 2.08 5.772a8.74 8.74 0 0 1-.624 3.276 7.616 7.616 0 0 1-1.768 2.704c-.763.797-1.716 1.473-2.86 2.028-1.144.52-2.479.884-4.004 1.092v5.928h-4.524v-5.824c-1.63-.139-3.12-.433-4.472-.884a17.908 17.908 0 0 1-3.848-1.872l2.34-4.94c1.248.832 2.513 1.439 3.796 1.82 1.317.381 2.583.572 3.796.572 1.768 0 3.033-.312 3.796-.936.797-.659 1.196-1.49 1.196-2.496 0-.901-.33-1.647-.988-2.236-.659-.624-1.82-1.213-3.484-1.768l-2.6-.832c-1.11-.347-2.15-.78-3.12-1.3a11.99 11.99 0 0 1-2.548-1.924 8.227 8.227 0 0 1-1.716-2.496c-.416-.97-.624-2.08-.624-3.328 0-1.283.225-2.461.676-3.536.485-1.11 1.127-2.045 1.924-2.808a9.13 9.13 0 0 1 2.912-1.872c1.144-.485 2.392-.763 3.744-.832V38Z"/>
</svg>