<svg width="40" height="40" viewBox="0 0 40 40" fill="none" xmlns="http://www.w3.org/2000/svg">
    <path
        d="M11.84 10.04C11.84 10.064 12.4 10.928 13.08 11.96L14.312 13.84H15.88C16.736 13.84 17.44 13.824 17.44 13.8C17.44 13.784 16.88 12.92 16.192 11.88L14.944 9.99997H13.392C12.536 9.99997 11.84 10.016 11.84 10.04Z"
        fill="black" />
    <path
        d="M23.8001 11.888C23.1201 12.92 22.5601 13.784 22.5601 13.808C22.5601 13.824 23.2641 13.84 24.1201 13.84H25.6801L26.9201 11.952C27.6001 10.92 28.1601 10.056 28.1601 10.032C28.1601 10.016 27.4561 9.99997 26.6001 9.99997H25.0481L23.8001 11.888Z"
        fill="black" />
    <path d="M10 17.56V18.8H11.28H12.568L12.544 17.576L12.52 16.36L11.264 16.336L10 16.312V17.56Z" fill="black" />
    <path
        d="M27.4959 16.376C27.4639 16.4 27.4399 16.96 27.4399 17.616V18.8H28.7199H29.9999V17.56V16.32H28.7759C28.0959 16.32 27.5199 16.344 27.4959 16.376Z"
        fill="black" />
    <path d="M10 22.36V23.608L11.264 23.584L12.52 23.56V22.36V21.16L11.264 21.136L10 21.112V22.36Z" fill="black" />
    <path
        d="M27.472 21.224C27.456 21.28 27.448 21.832 27.456 22.44L27.48 23.56L28.744 23.584L30 23.608V22.36V21.12H28.76C27.816 21.12 27.504 21.144 27.472 21.224Z"
        fill="black" />
    <path
        d="M14.304 26.296C14.24 26.376 13.656 27.24 13.016 28.224L11.848 30H13.432H15.016L16.232 28.152C16.896 27.136 17.44 26.272 17.44 26.232C17.44 26.192 16.8 26.16 15.936 26.16C14.592 26.16 14.408 26.176 14.304 26.296Z"
        fill="black" />
    <path
        d="M22.5601 26.24C22.5601 26.28 23.1041 27.144 23.7681 28.16L24.9761 30H26.5681H28.1601L27.0321 28.304C26.4161 27.368 25.8401 26.504 25.7521 26.376L25.5921 26.16H24.0801C23.1201 26.16 22.5601 26.192 22.5601 26.24Z"
        fill="black" />
</svg>