<?xml version="1.0" encoding="UTF-8"?> <svg xmlns="http://www.w3.org/2000/svg" width="500" height="500" viewBox="0 0 500 500" fill="none"><rect width="500" height="500" fill="#07C166"></rect><path fill-rule="evenodd" clip-rule="evenodd" d="M356.616 63.1605C364.109 64.0291 368.858 71.6284 366.354 78.7436L329.714 182.86C326.442 192.156 313.873 193.545 308.651 185.188L300.826 172.665L159.422 261.024L144.879 237.751C121.651 200.578 132.955 151.613 170.128 128.385L244.224 82.0844L235.649 68.3615C230.427 60.0042 237.186 49.316 246.975 50.4508L356.616 63.1605ZM208.353 304.572C157.266 334.067 139.762 399.392 169.257 450.479L313.138 367.41C351.099 345.493 364.105 296.953 342.188 258.992L328.467 235.225L208.353 304.572Z" fill="white"></path></svg>