<?xml version="1.0" encoding="UTF-8"?>
<svg xmlns="http://www.w3.org/2000/svg" xmlns:xlink="http://www.w3.org/1999/xlink" width="19pt" height="19pt" viewBox="0 0 19 19" version="1.1">
<defs>
<linearGradient id="linear0" gradientUnits="userSpaceOnUse" x1="29.779699" y1="157.938004" x2="418.253998" y2="253.932007" gradientTransform="matrix(0.0475,0,0,0.0475,0,0)">
<stop offset="0" style="stop-color:rgb(99.607843%,96.078432%,62.7451%);stop-opacity:1;"/>
<stop offset="0.6354" style="stop-color:rgb(57.647061%,83.137256%,79.607844%);stop-opacity:1;"/>
<stop offset="1" style="stop-color:rgb(44.313726%,60.392159%,81.960785%);stop-opacity:1;"/>
</linearGradient>
</defs>
<g id="surface69370">
<path style=" stroke:none;fill-rule:nonzero;fill:url(#linear0);" d="M 9.5 19 C 6.960938 19 4.578125 18.011719 2.78125 16.21875 C 0.988281 14.421875 0 12.039062 0 9.5 C 0 6.960938 0.988281 4.578125 2.78125 2.78125 C 4.578125 0.988281 6.960938 0 9.5 0 C 12.039062 0 14.421875 0.988281 16.21875 2.78125 C 18.011719 4.578125 19 6.960938 19 9.5 C 19 12.039062 18.011719 14.421875 16.21875 16.21875 C 14.421875 18.011719 12.039062 19 9.5 19 Z M 9.5 0.773438 C 4.6875 0.773438 0.773438 4.6875 0.773438 9.5 C 0.773438 14.3125 4.6875 18.226562 9.5 18.226562 C 14.3125 18.226562 18.226562 14.3125 18.226562 9.5 C 18.226562 4.6875 14.3125 0.773438 9.5 0.773438 Z M 8.367188 6.71875 L 2.820312 5.34375 L 6.507812 9.714844 L 3.484375 14.570312 L 8.78125 12.417969 L 12.464844 16.789062 L 12.050781 11.089844 L 17.347656 8.933594 L 11.804688 7.5625 L 11.390625 1.863281 Z M 8.367188 6.71875 "/>
</g>
</svg>
