<svg xmlns="http://www.w3.org/2000/svg" width="25" height="25" viewBox="0 0 25 25" fill="none"><path fill="#aac4fd" fill-rule="evenodd" d="m9.028 14.125-2.745-2.69c-3.556.7-5.944 1.752-5.944 1.752 0 6.347 5.372 11.493 12 11.493 6.627 0 12-5.146 12-11.493 0 0-2.422-1.066-6.02-1.767l-2.76 2.705-3.265-3.201zm-2.69 1.697v3.985h2.77v-.832H7.272v-.761h1.642v-.832H7.273v-.728h1.8v-.832zm4.292 3.358q.2.338.57.524h.001q.375.18.88.179.506.001.875-.179.375-.185.572-.525.199-.345.198-.8v-2.557h-.934v2.58c0 .213-.064.372-.182.485l-.001.001c-.113.112-.284.174-.528.174-.243 0-.416-.062-.534-.174-.115-.114-.177-.272-.177-.486v-2.58h-.934v2.558q-.001.454.193.798zm4.618-3.358v3.985h.934v-1.435h.949c.096 0 .14.023.16.047v.002l.002.001a.22.22 0 0 1 .05.154v1.23h.935v-1.334a.6.6 0 0 0-.148-.423.53.53 0 0 0-.27-.161q.198-.106.342-.285.19-.244.189-.61v-.065a1.03 1.03 0 0 0-.168-.586 1.1 1.1 0 0 0-.47-.386 1.7 1.7 0 0 0-.69-.134zm1.736.832c.164 0 .277.042.353.115l.001.001a.4.4 0 0 1 .119.3v.054a.39.39 0 0 1-.125.305c-.076.07-.187.111-.348.111h-.802v-.886z" clip-rule="evenodd"/><path fill="#aac4fd" fill-opacity=".5" fill-rule="evenodd" d="M24.328 13.333q.01-.25.01-.503c0-6.627-5.372-12-12-12-6.627 0-12 5.373-12 12q0 .253.011.503c.176-.076 2.57-1.097 6.056-1.771l-.643-.63 6.532-6.403 2.025 1.986q-.35.153-.75.2l-.878.098a.083.083 0 0 0 0 .166l.879.098c1.134.127 2.028.968 2.163 2.035l.104.826c.012.099.164.099.177 0l.104-.826q.045-.346.186-.651l2.521 2.47-.628.616c3.528.674 5.954 1.71 6.131 1.786m-8.024-4.872c.344-.744 1.086-1.285 1.977-1.384l.878-.098a.083.083 0 0 0 0-.166l-.878-.098c-1.134-.127-2.029-.968-2.163-2.035l-.104-.827c-.013-.098-.165-.098-.177 0l-.104.827c-.104.817-.652 1.502-1.414 1.835zm-4.052 2.512h.084l-.042-.041z" clip-rule="evenodd"/></svg>