<svg width="24" height="24" viewBox="0 0 24 24" fill="none"><path fill="#1387c9" d="m12.04 13.78 7.195-4.188-7.195-4.263-7.124 4.263zm-7.505-2.19a.57.57 0 0 0 .282.493l7.22 4.206 7.34-4.341a.553.553 0 0 1 .831.48v1.97a.56.56 0 0 1-.27.477l-7.618 4.547a.55.55 0 0 1-.56.002L3.945 14.83a.397.397 0 0 1 .097-.724.4.4 0 0 1 .298.04l7.698 4.526 7.385-4.409v-1.425l-7.105 4.202a.55.55 0 0 1-.556.003l-7.338-4.275a1.36 1.36 0 0 1-.674-1.178V9.735a.473.473 0 0 1 .71-.41l.456.267-.573.343a.39.39 0 0 1-.588-.273.4.4 0 0 1 .188-.407l7.814-4.677a.55.55 0 0 1 .563-.001l7.658 4.537a.56.56 0 0 1-.004.961l-7.659 4.458a.55.55 0 0 1-.555 0l-7.695-4.525a.312.312 0 0 0 .471-.273v1.856z"/></svg>