<svg width="24" height="24" viewBox="0 0 24 24" fill="none"><path fill="#e50571" d="M24 12c0 6.629-5.371 12-12 12S0 18.629 0 12 5.371 0 12 0s12 5.371 12 12m0 0"/><path fill="#fff" d="M12.316 19.047c-1.738 0-3.168-.375-4.273-1.133-1.016-.691-1.668-1.652-1.945-2.89a.356.356 0 0 1 .265-.422l2.41-.625a.39.39 0 0 1 .473.289c.125.453.297.816.527 1.093q.457.533 1.102.778c.453.144.934.21 1.453.21.785 0 1.371-.132 1.746-.402.375-.289.567-.633.567-1.047 0-.41-.184-.73-.54-.941-.355-.23-.93-.422-1.718-.566l-.746-.133c-.934-.184-1.79-.422-2.555-.73-.77-.325-1.39-.758-1.852-1.317-.472-.555-.703-1.274-.703-2.149 0-1.324.48-2.343 1.45-3.042.968-.72 2.238-1.075 3.82-1.075 1.488 0 2.726.336 3.715.996.875.598 1.488 1.344 1.824 2.266a.344.344 0 0 1-.238.453l-2.41.738c-.211.067-.43-.066-.5-.277-.16-.48-.422-.828-.778-1.059q-.646-.429-1.613-.43c-.64 0-1.14.114-1.477.345-.336.21-.508.52-.508.914 0 .43.18.746.536.968.355.204.847.344 1.449.461l.75.133c1.008.184 1.91.422 2.719.73q1.235.434 1.937 1.27c.48.535.73 1.274.73 2.207 0 1.402-.507 2.485-1.535 3.254-1.007.75-2.363 1.133-4.062 1.133Zm0 0"/></svg>