<svg width="500" height="500" viewBox="0 0 500 500" fill="none" xmlns="http://www.w3.org/2000/svg">
<path d="M375 229.167V215.576C375 212.453 372.674 210.008 369.664 209.601H299.056C297.14 209.601 295.361 208.65 294.54 206.885C293.582 205.255 293.72 203.218 294.814 201.589L340.517 134.37C341.749 132.469 341.886 130.16 340.791 128.259C339.696 126.222 337.644 125.136 335.455 125.136H317.666C315.75 125.136 313.835 126.086 312.602 127.852L259.236 206.613C257.869 208.65 255.679 209.737 253.216 209.737H246.511C244.048 209.737 241.858 208.514 240.49 206.613L187.397 127.716C186.303 125.951 184.25 125 182.335 125H164.546C162.356 125 160.167 126.222 159.209 128.259C158.114 130.296 158.388 132.605 159.483 134.37L205.186 201.725C206.281 203.218 206.418 205.255 205.46 206.885C204.502 208.65 202.86 209.601 200.944 209.601H131.021C127.6 209.601 125 212.317 125 215.576V230.242C125 233.637 127.737 236.217 131.021 236.217H330.242C344.343 231.656 359.384 229.184 375 229.167Z" fill="#7BF178"/>
<path d="M255.982 290.939C263.096 280.871 271.453 271.745 280.83 263.784H131.021C127.6 263.784 125 266.5 125 269.758V284.424C125 287.819 127.737 290.4 131.021 290.4H200.671C202.586 290.4 204.228 291.485 205.186 293.116C206.144 294.88 206.007 296.782 204.913 298.412L159.346 365.63C158.114 367.396 157.978 369.839 159.072 371.741C160.167 373.642 162.219 374.865 164.409 374.865H182.198C184.113 374.865 186.166 373.913 187.261 372.149L240.627 293.387L240.764 293.659C242.132 291.758 244.321 290.535 246.784 290.535H253.49C254.363 290.535 255.202 290.672 255.982 290.939Z" fill="#7BF178"/>
<path d="M435.004 358.5C437.617 341.031 424.316 331.641 406.13 325.376L412.029 301.712L397.625 298.123L391.881 321.163C388.095 320.219 384.206 319.329 380.341 318.447L386.126 295.255L371.73 291.665L365.826 315.321C362.692 314.607 359.615 313.901 356.628 313.159L356.645 313.085L336.78 308.125L332.948 323.509C332.948 323.509 343.635 325.959 343.41 326.11C349.244 327.567 350.298 331.427 350.121 334.488L343.401 361.446C343.804 361.548 344.325 361.696 344.899 361.926C344.419 361.807 343.906 361.676 343.377 361.548L333.957 399.312C333.244 401.085 331.434 403.743 327.356 402.734C327.5 402.943 316.887 400.121 316.887 400.121L309.736 416.609L328.48 421.282C331.968 422.156 335.385 423.07 338.749 423.932L332.788 447.866L347.176 451.456L353.079 427.776C357.01 428.843 360.825 429.827 364.558 430.755L358.675 454.324L373.079 457.914L379.04 434.024C403.603 438.672 422.072 436.798 429.847 414.582C436.111 396.695 429.535 386.377 416.612 379.649C426.023 377.479 433.112 371.288 435.004 358.5ZM402.093 404.65C397.641 422.537 367.525 412.867 357.76 410.443L365.67 378.734C375.434 381.171 406.745 385.996 402.093 404.65ZM406.548 358.242C402.487 374.512 377.42 366.246 369.289 364.219L376.46 335.46C384.591 337.487 410.778 341.269 406.548 358.242Z" fill="red"/>
</svg>
