<svg width="24" height="24" viewBox="0 0 24 24" fill="none"><path fill="#e53431" d="M8.93 3.94a.19.19 0 0 1 .225 0l.942.706a.187.187 0 1 1-.226.3l-.83-.62L6.345 6.35l11.85 8.89a.188.188 0 0 1 0 .303l-.87.652a.188.188 0 0 1-.226-.301l.67-.503-11.85-8.889a.186.186 0 0 1 0-.3zm3.012 0a.185.185 0 0 1 .225-.002l6.026 4.52a.185.185 0 0 1 .065.21.19.19 0 0 1-.178.129h-3.013a.2.2 0 0 1-.112-.038L11 5.794a.188.188 0 1 1 .226-.302L15.13 8.42h2.384l-5.46-4.095-3.78 2.835a.188.188 0 0 1-.225-.301zM6.75 7.836a.189.189 0 0 1 .225.302l-.63.472 11.85 8.89a.187.187 0 0 1 0 .302l-3.013 2.26a.19.19 0 0 1-.225 0l-.872-.654a.19.19 0 0 1 .227-.302l.758.568 2.7-2.025L5.915 8.761a.19.19 0 0 1 0-.302l.833-.622zM6.03 15.2v.002h3.012q.062 0 .113.037l3.912 2.934a.188.188 0 0 1-.225.301L8.98 15.58H6.595l5.461 4.095 3.773-2.83a.189.189 0 1 1 .226.302l-3.886 2.913a.19.19 0 0 1-.225 0l-6.028-4.52a.188.188 0 1 1 .114-.34"/></svg>