<svg xmlns="http://www.w3.org/2000/svg" width="32" height="32" viewBox="0 0 32 32" fill="none">
  <path fill-rule="evenodd" clip-rule="evenodd"
    d="M21.5884 9.00732H17.3975V4.81177H14.6025V9.00732H13.2059C12.6555 9.00732 12.1105 9.11582 11.602 9.32666C11.0935 9.53749 10.6314 9.84652 10.2422 10.2361C9.85303 10.6256 9.54432 11.0881 9.3337 11.5971C9.12305 12.1061 9.01465 12.6516 9.01465 13.2026C9.01465 13.7535 9.12305 14.2991 9.3337 14.808C9.54432 15.3171 9.85303 15.7795 10.2422 16.1691C10.6314 16.5587 11.0935 16.8677 11.602 17.0785C12.1105 17.2893 12.6555 17.3979 13.2059 17.3979H14.6025V14.6008H13.2059C12.8353 14.6008 12.48 14.4535 12.218 14.1912C11.9559 13.9289 11.8087 13.5732 11.8087 13.2023C11.8087 12.8314 11.9559 12.4757 12.218 12.2134C12.48 11.9511 12.8353 11.8038 13.2059 11.8038H21.5884V9.00732ZM10.411 22.9925H14.6025V27.1881H17.3975V22.9925H18.7946C19.9063 22.9925 20.9725 22.5504 21.7587 21.7636C22.5448 20.9767 22.9864 19.9095 22.9864 18.7967C22.9864 17.6839 22.5448 16.6166 21.7587 15.8297C20.9725 15.0429 19.9063 14.6008 18.7946 14.6008H17.3975V17.3979H18.7946C19.165 17.3981 19.5202 17.5456 19.7821 17.8079C20.0439 18.0703 20.191 18.4259 20.191 18.7967C20.191 19.1675 20.0439 19.5231 19.7821 19.7854C19.5202 20.0477 19.165 20.1952 18.7946 20.1955H10.411V22.9925Z"
    fill="#0F1423" />
</svg>