<svg width="24" height="24" viewBox="0 0 24 24" fill="none">
<path d="M3 9.75H3.9735V10.6657H3V9.75ZM3.9735 13.3305H6.80625V14.25H3V11.5815H5.8575V12.4965H3.97425V13.3305H3.9735ZM17.1937 11.5815H21V14.25H18.1425V13.3305H20.0265V12.4973H17.1937V11.5815ZM20.0422 10.71H17.1923V9.79425H20.0422V10.7093V10.71ZM7.734 11.5815H11.5402V13.3695H10.5922V14.25H7.734V11.5815ZM10.5667 13.3305V12.4973H8.7075V13.3298H10.5675L10.5667 13.3305ZM7.734 9.75H11.5402V10.6657H7.734V9.75ZM12.4845 11.5815H16.2908V13.3695H15.3428V14.25H12.4852V11.5815H12.4845ZM15.3135 13.3305V12.4973H13.4535V13.3298H15.3135V13.3305ZM12.4845 9.75H16.2908V10.6657H12.4845V9.75Z" fill="#002342"/>
</svg>
