<svg width="24" height="24" viewBox="0 0 24 24" fill="none"><path fill="#7b346e" d="m6.07 10.259 1.583 1.582H4.5zm1.583 1.912-1.582 1.57-1.571-1.57zm2.139-2.14-1.582 1.57V8.45zm-1.912 1.57-1.57-1.57L7.88 8.45zm2.14-1.809-1.57-1.57h3.152zm0-3.482 1.582 1.582H8.45zm3.722-.228-1.583 1.57V4.5zm-1.913 1.57-1.57-1.57 1.57-1.582zM9.792 13.98 8.21 15.55v-3.152zm-3.482 0 1.57-1.582v3.153zm7.659-4.188-1.57-1.57h3.152zm-1.57-1.9 1.57-1.583 1.582 1.582zm-.796 8.228-1.583 1.57-1.57-1.57zm-1.583-1.913 1.582 1.583H8.45zm7.671-4.176-1.582 1.57V8.45zm-3.482 0 1.57-1.582v3.153zm-3.95 7.898 1.57-1.581V19.5zm1.9-1.581 1.583 1.582-1.583 1.57zm1.81 1.342-1.57-1.57h3.152zm0-3.482 1.583 1.582h-3.154zm2.14-1.81 1.583 1.583-1.583 1.57zm-1.9 1.583 1.57-1.583v3.153zm3.71-.24-1.57-1.57H19.5zm0-3.482L19.5 11.84h-3.152z"/></svg>