<svg width="24" height="24" viewBox="0 0 24 24" fill="none"><path fill="#fff" d="M11.775 20.55A8.775 8.775 0 0 1 3 11.775 8.775 8.775 0 0 1 11.775 3a8.775 8.775 0 0 1 8.775 8.775 8.775 8.775 0 0 1-8.775 8.775m2.168-5.775-2.168-3-2.168 3-1.762-3 1.965-3.36h3.93l1.965 3.36zm.645-7.8H8.963l-2.805 4.8 2.812 4.8h5.618l2.804-4.8z"/><path fill="#5244d4" d="M12 20.775A8.775 8.775 0 0 1 3.225 12 8.775 8.775 0 0 1 12 3.225 8.775 8.775 0 0 1 20.775 12 8.775 8.775 0 0 1 12 20.775M14.168 15 12 12l-2.167 3-1.763-3 1.965-3.36h3.93L15.93 12zm.645-7.8H9.188L6.383 12l2.812 4.8h5.618l2.804-4.8z"/></svg>