<svg width="24" height="24" viewBox="0 0 24 24" fill="none"><path fill="#0899cd" d="M20.228 12.65q-.21 3.002-2.397 5.181a9 9 0 0 1-1.155.979 1 1 0 0 0-.057-.076l3.517-6.094q.045.008.091.01M16.3 19.061q-1.902 1.19-4.3 1.189-2.291 0-4.133-1.086a7 7 0 0 0 .563.3 1 1 0 0 0 .048-.098h7.044a1 1 0 0 0 .047.098q.375-.18.73-.403m-8.976-.247a9 9 0 0 1-1.163-.983q-2.178-2.18-2.388-5.18a1 1 0 0 0 .09-.011l3.519 6.093a1 1 0 0 0-.058.08m-3.573-6.94q.044-3.339 2.41-5.712Q8.58 3.75 12 3.75t5.831 2.411Q20.24 8.57 20.25 11.97q0-.303-.023-.605a1 1 0 0 0-.09.011L16.622 5.27a1 1 0 0 0 .059-.08 8 8 0 0 0-1.108-.655.6.6 0 0 0-.051.107H8.478a.6.6 0 0 0-.051-.107 8 8 0 0 0-1.107.651q.025.046.061.087l-3.518 6.102a1 1 0 0 0-.091-.011 10 10 0 0 0-.021.51zm16.01-.28a.6.6 0 0 0-.118.194h-2.907a.65.65 0 0 0-.154-.233.65.65 0 0 0-.234-.154V5.679l3.412 5.915m-.118.633a.6.6 0 0 0 .117.193l-3.412 5.909v-5.715a.65.65 0 0 0 .234-.153.65.65 0 0 0 .154-.234zm-15.284-.438a.6.6 0 0 0-.117-.194L7.653 5.68v5.722a.65.65 0 0 0-.234.154.65.65 0 0 0-.154.233zM8.47 5.095l.008-.015h7.044q.041.106.117.193l-2.153 3.72a.62.62 0 0 0-.431.073zm.008 6.693a.65.65 0 0 0-.154-.233.65.65 0 0 0-.234-.154V5.679l3.416 5.908a.6.6 0 0 0-.112.2zm5.499-1.933a.7.7 0 0 0 .04-.23.62.62 0 0 0-.15-.413L15.91 5.68v5.72a1 1 0 0 0-.096.044zm-1.203-.46a.6.6 0 0 0-.044.23.6.6 0 0 0 .154.413l-.771 1.33a.6.6 0 0 0-.227 0L8.712 5.88zm-.165 2.393a.7.7 0 0 0-.116-.2l.768-1.331c.147.03.3.003.43-.073l1.838 1.59-.007.015zm3.067.672q.099.102.234.154v5.714l-3.417-5.918a.6.6 0 0 0 .11-.184h2.919a.65.65 0 0 0 .154.234m-3.782.176a.7.7 0 0 0 .219-.004l3.175 5.499-4.06-3.511a.65.65 0 0 0-.109-.643zm3.635 6.277-.007.015H8.479a.6.6 0 0 0-.113-.195l2.148-3.712c.147.03.3.003.43-.073zm-4.79-5.156a.62.62 0 0 0-.431.073L8.47 12.242l.008-.016h2.919a.6.6 0 0 0 .113.19zm-.713.402a.6.6 0 0 0-.043.23q0 .236.154.413l-2.047 3.53v-5.719a1 1 0 0 0 .095-.043zM7.42 12.46q.1.102.234.154v5.714L4.241 12.42a.6.6 0 0 0 .117-.194h2.907a.65.65 0 0 0 .154.234"/></svg>