<svg width="24" height="24" viewBox="0 0 24 24" fill="none">
<path d="M13.7509 10.5726C13.8569 10.5729 13.959 10.5321 14.0357 10.4589C14.1124 10.3856 14.1578 10.2856 14.1624 10.1797C14.1671 10.0737 14.1306 9.97007 14.0606 9.89039C13.9906 9.81072 13.8925 9.76118 13.7869 9.75213H10.9069V9.03213C10.8787 8.93254 10.8187 8.84487 10.7362 8.78244C10.6536 8.72001 10.5529 8.68623 10.4494 8.68623C10.3459 8.68623 10.2452 8.72001 10.1626 8.78244C10.08 8.84487 10.0201 8.93254 9.99189 9.03213V9.75213H9.22164C9.11283 9.75213 9.00848 9.79536 8.93155 9.87229C8.85461 9.94923 8.81139 10.0536 8.81139 10.1624C8.81139 10.2712 8.85461 10.3755 8.93155 10.4525C9.00848 10.5294 9.11283 10.5726 9.22164 10.5726H9.99264V13.0776C9.99619 13.7079 10.2486 14.3113 10.6948 14.7564C11.1411 15.2016 11.7451 15.4524 12.3754 15.4544C12.9009 15.4464 13.4083 15.2611 13.8154 14.9286L13.9879 14.7846C14.0434 14.7457 14.0901 14.6955 14.1249 14.6374C14.1597 14.5792 14.1819 14.5144 14.1899 14.447C14.198 14.3797 14.1917 14.3115 14.1716 14.2468C14.1515 14.182 14.118 14.1222 14.0733 14.0713C14.0285 14.0204 13.9735 13.9795 13.9119 13.9513C13.8502 13.9231 13.7833 13.9081 13.7156 13.9075C13.6478 13.9069 13.5806 13.9205 13.5185 13.9476C13.4563 13.9747 13.4006 14.0146 13.3549 14.0646L13.2251 14.1726C13.019 14.3433 12.7677 14.4504 12.5019 14.4811C12.236 14.5117 11.9669 14.4645 11.7274 14.3451C11.4824 14.2284 11.2754 14.0448 11.1302 13.8155C10.985 13.5862 10.9076 13.3205 10.9069 13.0491V10.5726H13.7509ZM18.4309 13.3664C18.4404 13.32 18.4407 13.2722 18.4317 13.2257C18.4227 13.1792 18.4046 13.1349 18.3785 13.0954C18.3524 13.0559 18.3187 13.0219 18.2794 12.9955C18.2402 12.969 18.1961 12.9505 18.1496 12.9411H17.9696C17.8896 12.9408 17.8118 12.9677 17.7491 13.0175C17.6864 13.0673 17.6425 13.1369 17.6246 13.2149C17.4499 13.9792 17.1171 14.6985 16.6476 15.3264C16.178 15.9543 15.5822 16.477 14.8985 16.8607C14.2148 17.2444 13.4583 17.4808 12.6777 17.5545C11.8972 17.6282 11.1098 17.5376 10.3664 17.2886C9.62291 17.0396 8.93983 16.6377 8.36109 16.1088C7.78235 15.5798 7.32078 14.9355 7.00609 14.2174C6.6914 13.4993 6.53056 12.7232 6.53392 11.9392C6.53729 11.1552 6.70479 10.3805 7.02564 9.66513C7.28372 9.0421 7.66202 8.47603 8.13894 7.99924C8.61586 7.52245 9.18204 7.1443 9.80514 6.88638C11.0208 6.34366 12.3888 6.24684 13.6688 6.61295C14.9487 6.97906 16.0586 7.78467 16.8034 8.88813C16.8561 8.96506 16.9366 9.01852 17.028 9.03727C17.1193 9.05601 17.2144 9.03858 17.2931 8.98864L17.3576 8.94513C17.4441 8.89046 17.5056 8.80387 17.5286 8.70417C17.5516 8.60447 17.5344 8.4997 17.4806 8.41263C16.6682 7.21679 15.4792 6.32697 14.1028 5.88474C12.7263 5.44251 11.2416 5.47328 9.88464 5.97213C9.02382 6.26798 8.24047 6.75343 7.59244 7.39263C6.94441 8.03184 6.44826 8.80846 6.14064 9.66513C5.82094 10.4921 5.67555 11.3762 5.71358 12.2621C5.75161 13.1479 5.97224 14.0163 6.36164 14.8128C6.75105 15.6094 7.30082 16.3169 7.97649 16.891C8.65215 17.4651 9.43915 17.8934 10.2881 18.1491C11.1371 18.4047 12.0297 18.4823 12.9101 18.3767C13.7904 18.2712 14.6394 17.985 15.404 17.536C16.1685 17.0869 16.832 16.4848 17.3528 15.7673C17.8737 15.0498 18.2407 14.2324 18.4309 13.3664ZM12.5126 3.43713H11.7926C10.4917 3.4918 9.22018 3.84178 8.07449 4.46057C6.92879 5.07936 5.93892 5.95074 5.17984 7.00872C4.42075 8.0667 3.91236 9.28353 3.69316 10.5671C3.47396 11.8506 3.5497 13.1672 3.91464 14.4171C3.94617 14.5213 4.01777 14.6086 4.1137 14.6599C4.20962 14.7113 4.32201 14.7224 4.42614 14.6909H4.48389C4.57094 14.6488 4.64035 14.5774 4.67987 14.4892C4.71939 14.4009 4.72648 14.3016 4.69989 14.2086C4.22287 12.5748 4.29609 10.8296 4.90827 9.24146C5.52046 7.65337 6.63767 6.31052 8.0879 5.41966C9.53813 4.5288 11.241 4.13932 12.9343 4.31117C14.6276 4.48303 16.2175 5.2067 17.4591 6.37077C18.7008 7.53484 19.5254 9.07477 19.8061 10.7535C20.0867 12.4322 19.8078 14.1566 19.0122 15.6612C18.2167 17.1659 16.9486 18.3673 15.4033 19.0806C13.858 19.7938 12.121 19.9794 10.4599 19.6086C10.388 19.5934 10.3133 19.5988 10.2444 19.6243C10.1755 19.6498 10.1153 19.6943 10.0706 19.7526C10.0261 19.8082 9.99646 19.8742 9.98459 19.9444C9.97272 20.0146 9.979 20.0867 10.0028 20.1538C10.0266 20.2209 10.0672 20.2808 10.1207 20.3278C10.1742 20.3748 10.2388 20.4074 10.3084 20.4224C11.4531 20.6321 12.6286 20.6067 13.7632 20.3475C14.8977 20.0884 15.9677 19.6011 16.9079 18.9152C17.8481 18.2293 18.6388 17.3592 19.232 16.3579C19.8251 15.3566 20.2082 14.245 20.358 13.0909C20.5078 11.9368 20.4211 10.7643 20.1032 9.64474C19.7853 8.52521 19.2428 7.4821 18.5088 6.57894C17.7749 5.67578 16.8647 4.93147 15.8339 4.39134C14.803 3.8512 13.673 3.52654 12.5126 3.43713Z" fill="#1A1F36"/>
</svg>
