<svg width="24" height="24" viewBox="0 0 24 24" fill="none"><path fill="#1a1f36" d="M13.75 10.573a.411.411 0 0 0 .037-.82h-2.88v-.72a.476.476 0 0 0-.915 0v.72h-.77a.41.41 0 0 0 0 .82h.77v2.505a2.39 2.39 0 0 0 2.383 2.376 2.33 2.33 0 0 0 1.44-.525l.173-.144a.483.483 0 1 0-.633-.72l-.13.108a1.38 1.38 0 0 1-1.498.172 1.44 1.44 0 0 1-.82-1.296v-2.476zm4.68 2.793a.36.36 0 0 0-.28-.425h-.18a.35.35 0 0 0-.345.274 5.616 5.616 0 1 1-10.6-3.55 5.13 5.13 0 0 1 2.78-2.779 5.66 5.66 0 0 1 6.998 2.002.36.36 0 0 0 .49.1l.065-.043a.39.39 0 0 0 .123-.532 6.48 6.48 0 0 0-7.596-2.44A6.08 6.08 0 0 0 6.14 9.664a6.436 6.436 0 1 0 12.29 3.701m-5.917-9.929h-.72a8.582 8.582 0 0 0-7.878 10.98.41.41 0 0 0 .511.274h.058a.41.41 0 0 0 .216-.482 7.762 7.762 0 1 1 5.76 5.4.39.39 0 0 0-.39.144.42.42 0 0 0 .238.67 8.575 8.575 0 1 0 2.205-16.986"/></svg>