<svg width="40" height="40" viewBox="0 0 40 40" fill="none" xmlns="http://www.w3.org/2000/svg">
    <path
        d="M0 0C13.3333 0 26.6667 0 40 0C40 13.3333 40 26.6667 40 40C26.6667 40 13.3333 40 0 40C0 26.6667 0 13.3333 0 0ZM9.57056 24.9247C10.6165 24.9247 11.6615 24.9264 12.7074 24.9238C13.2416 24.9229 13.7255 24.7662 14.1368 24.4191C14.9723 23.7134 15.1671 22.5827 14.6199 21.6294C14.1039 20.7307 13.5853 19.8346 13.0675 18.9368C12.5203 17.9896 11.9905 17.0312 11.4208 16.097C10.568 14.6978 8.51082 14.7429 7.69697 16.1628C7.34719 16.7732 6.99481 17.381 6.64329 17.9905C5.92641 19.2338 5.20173 20.4736 4.49697 21.7229C4.04069 22.5325 4.19307 23.5758 4.83636 24.245C5.27879 24.7056 5.82511 24.9221 6.45887 24.9229C7.4961 24.9264 8.53333 24.9247 9.57056 24.9247ZM30.9385 18.8597C30.8485 18.8649 30.7481 18.8675 30.6494 18.8779C30.0978 18.9333 29.5939 19.11 29.1758 19.4866C28.6156 19.9905 28.3861 20.6303 28.4026 21.3732C28.4277 22.5368 29.1636 23.4364 30.303 23.6658C31.0147 23.8095 31.7065 23.7455 32.3455 23.3775C33.7074 22.5931 33.7333 20.7974 33.0338 19.8468C32.5169 19.1455 31.7905 18.8779 30.9385 18.8597ZM18.6788 18.1723C18.6788 19.9948 18.6788 21.8 18.6788 23.6052C19.1801 23.6052 19.6667 23.6052 20.1688 23.6052C20.1688 21.7922 20.1688 19.987 20.1688 18.1688C20.8208 18.1688 21.4554 18.1688 22.0926 18.1688C22.0926 17.703 22.0926 17.2511 22.0926 16.8C20.3048 16.8 18.5255 16.8 16.7463 16.8C16.7463 17.2632 16.7463 17.7143 16.7463 18.1732C17.3905 18.1723 18.0225 18.1723 18.6788 18.1723ZM23.6848 23.613C23.6848 23.4814 23.684 23.3576 23.6848 23.2338C23.6892 22.6087 23.6771 21.9836 23.7048 21.3602C23.7273 20.8372 24.0623 20.4693 24.5645 20.3853C24.7965 20.3463 25.0372 20.3567 25.2745 20.3455C25.3264 20.3429 25.3792 20.3455 25.4381 20.3455C25.4381 19.8874 25.4381 19.4485 25.4381 18.9991C24.7186 18.8623 24.0805 18.9229 23.6797 19.6736C23.658 19.4701 23.6364 19.297 23.6216 19.1229C23.6147 19.0407 23.5844 19.0095 23.4978 19.0113C23.1229 19.0156 22.7481 19.013 22.3732 19.0139C22.342 19.0139 22.31 19.0208 22.2797 19.0251C22.2797 20.5602 22.2797 22.0857 22.2797 23.6147C22.7498 23.613 23.2095 23.613 23.6848 23.613ZM26.168 19.0052C26.168 20.5463 26.168 22.0771 26.168 23.6121C26.6407 23.6121 27.1039 23.6121 27.5706 23.6121C27.5706 22.0727 27.5706 20.542 27.5706 19.0052C27.1022 19.0052 26.6416 19.0052 26.168 19.0052ZM35.7524 22.9048C35.7533 22.4459 35.3827 22.0753 34.9203 22.071C34.4494 22.0675 34.0719 22.4338 34.0693 22.8996C34.0667 23.361 34.4476 23.7368 34.9143 23.7351C35.3758 23.7333 35.7515 23.3602 35.7524 22.9048ZM26.0485 17.4632C26.0511 17.9455 26.4043 18.2892 26.8926 18.2874C27.3056 18.2857 27.6684 17.9048 27.6649 17.4788C27.6606 17.0225 27.3074 16.6701 26.8554 16.6727C26.4009 16.6745 26.0459 17.0216 26.0485 17.4632Z"
        fill="black" />
    <path
        d="M7.44496 20.8415C7.41639 19.7177 8.37137 18.7394 9.52202 18.7125C10.7315 18.6848 11.6995 19.6112 11.7168 20.8528C11.7324 21.9662 10.8727 22.9324 9.67353 22.9922C8.42505 23.0545 7.42764 22.0433 7.44496 20.8415Z"
        fill="black" />
    <path
        d="M32.0528 21.2166C32.0545 21.8659 31.7333 22.317 31.2346 22.4192C30.4078 22.5888 29.7506 22.0668 29.8398 21.1343C29.9368 20.123 30.9809 19.936 31.5575 20.3005C31.9194 20.5282 32.0441 20.8841 32.0528 21.2166Z"
        fill="black" />
</svg>