<svg width="24" height="24" viewBox="0 0 24 24" fill="none"><path fill="#ff4a4a" d="M14.524 14.243h-.759a.26.26 0 0 1-.26-.26v-1.997l-1.33.83a.34.34 0 0 1-.365 0l-1.322-.83v1.997a.26.26 0 0 1-.26.26h-.752a.26.26 0 0 1-.26-.26V10.13a.345.345 0 0 1 .345-.345q.104 0 .189.064l2.095 1.441a.24.24 0 0 0 .289 0l2.095-1.441a.348.348 0 0 1 .541.28v3.854a.245.245 0 0 1-.149.24.3.3 0 0 1-.097.02m-6.44-.007h-4.71a.345.345 0 0 1-.346-.345v-3.874a.265.265 0 0 1 .267-.26h.76c.14 0 .26.113.26.26v2.946H7.17v-2.946a.26.26 0 0 1 .26-.26h.739a.26.26 0 0 1 .26.26v3.875a.345.345 0 0 1-.345.344m7.832-4.479h4.712a.345.345 0 0 1 .344.345v3.874c0 .14-.113.26-.254.26h-.759a.26.26 0 0 1-.26-.26v-2.777a.17.17 0 0 0-.169-.17h-2.51a.17.17 0 0 0-.169.17v2.777a.26.26 0 0 1-.26.26h-.759a.26.26 0 0 1-.26-.26V10.1a.345.345 0 0 1 .345-.344"/><path fill="#ff4a4a" d="M17.892 11.845h.753c.14 0 .26.113.26.26v.767a.26.26 0 0 1-.26.26h-.753a.26.26 0 0 1-.26-.26v-.773c0-.141.12-.254.26-.254"/></svg>