<svg width="24" height="24" viewBox="0 0 24 24" fill="none"><path fill="#2775c9" d="M12 20.813A8.81 8.81 0 0 1 3.188 12 8.81 8.81 0 0 1 12 3.188a8.812 8.812 0 1 1 0 17.625M11.475 8.73a1.935 1.935 0 0 0-1.838 1.852c0 .908.556 1.5 1.733 1.748l.825.195c.803.188 1.133.457 1.133.915s-.578.908-1.328.908a1.43 1.43 0 0 1-1.35-.683.51.51 0 0 0-.457-.292H9.75a.26.26 0 0 0-.21.307 2.05 2.05 0 0 0 1.958 1.56v.63a.529.529 0 0 0 1.057 0v-.637a1.965 1.965 0 0 0 1.943-1.936c0-.952-.548-1.5-1.845-1.777l-.75-.165c-.75-.187-1.103-.435-1.103-.855s.45-.885 1.2-.885a1.23 1.23 0 0 1 1.193.607.6.6 0 0 0 .54.346h.352a.315.315 0 0 0 .232-.375 1.99 1.99 0 0 0-1.784-1.5v-.518a.529.529 0 1 0-1.058 0zM5.393 12a6.59 6.59 0 0 0 4.5 6.247h.104a.337.337 0 0 0 .338-.337v-.157A.71.71 0 0 0 9.9 17.1a5.52 5.52 0 0 1 0-10.237.7.7 0 0 0 .435-.646v-.172a.314.314 0 0 0-.42-.3A6.59 6.59 0 0 0 5.393 12m13.215 0a6.59 6.59 0 0 0-4.5-6.24h-.113a.353.353 0 0 0-.352.353v.112a.75.75 0 0 0 .457.675 5.52 5.52 0 0 1 0 10.23.75.75 0 0 0-.45.668v.127a.352.352 0 0 0 .465.33A6.59 6.59 0 0 0 18.608 12"/></svg>