<svg width="40" height="40" viewBox="0 0 40 40" fill="none" xmlns="http://www.w3.org/2000/svg">
    <path fill-rule="evenodd" clip-rule="evenodd"
        d="M26.9356 11.3301H21.7344V6.12817H18.2656V11.3301H16.5324C15.8493 11.3301 15.1729 11.4646 14.5418 11.726C13.9107 11.9874 13.3373 12.3706 12.8543 12.8536C12.3713 13.3366 11.9882 13.91 11.7268 14.5411C11.4654 15.1722 11.3308 15.8486 11.3308 16.5316C11.3308 17.2147 11.4654 17.8911 11.7268 18.5222C11.9882 19.1533 12.3713 19.7267 12.8543 20.2097C13.3373 20.6927 13.9107 21.0759 14.5418 21.3373C15.1729 21.5987 15.8493 21.7332 16.5324 21.7332H18.2656V18.2652H16.5324C16.0725 18.2652 15.6315 18.0826 15.3063 17.7574C14.9811 17.4322 14.7984 16.9912 14.7984 16.5313C14.7984 16.0714 14.9811 15.6304 15.3063 15.3052C15.6315 14.98 16.0725 14.7973 16.5324 14.7973H26.9356L26.9356 11.3301ZM13.0637 28.6698H18.2656V33.8718H21.7344V28.6698H23.4683C24.8481 28.6698 26.1713 28.1217 27.1469 27.1461C28.1225 26.1705 28.6706 24.8473 28.6706 23.4675C28.6706 22.0878 28.1225 20.7646 27.1469 19.789C26.1713 18.8133 24.8481 18.2652 23.4683 18.2652H21.7344V21.7332H23.4683C23.9281 21.7336 24.3689 21.9164 24.6938 22.2416C25.0188 22.5669 25.2013 23.0078 25.2013 23.4675C25.2013 23.9273 25.0188 24.3682 24.6938 24.6934C24.3689 25.0186 23.9281 25.2015 23.4683 25.2019H13.0637V28.6698Z"
        fill="black" />
</svg>