<svg width="24" height="24" viewBox="0 0 24 24" fill="none"><path fill="#00a478" fill-rule="evenodd" d="M13.473 12.501c-.083.006-.508.031-1.457.031a32 32 0 0 1-1.478-.031v.002c-2.916-.128-5.092-.636-5.092-1.243s2.176-1.115 5.092-1.245v1.983c.19.013.737.045 1.491.045.906 0 1.36-.037 1.444-.045v-1.982c2.91.13 5.081.638 5.081 1.244 0 .607-2.171 1.113-5.081 1.242m0-2.692V8.034h4.06V5.328H6.479v2.706h4.06v1.774c-3.3.152-5.782.806-5.782 1.589s2.482 1.436 5.782 1.588v5.687h2.935v-5.688c3.295-.152 5.77-.805 5.77-1.587 0-.783-2.475-1.436-5.77-1.588" clip-rule="evenodd"/></svg>