<?xml version="1.0" encoding="UTF-8"?>
<svg xmlns:xodm="http://www.corel.com/coreldraw/odm/2003" xmlns="http://www.w3.org/2000/svg" xmlns:xlink="http://www.w3.org/1999/xlink" version="1.1" id="Layer_1" x="0px" y="0px" viewBox="0 0 2500 2500" style="enable-background:new 0 0 2500 2500;" xml:space="preserve">
<style type="text/css">
	.st0{fill:none;}
	.st1{fill:#093DAC;}
	.st2{fill:#5492F7;}
	.st3{fill-rule:evenodd;clip-rule:evenodd;fill:#D01E43;}
	.st4{fill-rule:evenodd;clip-rule:evenodd;fill:#16488B;}
	.st5{fill-rule:evenodd;clip-rule:evenodd;fill:#FEFEFE;}
</style>
<g id="Layer_x0020_1">
	<g id="_2203023491520">
		<g>
			<rect y="0" class="st0" width="2500" height="2500"></rect>
			<path class="st1" d="M1075,1985c69,253,314,447,438,439c4,0,471-87,726-514c199-332,131-652-139-659     C2003,1258,944,1503,1075,1985z"></path>
			<path class="st1" d="M2075,357L2075,357L2075,357c-207-176-475-283-769-283c-171,0-334,37-481,102c-26,11-52,23-75,37     c-17,9-33,18-49,27l4,1c-49,34-91,73-125,118c-340,450,801,777,1410,778c281,201,359-567,85-781V357z"></path>
			<path class="st2" d="M894,367C737,603,215,769,129,743c0,0,0-1-1-1c4-7,7-14,11-21c30-57,64-112,102-164s80-100,125-146     c45-45,94-87,146-125c32-24,65-46,100-66c73-42,148-45,173-46c233,4,111,191,110,193H894z"></path>
			<path class="st2" d="M766,2031c11,74,0,366-15,391c-13,1-40,2-119-42c-41-24-81-49-119-77c-52-38-100-80-146-125     c-45-45-87-94-125-146s-72-106-102-164c-30-57-55-117-76-179s-37-126-47-192c-11-66-16-134-16-203s6-137,16-203     c11-66,27-130,47-192c4-13,9-25,13-37l0,0c90,120,194,228,283,349c84,115,201,303,224,343c147,249,170,403,181,477H766z"></path>
			<path class="st2" d="M2500,1294c0,162-31,317-87,459c-147,158-1140-231-1150-236c-136-59-549-241-586-525     c-54-409,776-694,1141-705c44,1,177,2,254,65c262,229,427,566,427,941L2500,1294z"></path>
			<path class="st2" d="M1828,2403c-108,51-227,14-196-92c59-202,578-410,693-421c14-1,20,8,14,19c-119,209-296,382-510,494H1828z"></path>
		</g>
		<g>
			<path class="st3" d="M563,2500h1937v-93H563V2500z M563,2314h1937v-93H563V2314z M563,2128h1937v-93H563V2128z M1483,1942h1017     v-93H1483V1942z M1483,1756h1017v-93H1483V1756z M1483,1570h1017v-93H1483V1570z M1483,1291v93h1017v-93H1483z"></path>
			<polygon class="st4" points="563,1290 1483,1290 1483,1941 563,1941    "></polygon>
			<path class="st5" d="M848,1580l22-16l22,16l-8-26l22-16h-27l-8-26l-8,26h-27l22,16l-8,26H848z M848,1710l22-16l22,16l-8-26l22-16     h-27l-8-26l-8,26h-27l22,16l-8,26H848z M771,1384l22-16l22,16l-8-26l22-16h-27l-8-26l-8,26h-27l22,16l-8,26H771z M848,1449l22-16     l22,16l-8-26l22-16h-27l-8-26l-8,26h-27l22,16l-8,26H848z M848,1840l22-16l22,16l-8-26l22-16h-27l-8-26l-8,26h-27l22,16l-8,26     H848z M925,1644l22-16l22,16l-8-26l22-16h-27l-8-26l-8,26h-27l22,16l-8,26H925z M925,1905l22-16l22,16l-8-26l22-16h-27l-8-26     l-8,26h-27l22,16l-8,26H925z M1002,1840l22-16l22,16l-8-26l22-16h-27l-8-26l-8,26h-27l22,16l-8,26H1002z M925,1384l22-16l22,16     l-8-26l22-16h-27l-8-26l-8,26h-27l22,16l-8,26H925z M925,1775l22-16l22,16l-8-26l22-16h-27l-8-26l-8,26h-27l22,16l-8,26H925z      M925,1514l22-16l22,16l-8-26l22-16h-27l-8-26l-8,26h-27l22,16l-8,26H925z M772,1514l22-16l22,16l-8-26l22-16h-27l-8-26l-8,26     h-27l22,16l-8,26H772z M695,1840l22-16l22,16l-8-26l22-16h-27l-8-26l-8,26h-27l22,16l-8,26H695z M618,1384l22-16l22,16l-8-26     l22-16h-27l-8-26l-8,26h-27l22,16l-8,26H618z M618,1514l22-16l22,16l-8-26l22-16h-27l-8-26l-8,26h-27l22,16l-8,26H618z M618,1644     l22-16l22,16l-8-26l22-16h-27l-8-26l-8,26h-27l22,16l-8,26H618z M618,1774l22-16l22,16l-8-26l22-16h-27l-8-26l-8,26h-27l22,16     l-8,26H618z M618,1904l22-16l22,16l-8-26l22-16h-27l-8-26l-8,26h-27l22,16l-8,26H618z M695,1708l22-16l22,16l-8-26l22-16h-27     l-8-26l-8,26h-27l22,16l-8,26H695z M1002,1708l22-16l22,16l-8-26l22-16h-27l-8-26l-8,26h-27l22,16l-8,26H1002z M772,1773l22-16     l22,16l-8-26l22-16h-27l-8-26l-8,26h-27l22,16l-8,26H772z M772,1903l22-16l22,16l-8-26l22-16h-27l-8-26l-8,26h-27l22,16l-8,26     H772z M772,1642l22-16l22,16l-8-26l22-16h-27l-8-26l-8,26h-27l22,16l-8,26H772z M695,1577l22-16l22,16l-8-26l22-16h-27l-8-26     l-8,26h-27l22,16l-8,26H695z M695,1447l22-16l22,16l-8-26l22-16h-27l-8-26l-8,26h-27l22,16l-8,26H695z M1385,1643l22-16l22,16     l-8-26l22-16h-27l-8-26l-8,26h-27l22,16l-8,26H1385z M1232,1643l22-16l22,16l-8-26l22-16h-27l-8-26l-8,26h-27l22,16l-8,26H1232z      M1309,1839l22-16l22,16l-8-26l22-16h-27l-8-26l-8,26h-27l22,16l-8,26H1309z M1232,1383l22-16l22,16l-8-26l22-16h-27l-8-26l-8,26     h-27l22,16l-8,26H1232z M1232,1513l22-16l22,16l-8-26l22-16h-27l-8-26l-8,26h-27l22,16l-8,26H1232z M1309,1578l22-16l22,16l-8-26     l22-16h-27l-8-26l-8,26h-27l22,16l-8,26H1309z M1309,1708l22-16l22,16l-8-26l22-16h-27l-8-26l-8,26h-27l22,16l-8,26H1309z      M1386,1382l22-16l22,16l-8-26l22-16h-27l-8-26l-8,26h-27l22,16l-8,26H1386z M1309,1447l22-16l22,16l-8-26l22-16h-27l-8-26l-8,26     h-27l22,16l-8,26H1309z M1386,1512l22-16l22,16l-8-26l22-16h-27l-8-26l-8,26h-27l22,16l-8,26H1386z M1386,1773l22-16l22,16l-8-26     l22-16h-27l-8-26l-8,26h-27l22,16l-8,26H1386z M1386,1903l22-16l22,16l-8-26l22-16h-27l-8-26l-8,26h-27l22,16l-8,26H1386z      M1156,1447l22-16l22,16l-8-26l22-16h-27l-8-26l-8,26h-27l22,16l-8,26H1156z M1079,1773l22-16l22,16l-8-26l22-16h-27l-8-26l-8,26     h-27l22,16l-8,26H1079z M1079,1512l22-16l22,16l-8-26l22-16h-27l-8-26l-8,26h-27l22,16l-8,26H1079z M1079,1642l22-16l22,16l-8-26     l22-16h-27l-8-26l-8,26h-27l22,16l-8,26H1079z M1002,1446l22-16l22,16l-8-26l22-16h-27l-8-26l-8,26h-27l22,16l-8,26H1002z      M1079,1902l22-16l22,16l-8-26l22-16h-27l-8-26l-8,26h-27l22,16l-8,26H1079z M1232,1902l22-16l22,16l-8-26l22-16h-27l-8-26l-8,26     h-27l22,16l-8,26H1232z M1002,1576l22-16l22,16l-8-26l22-16h-27l-8-26l-8,26h-27l22,16l-8,26H1002z M1232,1772l22-16l22,16l-8-26     l22-16h-27l-8-26l-8,26h-27l22,16l-8,26H1232z M1155,1837l22-16l22,16l-8-26l22-16h-27l-8-26l-8,26h-27l22,16l-8,26H1155z      M1078,1381l22-16l22,16l-8-26l22-16h-27l-8-26l-8,26h-27l22,16l-8,26H1078z M1155,1577l22-16l22,16l-8-26l22-16h-27l-8-26l-8,26     h-27l22,16l-8,26H1155z M1155,1707l22-16l22,16l-8-26l22-16h-27l-8-26l-8,26h-27l22,16l-8,26H1155z M1483,1658h1017v-93H1483     V1658z M1483,1379v93h1017v-93H1483z M1483,1845h1017v-93H1483V1845z M563,2031h1937v-93H563V2031z M563,2403h1937v-93H563V2403z      M563,2217h1937v-93H563V2217z"></path>
		</g>
	</g>
</g>
</svg>
