<svg width="32" height="32" viewBox="0 0 32 32" fill="none" xmlns="http://www.w3.org/2000/svg">
<path d="M16.6445 16.0036L17.6999 17.1048L18.7438 16.0036L17.6999 14.9023L16.6445 16.0036Z" fill="#FC5101"/>
<path d="M17.1843 11.6094C17.9529 10.8007 18.1594 9.65928 17.7235 8.63262C17.431 7.95008 16.909 7.44535 16.2609 7.17578C15.6128 7.43962 15.0908 7.95008 14.7983 8.63262C14.3567 9.65928 14.5632 10.8007 15.3375 11.6094L16.2609 12.5787L17.1843 11.6094Z" fill="#FC5101"/>
<path d="M15.2061 17.5075L16.2614 18.6087L17.311 17.5075L16.2614 16.4062L15.2061 17.5075Z" fill="#FC5101"/>
<path d="M18.2401 8.41095C18.7678 9.6441 18.5212 11.0206 17.592 11.99L16.6514 12.9822L17.701 14.0834L20.0526 11.6171C20.8269 10.8084 21.0333 9.66131 20.5917 8.63464C20.2074 7.73989 19.4331 7.14339 18.4982 7H17.1045C17.592 7.34413 17.9878 7.82592 18.2401 8.41095Z" fill="#FC5101"/>
<path d="M21.096 8.41669C21.6294 9.65557 21.3771 11.0321 20.4479 12.0072L18.0791 14.4907L19.1287 15.5919L22.7077 11.8408C23.5164 10.992 23.7344 9.79322 23.2698 8.71494C22.8683 7.78004 22.0481 7.14912 21.0731 7H19.9546C20.4479 7.34413 20.8436 7.82592 21.096 8.41669Z" fill="#FC5101"/>
<path d="M11.937 8.64245C11.4954 9.67485 11.7018 10.8162 12.4761 11.6249L14.8277 14.0912L15.8773 12.99L14.9367 11.9978C14.0075 11.0227 13.7609 9.65191 14.2886 8.41876C14.5409 7.83373 14.9367 7.35195 15.4242 7.00781H14.0305C13.1013 7.1512 12.3213 7.75344 11.937 8.64245Z" fill="#FC5101"/>
<path d="M14.8278 14.9023L13.7725 16.0036L14.8278 17.1048L15.8717 16.0036L14.8278 14.9023Z" fill="#FC5101"/>
<path d="M17.311 14.4879L16.2614 13.3867L15.2061 14.4879L16.2614 15.5892L17.311 14.4879Z" fill="#FC5101"/>
<path d="M20.58 23.359C21.0216 22.3265 20.8151 21.1852 20.0408 20.3765L17.6893 17.9102L16.6396 19.0114L17.5803 20.0036C18.5094 20.9787 18.7561 22.3495 18.2284 23.5826C17.976 24.1677 17.5803 24.6495 17.0928 24.9936H18.4865C19.4157 24.8502 20.1957 24.248 20.58 23.359Z" fill="#FC5101"/>
<path d="M23.2757 23.2832C23.7402 22.2049 23.5223 21.0062 22.7136 20.1573L19.1346 16.4062L18.085 17.5075L20.4538 19.991C21.3829 20.966 21.6295 22.3426 21.1019 23.5815C20.8495 24.1722 20.4538 24.654 19.9605 24.9981H21.0789C22.054 24.849 22.8742 24.2238 23.2757 23.2832Z" fill="#FC5101"/>
<path d="M15.3375 20.3873C14.5689 21.196 14.3624 22.3374 14.7983 23.364C15.0908 24.0466 15.6128 24.5513 16.2609 24.8209C16.909 24.557 17.431 24.0466 17.7235 23.364C18.1651 22.3374 17.9586 21.196 17.1843 20.3873L16.2609 19.418L15.3375 20.3873Z" fill="#FC5101"/>
<path d="M11.4206 23.5815C10.8872 22.3426 11.1395 20.966 12.0687 19.991L14.4375 17.5075L13.3879 16.4062L9.80886 20.1573C9.00015 21.0062 8.7822 22.2049 9.24678 23.2832C9.64827 24.2181 10.4685 24.849 11.4435 24.9981H12.5619C12.0687 24.654 11.6729 24.1722 11.4206 23.5815Z" fill="#FC5101"/>
<path d="M9.24092 8.71494C8.77634 9.79322 8.99429 10.992 9.803 11.8408L13.382 15.5919L14.4316 14.4907L12.0628 12.0072C11.1337 11.0321 10.887 9.65557 11.4147 8.41669C11.6671 7.82592 12.0628 7.34413 12.5561 7H11.4376C10.4626 7.14912 9.64241 7.7743 9.24092 8.71494Z" fill="#FC5101"/>
<path d="M14.2886 23.5904C13.7609 22.3573 14.0075 20.9808 14.9367 20.0115L15.8773 19.0192L14.8277 17.918L12.4761 20.3843C11.7018 21.193 11.4954 22.3401 11.937 23.3668C12.3213 24.2615 13.0956 24.858 14.0305 25.0014H15.4242C14.9367 24.6573 14.5409 24.1755 14.2886 23.5904Z" fill="#FC5101"/>
</svg>