<svg width="24" height="24" viewBox="0 0 24 24"><path fill-rule="evenodd" d="m11.294.356-.334.027C6.675.711 2.602 3.92 1.165 8.097c-.561 1.632-.722 2.88-.631 4.899.031.708.244 1.883.456 2.523.565 1.711 1.364 3.154 2.36 4.264.839.936 2.169 2.089 2.566 2.226a.6.6 0 0 1 .153.09c.345.295 1.932 1.018 2.832 1.29 1.242.375 1.976.452 3.841.401.98-.026 1.182-.052 2.11-.27 1.55-.364 3.525-1.408 4.808-2.543 1.929-1.707 3.089-3.678 3.731-6.341.348-1.447.339-3.817-.022-5.282-1.033-4.206-4.119-7.447-8.212-8.627-.968-.279-2.88-.463-3.863-.371m1.498.254c1.206.06 1.747.152 2.727.471 3.958 1.286 7.051 4.863 7.765 8.978.217 1.26.149 3.548-.142 4.705-1.127 4.482-4.412 7.7-8.844 8.663-.981.213-2.874.259-3.962.095-1.494-.224-3.264-.924-4.594-1.814-.916-.613-2.473-2.178-3.073-3.088C.515 15.352.087 11.356 1.511 7.784 2.973 4.115 6.13 1.486 9.987.727c.636-.125 1.71-.17 2.805-.117m-1.656.307c-3.356.152-6.753 2.291-8.541 5.378-.763 1.318-1.447 3.403-1.457 4.44q-.006.538.085-.105a11.115 11.115 0 0 1 8.67-9.31c1.261-.274 3.565-.221 4.844.111 3.178.824 5.69 2.868 7.236 5.891.184.359.263.497.277.482.07-.069-.789-1.72-1.185-2.281-.734-1.041-1.989-2.256-2.985-2.89C15.974 1.29 13.948.79 11.136.917m.282.717-.295.026C5.01 2.208.654 8.095 1.891 14.136c.143.699.395 1.517.456 1.479.028-.018.009-.102-.107-.473-.273-.865-.395-1.791-.395-2.99 0-1.691.233-2.837.852-4.202.153-.337.26-.606.26-.653 0-.017.03-.043.066-.057.054-.023.069-.044.094-.129.067-.227.448-.816.605-.934.045-.032.123-.144.229-.322.169-.287.303-.456.36-.456.05 0 .128.097.363.449.546.821 1.02 1.273 1.702 1.622.28.143.3.117.069-.087-.206-.184-.373-.297-.477-.325-.04-.011-.073-.031-.073-.044 0-.035-.086-.111-.219-.195-.269-.17-.626-.597-.482-.577.097.014.05-.062-.2-.321-.388-.402-.473-.567-.358-.691.059-.062.116-.048.496.12.748.331 1.136.411 1.85.384.418-.016.575-.044.638-.113.077-.083.164-.038.164.085 0 .084.049.108.084.04.037-.073.08-.082.263-.056.173.025.201.015.232-.081.027-.082.112-.133.247-.147.128-.013.136.006.109.264-.027.257-.024.588.008.8.071.469.182.685.182.352 0-.165.052-.481.142-.868.036-.152.074-.341.086-.42.034-.225.037-.226.632-.287.6-.061.943-.124 1.792-.333.452-.11.409-.117.444.072.048.256.155.492.209.46.027-.017.004-.233-.052-.46-.061-.251-.061-.251.366-.356.538-.133.635-.252.151-.188-.163.022-.159.002.016-.07.155-.064.242-.073.316-.03.089.05.143.036.23-.063l.081-.09-.012.078c-.017.112.012.132.154.107.185-.033.328-.097.419-.188.098-.099.105-.1.191-.025.08.07.096.069.4-.051.326-.127.335-.125.472.141.14.271.233.358.297.282.04-.049.005-.115-.152-.285-.322-.345-.234-.381 1.326-.546.083-.009.372-.017.642-.018.823-.002.958.047 1.535.554q.453.4.497.399c.048 0 .064.069.032.146-.088.212-.507.808-.61.868-.06.036-.083.081-.084.162 0 .026-.024.06-.062.086-.298.206-1.026.903-.996.952.093.151 1.29-.974 1.665-1.563.256-.404.455-.603.39-.394-.026.089.006.111.061.042.054-.068.064-.065.077.021.023.135.076.204.655.84.486.535.95 1.279 1.206 1.931.042.109.128.303.189.429.298.608.458 1.314.32 1.411-.126.089-.24.012-.577-.388-.445-.531-.602-.525-1.05.038-.408.511-.657.549-.949.143-.044-.061-.073-.02-.04.056.045.108-.06.153-.144.063l-.038-.041-.101.087c-.055.047-.247.234-.424.415-.608.614-.779.752-.872.697-.042-.024-.078-.028-.179-.017-.111.01-.132.007-.182-.03-.085-.063-.113-.042-.113.083 0 .312-.454-.204-.925-1.048-.193-.346-.202-.36-.225-.336q-.026.025.17.525c.031.082-.225-.031-.411-.181-.104-.084-.138-.101-.228-.111a.8.8 0 0 1-.264-.099c-.136-.073-.162-.081-.195-.06l-.044.023a3 3 0 0 1-.007-.243c-.001-.272-.035-.455-.198-1.073l-.151-.572c-.091-.35-.193-.809-.237-1.082-.061-.367-.08-.324-.08.18 0 .526-.004.502.322 1.884.132.561.22 1.059.185 1.059-.022 0-.077-.129-.223-.529-.201-.557-.244-.625-.279-.452-.034.172-.048.186-.16.174-.129-.013-.141.007-.059.107.13.16.134.198.06.577-.09.467-.1.457.459.434.758-.03.996-.022 1.123.037.398.187.859.745 1.185 1.438l.109.23-.165.991c-.27 1.62-.3 1.737-.456 1.776-.177.043-.173.135.006.123l.097-.006v.07c0 .166-.641.17-1.093.006-.172-.063-.162-.074.095-.103.109-.012.183-.049.145-.071-.064-.037-.473-.132-.499-.115-.075.047-.069 1.175.009 1.838.095.802.017 1.105-.285 1.106-.169 0-.323-.117-.179-.137.037-.006.043-.021.053-.13.007-.068.039-.209.072-.315.098-.319.106-.4.087-.964-.041-1.227-.024-1.564.083-1.579.169-.024.188-.697.03-1.016a3.8 3.8 0 0 1-.283-.8c-.084-.357-.106-.365-.153-.056-.043.286-.043.276 0 .276.065 0 .089.027.164.189.211.449.222.565.097.975-.129.423-.144.638-.089 1.192.123 1.196 0 1.915-.44 2.584-.106.162-.223.298-.557.659-.246.263-.238.318.026.181.206-.108.383-.254.638-.524.284-.3.319-.325.465-.325.176 0 .302-.087.418-.29.125-.22.139-.388.092-1.129-.027-.418-.029-.984-.003-1.05.022-.06.073-.064.139-.011.063.05.073.049.13-.017.1-.113.327-.091.371.036l.023.066h.124c.152 0 .148-.002.175.157.028.172.049.158.099-.067.07-.313.198-.508.198-.3 0 .222-.135.949-.212 1.134-.057.138.352.342.488.243.064-.047.024-.082-.101-.091-.22-.017-.222-.062-.041-1.113.435-2.528.62-3.69.592-3.717-.026-.028-.055.003-.116.123-.102.202-.16.171-.144-.079.019-.295.096-.515.181-.514.099 0 .203.042.265.109.11.117.412-.042.606-.32.083-.117.122-.155.184-.181.134-.054.18-.098.328-.323.246-.374.287-.38.84-.115.357.171.31.203.793-.522.163-.243.305-.442.318-.442.097 0 .449.506.617.886.125.286.079.281.473.056.337-.194.366-.245.289-.511-.399-1.358-1.051-2.74-1.674-3.551-.56-.727-1.583-1.764-2.216-2.241l-.234-.176-.756.01c-1.669.022-3.203.314-5.65 1.072-1.552.482-2.03.605-2.727.704-1.371.197-2.631.127-3.662-.203-.365-.116-.497-.187-.472-.253.025-.064.189-.042.68.097a8.2 8.2 0 0 0 2.505.307c.607-.012 1.086-.076 1.132-.15.036-.06-.047-.067-.894-.078-.995-.014-1.433-.045-2.075-.149-.766-.124-.91-.208-.701-.407.457-.439 2.956-1.074 4.841-1.232l.334-.028c.053-.005.597-.023 1.211-.038 1.183-.031 1.878-.058 2.223-.087.553-.045.995-.039 1.354.02.207.034.658.138.658.151 0 .008-.199.059-.443.114-.685.155-.918.214-.948.242-.054.05.031.05.308-.003.513-.096.559-.104.826-.133.147-.015.598-.037 1.002-.048.796-.022.975-.035.987-.07.026-.079-1.679-.915-2.32-1.139-1.126-.392-3.045-.653-4.057-.552m2.982.447c.222.102.382.162.843.314.979.322 1.965.702 1.965.758 0 .01-.014.013-.031.006-.056-.021-.827-.126-1.736-.237l-.891-.108-.137-.267c-.134-.262-.196-.44-.174-.496.015-.038.012-.038.161.03m-1.942.083c1.063.101 1.793.288 1.905.489.164.294-.709.272-.903-.023-.063-.094-.087-.08-.087.051 0 .173-.075.185-1.383.208l-1.034.022-.463.012V2.16l.204-.02c.288-.028 1.376-.013 1.761.024m-2.103.116c.103.073.049.352-.089.463a.26.26 0 0 0-.093.124c-.022.087-.136.12-.565.167-.929.101-1.58.236-2.763.573-.377.108-.904.246-.936.246-.162 0 2.3-1.249 2.576-1.306a.5.5 0 0 0 .163-.104c.09-.082.165-.135.193-.135.062 0-.025.204-.132.311-.103.104-.124.144-.124.25 0 .129.026.124.191-.033.344-.33 1.381-.694 1.579-.556m2.777 2.311a.8.8 0 0 0 .019.204c.017.097.052.359.078.584.076.655.147.853.202.556.058-.323-.217-1.561-.299-1.344m2.087.495c-.013.012.2.649.247.74.04.076.068.038.06-.08-.004-.06 0-.091.012-.084.064.035.336.3.514.496.214.237.273.285.326.265.055-.022-.089-.197-.562-.69-.273-.283-.491-.535-.533-.616q-.033-.064-.064-.031m.418.099c-.021.034.826.965.928 1.018.171.092-.08-.229-.542-.694-.319-.321-.364-.359-.386-.324m-6.619.264c.015.039-.102.631-.152.766-.105.29-.113-.104-.012-.625.03-.149.128-.234.164-.141m3.343.03c-.078.117-.293.265-.453.311-.041.012-.043.009-.031-.054.015-.078-.051-.127-.171-.127-.083 0-.098.026-.112.189-.02.236-.106.262-.328.097-.182-.134-.212-.111-.123.091.062.141-.036.445-.228.705-.11.15-.128.117-.23-.415-.09-.474-.154-.739-.182-.762-.105-.087-.063.437.086 1.07.064.274.067.303.03.303-.06 0-.252-.267-.469-.657-.283-.506-.337-.518-.218-.049.106.418.435.859.939 1.255.148.117.222.095.138-.04-.067-.111-.046-.194.147-.605.052-.11.124-.285.159-.389.098-.287.231-.404.273-.238q.033.136-.125.686a6 6 0 0 0-.08.304c-.014.147.346-.315.527-.678.073-.148.113-.254.221-.6.02-.064.02-.062.011.028-.063.623.001.703.162.201q.199-.622.359-.199c.051.137.14.257.331.456.335.35.336.366.047 1.063-.145.349-.152.371-.127.387.03.018.126-.129.254-.386.127-.257.149-.278.148-.143-.002.516-.2 1.515-.365 1.841q-.107.209.176-.073c.103-.103.194-.182.2-.175.016.016-.107.227-.288.491-.243.358-.296.477-.21.477.016 0 .054-.037.085-.081.181-.261.241-.25.106.019-.101.202-.193.277-.329.269l-.108-.006-.003.059c-.006.103-.232.454-.309.479-.05.017-.018-.04.092-.157.122-.132.129-.145.086-.181-.072-.059-.558.074-.659.181-.092.098.006.146.216.105.136-.026.15-.016.078.058-.145.151-.82.179-.695.029.013-.017.058-.036.097-.042.252-.041.161-.171-.179-.256-.29-.074-.337-.118-.337-.322 0-.095-.134-.215-.379-.343-.676-.355-1.182-.904-1.256-1.36-.014-.094-.008-.093.248.036.155.077.204.088.204.044 0-.01-.122-.149-.27-.309-.371-.4-.42-.484-.302-.511.039-.009.049-.024.054-.082q.006-.115.203-.196l.075-.031.048.059c.042.052.057.059.111.048.079-.016.085.033.013.108-.064.066-.053.103.06.208.09.082.113.084.113.013 0-.035.008-.04.057-.033.145.02.171.014.178-.042.004-.042.016-.052.053-.052.127 0 .097-.13-.076-.323-.073-.083-.106-.137-.114-.19a2 2 0 0 0-.079-.248c-.075-.193-.081-.241-.035-.292.029-.033.027-.037-.019-.08-.052-.049-.061-.075-.079-.23-.012-.102-.052-.164-.109-.164-.02 0-.076-.038-.123-.087-.126-.126-.141-.098-.088.169.024.118.043.229.043.248-.001.048.055.151.209.394.073.114.138.23.146.259l.013.053-.109-.009c-.206-.017-.273-.135-.401-.71-.065-.295-.125-.469-.162-.469-.13 0-.031.533.184.978.069.144.122.265.118.268-.038.032-.374.132-.455.136-.058.002-.107.014-.111.025-.009.029.061.16.107.199.069.058.074.351.006.374-.064.021-.248-.236-.425-.595-.137-.276-.159-.305-.201-.25-.095.125.032.445.343.864.309.416.368.521.434.76.102.371.363.913.492 1.022.106.089.041.7-.114 1.044-.072.161-.1.163-.113.009-.013-.156-.05-.149-.12.021-.416 1.02-.739 1.65-.918 1.794-.122.098-.403.558-.389.636.017.086.05.053.346-.356.132-.183.169-.207.144-.098a7 7 0 0 1-.167.5.5.5 0 0 0-.021.153c-.001.128-.044.219-.186.395-.145.179-.457.489-.474.472-.068-.068.001-.666.157-1.368.227-1.024.216-1.163-.039-.484-.363.962-.584 1.871-.558 2.286.023.394.273 1.129.355 1.048.015-.015.01-.045-.017-.106-.057-.129-.084-.338-.084-.656-.001-.407.011-.434.298-.673.082-.066.078-.053-.036.122-.159.246-.126.252.152.027.287-.232.344-.31.277-.377-.091-.091.502-.493 1.423-.968.802-.413 1.096-.6 1.243-.794.185-.242.481-.276.663-.074.181.2.043.572-.213.572-.166 0-.221.162-.321.959-.034.264-.051.31-.078.205-.018-.069-.049-.076-.066-.015-.016.059-.016.899 0 1.007.011.073.019.085.055.082.054-.006.071.046.12.375.1.66.375 1.893.516 2.313.046.137.046.133-.009.119-.066-.017-.076.019-.038.131.045.129.063.151.113.139.038-.01.041-.004.04.098-.001.195.168.476.273.454.05-.011.091.009.218.111.149.118.141.032-.028-.312-.151-.308-.246-.571-.246-.677 0-.055-.013-.083-.058-.125-.079-.074-.102-.153-.18-.629-.097-.581-.169-.931-.245-1.173-.225-.72-.231-2.035-.012-2.357.05-.07.058-.097.048-.157-.023-.147.127-.357.253-.357.058 0 .085.02.212.153.115.12.158.152.201.152.05 0 .052.004.042.067-.009.058-.005.071.031.084.057.022.095.068.157.193.072.142.256.389.276.369.009-.01-.001-.068-.022-.131a.4.4 0 0 1-.028-.177c.013-.083-.094-.296-.287-.57l-.286-.405c-.129-.182-.139-.203-.128-.27.021-.133-.136-.4-.234-.4-.079 0 .012-.353.183-.719.129-.274.149-.192.038.156-.085.27-.089.31-.033.332.037.014.051.037.061.101a.65.65 0 0 0 .195.321c.082.071.119.057.064-.025-.186-.283-.201-.516-.048-.732l.117-.165c.04-.055.047-.077.029-.095-.03-.03-.077 0-.117.074-.08.144-.123.049-.063-.139.042-.132.029-.144-.171-.155-.335-.016-.418.03-.529.296-.121.291-.225.479-.298.534-.038.03-.134.107-.213.174-.236.197-.566.372-1.216.644-.717.3-.965.451-1.027.624l-.029.08-.001-.07c-.004-.183.295-.843.946-2.085l.09-.172.673-.333c.749-.368.706-.359.725-.155.025.277.112.315.703.316.924 0 1.223-.271 1.6-1.449.26-.812.363-1.072.429-1.093.041-.014.011.113-.066.281-.083.18-.059.215.049.07a.5.5 0 0 0 .12-.391c-.009-.107-.007-.117.027-.117.137 0 .224-.392.225-1.021 0-.391-.027-.637-.076-.676-.041-.036-.047-.001-.066.394-.037.78-.18 1.25-.519 1.707a2 2 0 0 1-.102.13c-.003 0 .025-.083.061-.185.223-.622.172-2.289-.068-2.261-.08.008-.497-.465-.473-.538.004-.011.041-.027.081-.037.126-.027.131-.03.11-.052-.064-.064-.382-.075-.436-.017-.071.079-.128.051-.121-.06.008-.121-.022-.14-.08-.051m6.531.333c-.071.073-.248.259-.394.414-.277.295-.498.5-.742.688-.213.165-.168.209.057.056.431-.294.786-.639 1.158-1.129.14-.184.089-.204-.079-.029m-14.266.369c-.043.071.517.813.876 1.16.426.412 1.187.788 1.711.845.197.021.231.03.323.086.037.023.087.026.238.017.203-.013.273.002.346.069.051.048.092.009.072-.068-.017-.07-.073-.1-.217-.114-.411-.043-1.326-.327-1.696-.527-.409-.221-1.025-.776-1.487-1.34-.118-.146-.143-.164-.166-.128m7.774.555c-.379.042-.8.256-.8.409 0 .058.06.056.112-.005q.152-.18.368-.069c.075.038.066.057-.035.076-.118.022-.142.062-.093.152.075.14.158.134.325-.022.142-.133.212-.166.317-.149.094.015.13-.019.13-.119 0-.145.151-.177.176-.037.011.066.06.051.178-.055.125-.115.125-.136 0-.163a3.2 3.2 0 0 0-.678-.018m4.853.352c-.013.031.147.21.401.448.245.23.675.7.82.896.221.297.329.401.364.346.016-.026-.153-.254-.398-.537-.123-.141-.359-.417-.526-.612-.414-.486-.618-.653-.661-.541m-1.377.091c-.082.099.596 1.501.684 1.413.01-.009-.004-.067-.031-.131-.027-.063-.086-.213-.134-.334-.13-.334-.162-.399-.232-.459-.073-.065-.07-.073.045-.152q.139-.096.005-.095c-.061 0-.123-.053-.232-.196-.057-.077-.074-.084-.105-.046m-8.022.007c-.036.036.122.789.18.858.076.092.067-.168-.018-.508-.079-.31-.118-.395-.162-.35m7.481-.003c-.013.013.067.371.093.419.064.117.257.151.268.048.007-.062-.102-.23-.171-.262-.051-.025-.13-.118-.13-.153 0-.024-.047-.065-.06-.052m-7.138.555c-.042.043.004.278.105.528.046.115.073.21.069.247-.005.05.002.062.042.072.038.009.048.024.048.067 0 .064.04.077.073.024.027-.041.005-.118-.1-.353a3 3 0 0 1-.128-.363c-.05-.182-.082-.247-.109-.222m7.547.475c-.077.054-.049.313.036.33.093.018.235-.21.187-.299-.035-.061-.155-.078-.223-.031m-1.823.31c-.095.105-.318.667-.324.814-.013.32.257-.209.368-.721.023-.106.003-.145-.044-.093m2.305.041c-.021.035.334.9.525 1.28.126.251.392.57.365.439-.02-.102-.82-1.719-.855-1.731a.03.03 0 0 0-.035.012m-3.408.198c-.385.435-.986.945-1.365 1.157-.222.124-.238.134-.225.154.024.039.272.021.392-.028.411-.167.993-.695 1.261-1.145q.175-.294.092-.296c-.009 0-.079.07-.155.158m-4.226.042c-.033.086.487.626.72.746.144.074.062-.038-.292-.4-.36-.365-.406-.404-.428-.346m2.883.097a1.2 1.2 0 0 1-.591.12c-.216-.008-.275.031-.136.089.228.095 1.004-.12.92-.255-.019-.031-.02-.03-.193.046m-3.52.171a1 1 0 0 0-.067.12c-.226.489-1.488 1.989-1.797 2.136-.085.041-.102.02-.171-.205-.077-.258-.23-.51-.277-.462-.069.068-.03.366.158 1.218.209.955.193.989-.271.574-.265-.237-.275-.268-.205-.633.035-.181.04-.256.031-.518-.012-.375-.001-.417.15-.558.12-.113.118-.147-.013-.167-.236-.037-.383.213-.418.708-.029.434-.05.443-.341.14-.75-.781-1.176-1.048-1.453-.907-.124.062-.065.126.208.22.277.096.439.217.594.442.126.185.273.306.743.615.358.236.344.249-.116.112-.567-.169-.761-.163-.853.024-.03.061-.016.127.02.091.044-.043.075-.021.122.086.063.141.222.671.273.908.094.437.333.79.449.664.035-.04.026-.077-.019-.077-.162 0-.417-1.286-.292-1.469.108-.158.56-.088.62.097.02.058.066.532.054.547a3 3 0 0 1-.227-.103c-.401-.196-.342-.088.147.271.258.19.268.189.23-.021-.091-.507-.013-.575.31-.273.258.24.305.262.394.18.098-.091.173-.296.195-.537.022-.235.065-.304.545-.848.143-.163.283-.332.31-.375.079-.125.376-.266.376-.178 0 .072-.302.733-.753 1.65-.367.744-.488.939-.566.915-.051-.017-.059.022-.019.101.065.126.09.135.164.06.172-.175.996-1.704 1.207-2.24.162-.411.327-.861.425-1.155.182-.544.156-.537-.322.085-.353.459-1.325 1.456-1.545 1.584q-.125.073.563-.709c.936-1.063 1.399-1.681 1.488-1.985.038-.135.012-.204-.051-.128m.468.353c-.03.056-.039.06-.103.051-.157-.021-.189.126-.052.24.038.03.038.034.007.053-.056.033-.085.115-.098.275-.019.208-.055.388-.176.886a6 6 0 0 0-.117.558c-.013.154-.033.175-.095.1-.045-.055-.046-.055-.073-.017-.07.097-.279.364-.396.508-.605.742-1.102 1.756-.968 1.977.072.116.091.088.127-.191.063-.478.257-.828.915-1.645.412-.514.426-.489.104.178-.245.509-.305.649-.354.818-.058.206-.389.756-.538.896-.222.208.053.162.352-.058.141-.104.165-.149.272-.49.305-.974.631-1.717.755-1.717.197 0 .542-1.473.52-2.217-.007-.25-.029-.308-.082-.205m1.712.337c.412.231.523.428.286.511-.202.072-.235.092-.261.154-.052.122-.237.337-.193.223.054-.137.012-.291-.065-.244-.009.006-.023 0-.031-.014q-.011-.02 0-.012c.017.015.126-.079.126-.108 0-.012-.018-.037-.039-.056-.061-.055-.08-.168-.065-.376.014-.22-.003-.215.242-.078m3.906.117c-.032.024-.046.061-.053.135-.012.125-.04.138-.129.061-.073-.065-.143-.076-.182-.029-.039.046.002.095.076.089.098-.008.095.006-.187.78-.106.294-.207.615-.34 1.094-.058.21-.068.219-.168.143-.187-.139-.207-.409-.068-.878.029-.1.093-.305.141-.458.097-.308.111-.382.075-.395-.026-.009-.101.145-.215.439-.087.219-.091.213-.08-.097.016-.431-.07-.385-.239.13-.198.602-.201 1.699-.006 2.213.096.255.211.283.138.035-.069-.233-.099-1.046-.038-1.046q.015 0 .016.009c0 .171.165.789.264.991.24.486.554.891.85 1.097.152.105.168.08.039-.062-.671-.737-.654-1.788.058-3.577.214-.537.245-.644.191-.682-.049-.036-.092-.034-.143.008m8.336-.005c-.047.056-.04.229.027.734.09.664.103.623-.338 1.055-.371.365-.517.467-.712.498-.174.029-.75-.152-1.914-.599-1.485-.572-1.529-.582-1.573-.364a120 120 0 0 0-.717 4.214c-.127.877-.005.762.238-.225.165-.669.324-1.527.506-2.729.178-1.18.148-1.089.337-1.035.568.162.615.232.484.733-.199.759-.316 1.303-.381 1.761-.051.367-.089.558-.138.693-.032.091-.038.164-.042.451a5 5 0 0 1-.066.751c-.062.422-.073.566-.042.585.053.032.157-.449.555-2.556.362-1.919.438-2.236.529-2.22.062.012.047.132-.156 1.229-.11.598-.269 1.468-.353 1.935-.086.467-.194 1.053-.243 1.303-.097.505-.095.528.037.528.075 0 .306.06.669.173.165.052.314.095.327.095.145 0-.198-.181-.543-.287-.258-.08-.297-.1-.322-.173-.05-.141.001-.533.181-1.409.28-1.366.498-2.579.516-2.872.02-.335.07-.36.44-.217l.619.236c.657.249.627.216.588.648-.033.359-.033.361-.01.369.011.003.052-.117.09-.267.134-.518.118-.5.437-.509.125-.003.227-.002.227.002 0 .005-.017.137-.039.292-.1.741.089.541.257-.272.053-.255.178-.41.45-.558.025-.014.027.052.019.56-.011.657-.012.664-.153.687-.213.034-.826.444-.796.532.016.049.07.03.181-.062.145-.121.189-.123.335-.016.137.1.136.119-.011.276-.031.033-.051.07-.043.082.015.024.204-.119.316-.241.117-.127.117-.124-.003.414-.127.566-.161.643-.326.726-.134.068-.14.078-.168.309-.026.218-.014.294.048.323.341.155.756-1.581.801-3.353.013-.521.032-.694.087-.784.174-.281-.029-1.667-.212-1.446m-7.352.297c-.004.015-.039.19-.076.388-.142.766-.289 1.115-.655 1.554q-.27.324-.06.208c.358-.202.723-.83.827-1.422.055-.317.026-.915-.036-.728m5.398.016c-.032.05.247.377.658.77q.361.346.182.051c-.283-.465-.767-.939-.84-.821m-.134.153c-.006.011.086.129.206.262.308.345.515.613.689.893s.225.345.256.325c.079-.049-.508-.873-.949-1.334-.138-.142-.183-.176-.202-.146m-1.468.093c-.044.074 1.232.588 1.41.568.092-.01.095-.009.053.02-.089.061-.059.108.182.285.123.091.29.22.37.287.241.199.185.108-.106-.177-.311-.304-.346-.36-.2-.322.159.043.131-.02-.05-.11-.508-.253-1.615-.62-1.659-.551m-15.681.305c-.082.131.04 1.448.154 1.668.097.19.478.509.607.51.032 0 .095.018.142.039.302.137-.111-.304-.439-.47-.206-.103-.197-.071-.211-.78-.013-.644-.028-.759-.114-.9-.045-.075-.114-.108-.139-.067m15.625.211c-.02.031.785.377 1.002.431.112.028.069-.031-.077-.104-.35-.176-.9-.37-.925-.327m-5.863.154q-.023.077-.025-.01c0-.027.008-.045.017-.039s.013.028.008.049m-2.894.055c-.025.04.222.152.594.27.2.063.281.065.232.007-.067-.082-.796-.325-.826-.277m1.762 1.238q0 .022-.018.014c-.01-.007-.019-.03-.019-.053.001-.048.037-.008.037.039m-1.249.298c-.358.148-.923.461-.89.493.057.057 1.122-.473 1.081-.538-.017-.027-.02-.027-.191.045m9.119.497c-.283.105-.18.398.247.702.141.1.734.4.76.383.042-.025.017-.043-.472-.317-.325-.181-.366-.24-.218-.312.104-.049.128-.077.16-.182l.024-.082h.12q.211 0 .073-.085c-.171-.106-.543-.163-.694-.107m-7.012.375c-.076.142.268.841.391.793.06-.023.024-.133-.155-.488-.174-.346-.197-.376-.236-.305m-2.141.18c-.494.297-1.102.947-1.341 1.431-.274.558-.36.973-.361 1.754-.001.634-.001.632-.114.963-.087.257-.018.212.142-.09.129-.243.287-.365.316-.246.048.187-.851 1.099-1.31 1.33-.498.251-1.287.217-1.603-.068-.041-.038-.093-.066-.119-.066-.068 0-.149-.109-.268-.354-.296-.607-.256-1.254.127-2.022.207-.417.433-.73.923-1.281.306-.344.348-.483.148-.484a.56.56 0 0 1-.281-.131c-.081-.065-.146-.075-.183-.031-.045.054.028.122.23.217.224.103.221.095.067.162-.158.068-.3.21-.56.556a12 12 0 0 1-.254.328c-.092.107-.324.592-.591 1.242l-.12.292.072.309c.089.379.204.743.291.916.085.168.077.181-.057.097-.188-.117-.173-.054.032.135.551.509.736.582 1.519.599.289.007.536.019.55.028.045.03.061.107.09.449.031.355.039.411.117.821.072.374.07.382-.155.613-.193.2-.213.242-.122.273.083.03.146-.002.313-.159.153-.144.199-.171.343-.195.058-.01.056-.076-.007-.241-.203-.526-.276-1.93-.1-1.93.069 0 .092-.028.109-.135.017-.118.024-.129.213-.317.093-.092.252-.268.354-.391.252-.304.318-.354.318-.244 0 .085.064.199.137.242.066.039.085.07.138.218.043.121.144.231.368.403.449.344.551.389 1.032.456.344.049.366.046.366-.05 0-.128.083-.06.102.083.026.194.133.228.177.055.075-.296.157-.204.092.104-.131.627-.351 1.217-.455 1.217-.086 0-.132.075-.25.416-.118.338-.115.347.105.347.152 0 .229.038.325.158.104.13.227.383.244.501q.013.096.041.094c.081 0 .027-.223-.125-.525a2 2 0 0 1-.132-.316.35.35 0 0 0-.067-.144c-.056-.047-.048-.054.061-.054.315 0 .525.323.645.991.061.346.084.384.169.276.222-.283-.138-1.116-.627-1.45a.5.5 0 0 1-.143-.124c-.026-.082.206-.635.429-1.022.15-.26.159-.301.077-.372-.137-.12.064-.296.469-.416.129-.036.2-.081.165-.102a3 3 0 0 0-.311.028c-.866.107-1.232.06-1.84-.232-.895-.43-1.335-1.166-1.335-2.232 0-1.023.394-1.793 1.254-2.446.203-.155.322-.263.309-.285-.017-.026-.029-.021-.148.051m-5.555.016c-.073.053.183.785.267.76.052-.016-.02-.381-.092-.458-.031-.033-.041-.071-.044-.158q-.008-.233-.131-.144m16.396.322q-.379.13-.36.177c.034.084.718-.127.7-.216-.01-.056-.091-.046-.34.039m-8.671.078c-.025.064.064.442.201.847.255.763.355 1.132.61 2.256.147.65.19.801.228.801.042 0 .058-.08.071-.35.013-.279.029-.341.054-.207.015.079.044.124.07.108.031-.02.021-.458-.012-.485-.023-.019-.035-.019-.057-.001-.078.065-.133-.079-.257-.677-.143-.686-.221-.948-.311-1.051-.052-.059-.057-.073-.036-.106.07-.11-.138-.626-.381-.951-.182-.242-.164-.225-.18-.184m-6.585.412c-.168.13-.24.16-.343.147-.075-.01-.089-.005-.156.055-.088.08-.088.08-.181.017-.115-.078-.123-.043-.041.202.039.117.083.217.098.223.046.017.802-.683.778-.721-.016-.027-.029-.021-.155.077m13.368.31c-.216.035-.306.126-.182.185.055.027.133.019.312-.029.044-.012.045-.01.032.095-.012.091-.009.109.018.12.05.019.086-.031.098-.136a.4.4 0 0 1 .05-.149c.073-.103-.043-.134-.328-.086m2.333.726a2 2 0 0 0-.1.187 3 3 0 0 1-.183.309c-.111.162-.107.192.015.126.176-.097.42-.602.308-.64-.011-.004-.03.004-.04.018m-19.099.229c-.13.158-.066.73.083.73.059 0 .027-.206-.048-.317-.071-.106-.071-.113.006-.113.082 0 .151-.048.143-.101-.004-.033-.017-.041-.057-.037-.049.006-.051.002-.048-.084.004-.097-.033-.132-.079-.078m8.226.024c-.042.11.174 1.167.251 1.23.062.052.048-.04-.095-.666a8 8 0 0 1-.097-.473c-.014-.106-.038-.143-.059-.091m-4.601.386c-.168.307-.247.494-.219.522.032.032.366-.582.39-.717.019-.103-.053-.022-.171.195m-1.376-.028c-.069.185-.101.995-.042 1.098.051.091.069.037.081-.255.006-.157.025-.345.042-.419.062-.264-.005-.622-.081-.424m12.57.123c-.051.133.01.221.077.111.056-.09.067-.086.116.042q.263.694.207.801c-.043.08.184.404.401.576.151.12.139.072-.213-.828-.224-.575-.508-.914-.588-.702m4.138.896a5 5 0 0 0-.206.329c-.554.96-1.825 2.328-2.93 3.154a10.56 10.56 0 0 1-4.74 1.996c-.746.113-1.922.177-1.894.105.033-.088.39-.158.902-.179a6 6 0 0 0 1.211-.154c.444-.094.792-.151.908-.151.13 0 .296-.05.421-.128a.4.4 0 0 1 .183-.07c.114-.004.213-.184.109-.199a6 6 0 0 0-.525.118c-1.284.328-2.112.436-3.128.405-1.302-.04-2.084-.173-3.156-.539-.902-.308-.944-.321-.968-.297-.09.09.404.366 1.363.762.084.035.094.066.019.052l-.291-.048a2 2 0 0 1-.525-.156 34 34 0 0 0-.61-.238c-1.143-.431-2.328-1.274-3.792-2.694-.241-.234-.223-.148.031.142 1.443 1.654 3.862 2.996 6.117 3.394 3.99.705 7.985-.794 10.515-3.947.489-.611 1.156-1.682 1.089-1.75q-.02-.023-.103.093m-15.871.41c-.074.139.106.81.259.962.076.076.098.034.041-.08-.063-.128-.098-.259-.154-.576-.06-.34-.092-.408-.146-.306m7.437 2.959c-.121.148-.169.283-.123.347.068.092.181-.025.236-.244.048-.201.002-.243-.113-.103m.531.011c-.039.063.566.616.618.564.014-.014-.068-.106-.265-.3-.265-.26-.327-.306-.353-.264m1.108 1.007c-.022.023-.014.078.015.102.015.013.03.054.034.092.007.094.037.095.184.009.227-.134.202-.215-.065-.215a.7.7 0 0 0-.168.012"/></svg>