<svg width="24" height="24" viewBox="0 0 24 24" fill="none"><path fill="#fff" fill-rule="evenodd" d="m5.25 8.318 2 .847v4.765L12 11.09l4.796 2.84V9.165l1.954-.847v8.98L12 13.312l-6.75 3.986zm.227-.367L12 4.125l6.569 3.826-1.773.733L12 5.912 7.25 8.684zm1.41 8.866 1.477-.848 3.659 2.119 3.613-2.119 1.523.848-5.136 3.058z" clip-rule="evenodd"/><path fill="#136aad" fill-rule="evenodd" d="m5.25 8.318 2 .847v4.765L12 11.09l4.796 2.84V9.165l1.954-.847v8.98L12 13.312l-6.75 3.986zm.227-.367L12 4.125l6.569 3.826-1.773.733L12 5.912 7.25 8.684zm1.41 8.866 1.477-.848 3.659 2.119 3.613-2.119 1.523.848-5.136 3.058z" clip-rule="evenodd"/></svg>