<svg width="24" height="24" version="1.1" viewBox="0 0 24 24" xmlns="http://www.w3.org/2000/svg">
  <path d="m23.666 12.144a11.695 11.78 0 0 1-11.695 11.78 11.695 11.78 0 0 1-11.695-11.78 11.695 11.78 0 0 1 11.695-11.78 11.695 11.78 0 0 1 11.695 11.78z" fill="#bb90e9"/>
  <path d="m7.2422 16.818c0.00297-0.02987 0.0089-0.05766 0.011863-0.08633-0.00297 0.0011-0.0089 0.0017-0.011863 0.0024z" fill="#e02155"/>
  <path d="m15.294 23.303c-0.0433 0.01494-0.0863 0.02688-0.1296 0.03854-1.041 0.30578-2.142 0.46928-3.281 0.46928-1.5797 0-3.0862-0.31498-4.4613-0.8858-0.0089-3e-3 -0.017795-0.0061-0.026692-0.01195-0.033514-0.01494-0.067027-0.02688-0.10024-0.04242-0.023726-0.0089-0.047453-0.02091-0.071179-0.03047 0.020761-0.05497 0.051011-0.13234 0.05368-0.13712 0.083338-0.13682 0.082152-0.27812 0.064653-0.43182-0.023727-0.20015-0.030548-0.40075-0.035886-0.6017 0.017795-0.03285 0.020761-0.07438 0.00164-0.1183-0.00186-0.0061-0.00297-0.0089-0.00593-0.01494-4.152e-4 -0.01494-9.491e-4 -0.03076-0.00115-0.0466 0.00593-0.01195 0.0089-0.02688 0.011863-0.04003 0.00297-3e-3 0.00593-0.0089 0.0089-0.01195 0.15452-0.30014 0.11744-0.65846 0.074441-0.98169-0.00256-0.02091-0.00593-0.03943-0.0089-0.05914 0.020761-0.1891 0.037666-0.37906 0.050418-0.56893 0.011863-0.17954 0.020761-0.35928 0.029954-0.53903 0-0.0022 0-3e-3 2.078e-4 -0.0061 0.0021-0.05168 0.00297-0.10336 0.00593-0.15534 0.020761-0.072 0.035886-0.14638 0.046266-0.22196 0.023726-0.15952 0.030251-0.32323 0.051604-0.478 0.04597-0.32819 0.29658-0.60618 0.23163-0.94943 0.083635-0.21807 0.17291-0.43373 0.26188-0.65118 0.083635-0.20582 0.21235-0.51361 0.14206-0.75178l0.18714-0.01793 0.78377-0.07647 1.2174-0.51806 0.98072-0.80807 0.84154-1.7149 0.77279-0.95414 0.25832 0.42148 0.10914 0.17834h2.37e-4l0.05694 0.09321 0.06465 0.05228 0.41562 0.33664 0.28857 0.52162 0.07147 0.12875 0.33703 0.75884 0.09995 0.2345 0.20909 0.49028 0.08216 0.4196 0.10351 0.52866 0.0777 0.6653 0.01483 0.12666 0.01187 0.07977c-0.0089 0.0026-0.02076 0.0061-0.02965 0.01195-0.03469 0.01793-0.0602 0.05317-0.05961 0.10515 0.0012 0.27513 0.01483 0.54916 0.0178 0.82435 2.08e-4 0.03047 2.08e-4 0.06094 2.08e-4 0.09141-2.08e-4 0.16968-0.01187 0.33855-0.02076 0.50772-6e-3 0.10934-0.01186 0.21807-0.01186 0.32744-0.01187 0.14907-0.01187 0.30417-0.01187 0.45117-2.37e-4 0.04362 9.49e-4 0.08693 3e-3 0.12995-3e-3 0.01195-6e-3 0.02091-6e-3 0.03495-0.01483 0.2115-0.03144 0.42333-0.03589 0.63537-0.0017 0.07977-0.0014 0.16012 0.0015 0.24018 3e-3 0.12875 0.02076 0.25631 0.02668 0.38518 6e-3 0.11143 0.0089 0.22285 0.04805 0.32819 0.0017 3e-3 3e-3 0.0089 6e-3 0.01195 0.01187 0.17028 0.03886 0.33548 0.06258 0.51053 0.035 0.2596-0.01186 0.5223 0.02076 0.78286 0.0178 0.13682 0.03026 0.37225 0.05131 0.59181 0 0.0012 2.08e-4 2e-3 2.08e-4 0.0028 0.01186 0.11173 0.02372 0.21927 0.03944 0.30742z" fill="#e02155"/>
  <path d="m13.008 3.9214c-0.87627-0.017924-1.5477 0.14638-1.5477 0.14638-2.5324 0.05646-3.3587 1.7992-3.6253 2.8132v0.00107c-0.026692 0.10396-0.049232 0.20015-0.066137 0.28649-0.051011 0.26019-0.059018 0.42665-0.059018 0.42665l0.70052-0.00597 0.32229 0.20403 0.15096 0.18312v0.39178l-0.25891 0.27364-0.70283 0.099477h-0.53891l-0.11062 0.39907v1.083l0.11062 0.90841 0.75126-0.74823 0.87479-0.74775 0.52017-0.26677h0.48719l0.46382 0.141 0.47693 0.085736 0.23875 0.36021 0.35738 0.37368 0.56999 0.28051 0.56976 0.26707 0.58426 0.32042 0.18447 0.25332v0.30674l-0.22273 0.49353c0.01186 0.01792 0.02076 0.03973 0.02076 0.06572 6e-3 0.07647 0.02669 0.14966 0.05991 0.21927h2.38e-4c0.02965 0.06184 0.06673 0.12099 0.10855 0.17685 2.08e-4 0 4.15e-4 0.0011 9.49e-4 0.0012 0.03796 0.05078 0.07919 0.09948 0.1213 0.14518h2.37e-4c0.0344 0.03793 0.0691 0.07379 0.10262 0.10784 0.1391 0.1422 0.24408 0.31546 0.35224 0.48344 0.02669 0.02391 0.05279 0.04928 0.07799 0.07468 0.0605 0.06094 0.11774 0.12517 0.17083 0.19179h2.37e-4c0.26069 0.32487 0.43478 0.71125 0.50845 1.1221 0.01186 0.06961 0.02372 0.1401 0.02965 0.2109 0 0.0016-2.36e-4 3e-3 0 0.0061 0.11537 0.27095 0.19634 0.49521 0.26277 0.69452 0.0347 0.10396 0.06525 0.20104 0.09461 0.29425 0.06702 0.2127 0.08778 0.54091 0.0866 0.89852v0.0012c-2.37e-4 0.0717-0.0015 0.14458-3e-3 0.21807-0.0089 0.32018-0.02669 0.64908-0.0433 0.92777 0 0.0011-2.37e-4 0.0014 0 0.0019-0.01187 0.21748-0.02076 0.404-0.02076 0.53288 2.07e-4 0.02091 4.15e-4 0.04301 4.15e-4 0.06632v0.0014c3e-3 0.54515-0.02373 1.5893-0.06079 1.5787-0.0014 0-0.0026 0-3e-3 -0.0012-0.19841-0.03285 0.08274 1.9643 0.21769 2.8516 0 0.0012 2.38e-4 0.0018 2.38e-4 0.0028 0.02076 0.12816 0.03589 0.23301 0.04716 0.30486 0.05013-0.01494 0.09965-0.03047 0.14947-0.0469 0.95288-0.30626 1.8529-0.73198 2.6823-1.2602 0.05754-0.03645 0.11507-0.07378 0.17202-0.11143l-0.21858-4.1568-9.49e-4 0.0011c-0.05457-0.20164-0.11685-0.40191-0.16519-0.60523-0.08274-0.34584-0.0863-0.68391-0.0863-1.0375v-0.47355l-0.09519 0.48744-0.18595-4.3257-0.02996-1.1023c-0.12751-0.64371-0.11446-1.3142-0.30448-1.9472-0.02966-0.095295-0.09698-0.19895-0.02076-0.19656l-0.04415-0.95496-0.81301-2.0937c-0.8128-1.344-2.2782-1.6625-3.4048-1.6839zm1.4134 4.0571c0.20582 0 0.4118 0.00897 0.6154 0.00897 0.08215 0 0.1385 0.038536 0.17024 0.092009 0.04893-0.00597 0.09787-0.01195 0.1477-0.01195 0.27374-0.00597 0.26484 0.42008-0.0089 0.42713-0.40886 0.01195-0.78753 0.24586-1.1917 0.30085-0.27167 0.037043-0.8338 0.00897-0.90771-0.34751-0.06496-0.31286 0.33795-0.39979 0.55991-0.43182 0.20227-0.029873 0.40776-0.036445 0.6135-0.036445zm-5.9481 8.1558-0.89392 0.09112-0.49656 2.5175-0.25298 0.97112-0.51456 2.5632-0.026692 0.19358c0.068213 0.03854 0.13672 0.07557 0.20553 0.11202 0.23815 0.12636 0.48135 0.24496 0.72857 0.35507 0.023726 0.01195 0.048046 0.02091 0.072365 0.03197 0.023726 0.0089 0.047453 0.02091 0.071475 0.03047 0.026692-0.22435 0.11833-0.62993 0.13465-0.75128 0.023726-0.17476 0.020761-0.34937 0.023726-0.52514 0.00593-0.36917 0.00593-0.73715-0.00259-1.1061-0.00593-0.21837-0.014828-0.43961-0.011863-0.66037 4.45e-4 -0.1637 0.00593-0.32699 0.023726-0.4886 0.00164-0.01792 0.00297-0.03405 0.00593-0.05048 0-0.0014 2.372e-4 -0.0028 4.448e-4 -3e-3 0-0.0011-2.076e-4 -0.0012-2.076e-4 -0.0022-0.020761-0.12188 0.014829-0.25542 0.052792-0.37694 0.011863-0.03465 0.023726-0.06841 0.032921-0.10037 0.0694-0.2124 0.14829-0.41936 0.20672-0.63585 0.17884-0.66342 0.30408-1.34 0.57515-1.9743 0.011863-0.02688 0.029657-0.04541 0.047453-0.05586l0.011863-0.08275 0.0089-0.05227h-2.373e-4z" fill="#2db990"/>
  <path d="m7.6716 7.5185-0.84178 0.34088-0.10706 0.24167 0.23904 0.42363s0.96059 0.21568 1.0932 0.282v8.96e-5l0.56928-0.1655 0.25921-0.27364 0.090456-0.58686-0.60345-0.19208-0.69865-0.070202zm0.38336 1.2883h-4.448e-4zm6.0239-0.9474s-0.7157 0.099776-0.80082 0.11919c-0.08511 0.017925-0.21294 0.38871-0.21294 0.38871l0.29963 0.27364 0.6348 0.2596h0.5374l0.67569-0.2596 0.34453-0.11621s0.1124-0.30509 0.09253-0.4236c-0.020758-0.1186-0.34427-0.24167-0.34427-0.24167h-1.2266zm-4.322 1.4344c-0.25446-0.00896-0.89175 0.3672-0.89175 0.3672l-0.30918 0.14518c-7.414e-4 0.031666-0.011863 0.063032-0.036479 0.086332-0.059019 0.056459-0.12901 0.089917-0.20197 0.1177-0.032921 0.03226-0.064358 0.06602-0.082745 0.08513-0.057833 0.06064-0.11567 0.12099-0.15452 0.19537-0.047156 0.09021-0.10351 0.164-0.21176 0.17774-0.12308 0.01494-0.20108-0.06632-0.30782-0.10754-0.031438-0.01195-0.052792-0.03285-0.06673-0.05676l-0.33564 0.15743s-0.064061 0.10635-0.17202 0.2832c4.151e-4 0.0022 0.00115 3e-3 0.00139 0.0061 0.014828 0.11292 0.0089 0.21867-0.014829 0.31898 0.047453-0.0019 0.096091 0.02091 0.11893 0.06572 0.15392 0.29813-0.088677 0.62008-0.269 0.84293-0.087787 0.10874-0.18151 0.2124-0.27107 0.31994-0.16193 0.29276-0.3782 0.71597-0.76974 0.68959-0.046563-3e-3 -0.082745-0.02688-0.1038-0.06184-0.026692 0.02091-0.052791 0.04003-0.078 0.06124-0.0089 0.0061-0.017795 0.01494-0.026692 0.02391-0.33706 0.52278-0.64417 0.9796-0.82122 1.1961-0.55668 0.68108-0.39762 0.94115-0.39762 0.94115l0.15125 0.32042 0.52488 0.12278v0.04153c0.11092 3e-3 0.21324 0.03018 0.31156 0.0693 0.08571 0.0239 0.17083 0.04928 0.25802 0.069 0.22273 0.05078 0.45074 0.02391 0.67385 0.069 0.21769 0.04362 0.42218 0.1416 0.64485 0.16102 0.23964 0.02091 0.48321 0.02091 0.72365 0.03076 0.4954 0.02091 0.97722 0.02391 1.4682-0.05646 0.3478-0.05736 0.69067-0.13981 1.0315-0.22942l0.32297-0.15474 0.2257-0.09978c0.18121-0.15773 0.39667-0.26916 0.58358-0.4302 0.03262-0.02688 0.06406-0.05795 0.09461-0.08872l0.1213-0.13861c0.16549-0.20941 0.28827-0.45867 0.36933-0.70677 0.02076-0.06303 0.07266-0.08932 0.12397-0.08813 0.02372-0.07977 0.04212-0.16102 0.06347-0.24406 0.0439-0.17117 0.11804-0.32114 0.20256-0.47519 0.05961-0.10874 0.121-0.21628 0.18566-0.32206 0.05902-0.14429 0.11833-0.28887 0.17913-0.43161 0.06079-0.14249 0.16252-0.24287 0.27938-0.34067 0.02668-0.02091 0.05338-0.03047 0.08037-0.03107 0.08927-0.16341 0.20494-0.31146 0.31132-0.46435 0.02373-0.03584 0.05872-0.05258 0.09312-0.05586l-0.0178-0.21001h-4.45e-4l-0.20523-0.33291s-0.70891-0.32792-0.7709-0.39836c-0.06139-0.07049-0.69749-0.5692-0.69749-0.5692l-0.54777-0.46185-0.42242-0.18043-0.25832-0.10007-0.33798 0.20015h-0.0019s-0.10588-0.25362-0.31808-0.32042c-0.011863-0.00299-0.029657-0.00597-0.045376-0.00597zm3.1244 6.8956-0.0089 1.2833-0.16727 0.58309-0.06317-0.10784 0.10588-0.26976-0.01483-0.24227h-0.04419l-0.21413 0.24048-0.21413 0.33028-0.18299 0.24615-0.42992 0.25004-0.37636 0.19388s-0.46637 0.08633-0.49208 0.09081c-0.02669 3e-3 -0.49867 0.07379-0.49867 0.07379l-0.51504-0.09231-0.11774-0.072-0.07889 0.2121 0.037962 0.17237 0.077703 0.08993h-7.71e-4l0.48114 0.4377 0.50451 0.21509h0.85978l0.63432-0.17207 0.56976-0.54187 0.51293-0.52538 0.16994-0.17446 0.07119-0.15773 0.03262-0.19686s-0.0029-0.21389 0-0.22226c0.0028-0.0089-0.08185-0.2832-0.08185-0.2832l-0.22628-0.73386-0.33003-0.6274z" fill="#fff"/>
  <path d="m12.061 0.14474c-4.5138-0.011949-8.7583 2.583-10.754 6.8538-0.54733 1.173-0.89605 2.4036-1.0456 3.6924-0.32078 2.8548 0.35512 5.6086 1.9079 7.9948 1.377 2.0514 3.2993 3.6212 5.5926 4.5107 5.9756 2.3189 12.658-0.56063 15.168-6.4783 1.7916-4.3096 0.96254-9.1341-2.0963-12.622h2.08e-4c-1.6682-1.8421-3.8289-3.1354-6.2499-3.6724-0.84178-0.18641-1.6868-0.27782-2.5228-0.27991zm-0.07029 0.41763c0.55608-0.002987 1.1162 0.033458 1.6768 0.11053 0.1557 0.020911 0.44674 0.079761 0.87381 0.17446 0.74996 0.16669 1.4771 0.41061 2.1815 0.73204 0.77576 0.35101 1.505 0.78641 2.1879 1.3058 0.4704 0.35627 0.91046 0.74757 1.3197 1.1737 1.2845 1.3437 2.1978 2.9102 2.7409 4.7001 0.27285 0.91758 0.43016 1.8563 0.47159 2.8168 0.03855 0.92188-0.03114 1.8363-0.20938 2.7434-0.58025 2.9018-2.2359 5.4612-4.6362 7.1666h-2.09e-4c-0.0022 0.0015-0.0611 0.04092-0.08067 0.05437l-6e-3 -0.13503-0.01186-0.08723-0.06764-0.34951v-0.52398l-0.0017-0.17476-6e-3 -0.08752-0.02669-0.17446-0.0178-0.08752-0.03381-0.17476v-0.87331l-0.0017-0.17476-6e-3 -0.08723-0.02669-0.17476-0.0178-0.08723-0.01483-0.08752-0.02076-0.08723-3e-3 -0.08752-0.02965-0.17446-0.0178-0.08752-0.0178-0.08723-0.03381-0.17476-0.0178-0.08723-0.03589-0.17476-0.0178-0.08753-0.03382-0.17476-0.0178-0.08723-0.03382-0.17476v-3.6681l-0.0017-0.08752-6e-3 -0.08723-0.02669-0.17476-0.0178-0.08723-0.03381-0.17476v-0.08752l-0.0016-0.17446-6e-3 -0.08752-0.02669-0.17476-0.0178-0.08723-0.03382-0.17476-6e-3 -0.17476-0.02669-0.17446-0.06495-0.26229-0.04063-0.17476-0.0178-0.08723-0.03382-0.17476-0.03648-0.17476-0.03382-0.17446-0.0017-0.17476-6e-3 -0.08752-0.02668-0.17476-0.0178-0.087229-0.03351-0.17476v-0.69859l-0.0017-0.17476-6e-3 -0.087229-0.02669-0.17476-0.03321-0.17476-0.02076-0.087229-6e-3 -0.17476-0.02669-0.17476-0.06495-0.26199-0.0178-0.087528-0.02372-0.087229-0.06496-0.26199-0.02669-0.087528-0.02669-0.087229-0.05724-0.17476-0.02965-0.087229-0.05279-0.17476-0.04627-0.17476-0.02076-0.087528-0.05457-0.17446-0.03203-0.087528-0.07474-0.17476-0.04509-0.087229-0.03915-0.087229-0.04745-0.087229-0.04182-0.087229-0.09878-0.17476-0.05457-0.087528-0.12071-0.17446-0.14473-0.17476-0.16668-0.17476-0.1735-0.1649-0.0866-0.069904-0.1735-0.10635-0.0869-0.039432-0.1735-0.072891-0.0866-0.036445-0.1735-0.063032-0.1735-0.058253-0.1732-0.057656-0.0869-0.029873-0.0866-0.026885-0.0869-0.026886-0.1735-0.034055-0.0866-0.031666-0.0866-0.023899-0.0869-0.017925-0.0866-0.01195-0.0869-0.031666-0.0866-0.020911-0.1735-0.026886-0.0866-0.00597-0.1735-0.00281h-0.34688l-0.0866-0.017924-0.1735-0.017925h-0.0866l-0.1735 0.01195-0.0869-0.00281-0.1732-0.026886-0.0869-0.014937-0.0866-0.01195-0.1735-0.0026-0.1735 0.00897-0.0866 0.00597-0.0869-0.00597-0.1735-0.00897-0.1732 0.0026-0.0869 0.01195-0.1735 0.036147-0.0866 0.031068-0.1735 0.039432-0.1735 0.065721-0.0866 0.035549-0.1735 0.06841-0.1735 0.070501-0.0866 0.036147-0.1735 0.06811-0.1735 0.07528-0.0866 0.046303-0.086897 0.040926-0.1735 0.10754-0.0866 0.067214-0.0866 0.073189-0.17289 0.16699-0.7805 0.78617-0.13168 0.17476-0.10677 0.17446-0.040631 0.087229-0.048046 0.087229-0.039149 0.087528-0.047453 0.087229-0.039148 0.087229-0.04597 0.087528-0.074441 0.17476-0.06762 0.17476-0.0694 0.17416-0.039148 0.087528-0.038259 0.087229-0.10588 0.17476-0.070289 0.06811-0.16371 0.1407-0.1735 0.14847-0.064951 0.081852-0.11003 0.17207-0.03381 0.087229-0.0089 0.17476 0.043598 0.17476 0.055757 0.087229 0.05813 0.06841 0.14651 0.1404 0.14503 0.14847 0.0866 0.16699 0.017796 0.087229 0.0089 0.17476v0.52419l-0.00593 0.17416-0.011863 0.087528-0.017795 0.087227-0.060501 0.17476-0.043598 0.08752-0.12071 0.17446-0.04508 0.08752-0.0866 0.17476-0.053681 0.17446-0.017795 0.08752-0.020761 0.08723-0.03381 0.17476v0.17476l-0.00161 0.08723-0.00593 0.08752-0.036479 0.17476-0.043301 0.08723-0.088677 0.17476-0.05813 0.08723-0.13287 0.17476-0.074441 0.08723-0.16668 0.15295-0.0866 0.06811-0.086897 0.05616-0.1735 0.11441-0.0866 0.06721-0.13969 0.15564-0.06762 0.08485-0.27938 0.34916-0.13287 0.17476-0.074441 0.08752-0.055757 0.08723-0.062578 0.08752-0.12723 0.17446-0.062578 0.08753-0.1041 0.17476-0.0866 0.17446-0.06673 0.17476-0.04152 0.17476v0.17476l0.043598 0.17476 0.0866 0.17476 0.1299 0.13891 0.0866 0.06303 0.1735 0.11322 0.1735 0.09768 0.1735 0.07678 0.1735 0.06094 0.0866 0.02391 0.0866 0.01793 0.1732 0.0239 0.0866 0.01494 0.1735 0.03316 0.1735 0.03407h0.0866l0.1735 0.0026 0.0866 0.0061 0.1735 0.02688 0.16905 0.03405 0.13435 0.01792h0.1299l0.0866 0.08753v0.26706l0.014829 0.08215 0.00593 0.08752-0.020761 0.17476v0.08723l-0.00297 0.08723-0.029658 0.17476-0.032921 0.17476-0.020761 0.08752-0.00593 0.17446-0.011863 0.08752-0.03381 0.17476-0.03381 0.17446-0.00593 0.17476-0.011863 0.08752-0.033811 0.17476-0.033809 0.17446 0.014828 0.15534 0.00593 0.07259-0.00593 0.06841-0.017795 0.14847-0.032031 0.16669-0.020761 0.08723-0.031438 0.08723-0.011863 0.08723-0.040631 0.17476-0.017796 0.08723-0.03381 0.17476-0.036479 0.17446-0.017796 0.08752-0.033811 0.17476-0.017796 0.08723-0.017795 0.08723-0.017796 0.08752-0.03381 0.17476-0.017796 0.08723-0.017795 0.08752-0.033513 0.17446-0.00593 0.08752-0.029658 0.17476-0.017795 0.08723-0.017796 0.08723-0.03381 0.17476-0.03559 0.17446-0.00593 0.02987c-2.2454-1.3256-3.8721-3.1987-4.8789-5.6204-0.33783-0.84341-0.5769-1.7139-0.71778-2.6122-0.017795-0.10276-0.029658-0.20493-0.036776-0.30689-0.16104-1.3728-0.1044-2.7024 0.20494-4.052 0.12338-0.53126 0.2862-1.0573 0.48882-1.5786 0.20108-0.51722 0.43772-1.0165 0.71069-1.4987 0.40649-0.71821 0.88351-1.3852 1.4311-2.0009 0.52649-0.58943 1.1077-1.1188 1.7436-1.5881 1.9797-1.452 4.3145-2.2114 6.7242-2.2249zm0.80746 3.5614 0.0869 0.0026 0.1735 0.00597 0.1735-0.00597 0.0866-0.0026 0.1735 0.020911 0.1735 0.034055 0.0866 0.017925 0.0866 0.00597 0.1735 0.029872 0.43363 0.10934 0.0869 0.031068 0.1735 0.039432 0.0866 0.048395 0.0866 0.023899 0.0869 0.048694 0.16668 0.10396 0.14651 0.11173 0.06791 0.060044 0.13939 0.089919 0.0869 0.050784 0.0866 0.060941 0.16668 0.15026 0.07444 0.08484 0.07029 0.087528 0.12219 0.17476 0.05813 0.087229 0.11359 0.17476 0.05457 0.087229 0.09877 0.17476 0.04181 0.087528 0.04745 0.087229 0.03915 0.087229 0.04509 0.087528 0.06791 0.17476 0.02076 0.087229 0.0178 0.087528 0.03382 0.17446 0.04093 0.17476 0.01186 0.087528 0.05279 0.17446 0.0178 0.087528 0.03382 0.17476 0.0178 0.087229 0.0178 0.087528 0.02669 0.17446 6e-3 0.087528 0.0017 0.17476 0.03382 0.17446 0.0178 0.087528 0.02669 0.17476 6e-3 0.17416v0.52418l0.03382 0.17476 0.0178 0.087229 0.02669 0.17476 6e-3 0.087229 0.0017 0.087529v0.3494l0.03382 0.17446 0.0178 0.08752 0.02965 0.17476 6e-3 0.08723 0.03619 0.17476 0.02373 0.08723 0.05278 0.17476 0.02669 0.08752 0.03382 0.17446 0.03144 0.08752 0.02076 0.08723 0.0178 0.08752 0.03382 0.17446 0.0178 0.08753 0.0178 0.08723 0.02669 0.17476 6e-3 0.08723 0.0017 0.17476v3.319l0.03382 0.17476 0.0178 0.08723 0.02669 0.17476 6e-3 0.08752 0.0019 0.17446v0.61135l0.03381 0.17476 0.0178 0.08752 0.02669 0.17446 6e-3 0.08752 0.0017 0.17476v0.08723l0.03382 0.17476 0.03381 0.17476 0.01186 0.08723 6e-3 0.17476 0.02076 0.08723 0.03292 0.17476 0.02669 0.17476 6e-3 0.08723 0.0016 0.17476v0.52421l0.03382 0.17476 0.0356 0.17446 0.03351 0.17476 0.0178 0.08752 0.03381 0.17446 0.0178 0.17476 0.0019 0.17476v0.08752l0.03382 0.17446 0.0178 0.08752 0.02669 0.17476 6e-3 0.08723 0.0017 0.17476 0.0017 0.01792c-0.03766 0.02391-0.0952 0.06453-0.10736 0.072-0.66567 0.41443-1.3652 0.75946-2.0986 1.0353-0.03144 0.01195-0.31322 0.10396-0.47734 0.15773l-6e-3 -0.05914-0.0017-0.17476-6e-3 -0.08752-0.02669-0.17446-0.03292-0.17476-0.02076-0.08753-0.0017-0.17446-6e-3 -0.08752-0.02669-0.17476-0.0178-0.08723-0.03382-0.17476v-0.08723l-0.0017-0.17476-6e-3 -0.08752-0.02668-0.17446-0.0178-0.08752-0.03382-0.17476v-1.6595l0.03382-0.17446 0.0178-0.08753 0.02668-0.17476 6e-3 -0.08723 0.0017-0.17476v-2.0086l-0.0017-0.08752-6e-3 -0.08723-0.02668-0.17476-0.0353-0.17476-0.03382-0.17476-0.0178-0.08723-0.02373-0.08752-0.02669-0.08723-0.05724-0.17476-0.11626-0.34916-0.0869-0.26228-0.02965-0.08723-0.05961-0.17476-0.03203-0.08723-0.07474-0.17476-0.04359-0.08753-0.07681-0.17416-0.03589-0.08753-0.0866-0.17476-0.05131-0.08723-0.10321-0.17476-0.05575-0.08723-0.06762-0.08753-0.07207-0.08723-0.16638-0.17476-0.1735-0.15713-0.06258-0.05616-0.11092-0.0487-0.04448-0.0457-0.04212-0.06364-0.0089-0.03615-0.02965-0.06811-0.07474-0.13622-0.02373-0.17476 0.05013-0.17476 0.1299-0.26199 0.03648-0.17476 6e-3 -0.16938v-0.17984l-0.1302-0.04541-0.04745-0.03226-0.0869-0.04541-0.08216-0.05168-0.0869-0.05766-0.1735-0.11441-0.0866-0.05586-0.08689-0.05078-0.1732-0.11173-0.0869-0.06841-0.0866-0.06543-0.1735-0.16669-0.1735-0.14847-0.0866-0.06841-0.17442-0.14036-0.1735-0.13294-0.1735-0.11412-0.086602-0.056162-0.13969-0.13353-0.13939-0.16699-0.1563-0.1404-0.17142-0.10515-0.0869-0.023899-0.0866-0.045407-0.1735-0.039432-0.0866-0.00281-0.1735-0.017924-0.0866 0.00597-0.1735 0.014937h-0.086896l-0.1732 0.00897-0.1735 0.034056-0.0866 0.045407-0.0866 0.023898-0.1735 0.10217-0.0866 0.063032-0.086897 0.072591-0.1735 0.12158-0.0866 0.073189-0.13969 0.15474-0.13939 0.13353-0.156 0.11441-0.085118 0.05586-0.1732 0.13533-0.043597 0.04391-0.1299 0.12846-0.12516-0.02091-0.095794-0.02987-0.12575-0.03674v-1.2227h0.43363l0.1735-0.035549 0.1735-0.05168 0.0866-0.029873 0.1735-0.058552 0.1735-0.087229 0.084822-0.063032 0.081559-0.060044 0.13939-0.13891 0.11359-0.17476 0.052791-0.087229 0.047453-0.087528 0.11359-0.17476 0.029658-0.087229 0.011863-0.087229-0.043302-0.17476-0.053088-0.08484-0.06762-0.080657-0.16372-0.12338-0.1735-0.060941-0.1735-0.056161-0.086601-0.017924-0.2604-0.065422-0.1735-0.017924-0.0866 0.00597-0.1735 0.031068-0.043301 0.01195-0.12664 0.020912h-0.00297l0.020761-0.13114 0.039149-0.13084 0.0089-0.023898v-0.00107l0.051308-0.14877 0.036479-0.087528 0.03381-0.087229 0.0694-0.17476 0.052791-0.087528 0.10855-0.17446 0.060502-0.087528 0.052791-0.087229 0.11359-0.17476 0.13168-0.17207 0.1735-0.15743 0.0866-0.073189 0.086897-0.06811 0.0866-0.069904 0.1735-0.1407 0.0866-0.068111 0.1735-0.12158 0.086897-0.055862 0.1735-0.097087 0.1732-0.07767 0.1735-0.06841 0.1735-0.074982 0.0866-0.045407 0.0869-0.039432 0.0866-0.046303 0.1735-0.067214 0.0866-0.020912 0.1735-0.036744 0.0869-0.017925 0.0866-0.017925 0.1735-0.026886 0.0866-0.00597 0.0869-0.0026h0.95356l0.0869-0.017925 0.1735-0.034055 0.1732-0.020912zm1.5577 3.3946-0.1732 0.00897-0.1732 0.034055-0.0869 0.031367-0.1732 0.060343-0.1732 0.040926-0.0869 0.020912-0.0869 0.020911-0.1732 0.069904-0.0869 0.063032-0.0869 0.041822-0.11003 0.1407-0.06347 0.16669v0.17446l0.06347 0.17446 0.05279 0.087528h-2.07e-4l0.14384 0.13114 0.0866 0.048992 0.0869 0.040926 0.1732 0.053175 0.0869 0.020912 0.1738 0.053771 0.1732 0.051681 0.1732 0.035847h0.43363l0.1732-0.034055 0.0869-0.017925 0.1732-0.026886 0.0869-0.00597 0.1732-0.0026 0.1732-0.035847 0.0869-0.023898 0.17172-0.063032 0.08127-0.043615 0.07207-0.051681 0.10825-0.13114 0.04152-0.087528 0.0178-0.17446-0.0178-0.087528-0.08482-0.17207-0.06495-0.081853-0.15333-0.1407-0.08482-0.041822-0.1732-0.10127-0.0869-0.039432-0.1732-0.060344-0.0869-0.026885-0.34688-0.087528-0.1732-0.026886-0.1732-0.00897zm-6.7635 0.17446 0.15956 0.014937 0.072068 0.00597 0.062578-0.00597 0.13969-0.00897 0.1732-0.00257 0.086897 0.00597 0.16905 0.031366 0.13435 0.050784 0.1302 0.084839-0.031141 0.12935-0.084228 0.10904-0.06762 0.050784-0.16401 0.069909-0.1732 0.036744-0.1732-0.00256-0.086897-0.017924-0.1732-0.055863-0.086897-0.040926-0.043301-0.014937-0.1299-0.087528v-0.26199h-4.449e-4l0.086897-0.087528zm6.4166 0.34937h0.60695l0.0869 0.0026 0.08245 0.0026 0.0866 0.017925 0.04775 0.0026 0.1299 0.063032-0.0089 0.13114-0.0433 0.13084-0.03558 0.087528-0.02668 0.043615-0.05813 0.13084h-0.1302l-0.13435-0.017925-0.16905-0.034056-0.1732-0.026886-0.0869-0.00597-0.1732-0.0026-0.1732-0.055863-0.1732-0.087528-0.1732-0.1186 0.06761-0.12128h-4.17e-4l0.10558-0.082151 0.1732-0.048992 0.0869-0.00597 0.0869-0.0026zm-3.035 1.6612 0.2601 0.26199 0.1732 0.13861 0.0869 0.06303 0.1732 0.12129 0.0866 0.06033 0.0869 0.06543 0.1732 0.12845 0.16668 0.12128 0.13969 0.12397 0.05546 0.0708 0.11359 0.15713 0.06673 0.08485 0.1474 0.17446 0.13435 0.17446 0.0433 0.08752 0.06347 0.13114 0.02372 0.13084-0.17765 0.17984-0.0869 0.08485-0.08245 0.08484-0.1732 0.13891-0.13702 0.12308-0.12308 0.12397-0.05991 0.0708-0.12308 0.15713-0.1127 0.17207-0.05131 0.08752-0.01483 0.02391c-0.0012 0.01792-0.0019 0.03734-6e-3 0.05526-0.02373 0.1407-0.07029 0.26946-0.12901 0.39911-3e-3 0.0061-6e-3 0.01494-0.0089 0.0239-3e-3 0.02688-0.0089 0.05557-0.0178 0.08335l-6e-3 0.06961-0.05279 0.13622-0.05042 0.08215-0.06258 0.08723-0.13524 0.17446-0.12308 0.17446-0.05724 0.08753-0.1732 0.26199-0.05813 0.08723-0.11804 0.17446-0.13257 0.13084-0.156 0.08753-0.08482 0.02091-0.1732 0.02091h-0.95364l-0.086897-0.01792-0.086897-0.01793-0.1732-0.05168-0.1732-0.05317-0.086897-0.02091-0.086897-0.01195-0.086897-0.03137-0.086897-0.02091-0.1732-0.02688-0.1732-0.0089-0.086897-0.01792-0.1732-0.03405-0.1732-0.02688-0.0866-0.0061-0.1732-0.0026h-1.3875l-0.1732 0.0089-0.086897 0.01195-0.1732 0.03584-0.0866 0.03137h-4.451e-4l-0.1732 0.03943-0.0866 0.03406-0.1732 0.06033-0.086897 0.01793-0.1302 0.02091h-0.1299v-0.13114l0.020761-0.13084 0.020761-0.08752 0.07978-0.17446 0.050418-0.08752 0.12041-0.17446 0.052792-0.08752 0.14206-0.17446 0.062578-0.08723 0.1299-0.1652 0.063468-0.06721 0.06495-0.05317 0.035589-0.03226 0.10825-0.03137-0.086897 0.17446 0.1299-0.06721 0.12842-0.10754 0.14117-0.17446 0.06762-0.08723 0.13969-0.17446 0.086897-0.08752 0.17172-0.17446 0.081262-0.08753 0.14473-0.17446 0.062281-0.08752 0.1127-0.17446 0.099057-0.17446 0.043301-0.08752 0.099057-0.17446 0.10588-0.17446 0.096981-0.17446 0.038259-0.08753 0.072068-0.17446 0.11359-0.17446 0.14681-0.17446 0.1732-0.16669 0.1732-0.14578 0.086897-0.06303 0.16668-0.12128 0.14651-0.13084 0.06762-0.0708 0.13969-0.13294 0.1732-0.10754 0.086897-0.04362 0.1732-0.097088 0.082449-0.048095 0.086897-0.039432 0.047749-0.026886 0.1299-0.029873v0.52398h0.1302l0.1299-0.02091 0.086897-0.02091 0.1732-0.07946 0.34688-0.21837 0.08689-0.046307 0.0866-0.040926 0.1732-0.065422 0.16905-0.058253 0.04774-0.017925 0.1299-0.039432zm-3.7285 1.0462-0.0089 0.12128-0.047749 0.08305-0.029657 0.02688-0.086897 0.03137 0.05813-0.15295h2.373e-4l0.017796-0.04541 0.09876-0.06392zm5.8117 1.5709 0.12842 0.17984 0.13168 0.16938 0.13969 0.17476 0.14028 0.17446 0.06673 0.08752 0.16638 0.17476 0.07474 0.08723 0.07029 0.08723 0.12041 0.17476 0.10588 0.17476 0.05279 0.08753 0.09876 0.17446 0.0869 0.17476 0.03529 0.08752 0.03915 0.08723 0.0694 0.17476 0.03203 0.08723 0.03144 0.08752 0.05724 0.17476 0.02668 0.08723 0.02669 0.08723 0.02076 0.08752 0.04597 0.17476 0.02669 0.08723 0.05309 0.17476 0.02669 0.08723 0.03382 0.17476 0.03144 0.08723 0.02076 0.08753 0.02669 0.17476 6e-3 0.17476v2.3582l-0.0017 0.17476-6e-3 0.08723-0.02669 0.17476-0.0178 0.08723-0.03351 0.17476v1.3975l0.03351 0.17476 0.0178 0.08723 0.02669 0.17476 6e-3 0.08723 0.0017 0.17476v0.26199l0.03382 0.17476 0.0178 0.08752 0.02669 0.17446 6e-3 0.08753 0.0019 0.17476v0.08723l0.03351 0.17476 0.03382 0.17476 0.01187 0.08723 0.0023 0.05676c-2.5228 0.75737-5.2447 0.57691-7.6363-0.44197-0.00155-0.0011-0.041817-0.02091-0.054867-0.02688 0.011864-0.15683 0.023726-0.3142 0.03381-0.47352 0.011863-0.17774 0.017795-0.35788 0.032031-0.53763v-2.1592l0.033809-0.17476 0.017796-0.08723 0.014828-0.08752 0.014829-0.08723 0.00297-0.08723 0.04152-0.17476 0.031438-0.08752 0.031438-0.08723 0.035886-0.08723 0.060502-0.17476 0.023726-0.08753 0.031438-0.17476 0.00297-0.08723 0.03381-0.17476 0.020761-0.08723 0.017796-0.08752 0.04597-0.17446 0.026692-0.08752 0.026692-0.08723 0.05813-0.17476 0.062578-0.17476 0.036182-0.08723 0.062578-0.16938 0.017795-0.04898 0.023726-0.13114 0.12842-0.03167 0.113-0.07946 0.09876-0.10934 0.093719-0.12935h0.2604l0.1732-0.03405 0.1735-0.04092 0.0866-0.01195 0.0866-0.03167 0.086897-0.0239 0.0866-0.01793 0.1735-0.04362 0.0866-0.0239 0.0869-0.01792 0.0866-0.01195 0.1735-0.05616 0.0866-0.01793 0.17201-0.05348 0.08156-0.04092 0.07444-0.0487 0.07207-0.06572 0.14058-0.15265 0.15333-0.17476 0.2601-0.26199 0.08482-0.08723 0.08156-0.08753 0.14473-0.17476 0.12071-0.17476 0.05457-0.08723 0.09698-0.17476 0.07623-0.17476 0.06761-0.17446 0.07474-0.17476 0.04567-0.08723 0.04063-0.08723 0.1041-0.17476 0.04805-0.08723 0.12041-0.17476 0.0436-0.08752 0.06791-0.17446 0.02965-0.08752 0.03648-0.08723 0.08927-0.1652 0.06525-0.0696 0.03382-0.04631 0.12219-0.06841zm-7.2857 2.971h1.6475l0.1732 0.0089 0.17172 0.02987 0.14681 0.05586 0.052791 0.04631 0.031141 0.02091 0.031141 0.10127h-1.5608l-0.1732-0.03405-0.086897-0.01793-0.1732-0.02688-0.086897-0.0061-0.1732-0.0026v-0.17446zm7.1354 0.66772c-0.01186 0-0.02373 0.0013-0.03737 0.0028-0.05813 0.0061-0.08926 0.01195-0.10469 0.03376-0.0433 0.0089-0.03767 0.04123-0.0089 0.16729 0.0089 0.11919 0.02669 0.2133 0.04745 0.27095l0.01187 0.1888c2e-3 0.03884 3e-3 0.06872 3e-3 0.10037-0.01187 0.02091-0.01483 0.05467-0.01483 0.11053 0 0.03256 0.0014 0.05795 6e-3 0.07737-0.0089 0.02091-0.02076 0.04301-0.02372 0.0708-0.035 0.16819-0.2598 0.58238-0.46168 0.84436-0.25624 0.33616-0.45397 0.50817-0.68296 0.59014-0.11656 0.04301-0.24468 0.09768-0.27938 0.1174-0.03886 0.02389-0.10084 0.03912-0.13969 0.03912-0.03886 0-0.08542 0.01494-0.10469 0.03137-0.08127 0.0702-0.36862 0.12517-0.64414 0.12099-0.44232-3e-3 -0.65582-0.05078-0.75663-0.1643-0.11656-0.13652-0.17439-0.08215-0.19782 0.20344-0.0089 0.08752-0.011864 0.1425-0.0089 0.17744-0.00593 0.05348-0.00593 0.10964-0.00133 0.16789 6.228e-4 0.0089 0.00148 0.01195 0.00216 0.01793-0.00118 0.01494-0.0024 0.02987-0.0024 0.04928 0 0.20702 0.19811 0.39863 0.6598 0.63704 0.3298 0.17207 0.42686 0.20344 0.60532 0.20344 0.09401 0 0.14651-0.0023 0.17557-0.01494h0.06406c0.02373 0.01195 0.06168 0.01494 0.12575 0.01494h5.34e-4c0.0089 0.0061 0.02076 0.01195 0.03025 0.01494 0.035 0.0089 0.23281 0.01494 0.43458 0.01195 0.34943-0.0089 0.38033-0.01494 0.57444-0.1407 0.10884-0.07408 0.20197-0.14458 0.20197-0.16012 0-0.01195 0.19782-0.24227 0.44232-0.50417 0.27938-0.30886 0.49279-0.5824 0.58589-0.75839 0.13554-0.25422 0.15126-0.30482 0.1474-0.57458 0-0.3753-0.2948-1.54-0.45397-1.7903-0.08156-0.12995-0.1124-0.16132-0.19188-0.15922zm-5.2802 0.55334h0.48811l-0.0089 0.13114-0.043598 0.13622-0.074738 0.16938-0.04597 0.08723-0.072068 0.17476-0.092236 0.57649-0.30313 0.99564-0.069103 1.1492-0.052494 1.1158-0.026692 0.77416-0.064061 0.70402c-0.033217-0.01494-0.092532-0.04362-0.094609-0.04451-0.18388-0.08035-0.27226-0.12128-0.38825-0.19417-0.00593-3e-3 -0.10617-0.05616-0.20612-0.10844l0.014829-0.07647 0.017796-0.08753 0.017795-0.08723 0.03381-0.17476 0.017796-0.08752 0.017795-0.08723 0.026692-0.17476 0.00593-0.17476 0.03381-0.17446 0.020761-0.08752 0.031438-0.17476 0.031438-0.08723 0.023726-0.08485 0.046266-0.15026 0.00593-0.04631 0.037666-0.26348 0.048639-0.20881 0.073255-0.25781 0.056647-0.19238 0.065246-0.23331 0.060798-0.45046 0.029657-0.20881 0.044486-0.14757 0.017795-0.164 0.00297-0.14727 0.029658-0.1189 0.029657-0.18014 0.032921-0.08992 0.029658-0.14757-0.011863-0.20463 0.014829-0.20015 0.026692-0.164 0.053978-0.15564 0.032921-0.16789v-0.08185l0.032031-0.12666zm5.3125 1.5887c0.0178 0 0.0178 0.02091 0.0178 0.05348 0 0.17984-0.32579 0.81679-0.50822 0.99277-0.20197 0.19149-0.5202 0.34396-0.89652 0.4222-0.2601 0.05856-0.84599 0.07438-0.96248 0.03137-0.17468-0.06631-0.53559-0.26169-0.60929-0.33219-0.050418-0.0469-0.08927-0.1171-0.08927-0.16012 0-0.06273 0.020761-0.07049 0.10884-0.05078 0.23282 0.05467 0.74518 0.07049 1.0867 0.02688 0.3298-0.03495 0.41141-0.06243 0.8537-0.28529 0.38033-0.19149 0.55104-0.30082 0.75289-0.49637 0.15274-0.14399 0.21769-0.20105 0.24468-0.20164z"/>
</svg>
