<svg width="360" height="360" viewBox="0 0 360 360" fill="none"><path fill="#292325" d="M170.295 47.801C75.785 55.695 19.269 155.467 61.682 239.61c40.257 79.88 146.186 97.825 210.542 35.73 55.675-53.832 53.517-143.606-4.682-194.808-26.522-23.311-62.938-35.572-97.247-32.73m17.049 10.734c94.247 5.947 146.291 111.665 93.405 189.914-51.833 76.776-167.918 69.093-209.49-13.84C29.372 151.1 94.256 52.696 187.344 58.537m-53.042 71.83v24.153l11.47-.048 11.42-.113.162-12.893v-12.892l15.576.161c16.997.113 17.523.162 23.995 2.263 43.677 14.313 43.677 83.88 0 98.193-6.472 2.105-6.998 2.158-23.995 2.263l-15.576.161v-12.892l-.161-12.892-11.421-.113-11.47-.049v48.307h24.732c28.732 0 32.994-.263 42.518-2.736 32.468-8.367 49.993-33.31 49.993-71.145 0-37.836-17.525-62.779-49.993-71.146-9.524-2.473-13.786-2.736-42.518-2.736h-24.732zm-18.629 49.728v11.051h73.566v-22.102h-73.566z"/><path fill="#f7d592" d="M177.764 253.908H134.14v-48.097h22.996v25.89h23.258c14.734 0 27.363-5.42 36.468-15.681 8.366-9.42 12.945-22.207 12.945-35.994s-4.579-26.574-12.945-35.993c-9.105-10.262-21.734-15.735-36.468-15.735h-23.258v25.943H134.14v-48.15h43.624c46.254 0 73.882 27.628 73.882 73.935 0 46.255-27.628 73.882-73.882 73.882m-61.99-68.672v-16.208h73.355v21.996h-73.354ZM180.027 58.1c-67.198 0-121.925 54.728-121.925 121.926S112.828 301.9 180.026 301.9c67.2 0 121.873-54.675 121.873-121.874 0-67.198-54.674-121.926-121.873-121.926"/><path fill="#f7d592" d="M180.026 312.582c-73.092 0-132.608-59.463-132.608-132.556 0-73.092 59.516-132.608 132.608-132.608s132.556 59.516 132.556 132.608-59.463 132.556-132.556 132.556m0-282.582C97.146 30 30 97.146 30 180.026 30 262.854 97.146 330 180.026 330 262.853 330 330 262.854 330 180.026 330 97.146 262.853 30 180.026 30"/></svg>