<svg width="24" height="24" viewBox="0 0 24 24" fill="none" xmlns="http://www.w3.org/2000/svg">
<path fill-rule="evenodd" clip-rule="evenodd" d="M5.65507 4.2105C5.72496 3.94334 5.99818 3.78343 6.26533 3.85331L19.6822 7.36315C19.8983 7.41966 20.0506 7.61255 20.0556 7.83579C20.0605 8.05903 19.9169 8.25849 19.7035 8.32451L7.96016 11.9594L19.6822 15.0259C19.8983 15.0824 20.0506 15.2753 20.0556 15.4985C20.0605 15.7218 19.9169 15.9212 19.7035 15.9873L6.28666 20.1401C6.02287 20.2218 5.74283 20.0741 5.66118 19.8103C5.57952 19.5465 5.72718 19.2665 5.99098 19.1848L17.7343 15.55L6.01225 12.4835C5.79623 12.4269 5.64386 12.234 5.63892 12.0108C5.63397 11.7876 5.77764 11.5881 5.99095 11.5221L17.7343 7.88723L6.01225 4.82076C5.7451 4.75087 5.58519 4.47765 5.65507 4.2105Z" fill="white"/>
</svg>
