<svg width="40" height="40" viewBox="0 0 40 40" fill="none" xmlns="http://www.w3.org/2000/svg">
    <path
        d="M23.36 0.400018C23.4342 0.412471 23.5083 0.424923 23.5847 0.437753C27.2808 1.08702 30.5591 2.81999 33.36 5.28002C33.4393 5.34942 33.5186 5.41883 33.6003 5.49033C34.0346 5.87735 34.4269 6.27482 34.8 6.72002C34.8711 6.80049 34.9424 6.88078 35.0138 6.96096C36.0761 8.16153 36.9246 9.46775 37.68 10.88C37.7127 10.9408 37.7454 11.0015 37.779 11.0641C38.6867 12.7808 39.2792 14.7298 39.6 16.64C39.6129 16.7156 39.6258 16.7912 39.639 16.8691C39.9852 19.0017 39.9622 21.2318 39.6 23.36C39.5813 23.4712 39.5813 23.4712 39.5623 23.5847C38.913 27.2808 37.18 30.5591 34.72 33.36C34.6506 33.4393 34.5812 33.5186 34.5097 33.6003C34.1227 34.0346 33.7252 34.4269 33.28 34.8C33.1996 34.8711 33.1193 34.9424 33.0391 35.0138C31.8385 36.0761 30.5323 36.9246 29.12 37.68C29.0593 37.7127 28.9985 37.7454 28.9359 37.779C27.2192 38.6867 25.2702 39.2792 23.36 39.6C23.2844 39.6129 23.2088 39.6258 23.131 39.639C20.9983 39.9852 18.7683 39.9622 16.64 39.6C16.5659 39.5876 16.4917 39.5751 16.4153 39.5623C12.7193 38.913 9.44099 37.18 6.64002 34.72C6.56072 34.6506 6.48141 34.5812 6.39971 34.5097C5.96542 34.1227 5.57317 33.7252 5.20002 33.28C5.12894 33.1996 5.05768 33.1193 4.98627 33.0391C3.92391 31.8385 3.0754 30.5323 2.32002 29.12C2.28734 29.0593 2.25466 28.9985 2.22099 28.9359C1.31337 27.2192 0.720819 25.2702 0.400018 23.36C0.387154 23.2844 0.374289 23.2088 0.361034 23.131C0.0148725 20.9983 0.0378088 18.7683 0.400018 16.64C0.412471 16.5659 0.424923 16.4917 0.437753 16.4153C1.08702 12.7193 2.81999 9.44099 5.28002 6.64002C5.34942 6.56072 5.41883 6.48141 5.49033 6.39971C5.87735 5.96542 6.27482 5.57317 6.72002 5.20002C6.80049 5.12894 6.88078 5.05768 6.96096 4.98627C8.16153 3.92391 9.46775 3.0754 10.88 2.32002C10.9408 2.28734 11.0015 2.25466 11.0641 2.22099C12.7808 1.31337 14.7298 0.720819 16.64 0.400018C16.7156 0.387154 16.7912 0.374289 16.8691 0.361034C19.0017 0.0148725 21.2318 0.0378088 23.36 0.400018ZM6.96002 7.12002C6.88979 7.18592 6.81956 7.25181 6.74721 7.31971C5.44338 8.57807 4.43615 10.1618 3.60002 11.76C3.55176 11.8521 3.50349 11.9442 3.45377 12.0391C2.63748 13.6919 2.13123 15.5449 1.84002 17.36C1.82342 17.4632 1.80681 17.5665 1.78971 17.6728C1.26739 21.2643 1.89982 25.9597 4.03502 28.98C4.07967 29.0383 4.12432 29.0966 4.17033 29.1566C4.32958 29.373 4.46802 29.5964 4.60734 29.8259C4.9759 30.4329 5.37381 30.9827 5.84002 31.52C5.91599 31.6105 5.99182 31.7012 6.06752 31.7919C6.8261 32.6966 7.62869 33.5095 8.56002 34.24C8.63509 34.3014 8.71017 34.3627 8.78752 34.426C12.5528 37.4392 17.3731 38.659 22.1322 38.1588C25.0564 37.8089 28.0077 36.7793 30.4 35.04C30.4764 34.9854 30.5529 34.9307 30.6316 34.8744C32.752 33.3237 34.6561 31.3589 35.92 29.04C35.9628 28.964 35.9628 28.964 36.0064 28.8864C37.3529 26.4838 38.2331 23.6922 38.2591 20.9225C38.2599 20.8529 38.2606 20.7833 38.2614 20.7115C38.2752 19.1665 38.2596 17.6751 37.92 16.16C37.905 16.0918 37.8901 16.0235 37.8746 15.9532C37.7743 15.5096 37.6542 15.0745 37.52 14.64C37.5012 14.5781 37.4824 14.5162 37.463 14.4524C36.8132 12.3554 35.7794 10.4231 34.4 8.72002C34.3558 8.66498 34.3116 8.60993 34.266 8.55322C33.5 7.59375 33.5 7.59375 32.64 6.72002C32.5943 6.67774 32.5487 6.63546 32.5016 6.59189C29.5435 3.93028 25.443 1.75293 21.3813 1.74939C21.2959 1.74922 21.2959 1.74922 21.2087 1.74905C21.0258 1.74888 20.8429 1.74938 20.66 1.75002C20.5975 1.75014 20.535 1.75027 20.4706 1.75039C15.202 1.76268 10.8007 3.47865 6.96002 7.12002Z"
        fill="#010100" />
    <path
        d="M19.9274 24.927C20.1168 24.93 20.306 24.9303 20.4954 24.9303C21.7541 24.936 23.0007 25.1729 24 26C24.1605 26.3211 24.1288 26.6916 24.08 27.04C23.8221 27.5971 23.3707 27.857 22.8275 28.0918C22.2576 28.3513 21.8418 28.6629 21.4032 29.1018C21.0615 29.4406 20.7505 29.6477 20.265 29.73C19.7184 29.7081 19.2733 29.292 18.8509 28.9806C18.4464 28.6856 18.0403 28.4552 17.59 28.24C17.0183 27.965 16.4034 27.6652 16.16 27.04C16.1006 26.621 16.077 26.2746 16.33 25.925C16.4438 25.8433 16.4438 25.8433 16.56 25.76C16.6408 25.6989 16.7217 25.6379 16.805 25.575C17.04 25.44 17.04 25.44 17.36 25.44C17.36 25.3872 17.36 25.3344 17.36 25.28C18.2265 25.0181 19.0229 24.9124 19.9274 24.927Z"
        fill="#030303" />
    <path
        d="M20.4975 31.6144C20.845 31.7169 21.1793 31.8516 21.5153 31.9863C22.6137 32.4131 24.1931 32.4592 25.2819 31.9822C25.3341 31.9617 25.3862 31.9412 25.44 31.92C25.5192 31.9596 25.5192 31.9596 25.6 32C24.6882 32.8807 23.686 33.4083 22.48 33.76C22.3447 33.8009 22.3447 33.8009 22.2066 33.8425C20.9544 34.1657 19.5628 34.0871 18.32 33.76C18.2631 33.7454 18.2062 33.7308 18.1476 33.7157C17.0446 33.4233 15.9426 32.9832 14.96 32.4C14.9336 32.3472 14.9072 32.2944 14.88 32.24C15.4828 32.3115 15.4828 32.3115 15.6964 32.3602C16.1191 32.4354 16.5497 32.4244 16.978 32.428C17.0913 32.4293 17.2045 32.4315 17.3177 32.4346C18.3024 32.4612 19.2093 32.3318 20.05 31.77C20.32 31.6 20.32 31.6 20.4975 31.6144Z"
        fill="#080808" />
    <path
        d="M11.1349 18.48C11.6195 18.7478 12.034 19.1585 12.2399 19.68C12.3312 20.3273 12.2647 20.8179 11.8915 21.3581C11.5584 21.7679 11.1384 22.044 10.6106 22.1175C10.0054 22.1229 9.57417 22.1015 9.11994 21.68C8.65889 21.2262 8.45751 20.8388 8.43994 20.18C8.44987 19.6214 8.56181 19.2749 8.95994 18.88C9.63107 18.3413 10.3144 18.1061 11.1349 18.48Z"
        fill="#040201" />
    <path
        d="M30.105 18.525C30.5195 18.7501 30.7321 18.9498 30.96 19.36C31.0031 19.4322 31.0031 19.4322 31.0472 19.5059C31.2279 19.9381 31.196 20.4966 31.0472 20.9341C30.7523 21.4981 30.3441 21.8278 29.76 22.08C29.2546 22.1504 28.726 22.1763 28.275 21.91C27.865 21.599 27.5318 21.2084 27.36 20.72C27.2901 20.0342 27.3633 19.5682 27.735 18.99C28.412 18.2947 29.2196 18.114 30.105 18.525Z"
        fill="#040201" />
    <path
        d="M29.68 14.4C29.6198 14.447 29.5596 14.494 29.4975 14.5425C28.8391 15.0798 28.4151 15.7633 27.9725 16.4794C27.7 16.9137 27.4643 17.2341 26.99 17.46C26.5059 17.5676 26.0367 17.5879 25.565 17.425C25.2611 17.21 25.0731 17.0619 25.0038 16.6809C24.974 16.1921 25.0443 15.8729 25.3688 15.5022C26.5563 14.3858 28.1431 14.3686 29.68 14.4Z"
        fill="#FDFBF9" />
    <path
        d="M10.72 14.4C11.7534 14.3733 12.806 14.3613 13.76 14.8C13.8359 14.8215 13.9118 14.8429 13.99 14.865C14.4887 15.0545 14.9925 15.3398 15.2331 15.8353C15.355 16.2635 15.3457 16.7047 15.19 17.12C14.9321 17.3951 14.6568 17.5078 14.285 17.5547C13.3248 17.5558 13.3248 17.5558 12.96 17.2C12.5699 16.7797 12.2749 16.3283 11.9831 15.8369C11.64 15.2708 11.285 14.8298 10.72 14.48C10.72 14.4536 10.72 14.4272 10.72 14.4Z"
        fill="#FDFCFB" />
</svg>