<svg width="260" height="260" viewBox="0 0 1024 1024" xmlns:xlink="http://www.w3.org/1999/xlink" fill="#0090ff" class="sc-kgOKUu fXXHPD">
   <defs>
      <path id="prefix__b" d="M0 0h613.082v613.082H0z"></path>
      <path d="M500.463 859.034c198.27 0 359-160.73 359-359 0-51.698-10.928-100.843-30.6-145.253-55.771-125.908-181.828-213.747-328.4-213.747-198.27 0-359 160.73-359 359s160.73 359 359 359z" id="prefix__a"></path>
      <mask id="prefix__d" maskContentUnits="userSpaceOnUse" maskUnits="objectBoundingBox" x="-28" y="-28" width="774" height="774">
         <path d="M113.463 113.034h774v774h-774z"></path>
         <use href="#prefix__a"></use>
      </mask>
   </defs>
   <g transform="translate(13 14)" fill="none" fill-rule="evenodd">
      <path stroke-width="12" stroke="#0090ff" d="M522.847 458.936l-9.306 48.87 88.41 12.218-6.205 22.908-86.858-12.218c-6.204 19.854-9.307 41.235-17.062 59.562-7.755 21.38-15.51 42.761-24.816 62.615-12.409 25.963-34.123 44.29-63.593 48.87-17.062 3.055-35.674 1.528-49.634-9.162-4.653-3.055-9.306-9.164-9.306-13.745 0-6.11 3.102-13.745 7.755-16.8 3.102-1.527 10.858 0 15.51 1.528 4.654 4.581 9.307 10.69 12.41 16.799 9.305 12.218 21.714 13.745 34.122 4.582 13.96-12.218 21.715-29.017 26.368-45.817 9.306-36.653 18.612-71.779 26.368-108.432v-6.108l-82.206-12.218 3.102-22.908 85.308 12.217 10.857-47.343-88.41-13.745 3.103-24.435 91.511 12.217c3.102-9.163 4.653-16.799 7.755-24.435 7.756-27.49 15.51-54.98 34.123-79.415 18.613-24.435 40.328-39.707 72.9-38.18 13.959 0 27.918 4.582 37.225 15.272 1.55 1.527 4.653 4.582 4.653 7.636 0 6.109 0 13.745-4.653 18.327-6.205 4.581-13.96 3.054-20.164-3.055-4.653-4.581-7.755-9.163-12.408-13.745-9.307-12.217-23.266-13.745-34.123-3.054-7.756 7.636-15.51 18.326-20.164 29.017-10.857 32.071-18.612 65.67-29.47 99.269l85.308 12.217-6.205 22.908-82.205-12.217"></path>
      <use stroke="#0090ff" mask="url(#prefix__d)" stroke-width="56" stroke-dasharray="420,149" transform="rotate(35 500.463 500.034)" xlink:href="#prefix__a"></use>
      <circle stroke="#0090ff" stroke-width="28" cx="500.099" cy="499.099" r="430.412"></circle>
   </g>
</svg>