<svg width="100" height="100" viewBox="0 0 100 100" fill="#0090ff">
   <path fill-rule="evenodd" clip-rule="evenodd" d="M53.103 48.46l.423-2.606.204-1.076 10.217 1.884a1.88 1.88 0 002.192-1.495 1.868 1.868 0 00-1.505-2.176l-10.05-1.853c.53-1.737 1.01-3.472 1.489-5.193.682-2.46 1.357-4.89 2.154-7.262.64-1.485 1.709-2.97 2.777-4.031 1.496-1.486 3.42-1.273 4.701.424.32.318.588.636.855.955.267.318.534.636.855.954.854.85 1.923 1.061 2.777.425.641-.637.641-1.698.641-2.546 0-.425-.427-.849-.64-1.061-1.283-1.485-3.206-2.122-5.129-2.122-4.487-.212-7.478 1.91-10.043 5.304-2.564 3.395-3.632 7.214-4.7 11.033-.25.618-.426 1.236-.614 1.896l-.089.309-4.577-.844a1.88 1.88 0 00-2.192 1.495 1.868 1.868 0 001.505 2.176l4.321.797-.277 1.172-.562 2.47-11.341-2.09a1.88 1.88 0 00-2.192 1.495 1.868 1.868 0 001.505 2.176l11.199 2.065-.105.462-.849 3.16-10.932-2.015a1.88 1.88 0 00-2.192 1.495 1.868 1.868 0 001.505 2.176l10.998 2.027c-.738 3.254-1.549 6.452-2.374 9.71-.214.842-.429 1.689-.644 2.542-.64 2.333-1.709 4.667-3.632 6.365-1.71 1.272-3.419 1.06-4.7-.637a9.424 9.424 0 00-1.71-2.334c-.641-.212-1.71-.424-2.137-.212-.641.424-1.068 1.485-1.068 2.334 0 .636.64 1.485 1.282 1.91 1.923 1.485 4.487 1.697 6.837 1.272 4.06-.636 7.052-3.182 8.761-6.789 1.282-2.758 2.35-5.728 3.419-8.699.586-1.397.98-2.92 1.356-4.468l3.396.626a1.88 1.88 0 002.191-1.495 1.868 1.868 0 00-1.505-2.176l-3.143-.58a27.2 27.2 0 01.055-.181l.641-3.183.048-.297 10.07 1.857a1.88 1.88 0 002.192-1.495 1.868 1.868 0 00-1.505-2.177l-10.159-1.872zM38.54 38.133a1.88 1.88 0 00-2.192 1.495 1.868 1.868 0 001.505 2.177 1.88 1.88 0 002.192-1.495 1.868 1.868 0 00-1.505-2.177zm22.39 23.19a1.88 1.88 0 002.192-1.494 1.868 1.868 0 00-1.505-2.177 1.88 1.88 0 00-2.192 1.495 1.868 1.868 0 001.505 2.177zM68.177 11.02l-1.654 3.541A38.928 38.928 0 0050 10.91a38.928 38.928 0 00-16.523 3.652l-1.654-3.541A42.838 42.838 0 0150 7c6.496 0 12.656 1.44 18.177 4.02zm-42.843 3.753l2.245 3.2a39.336 39.336 0 00-9.606 9.606l-3.2-2.245a43.244 43.244 0 0110.561-10.56zM11.02 31.823l3.541 1.654A38.928 38.928 0 0010.91 50c0 5.913 1.31 11.509 3.652 16.523l-3.541 1.654A42.838 42.838 0 017 50c0-6.496 1.44-12.656 4.02-18.177zm3.753 42.843l3.2-2.245a39.336 39.336 0 009.606 9.606l-2.245 3.2a43.244 43.244 0 01-10.56-10.561zm17.05 14.315A42.838 42.838 0 0050 93c6.496 0 12.656-1.44 18.177-4.02l-1.654-3.541A38.928 38.928 0 0150 89.09a38.928 38.928 0 01-16.523-3.652l-1.654 3.542zm42.843-3.754l-2.245-3.2a39.336 39.336 0 009.606-9.606l3.2 2.245a43.246 43.246 0 01-10.561 10.56zm14.315-17.05l-3.542-1.654A38.928 38.928 0 0089.09 50c0-5.913-1.31-11.509-3.652-16.523l3.542-1.654A42.838 42.838 0 0193 50c0 6.496-1.44 12.656-4.02 18.177zm-3.754-42.843l-3.2 2.245a39.336 39.336 0 00-9.606-9.606l2.245-3.2a43.246 43.246 0 0110.56 10.561z"></path>
</svg>