<svg width="24" height="24" viewBox="0 0 24 24" fill="none"><path fill="#fff" fill-rule="evenodd" d="M13.81 9.874 13.3 10c-.46.112-.783.517-.783.982v3.404l-1.685.412a.517.517 0 0 1-.642-.492V8.64a.51.51 0 0 1 .392-.492l2.586-.633a.517.517 0 0 1 .642.491zm-5.689-.031L7.482 10c-.46.112-.784.517-.784.982v3.435l-1.555.381a.517.517 0 0 1-.643-.492V8.64a.51.51 0 0 1 .391-.492l2.587-.633a.518.518 0 0 1 .642.491zm8.15-1.68 2.586-.632a.517.517 0 0 1 .643.491v5.667a.51.51 0 0 1-.392.491l-2.586.633a.517.517 0 0 1-.642-.491V8.655c0-.233.161-.435.391-.491" clip-rule="evenodd"/><path fill="#fff" fill-rule="evenodd" d="M9.673 9.986v4.32q0 .124.03.246a1.035 1.035 0 0 0 1.133.76v.704a.51.51 0 0 1-.392.492l-2.585.633a.52.52 0 0 1-.628-.369.5.5 0 0 1-.015-.123v-5.667c0-.232.161-.435.391-.491zm5.69.031v4.305q0 .125.03.246c.139.542.7.872 1.255.737l.007-.002v.712a.51.51 0 0 1-.391.492l-2.587.633a.52.52 0 0 1-.627-.368.5.5 0 0 1-.015-.123v-5.667c0-.232.161-.435.392-.491z" clip-rule="evenodd" opacity=".504"/><path fill="#8200ff" fill-rule="evenodd" d="m13.81 9.547-.51.125c-.46.112-.783.517-.783.982v3.404l-1.685.412a.517.517 0 0 1-.642-.492V8.312a.51.51 0 0 1 .392-.492l2.586-.633a.517.517 0 0 1 .642.491zm-5.689-.032-.639.157c-.46.112-.784.517-.784.982v3.435l-1.555.381a.517.517 0 0 1-.643-.492V8.312a.51.51 0 0 1 .391-.492l2.587-.633a.518.518 0 0 1 .642.491zm8.15-1.68 2.586-.632a.517.517 0 0 1 .643.491v5.667a.51.51 0 0 1-.392.491l-2.586.633a.517.517 0 0 1-.642-.49V8.326c0-.232.161-.435.391-.491" clip-rule="evenodd"/><path fill="#8200ff" fill-rule="evenodd" d="M9.673 9.658v4.32q0 .124.03.246a1.035 1.035 0 0 0 1.133.76v.704a.51.51 0 0 1-.392.492l-2.585.633a.52.52 0 0 1-.628-.369.5.5 0 0 1-.015-.123v-5.667c0-.232.161-.435.391-.49zm5.69.031v4.305q0 .124.03.246c.139.542.7.872 1.255.737l.007-.002v.713a.51.51 0 0 1-.391.492l-2.587.633a.517.517 0 0 1-.642-.492v-5.667c0-.232.161-.435.392-.49z" clip-rule="evenodd" opacity=".504"/></svg>