<svg width="24" height="24" viewBox="0 0 24 24" fill="none"><path fill="#ed1650" fill-rule="evenodd" d="M17.623 6.759H14.59a.46.46 0 0 0-.33.14l-5.53 5.646a.46.46 0 0 1-.33.14H7.385a.46.46 0 0 1-.33-.14l-.717-.73a.48.48 0 0 1-.137-.335v-1.033a.48.48 0 0 1 .137-.336l.717-.73a.46.46 0 0 1 .33-.14h1.014a.46.46 0 0 1 .33.14l.44.448a.46.46 0 0 0 .66 0l1.064-1.083a.48.48 0 0 0 0-.672L9.738 6.899a.46.46 0 0 0-.33-.14H6.375a.46.46 0 0 0-.33.14L3.9 9.083a.48.48 0 0 0-.136.336v3.088c0 .126.05.248.136.336l2.145 2.185a.46.46 0 0 0 .33.138H9.41a.46.46 0 0 0 .33-.139l5.531-5.646a.46.46 0 0 1 .33-.14h1.014c.124 0 .243.05.33.14l.717.73a.48.48 0 0 1 .138.336v1.033a.48.48 0 0 1-.138.335l-.717.73a.46.46 0 0 1-.33.14H15.6a.46.46 0 0 1-.33-.14l-.444-.452a.46.46 0 0 0-.656-.004l-1.312 1.307a.48.48 0 0 0-.14.34v3.03c0 .262.209.475.466.475h1.53a.47.47 0 0 0 .467-.475v-1.125a.47.47 0 0 1 .467-.475h1.976a.46.46 0 0 0 .33-.138l2.145-2.185a.48.48 0 0 0 .137-.336V9.419a.48.48 0 0 0-.136-.336l-2.145-2.184a.46.46 0 0 0-.33-.14" clip-rule="evenodd"/></svg>