<svg width="24" height="24" viewBox="0 0 24 24" fill="none"><path fill="#1eb5fa" d="M19.836 5.501 17.113 6.71a.5.5 0 0 0-.262.442v9.735a.5.5 0 0 0 .27.443l2.722 1.177a.254.254 0 0 0 .375-.225V5.726a.262.262 0 0 0-.382-.225M6.796 6.694l-2.64-1.2a.254.254 0 0 0-.374.225v12.555a.256.256 0 0 0 .39.217l2.655-1.402a.5.5 0 0 0 .24-.428V7.136a.53.53 0 0 0-.27-.442m8.28 3.322L12.235 8.39a.5.5 0 0 0-.502 0L8.837 10a.51.51 0 0 0-.255.443v3.3c0 .182.097.35.255.442l2.895 1.665a.5.5 0 0 0 .502 0l2.843-1.65a.51.51 0 0 0 .255-.442v-3.3a.5.5 0 0 0-.255-.443"/></svg>