<svg width="24" height="24" viewBox="0 0 24 24" fill="none"><path fill="#fff" fill-rule="evenodd" d="m17.25 14.655-1.112 4.095H6.75v-.685l5.092-5.789-4.99-6.282V5.25h9.249l.323 3.189h-.593q-.585-1.09-.996-1.631-.41-.54-.731-.675a2 2 0 0 0-.626-.157 8 8 0 0 0-.954-.049H9.896l3.937 4.905v.236l-4.866 5.524h5.554q.41 0 .75-.195.34-.196.588-.49.263-.306.462-.655.213-.37.373-.767z" clip-rule="evenodd"/><path fill="#004a80" fill-rule="evenodd" d="m17.25 14.655-1.112 4.095H6.75v-.685l5.092-5.789-4.99-6.282V5.25h9.249l.323 3.189h-.593q-.585-1.09-.996-1.631-.41-.54-.731-.675a2 2 0 0 0-.626-.157 8 8 0 0 0-.954-.049H9.896l3.937 4.905v.236l-4.866 5.524h5.554q.41 0 .75-.195.34-.196.588-.49.263-.306.462-.655.213-.37.373-.767z" clip-rule="evenodd"/></svg>