<svg width="24" height="24" viewBox="0 0 24 24" fill="none"><path fill="#f60" d="M21 12a9 9 0 0 1-9 9A9 9 0 0 1 4.772 6.635l1.47 1.47A6.9 6.9 0 0 0 5.046 12a6.95 6.95 0 0 0 6.947 6.947A6.953 6.953 0 0 0 18.94 12a6.95 6.95 0 0 0-1.196-3.895l1.47-1.47A8.9 8.9 0 0 1 21 12"/><path fill="#f60" d="M16.978 12A4.983 4.983 0 0 1 12 16.978 4.983 4.983 0 0 1 7.021 12c0-.865.225-1.715.654-2.467L12 13.856l4.325-4.325c.428.752.654 1.603.654 2.469"/><path fill="#f60" d="M17.885 5.194 12 11.072 7.514 6.593l-1.4-1.4A8.93 8.93 0 0 1 12 3c2.25 0 4.304.823 5.885 2.194"/></svg>