<?xml version="1.0" encoding="UTF-8"?>
<svg xmlns="http://www.w3.org/2000/svg" xmlns:xlink="http://www.w3.org/1999/xlink" width="19pt" height="19pt" viewBox="0 0 19 19" version="1.1">
<g id="surface53329">
<path style=" stroke:none;fill-rule:nonzero;fill:rgb(100%,100%,100%);fill-opacity:1;" d="M 19 9.480469 C 19 14.738281 14.738281 19 9.480469 19 C 4.222656 19 -0.0390625 14.738281 -0.0390625 9.480469 C -0.0390625 4.222656 4.222656 -0.0390625 9.480469 -0.0390625 C 14.738281 -0.0390625 19 4.222656 19 9.480469 Z M 19 9.480469 "/>
<path style=" stroke:none;fill-rule:nonzero;fill:rgb(89.803922%,3.529412%,7.450981%);fill-opacity:1;" d="M 12.808594 4.914062 L 6.464844 4.914062 L 6.464844 6.308594 L 12.808594 6.308594 Z M 12.808594 4.914062 "/>
<path style=" stroke:none;fill-rule:nonzero;fill:rgb(0%,0%,0%);fill-opacity:1;" d="M 12.929688 9.847656 C 12.929688 10.339844 12.816406 10.789062 12.59375 11.199219 C 12.367188 11.601562 12.019531 11.929688 11.554688 12.179688 C 11.085938 12.429688 10.507812 12.554688 9.816406 12.554688 L 8.535156 12.554688 L 8.535156 15.59375 L 6.472656 15.59375 L 6.472656 7.121094 L 9.816406 7.121094 C 10.492188 7.121094 11.0625 7.238281 11.53125 7.46875 C 11.996094 7.703125 12.347656 8.027344 12.582031 8.4375 C 12.8125 8.847656 12.929688 9.316406 12.929688 9.847656 Z M 9.660156 10.910156 C 10.054688 10.910156 10.347656 10.820312 10.539062 10.632812 C 10.734375 10.449219 10.828125 10.1875 10.828125 9.847656 C 10.828125 9.511719 10.734375 9.25 10.539062 9.0625 C 10.347656 8.878906 10.054688 8.785156 9.660156 8.785156 L 8.535156 8.785156 L 8.535156 10.910156 Z M 9.660156 10.910156 "/>
</g>
</svg>
