<svg width="24" height="24" viewBox="0 0 24 24" fill="none">
<path fill-rule="evenodd" clip-rule="evenodd" d="M13.2683 17.3611L15.8795 15.9568L14.9305 13.9997L13.2683 17.3611ZM15.8844 12.0707L17.7648 15.9485L18.1205 16.6819L17.4026 17.068L12.4026 19.7569L12 19.9734L11.5974 19.7569L6.59742 17.068L5.87955 16.6819L6.23519 15.9485L8.11559 12.0707L6.23809 8.27401L5.88492 7.55983L6.57478 7.16125L11.5748 4.27231L12 4.02661L12.4253 4.27231L17.4253 7.16125L18.1151 7.55983L17.7619 8.27401L15.8844 12.0707ZM10.0085 12.0634L12 7.95639L13.9916 12.0634L12 16.0907L10.0085 12.0634ZM9.06951 13.9997L8.12049 15.9568L10.7317 17.3611L9.06951 13.9997ZM9.05455 10.1344L8.11511 8.23462L10.7 6.74111L9.05455 10.1344ZM13.3 6.74111L15.8849 8.23462L14.9455 10.1344L13.3 6.74111Z" fill="black"/>
</svg>
