<svg width="24" height="24" viewBox="0 0 24 24" fill="none"><path fill="#fff" d="M20.25 12a8.25 8.25 0 1 1-16.5 0 8.25 8.25 0 0 1 16.5 0m-2.828.26c.006-.094 0 0 0-.096 0-2.705-1.998-5.108-4.591-5.512V5.077l-1.68.523v1.053a5.41 5.41 0 0 0-4.576 5.343 5.416 5.416 0 0 0 4.757 5.374v1.551l1.68-.523v-1.085a5.42 5.42 0 0 0 4.081-3.51h-1.74a3.81 3.81 0 0 1-5.96.99 3.82 3.82 0 0 1-1.208-2.52l9.238-.014m-8.984-1.662a3.82 3.82 0 0 1 7.107 0z"/><path fill="#25aae3" d="M20.25 12a8.25 8.25 0 1 1-16.5 0 8.25 8.25 0 0 1 16.5 0m-2.828.26c.006-.094 0 0 0-.096 0-2.705-1.998-5.108-4.591-5.512V5.077l-1.68.523v1.053a5.41 5.41 0 0 0-4.576 5.343 5.416 5.416 0 0 0 4.757 5.374v1.551l1.68-.523v-1.085a5.42 5.42 0 0 0 4.081-3.51h-1.74a3.81 3.81 0 0 1-5.96.99 3.82 3.82 0 0 1-1.208-2.52l9.238-.014m-8.984-1.662a3.82 3.82 0 0 1 7.107 0z"/></svg>