<svg width="24" height="24" viewBox="0 0 24 24" fill="none"><path fill="#21a5de" d="M16.118 12.431c.255.273.409.637.409 1.036 0 .847-.696 1.533-1.554 1.533a1.543 1.543 0 0 1-1.553-1.533c0-.399.155-.763.409-1.036a.558.558 0 0 1-.897-.431.54.54 0 0 1 .118-.338 1.56 1.56 0 0 1-1.05.404 1.56 1.56 0 0 1-1.05-.404.54.54 0 0 1 .118.338.55.55 0 0 1-.555.547.56.56 0 0 1-.341-.116c.253.273.408.637.408 1.036 0 .847-.696 1.533-1.553 1.533a1.544 1.544 0 0 1-1.554-1.533c0-.399.155-.763.409-1.036A.558.558 0 0 1 6.986 12a.54.54 0 0 1 .117-.338 1.56 1.56 0 0 1-1.05.404A1.543 1.543 0 0 1 4.5 10.533C4.5 9.686 5.195 9 6.053 9s1.553.686 1.553 1.533c0 .385-.145.755-.408 1.036a.557.557 0 0 1 .897.431.54.54 0 0 1-.118.338c.276-.251.645-.404 1.05-.404s.773.153 1.05.404A.54.54 0 0 1 9.959 12a.557.557 0 1 1 .896-.431 1.52 1.52 0 0 1-.408-1.036C10.447 9.686 11.142 9 12 9s1.553.686 1.553 1.533c0 .385-.146.755-.409 1.036a.557.557 0 0 1 .897.431.54.54 0 0 1-.117.338c.276-.251.645-.404 1.05-.404s.772.153 1.05.404a.54.54 0 0 1-.119-.338.558.558 0 1 1 .897-.431 1.52 1.52 0 0 1-.409-1.036c0-.847.696-1.533 1.554-1.533s1.553.686 1.553 1.533-.695 1.533-1.553 1.533a1.56 1.56 0 0 1-1.05-.404.54.54 0 0 1 .118.338.55.55 0 0 1-.556.547.56.56 0 0 1-.34-.116z"/></svg>