<svg width="24" height="24" viewBox="0 0 24 24" fill="none" xmlns="http://www.w3.org/2000/svg">
<path d="M3.50391 19.224L7.94391 21.816L11.9999 19.464L16.0559 21.816L20.4959 19.224V14.136L16.8239 12L20.4959 9.86396V4.77596L16.0559 2.18396L11.9999 4.53596L7.94391 2.18396L3.50391 4.77596V9.86396L7.17591 12L3.50391 14.136V19.224ZM4.27191 18.792V14.952L7.60791 16.872V20.712L4.27191 18.792ZM4.27191 9.43196V5.59196L7.60791 7.51196V11.352L4.27191 9.43196ZM4.60791 14.376L7.99191 12.408L11.3519 14.352L7.94391 16.296L4.60791 14.376ZM4.60791 5.01596L7.94391 3.09596L11.2799 5.01596L7.94391 6.93596L4.60791 5.01596ZM8.27991 20.712V16.872L11.6639 14.928V18.744L8.27991 20.712ZM8.27991 11.424V7.51196L11.6639 5.56796V9.45596L8.27991 11.424ZM8.59191 12L11.9999 10.032L15.4079 12L11.9999 13.968L8.59191 12ZM12.3359 18.744V14.928L15.7199 16.872V20.712L12.3359 18.744ZM12.3359 9.45596V5.56796L15.7199 7.51196V11.424L12.3359 9.45596ZM12.6479 14.352L16.0079 12.408L19.3919 14.376L16.0559 16.296L12.6479 14.352ZM12.7199 5.01596L16.0559 3.09596L19.3919 5.01596L16.0559 6.93596L12.7199 5.01596ZM16.3919 20.712V16.872L19.7279 14.952V18.792L16.3919 20.712ZM16.3919 11.352V7.51196L19.7279 5.59196V9.43196L16.3919 11.352Z" fill="black"/>
</svg>
