<svg width="24" height="24" viewBox="0 0 24 24" fill="none" xmlns="http://www.w3.org/2000/svg">
<path d="M3.50403 19.224L7.94403 21.816L12 19.464L16.056 21.816L20.496 19.224V14.136L16.824 12L20.496 9.86396V4.77596L16.056 2.18396L12 4.53596L7.94403 2.18396L3.50403 4.77596V9.86396L7.17603 12L3.50403 14.136V19.224ZM4.27203 18.792V14.952L7.60803 16.872V20.712L4.27203 18.792ZM4.27203 9.43196V5.59196L7.60803 7.51196V11.352L4.27203 9.43196ZM4.60803 14.376L7.99203 12.408L11.352 14.352L7.94403 16.296L4.60803 14.376ZM4.60803 5.01596L7.94403 3.09596L11.28 5.01596L7.94403 6.93596L4.60803 5.01596ZM8.28003 20.712V16.872L11.664 14.928V18.744L8.28003 20.712ZM8.28003 11.424V7.51196L11.664 5.56796V9.45596L8.28003 11.424ZM8.59203 12L12 10.032L15.408 12L12 13.968L8.59203 12ZM12.336 18.744V14.928L15.72 16.872V20.712L12.336 18.744ZM12.336 9.45596V5.56796L15.72 7.51196V11.424L12.336 9.45596ZM12.648 14.352L16.008 12.408L19.392 14.376L16.056 16.296L12.648 14.352ZM12.72 5.01596L16.056 3.09596L19.392 5.01596L16.056 6.93596L12.72 5.01596ZM16.392 20.712V16.872L19.728 14.952V18.792L16.392 20.712ZM16.392 11.352V7.51196L19.728 5.59196V9.43196L16.392 11.352Z" fill="black"/>
</svg>
