<svg width="24" height="24" viewBox="0 0 24 24" fill="none" xmlns="http://www.w3.org/2000/svg">
<path d="M12 22.3201C17.424 22.3201 19.896 19.1281 19.944 12.0001C19.896 4.87205 17.424 1.68005 12 1.68005C6.57603 1.68005 4.10403 4.87205 4.05603 12.0001C4.10403 19.1281 6.57603 22.3201 12 22.3201ZM7.53603 15.7681L11.28 12.0001L7.53603 8.23205L8.54403 7.22405L11.52 10.2961V3.09605L16.728 8.47205L13.2 12.0001L16.728 15.5281L11.52 20.9041V13.7041L8.54403 16.7761L7.53603 15.7681ZM12.936 17.3521L14.688 15.5281L12.936 13.7041V17.3521ZM12.936 10.2961L14.688 8.47205L12.936 6.64805V10.2961Z" fill="black"/>
</svg>
