<svg width="24" height="24" viewBox="0 0 24 24" fill="none" xmlns="http://www.w3.org/2000/svg">
<path d="M19.668 20.136C20.892 20.136 21.9 19.128 21.9 17.904C21.9 16.68 20.892 15.672 19.668 15.672C19.02 15.672 18.42 15.984 18.012 16.44L15.276 14.832C15.468 14.448 15.564 14.016 15.564 13.56C15.564 11.856 14.172 10.44 12.444 10.44C12.084 10.44 11.748 10.512 11.436 10.632L10.14 7.89601C10.692 7.48801 11.076 6.81601 11.076 6.09601C11.076 4.87201 10.068 3.86401 8.84398 3.86401C7.61998 3.86401 6.61198 4.87201 6.61198 6.09601C6.61198 7.32001 7.61998 8.32801 8.84398 8.32801C9.05998 8.32801 9.27598 8.28001 9.46798 8.23201L10.764 10.944C9.89998 11.496 9.34798 12.456 9.34798 13.56C9.34798 15.312 10.716 16.68 12.444 16.68C13.452 16.68 14.34 16.2 14.892 15.48L17.604 17.088C17.508 17.328 17.436 17.616 17.436 17.904C17.436 19.128 18.444 20.136 19.668 20.136ZM2.09998 13.584C2.09998 14.448 2.81998 15.168 3.68398 15.168C4.57198 15.168 5.29198 14.448 5.29198 13.584C5.29198 12.696 4.57198 11.976 3.68398 11.976C2.81998 11.976 2.09998 12.696 2.09998 13.584ZM6.20398 13.92H8.41198V13.248H6.20398V13.92ZM7.37998 6.09601C7.37998 5.28001 8.05198 4.60801 8.84398 4.60801C9.65998 4.60801 10.332 5.28001 10.332 6.09601C10.332 6.88801 9.65998 7.56001 8.84398 7.56001C8.05198 7.56001 7.37998 6.88801 7.37998 6.09601ZM10.116 13.56C10.116 12.264 11.148 11.232 12.444 11.232C13.74 11.232 14.772 12.264 14.772 13.56C14.772 14.88 13.74 15.888 12.444 15.888C11.148 15.888 10.116 14.88 10.116 13.56ZM15.564 10.848L15.948 11.4L18.324 9.67201L17.916 9.12001L15.564 10.848ZM18.204 17.904C18.204 17.088 18.876 16.416 19.668 16.416C20.484 16.416 21.156 17.088 21.156 17.904C21.156 18.696 20.484 19.368 19.668 19.368C18.876 19.368 18.204 18.696 18.204 17.904ZM18.612 7.87201C18.612 8.76001 19.332 9.48001 20.196 9.48001C21.084 9.48001 21.804 8.76001 21.804 7.87201C21.804 6.98401 21.084 6.26401 20.196 6.26401C19.332 6.26401 18.612 6.98401 18.612 7.87201Z" fill="black"/>
</svg>
