<svg width="24" height="24" viewBox="0 0 24 24" fill="none" xmlns="http://www.w3.org/2000/svg">
<path d="M5.2799 17.844H18.7199V17.076H16.4399C18.5759 15.66 19.9199 13.284 19.9199 10.62C19.9199 6.25195 16.3679 2.69995 11.9999 2.69995C7.6319 2.69995 4.0799 6.25195 4.0799 10.62C4.0799 13.284 5.3999 15.636 7.5359 17.076H5.2799V17.844ZM2.3999 21.2999H21.5999V14.9399H20.7599V20.4839H3.2399V14.9399H2.3999V21.2999ZM4.9199 10.62C4.9199 6.70795 8.0879 3.53995 11.9999 3.53995C15.9119 3.53995 19.0799 6.70795 19.0799 10.62C19.0799 13.5719 17.2559 16.092 14.7119 17.076H9.3119C6.7439 16.092 4.9199 13.5719 4.9199 10.62ZM9.1199 11.676C9.1199 13.26 10.1519 14.268 11.6639 14.412V15.3479H12.3359V14.436C13.7999 14.316 14.8319 13.452 14.8319 12.18C14.8319 11.028 14.0159 10.356 12.7199 10.188L12.3359 10.14V7.35595C13.4159 7.45195 13.9679 8.07595 13.9439 9.20395H14.7119C14.7119 7.78795 13.7519 6.77995 12.3359 6.65995V5.74795H11.6639V6.68395C10.3679 6.82795 9.4079 7.66795 9.4079 8.84395C9.4079 9.89995 10.1279 10.572 11.3279 10.716L11.6639 10.764V13.716C10.4879 13.596 9.8639 12.948 9.8399 11.676H9.1199ZM10.1279 8.79595C10.1279 7.97995 10.7039 7.47595 11.6639 7.37995V10.068L11.4959 10.044C10.5599 9.92395 10.1279 9.53995 10.1279 8.79595ZM12.3359 13.74V10.836L12.5519 10.86C13.5839 10.98 14.0879 11.388 14.0879 12.204C14.0879 13.116 13.4639 13.644 12.3359 13.74Z" fill="black"/>
</svg>
