<svg width="24" height="24" viewBox="0 0 24 24" fill="none" xmlns="http://www.w3.org/2000/svg">
<path d="M5.28002 17.844H18.72V17.076H16.44C18.576 15.66 19.92 13.284 19.92 10.62C19.92 6.25195 16.368 2.69995 12 2.69995C7.63202 2.69995 4.08002 6.25195 4.08002 10.62C4.08002 13.284 5.40002 15.636 7.53602 17.076H5.28002V17.844ZM2.40002 21.2999H21.6V14.94H20.76V20.4839H3.24002V14.94H2.40002V21.2999ZM4.92002 10.62C4.92002 6.70795 8.08802 3.53995 12 3.53995C15.912 3.53995 19.08 6.70795 19.08 10.62C19.08 13.572 17.256 16.092 14.712 17.076H9.31202C6.74402 16.092 4.92002 13.572 4.92002 10.62ZM9.12002 11.676C9.12002 13.26 10.152 14.268 11.664 14.412V15.348H12.336V14.436C13.8 14.316 14.832 13.452 14.832 12.18C14.832 11.028 14.016 10.356 12.72 10.188L12.336 10.14V7.35595C13.416 7.45195 13.968 8.07595 13.944 9.20395H14.712C14.712 7.78795 13.752 6.77995 12.336 6.65995V5.74795H11.664V6.68395C10.368 6.82795 9.40802 7.66795 9.40802 8.84395C9.40802 9.89995 10.128 10.572 11.328 10.716L11.664 10.764V13.716C10.488 13.596 9.86402 12.948 9.84002 11.676H9.12002ZM10.128 8.79595C10.128 7.97995 10.704 7.47595 11.664 7.37995V10.068L11.496 10.044C10.56 9.92395 10.128 9.53995 10.128 8.79595ZM12.336 13.74V10.836L12.552 10.86C13.584 10.98 14.088 11.388 14.088 12.204C14.088 13.116 13.464 13.644 12.336 13.74Z" fill="black"/>
</svg>
