<svg width="24" height="24" viewBox="0 0 24 24" fill="none" xmlns="http://www.w3.org/2000/svg">
<path d="M17.6518 16.464V17.28C20.1718 17.064 21.9478 15.12 21.9478 12.768C21.9478 10.488 20.2678 8.63999 18.0838 8.32798C17.7718 5.49599 15.3238 3.35999 12.4918 3.35999C10.4038 3.35999 8.55576 4.48799 7.57176 6.19199C4.57176 6.21599 2.05176 8.68798 2.05176 11.76C2.05176 14.304 3.77976 16.464 6.17976 17.136V16.272C4.25976 15.672 2.89176 13.92 2.89176 11.76C2.89176 8.90399 5.29176 6.74399 8.12376 7.05599C8.86776 5.30399 10.4998 4.17599 12.4918 4.17599C15.1798 4.17599 17.3638 6.28799 17.2678 9.09598C19.4278 9.04799 21.1078 10.608 21.1078 12.768C21.1078 14.712 19.6678 16.248 17.6518 16.464ZM7.64376 16.296L11.9878 20.64L16.3318 16.296L15.7798 15.744L14.1238 17.424C13.5478 17.976 12.9718 18.576 12.3958 19.152V11.28H11.5798V19.152C11.0038 18.576 10.4278 17.976 9.85176 17.424L8.19576 15.744L7.64376 16.296Z" fill="black"/>
</svg>
