<svg width="24" height="24" viewBox="0 0 24 24" fill="none" xmlns="http://www.w3.org/2000/svg">
<path d="M8.84397 16.14H11.796C13.404 16.14 14.796 15.54 15.78 14.244C15.972 14.004 16.116 13.788 16.236 13.524H16.836C19.596 13.524 21.66 11.7 21.66 9.15599C21.66 6.56399 19.596 4.73999 16.836 4.73999H3.77997V10.26C3.77997 12.084 4.11597 13.284 4.88397 14.244C5.89197 15.54 7.23597 16.14 8.84397 16.14ZM2.33997 18.42C2.60397 18.9 3.15597 19.26 3.77997 19.26H17.94C18.588 19.26 19.116 18.9 19.38 18.42H2.33997ZM4.64397 10.596V5.55599H15.996V10.596C15.996 13.452 14.7 15.3 11.844 15.3H8.79597C6.03597 15.3 4.64397 13.524 4.64397 10.596ZM16.548 12.708C16.788 12.036 16.86 11.244 16.86 10.26V5.55599C19.332 5.55599 20.796 6.80399 20.796 9.01199V9.32399C20.796 11.46 19.332 12.708 16.884 12.708H16.548Z" fill="black"/>
</svg>
