<svg width="24" height="24" viewBox="0 0 24 24" fill="none" xmlns="http://www.w3.org/2000/svg">
<path d="M8.84384 16.14H11.7958C13.4038 16.14 14.7958 15.54 15.7798 14.244C15.9718 14.004 16.1158 13.788 16.2358 13.524H16.8358C19.5958 13.524 21.6598 11.7 21.6598 9.15599C21.6598 6.56399 19.5958 4.73999 16.8358 4.73999H3.77984V10.26C3.77984 12.084 4.11584 13.284 4.88384 14.244C5.89184 15.54 7.23584 16.14 8.84384 16.14ZM2.33984 18.42C2.60384 18.9 3.15584 19.26 3.77984 19.26H17.9398C18.5878 19.26 19.1158 18.9 19.3798 18.42H2.33984ZM4.64384 10.596V5.55599H15.9958V10.596C15.9958 13.452 14.6998 15.3 11.8438 15.3H8.79584C6.03584 15.3 4.64384 13.524 4.64384 10.596ZM16.5478 12.708C16.7878 12.036 16.8598 11.244 16.8598 10.26V5.55599C19.3318 5.55599 20.7958 6.80399 20.7958 9.01199V9.32399C20.7958 11.46 19.3318 12.708 16.8838 12.708H16.5478Z" fill="black"/>
</svg>
