<svg width="24" height="24" viewBox="0 0 24 24" fill="none" xmlns="http://www.w3.org/2000/svg">
<path d="M9.61179 21.276C13.3558 21.276 16.2358 20.052 16.2358 18.108V16.188C18.9958 15.876 21.0118 14.748 21.0118 13.116V5.868C21.0118 3.924 18.2278 2.724 14.3878 2.724C10.6678 2.724 7.73979 3.9 7.73979 5.868V7.836C4.95579 8.148 2.98779 9.228 2.98779 10.836V18.108C2.98779 20.052 5.79579 21.276 9.61179 21.276ZM3.75579 18.108V16.044C4.78779 17.052 6.94779 17.652 9.61179 17.652C12.2278 17.652 14.4118 17.052 15.4678 16.044V18.108C15.4678 19.476 13.1638 20.484 9.61179 20.484C6.01179 20.484 3.75579 19.5 3.75579 18.108ZM3.75579 14.508V12.372C4.78779 13.38 6.94779 13.98 9.61179 13.98C12.2278 13.98 14.4118 13.38 15.4678 12.372V14.508C15.4678 15.876 13.1638 16.884 9.61179 16.884C6.01179 16.884 3.75579 15.876 3.75579 14.508ZM3.75579 10.836C3.75579 9.468 6.08379 8.46 9.61179 8.46C13.2598 8.46 15.4678 9.444 15.4678 10.836C15.4678 12.204 13.1638 13.212 9.61179 13.212C6.01179 13.212 3.75579 12.204 3.75579 10.836ZM8.53179 7.764V7.428C8.65179 7.548 8.79579 7.644 8.93979 7.74L8.53179 7.764ZM8.53179 5.868C8.53179 4.5 10.8358 3.516 14.3878 3.516C18.0118 3.516 20.2198 4.476 20.2198 5.868C20.2198 7.236 17.7238 8.388 13.6678 8.244C12.7558 7.956 11.6998 7.788 10.5718 7.74C9.22779 7.308 8.53179 6.66 8.53179 5.868ZM15.0838 9.012C17.3878 8.94 19.3078 8.34 20.2198 7.404V9.54C20.2198 10.644 18.7078 11.508 16.2358 11.82V10.836C16.2358 10.116 15.8038 9.492 15.0838 9.012ZM16.2358 15.396V12.588C18.0118 12.396 19.4518 11.868 20.2198 11.076V13.116C20.2198 14.244 18.7078 15.108 16.2358 15.396Z" fill="black"/>
</svg>
