<svg width="24" height="24" viewBox="0 0 24 24" fill="none" xmlns="http://www.w3.org/2000/svg">
<path d="M2.64001 4.8V17.472L6.62401 14.4H17.712V4.8C17.712 3.816 16.872 3 15.912 3H4.44001C3.45601 3 2.64001 3.816 2.64001 4.8ZM3.48001 15.768V4.8C3.48001 4.272 3.93601 3.816 4.48801 3.816H15.864C16.416 3.816 16.872 4.272 16.872 4.8V13.584H6.33601L3.48001 15.768ZM7.56002 16.128C7.56002 17.112 8.37602 17.928 9.36002 17.928H17.376L21.36 21V8.664C21.36 7.656 20.52 6.816 19.536 6.816V7.656C20.064 7.656 20.52 8.136 20.52 8.784V19.32L17.664 17.136H9.50402C8.85602 17.136 8.40002 16.68 8.40002 16.128H7.56002ZM7.77602 9.504C7.77602 10.752 8.61602 11.568 9.81602 11.688V12.384H10.392V11.712C11.544 11.616 12.384 10.896 12.384 9.888C12.384 8.976 11.712 8.424 10.68 8.304L10.392 8.256V6.192C11.208 6.264 11.616 6.744 11.616 7.584H12.288C12.288 6.456 11.544 5.664 10.392 5.568V4.848H9.81602V5.568C8.78402 5.688 8.01602 6.36 8.01602 7.272C8.01602 8.136 8.61602 8.664 9.57602 8.784L9.81602 8.808V11.04C8.90402 10.968 8.44802 10.464 8.42402 9.48L7.77602 9.504ZM8.66402 7.248C8.66402 6.648 9.09602 6.264 9.81602 6.192V8.184H9.72002C9.00002 8.088 8.66402 7.8 8.66402 7.248ZM10.392 11.064V8.88L10.536 8.904C11.328 9 11.712 9.312 11.712 9.912C11.712 10.584 11.256 10.992 10.392 11.064Z" fill="black"/>
</svg>
