<svg width="24" height="24" viewBox="0 0 24 24" fill="none" xmlns="http://www.w3.org/2000/svg">
<path d="M2.64014 4.8V17.472L6.62414 14.4H17.7121V4.8C17.7121 3.816 16.8721 3 15.9121 3H4.44014C3.45614 3 2.64014 3.816 2.64014 4.8ZM3.48014 15.768V4.8C3.48014 4.272 3.93614 3.816 4.48814 3.816H15.8641C16.4161 3.816 16.8721 4.272 16.8721 4.8V13.584H6.33614L3.48014 15.768ZM7.56014 16.128C7.56014 17.112 8.37614 17.928 9.36014 17.928H17.3761L21.3601 21V8.664C21.3601 7.656 20.5201 6.816 19.5361 6.816V7.656C20.0641 7.656 20.5201 8.136 20.5201 8.784V19.32L17.6641 17.136H9.50414C8.85614 17.136 8.40014 16.68 8.40014 16.128H7.56014ZM7.77614 9.504C7.77614 10.752 8.61614 11.568 9.81614 11.688V12.384H10.3921V11.712C11.5441 11.616 12.3841 10.896 12.3841 9.888C12.3841 8.976 11.7121 8.424 10.6801 8.304L10.3921 8.256V6.192C11.2081 6.264 11.6161 6.744 11.6161 7.584H12.2881C12.2881 6.456 11.5441 5.664 10.3921 5.568V4.848H9.81614V5.568C8.78414 5.688 8.01614 6.36 8.01614 7.272C8.01614 8.136 8.61614 8.664 9.57614 8.784L9.81614 8.808V11.04C8.90414 10.968 8.44814 10.464 8.42414 9.48L7.77614 9.504ZM8.66414 7.248C8.66414 6.648 9.09614 6.264 9.81614 6.192V8.184H9.72014C9.00014 8.088 8.66414 7.8 8.66414 7.248ZM10.3921 11.064V8.88L10.5361 8.904C11.3281 9 11.7121 9.312 11.7121 9.912C11.7121 10.584 11.2561 10.992 10.3921 11.064Z" fill="black"/>
</svg>
