<svg width="24" height="24" viewBox="0 0 24 24" fill="none" xmlns="http://www.w3.org/2000/svg">
<path d="M2.64014 4.94404V17.304L6.62414 14.232H17.7121V4.94404C17.7121 3.96004 16.8721 3.14404 15.9121 3.14404H4.44014C3.45614 3.14404 2.64014 3.96004 2.64014 4.94404ZM3.48014 15.624V4.94404C3.48014 4.41604 3.93614 3.96004 4.48814 3.96004H15.8641C16.4161 3.96004 16.8721 4.41604 16.8721 4.94404V13.44H6.31214L3.48014 15.624ZM7.56014 15.984C7.56014 16.968 8.37614 17.784 9.36014 17.784H17.3761L21.3601 20.856V8.73604C21.3601 7.75204 20.5201 6.91204 19.5361 6.91204V7.75204C20.0641 7.75204 20.5201 8.23204 20.5201 8.85604V19.176L17.6641 16.968H9.50414C8.85614 16.968 8.40014 16.512 8.40014 15.984H7.56014Z" fill="black"/>
</svg>
