<svg width="24" height="24" viewBox="0 0 24 24" fill="none" xmlns="http://www.w3.org/2000/svg">
<path d="M5.30401 20.4H18.72C18.432 19.944 17.904 19.608 17.28 19.608H14.712L14.016 16.32H19.56C20.544 16.32 21.36 15.504 21.36 14.52V5.39998C21.36 4.41598 20.544 3.59998 19.56 3.59998H4.44001C3.45601 3.59998 2.64001 4.41598 2.64001 5.39998V14.52C2.64001 15.504 3.45601 16.32 4.44001 16.32H9.98402L9.28802 19.608H6.72002C6.12001 19.608 5.56801 19.944 5.30401 20.4ZM3.48001 14.496V5.39998C3.48001 4.79998 3.88801 4.41598 4.48801 4.41598H19.512C20.112 4.41598 20.52 4.79998 20.52 5.39998V14.496C20.52 15.096 20.112 15.504 19.512 15.504H4.48801C3.88801 15.504 3.48001 15.096 3.48001 14.496ZM10.08 19.608L10.776 16.32H13.224L13.92 19.608H10.08Z" fill="black"/>
</svg>
