<svg width="24" height="24" viewBox="0 0 24 24" fill="none" xmlns="http://www.w3.org/2000/svg">
<path d="M5.30414 20.4H18.7201C18.4321 19.944 17.9041 19.608 17.2801 19.608H14.7121L14.0161 16.32H19.5601C20.5441 16.32 21.3601 15.504 21.3601 14.52V5.39998C21.3601 4.41598 20.5441 3.59998 19.5601 3.59998H4.44014C3.45614 3.59998 2.64014 4.41598 2.64014 5.39998V14.52C2.64014 15.504 3.45614 16.32 4.44014 16.32H9.98414L9.28814 19.608H6.72014C6.12014 19.608 5.56814 19.944 5.30414 20.4ZM3.48014 14.496V5.39998C3.48014 4.79998 3.88814 4.41598 4.48814 4.41598H19.5121C20.1121 4.41598 20.5201 4.79998 20.5201 5.39998V14.496C20.5201 15.096 20.1121 15.504 19.5121 15.504H4.48814C3.88814 15.504 3.48014 15.096 3.48014 14.496ZM10.0801 19.608L10.7761 16.32H13.2241L13.9201 19.608H10.0801Z" fill="black"/>
</svg>
