<svg width="24" height="24" viewBox="0 0 24 24" fill="none" xmlns="http://www.w3.org/2000/svg">
<path d="M11.6856 21.6744L13.9896 19.3704C14.8296 18.1704 13.6776 15.7704 11.2776 13.2744L13.1496 11.4264C15.6696 13.8264 18.0936 14.8344 19.3416 14.0184L21.6456 11.7144C22.5816 10.4184 21.2856 7.89842 18.6936 5.30642C16.1016 2.71442 13.5816 1.41842 12.2856 2.35442L9.98157 4.65842C9.16557 5.90642 10.1736 8.33042 12.5736 10.8504L10.7256 12.7224C8.22957 10.3224 5.82957 9.17042 4.62957 10.0104L2.32557 12.3144C1.48557 13.6104 2.58957 16.1544 5.20557 18.7944C7.84557 21.4104 10.3896 22.5144 11.6856 21.6744ZM2.94957 12.8184L4.36557 11.3784C4.38957 12.6744 5.68557 14.5944 7.55757 16.4424C9.40557 18.3144 11.3256 19.6104 12.6216 19.6344L11.1816 21.0744C10.2936 21.5304 8.06157 20.5224 5.78157 18.2184C3.47757 15.9384 2.49357 13.7064 2.94957 12.8184ZM5.15757 10.6104C5.97357 10.1064 7.98957 11.1384 10.1736 13.2504L8.92557 14.4984C8.87757 14.5464 8.94957 14.7384 9.11757 14.8824C9.26157 15.0504 9.45357 15.1224 9.50157 15.0744L10.7496 13.8264C12.8616 16.0104 13.8936 18.0264 13.3896 18.8424C12.7416 19.4904 10.3656 18.2184 8.06157 15.9384C5.78157 13.6344 4.50957 11.2584 5.15757 10.6104ZM10.5816 5.16242L12.0216 3.74642C12.0456 5.04242 13.3416 6.96242 15.1896 8.81042C17.0376 10.6584 18.9576 11.9544 20.2536 11.9784L18.8376 13.4184C17.9496 13.8744 15.7176 12.8664 13.4136 10.5864C11.1336 8.28242 10.1256 6.05042 10.5816 5.16242ZM12.7896 2.95442C13.6536 2.42642 15.8376 3.57842 18.1416 5.85842C20.4216 8.16242 21.5736 10.3464 21.0456 11.2104C20.3736 11.8584 17.9976 10.5864 15.7176 8.28242C13.4136 6.00242 12.1416 3.62642 12.7896 2.95442ZM16.5336 6.84242C16.4856 6.89042 16.5576 7.08242 16.7256 7.27442C16.9176 7.44242 17.1096 7.51442 17.1576 7.46642L17.7576 6.86642C17.8056 6.81842 17.7336 6.62642 17.5416 6.45842C17.3736 6.26642 17.1816 6.19442 17.1336 6.24242L16.5336 6.84242Z" fill="black"/>
</svg>
