<svg width="24" height="24" viewBox="0 0 24 24" fill="none" xmlns="http://www.w3.org/2000/svg">
<path d="M13.044 16.704H13.092C14.988 16.704 16.308 15.576 16.308 14.088C16.308 13.08 15.684 12.24 14.652 11.904V11.784C15.54 11.448 16.068 10.704 16.068 9.816C16.068 8.424 14.82 7.344 13.092 7.344H13.044C11.316 7.344 10.068 8.424 10.068 9.816C10.068 10.728 10.596 11.448 11.484 11.784V11.904C10.452 12.24 9.85199 13.08 9.85199 14.088C9.85199 15.576 11.172 16.704 13.044 16.704ZM4.06799 12C4.06799 17.04 8.02799 21 13.068 21H19.932V20.16H13.068C8.50799 20.16 4.90799 16.56 4.90799 12C4.90799 7.536 8.50799 3.84 13.068 3.84H19.932V3H13.068C8.02799 3 4.06799 7.08 4.06799 12ZM10.716 14.16V13.968C10.716 12.912 11.508 12.24 13.02 12.24H13.116C14.652 12.24 15.444 12.912 15.444 13.968V14.16C15.444 15.24 14.628 15.912 13.116 15.912H13.02C11.532 15.912 10.716 15.24 10.716 14.16ZM10.908 9.936V9.768C10.908 8.76 11.652 8.136 13.02 8.136H13.116C14.484 8.136 15.228 8.76 15.228 9.768V9.936C15.228 10.92 14.508 11.52 13.116 11.52H13.02C11.628 11.52 10.908 10.92 10.908 9.936Z" fill="black"/>
</svg>
