<svg width="24" height="24" viewBox="0 0 24 24" fill="none" xmlns="http://www.w3.org/2000/svg">
<path d="M12 19.152C15.72 19.152 19.704 16.08 21.6 12C19.704 7.92002 15.72 4.84802 12 4.84802C8.28002 4.84802 4.29602 7.92002 2.40002 12C4.29602 16.08 8.28002 19.152 12 19.152ZM3.33602 12C5.18402 8.28002 8.68802 5.64002 12 5.64002C15.312 5.64002 18.816 8.28002 20.664 12C18.816 15.72 15.312 18.336 12 18.336C8.68802 18.336 5.18402 15.72 3.33602 12ZM8.76002 12C8.76002 13.8 10.2 15.24 12 15.24C13.8 15.24 15.24 13.8 15.24 12C15.24 10.2 13.8 8.76002 12 8.76002C10.2 8.76002 8.76002 10.2 8.76002 12ZM9.55202 12C9.55202 10.632 10.632 9.52802 12 9.52802C13.368 9.52802 14.472 10.632 14.472 12C14.472 13.368 13.368 14.448 12 14.448C10.632 14.448 9.55202 13.368 9.55202 12Z" fill="black"/>
</svg>
