<svg width="24" height="24" viewBox="0 0 24 24" fill="none" xmlns="http://www.w3.org/2000/svg">
<path fill-rule="evenodd" clip-rule="evenodd" d="M10.0574 7.96869C9.42375 7.968 8.81622 7.71604 8.36807 7.26805C8.02312 6.92323 7.79427 6.48394 7.70675 6.01094H3.83459V5.14352H7.70721C7.79505 4.67157 8.02356 4.23328 8.36771 3.88901C8.81586 3.4407 9.42352 3.18842 10.0574 3.1875C10.6915 3.18819 11.2993 3.44037 11.7477 3.88871C12.092 4.23302 12.3206 4.67143 12.4085 5.14352H20.1654V6.01094H12.4088C12.3211 6.48399 12.0921 6.92329 11.747 7.2681C11.2988 7.71606 10.6912 7.968 10.0574 7.96869ZM10.0574 4.05405C9.65335 4.05474 9.26606 4.21567 8.98051 4.50155C8.69496 4.78743 8.53445 5.1749 8.53422 5.57896C8.53468 5.98279 8.69532 6.36995 8.98087 6.65551C9.26642 6.94106 9.65358 7.10168 10.0574 7.10214C10.4613 7.10168 10.8486 6.94109 11.1343 6.65556C11.42 6.37003 11.5808 5.98287 11.5814 5.57896C11.5812 5.17475 11.4206 4.78715 11.1349 4.50124C10.8491 4.21534 10.4616 4.05451 10.0574 4.05405Z" fill="black"/>
<path fill-rule="evenodd" clip-rule="evenodd" d="M14.509 14.391C13.8747 14.3903 13.2665 14.1379 12.8181 13.6892C12.4737 13.3445 12.2452 12.9057 12.1576 12.4333H3.83459V11.5659H12.1575C12.245 11.0926 12.474 10.6531 12.8191 10.3081C13.2674 9.85997 13.8751 9.60791 14.509 9.60722C15.1428 9.60791 15.7505 9.86 16.1987 10.3082C16.5437 10.6532 16.7725 11.0927 16.8598 11.5659H20.1654V12.4333H16.8595C16.772 12.9056 16.5436 13.3443 16.1993 13.6889C15.7511 14.1376 15.1432 14.3901 14.509 14.391ZM14.509 10.4764C14.1054 10.4768 13.7184 10.6372 13.4328 10.9223C13.1471 11.2075 12.9861 11.5942 12.985 11.9978C12.9854 12.4019 13.1461 12.7893 13.4318 13.075C13.7176 13.3607 14.1049 13.5214 14.509 13.5219C14.9129 13.5212 15.3001 13.3604 15.5856 13.0747C15.8711 12.789 16.0317 12.4017 16.0322 11.9978C16.0313 11.5943 15.8704 11.2076 15.5849 10.9224C15.2994 10.6372 14.9125 10.4768 14.509 10.4764Z" fill="black"/>
<path fill-rule="evenodd" clip-rule="evenodd" d="M8.36775 20.1115C8.81593 20.5597 9.42359 20.8118 10.0574 20.8125C10.6913 20.8118 11.2991 20.5597 11.7474 20.1116C12.092 19.767 12.3208 19.3282 12.4086 18.8556H20.1654V17.9882H12.4086C12.3208 17.5156 12.0921 17.0768 11.7474 16.7322C11.2991 16.284 10.6913 16.032 10.0574 16.0313C9.42359 16.032 8.81593 16.2841 8.36775 16.7322C8.02318 17.0768 7.79452 17.5157 7.7069 17.9882H3.83459V18.8556H7.70691C7.79452 19.3281 8.02318 19.767 8.36775 20.1115ZM8.98087 17.3453C9.26642 17.0598 9.65358 16.8992 10.0574 16.8987C10.4613 16.8992 10.8486 17.0598 11.1343 17.3453C11.42 17.6308 11.5808 18.018 11.5814 18.4219C11.5808 18.8258 11.42 19.213 11.1343 19.4985C10.8486 19.784 10.4613 19.9446 10.0574 19.9451C9.65358 19.9446 9.26642 19.784 8.98087 19.4984C8.69532 19.2129 8.53468 18.8257 8.53422 18.4219C8.53468 18.0181 8.69532 17.6309 8.98087 17.3453Z" fill="black"/>
</svg>
