<svg width="24" height="24" viewBox="0 0 24 24" fill="none" xmlns="http://www.w3.org/2000/svg">
<path d="M13.0679 16.704C14.9879 16.704 16.2119 15.384 16.2119 13.608C16.2119 11.808 14.9639 10.536 13.2359 10.536C12.3479 10.536 11.6279 10.896 11.1719 11.496H11.0759L11.4119 8.352H15.7079V7.584H10.7159L10.2359 12.744H11.0279C11.3159 11.856 11.9639 11.28 13.0919 11.28H13.1399C14.5559 11.28 15.3719 12.12 15.3719 13.512V13.704C15.3719 15.096 14.6039 15.936 13.0919 15.936H13.0439C11.5319 15.936 10.7639 15.072 10.7399 13.752H9.92387C9.92387 15.408 11.1479 16.704 13.0679 16.704ZM4.06787 12C4.06787 17.04 8.02787 21 13.0679 21H19.9319V20.16H13.0679C8.50787 20.16 4.90787 16.56 4.90787 12C4.90787 7.536 8.50787 3.84 13.0679 3.84H19.9319V3H13.0679C8.02787 3 4.06787 7.08 4.06787 12Z" fill="black"/>
</svg>
