<svg width="24" height="24" viewBox="0 0 24 24" fill="none" xmlns="http://www.w3.org/2000/svg">
<path d="M13.068 16.704C14.988 16.704 16.212 15.384 16.212 13.608C16.212 11.808 14.964 10.536 13.236 10.536C12.348 10.536 11.628 10.896 11.172 11.496H11.076L11.412 8.352H15.708V7.584H10.716L10.236 12.744H11.028C11.316 11.856 11.964 11.28 13.092 11.28H13.14C14.556 11.28 15.372 12.12 15.372 13.512V13.704C15.372 15.096 14.604 15.936 13.092 15.936H13.044C11.532 15.936 10.764 15.072 10.74 13.752H9.92399C9.92399 15.408 11.148 16.704 13.068 16.704ZM4.06799 12C4.06799 17.04 8.02799 21 13.068 21H19.932V20.16H13.068C8.50799 20.16 4.90799 16.56 4.90799 12C4.90799 7.536 8.50799 3.84 13.068 3.84H19.932V3H13.068C8.02799 3 4.06799 7.08 4.06799 12Z" fill="black"/>
</svg>
