<svg width="24" height="24" viewBox="0 0 24 24" fill="none" xmlns="http://www.w3.org/2000/svg">
<path d="M10.9319 16.704C12.8519 16.704 14.0759 15.384 14.0759 13.608C14.0759 11.808 12.8279 10.536 11.0999 10.536C10.2119 10.536 9.49187 10.896 9.03587 11.496H8.93987L9.27587 8.352H13.5719V7.584H8.57987L8.09987 12.744H8.89187C9.17987 11.856 9.82787 11.28 10.9559 11.28H11.0039C12.4199 11.28 13.2359 12.12 13.2359 13.512V13.704C13.2359 15.096 12.4679 15.936 10.9559 15.936H10.9079C9.39587 15.936 8.62787 15.072 8.60387 13.752H7.78787C7.78787 15.408 9.01187 16.704 10.9319 16.704ZM4.06787 21H10.9319C15.9719 21 19.9319 16.896 19.9319 12C19.9319 6.96 15.9719 3 10.9319 3H4.06787V3.84H10.9319C15.5159 3.84 19.0919 7.416 19.0919 12C19.0919 16.44 15.5159 20.16 10.9319 20.16H4.06787V21Z" fill="black"/>
</svg>
