<svg width="24" height="24" viewBox="0 0 24 24" fill="none" xmlns="http://www.w3.org/2000/svg">
<path d="M11.9998 16.704C13.9198 16.704 15.1438 15.384 15.1438 13.608C15.1438 11.808 13.8958 10.536 12.1678 10.536C11.2798 10.536 10.5598 10.896 10.1038 11.496H10.0078L10.3438 8.352H14.6398V7.584H9.64777L9.16777 12.744H9.95977C10.2478 11.856 10.8958 11.28 12.0238 11.28H12.0718C13.4878 11.28 14.3038 12.12 14.3038 13.512V13.704C14.3038 15.096 13.5358 15.936 12.0238 15.936H11.9758C10.4638 15.936 9.69577 15.072 9.67177 13.752H8.85577C8.85577 15.408 10.0798 16.704 11.9998 16.704ZM5.75977 21H18.2398V20.16H5.75977V21ZM5.75977 3.84H18.2398V3H5.75977V3.84Z" fill="black"/>
</svg>
