<svg width="24" height="24" viewBox="0 0 24 24" fill="none" xmlns="http://www.w3.org/2000/svg">
<path d="M11.6159 21.36H12.3839V17.64L14.5679 19.872L15.0959 19.344L12.3839 16.632L12.3599 12.864L17.9999 18.528L18.5279 18L12.8639 12.36L16.6319 12.384L19.3439 15.096L19.8719 14.568L17.6399 12.384H21.3599V11.616H17.6399L19.8719 9.43202L19.3439 8.90402L16.6319 11.616L12.8639 11.64L18.5279 6.00001L17.9999 5.47201L12.3599 11.136L12.3839 7.36802L15.0959 4.65601L14.5679 4.12801L12.3839 6.36001V2.64001H11.6159V6.36001L9.43189 4.12801L8.90389 4.65601L11.6159 7.36802L11.6399 11.136L5.99989 5.47201L5.47189 6.00001L11.1359 11.64L7.36789 11.616L4.65589 8.90402L4.12789 9.43202L6.35989 11.616H2.63989V12.384H6.35989L4.12789 14.568L4.65589 15.096L7.36789 12.384L11.1359 12.36L5.47189 18L5.99989 18.528L11.6399 12.864L11.6159 16.632L8.90389 19.344L9.43189 19.872L11.6159 17.64V21.36Z" fill="black"/>
</svg>
