<svg width="24" height="24" viewBox="0 0 24 24" fill="none" xmlns="http://www.w3.org/2000/svg">
<path d="M11.6161 21.36H12.3841V17.64L14.5681 19.872L15.0961 19.344L12.3841 16.632L12.3601 12.864L18.0001 18.528L18.5281 18L12.8641 12.36L16.6321 12.384L19.3441 15.096L19.8721 14.568L17.6401 12.384H21.3601V11.616H17.6401L19.8721 9.43202L19.3441 8.90402L16.6321 11.616L12.8641 11.64L18.5281 6.00002L18.0001 5.47201L12.3601 11.136L12.3841 7.36802L15.0961 4.65601L14.5681 4.12801L12.3841 6.36001V2.64001H11.6161V6.36001L9.43214 4.12801L8.90414 4.65601L11.6161 7.36802L11.6401 11.136L6.00014 5.47201L5.47214 6.00002L11.1361 11.64L7.36814 11.616L4.65614 8.90402L4.12814 9.43202L6.36014 11.616H2.64014V12.384H6.36014L4.12814 14.568L4.65614 15.096L7.36814 12.384L11.1361 12.36L5.47214 18L6.00014 18.528L11.6401 12.864L11.6161 16.632L8.90414 19.344L9.43214 19.872L11.6161 17.64V21.36Z" fill="black"/>
</svg>
