<svg width="24" height="24" viewBox="0 0 24 24" fill="none" xmlns="http://www.w3.org/2000/svg">
<path d="M10.7763 20.604C11.1363 20.604 11.4723 20.58 11.8083 20.58L10.9683 19.74C10.7283 19.74 10.4883 19.74 10.2483 19.716C6.38427 19.668 3.91227 18.612 3.91227 17.22V14.892C5.04027 16.02 7.60827 16.692 10.7763 16.692C11.2323 16.692 11.6403 16.668 12.0483 16.668L12.6483 16.188L13.1043 16.524C15.1203 16.284 16.7283 15.732 17.6403 14.94V15.756L18.4803 14.916V5.55597C18.4803 3.49197 15.2403 2.21997 10.7763 2.21997C6.43227 2.21997 3.07227 3.49197 3.07227 5.55597V17.22C3.07227 19.308 6.36027 20.628 10.7763 20.604ZM3.91227 13.356V11.004C5.04027 12.156 7.60827 12.828 10.7763 12.828C13.8963 12.828 16.4883 12.156 17.6403 10.98V13.356C17.6403 14.94 14.3763 15.924 10.7763 15.924C6.57627 15.924 3.91227 14.796 3.91227 13.356ZM3.91227 9.44397V7.11597C5.04027 8.26797 7.60827 8.91597 10.7763 8.91597C13.8963 8.91597 16.4883 8.26797 17.6403 7.11597V9.44397C17.6403 10.932 14.9043 12.06 10.7763 12.06C6.57627 12.06 3.91227 10.932 3.91227 9.44397ZM3.91227 5.55597C3.91227 4.11597 6.64827 3.05997 10.7763 3.05997C15.0243 3.05997 17.6403 4.11597 17.6403 5.55597C17.6403 7.06797 14.9043 8.14797 10.7763 8.14797C6.57627 8.14797 3.91227 7.06797 3.91227 5.55597ZM12.2643 18.588L15.4323 21.78L20.9283 16.26L20.3523 15.684L15.4323 20.604L12.8403 18.012L12.2643 18.588Z" fill="black"/>
</svg>
