<svg width="24" height="24" viewBox="0 0 24 24" fill="none" xmlns="http://www.w3.org/2000/svg">
<path d="M10.7758 20.604C11.1358 20.604 11.4718 20.58 11.8078 20.58L10.9678 19.74C10.7278 19.74 10.4878 19.74 10.2478 19.716C6.38378 19.668 3.91178 18.612 3.91178 17.22V14.892C5.03978 16.02 7.60778 16.692 10.7758 16.692C11.2318 16.692 11.6398 16.668 12.0478 16.668L12.6478 16.188L13.1038 16.524C15.1198 16.284 16.7278 15.732 17.6398 14.94V15.756L18.4798 14.916V5.55597C18.4798 3.49197 15.2398 2.21997 10.7758 2.21997C6.43178 2.21997 3.07178 3.49197 3.07178 5.55597V17.22C3.07178 19.308 6.35978 20.628 10.7758 20.604ZM3.91178 13.356V11.004C5.03978 12.156 7.60778 12.828 10.7758 12.828C13.8958 12.828 16.4878 12.156 17.6398 10.98V13.356C17.6398 14.94 14.3758 15.924 10.7758 15.924C6.57578 15.924 3.91178 14.796 3.91178 13.356ZM3.91178 9.44397V7.11597C5.03978 8.26797 7.60778 8.91597 10.7758 8.91597C13.8958 8.91597 16.4878 8.26797 17.6398 7.11597V9.44397C17.6398 10.932 14.9038 12.06 10.7758 12.06C6.57578 12.06 3.91178 10.932 3.91178 9.44397ZM3.91178 5.55597C3.91178 4.11597 6.64778 3.05997 10.7758 3.05997C15.0238 3.05997 17.6398 4.11597 17.6398 5.55597C17.6398 7.06797 14.9038 8.14797 10.7758 8.14797C6.57578 8.14797 3.91178 7.06797 3.91178 5.55597ZM12.2638 18.588L15.4318 21.78L20.9278 16.26L20.3518 15.684L15.4318 20.604L12.8398 18.012L12.2638 18.588Z" fill="black"/>
</svg>
