<svg width="24" height="24" viewBox="0 0 24 24" fill="none" xmlns="http://www.w3.org/2000/svg">
<path d="M10.9799 20.676C11.4839 20.676 11.9639 20.652 12.4439 20.604L13.3559 19.692C12.6119 19.764 11.8199 19.812 10.9799 19.812C6.77988 19.812 4.11588 18.756 4.11588 17.292V14.964C5.24388 16.092 7.81188 16.764 10.9799 16.764C11.5799 16.764 12.1559 16.74 12.7319 16.692L12.3479 16.308L12.7319 15.924C12.1559 15.972 11.5799 15.996 10.9799 15.996C6.77988 15.996 4.11588 14.868 4.11588 13.428V11.076C5.24388 12.228 7.81188 12.9 10.9799 12.9C14.0999 12.9 16.6919 12.228 17.8439 11.052V14.172L18.2519 14.58L18.6839 14.148V5.62799C18.6839 3.53999 15.4439 2.29199 10.9799 2.29199C6.63588 2.29199 3.27588 3.53999 3.27588 5.62799V17.292C3.27588 19.38 6.56388 20.676 10.9799 20.676ZM4.11588 9.51599V7.18799C5.24388 8.33999 7.81188 8.98799 10.9799 8.98799C14.0999 8.98799 16.6919 8.31599 17.8439 7.16399V9.51599C17.8439 11.004 15.1079 12.132 10.9799 12.132C6.77988 12.132 4.11588 11.004 4.11588 9.51599ZM4.11588 5.62799C4.11588 4.18799 6.85188 3.13199 10.9799 3.13199C15.2279 3.13199 17.8439 4.18799 17.8439 5.62799C17.8439 7.13999 15.1079 8.21999 10.9799 8.21999C6.77988 8.21999 4.11588 7.13999 4.11588 5.62799ZM14.4359 21.132L15.0119 21.708L17.5799 19.14L20.1479 21.708L20.7239 21.132L18.1559 18.564L20.7239 15.996L20.1479 15.42L17.5799 17.988L15.0119 15.42L14.4359 15.996L17.0039 18.564L14.4359 21.132Z" fill="black"/>
</svg>
