<svg width="24" height="24" viewBox="0 0 24 24" fill="none" xmlns="http://www.w3.org/2000/svg">
<path d="M4.92 20.46H19.08C20.184 20.46 21 19.644 21 18.54V10.14C21 9.03604 20.184 8.22004 19.08 8.22004H17.472C18.192 7.71604 18.48 6.90004 18.48 6.22804C18.48 4.81204 17.352 3.54004 15.84 3.54004C15.384 3.54004 14.88 3.68404 14.496 3.92404C13.704 4.38004 13.128 5.29204 12.648 6.20404L12 7.45204L11.352 6.20404C10.872 5.29204 10.296 4.38004 9.504 3.92404C9.12 3.68404 8.616 3.54004 8.16 3.54004C6.648 3.54004 5.52 4.81204 5.52 6.22804C5.52 6.90004 5.808 7.71604 6.528 8.22004H4.92C3.816 8.22004 3 9.03604 3 10.14V18.54C3 19.644 3.816 20.46 4.92 20.46ZM3.84 18.564V13.62H20.16V18.564C20.16 19.236 19.752 19.644 19.08 19.644H4.944C4.248 19.644 3.84 19.236 3.84 18.564ZM3.84 11.7V10.116C3.84 9.42004 4.248 9.03604 4.944 9.03604H19.08C19.752 9.03604 20.16 9.42004 20.16 10.116V11.7H3.84ZM5.64 17.748H9.24V15.828H5.64V17.748ZM6.288 6.22804C6.288 5.22004 7.104 4.33204 8.16 4.33204C9.336 4.33204 10.056 5.38804 10.656 6.54004L11.544 8.24404H9.6C8.736 8.24404 7.8 8.22004 7.152 7.81204C6.552 7.47604 6.288 6.80404 6.288 6.22804ZM12.456 8.24404L13.344 6.54004C13.944 5.38804 14.664 4.33204 15.84 4.33204C16.896 4.33204 17.712 5.22004 17.712 6.22804C17.712 6.80404 17.448 7.47604 16.848 7.81204C16.224 8.22004 15.264 8.24404 14.4 8.24404H12.456Z" fill="black"/>
</svg>
