<svg width="24" height="24" viewBox="0 0 24 24" fill="none" xmlns="http://www.w3.org/2000/svg">
<path fill-rule="evenodd" clip-rule="evenodd" d="M6.24302 9.45558L12.0539 11.7518L17.9362 9.40337V13.3323L12.0031 15.5517L6.24302 13.3844V9.45558ZM5.5477 9.18082L1.14429 7.44078L12.0024 3.1875L22.8557 7.43939L18.6692 9.11076V15.6739L20.4123 17.8775L18.4251 20.8125L16.4087 17.8768L17.9739 15.9274V14.0608L12.0024 16.2943L5.5477 13.8656V9.18082ZM17.2134 8.94438L12.0525 11.0036L3.04389 7.44634L12.0024 3.93706L20.9644 7.44773L18.2021 8.54989L12.2409 6.49168L12.0143 7.14946L17.2134 8.94438ZM17.273 17.9095L18.4209 19.5783L19.5515 17.9095L18.4209 16.4806L17.273 17.9095Z" fill="black"/>
</svg>
