<svg width="24" height="24" viewBox="0 0 24 24" fill="none" xmlns="http://www.w3.org/2000/svg">
<path d="M5.90418 17.736V19.512H18.0962V17.736C18.0962 15.072 16.0082 13.152 13.5842 13.152H10.4162C7.87218 13.152 5.90418 15.192 5.90418 17.736ZM1.68018 19.512H2.52018V18.096C2.52018 16.92 3.24018 16.08 4.32018 15.912C4.41618 15.6 4.53618 15.336 4.68018 15.072C3.04818 15.096 1.68018 16.44 1.68018 18.288V19.512ZM1.87218 10.272C1.87218 11.832 3.12018 13.08 4.68018 13.08C6.24018 13.08 7.51218 11.832 7.51218 10.272C7.51218 8.71204 6.24018 7.44004 4.68018 7.44004C3.12018 7.44004 1.87218 8.71204 1.87218 10.272ZM2.61618 10.272C2.61618 9.12004 3.52818 8.20804 4.68018 8.20804C5.83218 8.20804 6.74418 9.12004 6.74418 10.272C6.74418 11.424 5.83218 12.336 4.68018 12.336C3.52818 12.336 2.61618 11.424 2.61618 10.272ZM6.74418 18.744V17.472C6.74418 15.504 8.25618 13.968 10.3202 13.968H13.6802C15.7442 13.968 17.2562 15.504 17.2562 17.472V18.744H6.74418ZM8.49618 7.96804C8.49618 9.88804 10.0802 11.448 12.0002 11.448C13.9202 11.448 15.5042 9.88804 15.5042 7.96804C15.5042 6.04804 13.9202 4.48804 12.0002 4.48804C10.0802 4.48804 8.49618 6.04804 8.49618 7.96804ZM9.31218 7.96804C9.31218 6.48004 10.5122 5.28004 12.0002 5.28004C13.4882 5.28004 14.7122 6.48004 14.7122 7.96804C14.7122 9.45604 13.4882 10.656 12.0002 10.656C10.5122 10.656 9.31218 9.45604 9.31218 7.96804ZM16.5122 10.272C16.5122 11.832 17.7602 13.08 19.3202 13.08C20.8802 13.08 22.1522 11.832 22.1522 10.272C22.1522 8.71204 20.8802 7.44004 19.3202 7.44004C17.7602 7.44004 16.5122 8.71204 16.5122 10.272ZM17.2562 10.272C17.2562 9.12004 18.1682 8.20804 19.3202 8.20804C20.4722 8.20804 21.3842 9.12004 21.3842 10.272C21.3842 11.424 20.4722 12.336 19.3202 12.336C18.1682 12.336 17.2562 11.424 17.2562 10.272ZM19.3202 15.072C19.4642 15.336 19.5842 15.6 19.6802 15.912C20.7602 16.08 21.4802 16.92 21.4802 18.096V19.512H22.3202V18.288C22.3202 16.44 20.9762 15.096 19.3202 15.072Z" fill="black"/>
</svg>
