<svg width="24" height="24" viewBox="0 0 24 24" fill="none" xmlns="http://www.w3.org/2000/svg">
<path d="M7.9078 19.9127C9.1078 20.5847 10.5958 20.5847 12.2038 19.8407L20.8198 15.7847C21.3718 15.5447 21.8038 14.9207 21.8038 14.2247C21.8038 13.2887 21.0118 12.5927 20.1718 12.5927C19.8598 12.5927 19.6918 12.6647 18.8998 13.0247L18.7798 12.8087C18.3718 11.9687 17.3878 11.6327 16.5478 11.9927L13.9078 13.1447C14.0998 13.2887 14.2678 13.5287 14.3638 13.7927L16.8598 12.7127C17.3398 12.4967 17.8918 12.6887 18.1078 13.1687L18.2038 13.4087L12.9958 15.7847C13.4038 14.9207 13.0198 13.9127 12.1798 13.5287L8.6278 11.8967C6.2278 10.7927 4.0438 11.1287 2.1958 13.1687V18.5207H3.0118V13.4807C4.5478 11.9447 6.2758 11.7047 8.2918 12.6167L11.8438 14.2487C12.1558 14.3927 12.3958 14.7527 12.3958 15.1367C12.3958 15.8087 11.6518 16.2887 11.0518 16.0007L7.6438 14.4407L7.3558 15.0887L10.7398 16.6727C11.4358 16.9847 12.1318 16.9607 13.2358 16.4567L19.7878 13.4807C20.3398 13.2407 20.9878 13.6247 20.9878 14.2247C20.9878 14.5607 20.7958 14.9207 20.5078 15.0407L11.8678 19.0967C10.5238 19.7207 9.2998 19.7687 8.3158 19.2167L5.9878 17.9207L5.5798 18.6167L7.9078 19.9127ZM9.3718 6.40065C9.3718 7.93665 10.6198 9.18465 12.1558 9.18465C13.6918 9.18465 14.9398 7.93665 14.9398 6.40065C14.9398 4.84065 13.6918 3.59265 12.1558 3.59265C10.6198 3.59265 9.3718 4.84065 9.3718 6.40065ZM10.1398 6.40065C10.1398 5.27265 11.0518 4.38465 12.1558 4.38465C13.2598 4.38465 14.1718 5.27265 14.1718 6.40065C14.1718 7.50465 13.2598 8.39265 12.1558 8.39265C11.0518 8.39265 10.1398 7.50465 10.1398 6.40065Z" fill="black"/>
</svg>
