<svg width="24" height="24" viewBox="0 0 24 24" fill="none" xmlns="http://www.w3.org/2000/svg">
<path d="M13.7282 7.84799L11.1602 10.392C10.8722 10.68 10.6322 10.8 10.3442 10.8C9.74418 10.8 9.31218 10.32 9.31218 9.74399C9.31218 9.47999 9.43218 9.19199 9.62418 8.99999L12.2642 6.38399C12.6242 6.04799 13.1282 5.83199 13.6082 5.83199H15.6482C16.1762 5.83199 16.6322 6.04799 17.0162 6.38399L18.5522 7.89599C18.9122 8.25599 19.3922 8.44799 19.8962 8.44799H22.3202V7.63199H19.9442C19.6322 7.63199 19.3442 7.53599 19.1042 7.29599L17.5922 5.83199C17.0882 5.32799 16.3922 5.01599 15.6482 5.01599H8.35218C7.60818 5.01599 6.91218 5.32799 6.40818 5.83199L4.89618 7.29599C4.65618 7.53599 4.39218 7.63199 4.05618 7.63199H1.68018V8.44799H4.10418C4.60818 8.44799 5.08818 8.25599 5.47218 7.89599L7.00818 6.38399C7.36818 6.04799 7.84818 5.83199 8.35218 5.83199H11.7602L11.7362 5.85599L9.09618 8.47199C8.76018 8.78399 8.56818 9.26399 8.56818 9.76799C8.56818 10.728 9.31218 11.544 10.3442 11.544C10.8002 11.544 11.2322 11.376 11.5922 11.016L12.6002 10.008L17.4242 14.856L14.6402 17.616C14.2802 17.952 13.8002 18.168 13.2962 18.168H9.09618C8.59218 18.168 8.11218 17.952 7.77618 17.616L4.96818 14.88C4.60818 14.544 4.12818 14.328 3.62418 14.328H1.68018V15.144H3.57618C3.91218 15.144 4.15218 15.264 4.41618 15.504L7.17618 18.192C7.65618 18.672 8.35218 18.984 9.09618 18.984H13.2962C14.0162 18.984 14.7362 18.672 15.2162 18.192L18.3122 15.144H22.3202V14.328H17.9522L13.1282 9.47999L14.2562 8.37599L13.7282 7.84799Z" fill="black"/>
</svg>
