<svg width="24" height="24" viewBox="0 0 24 24" fill="none" xmlns="http://www.w3.org/2000/svg">
<path d="M7.90798 19.9127C9.10798 20.5847 10.596 20.5847 12.204 19.8407L20.82 15.7847C21.372 15.5447 21.804 14.9207 21.804 14.2247C21.804 13.2887 21.012 12.5927 20.172 12.5927C19.86 12.5927 19.692 12.6647 18.9 13.0247L18.78 12.8087C18.372 11.9687 17.388 11.6327 16.548 11.9927L13.908 13.1447C14.1 13.2887 14.268 13.5287 14.364 13.7927L16.86 12.7127C17.34 12.4967 17.892 12.6887 18.108 13.1687L18.204 13.4087L12.996 15.7847C13.404 14.9207 13.02 13.9127 12.18 13.5287L8.62798 11.8967C6.22798 10.7927 4.04398 11.1287 2.19598 13.1687V18.5207H3.01198V13.4807C4.54798 11.9447 6.27598 11.7047 8.29198 12.6167L11.844 14.2487C12.156 14.3927 12.396 14.7527 12.396 15.1367C12.396 15.8087 11.652 16.2887 11.052 16.0007L7.64398 14.4407L7.35598 15.0887L10.74 16.6727C11.436 16.9847 12.132 16.9607 13.236 16.4567L19.788 13.4807C20.34 13.2407 20.988 13.6247 20.988 14.2247C20.988 14.5607 20.796 14.9207 20.508 15.0407L11.868 19.0967C10.524 19.7207 9.29998 19.7687 8.31598 19.2167L5.98798 17.9207L5.57998 18.6167L7.90798 19.9127ZM9.37198 6.40065C9.37198 7.93665 10.62 9.18465 12.156 9.18465C13.692 9.18465 14.94 7.93665 14.94 6.40065C14.94 4.84065 13.692 3.59265 12.156 3.59265C10.62 3.59265 9.37198 4.84065 9.37198 6.40065ZM10.14 6.40065C10.14 5.27265 11.052 4.38465 12.156 4.38465C13.26 4.38465 14.172 5.27265 14.172 6.40065C14.172 7.50465 13.26 8.39265 12.156 8.39265C11.052 8.39265 10.14 7.50465 10.14 6.40065Z" fill="black"/>
</svg>
