<svg width="24" height="24" viewBox="0 0 24 24" fill="none" xmlns="http://www.w3.org/2000/svg">
<path d="M8.20806 21.108L8.83206 20.484L6.24005 17.916L8.08806 16.068L10.6561 18.636L11.2801 18.012L8.71206 15.444L13.2481 10.908C14.0161 11.508 14.9761 11.868 16.0321 11.868C18.5521 11.868 20.5441 9.85197 20.5441 7.37997C20.5441 4.90797 18.5521 2.89197 16.0321 2.89197C13.5121 2.89197 11.5201 4.90797 11.5201 7.37997C11.5201 8.50797 11.9281 9.51597 12.6001 10.308L3.45605 19.452L4.08005 20.076L5.61605 18.54L8.20806 21.108ZM12.3841 7.37997C12.3841 5.33997 14.0161 3.73197 16.0321 3.73197C18.0721 3.73197 19.6801 5.33997 19.6801 7.37997C19.6801 9.39597 18.0721 11.028 16.0321 11.028C14.0161 11.028 12.3841 9.39597 12.3841 7.37997Z" fill="black"/>
</svg>
