<svg width="24" height="24" viewBox="0 0 24 24" fill="none" xmlns="http://www.w3.org/2000/svg">
<path d="M5.58003 21.96H17.82C18.924 21.96 19.74 21.144 19.74 20.04V8.40004H20.34V5.04004H19.74V3.96004C19.74 2.85604 18.924 2.04004 17.82 2.04004H5.58003C4.47603 2.04004 3.66003 2.85604 3.66003 3.96004V20.04C3.66003 21.144 4.47603 21.96 5.58003 21.96ZM4.47603 20.064V3.93604C4.47603 3.24004 4.88403 2.85604 5.55603 2.85604H17.844C18.54 2.85604 18.924 3.24004 18.924 3.93604V20.064C18.924 20.76 18.54 21.144 17.844 21.144H5.55603C4.88403 21.144 4.47603 20.76 4.47603 20.064ZM6.30003 19.32H17.1V4.68004H6.30003V19.32ZM7.04403 18.576V5.42404H16.356V18.576H7.04403Z" fill="black"/>
</svg>
