<svg width="24" height="24" viewBox="0 0 24 24" fill="none" xmlns="http://www.w3.org/2000/svg">
<path d="M5.58016 21.96H17.8202C18.9242 21.96 19.7402 21.144 19.7402 20.04V8.40004H20.3402V5.04004H19.7402V3.96004C19.7402 2.85604 18.9242 2.04004 17.8202 2.04004H5.58016C4.47616 2.04004 3.66016 2.85604 3.66016 3.96004V20.04C3.66016 21.144 4.47616 21.96 5.58016 21.96ZM4.47616 20.064V3.93604C4.47616 3.24004 4.88416 2.85604 5.55616 2.85604H17.8442C18.5402 2.85604 18.9242 3.24004 18.9242 3.93604V20.064C18.9242 20.76 18.5402 21.144 17.8442 21.144H5.55616C4.88416 21.144 4.47616 20.76 4.47616 20.064ZM6.30016 19.32H17.1002V4.68004H6.30016V19.32ZM7.04416 18.576V5.42404H16.3562V18.576H7.04416Z" fill="black"/>
</svg>
