<svg width="24" height="24" viewBox="0 0 24 24" fill="none" xmlns="http://www.w3.org/2000/svg">
<path d="M9.19182 18V21.48H14.8078V18C14.8078 16.776 15.1678 16.128 16.3438 14.808L16.9198 14.136C18.1918 12.648 18.8878 11.136 18.8878 9.33602C18.8878 5.28002 15.6478 2.52002 11.9998 2.52002C8.35182 2.52002 5.11182 5.28002 5.11182 9.33602C5.11182 11.136 5.80782 12.648 7.07982 14.136L7.65582 14.808C8.83182 16.128 9.19182 16.776 9.19182 18ZM5.95182 9.33602C5.95182 5.73602 8.78382 3.33602 11.9998 3.33602C15.2158 3.33602 18.0478 5.73602 18.0478 9.33602C18.0478 10.92 17.4478 12.264 16.2958 13.584L15.6958 14.256C14.4958 15.648 13.9918 16.512 13.9678 18.096H12.4078V12.504H11.5918V18.096H10.0318C10.0078 16.512 9.50382 15.648 8.30382 14.256L7.70382 13.584C6.55182 12.264 5.95182 10.92 5.95182 9.33602ZM10.0318 20.664V18.864H13.9678V20.664H10.0318Z" fill="black"/>
</svg>
