<svg width="24" height="24" viewBox="0 0 24 24" fill="none" xmlns="http://www.w3.org/2000/svg">
<path d="M10.3433 13.656C11.9993 15.312 14.6873 15.336 16.3193 13.656L19.8473 10.128C21.5273 8.49603 21.5033 5.78403 19.8473 4.15203C18.2153 2.49603 15.5033 2.49603 13.8713 4.15203L11.2553 6.74403L11.8793 7.36803L14.4953 4.77603C15.9113 3.33603 17.8313 3.33603 19.2233 4.77603C20.6633 6.16803 20.6873 8.11203 19.2233 9.50403L15.6953 13.032C14.3033 14.496 12.3593 14.496 10.9433 13.056L10.1753 12.336L9.59928 12.936L10.3433 13.656ZM4.15128 19.848C5.78328 21.504 8.49528 21.504 10.1273 19.848L12.7433 17.256L12.1433 16.632L9.50328 19.224C8.11128 20.664 6.16728 20.664 4.77528 19.224C3.33528 17.808 3.33528 15.888 4.77528 14.496L8.30328 10.968C9.71928 9.50403 11.6393 9.50403 13.0553 10.944L13.8233 11.664L14.3993 11.064L13.6553 10.344C11.9993 8.68803 9.31128 8.66403 7.67928 10.344L4.15128 13.872C2.47128 15.504 2.49528 18.216 4.15128 19.848Z" fill="black"/>
</svg>
