<svg width="24" height="24" viewBox="0 0 24 24" fill="none" xmlns="http://www.w3.org/2000/svg">
<path d="M20.1122 20.688L20.6882 20.112L3.88822 3.31198L3.31222 3.88798L20.1122 20.688ZM4.15222 19.848C5.78422 21.48 8.47222 21.48 10.1282 19.848L13.4162 16.56L12.8162 15.96L9.50422 19.224C8.08822 20.64 6.16822 20.64 4.77622 19.224C3.36022 17.832 3.36022 15.912 4.77622 14.496L8.04022 11.184L7.44022 10.584L4.15222 13.872C2.52022 15.528 2.52022 18.216 4.15222 19.848ZM10.5842 7.43998L11.1842 8.03998L14.4962 4.77598C15.9122 3.35998 17.8322 3.35998 19.2242 4.77598C20.6402 6.16798 20.6402 8.08798 19.2242 9.50398L15.9602 12.816L16.5602 13.416L19.8482 10.128C21.4802 8.47198 21.4802 5.78398 19.8482 4.15198C18.2162 2.51998 15.5282 2.51998 13.8722 4.15198L10.5842 7.43998Z" fill="black"/>
</svg>
