<svg width="24" height="24" viewBox="0 0 24 24" fill="none" xmlns="http://www.w3.org/2000/svg">
<path d="M15.804 22.3201C16.668 22.3201 17.484 21.7921 17.988 21.1201C18.588 20.3521 20.58 19.9921 20.58 19.0081C20.58 18.5281 20.196 18.1921 19.932 17.8081C19.572 17.3761 19.74 16.6081 19.212 16.1521C19.116 16.0561 18.972 15.9841 18.876 15.9121C18.972 15.5281 19.044 15.0961 19.044 14.6881C19.044 11.1121 15.492 9.52805 15.492 6.93605V6.16805C15.492 3.98405 15.132 1.68005 12.42 1.68005C10.068 1.68005 9.20404 3.00005 9.20404 5.20805C9.20404 5.83205 9.30004 6.43205 9.30004 7.03205C9.30004 10.0321 5.36404 11.9521 5.77204 15.6241C5.53204 15.8881 5.34004 16.2001 5.10004 16.4641C4.62004 16.9441 3.51604 16.7281 3.51604 17.9521C3.51604 18.2881 3.66004 18.6241 3.66004 18.9841C3.66004 19.3441 3.42004 19.7041 3.42004 20.1121C3.42004 20.6161 3.73204 20.9521 4.21204 21.0721C5.05204 21.3121 5.94004 21.1921 6.75604 21.6001C7.33204 21.8881 7.90804 22.0801 8.53204 22.0801C9.13204 22.0801 10.02 21.7921 10.188 21.1201C10.836 21.0481 11.436 20.8321 12.084 20.8321C12.756 20.8321 13.428 21.0481 14.124 21.0001C14.364 21.8161 14.94 22.3201 15.804 22.3201ZM3.92404 20.0881C3.92404 19.7041 4.11604 19.3921 4.11604 18.9841C4.11604 18.6241 3.99604 18.2881 3.99604 17.9281C3.99604 17.8081 4.02004 17.7121 4.06804 17.6161C4.33204 17.1361 5.05204 17.1841 5.43604 16.8001C5.60404 16.6321 5.74804 16.3921 5.91604 16.2001C6.08404 16.0081 6.15604 15.8881 6.44404 15.8401C6.92404 15.8401 7.16404 16.0321 7.45204 16.4401C7.76404 16.8721 7.98004 17.3761 8.22004 17.8321C8.41204 18.1921 8.67604 18.5281 8.91604 18.8401C9.22804 19.2961 9.85204 19.9201 9.85204 20.4961C9.85204 21.1921 9.25204 21.6001 8.58004 21.6001C8.02804 21.6001 7.50004 21.4321 6.97204 21.1921C6.42004 20.9041 5.77204 20.8081 5.14804 20.7361C4.83604 20.6881 4.16404 20.6641 3.97204 20.3761C3.92404 20.2801 3.92404 20.1841 3.92404 20.0881ZM7.09204 14.2321C7.09204 13.1761 7.71604 11.9761 8.26804 11.0881C7.98004 12.1201 7.33204 12.6241 7.33204 13.8481C7.33204 14.3521 7.50004 14.8321 7.78804 15.2161C7.86004 12.7201 9.70804 10.7761 9.90004 8.30405C10.308 8.68805 10.932 9.16805 11.532 9.16805C12.084 9.16805 13.524 8.37605 13.932 7.96805C14.268 9.26405 14.772 10.5841 15.396 11.7601C15.828 12.5761 16.164 13.4401 16.332 14.3521C16.5 14.3281 16.62 14.3761 16.764 14.4001C16.884 14.1121 16.932 13.8001 16.932 13.5121C16.932 12.1201 15.732 10.8241 15.732 10.7761C15.732 10.7761 15.708 10.7521 15.732 10.7281C16.548 11.4481 17.22 12.7201 17.22 13.8241C17.22 14.0641 17.22 14.2801 17.148 14.5201C17.58 14.6161 18.444 15.2161 18.444 15.7201L18.42 15.8401L18.252 15.8161L18.276 15.7201C18.276 15.1201 16.884 14.6641 16.38 14.6641C16.044 14.6641 15.852 14.9761 15.804 15.2641L15.564 15.3841H15.54C14.676 15.8641 14.7 17.1841 14.652 18.0721C14.628 18.3841 14.46 19.0081 14.34 19.3441C13.596 19.8001 12.732 20.1361 11.844 20.1361C11.22 20.1361 10.596 19.9681 10.068 19.6321C9.87604 19.3201 9.70804 19.0081 9.44404 18.7441C9.75604 18.6721 10.02 18.5521 10.02 18.1921C10.02 16.5841 7.09204 16.2721 7.09204 14.2321ZM9.66004 5.76005C9.66004 5.35205 9.87604 4.75205 10.332 4.75205C10.884 4.75205 11.124 5.49605 11.124 5.92805V6.02405C10.956 6.04805 10.812 6.12005 10.692 6.19205C10.692 6.00005 10.62 5.49605 10.308 5.49605C10.116 5.49605 10.02 5.83205 10.02 6.00005C10.02 6.19205 10.068 6.43205 10.212 6.60005C10.164 6.62405 10.02 6.74405 9.94804 6.79205C9.70804 6.50405 9.66004 6.12005 9.66004 5.76005ZM9.68404 7.51205C9.68404 7.24805 10.38 6.79205 10.428 6.81605C10.692 6.52805 11.028 6.26405 11.508 6.26405C11.892 6.26405 13.836 7.00805 13.836 7.39205C13.836 7.89605 13.332 8.13605 12.924 8.28005C12.372 8.49605 12.18 8.88005 11.508 8.88005C11.052 8.88005 9.68404 7.96805 9.68404 7.51205ZM9.85204 7.58405C10.356 7.84805 10.86 8.37605 11.388 8.37605C12.228 8.37605 13.188 7.51205 13.5 7.51205L13.476 7.34405C13.044 7.34405 12.252 8.18405 11.364 8.18405C10.932 8.18405 10.404 7.63205 9.85204 7.36805V7.58405ZM11.868 6.00005C11.868 5.40005 12.108 4.53605 12.852 4.53605C13.5 4.53605 13.908 5.23205 13.908 5.80805C13.908 6.14405 13.812 6.48005 13.62 6.74405C13.452 6.72005 13.284 6.60005 13.116 6.55205C13.212 6.38405 13.236 6.16805 13.236 5.97605C13.236 5.71205 13.116 5.32805 12.78 5.32805C12.372 5.32805 12.324 5.88005 12.324 6.19205C12.156 6.09605 12.012 6.02405 11.868 6.00005ZM14.556 20.6161C14.556 19.7761 15.084 18.9601 15.132 18.0721C15.132 17.4241 15.18 16.4881 15.564 15.9361C15.66 15.8881 15.732 15.8401 15.78 15.7921C15.924 16.2961 16.092 16.8721 16.74 16.8721C17.148 16.8721 17.7 16.6081 17.964 16.3201H18.18C18.348 16.3201 18.54 16.3201 18.708 16.3921C18.78 16.3921 18.852 16.4401 18.9 16.4881C19.284 16.7521 19.188 17.7121 19.572 18.1441C19.788 18.3841 20.1 18.6961 20.1 19.0321C20.1 19.4161 18.132 20.2081 17.604 20.8561C17.172 21.3841 16.548 21.8401 15.828 21.8401C15.132 21.8401 14.556 21.3361 14.556 20.6161Z" fill="black"/>
</svg>
