<svg width="24" height="24" viewBox="0 0 24 24" fill="none" xmlns="http://www.w3.org/2000/svg">
<path d="M8.08811 16.3681L12.0001 21.6481L15.9121 16.3681C17.6161 14.0881 18.9841 11.8321 18.9841 9.45605C18.9601 5.04005 15.6001 2.35205 12.0001 2.35205C8.40011 2.35205 5.04011 5.04005 5.01611 9.45605C5.01611 11.8321 6.38411 14.0881 8.08811 16.3681ZM5.85611 9.45605C5.88011 5.54405 8.83211 3.19205 12.0001 3.19205C15.1681 3.19205 18.1201 5.54405 18.1441 9.45605C18.1441 11.5681 16.9201 13.6321 15.2401 15.8641L12.0001 20.2321L8.76011 15.8641C7.10411 13.6321 5.85611 11.5681 5.85611 9.45605ZM8.76011 9.36005C8.76011 11.1601 10.2001 12.6001 12.0001 12.6001C13.8001 12.6001 15.2401 11.1601 15.2401 9.36005C15.2401 7.58405 13.8001 6.12005 12.0001 6.12005C10.2001 6.12005 8.76011 7.58405 8.76011 9.36005ZM9.55211 9.36005C9.55211 8.01605 10.6321 6.91205 12.0001 6.91205C13.3681 6.91205 14.4721 8.01605 14.4721 9.36005C14.4721 10.7281 13.3681 11.8321 12.0001 11.8321C10.6321 11.8321 9.55211 10.7281 9.55211 9.36005Z" fill="black"/>
</svg>
