<svg width="24" height="24" viewBox="0 0 24 24" fill="none" xmlns="http://www.w3.org/2000/svg">
<path d="M8.08801 16.3681L12 21.6481L15.912 16.3681C17.616 14.0881 18.984 11.8321 18.984 9.45605C18.96 5.04005 15.6 2.35205 12 2.35205C8.40001 2.35205 5.04001 5.04005 5.01601 9.45605C5.01601 11.8321 6.38401 14.0881 8.08801 16.3681ZM5.85601 9.45605C5.88001 5.54405 8.83201 3.19205 12 3.19205C15.168 3.19205 18.12 5.54405 18.144 9.45605C18.144 11.5681 16.92 13.6321 15.24 15.8641L12 20.2321L8.76001 15.8641C7.10401 13.6321 5.85601 11.5681 5.85601 9.45605ZM8.76001 9.36005C8.76001 11.1601 10.2 12.6001 12 12.6001C13.8 12.6001 15.24 11.1601 15.24 9.36005C15.24 7.58405 13.8 6.12005 12 6.12005C10.2 6.12005 8.76001 7.58405 8.76001 9.36005ZM9.55201 9.36005C9.55201 8.01605 10.632 6.91205 12 6.91205C13.368 6.91205 14.472 8.01605 14.472 9.36005C14.472 10.7281 13.368 11.8321 12 11.8321C10.632 11.8321 9.55201 10.7281 9.55201 9.36005Z" fill="black"/>
</svg>
