<svg width="24" height="24" viewBox="0 0 24 24" fill="none" xmlns="http://www.w3.org/2000/svg">
<path d="M7.26002 22.3201H16.74C17.724 22.3201 18.54 21.5041 18.54 20.5201V3.48005C18.54 2.49605 17.724 1.68005 16.74 1.68005H7.26002C6.27602 1.68005 5.46002 2.49605 5.46002 3.48005V20.5201C5.46002 21.5041 6.27602 22.3201 7.26002 22.3201ZM6.30002 20.5201V3.48005C6.30002 2.88005 6.68402 2.49605 7.28402 2.49605H16.692C17.292 2.49605 17.7 2.88005 17.7 3.48005V20.5201C17.7 21.1201 17.292 21.5041 16.692 21.5041H7.28402C6.68402 21.5041 6.30002 21.1201 6.30002 20.5201ZM10.716 19.1041C10.716 19.7761 11.268 20.3761 11.988 20.3761C12.684 20.3761 13.236 19.7761 13.236 19.1041C13.236 18.4081 12.684 17.8561 11.988 17.8561C11.268 17.8561 10.716 18.4081 10.716 19.1041ZM11.388 19.1041C11.388 18.7681 11.652 18.5281 11.988 18.5281C12.324 18.5281 12.564 18.7681 12.564 19.1041C12.564 19.4161 12.324 19.6801 11.988 19.6801C11.652 19.6801 11.388 19.4161 11.388 19.1041Z" fill="black"/>
</svg>
