<svg width="24" height="24" viewBox="0 0 24 24" fill="none" xmlns="http://www.w3.org/2000/svg">
<path d="M2.09998 21.036H18.156C20.172 21.036 21.9 19.332 21.9 17.268C21.9 16.164 21.42 15.252 20.604 14.436L15.78 9.58799L16.188 9.20399L14.388 7.42799L13.98 7.81199L12.012 5.81999L12.42 5.43599L10.668 3.65999L10.26 4.06799L9.13198 2.96399L3.94798 8.14799L9.37198 13.548H2.09998V21.036ZM2.89198 20.22V14.364H18.156C19.764 14.364 21.084 15.636 21.084 17.268C21.084 18.924 19.764 20.22 18.156 20.22H2.89198ZM5.07598 8.14799L9.13198 4.09199L18.636 13.644C18.348 13.572 18.06 13.548 17.772 13.548H10.524L5.07598 8.14799ZM16.356 17.268C16.356 18.156 17.076 18.972 18.036 18.972C18.924 18.972 19.668 18.156 19.668 17.268C19.668 16.356 18.924 15.636 18.036 15.636C17.076 15.636 16.356 16.356 16.356 17.268ZM17.028 17.268C17.028 16.74 17.46 16.308 18.036 16.308C18.564 16.308 18.996 16.74 18.996 17.268C18.996 17.82 18.564 18.276 18.036 18.276C17.46 18.276 17.028 17.82 17.028 17.268Z" fill="black"/>
</svg>
