<svg width="24" height="24" viewBox="0 0 24 24" fill="none" xmlns="http://www.w3.org/2000/svg">
<path d="M13.6201 21.84H20.7961V2.16003H13.7881V9.50403L8.4841 4.22403L3.2041 9.52803L13.6201 19.92V21.84ZM4.3561 9.52803L8.5081 5.37603L19.2121 16.104C19.8361 16.704 20.1001 17.4 20.1001 18.192C20.1001 19.8 18.7561 21.144 17.1721 21.144C16.4041 21.144 15.6601 20.832 15.0601 20.232L4.3561 9.52803ZM15.3961 5.68803C15.3961 4.65603 16.2361 3.81603 17.3401 3.81603C18.3481 3.81603 19.1881 4.65603 19.1881 5.68803C19.1881 6.69603 18.3481 7.60803 17.3401 7.60803C16.2361 7.60803 15.3961 6.69603 15.3961 5.68803ZM15.4921 18.192C15.4921 19.08 16.2361 19.872 17.1961 19.872C18.1081 19.872 18.8041 19.08 18.8041 18.192C18.8041 17.28 18.0841 16.536 17.1961 16.536C16.2361 16.536 15.4921 17.28 15.4921 18.192ZM15.9961 5.68803C15.9961 6.38403 16.5721 7.00803 17.3401 7.00803C18.0361 7.00803 18.5881 6.40803 18.5881 5.68803C18.5881 4.96803 18.0361 4.41603 17.3401 4.39203C16.5721 4.39203 15.9961 4.96803 15.9961 5.68803ZM16.1881 18.192C16.1881 17.64 16.6201 17.208 17.1961 17.208C17.7001 17.208 18.1321 17.64 18.1321 18.192C18.1321 18.72 17.7001 19.2 17.1961 19.2C16.6201 19.2 16.1881 18.72 16.1881 18.192Z" fill="black"/>
</svg>
