<svg width="24" height="24" viewBox="0 0 24 24" fill="none" xmlns="http://www.w3.org/2000/svg">
<path d="M2.64014 21.1799H21.3601V15.1559H2.64014V21.1799ZM3.43214 20.3879V15.9239H11.2561C10.6081 16.4279 10.2001 17.2439 10.1761 18.1559C10.2001 19.0679 10.6081 19.8839 11.2561 20.3879H3.43214ZM7.65614 8.79595L12.0001 13.1399L16.3441 8.79595L15.7921 8.24395L14.1841 9.85195C13.6081 10.4519 12.9841 11.0519 12.4081 11.6519V2.81995H11.5921V11.6519C11.0161 11.0519 10.4161 10.4519 9.81614 9.85195L8.20814 8.24395L7.65614 8.79595ZM10.9441 18.1559C10.9681 16.9319 11.9521 15.9239 13.1521 15.9239H20.5921V20.3879H13.1521C11.9521 20.3879 10.9681 19.3799 10.9441 18.1559ZM11.9521 18.1559C11.9521 18.8759 12.5521 19.4759 13.2721 19.4759C13.9681 19.4759 14.5681 18.8759 14.5681 18.1559C14.5681 17.4359 13.9681 16.8599 13.2721 16.8599C12.5521 16.8599 11.9521 17.4359 11.9521 18.1559ZM12.5521 18.1559C12.5521 17.7719 12.8641 17.4359 13.2721 17.4359C13.6561 17.4359 13.9921 17.7719 13.9921 18.1559C13.9921 18.5639 13.6561 18.8759 13.2721 18.8759C12.8641 18.8759 12.5521 18.5639 12.5521 18.1559Z" fill="black"/>
</svg>
