<svg width="24" height="24" viewBox="0 0 24 24" fill="none" xmlns="http://www.w3.org/2000/svg">
<path d="M18.0481 22.3201L22.3201 18.0481L5.95205 1.68005L1.68005 5.95205L18.0481 22.3201ZM2.78405 5.95205L5.95205 2.78405L13.2241 10.0321C12.3841 9.93605 11.5201 10.2001 10.8481 10.8481C10.2001 11.4961 9.93605 12.3841 10.0321 13.2001L2.78405 5.95205ZM11.3761 14.5201C10.5361 13.6801 10.5361 12.2641 11.4001 11.3761C12.2881 10.5361 13.6801 10.5361 14.5201 11.3761L21.2161 18.0481L18.0481 21.2161L11.3761 14.5201ZM11.7121 13.0321C11.7121 13.7281 12.3121 14.3281 13.0321 14.3281C13.7281 14.3281 14.3281 13.7281 14.3281 13.0321C14.3281 12.3121 13.7281 11.7121 13.0321 11.7121C12.3121 11.7121 11.7121 12.3121 11.7121 13.0321ZM12.3121 13.0321C12.3121 12.6241 12.6241 12.3121 13.0321 12.3121C13.4161 12.3121 13.7521 12.6241 13.7521 13.0321C13.7521 13.4161 13.4161 13.7521 13.0321 13.7521C12.6241 13.7521 12.3121 13.4161 12.3121 13.0321Z" fill="black"/>
</svg>
