<svg width="24" height="24" viewBox="0 0 24 24" fill="none" xmlns="http://www.w3.org/2000/svg">
<path d="M2.1001 21.036H18.1561C20.1721 21.036 21.9001 19.332 21.9001 17.268C21.9001 16.164 21.4201 15.252 20.6041 14.436L9.1321 2.96399L3.9481 8.14799L9.3721 13.548H2.1001V21.036ZM2.8921 20.22V14.364H18.1561C19.7641 14.364 21.0841 15.636 21.0841 17.268C21.0841 18.924 19.7641 20.22 18.1561 20.22H2.8921ZM5.0761 8.14799L9.1321 4.09199L18.6361 13.644C18.3481 13.572 18.0601 13.548 17.7721 13.548H10.5241L5.0761 8.14799ZM7.5481 8.21999C7.5481 9.10799 8.2921 9.89999 9.2281 9.89999C10.1401 9.89999 10.8601 9.10799 10.8601 8.21999C10.8601 7.30799 10.1401 6.56399 9.2281 6.56399C8.2921 6.56399 7.5481 7.30799 7.5481 8.21999ZM8.2201 8.21999C8.2201 7.66799 8.6521 7.23599 9.2281 7.23599C9.7561 7.23599 10.1881 7.66799 10.1881 8.21999C10.1881 8.74799 9.7561 9.22799 9.2281 9.22799C8.6521 9.22799 8.2201 8.74799 8.2201 8.21999ZM16.3561 17.268C16.3561 18.156 17.0761 18.972 18.0361 18.972C18.9241 18.972 19.6681 18.156 19.6681 17.268C19.6681 16.356 18.9241 15.636 18.0361 15.636C17.0761 15.636 16.3561 16.356 16.3561 17.268ZM17.0281 17.268C17.0281 16.74 17.4601 16.308 18.0361 16.308C18.5641 16.308 18.9961 16.74 18.9961 17.268C18.9961 17.82 18.5641 18.276 18.0361 18.276C17.4601 18.276 17.0281 17.82 17.0281 17.268Z" fill="black"/>
</svg>
