<svg width="24" height="24" viewBox="0 0 24 24" fill="none" xmlns="http://www.w3.org/2000/svg">
<path d="M18.0482 22.3201L22.3202 18.0481L5.95218 1.68005L1.68018 5.95205L18.0482 22.3201ZM2.78418 5.95205L5.95218 2.78405L13.2242 10.0321C12.3842 9.93605 11.5202 10.2001 10.8482 10.8481C10.2002 11.4961 9.93618 12.3841 10.0322 13.2001L2.78418 5.95205ZM11.3762 14.5201C10.5362 13.6801 10.5362 12.2641 11.4002 11.3761C12.2882 10.5361 13.6802 10.5361 14.5202 11.3761L21.2162 18.0481L18.0482 21.2161L11.3762 14.5201ZM11.7122 13.0321C11.7122 13.7281 12.3122 14.3281 13.0322 14.3281C13.7282 14.3281 14.3282 13.7281 14.3282 13.0321C14.3282 12.3121 13.7282 11.7121 13.0322 11.7121C12.3122 11.7121 11.7122 12.3121 11.7122 13.0321ZM12.3122 13.0321C12.3122 12.6241 12.6242 12.3121 13.0322 12.3121C13.4162 12.3121 13.7522 12.6241 13.7522 13.0321C13.7522 13.4161 13.4162 13.7521 13.0322 13.7521C12.6242 13.7521 12.3122 13.4161 12.3122 13.0321Z" fill="black"/>
</svg>
