<svg width="24" height="24" viewBox="0 0 24 24" fill="none" xmlns="http://www.w3.org/2000/svg">
<path d="M2.64001 21.1799H21.36V15.1559H2.64001V21.1799ZM3.43201 20.3879V15.9239H11.256C10.608 16.4279 10.2 17.2439 10.176 18.1559C10.2 19.0679 10.608 19.8839 11.256 20.3879H3.43201ZM7.65602 8.79595L12 13.1399L16.344 8.79595L15.792 8.24395L14.184 9.85195C13.608 10.4519 12.984 11.0519 12.408 11.6519V2.81995H11.592V11.6519C11.016 11.0519 10.416 10.4519 9.81602 9.85195L8.20802 8.24395L7.65602 8.79595ZM10.944 18.1559C10.968 16.9319 11.952 15.9239 13.152 15.9239H20.592V20.3879H13.152C11.952 20.3879 10.968 19.3799 10.944 18.1559ZM11.952 18.1559C11.952 18.8759 12.552 19.4759 13.272 19.4759C13.968 19.4759 14.568 18.8759 14.568 18.1559C14.568 17.4359 13.968 16.8599 13.272 16.8599C12.552 16.8599 11.952 17.4359 11.952 18.1559ZM12.552 18.1559C12.552 17.7719 12.864 17.4359 13.272 17.4359C13.656 17.4359 13.992 17.7719 13.992 18.1559C13.992 18.5639 13.656 18.8759 13.272 18.8759C12.864 18.8759 12.552 18.5639 12.552 18.1559Z" fill="black"/>
</svg>
