<svg width="24" height="24" viewBox="0 0 24 24" fill="none" xmlns="http://www.w3.org/2000/svg">
<path d="M2.64014 8.84395H21.3601V2.81995H2.64014V8.84395ZM3.43214 8.07595V3.58795H11.2561C10.6081 4.09195 10.2001 4.90795 10.1761 5.81995C10.2001 6.73195 10.6081 7.54795 11.2561 8.07595H3.43214ZM7.65614 16.8359L12.0001 21.1799L16.3441 16.8359L15.7921 16.2839L14.1841 17.8919C13.6081 18.4919 12.9841 19.0919 12.4081 19.6919V10.8599H11.5921V19.6919C11.0161 19.0919 10.4161 18.4919 9.81614 17.8919L8.20814 16.2839L7.65614 16.8359ZM10.9441 5.81995C10.9681 4.59595 11.9521 3.58795 13.1521 3.58795H20.5921V8.07595H13.1521C11.9521 8.07595 10.9681 7.06795 10.9441 5.81995ZM11.9521 5.84395C11.9521 6.53995 12.5521 7.13995 13.2721 7.13995C13.9681 7.13995 14.5681 6.53995 14.5681 5.84395C14.5681 5.12395 13.9681 4.52395 13.2721 4.52395C12.5521 4.52395 11.9521 5.12395 11.9521 5.84395ZM12.5521 5.84395C12.5521 5.43595 12.8641 5.12395 13.2721 5.12395C13.6561 5.12395 13.9921 5.43595 13.9921 5.84395C13.9921 6.22795 13.6561 6.56395 13.2721 6.56395C12.8641 6.56395 12.5521 6.22795 12.5521 5.84395Z" fill="black"/>
</svg>
