<svg width="24" height="24" viewBox="0 0 24 24" fill="none" xmlns="http://www.w3.org/2000/svg">
<path d="M5.40387 21.1869C4.76643 21.1864 4.15526 20.9326 3.70452 20.4812C3.25378 20.0298 3.0003 19.4178 2.99976 18.7795V2.81262H18.8103V6.68401H7.80799V18.7795C7.80727 19.4178 7.55373 20.0297 7.10303 20.481C6.65232 20.9323 6.04126 21.1862 5.40387 21.1869ZM3.82261 3.63661V18.7795C3.82298 19.1994 3.98971 19.6019 4.28617 19.8988C4.58264 20.1956 4.98461 20.3626 5.40387 20.3629C5.82308 20.3624 6.22498 20.1954 6.52141 19.8986C6.81783 19.6017 6.98459 19.1993 6.98514 18.7795V5.86002H17.9874V3.63661H3.82261Z" fill="black"/>
<path d="M18.8741 21.1869H5.40387V20.3629H18.8741C19.2196 20.3629 19.551 20.2255 19.7953 19.9808C20.0397 19.7361 20.1769 19.4043 20.1769 19.0583V6.68401H18.3989V5.86001H20.9998V19.0583C20.9998 19.6228 20.7758 20.1643 20.3772 20.5635C19.9785 20.9627 19.4379 21.1869 18.8741 21.1869Z" fill="black"/>
<path d="M17.8407 9.47459H10.0324V10.2986H17.8407V9.47459Z" fill="black"/>
<path d="M17.8407 13.2643H10.0324V14.0882H17.8407V13.2643Z" fill="black"/>
</svg>
