<svg width="24" height="24" viewBox="0 0 24 24" fill="none" xmlns="http://www.w3.org/2000/svg">
<path d="M5.40412 21.1869C4.76667 21.1864 4.15551 20.9326 3.70477 20.4812C3.25402 20.0299 3.00054 19.4178 3 18.7795V2.81262H18.8105V6.68401H7.80824V18.7795C7.80751 19.4178 7.55397 20.0297 7.10327 20.481C6.65257 20.9323 6.04151 21.1862 5.40412 21.1869ZM3.82286 3.63661V18.7795C3.82322 19.1994 3.98995 19.6019 4.28642 19.8988C4.58288 20.1956 4.98485 20.3626 5.40412 20.3629C5.82333 20.3624 6.22523 20.1954 6.52165 19.8986C6.81808 19.6017 6.98484 19.1993 6.98538 18.7795V5.86002H17.9877V3.63661H3.82286Z" fill="black"/>
<path d="M18.8743 21.1869H5.40412V20.3629H18.8743C19.2199 20.3629 19.5512 20.2255 19.7956 19.9808C20.0399 19.7361 20.1772 19.4043 20.1772 19.0583V6.68401H18.3991V5.86001H21V19.0583C21 19.6228 20.7761 20.1643 20.3774 20.5635C19.9788 20.9627 19.4381 21.1869 18.8743 21.1869Z" fill="black"/>
<path d="M17.8409 9.47459H10.0327V10.2986H17.8409V9.47459Z" fill="black"/>
<path d="M17.8409 13.2643H10.0327V14.0882H17.8409V13.2643Z" fill="black"/>
</svg>
