<svg width="24" height="24" viewBox="0 0 24 24" fill="none" xmlns="http://www.w3.org/2000/svg">
<path d="M13.0919 16.704C15.2999 16.704 16.5479 14.832 16.5239 11.904C16.4999 9.048 15.2519 7.344 13.1159 7.344C11.3639 7.344 10.0439 8.664 10.0439 10.464C10.0439 12.216 11.3159 13.536 13.0439 13.536C14.2679 13.536 15.2519 12.816 15.5879 11.736H15.6839C15.7799 14.04 15.2279 15.936 13.0679 15.936C11.7959 15.936 11.0519 15.24 10.8599 13.968H10.0439C10.2119 15.624 11.4359 16.704 13.0919 16.704ZM4.06787 12C4.06787 17.04 8.02787 21 13.0679 21H19.9319V20.16H13.0679C8.50787 20.16 4.90787 16.56 4.90787 12C4.90787 7.536 8.50787 3.84 13.0679 3.84H19.9319V3H13.0679C8.02787 3 4.06787 7.08 4.06787 12ZM10.8839 10.536V10.32C10.8839 8.976 11.6999 8.136 13.0919 8.136H13.1879C14.6279 8.136 15.3959 9.072 15.3959 10.32V10.536C15.3959 11.88 14.6039 12.744 13.1879 12.744H13.0919C11.6999 12.744 10.8839 11.904 10.8839 10.536Z" fill="black"/>
</svg>
