<svg width="24" height="24" viewBox="0 0 24 24" fill="none" xmlns="http://www.w3.org/2000/svg">
<path d="M10.9559 16.704C13.1639 16.704 14.4119 14.832 14.3879 11.904C14.3639 9.048 13.1159 7.344 10.9799 7.344C9.22787 7.344 7.90787 8.664 7.90787 10.464C7.90787 12.216 9.17987 13.536 10.9079 13.536C12.1319 13.536 13.1159 12.816 13.4759 11.736H13.5479C13.6439 14.04 13.0919 15.936 10.9319 15.936C9.65987 15.936 8.91587 15.24 8.72387 13.968H7.90787C8.07587 15.624 9.29987 16.704 10.9559 16.704ZM4.06787 21H10.9319C15.9719 21 19.9319 16.896 19.9319 12C19.9319 6.96 15.9719 3 10.9319 3H4.06787V3.84H10.9319C15.5159 3.84 19.0919 7.416 19.0919 12C19.0919 16.44 15.5159 20.16 10.9319 20.16H4.06787V21ZM8.74787 10.536V10.32C8.74787 8.976 9.56387 8.136 10.9559 8.136H11.0519C12.4919 8.136 13.2599 9.072 13.2599 10.32V10.536C13.2599 11.88 12.4679 12.744 11.0519 12.744H10.9559C9.56387 12.744 8.74787 11.904 8.74787 10.536Z" fill="black"/>
</svg>
