<svg width="24" height="24" viewBox="0 0 24 24" fill="none" xmlns="http://www.w3.org/2000/svg">
<path d="M12.0238 16.704C14.2318 16.704 15.4798 14.832 15.4558 11.904C15.4318 9.048 14.1838 7.344 12.0478 7.344C10.2958 7.344 8.97577 8.664 8.97577 10.464C8.97577 12.216 10.2478 13.536 11.9758 13.536C13.1998 13.536 14.1838 12.816 14.5438 11.736H14.6158C14.7118 14.04 14.1598 15.936 11.9998 15.936C10.7278 15.936 9.98377 15.24 9.79177 13.968H8.97577C9.14377 15.624 10.3678 16.704 12.0238 16.704ZM5.75977 21H18.2398V20.16H5.75977V21ZM5.75977 3.84H18.2398V3H5.75977V3.84ZM9.81577 10.536V10.32C9.81577 8.976 10.6318 8.136 12.0238 8.136H12.1198C13.5598 8.136 14.3278 9.072 14.3278 10.32V10.536C14.3278 11.88 13.5358 12.744 12.1198 12.744H12.0238C10.6318 12.744 9.81577 11.904 9.81577 10.536Z" fill="black"/>
</svg>
