<svg width="24" height="24" viewBox="0 0 24 24" fill="none" xmlns="http://www.w3.org/2000/svg">
<path d="M13.092 16.704C15.3 16.704 16.548 14.832 16.524 11.904C16.5 9.048 15.252 7.344 13.116 7.344C11.364 7.344 10.044 8.664 10.044 10.464C10.044 12.216 11.316 13.536 13.044 13.536C14.268 13.536 15.252 12.816 15.588 11.736H15.684C15.78 14.04 15.228 15.936 13.068 15.936C11.796 15.936 11.052 15.24 10.86 13.968H10.044C10.212 15.624 11.436 16.704 13.092 16.704ZM4.06799 12C4.06799 17.04 8.02799 21 13.068 21H19.932V20.16H13.068C8.50799 20.16 4.90799 16.56 4.90799 12C4.90799 7.536 8.50799 3.84 13.068 3.84H19.932V3H13.068C8.02799 3 4.06799 7.08 4.06799 12ZM10.884 10.536V10.32C10.884 8.976 11.7 8.136 13.092 8.136H13.188C14.628 8.136 15.396 9.072 15.396 10.32V10.536C15.396 11.88 14.604 12.744 13.188 12.744H13.092C11.7 12.744 10.884 11.904 10.884 10.536Z" fill="black"/>
</svg>
