<svg width="24" height="24" viewBox="0 0 24 24" fill="none" xmlns="http://www.w3.org/2000/svg">
<path d="M17.988 21.156L21.156 17.892L16.044 13.284L11.82 17.46C10.812 16.74 9.852 15.924 8.964 15.036C8.076 14.148 7.26 13.188 6.564 12.18L10.716 7.95599L6.108 2.84399L2.844 6.01199C3.588 9.53999 5.7 12.924 8.364 15.636C11.1 18.324 14.46 20.436 17.988 21.156ZM3.78 6.27599L6.084 4.06799L9.564 7.93199L6.084 11.484C5.028 9.85199 4.212 8.09999 3.78 6.27599ZM12.516 17.94L16.068 14.46L19.932 17.916L17.724 20.22C15.9 19.788 14.148 18.996 12.516 17.94Z" fill="black"/>
</svg>
