<svg width="24" height="24" viewBox="0 0 24 24" fill="none" xmlns="http://www.w3.org/2000/svg">
<path d="M9.74405 21.66L12.0961 19.452L10.9681 16.116L14.1601 12.924L18.2161 20.628L19.9441 18.684L17.8321 9.25197L21.0481 6.05997C21.4561 5.67597 21.6481 5.12397 21.6481 4.54797C21.6481 3.25197 20.6401 2.33997 19.4401 2.33997C18.7921 2.33997 18.2881 2.62797 17.7121 3.20397L14.7361 6.15597L5.28005 4.01997L3.38405 5.81997L11.0881 9.82797L7.87205 13.02L4.56005 11.964L2.35205 14.244L7.20005 16.884L9.74405 21.66ZM3.67205 14.052L4.80005 12.876L8.11205 13.932L12.4321 9.61197L4.77605 5.60397L5.54405 4.90797L14.9761 7.04397L18.2881 3.77997C18.7201 3.32397 19.0321 3.15597 19.4401 3.15597C20.2081 3.15597 20.8321 3.70797 20.8321 4.54797C20.8321 4.93197 20.7121 5.24397 20.4961 5.45997L16.9441 9.01197L19.0561 18.444L18.4081 19.212L14.3761 11.58L10.0321 15.9L11.1601 19.212L9.96005 20.34L7.80005 16.284L3.67205 14.052Z" fill="black"/>
</svg>
