<svg width="24" height="24" viewBox="0 0 24 24" fill="none" xmlns="http://www.w3.org/2000/svg">
<path d="M9.74401 21.66L12.096 19.452L10.968 16.116L14.16 12.924L18.216 20.628L19.944 18.684L17.832 9.25197L21.048 6.05997C21.456 5.67597 21.648 5.12397 21.648 4.54797C21.648 3.25197 20.64 2.33997 19.44 2.33997C18.792 2.33997 18.288 2.62797 17.712 3.20397L14.736 6.15597L5.28001 4.01997L3.38401 5.81997L11.088 9.82797L7.87201 13.02L4.56001 11.964L2.35201 14.244L7.20001 16.884L9.74401 21.66ZM3.67201 14.052L4.80001 12.876L8.11201 13.932L12.432 9.61197L4.77601 5.60397L5.54401 4.90797L14.976 7.04397L18.288 3.77997C18.72 3.32397 19.032 3.15597 19.44 3.15597C20.208 3.15597 20.832 3.70797 20.832 4.54797C20.832 4.93197 20.712 5.24397 20.496 5.45997L16.944 9.01197L19.056 18.444L18.408 19.212L14.376 11.58L10.032 15.9L11.16 19.212L9.96001 20.34L7.80001 16.284L3.67201 14.052Z" fill="black"/>
</svg>
