<svg width="24" height="24" viewBox="0 0 24 24" fill="none" xmlns="http://www.w3.org/2000/svg">
<path d="M3 11.856V12.288H3.84V11.856C3.84 7.39202 7.464 3.84001 11.976 3.84001C14.976 3.84001 17.616 5.52001 19.056 8.01602C18.288 8.01602 17.448 7.99202 16.632 7.99202H14.256V8.78402H20.4V2.64001H19.632V5.01601V7.46402C18 4.72801 15.12 3.00001 11.976 3.00001C6.984 3.00001 3 6.91202 3 11.856ZM3.6 21.36H4.392V18.984C4.392 18.216 4.368 17.376 4.368 16.536C6 19.272 8.88 21 12.024 21C17.016 21 21 17.064 21 12.144V11.712H20.16V12.144C20.16 16.608 16.56 20.16 12.024 20.16C9.024 20.16 6.384 18.456 4.944 15.984H7.368H9.744V15.216H3.6V21.36Z" fill="black"/>
</svg>
