<svg width="24" height="24" viewBox="0 0 24 24" fill="none" xmlns="http://www.w3.org/2000/svg">
<path d="M5.2799 17.844H18.7199V17.076H16.4399C18.5759 15.66 19.9199 13.284 19.9199 10.62C19.9199 6.25195 16.3679 2.69995 11.9999 2.69995C7.6319 2.69995 4.0799 6.25195 4.0799 10.62C4.0799 13.284 5.3999 15.636 7.5359 17.076H5.2799V17.844ZM2.3999 21.2999H21.5999V14.9399H20.7599V20.4839H3.2399V14.9399H2.3999V21.2999ZM4.9199 10.62C4.9199 6.70795 8.0879 3.53995 11.9999 3.53995C15.9119 3.53995 19.0799 6.70795 19.0799 10.62C19.0799 13.5719 17.2559 16.092 14.7119 17.076H9.3119C6.7439 16.092 4.9199 13.5719 4.9199 10.62Z" fill="black"/>
</svg>
