<svg width="24" height="24" viewBox="0 0 24 24" fill="none" xmlns="http://www.w3.org/2000/svg">
<path d="M12.0001 21.84C18.2401 19.368 21.3601 15.432 21.3601 10.128V5.08803C18.6961 3.16803 15.4561 2.16003 12.0001 2.16003C8.54414 2.16003 5.30414 3.16803 2.64014 5.08803V10.128C2.64014 15.432 5.76014 19.368 12.0001 21.84ZM3.48014 10.128V5.49603C5.95214 3.81603 8.83214 2.97603 12.0001 2.97603C15.1681 2.97603 18.0481 3.81603 20.5201 5.49603V10.128C20.5201 15.072 17.8081 18.576 12.0001 20.952C6.19214 18.576 3.48014 15.072 3.48014 10.128ZM8.11214 11.136L11.2801 14.328L16.7761 8.80803L16.2001 8.23203L11.2801 13.128L8.68814 10.56L8.11214 11.136Z" fill="black"/>
</svg>
