<svg width="24" height="24" viewBox="0 0 24 24" fill="none" xmlns="http://www.w3.org/2000/svg">
<path d="M12.0001 21.84C18.2401 19.368 21.3601 15.432 21.3601 10.128V5.08803C18.6961 3.16803 15.4561 2.16003 12.0001 2.16003C8.54414 2.16003 5.30414 3.16803 2.64014 5.08803V10.128C2.64014 15.432 5.76014 19.368 12.0001 21.84ZM3.48014 10.128V5.49603C5.95214 3.81603 8.83214 2.97603 12.0001 2.97603C15.1681 2.97603 18.0481 3.81603 20.5201 5.49603V10.128C20.5201 15.072 17.8081 18.576 12.0001 20.952C6.19214 18.576 3.48014 15.072 3.48014 10.128ZM7.32014 11.064C7.32014 11.184 7.34414 11.28 7.41614 11.376L9.52814 14.808C10.0561 15.696 11.0161 16.272 12.1201 16.272C13.7521 16.272 15.0481 15.048 15.1441 13.416L15.2641 7.82403C15.2641 7.53603 15.0481 7.29603 14.7601 7.29603C14.4721 7.29603 14.2561 7.53603 14.2561 7.80003L14.1841 10.8H13.6561L13.6801 6.81603C13.6801 6.52803 13.4881 6.28803 13.1761 6.28803C12.8881 6.28803 12.6721 6.52803 12.6721 6.79203L12.6481 10.56H12.1201L12.0961 6.28803C12.0961 6.02403 11.9041 5.78403 11.5921 5.78403C11.3041 5.78403 11.0881 6.02403 11.0881 6.31203L11.1121 10.8H10.5601L10.5121 7.29603C10.5121 7.03203 10.3201 6.79203 10.0081 6.79203C9.69614 6.79203 9.50414 7.03203 9.50414 7.32003L9.57614 12.528L8.47214 10.728C8.37614 10.536 8.16014 10.416 7.94414 10.416C7.58414 10.416 7.32014 10.68 7.32014 11.064Z" fill="black"/>
</svg>
