<svg width="24" height="24" viewBox="0 0 24 24" fill="none" xmlns="http://www.w3.org/2000/svg">
<path d="M12 21.84C18.24 19.368 21.36 15.432 21.36 10.128V5.08803C18.696 3.16803 15.456 2.16003 12 2.16003C8.54402 2.16003 5.30401 3.16803 2.64001 5.08803V10.128C2.64001 15.432 5.76001 19.368 12 21.84ZM3.48001 10.128V5.49603C5.95201 3.81603 8.83202 2.97603 12 2.97603C15.168 2.97603 18.048 3.81603 20.52 5.49603V10.128C20.52 15.072 17.808 18.576 12 20.952C6.19201 18.576 3.48001 15.072 3.48001 10.128ZM7.32002 11.064C7.32002 11.184 7.34402 11.28 7.41602 11.376L9.52802 14.808C10.056 15.696 11.016 16.272 12.12 16.272C13.752 16.272 15.048 15.048 15.144 13.416L15.264 7.82403C15.264 7.53603 15.048 7.29603 14.76 7.29603C14.472 7.29603 14.256 7.53603 14.256 7.80003L14.184 10.8H13.656L13.68 6.81603C13.68 6.52803 13.488 6.28803 13.176 6.28803C12.888 6.28803 12.672 6.52803 12.672 6.79203L12.648 10.56H12.12L12.096 6.28803C12.096 6.02403 11.904 5.78403 11.592 5.78403C11.304 5.78403 11.088 6.02403 11.088 6.31203L11.112 10.8H10.56L10.512 7.29603C10.512 7.03203 10.32 6.79203 10.008 6.79203C9.69602 6.79203 9.50402 7.03203 9.50402 7.32003L9.57602 12.528L8.47202 10.728C8.37602 10.536 8.16002 10.416 7.94402 10.416C7.58402 10.416 7.32002 10.68 7.32002 11.064Z" fill="black"/>
</svg>
