<svg width="24" height="24" viewBox="0 0 24 24" fill="none" xmlns="http://www.w3.org/2000/svg">
<path d="M18.7682 16.6319V15.8159H8.61616L8.18416 13.5599H19.9202L21.8402 4.79995L6.43216 4.77595L6.09616 3.09595H2.16016V3.91195H5.42416L7.94416 16.6319H18.7682ZM6.60016 5.59195L20.8082 5.61595L19.2482 12.7439H8.01616L6.60016 5.59195ZM7.27216 19.5119C7.27216 20.2559 7.89616 20.9039 8.68816 20.9039C9.45616 20.9039 10.0802 20.2559 10.0802 19.5119C10.0802 18.7439 9.45616 18.1199 8.68816 18.1199C7.89616 18.1199 7.27216 18.7439 7.27216 19.5119ZM7.96816 19.5119C7.96816 19.1039 8.28016 18.7919 8.68816 18.7919C9.07216 18.7919 9.40816 19.1039 9.40816 19.5119C9.40816 19.8959 9.07216 20.2319 8.68816 20.2319C8.28016 20.2319 7.96816 19.8959 7.96816 19.5119ZM16.4402 19.5119C16.4402 20.2559 17.0642 20.9039 17.8322 20.9039C18.6002 20.9039 19.2242 20.2559 19.2242 19.5119C19.2242 18.7439 18.6002 18.1199 17.8322 18.1199C17.0642 18.1199 16.4402 18.7439 16.4402 19.5119ZM17.1122 19.5119C17.1122 19.1039 17.4482 18.7919 17.8322 18.7919C18.2402 18.7919 18.5522 19.1039 18.5522 19.5119C18.5522 19.8959 18.2402 20.2319 17.8322 20.2319C17.4482 20.2319 17.1122 19.8959 17.1122 19.5119Z" fill="black"/>
</svg>
