<svg width="24" height="24" viewBox="0 0 24 24" fill="none" xmlns="http://www.w3.org/2000/svg">
<path d="M11.9758 16.704C13.7758 16.704 15.0478 15.384 15.0478 13.608C15.0478 11.832 13.7758 10.512 12.0478 10.512C10.8238 10.512 9.83977 11.232 9.47977 12.288H9.40777C9.31177 10.008 9.83977 8.112 12.0238 8.112C13.2718 8.112 14.0398 8.76 14.2318 10.008H15.0238C14.8078 8.4 13.6558 7.344 12.0238 7.344C9.81577 7.344 8.54377 9.216 8.56777 12.144C8.59177 15 9.83977 16.704 11.9758 16.704ZM5.75977 21H18.2398V20.16H5.75977V21ZM5.75977 3.84H18.2398V3H5.75977V3.84ZM9.67177 13.704V13.488C9.67177 12.144 10.4878 11.28 11.9038 11.28H11.9998C13.4158 11.28 14.2318 12.12 14.2318 13.488V13.704C14.2318 15.072 13.4158 15.912 11.9998 15.912H11.9038C10.4638 15.912 9.67177 14.952 9.67177 13.704Z" fill="black"/>
</svg>
