<svg width="24" height="24" viewBox="0 0 24 24" fill="none" xmlns="http://www.w3.org/2000/svg">
<path d="M13.0439 16.704C14.8439 16.704 16.1159 15.384 16.1159 13.608C16.1159 11.832 14.8439 10.512 13.1159 10.512C11.8919 10.512 10.9079 11.232 10.5479 12.288H10.4519C10.3799 10.008 10.9079 8.112 13.0919 8.112C14.3399 8.112 15.1079 8.76 15.2999 10.008H16.0919C15.8759 8.376 14.7239 7.344 13.0919 7.344C10.8839 7.344 9.61187 9.216 9.63587 12.144C9.65987 15 10.9079 16.704 13.0439 16.704ZM4.06787 12C4.06787 17.04 8.02787 21 13.0679 21H19.9319V20.16H13.0679C8.50787 20.16 4.90787 16.56 4.90787 12C4.90787 7.536 8.50787 3.84 13.0679 3.84H19.9319V3H13.0679C8.02787 3 4.06787 7.08 4.06787 12ZM10.7399 13.704V13.488C10.7399 12.144 11.5559 11.28 12.9719 11.28H13.0679C14.4839 11.28 15.2999 12.12 15.2999 13.488V13.704C15.2999 15.072 14.4839 15.912 13.0679 15.912H12.9719C11.5319 15.912 10.7399 14.952 10.7399 13.704Z" fill="black"/>
</svg>
