<svg width="24" height="24" viewBox="0 0 24 24" fill="none" xmlns="http://www.w3.org/2000/svg">
<path d="M10.908 16.704C12.708 16.704 13.98 15.384 13.98 13.608C13.98 11.832 12.708 10.512 10.98 10.512C9.75599 10.512 8.77199 11.232 8.41199 12.288H8.33999C8.24399 10.008 8.77199 8.112 10.956 8.112C12.204 8.112 12.972 8.76 13.164 10.008H13.956C13.74 8.4 12.588 7.344 10.956 7.344C8.74799 7.344 7.47599 9.216 7.49999 12.144C7.52399 15 8.77199 16.704 10.908 16.704ZM4.06799 21H10.932C15.972 21 19.932 16.896 19.932 12C19.932 6.96 15.972 3 10.932 3H4.06799V3.84H10.932C15.516 3.84 19.092 7.416 19.092 12C19.092 16.44 15.516 20.16 10.932 20.16H4.06799V21ZM8.60399 13.704V13.488C8.60399 12.144 9.41999 11.28 10.836 11.28H10.932C12.348 11.28 13.164 12.12 13.164 13.488V13.704C13.164 15.072 12.348 15.912 10.932 15.912H10.836C9.39599 15.912 8.60399 14.952 8.60399 13.704Z" fill="black"/>
</svg>
