<svg width="24" height="24" viewBox="0 0 24 24" fill="none" xmlns="http://www.w3.org/2000/svg">
<path d="M10.9079 16.704C12.7079 16.704 13.9799 15.384 13.9799 13.608C13.9799 11.832 12.7079 10.512 10.9799 10.512C9.75587 10.512 8.77187 11.232 8.41187 12.288H8.33987C8.24387 10.008 8.77187 8.112 10.9559 8.112C12.2039 8.112 12.9719 8.76 13.1639 10.008H13.9559C13.7399 8.4 12.5879 7.344 10.9559 7.344C8.74787 7.344 7.47587 9.216 7.49987 12.144C7.52387 15 8.77187 16.704 10.9079 16.704ZM4.06787 21H10.9319C15.9719 21 19.9319 16.896 19.9319 12C19.9319 6.96 15.9719 3 10.9319 3H4.06787V3.84H10.9319C15.5159 3.84 19.0919 7.416 19.0919 12C19.0919 16.44 15.5159 20.16 10.9319 20.16H4.06787V21ZM8.60387 13.704V13.488C8.60387 12.144 9.41987 11.28 10.8359 11.28H10.9319C12.3479 11.28 13.1639 12.12 13.1639 13.488V13.704C13.1639 15.072 12.3479 15.912 10.9319 15.912H10.8359C9.39587 15.912 8.60387 14.952 8.60387 13.704Z" fill="black"/>
</svg>
