<svg width="24" height="24" viewBox="0 0 24 24" fill="none" xmlns="http://www.w3.org/2000/svg">
<path d="M11.988 20.856C17.004 20.856 20.82 19.272 20.82 16.776V7.17598C20.82 4.70398 17.148 3.14398 11.988 3.14398C7.01999 3.14398 3.17999 4.70398 3.17999 7.17598V16.776C3.17999 19.272 6.89999 20.856 11.988 20.856ZM4.01999 16.776V13.776C5.26799 15.192 8.26799 16.08 11.988 16.08C15.66 16.08 18.684 15.192 19.98 13.776V16.776C19.98 18.672 16.764 20.04 11.988 20.04C7.13999 20.04 4.01999 18.672 4.01999 16.776ZM4.01999 12.048V8.92798C5.26799 10.344 8.26799 11.208 11.988 11.208C15.66 11.208 18.684 10.344 19.98 8.90398V12.048C19.956 13.872 16.764 15.264 11.988 15.264C7.13999 15.264 4.01999 13.872 4.01999 12.048ZM4.01999 7.17598C4.01999 5.30398 7.23599 3.95998 11.988 3.95998C16.908 3.95998 19.98 5.30398 19.98 7.17598C19.956 9.02398 16.764 10.392 11.988 10.392C7.13999 10.392 4.01999 9.02398 4.01999 7.17598Z" fill="black"/>
</svg>
