<svg width="24" height="24" viewBox="0 0 24 24" fill="none" xmlns="http://www.w3.org/2000/svg">
<path d="M11.9882 20.856C17.0042 20.856 20.8202 19.272 20.8202 16.776V7.17598C20.8202 4.70398 17.1482 3.14398 11.9882 3.14398C7.02018 3.14398 3.18018 4.70398 3.18018 7.17598V16.776C3.18018 19.272 6.90018 20.856 11.9882 20.856ZM4.02018 16.776V13.776C5.26818 15.192 8.26818 16.08 11.9882 16.08C15.6602 16.08 18.6842 15.192 19.9802 13.776V16.776C19.9802 18.672 16.7642 20.04 11.9882 20.04C7.14018 20.04 4.02018 18.672 4.02018 16.776ZM4.02018 12.048V8.92798C5.26818 10.344 8.26818 11.208 11.9882 11.208C15.6602 11.208 18.6842 10.344 19.9802 8.90398V12.048C19.9562 13.872 16.7642 15.264 11.9882 15.264C7.14018 15.264 4.02018 13.872 4.02018 12.048ZM4.02018 7.17598C4.02018 5.30398 7.23618 3.95998 11.9882 3.95998C16.9082 3.95998 19.9802 5.30398 19.9802 7.17598C19.9562 9.02398 16.7642 10.392 11.9882 10.392C7.14018 10.392 4.02018 9.02398 4.02018 7.17598Z" fill="black"/>
</svg>
