<svg width="24" height="24" viewBox="0 0 24 24" fill="none" xmlns="http://www.w3.org/2000/svg">
<path d="M10.704 21H13.296C13.992 21 14.544 20.52 14.544 19.68C16.488 18.936 17.928 17.184 18.264 15.096H18.72C20.352 15.096 21.6 13.848 21.6 12.216V11.28C21.6 9.672 20.352 8.4 18.72 8.4H18.288C17.808 5.376 15.192 3 12 3C8.80802 3 6.19202 5.376 5.71202 8.4H5.28002C3.64802 8.4 2.40002 9.672 2.40002 11.28V12.216C2.40002 13.848 3.64802 15.096 5.28002 15.096H6.48002V9.36C6.48002 6.312 8.95202 3.816 12 3.816C15.072 3.816 17.52 6.312 17.52 9.36V14.112C17.52 16.176 16.296 17.976 14.544 18.768C14.52 18 13.968 17.496 13.296 17.496H10.704C9.98402 17.496 9.45602 18.048 9.45602 18.744V19.752C9.45602 20.472 9.98402 21 10.704 21ZM3.19202 12.216V11.28C3.19202 9.984 3.98402 9.192 5.28002 9.192H5.64002V14.328H5.28002C3.98402 14.328 3.19202 13.536 3.19202 12.216ZM10.2 19.704V18.792C10.2 18.432 10.368 18.264 10.728 18.264H13.272C13.632 18.264 13.8 18.432 13.8 18.792V19.704C13.8 20.088 13.632 20.256 13.272 20.256H10.728C10.368 20.256 10.2 20.088 10.2 19.704ZM18.36 14.328V9.192H18.72C20.016 9.192 20.832 9.984 20.832 11.28V12.216C20.832 13.536 20.016 14.328 18.72 14.328H18.36Z" fill="black"/>
</svg>
