<svg width="24" height="24" viewBox="0 0 24 24" fill="none" xmlns="http://www.w3.org/2000/svg">
<path d="M4.25997 19.584H19.716C20.844 18.048 21.564 16.08 21.564 14.016C21.564 9.33602 18.18 5.44802 13.716 4.63202V5.49602C17.7 6.28802 20.724 9.81602 20.724 14.016C20.724 15.744 20.172 17.376 19.284 18.744H4.69197C3.80397 17.376 3.27597 15.744 3.27597 14.016C3.27597 9.81602 6.27597 6.28802 10.26 5.49602V4.63202C5.81997 5.44802 2.43597 9.33602 2.43597 14.016C2.43597 16.08 3.13197 18.048 4.25997 19.584ZM11.58 14.016C11.58 14.256 11.748 14.424 11.988 14.424C12.228 14.424 12.42 14.256 12.42 14.016V4.41602H11.58V14.016Z" fill="black"/>
</svg>
