<svg width="24" height="24" viewBox="0 0 24 24" fill="none" xmlns="http://www.w3.org/2000/svg">
<path d="M4.27224 19.572H19.7522C20.8562 18.036 21.5522 16.068 21.5522 14.004C21.5522 8.72398 17.2802 4.42798 12.0002 4.42798C10.0082 4.42798 8.13624 5.07598 6.57624 6.13198L7.20024 6.73198C8.56824 5.81998 10.2242 5.26798 12.0002 5.26798C16.8242 5.26798 20.7122 9.17998 20.7122 14.004C20.7122 15.732 20.1842 17.364 19.2962 18.732H4.70424C3.81624 17.364 3.28824 15.732 3.28824 14.004C3.28824 12.228 3.81624 10.572 4.75224 9.20398L4.12824 8.57998C3.07224 10.14 2.44824 11.988 2.44824 14.004C2.44824 16.068 3.14424 18.036 4.27224 19.572ZM4.92024 7.52398L11.7122 14.292C11.7842 14.388 11.8802 14.412 12.0002 14.412C12.2402 14.412 12.4322 14.244 12.4322 14.004C12.4322 13.884 12.3842 13.788 12.2882 13.716L5.52024 6.92398L4.92024 7.52398Z" fill="black"/>
</svg>
