<svg width="24" height="24" viewBox="0 0 24 24" fill="none" xmlns="http://www.w3.org/2000/svg">
<path d="M11.976 16.68C13.848 16.68 15.216 15.576 15.216 14.016C15.216 13.008 14.64 12.192 13.464 11.88V11.76C14.568 11.448 14.952 10.704 14.952 9.888C14.952 8.424 13.68 7.32 12 7.32C10.2 7.32 8.95201 8.568 8.95201 10.128V10.296H9.79201C9.79201 8.88 10.536 8.088 12 8.088C13.368 8.088 14.112 8.76 14.112 9.936C14.112 10.896 13.752 11.472 11.904 11.472H11.208V12.24H11.904C13.752 12.24 14.376 12.864 14.376 13.992C14.376 15.216 13.536 15.888 11.976 15.888C10.344 15.888 9.64801 15.12 9.64801 13.56H8.80801V13.68C8.80801 15.408 10.008 16.68 11.976 16.68ZM5.76001 21H18.24V20.16H5.76001V21ZM5.76001 3.84H18.24V3H5.76001V3.84Z" fill="black"/>
</svg>
