<svg width="24" height="24" viewBox="0 0 24 24" fill="none" xmlns="http://www.w3.org/2000/svg">
<path d="M4.56023 21.504C5.08823 21.504 5.59223 21.312 6.02423 20.904L15.7442 11.208C16.1522 11.352 16.6322 11.424 17.0882 11.424C19.5602 11.424 21.6002 9.38399 21.6002 6.91199C21.6002 5.92799 21.2402 4.89599 20.5682 4.22399L17.6162 7.17599L16.8242 6.38399L19.7762 3.43199C19.1042 2.75999 18.0722 2.39999 17.0882 2.39999C14.6162 2.39999 12.5762 4.43999 12.5762 6.91199C12.5762 7.39199 12.6482 7.84799 12.7922 8.25599L3.12023 17.952C2.68823 18.384 2.49623 18.912 2.49623 19.416C2.49623 20.568 3.40823 21.504 4.56023 21.504ZM2.13623 6.33599L7.27223 11.472L7.82423 10.92L7.27223 10.368L8.80823 8.80799L8.37623 8.37599L6.81623 9.93599L5.23223 8.35199L6.79223 6.79199L6.36023 6.33599L4.80023 7.89599L3.24023 6.33599L6.33623 3.21599L10.8722 7.75199L10.9682 7.65599C10.9202 7.27199 10.9442 6.98399 10.9682 6.74399L6.33623 2.13599L2.13623 6.33599ZM3.31223 19.44C3.31223 19.104 3.40823 18.792 3.69623 18.528L13.7282 8.47199C13.5122 8.01599 13.3922 7.48799 13.3922 6.91199C13.3922 4.87199 15.0482 3.21599 17.0882 3.21599C17.6402 3.21599 18.1922 3.33599 18.6482 3.57599L15.8882 6.35999L17.6402 8.11199L20.4242 5.35199C20.6642 5.80799 20.7842 6.35999 20.7842 6.91199C20.7842 8.95199 19.1282 10.608 17.0882 10.608C16.5122 10.608 15.9842 10.488 15.5282 10.272L5.44823 20.328C5.18423 20.592 4.89623 20.712 4.56023 20.712C3.86423 20.712 3.31223 20.136 3.31223 19.44ZM12.5282 16.728L17.6642 21.864L21.8642 17.664L17.2562 13.032C17.0162 13.056 16.7282 13.08 16.3442 13.032L16.2482 13.128L20.7602 17.664L17.6642 20.76L16.1042 19.2L17.6642 17.664L17.2082 17.208L15.6482 18.768L14.0642 17.184L15.6242 15.624L15.1922 15.192L13.6322 16.728L13.0802 16.176L12.5282 16.728Z" fill="black"/>
</svg>
