<svg width="24" height="24" viewBox="0 0 24 24" fill="none" xmlns="http://www.w3.org/2000/svg">
<path d="M17.0161 12.288L21.3601 7.94398L17.0161 3.59998L16.4641 4.15198L18.1441 5.80798C18.6961 6.38398 19.2961 6.95998 19.8721 7.53598H3.60014V8.35198H19.8961C19.2961 8.92798 18.7201 9.50398 18.1441 10.08L16.4641 11.736L17.0161 12.288ZM2.64014 16.056L6.98414 20.4L7.53614 19.848L5.85614 18.168C5.30414 17.616 4.70414 17.016 4.12814 16.464H20.4001V15.648H4.12814C4.70414 15.072 5.30414 14.496 5.85614 13.92L7.53614 12.24L6.98414 11.712L2.64014 16.056Z" fill="black"/>
</svg>
