<svg width="24" height="24" viewBox="0 0 24 24" fill="none" xmlns="http://www.w3.org/2000/svg">
<path d="M7.37978 21.36H16.6198C17.6038 21.36 18.4198 20.544 18.4198 19.56V8.68801H17.5798V19.536C17.5798 20.136 17.1718 20.544 16.5718 20.544H7.40378C6.80378 20.544 6.41979 20.136 6.41979 19.536V8.68801H5.57978V19.56C5.57978 20.544 6.39579 21.36 7.37978 21.36ZM3.77979 6.96001H20.2198V6.16802H15.8278V4.17601C15.8278 3.31201 15.1558 2.64001 14.2918 2.64001H9.68378C8.81978 2.64001 8.14778 3.31201 8.14778 4.17601V6.16802H3.77979V6.96001ZM8.93979 6.16802V4.22401C8.93979 3.72001 9.22778 3.40801 9.73178 3.40801H14.2438C14.7478 3.40801 15.0598 3.72001 15.0598 4.22401V6.16802H8.93979ZM9.65978 17.52H10.4758V10.008H9.65978V17.52ZM13.4998 17.52H14.3158V10.008H13.4998V17.52Z" fill="black"/>
</svg>
