<svg width="24" height="24" viewBox="0 0 24 24" fill="none" xmlns="http://www.w3.org/2000/svg">
<path d="M10.1639 16.464H16.1639V15.696H11.0759V15.264L13.9319 13.224C15.5399 12.072 16.0919 11.208 16.0919 10.104C16.0919 8.304 14.6999 7.344 13.0679 7.344C11.1479 7.344 9.97187 8.688 9.97187 10.224V10.464H10.7879V10.224C10.7879 9.024 11.5079 8.112 13.0439 8.112H13.1159C14.3879 8.112 15.2519 8.76 15.2519 10.104C15.2519 10.992 14.8919 11.64 13.3079 12.768L10.1639 15V16.464ZM4.06787 12C4.06787 17.04 8.02787 21 13.0679 21H19.9319V20.16H13.0679C8.50787 20.16 4.90787 16.56 4.90787 12C4.90787 7.536 8.50787 3.84 13.0679 3.84H19.9319V3H13.0679C8.02787 3 4.06787 7.08 4.06787 12Z" fill="black"/>
</svg>
