<svg width="24" height="24" viewBox="0 0 24 24" fill="none" xmlns="http://www.w3.org/2000/svg">
<path d="M8.02787 16.464H14.0279V15.696H8.93987V15.264L11.8199 13.224C13.4039 12.096 13.9559 11.232 13.9559 10.104C13.9559 8.304 12.5639 7.344 10.9319 7.344C9.01187 7.344 7.83587 8.688 7.83587 10.224V10.464H8.65187V10.224C8.65187 9.024 9.37187 8.112 10.9079 8.112H10.9799C12.2519 8.112 13.1159 8.76 13.1159 10.104C13.1159 10.992 12.7559 11.616 11.1719 12.768L8.02787 15V16.464ZM4.06787 21H10.9319C15.9719 21 19.9319 16.896 19.9319 12C19.9319 6.96 15.9719 3 10.9319 3H4.06787V3.84H10.9319C15.5159 3.84 19.0919 7.416 19.0919 12C19.0919 16.44 15.5159 20.16 10.9319 20.16H4.06787V21Z" fill="black"/>
</svg>
