<svg width="24" height="24" viewBox="0 0 24 24" fill="none" xmlns="http://www.w3.org/2000/svg">
<path d="M9.09577 16.464H15.0958V15.696H10.0078V15.264L12.8878 13.224C14.4718 12.096 15.0238 11.232 15.0238 10.104C15.0238 8.304 13.6318 7.344 11.9998 7.344C10.0798 7.344 8.90377 8.688 8.90377 10.224V10.464H9.71977V10.224C9.71977 9.024 10.4398 8.112 11.9758 8.112H12.0478C13.3198 8.112 14.1838 8.76 14.1838 10.104C14.1838 10.992 13.8238 11.616 12.2398 12.768L9.09577 15V16.464ZM5.75977 21H18.2398V20.16H5.75977V21ZM5.75977 3.84H18.2398V3H5.75977V3.84Z" fill="black"/>
</svg>
