<svg width="24" height="24" viewBox="0 0 24 24" fill="none" xmlns="http://www.w3.org/2000/svg">
<path d="M8.184 9.09605L20.736 21.6481L21.312 21.0721L2.592 2.35205L2.016 2.92805L7.584 8.49605C6.792 9.45605 6.312 10.6801 6.312 12.0001V20.4001H7.152V12.0001C7.152 10.8721 7.512 9.88805 8.184 9.09605ZM10.512 6.74405L11.232 7.48805C11.376 7.46405 11.544 7.46405 11.688 7.46405H20.52C19.92 8.04005 19.344 8.61605 18.768 9.19205L17.088 10.8481L17.64 11.4001L21.984 7.05605L17.64 2.71205L17.088 3.26405L18.768 4.92005C19.32 5.49605 19.92 6.07205 20.496 6.64805H11.664C11.256 6.64805 10.872 6.67205 10.512 6.74405Z" fill="black"/>
</svg>
