<svg width="24" height="24" viewBox="0 0 24 24" fill="none" xmlns="http://www.w3.org/2000/svg">
<path d="M8.18411 9.09605L20.7361 21.6481L21.3121 21.0721L2.59211 2.35205L2.01611 2.92805L7.58411 8.49605C6.79211 9.45605 6.31211 10.6801 6.31211 12.0001V20.4001H7.15211V12.0001C7.15211 10.8721 7.51211 9.88805 8.18411 9.09605ZM10.5121 6.74405L11.2321 7.48805C11.3761 7.46405 11.5441 7.46405 11.6881 7.46405H20.5201C19.9201 8.04005 19.3441 8.61605 18.7681 9.19205L17.0881 10.8481L17.6401 11.4001L21.9841 7.05605L17.6401 2.71205L17.0881 3.26405L18.7681 4.92005C19.3201 5.49605 19.9201 6.07205 20.4961 6.64805H11.6641C11.2561 6.64805 10.8721 6.67205 10.5121 6.74405Z" fill="black"/>
</svg>
