<svg width="24" height="24" viewBox="0 0 24 24" fill="none" xmlns="http://www.w3.org/2000/svg">
<path d="M21.0721 21.6481L21.6481 21.0721L2.92805 2.35205L2.35205 2.92805L11.0161 11.6161L7.39205 11.5921L4.68005 8.88005L4.15205 9.40805L6.40805 11.5921H2.66405V12.3601L6.40805 12.3361L4.15205 14.5441L4.68005 15.0721L7.39205 12.3601L11.1601 12.3361L5.49605 17.9761L6.02405 18.5041L11.6641 12.8401L11.6401 16.6081L8.92805 19.3201L9.45605 19.8481L11.6641 17.5921L11.6401 21.3361H12.4081V17.5921L14.5921 19.8481L15.1201 19.3201L12.4081 16.6081L12.3841 12.9841L21.0721 21.6481ZM8.92805 4.63205L12.4081 8.11205V7.34405L15.1201 4.63205L14.5921 4.10405L12.4081 6.36005V2.61605H11.6401L11.6641 6.36005L9.45605 4.10405L8.92805 4.63205ZM13.8961 9.60005L14.4001 10.1041L18.5521 5.97605L18.0241 5.44805L13.8961 9.60005ZM15.8881 11.5921L19.3681 15.0721L19.8961 14.5441L17.6401 12.3361L21.3841 12.3601V11.5921H17.6401L19.8961 9.40805L19.3681 8.88005L16.6561 11.5921H15.8881Z" fill="black"/>
</svg>
