<svg width="24" height="24" viewBox="0 0 24 24" fill="none" xmlns="http://www.w3.org/2000/svg">
<path d="M11.988 22.3201C12.924 22.3201 13.692 21.5521 13.692 20.6161C13.692 19.8241 13.14 19.1521 12.42 18.9601V15.0241L16.764 13.6561C17.532 13.4161 18.012 12.7921 18.012 12.0241V8.25605H18.564V6.33605H16.62V8.25605H17.22V12.0241C17.22 12.4801 17.004 12.7681 16.5 12.9361L12.42 14.2081V4.22405H13.524L11.964 1.68005L10.428 4.22405H11.58V15.9841L7.64404 14.6641C7.16404 14.5201 6.94804 14.2321 6.94804 13.7521V9.98405C7.35604 9.84005 7.66804 9.43205 7.66804 8.95205C7.66804 8.35205 7.16404 7.84805 6.54004 7.84805C5.94004 7.84805 5.43604 8.35205 5.43604 8.95205C5.43604 9.43205 5.74804 9.84005 6.15604 9.98405V13.8001C6.15604 14.5681 6.63604 15.1681 7.38004 15.4081L11.58 16.8001V18.9601C10.836 19.1521 10.284 19.8241 10.284 20.6161C10.284 21.5521 11.052 22.3201 11.988 22.3201Z" fill="black"/>
</svg>
