<svg width="24" height="24" viewBox="0 0 24 24" fill="none" xmlns="http://www.w3.org/2000/svg">
<path d="M4.66803 19.1879V21.1799H19.332V19.1879C19.308 17.8919 18.924 16.7879 18.252 15.8999C17.268 14.6519 15.708 13.8599 14.004 13.8599H9.97203C8.26803 13.8599 6.70803 14.6519 5.74803 15.8999C5.05203 16.7879 4.66803 17.8919 4.66803 19.1879ZM5.53203 20.3639V18.8999C5.53203 16.4279 7.30803 14.7239 9.80403 14.7239H14.196C16.668 14.7239 18.444 16.4279 18.444 18.8999V20.3639H5.53203ZM7.59603 7.18795C7.59603 9.61195 9.56403 11.5559 11.988 11.5559C14.412 11.5559 16.38 9.61195 16.38 7.18795C16.38 4.76395 14.412 2.81995 11.988 2.81995C9.56403 2.81995 7.59603 4.76395 7.59603 7.18795ZM8.43603 7.18795C8.43603 5.21995 10.02 3.63595 11.988 3.63595C13.956 3.63595 15.54 5.21995 15.54 7.18795C15.54 9.15595 13.956 10.7399 11.988 10.7399C10.02 10.7399 8.43603 9.15595 8.43603 7.18795Z" fill="black"/>
</svg>
