<svg width="24" height="24" viewBox="0 0 24 24" fill="none" xmlns="http://www.w3.org/2000/svg">
<path d="M3.26416 19.1879V21.1799H17.9282V18.2039L17.0402 19.0679V20.3639H4.12816V18.8999C4.12816 16.4519 5.90416 14.7239 8.40016 14.7239H10.0082L9.14416 13.8599H8.49616C6.79216 13.8599 5.30416 14.6519 4.34416 15.8999C3.64816 16.7879 3.26416 17.8919 3.26416 19.1879ZM6.19216 7.18795C6.19216 9.61195 8.16016 11.5559 10.5842 11.5559C13.0082 11.5559 14.9762 9.61195 14.9762 7.18795C14.9762 4.76395 13.0082 2.81995 10.5842 2.81995C8.16016 2.81995 6.19216 4.76395 6.19216 7.18795ZM7.03216 7.18795C7.03216 5.21995 8.61616 3.63595 10.5842 3.63595C12.5522 3.63595 14.1362 5.21995 14.1362 7.18795C14.1362 9.15595 12.5522 10.7399 10.5842 10.7399C8.61616 10.7399 7.03216 9.15595 7.03216 7.18795ZM12.0722 14.0279L15.2402 17.2199L20.7362 11.6999L20.1602 11.1239L15.2402 16.0199L12.6482 13.4519L12.0722 14.0279Z" fill="black"/>
</svg>
