<svg width="24" height="24" viewBox="0 0 24 24" fill="none" xmlns="http://www.w3.org/2000/svg">
<path d="M7.5362 11.64V21.84H8.37619V11.64C10.2722 11.424 11.7122 9.81603 11.7122 7.92003V2.40003H10.9202V7.92003C10.9202 9.43203 9.84019 10.656 8.37619 10.848V2.40003H7.5362V10.848C6.0722 10.656 4.9922 9.43203 4.9922 7.92003V2.40003H4.2002V7.92003C4.2002 9.81603 5.6642 11.424 7.5362 11.64ZM14.2082 16.8H18.9602V21.84H19.8002V2.16003C16.7042 2.16003 14.2082 4.63203 14.2082 7.72803V16.8ZM15.0482 16.008V7.72803C15.0482 5.25603 16.6802 3.38403 18.9602 3.04803V16.008H15.0482Z" fill="black"/>
</svg>
