<svg width="24" height="24" viewBox="0 0 24 24" fill="none" xmlns="http://www.w3.org/2000/svg">
<path d="M7.53601 11.64V21.84H8.37601V11.64C10.272 11.424 11.712 9.81603 11.712 7.92003V2.40003H10.92V7.92003C10.92 9.43203 9.84001 10.656 8.37601 10.848V2.40003H7.53601V10.848C6.07201 10.656 4.99201 9.43203 4.99201 7.92003V2.40003H4.20001V7.92003C4.20001 9.81603 5.66401 11.424 7.53601 11.64ZM14.208 16.8H18.96V21.84H19.8V2.16003C16.704 2.16003 14.208 4.63203 14.208 7.72803V16.8ZM15.048 16.008V7.72803C15.048 5.25603 16.68 3.38403 18.96 3.04803V16.008H15.048Z" fill="black"/>
</svg>
