<svg width="24" height="24" viewBox="0 0 24 24" fill="none" xmlns="http://www.w3.org/2000/svg">
<path fill-rule="evenodd" clip-rule="evenodd" d="M3.48001 9.36233C3.99363 9.87584 4.63768 10.2289 5.33431 10.3893H2.01953V21.1875H17.9119V17.2482L21.9803 20.6308V10.2183L17.9119 13.8456V10.3893H14.5979C15.2947 10.2289 15.9389 9.87569 16.4526 9.36203C17.172 8.64263 17.5766 7.66724 17.5778 6.64986C17.5766 5.63248 17.172 4.65709 16.4526 3.93769C15.7332 3.21829 14.7578 2.81364 13.7404 2.8125C12.723 2.81364 11.7476 3.21829 11.0282 3.93769C10.4757 4.49023 10.1088 5.19377 9.96786 5.95137C9.8268 5.19335 9.45959 4.48944 8.90656 3.93678C8.1866 3.21731 7.21054 2.81295 6.19272 2.8125C5.17518 2.81341 4.19959 3.21796 3.48001 3.93739C2.76042 4.65681 2.35566 5.63233 2.35452 6.64986C2.35566 7.66739 2.76042 8.64291 3.48001 9.36233ZM12.8829 10.3893H7.05284C7.74919 10.229 8.39302 9.87613 8.90656 9.36294C9.45959 8.81027 9.8268 8.10637 9.96786 7.34835C10.1088 8.10595 10.4757 8.80949 11.0282 9.36203C11.5419 9.87569 12.1861 10.2289 12.8829 10.3893ZM4.08721 4.54458C4.64574 3.98621 5.40295 3.67223 6.19272 3.67155C6.98278 3.67177 7.74049 3.98555 8.29939 4.54397C8.85829 5.10239 9.17271 5.85979 9.17362 6.64986C9.17271 7.43992 8.85829 8.19733 8.29939 8.75575C7.74049 9.31417 6.98278 9.62794 6.19272 9.62817C5.40295 9.62749 4.64574 9.31351 4.08721 8.75514C3.52868 8.19677 3.21448 7.43963 3.21357 6.64986C3.21448 5.86009 3.52868 5.10295 4.08721 4.54458ZM11.6354 4.54488C12.1937 3.98653 12.9508 3.67246 13.7404 3.67155C14.53 3.67246 15.287 3.98653 15.8454 4.54488C16.4037 5.10322 16.7178 5.86024 16.7187 6.64986C16.7178 7.43948 16.4037 8.1965 15.8454 8.75484C15.287 9.31319 14.53 9.62726 13.7404 9.62817C12.9508 9.62726 12.1937 9.31319 11.6354 8.75484C11.0771 8.1965 10.763 7.43948 10.7621 6.64986C10.763 5.86024 11.0771 5.10322 11.6354 4.54488ZM2.87858 20.3285H17.0528V11.2484H2.87858V20.3285ZM21.1213 18.7993L17.9119 16.1311V14.9963L21.1213 12.1348V18.7993Z" fill="black"/>
</svg>
