<svg width="24" height="24" viewBox="0 0 24 24" fill="none" xmlns="http://www.w3.org/2000/svg">
<path d="M12.1798 19.3801H21.1798V6.54005H6.53982V7.35605H20.3398V18.564H12.1798V19.3801ZM2.81982 17.0281H6.49182V20.7001H7.30782V17.0281H10.9798V16.212H7.30782V12.54H6.49182V16.212H2.81982V17.0281ZM3.17982 11.7H3.99582V5.22005C3.99582 4.50005 4.37982 4.11605 5.09982 4.11605H19.1638C18.8998 3.61205 18.3478 3.30005 17.6998 3.30005H5.09982C3.99582 3.30005 3.17982 4.11605 3.17982 5.22005V11.7ZM15.5638 13.068C15.5638 13.5721 15.9718 14.028 16.5238 14.028C17.0278 14.028 17.4358 13.5721 17.4358 13.068C17.4358 12.564 17.0278 12.132 16.5238 12.132C15.9718 12.132 15.5638 12.564 15.5638 13.068Z" fill="black"/>
</svg>
