<svg width="24" height="24" viewBox="0 0 24 24" fill="none" xmlns="http://www.w3.org/2000/svg">
<path d="M12.18 19.3801H21.18V6.54005H6.54001V7.35605H20.34V18.5641H12.18V19.3801ZM2.82001 17.0281H6.49201V20.7001H7.30801V17.0281H10.98V16.212H7.30801V12.54H6.49201V16.212H2.82001V17.0281ZM3.18001 11.7H3.99601V5.22005C3.99601 4.50005 4.38001 4.11605 5.10001 4.11605H19.164C18.9 3.61205 18.348 3.30005 17.7 3.30005H5.10001C3.99601 3.30005 3.18001 4.11605 3.18001 5.22005V11.7ZM15.564 13.068C15.564 13.572 15.972 14.028 16.524 14.028C17.028 14.028 17.436 13.572 17.436 13.068C17.436 12.564 17.028 12.132 16.524 12.132C15.972 12.132 15.564 12.564 15.564 13.068Z" fill="black"/>
</svg>
