<svg width="24" height="24" viewBox="0 0 24 24" fill="none" xmlns="http://www.w3.org/2000/svg">
<path d="M19.68 21.084L20.256 20.508L2.66401 2.91602L2.08801 3.49202L5.49601 6.90002C4.24801 7.54802 3.09601 8.36402 2.08801 9.32402L2.71201 9.94802C3.72001 8.98802 4.87201 8.17202 6.14401 7.54802L9.07201 10.476C7.58401 10.908 6.26401 11.652 5.13601 12.636L5.71201 13.284C6.91201 12.252 8.25601 11.532 9.79201 11.196L13.392 14.796C12.936 14.676 12.48 14.628 12 14.628C10.536 14.628 9.21601 15.156 8.18401 16.044L8.76001 16.668C9.62401 15.948 10.728 15.492 12 15.492C13.008 15.492 13.92 15.78 14.688 16.26L14.76 16.164L19.68 21.084ZM8.85601 5.67602L9.60001 6.42002C10.368 6.27602 11.184 6.20402 12 6.20402C15.744 6.20402 18.912 7.64402 21.312 9.94802L21.912 9.32402C19.392 6.90002 15.96 5.34002 12 5.34002C10.92 5.34002 9.86401 5.43602 8.85601 5.67602ZM10.752 18.876L12 20.244L13.248 18.876C12.936 18.588 12.504 18.42 12 18.42C11.496 18.42 11.064 18.588 10.752 18.876ZM13.32 10.14L14.496 11.316C15.912 11.652 17.184 12.348 18.288 13.308L18.864 12.636C17.328 11.316 15.456 10.428 13.32 10.14Z" fill="black"/>
</svg>
