<svg width="24" height="24" viewBox="0 0 24 24" fill="none" xmlns="http://www.w3.org/2000/svg">
<path d="M13.068 16.704C15.348 16.704 16.524 14.856 16.524 12.024C16.524 9.192 15.372 7.344 13.068 7.344C10.788 7.344 9.61199 9.192 9.61199 12.024C9.61199 14.856 10.788 16.704 13.068 16.704ZM4.06799 12C4.06799 17.04 8.02799 21 13.068 21H19.932V20.16H13.068C8.50799 20.16 4.90799 16.56 4.90799 12C4.90799 7.536 8.50799 3.84 13.068 3.84H19.932V3H13.068C8.02799 3 4.06799 7.08 4.06799 12ZM10.452 12.336V11.736C10.452 9.288 11.292 8.112 13.068 8.112C14.028 8.112 14.724 8.448 15.132 9.144L10.692 14.184C10.524 13.68 10.452 13.056 10.452 12.336ZM10.98 14.856L15.444 9.792C15.612 10.32 15.684 10.968 15.684 11.736V12.336C15.684 14.76 14.844 15.96 13.068 15.96C12.084 15.96 11.388 15.6 10.98 14.856Z" fill="black"/>
</svg>
