<svg width="24" height="24" viewBox="0 0 24 24" fill="none" xmlns="http://www.w3.org/2000/svg">
<path d="M11.9998 16.704C14.2798 16.704 15.4558 14.856 15.4558 12.024C15.4558 9.192 14.3038 7.344 11.9998 7.344C9.71977 7.344 8.54377 9.192 8.54377 12.024C8.54377 14.856 9.71977 16.704 11.9998 16.704ZM5.75977 21H18.2398V20.16H5.75977V21ZM5.75977 3.84H18.2398V3H5.75977V3.84ZM9.38377 12.336V11.736C9.38377 9.288 10.2238 8.112 11.9998 8.112C12.9598 8.112 13.6558 8.448 14.0638 9.144L9.62377 14.184C9.45577 13.68 9.38377 13.056 9.38377 12.336ZM9.91177 14.88L14.3758 9.816C14.5438 10.344 14.6158 10.968 14.6158 11.736V12.336C14.6158 14.76 13.7758 15.96 11.9998 15.96C11.0158 15.96 10.3438 15.6 9.91177 14.88Z" fill="black"/>
</svg>
