<svg width="24" height="24" viewBox="0 0 24 24" fill="none" xmlns="http://www.w3.org/2000/svg">
<g clip-path="url(#clip0_1125_16596)">
<path d="M24.0008 11.9468C24.0113 14.3201 23.3177 16.6432 22.0079 18.6224C20.698 20.6016 18.8307 22.1479 16.642 23.0659C14.4534 23.9838 12.0416 24.2321 9.71186 23.7794C7.38208 23.3266 5.23886 22.1932 3.55324 20.5224C1.86762 18.8516 0.715301 16.7185 0.241996 14.3928C-0.23131 12.0672 -0.00434238 9.65334 0.894198 7.45663C1.79274 5.25993 3.32249 3.379 5.29002 2.05169C7.25755 0.724394 9.57448 0.0103362 11.9478 -0.00018308C13.5237 -0.00716772 15.0855 0.29631 16.5441 0.892923C18.0026 1.48954 19.3294 2.3676 20.4487 3.47698C21.5679 4.58635 22.4576 5.90532 23.0671 7.35857C23.6766 8.81182 23.9939 10.3709 24.0008 11.9468Z" fill="#8DC63F"/>
<path d="M23.1007 11.9514C23.1115 14.1466 22.471 16.2957 21.2604 18.1269C20.0497 19.9581 18.3232 21.3891 16.2991 22.2389C14.2751 23.0888 12.0445 23.3193 9.88949 22.9014C7.73444 22.4834 5.75174 21.4358 4.19216 19.8909C2.63258 18.3461 1.56617 16.3734 1.12781 14.2224C0.689446 12.0714 0.898823 9.83873 1.72946 7.80674C2.56009 5.77475 3.97467 4.03473 5.79429 2.80675C7.6139 1.57877 9.75681 0.917989 11.952 0.907981C14.8946 0.895028 17.7218 2.05101 19.8124 4.12185C21.903 6.19268 23.0857 9.00889 23.1007 11.9514Z" fill="#F9E988"/>
<path d="M12.205 1.62267C12.9105 1.49744 13.6325 1.49744 14.338 1.62266C15.0503 1.73559 15.7388 1.96628 16.3754 2.30527C17.0084 2.65309 17.5554 3.12526 18.0997 3.56787C18.6441 4.01048 19.1858 4.46352 19.7015 4.95917C20.2279 5.44706 20.6873 6.00263 21.0676 6.61134C21.459 7.21528 21.78 7.86211 22.0241 8.53917C22.4876 9.90091 22.6484 11.3679 22.4171 12.767L22.3484 12.767C22.1163 11.38 21.8015 10.0583 21.305 8.80091C21.0719 8.16887 20.7977 7.55277 20.4841 6.95656C20.157 6.35703 19.7965 5.7764 19.4041 5.21743C19.0052 4.65438 18.5163 4.16083 17.9571 3.75657C17.3937 3.35483 16.7458 3.09483 16.1189 2.84787C15.4919 2.60092 14.8702 2.34788 14.2163 2.16005C13.5624 1.97223 12.898 1.83136 12.2041 1.69484L12.205 1.62267Z" fill="white"/>
<path d="M17.6301 8.03394C16.8249 7.8009 15.9901 7.47047 15.1449 7.13656C15.0962 6.92438 14.9084 6.66004 14.5284 6.33743C13.9762 5.8583 12.9388 5.87047 12.0423 6.08265C11.0527 5.84961 10.0753 5.767 9.13707 5.9957C1.46315 8.10963 5.81445 13.267 2.99704 18.4514C3.39791 19.3018 7.71877 24.2635 13.9709 22.9322C13.9709 22.9322 11.8327 17.794 16.6579 15.3279C20.5718 13.32 23.3997 9.60523 17.6301 8.03394Z" fill="#8BC53F"/>
<path d="M18.5779 11.4087C18.5784 11.5007 18.5516 11.5908 18.5009 11.6676C18.4502 11.7444 18.3779 11.8044 18.2931 11.8401C18.2083 11.8758 18.1148 11.8855 18.0245 11.8681C17.9341 11.8506 17.851 11.8068 17.7856 11.7421C17.7201 11.6774 17.6754 11.5947 17.6569 11.5046C17.6385 11.4145 17.6471 11.3209 17.6819 11.2357C17.7166 11.1505 17.7758 11.0775 17.852 11.0259C17.9283 10.9744 18.0181 10.9466 18.1101 10.9461C18.2334 10.9456 18.3519 10.994 18.4395 11.0807C18.5272 11.1675 18.577 11.2854 18.5779 11.4087Z" fill="white"/>
<path d="M12.0425 6.07926C12.6016 6.11926 14.6234 6.77491 15.1451 7.13317C14.7103 5.8723 13.2468 5.70447 12.0425 6.07926Z" fill="#009345"/>
<path d="M12.5744 9.26789C12.5746 9.69234 12.4489 10.1073 12.2132 10.4603C11.9775 10.8134 11.6425 11.0886 11.2504 11.2512C10.8583 11.4137 10.4268 11.4564 10.0105 11.3738C9.59414 11.2911 9.21167 11.0869 8.91141 10.7869C8.61115 10.4869 8.4066 10.1046 8.32363 9.6883C8.24065 9.27203 8.28298 8.84051 8.44525 8.4483C8.60753 8.05609 8.88246 7.7208 9.23529 7.48484C9.58812 7.24888 10.003 7.12285 10.4274 7.12268C10.9963 7.12267 11.5419 7.34854 11.9443 7.75063C12.3468 8.15272 12.5731 8.69814 12.5735 9.26702L12.5744 9.26789Z" fill="white"/>
<path d="M11.9381 9.2869C11.9381 9.58547 11.8495 9.87732 11.6837 10.1256C11.5178 10.3738 11.282 10.5673 11.0062 10.6816C10.7304 10.7958 10.4268 10.8257 10.134 10.7675C9.84118 10.7092 9.5722 10.5654 9.36108 10.3543C9.14997 10.1432 9.00619 9.87424 8.94795 9.58141C8.8897 9.28858 8.9196 8.98506 9.03385 8.70922C9.14811 8.43339 9.34159 8.19762 9.58984 8.03175C9.83809 7.86588 10.1299 7.77734 10.4285 7.77734C10.8289 7.77734 11.2128 7.93638 11.4959 8.21948C11.779 8.50258 11.9381 8.88654 11.9381 9.2869Z" fill="#58595B"/>
<path d="M20.3167 12.3548C18.5776 13.5801 16.6002 14.5096 13.795 14.5096C12.4819 14.5096 12.2158 13.1183 11.348 13.7983C10.9002 14.1514 9.32103 14.941 8.06799 14.881C6.81495 14.821 4.78364 14.0871 4.21756 11.4114C3.99321 14.0871 3.87842 16.0566 2.87059 18.3149C4.87058 21.5175 9.63928 23.9879 13.968 22.9236C13.5062 19.6757 16.3489 16.4949 17.9436 14.8696C18.5523 14.2531 19.7089 13.247 20.3167 12.3557L20.3167 12.3548Z" fill="#8BC53F"/>
<path d="M20.2488 12.4347C19.7088 12.9269 19.0662 13.2912 18.4123 13.6129C17.7503 13.9269 17.0603 14.1782 16.3514 14.3634C15.6419 14.5469 14.9019 14.6851 14.1523 14.6173C13.4027 14.5495 12.6367 14.2947 12.1401 13.733L12.1636 13.706C12.7723 14.1008 13.4749 14.2399 14.174 14.2599C14.8827 14.2817 15.5915 14.2233 16.2871 14.086C16.9897 13.9387 17.677 13.7262 18.3401 13.4512C19.0036 13.1773 19.6601 12.8599 20.2254 12.4077L20.2488 12.4347Z" fill="#58595B"/>
</g>
<defs>
<clipPath id="clip0_1125_16596">
<rect width="24" height="24" fill="white" transform="matrix(1 -2.19164e-06 -2.19164e-06 1 0.000488281 6.10352e-05)"/>
</clipPath>
</defs>
</svg>
