<svg width="24" height="24" viewBox="0 0 24 24" fill="none" xmlns="http://www.w3.org/2000/svg">
<g clip-path="url(#clip0_1562_20032)">
<path fill-rule="evenodd" clip-rule="evenodd" d="M23.0697 14.2482C23.6649 13.6514 23.9991 12.8429 23.9991 12C23.9991 11.1571 23.6649 10.3486 23.0697 9.75184L14.2533 0.935516C13.6565 0.340316 12.848 0.006073 12.0052 0.006073C11.1623 0.006073 10.3538 0.340316 9.757 0.935516L0.940678 9.75184C0.345477 10.3486 0.0112305 11.1571 0.0112305 12C0.0112305 12.8429 0.345477 13.6514 0.940678 14.2482L9.757 23.0645C10.3538 23.6597 11.1623 23.9939 12.0052 23.9939C12.848 23.9939 13.6565 23.6597 14.2533 23.0645L23.0697 14.2482ZM11.9929 15.049C12.5156 15.0492 13.0296 14.9153 13.4858 14.6602C13.942 14.4051 14.3251 14.0373 14.5986 13.5918C14.6201 13.5537 14.6514 13.5219 14.6893 13.5C14.7272 13.478 14.7703 13.4666 14.8141 13.4669H17.8705C17.9065 13.4682 17.9417 13.4774 17.9738 13.4939C18.0058 13.5104 18.0338 13.5337 18.0558 13.5622C18.0778 13.5908 18.0932 13.6238 18.101 13.659C18.1087 13.6941 18.1086 13.7306 18.1007 13.7657C17.6749 15.2396 16.7314 16.5102 15.4435 17.3439C14.1557 18.1776 12.6101 18.5183 11.0911 18.3033C9.57212 18.0883 8.18181 17.3321 7.17588 16.1738C6.16996 15.0155 5.61606 13.5329 5.61606 11.9988C5.61606 10.4646 6.16996 8.98208 7.17588 7.82376C8.18181 6.66544 9.57212 5.90925 11.0911 5.69426C12.6101 5.47928 14.1557 5.81996 15.4435 6.65364C16.7314 7.48732 17.6749 8.75796 18.1007 10.2318C18.1089 10.2682 18.1087 10.3059 18.1001 10.3422C18.0915 10.3784 18.0748 10.4122 18.0512 10.441C18.0276 10.4699 17.9977 10.4929 17.9638 10.5084C17.93 10.5239 17.893 10.5315 17.8558 10.5306H14.8239C14.78 10.53 14.737 10.5181 14.6988 10.4963C14.6607 10.4744 14.6288 10.4433 14.606 10.4057C14.3279 9.95032 13.9354 9.57561 13.4677 9.31879C12.9999 9.06197 12.4731 8.93199 11.9396 8.94175C11.4061 8.95151 10.8844 9.10067 10.4263 9.37443C9.96829 9.64819 9.58983 10.037 9.32855 10.5023C9.06726 10.9675 8.93224 11.4931 8.93689 12.0267C8.94154 12.5603 9.08571 13.0834 9.35506 13.544C9.62442 14.0047 10.0096 14.3868 10.4723 14.6525C10.9351 14.9183 11.4593 15.0583 11.9929 15.0588V15.049Z" fill="white"/>
</g>
<defs>
<clipPath id="clip0_1562_20032">
<rect width="24" height="24" fill="white" transform="translate(0.000488281)"/>
</clipPath>
</defs>
</svg>
