<svg width="24" height="24" viewBox="0 0 24 24" fill="none" xmlns="http://www.w3.org/2000/svg">
<path fill-rule="evenodd" clip-rule="evenodd" d="M3.47474 18.7008C2.8705 18.3352 2.50068 17.6859 2.50067 16.9867L2.50063 13.0829C2.50062 12.6194 2.88256 12.2439 3.3514 12.2459C3.50094 12.2459 3.64846 12.2858 3.7778 12.3597L12.6878 17.4962C13.2091 17.7959 13.5305 18.3473 13.5305 18.9447L13.5305 22.9883C13.5325 23.5437 13.0779 23.9952 12.5161 23.9952C12.3281 23.9952 12.1422 23.9432 11.9826 23.8473L3.47474 18.7008ZM16.7557 11.291C17.277 11.5907 17.5963 12.1441 17.5984 12.7395L17.5985 20.9465C17.5985 21.1883 17.4671 21.412 17.2529 21.5299L15.3028 22.6147C15.2785 22.6287 15.2523 22.6387 15.224 22.6467L15.2239 18.0896C15.2239 17.5003 14.9107 16.9529 14.3974 16.6492L6.57262 12.0221L6.57257 6.87774C6.57256 6.41425 6.9545 6.03866 7.42334 6.04066C7.57288 6.04066 7.7204 6.08062 7.84974 6.15454L16.7557 11.291ZM20.6558 5.22969C21.1792 5.52937 21.5006 6.08277 21.5006 6.68012L21.5007 18.6671C21.4987 18.9128 21.3613 19.1385 21.143 19.2564L19.2939 20.2433L19.2939 11.8984C19.2938 11.3091 18.9806 10.7636 18.4714 10.46L10.4728 5.71705L10.4727 0.838365C10.4727 0.690526 10.5132 0.544686 10.5859 0.416826C10.8223 0.0172636 11.3417 -0.118583 11.7459 0.113169L20.6558 5.22969Z" fill="white"/>
</svg>
