<svg width="25" height="24" viewBox="0 0 25 24" fill="none" xmlns="http://www.w3.org/2000/svg">
<path d="M12.4591 6.70333C12.5973 6.56252 12.7876 6.4765 12.9988 6.4765C13.21 6.4765 13.3977 6.55993 13.5333 6.69809L16.8863 10.0511C17.1574 10.3222 17.5981 10.3222 17.8692 10.0511L20.5365 7.38383C20.8077 7.11266 20.8077 6.67204 20.5365 6.40087L14.9491 0.805643C13.8749 -0.268548 12.1306 -0.268548 11.0564 0.805643L5.46119 6.40087C5.19002 6.67204 5.19002 7.11266 5.46119 7.38383L8.12845 10.0511C8.39961 10.3222 8.84024 10.3222 9.11137 10.0511L12.4591 6.70333Z" fill="#FF6521"/>
<path d="M24.1944 10.0536L22.982 8.84126C22.7108 8.57009 22.2702 8.57009 21.9991 8.84126L13.5332 17.3071C13.3976 17.4427 13.2073 17.5287 12.9987 17.5287C12.7901 17.5287 12.6024 17.4453 12.4642 17.3097L4.00098 8.84126C3.72981 8.57009 3.28919 8.57009 3.01802 8.84126L1.80564 10.0536C0.731452 11.1278 0.731452 12.8721 1.80564 13.9463L11.0537 23.1943C12.1279 24.2685 13.8722 24.2685 14.9464 23.1943L24.1944 13.9463C25.2686 12.8721 25.2686 11.1278 24.1944 10.0536Z" fill="#202020"/>
</svg>
