<svg width="24" height="24" viewBox="0 0 24 24" fill="none" xmlns="http://www.w3.org/2000/svg">
<g clip-path="url(#clip0_6940_23580)">
<path d="M11.0266 16.2222C11.561 19.5889 11.8605 22.5433 11.6738 24H10.5938L10.4544 23.8894C8.68216 22.5439 8.25327 19.725 8.05327 16.8806C7.88827 14.1889 7.18105 4.38111 7.17382 4.28333C7.14827 3.90944 6.88938 3.18944 6.08993 3.13944H6.08216H6.07438C4.8766 3.19944 4.67882 4.96278 4.66605 5.09333C3.46493 12.3578 3.68549 15.2833 5.78882 20.0011C6.73938 22.1339 6.87994 23.5056 6.89549 24H5.82605C5.76938 23.6183 5.52327 22.2644 4.63771 20.1667C3.58216 17.6667 2.63771 15.2778 3.13771 8.61111C3.63771 1.94444 5.85993 2.16667 6.13771 2.16667C6.41549 2.16667 8.03382 1.98 8.58216 5.77778C9.30438 10.7778 10.471 12.7222 11.0266 16.2222ZM7.77716 16.8989C7.61216 14.2072 6.90493 4.40111 6.89771 4.30278C6.89549 4.26833 6.82827 3.46944 6.0816 3.41722C5.11105 3.47444 4.94438 5.10778 4.94271 5.12444L4.9416 5.13389C4.29938 9.01833 4.10438 11.4589 4.26938 13.5589C4.42882 15.5872 4.94271 17.4206 6.04271 19.8883C7.01605 22.0722 7.15827 23.4883 7.17382 23.9961V24.0006H10.1494C8.40493 22.5522 7.97605 19.7367 7.77716 16.8994V16.8989ZM19.4299 20.1867C18.5372 22.2594 18.2783 23.6056 18.216 24.0006H12.531C12.3566 22.5306 12.6249 19.5411 13.181 16.1961C13.7622 12.7 14.8316 10.7644 15.5899 5.76944C16.166 1.97611 17.7827 2.17389 18.0605 2.17611C18.3383 2.17833 20.5622 1.97222 21.0138 8.64222C21.4655 15.3122 20.5038 17.6944 19.4305 20.1867H19.4299ZM19.5222 5.07278C19.5049 4.94278 19.2516 3.18611 18.0527 3.16389H18.0449L18.0372 3.16444C17.2399 3.23944 17.0033 3.96722 16.9899 4.33667C16.9827 4.43556 16.2544 14.2628 16.1744 16.9594C16.1099 18.6339 15.8694 20.06 15.4599 21.1978C15.0127 22.4406 14.3477 23.3828 13.4844 24.0006H13.9388C14.7072 23.3556 15.306 22.4467 15.7216 21.2922C16.1405 20.1272 16.3866 18.6733 16.4522 16.9694C16.5322 14.2778 17.2599 4.45667 17.2672 4.35278C17.2688 4.31833 17.3105 3.51778 18.0555 3.44222C19.0277 3.46889 19.2455 5.09611 19.2472 5.11278L19.2488 5.12222C19.9199 8.51056 20.111 11.3706 19.8349 13.8656C19.5622 16.3272 18.8733 18.2217 18.1694 19.9028C17.2533 22.0911 17.021 23.4989 16.9638 24.0011H17.2449C17.3083 23.4922 17.5488 22.1044 18.426 20.01C19.1038 18.3917 19.8338 16.3994 20.111 13.8961C20.3905 11.3739 20.1983 8.48778 19.5227 5.07278H19.5222ZM11.8877 0C11.8877 1.18111 10.9299 2.13889 9.74882 2.13889V2.47222C10.9299 2.47222 11.8877 3.43 11.8877 4.61111H12.221C12.221 3.43 13.1788 2.47222 14.3599 2.47222V2.13889C13.1788 2.13889 12.221 1.18111 12.221 0H11.8877Z" fill="white"/>
</g>
<defs>
<clipPath id="clip0_6940_23580">
<rect width="24" height="24" fill="white"/>
</clipPath>
</defs>
</svg>
