<svg width="24" height="24" viewBox="0 0 24 24" fill="none" xmlns="http://www.w3.org/2000/svg">
<g clip-path="url(#clip0_1125_16621)">
<path fill-rule="evenodd" clip-rule="evenodd" d="M4.33229 3.75C3.95449 1.8 5.46569 -3.66866e-06 7.43024 -4.99346e-06C9.16811 -6.16539e-06 10.6037 1.42499 10.6037 3.14999L10.6037 7.04999C11.0571 7.04999 11.5105 6.97499 11.9638 6.97499C12.4172 6.97499 12.795 6.97499 13.2483 7.04999L13.2483 3.14999C13.2483 1.42499 14.684 -9.88501e-06 16.4218 -1.10569e-05C18.3864 -1.23817e-05 19.8976 1.79999 19.5953 3.74999L18.7642 8.32499C21.711 9.59999 23.9778 11.85 23.9778 14.625L23.9778 16.35C23.9778 18.675 22.4666 20.625 20.2754 21.9C18.0841 23.25 15.2129 24 11.9638 24C8.71474 24 5.84347 23.25 3.65224 21.9C1.53657 20.625 0.025378 18.675 0.0253796 16.35L0.0253808 14.625C0.0253826 11.85 2.21662 9.6 5.16344 8.325L4.33229 3.75ZM17.6308 8.92499L18.6131 3.52499C18.8398 2.17499 17.8575 0.899988 16.4218 0.899989C15.2129 0.89999 14.2306 1.87499 14.2306 3.07499L14.2306 8.02499C13.9284 7.94999 13.5506 7.94999 13.2483 7.94999C12.795 7.94999 12.4172 7.87499 11.9638 7.87499C11.5105 7.87499 11.0571 7.87499 10.6037 7.94999C10.3015 7.94999 9.9237 8.02499 9.62147 8.02499L9.62147 3.14999C9.62147 1.94999 8.63919 0.974994 7.43024 0.974995C6.07017 0.974996 5.01233 2.25 5.31457 3.6L6.29684 9C3.12333 10.2 1.00766 12.3 1.00766 14.7L1.00766 16.425C1.00765 20.1 5.91903 23.1 11.9638 23.1C18.0086 23.1 22.92 20.1 22.92 16.425L22.92 14.7C22.9955 12.225 20.8799 10.125 17.6308 8.92499Z" fill="#633001"/>
<path d="M22.9943 16.35C22.9943 20.025 18.083 23.025 12.0382 23.025C5.99341 23.025 1.08203 20.025 1.08203 16.35L1.08203 14.625L23.0699 14.625L23.0699 16.35L22.9943 16.35Z" fill="#FEDC90"/>
<path fill-rule="evenodd" clip-rule="evenodd" d="M5.31337 3.60003C5.01114 2.25003 6.06897 0.975033 7.42905 0.975032C8.638 0.975032 9.62028 1.95003 9.62028 3.15003L9.62027 8.10003C10.3759 8.02503 11.1315 7.95003 11.9626 7.95003C12.7182 7.95003 13.4738 8.02503 14.2294 8.10003L14.2294 3.15003C14.2294 1.95003 15.2117 0.975027 16.4207 0.975026C17.7807 0.975025 18.8386 2.25002 18.6119 3.60002L17.6296 9.00002C20.8031 10.2 22.9943 12.3 22.9943 14.7C22.9943 18.375 18.083 21.375 12.0382 21.375C5.9934 21.375 1.08202 18.375 1.08202 14.7C1.08202 12.3 3.1977 10.2 6.37121 9.00003L5.31337 3.60003Z" fill="#D1884F"/>
<path d="M8.94037 14.175C8.94037 15.15 8.41145 15.975 7.73141 15.975C7.05138 15.975 6.52246 15.15 6.52246 14.175C6.52246 13.2 7.05138 12.375 7.73142 12.375C8.41145 12.375 8.94037 13.2 8.94037 14.175Z" fill="#633001"/>
<path d="M17.3276 14.175C17.3276 15.15 16.7986 15.975 16.1186 15.975C15.4386 15.975 14.9097 15.15 14.9097 14.175C14.9097 13.2 15.4386 12.375 16.1186 12.375C16.7987 12.375 17.3276 13.2 17.3276 14.175Z" fill="#633001"/>
</g>
<defs>
<clipPath id="clip0_1125_16621">
<rect width="24" height="24" fill="white" transform="matrix(1 -6.7435e-07 -6.7435e-07 1 0.000488281 0)"/>
</clipPath>
</defs>
</svg>
