<svg width="24" height="24" viewBox="0 0 24 24" fill="none" xmlns="http://www.w3.org/2000/svg">
<path d="M10.7797 4.35768L13.6101 2.15933L7.258 3.56419L10.7797 4.35768ZM12.971 4.85198L14.0405 2.67965L11.6406 4.5528L12.971 4.85198ZM14.6666 5.22922V2.97883L13.6753 5.00808L14.6666 5.22922ZM16.6883 5.67149L15.3579 2.97883V5.38531L16.6883 5.67149ZM9.01885 5.72352L10.0884 4.89101L7.10148 4.2276L9.01885 5.72352ZM21.0839 6.6601L15.984 2.67965L17.5492 5.86661L21.0839 6.6601ZM7.66234 6.79018L8.45798 6.16579L6.658 4.76093L7.66234 6.79018ZM11.5623 7.71375L12.671 5.47637L10.9493 5.09914L9.57971 6.16579L11.5623 7.71375ZM18.5405 7.85683L20.9274 7.32351L17.9405 6.6601L18.5405 7.85683ZM6.03192 8.05195L7.10148 7.21944L6.03192 5.06011V8.05195ZM15.3579 8.57227L17.8361 8.02594L17.0666 6.47798L15.3579 6.10075C15.3579 6.07474 15.3579 8.57227 15.3579 8.57227ZM13.2579 9.04056L14.6666 8.72837V5.93165L13.3623 5.63246L12.1232 8.15602L13.2579 9.04056ZM19.284 9.39178L21.0839 7.98691L18.8405 8.48122L19.284 9.39178ZM11.484 9.4308L12.384 9.23568L11.8101 8.7804L11.484 9.4308ZM9.2145 9.93811L10.6232 9.62592L11.2493 8.35114L9.01885 6.60807L7.97538 7.42757L9.2145 9.93811ZM14.6666 10.1332V9.41779L13.9492 9.57389L14.6666 10.1332ZM6.03192 10.6536L8.51016 10.1072L7.40147 7.86984L6.03192 8.9365C6.03192 8.92349 6.03192 10.6536 6.03192 10.6536ZM2.51022 10.8096L5.34062 8.59829V5.06011L2.51022 10.8096ZM9.84058 11.2129L10.2449 10.4064L9.52754 10.5625L9.84058 11.2129ZM20.184 11.2129L21.5144 8.52024L19.597 10.0162L20.184 11.2129ZM2.94065 11.343L5.34062 10.8096V9.48283C5.34062 9.46983 2.94065 11.343 2.94065 11.343ZM16.4927 11.5641L18.7231 9.82104L18.1361 8.63731L15.3449 9.2617V10.6796C15.3579 10.6796 16.4927 11.5641 16.4927 11.5641ZM15.3579 12.4487L15.9318 11.9934L15.3579 11.5381V12.4487ZM5.34062 12.5007V11.4991L3.09717 11.9934L5.34062 12.5007ZM8.8232 13.2812L9.44928 12.0064L8.8232 10.7316L6.03192 11.343V12.6568L8.8232 13.2812ZM19.0361 13.5543L19.8057 12.0064L19.0492 10.4584L17.0666 12.0064L19.0361 13.5543ZM10.2319 13.5934L9.84058 12.7869L9.52754 13.4373C9.51449 13.4373 10.2319 13.5934 10.2319 13.5934ZM13.0753 14.2308L14.6666 12.995V11.0048L13.0884 9.76901L11.1058 10.2113L10.2188 11.9934L11.0927 13.7755L13.0753 14.2308ZM5.34062 14.5299V13.2031L2.95369 12.6698L5.34062 14.5299ZM14.6666 14.582V13.8665L13.9492 14.4259L14.6666 14.582ZM22.1405 15.1933V8.81943L20.5753 12.0064L22.1405 15.1933ZM11.8101 15.2194L12.384 14.7641L11.484 14.569L11.8101 15.2194ZM18.1492 15.3624L18.7361 14.1787L16.5057 12.4356L15.371 13.3202V14.7381C15.3579 14.7381 18.1492 15.3624 18.1492 15.3624ZM21.5144 15.4925L20.184 12.7869L19.597 13.9836L21.5144 15.4925ZM21.0839 16.0259L19.284 14.621L18.8405 15.5185L21.0839 16.0259ZM7.41452 16.1559L8.5232 13.9186L6.04496 13.3592V15.0763C6.03192 15.0763 7.41452 16.1559 7.41452 16.1559ZM17.9405 17.3527L20.9274 16.6893L18.5274 16.1559C18.5405 16.1559 17.9405 17.3527 17.9405 17.3527ZM9.01885 17.4047L11.2493 15.6616L10.6232 14.3868L9.2145 14.0616L7.97538 16.5852L9.01885 17.4047ZM15.3579 17.925L17.0796 17.5478L17.8492 15.9998L15.371 15.4405L15.3579 17.925ZM13.3623 18.3803L14.6666 18.0941V15.2974L13.2579 14.9852L12.1232 15.8698L13.3623 18.3803ZM10.9493 18.9136L12.6579 18.5364L11.5623 16.286L9.57971 17.834C9.56667 17.834 10.9493 18.9136 10.9493 18.9136ZM5.34062 18.9396V15.4015L2.51022 13.1901L5.34062 18.9396ZM6.03192 18.9396L7.10148 16.7803L6.03192 15.9478V18.9396ZM6.658 19.2388L8.45798 17.834L7.66234 17.2096C7.66234 17.2226 6.658 19.2388 6.658 19.2388ZM7.10148 19.7722L10.0884 19.1088L9.01885 18.2762L7.10148 19.7722ZM14.6666 21.0339V18.7836L13.6753 19.0047C13.6623 19.0047 14.6666 21.0339 14.6666 21.0339ZM15.3579 21.0339L16.6883 18.3283L15.3579 18.6275V21.0339ZM14.0405 21.3201L12.971 19.1608L11.6406 19.46L14.0405 21.3201ZM15.984 21.3201L21.0839 17.3397L17.5622 18.1332L15.984 21.3201ZM13.5971 21.8534L10.7667 19.6421L7.24495 20.4226L13.5971 21.8534ZM15.0057 23.9998C14.5362 23.9998 14.1058 23.7916 13.8188 23.4404C13.6101 23.1803 13.4927 22.8551 13.4927 22.5299L7.03626 21.086C6.93191 21.2811 6.80148 21.4502 6.61887 21.5933C6.34496 21.8014 6.01888 21.9185 5.67975 21.9185C5.21019 21.9185 4.77976 21.7104 4.49281 21.3591C4.24498 21.0469 4.12759 20.6567 4.16672 20.2665C4.20585 19.8762 4.4015 19.525 4.71454 19.2779L1.84501 13.4373C1.74066 13.4633 1.62327 13.4763 1.51892 13.4763C1.04936 13.4763 0.631975 13.2682 0.331978 12.9169C-0.189756 12.2796 -0.0854088 11.343 0.566759 10.8357C0.840669 10.6275 1.16675 10.5105 1.50588 10.5105C1.61023 10.5105 1.72762 10.5235 1.83196 10.5495L4.74063 4.7089C4.64933 4.64386 4.57107 4.56581 4.50585 4.48776C4.25803 4.17557 4.14064 3.79834 4.19281 3.39509C4.23194 3.00485 4.44063 2.65363 4.75367 2.40648C5.02758 2.19835 5.35367 2.08128 5.69279 2.08128C6.16235 2.08128 6.59278 2.28941 6.87974 2.64062C6.94495 2.71867 7.01017 2.80973 7.0493 2.91379L13.5058 1.4699C13.5058 1.01462 13.7145 0.611376 14.0666 0.3252C14.3405 0.117072 14.6666 0 15.0057 0C15.4753 0 15.9057 0.208128 16.1927 0.559344C16.5579 1.00162 16.6231 1.59998 16.3753 2.1073L21.5535 6.15279C21.8274 5.94466 22.1405 5.84059 22.4796 5.84059C22.9491 5.84059 23.3796 6.04872 23.6665 6.39994C24.1883 7.03733 24.0839 7.9739 23.4317 8.48122C23.2622 8.6243 23.0535 8.71536 22.8318 8.76739V15.2454C23.1578 15.3234 23.4578 15.5055 23.6665 15.7657C23.9143 16.0779 24.0317 16.4551 23.9926 16.8584C23.9535 17.2486 23.7448 17.5998 23.4317 17.847C23.1578 18.0551 22.8318 18.1722 22.4926 18.1722C22.1535 18.1722 21.8274 18.0551 21.5535 17.86L16.3753 21.9055C16.6753 22.5169 16.4927 23.2713 15.9449 23.6876C15.684 23.8957 15.3579 23.9998 15.0057 23.9998Z" fill="#2EA836"/>
</svg>
