<svg width="24" height="24" viewBox="0 0 24 24" fill="none" xmlns="http://www.w3.org/2000/svg">
<path d="M23.5538 10.7398L18.2794 5.44815L18.2622 5.43091C18.2277 5.39644 18.2104 5.3792 18.176 5.34473C18.1587 5.32749 18.1415 5.3275 18.1243 5.31026C18.107 5.29302 18.0726 5.27579 18.0553 5.25855C18.0381 5.24131 18.0208 5.24132 18.0036 5.22408C17.9864 5.20684 17.9519 5.1896 17.9347 5.1896C17.9174 5.17237 17.9002 5.17236 17.8829 5.15513C17.8657 5.13789 17.8312 5.13789 17.814 5.12066C17.7968 5.12066 17.7795 5.10342 17.7623 5.10342C17.7278 5.08618 17.7106 5.08618 17.6761 5.06895C17.6589 5.06895 17.6416 5.05171 17.6244 5.05171C17.5899 5.05171 17.5727 5.03448 17.5382 5.03448C17.521 5.03448 17.5037 5.03447 17.4693 5.01724C17.4348 5.01724 17.4176 5 17.3831 5C17.3486 5 17.3141 5 17.2797 5C17.2624 5 17.2452 5 17.228 5C17.2107 5 17.2107 5 17.1935 5C17.159 5 17.1245 5 17.0901 5C17.0728 5 17.0384 5 17.0211 5.01724C17.0039 5.01724 16.9694 5.01724 16.9522 5.03448C16.9177 5.03448 16.9005 5.05171 16.8832 5.05171C16.866 5.05171 16.8315 5.06895 16.8143 5.06895C16.797 5.06895 16.7626 5.08618 16.7453 5.08618C16.7281 5.08618 16.6936 5.10342 16.6764 5.10342C16.6592 5.12066 16.6419 5.12066 16.6074 5.1379C16.5902 5.15513 16.5557 5.15513 16.5385 5.17237C16.5213 5.1896 16.504 5.1896 16.4868 5.20684C16.4695 5.22408 16.4351 5.24131 16.4178 5.25855C16.4006 5.27579 16.3834 5.29302 16.3661 5.29302C16.3489 5.31026 16.3317 5.32749 16.2972 5.34473C16.2627 5.36197 16.2455 5.39644 16.211 5.43091L16.1938 5.44815L8.21323 13.4287V6.51682C8.21323 5.68947 7.541 5 6.69641 5C5.86905 5 5.17959 5.67223 5.17959 6.51682V13.4804L2.57687 10.8777C1.99082 10.2916 1.02558 10.2916 0.439533 10.8777C-0.146511 11.4637 -0.146511 12.429 0.439533 13.015L5.59327 18.1687C5.88629 18.4618 6.28273 18.6169 6.66194 18.6169H6.67917H6.69641C7.19627 18.6169 7.64442 18.3756 7.92021 17.9791L15.7456 10.1537V17.1001C15.7456 17.9274 16.4178 18.6169 17.2624 18.6169C18.0898 18.6169 18.7792 17.9447 18.7792 17.1001V10.1537L21.4682 12.8426C22.0542 13.4287 23.0194 13.4287 23.6055 12.8426C24.1398 12.2738 24.1398 11.3258 23.5538 10.7398Z" fill="white"/>
</svg>
