<svg width="24" height="24" viewBox="0 0 24 24" fill="none" xmlns="http://www.w3.org/2000/svg">
<g clip-path="url(#clip0_1119_16755)">
<path d="M15.3427 4.535H14.4415C11.6045 4.535 8.76735 4.51284 5.93025 4.535C5.68251 4.54647 5.43523 4.50374 5.20498 4.40968C4.97472 4.31561 4.7668 4.17238 4.59515 3.98958C3.54375 2.93625 2.89131 2.15839 1.82656 1.11869C1.63965 0.936315 0.754395 0.00297551 0.754395 0.00297551L1.8198 0.00292218C1.8198 0.00292218 15.7182 0.00292218 22.6675 0.00292218C23.1364 0.00292218 23.6688 -0.0669598 23.9091 0.476753C24.1344 0.971038 23.9091 1.40908 23.6254 1.81984C22.05 4.09014 20.4862 6.36726 18.8958 8.62393C18.7423 8.8438 18.6871 8.99323 18.4451 8.99663C16.6394 9.02391 12.5482 8.99663 12.5482 8.99663L15.4329 4.73953L15.3427 4.535Z" fill="white"/>
<path d="M11.681 14.9983C11.681 14.9983 9.54169 17.8947 8.49697 19.4372H9.58675C12.3104 19.4372 15.0323 19.4475 17.7559 19.427C17.9889 19.4156 18.2217 19.4523 18.4405 19.5349C18.6593 19.6175 18.8595 19.7443 19.0293 19.9077C20.1975 20.9951 21.4008 22.0501 22.5857 23.1239C22.7826 23.2944 23.4748 24 23.4748 24L22.4171 24C22.4171 24 8.2472 24 1.16224 24C0.124201 24 -0.301363 23.1819 0.229341 22.178C0.500058 21.7129 0.798804 21.2655 1.12386 20.8383C2.36217 19.0571 3.61049 17.2845 4.83545 15.4932C5.08077 15.137 5.3368 14.9966 5.78406 14.9983C7.45294 15.0119 10.7907 14.9983 10.7907 14.9983H11.681Z" fill="white"/>
</g>
<defs>
<clipPath id="clip0_1119_16755">
<rect width="24" height="24" fill="white" transform="translate(0.000488281)"/>
</clipPath>
</defs>
</svg>
