<svg width="24" height="24" viewBox="0 0 24 24" fill="none" xmlns="http://www.w3.org/2000/svg">
<path d="M22.8977 21.8629L14.4922 1.56189C14.0181 0.512275 13.3134 0.000260513 12.3845 0.000240859L11.6413 0.000225136C10.7124 0.000205482 10.0077 0.51219 9.5337 1.56178L5.8759 10.4065L3.10838 10.4064C2.28197 10.4128 1.60932 11.0784 1.60293 11.9104L1.60293 11.9296C1.60936 12.7552 2.28203 13.4272 3.10844 13.4336L4.5947 13.4337L1.10345 21.8624C1.03939 22.048 1.00096 22.24 1.00096 22.4384C1.00097 22.912 1.14833 23.2832 1.41099 23.5712C1.67365 23.8592 2.05163 24 2.52569 24C2.8396 23.9936 3.14069 23.8976 3.39054 23.7121C3.6596 23.5265 3.84537 23.2577 3.99271 22.9505L7.83629 13.4273L10.5013 13.4274C11.3277 13.421 12.0004 12.7554 12.0067 11.9234L12.0067 11.885C12.0003 11.0594 11.3276 10.3874 10.5012 10.381L9.07904 10.381L12.013 3.07863L20.0084 22.9444C20.1558 23.2516 20.3416 23.5204 20.6106 23.706C20.8605 23.8916 21.168 23.9876 21.4755 23.994C21.9496 23.994 22.3211 23.8533 22.5902 23.5653C22.8592 23.2773 23.0002 22.9061 23.0002 22.4325C23.0066 22.2405 22.9745 22.0421 22.8977 21.8629Z" fill="white"/>
</svg>
