<svg width="23" height="24" viewBox="0 0 23 24" fill="none" xmlns="http://www.w3.org/2000/svg">
<g clip-path="url(#clip0_6982_23590)">
<path fill-rule="evenodd" clip-rule="evenodd" d="M15.9776 16.6622C15.9776 15.0164 14.7426 14.2284 12.4122 14.2284H6.72022V19.0961H12.4122C14.7426 19.0961 15.9776 18.3081 15.9776 16.6622ZM6.72022 4.90395V9.53126H11.3839C13.6472 9.53126 14.8124 8.74328 14.8124 7.20084C14.8124 5.6584 13.6472 4.90395 11.3839 4.90395H6.72022ZM22.8348 17.4167C22.8348 21.5662 19.4062 24 12.9598 24H5.82885C2.60985 24 0 21.3902 0 18.1711V0H12.2724C18.5819 0 21.6668 2.57073 21.6668 6.27314C21.6668 8.57003 20.5016 10.4226 18.445 11.4845C21.1526 12.4429 22.8348 14.5023 22.8348 17.4167Z" fill="#003EDD"/>
</g>
<defs>
<clipPath id="clip0_6982_23590">
<rect width="22.8348" height="24" fill="white"/>
</clipPath>
</defs>
</svg>
