<svg width="25" height="24" viewBox="0 0 25 24" fill="none" xmlns="http://www.w3.org/2000/svg">
<g clip-path="url(#clip0_8467_10272)">
<path d="M4.47552 23.4581L4.13028 23.1085C3.86808 23.3532 3.62773 23.5062 3.25191 23.5062C2.66633 23.5062 2.24244 23.0168 2.24244 22.4137C2.24244 21.8106 2.66633 21.3299 3.25191 21.3299C3.60151 21.3299 3.8637 21.4829 4.10844 21.7101L4.45365 21.3125C4.16088 21.0328 3.82001 20.8362 3.25628 20.8362C2.32984 20.8362 1.67871 21.5484 1.67871 22.4224C1.67871 23.3052 2.34295 24 3.23443 24C3.8069 24 4.1565 23.7903 4.47552 23.4581Z" fill="#F0B90B"/>
<path d="M8.01915 22.4137C8.01915 21.5484 7.36365 20.8362 6.42408 20.8362C5.48454 20.8362 4.82031 21.5572 4.82031 22.4224C4.82031 23.2877 5.47581 24 6.41535 24C7.35489 24 8.01915 23.279 8.01915 22.4137ZM7.45542 22.4224C7.45542 23.0211 7.03152 23.5062 6.42408 23.5062C5.81667 23.5062 5.38404 23.0124 5.38404 22.4137C5.38404 21.815 5.80791 21.3299 6.41535 21.3299C7.02279 21.3299 7.45542 21.8238 7.45542 22.4224Z" fill="#F0B90B"/>
<path d="M10.8049 23.0036L9.16615 20.8886H8.66797V23.9476H9.19675V21.7713L10.8836 23.9476H11.3337V20.8886H10.8049V23.0036Z" fill="#F0B90B"/>
<path d="M14.258 23.0036L12.6193 20.8886H12.1211V23.9476H12.6499V21.7713L14.3367 23.9476H14.7868V20.8886H14.258V23.0036Z" fill="#F0B90B"/>
<path d="M17.8413 20.8886H15.5732V23.9476H17.8631V23.4669H16.1108V22.6453H17.6446V22.1646H16.1108V21.3693H17.8413V20.8886Z" fill="#F0B90B"/>
<path d="M21.162 23.4581L20.8168 23.1085C20.5546 23.3532 20.3142 23.5062 19.9384 23.5062C19.3528 23.5062 18.929 23.0168 18.929 22.4137C18.929 21.8106 19.3528 21.3299 19.9384 21.3299C20.288 21.3299 20.5502 21.4829 20.7949 21.7101L21.1402 21.3125C20.8474 21.0328 20.5065 20.8362 19.9428 20.8362C19.0164 20.8362 18.3652 21.5484 18.3652 22.4224C18.3652 23.3052 19.0295 24 19.9209 24C20.4934 24 20.843 23.7903 21.162 23.4581Z" fill="#F0B90B"/>
<path d="M23.0208 21.3868H23.9909V20.8886H21.5088V21.3868H22.4789V23.9476H23.0208V21.3868Z" fill="#F0B90B"/>
<path d="M12.8389 13.5299L9.45432 10.1454L7.4793 12.1204L12.8389 17.48L18.1985 12.1204L16.2234 10.1454L12.8389 13.5299ZM4.09473 8.74413L6.06975 10.7192L8.04477 8.74413L6.06975 6.76911L4.09473 8.74413ZM10.8597 8.74413L12.8347 10.7192L14.8097 8.74413L12.8347 6.76911L10.8597 8.74413ZM17.6247 8.74413L19.5997 10.7192L21.5747 8.74413L19.6039 6.76497L17.6247 8.74413ZM12.8389 0L7.4793 5.35959L9.45432 7.33461L12.8389 3.95004L16.2234 7.33461L18.1985 5.35959L12.8389 0Z" fill="#F0B90B"/>
</g>
<defs>
<clipPath id="clip0_8467_10272">
<rect width="24" height="24" fill="white" transform="translate(0.834961)"/>
</clipPath>
</defs>
</svg>
