<svg width="24" height="24" viewBox="0 0 24 24" fill="none" xmlns="http://www.w3.org/2000/svg">
<path fill-rule="evenodd" clip-rule="evenodd" d="M7.93248 0C6.45789 0 5.26249 1.19539 5.26249 2.66999V8.05851H4.67047C3.19588 8.05851 2.00049 9.25391 2.00049 10.7285C2.00049 12.2031 3.19588 13.3985 4.67047 13.3985H5.26249V16.0293C5.26249 20.4314 8.83112 24 13.2332 24C17.6354 24 21.204 20.4314 21.204 16.0293C21.204 11.6271 17.6354 8.05851 13.2332 8.05851H10.6025V2.67043C10.6025 1.19602 9.40725 0 7.93248 0ZM4.67047 9.32098H5.26249V10.0973H4.67092C4.3223 10.0973 4.03969 10.3799 4.03969 10.7285C4.03969 11.0771 4.3223 11.3597 4.67092 11.3597H5.26249V12.136H4.67047C3.89312 12.136 3.26295 11.5059 3.26295 10.7285C3.26295 9.95115 3.89312 9.32098 4.67047 9.32098ZM6.52496 16.0293V2.66999C6.52496 1.89263 7.15513 1.26246 7.93248 1.26246C8.70965 1.26246 9.34 1.8929 9.34 2.67043V16.0293C9.34 18.1794 11.0831 19.9225 13.2332 19.9225C15.3834 19.9225 17.1265 18.1794 17.1265 16.0293C17.1265 13.8791 15.3834 12.136 13.2332 12.136H10.6025V11.3597H13.2337C15.8126 11.3597 17.9032 13.4504 17.9032 16.0293C17.9032 18.6082 15.8126 20.6988 13.2337 20.6988C10.6548 20.6988 8.56416 18.6082 8.56416 16.0293V2.66999C8.56416 2.32137 8.28154 2.03876 7.93292 2.03876C7.58431 2.03876 7.30169 2.32137 7.30169 2.66999V16.0293C7.30169 19.3054 9.95754 21.9613 13.2337 21.9613C16.5098 21.9613 19.1657 19.3054 19.1657 16.0293C19.1657 12.7531 16.5098 10.0973 13.2337 10.0973H10.6025V9.32098H13.2332C16.9381 9.32098 19.9415 12.3244 19.9415 16.0293C19.9415 19.7341 16.9381 22.7375 13.2332 22.7375C9.52836 22.7375 6.52496 19.7341 6.52496 16.0293ZM10.6025 16.0293V13.3985H13.2332C14.6862 13.3985 15.864 14.5763 15.864 16.0293C15.864 17.4822 14.6862 18.66 13.2332 18.66C11.7803 18.66 10.6025 17.4822 10.6025 16.0293Z" fill="#449BF7"/>
</svg>
