<svg width="24" height="24" viewBox="0 0 24 24" fill="none" xmlns="http://www.w3.org/2000/svg">
<path d="M18.3282 3.94097L19.3934 0H16.3043L15.6653 2.45161C15.0972 2.23839 14.4937 2.09677 13.8911 1.99L14.4227 0H11.3337L10.8366 1.91742C8.17401 2.27226 5.72401 3.6571 4.09143 5.8229C0.6824 10.261 1.53434 16.6519 5.97272 20.0603L4.90756 24H7.9624L8.60143 21.5503C9.1695 21.7632 9.77337 21.9052 10.3756 22.0119L9.84272 24H12.8959L13.4285 22.0829C16.0914 21.729 18.543 20.3445 20.1747 18.1787C23.6185 13.7048 22.7663 7.34968 18.3282 3.94097ZM12.1505 14.3797C11.6729 14.3797 11.2061 14.2382 10.8089 13.9729C10.4118 13.7076 10.1023 13.3306 9.91951 12.8894C9.73671 12.4482 9.68885 11.9627 9.78198 11.4943C9.87511 11.0259 10.105 10.5957 10.4427 10.258C10.7804 9.92025 11.2106 9.69025 11.679 9.59706C12.1474 9.50387 12.6328 9.55167 13.0741 9.73441C13.5153 9.91715 13.8924 10.2266 14.1577 10.6237C14.423 11.0208 14.5647 11.4876 14.5647 11.9652C14.5647 13.3145 13.4995 14.3797 12.1505 14.3797Z" fill="#0086FB"/>
</svg>
