<svg width="25" height="24" viewBox="0 0 25 24" fill="none" xmlns="http://www.w3.org/2000/svg">
<path d="M11.8603 19.581C11.6859 19.7555 11.4957 19.9142 11.2896 20.057C10.8933 20.3585 10.4811 20.6124 10.0373 20.8505C9.16539 21.2948 8.24596 21.6281 7.27897 21.8185C7.04119 21.8662 6.80341 21.9138 6.56563 21.9455L6.20103 21.9931L6.02666 22.009L5.85228 22.0249L5.48768 22.0566L5.12309 22.0725C4.8853 22.0884 4.63167 22.0884 4.39389 22.1043C3.68055 22.1043 2.96721 22.0726 2.25387 22.0092C2.33313 21.8981 2.4124 21.7711 2.49166 21.6442C2.71361 21.2951 2.9197 20.9142 3.10994 20.5334C3.45872 19.7717 3.72823 18.9783 3.95019 18.1849C4.1563 17.4074 4.40997 16.6616 4.69533 15.8999C4.9807 15.1382 5.31362 14.4083 5.6941 13.6942C5.42461 13.9957 5.18681 14.3289 4.96487 14.678C4.74293 15.0113 4.52098 15.3762 4.33074 15.7254C3.93441 16.4394 3.58564 17.2011 3.31612 17.9628C3.03075 18.7086 2.72953 19.4544 2.36491 20.1367C2.00028 20.8191 1.5564 21.4538 1.04911 22.0568L0.525967 22.6916L1.35027 22.8026C2.36479 22.9454 3.39517 23.0247 4.42556 22.9929C4.67919 22.977 4.94868 22.977 5.20231 22.9453L5.58276 22.9135L5.96321 22.8659C6.21685 22.8341 6.47048 22.7707 6.72412 22.7389C6.97775 22.6754 7.23139 22.6278 7.48502 22.5485C7.73866 22.485 7.97644 22.3898 8.23008 22.3104C8.46786 22.2152 8.7215 22.12 8.95928 22.0089C9.43485 21.8026 9.89458 21.5328 10.3226 21.2472C10.7506 20.9615 11.1469 20.6283 11.5115 20.2474C11.8603 19.8666 12.1774 19.4699 12.3993 19.0097C12.2249 19.2319 12.0505 19.4223 11.8603 19.581ZM17.5359 5.88665C17.8213 5.60101 18.2017 5.44232 18.6139 5.4423C19.0102 5.44228 19.3906 5.58508 19.6918 5.88656C20.2783 6.48952 20.2782 7.4416 19.6917 8.04461C19.1051 8.63175 18.1382 8.63179 17.5358 8.0447C17.2505 7.75908 17.092 7.37826 17.092 6.96569C17.092 6.55312 17.2506 6.17228 17.5359 5.88665ZM18.6137 9.4093C19.2478 9.40928 19.866 9.17123 20.3416 8.69517C21.2928 7.72718 21.2928 6.18799 20.3417 5.22008C19.3907 4.26804 17.8372 4.2681 16.886 5.22022C16.4263 5.68041 16.1726 6.29927 16.1726 6.94986C16.1726 7.60045 16.4262 8.21929 16.8859 8.67944C17.3455 9.15546 17.9638 9.40933 18.6137 9.4093ZM19.3269 12.932C15.8235 16.0264 14.3651 16.3121 12.9067 15.6457L14.492 13.6462C14.7298 13.3606 14.8883 13.0115 14.9834 12.6465L15.6176 9.9648L12.9545 10.5996C12.5899 10.6949 12.2411 10.8536 11.9558 11.0916L9.95835 12.6785C9.27677 11.2186 9.57802 9.75877 12.6535 6.25181C15.5704 2.93528 21.721 2.17336 23.544 2.01461C23.4012 3.83943 22.6401 10.0121 19.3269 12.932ZM16.9964 17.7242C16.9647 17.867 16.8855 18.0098 16.7587 18.0892C16.394 18.3431 15.8234 18.6922 15.3161 19.0096L15.3478 18.9144C15.5856 17.9464 15.5856 17.2006 15.3479 16.6928C16.0137 16.4865 16.727 16.1215 17.5355 15.5661C17.3294 16.3119 17.1074 17.2006 16.9964 17.7242ZM11.4642 15.9948C11.2581 16.2646 10.9252 16.4074 10.5923 16.3916L10.5764 16.3916L9.78382 16.3916L12.5422 13.0592L9.21317 15.8204L9.2132 15.0428L9.2132 15.0111C9.19737 14.6779 9.34005 14.3446 9.60954 14.1383L12.5264 11.8215C12.7166 11.6787 12.9386 11.5676 13.1605 11.5041L14.3494 11.2184L14.064 12.4085C14.0006 12.6466 13.9055 12.8687 13.747 13.0591L11.4642 15.9948ZM6.70878 10.2508L6.61366 10.2825C6.91487 9.77475 7.26364 9.20348 7.51729 8.83851C7.59655 8.71156 7.73923 8.63221 7.88189 8.60047C8.40502 8.48937 9.29274 8.26719 10.0378 8.07674C9.48294 8.88603 9.11831 9.61597 8.91221 10.2824C8.42081 9.99684 7.67576 9.99686 6.70878 10.2508ZM24.0354 1.04664C23.7025 1.06252 15.6497 1.42781 11.956 5.63299C11.6072 6.0297 11.2743 6.44228 10.9414 6.85487C10.4024 6.9977 8.53187 7.50555 7.70756 7.68014C7.32711 7.75949 6.97835 7.98166 6.75641 8.3149C6.1857 9.14006 5.20281 10.838 5.1711 10.9014L4.45771 12.1233L5.7576 11.552C6.61362 11.187 8.04032 10.8061 8.54758 11.1076C8.62684 11.1552 8.72194 11.2504 8.73779 11.4884C8.75361 12.0914 8.91211 12.6785 9.21328 13.2656L9.0389 13.4084C8.54747 13.8051 8.26211 14.4081 8.29378 15.0429L8.29369 17.312L10.5605 17.3119C11.1946 17.3436 11.797 17.058 12.1933 16.566L12.336 16.3915C12.9225 16.6929 13.509 16.8675 14.1114 16.8674C14.3492 16.8833 14.4284 16.9626 14.4919 17.0578C14.8089 17.5656 14.4284 19.0096 14.0479 19.8665L13.4772 21.1677L14.6978 20.4536C14.7771 20.406 16.4574 19.4221 17.2817 18.8508C17.5988 18.6287 17.8207 18.2954 17.9 17.8987C18.0744 17.0736 18.5818 15.1853 18.7244 14.6457C19.1049 14.3442 19.5012 13.9951 19.9292 13.6143C24.1143 9.91685 24.4951 1.84002 24.511 1.50679L24.5269 0.999017L24.0354 1.04664Z" fill="white"/>
</svg>
