<svg width="24" height="24" viewBox="0 0 24 24" fill="none" xmlns="http://www.w3.org/2000/svg">
<path d="M23.6885 11.281L15.194 2.84032C14.7776 2.42656 14.1028 2.42656 13.6864 2.84032L8.70681 7.78828L7.26521 6.35582C6.84881 5.94207 6.17396 5.94207 5.75469 6.35582L0.312787 11.7632C-0.103611 12.177 -0.103611 12.8475 0.312787 13.2641L5.75756 18.6744C6.17396 19.0881 6.84881 19.0881 7.26808 18.6744L8.22149 17.727L4.21545 13.7492C3.79905 13.3355 3.79905 12.6649 4.21545 12.2511L4.43657 12.0314L13.6835 21.2197C14.0999 21.6334 14.7747 21.6334 15.1911 21.2197L23.6857 12.779C24.1049 12.3653 24.1049 11.6947 23.6885 11.281Z" fill="white"/>
</svg>
