<svg width="24" height="24" viewBox="0 0 24 24" fill="none" xmlns="http://www.w3.org/2000/svg">
<path d="M0.0034901 13.6686C0.0291317 13.5697 0.0491757 13.4695 0.0635266 13.3684C0.395228 9.39502 3.20644 6.05361 7.07729 5.14995C10.2442 4.41142 13.0809 5.14996 15.4989 7.33704C17.0285 8.71009 18.036 10.57 18.3506 12.6013C18.6753 14.5178 18.3883 16.4879 17.5302 18.2321C16.6721 19.9762 15.2866 21.4057 13.5702 22.3178C12.573 22.8514 11.4836 23.1907 10.3598 23.3176C10.2097 23.3356 10.0596 23.3581 9.91852 23.3791H8.58271C8.53918 23.3686 8.49715 23.3551 8.45513 23.3491C8.05589 23.289 7.65064 23.253 7.2544 23.166C5.33205 22.7363 3.59728 21.7035 2.30316 20.2183C1.00904 18.7331 0.223288 16.8733 0.0605248 14.91C0.0469171 14.8087 0.0268642 14.7085 0.000488281 14.6098L0.0034901 13.6686Z" fill="#7D00FF"/>
<path d="M20.9848 0.631685L21.285 0.694737C21.9803 0.818141 22.6174 1.16211 23.1021 1.67575C23.5867 2.1894 23.8932 2.84543 23.9761 3.54679C24.0792 4.38724 23.8555 5.23516 23.3513 5.91539C22.8472 6.59563 22.101 7.05619 21.267 7.20192C20.4316 7.34083 19.5748 7.15345 18.8737 6.67852C18.1726 6.2036 17.6807 5.47743 17.4997 4.65008C17.4053 4.22572 17.3956 3.7869 17.4712 3.35879C17.5468 2.93068 17.7062 2.52171 17.9401 2.15534C18.1741 1.78897 18.4782 1.47242 18.8348 1.22384C19.1914 0.975248 19.5935 0.799517 20.0182 0.706739L20.419 0.621185L20.9848 0.631685Z" fill="#7D00FF"/>
</svg>
