<svg width="24" height="24" viewBox="0 0 24 24" fill="none" xmlns="http://www.w3.org/2000/svg">
<path d="M1.42872 13.5276L1.5127 13.3962L6.57671 5.51084C6.65073 5.39539 6.82472 5.40733 6.8807 5.53273C7.72672 7.41995 8.45671 9.76705 8.11472 11.2283C7.96873 11.8295 7.56873 12.6437 7.1187 13.3962C7.06073 13.5057 6.99672 13.6132 6.92871 13.7167C6.89671 13.7645 6.84271 13.7923 6.7847 13.7923H1.57671C1.43671 13.7923 1.35471 13.641 1.42872 13.5276Z" fill="white"/>
<path d="M24.0005 14.9921V16.2403C24.0005 16.3119 23.9565 16.3756 23.8925 16.4035C23.5005 16.5707 22.1585 17.1839 21.6005 17.9563C20.1765 19.9291 19.0885 22.75 16.6565 22.75H6.51047C2.91451 22.75 0.000488281 19.8396 0.000488281 16.2482V16.1328C0.000488281 16.0372 0.0784708 15.9596 0.17448 15.9596H5.83051C5.94248 15.9596 6.02447 16.0631 6.0145 16.1726C5.97448 16.5389 6.0425 16.9131 6.21649 17.2535C6.55248 17.9324 7.24849 18.3565 8.00048 18.3565H10.8005V16.1806H8.03248C7.89049 16.1806 7.80651 16.0173 7.8885 15.9019C7.91848 15.856 7.95251 15.8083 7.98848 15.7546C8.2505 15.3843 8.62449 14.809 8.9965 14.154C9.2505 13.7121 9.49647 13.2402 9.69449 12.7664C9.73451 12.6808 9.76648 12.5932 9.79848 12.5076C9.85248 12.3563 9.9085 12.215 9.94849 12.0737C9.98851 11.9542 10.0205 11.8288 10.0525 11.7113C10.1465 11.3092 10.1865 10.8832 10.1865 10.4412C10.1865 10.2681 10.1785 10.0869 10.1625 9.91371C10.1545 9.7246 10.1305 9.53544 10.1065 9.34633C10.0905 9.17911 10.0605 9.01387 10.0285 8.84069C9.98851 8.58786 9.93248 8.33706 9.86848 8.08419L9.84648 7.98867C9.79848 7.81544 9.75849 7.65024 9.70251 7.47706C9.54448 6.93355 9.36251 6.40403 9.17049 5.90835C9.10049 5.71125 9.02048 5.52214 8.94047 5.33302C8.82251 5.04835 8.70247 4.78956 8.59249 4.54468C8.5365 4.43319 8.4885 4.33165 8.4405 4.22814C8.3865 4.11069 8.33051 3.99323 8.27449 3.88177C8.2345 3.79617 8.18848 3.71653 8.15648 3.63689L7.81449 3.00782C7.76649 2.92222 7.8465 2.82069 7.94048 2.84657L10.0805 3.42387H10.0865C10.0905 3.42387 10.0945 3.42589 10.0945 3.42589L10.3765 3.50351L10.6865 3.59113L10.8005 3.62294V2.35685C10.8005 1.74569 11.2925 1.25 11.9005 1.25C12.2045 1.25 12.4805 1.37343 12.6785 1.57448C12.8765 1.77556 13.0005 2.05028 13.0005 2.35685V4.23613L13.2285 4.2998C13.2465 4.30581 13.2645 4.31375 13.2805 4.32569C13.3365 4.3675 13.4165 4.42919 13.5185 4.50488C13.5985 4.56855 13.6845 4.64621 13.7885 4.72585C13.9945 4.89105 14.2405 5.10407 14.5105 5.34895C14.5825 5.41065 14.6525 5.47435 14.7165 5.53806C15.0645 5.86056 15.4545 6.23879 15.8265 6.65686C15.9305 6.77431 16.0325 6.89375 16.1365 7.01915C16.2405 7.14657 16.3505 7.27198 16.4465 7.39742C16.5725 7.56464 16.7085 7.73782 16.8265 7.91899C16.8825 8.0046 16.9465 8.09218 17.0005 8.17778C17.1525 8.40669 17.2865 8.64363 17.4145 8.88052C17.4685 8.99 17.5245 9.10944 17.5725 9.22689C17.7145 9.54343 17.8265 9.86593 17.8985 10.1884C17.9205 10.2581 17.9365 10.3337 17.9445 10.4015V10.4174C17.9685 10.5129 17.9765 10.6144 17.9845 10.7179C18.0165 11.0484 18.0005 11.3789 17.9285 11.7113C17.8985 11.8527 17.8585 11.986 17.8105 12.1274C17.7625 12.2628 17.7145 12.4041 17.6525 12.5375C17.5325 12.8142 17.3905 13.0909 17.2225 13.3497C17.1685 13.4453 17.1045 13.5468 17.0405 13.6424C16.9705 13.7439 16.8985 13.8394 16.8345 13.933C16.7465 14.0525 16.6525 14.1779 16.5565 14.2894C16.4705 14.4068 16.3825 14.5243 16.2865 14.6278C16.1525 14.785 16.0245 14.9344 15.8905 15.0777C15.8105 15.1712 15.7245 15.2668 15.6365 15.3524C15.5505 15.4479 15.4625 15.5335 15.3825 15.6132C15.2485 15.7466 15.1365 15.8501 15.0425 15.9357L14.8225 16.1368C14.7905 16.1646 14.7485 16.1806 14.7045 16.1806H13.0005V18.3565H15.1445C15.6245 18.3565 16.0805 18.1872 16.4485 17.8767C16.5745 17.7672 17.1245 17.2934 17.7745 16.5787C17.7965 16.5548 17.8245 16.5369 17.8565 16.5289L23.7785 14.8249C23.8885 14.793 24.0005 14.8766 24.0005 14.9921Z" fill="white"/>
</svg>
