<svg width="24" height="24" viewBox="0 0 24 24" fill="none" xmlns="http://www.w3.org/2000/svg">
<path fill-rule="evenodd" clip-rule="evenodd" d="M17.2901 16.5901C17.597 17.3147 17.9044 18.0389 18.2106 18.7638C18.5587 19.588 18.902 20.4143 19.2551 21.2363C19.3769 21.5196 19.3992 21.7914 19.1828 22.0278C18.9723 22.2579 18.7047 22.2676 18.4204 22.1672C17.742 21.9277 17.0597 21.6992 16.3832 21.4546C16.2173 21.3947 16.1491 21.4381 16.0793 21.5905C15.7682 22.2699 15.4473 22.9448 15.125 23.619C14.9964 23.888 14.7705 23.9887 14.4786 23.9671C14.2193 23.948 14.0594 23.8024 13.964 23.5753C13.461 22.3783 12.9603 21.1804 12.4581 19.9831C12.435 19.9279 12.4059 19.8751 12.3646 19.7906C12.1918 20.1979 12.0288 20.578 11.8692 20.9596C11.5058 21.8284 11.1454 22.6983 10.781 23.5666C10.672 23.8263 10.4825 23.9664 10.1887 23.9693C9.89319 23.9722 9.7137 23.8288 9.59347 23.573C9.27554 22.8967 8.94978 22.224 8.63327 21.5471C8.57479 21.4219 8.5151 21.4028 8.38398 21.4493C7.66802 21.7035 6.9485 21.9477 6.22886 22.1913C5.97747 22.2764 5.73679 22.2319 5.56099 22.0361C5.38498 21.84 5.33402 21.6035 5.44443 21.3415C6.03215 19.9468 6.61481 18.5499 7.20034 17.1542C7.22885 17.0862 7.26804 17.0227 7.30222 16.9572C7.39208 16.9947 7.47624 17.0403 7.53379 17.1231C7.24422 17.8254 6.95659 18.5285 6.66447 19.2296C6.36431 19.95 6.05892 20.6683 5.7577 21.3882C5.69202 21.5452 5.66966 21.7058 5.80316 21.8402C5.92619 21.964 6.0683 21.9268 6.21499 21.8755C6.96375 21.613 7.71603 21.3605 8.46276 21.0926C8.65353 21.0241 8.74659 21.0599 8.8327 21.2488C9.16489 21.9778 9.5142 22.699 9.85622 23.4236C9.92384 23.5667 10.0196 23.6782 10.1891 23.6757C10.3483 23.6734 10.447 23.571 10.5055 23.4313C11.0406 22.153 11.5697 20.8722 12.1137 19.5976C12.1985 19.3989 12.1843 19.2458 12.0658 19.0812C12.0109 19.1141 12.0018 19.1616 11.984 19.204C11.4546 20.4629 10.9254 21.7219 10.395 22.9805C10.3598 23.0641 10.349 23.1827 10.2299 23.1851C10.1035 23.1878 10.0808 23.0649 10.0371 22.9779C9.6737 22.2555 9.30859 21.5339 8.9533 20.8075C8.88972 20.6775 8.82934 20.6471 8.69224 20.695C8.29893 20.8325 7.90097 20.9569 7.50431 21.0847C7.10121 21.2146 6.69723 21.3417 6.29426 21.472C6.227 21.4937 6.16205 21.513 6.10794 21.4524C6.06131 21.4001 6.07526 21.3403 6.09969 21.2816C6.12035 21.2319 6.13746 21.1807 6.15825 21.1311C6.70184 19.8343 7.24572 18.5377 7.78951 17.241C8.24381 17.3606 8.70926 17.3485 9.16882 17.3199C9.77639 17.2822 10.2951 17.4757 10.7889 17.8063C11.1894 18.0743 11.6017 18.333 12.1103 18.3436C12.8109 20.0191 13.5124 21.6941 14.2104 23.3707C14.2764 23.5291 14.3533 23.6702 14.5433 23.6753C14.733 23.6804 14.8236 23.5443 14.896 23.3902C15.2193 22.7016 15.5404 22.012 15.8712 21.3271C16.0255 21.0073 15.9495 20.9869 16.3624 21.1292C17.087 21.3791 17.812 21.6274 18.535 21.8817C18.694 21.9377 18.8362 21.9492 18.9589 21.8156C19.0832 21.6802 19.0477 21.5382 18.9835 21.3857C18.3465 19.8732 17.713 18.3592 17.0785 16.8456C17.1435 16.7558 17.1961 16.6558 17.2901 16.5901Z" fill="#FCCDD3"/>
<mask id="mask0_2199_20712" style="mask-type:alpha" maskUnits="userSpaceOnUse" x="3" y="0" width="19" height="19">
<path d="M3.00049 0.0404663H21.2862V18.3498H3.00049V0.0404663Z" fill="white"/>
</mask>
<g mask="url(#mask0_2199_20712)">
<path fill-rule="evenodd" clip-rule="evenodd" d="M9.13299 1.42197C8.8058 1.42197 8.583 1.41295 8.36122 1.42392C7.9576 1.44391 7.62115 1.59447 7.38056 1.93872C7.19444 2.20503 7.04051 2.4889 6.89451 2.7769C6.63236 3.29413 6.2467 3.6804 5.72887 3.94076C5.50053 4.05558 5.28076 4.18748 5.05825 4.31367C4.59283 4.57755 4.37436 4.98186 4.37897 5.51326C4.38192 5.8572 4.37901 6.20117 4.38435 6.54502C4.39029 6.92595 4.29299 7.27773 4.10012 7.6039C3.94587 7.86474 3.79198 8.12595 3.63207 8.38335C3.30157 8.91536 3.28487 9.4455 3.62722 9.97904C3.70721 10.1037 3.7718 10.2388 3.85807 10.3586C4.26431 10.923 4.44554 11.5466 4.38601 12.2426C4.36765 12.4569 4.37796 12.674 4.37982 12.8897C4.3837 13.3497 4.54252 13.7329 4.94266 13.9892C5.09554 14.0871 5.24699 14.1924 5.41176 14.2659C6.15004 14.5949 6.70322 15.1063 7.03255 15.8529C7.10017 16.0063 7.19323 16.1486 7.27731 16.2945C7.54079 16.7515 7.94393 16.9622 8.46414 16.962C8.82129 16.9619 9.17848 16.961 9.53563 16.9575C9.91669 16.9538 10.2656 17.0629 10.5908 17.2544C10.8519 17.4081 11.1127 17.5626 11.3698 17.7228C11.8835 18.0427 12.3952 18.0467 12.9099 17.727C13.1044 17.6062 13.3049 17.495 13.4965 17.3699C13.9376 17.0818 14.412 16.9257 14.9454 16.9552C15.2344 16.9712 15.5248 16.9613 15.8146 16.9622C16.3429 16.9637 16.7516 16.7516 17.0159 16.2846C17.142 16.0619 17.2742 15.8422 17.3889 15.6136C17.6488 15.0957 18.0296 14.705 18.5499 14.446C18.7847 14.3292 19.0122 14.1965 19.2376 14.0621C19.6035 13.844 19.849 13.5428 19.8908 13.0995C19.9296 12.6885 19.9028 12.2776 19.9016 11.8669C19.9004 11.4502 20.0043 11.0687 20.2195 10.7144C20.3768 10.4553 20.5306 10.1941 20.6869 9.93449C20.9765 9.45364 20.991 8.96845 20.7072 8.48068C20.5819 8.26529 20.4557 8.0501 20.3205 7.8409C20.0308 7.39299 19.8701 6.91308 19.9014 6.37172C19.9185 6.07595 19.9117 5.7784 19.9076 5.48178C19.9013 5.03092 19.7451 4.65566 19.3549 4.39639C19.0906 4.2207 18.8128 4.06978 18.5312 3.92586C18.0347 3.67202 17.6622 3.29875 17.4069 2.80276C17.2805 2.55742 17.1432 2.31742 17.0036 2.07928C16.7863 1.70872 16.4731 1.47281 16.036 1.43282C15.8688 1.41752 15.6997 1.42319 15.5314 1.42019C15.1679 1.41364 14.8027 1.45026 14.4411 1.40093C13.9945 1.33998 13.6115 1.11422 13.2604 0.854958C12.5105 0.301137 11.7862 0.293366 11.0362 0.852368C10.4441 1.29368 9.78286 1.5338 9.13299 1.42197ZM7.53339 17.1231C7.47584 17.0403 7.39168 16.9947 7.30181 16.9572C6.91502 16.5021 6.67948 15.9531 6.36799 15.4512C6.17253 15.1363 5.87224 14.945 5.55582 14.7724C5.24869 14.6049 4.93231 14.4528 4.65127 14.2404C4.24296 13.9318 4.03274 13.5198 4.01697 13.0105C4.00948 12.7679 3.99771 12.5232 4.02061 12.2826C4.08171 11.6405 3.90514 11.0737 3.53954 10.5508C3.40118 10.353 3.28325 10.1384 3.17664 9.92129C2.93548 9.43024 2.94636 8.93478 3.18214 8.44183C3.31629 8.16124 3.487 7.90222 3.65266 7.64072C3.90466 7.243 4.04916 6.82108 4.02178 6.34266C4.00524 6.05353 4.01782 5.76286 4.01426 5.47291C4.00617 4.81957 4.29679 4.33577 4.84968 4.00414C5.06318 3.87608 5.27898 3.75009 5.50235 3.64082C5.99292 3.40086 6.35367 3.04086 6.59605 2.54965C6.76247 2.21223 6.93528 1.87635 7.18498 1.58726C7.49137 1.23252 7.88322 1.0714 8.342 1.05821C8.57762 1.05145 8.81567 1.03664 9.04899 1.0608C9.70736 1.12887 10.2823 0.932988 10.8147 0.560482C10.9905 0.437528 11.1828 0.336509 11.3735 0.236988C11.889 -0.0320302 12.4056 -0.0185124 12.9236 0.238445C13.1899 0.370587 13.4393 0.530816 13.6879 0.691086C14.0911 0.950877 14.5236 1.08415 15.0057 1.06315C15.2949 1.05052 15.585 1.0589 15.8747 1.05635C16.5289 1.05056 17.007 1.34973 17.3341 1.90468C17.4674 2.13084 17.6005 2.35801 17.717 2.59308C17.944 3.05146 18.2851 3.3875 18.7412 3.61556C19.0241 3.75697 19.3027 3.90737 19.564 4.08731C20.0316 4.4093 20.2667 4.85519 20.2727 5.42188C20.275 5.64439 20.2896 5.86865 20.2682 6.08914C20.205 6.73807 20.3827 7.31262 20.7552 7.83924C20.8714 8.00356 20.9676 8.18305 21.0636 8.36064C21.3831 8.95186 21.3512 9.5362 21.0161 10.1103C20.8498 10.3953 20.6804 10.6785 20.5117 10.9622C20.3421 11.2473 20.2645 11.5559 20.2683 11.8871C20.2722 12.2243 20.2683 12.5616 20.274 12.8987C20.2851 13.5526 19.9958 14.0374 19.446 14.372C19.2104 14.5155 18.9679 14.6485 18.7231 14.7758C18.3246 14.9831 17.9972 15.2601 17.7866 15.6653C17.6253 15.9758 17.4558 16.282 17.2899 16.5901C17.1957 16.6558 17.1431 16.7557 17.0781 16.8456C16.9927 16.8938 16.9275 16.9645 16.8649 17.0382C16.5041 17.2804 16.1015 17.3438 15.6762 17.3291C15.3739 17.3186 15.071 17.3268 14.7683 17.326C14.5578 17.3254 14.355 17.3644 14.1624 17.449C13.5637 17.7121 13.0611 18.1612 12.4237 18.3497C12.3196 18.32 12.2146 18.3432 12.1099 18.3436C11.6013 18.333 11.189 18.0743 10.7886 17.8062C10.2947 17.4757 9.77599 17.2821 9.16841 17.3199C8.70886 17.3485 8.2434 17.3606 7.78907 17.241C7.71211 17.1837 7.63053 17.1365 7.53339 17.1231Z" fill="#6534FF"/>
</g>
<path fill-rule="evenodd" clip-rule="evenodd" d="M14.7279 11.0967C14.8917 11.1016 15.0019 10.966 14.9541 10.7982C14.6627 9.7773 14.3671 8.75764 14.0724 7.7377C14.027 7.58059 13.9073 7.54882 13.7699 7.58148C13.6576 7.60811 13.628 7.71411 13.5988 7.81258C13.4098 8.45034 13.2207 9.08806 13.0312 9.7257C12.9278 10.0735 12.8197 10.4199 12.7222 10.7692C12.682 10.9132 12.7126 11.0471 12.8792 11.0887C13.0245 11.1249 13.1244 11.0665 13.1636 10.91C13.201 10.7602 13.2573 10.6152 13.295 10.4655C13.321 10.3623 13.3746 10.3253 13.4799 10.3281C13.7153 10.3342 13.951 10.3341 14.1864 10.3282C14.2973 10.3254 14.3584 10.3549 14.3819 10.4748C14.4102 10.6192 14.4603 10.7597 14.505 10.9006C14.5394 11.0089 14.5941 11.0991 14.7279 11.0967ZM9.43581 9.34372C9.41988 9.51107 9.46829 9.66924 9.5465 9.82255C9.69643 10.1163 9.84582 10.4106 9.98814 10.7081C10.1027 10.9477 10.2759 11.0898 10.5494 11.0992C10.8373 11.109 11.0136 10.9582 11.1318 10.7135C11.2869 10.3922 11.4482 10.074 11.5993 9.75091C11.7294 9.47295 11.7285 9.19025 11.5934 8.91265C11.4254 8.56763 11.2596 8.22147 11.0835 7.88069C10.8723 7.47241 10.2857 7.44302 10.0566 7.84313C9.84303 8.21616 9.66892 8.61198 9.48317 9.00056C9.43351 9.10449 9.42501 9.22137 9.43581 9.34372ZM15.9854 9.27455C15.9854 9.78681 15.9874 10.2991 15.9842 10.8114C15.9833 10.9782 16.0424 11.0927 16.2209 11.0948C16.4248 11.0972 16.4557 10.9424 16.4591 10.7872C16.4653 10.4975 16.466 10.2074 16.4588 9.91778C16.4557 9.79397 16.4973 9.75382 16.6205 9.75654C16.9369 9.76354 17.2537 9.76406 17.5702 9.75718C17.9468 9.74905 18.2329 9.46627 18.2445 9.08879C18.2531 8.80597 18.2536 8.52242 18.2443 8.2396C18.2316 7.85455 17.9344 7.57411 17.5502 7.57306C17.0922 7.57177 16.634 7.57849 16.1762 7.56942C16.0289 7.56646 15.9785 7.60184 15.9816 7.75802C15.9918 8.26335 15.9854 8.76901 15.9854 9.27455ZM6.1578 9.28083C6.1578 9.7796 6.15751 10.2784 6.15816 10.7772C6.15824 10.8309 6.15092 10.8891 6.16872 10.9372C6.21021 11.0493 6.2949 11.1076 6.41975 11.0961C6.57557 11.0818 6.62358 10.9668 6.6279 10.8414C6.63818 10.5452 6.64012 10.2482 6.63029 9.95198C6.6254 9.80494 6.66236 9.74921 6.81948 9.75528C7.12883 9.76734 7.43915 9.76443 7.74882 9.75686C8.11511 9.74792 8.40201 9.46902 8.41613 9.10271C8.42725 8.81329 8.42692 8.52282 8.41633 8.23337C8.40225 7.84928 8.10379 7.57387 7.7163 7.57298C7.25829 7.57197 6.80011 7.5797 6.34234 7.56889C6.18526 7.56521 6.15205 7.61782 6.15452 7.76425C6.16301 8.26963 6.1578 8.77529 6.1578 9.28083ZM9.13269 1.42202C9.78257 1.53384 10.4438 1.29372 11.0359 0.852373C11.7859 0.293372 12.5102 0.301183 13.2601 0.855004C13.6112 1.11423 13.9941 1.33998 14.4409 1.40097C14.8024 1.45027 15.1676 1.41368 15.5311 1.4202C15.6994 1.42323 15.8685 1.41757 16.0357 1.43287C16.4728 1.47285 16.786 1.70876 17.0033 2.07933C17.1429 2.31747 17.2802 2.55743 17.4065 2.80281C17.6619 3.29879 18.0344 3.67207 18.5309 3.92587C18.8125 4.06983 19.0903 4.22075 19.3546 4.3964C19.7448 4.65571 19.901 5.03096 19.9072 5.48178C19.9114 5.77844 19.9182 6.07596 19.9011 6.37177C19.8698 6.91308 20.0305 7.393 20.3202 7.84095C20.4554 8.05011 20.5816 8.26534 20.7069 8.48073C20.9907 8.9685 20.9762 9.45364 20.6866 9.93449C20.5303 10.1941 20.3765 10.4553 20.2192 10.7144C20.0041 11.0688 19.9001 11.4503 19.9013 11.8669C19.9025 12.2776 19.9294 12.6886 19.8905 13.0995C19.8487 13.5428 19.6032 13.844 19.2373 14.0621C19.0119 14.1965 18.7844 14.3292 18.5496 14.446C18.0294 14.705 17.6485 15.0957 17.3886 15.6137C17.2739 15.8422 17.1417 16.0619 17.0156 16.2847C16.7513 16.7516 16.3426 16.9637 15.8143 16.9622C15.5245 16.9613 15.2341 16.9712 14.9451 16.9552C14.4117 16.9258 13.9373 17.0818 13.4962 17.3699C13.3047 17.495 13.1041 17.6062 12.9096 17.727C12.3949 18.0467 11.8832 18.0427 11.3695 17.7228C11.1124 17.5626 10.8516 17.4082 10.5905 17.2544C10.2653 17.0629 9.91639 16.9538 9.5353 16.9575C9.17819 16.9611 8.821 16.9619 8.46385 16.962C7.94363 16.9622 7.5405 16.7515 7.27701 16.2945C7.19293 16.1487 7.09987 16.0063 7.03225 15.853C6.70293 15.1063 6.14975 14.5949 5.41146 14.2659C5.24666 14.1924 5.09524 14.0871 4.94237 13.9892C4.54223 13.7329 4.38341 13.3497 4.37953 12.8897C4.37766 12.674 4.36735 12.457 4.38571 12.2426C4.44524 11.5466 4.26402 10.923 3.85777 10.3587C3.77151 10.2388 3.70692 10.1037 3.62692 9.97905C3.28458 9.44555 3.30124 8.9154 3.63178 8.38336C3.79169 8.12599 3.94557 7.86478 4.09982 7.60394C4.29269 7.27774 4.39 6.92595 4.38405 6.54507C4.37872 6.20122 4.38163 5.85724 4.37868 5.51331C4.37407 4.98191 4.59254 4.57759 5.05795 4.31367C5.28047 4.18752 5.50024 4.05558 5.72854 3.9408C6.24641 3.68045 6.63207 3.29414 6.89422 2.77695C7.04022 2.48891 7.19415 2.20507 7.38026 1.93873C7.62086 1.59447 7.95726 1.44391 8.36088 1.42396C8.58271 1.41299 8.80551 1.42202 9.13269 1.42202Z" fill="#FEFEFE"/>
<path fill-rule="evenodd" clip-rule="evenodd" d="M16.8645 17.0382C17.3623 18.2293 17.86 19.4204 18.3578 20.6116C18.4434 20.8163 18.5314 21.0201 18.6135 21.2262C18.6422 21.2984 18.6925 21.3779 18.6243 21.4533C18.5547 21.5302 18.4753 21.4826 18.3999 21.4583C17.6195 21.2073 16.8377 20.9606 16.0601 20.7012C15.9053 20.6495 15.8418 20.6827 15.7718 20.8264C15.418 21.553 15.0521 22.2736 14.6897 22.9961C14.6513 23.0725 14.6264 23.1624 14.5112 23.1617C14.3914 23.161 14.3762 23.0619 14.3445 22.9864C13.7166 21.4927 13.0909 19.9979 12.4659 18.5029C12.4456 18.4544 12.4373 18.4008 12.4233 18.3497C13.0607 18.1612 13.5633 17.7122 14.162 17.449C14.3545 17.3644 14.5574 17.3255 14.7679 17.326C15.0706 17.3269 15.3735 17.3187 15.6758 17.3291C16.1011 17.3438 16.5037 17.2804 16.8645 17.0382Z" fill="#FCCDD3"/>
<path fill-rule="evenodd" clip-rule="evenodd" d="M6.61414 8.6587C6.61414 8.82691 6.6173 8.99515 6.61293 9.16323C6.61042 9.26036 6.63355 9.31241 6.74635 9.31039C7.06221 9.3048 7.37823 9.30929 7.69417 9.30792C7.86658 9.30715 7.95798 9.20912 7.96376 9.04545C7.97254 8.79683 7.97395 8.54744 7.96425 8.29895C7.95769 8.12929 7.86916 8.02584 7.68212 8.02807C7.37964 8.03167 7.07701 8.03304 6.77462 8.02718C6.64973 8.02471 6.60763 8.07477 6.61265 8.19461C6.61908 8.34905 6.61418 8.50398 6.61414 8.6587ZM6.15819 9.28084C6.15819 8.77526 6.16337 8.26964 6.15491 7.76427C6.15241 7.61784 6.18565 7.56519 6.34273 7.56891C6.80046 7.57971 7.25868 7.57194 7.71669 7.573C8.10418 7.57385 8.40265 7.8493 8.41668 8.23338C8.42732 8.52284 8.42764 8.81331 8.41652 9.10272C8.4024 9.46904 8.1155 9.74793 7.74917 9.75687C7.43954 9.76444 7.12922 9.76736 6.81983 9.7553C6.66275 9.74918 6.62579 9.80495 6.63068 9.95199C6.64051 10.2482 6.63857 10.5452 6.6283 10.8414C6.62397 10.9668 6.57596 11.0818 6.42014 11.0961C6.29529 11.1076 6.2106 11.0493 6.16911 10.9372C6.15131 10.8891 6.15859 10.8308 6.15851 10.7772C6.15791 10.2784 6.15819 9.77962 6.15819 9.28084Z" fill="#6534FF"/>
<path fill-rule="evenodd" clip-rule="evenodd" d="M16.4414 8.66693C16.4414 8.83513 16.4458 9.00346 16.4398 9.17142C16.436 9.2781 16.4786 9.31169 16.5818 9.31016C16.8909 9.30554 17.2002 9.30797 17.5094 9.30854C17.6915 9.30886 17.7864 9.2112 17.7918 9.03721C17.7993 8.78855 17.8019 8.53912 17.7906 8.29074C17.7829 8.11922 17.6858 8.02452 17.5011 8.02767C17.2054 8.03269 16.9094 8.03382 16.6138 8.02682C16.4815 8.02367 16.4326 8.07163 16.4394 8.20284C16.4474 8.35716 16.4413 8.51221 16.4414 8.66693ZM15.9854 9.27454C15.9854 8.769 15.9917 8.26334 15.9816 7.75801C15.9785 7.60187 16.0289 7.56649 16.1761 7.56941C16.634 7.57847 17.0921 7.57175 17.5502 7.57305C17.9343 7.5741 18.2315 7.85453 18.2442 8.23959C18.2536 8.5224 18.253 8.80595 18.2444 9.08877C18.2329 9.46626 17.9468 9.74904 17.5701 9.75717C17.2537 9.76405 16.9369 9.76352 16.6205 9.75652C16.4973 9.75381 16.4557 9.79396 16.4588 9.91776C16.4659 10.2074 16.4653 10.4974 16.459 10.7872C16.4557 10.9424 16.4248 11.0972 16.2209 11.0948C16.0423 11.0927 15.9832 10.9782 15.9842 10.8113C15.9873 10.2991 15.9854 9.7868 15.9854 9.27454Z" fill="#6534FF"/>
<path fill-rule="evenodd" clip-rule="evenodd" d="M11.2251 9.33835C11.212 9.27295 11.2115 9.20148 11.1836 9.14316C11.021 8.80327 10.8567 8.46391 10.6827 8.12977C10.6069 7.98428 10.4874 7.98569 10.4109 8.13423C10.2447 8.45719 10.0888 8.78562 9.93414 9.11438C9.85426 9.28412 9.87553 9.45609 9.95666 9.62061C10.1025 9.91642 10.2512 10.2108 10.3983 10.5061C10.4319 10.5736 10.466 10.6456 10.555 10.6417C10.6314 10.6383 10.6657 10.5759 10.6969 10.5135C10.8505 10.2066 11.0058 9.90043 11.1594 9.59345C11.199 9.51416 11.2222 9.43006 11.2251 9.33835ZM9.43576 9.34369C9.425 9.22135 9.43349 9.10446 9.48316 9.00053C9.66887 8.612 9.84302 8.21614 10.0566 7.84315C10.2857 7.443 10.8723 7.47238 11.0834 7.88067C11.2596 8.22144 11.4254 8.56764 11.5933 8.91263C11.7284 9.19022 11.7294 9.47292 11.5993 9.75089C11.4482 10.0739 11.2868 10.3922 11.1318 10.7134C11.0136 10.9582 10.8373 11.109 10.5494 11.0991C10.2759 11.0898 10.1027 10.9476 9.98809 10.7081C9.84581 10.4105 9.69641 10.1163 9.54645 9.82252C9.46823 9.66921 9.41986 9.51109 9.43576 9.34369Z" fill="#6534FF"/>
<path fill-rule="evenodd" clip-rule="evenodd" d="M13.8702 8.71684C13.8529 8.71724 13.8355 8.7176 13.8181 8.71801C13.7562 8.92802 13.6891 9.13669 13.6339 9.3484C13.5887 9.52134 13.4192 9.75325 13.5368 9.85224C13.6516 9.94881 13.9077 9.87576 14.1018 9.87997C14.1861 9.88183 14.2023 9.85366 14.1775 9.77182C14.0715 9.42125 13.9721 9.06866 13.8702 8.71684ZM14.7278 11.0966C14.5939 11.0991 14.5392 11.0089 14.5048 10.9006C14.4601 10.7597 14.41 10.6192 14.3816 10.4748C14.3581 10.3549 14.2971 10.3254 14.1861 10.3282C13.9508 10.3341 13.715 10.3342 13.4797 10.3281C13.3743 10.3254 13.3207 10.3623 13.2947 10.4655C13.2571 10.6152 13.2007 10.7602 13.1633 10.91C13.1242 11.0666 13.0242 11.1249 12.879 11.0887C12.7123 11.0471 12.6817 10.9133 12.7219 10.7692C12.8195 10.4199 12.9276 10.0735 13.031 9.72569C13.2205 9.08805 13.4096 8.45037 13.5986 7.81257C13.6278 7.71414 13.6574 7.6081 13.7696 7.58147C13.907 7.54885 14.0268 7.58058 14.0722 7.73769C14.3669 8.75763 14.6624 9.77729 14.9538 10.7982C15.0017 10.966 14.8914 11.1016 14.7278 11.0966Z" fill="#6534FF"/>
<path fill-rule="evenodd" clip-rule="evenodd" d="M6.61374 8.65868C6.61378 8.50396 6.61864 8.34903 6.61221 8.19459C6.60723 8.07475 6.64933 8.02469 6.77422 8.02716C7.07661 8.03302 7.37921 8.03165 7.68168 8.02805C7.86877 8.02582 7.95726 8.12927 7.96385 8.29893C7.97351 8.54742 7.9721 8.79681 7.96332 9.04543C7.95758 9.2091 7.86618 9.30713 7.69377 9.3079C7.37783 9.30927 7.06177 9.30478 6.74595 9.31037C6.63311 9.31239 6.60998 9.26034 6.61249 9.16321C6.6169 8.99513 6.61374 8.82689 6.61374 8.65868Z" fill="#FEFEFE"/>
<path fill-rule="evenodd" clip-rule="evenodd" d="M16.442 8.66692C16.4419 8.5122 16.448 8.35715 16.4401 8.20283C16.4333 8.07162 16.4821 8.02366 16.6144 8.02682C16.91 8.03382 17.206 8.03269 17.5017 8.02767C17.6864 8.02451 17.7835 8.11922 17.7913 8.29074C17.8026 8.53911 17.8 8.78854 17.7924 9.0372C17.7871 9.21119 17.6921 9.30885 17.5101 9.30853C17.2008 9.30796 16.8916 9.30553 16.5824 9.31015C16.4793 9.31169 16.4366 9.27809 16.4404 9.17141C16.4464 9.00345 16.442 8.83513 16.442 8.66692Z" fill="#FEFEFE"/>
<path fill-rule="evenodd" clip-rule="evenodd" d="M11.2249 9.33835C11.2221 9.43006 11.1989 9.51417 11.1592 9.59345C11.0057 9.90043 10.8504 10.2066 10.6968 10.5135C10.6656 10.5759 10.6313 10.6383 10.5548 10.6417C10.4659 10.6456 10.4318 10.5736 10.3981 10.5061C10.2511 10.2108 10.1024 9.91642 9.95653 9.62061C9.8754 9.45609 9.85413 9.28412 9.93401 9.11438C10.0887 8.78563 10.2445 8.45719 10.4108 8.13423C10.4872 7.98569 10.6067 7.98428 10.6825 8.12977C10.8566 8.46391 11.0208 8.80327 11.1835 9.14316C11.2114 9.20148 11.2118 9.27295 11.2249 9.33835Z" fill="#FEFEFE"/>
<path fill-rule="evenodd" clip-rule="evenodd" d="M13.8708 8.71683C13.9727 9.06865 14.0721 9.42125 14.1781 9.77182C14.2029 9.85365 14.1867 9.88182 14.1024 9.87996C13.9083 9.87575 13.6522 9.9488 13.5374 9.85223C13.4198 9.75324 13.5893 9.52133 13.6344 9.3484C13.6897 9.13669 13.7568 8.92801 13.8187 8.718C13.8361 8.7176 13.8534 8.71723 13.8708 8.71683Z" fill="#FEFEFE"/>
</svg>
