<svg width="24" height="24" viewBox="0 0 24 24" fill="none" xmlns="http://www.w3.org/2000/svg">
<g clip-path="url(#clip0_1125_16583)">
<mask id="mask0_1125_16583" style="mask-type:alpha" maskUnits="userSpaceOnUse" x="0" y="0" width="25" height="24">
<path d="M0.000537394 12.1383L0.000497433 2.26178C0.000492378 1.01263 1.01312 4.09721e-06 2.26227 9.15138e-06C14.268 5.77276e-05 24.0005 9.73263 24.0006 21.7383C24.0006 22.9875 22.988 24.0001 21.7388 24.0001L11.7847 24C10.5003 24 9.45903 22.9398 9.45902 21.6554C9.459 17.7023 6.25436 14.4391 2.30125 14.439C1.03061 14.439 0.000542535 13.409 0.000537394 12.1383Z" fill="#C4C4C4"/>
</mask>
<g mask="url(#mask0_1125_16583)">
<path d="M0.000537394 12.1383L0.000497433 2.26178C0.000492378 1.01263 1.01312 4.09721e-06 2.26227 9.15138e-06C14.268 5.77276e-05 24.0005 9.73263 24.0006 21.7383C24.0006 22.9875 22.988 24.0001 21.7388 24.0001L11.7847 24C10.5003 24 9.45903 22.9398 9.45902 21.6554C9.459 17.7023 6.25436 14.4391 2.30125 14.439C1.03061 14.439 0.000542535 13.409 0.000537394 12.1383Z" fill="url(#paint0_radial_1125_16583)"/>
<ellipse rx="17.3727" ry="17.561" transform="matrix(1 4.03693e-06 4.03713e-06 1 1.73747 22.3091)" fill="url(#paint1_radial_1125_16583)"/>
<ellipse rx="12.7399" ry="12.8781" transform="matrix(1 4.03693e-06 4.03713e-06 1 1.73804 22.3093)" fill="url(#paint2_radial_1125_16583)"/>
</g>
</g>
<defs>
<radialGradient id="paint0_radial_1125_16583" cx="0" cy="0" r="1" gradientUnits="userSpaceOnUse" gradientTransform="translate(2.63865 21.7236) rotate(-50.1166) scale(22.3766 22.5773)">
<stop offset="0.764955" stop-color="#F62C00"/>
<stop offset="0.976385" stop-color="#8D54CD"/>
</radialGradient>
<radialGradient id="paint1_radial_1125_16583" cx="0" cy="0" r="1" gradientUnits="userSpaceOnUse" gradientTransform="translate(16.0858 19.0569) rotate(-46.5332) scale(19.2674 19.4422)">
<stop offset="0.82768" stop-color="#EDFC04"/>
<stop offset="1" stop-color="#FF8F14"/>
</radialGradient>
<radialGradient id="paint2_radial_1125_16583" cx="0" cy="0" r="1" gradientUnits="userSpaceOnUse" gradientTransform="translate(11.7748 13.9187) rotate(-49.4177) scale(14.0448 14.157)">
<stop offset="0.722199" stop-color="#12B1E6"/>
<stop offset="1" stop-color="#0CDC02"/>
</radialGradient>
<clipPath id="clip0_1125_16583">
<rect width="24" height="24" fill="white" transform="matrix(1 4.0461e-06 4.0461e-06 1 0.000488281 0)"/>
</clipPath>
</defs>
</svg>
