<svg width="24" height="24" viewBox="0 0 24 24" fill="none" xmlns="http://www.w3.org/2000/svg">
<path d="M16.3158 13.3409L13.4459 16.2215C13.2027 16.4655 13.203 16.8622 13.4464 17.1059L15.6395 19.3022C16.0133 19.6712 16.6243 19.6712 16.9981 19.3022L23.7202 12.6676C24.094 12.2987 24.094 11.6955 23.7202 11.3266L16.9981 4.69774C16.6243 4.32882 16.0133 4.32882 15.6395 4.69774L13.4464 6.89405C13.203 7.13779 13.2027 7.53449 13.4459 7.7785L16.3158 10.659C17.0634 11.3969 17.0634 12.6031 16.3158 13.3409Z" fill="#0A6E5C"/>
<path d="M7.68516 13.3409L10.5551 16.2215C10.7983 16.4655 10.798 16.8622 10.5546 17.1059L8.36148 19.3022C7.9877 19.6712 7.37665 19.6712 7.00286 19.3022L0.28082 12.6676C-0.0929557 12.2987 -0.0929557 11.6955 0.28082 11.3266L7.00286 4.69774C7.37665 4.32882 7.9877 4.32882 8.36148 4.69774L10.5546 6.89405C10.798 7.13779 10.7983 7.53449 10.5551 7.7785L7.68516 10.659C6.93759 11.3969 6.93759 12.6031 7.68516 13.3409Z" fill="#21BF73"/>
<path d="M8.43799 12.5481C8.13525 12.2454 8.13525 11.7546 8.43799 11.452L11.4524 8.43756C11.7551 8.13487 12.2458 8.13487 12.5485 8.43756L15.5629 11.452C15.8655 11.7546 15.8655 12.2454 15.5629 12.5481L12.5485 15.5624C12.2458 15.8652 11.7551 15.8652 11.4524 15.5624L8.43799 12.5481Z" fill="#21BF73"/>
</svg>
