<svg width="24" height="24" viewBox="0 0 24 24" fill="none" xmlns="http://www.w3.org/2000/svg">
<path d="M20.8815 11.941C22.3935 11.5492 23.7386 10.4215 23.7386 8.15403C23.7385 4.37898 20.5242 3.50035 16.4052 3.50028L0.000488281 3.5L0.00077488 20.5L6.90546 20.5001L6.90536 14.7306L15.0958 14.7308C16.3578 14.7308 17.0959 15.2293 17.0959 16.464L17.096 20.5003L24.0008 20.5004L24.0007 16.2504C24.0007 13.9355 22.6911 12.4752 20.8815 11.941ZM15.2148 10.1483L6.90528 10.1482L6.90525 8.48617L15.2148 8.48631C16.1196 8.48633 16.6671 8.60504 16.6671 9.31741C16.6672 10.0296 16.1196 10.1483 15.2148 10.1483Z" fill="black"/>
</svg>
