<svg width="24" height="24" viewBox="0 0 24 24" fill="none" xmlns="http://www.w3.org/2000/svg">
<g clip-path="url(#clip0_1125_16624)">
<path d="M5.00039 2.3003L23.6002 15.0001L19.0002 21.8001L0.400309 9.00035L5.00039 2.3003Z" fill="url(#paint0_linear_1125_16624)"/>
<path d="M23.6002 15C22.0001 17.3001 16.6001 16.4001 11.5002 12.8002C6.30022 9.30026 3.50028 4.60029 5.00031 2.30028C6.60034 0.000256127 12.0003 0.900191 17.1003 4.50013C22.3002 7.90007 25.1002 12.7 23.6002 15Z" fill="url(#paint1_linear_1125_16624)"/>
<path d="M19.0004 21.7C17.4004 24 12.0004 23.1001 6.90048 19.5002C1.80052 15.9002 -1.09943 11.3003 0.500603 8.90025C2.10063 6.60023 7.50062 7.50017 12.6006 11.1001C17.7005 14.7 20.5005 19.4 19.0004 21.7Z" fill="url(#paint2_linear_1125_16624)"/>
<path d="M23.6005 15L19.0005 21.8C17.4004 24.1 12.0004 23.1001 6.90049 19.6002C5.9005 18.9002 5.00051 18.2002 4.10051 17.4002C4.80052 17.3002 5.70052 16.9002 6.60053 15.9002C8.20055 14.2002 9.00056 13.8002 9.70056 13.9001C10.4006 13.9001 11.2005 14.6001 12.5005 16.3001C13.8005 18.0001 15.6005 18.5001 16.7005 17.6001C16.8005 17.5001 16.9005 17.5001 17.0005 17.4001C17.9005 16.7 18.2005 16.4 19.9006 13.2C20.3006 12.4 21.7006 11.1 23.6006 11.7C24.1006 13 24.1006 14.1 23.6005 15Z" fill="#0E0F23"/>
<path fill-rule="evenodd" clip-rule="evenodd" d="M22.9001 14.6C21.5001 16.6 16.6001 15.6001 11.9001 12.3002C7.10018 9.00022 4.30024 4.80026 5.70026 2.80024C7.10028 0.800221 12.0003 1.80016 16.7002 5.1001C21.4002 8.40005 24.2001 12.6 22.9001 14.6ZM18.5002 11.6001C17.8001 12.6001 15.4001 12.1001 13.0002 10.5001C10.7002 8.90018 9.30021 6.80019 10.0002 5.80019C10.7002 4.80018 13.1002 5.30015 15.5002 6.90012C17.8002 8.50009 19.2002 10.6001 18.5002 11.6001Z" fill="white"/>
<path d="M4.60068 4.60031C4.60068 4.50031 4.50068 4.40031 4.40068 4.50031C4.30068 4.60031 4.20068 4.60031 4.20068 4.70031C4.30068 5.00031 4.40067 5.20031 4.40067 5.40031C4.40067 5.50031 4.50067 5.60031 4.60067 5.50031C4.70067 5.50031 4.80067 5.40031 4.70067 5.30031C4.70068 5.10031 4.70068 4.90031 4.60068 4.60031Z" fill="white"/>
<path d="M5.10029 6.20026C5.10029 6.10026 5.00029 6.00026 4.90029 6.10026C4.80029 6.20026 4.80029 6.20026 4.80029 6.30026C5.90026 8.80025 8.20023 11.5002 11.2002 13.5002C11.3002 13.6002 11.4002 13.5002 11.5002 13.5002C11.6002 13.4002 11.5002 13.3002 11.5002 13.2002C8.40023 11.2002 6.20026 8.60024 5.10029 6.20026Z" fill="white"/>
<path d="M17.2005 16.0001C17.1005 16.0001 17.0005 16.0001 17.0005 16.1001C17.0005 16.2001 17.0005 16.3001 17.1005 16.3001C17.4005 16.4001 17.8005 16.5001 18.1005 16.6001C18.2005 16.6001 18.3005 16.6001 18.3005 16.5001C18.3005 16.4001 18.3005 16.3001 18.2005 16.3001C17.9005 16.2001 17.5005 16.1001 17.2005 16.0001Z" fill="white"/>
<path d="M19.0003 16.4C18.9003 16.4 18.8003 16.5 18.8003 16.6C18.8003 16.7 18.9003 16.8 19.0003 16.8C19.8003 16.9 20.7003 17 21.4003 16.9C21.5003 16.9 21.6003 16.8 21.6003 16.7C21.6003 16.6 21.5003 16.5 21.4003 16.5C20.6003 16.6 19.8003 16.5 19.0003 16.4Z" fill="white"/>
</g>
<defs>
<linearGradient id="paint0_linear_1125_16624" x1="8.64461" y1="0.494554" x2="12.3333" y2="13.1606" gradientUnits="userSpaceOnUse">
<stop stop-color="#03B8FF"/>
<stop offset="1" stop-color="#FA52A0"/>
</linearGradient>
<linearGradient id="paint1_linear_1125_16624" x1="11.6821" y1="-0.390206" x2="15.3709" y2="12.276" gradientUnits="userSpaceOnUse">
<stop stop-color="#03B8FF"/>
<stop offset="1" stop-color="#FA52A0"/>
</linearGradient>
<linearGradient id="paint2_linear_1125_16624" x1="5.61669" y1="1.37629" x2="9.3055" y2="14.0425" gradientUnits="userSpaceOnUse">
<stop stop-color="#03B8FF"/>
<stop offset="1" stop-color="#FA52A0"/>
</linearGradient>
<clipPath id="clip0_1125_16624">
<rect width="24" height="24" fill="white" transform="matrix(1 -1.21383e-05 -1.21383e-05 1 0.000488281 0.000305176)"/>
</clipPath>
</defs>
</svg>
