<svg width="24" height="24" viewBox="0 0 24 24" fill="none" xmlns="http://www.w3.org/2000/svg">
<g clip-path="url(#clip0_1125_17594)">
<path d="M14.3449 12H21.5004L17.6418 21.7564C17.1046 23.1177 15.8346 24.0001 14.4182 24.0001H7.2627L11.1213 14.2437C11.6586 12.8572 12.9285 12 14.3449 12Z" fill="#94C5FF"/>
<path d="M21.5003 12L17.1533 17.6975C16.4939 18.6051 15.4927 19.1849 14.3204 19.1849H9.11865L11.0968 14.2185C11.6341 12.8824 12.904 12 14.3204 12H21.5003Z" fill="#1A32AF"/>
<path d="M11.9519 6.00003H19.1074L15.2488 15.7564C14.7115 17.1177 13.4416 18.0001 12.0251 18.0001H4.86963L8.72823 8.24373C9.2655 6.88238 10.5598 6.00003 11.9519 6.00003Z" fill="#0092FF"/>
<path d="M19.1312 6.00003L14.7842 11.6975C14.1248 12.6051 13.1235 13.1849 11.9513 13.1849H6.74951L8.72765 8.21852C9.26493 6.88239 10.5348 6.00003 11.9513 6.00003H19.1312Z" fill="#1A32AF"/>
<path d="M9.58273 0H16.7382L12.8796 9.75632C12.3424 11.1177 11.0724 12 9.65599 12H2.50049L6.35909 2.2437C6.89636 0.882353 8.16628 0 9.58273 0Z" fill="#0055FF"/>
</g>
<defs>
<clipPath id="clip0_1125_17594">
<rect width="24" height="24" fill="white" transform="translate(0.000488281)"/>
</clipPath>
</defs>
</svg>
