<svg width="40" height="40" viewBox="0 0 40 40" fill="none" xmlns="http://www.w3.org/2000/svg">
<g clip-path="url(#clip0_8424_43310)">
<path d="M-7 0H46.3333V40H-7V0Z" fill="#E41E20"/>
<path d="M15.6667 7.77502C15.2834 7.77502 14.6417 7.90002 14.6501 8.19169C13.5667 8.01669 13.4584 8.45836 13.5251 8.85836C13.6251 8.70002 13.7501 8.60836 13.8501 8.60002C13.9917 8.57502 14.1417 8.62502 14.3001 8.71669C14.4494 8.81038 14.5842 8.92549 14.7001 9.05836C14.3167 9.15002 14.0167 9.09169 13.7167 9.04169C13.5472 9.00556 13.386 8.9377 13.2417 8.84169C13.1167 8.75836 13.0751 8.67502 12.8834 8.48336C12.6584 8.25002 12.4167 8.31669 12.4917 8.67502C12.6667 9.00836 12.9584 9.15836 13.3251 9.22502C13.5001 9.25002 13.7667 9.30836 14.0667 9.30836C14.3667 9.30836 14.7001 9.26669 14.8834 9.30836C14.7751 9.37502 14.6501 9.50002 14.4001 9.54169C14.1501 9.59169 13.7751 9.39169 13.5417 9.34169C13.5667 9.53336 13.8167 9.71669 14.3001 9.81669C15.1001 9.98336 15.7584 10.1167 16.2001 10.3584C16.5493 10.5531 16.8578 10.8134 17.1084 11.125C17.5001 11.5834 17.5251 11.9417 17.5417 12.025C17.6251 12.7584 17.3667 13.175 16.8834 13.3084C16.6501 13.3667 16.2167 13.25 16.0667 13.0667C15.9001 12.8834 15.7584 12.5667 15.8001 12.0667C15.8417 11.8834 16.0584 11.375 15.8751 11.275C15.0061 10.7975 14.107 10.3772 13.1834 10.0167C12.9751 9.93336 12.8084 10.2167 12.7417 10.3334C12.1264 10.2476 11.5379 10.0258 11.019 9.68421C10.5001 9.34259 10.0637 8.88967 9.74173 8.35836C9.39173 7.72502 8.80007 8.35836 8.90007 8.96669C9.0584 9.63336 9.56673 10.1167 10.1834 10.4667C10.8084 10.8084 11.6001 11.15 12.3917 11.1334C12.8251 11.2167 12.8167 11.7667 12.3084 11.875C11.3001 11.875 10.4917 11.8584 9.7334 11.125C9.1584 10.6 8.84173 11.225 9.00006 11.575C9.2834 12.6667 10.8417 12.975 12.4167 12.625C13.0334 12.525 12.6667 13.175 12.5001 13.1834C11.8334 13.6584 10.6584 14.1167 9.61673 13.1834C9.14173 12.8167 8.81673 13.1167 9.00006 13.6417C9.4584 15.0167 11.2251 14.725 12.4334 14.0584C12.7417 13.8834 13.0251 14.2834 12.6501 14.5917C11.1417 15.6417 10.3917 15.6584 9.7084 15.2584C8.8584 14.9167 8.79173 15.8584 9.29173 16.175C9.85006 16.5084 11.2751 16.2584 12.3251 15.5917C12.7751 15.2584 12.7917 15.7834 12.5084 15.9917C11.2667 17.0667 10.7751 17.35 9.4834 17.175C8.84173 17.125 8.85006 17.9167 9.35006 18.225C10.0417 18.65 11.3917 17.95 12.4334 17.075C12.8751 16.8417 12.9501 17.225 12.7334 17.6834C12.2721 18.3361 11.645 18.8539 10.9167 19.1834C10.3334 19.4084 9.7834 19.375 9.39173 19.2417C8.9084 19.075 8.85006 19.575 9.11673 20.025C9.27506 20.3 9.9334 20.3834 10.6501 20.1334C11.3667 19.8834 12.1334 19.2834 12.6584 18.5917C13.1167 18.1834 13.0667 18.725 12.8501 19.1084C11.8001 20.775 10.8334 21.3917 9.5584 21.2917C9.00006 21.1917 8.86673 21.625 9.22506 22.0417C9.8584 22.5584 10.6417 22.5417 11.3417 22.025C11.9501 21.4417 13.1251 20.1584 13.7417 19.475C14.1751 19.1334 14.3167 19.475 14.1834 20.175C14.0667 20.575 13.7834 21.0084 12.9917 21.3084C12.4501 21.6167 12.8584 22.0417 13.2584 22.0584C13.4834 22.0584 13.9334 21.7917 14.2834 21.4084C14.7334 20.8917 14.7667 20.55 15.0167 19.75C15.2501 19.3667 15.6751 19.55 15.6751 19.95C15.4667 20.75 15.3001 20.8917 14.8834 21.2167C14.4917 21.5917 15.1584 21.7167 15.3834 21.5584C16.0334 21.125 16.2667 20.5584 16.4834 20.0417C16.6501 19.675 17.1001 19.85 16.8834 20.4584C16.3834 21.9084 15.5501 22.475 14.1084 22.775C13.9667 22.8 13.8751 22.8834 13.9251 23.05L14.5084 23.6334C13.6167 23.9 12.8917 24.05 11.9917 24.3L10.7584 23.4834C10.6501 23.2167 10.5917 22.8 9.94173 23.0917C9.5084 22.8917 9.30006 22.9667 9.0584 23.175C9.4084 23.175 9.5584 23.275 9.70006 23.4334C9.8834 23.9084 10.3001 23.9584 10.7251 23.825C11.0001 24.05 11.1417 24.2334 11.4251 24.4667L10.0334 24.425C9.5334 23.9 9.15007 23.925 8.80007 24.3417C8.52507 24.3834 8.41673 24.3834 8.2334 24.7084C8.51673 24.5917 8.70006 24.5584 8.82506 24.6834C9.35006 24.9917 9.69173 24.925 9.95006 24.6834L11.4084 24.775C11.2251 24.9417 10.9751 25.025 10.7834 25.175C10.0334 24.9584 9.6334 25.2584 9.50006 25.8667C9.39473 26.1105 9.36008 26.3791 9.40007 26.6417C9.46673 26.3917 9.59173 26.1834 9.8084 26.0584C10.4751 26.225 10.7251 25.95 10.7667 25.55C11.1001 25.2834 11.5834 25.225 11.9084 24.9584C12.2917 25.075 12.4751 25.15 12.8584 25.275C12.9917 25.6917 13.3001 25.85 13.8001 25.7417C14.3834 25.7584 14.2834 26.0084 14.3334 26.2C14.5001 25.925 14.4917 25.65 14.1251 25.4C13.9917 25.0417 13.6917 24.875 13.3084 25.0834C12.9417 24.9834 12.8501 24.8334 12.4834 24.725C13.4001 24.4334 14.0501 24.3667 14.9667 24.075L15.6084 24.6417C15.7334 24.7167 15.8501 24.7334 15.9251 24.6417C16.5001 23.8084 16.7584 23.0834 17.2834 22.5334C17.4917 22.3 17.7501 22 18.0334 21.925C18.1751 21.8834 18.3501 21.9084 18.4667 22.0334C18.5751 22.15 18.6667 22.375 18.6334 22.7167C18.5751 23.1917 18.4584 23.35 18.3251 23.6334C18.1834 23.925 18.0251 24.1 17.8501 24.325C17.5167 24.7667 17.0667 25.025 16.8001 25.2C16.2667 25.5417 16.0501 25.3917 15.6334 25.3667C15.1001 25.425 14.9667 25.6834 15.4001 26.0417C15.8001 26.2584 16.1667 26.2834 16.4667 26.225C16.7167 26.175 17.0167 25.85 17.2334 25.675C17.4667 25.4 17.8667 25.725 17.5917 26.05C17.1001 26.6334 16.6167 27.0167 16.0084 27.0084C15.3667 27.0917 15.4917 27.45 15.9084 27.625C16.6751 27.9334 17.3584 27.35 17.7084 26.9584C17.9751 26.6667 18.1667 26.6584 18.1251 27.1167C17.8501 27.9417 17.4917 28.2584 16.8917 28.3C16.4084 28.25 16.4001 28.6334 16.7584 28.8834C17.5584 29.4334 18.1417 28.4834 18.4167 27.9167C18.6084 27.4 18.9084 27.6417 18.9417 28.0667C18.9417 28.6417 18.6917 29.1 18.0001 29.6834C18.5251 30.525 19.1417 31.3834 19.6667 32.225L21.2667 14.3917L19.6667 11.5834C19.5001 11.4334 18.9334 10.7667 18.7917 10.6667C18.7334 10.6167 18.7084 10.5834 18.7834 10.55C18.8584 10.5167 19.0334 10.4834 19.1584 10.4667C18.8251 10.125 18.5251 10.0167 17.8834 9.83336C18.0417 9.76669 18.1917 9.80002 18.6584 9.78336C18.3721 9.39862 17.9817 9.10371 17.5334 8.93336C17.8834 8.68336 17.9501 8.66669 18.3001 8.37502C17.748 8.33238 17.2027 8.22612 16.6751 8.05836C16.3599 7.90861 16.0219 7.81283 15.6751 7.77502H15.6667ZM15.7334 8.47502C16.0501 8.47502 16.2417 8.58336 16.2417 8.71669C16.2417 8.85002 16.0501 8.95836 15.7334 8.95836C15.4167 8.95836 15.2167 8.83336 15.2167 8.70836C15.2167 8.57502 15.4167 8.47502 15.7334 8.47502Z" fill="black"/>
</g>
<defs>
<clipPath id="clip0_8424_43310">
<rect width="40" height="40" rx="20" fill="white"/>
</clipPath>
</defs>
</svg>
