<svg width="40" height="40" viewBox="0 0 40 40" fill="none" xmlns="http://www.w3.org/2000/svg">
<g clip-path="url(#clip0_8424_43354)">
<path d="M19.666 0H46.3327V40H19.666V0Z" fill="white"/>
<path d="M-7 0H19.6667V40H-7V0Z" fill="#006233"/>
<path d="M28.3331 15C27.2324 13.0936 25.5335 11.6036 23.4997 10.7612C21.4659 9.91879 19.211 9.771 17.0847 10.3407C14.9583 10.9105 13.0794 12.1659 11.7393 13.9124C10.3992 15.6588 9.67285 17.7987 9.67285 20C9.67285 22.2013 10.3992 24.3412 11.7393 26.0876C13.0794 27.8341 14.9583 29.0895 17.0847 29.6593C19.211 30.229 21.4659 30.0812 23.4997 29.2388C25.5335 28.3964 27.2324 26.9064 28.3331 25C27.2972 26.2939 25.885 27.234 24.2916 27.6905C22.6983 28.1471 21.0025 28.0975 19.4386 27.5485C17.8747 26.9996 16.5199 25.9784 15.5614 24.6262C14.6029 23.274 14.0881 21.6575 14.0881 20C14.0881 18.3425 14.6029 16.726 15.5614 15.3738C16.5199 14.0216 17.8747 13.0004 19.4386 12.4515C21.0025 11.9026 22.6983 11.8529 24.2916 12.3095C25.885 12.766 27.2972 13.7062 28.3331 15ZM28.6664 20L19.6664 17.0667L25.2664 24.7333V15.2667L19.6664 22.9333L28.6664 20Z" fill="#D21034"/>
</g>
<defs>
<clipPath id="clip0_8424_43354">
<rect width="40" height="40" rx="20" fill="white"/>
</clipPath>
</defs>
</svg>
