<svg width="56" height="56" viewBox="0 0 56 56" fill="none" xmlns="http://www.w3.org/2000/svg">
<g clip-path="url(#clip0_3318_23714)">
<path d="M27.9998 0C43.4637 0 55.9998 12.5361 55.9998 28C55.9998 43.4639 43.4637 56 27.9998 56C27.9998 54.7827 24.3477 28 24.3477 28L27.9998 0Z" fill="#F0F0F0"/>
<path d="M28 56C12.5361 56 0 43.4639 0 28C0 12.5361 12.5361 0 28 0" fill="#496E2D"/>
<path d="M34.016 22.6293L31.7187 25.7951L27.998 24.5885L30.2991 27.7516L28.002 30.9175L31.7212 29.7066L34.0222 32.8696L34.0198 28.9583L37.7391 27.7473L34.0186 26.5409L34.016 22.6293Z" fill="#D80027"/>
<path d="M30.3226 35.9131C25.9524 35.9131 22.4095 32.3702 22.4095 28.0001C22.4095 23.6299 25.9524 20.087 30.3226 20.087C31.6852 20.087 32.9674 20.4315 34.0867 21.0381C32.3306 19.3208 29.9292 18.2609 27.2791 18.2609C21.9003 18.2609 17.54 22.6212 17.54 27.9999C17.54 33.3787 21.9004 37.739 27.2791 37.739C29.9293 37.739 32.3307 36.6791 34.0867 34.9618C32.9674 35.5686 31.6852 35.9131 30.3226 35.9131Z" fill="#D80027"/>
</g>
<defs>
<clipPath id="clip0_3318_23714">
<rect width="56" height="56" fill="white"/>
</clipPath>
</defs>
</svg>
