<svg width="40" height="40" viewBox="0 0 40 40" fill="none" xmlns="http://www.w3.org/2000/svg">
<g clip-path="url(#clip0_8424_43254)">
<path d="M-6.9502 0H46.3831V40H-6.9502V0Z" fill="#000066"/>
<path d="M-7 20L46.3333 0V40L-7 20Z" fill="#BD1021"/>
<path d="M-1.97461 20.0001L46.3587 2.14172V37.8584" fill="white"/>
<path d="M32.5496 22.5333C32.9746 22.5583 32.9663 22.9833 32.9663 22.9833L34.4663 23.0166C34.6579 22.4916 34.8663 22.55 35.2329 22.8166C35.4561 22.9683 35.7004 23.0863 35.9579 23.1666C36.0996 22.4166 37.1663 22.5666 37.1663 22.5666C37.6329 21.4833 37.6663 21.4916 37.3913 21.3583C37.228 21.2756 37.0942 21.1447 37.0079 20.9833C36.7579 20.675 36.6246 20.225 36.5913 19.95C36.5579 19.675 36.2413 20.0833 36.1746 20C36.1246 19.9166 35.6496 19.9666 35.6496 19.9666C35.7663 20.0916 35.3663 20.0166 35.3663 20.0166C35.4079 20.05 35.3663 20.1583 35.3663 20.1583C35.3329 20.1083 35.0246 20.0583 35.0246 20.0583C35.0014 20.1074 34.9704 20.1524 34.9329 20.1916C34.7663 20.125 34.4329 20.1333 34.4329 20.1333C34.1141 20.1225 33.7988 20.2035 33.5246 20.3666C33.3913 20.4416 32.9079 20.6833 32.4996 21.075C32.1079 21.4583 31.8829 21.4083 31.8829 21.4083C31.7663 21.8416 30.8163 22.3666 30.8163 22.3666C30.6663 22.5 30.1829 22.5666 29.9413 22.3666C29.6996 22.1666 29.9413 21.7916 29.9413 21.7916C30.0413 21.625 30.1246 21.6333 30.1329 21.0416C30.1413 20.65 30.5496 20.3333 30.9663 19.875C31.4913 19.3083 32.2163 18.375 32.2163 18.375C32.2163 18.6583 32.3663 18.7083 32.3663 18.7083C32.5079 18.4166 32.7163 18.1833 32.7163 18.1833C32.7246 18.2083 32.7579 18.2166 32.7579 18.2166C32.9246 18 33.0079 17.9166 33.0079 17.9166C32.9663 17.8916 32.5079 17.9166 32.0913 18.2833C31.6746 18.65 31.3913 18.5333 31.3913 18.5333C31.0996 18.4333 31.0746 18.2 31.0746 18.2C30.8663 17.2916 31.6913 16.6416 31.6913 16.6416C30.5746 16.375 31.3829 14.95 32.7746 14.35C34.1579 13.75 34.1413 13.475 34.1413 13.475C34.2023 13.5512 34.2528 13.6353 34.2913 13.725C34.2996 13.725 34.4079 13.5666 35.2079 13.2166C36.0079 12.8583 36.3913 12.55 36.3913 12.55C36.4913 12.75 36.4746 12.8833 36.4746 12.8833C38.6663 12.125 40.8079 10.3666 40.8079 10.3666C40.8746 10.5083 40.8496 10.7333 40.8496 10.7333C41.1996 10.4 42.4913 9.6333 42.4913 9.6333C42.5006 9.77212 42.4693 9.91065 42.4013 10.032C42.3332 10.1533 42.2313 10.2522 42.1079 10.3166C42.1402 10.3766 42.1627 10.4413 42.1746 10.5083C42.5809 10.254 42.981 9.99007 43.3746 9.71663C43.7329 10.025 43.4079 10.5333 43.4079 10.5333C43.5413 10.5083 43.6246 10.4 43.6246 10.4C43.7246 10.9333 43.1329 11.4 43.1329 11.4C43.2413 11.4 43.4079 11.2916 43.4079 11.2916C43.2996 11.875 42.2079 12.5083 42.2079 12.5083C42.3663 12.6583 42.2079 12.8416 42.0746 12.925C41.9496 13.0083 41.7163 13.2 41.7913 13.275C41.8579 13.3583 42.3496 13.0083 42.3496 13.0083C42.4329 13.25 41.8079 13.725 41.8079 13.725C42.2413 13.7833 43.4413 13.2333 43.4413 13.2333C43.3496 13.7 42.8913 14.0666 42.3329 14.275C41.7746 14.4833 41.7996 14.525 41.7996 14.525C41.8996 14.5916 42.6746 14.375 42.6746 14.375C42.4413 14.8916 41.6329 15.25 41.6329 15.25C41.8579 15.4416 42.1579 15.2166 42.4663 15.0083C42.8298 14.7797 43.2222 14.6003 43.6329 14.475C44.0746 14.3166 44.3996 14.4333 44.3996 14.4333C44.7829 14.3166 45.0996 14.4833 45.0996 14.4833C45.8246 14.5416 45.8996 14.8083 45.8996 14.8083C45.9829 14.825 46.0413 14.8583 46.2329 15C46.4079 15.1333 46.3996 15.55 46.3996 15.7666C46.3829 15.9666 46.3246 15.9666 46.2913 16.0166C46.2579 16.0833 46.2496 16.15 46.2496 16.225C46.2496 16.3083 46.0663 16.8 44.9413 16.8H43.2496C43.1496 16.8 43.0413 16.8583 43.0413 16.8583C42.5663 17.0916 42.8163 16.6916 42.2579 17.1583C41.6913 17.6166 41.4079 17.5416 41.4079 17.5416C41.0932 17.8634 40.7501 18.1563 40.3829 18.4166C40.0496 18.6333 40.1079 18.6083 40.4079 18.7333C40.7079 18.8583 41.1413 18.7333 41.1413 18.7333C40.8579 18.925 41.0579 19.0166 41.0579 19.0166C41.4246 18.7916 41.6579 18.875 41.6579 18.875C41.7746 19.2 41.3413 19.7083 41.3413 19.7083C41.5079 19.7333 41.8246 19.7083 41.8246 19.7083C41.7413 19.9333 41.4413 20.175 41.2079 20.2416C40.9829 20.325 41.0163 20.35 41.0913 20.4916C41.1496 20.625 41.0996 20.7666 41.0996 20.7666C40.6996 20.4916 40.6829 20.7333 40.6829 20.7333C40.6413 21.0666 40.6496 21.5333 40.6496 21.5333C40.3663 21.3916 40.3579 21.575 40.3579 21.575C40.2746 21.875 39.9329 22.2166 39.9329 22.2166C39.9163 22.0333 39.7496 21.9833 39.7496 21.9833C39.5663 22.3333 39.2413 22.5416 39.2413 22.5416C39.1996 22.8333 39.2829 23.2583 39.2829 23.2583C39.0663 23.2083 38.9913 23.2083 38.9496 23.2583C38.9246 23.3166 38.9996 23.3416 38.9996 23.3416L41.7829 23.4083C41.8246 23.4083 41.9913 23.4333 41.9913 23.725C41.9913 24.0333 41.7413 24.05 41.7413 24.05L38.7079 23.975C38.7079 23.975 38.7163 24.0583 38.5579 24.1416C38.3996 24.225 38.4579 24.05 38.4163 24.425C38.3663 24.7916 37.7663 24.3916 37.7663 24.3916C37.6663 24.5416 37.4329 24.725 37.4329 24.725C37.2913 24.3083 37.1496 24.1916 36.9329 24.5416C36.7163 24.9 37.3329 24.8416 37.3329 24.8416C37.3329 24.8416 40.8996 24.3166 41.0913 24.3C41.2829 24.275 41.4996 24.2916 41.5913 24.5583C41.6746 24.8333 41.1496 24.875 41.1496 24.875L37.4829 25.275C37.4079 25.4916 37.1079 25.475 37.1079 25.475C37.1329 25.6833 36.9163 25.8083 36.8079 25.8916C36.6913 25.9583 36.3413 25.9333 36.3413 25.9333C35.9246 26.2166 35.7079 25.9916 35.7079 25.9916C35.4329 26.1083 35.2579 26.0583 35.0329 25.9583C34.7996 25.8583 34.8246 25.5833 34.8246 25.5833L32.5079 25.8333C32.4411 25.8548 32.3789 25.8887 32.3246 25.9333C32.4079 26.0416 32.1579 26.2916 32.1579 26.2916C32.2329 26.3333 32.3663 26.4666 32.3829 26.75C32.3996 27.0583 32.0079 27.1083 32.1996 27.3333C32.3913 27.5416 32.7579 27.3583 33.1579 27.1666C33.5579 26.975 33.9496 27 34.1163 27C34.2829 27 34.7663 27.1333 35.0663 27.2333C35.3663 27.3333 35.4663 27.2666 35.4829 27.1166C35.4996 26.975 35.6413 26.925 35.6413 26.925C35.5996 27.075 35.6829 27.1416 35.6829 27.1416C35.7914 27.1243 35.8958 27.0876 35.9913 27.0333C35.9746 27.15 35.8246 27.2166 35.8246 27.2166C35.5413 27.4083 35.9413 27.3416 35.9413 27.3416C36.7329 27.175 37.0246 27.1916 37.2246 27.2166C37.6304 27.3362 38.0284 27.481 38.4163 27.65C38.4496 27.55 38.4246 27.3166 38.4246 27.3166C38.6746 27.3833 38.7746 27.525 38.7746 27.525C38.8746 27.425 38.8079 27.2416 38.8079 27.2416C39.6163 27.7 38.6413 27.9083 38.3829 27.9916C38.1329 28.075 38.1329 28.1833 38.1329 28.1833C38.3413 28.1166 38.4913 28.0916 38.6663 28.075C38.8496 28.0583 38.7829 28.075 39.2079 27.9916C39.6413 27.9083 39.8579 28.0916 39.8579 28.0916C39.4996 28.1083 39.3996 28.2166 39.3996 28.2166C39.6163 28.3583 39.3996 28.5 39.3996 28.5C39.0829 28.0833 38.7996 28.5083 38.7996 28.5083C38.9837 28.5082 39.1657 28.548 39.3329 28.625L39.7829 28.85C40.0829 28.9833 40.0246 28.9 40.2496 28.9833C40.4829 29.0666 40.3913 29.2916 40.3913 29.2916C40.2996 29.1083 40.0829 29.0416 40.0829 29.0416C40.0663 29.2916 39.8246 29.3333 39.8246 29.3333C40.1246 29 39.4829 28.85 39.1746 28.8583C38.8746 28.8583 38.6496 29.0583 38.6496 29.0583C39.2579 29.6333 39.6746 29.4416 39.6746 29.4416C39.5996 29.65 39.0996 29.5666 39.0996 29.5666C39.3329 29.75 39.3079 29.8666 39.3079 29.8666C39.1829 29.75 38.9746 29.8083 38.5413 29.5333C38.1079 29.2416 37.7163 29.3416 37.7163 29.3416C38.1496 29.7833 37.5663 30.0583 37.5663 30.0583C37.3496 30.1916 37.6496 30.35 37.6496 30.35C37.3829 30.4 37.3496 30.1333 37.3496 30.1333C37.2079 30.1 36.9996 30.2666 36.9996 30.2666C37.0163 30 37.3829 30.1333 37.3829 29.85C37.3996 29.5583 37.0496 29.3333 36.0246 29.475C34.9913 29.6166 34.6913 29.2916 34.6913 29.2916C34.6079 29.2916 34.5913 29.375 34.5913 29.375C34.7579 29.5416 34.8329 29.6083 34.8079 29.725C34.7746 29.8333 34.8579 29.875 34.8579 29.875C34.6663 29.8583 34.6579 29.6416 34.6579 29.6416C34.6579 29.7333 34.6163 29.7416 34.5496 29.8333C34.4829 29.925 34.5496 30.0583 34.5496 30.0583C34.4663 29.9916 34.3246 29.9083 34.4663 29.7C34.5663 29.55 34.2413 29.35 34.2413 29.35C34.1163 29.225 33.7746 29.35 33.7746 29.35C33.5787 29.3918 33.3756 29.3856 33.1826 29.3319C32.9896 29.2782 32.8124 29.1786 32.6663 29.0416C32.5829 29.0416 32.4246 28.9916 32.4246 28.9916C31.6829 29.325 31.0329 28.6083 31.0329 28.6083C30.4746 28.7166 30.2163 28.4416 30.0496 28.175C29.9536 27.9932 29.8017 27.8471 29.6163 27.7583C29.3996 27.625 29.1829 27.2416 29.3996 27.0333C29.5663 26.8583 29.5246 26.8166 29.5246 26.8166C29.2329 26.325 30.0329 26.175 30.0496 26.05C30.0746 25.8833 30.2413 25.775 30.4246 25.7666C30.6079 25.75 30.6079 25.7666 30.7329 25.65C30.8413 25.525 31.0663 25.675 31.0663 25.675C31.1246 25.6416 31.5246 25.3333 31.8746 25.4916C32.2329 25.65 32.5329 25.5416 32.5329 25.5416C32.7829 25.4833 34.8663 25.2083 34.8663 25.2083C34.9913 25 35.0913 24.7583 35.6663 24.625C36.2413 24.4916 36.6663 24.125 36.6663 24.125C36.5663 24.025 36.3996 24.025 36.3163 24.0166C36.2246 24.0166 36.0496 23.85 36.0496 23.85C35.9413 23.9 35.8829 23.875 35.1329 24.3333C34.4579 24.75 34.4413 23.9333 34.4413 23.9333H32.9663C32.9413 24.2416 32.7163 24.3666 32.7163 24.3666L32.1746 24.3916C31.8746 24.2416 31.8746 23.7083 31.8746 23.7083C30.2579 23.7333 29.3663 24.3083 29.3663 24.3083C27.5329 23.375 26.0996 23.1583 26.0996 23.1583C27.2735 23.0732 28.4238 22.7857 29.4996 22.3083C30.2201 22.7443 31.0344 23.0015 31.8746 23.0583C31.9163 22.6083 32.2163 22.5 32.2163 22.5L32.5496 22.5333Z" fill="black"/>
<path d="M29.9084 26.2167C29.4501 26.4833 29.5334 26.6333 29.5751 26.7167C29.6168 26.8 29.6168 26.8833 29.4918 27.0167C29.3668 27.1417 29.3751 27.1833 29.3751 27.1833C29.4001 27.6333 29.7084 27.7333 29.8501 27.85C29.9668 27.9333 30.1501 28.225 30.1501 28.225C30.3918 28.5667 30.6418 28.575 30.8251 28.575C31.0168 28.575 30.9918 28.55 30.9084 28.4667L30.6251 28.2417C30.8108 28.3205 30.9781 28.4369 31.1168 28.5833C31.5834 29.1 32.0168 29.0333 32.2084 29.0167C32.4001 28.9917 32.3751 28.875 32.3751 28.875C32.3103 28.8549 32.243 28.8437 32.1751 28.8417C31.4668 28.775 31.2584 28.3083 31.2584 28.3083C31.6183 28.6248 32.0793 28.8021 32.5584 28.8083C32.7584 28.8 32.7501 28.8583 32.7001 28.875L32.5001 28.8583C32.4084 28.8583 32.4084 28.8833 32.4251 28.925C32.4501 28.9583 32.5418 28.9583 32.6501 28.9583C32.7668 28.9583 32.6751 28.9667 32.9668 29.1917C33.2668 29.425 33.9918 29.2333 33.9918 29.2333C33.5168 29.125 33.4584 28.9 33.4584 28.9C32.8168 28.9833 32.5584 28.6 32.5584 28.6C32.4132 28.4872 32.2568 28.3895 32.0918 28.3083C31.7418 28.15 31.6751 27.825 31.6751 27.825C31.7834 27.975 31.9835 28.1417 32.2335 28.2083C32.4835 28.275 32.5501 28.3083 32.5501 28.3083C32.486 28.3228 32.4191 28.317 32.3585 28.2917C32.1085 28.2083 32.2501 28.3167 32.2501 28.3167C32.5334 28.5417 32.6085 28.525 32.6085 28.525C33.3251 28.6 32.9668 28.3083 32.9668 28.3083C33.4834 28.4333 33.5668 28.2417 33.5668 28.2417C33.6751 28.4667 34.0668 28.3833 34.0668 28.3833C33.5501 28.6333 33.9418 28.5583 33.9418 28.5583C34.4668 28.4667 34.5751 28.6 34.5751 28.6C34.7084 28.725 34.8584 28.7167 34.8584 28.7167C34.8584 28.7167 34.9585 28.7167 35.1501 28.75C35.3501 28.7917 35.6668 28.9583 35.9501 28.9333C36.2418 28.8917 36.2834 28.9833 36.2834 28.9833C36.2334 28.9583 36.1001 28.9417 35.8834 29.0417C35.6584 29.15 35.2668 29.175 34.7001 29.0417C34.1334 28.9083 34.0834 28.9333 34.0834 28.9333C34.2251 29.025 34.3418 29.175 34.3668 29.2667C34.3918 29.3667 34.4918 29.3667 34.4918 29.3667C34.5334 29.2417 34.7001 29.1917 34.7001 29.1917C34.8303 29.284 34.97 29.3622 35.1168 29.425C35.1501 29.3667 35.1168 29.3167 35.1168 29.3167C35.3334 29.525 35.5834 29.4583 35.5834 29.4583C35.6501 29.4167 35.6334 29.2917 35.6334 29.2917C35.7168 29.2917 35.7334 29.3417 35.8001 29.3917C35.8584 29.425 36.0501 29.4 36.0501 29.4C35.9834 29.3667 35.9251 29.2583 35.9251 29.2583C36.2168 29.0667 36.8418 29.15 36.8418 29.15C37.2834 29.2333 37.2334 29.525 37.2334 29.525C37.312 29.5715 37.3824 29.6307 37.4418 29.7C37.4834 29.6 37.4418 29.4917 37.4418 29.4917C37.6585 29.5917 37.6918 29.825 37.6918 29.825C37.9418 29.5583 37.4668 29.2583 37.4668 29.2583C37.6918 29.225 37.9418 29.2417 38.0918 29.2583C38.295 29.2936 38.4849 29.3828 38.6418 29.5167C38.8168 29.6583 39.1334 29.725 39.1334 29.725C39.1251 29.6667 38.9501 29.5583 38.9084 29.5417C38.8751 29.525 38.8584 29.4667 38.8584 29.4667C39.0168 29.5 39.1168 29.4833 39.1168 29.4833C38.5834 29.15 38.4418 28.9917 38.4418 28.9917C38.6418 29.0167 38.7584 28.8917 38.7584 28.8917C38.3334 28.8917 38.3084 28.7917 38.3084 28.7917C38.3668 28.8 38.5668 28.85 38.8251 28.8C39.0834 28.75 39.4251 28.8 39.4251 28.8C39.2418 28.5 38.5334 28.55 38.3001 28.5667C38.0668 28.5833 37.9834 28.55 37.9834 28.55C38.0168 28.5333 38.0584 28.5 38.2334 28.4917C38.4168 28.4917 38.5918 28.5083 38.8001 28.3583C38.9918 28.225 39.2751 28.275 39.2751 28.275C39.2085 28.1417 38.8835 28.0917 38.6084 28.275C38.3168 28.45 38.0668 28.4 38.0668 28.4C38.5085 28.3333 38.6418 28.175 38.6418 28.175C38.5084 28.1417 38.4334 28.1833 38.1584 28.2417C37.8918 28.2917 37.8251 28.2 37.8251 28.2C38.1168 28.025 38.3251 27.95 38.3251 27.95C38.0751 27.9 37.8418 27.7833 37.8418 27.7833C37.5751 28.0333 37.3751 28.1667 36.8668 27.9167C36.3668 27.65 36.1001 27.6833 36.1001 27.6833C36.5501 27.425 37.0001 27.5333 37.3335 27.7333C37.6668 27.925 37.7501 27.7667 37.7501 27.7667C37.6501 27.7083 37.6668 27.6417 37.6668 27.6417C38.4668 28.05 38.8168 27.8083 38.9918 27.6833C39.1668 27.5583 38.9084 27.4 38.9084 27.4C38.8918 27.65 38.5751 27.7833 38.3084 27.6917C38.0584 27.6083 37.8084 27.4917 37.4418 27.3333C37.0751 27.1833 36.6084 27.2667 36.1834 27.35C35.7501 27.4417 35.6918 27.4 35.6501 27.3667C35.6084 27.3333 35.5918 27.225 35.3668 27.3167C35.1501 27.4083 34.6335 27.1667 34.3168 27.0917C34.0001 27.0083 33.4751 27.05 33.0251 27.3C32.5751 27.5583 32.3418 27.4917 32.2084 27.4333C32.0751 27.3667 31.9834 27.2 32.1334 27.05C32.2834 26.9 32.3001 26.8583 32.2834 26.6333C32.2668 26.4167 32.0501 26.2833 32.0501 26.2833C32.2501 26.075 32.3001 26.0333 32.2335 25.95C32.1668 25.85 32.2668 25.85 32.3834 25.8C32.5001 25.75 32.4501 25.7417 32.4251 25.675C32.3918 25.6083 32.3251 25.625 32.3251 25.625C32.0668 25.6333 31.9168 25.5583 31.9168 25.5583C31.4834 25.3583 31.0751 25.75 31.0751 25.75C30.8251 25.5583 30.7668 25.6917 30.7251 25.7333C30.6834 25.775 30.5918 25.8167 30.4751 25.8167C30.3751 25.8333 30.2168 25.875 30.1584 25.975C30.1584 25.975 30.1084 26.0583 30.1668 26.1417C30.1668 26.1417 30.2334 26.2417 30.1168 26.3667C29.9918 26.4917 29.9501 26.5167 29.9918 26.6417C30.0251 26.75 30.0168 26.8417 29.9668 26.9167C29.9668 26.9167 29.9084 26.8583 29.9251 26.775C29.9418 26.6917 29.9418 26.6417 29.9251 26.6083C29.9251 26.6083 29.8001 26.725 29.7751 26.8083C29.7751 26.8083 29.7251 26.675 29.9084 26.5C30.0751 26.3333 30.1585 26.2333 30.1085 26.1667C30.0751 26.1167 29.9418 26.2 29.9168 26.2167H29.9084Z" fill="#FFC221"/>
<path d="M30.4162 28.1667C30.4162 28.1667 30.1912 28 30.2162 27.7583C30.2412 27.5333 30.2412 27.5083 30.2162 27.45C30.2162 27.45 30.1746 27.475 30.1829 27.5667C30.1829 27.65 30.1662 27.7417 30.1579 27.7583C30.1579 27.7583 30.0496 27.5667 29.9912 27.525C29.9912 27.525 30.0412 27.325 29.9746 27.2417C29.9162 27.15 29.8496 27.1417 29.7746 27.175C29.6746 27.2083 29.5996 27.3 29.9412 27.575C29.9412 27.575 30.0662 27.6833 30.1496 27.9C30.2329 28.1167 30.3829 28.15 30.4079 28.1667H30.4162ZM31.4996 27.5167C31.4996 27.5167 31.4912 27.3917 31.6079 27.1583C31.6491 27.0882 31.6729 27.0092 31.6772 26.928C31.6816 26.8468 31.6664 26.7658 31.6329 26.6917C31.6079 26.625 31.5829 26.65 31.7079 26.55C31.8496 26.425 31.6496 26.2667 31.8996 26.05C31.8996 26.05 32.0496 25.9167 32.0912 25.8583C32.0912 25.8583 31.8412 25.9917 31.6579 26.0667C31.4912 26.1333 30.8579 26.45 30.9912 26.6583C31.1412 26.8667 31.1246 26.8833 31.0996 26.975C31.0996 26.975 30.7162 26.7667 30.8496 26.4417C30.8496 26.4417 30.9162 26.3167 31.0746 26.1583C31.2246 26.025 31.1412 26.1917 31.4329 26.0167C31.4329 26.0167 31.6579 25.8833 31.7912 25.6917C31.7912 25.6917 31.6246 25.7917 31.5746 25.8083C31.5746 25.8083 31.2412 25.875 31.0912 26.0167C30.9579 26.1583 30.6662 26.4083 30.7579 26.6833C30.7579 26.6833 30.4246 26.65 30.3412 26.2917C30.3412 26.2917 29.7079 27.075 31.0412 27.4417C31.0412 27.4417 31.2912 27.5083 31.5079 27.525L31.4996 27.5167Z" fill="black"/>
<path d="M37.3496 24.9166C37.8496 24.8333 40.7162 24.4 40.9829 24.375C41.2662 24.35 41.3746 24.3083 41.4746 24.5416C41.5829 24.7916 41.0746 24.8 41.0746 24.8L37.6496 25.1916C37.4829 25.2083 37.4412 25.1416 37.4412 25.1416L37.3162 24.975C37.3162 24.975 37.2746 24.925 37.3496 24.9083V24.9166Z" fill="#FFC221"/>
<path d="M30.3246 26.475C30.3246 26.475 29.9579 27.25 31.4079 27.4416C31.4079 27.4416 31.4162 27.3583 31.4746 27.2333C31.5412 27.1083 31.6662 26.8583 31.5412 26.7C31.4246 26.5416 31.6412 26.625 31.6662 26.4166C31.7079 26.2083 31.6496 26.2333 31.7496 26.1C31.7496 26.1 31.2996 26.2666 31.1162 26.475C30.9496 26.675 31.3579 26.825 31.1162 27.05C31.1162 27.05 30.9079 26.9666 30.7829 26.75C30.7829 26.75 30.5079 26.75 30.3246 26.475Z" fill="#5A3719"/>
<path d="M31.7584 27.4333C31.7584 27.4333 32.1167 27.7417 32.5417 27.7333C32.9667 27.7083 33.1584 27.6 33.2667 27.4333C33.2667 27.4333 33.35 27.5583 33.35 27.65C33.35 27.65 33.7167 27.3417 34.35 27.6083C34.9834 27.875 34.8 27.8 34.9417 27.8167C34.9417 27.8167 34.6667 27.775 34.05 28.0583C33.4084 28.35 31.7417 28.25 31.75 27.4333H31.7584Z" fill="black"/>
<path d="M31.1581 26.0501C31.1581 26.0501 31.3164 26.0751 31.4747 25.8917C31.4747 25.8917 31.2581 25.9334 31.1581 26.0584V26.0501ZM29.9331 27.5001C29.9331 27.5001 29.6331 27.2667 29.8247 27.2167C29.8247 27.2167 29.9664 27.1917 29.9331 27.5001Z" fill="#5A3719"/>
<path d="M36.4824 28.9833C36.4824 28.9833 36.6491 28.6917 37.1074 28.6917C37.5658 28.6917 37.6158 28.9083 38.1991 28.9417C38.1991 28.9417 37.4991 29.1417 37.0158 28.9667C36.7658 28.875 36.5324 28.95 36.4824 28.9833Z" fill="black"/>
<path d="M31.9082 27.6416C31.9082 27.6416 32.6082 28.0583 33.2165 27.6C33.2165 27.6 33.2665 27.65 33.3165 27.7666C33.3165 27.7666 33.7832 27.3166 34.6082 27.8C34.6082 27.8 34.5082 27.7916 34.1165 27.95C33.6082 28.175 32.3332 28.325 31.9082 27.6333V27.6416Z" fill="#5A3719"/>
<path d="M34.5742 28.0583C34.5742 28.0583 35.2409 28.1417 35.7992 28.1083C36.1409 28.0917 36.5159 28.025 36.3326 28.1417C36.1409 28.25 36.2409 28.2667 37.0326 28.2C37.8159 28.1167 37.0242 28.3417 37.5659 28.4167C37.5659 28.4167 36.2409 29.0833 34.5742 28.0583Z" fill="black"/>
<path d="M36.3158 27.6416C36.3158 27.6416 36.6991 27.4999 37.0658 27.6666C37.4241 27.8333 37.3658 27.8499 37.6074 27.8749C37.6074 27.8749 37.4408 28.1166 37.0491 27.9249C36.6491 27.7333 36.5491 27.6916 36.3158 27.6416ZM36.7491 28.8333C36.7491 28.8333 37.1324 28.6416 37.5491 28.8333C37.5991 28.8666 37.7158 28.9166 37.8241 28.9333C37.8241 28.9333 37.5074 29.0416 37.1741 28.9333C37.0324 28.8916 36.9241 28.8583 36.7491 28.8333ZM34.8574 28.1499C34.8574 28.1499 35.7158 28.2333 36.1741 28.1416C36.1741 28.1416 35.6408 28.3916 36.9824 28.2833C36.9824 28.2833 37.2741 28.2499 37.2324 28.2916C37.2074 28.3333 37.1824 28.3749 37.3324 28.4166C37.3324 28.4166 36.3324 28.8666 34.8574 28.1499Z" fill="#5A3719"/>
<path d="M30.6079 27.4334C30.6079 27.4334 30.6245 27.4917 30.8079 27.575C30.9995 27.6667 31.0995 27.8167 31.1412 27.9C31.1702 27.9585 31.2112 28.0102 31.2614 28.0518C31.3117 28.0934 31.3701 28.1241 31.4329 28.1417C31.4329 28.1417 30.7662 28.2834 30.4662 27.925C30.4662 27.925 30.2412 27.675 30.5995 27.425" fill="black"/>
<path d="M35.8587 28.9666C35.8587 28.9666 35.6004 28.95 35.2337 28.825C34.8754 28.7 34.7837 28.8083 34.5754 28.6583C34.3754 28.5 33.967 28.6 33.892 28.6083C33.8087 28.6166 33.592 28.6083 33.867 28.4333C33.867 28.4333 33.6504 28.4333 33.567 28.3166C33.567 28.3166 33.467 28.4166 33.1004 28.3833C33.1004 28.3833 33.267 28.6333 32.6004 28.5583C32.7122 28.6872 32.86 28.7799 33.0247 28.8244C33.1895 28.8689 33.3638 28.8633 33.5254 28.8083C33.5254 28.825 33.4837 29.0166 33.7754 29.1C34.092 29.175 34.1504 29.2333 34.3087 29.2916C34.3087 29.2916 34.3337 29.1666 33.9254 28.875C33.9254 28.875 34.142 28.8583 34.4587 28.9333C34.7754 29.0083 35.4754 29.1916 35.8587 28.9666ZM36.0254 29.275C36.0254 29.275 36.0921 29.425 36.2921 29.3916C36.4921 29.3583 36.8254 29.3083 37.142 29.4583C37.142 29.4583 37.2004 29.1916 36.5587 29.175C36.5587 29.175 36.1587 29.1916 36.0254 29.275ZM30.592 27.525C30.592 27.525 30.342 27.7333 30.567 27.9416C30.767 28.1333 31.0837 28.1166 31.2337 28.1083C31.2337 28.1083 31.1504 28.0583 31.067 27.9416C30.9837 27.8166 30.9837 27.7333 30.817 27.6583C30.642 27.5833 30.6254 27.5666 30.592 27.525ZM30.342 26.475C30.342 26.475 29.9587 27.25 31.4254 27.4416C31.4254 27.4416 31.4254 27.3583 31.4837 27.2333C31.5337 27.1083 31.6587 26.8583 31.5504 26.7C31.417 26.5416 31.642 26.625 31.6754 26.4166C31.7087 26.2083 31.6504 26.2333 31.7587 26.1C31.7587 26.1 31.3004 26.2666 31.117 26.475C30.9504 26.675 31.3587 26.825 31.117 27.05C31.117 27.05 30.9087 26.9666 30.7837 26.75C30.7837 26.75 30.5087 26.75 30.3254 26.475H30.342Z" fill="#5A3719"/>
<path d="M34.1582 28.275C34.1582 28.275 34.4665 28.225 35.2415 28.5167C36.0249 28.8 36.3499 28.7333 36.4582 28.725C36.4582 28.725 36.0249 28.9583 35.3415 28.6583C34.7415 28.3917 34.7082 28.4917 34.1582 28.275Z" fill="black"/>
<path d="M39.0336 28.1C39.0336 28.1 39.2003 28.1 39.317 28.1417C39.317 28.1417 39.3753 28.0833 39.542 28.0583C39.542 28.0583 39.4336 27.9583 39.0336 28.1ZM38.5003 27.6667C38.5003 27.6667 38.6753 27.6667 38.7336 27.5667C38.7336 27.5667 38.642 27.4583 38.5003 27.4C38.5003 27.4 38.5336 27.5333 38.5003 27.6667ZM32.5253 25.6833C32.5253 25.6833 32.4836 25.6 32.6753 25.5667L35.2836 25.1917C35.2836 25.1917 35.4086 25.1917 35.4253 25.275C35.4503 25.3667 35.417 25.4333 34.8253 25.5L32.692 25.7667C32.692 25.7667 32.5336 25.7917 32.5253 25.6833Z" fill="#FFC221"/>
<path d="M34.8828 25.575C34.8828 25.575 34.8828 25.9167 35.2328 25.9667C35.5661 26.0167 35.6911 25.95 35.7745 25.775C35.7995 25.7167 35.9078 25.3584 35.7578 25.3334C35.6911 25.325 35.5911 25.3334 35.5161 25.3584C35.3995 25.4167 35.2911 25.475 35.3245 25.525C35.4078 25.6584 35.4245 25.6917 35.4078 25.6917C35.3078 25.7167 35.2578 25.6417 35.2411 25.5917C35.2161 25.525 35.2828 25.4917 35.0578 25.525C34.9578 25.5334 34.8911 25.5334 34.8911 25.575H34.8828ZM36.3411 25.3084C36.5078 25.3334 36.4995 25.7084 36.2911 25.8834C36.0578 26.0667 35.8411 25.9917 35.8411 25.9917C35.7245 25.95 35.7411 25.9584 35.8328 25.825C35.9161 25.7 35.9578 25.525 35.9078 25.4084C35.8911 25.3667 35.9328 25.3334 35.9911 25.325C35.9911 25.325 36.1578 25.2917 36.3411 25.3084Z" fill="#FFC221"/>
<path d="M36.4916 25.3416C36.4916 25.3416 36.6249 25.5083 36.4583 25.8C36.4583 25.8 36.3916 25.8833 36.5499 25.875C36.6999 25.8583 37.0583 25.6916 37.0249 25.475C37.0249 25.475 37.0083 25.425 36.9166 25.425C36.8249 25.425 36.8999 25.3833 36.9416 25.3583C36.9749 25.3583 37.0999 25.3083 36.7833 25.1083C36.7833 25.1083 36.7333 25.0583 36.6749 25.0833C36.6249 25.1 36.4583 25.1666 36.4583 25.2666C36.4583 25.3083 36.4916 25.35 36.4916 25.35V25.3416Z" fill="#FFC221"/>
<path d="M36.8336 25.075C36.8336 25.075 37.0836 25.25 37.0836 25.3084C37.0836 25.3584 37.0586 25.4334 37.1253 25.4167C37.1919 25.4167 37.4586 25.3584 37.3753 25.1834C37.3086 25.0084 37.2336 24.9334 37.1086 24.9C36.9836 24.85 36.9503 24.9084 36.8419 24.9917C36.8419 24.9917 36.7669 25.0417 36.8336 25.075ZM35.4919 25.325C35.4919 25.325 35.5336 25.2 35.3086 25.1417C35.3086 25.1417 35.4003 25.0584 35.5919 25.1084C35.7753 25.1417 35.7586 25.275 35.7586 25.2834C35.7586 25.2834 35.6086 25.2834 35.4919 25.325ZM35.9753 25.2917C35.9753 25.2917 36.2253 25.25 36.3503 25.2584C36.3503 25.2584 36.2169 24.9834 35.8753 25.0667C35.8753 25.0667 36.0003 25.2167 35.9753 25.2917ZM36.4169 25.225C36.4169 25.225 36.4169 25.1334 36.6336 25.05C36.6336 25.05 36.5336 24.95 36.3836 24.9667C36.2169 24.9667 36.1753 25.025 36.1753 25.025C36.1753 25.025 36.3669 25.0917 36.4169 25.225ZM36.5003 24.925C36.5003 24.925 36.6419 24.9584 36.7253 25.0334C36.7253 25.0334 36.8503 24.8917 36.9586 24.8667C36.9586 24.8667 36.7503 24.75 36.5003 24.925Z" fill="#FFC221"/>
<path d="M29.3665 24.2416C29.3665 24.2416 29.9665 23.725 30.2998 23.7916C30.6331 23.8583 30.4665 23.8083 30.8331 23.75C31.1998 23.7 31.5831 23.6583 31.7331 23.675C31.7331 23.675 31.2831 23.3583 30.4915 23.3666C30.4915 23.3666 29.9415 23.5583 29.5498 23.8083C29.5498 23.8083 28.8081 23.4 28.0498 23.6416C28.0498 23.6416 28.8748 23.95 29.3665 24.2416Z" fill="#5A3719"/>
<path d="M35.7327 25.1167L35.8327 25.1C35.8327 25.1 35.9993 25.3083 35.8827 25.3083C35.7827 25.3083 35.816 25.2833 35.7993 25.225C35.7901 25.1823 35.7666 25.1441 35.7327 25.1167ZM34.9827 25.1333C34.9827 25.1333 34.916 25.2167 35.0327 25.2C35.1743 25.175 35.1493 25.2 35.291 25.0917C35.291 25.0917 35.391 25 35.5577 25.0583C35.5577 25.0583 35.7077 25.1083 35.8243 25.05C35.941 24.9833 35.966 24.9917 36.0327 25C36.0993 25 36.0993 25.0167 36.1743 24.95C36.2577 24.8917 36.4077 24.9417 36.4994 24.8667C36.591 24.7833 36.7077 24.85 36.4994 24.7C36.4994 24.7 36.4577 24.6583 36.4577 24.6167C36.4577 24.6167 36.541 24.65 36.6077 24.7C36.6744 24.7667 36.7744 24.7417 36.791 24.7333C36.791 24.7333 36.8077 24.5417 36.9827 24.375C37.1744 24.2083 37.1744 24.1917 37.066 24.1917C36.9577 24.1917 36.7744 24.1417 36.7077 24.1917C36.641 24.2417 36.1077 24.5917 35.791 24.65C35.4744 24.7083 35.1827 24.8 34.9827 25.1333ZM26.541 23.1833C26.541 23.1833 27.516 23.4333 27.7327 23.5333C27.7327 23.5333 27.7827 23.375 27.341 23.25C27.341 23.25 28.416 23.2167 29.541 23.7333C29.541 23.7333 30.091 23.2667 31.8493 23.4083C31.8493 23.4083 31.8493 23.2583 31.866 23.1333C31.866 23.1333 30.6327 23.1 29.4993 22.4083C29.4993 22.4083 28.4743 22.9083 26.541 23.1833ZM31.9327 23.65C31.8744 22.6667 32.2493 22.5667 32.2493 22.5667C32.2493 22.5667 32.4243 22.5667 32.616 22.6083C32.616 22.6083 32.316 22.9667 32.3994 23.675C32.3994 23.675 32.4327 23.7833 32.1743 23.7833C31.916 23.7833 31.9327 23.6583 31.9327 23.6583V23.65Z" fill="#FFC221"/>
<path d="M32.2005 24.3084C32.2005 24.3084 32.0089 24.1167 31.9922 23.9C31.9922 23.9 31.9922 23.85 32.1755 23.85C32.3672 23.85 32.3839 23.8334 32.4255 23.9417C32.4755 24.05 32.5922 24.275 32.6172 24.3L32.2005 24.3084Z" fill="#5A3719"/>
<path d="M32.5914 23.8083C32.5759 23.6839 32.5704 23.5585 32.5748 23.4333C32.5831 22.8833 32.6748 22.9333 32.7164 23H32.9081C32.9081 23 32.7664 22.3833 32.5998 22.75C32.4775 23.0214 32.4341 23.3217 32.4748 23.6166C32.4831 23.7833 32.4998 23.8916 32.5248 23.95L32.5914 23.8083Z" fill="#FFC221"/>
<path d="M34.7332 23.8083C34.7332 23.8083 35.0915 23.875 34.5415 24C34.5415 24 34.5665 24.6833 35.2249 24.2083C35.2249 24.2083 35.6165 23.9583 35.8915 23.8583C35.8915 23.8583 36.0249 23.8083 36.0082 23.7083C36.0082 23.7083 36.0249 23.5833 35.8832 23.6167C35.8832 23.6167 35.7665 23.6167 35.6915 23.5917C35.6915 23.5917 35.6082 23.4917 35.5582 23.525C35.5082 23.5667 35.3832 23.5417 35.4832 23.6667C35.5832 23.7833 35.6082 23.75 35.6499 23.7167C35.6999 23.6833 35.9082 23.6 35.7249 23.775C35.5415 23.95 35.3749 23.675 35.3082 23.625L34.7332 23.8083ZM32.8999 23.8917H32.7332C32.7332 23.8917 32.6499 24.025 32.5915 23.8083L32.5332 23.9417C32.5332 23.9417 32.7249 24.675 32.8999 23.8917Z" fill="#5A3719"/>
<path d="M32.6664 23.05C32.6664 23.05 32.583 23.5333 32.6914 23.8167L34.4497 23.8583C34.4497 23.8583 34.433 23.525 34.4497 23.05H34.2164C34.2164 23.05 34.1747 23.4333 34.2164 23.675H34.1747C34.1747 23.675 34.1414 23.3417 34.1747 23.05H33.9664C33.9664 23.05 33.933 23.4083 33.9664 23.675H33.9247C33.9247 23.675 33.8914 23.3667 33.9247 23.05H33.7164C33.7164 23.05 33.6747 23.375 33.7164 23.675H33.6664C33.6664 23.675 33.6247 23.35 33.6664 23.05H33.4414C33.4414 23.05 33.3914 23.35 33.4414 23.675H33.3997C33.3997 23.675 33.3497 23.375 33.3997 23.05H33.1747C33.1747 23.05 33.1247 23.4 33.1747 23.675H33.1247C33.1247 23.675 33.0914 23.3417 33.133 23.05H32.9247C32.9247 23.05 32.8664 23.3417 32.9247 23.675H32.8663C32.8663 23.675 32.833 23.425 32.883 23.05H32.6664ZM34.5247 23.9167C34.5247 23.9167 34.483 23.0667 34.6414 22.8333C34.808 22.6167 34.8497 22.6667 35.1247 22.8333C35.408 23.0167 35.7664 23.2083 35.833 23.2333C35.883 23.2583 35.9664 23.275 35.9664 23.4333C35.9664 23.5917 35.9914 23.6333 35.7497 23.4333C35.7247 23.4083 35.608 23.3083 35.5247 23.2833C35.308 23.2083 35.5747 23.325 35.6497 23.4417C35.7164 23.525 35.7747 23.525 35.5997 23.5667C35.2378 23.6722 34.8793 23.7889 34.5247 23.9167Z" fill="#FFC221"/>
<path d="M35.1332 23.3C35.1332 23.3 35.0082 23.15 35.1749 23.1083C35.3416 23.075 35.3499 23.3583 35.3832 23.5333C35.4082 23.7166 35.1749 23.3583 35.1499 23.3083L35.1332 23.3ZM34.9082 24.05C34.9082 24.05 34.7166 24.125 34.8499 24.1833C34.9666 24.2416 35.3082 23.9583 35.1999 23.975C35.0666 24 34.9082 24.0583 34.9082 24.0583V24.05ZM35.1582 23.8C35.1582 23.8 35.3249 23.775 35.2916 23.8416C35.2666 23.925 35.2082 23.875 35.1749 23.8583C35.1499 23.8416 35.0416 23.8 35.1666 23.7916L35.1582 23.8Z" fill="black"/>
<path d="M36.0504 23.5667C36.0504 23.5667 36.1004 23.9 36.3837 23.9833C36.3837 23.9833 36.5504 24.0167 36.5087 23.875C36.5087 23.875 36.4837 23.75 36.4587 23.7083C36.4337 23.65 36.3254 23.625 36.3087 23.6167C36.2921 23.6167 36.2837 23.575 36.3587 23.6C36.4421 23.625 36.4421 23.6333 36.4421 23.575C36.4421 23.5167 36.3921 23.5417 36.3254 23.5083C36.2921 23.4917 36.3254 23.475 36.3504 23.4833C36.3837 23.4833 36.4587 23.5083 36.4587 23.4C36.4587 23.4 36.4671 23.3333 36.3837 23.3333C36.2921 23.3333 36.3004 23.2833 36.3254 23.275C36.3504 23.275 36.4504 23.3417 36.4837 23.225C36.5087 23.1167 36.3504 23.1833 36.3671 23.125C36.3921 23.0583 36.5087 23.15 36.5087 23.0833C36.5254 23.0167 36.6171 22.9917 36.4587 22.9667C36.3837 22.9583 36.4587 22.9167 36.5421 22.9333C36.6254 22.9417 36.6754 22.8333 36.7337 22.8C36.7837 22.7583 37.0837 22.5833 36.6837 22.6417C36.2921 22.7 36.1754 22.8917 36.1587 22.9333C36.0594 23.1286 36.0216 23.3495 36.0504 23.5667Z" fill="#FFC221"/>
<path d="M36.9667 23.8167C37.025 23.8167 37.0667 23.8167 37.0834 23.8584C37.15 23.9917 37 23.9417 36.9167 24.0417C36.8334 24.1417 36.8334 24.1251 36.7167 24.0834C36.6 24.0501 36.55 23.8751 36.55 23.8751C36.55 23.8167 36.5917 23.8084 36.65 23.8251C36.65 23.8251 36.8417 23.8417 36.975 23.8251L36.9667 23.8167ZM36.55 23.7501C36.55 23.7501 36.55 23.7834 36.625 23.7917C36.6834 23.7917 36.875 23.8167 37 23.7834C37 23.7834 37.0334 23.7751 37.0167 23.7001C37.0167 23.7001 37.0167 23.6417 36.9167 23.6667C36.8084 23.6834 36.6667 23.6667 36.6084 23.6584C36.5584 23.6417 36.525 23.6584 36.5417 23.7417L36.55 23.7501ZM36.5334 23.5084C36.5334 23.5084 36.525 23.6167 36.625 23.6251C36.7334 23.6417 36.8667 23.6417 36.9167 23.6251C36.9584 23.6251 37.0334 23.6084 37.0417 23.5417C37.0417 23.4834 37.0584 23.4417 36.9334 23.4751C36.8084 23.5084 36.65 23.4751 36.6334 23.4751C36.625 23.4751 36.5334 23.4501 36.5334 23.5084ZM36.575 23.3001C36.575 23.3001 36.55 23.3501 36.5584 23.4001C36.5584 23.4417 36.6334 23.4584 36.7667 23.4584C36.9 23.4584 37.0167 23.4417 37.0334 23.4001C37.0417 23.3417 37.075 23.2917 36.975 23.3167C36.8667 23.3251 36.725 23.3334 36.675 23.3167C36.625 23.2917 36.5834 23.2834 36.575 23.3001Z" fill="#FFC221"/>
<path d="M41.5589 23.8333C41.5589 23.8333 41.5589 23.9166 41.6339 24.0166L37.8672 23.9083C37.8672 23.9083 37.9172 23.875 37.9339 23.725L41.5589 23.8333Z" fill="#5A3719"/>
<path d="M36.6079 23.15C36.6079 23.15 36.5746 23.2417 36.6413 23.2667C36.6996 23.2834 36.8246 23.3 36.9746 23.275C36.9746 23.275 37.0579 23.275 37.0829 23.1917C37.1079 23.1084 37.1079 23.1584 36.8913 23.125C36.8913 23.125 36.8246 23.1 37.0163 23.1C37.0163 23.1 37.1329 23.1 37.1413 23.0834C37.1663 23.0667 37.3079 22.9417 37.1163 22.9584C36.9246 22.9584 37.0246 22.9167 37.1163 22.9167C37.2163 22.9167 37.2496 22.9417 37.2829 22.9167C37.3163 22.8917 37.2829 22.9 37.2246 22.85C37.1663 22.8 37.2163 22.8084 37.2496 22.8417C37.2913 22.8667 37.3163 22.8834 37.3579 22.8417C37.3996 22.8 37.3246 22.7417 37.3579 22.7584C37.3829 22.7584 37.4079 22.825 37.5246 22.7584C37.6579 22.7 37.8163 22.7334 37.8579 22.7584C37.9079 22.8 38.0413 22.8417 38.1163 22.7584C38.1996 22.6917 38.0246 22.6167 38.0913 22.6084C38.1746 22.6 38.2246 22.625 38.2496 22.5667C38.2829 22.5 38.1329 22.45 38.2746 22.4167C38.4079 22.375 38.2913 22 38.2496 21.9584C38.2496 21.9584 38.0913 22.05 37.9329 22.3167C37.7579 22.5917 37.6579 22.75 37.4329 22.6667C37.1079 22.5417 36.9329 22.7167 36.8913 22.75C36.8079 22.8 37.0579 22.8167 36.9079 22.825C36.7663 22.825 36.7663 22.8417 36.7579 22.8584C36.7413 22.8834 36.7579 22.9 36.7829 22.9084C36.8079 22.9084 36.8579 22.9584 36.7746 22.9584C36.6913 22.9584 36.6246 22.9334 36.6496 23.0334C36.6496 23.0334 36.6496 23.05 36.6996 23.0584C36.7496 23.0584 36.7663 23.125 36.6746 23.125C36.6079 23.125 36.6079 23.1417 36.6079 23.15ZM36.9496 24.0917C36.9496 24.0917 36.8913 24.1334 36.9746 24.1417C37.0746 24.1417 37.1163 24.1667 37.1496 24.1167C37.1829 24.0667 37.2996 24.0834 37.2163 24.0167C37.1329 23.95 37.0829 23.9917 36.9496 24.1V24.0917Z" fill="#FFC221"/>
<path d="M37.3413 22.9583C37.3413 22.9583 37.6579 22.6667 37.9163 22.8583C38.1829 23.0667 38.1996 23.0917 38.2079 23.1C38.2079 23.1 38.2413 23.125 38.1746 23.1833C38.0996 23.25 38.1746 23.25 38.2496 23.2083C38.3246 23.1667 38.3329 23.2083 38.3663 23.25C38.4079 23.2917 38.4579 23.3167 38.3413 23.3167H37.9579C37.9579 23.3167 37.7829 23.3333 37.8746 23.2583C37.9579 23.1833 37.9413 23.1 37.8996 23.0917C37.8496 23.0917 37.8996 23.1417 37.8746 23.175C37.8413 23.2083 37.7829 23.2333 37.7163 23.2333C37.6496 23.2333 37.5996 23.2833 37.6996 23.3167C37.7913 23.35 37.6829 23.375 37.6329 23.375C37.5829 23.375 37.3413 23.3917 37.5913 23.425C37.8413 23.45 37.5663 23.45 37.7579 23.55C37.9579 23.6667 37.8079 23.9083 37.7329 23.9333C37.7329 23.9333 37.6496 23.975 37.7496 23.9667C37.8579 23.95 37.9163 23.9417 37.8329 24C37.7663 24.05 37.6163 24.2417 37.4163 24.1C37.4163 24.1 37.3163 24.05 37.4829 24.0417C37.6496 24.0417 37.3496 24 37.2913 23.9583C37.2496 23.9333 37.0413 23.7333 37.1663 23.75C37.2996 23.7833 37.2496 23.7083 37.1746 23.6833C37.1079 23.6583 37.0913 23.55 37.1746 23.5667C37.2579 23.5917 37.3413 23.6417 37.4246 23.6333C37.4829 23.6333 37.4663 23.6083 37.3246 23.5667C37.1829 23.5167 37.1246 23.5083 37.1579 23.4C37.1913 23.275 37.3496 23.4417 37.3079 23.35C37.2746 23.2667 37.1413 23.3083 37.2079 23.1917C37.2746 23.075 37.2913 23.125 37.3329 23.1417C37.3579 23.15 37.4163 23.1417 37.3246 23.075C37.2579 23.0333 37.3246 22.9667 37.3413 22.9583Z" fill="#FFC221"/>
<path d="M37.5664 23.0416C37.5664 23.0416 37.5664 23 37.6331 23.0083C37.6831 23.0083 37.6664 22.9916 37.6831 22.975C37.6997 22.975 37.8414 23.0166 37.7081 23.0583C37.6581 23.0833 37.5747 23.075 37.5747 23.0416H37.5664Z" fill="black"/>
<path d="M37.8748 23.375C37.8748 23.375 37.7664 23.425 37.8581 23.5417C37.9414 23.625 37.9414 23.6667 37.9414 23.725C37.9331 23.7917 41.5581 23.8333 41.5581 23.8333C41.5581 23.8333 41.5581 23.5917 41.7081 23.4583L37.8748 23.375Z" fill="#FFC221"/>
<path d="M37.4577 24.6166C37.4577 24.6166 37.6994 24.4083 37.741 24.3166C37.741 24.3166 38.391 24.7833 38.3494 24.3499L38.366 24.1333C38.366 24.1333 38.6077 24.1583 38.641 23.9666L38.0327 23.9416C38.0327 23.9416 37.966 23.9333 37.866 24.0333C37.7827 24.1333 37.5827 24.2416 37.4077 24.1499C37.4077 24.1499 37.3244 24.0833 37.2494 24.1499C37.166 24.1916 37.166 24.2083 37.2327 24.2749C37.2994 24.3416 37.4327 24.5166 37.4577 24.6083V24.6166ZM38.8577 23.3333L38.4994 23.3166C38.4994 23.3166 38.3744 23.1333 38.116 22.9333C38.116 22.9333 38.041 22.8999 38.1827 22.7833C38.3327 22.6666 38.3744 22.5499 38.3744 22.4916C38.3744 22.4416 38.3744 22.3499 38.4244 22.4083C38.4744 22.4749 38.841 22.8166 38.9077 22.7166C38.9577 22.6166 38.966 22.5749 38.966 22.5416C38.9827 22.5083 38.991 22.4166 39.0494 22.5166C39.0994 22.6083 39.1327 22.5833 39.141 22.8333C39.141 22.8333 39.141 23.0833 39.1827 23.1666C39.1827 23.1666 38.716 23.0249 38.866 23.3333H38.8577ZM37.3077 22.5666C37.3077 22.5666 37.5827 22.7333 37.7244 22.5166C37.8494 22.3083 37.941 22.2833 37.841 22.0749C37.741 21.8833 37.841 21.7916 37.916 21.7083C37.9994 21.6249 38.066 21.6416 38.066 21.3249C38.0827 20.9999 38.2994 20.9083 38.3994 20.7999C38.4994 20.6999 38.7494 20.5499 38.366 20.4916C37.9994 20.4249 37.2494 20.2416 37.0577 19.9499C36.866 19.6583 36.7827 19.8249 36.7827 19.8416C36.7827 19.8583 36.716 20.0666 36.9077 20.4499C37.0994 20.8333 37.2577 21.0833 37.4494 21.1999C37.6327 21.3249 37.7994 21.3916 37.6994 21.6499C37.5994 21.9083 37.4494 22.3666 37.3077 22.5666Z" fill="#7B3C20"/>
<path d="M38.3166 21.75C38.3166 21.75 38.3666 22.4167 38.8416 22.65C38.8416 22.65 38.9499 22.4 38.9082 22.1417C38.9082 22.1417 39.0666 22.15 39.1082 22.225C39.1082 22.225 39.1082 22.0333 38.8916 21.9583C38.6666 21.9 38.7749 21.4583 38.8582 21.4167C38.9332 21.3667 38.9082 21.275 38.8582 21.2C38.7999 21.1167 38.7916 21.0083 38.9749 21.0583C39.1666 21.1083 39.1416 21.0083 39.0166 20.9167C38.9082 20.825 38.9082 20.7083 39.0749 20.7083C39.2416 20.7083 39.4916 20.55 39.3416 20.5083C39.1749 20.4583 39.1332 20.4 39.3416 20.3417C39.5666 20.275 39.6749 20.2 39.5082 20.175C39.3416 20.1583 39.2332 20.1 39.3916 20.075C39.5499 20.05 39.3666 19.8833 39.1832 19.8833C38.9916 19.8667 38.5999 19.9417 38.9082 19.6917C39.2249 19.4417 38.4582 19.625 38.7749 19.4583C39.0916 19.2917 38.6666 19.3667 38.6082 19.3667C38.5499 19.3667 38.5499 19.3667 38.5749 19.2833C38.5916 19.2 38.5332 19.15 38.4332 19.2083C38.3499 19.2583 38.3499 19.2583 38.3499 19.15C38.3499 19.025 38.2416 19.1167 38.1749 19.15C38.0999 19.175 37.9249 19.3083 37.8499 19.2333C37.7916 19.1583 37.7499 19.0917 37.5332 19.2167C37.3166 19.3417 37.3666 19.2333 37.3666 19.175C37.3666 19.1167 37.4499 18.8917 37.1666 19.1333C36.8832 19.375 37.1082 18.8833 36.8749 19.05C36.6499 19.2167 36.6249 19.25 36.5832 19.175C36.5416 19.0917 36.4999 19.0333 36.2499 19.2C35.9916 19.3583 36.1832 19.0917 36.2082 19.0333C36.2499 18.9833 36.3582 18.6167 36.1332 18.9C36.1332 18.9 36.0249 19.1 35.7832 18.7417C35.7832 18.7417 35.5332 19.1 35.4582 18.9417C35.3916 18.775 35.3332 18.775 35.2416 18.875C35.1582 18.975 35.2249 18.8667 35.1832 18.775C35.1499 18.6917 35.1249 18.5333 34.6999 18.8417C34.2749 19.1583 34.8499 18.925 34.5249 19.0667C34.1999 19.2083 33.3999 19.65 34.1249 19.5583C34.8499 19.45 33.7749 19.8333 34.0249 19.9083C34.2749 19.975 34.1916 20.2 35.1416 19.9333C36.0749 19.6833 35.9249 19.9 36.4082 19.6833C36.8916 19.4833 36.2916 19.7583 36.9416 19.75C37.5832 19.7333 37.0499 19.75 37.1749 19.8833C37.2999 20.0167 37.8416 20.325 38.3499 20.3833C38.8582 20.4333 38.9916 20.2417 38.8416 20.4667C38.6916 20.6833 38.6416 20.7667 38.5582 20.85C38.4749 20.9167 38.2249 21.1 38.2249 21.4C38.2249 21.7083 37.8249 21.7583 37.9749 22.0917L38.3166 21.7583V21.75Z" fill="#5A3719"/>
<path d="M39.1583 22.4917C39.1583 22.4917 39.0417 22.4084 39.0417 22.2584C39.0417 22.2584 39.125 22.2751 39.1583 22.3251C39.1583 22.3251 39.45 21.9917 39.0917 21.8751C38.75 21.7584 38.925 21.4334 39.0417 21.4334C39.1583 21.4334 39.1833 21.4084 39.075 21.2667C38.975 21.1417 38.9917 21.1334 39.1833 21.1001C39.375 21.0667 39.3583 21.0167 39.2667 20.9751C39.207 20.9395 39.1535 20.8944 39.1083 20.8417C39.1083 20.8417 39.675 20.6001 39.4917 20.4834C39.3083 20.3751 39.4917 20.4001 39.6583 20.2917C39.825 20.1751 39.8417 20.1501 39.8667 20.1001C39.8667 20.1001 39.7 20.1251 39.5833 20.1001C39.5833 20.1001 39.725 20.0251 39.5833 19.9084C39.4417 19.7917 39.3917 19.6917 39.1667 19.7417C38.9417 19.8001 39.0167 19.7251 39.1 19.6334C39.1833 19.5417 39.15 19.4917 38.9917 19.4667C38.9917 19.4667 39.0083 19.3667 39.1333 19.2584C39.1333 19.2584 38.825 19.2751 38.7167 19.2251C38.7167 19.2251 38.85 19.1417 38.85 19.0334C38.85 19.0334 38.6833 19.0917 38.475 19.0751C38.475 19.0751 38.6 18.9667 38.6 18.8751C38.6 18.8751 38.2333 18.9584 38.0667 19.0834C38.0667 19.0834 38.025 19.0834 38 19.0334C37.9667 19.0001 37.95 18.9501 37.5417 19.0834C37.5417 19.0834 37.5833 18.9001 37.6833 18.8334C37.7833 18.7667 37.7667 18.6167 37.1417 19.0084C37.1417 19.0084 37.0583 18.9584 36.9833 18.7667C36.9833 18.7667 36.8417 18.9584 36.7417 19.0251C36.7417 19.0251 36.6583 19.0667 36.6583 18.9417C36.675 18.8167 36.6 18.9001 36.5417 18.9417C36.475 18.9751 36.4333 19.0667 36.4583 18.8167C36.4833 18.5667 36.375 18.5167 36.375 18.5167C36.375 18.5167 36.1833 18.7917 36.0667 18.8251C36.0667 18.8251 35.8583 18.6251 35.7833 18.4917C35.7167 18.3584 35.7167 18.3084 35.6417 18.5417C35.5667 18.7667 35.475 18.7917 35.475 18.7917C35.475 18.7917 35.35 18.6834 35.3417 18.6251C35.3417 18.6251 35.3167 18.6834 35.275 18.7084C35.275 18.7084 35.1667 18.5834 35.175 18.4001C35.175 18.4001 34.4917 18.7751 34.4083 19.0001C34.4083 19.0001 33.7667 18.9584 33.5083 19.0084C33.5083 19.0084 33.5667 18.8084 33.7333 18.7001C33.7333 18.7001 33.5667 18.6834 33.5667 18.5084C33.5667 18.5084 33.7 18.5251 33.7833 18.5084C33.8667 18.4917 33.6667 18.2501 33.875 18.2417C34.0833 18.2334 34.225 18.3417 34.125 18.0584C34.0417 17.7834 34.075 17.7834 34.075 17.7834C34.075 17.7834 34.4417 18.0001 34.5 17.9417C34.5667 17.8917 34.4583 17.7751 34.7833 17.8251C35.1083 17.8834 35.0167 17.7001 35.15 17.6834C35.275 17.6834 35.3417 17.7667 35.2583 17.1751C35.175 16.5834 35.6583 17.4667 35.3333 16.5751C35.3333 16.5751 35.25 16.3001 35.0583 16.1834C35.0583 16.1834 35.0083 16.3751 34.7917 16.2084C34.575 16.0417 34.1417 15.9751 34.325 15.8417C34.5083 15.7001 34.5917 15.5167 34.5417 15.4084C34.5417 15.4084 34.325 15.6251 33.9583 15.4667C33.6583 15.3417 33.5917 15.5751 33.2917 15.5084C33.2917 15.5084 33.2917 15.4251 33.55 15.2251C33.8 15.0334 33.4 15.2917 33.25 15.3334C33.0917 15.3667 33.05 15.3334 33.375 15.0751C33.7083 14.8251 34.375 14.3667 34.2917 13.9917C34.2917 13.9917 34.4417 14.1834 34.85 14.0417C35.2667 13.9001 35.5667 13.8501 35.6833 13.6251C35.8167 13.4167 36.1333 13.2084 36.2167 13.1584C36.3083 13.1167 36.4167 13.0751 36.2917 13.2834C36.1583 13.4834 35.9583 13.8334 35.3917 14.0667C34.825 14.3001 34.6 14.4667 34.5 14.5917C34.4 14.7167 33.8833 14.9917 34.225 14.9501C34.5583 14.8917 35.1333 14.9501 34.8583 14.8667C34.5917 14.7917 34.2833 14.9167 34.5333 14.6917C34.7833 14.4667 34.825 14.3917 35.1917 14.2417C35.5583 14.0834 35.9583 13.7334 35.9167 14.1084C35.875 14.4751 35.2 14.8667 35.0333 14.9917C34.8667 15.1084 34.9333 15.0917 34.9333 15.1417C34.9333 15.1917 34.9 15.2917 34.8333 15.3334C34.7667 15.3834 34.7917 15.4334 34.8083 15.5334C34.825 15.6417 34.7917 15.6834 34.8417 15.7001C34.8917 15.7084 34.9417 15.7167 34.9583 15.7917C34.975 15.8751 35.0083 15.8751 35.1083 15.8751C35.2 15.8584 35.275 15.8751 35.275 15.9251C35.275 15.9834 35.375 16.0667 35.3833 15.8917C35.3917 15.7084 35.4667 15.6834 35.2833 15.7667C35.1 15.8417 35.0667 15.8167 35.0667 15.7334C35.0667 15.6501 35.05 15.6667 34.9833 15.6584C34.9 15.6584 34.875 15.5501 35.0083 15.4751C35.1417 15.4084 35.1417 15.4751 35.3083 15.3417C35.475 15.2001 35.475 15.1751 35.5 15.0917C35.525 15.0334 35.2583 15.2917 35.1333 15.3417C35.0083 15.4084 35.05 15.3001 35.0667 15.1667C35.0917 15.0251 35.4 14.8334 35.5417 14.8334C35.6917 14.8334 36.0083 14.9167 35.875 15.1084C35.7333 15.3001 35.3417 15.5417 35.5 15.5584C35.675 15.5751 35.7 15.5084 35.8 15.5917C35.9 15.6751 35.8 15.8584 35.7667 15.9584C35.7219 16.0454 35.6595 16.122 35.5833 16.1834C35.5833 16.1834 35.4 15.8667 35.4083 16.1167C35.4083 16.3751 35.3667 16.4667 35.4083 16.4751C35.45 16.4834 35.6417 16.6167 35.7083 16.6167C35.775 16.6167 35.3667 16.8084 35.5417 16.8251C35.7083 16.8334 35.9833 16.7417 36.075 16.5751C36.075 16.5751 35.725 16.4917 35.5833 16.3584C35.5833 16.3584 35.9917 16.2584 35.875 15.8751C35.875 15.8751 36.2833 15.9834 36.1 16.1667C35.9333 16.3417 35.825 16.3167 35.975 16.3667C36.1333 16.4167 36.2 16.4667 36.2 16.4667C36.2 16.4667 36.3083 16.5167 36.2417 16.6001C36.1833 16.6834 36.1833 16.8167 36.2417 16.8084C36.2833 16.8084 36.4583 16.7251 36.3167 16.6417C36.1667 16.5584 36.475 16.5751 36.35 16.5001C36.2167 16.4167 36.1833 16.4084 36.15 16.3667C36.1083 16.3417 37.7917 15.3501 36.9417 15.7167C36.9417 15.7167 37.1167 15.3334 37.3667 15.3334C37.6167 15.3334 37.6333 15.5251 37.4917 15.6834C37.35 15.8251 37.2583 16.0667 36.9333 16.1167C36.9333 16.1167 37.4 16.3417 36.85 16.7167C36.85 16.7167 36.725 16.7751 36.7667 16.8167C36.8083 16.8584 37.1417 16.6751 37.1833 16.5667C37.2064 16.5106 37.2403 16.4596 37.2833 16.4166C37.3262 16.3737 37.3772 16.3398 37.4333 16.3167C37.5583 16.2584 38.1833 15.8334 38.3667 15.5167C38.5583 15.1917 38.6 15.1834 38.9667 14.8917C39.3333 14.6001 39.2667 14.6584 39.3167 14.5917C39.3583 14.5167 39.375 14.4001 39.5417 14.3084C39.7083 14.2084 40.3583 13.8584 40.5667 13.7084C40.7667 13.5584 41.1833 13.2917 41.3667 13.0584C41.5417 12.8334 42.0333 12.5417 42.15 12.5917C42.2667 12.6501 42.1333 12.8251 41.8583 13.0417C41.5667 13.2501 40.8583 13.8167 40.75 13.9084C40.4674 14.1362 40.1529 14.3215 39.8167 14.4584C39.5917 14.4834 39.6167 14.5667 39.4833 14.7084C39.35 14.8501 39.0417 15.1584 38.9417 15.2417C38.8333 15.3251 38.5833 15.4917 38.575 15.6167C38.5583 15.7417 38.6167 15.7501 38.4167 15.9334C38.1204 16.205 37.7864 16.4324 37.425 16.6084C37.425 16.6084 37.8 16.7417 37.575 16.9917C37.3583 17.2417 37.3667 17.2084 37.3583 17.2251C37.3583 17.2251 37.9167 17.1417 37.525 17.5834C37.525 17.5834 37.4417 17.7084 37.6167 17.5834C37.8083 17.4251 37.7333 17.2417 37.7 17.2084C37.7 17.2084 38.0083 17.0167 38.3583 17.0167C38.7 17.0167 38.6917 16.9917 38.375 16.9001C38.375 16.9001 38.6 16.6334 38.7917 16.7667C38.975 16.8917 38.9083 16.9751 38.7167 17.0834C38.5167 17.1834 38.2333 17.2251 38.0083 17.3501C38.0083 17.3501 38.425 17.4334 38.6417 17.2584C38.8583 17.0917 38.875 17.1751 38.8917 17.2084C38.9333 17.2417 38.9583 17.2917 38.8583 17.4251C38.7583 17.5667 38.75 17.5751 38.7583 17.6084C38.7583 17.6417 38.75 17.7334 38.55 17.7751C38.3583 17.8001 38.2583 17.8834 38.3333 17.9751C38.3917 18.0751 38.3917 18.3084 38.2333 18.2834C38.0667 18.2584 38.1 18.1251 38.0417 18.0751C37.975 18.0251 37.8833 17.9501 37.5917 18.0917C37.2917 18.2501 37.275 18.0667 37.2833 17.9667C37.2833 17.9667 37.0917 18.1334 36.9333 17.9834C36.7667 17.8251 36.9167 17.7667 37.0167 17.6917C37.1 17.6084 37.475 17.4417 37.25 17.4834C37.025 17.5084 36.6917 17.5167 36.6167 17.3501C36.5333 17.1751 36.7833 17.1917 36.8167 17.2084C36.8583 17.2251 37.0083 17.3501 37.025 17.1834C37.025 17.0167 37.275 16.9917 37.1917 16.9667C37.1083 16.9334 36.9833 17.0417 36.95 17.0751C36.95 17.0751 36.7833 16.8334 36.5 16.9084C36.2167 16.9917 36.5833 16.9667 36.6667 16.9751C36.7333 16.9917 36.6917 17.1251 36.4417 17.3584C36.1917 17.5834 36.3 17.5084 36.4833 17.5084C36.675 17.5084 37.1417 17.5084 36.8667 17.7251C36.6 17.9501 36.4917 18.0584 36.3667 18.0251C36.2167 17.9834 36.3667 17.8917 36.4333 17.8501C36.5 17.8084 36.5333 17.7501 36.4 17.8001C36.2667 17.8417 36.225 17.8584 36.1167 17.6751C36.0167 17.4834 36.05 17.5417 36.1 17.4167C36.15 17.2917 36.25 17.1667 36.1333 17.2084C36 17.2584 36.0167 17.2667 36.025 17.1251C36.0333 16.9834 35.8833 16.9501 35.8833 16.9501C35.8833 16.9501 35.95 17.0917 35.8917 17.1834C35.8417 17.2667 35.8333 17.3001 35.925 17.3167C36.0083 17.3501 36.0917 17.4251 35.975 17.5084C35.8583 17.5834 35.875 17.5667 35.9417 17.6167C36.025 17.6751 36.1333 17.7251 36.0167 17.8417C35.9 17.9584 35.9917 17.9251 36.05 17.9251C36.1167 17.9251 36.2417 17.9751 36.2417 18.0917C36.2417 18.1917 36.2417 18.2167 36.4333 18.1167C36.625 18.0084 36.9917 18.0251 36.9917 18.1667C36.9917 18.3167 36.9417 18.3584 37.1417 18.2334C37.3417 18.1084 37.4333 18.3501 37.575 18.2334C37.7083 18.1084 37.7917 18.0001 37.9583 18.2001C38.1167 18.4001 38.0667 18.4501 37.875 18.6001C37.6833 18.7417 37.9667 18.6334 38.1167 18.5584C38.2667 18.4834 38.675 18.4334 38.9083 18.5417C39.15 18.6417 39.2167 18.6251 39.3917 18.5417C39.5667 18.4751 39.6583 18.4584 39.9167 18.6334C40.1917 18.8167 40.3917 18.8501 40.5333 18.8417C40.5333 18.8417 40.2417 18.9584 39.9083 18.9751C39.575 19.0001 39.4083 19.0584 39.35 19.1084C39.35 19.1084 39.5417 19.2334 39.5833 19.3751C39.5833 19.3751 39.8 19.3501 39.9 19.3917C39.9 19.3917 39.85 19.5501 39.9833 19.6334C40.1167 19.7167 40.2083 19.7501 40.1083 19.8584C40.0083 19.9751 40.2667 19.9251 40.1167 20.0834C39.975 20.2501 39.9417 20.3334 39.9333 20.4584C39.9333 20.5917 39.9667 20.6084 39.8417 20.6251C39.7083 20.6334 39.8583 20.7834 39.8 20.9584C39.7417 21.1251 39.3833 21.1001 39.4 21.5584C39.4 21.5584 39.5 21.3334 39.7167 21.1417C39.925 20.9417 39.9333 20.9251 39.925 20.8084C39.925 20.6917 39.9167 20.7167 40.025 20.6251C40.1417 20.5417 39.975 20.4584 40.0917 20.3251C40.2 20.2001 40.1083 20.2251 40.2417 20.1001C40.3667 19.9667 40.1167 19.9584 40.2583 19.8251C40.3833 19.6917 39.925 19.5334 40.0667 19.4501C40.1917 19.3667 40.425 19.2501 39.65 19.2584C39.65 19.2584 39.8417 18.9584 40.4833 19.0167C40.4833 19.0167 40.3167 19.1501 40.3 19.2667L40.4333 19.3084C40.4333 19.3084 40.4 19.4001 40.275 19.5001C40.275 19.5001 40.625 19.6917 40.6833 19.8167C40.6833 19.8167 40.4667 19.8834 40.4083 19.9667C40.4083 19.9667 40.5083 20.0751 40.5417 20.2167C40.5417 20.2167 40.3 20.1834 40.275 20.3584C40.2417 20.5334 40.1667 20.4167 40.1667 20.5251C40.1667 20.6334 40.175 20.6667 40.0917 20.6917C40.0083 20.6917 40.0833 20.7834 40.0917 20.8417C40.1083 20.9001 40.1417 21.0334 40.125 21.0751C40.125 21.0751 40 21.0751 39.95 21.0917C39.95 21.0917 39.9833 21.3417 39.8417 21.3834C39.7 21.4167 39.925 21.4667 39.7667 21.4917C39.6167 21.5167 39.6417 21.5334 39.4583 21.8667C39.4583 21.8667 39.6167 21.7834 39.775 21.6667C39.9417 21.5584 39.7583 21.5834 40.025 21.3334C40.3 21.0584 40.25 21.0417 40.225 20.9084C40.2083 20.7751 40.2 20.6584 40.3 20.5334C40.4 20.4084 40.425 20.2667 40.775 20.2834C40.775 20.2834 40.675 20.0501 40.55 19.9917C40.55 19.9917 40.7167 19.8834 40.8833 19.8667C40.8833 19.8667 40.7333 19.6751 40.4167 19.5001C40.4167 19.5001 40.6667 19.2834 40.7417 19.1751C40.7417 19.1751 40.6167 19.2001 40.5167 19.1751C40.5167 19.1751 40.5667 19.0667 40.8 18.9167C40.8 18.9167 40.925 19.0334 40.9167 19.1584C40.9167 19.1584 41.3167 18.9334 41.5417 18.9584C41.5417 18.9584 41.6583 19.2417 41.1 19.7917C41.1 19.7917 41.45 19.8167 41.6 19.7917C41.6 19.7917 41.5167 20.0584 41.1 20.2084C40.6833 20.3751 41.1833 20.5584 40.7583 20.5251C40.3417 20.4917 40.4667 20.6334 40.475 20.8501C40.4917 21.0667 40.5 21.2917 40.4917 21.3501C40.4917 21.3501 40.1583 21.2417 40.1583 21.5667C40.1667 21.9001 39.9917 21.9667 39.95 21.9917C39.95 21.9917 39.85 21.9084 39.7 21.8501C39.7 21.8501 39.4917 22.2584 39.1583 22.4917Z" fill="#5A3719"/>
<path d="M38.6666 18.375C38.6666 18.375 38.7832 18.3583 38.9832 18.475C39.1749 18.6 39.3665 18.35 39.1499 18.2833C38.9332 18.2167 39.1499 18.1333 39.3499 18.3C39.5499 18.4583 39.6249 18.375 39.6999 18.325C39.7665 18.2667 39.8582 18.2333 39.7249 18.1417C39.5915 18.05 39.8082 18.0917 39.9166 18.1667C40.0166 18.225 39.9749 18.2917 39.9665 18.3083C39.9499 18.325 39.9415 18.55 40.1332 18.35C40.3332 18.1417 40.4415 17.95 40.4332 17.85C40.4332 17.85 40.5415 17.9167 40.5582 18.0417C40.5749 18.1667 40.7249 17.975 40.7749 17.9083C40.8249 17.8417 40.9082 17.6583 40.8999 17.5417C40.8999 17.5417 41.0332 17.75 41.2332 17.5417C41.4332 17.3333 41.3499 17.4583 41.5832 17.4C41.8561 17.3268 42.1021 17.1763 42.2916 16.9667C42.4582 16.7583 42.4665 16.9 42.6749 16.85C42.8832 16.8 43.3165 16.5 43.3582 16.3417C43.3915 16.1833 43.3832 16.0833 43.3249 16.1417C43.2665 16.1917 43.2915 16.1417 43.1999 16.0917C43.1082 16.0333 42.9749 16.1667 42.9749 16.1667C42.9749 16.1667 43.1082 16.2667 42.9999 16.3083C42.8999 16.3583 42.8082 16.5 42.6165 16.4417C42.4249 16.3917 42.2165 16.625 42.2165 16.625C42.2165 16.625 42.3832 16.7583 42.1582 16.85C41.9332 16.9333 41.9666 16.9667 41.8332 16.8667C41.8332 16.8667 41.5915 17.175 41.4499 17.2417C41.4499 17.2417 41.3915 17.2417 41.3499 17.175C41.3499 17.175 41.1832 17.35 41.1165 17.3833C41.1165 17.3833 41.0082 17.3 40.9249 17.2583C40.9249 17.2583 40.7332 17.5 40.5749 17.5667C40.5749 17.5667 40.5249 17.4833 40.4249 17.425C40.4249 17.425 40.3749 17.725 40.0416 17.9083C40.0416 17.9083 40.0582 17.825 39.8915 17.7167C39.8915 17.7167 39.4749 18.075 39.3165 18.1083C39.1499 18.1417 39.2999 18.0333 39.3165 17.9833C39.3499 17.9417 39.4499 17.7917 39.2499 17.7333C39.0499 17.675 39.0832 17.775 39.0416 17.7917C38.9916 17.8083 38.9915 17.7583 38.8582 17.775C38.7249 17.7917 38.7499 17.85 38.6915 17.875C38.6249 17.8917 38.3915 17.8333 38.4082 17.9917C38.4165 18.1417 38.5332 18.25 38.3249 18.3417C38.1165 18.425 38.4082 18.4083 38.6666 18.375Z" fill="#7B3C20"/>
<path d="M39.5078 17.9416C39.5078 17.9416 39.5578 17.7333 39.3828 17.65C39.3828 17.65 40.4828 17.475 39.6495 17.05C39.6495 17.05 40.6411 16.8583 40.3995 16.5416C40.1745 16.225 39.9495 16.2916 39.9161 16.2916C39.8828 16.2916 40.1245 16.1166 40.1911 16.1416C40.2495 16.1666 41.0411 16.4666 40.8411 16.2C40.6411 15.95 40.6578 15.9583 40.6245 15.8833C40.6245 15.8833 40.8828 15.8833 41.2828 16.2666C41.2828 16.2666 41.3661 16.1833 41.3578 16.025C41.3578 16.025 41.6328 16.1083 41.7245 16.1916C41.7245 16.1916 41.7745 16.0916 41.7495 16.0416C41.7495 16.0416 41.9995 16.1666 42.0828 16.3083C42.0828 16.3083 42.1911 16.2083 42.2078 16.0916C42.2078 16.0916 42.4578 16.2 42.5161 16.275C42.5161 16.275 42.5995 16.1666 42.5661 16.025C42.5661 16.025 42.9745 16.1333 43.0245 15.8916C43.0245 15.8916 43.4328 15.975 43.1661 16.1333C42.8328 16.3416 43.1328 16.0833 42.7828 16.325C42.5161 16.5166 42.3661 16.7333 42.2328 16.6916C42.1411 16.65 42.0245 16.9333 41.8995 16.8C41.7745 16.6583 41.7745 16.7166 41.6745 16.8583C41.6058 16.9624 41.5277 17.0601 41.4411 17.15C41.4411 17.15 41.3745 17.1083 41.3078 17.05C41.3078 17.05 41.2411 17.1833 41.1411 17.2833C41.1411 17.2833 41.0578 17.175 40.9245 17.1166C40.9245 17.1166 40.7328 17.3416 40.6078 17.425C40.6078 17.425 40.4911 17.3083 40.3661 17.2666C40.3661 17.2666 40.3495 17.5833 40.1078 17.7416C40.1078 17.7416 40.0578 17.6416 39.8911 17.575C39.8911 17.575 39.7745 17.7666 39.5078 17.9333V17.9416Z" fill="#5A3719"/>
<path d="M38.9337 17.4583C38.9337 17.4583 38.8004 17.5583 38.8837 17.6666C38.9671 17.7833 38.9754 17.65 39.0837 17.6416C39.1921 17.625 40.5421 17.3916 39.3171 17.0333C39.3171 17.0333 39.3754 16.9833 39.5754 16.9666C39.7921 16.9416 40.5587 16.7416 40.2004 16.4666C39.8421 16.2 39.5421 16.5583 39.8421 16.2333C40.0921 15.975 39.8921 15.85 39.8921 15.85C39.8921 15.85 39.1837 16.3166 39.0254 16.4083C38.8754 16.4916 38.6421 16.6583 38.9087 16.7416C39.1837 16.825 39.3587 16.4583 39.3837 16.5416C39.4087 16.625 38.8504 16.9416 38.9337 17.075C39.0087 17.225 38.9921 17.35 39.1337 17.3166C39.2671 17.2916 39.6337 17.3833 39.3421 17.375C39.0337 17.3666 38.9254 17.4583 38.9254 17.4583H38.9337Z" fill="#5A3719"/>
<path d="M39.4161 16.775C39.4161 16.775 39.2911 16.8666 39.4578 16.825C39.6244 16.7833 39.9494 16.7083 39.8911 16.625C39.8244 16.5416 39.6078 16.6416 39.4161 16.775Z" fill="black"/>
<path d="M41.5835 15.375C41.5835 15.375 42.2085 15.3584 42.4585 15.5334C42.7085 15.7 42.8418 15.8167 42.9168 15.85C42.9168 15.85 42.9085 16.0834 42.5002 15.9084C42.5002 15.9084 42.5335 16.025 42.4835 16.1417C42.4835 16.1417 42.3418 16.0417 42.1668 16C42.1668 16 42.1335 16.0834 42.0835 16.1417C42.0835 16.1417 41.9085 15.9584 41.7002 15.9C41.7002 15.9 41.6668 15.9917 41.6335 16.0334C41.6335 16.0334 41.4168 15.9 41.2502 15.9C41.2502 15.9 41.2835 16.0417 41.2502 16.0917C41.2502 16.0917 40.8002 15.7334 40.3918 15.775C40.3918 15.775 40.5835 16.0667 40.7085 16.2C40.7085 16.2 39.8918 16.1417 40.0418 15.7C40.1668 15.2584 40.0252 15.3667 40.5585 15.3667H41.5835V15.375Z" fill="#7B3C20"/>
<path d="M37.7419 16.5917C37.7419 16.5917 37.6502 16.675 37.7419 16.7333C37.8336 16.8 38.1586 16.5667 38.2002 16.5333C38.2502 16.5 38.3669 16.5 38.2002 16.625C38.0336 16.75 37.8836 16.875 37.7836 17.0083C37.7836 17.0083 38.3169 16.8583 38.6669 16.5583C39.0252 16.25 38.6586 16.45 39.2502 16.1583C39.8586 15.8667 40.1752 15.4 39.8502 15.45C39.5336 15.5 39.2419 15.8667 38.9836 16.0083C38.7336 16.15 38.5919 16.175 38.6336 16.0917C38.6669 16.0083 38.8586 16.0417 39.2086 15.7583C39.5502 15.4833 39.4752 15.5083 39.4752 15.4083C39.4752 15.3083 39.3502 15.075 39.8669 14.7917C40.3836 14.5167 42.0002 13.5833 42.1419 13.25C42.1419 13.25 41.6669 13.3 41.0419 13.7583C40.6991 14.0449 40.3244 14.291 39.9252 14.4917C39.7586 14.5583 39.7752 14.5083 39.6669 14.65C39.3976 14.9336 39.1168 15.2061 38.8252 15.4667C38.7169 15.55 38.6752 15.6 38.6669 15.7833C38.6669 15.8667 37.9669 16.3917 37.7502 16.5917H37.7419Z" fill="#5A3719"/>
<path d="M39.8834 15.3583C39.8834 15.3583 39.7584 15.4083 39.6334 15.3583C39.525 15.3 39.5667 15.0583 39.8417 14.9C40.172 14.7199 40.5253 14.5853 40.8917 14.5C40.8917 14.5 40.85 14.8167 40.05 15.0917C40.05 15.0917 40.1 15.2583 39.8834 15.3583Z" fill="#5A3719"/>
<path d="M37.2998 16C37.2998 16 37.1081 16.1416 37.1915 16.2C37.2748 16.275 37.4081 16.2833 37.6915 16.0416C37.9915 15.7916 38.6998 15.1916 38.2581 15.1666C38.2581 15.1666 37.6748 15.1333 37.6998 15.4833C37.7165 15.8333 37.3331 15.9833 37.2998 16ZM35.9748 15.7916C35.9748 15.7916 36.3581 16.0166 36.2081 16.2C36.2081 16.2 37.3748 15.2166 37.0415 15C36.7248 14.7833 36.4665 15.1916 36.5415 15.225C36.6248 15.275 36.7915 15.1916 36.7331 15.275C36.4956 15.4647 36.245 15.6373 35.9831 15.7916H35.9748ZM35.6748 15.475C35.6748 15.475 35.9248 15.5583 35.9415 15.6666C35.9498 15.7666 36.7081 15.1333 36.5081 14.8583C36.4165 14.7333 36.0081 14.6916 35.9748 14.925C35.9581 15.175 36.3581 14.9 36.2248 15.075C36.0415 15.3 35.7331 15.4416 35.6748 15.475ZM38.3915 14.9416C38.3915 14.9416 38.2331 15.0583 38.3831 15.1333C38.5331 15.1916 38.6165 15.0833 38.6915 15.025C38.7665 14.9583 39.1331 14.6916 39.2081 14.525C39.2915 14.3583 39.4165 14.3 39.5498 14.2166C39.6748 14.1333 40.5998 13.6666 41.1748 13.1583C41.7415 12.65 41.5081 12.7833 42.0915 12.4583C42.6748 12.1333 43.0665 11.8333 43.1915 11.475C43.1915 11.475 42.9165 11.5583 42.6748 11.725C42.3823 11.9132 42.085 12.0938 41.7831 12.2666C41.6748 12.3083 41.5331 12.3166 41.4498 12.4C41.3665 12.4833 41.3665 12.5916 41.0915 12.8166C40.7998 13.0583 39.3415 14.0916 39.1581 14.2333C38.8982 14.4646 38.6426 14.7008 38.3915 14.9416Z" fill="#5A3719"/>
<path d="M37.2168 15.2833C37.2168 15.2833 37.3835 15.2 37.6835 15.2166C37.9835 15.2333 39.1668 14.0833 39.5168 13.8583C40.0491 13.4928 40.5689 13.1092 41.0751 12.7083C41.2251 12.5583 41.2418 12.4083 41.3751 12.325C41.5001 12.2416 41.6251 12.25 41.9085 12.0833C42.2001 11.9166 43.6001 11.0833 43.5168 10.6C43.5168 10.6 41.4335 11.85 40.9585 12.25C40.2926 12.7693 39.6059 13.2613 38.9001 13.725C38.6668 13.8833 38.4835 14.1416 38.0751 14.4583C37.6835 14.7833 37.2835 15.0583 37.2168 15.2916V15.2833Z" fill="#AA5323"/>
<path d="M36.7832 14.8333C36.7832 14.8333 37.1665 14.8 37.2165 14.9917C37.2165 14.9917 38.0499 14.425 38.2332 14.1917C38.4165 13.9583 38.1665 14.0917 38.6415 13.7833C39.4062 13.2738 40.1564 12.743 40.8915 12.1917C41.1165 12 41.5415 11.7333 41.8832 11.5083C42.2165 11.275 43.5415 10.625 43.3915 10.0917L42.2082 10.8833C41.9832 11.0333 41.8832 10.95 41.6665 11.125C41.4499 11.3 40.9582 11.65 40.8749 11.7583C40.4924 12.0861 40.0917 12.3922 39.6749 12.675C39.3082 12.925 38.4999 13.3917 38.0999 13.7417C37.6673 14.1158 37.2283 14.4825 36.7832 14.8417V14.8333Z" fill="#AA5323"/>
<path d="M35.583 14.7333C35.583 14.7333 35.7747 14.7333 35.8413 14.8083C35.8413 14.8083 36.1997 14.4833 36.583 14.8083C36.583 14.8083 37.983 13.85 38.1247 13.6083C38.2663 13.375 38.4997 13.3667 39.0413 12.975C39.5913 12.575 39.933 12.4 40.2913 12.125C40.658 11.8417 40.9663 11.5167 41.2247 11.35C41.483 11.1833 42.1413 10.75 42.0413 10.375C42.0413 10.375 41.4997 10.675 41.158 11.0583C40.808 11.4417 40.8413 11.1167 40.483 11.4333C40.0715 11.8123 39.6153 12.1397 39.1247 12.4083C38.6663 12.6333 38.9413 12.6083 38.608 12.825C38.283 13.0333 38.308 12.9917 38.1913 13.0333C38.0277 13.0719 37.8795 13.159 37.7663 13.2833C37.633 13.425 37.3163 13.6167 36.9663 13.825C36.4779 14.084 36.0148 14.3881 35.583 14.7333Z" fill="#AA5323"/>
<path d="M36.0087 14C36.0087 14 35.9254 13.8416 36.0671 13.725C36.2004 13.6166 36.4504 13.325 36.4837 13.1416C36.5254 12.95 36.4921 12.9833 36.8837 12.825C38.0114 12.3512 39.0798 11.7471 40.0671 11.025C40.2171 10.9 40.6004 10.6416 40.7587 10.5083C40.7587 10.5083 40.8254 10.7166 40.6587 10.8583C40.0864 11.307 39.4882 11.7216 38.8671 12.1C38.6837 12.1916 38.2337 12.425 38.0671 12.5583C37.9087 12.6916 37.9337 12.725 37.2171 13.0833C36.5087 13.425 36.4671 13.4666 36.4921 13.4916C36.5171 13.525 36.8421 13.3833 36.9921 13.2916C37.1421 13.2083 37.7254 12.9333 37.9087 12.7916C38.0943 12.6407 38.2891 12.5016 38.4921 12.375C39.003 12.0819 39.5034 11.7706 39.9921 11.4416C40.2837 11.2166 40.3671 11.15 40.4337 11.1916C40.4921 11.225 40.6004 11.225 40.4671 11.3583C40.3337 11.4916 39.9087 11.8583 39.7421 11.9666C39.5754 12.075 39.0671 12.3833 38.9254 12.45C38.7837 12.5333 38.7254 12.6583 38.6421 12.7166C38.5671 12.7833 38.3337 12.9416 38.0587 13.0083C37.7837 13.075 37.7254 13.2833 37.5337 13.4083C37.3421 13.525 36.0337 14.2416 35.9921 14.2666C35.9921 14.2666 36.0671 14.1833 36.0087 14Z" fill="#AA5323"/>
<path d="M34.6336 13.5833C34.6336 13.5833 34.2336 13.8 34.3752 13.9333C34.5169 14.0583 34.7252 14.0166 34.8252 13.9833L35.0919 13.9C35.1252 13.9 35.4669 13.7916 35.5586 13.6333C35.6419 13.4666 35.8752 13.2833 36.0586 13.15C36.2419 13.025 36.3086 12.8833 36.2836 12.7916L34.6336 13.5833ZM32.2669 15.4166C32.2669 15.4166 32.5502 15.25 32.9336 15.3583C32.9336 15.3583 32.9169 15.2666 32.8502 15.2166C32.8502 15.2166 33.3252 15.0916 33.4252 14.8833C33.5252 14.675 33.5502 14.7166 33.6336 14.6666C33.7336 14.6 34.3586 14.1 34.2836 13.9916C34.2086 13.8833 34.2002 13.7333 34.1419 13.6833C34.1419 13.6833 34.0169 13.8583 33.3919 14.1583C32.7919 14.4583 32.1086 14.675 31.6086 15.3416C31.1169 16.0083 31.1669 16.3916 31.7752 16.5666C31.7752 16.5666 32.1919 16.3 33.2419 16.3916C34.2752 16.4833 34.6252 16.875 34.6919 16.9416C34.7586 17.0166 34.9669 17.275 34.7669 17.7C34.7669 17.7 34.9752 17.7916 34.9836 17.5916C35.0086 17.4 35.0169 17.4416 35.0669 17.4666C35.1169 17.5 35.1752 17.5083 35.1502 17.35C35.1295 17.1386 35.0642 16.9341 34.9586 16.75C34.8669 16.625 34.9752 16.6833 35.0336 16.7C35.0919 16.725 35.3086 16.9083 35.1836 16.575C35.0586 16.2583 35.0169 16.4083 35.0169 16.425C35.0169 16.45 34.9836 16.525 34.7002 16.3083C34.4805 16.1419 34.2319 16.0175 33.9669 15.9416C33.7752 15.8916 33.9086 15.8916 34.0252 15.8583C34.1419 15.8083 34.2836 15.7916 34.3419 15.6583C34.3419 15.6583 34.2252 15.6833 34.0252 15.6083C33.8634 15.5607 33.6928 15.551 33.5266 15.5799C33.3605 15.6088 33.2032 15.6756 33.0669 15.775C33.0669 15.775 33.1669 15.4 32.8586 15.4166C32.5586 15.4416 32.3419 15.4333 32.0252 15.6833C32.0252 15.6833 32.0002 15.3 32.3086 15.1C32.6169 14.8916 32.5752 15.0166 32.7419 14.9666C32.9086 14.9166 32.9336 14.7416 32.8586 14.6833C32.8586 14.6833 33.2586 14.7583 33.9252 14.2C33.9252 14.2 33.5669 14.675 33.1336 14.7666C33.1336 14.7666 33.0586 15.0166 32.6586 15.075C32.2586 15.1333 32.2752 15.3583 32.2752 15.4166H32.2669Z" fill="#7B3C20"/>
<path d="M31.1339 17.725C31.1339 17.725 31.3172 16.55 32.4255 16.4667C33.3755 16.3833 33.6839 16.5083 33.8755 16.575C34.0672 16.6417 34.5422 16.775 34.3589 16.925C34.1755 17.075 34.0672 17.05 34.0672 17.05C34.0672 17.05 34.2755 16.8083 34.0839 16.775C33.8922 16.7333 33.8839 16.85 33.8589 16.9417C33.8255 17.05 33.8172 17.1583 33.7255 17.2417C33.7255 17.2417 33.6255 17.125 33.4839 17.225C33.3422 17.325 33.4672 17.325 33.5255 17.3083C33.5755 17.2917 33.6505 17.2667 33.6339 17.35C33.6255 17.4333 33.5505 17.5833 33.3172 17.7C33.0922 17.8167 33.1005 17.8083 32.8339 17.8583C32.5589 17.9 32.3089 18.0083 31.9589 18.3C31.6089 18.6 31.2339 18.5 31.1589 18.175C31.0922 17.8917 31.1255 17.725 31.1255 17.725H31.1339Z" fill="#5A3719"/>
<path d="M32.3831 17.6834C32.3831 17.6834 32.4831 17.4584 32.2998 17.35C32.2998 17.35 31.7248 17.45 31.5498 17.275C31.5498 17.275 32.1748 17.2417 32.5665 17.0834C32.9498 16.9417 32.8415 16.8334 32.7081 16.8C32.5748 16.775 32.3248 16.8417 32.2998 16.9667C32.2998 16.9667 32.2165 16.8334 32.3165 16.75C32.4248 16.6584 32.5665 16.6417 32.7081 16.6834C32.8498 16.7167 32.9665 16.7834 33.4248 16.55C33.4248 16.55 33.6831 16.6084 33.6998 16.7834C33.6998 16.9667 33.6748 17.0334 33.6498 17.0584C33.6331 17.0917 33.5998 17.1417 33.5415 17.1417C33.4915 17.125 33.4165 17.1167 33.3498 17.2417C33.2915 17.3667 33.2415 17.4667 33.1331 17.55C33.1331 17.55 33.2581 17.1667 32.9248 17.075C32.9248 17.075 32.6498 17.2417 32.4415 17.25C32.4415 17.25 32.7081 17.5 32.3748 17.6834H32.3831Z" fill="black"/>
<path d="M32.9919 16.9833C32.9919 16.9833 32.8586 16.85 33.0252 16.825C33.1919 16.8166 33.4086 16.9416 33.3752 17.05C33.3252 17.15 33.1252 17.1416 32.9919 16.9833Z" fill="#5A3719"/>
<path d="M33.2748 16.8167C33.2748 16.8167 33.4248 16.8584 33.4581 16.9667C33.4998 17.0667 33.5915 16.9167 33.5915 16.8751C33.5831 16.8251 33.4915 16.6251 33.3415 16.7167C33.1748 16.8084 33.2581 16.8084 33.2748 16.8167Z" fill="#5A3719"/>
<path d="M32.8749 18.8333C32.8749 18.8333 33.1833 18.6833 33.4499 18.7083C33.4499 18.7083 33.3416 18.3417 33.5249 18.4C33.6999 18.4667 33.6499 18.4333 33.6916 18.4333C33.6916 18.4333 33.6999 18.1917 33.6499 18.1C33.6499 18.1 33.8416 18.1417 34.0333 18.1417C34.0333 18.1417 33.8499 17.8 34.0499 17.5583C34.0862 17.6267 34.1359 17.687 34.196 17.7357C34.2562 17.7844 34.3255 17.8204 34.3999 17.8417V17.65C34.3999 17.65 34.5416 17.625 34.6499 17.6833C34.7666 17.75 34.8583 17.05 34.5249 16.9083C34.5249 16.9083 34.4416 17.0333 34.1333 17.1C33.8249 17.1667 33.8249 17.225 33.6999 17.4583C33.5749 17.6917 33.4499 17.7 33.1833 17.875C32.9333 18.0417 32.7666 18.375 32.7666 18.4083C32.7666 18.4083 32.8916 18.575 32.8749 18.8333Z" fill="#7B3C20"/>
<path d="M30.2165 21.325C30.2165 21.325 30.1915 20.8083 30.4498 20.5583C30.7081 20.3083 31.9331 19.0166 32.1248 18.6583C32.1248 18.6583 32.2915 18.7666 32.2915 18.975C32.2915 18.975 32.4998 18.6166 32.6665 18.475C32.6665 18.475 32.8081 18.625 32.7915 18.925C32.7915 18.925 33.0831 18.7666 33.5415 18.7666C33.5415 18.7666 33.3748 18.9666 33.3665 19.0916C33.3665 19.0916 33.9998 19.0083 34.3415 19.0666C34.3415 19.0666 33.4581 19.5666 33.6998 19.6083C33.9581 19.65 34.2165 19.6083 34.2165 19.6083C34.2165 19.6083 33.9331 19.8833 33.4831 19.9416C33.4831 19.9416 34.0581 19.9416 34.1665 20.0666C34.1665 20.0666 33.6165 20.15 33.1665 20.4833C33.1665 20.4833 33.1331 20.4666 33.1331 20.3416C33.1331 20.3416 33.1081 20.4583 32.9831 20.5666C32.8581 20.6666 32.5581 20.9 32.4415 21.0083C32.3248 21.1166 32.1248 21.3416 31.8915 21.3416C31.8915 21.3416 31.9415 21.1666 31.7748 21.1083C31.6883 21.0788 31.5951 21.0749 31.5064 21.0971C31.4177 21.1193 31.3373 21.1666 31.2748 21.2333C31.2748 21.2333 30.6915 21.2416 30.4915 21.275C30.4915 21.275 30.6248 21.0583 30.7415 21.0583C30.8748 21.0583 31.3748 21.1416 31.4165 20.7916C31.4665 20.4583 31.0998 20.5416 31.2331 20.3416C31.3748 20.1416 31.3415 20.1583 31.3498 20.125C31.3498 20.125 31.2331 20.1916 31.1665 20.375C31.1123 20.5776 30.9883 20.7547 30.8165 20.875C30.6524 20.9807 30.5155 21.1234 30.4165 21.2916C30.4165 21.2916 30.3081 21.2916 30.2165 21.325Z" fill="white"/>
<path d="M30.7832 21.0167C30.7832 21.0167 30.8082 20.95 30.9749 20.9167C31.1582 20.8917 31.1665 20.8083 31.1415 20.7667C31.1165 20.7333 31.0165 20.7333 31.1832 20.5333C31.1832 20.5333 31.2499 20.5583 31.2832 20.6C31.3332 20.65 31.5249 21.0583 30.7832 21.0167Z" fill="white"/>
<path d="M30.375 20.6583C30.375 20.9916 30.8167 20.8666 30.8167 20.8666C30.6992 20.9533 30.5929 21.0541 30.5 21.1666C30.5333 21 30.25 20.9583 30.25 20.9583C30.2754 20.8523 30.3176 20.751 30.375 20.6583ZM31.9833 18.8666L32.125 18.6583C32.125 18.6583 32.2917 18.7666 32.2917 18.975C32.2917 18.975 32.5 18.6166 32.6667 18.475C32.6667 18.475 32.8083 18.625 32.7917 18.925C32.7917 18.925 33.0833 18.7666 33.5417 18.7666C33.5417 18.7666 33.375 18.9666 33.3667 19.0916C33.3667 19.0916 34 19.0083 34.3417 19.0666C34.3417 19.0666 33.4583 19.5666 33.7 19.6083C33.9583 19.65 34.2167 19.6083 34.2167 19.6083C34.2167 19.6083 33.9333 19.8833 33.4833 19.9416C33.4833 19.9416 34.0583 19.9416 34.1667 20.0666C34.1667 20.0666 34 20.0916 33.7833 20.1666C33.7833 20.1666 33.625 20.0166 33.15 20.0416C33.15 20.0416 33.5167 19.825 33.8167 19.7583C33.8167 19.7583 33.6833 19.5916 33.4833 19.75C33.4833 19.75 33.075 19.475 33.4167 19.2333C33.4167 19.2333 33.1833 19.1916 33.025 19.3C33.025 19.3 33.025 19.1083 33.2 19.025C33.2 19.025 32.75 18.9416 32.6417 19.275C32.6417 19.275 32.5583 19.15 32.6 18.9916C32.6 18.9916 32.325 19.15 32.2 19.325C32.2 19.325 32.1583 18.9916 31.9833 18.8666ZM31.1167 21C31.0417 21.0166 30.925 21.025 30.7833 21.0166C30.7833 21.0166 30.8 20.975 30.8917 20.9333C30.8917 20.9333 30.925 21 31.1167 21Z" fill="#999999"/>
<path d="M31.9336 19.7249C31.9336 19.7249 32.1419 19.8916 32.2086 19.9749C32.2086 19.9749 32.4003 19.8583 32.4586 19.7499C32.4586 19.7499 32.6169 19.8416 32.6586 19.9833C32.6586 19.9833 32.7669 19.9166 32.7836 19.8166C32.7836 19.8166 33.0336 19.8666 33.1336 19.9499C33.1336 19.9499 33.1669 19.6999 33.1336 19.5499C33.1336 19.5499 33.3086 19.5666 33.4169 19.6083C33.4169 19.6083 33.3169 19.4416 33.8336 19.2333C33.8336 19.2333 33.4419 19.3249 33.2919 19.4833C33.2919 19.4833 33.1253 19.4999 33.0503 19.4499V19.8249C33.0503 19.8249 32.9503 19.7749 32.7586 19.7333C32.7586 19.7333 32.7086 19.8166 32.6753 19.8333C32.6753 19.8333 32.5503 19.7333 32.5003 19.6083C32.5003 19.6083 32.3086 19.7833 32.2503 19.8583C32.2503 19.8583 32.0586 19.7249 31.9336 19.7249Z" fill="black"/>
<path d="M30.7578 22.275C30.7578 22.275 30.8411 22.3084 31.0328 22.1584C31.2245 22.0084 31.7578 21.6667 31.7995 21.3917C31.8578 21.1167 31.6328 21.1084 31.4661 21.1834C31.2828 21.2667 31.3578 21.4084 31.3661 21.4667C31.3661 21.5167 31.3828 21.7084 31.0911 21.9667L30.7578 22.275Z" fill="#FFC221"/>
<path d="M30.7083 22.3584C30.7083 22.3584 30.275 22.175 30.6583 21.9834C31.0417 21.7917 31.2167 21.7417 31.2583 21.575C31.3083 21.4167 31.275 21.45 31.1333 21.5167C30.9917 21.575 30.45 21.8334 30.3667 21.6C30.3667 21.6 30.5917 21.6834 30.8667 21.55C31.15 21.4084 31.3833 21.375 31.2 21.3167C30.8941 21.2848 30.5851 21.2988 30.2833 21.3584C30.1667 21.3917 30.2 21.3834 30.175 21.4917C30.1583 21.6 30.0417 21.825 29.9917 21.8834C29.95 21.95 29.8417 22.2167 30.0417 22.3417C30.1431 22.3983 30.2568 22.4294 30.373 22.4323C30.4891 22.4352 30.6042 22.4098 30.7083 22.3584Z" fill="#FFC221"/>
<path d="M30.5422 21.4166C30.5422 21.4166 30.4338 21.4333 30.4588 21.475C30.4755 21.5166 30.5005 21.5083 30.5422 21.5083C30.5672 21.5083 30.6255 21.4916 30.6338 21.4666C30.6338 21.4416 30.5672 21.4083 30.5422 21.425V21.4166Z" fill="black"/>
<path d="M30.6755 22.2584C30.6755 22.2584 30.4755 22.1667 30.7088 22.0417C30.9338 21.9167 31.1755 21.7917 31.2088 21.7417C31.2088 21.7417 31.1005 21.9 30.6755 22.2584Z" fill="white"/>
</g>
<defs>
<clipPath id="clip0_8424_43254">
<rect width="40" height="40" rx="20" fill="white"/>
</clipPath>
</defs>
</svg>
