<svg width="40" height="40" viewBox="0 0 40 40" fill="none" xmlns="http://www.w3.org/2000/svg">
<g clip-path="url(#clip0_8424_43387)">
<path fill-rule="evenodd" clip-rule="evenodd" d="M-7 0H46.3333V20.3H-7V0Z" fill="#FF0000"/>
<path fill-rule="evenodd" clip-rule="evenodd" d="M-7 19.7H46.3333V40H-7V19.7Z" fill="black"/>
<path fill-rule="evenodd" clip-rule="evenodd" d="M12.0578 12.35C25.8245 15.9584 16.9745 33.65 6.11614 26.2834L5.38281 27.4167C11.7745 31.9667 18.0995 28.3 19.8828 23.55C21.7328 18.65 19.2495 11.7584 12.1661 11.05L12.0578 12.35Z" fill="#FFEC00"/>
<path fill-rule="evenodd" clip-rule="evenodd" d="M7.16641 27.5666L8.97474 28.4083L8.12474 30.225L6.31641 29.375L7.16641 27.5666ZM19.5831 19.275H21.5831V21.275H19.5831V19.275ZM18.6081 16.0333L20.4664 15.3166L21.1914 17.175L19.3331 17.9L18.6081 16.0333ZM16.4414 13.6083L17.8664 12.2L19.2747 13.6166L17.8581 15.025L16.4414 13.6083ZM14.2581 10.2916L16.1247 10.9916L15.4164 12.8583L13.5497 12.1583L14.2581 10.2916ZM19.3331 22.5L21.1914 23.2416L20.4414 25.0916L18.5914 24.35L19.3331 22.5ZM13.5081 28.3333L15.3414 27.5583L16.1331 29.3916L14.2997 30.175L13.5081 28.3333ZM10.2164 28.5666H12.2164V30.5666H10.2164V28.5666ZM13.6581 18.9L11.9664 17.65L10.2747 18.8666L10.9414 16.95L9.24974 15.7H11.2914L11.9997 13.8166L12.6497 15.7083L14.7081 15.6833L13.0747 16.9583L13.6581 18.9083V18.9Z" fill="#FFEC00"/>
<path fill-rule="evenodd" clip-rule="evenodd" d="M20.9997 28.8667C20.8997 28.9 20.4831 29.9 20.1914 30.3834L20.4997 30.4667C21.6331 30.8667 22.1997 31.2334 22.6831 31.925C22.7949 32.0339 22.9417 32.0996 23.0974 32.1102C23.253 32.1209 23.4075 32.076 23.5331 31.9834C23.5331 31.9834 23.7664 31.9 24.0664 31.5667C24.3164 31.1917 24.2497 30.9 23.9497 30.6417C23.0331 29.975 22.0414 29.475 20.9997 28.8667Z" fill="#FFEE00"/>
<path fill-rule="evenodd" clip-rule="evenodd" d="M23.4419 31.0666C23.4419 31.1628 23.4037 31.255 23.3358 31.323C23.2678 31.3909 23.1756 31.4291 23.0794 31.4291C22.9833 31.4291 22.8911 31.3909 22.8231 31.323C22.7551 31.255 22.7169 31.1628 22.7169 31.0666C22.7169 30.9716 22.7547 30.8805 22.8219 30.8133C22.8891 30.7461 22.9802 30.7083 23.0753 30.7083C23.1703 30.7083 23.2614 30.7461 23.3286 30.8133C23.3958 30.8805 23.4336 30.9716 23.4336 31.0666H23.4419ZM21.6586 29.9333C21.6586 30.0294 21.6204 30.1216 21.5524 30.1896C21.4844 30.2576 21.3922 30.2958 21.2961 30.2958C21.2 30.2958 21.1077 30.2576 21.0398 30.1896C20.9718 30.1216 20.9336 30.0294 20.9336 29.9333C20.9336 29.8372 20.9718 29.745 21.0398 29.677C21.1077 29.609 21.2 29.5708 21.2961 29.5708C21.3922 29.5708 21.4844 29.609 21.5524 29.677C21.6204 29.745 21.6586 29.8372 21.6586 29.9333ZM22.5669 30.5166C22.5669 30.6128 22.5287 30.705 22.4608 30.773C22.3928 30.8409 22.3006 30.8791 22.2044 30.8791C22.1083 30.8791 22.0161 30.8409 21.9481 30.773C21.8801 30.705 21.8419 30.6128 21.8419 30.5166C21.8419 30.4205 21.8801 30.3283 21.9481 30.2603C22.0161 30.1923 22.1083 30.1541 22.2044 30.1541C22.3006 30.1541 22.3928 30.1923 22.4608 30.2603C22.5287 30.3283 22.5669 30.4205 22.5669 30.5166Z" fill="black"/>
<path fill-rule="evenodd" clip-rule="evenodd" d="M20.0416 30.3083C16.4916 28.2833 12.7666 26.1 9.20831 24.075C7.64998 23.1 7.57498 21.2917 8.62498 19.9167C8.72498 19.725 8.85831 19.7667 8.90831 19.875C9.03331 20.5417 9.40831 21.2333 9.85831 21.6667C13.5518 23.99 17.2105 26.368 20.8333 28.8C20.55 29.2833 20.3333 29.825 20.0416 30.3V30.3083Z" fill="#FFEE00"/>
<path fill-rule="evenodd" clip-rule="evenodd" d="M17.7669 25.4584L19.2503 26.7917L17.9169 28.275L16.4336 26.9417L17.7669 25.4584Z" fill="#FFEC00"/>
<path fill-rule="evenodd" clip-rule="evenodd" d="M10.2728 22.668L20.6895 28.9596L20.5602 29.1736L10.1436 22.882L10.2728 22.668ZM15.9012 25.2368L19.4095 27.5118L19.2735 27.7215L15.7652 25.4465L15.9012 25.2368ZM13.8374 26.7251L17.4124 28.7917L17.2873 29.0082L13.7123 26.9415L13.8374 26.7251Z" fill="black"/>
</g>
<defs>
<clipPath id="clip0_8424_43387">
<rect width="40" height="40" rx="20" fill="white"/>
</clipPath>
</defs>
</svg>
