<svg width="40" height="40" viewBox="0 0 40 40" fill="none" xmlns="http://www.w3.org/2000/svg">
<g clip-path="url(#clip0_8424_43395)">
<path d="M-7 0H46.3333V40H-7V0Z" fill="#012169"/>
<path d="M33.3584 15.0333L33.5251 15.2L33.3584 15.0333Z" fill="#49497D"/>
<path d="M33.5254 15.0333L33.6921 15.2L33.5254 15.0333Z" fill="#0E0E6E"/>
<path d="M33.0166 15.2L33.1833 15.3666L33.0166 15.2Z" fill="#262678"/>
<path d="M33.1914 15.2L33.3581 15.3666L33.1914 15.2Z" fill="#808067"/>
<path d="M33.6914 15.2L33.8581 15.3666L33.6914 15.2Z" fill="#58587B"/>
<path d="M27.4336 15.375L27.6003 15.5417L27.4336 15.375Z" fill="#0E0E6E"/>
<path d="M32.6836 15.375L32.8503 15.5417L32.6836 15.375Z" fill="#1B1B74"/>
<path d="M32.8496 15.375L33.0163 15.5417L32.8496 15.375Z" fill="#6E6C70"/>
<path d="M27.7328 15.6667C27.7328 20.05 27.2328 24.975 30.4828 28.4C31.1494 29.1 32.4328 30.7083 33.5244 30.65C34.6661 30.5833 36.1411 28.8917 36.7911 28.0667C39.6244 24.3333 39.1828 19.8833 39.2744 15.55C37.9994 16.125 37.3578 16.3167 36.2411 16.3C35.4078 16.3833 34.1328 15.8417 33.3661 15.4667C32.8661 15.8 32.1411 16.2083 30.8328 16.25C29.3328 16.3167 28.8494 16.0583 27.7328 15.6667Z" fill="#CCCC33"/>
<path d="M33.8672 15.375L34.0339 15.5417L33.8672 15.375Z" fill="#99994E"/>
<path d="M34.0332 15.375L34.1999 15.5417L34.0332 15.375Z" fill="#49497D"/>
<path d="M39.2754 15.375L39.4421 15.5417L39.2754 15.375Z" fill="#0E0E6E"/>
<path d="M27.6084 15.5416L27.7751 15.7083L27.6084 15.5416Z" fill="#A4A43D"/>
<path d="M27.7754 15.5416L27.9421 15.7083L27.7754 15.5416Z" fill="#6E6C70"/>
<path d="M27.9414 15.5416L28.1081 15.7083L27.9414 15.5416Z" fill="#3A3A7C"/>
<path d="M32.334 15.5416L32.5007 15.7083L32.334 15.5416Z" fill="#1B1B74"/>
<path d="M32.5 15.5416L32.6667 15.7083L32.5 15.5416Z" fill="#6E6C70"/>
<path d="M32.6836 15.5416L32.8503 15.7083L32.6836 15.5416Z" fill="#A4A43D"/>
<path d="M33.3584 15.5416L33.5251 15.7083L33.3584 15.5416Z" fill="#D0D045"/>
<path d="M34.0332 15.5416L34.1999 15.7083L34.0332 15.5416Z" fill="#A4A43D"/>
<path d="M34.2002 15.5416L34.3669 15.7083L34.2002 15.5416Z" fill="#8D8D5B"/>
<path d="M34.375 15.5416L34.5417 15.7083L34.375 15.5416Z" fill="#3A3A7C"/>
<path d="M38.7666 15.5416L38.9333 15.7083L38.7666 15.5416Z" fill="#262678"/>
<path d="M38.9414 15.5416L39.1081 15.7083L38.9414 15.5416Z" fill="#53527C"/>
<path d="M39.1084 15.5416L39.2751 15.7083L39.1084 15.5416Z" fill="#8D8D5B"/>
<path d="M28.2832 15.7167L28.4499 15.8833L28.2832 15.7167Z" fill="#737370"/>
<path d="M28.4502 15.7167L28.6169 15.8833L28.4502 15.7167Z" fill="#53527C"/>
<path d="M28.6172 15.7167L28.7839 15.8833L28.6172 15.7167Z" fill="#1B1B74"/>
<path d="M32 15.7167L32.1667 15.8833L32 15.7167Z" fill="#262678"/>
<path d="M32.166 15.7167L32.3327 15.8833L32.166 15.7167Z" fill="#6E6C70"/>
<path d="M32.334 15.7167L32.5007 15.8833L32.334 15.7167Z" fill="#A4A43D"/>
<path d="M33.1914 15.7167L33.3581 15.8833L33.1914 15.7167Z" fill="#E5E59D"/>
<path d="M28.0753 16.15C27.9919 18.45 28.0586 21.0333 28.4086 23.4833C28.8169 24.775 28.7586 25.4833 29.3503 26.25L37.6003 26.1833C38.1003 25.375 38.4753 24.15 38.5169 23.6583C38.9836 21.1833 38.9919 18.4417 39.0086 15.9917C38.1011 16.4907 37.0647 16.7056 36.0336 16.6083C35.1382 16.5545 34.2677 16.292 33.4919 15.8417C32.7003 16.3083 32.4253 16.525 31.1253 16.5833C30.1086 16.6333 29.2919 16.7167 28.0753 16.15Z" fill="white"/>
<path d="M33.5254 15.7167L33.6921 15.8833L33.5254 15.7167Z" fill="#F2F1D7"/>
<path d="M33.6914 15.7167L33.8581 15.8833L33.6914 15.7167Z" fill="#D9D868"/>
<path d="M34.375 15.7167L34.5417 15.8833L34.375 15.7167Z" fill="#A4A43D"/>
<path d="M34.541 15.7167L34.7077 15.8833L34.541 15.7167Z" fill="#99994E"/>
<path d="M34.709 15.7167L34.8757 15.8833L34.709 15.7167Z" fill="#49497D"/>
<path d="M34.875 15.7167L35.0417 15.8833L34.875 15.7167Z" fill="#0E0E6E"/>
<path d="M38.2666 15.7167L38.4333 15.8833L38.2666 15.7167Z" fill="#3A3A7C"/>
<path d="M38.4336 15.7167L38.6003 15.8833L38.4336 15.7167Z" fill="#666677"/>
<path d="M38.5996 15.7167L38.7663 15.8833L38.5996 15.7167Z" fill="#99994E"/>
<path d="M38.7672 15.7167L38.9339 15.8833L38.7672 15.7167ZM28.6172 15.8833L28.7839 16.05L28.6172 15.8833Z" fill="#A4A43D"/>
<path d="M28.791 15.8833L28.9577 16.05L28.791 15.8833Z" fill="#99994E"/>
<path d="M28.959 15.8833L29.1257 16.05L28.959 15.8833Z" fill="#6E6C70"/>
<path d="M29.125 15.8833L29.2917 16.05L29.125 15.8833Z" fill="#49497D"/>
<path d="M29.291 15.8833L29.4577 16.05L29.291 15.8833ZM31.491 15.8833L31.6577 16.05L31.491 15.8833Z" fill="#1B1B74"/>
<path d="M31.6582 15.8833L31.8249 16.05L31.6582 15.8833Z" fill="#53527C"/>
<path d="M31.834 15.8833L32.0007 16.05L31.834 15.8833Z" fill="#8D8D5B"/>
<path d="M32 15.8833L32.1667 16.05L32 15.8833Z" fill="#A4A43D"/>
<path d="M32.8496 15.8833L33.0163 16.05L32.8496 15.8833Z" fill="#E5E59D"/>
<path d="M33.0166 15.8833L33.1833 16.05L33.0166 15.8833Z" fill="#FBFAF2"/>
<path d="M33.8672 15.8833L34.0339 16.05L33.8672 15.8833Z" fill="#F2F1D2"/>
<path d="M34.0332 15.8833L34.1999 16.05L34.0332 15.8833Z" fill="#D9D868"/>
<path d="M34.875 15.8833L35.0417 16.05L34.875 15.8833Z" fill="#A4A43D"/>
<path d="M35.0498 15.8833L35.2165 16.05L35.0498 15.8833Z" fill="#6E6C70"/>
<path d="M35.2168 15.8833L35.3835 16.05L35.2168 15.8833Z" fill="#3A3A7C"/>
<path d="M37.416 15.8833L37.5827 16.05L37.416 15.8833Z" fill="#0E0E6E"/>
<path d="M37.584 15.8833L37.7507 16.05L37.584 15.8833Z" fill="#32327B"/>
<path d="M37.75 15.8833L37.9167 16.05L37.75 15.8833Z" fill="#58587B"/>
<path d="M37.916 15.8833L38.0827 16.05L37.916 15.8833Z" fill="#808067"/>
<path d="M38.209 15.9333L38.3173 15.9917L38.209 15.9333Z" fill="#A4A43D"/>
<path d="M27.9414 16.05L28.1081 16.2167L27.9414 16.05Z" fill="#DDDC7A"/>
<path d="M28.1084 16.05L28.2751 16.2167L28.1084 16.05Z" fill="#D0D045"/>
<path d="M29.4082 16.1L29.5249 16.1583L29.4082 16.1Z" fill="#A4A43D"/>
<path d="M29.6328 16.05L29.7995 16.2167L29.6328 16.05Z" fill="#808067"/>
<path d="M29.7998 16.05L29.9665 16.2167L29.7998 16.05Z" fill="#666677"/>
<path d="M29.9746 16.05L30.1413 16.2167L29.9746 16.05Z" fill="#58587B"/>
<path d="M30.1416 16.05L30.3083 16.2167L30.1416 16.05Z" fill="#49497D"/>
<path d="M31.1582 16.05L31.3249 16.2167L31.1582 16.05Z" fill="#737370"/>
<path d="M31.3252 16.05L31.4919 16.2167L31.3252 16.05Z" fill="#99994E"/>
<path d="M31.4922 16.05L31.6589 16.2167L31.4922 16.05Z" fill="#A4A43D"/>
<path d="M32.5 16.05L32.6667 16.2167L32.5 16.05Z" fill="#E5E59D"/>
<path d="M32.6836 16.05L32.8503 16.2167L32.6836 16.05Z" fill="#FBFAF2"/>
<path d="M34.2002 16.05L34.3669 16.2167L34.2002 16.05Z" fill="#F2F1D2"/>
<path d="M34.375 16.05L34.5417 16.2167L34.375 16.05Z" fill="#D9D868"/>
<path d="M35.3252 16.1L35.4419 16.1583L35.3335 16.1H35.3252Z" fill="#A4A43D"/>
<path d="M35.5586 16.05L35.7253 16.2167L35.5586 16.05Z" fill="#808067"/>
<path d="M35.7246 16.05L35.8913 16.2167L35.7246 16.05Z" fill="#666677"/>
<path d="M35.8916 16.05L36.0583 16.2167L35.8916 16.05Z" fill="#58587B"/>
<path d="M36.0664 16.05L36.2331 16.2167L36.0664 16.05Z" fill="#3A3A7C"/>
<path d="M36.8496 16.1L36.9663 16.1583L36.8496 16.1Z" fill="#58587B"/>
<path d="M37.0752 16.05L37.2419 16.2167L37.0752 16.05Z" fill="#737370"/>
<path d="M37.2422 16.05L37.4089 16.2167L37.2422 16.05Z" fill="#99994E"/>
<path d="M37.416 16.05L37.5827 16.2167L37.416 16.05Z" fill="#A4A43D"/>
<path d="M38.7666 16.05L38.9333 16.2167L38.7666 16.05Z" fill="#DDDC7A"/>
<path d="M38.9414 16.05L39.1081 16.2167L38.9414 16.05Z" fill="#D0D045"/>
<path d="M28.2832 16.2167L28.4499 16.3833L28.2832 16.2167Z" fill="#F2F1D7"/>
<path d="M28.4502 16.2167L28.6169 16.3833L28.4502 16.2167Z" fill="#E0DEA1"/>
<path d="M28.6172 16.2167L28.7839 16.3833L28.6172 16.2167Z" fill="#DDDC7A"/>
<path d="M32 16.2167L32.1667 16.3833L32 16.2167Z" fill="#D9D868"/>
<path d="M32.166 16.2167L32.3327 16.3833L32.166 16.2167Z" fill="#E5E3AF"/>
<path d="M34.541 16.2167L34.7077 16.3833L34.541 16.2167Z" fill="#F6F6E4"/>
<path d="M34.709 16.2167L34.8757 16.3833L34.709 16.2167Z" fill="#E1E18C"/>
<path d="M38.084 16.2167L38.2507 16.3833L38.084 16.2167Z" fill="#D4D456"/>
<path d="M38.2666 16.2167L38.4333 16.3833L38.2666 16.2167Z" fill="#E1E18C"/>
<path d="M38.4336 16.2167L38.6003 16.3833L38.4336 16.2167Z" fill="#EEEDC1"/>
<path d="M28.959 16.3833L29.1257 16.55L28.959 16.3833Z" fill="#F2F1D2"/>
<path d="M29.125 16.3833L29.2917 16.55L29.125 16.3833Z" fill="#E0DEA1"/>
<path d="M29.291 16.3833L29.4577 16.55L29.291 16.3833Z" fill="#DDDC7A"/>
<path d="M29.4668 16.3833L29.6335 16.55L29.4668 16.3833Z" fill="#D0D045"/>
<path d="M31.4922 16.3833L31.6589 16.55L31.4922 16.3833Z" fill="#DDDC7A"/>
<path d="M31.6582 16.3833L31.8249 16.55L31.6582 16.3833Z" fill="#E5E3AF"/>
<path d="M31.834 16.3833L32.0007 16.55L31.834 16.3833Z" fill="#F6F6E4"/>
<path d="M35.0498 16.3833L35.2165 16.55L35.0498 16.3833Z" fill="#EEEDC1"/>
<path d="M35.2168 16.3833L35.3835 16.55L35.2168 16.3833Z" fill="#E1E18C"/>
<path d="M35.3828 16.3833L35.5495 16.55L35.3828 16.3833Z" fill="#D4D456"/>
<path d="M37.416 16.3833L37.5827 16.55L37.416 16.3833Z" fill="#D9D868"/>
<path d="M37.584 16.3833L37.7507 16.55L37.584 16.3833Z" fill="#E1E18C"/>
<path d="M37.75 16.3833L37.9167 16.55L37.75 16.3833Z" fill="#EEEDC1"/>
<path d="M37.916 16.3833L38.0827 16.55L37.916 16.3833Z" fill="#F6F6E4"/>
<path d="M29.7998 16.55L29.9665 16.7167L29.7998 16.55Z" fill="#F2F1D7"/>
<path d="M29.9746 16.55L30.1413 16.7167L29.9746 16.55Z" fill="#F2F1D2"/>
<path d="M30.1416 16.55L30.3083 16.7167L30.1416 16.55Z" fill="#EEEDC1"/>
<path d="M30.9336 16.6083L31.0419 16.6666L30.9336 16.6083Z" fill="#F2F1D2"/>
<path d="M31.1582 16.55L31.3249 16.7167L31.1582 16.55Z" fill="#FBFAF2"/>
<path d="M32 16.55L32.3333 16.8834V16.55H32Z" fill="#FEF8F1"/>
<path d="M35.7246 16.55L35.8913 16.7167L35.7246 16.55Z" fill="#F2F1D7"/>
<path d="M35.8916 16.55L36.0583 16.7167L35.8916 16.55Z" fill="#F2F1D2"/>
<path d="M36.0664 16.55L36.2331 16.7167L36.0664 16.55Z" fill="#E5E3AF"/>
<path d="M36.3501 16.6083L36.4585 16.6666L36.3418 16.6083H36.3501Z" fill="#E5E59D"/>
<path d="M36.5752 16.55L36.7419 16.7167L36.5752 16.55Z" fill="#E0DEA1"/>
<path d="M36.8496 16.6083L36.9663 16.6666L36.8496 16.6083Z" fill="#F2F1D2"/>
<path d="M37.0752 16.55L37.2419 16.7167L37.0752 16.55Z" fill="#FBFAF2"/>
<path d="M31.6582 16.725L31.8249 16.8916L31.6582 16.725Z" fill="#FEF8F1"/>
<path d="M31.834 16.725L32.0007 16.8916L31.834 16.725Z" fill="#FBBE66"/>
<path d="M31.6582 16.8917L31.8249 17.0584L31.6582 16.8917Z" fill="#FBC477"/>
<path d="M32 16.8917L32.1667 17.0584L32 16.8917Z" fill="#FCB144"/>
<path d="M31.6582 17.0667L31.8249 17.2333L31.6582 17.0667Z" fill="#FE9F11"/>
<path d="M32 17.0667L32.1667 17.2333L32 17.0667Z" fill="#FEA522"/>
<path d="M31.4922 17.2333L31.6589 17.3999L31.4922 17.2333ZM32.1755 17.2333L32.3422 17.3999L32.1755 17.2333Z" fill="#FAE3C9"/>
<path d="M33.0166 17.2333L33.1833 17.3999L33.0166 17.2333Z" fill="#FBEAD6"/>
<path d="M33.1914 17.2333L33.3581 17.3999L33.1914 17.2333Z" fill="#F9D6AA"/>
<path d="M33.8672 17.2333L34.0339 17.3999L33.8672 17.2333Z" fill="#FAE3C9"/>
<path d="M34.0332 17.2333L34.1999 17.3999L34.0332 17.2333Z" fill="#FEF8F1"/>
<path d="M31.4922 17.4L31.6589 17.5667L31.4922 17.4Z" fill="#F9D099"/>
<path d="M32.166 17.4L32.3327 17.5667L32.166 17.4Z" fill="#FDAB33"/>
<path d="M32.5 17.4L32.6667 17.5667L32.5 17.4Z" fill="#FCF1E4"/>
<path d="M32.6836 17.4L32.8503 17.5667L32.6836 17.4Z" fill="#FBC477"/>
<path d="M32.8496 17.4L33.0163 17.5667L32.8496 17.4Z" fill="#FEA522"/>
<path d="M34.2002 17.4L34.3669 17.5667L34.2002 17.4Z" fill="#FCB755"/>
<path d="M34.375 17.4L34.5417 17.5667L34.375 17.4Z" fill="#F9D6AA"/>
<path d="M31.4922 17.575L31.6589 17.7416L31.4922 17.575Z" fill="#FACA88"/>
<path d="M32.334 17.575L32.5007 17.7416L32.334 17.575ZM34.5423 17.575L34.709 17.7416L34.5423 17.575Z" fill="#FEA522"/>
<path d="M34.709 17.575L34.8757 17.7416L34.709 17.575Z" fill="#F8DCBB"/>
<path d="M27.9414 17.7417L28.1081 17.9084L27.9414 17.7417Z" fill="#F6F6E4"/>
<path d="M31.4922 17.7417L31.6589 17.9084L31.4922 17.7417Z" fill="#FBC477"/>
<path d="M34.875 17.7417L35.0417 17.9084L34.875 17.7417Z" fill="#FBBE66"/>
<path d="M35.0498 17.7417L35.2165 17.9084L35.0498 17.7417Z" fill="#F8DCBB"/>
<path d="M31.4922 17.9083L31.6589 18.075L31.4922 17.9083Z" fill="#FACA88"/>
<path d="M35.3828 17.9083L35.5495 18.075L35.3828 17.9083Z" fill="#FCB755"/>
<path d="M35.5586 17.9083L35.7253 18.075L35.5586 17.9083Z" fill="#F8DCBB"/>
<path d="M31.3252 18.0834L31.4919 18.25L31.3252 18.0834Z" fill="#FEF8F1"/>
<path d="M31.4922 18.0834L31.6589 18.25L31.4922 18.0834Z" fill="#FE9F11"/>
<path d="M36.2334 18.0834L36.4001 18.25L36.2334 18.0834Z" fill="#FDAB33"/>
<path d="M36.4082 18.0834L36.5749 18.25L36.4082 18.0834Z" fill="#FCB144"/>
<path d="M36.5752 18.0834L36.7419 18.25L36.5752 18.0834Z" fill="#FBC477"/>
<path d="M36.7422 18.0834L37.0755 18.4167L36.7422 18.0834Z" fill="#F9D6AA"/>
<path d="M36.9082 18.0834L37.0749 18.25L36.9082 18.0834Z" fill="#FEF8F1"/>
<path d="M31.3252 18.25L31.4919 18.4167L31.3252 18.25Z" fill="#FCB144"/>
<path d="M33.6914 18.25L33.8581 18.4167L33.6914 18.25Z" fill="#FDAB33"/>
<path d="M33.8672 18.25L34.0339 18.4167L33.8672 18.25ZM34.5339 18.25L34.7005 18.4167L34.5339 18.25Z" fill="#FBC477"/>
<path d="M34.709 18.25L34.8757 18.4167L34.709 18.25Z" fill="#FEA522"/>
<path d="M31.1582 18.4166L31.3249 18.5833L31.1582 18.4166Z" fill="#FAE3C9"/>
<path d="M33.3584 18.4166L33.5251 18.5833L33.3584 18.4166Z" fill="#FCB144"/>
<path d="M33.5254 18.4166L33.6921 18.5833L33.5254 18.4166Z" fill="#FAE3C9"/>
<path d="M34.875 18.4166L35.0417 18.5833L34.875 18.4166Z" fill="#F8DCBB"/>
<path d="M35.0498 18.4166L35.2165 18.5833L35.0498 18.4166Z" fill="#FDAB33"/>
<path d="M36.0664 18.4166L36.2331 18.5833L36.0664 18.4166Z" fill="#FE9F11"/>
<path d="M36.2334 18.4166L36.4001 18.5833L36.2334 18.4166Z" fill="#FCB755"/>
<path d="M36.4082 18.4166L36.5749 18.5833L36.4082 18.4166Z" fill="#F9D099"/>
<path d="M36.5752 18.4166L36.7419 18.5833L36.5752 18.4166Z" fill="#FBEAD6"/>
<path d="M31.1582 18.5834L31.3249 18.75L31.1582 18.5834Z" fill="#FCB144"/>
<path d="M33.1914 18.5834L33.3581 18.75L33.1914 18.5834Z" fill="#FBBE66"/>
<path d="M35.2168 18.5834L35.3835 18.75L35.2168 18.5834Z" fill="#F9D099"/>
<path d="M35.8916 18.5834L36.0583 18.75L35.8916 18.5834Z" fill="#FBEAD6"/>
<path d="M30.9922 18.75L31.1589 18.9167L30.9922 18.75Z" fill="#FCF1E4"/>
<path d="M33.0166 18.75L33.1833 18.9167L33.0166 18.75Z" fill="#FBBE66"/>
<path d="M35.3828 18.75L35.5495 18.9167L35.3828 18.75Z" fill="#F9D099"/>
<path d="M35.8916 18.75L36.0583 18.9167L35.8916 18.75Z" fill="#FAE3C9"/>
<path d="M30.9922 18.9166L31.1589 19.0833L30.9922 18.9166Z" fill="#FBC477"/>
<path d="M32.8496 18.9166L33.0163 19.0833L32.8496 18.9166ZM35.5579 18.9166L35.7246 19.0833L35.5579 18.9166Z" fill="#FCB144"/>
<path d="M35.8916 18.9166L36.0583 19.0833L35.8916 18.9166Z" fill="#FBBE66"/>
<path d="M27.9414 19.0834L28.1081 19.25L27.9414 19.0834Z" fill="#F6F6E4"/>
<path d="M30.9922 19.0834L31.1589 19.25L30.9922 19.0834Z" fill="#FEA522"/>
<path d="M32.8496 19.0834L33.0163 19.25L32.8496 19.0834Z" fill="#FBEAD6"/>
<path d="M35.5586 19.0834L35.7253 19.25L35.5586 19.0834Z" fill="#FCF1E4"/>
<path d="M36.0664 19.0834L36.2331 19.25L36.0664 19.0834Z" fill="#FEF8F1"/>
<path d="M30.8252 19.2667L30.9919 19.4334L30.8252 19.2667Z" fill="#FCF1E4"/>
<path d="M32.6836 19.2667L32.8503 19.4334L32.6836 19.2667Z" fill="#FBBE66"/>
<path d="M35.7246 19.2667L35.8913 19.4334L35.7246 19.2667Z" fill="#FACA88"/>
<path d="M36.0664 19.2667L36.2331 19.4334L36.0664 19.2667Z" fill="#F9D099"/>
<path d="M30.8252 19.4333L30.9919 19.6L30.8252 19.4333Z" fill="#F9D6AA"/>
<path d="M32.6836 19.4333L32.8503 19.6L32.6836 19.4333Z" fill="#FCF1E4"/>
<path d="M33.5254 19.4333L33.6921 19.6L33.5254 19.4333Z" fill="#FAE3C9"/>
<path d="M33.6914 19.4333L33.8581 19.6L33.6914 19.4333Z" fill="#FEA522"/>
<path d="M33.8672 19.4333L34.0339 19.6L33.8672 19.4333Z" fill="#FCB144"/>
<path d="M34.0332 19.4333L34.1999 19.6L34.0332 19.4333Z" fill="#F9D6AA"/>
<path d="M35.7246 19.4333L35.8913 19.6L35.7246 19.4333Z" fill="#FEF8F1"/>
<path d="M35.8916 19.4333L36.0583 19.6L35.8916 19.4333Z" fill="#FEA522"/>
<path d="M36.0664 19.4333L36.2331 19.6L36.0664 19.4333Z" fill="#FDAB33"/>
<path d="M30.8254 19.6L30.6504 20.1L30.8171 19.6H30.8254Z" fill="#FACA88"/>
<path d="M32.5 19.6L32.6667 19.7666L32.5 19.6Z" fill="#FEA522"/>
<path d="M32.6836 19.6L32.8503 19.7666L32.6836 19.6Z" fill="#FEF8F1"/>
<path d="M33.5254 19.6L33.6921 19.7666L33.5254 19.6Z" fill="#F9D099"/>
<path d="M34.2002 19.6L34.3669 19.7666L34.2002 19.6Z" fill="#FDAB33"/>
<path d="M34.375 19.6L34.5417 19.7666L34.375 19.6Z" fill="#FAE3C9"/>
<path d="M35.8916 19.6L36.0583 19.7666L35.8916 19.6Z" fill="#F8DCBB"/>
<path d="M36.0664 19.6L36.2331 19.7666L36.0664 19.6Z" fill="#FF9900"/>
<path d="M36.291 19.7167L36.341 19.825L36.291 19.7167Z" fill="#FBEAD6"/>
<path d="M32.8496 19.7667L33.0163 19.9334L32.8496 19.7667Z" fill="#FEA522"/>
<path d="M33.0166 19.7667L33.1833 19.9334L33.0166 19.7667Z" fill="#FBBE66"/>
<path d="M33.1914 19.7667L33.3581 19.9334L33.1914 19.7667Z" fill="#FACA88"/>
<path d="M33.3584 19.7667L33.5251 19.9334L33.3584 19.7667Z" fill="#FCB144"/>
<path d="M33.5254 19.7667L33.6921 19.9334L33.5254 19.7667Z" fill="#FAE3C9"/>
<path d="M33.6914 19.7667L33.8581 19.9334L33.6914 19.7667Z" fill="#FE9F11"/>
<path d="M34.541 19.7667L34.7077 19.9334L34.541 19.7667Z" fill="#FDAB33"/>
<path d="M34.709 19.7667L34.8757 19.9334L34.709 19.7667Z" fill="#FBC477"/>
<path d="M34.875 19.7667L35.0417 19.9334L34.875 19.7667Z" fill="#FACA88"/>
<path d="M35.0498 19.7667L35.2165 19.9334L35.0498 19.7667Z" fill="#F9D6AA"/>
<path d="M35.3252 19.825L35.4419 19.8833L35.3335 19.825H35.3252Z" fill="#FAE3C9"/>
<path d="M35.5586 19.7667L35.7253 19.9334L35.5586 19.7667Z" fill="#FEF8F1"/>
<path d="M36.0664 19.7667L36.2331 19.9334L36.0664 19.7667Z" fill="#FBC477"/>
<path d="M28.791 19.9417L28.9577 20.1083L28.791 19.9417Z" fill="#FEF8F1"/>
<path d="M28.959 19.9417L29.1257 20.1083L28.959 19.9417Z" fill="#FCF1E4"/>
<path d="M33.3584 19.9417L33.5251 20.1083L33.3584 19.9417Z" fill="#FCB755"/>
<path d="M33.6914 19.9417L33.8581 20.1083L33.6914 19.9417Z" fill="#FBEAD6"/>
<path d="M33.8672 19.9417L34.0339 20.1083L33.8672 19.9417Z" fill="#FEA522"/>
<path d="M35.2168 19.9417L35.3835 20.1083L35.2168 19.9417Z" fill="#FE9F11"/>
<path d="M35.3835 19.9417L35.2168 20.275L35.3835 19.9417Z" fill="#FCB144"/>
<path d="M35.7246 19.9417L35.8913 20.1083L35.7246 19.9417Z" fill="#FE9F11"/>
<path d="M35.8916 19.9417L36.0583 20.1083L35.8916 19.9417Z" fill="#FBBE66"/>
<path d="M36.0664 19.9417L36.2331 20.1083L36.0664 19.9417Z" fill="#FCF1E4"/>
<path d="M28.791 20.1083L28.9577 20.2749L28.791 20.1083Z" fill="#FAE3C9"/>
<path d="M28.959 20.1083L29.2923 20.4416L28.959 20.1083Z" fill="#FE9F11"/>
<path d="M29.125 20.1083L29.2917 20.2749L29.125 20.1083ZM30.65 20.1083L30.8167 20.2749L30.65 20.1083Z" fill="#FBEAD6"/>
<path d="M30.8252 20.1083L30.9919 20.2749L30.8252 20.1083Z" fill="#FAE3C9"/>
<path d="M32.334 20.1083L32.5007 20.2749L32.334 20.1083Z" fill="#FE9F11"/>
<path d="M32.5 20.1083L32.6667 20.2749L32.5 20.1083Z" fill="#FBC477"/>
<path d="M32.6836 20.1083L32.8503 20.2749L32.6836 20.1083Z" fill="#FEA522"/>
<path d="M33.1914 20.1083L33.3581 20.2749L33.1914 20.1083Z" fill="#FBC477"/>
<path d="M33.3584 20.1083L33.5251 20.2749L33.3584 20.1083Z" fill="#FEF8F1"/>
<path d="M34.0332 20.1083L34.1999 20.2749L34.0332 20.1083Z" fill="#FBC477"/>
<path d="M35.3828 20.1083L35.5495 20.2749L35.3828 20.1083Z" fill="white"/>
<path d="M35.5586 20.1083L35.7253 20.2749L35.5586 20.1083Z" fill="#FDAB33"/>
<path d="M36.2334 20.1083L36.4001 20.2749L36.2334 20.1083Z" fill="#FBC477"/>
<path d="M28.791 20.275L28.9577 20.4417L28.791 20.275Z" fill="#FEF8F1"/>
<path d="M29.291 20.275L29.4577 20.4417L29.291 20.275Z" fill="#FBEAD6"/>
<path d="M30.1416 20.275L30.3083 20.4417L30.1416 20.275Z" fill="#F9D6AA"/>
<path d="M30.9922 20.275L31.1589 20.4417L30.9922 20.275Z" fill="#FE9F11"/>
<path d="M31.2666 20.3334L31.3833 20.3917L31.2666 20.3334Z" fill="#F9D6AA"/>
<path d="M32.334 20.275L32.5007 20.4417L32.334 20.275Z" fill="#F8DCBB"/>
<path d="M32.8496 20.275L33.0163 20.4417L32.8496 20.275Z" fill="#FCF1E4"/>
<path d="M34.2002 20.275L34.3669 20.4417L34.2002 20.275Z" fill="#F9D6AA"/>
<path d="M35.3828 20.275L35.5495 20.4417L35.3828 20.275Z" fill="#FDAB33"/>
<path d="M36.4082 20.275L36.5749 20.4417L36.4082 20.275Z" fill="#FCB755"/>
<path d="M36.5752 20.275L36.7419 20.4417L36.5752 20.275Z" fill="#FEF8F1"/>
<path d="M27.4336 20.45L27.6003 20.6166L27.4336 20.45Z" fill="#53527C"/>
<path d="M28.959 20.45L29.1257 20.6166L28.959 20.45Z" fill="#FCB755"/>
<path d="M29.291 20.45L29.4577 20.6166L29.291 20.45Z" fill="#FEA522"/>
<path d="M29.9746 20.45L30.1413 20.6166L29.9746 20.45Z" fill="#FBEAD6"/>
<path d="M30.3086 20.45L30.4753 20.6166L30.3086 20.45Z" fill="#FE9F11"/>
<path d="M30.4834 20.45L30.6501 20.6166L30.4834 20.45Z" fill="#FCF1E4"/>
<path d="M30.9922 20.45L31.1589 20.6166L30.9922 20.45Z" fill="#FBBE66"/>
<path d="M31.1582 20.45L31.3249 20.6166L31.1582 20.45Z" fill="#FBC477"/>
<path d="M31.3252 20.45L31.4919 20.6166L31.3252 20.45Z" fill="#FBBE66"/>
<path d="M32.166 20.45L32.3327 20.6166L32.166 20.45Z" fill="#FEA522"/>
<path d="M34.375 20.45L34.5417 20.6166L34.375 20.45Z" fill="#F9D6AA"/>
<path d="M36.5752 20.45L36.7419 20.6166L36.5752 20.45Z" fill="#FCB144"/>
<path d="M39.2754 20.45L39.4421 20.6166L39.2754 20.45Z" fill="#8D8D5B"/>
<path d="M27.9414 20.6167L28.1081 20.7834L27.9414 20.6167Z" fill="#E5E3AF"/>
<path d="M28.959 20.6167L29.1257 20.7834L28.959 20.6167Z" fill="#F8DCBB"/>
<path d="M29.4668 20.6167L29.6335 20.7834L29.4668 20.6167Z" fill="#FDAB33"/>
<path d="M29.9746 20.6167L30.1413 20.7834L29.9746 20.6167Z" fill="#FE9F11"/>
<path d="M30.3086 20.6167L30.4753 20.7834L30.3086 20.6167Z" fill="#FACA88"/>
<path d="M30.9922 20.6167L31.1589 20.7834L30.9922 20.6167Z" fill="#FCF1E4"/>
<path d="M32.166 20.6167L32.3327 20.7834L32.166 20.6167ZM34.541 20.6167L34.7077 20.7834L34.541 20.6167Z" fill="#F9D099"/>
<path d="M36.7422 20.6167L36.9089 20.7834L36.7422 20.6167Z" fill="#FBBE66"/>
<path d="M29.125 20.7833L29.2917 20.95L29.125 20.7833Z" fill="#FEA522"/>
<path d="M29.6328 20.7833L29.7995 20.95L29.6328 20.7833Z" fill="#FDAB33"/>
<path d="M29.7998 20.7833L29.9665 20.95L29.7998 20.7833Z" fill="#FEA522"/>
<path d="M30.1416 20.7833L30.3083 20.95L30.1416 20.7833Z" fill="#FE9F11"/>
<path d="M30.3086 20.7833L30.4753 20.95L30.3086 20.7833Z" fill="#FEF8F1"/>
<path d="M31.1582 20.7833L31.3249 20.95L31.1582 20.7833Z" fill="#FBBE66"/>
<path d="M32.166 20.7833L32.3327 20.95L32.166 20.7833Z" fill="#FEF8F1"/>
<path d="M34.709 20.7833L34.8757 20.95L34.709 20.7833Z" fill="#FBBE66"/>
<path d="M36.9082 20.7833L37.0749 20.95L36.9082 20.7833Z" fill="#F9D099"/>
<path d="M29.125 20.9584L29.2917 21.125L29.125 20.9584Z" fill="#F9D6AA"/>
<path d="M30.1416 20.9584L30.3083 21.125L30.1416 20.9584Z" fill="#F9D099"/>
<path d="M31.1582 20.9584L31.3249 21.125L31.1582 20.9584Z" fill="#FCF1E4"/>
<path d="M32 20.9584L32.1667 21.125L32 20.9584ZM34.875 20.9584L35.0417 21.125L34.875 20.9584Z" fill="#FDAB33"/>
<path d="M37.0752 20.9584L37.2419 21.125L37.0752 20.9584Z" fill="#FBEAD6"/>
<path d="M29.291 21.125L29.4577 21.2917L29.291 21.125Z" fill="#FEA522"/>
<path d="M29.9746 21.125L30.1413 21.2917L29.9746 21.125Z" fill="#FE9F11"/>
<path d="M31.3252 21.125L31.4919 21.2917L31.3252 21.125Z" fill="#FCB144"/>
<path d="M32 21.125L32.1667 21.2917L32 21.125Z" fill="#FACA88"/>
<path d="M34.875 21.125L35.0417 21.2917L34.875 21.125Z" fill="#F8DCBB"/>
<path d="M37.0752 21.125L37.2419 21.2917L37.0752 21.125Z" fill="#FCB144"/>
<path d="M27.9414 21.3L28.1081 21.4667L27.9414 21.3Z" fill="#D3D079"/>
<path d="M29.291 21.3L29.4577 21.4667L29.291 21.3ZM31.3243 21.3L31.491 21.4667L31.3243 21.3Z" fill="#FACA88"/>
<path d="M32 21.3L32.1667 21.4667L32 21.3ZM34.875 21.3L35.0417 21.4667L34.875 21.3Z" fill="#FAE3C9"/>
<path d="M37.2422 21.3L37.4089 21.4667L37.2422 21.3Z" fill="#F8DCBB"/>
<path d="M38.7666 21.3L38.9333 21.4667L38.7666 21.3Z" fill="#F2F1D7"/>
<path d="M39.334 21.4083L39.3923 21.5167L39.334 21.4083Z" fill="#58587B"/>
<path d="M27.9922 21.575L28.0589 21.6916L28.0005 21.575H27.9922Z" fill="#D9D868"/>
<path d="M29.291 21.4667L29.4577 21.6333L29.291 21.4667Z" fill="#F8DCBB"/>
<path d="M34.709 21.4667L34.8757 21.6333L34.709 21.4667Z" fill="#F9D6AA"/>
<path d="M34.875 21.4667L35.0417 21.6333L34.875 21.4667Z" fill="#FE9F11"/>
<path d="M37.2422 21.4667L37.4089 21.6333L37.2422 21.4667Z" fill="#FCB144"/>
<path d="M38.8252 21.575L38.8835 21.6916L38.8252 21.575Z" fill="#F2F1D2"/>
<path d="M29.291 21.6333L29.4577 21.8L29.291 21.6333Z" fill="#FCF1E4"/>
<path d="M34.541 21.6333L34.7077 21.8L34.541 21.6333Z" fill="#FEF8F1"/>
<path d="M34.709 21.6333L34.8757 21.8L34.709 21.6333Z" fill="#FE9F11"/>
<path d="M35.2165 21.6333L35.0498 21.9666L35.2165 21.6333Z" fill="#FDAB33"/>
<path d="M35.3828 21.6333L35.5495 21.8L35.3828 21.6333Z" fill="#FCB755"/>
<path d="M37.416 21.6333L37.5827 21.8L37.416 21.6333Z" fill="#FEA522"/>
<path d="M37.584 21.6333L37.7507 21.8L37.584 21.6333Z" fill="#F9D099"/>
<path d="M39.2754 21.6333L39.4421 21.8L39.2754 21.6333Z" fill="#53527C"/>
<path d="M27.6582 21.9166L27.7165 22.025L27.6582 21.9166Z" fill="#808067"/>
<path d="M29.4668 21.8L29.6335 21.9667L29.4668 21.8ZM29.9668 21.8L30.1335 21.9667L29.9668 21.8Z" fill="#FEA522"/>
<path d="M31.834 21.8L32.0007 21.9667L31.834 21.8Z" fill="#FE9F11"/>
<path d="M34.541 21.8L34.7077 21.9667L34.541 21.8Z" fill="#FAE3C9"/>
<path d="M35.2168 21.8L35.3835 21.9667L35.2168 21.8Z" fill="#FEF8F1"/>
<path d="M35.5586 21.8L35.7253 21.9667L35.5586 21.8Z" fill="#FCB144"/>
<path d="M37.75 21.8L37.9167 21.9667L37.75 21.8Z" fill="#FCB755"/>
<path d="M37.916 21.8L38.2493 22.1334L37.916 21.8Z" fill="#FEF8F1"/>
<path d="M38.8252 21.9166L38.8835 22.025L38.8252 21.9166Z" fill="#E5E59D"/>
<path d="M39.334 21.9166L39.3923 22.025L39.334 21.9166Z" fill="#32327B"/>
<path d="M29.5254 22.0834L29.5754 22.2L29.5254 22.0834Z" fill="#FCB755"/>
<path d="M30.1416 21.9667L30.3083 22.1333L30.1416 21.9667Z" fill="#FEF8F1"/>
<path d="M31.834 21.9667L32.0007 22.1333L31.834 21.9667Z" fill="#FBBE66"/>
<path d="M34.541 21.9667L34.7077 22.1333L34.541 21.9667Z" fill="#FBEAD6"/>
<path d="M34.875 21.9667L35.0417 22.1333L34.875 21.9667Z" fill="#FE9F11"/>
<path d="M35.0498 21.9667L35.2165 22.1333L35.0498 21.9667Z" fill="#FCF1E4"/>
<path d="M35.5586 21.9667L35.7253 22.1333L35.5586 21.9667Z" fill="#FBEAD6"/>
<path d="M37.916 21.9667L38.0827 22.1333L37.916 21.9667Z" fill="#FDAB33"/>
<path d="M27.6084 22.1333L27.7751 22.3L27.6084 22.1333Z" fill="#666677"/>
<path d="M28.1084 22.1333L28.2751 22.3L28.1084 22.1333Z" fill="#F6F6E4"/>
<path d="M30.1416 22.1333L30.3083 22.3L30.1416 22.1333Z" fill="#F9D6AA"/>
<path d="M31.4922 22.1333L31.6589 22.3L31.4922 22.1333Z" fill="#FDAB33"/>
<path d="M31.6582 22.1333L31.8249 22.3L31.6582 22.1333Z" fill="#FE9F11"/>
<path d="M31.834 22.1333L32.0007 22.3L31.834 22.1333Z" fill="#FCF1E4"/>
<path d="M34.709 22.1333L34.8757 22.3L34.709 22.1333Z" fill="#FEA522"/>
<path d="M34.875 22.1333L35.0417 22.3L34.875 22.1333ZM35.725 22.1333L35.8917 22.3L35.725 22.1333Z" fill="#FACA88"/>
<path d="M38.084 22.1333L38.2507 22.3L38.084 22.1333Z" fill="#FCB144"/>
<path d="M38.7666 22.1333L38.9333 22.3L38.7666 22.1333Z" fill="#DDDC7A"/>
<path d="M27.6084 22.3083L27.7751 22.475L27.6084 22.3083Z" fill="#58587B"/>
<path d="M28.1084 22.3083L28.2751 22.475L28.1084 22.3083Z" fill="#F2F1D2"/>
<path d="M29.5254 22.4166L29.5754 22.5333L29.5254 22.4166Z" fill="#FCB144"/>
<path d="M30.1416 22.3083L30.3083 22.475L30.1416 22.3083Z" fill="#FEA522"/>
<path d="M31.834 22.3083L32.0007 22.475L31.834 22.3083Z" fill="#FEF8F1"/>
<path d="M32 22.3083L32.1667 22.475L32 22.3083Z" fill="#FEA522"/>
<path d="M32.334 22.3083L32.5007 22.475L32.334 22.3083Z" fill="#FCB144"/>
<path d="M32.5 22.3083L32.6667 22.475L32.5 22.3083Z" fill="#FBEAD6"/>
<path d="M34.709 22.3083L34.8757 22.475L34.709 22.3083Z" fill="#F8DCBB"/>
<path d="M34.875 22.3083L35.0417 22.475L34.875 22.3083Z" fill="#FCF1E4"/>
<path d="M35.7246 22.3083L35.8913 22.475L35.7246 22.3083Z" fill="#FEF8F1"/>
<path d="M35.8916 22.3083L36.0583 22.475L35.8916 22.3083Z" fill="#FE9F11"/>
<path d="M38.2666 22.3083L38.4333 22.475L38.2666 22.3083Z" fill="#FBEAD6"/>
<path d="M38.7666 22.3083L38.9333 22.475L38.7666 22.3083Z" fill="#D9D868"/>
<path d="M27.6084 22.475L27.7751 22.6416L27.6084 22.475Z" fill="#3A3A7C"/>
<path d="M28.1084 22.475L28.2751 22.6416L28.1084 22.475Z" fill="#E5E3AF"/>
<path d="M30.3086 22.475L30.4753 22.6416L30.3086 22.475Z" fill="#FACA88"/>
<path d="M32 22.475L32.1667 22.6416L32 22.475Z" fill="#FBEAD6"/>
<path d="M32.5 22.475L32.6667 22.6416L32.5 22.475Z" fill="#FE9F11"/>
<path d="M32.6836 22.475L32.8503 22.6416L32.6836 22.475Z" fill="#FCF1E4"/>
<path d="M34.541 22.475L34.7077 22.6416L34.541 22.475Z" fill="#FBEAD6"/>
<path d="M34.709 22.475L34.8757 22.6416L34.709 22.475Z" fill="#FAE3C9"/>
<path d="M34.875 22.475L35.0417 22.6416L34.875 22.475Z" fill="#FBEAD6"/>
<path d="M35.8916 22.475L36.0583 22.6416L35.8916 22.475ZM37.2499 22.475L37.4166 22.6416L37.2499 22.475Z" fill="#FBBE66"/>
<path d="M37.416 22.475L37.5827 22.6416L37.416 22.475Z" fill="#FCF1E4"/>
<path d="M37.584 22.475L37.7507 22.6416L37.584 22.475Z" fill="#FEF8F1"/>
<path d="M37.75 22.475L37.9167 22.6416L37.75 22.475Z" fill="#F8DCBB"/>
<path d="M37.916 22.475L38.0827 22.6416L37.916 22.475Z" fill="#FCB755"/>
<path d="M38.2666 22.475L38.4333 22.6416L38.2666 22.475Z" fill="#FAE3C9"/>
<path d="M39.1084 22.475L39.2751 22.6416L39.1084 22.475Z" fill="#808067"/>
<path d="M27.6084 22.65L27.7751 22.8167L27.6084 22.65Z" fill="#32327B"/>
<path d="M27.8252 22.75L27.8835 22.875L27.8335 22.7583L27.8252 22.75Z" fill="#A4A43D"/>
<path d="M28.1084 22.65L28.2751 22.8167L28.1084 22.65Z" fill="#E5E59D"/>
<path d="M29.4668 22.65L29.6335 22.8167L29.4668 22.65Z" fill="#FBC477"/>
<path d="M30.4834 22.65L30.6501 22.8167L30.4834 22.65Z" fill="#F9D6AA"/>
<path d="M32.166 22.65L32.3327 22.8167L32.166 22.65Z" fill="#FBBE66"/>
<path d="M32.6836 22.65L32.8503 22.8167L32.6836 22.65Z" fill="#F9D099"/>
<path d="M34.2002 22.65L34.3669 22.8167L34.2002 22.65Z" fill="#FAE3C9"/>
<path d="M34.375 22.65L34.5417 22.8167L34.375 22.65Z" fill="#FCB144"/>
<path d="M35.0498 22.65L35.2165 22.8167L35.0498 22.65Z" fill="#FAE3C9"/>
<path d="M35.8916 22.65L36.0583 22.8167L35.8916 22.65Z" fill="#F8DCBB"/>
<path d="M37.2422 22.65L37.4089 22.8167L37.2422 22.65Z" fill="#F9D099"/>
<path d="M38.084 22.65L38.2507 22.8167L38.084 22.65Z" fill="#FBC477"/>
<path d="M38.2666 22.65L38.4333 22.8167L38.2666 22.65Z" fill="#FBEAD6"/>
<path d="M39.1084 22.65L39.2751 22.8167L39.1084 22.65Z" fill="#737370"/>
<path d="M28.1084 22.8167L28.2751 22.9833L28.1084 22.8167Z" fill="#D9D868"/>
<path d="M29.4668 22.8167L29.6335 22.9833L29.4668 22.8167Z" fill="#F9D099"/>
<path d="M30.6504 22.8167L30.8171 22.9833L30.6504 22.8167ZM32.1754 22.8167L32.3421 22.9833L32.1754 22.8167Z" fill="#F9D6AA"/>
<path d="M32.6836 22.8167L32.8503 22.9833L32.6836 22.8167Z" fill="#FBC477"/>
<path d="M33.5254 22.8167L33.6921 22.9833L33.5254 22.8167Z" fill="#FEF8F1"/>
<path d="M33.6914 22.8167L33.8581 22.9833L33.6914 22.8167Z" fill="#F8DCBB"/>
<path d="M33.8672 22.8167L34.0339 22.9833L33.8672 22.8167Z" fill="#FBC477"/>
<path d="M34.0332 22.8167L34.1999 22.9833L34.0332 22.8167Z" fill="#FEA522"/>
<path d="M35.0498 22.8167L35.2165 22.9833L35.0498 22.8167Z" fill="#FBEAD6"/>
<path d="M38.5996 22.8167L38.7663 22.9833L38.5996 22.8167Z" fill="#F2F1D2"/>
<path d="M39.1084 22.8167L39.2751 22.9833L39.1084 22.8167Z" fill="#58587B"/>
<path d="M27.7754 22.9833L27.9421 23.1499L27.7754 22.9833Z" fill="#99994E"/>
<path d="M28.1084 22.9833L28.2751 23.1499L28.1084 22.9833Z" fill="#D0D045"/>
<path d="M30.8252 22.9833L30.9919 23.1499L30.8252 22.9833Z" fill="#FCB144"/>
<path d="M30.9922 22.9833L31.1589 23.1499L30.9922 22.9833Z" fill="#FAE3C9"/>
<path d="M32.166 22.9833L32.3327 23.1499L32.166 22.9833Z" fill="#FEF8F1"/>
<path d="M32.8496 22.9833L33.0163 23.1499L32.8496 22.9833Z" fill="#FCB755"/>
<path d="M33.0166 22.9833L33.1833 23.1499L33.0166 22.9833Z" fill="#FBC477"/>
<path d="M33.1914 22.9833L33.3581 23.1499L33.1914 22.9833Z" fill="#FCB144"/>
<path d="M33.3584 22.9833L33.5251 23.1499L33.3584 22.9833Z" fill="#FEA522"/>
<path d="M34.709 22.9833L34.8757 23.1499L34.709 22.9833Z" fill="#FE9F11"/>
<path d="M34.875 22.9833L35.0417 23.1499L34.875 22.9833Z" fill="#F9D6AA"/>
<path d="M37.2422 22.9833L37.4089 23.1499L37.2422 22.9833Z" fill="#FEF8F1"/>
<path d="M38.5996 22.9833L38.7663 23.1499L38.5996 22.9833Z" fill="#E0DEA1"/>
<path d="M39.1084 22.9833L39.2751 23.1499L39.1084 22.9833Z" fill="#3A3A7C"/>
<path d="M27.7754 23.1583L27.9421 23.325L27.7754 23.1583Z" fill="#737370"/>
<path d="M28.2832 23.1583L28.4499 23.325L28.2832 23.1583Z" fill="#FBFAF2"/>
<path d="M29.6328 23.1583L29.7995 23.325L29.6328 23.1583Z" fill="#FEA522"/>
<path d="M31.1582 23.1583L31.3249 23.325L31.1582 23.1583Z" fill="#FE9F11"/>
<path d="M31.3252 23.1583L31.4919 23.325L31.3252 23.1583Z" fill="#FCB144"/>
<path d="M31.4922 23.1583L31.6589 23.325L31.4922 23.1583Z" fill="#FBC477"/>
<path d="M31.6582 23.1583L31.8249 23.325L31.6582 23.1583Z" fill="#FACA88"/>
<path d="M31.834 23.1583L32.0007 23.325L31.834 23.1583Z" fill="#FBC477"/>
<path d="M32 23.1583L32.1667 23.325L32 23.1583Z" fill="#FCB144"/>
<path d="M32.166 23.1583L32.3327 23.325L32.166 23.1583Z" fill="#FDAB33"/>
<path d="M34.541 23.1583L34.7077 23.325L34.541 23.1583Z" fill="#FBC477"/>
<path d="M34.709 23.1583L34.8757 23.325L34.709 23.1583Z" fill="#FEF8F1"/>
<path d="M37.0752 23.1583L37.2419 23.325L37.0752 23.1583Z" fill="#FDAB33"/>
<path d="M38.5996 23.1583L38.7663 23.325L38.5996 23.1583Z" fill="#E1E18C"/>
<path d="M38.9922 23.2667L39.0505 23.3834L38.9922 23.2667Z" fill="#A4A43D"/>
<path d="M39.1084 23.1583L39.2751 23.325L39.1084 23.1583Z" fill="#262678"/>
<path d="M27.7754 23.325L27.9421 23.4916L27.7754 23.325Z" fill="#58587B"/>
<path d="M28.2832 23.325L28.4499 23.4916L28.2832 23.325Z" fill="#F2F1D2"/>
<path d="M29.6328 23.325L29.7995 23.4916L29.6328 23.325Z" fill="#FACA88"/>
<path d="M34.2002 23.325L34.3669 23.4916L34.2002 23.325Z" fill="#FE9F11"/>
<path d="M34.375 23.325L34.5417 23.4916L34.375 23.325Z" fill="#FBEAD6"/>
<path d="M35.8916 23.325L36.0583 23.4916L35.8916 23.325Z" fill="#FBC477"/>
<path d="M37.0752 23.325L37.2419 23.4916L37.0752 23.325Z" fill="#FACA88"/>
<path d="M38.5996 23.325L38.7663 23.4916L38.5996 23.325Z" fill="#D4D456"/>
<path d="M27.7754 23.4917L27.9421 23.6584L27.7754 23.4917Z" fill="#32327B"/>
<path d="M28.2832 23.4917L28.4499 23.6584L28.2832 23.4917Z" fill="#E5E59D"/>
<path d="M29.6328 23.4917L29.7995 23.6584L29.6328 23.4917Z" fill="#FEF8F1"/>
<path d="M29.7998 23.4917L29.9665 23.6584L29.7998 23.4917Z" fill="#FE9F11"/>
<path d="M34.2002 23.4917L34.3669 23.6584L34.2002 23.4917Z" fill="#FBEAD6"/>
<path d="M35.8916 23.4917L36.0583 23.6584L35.8916 23.4917Z" fill="#FEA522"/>
<path d="M37.0752 23.4917L37.2419 23.6584L37.0752 23.4917Z" fill="#FCF1E4"/>
<path d="M38.9414 23.4917L39.1081 23.6584L38.9414 23.4917Z" fill="#808067"/>
<path d="M27.7754 23.6583L27.9421 23.825L27.7754 23.6583Z" fill="#0E0E6E"/>
<path d="M27.9414 23.6583L28.1081 23.825L27.9414 23.6583Z" fill="#A4A43D"/>
<path d="M28.2832 23.6583L28.4499 23.825L28.2832 23.6583Z" fill="#D9D868"/>
<path d="M29.7998 23.6583L29.9665 23.825L29.7998 23.6583Z" fill="#F8DCBB"/>
<path d="M35.7246 23.6583L35.8913 23.825L35.7246 23.6583Z" fill="#F9D6AA"/>
<path d="M36.9082 23.6583L37.0749 23.825L36.9082 23.6583Z" fill="#FACA88"/>
<path d="M38.4336 23.6583L38.6003 23.825L38.4336 23.6583Z" fill="#F2F1D2"/>
<path d="M38.9414 23.6583L39.1081 23.825L38.9414 23.6583Z" fill="#58587B"/>
<path d="M27.9414 23.8334L28.1081 24L27.9414 23.8334Z" fill="#8D8D5B"/>
<path d="M29.9746 23.8334L30.1413 24L29.9746 23.8334Z" fill="#F9D6AA"/>
<path d="M33.3584 23.8334L33.5251 24L33.3584 23.8334Z" fill="#FDAB33"/>
<path d="M33.5254 23.8334L33.6921 24L33.5254 23.8334Z" fill="white"/>
<path d="M33.8086 23.8833L33.9253 23.9416L33.8086 23.8833Z" fill="#FCB144"/>
<path d="M35.5583 23.8334L35.3916 24.1667L35.5583 23.8334Z" fill="#FEF8F1"/>
<path d="M35.7246 23.8334L35.8913 24L35.7246 23.8334Z" fill="#FE9F11"/>
<path d="M36.7419 23.8334L36.5752 24.1667L36.7419 23.8334Z" fill="#FDAB33"/>
<path d="M38.4336 23.8334L38.6003 24L38.4336 23.8334Z" fill="#E5E59D"/>
<path d="M38.9414 23.8334L39.1081 24L38.9414 23.8334Z" fill="#3A3A7C"/>
<path d="M27.9414 24L28.1081 24.1667L27.9414 24Z" fill="#666677"/>
<path d="M28.4502 24L28.6169 24.1667L28.4502 24Z" fill="#F2F1D2"/>
<path d="M30.1416 24L30.3083 24.1667L30.1416 24Z" fill="#F9D6AA"/>
<path d="M33.3584 24L33.5251 24.1667L33.3584 24Z" fill="#FE9F11"/>
<path d="M33.5254 24L33.6921 24.1667L33.5254 24Z" fill="#FACA88"/>
<path d="M33.6914 24L33.8581 24.1667L33.6914 24Z" fill="#FEA522"/>
<path d="M33.8672 24L34.0339 24.1667L33.8672 24Z" fill="#FCF1E4"/>
<path d="M35.5586 24L35.7253 24.1667L35.5586 24Z" fill="#FDAB33"/>
<path d="M36.7422 24L36.9089 24.1667L36.7422 24Z" fill="#FEF8F1"/>
<path d="M38.4336 24L38.6003 24.1667L38.4336 24Z" fill="#D9D868"/>
<path d="M38.7666 24L38.9333 24.1667L38.7666 24Z" fill="#A4A43D"/>
<path d="M38.9414 24L39.1081 24.1667L38.9414 24Z" fill="#0E0E6E"/>
<path d="M27.9414 24.1666L28.1081 24.3333L27.9414 24.1666Z" fill="#3A3A7C"/>
<path d="M28.4502 24.1666L28.6169 24.3333L28.4502 24.1666Z" fill="#E5E59D"/>
<path d="M30.3086 24.1666L30.6419 24.5L30.3086 24.1666Z" fill="#FAE3C9"/>
<path d="M30.4834 24.1666L30.6501 24.3333L30.4834 24.1666Z" fill="#FE9F11"/>
<path d="M33.6914 24.1666L33.8581 24.3333L33.6914 24.1666Z" fill="#F8DCBB"/>
<path d="M35.2168 24.1666L35.3835 24.3333L35.2168 24.1666Z" fill="#FCF1E4"/>
<path d="M35.3828 24.1666L35.5495 24.3333L35.3828 24.1666Z" fill="#FDAB33"/>
<path d="M36.4082 24.1666L36.5749 24.3333L36.4082 24.1666Z" fill="#FCB144"/>
<path d="M36.5752 24.1666L36.7419 24.3333L36.5752 24.1666Z" fill="#FEF8F1"/>
<path d="M38.2666 24.1666L38.4333 24.3333L38.2666 24.1666Z" fill="#FBFAF2"/>
<path d="M38.7666 24.1666L38.9333 24.3333L38.7666 24.1666Z" fill="#8D8D5B"/>
<path d="M27.9414 24.3334L28.1081 24.5L27.9414 24.3334Z" fill="#0E0E6E"/>
<path d="M28.1084 24.3334L28.2751 24.5L28.1084 24.3334Z" fill="#A4A43D"/>
<path d="M28.4502 24.3334L28.6169 24.5L28.4502 24.3334Z" fill="#D4D456"/>
<path d="M33.5254 24.3334L33.6921 24.5L33.5254 24.3334Z" fill="#F9D6AA"/>
<path d="M35.0498 24.3334L35.2165 24.5L35.0498 24.3334Z" fill="#F9D099"/>
<path d="M35.2168 24.3334L35.3835 24.5L35.2168 24.3334Z" fill="#FE9F11"/>
<path d="M36.2334 24.3334L36.4001 24.5L36.2334 24.3334Z" fill="#FACA88"/>
<path d="M38.2666 24.3334L38.4333 24.5L38.2666 24.3334Z" fill="#EEEDC1"/>
<path d="M38.7666 24.3334L38.9333 24.5L38.7666 24.3334Z" fill="#58587B"/>
<path d="M28.1084 24.5L28.2751 24.6667L28.1084 24.5Z" fill="#737370"/>
<path d="M28.6172 24.5L28.7839 24.6667L28.6172 24.5Z" fill="#F6F6E4"/>
<path d="M30.4834 24.5L30.6501 24.6667L30.4834 24.5Z" fill="#FBBE66"/>
<path d="M33.1914 24.5L33.3581 24.6667L33.1914 24.5Z" fill="#FCB144"/>
<path d="M33.4082 24.625L33.4665 24.7333L33.4082 24.625Z" fill="#F8DCBB"/>
<path d="M34.709 24.5L34.8757 24.6667L34.709 24.5Z" fill="#FBBE66"/>
<path d="M34.875 24.5L35.0417 24.6667L34.875 24.5Z" fill="#FE9F11"/>
<path d="M35.8916 24.5L36.0583 24.6667L35.8916 24.5Z" fill="#FBC477"/>
<path d="M36.0664 24.5L36.2331 24.6667L36.0664 24.5Z" fill="#FCF1E4"/>
<path d="M38.2666 24.5L38.4333 24.6667L38.2666 24.5Z" fill="#D3D079"/>
<path d="M38.5996 24.5L38.7663 24.6667L38.5996 24.5Z" fill="#A4A43D"/>
<path d="M38.7666 24.5L38.9333 24.6667L38.7666 24.5Z" fill="#262678"/>
<path d="M28.1084 24.6666L28.2751 24.8333L28.1084 24.6666Z" fill="#49497D"/>
<path d="M28.6172 24.6666L28.7839 24.8333L28.6172 24.6666Z" fill="#E0DEA1"/>
<path d="M30.3086 24.6666L30.4753 24.8333L30.3086 24.6666Z" fill="#FAE3C9"/>
<path d="M32.6836 24.6666L32.8503 24.8333L32.6836 24.6666Z" fill="#FDAB33"/>
<path d="M32.8496 24.6666L33.0163 24.8333L32.8496 24.6666Z" fill="#FBC477"/>
<path d="M33.0166 24.6666L33.1833 24.8333L33.0166 24.6666Z" fill="#FBEAD6"/>
<path d="M33.5254 24.6666L33.6921 24.8333L33.5254 24.6666Z" fill="#FCB144"/>
<path d="M35.7246 24.6666L35.8913 24.8333L35.7246 24.6666Z" fill="#F9D6AA"/>
<path d="M38.5996 24.6666L38.7663 24.8333L38.5996 24.6666Z" fill="#99994E"/>
<path d="M28.1084 24.85L28.2751 25.0166L28.1084 24.85Z" fill="#0E0E6E"/>
<path d="M28.2832 24.85L28.4499 25.0166L28.2832 24.85Z" fill="#A4A43D"/>
<path d="M28.6172 24.85L28.7839 25.0166L28.6172 24.85Z" fill="#D4D456"/>
<path d="M30.1416 24.85L30.3083 25.0166L30.1416 24.85Z" fill="#F9D099"/>
<path d="M30.3086 24.85L30.4753 25.0166L30.3086 24.85ZM31.1586 24.85L31.3253 25.0166L31.1586 24.85Z" fill="#FE9F11"/>
<path d="M31.3252 24.85L31.4919 25.0166L31.3252 24.85Z" fill="#F9D6AA"/>
<path d="M31.4922 24.85L31.6589 25.0166L31.4922 24.85Z" fill="#F9D099"/>
<path d="M32.166 24.85L32.3327 25.0166L32.166 24.85Z" fill="#F9D6AA"/>
<path d="M32.334 24.85L32.5007 25.0166L32.334 24.85Z" fill="#FAE3C9"/>
<path d="M32.5 24.85L32.6667 25.0166L32.5 24.85Z" fill="#FEF8F1"/>
<path d="M33.8672 24.85L34.0339 25.0166L33.8672 24.85Z" fill="#FBEAD6"/>
<path d="M34.0332 24.85L34.1999 25.0166L34.0332 24.85Z" fill="#FAE3C9"/>
<path d="M34.2002 24.85L34.3669 25.0166L34.2002 24.85Z" fill="#FACA88"/>
<path d="M34.375 24.85L34.5417 25.0166L34.375 24.85Z" fill="#FBC477"/>
<path d="M34.541 24.85L34.7077 25.0166L34.541 24.85Z" fill="#FDAB33"/>
<path d="M35.3828 24.85L35.5495 25.0166L35.3828 24.85Z" fill="#FE9F11"/>
<path d="M35.5586 24.85L35.7253 25.0166L35.5586 24.85Z" fill="#F9D6AA"/>
<path d="M38.084 24.85L38.2507 25.0166L38.084 24.85Z" fill="#E5E3AF"/>
<path d="M38.5996 24.85L38.7663 25.0166L38.5996 24.85Z" fill="#666677"/>
<path d="M28.2832 25.0167L28.4499 25.1834L28.2832 25.0167Z" fill="#737370"/>
<path d="M28.791 25.0167L28.9577 25.1834L28.791 25.0167Z" fill="#F2F1D7"/>
<path d="M29.9746 25.0167L30.1413 25.1834L29.9746 25.0167Z" fill="#FEA522"/>
<path d="M30.8252 25.0167L30.9919 25.1834L30.8252 25.0167Z" fill="#FE9F11"/>
<path d="M30.9922 25.0167L31.1589 25.1834L30.9922 25.0167Z" fill="#FBBE66"/>
<path d="M31.1582 25.0167L31.3249 25.1834L31.1582 25.0167Z" fill="#FCF1E4"/>
<path d="M35.2168 25.0167L35.3835 25.1834L35.2168 25.0167Z" fill="#FEA522"/>
<path d="M35.3828 25.0167L35.5495 25.1834L35.3828 25.0167Z" fill="#FBEAD6"/>
<path d="M38.084 25.0167L38.2507 25.1834L38.084 25.0167Z" fill="#DDDC7A"/>
<path d="M38.4336 25.0167L38.6003 25.1834L38.4336 25.0167Z" fill="#A4A43D"/>
<path d="M38.5996 25.0167L38.7663 25.1834L38.5996 25.0167Z" fill="#262678"/>
<path d="M28.2832 25.1833L28.4499 25.35L28.2832 25.1833Z" fill="#49497D"/>
<path d="M28.5 25.3L28.5667 25.4084L28.5 25.3Z" fill="#A4A43D"/>
<path d="M28.791 25.1833L28.9577 25.35L28.791 25.1833Z" fill="#D3D079"/>
<path d="M30.1416 25.1833L30.3083 25.35L30.1416 25.1833Z" fill="#F9D099"/>
<path d="M30.3086 25.1833L30.4753 25.35L30.3086 25.1833Z" fill="#FCB144"/>
<path d="M30.4834 25.1833L30.6501 25.35L30.4834 25.1833Z" fill="#FACA88"/>
<path d="M30.6504 25.1833L30.8171 25.35L30.6504 25.1833Z" fill="#F8DCBB"/>
<path d="M30.8252 25.1833L30.9919 25.35L30.8252 25.1833Z" fill="#FEF8F1"/>
<path d="M34.541 25.1833L34.7077 25.35L34.541 25.1833Z" fill="#F8DCBB"/>
<path d="M35.2168 25.1833L35.3835 25.35L35.2168 25.1833Z" fill="#FCF1E4"/>
<path d="M37.916 25.1833L38.0827 25.35L37.916 25.1833Z" fill="#F6F6E4"/>
<path d="M38.4336 25.1833L38.6003 25.35L38.4336 25.1833Z" fill="#8D8D5B"/>
<path d="M28.959 25.35L29.1257 25.5166L28.959 25.35Z" fill="#FBFAF2"/>
<path d="M34.541 25.35L34.7077 25.5166L34.541 25.35Z" fill="#FBBE66"/>
<path d="M35.0498 25.35L35.2165 25.5166L35.0498 25.35Z" fill="#FACA88"/>
<path d="M37.916 25.35L38.0827 25.5166L37.916 25.35Z" fill="#E1E18C"/>
<path d="M38.4336 25.35L38.6003 25.5166L38.4336 25.35Z" fill="#49497D"/>
<path d="M28.4502 25.525L28.6169 25.6917L28.4502 25.525Z" fill="#58587B"/>
<path d="M28.959 25.525L29.1257 25.6917L28.959 25.525Z" fill="#E5E59D"/>
<path d="M34.541 25.525L34.7077 25.6917L34.541 25.525Z" fill="#FE9F11"/>
<path d="M34.875 25.525L35.0417 25.6917L34.875 25.525Z" fill="#FDAB33"/>
<path d="M37.75 25.525L37.9167 25.6917L37.75 25.525Z" fill="#FBFAF2"/>
<path d="M38.2666 25.525L38.4333 25.6917L38.2666 25.525Z" fill="#A4A43D"/>
<path d="M38.4336 25.525L38.6003 25.6917L38.4336 25.525Z" fill="#0E0E6E"/>
<path d="M28.4502 25.6917L28.6169 25.8583L28.4502 25.6917Z" fill="#1B1B74"/>
<path d="M28.6172 25.6917L28.7839 25.8583L28.6172 25.6917Z" fill="#A4A43D"/>
<path d="M28.959 25.6917L29.1257 25.8583L28.959 25.6917Z" fill="#D0D045"/>
<path d="M34.375 25.6917L34.5417 25.8583L34.375 25.6917Z" fill="#FBEAD6"/>
<path d="M34.709 25.6917L34.8757 25.8583L34.709 25.6917Z" fill="#FE9F11"/>
<path d="M34.875 25.6917L35.0417 25.8583L34.875 25.6917Z" fill="#FBEAD6"/>
<path d="M37.75 25.6917L37.9167 25.8583L37.75 25.6917Z" fill="#E5E59D"/>
<path d="M38.2666 25.6917L38.4333 25.8583L38.2666 25.6917Z" fill="#666677"/>
<path d="M28.6172 25.8583L28.7839 26.0249L28.6172 25.8583Z" fill="#6E6C70"/>
<path d="M29.125 25.8583L29.2917 26.0249L29.125 25.8583Z" fill="#E5E3AF"/>
<path d="M34.416 25.975L34.4827 26.0916L34.416 25.975Z" fill="#FACA88"/>
<path d="M34.709 25.8583L34.8757 26.0249L34.709 25.8583Z" fill="#FAE3C9"/>
<path d="M37.584 25.8583L37.7507 26.0249L37.584 25.8583Z" fill="#FBFAF2"/>
<path d="M38.084 25.8583L38.2507 26.0249L38.084 25.8583Z" fill="#A4A43D"/>
<path d="M38.2672 25.8583L38.4339 26.0249L38.2672 25.8583ZM28.6172 26.0249L28.7839 26.1916L28.6172 26.0249Z" fill="#1B1B74"/>
<path d="M28.791 26.0333L28.9577 26.2L28.791 26.0333Z" fill="#A4A43D"/>
<path d="M29.125 26.0333L29.2917 26.2L29.125 26.0333Z" fill="#D0D045"/>
<path d="M29.291 26.0333L29.4577 26.2L29.291 26.0333Z" fill="#FBFAF2"/>
<path d="M34.541 26.0333L34.7077 26.2L34.541 26.0333Z" fill="#F9D6AA"/>
<path d="M37.584 26.0333L37.7507 26.2L37.584 26.0333Z" fill="#E5E59D"/>
<path d="M38.0827 26.0333L38.2493 26.2L38.0827 26.0333ZM28.791 26.2L28.9577 26.3667L28.791 26.2Z" fill="#6E6C70"/>
<path d="M29.291 26.2L29.4577 26.3666L29.291 26.2Z" fill="#8CBF84"/>
<path d="M29.3672 26.2C29.9505 27.4333 32.0339 30.35 33.6172 30.3C35.1672 30.2416 36.9089 27.3833 37.5839 26.2H29.3672Z" fill="#00CCFF"/>
<path d="M37.916 26.2L38.0827 26.3666L37.916 26.2Z" fill="#A4A43D"/>
<path d="M38.0827 26.2L38.2493 26.3666L38.0827 26.2ZM28.791 26.3666L28.9577 26.5333L28.791 26.3666Z" fill="#1B1B74"/>
<path d="M28.959 26.3667L29.1257 26.5334L28.959 26.3667Z" fill="#A4A43D"/>
<path d="M29.291 26.3667L29.4577 26.5334L29.291 26.3667Z" fill="#ADB333"/>
<path d="M29.4668 26.3667L29.6335 26.5334L29.4668 26.3667Z" fill="#1AC5B5"/>
<path d="M37.416 26.3667L37.5827 26.5334L37.416 26.3667Z" fill="#68B070"/>
<path d="M37.916 26.3667L38.0827 26.5334L37.916 26.3667Z" fill="#666677"/>
<path d="M28.959 26.5416L29.1257 26.7083L28.959 26.5416Z" fill="#58587B"/>
<path d="M29.4668 26.5416L29.6335 26.7083L29.4668 26.5416Z" fill="#7FB15C"/>
<path d="M37.2422 26.5416L37.4089 26.7083L37.2422 26.5416Z" fill="#27C2AA"/>
<path d="M37.7507 26.5416L37.584 26.875L37.7507 26.5416Z" fill="#A4A43D"/>
<path d="M37.9173 26.5416L38.084 26.7083L37.9173 26.5416ZM28.959 26.7083L29.1257 26.875L28.959 26.7083Z" fill="#0E0E6E"/>
<path d="M29.125 26.7084L29.4583 27.0417L29.125 26.7084Z" fill="#A4A43D"/>
<path d="M29.6328 26.7084L29.7995 26.875L29.6328 26.7084Z" fill="#34BE9E"/>
<path d="M37.2422 26.7084L37.4089 26.875L37.2422 26.7084Z" fill="#96B247"/>
<path d="M37.75 26.7084L37.9167 26.875L37.75 26.7084Z" fill="#53527C"/>
<path d="M29.125 26.8833L29.2917 27.05L29.125 26.8833Z" fill="#3A3A7C"/>
<path d="M29.6328 26.8833L29.7995 27.05L29.6328 26.8833Z" fill="#A2B23D"/>
<path d="M29.7998 26.8833L29.9665 27.05L29.7998 26.8833Z" fill="#0DC9C1"/>
<path d="M37.0752 26.8833L37.2419 27.05L37.0752 26.8833Z" fill="#5BB47C"/>
<path d="M37.584 26.8833L37.7507 27.05L37.584 26.8833Z" fill="#8D8D5B"/>
<path d="M29.291 27.05L29.4577 27.2167L29.291 27.05Z" fill="#737370"/>
<path d="M29.7998 27.05L29.9665 27.2167L29.7998 27.05Z" fill="#74B166"/>
<path d="M36.9082 27.05L37.0749 27.2167L36.9082 27.05Z" fill="#27C2AA"/>
<path d="M37.4167 27.05L37.25 27.3834L37.4167 27.05Z" fill="#A4A43D"/>
<path d="M37.584 27.05L37.7507 27.2167L37.584 27.05Z" fill="#262678"/>
<path d="M29.291 27.2167L29.4577 27.3833L29.291 27.2167Z" fill="#0E0E6E"/>
<path d="M29.4668 27.2167L29.8001 27.55L29.4668 27.2167Z" fill="#A4A43D"/>
<path d="M29.9746 27.2167L30.1413 27.3833L29.9746 27.2167Z" fill="#42BB92"/>
<path d="M36.7422 27.2167L36.9089 27.3833L36.7422 27.2167Z" fill="#0DC9C1"/>
<path d="M36.9082 27.2167L37.0749 27.3833L36.9082 27.2167Z" fill="#96B247"/>
<path d="M37.416 27.2167L37.5827 27.3833L37.416 27.2167Z" fill="#58587B"/>
<path d="M29.4668 27.3833L29.6335 27.55L29.4668 27.3833Z" fill="#3A3A7C"/>
<path d="M29.9746 27.3833L30.1413 27.55L29.9746 27.3833Z" fill="#ADB333"/>
<path d="M30.1416 27.3833L30.3083 27.55L30.1416 27.3833Z" fill="#27C2AA"/>
<path d="M36.7422 27.3833L36.9089 27.55L36.7422 27.3833Z" fill="#74B166"/>
<path d="M37.2422 27.3833L37.4089 27.55L37.2422 27.3833Z" fill="#8D8D5B"/>
<path d="M29.6328 27.55L29.7995 27.7167L29.6328 27.55Z" fill="#6E6C70"/>
<path d="M30.1416 27.55L30.3083 27.7167L30.1416 27.55Z" fill="#96B247"/>
<path d="M30.3086 27.55L30.4753 27.7167L30.3086 27.55Z" fill="#0DC9C1"/>
<path d="M36.5752 27.55L36.7419 27.7167L36.5752 27.55Z" fill="#42BB92"/>
<path d="M37.0755 27.55L36.7422 28.05L37.0755 27.55Z" fill="#A4A43D"/>
<path d="M37.2422 27.55L37.4089 27.7167L37.2422 27.55Z" fill="#1B1B74"/>
<path d="M29.6328 27.7167L29.7995 27.8833L29.6328 27.7167Z" fill="#0E0E6E"/>
<path d="M29.7998 27.7167L29.9665 27.8833L29.7998 27.7167Z" fill="#8D8D5B"/>
<path d="M30.3086 27.7167L30.4753 27.8833L30.3086 27.7167Z" fill="#7FB15C"/>
<path d="M36.4082 27.7167L36.5749 27.8833L36.4082 27.7167Z" fill="#34BE9E"/>
<path d="M37.0752 27.7167L37.2419 27.8833L37.0752 27.7167Z" fill="#3A3A7C"/>
<path d="M29.7998 27.8917L29.9665 28.0584L29.7998 27.8917Z" fill="#1B1B74"/>
<path d="M29.9746 27.8917L31.8329 29.7501L29.9746 27.8917Z" fill="#A4A43D"/>
<path d="M30.4834 27.8917L30.6501 28.0584L30.4834 27.8917Z" fill="#74B166"/>
<path d="M36.2334 27.8917L36.4001 28.0584L36.2334 27.8917Z" fill="#27C2AA"/>
<path d="M36.4082 27.8917L36.5749 28.0584L36.4082 27.8917Z" fill="#ADB333"/>
<path d="M36.9082 27.8917L37.0749 28.0584L36.9082 27.8917Z" fill="#666677"/>
<path d="M29.9746 28.0583L30.1413 28.225L29.9746 28.0583Z" fill="#32327B"/>
<path d="M30.6504 28.0583L30.8171 28.225L30.6504 28.0583Z" fill="#42BB92"/>
<path d="M36.0661 28.0584L35.3828 28.9084L36.0745 28.05L36.0661 28.0584Z" fill="#0DC9C1"/>
<path d="M36.2334 28.0583L36.4001 28.225L36.2334 28.0583Z" fill="#ADB333"/>
<path d="M36.7422 28.0583L36.9089 28.225L36.7422 28.0583Z" fill="#737370"/>
<path d="M30.1416 28.2333L30.3083 28.3999L30.1416 28.2333Z" fill="#49497D"/>
<path d="M30.8252 28.2333L30.9919 28.3999L30.8252 28.2333Z" fill="#42BB92"/>
<path d="M36.0664 28.2333L36.2331 28.3999L36.0664 28.2333Z" fill="#96B247"/>
<path d="M36.5749 28.2333L36.4082 28.5666L36.5749 28.2333Z" fill="#8D8D5B"/>
<path d="M36.7422 28.2333L36.9089 28.3999L36.7422 28.2333Z" fill="#0E0E6E"/>
<path d="M30.3086 28.4L30.4753 28.5667L30.3086 28.4Z" fill="#53527C"/>
<path d="M30.9922 28.4L31.1589 28.5667L30.9922 28.4Z" fill="#42BB92"/>
<path d="M35.8916 28.4L36.0583 28.5667L35.8916 28.4Z" fill="#96B247"/>
<path d="M36.5752 28.4L36.7419 28.5667L36.5752 28.4Z" fill="#0E0E6E"/>
<path d="M30.4834 28.5667L30.6501 28.7333L30.4834 28.5667Z" fill="#6E6C70"/>
<path d="M31.1582 28.5667L31.3249 28.7333L31.1582 28.5667Z" fill="#42BB92"/>
<path d="M35.7246 28.5667L35.8913 28.7333L35.7246 28.5667Z" fill="#96B247"/>
<path d="M36.2337 28.5667L35.9004 29.0667L36.2337 28.5667Z" fill="#A4A43D"/>
<path d="M36.4082 28.5667L36.5749 28.7333L36.4082 28.5667Z" fill="#262678"/>
<path d="M30.6504 28.7417L30.8171 28.9084L30.6504 28.7417Z" fill="#6E6C70"/>
<path d="M31.3252 28.7417L31.4919 28.9084L31.3252 28.7417Z" fill="#42BB92"/>
<path d="M35.5586 28.7417L35.7253 28.9084L35.5586 28.7417Z" fill="#96B247"/>
<path d="M36.2334 28.7417L36.4001 28.9084L36.2334 28.7417Z" fill="#262678"/>
<path d="M30.8252 28.9083L30.9919 29.075L30.8252 28.9083Z" fill="#6E6C70"/>
<path d="M31.4922 28.9083L31.6589 29.075L31.4922 28.9083Z" fill="#68B070"/>
<path d="M35.2168 28.9083L35.3835 29.075L35.2168 28.9083Z" fill="#27C2AA"/>
<path d="M35.3828 28.9083L35.5495 29.075L35.3828 28.9083Z" fill="#ADB333"/>
<path d="M36.0664 28.9083L36.2331 29.075L36.0664 28.9083Z" fill="#262678"/>
<path d="M30.9922 29.075L31.1589 29.2416L30.9922 29.075Z" fill="#666677"/>
<path d="M31.6582 29.075L31.8249 29.2416L31.6582 29.075Z" fill="#74B166"/>
<path d="M35.0498 29.075L35.2165 29.2416L35.0498 29.075Z" fill="#34BE9E"/>
<path d="M35.2168 29.075L35.3835 29.2416L35.2168 29.075Z" fill="#ADB333"/>
<path d="M35.7253 29.075L35.5586 29.4083L35.7253 29.075Z" fill="#8D8D5B"/>
<path d="M35.8916 29.075L36.0583 29.2416L35.8916 29.075Z" fill="#262678"/>
<path d="M31.1582 29.2417L31.3249 29.4084L31.1582 29.2417Z" fill="#49497D"/>
<path d="M31.834 29.2417L32.0007 29.4084L31.834 29.2417Z" fill="#96B247"/>
<path d="M32 29.2417L32.1667 29.4084L32 29.2417Z" fill="#0DC9C1"/>
<path d="M34.875 29.2417L35.0417 29.4084L34.875 29.2417Z" fill="#42BB92"/>
<path d="M35.7246 29.2417L35.8913 29.4084L35.7246 29.2417Z" fill="#0E0E6E"/>
<path d="M31.3252 29.4166L31.4919 29.5833L31.3252 29.4166Z" fill="#49497D"/>
<path d="M32 29.4166L32.1667 29.5833L32 29.4166Z" fill="#A2B23D"/>
<path d="M32.166 29.4166L32.3327 29.5833L32.166 29.4166Z" fill="#27C2AA"/>
<path d="M34.709 29.4166L34.8757 29.5833L34.709 29.4166Z" fill="#74B166"/>
<path d="M35.2168 29.4166L34.7168 30.0833L35.2168 29.4166Z" fill="#A4A43D"/>
<path d="M35.3828 29.4166L35.5495 29.5833L35.3828 29.4166Z" fill="#808067"/>
<path d="M35.5586 29.4166L35.7253 29.5833L35.5586 29.4166Z" fill="#0E0E6E"/>
<path d="M31.4922 29.5834L31.6589 29.75L31.4922 29.5834Z" fill="#262678"/>
<path d="M32.166 29.5834L32.3327 29.75L32.166 29.5834Z" fill="#ADB333"/>
<path d="M32.334 29.5834L32.5007 29.75L32.334 29.5834Z" fill="#42BB92"/>
<path d="M34.375 29.5834L34.5417 29.75L34.375 29.5834Z" fill="#0DC9C1"/>
<path d="M34.541 29.5834L34.7077 29.75L34.541 29.5834Z" fill="#96B247"/>
<path d="M35.2168 29.5834L35.3835 29.75L35.2168 29.5834Z" fill="#6E6C70"/>
<path d="M31.6582 29.75L31.8249 29.9167L31.6582 29.75Z" fill="#1B1B74"/>
<path d="M31.834 29.75L32.0007 29.9167L31.834 29.75Z" fill="#8D8D5B"/>
<path d="M32.5 29.75L32.6667 29.9167L32.5 29.75Z" fill="#74B166"/>
<path d="M32.6836 29.75L32.8503 29.9167L32.6836 29.75Z" fill="#0DC9C1"/>
<path d="M34.2002 29.75L34.3669 29.9167L34.2002 29.75Z" fill="#34BE9E"/>
<path d="M34.375 29.75L34.5417 29.9167L34.375 29.75Z" fill="#ADB333"/>
<path d="M35.0498 29.75L35.2165 29.9167L35.0498 29.75Z" fill="#49497D"/>
<path d="M31.834 29.9166L32.0007 30.0833L31.834 29.9166Z" fill="#0E0E6E"/>
<path d="M32 29.9166L32.1667 30.0833L32 29.9166Z" fill="#6E6C70"/>
<path d="M32.166 29.9166L32.4993 30.25L32.166 29.9166Z" fill="#A4A43D"/>
<path d="M32.6836 29.9166L32.8503 30.0833L32.6836 29.9166Z" fill="#96B247"/>
<path d="M32.8496 29.9166L33.0163 30.0833L32.8496 29.9166Z" fill="#27C2AA"/>
<path d="M34.0332 29.9166L34.1999 30.0833L34.0332 29.9166Z" fill="#68B070"/>
<path d="M34.875 29.9166L35.0417 30.0833L34.875 29.9166Z" fill="#32327B"/>
<path d="M32.166 30.0834L32.3327 30.25L32.166 30.0834Z" fill="#49497D"/>
<path d="M33.0166 30.0834L33.1833 30.25L33.0166 30.0834Z" fill="#5BB47C"/>
<path d="M33.6914 30.0834L33.8581 30.25L33.6914 30.0834Z" fill="#27C2AA"/>
<path d="M33.8672 30.0834L34.0339 30.25L33.8672 30.0834Z" fill="#96B247"/>
<path d="M34.3757 30.0834L34.209 30.4167L34.3757 30.0834Z" fill="#A4A43D"/>
<path d="M34.541 30.0834L34.7077 30.25L34.541 30.0834Z" fill="#808067"/>
<path d="M34.709 30.0834L34.8757 30.25L34.709 30.0834Z" fill="#0E0E6E"/>
<path d="M32.334 30.25L32.5007 30.4167L32.334 30.25Z" fill="#262678"/>
<path d="M32.5 30.25L32.6667 30.4167L32.5 30.25Z" fill="#8D8D5B"/>
<path d="M33.1914 30.25L33.3581 30.4167L33.1914 30.25Z" fill="#8BB252"/>
<path d="M33.3584 30.25L33.5251 30.4167L33.3584 30.25Z" fill="#1AC5B5"/>
<path d="M33.5254 30.25L33.6921 30.4167L33.5254 30.25Z" fill="#5BB47C"/>
<path d="M34.375 30.25L34.5417 30.4167L34.375 30.25Z" fill="#58587B"/>
<path d="M32.5 30.4333L32.6667 30.6L32.5 30.4333Z" fill="#0E0E6E"/>
<path d="M32.6836 30.4333L32.8503 30.6L32.6836 30.4333Z" fill="#666677"/>
<path d="M32.8496 30.4333L33.0163 30.6L32.8496 30.4333Z" fill="#A4A43D"/>
<path d="M34.0332 30.4333L34.1999 30.6L34.0332 30.4333Z" fill="#99994E"/>
<path d="M34.1996 30.4333L34.3663 30.6L34.1996 30.4333ZM32.8496 30.6L33.0163 30.7667L32.8496 30.6Z" fill="#32327B"/>
<path d="M33.0166 30.6L33.1833 30.7666L33.0166 30.6Z" fill="#99994E"/>
<path d="M33.6914 30.6L33.8581 30.7666L33.6914 30.6Z" fill="#A4A43D"/>
<path d="M33.8672 30.6L34.0339 30.7666L33.8672 30.6Z" fill="#666677"/>
<path d="M34.0333 30.6L34.1999 30.7666L34.0333 30.6ZM33.0166 30.7666L33.1833 30.9333L33.0166 30.7666Z" fill="#0E0E6E"/>
<path d="M33.1914 30.7667L33.3581 30.9334L33.1914 30.7667Z" fill="#666677"/>
<path d="M33.3584 30.7667L33.5251 30.9334L33.3584 30.7667Z" fill="#A4A43D"/>
<path d="M33.5254 30.7667L33.6921 30.9334L33.5254 30.7667Z" fill="#99994E"/>
<path d="M33.6914 30.7667L33.8581 30.9334L33.6914 30.7667Z" fill="#32327B"/>
<path d="M33.3584 30.9333L33.5251 31.1L33.3584 30.9333Z" fill="#262678"/>
<path d="M33.5254 30.9333L33.6921 31.1L33.5254 30.9333Z" fill="#0E0E6E"/>
<path d="M33.691 19.6C33.9577 20.2166 34.791 20.8916 35.0243 21.225C34.7327 21.5583 34.6744 21.525 34.7077 22.1416C35.2077 21.6083 35.2244 21.5583 35.5577 21.6333C36.2744 22.35 35.6827 23.8833 35.091 24.2166C34.4994 24.575 34.6077 24.2083 33.716 24.65C34.1244 25 34.5993 24.6 34.9827 24.7083C35.191 24.9583 34.8827 25.4083 35.041 25.8416C35.3744 25.8083 35.341 25.1166 35.4244 24.8666C35.6744 23.95 37.1744 23.3166 37.2494 22.475C37.566 22.3333 37.8744 22.4333 38.2494 22.6416C38.066 21.8583 37.441 21.8666 37.266 21.625C36.866 21.0083 36.5077 20.3083 35.6493 20.125C34.9827 19.9833 35.041 20.1666 34.6244 19.875C34.3577 19.675 33.566 19.2916 33.691 19.6Z" fill="#FF9900"/>
<path fill-rule="evenodd" clip-rule="evenodd" d="M35.5748 20.3C35.5748 20.3364 35.5603 20.3714 35.5345 20.3972C35.5087 20.423 35.4738 20.4375 35.4373 20.4375C35.4008 20.4375 35.3659 20.423 35.3401 20.3972C35.3143 20.3714 35.2998 20.3364 35.2998 20.3C35.2998 20.2635 35.3143 20.2285 35.3401 20.2027C35.3659 20.177 35.4008 20.1625 35.4373 20.1625C35.4738 20.1625 35.5087 20.177 35.5345 20.2027C35.5603 20.2285 35.5748 20.2635 35.5748 20.3Z" fill="white"/>
<path d="M31.5995 22.2084C32.0162 21.6917 32.2329 20.625 32.4162 20.275C32.8495 20.375 32.8329 20.4417 33.3745 20.125C32.6662 19.925 32.6079 19.9417 32.5245 19.6167C32.8245 18.6417 34.4579 18.45 35.0245 18.8167C35.6245 19.175 35.2495 19.25 36.0579 19.8167C36.1746 19.3 35.5996 19.0667 35.5162 18.6834C35.6412 18.375 36.1829 18.4334 36.4829 18.1C36.2995 17.8084 35.7079 18.1667 35.4495 18.2167C34.5329 18.425 33.2579 17.4 32.4829 17.7167C32.2079 17.5084 32.1495 17.1834 32.1495 16.7417C31.5579 17.2834 31.8579 17.825 31.7162 18.1C31.3662 18.7417 30.9079 19.3917 31.1495 20.2334C31.3329 20.8834 31.4662 20.75 31.4162 21.2584C31.3579 21.5834 31.3829 22.4667 31.5995 22.2084Z" fill="#FF9900"/>
<path fill-rule="evenodd" clip-rule="evenodd" d="M31.3328 20.2167C31.4078 20.1834 31.4911 20.2084 31.5245 20.2751C31.536 20.2985 31.5404 20.3248 31.5371 20.3508C31.5338 20.3767 31.5229 20.4011 31.5058 20.4209C31.4888 20.4407 31.4663 20.455 31.4411 20.4622C31.416 20.4693 31.3893 20.4689 31.3644 20.4609C31.3395 20.453 31.3175 20.4379 31.301 20.4176C31.2846 20.3972 31.2746 20.3725 31.2721 20.3465C31.2696 20.3205 31.2748 20.2943 31.2871 20.2712C31.2994 20.2482 31.3182 20.2292 31.3411 20.2167H31.3328Z" fill="white"/>
<path d="M35.0252 22.5666C34.3585 22.4833 33.3502 22.8416 32.9419 22.875C32.8169 22.45 32.8752 22.4166 32.3252 22.125C32.5169 22.8416 32.5585 22.875 32.3252 23.125C31.3419 23.3666 30.3252 22.0666 30.3419 21.3916C30.3419 20.7 30.6085 20.975 30.6752 19.975C30.1752 20.1416 30.2752 20.7666 29.9835 21.0416C29.6502 21.0916 29.4335 20.6 28.9835 20.5166C28.8335 20.825 29.4419 21.1416 29.6169 21.3416C30.2752 22.025 30.0502 23.6333 30.7252 24.1333C30.6919 24.4833 30.4419 24.7 30.0585 24.9166C30.8335 25.1583 31.1419 24.6083 31.4502 24.5833C32.1835 24.5666 32.9752 24.6166 33.5752 23.975C34.0252 23.475 33.8502 23.4333 34.3085 23.225C34.6169 23.1083 35.3585 22.625 35.0252 22.5583V22.5666Z" fill="#FF9900"/>
<path fill-rule="evenodd" clip-rule="evenodd" d="M33.4582 23.8251C33.4429 23.8158 33.4296 23.8035 33.419 23.7891C33.4084 23.7746 33.4007 23.7582 33.3965 23.7408C33.3922 23.7234 33.3914 23.7053 33.3942 23.6876C33.3969 23.6699 33.4031 23.6529 33.4124 23.6376C33.4217 23.6222 33.4339 23.6089 33.4484 23.5983C33.4628 23.5877 33.4792 23.5801 33.4967 23.5758C33.5141 23.5715 33.5321 23.5708 33.5499 23.5735C33.5676 23.5762 33.5846 23.5824 33.5999 23.5917C33.6308 23.6105 33.6531 23.6408 33.6616 23.676C33.6702 23.7111 33.6645 23.7483 33.6457 23.7792C33.6269 23.8102 33.5966 23.8324 33.5615 23.841C33.5263 23.8496 33.4892 23.8438 33.4582 23.8251Z" fill="white"/>
<path d="M-7 0H19.6667V20H-7V0Z" fill="#012169"/>
<path d="M-3.875 0L6.29167 7.54167L16.4167 0H19.6667V2.58333L9.66667 10.0417L19.6667 17.4583V20H16.3333L6.33333 12.5417L-3.625 20H-7V17.5L2.95833 10.0833L-7 2.66667V0H-3.875Z" fill="white"/>
<path d="M10.6667 11.7083L19.6667 18.3333V20L8.375 11.7083H10.6667ZM3 12.5417L3.25 14L-4.75 20H-7L3 12.5417ZM19.6667 0V0.125L9.29167 7.95833L9.375 6.125L17.5833 0H19.6667ZM-7 0L2.95833 7.33333H0.458333L-7 1.75V0Z" fill="#C8102E"/>
<path d="M3.04167 0V20H9.70833V0H3.04167ZM-7 6.66667V13.3333H19.6667V6.66667H-7Z" fill="white"/>
<path d="M-7 8.04167V12.0417H19.6667V8.04167H-7ZM4.375 0V20H8.375V0H4.375Z" fill="#C8102E"/>
</g>
<defs>
<clipPath id="clip0_8424_43395">
<rect width="40" height="40" rx="20" fill="white"/>
</clipPath>
</defs>
</svg>
