<svg width="40" height="40" viewBox="0 0 40 40" fill="none" xmlns="http://www.w3.org/2000/svg">
<g clip-path="url(#clip0_8424_43346)">
<path d="M-7 0H46.3333V40H-7V0Z" fill="#3A7DCE"/>
<path d="M6.14115 19.2334C5.84948 18.5834 5.84948 18.5834 5.84948 17.9334C5.69948 17.9334 5.68281 17.9584 5.59948 17.9334C5.50781 17.9084 5.47448 18.5334 5.19948 18.4167C5.15781 18.35 5.39948 17.9 5.14115 17.7084C5.05781 17.65 5.15781 17.275 5.12448 17.1084C5.12448 17.1084 4.79115 17.3084 4.54115 16.625C4.41615 16.4417 4.24948 16.7917 4.24948 16.7917C4.24948 16.7917 4.32448 16.9917 4.19115 17.0417C4.00781 16.8917 3.86615 16.975 3.63281 16.7584C3.39948 16.55 3.68281 16.3084 3.23281 16.1334C3.52448 15.3167 3.52448 15.475 4.24948 15.15C3.81615 14.8167 3.81615 14.8167 3.52448 14.3334C3.09115 14.1667 2.94115 14 2.50781 13.6834C1.92448 12.8584 1.63281 11.225 1.63281 10.0834C1.99948 9.70003 2.50781 11.3917 3.23281 11.8834L4.24948 12.375C4.83281 12.7 4.97448 13.025 5.41615 13.35L6.71615 13.85C7.29948 14.3334 7.59115 14.9834 8.02448 15.15C8.49948 15.15 8.59115 14.8417 8.74115 14.825C9.59948 14.775 10.0328 14.6584 10.1995 14.3667C10.3745 14.1334 10.7828 14.5 11.9495 14.0084L11.8078 13.35C11.8078 13.35 12.1161 13.0667 12.5328 13.1834C12.5245 12.8917 12.4911 12.1 12.9078 11.7334C12.6578 11.4417 13.0578 10.9834 13.0745 10.8417C12.9578 10.125 13.1911 10.1167 13.2411 9.90003C13.2911 9.69169 13.0411 9.75836 13.1078 9.46669C13.1828 9.17502 13.6078 9.10836 13.6578 8.86669C13.7161 8.62502 13.5661 7.67502 13.5495 7.46669C14.3328 7.23336 14.5828 6.51669 14.8578 6.81669C14.9995 5.83336 15.1495 5.50002 16.0245 5.50002C16.1411 5.20002 15.6995 4.94169 15.8745 4.84169C16.1661 4.80002 16.3828 4.82502 16.7245 5.31669C16.8328 5.48336 16.8578 5.09169 16.9661 5.05002C17.0745 5.00836 17.3328 5.00836 17.3745 4.81669C17.4161 4.61669 17.4745 4.35002 17.6245 4.02502C17.7411 3.75836 17.8328 4.13336 17.9411 4.65002C18.5578 4.67502 19.9411 4.82502 20.5245 5.00836C20.9578 5.13336 21.2495 4.88336 21.6661 4.82502C21.9745 5.17502 22.2661 4.90836 22.4328 5.65836C22.6578 6.05836 23.0411 5.69169 23.1245 5.80836C23.6078 7.31669 25.2745 6.30002 25.4078 6.32502C25.6161 6.32502 25.8745 6.99169 26.0495 6.98336C26.3161 6.93336 26.2411 6.72502 26.4828 6.80836C26.4161 7.37502 26.9495 8.02502 26.9495 8.45002C26.9495 8.45002 27.0745 8.52502 27.1995 8.40002C27.3161 8.26669 27.4245 7.95002 27.5328 7.95836C27.7828 8.00002 29.3661 8.45836 29.6828 8.61669C29.8245 8.90836 29.9578 9.05836 30.2495 9.00836C30.4828 9.18336 30.3161 9.42502 30.4495 9.43336C30.7411 9.26669 30.8411 9.10002 31.1328 9.25836C31.4245 9.42502 31.7161 9.75003 31.8578 10.075C31.8578 10.2417 31.7078 10.8917 31.8578 11.875C31.9328 12.2 32.6661 14.5667 32.6661 14.8084C32.6661 15.1417 32.4411 15.3084 32.2911 15.6334C32.8745 16.125 32.2911 16.9417 31.9995 17.4334C34.1828 17.925 33.1661 18.9 34.9078 18.4084C34.4745 19.5584 34.6245 19.4667 35.0578 20.6084C34.1911 21.2584 35.0411 21.4584 34.4661 22.275C34.4245 22.3334 34.8078 22.9917 35.3411 22.9917C35.1995 24.2917 34.7578 23.8084 34.9078 25.7667C33.7661 25.7417 34.2245 27.2334 33.4578 27.075C33.4995 28.0084 33.8911 28.0917 33.7411 29.0334C33.1578 29.2 33.1578 29.2 32.8745 29.6917L32.4411 29.525C32.2911 30.3417 31.9995 30.5084 32.4411 31.325C32.4411 31.325 31.8745 31.3417 31.7078 31.325C31.6995 31.6084 31.9578 31.6834 31.9995 31.975C31.9828 32.0917 31.1745 32.6084 30.5495 32.6334C30.3828 33.0334 30.9828 33.4667 30.9495 33.6667C30.2661 33.8167 29.9661 34.75 29.9661 34.75C29.9661 34.75 30.3161 34.9167 30.2578 35.0834C30.0745 34.9334 29.9661 34.9167 29.6745 34.9167C29.5328 34.9584 29.1745 34.9167 28.8411 35.5584C28.4661 35.6917 28.2911 35.6417 28.0078 36.0584C27.8828 35.6667 27.6995 36.0667 27.4828 36.225C27.2578 36.375 26.9661 36.7667 26.9245 36.75C26.9328 36.6334 27.0578 36.225 27.0578 36.225L26.2495 36.4167C26.1911 36.425 26.2078 35.9417 26.0661 35.9584C25.9245 35.975 25.5328 36.5667 25.3995 36.5834C25.2661 36.6 25.2245 36.4 25.1078 36.4167C24.9911 36.4334 24.7745 37.0417 24.6911 37.0584C24.6078 37.0667 24.2745 36.6834 23.9995 36.7417C22.5745 37.3084 22.3411 35.625 22.1245 36.575C21.8245 36.3917 21.8745 36.4917 21.5661 36.5834C21.3745 36.6417 21.3578 36.3 21.1828 36.3C20.8411 36.3167 20.8495 36.6834 20.6661 36.575C20.5161 35.8084 19.5828 35.9417 19.4995 35.6167C19.4161 35.2834 19.8995 35.2834 20.0495 35.05C20.1661 34.7167 19.9245 34.5834 20.4078 34.2667C21.0328 33.7917 20.9745 32.6167 20.8161 32.1584C20.8161 32.1584 20.3245 30.6834 20.2328 30.6834C19.9411 30.6 19.9411 31.225 19.5161 31.4C18.6411 31.7334 17.0995 30.575 16.8328 30.575C16.5911 30.575 15.4578 30.875 15.4995 30.2417C15.3328 30.8584 14.7078 30.3834 14.6661 30.3834C14.0828 30.3834 14.3078 30.8917 13.9161 30.875C13.7411 30.8084 11.9495 30.6834 11.9495 30.6834V31.0167L9.77448 30.0334C8.89948 29.7 9.33281 28.8917 7.88281 29.3834V28.4H7.15781C7.44948 26.4334 7.15781 27.4167 7.00781 25.6167L6.42448 25.7834C5.84115 24.9 7.24115 25.0667 5.99115 24.475C5.99115 24.475 6.01615 23.5 5.69948 23.825C5.64115 23.8667 5.84948 24.3084 5.84948 24.3084C4.68281 24.1417 4.39948 23.825 4.39948 22.5167C4.39948 22.5167 5.34948 22.6667 5.26615 22.5167C5.13281 22.2667 4.95781 20.6834 4.98281 20.5667C4.97448 20.35 5.87448 19.8167 5.69948 19.3C5.81615 19.25 6.14115 19.2417 6.14115 19.2417" fill="white"/>
<path fill-rule="evenodd" clip-rule="evenodd" d="M1.52515 11.3404C1.5324 11.3404 1.53919 11.3405 1.54532 11.3405C1.59781 11.3405 1.64036 11.383 1.64036 11.4355C1.64036 11.4716 1.62084 11.4944 1.61377 11.5018C1.60541 11.5106 1.59721 11.5159 1.59376 11.518C1.58644 11.5226 1.57944 11.5256 1.57695 11.5267L1.5769 11.5267C1.57405 11.528 1.56816 11.5303 1.56359 11.5322C1.5613 11.5331 1.55934 11.5339 1.55826 11.5344C1.54632 11.5393 1.53151 11.5461 1.51534 11.5563C1.48381 11.5761 1.44473 11.6105 1.41779 11.6742C1.40195 11.7116 1.36404 11.7348 1.32349 11.7319C1.28293 11.729 1.24872 11.7007 1.23836 11.6613C1.22201 11.5992 1.21666 11.5407 1.23086 11.4887C1.24647 11.4316 1.28286 11.3926 1.32759 11.3699C1.36785 11.3495 1.41183 11.3437 1.44634 11.3415C1.47262 11.3399 1.50134 11.3402 1.52515 11.3404ZM1.50095 11.3525C1.5016 11.3522 1.50173 11.3521 1.50115 11.3524C1.50108 11.3524 1.50101 11.3524 1.50095 11.3525ZM1.58084 11.8576C1.58088 11.8576 1.58093 11.8577 1.56683 11.9516L1.58093 11.8577C1.61542 11.8628 1.6443 11.8865 1.65618 11.9193C1.66807 11.9521 1.66103 11.9887 1.63786 12.0148C1.62622 12.0279 1.61341 12.0349 1.61051 12.0365C1.61041 12.0365 1.61032 12.0366 1.61024 12.0366C1.60572 12.0391 1.60148 12.041 1.59952 12.0419C1.59718 12.043 1.59557 12.0437 1.59419 12.0443C1.5921 12.0452 1.59055 12.0459 1.58782 12.0472C1.58118 12.0503 1.5726 12.0549 1.56251 12.0626C1.54294 12.0775 1.51142 12.1087 1.48164 12.1757C1.46481 12.2136 1.42538 12.2362 1.3842 12.2316C1.34302 12.227 1.30958 12.1962 1.30155 12.1555C1.28807 12.0873 1.2922 12.0252 1.31891 11.973C1.34605 11.9199 1.38978 11.8902 1.4297 11.8744C1.46833 11.8591 1.50631 11.8555 1.53205 11.855C1.54543 11.8547 1.55682 11.8553 1.56514 11.8559C1.56933 11.8563 1.57281 11.8566 1.57547 11.8569C1.5768 11.8571 1.57793 11.8572 1.57884 11.8574L1.58005 11.8575L1.58053 11.8576L1.58074 11.8576L1.58084 11.8576ZM2.68329 14.4065C2.70321 14.4572 2.70545 14.5165 2.69232 14.583C2.68429 14.6236 2.65084 14.6544 2.60966 14.659C2.56848 14.6636 2.52906 14.641 2.51223 14.6031C2.48036 14.5314 2.45008 14.4918 2.43055 14.4706C2.42074 14.4599 2.41273 14.4529 2.4064 14.4475C2.4061 14.4472 2.40568 14.4469 2.40519 14.4465C2.40254 14.4442 2.39755 14.44 2.39393 14.4366C2.39173 14.4346 2.38619 14.4293 2.38068 14.422L2.38058 14.4219C2.37705 14.4172 2.36067 14.3955 2.36067 14.3629C2.36067 14.3136 2.39839 14.2725 2.44752 14.2682L2.45571 14.3629C2.44752 14.2682 2.44757 14.2682 2.44762 14.2682L2.44774 14.2682L2.44798 14.2682L2.44851 14.2682L2.4498 14.2681C2.45076 14.268 2.45191 14.2679 2.45324 14.2679C2.4559 14.2677 2.4593 14.2676 2.46334 14.2676C2.47135 14.2676 2.48217 14.2679 2.49479 14.2694C2.51921 14.2721 2.55473 14.2793 2.59012 14.2993C2.6271 14.3201 2.6628 14.3543 2.68329 14.4065ZM35.6006 23.9639C35.6152 23.9283 35.6499 23.905 35.6885 23.905H35.6957C35.7428 23.905 35.7828 23.9395 35.7897 23.9861C35.792 24.0017 35.7965 24.0169 35.8032 24.0376L35.805 24.0432C35.8111 24.0616 35.8191 24.0863 35.824 24.1127C35.8366 24.18 35.8278 24.2512 35.778 24.3377C35.7608 24.3677 35.7287 24.3859 35.6941 24.3854C35.6596 24.3848 35.6281 24.3655 35.6118 24.3351C35.5546 24.2277 35.5476 24.0931 35.6006 23.9639Z" fill="white"/>
</g>
<defs>
<clipPath id="clip0_8424_43346">
<rect width="40" height="40" rx="20" fill="white"/>
</clipPath>
</defs>
</svg>
