<svg width="56" height="56" viewBox="0 0 56 56" fill="none" xmlns="http://www.w3.org/2000/svg">
<g clip-path="url(#clip0_3318_23766)">
<path d="M28 56C43.464 56 56 43.464 56 28C56 12.536 43.464 0 28 0C12.536 0 0 12.536 0 28C0 43.464 12.536 56 28 56Z" fill="#F0F0F0"/>
<path d="M28 0C16.8991 0 7.30732 6.46023 2.77832 15.8261H53.2215C48.6926 6.46023 39.1008 0 28 0Z" fill="#338AF3"/>
<path d="M28 56C39.1008 56 48.6926 49.5398 53.2216 40.1739H2.77832C7.30732 49.5398 16.8991 56 28 56Z" fill="#338AF3"/>
<path d="M36.3685 28L32.9489 29.6086L34.7699 32.9204L31.0566 32.21L30.5861 35.9611L27.9997 33.2022L25.4132 35.9611L24.9428 32.21L21.2295 32.9202L23.0504 29.6085L19.6309 28L23.0505 26.3914L21.2295 23.0798L24.9427 23.7901L25.4133 20.0389L27.9997 22.7978L30.5862 20.0389L31.0566 23.7901L34.77 23.0798L32.949 26.3916L36.3685 28Z" fill="#FFDA44"/>
</g>
<defs>
<clipPath id="clip0_3318_23766">
<rect width="56" height="56" fill="white"/>
</clipPath>
</defs>
</svg>
