<svg width="40" height="40" viewBox="0 0 40 40" fill="none" xmlns="http://www.w3.org/2000/svg">
<g clip-path="url(#clip0_8424_43383)">
<path d="M-10 0V39.9996H49.9994V0H-10Z" fill="#3399CC"/>
<path d="M-10 26.6664V28.8886H49.9994V26.6664H-10ZM-10 31.1108V33.333H49.9994V31.1108H-10Z" fill="#FFFF00"/>
<path d="M1.8916 2.33337L2.13327 2.58337L1.88327 2.33337H1.8916ZM1.6416 2.83337L1.8916 3.08337L1.6416 2.83337ZM2.13327 2.83337L2.38327 3.08337L2.13327 2.83337Z" fill="#99CCCC"/>
<path d="M1.6416 3.08328L1.8916 3.32495L1.6416 3.07495M2.13327 3.07495L2.38327 3.32495L2.13327 3.07495Z" fill="#CCCCFF"/>
<path d="M1.3916 3.56665L1.6416 3.81665L1.3916 3.56665Z" fill="#66CCCC"/>
<path d="M1.89115 3.56665L2.13281 3.81665L1.88281 3.56665H1.89115Z" fill="#CC6666"/>
<path d="M2.38333 3.56665L2.625 3.81665L2.375 3.56665H2.38333Z" fill="#66CCCC"/>
<path d="M1.3916 3.81665L1.6416 4.06665L1.3916 3.81665ZM2.38327 3.81665L2.62494 4.06665L2.37494 3.81665H2.38327Z" fill="#CCCCFF"/>
<path d="M1.6416 4.05835L1.8916 4.30835L1.6416 4.05835ZM2.13327 4.05835L2.38327 4.30835L2.13327 4.05835Z" fill="#FFCCCC"/>
<path d="M1.15039 4.30835L1.40039 4.55835L1.15039 4.30835Z" fill="#66CCCC"/>
<path d="M1.84974 2.83337L0.124739 9.37504L-6.43359 11.1667L0.0997386 12.875L1.84974 19.4084L3.59141 12.875L10.1247 11.125L3.59141 9.38337L1.84141 2.85004L1.84974 2.83337Z" fill="#CC0000"/>
<path fill-rule="evenodd" clip-rule="evenodd" d="M1.68413 2.85773L-0.00139856 9.24973L-7.03027 11.1699L-0.0257235 13.0015L1.85036 20.0055L3.71767 13.0009L10.7222 11.1247L3.71752 9.25734L1.99059 2.81012L1.89861 2.83476L1.71211 2.7644L1.67762 2.83339L1.68413 2.85773ZM1.84482 3.45762L0.2514 9.5003L-5.83639 11.1634L0.225725 12.7485L1.84965 18.8112L3.46567 12.7492L9.52783 11.1254L3.46582 9.50935L1.84482 3.45762Z" fill="white"/>
<path d="M2.625 4.30835L2.875 4.55835L2.625 4.30835Z" fill="#66CCCC"/>
<path d="M1.15039 4.55005L1.40039 4.80005L1.15039 4.55005ZM2.62539 4.55005L2.87539 4.80005L2.62539 4.55005Z" fill="#99CCFF"/>
<path d="M1.3916 4.80005L1.6416 5.05005L1.3916 4.80005ZM2.38327 4.80005L2.62494 5.05005L2.37494 4.80005H2.38327Z" fill="#FFCCCC"/>
<path d="M0.900391 5.04163L1.15039 5.29163L0.900391 5.04163Z" fill="#6699CC"/>
<path d="M1.47461 5.20837L1.55794 5.37504L1.47461 5.20837ZM2.45794 5.20837L2.54128 5.37504L2.45794 5.20837Z" fill="#CC3333"/>
<path d="M2.875 5.04163L3.125 5.29163L2.875 5.04163Z" fill="#6699CC"/>
<path d="M0.900391 5.29163L1.15039 5.54163L0.900391 5.29163ZM2.87539 5.29163L3.12539 5.54163L2.87539 5.29163Z" fill="#99CCFF"/>
<path d="M1.15039 5.53333L1.40039 5.78333L1.15039 5.53333ZM2.62539 5.53333L2.87539 5.78333L2.62539 5.53333Z" fill="#FFCCCC"/>
<path d="M0.658203 5.78333L0.908202 6.03333L0.658203 5.78333ZM3.11654 5.78333L3.36654 6.03333L3.11654 5.78333Z" fill="#6699CC"/>
<path d="M0.658203 6.02502L0.908202 6.27502L0.658203 6.02502ZM3.11654 6.02502L3.36654 6.27502L3.11654 6.02502Z" fill="#99CCCC"/>
<path d="M0.658203 6.27502L0.908202 6.52502L0.658203 6.27502ZM3.11654 6.27502L3.36654 6.52502L3.11654 6.27502Z" fill="#CCFFFF"/>
<path d="M0.416536 6.52506L0.658203 6.76672L0.408203 6.51672L0.416536 6.52506Z" fill="#6699CC"/>
<path d="M0.900391 6.52506L1.15039 6.76672L0.900391 6.51672M2.87539 6.51672L3.12539 6.76672L2.87539 6.51672Z" fill="#FFCCCC"/>
<path d="M3.36719 6.52506L3.61719 6.76672L3.36719 6.51672V6.52506Z" fill="#6699CC"/>
<path d="M0.416536 6.76672L0.658203 7.01672L0.408203 6.76672H0.416536Z" fill="#99CCCC"/>
<path d="M0.983398 6.93335L1.06673 7.10002L0.983398 6.93335ZM2.95006 6.93335L3.0334 7.10002L2.95006 6.93335Z" fill="#CC3333"/>
<path d="M3.36719 6.76672L3.61719 7.01672L3.36719 6.76672Z" fill="#99CCCC"/>
<path d="M0.416536 7.01672L0.658203 7.26672L0.408203 7.01672M3.36654 7.01672L3.61654 7.26672L3.36654 7.01672Z" fill="#CCFFFF"/>
<path d="M0.658203 7.2583L0.908202 7.5083L0.658203 7.2583ZM3.11654 7.2583L3.36654 7.5083L3.11654 7.2583Z" fill="#FFCCCC"/>
<path d="M0.166016 7.5L0.416016 7.75L0.166016 7.5Z" fill="#99CCCC"/>
<path d="M0.742188 7.66663L0.825521 7.83329L0.742188 7.66663ZM3.20052 7.66663L3.28385 7.83329L3.20052 7.66663Z" fill="#CC3333"/>
<path d="M3.6084 7.5L3.8584 7.75L3.6084 7.5Z" fill="#99CCCC"/>
<path d="M0.166016 7.75L0.416016 8L0.166016 7.75ZM3.60768 7.75L3.85768 8L3.60768 7.75Z" fill="#CCCCFF"/>
<path d="M0.416536 8L0.658203 8.25L0.408203 8M3.36654 8L3.61654 8.25L3.36654 8Z" fill="#FFCCCC"/>
<path d="M-0.0839844 8.25003L0.166016 8.4917L-0.0839844 8.2417V8.25003Z" fill="#99CCCC"/>
<path d="M0.500521 8.40833L0.575521 8.57499L0.492188 8.40833M3.44219 8.40833L3.52552 8.57499L3.44219 8.40833Z" fill="#CC3333"/>
<path d="M3.8584 8.25003L4.1084 8.4917L3.8584 8.2417V8.25003Z" fill="#99CCCC"/>
<path d="M-0.0839844 8.4917L0.166016 8.7417L-0.0839844 8.4917ZM3.85768 8.4917L4.10768 8.7417L3.85768 8.4917Z" fill="#CCCCFF"/>
<path d="M0.166016 8.73328L0.416016 8.98328L0.166016 8.73328ZM3.60768 8.73328L3.85768 8.98328L3.60768 8.73328Z" fill="#FFCCCC"/>
<path d="M0.166016 8.98328L0.416016 9.23328L0.166016 8.98328ZM3.60768 8.98328L3.85768 9.23328L3.60768 8.98328Z" fill="#CC3333"/>
<path d="M4.10026 8.98328L4.35026 9.23328L4.10026 8.98328ZM-1.06641 9.23328L-0.816406 9.47494L-1.06641 9.22494V9.23328Z" fill="#99CCCC"/>
<path d="M-0.816406 9.22498L-0.566406 9.47498L-0.816406 9.22498ZM4.60026 9.22498L4.84193 9.47498L4.59193 9.22498H4.60026Z" fill="#CCCCFF"/>
<path d="M4.83353 9.22498L5.08353 9.47498L4.83353 9.22498ZM-1.7998 9.47498L-1.5498 9.72498L-1.7998 9.47498Z" fill="#99CCCC"/>
<path d="M-0.333984 9.47498L-0.0839844 9.72498L-0.333984 9.47498ZM4.09935 9.47498L4.34935 9.72498L4.09935 9.47498Z" fill="#CC3333"/>
<path d="M4.34961 9.47498L4.59961 9.72498L4.34961 9.47498Z" fill="#FFCCCC"/>
<path d="M5.33398 9.47498L5.58398 9.72498L5.33398 9.47498Z" fill="#CCCCFF"/>
<path d="M5.58353 9.47498L5.8252 9.72498L5.5752 9.47498H5.58353Z" fill="#99CCCC"/>
<path d="M-0.900391 9.80005L-0.733724 9.88338L-0.900391 9.80005ZM4.75794 9.80005L4.92461 9.88338L4.75794 9.80005Z" fill="#CC3333"/>
<path d="M5.08398 9.71667L5.33398 9.96667L5.08398 9.71667Z" fill="#FFCCCC"/>
<path d="M6.06641 9.71667L6.31641 9.96667L6.06641 9.71667Z" fill="#CCFFFF"/>
<path d="M6.31641 9.71667L6.56641 9.96667L6.31641 9.71667Z" fill="#99CCCC"/>
<path d="M6.55794 9.71667L6.80794 9.96667L6.55794 9.71667ZM-3.52539 9.96667L-3.27539 10.2167L-3.52539 9.96667Z" fill="#6699CC"/>
<path d="M-1.6416 10.05L-1.47493 10.1334L-1.6416 10.05ZM5.49173 10.05L5.6584 10.1334L5.49173 10.05Z" fill="#CC3333"/>
<path d="M5.8252 9.96667L6.0752 10.2167L5.8252 9.96667Z" fill="#FFCCCC"/>
<path d="M6.80859 9.96667L7.05859 10.2167L6.80859 9.96667Z" fill="#CCFFFF"/>
<path d="M7.0498 9.96667L7.2998 10.2167L7.0498 9.96667Z" fill="#99CCCC"/>
<path d="M7.30007 9.96667L7.55007 10.2167L7.30007 9.96667ZM-4.2666 10.2167L-4.0166 10.4583L-4.2666 10.2083V10.2167Z" fill="#6699CC"/>
<path d="M-2.375 10.2916L-2.20833 10.375L-2.375 10.2916ZM6.23333 10.2916L6.4 10.375L6.23333 10.2916Z" fill="#CC3333"/>
<path d="M6.55859 10.2084L6.80859 10.4584L6.55859 10.2084Z" fill="#FFCCCC"/>
<path d="M7.79102 10.2084L8.04102 10.4584L7.79102 10.2084Z" fill="#99CCFF"/>
<path d="M8.0332 10.2084L8.2832 10.4584L8.0332 10.2084Z" fill="#6699CC"/>
<path d="M-3.76706 10.4584L-3.52539 10.7084L-3.77539 10.4584H-3.76706ZM7.54961 10.4584L7.79128 10.7084L7.54128 10.4584H7.54961Z" fill="#FFCCCC"/>
<path d="M8.52539 10.4584L8.77539 10.7084L8.52539 10.4584Z" fill="#99CCFF"/>
<path d="M8.77448 10.4584L9.02448 10.7084L8.77448 10.4584ZM-5.74219 10.7084L-5.49219 10.95L-5.74219 10.7V10.7084Z" fill="#66CCCC"/>
<path d="M-4.09961 10.7833L-3.93294 10.8667L-4.09961 10.7833ZM7.95872 10.7833L8.12539 10.8667L7.95872 10.7833Z" fill="#CC3333"/>
<path d="M8.2832 10.7L8.5332 10.95L8.2832 10.7Z" fill="#FFCCCC"/>
<path d="M9.2666 10.7L9.5166 10.95L9.2666 10.7Z" fill="#CCCCFF"/>
<path d="M9.5166 10.7L9.7666 10.95L9.5166 10.7Z" fill="#66CCCC"/>
<path d="M-5.25 10.95L-5 11.2L-5.25 10.95ZM9.025 10.95L9.275 11.2L9.025 10.95Z" fill="#FFCCCC"/>
<path d="M10 10.95L10.25 11.2L10 10.95Z" fill="#CCCCFF"/>
<path d="M10.2499 10.95L10.4999 11.2L10.2499 10.95ZM-6.9668 11.2L-6.7168 11.4416L-6.9668 11.1916V11.2Z" fill="#99CCCC"/>
<path d="M-5.74219 11.1917L-5.49219 11.4417L-5.74219 11.1917ZM9.50781 11.1917L9.75781 11.4417L9.50781 11.1917Z" fill="#CC6666"/>
<path d="M10.7504 11.1917L10.9921 11.4417L10.7421 11.1917M-6.47461 11.4417L-6.22461 11.6917L-6.47461 11.4417Z" fill="#99CCCC"/>
<path d="M-5.25 11.4417L-5 11.6917L-5.25 11.4417ZM9.025 11.4417L9.275 11.6917L9.025 11.4417Z" fill="#FFCCCC"/>
<path d="M10 11.4417L10.25 11.6917L10 11.4417Z" fill="#CCCCFF"/>
<path d="M10.25 11.4417L10.5 11.6917L10.25 11.4417Z" fill="#99CCCC"/>
<path d="M-4.09961 11.7667L-3.93294 11.8501L-4.09961 11.7667ZM7.95872 11.7667L8.12539 11.8501L7.95872 11.7667Z" fill="#CC3333"/>
<path d="M8.2832 11.6917L8.5332 11.9333L8.2832 11.6833V11.6917Z" fill="#FFCCCC"/>
<path d="M9.2666 11.6917L9.5166 11.9333L9.2666 11.6833V11.6917Z" fill="#CCCCFF"/>
<path d="M9.51667 11.6917L9.76667 11.9333L9.51667 11.6833M-5 11.9333L-4.75 12.1833L-5 11.9333Z" fill="#66CCCC"/>
<path d="M-3.76706 11.9333L-3.52539 12.1833L-3.77539 11.9333H-3.76706ZM7.54961 11.9333L7.79128 12.1833L7.54128 11.9333H7.54961Z" fill="#FFCCCC"/>
<path d="M8.52539 11.9333L8.77539 12.1833L8.52539 11.9333Z" fill="#99CCFF"/>
<path d="M8.77539 11.9333L9.02539 12.1833L8.77539 11.9333Z" fill="#66CCCC"/>
<path d="M-2.375 12.2583L-2.20833 12.3416L-2.375 12.2583ZM6.23333 12.2583L6.4 12.3416L6.23333 12.2583Z" fill="#CC3333"/>
<path d="M6.55859 12.1834L6.80859 12.425L6.55859 12.175V12.1834Z" fill="#FFCCCC"/>
<path d="M7.79102 12.1834L8.04102 12.425L7.79102 12.175V12.1834Z" fill="#99CCFF"/>
<path d="M8.03294 12.1834L8.28294 12.425L8.03294 12.175M-3.52539 12.425L-3.27539 12.675L-3.52539 12.425Z" fill="#6699CC"/>
<path d="M-1.6416 12.5L-1.47493 12.5833L-1.6416 12.5ZM5.49173 12.5L5.6584 12.5833L5.49173 12.5Z" fill="#CC3333"/>
<path d="M5.8252 12.425L6.0752 12.675L5.8252 12.425Z" fill="#FFCCCC"/>
<path d="M6.80859 12.425L7.05859 12.675L6.80859 12.425Z" fill="#CCFFFF"/>
<path d="M7.0498 12.425L7.2998 12.675L7.0498 12.425Z" fill="#99CCCC"/>
<path d="M7.30065 12.425L7.55065 12.675L7.30065 12.425ZM-2.78268 12.675L-2.54102 12.9167L-2.79102 12.6667L-2.78268 12.675Z" fill="#6699CC"/>
<path d="M-0.900391 12.75L-0.733724 12.8333L-0.900391 12.75ZM4.75794 12.75L4.92461 12.8333L4.75794 12.75Z" fill="#CC3333"/>
<path d="M5.08398 12.6666L5.33398 12.9166L5.08398 12.6666Z" fill="#FFCCCC"/>
<path d="M6.06641 12.6666L6.31641 12.9166L6.06641 12.6666Z" fill="#CCFFFF"/>
<path d="M6.31641 12.6666L6.56641 12.9166L6.31641 12.6666Z" fill="#99CCCC"/>
<path d="M6.55859 12.6666L6.80859 12.9166L6.55859 12.6666Z" fill="#6699CC"/>
<path d="M-0.333984 12.9166L-0.0839844 13.1666L-0.333984 12.9166ZM4.09935 12.9166L4.34935 13.1666L4.09935 12.9166Z" fill="#CC3333"/>
<path d="M4.34961 12.9166L4.59961 13.1666L4.34961 12.9166Z" fill="#FFCCCC"/>
<path d="M5.33398 12.9166L5.58398 13.1666L5.33398 12.9166Z" fill="#CCCCFF"/>
<path d="M5.58359 12.9166L5.82526 13.1666L5.57526 12.9166M-1.06641 13.1666L-0.816406 13.4166L-1.06641 13.1666Z" fill="#99CCCC"/>
<path d="M-0.816406 13.1666L-0.566406 13.4166L-0.816406 13.1666ZM4.60026 13.1666L4.84193 13.4166L4.59193 13.1666H4.60026Z" fill="#CCCCFF"/>
<path d="M4.83268 13.1666L5.08268 13.4166L4.83268 13.1666ZM-0.333984 13.4166L-0.0839844 13.6583L-0.333984 13.4083V13.4166Z" fill="#99CCCC"/>
<path d="M0.166016 13.4167L0.416016 13.6583L0.166016 13.4083M3.60768 13.4083L3.85768 13.6583L3.60768 13.4083Z" fill="#CC3333"/>
<path d="M4.09961 13.4167L4.34961 13.6583L4.09961 13.4083V13.4167Z" fill="#99CCCC"/>
<path d="M0.166016 13.6583L0.416016 13.9083L0.166016 13.6583ZM3.60768 13.6583L3.85768 13.9083L3.60768 13.6583Z" fill="#FFCCCC"/>
<path d="M-0.0839844 13.9L0.166016 14.15L-0.0839844 13.9Z" fill="#CCCCFF"/>
<path d="M0.500521 14.0667L0.575521 14.2333L0.492188 14.0667M3.44219 14.0667L3.52552 14.2333L3.44219 14.0667Z" fill="#CC3333"/>
<path d="M3.8584 13.9L4.1084 14.15L3.8584 13.9Z" fill="#CCCCFF"/>
<path d="M-0.0839844 14.15L0.166016 14.4L-0.0839844 14.15ZM3.85768 14.15L4.10768 14.4L3.85768 14.15Z" fill="#99CCCC"/>
<path d="M0.416536 14.3917L0.658203 14.6417L0.408203 14.3917M3.36654 14.3917L3.61654 14.6417L3.36654 14.3917Z" fill="#FFCCCC"/>
<path d="M0.166016 14.6417L0.416016 14.8917L0.166016 14.6417Z" fill="#CCCCFF"/>
<path d="M0.742188 14.8L0.825521 14.9667L0.742188 14.8ZM3.20052 14.8L3.28385 14.9667L3.20052 14.8Z" fill="#CC3333"/>
<path d="M3.6084 14.6417L3.8584 14.8917L3.6084 14.6417Z" fill="#CCCCFF"/>
<path d="M0.166016 14.8833L0.416016 15.1333L0.166016 14.8833ZM3.60768 14.8833L3.85768 15.1333L3.60768 14.8833Z" fill="#99CCCC"/>
<path d="M0.658203 15.1333L0.908202 15.3833L0.658203 15.1333ZM3.11654 15.1333L3.36654 15.3833L3.11654 15.1333Z" fill="#FFCCCC"/>
<path d="M0.416536 15.375L0.658203 15.625L0.408203 15.375H0.416536Z" fill="#CCFFFF"/>
<path d="M0.983398 15.5416L1.06673 15.7083L0.983398 15.5416ZM2.95006 15.5416L3.0334 15.7083L2.95006 15.5416Z" fill="#CC3333"/>
<path d="M3.36719 15.375L3.61719 15.625L3.36719 15.375Z" fill="#CCFFFF"/>
<path d="M0.416536 15.625L0.658203 15.875L0.408203 15.625M3.36654 15.625L3.61654 15.875L3.36654 15.625Z" fill="#99CCCC"/>
<path d="M0.416536 15.8667L0.658203 16.1167L0.408203 15.8667H0.416536Z" fill="#6699CC"/>
<path d="M0.900391 15.8667L1.15039 16.1167L0.900391 15.8667ZM2.87539 15.8667L3.12539 16.1167L2.87539 15.8667Z" fill="#FFCCCC"/>
<path d="M3.36719 15.8667L3.61719 16.1167L3.36719 15.8667Z" fill="#6699CC"/>
<path d="M0.658203 16.1167L0.908202 16.3667L0.658203 16.1167ZM3.11654 16.1167L3.36654 16.3667L3.11654 16.1167Z" fill="#CCFFFF"/>
<path d="M0.658203 16.3583L0.908202 16.6083L0.658203 16.3583ZM3.11654 16.3583L3.36654 16.6083L3.11654 16.3583Z" fill="#99CCCC"/>
<path d="M0.658203 16.6083L0.908202 16.8583L0.658203 16.6083ZM3.11654 16.6083L3.36654 16.8583L3.11654 16.6083Z" fill="#6699CC"/>
<path d="M1.15039 16.85L1.40039 17.1L1.15039 16.85ZM2.62539 16.85L2.87539 17.1L2.62539 16.85Z" fill="#FFCCCC"/>
<path d="M0.900391 17.1L1.15039 17.35L0.900391 17.1Z" fill="#99CCFF"/>
<path d="M1.47461 17.2667L1.55794 17.4334L1.47461 17.2667ZM2.45794 17.2667L2.54128 17.4334L2.45794 17.2667Z" fill="#CC3333"/>
<path d="M2.875 17.1L3.125 17.35L2.875 17.1Z" fill="#99CCFF"/>
<path d="M0.900391 17.35L1.15039 17.5917L0.900391 17.3417M2.87539 17.3417L3.12539 17.5917L2.87539 17.3417Z" fill="#6699CC"/>
<path d="M1.3916 17.5917L1.6416 17.8417L1.3916 17.5917ZM2.38327 17.5917L2.62494 17.8417L2.37494 17.5917H2.38327Z" fill="#FFCCCC"/>
<path d="M1.15039 17.8334L1.40039 18.0834L1.15039 17.8334ZM2.62539 17.8334L2.87539 18.0834L2.62539 17.8334Z" fill="#99CCFF"/>
<path d="M1.15039 18.0834L1.40039 18.3334L1.15039 18.0834ZM2.62539 18.0834L2.87539 18.3334L2.62539 18.0834Z" fill="#66CCCC"/>
<path d="M1.6416 18.3334L1.8916 18.5834L1.6416 18.3334ZM2.13327 18.3334L2.38327 18.5834L2.13327 18.3334Z" fill="#FFCCCC"/>
<path d="M1.3916 18.575L1.6416 18.825L1.3916 18.575ZM2.38327 18.575L2.62494 18.825L2.37494 18.575H2.38327Z" fill="#CCCCFF"/>
<path d="M1.3916 18.825L1.6416 19.075L1.3916 18.825Z" fill="#66CCCC"/>
<path d="M1.89115 18.825L2.13281 19.075L1.88281 18.825H1.89115Z" fill="#CC6666"/>
<path d="M2.38333 18.825L2.625 19.075L2.375 18.825H2.38333Z" fill="#66CCCC"/>
<path d="M1.6416 19.3167L1.8916 19.5667L1.6416 19.3167ZM2.13327 19.3167L2.38327 19.5667L2.13327 19.3167Z" fill="#CCCCFF"/>
<path d="M1.6416 19.5583L1.8916 19.8083L1.6416 19.5583ZM2.13327 19.5583L2.38327 19.8083L2.13327 19.5583ZM1.88327 20.0583L2.13327 20.3L1.88327 20.05V20.0583Z" fill="#99CCCC"/>
</g>
<defs>
<clipPath id="clip0_8424_43383">
<rect width="40" height="40" rx="20" fill="white"/>
</clipPath>
</defs>
</svg>
