<svg width="56" height="56" viewBox="0 0 56 56" fill="none" xmlns="http://www.w3.org/2000/svg">
<g clip-path="url(#clip0_3318_23784)">
<path d="M56 28C56 43.4639 43.4639 56 28 56C12.5361 56 0 43.4639 0 28C0 28.0066 28 0.00317187 28 0C43.4639 0 56 12.5361 56 28Z" fill="#0052B4"/>
<path d="M27.9985 0C27.9974 0 27.9962 0.001 27.9951 0.001L27.9985 0Z" fill="#F0F0F0"/>
<path d="M27.9248 28H27.9997C27.9997 27.9746 27.9997 27.9503 27.9997 27.925C27.9748 27.9501 27.9499 27.975 27.9248 28Z" fill="#F0F0F0"/>
<path d="M28 14.6088C28 9.68199 28 6.45357 28 0.00012207H27.9953C12.5335 0.00263769 0 12.5376 0 28H14.6087V19.7737L22.835 28H27.9252C27.9502 27.9751 27.9752 27.9501 28.0001 27.9251C28.0001 26.0387 28.0001 24.3555 28.0001 22.8352L19.7737 14.6088H28Z" fill="#F0F0F0"/>
<path d="M14.1659 3.6521C9.78664 6.14574 6.14599 9.7864 3.65234 14.1657V28H10.9567V10.9566V10.9565H28.0002C28.0002 8.65273 28.0002 6.45801 28.0002 3.6521H14.1659Z" fill="#D80027"/>
<path d="M28.0006 24.5567L18.0526 14.6088H14.6094C14.6094 14.6087 14.6094 14.6088 14.6094 14.6088L28.0005 27.9999H28.0006C28.0006 27.9999 28.0006 25.6259 28.0006 24.5567Z" fill="#D80027"/>
<path d="M16.887 32.8695L18.4237 36.0827L21.8939 35.2807L20.3399 38.4856L23.1305 40.6986L19.6559 41.4817L19.6657 45.0434L16.887 42.8151L14.1084 45.0434L14.1182 41.4817L10.6436 40.6986L13.4343 38.4856L11.88 35.2807L15.3504 36.0827L16.887 32.8695Z" fill="#F0F0F0"/>
<path d="M41.9215 38.9565L42.6899 40.5632L44.425 40.1621L43.6479 41.7645L45.0433 42.8711L43.306 43.2626L43.3108 45.0435L41.9215 43.9293L40.5322 45.0435L40.537 43.2626L38.7998 42.8711L40.1951 41.7645L39.4181 40.1621L41.1531 40.5632L41.9215 38.9565Z" fill="#F0F0F0"/>
<path d="M34.7741 21.913L35.5424 23.5197L37.2775 23.1185L36.5005 24.7209L37.8958 25.8275L36.1586 26.2191L36.1633 27.9999L34.7741 26.8857L33.3848 27.9999L33.3895 26.2191L31.6523 25.8275L33.0476 24.7209L32.2706 23.1185L34.0058 23.5197L34.7741 21.913Z" fill="#F0F0F0"/>
<path d="M41.9215 12.1738L42.6899 13.7805L44.425 13.3795L43.648 14.9819L45.0432 16.0884L43.306 16.48L43.3108 18.2609L41.9215 17.1467L40.5322 18.2609L40.537 16.48L38.7998 16.0884L40.195 14.9819L39.4181 13.3795L41.1531 13.7805L41.9215 12.1738Z" fill="#F0F0F0"/>
<path d="M48.1657 19.4783L48.934 21.085L50.6691 20.6838L49.8921 22.2863L51.2874 23.3928L49.5501 23.7845L49.5549 25.5652L48.1657 24.4511L46.7764 25.5652L46.7812 23.7845L45.0439 23.3928L46.4392 22.2863L45.6622 20.6838L47.3973 21.085L48.1657 19.4783Z" fill="#F0F0F0"/>
<path d="M43.7008 28L44.3051 29.86H46.2609L44.6786 31.0097L45.2831 32.8696L43.7008 31.7201L42.1186 32.8696L42.7229 31.0097L41.1406 29.86H43.0964L43.7008 28Z" fill="#F0F0F0"/>
</g>
<defs>
<clipPath id="clip0_3318_23784">
<rect width="56" height="56" fill="white"/>
</clipPath>
</defs>
</svg>
