<svg width="40" height="40" viewBox="0 0 40 40" fill="none" xmlns="http://www.w3.org/2000/svg">
<g clip-path="url(#clip0_8424_43324)">
<path d="M-7 0H46.3333V40H-7V0Z" fill="#3F9C35"/>
<path d="M-7 0H46.3333V26.6667H-7V0Z" fill="#ED2939"/>
<path d="M-7 0H46.3333V13.3333H-7V0Z" fill="#00B9E4"/>
<path d="M18.3252 26C21.6389 26 24.3252 23.3137 24.3252 20C24.3252 16.6863 21.6389 14 18.3252 14C15.0115 14 12.3252 16.6863 12.3252 20C12.3252 23.3137 15.0115 26 18.3252 26Z" fill="white"/>
<path d="M19.6582 25C22.4196 25 24.6582 22.7614 24.6582 20C24.6582 17.2386 22.4196 15 19.6582 15C16.8968 15 14.6582 17.2386 14.6582 20C14.6582 22.7614 16.8968 25 19.6582 25Z" fill="#ED2939"/>
<path d="M24.9915 16.6666L25.6332 18.4583L27.3499 17.6416L26.5332 19.3666L28.3249 20L26.5332 20.6416L27.3499 22.3583L25.6332 21.5416L24.9915 23.3333L24.3499 21.5416L22.6332 22.3583L23.4499 20.6416L21.6582 20L23.4499 19.3583L22.6332 17.6416L24.3499 18.4583L24.9915 16.6666Z" fill="white"/>
</g>
<defs>
<clipPath id="clip0_8424_43324">
<rect width="40" height="40" rx="20" fill="white"/>
</clipPath>
</defs>
</svg>
