<svg width="40" height="40" viewBox="0 0 40 40" fill="none" xmlns="http://www.w3.org/2000/svg">
<g clip-path="url(#clip0_8424_43323)">
<path d="M-7 0H46.3333V40H-7V0Z" fill="#00267F"/>
<path d="M10.7754 0H28.5587V40H10.7754V0Z" fill="#FFC726"/>
<path d="M19.6502 11.2916C19.0669 12.875 18.4835 14.5083 17.2169 15.7666C17.6085 15.6333 18.3002 15.5166 18.7335 15.5333V22.1583L16.8669 22.4333C16.8002 22.4333 16.7835 22.325 16.7835 22.1833C16.6002 20.125 16.1169 18.3916 15.5502 16.6C15.5085 16.3583 14.8002 15.4333 15.3502 15.6C15.4169 15.6 16.1419 15.9 16.0335 15.7583C14.9865 14.7023 13.6337 14.0025 12.1669 13.7583C12.0419 13.7333 11.9669 13.8 12.0835 13.9416C13.9502 16.825 15.5252 20.2333 15.5085 24.275C16.2419 24.275 18.0085 23.8416 18.7335 23.8416V28.5166H19.6669L19.8752 15.4583L19.6502 11.2916Z" fill="black"/>
</g>
<defs>
<clipPath id="clip0_8424_43323">
<rect width="40" height="40" rx="20" fill="white"/>
</clipPath>
</defs>
</svg>
