<svg width="40" height="40" viewBox="0 0 40 40" fill="none" xmlns="http://www.w3.org/2000/svg">
<g clip-path="url(#clip0_8424_43358)">
<path fill-rule="evenodd" clip-rule="evenodd" d="M-2 0H78.0085V26.5703H-2V0Z" fill="#B20000"/>
<path fill-rule="evenodd" clip-rule="evenodd" d="M-2 26.5703H78.0085V40H-2V26.5703Z" fill="#429F00"/>
<path fill-rule="evenodd" clip-rule="evenodd" d="M-2 0H6.86032V40H-2V0Z" fill="white"/>
<path fill-rule="evenodd" clip-rule="evenodd" d="M-1.57812 0.679687H-1.1562V1.35937H-1.57812V0.679687ZM-0.312365 0.679687H0.953395V1.35937H-0.312365V0.679687ZM0.109555 0H0.531475V0.679687H0.109555V0ZM2.21916 0H2.64108V0.679687H2.21916V0ZM3.90684 0.679687H5.1726V1.35937H3.90684V0.679687ZM4.32876 0H4.75068V0.679687H4.32876V0ZM-0.734285 1.35937H0.109555V2.03125H-0.734285V1.35937ZM0.531475 1.35937H1.37532V2.03125H0.531475V1.35937ZM3.48491 1.35937H4.32876V2.03125H3.48491V1.35937ZM4.75068 1.35937H5.59451V2.03125H4.75068V1.35937ZM-1.1562 2.03125H-0.312365V2.71094H-1.1562V2.03125ZM0.953395 2.03125H1.79724V2.71094H0.953395V2.03125ZM3.063 2.03125H3.90684V2.71094H3.063V2.03125ZM5.1726 2.03125H6.01644V2.71094H5.1726V2.03125ZM6.01644 0.679687H6.43836V1.35937H6.01644V0.679687ZM-1.57812 2.71094H-0.734285V3.39062H-1.57812V2.71094ZM1.37532 2.71094H2.21916V3.39062H1.37532V2.71094ZM5.59451 2.71094H6.43836V3.39062H5.59451V2.71094ZM-1.1562 4.74219H-0.312365V5.42188H-1.1562V4.74219ZM-0.734285 5.42188H0.109555V6.10156H-0.734285V5.42188ZM0.953395 4.75H1.79724V5.42188H0.953395V4.75ZM0.531475 5.42188H1.37532V6.10156H0.531475V5.42188ZM-0.312365 6.10156H0.953395V6.78125H-0.312365V6.10156Z" fill="#B20000"/>
<path fill-rule="evenodd" clip-rule="evenodd" d="M0.1096 6.78125H0.53152V7.46094H0.1096V6.78125ZM3.06304 4.75H3.90688V5.42188H3.06304V4.75ZM3.48496 5.42188H4.3288V6.10156H3.48496V5.42188ZM5.17264 4.75H6.01648V5.42188H5.17264V4.75ZM4.75072 5.42188H5.59456V6.10156H4.75072V5.42188ZM3.90688 6.10156H5.17264V6.78125H3.90688V6.10156ZM4.3288 6.78125H4.75072V7.46094H4.3288V6.78125ZM2.2192 6.09375H2.64112V6.77344H2.2192V6.09375ZM-2 6.09375H-1.57808V6.77344H-2V6.09375ZM6.4384 6.09375H6.86032V6.77344H6.4384V6.09375ZM0.1096 9.48438H0.53152V10.1641H0.1096V9.48438ZM-0.31232 10.1719H0.95344V10.8438H-0.31232V10.1719ZM-0.73424 10.8438H1.37536V11.5234H-0.73424V10.8438ZM4.3288 9.49219H4.75072V10.1719H4.3288V9.49219ZM3.90688 10.1719H5.17264V10.8438H3.90688V10.1719ZM3.48496 10.8438H5.59456V11.5234H3.48496V10.8438ZM3.90688 14.2344H6.01648V14.9141H3.90688V14.2344ZM3.06304 11.5234H6.01648V12.2031H3.06304V11.5234ZM-1.15616 11.5234H1.79728V12.2031H-1.15616V11.5234ZM-0.73424 14.9141H0.53152V15.5938H-0.73424V14.9141ZM-1.15616 14.2344H0.95344V14.9141H-1.15616V14.2344ZM4.75072 12.8906H6.86032V13.5703H4.75072V12.8906ZM4.3288 14.9219H5.59456V15.6016H4.3288V14.9219Z" fill="#B20000"/>
<path fill-rule="evenodd" clip-rule="evenodd" d="M-0.31232 15.5938H0.1096V16.2734H-0.31232V15.5938ZM4.75072 15.5938H5.17264V16.2734H4.75072V15.5938ZM-2 12.8828H0.1096V13.5625H-2V12.8828ZM1.79728 14.2344H3.06304V14.9141H1.79728V14.2344ZM2.2192 14.9219H2.64112V15.6016H2.2192V14.9219ZM0.95344 12.8906H3.90688V13.5703H0.95344V12.8906ZM2.64112 2.71094H3.48496V3.39063H2.64112V2.71094ZM1.79728 3.39063H3.06304V4.07031H1.79728V3.39063ZM1.37536 4.07031H2.2192V4.74219H1.37536V4.07031ZM2.64112 4.07031H3.48496V4.74219H2.64112V4.07031ZM-2 3.39063H-1.15616V4.07031H-2V3.39063ZM-1.57808 4.07031H-0.73424V4.74219H-1.57808V4.07031ZM6.01648 3.39063H6.86032V4.0625H6.01648V3.39063ZM5.59456 4.0625H6.4384V4.73438H5.59456V4.0625ZM-2 10.1562H-1.57808V10.8359H-2V10.1562ZM6.4384 10.1562H6.86032V10.8359H6.4384V10.1562ZM1.79728 15.5859H3.06304V16.2656H1.79728V15.5859ZM1.37536 16.2656H2.2192V16.9375H1.37536V16.2656ZM2.64112 16.2656H3.48496V16.9375H2.64112V16.2656ZM0.95344 16.9375H1.79728V17.6172H0.95344V16.9375ZM3.06304 16.9375H3.90688V17.6172H3.06304V16.9375ZM0.53152 17.6172H1.37536V18.2969H0.53152V17.6172ZM3.48496 17.6172H4.3288V18.2969H3.48496V17.6172ZM0.1096 18.3047H0.95344V18.9844H0.1096V18.3047ZM3.90688 18.3047H4.75072V18.9844H3.90688V18.3047ZM-0.73424 18.9844H0.53152V19.6641H-0.73424V18.9844ZM4.3288 18.9844H5.59456V19.6641H4.3288V18.9844ZM5.17264 18.3047H6.01648V18.9844H5.17264V18.3047ZM5.59456 17.625H6.4384V18.3047H5.59456V17.625ZM6.01648 16.9453H6.86032V17.625H6.01648V16.9453ZM-1.15616 18.3047H-0.31232V18.9844H-1.15616V18.3047ZM-1.57808 17.625H-0.73424V18.3047H-1.57808V17.625ZM-2 16.9531H-1.15616V17.6328H-2V16.9531ZM-0.31232 19.6719H0.1096V20.3438H-0.31232V19.6719ZM4.75072 19.6719H5.17264V20.3438H4.75072V19.6719ZM2.2192 17.6406H2.64112V18.3125H2.2192V17.6406ZM0.95344 19.6719H1.37536V20.3438H0.95344V19.6719ZM3.48496 19.6719H3.90688V20.3438H3.48496V19.6719ZM2.2192 19.6719H2.64112V20.3438H2.2192V19.6719ZM-2 19.6719H-1.57808V20.3438H-2L-2 19.6719ZM6.4384 19.6719H6.86032V20.3438H6.4384V19.6719ZM2.2192 10.1719H2.64112V10.8438H2.2192V10.1719ZM0.1096 3.39063H0.53152V4.07031H0.1096V3.39063ZM4.3288 3.39063H4.75072V4.07031H4.3288V3.39063ZM1.79728 8.13281H3.06304V8.8125H1.79728V8.13281ZM0.95344 8.8125H2.2192V9.49219H0.95344V8.8125ZM1.37536 9.49219H1.79728V10.1719H1.37536V9.49219ZM0.53152 8.13281H1.37536V8.8125H0.53152V8.13281ZM0.95344 7.46094H2.2192V8.13281H0.95344V7.46094ZM1.37536 6.78125H1.79728V7.46094H1.37536V6.78125ZM2.64112 7.46094H3.90688V8.13281H2.64112V7.46094ZM3.06304 6.78125H3.48496V7.46094H3.06304V6.78125ZM3.48496 8.13281H4.3288V8.8125H3.48496V8.13281ZM2.64112 8.8125H3.90688V9.49219H2.64112V8.8125ZM3.06304 9.49219H3.48496V10.1719H3.06304V9.49219ZM4.75072 8.13281H5.59456V8.8125H4.75072V8.13281ZM5.17264 7.46094H6.4384V8.13281H5.17264V7.46094ZM6.01648 8.13281H6.86032V8.8125H6.01648V8.13281ZM5.17264 8.8125H6.4384V9.49219H5.17264V8.8125ZM5.59456 9.49219H6.01648V10.1719H5.59456V9.49219ZM5.59456 6.78125H6.01648V7.46094H5.59456V6.78125ZM-2 8.125H-1.15616V8.80469H-2V8.125ZM-1.57808 7.45312H-0.31232V8.125H-1.57808V7.45312ZM-0.73424 8.125H0.1096V8.80469H-0.73424V8.125ZM-1.57808 8.80469H-0.31232V9.48438H-1.57808V8.80469Z" fill="#B20000"/>
<path fill-rule="evenodd" clip-rule="evenodd" d="M-1.15616 9.49219H-0.73424V10.1719H-1.15616V9.49219ZM-1.15616 6.78125H-0.73424V7.46094H-1.15616V6.78125ZM-1.57808 12.2031H0.1096V12.8828H-1.57808V12.2031ZM0.53152 12.2031H2.2192V12.8828H0.53152V12.2031ZM2.64112 12.2031H4.3288V12.8828H2.64112V12.2031ZM4.75072 12.2031H6.4384V12.8828H4.75072V12.2031ZM1.37536 13.5625H3.48496V14.2344H1.37536V13.5625ZM-1.57808 13.5625H0.53152V14.2344H-1.57808V13.5625ZM4.3288 13.5625H6.4384V14.2344H4.3288V13.5625ZM6.4384 16.2734H6.86032V16.9453H6.4384V16.2734ZM-2 16.2734H-1.57808V16.9453H-2V16.2734ZM-1.57808 39.3203H-1.15616V38.6484H-1.57808V39.3203ZM-0.31232 39.3203H0.95344V38.6484H-0.31232V39.3203ZM0.1096 40H0.53152V39.3203H0.1096V40ZM2.2192 40H2.64112V39.3203H2.2192V40ZM3.90688 39.3203H5.17264V38.6406H3.90688V39.3203ZM4.3288 40H4.75072V39.3203H4.3288V40ZM-0.73424 38.6406H0.1096V37.9688H-0.73424V38.6406ZM0.53152 38.6406H1.37536V37.9688H0.53152V38.6406ZM3.48496 38.6406H4.3288V37.9688H3.48496V38.6406ZM4.75072 38.6406H5.59456V37.9688H4.75072V38.6406ZM0.95344 37.9688H1.79728V37.2891H0.95344V37.9688ZM3.06304 37.9688H3.90688V37.2891H3.06304V37.9688ZM5.17264 37.9688H6.01648V37.2891H5.17264V37.9688ZM6.01648 39.3203H6.4384V38.6406H6.01648V39.3203ZM-1.57808 37.2891H-0.73424V36.6094H-1.57808V37.2891ZM1.37536 37.2891H2.2192V36.6094H1.37536V37.2891ZM5.59456 37.2891H6.4384V36.6094H5.59456V37.2891ZM-1.15616 35.2578H-0.31232V34.5781H-1.15616V35.2578ZM-0.73424 34.5781H0.1096V33.8984H-0.73424V34.5781ZM0.95344 35.2578H1.79728V34.5781H0.95344V35.2578ZM0.53152 34.5781H1.37536V33.8984H0.53152V34.5781ZM-0.31232 33.8984H0.95344V33.2188H-0.31232V33.8984ZM0.1096 33.2188H0.53152V32.5469H0.1096V33.2188ZM3.06304 35.25H3.90688V34.5781H3.06304V35.25ZM3.48496 34.5781H4.3288V33.8984H3.48496V34.5781ZM5.17264 35.2578H6.01648V34.5781H5.17264V35.2578ZM4.75072 34.5781H5.59456V33.8984H4.75072V34.5781ZM3.90688 33.8984H5.17264V33.2188H3.90688V33.8984ZM4.3288 33.2188H4.75072V32.5469H4.3288V33.2188ZM2.2192 33.9062H2.64112V33.2266H2.2192V33.9062ZM-2 33.9062H-1.57808V33.2266H-2V33.9062ZM6.4384 33.9062H6.86032V33.2266H6.4384V33.9062ZM0.1096 30.5156H0.53152V29.8359H0.1096V30.5156ZM-0.31232 29.8281H0.95344V29.1563H-0.31232V29.8281ZM-0.73424 29.1563H1.37536V28.4766H-0.73424V29.1563ZM4.3288 30.5078H4.75072V29.8281H4.3288V30.5078Z" fill="#B20000"/>
<path fill-rule="evenodd" clip-rule="evenodd" d="M3.90688 29.8281H5.17264V29.1563H3.90688V29.8281ZM3.48496 29.1563H5.59456V28.4766H3.48496V29.1563ZM3.90688 25.7656H6.01648V25.0781H3.90688V25.7656ZM3.06304 28.4766H6.01648V27.7969H3.06304V28.4766ZM-1.15616 28.4766H1.79728V27.7969H-1.15616V28.4766ZM-0.73424 25.0859H0.53152V24.4062H-0.73424V25.0859ZM-1.15616 25.7656H0.95344V25.0781H-1.15616V25.7656ZM4.75072 27.1094H6.86032V26.4297H4.75072V27.1094ZM4.3288 25.0781H5.59456V24.3984H4.3288V25.0781ZM-2 27.1094H0.1096V26.4297H-2V27.1094ZM1.79728 25.7578H3.06304V25.0781H1.79728V25.7578ZM2.2192 25.0781H2.64112V24.3984H2.2192V25.0781ZM0.95344 27.1094H3.90688V26.4297H0.95344V27.1094ZM2.64112 37.2812H3.48496V36.6016H2.64112V37.2812ZM1.79728 36.6016H3.06304V35.9375H1.79728V36.6016ZM1.37536 35.9219H2.2192V35.2422H1.37536V35.9219ZM2.64112 35.9219H3.48496V35.2422H2.64112V35.9219ZM-2 36.6094H-1.15616V35.9375H-2V36.6094ZM-1.57808 35.9297H-0.73424V35.2578H-1.57808V35.9297ZM6.01648 36.6094H6.86032V35.9375H6.01648V36.6094ZM5.59456 35.9297H6.4384V35.2578H5.59456V35.9297ZM-2 29.8438H-1.57808V29.1641H-2V29.8438ZM6.4384 29.8438H6.86032V29.1641H6.4384V29.8438ZM1.37536 23.7344H2.2192V23.0625H1.37536V23.7344ZM2.64112 23.7344H3.48496V23.0625H2.64112V23.7344ZM0.95344 23.0625H1.79728V22.3828H0.95344V23.0625ZM3.06304 23.0625H3.90688V22.3828H3.06304V23.0625ZM0.53152 22.3828H1.37536V21.7031H0.53152V22.3828ZM3.48496 22.3828H4.3288V21.7031H3.48496V22.3828ZM0.1096 21.6953H0.95344V21.0156H0.1096V21.6953ZM3.90688 21.6953H4.75072V21.0156H3.90688V21.6953ZM-0.73424 21.0156H0.53152V20.3359H-0.73424V21.0156ZM4.3288 21.0156H5.59456V20.3359H4.3288V21.0156ZM5.17264 21.6953H6.01648V21.0156H5.17264V21.6953ZM5.59456 22.375H6.4384V21.6953H5.59456V22.375ZM6.01648 23.0547H6.86032V22.375H6.01648V23.0547ZM-1.15616 21.6953H-0.31232V21.0156H-1.15616V21.6953ZM-1.57808 22.375H-0.73424V21.6953H-1.57808V22.375ZM-2 23.0469H-1.15616V22.3672H-2V23.0469ZM-0.31232 20.3281H0.1096V19.6562H-0.31232V20.3281ZM2.2192 22.3594H2.64112V21.6875H2.2192V22.3594ZM2.2192 29.8203H2.64112V29.1484H2.2192V29.8203ZM0.1096 36.6016H0.53152V35.9375H0.1096V36.6016ZM4.3288 36.6016H4.75072V35.9375H4.3288V36.6016ZM1.79728 31.875H3.06304V31.1953H1.79728V31.875ZM0.95344 31.1953H2.2192V30.5156H0.95344V31.1953ZM1.37536 30.5156H1.79728V29.8359H1.37536V30.5156ZM0.53152 31.875H1.37536V31.1953H0.53152V31.875ZM0.95344 32.5391H2.2192V31.875H0.95344V32.5391ZM1.37536 33.2188H1.79728V32.5469H1.37536V33.2188ZM2.64112 32.5391H3.90688V31.875H2.64112V32.5391ZM3.06304 33.2188H3.48496V32.5469H3.06304V33.2188ZM3.48496 31.8672H4.3288V31.1875H3.48496V31.8672ZM2.64112 31.1875H3.90688V30.5078H2.64112V31.1875ZM3.06304 30.5078H3.48496V29.8281H3.06304V30.5078ZM4.75072 31.875H5.59456V31.1953H4.75072V31.875ZM5.17264 32.5391H6.4384V31.875H5.17264V32.5391ZM6.01648 31.8672H6.86032V31.1875H6.01648V31.8672ZM5.17264 31.1875H6.4384V30.5078H5.17264V31.1875ZM5.59456 30.5078H6.01648V29.8281H5.59456V30.5078ZM5.59456 33.2188H6.01648V32.5469H5.59456V33.2188ZM-2 31.875H-1.15616V31.1953H-2V31.875ZM-1.57808 32.5391H-0.31232V31.875H-1.57808V32.5391Z" fill="#B20000"/>
<path fill-rule="evenodd" clip-rule="evenodd" d="M-0.73424 31.8672H0.1096V31.1875H-0.73424V31.8672ZM-1.57808 31.1875H-0.31232V30.5078H-1.57808V31.1875ZM-1.15616 30.5078H-0.73424V29.8281H-1.15616V30.5078ZM-1.15616 33.2188H-0.73424V32.5469H-1.15616V33.2188ZM-1.57808 27.7969H0.1096V27.1172H-1.57808V27.7969ZM0.53152 27.7969H2.2192V27.1172H0.53152V27.7969ZM2.64112 27.7969H4.3288V27.1172H2.64112V27.7969ZM4.75072 27.7969H6.4384V27.1172H4.75072V27.7969ZM1.37536 26.4375H3.48496V25.7656H1.37536V26.4375ZM-1.57808 26.4375H0.53152V25.7656H-1.57808V26.4375ZM4.3288 26.4375H6.4384V25.7656H4.3288V26.4375ZM6.4384 23.7344H6.86032V23.0469H6.4384V23.7344ZM-2 23.7344H-1.57808V23.0469H-2V23.7344ZM1.79728 20.3359H2.2192V21.0156H1.79728V20.3359ZM2.64112 20.3359H3.06304V21.0156H2.64112V20.3359ZM2.64112 18.9844H3.06304V19.6641H2.64112V18.9844ZM1.79728 18.9844H2.2192V19.6641H1.79728V18.9844ZM-1.15616 37.2891H-0.31232V37.9688H-1.15616V37.2891ZM4.75072 24.4062H5.17264V23.7266H4.75072V24.4062ZM-0.31232 24.4062H0.1096V23.7266H-0.31232V24.4062ZM1.79728 23.7266H3.06304V24.4062H1.79728V23.7266Z" fill="#B20000"/>
</g>
<defs>
<clipPath id="clip0_8424_43358">
<rect width="40" height="40" rx="20" fill="white"/>
</clipPath>
</defs>
</svg>
