<svg width="56" height="56" viewBox="0 0 56 56" fill="none" xmlns="http://www.w3.org/2000/svg">
<g clip-path="url(#clip0_3318_23877)">
<path d="M37.7391 1.74158C34.7058 0.616109 31.425 0 28 0C24.5751 0 21.2943 0.616109 18.261 1.74158L15.8262 28L18.261 54.2584C21.2943 55.384 24.5751 56 28 56C31.425 56 34.7058 55.384 37.7391 54.2584L40.1739 28L37.7391 1.74158Z" fill="#FFDA44"/>
<path d="M56.0002 28C56.0002 15.9611 48.4017 5.69779 37.7393 1.7417V54.2586C48.4017 50.3022 56.0002 40.0391 56.0002 28Z" fill="#D80027"/>
<path d="M0 28C0 40.0391 7.5985 50.3022 18.2609 54.2585V1.7417C7.5985 5.69779 0 15.9611 0 28Z" fill="black"/>
</g>
<defs>
<clipPath id="clip0_3318_23877">
<rect width="56" height="56" fill="white"/>
</clipPath>
</defs>
</svg>
