<svg width="40" height="40" viewBox="0 0 40 40" fill="none" xmlns="http://www.w3.org/2000/svg">
<g clip-path="url(#clip0_8424_43343)">
<path fill-rule="evenodd" clip-rule="evenodd" d="M-7 0H46.3281V40H-7V0Z" fill="#000099"/>
<path fill-rule="evenodd" clip-rule="evenodd" d="M4.07812 0L44 40.0234V0.0234375L4.07812 0Z" fill="#FFCC00"/>
<path fill-rule="evenodd" clip-rule="evenodd" d="M34.0313 37.6172L31.8516 36.0313L29.6172 37.6094L30.4609 35.0156L28.2578 33.4141H30.9922L31.8359 30.8203L32.6719 33.4219H35.4062L33.2188 35.0391L34.0313 37.6172ZM40.3828 38.4297L37.6484 38.4219L36.8125 35.8203L35.9688 38.4141H33.2344L35.4375 40.0156L34.5938 42.6094L36.8281 41.0312L39.0156 42.6172L38.1953 40.0391L40.3828 38.4297ZM28.2266 30.0547L30.4141 28.4375L27.6797 28.4297L26.8438 25.8359L26 28.4297L23.2656 28.4219L25.4688 30.0234L24.625 32.625L26.8594 31.0391L29.0469 32.6328L28.2266 30.0547ZM23.2031 25.0156L25.3906 23.4063L22.6562 23.3984L21.8203 20.7969L20.9688 23.3906H18.2422L20.4453 24.9922L19.6016 27.5859L21.8359 26.0078L24.0156 27.5938L23.2031 25.0156ZM18.2266 20.0469L20.4141 18.4297H17.6797L16.8516 15.8203L16.0078 18.4141H13.2734L15.4766 20.0078L14.6328 22.6094L16.8672 21.0234L19.0547 22.6172L18.2344 20.0391L18.2266 20.0469ZM13.1953 15.0234L15.3828 13.4141L12.6484 13.4063L11.8125 10.8047L10.9609 13.3984H8.23438L10.4453 15L9.60156 17.5938L11.8359 16.0156L14.0156 17.6016L13.2031 15.0234H13.1953ZM8.22656 10.0313L10.4062 8.41406H7.67188L6.84375 5.80469L5.99219 8.40625H3.25781L5.47656 10L4.625 12.5938L6.85938 11.0156L9.03125 12.6094L8.22656 10.0313ZM3.22656 5.03125L5.40625 3.41406H2.67188L1.84375 0.804688L0.992188 3.40625H-1.74219L0.476562 5L-0.382812 7.60156L1.85938 6.01563L4.03125 7.60938L3.22656 5.03125ZM-1.77344 0.0312505L0.398438 -1.58594H-2.33594L-3.17188 -4.1875L-4.00781 -1.59375H-6.74219L-4.53125 0L-5.375 2.59375L-3.14062 1.01563L-0.96875 2.60938L-1.77344 0.0312505Z" fill="white"/>
</g>
<defs>
<clipPath id="clip0_8424_43343">
<rect width="40" height="40" rx="20" fill="white"/>
</clipPath>
</defs>
</svg>
