<svg width="40" height="40" viewBox="0 0 40 40" fill="none" xmlns="http://www.w3.org/2000/svg">
<g clip-path="url(#clip0_8424_43305)">
<path fill-rule="evenodd" clip-rule="evenodd" d="M-7 0H46.3333V40H-7V0Z" fill="#229E45"/>
<path fill-rule="evenodd" clip-rule="evenodd" d="M19.7831 36.3334L44.9081 20.0251L19.6331 3.66675L-5.5752 20.0584L19.7831 36.3334Z" fill="#F8E509"/>
<path fill-rule="evenodd" clip-rule="evenodd" d="M30.7333 20C30.7333 25.8583 25.975 30.6083 20.1 30.6083C18.0006 30.605 15.9493 29.9794 14.2054 28.8104C12.4615 27.6415 11.1033 25.9817 10.3026 24.041C9.50183 22.1003 9.29445 19.9657 9.70665 17.9072C10.1189 15.8486 11.1321 13.9585 12.6184 12.4757C14.1047 10.993 15.9972 9.98413 18.0567 9.57677C20.1162 9.16942 22.2503 9.38182 24.1891 10.1871C26.1279 10.9925 27.7845 12.3545 28.9493 14.1012C30.1141 15.8478 30.735 17.9006 30.7333 20Z" fill="#2B49A3"/>
<path fill-rule="evenodd" clip-rule="evenodd" d="M16.6085 26.3584L16.2752 26.1667L15.9419 26.3334L16.0169 25.9584L15.7502 25.675L16.1252 25.6334L16.3085 25.3L16.4669 25.65L16.8335 25.7167L16.5585 25.9667M23.7252 28.1584L23.4002 27.9667L23.0669 28.1334L23.1335 27.7584L22.8752 27.4834L23.2502 27.4417L23.4252 27.1L23.5919 27.45L23.9585 27.5167L23.6752 27.775M20.6585 25.275L20.3752 25.1084L20.0835 25.2584L20.1502 24.9334L19.9169 24.6917L20.2502 24.6584L20.4002 24.3584L20.5335 24.6667L20.8585 24.725L20.6085 24.95M27.8585 24.2417L27.5752 24.075L27.2835 24.225L27.3502 23.9L27.1252 23.6667L27.4502 23.6334L27.6002 23.3417L27.7335 23.6417L28.0502 23.7L27.8085 23.9167M20.5335 22.0834L20.2002 21.9L19.8669 22.0667L19.9335 21.6834L19.6752 21.4084L20.0502 21.3667L20.2252 21.025L20.3919 21.375L20.7585 21.4417L20.4752 21.7084M11.7585 18.7917L11.4252 18.6084L11.0919 18.775L11.1752 18.3917L10.9002 18.1167L11.2835 18.075L11.4502 17.7334L11.6169 18.0834L11.9835 18.15L11.7085 18.4084M12.8169 23.175L12.4835 22.9834L12.1502 23.15L12.2252 22.775L11.9585 22.5L12.3335 22.45L12.5085 22.1167L12.6752 22.4667L13.0419 22.5334L12.7669 22.7917M23.7669 17.1834L23.4669 17.0167L23.1669 17.1667L23.2335 16.8334L23.0002 16.5834L23.3335 16.5417L23.4919 16.2417L23.6335 16.5584L23.9669 16.6167L23.7169 16.8417M23.1585 20.0334L22.9335 19.9L22.6919 20.0167L22.7419 19.75L22.5585 19.5584L22.8252 19.525L22.9502 19.2917L23.0585 19.5417L23.3085 19.5834L23.1252 19.7667M11.2752 23.9667L11.0502 23.8417L10.8252 23.95L10.8752 23.7L10.7002 23.5167L10.9502 23.4834L11.0669 23.2584L11.1752 23.4917L11.4252 23.5417L11.2335 23.7084M27.9169 24.9834L27.7335 24.8917L27.5502 24.975L27.5919 24.7834L27.4502 24.65L27.6502 24.625L27.7502 24.4584L27.8335 24.625L28.0419 24.6667L27.8835 24.7917" fill="#FFFFEF"/>
<path fill-rule="evenodd" clip-rule="evenodd" d="M11.2752 23.9666L11.0502 23.8416L10.8252 23.95L10.8752 23.7L10.7002 23.5166L10.9502 23.4833L11.0669 23.2583L11.1752 23.4916L11.4252 23.5416L11.2335 23.7083" fill="#FFFFEF"/>
<path fill-rule="evenodd" clip-rule="evenodd" d="M11.2752 23.9667L11.0502 23.8417L10.8252 23.95L10.8752 23.7L10.7002 23.5167L10.9502 23.4834L11.0669 23.2584L11.1752 23.4917L11.4252 23.5417L11.2335 23.7084M14.7585 23.9584L14.5419 23.8417L14.3169 23.95L14.3669 23.7L14.1919 23.5167L14.4419 23.4834L14.5585 23.2584L14.6669 23.4917L14.9169 23.5334L14.7252 23.7084M14.3252 25.125L14.1085 25L13.8835 25.1167L13.9335 24.8667L13.7585 24.675L14.0085 24.6417L14.1252 24.4167L14.2335 24.65L14.4835 24.7L14.2919 24.8667M21.5752 23.0167L21.3585 22.8834L21.1252 23L21.1752 22.75L21.0085 22.5584L21.2585 22.5334L21.3752 22.3084L21.4752 22.5417L21.7252 22.5834L21.5419 22.7584M19.4502 23.0084L19.2252 22.8834L19.0002 23L19.0502 22.75L18.8835 22.5584L19.1335 22.5334L19.2502 22.3L19.3502 22.5417L19.6002 22.5834L19.4169 22.7584M13.6835 22.275L13.5419 22.1917L13.4002 22.2584L13.4335 22.1L13.3252 21.9834L13.4835 21.9667L13.5502 21.825L13.6169 21.975L13.7752 22L13.6585 22.1084M27.6419 25.8917L27.4252 25.7667L27.2002 25.8834L27.2502 25.6334L27.0752 25.4417L27.3252 25.4084L27.4419 25.1834L27.5502 25.4167L27.8002 25.4667L27.6085 25.6334M25.8752 26.1334L25.6919 26.0167L25.5002 26.1167L25.5419 25.9L25.4002 25.75L25.6085 25.725L25.7085 25.5334L25.7919 25.7334L26.0002 25.7667L25.8419 25.9167M26.7085 26.1084L26.5419 26.0084L26.3669 26.0917L26.4002 25.9L26.2669 25.7584L26.4585 25.7334L26.5502 25.5667L26.6335 25.7334L26.8252 25.775L26.6835 25.9084M29.1085 24.0084L28.9419 23.925L28.7752 24.0084L28.8169 23.8167L28.6835 23.675L28.8752 23.65L28.9585 23.4834L29.0419 23.6584L29.2169 23.6917L29.0835 23.825M25.8502 27.3084L25.6419 27.1917L25.4169 27.2917L25.4669 27.0584L25.3002 26.8917L25.5502 26.8667L25.6585 26.6584L25.7585 26.875L26.0085 26.9167L25.8169 27.075M25.8669 28.2584L25.6669 28.1417L25.4669 28.25L25.5169 28.0167L25.3585 27.85L25.5835 27.8167L25.6835 27.6084L25.7752 27.825L26.0002 27.8667L25.8335 28.0334M24.2502 26.1084L24.0919 26.0084L23.9252 26.0917L23.9585 25.9084L23.8335 25.7667L24.0169 25.75L24.1002 25.5834L24.1835 25.75L24.3669 25.7834L24.2335 25.9167M22.7502 26.1084L22.5835 26.0084L22.4169 26.0917L22.4585 25.9084L22.3252 25.7667L22.5169 25.75L22.6002 25.5834L22.6835 25.75L22.8585 25.7834L22.7252 25.9167M20.1919 23.8667L20.0252 23.775L19.8585 23.8584L19.9002 23.6667L19.7669 23.5334L19.9502 23.5084L20.0335 23.3417L20.1169 23.5084L20.3002 23.55L20.1669 23.675M20.4752 28.425L20.3419 28.35L20.1919 28.425L20.2252 28.2584L20.1169 28.1417L20.2752 28.125L20.3502 27.9834L20.4169 28.1334L20.5752 28.1584L20.4585 28.2667M16.6085 21.05L16.2752 20.8584L15.9419 21.025L16.0169 20.65L15.7502 20.375L16.1252 20.325L16.3085 19.9917L16.4669 20.3417L16.8335 20.4084L16.5585 20.6667" fill="#FFFFEF"/>
<path fill-rule="evenodd" clip-rule="evenodd" d="M30.0337 23.8166C30.2401 23.2809 30.4018 22.729 30.517 22.1666C24.867 17.2083 18.5753 14.6666 10.6253 15.1916C10.337 15.7495 10.0999 16.3325 9.91699 16.9333C19.3337 16.0333 26.2503 20.1999 30.0337 23.8166Z" fill="white"/>
<path d="M27.5003 21.0333L27.6919 21.1417C27.6633 21.1983 27.6545 21.2628 27.6669 21.325C27.6864 21.3853 27.7281 21.4359 27.7836 21.4667C27.8419 21.5083 27.9003 21.5333 27.9503 21.525C28.0003 21.525 28.0336 21.5 28.0586 21.4667C28.0731 21.4445 28.0791 21.4179 28.0753 21.3917C28.0684 21.3609 28.0541 21.3323 28.0336 21.3083C28.0169 21.2833 27.9753 21.225 27.9086 21.1583C27.8401 21.0876 27.7887 21.0021 27.7586 20.9083C27.7378 20.8374 27.7432 20.7613 27.7738 20.694C27.8044 20.6267 27.8581 20.5727 27.9253 20.5417C27.9859 20.5164 28.0529 20.5105 28.1169 20.525C28.1953 20.543 28.269 20.5771 28.3336 20.625C28.4503 20.7083 28.5253 20.7917 28.5503 20.8917C28.5618 20.9384 28.5633 20.9871 28.5547 21.0345C28.546 21.0819 28.5275 21.1269 28.5003 21.1667L28.3003 21.0417C28.3253 20.9917 28.3336 20.9417 28.3169 20.9C28.3086 20.8583 28.2753 20.8167 28.2169 20.7833C28.1741 20.7489 28.1217 20.7285 28.0669 20.725C28.0518 20.7245 28.0369 20.7281 28.0237 20.7354C28.0104 20.7428 27.9995 20.7536 27.9919 20.7667C27.9753 20.7917 27.9753 20.8167 27.9836 20.85C27.9919 20.8833 28.0336 20.95 28.1169 21.0333C28.2003 21.1167 28.2503 21.1917 28.2836 21.2417C28.3134 21.2963 28.3268 21.3583 28.3224 21.4203C28.318 21.4824 28.2958 21.5418 28.2586 21.5917C28.2196 21.6483 28.1644 21.6919 28.1003 21.7167C28.0378 21.7454 27.9679 21.7542 27.9003 21.7417C27.8253 21.725 27.7503 21.6917 27.6669 21.6333C27.5419 21.55 27.4669 21.4583 27.4419 21.3583C27.4148 21.2449 27.4327 21.1254 27.4919 21.025L27.5003 21.0333ZM26.5336 20.4L26.7419 20.5083C26.7161 20.5659 26.7103 20.6304 26.7253 20.6917C26.7466 20.7489 26.7881 20.7963 26.8419 20.825C26.9086 20.8667 26.9586 20.8833 27.0086 20.875C27.0586 20.875 27.0919 20.85 27.1169 20.8083C27.1296 20.7885 27.1354 20.7651 27.1336 20.7417C27.1336 20.7167 27.1169 20.6833 27.0919 20.6583C27.0492 20.6068 27.0048 20.5568 26.9586 20.5083C26.8669 20.4167 26.8086 20.3417 26.7919 20.275C26.7783 20.2321 26.7742 20.1868 26.78 20.1421C26.7857 20.0975 26.8012 20.0547 26.8253 20.0167C26.8569 19.9652 26.9034 19.9246 26.9586 19.9C27.0159 19.8736 27.0797 19.8649 27.1419 19.875C27.219 19.888 27.2927 19.9163 27.3586 19.9583C27.4836 20.0417 27.5586 20.125 27.5836 20.2167C27.5988 20.2635 27.6037 20.3131 27.5979 20.362C27.5922 20.4109 27.5759 20.458 27.5503 20.5L27.3419 20.3833C27.3669 20.325 27.3753 20.2833 27.3586 20.2417C27.3419 20.2 27.3086 20.1583 27.2503 20.125C27.2041 20.0919 27.1487 20.0744 27.0919 20.075C27.0782 20.0759 27.065 20.0802 27.0534 20.0875C27.0417 20.0947 27.0321 20.1048 27.0253 20.1167C27.0086 20.1417 27.0086 20.1667 27.0169 20.2C27.0253 20.2333 27.0753 20.3 27.1586 20.3833C27.2419 20.4667 27.3003 20.5333 27.3253 20.5833C27.3587 20.6356 27.3764 20.6963 27.3764 20.7583C27.3764 20.8204 27.3587 20.8811 27.3253 20.9333C27.2893 20.9915 27.2372 21.0378 27.1753 21.0667C27.1128 21.0954 27.0429 21.1042 26.9753 21.0917C26.8895 21.0772 26.8074 21.046 26.7336 21C26.6259 20.9426 26.5429 20.8477 26.5003 20.7333C26.4681 20.6221 26.48 20.5027 26.5336 20.4ZM25.3503 20.0833L25.9586 19.0833L26.6919 19.5417L26.5919 19.7083L26.0586 19.375L25.9253 19.6L26.4253 19.9083L26.3169 20.075L25.8169 19.7667L25.6503 20.0417L26.2086 20.375L26.1086 20.5417L25.3586 20.0833H25.3503ZM23.6253 18.6667L23.7169 18.5L24.1669 18.725L23.9586 19.1417C23.8919 19.1583 23.8086 19.1667 23.7086 19.1583C23.6126 19.1477 23.5193 19.1195 23.4336 19.075C23.3328 19.0259 23.2466 18.9512 23.1836 18.8583C23.1263 18.7721 23.0972 18.6702 23.1003 18.5667C23.1045 18.4589 23.133 18.3535 23.1836 18.2583C23.2337 18.1581 23.3082 18.0721 23.4003 18.0083C23.4883 17.9474 23.5932 17.9154 23.7003 17.9167C23.7836 17.9167 23.8669 17.9417 23.9669 18C24.1003 18.0583 24.1836 18.1417 24.2253 18.2333C24.2686 18.3243 24.2775 18.428 24.2503 18.525L24.0253 18.4583C24.039 18.4025 24.0331 18.3437 24.0086 18.2917C23.9836 18.2417 23.9419 18.2083 23.8753 18.175C23.8364 18.1528 23.7933 18.1391 23.7488 18.1348C23.7042 18.1305 23.6593 18.1357 23.6169 18.15C23.5336 18.175 23.4586 18.25 23.4003 18.3667C23.3419 18.4833 23.3169 18.5917 23.3419 18.6833C23.3534 18.7268 23.3743 18.7672 23.4031 18.8018C23.4319 18.8363 23.4679 18.8642 23.5086 18.8833C23.5503 18.9083 23.6003 18.925 23.6503 18.925C23.7 18.9325 23.7505 18.9325 23.8003 18.925L23.8669 18.7917L23.6253 18.6667ZM16.1086 16.8083L16.2753 15.6417L16.6253 15.7L16.7169 16.5167L17.0419 15.7667L17.3919 15.8167L17.2253 16.9667L17.0003 16.9333L17.1419 16.025L16.7753 16.9L16.5503 16.8667L16.4586 15.925L16.3253 16.8417L16.1086 16.8083ZM14.9336 16.6667L15.0419 15.5L15.9003 15.5833L15.8836 15.7833L15.2586 15.725L15.2336 15.975L15.8169 16.0333L15.7919 16.2333L15.2086 16.175L15.1836 16.4917L15.8336 16.55L15.8169 16.75L14.9336 16.6667Z" fill="#309E3A"/>
<path d="M11.042 15.9416C11.042 15.8166 11.067 15.7249 11.1004 15.6416C11.1296 15.5823 11.1691 15.5287 11.217 15.4832C11.2598 15.4401 11.3108 15.4061 11.367 15.3832C11.4504 15.3582 11.5337 15.3416 11.617 15.3416C11.792 15.3416 11.9254 15.4082 12.0337 15.5082C12.0853 15.5719 12.1236 15.6453 12.1465 15.724C12.1694 15.8027 12.1764 15.8851 12.167 15.9666C12.167 16.1499 12.1087 16.2999 12.0004 16.4082C11.9447 16.4597 11.8788 16.4989 11.8071 16.5233C11.7353 16.5477 11.6592 16.5567 11.5837 16.5499C11.5092 16.5506 11.4353 16.5363 11.3666 16.5076C11.2978 16.479 11.2356 16.4366 11.1837 16.3832C11.08 16.2605 11.0291 16.1017 11.042 15.9416Z" fill="#309E3A"/>
<path d="M11.2832 15.9417C11.2832 16.0667 11.3082 16.1667 11.3665 16.2417C11.4249 16.3083 11.4999 16.35 11.5999 16.35C11.6431 16.353 11.6865 16.3464 11.7269 16.3305C11.7673 16.3146 11.8036 16.29 11.8332 16.2583C11.8915 16.1917 11.9165 16.0917 11.9249 15.95C11.9249 15.8167 11.9082 15.7167 11.8415 15.65C11.8144 15.6164 11.7801 15.5893 11.7412 15.5705C11.7023 15.5518 11.6597 15.5419 11.6165 15.5417C11.5727 15.5403 11.5291 15.5485 11.4888 15.5658C11.4485 15.583 11.4124 15.6089 11.3832 15.6417C11.3165 15.7083 11.2915 15.8083 11.2832 15.9417Z" fill="#F7FFFF"/>
<path d="M12.417 16.5417L12.4337 15.375H12.9337C13.0587 15.375 13.142 15.3917 13.2003 15.4167C13.2587 15.4333 13.3003 15.475 13.3337 15.525C13.367 15.575 13.3837 15.6417 13.3837 15.7167C13.3843 15.7968 13.3545 15.8743 13.3003 15.9333C13.2387 15.991 13.1594 16.0263 13.0753 16.0333L13.2003 16.1333C13.2337 16.1667 13.2753 16.2333 13.3253 16.325L13.467 16.5583H13.1837L13.017 16.2917L12.9003 16.125C12.8801 16.1021 12.8543 16.0848 12.8253 16.075C12.7874 16.0639 12.7481 16.0583 12.7087 16.0583H12.6587V16.5417H12.417Z" fill="#309E3A"/>
<path d="M12.667 15.875H12.8337C12.9503 15.875 13.0253 15.875 13.0503 15.8583C13.0753 15.8583 13.1003 15.8333 13.117 15.8166C13.1337 15.8 13.142 15.7583 13.142 15.7333C13.142 15.6833 13.1337 15.65 13.1087 15.6333C13.092 15.6083 13.0587 15.5916 13.0253 15.5833H12.8587L12.667 15.575V15.8666V15.875Z" fill="white"/>
<path d="M13.7497 15.4333L14.1831 15.4583C14.2747 15.4583 14.3497 15.4667 14.3997 15.4834C14.4646 15.5069 14.5221 15.5471 14.5664 15.6C14.6144 15.6583 14.6486 15.7267 14.6664 15.8C14.6914 15.875 14.6997 15.9667 14.6914 16.075C14.6913 16.1601 14.6773 16.2445 14.6497 16.325C14.6164 16.4083 14.5664 16.475 14.5081 16.525C14.4595 16.565 14.4025 16.5935 14.3414 16.6084C14.2914 16.625 14.2164 16.625 14.1331 16.625L13.6914 16.6L13.7497 15.4333Z" fill="#309E3A"/>
<path d="M13.9743 15.6416L13.9326 16.4166H14.2493C14.291 16.4166 14.3243 16.3999 14.3493 16.3749C14.3743 16.3499 14.3993 16.3166 14.416 16.2666C14.4326 16.2166 14.4493 16.1416 14.4493 16.0499L14.4409 15.8416C14.4291 15.7977 14.4061 15.7575 14.3743 15.7249C14.3466 15.6971 14.3121 15.677 14.2743 15.6666C14.2113 15.6526 14.1471 15.6442 14.0826 15.6416H13.9743Z" fill="white"/>
<path d="M19.4668 17.5166L19.7418 16.3833L20.1085 16.4666L20.3751 16.55C20.4335 16.5833 20.4835 16.6333 20.5085 16.7083C20.5418 16.775 20.5418 16.85 20.5251 16.9416C20.5085 17.0083 20.4835 17.0666 20.4418 17.1083C20.4112 17.1449 20.373 17.1743 20.3298 17.1945C20.2866 17.2146 20.2395 17.225 20.1918 17.225C20.1335 17.225 20.0501 17.2083 19.9418 17.1833L19.8001 17.1416L19.7001 17.575L19.4668 17.5166Z" fill="#309E3A"/>
<path d="M19.9173 16.6333L19.8506 16.95L19.9756 16.9833C20.0589 17 20.1256 17.0166 20.1589 17.0083C20.1913 17.0038 20.2216 16.9894 20.2454 16.967C20.2693 16.9446 20.2857 16.9154 20.2923 16.8833C20.2923 16.8416 20.2923 16.8083 20.2756 16.775C20.2573 16.7411 20.2279 16.7146 20.1923 16.7L20.0339 16.6583L19.9256 16.6333H19.9173Z" fill="white"/>
<path d="M20.5498 17.8417L20.9415 16.7417L21.3998 16.9084C21.5248 16.95 21.5998 16.9917 21.6498 17.025C21.6915 17.0667 21.7248 17.1084 21.7331 17.175C21.7415 17.2417 21.7498 17.3 21.7331 17.3667C21.6998 17.45 21.6498 17.5084 21.5831 17.55C21.5165 17.5834 21.4331 17.5917 21.3331 17.575C21.3665 17.6167 21.3998 17.6584 21.4165 17.7084L21.4831 17.9334L21.5331 18.1917L21.2748 18.1L21.1915 17.8C21.1763 17.7322 21.1568 17.6654 21.1331 17.6C21.1221 17.5741 21.1049 17.5512 21.0831 17.5334C21.0665 17.5084 21.0331 17.4917 20.9748 17.475L20.9331 17.4584L20.7665 17.925L20.5498 17.8417Z" fill="#309E3A"/>
<path d="M20.9995 17.2833L21.1579 17.3416C21.2662 17.3833 21.3329 17.4 21.3662 17.4C21.3912 17.4 21.4162 17.4 21.4412 17.375C21.4662 17.3583 21.4829 17.3333 21.4912 17.3C21.5079 17.2666 21.5079 17.2333 21.4912 17.2C21.4789 17.1677 21.4552 17.141 21.4245 17.125L21.2579 17.0666L21.0912 17.0083L20.9912 17.2833H20.9995Z" fill="white"/>
<path d="M21.9165 17.8001C21.9452 17.7025 21.9934 17.6118 22.0582 17.5334C22.1004 17.4832 22.1512 17.4408 22.2082 17.4084C22.2599 17.3793 22.3163 17.3595 22.3749 17.3501C22.4582 17.3501 22.5415 17.3501 22.6332 17.3834C22.7077 17.4019 22.7774 17.4359 22.8378 17.4833C22.8981 17.5307 22.9477 17.5904 22.9832 17.6584C23.0499 17.7918 23.0499 17.9501 22.9999 18.1334C22.9586 18.2909 22.8568 18.4257 22.7165 18.5084C22.5915 18.5834 22.4415 18.5918 22.2832 18.5418C22.2089 18.5228 22.1394 18.4886 22.0791 18.4413C22.0189 18.3939 21.9692 18.3345 21.9332 18.2668C21.8998 18.1939 21.8812 18.1152 21.8783 18.0351C21.8755 17.955 21.8884 17.8751 21.9165 17.8001Z" fill="#309E3A"/>
<path d="M22.1503 17.8667C22.1169 17.9917 22.1086 18.1 22.1503 18.1833C22.1919 18.2667 22.2503 18.3167 22.3419 18.35C22.4253 18.375 22.5086 18.3667 22.5919 18.3167C22.6753 18.275 22.7253 18.1833 22.767 18.05C22.8086 17.925 22.8086 17.825 22.767 17.7417C22.7505 17.7021 22.7255 17.6667 22.6939 17.6379C22.6622 17.6091 22.6245 17.5876 22.5836 17.575C22.5426 17.5609 22.499 17.5558 22.4559 17.5601C22.4127 17.5644 22.371 17.578 22.3336 17.6C22.2503 17.65 22.1919 17.7333 22.1503 17.8667Z" fill="white"/>
<path d="M24.1914 19.4249L24.7247 18.3916L25.1664 18.6166C25.2497 18.6565 25.3257 18.7101 25.3914 18.7749C25.4331 18.8166 25.4581 18.8666 25.4581 18.9333C25.4581 18.9999 25.4581 19.0583 25.4247 19.1166C25.3927 19.1915 25.333 19.2512 25.2581 19.2833C25.1747 19.2999 25.0914 19.2999 24.9997 19.2666C25.0331 19.3166 25.0497 19.3666 25.0664 19.4083C25.0831 19.4583 25.0914 19.5333 25.0997 19.6416L25.1164 19.9083L24.8664 19.7833L24.8331 19.4749C24.8291 19.405 24.8208 19.3355 24.8081 19.2666C24.8024 19.2354 24.7879 19.2065 24.7664 19.1833L24.6664 19.1249L24.6247 19.0999L24.3997 19.5333L24.1914 19.4249Z" fill="#309E3A"/>
<path d="M24.708 18.9332L24.8663 19.0165C24.9663 19.0665 25.033 19.0998 25.058 19.0998C25.083 19.0998 25.1163 19.0998 25.1413 19.0832C25.1663 19.0748 25.183 19.0498 25.1997 19.0165C25.2163 18.9832 25.2247 18.9498 25.2163 18.9165C25.2061 18.8833 25.1857 18.8542 25.158 18.8332C25.1092 18.8032 25.0592 18.7754 25.008 18.7498L24.8413 18.6665L24.708 18.9332Z" fill="white"/>
<path d="M28.5085 21.5583C28.5624 21.4726 28.6333 21.3988 28.7169 21.3416C28.7729 21.3057 28.835 21.2803 28.9002 21.2666C28.9607 21.2542 29.023 21.2542 29.0835 21.2666C29.1669 21.2833 29.2419 21.3166 29.3169 21.3666C29.3817 21.407 29.4374 21.4605 29.4805 21.5236C29.5235 21.5867 29.5529 21.6581 29.5669 21.7333C29.5919 21.8749 29.5502 22.0333 29.4502 22.1916C29.3665 22.3293 29.2317 22.4282 29.0752 22.4666C29.0006 22.4827 28.9234 22.4829 28.8487 22.4671C28.774 22.4513 28.7035 22.4199 28.6419 22.3749C28.577 22.3345 28.5213 22.281 28.4782 22.2179C28.4352 22.1548 28.4058 22.0834 28.3919 22.0083C28.3669 21.8583 28.4085 21.7083 28.5085 21.5583Z" fill="#309E3A"/>
<path d="M28.7167 21.6916C28.6333 21.7999 28.6083 21.8999 28.625 21.9916C28.6311 22.0338 28.6462 22.0742 28.6692 22.1101C28.6922 22.146 28.7226 22.1766 28.7583 22.1999C28.8417 22.2582 28.925 22.2749 29.0083 22.2499C29.0917 22.2249 29.175 22.1666 29.25 22.0499C29.325 21.9332 29.3583 21.8332 29.3417 21.7499C29.3333 21.6666 29.2833 21.5916 29.2083 21.5332C29.1333 21.4749 29.0417 21.4666 28.9583 21.4916C28.875 21.5082 28.7917 21.5749 28.7083 21.6916H28.7167Z" fill="white"/>
<path d="M18.1504 17.0418L18.3421 16.2251L18.9421 16.3668L18.9171 16.5001L18.4754 16.4001L18.4337 16.5834L18.8421 16.6751L18.8087 16.8168L18.4004 16.7168L18.3504 16.9418L18.8087 17.0501L18.7754 17.1834L18.1504 17.0418Z" fill="#309E3A"/>
</g>
<defs>
<clipPath id="clip0_8424_43305">
<rect width="40" height="40" rx="20" fill="white"/>
</clipPath>
</defs>
</svg>
