<svg width="56" height="56" viewBox="0 0 56 56" fill="none" xmlns="http://www.w3.org/2000/svg">
<g clip-path="url(#clip0_3318_23938)">
<path d="M28 56C43.464 56 56 43.464 56 28C56 12.536 43.464 0 28 0C12.536 0 0 12.536 0 28C0 43.464 12.536 56 28 56Z" fill="#6DA544"/>
<path d="M27.9995 10.9565L51.1299 28L27.9995 45.0435L4.86914 28L27.9995 10.9565Z" fill="#FFDA44"/>
<path d="M27.9998 37.739C33.3786 37.739 37.7389 33.3787 37.7389 27.9999C37.7389 22.6212 33.3786 18.2609 27.9998 18.2609C22.6211 18.2609 18.2607 22.6212 18.2607 27.9999C18.2607 33.3787 22.6211 37.739 27.9998 37.739Z" fill="#F0F0F0"/>
<path d="M23.1301 27.3912C21.4365 27.3912 19.8021 27.6488 18.2637 28.1268C18.3318 33.4468 22.6635 37.7391 27.9997 37.7391C31.2993 37.7391 34.2135 36.0966 35.9752 33.5863C32.9612 29.8132 28.3235 27.3912 23.1301 27.3912Z" fill="#0052B4"/>
<path d="M37.558 29.8659C37.6753 29.2617 37.7386 28.6384 37.7386 27.9999C37.7386 22.6211 33.3783 18.2609 27.9995 18.2609C23.9861 18.2609 20.5408 20.6891 19.0498 24.1561C20.3678 23.883 21.7323 23.7391 23.13 23.7391C28.7866 23.739 33.9038 26.0904 37.558 29.8659Z" fill="#0052B4"/>
</g>
<defs>
<clipPath id="clip0_3318_23938">
<rect width="56" height="56" fill="white"/>
</clipPath>
</defs>
</svg>
