<svg width="40" height="40" viewBox="0 0 40 40" fill="none" xmlns="http://www.w3.org/2000/svg">
<g clip-path="url(#clip0_8424_43209)">
<path d="M-7 0H46.3333V40H-7V0Z" fill="#F7E017"/>
<path d="M-7 2.7749V20.5582L46.3333 28.8916V19.4416L-7 2.7749Z" fill="white"/>
<path d="M-7 12.2251V20.5584L46.3333 37.2251V28.8918L-7 12.2251Z" fill="black"/>
<path d="M18.3171 31.6502C17.3419 31.5425 16.4038 31.2158 15.5726 30.6946C15.4393 30.6057 15.317 30.5279 15.2948 30.5279C15.2726 30.5279 15.2615 30.6335 15.2615 30.7557C15.2615 31.1113 15.117 31.289 14.7615 31.3835C14.417 31.4724 13.8948 31.2946 13.4726 30.939C13.0722 30.5965 12.6049 30.341 12.1004 30.189C11.5748 30.0639 11.0216 30.135 10.5448 30.389C10.4977 30.4222 10.445 30.4466 10.3892 30.4613C10.3281 30.4613 10.3337 30.0779 10.4004 29.9613C10.4837 29.7946 10.6837 29.639 10.9226 29.5557C11.0448 29.5112 11.1448 29.4557 11.1448 29.4279C11.1448 29.4057 11.1004 29.3168 11.0504 29.2279C10.8892 28.9446 10.9559 28.6724 11.2392 28.4557C11.5281 28.2335 12.017 28.2001 12.4448 28.3612C12.5171 28.3921 12.5913 28.418 12.667 28.439C12.7226 28.439 12.6893 28.3557 12.5337 28.1279C12.3559 27.8668 12.317 27.739 12.3393 27.4224C12.3545 27.2285 12.4384 27.0465 12.5759 26.909C12.7134 26.7715 12.8954 26.6876 13.0893 26.6723C13.4115 26.6501 13.6115 26.7612 14.0893 27.2112C15.3725 28.5028 17.0579 29.3181 18.8671 29.5224C19.3282 29.5779 20.2448 29.5501 20.7837 29.4668C22.4909 29.182 24.0737 28.3925 25.3282 27.2001C25.6838 26.8668 25.8504 26.7779 26.1449 26.7779C26.3949 26.7779 26.5727 26.8557 26.756 27.0557C26.9227 27.239 26.9782 27.4112 26.956 27.6946C26.9449 27.8724 26.9171 27.9557 26.8116 28.1335C26.656 28.3835 26.6838 28.4112 26.9893 28.289C27.4116 28.1224 27.9282 28.2001 28.206 28.4668C28.4504 28.7001 28.4727 28.9335 28.2838 29.2446C28.2116 29.3613 28.156 29.4668 28.156 29.489C28.156 29.5224 28.2116 29.5335 28.4616 29.5779C28.7949 29.6335 28.9893 29.8779 28.9893 30.2557C28.9893 30.3668 28.9727 30.4613 28.956 30.4613C28.9393 30.4613 28.8116 30.4113 28.6782 30.3557C28.2893 30.1946 28.0671 30.1557 27.6116 30.1613C27.2671 30.1613 27.1504 30.1779 26.9116 30.2557C26.5117 30.3948 26.1434 30.6119 25.8282 30.8946C25.4727 31.2113 25.2504 31.3113 24.906 31.3057C24.5838 31.3057 24.3671 31.2113 24.2504 31.0279C24.1893 30.9279 24.1782 30.8724 24.1949 30.6501C24.206 30.5057 24.2004 30.389 24.1949 30.389C24.1782 30.389 24.056 30.4668 23.9171 30.5613C23.6 30.7886 23.2544 30.9735 22.8893 31.1113C21.4271 31.6409 19.8623 31.8253 18.3171 31.6502Z" fill="#CF1126"/>
<path d="M18.9055 29.1779C17.8308 29.0792 16.7897 28.752 15.8517 28.2183C14.9137 27.6847 14.1005 26.9568 13.4665 26.0835C12.111 24.239 11.6887 21.8001 12.0999 19.5723C12.3221 18.5557 12.7665 17.539 13.5165 16.8168C12.8982 18.0999 12.728 19.5533 13.0332 20.9446C13.5332 23.7112 15.8665 26.0501 18.661 26.4557C19.7721 26.7724 20.911 26.4335 21.9666 26.0946C24.2999 25.2724 26.0777 23.0612 26.2888 20.589C26.4722 19.2557 26.2722 17.8612 25.6666 16.6445C26.011 16.8279 26.4444 17.5445 26.6999 18.0223C27.5888 19.7445 27.6277 21.8057 27.1055 23.6446C26.3944 25.9835 24.6055 28.0335 22.2444 28.7779C21.1672 29.1145 20.0373 29.25 18.911 29.1779H18.9055Z" fill="#CF1126"/>
<path d="M8.11079 26.1059C7.9719 26.0836 7.81634 26.2225 7.8719 26.367C7.9719 26.5114 8.14968 26.5892 8.30523 26.6559C8.71509 26.8159 9.15505 26.8842 9.59413 26.8559C9.91627 26.8559 10.2359 26.7995 10.5386 26.6892C10.7052 26.6336 10.9164 26.5781 10.983 26.3892C11.0552 26.2725 10.9275 26.1503 10.8108 26.1725C10.6441 26.2114 10.4775 26.2836 10.3108 26.3336C9.94445 26.4374 9.56256 26.475 9.18302 26.4448C8.90679 26.4046 8.63753 26.326 8.38301 26.2114C8.29413 26.1725 8.21079 26.117 8.11079 26.1059Z" fill="#CF1126"/>
<path d="M8.26712 25.5281C8.12823 25.5059 8.00601 25.6726 8.06156 25.8059C8.17268 25.9615 8.35601 26.0448 8.52823 26.117C8.82869 26.2349 9.15015 26.2897 9.47268 26.2781H9.55602C9.83031 26.2793 10.1022 26.2265 10.356 26.1226C10.506 26.0615 10.6949 26.0004 10.7616 25.8337C10.8116 25.7392 10.7727 25.6059 10.6505 25.5948C10.5505 25.5948 10.456 25.6615 10.356 25.6892C9.99411 25.8387 9.60176 25.8996 9.21157 25.867C8.96712 25.8392 8.73934 25.7504 8.51712 25.6448C8.43379 25.6059 8.36156 25.5448 8.26712 25.5337V25.5281Z" fill="#CF1126"/>
<path d="M8.46134 24.9779C8.33912 24.9613 8.25578 25.1002 8.278 25.2057C8.29467 25.3057 8.378 25.3724 8.45023 25.4279C8.75272 25.6375 9.11606 25.741 9.48357 25.7224H9.57245C9.80347 25.7207 10.0312 25.6675 10.2391 25.5668C10.378 25.5113 10.5391 25.439 10.5891 25.2779C10.6113 25.2057 10.6225 25.1002 10.5391 25.0557C10.4502 25.0113 10.3669 25.0835 10.2891 25.1113C10.0234 25.2509 9.72819 25.3252 9.42801 25.3279C9.17035 25.3176 8.91969 25.2411 8.70023 25.1057C8.61689 25.0668 8.55023 24.9946 8.46134 24.9779Z" fill="#CF1126"/>
<path d="M6.41675 16.8169C6.23897 17.0002 6.37786 17.3336 6.3612 17.5669C6.4612 18.3002 6.57786 19.0391 6.85009 19.7336C7.18342 20.4002 7.89454 20.7614 8.32232 21.3558C8.47787 21.6391 8.42232 21.9836 8.45565 22.3003C8.47787 23.1503 8.47232 24.0058 8.45565 24.8558C8.84454 25.0558 9.26121 25.2447 9.70566 25.1725C9.96677 25.1114 10.4557 25.0725 10.5112 24.8114L10.4557 20.3947C10.3057 19.9447 9.84455 19.7114 9.50565 19.4225C9.2224 19.1428 8.95881 18.844 8.71676 18.528C8.57232 18.278 8.00009 18.1947 8.20565 18.6169C8.32787 18.9891 8.63343 19.2614 8.71121 19.6502C8.72787 19.8669 8.98899 20.2614 8.76676 20.3836C8.62989 20.1421 8.42247 19.9483 8.17231 19.828C7.92787 19.6447 7.52231 19.5669 7.43342 19.2447C7.35338 18.7864 7.14094 18.3615 6.82231 18.0225C6.90564 17.6113 6.82231 17.0947 6.46675 16.828L6.41675 16.8169Z" fill="#CF1126"/>
<path d="M6.96636 16.9001C6.79969 16.9279 6.8108 17.1335 6.88303 17.2446C6.96537 17.4837 6.98638 17.7397 6.94414 17.989C7.24879 18.3283 7.45273 18.7458 7.53303 19.1946C7.53303 19.3613 7.71081 19.4168 7.82747 19.5002C8.0997 19.6724 8.3997 19.8002 8.64414 20.0168C8.69414 20.0724 8.73303 20.1279 8.6997 20.0168C8.66081 19.8724 8.64414 19.7168 8.53303 19.6113C8.37748 19.4446 8.18859 19.3002 7.96636 19.2557C7.9497 19.0224 7.83858 18.8113 7.73858 18.6113C7.62747 18.4168 7.51081 18.2113 7.32192 18.089C7.32192 17.7502 7.32192 17.3946 7.17747 17.0779C7.13303 17.0001 7.06636 16.9057 6.96636 16.9001Z" fill="#CF1126"/>
<path d="M7.42742 17.0334C7.31631 17.0668 7.33853 17.2112 7.37186 17.2946C7.42039 17.5358 7.43905 17.7821 7.42742 18.0279C7.64409 18.1946 7.77186 18.439 7.89409 18.6723C7.97186 18.8279 8.03853 18.9946 8.06631 19.1668C8.23853 19.2223 8.38853 19.3335 8.52187 19.4446C8.46631 19.289 8.3552 19.1668 8.27187 19.0168C8.18853 18.8668 8.1052 18.7057 8.06631 18.5335C7.89964 18.3612 7.81075 18.1112 7.84409 17.8668C7.8552 17.6057 7.77186 17.3334 7.59409 17.1334C7.54964 17.089 7.49408 17.039 7.42742 17.0334Z" fill="#CF1126"/>
<path d="M7.95553 17.1113C7.88887 17.1225 7.85553 17.178 7.8222 17.228C7.80553 17.278 7.86664 17.328 7.87775 17.3836C7.95034 17.567 7.97704 17.7653 7.95553 17.9613C7.94998 18.1002 7.99998 18.2391 8.06664 18.3502C8.07913 18.3075 8.10449 18.2696 8.13929 18.2417C8.17408 18.2139 8.21662 18.1975 8.26109 18.1947C8.28887 18.1947 8.33887 18.2058 8.31665 18.1558C8.29442 17.8891 8.25553 17.6225 8.16109 17.378C8.13372 17.2817 8.07982 17.1951 8.00553 17.128C7.99442 17.1169 7.9722 17.1058 7.94998 17.1113H7.95553Z" fill="#CF1126"/>
<path d="M19.4277 26.4447C19.0525 26.4041 18.6967 26.257 18.4023 26.0207C18.108 25.7845 17.8874 25.4689 17.7666 25.1113C17.7833 24.9891 17.9333 25.178 18.0055 25.1947C18.141 25.2754 18.2929 25.3248 18.4499 25.3391C18.6444 25.4225 18.7666 25.6169 18.9555 25.7225C19.0444 25.7891 19.3555 25.9225 19.2944 25.7058C19.2222 25.5947 19.1722 25.4502 19.2388 25.3169C19.3388 25.0891 19.4999 24.8891 19.6666 24.6947C19.7833 24.6558 19.8666 24.8947 19.9499 24.9725C20.0666 25.1558 20.2111 25.378 20.1388 25.6002C20.0722 25.6836 20.0277 25.9336 20.2111 25.8558C20.4333 25.7558 20.6166 25.5891 20.8 25.4336C20.9666 25.3225 21.1722 25.3169 21.3388 25.2113C21.4222 25.1947 21.5833 25.0391 21.6166 25.1225C21.5171 25.3708 21.3783 25.6015 21.2055 25.8058C20.9384 26.1229 20.569 26.3371 20.1611 26.4114C19.9166 26.4558 19.6722 26.4669 19.4277 26.4447Z" fill="#CF1126"/>
<path d="M20.3056 25.5669C20.3222 25.4169 20.2889 25.2669 20.2111 25.1225C20.0945 24.8891 19.9334 24.678 19.7667 24.4613C19.6111 24.3725 19.5278 24.6669 19.4278 24.7502C19.2667 24.9891 19.0667 25.2336 19.0556 25.528C18.9667 25.6669 18.8 25.4169 18.7278 25.3336C18.5797 25.1432 18.5013 24.908 18.5056 24.6669C18.4921 24.2757 18.5603 23.8859 18.7056 23.5224C18.8167 23.2113 18.9889 22.9113 18.9722 22.578C18.9833 22.3169 18.9333 22.0391 18.7278 21.8669C18.5278 21.7113 18.8556 21.678 18.9556 21.7558C19.1333 21.7724 19.2278 22.0613 19.3889 21.9891C19.45 21.8391 19.4667 21.6558 19.6 21.5391C19.7278 21.3613 19.8611 21.6113 19.9056 21.7336C20 21.8336 19.9056 22.0947 20.05 22.1002C20.2278 21.9724 20.3556 21.7669 20.5834 21.7169C20.6778 21.6613 20.8334 21.7169 20.7111 21.8169C20.5445 21.978 20.4 22.1724 20.3667 22.4113C20.3167 22.7058 20.3889 23.0058 20.5167 23.2669C20.7667 23.7891 20.9611 24.378 20.8334 24.9613C20.7778 25.2169 20.6 25.4391 20.3889 25.5891C20.3611 25.6058 20.3167 25.6058 20.3056 25.5669Z" fill="#CF1126"/>
<path d="M20.0392 21.6447C19.9644 21.4944 19.8583 21.3618 19.728 21.2559C19.5947 21.2559 19.5114 21.4225 19.4225 21.5114C19.3614 21.6281 19.2836 21.8225 19.128 21.6725C18.878 21.5281 18.8391 21.2114 18.8391 20.9503C18.8225 20.5281 18.9947 20.1336 19.1447 19.7503C19.2392 19.5114 19.2169 19.2392 19.1558 18.9947C19.0836 18.717 18.8558 18.517 18.6836 18.2947C18.6947 18.2114 18.9169 18.2558 19.0003 18.2725C19.1892 18.3225 19.3003 18.4836 19.4392 18.6058C19.5392 18.5725 19.4947 18.3725 19.5447 18.2781C19.5447 18.1447 19.7225 17.9725 19.7947 18.1614C19.9058 18.2836 19.7947 18.5225 19.9336 18.5947C20.0669 18.5447 20.1336 18.4003 20.2558 18.3336C20.3196 18.2923 20.393 18.2681 20.4689 18.2632C20.5447 18.2583 20.6206 18.273 20.6892 18.3058C20.7392 18.4281 20.5447 18.5281 20.4892 18.6392C20.3781 18.7777 20.3011 18.9403 20.2645 19.114C20.2278 19.2877 20.2325 19.4676 20.278 19.6392C20.3558 19.917 20.4892 20.167 20.5392 20.4447C20.5992 20.7615 20.5897 21.0875 20.5114 21.4003C20.4614 21.5892 20.3003 21.7114 20.1336 21.7892C20.0892 21.7503 20.0669 21.6947 20.0392 21.6447Z" fill="#CF1126"/>
<path d="M19.2001 18.1613C19.0113 18.0224 18.9501 17.8946 18.9501 17.6335C18.9501 17.5057 18.9779 17.4335 19.0613 17.3112C19.1946 17.1335 19.1724 17.0779 18.989 17.1279C18.6946 17.2112 18.5557 17.139 18.5446 16.889C18.5446 16.7668 18.5668 16.7168 18.7279 16.5168C18.8613 16.3612 18.9113 16.2779 18.8835 16.2501C18.8557 16.2279 18.7001 16.3612 18.3835 16.6835C18.1849 16.8928 17.9734 17.0895 17.7501 17.2724C17.2057 17.639 16.6835 17.6946 16.4446 17.4112C16.3224 17.2668 16.3279 17.189 16.4668 17.1001C16.5553 17.0404 16.6372 16.9715 16.7112 16.8946C16.9835 16.646 17.2837 16.4297 17.6057 16.2501C17.8057 16.1501 17.8501 16.0835 17.7224 16.0835C17.5557 16.0835 17.0279 16.4279 16.6224 16.7946C16.5057 16.9057 16.3335 17.0279 16.2446 17.0724C15.9974 17.1625 15.7299 17.1818 15.4724 17.1279C15.3501 17.089 15.1223 16.8779 15.1223 16.8001C15.1223 16.7835 15.1779 16.739 15.2335 16.7001C15.324 16.649 15.4096 16.5895 15.489 16.5224C15.8112 16.2446 16.4224 15.9501 16.9057 15.8446C17.0612 15.8168 17.0001 15.7335 16.8279 15.7446C16.318 15.842 15.8405 16.0654 15.439 16.3946C14.9779 16.7779 14.2835 16.739 14.0612 16.3224C14.0223 16.2501 13.9946 16.1835 14.0057 16.1724C14.3992 16.073 14.7796 15.9276 15.139 15.739C15.4486 15.5566 15.7897 15.4341 16.1446 15.3779C16.3001 15.3501 16.3112 15.2724 16.1612 15.2557C15.9612 15.2335 15.6612 15.3335 15.1335 15.589C14.4501 15.9279 14.2557 15.989 13.9001 15.9668C13.5668 15.9446 13.3835 15.8612 13.1223 15.6112C12.9446 15.4446 12.7001 15.0279 12.7446 14.9779C13.033 15.0386 13.3279 15.0628 13.6223 15.0501C14.0835 15.0501 14.2112 15.039 14.4557 14.9668C14.9332 14.8155 15.3834 14.5885 15.789 14.2946C16.3609 13.8108 17.0845 13.5434 17.8335 13.539C18.5224 13.539 18.9557 13.6946 19.3446 14.089C19.4779 14.2223 19.589 14.3057 19.6057 14.289C19.6224 14.2723 19.639 14.039 19.6446 13.7723C19.6446 13.7723 19.8501 13.7501 19.8946 13.8112C19.8946 14.239 19.8946 14.2779 19.9613 14.2779C20.0002 14.2779 20.0446 14.2335 20.0724 14.1668C20.1279 14.0279 20.3502 13.8335 20.5835 13.7112C21.0835 13.4612 21.9557 13.4501 22.6557 13.6946C22.9904 13.8215 23.3033 13.9996 23.5835 14.2223C23.9922 14.5098 24.4416 14.7345 24.9168 14.889C25.2946 15.0001 25.9724 15.0279 26.3113 14.9446C26.4104 14.9216 26.5105 14.9031 26.6113 14.889C26.7391 14.889 26.5224 15.3112 26.2668 15.5612C25.8002 16.0168 25.1946 16.0112 24.3446 15.5557C23.8113 15.2668 23.1779 15.1112 23.1779 15.2668C23.1779 15.3001 23.2113 15.3223 23.2613 15.3223C23.4446 15.3223 23.8002 15.4446 24.3002 15.6835C24.6143 15.8646 24.9588 15.987 25.3168 16.0446C25.4446 16.0446 25.4502 16.1279 25.328 16.3057C25.2002 16.4946 24.9835 16.5835 24.678 16.5835C24.3835 16.5835 24.2168 16.5224 23.9557 16.3057C23.5113 15.939 22.4224 15.5279 22.4613 15.7501C22.4724 15.789 22.5224 15.8168 22.6391 15.8335C23.1083 15.9354 23.5475 16.1446 23.9224 16.4446L24.2502 16.6835C24.3113 16.7168 24.3113 16.7279 24.2613 16.8224C24.1835 16.9779 23.9724 17.0946 23.7502 17.1168C23.4613 17.1501 23.2057 17.0612 22.9446 16.839C22.3891 16.3779 21.8724 16.0446 21.7057 16.0446C21.5668 16.0446 21.6279 16.1224 21.8724 16.2501C22.1886 16.4176 22.4833 16.6228 22.7502 16.8612C22.8613 16.9668 22.9891 17.0668 23.0279 17.089C23.1335 17.1446 23.1279 17.2224 23.0168 17.3668C22.9057 17.5113 22.7168 17.5779 22.4779 17.5501C22.0002 17.5001 21.6224 17.2724 21.0335 16.6612C20.8935 16.5049 20.7411 16.36 20.5779 16.2279C20.5002 16.2279 20.5502 16.3335 20.7002 16.5057C20.889 16.7112 20.9224 16.8279 20.8502 17.0057C20.789 17.1501 20.6835 17.189 20.4724 17.1279C20.2502 17.0724 20.2168 17.1279 20.3613 17.3001C20.5724 17.5724 20.5446 17.8946 20.2779 18.1224C20.2228 18.1755 20.1589 18.2187 20.089 18.2501C20.0668 18.2501 20.0113 18.1946 19.9613 18.1168C19.7946 17.8613 19.6446 17.8613 19.4779 18.1168C19.4428 18.1736 19.4057 18.2292 19.3668 18.2835C19.3106 18.2437 19.255 18.2029 19.2001 18.1613Z" fill="#CF1126"/>
<path d="M20.0386 12.9446L19.7497 13.1668L19.4941 12.9779V14.5224H20.0386V12.9446Z" fill="#CF1126"/>
<path d="M18.2725 11.35C18.2219 11.9746 18.0522 12.5838 17.7725 13.1445L18.3891 12.5723L18.8169 13.0834L19.2836 12.5612L19.7558 13.0056L20.2114 12.5445L20.6836 13.1001L21.0947 12.6445L21.7947 13.1445C21.5391 12.5889 21.2003 12.1112 21.2391 11.3223C20.5669 11.8223 18.9614 11.9112 18.2725 11.3445V11.35Z" fill="#CF1126"/>
<path d="M19.5001 10.978C19.25 10.978 18.9889 10.9835 18.7556 11.0335C18.6011 11.0581 18.4534 11.1149 18.3223 11.2002C18.3389 11.678 20.6001 11.8724 21.2056 11.2113C21.0693 11.117 20.9137 11.0543 20.7501 11.028C20.5278 10.9835 20.2723 10.9835 20.0334 10.9724V11.3669H19.5001V10.978Z" fill="#CF1126"/>
<path d="M19.9389 8.55566H19.5889V11.3001H19.9444L19.9389 8.55566Z" fill="#CF1126"/>
<path d="M19.9392 8.62234L19.8058 9.93901L21.1558 10.6001L20.4725 9.68345L21.4058 9.3779L19.9392 8.62234ZM19.7892 8.28345C19.5836 8.28345 19.4336 8.36123 19.4336 8.45011C19.4336 8.539 19.5836 8.61678 19.7892 8.61678C19.9947 8.61678 20.1447 8.539 20.1447 8.45011C20.1447 8.36123 19.9947 8.28345 19.7892 8.28345Z" fill="#CF1126"/>
<path d="M19.1665 31.3249C19.3915 31.2499 19.5165 31.1165 19.6081 30.8582C19.6498 30.7249 19.6831 30.5915 19.6748 30.5582C19.6581 30.4749 19.5581 30.4749 19.4581 30.5665C19.3831 30.6249 19.3748 30.6582 19.3915 30.7832C19.4498 31.0915 19.3331 31.1749 18.7498 31.2332C18.6915 31.2332 18.5165 31.2332 18.3748 31.2082C18.0915 31.1749 17.9915 31.2082 18.0915 31.2915C18.1453 31.326 18.2044 31.3513 18.2665 31.3665C18.4248 31.4082 18.9998 31.3832 19.1665 31.3249ZM20.3915 31.2749C20.4248 31.2415 20.5331 31.1915 20.6415 31.1499C20.7831 31.1082 20.8581 31.0665 20.9165 30.9665C21.0915 30.7165 21.0581 30.4915 20.8081 30.1915C20.6665 30.0249 20.6081 30.0332 20.4998 30.2165C20.3998 30.3665 20.4081 30.3832 20.5415 30.4165C20.6165 30.4332 20.6831 30.4832 20.7165 30.5499C20.8665 30.8082 20.8248 30.9665 20.5998 30.9665C20.3998 30.9665 20.3498 30.9999 20.2915 31.1332L20.2415 31.2915C20.2415 31.3415 20.3248 31.3332 20.3915 31.2749ZM19.9915 30.9832C20.0248 30.8749 20.0415 30.6915 20.0331 30.3165C20.0421 30.1384 20.0338 29.9598 20.0081 29.7832C19.9748 29.7499 19.8165 29.8499 19.7915 29.9249C19.7832 29.9864 19.798 30.0487 19.8331 30.0999C19.8831 30.1999 19.8915 30.2999 19.8748 30.6832C19.8498 31.1832 19.8831 31.2665 19.9915 30.9832Z" fill="#F7E017"/>
<path d="M19.0493 30.75L19.1076 30.3333C19.116 30.1917 19.1493 30.0167 19.166 29.9417C19.2243 29.75 19.166 29.7 19.016 29.8083L18.9076 29.8917L18.9243 30.1667C18.9493 30.4167 18.9076 30.875 18.8493 31.0583C18.8326 31.1083 18.8576 31.0917 18.9243 31.0167C18.9743 30.9583 19.0326 30.8333 19.0493 30.7417V30.75ZM18.216 30.8833C18.416 30.7167 18.391 30.4167 18.441 30.1833C18.441 30.025 18.541 29.8417 18.4743 29.7C18.2826 29.7333 18.166 29.9167 18.266 30.0917C18.266 30.3 18.266 30.525 18.1576 30.7083C18.0743 30.8333 17.791 30.8 17.8076 30.625C17.8743 30.375 17.566 30.5 17.4493 30.5667C17.3576 30.6333 17.1576 30.6417 17.2326 30.4833C17.1826 30.2583 16.9076 30.4 16.7576 30.4C16.616 30.4 16.7493 30.1083 16.541 30.15C16.166 30.125 15.7493 30.1583 15.416 29.9333C15.2243 29.8417 15.2493 29.6083 15.3576 29.4583C15.4743 29.2583 15.5076 29 15.691 28.8417C15.8826 28.6667 15.5243 28.7417 15.441 28.8C15.2576 28.9 15.4243 29.1583 15.2743 29.3C15.191 29.45 15.0743 29.65 14.8743 29.625C14.5826 29.5667 14.416 29.2917 14.2076 29.125C14.0243 29.0833 14.1243 29.4083 14.2243 29.475C14.409 29.6131 14.6183 29.7149 14.841 29.775C15.0576 29.7333 15.066 30.025 15.2576 30.0667C15.591 30.2333 15.9743 30.275 16.3493 30.3C16.4993 30.3083 16.416 30.575 16.6076 30.5167C16.716 30.55 16.966 30.475 16.9743 30.6C16.8076 30.8 17.1326 30.7917 17.2493 30.7667C17.4076 30.7333 17.5993 30.6833 17.641 30.8833C17.766 31.025 17.9993 31 18.1576 30.925L18.216 30.8833Z" fill="#F7E017"/>
<path d="M14.8999 29.2001C14.9782 29.0905 15.0452 28.9732 15.0999 28.8501C15.1423 28.7433 15.1983 28.6425 15.2665 28.5501C15.3665 28.4501 15.3082 28.3834 15.1499 28.4167C15.0665 28.4334 15.0332 28.4667 15.0249 28.5417C14.9875 28.7462 14.9171 28.9432 14.8165 29.1251C14.6749 29.3334 14.6749 29.3417 14.7332 29.3417C14.7582 29.3417 14.8332 29.2751 14.8999 29.2001ZM12.8165 27.8917C12.6582 27.8917 12.6499 27.9917 12.7999 28.0417C12.8832 28.0667 12.9415 28.1251 12.9915 28.2334C13.1332 28.5251 13.2249 28.5834 13.6165 28.6167L13.8665 28.6334L13.8832 28.7917C13.8832 28.8751 13.9082 28.9417 13.9249 28.9417L14.1415 28.8584C14.3249 28.7584 14.4999 28.5417 14.4999 28.4001C14.4999 28.3167 14.3499 28.2167 14.2165 28.2167C14.1582 28.2167 14.0499 28.2667 13.9582 28.3334C13.6749 28.5334 13.3749 28.5001 13.2082 28.2334C13.0832 28.0167 12.9415 27.9001 12.8165 27.9001V27.8917ZM14.1749 28.4334C14.2499 28.4334 14.2582 28.4917 14.2249 28.6001C14.2197 28.6148 14.2102 28.6275 14.1975 28.6366C14.1848 28.6456 14.1696 28.6504 14.154 28.6504C14.1385 28.6504 14.1233 28.6456 14.1106 28.6366C14.0979 28.6275 14.0883 28.6148 14.0832 28.6001C14.0499 28.5167 14.0915 28.4334 14.1665 28.4334H14.1749ZM24.7165 28.1001C24.6082 28.1001 24.5832 28.1167 24.5165 28.2167C24.4082 28.3751 24.3999 28.7167 24.4999 28.8334C24.5582 28.9084 24.5665 28.9084 24.6915 28.8501C24.8749 28.7751 24.9082 28.7834 24.8999 28.8751C24.8999 29.1251 24.5499 29.6001 24.1832 29.8501C24.108 29.8945 24.0404 29.9508 23.9832 30.0167C23.9582 30.0834 24.0915 30.0751 24.2582 29.9834C24.5342 29.8252 24.7618 29.5947 24.9165 29.3167C25.0082 29.1251 25.0249 29.0667 25.0415 28.7334C25.0415 28.4167 25.0415 28.3167 24.9915 28.2167C24.9249 28.1001 24.9082 28.0917 24.7582 28.0917H24.7165V28.1001ZM24.7249 28.3084C24.8082 28.3084 24.8082 28.3251 24.8249 28.4417C24.8249 28.5251 24.8165 28.5834 24.7665 28.6334C24.6999 28.6917 24.6832 28.6917 24.6332 28.6001C24.5499 28.4667 24.5999 28.3084 24.7249 28.3084ZM23.0415 30.6834C23.3665 30.5167 23.5582 30.3417 23.6749 30.0834C23.7182 30.0005 23.7544 29.9141 23.7832 29.8251C23.7832 29.7751 23.6249 29.7001 23.5332 29.7001C23.4415 29.7001 23.4165 29.6334 23.4499 29.4501C23.4915 29.2751 23.4499 29.0501 23.3665 29.0501C23.3415 29.0501 23.2832 29.0917 23.2582 29.1417C23.2082 29.2251 23.1999 29.2584 23.2415 29.3667C23.2999 29.5334 23.2499 29.6667 23.0999 29.7751C23.0249 29.8251 22.9915 29.8834 22.9915 29.9417L22.9999 30.0251L23.1749 29.9417L23.3415 29.8417L23.4332 29.9251C23.4915 29.9584 23.5332 30.0251 23.5332 30.0667C23.5332 30.2667 22.9665 30.6001 22.5832 30.6334C22.3749 30.6501 22.3332 30.6334 22.2665 30.5667C22.2082 30.5084 22.1915 30.4584 22.2082 30.4001L22.2499 30.1834C22.2832 30.0084 22.2165 30.0334 22.0832 30.2334C21.9832 30.4001 21.9499 30.5751 22.0082 30.6667C22.0582 30.7501 22.3749 30.8167 22.6082 30.8001C22.7499 30.8001 22.8915 30.7584 23.0415 30.6834ZM25.2082 29.4751C25.4082 29.2667 25.4999 29.0167 25.4999 28.6417V28.3501L25.6665 28.2667C25.8915 28.1667 26.0999 27.9584 26.0999 27.8417C26.0999 27.7251 26.0415 27.7251 25.9499 27.8584C25.8749 27.9501 25.7832 28.0084 25.4499 28.1667C25.3665 28.2001 25.3582 28.2251 25.3332 28.5834C25.3165 29.0001 25.2499 29.1501 25.0249 29.4334C24.8832 29.6001 24.8749 29.6334 24.9749 29.6334C25.0165 29.6334 25.1249 29.5584 25.2082 29.4667V29.4751ZM22.9832 29.2417C22.9999 29.1834 22.8832 29.1417 22.8415 29.1917C22.8165 29.2084 22.8082 29.2417 22.8249 29.2667C22.8582 29.3167 22.9582 29.3001 22.9832 29.2417ZM26.0499 28.4501C26.0749 28.3834 25.9582 28.3417 25.9082 28.3917C25.8915 28.4167 25.8832 28.4501 25.8999 28.4751C25.9332 28.5251 26.0332 28.5084 26.0499 28.4501ZM22.3582 26.2917C22.2749 26.3334 22.2332 26.4167 22.1832 26.4834C22.1415 26.5084 22.1749 26.5334 22.1915 26.5667C22.3332 26.7084 22.3915 26.9167 22.4582 27.1084C22.5249 27.3334 22.6082 27.5751 22.5415 27.8084C22.5165 27.8917 22.4415 27.9834 22.3415 27.9584C22.1749 27.9501 22.0082 27.9001 21.8415 27.9001C21.6832 27.9084 21.5665 28.0501 21.4165 28.0334C21.3165 28.0334 21.3165 27.8334 21.2332 27.8917C21.1832 28.0001 21.2082 28.1167 21.1999 28.2251C21.2165 28.2501 21.2665 28.2334 21.2915 28.2417H21.5999C21.6165 28.3417 21.6165 28.4667 21.6832 28.5501C21.7915 28.5834 21.9165 28.5501 22.0165 28.5084C22.1165 28.4584 22.1332 28.3334 22.1665 28.2334C22.1999 28.1251 22.3332 28.1501 22.4165 28.1084C22.5168 28.0772 22.6039 28.0137 22.6642 27.9277C22.7245 27.8418 22.7546 27.7383 22.7499 27.6334C22.7332 27.3084 22.6165 27.0167 22.5165 26.7167C22.4749 26.5834 22.4415 26.4417 22.3915 26.3084L22.3582 26.2917ZM21.8582 28.1084C21.9665 28.1084 22.0165 28.2417 21.9915 28.3334C21.9499 28.4584 21.7915 28.3834 21.7665 28.2917C21.7082 28.2084 21.7415 28.1001 21.8499 28.1084H21.8582Z" fill="#F7E017"/>
<path d="M17.666 27.0667C17.616 27.0667 17.5577 27.0833 17.4993 27.125C17.2077 27.3333 17.1243 27.575 17.3327 27.675C17.4743 27.7417 17.441 27.825 17.2077 27.9417C16.8743 28.1083 16.5827 28.0833 16.0243 27.8583C15.891 27.8 15.8577 27.825 15.8827 27.9417C15.916 28.0667 16.0327 28.1333 16.3077 28.1917C16.6077 28.275 16.9743 28.25 17.2077 28.15C17.3446 28.0801 17.4664 27.9838 17.566 27.8667L17.7493 27.675L17.9577 27.7C18.216 27.7333 18.2243 27.7333 18.2243 27.8583C18.2243 27.9583 18.2243 27.9583 18.466 27.9833L18.8577 28C18.966 28 19.0243 28.025 19.0577 28.075C19.1077 28.1333 19.1327 28.1417 19.5243 28.1083C19.891 28.075 19.9577 28.075 20.1243 28.1333C20.241 28.1667 20.3743 28.1833 20.466 28.175C20.7493 28.1417 21.1327 27.9167 21.191 27.75C21.191 27.725 21.2993 27.6917 21.416 27.6667C21.6993 27.6083 21.7077 27.55 21.4493 27.5167C21.3187 27.4994 21.1903 27.4687 21.066 27.425C20.973 27.3856 20.8747 27.3604 20.7743 27.35C20.6327 27.35 20.4993 27.4333 20.4993 27.5333C20.4993 27.5917 20.516 27.6 20.691 27.5833C20.841 27.5667 20.891 27.575 20.9743 27.6417C21.0327 27.6833 21.066 27.7333 21.0577 27.75C21.016 27.8167 20.6827 27.9667 20.541 27.9917C20.4554 28.0059 20.3674 27.9912 20.291 27.95C20.1577 27.8833 19.9743 27.875 19.9327 27.9333C19.916 27.9583 19.8827 27.9417 19.8243 27.8917L19.741 27.8083L19.541 27.8917C19.341 27.975 19.266 27.975 19.266 27.875C19.266 27.8333 19.2077 27.825 18.916 27.85C18.591 27.8667 18.5577 27.8583 18.4993 27.7917C18.441 27.7333 18.441 27.7083 18.4827 27.65C18.516 27.5833 18.516 27.5667 18.4827 27.525C18.4493 27.4917 18.3993 27.4917 18.2743 27.525C17.9493 27.6083 17.8577 27.5667 17.8577 27.3167C17.8577 27.1583 17.7743 27.0667 17.666 27.0667ZM17.5827 27.3C17.5993 27.3 17.616 27.3083 17.641 27.3333C17.666 27.3583 17.6827 27.4167 17.666 27.4417C17.641 27.5167 17.4993 27.5167 17.4743 27.4417C17.4577 27.4 17.4743 27.3583 17.516 27.3333L17.5827 27.3Z" fill="#F7E017"/>
<path d="M17 27.5332C17.2 27.4082 17.2 27.4166 17.225 27.0749C17.2417 26.8249 17.2417 26.8082 17.175 26.8082C17.075 26.8082 17.025 26.9166 17.025 27.1166C17.025 27.2499 17.0084 27.3082 16.9417 27.3666C16.775 27.5332 16.375 27.4582 16.3167 27.2582C16.3 27.1916 16.325 27.1249 16.4084 27.0082C16.5834 26.7582 16.55 26.6916 16.325 26.8832C16.1834 27.0166 16.1584 27.0166 16.1834 26.9082C16.2084 26.7999 16.1584 26.7582 16.0334 26.7916C15.975 26.8082 15.9334 26.8416 15.925 26.9249C15.9084 26.9916 15.875 27.0332 15.8167 27.0499C15.7167 27.0749 15.55 26.9832 15.55 26.8999C15.55 26.8416 15.8 26.5332 16.125 26.1999C16.2417 26.0749 16.3417 25.9499 16.3417 25.9416C16.3417 25.9249 16.275 25.9082 16.2 25.9082C16.0834 25.9082 16.05 25.9249 16.05 25.9749C16.05 26.0082 15.8917 26.2249 15.6917 26.4499C15.275 26.9166 15.2417 27.0082 15.4417 27.1332C15.525 27.1846 15.6214 27.2103 15.7192 27.2074C15.817 27.2044 15.9117 27.1728 15.9917 27.1166L16.125 27.0249V27.1916C16.125 27.3999 16.1667 27.4832 16.3334 27.5666C16.4376 27.6201 16.5541 27.6452 16.6712 27.6393C16.7882 27.6335 16.9016 27.5969 17 27.5332ZM25.7 24.6499C25.55 24.7416 25.6667 24.9332 25.7 25.0666C25.6334 25.2332 25.4084 25.2832 25.2417 25.3166C25.0084 25.3582 24.8417 25.5499 24.7584 25.7582C24.7084 25.8916 24.5917 26.0916 24.4667 25.8916C24.3584 25.7832 24.1584 25.6916 24.0334 25.8249C23.9334 25.9166 23.9084 26.0499 23.8667 26.1749C23.8084 26.0832 23.7834 25.9416 23.6667 25.9082C23.4667 25.9332 23.5417 26.1832 23.6334 26.2832C23.7167 26.4082 23.8 26.5582 23.7167 26.6999C23.6334 26.8666 23.3834 26.9832 23.2417 26.8416C23.1084 26.7666 23.2 26.5082 23.0584 26.4916C22.9917 26.5416 22.9917 26.8166 22.8834 26.6666C22.8 26.5416 22.85 26.3666 22.75 26.2582C22.6417 26.2749 22.55 26.4666 22.5834 26.5666C22.7334 26.7666 22.8 27.0166 22.8584 27.2582C22.8917 27.3582 22.85 27.5499 22.9417 27.5916C23 27.4332 22.9417 27.2582 22.9917 27.0999C23.1417 27.0832 23.3 27.1499 23.45 27.1166C23.675 27.0916 23.8417 26.8999 23.9167 26.7082C23.9417 26.5582 23.9167 26.4082 23.9084 26.2582C24.075 26.2916 24.2584 26.2916 24.425 26.3416C24.5084 26.4666 24.4 26.6499 24.375 26.7832C24.2917 27.0666 24.0667 27.2666 23.8584 27.4499C23.7667 27.5082 23.7584 27.6499 23.8834 27.5749C24.1684 27.4395 24.3916 27.2014 24.5084 26.9082C24.6 26.6916 24.525 26.4499 24.5917 26.2332C24.675 26.0666 24.8834 26.0999 25.0417 26.0999C25.2 26.0999 25.3334 25.9082 25.2834 25.7499C25.2334 25.5666 25.425 25.4832 25.55 25.4166C25.725 25.3332 25.8584 25.1582 25.8417 24.9582C25.8417 24.8499 25.8417 24.6582 25.7 24.6499ZM25.0917 25.6916C25.275 25.7416 25.0584 26.0916 24.9584 25.8666C24.925 25.7832 25 25.6916 25.0917 25.6916ZM24.2334 25.9416C24.475 25.9332 24.3834 26.2749 24.1834 26.1249C24.075 26.0666 24.1084 25.9416 24.2334 25.9416ZM15.5 27.2999C15.5 27.2666 15.4834 27.2416 15.45 27.2416C15.3917 27.2416 15.35 27.2999 15.375 27.3499C15.4084 27.4082 15.4834 27.3749 15.5 27.2999ZM18.3334 26.9999C18.3334 26.9416 18.3084 26.9249 18.2667 26.9332C18.175 26.9499 18.1584 27.0749 18.2584 27.0749C18.3084 27.0749 18.3334 27.0499 18.3334 26.9916V26.9999ZM14.8334 25.2999C14.725 25.2749 14.65 25.3749 14.6084 25.4666C14.525 25.6082 14.425 25.7499 14.275 25.8249C14.1667 25.8582 14.05 25.8166 13.95 25.7582C13.8417 25.6999 13.8667 25.5666 13.8167 25.4749C13.7334 25.4082 13.5917 25.4999 13.6 25.5999C13.5917 25.7332 13.7084 25.8082 13.8167 25.8582C13.9 25.9166 14.0334 25.9416 14.0667 26.0499C14.0667 26.1416 14.1 26.2499 14.2084 26.2166C14.3334 26.2166 14.375 26.3666 14.3167 26.4582C14.261 26.5599 14.2405 26.6771 14.2584 26.7916C14.3167 26.8499 14.375 26.7082 14.425 26.6749L14.5084 26.5582C14.7334 26.5666 14.95 26.5999 15.175 26.5916C15.3417 26.5916 15.4667 26.4916 15.5667 26.3749C15.7167 26.2249 15.8334 26.0499 15.9917 25.9249C16.1084 25.8916 16.05 25.6749 15.925 25.7416C15.8167 25.7832 15.7834 25.9082 15.7084 25.9832C15.5868 26.1434 15.447 26.2888 15.2917 26.4166C15.1667 26.4666 15.0334 26.4416 14.9084 26.4166C14.8584 26.3749 15.0084 26.3332 15.0334 26.2832C15.1 26.2166 15.1834 26.1499 15.225 26.0582C15.1834 25.9749 15.0667 25.9749 14.9834 25.9749C14.7834 25.9916 14.625 26.1666 14.4167 26.1832C14.2584 26.1832 14.3417 26.0166 14.4167 25.9582C14.55 25.7916 14.7 25.6416 14.8417 25.4832C14.8834 25.4332 15.0334 25.3832 14.9417 25.3166C14.9084 25.2999 14.8667 25.2999 14.8334 25.2999ZM14.9334 26.1332C15.0417 26.1916 14.8667 26.2832 14.8 26.2749C14.7084 26.2999 14.7 26.2082 14.7834 26.1916C14.8334 26.1582 14.8834 26.1332 14.9334 26.1332ZM14.6167 26.3499C14.675 26.3499 14.8 26.4082 14.6834 26.4416C14.6 26.5082 14.5167 26.3749 14.6167 26.3499Z" fill="#F7E017"/>
<path d="M17.1164 26.4833C17.1164 26.4 16.9831 26.4167 16.9664 26.5C16.9498 26.55 16.9664 26.5583 17.0331 26.55C17.0831 26.55 17.1164 26.5167 17.1164 26.4833ZM23.3414 25.9333C23.3581 25.8583 23.2581 25.8083 23.1998 25.8667C23.1414 25.9167 23.1998 26.025 23.2664 26.0083C23.2998 26.0083 23.3331 25.9667 23.3498 25.9333H23.3414ZM13.6664 25.175C13.7581 25.0917 13.7664 25.0833 13.7248 24.9C13.6581 24.6417 13.6664 24.6083 13.7664 24.5833C13.8914 24.5583 14.2081 24.725 14.2664 24.8583C14.3331 24.9667 14.3248 24.975 14.2331 25.0583C14.1331 25.15 14.1331 25.2583 14.2331 25.2583C14.3164 25.2583 14.5414 25.0417 14.5414 24.9667C14.5414 24.8583 14.2914 24.6 14.0914 24.5083C13.9714 24.4524 13.8405 24.424 13.7081 24.425C13.4498 24.425 13.4164 24.4833 13.4831 24.775C13.5664 25.125 13.4581 25.175 13.1748 24.9083C13.074 24.8196 12.9951 24.7087 12.9445 24.5843C12.8939 24.46 12.8729 24.3255 12.8831 24.1917C12.8831 23.8583 13.0164 23.6833 13.3081 23.6417C13.5081 23.6167 13.4998 23.5667 13.3081 23.5417C13.0081 23.4917 12.7581 23.6917 12.6664 24.0417C12.5581 24.4333 12.7998 24.9083 13.2248 25.15C13.4498 25.275 13.5331 25.2833 13.6664 25.175ZM25.2664 24.7417C25.2914 24.725 25.3081 24.6667 25.3081 24.625C25.3081 24.5833 25.3498 24.4917 25.3998 24.425C25.4498 24.3583 25.4831 24.2917 25.4831 24.275C25.4831 24.2083 25.3748 24.2083 25.2914 24.275C25.1998 24.35 25.1248 24.3583 25.1248 24.275L25.2248 24.2C25.3581 24.1417 25.3664 24.075 25.2581 24.025C25.1164 23.9583 24.9664 24.075 24.9581 24.275C24.9498 24.4083 24.9581 24.425 25.0581 24.4833C25.1498 24.5417 25.1664 24.5667 25.1498 24.65C25.1248 24.7833 25.1831 24.8333 25.2664 24.7417ZM26.3498 24.625C26.4331 24.5417 26.4998 24.4667 26.4998 24.4417C26.4998 24.4167 26.5748 24.3417 26.6581 24.275C26.8914 24.1083 26.9498 23.9417 26.8414 23.6667C26.7998 23.5583 26.6748 23.4167 26.3831 23.1667C26.2502 23.0248 26.0989 22.9015 25.9331 22.8C25.8581 22.8 25.8748 23.0833 25.9498 23.1083C26.0914 23.1583 26.1831 23.2167 26.3998 23.4167C26.6664 23.65 26.7831 23.875 26.7164 24C26.6581 24.1167 26.5748 24.0833 26.3414 23.8333C26.2658 23.7393 26.1758 23.6577 26.0748 23.5917C26.0498 23.5917 26.0331 23.6417 26.0331 23.7083C26.0331 23.7917 26.0748 23.875 26.1998 24C26.3914 24.2167 26.4081 24.3417 26.2581 24.4583C26.2243 24.4926 26.1848 24.5208 26.1414 24.5417C25.9509 24.2156 25.6957 23.932 25.3914 23.7083C25.3664 23.7083 25.3498 23.7417 25.3498 23.825C25.3498 23.9333 25.3664 23.9667 25.4498 24.0083C25.6688 24.1765 25.8649 24.3726 26.0331 24.5917L26.1831 24.7583C26.2453 24.7195 26.3014 24.6718 26.3498 24.6167V24.625ZM26.8498 23.225C26.8081 23.125 26.1498 22.4417 26.0748 22.4417C26.0414 22.4417 26.0331 22.4833 26.0414 22.5917C26.0414 22.725 26.0664 22.7417 26.1581 22.7667C26.3004 22.8499 26.4296 22.9538 26.5414 23.075C26.632 23.1724 26.7358 23.2565 26.8498 23.325V23.225ZM22.8664 30.9417C22.8709 30.9541 22.8718 30.9672 22.8691 30.98C22.8663 30.9928 22.8601 31.0049 22.8508 31.0153C22.8415 31.0257 22.8294 31.0341 22.8154 31.0399C22.8015 31.0458 22.7862 31.0488 22.7706 31.0488C22.755 31.0488 22.7397 31.0458 22.7257 31.0399C22.7118 31.0341 22.6997 31.0257 22.6904 31.0153C22.6811 31.0049 22.6748 30.9928 22.6721 30.98C22.6694 30.9672 22.6703 30.9541 22.6748 30.9417C22.6703 30.9292 22.6694 30.9161 22.6721 30.9033C22.6748 30.8905 22.6811 30.8785 22.6904 30.868C22.6997 30.8576 22.7118 30.8492 22.7257 30.8434C22.7397 30.8375 22.755 30.8345 22.7706 30.8345C22.7862 30.8345 22.8015 30.8375 22.8154 30.8434C22.8294 30.8492 22.8415 30.8576 22.8508 30.868C22.8601 30.8785 22.8663 30.8905 22.8691 30.9033C22.8718 30.9161 22.8709 30.9292 22.8664 30.9417ZM23.2164 30.825C23.2164 30.8359 23.2138 30.8468 23.2088 30.8569C23.2038 30.867 23.1964 30.8762 23.1871 30.8839C23.1779 30.8916 23.1668 30.8978 23.1547 30.902C23.1426 30.9062 23.1296 30.9083 23.1164 30.9083C23.1033 30.9083 23.0903 30.9062 23.0782 30.902C23.066 30.8978 23.055 30.8916 23.0457 30.8839C23.0364 30.8762 23.0291 30.867 23.024 30.8569C23.019 30.8468 23.0164 30.8359 23.0164 30.825C23.0164 30.814 23.019 30.8032 23.024 30.7931C23.0291 30.783 23.0364 30.7738 23.0457 30.7661C23.055 30.7583 23.066 30.7522 23.0782 30.748C23.0903 30.7438 23.1033 30.7417 23.1164 30.7417C23.1296 30.7417 23.1426 30.7438 23.1547 30.748C23.1668 30.7522 23.1779 30.7583 23.1871 30.7661C23.1964 30.7738 23.2038 30.783 23.2088 30.7931C23.2138 30.8032 23.2164 30.814 23.2164 30.825Z" fill="#F7E017"/>
</g>
<defs>
<clipPath id="clip0_8424_43209">
<rect width="40" height="40" rx="20" fill="white"/>
</clipPath>
</defs>
</svg>
