<svg width="40" height="40" viewBox="0 0 40 40" fill="none" xmlns="http://www.w3.org/2000/svg">
<g clip-path="url(#clip0_8424_43207)">
<path fill-rule="evenodd" clip-rule="evenodd" d="M-13 0L20.5 20L-13 40V0ZM54 0L20.5 20L54 40V0Z" fill="#18B637"/>
<path fill-rule="evenodd" clip-rule="evenodd" d="M-13 0L20.5 20L54 0H-13ZM-13 40L20.5 20L54 40H-13Z" fill="#CF0921"/>
<path fill-rule="evenodd" clip-rule="evenodd" d="M54 0H47.7578L-13 36.2734V40H-6.75781L54 3.72656V0Z" fill="white"/>
<path fill-rule="evenodd" clip-rule="evenodd" d="M32.0703 20C32.0703 23.0676 30.8517 26.0096 28.6826 28.1787C26.5135 30.3478 23.5715 31.5664 20.5039 31.5664C17.4363 31.5664 14.4943 30.3478 12.3252 28.1787C10.1561 26.0096 8.9375 23.0676 8.9375 20C8.9375 16.9334 10.1557 13.9925 12.3241 11.8241C14.4925 9.65569 17.4334 8.4375 20.5 8.4375C23.5666 8.4375 26.5075 9.65569 28.6759 11.8241C30.8443 13.9925 32.0625 16.9334 32.0625 20H32.0703Z" fill="white"/>
<path fill-rule="evenodd" clip-rule="evenodd" d="M-13 0V3.72656L47.7578 40H54V36.2734L-6.75781 0H-13Z" fill="white"/>
<path fill-rule="evenodd" clip-rule="evenodd" d="M22.7812 15.6406L21.2734 15.6641L20.4922 16.9453L19.7188 15.6641L18.2188 15.6328L18.9453 14.3125L18.2266 13L19.7266 12.9687L20.5078 11.6875L21.2812 12.9766L22.7812 13.0078L22.0547 14.3203L22.7812 15.6406ZM17.7344 24.3594L16.2344 24.3828L15.4531 25.6641L14.6797 24.3828L13.1797 24.3516L13.9062 23.0312L13.1875 21.7188L14.6875 21.6875L15.4687 20.4063L16.2422 21.6953L17.7422 21.7266L17.0156 23.0391L17.7344 24.3594ZM27.9375 24.3594L26.4375 24.3828L25.6562 25.6641L24.875 24.3828L23.3828 24.3516L24.1094 23.0312L23.3828 21.7188L24.8828 21.6875L25.6641 20.4063L26.4453 21.6953L27.9453 21.7266L27.2109 23.0391L27.9375 24.3594Z" fill="#CF0921"/>
<path fill-rule="evenodd" clip-rule="evenodd" d="M20.5088 11.3932L21.3685 12.826L23.0367 12.8608L22.2286 14.3206L23.0367 15.7891L21.3597 15.8151L20.4915 17.2391L19.6316 15.8147L17.9639 15.7799L18.7715 14.3124L17.9723 12.853L19.6399 12.8182L20.5088 11.3932ZM20.5067 11.9819L19.8131 13.1194L18.4807 13.1471L19.119 14.3127L18.4735 15.4858L19.8057 15.5135L20.4928 16.6517L21.187 15.5131L22.5256 15.4923L21.8806 14.3201L22.5257 13.1549L21.1939 13.1272L20.5067 11.9819ZM15.4697 20.1119L16.3295 21.5448L17.9977 21.5795L17.1893 23.0397L17.9885 24.5078L16.3207 24.5339L15.4524 25.9578L14.5926 24.5334L12.9248 24.4987L13.7324 23.0311L12.9332 21.5717L14.6008 21.537L15.4697 20.1119ZM25.6644 20.113L26.5321 21.5448L28.2021 21.5796L27.3851 23.0397L28.193 24.5078L26.5238 24.5339L25.6562 25.9567L24.7883 24.5334L23.1279 24.4986L23.9353 23.0315L23.1272 21.5717L24.7961 21.537L25.6644 20.113ZM15.4676 20.7006L14.7741 21.8381L13.4417 21.8659L14.08 23.0315L13.4344 24.2045L14.7667 24.2323L15.4537 25.3704L16.148 24.2318L17.4801 24.211L16.8418 23.0385L17.4866 21.8737L16.1548 21.8459L15.4676 20.7006ZM25.6636 20.6996L24.9694 21.8381L23.6383 21.8658L24.2833 23.0311L23.6376 24.2046L24.9616 24.2323L25.6562 25.3715L26.3511 24.2318L27.6819 24.211L27.0366 23.0385L27.6884 21.8736L26.3584 21.8459L25.6636 20.6996Z" fill="#18B637"/>
</g>
<defs>
<clipPath id="clip0_8424_43207">
<rect width="40" height="40" rx="20" fill="white"/>
</clipPath>
</defs>
</svg>
