<svg width="40" height="40" viewBox="0 0 40 40" fill="none" xmlns="http://www.w3.org/2000/svg">
<g clip-path="url(#clip0_8424_43414)">
<path fill-rule="evenodd" clip-rule="evenodd" d="M-12.9922 18.2517H53.3092V34.3884H-13L-12.9922 18.2517Z" fill="white"/>
<path fill-rule="evenodd" clip-rule="evenodd" d="M-12.9453 0H53.3247V20.1003H-12.9453V0ZM-12.9218 30.2288H53.826V40.1067H-12.9218V30.2288Z" fill="#081873"/>
<path fill-rule="evenodd" clip-rule="evenodd" d="M-12.9219 23.7036H53.3481V26.8056H-12.9219V23.7036Z" fill="#DE3929"/>
<path fill-rule="evenodd" clip-rule="evenodd" d="M6.93611 31.2707L7.45311 32.8687H9.12944L7.76644 33.8635L8.28344 35.4694L6.93611 34.4667L5.57311 35.4615L6.09794 33.8557L4.73494 32.8609H6.41911M21.5061 19.6147L22.0309 21.2205H23.6994L22.3364 22.2075L22.8534 23.8134L21.4904 22.8185L20.1274 23.8134L20.6444 22.2075L19.2814 21.2205H20.9734M3.58344 26.2652L4.10044 27.871H5.78461L4.42944 28.8737L4.95427 30.4717L3.59127 29.4847L2.22827 30.4717L2.74527 28.8737L1.38227 27.8789H3.06644M21.5061 25.8109L22.0309 27.4089H23.6994L22.3364 28.4037L22.8534 30.0017L21.4904 29.0147L20.1274 30.0095L20.6444 28.4037L19.2814 27.4089H20.9734M17.8009 14.7423L18.3258 16.3404H20.0178L18.6548 17.3352L19.1718 18.941L17.8088 17.9462L16.4458 18.941L16.9706 17.3352L15.5998 16.3404H17.2918M12.2393 12.7997L12.7641 14.4055H14.4483L13.0853 15.3925L13.6023 16.9984L12.2393 16.0113L10.8763 16.9984L11.4011 15.3925L10.0381 14.4055H11.7144M6.66194 14.6327L7.18677 16.2385H8.87094L7.50794 17.2255L8.03277 18.8313L6.66194 17.8365L5.29894 18.8313L5.82377 17.2255L4.46077 16.2385H6.15277M3.42677 19.6225L3.94377 21.2284H5.63577L4.26494 22.2154L4.78977 23.8212L3.42677 22.8264L2.06377 23.8212L2.58077 22.2154L1.21777 21.2284H2.90194M12.2393 32.9314L12.7641 34.5372H14.4483L13.0853 35.5242L13.6101 37.13L12.2393 36.1352L10.8763 37.13L11.4011 35.5242L10.0381 34.5372H11.7144M18.1534 31.2707L18.6704 32.8687H20.3546L18.9994 33.8635L19.5243 35.4694L18.1613 34.4745L16.7904 35.4694L17.3153 33.8635L15.9523 32.8687H17.6364" fill="#FFCE08"/>
</g>
<defs>
<clipPath id="clip0_8424_43414">
<rect width="40" height="40" rx="20" fill="white"/>
</clipPath>
</defs>
</svg>
