<svg width="40" height="40" viewBox="0 0 40 40" fill="none" xmlns="http://www.w3.org/2000/svg">
<g clip-path="url(#clip0_8424_43258)">
<path d="M-7 0H46.3333V40H-7V0Z" fill="#032EA1"/>
<path d="M-7 10H46.3333V30H-7V10Z" fill="#E00025"/>
<path d="M14.0332 18.8501H25.4132V23.2301H14.0332V18.8501Z" fill="white"/>
<path fill-rule="evenodd" clip-rule="evenodd" d="M13.9834 18.85L14.0334 18.8H25.4134L25.4634 18.85V23.23L25.4134 23.28H14.0334L13.9834 23.23V18.85ZM14.0834 18.9V23.18H25.3634V18.9H14.0834Z" fill="black"/>
<path d="M24.8332 21.26H25.1832V22.91H24.8332V21.26ZM14.0332 20.45H25.4132V20.95H14.0332V20.45ZM14.0332 19.75H25.4132V20.21H14.0332V19.75Z" fill="white"/>
<path fill-rule="evenodd" clip-rule="evenodd" d="M13.9834 19.75L14.0334 19.7H25.4134L25.4634 19.75V20.2099L25.4134 20.2599H14.0334L13.9834 20.2099V19.75ZM14.0834 19.8V20.1599H25.3634V19.8H14.0834ZM13.9834 20.45L14.0334 20.4H25.4134L25.4634 20.45V20.95L25.4134 21H14.0334L13.9834 20.95V20.45ZM14.0834 20.5V20.9H25.3634V20.5H14.0834ZM24.7834 21.2599L24.8334 21.2099H25.1834L25.2334 21.2599V22.9099L25.1834 22.9599H24.8334L24.7834 22.9099V21.2599ZM24.8834 21.3099V22.8599H25.1334V21.3099H24.8834Z" fill="black"/>
<path d="M14.0332 19.0701H25.4132V19.5001H14.0332V19.0701Z" fill="white"/>
<path fill-rule="evenodd" clip-rule="evenodd" d="M13.9883 19.0701L14.0333 19.0251H25.4133L25.4583 19.0701V19.5001L25.4133 19.5451H14.0333L13.9883 19.5001V19.0701ZM14.0783 19.1151V19.4551H25.3683V19.1151H14.0783Z" fill="black"/>
<path d="M17.0338 21.26H17.3938V22.91H17.0338V21.26ZM21.9338 21.26H22.2938V22.91H21.9338V21.26ZM14.1338 21.26H14.4838V22.91H14.1338V21.26ZM14.8338 21.26H15.1838V22.91H14.8338V21.26ZM15.5838 21.26H15.9338V22.91H15.5838V21.26ZM16.3338 21.26H16.6838V22.91H16.3338V21.26ZM22.6138 21.26H22.9738V22.91H22.6138V21.26ZM23.3638 21.26H23.7238V22.91H23.3638V21.26ZM24.1138 21.26H24.4738V22.91H24.1138V21.26Z" fill="white"/>
<path fill-rule="evenodd" clip-rule="evenodd" d="M14.083 21.26L14.133 21.21H14.483L14.533 21.26V22.91L14.483 22.96H14.133L14.083 22.91V21.26ZM14.183 21.31V22.86H14.433V21.31H14.183ZM14.783 21.26L14.833 21.21H15.183L15.233 21.26V22.91L15.183 22.96H14.833L14.783 22.91V21.26ZM14.883 21.31V22.86H15.133V21.31H14.883ZM15.533 21.26L15.583 21.21H15.933L15.983 21.26V22.91L15.933 22.96H15.583L15.533 22.91V21.26ZM15.633 21.31V22.86H15.883V21.31H15.633ZM16.283 21.26L16.333 21.21H16.683L16.733 21.26V22.91L16.683 22.96H16.333L16.283 22.91V21.26ZM16.383 21.31V22.86H16.633V21.31H16.383ZM16.983 21.26L17.033 21.21H17.393L17.443 21.26V22.91L17.393 22.96H17.033L16.983 22.91V21.26ZM17.083 21.31V22.86H17.343V21.31H17.083ZM21.883 21.26L21.933 21.21H22.293L22.343 21.26V22.91L22.293 22.96H21.933L21.883 22.91V21.26ZM21.983 21.31V22.86H22.243V21.31H21.983ZM22.563 21.26L22.613 21.21H22.973L23.023 21.26V22.91L22.973 22.96H22.613L22.563 22.91V21.26ZM22.663 21.31V22.86H22.923V21.31H22.663ZM23.313 21.26L23.363 21.21H23.723L23.773 21.26V22.91L23.723 22.96H23.363L23.313 22.91V21.26ZM23.413 21.31V22.86H23.673V21.31H23.413ZM24.063 21.26L24.113 21.21H24.473L24.523 21.26V22.91L24.473 22.96H24.113L24.063 22.91V21.26ZM24.163 21.31V22.86H24.423V21.31H24.163Z" fill="black"/>
<path d="M9.58301 23.4502C9.79211 23.3363 9.94959 23.1466 10.023 22.9202H29.333C29.4064 23.1466 29.5639 23.3363 29.773 23.4502H9.58301Z" fill="white"/>
<path fill-rule="evenodd" clip-rule="evenodd" d="M9.98713 22.8701H29.3698L29.381 22.9047C29.4505 23.119 29.5995 23.2985 29.7974 23.4062L29.7735 23.5001H9.58348L9.55957 23.4062C9.75743 23.2985 9.90644 23.119 9.97591 22.9047L9.98713 22.8701ZM10.0591 22.9701C9.99695 23.14 9.88929 23.2885 9.74907 23.4001H29.6079C29.4677 23.2885 29.36 23.14 29.2978 22.9701H10.0591Z" fill="black"/>
<path d="M19.4328 12.18C19.4328 12.18 19.4228 11.77 19.6628 11.76C19.8928 11.76 19.8828 12.18 19.8828 12.18H19.4328ZM18.1828 17.63V17.08C18.1828 16.8 17.9028 16.78 17.9028 16.58C17.9028 16.58 17.8628 16.28 17.9428 16.14C18.0528 16.54 18.2428 16.47 18.2428 16.3C18.2428 16.16 18.1428 16.02 17.9128 15.67C17.8328 15.56 17.8828 15.21 17.9828 15.08C18.0228 15.38 18.0728 15.53 18.2028 15.53C18.2828 15.53 18.3428 15.48 18.3428 15.33C18.3428 15.13 18.2128 15.03 18.1428 14.85C18.1083 14.7604 18.1004 14.6628 18.1199 14.5688C18.1394 14.4749 18.1855 14.3885 18.2528 14.32C18.3028 14.62 18.2928 14.74 18.4228 14.74C18.6928 14.65 18.4228 14.26 18.3628 14.16C18.3028 14.05 18.4628 13.82 18.4628 13.82C18.5428 14.09 18.5628 14.11 18.6628 14.08C18.7828 14.05 18.7628 13.88 18.6228 13.74C18.5328 13.64 18.5428 13.51 18.6428 13.41C18.7428 13.6 18.8628 13.59 18.8728 13.47L18.7928 13.03H20.5328L20.4428 13.46C20.4228 13.58 20.5828 13.61 20.6828 13.41C20.7828 13.51 20.7928 13.65 20.7028 13.74C20.5628 13.88 20.5428 14.05 20.6628 14.08C20.7628 14.11 20.7828 14.08 20.8628 13.82C20.8628 13.82 21.0128 13.97 20.9628 14.16C20.9028 14.26 20.6328 14.66 20.9028 14.74C21.0328 14.74 21.0228 14.62 21.0728 14.32C21.1384 14.3896 21.1827 14.4764 21.2004 14.5704C21.2181 14.6643 21.2086 14.7614 21.1728 14.85C21.1128 15.03 20.9728 15.13 20.9728 15.33C20.9728 15.48 21.0428 15.53 21.1228 15.53C21.2528 15.53 21.3028 15.39 21.3428 15.08C21.4428 15.21 21.4928 15.56 21.4128 15.68C21.1828 16.02 21.0728 16.16 21.0728 16.3C21.0728 16.47 21.2728 16.54 21.3728 16.14C21.4628 16.28 21.4228 16.58 21.4228 16.58C21.4228 16.78 21.1528 16.8 21.1428 17.08V17.63H18.1828ZM18.9028 13.03L18.8628 12.72H20.4528L20.4128 13.03H18.9028ZM19.0028 12.71L18.9828 12.46H20.3328L20.3028 12.71H19.0028ZM19.2328 12.45L19.2028 12.19H20.1028L20.0928 12.45H19.2328ZM22.5328 23.45C22.3328 23.38 22.0328 23.16 22.0328 22.95V20.52L22.2928 20.18H17.0328L17.2828 20.52V22.95C17.2828 23.16 17.0828 23.38 16.8828 23.45H22.5328Z" fill="white"/>
<path d="M17.9531 21.26H18.3131V22.91H17.9531V21.26ZM20.9931 21.26H21.3531V22.91H20.9931V21.26Z" fill="white"/>
<path fill-rule="evenodd" clip-rule="evenodd" d="M17.9033 21.26L17.9533 21.21H18.3133L18.3633 21.26V22.91L18.3133 22.96H17.9533L17.9033 22.91V21.26ZM18.0033 21.31V22.86H18.2633V21.31H18.0033ZM20.9433 21.26L20.9933 21.21H21.3533L21.4033 21.26V22.91L21.3533 22.96H20.9933L20.9433 22.91V21.26ZM21.0433 21.31V22.86H21.3033V21.31H21.0433Z" fill="black"/>
<path d="M16.9329 17.4199V20.1799H22.3329V17.4199C22.2705 17.4427 22.2144 17.48 22.1692 17.5286C22.124 17.5773 22.091 17.636 22.0729 17.6999V18.8799H17.2029V17.6999C17.2029 17.6999 17.1429 17.4999 16.9229 17.4199H16.9329Z" fill="white"/>
<path fill-rule="evenodd" clip-rule="evenodd" d="M22.3828 17.3486V20.2301H16.8828V17.4201H16.914L16.9228 17.3701H16.9828V17.3909C17.0803 17.4363 17.145 17.5032 17.1861 17.5612C17.2095 17.5943 17.2254 17.6246 17.2355 17.647C17.2406 17.6582 17.2443 17.6674 17.2467 17.6741C17.248 17.6774 17.2489 17.6801 17.2495 17.6821L17.2503 17.6845L17.2506 17.6853L17.2506 17.6856L17.2507 17.6857C17.2507 17.6857 17.2507 17.6858 17.2028 17.7001L17.2507 17.6858L17.2528 17.6928V18.8301H22.0228V17.6932L22.0247 17.6865C22.045 17.615 22.0819 17.5493 22.1325 17.4948C22.1831 17.4404 22.2458 17.3987 22.3157 17.3732L22.3828 17.3486ZM17.1528 17.7085C17.1511 17.7039 17.1484 17.6969 17.1445 17.6883C17.1365 17.6706 17.1236 17.646 17.1045 17.619C17.0775 17.5809 17.0383 17.5385 16.9828 17.5043V20.1301H22.2828V17.4996C22.2545 17.5171 22.2286 17.5383 22.2058 17.5629C22.1675 17.6041 22.1391 17.6535 22.1228 17.7073V18.9301H17.1528V17.7085Z" fill="black"/>
<path d="M21.5932 23.4501C21.4132 23.3801 21.0332 23.1601 21.0332 22.9501V20.2301C21.0732 20.0801 21.2732 19.9901 21.4032 19.8901H17.8332C18.0032 19.9901 18.1932 20.0601 18.2632 20.2301V22.9501C18.2632 23.1601 17.9632 23.3801 17.7832 23.4501H21.5932Z" fill="white"/>
<path fill-rule="evenodd" clip-rule="evenodd" d="M17.6494 19.8401H21.55L21.4335 19.9297C21.3993 19.956 21.3609 19.9814 21.3235 20.006L21.3227 20.0066C21.285 20.0314 21.2483 20.0557 21.2144 20.0813C21.1471 20.132 21.1001 20.1816 21.083 20.2371V22.9501C21.083 22.9876 21.1002 23.0302 21.1352 23.077C21.17 23.1233 21.2193 23.1695 21.2759 23.2129C21.3893 23.2998 21.5251 23.37 21.6112 23.4035L21.593 23.5001H17.783L17.7649 23.4035C17.8488 23.3709 17.9635 23.3018 18.0566 23.2158C18.1519 23.1279 18.213 23.0331 18.213 22.9501V20.2404C18.1826 20.173 18.1286 20.1222 18.058 20.0755C18.0211 20.0512 17.9809 20.0286 17.9382 20.0054C17.9296 20.0007 17.9209 19.996 17.9121 19.9913C17.8778 19.9727 17.8423 19.9535 17.8077 19.9332L17.6494 19.8401ZM18.0268 19.9401C18.0562 19.9566 18.0853 19.9737 18.1131 19.9921C18.1945 20.0459 18.2688 20.1128 18.3093 20.211L18.313 20.2202V22.9501C18.313 23.0771 18.2242 23.1972 18.1244 23.2893C18.0801 23.3302 18.0314 23.3677 17.9825 23.4001H21.3778C21.3232 23.3685 21.2671 23.3321 21.2151 23.2923C21.1543 23.2457 21.0974 23.1931 21.0552 23.137C21.0134 23.0812 20.983 23.0176 20.983 22.9501V20.2235L20.9847 20.2172C21.0093 20.1251 21.0813 20.0564 21.1542 20.0014C21.1826 19.98 21.2127 19.9596 21.242 19.9401H18.0268Z" fill="black"/>
<path d="M22.0731 19.92V17.96H21.5831V17.77H17.7031V17.97H17.2031V19.92H22.0731ZM20.8331 23.45C20.6531 23.38 20.4031 23.16 20.4031 22.95V20.63L20.5431 20.42H18.7731L18.9231 20.62V22.95C18.9231 23.16 18.6631 23.38 18.4931 23.45H20.8331Z" fill="white"/>
<path fill-rule="evenodd" clip-rule="evenodd" d="M17.6533 17.72H21.6333V17.91H22.1233V19.97H17.1533V17.92H17.6533V17.72ZM17.7533 17.82V18.02H17.2533V19.87H22.0233V18.01H21.5333V17.82H17.7533ZM18.6733 20.37H20.6367L20.4533 20.6451V22.95C20.4533 23.0362 20.5057 23.1319 20.5872 23.2181C20.6677 23.3034 20.7692 23.3714 20.8514 23.4034L20.8333 23.5H18.4933L18.4743 23.4037C18.5521 23.3717 18.654 23.3034 18.736 23.2179C18.8191 23.1311 18.8733 23.0356 18.8733 22.95V20.6366L18.6733 20.37ZM18.8733 20.47L18.9733 20.6033V22.95C18.9733 23.0743 18.8976 23.1938 18.8082 23.2871C18.7682 23.3288 18.7239 23.367 18.6788 23.4H20.6435C20.5981 23.3669 20.5539 23.3286 20.5145 23.2868C20.4259 23.1931 20.3533 23.0737 20.3533 22.95V20.6148L20.4499 20.47H18.8733Z" fill="black"/>
<path d="M19.2031 20.4199H20.1031V23.4499H19.2031V20.4199Z" fill="white"/>
<path fill-rule="evenodd" clip-rule="evenodd" d="M19.1533 20.3701H20.1533V23.5001H19.1533V20.3701ZM19.2533 20.4701V23.4001H20.0533V20.4701H19.2533Z" fill="black"/>
<path d="M20.5735 19.7501C20.5735 19.5501 21.1535 19.5401 21.4535 19.3701H17.8535C18.1535 19.5401 18.7235 19.5501 18.7235 19.7501L18.8435 20.1401L20.3435 20.2001L20.5735 19.7501Z" fill="white"/>
<path fill-rule="evenodd" clip-rule="evenodd" d="M17.8281 19.4136L17.8528 19.3201H21.4528L21.4774 19.4136C21.3973 19.459 21.3003 19.4928 21.2026 19.5211C21.1415 19.5388 21.0777 19.555 21.0165 19.5705C20.9808 19.5795 20.9459 19.5884 20.9132 19.5971C20.8218 19.6215 20.7451 19.6456 20.6917 19.6743C20.6369 19.7037 20.6228 19.7289 20.6228 19.7501L20.6173 19.7728L20.3873 20.2228L20.3408 20.25L18.8408 20.19L18.795 20.1548L18.675 19.7648L18.6728 19.7501C18.6728 19.7285 18.6586 19.7033 18.6051 19.6741C18.5527 19.6455 18.4773 19.6215 18.3872 19.5971C18.3545 19.5882 18.3197 19.5793 18.2839 19.5701C18.2239 19.5547 18.1612 19.5386 18.1012 19.521C18.0045 19.4927 17.9082 19.459 17.8281 19.4136ZM18.1125 19.4201C18.1181 19.4217 18.1237 19.4234 18.1293 19.425C18.1882 19.4423 18.2473 19.4575 18.3058 19.4724C18.342 19.4817 18.3779 19.491 18.4133 19.5006C18.5032 19.5249 18.5891 19.5515 18.653 19.5863C18.7134 19.6193 18.7687 19.668 18.7726 19.7419L18.8802 20.0915L20.3128 20.1488L20.5233 19.737C20.5294 19.6655 20.5847 19.6183 20.6444 19.5862C20.7092 19.5514 20.7963 19.5248 20.8874 19.5005C20.9228 19.4911 20.9587 19.4819 20.9949 19.4728C21.0545 19.4577 21.1149 19.4424 21.1748 19.425C21.1804 19.4234 21.1861 19.4217 21.1917 19.4201H18.1125Z" fill="black"/>
<path d="M21.2733 17.6301C21.2733 17.1401 21.2933 16.9601 21.4433 16.9601V18.5001C21.0733 18.6401 20.8133 19.1001 20.8133 19.1001H18.4933C18.4933 19.1001 18.2333 18.6401 17.8633 18.5001V16.9501C18.0433 16.9501 18.0433 17.1501 18.0433 17.6201L21.2733 17.6301ZM21.4433 17.4301C21.4433 16.8701 21.9333 16.8101 21.9333 16.8101V17.3101C21.7433 17.3001 21.6533 17.4701 21.6533 17.7101C21.6533 17.9601 21.8033 17.9601 21.8033 17.9601V19.3801H21.4433V17.4301Z" fill="white"/>
<path fill-rule="evenodd" clip-rule="evenodd" d="M21.9835 16.7534V17.3626L21.9308 17.3598C21.8543 17.3558 21.801 17.3866 21.7642 17.4434C21.7253 17.5033 21.7035 17.5949 21.7035 17.7099C21.7035 17.8246 21.7374 17.871 21.7605 17.8903C21.7728 17.9005 21.7849 17.9055 21.7934 17.9078C21.7977 17.909 21.801 17.9096 21.8029 17.9098C21.8036 17.9099 21.8041 17.9099 21.8043 17.9099H21.8535V19.4299H21.3935V18.5766C21.2488 18.6497 21.1228 18.7717 21.028 18.8846C20.9738 18.9491 20.9309 19.0094 20.9015 19.0536C20.8868 19.0756 20.8756 19.0936 20.8681 19.1059C20.8643 19.1121 20.8615 19.1168 20.8596 19.12L20.8576 19.1235L20.8571 19.1244L20.857 19.1245L20.8427 19.1499H18.4643L18.45 19.1245L18.4499 19.1244L18.4494 19.1235L18.4473 19.12C18.4455 19.1168 18.4426 19.1121 18.4389 19.1059C18.4314 19.0936 18.4201 19.0756 18.4054 19.0536C18.3761 19.0094 18.3331 18.9491 18.2789 18.8846C18.1696 18.7544 18.0188 18.6122 17.8458 18.5467L17.8135 18.5345V16.8999H17.8635C17.9186 16.8999 17.9665 16.9157 18.0034 16.9537C18.0384 16.9898 18.0579 17.0404 18.0699 17.0985C18.092 17.2052 18.0934 17.3626 18.0935 17.5701L21.2236 17.5798C21.2242 17.3624 21.23 17.2051 21.2534 17.1003C21.2661 17.0436 21.2852 16.9956 21.3171 16.9615C21.3512 16.9252 21.3947 16.9099 21.4435 16.9099H21.4935V17.0431C21.5408 16.967 21.6001 16.9104 21.66 16.8688C21.7264 16.8227 21.7925 16.7958 21.842 16.7803C21.8668 16.7726 21.8876 16.7676 21.9024 16.7646C21.9099 16.7631 21.9158 16.762 21.92 16.7614C21.9222 16.761 21.9239 16.7608 21.9251 16.7606L21.9266 16.7604L21.9271 16.7603L21.9273 16.7603C21.9273 16.7603 21.9274 16.7603 21.9335 16.8099L21.9274 16.7603L21.9835 16.7534ZM21.8835 16.8723C21.8797 16.8733 21.8759 16.8745 21.8718 16.8758C21.8294 16.889 21.7731 16.9121 21.717 16.951C21.6069 17.0274 21.4935 17.1675 21.4935 17.4299V19.3299H21.7535V18C21.7363 17.9937 21.7163 17.9836 21.6965 17.9671C21.6445 17.9238 21.6035 17.8453 21.6035 17.7099C21.6035 17.585 21.6267 17.4715 21.6803 17.3889C21.727 17.317 21.7956 17.2708 21.8835 17.2613V16.8723ZM21.3935 17.0265C21.3923 17.0276 21.3912 17.0287 21.3901 17.0299C21.3761 17.0449 21.3621 17.0724 21.351 17.1221C21.3287 17.2219 21.3235 17.3834 21.3235 17.6299V17.6801L17.9935 17.6698V17.6199C17.9935 17.3822 17.9932 17.2212 17.972 17.1188C17.9615 17.0682 17.9473 17.0394 17.9317 17.0233C17.9266 17.0181 17.9207 17.0135 17.9135 17.0098V18.4662C18.0961 18.545 18.2486 18.6929 18.3555 18.8203C18.4126 18.8882 18.4578 18.9517 18.4887 18.9982C18.5027 19.0192 18.5138 19.0369 18.5219 19.0499H20.7851C20.7931 19.0369 20.8042 19.0192 20.8183 18.9982C20.8492 18.9517 20.8944 18.8882 20.9514 18.8203C21.0584 18.6929 21.2109 18.545 21.3935 18.4662V17.0265Z" fill="black"/>
<path d="M17.863 17.4301C17.863 16.8701 17.373 16.8101 17.373 16.8101V17.3101C17.563 17.3001 17.653 17.4701 17.653 17.7101C17.653 17.9601 17.503 17.9601 17.503 17.9601V19.3801H17.863V17.4301Z" fill="white"/>
<path fill-rule="evenodd" clip-rule="evenodd" d="M17.3793 16.7603L17.3732 16.8099C17.3793 16.7603 17.3793 16.7603 17.3793 16.7603L17.3795 16.7603L17.3796 16.7603L17.3801 16.7604L17.3816 16.7606C17.3829 16.7608 17.3846 16.761 17.3867 16.7614C17.3909 16.762 17.3969 16.7631 17.4043 16.7646C17.4191 16.7676 17.4399 16.7726 17.4647 16.7803C17.5142 16.7958 17.5803 16.8227 17.6467 16.8688C17.7817 16.9625 17.9132 17.1323 17.9132 17.4299V19.4299H17.4532V17.9099H17.5024C17.5027 17.9099 17.5031 17.9099 17.5038 17.9098C17.5057 17.9096 17.509 17.909 17.5133 17.9078C17.5218 17.9055 17.5339 17.9005 17.5462 17.8903C17.5693 17.871 17.6032 17.8246 17.6032 17.7099C17.6032 17.5949 17.5815 17.5033 17.5426 17.4434C17.5057 17.3866 17.4524 17.3558 17.3759 17.3598L17.3232 17.3626V16.7534L17.3793 16.7603ZM17.5532 18V19.3299H17.8132V17.4299C17.8132 17.1675 17.6998 17.0274 17.5897 16.951C17.5337 16.9121 17.4773 16.889 17.4349 16.8758C17.4309 16.8745 17.427 16.8733 17.4232 16.8723V17.2613C17.5112 17.2708 17.5797 17.317 17.6264 17.3889C17.68 17.4715 17.7032 17.585 17.7032 17.7099C17.7032 17.8453 17.6622 17.9238 17.6103 17.9671C17.5904 17.9836 17.5704 17.9937 17.5532 18Z" fill="black"/>
<path fill-rule="evenodd" clip-rule="evenodd" d="M20.5328 13.6H18.8128V13.52H20.5328V13.6ZM20.7128 14.14H18.6128V14.06H20.7128V14.14ZM20.9028 14.79H18.4128V14.71H20.9028V14.79ZM21.1528 15.58H18.2028V15.5H21.1528V15.58ZM21.1728 16.48H18.1328V16.4H21.1728V16.48Z" fill="black"/>
<path fill-rule="evenodd" clip-rule="evenodd" d="M18.7029 19.4501H17.2129V19.3501H22.0729V19.4501H20.6029V20.1101H18.7029V19.4501ZM18.8029 19.4501V20.0101H20.5029V19.4501H18.8029Z" fill="black"/>
<path d="M18.5332 17.92C18.8332 18.28 18.7932 18.89 18.7932 19.25H20.5332C20.5332 18.89 20.4932 18.28 20.7932 17.92H18.5332ZM19.5032 13.82L19.2632 13.69V13.34C19.3632 13.37 19.4632 13.38 19.4832 13.54C19.5132 13.31 19.5832 13.33 19.6732 13.24C19.7732 13.33 19.8232 13.31 19.8632 13.54C19.8632 13.38 19.9832 13.37 20.0732 13.34V13.69L19.8432 13.81L19.5032 13.82Z" fill="white"/>
<path fill-rule="evenodd" clip-rule="evenodd" d="M19.6717 13.1711L19.707 13.2029C19.7272 13.2211 19.7449 13.2342 19.7626 13.2473C19.7649 13.249 19.7672 13.2507 19.7696 13.2524C19.7891 13.2669 19.81 13.2829 19.829 13.305C19.8459 13.3248 19.8601 13.348 19.8724 13.3774C19.8834 13.3664 19.8954 13.3571 19.9079 13.3491C19.9339 13.3326 19.9621 13.322 19.9875 13.3138C19.9992 13.3101 20.011 13.3067 20.0219 13.3035L20.0247 13.3027C20.0366 13.2992 20.0475 13.296 20.0577 13.2926L20.1235 13.2707V13.7204L19.8565 13.8597L19.4915 13.8704L19.2135 13.7198V13.2728L19.2779 13.2922C19.2861 13.2946 19.2958 13.2973 19.306 13.3002C19.3216 13.3046 19.3384 13.3093 19.3526 13.3139C19.3782 13.3221 19.4056 13.3328 19.4309 13.3495C19.4452 13.3589 19.4583 13.3697 19.4699 13.3823C19.4834 13.3497 19.4997 13.3247 19.5194 13.3035C19.5387 13.2828 19.5599 13.2673 19.5783 13.2538C19.5791 13.2533 19.5798 13.2527 19.5806 13.2522C19.6002 13.2379 19.6186 13.2242 19.6382 13.2047L19.6717 13.1711ZM19.6747 13.3062C19.662 13.3165 19.6502 13.3252 19.6396 13.3329C19.6192 13.3478 19.6051 13.3582 19.5926 13.3716C19.5703 13.3956 19.5475 13.4361 19.5331 13.5465L19.4339 13.5462C19.4254 13.4781 19.4017 13.4499 19.3761 13.4331C19.3615 13.4235 19.3438 13.4161 19.3219 13.409C19.3191 13.4081 19.3163 13.4072 19.3135 13.4064V13.6603L19.5155 13.7697L19.8306 13.7604L20.0235 13.6597V13.4073C20.0217 13.4079 20.0198 13.4085 20.018 13.4091C19.9955 13.4163 19.9769 13.4238 19.9616 13.4335C19.947 13.4428 19.9358 13.4539 19.9279 13.4689C19.9198 13.4841 19.9135 13.5063 19.9135 13.54L19.8142 13.5486C19.7946 13.4359 19.774 13.3945 19.753 13.3701C19.742 13.3572 19.7292 13.3469 19.71 13.3327C19.7078 13.3311 19.7056 13.3295 19.7033 13.3278C19.6947 13.3214 19.6851 13.3143 19.6747 13.3062ZM18.4268 17.87H20.9003L20.8319 17.952C20.6912 18.121 20.6278 18.3519 20.6007 18.5907C20.5791 18.7814 20.581 18.9715 20.5827 19.1334C20.5831 19.1742 20.5835 19.2132 20.5835 19.25V19.3H18.7435V19.25C18.7435 19.2132 18.7439 19.1742 18.7443 19.1334C18.746 18.9715 18.748 18.7814 18.7263 18.5907C18.6992 18.3519 18.6359 18.121 18.4951 17.952L18.4268 17.87ZM18.6324 17.97C18.7487 18.1487 18.8016 18.367 18.8257 18.5794C18.8481 18.7769 18.846 18.975 18.8443 19.1372C18.8441 19.1588 18.8439 19.1798 18.8437 19.2H20.4833C20.4831 19.1798 20.4829 19.1588 20.4827 19.1372C20.481 18.975 20.4789 18.7769 20.5013 18.5794C20.5254 18.367 20.5783 18.1487 20.6947 17.97H18.6324Z" fill="black"/>
<path d="M19.483 14.3901L19.083 14.11V13.8C19.233 13.83 19.383 13.8501 19.403 14.0201C19.443 13.7701 19.533 13.65 19.673 13.55C19.803 13.65 19.893 13.7701 19.943 14.0201C19.953 13.8501 20.113 13.83 20.243 13.8V14.1201L19.853 14.3901H19.483Z" fill="white"/>
<path fill-rule="evenodd" clip-rule="evenodd" d="M19.6743 13.4878L19.7037 13.5104C19.7722 13.5631 19.8319 13.6225 19.8809 13.7027C19.9096 13.7498 19.9341 13.8031 19.9547 13.8654C19.9754 13.8433 19.9997 13.8264 20.0251 13.8132C20.0795 13.7848 20.1459 13.7703 20.2015 13.7581C20.2121 13.7558 20.2223 13.7535 20.232 13.7513L20.2932 13.7372V14.1462L19.8688 14.44H19.4674L19.0332 14.1361V13.739L19.093 13.751C19.1009 13.7526 19.109 13.7542 19.1172 13.7558C19.1827 13.7686 19.2556 13.7828 19.3147 13.813C19.3408 13.8264 19.3655 13.8433 19.3868 13.8655C19.4056 13.8034 19.4292 13.7499 19.458 13.7027C19.5075 13.6217 19.5703 13.5621 19.6441 13.5093L19.6743 13.4878ZM19.5434 13.7548C19.5027 13.8216 19.4719 13.9074 19.4526 14.0279L19.3535 14.0259C19.3494 13.9908 19.339 13.9661 19.3255 13.9477C19.3119 13.9291 19.2934 13.9144 19.2692 13.9021C19.2317 13.8829 19.186 13.8718 19.1332 13.861V14.084L19.499 14.34H19.8376L20.1932 14.0938V13.8625C20.1477 13.8728 20.1063 13.8836 20.0713 13.9019C20.0477 13.9142 20.0296 13.9288 20.0169 13.9469C20.0044 13.9647 19.9951 13.9886 19.9931 14.023L19.8942 14.0298C19.87 13.909 19.8367 13.8223 19.7955 13.7548C19.7612 13.6986 19.7205 13.654 19.6721 13.6133C19.62 13.6542 19.5776 13.6988 19.5434 13.7548Z" fill="black"/>
<path d="M19.4534 15.28L19.0034 14.88V14.41C19.1634 14.45 19.3434 14.47 19.3634 14.72C19.4134 14.37 19.5134 14.18 19.6634 14.04C19.8234 14.18 19.9234 14.37 19.9834 14.72C20.0034 14.47 20.1834 14.45 20.3434 14.41V14.88L19.8834 15.28H19.4534ZM20.2934 15.81L19.8934 16.38H19.4234L19.0134 15.81H20.2934ZM18.7734 16.76C18.9734 16.87 19.0534 17.1 19.0734 17.52H20.2334C20.2534 17.1 20.3334 16.87 20.5334 16.76H18.7734Z" fill="white"/>
<path fill-rule="evenodd" clip-rule="evenodd" d="M19.662 13.9727L19.696 14.0024C19.8358 14.1247 19.9305 14.2816 19.9938 14.5283C20.0184 14.4928 20.0492 14.4652 20.0845 14.4436C20.1481 14.4048 20.2258 14.3865 20.2931 14.3706C20.3062 14.3675 20.3189 14.3646 20.331 14.3615L20.3931 14.346V14.9028L19.9018 15.33H19.4341L18.9531 14.9025V14.346L19.0152 14.3615C19.0274 14.3646 19.0401 14.3675 19.0531 14.3706C19.1204 14.3865 19.1981 14.4048 19.2617 14.4436C19.2954 14.4642 19.325 14.4902 19.3489 14.5233C19.4066 14.2797 19.4992 14.1247 19.629 14.0035L19.662 13.9727ZM19.6642 14.1092C19.5427 14.2365 19.4576 14.4124 19.4126 14.7271L19.3133 14.724C19.3044 14.6136 19.2622 14.5611 19.2095 14.529C19.1653 14.5019 19.1127 14.4879 19.0531 14.4735V14.8576L19.4721 15.23H19.8644L20.2931 14.8573V14.4735C20.2335 14.4879 20.1809 14.5019 20.1367 14.529C20.084 14.5611 20.0418 14.6136 20.033 14.724L19.9338 14.7285C19.8796 14.4122 19.7935 14.2364 19.6642 14.1092ZM18.9156 15.76H20.3893L19.9191 16.43H19.3975L18.9156 15.76ZM19.1107 15.86L19.4487 16.33H19.8671L20.1969 15.86H19.1107ZM18.749 16.8038L18.7731 16.71H20.5331L20.5572 16.8038C20.383 16.8997 20.303 17.1028 20.2831 17.5224L20.2808 17.57H19.0254L19.0232 17.5224C19.0032 17.1028 18.9232 16.8997 18.749 16.8038ZM18.9189 16.81C19.0469 16.9462 19.1018 17.1617 19.1205 17.47H20.1857C20.2045 17.1617 20.2593 16.9462 20.3874 16.81H18.9189Z" fill="black"/>
<path d="M20.5529 15.8V15.24C20.4668 15.2583 20.3868 15.2982 20.3203 15.3559C20.2539 15.4137 20.2032 15.4873 20.1729 15.57C20.1729 15.37 19.9229 14.94 19.6529 14.72C19.3829 14.96 19.1229 15.36 19.1329 15.56C19.0829 15.41 18.9529 15.29 18.7529 15.24V15.81L20.5529 15.8Z" fill="white"/>
<path fill-rule="evenodd" clip-rule="evenodd" d="M19.6199 14.6825L19.6847 14.6812C19.8254 14.7958 19.9589 14.9632 20.0572 15.1266C20.1065 15.2086 20.1476 15.2906 20.1765 15.3657C20.1836 15.3841 20.19 15.4022 20.1956 15.42C20.222 15.3826 20.2529 15.3484 20.2878 15.3181C20.3606 15.2549 20.4483 15.2111 20.5427 15.191L20.6031 15.2399V15.7999L20.5534 15.8499L18.7534 15.8599L18.7031 15.8099V15.2399L18.7653 15.1914C18.9165 15.2292 19.0334 15.3056 19.1088 15.4067C19.1138 15.3912 19.1195 15.3756 19.1256 15.3598C19.1543 15.2868 19.1959 15.2077 19.2458 15.1283C19.3456 14.9697 19.4811 14.806 19.6199 14.6825ZM19.6543 14.7866C19.5343 14.8993 19.4179 15.0425 19.3304 15.1815C19.2829 15.2571 19.2445 15.3306 19.2187 15.3963C19.1926 15.4629 19.1811 15.5177 19.1831 15.5574L19.0857 15.5757C19.047 15.4597 18.9529 15.3607 18.8031 15.3072V15.7596L20.5031 15.7502V15.306C20.4484 15.3256 20.3975 15.3552 20.3533 15.3936C20.2933 15.4458 20.2474 15.5124 20.2201 15.5871L20.1231 15.5699C20.1231 15.5288 20.1099 15.4711 20.0832 15.4016C20.0568 15.333 20.0185 15.2562 19.9715 15.1782C19.8853 15.0349 19.7721 14.8908 19.6543 14.7866Z" fill="black"/>
<path d="M20.6329 16.7599V16.1999C20.4229 16.2599 20.2829 16.3699 20.2229 16.5299C20.2229 16.3299 19.9529 15.8999 19.6529 15.6799C19.3529 15.9299 19.0729 16.3199 19.0829 16.5299C19.0329 16.3799 18.8829 16.2599 18.6729 16.1999V16.7699L20.6329 16.7599Z" fill="white"/>
<path fill-rule="evenodd" clip-rule="evenodd" d="M19.621 15.6416L19.6826 15.6396C19.8386 15.754 19.985 15.9214 20.0923 16.085C20.1462 16.1671 20.1909 16.2492 20.2223 16.3245C20.231 16.3452 20.2387 16.3657 20.2455 16.3858C20.3281 16.2757 20.4561 16.1985 20.6193 16.1519L20.683 16.2V16.76L20.6333 16.81L18.6733 16.82L18.623 16.77V16.2L18.6868 16.1519C18.8447 16.197 18.9758 16.2763 19.0581 16.3812C19.0643 16.3624 19.0716 16.3434 19.0796 16.3243C19.1108 16.2504 19.1561 16.1711 19.2106 16.0917C19.3194 15.9329 19.4675 15.7695 19.621 15.6416ZM19.6548 15.7441C19.5192 15.862 19.3895 16.0075 19.293 16.1482C19.2412 16.2238 19.1996 16.2971 19.1718 16.3632C19.1436 16.43 19.131 16.4858 19.133 16.5276L19.0356 16.5458C18.9974 16.4313 18.8883 16.3302 18.723 16.2689V16.7197L20.583 16.7102V16.2687C20.42 16.3283 20.3167 16.4225 20.2699 16.5475L20.173 16.53C20.173 16.4896 20.159 16.4324 20.13 16.363C20.1015 16.2945 20.0599 16.2179 20.0087 16.1399C19.9136 15.9949 19.7875 15.8488 19.6548 15.7441Z" fill="black"/>
<path d="M20.8729 17.9301V17.2701C20.6646 17.3351 20.4847 17.4691 20.3629 17.6501C20.3629 17.3001 19.9629 16.7501 19.6529 16.5801C19.3329 16.7601 18.9429 17.3201 18.9429 17.6501C18.8179 17.4679 18.6344 17.3338 18.4229 17.2701V17.9301H20.8729Z" fill="white"/>
<path fill-rule="evenodd" clip-rule="evenodd" d="M19.6285 16.5364L19.6771 16.5361C19.8416 16.6263 20.0244 16.8133 20.1655 17.0192C20.2758 17.1801 20.3654 17.3597 20.3989 17.5215C20.5209 17.3819 20.6796 17.278 20.8581 17.2222L20.923 17.27V17.93L20.873 17.98H18.423L18.373 17.93V17.27L18.4375 17.2221C18.6199 17.2771 18.7825 17.3818 18.9076 17.5234C18.941 17.3679 19.0284 17.1912 19.1366 17.0308C19.2764 16.8236 19.4591 16.6317 19.6285 16.5364ZM19.6533 16.6379C19.5087 16.7273 19.3475 16.897 19.2195 17.0867C19.0835 17.2882 18.993 17.5003 18.993 17.65L18.9018 17.6783C18.7961 17.5242 18.6464 17.4065 18.473 17.3399V17.88H20.823V17.3407C20.6533 17.4082 20.5072 17.5255 20.4045 17.6779L20.313 17.65C20.313 17.4903 20.2201 17.2757 20.0831 17.0757C19.9542 16.8877 19.7934 16.7228 19.6533 16.6379Z" fill="black"/>
<path d="M20.7332 19.4001V18.7201C20.4932 18.8101 20.4332 19.0301 20.3532 19.1901C20.3832 18.5001 19.9732 17.7701 19.6532 17.5801C19.3332 17.7701 18.9132 18.5201 18.9532 19.1801C18.8732 19.0401 18.8032 18.8101 18.5732 18.7201V19.3901L20.7332 19.4001Z" fill="white"/>
<path fill-rule="evenodd" clip-rule="evenodd" d="M19.1233 18.1823C19.265 17.8851 19.4554 17.6396 19.6279 17.5371H19.679C19.8514 17.6395 20.0393 17.88 20.1799 18.1762C20.2924 18.4134 20.3772 18.6919 20.3993 18.9747C20.461 18.8566 20.55 18.7355 20.7159 18.6733L20.7834 18.7201V19.4001L20.7332 19.4501L18.5732 19.4401L18.5234 19.3901V18.7201L18.5917 18.6735C18.7196 18.7236 18.8018 18.8125 18.8616 18.904C18.8773 18.9282 18.8916 18.9527 18.9048 18.9768C18.9238 18.7003 19.0093 18.4215 19.1233 18.1823ZM19.2136 18.2254C19.076 18.5139 18.984 18.8579 19.0033 19.1771L18.91 19.2049C18.8938 19.1766 18.8779 19.1445 18.8619 19.1123C18.8573 19.1029 18.8526 19.0935 18.848 19.0842C18.8268 19.042 18.8043 18.9994 18.7778 18.9587C18.7378 18.8973 18.6891 18.8415 18.6234 18.8008V19.3403L20.6834 19.3499V18.7987C20.5537 18.8736 20.4972 18.9978 20.4403 19.1229C20.4266 19.1529 20.4129 19.183 20.3982 19.2125L20.3035 19.1879C20.318 18.8529 20.2257 18.5061 20.0895 18.219C19.9603 17.9467 19.7955 17.736 19.6535 17.6394C19.5112 17.7364 19.344 17.9516 19.2136 18.2254Z" fill="black"/>
<path d="M20.5734 20.42V19.74C20.3234 19.8 20.3134 19.89 20.2334 20.04C20.2634 19.63 19.9734 19.16 19.6534 18.98C19.3334 19.16 19.0534 19.63 19.0734 20.04C18.9934 19.89 18.9834 19.8 18.7334 19.74V20.42H20.5734Z" fill="white"/>
<path fill-rule="evenodd" clip-rule="evenodd" d="M19.6536 18.9226L19.6781 18.9364C19.8477 19.0318 20.0061 19.2018 20.1183 19.399C20.1984 19.5398 20.2564 19.6972 20.2772 19.8548C20.285 19.8439 20.2933 19.8332 20.3026 19.8228C20.3558 19.7636 20.4317 19.7226 20.5619 19.6914L20.6236 19.6766V20.47H18.6836V19.6766L18.7453 19.6914C18.8755 19.7226 18.9514 19.7636 19.0046 19.8228C19.0149 19.8344 19.0241 19.8463 19.0326 19.8585C19.0548 19.7 19.1127 19.5413 19.1925 19.3992C19.3033 19.2021 19.4592 19.0319 19.6291 18.9364L19.6536 18.9226ZM19.2797 19.4482C19.1756 19.6334 19.1141 19.8442 19.1235 20.0375L19.0295 20.0635C19.0191 20.0441 19.0099 20.0257 19.0015 20.0087C19.0008 20.0072 19 20.0058 18.9993 20.0043C18.9916 19.9889 18.9847 19.9749 18.9777 19.9616C18.9624 19.9326 18.948 19.9096 18.9301 19.8896C18.9023 19.8586 18.8616 19.8305 18.7836 19.8056V20.37H20.5236V19.8056C20.4456 19.8305 20.4049 19.8586 20.3771 19.8896C20.3592 19.9096 20.3448 19.9326 20.3295 19.9616C20.3225 19.9749 20.3156 19.9889 20.3079 20.0043C20.3072 20.0058 20.3064 20.0072 20.3057 20.0087C20.2973 20.0257 20.2881 20.0441 20.2777 20.0635L20.1837 20.0363C20.1978 19.8438 20.1367 19.6336 20.0314 19.4484C19.9318 19.2733 19.7953 19.1251 19.6536 19.038C19.5124 19.125 19.3782 19.273 19.2797 19.4482Z" fill="black"/>
<path d="M10.0332 22.92V20.88C9.96324 20.62 9.73324 20.38 9.57324 20.34V18.54L9.94324 18.74L10.3732 20.63V22.93L10.0332 22.92Z" fill="white"/>
<path fill-rule="evenodd" clip-rule="evenodd" d="M9.52344 18.4563L9.98716 18.707L10.4234 20.6245V22.9817L9.98344 22.9687V20.8869C9.95012 20.768 9.88055 20.6521 9.79974 20.5608C9.71638 20.4666 9.62713 20.4051 9.56131 20.3887L9.52344 20.3792V18.4563ZM9.62344 18.624V20.3038C9.7074 20.3363 9.79727 20.4071 9.87464 20.4945C9.96491 20.5966 10.0443 20.7283 10.0817 20.8672L10.0834 20.8735V22.8716L10.3234 22.8787V20.6358L9.89971 18.7734L9.62344 18.624Z" fill="black"/>
<path d="M10.0332 22.9302V20.8802C9.96324 20.6202 9.73324 20.3802 9.57324 20.3402V18.4202C9.82324 18.4202 9.94324 18.7402 9.94324 18.7402L10.3732 20.6302V22.9202L10.0332 22.9302Z" fill="white"/>
<path fill-rule="evenodd" clip-rule="evenodd" d="M9.52344 18.3701H9.57344C9.72155 18.3701 9.82698 18.4649 9.89189 18.5497C9.9249 18.5928 9.94929 18.6357 9.96541 18.6676C9.9735 18.6836 9.97959 18.697 9.98371 18.7066C9.98577 18.7114 9.98735 18.7152 9.98844 18.7179L9.98971 18.7211L9.99007 18.7221L9.99018 18.7224L9.99022 18.7225C9.99023 18.7225 9.99025 18.7226 9.94344 18.7401L9.99022 18.7225L9.99144 18.7257L10.4234 20.6245V22.9687L9.98344 22.9816V20.8869C9.95012 20.7679 9.88055 20.6521 9.79974 20.5607C9.71638 20.4665 9.62713 20.4051 9.56131 20.3886L9.52344 20.3792V18.3701ZM9.89552 18.7549C9.89472 18.7529 9.89351 18.7499 9.89187 18.7462C9.88845 18.7382 9.88322 18.7266 9.87615 18.7127C9.86196 18.6846 9.84073 18.6474 9.81249 18.6105C9.76468 18.5481 9.70173 18.4926 9.62344 18.4755V20.3038C9.7074 20.3363 9.79727 20.407 9.87464 20.4945C9.96491 20.5965 10.0443 20.7282 10.0817 20.8671L10.0834 20.8735V22.8786L10.3234 22.8716V20.6357L9.89552 18.7549Z" fill="black"/>
<path d="M9.76367 23.4502C9.93367 23.3802 10.1837 23.1602 10.1837 22.9502V20.3902L10.0637 20.1902H14.4337L14.2637 20.3902V22.9502C14.271 23.0562 14.3063 23.1583 14.3661 23.2461C14.4258 23.334 14.5078 23.4044 14.6037 23.4502H9.76367Z" fill="white"/>
<path fill-rule="evenodd" clip-rule="evenodd" d="M9.97487 20.1401H14.5413L14.3132 20.4085V22.9484C14.3202 23.0449 14.3525 23.1379 14.4069 23.218C14.4617 23.2985 14.5369 23.363 14.6247 23.405L14.6032 23.5001H9.76318L9.74414 23.4039C9.82166 23.372 9.92085 23.304 10.0003 23.2186C10.0807 23.1322 10.1332 23.0365 10.1332 22.9501V20.404L9.97487 20.1401ZM10.1515 20.2401L10.2332 20.3763V22.9501C10.2332 23.0738 10.1606 23.1931 10.0735 23.2867C10.0346 23.3286 9.99113 23.367 9.94679 23.4001H14.4363C14.3938 23.3634 14.3561 23.3211 14.3242 23.2742C14.2595 23.179 14.2212 23.0684 14.2133 22.9536L14.2132 22.9519V20.3718L14.3251 20.2401H10.1515Z" fill="black"/>
<path d="M13.7138 23.4502C13.5438 23.3802 13.2938 23.1602 13.2938 22.9502V20.5202L13.6538 20.1802H10.6938L11.0538 20.5202V22.9502C11.0538 23.1602 10.8038 23.3802 10.6338 23.4502H13.7138Z" fill="white"/>
<path fill-rule="evenodd" clip-rule="evenodd" d="M10.5674 20.1301H13.7789L13.3431 20.5417V22.9501C13.3431 23.0364 13.3956 23.1322 13.476 23.2186C13.5555 23.304 13.6547 23.372 13.7322 23.4039L13.7131 23.5001H10.6331L10.6141 23.4039C10.6916 23.372 10.7908 23.304 10.8703 23.2186C10.9507 23.1322 11.0031 23.0364 11.0031 22.9501V20.5417L10.5674 20.1301ZM10.8189 20.2301L11.1031 20.4986V22.9501C11.1031 23.0738 11.0306 23.1931 10.9435 23.2867C10.9045 23.3286 10.8611 23.367 10.8168 23.4001H13.5295C13.4852 23.367 13.4418 23.3286 13.4028 23.2867C13.3157 23.1931 13.2431 23.0738 13.2431 22.9501V20.4986L13.5274 20.2301H10.8189Z" fill="black"/>
<path d="M13.303 23.4502C13.133 23.3802 12.873 23.1602 12.873 22.9502V20.7502L13.113 20.4202H11.233L11.473 20.7502V22.9502C11.473 23.1602 11.223 23.3802 11.043 23.4502H13.303Z" fill="white"/>
<path fill-rule="evenodd" clip-rule="evenodd" d="M11.1353 20.3701H13.2117L12.9235 20.7664V22.9501C12.9235 23.0358 12.9777 23.1313 13.0609 23.218C13.1429 23.3036 13.2447 23.3718 13.3226 23.4039L13.3035 23.5001H11.0435L11.0254 23.4035C11.1077 23.3715 11.2091 23.3036 11.2897 23.2183C11.3711 23.132 11.4235 23.0364 11.4235 22.9501V20.7664L11.1353 20.3701ZM11.3317 20.4701L11.5235 20.7339V22.9501C11.5235 23.0739 11.4509 23.1932 11.3624 23.2869C11.3229 23.3287 11.2788 23.3671 11.2334 23.4001H13.118C13.073 23.3671 13.0286 23.3289 12.9887 23.2872C12.8993 23.1939 12.8235 23.0745 12.8235 22.9501V20.7339L13.0153 20.4701H11.3317Z" fill="black"/>
<path d="M11.7336 20.4202H12.6236V23.4602H11.7236L11.7336 20.4202Z" fill="white"/>
<path fill-rule="evenodd" clip-rule="evenodd" d="M11.6832 20.3701H12.673V23.5101H11.6729L11.6832 20.3701ZM11.7829 20.4701L11.7732 23.4101H12.573V20.4701H11.7829Z" fill="black"/>
<path d="M10.5034 21.2602H10.8634V22.9102H10.5034V21.2602ZM13.5834 21.2602H13.9334V22.9102H13.5734L13.5834 21.2602ZM10.1934 18.4802H10.6334V20.1802H10.1934V18.4802ZM10.1934 18.1602H10.6234V18.4802H10.1934V18.1602ZM13.7534 18.8502H14.3634V20.1502H13.7534V18.8502Z" fill="white"/>
<path fill-rule="evenodd" clip-rule="evenodd" d="M10.1436 18.1601L10.1936 18.1101H10.6236L10.6736 18.1601V18.4701L10.6836 18.4801V20.1801L10.6336 20.2301H10.1936L10.1436 20.1801V18.1601ZM10.2436 18.5301V20.1301H10.5836V18.5301H10.2436ZM10.5736 18.4301H10.2436V18.2101H10.5736V18.4301ZM13.7036 18.8501L13.7536 18.8001H14.3636L14.4136 18.8501V20.1501L14.3636 20.2001H13.7536L13.7036 20.1501V18.8501ZM13.8036 18.9001V20.1001H14.3136V18.9001H13.8036ZM10.4536 21.2601L10.5036 21.2101H10.8636L10.9136 21.2601V22.9101L10.8636 22.9601H10.5036L10.4536 22.9101V21.2601ZM10.5536 21.3101V22.8601H10.8136V21.3101H10.5536ZM13.5336 21.2598L13.5836 21.2101H13.9336L13.9836 21.2601V22.9101L13.9336 22.9601H13.5736L13.5236 22.9098L13.5336 21.2598ZM13.6333 21.3101L13.6239 22.8601H13.8836V21.3101H13.6333Z" fill="black"/>
<path d="M10.6236 20.1602V17.2602C10.7436 17.2602 10.7636 17.6902 11.0436 17.6902C11.1936 17.6902 11.1836 17.5102 11.0936 17.3702C11.0236 17.2402 10.9336 17.0702 11.0536 16.7402C11.1436 16.9902 11.3636 17.0702 11.3236 16.9202C11.2536 16.6502 11.0436 16.6002 11.2036 16.1902C11.2536 16.5302 11.4736 16.5202 11.4236 16.3202C11.3636 16.0902 11.2336 15.9902 11.3936 15.6702C11.4836 16.0402 11.5936 16.0202 11.5936 15.7902C11.5936 15.4502 11.5936 15.0902 12.0136 14.9602C12.0136 14.9602 12.0436 14.6602 12.2036 14.6602C12.3536 14.6602 12.3836 14.9602 12.3836 14.9602C12.8136 15.0902 12.8036 15.4602 12.8036 15.7902C12.8036 16.0202 12.9136 16.0402 13.0036 15.6702C13.1636 15.9902 13.0336 16.0902 12.9736 16.3202C12.9236 16.5202 13.1436 16.5302 13.1936 16.1902C13.3536 16.6002 13.1436 16.6502 13.0736 16.9202C13.0336 17.0702 13.2536 16.9902 13.3436 16.7402C13.4636 17.0702 13.3736 17.2402 13.3036 17.3702C13.2236 17.5102 13.2036 17.6902 13.3536 17.6902C13.6336 17.6902 13.6536 17.2702 13.7736 17.2702V20.1602H10.6236ZM9.93359 17.9702V20.1802H10.1836V17.9702C10.0936 17.9202 10.0136 17.9202 9.93359 17.9702Z" fill="white"/>
<path fill-rule="evenodd" clip-rule="evenodd" d="M12.0635 14.9651L12.0602 14.9981L12.0286 15.0079C11.834 15.0681 11.7408 15.1788 11.6934 15.313C11.6443 15.4521 11.6438 15.618 11.6438 15.7901C11.6438 15.8503 11.6368 15.9022 11.6214 15.9395C11.6138 15.9579 11.6022 15.9776 11.5838 15.9911C11.5631 16.0063 11.5374 16.0108 11.5122 16.0027C11.4899 15.9955 11.4722 15.9799 11.4584 15.9636C11.4441 15.9466 11.4308 15.9249 11.4182 15.8994C11.4073 15.8774 11.3965 15.8515 11.3859 15.8217C11.3618 15.9029 11.3635 15.9637 11.3752 16.0184C11.3842 16.0608 11.3996 16.1013 11.4179 16.1484L11.4197 16.153C11.4372 16.1982 11.4569 16.2488 11.4722 16.3075L11.4723 16.308C11.4865 16.3649 11.4843 16.4183 11.4603 16.4579C11.448 16.4782 11.43 16.4944 11.4073 16.5032C11.3848 16.5119 11.3607 16.512 11.3381 16.5058C11.294 16.4938 11.2544 16.4581 11.2237 16.4082C11.2163 16.3962 11.2093 16.3832 11.2028 16.3691C11.1981 16.3952 11.1957 16.4188 11.1952 16.4405C11.1937 16.4988 11.2053 16.5449 11.2236 16.5881C11.2376 16.6212 11.2546 16.6511 11.2739 16.6849C11.2812 16.6978 11.2889 16.7113 11.2968 16.7257C11.3247 16.7764 11.3532 16.8342 11.3722 16.9074C11.3833 16.9495 11.384 17.0054 11.3366 17.0335C11.3156 17.0459 11.2923 17.0473 11.2727 17.0445C11.2529 17.0417 11.2329 17.0343 11.2141 17.0243C11.1644 16.9979 11.1099 16.9472 11.0649 16.8763C11.0415 16.9763 11.0412 17.0561 11.0519 17.1221C11.0665 17.2122 11.1022 17.2803 11.1369 17.3447C11.185 17.4203 11.2147 17.5103 11.2086 17.5866C11.2055 17.6257 11.1925 17.665 11.1632 17.6949C11.1331 17.7254 11.0917 17.7401 11.0438 17.7401C10.8719 17.7401 10.7845 17.6058 10.7293 17.4979C10.7174 17.4747 10.7064 17.4514 10.6963 17.43C10.6943 17.4258 10.6923 17.4216 10.6904 17.4176C10.6846 17.4053 10.6791 17.3939 10.6738 17.3833V20.1101H13.7238V17.3909C13.7184 17.4014 13.7129 17.4127 13.707 17.4248C13.705 17.4288 13.7031 17.4328 13.7011 17.4369C13.691 17.4579 13.68 17.4806 13.6681 17.5033C13.6126 17.6092 13.5251 17.7401 13.3538 17.7401C13.3059 17.7401 13.2645 17.7254 13.2351 17.6941C13.2065 17.6638 13.1949 17.6241 13.1926 17.5856C13.1881 17.51 13.2176 17.4204 13.2601 17.3459C13.2949 17.2811 13.331 17.2128 13.3457 17.1221C13.3564 17.0561 13.3561 16.9763 13.3327 16.8763C13.2876 16.9472 13.2332 16.9979 13.1835 17.0243C13.1646 17.0343 13.1447 17.0417 13.1249 17.0445C13.1052 17.0473 13.082 17.0459 13.061 17.0335C13.0135 17.0054 13.0142 16.9495 13.0254 16.9074C13.0444 16.8342 13.0728 16.7764 13.1008 16.7257C13.1087 16.7113 13.1164 16.6978 13.1237 16.6849C13.143 16.6511 13.16 16.6212 13.174 16.5881C13.1923 16.5449 13.2039 16.4988 13.2024 16.4405C13.2018 16.4188 13.1995 16.3952 13.1948 16.3691C13.1882 16.3832 13.1812 16.3962 13.1739 16.4082C13.1432 16.4581 13.1036 16.4938 13.0594 16.5058C13.0368 16.512 13.0128 16.5119 12.9902 16.5032C12.9675 16.4944 12.9496 16.4782 12.9373 16.4579C12.9133 16.4183 12.9111 16.3649 12.9253 16.308L12.9254 16.3075C12.9407 16.2488 12.9603 16.1982 12.9779 16.153L12.9797 16.1484C12.998 16.1013 13.0134 16.0608 13.0224 16.0184C13.0341 15.9637 13.0357 15.9029 13.0116 15.8217C13.001 15.8515 12.9903 15.8774 12.9794 15.8994C12.9668 15.9249 12.9535 15.9466 12.9392 15.9636C12.9254 15.9799 12.9076 15.9955 12.8854 16.0027C12.8602 16.0108 12.8345 16.0063 12.8137 15.9911C12.7954 15.9776 12.7838 15.9579 12.7762 15.9395C12.7608 15.9022 12.7538 15.8503 12.7538 15.7901C12.7538 15.7839 12.7538 15.7776 12.7538 15.7714C12.7539 15.6101 12.7539 15.4515 12.7077 15.3163C12.6615 15.1811 12.5685 15.0682 12.3693 15.008L12.3374 14.9983L12.334 14.9651L12.334 14.9646L12.3338 14.9625C12.3335 14.9606 12.3332 14.9577 12.3327 14.9539C12.3316 14.9464 12.33 14.9354 12.3276 14.9222C12.3227 14.8957 12.3148 14.8609 12.3028 14.8266C12.2907 14.7918 12.2753 14.7608 12.2571 14.7394C12.2395 14.7187 12.2223 14.7101 12.2038 14.7101C12.1815 14.7101 12.1623 14.7199 12.1438 14.7404C12.1245 14.7619 12.1084 14.7927 12.0957 14.8273C12.0832 14.8614 12.0751 14.896 12.0701 14.9225C12.0676 14.9357 12.066 14.9465 12.0649 14.9541C12.0644 14.9578 12.064 14.9607 12.0638 14.9626L12.0636 14.9646L12.0635 14.9651ZM12.429 14.9222C12.4282 14.9167 12.4271 14.9107 12.4259 14.9042C12.4205 14.8745 12.4115 14.8343 12.3972 14.7936C12.3832 14.7534 12.3629 14.7094 12.3333 14.6746C12.3031 14.639 12.2602 14.6101 12.2038 14.6101C12.1461 14.6101 12.1016 14.6378 12.0694 14.6735C12.0381 14.7083 12.0167 14.7525 12.0018 14.7929C11.9868 14.8338 11.9775 14.8742 11.9718 14.904C11.9706 14.9106 11.9695 14.9168 11.9686 14.9224C11.7629 14.9945 11.6541 15.1239 11.5991 15.2797C11.5438 15.4366 11.5438 15.6188 11.5438 15.7853V15.7901C11.5438 15.8393 11.5384 15.874 11.5314 15.8948C11.5247 15.886 11.5167 15.8731 11.5078 15.8552C11.4871 15.8131 11.4644 15.7489 11.4424 15.6583L11.4101 15.5257L11.3491 15.6478C11.2651 15.8157 11.2546 15.9322 11.2774 16.0393C11.2884 16.0907 11.3067 16.1383 11.3247 16.1846L11.3259 16.1878C11.3437 16.2337 11.3615 16.2795 11.3753 16.3325C11.386 16.3754 11.3796 16.3982 11.3748 16.4061C11.3737 16.4079 11.3728 16.4088 11.3723 16.4093C11.3721 16.4094 11.3719 16.4096 11.3718 16.4097C11.3716 16.4098 11.3714 16.4098 11.3713 16.4099C11.3712 16.4099 11.3693 16.4107 11.3644 16.4094C11.3536 16.4064 11.332 16.3934 11.3089 16.3558C11.2864 16.3192 11.265 16.2629 11.2533 16.1828L11.2258 15.9962L11.1572 16.1719C11.1158 16.278 11.0971 16.3639 11.0952 16.4379C11.0933 16.5127 11.1085 16.5729 11.1315 16.6271C11.1479 16.666 11.1692 16.7033 11.1894 16.7388C11.1962 16.7507 11.2029 16.7624 11.2092 16.7739C11.2353 16.8213 11.2594 16.8709 11.2754 16.9327L11.2755 16.933C11.2766 16.9371 11.2773 16.9405 11.2778 16.9433C11.2732 16.9418 11.2676 16.9395 11.261 16.9359C11.2127 16.9103 11.1425 16.8388 11.1008 16.7232L11.054 16.5932L11.0068 16.723C10.9444 16.8947 10.9354 17.0284 10.9532 17.1381C10.9709 17.2472 11.0147 17.3287 11.0498 17.3938L11.0507 17.3955L11.0517 17.3971C11.093 17.4613 11.1128 17.5304 11.1089 17.5786C11.1071 17.602 11.1 17.6164 11.0919 17.6247C11.0844 17.6323 11.0709 17.6401 11.0438 17.6401C10.9357 17.6401 10.8731 17.5595 10.8183 17.4523C10.8072 17.4307 10.797 17.409 10.7869 17.3876C10.7848 17.3833 10.7828 17.379 10.7808 17.3747C10.7688 17.3496 10.7567 17.3245 10.744 17.3024C10.7316 17.2807 10.7169 17.2589 10.6989 17.2421C10.6803 17.2247 10.6553 17.2101 10.6238 17.2101H10.5738V20.2101H13.8238V17.2201H13.7738C13.7427 17.2201 13.7178 17.2341 13.6991 17.2512C13.681 17.2677 13.6663 17.2892 13.6538 17.3104C13.6411 17.332 13.6289 17.3566 13.617 17.3812C13.615 17.3853 13.613 17.3895 13.6109 17.3937C13.6008 17.4147 13.5906 17.4358 13.5795 17.4569C13.5249 17.561 13.4625 17.6401 13.3538 17.6401C13.3267 17.6401 13.3143 17.6323 13.3078 17.6255C13.3005 17.6177 13.2939 17.6036 13.2924 17.5796C13.2895 17.5304 13.3099 17.4603 13.3472 17.3949L13.3475 17.3944L13.3478 17.3938C13.3829 17.3287 13.4267 17.2472 13.4444 17.1381C13.4622 17.0284 13.4532 16.8947 13.3908 16.723L13.3436 16.5932L13.2967 16.7232C13.2551 16.8388 13.1849 16.9103 13.1366 16.9359C13.13 16.9395 13.1244 16.9418 13.1198 16.9433C13.1203 16.9405 13.121 16.9371 13.1221 16.933L13.1222 16.9327C13.1382 16.8709 13.1623 16.8213 13.1884 16.7739C13.1947 16.7624 13.2014 16.7507 13.2081 16.7388C13.2284 16.7033 13.2496 16.666 13.2661 16.6271C13.289 16.5729 13.3043 16.5127 13.3024 16.4379C13.3005 16.3639 13.2818 16.278 13.2404 16.1719L13.1718 15.9962L13.1443 16.1828C13.1325 16.2629 13.1112 16.3192 13.0887 16.3558C13.0656 16.3934 13.044 16.4064 13.0331 16.4094C13.0282 16.4107 13.0263 16.4099 13.0263 16.4099C13.0262 16.4098 13.0261 16.4098 13.026 16.4097C13.0258 16.4097 13.0256 16.4095 13.0253 16.4093C13.0248 16.4088 13.0239 16.4079 13.0228 16.4061C13.018 16.3982 13.0115 16.3754 13.0222 16.3325C13.0361 16.2795 13.0538 16.2337 13.0717 16.1878L13.0729 16.1846C13.0909 16.1383 13.1092 16.0907 13.1202 16.0393C13.143 15.9322 13.1325 15.8157 13.0485 15.6478L12.9875 15.5257L12.9552 15.6583C12.9332 15.7489 12.9105 15.8131 12.8897 15.8552C12.8809 15.8731 12.8729 15.886 12.8662 15.8948C12.8592 15.874 12.8538 15.8393 12.8538 15.7901C12.8538 15.7819 12.8538 15.7737 12.8538 15.7654C12.854 15.6094 12.8541 15.4354 12.8024 15.2839C12.7486 15.1266 12.6396 14.9946 12.429 14.9222ZM13.1193 16.9558C13.1192 16.9559 13.119 16.9554 13.1189 16.9543C13.1193 16.9552 13.1194 16.9558 13.1193 16.9558ZM11.2783 16.9558C11.2782 16.9558 11.2783 16.9552 11.2787 16.9543C11.2786 16.9554 11.2784 16.9559 11.2783 16.9558ZM11.2898 16.9457C11.2899 16.9457 11.29 16.9457 11.29 16.9457L11.2898 16.9457ZM10.055 17.8826C10.1068 17.8826 10.1576 17.8984 10.2081 17.9264L10.2338 17.9407V20.2301H9.88379V17.9424L9.90729 17.9277C9.95393 17.8986 10.003 17.8826 10.055 17.8826ZM9.98379 17.9996V20.1301H10.1338V18.001C10.1049 17.9882 10.0789 17.9826 10.055 17.9826C10.0319 17.9826 10.0084 17.9879 9.98379 17.9996Z" fill="black"/>
<path d="M9.95312 19.4C10.2631 19.56 10.5731 19.75 10.6531 20.18H9.95312V19.4ZM14.2731 18.74V20.18H14.4731V18.74C14.4131 18.71 14.3231 18.7 14.2731 18.74Z" fill="white"/>
<path fill-rule="evenodd" clip-rule="evenodd" d="M14.3713 18.664C14.4149 18.6655 14.4594 18.6773 14.4957 18.6955L14.5233 18.7093V20.2302H14.2233V18.7162L14.2421 18.7012C14.2799 18.6709 14.3284 18.6625 14.3713 18.664ZM14.3233 18.7694V20.1302H14.4233V18.7738C14.4057 18.7682 14.3864 18.7646 14.3678 18.7639C14.3499 18.7633 14.335 18.7655 14.3233 18.7694ZM9.90332 19.3181L9.97625 19.3558C10.2872 19.5162 10.6178 19.7158 10.7025 20.1711L10.7135 20.2302H9.90332V19.3181ZM10.0033 19.483V20.1302H10.5913C10.5074 19.7968 10.2687 19.6259 10.0033 19.483Z" fill="black"/>
<path d="M14.4732 19.4002C14.1632 19.5502 13.8532 19.7302 13.7732 20.1702H14.4732V19.4002ZM12.4132 16.0302L12.5932 15.8802V15.6802C12.5332 15.6802 12.4932 15.7102 12.4432 15.7802C12.4238 15.716 12.3917 15.6563 12.3487 15.6048C12.3058 15.5533 12.2529 15.5109 12.1932 15.4802C12.1327 15.5087 12.0785 15.5491 12.0338 15.5989C11.9891 15.6487 11.9549 15.707 11.9332 15.7702C11.8832 15.7002 11.8532 15.6902 11.7832 15.6702V15.8702L11.9632 16.0302H12.4132Z" fill="white"/>
<path fill-rule="evenodd" clip-rule="evenodd" d="M12.1944 15.4243L12.2163 15.4356C12.2819 15.4693 12.3401 15.5159 12.3873 15.5726C12.4158 15.6068 12.44 15.6443 12.4594 15.6842C12.4681 15.6762 12.4771 15.6689 12.4864 15.6625C12.5189 15.6403 12.5538 15.63 12.5934 15.63H12.6434V15.9035L12.4315 16.08H11.9444L11.7334 15.8925V15.6038L11.7971 15.622C11.831 15.6316 11.8627 15.6407 11.892 15.6586C11.9013 15.6644 11.9102 15.6708 11.9187 15.678C11.9399 15.6374 11.9661 15.5995 11.9968 15.5653C12.0459 15.5105 12.1055 15.4661 12.1721 15.4348L12.1944 15.4243ZM12.1924 15.5365C12.1469 15.5611 12.1059 15.5934 12.0712 15.6321C12.031 15.6769 12.0002 15.7293 11.9807 15.7863L11.9491 15.8781L11.8927 15.7991C11.8697 15.7669 11.8544 15.7528 11.8398 15.744C11.8377 15.7427 11.8356 15.7415 11.8334 15.7403V15.8476L11.9824 15.98H12.3953L12.5434 15.8566V15.7447C12.5432 15.7448 12.5431 15.7449 12.5429 15.7451C12.5263 15.7564 12.5079 15.7758 12.4841 15.8091L12.425 15.8919L12.3955 15.7945C12.3781 15.7367 12.3491 15.683 12.3105 15.6366C12.2772 15.5966 12.2372 15.5628 12.1924 15.5365ZM14.5234 19.3203V20.22H13.7135L13.7242 20.1611C13.8089 19.6952 14.1402 19.5057 14.4516 19.355L14.5234 19.3203ZM13.8351 20.12H14.4234V19.4805C14.1577 19.6149 13.9187 19.7788 13.8351 20.12Z" fill="black"/>
<path d="M12.5132 16.5201L12.5932 16.3301V16.0801C12.5332 16.0801 12.4932 16.1101 12.4432 16.1801C12.4238 16.1159 12.3917 16.0563 12.3487 16.0047C12.3058 15.9532 12.2529 15.9108 12.1932 15.8801C12.1327 15.9086 12.0785 15.949 12.0338 15.9988C11.9891 16.0486 11.9549 16.1069 11.9332 16.1701C11.8832 16.1001 11.8532 16.0901 11.7832 16.0801V16.3301L11.8632 16.5201H12.5132Z" fill="white"/>
<path fill-rule="evenodd" clip-rule="evenodd" d="M12.1944 15.8245L12.2163 15.8357C12.2819 15.8695 12.3401 15.9161 12.3873 15.9728C12.4158 16.007 12.44 16.0445 12.4594 16.0844C12.4681 16.0763 12.4771 16.0691 12.4864 16.0627C12.5189 16.0404 12.5538 16.0302 12.5934 16.0302H12.6434V16.3403L12.5466 16.5702H11.8302L11.7334 16.3403V16.0225L11.7905 16.0307C11.8256 16.0357 11.8588 16.0416 11.8902 16.059C11.9002 16.0645 11.9096 16.071 11.9185 16.0784C11.9397 16.0378 11.966 15.9998 11.9968 15.9655C12.0459 15.9107 12.1055 15.8663 12.1721 15.8349L12.1944 15.8245ZM12.1924 15.9367C12.1469 15.9613 12.1059 15.9936 12.0712 16.0322C12.031 16.077 12.0002 16.1295 11.9807 16.1864L11.9491 16.2783L11.8927 16.1992C11.8695 16.1667 11.8547 16.1536 11.8416 16.1464C11.839 16.1449 11.8363 16.1436 11.8334 16.1424V16.3201L11.8966 16.4702H12.4802L12.5434 16.3201V16.1448C12.5432 16.145 12.5431 16.1451 12.5429 16.1452C12.5263 16.1565 12.5079 16.176 12.4841 16.2092L12.425 16.292L12.3955 16.1946C12.3781 16.1369 12.3491 16.0832 12.3105 16.0368C12.2772 15.9968 12.2372 15.9629 12.1924 15.9367Z" fill="black"/>
<path d="M12.533 17.1801L12.793 16.8501V16.5301C12.693 16.5301 12.643 16.5801 12.573 16.6901C12.503 16.4601 12.373 16.4201 12.193 16.3101C12.003 16.4101 11.873 16.4601 11.813 16.6801C11.733 16.5701 11.683 16.5401 11.583 16.5301V16.8501L11.853 17.1801H12.533Z" fill="white"/>
<path fill-rule="evenodd" clip-rule="evenodd" d="M12.195 16.2527L12.2193 16.2675C12.2443 16.2828 12.2694 16.2972 12.2941 16.3114C12.3526 16.3452 12.4089 16.3776 12.4562 16.4166C12.5085 16.4596 12.552 16.5116 12.5864 16.5845C12.6037 16.5633 12.6216 16.5447 12.6413 16.5294C12.6848 16.4956 12.7334 16.4802 12.7932 16.4802H12.8432V16.8675L12.5575 17.2302H11.8295L11.5332 16.868V16.4749L11.5882 16.4804C11.6425 16.4858 11.6887 16.4973 11.7327 16.5256C11.7549 16.5398 11.7754 16.5576 11.7957 16.5793C11.8275 16.5076 11.8699 16.455 11.9227 16.4116C11.9802 16.3642 12.0502 16.328 12.125 16.2893C12.1398 16.2816 12.1548 16.2739 12.1699 16.2659L12.195 16.2527ZM11.9862 16.4888C11.9309 16.5343 11.8889 16.5927 11.8614 16.6933L11.834 16.7938L11.7728 16.7096C11.7339 16.6561 11.7058 16.6272 11.6787 16.6097C11.665 16.6009 11.6505 16.5944 11.6332 16.5895V16.8323L11.8769 17.1302H12.5089L12.7432 16.8328V16.5868C12.728 16.5916 12.715 16.5988 12.7027 16.6084C12.6762 16.6289 12.6501 16.6625 12.6154 16.717L12.557 16.8087L12.5254 16.7047C12.4931 16.5986 12.4484 16.5397 12.3927 16.4938C12.352 16.4603 12.307 16.4344 12.2526 16.4031C12.2335 16.3921 12.2132 16.3804 12.1915 16.3675C12.1835 16.3716 12.1757 16.3757 12.1681 16.3796C12.0934 16.4183 12.0348 16.4487 11.9862 16.4888Z" fill="black"/>
<path d="M12.6034 17.83C12.6034 17.83 12.9234 17.56 12.9334 17.41V17.06C12.8134 17.07 12.7034 17.1 12.6134 17.25C12.5334 16.96 12.4134 16.88 12.1934 16.75C11.9634 16.88 11.8434 16.96 11.7734 17.25C11.6734 17.1 11.5734 17.07 11.4434 17.05V17.41C11.5273 17.5686 11.6391 17.7109 11.7734 17.83H12.6034Z" fill="white"/>
<path fill-rule="evenodd" clip-rule="evenodd" d="M12.1941 16.6924L12.219 16.7071C12.3282 16.7716 12.4195 16.8275 12.4926 16.9061C12.5502 16.9678 12.595 17.0418 12.6315 17.1416C12.6649 17.1049 12.701 17.0778 12.7395 17.0581C12.8018 17.0262 12.8669 17.0155 12.9294 17.0103L12.9836 17.0058V17.4118L12.9834 17.4135C12.98 17.4649 12.9515 17.5193 12.9192 17.5671C12.8857 17.6166 12.8427 17.6666 12.8012 17.7107C12.7595 17.7549 12.7182 17.7943 12.6875 17.8224C12.6721 17.8366 12.6593 17.848 12.6503 17.8559C12.6457 17.8598 12.6422 17.8629 12.6397 17.865L12.6369 17.8674L12.6361 17.8681L12.6359 17.8683L12.6358 17.8683C12.6358 17.8683 12.6358 17.8683 12.6036 17.8301L12.6358 17.8683L12.6218 17.8801H11.7546L11.7404 17.8675C11.6017 17.7444 11.4862 17.5974 11.3994 17.4335L11.3936 17.4225V16.9919L11.4512 17.0007C11.5174 17.0109 11.5819 17.0244 11.6434 17.0573C11.6819 17.0779 11.7178 17.1053 11.7524 17.1422C11.7858 17.0424 11.8292 16.9681 11.887 16.9061C11.9605 16.8271 12.0547 16.7712 12.169 16.7066L12.1941 16.6924ZM12.5849 17.7801C12.5934 17.7727 12.6055 17.762 12.6199 17.7487C12.6495 17.7216 12.6889 17.6841 12.7284 17.6421C12.7681 17.5999 12.8071 17.5543 12.8364 17.511C12.8662 17.4669 12.8815 17.4318 12.8836 17.4082V17.1164C12.848 17.1223 12.8155 17.1316 12.7851 17.1471C12.7407 17.1698 12.6973 17.2078 12.6564 17.2759L12.5964 17.3759L12.5654 17.2634C12.5268 17.1238 12.48 17.0392 12.4195 16.9742C12.3624 16.9129 12.2908 16.8663 12.193 16.8079C12.0906 16.8664 12.0171 16.9131 11.9601 16.9742C11.9001 17.0387 11.8558 17.1226 11.8222 17.2619L11.7953 17.373L11.732 17.2779C11.6856 17.2083 11.6414 17.1696 11.5962 17.1455C11.565 17.1288 11.5317 17.1181 11.4936 17.1099V17.3976C11.5711 17.541 11.6722 17.6704 11.7927 17.7801H12.5849Z" fill="black"/>
<path d="M12.7331 19.0302C12.7331 19.0302 13.1731 18.5602 13.1831 18.3702V17.8302C13.0231 17.8502 12.8631 17.9602 12.7431 18.1902C12.6431 17.7402 12.4831 17.4302 12.1931 17.2102C11.8931 17.4302 11.7331 17.7402 11.6331 18.1902C11.5131 17.9602 11.3631 17.8502 11.2031 17.8302V18.3702C11.2331 18.5602 11.6431 19.0302 11.6431 19.0302H12.7331Z" fill="white"/>
<path fill-rule="evenodd" clip-rule="evenodd" d="M12.1938 17.1477L12.2235 17.1702C12.4992 17.3794 12.6601 17.6656 12.7633 18.0596C12.8803 17.8892 13.0259 17.7994 13.1771 17.7805L13.2333 17.7734V18.3714L13.2333 18.3727C13.23 18.4338 13.1943 18.5083 13.1516 18.5792C13.1074 18.6525 13.0501 18.7309 12.9939 18.8023C12.9375 18.8738 12.8815 18.9392 12.8398 18.9867C12.8188 19.0105 12.8014 19.0298 12.7892 19.0432C12.7831 19.0499 12.7783 19.0551 12.775 19.0587L12.7712 19.0628L12.7702 19.0639L12.7699 19.0642C12.7698 19.0642 12.7698 19.0643 12.7333 19.0301L12.7699 19.0642L12.755 19.0801H11.6206L11.6056 19.063L11.6433 19.0301C11.6056 19.063 11.6056 19.063 11.6056 19.063L11.6044 19.0615L11.6009 19.0574C11.5978 19.0539 11.5933 19.0486 11.5876 19.0419C11.5762 19.0286 11.5599 19.0093 11.5403 18.9855C11.501 18.9381 11.4483 18.8728 11.3946 18.8014C11.341 18.7301 11.2858 18.652 11.2419 18.5792C11.1991 18.5082 11.1631 18.4359 11.1539 18.3779L11.1533 18.374V17.7734L11.2095 17.7805C11.3613 17.7994 11.4994 17.8897 11.6136 18.0588C11.7169 17.6651 11.8787 17.3788 12.1638 17.1698L12.1938 17.1477ZM11.6663 18.9801H12.7114C12.7126 18.9787 12.7139 18.9773 12.7153 18.9758C12.7272 18.9628 12.7442 18.9439 12.7647 18.9206C12.8057 18.874 12.8604 18.8101 12.9153 18.7404C12.9703 18.6705 13.0248 18.5958 13.066 18.5276C13.1081 18.4576 13.1311 18.4026 13.1333 18.3686V17.891C13.0111 17.9251 12.8869 18.023 12.7876 18.2132L12.7242 18.3347L12.6945 18.2009C12.5995 17.7735 12.4515 17.4819 12.1928 17.2732C11.9253 17.4819 11.7772 17.7733 11.6821 18.2009L11.6524 18.3347L11.589 18.2132C11.4894 18.0224 11.3727 17.9252 11.2533 17.8911V18.3658C11.2602 18.4029 11.2864 18.4592 11.3276 18.5276C11.369 18.5963 11.4219 18.6713 11.4745 18.7413C11.5271 18.8111 11.5787 18.8752 11.6173 18.9218C11.6366 18.9451 11.6526 18.964 11.6637 18.9771C11.6646 18.9781 11.6654 18.9791 11.6663 18.9801Z" fill="black"/>
<path d="M12.7331 19.7401C12.7331 19.7401 13.1031 19.3701 13.1831 19.2101V18.6701C13.0231 18.6901 12.8631 18.8001 12.7431 19.0201C12.7164 18.8381 12.654 18.6632 12.5597 18.5054C12.4653 18.3475 12.3407 18.2098 12.1931 18.1001C11.8931 18.3201 11.7331 18.5701 11.6331 19.0201C11.5131 18.8001 11.3631 18.6901 11.2031 18.6701V19.2101C11.3031 19.3701 11.6431 19.7401 11.6431 19.7401H12.7331Z" fill="white"/>
<path fill-rule="evenodd" clip-rule="evenodd" d="M12.1935 18.0378L12.2231 18.0599C12.376 18.1735 12.505 18.3161 12.6028 18.4796C12.6785 18.6062 12.7342 18.7434 12.7684 18.8864C12.8847 18.7264 13.0283 18.639 13.1771 18.6204L13.2333 18.6134V19.2218L13.228 19.2323C13.2055 19.2775 13.1644 19.3341 13.1182 19.3916C13.0714 19.4499 13.0169 19.512 12.9653 19.5687C12.9136 19.6254 12.8645 19.677 12.8283 19.7144C12.8102 19.7331 12.7954 19.7483 12.785 19.7589C12.7798 19.7641 12.7758 19.7682 12.773 19.771L12.7698 19.7742L12.7688 19.7753L12.7687 19.7753C12.7687 19.7753 12.7687 19.7753 12.7333 19.74L12.7687 19.7753L12.754 19.79H11.6214L11.6065 19.7738L11.6433 19.74C11.6065 19.7738 11.6065 19.7738 11.6065 19.7738L11.6026 19.7695L11.5915 19.7574C11.582 19.7469 11.5682 19.7318 11.5515 19.7131C11.5179 19.6758 11.472 19.6243 11.423 19.5677C11.3261 19.4558 11.2134 19.3204 11.1609 19.2365L11.1533 19.2243V18.6134L11.2095 18.6204C11.3609 18.6393 11.4989 18.7292 11.6131 18.8921C11.6598 18.7175 11.7186 18.573 11.7957 18.4475C11.8897 18.2948 12.0096 18.1727 12.1638 18.0597L12.1935 18.0378ZM11.6654 19.69H12.7125C12.7129 19.6896 12.7133 19.6891 12.7138 19.6887C12.7239 19.6784 12.7386 19.6634 12.7564 19.6449C12.7921 19.608 12.8405 19.5571 12.8914 19.5013C12.9422 19.4455 12.9952 19.3851 13.0403 19.329C13.0818 19.2774 13.1146 19.2317 13.1333 19.1977V18.7309C13.0107 18.7649 12.8864 18.8621 12.7872 19.0439L12.7156 19.1752L12.6939 19.0273C12.6681 18.8518 12.6079 18.6831 12.5169 18.5309C12.4323 18.3893 12.3225 18.2646 12.193 18.1627C12.0619 18.2631 11.9609 18.3699 11.8809 18.4999C11.7947 18.64 11.7314 18.8093 11.6821 19.0308L11.6532 19.1609L11.5894 19.0439C11.4899 18.8614 11.373 18.765 11.2533 18.731V19.1953C11.304 19.2725 11.4055 19.3948 11.4986 19.5022C11.5471 19.5582 11.5925 19.6092 11.6258 19.6462C11.6424 19.6647 11.6559 19.6796 11.6654 19.69Z" fill="black"/>
<path d="M12.8831 20.16C12.7831 19.69 12.6831 19.34 12.1731 18.99C11.6531 19.34 11.5631 19.69 11.4531 20.16H12.8831Z" fill="white"/>
<path fill-rule="evenodd" clip-rule="evenodd" d="M12.174 18.9297L12.202 18.9489C12.4626 19.1278 12.621 19.3085 12.7266 19.5066C12.8314 19.7035 12.8826 19.9147 12.9326 20.1497L12.9454 20.2101H11.3906L11.405 20.1487C11.4598 19.9145 11.511 19.7033 11.6158 19.5066C11.7214 19.3085 11.8799 19.1276 12.1458 18.9487L12.174 18.9297ZM11.5168 20.1101H12.8217C12.7759 19.9012 12.7274 19.7209 12.6383 19.5537C12.545 19.3787 12.4058 19.2154 12.1734 19.0509C11.9365 19.2154 11.7973 19.3787 11.7041 19.5537C11.6149 19.7209 11.5665 19.9009 11.5168 20.1101Z" fill="black"/>
<path d="M13.1531 20.4201V19.7401C12.9131 19.8401 12.7031 19.9701 12.6231 20.1201C12.5431 19.7401 12.3731 19.5801 12.1631 19.3501C11.9531 19.5801 11.8131 19.7501 11.7231 20.1201C11.6431 19.9701 11.4331 19.8301 11.2031 19.7401V20.4201H13.1531Z" fill="white"/>
<path fill-rule="evenodd" clip-rule="evenodd" d="M12.1633 19.2759L12.2002 19.3163C12.2165 19.3341 12.2326 19.3516 12.2484 19.3688C12.4172 19.5519 12.5623 19.7093 12.6459 20.0025C12.6883 19.9548 12.7411 19.9106 12.7999 19.8701C12.8962 19.8038 13.012 19.7447 13.1341 19.6939L13.2033 19.665V20.47H11.1533V19.6668L11.2215 19.6935C11.3397 19.7397 11.4534 19.799 11.5486 19.8668C11.6075 19.9088 11.6604 19.9548 11.7029 20.004C11.7963 19.6919 11.9344 19.5266 12.1264 19.3163L12.1633 19.2759ZM12.1635 19.4242C11.9767 19.6315 11.8538 19.7953 11.7719 20.1319L11.7409 20.2593L11.6792 20.1436C11.6443 20.078 11.5785 20.0109 11.4906 19.9483C11.4212 19.8988 11.3399 19.8536 11.2533 19.8151V20.37H13.1033V19.8163C13.012 19.8578 12.9278 19.9034 12.8567 19.9525C12.7674 20.014 12.7021 20.0785 12.6674 20.1436L12.6027 20.2649L12.5744 20.1303C12.5035 19.7934 12.3614 19.6391 12.174 19.4356C12.1705 19.4318 12.167 19.428 12.1635 19.4242Z" fill="black"/>
<path d="M7.40293 25.93H31.9329V27.18H7.40293V25.93ZM6.75293 27.18H32.5829V28.43H6.75293V27.18ZM8.69293 24.05H30.6329V24.86H8.69293V24.05Z" fill="white"/>
<path fill-rule="evenodd" clip-rule="evenodd" d="M8.64313 24H30.6831V24.91H8.64313V24ZM8.74313 24.1V24.81H30.5831V24.1H8.74313ZM7.35313 25.88H31.9831V27.13H32.6331V28.48H6.70312V27.13H7.35313V25.88ZM7.45313 27.13H31.8831V25.98H7.45313V27.13ZM6.80313 27.23V28.38H32.5331V27.23H6.80313Z" fill="black"/>
<path d="M8.05273 24.8599H31.2927V25.9199H8.05273V24.8599ZM9.07273 23.4299H30.2727V24.0499H9.07273V23.4299Z" fill="white"/>
<path fill-rule="evenodd" clip-rule="evenodd" d="M9.02293 23.3801H30.3229V24.1001H9.02293V23.3801ZM9.12293 23.4801V24.0001H30.2229V23.4801H9.12293ZM8.00293 24.8101H31.3429V25.9701H8.00293V24.8101ZM8.10293 24.9101V25.8701H31.2429V24.9101H8.10293Z" fill="black"/>
<path d="M11.373 23.4299H12.973V28.4299H11.373V23.4299Z" fill="white"/>
<path fill-rule="evenodd" clip-rule="evenodd" d="M11.3232 23.3801H13.0232V28.4801H11.3232V23.3801ZM11.4232 23.4801V28.3801H12.9232V23.4801H11.4232Z" fill="black"/>
<path d="M11.7327 23.4299H12.6227V28.4299H11.7227L11.7327 23.4299ZM18.8327 23.4299H20.4327V28.4299H18.8327V23.4299Z" fill="white"/>
<path fill-rule="evenodd" clip-rule="evenodd" d="M11.6831 23.3801H12.673V28.4801H11.6729L11.6831 23.3801ZM11.7829 23.4801L11.7731 28.3801H12.573V23.4801H11.7829ZM18.783 23.3801H20.483V28.4801H18.783V23.3801ZM18.883 23.4801V28.3801H20.383V23.4801H18.883Z" fill="black"/>
<path d="M19.2031 23.4299H20.1031V28.4299H19.2031V23.4299ZM26.3531 23.4299H27.9531V28.4299H26.3531V23.4299Z" fill="white"/>
<path fill-rule="evenodd" clip-rule="evenodd" d="M19.1533 23.3801H20.1533V28.4801H19.1533V23.3801ZM19.2533 23.4801V28.3801H20.0533V23.4801H19.2533ZM26.3033 23.3801H28.0033V28.4801H26.3033V23.3801ZM26.4033 23.4801V28.3801H27.9033V23.4801H26.4033Z" fill="black"/>
<path d="M26.7031 23.4299H27.6031V28.4299H26.7031V23.4299Z" fill="white"/>
<path fill-rule="evenodd" clip-rule="evenodd" d="M26.6533 23.3801H27.6533V28.4801H26.6533V23.3801ZM26.7533 23.4801V28.3801H27.5533V23.4801H26.7533Z" fill="black"/>
<path fill-rule="evenodd" clip-rule="evenodd" d="M29.3332 22.9701H10.0332V22.8701H29.3332V22.9701ZM12.6332 24.1001H11.7132V24.0001H12.6332V24.1001ZM20.0732 24.1001H19.2132V24.0001H20.0732V24.1001ZM27.6132 24.1001H26.6932V24.0001H27.6132V24.1001ZM12.6332 24.7201H11.7132V24.6201H12.6332V24.7201ZM20.0732 24.7201H19.2132V24.6201H20.0732V24.7201ZM27.6132 24.7201H26.6932V24.6201H27.6132V24.7201ZM12.6332 25.3501H11.7132V25.2501H12.6332V25.3501ZM20.0732 25.3501H19.2132V25.2501H20.0732V25.3501ZM27.6132 25.3501H26.6932V25.2501H27.6132V25.3501ZM12.6332 25.9701H11.7132V25.8701H12.6332V25.9701ZM20.0732 25.9701H19.2132V25.8701H20.0732V25.9701ZM27.6132 25.9701H26.6932V25.8701H27.6132V25.9701ZM12.6332 26.6001H11.7132V26.5001H12.6332V26.6001ZM20.0732 26.6001H19.2132V26.5001H20.0732V26.6001ZM27.6132 26.6001H26.6932V26.5001H27.6132V26.6001ZM12.6332 27.2201H11.7132V27.1201H12.6332V27.2201ZM20.0732 27.2201H19.2132V27.1201H20.0732V27.2201ZM27.6132 27.2201H26.6932V27.1201H27.6132V27.2201ZM12.6332 27.8501H11.7132V27.7501H12.6332V27.8501ZM20.0732 27.8501H19.2132V27.7501H20.0732V27.8501ZM27.6132 27.8501H26.6932V27.7501H27.6132V27.8501Z" fill="black"/>
</g>
<defs>
<clipPath id="clip0_8424_43258">
<rect width="40" height="40" rx="20" fill="white"/>
</clipPath>
</defs>
</svg>
