<svg width="56" height="56" viewBox="0 0 56 56" fill="none" xmlns="http://www.w3.org/2000/svg">
<g clip-path="url(#clip0_3318_24070)">
<path d="M28 56C43.464 56 56 43.464 56 28C56 12.536 43.464 0 28 0C12.536 0 0 12.536 0 28C0 43.464 12.536 56 28 56Z" fill="#F0F0F0"/>
<path d="M56 28C56 16.8991 49.5397 7.30732 40.1738 2.77832V53.2215C49.5397 48.6926 56 39.1009 56 28Z" fill="#D80027"/>
<path d="M0 28C0 39.1009 6.46023 48.6926 15.8261 53.2216V2.77832C6.46023 7.30732 0 16.8991 0 28Z" fill="#D80027"/>
<path d="M32.8694 31.6521L37.7389 29.2173L35.3042 28V25.5652L30.4346 28L32.8694 23.1304H30.4346L27.9998 19.4783L25.565 23.1304H23.1302L25.565 28L20.6954 25.5652V28L18.2607 29.2173L23.1302 31.6521L21.9129 34.0869H26.7825V37.7391H29.2172V34.0869H34.0868L32.8694 31.6521Z" fill="#D80027"/>
</g>
<defs>
<clipPath id="clip0_3318_24070">
<rect width="56" height="56" fill="white"/>
</clipPath>
</defs>
</svg>
