<svg width="40" height="40" viewBox="0 0 40 40" fill="none" xmlns="http://www.w3.org/2000/svg">
<g clip-path="url(#clip0_8424_43304)">
<path d="M6.14994 0H34.4583V40H6.1416L6.14994 0Z" fill="white"/>
<path d="M-8 0H6.15V40H-8V0ZM34.4583 0H48.6083V40H34.4667L34.4583 0ZM10.3917 19.3333L9.28333 19.7L14.4 24.2C14.7917 25.3417 14.2667 25.6833 13.9333 26.2833L19.4833 25.5833L19.35 31.1667L20.5083 31.1417L20.25 25.5917L25.8083 26.2583C25.4667 25.5333 25.1583 25.15 25.475 23.9917L30.5833 19.7417L29.6917 19.4083C28.9583 18.8417 30.0083 16.6917 30.1583 15.3333C30.1583 15.3333 27.1833 16.3583 26.9917 15.8167L26.225 14.3583L23.5083 17.3417C23.2167 17.4167 23.0917 17.3 23.0167 17.05L24.2667 10.8167L22.2833 11.9333C22.1167 12.0083 21.95 11.9417 21.85 11.75L19.9333 7.91667L17.9667 11.9C17.8167 12.0417 17.6667 12.0583 17.55 11.9583L15.6417 10.9L16.7833 17.075C16.6917 17.325 16.475 17.3917 16.225 17.2583L13.625 14.3167C13.2917 14.8583 13.0583 15.7417 12.6083 15.9417C12.1583 16.1333 10.65 15.5667 9.64166 15.3583C9.99166 16.5917 11.0583 18.6583 10.3917 19.3333Z" fill="#D52B1E"/>
</g>
<defs>
<clipPath id="clip0_8424_43304">
<rect width="40" height="40" rx="20" fill="white"/>
</clipPath>
</defs>
</svg>
