<svg width="40" height="40" viewBox="0 0 40 40" fill="none" xmlns="http://www.w3.org/2000/svg">
<g clip-path="url(#clip0_8424_43377)">
<path d="M-7 0H46.3333V40H-7V0Z" fill="#EE1C25"/>
<path d="M-0.60003 14.8L2.99993 4L6.59988 14.8L-3 8.2H8.99985L-0.60003 14.8Z" fill="#FFFF00"/>
<path d="M15.0147 4.20693L11.3099 5.02794L13.7812 2.14822L13.5388 6.02394L11.4829 2.59276L15.0147 4.20693Z" fill="#FFFF00"/>
<path d="M18.7538 8.94562L15.0206 8.26549L18.4153 6.56962L16.6887 10.048L16.1244 6.08798L18.7538 8.94562Z" fill="#FFFF00"/>
<path d="M18.2085 15.5936L15.0773 13.45L18.8684 13.2861L15.8734 15.7579L16.9732 11.9121L18.2085 15.5936Z" fill="#FFFF00"/>
<path d="M13.4997 19.9368L11.4394 16.7501L14.9996 18.0632L11.2823 19.1864L13.7822 16.0638L13.4997 19.9368Z" fill="#FFFF00"/>
</g>
<defs>
<clipPath id="clip0_8424_43377">
<rect width="40" height="40" rx="20" fill="white"/>
</clipPath>
</defs>
</svg>
