<svg width="56" height="56" viewBox="0 0 56 56" fill="none" xmlns="http://www.w3.org/2000/svg">
<g clip-path="url(#clip0_3318_24163)">
<path d="M28 56C43.464 56 56 43.464 56 28C56 12.536 43.464 0 28 0C12.536 0 0 12.536 0 28C0 43.464 12.536 56 28 56Z" fill="#D80027"/>
<path d="M15.3234 17.0406L17.7406 24.4782H25.5609L19.2391 29.0828L21.6563 36.5203L15.3234 31.9266L8.99063 36.5203L11.4188 29.0828L5.08594 24.4782H12.9063L15.3234 17.0406Z" fill="#FFDA44"/>
<path d="M33.1949 43.3672L31.3465 41.0922L28.6121 42.1531L30.1981 39.6922L28.3496 37.4063L31.1824 38.1609L32.7793 35.7L32.9324 38.6313L35.7762 39.386L33.0309 40.436L33.1949 43.3672Z" fill="#FFDA44"/>
<path d="M36.8699 36.6953L37.7449 33.8953L35.3496 32.2L38.2809 32.1563L39.1449 29.3563L40.0965 32.1344L43.0277 32.1016L40.6762 33.8516L41.6168 36.6297L39.2215 34.9344L36.8699 36.6953Z" fill="#FFDA44"/>
<path d="M41.8254 20.5516L40.5348 23.1875L42.6348 25.2328L39.7363 24.8172L38.4457 27.4422L37.9426 24.5547L35.0332 24.1391L37.6363 22.7719L37.1332 19.8735L39.2332 21.9188L41.8254 20.5516Z" fill="#FFDA44"/>
<path d="M33.2721 12.5672L33.0533 15.4875L35.7768 16.5922L32.9221 17.2922L32.7143 20.2234L31.1721 17.7297L28.3174 18.4297L30.2096 16.1875L28.6564 13.7047L31.3799 14.8094L33.2721 12.5672Z" fill="#FFDA44"/>
</g>
<defs>
<clipPath id="clip0_3318_24163">
<rect width="56" height="56" fill="white"/>
</clipPath>
</defs>
</svg>
