<svg width="40" height="40" viewBox="0 0 40 40" fill="none" xmlns="http://www.w3.org/2000/svg">
<g clip-path="url(#clip0_8424_43318)">
<path d="M-7 0H46.3333V40H-7V0Z" fill="#0021AD"/>
<path d="M-7 0H46.3333V40L-7 0Z" fill="#1C8A42"/>
<path d="M19.6663 24.8167C22.3264 24.8167 24.4829 22.6602 24.4829 20C24.4829 17.3398 22.3264 15.1833 19.6663 15.1833C17.0061 15.1833 14.8496 17.3398 14.8496 20C14.8496 22.6602 17.0061 24.8167 19.6663 24.8167Z" fill="#FFC639"/>
<path d="M16.7257 17.8333C17.059 18.2917 17.559 19.05 17.959 18.85C18.2673 18.85 18.434 18.875 18.4757 19.0833C18.9976 19.135 19.524 19.0526 20.0052 18.8441C20.4864 18.6356 20.9065 18.3078 21.2257 17.8917C21.2257 17.8917 21.2923 17.8917 21.2673 17.5167C21.2673 17.35 21.5007 17.3833 21.5007 17.4333C21.534 17.5167 21.534 17.575 21.5757 17.5833C21.659 17.55 21.8007 17.3333 21.909 17.2C21.934 17.1417 21.9173 17.075 21.9257 17C21.984 16.8583 22.1257 16.8917 22.159 16.9667L22.209 17.1C22.359 17.2 22.6257 17.1 22.6423 17.1C22.6673 16.9833 22.7423 17 22.7423 17C22.8423 16.975 22.8007 16.9833 22.8673 17.0167C22.809 17.6583 22.9923 17.6833 22.9757 18.0167C22.984 18.3833 22.8673 18.4833 22.8673 18.625C22.9007 18.7917 23.4507 18.8 23.2507 18.95C23.084 19.0333 23.2507 19.2 23.0007 19.2667C22.2673 19.6417 22.134 19.9583 22.134 19.9583C22.134 19.9583 21.9507 20.3083 21.9257 20.3083C21.8007 20.5417 21.6507 20.4083 21.559 20.525C21.5173 20.6667 21.4757 20.9833 21.559 21.1417C21.6007 21.3667 21.559 21.4917 21.5007 21.7167C21.4507 22.1834 21.2673 22.2583 21.2423 22.4167C21.159 22.6 21.259 23.4167 21.1757 23.4167C20.634 23.4333 20.2173 23.3167 20.0007 23.275C20.209 22.3667 20.1257 21.575 20.1257 21.4917C20.0757 20.8417 19.159 21 19.0173 20.9083C18.9007 20.8917 18.8257 20.8 18.7923 20.7583C18.659 20.7417 18.609 20.7083 18.484 20.7C18.4173 20.7333 18.459 20.7667 18.3173 20.8083C17.9423 20.85 17.784 20.4917 17.784 20.4917C17.8007 20.3667 16.959 20.5167 16.509 20.4083C16.3173 20.5167 16.234 20.825 16.084 20.8583C16.084 20.95 15.834 20.775 15.784 20.6917C15.7673 20.4083 16.0173 20.2917 16.0173 20.2917C16.2173 20.15 16.334 20.125 16.434 20.0333C16.4757 19.7917 16.4507 19.6167 16.559 19.4417C16.6423 19.3 16.7673 19.3583 16.8507 19.3083C16.9423 19.2417 16.984 18.8417 16.9007 18.725L16.509 18.375C16.3923 18.0333 16.6507 17.8083 16.7257 17.8333Z" fill="#1C8A42"/>
<path d="M39.8247 11.8667C39.608 11.0083 37.658 9.14167 36.183 7.95834C35.833 7.72501 35.5997 7.86667 35.6497 8.20834C35.833 8.50834 35.9663 8.84167 36.1497 9.15001C36.1997 9.35834 36.2997 9.50001 36.3497 9.70001C36.3497 9.70001 36.3663 10.05 36.3997 10.0833C36.8497 10.5833 36.9163 11.0083 36.9163 11.0083C37.146 11.5012 37.4719 11.9431 37.8747 12.3083C38.3913 12.6333 38.008 13.6417 38.0247 14.1833C38.0247 14.5167 37.783 14.4833 37.5663 14.4333C35.8913 12.8917 34.2247 12.8917 32.7497 12.4417C32.183 12.3833 32.1663 12.6583 32.358 12.8083C33.2764 13.8313 34.3825 14.6687 35.6163 15.275L36.258 15.675L36.9913 16.2833C37.558 16.65 37.5997 16.9833 37.5997 17.0167C37.6163 17.7 37.2497 18.2333 37.1413 18.45C36.9497 19.175 36.558 19.3 36.558 19.3C33.4247 21.4167 31.7747 21.9667 26.6913 21.3083C26.608 21.275 26.1247 21.35 26.6913 21.5583C27.983 21.9917 31.1663 22.6833 34.2413 21.225C34.9913 20.7083 35.4747 20.875 36.0163 20.5583C36.7778 20.0868 37.5652 19.6583 38.3747 19.275C39.0663 18.9 40.983 18.4917 41.4247 18.125C41.933 18.0833 42.458 18.0167 42.4913 17.5833C42.658 17.475 42.908 17.5583 43.0913 17.2C43.4913 17.125 43.4247 16.9833 43.4247 16.9833C43.3247 16.7 42.9413 16.5833 42.6747 16.375C42.2747 16.2417 42.008 16.2083 41.7163 16.3417L41.4413 16.4667C41.4413 16.4667 41.0163 16.4083 41.0163 16.375C40.0663 16.325 40.158 13.1833 39.8247 11.875V11.8667Z" fill="#FFC639"/>
<path d="M3.03703 16.8534L2.35436 16.2134L1.66636 16.8427L1.74103 15.9147L0.818359 15.7654L1.59169 15.2427L1.13303 14.432L2.02369 14.7147L2.37036 13.8507L2.70636 14.72L3.59703 14.4534L3.12769 15.2534L3.89569 15.7867L2.97303 15.92L3.03703 16.848V16.8534Z" fill="white"/>
<path d="M5.44734 24.5601L4.71134 24.0747L3.99668 24.5867L4.25268 23.7601L3.52734 23.2534L4.41268 23.2321L4.67934 22.4054L4.97801 23.2214L5.86868 23.2161L5.15934 23.7334L5.44201 24.5547L5.44734 24.5601Z" fill="white"/>
</g>
<defs>
<clipPath id="clip0_8424_43318">
<rect width="40" height="40" rx="20" fill="white"/>
</clipPath>
</defs>
</svg>
