<svg width="40" height="40" viewBox="0 0 40 40" fill="none" xmlns="http://www.w3.org/2000/svg">
<g clip-path="url(#clip0_8424_43314)">
<path d="M-7 0H46.3333V40H-7V0Z" fill="#008000"/>
<path d="M19.6667 25.5583C22.7365 25.5583 25.2251 23.0698 25.2251 20C25.2251 16.9302 22.7365 14.4417 19.6667 14.4417C16.5969 14.4417 14.1084 16.9302 14.1084 20C14.1084 23.0698 16.5969 25.5583 19.6667 25.5583Z" fill="#FFE000"/>
<path d="M21.4002 24.575C23.9269 24.575 25.9752 22.5267 25.9752 20C25.9752 17.4733 23.9269 15.425 21.4002 15.425C18.8735 15.425 16.8252 17.4733 16.8252 20C16.8252 22.5267 18.8735 24.575 21.4002 24.575Z" fill="#008000"/>
<path d="M2.15065 20.2583C5.36311 20.2583 7.96732 17.6541 7.96732 14.4417C7.96732 11.2292 5.36311 8.625 2.15065 8.625C-1.06181 8.625 -3.66602 11.2292 -3.66602 14.4417C-3.66602 17.6541 -1.06181 20.2583 2.15065 20.2583Z" fill="#FFE000"/>
<path d="M1.75 18.8333H3.20833C3.20833 18.8333 3.26667 18.7 3.19167 18.6333C3.10833 18.5667 2.8 18.55 2.88333 18.3167C3.05 17.8333 3.08333 17.9833 3.19167 16.8333C3.27094 15.8487 3.32651 14.8623 3.35833 13.875H3.14167C3.14167 13.875 3.18333 14.4333 3.05833 15.1667C2.94167 15.9 2.9 15.9583 2.76667 16.525C2.70386 16.8439 2.6118 17.1563 2.49167 17.4583C2.375 17.7917 2.35833 17.8 2.175 18.1083C1.98333 18.4083 2.05 18.2917 1.95 18.475C1.89167 18.5667 1.83333 18.5417 1.79167 18.6083C1.75833 18.675 1.75 18.8333 1.75 18.8333Z" fill="#802000"/>
<path fill-rule="evenodd" clip-rule="evenodd" d="M3.07424 13.8125H3.42279L3.42071 13.877C3.38886 14.8653 3.33323 15.8527 3.25388 16.8383L3.25381 16.8392C3.19971 17.4135 3.16395 17.6683 3.11983 17.8405C3.09753 17.9275 3.07327 17.9928 3.04467 18.0656C3.04018 18.077 3.03559 18.0886 3.03088 18.1005C3.00566 18.1641 2.97698 18.2366 2.94233 18.337L2.94211 18.3377C2.92578 18.3834 2.93121 18.4095 2.93995 18.4263C2.95007 18.4457 2.97077 18.4642 3.00463 18.4825C3.03613 18.4995 3.0721 18.5129 3.10992 18.5269C3.11269 18.5279 3.11547 18.5289 3.11826 18.5299L3.11931 18.5303C3.15525 18.5437 3.20052 18.5604 3.23062 18.5845L3.23189 18.5855L3.2331 18.5866C3.29407 18.6408 3.29609 18.7178 3.29006 18.7661C3.28685 18.7918 3.28084 18.8144 3.27576 18.8304C3.27319 18.8385 3.27079 18.8451 3.26896 18.8499C3.26804 18.8523 3.26726 18.8542 3.26667 18.8556L3.26593 18.8574L3.26568 18.858L3.26558 18.8582L3.26554 18.8583C3.26553 18.8583 3.26551 18.8584 3.20825 18.8333L3.26551 18.8584L3.24912 18.8958H1.74991V18.8333C1.6875 18.83 1.6875 18.83 1.6875 18.83L1.68751 18.8298L1.68753 18.8294L1.68762 18.8279L1.68797 18.8223C1.68828 18.8175 1.68876 18.8108 1.68944 18.8024C1.6908 18.7859 1.69298 18.763 1.69627 18.7378C1.70243 18.6905 1.7137 18.6243 1.73568 18.5804L1.73701 18.5777L1.73858 18.5752C1.76754 18.5289 1.80504 18.5106 1.83009 18.4983C1.83235 18.4972 1.83451 18.4962 1.83655 18.4951C1.85767 18.4846 1.87572 18.4745 1.89611 18.4431C1.93724 18.3677 1.95066 18.3423 1.96547 18.3177C1.98659 18.2828 2.01056 18.2495 2.12171 18.0755C2.14463 18.037 2.16481 18.0033 2.18282 17.9733C2.23752 17.8821 2.27215 17.8244 2.30249 17.7645C2.34215 17.6861 2.37435 17.6041 2.43259 17.4377L2.43302 17.4364L2.43351 17.4352C2.55222 17.1368 2.64319 16.8281 2.70526 16.5129L2.70548 16.5118L2.70574 16.5107C2.7433 16.3511 2.77352 16.2319 2.80012 16.1271C2.86845 15.8577 2.91289 15.6825 2.99652 15.1568L2.99663 15.1562C3.05851 14.7931 3.07915 14.4733 3.0843 14.2444C3.08688 14.13 3.08559 14.0384 3.08367 13.9756C3.0827 13.9442 3.08159 13.92 3.08072 13.9038C3.08028 13.8956 3.07991 13.8895 3.07965 13.8855L3.07935 13.881L3.07927 13.8799L3.07925 13.8797L3.07424 13.8125ZM3.20741 13.9375C3.20782 13.9478 3.20822 13.9593 3.20861 13.9718C3.21059 14.0366 3.2119 14.1304 3.20927 14.2472C3.20401 14.4808 3.18299 14.8067 3.11991 15.1768C3.0354 15.708 2.9896 15.8886 2.9208 16.1598C2.89434 16.2642 2.86447 16.3819 2.82768 16.5382C2.76422 16.86 2.67131 17.1754 2.55014 17.4802C2.49197 17.6464 2.45757 17.7349 2.41401 17.8209C2.38148 17.8852 2.34376 17.948 2.28807 18.0409C2.27024 18.0706 2.25057 18.1034 2.22863 18.1403L2.22812 18.1411L2.22758 18.142C2.11366 18.3203 2.09099 18.3515 2.0712 18.3844C2.05749 18.4073 2.04515 18.4309 2.00478 18.5049L2.00377 18.5068L2.00264 18.5086C1.96515 18.5675 1.92512 18.5906 1.89245 18.6069C1.89113 18.6076 1.88986 18.6082 1.88863 18.6088C1.86372 18.6213 1.8552 18.6255 1.84622 18.6389C1.83542 18.6625 1.82633 18.7071 1.82022 18.7539C1.81947 18.7597 1.81878 18.7654 1.81814 18.7708H3.16248C3.16389 18.7644 3.16514 18.7576 3.16602 18.7506C3.17028 18.7165 3.16443 18.6938 3.15122 18.6811C3.13946 18.6724 3.11575 18.6623 3.0748 18.6471C3.07166 18.646 3.06845 18.6448 3.06517 18.6436C3.02899 18.6302 2.98488 18.6139 2.94519 18.5925C2.90197 18.5691 2.856 18.5356 2.82914 18.4841C2.80095 18.4301 2.79905 18.3668 2.82427 18.296C2.85985 18.1928 2.88956 18.1178 2.91479 18.0541C2.91946 18.0423 2.92397 18.031 2.92833 18.0198C2.95625 17.9488 2.97834 17.8891 2.99874 17.8095C3.04003 17.6484 3.07511 17.4033 3.12932 16.8279C3.20676 15.8658 3.26156 14.9021 3.29367 13.9375H3.20741Z" fill="#7B3100"/>
<path d="M2.85873 10.2084C2.87782 10.4681 2.84379 10.7289 2.75872 10.975C2.64324 11.2325 2.57818 11.5097 2.56706 11.7917C2.41706 11.8417 2.25872 11.4667 2.10872 11.6917C2.21706 12 2.47539 12.2417 2.64206 12.5167C2.67539 12.6 2.92539 12.825 2.77539 12.875C2.41706 12.75 2.32539 12.2917 2.10872 12.0167C1.98192 11.7795 1.79679 11.5786 1.5708 11.4328C1.34481 11.287 1.08541 11.2011 0.817058 11.1834C0.608725 11.1917 -0.0496089 11.1417 0.117058 11.4917C0.367058 11.6584 0.683724 11.775 0.933724 11.9667C1.12539 11.9834 1.45872 12.3 1.44206 12.4167C1.10872 12.2834 0.958725 12.125 0.608725 11.9834C0.125391 11.8 -0.532942 11.9084 -0.807942 12.3834C-0.849609 12.5084 -0.924609 12.8667 -0.766276 12.9084C-0.582942 12.625 -0.324609 12.3 0.0587239 12.3917C0.358724 12.4167 -0.274609 12.95 -0.0329425 12.8417C0.0503907 12.8084 0.217057 12.6917 0.350391 12.675C0.475391 12.675 0.542058 12.7584 0.633724 12.775C0.825391 12.8 0.883725 12.875 0.858725 12.925C0.842058 12.975 0.775391 12.925 0.583724 12.9917C0.492058 13.025 0.442058 13.1084 0.333724 13.15C0.217058 13.1834 -0.0162754 13.1917 -0.0996089 13.15C-0.407942 13.025 -0.907943 13.0417 -0.999609 13.425C-0.999609 13.5917 -1.14961 13.4084 -1.21628 13.4834C-1.27461 13.6667 -1.28294 13.85 -1.54961 13.8334C-1.71628 14 -1.88294 14.1834 -2.09961 14.3084C-1.97461 14.5917 -1.49128 14.025 -1.51628 14.2667C-1.72461 14.5584 -1.39961 14.6167 -1.26628 14.3917C-1.02461 14.1417 -0.724609 13.8334 -0.374609 14.0917C-0.207942 14.25 -0.107943 14.0084 0.0170574 14.0084C0.100391 14.2167 0.192058 14.025 0.283725 13.9667C0.425391 13.95 0.383724 14.15 0.550391 14.025C0.892058 13.8 1.30872 13.9917 1.64206 13.775C2.00039 13.6084 1.69206 13.9 1.60039 14.0167C1.44206 14.3167 1.57539 14.7167 1.24206 14.9C1.10039 15.2584 1.40039 15.7334 1.10039 16C1.05872 16.1667 1.48372 16.15 1.60039 16.2167C1.81706 16.2167 1.60039 15.7334 1.80872 15.6667C2.09206 15.8334 2.07539 15.35 2.01706 15.2C2.05039 14.8667 2.06706 14.4834 2.23372 14.175C2.41706 13.8 2.58372 14.3334 2.38372 14.4834C2.26706 14.825 2.10039 15.2667 2.35872 15.5917C2.44206 15.6084 2.50039 15.7917 2.59206 15.8417C2.69206 15.9 2.82539 15.8334 2.84206 15.6667C2.97539 15.1667 2.90872 14.6334 3.09206 14.1417C3.21706 13.9917 3.39206 14.1167 3.46706 14.2584C3.71706 14.55 3.89206 14.9084 4.19206 15.15C4.47604 15.2662 4.70739 15.4827 4.84206 15.7584C4.84206 15.975 5.45872 16.0084 5.27539 15.7584C5.10039 15.5334 5.21706 15.2917 5.39206 15.1334C5.49206 15.1584 5.46706 14.9834 5.39206 15.05C5.26706 15.025 5.25873 14.8 5.42539 14.9084C5.71706 15 5.40873 14.7 5.30039 14.6917C5.05872 14.5417 4.78372 14.375 4.66706 14.1084C4.98372 14.1084 5.30872 14.2834 5.62539 14.1834C5.88372 14.05 6.14206 14.1834 6.23372 14.4167C6.43373 14.3834 6.35039 14.1834 6.23372 14.1167C6.37539 14.0584 6.48373 13.9334 6.30039 13.825C6.21706 13.7084 6.42539 13.4917 6.15872 13.5084C6.16706 13.3 6.09206 13.1167 5.86706 13.0417C5.64206 12.8584 4.98373 13.325 5.00873 12.9C4.94206 12.6667 5.27539 12.8667 5.36706 12.75C5.45872 12.5 4.90873 12.5334 5.09206 12.3334C5.20872 12.2667 5.76706 12.1584 5.33372 12.075C5.23575 12.1038 5.13264 12.1104 5.03178 12.0946C4.93093 12.0787 4.83483 12.0408 4.75039 11.9834C4.59206 12.2417 4.15039 11.8334 4.22539 12.3C4.16706 12.475 3.76706 12.9334 3.65873 12.5834C3.74206 12.3084 4.22539 12.225 4.07539 11.85C4.05039 11.625 3.85872 11.8917 3.77539 11.875C3.72539 11.7334 3.90872 11.5584 4.04206 11.525C4.29206 11.725 4.29206 11.275 4.54206 11.3167C4.71706 11.275 4.48372 11.2 4.43372 11.1667C4.48372 11.0417 4.75872 10.975 4.49206 10.8584C4.25039 10.6917 4.07539 11.0334 3.88372 11.05C3.70039 10.8417 4.05039 10.7417 4.15039 10.6334C4.15872 10.55 3.95039 10.6084 4.00873 10.5334C4.06706 10.4417 4.44206 10.4334 4.25873 10.2834C3.97853 10.1979 3.67697 10.2156 3.40873 10.3334C3.24206 10.3834 3.20039 10.75 3.05872 10.7334C3.00039 10.5667 3.08372 10.25 2.85873 10.2084ZM4.10872 13.7334C4.30872 13.7 4.10872 14.0417 4.02539 14.0334C4.02539 13.9167 3.72539 13.925 3.91706 13.8167C3.97566 13.7781 4.04051 13.7499 4.10872 13.7334Z" fill="#008000"/>
<path d="M33.0058 26.9867L33.3731 28.1286L34.4949 27.7037L33.8313 28.7033L34.8632 29.3156L33.6673 29.4198L33.8318 30.6083L33.0058 29.7384L32.1793 30.6078L32.3438 29.4198L31.1484 29.315L32.1803 28.7028L31.5162 27.7032L32.638 28.1281L33.0058 26.9867Z" fill="#FFE000"/>
<path d="M26.3378 16.4298L26.7051 17.5718L27.8269 17.1468L27.1633 18.1464L28.1952 18.7587L26.9993 18.8629L27.1639 20.0514L26.3378 19.1815L25.5113 20.0509L25.6759 18.8629L24.4805 18.7581L25.5123 18.1459L24.8482 17.1463L25.9701 17.5712L26.3378 16.4298Z" fill="#FFE000"/>
<path d="M33.0058 9.20667L33.3731 10.3486L34.4949 9.92369L33.8313 10.9233L34.8632 11.5355L33.6673 11.6398L33.8318 12.8283L33.0058 11.9583L32.1793 12.8278L32.3438 11.6398L31.1484 11.535L32.1803 10.9228L31.5162 9.92316L32.638 10.3481L33.0058 9.20667Z" fill="#FFE000"/>
<path d="M38.9316 14.6518L39.2988 15.7937L40.4207 15.3688L39.7571 16.3684L40.789 16.9807L39.5931 17.0849L39.7576 18.2734L38.9316 17.4035L38.105 18.2729L38.2696 17.0849L37.0742 16.9801L38.1061 16.3679L37.442 15.3683L38.5638 15.7932L38.9316 14.6518Z" fill="#FFE000"/>
<path d="M35.6725 20.0016L35.963 20.7134L36.7293 20.7695L36.1419 21.2658L36.3255 22.012L35.6725 21.6066L35.0195 22.0125L35.2026 21.2664L34.6152 20.77L35.3825 20.7139L35.6725 20.0016Z" fill="#FFE000"/>
</g>
<defs>
<clipPath id="clip0_8424_43314">
<rect width="40" height="40" rx="20" fill="white"/>
</clipPath>
</defs>
</svg>
