<svg width="40" height="40" viewBox="0 0 40 40" fill="none" xmlns="http://www.w3.org/2000/svg">
<g clip-path="url(#clip0_8424_43297)">
<path d="M-7 0H46.3333V40H-7V0Z" fill="#000066"/>
<path fill-rule="evenodd" clip-rule="evenodd" d="M32.3005 17.75L32.7339 16.3584L31.5672 15.475L33.0339 15.4584L33.5339 14.0834L34.0005 15.4584L35.4755 15.5L34.3005 16.375L34.7172 17.7667L33.5089 16.9334M35.7672 18.0167L36.6339 16.8584L35.8255 15.625L37.2172 16.1084L38.1339 14.9834V16.45L39.5005 16.9834L38.1005 17.4L38.0339 18.8584L37.1839 17.6584M28.9839 18.9084L28.9255 17.45L27.5255 17.0167L28.9172 16.5V15.05L29.8255 16.175L31.2255 15.7084L30.4089 16.9334L31.2672 18.1L29.8505 17.725M26.5505 21.1334L25.9339 19.8167L24.4839 19.9667L25.5505 18.9417L25.0005 17.5834L26.2672 18.2667L27.3755 17.2834L27.0922 18.7334L28.3339 19.475L26.8922 19.6834M25.4172 24.3167L24.3089 23.3917L23.0589 24.1584L23.5922 22.7667L22.5172 21.8L23.9589 21.8584L24.5422 20.4917L24.9005 21.925L26.3339 22.05L25.1172 22.8667M25.3839 27.9L24.0089 27.5L23.1672 28.7084L23.1089 27.2167L21.7422 26.7584L23.0839 26.2417V24.7417L23.9755 25.9167L25.3422 25.45L24.5422 26.7M27.0005 30.9334L25.5839 31.1334L25.2922 32.5834L24.6422 31.25L23.2172 31.3834L24.2339 30.3584L23.6422 28.9917L24.9172 29.7L25.9839 28.7167L25.7505 30.1667M29.5005 33.3334L28.2422 34.0167L28.4589 35.4834L27.4005 34.45L26.1005 35.0834L26.7089 33.7584L25.6839 32.6834L27.1255 32.9L27.7922 31.6084L28.0755 33.0584M32.5589 33.8084L31.8672 35.0834L32.8422 36.1834L31.3922 35.9084L30.6505 37.1584L30.4505 35.7167L29.0172 35.3834L30.3339 34.7667L30.1922 33.3084L31.2089 34.375M35.9922 33.2834L35.9505 34.7334L37.3089 35.2667L35.8922 35.6834L35.7922 37.1417L34.9589 35.95L33.5422 36.3167L34.4422 35.1584L33.6589 33.9334L35.0422 34.4084M39.5839 17.4834L40.5839 18.5334L41.9089 17.9167L41.2172 19.2334L42.1755 20.325L40.7589 20.0917L40.0089 21.3834L39.8339 19.9167L38.4172 19.625L39.7255 18.9584M42.5755 20.7084L43.0339 22.0917L44.4922 22.1167L43.3089 23.0084L43.7005 24.4084L42.5255 23.575L41.3089 24.4167L41.7589 23.0167L40.6089 22.1334L42.0755 22.1M43.7005 24.8667L43.5339 26.3167L44.8422 26.9584L43.4005 27.2584L43.1755 28.7L42.4505 27.4417L41.0005 27.6834L42.0005 26.6L41.3255 25.3084L42.6589 25.9084M42.9089 29.225L42.2589 30.525L43.2505 31.5834L41.8005 31.3584L41.1005 32.6334L40.8505 31.1917L39.4005 30.9167L40.7005 30.25L40.5089 28.8L41.5589 29.825M40.7422 33.0834L39.5172 33.85L39.8339 35.2917L38.7089 34.3334L37.4589 35.05L37.9839 33.6917L36.8922 32.6834L38.3422 32.8084L38.9255 31.475L39.2922 32.9084" fill="white"/>
<path d="M-7 0H19.6667V20H-7V0Z" fill="#000066"/>
<path d="M-3.875 0L6.29167 7.54167L16.4167 0H19.6667V2.58333L9.66667 10.0417L19.6667 17.4583V20H16.3333L6.33333 12.5417L-3.625 20H-7V17.5L2.95833 10.0833L-7 2.66667V0H-3.875Z" fill="white"/>
<path d="M10.6667 11.7083L19.6667 18.3333V20L8.375 11.7083H10.6667ZM3 12.5417L3.25 14L-4.75 20H-7L3 12.5417ZM19.6667 0V0.125L9.29167 7.95833L9.375 6.125L17.5833 0H19.6667ZM-7 0L2.95833 7.33333H0.458333L-7 1.75V0Z" fill="#C8102E"/>
<path d="M3.04167 0V20H9.70833V0H3.04167ZM-7 6.66667V13.3333H19.6667V6.66667H-7Z" fill="white"/>
<path d="M-7 8.04167V12.0417H19.6667V8.04167H-7ZM4.375 0V20H8.375V0H4.375Z" fill="#C8102E"/>
</g>
<defs>
<clipPath id="clip0_8424_43297">
<rect width="40" height="40" rx="20" fill="white"/>
</clipPath>
</defs>
</svg>
