<svg width="40" height="40" viewBox="0 0 40 40" fill="none" xmlns="http://www.w3.org/2000/svg">
<g clip-path="url(#clip0_8424_43224)">
<path d="M-7 0H46.3333V40H-7V0Z" fill="white"/>
<path d="M18.6496 33.2167C18.6431 33.2122 18.6374 33.2066 18.6329 33.2001H18.6246L18.5163 33.0834L18.1996 32.7084L17.7913 32.1834L17.7413 32.1084L17.2246 31.9501L16.8413 31.7751L17.0413 31.5501L17.7413 31.8417L18.2579 31.9501L19.2163 32.6584L18.9413 32.9001C18.8434 32.9912 18.7515 33.0887 18.6663 33.1917L18.7246 33.1501L18.7913 33.2001L18.6579 33.2167H18.6496ZM15.0996 32.1501C14.6297 32.1459 14.1694 32.0164 13.7663 31.7751C13.7663 31.7751 13.8246 31.6667 13.9579 31.5751C14.0913 31.4751 14.3246 31.3667 14.7079 31.3584C15.1579 31.3584 15.7079 31.5167 16.3329 31.8084C15.9595 32.0289 15.5333 32.1441 15.0996 32.1417V32.1501ZM13.1413 31.7167C13.0579 31.7167 12.9746 31.6834 12.9246 31.6334C12.8773 31.5757 12.8458 31.5068 12.8329 31.4334C12.8108 31.3407 12.8024 31.2452 12.8079 31.1501C12.8427 31.1377 12.8794 31.1321 12.9163 31.1334C13.0829 31.1334 13.2163 31.2751 13.2746 31.4167C13.3079 31.5001 13.3163 31.5667 13.2913 31.6251C13.2746 31.6751 13.2079 31.7084 13.1413 31.7084V31.7167ZM16.5829 31.3167C15.4246 31.1501 14.9329 30.7334 14.7246 30.4084C14.5079 30.0667 14.5579 29.7417 14.5579 29.7417C14.5579 29.7417 14.6246 29.7251 14.7246 29.7251C15.0413 29.7251 15.8246 29.8834 16.5829 31.3084V31.3167ZM14.2079 31.0834C13.7163 31.0834 13.3413 31.0001 13.0913 30.8334C12.9844 30.7663 12.8979 30.6712 12.8413 30.5584C12.8234 30.5159 12.8121 30.4709 12.8079 30.4251C12.9979 30.3459 13.2021 30.3062 13.4079 30.3084C13.7054 30.3191 13.9977 30.3886 14.2681 30.5131C14.5384 30.6375 14.7814 30.8144 14.9829 31.0334C14.6996 31.0667 14.4413 31.0834 14.2079 31.0834ZM11.8163 31.0001C11.2996 31.0001 10.5829 30.8334 10.1329 30.3917C10.1329 30.3917 10.6246 30.2667 11.1663 30.2501H11.2663C11.7579 30.2501 12.1329 30.3417 12.3829 30.5334C12.4663 30.6001 12.5163 30.6584 12.5246 30.7167C12.5329 30.7667 12.5079 30.8167 12.4579 30.8584C12.3413 30.9417 12.1413 30.9917 11.8579 30.9917H11.8163V31.0001ZM10.1246 30.1251C10.0924 30.1244 10.0607 30.1166 10.0318 30.1022C10.003 30.0878 9.97776 30.0671 9.95793 30.0417C9.9231 29.9921 9.90028 29.935 9.89126 29.8751C9.86626 29.7584 9.87459 29.6417 9.87459 29.6334C9.90086 29.6219 9.92928 29.6162 9.95793 29.6167C10.0329 29.6167 10.0913 29.6584 10.1246 29.7001C10.1753 29.7464 10.2151 29.8033 10.2413 29.8667C10.2579 29.9417 10.2663 30.0001 10.2413 30.0501C10.2413 30.0834 10.1913 30.1334 10.1329 30.1334L10.1246 30.1251ZM14.0329 30.0417C13.9496 30.0417 13.8663 30.0084 13.8163 29.9584C13.769 29.9007 13.7374 29.8318 13.7246 29.7584C13.7025 29.6657 13.694 29.5702 13.6996 29.4751C13.7343 29.4627 13.7711 29.4571 13.8079 29.4584C13.9746 29.4584 14.1163 29.6001 14.1663 29.7417C14.1996 29.8251 14.2079 29.8917 14.1913 29.9501C14.1663 30.0001 14.1079 30.0334 14.0246 30.0334L14.0329 30.0417ZM12.1329 29.9584C11.0829 29.9251 10.5329 29.6251 10.2663 29.3751C10.15 29.2746 10.0539 29.153 9.98293 29.0167C9.94126 28.9334 9.9246 28.8667 9.9246 28.8501C9.9246 28.8334 10.0246 28.8167 10.1746 28.8167H10.2079C10.5579 28.8167 11.2829 28.9667 12.1246 29.9584H12.1329ZM13.2663 29.8584C12.6665 29.7932 12.1089 29.5188 11.6913 29.0834C11.5375 28.9152 11.4211 28.7164 11.3496 28.5001C11.3496 28.5001 11.4496 28.4751 11.5996 28.4667C11.6274 28.4657 11.6552 28.4657 11.6829 28.4667C12.0996 28.4751 12.8746 28.6667 13.2663 29.8584ZM8.93293 29.4417C8.66673 29.4441 8.40112 29.4162 8.14126 29.3584C7.69959 29.2417 7.50793 29.0751 7.4246 28.9501C7.39053 28.9 7.36778 28.8431 7.35793 28.7834C7.3553 28.7612 7.3553 28.7389 7.35793 28.7167C7.35793 28.7167 7.64959 28.6334 8.05793 28.6251C8.26467 28.6198 8.47139 28.6366 8.6746 28.6751C9.09969 28.7646 9.47833 29.0042 9.74126 29.3501C9.74126 29.3501 9.40793 29.4501 8.93293 29.4501V29.4417ZM10.8913 28.7417C10.8527 28.7428 10.8143 28.7359 10.7785 28.7216C10.7427 28.7072 10.7101 28.6857 10.6829 28.6584C10.6357 28.6007 10.6041 28.5318 10.5913 28.4584C10.5579 28.3251 10.5663 28.1917 10.5663 28.1751C10.5978 28.1609 10.6317 28.1524 10.6663 28.1501H10.6746C10.8413 28.1501 10.9746 28.3001 11.0329 28.4417C11.0663 28.5251 11.0663 28.5917 11.0496 28.6417C11.0246 28.7001 10.9663 28.7334 10.8913 28.7334V28.7417ZM9.4246 28.5334C9.14326 28.4536 8.87411 28.3359 8.62459 28.1834C8.25793 27.9584 7.79959 27.5584 7.74959 26.9334L7.83293 26.9251H7.85793C7.96626 26.9251 8.19126 26.9501 8.46626 27.1584C8.81626 27.4251 9.13293 27.8917 9.4246 28.5334ZM10.3829 28.5001C10.1531 28.3954 9.93976 28.2579 9.74959 28.0917C9.2619 27.6708 8.88189 27.1393 8.64126 26.5417C8.64126 26.5417 8.71626 26.5001 8.83293 26.4917C8.83848 26.4916 8.84404 26.4916 8.84959 26.4917H8.88293C9.0496 26.4917 9.29126 26.5667 9.55793 26.8584C9.87459 27.1917 10.1496 27.7417 10.3913 28.5001H10.3829ZM7.89126 28.4251C7.56626 28.4251 7.45793 28.2584 7.4246 28.1751C7.3923 28.0959 7.38083 28.0099 7.39126 27.9251C7.44596 27.9129 7.50191 27.9073 7.55793 27.9084C7.66143 27.9051 7.76426 27.926 7.85829 27.9694C7.95231 28.0128 8.03493 28.0775 8.09959 28.1584C8.11626 28.1917 8.16626 28.2751 8.12459 28.3501C8.09126 28.4001 8.01626 28.4334 7.89126 28.4334V28.4251ZM7.18293 27.5251C6.9317 27.5278 6.68072 27.5083 6.43293 27.4667C6.14959 27.4167 5.99126 27.1751 5.8996 26.9751C5.81626 26.7667 5.78293 26.5584 5.78293 26.5584C6.66626 26.5834 7.09126 26.8417 7.28293 27.0584C7.40396 27.1829 7.48017 27.3442 7.49959 27.5167C7.49959 27.5167 7.36626 27.5334 7.18293 27.5334V27.5251ZM8.09959 26.6084C8.02836 26.5173 7.96162 26.4227 7.8996 26.3251C7.79126 26.1584 7.69959 25.9917 7.69959 25.8584C7.69959 25.7167 7.66626 25.4417 7.6496 25.2751L7.59959 24.9001C7.62459 24.9001 8.1496 25.1001 8.1496 25.6001C8.1496 26.1001 8.09959 26.6001 8.09959 26.6001V26.6084ZM7.41626 26.5584H7.3996C6.82794 26.3872 6.30711 26.0781 5.88293 25.6584C5.74126 25.4917 5.64959 25.2251 5.62459 24.8751C5.60793 24.6251 5.62459 24.4167 5.62459 24.3917C5.65447 24.3838 5.68546 24.381 5.71626 24.3834C5.83293 24.3834 5.96626 24.4334 6.13293 24.5501C6.28764 24.6596 6.43262 24.7823 6.56626 24.9167C6.83293 25.1834 7.04126 25.4501 7.04126 25.4501C7.06626 25.4834 7.20793 25.7584 7.33293 26.0251C7.39142 26.1475 7.43614 26.2761 7.46626 26.4084C7.4746 26.4584 7.48293 26.4917 7.46626 26.5251C7.46232 26.5389 7.45341 26.5507 7.44126 26.5584C7.43029 26.5609 7.4189 26.5609 7.40793 26.5584H7.41626Z" fill="#435125"/>
<path d="M36.2501 6.3667L36.1001 6.42503L36.0334 6.45003L35.8501 6.4417L35.6667 6.52503L35.3501 6.7417L35.3417 6.75003L35.2167 6.78337L35.1084 6.73337L35.0501 6.7667L35.0251 6.8917L34.9667 6.98337L34.8917 7.03337L34.6417 7.05837L34.4334 7.17503L34.1501 7.0917L34.0251 7.15003L33.7501 7.40003L33.6084 7.45837H33.5667L33.3751 7.45003L33.3001 7.47503L33.1834 7.58337L32.9667 7.60003L32.8917 7.65003L32.7834 7.8667L32.6667 8.00003L32.6001 8.00837L32.5334 7.98337L32.4751 7.9917L32.4501 8.13337L32.4001 8.1917L32.2501 8.2417L32.1334 8.3417L32.0251 8.3917H31.8584L31.7167 8.47503L31.4584 8.4917L31.3501 8.5917L31.3251 8.6167L31.2751 8.6417L31.1917 8.6917L31.1751 8.70837L31.0751 8.6917L30.9584 8.73337L30.9084 8.6667L30.8251 8.70837L30.7251 8.7167L30.5917 8.65837L30.4834 8.60837L30.4084 8.62503L30.3834 8.75003V8.7667L30.3001 8.8667L30.1584 8.95837L30.1417 8.98337L29.9751 9.20003L29.6584 9.53337L29.3917 9.6667L29.1167 9.75003L28.9251 9.90837L28.4251 10.1584L27.6167 10.5584L27.4501 10.6084L27.2167 10.6417L26.8001 10.8L26.4334 10.9084L26.4084 10.9167L26.3417 10.9417L25.8167 11.1L25.5751 11.0667L25.4334 11.125L25.0584 11.0834H24.8001L24.6334 11.1167L24.3251 11.2667L23.8001 11.5167L23.6334 11.6834L23.3667 11.8167L23.0501 11.9167V11.7834L22.9417 11.8167L22.8584 11.8417L22.6084 11.875H22.4667L22.3751 11.85H22.3584L21.8417 12.025L21.2584 12.0834L20.9667 12.175H20.7501L20.6167 12.2167L20.3501 12.25L20.2501 12.225L20.2334 12.2167L19.4501 12.25L19.0917 12.2084L18.9251 12.25L18.6334 12.15L18.2167 12.1L18.1167 12.075L17.9001 12.0084L17.8001 12.0667L17.7167 12.075L17.5501 12.0084H17.4834L17.3334 12.0584L17.2501 12.0417L17.1667 11.975L16.9917 11.95L16.8751 11.8584L16.2501 11.9417L16.0834 11.8917L15.5084 11.725H15.4251L15.3084 11.8084L15.1417 11.875L14.9834 11.9084L14.7834 11.9167L14.5501 11.8584L14.3167 11.7417L14.2251 11.7167L14.0251 11.7417H13.9667L13.6001 11.55L13.1334 11.2584L12.8167 11.1L12.6917 11.0834L12.6751 11.1417L12.7334 11.325L12.7584 11.5167V11.6834L12.7501 11.7917L12.7751 11.8834L12.8917 12.0167L12.9417 12.1417L12.9751 12.4917V12.85L12.9167 13.4167L12.9001 13.5L12.8334 13.8L12.7751 14.075L12.5334 14.8L12.4751 14.8834L12.3084 14.9917L11.9501 15.2417L11.6834 15.3917L11.6001 15.425L11.3834 15.4417H11.2501L11.0834 15.35L10.9167 15.3084L10.7001 15.15L10.4667 15.1L10.2001 14.95L10.1334 14.8667L9.99173 14.85L9.79173 14.7917L9.71673 14.7667L9.66673 14.7584L9.41673 14.75L9.17507 14.6417L9.05007 14.6084H8.8834L8.7084 14.6917L8.61673 14.725L8.50006 14.6834H8.41673L8.3334 14.825L8.31673 14.85L8.25006 14.8834H8.1084L8.04173 14.9084L7.95006 14.95L7.86673 14.9834L7.82506 15H7.80007L7.7584 15.0167H7.7084L7.6084 14.9667L7.5584 14.9417L7.47506 14.925L7.4334 14.95L7.42507 15.1084L7.3834 15.2L7.25006 15.3167L7.11673 15.4334L7.0334 15.5667L6.7834 16.125L6.62506 16.35L6.5834 16.4084L6.41673 16.5834L6.27507 16.6917L5.95006 16.9417L5.64173 17.0667L5.37506 17.1167H5.24173L4.99173 17.0834L4.77507 17.0167L4.52507 16.8667L4.26673 16.65L3.87506 16.275L3.82506 16.2417L3.8084 16.2334L3.69173 16.15H3.60006L3.56673 16.2167L3.54173 16.3L3.52507 16.375L3.4834 16.7917V16.8167L3.5084 16.9917L3.8084 17.4084L3.89173 17.625L3.9084 17.65L3.96673 17.75L4.01673 17.8334L4.12506 18.1334L4.05007 18.3L4.0834 18.4167L4.00006 18.4834L3.9834 18.5834L4.24173 18.9167L4.30007 19.0584L4.24173 19.2584L4.1334 19.375L4.1084 19.4L4.12506 19.4834L4.24173 19.6L4.45006 19.7834L4.5584 20.05L4.64173 20.1334L4.74173 20.1084L4.79173 20.15H4.87506L4.9584 20.2334L5.0084 20.25L5.09173 20.2917L5.1584 20.375L5.16673 20.6417L5.29173 20.9584V21.1667L5.37506 21.2917L5.39173 21.3917L5.35006 21.6667L5.45006 21.75L5.55007 21.7334L5.61673 21.7417L5.72506 21.8334L5.8584 22.0334L5.99173 22.0167L6.07506 22.05L6.46673 22.4084L6.55007 22.4584L6.62506 22.4917L6.7084 22.575L6.82506 22.4917H6.84173L6.97506 22.475L7.0334 22.5167L7.15007 22.5917H7.29173L7.62506 22.6917L7.7584 22.725L8.04173 22.9L8.16673 22.975L8.2334 23.0334L8.3334 23.1167L8.51673 23.2L8.6834 23.2334L8.76673 23.25L8.84173 23.275L9.19173 23.4167L9.3834 23.4584L9.55007 23.525L9.6834 23.5667H9.7834L9.91673 23.4584H10.0417L10.1501 23.475L10.2584 23.4584L10.4251 23.3584L10.4501 23.3084L10.5667 23.2584L10.9667 23.2084L11.0834 23.2417L11.3834 23.1167L11.5834 23.1667L11.7501 23.1084L12.1417 23.1917L12.2417 23.2667L12.3584 23.3917H12.5001L12.4417 23.4834L12.6084 23.6667L12.7667 23.8917L12.7751 23.925L12.8834 24.25L12.9667 24.3667L13.0251 24.525V24.625L12.9417 24.7L12.9251 24.7334V24.75L12.9417 24.7917L12.9751 24.775L13.0334 24.7417L13.1167 24.725L13.2501 24.7417L13.3417 24.75L13.4834 24.6834L13.5834 24.6334L13.7334 24.7H13.9001L13.9751 24.725L14.1751 24.8167L14.2751 24.825L14.3084 24.8L14.3334 24.75L14.3251 24.6834L14.2417 24.5917L14.0751 24.3917L14.0084 24.2917L13.9584 24.15L13.9417 23.9667L13.9251 23.8417L13.9501 23.675L13.9917 23.6167L14.0251 23.4834L14.0334 23.45L14.1334 23.325L14.3834 23.1584L14.6501 22.925L14.8584 22.7834L15.0751 22.6917V22.6667L15.1084 22.675L15.6584 22.4834L15.9084 22.4417L17.5751 22.5584L17.6334 22.5417L17.6917 22.3834L17.7167 22.3584L17.7417 22.3417L17.9251 22.2584L18.0084 22.2417L18.2417 22.3L18.3417 22.325L18.5001 22.2417H18.6084L18.8334 22.1167H18.9751L19.0334 22.1L19.3084 21.9L19.5667 21.825L19.6334 21.7917L19.6584 21.775L19.9334 21.6334L20.1001 21.5L20.2501 21.4167L20.4167 21.3834L20.8334 21.35L20.9251 21.2084L21.1084 21.1834L21.2167 21.0584L21.3417 21.0084L21.4334 20.875L21.5167 20.7667L21.6167 20.7084L21.9584 20.6834L22.3584 20.7334L22.4167 20.7L22.5001 20.375L22.6001 20.3167L22.8501 19.9417V19.8084L22.8584 19.6917L22.9001 19.525L22.8751 19.2417L22.9084 18.9417L23.0667 18.5667L23.2084 18.4167L23.4334 18.2584L23.5501 18.2084L23.7167 18.1834H23.7334L23.7751 18.1667H24.5417L24.7334 18.1584L25.2084 18.2417H25.2417L25.4001 18.3L25.5834 18.4417L25.7834 18.6334L25.8167 18.6667L25.9417 18.725L25.9834 18.7417L26.0834 18.725L26.2334 18.6417L26.3501 18.5584L26.5001 18.475V18.4584L26.5917 18.3334L26.6251 18.275L26.9251 18.1584L27.2751 18.1417L27.3167 18.1167H27.3334L27.4251 18H27.5084L27.7251 18.0834L27.8667 18.05L27.9834 18.0917L28.0751 18.0834L28.2417 18.0584L28.4334 18.1917L28.5417 18.2084L28.9167 18.425H28.9501L28.9667 18.4334L29.0084 18.4167L29.0751 18.4H29.0834L29.0917 18.4084L29.1417 18.4667L29.2001 18.475L29.2667 18.3917L29.2417 18.3417L29.2334 18.325L29.0917 18.3L28.9751 18.0917L29.0917 17.9667L28.9084 17.75L28.8751 17.7084V17.7L28.8084 17.6L28.4917 17.1167L28.0751 16.7834L27.9334 16.675L27.8834 16.6334L27.6584 16.4084L27.5001 16.2L27.4834 16.1584L27.4501 16.0834L27.3584 15.8834L27.1917 15.7584L27.0584 15.6084L26.7751 15.225L26.7334 15.1667L26.6667 15.125H26.5251L26.5167 15.1084H26.5084V15.1L26.5751 15.0334L26.6584 15.0167L26.6834 14.9417L26.5417 14.5334V14.5167L26.5334 14.3917L26.6417 13.8L26.6584 13.725L26.8584 13.3334L26.9751 13.2334L27.1084 12.975L27.2251 12.8084L27.3334 12.7L27.3501 12.6917L27.5417 12.575L27.7084 12.55L27.8667 12.525L28.1417 12.6084H28.3917L28.4501 12.6L28.5667 12.5834L28.7584 12.525L28.8501 12.4667L28.9001 12.4L29.0001 12.0667L29.0334 11.9584L29.0917 11.8417L29.4501 11.4334L29.7167 11.1834L30.3167 10.75L30.6084 10.575L30.7584 10.4834L32.1001 9.88337L32.4501 9.53337L32.6334 9.35003L32.9501 9.13337L33.3251 8.97503L33.6584 8.72503L33.7251 8.63337L33.8084 8.3417L33.8917 8.32503L33.9501 8.18337L33.9751 8.1417L34.2334 7.95837L34.2667 7.9417L35.2917 7.42503L35.4417 7.45003L35.5251 7.32503L35.8167 7.27503H35.8751L35.9501 7.23337L36.0084 7.12503V7.10003L36.0167 6.8167L36.0834 6.7417L36.1167 6.55837L36.1501 6.50837L36.1834 6.4667L36.2667 6.40837L36.2501 6.37503V6.3667Z" fill="#D47600"/>
</g>
<defs>
<clipPath id="clip0_8424_43224">
<rect width="40" height="40" rx="20" fill="white"/>
</clipPath>
</defs>
</svg>
