<svg width="40" height="40" viewBox="0 0 40 40" fill="none" xmlns="http://www.w3.org/2000/svg">
<g clip-path="url(#clip0_8424_43326)">
<path d="M-7 26.6666H46.3333V40H-7V26.6666Z" fill="black"/>
<path d="M-7 13.3334H46.3333V26.6667H-7V13.3334Z" fill="white"/>
<path d="M-7 0H46.3333V13.3333H-7V0Z" fill="#CE1126"/>
<path d="M19.7202 20.16L24.2869 24.4L23.9602 16.7C23.9135 15.5333 22.9002 15.8 22.1602 16.22C21.4202 16.7 20.5602 16.7 19.6669 16.3867C18.7669 16.7 17.9135 16.7 17.1735 16.22C16.4402 15.8 15.4202 15.5333 15.3735 16.7L15.0469 24.4L19.7202 20.16Z" fill="white"/>
<path fill-rule="evenodd" clip-rule="evenodd" d="M16.0131 15.8218C16.3792 15.7941 16.8271 15.9714 17.1954 16.1824C17.1961 16.1828 17.1968 16.1832 17.1975 16.1836C17.9227 16.6541 18.761 16.6563 19.653 16.3457C19.6623 16.3425 19.6723 16.3425 19.6816 16.3458C20.5668 16.6562 21.4117 16.6541 22.137 16.1836C22.1377 16.1832 22.1384 16.1827 22.1392 16.1823C22.5107 15.9714 22.9586 15.7941 23.3238 15.8218C23.5084 15.8358 23.6744 15.9024 23.7967 16.0456C23.9182 16.188 23.992 16.4008 24.0039 16.6982L24.3305 24.3981C24.3313 24.4157 24.3213 24.432 24.3054 24.4393C24.2894 24.4467 24.2706 24.4437 24.2578 24.4317L19.7202 20.2188L15.0764 24.4321C15.0634 24.4438 15.0447 24.4466 15.0289 24.4392C15.013 24.4318 15.0032 24.4156 15.0039 24.3981L15.3306 16.6982C15.3306 16.6982 15.3306 16.6982 15.3306 16.6982C15.3425 16.4007 15.4167 16.1879 15.5388 16.0455C15.6616 15.9023 15.8282 15.8358 16.0131 15.8218ZM19.7206 20.16L19.7501 20.1282L24.2395 24.2965L23.9173 16.7018L23.9173 16.7017C23.9058 16.4158 23.8354 16.2245 23.7307 16.1019C23.6268 15.9801 23.4844 15.9209 23.3173 15.9082C22.9795 15.8826 22.5513 16.0482 22.1831 16.257C21.4326 16.7433 20.5632 16.7436 19.6672 16.4325C18.7647 16.7436 17.9019 16.7433 17.1513 16.257C16.7866 16.0482 16.3583 15.8826 16.0197 15.9082C15.8521 15.9209 15.7091 15.9801 15.6046 16.1019C15.4995 16.2245 15.4286 16.4159 15.4172 16.7017L15.4172 16.7018L15.0949 24.2982L19.6915 20.1279L19.7206 20.16Z" fill="#C09300"/>
<path d="M15.9002 16.4333L15.5802 23.92L15.0469 24.4L15.3735 16.7C15.531 16.5792 15.7096 16.4887 15.9002 16.4333ZM16.5402 16.9666L16.2735 23.2333L15.7402 23.78L16.0602 16.5466C16.1669 16.6533 16.4802 16.9133 16.5402 16.9666ZM17.1202 17.4466L16.9135 22.6733L16.4802 23.0933L16.7469 17.1333C16.8535 17.2333 17.0669 17.3866 17.1202 17.4466ZM17.7535 17.7133L17.5469 22.1666L17.1269 22.5066L17.3335 17.5533C17.4402 17.6 17.6469 17.7133 17.7535 17.7133ZM18.3402 17.7133L18.1869 21.4266L17.7535 21.8466L17.9202 17.76C18.0202 17.76 18.2935 17.76 18.3402 17.7133Z" fill="#C09300"/>
<path d="M19.8801 20.9999L20.5201 23.9199L20.3068 24.1333L20.0868 23.9666L19.7268 21.3666L19.8801 23.9666L19.6668 24.2333L19.4601 23.9666L19.6135 21.3666L19.2468 23.9666L19.0268 24.1333L18.8135 23.9199L19.4535 21.0066H19.8801V20.9999Z" fill="#C09300"/>
<path fill-rule="evenodd" clip-rule="evenodd" d="M19.4241 20.97H19.8802V20.996L19.916 20.9921L20.5603 23.9317L20.3102 24.1818L20.0526 23.9867L19.8183 22.2944L19.9177 23.9785L19.6664 24.2926L19.4228 23.9782L19.5238 22.2656L19.2811 23.9867L19.0236 24.1818L18.7734 23.9317L19.4241 20.97ZM19.8522 21.0433H19.483L18.8537 23.9082L19.0302 24.0848L19.2127 23.9465L19.5772 21.3615L19.6502 21.3688L19.4976 23.9551L19.6673 24.174L19.8428 23.9547L19.6903 21.3688L19.7632 21.3616L20.1211 23.9466L20.3036 24.0848L20.4801 23.9082L19.8522 21.0433Z" fill="#C09300"/>
<path d="M18.2343 19.72L16.9609 24.2333L18.7143 24.5L19.4543 21.1066L18.2343 19.72Z" fill="white"/>
<path fill-rule="evenodd" clip-rule="evenodd" d="M18.2254 19.681C18.2397 19.6777 18.2546 19.6826 18.2643 19.6936L19.4843 21.0802C19.4927 21.0898 19.496 21.1028 19.4933 21.1152L18.7533 24.5085C18.7488 24.5291 18.7291 24.5427 18.7082 24.5395L16.9549 24.2729C16.9435 24.2711 16.9335 24.2646 16.9273 24.255C16.9211 24.2454 16.9193 24.2335 16.9224 24.2225L18.1957 19.7091C18.1997 19.695 18.2111 19.6842 18.2254 19.681ZM18.2528 19.8016L17.0117 24.2006L18.6831 24.4548L19.4108 21.1179L18.2528 19.8016Z" fill="#C09300"/>
<path fill-rule="evenodd" clip-rule="evenodd" d="M18.8243 20.878L17.9976 21.6647C17.9873 21.6745 17.9728 21.6786 17.9588 21.6757C17.9449 21.6728 17.9332 21.6632 17.9277 21.65L17.7744 21.2834L17.8544 21.2499L17.9834 21.5585L18.7645 20.8152L18.8243 20.878Z" fill="#C09300"/>
<path fill-rule="evenodd" clip-rule="evenodd" d="M18.5182 21.958L18.3448 20.338L18.431 20.3287L18.5927 21.8403L19.0534 21.2338L19.1224 21.2862L18.9252 21.5459L19.1381 22.2884L19.2384 22.1362L19.3108 22.1839L19.1695 22.3982L19.2029 22.5147L19.1196 22.5386L19.1067 22.4935L18.7357 23.0564L18.917 23.911L18.8322 23.929L18.6672 23.1511L18.3242 23.677C18.3151 23.691 18.2987 23.6985 18.2822 23.6963C18.2656 23.6941 18.2518 23.6826 18.2467 23.6667L18.0689 23.116L17.7315 23.6628C17.7224 23.6775 17.7055 23.6854 17.6883 23.6829C17.6712 23.6804 17.6573 23.668 17.6528 23.6513L17.3794 22.638C17.3754 22.6232 17.3796 22.6074 17.3903 22.5964L17.9369 22.0364C17.9478 22.0253 17.9637 22.0208 17.9788 22.0247C17.9938 22.0286 18.0056 22.0402 18.0097 22.0552L18.1529 22.5764L18.4932 22.1207C18.5035 22.1069 18.5211 22.1005 18.5379 22.1045C18.5547 22.1085 18.5675 22.122 18.5706 22.139L18.7129 22.9335L19.0752 22.3838L18.8597 21.6321L18.5958 21.9796C18.585 21.9937 18.5667 21.9999 18.5496 21.9951C18.5325 21.9903 18.5201 21.9756 18.5182 21.958ZM18.6422 23.0307L18.5029 22.2526L18.1693 22.6993C18.1594 22.7125 18.1428 22.719 18.1266 22.7159C18.1103 22.7129 18.0972 22.7008 18.0928 22.6848L17.9462 22.151L17.4695 22.6393L17.7103 23.532L18.0444 22.9906C18.0533 22.9762 18.0697 22.9683 18.0865 22.9703C18.1032 22.9724 18.1173 22.9839 18.1225 23L18.3013 23.5536L18.6422 23.0307Z" fill="#C09300"/>
<path fill-rule="evenodd" clip-rule="evenodd" d="M17.6946 23.5905C17.711 23.5933 17.7244 23.6051 17.7291 23.621L17.9278 24.2931L18.1971 23.8443C18.2058 23.8298 18.2223 23.8216 18.2391 23.8236C18.256 23.8255 18.2702 23.8371 18.2755 23.8533L18.4821 24.4933L18.3996 24.52L18.2223 23.9707L17.9514 24.4223C17.9425 24.437 17.9258 24.4451 17.9088 24.443C17.8917 24.4408 17.8775 24.4287 17.8727 24.4123L17.6713 23.7313L17.3696 24.1583L17.2988 24.1083L17.6522 23.6083C17.6617 23.5947 17.6782 23.5878 17.6946 23.5905Z" fill="#C09300"/>
<path d="M19.6671 26.2533C21.0005 26.2533 22.2671 26.1467 23.0138 25.94C23.3271 25.88 23.3271 25.72 23.3271 25.5067C23.6471 25.4 23.4871 25.0267 23.7071 25.0267C23.4805 25.0933 23.4405 24.66 23.1738 24.7133C23.1738 24.34 22.7938 24.2933 22.4805 24.4C21.8471 24.6067 20.7271 24.66 19.6671 24.66C18.6005 24.6067 17.4938 24.6067 16.8538 24.3933C16.5405 24.2933 16.1671 24.34 16.1671 24.7133C15.9005 24.66 15.8538 25.0867 15.6338 25.0267C15.8538 25.0267 15.6871 25.4067 16.0071 25.5067C16.0071 25.72 16.0071 25.88 16.3271 25.94C17.0605 26.1467 18.3405 26.2533 19.6671 26.2533Z" fill="white"/>
<path fill-rule="evenodd" clip-rule="evenodd" d="M16.3667 24.3002C16.5214 24.2467 16.712 24.2641 16.878 24.3171L16.879 24.3174L16.879 24.3174C17.1885 24.4206 17.6163 24.4735 18.1058 24.5068C18.4074 24.5273 18.7278 24.5402 19.0549 24.5533C19.258 24.5615 19.4637 24.5697 19.669 24.58C20.7303 24.5799 21.8361 24.5259 22.4551 24.3241C22.6216 24.2675 22.8137 24.2484 22.97 24.3008C23.0496 24.3275 23.1219 24.3736 23.1739 24.4445C23.2121 24.4965 23.2371 24.5587 23.2478 24.6303C23.2999 24.6359 23.3451 24.6561 23.3843 24.6841C23.4402 24.7242 23.4841 24.781 23.5188 24.8263L23.5201 24.8279C23.5578 24.877 23.585 24.9125 23.6142 24.9348C23.6275 24.9449 23.6393 24.951 23.6519 24.9529C23.6695 24.9486 23.688 24.9466 23.7071 24.9466C23.7468 24.9466 23.7806 24.9759 23.7862 25.0152C23.7919 25.0546 23.7678 25.0922 23.7296 25.1034C23.7124 25.1084 23.6959 25.1115 23.6799 25.1129C23.6772 25.115 23.6736 25.1188 23.6693 25.1263C23.6573 25.1475 23.6499 25.1763 23.6382 25.2223C23.6363 25.2299 23.6342 25.238 23.632 25.2466C23.618 25.3008 23.5985 25.369 23.557 25.4311C23.5225 25.4827 23.4744 25.5279 23.4069 25.5605C23.4061 25.647 23.4002 25.7395 23.3586 25.8182C23.3039 25.9218 23.1991 25.9854 23.032 26.0179C22.2742 26.227 21.0003 26.3333 19.6671 26.3333C18.3409 26.3333 17.0537 26.2271 16.3087 26.0179C16.1391 25.9855 16.0325 25.9223 15.9766 25.8188C15.9342 25.7402 15.928 25.6477 15.9272 25.5614C15.8599 25.5299 15.812 25.4852 15.7779 25.4335C15.7368 25.3713 15.7182 25.3024 15.7051 25.2478C15.7029 25.2385 15.7008 25.2299 15.6989 25.2217C15.6881 25.1761 15.6813 25.1472 15.6697 25.1259C15.6649 25.1173 15.6612 25.1136 15.6587 25.1119C15.6439 25.1108 15.6285 25.1082 15.6127 25.1038C15.574 25.0933 15.5491 25.0557 15.5544 25.016C15.5597 24.9763 15.5936 24.9466 15.6337 24.9466C15.6509 24.9466 15.6676 24.9483 15.6836 24.9518C15.6964 24.9499 15.7088 24.9436 15.7232 24.9324C15.7517 24.9102 15.7785 24.876 15.8148 24.8297C15.8165 24.8275 15.8182 24.8253 15.8199 24.8231C15.8553 24.778 15.8998 24.722 15.9564 24.6826C15.9957 24.6552 16.0411 24.6356 16.0929 24.6302C16.1034 24.5589 16.1279 24.4969 16.1654 24.445C16.2167 24.3739 16.288 24.3274 16.3667 24.3002ZM15.8167 25.0623C15.8356 25.1022 15.8467 25.1501 15.8558 25.1895C15.8575 25.1968 15.8591 25.2038 15.8607 25.2105C15.8734 25.2634 15.8869 25.3083 15.9114 25.3454C15.9341 25.3797 15.9686 25.4108 16.0309 25.4303C16.0643 25.4407 16.0871 25.4717 16.0871 25.5066C16.0871 25.6195 16.089 25.6901 16.1175 25.7428C16.1412 25.7869 16.1935 25.8336 16.3418 25.8613C16.3441 25.8618 16.3465 25.8623 16.3488 25.863C17.071 26.0665 18.3418 26.1733 19.6671 26.1733C20.9987 26.1733 22.2565 26.0666 22.9924 25.8629C22.9945 25.8623 22.9966 25.8618 22.9987 25.8614C23.1431 25.8338 23.1939 25.7875 23.2171 25.7435C23.2452 25.6904 23.2471 25.6194 23.2471 25.5066C23.2471 25.4722 23.2691 25.4416 23.3018 25.4308C23.3647 25.4098 23.4003 25.3776 23.424 25.3422C23.4493 25.3043 23.4636 25.2592 23.4771 25.2067C23.4787 25.2003 23.4804 25.1935 23.4822 25.1864C23.4915 25.1489 23.5028 25.1036 23.5211 25.0649C23.5197 25.0639 23.5184 25.0629 23.517 25.0619C23.4704 25.0262 23.4311 24.9749 23.3991 24.933C23.3967 24.9299 23.3943 24.9267 23.3919 24.9237C23.355 24.8756 23.3247 24.8383 23.2911 24.8142C23.2616 24.7931 23.2313 24.7834 23.1894 24.7918C23.1659 24.7965 23.1415 24.7904 23.123 24.7752C23.1045 24.76 23.0937 24.7373 23.0937 24.7133C23.0937 24.634 23.0737 24.5784 23.045 24.5392C23.016 24.4997 22.9737 24.4708 22.9191 24.4525C22.8072 24.415 22.6529 24.4258 22.5062 24.4757L22.5052 24.476L22.5052 24.476C21.8578 24.6873 20.725 24.74 19.6671 24.74C19.6657 24.74 19.6644 24.7399 19.6631 24.7399C19.4607 24.7298 19.2558 24.7215 19.0524 24.7134C18.7232 24.7001 18.3982 24.6871 18.095 24.6665C17.6048 24.6331 17.1594 24.5794 16.8289 24.4694C16.6818 24.4225 16.5292 24.4133 16.419 24.4514C16.3653 24.47 16.3237 24.499 16.2952 24.5385C16.2668 24.5779 16.2471 24.6337 16.2471 24.7133C16.2471 24.7373 16.2363 24.76 16.2178 24.7752C16.1992 24.7904 16.1749 24.7965 16.1514 24.7918C16.109 24.7833 16.078 24.7929 16.0479 24.8139C16.0138 24.8376 15.9829 24.8745 15.9458 24.9218C15.943 24.9255 15.94 24.9293 15.9371 24.9331C15.9051 24.9741 15.8664 25.0237 15.8215 25.0586C15.8199 25.0599 15.8183 25.0611 15.8167 25.0623Z" fill="#C09300"/>
<path d="M17.8605 24.2333C18.2871 24.2933 18.7671 24.34 19.1405 24.2933C19.3538 24.2933 19.5071 24.66 19.0805 24.7133C18.7138 24.76 18.1271 24.7133 17.8138 24.66C17.4014 24.5878 16.9922 24.4988 16.5871 24.3933C16.2138 24.2333 16.4805 23.9266 16.6938 23.9666C17.0744 24.0886 17.4647 24.1778 17.8605 24.2333ZM21.4738 24.2333C21.0471 24.2933 20.5671 24.34 20.2071 24.2933C19.9805 24.2933 19.8271 24.66 20.2538 24.7133C20.6271 24.76 21.2071 24.7133 21.5205 24.66C21.7871 24.6066 22.3738 24.5066 22.7471 24.3933C23.1205 24.2333 22.8538 23.9266 22.6405 23.9666C22.2599 24.0886 21.8696 24.1778 21.4738 24.2333Z" fill="white"/>
<path fill-rule="evenodd" clip-rule="evenodd" d="M16.6016 24.3522C16.5159 24.3149 16.4736 24.2723 16.4558 24.2348C16.4383 24.1982 16.4412 24.1604 16.4594 24.1246C16.4781 24.088 16.5126 24.0544 16.555 24.0324C16.5965 24.0107 16.6423 24.0017 16.6837 24.0088C17.0657 24.131 17.4575 24.2205 17.8548 24.2762M16.6016 24.3522C17.0045 24.4571 17.4115 24.5455 17.8215 24.6173C18.1328 24.6702 18.7147 24.7162 19.0754 24.6703L19.0754 24.6703C19.1763 24.6577 19.2365 24.6273 19.2697 24.5944C19.302 24.5624 19.3121 24.5251 19.3078 24.4884C19.2986 24.4107 19.2251 24.3381 19.1433 24.3367C18.7642 24.3835 18.2805 24.3361 17.8548 24.2762M16.515 23.9555C16.571 23.9263 16.6375 23.9119 16.7021 23.924C16.7039 23.9244 16.7057 23.9248 16.7074 23.9254C17.0856 24.0466 17.4735 24.1352 17.8668 24.1904L17.8608 24.2333L17.8669 24.1904C18.2934 24.2504 18.7684 24.2962 19.1354 24.2503C19.1372 24.2501 19.139 24.25 19.1408 24.25C19.2713 24.25 19.3798 24.36 19.3939 24.4782C19.4012 24.5399 19.383 24.6042 19.3307 24.656C19.2794 24.7068 19.1987 24.7422 19.0863 24.7563C18.7137 24.8037 18.1223 24.7564 17.8069 24.7027L17.8067 24.7027C17.3932 24.6303 16.9828 24.5411 16.5766 24.4352C16.5745 24.4347 16.5724 24.434 16.5704 24.4331C16.4714 24.3907 16.4078 24.3356 16.3775 24.2722C16.3467 24.2076 16.3538 24.1412 16.3822 24.0853C16.4102 24.0303 16.459 23.9847 16.515 23.9555ZM22.9574 24.2722C22.9272 24.3356 22.8636 24.3907 22.7646 24.4331C22.7631 24.4338 22.7616 24.4343 22.7601 24.4348C22.4609 24.5256 22.026 24.6079 21.7277 24.6643C21.651 24.6789 21.5833 24.6917 21.5293 24.7025L21.5281 24.7027C21.2126 24.7564 20.628 24.8037 20.2488 24.7563C20.1364 24.7423 20.0556 24.7068 20.0044 24.6559C19.9522 24.604 19.9345 24.5394 19.9429 24.4775C19.959 24.3583 20.0718 24.25 20.2075 24.25C20.2094 24.25 20.2112 24.2501 20.2131 24.2503C20.5667 24.2962 21.0414 24.2504 21.4681 24.1904L21.4742 24.2333L21.4681 24.1904C21.8615 24.1352 22.2494 24.0466 22.6276 23.9254C22.6293 23.9248 22.6311 23.9244 22.6328 23.924C22.6975 23.9119 22.764 23.9263 22.82 23.9555C22.876 23.9847 22.9248 24.0303 22.9528 24.0853C22.9812 24.1412 22.9883 24.2076 22.9574 24.2722ZM21.4802 24.2762C21.0547 24.3361 20.5709 24.3835 20.2049 24.3367C20.115 24.3381 20.0392 24.4123 20.0288 24.4891C20.0238 24.5256 20.0336 24.5627 20.0656 24.5945C20.0985 24.6273 20.1586 24.6577 20.2595 24.6703C20.6268 24.7162 21.2016 24.6703 21.5129 24.6174C21.5685 24.6063 21.6373 24.5932 21.7148 24.5785C22.0126 24.5222 22.4386 24.4415 22.7326 24.3525C22.8188 24.3152 22.8613 24.2724 22.8792 24.2348C22.8967 24.1982 22.8938 24.1604 22.8755 24.1246C22.8569 24.088 22.8223 24.0544 22.78 24.0324C22.7385 24.0107 22.6927 24.0017 22.6513 24.0088C22.2692 24.1311 21.8775 24.2205 21.4802 24.2762" fill="#C09300"/>
<path d="M16.5335 24.0266C16.2135 23.9666 16.0668 24.34 16.1668 24.5533C16.2135 24.4466 16.4335 24.4466 16.4801 24.34C16.5401 24.18 16.4335 24.18 16.5401 24.0266H16.5335ZM17.8135 25.0066C17.8135 24.7933 18.0201 24.82 18.0201 24.6066C18.0201 24.5066 17.9668 24.34 17.8601 24.34C17.8046 24.3432 17.7521 24.3667 17.7128 24.406C17.6735 24.4453 17.65 24.4978 17.6468 24.5533C17.6001 24.76 17.8135 24.7933 17.8135 25.0066ZM19.3268 24.4C19.6401 24.4 19.6068 24.82 19.4601 25.0333C19.4601 24.88 19.1935 24.82 19.1935 24.7133C19.1935 24.5533 19.4335 24.5533 19.3268 24.4ZM22.7935 24.0266C23.1201 23.9666 23.2735 24.34 23.1668 24.5533C23.1201 24.4466 22.9001 24.4466 22.8535 24.34C22.7935 24.18 22.9001 24.18 22.7935 24.0266ZM21.5335 25C21.5335 24.7866 21.3201 24.8133 21.3201 24.6C21.3201 24.5 21.3735 24.3333 21.4801 24.3333C21.5357 24.3365 21.5881 24.36 21.6274 24.3993C21.6668 24.4387 21.6903 24.4911 21.6935 24.5466C21.7401 24.7533 21.5268 24.7866 21.5268 25H21.5335ZM20.0001 24.4C19.6868 24.4 19.7201 24.82 19.8668 25.0333C19.8668 24.88 20.1335 24.82 20.1335 24.7133C20.1335 24.5533 19.8935 24.5533 20.0001 24.4Z" fill="white"/>
<path fill-rule="evenodd" clip-rule="evenodd" d="M16.5378 23.9833C16.3584 23.9514 16.2264 24.0414 16.1554 24.166C16.0853 24.2888 16.0711 24.4504 16.1279 24.5717C16.1351 24.5871 16.1507 24.5968 16.1677 24.5966C16.1847 24.5964 16.2 24.5862 16.2069 24.5706C16.2134 24.5557 16.2272 24.5416 16.2515 24.5272C16.2759 24.5126 16.3058 24.5005 16.3399 24.4868L16.3416 24.4862C16.3737 24.4733 16.4097 24.4589 16.4406 24.4405C16.4722 24.4216 16.5034 24.3957 16.5202 24.3573C16.5205 24.3566 16.5208 24.3559 16.5211 24.3552C16.5377 24.3109 16.5434 24.2759 16.5435 24.2452C16.5436 24.2216 16.5401 24.2006 16.5375 24.1847C16.5369 24.181 16.5363 24.1775 16.5359 24.1744C16.5333 24.1574 16.5326 24.1444 16.5366 24.1281C16.5409 24.111 16.5512 24.0871 16.5761 24.0514C16.5853 24.0381 16.5864 24.0208 16.5789 24.0065C16.5714 23.9922 16.5566 23.9833 16.5405 23.9833H16.5378ZM16.4684 24.0635C16.3594 24.063 16.2792 24.1237 16.2306 24.2089C16.1855 24.288 16.1699 24.3848 16.1851 24.4672C16.1923 24.4619 16.1996 24.4572 16.207 24.4527C16.2379 24.4343 16.2739 24.4199 16.3061 24.4071L16.3077 24.4064C16.3418 24.3927 16.3718 24.3807 16.3962 24.3661C16.4199 24.3519 16.4337 24.3381 16.4404 24.3235C16.4534 24.2884 16.4568 24.2638 16.4569 24.2449C16.4569 24.2292 16.4549 24.217 16.4525 24.202C16.4517 24.1974 16.4509 24.1925 16.4501 24.1872C16.4468 24.165 16.4446 24.1392 16.4525 24.1074C16.4559 24.0934 16.4611 24.079 16.4684 24.0635ZM22.7938 24.0266L22.7583 24.0514C22.7832 24.0871 22.7935 24.111 22.7977 24.1281C22.8017 24.1444 22.801 24.1574 22.7985 24.1744C22.798 24.1775 22.7974 24.181 22.7968 24.1847C22.7942 24.2006 22.7907 24.2216 22.7908 24.2452C22.7909 24.2759 22.7967 24.3109 22.8133 24.3552C22.8135 24.3559 22.8138 24.3566 22.8141 24.3573C22.8309 24.3957 22.8621 24.4216 22.8937 24.4405C22.9246 24.4589 22.9606 24.4733 22.9927 24.4862L22.9944 24.4868C23.0285 24.5005 23.0584 24.5126 23.0829 24.5272C23.1071 24.5416 23.1209 24.5557 23.1275 24.5706C23.1342 24.5861 23.1492 24.5962 23.1661 24.5966C23.1829 24.597 23.1984 24.5877 23.2059 24.5727C23.2669 24.4508 23.2524 24.2885 23.1804 24.1656C23.1069 24.0399 22.9701 23.9502 22.786 23.984L22.7938 24.0266ZM23.1056 24.2093C23.0566 24.1256 22.9756 24.0649 22.8659 24.0635C22.8732 24.079 22.8784 24.0934 22.8818 24.1074C22.8897 24.1392 22.8875 24.165 22.8842 24.1872C22.8834 24.1925 22.8826 24.1974 22.8818 24.202C22.8794 24.217 22.8774 24.2292 22.8775 24.2449C22.8776 24.2638 22.8809 24.2884 22.8939 24.3235C22.9006 24.3381 22.9144 24.3519 22.9381 24.3661C22.9625 24.3807 22.9925 24.3927 23.0266 24.4064L23.0283 24.4071C23.0604 24.4199 23.0964 24.4343 23.1273 24.4527C23.1352 24.4575 23.1431 24.4626 23.1507 24.4683C23.1678 24.386 23.1521 24.2889 23.1056 24.2093ZM21.3994 24.4483C21.3758 24.4961 21.3638 24.5561 21.3638 24.5999C21.3638 24.6452 21.3749 24.6753 21.3902 24.6989C21.4064 24.7238 21.4284 24.7434 21.4557 24.7673L21.4573 24.7688C21.4793 24.788 21.5049 24.8103 21.5264 24.8389C21.5445 24.8068 21.5659 24.7797 21.5852 24.7551C21.5881 24.7514 21.591 24.7477 21.5938 24.7441C21.6176 24.7137 21.6361 24.688 21.6469 24.6593C21.6573 24.632 21.6614 24.5998 21.6516 24.5562C21.651 24.5538 21.6507 24.5515 21.6506 24.5491C21.648 24.5042 21.629 24.4618 21.5972 24.4299C21.5657 24.3984 21.5238 24.3795 21.4794 24.3766C21.452 24.3772 21.4236 24.3991 21.3994 24.4483ZM21.5743 24.9561C21.5851 24.8958 21.618 24.8538 21.6554 24.8061C21.6576 24.8032 21.6599 24.8003 21.6621 24.7974C21.6859 24.767 21.712 24.7323 21.728 24.69C21.7442 24.6471 21.7494 24.5986 21.7369 24.5405C21.7323 24.4757 21.7045 24.4147 21.6585 24.3687C21.6116 24.3218 21.5491 24.2938 21.483 24.29C21.4825 24.29 21.4821 24.29 21.4816 24.29C21.4812 24.29 21.4809 24.2899 21.4805 24.2899C21.4015 24.2899 21.3504 24.3515 21.3216 24.41C21.2918 24.4705 21.2772 24.5438 21.2772 24.5999C21.2772 24.6613 21.2927 24.7079 21.3175 24.746C21.3408 24.782 21.3713 24.8087 21.397 24.8311L21.3986 24.8326C21.426 24.8565 21.4479 24.8761 21.4641 24.901C21.4739 24.9161 21.482 24.9339 21.4865 24.9567C21.4848 24.9704 21.4838 24.9848 21.4838 24.9999C21.4838 25.0239 21.5032 25.0433 21.5272 25.0433H21.5338C21.5578 25.0433 21.5772 25.0239 21.5772 24.9999C21.5772 24.9844 21.5762 24.9698 21.5743 24.9561ZM17.858 24.2967C17.8588 24.2966 17.8597 24.2966 17.8605 24.2966C17.9394 24.2966 17.9906 24.3581 18.0194 24.4166C18.0492 24.4772 18.0638 24.5505 18.0638 24.6066C18.0638 24.6677 18.0488 24.7141 18.0249 24.7522C18.0023 24.7881 17.9727 24.8149 17.9478 24.8374L17.9462 24.8388C17.9197 24.8627 17.8985 24.8822 17.8828 24.9072C17.868 24.9308 17.8572 24.961 17.8572 25.0066H17.7705C17.7705 24.9211 17.7315 24.8713 17.6856 24.8127C17.6834 24.8099 17.6811 24.807 17.6788 24.8041C17.6551 24.7737 17.629 24.7389 17.613 24.6966C17.5968 24.6537 17.5916 24.6053 17.6041 24.5472C17.6087 24.4824 17.6365 24.4213 17.6825 24.3753C17.7294 24.3285 17.7919 24.3005 17.858 24.2967ZM17.8169 24.8498C17.7984 24.8158 17.776 24.7874 17.7558 24.7618C17.7528 24.758 17.75 24.7544 17.7472 24.7508C17.7234 24.7204 17.7049 24.6947 17.694 24.666C17.6837 24.6387 17.6796 24.6065 17.6894 24.5628C17.69 24.5605 17.6903 24.5581 17.6904 24.5558C17.693 24.5108 17.712 24.4684 17.7438 24.4366C17.7753 24.4051 17.8172 24.3862 17.8616 24.3833C17.889 24.3839 17.9174 24.4058 17.9416 24.4549C17.9652 24.5027 17.9772 24.5628 17.9772 24.6066C17.9772 24.6522 17.9663 24.6825 17.9515 24.7061C17.9358 24.731 17.9146 24.7506 17.8881 24.7745L17.8866 24.7759C17.8643 24.7959 17.8383 24.8194 17.8169 24.8498ZM19.2888 24.3799C19.2962 24.3656 19.311 24.3566 19.3272 24.3566C19.4161 24.3566 19.485 24.3869 19.5329 24.4398C19.5798 24.4916 19.6027 24.5608 19.6095 24.6325C19.623 24.775 19.5749 24.9434 19.4962 25.0578C19.4854 25.0735 19.4658 25.0803 19.4476 25.0747C19.4295 25.069 19.4172 25.0523 19.4172 25.0333C19.4172 25.0087 19.4068 24.9859 19.3861 24.962C19.3648 24.9374 19.3353 24.9148 19.302 24.8911C19.2965 24.8871 19.2908 24.8832 19.2851 24.8791C19.2579 24.86 19.2289 24.8396 19.2061 24.8186C19.179 24.7936 19.1505 24.7589 19.1505 24.7133C19.1505 24.6194 19.2163 24.5664 19.259 24.532C19.2639 24.5281 19.2685 24.5244 19.2726 24.5209C19.2964 24.5009 19.3067 24.4888 19.31 24.4782C19.312 24.4717 19.314 24.457 19.2916 24.4247C19.2824 24.4114 19.2813 24.3942 19.2888 24.3799ZM19.3966 24.4528C19.4274 24.4623 19.4508 24.4782 19.4687 24.498C19.4991 24.5316 19.5175 24.5808 19.5232 24.6407C19.5319 24.732 19.5101 24.839 19.4696 24.9284C19.464 24.9203 19.4579 24.9126 19.4516 24.9052C19.4229 24.8721 19.3857 24.8443 19.3523 24.8205C19.3457 24.8158 19.3393 24.8113 19.3331 24.8069C19.3062 24.7879 19.283 24.7716 19.2648 24.7548C19.242 24.7338 19.2372 24.721 19.2372 24.7133C19.2372 24.6629 19.2687 24.6368 19.3143 24.599C19.3188 24.5952 19.3235 24.5914 19.3284 24.5873C19.3512 24.5681 19.381 24.5415 19.3927 24.504C19.398 24.4871 19.3991 24.4701 19.3966 24.4528ZM19.7947 24.4398C19.8426 24.3869 19.9116 24.3566 20.0005 24.3566C20.0166 24.3566 20.0314 24.3656 20.0389 24.3799C20.0464 24.3942 20.0453 24.4114 20.0361 24.4247C20.0136 24.457 20.0157 24.4717 20.0177 24.4782C20.021 24.4888 20.0312 24.5009 20.055 24.5209C20.0592 24.5244 20.0638 24.5281 20.0686 24.532C20.1113 24.5664 20.1772 24.6194 20.1772 24.7133C20.1772 24.7589 20.1487 24.7936 20.1215 24.8186C20.0987 24.8396 20.0697 24.86 20.0426 24.8791C20.0368 24.8832 20.0311 24.8871 20.0256 24.8911C19.9923 24.9148 19.9629 24.9374 19.9416 24.962C19.9209 24.9859 19.9105 25.0087 19.9105 25.0333C19.9105 25.0523 19.8981 25.069 19.88 25.0747C19.8619 25.0803 19.8422 25.0735 19.8315 25.0578C19.7528 24.9434 19.7047 24.775 19.7182 24.6325C19.725 24.5608 19.7478 24.4916 19.7947 24.4398ZM19.8581 24.9284C19.8176 24.839 19.7958 24.732 19.8045 24.6407C19.8102 24.5808 19.8286 24.5316 19.859 24.498C19.8768 24.4782 19.9003 24.4623 19.9311 24.4528C19.9286 24.4701 19.9297 24.4871 19.935 24.504C19.9467 24.5415 19.9764 24.5681 19.9993 24.5873C20.0041 24.5914 20.0088 24.5952 20.0134 24.599C20.0589 24.6368 20.0905 24.6629 20.0905 24.7133C20.0905 24.721 20.0856 24.7338 20.0628 24.7548C20.0446 24.7716 20.0215 24.7879 19.9946 24.8069C19.9883 24.8113 19.9819 24.8158 19.9753 24.8205C19.942 24.8443 19.9048 24.8721 19.8761 24.9052C19.8697 24.9126 19.8637 24.9203 19.8581 24.9284Z" fill="#C09300"/>
<path d="M16.6475 24.1333C16.7541 24.1333 16.9141 24.18 16.9608 24.24L16.6475 24.1333ZM17.1741 24.2933C17.2275 24.2933 17.4408 24.34 17.5408 24.4L17.1741 24.2933ZM19.0808 24.5066C18.9808 24.5066 18.7675 24.5066 18.7141 24.5533L19.0808 24.5V24.5066ZM18.5008 24.5066C18.4408 24.4466 18.2341 24.4466 18.1275 24.5066H18.5008ZM22.6875 24.1333C22.5743 24.1347 22.4646 24.1721 22.3741 24.24L22.6875 24.1333ZM22.1675 24.2933C22.1008 24.2933 21.9008 24.34 21.7941 24.4L22.1675 24.2933ZM20.2541 24.5066C20.3541 24.5066 20.5675 24.5066 20.6275 24.5533L20.2541 24.5V24.5066ZM20.8341 24.5066C20.8941 24.4466 21.1008 24.4466 21.2075 24.5066H20.8341Z" fill="white"/>
<path fill-rule="evenodd" clip-rule="evenodd" d="M22.7168 24.1282C22.7193 24.1428 22.7108 24.157 22.6969 24.1617L22.3835 24.2684C22.3696 24.2732 22.3542 24.2671 22.3473 24.254C22.3404 24.241 22.3441 24.2249 22.3559 24.216C22.4514 24.1443 22.5673 24.1048 22.6868 24.1033C22.7016 24.1031 22.7143 24.1137 22.7168 24.1282ZM16.6176 24.1284C16.62 24.114 16.6325 24.1033 16.6472 24.1033C16.7042 24.1033 16.774 24.1157 16.8356 24.1356C16.8665 24.1456 16.8961 24.1578 16.9214 24.1718C16.9463 24.1855 16.969 24.202 16.9842 24.2216C16.9923 24.232 16.9926 24.2466 16.985 24.2574C16.9773 24.2682 16.9634 24.2727 16.9509 24.2684L16.6375 24.1617C16.6236 24.157 16.6152 24.1429 16.6176 24.1284ZM17.1442 24.2891C17.1463 24.2743 17.1589 24.2633 17.1739 24.2633C17.2048 24.2633 17.2748 24.276 17.3474 24.2952C17.4204 24.3145 17.5022 24.342 17.556 24.3743C17.5689 24.382 17.5741 24.3982 17.568 24.412C17.562 24.4258 17.5466 24.433 17.5321 24.4288L17.1655 24.3221C17.1511 24.318 17.142 24.3039 17.1442 24.2891ZM21.9878 24.2952C22.0599 24.2759 22.1297 24.2633 22.1672 24.2633C22.1821 24.2633 22.1948 24.2744 22.1969 24.2892C22.199 24.304 22.1898 24.3181 22.1754 24.3222L21.8021 24.4288C21.7875 24.433 21.772 24.4256 21.7662 24.4116C21.7603 24.3975 21.7659 24.3813 21.7791 24.3739C21.8357 24.342 21.9152 24.3146 21.9878 24.2952ZM18.4393 24.4438C18.471 24.4519 18.5012 24.4649 18.5217 24.4855C18.5303 24.494 18.5329 24.5069 18.5282 24.5181C18.5236 24.5294 18.5127 24.5367 18.5005 24.5367H18.1272C18.1135 24.5367 18.1016 24.5275 18.0982 24.5143C18.0947 24.5011 18.1006 24.4872 18.1125 24.4805C18.1718 24.4471 18.2558 24.4317 18.3314 24.4317C18.3695 24.4317 18.4069 24.4356 18.4393 24.4438ZM21.003 24.4317C21.0786 24.4317 21.1625 24.4471 21.2219 24.4805C21.2338 24.4872 21.2397 24.5011 21.2362 24.5143C21.2328 24.5275 21.2208 24.5367 21.2072 24.5367H20.8339C20.8217 24.5367 20.8108 24.5294 20.8061 24.5181C20.8015 24.5069 20.8041 24.494 20.8126 24.4855C20.8332 24.4649 20.8634 24.4519 20.8951 24.4438C20.9275 24.4356 20.9649 24.4317 21.003 24.4317ZM19.1002 24.4773C19.1067 24.483 19.1105 24.4913 19.1105 24.5V24.5067C19.1105 24.5232 19.0971 24.5367 19.0805 24.5367C19.0674 24.5367 19.0524 24.5367 19.0361 24.5368L18.7182 24.583C18.705 24.5849 18.6922 24.578 18.6866 24.5659C18.681 24.5538 18.6841 24.5395 18.6941 24.5308C18.7135 24.5138 18.7432 24.5038 18.773 24.4971C18.804 24.4901 18.8404 24.4856 18.8773 24.4826C18.9302 24.4783 18.9859 24.4771 19.0316 24.4768L19.0762 24.4703C19.0848 24.4691 19.0936 24.4716 19.1002 24.4773ZM20.2342 24.4773C20.2408 24.4716 20.2495 24.4691 20.2581 24.4703L20.3036 24.4768C20.3492 24.4772 20.4048 24.4784 20.4579 24.4826C20.4952 24.4856 20.5321 24.4901 20.564 24.497C20.5949 24.5038 20.625 24.5137 20.6456 24.5297C20.6563 24.538 20.6601 24.5525 20.6548 24.5651C20.6495 24.5776 20.6364 24.585 20.6229 24.583L20.2992 24.5368C20.2825 24.5367 20.2672 24.5367 20.2539 24.5367C20.2373 24.5367 20.2239 24.5232 20.2239 24.5067V24.5C20.2239 24.4913 20.2276 24.483 20.2342 24.4773Z" fill="#C09300"/>
<path d="M16.5539 24.9733C16.5206 24.9666 16.5006 24.9333 16.5139 24.9066C16.5206 24.86 16.5539 24.84 16.5806 24.8533C16.6073 24.8533 16.6406 24.8933 16.6406 24.9066L16.6139 24.9533L16.6006 24.96C16.6006 24.9733 16.5739 24.9733 16.5539 24.9733ZM20.2206 25.2333C20.2073 25.2333 20.1806 25.2 20.1806 25.1866C20.1806 25.16 20.2206 25.12 20.2473 25.12L20.3006 25.1466C20.3206 25.1666 20.3206 25.2066 20.2939 25.2266C20.2806 25.24 20.2406 25.24 20.2206 25.2266V25.2333ZM20.2406 25.4C20.2139 25.3866 20.2073 25.3733 20.2006 25.3466C20.2006 25.3133 20.2006 25.3066 20.2339 25.2866L20.2606 25.2733L20.2873 25.2866C20.3139 25.3 20.3339 25.3133 20.3339 25.34C20.3339 25.36 20.3139 25.38 20.2873 25.3933C20.2673 25.4066 20.2606 25.4066 20.2406 25.3933V25.4Z" fill="#C09300"/>
<path d="M16.8541 24.6666C16.8274 24.6666 16.7941 24.6933 16.7741 24.7066C16.7341 24.7133 16.6807 24.74 16.6407 24.7066C16.6007 24.7 16.5474 24.7066 16.5407 24.76C16.5474 24.8066 16.6074 24.8266 16.6474 24.8C16.6741 24.7666 16.7474 24.74 16.7607 24.8C16.7274 24.8533 16.7341 24.9133 16.7074 24.96C16.7074 24.9933 16.6874 25.02 16.6741 25.0466C16.6407 25.0466 16.6074 25.0466 16.5807 25.0666C16.56 25.0666 16.5396 25.0714 16.5211 25.0807C16.5026 25.09 16.4865 25.1034 16.4741 25.12C16.4474 25.16 16.4207 25.2 16.4141 25.2533C16.4207 25.2933 16.4807 25.3066 16.5207 25.3133L16.6541 25.3533L16.8674 25.4133C16.9741 25.4466 17.0807 25.46 17.1874 25.4866L17.2207 25.4933C17.2674 25.5066 17.2874 25.46 17.2874 25.4266L17.3541 25.1866C17.3674 25.1533 17.3874 25.0866 17.3274 25.1C17.2941 25.12 17.2607 25.1533 17.2207 25.1533C17.1607 25.1533 17.1941 25.22 17.2207 25.24C17.2207 25.28 17.2074 25.3266 17.1874 25.36C17.1474 25.38 17.1074 25.36 17.0674 25.3466C17.0341 25.3466 16.9541 25.3266 16.9874 25.28L17.0207 25.16C17.0407 25.12 17.0407 25.0733 17.0541 25.0266C17.0274 24.98 16.9874 25.0466 16.9541 25.0533C16.9274 25.0666 16.8474 25.0733 16.8874 25.12C16.9274 25.1466 16.9007 25.1933 16.8874 25.2333C16.8874 25.28 16.8341 25.3 16.7941 25.28C16.7541 25.28 16.6941 25.2466 16.7274 25.2066L16.7607 25.0866L16.8074 24.9533C16.8074 24.9066 16.8274 24.8733 16.8474 24.8333C16.8474 24.7866 16.8807 24.7466 16.8807 24.7C16.8807 24.68 16.8674 24.6733 16.8541 24.6733V24.6666ZM16.6074 25.1533C16.6104 25.1515 16.6139 25.1506 16.6174 25.1506C16.6209 25.1506 16.6244 25.1515 16.6274 25.1533C16.6407 25.1666 16.6407 25.18 16.6274 25.1933L16.6074 25.2066C16.5741 25.2066 16.5674 25.2 16.5674 25.1866C16.5674 25.18 16.5674 25.1733 16.5874 25.1666C16.5955 25.1608 16.6045 25.1563 16.6141 25.1533H16.6074ZM16.5407 25.4866C16.5074 25.46 16.5141 25.44 16.5607 25.4C16.5874 25.3866 16.5941 25.3866 16.6207 25.4066C16.6607 25.44 16.6607 25.46 16.6207 25.4933C16.6074 25.5066 16.6007 25.5066 16.5874 25.5066C16.5674 25.5066 16.5607 25.5066 16.5407 25.4933V25.4866ZM16.7407 25.5533C16.7258 25.5487 16.7133 25.5384 16.7059 25.5247C16.6984 25.511 16.6966 25.495 16.7007 25.48C16.7141 25.4533 16.7207 25.4466 16.7607 25.4466C16.8074 25.4466 16.8141 25.4533 16.8207 25.4933C16.8207 25.52 16.8207 25.5266 16.8007 25.54C16.7933 25.5458 16.7847 25.5501 16.7755 25.5524C16.7663 25.5547 16.7567 25.555 16.7474 25.5533H16.7407ZM22.6874 25.5533C22.6741 25.5466 22.6674 25.54 22.6674 25.52C22.6674 25.4933 22.6807 25.4733 22.7207 25.46C22.7607 25.44 22.7874 25.44 22.8007 25.4733C22.8207 25.5133 22.8207 25.5266 22.7941 25.5533C22.7807 25.5733 22.7741 25.5733 22.7407 25.5733C22.7074 25.5733 22.7007 25.5733 22.6874 25.56V25.5533ZM17.0207 25.6333C16.9941 25.6333 16.9807 25.6066 16.9807 25.58C16.9807 25.56 16.9807 25.5533 16.9941 25.54L17.0341 25.5266L17.0741 25.5333C17.1074 25.56 17.1141 25.5866 17.0941 25.6133C17.0741 25.64 17.0541 25.64 17.0141 25.6333H17.0207ZM18.4741 25.7L18.4607 25.68C18.4607 25.64 18.4607 25.6066 18.4741 25.5666C18.4807 25.5333 18.4741 25.5 18.4874 25.4666L18.5141 25.28C18.5141 25.2466 18.5141 25.2133 18.5274 25.1866C18.5341 25.1333 18.5274 25.0866 18.5407 25.04C18.5407 25.02 18.5607 24.9733 18.5807 25C18.6074 25.04 18.6407 25.0666 18.6741 25.1C18.7007 25.12 18.6741 25.1466 18.6541 25.1533C18.6274 25.16 18.6207 25.1933 18.6207 25.22L18.6074 25.3C18.6074 25.3466 18.6074 25.3866 18.5941 25.4333L18.5874 25.5533L18.5741 25.6333C18.5741 25.66 18.5741 25.6933 18.5474 25.7066C18.5274 25.72 18.4941 25.72 18.4807 25.7H18.4741ZM20.4541 25.0466L20.3674 25.1266C20.3274 25.16 20.4007 25.1733 20.4074 25.2C20.4207 25.24 20.4207 25.28 20.4207 25.32C20.4341 25.36 20.4407 25.3933 20.4341 25.4333C20.4341 25.48 20.3807 25.4666 20.3541 25.4933C20.3207 25.5066 20.3074 25.54 20.2874 25.56C20.2715 25.5934 20.2625 25.6297 20.2607 25.6666C20.2607 25.7 20.2407 25.7333 20.2607 25.76L20.2674 25.7733H20.3007L20.4007 25.7666C20.4807 25.7533 20.5674 25.7533 20.6474 25.7466L20.7941 25.7333C20.8341 25.74 20.8541 25.7 20.8541 25.6666C20.8274 25.62 20.8474 25.5733 20.8274 25.5333C20.8141 25.48 20.8207 25.4333 20.8141 25.3866C20.8141 25.3466 20.7674 25.3333 20.7474 25.36C20.7207 25.3866 20.6807 25.3933 20.6674 25.42C20.6474 25.46 20.7074 25.46 20.7207 25.4866L20.7274 25.5866C20.7341 25.6266 20.6941 25.6266 20.6607 25.6333C20.6274 25.6466 20.5807 25.6533 20.5607 25.6133C20.5474 25.58 20.5474 25.5466 20.5474 25.5133C20.5474 25.4466 20.5274 25.3933 20.5274 25.3333C20.5274 25.2666 20.5074 25.1933 20.5074 25.12C20.5074 25.0866 20.5007 25.04 20.4541 25.0466ZM20.4141 25.5933H20.4341V25.6466L20.4141 25.6533C20.4053 25.6561 20.3964 25.6583 20.3874 25.66C20.383 25.6601 20.3785 25.6601 20.3741 25.66C20.3607 25.6466 20.3607 25.6266 20.3807 25.6066L20.4141 25.5933ZM18.4141 24.98C18.3941 24.98 18.3607 25.0266 18.3341 25.02C18.2741 25.0266 18.2807 25.0866 18.3274 25.1066V25.16C18.3341 25.2133 18.3007 25.26 18.3074 25.3133C18.3074 25.3666 18.2874 25.4266 18.2874 25.4866C18.2674 25.5466 18.2674 25.6066 18.2607 25.6666C18.2541 25.72 18.2141 25.7 18.1807 25.6866V25.62C18.1874 25.56 18.1474 25.5466 18.1007 25.54C18.0541 25.54 18.0341 25.5066 18.0474 25.4666C18.0674 25.44 18.1141 25.4466 18.1474 25.4466C18.2141 25.46 18.2074 25.3733 18.1741 25.34C18.1474 25.3 18.0941 25.2733 18.0807 25.2333C18.0807 25.18 18.0474 25.12 18.0007 25.0933C17.9274 25.0866 17.8674 25.1466 17.8474 25.2133C17.8141 25.2133 17.7807 25.2266 17.7541 25.24C17.7074 25.2533 17.6407 25.3333 17.7074 25.3666C17.7407 25.3733 17.8541 25.4 17.8007 25.4466C17.7741 25.5 17.7207 25.5 17.6741 25.4866C17.6274 25.4866 17.5741 25.46 17.5741 25.4066C17.5674 25.3533 17.5674 25.3 17.5474 25.2533C17.5341 25.2 17.4741 25.2133 17.4674 25.2666C17.4207 25.3 17.4274 25.36 17.4607 25.4C17.4807 25.4466 17.4607 25.5066 17.4407 25.5466C17.4274 25.6133 17.3607 25.6133 17.3141 25.6266C17.2941 25.64 17.2074 25.6266 17.2407 25.6733C17.2907 25.6963 17.3466 25.7033 17.4007 25.6933C17.4541 25.6933 17.5007 25.6466 17.5341 25.6C17.5674 25.5666 17.6274 25.5866 17.6807 25.5866C17.7274 25.5866 17.7807 25.62 17.8341 25.5933C17.8474 25.56 17.9141 25.4933 17.9341 25.56C17.9341 25.62 17.9807 25.6466 18.0341 25.64C18.0941 25.64 18.0674 25.68 18.0674 25.72C18.0674 25.78 18.1141 25.8133 18.1674 25.84H18.2207C18.2674 25.82 18.3207 25.8 18.3407 25.7466C18.3607 25.7 18.3607 25.6466 18.3741 25.6C18.3874 25.5266 18.4007 25.4466 18.4007 25.3733C18.4207 25.3066 18.4141 25.2333 18.4274 25.16L18.4474 25.0066C18.4474 24.9733 18.4341 24.9733 18.4141 24.98ZM17.9674 25.2533C17.9741 25.2533 17.9807 25.2666 17.9807 25.2866C17.9807 25.3133 17.9941 25.3333 18.0141 25.34V25.36L17.9607 25.3733C17.9274 25.3733 17.9007 25.36 17.8807 25.34L17.8674 25.3266L17.8874 25.3133L17.9207 25.28C17.9407 25.26 17.9541 25.2533 17.9674 25.2533ZM22.3674 24.7266C22.329 24.7294 22.2911 24.7361 22.2541 24.7466C22.1874 24.7466 22.1541 24.8133 22.2207 24.8533C22.2607 24.9533 22.3207 24.8266 22.3874 24.84C22.4807 24.8533 22.4874 24.96 22.5074 25.04C22.5074 25.1133 22.5341 25.1866 22.5541 25.26C22.6207 25.3333 22.5074 25.38 22.4607 25.3266C22.4207 25.28 22.3274 25.2266 22.2807 25.2866C22.2207 25.3133 22.2141 25.3933 22.1674 25.42C22.0874 25.44 22.0807 25.34 22.0341 25.3C21.9941 25.24 21.9207 25.2333 21.8607 25.22C21.8341 25.16 21.8474 25.06 21.7941 25.02C21.7407 25.04 21.6474 25.1333 21.7274 25.18C21.7941 25.2466 21.6941 25.2733 21.6607 25.3133C21.6074 25.3733 21.5941 25.4466 21.5941 25.5133C21.5074 25.56 21.4941 25.46 21.4807 25.4C21.4807 25.3266 21.4141 25.3466 21.3674 25.3733C21.3007 25.4 21.2741 25.46 21.2341 25.5066V25.64C21.2474 25.7 21.3141 25.6733 21.3541 25.6666C21.4207 25.64 21.4474 25.7133 21.3941 25.7533C21.3541 25.7933 21.2474 25.7733 21.2607 25.8466H21.3674C21.4341 25.8266 21.5141 25.7733 21.5207 25.6933C21.5341 25.6266 21.6341 25.6333 21.6874 25.62C21.7541 25.6 21.8407 25.5933 21.8607 25.6866C21.9074 25.7333 22.0074 25.7866 22.0607 25.72C22.0861 25.7039 22.1065 25.681 22.1194 25.6538C22.1324 25.6267 22.1375 25.5965 22.1341 25.5666C22.1274 25.5133 22.2207 25.5133 22.2474 25.5466C22.2807 25.6 22.3874 25.5866 22.4407 25.5466C22.4941 25.5133 22.5074 25.44 22.5874 25.44L22.9474 25.34C23.0407 25.32 22.9341 25.26 22.9074 25.22C22.8407 25.1866 22.7741 25.3333 22.6941 25.26C22.6274 25.2133 22.6341 25.1266 22.6141 25.0533C22.5941 24.96 22.6007 24.8533 22.5341 24.7866C22.4941 24.74 22.4274 24.7266 22.3674 24.7266ZM21.9141 25.36C21.9207 25.36 21.9341 25.36 21.9474 25.3733C21.9741 25.3866 21.9941 25.4133 21.9941 25.44C21.9941 25.4533 21.9941 25.4533 21.9741 25.46L21.9407 25.4733C21.9274 25.4733 21.8941 25.4533 21.8941 25.44V25.4133C21.8807 25.3866 21.8807 25.3866 21.8941 25.3733L21.9141 25.36ZM22.3474 25.3866C22.3741 25.3866 22.3874 25.3866 22.4007 25.4066C22.4074 25.4333 22.4007 25.4466 22.3741 25.46L22.3407 25.4733L22.3141 25.4533C22.3007 25.4466 22.2941 25.44 22.2941 25.4266C22.2941 25.4066 22.3207 25.3866 22.3474 25.38V25.3866ZM21.7474 25.3866C21.7607 25.3866 21.7674 25.3866 21.7741 25.4C21.7874 25.4133 21.7941 25.42 21.7941 25.44V25.48C21.7941 25.5 21.7941 25.4933 21.7541 25.4933C21.7141 25.4933 21.7074 25.4933 21.7074 25.4533C21.7074 25.4266 21.7074 25.42 21.7274 25.4066C21.7341 25.3933 21.7474 25.3933 21.7541 25.3933L21.7474 25.3866ZM21.3874 25.4866C21.3937 25.4885 21.3994 25.492 21.4041 25.4966C21.4087 25.5013 21.4122 25.507 21.4141 25.5133C21.4141 25.5333 21.4141 25.5466 21.4007 25.5533C21.3807 25.56 21.3474 25.5666 21.3341 25.5533C21.3339 25.5511 21.3339 25.5488 21.3341 25.5466C21.3207 25.54 21.3207 25.5333 21.3341 25.5266V25.52L21.3474 25.5C21.3515 25.4935 21.3577 25.4886 21.365 25.4862C21.3723 25.4837 21.3802 25.4839 21.3874 25.4866ZM22.0007 25.5666L22.0341 25.5733V25.6133H21.9541L21.9474 25.6C21.9474 25.5866 21.9474 25.58 21.9607 25.5733L22.0007 25.5666ZM20.8607 25.8866C20.8541 25.8866 20.8407 25.88 20.8541 25.8733C20.8607 25.8533 20.8874 25.8466 20.9074 25.8333C20.9437 25.8194 20.9758 25.7965 21.0007 25.7666C21.0007 25.74 21.0274 25.7266 21.0274 25.7L21.0207 25.6066C21.0117 25.5786 20.9927 25.5549 20.9674 25.54C20.9474 25.5333 20.9207 25.5266 20.9141 25.5C20.9141 25.48 20.9341 25.46 20.9407 25.44L20.9807 25.36C21.0007 25.34 21.0274 25.36 21.0341 25.3733L21.0674 25.44C21.0874 25.46 21.1007 25.48 21.1074 25.5066C21.1207 25.5333 21.1341 25.5533 21.1341 25.5733L21.1474 25.66C21.1474 25.6933 21.1474 25.7333 21.1341 25.7666L21.0941 25.82C21.0741 25.84 21.0541 25.86 21.0274 25.8666C21.0074 25.8733 20.9941 25.8933 20.9674 25.8933H20.8674L20.8607 25.8866ZM20.4007 25.9133C20.3874 25.9 20.3807 25.8933 20.3807 25.8733C20.3807 25.8533 20.3807 25.8533 20.4007 25.8333C20.4274 25.8066 20.4407 25.8066 20.4941 25.8333C20.5407 25.86 20.5607 25.86 20.5607 25.84C20.5674 25.8266 20.5941 25.8066 20.6274 25.8066C20.6397 25.8071 20.6515 25.8118 20.6607 25.82C20.6741 25.8333 20.6807 25.84 20.6807 25.8666C20.6807 25.9 20.6807 25.9 20.6607 25.92C20.6407 25.9333 20.6407 25.9333 20.6141 25.9333C20.6022 25.9326 20.5908 25.9285 20.5813 25.9214C20.5718 25.9143 20.5647 25.9045 20.5607 25.8933C20.5607 25.88 20.5607 25.8733 20.5474 25.8866L20.5341 25.8933C20.5207 25.8933 20.4941 25.9133 20.4807 25.9266L20.4474 25.9333C20.4207 25.9333 20.4207 25.9333 20.4007 25.9133ZM19.0807 25.32C19.0341 25.32 18.9874 25.36 18.9807 25.4066C18.9941 25.4533 19.0341 25.5066 19.0074 25.5533C19.0274 25.62 18.9541 25.6466 18.9074 25.6133C18.8807 25.5466 18.8674 25.48 18.8207 25.4133C18.7674 25.4 18.7474 25.4866 18.7074 25.52C18.7274 25.5666 18.7807 25.6133 18.7874 25.6733C18.8007 25.74 18.7607 25.8066 18.7141 25.8333C18.6674 25.88 18.6007 25.8666 18.5474 25.8733C18.4807 25.9133 18.5941 25.9266 18.6274 25.9266C18.6941 25.9333 18.7674 25.9266 18.8274 25.8733C18.8741 25.8533 18.8674 25.76 18.9274 25.7533L19.2474 25.7733C19.3007 25.7866 19.3874 25.7666 19.4274 25.8066C19.4274 25.8733 19.4941 25.9266 19.5541 25.9533C19.5874 25.9666 19.6207 25.92 19.6541 25.9133C19.7207 25.8933 19.7007 25.8133 19.7407 25.78H20.0741C20.0874 25.78 20.0941 25.7466 20.1141 25.7333L20.1007 25.6066C20.0807 25.5533 20.1007 25.4866 20.0674 25.44C20.0074 25.4266 19.9607 25.4733 19.9074 25.48C19.8407 25.5066 19.7941 25.5666 19.7874 25.6333C19.7541 25.6933 19.6941 25.62 19.7207 25.5666L19.7141 25.5C19.6807 25.4666 19.6207 25.48 19.5741 25.4733L19.3741 25.46C19.3074 25.46 19.2474 25.4666 19.1941 25.4533C19.1274 25.4533 19.1274 25.3866 19.1274 25.3333C19.1141 25.3231 19.0974 25.3184 19.0807 25.32ZM19.2141 25.5666L19.2807 25.5733H19.3674C19.4341 25.5866 19.5007 25.5866 19.5674 25.5866C19.5807 25.5866 19.5941 25.6 19.6074 25.6133V25.7466C19.6074 25.7666 19.6074 25.7933 19.5941 25.8C19.5906 25.8053 19.586 25.8098 19.5807 25.8133C19.571 25.8116 19.5617 25.8077 19.5536 25.8019C19.5456 25.7961 19.5389 25.7886 19.5341 25.78V25.6866C19.5209 25.6754 19.5046 25.6685 19.4874 25.6666L19.3141 25.66L19.1807 25.6533C19.1607 25.6466 19.1341 25.6533 19.1207 25.6266C19.1074 25.6133 19.1274 25.5866 19.1474 25.58C19.1683 25.5706 19.1911 25.566 19.2141 25.5666ZM19.9674 25.5866C19.9741 25.5866 19.9807 25.5866 19.9807 25.6066L19.9941 25.64C19.9941 25.6466 19.9941 25.6533 19.9807 25.6533C19.9474 25.6666 19.9141 25.6666 19.9007 25.6533C19.9007 25.6466 19.9007 25.62 19.9141 25.6133L19.9674 25.5866Z" fill="#C09300"/>
<path d="M19.6668 21.8133C21.8402 20.1466 21.6535 17.6933 21.6535 17.6933L21.4868 17.7066C21.0268 17.7066 19.9402 17.4399 19.6868 17.1133C19.4202 17.4133 18.3002 17.7133 17.8468 17.7133L17.6802 17.6933C17.6802 17.6933 17.4868 20.1399 19.6668 21.8133Z" fill="white"/>
<path fill-rule="evenodd" clip-rule="evenodd" d="M19.6893 17.056L19.7163 17.0909C19.7744 17.1657 19.8836 17.2406 20.0269 17.3109C20.1693 17.3807 20.3412 17.444 20.5203 17.4973C20.8786 17.6041 21.2606 17.6697 21.4859 17.67L21.6878 17.6538L21.6906 17.6905L21.654 17.6933C21.6906 17.6905 21.6906 17.6905 21.6906 17.6905L21.6906 17.6911L21.6907 17.6926L21.6911 17.6982C21.6914 17.7031 21.6918 17.7102 21.6922 17.7196C21.6931 17.7384 21.694 17.766 21.6945 17.8015C21.6953 17.8727 21.6941 17.976 21.6858 18.105C21.6692 18.3631 21.6243 18.7243 21.5111 19.138C21.2845 19.9655 20.7841 21.0031 19.6897 21.8424L19.6674 21.8595L19.645 21.8424C18.5473 20.9998 18.0469 19.9622 17.8212 19.1355C17.7083 18.7222 17.664 18.3616 17.648 18.104C17.6399 17.9753 17.6389 17.8722 17.64 17.8012C17.6405 17.7657 17.6415 17.7382 17.6424 17.7194C17.6429 17.7101 17.6433 17.7029 17.6436 17.6981L17.644 17.6925L17.6441 17.691L17.6441 17.6906L17.6441 17.6905C17.6441 17.6905 17.6442 17.6904 17.6807 17.6933L17.6441 17.6905L17.6472 17.6524L17.8495 17.6767C18.0713 17.6762 18.4592 17.6025 18.8267 17.4907C19.0106 17.4348 19.188 17.3698 19.3355 17.3005C19.4841 17.2306 19.5985 17.1582 19.66 17.089L19.6893 17.056ZM17.7152 17.7344C17.7145 17.7516 17.7137 17.7743 17.7133 17.8023C17.7123 17.8716 17.7132 17.9727 17.7212 18.0995C17.737 18.353 17.7806 18.7086 17.8919 19.1162C18.1129 19.9255 18.6006 20.9394 19.6674 21.767C20.7308 20.9427 21.2185 19.9289 21.4403 19.1186C21.5521 18.7106 21.5963 18.3544 21.6127 18.1003C21.6208 17.9733 21.622 17.8719 21.6211 17.8024C21.6208 17.7736 21.6201 17.7503 21.6194 17.7329L21.4888 17.7433H21.4874C21.2525 17.7433 20.8621 17.6757 20.4994 17.5676C20.3177 17.5135 20.1417 17.4489 19.9947 17.3768C19.8663 17.3138 19.7568 17.2437 19.6856 17.1676C19.6114 17.2376 19.4986 17.3048 19.3667 17.3668C19.2151 17.4381 19.0342 17.5043 18.848 17.5609C18.4767 17.6738 18.0794 17.75 17.8474 17.75H17.8452L17.7152 17.7344Z" fill="#C09300"/>
<path d="M21.4802 17.8666H21.4268C21.0135 17.8666 20.0535 17.66 19.6802 17.34C19.2935 17.6333 18.3135 17.8733 17.9069 17.8733C17.8889 17.8726 17.8711 17.8704 17.8535 17.8666C17.8572 18.2879 17.9154 18.707 18.0268 19.1133C18.2942 20.0922 18.8692 20.9593 19.6668 21.5866C20.465 20.9569 21.0399 20.0876 21.3068 19.1066C21.4177 18.7025 21.476 18.2857 21.4802 17.8666Z" fill="white"/>
<path fill-rule="evenodd" clip-rule="evenodd" d="M19.6814 17.3015L19.6998 17.3172C19.881 17.4726 20.2087 17.6029 20.5464 17.6944C20.8832 17.7856 21.2238 17.8366 21.4269 17.8366H21.4802V17.8666L21.5102 17.8669C21.506 18.2886 21.4474 18.7079 21.3358 19.1146C21.0672 20.1017 20.4887 20.9765 19.6855 21.6102L19.6669 21.6248L19.6484 21.6102C18.8456 20.9789 18.2671 20.1064 17.998 19.1212C17.8859 18.7124 17.8272 18.2908 17.8236 17.8669L17.8232 17.8295L17.8598 17.8373C17.8755 17.8407 17.8915 17.8427 17.9075 17.8433C18.1069 17.8432 18.4502 17.784 18.793 17.6878C19.1365 17.5913 19.4735 17.4591 19.6621 17.3161L19.6814 17.3015ZM21.4498 17.8966H21.4269C21.2167 17.8966 20.8706 17.8443 20.5307 17.7523C20.2023 17.6633 19.874 17.5357 19.6791 17.3781C19.4784 17.5226 19.143 17.6518 18.8092 17.7455C18.464 17.8425 18.1142 17.9033 17.9069 17.9033H17.9057L17.9057 17.9033C17.8985 17.903 17.8912 17.9025 17.884 17.9018C17.8905 18.3085 17.9482 18.7129 18.0558 19.1054L18.0558 19.1054C18.3195 20.0705 18.8839 20.9262 19.6669 21.5484C20.4503 20.9239 21.0147 20.0659 21.278 19.0988L21.278 19.0987C21.3855 18.7068 21.4432 18.3029 21.4498 17.8966Z" fill="#C09300"/>
<path d="M18.9602 17.6666C18.6021 17.7833 18.2298 17.8505 17.8535 17.8666L17.8602 18.14C17.8829 18.467 17.9388 18.7909 18.0268 19.1066C18.2061 19.7623 18.5244 20.3717 18.9602 20.8933V17.6666ZM20.3335 17.6666V20.9466C20.7903 20.413 21.1228 19.7845 21.3068 19.1066C21.3948 18.7909 21.4507 18.467 21.4735 18.14L21.4802 17.8733H21.4268C21.1735 17.8733 20.7335 17.7933 20.3335 17.66V17.6666Z" fill="#C09300"/>
<path d="M20.4865 16.8666C20.5332 16.8733 20.4265 16.6333 20.4265 16.6333C20.5465 16.7533 20.9865 16.7866 20.9865 16.7866C20.7198 16.6666 20.4532 15.7799 20.4865 15.0666C20.5132 14.3599 20.3865 14.0799 20.2865 13.9733C20.1532 13.8399 19.7198 13.7199 19.4398 13.7066C19.2732 13.6999 19.3065 13.8266 19.3065 13.8266C19.0065 13.7533 18.7065 13.7199 18.5732 13.8133C18.4532 13.8933 18.4265 14.3133 18.5198 14.2399C18.7398 14.0599 18.9332 14.2266 19.0665 14.4199C19.1865 14.5866 19.1798 15.0666 19.0065 15.6333C18.853 16.0617 18.6276 16.4607 18.3398 16.8133C18.6065 16.8133 18.9798 16.5799 18.9798 16.5799L18.8932 16.9466C19.1732 16.8133 19.3932 16.6066 19.3932 16.6066L19.6598 16.8866C19.7465 16.7666 19.9265 16.6066 19.9265 16.6066C19.9265 16.6066 20.1465 16.8399 20.4865 16.8733V16.8666Z" fill="white"/>
<path fill-rule="evenodd" clip-rule="evenodd" d="M19.33 13.6874C19.3585 13.672 19.3954 13.6648 19.4417 13.6667L19.442 13.6667C19.586 13.6735 19.7676 13.7076 19.93 13.7567C20.0114 13.7813 20.0888 13.8098 20.1548 13.8411C20.2201 13.8721 20.277 13.9069 20.3151 13.945L20.3155 13.9455L20.316 13.9459C20.4275 14.0649 20.5535 14.359 20.5268 15.0681L20.5268 15.0685C20.5103 15.4201 20.5679 15.8157 20.6627 16.1378C20.71 16.2989 20.7663 16.4403 20.8264 16.5481C20.8876 16.6577 20.9489 16.7257 21.0032 16.7502L20.9838 16.8265L20.9868 16.7866C20.9838 16.8265 20.9838 16.8265 20.9838 16.8265L20.9837 16.8265L20.9834 16.8265L20.9824 16.8264L20.9785 16.8261C20.9751 16.8258 20.9702 16.8254 20.9639 16.8248C20.9514 16.8236 20.9335 16.8218 20.9116 16.8193C20.8678 16.8142 20.8081 16.8062 20.7445 16.7943C20.681 16.7824 20.6126 16.7666 20.5519 16.7457C20.5372 16.7407 20.5226 16.7352 20.5085 16.7293C20.5097 16.7326 20.5109 16.7359 20.512 16.7392C20.5225 16.7691 20.5326 16.8013 20.5366 16.8267C20.5385 16.8383 20.5401 16.8542 20.5363 16.8686C20.5349 16.8741 20.5322 16.8814 20.5268 16.8883V16.9174L20.4829 16.9131C20.3048 16.8956 20.1587 16.8259 20.0577 16.7611C20.0071 16.7287 19.9675 16.6973 19.9403 16.6739C19.9352 16.6694 19.9304 16.6652 19.9261 16.6613C19.9256 16.6618 19.925 16.6624 19.9245 16.6629C19.9065 16.6795 19.8816 16.703 19.854 16.7301C19.7984 16.7849 19.7338 16.8529 19.6926 16.9101L19.6644 16.9491L19.3912 16.6623C19.388 16.6651 19.3845 16.6682 19.3808 16.6714C19.3553 16.6933 19.3184 16.7238 19.2727 16.7585C19.1814 16.8278 19.054 16.9145 18.9107 16.9827L18.8354 17.0186L18.9199 16.6609C18.8818 16.6817 18.8325 16.7073 18.7769 16.733C18.6495 16.7916 18.4827 16.8533 18.3401 16.8533H18.2559L18.3091 16.788C18.5938 16.4392 18.8169 16.0445 18.9688 15.6207C19.0545 15.3404 19.0987 15.0825 19.1068 14.8751C19.1109 14.7712 19.106 14.6809 19.093 14.6071C19.08 14.5327 19.0594 14.4781 19.0343 14.4433L19.0339 14.4427C18.9684 14.3477 18.8917 14.2649 18.809 14.2262C18.7684 14.2072 18.7272 14.1991 18.6848 14.2046C18.6424 14.2102 18.5958 14.2297 18.5455 14.2709L18.5449 14.2714C18.5268 14.2856 18.4988 14.2969 18.4706 14.2806C18.4485 14.2678 18.4387 14.2438 18.4338 14.2266C18.4229 14.189 18.4218 14.135 18.427 14.0804C18.4322 14.0247 18.4445 13.9636 18.4638 13.9104C18.4823 13.8592 18.51 13.8077 18.5509 13.7803C18.6291 13.7257 18.749 13.7116 18.8794 13.7175C18.9976 13.7228 19.1316 13.745 19.2663 13.7759C19.2678 13.7674 19.2702 13.7583 19.2739 13.7491C19.2833 13.7258 19.3008 13.7031 19.33 13.6874ZM18.9589 16.546L19.0414 16.4945L18.9523 16.8718C19.0582 16.8145 19.1524 16.7494 19.2243 16.6948C19.2685 16.6612 19.3042 16.6317 19.3287 16.6107C19.3409 16.6002 19.3504 16.5918 19.3567 16.5861C19.3599 16.5832 19.3623 16.581 19.3638 16.5796L19.3656 16.5779L19.3661 16.5775M18.9589 16.546L18.9588 16.5462L18.958 16.5466L18.955 16.5484C18.9524 16.5501 18.9484 16.5525 18.9431 16.5556C18.9327 16.5618 18.9174 16.5708 18.8981 16.5815C18.8596 16.603 18.8056 16.6317 18.7434 16.6603C18.6464 16.705 18.5332 16.7479 18.4296 16.7652C18.6924 16.4275 18.9 16.05 19.0445 15.6468L19.0448 15.6459L19.0451 15.645C19.1325 15.359 19.1783 15.0939 19.1868 14.8782C19.191 14.7704 19.186 14.6741 19.1718 14.5933C19.1578 14.5132 19.1343 14.4455 19.0995 14.3969C19.0317 14.2986 18.9451 14.2016 18.8429 14.1537C18.791 14.1294 18.7344 14.1175 18.6744 14.1253C18.6193 14.1325 18.564 14.156 18.509 14.1978C18.5037 14.1738 18.5022 14.1346 18.5066 14.0879C18.5114 14.0377 18.5224 13.9834 18.539 13.9376C18.5562 13.8901 18.5767 13.8592 18.5957 13.8466L18.5964 13.8461C18.6515 13.8075 18.7481 13.7917 18.8758 13.7974C19.0014 13.8031 19.1486 13.8291 19.2973 13.8655L19.3626 13.8814L19.3456 13.8168C19.3456 13.8167 19.3455 13.8167 19.3455 13.8166C19.3455 13.8163 19.3453 13.8156 19.3451 13.8145C19.3448 13.8124 19.3443 13.8091 19.3442 13.8052C19.3438 13.7969 19.3447 13.7875 19.348 13.7792C19.3511 13.7716 19.3565 13.7639 19.368 13.7578C19.3801 13.7513 19.4015 13.7451 19.4384 13.7466C19.5744 13.7531 19.7494 13.7857 19.9069 13.8333C19.9855 13.857 20.059 13.8843 20.1205 13.9134C20.1823 13.9427 20.2294 13.9727 20.2581 14.0011C20.3466 14.096 20.4733 14.3621 20.4468 15.0649C20.43 15.4266 20.489 15.831 20.5859 16.1604C20.6344 16.3252 20.6927 16.4725 20.7566 16.5871C20.7873 16.6422 20.8202 16.6913 20.8551 16.7313" fill="#C09300"/>
<path fill-rule="evenodd" clip-rule="evenodd" d="M19.6037 15.1374L19.6469 15.14C19.6902 15.1426 19.6902 15.1426 19.6902 15.1426L19.69 15.1459L19.6894 15.1554C19.6888 15.1637 19.688 15.1759 19.6869 15.1915C19.6847 15.2228 19.6814 15.2679 19.6768 15.3231C19.6676 15.4333 19.6533 15.5842 19.6332 15.7461C19.6132 15.908 19.5872 16.0816 19.5543 16.2374C19.5217 16.392 19.4815 16.5329 19.4319 16.6269L19.3553 16.5864C19.3989 16.5037 19.4371 16.3729 19.4695 16.2195C19.5017 16.0671 19.5273 15.8961 19.5472 15.7355C19.5671 15.575 19.5813 15.4254 19.5904 15.3159C19.595 15.2611 19.5983 15.2164 19.6005 15.1855C19.6015 15.17 19.6023 15.1579 19.6029 15.1498L19.6035 15.1405L19.6037 15.1374ZM19.364 15.1675L19.4069 15.1733C19.4499 15.1791 19.4499 15.1791 19.4499 15.1791L19.4497 15.1799L19.4494 15.1824L19.4481 15.1917C19.4469 15.1999 19.4452 15.2119 19.4429 15.2273C19.4383 15.258 19.4315 15.3022 19.4223 15.3562C19.4041 15.464 19.3769 15.6111 19.3408 15.768C19.3048 15.9248 19.2597 16.0921 19.2057 16.24C19.1522 16.3868 19.0882 16.5193 19.0122 16.6025L18.9482 16.5441C19.0123 16.474 19.0716 16.3549 19.1243 16.2103C19.1766 16.067 19.2207 15.9035 19.2563 15.7486C19.2919 15.5938 19.3189 15.4484 19.3369 15.3417C19.3459 15.2884 19.3527 15.2447 19.3572 15.2145C19.3595 15.1994 19.3612 15.1876 19.3623 15.1796L19.3636 15.1705L19.3639 15.1683L19.364 15.1675ZM19.8102 15.1867C19.8102 15.1866 19.8102 15.1866 19.8536 15.1866C19.8969 15.1866 19.8969 15.1866 19.8969 15.1867L19.8969 15.2002C19.8969 15.2091 19.897 15.2223 19.897 15.239C19.8972 15.2725 19.8974 15.3207 19.8979 15.3791C19.899 15.4959 19.9011 15.6538 19.9052 15.818C19.9094 15.9824 19.9156 16.1528 19.9249 16.2947C19.9296 16.3657 19.935 16.4292 19.9413 16.4811C19.9476 16.5338 19.9545 16.5718 19.9615 16.5933L19.879 16.6199C19.8693 16.5898 19.8616 16.5446 19.8552 16.4915C19.8487 16.4374 19.8432 16.3722 19.8385 16.3004C19.829 16.1568 19.8228 15.9851 19.8186 15.8202C19.8144 15.6553 19.8123 15.497 19.8113 15.3798C19.8108 15.3213 19.8105 15.273 19.8104 15.2393C19.8103 15.2225 19.8103 15.2094 19.8103 15.2004L19.8102 15.1867ZM20.077 15.2489C20.077 15.2489 20.077 15.2489 20.1202 15.2466L20.1635 15.2444L20.1636 15.245L20.1637 15.2472L20.1642 15.2556C20.1646 15.263 20.1653 15.2741 20.1663 15.2882C20.1682 15.3166 20.1712 15.3576 20.1757 15.4079C20.1846 15.5087 20.1991 15.6467 20.2214 15.7961C20.2438 15.9455 20.2739 16.1055 20.3139 16.2504C20.3541 16.3961 20.4034 16.523 20.4626 16.6087L20.3913 16.6579C20.3238 16.5602 20.2714 16.4221 20.2303 16.2735C20.1891 16.124 20.1584 15.9603 20.1357 15.8089C20.1131 15.6574 20.0984 15.5175 20.0894 15.4156C20.0849 15.3646 20.0818 15.323 20.0798 15.2941C20.0788 15.2797 20.0781 15.2684 20.0776 15.2608L20.0771 15.252L20.077 15.2497L20.077 15.2489Z" fill="#C09300"/>
<path d="M19.1338 14.6399C19.1279 14.5626 19.1051 14.4876 19.0672 14.4199C18.9338 14.2199 18.7405 14.0599 18.5205 14.2399C18.5205 14.2399 18.5938 14.0066 18.7605 13.9999C18.8805 13.9933 19.1672 14.0933 19.4205 14.5199C19.4205 14.5199 19.2338 14.4799 19.1872 14.5199C19.1072 14.5866 19.1405 14.6399 19.1405 14.6399H19.1338Z" fill="#C09300"/>
<path fill-rule="evenodd" clip-rule="evenodd" d="M19.4004 14.5059C19.1512 14.0974 18.8743 14.0037 18.7611 14.01L18.761 14.01C18.6825 14.0131 18.625 14.0697 18.5864 14.128C18.5672 14.157 18.5531 14.1858 18.5438 14.2074C18.5433 14.2086 18.5428 14.2098 18.5423 14.211C18.5887 14.1786 18.6343 14.1604 18.6786 14.1542C18.732 14.1467 18.7828 14.1565 18.8306 14.1784C18.9256 14.2221 19.0085 14.3139 19.0755 14.4144L19.076 14.4151C19.103 14.4633 19.1225 14.5152 19.1338 14.569C19.1422 14.5515 19.1568 14.5323 19.1808 14.5124C19.1951 14.5001 19.2183 14.495 19.2426 14.4931C19.2675 14.4912 19.2958 14.4925 19.3223 14.495C19.3489 14.4976 19.374 14.5014 19.3923 14.5045C19.3952 14.505 19.3979 14.5055 19.4004 14.5059ZM19.149 14.6347L19.149 14.6345C19.1488 14.6343 19.1486 14.6339 19.1483 14.6333C19.1477 14.6321 19.1469 14.6302 19.1461 14.6277C19.1446 14.6226 19.1431 14.6151 19.1439 14.6058C19.1453 14.5873 19.1553 14.5596 19.1936 14.5277L19.1937 14.5276C19.2028 14.5198 19.2203 14.5149 19.2441 14.5131C19.2674 14.5113 19.2944 14.5125 19.3204 14.5149C19.3464 14.5174 19.3709 14.5211 19.389 14.5242C19.398 14.5258 19.4054 14.5272 19.4105 14.5282C19.4131 14.5287 19.4151 14.5291 19.4164 14.5293L19.418 14.5297L19.4183 14.5297L19.4184 14.5298L19.4408 14.5346L19.4292 14.5149C19.1747 14.0864 18.8851 13.9831 18.7601 13.99C18.6719 13.9936 18.6094 14.057 18.5697 14.117C18.5497 14.1472 18.5351 14.1771 18.5254 14.1995C18.5206 14.2107 18.517 14.22 18.5146 14.2265C18.5134 14.2298 18.5125 14.2324 18.5119 14.2342L18.5113 14.2362L18.5111 14.2368L18.511 14.2369C18.511 14.2369 18.511 14.237 18.5206 14.24L18.511 14.2369L18.501 14.2689L18.5269 14.2477C18.5808 14.2037 18.6324 14.1808 18.6814 14.174C18.7304 14.1671 18.7774 14.176 18.8222 14.1966C18.9121 14.2379 18.9924 14.3259 19.0587 14.4252C19.0958 14.4915 19.1181 14.565 19.1239 14.6408L19.1246 14.65H19.1586L19.149 14.6347C19.1491 14.6347 19.1491 14.6347 19.149 14.6347Z" fill="#C09300"/>
<path d="M18.4932 13.9533C18.5132 13.8866 18.5398 13.8333 18.5798 13.8133C18.7132 13.7199 19.0065 13.7466 19.3065 13.8266C19.3065 13.8266 19.2798 13.6999 19.4398 13.7066C19.7198 13.7199 20.1465 13.8399 20.2798 13.9733C20.3225 14.0202 20.3564 14.0744 20.3798 14.1333C20.3132 14.0399 20.1265 14.0466 20.0798 14.0533C20.0132 14.0599 19.9665 14.0533 19.8732 14.0799C19.8265 14.0933 19.7598 14.1066 19.7198 14.1333C19.6932 14.1599 19.6665 14.2399 19.6265 14.2399C19.5598 14.2399 19.5598 14.2266 19.5398 14.2066C19.5198 14.1733 19.5065 14.1333 19.4798 14.1399C19.4132 14.1466 19.2932 14.0933 19.1465 13.9733C18.9932 13.8533 18.9332 13.8266 18.7465 13.8399C18.5465 13.8533 18.4932 13.9666 18.4932 13.9666V13.9533Z" fill="#C09300"/>
<path fill-rule="evenodd" clip-rule="evenodd" d="M19.3165 13.8246L19.3165 13.8244L19.3163 13.8236C19.3162 13.8228 19.316 13.8216 19.3158 13.82C19.3155 13.8169 19.3151 13.8124 19.3151 13.807C19.3151 13.7961 19.3166 13.7819 19.3226 13.7681C19.3285 13.7545 19.3387 13.7411 19.3565 13.7314C19.3745 13.7215 19.4009 13.715 19.4396 13.7167C19.5786 13.7233 19.7544 13.7564 19.9121 13.8046C19.991 13.8286 20.0651 13.8564 20.1276 13.8863C20.1902 13.9163 20.2407 13.9481 20.2728 13.9802C20.303 14.0134 20.3287 14.0504 20.3493 14.0901C20.3134 14.0654 20.2673 14.0525 20.2241 14.0459C20.1623 14.0366 20.1032 14.04 20.0789 14.0434C20.0789 14.0434 20.079 14.0434 20.0791 14.0434L20.0801 14.0533L20.0787 14.0434C20.0787 14.0434 20.0788 14.0434 20.0789 14.0434M19.548 14.2005C19.5442 14.194 19.5406 14.1873 19.537 14.1805C19.5362 14.1792 19.5355 14.1779 19.5348 14.1765C19.5303 14.1682 19.5257 14.1598 19.5208 14.1527C19.5159 14.1456 19.5102 14.1388 19.5032 14.1344C19.496 14.1299 19.4876 14.128 19.4784 14.1301C19.4479 14.133 19.4035 14.1222 19.3478 14.0952C19.292 14.0681 19.226 14.0252 19.1531 13.9656L19.1531 13.9656L19.1529 13.9655C19.0762 13.9055 19.0217 13.8678 18.9625 13.8472C18.9031 13.8266 18.8398 13.8233 18.746 13.83C18.6441 13.8368 18.5789 13.8692 18.5389 13.9005C18.5292 13.9081 18.5209 13.9156 18.5141 13.9227C18.5212 13.9033 18.5291 13.8859 18.5379 13.8709C18.5515 13.8476 18.5669 13.8311 18.5845 13.8223L18.5852 13.8219L18.5858 13.8215C18.6497 13.7768 18.7535 13.76 18.8805 13.765C19.007 13.77 19.1546 13.7964 19.3042 13.8363L19.3199 13.8405L19.3165 13.8246L19.3165 13.8246L19.3165 13.8246M18.5034 13.9548C18.5068 13.9436 18.5103 13.9329 18.5141 13.9227C18.5069 13.93 18.5012 13.9369 18.4969 13.9427C18.4941 13.9464 18.4919 13.9496 18.4901 13.9524L18.4838 13.9505C18.4939 13.9167 18.5059 13.8859 18.5206 13.8608C18.5352 13.8359 18.5529 13.816 18.5749 13.8047C18.5747 13.8049 18.5745 13.805 18.5743 13.8051L18.5801 13.8133L18.5756 13.8044C18.5754 13.8045 18.5751 13.8046 18.5749 13.8047C18.6444 13.7564 18.7537 13.74 18.8813 13.745C19.0058 13.7499 19.1496 13.7752 19.2952 13.8133C19.2954 13.8169 19.2957 13.82 19.296 13.8224C19.2962 13.8243 19.2964 13.8258 19.2966 13.8269L19.2968 13.8282L19.2969 13.8285L19.2969 13.8287L19.2969 13.8287L19.2969 13.8287C19.2969 13.8287 19.2969 13.8287 19.3067 13.8267L19.3093 13.817C19.3046 13.8157 19.2999 13.8145 19.2952 13.8133C19.2951 13.8113 19.2951 13.8092 19.2951 13.807C19.2951 13.7944 19.2968 13.7773 19.3042 13.7602C19.3117 13.743 19.3248 13.7259 19.3469 13.7138C19.369 13.7018 19.3992 13.695 19.4405 13.6967L19.4405 13.6967V13.6967C19.5815 13.7034 19.759 13.7369 19.918 13.7854C19.9975 13.8097 20.0726 13.8378 20.1363 13.8683C20.1998 13.8987 20.2526 13.9318 20.2871 13.9663L20.2875 13.9666L20.2875 13.9666C20.331 14.0144 20.3655 14.0696 20.3894 14.1296L20.3719 14.1391C20.3411 14.096 20.2813 14.0748 20.2211 14.0657C20.1613 14.0567 20.104 14.06 20.0815 14.0632L20.0811 14.0633L20.0811 14.0633C20.0613 14.0653 20.0436 14.0661 20.0261 14.0669C19.9831 14.0689 19.9417 14.0709 19.8761 14.0896C19.8661 14.0925 19.8555 14.0953 19.8446 14.0981C19.8293 14.1021 19.8134 14.1063 19.7971 14.1112C19.7702 14.1194 19.7451 14.1289 19.7265 14.1411C19.7209 14.1468 19.715 14.1556 19.7084 14.1665C19.706 14.1704 19.7035 14.1746 19.7009 14.179C19.6964 14.1866 19.6916 14.1946 19.6868 14.2021C19.6792 14.2139 19.6707 14.2256 19.6612 14.2344C19.6518 14.2432 19.6403 14.25 19.6267 14.25C19.5931 14.25 19.5743 14.2467 19.5612 14.2396C19.5545 14.236 19.5497 14.2317 19.5454 14.2272C19.5434 14.2251 19.5418 14.2233 19.5403 14.2215C19.5381 14.2191 19.536 14.2167 19.533 14.2137L19.5321 14.2129L19.5315 14.2118C19.5271 14.2046 19.5231 14.197 19.5193 14.1899C19.5186 14.1886 19.5179 14.1873 19.5172 14.186C19.5127 14.1776 19.5086 14.1702 19.5043 14.164C19.5 14.1578 19.4962 14.1537 19.4926 14.1514C19.4893 14.1494 19.4863 14.1488 19.4825 14.1497L19.4818 14.1499L19.4811 14.1499C19.445 14.1536 19.3963 14.1409 19.339 14.1132C19.2815 14.0852 19.2142 14.0415 19.1405 13.9811C19.0639 13.9212 19.0117 13.8855 18.9559 13.8661C18.9004 13.8468 18.8403 13.8433 18.7474 13.85L18.7474 13.85C18.6493 13.8565 18.5879 13.8875 18.5512 13.9162C18.5328 13.9306 18.5205 13.9445 18.5129 13.9547C18.509 13.9599 18.5064 13.964 18.5047 13.9669C18.5038 13.9683 18.5033 13.9694 18.5029 13.9701L18.5025 13.9708L18.5024 13.9709C18.5024 13.9709 18.5024 13.9709 18.5024 13.9709L18.4834 13.9667V13.9533H18.4895C18.4897 13.953 18.4899 13.9527 18.4901 13.9524L18.4934 13.9533M18.746 13.83C18.746 13.83 18.746 13.83 18.746 13.83L18.7467 13.84L18.7461 13.83C18.7461 13.83 18.7461 13.83 18.746 13.83ZM19.4784 14.1301C19.4782 14.1302 19.4779 14.1302 19.4776 14.1303L19.4801 14.14L19.4791 14.13C19.4789 14.1301 19.4786 14.1301 19.4784 14.1301ZM19.548 14.2005C19.5482 14.2008 19.5484 14.2012 19.5486 14.2015L19.5401 14.2067L19.5471 14.1996C19.5474 14.1999 19.5477 14.2002 19.548 14.2005Z" fill="#C09300"/>
<path d="M19.5868 14.1266C19.631 14.1266 19.6668 14.0908 19.6668 14.0466C19.6668 14.0024 19.631 13.9666 19.5868 13.9666C19.5427 13.9666 19.5068 14.0024 19.5068 14.0466C19.5068 14.0908 19.5427 14.1266 19.5868 14.1266Z" fill="white"/>
</g>
<defs>
<clipPath id="clip0_8424_43326">
<rect width="40" height="40" rx="20" fill="white"/>
</clipPath>
</defs>
</svg>
