<svg width="40" height="40" viewBox="0 0 40 40" fill="none" xmlns="http://www.w3.org/2000/svg">
<g clip-path="url(#clip0_8424_43389)">
<path d="M-7 0H46.3333V40H-7V0Z" fill="#E32118"/>
<path d="M-7 0H46.3333V26.6667H-7V0Z" fill="white"/>
<path d="M-7 0H46.3333V13.3333H-7V0Z" fill="#3E9A00"/>
<path d="M-7 0V40L8 20L-7 0Z" fill="#0073CE"/>
<path d="M16.4668 15.9834H22.8501V22.6667C22.8501 24.9167 19.9168 23.1834 19.6668 24.3834C19.2335 23.1501 16.4835 24.9334 16.4835 22.5334L16.4668 15.9834Z" fill="white"/>
<path fill-rule="evenodd" clip-rule="evenodd" d="M16.5082 16.0251L16.5248 22.5334C16.5248 23.1255 16.694 23.4486 16.9439 23.6277C17.197 23.8091 17.5425 23.8501 17.9128 23.8542C18.0332 23.8556 18.1544 23.8531 18.2751 23.8506C18.3397 23.8493 18.4042 23.8479 18.4683 23.8472C18.651 23.8451 18.8293 23.8479 18.9919 23.8703C19.1545 23.8926 19.3039 23.9347 19.4276 24.0131C19.523 24.0735 19.6019 24.1549 19.6593 24.2629C19.7009 24.16 19.7666 24.0816 19.8514 24.0231C19.9632 23.946 20.1057 23.9051 20.2638 23.884C20.4222 23.8629 20.5999 23.8611 20.7843 23.8645C20.8557 23.8658 20.9278 23.8679 21.0003 23.87C21.1167 23.8734 21.2343 23.8768 21.352 23.8772C21.7341 23.8782 22.0977 23.8459 22.3656 23.68C22.6289 23.517 22.8081 23.2192 22.8081 22.6667V16.0251H16.5082ZM16.4665 15.9834V15.9417H22.8915V22.6667C22.8915 23.2393 22.704 23.5685 22.4095 23.7509C22.1196 23.9303 21.7342 23.9615 21.3518 23.9605C21.2334 23.9602 21.1134 23.9567 20.9959 23.9533C20.9236 23.9512 20.8522 23.9491 20.7828 23.9478C20.5991 23.9444 20.4266 23.9464 20.2748 23.9666C20.1228 23.9869 19.9951 24.0252 19.8987 24.0917C19.8037 24.1572 19.7364 24.252 19.7073 24.3919L19.6768 24.5384L19.6272 24.3972C19.5761 24.2519 19.4917 24.1524 19.383 24.0834C19.2733 24.0139 19.1368 23.9743 18.9806 23.9528C18.8244 23.9314 18.6512 23.9285 18.4693 23.9305C18.4068 23.9313 18.3431 23.9326 18.2788 23.9339C18.1572 23.9364 18.0334 23.9389 17.9118 23.9376C17.5404 23.9334 17.1713 23.8932 16.8953 23.6954C16.616 23.4953 16.4415 23.1414 16.4415 22.5334L16.4248 15.9835L16.4665 15.9834Z" fill="black"/>
<path d="M20.1168 23.3167C20.1168 23.3167 20.0335 23.4001 19.8835 23.3334C19.7335 23.2667 19.7168 19.0501 19.7168 19.0501C20.0501 18.6834 20.3168 18.5667 20.3168 18.5667L20.5168 18.7334C19.7668 19.1167 19.8335 19.6667 19.9001 20.6167C19.9168 20.9667 19.9168 21.4167 20.0001 21.8501C20.1168 22.4001 20.3501 22.8667 20.3668 23.2167C20.3835 23.4334 20.1168 23.3167 20.1168 23.3167Z" fill="#73452B"/>
<path fill-rule="evenodd" clip-rule="evenodd" d="M20.3177 18.557L20.5314 18.7351L20.5201 18.7408C20.3334 18.8363 20.198 18.9419 20.1007 19.0611C20.0034 19.1802 19.944 19.3134 19.9099 19.4644C19.8461 19.7465 19.8706 20.0901 19.9012 20.5207C19.9035 20.552 19.9057 20.5839 19.908 20.6162L19.908 20.6163C19.9113 20.6847 19.9139 20.7567 19.9166 20.8317C19.9279 21.1413 19.9409 21.5002 20.0079 21.8484C20.0599 22.0938 20.1352 22.3225 20.2042 22.5321C20.2124 22.557 20.2205 22.5815 20.2284 22.6058C20.3034 22.8347 20.3663 23.0399 20.3747 23.2162C20.3789 23.2719 20.3651 23.3083 20.3398 23.3301C20.3148 23.3516 20.2805 23.3574 20.2473 23.3563C20.214 23.3552 20.1804 23.3472 20.1553 23.3395C20.1427 23.3357 20.1322 23.3319 20.1248 23.3291C20.1221 23.3281 20.1198 23.3272 20.118 23.3264C20.1179 23.3265 20.1179 23.3265 20.1178 23.3266C20.115 23.3289 20.111 23.3321 20.1056 23.3356C20.0949 23.3428 20.0791 23.3515 20.0584 23.358C20.0169 23.3711 19.9565 23.3752 19.8796 23.341C19.8755 23.3392 19.8722 23.3359 19.8694 23.3323C19.8666 23.3286 19.8641 23.3239 19.8617 23.3186C19.857 23.308 19.8526 23.2938 19.8483 23.2763C19.8399 23.2413 19.8319 23.1922 19.8245 23.1312C19.8097 23.0093 19.7967 22.8389 19.7854 22.6365C19.7627 22.2316 19.7466 21.6982 19.7351 21.1669C19.7236 20.6356 19.7169 20.1064 19.713 19.71C19.711 19.5119 19.7098 19.3469 19.709 19.2314C19.7087 19.1737 19.7084 19.1284 19.7082 19.0975L19.708 19.0502C19.708 19.0501 19.708 19.0501 19.7164 19.0501L19.708 19.0502L19.708 19.0469L19.7102 19.0445C19.8773 18.8606 20.0278 18.7394 20.1366 18.6641C20.191 18.6264 20.235 18.6002 20.2655 18.5834C20.2807 18.575 20.2925 18.569 20.3006 18.565C20.3046 18.563 20.3077 18.5615 20.3098 18.5606L20.3122 18.5595L20.3128 18.5592L20.3129 18.5591C20.3129 18.5591 20.313 18.5591 20.3164 18.5667L20.3129 18.5591L20.3177 18.557ZM20.3151 18.5765C20.3132 18.5774 20.3108 18.5785 20.3079 18.5799C20.3001 18.5838 20.2885 18.5897 20.2735 18.598C20.2435 18.6145 20.2 18.6404 20.1461 18.6778C20.0387 18.7521 19.89 18.8718 19.7247 19.0533L19.7249 19.0974C19.7251 19.1283 19.7253 19.1736 19.7257 19.2313C19.7264 19.3468 19.7277 19.5117 19.7296 19.7099C19.7335 20.1062 19.7403 20.6354 19.7518 21.1666C19.7632 21.6978 19.7794 22.231 19.802 22.6355C19.8133 22.8378 19.8263 23.0078 19.8411 23.1292C19.8485 23.1899 19.8563 23.2383 19.8645 23.2724C19.8687 23.2894 19.8728 23.3026 19.877 23.3119C19.879 23.3165 19.881 23.3199 19.8828 23.3223C19.8846 23.3247 19.8859 23.3255 19.8864 23.3258C19.9595 23.3583 20.0158 23.354 20.0534 23.3421C20.0724 23.3361 20.0868 23.3282 20.0964 23.3218C20.1012 23.3186 20.1048 23.3158 20.1071 23.3138C20.1083 23.3128 20.1092 23.312 20.1097 23.3115L20.1103 23.311L20.1105 23.3108C20.1105 23.3108 20.1105 23.3108 20.1164 23.3167L20.1197 23.3091L20.1198 23.3092L20.1204 23.3094L20.1225 23.3103C20.1244 23.3111 20.1272 23.3122 20.1307 23.3135C20.1379 23.3163 20.148 23.3199 20.1602 23.3236C20.1846 23.3311 20.2166 23.3386 20.2479 23.3397C20.2793 23.3407 20.3085 23.335 20.3289 23.3175C20.3489 23.3002 20.3621 23.2699 20.358 23.2174L20.358 23.2171C20.3498 23.0435 20.2877 22.8404 20.2126 22.611C20.2047 22.5867 20.1966 22.5622 20.1884 22.5373C20.1194 22.3278 20.0438 22.0981 19.9915 21.8518L19.9915 21.8516C19.9243 21.502 19.9112 21.1414 19.8999 20.8317C19.8972 20.757 19.8946 20.6852 19.8914 20.6172C19.8891 20.5846 19.8868 20.5525 19.8845 20.5208C19.854 20.0915 19.8293 19.7454 19.8936 19.4607C19.9283 19.3076 19.9887 19.172 20.0878 19.0505C20.1849 18.9315 20.3188 18.8265 20.5014 18.7318L20.3151 18.5765Z" fill="black"/>
<path d="M19.5999 18.4667H19.8999C19.6499 20.8834 19.8665 22.3167 19.8665 23.0167C19.8665 23.2501 19.9999 23.3334 19.9832 23.3334C19.6832 23.6667 19.5332 23.3167 19.5332 23.3167L19.5999 18.4667Z" fill="#73452B"/>
<path fill-rule="evenodd" clip-rule="evenodd" d="M19.5912 18.4584H19.9087L19.9077 18.4676C19.7194 20.2877 19.7959 21.5491 19.8451 22.3605C19.8612 22.6262 19.8744 22.8437 19.8744 23.0167C19.8744 23.1317 19.9072 23.2093 19.9378 23.2582C19.953 23.2826 19.9678 23.2999 19.9778 23.3112C19.9789 23.3124 19.9799 23.3136 19.981 23.3147C19.9844 23.3186 19.9874 23.322 19.9892 23.3244C19.9898 23.3252 19.9905 23.3261 19.991 23.3271C19.9915 23.3279 19.9923 23.3296 19.9925 23.3317C19.9927 23.3343 19.9919 23.3378 19.9887 23.34C19.9882 23.3403 19.9878 23.3405 19.9874 23.3408C19.9124 23.4236 19.8459 23.465 19.7879 23.4795C19.7292 23.4942 19.68 23.4811 19.6409 23.4572C19.602 23.4334 19.5731 23.399 19.554 23.3709C19.5444 23.3568 19.5372 23.3441 19.5324 23.335C19.53 23.3304 19.5282 23.3267 19.527 23.3241C19.5264 23.3229 19.5259 23.3218 19.5256 23.3211L19.5252 23.3203L19.5252 23.3201L19.5251 23.32C19.5251 23.32 19.5251 23.32 19.5328 23.3167L19.5251 23.32L19.5244 23.3184L19.5912 18.4584ZM19.5411 23.315C19.5414 23.3156 19.5417 23.3162 19.5421 23.317C19.5432 23.3194 19.5449 23.3229 19.5472 23.3272C19.5517 23.3359 19.5586 23.348 19.5678 23.3615C19.5862 23.3886 19.6135 23.4209 19.6496 23.443C19.6855 23.4649 19.7301 23.4768 19.7839 23.4633C19.8372 23.45 19.9004 23.4116 19.9734 23.3313C19.9722 23.33 19.9707 23.3283 19.969 23.3264C19.9679 23.3251 19.9667 23.3238 19.9653 23.3223C19.955 23.3106 19.9396 23.2925 19.9236 23.267C19.8916 23.2158 19.8578 23.1351 19.8578 23.0167C19.8578 22.8446 19.8446 22.6279 19.8285 22.3627C19.7794 21.5529 19.703 20.2919 19.8902 18.4751H19.6077L19.5411 23.315Z" fill="black"/>
<path d="M19.1336 23.3167C18.8503 23.4501 18.8169 23.1834 18.8336 23.1501C19.4503 21.9001 19.7169 19.1501 19.1503 18.8501L19.1836 18.5834C19.4003 18.6501 19.6003 18.9334 19.6003 18.9334C19.6836 22.0167 19.6003 23.2834 19.5503 23.3334C19.2503 23.6501 19.1336 23.2834 19.1169 23.2501" fill="#A36629"/>
<path fill-rule="evenodd" clip-rule="evenodd" d="M19.1761 18.5725L19.1856 18.5754C19.296 18.6094 19.4014 18.6982 19.4787 18.7776C19.5175 18.8174 19.5494 18.8551 19.5717 18.8829C19.5828 18.8968 19.5915 18.9082 19.5975 18.9161C19.6004 18.9201 19.6027 18.9232 19.6043 18.9253L19.606 18.9277L19.6065 18.9284L19.6066 18.9285L19.6081 18.9306L19.6081 18.9332C19.6498 20.4749 19.6498 21.5626 19.6331 22.2711C19.6248 22.6253 19.6123 22.8849 19.5987 23.059C19.592 23.1461 19.5849 23.212 19.578 23.2577C19.5745 23.2805 19.571 23.2985 19.5676 23.3117C19.5659 23.3183 19.5641 23.3239 19.5623 23.3283C19.5606 23.3325 19.5585 23.3364 19.5558 23.3392C19.4802 23.419 19.4152 23.4568 19.3594 23.4669C19.3031 23.477 19.2575 23.4588 19.2216 23.4294C19.186 23.4003 19.1599 23.3601 19.1417 23.3256C19.1325 23.3082 19.1253 23.2922 19.1199 23.2795C19.1176 23.274 19.1157 23.2694 19.1141 23.2655C19.1118 23.26 19.1102 23.2561 19.109 23.2538L19.1239 23.2463C19.1253 23.2491 19.1273 23.254 19.1299 23.2602C19.1315 23.264 19.1333 23.2683 19.1352 23.2729C19.1406 23.2854 19.1476 23.301 19.1564 23.3178C19.1742 23.3515 19.199 23.3894 19.2322 23.4165C19.2651 23.4434 19.3059 23.4596 19.3564 23.4505C19.4073 23.4413 19.4694 23.4062 19.5438 23.3277L19.5439 23.3275C19.5443 23.3271 19.5454 23.3257 19.5469 23.322C19.5483 23.3185 19.5499 23.3137 19.5515 23.3075C19.5547 23.2951 19.5581 23.2778 19.5615 23.2552C19.5684 23.21 19.5754 23.1446 19.5821 23.0577C19.5957 22.884 19.6082 22.6248 19.6165 22.2707C19.6331 21.5629 19.6332 20.4764 19.5916 18.9362L19.5908 18.9351C19.5893 18.933 19.587 18.93 19.5841 18.9261C19.5783 18.9183 19.5697 18.907 19.5587 18.8933C19.5367 18.8658 19.5051 18.8286 19.4668 18.7892C19.3922 18.7126 19.293 18.6292 19.1902 18.5944L19.1588 18.8455C19.2297 18.8851 19.2868 18.9617 19.3319 19.0664C19.378 19.1737 19.4118 19.3114 19.4344 19.4716C19.4795 19.7919 19.48 20.2035 19.4435 20.6445C19.3706 21.5263 19.1496 22.5274 18.8406 23.1537C18.8394 23.1561 18.8381 23.1623 18.838 23.1724C18.8378 23.182 18.8388 23.1941 18.8413 23.2074C18.8464 23.2341 18.8574 23.265 18.8773 23.2908C18.897 23.3164 18.9254 23.337 18.9657 23.3434C19.0062 23.3498 19.0597 23.3421 19.1296 23.3092L19.1367 23.3243C19.0649 23.358 19.008 23.367 18.9631 23.3599C18.918 23.3527 18.886 23.3295 18.864 23.301C18.8422 23.2726 18.8303 23.239 18.825 23.2105C18.8223 23.1962 18.8212 23.183 18.8213 23.1722C18.8214 23.1618 18.8227 23.1523 18.8257 23.1464C19.1334 22.5227 19.3541 21.5238 19.4269 20.6431C19.4634 20.2028 19.4628 19.7926 19.4179 19.4739C19.3954 19.3145 19.3619 19.1784 19.3165 19.073C19.2711 18.9674 19.2143 18.8937 19.1459 18.8574L19.1408 18.8547L19.1761 18.5725Z" fill="black"/>
<path fill-rule="evenodd" clip-rule="evenodd" d="M19.1704 22.9973C19.1326 23.1102 19.1126 23.2009 19.1246 23.2652L19.1083 23.2683C19.0953 23.1992 19.1169 23.1046 19.1546 22.992C19.1792 22.9185 19.2111 22.8364 19.2455 22.7477C19.2639 22.7 19.2832 22.6504 19.3024 22.5992C19.4128 22.3056 19.5247 21.957 19.5081 21.6005L19.5248 21.5997C19.5415 21.9599 19.4285 22.3112 19.318 22.6051C19.2986 22.6567 19.2793 22.7065 19.2608 22.7543C19.2265 22.8427 19.1949 22.9242 19.1704 22.9973ZM20.1082 23.316C20.1413 22.9676 20.075 22.6022 19.9253 22.1862L19.941 22.1806C20.0912 22.598 20.1582 22.9659 20.1247 23.3175L20.1082 23.316Z" fill="black"/>
<path d="M20.5834 17.3334C20.6834 17.2167 20.6834 17.2167 20.8668 17.2167C20.9001 16.9667 21.3168 16.9667 21.3501 17.2834C21.6834 17.2167 21.7501 17.4167 21.6168 17.6167C21.9334 17.5334 22.2168 17.6167 22.1334 17.9834C22.7001 18.1334 22.4834 18.5334 22.2334 18.6167C22.2001 18.8667 21.9668 18.9501 21.6501 18.8501C21.2501 19.1334 21.0168 19.0334 20.8334 18.7501C20.3834 18.8167 20.3501 18.7167 20.1501 18.4667C19.8001 18.6167 19.7334 18.6167 19.4334 18.4334C19.4168 18.6667 19.3334 18.6001 19.1834 18.5834C19.2001 18.8834 19.0834 19.0167 18.8168 18.9167C19.0168 19.3334 18.5001 19.5167 18.2501 19.1667C18.0168 19.1834 18.0001 19.1167 17.8834 19.0334C17.7834 19.3667 17.4168 19.3167 17.3501 19.1334C16.8834 19.0667 16.9334 18.8167 17.3168 18.8001C17.3501 18.5334 17.5834 18.5834 17.7334 18.6167C17.7501 18.4501 17.8501 18.4834 17.9334 18.5167C17.8834 18.4001 17.9168 18.3334 18.0668 18.3001C17.8501 18.0167 17.9834 17.9167 18.2001 17.8167C18.0834 17.5501 18.2834 17.5667 18.4334 17.5501C18.4168 17.2667 18.5001 17.2167 18.8001 17.1834C18.7668 17.0834 18.8168 17.0001 18.9834 17.0001C18.8834 16.7167 19.0168 16.6501 19.3168 16.7001C19.3668 16.2834 20.2501 16.4834 20.1834 17.0501C20.4334 17.0834 20.5168 17.1334 20.5834 17.3334Z" fill="#009A3B"/>
<path fill-rule="evenodd" clip-rule="evenodd" d="M19.4849 16.5071C19.3987 16.5372 19.3366 16.6005 19.3246 16.7011L19.3235 16.7097L19.3149 16.7083C19.2403 16.6958 19.1764 16.6907 19.1242 16.6943C19.0719 16.6979 19.0321 16.7102 19.0048 16.7316C18.9778 16.7528 18.962 16.7838 18.959 16.8272C18.956 16.8709 18.966 16.927 18.9908 16.9973L18.9948 17.0084H18.983C18.9007 17.0084 18.8495 17.029 18.8226 17.0597C18.796 17.0901 18.7915 17.1325 18.8075 17.1808L18.8108 17.1905L18.8006 17.1917C18.7257 17.2 18.6647 17.2093 18.6157 17.2229C18.5666 17.2365 18.53 17.2543 18.5032 17.2791C18.45 17.3284 18.433 17.4081 18.4413 17.5496L18.4418 17.5575L18.4339 17.5583C18.4176 17.5602 18.4007 17.5616 18.3838 17.563C18.3811 17.5632 18.3785 17.5634 18.3758 17.5637C18.3562 17.5653 18.3367 17.5671 18.3179 17.5695C18.2801 17.5744 18.2461 17.5821 18.2205 17.5969C18.1954 17.6113 18.1784 17.6326 18.1741 17.666C18.1696 17.7 18.1783 17.7473 18.2073 17.8134L18.2105 17.8209L18.2031 17.8243C18.1491 17.8492 18.1007 17.874 18.0617 17.9014C18.0228 17.9288 17.9939 17.9585 17.9781 17.9931C17.9468 18.0615 17.965 18.1538 18.0729 18.295L18.0809 18.3054L18.0681 18.3082C17.9936 18.3248 17.9508 18.3491 17.9318 18.3814C17.9131 18.4133 17.916 18.4559 17.9406 18.5134L17.9486 18.5319L17.9299 18.5245C17.9091 18.5161 17.8877 18.508 17.8669 18.5029C17.8462 18.4979 17.8268 18.4961 17.8098 18.4999C17.7931 18.5036 17.7783 18.5127 17.7665 18.5307C17.7545 18.5489 17.7454 18.5766 17.7413 18.6176L17.7403 18.6269L17.7312 18.6249C17.6558 18.6081 17.5618 18.5878 17.4826 18.6041C17.4433 18.6121 17.408 18.6291 17.3806 18.6598C17.3531 18.6905 17.3328 18.7356 17.3246 18.8011L17.3237 18.8081L17.3167 18.8084C17.2216 18.8125 17.1479 18.8311 17.098 18.8572C17.0479 18.8834 17.0235 18.9162 17.0226 18.9482C17.0216 18.9802 17.0441 19.016 17.0979 19.0484C17.1516 19.0807 17.2348 19.1086 17.3508 19.1251L17.3558 19.1259L17.3575 19.1305C17.3892 19.2178 17.4934 19.2749 17.6033 19.2688C17.7123 19.2628 17.826 19.1944 17.875 19.031L17.8783 19.0198L17.8878 19.0266C17.9115 19.0436 17.9312 19.0599 17.9492 19.0748C17.9535 19.0784 17.9578 19.0819 17.962 19.0853C17.9835 19.1029 18.0033 19.1181 18.0264 19.1302C18.0724 19.1542 18.1331 19.1667 18.249 19.1584L18.2537 19.1581L18.2564 19.1619C18.3794 19.334 18.5671 19.3741 18.6986 19.3215C18.7644 19.2952 18.8161 19.2458 18.8394 19.1781C18.8628 19.1103 18.8581 19.023 18.8088 18.9203L18.7998 18.9016L18.8192 18.9089C18.9515 18.9585 19.0432 18.949 19.1001 18.8941C19.1578 18.8384 19.183 18.7334 19.1747 18.5839L19.1741 18.574L19.1839 18.5751C19.2109 18.5781 19.236 18.5828 19.2586 18.5869C19.2676 18.5886 19.2762 18.5902 19.2844 18.5916C19.3136 18.5965 19.337 18.5988 19.356 18.5941C19.3741 18.5895 19.3889 18.5784 19.4004 18.554C19.4123 18.5292 19.4205 18.4908 19.4247 18.4328L19.4256 18.4191L19.4373 18.4263C19.5875 18.5181 19.6774 18.5627 19.7729 18.5667C19.8686 18.5708 19.971 18.5342 20.1464 18.4591L20.1522 18.4566L20.1561 18.4615C20.1728 18.4823 20.1882 18.5019 20.2027 18.5205C20.2322 18.5581 20.2582 18.5913 20.2838 18.6203C20.3217 18.6635 20.3579 18.6965 20.4015 18.7198C20.4885 18.7663 20.6069 18.7751 20.8318 18.7418L20.8371 18.741L20.84 18.7455C20.9311 18.8864 21.0337 18.98 21.1616 19.0044C21.2896 19.0288 21.4456 18.9844 21.6448 18.8433L21.6482 18.8409L21.6521 18.8421C21.8095 18.8918 21.9449 18.8955 22.0445 18.8569C22.1436 18.8185 22.2084 18.7378 22.2247 18.6156L22.2254 18.6105L22.2303 18.6088C22.353 18.5679 22.4668 18.4494 22.4809 18.3241C22.488 18.262 22.4705 18.1977 22.4167 18.1396C22.3627 18.0812 22.2716 18.0287 22.1308 17.9915L22.1231 17.9894L22.1248 17.9815C22.1455 17.8909 22.1432 17.8186 22.124 17.7624C22.105 17.7064 22.0689 17.6658 22.0206 17.6386C21.9234 17.5839 21.776 17.5833 21.6184 17.6248L21.5972 17.6304L21.6094 17.6121C21.6754 17.5131 21.6899 17.4169 21.6509 17.3545C21.6121 17.2924 21.517 17.2584 21.3513 17.2916L21.3423 17.2934L21.3414 17.2843C21.3252 17.1303 21.2162 17.0539 21.1074 17.0459C20.9979 17.0378 20.8905 17.0984 20.8746 17.2178L20.8736 17.2251H20.8663C20.8204 17.2251 20.7863 17.2251 20.7593 17.2269C20.7324 17.2287 20.7131 17.2322 20.6966 17.239C20.6634 17.2527 20.6398 17.2799 20.5893 17.3388L20.583 17.3334L20.5751 17.336C20.542 17.2367 20.5052 17.1763 20.447 17.1361C20.3884 17.0956 20.3068 17.075 20.1819 17.0583L20.1737 17.0572L20.1747 17.0491C20.2074 16.7711 20.0074 16.5823 19.7909 16.5143C19.6827 16.4803 19.5716 16.4769 19.4849 16.5071ZM20.5861 17.3169C20.6297 17.2662 20.655 17.2381 20.6902 17.2236C20.7091 17.2158 20.7305 17.2121 20.7582 17.2102C20.7844 17.2085 20.8169 17.2084 20.8591 17.2084C20.8798 17.0827 20.9952 17.0209 21.1086 17.0293C21.2225 17.0377 21.3365 17.1168 21.3569 17.2735C21.5193 17.2429 21.6213 17.2756 21.665 17.3456C21.7067 17.4123 21.6926 17.5083 21.6346 17.6035C21.7863 17.5669 21.9303 17.5687 22.0287 17.624C22.0804 17.6531 22.1193 17.6969 22.1398 17.757C22.1597 17.8153 22.162 17.8883 22.1428 17.9774C22.2811 18.015 22.3731 18.0679 22.4289 18.1283C22.486 18.1899 22.5051 18.259 22.4975 18.326C22.4827 18.4574 22.366 18.579 22.2405 18.623C22.2223 18.7479 22.1543 18.8322 22.0506 18.8724C21.9469 18.9126 21.8088 18.9084 21.6511 18.8592C21.4519 18.9996 21.2922 19.0462 21.1585 19.0207C21.0254 18.9954 20.9204 18.8991 20.8289 18.7591C20.6071 18.7915 20.485 18.7834 20.3936 18.7345C20.3476 18.7099 20.3099 18.6752 20.2712 18.6313C20.2454 18.602 20.2189 18.5682 20.1892 18.5303C20.1759 18.5133 20.1619 18.4955 20.1471 18.4769C19.9759 18.5501 19.8712 18.5876 19.7722 18.5834C19.6745 18.5792 19.5833 18.5345 19.4402 18.4476C19.4357 18.499 19.4276 18.5357 19.4155 18.5612C19.4021 18.5894 19.3835 18.6043 19.36 18.6102C19.3373 18.6159 19.3107 18.613 19.2816 18.608C19.273 18.6066 19.2641 18.6049 19.255 18.6032C19.2354 18.5996 19.2144 18.5957 19.1918 18.5928C19.1985 18.7383 19.1735 18.8464 19.1117 18.9061C19.0508 18.9648 18.9572 18.9741 18.8322 18.9313C18.8751 19.0293 18.8788 19.1149 18.8552 19.1835C18.8301 19.2564 18.7745 19.3091 18.7048 19.337C18.5665 19.3923 18.3727 19.3501 18.2456 19.1754C18.1311 19.1831 18.0679 19.1706 18.0187 19.1449C17.9939 19.132 17.9731 19.1159 17.9514 19.0982C17.9471 19.0947 17.9428 19.0911 17.9384 19.0875C17.9229 19.0746 17.9066 19.0611 17.8875 19.047C17.8347 19.209 17.7178 19.2792 17.6043 19.2855C17.4911 19.2918 17.3804 19.2342 17.3436 19.1409C17.2288 19.1241 17.1448 19.0961 17.0894 19.0627C17.0333 19.029 17.0047 18.9886 17.0059 18.9477C17.0071 18.9069 17.0379 18.8698 17.0903 18.8424C17.1418 18.8155 17.2157 18.7969 17.309 18.7921C17.318 18.7278 17.3389 18.6814 17.3682 18.6487C17.3985 18.6148 17.4372 18.5963 17.4792 18.5877C17.5592 18.5713 17.6524 18.5904 17.7257 18.6066C17.7304 18.569 17.7396 18.5413 17.7526 18.5215C17.7668 18.4999 17.7853 18.4882 17.8062 18.4836C17.8267 18.479 17.8489 18.4814 17.8709 18.4868C17.8867 18.4906 17.9026 18.4961 17.9181 18.502C17.8992 18.4509 17.8969 18.4078 17.9175 18.3729C17.9389 18.3365 17.9836 18.3116 18.0519 18.2949C17.9499 18.1582 17.9284 18.0617 17.9629 17.9862C17.9804 17.9479 18.0119 17.9161 18.0521 17.8878C18.0905 17.8607 18.1374 17.8365 18.1888 17.8126C18.1619 17.7491 18.1527 17.7008 18.1575 17.6638C18.1626 17.6248 18.1831 17.5992 18.2121 17.5824C18.2407 17.5659 18.2775 17.558 18.3158 17.553C18.335 17.5505 18.3548 17.5487 18.3744 17.5471C18.3771 17.5468 18.3797 17.5466 18.3824 17.5464C18.3966 17.5452 18.4106 17.544 18.4242 17.5426C18.4169 17.4054 18.4337 17.3207 18.4919 17.2669C18.5214 17.2396 18.5608 17.2209 18.6112 17.2069C18.6594 17.1935 18.7181 17.1843 18.7887 17.1762C18.7751 17.1281 18.7803 17.0827 18.81 17.0487C18.84 17.0145 18.8933 16.9937 18.9713 16.9919C18.9489 16.9255 18.9393 16.8705 18.9424 16.8261C18.9456 16.7788 18.9632 16.7431 18.9945 16.7185C19.0255 16.6941 19.0691 16.6814 19.123 16.6777C19.175 16.6741 19.2374 16.6789 19.3092 16.6905C19.3246 16.5877 19.3906 16.5224 19.4794 16.4914C19.5704 16.4597 19.6853 16.4636 19.7959 16.4984C20.0148 16.5672 20.2213 16.7587 20.1921 17.0429C20.3128 17.0594 20.3956 17.0804 20.4565 17.1224C20.5161 17.1635 20.5537 17.2241 20.5861 17.3169Z" fill="black"/>
<path fill-rule="evenodd" clip-rule="evenodd" d="M20.1021 17.1048C20.1344 17.0866 20.1609 17.0686 20.1764 17.0454L20.1902 17.0547C20.1724 17.0815 20.1426 17.1011 20.1103 17.1193C20.1008 17.1247 20.091 17.13 20.0811 17.1353C20.057 17.1483 20.0322 17.1617 20.0089 17.1778C19.9762 17.2002 19.9472 17.2274 19.9282 17.2648C19.9093 17.3021 19.9001 17.3504 19.9082 17.4157L19.8932 17.4216C19.8528 17.365 19.7922 17.3288 19.7342 17.3208C19.6766 17.3129 19.6219 17.3327 19.5905 17.3875L19.5761 17.3793C19.6114 17.3175 19.6734 17.2956 19.7365 17.3043C19.7913 17.3119 19.8473 17.3423 19.8891 17.3898C19.8861 17.3353 19.8956 17.2922 19.9134 17.2572C19.934 17.2165 19.9654 17.1874 19.9994 17.164C20.0236 17.1474 20.0496 17.1334 20.074 17.1202C20.0837 17.1149 20.0931 17.1099 20.1021 17.1048ZM18.846 17.2075C18.8299 17.2034 18.8126 17.199 18.7962 17.1908L18.8037 17.1759C18.8184 17.1833 18.834 17.1872 18.8504 17.1914C18.8516 17.1917 18.8527 17.192 18.8538 17.1922C18.8712 17.1967 18.8895 17.2016 18.9063 17.2117C18.9377 17.2305 18.9617 17.2658 18.9722 17.3415C19.0023 17.2946 19.0342 17.2643 19.0662 17.2493C19.1032 17.2319 19.1396 17.2353 19.1711 17.2556C19.2023 17.2756 19.2282 17.3117 19.2463 17.3591C19.2644 17.4065 19.275 17.4659 19.275 17.5334H19.2583C19.2583 17.4676 19.248 17.4103 19.2307 17.365C19.2134 17.3197 19.1893 17.287 19.1621 17.2696C19.1354 17.2524 19.1051 17.2495 19.0733 17.2644C19.0411 17.2795 19.0068 17.3133 18.9739 17.3709L18.9607 17.3939L18.9583 17.3675C18.9501 17.2769 18.9257 17.2427 18.8978 17.226C18.8833 17.2173 18.8672 17.2128 18.8497 17.2084C18.8485 17.2081 18.8473 17.2078 18.846 17.2075ZM20.5584 17.5028C20.5708 17.4324 20.575 17.3662 20.575 17.3334H20.5916C20.5916 17.3672 20.5874 17.4344 20.5748 17.5057C20.5623 17.5767 20.5412 17.6532 20.5069 17.7047L20.493 17.6954C20.5254 17.6469 20.546 17.5734 20.5584 17.5028ZM21.6091 17.6184C21.6092 17.621 21.6106 17.6225 21.6107 17.6226L21.6225 17.6108C21.6237 17.612 21.6257 17.6144 21.6258 17.618C21.6259 17.6218 21.6238 17.6244 21.6222 17.6258C21.6207 17.6271 21.6189 17.6279 21.6176 17.6284C21.6162 17.629 21.6147 17.6294 21.6131 17.6298C21.607 17.6312 21.5975 17.6323 21.5861 17.6334C21.5786 17.634 21.5701 17.6347 21.5608 17.6355C21.5412 17.637 21.5179 17.6389 21.4926 17.6417C21.4175 17.65 21.3279 17.6666 21.2715 17.7068L21.2618 17.6933C21.3221 17.6502 21.4158 17.6334 21.4907 17.6251C21.5163 17.6223 21.5402 17.6204 21.5599 17.6188C21.5691 17.6181 21.5774 17.6174 21.5846 17.6168C21.5962 17.6157 21.6044 17.6147 21.6092 17.6136C21.6104 17.6133 21.6111 17.6131 21.6116 17.6129C21.6122 17.6127 21.6119 17.6127 21.6113 17.6132C21.6107 17.6137 21.609 17.6155 21.6091 17.6184ZM18.9337 17.8018C18.8761 17.8197 18.7983 17.8802 18.707 18.0213L18.6975 18.0358L18.6921 18.0194C18.68 17.9832 18.6621 17.9586 18.6411 17.9417C18.62 17.9248 18.5954 17.9154 18.5692 17.9103C18.543 17.9053 18.5156 17.9048 18.4893 17.9055C18.4784 17.9058 18.4676 17.9064 18.457 17.9069C18.4425 17.9077 18.4287 17.9084 18.4166 17.9084V17.8917C18.4285 17.8917 18.4414 17.8911 18.4554 17.8903C18.4659 17.8898 18.477 17.8892 18.4888 17.8889C18.5156 17.8881 18.5444 17.8886 18.5724 17.894C18.6004 17.8994 18.6278 17.9097 18.6515 17.9287C18.672 17.9451 18.6893 17.9677 18.702 17.9984C18.7903 17.8658 18.8676 17.8048 18.9287 17.7859C18.9928 17.766 19.0388 17.7924 19.0574 17.8297L19.0425 17.8371C19.0278 17.8077 18.9905 17.7841 18.9337 17.8018ZM19.6289 17.8592C19.5381 17.8035 19.4493 17.7842 19.3862 17.8079L19.3804 17.7923C19.4506 17.7659 19.5451 17.7883 19.6377 17.845C19.7266 17.8996 19.8152 17.9869 19.8817 18.0975C19.9146 18.0159 19.9554 17.9797 20.0013 17.9631C20.0253 17.9543 20.0501 17.9511 20.0748 17.9491C20.0813 17.9485 20.0877 17.948 20.0941 17.9475C20.1124 17.9462 20.1304 17.9449 20.1486 17.9418L20.1513 17.9583C20.1323 17.9614 20.1132 17.9629 20.0947 17.9642C20.0885 17.9647 20.0823 17.9651 20.0762 17.9657C20.0519 17.9677 20.0288 17.9708 20.007 17.9787C19.9641 17.9943 19.9239 18.0295 19.8911 18.1196L19.885 18.1365L19.8761 18.1209C19.8101 18.0054 19.7194 17.9147 19.6289 17.8592ZM21.0431 18.1465C20.9763 18.0999 20.8919 18.0758 20.7868 18.1243L20.7798 18.1092C20.8914 18.0577 20.982 18.0836 21.0526 18.1328C21.1128 18.1747 21.1588 18.2338 21.1914 18.2757C21.1944 18.2795 21.1972 18.2831 21.1998 18.2865C21.2481 18.2245 21.2931 18.1922 21.3388 18.1756C21.386 18.1584 21.4331 18.1584 21.4826 18.1584H21.4833V18.1751C21.4331 18.1751 21.3887 18.1751 21.3445 18.1912C21.3005 18.2072 21.2559 18.2393 21.2066 18.3051L21.2002 18.3137L21.1935 18.3053C21.1886 18.2992 21.1835 18.2926 21.178 18.2856C21.1453 18.2436 21.101 18.1868 21.0431 18.1465ZM20.1369 18.4162C20.1393 18.4346 20.1416 18.4522 20.1416 18.4667H20.125C20.125 18.4533 20.1229 18.4371 20.1205 18.4186C20.12 18.415 20.1195 18.4114 20.119 18.4076C20.1162 18.3849 20.1135 18.3598 20.1146 18.3351C20.1156 18.3104 20.1205 18.2855 20.1331 18.2634C20.1458 18.2411 20.166 18.2222 20.1967 18.2091L20.2032 18.2244C20.1756 18.2362 20.1583 18.2527 20.1476 18.2716C20.1367 18.2907 20.1322 18.3127 20.1312 18.3358C20.1302 18.359 20.1327 18.3829 20.1356 18.4055C20.136 18.4091 20.1365 18.4126 20.1369 18.4162ZM18.2372 18.2646C18.1754 18.2626 18.12 18.2751 18.0892 18.306L18.0774 18.2942C18.1132 18.2583 18.1745 18.2459 18.2377 18.248C18.3014 18.2501 18.3692 18.267 18.4204 18.2926L18.4129 18.3075C18.3641 18.2831 18.2986 18.2667 18.2372 18.2646ZM19.0663 18.3122C19.0372 18.3413 19.0168 18.3927 19.0249 18.4658L19.0268 18.4825L19.0123 18.4739C18.9321 18.4257 18.8209 18.4425 18.7738 18.521L18.7595 18.5124C18.8096 18.429 18.9219 18.4097 19.007 18.452C19.0028 18.383 19.0234 18.3315 19.0545 18.3004C19.0878 18.2671 19.1333 18.2574 19.1704 18.2759L19.1629 18.2908C19.1333 18.2761 19.0955 18.283 19.0663 18.3122ZM21.9415 18.6104C21.9407 18.5752 21.937 18.525 21.9181 18.4801C21.9062 18.452 21.8881 18.4256 21.8608 18.4063C21.8334 18.3869 21.7973 18.3751 21.75 18.3751V18.3917C21.7943 18.3917 21.827 18.4028 21.8511 18.4199C21.8754 18.437 21.8917 18.4606 21.9027 18.4866C21.9249 18.539 21.925 18.5999 21.925 18.6334V18.6584L21.94 18.6384C21.9642 18.6062 21.99 18.5874 22.0159 18.5777C22.0419 18.5679 22.0685 18.5668 22.0945 18.5708C22.1394 18.5777 22.1813 18.5993 22.2138 18.6161C22.2193 18.619 22.2246 18.6217 22.2296 18.6242L22.237 18.6093C22.2324 18.6069 22.2273 18.6043 22.2219 18.6015C22.1896 18.5848 22.1449 18.5617 22.0971 18.5543C22.0689 18.55 22.0393 18.551 22.01 18.5621C21.9863 18.571 21.9631 18.5865 21.9415 18.6104ZM21.0017 18.5753C21.035 18.5739 21.0702 18.584 21.105 18.6101L21.095 18.6234C21.0631 18.5995 21.0316 18.5908 21.0024 18.592C20.9731 18.5932 20.9454 18.6045 20.9215 18.6214C20.8975 18.6384 20.8774 18.661 20.8634 18.6843C20.8493 18.7077 20.8416 18.7312 20.8416 18.7501H20.825C20.825 18.7272 20.834 18.7007 20.8491 18.6757C20.8642 18.6506 20.8858 18.6263 20.9118 18.6078C20.9378 18.5894 20.9685 18.5767 21.0017 18.5753ZM21.6371 18.6705C21.6499 18.7111 21.6583 18.7662 21.6583 18.8501H21.6416C21.6416 18.7672 21.6333 18.714 21.6212 18.6755C21.6091 18.6371 21.593 18.6129 21.5764 18.588L21.5902 18.5788L21.5903 18.5789C21.607 18.6039 21.6242 18.6298 21.6371 18.6705ZM18.3734 18.9058C18.3621 18.8404 18.3199 18.7799 18.257 18.7568C18.1904 18.7324 18.1038 18.7511 18.0107 18.8442L18.0225 18.856C18.1128 18.7657 18.1929 18.7511 18.2513 18.7725C18.3103 18.7941 18.3503 18.8535 18.3584 18.9178L18.3583 18.9178L18.3585 18.9184C18.3622 18.9369 18.3585 18.9504 18.3505 18.963C18.3432 18.9744 18.3326 18.9849 18.3197 18.9978C18.3175 19 18.3152 19.0022 18.3128 19.0046C18.281 19.0364 18.2422 19.0795 18.2251 19.1651L18.2415 19.1684C18.2577 19.0873 18.2939 19.047 18.3246 19.0164C18.3268 19.0142 18.329 19.012 18.3312 19.0098C18.344 18.9971 18.3562 18.9851 18.3645 18.972C18.3736 18.9577 18.3783 18.942 18.376 18.9225C18.4226 18.908 18.4687 18.9046 18.5071 18.9104C18.5476 18.9165 18.5782 18.9324 18.593 18.9547L18.6069 18.9454C18.5884 18.9177 18.5524 18.9003 18.5095 18.8939C18.4691 18.8878 18.4214 18.8913 18.3734 18.9058Z" fill="black"/>
<path d="M19.4497 15.0417L19.083 15.0584L18.8997 15.3917L18.6997 15.0751L18.333 15.0917L18.4997 14.7584L18.2997 14.4501L18.683 14.4334L18.8497 14.1001L19.0497 14.4167L19.4163 14.4001L19.2497 14.7334L19.4497 15.0417ZM17.883 15.1667L17.5163 15.2501L17.4163 15.6084L17.1497 15.3417L16.7997 15.4251L16.8997 15.0751L16.6497 14.8084L16.9997 14.7167L17.0997 14.3584L17.3663 14.6251L17.733 14.5417L17.6163 14.9001L17.883 15.1667ZM16.3663 15.4751L16.033 15.6417L16.0163 16.0084L15.6997 15.8084L15.3663 15.9751L15.3997 15.6001L15.083 15.4001L15.4163 15.2334L15.4497 14.8584L15.7497 15.0667L16.083 14.9001L16.0663 15.2667L16.3663 15.4751ZM19.933 15.0417L20.2997 15.0584L20.4663 15.3917L20.6663 15.0751L21.033 15.0917L20.8663 14.7584L21.0663 14.4501L20.6997 14.4334L20.5163 14.1001L20.3163 14.4167L19.9497 14.4001L20.1163 14.7334L19.933 15.0417ZM21.4997 15.1667L21.8497 15.2501L21.9497 15.6084L22.2163 15.3417L22.5663 15.4251L22.4663 15.0751L22.733 14.8084L22.3663 14.7167L22.2663 14.3584L21.9997 14.6251L21.6497 14.5417L21.7497 14.9001L21.4997 15.1667ZM22.9997 15.4751L23.333 15.6417L23.3497 16.0084L23.6663 15.8084L23.9997 15.9751L23.983 15.6001L24.283 15.4001L23.9497 15.2334L23.933 14.8584L23.6163 15.0667L23.283 14.9001L23.3163 15.2667L22.9997 15.4751Z" fill="#FFD700"/>
<path fill-rule="evenodd" clip-rule="evenodd" d="M18.8465 14.0408L19.065 14.3868L19.4644 14.3687L19.283 14.7315L19.5016 15.0686L19.1004 15.0868L18.9011 15.4491L18.6838 15.105L18.2844 15.1231L18.4659 14.7603L18.2472 14.4232L18.6643 14.405L18.8465 14.0408ZM20.5178 14.0427L20.7171 14.405L21.1182 14.4232L20.8996 14.7603L21.081 15.1231L20.6817 15.105L20.4631 15.451L20.281 15.0868L19.8828 15.0687L20.0829 14.7322L19.9011 14.3687L20.3005 14.3868L20.5178 14.0427ZM20.5143 14.1574L20.3317 14.4466L19.9977 14.4315L20.1493 14.7346L19.9827 15.0148L20.3178 15.03L20.469 15.3324L20.6505 15.0452L20.9844 15.0603L20.8325 14.7565L21.0139 14.4769L20.6817 14.4618L20.5143 14.1574ZM18.8524 14.1594L19.0338 14.4466L19.3678 14.4315L19.2159 14.7353L19.3972 15.0149L19.0651 15.03L18.8977 15.3344L18.715 15.0452L18.381 15.0603L18.533 14.7565L18.3516 14.477L18.7012 14.4618L18.8524 14.1594ZM17.0847 14.3025L17.3753 14.5931L17.7764 14.5019L17.6493 14.8921L17.9407 15.1835L17.5395 15.2747L17.4307 15.6643L17.1403 15.3739L16.7577 15.465L16.8668 15.083L16.5946 14.7926L16.9758 14.6928L17.0847 14.3025ZM22.2807 14.3025L22.3896 14.6926L22.7898 14.7926L22.4988 15.0836L22.6078 15.465L22.2252 15.3739L21.9347 15.6643L21.8259 15.2745L21.4437 15.1835L21.7169 14.8921L21.608 14.5019L21.9903 14.5929L22.2807 14.3025ZM22.2514 14.4143L22.0085 14.6572L21.6908 14.5816L21.7819 14.908L21.5551 15.15L21.8729 15.2257L21.9641 15.5525L22.207 15.3096L22.5243 15.3852L22.4333 15.0666L22.6757 14.8242L22.3425 14.7409L22.2514 14.4143ZM17.1141 14.4143L17.023 14.7407L16.7042 14.8242L16.932 15.0672L16.8411 15.3852L17.1585 15.3096L17.4014 15.5525L17.4927 15.2255L17.8248 15.15L17.5828 14.9081L17.6891 14.5816L17.3568 14.6571L17.1141 14.4143ZM15.4248 14.8058L15.7518 15.0329L16.1141 14.8518L16.0959 15.252L16.4231 15.4792L16.0611 15.6602L16.0429 16.0599L15.6977 15.8419L15.3324 16.0245L15.3688 15.6152L15.0234 15.3971L15.3885 15.2146L15.4248 14.8058ZM23.9596 14.8058L23.9778 15.215L24.3407 15.3965L24.0126 15.6152L24.0307 16.0234L23.6677 15.8419L23.3226 16.0599L23.3044 15.6602L22.9411 15.4785L23.2854 15.252L23.249 14.8506L23.6141 15.0331L23.9596 14.8058ZM23.9059 14.911L23.6181 15.1003L23.3165 14.9496L23.3467 15.2815L23.0577 15.4716L23.3611 15.6233L23.3763 15.9569L23.6644 15.775L23.9681 15.9268L23.9529 15.5849L24.2247 15.4037L23.921 15.2518L23.9059 14.911ZM15.474 14.911L15.4437 15.2522L15.142 15.403L15.43 15.5849L15.3998 15.9256L15.7011 15.775L15.9892 15.9569L16.0044 15.6233L16.309 15.471L16.0362 15.2815L16.0513 14.9484L15.747 15.1006L15.474 14.911Z" fill="black"/>
<path d="M23.4501 22.5334L23.8667 23.1334L24.2501 22.5667L23.9834 22.0834L23.4501 22.5334ZM20.8001 24.2834L20.8334 24.8834C20.8334 24.8834 21.0001 24.8834 21.1501 24.8334C21.2834 24.7834 21.4001 24.6834 21.4001 24.6834L21.3834 24.3667L20.8001 24.2834ZM18.5667 24.2834L18.5334 24.8667C18.5334 24.8667 18.3834 24.8667 18.2334 24.8334C18.1001 24.8001 17.9834 24.7167 17.9834 24.7167L17.8167 24.3167L18.5667 24.2834ZM15.8834 22.5334L15.4501 23.1334L14.9834 22.3667L15.3334 22.0001L15.8834 22.5334Z" fill="white"/>
<path fill-rule="evenodd" clip-rule="evenodd" d="M15.332 21.9586L15.9213 22.53L15.4474 23.1861L14.9463 22.3628L15.332 21.9586ZM15.3336 22.0415L15.0194 22.3707L15.4516 23.0807L15.8444 22.5368L15.3336 22.0415ZM23.9912 22.0382L24.2837 22.5683L23.8665 23.185L23.4104 22.5282L23.9912 22.0382ZM23.4886 22.5386L23.8659 23.0818L24.2153 22.5652L23.9745 22.1286L23.4886 22.5386ZM20.7684 24.2495L21.4107 24.3412L21.4294 24.6962L21.4185 24.7055L21.3995 24.6834C21.4185 24.7055 21.4185 24.7055 21.4185 24.7055L21.4183 24.7057L21.418 24.7059L21.4169 24.7069C21.4159 24.7077 21.4145 24.7088 21.4127 24.7103C21.4091 24.7133 21.4038 24.7176 21.3971 24.7228C21.3837 24.7333 21.3645 24.7477 21.3409 24.7637C21.2941 24.7957 21.2295 24.8346 21.1597 24.8607L21.1587 24.8611C21.0809 24.887 20.9995 24.8998 20.9379 24.9061C20.907 24.9093 20.8809 24.9109 20.8625 24.9117C20.8533 24.9121 20.8459 24.9123 20.8409 24.9124C20.8384 24.9125 20.8364 24.9125 20.835 24.9125L20.8335 24.9126L20.833 24.9126H20.8329C20.8329 24.9126 20.8328 24.9126 20.8328 24.8834L20.8329 24.9126L20.8052 24.9126L20.7684 24.2495ZM20.8604 24.8534C20.8779 24.8527 20.9026 24.8512 20.9319 24.8481C20.9911 24.842 21.0677 24.8298 21.1398 24.8059C21.2032 24.782 21.2633 24.746 21.3081 24.7155C21.3304 24.7003 21.3486 24.6866 21.3613 24.6768C21.3644 24.6743 21.3672 24.6721 21.3696 24.6702L21.355 24.3922L20.8306 24.3173L20.8604 24.8534ZM18.5971 24.2528L18.5604 24.8959H18.5328H18.5327L18.5323 24.8959L18.5309 24.8959L18.5257 24.8958C18.5211 24.8957 18.5145 24.8956 18.5061 24.8953C18.4894 24.8948 18.4655 24.8938 18.4369 24.8916C18.3799 24.8874 18.3034 24.8789 18.2265 24.8619L18.2258 24.8617C18.1558 24.8442 18.0909 24.8138 18.0439 24.7882C18.0203 24.7753 18.0009 24.7635 17.9874 24.7548C17.9807 24.7505 17.9754 24.747 17.9717 24.7445C17.9699 24.7433 17.9685 24.7423 17.9675 24.7416L17.9664 24.7408L17.9659 24.7405C17.9659 24.7405 17.9659 24.7405 17.9828 24.7167L17.9659 24.7405L17.9591 24.7356L17.7732 24.2894L18.5971 24.2528ZM18.0065 24.6976C18.0096 24.6997 18.0138 24.7024 18.0189 24.7057C18.0314 24.7137 18.0496 24.7248 18.0718 24.7369C18.1164 24.7613 18.1763 24.7891 18.2395 24.805C18.3126 24.8212 18.3859 24.8294 18.4412 24.8335C18.4674 24.8354 18.4894 24.8364 18.5053 24.837L18.5352 24.314L17.8591 24.344L18.0065 24.6976Z" fill="black"/>
<path d="M17.9668 25.4834C17.9668 26.0501 21.4001 26.0501 21.4001 25.4834V24.6834C21.4001 25.1001 17.9668 25.0167 17.9668 24.6834V25.4834Z" fill="white"/>
<path fill-rule="evenodd" clip-rule="evenodd" d="M21.3421 24.7339C21.3634 24.7151 21.3708 24.6983 21.3708 24.6834H21.4292V25.4834C21.4292 25.5707 21.3631 25.6403 21.2668 25.6947C21.1693 25.7499 21.0319 25.795 20.8698 25.8306C20.5452 25.9021 20.1137 25.9376 19.6833 25.9376C19.2529 25.9376 18.8215 25.9021 18.4969 25.8306C18.3348 25.795 18.1974 25.7499 18.0998 25.6947C18.0036 25.6403 17.9375 25.5707 17.9375 25.4834V24.6834H17.9958C17.9958 24.6906 18.0004 24.7029 18.0227 24.7196C18.0444 24.7358 18.0782 24.7524 18.124 24.7687C18.2152 24.8011 18.3471 24.8298 18.5074 24.8538C18.8276 24.9017 19.2554 24.9303 19.6837 24.9355C20.1121 24.9407 20.5396 24.9225 20.8595 24.8772C21.0196 24.8545 21.1511 24.8253 21.2418 24.7896C21.2872 24.7717 21.3206 24.7529 21.3421 24.7339ZM21.3708 24.7859C21.343 24.8078 21.3063 24.8269 21.2632 24.8439C21.1661 24.8821 21.0293 24.9121 20.8676 24.9349C20.5437 24.9808 20.1129 24.999 19.683 24.9938C19.253 24.9886 18.8224 24.9599 18.4988 24.9115C18.3372 24.8873 18.201 24.858 18.1044 24.8237C18.0607 24.8082 18.0237 24.7911 17.9958 24.7721V25.4834C17.9958 25.5377 18.037 25.5922 18.1286 25.644C18.2187 25.695 18.3496 25.7385 18.5094 25.7737C18.8285 25.8439 19.2554 25.8792 19.6833 25.8792C20.1113 25.8792 20.5382 25.8439 20.8573 25.7737C21.0171 25.7385 21.1479 25.695 21.2381 25.644C21.3296 25.5922 21.3708 25.5377 21.3708 25.4834V24.7859Z" fill="black"/>
<path d="M14.8994 23.6334C15.1994 25.1667 17.9661 25.2001 17.9661 25.2001V24.6834C17.8994 24.4834 18.0161 24.4167 18.4661 24.3501C18.6494 24.3334 18.5661 24.0667 18.5661 24.0667C18.5661 24.0667 17.3661 24.2834 16.5161 23.9501C15.3661 23.4834 15.1994 22.5834 15.1994 22.5834C15.1994 22.5834 15.1161 23.2834 14.8994 23.6334ZM24.4494 23.6334C24.1661 25.1667 21.3994 25.2001 21.3994 25.2001V24.6834C21.4494 24.4834 21.3327 24.4167 20.8827 24.3501C20.6994 24.3334 20.7994 24.0667 20.7994 24.0667C20.7994 24.0667 21.9994 24.2834 22.8494 23.9501C23.9827 23.4834 24.1161 22.5834 24.1161 22.5834C24.1161 22.5834 24.2327 23.2834 24.4494 23.6334Z" fill="white"/>
<path fill-rule="evenodd" clip-rule="evenodd" d="M15.4512 23.0758C15.6337 23.3546 15.9583 23.6921 16.5272 23.923C16.9467 24.0874 17.4544 24.1167 17.8592 24.1042C18.0613 24.098 18.237 24.0814 18.3621 24.0664C18.4247 24.0589 18.4746 24.0518 18.5088 24.0466C18.5258 24.0439 18.539 24.0418 18.5479 24.0403C18.5502 24.0399 18.5522 24.0396 18.5539 24.0393C18.5555 24.039 18.5568 24.0388 18.5579 24.0386L18.5604 24.0382L18.561 24.0381L18.5612 24.038L18.5664 24.0667C18.5942 24.058 18.5942 24.058 18.5942 24.058L18.5943 24.0584L18.5945 24.0591L18.5953 24.0616C18.5959 24.0638 18.5968 24.0669 18.5978 24.0708C18.5999 24.0786 18.6026 24.0897 18.6052 24.103C18.6103 24.1295 18.6154 24.1657 18.6143 24.203C18.6132 24.24 18.6059 24.281 18.5837 24.3148C18.5607 24.3498 18.5235 24.3739 18.4699 24.379C18.3581 24.3956 18.2678 24.4121 18.1963 24.4304C18.1242 24.4489 18.0731 24.4687 18.0385 24.4912C18.0047 24.5132 17.9879 24.5366 17.9814 24.5632C17.9747 24.591 17.9782 24.6265 17.9941 24.6742L17.9956 24.6787V25.2296L17.966 25.2292L17.9664 25.2001C17.966 25.2292 17.9661 25.2292 17.966 25.2292L17.9659 25.2292L17.9655 25.2292L17.9639 25.2292L17.9578 25.2291C17.9525 25.229 17.9446 25.2288 17.9344 25.2285C17.9138 25.2278 17.8838 25.2267 17.8454 25.2248C17.7688 25.2208 17.659 25.2135 17.5264 25.1999C17.2614 25.1727 16.9045 25.1204 16.5378 25.0199C15.8079 24.8196 15.0247 24.4239 14.8711 23.639L14.8997 23.6334L14.8749 23.618C14.9804 23.4476 15.0546 23.1893 15.1025 22.9709C15.1263 22.8622 15.1434 22.7644 15.1545 22.6937C15.1601 22.6584 15.1641 22.6299 15.1668 22.6102C15.1682 22.6004 15.1691 22.5928 15.1698 22.5877L15.1705 22.5819L15.1707 22.5804L15.1708 22.5799L15.2283 22.5781C15.2284 22.5781 15.2284 22.5781 15.2284 22.5781L15.2285 22.5785L15.2288 22.5802C15.2291 22.5817 15.2296 22.5841 15.2303 22.5872C15.2318 22.5936 15.234 22.6031 15.2373 22.6155C15.2439 22.6402 15.2546 22.6763 15.2711 22.7213C15.3041 22.8112 15.3599 22.9362 15.4512 23.0758ZM15.2092 22.7213C15.1979 22.791 15.1815 22.8825 15.1595 22.9834C15.1123 23.1985 15.0384 23.4595 14.9306 23.6389C15.0822 24.3801 15.8285 24.7648 16.5533 24.9636C16.9158 25.063 17.2693 25.1149 17.5324 25.1419C17.6639 25.1554 17.7726 25.1626 17.8484 25.1665C17.8863 25.1684 17.916 25.1695 17.9361 25.1702C17.9365 25.1702 17.9369 25.1702 17.9372 25.1702V24.6881C17.9209 24.6375 17.9146 24.5913 17.9248 24.5494C17.9355 24.5052 17.9635 24.4703 18.0068 24.4423C18.0492 24.4147 18.1075 24.3929 18.1818 24.3739C18.2564 24.3548 18.3493 24.3379 18.4621 24.3212L18.4629 24.3211L18.4637 24.321C18.5013 24.3176 18.5222 24.3022 18.535 24.2827C18.5487 24.2618 18.555 24.2331 18.556 24.2013C18.5569 24.1699 18.5526 24.1383 18.5479 24.1143C18.5469 24.1091 18.5459 24.1043 18.5449 24.0999C18.5373 24.1012 18.5282 24.1026 18.5176 24.1042C18.4828 24.1095 18.4323 24.1167 18.3691 24.1243C18.2426 24.1395 18.0652 24.1563 17.861 24.1625C17.4534 24.1751 16.9362 24.146 16.5057 23.9772L16.5054 23.9771C15.9244 23.7413 15.5908 23.3955 15.4024 23.1077C15.3083 22.9639 15.2506 22.8348 15.2163 22.7413C15.2138 22.7345 15.2114 22.7278 15.2092 22.7213ZM18.5664 24.0667L18.5942 24.058L18.5865 24.0335L18.5612 24.038L18.5664 24.0667ZM24.0876 22.5791L24.1452 22.5786L24.1452 22.5791L24.1455 22.5805L24.1465 22.5863C24.1474 22.5915 24.1487 22.5991 24.1505 22.6089C24.1541 22.6286 24.1595 22.6571 24.1666 22.6925C24.1808 22.7632 24.2021 22.8611 24.2301 22.9699C24.2862 23.1884 24.3687 23.4471 24.4745 23.618L24.4497 23.6334L24.4784 23.6387C24.3333 24.4238 23.554 24.8196 22.8262 25.0199C22.4606 25.1204 22.1042 25.1727 21.8394 25.1999C21.707 25.2135 21.5973 25.2208 21.5206 25.2248C21.4823 25.2267 21.4523 25.2278 21.4317 25.2285C21.4215 25.2288 21.4136 25.229 21.4083 25.2291L21.4022 25.2292L21.4006 25.2292L21.4002 25.2292L21.4001 25.2292C21.4001 25.2292 21.4001 25.2292 21.3997 25.2001L21.4001 25.2292L21.3706 25.2296V24.6798L21.3714 24.6763C21.3833 24.6288 21.3842 24.5931 21.3755 24.5649C21.3671 24.5376 21.3484 24.5136 21.3133 24.4914C21.2775 24.4688 21.2257 24.4489 21.1534 24.4304C21.0816 24.4121 20.9913 24.3956 20.8796 24.379C20.8258 24.3739 20.7892 24.3496 20.7677 24.3138C20.7471 24.2795 20.7424 24.2381 20.7435 24.2013C20.7446 24.1639 20.7519 24.1278 20.7587 24.1014C20.7621 24.0881 20.7655 24.077 20.768 24.0692C20.7693 24.0653 20.7704 24.0622 20.7711 24.0601L20.772 24.0575L20.7723 24.0568L20.7724 24.0566L20.7724 24.0565C20.7724 24.0565 20.7724 24.0565 20.7997 24.0667L20.8049 24.038L20.8051 24.0381L20.8057 24.0382L20.8082 24.0386C20.8104 24.039 20.8138 24.0396 20.8182 24.0403C20.8271 24.0418 20.8403 24.0439 20.8574 24.0466C20.8915 24.0518 20.9414 24.0589 21.004 24.0664C21.1291 24.0814 21.3048 24.098 21.5069 24.1042C21.9117 24.1167 22.4194 24.0874 22.8388 23.923C23.3992 23.6922 23.7112 23.355 23.8832 23.0764C23.9694 22.937 24.0205 22.812 24.0501 22.7222C24.0649 22.6773 24.0743 22.6412 24.08 22.6165C24.0829 22.6041 24.0848 22.5946 24.0859 22.5883C24.0865 22.5851 24.0869 22.5827 24.0872 22.5812L24.0875 22.5795L24.0875 22.5792C24.0875 22.5792 24.0875 22.5791 24.0876 22.5791ZM24.1124 22.719C24.1103 22.7259 24.108 22.7331 24.1055 22.7404C24.0747 22.8339 24.0217 22.9632 23.9329 23.1071C23.7549 23.3951 23.4337 23.7412 22.8608 23.977L22.8604 23.9772C22.4299 24.146 21.9127 24.1751 21.5051 24.1625C21.3009 24.1563 21.1235 24.1395 20.997 24.1243C20.9338 24.1167 20.8833 24.1095 20.8485 24.1042C20.8372 24.1025 20.8276 24.101 20.8197 24.0997C20.8183 24.1045 20.8167 24.11 20.8152 24.1159C20.809 24.1401 20.8027 24.1716 20.8018 24.203C20.8008 24.2349 20.8054 24.2633 20.8177 24.2838C20.8289 24.3024 20.8482 24.3176 20.8857 24.321L20.8865 24.3211L20.8873 24.3212C21.0002 24.3379 21.093 24.3548 21.1679 24.3739C21.2425 24.3929 21.3011 24.4147 21.3445 24.4421C21.3885 24.4699 21.4178 24.5042 21.4312 24.5477C21.4441 24.5894 21.4413 24.6358 21.4289 24.6869V25.1702C21.4292 25.1702 21.4296 25.1702 21.43 25.1702C21.4501 25.1695 21.4798 25.1684 21.5177 25.1665C21.5934 25.1626 21.7021 25.1554 21.8335 25.1419C22.0962 25.1149 22.4492 25.063 22.8107 24.9636C23.5335 24.7648 24.2755 24.3801 24.419 23.639C24.3111 23.4601 24.2289 23.1995 24.1736 22.9844C24.1472 22.8819 24.1268 22.789 24.1124 22.719ZM20.7997 24.0667L20.8049 24.038L20.781 24.0337L20.7724 24.0565L20.7997 24.0667Z" fill="black"/>
<path d="M15.1167 23.0501C14.35 22.6334 14.95 22.2001 15.0167 20.9667C15.1334 21.7167 15.9834 22.0334 15.8834 22.5167C15.5334 22.5334 15.3667 22.0001 15.2 22.5834L15.1167 23.0501ZM24.2334 23.0501C25 22.6167 24.3667 22.2001 24.3 20.9667C24.1834 21.7167 23.35 22.0334 23.45 22.5167C23.7834 22.5334 23.95 22.0001 24.1167 22.5834L24.2334 23.0334V23.0501Z" fill="white"/>
<path fill-rule="evenodd" clip-rule="evenodd" d="M14.9874 20.9652L15.0454 20.9622C15.1022 21.3273 15.3374 21.5879 15.5526 21.822C15.5557 21.8254 15.5588 21.8287 15.5619 21.8321C15.6652 21.9444 15.764 22.0518 15.8312 22.1608C15.901 22.2739 15.9388 22.392 15.9118 22.5226L15.9072 22.5448L15.8846 22.5459C15.7893 22.5504 15.7076 22.5173 15.6378 22.4775C15.6029 22.4576 15.5705 22.4356 15.5408 22.4155L15.5405 22.4153C15.5105 22.395 15.4838 22.3769 15.4588 22.3631C15.4336 22.3493 15.4125 22.3413 15.3941 22.3394C15.3769 22.3376 15.3611 22.3411 15.3449 22.3528C15.3278 22.3653 15.3088 22.3879 15.2887 22.4271C15.2688 22.4657 15.2488 22.5188 15.2283 22.59L15.1453 23.0552L15.1166 23.0501L15.1026 23.0757C14.9081 22.9699 14.7954 22.8606 14.7413 22.7336C14.6873 22.607 14.6938 22.4681 14.7255 22.309C14.7441 22.2149 14.7715 22.1133 14.8017 22.0012C14.8746 21.7309 14.964 21.3995 14.9874 20.9652ZM15.0951 23.0046L15.1714 22.5768L15.1719 22.5754C15.193 22.5015 15.2144 22.444 15.2368 22.4004C15.2591 22.357 15.2832 22.3255 15.3106 22.3056C15.339 22.2851 15.3692 22.2782 15.4 22.2813C15.4298 22.2844 15.4589 22.2967 15.4868 22.312C15.5143 22.3271 15.5429 22.3465 15.5718 22.366L15.5735 22.3672C15.6034 22.3875 15.6341 22.4082 15.6667 22.4268C15.7254 22.4604 15.7884 22.4859 15.8587 22.4878C15.8732 22.3855 15.8422 22.2897 15.7816 22.1914C15.7174 22.0873 15.6219 21.9835 15.5167 21.8692C15.5144 21.8666 15.512 21.864 15.5097 21.8615C15.3309 21.6671 15.1282 21.4446 15.0315 21.152C14.9958 21.5059 14.9191 21.7904 14.8564 22.0233C14.8268 22.1332 14.8003 22.2316 14.7827 22.3203C14.7518 22.4758 14.7479 22.6005 14.795 22.7108C14.8388 22.8137 14.9291 22.9088 15.0951 23.0046ZM23.772 21.8222C23.983 21.5882 24.2143 21.3275 24.2711 20.9622L24.329 20.9652C24.3531 21.4108 24.451 21.7463 24.5305 22.0186C24.5604 22.1212 24.5878 22.2148 24.6075 22.302C24.6433 22.4598 24.6543 22.5983 24.6036 22.7259C24.5527 22.8539 24.4421 22.9655 24.2476 23.0755L24.2041 23.1001V23.0371L24.0885 22.5914C24.0885 22.5913 24.0885 22.5912 24.0884 22.5911C24.0679 22.5193 24.0477 22.4659 24.0278 22.427C24.0077 22.3879 23.9888 22.3652 23.9718 22.3528C23.9557 22.341 23.9401 22.3376 23.9233 22.3394C23.9053 22.3412 23.8846 22.3492 23.86 22.363C23.8354 22.3768 23.8093 22.3949 23.78 22.4153L23.7788 22.4162C23.7503 22.436 23.7192 22.4576 23.6861 22.4772C23.6188 22.5171 23.54 22.5504 23.4484 22.5459L23.4259 22.5447L23.4213 22.5226C23.3943 22.3922 23.431 22.2742 23.4991 22.1611C23.5651 22.0516 23.6623 21.9438 23.764 21.831L23.772 21.8222ZM24.2556 23.0033C24.4205 22.9041 24.5084 22.8076 24.5494 22.7044C24.5934 22.5935 24.5857 22.4695 24.5506 22.3148C24.5319 22.2323 24.5054 22.1415 24.4761 22.0409C24.4074 21.8058 24.3231 21.5167 24.2853 21.1522C24.1897 21.4445 23.9906 21.6669 23.8153 21.8613L23.8096 21.8675C23.706 21.9824 23.6121 22.0866 23.5491 22.1912C23.4899 22.2894 23.4598 22.3853 23.4744 22.4878C23.5403 22.4856 23.6 22.4604 23.6564 22.4271C23.6877 22.4085 23.7172 22.388 23.7461 22.3678L23.7467 22.3674C23.7754 22.3474 23.804 22.3275 23.8315 22.3121C23.8589 22.2968 23.8877 22.2844 23.9173 22.2813C23.948 22.2781 23.978 22.2851 24.0061 22.3057C24.0334 22.3255 24.0574 22.357 24.0797 22.4004C24.102 22.444 24.1235 22.5015 24.1446 22.5754L24.1448 22.5761L24.2556 23.0033Z" fill="black"/>
<path d="M15.5835 23.6167L15.6668 23.6834L15.4835 23.8834C15.4001 23.9667 15.3918 24.0167 15.4418 24.0667C15.5001 24.1251 15.5501 24.1001 15.6085 24.0334L15.8168 23.8167L15.8835 23.8834L15.6835 24.1167C15.5751 24.2417 15.4751 24.2167 15.3835 24.1334C15.3168 24.0667 15.2668 23.9667 15.3835 23.8417L15.5835 23.6167ZM15.9168 23.9001L16.0001 23.9501L15.9835 24.3501L16.1668 24.0667L16.2501 24.1167L15.9835 24.5501L15.8835 24.5001L15.9001 24.1001L15.7168 24.3834L15.6335 24.3334L15.9168 23.9001ZM16.0668 24.6001L16.3001 24.1334L16.3835 24.1834L16.1668 24.6334L16.0668 24.6001ZM16.4335 24.2001L16.2501 24.6834L16.4335 24.7501C16.6001 24.8084 16.6835 24.7334 16.7335 24.5917C16.7918 24.4417 16.7668 24.3417 16.6001 24.2667L16.4335 24.2001ZM16.5001 24.3167C16.6668 24.3751 16.6835 24.4417 16.6335 24.5667C16.5835 24.6751 16.5501 24.7167 16.3835 24.6334L16.5001 24.3167ZM16.9835 24.3834L16.6835 24.8334L16.8001 24.8667L16.8668 24.7501L17.0668 24.8001L17.0835 24.9167L17.2001 24.9334L17.0835 24.4001L16.9835 24.3834ZM17.0168 24.5001L17.0501 24.7001L16.9168 24.6834L17.0168 24.5001ZM17.2668 24.4251L17.2501 24.9417H17.4418C17.6251 24.9501 17.6751 24.8584 17.6835 24.6917C17.6835 24.5417 17.6251 24.4417 17.4418 24.4417L17.2668 24.4251ZM17.3668 24.5084C17.5501 24.5167 17.5751 24.5751 17.5751 24.7001C17.5668 24.8251 17.5418 24.8751 17.3585 24.8501V24.5167L17.3668 24.5084ZM19.0168 25.1501V25.6834H19.1335V25.4834C19.1335 25.4834 19.2335 25.4834 19.3168 25.4667C19.3751 25.4501 19.4251 25.4084 19.4251 25.3001C19.4251 25.2001 19.3668 25.1501 19.2668 25.1501H19.0168ZM19.1335 25.2334H19.2501C19.3418 25.2334 19.3335 25.3834 19.2501 25.3834H19.1335V25.2334ZM19.6168 25.1501L19.4001 25.6834H19.5168L19.5668 25.5501H19.7835L19.8335 25.6834H19.9501L19.7335 25.1501H19.6168ZM19.6668 25.2667L19.7501 25.4667H19.6001L19.6668 25.2667ZM19.9501 25.5834L20.2335 25.2334H19.9835V25.1501H20.3835V25.2334L20.0835 25.5834H20.3835V25.6834H19.9501V25.5834ZM21.6335 24.5501L21.7335 24.5334L21.7835 24.8334C21.8001 24.9417 21.7501 25.0084 21.6751 25.0417C21.5918 25.0751 21.4751 25.0417 21.4668 24.9001L21.5501 24.8834C21.5668 24.9667 21.6001 24.9751 21.6335 24.9667C21.6751 24.9501 21.6918 24.9001 21.6835 24.8501L21.6335 24.5501ZM21.8001 24.5167L21.8918 24.5001L21.9418 24.7501C21.9585 24.8584 21.9918 24.9001 22.0668 24.8917C22.1501 24.8751 22.1585 24.8251 22.1418 24.7251L22.0835 24.4667L22.1835 24.4501L22.2501 24.7251C22.2835 24.8917 22.2001 24.9501 22.0835 24.9751C21.9918 24.9917 21.8835 24.9751 21.8501 24.8084L21.8001 24.5167ZM22.3168 24.7501L22.4001 24.7167C22.4418 24.7917 22.5001 24.7834 22.5501 24.7667C22.6168 24.7334 22.6335 24.6751 22.5918 24.6501C22.5418 24.6251 22.4251 24.6667 22.3668 24.6501C22.2918 24.6167 22.2585 24.5667 22.2668 24.5084C22.2668 24.4251 22.3335 24.3917 22.4085 24.3667C22.4918 24.3417 22.5751 24.3501 22.6335 24.4501L22.5335 24.4834C22.5001 24.4251 22.4501 24.4334 22.4168 24.4501C22.3835 24.4667 22.3335 24.4917 22.3668 24.5334C22.3835 24.5751 22.5085 24.5501 22.5751 24.5501C22.6418 24.5501 22.6918 24.6001 22.7001 24.6584C22.7168 24.7501 22.6835 24.8001 22.5751 24.8417C22.4501 24.8917 22.3335 24.8417 22.3168 24.7501ZM22.7668 24.3334L22.6335 24.4001L22.6001 24.3167L22.9668 24.1667L23.0001 24.2334L22.8668 24.3001L23.0168 24.6667L22.9335 24.7167L22.7668 24.3334ZM22.9835 24.1501L23.0668 24.1001L23.3001 24.5334L23.2168 24.5834L22.9835 24.1501ZM23.5501 24.1834L23.6501 24.1501C23.663 24.1816 23.6676 24.2159 23.6635 24.2497C23.6594 24.2835 23.6467 24.3157 23.6267 24.3433C23.6067 24.3708 23.5799 24.3928 23.549 24.4071C23.5181 24.4214 23.4841 24.4276 23.4501 24.4251C23.2001 24.4251 23.1668 24.1417 23.2085 24.0501C23.2751 23.8917 23.4585 23.9001 23.5418 23.9834L23.4585 24.0501C23.4085 23.9834 23.2918 24.0251 23.2918 24.0834C23.2807 24.1321 23.2862 24.1831 23.3073 24.2284C23.3284 24.2736 23.364 24.3106 23.4085 24.3334C23.4918 24.3667 23.6085 24.2667 23.5501 24.1834ZM23.5001 23.8334L23.5835 23.7667L23.8835 24.1667L23.8001 24.2334L23.5001 23.8334ZM23.8168 23.5834L23.7335 23.6501L23.9168 24.1501L24.0001 24.0667L23.9501 23.9667L24.1001 23.8334L24.2001 23.8834L24.2835 23.8167L23.8168 23.5834ZM23.8501 23.7001L24.0168 23.7834L23.9168 23.8834L23.8501 23.7001Z" fill="black"/>
</g>
<defs>
<clipPath id="clip0_8424_43389">
<rect width="40" height="40" rx="20" fill="white"/>
</clipPath>
</defs>
</svg>
