<svg width="40" height="40" viewBox="0 0 40 40" fill="none" xmlns="http://www.w3.org/2000/svg">
<g clip-path="url(#clip0_8424_43362)">
<path fill-rule="evenodd" clip-rule="evenodd" d="M-3 0H50.3333V40H-3V0Z" fill="#BE0027"/>
<path fill-rule="evenodd" clip-rule="evenodd" d="M-3 40L50.3333 39.975V20L-3 40Z" fill="#B4D7F4"/>
<path fill-rule="evenodd" clip-rule="evenodd" d="M-3 0L50.3333 0.025V20L-3 0Z" fill="#239E46"/>
<path fill-rule="evenodd" clip-rule="evenodd" d="M12.5165 30.0333C11.6249 30.2833 11.1165 30.975 11.1249 31.625L15.5249 31.6083C15.5582 30.9083 14.9832 30.2583 14.1082 30C18.4082 29.9167 22.1415 28.3 22.8249 27.2667C22.1582 26.975 21.3749 27.4417 20.8249 27.3333C22.1332 26.725 26.0749 24.175 25.4332 21.4417C24.9332 22.9583 23.4332 24.2167 22.7832 24.5583C24.2582 22.325 26.2665 19.9917 24.5249 18.1917C24.6082 19.2333 23.8582 20.3833 23.5249 20.475C24.3832 18.1083 25.1915 15.1417 23.3499 13.1917C23.5915 13.9 23.4915 15.8917 23.1582 15.9833C23.0582 14.375 22.7832 11 21.0915 11.0417C21.6249 11.525 21.8582 12.825 21.8749 14.1417C21.5311 13.2304 20.9177 12.4455 20.1165 11.8917C19.2804 10.4453 18.0903 9.23525 16.6582 8.375C16.8082 9.43333 16.9332 10.2667 18.4082 11.3667C17.6415 11.3167 16.8749 9.85833 16.0499 9.81667C15.3915 9.78333 14.8832 10.4083 13.8082 10.05C13.9249 10.4 14.4249 10.5583 14.5332 10.8167C14.2999 10.9833 13.7582 10.7917 13.3082 10.5667C13.9332 11.4 14.8915 11.9 15.7082 11.7333C16.6832 11.55 17.7249 11.65 18.7249 12.2167C18.1079 12.3458 17.4728 12.3627 16.8499 12.2667C17.4249 12.85 17.8082 13.2417 18.8165 13.2333C19.7082 13.2333 20.1832 12.75 20.4082 13.05C20.9749 13.7167 21.3499 14.3833 21.8249 15.1667C20.7832 15.275 21.0999 13.9917 19.9415 13.3333C19.2832 14.6667 20.6915 16.2667 21.6332 16.9333C21.6065 17.8442 21.81 18.747 22.2249 19.5583C22.5165 20.1 22.8915 20.6583 22.7499 21.8833C22.1749 21.4667 21.6249 20.0667 21.8332 18.9583C21.1165 19.15 20.8332 20.4083 21.1665 21.0417C21.4165 21.5167 21.5832 22.4417 21.2999 22.85C21.0165 23.2333 20.9915 23.1833 20.9915 24.0167C20.9999 24.5 20.7249 25.0833 20.2832 25.4917C20.4125 25.0653 20.4439 24.6152 20.3749 24.175C20.0249 24.775 19.1332 25.3917 18.8582 26.0417C18.5832 26.6833 18.5165 27.8083 17.1915 28.0667C15.4749 28.4 14.8832 28.7 13.7915 29.15C13.6665 28.3167 14.0332 26.5667 14.7332 26.675C15.4082 26.7917 17.4832 25.9583 16.7332 24.2167C16.5915 24.7667 16.1082 25.3 15.5749 25.325C16.1499 24.5917 17.1582 23.825 16.6665 22.5917C16.3689 23.2129 15.8969 23.734 15.3082 24.0917C16.0082 22.7583 15.3915 22.3417 14.5582 23.4583C14.2415 23.8833 14.0499 24.7417 13.8499 25.8333C13.5165 24.95 13.5415 23.7833 13.1499 22.8333C12.7499 21.8083 13.6915 21.5417 14.1332 21.625C15.2165 21.9167 17.0415 21.9167 16.9082 20.1167C16.4332 20.725 15.6165 20.9083 14.7249 20.7C15.7249 19.9667 16.5082 18.5917 15.3915 17.8667C15.3416 18.2919 15.1868 18.6981 14.9409 19.0486C14.6951 19.3992 14.366 19.6832 13.9832 19.875C13.8042 19.1988 13.7957 18.4887 13.9582 17.8083C13.5249 18.275 13.2082 19.225 12.9499 20.325C12.9249 19.2417 13.1332 18.4667 13.2832 17.8833C13.5165 17.0417 14.0832 17.5917 14.9499 17.65C15.7999 17.7 16.9499 17.2333 16.7332 16.0917C16.4499 16.55 15.8582 16.725 15.2582 16.675C15.9832 16.2333 17.2415 15.4583 16.5499 14.2583C16.2582 14.7083 16.1665 15.0917 15.3249 15.2333C15.5415 14.7333 15.5749 14.0083 16.2415 13.7333C15.0749 13.4917 14.4082 14.2583 14.0582 15.4583C13.9249 14.625 13.7582 14.325 13.7249 13.7083C14.3582 13.0167 14.4249 11.6417 13.0582 11.3417C12.9686 11.8257 13.003 12.3245 13.1582 12.7917C12.5165 12.4083 11.6165 12.2 11.0082 12.7333C11.4249 13.175 12.0499 13.5667 13.0249 13.0833C12.7915 13.8333 12.1915 13.7083 11.3749 13.4167C11.8749 14.3583 12.5082 14.525 13.2082 14.4167C13.5749 15.3833 13.5915 16.1167 12.5165 17.5167C12.5665 16.65 12.5082 16 11.8165 15.2917C11.2165 14.7083 10.7332 15.3167 11.6665 16.6083C11.0999 16.1917 10.4665 15.3583 10.2749 14.5167C10.0915 15.55 10.2582 16.775 10.8332 17.4667C10.5582 17.7583 10.2499 17.4333 9.79154 16.7167C9.9582 19 10.9332 19.4417 12.2415 18.9333C12.2749 20.1833 12.2749 21.3417 12.3499 22.85C11.5915 21.75 10.6249 20.9333 10.0915 20.7333C9.92487 21.3417 10.5499 22.15 10.9082 22.5917C10.3665 22.475 9.19987 21.5917 9.19987 21.5917C9.0832 22.6 10.3915 23.5417 11.2415 23.9583C10.2415 23.9167 9.79987 23.5417 9.1582 22.925C9.17487 25.7417 12.2082 25.25 12.7832 24.8167L13.0332 29.1917C12.1749 29.0417 12.2415 28.775 11.5082 28.7167C9.46654 28.6333 7.84987 26.2667 7.31654 24.525C7.1582 24.8083 7.2832 25.1083 7.14154 25.4667C6.8082 24.6083 6.39154 23.5 5.81654 22.9833C5.96654 23.4833 5.9832 23.9917 5.9332 24.925C5.7332 24.325 5.5582 24.1333 5.54154 23.425C5.54987 22.8833 6.06654 22.4833 6.04154 21.7167C6.01654 21.1583 5.5082 19.9417 5.4332 19.0083C5.1832 19.975 5.0332 20.9917 4.64987 21.5917C4.84154 20.5583 4.7832 19.8417 5.09987 19.15C5.46654 18.425 5.77487 17.7667 5.5332 17.0333C5.29987 17.3167 5.37487 17.575 4.7832 18.2667C4.6582 17.5167 5.54987 16.3083 6.41654 15.825C7.02487 15.5083 7.79154 14.3583 7.29154 13.575C6.71654 13.9917 6.4582 14.5417 5.64987 15.4917C6.2332 13.2417 7.7332 12.6417 9.52487 12.6333C9.91654 12.6333 10.7165 12.4917 10.9415 11.9667C10.4415 12.1583 9.84154 12.1833 9.3082 12.0833C9.69987 11.5083 10.5082 11.5833 11.2749 11.5833C11.8665 11.5833 12.7999 11.5 13.1749 10.65C12.3514 10.9712 11.4481 11.0265 10.5915 10.8083C11.7332 10.225 13.5082 10.1583 14.4249 9.38333C13.3832 8.60833 10.7832 9.56667 9.14154 10.6917C9.59987 10.275 10.3249 9.525 10.7249 8.925C9.82487 8.49167 7.5582 11.0083 6.77487 12.5083C6.02487 12.925 5.7332 13.5917 5.44154 14.05C5.8332 12.7083 5.87487 11.7333 6.2082 10.6333C3.66654 11.5 4.71654 16.2167 4.16654 17.35C4.2332 16.1 4.17487 14.5083 3.66654 13.6833C2.8832 14.2833 2.81654 17.8083 3.54987 20.7417C3.2832 19.9583 2.7832 19.225 2.62487 18.2667C1.4582 20.3833 3.3082 22.8917 4.84987 24.8667C3.6832 24.2583 2.54154 22.9583 1.7832 21.8667C1.99154 25.6667 5.94987 26.45 6.56654 27.3833C5.7332 26.9917 4.14154 26.225 3.4582 27.0333C4.40752 27.2094 5.31856 27.5506 6.14987 28.0417C7.1832 29.325 9.12487 29.8917 12.5165 30.0333Z" fill="#F3E295"/>
</g>
<defs>
<clipPath id="clip0_8424_43362">
<rect width="40" height="40" rx="20" fill="white"/>
</clipPath>
</defs>
</svg>
