<svg width="40" height="40" viewBox="0 0 40 40" fill="none" xmlns="http://www.w3.org/2000/svg">
<g clip-path="url(#clip0_8424_43269)">
<path d="M-7 0H46.3333V40H-7V0Z" fill="#3E5EB9"/>
<path d="M-7 7.5H46.3333V32.5H-7V7.5Z" fill="#FFD900"/>
<path d="M-7 10H46.3333V30H-7V10Z" fill="#B10C0C"/>
<path d="M38.6898 15.4299L36.2598 16.2899L38.6798 17.1399L41.1098 16.2899L38.6898 15.4299Z" fill="white"/>
<path fill-rule="evenodd" clip-rule="evenodd" d="M38.6898 15.377L41.2601 16.2904L38.6797 17.193L36.1094 16.2902L38.6898 15.377ZM36.4101 16.2898L38.6798 17.087L40.9594 16.2896L38.6897 15.4831L36.4101 16.2898Z" fill="black"/>
<path d="M37.0797 16H1.98969C1.81848 16 1.67969 16.1276 1.67969 16.285C1.67969 16.4424 1.81848 16.57 1.98969 16.57H37.0797C37.2509 16.57 37.3897 16.4424 37.3897 16.285C37.3897 16.1276 37.2509 16 37.0797 16Z" fill="#FFD900"/>
<path fill-rule="evenodd" clip-rule="evenodd" d="M1.98988 16.05C1.84225 16.05 1.72988 16.159 1.72988 16.285C1.72988 16.4109 1.84225 16.52 1.98988 16.52H37.0799C37.2275 16.52 37.3399 16.4109 37.3399 16.285C37.3399 16.159 37.2275 16.05 37.0799 16.05H1.98988ZM1.62988 16.285C1.62988 16.0961 1.7951 15.95 1.98988 15.95H37.0799C37.2747 15.95 37.4399 16.0961 37.4399 16.285C37.4399 16.4738 37.2747 16.62 37.0799 16.62H1.98988C1.7951 16.62 1.62988 16.4738 1.62988 16.285Z" fill="black"/>
<path d="M36.5397 16.57C36.6142 16.5677 36.6852 16.5377 36.7388 16.486C36.7924 16.4342 36.8248 16.3644 36.8297 16.29C36.8272 16.2139 36.7959 16.1416 36.742 16.0877C36.6882 16.0339 36.6158 16.0025 36.5397 16M36.2597 16.57C36.3324 16.5653 36.401 16.5343 36.4525 16.4828C36.504 16.4312 36.535 16.3627 36.5397 16.29C36.5374 16.2155 36.5074 16.1446 36.4557 16.091C36.4039 16.0374 36.3341 16.0049 36.2597 16M35.9697 16.57C36.0442 16.5677 36.1152 16.5377 36.1688 16.486C36.2224 16.4342 36.2548 16.3644 36.2597 16.29C36.2572 16.2139 36.2259 16.1416 36.172 16.0877C36.1182 16.0339 36.0458 16.0025 35.9697 16" fill="#FFD900"/>
<path fill-rule="evenodd" clip-rule="evenodd" d="M35.9711 15.95C36.0599 15.9529 36.1442 15.9894 36.2071 16.0523C36.2699 16.1151 36.3065 16.1995 36.3094 16.2883L36.3095 16.2908L36.3093 16.2932C36.3035 16.38 36.2657 16.4615 36.2032 16.5219C36.1406 16.5822 36.0579 16.6172 35.971 16.6199L35.9679 16.5199C36.0299 16.518 36.089 16.4931 36.1337 16.4499C36.1778 16.4074 36.2047 16.3501 36.2093 16.2891C36.2067 16.2266 36.1806 16.1673 36.1363 16.123C36.0915 16.0781 36.0312 16.052 35.9678 16.0499L35.9711 15.95ZM36.5411 15.95C36.6299 15.9529 36.7142 15.9894 36.7771 16.0523C36.8399 16.1151 36.8765 16.1995 36.8794 16.2883L36.8795 16.2908L36.8793 16.2932C36.8735 16.38 36.8357 16.4615 36.7732 16.5219C36.7106 16.5822 36.6279 16.6172 36.541 16.6199L36.5379 16.5199C36.5999 16.518 36.659 16.4931 36.7037 16.4499C36.7478 16.4074 36.7747 16.3501 36.7793 16.2891C36.7767 16.2266 36.7506 16.1673 36.7064 16.123C36.6615 16.0781 36.6012 16.052 36.5378 16.0499L36.5411 15.95ZM36.2627 15.95C36.3495 15.9558 36.431 15.9936 36.4913 16.0562C36.5517 16.1187 36.5867 16.2015 36.5894 16.2884L36.5895 16.2908L36.5893 16.2932C36.5838 16.378 36.5476 16.4579 36.4875 16.518C36.4274 16.5781 36.3475 16.6143 36.2626 16.6198L36.2562 16.52C36.3168 16.5161 36.3739 16.4903 36.4168 16.4473C36.4592 16.405 36.4849 16.3488 36.4893 16.2891C36.4869 16.2279 36.462 16.1697 36.4194 16.1256C36.3763 16.0809 36.3181 16.0539 36.2561 16.0498L36.2627 15.95Z" fill="black"/>
<path d="M43.5299 19.5696H-4.20012C-4.43208 19.5696 -4.62012 19.7621 -4.62012 19.9996C-4.62012 20.2371 -4.43208 20.4296 -4.20012 20.4296H43.5299C43.7618 20.4296 43.9499 20.2371 43.9499 19.9996C43.9499 19.7621 43.7618 19.5696 43.5299 19.5696Z" fill="#FFD900"/>
<path fill-rule="evenodd" clip-rule="evenodd" d="M-4.1998 19.6249C-4.40018 19.6249 -4.5648 19.7916 -4.5648 19.9999C-4.5648 20.2082 -4.40018 20.3749 -4.1998 20.3749H43.5302C43.7306 20.3749 43.8952 20.2082 43.8952 19.9999C43.8952 19.7916 43.7306 19.6249 43.5302 19.6249H-4.1998ZM-4.6748 19.9999C-4.6748 19.7333 -4.46335 19.5149 -4.1998 19.5149H43.5302C43.7937 19.5149 44.0052 19.7333 44.0052 19.9999C44.0052 20.2665 43.7937 20.4849 43.5302 20.4849H-4.1998C-4.46335 20.4849 -4.6748 20.2665 -4.6748 19.9999Z" fill="black"/>
<path d="M33.6839 20.0008C30.8255 22.8591 27.0172 28.5758 19.4005 28.5758C12.7339 28.5758 7.97552 22.8591 5.11719 20.0008C7.96719 17.1424 12.7339 11.4258 19.4005 11.4258C27.0172 11.4258 30.8255 17.1424 33.6839 20.0008Z" fill="white"/>
<path fill-rule="evenodd" clip-rule="evenodd" d="M5.18717 19.9999C5.47629 20.2898 5.78429 20.6079 6.11125 20.9456C7.39885 22.2753 8.98042 23.9086 10.8601 25.3194C13.2356 27.1023 16.0815 28.525 19.3999 28.525C25.8123 28.525 29.5125 24.4619 32.2355 21.4719C32.7225 20.9372 33.1782 20.4367 33.6126 20C33.1782 19.5633 32.7225 19.0628 32.2355 18.5281C29.5125 15.5381 25.8123 11.475 19.3999 11.475C16.0814 11.475 13.2335 12.8977 10.857 14.6806C8.96666 16.0988 7.37819 17.7418 6.08902 19.0753C5.7701 19.4051 5.4695 19.7161 5.18717 19.9999ZM33.6832 20L33.7186 19.9646C33.2779 19.524 32.8139 19.0141 32.3159 18.4671C29.5944 15.4771 25.8608 11.375 19.3999 11.375C16.0517 11.375 13.1829 12.8106 10.797 14.6006C8.89956 16.0241 7.30385 17.6747 6.01448 19.0084C5.68311 19.3512 5.37198 19.673 5.08115 19.9647L5.0459 20.0001L5.0812 20.0354C5.37874 20.3329 5.69723 20.6618 6.03663 21.0123C7.32449 22.3424 8.91335 23.9833 10.8001 25.3994C13.185 27.1894 16.0517 28.625 19.3999 28.625C25.8608 28.625 29.5944 24.5229 32.3159 21.5329C32.8138 20.9859 33.2779 20.476 33.7186 20.0354L33.6832 20Z" fill="black"/>
<path d="M18.4005 14.4174C19.1672 15.2674 18.5255 15.6091 19.3339 15.6674C20.1839 15.7258 19.7005 16.5674 20.4172 16.6008C20.9172 16.6174 20.3672 18.6174 20.8422 19.2674C21.3339 19.9591 21.7422 19.4758 21.7589 19.9674C21.7589 20.4841 20.4255 20.4258 20.4005 22.0091C20.3589 22.9174 19.2672 22.9758 19.2172 23.5591C19.1505 24.1091 21.3672 24.4174 21.3339 24.9091C21.3089 25.4091 18.9422 25.3258 18.8339 25.8841C18.7839 26.3841 22.0839 26.8008 22.3505 28.2591C21.8505 28.4258 20.4589 28.5674 19.4005 28.5758C12.7339 28.5758 7.97552 22.8591 5.11719 19.9924C7.97552 17.1424 12.7339 11.4258 19.4005 11.4258C19.4005 11.4258 17.4255 13.2341 18.4005 14.4091V14.4174Z" fill="black"/>
<path d="M10.7998 19.2392V16.9492V19.2392ZM12.1798 16.9492V19.2392V16.9492ZM13.5598 16.9492V19.2392V16.9492Z" fill="black"/>
<path fill-rule="evenodd" clip-rule="evenodd" d="M11.1451 16.9492V19.2392H10.4551V16.9492H11.1451ZM11.8351 19.2392V16.9492H12.5251V19.2392H11.8351ZM13.2151 19.2392V16.9492H13.9051V19.2392H13.2151Z" fill="white"/>
<path d="M40.533 19.6663C40.0997 20.408 40.8663 19.4163 42.733 20.6663C42.9228 20.8231 43.0784 21.0171 43.1902 21.2364C43.302 21.4557 43.3676 21.6956 43.383 21.9413C43.2997 21.883 43.2247 21.7496 43.133 21.6746C42.9997 21.808 43.2663 22.4246 43.2997 22.7163C43.008 22.5496 43.033 22.483 42.9413 22.283C42.958 22.5163 42.883 23.183 43.008 23.4496C42.7747 23.383 42.7913 23.1996 42.6747 23.158C42.758 23.4496 42.5997 23.758 42.6413 24.0913C42.508 23.958 42.358 23.8496 42.2997 23.7996C42.283 23.9663 42.0413 24.3663 42.033 24.5163C41.9895 24.4884 41.9522 24.4517 41.9235 24.4087C41.8949 24.3657 41.8754 24.3172 41.8663 24.2663C41.6019 24.5816 41.3779 24.9287 41.1997 25.2996C40.808 24.9663 39.8163 24.133 39.683 23.683C39.5663 23.933 39.3997 24.0163 39.083 24.1996C38.9497 23.4996 38.458 22.7163 38.7163 22.108C38.5412 22.2162 38.3716 22.333 38.208 22.458C38.3571 21.8439 38.6449 21.2723 39.0494 20.7869C39.4539 20.3015 39.9643 19.9153 40.5413 19.658L40.533 19.6663Z" fill="#333333"/>
<path fill-rule="evenodd" clip-rule="evenodd" d="M40.4361 19.7536C39.9149 20.0069 39.4529 20.3683 39.0813 20.8143C38.7061 21.2645 38.4323 21.7897 38.2779 22.3542C38.4129 22.2551 38.5518 22.1613 38.6943 22.0732L38.8058 22.0043L38.7546 22.1249C38.6316 22.4146 38.6856 22.7498 38.7926 23.1082C38.8303 23.2343 38.8739 23.3614 38.9177 23.4895C38.9361 23.543 38.9545 23.5967 38.9725 23.6505C39.0269 23.8128 39.0778 23.9756 39.1122 24.1353C39.1143 24.1341 39.1165 24.1328 39.1186 24.1316C39.4003 23.9692 39.5418 23.8876 39.6452 23.666L39.6916 23.5664L39.7229 23.6718C39.7538 23.7761 39.8364 23.9073 39.9535 24.0531C40.0699 24.1979 40.2173 24.3534 40.3735 24.5059C40.6651 24.7908 40.9849 25.0631 41.1857 25.2338C41.3614 24.878 41.5792 24.5444 41.8343 24.2402L41.8917 24.1719L41.9073 24.2597C41.9153 24.305 41.9326 24.3481 41.9581 24.3863C41.9717 24.4066 41.9874 24.4254 42.005 24.4422C42.0132 24.4132 42.0244 24.3819 42.037 24.3499C42.0615 24.2875 42.0935 24.2172 42.1252 24.1476L42.1255 24.1469C42.1573 24.0771 42.1887 24.0081 42.2133 23.9461C42.2384 23.883 42.2546 23.8315 42.2581 23.7962L42.2661 23.7167L42.3267 23.7687C42.3409 23.7809 42.3622 23.7977 42.3882 23.8183C42.4423 23.8611 42.5171 23.9203 42.5926 23.9885C42.5909 23.8677 42.6092 23.7511 42.6265 23.641C42.6285 23.6284 42.6304 23.6158 42.6324 23.6033C42.6564 23.4476 42.6734 23.3061 42.6345 23.1701L42.6122 23.0922L42.6886 23.1194C42.7281 23.1335 42.7549 23.1594 42.7761 23.1871C42.7888 23.2036 42.8016 23.224 42.8138 23.2433C42.8201 23.2534 42.8263 23.2632 42.8322 23.272C42.8571 23.3094 42.8871 23.3468 42.9375 23.3762C42.9226 23.3207 42.9125 23.2582 42.9057 23.1927C42.8946 23.0868 42.8918 22.9695 42.8923 22.8543C42.8927 22.7601 42.8954 22.6666 42.8979 22.5815C42.8984 22.5625 42.899 22.5439 42.8995 22.5257C42.9022 22.4257 42.9037 22.3425 42.8997 22.2866L42.9791 22.2663C42.9967 22.3046 43.0103 22.3387 43.0221 22.3684C43.0261 22.3783 43.0298 22.3876 43.0335 22.3966C43.0483 22.4329 43.0616 22.462 43.0801 22.4897C43.1091 22.5333 43.1533 22.5769 43.2436 22.6347C43.2328 22.5825 43.2177 22.5238 43.2005 22.4609C43.1898 22.4217 43.1782 22.3806 43.1664 22.339C43.1483 22.2752 43.1298 22.21 43.1134 22.1473C43.0862 22.0433 43.0636 21.9417 43.0565 21.8568C43.0529 21.8143 43.0531 21.7742 43.0594 21.7391C43.0657 21.7041 43.0786 21.6707 43.1034 21.6459L43.1301 21.6192L43.1593 21.6431C43.2067 21.6819 43.2494 21.7344 43.2876 21.7816C43.2896 21.7839 43.2915 21.7863 43.2934 21.7886C43.3064 21.8046 43.3188 21.8198 43.3309 21.8339C43.3054 21.6327 43.2453 21.4372 43.1529 21.256C43.0441 21.0424 42.8926 20.8534 42.708 20.7004C41.7831 20.0816 41.1336 20.0191 40.7703 20.018C40.7245 20.0179 40.6831 20.0188 40.6458 20.0196C40.6408 20.0198 40.6359 20.0199 40.631 20.02C40.5998 20.0208 40.5714 20.0214 40.5463 20.0214C40.5175 20.0214 40.4913 20.0204 40.4689 20.017C40.4472 20.0137 40.4243 20.0075 40.4059 19.9934C40.3853 19.9775 40.3749 19.9551 40.3735 19.9299C40.3722 19.9071 40.3782 19.8825 40.3873 19.8574C40.3977 19.8289 40.4141 19.7946 40.4361 19.7536ZM40.5662 19.6926L40.5707 19.6881L40.5243 19.6206C39.9414 19.8805 39.4258 20.2706 39.0173 20.7609C38.6087 21.2512 38.318 21.8286 38.1674 22.4488L38.1396 22.5632L38.2332 22.4918C38.3643 22.3917 38.4993 22.2968 38.6378 22.2074C38.558 22.4966 38.6179 22.8144 38.7128 23.132C38.7509 23.2598 38.7954 23.3895 38.8395 23.5182C38.8577 23.5714 38.8759 23.6243 38.8935 23.677C38.9542 23.858 39.0092 24.036 39.042 24.2081L39.053 24.2658L39.1038 24.2364C39.1253 24.224 39.1461 24.2119 39.1664 24.2003C39.4086 24.0608 39.5648 23.971 39.677 23.7838C39.7231 23.8831 39.7979 23.9925 39.8886 24.1053C40.0079 24.2538 40.1579 24.4118 40.3153 24.5656C40.6119 24.8553 40.9373 25.132 41.1374 25.3022C41.1496 25.3125 41.1613 25.3225 41.1726 25.3321L41.2137 25.3671L41.2371 25.3184C41.4025 24.9743 41.6075 24.6509 41.848 24.3546C41.8588 24.3819 41.8724 24.408 41.8888 24.4325C41.9206 24.4803 41.9621 24.521 42.0104 24.5521L42.0705 24.5907L42.0745 24.5193C42.0762 24.4892 42.0904 24.4418 42.1145 24.3804C42.1381 24.3204 42.1691 24.2522 42.201 24.1822L42.2019 24.1803C42.2333 24.1114 42.2654 24.0407 42.2908 23.9769C42.3047 23.9418 42.3171 23.9075 42.3263 23.8757C42.3313 23.8797 42.3365 23.8838 42.3418 23.888C42.4146 23.9456 42.5165 24.0261 42.6118 24.1215L42.6976 24.2073L42.6826 24.0868C42.6642 23.9395 42.6864 23.797 42.7091 23.6523C42.711 23.6403 42.7128 23.6282 42.7147 23.6161C42.7318 23.5051 42.7472 23.3921 42.7382 23.2797C42.7387 23.2805 42.7392 23.2814 42.7398 23.2823C42.7465 23.293 42.7539 23.3048 42.7628 23.3182C42.8058 23.3828 42.8672 23.4535 42.9965 23.4904L43.0845 23.5155L43.0456 23.4326C43.0174 23.3724 42.9992 23.2862 42.9885 23.184C42.978 23.0826 42.9751 22.9686 42.9756 22.8547C42.976 22.7616 42.9787 22.6694 42.9812 22.5843C42.9817 22.5651 42.9823 22.5464 42.9828 22.528C42.9831 22.515 42.9835 22.5021 42.9838 22.4895C42.9917 22.5052 43.0005 22.5206 43.0107 22.5359C43.0578 22.6065 43.1311 22.6687 43.2789 22.7532L43.3503 22.794L43.341 22.7123C43.3322 22.6358 43.3085 22.5398 43.2809 22.4389C43.2697 22.398 43.2579 22.3564 43.2461 22.3146C43.2283 22.2518 43.2103 22.1885 43.1941 22.1263C43.1671 22.023 43.146 21.9272 43.1395 21.8499C43.1363 21.8112 43.1369 21.779 43.1414 21.7537C43.1422 21.7497 43.143 21.7458 43.1439 21.7423C43.171 21.7702 43.1975 21.8028 43.2252 21.8369L43.2287 21.8412C43.2683 21.89 43.3116 21.943 43.359 21.9761L43.4299 22.0258L43.4245 21.9394C43.4087 21.688 43.3416 21.4426 43.2272 21.2182C43.1128 20.9938 42.9536 20.7953 42.7594 20.6349L42.7578 20.6335L42.7561 20.6324C41.8152 20.0023 41.1486 19.9358 40.7705 19.9347C40.7236 19.9346 40.6813 19.9354 40.6439 19.9363C40.6387 19.9365 40.6337 19.9366 40.6288 19.9367C40.5975 19.9374 40.5703 19.9381 40.5464 19.9381C40.5187 19.938 40.4974 19.937 40.4814 19.9346C40.4653 19.9322 40.4589 19.9289 40.4569 19.9275C40.4568 19.927 40.4567 19.9263 40.4567 19.9252C40.4563 19.9191 40.4579 19.9071 40.4656 19.8859C40.4807 19.8444 40.5133 19.7833 40.5662 19.6926Z" fill="black"/>
<path d="M38.917 23.3745C39.1003 23.0162 39.267 22.8995 39.3837 22.6662C39.5837 22.2662 39.617 21.9328 39.8003 21.9828C39.967 22.0328 39.967 22.1995 39.742 22.5995C39.517 22.9995 39.4087 23.0828 38.917 23.3745ZM40.1337 24.2245C40.117 23.9578 40.192 23.8412 40.1837 23.6662C40.1503 23.3495 40.0253 23.1412 40.192 23.1245C40.3587 23.1162 40.4337 23.2162 40.4337 23.5245C40.4337 23.8412 40.3837 23.9245 40.1337 24.2245ZM41.0587 24.7578C40.9837 24.3828 41.042 24.2162 40.992 23.9662C40.9087 23.5328 40.7503 23.2495 40.9087 23.2078C41.0587 23.1662 41.1587 23.3078 41.217 23.7495C41.267 24.1828 41.242 24.3078 41.0587 24.7662V24.7578ZM42.017 22.0912C41.792 21.9245 41.6587 21.9078 41.517 21.7995C41.267 21.5995 41.1337 21.3995 41.0503 21.4995C40.967 21.5995 41.0253 21.7162 41.3003 21.8912C41.5753 22.0662 41.6503 22.0828 42.017 22.0912ZM41.8587 23.3578C41.742 23.1078 41.6087 23.0495 41.542 22.8912C41.4087 22.6078 41.4087 22.3662 41.2503 22.4245C41.1087 22.4912 41.092 22.6162 41.2503 22.8912C41.417 23.1578 41.5003 23.2078 41.8503 23.3578H41.8587Z" fill="#B3B3B3"/>
<path d="M-2.51738 20.3828C-2.55072 20.1661 -2.50072 20.1328 -2.63405 19.9661C-2.43405 20.0495 -2.43405 20.2745 -2.19238 20.1161C-2.10905 20.0745 -2.06738 20.0745 -2.17572 19.8245C-1.92572 19.8411 -1.11738 20.1161 -0.98405 20.1245C-0.642383 20.1411 -0.0173826 19.7661 0.415951 20.2245C0.832617 20.6411 0.682617 21.0828 0.682617 21.6578C0.51595 21.5745 0.599284 21.5495 0.415951 21.3328C0.549284 21.8495 0.415951 22.7578 0.415951 23.2995C0.349284 23.1661 0.357617 23.2245 0.290951 23.0911C0.124284 23.5828 -0.0923824 23.6745 -0.0923824 24.2661C-0.15905 24.0328 -0.0923829 24.0828 -0.167383 23.9661C-0.334049 24.3411 -1.50072 24.6578 -1.05072 25.0328C-1.45072 24.7995 -1.63405 24.8161 -1.80072 24.6161C-1.88405 24.6578 -1.95072 24.7578 -2.01738 24.8828C-2.72572 24.5661 -2.47572 23.8661 -3.02572 23.3911C-3.12572 23.5911 -3.08405 23.5661 -3.19238 23.8828C-3.29238 23.4411 -3.32572 23.1578 -3.45072 22.8328C-3.55905 23.0161 -3.55072 22.9411 -3.75072 23.2161C-3.83405 22.6828 -3.95905 22.5495 -3.91738 22.1911C-4.11738 22.3411 -3.98405 22.2745 -4.19238 22.4578C-3.99238 21.0828 -3.14238 20.0578 -2.52572 20.3745L-2.51738 20.3828Z" fill="#333333"/>
<path fill-rule="evenodd" clip-rule="evenodd" d="M-2.26014 19.7646L-2.17152 19.7706C-2.1036 19.7751 -2.00188 19.7966 -1.88907 19.8248C-1.77506 19.8533 -1.64564 19.8897 -1.52058 19.9257C-1.48249 19.9366 -1.44484 19.9475 -1.40813 19.9581C-1.32391 19.9825 -1.24463 20.0055 -1.17632 20.0243C-1.12733 20.0379 -1.08461 20.0492 -1.05024 20.0573C-1.01505 20.0656 -0.992049 20.0697 -0.980415 20.0705C-0.903577 20.0742 -0.807634 20.0558 -0.693458 20.03C-0.674599 20.0257 -0.655305 20.0213 -0.635637 20.0167C-0.538781 19.9944 -0.432852 19.9699 -0.325125 19.9553C-0.0643682 19.9199 0.221492 19.9399 0.455378 20.1868C0.67449 20.4062 0.744974 20.6341 0.760184 20.8785C0.767702 20.9994 0.761754 21.1245 0.754206 21.2532C0.753248 21.2695 0.752264 21.2859 0.751276 21.3024C0.744427 21.4165 0.737372 21.5341 0.737372 21.6579V21.7456L0.658981 21.7064C0.615178 21.6845 0.583832 21.6645 0.559832 21.6419C0.538391 21.6216 0.524846 21.6011 0.513412 21.5804C0.536145 21.8023 0.532351 22.0571 0.520648 22.3094C0.514295 22.4464 0.505639 22.5825 0.497318 22.7133C0.483555 22.9296 0.470706 23.1316 0.470706 23.2996L0.368091 23.3238C0.337108 23.2619 0.324253 23.2454 0.312244 23.2299L0.311282 23.2287C0.308467 23.2251 0.305663 23.2215 0.302783 23.2176C0.253645 23.3413 0.201747 23.4402 0.154748 23.5298C0.130248 23.5765 0.107079 23.6206 0.0863247 23.6645C0.0145903 23.8159 -0.0376272 23.9788 -0.0376272 24.2663L-0.143877 24.2812C-0.174942 24.1724 -0.178654 24.1206 -0.179914 24.0861C-0.238466 24.1566 -0.320724 24.222 -0.407291 24.2827C-0.471349 24.3277 -0.540631 24.372 -0.60919 24.4154C-0.61741 24.4207 -0.625618 24.4258 -0.633806 24.431C-0.694283 24.4693 -0.753708 24.5069 -0.809412 24.5445C-0.938535 24.6316 -1.0364 24.7116 -1.07796 24.787C-1.0975 24.8224 -1.10249 24.8531 -1.09553 24.8822C-1.08832 24.9123 -1.06628 24.949 -1.01545 24.9913L-1.07742 25.0797C-1.24068 24.9845 -1.36625 24.9321 -1.47198 24.888C-1.4934 24.879 -1.51402 24.8704 -1.53397 24.8619C-1.63946 24.8167 -1.72753 24.7724 -1.80986 24.6866C-1.83025 24.7027 -1.8508 24.7242 -1.87185 24.7515C-1.9045 24.7937 -1.93617 24.8469 -1.969 24.9084L-1.99278 24.953L-2.0389 24.9324C-2.41399 24.7647 -2.53525 24.4924 -2.63153 24.2142C-2.64188 24.1843 -2.65194 24.1544 -2.66197 24.1246C-2.73884 23.896 -2.81411 23.6723 -3.00796 23.4808C-3.03217 23.5345 -3.04221 23.567 -3.05301 23.6074C-3.05537 23.6162 -3.05777 23.6254 -3.06033 23.6352C-3.07461 23.69 -3.09401 23.7645 -3.14054 23.9005L-3.20241 24.0813L-3.24462 23.8949C-3.27462 23.7624 -3.29851 23.6451 -3.32046 23.5373C-3.36472 23.3198 -3.40113 23.141 -3.46397 22.9543C-3.486 22.9844 -3.50438 23.0042 -3.5264 23.0275L-3.52894 23.0301C-3.56384 23.067 -3.6103 23.1161 -3.70632 23.2481L-3.78341 23.3541L-3.80365 23.2246C-3.8361 23.0169 -3.87469 22.8718 -3.90772 22.7476C-3.91658 22.7143 -3.92503 22.6825 -3.93286 22.6514C-3.96129 22.5385 -3.98094 22.4363 -3.97912 22.3112C-3.99445 22.3257 -4.00043 22.3342 -4.00648 22.3427L-4.00697 22.3434C-4.00753 22.3442 -4.00809 22.345 -4.00866 22.3458C-4.02861 22.374 -4.05197 22.407 -4.15601 22.4986L-4.2666 22.5959L-4.2454 22.4501C-4.14423 21.7546 -3.87847 21.1451 -3.55681 20.7478C-3.39607 20.5493 -3.21915 20.401 -3.03901 20.3234C-2.88598 20.2575 -2.7297 20.2424 -2.5818 20.292C-2.5829 20.2781 -2.58371 20.2651 -2.58441 20.253C-2.58481 20.246 -2.58517 20.2395 -2.58551 20.2333C-2.58703 20.2054 -2.58818 20.1842 -2.59121 20.1638C-2.59771 20.1199 -2.61295 20.0786 -2.67576 20.0001L-2.61263 19.9163C-2.5543 19.9406 -2.51131 19.975 -2.47673 20.0079C-2.46241 20.0215 -2.44907 20.0353 -2.43714 20.0477C-2.43492 20.05 -2.43275 20.0522 -2.43064 20.0544C-2.41663 20.0689 -2.40478 20.0808 -2.39319 20.0906C-2.3708 20.1096 -2.35388 20.1171 -2.33444 20.1172C-2.31267 20.1173 -2.27804 20.108 -2.22148 20.071L-2.21884 20.0692L-2.21602 20.0678C-2.2083 20.064 -2.2019 20.0609 -2.19645 20.0582C-2.184 20.0522 -2.17654 20.0486 -2.16989 20.0439C-2.16508 20.0406 -2.16495 20.0396 -2.16478 20.0384C-2.16476 20.0383 -2.16473 20.0381 -2.1647 20.0379C-2.16358 20.0324 -2.16317 20.0176 -2.17247 19.9844C-2.1815 19.9521 -2.19806 19.9079 -2.22483 19.8461L-2.26014 19.7646ZM-2.55727 20.4191C-2.69245 20.3525 -2.84134 20.3562 -2.99614 20.4229C-3.15506 20.4914 -3.31877 20.626 -3.47261 20.816C-3.75519 21.165 -3.99702 21.6919 -4.11106 22.3023C-4.10567 22.2955 -4.10171 22.2898 -4.09807 22.2846C-4.09716 22.2833 -4.09626 22.2821 -4.09537 22.2808C-4.07276 22.2489 -4.05074 22.224 -3.94929 22.1479L-3.84843 22.0723L-3.86299 22.1975C-3.8828 22.3679 -3.86335 22.4838 -3.82781 22.6249C-3.82037 22.6545 -3.81218 22.6853 -3.8035 22.7179C-3.77717 22.8168 -3.74631 22.9328 -3.71798 23.0835C-3.66588 23.0172 -3.63337 22.9829 -3.60686 22.9549L-3.6051 22.953C-3.57112 22.9171 -3.54866 22.8932 -3.49676 22.8054L-3.43978 22.709L-3.39957 22.8135C-3.30945 23.0478 -3.26562 23.2631 -3.21245 23.5242C-3.20278 23.5717 -3.19281 23.6207 -3.18219 23.6715C-3.17538 23.6471 -3.16999 23.6264 -3.16512 23.6077C-3.16253 23.5978 -3.16009 23.5884 -3.15766 23.5793C-3.14099 23.5171 -3.12503 23.47 -3.07358 23.367L-3.04243 23.3048L-2.98972 23.3503C-2.73248 23.5724 -2.64177 23.8434 -2.55912 24.0902C-2.5491 24.1201 -2.53921 24.1497 -2.52915 24.1788C-2.44018 24.4359 -2.33794 24.6625 -2.03976 24.8121C-2.01361 24.7658 -1.9865 24.7227 -1.95757 24.6852C-1.91951 24.636 -1.87609 24.5937 -1.82435 24.5678L-1.78598 24.5486L-1.75852 24.5816C-1.68343 24.6717 -1.6054 24.7134 -1.49129 24.7623C-1.47227 24.7705 -1.45229 24.7788 -1.43127 24.7876C-1.36643 24.8146 -1.2917 24.8458 -1.20454 24.8886C-1.21264 24.834 -1.19898 24.7821 -1.17282 24.7346C-1.11698 24.6334 -0.997137 24.5405 -0.870009 24.4547C-0.812883 24.4162 -0.752005 24.3776 -0.691686 24.3395C-0.683501 24.3343 -0.675326 24.3291 -0.667172 24.3239C-0.598557 24.2805 -0.53125 24.2374 -0.469527 24.1941C-0.343264 24.1055 -0.2512 24.0228 -0.216292 23.9443L-0.175519 23.8525L-0.121231 23.937C-0.12039 23.9383 -0.119561 23.9396 -0.118745 23.9409C-0.0948787 23.8142 -0.0569515 23.7139 -0.01158 23.6181C0.0121856 23.5679 0.0371375 23.5204 0.0626602 23.4718C0.121334 23.3601 0.183023 23.2427 0.24024 23.0739L0.281922 22.9509L0.339987 23.067C0.350697 23.0885 0.359241 23.1045 0.366333 23.1168C0.371289 22.9882 0.380262 22.8468 0.389542 22.7006C0.397799 22.5705 0.406301 22.4366 0.412431 22.3044C0.429116 21.9446 0.428472 21.5959 0.364091 21.3465L0.457889 21.2979C0.541769 21.3971 0.573343 21.4596 0.595122 21.5027C0.598279 21.509 0.60123 21.5148 0.604105 21.5203C0.613278 21.5378 0.620344 21.549 0.630392 21.5593C0.63281 21.4678 0.638095 21.3798 0.643149 21.2957C0.644135 21.2792 0.645113 21.263 0.646059 21.2468C0.653615 21.118 0.659125 20.9988 0.65206 20.8853C0.638117 20.6612 0.57537 20.46 0.378238 20.2629L0.377701 20.2624L0.377179 20.2618C0.177828 20.051 -0.0652475 20.0293 -0.310547 20.0627C-0.412873 20.0765 -0.513053 20.0996 -0.609849 20.122C-0.629901 20.1266 -0.649808 20.1312 -0.669559 20.1356C-0.782004 20.1611 -0.892173 20.1833 -0.9861 20.1787L-0.98684 20.1787C-1.00865 20.1773 -1.03997 20.171 -1.07514 20.1627C-1.11148 20.1541 -1.15574 20.1424 -1.20519 20.1288C-1.27415 20.1097 -1.35445 20.0865 -1.43901 20.062C-1.47557 20.0514 -1.51293 20.0406 -1.55051 20.0298C-1.67545 19.9939 -1.80332 19.9579 -1.91535 19.9299C-1.9813 19.9134 -2.04041 19.9 -2.08955 19.891C-2.08056 19.915 -2.07345 19.9363 -2.06815 19.9552C-2.05739 19.9936 -2.0523 20.0283 -2.05847 20.0592C-2.06547 20.0942 -2.08528 20.1169 -2.10771 20.1326C-2.12214 20.1427 -2.14086 20.1518 -2.15615 20.1591C-2.15922 20.1606 -2.16215 20.162 -2.16489 20.1634C-2.228 20.2043 -2.28313 20.2257 -2.33482 20.2255C-2.3896 20.2253 -2.43049 20.201 -2.46331 20.1732C-2.47005 20.1675 -2.47662 20.1614 -2.48302 20.1553C-2.47993 20.179 -2.4786 20.2038 -2.47723 20.2292C-2.47691 20.235 -2.4766 20.2409 -2.47626 20.2468C-2.47423 20.2821 -2.47123 20.3229 -2.46326 20.3747L-2.4381 20.5382L-2.55727 20.4191Z" fill="black"/>
<path d="M14.7837 12.9495C14.3837 13.7161 15.4754 12.6995 17.1837 13.9828C17.5989 14.4271 17.8667 14.9888 17.9504 15.5911C17.6023 15.4799 17.2671 15.3318 16.9504 15.1495C16.9504 15.1495 17.7004 15.9161 17.7004 16.7828C17.4337 16.6161 17.3004 16.6411 17.2004 16.4411C17.2004 16.7161 17.4504 16.8995 17.4504 17.3328C17.2862 17.2007 17.1105 17.0836 16.9254 16.9828C17.1754 17.4245 16.4671 18.2745 16.8254 18.5495C16.5246 18.5081 16.2355 18.4054 15.9761 18.2477C15.7166 18.09 15.4923 17.8807 15.3171 17.6328C15.1837 17.7161 15.1671 17.8578 15.1587 18.0161C15.1837 18.0245 14.2171 17.2911 14.3087 17.0161C14.1984 17.154 14.1343 17.3231 14.1254 17.4995C13.7601 17.1951 13.4837 16.7978 13.3254 16.3495C13.1754 16.5495 13.1587 16.5495 13.0004 16.7661C12.8837 16.0411 12.8837 16.0661 13.1171 15.4495C12.9555 15.5609 12.7997 15.6805 12.6504 15.8078C12.7723 15.2032 13.0268 14.6331 13.3958 14.1388C13.7647 13.6445 14.2387 13.2383 14.7837 12.9495Z" fill="#333333"/>
<path fill-rule="evenodd" clip-rule="evenodd" d="M14.6905 13.0483C14.1979 13.3293 13.7681 13.709 13.4284 14.1642C13.0872 14.6213 12.8448 15.1438 12.716 15.6985C12.8377 15.5992 12.9633 15.5048 13.0926 15.4156L13.2025 15.3399L13.1552 15.4646C13.1504 15.4775 13.1456 15.4901 13.141 15.5024C13.0331 15.7872 12.9816 15.9234 12.9682 16.0714C12.9555 16.2118 12.9772 16.3634 13.0251 16.6624C13.0702 16.6026 13.1019 16.5635 13.133 16.5256C13.1364 16.5214 13.1398 16.5173 13.1432 16.5131C13.1825 16.4653 13.2228 16.4162 13.2913 16.3249L13.338 16.2626L13.3639 16.336C13.5109 16.7523 13.7613 17.1238 14.0909 17.416C14.1134 17.2608 14.1768 17.1138 14.2754 16.9905L14.3475 17.0297C14.3404 17.0511 14.3421 17.0819 14.3581 17.124C14.3739 17.1656 14.4018 17.2135 14.4394 17.2656C14.5145 17.3698 14.6238 17.4849 14.7367 17.5927C14.8493 17.7001 14.9642 17.799 15.0496 17.8706C15.0773 17.8938 15.1018 17.9141 15.1222 17.931C15.1345 17.8021 15.1677 17.6769 15.2942 17.5979L15.3276 17.577L15.3503 17.6092C15.5222 17.8525 15.7423 18.0578 15.9969 18.2126C16.2196 18.3479 16.4645 18.4419 16.7199 18.4905C16.6818 18.42 16.6742 18.3356 16.6827 18.2472C16.6954 18.1163 16.7443 17.9659 16.7945 17.8159C16.7975 17.8068 16.8006 17.7977 16.8036 17.7886C16.8516 17.6455 16.8995 17.5023 16.923 17.3685C16.9481 17.2259 16.9438 17.1017 16.8884 17.0038L16.8166 16.877L16.9445 16.9466C17.1052 17.0341 17.2589 17.1338 17.4042 17.2447C17.3902 17.0821 17.3393 16.9583 17.2868 16.8456C17.2799 16.8307 17.2728 16.8158 17.2658 16.801C17.2115 16.6864 17.1579 16.5735 17.1579 16.4416L17.2369 16.4229C17.2819 16.5129 17.3324 16.551 17.4057 16.5876C17.4267 16.5981 17.4503 16.6087 17.4763 16.6205C17.527 16.6433 17.5871 16.6703 17.6561 16.709C17.6364 16.3145 17.4641 15.9433 17.2893 15.6637C17.1967 15.5155 17.1041 15.3941 17.0346 15.3097C16.9999 15.2676 16.9711 15.2347 16.9509 15.2125C16.9409 15.2014 16.933 15.1929 16.9277 15.1873C16.9251 15.1845 16.923 15.1824 16.9217 15.181L16.9202 15.1795L16.9198 15.179C16.9198 15.179 16.9198 15.179 16.9261 15.1729C16.9304 15.1687 16.9376 15.1617 16.9496 15.1499H16.9079V15.0778L16.9704 15.1138C17.2651 15.2835 17.576 15.4232 17.8983 15.531C17.8061 14.9635 17.5477 14.4356 17.155 14.0144C16.3112 13.3815 15.6218 13.3165 15.1921 13.3145C15.138 13.3142 15.088 13.315 15.0419 13.3157C15.038 13.3158 15.034 13.3159 15.0302 13.3159C14.9888 13.3166 14.9504 13.3173 14.9159 13.3171C14.8426 13.3166 14.7776 13.3128 14.7319 13.2924C14.7075 13.2814 14.6861 13.2647 14.6727 13.2396C14.6596 13.2149 14.6566 13.1867 14.6597 13.1574C14.663 13.1265 14.6735 13.0903 14.6905 13.0483ZM14.7829 12.9499L14.7634 12.9131C14.213 13.2048 13.7342 13.6151 13.3616 14.1143C12.989 14.6136 12.7318 15.1893 12.6088 15.8L12.585 15.9181L12.6766 15.8399C12.7905 15.7429 12.908 15.6504 13.0291 15.5626C12.9443 15.7874 12.8981 15.9205 12.8852 16.0639C12.8705 16.2268 12.8987 16.4023 12.9533 16.741C12.955 16.7516 12.9567 16.7623 12.9585 16.7732L12.9743 16.8718L13.0333 16.7912C13.1119 16.6836 13.1551 16.63 13.1975 16.5784C13.2009 16.5743 13.2043 16.5701 13.2077 16.566C13.2375 16.5296 13.2684 16.492 13.3118 16.4356C13.4761 16.8616 13.7465 17.2391 14.0979 17.5319L14.162 17.5853L14.1662 17.502C14.1727 17.3732 14.2102 17.2486 14.2747 17.1383C14.2765 17.1434 14.2783 17.1485 14.2802 17.1536C14.2996 17.2047 14.332 17.2592 14.3718 17.3144C14.4514 17.4248 14.565 17.544 14.6792 17.653C14.7936 17.7622 14.91 17.8623 14.996 17.9344C15.0277 17.961 15.0554 17.9839 15.0772 18.002C15.085 18.0084 15.092 18.0142 15.0982 18.0193C15.105 18.025 15.1107 18.0297 15.1153 18.0336L15.1147 18.0461L15.1448 18.0561C15.1461 18.0566 15.1487 18.0574 15.1521 18.0579C15.1546 18.0582 15.1623 18.0592 15.1714 18.0562C15.1835 18.0522 15.1954 18.0419 15.199 18.0259C15.2002 18.0209 15.2003 18.0163 15.1999 18.0125C15.2076 17.8713 15.2232 17.7626 15.3069 17.6915C15.4816 17.9292 15.7013 18.1304 15.9536 18.2838C16.218 18.4444 16.5125 18.5491 16.8189 18.5912L16.9747 18.6126L16.85 18.5168C16.7769 18.4608 16.7542 18.374 16.7657 18.2552C16.7773 18.1355 16.8226 17.9944 16.8735 17.8423C16.8767 17.8327 16.8799 17.8231 16.8832 17.8134C16.9306 17.672 16.9805 17.5232 17.0051 17.3829C17.0237 17.2772 17.0286 17.1726 17.0055 17.0769C17.1516 17.1629 17.2913 17.2594 17.4235 17.3657L17.4913 17.4202V17.3332C17.4913 17.1076 17.4258 16.9469 17.3624 16.8105C17.3552 16.7951 17.3482 16.7801 17.3413 16.7655C17.3135 16.7066 17.2883 16.6532 17.2702 16.6005C17.2999 16.625 17.3325 16.6442 17.3685 16.6622C17.3938 16.6748 17.4199 16.6866 17.4476 16.699C17.5122 16.7281 17.5856 16.7611 17.6775 16.8186L17.7413 16.8584V16.7832C17.7413 16.3386 17.5492 15.9223 17.3599 15.6195C17.2788 15.4896 17.1976 15.3798 17.1313 15.2967C17.3898 15.4306 17.6593 15.5425 17.9369 15.6313L18 15.6514L17.9909 15.5858C17.906 14.975 17.6345 14.4053 17.2134 13.9548L17.2109 13.9521L17.208 13.9499C16.3447 13.3015 15.6352 13.2333 15.1925 13.2312C15.1375 13.2309 15.0867 13.2316 15.0405 13.2324C15.0366 13.2325 15.0328 13.2325 15.029 13.2326C14.9873 13.2333 14.9499 13.2339 14.9163 13.2337C14.8407 13.2333 14.7931 13.2284 14.766 13.2163C14.754 13.2109 14.7489 13.2054 14.7463 13.2004C14.7434 13.1949 14.7406 13.1849 14.7426 13.1662C14.7468 13.1267 14.7699 13.065 14.8199 12.9692L14.7829 12.9499Z" fill="black"/>
<path d="M13.7998 16.6835C13.8665 16.1585 13.9998 15.9668 14.0498 15.6168C14.1165 15.0335 14.0331 14.5835 14.2498 14.6002C14.4498 14.6168 14.5165 14.8335 14.4165 15.4335C14.3081 16.0252 14.2165 16.1668 13.8081 16.6918L13.7998 16.6835ZM14.9081 17.6502C14.8665 17.2168 14.9498 17.0168 14.9165 16.7335C14.8748 16.2335 14.7165 15.8835 14.8998 15.8585C15.0831 15.8252 15.1831 15.9918 15.1998 16.5085C15.2165 17.0085 15.1748 17.1502 14.9081 17.6502ZM16.6415 18.4502C16.4498 18.0585 16.2831 17.9502 16.1665 17.7002C15.9498 17.2585 15.8998 16.9085 15.7415 16.9668C15.5748 17.0335 15.5831 17.2168 15.8248 17.6502C16.0581 18.0668 16.1665 18.1585 16.6331 18.4502H16.6415ZM17.2331 14.9918C16.7498 14.7418 16.5081 14.7418 16.1998 14.5752C15.6581 14.2918 15.3415 13.9835 15.2331 14.1585C15.1165 14.3252 15.2665 14.5002 15.8248 14.7585C16.3831 15.0168 16.5581 15.0252 17.2248 14.9918H17.2331ZM17.3998 16.4335C17.0665 16.1502 16.8498 16.1002 16.6248 15.9168C16.2248 15.5835 16.0331 15.2752 15.9081 15.4002C15.7748 15.5335 15.8581 15.7002 16.2748 16.0085C16.6915 16.3168 16.8331 16.3502 17.4081 16.4335H17.3998Z" fill="#B3B3B3"/>
</g>
<defs>
<clipPath id="clip0_8424_43269">
<rect width="40" height="40" rx="20" fill="white"/>
</clipPath>
</defs>
</svg>
