<svg width="40" height="40" viewBox="0 0 40 40" fill="none" xmlns="http://www.w3.org/2000/svg">
<g clip-path="url(#clip0_8424_43325)">
<path fill-rule="evenodd" clip-rule="evenodd" d="M-20.8438 0.27417H60.4662V39.2842H-20.8438V0.27417Z" fill="#FFC621"/>
<path fill-rule="evenodd" clip-rule="evenodd" d="M-21 26.8292H60.4118V40.1067H-21V26.8292Z" fill="#EF2118"/>
<path fill-rule="evenodd" clip-rule="evenodd" d="M-20.8438 0H60.4662V14.1H-20.8438V0Z" fill="#298C08"/>
<path d="M18.376 29.1759C23.0413 29.1759 26.8233 25.3939 26.8233 20.7286C26.8233 16.0632 23.0413 12.2812 18.376 12.2812C13.7107 12.2812 9.92871 16.0632 9.92871 20.7286C9.92871 25.3939 13.7107 29.1759 18.376 29.1759Z" fill="#006BC6"/>
<path fill-rule="evenodd" clip-rule="evenodd" d="M14.5872 14.7423L14.0781 15.0948L15.9189 17.6798L16.4124 17.3665L14.5794 14.7423H14.5872ZM16.8902 20.8523L16.1304 20.3197L16.4437 19.3248L12.6759 19.3797L11.5792 18.5415L16.7257 18.4867L17.6814 15.5962L18.1984 16.7712L16.8902 20.8445V20.8523ZM22.8827 15.3142L22.3892 14.9382L20.4857 17.4762L20.9244 17.8443L22.8827 15.3142ZM17.7597 19.3483L18.0339 18.471H19.0757L17.8851 14.8833L18.3551 13.5908L19.9609 18.4788L23.0002 18.518L22.0446 19.3562L17.7597 19.3405V19.3483ZM24.8567 23.359L25.0682 22.7793L22.0681 21.7375L21.8487 22.2858L24.8567 23.359ZM19.4439 19.7243L20.3604 19.7165L20.6816 20.7035L23.7209 18.471L25.0996 18.518L20.9401 21.5495L21.8409 24.4635L20.7442 23.8055L19.4439 19.7243ZM17.8929 27.7143L18.5117 27.73L18.5352 24.5575L17.9556 24.5183L17.8929 27.7222V27.7143ZM19.6162 21.4242L19.9139 22.2937L19.0757 22.9203L22.1621 25.0902L22.5537 26.4062L18.3551 23.4295L15.8876 25.2077L16.1617 23.9543L19.6084 21.4242H19.6162ZM11.5244 22.4425L11.7046 23.03L14.7361 22.0743L14.5794 21.5103L11.5244 22.4425ZM18.0417 22.1292L17.3054 22.6853L16.4594 22.0822L15.3471 25.6855L14.2191 26.4688L15.7466 21.5573L13.2869 19.7557L14.5637 19.6303L18.0417 22.1292Z" fill="#FFC621"/>
</g>
<defs>
<clipPath id="clip0_8424_43325">
<rect width="40" height="40" rx="20" fill="white"/>
</clipPath>
</defs>
</svg>
