<svg width="512" height="512" viewBox="0 0 512 512" fill="none" xmlns="http://www.w3.org/2000/svg">
<g clip-path="url(#clip0_3274_50647)">
<rect width="512" height="512" fill="#0052B4"/>
<path d="M256.006 100.173L264.295 125.682H291.115L269.416 141.447L277.705 166.956L256.006 151.19L234.306 166.956L242.595 141.447L220.896 125.682H247.717L256.006 100.173Z" fill="#FFDA44"/>
<path d="M145.818 145.809L169.718 157.985L188.683 139.021L184.486 165.511L208.385 177.688L181.894 181.884L177.698 208.376L165.521 184.477L139.031 188.674L157.996 169.709L145.818 145.809Z" fill="#FFDA44"/>
<path d="M100.182 255.997L125.691 247.708V220.887L141.455 242.587L166.965 234.298L151.198 255.997L166.965 277.696L141.455 269.408L125.691 291.107V264.286L100.182 255.997Z" fill="#FFDA44"/>
<path d="M145.818 366.185L157.995 342.285L139.031 323.32L165.522 327.518L177.697 303.619L181.894 330.11L208.384 334.306L184.488 346.483L188.683 372.973L169.718 354.008L145.818 366.185Z" fill="#FFDA44"/>
<path d="M256.006 411.829L247.716 386.32H220.896L242.596 370.555L234.306 345.048L256.006 360.812L277.705 345.048L269.416 370.555L291.115 386.32H264.294L256.006 411.829Z" fill="#FFDA44"/>
<path d="M366.195 366.185L342.296 354.009L323.33 372.974L327.527 346.482L303.63 334.306L330.12 330.11L334.316 303.619L346.492 327.518L372.982 323.32L354.017 342.287L366.195 366.185Z" fill="#FFDA44"/>
<path d="M411.828 255.997L386.319 264.286V291.107L370.554 269.407L345.047 277.696L360.812 255.997L345.047 234.298L370.555 242.587L386.319 220.887V247.709L411.828 255.997Z" fill="#FFDA44"/>
<path d="M366.195 145.817L354.018 169.717L372.983 188.682L346.491 184.484L334.316 208.383L330.12 181.892L303.63 177.695L327.527 165.519L323.33 139.03L342.297 157.994L366.195 145.817Z" fill="#FFDA44"/>
</g>
<defs>
<clipPath id="clip0_3274_50647">
<rect width="512" height="512" fill="white"/>
</clipPath>
</defs>
</svg>
