<svg width="56" height="56" viewBox="0 0 56 56" fill="none" xmlns="http://www.w3.org/2000/svg">
<g clip-path="url(#clip0_3318_24388)">
<path d="M28 56C43.464 56 56 43.464 56 28C56 12.536 43.464 0 28 0C12.536 0 0 12.536 0 28C0 43.464 12.536 56 28 56Z" fill="#0052B4"/>
<path d="M28.0003 10.9565L28.9069 13.7466H31.8404L29.467 15.4709L30.3736 18.2609L28.0003 16.5365L25.6269 18.2609L26.5335 15.4709L24.1602 13.7466H27.0937L28.0003 10.9565Z" fill="#FFDA44"/>
<path d="M15.9484 15.9485L18.5624 17.2802L20.6367 15.2061L20.1777 18.1034L22.7917 19.4353L19.8942 19.8942L19.4353 22.7918L18.1034 20.1778L15.2061 20.6369L17.2804 18.5626L15.9484 15.9485Z" fill="#FFDA44"/>
<path d="M10.957 28.0001L13.7471 27.0935V24.1599L15.4713 26.5334L18.2614 25.6267L16.5369 28.0001L18.2614 30.3734L15.4713 29.4669L13.7471 31.8402V28.9067L10.957 28.0001Z" fill="#FFDA44"/>
<path d="M15.9484 40.0517L17.2802 37.4376L15.2061 35.3633L18.1035 35.8224L19.4351 33.2085L19.8942 36.1059L22.7915 36.5649L20.1779 37.8967L20.6367 40.7941L18.5624 38.7198L15.9484 40.0517Z" fill="#FFDA44"/>
<path d="M28.0003 45.0434L27.0936 42.2534H24.1602L26.5336 40.5291L25.6269 37.7393L28.0003 39.4634L30.3736 37.7393L29.467 40.5291L31.8404 42.2534H28.9068L28.0003 45.0434Z" fill="#FFDA44"/>
<path d="M40.052 40.0517L37.4381 38.7199L35.3637 40.7942L35.8227 37.8966L33.209 36.5649L36.1063 36.1059L36.5653 33.2085L37.897 35.8225L40.7944 35.3633L38.7201 37.4378L40.052 40.0517Z" fill="#FFDA44"/>
<path d="M45.0434 28.0001L42.2534 28.9067V31.8402L40.5291 29.4668L37.7393 30.3734L39.4636 28.0001L37.7393 25.6267L40.5292 26.5333L42.2534 24.1599V27.0936L45.0434 28.0001Z" fill="#FFDA44"/>
<path d="M40.052 15.9484L38.7202 18.5624L40.7945 20.6367L37.8969 20.1776L36.5653 22.7915L36.1063 19.8941L33.209 19.435L35.8227 18.1033L35.3637 15.2061L37.4382 17.2802L40.052 15.9484Z" fill="#FFDA44"/>
</g>
<defs>
<clipPath id="clip0_3318_24388">
<rect width="56" height="56" fill="white"/>
</clipPath>
</defs>
</svg>
