<svg width="40" height="40" viewBox="0 0 40 40" fill="none" xmlns="http://www.w3.org/2000/svg">
<g clip-path="url(#clip0_8424_43322)">
<path fill-rule="evenodd" clip-rule="evenodd" d="M-20 0H60.2133V40.1067H-20V0Z" fill="#6797D6"/>
<path fill-rule="evenodd" clip-rule="evenodd" d="M20.091 9.63495L17.553 11.374L18.5244 8.56179L15.9785 6.82279H19.1197L20.091 4.01062L21.0624 6.83062H24.1957L21.6577 8.56179L22.629 11.374M20.091 30.55L17.553 28.811L18.5244 31.631L15.9785 33.3621H19.1197L20.091 36.1743L21.0624 33.3543L24.1957 33.3621L21.6577 31.6231L22.629 28.811M7.87102 21.573L5.95186 23.97L6.06152 20.9933L3.12402 20.0768L6.13202 19.1603L6.23386 16.1836L7.98069 18.5963L10.9887 17.672L9.06169 20.0768L10.8164 22.4816M32.2954 21.5651L34.2224 23.97L34.1127 20.9933L37.0502 20.0768L34.0422 19.1603L33.9404 16.1836L32.1935 18.5963L29.1855 17.672L31.1125 20.0768L29.3579 22.4816" fill="white"/>
</g>
<defs>
<clipPath id="clip0_8424_43322">
<rect width="40" height="40" rx="20" fill="white"/>
</clipPath>
</defs>
</svg>
