<svg width="40" height="40" viewBox="0 0 40 40" fill="none" xmlns="http://www.w3.org/2000/svg">
<g clip-path="url(#clip0_8424_43241)">
<path d="M-6.66699 0H46.6663V40H-6.66699V0Z" fill="white"/>
<path d="M0 0H40V40H0V0Z" fill="white"/>
<path fill-rule="evenodd" clip-rule="evenodd" d="M16.4415 28.3999C16.4415 28.3999 17.3415 27.6666 18.2248 27.6666C19.1081 27.6666 19.3415 28.2749 19.9581 28.3249C20.5665 28.3749 21.0748 27.7166 21.8331 27.6916C22.5915 27.6666 23.5415 28.2249 23.5415 28.2249L20.2248 29.2249L16.4415 28.3916V28.3999ZM14.5331 27.3166L25.8165 27.3749C25.8165 27.3749 24.8415 26.3166 23.6915 26.2916C22.5415 26.2749 22.8581 26.7916 21.9831 26.8583C21.0998 26.9333 20.8831 26.3249 20.0748 26.3416C19.2748 26.3666 18.8081 26.8583 18.1998 26.8833C17.5831 26.9083 16.8081 26.2749 16.3415 26.2999C15.8748 26.3249 14.2165 27.0249 14.2165 27.0249L14.5331 27.3249V27.3166ZM13.0915 25.9833L27.0081 26.0249C27.2331 25.7083 26.3248 24.9499 25.4998 24.8833C24.8165 24.9083 24.3331 25.5916 23.7665 25.6166C23.1998 25.6416 22.5665 24.9083 21.9331 24.9333C21.2998 24.9583 20.6415 25.6166 20.0081 25.6166C19.3665 25.6166 18.9081 24.9083 18.0998 24.9083C17.2915 24.9083 16.9331 25.6833 16.3165 25.6416C15.7081 25.5916 15.1665 24.8583 14.5831 24.8583C13.9998 24.8583 13.0248 25.7333 12.8331 25.6916C12.6331 25.6333 13.0748 26.0499 13.0915 25.9749V25.9833Z" fill="#083D9C"/>
<path fill-rule="evenodd" clip-rule="evenodd" d="M14.056 24.9189C14.2358 24.8359 14.4193 24.7751 14.5834 24.7751C14.7467 24.7751 14.9029 24.8264 15.0514 24.899C15.1995 24.9713 15.3454 25.0677 15.487 25.1621L15.495 25.1674C15.782 25.3588 16.0476 25.5358 16.323 25.5587C16.587 25.5763 16.7994 25.4265 17.0626 25.2409C17.0712 25.2349 17.0799 25.2288 17.0886 25.2226C17.3563 25.0341 17.6672 24.8251 18.1001 24.8251C18.5294 24.8251 18.8638 25.0141 19.1596 25.1911C19.1745 25.2001 19.1893 25.209 19.204 25.2178C19.4875 25.3879 19.73 25.5335 20.0084 25.5335C20.3009 25.5335 20.6049 25.3807 20.9325 25.2106C20.9417 25.2058 20.9509 25.201 20.9602 25.1962C21.2697 25.0353 21.6008 24.8632 21.9302 24.8502C22.2753 24.8366 22.6136 25.0289 22.9166 25.2029C22.9241 25.2072 22.9316 25.2115 22.9391 25.2158C23.0864 25.3005 23.2267 25.3811 23.3636 25.4407C23.5072 25.5032 23.6396 25.539 23.7631 25.5336C23.8886 25.528 24.0132 25.4859 24.1433 25.4207C24.2612 25.3616 24.3789 25.2862 24.5037 25.2063C24.5173 25.1975 24.531 25.1888 24.5448 25.1799C24.8199 25.0041 25.1297 24.8136 25.4971 24.8002L25.5019 24.8L25.5068 24.8004C25.9394 24.8354 26.3879 25.05 26.6995 25.2951C26.8554 25.4176 26.9825 25.5519 27.0561 25.6813C27.128 25.8076 27.1612 25.954 27.0764 26.0734L27.0514 26.1086L13.0918 26.0668C13.0825 26.0679 13.0738 26.0677 13.0661 26.0667L13.0084 26.0666V26.047C12.9946 26.0398 12.9813 26.0313 12.9694 26.0232C12.9233 25.9919 12.8687 25.9449 12.8224 25.8987C12.7788 25.855 12.7317 25.8014 12.7113 25.7566C12.7059 25.7448 12.6991 25.7268 12.6983 25.7058C12.6975 25.6823 12.7046 25.6493 12.7342 25.6254C12.7598 25.6048 12.7886 25.6025 12.805 25.6029C12.8203 25.6032 12.8356 25.6061 12.8497 25.6098C12.8513 25.6097 12.8545 25.6093 12.8595 25.6081C12.8707 25.6055 12.8862 25.6003 12.9067 25.5915C12.9477 25.5737 13.0001 25.5452 13.063 25.5076C13.138 25.4628 13.2224 25.4086 13.3148 25.3492C13.3786 25.3082 13.4463 25.2647 13.5173 25.2202C13.6884 25.1129 13.8746 25.0025 14.056 24.9189ZM13.0918 25.966L13.092 25.9024C13.0912 25.9022 13.0888 25.9015 13.085 25.9012C13.081 25.9007 13.0729 25.9004 13.0627 25.9031C13.0517 25.906 13.0389 25.9123 13.0281 25.9239C13.0174 25.9353 13.0125 25.9478 13.0104 25.9571L13.0918 25.966ZM13.092 25.9024L13.092 25.9001L26.9563 25.9417C26.966 25.9014 26.9568 25.8437 26.9113 25.7638C26.8521 25.6598 26.7428 25.541 26.5965 25.4261C26.3052 25.197 25.8893 24.9999 25.4983 24.9669C25.1844 24.98 24.9122 25.1429 24.6346 25.3204C24.6207 25.3292 24.6069 25.3381 24.593 25.347C24.4696 25.4261 24.3442 25.5064 24.2179 25.5697C24.0766 25.6405 23.9283 25.6931 23.7704 25.7001C23.6107 25.7071 23.4513 25.6606 23.2971 25.5935C23.1514 25.5301 23.0036 25.4451 22.8588 25.3619C22.8504 25.3571 22.842 25.3522 22.8336 25.3474C22.52 25.1673 22.225 25.0054 21.9367 25.0168C21.6451 25.0283 21.343 25.1852 21.0179 25.3541L21.0094 25.3585C20.6911 25.5237 20.3493 25.7001 20.0084 25.7001C19.682 25.7001 19.4012 25.5311 19.1298 25.3677C19.1111 25.3565 19.0925 25.3453 19.074 25.3341C18.7781 25.1571 18.4791 24.9918 18.1001 24.9918C17.7247 24.9918 17.4522 25.1704 17.1846 25.3589C17.1704 25.3689 17.1562 25.3789 17.142 25.389C16.8951 25.5637 16.6362 25.7469 16.3112 25.725L16.3106 25.7249L16.3099 25.7249C15.9906 25.6986 15.6931 25.5 15.422 25.3191C15.4128 25.3129 15.4036 25.3068 15.3945 25.3007C15.2517 25.2055 15.1148 25.1154 14.9782 25.0487C14.8421 24.9822 14.7118 24.9418 14.5834 24.9418C14.4559 24.9418 14.2988 24.9904 14.1258 25.0702C13.9543 25.1493 13.7754 25.2551 13.6058 25.3614C13.5388 25.4034 13.4726 25.446 13.4089 25.4868C13.314 25.5478 13.2251 25.6049 13.1485 25.6507C13.0839 25.6893 13.024 25.7223 12.9728 25.7445C12.9561 25.7517 12.9395 25.7581 12.9232 25.7633C12.9286 25.7689 12.9343 25.7748 12.9403 25.7808C12.9815 25.822 13.028 25.8615 13.0631 25.8854C13.0717 25.8912 13.0788 25.8956 13.0844 25.8987C13.0887 25.901 13.0912 25.9021 13.092 25.9024ZM23.0371 26.2847C23.1941 26.2339 23.3997 26.2042 23.693 26.2085L23.6936 26.2085C24.2923 26.2215 24.8397 26.5027 25.2329 26.7743C25.4304 26.9107 25.5911 27.0463 25.7026 27.1478C25.7583 27.1986 25.8019 27.2409 25.8316 27.2708C25.8465 27.2857 25.858 27.2975 25.8658 27.3056C25.8697 27.3097 25.8727 27.3129 25.8747 27.3151L25.8771 27.3176L25.878 27.3186L25.878 27.3186C25.878 27.3187 25.8781 27.3187 25.8168 27.3751L25.878 27.3186L26.0078 27.4595L14.6168 27.4006V27.5189L14.0669 26.998L14.1844 26.9484L14.2168 27.0251C14.1844 26.9484 14.1844 26.9484 14.1844 26.9484L14.1845 26.9483L14.1892 26.9463L14.2033 26.9404C14.2157 26.9352 14.2338 26.9277 14.257 26.918C14.3034 26.8988 14.3703 26.8713 14.4519 26.8382C14.615 26.772 14.8376 26.6834 15.0749 26.594C15.312 26.5047 15.5647 26.4143 15.788 26.3444C16.0083 26.2755 16.2088 26.2238 16.3373 26.2169C16.4717 26.2097 16.621 26.2498 16.7716 26.3062C16.904 26.3559 17.0455 26.4215 17.1878 26.4875C17.2084 26.4971 17.229 26.5066 17.2496 26.5162C17.5831 26.6702 17.9122 26.8118 18.1967 26.8002C18.4617 26.7893 18.6987 26.6842 18.9702 26.5638C18.9906 26.5548 19.0112 26.5456 19.0321 26.5364C19.3261 26.4067 19.6553 26.2716 20.0725 26.2585L20.0734 26.2585C20.4796 26.2501 20.7471 26.3925 20.9987 26.5264C21.0126 26.5337 21.0264 26.5411 21.0401 26.5484C21.3016 26.6868 21.559 26.8109 21.9764 26.7754L21.9771 26.7754C22.1868 26.7594 22.3198 26.717 22.4195 26.6654C22.5012 26.6232 22.5618 26.5748 22.6297 26.5206C22.6469 26.5068 22.6646 26.4927 22.6833 26.4781C22.7743 26.4073 22.8786 26.3359 23.0371 26.2847ZM14.3672 27.0528L14.558 27.2336L25.6119 27.2908C25.6049 27.2843 25.5978 27.2777 25.5904 27.271C25.4831 27.1733 25.3282 27.0427 25.1382 26.9114C24.7564 26.6477 24.2415 26.3872 23.6903 26.3751C23.4088 26.3711 23.2227 26.3998 23.0884 26.4432C22.9555 26.4862 22.8686 26.5451 22.7857 26.6097C22.7703 26.6216 22.7547 26.6341 22.7387 26.6469C22.6697 26.7022 22.5937 26.763 22.4961 26.8135C22.3732 26.877 22.2177 26.9242 21.9901 26.9415C21.5244 26.981 21.2319 26.8385 20.9622 26.6957C20.9497 26.6891 20.9372 26.6824 20.9248 26.6759C20.6724 26.5418 20.439 26.4178 20.0773 26.4251C19.6946 26.4372 19.3907 26.5604 19.0994 26.6889C19.077 26.6988 19.0545 26.7087 19.0321 26.7187C18.7672 26.8365 18.5017 26.9545 18.2035 26.9667C17.8714 26.9802 17.5046 26.8176 17.1797 26.6675C17.1588 26.6578 17.1379 26.6481 17.1173 26.6385C16.9743 26.5722 16.8391 26.5096 16.713 26.4623C16.5678 26.4078 16.4452 26.3781 16.3462 26.3834C16.2414 26.389 16.0596 26.4341 15.8377 26.5035C15.6188 26.572 15.3694 26.6612 15.1336 26.75C14.898 26.8388 14.6768 26.9268 14.5145 26.9926C14.4575 27.0157 14.4077 27.0361 14.3672 27.0528ZM16.4297 28.3038L16.3584 28.2881V28.5755L16.4712 28.4836L20.2284 29.3112L23.7484 28.2499L23.584 28.1533L23.5418 28.2251C23.584 28.1533 23.584 28.1533 23.584 28.1533L23.5839 28.1532L23.5837 28.1531L23.5831 28.1528L23.5808 28.1515C23.5789 28.1503 23.576 28.1487 23.5723 28.1465C23.5648 28.1423 23.5539 28.1361 23.5399 28.1283C23.5117 28.1127 23.4709 28.0906 23.4196 28.0642C23.3171 28.0114 23.1725 27.9414 23.0036 27.872C22.6685 27.7344 22.228 27.5954 21.8307 27.6085C21.4303 27.6217 21.0979 27.8019 20.8029 27.9618L20.8 27.9633C20.4964 28.1279 20.2401 28.2647 19.9653 28.2421L19.9652 28.2421C19.7171 28.222 19.5388 28.105 19.3271 27.966C19.2978 27.9468 19.2678 27.9271 19.2369 27.9072C18.9852 27.745 18.6899 27.5835 18.2251 27.5835C17.7627 27.5835 17.3021 27.7746 16.9622 27.9604C16.7912 28.0538 16.6485 28.1472 16.5484 28.2173C16.4983 28.2524 16.4588 28.2817 16.4317 28.3023C16.431 28.3028 16.4304 28.3033 16.4297 28.3038ZM16.647 28.3517L20.2218 29.1391L23.3256 28.2033C23.2276 28.1534 23.0943 28.0894 22.9403 28.0262C22.6109 27.8909 22.1972 27.7632 21.8362 27.7751C21.4796 27.7869 21.1795 27.9472 20.8794 28.1099L20.8645 28.118C20.5769 28.2739 20.2795 28.4351 19.9517 28.4082C19.6583 28.3844 19.4429 28.2423 19.2337 28.1043C19.2046 28.0851 19.1757 28.066 19.1467 28.0473C18.9067 27.8928 18.6437 27.7501 18.2251 27.7501C17.8042 27.7501 17.3731 27.9257 17.0422 28.1066C16.8794 28.1955 16.7431 28.2845 16.647 28.3517Z" fill="#083D9C"/>
<path fill-rule="evenodd" clip-rule="evenodd" d="M18.442 18.2417L21.642 19.0917V14.525C20.1753 14.6083 18.9587 11.7417 21.542 11.55C19.0003 11.1833 18.7087 11.8417 18.417 12.55L18.442 18.2417Z" fill="#FF0000"/>
<path fill-rule="evenodd" clip-rule="evenodd" d="M19.0899 11.5531C19.5466 11.3314 20.2818 11.2629 21.5565 11.4468C21.6092 11.4544 21.6476 11.5004 21.6458 11.5535C21.6439 11.6067 21.6024 11.6499 21.5494 11.6538C20.9224 11.7003 20.5464 11.9073 20.3438 12.1708C20.141 12.4346 20.0972 12.7744 20.1745 13.1177C20.252 13.4615 20.4497 13.7996 20.7149 14.0459C20.9801 14.2922 21.3047 14.4398 21.6358 14.4209C21.6644 14.4193 21.6924 14.4295 21.7132 14.4492C21.734 14.4689 21.7458 14.4963 21.7458 14.5249V19.0916C21.7458 19.124 21.7308 19.1545 21.7052 19.1742C21.6795 19.1939 21.6462 19.2006 21.6149 19.1923L18.4149 18.3423L18.4417 18.2416L18.3375 18.2421L18.3125 12.5504C18.3124 12.5366 18.3151 12.523 18.3203 12.5103C18.466 12.1566 18.624 11.7793 19.0899 11.5531ZM18.5455 18.1614L21.5375 18.9562V14.6302C21.1767 14.618 20.8407 14.4471 20.5731 14.1985C20.2784 13.9248 20.0584 13.5499 19.9713 13.1635C19.8841 12.7766 19.9288 12.3689 20.1786 12.0439C20.3325 11.8437 20.5587 11.6821 20.8649 11.5759C20.0107 11.5039 19.5027 11.5843 19.1809 11.7405C18.7997 11.9255 18.664 12.2239 18.5209 12.5704L18.5455 18.1614Z" fill="black"/>
<path fill-rule="evenodd" clip-rule="evenodd" d="M16.417 21.5583L23.642 21.5833L16.417 21.5583Z" fill="#083D9C"/>
<path fill-rule="evenodd" clip-rule="evenodd" d="M16.208 21.5576C16.2084 21.4425 16.302 21.3496 16.4171 21.35L23.6421 21.375C23.7571 21.3754 23.8501 21.469 23.8497 21.584C23.8493 21.6991 23.7557 21.792 23.6406 21.7916L16.4156 21.7666C16.3006 21.7662 16.2076 21.6726 16.208 21.5576Z" fill="#083D9C"/>
<path fill-rule="evenodd" clip-rule="evenodd" d="M17.256 19.5835C17.348 19.5867 17.4199 19.6639 17.4167 19.7559L17.4109 19.9191L17.5547 19.7442C17.6132 19.6731 17.7182 19.6628 17.7893 19.7213C17.8604 19.7798 17.8707 19.8848 17.8122 19.9559L17.4188 20.4343L17.75 20.8749C17.8053 20.9485 17.7905 21.0529 17.717 21.1083C17.6434 21.1636 17.5389 21.1488 17.4836 21.0752L17.201 20.6993L16.8872 21.0809C16.8288 21.152 16.7237 21.1622 16.6526 21.1038C16.5815 21.0453 16.5713 20.9403 16.6297 20.8692L16.9949 20.4251L16.6253 19.9335C16.5699 19.86 16.5847 19.7555 16.6583 19.7002C16.7319 19.6448 16.8364 19.6596 16.8917 19.7332L17.0753 19.9775L17.0836 19.7442C17.0868 19.6522 17.164 19.5802 17.256 19.5835ZM18.6227 19.5835C18.7147 19.5867 18.7866 19.6639 18.7834 19.7559L18.7776 19.9191L18.9214 19.7442C18.9799 19.6731 19.0849 19.6628 19.156 19.7213C19.2271 19.7798 19.2373 19.8848 19.1789 19.9559L18.7867 20.4328L19.117 20.8754C19.1721 20.9491 19.1569 21.0536 19.0832 21.1086C19.0094 21.1637 18.905 21.1485 18.8499 21.0747L18.5687 20.698L18.2539 21.0809C18.1954 21.152 18.0904 21.1622 18.0193 21.1038C17.9482 21.0453 17.9379 20.9403 17.9964 20.8692L18.3634 20.4229L17.9916 19.9247C17.9365 19.851 17.9517 19.7465 18.0254 19.6915C18.0992 19.6364 18.2036 19.6516 18.2587 19.7254L18.4422 19.9712L18.4502 19.7442C18.4535 19.6522 18.5307 19.5802 18.6227 19.5835ZM20.0144 19.5835C20.1063 19.5867 20.1783 19.6639 20.175 19.7559L20.1693 19.9191L20.3131 19.7442C20.3715 19.6731 20.4766 19.6628 20.5477 19.7213C20.6188 19.7798 20.629 19.8848 20.5705 19.9559L20.1784 20.4328L20.5087 20.8754C20.5638 20.9491 20.5486 21.0536 20.4748 21.1086C20.4011 21.1637 20.2966 21.1485 20.2416 21.0747L19.9604 20.698L19.6455 21.0809C19.5871 21.152 19.4821 21.1622 19.411 21.1038C19.3399 21.0453 19.3296 20.9403 19.3881 20.8692L19.755 20.4229L19.3832 19.9247C19.3282 19.851 19.3434 19.7465 19.4171 19.6915C19.4909 19.6364 19.5953 19.6516 19.6504 19.7254L19.8339 19.9712L19.8419 19.7442C19.8452 19.6522 19.9224 19.5802 20.0144 19.5835ZM22.8394 19.5835C22.9313 19.5867 23.0033 19.6639 23 19.7559L22.9939 19.9297L23.1464 19.7442C23.2049 19.6731 23.3099 19.6628 23.381 19.7213C23.4521 19.7798 23.4623 19.8848 23.4039 19.9559L23.0074 20.4381L23.3337 20.8754C23.3888 20.9491 23.3736 21.0536 23.2998 21.1086C23.2261 21.1637 23.1216 21.1485 23.0666 21.0747L22.7893 20.7033L22.4789 21.0809C22.4204 21.152 22.3154 21.1622 22.2443 21.1038C22.1732 21.0453 22.1629 20.9403 22.2214 20.8692L22.584 20.4282L22.2082 19.9247C22.1532 19.851 22.1683 19.7465 22.2421 19.6915C22.3159 19.6364 22.4203 19.6516 22.4754 19.7254L22.6589 19.9712L22.6669 19.7442C22.6702 19.6522 22.7474 19.5802 22.8394 19.5835ZM21.4457 19.5834C21.5377 19.5856 21.6106 19.6619 21.6084 19.754L21.6044 19.9271L21.7547 19.7442C21.8132 19.6731 21.9182 19.6628 21.9893 19.7213C22.0604 19.7798 22.0707 19.8848 22.0122 19.9559L21.6174 20.4361L21.9425 20.876C21.9972 20.95 21.9816 21.0544 21.9075 21.1091C21.8335 21.1638 21.7292 21.1481 21.6744 21.0741L21.3991 20.7016L21.0872 21.0809C21.0287 21.152 20.9237 21.1622 20.8526 21.1038C20.7815 21.0453 20.7713 20.9403 20.8297 20.8692L21.1948 20.4252L20.8244 19.9241C20.7697 19.8501 20.7854 19.7457 20.8594 19.691C20.9334 19.6363 21.0378 19.652 21.0925 19.726L21.27 19.9661L21.2752 19.7461C21.2773 19.6541 21.3537 19.5813 21.4457 19.5834Z" fill="black"/>
<path fill-rule="evenodd" clip-rule="evenodd" d="M11.5579 21.6334L14.6329 21.6584V19.7334L11.1162 19.5584L11.5579 21.6334ZM11.4079 18.9667L14.6829 19.2917L14.6579 17.9251L11.4579 16.6501L11.4079 18.9751V18.9667ZM12.0745 16.2417L14.5829 17.4584L14.9412 17.0834C14.9412 17.0834 14.7079 16.9251 14.7245 16.7751C14.7245 16.6334 14.9579 16.6084 14.9579 16.4417C14.9579 16.3001 14.7079 16.2751 14.6995 16.1334C14.6829 15.9667 14.8995 15.8001 14.8995 15.8001L12.6329 13.8251L12.0662 16.2417H12.0745ZM28.5745 21.6584H25.3245L25.2995 19.7751L28.8662 19.5084L28.5745 21.6584ZM25.3495 19.3334L29.2079 18.8667L28.3745 16.6417L25.3245 17.9417L25.3495 19.3334ZM28.1579 16.0334L25.3745 17.5001C25.3329 17.3334 25.2995 17.1834 25.1079 17.0584C25.1079 17.0584 25.2745 16.9584 25.2745 16.7917C25.2745 16.6251 25.0579 16.5917 25.0579 16.5001C25.0579 16.4084 25.2579 16.3167 25.2745 16.0917C25.2495 15.9417 25.0579 15.7251 25.0912 15.6834L27.2579 14.0334L28.1579 16.0334ZM22.1245 19.2917L23.5162 19.2334L23.5412 18.6751L22.1245 19.2917ZM17.8745 19.2501L16.4162 19.2084V18.6251L17.8829 19.2501H17.8745ZM17.8745 19.0834L16.4162 18.3334V17.3501C16.4162 17.3501 16.2495 17.3751 16.2662 17.1834C16.2745 16.7751 17.3412 17.9251 17.8829 18.3001L17.8745 19.0834ZM22.1245 18.9917V18.3501C22.1245 18.3501 23.4412 17.1667 23.7162 16.9417C23.7162 17.1917 23.5662 17.3751 23.5662 17.3751V18.3084L22.1245 18.9917ZM13.5829 13.6501L15.0662 15.2917C15.0995 15.1417 15.4412 15.1167 15.7829 15.1417C16.1162 15.1667 16.3912 15.1167 16.3912 15.3584C16.3912 15.6001 16.2245 15.5667 16.2245 15.7417C16.2245 15.9167 16.4745 15.9001 16.4745 16.1167C16.4745 16.3334 16.2912 16.2917 16.2912 16.4584C16.2912 16.6001 16.4912 16.6084 16.4912 16.6084L17.8745 17.9501V16.5167L15.0245 12.0417L13.5829 13.6501ZM15.8662 11.9501L17.8079 15.9084C17.8079 15.9084 17.8245 12.2584 18.1495 12.0667L17.6079 11.0667L15.8662 11.9501ZM24.2829 12.1084L22.1162 15.9584V14.3334C22.1162 14.3334 22.2995 14.0667 22.0162 14.0834C21.7329 14.1084 21.3912 14.0667 21.3912 14.0667L22.2579 11.0167L24.2829 12.1001V12.1084ZM26.4995 13.7501C26.4745 13.7917 25.0412 15.2501 25.0412 15.2501C24.9745 15.0834 24.5412 15.1667 24.1245 15.1667C23.7162 15.1667 23.6579 15.3001 23.6829 15.4084C23.7245 15.6834 23.8662 15.4751 23.8662 15.7417C23.8662 16.0001 23.6662 15.9084 23.6412 16.0917C23.6662 16.3167 23.9579 16.2584 23.7829 16.4251L22.1245 18.0251V16.5084L25.2162 11.7084L26.4995 13.7501Z" fill="#EF7D08"/>
<path fill-rule="evenodd" clip-rule="evenodd" d="M19.1497 22.3667C18.458 23.5167 16.5997 23.175 16.158 22.3667C16.033 22.3333 16.108 17.4083 16.108 17.4083C16.108 17.4083 15.8997 17.3167 15.8913 17.1583C15.883 17.0083 16.1747 16.9917 16.1747 16.8C16.1747 16.6083 15.8747 16.6833 15.8663 16.4833C15.8663 16.3 16.1913 16.3167 16.1747 16.15C16.158 15.95 15.8163 15.9833 15.7997 15.8C15.7997 15.6583 16.0497 15.5333 16.1163 15.4667C16.0386 15.4685 15.9608 15.4685 15.883 15.4667L15.3497 15.475C14.9663 15.475 15.3497 15.5583 15.3497 15.775C15.3497 15.9167 15.158 16.0167 15.1413 16.1333C15.133 16.2667 15.408 16.35 15.4163 16.5083C15.4163 16.6417 15.1413 16.65 15.1497 16.7833C15.1663 16.9917 15.3997 17.0417 15.3913 17.175C15.3913 17.3 15.0913 17.35 15.083 17.45C15.0997 17.65 15.133 22.5167 15.133 22.5167C15.608 25 18.3663 25.625 19.1497 22.3667ZM20.9747 22.3667C21.6663 23.5167 23.5247 23.175 23.958 22.3667C24.0913 22.3333 24.0163 17.4083 24.0163 17.4083C24.0163 17.4083 24.2247 17.3167 24.233 17.1583C24.2413 17.0083 23.9663 16.9917 23.9663 16.8C23.9663 16.6083 24.2497 16.6833 24.2497 16.4833C24.2497 16.3 23.958 16.3167 23.9747 16.1333C23.9913 15.9417 24.2247 15.9667 24.233 15.7833C24.2413 15.625 24.0913 15.5333 24.0163 15.4667H24.2413L24.7747 15.475C25.1497 15.475 24.7747 15.5583 24.7747 15.775C24.7747 15.9167 24.9663 16.0167 24.983 16.1333C24.983 16.2667 24.7163 16.35 24.708 16.5083C24.708 16.6417 24.983 16.65 24.9747 16.7833C24.958 16.9917 24.7247 17.0417 24.7247 17.175C24.733 17.3 25.033 17.35 25.033 17.45L24.9913 22.5167C24.5163 25 21.7497 25.625 20.9747 22.3667Z" fill="#FF0000"/>
<path fill-rule="evenodd" clip-rule="evenodd" d="M16.2128 15.4258C16.2295 15.4649 16.2207 15.5103 16.1906 15.5404C16.1666 15.5644 16.1306 15.59 16.1006 15.6113L16.0997 15.6119C16.0972 15.6137 16.0947 15.6155 16.0921 15.6173C16.0608 15.6395 16.0291 15.6621 15.9992 15.6862C15.9666 15.7126 15.9408 15.7373 15.9238 15.76C15.9104 15.778 15.9061 15.7896 15.9049 15.7959C15.9066 15.8022 15.9112 15.8095 15.9258 15.8204C15.949 15.8376 15.9813 15.852 16.0299 15.8735L16.0308 15.8739C16.0734 15.8927 16.1306 15.918 16.1773 15.9556C16.2285 15.9967 16.2718 16.0562 16.2791 16.1406C16.287 16.2235 16.2492 16.2842 16.203 16.3249C16.165 16.3583 16.1159 16.3828 16.0806 16.4003C16.0784 16.4015 16.0761 16.4026 16.074 16.4036C16.0318 16.4247 16.0048 16.4392 15.9867 16.4553C15.974 16.4665 15.9715 16.4732 15.9712 16.4814C15.9723 16.4979 15.9772 16.5035 15.9848 16.5098C15.9993 16.5217 16.0215 16.5316 16.0627 16.548C16.0647 16.5488 16.0666 16.5496 16.0687 16.5504C16.1027 16.5638 16.1534 16.5839 16.1942 16.6171C16.2449 16.6585 16.2795 16.7186 16.2795 16.8C16.2795 16.9569 16.1563 17.0372 16.0901 17.0803C16.0892 17.0809 16.0883 17.0815 16.0874 17.0821C16.0842 17.0842 16.0811 17.0862 16.0781 17.0882C16.0431 17.111 16.0212 17.1252 16.0057 17.1405C15.9985 17.1475 15.9964 17.1514 15.996 17.1523C15.9959 17.1523 15.996 17.1517 15.996 17.1526L15.996 17.1529C15.9978 17.187 16.0229 17.2248 16.0687 17.2616C16.0897 17.2784 16.1109 17.2917 16.1271 17.3008C16.1351 17.3053 16.1415 17.3086 16.1457 17.3107C16.1478 17.3117 16.1494 17.3125 16.1502 17.3128L16.1508 17.3131L16.1507 17.3131M16.0036 17.4698C15.984 17.4579 15.9613 17.4425 15.9382 17.4239C15.8778 17.3754 15.7946 17.2882 15.788 17.164C15.7837 17.0866 15.8207 17.0301 15.8598 16.9917C15.8913 16.9608 15.932 16.9345 15.9626 16.9147C15.9665 16.9122 15.9701 16.9099 15.9736 16.9076C16.0519 16.8565 16.0712 16.8327 16.0712 16.8C16.0712 16.7856 16.0682 16.7833 16.0625 16.7786C16.0492 16.7677 16.0281 16.7584 15.9858 16.7416C15.9845 16.7411 15.9831 16.7406 15.9817 16.74C15.9469 16.7262 15.8949 16.7056 15.8525 16.6707C15.802 16.6292 15.7663 16.5694 15.7629 16.4877C15.7629 16.4863 15.7628 16.4848 15.7628 16.4834C15.7628 16.4009 15.8016 16.341 15.8483 16.2995C15.8896 16.2629 15.9411 16.2372 15.9779 16.2187C15.9789 16.2183 15.9799 16.2178 15.9808 16.2173C16.0244 16.1955 16.0496 16.1824 16.0654 16.1684C16.0691 16.1651 16.071 16.1629 16.0718 16.1618C16.0718 16.1615 16.0717 16.161 16.0717 16.1604L16.0715 16.1587C16.0703 16.1435 16.0647 16.1324 16.0467 16.1179C16.0246 16.1001 15.9927 16.0848 15.9457 16.0641C15.9429 16.0628 15.94 16.0615 15.937 16.0602C15.8969 16.0426 15.8443 16.0195 15.8014 15.9875C15.7511 15.95 15.7042 15.8935 15.6966 15.8095C15.6963 15.8063 15.6962 15.8032 15.6962 15.8C15.6962 15.7335 15.7254 15.6774 15.7571 15.6351C15.774 15.6125 15.7934 15.5914 15.8137 15.572L15.3832 15.5787C15.4191 15.6263 15.4545 15.6922 15.4545 15.775C15.4545 15.8905 15.3772 15.9791 15.331 16.032L15.3309 16.0321C15.3254 16.0383 15.3202 16.0443 15.3153 16.0499C15.2953 16.0726 15.2793 16.0908 15.2659 16.1093C15.255 16.1243 15.2497 16.1345 15.2472 16.141C15.2488 16.1442 15.2523 16.1499 15.2596 16.1584C15.2773 16.1792 15.3031 16.2008 15.3399 16.2315L15.3401 16.2316C15.3732 16.2592 15.4155 16.2945 15.4493 16.335C15.4839 16.3765 15.5173 16.4323 15.521 16.5029C15.5211 16.5047 15.5212 16.5066 15.5212 16.5084C15.5212 16.5836 15.4802 16.6357 15.4413 16.6685C15.407 16.6974 15.3645 16.7196 15.3339 16.7355C15.3322 16.7364 15.3305 16.7373 15.3288 16.7382C15.2921 16.7574 15.2706 16.7694 15.2572 16.7812C15.2563 16.7819 15.2556 16.7826 15.255 16.7832C15.2622 16.8401 15.2961 16.8796 15.3515 16.9311C15.3552 16.9345 15.3592 16.9382 15.3635 16.9421C15.3878 16.9644 15.4186 16.9928 15.442 17.0226C15.4716 17.0603 15.4993 17.112 15.4961 17.1784C15.4948 17.2535 15.4488 17.3054 15.4121 17.3363C15.3743 17.3682 15.3271 17.394 15.29 17.4138C15.2845 17.4167 15.2792 17.4196 15.2741 17.4223C15.2404 17.4402 15.215 17.4537 15.1955 17.4675C15.193 17.4693 15.1909 17.4709 15.1891 17.4723C15.1933 17.5791 15.1979 17.9001 15.2027 18.3249C15.2081 18.8094 15.2139 19.4366 15.2191 20.0575C15.2243 20.6784 15.229 21.293 15.2324 21.7524C15.234 21.9821 15.2354 22.173 15.2364 22.3065L15.2378 22.5064C15.4716 23.712 16.2503 24.436 17.0337 24.4909C17.7287 24.5397 18.4894 24.0625 18.9167 22.8029C18.5371 23.1269 18.0306 23.2386 17.5534 23.205C16.9349 23.1614 16.3257 22.8706 16.0758 22.4319C16.0709 22.4263 16.0675 22.4213 16.0655 22.4182C16.0571 22.4052 16.052 22.3922 16.049 22.3833C16.0427 22.3649 16.0382 22.3435 16.0347 22.3227C16.0276 22.2799 16.0217 22.2213 16.0167 22.1516C16.0066 22.0111 15.9993 21.8139 15.994 21.5803C15.9834 21.1125 15.9811 20.4927 15.9826 19.8748C15.9842 19.2567 15.9897 18.6397 15.9947 18.1773C15.9973 17.9461 15.9997 17.7535 16.0015 17.6187C16.0024 17.5559 16.0031 17.5056 16.0036 17.4698ZM15.1337 22.5167C15.0295 22.5174 15.0295 22.5174 15.0295 22.5174L15.028 22.3079C15.0271 22.1745 15.0257 21.9836 15.024 21.7539C15.0206 21.2946 15.016 20.68 15.0107 20.0593C15.0055 19.4384 14.9998 18.8115 14.9943 18.3273C14.9888 17.8393 14.9836 17.5038 14.9799 17.4587C14.9794 17.4529 14.9794 17.4472 14.9799 17.4414C14.9862 17.3657 15.0439 17.3195 15.0752 17.2974C15.1065 17.2753 15.1455 17.2547 15.1776 17.2376C15.1825 17.235 15.1873 17.2325 15.1919 17.23C15.2308 17.2092 15.2592 17.1928 15.2778 17.1771C15.283 17.1727 15.2862 17.1694 15.288 17.1674C15.2879 17.167 15.2877 17.1666 15.2875 17.166C15.2867 17.1638 15.2843 17.1591 15.2782 17.1512C15.2661 17.1359 15.25 17.121 15.2253 17.0982C15.2204 17.0936 15.2152 17.0888 15.2096 17.0836C15.1488 17.0271 15.0582 16.9386 15.0465 16.7917L15.0464 16.7899C15.0416 16.7136 15.0804 16.6592 15.1197 16.6246C15.1542 16.5943 15.1979 16.5715 15.2288 16.5554C15.23 16.5548 15.2311 16.5542 15.2323 16.5536C15.2692 16.5343 15.2919 16.5219 15.307 16.5092C15.3089 16.5076 15.3104 16.5063 15.3115 16.5052C15.309 16.4967 15.303 16.4849 15.2893 16.4685C15.2696 16.4447 15.2421 16.4212 15.2066 16.3915C15.2046 16.3899 15.2026 16.3882 15.2005 16.3865C15.1694 16.3607 15.1308 16.3285 15.101 16.2935C15.0687 16.2556 15.0335 16.1993 15.038 16.1269C15.0382 16.1241 15.0385 16.1214 15.0389 16.1187C15.0466 16.0648 15.0731 16.0202 15.0973 15.9869C15.117 15.9597 15.1412 15.9323 15.1616 15.9091C15.1659 15.9042 15.17 15.8996 15.1739 15.8951C15.2278 15.8334 15.2462 15.8012 15.2462 15.775C15.2462 15.7532 15.2368 15.7296 15.2144 15.701C15.1972 15.679 15.1799 15.6625 15.1603 15.644C15.1517 15.6358 15.1426 15.6272 15.1329 15.6175L15.1326 15.6171C15.122 15.6066 15.0988 15.5834 15.0862 15.554C15.0787 15.5365 15.0704 15.5067 15.0804 15.4721C15.0907 15.4365 15.1147 15.4148 15.1335 15.403C15.1649 15.3835 15.2033 15.3781 15.2296 15.3754C15.2609 15.3722 15.3008 15.3709 15.3495 15.3709L15.882 15.3626C15.8834 15.3625 15.8847 15.3625 15.886 15.3626C15.9622 15.3643 16.0384 15.3643 16.1146 15.3626C16.1572 15.3616 16.196 15.3866 16.2128 15.4258M15.3146 16.5017C15.3146 16.5017 15.3145 16.5019 15.3142 16.5022C15.3144 16.5019 15.3145 16.5017 15.3146 16.5017ZM23.9196 15.4297C23.935 15.3893 23.9737 15.3625 24.017 15.3625H24.242L24.2436 15.3626L24.7761 15.3709C24.8238 15.3709 24.863 15.3722 24.8939 15.3755C24.9197 15.3782 24.9581 15.3836 24.9895 15.4036C25.0084 15.4157 25.0318 15.4375 25.0417 15.4726C25.0513 15.5067 25.0434 15.5359 25.0361 15.5533C25.0238 15.5825 25.0011 15.6057 24.9907 15.6163L24.9904 15.6166C24.9809 15.6264 24.972 15.635 24.9635 15.6432C24.9444 15.6618 24.9276 15.6781 24.9108 15.7001C24.889 15.7286 24.8795 15.7525 24.8795 15.775C24.8795 15.8012 24.8979 15.8334 24.9517 15.8951C24.9556 15.8996 24.9597 15.9042 24.964 15.9091C24.9845 15.9323 25.0086 15.9597 25.0284 15.9869C25.0525 16.0202 25.0791 16.0648 25.0868 16.1187C25.0875 16.1235 25.0878 16.1285 25.0878 16.1334C25.0878 16.2032 25.0526 16.2571 25.0206 16.2941C24.9915 16.3278 24.9544 16.3591 24.9242 16.3846C24.9216 16.3868 24.9191 16.3889 24.9166 16.391C24.8818 16.4204 24.8551 16.444 24.8359 16.4675C24.8225 16.484 24.8165 16.4961 24.8141 16.5051C24.8152 16.5062 24.8167 16.5076 24.8186 16.5092C24.8337 16.5219 24.8565 16.5343 24.8934 16.5536L24.8968 16.5554C24.9277 16.5715 24.9714 16.5943 25.0059 16.6246C25.0453 16.6592 25.0841 16.7136 25.0793 16.7899L25.0792 16.7917C25.0674 16.9388 24.9767 17.0273 24.9143 17.0842C24.9072 17.0907 24.9007 17.0967 24.8946 17.1022C24.8711 17.1234 24.855 17.1379 24.8422 17.1534C24.8375 17.1591 24.8345 17.1635 24.8326 17.1668C24.8349 17.1691 24.8382 17.1722 24.8427 17.1759C24.8631 17.1924 24.8925 17.2091 24.9317 17.23C24.9353 17.2319 24.9389 17.2339 24.9427 17.2359C24.9757 17.2534 25.0161 17.2749 25.0482 17.2984C25.0793 17.3212 25.1378 17.3705 25.1378 17.45L25.1378 17.4509L25.0962 22.5176C25.0961 22.5239 25.0955 22.5301 25.0943 22.5363C24.8509 23.8087 24.0127 24.6351 23.1034 24.6988C22.1827 24.7632 21.2673 24.0446 20.874 22.3908L20.9753 22.3667L21.0646 22.313C21.3839 22.8439 21.9764 23.0381 22.5565 22.9972C23.1425 22.9558 23.6736 22.678 23.8669 22.3175C23.8693 22.3128 23.8722 22.3084 23.8753 22.3042C23.8763 22.3001 23.8774 22.2945 23.8787 22.2872C23.8846 22.2545 23.8903 22.204 23.8956 22.136C23.9061 22.001 23.914 21.8081 23.9199 21.5753C23.9316 21.1103 23.9347 20.4927 23.9337 19.8752C23.9326 19.2579 23.9274 18.6416 23.9225 18.1795C23.92 17.9485 23.9176 17.7561 23.9158 17.6215C23.9149 17.5541 23.9142 17.5012 23.9136 17.4652L23.9128 17.41C23.9128 17.41 23.9128 17.41 24.017 17.4084L23.9128 17.41C23.9122 17.3683 23.9366 17.3301 23.9747 17.3132C23.9747 17.3132 23.9747 17.3132 23.9747 17.3132C23.9747 17.3132 23.9748 17.3131 23.9748 17.3131C23.9749 17.3131 23.9748 17.3131 23.9748 17.3131C23.9749 17.3131 23.9749 17.3131 23.9749 17.3131C23.975 17.3131 23.9749 17.3131 23.9749 17.3131C23.975 17.3131 23.975 17.313 23.975 17.313L23.9754 17.3128C23.9763 17.3125 23.9778 17.3117 23.9799 17.3107C23.9841 17.3086 23.9906 17.3053 23.9986 17.3008C24.0148 17.2917 24.036 17.2784 24.0569 17.2616C24.1027 17.2248 24.1278 17.187 24.1296 17.1529L24.1297 17.1526C24.1298 17.1506 24.1295 17.1504 24.1293 17.1499C24.1288 17.1487 24.1268 17.1449 24.1203 17.1382C24.106 17.1233 24.0858 17.1093 24.0526 17.0863C24.0499 17.0844 24.0471 17.0825 24.0442 17.0805L24.0426 17.0794C23.9789 17.0353 23.8628 16.955 23.8628 16.8C23.8628 16.7209 23.8944 16.6613 23.943 16.6192C23.9818 16.5855 24.0302 16.565 24.0617 16.5516C24.0638 16.5507 24.0659 16.5498 24.0678 16.549C24.1064 16.5326 24.1247 16.5234 24.1361 16.5131C24.1409 16.5087 24.1462 16.5039 24.1462 16.4834C24.1462 16.4701 24.1427 16.4622 24.1314 16.4508C24.1156 16.435 24.0924 16.4209 24.0538 16.3982L24.0507 16.3964C24.0181 16.3772 23.9709 16.3495 23.9347 16.3103C23.8922 16.2643 23.8645 16.2027 23.8716 16.1242M24.1221 17.4698C24.1226 17.5056 24.1233 17.5559 24.1241 17.6187C24.1259 17.7535 24.1283 17.9461 24.1308 18.1773C24.1357 18.6397 24.141 19.2567 24.142 19.8749C24.143 20.4928 24.1399 21.1127 24.1282 21.5805C24.1223 21.8142 24.1142 22.0115 24.1033 22.1522C24.0979 22.222 24.0915 22.2808 24.0838 22.3239C24.0801 22.3448 24.0753 22.3666 24.0684 22.3854C24.065 22.3945 24.0595 22.4077 24.0505 22.4208C24.0484 22.4238 24.0455 22.4278 24.0415 22.4324C23.7953 22.8711 23.188 23.1615 22.5712 23.205C22.0941 23.2387 21.5871 23.1266 21.2073 22.8015C21.6316 24.0621 22.3926 24.5397 23.0889 24.4909C23.8734 24.436 24.6541 23.7118 24.8879 22.5063L24.9293 17.4697C24.9281 17.4687 24.9267 17.4677 24.9251 17.4665C24.9058 17.4524 24.8791 17.4381 24.8422 17.4184L24.8335 17.4138C24.7967 17.3941 24.7496 17.3686 24.7113 17.3375C24.6741 17.3072 24.6264 17.2566 24.6214 17.182C24.6212 17.1797 24.6212 17.1774 24.6212 17.175C24.6212 17.1082 24.6514 17.0572 24.6819 17.0204C24.7053 16.9922 24.7355 16.965 24.7598 16.9431C24.7648 16.9386 24.7695 16.9344 24.7738 16.9304C24.8297 16.8794 24.8635 16.8399 24.8707 16.7832C24.87 16.7826 24.8693 16.7819 24.8684 16.7812C24.855 16.7694 24.8335 16.7574 24.7968 16.7382C24.7952 16.7373 24.7935 16.7364 24.7918 16.7355C24.7612 16.7196 24.7186 16.6974 24.6844 16.6685C24.6454 16.6357 24.6045 16.5836 24.6045 16.5084C24.6045 16.5073 24.6045 16.5062 24.6045 16.5051C24.6046 16.5044 24.6046 16.5036 24.6046 16.5029C24.6083 16.4332 24.6404 16.3777 24.6743 16.336C24.7076 16.2952 24.7491 16.2599 24.782 16.232L24.7852 16.2293C24.8199 16.1999 24.845 16.1786 24.8631 16.1578C24.871 16.1486 24.8752 16.1422 24.8773 16.1382C24.8744 16.1317 24.8692 16.1223 24.8598 16.1093C24.8464 16.0908 24.8304 16.0726 24.8104 16.0499C24.8054 16.0442 24.8002 16.0383 24.7948 16.0321L24.7946 16.032C24.7485 15.9791 24.6712 15.8905 24.6712 15.775C24.6712 15.6924 24.7059 15.6264 24.7414 15.5787L24.2738 15.5714C24.3127 15.6282 24.3423 15.7002 24.3377 15.7885C24.3309 15.9331 24.2299 15.9995 24.1715 16.0379C24.1693 16.0394 24.1671 16.0408 24.1651 16.0422C24.1013 16.0843 24.0827 16.1014 24.0791 16.1424L24.0791 16.1428C24.0779 16.1559 24.0803 16.1609 24.0878 16.169C24.1005 16.1827 24.1212 16.1962 24.1594 16.2186C24.1613 16.2197 24.1632 16.2209 24.1652 16.222C24.1972 16.2408 24.2426 16.2674 24.2787 16.3035C24.3215 16.3463 24.3545 16.405 24.3545 16.4834C24.3545 16.5628 24.3243 16.6237 24.276 16.6674C24.2358 16.7039 24.1856 16.7253 24.1532 16.7391L24.1495 16.7407C24.1098 16.7576 24.0913 16.7663 24.0795 16.7765L24.0792 16.7768C24.0748 16.7806 24.0712 16.7838 24.0712 16.8C24.0712 16.8355 24.0907 16.8593 24.1627 16.9092C24.166 16.9114 24.1694 16.9138 24.173 16.9163C24.2019 16.9361 24.2407 16.9627 24.2707 16.9939C24.3083 17.0332 24.3418 17.0891 24.3377 17.1642L24.2337 17.1584L24.3377 17.1639C24.3377 17.164 24.3377 17.1641 24.3377 17.1642C24.331 17.2883 24.2479 17.3754 24.1875 17.4239C24.1643 17.4425 24.1416 17.4579 24.1221 17.4698ZM24.8795 16.1326C24.8795 16.1326 24.8795 16.1327 24.8795 16.1328L24.8795 16.1326ZM24.9376 17.4773C24.9376 17.4773 24.9372 17.4769 24.9366 17.4761C24.9374 17.4769 24.9377 17.4773 24.9376 17.4773ZM24.8111 16.5017C24.8111 16.5017 24.8113 16.5019 24.8115 16.5022C24.8112 16.5019 24.8111 16.5017 24.8111 16.5017ZM16.2437 22.3065C16.2427 22.3022 16.2416 22.2962 16.2402 22.2884C16.2347 22.2554 16.2294 22.2047 16.2245 22.1366C16.2148 22.0014 16.2075 21.8084 16.2023 21.5756C16.1917 21.1105 16.1894 20.4928 16.1909 19.8753C16.1925 19.258 16.198 18.6417 16.2031 18.1796C16.2056 17.9486 16.208 17.7561 16.2098 17.6215C16.2107 17.5541 16.2115 17.5012 16.212 17.4652L16.2128 17.41C16.2128 17.41 16.2128 17.41 16.1087 17.4084M16.2461 22.3158C16.2461 22.3158 16.246 22.3157 16.246 22.3157C16.2462 22.3161 16.2462 22.3162 16.2461 22.3158ZM16.2437 22.3065C16.246 22.3098 16.2481 22.3132 16.2501 22.3168C16.4474 22.6779 16.9812 22.9558 17.5681 22.9972C18.1493 23.0381 18.7418 22.8439 19.0611 22.313C19.0876 22.269 19.1422 22.2508 19.1898 22.2703C19.2374 22.2898 19.2636 22.3411 19.2516 22.3911C18.8541 24.0446 17.9388 24.7632 17.0191 24.6988C16.1107 24.6351 15.2747 23.8085 15.0313 22.5363C15.0302 22.5301 15.0295 22.5237 15.0295 22.5174L15.1337 22.5167" fill="black"/>
<path fill-rule="evenodd" clip-rule="evenodd" d="M18.4755 24.6334H21.5838C21.6088 24.6084 20.8838 23.55 20.0338 23.6334C19.0755 23.6584 18.4255 24.6334 18.4755 24.6334ZM28.3838 24.55H24.1338C24.1338 24.55 24.6838 24.2334 24.8338 23.9334C25.1088 24.0834 25.0338 24.2334 25.5838 24.2584C26.1338 24.2834 26.6588 23.6334 27.1838 23.6584C27.7088 23.6834 28.3838 24.575 28.3838 24.5584V24.55ZM11.6338 24.55H15.8838C15.8838 24.55 15.3338 24.2334 15.1838 23.9334C14.9088 24.0834 14.9838 24.2334 14.4338 24.2584C13.8838 24.2834 13.3505 23.6334 12.8338 23.6584C12.3088 23.6834 11.6338 24.575 11.6338 24.5584V24.55ZM11.9505 23.2167L14.9755 23.2417C14.9755 23.2417 14.7838 22.825 14.7588 22.3167C13.9755 22.05 13.3421 22.9 12.7755 22.925C12.2171 22.95 11.6338 22.3167 11.6338 22.3167L11.9505 23.2167ZM28.1171 23.2167L25.0838 23.2417C25.0838 23.2417 25.2755 22.825 25.3005 22.3167C26.0838 22.05 26.7171 22.9 27.2838 22.925C27.8421 22.95 28.4255 22.3167 28.4255 22.3167L28.1088 23.2167H28.1171ZM19.2505 23.25L20.7838 23.2084C20.7838 23.2084 20.8088 22.7417 20.0088 22.7417C19.2088 22.7417 19.2755 23.275 19.2505 23.25ZM18.3171 22.5917C18.6098 22.4637 18.8506 22.2405 19.0005 21.9584L17.9505 21.9834C17.9505 21.9834 17.4671 22.275 17.2255 22.5917H18.3171ZM21.7171 22.5917C21.4245 22.4637 21.1836 22.2405 21.0338 21.9584L22.0838 21.9834C22.0838 21.9834 22.5671 22.275 22.8088 22.5917H21.7171Z" fill="#083D9C"/>
<path fill-rule="evenodd" clip-rule="evenodd" d="M19.1404 21.8716L19.0736 21.9974C18.9149 22.2961 18.6599 22.5324 18.35 22.668L18.3341 22.6749H17.0565L17.1587 22.5411C17.2867 22.3733 17.4755 22.2157 17.6283 22.1019C17.7054 22.0444 17.7747 21.9972 17.8249 21.9642C17.85 21.9477 17.8703 21.9347 17.8844 21.9259C17.8915 21.9214 17.897 21.918 17.9008 21.9157L17.9052 21.913L17.9064 21.9122L17.9067 21.912L17.9068 21.912C17.9069 21.912 17.9069 21.9119 17.95 21.9833L17.9068 21.912L17.9259 21.9005L19.1404 21.8716ZM17.9746 22.0661C17.9741 22.0664 17.9736 22.0667 17.973 22.067C17.9598 22.0753 17.9405 22.0876 17.9165 22.1034C17.8684 22.135 17.8018 22.1805 17.7279 22.2355C17.6238 22.313 17.508 22.4076 17.4088 22.5083H18.2989C18.5224 22.4071 18.7129 22.2465 18.8502 22.0452L17.9746 22.0661ZM20.8929 21.8716L22.1074 21.9005L22.1264 21.9119L22.0833 21.9833C22.1264 21.9119 22.1263 21.9119 22.1264 21.9119L22.1269 21.9122L22.128 21.913L22.1324 21.9157C22.1362 21.918 22.1418 21.9214 22.1488 21.9259C22.163 21.9347 22.1833 21.9477 22.2084 21.9642C22.2585 21.9972 22.3279 22.0444 22.405 22.1019C22.5577 22.2157 22.7465 22.3733 22.8745 22.5411L22.9767 22.6749H21.6992L21.6832 22.668C21.3733 22.5324 21.1184 22.2961 20.9597 21.9974L20.8929 21.8716ZM22.0587 22.0661C22.0592 22.0664 22.0597 22.0667 22.0602 22.067C22.0735 22.0753 22.0928 22.0876 22.1168 22.1034C22.1648 22.135 22.2314 22.1805 22.3054 22.2355C22.4094 22.313 22.5253 22.4076 22.6245 22.5083H21.7343C21.5108 22.4071 21.3204 22.2465 21.183 22.0452L22.0587 22.0661ZM13.6448 22.4386C13.9748 22.2547 14.3573 22.0921 14.7852 22.2377L14.8387 22.256L14.8415 22.3125C14.8536 22.5578 14.906 22.782 14.9557 22.9455C14.9805 23.027 15.0046 23.0929 15.0222 23.1382C15.0311 23.1609 15.0383 23.1783 15.0433 23.19C15.0458 23.1958 15.0477 23.2002 15.049 23.203L15.0503 23.2061L15.0506 23.2067L15.0507 23.2068L15.1055 23.326L11.8908 23.2995L11.5547 22.3443L11.6945 22.2602C11.6946 22.2601 11.6946 22.2601 11.6946 22.2601L11.6948 22.2604L11.6958 22.2615C11.6968 22.2625 11.6983 22.2641 11.7004 22.2663C11.7044 22.2706 11.7106 22.277 11.7188 22.2852C11.7351 22.3018 11.7592 22.3256 11.7899 22.3542C11.8515 22.4114 11.9392 22.4875 12.0434 22.5625C12.2557 22.7153 12.5215 22.8529 12.7712 22.8417C12.8942 22.8363 13.0267 22.7855 13.1752 22.708C13.2622 22.6625 13.3471 22.6123 13.4359 22.5597C13.5025 22.5203 13.5712 22.4796 13.6448 22.4386ZM11.8225 22.6031L12.0092 23.1338L14.8512 23.1573C14.8349 23.1132 14.8158 23.0581 14.7963 22.994C14.7479 22.8349 14.6963 22.619 14.6787 22.3793C14.3436 22.2874 14.0341 22.4125 13.7259 22.5842C13.6615 22.6201 13.5949 22.6594 13.5283 22.6987C13.4344 22.7542 13.3404 22.8097 13.2523 22.8557C13.0982 22.9362 12.9391 23.0011 12.7786 23.0082C12.4701 23.022 12.1651 22.8554 11.9461 22.6978C11.9018 22.6659 11.8604 22.6339 11.8225 22.6031ZM25.3796 22.3793C25.3619 22.619 25.3104 22.8349 25.262 22.994C25.2425 23.0581 25.2234 23.1132 25.2071 23.1573L28.0491 23.1338L28.2358 22.6031C28.1979 22.6339 28.1565 22.6659 28.1122 22.6978C27.8932 22.8554 27.5881 23.022 27.2796 23.0082C27.1192 23.0011 26.9601 22.9362 26.8059 22.8557C26.7179 22.8097 26.6239 22.7542 26.5299 22.6987C26.4633 22.6594 26.3967 22.6201 26.3323 22.5842C26.0242 22.4125 25.7147 22.2874 25.3796 22.3793ZM28.3638 22.2602L28.5036 22.3443L28.1869 23.2443L28.117 23.2197L28.1173 23.2999L28.1166 23.2999L24.9527 23.326M28.3638 22.2602C28.3637 22.2601 28.3637 22.2601 28.3637 22.2601L28.3638 22.2602ZM28.3637 22.2601L28.3635 22.2604L28.3624 22.2615C28.3615 22.2625 28.36 22.2641 28.3579 22.2663C28.3538 22.2706 28.3476 22.277 28.3395 22.2852C28.3232 22.3018 28.2991 22.3256 28.2683 22.3542C28.2068 22.4114 28.1191 22.4875 28.0148 22.5625C27.8026 22.7153 27.5368 22.8529 27.287 22.8417C27.1641 22.8363 27.0315 22.7855 26.8831 22.708C26.7961 22.6625 26.7112 22.6123 26.6224 22.5597C26.5558 22.5203 26.487 22.4796 26.4135 22.4386C26.0835 22.2547 25.7009 22.0921 25.2731 22.2377L25.2195 22.256L25.2167 22.3125C25.2047 22.5578 25.1523 22.782 25.1025 22.9455C25.0777 23.027 25.0537 23.0929 25.036 23.1382C25.0272 23.1609 25.0199 23.1783 25.0149 23.19C25.0137 23.1929 25.0126 23.1955 25.0116 23.1977C25.0107 23.1998 25.0099 23.2016 25.0093 23.203L25.0079 23.2061L25.0076 23.2067M19.2691 22.9591C19.3747 22.7999 19.5879 22.6583 20.0083 22.6583C20.4245 22.6583 20.6463 22.7803 20.7608 22.9227C20.8169 22.9926 20.8435 23.063 20.8559 23.1165C20.8621 23.1433 20.8648 23.1659 20.8659 23.1825C20.8665 23.1908 20.8667 23.1976 20.8667 23.2027C20.8667 23.2043 20.8667 23.2056 20.8667 23.2068C20.8667 23.2077 20.8667 23.2084 20.8666 23.2091L20.8666 23.2113L20.8665 23.2121L20.8665 23.2124L20.8665 23.2126C20.8665 23.2127 20.8665 23.2127 20.7833 23.2083L20.8665 23.2127L20.8624 23.2895L19.2673 23.3328C19.228 23.3408 19.1991 23.317 19.191 23.3089L19.25 23.2499L19.2477 23.1673C19.2387 23.1677 19.229 23.1698 19.2187 23.1743C19.201 23.182 19.1908 23.1938 19.1861 23.2002C19.1811 23.2069 19.1784 23.2128 19.1772 23.2157C19.1754 23.2197 19.1745 23.2232 19.1742 23.2245C19.1743 23.2239 19.1745 23.2227 19.1748 23.2209C19.1752 23.2189 19.1756 23.2161 19.1762 23.2126C19.178 23.2012 19.181 23.1829 19.1849 23.1639C19.196 23.1113 19.218 23.0359 19.2691 22.9591ZM19.3566 23.1637L20.686 23.1276C20.6761 23.0978 20.6594 23.0626 20.6308 23.0271C20.5578 22.9363 20.3921 22.8249 20.0083 22.8249C19.6287 22.8249 19.4752 22.95 19.4079 23.0513C19.3819 23.0905 19.3663 23.1297 19.3566 23.1637ZM21.6672 24.6339C21.6669 24.6435 21.6646 24.6698 21.6422 24.6922L21.6178 24.7166H18.475C18.4561 24.7166 18.4317 24.7102 18.4124 24.6897C18.3952 24.6713 18.3907 24.6508 18.3895 24.6398C18.3872 24.6197 18.3924 24.603 18.3942 24.5973C18.3991 24.5819 18.4073 24.5655 18.4154 24.5508C18.4328 24.5197 18.4601 24.4782 18.4959 24.4305C18.5679 24.3346 18.6781 24.2079 18.8205 24.0805C19.1033 23.8275 19.5226 23.5642 20.0282 23.5501C20.4879 23.5063 20.9035 23.7695 21.1923 24.0309C21.3388 24.1634 21.457 24.2992 21.5373 24.4041C21.5774 24.4564 21.6088 24.5019 21.6298 24.5362C21.6401 24.553 21.649 24.5689 21.6552 24.5825C21.6581 24.5888 21.6619 24.598 21.6644 24.6083C21.6656 24.6132 21.6676 24.6225 21.6672 24.6339ZM21.0805 24.1545C20.8013 23.9018 20.4305 23.6781 20.0414 23.7162L20.0385 23.7165L20.0355 23.7166C19.584 23.7284 19.2002 23.9645 18.9316 24.2048C18.7979 24.3243 18.6951 24.4429 18.6293 24.5306C18.6242 24.5372 18.6195 24.5437 18.6149 24.5499H21.4382C21.4282 24.5361 21.4171 24.5212 21.405 24.5055C21.3299 24.4074 21.2185 24.2793 21.0805 24.1545ZM26.024 24.2483C25.8829 24.308 25.734 24.3486 25.5795 24.3415C25.2975 24.3287 25.1603 24.2833 25.0572 24.2108C25.0212 24.1855 24.9892 24.1563 24.9602 24.1299C24.9512 24.1217 24.9424 24.1137 24.934 24.1063C24.9123 24.0871 24.8892 24.0679 24.8615 24.0486C24.7653 24.1895 24.6091 24.3222 24.4769 24.4209C24.4555 24.4369 24.4345 24.4521 24.4141 24.4666H28.1924C28.1231 24.388 28.0297 24.2865 27.9226 24.1842C27.8076 24.0742 27.6784 23.965 27.5477 23.8822C27.4157 23.7986 27.2896 23.7468 27.1793 23.7415C27.0658 23.7361 26.9479 23.7671 26.8223 23.8215C26.6982 23.8752 26.5729 23.9489 26.4412 24.0264L26.4349 24.0301C26.3029 24.1078 26.1646 24.1888 26.024 24.2483ZM28.4126 24.4666C28.4109 24.4646 28.4092 24.4626 28.4074 24.4604C28.3886 24.4384 28.3631 24.4085 28.3323 24.3733C28.2599 24.2906 28.1574 24.178 28.0377 24.0637C27.9184 23.9496 27.7804 23.8323 27.6369 23.7414C27.4947 23.6513 27.3395 23.5823 27.1873 23.575C27.0383 23.568 26.8937 23.6089 26.756 23.6685C26.6224 23.7264 26.4894 23.8047 26.361 23.8802L26.3504 23.8865C26.2168 23.9651 26.0879 24.0403 25.959 24.0948C25.8306 24.1492 25.7076 24.1805 25.5871 24.175C25.3191 24.1629 25.2188 24.1207 25.1531 24.0745C25.1264 24.0557 25.1051 24.0364 25.0786 24.0122C25.0682 24.0028 25.057 23.9926 25.0443 23.9814C25.0012 23.9433 24.9492 23.9016 24.8732 23.8601L24.7974 23.8188L24.7588 23.896C24.6934 24.0267 24.5334 24.1707 24.3772 24.2873C24.3011 24.3441 24.2295 24.3919 24.1768 24.4255C24.1505 24.4423 24.129 24.4555 24.1142 24.4644C24.1068 24.4689 24.1011 24.4723 24.0972 24.4745L24.093 24.477L24.092 24.4776L24.0917 24.4777L23.8215 24.6333H28.3462C28.3497 24.635 28.3546 24.6371 28.3606 24.6388C28.368 24.6408 28.3838 24.6442 28.4031 24.6394C28.426 24.6338 28.4452 24.6188 28.4563 24.5985C28.4657 24.5814 28.4666 24.5657 28.4666 24.5583V24.4666H28.4126ZM14.0563 24.0948C14.1854 24.1491 14.3089 24.1805 14.4295 24.175C14.6975 24.1629 14.7978 24.1207 14.8635 24.0745C14.8902 24.0557 14.9115 24.0364 14.938 24.0122C14.9484 24.0027 14.9596 23.9926 14.9723 23.9814C15.0154 23.9433 15.0674 23.9016 15.1434 23.8601L15.2192 23.8188L15.2578 23.896C15.3232 24.0267 15.4832 24.1707 15.6394 24.2873C15.7155 24.3441 15.7871 24.3919 15.8398 24.4255C15.8661 24.4423 15.8876 24.4555 15.9024 24.4644C15.9098 24.4689 15.9155 24.4723 15.9194 24.4745L15.9236 24.477L15.9246 24.4776L15.9249 24.4777M12.8293 23.575C12.9764 23.5679 13.12 23.609 13.2571 23.6686C13.3893 23.726 13.5216 23.8035 13.6495 23.8785C13.654 23.8811 13.6585 23.8838 13.6629 23.8864C13.797 23.9649 13.9267 24.0402 14.0563 24.0948" fill="#083D9C"/>
<path fill-rule="evenodd" clip-rule="evenodd" d="M-10 30H50V40H-10V30ZM-10 0H50V10H-10V0Z" fill="#DE2010"/>
</g>
<defs>
<clipPath id="clip0_8424_43241">
<rect width="40" height="40" rx="20" fill="white"/>
</clipPath>
</defs>
</svg>
