<svg width="40" height="40" viewBox="0 0 40 40" fill="none" xmlns="http://www.w3.org/2000/svg">
<g clip-path="url(#clip0_8424_43187)">
<path d="M-7 0H46.3333V40H-7V0Z" fill="#002395"/>
<path d="M-7 0H17.4V16.4H-7V0Z" fill="white"/>
<path d="M-7 0H1V16H-7V0Z" fill="#002395"/>
<path d="M9 0H17V16H9V0Z" fill="#ED2939"/>
<path d="M28.5 18.3008L29.7833 20.3508H33.45V27.5008L30.7 23.2008L27 29.1008H28.8L30.7 25.7008L34.6 32.7008L38.5 25.7008L40.4 29.1008H42.2L38.5 23.2008L35.75 27.5008V23.5508H37.4L38.625 21.6008H35.75V20.3508H39.4167L40.7 18.3008H28.5ZM32.8 27.0508H28.8V28.4508H32.8V27.0508ZM40.4 27.0508H36.4V28.4508H40.4V27.0508Z" fill="white"/>
<path d="M34.5996 34.0996L35.8296 37.8996L32.5996 35.5496H36.5996L33.3696 37.8996L34.5996 34.0996Z" fill="white"/>
<path d="M30.0996 30.6992L31.3296 34.4992L28.0996 32.1492H32.0996L28.8696 34.4992L30.0996 30.6992Z" fill="white"/>
<path d="M39.0996 30.6992L40.3296 34.4992L37.0996 32.1492H41.0996L37.8696 34.4992L39.0996 30.6992Z" fill="white"/>
<path d="M26.2998 20.5996L27.5298 24.3996L24.2998 22.0496H28.2998L25.0698 24.3996L26.2998 20.5996Z" fill="white"/>
</g>
<defs>
<clipPath id="clip0_8424_43187">
<rect width="40" height="40" rx="20" fill="white"/>
</clipPath>
</defs>
</svg>
