<svg width="40" height="40" viewBox="0 0 40 40" fill="none" xmlns="http://www.w3.org/2000/svg">
<g clip-path="url(#clip0_8424_43384)">
<path d="M-7 0H46.3333V40H-7V0Z" fill="white"/>
<path d="M15.666 0H23.666V40H15.666V0Z" fill="#FF0000"/>
<path d="M-7 16H46.3333V24H-7V16Z" fill="#FF0000"/>
<g style="mix-blend-mode:multiply">
<path fill-rule="evenodd" clip-rule="evenodd" d="M5.23398 31.0917C5.31732 29.6917 5.56732 28.5 5.56732 28.5C5.56732 28.5 4.75065 28.5833 4.33398 28.5833C3.92565 28.5833 3.10065 28.5 3.10065 28.5C3.10065 28.5 3.35065 29.6917 3.43398 31.1C2.02565 31.0167 0.833984 30.7667 0.833984 30.7667C0.833984 30.7667 0.917318 31.3833 0.917318 32C0.917318 32.6167 0.833984 33.2333 0.833984 33.2333C0.833984 33.2333 2.02565 32.9833 3.43398 32.9C3.35065 34.3083 3.10065 35.5 3.10065 35.5C3.10065 35.5 3.71732 35.4167 4.33398 35.4167C4.95065 35.4167 5.56732 35.5 5.56732 35.5C5.56732 35.5 5.31732 34.3083 5.23398 32.9C6.64232 32.9833 7.83398 33.2333 7.83398 33.2333C7.83398 33.2333 7.75065 32.4167 7.75065 32C7.75065 31.5917 7.83398 30.7667 7.83398 30.7667C7.83398 30.7667 6.64232 31.0167 5.24232 31.1L5.23398 31.0917ZM35.9007 7.09167C35.984 5.69167 36.234 4.5 36.234 4.5C36.234 4.5 35.4173 4.58333 35.0007 4.58333C34.5923 4.58333 33.7673 4.5 33.7673 4.5C33.7673 4.5 34.0173 5.69167 34.1007 7.09167C32.6923 7.00833 31.5007 6.76667 31.5007 6.76667C31.5007 6.76667 31.584 7.38333 31.584 8C31.584 8.61667 31.5007 9.23333 31.5007 9.23333C31.5007 9.23333 32.6923 8.98333 34.1007 8.9C34.0173 10.3083 33.7673 11.5 33.7673 11.5C33.7673 11.5 34.384 11.4167 35.0007 11.4167C35.6173 11.4167 36.234 11.5 36.234 11.5C36.234 11.5 35.984 10.3083 35.9007 8.90833C37.309 8.99167 38.5007 9.24167 38.5007 9.24167C38.5007 9.24167 38.4173 8.40833 38.4173 8C38.4173 7.59167 38.5007 6.76667 38.5007 6.76667C38.5007 6.76667 37.309 7.01667 35.9007 7.1V7.09167ZM5.23398 7.09167C5.31732 5.69167 5.56732 4.5 5.56732 4.5C5.56732 4.5 4.75065 4.58333 4.33398 4.58333C3.92565 4.58333 3.10065 4.5 3.10065 4.5C3.10065 4.5 3.35065 5.69167 3.43398 7.1C2.02565 7.01667 0.833984 6.76667 0.833984 6.76667C0.833984 6.76667 0.917318 7.38333 0.917318 8C0.917318 8.61667 0.833984 9.23333 0.833984 9.23333C0.833984 9.23333 2.02565 8.98333 3.43398 8.9C3.35065 10.3083 3.10065 11.5 3.10065 11.5C3.10065 11.5 3.71732 11.4167 4.33398 11.4167C4.95065 11.4167 5.56732 11.5 5.56732 11.5C5.56732 11.5 5.31732 10.3083 5.23398 8.9C6.64232 8.98333 7.83398 9.23333 7.83398 9.23333C7.83398 9.23333 7.75065 8.41667 7.75065 8C7.75065 7.59167 7.83398 6.76667 7.83398 6.76667C7.83398 6.76667 6.64232 7.01667 5.24232 7.1L5.23398 7.09167ZM35.9007 31.0917C35.984 29.6917 36.234 28.5 36.234 28.5C36.234 28.5 35.4173 28.5833 35.0007 28.5833C34.5923 28.5833 33.7673 28.5 33.7673 28.5C33.7673 28.5 34.0173 29.6917 34.1007 31.1C32.6923 31.0167 31.5007 30.7667 31.5007 30.7667C31.5007 30.7667 31.584 31.3833 31.584 32C31.584 32.6167 31.5007 33.2333 31.5007 33.2333C31.5007 33.2333 32.6923 32.9833 34.1007 32.9C34.0173 34.3083 33.7673 35.5 33.7673 35.5C33.7673 35.5 34.384 35.4167 35.0007 35.4167C35.6173 35.4167 36.234 35.5 36.234 35.5C36.234 35.5 35.984 34.3083 35.9007 32.9C37.309 32.9833 38.5007 33.2333 38.5007 33.2333C38.5007 33.2333 38.4173 32.4167 38.4173 32C38.4173 31.5917 38.5007 30.7667 38.5007 30.7667C38.5007 30.7667 37.309 31.0167 35.9007 31.1V31.0917Z" fill="#FF0000"/>
</g>
</g>
<defs>
<clipPath id="clip0_8424_43384">
<rect width="40" height="40" rx="20" fill="white"/>
</clipPath>
</defs>
</svg>
