<svg width="56" height="56" viewBox="0 0 56 56" fill="none" xmlns="http://www.w3.org/2000/svg">
<g clip-path="url(#clip0_3318_24474)">
<path d="M0 28C0 31.425 0.616109 34.7058 1.74158 37.7391L28 38.9565L54.2584 37.7392C55.384 34.7058 56 31.425 56 28C56 24.575 55.384 21.2942 54.2584 18.2609L28 17.0435L1.74158 18.2608C0.616109 21.2942 0 24.575 0 28H0Z" fill="#FFDA44"/>
<path d="M27.9996 0C15.9606 0 5.69741 7.5985 1.74121 18.2609H54.2582C50.3018 7.5985 40.0386 0 27.9996 0Z" fill="#D80027"/>
<path d="M54.2581 37.7391H1.74121C5.69741 48.4014 15.9606 56 27.9996 56C40.0386 56 50.3018 48.4014 54.2581 37.7391Z" fill="#496E2D"/>
<path d="M27.9999 18.2609L30.4171 25.7006H38.2405L31.9117 30.2991L34.3289 37.7391L27.9999 33.141L21.6709 37.7391L24.0885 30.2991L17.7598 25.7006H25.5827L27.9999 18.2609Z" fill="black"/>
</g>
<defs>
<clipPath id="clip0_3318_24474">
<rect width="56" height="56" fill="white"/>
</clipPath>
</defs>
</svg>
