<svg width="40" height="40" viewBox="0 0 40 40" fill="none" xmlns="http://www.w3.org/2000/svg">
<g clip-path="url(#clip0_8424_43295)">
<path d="M-7 0H46.3333V40H-7V0Z" fill="#DA000C"/>
<path d="M-7 0H46.3333V26.8H-7V0Z" fill="white"/>
<path d="M10.3848 18.1719H20.3848V25.0469H10.3848V18.1719Z" fill="black"/>
<path d="M15.5723 24.0469H9.47851L8.11914 24.9375V25.875H15.5723M13.0254 20.0938C13.9004 20.0938 14.6191 20.8281 14.6191 21.7344V24.0312H15.7598V15.2812H9.46289V24.0312H11.4316V21.7344C11.4316 20.8594 12.1348 20.0938 13.0254 20.0938Z" fill="#DA000C"/>
<path fill-rule="evenodd" clip-rule="evenodd" d="M9.38476 15.2031H15.8379V24.1094H15.6504V24.125H9.50183L8.19727 24.9797V25.7969H15.6504V25.9531H8.04102V24.8953L9.38476 24.0149V15.2031ZM11.5098 23.9687V21.7344C11.5098 20.8991 12.1813 20.1719 13.0254 20.1719C13.8553 20.1719 14.541 20.8693 14.541 21.7344V23.9687H11.5098ZM14.6973 23.9531H15.6816V15.3594H9.54101V23.9531H11.3535V21.7344C11.3535 20.8197 12.0882 20.0156 13.0254 20.0156C13.9455 20.0156 14.6973 20.787 14.6973 21.7344V23.9531Z" fill="black"/>
<path d="M11.6191 9.375H14.5254V14.6875H11.6191V9.375Z" fill="black"/>
<path d="M14.5098 13.8594H11.9785V12.9531H10.1191V13.8594H8.86914V12.9531H8.10352V14.5781H14.5098M8.85352 14.5781H14.3223V15.2813H8.85352V14.5781ZM16.6973 6.71875V12.9688H17.6348V11.4531C17.6348 10.8906 18.0254 10.4219 18.5879 10.3906H18.6504C18.9322 10.3906 19.2024 10.5026 19.4017 10.7018C19.6009 10.9011 19.7129 11.1713 19.7129 11.4531V12.9688H20.6035V7.4375L16.6973 6.71875ZM16.3379 5.96875V6.71875H20.916V5.96875H16.3379ZM15.7598 4.54688V5.96875H21.2285V4.54688H20.4004V5.28125H19.3691V4.54688H17.8066V5.28125H16.791V4.54688H15.7598ZM8.10352 24.9375H15.6035H8.10352ZM20.4473 24.5H15.3848L13.8535 25.2344V26.3281H20.4473" fill="#DA000C"/>
<path fill-rule="evenodd" clip-rule="evenodd" d="M15.6816 4.46875H16.8691V5.20312H17.7285V4.46875H19.4473V5.20312H20.3223V4.46875H21.3066V6.04688H20.9941V6.79688H17.5536L20.6816 7.37244V13.0469H19.6348V11.4531C19.6348 11.1921 19.5311 10.9417 19.3464 10.7571C19.1618 10.5725 18.9115 10.4688 18.6504 10.4688H18.5901C18.0754 10.4985 17.7129 10.9273 17.7129 11.4531V13.0469H16.6191V6.79688H16.2598V6.04688H15.6816V4.46875ZM21.1504 5.89063V4.625H20.4785V5.35937H19.291V4.625H17.8848V5.35937H16.7129V4.625H15.8379V5.89063H21.1504ZM16.416 6.04688V6.64062H16.6191V6.62494L16.7044 6.64062H20.8379V6.04688H16.416ZM16.7754 6.81256V12.8906H17.5566V11.4531C17.5566 10.8546 17.9744 10.3465 18.5836 10.3126L18.5857 10.3125H18.6504C18.9529 10.3125 19.243 10.4327 19.4569 10.6466C19.6708 10.8605 19.791 11.1506 19.791 11.4531V12.8906H20.5254V7.50256L16.7754 6.81256ZM8.02539 12.875H8.94726V13.7813H10.041V12.875H12.0566V13.7813H14.5879V13.9375H11.9004V13.0313H10.1973V13.9375H8.79101V13.0313H8.18164V14.5H14.5879V14.6563H14.4004V15.3594H8.77539V14.6563H8.02539V12.875ZM8.93164 14.6563V15.2031H14.2441V14.6563H8.93164ZM15.367 24.4219H20.5254V24.5781H15.4025L14.8161 24.8594H15.6816V25.0156H14.4903L13.9316 25.2836V26.25H20.5254V26.4062H13.7754V25.1852L14.129 25.0156H8.02539V24.8594H14.4548L15.367 24.4219Z" fill="black"/>
<path fill-rule="evenodd" clip-rule="evenodd" d="M20.6035 25.3125H13.8535V25.1562H20.6035V25.3125Z" fill="black"/>
<path d="M22.3693 23.4375C21.9474 23.5937 21.588 23.8125 21.1974 24.0313C20.7113 24.3089 20.2465 24.6223 19.8068 24.9688C19.6505 25.0781 19.4943 25.1875 19.3849 25.3437C19.2286 25.4687 19.0724 25.6562 19.1036 25.8906C19.1036 25.9844 19.2286 25.7656 19.3224 25.75C19.4708 25.6706 19.6431 25.6483 19.8068 25.6875C20.0099 25.4687 20.2755 25.3281 20.4943 25.1562C21.1311 24.6953 21.8114 24.2976 22.5255 23.9687L22.3693 23.4375Z" fill="#F8D80E"/>
<path fill-rule="evenodd" clip-rule="evenodd" d="M22.4094 23.3557L22.5998 24.003L22.5507 24.0256C21.8407 24.3526 21.1643 24.748 20.531 25.2062C20.4544 25.2663 20.3712 25.3234 20.2888 25.3799C20.2521 25.4051 20.2155 25.4302 20.1797 25.4555C20.0616 25.5387 19.9487 25.6256 19.8516 25.7301L19.8268 25.7568L19.7913 25.7484C19.6425 25.7128 19.4858 25.733 19.3509 25.8052L19.3419 25.81L19.3317 25.8117C19.3263 25.8126 19.312 25.8192 19.2883 25.8394C19.2675 25.8571 19.2467 25.8789 19.2256 25.9009C19.2245 25.9021 19.2233 25.9034 19.2221 25.9046C19.2115 25.9157 19.2004 25.9271 19.1902 25.9369C19.1808 25.9458 19.1683 25.9569 19.1548 25.9647C19.1469 25.9692 19.1061 25.9914 19.0686 25.9605C19.0528 25.9475 19.0464 25.9311 19.0437 25.9207C19.0413 25.9118 19.0405 25.903 19.0403 25.8952C19.0071 25.6321 19.1803 25.4286 19.338 25.3006C19.4534 25.1392 19.6147 25.0263 19.7658 24.9205L19.7685 24.9186C20.2103 24.5707 20.6772 24.256 21.1654 23.9771L21.1659 23.9768C21.2252 23.9436 21.2839 23.9103 21.3424 23.8771C21.6669 23.6931 21.9842 23.5132 22.3466 23.379L22.4094 23.3557ZM21.2272 24.0857C20.7439 24.3618 20.2817 24.6734 19.8445 25.0179L19.8431 25.019L19.8417 25.02C19.6838 25.1305 19.5371 25.234 19.4351 25.3797L19.43 25.387L19.423 25.3926C19.2962 25.4941 19.1829 25.6275 19.164 25.7848C19.1776 25.7711 19.1922 25.757 19.2072 25.7443C19.2308 25.7241 19.2631 25.7002 19.2998 25.6908C19.4491 25.6132 19.6198 25.5881 19.7847 25.6192C19.8847 25.5167 19.9967 25.4315 20.1077 25.3533C20.1464 25.326 20.1846 25.2998 20.2222 25.274C20.3031 25.2185 20.3811 25.165 20.4547 25.1072L20.4557 25.1064L20.4567 25.1057C21.0823 24.653 21.7495 24.2609 22.4494 23.9348L22.3274 23.52C22.0011 23.6474 21.711 23.8119 21.4058 23.9849C21.347 24.0183 21.2876 24.0519 21.2272 24.0857ZM19.1652 25.8924C19.1652 25.8924 19.1652 25.8923 19.1652 25.8922L19.1652 25.8924Z" fill="black"/>
<path d="M20.3535 24.5937V25.2031V24.5937ZM20.7285 24.3281V24.9375V24.3281ZM21.1035 24.0938V24.6875V24.0938ZM21.4941 23.8594V24.4844V23.8594Z" fill="#F8D80E"/>
<path fill-rule="evenodd" clip-rule="evenodd" d="M21.4941 23.7812C21.5373 23.7812 21.5723 23.8162 21.5723 23.8594V24.4844C21.5723 24.5275 21.5373 24.5625 21.4941 24.5625C21.451 24.5625 21.416 24.5275 21.416 24.4844V23.8594C21.416 23.8162 21.451 23.7812 21.4941 23.7812ZM21.1035 24.0156C21.1467 24.0156 21.1816 24.0506 21.1816 24.0938V24.6875C21.1816 24.7306 21.1467 24.7656 21.1035 24.7656C21.0604 24.7656 21.0254 24.7306 21.0254 24.6875V24.0938C21.0254 24.0506 21.0604 24.0156 21.1035 24.0156ZM20.7285 24.25C20.7717 24.25 20.8066 24.285 20.8066 24.3281V24.9375C20.8066 24.9806 20.7717 25.0156 20.7285 25.0156C20.6854 25.0156 20.6504 24.9806 20.6504 24.9375V24.3281C20.6504 24.285 20.6854 24.25 20.7285 24.25ZM20.3535 24.5156C20.3967 24.5156 20.4316 24.5506 20.4316 24.5937V25.2031C20.4316 25.2463 20.3967 25.2813 20.3535 25.2813C20.3104 25.2813 20.2754 25.2463 20.2754 25.2031V24.5937C20.2754 24.5506 20.3104 24.5156 20.3535 24.5156Z" fill="black"/>
<path d="M16.9941 23.4688L16.8066 23.9844C17.6701 24.3156 18.4974 24.7344 19.2754 25.2344C19.541 25.4219 19.8223 25.5937 20.0254 25.8437C20.0723 25.9687 19.9473 26.0781 19.8223 26.0313C19.7129 26 19.5879 25.9531 19.4785 26.0313C19.3066 26.1094 19.1504 26.375 19.4004 26.4531C19.7754 26.7031 20.3535 26.5938 20.5254 26.1719C20.6191 25.9531 20.6348 25.6719 20.4473 25.4844C20.1348 25.125 19.6973 24.8594 19.291 24.5937C18.5615 24.1491 17.7926 23.7726 16.9941 23.4688Z" fill="#F8D80E"/>
<path fill-rule="evenodd" clip-rule="evenodd" d="M17.016 23.4104C17.8181 23.7156 18.5904 24.0938 19.3232 24.5404L19.324 24.541L19.3249 24.5415C19.367 24.569 19.4095 24.5966 19.4524 24.6244C19.819 24.8622 20.2066 25.1135 20.4927 25.4418C20.7045 25.6553 20.6807 25.9671 20.5827 26.196C20.4876 26.4291 20.2812 26.573 20.0527 26.6254C19.8272 26.6772 19.5745 26.6414 19.3727 26.51C19.3033 26.4865 19.2526 26.4471 19.2263 26.3924C19.1993 26.3361 19.2036 26.2753 19.2217 26.2221C19.2565 26.1202 19.3488 26.0235 19.4469 25.9769C19.5159 25.9297 19.5891 25.9214 19.6563 25.9281C19.7114 25.9336 19.7669 25.95 19.8134 25.9637C19.8223 25.9663 19.8309 25.9689 19.8391 25.9712L19.8415 25.9719L19.8439 25.9728C19.8839 25.9878 19.9219 25.9775 19.946 25.9557C19.9674 25.9363 19.9785 25.9077 19.9694 25.8745C19.8072 25.6782 19.5955 25.5321 19.3754 25.3803C19.3305 25.3494 19.2853 25.3182 19.2401 25.2863C18.466 24.789 17.643 24.3723 16.7839 24.0428L16.7266 24.0208L16.9351 23.4475L16.9938 23.4688L17.016 23.4104ZM17.0308 23.5499L16.886 23.9482C17.7327 24.2774 18.5444 24.6907 19.3088 25.1819L19.31 25.1826L19.3111 25.1834C19.3541 25.2137 19.3979 25.2439 19.4421 25.2744C19.6657 25.4284 19.8981 25.5884 20.0735 25.8044L20.08 25.8123L20.0836 25.8219C20.1166 25.91 20.0886 25.9952 20.0299 26.0484C19.9725 26.1003 19.8866 26.1213 19.8025 26.0908C19.793 26.0881 19.7838 26.0853 19.7747 26.0827C19.7283 26.0691 19.6862 26.0567 19.6438 26.0525C19.5954 26.0477 19.5534 26.0544 19.5145 26.0822L19.5096 26.0857L19.504 26.0882C19.4322 26.1209 19.3633 26.1944 19.3401 26.2624C19.3289 26.2952 19.3303 26.3203 19.3389 26.3382C19.3472 26.3554 19.3675 26.3776 19.4187 26.3935L19.4272 26.3962L19.4347 26.4012C19.6067 26.5159 19.8272 26.5489 20.0247 26.5036C20.2218 26.4584 20.3903 26.3369 20.4672 26.1484L20.4676 26.1473C20.5567 25.9394 20.564 25.69 20.4027 25.5286L20.4012 25.5271L20.3998 25.5255C20.1259 25.2105 19.7533 24.9687 19.3837 24.7289C19.3415 24.7015 19.2993 24.6741 19.2573 24.6467C18.5493 24.2153 17.8042 23.8482 17.0308 23.5499Z" fill="black"/>
<path d="M19.3535 24.6875L19.3066 25.2188L19.3535 24.6875ZM19.791 24.9531L19.666 25.4688L19.791 24.9531ZM20.2598 25.3125L19.9785 25.7188L20.2598 25.3125ZM20.4004 26.2813L19.9941 26.0625L20.4004 26.2813ZM20.5254 25.8438L20.0566 25.8906L20.5254 25.8438ZM19.9316 26.5156L19.9004 26.1094L19.9316 26.5156ZM19.7441 26.0625L19.3691 26.3438L19.7441 26.0625ZM17.9004 23.8906V24.375V23.8906ZM18.8848 24.4219V24.9688V24.4219ZM18.3848 24.1563V24.6719V24.1563Z" fill="#F8D80E"/>
<path fill-rule="evenodd" clip-rule="evenodd" d="M17.9004 23.8125C17.9435 23.8125 17.9785 23.8475 17.9785 23.8906V24.375C17.9785 24.4181 17.9435 24.4531 17.9004 24.4531C17.8572 24.4531 17.8223 24.4181 17.8223 24.375V23.8906C17.8223 23.8475 17.8572 23.8125 17.9004 23.8125ZM18.3848 24.0781C18.4279 24.0781 18.4629 24.1131 18.4629 24.1563V24.6719C18.4629 24.715 18.4279 24.75 18.3848 24.75C18.3416 24.75 18.3066 24.715 18.3066 24.6719V24.1563C18.3066 24.1131 18.3416 24.0781 18.3848 24.0781ZM18.8848 24.3438C18.9279 24.3438 18.9629 24.3787 18.9629 24.4219V24.9688C18.9629 25.0119 18.9279 25.0469 18.8848 25.0469C18.8416 25.0469 18.8066 25.0119 18.8066 24.9688V24.4219C18.8066 24.3787 18.8416 24.3438 18.8848 24.3438ZM19.3604 24.6097C19.4034 24.6135 19.4351 24.6514 19.4313 24.6944L19.3845 25.2256C19.3807 25.2686 19.3428 25.3004 19.2998 25.2966C19.2568 25.2928 19.225 25.2549 19.2288 25.2119L19.2757 24.6806C19.2795 24.6377 19.3174 24.6059 19.3604 24.6097ZM19.8094 24.8772C19.8514 24.8874 19.8771 24.9296 19.8669 24.9715L19.7419 25.4872C19.7318 25.5291 19.6895 25.5548 19.6476 25.5447C19.6057 25.5345 19.5799 25.4923 19.5901 25.4503L19.7151 24.9347C19.7253 24.8928 19.7675 24.867 19.8094 24.8772ZM20.3042 25.2483C20.3397 25.2728 20.3486 25.3215 20.324 25.357L20.0428 25.7632C20.0182 25.7987 19.9695 25.8075 19.934 25.783C19.8986 25.7584 19.8897 25.7098 19.9143 25.6743L20.1955 25.268C20.2201 25.2326 20.2688 25.2237 20.3042 25.2483ZM20.6031 25.836C20.6074 25.8789 20.5761 25.9172 20.5332 25.9215L20.0644 25.9684C20.0215 25.9727 19.9832 25.9413 19.9789 25.8984C19.9746 25.8555 20.0059 25.8172 20.0489 25.8129L20.5176 25.766C20.5606 25.7617 20.5988 25.793 20.6031 25.836ZM19.9254 26.0255C19.9458 25.9875 19.9932 25.9733 20.0312 25.9937L20.4374 26.2125C20.4754 26.2329 20.4896 26.2803 20.4692 26.3183C20.4487 26.3563 20.4013 26.3705 20.3634 26.35L19.9814 26.1444L20.0095 26.5096C20.0128 26.5527 19.9807 26.5902 19.9376 26.5935C19.8946 26.5968 19.8571 26.5646 19.8537 26.5216L19.8225 26.1154C19.8192 26.0723 19.8514 26.0348 19.8944 26.0315C19.9037 26.0308 19.9128 26.0317 19.9214 26.0341C19.9225 26.0312 19.9238 26.0283 19.9254 26.0255ZM19.8066 26.0156C19.8325 26.0501 19.8255 26.0991 19.791 26.125L19.416 26.4063C19.3815 26.4321 19.3325 26.4251 19.3066 26.3906C19.2808 26.3561 19.2877 26.3071 19.3223 26.2813L19.6973 26C19.7318 25.9741 19.7808 25.9811 19.8066 26.0156Z" fill="black"/>
<path d="M16.5098 35.5625V36.8125H17.291V36.1875H18.3691V36.8125H19.2129V35.5625H16.5098ZM16.5098 37.2812V38.5312H19.1973V37.2812H18.3535V37.9062H17.2754V37.2812H16.5098Z" fill="#F8D80E"/>
<path fill-rule="evenodd" clip-rule="evenodd" d="M16.4316 35.4844H19.291V36.8906H18.291V36.2656H17.3691V36.8906H16.4316V35.4844ZM16.5879 35.6406V36.7344H17.2129V36.1094H18.4473V36.7344H19.1348V35.6406H16.5879ZM16.4316 37.2031H17.3535V37.8281H18.2754V37.2031H19.2754V38.6094H16.4316V37.2031ZM16.5879 37.3594V38.4531H19.1191V37.3594H18.4316V37.9844H17.1973V37.3594H16.5879Z" fill="black"/>
<path d="M19.1973 30.2656H19.9785V39.3281H19.1973V30.2656Z" fill="#F8D80E"/>
<path fill-rule="evenodd" clip-rule="evenodd" d="M19.1191 30.1875H20.0566V39.4062H19.1191V30.1875ZM19.2754 30.3438V39.25H19.9004V30.3438H19.2754Z" fill="black"/>
<path d="M19.1973 31.0469H19.9785V38.8594H19.1973V31.0469ZM19.6035 28.0312L21.2598 29L19.6035 29.9687L17.9316 29L19.6035 28.0312ZM17.3691 28.6562H16.9473V29.3437H17.3691L19.6035 30.6406L21.8223 29.3437H22.2598V28.6562H21.8223L19.6035 27.3594L17.3691 28.6562Z" fill="#F8D80E"/>
<path fill-rule="evenodd" clip-rule="evenodd" d="M19.6037 27.269L21.8434 28.5782H22.3379V29.422H21.8434L19.6037 30.7311L17.3481 29.422H16.8691V28.5782H17.3481L19.6037 27.269ZM19.6034 27.4499L17.3902 28.7345H17.0254V29.2657H17.3902L19.6034 30.5503L21.8011 29.2657H22.1816V28.7345H21.8011L19.6034 27.4499ZM19.6037 27.9409L21.4145 29.0001L19.6037 30.0592L17.7758 29.0001L19.6037 27.9409ZM18.0875 29.0001L19.6033 29.8784L21.105 29.0001L19.6033 28.1217L18.0875 29.0001ZM19.1191 30.9688H20.0566V38.9376H19.1191V30.9688ZM19.2754 31.1251V38.7813H19.9004V31.1251H19.2754Z" fill="black"/>
<path d="M19.5563 25.6719C19.3744 25.7088 19.2117 25.8093 19.0972 25.9553C18.9827 26.1013 18.9239 26.2833 18.9313 26.4687V28.2188C18.9456 28.4046 19.026 28.5792 19.1578 28.711C19.2896 28.8428 19.4642 28.9231 19.65 28.9375C19.8046 28.9491 19.9591 28.9135 20.0931 28.8353C20.227 28.7572 20.334 28.6403 20.4 28.5L20.1344 28.3437C20.0976 28.4353 20.0318 28.5123 19.9472 28.563C19.8626 28.6138 19.7638 28.6355 19.6657 28.625C19.4157 28.625 19.2125 28.375 19.2438 28.1406V26.3906C19.2556 26.276 19.3107 26.1702 19.3978 26.0947C19.4848 26.0193 19.5974 25.9798 19.7125 25.9844C19.8063 25.9531 19.9469 26.0938 20.0094 25.9844C20.1032 25.8438 19.9469 25.75 19.8532 25.6719H19.5563ZM20.4625 26.2812C20.3862 26.3882 20.2841 26.4742 20.1657 26.5313V27.7031L20.4782 27.875V26.2812H20.4625Z" fill="#F8D80E"/>
<path fill-rule="evenodd" clip-rule="evenodd" d="M19.5563 25.5938H19.8815L19.9032 25.6119C19.9138 25.6207 19.9253 25.6298 19.9383 25.6401L19.9391 25.6407C19.952 25.6509 19.9662 25.6621 19.9803 25.6739C20.0081 25.697 20.0387 25.7248 20.0635 25.7571C20.0885 25.7895 20.1107 25.8304 20.1155 25.8796C20.1204 25.9294 20.1065 25.9787 20.0758 26.0256C20.0482 26.0724 20.0067 26.0982 19.9587 26.1037C19.9173 26.1085 19.8769 26.0971 19.8488 26.088C19.8347 26.0835 19.8233 26.0795 19.813 26.0759C19.7978 26.0706 19.7852 26.0661 19.7701 26.0622C19.7473 26.0563 19.739 26.0579 19.7372 26.0585L19.7237 26.063L19.7094 26.0624C19.6141 26.0586 19.521 26.0913 19.4489 26.1538C19.3778 26.2154 19.3325 26.3014 19.3219 26.3948V28.1458L19.3212 28.151C19.309 28.2428 19.3426 28.3423 19.4088 28.4201C19.4747 28.4975 19.5674 28.5469 19.6657 28.5469H19.6699L19.674 28.5473C19.7552 28.556 19.837 28.538 19.907 28.496C19.9771 28.454 20.0314 28.3903 20.0619 28.3146L20.0958 28.2304L20.5011 28.4688L20.4707 28.5333C20.398 28.6879 20.28 28.8167 20.1324 28.9028C19.9848 28.9889 19.8146 29.0282 19.6442 29.0154L19.644 29.0154C19.4396 28.9996 19.2475 28.9112 19.1025 28.7662C18.9576 28.6213 18.8692 28.4292 18.8534 28.2248L18.8532 28.2218V26.4703C18.8454 26.2669 18.9101 26.0673 19.0357 25.9071C19.1617 25.7465 19.3407 25.636 19.5407 25.5953L19.5563 25.6719V25.5938ZM19.5644 25.75C19.4037 25.7845 19.2601 25.8741 19.1587 26.0035C19.0556 26.1349 19.0027 26.2988 19.0094 26.4656L19.0094 26.4672V28.2157C19.023 28.3818 19.0951 28.5378 19.213 28.6558C19.3316 28.7743 19.4887 28.8466 19.6559 28.8596C19.7947 28.87 19.9334 28.838 20.0537 28.7679C20.1534 28.7097 20.2366 28.6275 20.2958 28.5293L20.1664 28.4532C20.122 28.5252 20.0607 28.586 19.9874 28.63C19.8894 28.6888 19.7751 28.7144 19.6614 28.7031C19.5115 28.7017 19.3792 28.6265 19.2898 28.5213C19.2008 28.4169 19.1487 28.2765 19.1657 28.1357V26.3866L19.1661 26.3826C19.1799 26.2482 19.2445 26.1242 19.3466 26.0357C19.4455 25.9499 19.5726 25.9038 19.7032 25.906C19.7429 25.8969 19.781 25.9036 19.8093 25.9109C19.8298 25.9162 19.8544 25.9248 19.8741 25.9317C19.8828 25.9347 19.8906 25.9374 19.8966 25.9393C19.9213 25.9472 19.9337 25.9489 19.9397 25.9486C19.9402 25.9479 19.9408 25.9469 19.9416 25.9456L19.9429 25.9433L19.9444 25.941C19.9596 25.9183 19.9609 25.9038 19.96 25.8949C19.959 25.8844 19.9538 25.8707 19.9397 25.8523C19.9254 25.8338 19.9052 25.8147 19.8803 25.7939C19.868 25.7837 19.8554 25.7737 19.8422 25.7633L19.8407 25.7621C19.8357 25.7581 19.8306 25.7541 19.8255 25.75H19.5644ZM20.4223 26.2031H20.5563V28.0071L20.0875 27.7493V26.4822L20.1318 26.4609C20.2383 26.4095 20.3302 26.3321 20.399 26.2359L20.4223 26.2031ZM20.4 26.4675C20.3524 26.5102 20.3 26.5475 20.2438 26.5787V27.6569L20.4 27.7429V26.4675Z" fill="black"/>
<path d="M17.291 6H21.8691V14.3125H17.291V6Z" fill="black"/>
<path d="M16.9785 6V12.9531H18.4316V10.8906C18.4316 10.4219 18.7441 9.75 19.666 9.75C20.5879 9.75 20.916 10.4219 20.916 10.8906V12.9688H22.3535V6H16.9785ZM19.4473 6.78125H19.8848V9.15625H19.4473V6.78125ZM18.1504 7.25H18.6191V8.98438H18.1504V7.25ZM20.7285 7.25H21.1816V8.98438H20.7129L20.7285 7.25ZM16.4785 5V5.98437H22.8535V5H16.4785ZM15.8848 3.84375V5H23.4629V3.84375H22.5098V4.46875H21.416V3.84375H20.1973V4.46875H19.1348V3.84375H17.9004V4.46875H16.8535V3.84375H15.8848ZM14.4785 15.2812V16H24.8691V15.2812H14.4785Z" fill="#DA000C"/>
<path fill-rule="evenodd" clip-rule="evenodd" d="M15.8066 3.76562H16.9316V4.39062H17.8223V3.76562H19.2129V4.39062H20.1191V3.76562H21.4941V4.39062H22.4316V3.76562H23.541V5.07812H22.9316V6.0625H22.4316V13.0469H20.8379V10.8906C20.8379 10.6727 20.7612 10.4064 20.5778 10.1958C20.3964 9.98751 20.106 9.82812 19.666 9.82812C19.2261 9.82812 18.9399 9.98742 18.7625 10.1952C18.5831 10.4055 18.5098 10.6718 18.5098 10.8906V13.0312H16.9004V6.0625H16.4004V5.07812H15.8066V3.76562ZM23.3848 4.92187V3.92188H22.5879V4.54688H21.3379V3.92188H20.2754V4.54688H19.0566V3.92188H17.9785V4.54688H16.7754V3.92188H15.9629V4.92187H23.3848ZM16.5566 5.07812V5.90625H22.7754V5.07812H16.5566ZM17.0566 6.07812V12.875H18.3535V10.8906C18.3535 10.6407 18.4364 10.3367 18.6437 10.0938C18.853 9.84852 19.184 9.67188 19.666 9.67188C20.1479 9.67188 20.4825 9.84843 20.6956 10.0932C20.9068 10.3357 20.9941 10.6398 20.9941 10.8906V12.8906H22.2754V6.07812H17.0566ZM19.3691 6.70312H19.9629V9.23437H19.3691V6.70312ZM19.5254 6.85938V9.07812H19.8066V6.85938H19.5254ZM18.0723 7.17188H18.6973V9.0625H18.0723V7.17188ZM18.2285 7.32812V8.90625H18.541V7.32812H18.2285ZM20.6511 7.17188H21.2598V9.0625H20.6341L20.6511 7.17188ZM20.8059 7.32812L20.7917 8.90625H21.1035V7.32812H20.8059ZM14.4004 15.2031H24.9473V16.0781H14.4004V15.2031ZM14.5566 15.3594V15.9219H24.791V15.3594H14.5566Z" fill="black"/>
<path d="M14.041 12.9531V15.2969H25.291V12.9531H24.2285V13.8594H22.791V12.9531H20.8848V13.8594H18.416V12.9531H16.5098V13.8594H15.1035V12.9531H14.041Z" fill="#DA000C"/>
<path fill-rule="evenodd" clip-rule="evenodd" d="M13.9629 12.875H15.1816V13.7812H16.4316V12.875H18.4941V13.7812H20.8066V12.875H22.8691V13.7812H24.1504V12.875H25.3691V15.375H13.9629V12.875ZM14.1191 13.0312V15.2188H25.2129V13.0312H24.3066V13.9375H22.7129V13.0312H20.9629V13.9375H18.3379V13.0312H16.5879V13.9375H15.0254V13.0312H14.1191Z" fill="black"/>
<path d="M15.4004 16V24.5H17.4004V21.3125C17.4004 19.8281 18.4004 19.125 19.666 19.125C20.8848 19.125 21.9316 19.8281 21.9316 21.3125V24.5H23.9316V16H15.4004Z" fill="#DA000C"/>
<path fill-rule="evenodd" clip-rule="evenodd" d="M15.3223 16C15.3223 15.9569 15.3572 15.9219 15.4004 15.9219H23.9316C23.9748 15.9219 24.0098 15.9569 24.0098 16V24.5C24.0098 24.5431 23.9748 24.5781 23.9316 24.5781H21.9316C21.8885 24.5781 21.8535 24.5431 21.8535 24.5V21.3125C21.8535 20.5901 21.5996 20.0658 21.2045 19.721C20.8078 19.3748 20.2611 19.2031 19.666 19.2031C19.0469 19.2031 18.5007 19.3751 18.1104 19.7206C17.7215 20.0648 17.4785 20.589 17.4785 21.3125V24.5C17.4785 24.5431 17.4435 24.5781 17.4004 24.5781H15.4004C15.3572 24.5781 15.3223 24.5431 15.3223 24.5V16ZM15.4785 16.0781V24.4219H17.3223V21.3125C17.3223 20.5516 17.5793 19.982 18.0068 19.6036C18.4329 19.2265 19.0195 19.0469 19.666 19.0469C20.2897 19.0469 20.8758 19.2268 21.3072 19.6032C21.7403 19.9811 22.0098 20.5505 22.0098 21.3125V24.4219H23.8535V16.0781H15.4785Z" fill="black"/>
</g>
<defs>
<clipPath id="clip0_8424_43295">
<rect width="40" height="40" rx="20" fill="white"/>
</clipPath>
</defs>
</svg>
