<svg width="56" height="56" viewBox="0 0 56 56" fill="none" xmlns="http://www.w3.org/2000/svg">
<g clip-path="url(#clip0_3318_24485)">
<path d="M28 56C43.464 56 56 43.464 56 28C56 12.536 43.464 0 28 0C12.536 0 0 12.536 0 28C0 43.464 12.536 56 28 56Z" fill="#F0F0F0"/>
<path d="M28 20.6956H55.0354C54.3333 18.091 53.2663 15.6365 51.8903 13.3912H28V20.6956Z" fill="#338AF3"/>
<path d="M10.57 49.913H45.4293C47.9846 47.8778 50.176 45.4057 51.8899 42.6086H4.10938C5.82339 45.4056 8.01483 47.8778 10.57 49.913Z" fill="#338AF3"/>
<path d="M9.7388 6.77454C7.53752 8.67011 5.6345 10.9023 4.10938 13.3913H9.7388V6.77454Z" fill="#338AF3"/>
<path d="M28 27.9999C28 25.1479 28 22.761 28 20.6956H17.0435V27.9999H9.73908V20.6956H0.964578C0.336875 23.0246 0 25.4726 0 27.9999C0 30.5273 0.336875 32.9753 0.964578 35.3043H55.0355C55.6631 32.9753 56 30.5273 56 27.9999H28Z" fill="#338AF3"/>
<path d="M28.0005 0C24.1123 0 20.4094 0.793297 17.0439 2.22556V13.3913H28.0005C28.0005 10.8416 28.0005 8.673 28.0005 6.08694H45.4302C40.6471 2.27763 34.5902 0 28.0005 0Z" fill="#338AF3"/>
</g>
<defs>
<clipPath id="clip0_3318_24485">
<rect width="56" height="56" fill="white"/>
</clipPath>
</defs>
</svg>
