<svg width="40" height="40" viewBox="0 0 40 40" fill="none" xmlns="http://www.w3.org/2000/svg">
<g clip-path="url(#clip0_8424_43293)">
<path d="M-7 0H46.3333V40H-7V0Z" fill="white"/>
<path d="M-7 20.0001H46.3333V40.0001H-7V20.0001ZM-0.333334 20.0001C-0.333334 23.5363 1.07142 26.9277 3.57191 29.4282C6.07239 31.9287 9.46378 33.3334 13 33.3334C16.5362 33.3334 19.9276 31.9287 22.4281 29.4282C24.9286 26.9277 26.3333 23.5363 26.3333 20.0001C26.3333 16.4639 24.9286 13.0725 22.4281 10.572C19.9276 8.07151 16.5362 6.66675 13 6.66675C9.46378 6.66675 6.07239 8.07151 3.57191 10.572C1.07142 13.0725 -0.333333 16.4639 -0.333334 20.0001Z" fill="#D00C33"/>
</g>
<defs>
<clipPath id="clip0_8424_43293">
<rect width="40" height="40" rx="20" fill="white"/>
</clipPath>
</defs>
</svg>
