<svg width="40" height="40" viewBox="0 0 40 40" fill="none" xmlns="http://www.w3.org/2000/svg">
<g clip-path="url(#clip0_8424_43300)">
<path d="M-7 0H46.3333V40H-7V0Z" fill="#CE1126"/>
<path d="M-1.40039 5.59998H40.7329V34.4H-1.40039V5.59998Z" fill="#007A5E"/>
<path d="M-1.40039 5.60828H40.7329L-1.40039 34.4083H40.7329L-1.40039 5.60828Z" fill="#FCD116"/>
<path d="M19.6584 24.8084C22.3094 24.8084 24.4584 22.6593 24.4584 20.0084C24.4584 17.3574 22.3094 15.2084 19.6584 15.2084C17.0074 15.2084 14.8584 17.3574 14.8584 20.0084C14.8584 22.6593 17.0074 24.8084 19.6584 24.8084Z" fill="#CE1126"/>
<path d="M1.52539 20.0583C2.15844 21.2389 3.13085 22.2025 4.31706 22.825C4.27083 21.5226 3.94994 20.2447 3.37539 19.075L1.52539 20.0583Z" fill="#CE1126"/>
<path d="M0.50814 16.225C1.37481 18.0333 -1.75019 22.3666 3.46647 23.3833C2.76205 22.3627 2.44039 21.1262 2.55814 19.8916C3.71758 20.4276 4.66906 21.3293 5.26647 22.4583C6.63314 17.5 1.76647 17.8083 0.50814 16.225Z" fill="#FCD116"/>
</g>
<defs>
<clipPath id="clip0_8424_43300">
<rect width="40" height="40" rx="20" fill="white"/>
</clipPath>
</defs>
</svg>
