<svg width="40" height="40" viewBox="0 0 40 40" fill="none" xmlns="http://www.w3.org/2000/svg">
<g clip-path="url(#clip0_8424_43380)">
<path fill-rule="evenodd" clip-rule="evenodd" d="M-7 0H46.3333V40H-7V0Z" fill="#BE0027"/>
<path fill-rule="evenodd" clip-rule="evenodd" d="M-4.86719 2.2749H44.2578V37.9749H-4.86719V2.2749Z" fill="#3B5AA3"/>
<path fill-rule="evenodd" clip-rule="evenodd" d="M19.2002 34.4333C19.3093 34.4854 19.4284 34.5131 19.5493 34.5145C19.6702 34.516 19.7899 34.4911 19.9002 34.4416C31.3835 28.3333 31.3835 11.5833 19.9085 5.55828C19.7942 5.50626 19.6697 5.48073 19.5441 5.48362C19.4186 5.4865 19.2953 5.51773 19.1835 5.57495C7.99187 11.6916 7.95853 28.25 19.1919 34.4333H19.2002Z" fill="#CBE0E5"/>
<path fill-rule="evenodd" clip-rule="evenodd" d="M19.1994 34.7416C19.3661 34.8832 19.7327 34.8666 19.8994 34.7416C28.3577 28.4082 28.3994 24.4666 28.0327 24.4666H11.2827C11.0327 24.4666 11.4327 28.4832 19.1994 34.7416Z" fill="#ADD2D9"/>
<path fill-rule="evenodd" clip-rule="evenodd" d="M12.6079 27.5999C13.374 27.3598 14.2017 27.4103 14.9329 27.7416C15.5663 28.0749 15.9329 28.0749 16.6163 28.0749C17.3329 28.0916 17.8913 28.6166 18.6663 28.6416C20.0913 28.6749 20.6913 29.3832 19.5829 29.3916C19.0663 29.3916 17.9413 29.0332 17.3996 29.1082C16.2663 29.2249 15.5496 29.4749 14.4829 30.6666L15.7163 31.4999C16.7829 31.0749 16.9579 30.5832 17.5496 30.5666C18.2163 30.5416 18.4413 30.1332 19.2163 30.1332C20.1415 30.2105 21.0731 30.1202 21.9663 29.8666C23.1996 29.5832 22.6163 28.7166 21.8663 28.4082C21.2579 28.1499 20.1329 28.3999 19.4329 28.1416C18.8996 27.9332 19.3329 27.5999 19.6246 27.5332C19.9079 27.4749 20.2163 27.5749 20.5746 27.6332C21.2163 27.6832 22.0246 27.6249 22.5829 27.5332C23.7496 27.3582 23.6996 27.0166 24.2496 27.0082C24.6663 26.9832 24.9746 26.8666 25.2496 26.6666C25.5829 26.4416 25.9246 25.9999 26.3246 26.0166L27.3829 26.0582L25.8829 29.4249L21.6579 33.7332L19.4663 34.5666L14.6496 31.4249L12.2246 27.6999L12.6163 27.5999H12.6079Z" fill="#FDF9A1"/>
<path fill-rule="evenodd" clip-rule="evenodd" d="M18.1499 24.3333L27.8166 24.2833L27.9833 23.425C27.9833 23.425 27.6416 23.375 27.3583 23.3583C27.0166 23.3333 26.4166 23.725 26.0249 23.7166C25.7333 23.7166 25.4166 23.2166 25.1333 23.2166C24.6333 23.2166 24.5999 23.6583 24.1333 23.675C23.7583 23.6583 23.5999 23.375 23.1083 23.4083C22.6083 23.4333 22.6416 23.7166 21.9999 23.7C21.1499 23.675 20.8083 22.9416 20.1249 22.9333C18.9916 22.9166 18.9583 24.0166 18.1416 24.325L18.1499 24.3333Z" fill="#179A3B"/>
<path fill-rule="evenodd" clip-rule="evenodd" d="M18.1493 24.5332L28.0993 24.4832V24.2166L17.916 24.2666L18.141 24.5332H18.1493Z" fill="#FDF9A1"/>
<path fill-rule="evenodd" clip-rule="evenodd" d="M22.2327 27.525C22.391 28.1083 22.5493 28.3083 23.166 28.4667C23.7743 28.6083 24.7077 28.0167 24.1327 27.4417C23.5827 26.9083 22.9993 26.775 22.5077 26.2917C21.466 25.2667 19.8993 22.75 19.8993 20.975C19.8993 19.45 19.7493 16.325 19.7493 13.3667C19.7493 13.175 19.166 13.9 19.166 14.1C19.1993 16.7083 19.1993 18.6833 19.2993 21.3167C19.466 23.2417 20.3827 24.5417 21.191 25.7083C21.5493 26.275 22.0743 26.875 22.2327 27.525Z" fill="#A79270"/>
<path d="M15.959 19.3635C15.9368 19.2956 15.9076 19.2349 15.8713 19.1811C15.8357 19.1267 15.7931 19.0804 15.7434 19.0421C15.6943 19.0038 15.6386 18.9746 15.5761 18.9544C15.5136 18.9343 15.4451 18.9242 15.3706 18.9242C15.2483 18.9242 15.1371 18.9558 15.0371 19.0189C14.937 19.082 14.8574 19.1751 14.7983 19.298C14.7391 19.4209 14.7096 19.5717 14.7096 19.7504C14.7096 19.9291 14.7395 20.0799 14.7993 20.2028C14.859 20.3257 14.94 20.4188 15.0421 20.4819C15.1442 20.545 15.2591 20.5766 15.3867 20.5766C15.5049 20.5766 15.609 20.5514 15.699 20.501C15.7897 20.45 15.8602 20.3781 15.9106 20.2854C15.9617 20.1921 15.9872 20.0822 15.9872 19.9559L16.0638 19.9721H15.4431V19.7504H16.229V19.9721C16.229 20.142 16.1927 20.2898 16.1202 20.4154C16.0483 20.541 15.9489 20.6384 15.822 20.7076C15.6957 20.7761 15.5506 20.8104 15.3867 20.8104C15.204 20.8104 15.0434 20.7674 14.9051 20.6814C14.7674 20.5954 14.6599 20.4732 14.5826 20.3146C14.5061 20.1561 14.4678 19.968 14.4678 19.7504C14.4678 19.5872 14.4896 19.4404 14.5333 19.3101C14.5776 19.1791 14.6401 19.0676 14.7207 18.9756C14.8013 18.8835 14.8967 18.813 15.0068 18.764C15.117 18.7149 15.2382 18.6904 15.3706 18.6904C15.4794 18.6904 15.5808 18.7069 15.6748 18.7398C15.7696 18.772 15.8539 18.8181 15.9278 18.8778C16.0023 18.9369 16.0644 19.0078 16.1142 19.0904C16.1639 19.1724 16.1981 19.2634 16.2169 19.3635H15.959Z" fill="#BD0728"/>
<path fill-rule="evenodd" clip-rule="evenodd" d="M15.3704 18.7791C15.2492 18.7791 15.1404 18.8015 15.0427 18.845C14.9444 18.8888 14.8594 18.9515 14.7872 19.034C14.7152 19.1162 14.6582 19.2171 14.6171 19.3384C14.577 19.4581 14.5562 19.5951 14.5562 19.7504C14.5562 19.9577 14.5927 20.132 14.6622 20.276C14.7328 20.4208 14.8294 20.5298 14.9517 20.6062C15.0744 20.6824 15.2183 20.7217 15.3865 20.7217C15.5377 20.7217 15.6679 20.6902 15.7794 20.6297C15.8919 20.5684 15.9793 20.4827 16.043 20.3714L16.0432 20.3711C16.1067 20.2611 16.1401 20.1292 16.1401 19.9721V19.8391H15.5316V19.8834H15.8983V19.8467L16.0818 19.8853L16.0745 19.956H16.0757C16.0757 20.0943 16.0476 20.2193 15.9883 20.3279C15.9301 20.435 15.8477 20.519 15.7423 20.5784L15.7421 20.5785C15.6371 20.6373 15.5176 20.6653 15.3865 20.6653C15.2435 20.6653 15.1123 20.6297 14.9953 20.5574C14.877 20.4842 14.7854 20.3775 14.7193 20.2416C14.6522 20.1035 14.6207 19.9386 14.6207 19.7504C14.6207 19.5624 14.6518 19.3976 14.7181 19.2596C14.7834 19.124 14.8733 19.0173 14.9895 18.944C15.1043 18.8716 15.2319 18.8356 15.3704 18.8356C15.4529 18.8356 15.5308 18.8467 15.6031 18.8701C15.6748 18.8932 15.7399 18.9271 15.7975 18.972C15.8551 19.0164 15.9043 19.07 15.945 19.1321C15.9746 19.1761 15.9998 19.2237 16.0207 19.2749H16.1023C16.0857 19.2256 16.0642 19.1795 16.0381 19.1365L16.038 19.1362C15.9937 19.0626 15.9386 18.9998 15.8725 18.9474L15.8718 18.9468C15.8064 18.8939 15.7314 18.8528 15.6461 18.8238L15.6454 18.8235C15.5616 18.7942 15.4701 18.7791 15.3704 18.7791ZM15.8912 20.0608H15.3542V19.6618H16.3175V19.9721C16.3175 20.1549 16.2784 20.3184 16.1969 20.4596C16.1169 20.5994 16.0055 20.7085 15.8642 20.7855L15.864 20.7856C15.723 20.8621 15.563 20.8991 15.3865 20.8991C15.1893 20.8991 15.0121 20.8525 14.8581 20.7568L14.8579 20.7567C14.7049 20.6611 14.5866 20.5257 14.5027 20.3535L14.5026 20.3533C14.419 20.1802 14.3789 19.9783 14.3789 19.7504C14.3789 19.5794 14.4018 19.4229 14.449 19.282L14.4491 19.2817C14.4967 19.1411 14.5646 19.0191 14.6538 18.9172C14.7427 18.8157 14.8485 18.7374 14.9706 18.683C15.0931 18.6285 15.2268 18.6018 15.3704 18.6018C15.4881 18.6018 15.5994 18.6196 15.7036 18.656C15.8074 18.6914 15.9007 18.7422 15.983 18.8087C16.0658 18.8744 16.1348 18.9532 16.1898 19.0446C16.2454 19.1362 16.2832 19.2373 16.3039 19.3472L16.3236 19.4522H15.8945L15.8745 19.3911C15.8546 19.3303 15.8289 19.277 15.7976 19.2308L15.7973 19.2302L15.7969 19.2297C15.7666 19.1833 15.7306 19.1444 15.6891 19.1124L15.6886 19.112C15.6482 19.0805 15.6018 19.056 15.5487 19.0388C15.4961 19.0219 15.4369 19.0129 15.3704 19.0129C15.2643 19.0129 15.1696 19.04 15.0842 19.0939C15.0002 19.1469 14.931 19.2262 14.878 19.3365C14.8261 19.4443 14.7981 19.5811 14.7981 19.7504C14.7981 19.9196 14.8264 20.0563 14.8788 20.1641C14.9323 20.274 15.0026 20.3534 15.0885 20.4065C15.1757 20.4605 15.2742 20.488 15.3865 20.488C15.4917 20.488 15.5805 20.4657 15.6554 20.4238C15.7313 20.381 15.79 20.3214 15.8325 20.2431L15.8326 20.2429C15.8615 20.1901 15.8814 20.1297 15.8912 20.0608Z" fill="white"/>
<path d="M18.4518 18.7297H18.7017V20.096C18.7017 20.2371 18.6685 20.363 18.602 20.4738C18.5361 20.584 18.4431 20.671 18.3229 20.7348C18.2026 20.798 18.0616 20.8295 17.8997 20.8295C17.7378 20.8295 17.5967 20.798 17.4765 20.7348C17.3563 20.671 17.2629 20.584 17.1964 20.4738C17.1306 20.363 17.0977 20.2371 17.0977 20.096V18.7297H17.3475V20.0759C17.3475 20.1766 17.3697 20.2663 17.414 20.3449C17.4584 20.4228 17.5215 20.4843 17.6035 20.5293C17.6861 20.5736 17.7848 20.5958 17.8997 20.5958C18.0146 20.5958 18.1133 20.5736 18.1959 20.5293C18.2785 20.4843 18.3417 20.4228 18.3853 20.3449C18.4297 20.2663 18.4518 20.1766 18.4518 20.0759V18.7297Z" fill="#BD0728"/>
<path fill-rule="evenodd" clip-rule="evenodd" d="M17.0088 18.6411H17.436V20.0759C17.436 20.1631 17.455 20.2374 17.491 20.3012C17.5268 20.3641 17.5776 20.414 17.6456 20.4514C17.7126 20.4873 17.7962 20.5071 17.8995 20.5071C18.0028 20.5071 18.0864 20.4873 18.1535 20.4513C18.2222 20.4139 18.2728 20.3641 18.3078 20.3016L18.3079 20.3014C18.3439 20.2376 18.363 20.1632 18.363 20.0759V18.6411H18.7902V20.0961C18.7902 20.2516 18.7533 20.3936 18.6779 20.5194C18.6032 20.6443 18.4979 20.7423 18.3642 20.8132L18.3639 20.8134C18.2287 20.8843 18.073 20.9182 17.8995 20.9182C17.726 20.9182 17.5703 20.8843 17.4351 20.8134L17.4347 20.8132C17.3012 20.7423 17.1956 20.6444 17.1203 20.5197L17.12 20.5192C17.0452 20.3934 17.0088 20.2515 17.0088 20.0961V18.6411ZM17.1861 18.8184V20.0961C17.1861 20.2226 17.2154 20.3325 17.2723 20.4283C17.3299 20.5238 17.411 20.5998 17.5177 20.6564C17.623 20.7117 17.7493 20.7409 17.8995 20.7409C18.0497 20.7409 18.176 20.7117 18.2813 20.6564C18.388 20.5997 18.4687 20.5238 18.5257 20.4284L18.5257 20.4283C18.5832 20.3325 18.6128 20.2226 18.6128 20.0961V18.8184H18.5403V20.0759C18.5403 20.1901 18.5151 20.295 18.4624 20.3884C18.4102 20.4816 18.3346 20.5546 18.2381 20.6072L18.2376 20.6074C18.1395 20.6601 18.0257 20.6845 17.8995 20.6845C17.7732 20.6845 17.6594 20.6601 17.5613 20.6074L17.5606 20.607C17.4649 20.5545 17.3896 20.4816 17.3368 20.3888L17.3366 20.3885C17.2839 20.2951 17.2587 20.1901 17.2587 20.0759V18.8184H17.1861Z" fill="white"/>
<path d="M20.2747 20.7933H20.0127L20.7704 18.7297H21.0283L21.786 20.7933H21.5241L20.9074 19.0562H20.8913L20.2747 20.7933ZM20.3714 19.9872H21.4273V20.2089H20.3714V19.9872Z" fill="#BD0728"/>
<path fill-rule="evenodd" clip-rule="evenodd" d="M20.7086 18.6411H21.0903L21.9131 20.882H21.4615L21.2541 20.2976H20.5448L20.3373 20.882H19.8857L20.7086 18.6411ZM20.6077 20.1202H21.1911L21.1754 20.0759H20.6235L20.6077 20.1202ZM20.6864 19.8986H21.1124L20.8994 19.2986L20.6864 19.8986ZM21.3006 19.8986L20.9701 18.9676H20.8287L20.4983 19.8986H20.4357L20.8323 18.8184H20.9665L21.3631 19.8986H21.3006ZM21.4422 20.2976L21.5867 20.7046H21.6591L21.5096 20.2976H21.4422ZM20.2892 20.2976H20.3566L20.2121 20.7046H20.1398L20.2892 20.2976Z" fill="white"/>
<path d="M22.7949 18.7188H23.0932L23.7944 20.4316H23.8186L24.5199 18.7188H24.8181V20.7823H24.5844V19.2145H24.5642L23.9194 20.7823H23.6937L23.0488 19.2145H23.0287V20.7823H22.7949V18.7188Z" fill="#BD0728"/>
<path fill-rule="evenodd" clip-rule="evenodd" d="M22.7051 18.6301H23.1515L23.8054 20.2272L24.4592 18.6301H24.9056V20.871H24.4945V19.6142L23.9776 20.871H23.6331L23.1162 19.6142V20.871H22.7051V18.6301ZM22.8824 18.8075V20.6936H22.9388V19.1259H23.1071L23.7519 20.6936H23.8588L24.5036 19.1259H24.6719V20.6936H24.7283V18.8075H24.5782L23.877 20.5203H23.7338L23.0325 18.8075H22.8824Z" fill="white"/>
<path fill-rule="evenodd" clip-rule="evenodd" d="M14.6332 13.4083C14.5082 13.6583 14.9332 13.3333 15.0332 13.3C15.5915 13.1 15.8082 12.4 16.7665 12.825C17.5165 13.15 18.5248 12.9583 17.9998 13.2917C17.3498 13.6833 16.0415 14.1167 16.0165 16.0583C16.1248 16.2417 16.1332 16.2167 16.2248 16.0083C16.4248 15.5583 17.3665 14.3333 17.8332 14.4333C18.0248 14.4833 18.5748 13.875 18.5832 14.05C18.6415 14.5333 17.8332 15.5167 17.8498 16.825C17.8498 17.1333 18.2248 17.2333 18.3998 17.0167C18.5832 16.825 18.6832 16.6333 18.9998 16.3833C19.5498 15.9333 19.3998 14 19.4665 14.0917C19.8582 14.5917 19.9165 16.0333 20.4998 16.6167C20.9915 17.1083 21.3832 16.8667 21.2748 16.2C21.0665 14.8333 20.4248 15.225 20.1165 13.8167C20.0498 13.5417 20.0332 13.3 20.3998 13.4083C20.8415 13.5417 21.1082 13.7417 21.4332 14.2417C21.7665 14.725 22.3832 15.1833 22.7415 15.4583C23.3665 15.9417 23.5915 15.525 23.2915 14.9083C22.9105 14.208 22.2889 13.6692 21.5415 13.3917C21.0248 13.2083 20.8415 13.1917 20.3915 13.1083C20.2665 13.0833 20.1415 12.825 20.3582 12.6833C20.8401 12.3358 21.4018 12.1152 21.9915 12.0417C22.5498 12.025 22.9915 12.475 23.3832 12.5917C24.1665 12.7917 24.1665 12.3 23.8165 11.925C23.5332 11.6167 22.9332 11.0917 22.3748 11.1667C21.2498 11.3083 21.3248 11.275 20.6248 11.7333C20.3748 11.8833 20.0915 12.05 20.1998 11.8667C20.4498 11.4083 20.2165 11.4917 20.6082 11.025C20.9082 10.6917 21.1332 10.4417 21.4415 10.3583C21.7248 10.2833 22.1082 9.98334 22.2165 9.825C22.4998 9.44167 22.2582 9.21667 21.8248 9.35C21.4415 9.45 21.2415 9.7 20.9915 9.76667C20.3748 9.96667 19.8832 11.35 19.8082 11.55C19.7165 11.7833 19.6082 11.6667 19.6248 11.4667C19.7082 10.4917 19.7915 8.84167 19.4582 8.16667C18.9248 7.16667 18.9748 7.63334 18.7748 8.10834C18.4748 8.85834 18.5832 9.56667 18.7748 10.3C18.8582 10.6667 19.1582 11.0833 19.2165 11.375C19.2582 11.6 19.0832 11.3083 18.9832 11.1667C18.6582 10.6667 18.4165 10.3333 17.8832 10.0583C17.3505 9.83917 16.7651 9.78122 16.1998 9.89167C16.0498 9.94167 16.3665 10.1583 16.4915 10.2583C16.8498 10.5417 17.5248 10.6333 17.9915 10.9167C18.3748 11.1583 18.6748 11.3083 18.8082 11.6417C18.8582 11.8917 18.9415 12.2583 18.7748 12.25C18.3498 12.225 17.6915 11.85 16.3248 12C15.6248 12.1 15.0248 12.6917 14.6332 13.4083Z" fill="#239E46"/>
<path fill-rule="evenodd" clip-rule="evenodd" d="M17.6084 25.8833H18.0001V26.5416H17.6084V25.8833Z" fill="black"/>
<path fill-rule="evenodd" clip-rule="evenodd" d="M15.6417 21.4917C17.2083 23.6584 19.725 24.925 19.775 25.9084H14.875C16 24.5584 16.6917 23.6417 15.6417 21.4917Z" fill="#FDF9FF"/>
<path fill-rule="evenodd" clip-rule="evenodd" d="M14.2169 25.9583C16.3502 26.4333 18.8919 26.6999 20.5169 25.8916C20.5336 26.3666 19.9919 27.0583 19.5419 27.0583H15.4586C15.9336 26.9833 16.2086 26.8416 16.9752 26.8083L14.8086 26.8249C14.5586 26.8333 14.1419 26.1916 14.2169 25.9583Z" fill="#A68861"/>
<path fill-rule="evenodd" clip-rule="evenodd" d="M19.0505 35.4167C19.2672 35.5417 19.6089 35.5333 19.8005 35.4333C32.1172 28.875 32.1255 10.9 19.8172 4.43335C19.694 4.3763 19.5593 4.34814 19.4236 4.35103C19.2878 4.35392 19.1545 4.38777 19.0339 4.45001C7.03385 11.0167 7.00052 28.7833 19.0505 35.425V35.4167ZM19.1089 33.9417C19.2124 33.9926 19.3259 34.0198 19.4412 34.0212C19.5566 34.0226 19.6708 33.9983 19.7755 33.95C30.0755 27.8833 30.2005 11.8583 19.7839 6.11668C19.5839 5.96668 19.2922 6.01668 19.0922 6.11668C9.22552 11.9583 8.67552 27.325 19.1089 33.9417Z" fill="#BE0027"/>
<path d="M15.3997 18.7834C15.5886 18.7834 15.7553 18.8223 15.8997 18.9001C16.0942 19.0001 16.2136 19.1834 16.2581 19.4501H15.9997C15.9664 19.3057 15.8942 19.1946 15.7831 19.1168C15.6831 19.0501 15.5525 19.0168 15.3914 19.0168C15.2081 19.0168 15.0497 19.0918 14.9164 19.2418C14.7886 19.3807 14.7247 19.5918 14.7247 19.8751C14.7247 20.1084 14.7775 20.3029 14.8831 20.4584C14.9942 20.6084 15.1692 20.6834 15.4081 20.6834C15.5914 20.6834 15.7414 20.6307 15.8581 20.5251C15.9859 20.4196 16.0497 20.2473 16.0497 20.0084H15.4164V19.7834H16.2997V20.8668H16.1247L16.0581 20.6001C15.9692 20.7057 15.8859 20.7807 15.8081 20.8251C15.6859 20.8918 15.5331 20.9251 15.3497 20.9251C15.1109 20.9251 14.9025 20.8473 14.7247 20.6918C14.5359 20.4918 14.4414 20.2223 14.4414 19.8834C14.4414 19.5446 14.5331 19.2751 14.7164 19.0751C14.8942 18.8807 15.122 18.7834 15.3997 18.7834Z" fill="#BD0728"/>
<path d="M17.3673 18.8416V20.1083C17.3673 20.2527 17.3951 20.3721 17.4507 20.4666C17.5284 20.6166 17.6673 20.6916 17.8673 20.6916C18.0951 20.6916 18.2534 20.6138 18.3423 20.4583C18.3868 20.3694 18.409 20.2527 18.409 20.1083V18.8333H18.6923V19.9833C18.6923 20.2277 18.6534 20.4221 18.5757 20.5666C18.459 20.8055 18.2312 20.9249 17.8923 20.9249C17.5423 20.9249 17.3062 20.8027 17.184 20.5583C17.1173 20.4194 17.084 20.2277 17.084 19.9833V18.8333L17.3673 18.8416Z" fill="#BD0728"/>
<path d="M21.2001 20.0416L20.8917 19.1499L20.5584 20.0416H21.2001ZM20.7501 18.8333H21.0584L21.8084 20.8749H21.4917L21.2917 20.2666H20.4834L20.2584 20.8749H19.9834L20.7501 18.8333Z" fill="#BD0728"/>
<path d="M22.75 18.8333H23.1583L23.7333 20.5583L24.3167 18.8333H24.7083V20.8666H24.4417V19.1499L23.8583 20.8666H23.6L23.0167 19.1499V20.8666H22.75V18.8333Z" fill="#BD0728"/>
</g>
<defs>
<clipPath id="clip0_8424_43380">
<rect width="40" height="40" rx="20" fill="white"/>
</clipPath>
</defs>
</svg>
