<svg width="40" height="40" viewBox="0 0 40 40" fill="none" xmlns="http://www.w3.org/2000/svg">
<g clip-path="url(#clip0_8424_43285)">
<path fill-rule="evenodd" clip-rule="evenodd" d="M-6.7998 0H46.3335V40H-6.7998V0Z" fill="#399408"/>
<path fill-rule="evenodd" clip-rule="evenodd" d="M-6.98333 0C-7.05833 0 44.65 20.125 44.65 20.125L-7 39.9833L-6.98333 0Z" fill="white"/>
<path fill-rule="evenodd" clip-rule="evenodd" d="M-6.97461 1.68335C-6.69128 1.68335 39.6087 19.8417 39.3504 20.0167L-6.84128 38.6L-6.97461 1.69168V1.68335Z" fill="#FFDE08"/>
<path fill-rule="evenodd" clip-rule="evenodd" d="M-6.84128 0.0666504C-6.69128 0.0666504 17.4004 20.1417 17.4004 20.1417L-6.84961 39.75V0.0666504H-6.84128Z" fill="black"/>
<path fill-rule="evenodd" clip-rule="evenodd" d="M-6.97507 2.82501C-6.84173 1.57501 14.7666 20.1917 14.7666 20.1917L-6.9834 37.6417V2.82501H-6.97507Z" fill="#DE2110"/>
</g>
<defs>
<clipPath id="clip0_8424_43285">
<rect width="40" height="40" rx="20" fill="white"/>
</clipPath>
</defs>
</svg>
