<svg width="40" height="40" viewBox="0 0 40 40" fill="none" xmlns="http://www.w3.org/2000/svg">
<g clip-path="url(#clip0_8424_43404)">
<path d="M-7 0H46.3333V40H-7V0Z" fill="#00008B"/>
<path d="M-3.875 0L6.29167 7.54167L16.4167 0H19.6667V2.58333L9.66667 10.0417L19.6667 17.4583V20H16.3333L6.33333 12.5417L-3.625 20H-7V17.5L2.95833 10.0833L-7 2.66667V0H-3.875Z" fill="white"/>
<path d="M10.6667 11.7083L19.6667 18.3333V20L8.375 11.7083H10.6667ZM3 12.5417L3.25 14L-4.75 20H-7L3 12.5417ZM19.6667 0V0.125L9.29167 7.95833L9.375 6.125L17.5833 0H19.6667ZM-7 0L2.95833 7.33333H0.458333L-7 1.75V0Z" fill="#FF0000"/>
<path d="M3.04167 0V20H9.70833V0H3.04167ZM-7 6.66667V13.3333H19.6667V6.66667H-7Z" fill="white"/>
<path d="M-7 8.04167V12.0417H19.6667V8.04167H-7ZM4.375 0V20H8.375V0H4.375Z" fill="#FF0000"/>
<path d="M36.9165 33.0583L35.2081 33.275L35.3915 34.9833L34.1581 33.7833L32.9331 34.9916L33.0998 33.2833L31.3915 33.0833L32.8331 32.15L31.9248 30.6916L33.5581 31.2333L34.1331 29.6083L34.7248 31.225L36.3498 30.6666L35.4581 32.1333L36.9081 33.0583H36.9165ZM36.6081 23.2916L36.8331 22.2083L36.0165 21.4583L37.1165 21.3333L37.5748 20.325L38.0331 21.3333L39.1331 21.4583L38.3165 22.2083L38.5415 23.2916L37.5748 22.7416L36.6081 23.2916ZM27.9331 18.2916L26.2415 18.475L26.3915 20.1666L25.1915 18.9583L23.9581 20.1333L24.1581 18.4416L22.4748 18.2166L23.9165 17.3166L23.0415 15.8583L24.6498 16.425L25.2498 14.8333L25.8081 16.4416L27.4248 15.9166L26.5165 17.3583L27.9415 18.2916H27.9331ZM44.9165 15.5583L43.1748 15.7833L43.3665 17.525L42.1081 16.3L40.8581 17.5333L41.0331 15.7833L39.2915 15.5833L40.7665 14.625L39.8415 13.1333L41.5081 13.6916L42.0915 12.0416L42.6915 13.6916L44.3498 13.1166L43.4331 14.6166L44.9165 15.5583ZM36.9081 8.59995L35.1831 8.79162L35.3415 10.525L34.1165 9.29162L32.8581 10.4916L33.0581 8.76662L31.3331 8.53328L32.8081 7.61662L31.9165 6.12495L33.5581 6.69995L34.1665 5.07495L34.7331 6.71662L36.3831 6.17495L35.4581 7.64162L36.9081 8.59995ZM12.4998 32.1416L8.68314 32.5916L9.06647 36.4166L6.33314 33.7166L3.58314 36.4L3.99147 32.575L0.174805 32.0916L3.41647 30.025L1.41647 26.7416L5.04981 27.9916L6.36647 24.375L7.65814 28L11.2998 26.775L9.27481 30.0416L12.5081 32.1333L12.4998 32.1416Z" fill="white"/>
</g>
<defs>
<clipPath id="clip0_8424_43404">
<rect width="40" height="40" rx="20" fill="white"/>
</clipPath>
</defs>
</svg>
