<svg width="512" height="512" viewBox="0 0 512 512" fill="none" xmlns="http://www.w3.org/2000/svg">
<g clip-path="url(#clip0_3274_50681)">
<path d="M0 0H512V512H0V0Z" fill="#EE1C25"/>
<path d="M292.639 106.834C289.151 107.951 285.967 109.857 283.335 112.404C280.703 114.951 278.694 118.071 277.464 121.521C276.234 124.971 275.816 128.658 276.242 132.296C276.669 135.934 277.928 139.424 279.923 142.496C282.991 147.22 284.986 152.559 285.768 158.138C286.55 163.716 286.1 169.398 284.449 174.784C282.798 180.169 279.988 185.128 276.214 189.31C272.441 193.492 267.797 196.796 262.609 198.99C257.499 201.152 253.016 204.567 249.576 208.921C246.137 213.274 243.851 218.426 242.931 223.897C242.01 229.369 242.485 234.984 244.312 240.224C246.138 245.463 249.257 250.157 253.379 253.871C240.981 245.05 232.519 231.734 229.799 216.763C227.078 201.792 230.313 186.351 238.814 173.731C238.485 173.449 238.169 173.15 237.868 172.837C229.169 185.651 225.797 201.347 228.465 216.604C231.133 231.86 239.633 245.48 252.165 254.581C234.589 247.541 220.219 234.28 211.792 217.325C203.366 200.37 201.474 180.908 206.476 162.647C211.479 144.387 223.026 128.606 238.916 118.313C254.807 108.019 273.929 103.933 292.639 106.834" fill="white"/>
<path d="M257.689 154.538L234.167 164.797L259.226 170.323L242.201 151.123L244.689 176.663" fill="#EE1C25"/>
<path d="M409.187 244.751C407.047 241.778 404.25 239.339 401.015 237.623C397.779 235.907 394.191 234.961 390.529 234.857C386.868 234.753 383.232 235.495 379.904 237.025C376.576 238.554 373.646 240.831 371.341 243.677C367.796 248.055 363.334 251.602 358.271 254.069C353.207 256.537 347.664 257.865 342.032 257.959C336.4 258.054 330.816 256.913 325.672 254.616C320.529 252.32 315.951 248.924 312.261 244.668C308.627 240.476 303.993 237.268 298.79 235.342C293.586 233.416 287.981 232.834 282.492 233.65C277.004 234.465 271.81 236.652 267.392 240.008C262.973 243.364 259.473 247.781 257.215 252.849C261.773 238.332 271.822 226.17 285.219 218.956C298.617 211.742 314.302 210.047 328.931 214.233C329.098 213.832 329.284 213.439 329.489 213.056C314.614 208.743 298.644 210.386 284.959 217.638C271.274 224.891 260.947 237.183 256.164 251.914C257.428 233.023 265.6 215.258 279.121 202.005C292.642 188.752 310.567 180.938 329.479 180.052C348.392 179.167 366.969 185.272 381.669 197.204C396.369 209.136 406.164 226.06 409.187 244.751" fill="white"/>
<path d="M353.017 226.253L335.992 207.052L338.48 232.593L351.48 210.468L327.958 220.726" fill="#EE1C25"/>
<path d="M138.68 355.142C142.159 356.289 145.855 356.618 149.482 356.105C153.108 355.591 156.567 354.248 159.59 352.18C162.613 350.112 165.119 347.374 166.912 344.181C168.705 340.987 169.738 337.423 169.93 333.765C170.225 328.14 171.749 322.648 174.395 317.675C177.041 312.703 180.745 308.371 185.246 304.984C189.747 301.597 194.936 299.238 200.447 298.072C205.957 296.906 211.657 296.963 217.144 298.237C222.548 299.493 228.182 299.364 233.524 297.864C238.866 296.363 243.743 293.54 247.704 289.654C251.664 285.768 254.581 280.946 256.183 275.634C257.785 270.321 258.021 264.691 256.869 259.263C261.714 273.687 260.733 289.433 254.134 303.144C247.536 316.855 235.842 327.446 221.547 332.658C221.648 333.081 221.728 333.508 221.787 333.938C236.357 328.684 248.311 317.968 255.119 304.057C261.928 290.146 263.057 274.131 258.268 259.403C268.349 275.428 272.181 294.604 269.032 313.273C265.883 331.943 255.974 348.801 241.194 360.633C226.414 372.466 207.796 378.446 188.89 377.433C169.984 376.421 152.112 368.486 138.68 355.142" fill="white"/>
<path d="M194.995 337.092L220.055 342.618L203.029 323.417L205.517 348.958L218.517 326.833" fill="#EE1C25"/>
<path d="M314.036 398.214C316.202 395.26 317.657 391.846 318.289 388.239C318.921 384.631 318.713 380.926 317.68 377.412C316.648 373.898 314.818 370.669 312.335 367.977C309.852 365.284 306.781 363.201 303.362 361.888C298.103 359.869 293.351 356.722 289.439 352.669C285.528 348.616 282.552 343.754 280.722 338.427C278.892 333.1 278.251 327.436 278.846 321.835C279.44 316.234 281.255 310.831 284.163 306.006C287.027 301.254 288.646 295.856 288.869 290.312C289.093 284.768 287.915 279.257 285.443 274.289C282.971 269.322 279.286 265.058 274.729 261.893C270.172 258.728 264.89 256.763 259.372 256.182C274.587 256.031 289.26 261.83 300.26 272.342C311.261 282.855 317.72 297.249 318.26 312.455C318.693 312.49 319.124 312.546 319.551 312.622C319.057 297.142 312.559 282.462 301.433 271.687C290.307 260.913 275.425 254.891 259.937 254.894C278.294 250.258 297.715 252.54 314.497 261.304C331.28 270.068 344.251 284.701 350.937 302.414C357.623 320.128 357.557 339.682 350.752 357.35C343.946 375.017 330.877 389.563 314.036 398.214" fill="white"/>
<path d="M314.271 339.077L327.271 316.952L303.749 327.211L328.808 332.737L311.783 313.536" fill="#EE1C25"/>
<path d="M125.456 175.06C125.44 178.722 126.269 182.339 127.879 185.629C129.488 188.92 131.834 191.795 134.735 194.031C137.636 196.267 141.014 197.804 144.605 198.522C148.197 199.241 151.906 199.121 155.444 198.174C160.885 196.716 166.579 196.468 172.126 197.448C177.673 198.429 182.937 200.612 187.549 203.846C192.161 207.08 196.008 211.286 198.82 216.167C201.631 221.048 203.339 226.486 203.823 232.098C204.299 237.626 206.162 242.944 209.24 247.561C212.317 252.178 216.51 255.944 221.429 258.51C226.349 261.076 231.836 262.359 237.384 262.241C242.931 262.123 248.359 260.608 253.165 257.835C240.944 266.9 225.665 270.833 210.586 268.794C195.508 266.756 181.822 258.907 172.447 246.922C172.076 247.149 171.695 247.357 171.304 247.546C180.803 259.779 194.689 267.837 210.023 270.013C225.357 272.19 240.937 268.315 253.465 259.209C241.338 273.749 224.286 283.319 205.557 286.093C186.828 288.867 167.733 284.653 151.912 274.253C136.091 263.852 124.651 247.994 119.772 229.7C114.893 211.407 116.916 191.957 125.456 175.06" fill="white"/>
<path d="M160.026 223.04L162.514 248.581L175.513 226.456L151.992 236.714L177.051 242.241" fill="#EE1C25"/>
</g>
<defs>
<clipPath id="clip0_3274_50681">
<rect width="512" height="512" fill="white"/>
</clipPath>
</defs>
</svg>
