<svg width="40" height="40" viewBox="0 0 40 40" fill="none" xmlns="http://www.w3.org/2000/svg">
<g clip-path="url(#clip0_8424_43365)">
<path fill-rule="evenodd" clip-rule="evenodd" d="M48.293 40.1067H-9V0H48.293V40.1067Z" fill="#BA0000"/>
<path fill-rule="evenodd" clip-rule="evenodd" d="M18.8317 19.411C18.8317 19.411 14.7897 17.672 15.3694 13.16C15.9255 10.9902 16.9204 9.50968 18.7142 8.70285C19.5602 8.44435 20.4219 8.32685 21.2992 8.25635C21.0642 8.47568 20.8762 8.69501 20.7744 8.96135C20.5864 9.46268 20.7274 9.93268 20.9859 10.4105C21.307 10.9588 21.5029 11.5228 21.5655 12.2592C21.6244 12.7609 21.5496 13.2694 21.3488 13.7329C21.148 14.1965 20.8282 14.5988 20.4219 14.899C19.9049 15.2985 19.2939 15.4395 18.7925 15.8938C18.4009 16.2698 18.1659 16.6537 18.0875 17.3117C18.0719 18.5728 18.4087 18.753 18.8317 19.411Z" fill="white"/>
<path fill-rule="evenodd" clip-rule="evenodd" d="M18.1391 12.8623V12.8858H17.9746V12.8623H18.1391Z" fill="black"/>
<path fill-rule="evenodd" clip-rule="evenodd" d="M17.243 15.8303C17.2556 17.0139 17.6112 18.2081 18.3697 18.8794L18.2607 19.0026C17.4525 18.2874 17.0913 17.0376 17.0785 15.832C17.072 15.2272 17.153 14.6283 17.3123 14.1054C17.4712 13.5834 17.7099 13.1316 18.0228 12.8269L18.1375 12.9448C17.8512 13.2236 17.6238 13.6472 17.4696 14.1533C17.3158 14.6585 17.2367 15.2405 17.243 15.8303Z" fill="#BA0000"/>
<path fill-rule="evenodd" clip-rule="evenodd" d="M19.0436 12.1024L19.3021 12.5333L18.8321 12.3374L18.464 12.7291L18.5266 12.2199L18.0566 12.0241L18.5658 11.9066L18.6285 11.4053L18.887 11.8361L19.404 11.7186" fill="#BA0000"/>
<path fill-rule="evenodd" clip-rule="evenodd" d="M19.1758 19.1134C19.1758 19.1134 19.6458 14.7345 24.1343 13.9669C26.3746 13.8729 28.0823 14.382 29.3826 15.8704C29.8761 16.5989 30.2364 17.39 30.5576 18.2047C30.2834 18.048 30.0249 17.9305 29.7273 17.9149C29.2024 17.8757 28.7873 18.1499 28.4113 18.5337C27.9722 19.0198 27.4247 19.3955 26.8133 19.6304C26.3513 19.8346 25.8436 19.9132 25.3416 19.8582C24.8395 19.8032 24.3609 19.6165 23.9541 19.317C23.4214 18.9332 23.1081 18.3927 22.5284 18.048C22.0573 17.768 21.499 17.6731 20.9618 17.7817C19.7476 18.142 19.6849 18.518 19.1758 19.1134Z" fill="white"/>
<path fill-rule="evenodd" clip-rule="evenodd" d="M25.2081 16.5478H25.1846V16.3833H25.2081V16.5478Z" fill="black"/>
<path fill-rule="evenodd" clip-rule="evenodd" d="M22.1341 16.5459C21.0059 16.9048 19.966 17.5952 19.5411 18.5209L19.3916 18.4523C19.844 17.4666 20.9348 16.7548 22.0842 16.3891C22.6607 16.2057 23.2568 16.1077 23.803 16.1065C24.3482 16.1052 24.8495 16.2004 25.2319 16.409L25.1531 16.5534C24.8032 16.3625 24.3321 16.2698 23.8034 16.271C23.2757 16.2722 22.6963 16.367 22.1341 16.5459Z" fill="#BA0000"/>
<path fill-rule="evenodd" clip-rule="evenodd" d="M26.2266 17.1784L25.8898 17.5466L25.9368 17.0374L25.4668 16.8024L25.9603 16.7241L26.0073 16.1992L26.2736 16.6692L26.775 16.5752L26.4381 16.9434L26.6966 17.4134" fill="#BA0000"/>
<path fill-rule="evenodd" clip-rule="evenodd" d="M19.4746 19.4265C19.4746 19.4265 23.7829 18.4865 25.9293 22.505C26.7361 24.5965 26.7909 26.3747 25.7961 28.0745C25.2634 28.7795 24.6211 29.367 23.9553 29.9389C24.0179 29.6255 24.0414 29.3435 23.9631 29.0615C23.8378 28.5445 23.4461 28.239 22.9604 28.004C22.3578 27.7405 21.8263 27.3378 21.4094 26.829C21.0715 26.4557 20.8378 26 20.7319 25.5077C20.626 25.0154 20.6517 24.5039 20.8063 24.0247C20.9943 23.398 21.4094 22.928 21.5504 22.27C21.6677 21.7358 21.5811 21.1771 21.3076 20.7034C20.5791 19.6694 20.2031 19.7242 19.4746 19.4265Z" fill="white"/>
<path fill-rule="evenodd" clip-rule="evenodd" d="M23.8926 24.2913L23.9082 24.3069L23.8926 24.2913Z" fill="#BA0000"/>
<path fill-rule="evenodd" clip-rule="evenodd" d="M23.8497 24.3649L23.834 24.3492L23.9503 24.2329L23.966 24.2486L23.8497 24.3649Z" fill="black"/>
<path fill-rule="evenodd" clip-rule="evenodd" d="M22.8511 21.4199C22.1536 20.4633 21.1712 19.6969 20.1621 19.5869L20.1799 19.4233C21.2545 19.5405 22.2735 20.3485 22.984 21.3229C23.3405 21.8117 23.6224 22.3464 23.7971 22.8651C23.9715 23.3828 24.0407 23.8899 23.965 24.3211L23.803 24.2927C23.8723 23.8976 23.8103 23.4196 23.6412 22.9176C23.4724 22.4164 23.1987 21.8965 22.8511 21.4199Z" fill="#BA0000"/>
<path fill-rule="evenodd" clip-rule="evenodd" d="M23.5481 25.5054L23.0859 25.3018L23.5951 25.1843L23.6578 24.6594L23.9006 25.1059L24.4098 24.9884L24.0573 25.3801L24.2923 25.8266L23.8379 25.6229L23.4854 26.0224" fill="#BA0000"/>
<path fill-rule="evenodd" clip-rule="evenodd" d="M19.3799 19.8731C19.3799 19.8731 21.4871 23.7427 18.2441 26.9231C16.4581 28.2861 14.7661 28.8422 12.8548 28.3644C12.0323 28.0511 11.2881 27.6046 10.5439 27.1189C10.8573 27.0954 11.1471 27.0406 11.3978 26.8839C11.8521 26.6176 12.0323 26.1554 12.1263 25.6306C12.2078 24.9761 12.4441 24.3504 12.8156 23.8054C13.0785 23.3754 13.45 23.0222 13.8928 22.7815C14.3357 22.5409 14.8341 22.4212 15.3379 22.4346C15.9959 22.4424 16.5599 22.7166 17.2336 22.6696C17.7741 22.5991 18.1971 22.4502 18.6749 21.9802C19.4583 21.0011 19.3016 20.6486 19.3799 19.8652V19.8731Z" fill="white"/>
<path fill-rule="evenodd" clip-rule="evenodd" d="M15.9492 25.4819L15.9414 25.4976L15.9492 25.4819Z" fill="#BA0000"/>
<path fill-rule="evenodd" clip-rule="evenodd" d="M15.8672 25.4607L15.875 25.4451L16.0222 25.5186L16.0143 25.5343L15.8672 25.4607Z" fill="black"/>
<path fill-rule="evenodd" clip-rule="evenodd" d="M18.4158 23.6711C19.1375 22.7321 19.5946 21.5709 19.4087 20.5696L19.5705 20.5396C19.7684 21.6062 19.2816 22.8146 18.5463 23.7713C18.1774 24.2512 17.743 24.672 17.2938 24.9843C16.8453 25.296 16.3773 25.5029 15.9417 25.5479L15.9248 25.3842C16.3234 25.3431 16.7651 25.1514 17.1999 24.8492C17.6338 24.5476 18.0562 24.139 18.4158 23.6711Z" fill="#BA0000"/>
<path fill-rule="evenodd" clip-rule="evenodd" d="M14.6879 25.4896L14.7584 24.9883L15.0169 25.4348L15.5339 25.3564L15.1735 25.7168L15.432 26.1633L14.9542 25.9361L14.5939 26.2964L14.6565 25.7951L14.1787 25.5679" fill="#BA0000"/>
<path fill-rule="evenodd" clip-rule="evenodd" d="M18.9021 19.7869C18.9021 19.7869 15.9567 23.0613 11.8677 21.0716C9.98773 19.8418 8.90673 18.4239 8.72656 16.4656C8.75006 15.5804 8.91456 14.7344 9.12606 13.8806C9.25923 14.1626 9.40806 14.4133 9.63523 14.6013C10.0347 14.9381 10.5361 14.9538 11.0687 14.8676C11.7081 14.7276 12.3718 14.7437 13.0036 14.9146C13.4983 15.0188 13.9566 15.2518 14.3322 15.5903C14.7078 15.9287 14.9872 16.3604 15.1421 16.8416C15.3536 17.4604 15.2831 18.0871 15.5572 18.7059C15.7922 19.1916 16.0742 19.5363 16.6774 19.8339C17.8681 20.2491 18.1422 19.9828 18.9021 19.7948V19.7869Z" fill="white"/>
<path fill-rule="evenodd" clip-rule="evenodd" d="M12.4707 18.4241L12.4551 18.4163L12.4707 18.4241Z" fill="#BA0000"/>
<path fill-rule="evenodd" clip-rule="evenodd" d="M12.4925 18.3425L12.5082 18.3504L12.4346 18.4975L12.4189 18.4897L12.4925 18.3425Z" fill="black"/>
<path fill-rule="evenodd" clip-rule="evenodd" d="M14.9991 20.1415C16.1244 20.5102 17.3701 20.5567 18.25 20.0524L18.3318 20.1951C17.3943 20.7325 16.0942 20.6734 14.9479 20.2978C14.3728 20.1095 13.8314 19.84 13.3872 19.5208C12.9438 19.2021 12.5924 18.8305 12.4043 18.4358L12.5528 18.365C12.725 18.7262 13.0532 19.0782 13.4832 19.3872C13.9124 19.6956 14.4383 19.9578 14.9991 20.1415Z" fill="#BA0000"/>
<path fill-rule="evenodd" clip-rule="evenodd" d="M12.048 17.2334L12.5415 17.1316L12.2047 17.5232L12.4475 17.9854L11.9932 17.7661L11.6564 18.1577L11.7112 17.6251L11.249 17.4057L11.7425 17.3039L11.7974 16.7712" fill="#BA0000"/>
</g>
<defs>
<clipPath id="clip0_8424_43365">
<rect width="40" height="40" rx="20" fill="white"/>
</clipPath>
</defs>
</svg>
