<svg width="56" height="56" viewBox="0 0 56 56" fill="none" xmlns="http://www.w3.org/2000/svg">
<g clip-path="url(#clip0_3318_24588)">
<path d="M28 56C43.464 56 56 43.464 56 28C56 12.536 43.464 0 28 0C12.536 0 0 12.536 0 28C0 43.464 12.536 56 28 56Z" fill="#D80027"/>
<path d="M30.8907 21.1825C30.2543 23.8293 29.1237 23.3245 28.5689 25.6328C25.3004 24.8469 23.2875 21.5602 24.0734 18.2915C24.8589 15.0231 28.1459 13.0101 31.4145 13.796C30.3047 18.4124 31.46 18.8153 30.8907 21.1825Z" fill="#F0F0F0"/>
<path d="M22.4096 23.1438C24.7302 24.5668 23.9007 25.4863 25.9243 26.7274C24.1669 29.5931 20.4191 30.4916 17.5533 28.7343C14.6876 26.977 13.7888 23.229 15.5463 20.3633C19.5938 22.8452 20.3337 21.871 22.4096 23.1438Z" fill="#F0F0F0"/>
<path d="M21.6537 31.8165C23.7243 30.0492 24.3421 31.1221 26.1478 29.5811C28.3304 32.1379 28.0268 35.98 25.47 38.1626C22.913 40.3452 19.0709 40.0412 16.8887 37.4846C20.4996 34.4021 19.8017 33.397 21.6537 31.8165Z" fill="#F0F0F0"/>
<path d="M29.6682 35.2151C28.6269 32.6998 29.8384 32.4434 28.9307 30.2501C32.0368 28.9646 35.5972 30.4405 36.8828 33.5467C38.1683 36.6528 36.6921 40.2131 33.586 41.4987C31.7707 37.1117 30.5994 37.4649 29.6682 35.2151Z" fill="#F0F0F0"/>
<path d="M35.3771 28.6428C32.6632 28.8558 32.7935 27.6242 30.4271 27.8099C30.1643 24.4588 32.6683 21.5285 36.0197 21.2655C39.371 21.0031 42.3011 23.5069 42.5638 26.8584C37.8304 27.2295 37.8043 28.4526 35.3771 28.6428Z" fill="#F0F0F0"/>
</g>
<defs>
<clipPath id="clip0_3318_24588">
<rect width="56" height="56" fill="white"/>
</clipPath>
</defs>
</svg>
