<svg width="40" height="40" viewBox="0 0 40 40" fill="none" xmlns="http://www.w3.org/2000/svg">
<g clip-path="url(#clip0_8424_43374)">
<path d="M-7 0H46.3333V13.3333H-7V0Z" fill="#FF9933"/>
<path d="M-7 13.3333H46.3333V26.6666H-7V13.3333Z" fill="white"/>
<path d="M-7 26.6667H46.3333V40.0001H-7V26.6667Z" fill="#128807"/>
<path d="M19.6673 25.3334C22.6128 25.3334 25.0007 22.9456 25.0007 20.0001C25.0007 17.0546 22.6128 14.6667 19.6673 14.6667C16.7218 14.6667 14.334 17.0546 14.334 20.0001C14.334 22.9456 16.7218 25.3334 19.6673 25.3334Z" fill="#000088"/>
<path d="M19.6676 24.6667C22.245 24.6667 24.3343 22.5774 24.3343 20C24.3343 17.4227 22.245 15.3334 19.6676 15.3334C17.0903 15.3334 15.001 17.4227 15.001 20C15.001 22.5774 17.0903 24.6667 19.6676 24.6667Z" fill="white"/>
<path d="M19.6677 20.9334C20.1832 20.9334 20.601 20.5156 20.601 20.0001C20.601 19.4846 20.1832 19.0668 19.6677 19.0668C19.1522 19.0668 18.7344 19.4846 18.7344 20.0001C18.7344 20.5156 19.1522 20.9334 19.6677 20.9334Z" fill="#000088"/>
<path d="M24.2622 20.8489C24.3936 20.8662 24.5142 20.7737 24.5315 20.6423C24.5488 20.5109 24.4563 20.3903 24.3249 20.373C24.1934 20.3557 24.0729 20.4482 24.0556 20.5796C24.0383 20.711 24.1308 20.8316 24.2622 20.8489Z" fill="#000088"/>
<path d="M19.6668 24.6668L19.8268 21.8668L19.6668 20.5334L19.5068 21.8668L19.6668 24.6668Z" fill="#000088"/>
</g>
<defs>
<clipPath id="clip0_8424_43374">
<rect width="40" height="40" rx="20" fill="white"/>
</clipPath>
</defs>
</svg>
