<svg width="40" height="40" viewBox="0 0 40 40" fill="none" xmlns="http://www.w3.org/2000/svg">
<g clip-path="url(#clip0_8424_43272)">
<path fill-rule="evenodd" clip-rule="evenodd" d="M-15 0H55V40H-15V0Z" fill="white"/>
<path fill-rule="evenodd" clip-rule="evenodd" d="M-15 26.8594H55V40H-15V26.8594Z" fill="#DA0000"/>
<path fill-rule="evenodd" clip-rule="evenodd" d="M-1.6875 27.4219H2.14062V27.6797H-1.6875V27.4219ZM-1.11719 28.7344H-0.851562V28.9922H-1.11719V28.7344ZM2.15625 28.7344V28.9922H1.39062V28.7266L2.15625 28.7344ZM2.5625 27.4219H2.82813V28.9844H2.5625V27.4219Z" fill="white"/>
<path fill-rule="evenodd" clip-rule="evenodd" d="M4.09375 28.7266V28.9922H2.64062V28.7266H4.09375ZM1.39062 28.1094H1.64062V28.9922H1.38281L1.39062 28.1094Z" fill="white"/>
<path fill-rule="evenodd" clip-rule="evenodd" d="M3.875 27.4219H4.14062V28.9844H3.875V27.4219ZM3.21875 27.4219H3.47656V28.9844H3.21875V27.4219ZM-0.28125 28.0469V28.3125H-1.6875V28.0469H-0.28125ZM2.78906 28.0469V28.3125H1.38281V28.0469H2.78906Z" fill="white"/>
<path fill-rule="evenodd" clip-rule="evenodd" d="M1.39062 28.1172H1.64062V28.9844H1.38281L1.39062 28.1172Z" fill="white"/>
<path fill-rule="evenodd" clip-rule="evenodd" d="M1.39062 28.1172H1.64062V28.9844H1.38281L1.39062 28.1172Z" fill="white"/>
<path fill-rule="evenodd" clip-rule="evenodd" d="M1.39062 28.1172H1.64062V28.9844H1.38281L1.39062 28.1172ZM-1.67969 28.1172H-1.42188V28.9844H-1.67969V28.1172ZM0.570312 28.1172H0.835938V28.9844H0.570312V28.1172ZM-0.546875 28.1172H-0.28125V28.9844H-0.546875V28.1172Z" fill="white"/>
<path fill-rule="evenodd" clip-rule="evenodd" d="M0.75 28.7266V28.9922H-0.429688V28.7266H0.75ZM0.828125 28.0469V28.3125H0.078125V28.0469H0.828125Z" fill="white"/>
<path fill-rule="evenodd" clip-rule="evenodd" d="M4.55469 27.4219H8.38281V27.6797H4.55469V27.4219ZM5.125 28.7344H5.39062V28.9922H5.125V28.7344ZM8.39844 28.7344V28.9922H7.63281V28.7266L8.39844 28.7344ZM8.8125 27.4219H9.07812V28.9844H8.8125V27.4219Z" fill="white"/>
<path fill-rule="evenodd" clip-rule="evenodd" d="M10.3359 28.7266V28.9922H8.88281V28.7266H10.3359ZM7.63281 28.1094H7.89844V28.9922H7.63281V28.1094Z" fill="white"/>
<path fill-rule="evenodd" clip-rule="evenodd" d="M10.1172 27.4219H10.3828V28.9844H10.1172V27.4219ZM9.46094 27.4219H9.72656V28.9844H9.45312L9.46094 27.4219ZM5.96094 28.0469V28.3125H4.55469V28.0469H5.96094ZM9.03125 28.0469V28.3125H7.625V28.0469H9.03125Z" fill="white"/>
<path fill-rule="evenodd" clip-rule="evenodd" d="M7.63281 28.1172H7.89844V28.9844H7.63281V28.1172Z" fill="white"/>
<path fill-rule="evenodd" clip-rule="evenodd" d="M7.63281 28.1172H7.89844V28.9844H7.63281V28.1172Z" fill="white"/>
<path fill-rule="evenodd" clip-rule="evenodd" d="M7.63281 28.1172H7.89844V28.9844H7.63281V28.1172ZM4.5625 28.1172H4.82812V28.9844H4.5625V28.1172ZM6.8125 28.1172H7.07812V28.9844H6.8125V28.1172ZM5.69531 28.1172H5.96094V28.9844H5.69531V28.1172Z" fill="white"/>
<path fill-rule="evenodd" clip-rule="evenodd" d="M7 28.7266V28.9922H5.8125V28.7266H7ZM7.07812 28.0469V28.3125H6.32812V28.0469H7.07812Z" fill="white"/>
<path fill-rule="evenodd" clip-rule="evenodd" d="M10.8359 27.4219H14.6719V27.6797H10.8438L10.8359 27.4219ZM11.4141 28.7344H11.6719V28.9922H11.4141V28.7344ZM14.6797 28.7344V28.9922H13.9141V28.7266L14.6797 28.7344ZM15.0938 27.4219H15.3594V28.9844H15.0938V27.4219Z" fill="white"/>
<path fill-rule="evenodd" clip-rule="evenodd" d="M16.625 28.7266V28.9922H15.1719V28.7266H16.625ZM13.9141 28.1094H14.1797V28.9922H13.9141V28.1094Z" fill="white"/>
<path fill-rule="evenodd" clip-rule="evenodd" d="M16.4062 27.4219H16.6719V28.9844H16.4062V27.4219ZM15.7422 27.4219H16.0078V28.9844H15.7422V27.4219ZM12.2422 28.0469V28.3125H10.8438V28.0469H12.2422ZM15.3125 28.0469V28.3125H13.9141V28.0469H15.3125Z" fill="white"/>
<path fill-rule="evenodd" clip-rule="evenodd" d="M13.9141 28.1172H14.1797V28.9844H13.9141V28.1172Z" fill="white"/>
<path fill-rule="evenodd" clip-rule="evenodd" d="M13.9141 28.1172H14.1797V28.9844H13.9141V28.1172Z" fill="white"/>
<path fill-rule="evenodd" clip-rule="evenodd" d="M13.9141 28.1172H14.1797V28.9844H13.9141V28.1172ZM10.8438 28.1172H11.1094V28.9844H10.8438V28.1172ZM13.0938 28.1172H13.3594V28.9844H13.0938V28.1172ZM11.9844 28.1172H12.2422V28.9844H11.9844V28.1172Z" fill="white"/>
<path fill-rule="evenodd" clip-rule="evenodd" d="M13.2813 28.7266V28.9922H12.1016V28.7266H13.2813ZM13.3594 28.0469V28.3125H12.6094V28.0469H13.3594Z" fill="white"/>
<path fill-rule="evenodd" clip-rule="evenodd" d="M17.1484 27.4219H20.9766V27.6797H17.1484V27.4219ZM17.7188 28.7344H17.9844V28.9922H17.7188V28.7344ZM20.9922 28.7344V28.9922H20.2266V28.7266L20.9922 28.7344ZM21.4062 27.4219H21.6641V28.9844H21.4062V27.4219Z" fill="white"/>
<path fill-rule="evenodd" clip-rule="evenodd" d="M22.9297 28.7266V28.9922H21.4766V28.7266H22.9297ZM20.2266 28.1094H20.4922V28.9922H20.2266V28.1094Z" fill="white"/>
<path fill-rule="evenodd" clip-rule="evenodd" d="M22.7109 27.4219H22.9766V28.9844H22.7109V27.4219ZM22.0547 27.4219H22.3203V28.9844H22.0547V27.4219ZM18.5547 28.0469V28.3125H17.1484V28.0469H18.5547ZM21.625 28.0469V28.3125H20.2187V28.0469H21.625Z" fill="white"/>
<path fill-rule="evenodd" clip-rule="evenodd" d="M20.2266 28.1172H20.4922V28.9844H20.2266V28.1172Z" fill="white"/>
<path fill-rule="evenodd" clip-rule="evenodd" d="M20.2266 28.1172H20.4922V28.9844H20.2266V28.1172Z" fill="white"/>
<path fill-rule="evenodd" clip-rule="evenodd" d="M20.2266 28.1172H20.4922V28.9844H20.2266V28.1172ZM17.1562 28.1172H17.4141V28.9844H17.1562V28.1172ZM19.4062 28.1172H19.6719V28.9844H19.4062V28.1172ZM18.2891 28.1172H18.5547V28.9844H18.2812L18.2891 28.1172Z" fill="white"/>
<path fill-rule="evenodd" clip-rule="evenodd" d="M19.5937 28.7266V28.9922H18.4062V28.7266H19.5937ZM19.6719 28.0469V28.3125H18.9062V28.0469H19.6719Z" fill="white"/>
<path fill-rule="evenodd" clip-rule="evenodd" d="M-15 0H55V13.1406H-15V0Z" fill="#239F40"/>
<path fill-rule="evenodd" clip-rule="evenodd" d="M23.4922 27.4219H27.3203V27.6797H23.4922V27.4219ZM24.0625 28.7344H24.3281V28.9922H24.0625V28.7344ZM27.3359 28.7344V28.9922H26.5625V28.7266L27.3359 28.7344ZM27.75 27.4219H28.0078V28.9844H27.75V27.4219Z" fill="white"/>
<path fill-rule="evenodd" clip-rule="evenodd" d="M29.2734 28.7266V28.9922H27.8203V28.7266H29.2734ZM26.5703 28.1094H26.8359V28.9922H26.5625L26.5703 28.1094Z" fill="white"/>
<path fill-rule="evenodd" clip-rule="evenodd" d="M29.0625 27.4219H29.3203V28.9844H29.0625V27.4219ZM28.3984 27.4219H28.6641V28.9844H28.3984V27.4219ZM24.8984 28.0469V28.3125H23.4922V28.0469H24.8984ZM27.9687 28.0469V28.3125H26.5625V28.0469H27.9687Z" fill="white"/>
<path fill-rule="evenodd" clip-rule="evenodd" d="M26.5625 28.1172H26.8359V28.9844H26.5625V28.1172Z" fill="white"/>
<path fill-rule="evenodd" clip-rule="evenodd" d="M26.5625 28.1172H26.8359V28.9844H26.5625V28.1172Z" fill="white"/>
<path fill-rule="evenodd" clip-rule="evenodd" d="M26.5625 28.1172H26.8359V28.9844H26.5625V28.1172ZM23.5 28.1172H23.7656V28.9844H23.5V28.1172ZM25.75 28.1172H26.0156V28.9844H25.75V28.1172ZM24.6328 28.1172H24.8984V28.9844H24.6328V28.1172Z" fill="white"/>
<path fill-rule="evenodd" clip-rule="evenodd" d="M25.9375 28.7266V28.9922H24.75V28.7266H25.9375ZM26.0156 28.0469V28.3125H25.2656V28.0469H26.0156Z" fill="white"/>
<path fill-rule="evenodd" clip-rule="evenodd" d="M29.7969 27.4219H33.625V27.6797H29.7969V27.4219ZM30.3672 28.7344H30.6328V28.9922H30.3672V28.7344ZM33.6484 28.7344V28.9922H32.875V28.7266L33.6484 28.7344ZM34.0547 27.4219H34.3203V28.9844H34.0547V27.4219Z" fill="white"/>
<path fill-rule="evenodd" clip-rule="evenodd" d="M35.5781 28.7266V28.9922H34.125V28.7266H35.5781ZM32.875 28.1094H33.1406V28.9922H32.875V28.1094Z" fill="white"/>
<path fill-rule="evenodd" clip-rule="evenodd" d="M35.3672 27.4219H35.625V28.9844H35.3672V27.4219ZM34.7031 27.4219H34.9688V28.9844H34.7031V27.4219ZM31.2031 28.0469V28.3125H29.8047V28.0469H31.2031ZM34.2734 28.0469V28.3125H32.875V28.0469H34.2734Z" fill="white"/>
<path fill-rule="evenodd" clip-rule="evenodd" d="M32.875 28.1172H33.1406V28.9844H32.875V28.1172Z" fill="white"/>
<path fill-rule="evenodd" clip-rule="evenodd" d="M32.875 28.1172H33.1406V28.9844H32.875V28.1172Z" fill="white"/>
<path fill-rule="evenodd" clip-rule="evenodd" d="M32.875 28.1172H33.1406V28.9844H32.875V28.1172ZM29.8047 28.1172H30.0703V28.9844H29.8047V28.1172ZM32.0547 28.1172H32.3203V28.9844H32.0547V28.1172ZM30.9375 28.1172H31.2031V28.9844H30.9453L30.9375 28.1172Z" fill="white"/>
<path fill-rule="evenodd" clip-rule="evenodd" d="M32.2422 28.7266V28.9922H31.0625V28.7266H32.2422ZM32.3203 28.0469V28.3125H31.5625V28.0469H32.3203Z" fill="white"/>
<path fill-rule="evenodd" clip-rule="evenodd" d="M36.1094 27.4219H39.9375V27.6797H36.1094V27.4219ZM36.6797 28.7344H36.9453V28.9922H36.6797V28.7344ZM39.9531 28.7344V28.9922H39.1875V28.7266L39.9531 28.7344ZM40.3594 27.4219H40.625V28.9844H40.3594V27.4219Z" fill="white"/>
<path fill-rule="evenodd" clip-rule="evenodd" d="M41.8906 28.7266V28.9922H40.4375V28.7266H41.8906ZM39.1797 28.1094H39.4453V28.9922H39.1797V28.1094Z" fill="white"/>
<path fill-rule="evenodd" clip-rule="evenodd" d="M41.6719 27.4219H41.9375V28.9844H41.6719V27.4219ZM41.0156 27.4219H41.2734V28.9844H41.0156V27.4219ZM37.5156 28.0469V28.3125H36.1094V28.0469H37.5156ZM40.5859 28.0469V28.3125H39.1797V28.0469H40.5859Z" fill="white"/>
<path fill-rule="evenodd" clip-rule="evenodd" d="M39.1875 28.1172H39.4453V28.9844H39.1875V28.1172Z" fill="white"/>
<path fill-rule="evenodd" clip-rule="evenodd" d="M39.1875 28.1172H39.4453V28.9844H39.1875V28.1172Z" fill="white"/>
<path fill-rule="evenodd" clip-rule="evenodd" d="M39.1875 28.1172H39.4453V28.9844H39.1875V28.1172ZM36.1094 28.1172H36.375V28.9844H36.1094V28.1172ZM38.3672 28.1172H38.625V28.9844H38.3672V28.1172ZM37.25 28.1172H37.5156V28.9844H37.25V28.1172Z" fill="white"/>
<path fill-rule="evenodd" clip-rule="evenodd" d="M38.5469 28.7266V28.9922H37.3672V28.7266H38.5469ZM38.625 28.0469V28.3125H37.875V28.0469H38.625Z" fill="white"/>
<path fill-rule="evenodd" clip-rule="evenodd" d="M-1.6875 11.2031H2.14062V11.4688H-1.6875V11.2031ZM-1.11719 12.5312H-0.851562V12.7813H-1.11719V12.5312ZM2.15625 12.5156V12.7813H1.39062V12.5156H2.15625ZM2.5625 11.2031H2.82813V12.7813H2.5625V11.2031Z" fill="white"/>
<path fill-rule="evenodd" clip-rule="evenodd" d="M4.09375 12.5156V12.7813H2.64062V12.5156H4.09375ZM1.39062 11.8984H1.64062V12.7813H1.38281L1.39062 11.8984Z" fill="white"/>
<path fill-rule="evenodd" clip-rule="evenodd" d="M3.875 11.2031H4.14062V12.7813H3.875V11.2031ZM3.21875 11.2031H3.47656V12.7813H3.21875V11.2031ZM-0.28125 11.8281V12.0938H-1.6875V11.8359L-0.28125 11.8281ZM2.78906 11.8281V12.0938H1.38281V11.8359L2.78906 11.8281Z" fill="white"/>
<path fill-rule="evenodd" clip-rule="evenodd" d="M1.39062 11.8984H1.64062V12.7813H1.38281L1.39062 11.8984Z" fill="white"/>
<path fill-rule="evenodd" clip-rule="evenodd" d="M1.39062 11.8984H1.64062V12.7813H1.38281L1.39062 11.8984Z" fill="white"/>
<path fill-rule="evenodd" clip-rule="evenodd" d="M1.39062 11.8984H1.64062V12.7813H1.38281L1.39062 11.8984ZM-1.67969 11.8984H-1.42188V12.7813H-1.67969V11.8984ZM0.570312 11.8984H0.835938V12.7813H0.570312V11.8984ZM-0.546875 11.8984H-0.28125V12.7813H-0.546875V11.8984Z" fill="white"/>
<path fill-rule="evenodd" clip-rule="evenodd" d="M0.75 12.5156V12.7813H-0.429688V12.5156H0.75ZM0.828125 11.8359V12.0938H0.078125V11.8359H0.828125Z" fill="white"/>
<path fill-rule="evenodd" clip-rule="evenodd" d="M4.55469 11.2031H8.38281V11.4688H4.55469V11.2031ZM5.125 12.5312H5.39062V12.7813H5.125V12.5312ZM8.39844 12.5156V12.7813H7.63281V12.5156H8.39844ZM8.8125 11.2031H9.07812V12.7813H8.8125V11.2031Z" fill="white"/>
<path fill-rule="evenodd" clip-rule="evenodd" d="M10.3359 12.5156V12.7813H8.88281V12.5156H10.3359ZM7.63281 11.8984H7.89844V12.7813H7.63281V11.8984Z" fill="white"/>
<path fill-rule="evenodd" clip-rule="evenodd" d="M10.1172 11.2031H10.3828V12.7813H10.1172V11.2031ZM9.46094 11.2031H9.72656V12.7813H9.45312L9.46094 11.2031ZM5.96094 11.8281V12.0938H4.55469V11.8359L5.96094 11.8281ZM9.03125 11.8281V12.0938H7.625V11.8359L9.03125 11.8281Z" fill="white"/>
<path fill-rule="evenodd" clip-rule="evenodd" d="M7.63281 11.8984H7.89844V12.7813H7.63281V11.8984Z" fill="white"/>
<path fill-rule="evenodd" clip-rule="evenodd" d="M7.63281 11.8984H7.89844V12.7813H7.63281V11.8984Z" fill="white"/>
<path fill-rule="evenodd" clip-rule="evenodd" d="M7.63281 11.8984H7.89844V12.7813H7.63281V11.8984ZM4.5625 11.8984H4.82812V12.7813H4.5625V11.8984ZM6.8125 11.8984H7.07812V12.7813H6.8125V11.8984ZM5.69531 11.8984H5.96094V12.7813H5.69531V11.8984Z" fill="white"/>
<path fill-rule="evenodd" clip-rule="evenodd" d="M7 12.5156V12.7813H5.8125V12.5156H7ZM7.07812 11.8359V12.0938H6.32812V11.8359H7.07812Z" fill="white"/>
<path fill-rule="evenodd" clip-rule="evenodd" d="M10.8359 11.2031H14.6719V11.4688H10.8438L10.8359 11.2031ZM11.4141 12.5312H11.6719V12.7813H11.4141V12.5312ZM14.6797 12.5156V12.7813H13.9141V12.5156H14.6797ZM15.0938 11.2031H15.3594V12.7813H15.0938V11.2031Z" fill="white"/>
<path fill-rule="evenodd" clip-rule="evenodd" d="M16.625 12.5156V12.7813H15.1719V12.5156H16.625ZM13.9141 11.8984H14.1797V12.7813H13.9141V11.8984Z" fill="white"/>
<path fill-rule="evenodd" clip-rule="evenodd" d="M16.4062 11.2031H16.6719V12.7813H16.4062V11.2031ZM15.7422 11.2031H16.0078V12.7813H15.7422V11.2031ZM12.2422 11.8281V12.0938H10.8438V11.8359L12.2422 11.8281ZM15.3125 11.8281V12.0938H13.9141V11.8359L15.3125 11.8281Z" fill="white"/>
<path fill-rule="evenodd" clip-rule="evenodd" d="M13.9141 11.8984H14.1797V12.7813H13.9141V11.8984Z" fill="white"/>
<path fill-rule="evenodd" clip-rule="evenodd" d="M13.9141 11.8984H14.1797V12.7813H13.9141V11.8984Z" fill="white"/>
<path fill-rule="evenodd" clip-rule="evenodd" d="M13.9141 11.8984H14.1797V12.7813H13.9141V11.8984ZM10.8438 11.8984H11.1094V12.7813H10.8438V11.8984ZM13.0938 11.8984H13.3594V12.7813H13.0938V11.8984ZM11.9844 11.8984H12.2422V12.7813H11.9844V11.8984Z" fill="white"/>
<path fill-rule="evenodd" clip-rule="evenodd" d="M13.2813 12.5156V12.7813H12.1016V12.5156H13.2813ZM13.3594 11.8359V12.0938H12.6094V11.8359H13.3594Z" fill="white"/>
<path fill-rule="evenodd" clip-rule="evenodd" d="M17.1484 11.2031H20.9766V11.4688H17.1484V11.2031ZM17.7188 12.5312H17.9844V12.7813H17.7188V12.5312ZM20.9922 12.5156V12.7813H20.2266V12.5156H20.9922ZM21.4062 11.2031H21.6641V12.7813H21.4062V11.2031Z" fill="white"/>
<path fill-rule="evenodd" clip-rule="evenodd" d="M22.9297 12.5156V12.7813H21.4766V12.5156H22.9297ZM20.2266 11.8984H20.4922V12.7813H20.2266V11.8984Z" fill="white"/>
<path fill-rule="evenodd" clip-rule="evenodd" d="M22.7109 11.2031H22.9766V12.7813H22.7109V11.2031ZM22.0547 11.2031H22.3203V12.7813H22.0547V11.2031ZM18.5547 11.8281V12.0938H17.1484V11.8359L18.5547 11.8281ZM21.625 11.8281V12.0938H20.2187V11.8359L21.625 11.8281Z" fill="white"/>
<path fill-rule="evenodd" clip-rule="evenodd" d="M20.2266 11.8984H20.4922V12.7813H20.2266V11.8984Z" fill="white"/>
<path fill-rule="evenodd" clip-rule="evenodd" d="M20.2266 11.8984H20.4922V12.7813H20.2266V11.8984Z" fill="white"/>
<path fill-rule="evenodd" clip-rule="evenodd" d="M20.2266 11.8984H20.4922V12.7813H20.2266V11.8984ZM17.1562 11.8984H17.4141V12.7813H17.1562V11.8984ZM19.4062 11.8984H19.6719V12.7813H19.4062V11.8984ZM18.2891 11.8984H18.5547V12.7813H18.2812L18.2891 11.8984Z" fill="white"/>
<path fill-rule="evenodd" clip-rule="evenodd" d="M19.5937 12.5156V12.7813H18.4062V12.5156H19.5937ZM19.6719 11.8359V12.0938H18.9062V11.8359H19.6719Z" fill="white"/>
<path fill-rule="evenodd" clip-rule="evenodd" d="M23.4922 11.2031H27.3203V11.4688H23.4922V11.2031ZM24.0625 12.5312H24.3281V12.7813H24.0625V12.5312ZM27.3359 12.5156V12.7813H26.5625V12.5156H27.3359ZM27.75 11.2031H28.0078V12.7813H27.75V11.2031Z" fill="white"/>
<path fill-rule="evenodd" clip-rule="evenodd" d="M29.2734 12.5156V12.7813H27.8203V12.5156H29.2734ZM26.5703 11.8984H26.8359V12.7813H26.5625L26.5703 11.8984Z" fill="white"/>
<path fill-rule="evenodd" clip-rule="evenodd" d="M29.0625 11.2031H29.3203V12.7813H29.0625V11.2031ZM28.3984 11.2031H28.6641V12.7813H28.3984V11.2031ZM24.8984 11.8281V12.0938H23.4922V11.8359L24.8984 11.8281ZM27.9687 11.8281V12.0938H26.5625V11.8359L27.9687 11.8281Z" fill="white"/>
<path fill-rule="evenodd" clip-rule="evenodd" d="M26.5625 11.8984H26.8359V12.7813H26.5625V11.8984Z" fill="white"/>
<path fill-rule="evenodd" clip-rule="evenodd" d="M26.5625 11.8984H26.8359V12.7813H26.5625V11.8984Z" fill="white"/>
<path fill-rule="evenodd" clip-rule="evenodd" d="M26.5625 11.8984H26.8359V12.7813H26.5625V11.8984ZM23.5 11.8984H23.7656V12.7813H23.5V11.8984ZM25.75 11.8984H26.0156V12.7813H25.75V11.8984ZM24.6328 11.8984H24.8984V12.7813H24.6328V11.8984Z" fill="white"/>
<path fill-rule="evenodd" clip-rule="evenodd" d="M25.9375 12.5156V12.7813H24.75V12.5156H25.9375ZM26.0156 11.8359V12.0938H25.2656V11.8359H26.0156Z" fill="white"/>
<path fill-rule="evenodd" clip-rule="evenodd" d="M29.7969 11.2031H33.625V11.4688H29.7969V11.2031ZM30.3672 12.5312H30.6328V12.7813H30.3672V12.5312ZM33.6484 12.5156V12.7813H32.875V12.5156H33.6484ZM34.0547 11.2031H34.3203V12.7813H34.0547V11.2031Z" fill="white"/>
<path fill-rule="evenodd" clip-rule="evenodd" d="M35.5781 12.5156V12.7813H34.125V12.5156H35.5781ZM32.875 11.8984H33.1406V12.7813H32.875V11.8984Z" fill="white"/>
<path fill-rule="evenodd" clip-rule="evenodd" d="M35.3672 11.2031H35.625V12.7813H35.3672V11.2031ZM34.7031 11.2031H34.9688V12.7813H34.7031V11.2031ZM31.2031 11.8281V12.0938H29.8047V11.8359L31.2031 11.8281ZM34.2734 11.8281V12.0938H32.875V11.8359L34.2734 11.8281Z" fill="white"/>
<path fill-rule="evenodd" clip-rule="evenodd" d="M32.875 11.8984H33.1406V12.7813H32.875V11.8984Z" fill="white"/>
<path fill-rule="evenodd" clip-rule="evenodd" d="M32.875 11.8984H33.1406V12.7813H32.875V11.8984Z" fill="white"/>
<path fill-rule="evenodd" clip-rule="evenodd" d="M32.875 11.8984H33.1406V12.7813H32.875V11.8984ZM29.8047 11.8984H30.0703V12.7813H29.8047V11.8984ZM32.0547 11.8984H32.3203V12.7813H32.0547V11.8984ZM30.9375 11.8984H31.2031V12.7813H30.9453L30.9375 11.8984Z" fill="white"/>
<path fill-rule="evenodd" clip-rule="evenodd" d="M32.2422 12.5156V12.7813H31.0625V12.5156H32.2422ZM32.3203 11.8359V12.0938H31.5625V11.8359H32.3203Z" fill="white"/>
<path fill-rule="evenodd" clip-rule="evenodd" d="M36.1094 11.2031H39.9375V11.4688H36.1094V11.2031ZM36.6797 12.5312H36.9453V12.7813H36.6797V12.5312ZM39.9531 12.5156V12.7813H39.1875V12.5156H39.9531ZM40.3594 11.2031H40.625V12.7813H40.3594V11.2031Z" fill="white"/>
<path fill-rule="evenodd" clip-rule="evenodd" d="M41.8906 12.5156V12.7813H40.4375V12.5156H41.8906ZM39.1797 11.8984H39.4453V12.7813H39.1797V11.8984Z" fill="white"/>
<path fill-rule="evenodd" clip-rule="evenodd" d="M41.6719 11.2031H41.9375V12.7813H41.6719V11.2031ZM41.0156 11.2031H41.2734V12.7813H41.0156V11.2031ZM37.5156 11.8281V12.0938H36.1094V11.8359L37.5156 11.8281ZM40.5859 11.8281V12.0938H39.1797V11.8359L40.5859 11.8281Z" fill="white"/>
<path fill-rule="evenodd" clip-rule="evenodd" d="M39.1875 11.8984H39.4453V12.7813H39.1875V11.8984Z" fill="white"/>
<path fill-rule="evenodd" clip-rule="evenodd" d="M39.1875 11.8984H39.4453V12.7813H39.1875V11.8984Z" fill="white"/>
<path fill-rule="evenodd" clip-rule="evenodd" d="M39.1875 11.8984H39.4453V12.7813H39.1875V11.8984ZM36.1094 11.8984H36.375V12.7813H36.1094V11.8984ZM38.3672 11.8984H38.625V12.7813H38.3672V11.8984ZM37.25 11.8984H37.5156V12.7813H37.25V11.8984Z" fill="white"/>
<path fill-rule="evenodd" clip-rule="evenodd" d="M38.5469 12.5156V12.7813H37.3672V12.5156H38.5469ZM38.625 11.8359V12.0938H37.875V11.8359H38.625Z" fill="white"/>
<path fill-rule="evenodd" clip-rule="evenodd" d="M-5.375 26.5234H-4.90625V27.3438H-5.375V26.5234ZM7.16406 26.5234H7.63281V27.3438H7.16406V26.5234ZM-15 26.5234H-14.5312V27.3438H-15V26.5234ZM-8.63281 26.5234H-8.16406V27.3438H-8.63281V26.5234ZM-2.3125 26.5234H-1.84375V27.3438H-2.3125V26.5234ZM0.8125 26.5234H1.28125V27.3438H0.8125V26.5234ZM4.00781 26.5234H4.47656V27.3438H4.00781V26.5234ZM10.2891 26.5234H10.7578V27.3438H10.2891V26.5234ZM26.1484 26.5234H26.625V27.3438H26.1562L26.1484 26.5234ZM13.4844 26.5234H13.9531V27.3438H13.4844V26.5234ZM16.6094 26.5234H17.0781V27.3438H16.6094V26.5234ZM19.7734 26.5234H20.2422V27.3438H19.7734V26.5234ZM22.9297 26.5234H23.3984V27.3438H22.9297V26.5234ZM48.1797 26.5234H48.6484V27.3438H48.1797V26.5234ZM29.2188 26.5234H29.6875V27.3438H29.2188V26.5234ZM32.4062 26.5234H32.875V27.3438H32.4062V26.5234ZM35.6328 26.5234H36.1016V27.3438H35.6328V26.5234ZM38.6641 26.5234H39.1328V27.3438H38.6641V26.5234ZM41.8906 26.5234H42.3594V27.3438H41.8906V26.5234ZM45.0469 26.5234H45.5156V27.3438H45.0469V26.5234ZM54.3984 26.5234H54.8672V27.3438H54.3984V26.5234ZM51.3672 26.5234H51.8359V27.3438H51.3672V26.5234ZM-11.8281 26.5234H-11.3594V27.3438H-11.8281V26.5234Z" fill="#D90000"/>
<path fill-rule="evenodd" clip-rule="evenodd" d="M-5.375 12.7031H-4.90625V13.5234H-5.375V12.7031ZM7.16406 12.7031H7.63281V13.5234H7.16406V12.7031ZM-15 12.7031H-14.5312V13.5234H-15V12.7031ZM-8.63281 12.7031H-8.16406V13.5234H-8.63281V12.7031ZM-2.3125 12.7031H-1.84375V13.5234H-2.3125V12.7031ZM0.8125 12.7031H1.28125V13.5234H0.8125V12.7031ZM4.00781 12.7031H4.47656V13.5234H4.00781V12.7031ZM10.2891 12.7031H10.7578V13.5234H10.2891V12.7031ZM26.1484 12.7031H26.625V13.5234H26.1562L26.1484 12.7031ZM13.4844 12.7031H13.9531V13.5234H13.4844V12.7031ZM16.6094 12.7031H17.0781V13.5234H16.6094V12.7031ZM19.7734 12.7031H20.2422V13.5234H19.7734V12.7031ZM22.9297 12.7031H23.3984V13.5234H22.9297V12.7031ZM48.1797 12.7031H48.6484V13.5234H48.1797V12.7031ZM29.2188 12.7031H29.6875V13.5234H29.2188V12.7031ZM32.4062 12.7031H32.875V13.5234H32.4062V12.7031ZM35.6328 12.7031H36.1016V13.5234H35.6328V12.7031ZM38.6641 12.7031H39.1328V13.5234H38.6641V12.7031ZM41.8906 12.7031H42.3594V13.5234H41.8906V12.7031ZM45.0469 12.7031H45.5156V13.5234H45.0469V12.7031ZM54.3984 12.7031H54.8672V13.5234H54.3984V12.7031ZM51.3672 12.7031H51.8359V13.5234H51.3672V12.7031ZM-11.8281 12.7031H-11.3594V13.5234H-11.8281V12.7031Z" fill="#239E3F"/>
<path fill-rule="evenodd" clip-rule="evenodd" d="M21.86 15.4297C22.5162 16.2422 24.5553 20.7109 20.6334 23.6484C18.7818 25.0391 19.9303 25.1016 19.985 25.3359C22.9537 23.7656 23.9147 21.625 23.8912 19.7109C23.8756 17.8047 22.86 16.1172 21.86 15.4297Z" fill="#DA0000"/>
<path fill-rule="evenodd" clip-rule="evenodd" d="M22.2502 15.2188C22.9751 15.6598 23.5929 16.2564 24.0589 16.9655C24.525 17.6745 24.8276 18.4783 24.945 19.3186C25.0624 20.159 24.9915 21.0149 24.7376 21.8245C24.4837 22.6341 24.0531 23.3772 23.4768 24C25.6018 23.5313 28.3205 17.25 22.2502 15.2188ZM17.7502 15.2188C17.026 15.6605 16.4089 16.2576 15.9436 16.967C15.4783 17.6764 15.1764 18.4802 15.0598 19.3205C14.9432 20.1608 15.0147 21.0166 15.2692 21.8258C15.5237 22.6351 15.9549 23.3777 16.5315 24C14.3987 23.5313 11.6877 17.25 17.7502 15.2188Z" fill="#DA0000"/>
<path fill-rule="evenodd" clip-rule="evenodd" d="M18.141 15.4297C17.4848 16.2422 15.4457 20.7109 19.3676 23.6484C21.2114 25.0391 20.0707 25.1016 20.016 25.3359C17.0473 23.7656 16.0864 21.625 16.1098 19.7109C16.1254 17.8047 17.141 16.1172 18.141 15.4297Z" fill="#DA0000"/>
<path fill-rule="evenodd" clip-rule="evenodd" d="M23.7656 24.9297C22.6016 24.9453 21.1406 24.7734 20.0547 24.2031C20.2344 24.5547 20.3828 24.7734 20.5625 25.1172C21.5938 25.2187 23.0234 25.3359 23.7656 24.9297ZM16.3438 24.9297C17.5078 24.9453 18.9688 24.7734 20.0547 24.2031C19.875 24.5547 19.7266 24.7734 19.5469 25.1172C18.5156 25.2187 17.0859 25.3359 16.3438 24.9297ZM18.4766 14.0938C18.7109 14.7187 19.3281 14.8125 19.9844 14.4453C20.4688 14.7266 21.2109 14.75 21.4688 14.125C21.6641 15.6719 20.0391 15.2969 19.9844 15C19.375 15.5859 18.25 15.25 18.4766 14.0938Z" fill="#DA0000"/>
<path fill-rule="evenodd" clip-rule="evenodd" d="M20.0312 25.9062L20.6406 25.2031L20.7266 15.8203L20 15.1797L19.2734 15.7891L19.4219 25.2422L20.0312 25.9062Z" fill="#DA0000"/>
</g>
<defs>
<clipPath id="clip0_8424_43272">
<rect width="40" height="40" rx="20" fill="white"/>
</clipPath>
</defs>
</svg>
