<svg width="56" height="56" viewBox="0 0 56 56" fill="none" xmlns="http://www.w3.org/2000/svg">
<g clip-path="url(#clip0_3318_24618)">
<path d="M28 56C43.464 56 56 43.464 56 28C56 12.536 43.464 0 28 0C12.536 0 0 12.536 0 28C0 43.464 12.536 56 28 56Z" fill="#F0F0F0"/>
<path d="M37.094 20.6957H33.4306C33.4609 21.0983 33.478 21.5045 33.478 21.913C33.478 24.6216 32.801 27.2469 31.6207 29.1157C31.2566 29.6921 30.6448 30.5061 29.8258 31.0551V20.6956H26.1736V31.0551C25.3547 30.5061 24.7428 29.6922 24.3787 29.1157C23.1983 27.2469 22.5214 24.6216 22.5214 21.913C22.5214 21.5045 22.5387 21.0982 22.5689 20.6957H18.9055C18.8819 21.0963 18.8691 21.5021 18.8691 21.913C18.8691 29.4223 22.8797 35.3043 27.9995 35.3043C33.1194 35.3043 37.13 29.4223 37.13 21.913C37.1302 21.5021 37.1174 21.0963 37.094 20.6957Z" fill="#D80027"/>
<path d="M11.5652 13.3913H15.2173V15.8261H18.8695V13.3913H22.5216V15.8261H26.1737V13.3913H29.8259V15.8261H33.478V13.3913H37.1302V15.8261H40.7823V13.3913H44.4344V15.8261H53.2213C48.6926 6.46023 39.1008 0 28 0C16.8992 0 7.30732 6.46023 2.77832 15.8261H11.5652V13.3913Z" fill="#6DA544"/>
<path d="M44.4348 40.1738V42.6086H40.7826V40.1738H37.1305V42.6086H33.4783V40.1738H29.8262V42.6086H26.1741V40.1738H22.5219V42.6086H18.8698V40.1738H15.2173V42.6086H11.5652V40.1738H2.77832C7.30732 49.5397 16.8991 56 28 56C39.1009 56 48.6926 49.5397 53.2216 40.1738H44.4348Z" fill="#D80027"/>
</g>
<defs>
<clipPath id="clip0_3318_24618">
<rect width="56" height="56" fill="white"/>
</clipPath>
</defs>
</svg>
