<svg width="56" height="56" viewBox="0 0 56 56" fill="none" xmlns="http://www.w3.org/2000/svg">
<g clip-path="url(#clip0_3318_24623)">
<path d="M28 56C43.464 56 56 43.464 56 28C56 12.536 43.464 0 28 0C12.536 0 0 12.536 0 28C0 43.464 12.536 56 28 56Z" fill="#F0F0F0"/>
<path d="M27.9996 0C15.9606 0 5.69741 7.5985 1.74121 18.2609H54.2582C50.3018 7.5985 40.0386 0 27.9996 0Z" fill="#A2001D"/>
<path d="M27.9996 56C40.0386 56 50.3018 48.4015 54.2581 37.7391H1.74121C5.69741 48.4015 15.9606 56 27.9996 56Z" fill="black"/>
<path d="M21.3046 26.1739C21.2893 26.1739 21.2743 26.1749 21.259 26.1751V26.1739H15.9065C16.1778 25.1254 17.1292 24.3478 18.2611 24.3478V20.6956C14.9047 20.6956 12.1742 23.4263 12.1742 26.7826V29.7652V29.8261H21.259H21.3046C21.6402 29.8261 21.9132 30.0992 21.9132 30.4348V31.6521H9.73926V35.3043H25.5654V30.4347C25.5654 28.0853 23.6539 26.1739 21.3046 26.1739Z" fill="#496E2D"/>
<path d="M30.4353 31.6521V20.6956H26.7832V35.3044H32.8701V31.6521H30.4353Z" fill="#496E2D"/>
<path d="M42.6086 31.6523V20.6956H38.9565V31.6523H37.7391V28.0001H34.0869V35.3045H45.0434V31.6523H42.6086Z" fill="#496E2D"/>
</g>
<defs>
<clipPath id="clip0_3318_24623">
<rect width="56" height="56" fill="white"/>
</clipPath>
</defs>
</svg>
