<svg width="40" height="40" viewBox="0 0 40 40" fill="none" xmlns="http://www.w3.org/2000/svg">
<g clip-path="url(#clip0_8424_43273)">
<path d="M-7 13.3333H46.3333V26.6666H-7V13.3333Z" fill="white"/>
<path d="M-7 0H46.3333V13.3333H-7V0Z" fill="#CE1126"/>
<path d="M-7 26.6667H46.3333V40.0001H-7V26.6667Z" fill="black"/>
<path d="M25.5759 17.5512C25.4998 17.5147 25.4307 17.4653 25.3715 17.4052C25.3277 17.3322 25.3569 17.3322 25.5467 17.376C25.8825 17.4782 26.1014 17.4344 26.3204 17.2592L26.5102 17.0986L26.7292 17.2008C26.8606 17.2738 26.992 17.3176 27.0211 17.303C27.1233 17.2738 27.3277 17.011 27.3131 16.9234C27.3131 16.8212 27.4007 16.8504 27.4591 16.9672C27.5467 17.2008 27.4153 17.4782 27.1671 17.5366C27.0649 17.5658 26.9628 17.5512 26.7876 17.4928C26.5832 17.4198 26.5394 17.4198 26.4372 17.4928C26.3149 17.5852 26.1682 17.64 26.0153 17.6504C25.8623 17.6607 25.7096 17.6263 25.5759 17.5512ZM26.4226 16.7774C26.3238 16.5989 26.2734 16.3976 26.2766 16.1935C26.2912 16.1059 26.3204 16.0767 26.3934 16.1059C26.5394 16.1497 26.5686 16.2519 26.5394 16.5439C26.5394 16.8066 26.4956 16.8796 26.4226 16.7774ZM16.554 16.5001C16.5394 16.6899 16.9044 17.1716 17.065 17.2592C16.9482 17.303 16.8168 17.2884 16.7146 17.3322C16.1307 17.9161 14.0285 19.9599 13.6489 20.4563C14.7876 20.4855 16.0431 20.4417 17.1088 20.3979C17.1088 19.6242 17.8387 19.5804 18.335 19.303C18.5832 19.6971 19.2109 19.668 19.2985 20.2665V22.8358H9.59054C9.55382 23.0306 9.4766 23.2156 9.36388 23.3787C9.25116 23.5417 9.10546 23.6793 8.9362 23.7826C8.76693 23.8858 8.57789 23.9523 8.38129 23.9778C8.18469 24.0033 7.98493 23.9873 7.79492 23.9307C8.08689 23.6387 8.58324 23.522 8.75842 23.0986C8.90441 22.1643 8.46645 21.595 8.17448 21.0548C8.54172 20.9371 8.88699 20.7595 9.19638 20.5293C8.86061 21.5512 10.1015 21.449 11.0066 21.4198C11.0358 21.0694 11.0212 20.6607 10.7584 20.6023C11.0942 20.4709 11.1526 20.4271 11.7219 19.9599V21.3614L18.4518 21.3468C18.4518 20.9088 18.5686 20.1935 18.2183 20.1935C17.8971 20.1935 18.2183 21.0986 17.9555 21.0986H12.7438V20.2227C12.9628 19.9891 12.9336 20.0037 14.4372 18.5001C14.5832 18.3541 15.6489 17.3906 16.5686 16.5001H16.554ZM29.5613 16.4563C29.9262 16.6607 30.2182 16.9234 30.6562 17.0402C30.6124 17.23 30.4372 17.303 30.3934 17.4928V21.4344C30.8898 21.5366 31.0065 21.2446 31.2401 21.0986C31.2985 21.7263 31.7073 22.3395 31.6781 22.8504H29.5613V16.4709V16.4563ZM26.7292 18.5731C26.7292 18.5731 27.5029 17.9161 27.5029 17.8869V21.3176H28.0576L28.043 17.4782C28.262 17.2446 28.7146 16.9234 28.8168 16.6899V22.8212H23.9409C23.8679 21.5512 23.8533 20.2373 25.3423 20.5147V20.0037C25.2985 19.9161 25.2109 20.0183 25.1963 19.9015C25.4299 19.668 25.5029 19.6096 26.1452 19.0548L26.1598 21.3176H26.7292V18.5731ZM24.8898 21.2884C24.992 21.4344 25.3569 21.4344 25.3277 21.1716C25.2839 20.9526 24.8168 21.0256 24.8898 21.2884Z" fill="#007A3D"/>
<path d="M10.7588 23.8577C10.92 23.8577 11.0507 23.727 11.0507 23.5658C11.0507 23.4045 10.92 23.2738 10.7588 23.2738C10.5975 23.2738 10.4668 23.4045 10.4668 23.5658C10.4668 23.727 10.5975 23.8577 10.7588 23.8577Z" fill="#007A3D"/>
<path d="M19.9551 16.4708C20.32 16.6606 20.612 16.938 21.0646 17.0548C21.0062 17.2299 20.8456 17.3029 20.8018 17.4927V21.4343C21.2981 21.5365 21.4003 21.2591 21.6339 21.0985C21.7069 21.7263 22.1011 22.354 22.0865 22.8504H19.9551V16.4708Z" fill="#007A3D"/>
</g>
<defs>
<clipPath id="clip0_8424_43273">
<rect width="40" height="40" rx="20" fill="white"/>
</clipPath>
</defs>
</svg>
