<svg width="40" height="40" viewBox="0 0 40 40" fill="none" xmlns="http://www.w3.org/2000/svg">
<g clip-path="url(#clip0_8424_43276)">
<path fill-rule="evenodd" clip-rule="evenodd" d="M48.293 40.1067H-9V0H48.293V40.1067Z" fill="white"/>
<path fill-rule="evenodd" clip-rule="evenodd" d="M48.293 9.02401H-9V3.76001H48.293V9.02401ZM48.293 36.4798H-9V31.2158H48.293V36.4798ZM10.458 14.9382L19.0825 29.9468L27.895 15.0087L10.458 14.946V14.9382Z" fill="#0038B8"/>
<path fill-rule="evenodd" clip-rule="evenodd" d="M17.461 24.8943L19.0981 27.6751L20.7745 24.91L17.4531 24.8943H17.461Z" fill="white"/>
<path fill-rule="evenodd" clip-rule="evenodd" d="M10.4268 25.1136L19.0591 10.105L27.8638 25.051L10.4268 25.1136Z" fill="#0038B8"/>
<path fill-rule="evenodd" clip-rule="evenodd" d="M17.4609 15.0086L19.0981 12.2278L20.7744 15.0008L17.4531 15.0086H17.4609ZM14.0299 21.2361L12.3301 24.0561L15.5417 24.0483L14.0299 21.2283V21.2361ZM12.3614 16.0269L15.5887 16.0504L14.0377 18.8939L12.3614 16.0269ZM24.2054 21.2753L25.8426 24.0561L22.5761 24.017L24.2054 21.2753ZM25.8112 16.0269L22.5839 16.0504L24.1349 18.8939L25.8112 16.0269ZM16.8577 16.0269L14.6331 20.0533L16.8891 23.9934L21.0251 24.0875L23.5317 20.0533L21.2131 15.9799L16.8577 16.0191V16.0269Z" fill="white"/>
</g>
<defs>
<clipPath id="clip0_8424_43276">
<rect width="40" height="40" rx="20" fill="white"/>
</clipPath>
</defs>
</svg>
