<svg width="56" height="56" viewBox="0 0 56 56" fill="none" xmlns="http://www.w3.org/2000/svg">
<g clip-path="url(#clip0_3318_24644)">
<path d="M28 56C43.464 56 56 43.464 56 28C56 12.536 43.464 0 28 0C12.536 0 0 12.536 0 28C0 43.464 12.536 56 28 56Z" fill="#F0F0F0"/>
<path d="M56.0002 28C56.0002 15.961 48.4017 5.69778 37.7393 1.74158V54.2585C48.4017 50.3022 56.0002 40.039 56.0002 28Z" fill="#D80027"/>
<path d="M0 28C0 40.039 7.5985 50.3022 18.2609 54.2584V1.74158C7.5985 5.69778 0 15.961 0 28Z" fill="#6DA544"/>
</g>
<defs>
<clipPath id="clip0_3318_24644">
<rect width="56" height="56" fill="white"/>
</clipPath>
</defs>
</svg>
