<svg width="40" height="40" viewBox="0 0 40 40" fill="none" xmlns="http://www.w3.org/2000/svg">
<g clip-path="url(#clip0_8424_43270)">
<path d="M-6.33301 0H47.0003V40H-6.33301V0Z" fill="white"/>
<path fill-rule="evenodd" clip-rule="evenodd" d="M-13 0V2.66667L16.2 20L-12.8667 37.3333V40H-8.6L20.4667 22.6667L49.4 40H53.6667V37.3333L24.7333 20L53.8 2.66667V0H49.4L20.3333 17.3333L-8.6 0H-12.8667H-13Z" fill="#DF112D"/>
<path d="M23.8006 6C24.7339 9.46667 24.2006 13.7333 20.3339 16.1333C16.4673 13.7333 15.9339 9.46667 16.8673 6C17.8006 5.2 21.9339 4.66667 23.8006 6Z" fill="#E8112D"/>
<path d="M20.3337 5.33335C21.6671 5.33335 22.7337 5.60002 23.8004 6.13335C23.9924 4.97821 24.4487 3.88305 25.1337 2.93335C24.4671 2.93335 24.2004 3.20002 24.2004 3.60002C24.0671 3.20002 23.4004 3.20002 23.1337 3.46668C23.9337 3.86668 23.4004 4.80002 22.7337 4.66668C22.3337 4.53335 22.2004 4.26668 22.2004 4.00002C22.2993 3.9833 22.3883 3.93004 22.4498 3.8508C22.5112 3.77155 22.5407 3.67211 22.5323 3.57216C22.5239 3.47222 22.4783 3.37907 22.4045 3.31118C22.3307 3.24329 22.234 3.20561 22.1337 3.20561C22.0334 3.20561 21.9368 3.24329 21.863 3.31118C21.7891 3.37907 21.7435 3.47222 21.7351 3.57216C21.7267 3.67211 21.7562 3.77155 21.8177 3.8508C21.8792 3.93004 21.9682 3.9833 22.0671 4.00002C21.8209 4.25124 21.4854 4.39501 21.1337 4.40002C20.9806 4.32761 20.8501 4.21491 20.7561 4.07398C20.6622 3.93305 20.6083 3.76921 20.6004 3.60002C20.6004 2.93335 21.4004 2.80002 21.5337 2.93335C21.5337 2.53335 20.7337 2.00002 20.6004 2.53335C20.7381 2.27445 20.7866 1.97738 20.7383 1.68813C20.6901 1.39889 20.5479 1.13361 20.3337 0.93335C20.1483 1.12346 20.0238 1.36462 19.9763 1.62593C19.9288 1.88724 19.9604 2.15679 20.0671 2.40002C19.8004 2.00002 19.1337 2.40002 19.1337 2.93335C19.2671 2.80002 19.9337 2.93335 19.9337 3.60002C19.9337 3.86668 19.9337 4.26668 19.5337 4.26668C19.3704 4.33069 19.1906 4.33926 19.022 4.29108C18.8534 4.2429 18.7052 4.14063 18.6004 4.00002L18.8671 3.86668C18.9433 3.82266 19.0029 3.7547 19.0366 3.67335C19.0703 3.592 19.0762 3.5018 19.0534 3.41675C19.0306 3.33169 18.9804 3.25654 18.9106 3.20293C18.8407 3.14933 18.7551 3.12027 18.6671 3.12027C18.579 3.12027 18.4934 3.14933 18.4236 3.20293C18.3537 3.25654 18.3035 3.33169 18.2807 3.41675C18.2579 3.5018 18.2638 3.592 18.2975 3.67335C18.3312 3.7547 18.3908 3.82266 18.4671 3.86668C18.4671 4.26668 18.2004 4.53335 17.9337 4.53335C17.7938 4.53335 17.6574 4.48933 17.5439 4.40751C17.4304 4.3257 17.3455 4.21024 17.3013 4.0775C17.257 3.94476 17.2557 3.80146 17.2974 3.6679C17.3391 3.53435 17.4218 3.4173 17.5337 3.33335C17.2671 3.06668 16.6004 3.06668 16.4671 3.60002C16.4671 3.20002 16.2004 2.93335 15.4004 2.93335C16.0854 3.88305 16.5417 4.97821 16.7337 6.13335C17.8418 5.55275 19.0841 5.27668 20.3337 5.33335Z" fill="#F9DD16"/>
<path d="M23.401 8.79998H23.1343H23.5343C23.6676 8.79998 23.801 8.66665 23.6676 8.53331H23.9343L23.6676 8.26665H23.9343L23.6676 7.99998H23.801C23.7776 7.95944 23.7652 7.91346 23.7652 7.86665C23.7652 7.81984 23.7776 7.77385 23.801 7.73331H22.8676L22.201 7.59998L23.001 7.19998C23.001 6.93331 22.601 6.53331 21.9343 6.79998L20.4676 6.66665L21.401 6.39998L22.4676 6.26665H21.5343C21.1343 6.26665 20.201 6.13331 20.201 6.66665C20.201 7.19998 21.1343 7.06665 22.0676 6.93331L22.8676 7.06665L22.0676 7.33331C21.6728 7.24214 21.2624 7.24214 20.8676 7.33331H19.9343C19.6676 7.33331 19.2676 7.33331 19.001 7.06665C19.001 7.06665 18.4676 7.33331 18.4676 7.59998V7.99998C18.7343 8.26665 18.4676 8.13331 18.201 8.13331L17.5343 7.99998C17.401 7.73331 17.2676 7.59998 17.001 7.73331V7.99998H17.2676C17.2271 7.97657 17.1811 7.96425 17.1343 7.96425C17.0875 7.96425 17.0415 7.97657 17.001 7.99998V8.26665H17.401H17.1343V8.39998H17.6676C17.5969 8.39998 17.5291 8.42807 17.4791 8.47808C17.4291 8.52809 17.401 8.59592 17.401 8.66665C17.5343 8.53331 17.6676 8.66665 17.9343 8.66665L17.6676 8.79998C17.801 8.79998 18.601 8.93331 18.601 8.66665V8.79998C18.601 8.79998 19.001 8.79998 19.001 8.53331V8.79998C19.001 8.79998 19.2676 8.79998 19.401 8.53331V8.26665H20.0676C20.3343 7.99998 20.4676 8.26665 20.601 8.13331H20.8676C21.001 8.13331 21.1343 8.13331 21.2676 7.86665C21.5343 7.99998 21.9343 8.13331 22.7343 7.99998C23.1343 7.99998 23.401 8.13331 23.401 8.39998H22.7343C22.7343 8.39998 22.601 8.53331 22.7343 8.66665C22.8676 8.79998 22.7343 8.66665 22.8676 8.66665C22.8676 8.66665 22.7343 8.79998 22.8676 8.93331L23.2676 8.79998H23.401ZM18.0676 6.53331V6.66665L18.201 6.93331L18.3343 6.53331H18.0676Z" fill="#F9DD16"/>
<path d="M19.001 6.66666C19.1343 6.53333 19.2676 6.53333 19.2676 6.66666L19.1343 6.93333L19.001 6.53333V6.66666Z" fill="#F9DD16"/>
<path d="M18.6007 6.40002C19.0007 6.40002 19.134 6.66669 19.134 6.93336L18.8674 7.46669L18.6007 7.60002L18.334 7.46669C18.334 7.06669 18.0674 7.20002 18.0674 6.93336C18.0674 6.66669 18.0674 6.40002 18.6007 6.40002Z" fill="#F9DD16"/>
<path d="M17.5339 7.46667H17.2672C17.4005 7.46667 17.4005 7.73334 17.8005 7.73334H17.5339C17.6672 7.73334 17.8005 8 18.2005 8C18.3339 8 18.2005 8 18.2005 8C18.2005 8.13334 18.4672 8 18.6005 8.26667C18.6005 8.13334 18.3339 7.86667 18.6005 7.6C18.0672 7.6 17.9339 7.33334 17.8005 7.2C17.5339 7.06667 17.5339 6.8 17.4005 6.53334C17.4005 6.53334 17.2672 6.26667 17.1339 6.4V6.66667H17.0005C17.1339 6.66667 17.0005 6.93334 17.2672 7.06667C17.1339 6.93334 17.0005 6.8 16.8672 6.93334H17.0005L17.5339 7.46667ZM21.0005 8.8H21.6672L21.9339 8.66667V8.4C21.8005 8.4 21.6672 8.26667 21.8005 8.13334C21.4005 7.6 20.6005 7.86667 20.6005 8.13334L21.1339 8.4H21.2672H20.3339L20.4672 8.53334L20.2005 8.66667C20.2005 8.93334 20.4672 8.66667 20.4672 8.66667V8.8C20.4672 8.8 20.4672 8.93334 20.6005 8.8C20.6868 8.7695 20.7809 8.7695 20.8672 8.8H21.0005Z" fill="#F9DD16"/>
<path d="M18.6007 7.46674H18.734V7.20007H18.334V7.33341L18.6007 7.46674Z" fill="#FF0016"/>
<path d="M17.1334 6.39996C17.1334 6.26662 16.8667 6.39996 16.8667 6.39996H17.1334ZM17.1334 6.53329L16.7334 6.66662H17.0001L17.1334 6.53329ZM17.1334 6.93329H16.7334H17.0001H17.1334ZM17.1334 7.86662C17.0001 7.86662 16.8667 7.86662 16.8667 8.13329C16.8667 7.99996 17.0001 8.13329 17.1334 8.13329V7.86662ZM17.1334 8.13329L16.8667 8.39996L17.1334 8.26662V7.99996V8.13329ZM17.1334 8.26662C17.1334 8.26662 17.0001 8.39996 17.1334 8.53329V8.13329V8.26662ZM20.4667 8.66662C20.3334 8.66662 20.2001 8.66662 20.2001 8.93329L20.4667 8.79996V8.66662ZM20.6001 8.66662C20.4667 8.66662 20.3334 8.93329 20.4667 9.06662L20.6001 8.93329V8.79996V8.66662ZM20.6001 8.39996C20.3334 8.39996 20.2001 8.39996 20.2001 8.66662L20.4667 8.53329L20.6001 8.39996ZM22.7334 8.66662C22.7334 8.66662 22.4667 8.79996 22.6001 8.93329L22.7334 8.79996V8.66662ZM22.7334 8.53329L22.4667 8.66662H22.7334V8.26662V8.53329ZM22.7334 8.79996C22.7334 8.79996 22.6001 9.06662 22.7334 9.06662H22.8667V8.66662L22.7334 8.79996ZM18.7334 7.46662V7.99996C18.4667 7.99996 18.4667 7.99996 18.4667 7.73329V7.46662H18.6001H18.7334Z" fill="#0051BA"/>
<path d="M22.8676 11.6H23.1342C23.1342 11.6 23.2676 11.6 23.1342 11.4667H23.4009L23.2676 11.2H23.4009L23.2676 10.9333C23.2442 10.8928 23.2319 10.8468 23.2319 10.8C23.2319 10.7532 23.2442 10.7072 23.2676 10.6667H22.6009L21.9342 10.5333C22.3342 10.6667 22.7342 10.4 22.7342 10.1333C22.7342 9.86666 22.3342 9.59999 21.8009 9.86666L20.3342 9.73333L21.1342 9.46666H22.2009L21.2676 9.33333C20.8676 9.19999 20.0676 9.33333 20.0676 9.73333C20.0676 10.1333 21.0009 10.1333 21.8009 9.99999H22.4676L21.8009 10.2667C21.4499 10.1866 21.0853 10.1866 20.7342 10.2667L19.8009 10.4C19.6676 10.4 19.2676 10.4 19.0009 10.1333L18.4676 10.5333L18.6009 11.0667C18.7342 11.2 18.6009 11.0667 18.3342 11.0667H17.6676C17.6676 10.8 17.4009 10.6667 17.2676 10.8V10.9333H17.5342C17.4937 10.9099 17.4477 10.8976 17.4009 10.8976C17.3541 10.8976 17.3081 10.9099 17.2676 10.9333V11.2H17.5342H17.4009C17.6676 11.2 17.6676 11.4667 17.8009 11.3333C17.7572 11.322 17.7113 11.322 17.6676 11.3333C17.6676 11.3333 17.9342 11.6 18.0676 11.4667L17.9342 11.7333C17.9342 11.6 18.7342 11.7333 18.7342 11.4667V11.7333C18.7342 11.7333 19.0009 11.7333 19.1342 11.4667H19.4009V11.2H19.6676L20.0676 11.0667H20.7342C20.8676 11.0667 21.0009 11.0667 21.1342 10.8C21.4009 10.9333 21.6676 11.0667 22.4676 10.9333C22.7342 10.9333 22.8676 10.9333 22.8676 11.2V11.3333H22.3342V11.6C22.3342 11.7333 22.4676 11.6 22.6009 11.6C22.4676 11.6 22.3342 11.6 22.4676 11.7333H22.6009L22.8676 11.6ZM18.3342 9.59999H18.0676L18.2009 9.99999L18.3342 9.59999Z" fill="#F9DD16"/>
<path d="M19 9.59998H19.2667L19.1333 9.99998L19 9.59998Z" fill="#F9DD16"/>
<path d="M18.7335 9.46667C19.1335 9.46667 19.1335 9.73334 19.1335 10C19.1335 10.2667 19.0002 10 18.8669 10.4L18.6002 10.5333H18.4669C18.4669 10.1333 18.2002 10.1333 18.2002 10C18.2002 9.86667 18.2002 9.46667 18.7335 9.46667Z" fill="#F9DD16"/>
<path d="M17.6671 10.4H17.5338C17.5338 10.4 17.5338 10.6667 17.9338 10.6667H17.6671L18.2005 10.9333C18.4671 10.9333 18.2005 10.9333 18.2005 10.9333L18.7338 11.2C18.7338 10.9333 18.4671 10.8 18.6005 10.5333C18.2005 10.5333 18.0671 10.2667 17.9338 10.1333C17.6671 10.1333 17.6671 9.86667 17.6671 9.60001L17.4005 9.46667C17.4005 9.46667 17.2671 9.46667 17.4005 9.46667V9.73334H17.2671L17.4005 10H17.1338C17.4005 10 17.5338 10.4 17.6671 10.4ZM20.8671 11.6H20.7338H21.8005V11.3333C21.6671 11.3333 21.5338 11.2 21.6671 10.9333C21.2671 10.5333 20.6005 10.8 20.6005 10.9333L21.1338 11.2C21.1338 11.2 21.4005 11.2 21.1338 11.3333H20.8671C20.6005 11.3333 20.4671 11.2 20.3338 11.3333V11.6H20.4671C20.4671 11.6 20.4671 11.7333 20.6005 11.6C20.6867 11.5695 20.7809 11.5695 20.8671 11.6Z" fill="#F9DD16"/>
<path d="M18.7335 10.5333V10.4C18.7335 10.4 18.8668 10.2666 18.7335 10.1333C18.8668 10.2666 18.7335 10.2666 18.7335 10.1333C18.7335 10.2666 18.4668 10.2666 18.4668 10.1333V10.4H18.7335V10.5333Z" fill="#FF0016"/>
<path d="M18.6007 10.2666L18.334 10.1333L18.6007 10.2666ZM18.6007 10.1333H18.334H18.6007ZM18.6007 10.1333L18.334 10.2666L18.6007 10.1333ZM18.734 10.2666L19.0007 10.1333L18.734 10.2666ZM18.734 10.1333H19.0007H18.734ZM18.734 10.1333L19.0007 10.2666L18.734 10.1333Z" fill="black"/>
<path d="M17.4 9.33337L17.1333 9.46671H17.4V9.33337ZM17.4 9.60004L17 9.73337H17.2667L17.4 9.60004ZM17.2667 10C17.2667 9.86671 17 10 17 10H17.2667ZM17.2667 10.8L17 10.9334H17.4L17.2667 10.8ZM17.2667 11.0667C17.2667 11.0667 17 11.0667 17.2667 11.3334V11.0667ZM17.5333 11.0667L17.2667 11.4667L17.5333 11.3334V11.2V11.0667ZM20.2 11.4667C20.2 11.4667 20.0667 11.4667 20.2 11.7334L20.3333 11.6V11.4667H20.2ZM20.4667 11.6C20.4667 11.6 20.2 11.7334 20.3333 11.8667L20.4667 11.7334V11.6ZM20.4667 11.2C20.3333 11.2 20.0667 11.3334 20.2 11.4667H20.3333V11.3334L20.4667 11.2ZM22.3333 11.6C22.3333 11.6 22.2 11.6 22.3333 11.7334V11.4667V11.6ZM22.3333 11.3334L22.2 11.4667H22.4667V11.3334H22.3333ZM22.4667 11.7334C22.4667 11.7334 22.3333 11.7334 22.4667 11.8667V11.7334ZM18.7333 10.4V10.9334V10.6667C18.7333 10.5334 18.7333 10.4 18.6 10.5334V10.4H18.7333Z" fill="#0051BA"/>
<path d="M22.8639 13.9066C22.7892 13.9066 22.7892 14.0066 22.7706 14.0066C22.9199 14.0066 22.9946 13.9466 23.0319 13.8666V13.9866C23.1439 13.9466 23.1812 13.8466 23.1439 13.7866L23.2746 13.8266C23.1999 13.7666 23.2559 13.6266 23.1252 13.5466C23.1626 13.5466 23.2372 13.5866 23.2746 13.6466C23.2559 13.5066 23.2372 13.4266 23.1252 13.3466H23.2186C23.1942 13.3292 23.1745 13.3053 23.1614 13.2773C23.1483 13.2492 23.1422 13.2179 23.1439 13.1866C23.1439 13.1066 23.1066 13.1066 23.0319 13.1266L22.6959 13.1466C22.5092 13.1466 22.3226 13.1466 22.1732 13.0266C22.4159 13.1466 22.7332 12.9066 22.7332 12.7266C22.7332 12.5266 22.4719 12.3266 21.9866 12.4466C21.5012 12.5666 20.9039 12.5266 20.9039 12.3466C20.9039 12.1666 21.3332 12.1466 21.5572 12.1866C21.7812 12.2266 21.9306 12.2466 22.3412 12.0866C22.2479 12.1266 21.9119 12.1466 21.6506 12.0666C21.3892 11.9866 20.7546 11.9866 20.7546 12.3466C20.7546 12.7266 21.4266 12.6866 22.0239 12.5866C22.3599 12.5466 22.5466 12.5866 22.5466 12.6866C22.5466 12.8066 22.2292 12.8466 21.9866 12.8266C21.7303 12.7896 21.4697 12.81 21.2212 12.8866C20.9786 12.9666 20.8106 12.8866 20.5492 12.9466C20.4186 12.9466 20.1012 12.9466 19.9519 12.6666C19.8586 12.7466 19.5786 12.8866 19.5226 13.0466C19.4666 13.1666 19.5226 13.3066 19.5972 13.4466C19.7092 13.6066 19.5412 13.5866 19.4106 13.5866C19.2612 13.5866 19.0372 13.5866 18.9252 13.4266C18.8132 13.3066 18.6826 13.2066 18.5706 13.2866C18.5146 13.3466 18.5706 13.4066 18.6079 13.3866L18.7572 13.4266C18.7272 13.412 18.6942 13.4061 18.6614 13.4097C18.6286 13.4132 18.5973 13.4259 18.5706 13.4466C18.5146 13.4866 18.5706 13.5666 18.6266 13.5466C18.6639 13.5266 18.7572 13.5066 18.8132 13.5466C18.7572 13.5466 18.6826 13.5466 18.6639 13.5866C18.6452 13.6266 18.6639 13.6666 18.7199 13.6666C18.8319 13.6666 18.8506 13.7466 18.9626 13.7266C18.9365 13.7281 18.9111 13.7362 18.8884 13.7501C18.8657 13.7639 18.8464 13.7833 18.8319 13.8066C18.9439 13.7466 19.0372 13.8866 19.1679 13.8466C19.1306 13.8666 19.0372 13.9266 19.0372 13.9666C19.1119 13.8666 19.6346 14.0466 19.6346 13.8266L19.6159 13.9866C19.6719 13.9466 19.8772 13.9266 19.9519 13.7866C19.9519 13.8266 19.9519 13.8866 19.9146 13.9066C19.9706 13.9066 20.0639 13.8666 20.1572 13.7266C20.1946 13.6666 20.1946 13.6266 20.1946 13.5866C20.2879 13.5866 20.3439 13.5666 20.4186 13.5066C20.4932 13.4466 20.5679 13.5666 20.6986 13.4666C20.8106 13.3866 20.9226 13.4666 20.9972 13.4266C21.0532 13.3866 21.1466 13.4266 21.2212 13.3866C21.2959 13.3466 21.4079 13.4066 21.5199 13.3066C21.7066 13.3866 21.9492 13.5066 22.4906 13.4066C22.7892 13.3466 22.9012 13.4666 22.9012 13.6066C22.9012 13.7266 22.8266 13.7266 22.7892 13.7266C22.6026 13.7466 22.5466 13.6666 22.4719 13.6866C22.4346 13.7066 22.3972 13.7866 22.4719 13.8266C22.4159 13.8466 22.4159 13.9066 22.4532 13.9266C22.4906 13.9466 22.5466 13.9266 22.6026 13.9066C22.5279 13.9266 22.4719 13.9866 22.5092 14.0466C22.5279 14.0866 22.5839 14.1066 22.6399 14.0466C22.6959 13.9666 22.7892 13.9066 22.8639 13.9066ZM19.3919 12.3066C19.2426 12.2466 19.2052 12.2466 19.2239 12.3866C19.2239 12.4466 19.2799 12.5266 19.3172 12.5666C19.3172 12.5066 19.3359 12.3666 19.3919 12.3266V12.3066Z" fill="#F9DD16"/>
<path fill-rule="evenodd" clip-rule="evenodd" d="M21.1027 12.0321C21.2956 11.9968 21.5212 12.0169 21.6533 12.0574C21.7828 12.097 21.9311 12.112 22.0588 12.112C22.1226 12.112 22.1811 12.1082 22.2294 12.102C22.2713 12.0967 22.305 12.0895 22.3276 12.0815C22.331 12.0802 22.3343 12.0789 22.3376 12.0776L22.3449 12.0955C22.3417 12.0969 22.3382 12.0983 22.3344 12.0996C22.1342 12.177 21.9959 12.2113 21.88 12.2213C21.7619 12.2314 21.6675 12.2161 21.5554 12.1961C21.4444 12.1763 21.2822 12.1714 21.1481 12.1937C21.0809 12.2048 21.0216 12.2227 20.9794 12.2483C20.9373 12.2739 20.9135 12.3062 20.9135 12.3466C20.9135 12.3854 20.9456 12.4193 21.0085 12.4462C21.0707 12.4728 21.1594 12.4908 21.2639 12.4995C21.4729 12.5169 21.7425 12.497 21.9842 12.4372C22.2283 12.3769 22.4174 12.3967 22.546 12.4579C22.6745 12.5191 22.7428 12.6221 22.7428 12.7266C22.7428 12.7744 22.7218 12.8251 22.6876 12.872C22.6532 12.9191 22.605 12.963 22.5492 12.9974C22.4585 13.0532 22.3464 13.0843 22.2403 13.0605C22.3748 13.1367 22.5335 13.137 22.6955 13.137L23.0303 13.117C23.0486 13.1121 23.0652 13.1083 23.0797 13.1067C23.0944 13.1051 23.1079 13.1055 23.1194 13.1102C23.1441 13.1201 23.1535 13.1461 23.1535 13.1866V13.1871C23.1519 13.2169 23.1576 13.2466 23.17 13.2732C23.1824 13.2998 23.2011 13.3224 23.2241 13.3388L23.2487 13.3563H23.1538C23.1974 13.3915 23.2249 13.4279 23.2436 13.4702C23.2653 13.5191 23.2747 13.5754 23.284 13.6453L23.2663 13.6517C23.2486 13.6233 23.2218 13.5992 23.1947 13.5823C23.1859 13.5768 23.1772 13.5721 23.1689 13.5684C23.2071 13.6059 23.221 13.6504 23.2302 13.692C23.2321 13.7003 23.2337 13.7084 23.2353 13.7162C23.2389 13.7339 23.2423 13.7504 23.2472 13.7659C23.2542 13.7877 23.2639 13.8057 23.2805 13.8191L23.2716 13.8359L23.1618 13.8023C23.1847 13.8689 23.139 13.9586 23.0351 13.9957L23.0221 14.0003V13.9039C23.0039 13.9316 22.9799 13.956 22.9481 13.9749C22.9042 14.001 22.8464 14.0163 22.7705 14.0163V13.997C22.7692 13.997 22.7684 13.9974 22.7682 13.9976C22.7683 13.9975 22.7685 13.9973 22.7689 13.9968C22.7701 13.995 22.7716 13.992 22.7735 13.9874C22.7746 13.9847 22.7758 13.9815 22.7771 13.9779C22.7799 13.9703 22.7833 13.9612 22.7874 13.9525C22.791 13.9447 22.7955 13.9365 22.8012 13.929C22.7842 13.9354 22.7669 13.9441 22.75 13.9548C22.7113 13.9791 22.675 14.0132 22.6477 14.0522L22.6473 14.0527L22.6469 14.0532C22.6174 14.0848 22.5866 14.0966 22.5594 14.0937C22.5326 14.0909 22.5113 14.0737 22.5006 14.0512C22.4905 14.0348 22.4865 14.0179 22.4878 14.0015C22.4892 13.985 22.4959 13.9695 22.5061 13.9558C22.5097 13.951 22.5138 13.9464 22.5182 13.9419C22.4934 13.9463 22.469 13.9461 22.4486 13.9351C22.4262 13.9231 22.4151 13.8992 22.4179 13.8755C22.4201 13.8562 22.4314 13.8377 22.4519 13.8254C22.4401 13.8164 22.4317 13.8061 22.4263 13.7949C22.4189 13.7793 22.4177 13.7629 22.4203 13.7475C22.4254 13.7173 22.4457 13.6896 22.4672 13.6781L22.4682 13.6776L22.4693 13.6773C22.49 13.6718 22.5092 13.6732 22.5288 13.6778C22.5424 13.681 22.5566 13.6858 22.5718 13.6909C22.5782 13.6931 22.5847 13.6953 22.5914 13.6974C22.6372 13.7121 22.6965 13.7268 22.7881 13.717L22.7891 13.7169C22.8082 13.7169 22.8333 13.7167 22.8539 13.7035C22.8736 13.6908 22.8915 13.6646 22.8915 13.6066C22.8915 13.5393 22.8647 13.4778 22.8028 13.4399C22.7404 13.4017 22.6405 13.3863 22.4924 13.4161L22.4922 13.4161C22.2206 13.4663 22.0234 13.4614 21.8704 13.4336C21.7307 13.4083 21.6283 13.364 21.5406 13.3261C21.5342 13.3233 21.5278 13.3206 21.5216 13.3179C21.4648 13.3664 21.408 13.3763 21.3569 13.3788C21.3451 13.3794 21.3334 13.3795 21.3223 13.3797L21.3191 13.3798C21.3069 13.38 21.2953 13.3802 21.2842 13.381C21.262 13.3825 21.2426 13.3861 21.2257 13.3951C21.1862 13.4163 21.1421 13.4163 21.1031 13.4163H21.1021C21.0616 13.4163 21.0277 13.4166 21.0028 13.4345L21.0022 13.4348L21.0017 13.4351C20.9809 13.4463 20.958 13.4488 20.9345 13.4482C20.9186 13.4477 20.9016 13.4458 20.8845 13.4438C20.8766 13.4429 20.8687 13.442 20.8609 13.4412C20.8103 13.4363 20.7573 13.4366 20.7042 13.4744C20.6704 13.5002 20.6398 13.5122 20.6114 13.5162C20.5832 13.5202 20.5579 13.5161 20.5353 13.511C20.5291 13.5096 20.5232 13.5082 20.5175 13.5068C20.502 13.503 20.4883 13.4996 20.4747 13.4988C20.4571 13.4976 20.441 13.5009 20.4245 13.5142C20.3867 13.5446 20.3531 13.5652 20.3167 13.5782C20.2829 13.5903 20.2471 13.5956 20.2041 13.5962C20.204 13.6133 20.2034 13.6312 20.1993 13.6511C20.1943 13.6748 20.1845 13.7009 20.1653 13.7317L20.1652 13.732C20.0708 13.8735 19.9749 13.9163 19.9145 13.9163L19.9099 13.8981C19.9248 13.8901 19.9332 13.8737 19.9377 13.8522C19.9398 13.8421 19.9409 13.8314 19.9415 13.8209C19.9005 13.8758 19.8388 13.9094 19.7804 13.9331C19.7531 13.9442 19.7261 13.9533 19.702 13.9614C19.696 13.9634 19.6902 13.9654 19.6846 13.9673C19.6559 13.9771 19.634 13.9855 19.6214 13.9945L19.6037 14.0072L19.616 13.9014C19.6003 13.9177 19.579 13.9289 19.5545 13.9365C19.5026 13.9526 19.4334 13.9538 19.3635 13.9513C19.3371 13.9503 19.3107 13.9489 19.2849 13.9475C19.2413 13.9451 19.1993 13.9428 19.1621 13.9432C19.1326 13.9435 19.1069 13.9455 19.0865 13.9503C19.0659 13.9552 19.0522 13.9626 19.0449 13.9724L19.0275 13.9957V13.9666C19.0275 13.9532 19.0351 13.9397 19.0448 13.9277C19.0547 13.9154 19.0682 13.9031 19.0824 13.8916C19.0949 13.8815 19.1083 13.872 19.121 13.8636C19.0747 13.8641 19.0331 13.8465 18.9947 13.8304C18.9928 13.8296 18.9909 13.8288 18.9891 13.828C18.9349 13.8053 18.8878 13.7876 18.8364 13.8151L18.8046 13.8322L18.8236 13.8015C18.8388 13.777 18.8593 13.7565 18.8833 13.7418C18.8868 13.7397 18.8903 13.7377 18.8939 13.7358C18.8929 13.7356 18.8918 13.7353 18.8908 13.7351C18.8703 13.7301 18.853 13.7215 18.8366 13.7126C18.8343 13.7114 18.832 13.7102 18.8297 13.7089C18.7993 13.6925 18.7693 13.6763 18.7198 13.6763C18.6895 13.6763 18.6672 13.6654 18.6556 13.6467C18.6441 13.6283 18.6447 13.6047 18.655 13.5825C18.6666 13.5579 18.6944 13.5472 18.7228 13.5421C18.7375 13.5395 18.7533 13.5382 18.769 13.5376C18.7514 13.5334 18.7323 13.5324 18.7135 13.5338C18.6796 13.5362 18.6483 13.5459 18.631 13.5551L18.6304 13.5555L18.6297 13.5557C18.5963 13.5676 18.564 13.5495 18.5483 13.5242C18.5403 13.5114 18.536 13.496 18.5381 13.4806C18.5403 13.465 18.5488 13.4503 18.5647 13.4389C18.5862 13.4223 18.6105 13.4105 18.6363 13.4043L18.6087 13.3969C18.5849 13.407 18.5585 13.3933 18.5458 13.3715C18.5317 13.3473 18.5329 13.3127 18.5634 13.28L18.5641 13.2793L18.5649 13.2788C18.6247 13.236 18.6894 13.242 18.7521 13.273C18.8144 13.3038 18.876 13.3598 18.9322 13.42L18.9327 13.4205L18.9331 13.4211C18.9872 13.4984 19.0686 13.5375 19.1559 13.5572C19.2434 13.5769 19.3357 13.577 19.4105 13.577C19.4238 13.577 19.4373 13.5772 19.4508 13.5774C19.4709 13.5777 19.4909 13.578 19.5103 13.5776C19.5426 13.577 19.5711 13.5745 19.5917 13.5675C19.6121 13.5606 19.6225 13.5503 19.624 13.535C19.6257 13.5181 19.617 13.4919 19.5892 13.4522L19.5885 13.4512C19.5511 13.381 19.518 13.3101 19.5014 13.2414C19.4848 13.1727 19.4845 13.1055 19.5135 13.043C19.5282 13.0013 19.5572 12.9615 19.5931 12.9243C19.6292 12.8869 19.6729 12.8515 19.7174 12.8188C19.7574 12.7895 19.7983 12.7623 19.8353 12.7376C19.8395 12.7348 19.8437 12.732 19.8479 12.7292C19.8882 12.7022 19.9227 12.6788 19.9455 12.6593L19.9547 12.6515L19.9603 12.6621C20.1062 12.9356 20.416 12.937 20.548 12.937C20.6711 12.9089 20.7737 12.9115 20.872 12.914C20.8788 12.9141 20.8856 12.9143 20.8924 12.9145C20.9972 12.917 21.0984 12.9169 21.2181 12.8775L21.2183 12.8774C21.468 12.8004 21.73 12.7799 21.9876 12.817C22.1081 12.8269 22.247 12.8219 22.3555 12.7997C22.4099 12.7885 22.4559 12.7732 22.4881 12.7537C22.5204 12.7341 22.5368 12.7117 22.5368 12.6866C22.5368 12.6652 22.527 12.6466 22.5062 12.6309C22.4851 12.615 22.4529 12.6022 22.4093 12.5936C22.3221 12.5764 22.1927 12.5763 22.0252 12.5962C21.7265 12.6462 21.4081 12.6814 21.1641 12.6562C21.0422 12.6437 20.9377 12.6159 20.8635 12.5665C20.7886 12.5168 20.7448 12.4451 20.7448 12.3466C20.7448 12.2533 20.7861 12.1831 20.8518 12.1321C20.9171 12.0814 21.0063 12.0498 21.1027 12.0321ZM18.6901 13.4187L18.7546 13.436L18.7614 13.4179C18.7398 13.4074 18.7167 13.4012 18.6932 13.3995L18.6066 13.3763L18.6032 13.3781C18.5906 13.3849 18.5724 13.3788 18.5625 13.3618C18.5533 13.3461 18.5521 13.321 18.5769 13.2939C18.6288 13.2573 18.6852 13.2614 18.7435 13.2903C18.8024 13.3194 18.8619 13.3731 18.9176 13.4327C18.9755 13.515 19.0619 13.5558 19.1517 13.576C19.2414 13.5963 19.3356 13.5963 19.4101 13.5963H19.4105C19.4232 13.5963 19.4364 13.5965 19.4498 13.5967C19.4703 13.597 19.4911 13.5973 19.5107 13.5969C19.5432 13.5963 19.5742 13.5938 19.5979 13.5858C19.6218 13.5777 19.6406 13.563 19.6432 13.537C19.6456 13.5127 19.6334 13.4816 19.6054 13.4416C19.5683 13.3719 19.5362 13.303 19.5202 13.2369C19.5042 13.1707 19.5044 13.1081 19.5312 13.0507L19.5316 13.0498C19.5449 13.0117 19.5719 12.9741 19.607 12.9377C19.642 12.9014 19.6847 12.8668 19.7288 12.8344C19.7684 12.8054 19.809 12.7784 19.846 12.7537C19.8503 12.7508 19.8544 12.748 19.8586 12.7453C19.8938 12.7217 19.9256 12.7003 19.9489 12.6815C20.1032 12.9563 20.4196 12.9563 20.5484 12.9563H20.5502L20.5513 12.956C20.6724 12.9282 20.7731 12.9308 20.8718 12.9333C20.8785 12.9335 20.8852 12.9336 20.8919 12.9338C20.9971 12.9363 21.1011 12.9364 21.2241 12.8958C21.4712 12.8197 21.7303 12.7994 21.9851 12.8362L21.9857 12.8363C22.1077 12.8463 22.2487 12.8413 22.3594 12.8186C22.4147 12.8072 22.4632 12.7913 22.4981 12.7702C22.5329 12.7491 22.5561 12.7216 22.5561 12.6866C22.5561 12.6581 22.5426 12.6342 22.5179 12.6155C22.4935 12.597 22.458 12.5835 22.413 12.5746C22.3229 12.5569 22.191 12.557 22.0227 12.577L22.0222 12.5771C21.7237 12.6271 21.4074 12.6619 21.1661 12.637C21.0454 12.6246 20.9446 12.5973 20.8742 12.5505C20.8043 12.504 20.7641 12.4382 20.7641 12.3466C20.7641 12.26 20.8021 12.1952 20.8636 12.1474C20.9255 12.0993 21.0113 12.0685 21.1062 12.0511C21.296 12.0164 21.5184 12.0363 21.6476 12.0759C21.7795 12.1162 21.9298 12.1313 22.0588 12.1313C22.1153 12.1313 22.1679 12.1284 22.2131 12.1234C22.0735 12.1713 21.9686 12.1943 21.8783 12.202C21.763 12.2119 21.6708 12.1971 21.5588 12.1771C21.4458 12.1569 21.2814 12.1519 21.1449 12.1746C21.0767 12.1859 21.0146 12.2043 20.9694 12.2318C20.924 12.2594 20.8941 12.297 20.8941 12.3466C20.8941 12.3979 20.9367 12.4365 21.0009 12.4639C21.0659 12.4917 21.1569 12.51 21.2623 12.5188C21.4734 12.5363 21.7451 12.5162 21.9888 12.456C22.23 12.3964 22.4142 12.4166 22.5376 12.4753C22.6611 12.5341 22.7235 12.6312 22.7235 12.7266C22.7235 12.7689 22.7048 12.8157 22.672 12.8606C22.6392 12.9054 22.5929 12.9477 22.5391 12.9809C22.4311 13.0474 22.2947 13.076 22.1774 13.018L22.1671 13.0342C22.3191 13.1563 22.5087 13.1563 22.6942 13.1563H22.6958L23.0334 13.1362L23.0343 13.136C23.0529 13.131 23.0686 13.1274 23.0819 13.1259C23.0952 13.1244 23.105 13.1252 23.1122 13.1281C23.1248 13.1332 23.1341 13.1471 23.1341 13.1864C23.1325 13.2192 23.1388 13.2519 23.1525 13.2814C23.1623 13.3024 23.1757 13.3212 23.1919 13.337H23.095L23.1195 13.3545C23.1743 13.3936 23.2058 13.4324 23.226 13.478C23.2427 13.5158 23.2519 13.5586 23.2598 13.6114C23.2433 13.5933 23.224 13.5779 23.2049 13.5659C23.1763 13.548 23.1464 13.537 23.1251 13.537H23.0909L23.1201 13.5549C23.1821 13.5928 23.1999 13.6447 23.2114 13.6962C23.213 13.7037 23.2146 13.7113 23.2161 13.7189C23.2198 13.7371 23.2235 13.7553 23.2288 13.7718C23.2328 13.7843 23.2379 13.7964 23.2448 13.8074L23.122 13.7698L23.1356 13.7917C23.167 13.8423 23.1397 13.9311 23.0415 13.9725V13.8666L23.023 13.8625C23.0051 13.9011 22.9783 13.9345 22.9382 13.9583C22.9018 13.98 22.8539 13.9941 22.7906 13.9966C22.7909 13.9959 22.7911 13.9953 22.7914 13.9946C22.7928 13.991 22.7942 13.9873 22.7956 13.9835C22.7983 13.9763 22.8011 13.9687 22.8049 13.9607C22.816 13.9368 22.8322 13.9163 22.8638 13.9163V13.897C22.8241 13.897 22.7803 13.9129 22.7397 13.9385C22.6991 13.964 22.661 13.9997 22.6323 14.0405C22.6059 14.0686 22.5809 14.0766 22.5615 14.0745C22.5419 14.0724 22.5259 14.0598 22.5179 14.0425L22.5173 14.0415C22.509 14.0281 22.5061 14.0152 22.5071 14.003C22.5081 13.9908 22.5131 13.9787 22.5215 13.9674C22.5339 13.9508 22.5534 13.9363 22.5769 13.9259C22.5863 13.9226 22.5959 13.9192 22.6053 13.9159L22.6057 13.9157L22.6 13.8973C22.5896 13.9001 22.5795 13.9036 22.5699 13.9078C22.5522 13.9138 22.535 13.919 22.519 13.9221C22.494 13.927 22.4734 13.9265 22.4577 13.9181C22.4428 13.9101 22.4352 13.8941 22.4371 13.8777C22.4389 13.8617 22.4502 13.8446 22.4751 13.8357L22.4956 13.8284L22.4764 13.8181C22.4592 13.8089 22.4492 13.7978 22.4438 13.7865C22.4384 13.7752 22.4373 13.7629 22.4393 13.7507C22.4435 13.7264 22.4599 13.7045 22.4754 13.6957C22.4916 13.6915 22.5071 13.6926 22.5244 13.6967C22.537 13.6996 22.5499 13.704 22.5647 13.7089C22.5712 13.7111 22.5781 13.7134 22.5855 13.7158C22.633 13.7311 22.6949 13.7464 22.7897 13.7363H22.7898C22.8082 13.7363 22.8386 13.7363 22.8644 13.7198C22.8913 13.7024 22.9108 13.6687 22.9108 13.6066C22.9108 13.5339 22.8816 13.4655 22.8128 13.4234C22.7446 13.3816 22.6391 13.3669 22.4886 13.3971C22.219 13.4469 22.0242 13.4419 21.8739 13.4146C21.7365 13.3897 21.6358 13.3462 21.5482 13.3083C21.5399 13.3047 21.5317 13.3012 21.5236 13.2977L21.518 13.2953L21.5134 13.2994C21.4597 13.3474 21.4062 13.357 21.356 13.3595C21.3445 13.36 21.3332 13.3602 21.322 13.3604L21.3188 13.3604C21.3066 13.3606 21.2946 13.3609 21.2829 13.3617C21.2596 13.3633 21.237 13.3672 21.2166 13.3781C21.1817 13.3968 21.1422 13.397 21.1021 13.397L21.1004 13.397C21.0623 13.397 21.0225 13.397 20.9921 13.4184C20.9756 13.427 20.9567 13.4294 20.935 13.4288C20.92 13.4284 20.9044 13.4266 20.8878 13.4247C20.8797 13.4238 20.8714 13.4229 20.8627 13.422C20.8107 13.4169 20.7517 13.4167 20.6929 13.4588L20.6926 13.459C20.6611 13.4831 20.6335 13.4936 20.6087 13.4971C20.5839 13.5006 20.5613 13.4971 20.5396 13.4922C20.5343 13.491 20.5289 13.4897 20.5236 13.4884C20.5075 13.4844 20.4914 13.4805 20.476 13.4795C20.4545 13.4781 20.4333 13.4823 20.4124 13.4991C20.3756 13.5287 20.3439 13.548 20.3102 13.56C20.2766 13.572 20.2404 13.577 20.1945 13.577H20.1848V13.5866C20.1848 13.6067 20.1848 13.6258 20.1803 13.6472C20.1759 13.6684 20.1671 13.6923 20.149 13.7214C20.0714 13.8377 19.995 13.8825 19.942 13.8939C19.9494 13.8826 19.9538 13.8694 19.9566 13.8561C19.9615 13.8326 19.9615 13.8068 19.9615 13.787V13.7866L19.9433 13.7821C19.9076 13.849 19.8403 13.8879 19.7732 13.9152C19.7464 13.926 19.7201 13.9349 19.6961 13.943C19.69 13.9451 19.6841 13.9471 19.6783 13.949C19.6593 13.9556 19.6417 13.9619 19.6276 13.9687L19.6407 13.8565C19.643 13.8473 19.6441 13.8373 19.6441 13.8266L19.6249 13.8255L19.6217 13.853C19.6183 13.8658 19.6125 13.8764 19.6046 13.8853C19.5918 13.8999 19.5728 13.9105 19.5488 13.918C19.5003 13.9331 19.4342 13.9345 19.3641 13.932C19.3387 13.9311 19.3127 13.9296 19.287 13.9282C19.2428 13.9258 19.1996 13.9234 19.1619 13.9238C19.1319 13.9242 19.1045 13.9262 19.082 13.9315C19.0748 13.9332 19.0679 13.9353 19.0614 13.9379C19.07 13.9277 19.0816 13.917 19.0945 13.9067C19.122 13.8846 19.1541 13.8649 19.1724 13.8551L19.165 13.8374C19.105 13.8557 19.0534 13.8341 19.0005 13.8119C18.9992 13.8113 18.9979 13.8108 18.9965 13.8102C18.9531 13.792 18.9081 13.7739 18.8602 13.7854C18.87 13.7749 18.8812 13.7658 18.8934 13.7583C18.9087 13.7489 18.9252 13.7424 18.9424 13.7389C18.9493 13.7384 18.9566 13.7375 18.9642 13.7361L18.9619 13.717C18.9545 13.7174 18.9471 13.7183 18.9398 13.7198C18.9227 13.721 18.9082 13.7194 18.8953 13.7163C18.8773 13.7119 18.8619 13.7043 18.8457 13.6956C18.8434 13.6944 18.841 13.6931 18.8386 13.6918C18.8081 13.6753 18.7743 13.657 18.7198 13.657C18.6941 13.657 18.6791 13.6479 18.672 13.6365C18.6648 13.625 18.6642 13.6086 18.6726 13.5907C18.6797 13.5754 18.6986 13.5661 18.7262 13.5611C18.7532 13.5563 18.7849 13.5563 18.8131 13.5563H18.8433L18.8188 13.5388C18.7882 13.5169 18.7482 13.5119 18.7121 13.5145C18.6764 13.517 18.6427 13.5271 18.6226 13.5377C18.6002 13.5454 18.5768 13.5336 18.5647 13.514C18.5586 13.5043 18.5559 13.4935 18.5573 13.4832C18.5587 13.4733 18.5641 13.4631 18.5761 13.4545L18.5764 13.4543C18.6017 13.4346 18.6314 13.4226 18.6623 13.4193C18.6716 13.4183 18.6808 13.4181 18.6901 13.4187ZM22.7681 13.9977C22.7681 13.9977 22.7681 13.9977 22.7682 13.9976L22.7681 13.9977ZM19.3023 12.2648C19.3272 12.2712 19.3581 12.2827 19.3954 12.2977L19.4015 12.3001V12.3316L19.3974 12.3345C19.3853 12.3432 19.3745 12.3578 19.3652 12.3768C19.356 12.3957 19.3486 12.4181 19.3429 12.4414C19.3314 12.4881 19.3268 12.5374 19.3268 12.5666V12.5911L19.3101 12.5732C19.2909 12.5527 19.2672 12.5221 19.2481 12.4889C19.2293 12.4562 19.2143 12.4197 19.2141 12.3873C19.2095 12.3524 19.2082 12.3252 19.2117 12.305C19.2152 12.2843 19.2242 12.2693 19.2413 12.2626C19.2572 12.2564 19.2779 12.2585 19.3023 12.2648ZM19.2307 12.3083C19.2278 12.3255 19.2287 12.3505 19.2334 12.3853L19.2335 12.386V12.3866C19.2335 12.4141 19.2464 12.4472 19.2648 12.4793C19.2781 12.5024 19.2937 12.5242 19.3083 12.5418C19.3101 12.5121 19.315 12.4737 19.3241 12.4368C19.33 12.4127 19.3378 12.3888 19.3478 12.3683C19.3569 12.3497 19.3682 12.3332 19.3821 12.3219V12.3132C19.3476 12.2994 19.3198 12.2892 19.2975 12.2835C19.2736 12.2773 19.2581 12.2768 19.2483 12.2806C19.2398 12.2839 19.2336 12.2914 19.2307 12.3083Z" fill="black"/>
<path d="M19.8965 12.3266C20.0458 12.2466 20.1018 12.2466 20.0645 12.3866C20.0645 12.4466 20.0085 12.5266 19.9711 12.5666C19.9711 12.5066 19.9712 12.3666 19.8965 12.3266Z" fill="#F9DD16"/>
<path fill-rule="evenodd" clip-rule="evenodd" d="M19.9154 12.3276C19.9471 12.3524 19.963 12.3952 19.9712 12.4373C19.9784 12.4739 19.9802 12.5118 19.9806 12.541C19.995 12.5235 20.0104 12.502 20.0234 12.4793C20.0418 12.4473 20.0548 12.4141 20.0548 12.3867V12.3854L20.0551 12.3842C20.0644 12.3494 20.0674 12.3247 20.0653 12.3082C20.0643 12.3001 20.0621 12.2945 20.0593 12.2909C20.0567 12.2873 20.053 12.2849 20.0479 12.2835C20.037 12.2805 20.0196 12.2827 19.9942 12.2917C19.9725 12.2994 19.9463 12.3115 19.9154 12.3276ZM20.0741 12.3879C20.0833 12.3532 20.0871 12.3259 20.0845 12.3058C20.0832 12.2954 20.0802 12.2864 20.0748 12.2792C20.0693 12.2719 20.0618 12.2672 20.0529 12.2648C20.0359 12.2603 20.0137 12.2643 19.9877 12.2735C19.9614 12.2828 19.9293 12.2981 19.8919 12.3181L19.876 12.3267L19.8919 12.3352C19.9251 12.353 19.9431 12.394 19.9523 12.441C19.9614 12.4875 19.9614 12.5366 19.9614 12.5667V12.5912L19.9782 12.5732C19.9973 12.5528 20.0211 12.5222 20.0401 12.489C20.0588 12.4565 20.0737 12.4202 20.0741 12.3879Z" fill="black"/>
<path d="M19.6534 12.2267C19.9521 12.2267 19.9894 12.3867 19.9707 12.5667C19.9707 12.7667 19.8774 12.6867 19.8214 12.9667C19.8027 13.0467 19.7281 13.0667 19.6347 13.0667C19.5787 13.0667 19.5041 13.0667 19.4667 12.9467C19.4107 12.6867 19.3174 12.7467 19.3174 12.5467C19.3174 12.3867 19.3547 12.2267 19.6534 12.2267Z" fill="#F9DD16"/>
<path fill-rule="evenodd" clip-rule="evenodd" d="M19.3809 12.3325C19.3364 12.3898 19.3269 12.4669 19.3269 12.5466C19.3269 12.5958 19.3327 12.6284 19.3418 12.6536C19.351 12.6788 19.3637 12.6972 19.3788 12.7185C19.3796 12.7195 19.3803 12.7206 19.3811 12.7216C19.3957 12.742 19.4122 12.7651 19.4283 12.7983C19.4453 12.8331 19.4618 12.8787 19.476 12.9441C19.494 13.002 19.5205 13.0294 19.5479 13.0429C19.5759 13.0568 19.6063 13.0569 19.6346 13.0569C19.6808 13.0569 19.7212 13.0519 19.7519 13.0378C19.782 13.024 19.8032 13.0013 19.8118 12.9645C19.8259 12.894 19.8425 12.8458 19.8595 12.8099C19.8766 12.774 19.894 12.7509 19.9092 12.7307L19.9097 12.7302C19.9247 12.7103 19.9372 12.6939 19.9461 12.6706C19.9552 12.6471 19.961 12.6159 19.961 12.5666V12.5656L19.961 12.5656C19.9703 12.476 19.9652 12.3941 19.9231 12.3347C19.8813 12.2758 19.8011 12.2362 19.6533 12.2362C19.5056 12.2362 19.425 12.2758 19.3809 12.3325ZM19.3657 12.3206C19.4149 12.2574 19.5023 12.2169 19.6533 12.2169C19.8041 12.2169 19.8919 12.2574 19.9388 12.3235C19.9852 12.3889 19.9896 12.4768 19.9803 12.5671C19.9802 12.6175 19.9743 12.6512 19.9642 12.6776C19.9542 12.7035 19.9403 12.7218 19.9256 12.7412L19.9246 12.7424C19.9096 12.7623 19.8931 12.7842 19.877 12.8182C19.8608 12.8524 19.8446 12.8991 19.8308 12.9685L19.8307 12.9688L19.8307 12.9688C19.8206 13.0119 19.7951 13.0392 19.76 13.0554C19.7254 13.0712 19.6817 13.0762 19.6346 13.0762H19.6339C19.6063 13.0762 19.5717 13.0762 19.5393 13.0602C19.5061 13.0438 19.4766 13.0113 19.4574 12.9494L19.4571 12.9486L19.4572 12.9486C19.4433 12.8842 19.4272 12.84 19.411 12.8068C19.3955 12.7751 19.3798 12.7531 19.3652 12.7327C19.3645 12.7317 19.3638 12.7307 19.3631 12.7297C19.3479 12.7084 19.3338 12.6881 19.3237 12.6602C19.3135 12.6323 19.3076 12.5973 19.3076 12.5466C19.3076 12.4663 19.3169 12.3834 19.3657 12.3206Z" fill="black"/>
<path d="M18.8881 12.9667C18.8134 12.9267 18.7574 12.9667 18.7201 12.9667C18.8321 12.9867 18.8321 13.1267 19.0561 13.1667C19.0001 13.1667 18.9814 13.2067 18.9254 13.1667C19.0188 13.2467 19.1121 13.3467 19.3361 13.3467C19.4668 13.3467 19.3734 13.4067 19.2988 13.3667C19.3734 13.4667 19.5414 13.3867 19.6534 13.5667C19.6534 13.4267 19.4668 13.2267 19.5601 13.0867C19.2428 13.0667 19.2241 12.8867 19.0561 12.7467C18.9068 12.6267 18.8881 12.5067 18.8321 12.2867C18.8134 12.1867 18.7014 12.1267 18.6454 12.1467C18.5894 12.1467 18.5521 12.2067 18.6081 12.2467C18.6454 12.2867 18.7201 12.2867 18.7201 12.3867C18.6641 12.3067 18.5708 12.2867 18.5334 12.3267C18.5148 12.3667 18.5334 12.4267 18.5708 12.4267C18.6641 12.4267 18.6081 12.5467 18.7014 12.6267C18.6081 12.5267 18.5334 12.5067 18.4774 12.5667C18.4588 12.6067 18.4774 12.6667 18.5521 12.6667C18.6454 12.6667 18.7388 12.9067 18.8881 12.9667ZM21.3148 13.8867C21.2774 13.8867 21.2961 13.9867 21.2214 13.9867C21.3708 13.9867 21.4641 13.9467 21.5201 13.8867L21.4828 13.9867C21.5574 13.9267 21.7628 13.9067 21.8561 13.9267C21.9494 13.9467 21.9681 13.9067 22.0054 13.8467C22.0428 13.7667 22.0054 13.7267 21.9494 13.6867C21.8934 13.6267 21.8748 13.5467 21.8934 13.4267C21.6321 13.0267 21.1468 13.2267 21.1468 13.3867C21.3148 13.6067 21.3334 13.5867 21.4828 13.6067C21.6134 13.6467 21.7068 13.6467 21.6134 13.7267C21.5761 13.7667 21.4268 13.7267 21.3334 13.7467C21.0908 13.7467 20.9601 13.5667 20.9041 13.6667C20.8481 13.7467 20.9041 13.7867 21.0161 13.7867C20.9414 13.7867 20.8294 13.7867 20.8481 13.8667C20.8854 14.0067 20.9974 13.8467 21.0534 13.8867C21.0161 13.8867 20.9414 13.9067 20.9414 13.9467C20.9414 13.9867 21.0348 14.0467 21.1281 13.9467C21.1823 13.9049 21.248 13.8837 21.3148 13.8867Z" fill="#F9DD16"/>
<path fill-rule="evenodd" clip-rule="evenodd" d="M18.8414 12.2846C18.8462 12.3034 18.8507 12.3215 18.8551 12.3388C18.9016 12.5251 18.9282 12.6316 19.062 12.7391L19.0622 12.7392C19.1049 12.7748 19.138 12.8129 19.1685 12.8499C19.1743 12.8571 19.1801 12.8642 19.1858 12.8712C19.2098 12.9007 19.2328 12.9289 19.2588 12.9548C19.3225 13.0181 19.4042 13.0672 19.5606 13.077L19.5773 13.0781L19.568 13.092C19.5245 13.1574 19.5455 13.2377 19.5806 13.323C19.5884 13.3421 19.5969 13.3611 19.6053 13.3801C19.6062 13.3822 19.6071 13.3842 19.608 13.3863C19.6173 13.4073 19.6265 13.4282 19.6346 13.4487C19.6507 13.4896 19.663 13.5298 19.663 13.5667V13.6005L19.6451 13.5718C19.591 13.4849 19.5239 13.4608 19.4598 13.4461C19.4503 13.4439 19.4406 13.4419 19.431 13.4399C19.4088 13.4352 19.3867 13.4306 19.3668 13.424C19.3376 13.4142 19.3112 13.3995 19.2909 13.3725L19.3032 13.3582C19.3203 13.3673 19.3385 13.3708 19.3544 13.3708C19.3705 13.3708 19.3832 13.3672 19.3893 13.3634C19.3895 13.3633 19.3896 13.3632 19.3898 13.3631C19.3868 13.3617 19.3816 13.36 19.3735 13.3587C19.3643 13.3573 19.352 13.3563 19.336 13.3563C19.2224 13.3563 19.1415 13.3309 19.077 13.2951C19.0237 13.2655 18.9818 13.2289 18.9427 13.1946C18.9347 13.1876 18.9269 13.1807 18.919 13.174L18.9309 13.1588C18.9441 13.1682 18.9545 13.1725 18.9632 13.174C18.9718 13.1756 18.9797 13.1746 18.9882 13.1723C18.9923 13.1712 18.9969 13.1697 19.0018 13.168C19.0039 13.1673 19.006 13.1665 19.0082 13.1658C18.9235 13.1425 18.876 13.1032 18.8391 13.066C18.8315 13.0583 18.8245 13.0508 18.8179 13.0438C18.8055 13.0306 18.7942 13.0186 18.7819 13.0081C18.7636 12.9923 18.7441 12.9808 18.7183 12.9762L18.72 12.957C18.7279 12.957 18.7372 12.9549 18.749 12.9517C18.7508 12.9512 18.7527 12.9507 18.7547 12.9502C18.7648 12.9474 18.7761 12.9443 18.7883 12.9422C18.7988 12.9403 18.8101 12.9391 18.8219 12.9393C18.8069 12.9278 18.7926 12.915 18.7788 12.9013C18.7471 12.8699 18.7182 12.8339 18.6914 12.8002C18.6904 12.7988 18.6893 12.7975 18.6882 12.7961C18.6625 12.7638 18.6389 12.734 18.6162 12.7121C18.5922 12.6889 18.5713 12.6763 18.552 12.6763C18.5118 12.6763 18.485 12.66 18.4713 12.6365C18.4579 12.6136 18.458 12.5852 18.4686 12.5626L18.4692 12.5612L18.4703 12.5601C18.4852 12.5441 18.5018 12.533 18.52 12.5274C18.5383 12.5218 18.5577 12.5219 18.5778 12.5273C18.599 12.533 18.6211 12.5445 18.6442 12.5615C18.6365 12.542 18.6321 12.5228 18.6282 12.5058C18.6277 12.5035 18.6271 12.5011 18.6266 12.4989C18.6218 12.4785 18.6175 12.4631 18.6096 12.4525C18.6024 12.4428 18.5915 12.4363 18.5707 12.4363C18.546 12.4363 18.5295 12.4166 18.5219 12.3949C18.5142 12.3728 18.514 12.3452 18.5246 12.3226L18.5252 12.3212L18.5263 12.3201C18.5484 12.2964 18.5855 12.2919 18.6223 12.3024C18.6514 12.3107 18.6816 12.3286 18.7073 12.3558C18.7054 12.3469 18.7026 12.3392 18.6992 12.3327C18.6924 12.3196 18.6831 12.31 18.6722 12.3019C18.6634 12.2953 18.654 12.2899 18.6442 12.2842C18.6416 12.2827 18.639 12.2812 18.6364 12.2797C18.6243 12.2726 18.6118 12.2647 18.6016 12.254C18.5867 12.2431 18.5773 12.2305 18.5731 12.217C18.5688 12.2033 18.5703 12.1896 18.5759 12.1776C18.5868 12.1542 18.6131 12.1376 18.6437 12.137C18.6596 12.1318 18.6785 12.1321 18.6977 12.1366C18.7176 12.1413 18.7385 12.1506 18.758 12.1636C18.7969 12.1897 18.8314 12.2316 18.8414 12.2846ZM18.6733 12.6119C18.6796 12.6195 18.6868 12.6269 18.695 12.634L18.7084 12.6201C18.7014 12.6125 18.6944 12.6054 18.6875 12.5987C18.6623 12.5676 18.6542 12.5326 18.6469 12.5008C18.6464 12.4987 18.6459 12.4966 18.6454 12.4945C18.6408 12.4748 18.6358 12.4553 18.6251 12.4409C18.6136 12.4255 18.5965 12.417 18.5707 12.417C18.558 12.417 18.5465 12.4068 18.5401 12.3885C18.534 12.371 18.534 12.3494 18.5414 12.3322C18.5569 12.3167 18.5846 12.3117 18.617 12.321C18.6498 12.3303 18.6853 12.3539 18.7121 12.3922L18.7297 12.4173V12.3867C18.7297 12.3604 18.7248 12.3401 18.7163 12.3238C18.7079 12.3075 18.6963 12.2958 18.6838 12.2864C18.674 12.2791 18.6633 12.2729 18.6533 12.2672C18.6509 12.2658 18.6485 12.2644 18.6461 12.263C18.634 12.2559 18.6234 12.249 18.6151 12.2401L18.6144 12.2394L18.6136 12.2388C18.601 12.2298 18.5943 12.2201 18.5916 12.2113C18.5888 12.2025 18.5897 12.1937 18.5934 12.1858C18.601 12.1696 18.6206 12.1563 18.6453 12.1563H18.647L18.6486 12.1558C18.6603 12.1516 18.6758 12.1513 18.6933 12.1555C18.7107 12.1595 18.7295 12.1678 18.7473 12.1797C18.783 12.2036 18.8137 12.2416 18.8225 12.2884L18.8226 12.2891C18.8275 12.3082 18.8321 12.3265 18.8365 12.3442C18.8828 12.5297 18.9109 12.6424 19.0499 12.7541C19.0911 12.7885 19.1233 12.8255 19.1535 12.8622C19.1593 12.8691 19.1649 12.8761 19.1706 12.8831C19.1946 12.9126 19.2184 12.9418 19.2452 12.9685C19.31 13.033 19.3927 13.0828 19.5437 13.0952C19.5054 13.1669 19.53 13.2508 19.5627 13.3304C19.5707 13.3497 19.5792 13.369 19.5876 13.388C19.5885 13.39 19.5895 13.3921 19.5904 13.3941C19.5997 13.4151 19.6087 13.4357 19.6166 13.4558C19.627 13.4822 19.6354 13.5072 19.6399 13.5307C19.5861 13.4624 19.5227 13.4407 19.4642 13.4273C19.4537 13.4248 19.4435 13.4227 19.4337 13.4207C19.412 13.4162 19.3918 13.412 19.3729 13.4056C19.3597 13.4012 19.3476 13.3959 19.3366 13.3889C19.3427 13.3897 19.3487 13.3901 19.3544 13.3901C19.3726 13.3901 19.3892 13.3862 19.3994 13.3799C19.4041 13.377 19.4098 13.3722 19.4109 13.3649C19.4121 13.3564 19.4063 13.3504 19.4007 13.3471C19.3949 13.3437 19.3868 13.3413 19.3765 13.3396C19.366 13.338 19.3527 13.337 19.336 13.337C19.2256 13.337 19.1479 13.3124 19.0864 13.2782C19.0419 13.2535 19.0058 13.2239 18.9716 13.1941C18.9792 13.1941 18.9863 13.1928 18.9932 13.191C18.9993 13.1893 19.005 13.1874 19.0107 13.1855C19.0242 13.1808 19.0374 13.1763 19.056 13.1763L19.0577 13.1572C18.9481 13.1376 18.8938 13.0938 18.8529 13.0524C18.8461 13.0455 18.8395 13.0385 18.8329 13.0316C18.8201 13.0179 18.8076 13.0046 18.7945 12.9934C18.7836 12.9839 18.7718 12.9756 18.7586 12.9691C18.759 12.969 18.7595 12.9689 18.76 12.9688C18.77 12.966 18.7805 12.9632 18.7917 12.9612C18.8135 12.9573 18.838 12.9566 18.8654 12.967C18.8716 12.9702 18.878 12.9731 18.8844 12.9756L18.888 12.9667L18.8926 12.9582C18.886 12.9546 18.8796 12.9517 18.8733 12.9493C18.8446 12.9345 18.8178 12.9128 18.7924 12.8876C18.7617 12.8571 18.7334 12.822 18.7066 12.7882C18.7054 12.7866 18.7041 12.7851 18.7029 12.7836C18.6776 12.7517 18.6532 12.7211 18.6296 12.6982C18.6051 12.6745 18.5794 12.657 18.552 12.657C18.5175 12.657 18.4977 12.6433 18.488 12.6268C18.4783 12.6102 18.478 12.5893 18.4855 12.5721C18.4982 12.5588 18.5116 12.5502 18.5257 12.5459C18.54 12.5415 18.5557 12.5414 18.5728 12.546C18.6022 12.5539 18.6357 12.5754 18.6733 12.6119ZM21.4208 13.1871C21.578 13.1667 21.7685 13.2179 21.9014 13.4214L21.9034 13.4245L21.9029 13.4282C21.8845 13.546 21.903 13.6224 21.9557 13.6794C21.9835 13.6993 22.0084 13.7204 22.0211 13.7476C22.0343 13.7759 22.0336 13.8089 22.0141 13.8508L22.0136 13.8518C22.0116 13.8549 22.0097 13.858 22.0078 13.8611C22.0008 13.8724 21.9941 13.8833 21.9872 13.8929C21.9785 13.9052 21.969 13.9162 21.9573 13.9245C21.9332 13.9417 21.902 13.9464 21.854 13.9361C21.8088 13.9264 21.7354 13.9263 21.6637 13.9362C21.6279 13.9412 21.5929 13.9486 21.5623 13.9584C21.5316 13.9682 21.5061 13.9803 21.4887 13.9942L21.4613 14.0162L21.4969 13.9208C21.4373 13.9675 21.3488 13.9963 21.2213 13.9963V13.977C21.2375 13.977 21.2479 13.9717 21.2553 13.9642C21.2631 13.9564 21.2684 13.9455 21.2729 13.9333C21.2745 13.9291 21.2759 13.9251 21.2773 13.921C21.2779 13.919 21.2786 13.9171 21.2793 13.9151C21.2813 13.9092 21.2836 13.9033 21.2862 13.898C21.2864 13.8975 21.2867 13.897 21.2869 13.8965C21.2323 13.8997 21.1794 13.9194 21.1345 13.9539C21.0861 14.0054 21.0364 14.0169 20.9976 14.0086C20.9785 14.0045 20.9623 13.9956 20.9507 13.9846C20.9394 13.9739 20.9317 13.9603 20.9317 13.9467C20.9317 13.9397 20.9334 13.9334 20.9363 13.9276C20.9195 13.934 20.9016 13.9377 20.885 13.9324C20.8637 13.9256 20.8483 13.9054 20.8387 13.8692L20.8386 13.8689C20.8334 13.8466 20.8371 13.8284 20.8483 13.8144C20.8592 13.8009 20.876 13.7926 20.8943 13.7874C20.9024 13.7851 20.9111 13.7833 20.9201 13.7819C20.9083 13.7772 20.8982 13.7711 20.8903 13.7637C20.8779 13.7518 20.8714 13.7365 20.8725 13.7186C20.8735 13.7012 20.8814 13.6822 20.8958 13.6615C20.9035 13.648 20.9128 13.6384 20.9243 13.6327C20.9358 13.627 20.9485 13.6258 20.9617 13.6274C20.9875 13.6304 21.0182 13.6444 21.0527 13.6604C21.0546 13.6613 21.0564 13.6621 21.0583 13.663C21.1275 13.6952 21.217 13.7368 21.3323 13.737C21.3741 13.7283 21.4263 13.731 21.4737 13.7335C21.4809 13.7338 21.4879 13.7342 21.4948 13.7345C21.5216 13.7358 21.546 13.7364 21.5659 13.7343C21.5863 13.7321 21.5995 13.7274 21.6063 13.7201L21.607 13.7193C21.6184 13.7095 21.6267 13.7013 21.6323 13.6942C21.638 13.687 21.6404 13.6817 21.6412 13.6779C21.6418 13.6746 21.6412 13.6721 21.6395 13.6696C21.6376 13.6668 21.6338 13.6636 21.6274 13.6602C21.6146 13.6533 21.5947 13.6473 21.5688 13.6404C21.5627 13.6387 21.5563 13.6371 21.5497 13.6353C21.5288 13.6298 21.5053 13.6237 21.4806 13.6161C21.4665 13.6143 21.4535 13.6127 21.4413 13.6113C21.3906 13.6054 21.3542 13.6011 21.3169 13.5801C21.2706 13.554 21.2228 13.5023 21.139 13.3925L21.137 13.3899V13.3867C21.137 13.3419 21.1705 13.2969 21.221 13.2613C21.272 13.2253 21.3423 13.1973 21.4208 13.1871ZM21.016 13.777V13.7963C20.9782 13.7963 20.9331 13.7964 20.8997 13.806C20.883 13.8107 20.8706 13.8175 20.8634 13.8265C20.8566 13.835 20.8533 13.8467 20.8574 13.8643C20.8664 13.898 20.879 13.9102 20.8909 13.914C20.9038 13.9181 20.92 13.9141 20.9398 13.9053C20.9478 13.9018 20.9559 13.8977 20.9643 13.8935C20.9659 13.8927 20.9676 13.8919 20.9693 13.891C20.9792 13.8861 20.9895 13.8811 20.9994 13.8773C21.0189 13.8699 21.0407 13.8658 21.0589 13.8788L21.0835 13.8963H21.0533C21.036 13.8963 21.0093 13.9011 20.9871 13.9106C20.9761 13.9153 20.9668 13.9209 20.9604 13.9273C20.954 13.9335 20.951 13.94 20.951 13.9467C20.951 13.9531 20.9549 13.962 20.964 13.9706C20.9729 13.979 20.9859 13.9863 21.0017 13.9897C21.0328 13.9964 21.0762 13.988 21.1209 13.9401L21.1215 13.9395L21.1221 13.939C21.1781 13.8959 21.246 13.874 21.3151 13.877L21.3147 13.8867V13.8963C21.311 13.8963 21.3077 13.8982 21.3035 13.9066C21.3014 13.9107 21.2996 13.9157 21.2975 13.9215C21.2969 13.9232 21.2963 13.925 21.2957 13.9269C21.2942 13.9311 21.2927 13.9356 21.291 13.9401C21.2866 13.9519 21.2808 13.9649 21.2714 13.9754C21.3899 13.9674 21.4657 13.9307 21.5129 13.8801L21.529 13.8901L21.502 13.9625C21.518 13.9539 21.5365 13.9464 21.5564 13.94C21.5883 13.9298 21.6244 13.9222 21.661 13.9171C21.7339 13.907 21.8098 13.9069 21.858 13.9172C21.9033 13.9269 21.9281 13.9216 21.946 13.9088C21.9553 13.9022 21.9633 13.8931 21.9715 13.8817C21.9779 13.8727 21.9842 13.8625 21.9911 13.8513C21.993 13.8483 21.9949 13.8452 21.9968 13.8421C22.0144 13.8042 22.0137 13.7774 22.0036 13.7558C21.9931 13.7332 21.9716 13.7145 21.9437 13.6945L21.9429 13.694L21.9423 13.6933C21.8841 13.6309 21.8652 13.5485 21.8832 13.4289C21.7549 13.2349 21.5732 13.1868 21.4232 13.2063C21.3477 13.2161 21.2803 13.243 21.2322 13.2771C21.1849 13.3104 21.158 13.349 21.1564 13.3835C21.2393 13.4918 21.2844 13.5396 21.3264 13.5633C21.3601 13.5822 21.3918 13.586 21.4418 13.5919C21.4546 13.5934 21.4685 13.595 21.4839 13.5971L21.4847 13.5972L21.4855 13.5974C21.5101 13.605 21.5333 13.611 21.5543 13.6166C21.5611 13.6183 21.5676 13.62 21.5738 13.6217C21.5993 13.6285 21.6214 13.635 21.6366 13.6432C21.6442 13.6472 21.6509 13.6522 21.6554 13.6586C21.6601 13.6653 21.6618 13.6732 21.6601 13.6817C21.6586 13.6897 21.654 13.6979 21.6474 13.7062C21.6409 13.7145 21.6317 13.7236 21.62 13.7337C21.6081 13.7461 21.5888 13.7513 21.568 13.7535C21.5464 13.7557 21.5207 13.7551 21.4939 13.7538C21.4868 13.7535 21.4796 13.7531 21.4724 13.7528C21.4243 13.7503 21.3746 13.7477 21.3354 13.7561L21.3344 13.7563H21.3333C21.2132 13.7563 21.12 13.713 21.0507 13.6808C21.0487 13.6798 21.0466 13.6789 21.0446 13.6779C21.0091 13.6615 20.9815 13.6492 20.9595 13.6466C20.9488 13.6453 20.9401 13.6465 20.9329 13.6501C20.9256 13.6536 20.9187 13.6601 20.9124 13.6714L20.912 13.6722C20.8985 13.6915 20.8925 13.7072 20.8918 13.7197C20.8911 13.7318 20.8951 13.7416 20.9037 13.7497C20.9125 13.7581 20.9265 13.765 20.9457 13.7698C20.9648 13.7746 20.9885 13.777 21.016 13.777Z" fill="black"/>
<path fill-rule="evenodd" clip-rule="evenodd" d="M19.8229 12.4695C19.8353 12.4738 19.8468 12.477 19.8591 12.477V12.4964C19.8434 12.4964 19.8293 12.4922 19.8166 12.4877C19.8137 12.4867 19.8109 12.4857 19.8081 12.4847C19.7984 12.4812 19.7896 12.478 19.7803 12.4762C19.7688 12.474 19.7573 12.474 19.7444 12.4789C19.7353 12.4823 19.7251 12.4884 19.7135 12.4984C19.7171 12.5003 19.7208 12.5027 19.7243 12.505C19.7246 12.5052 19.725 12.5054 19.7253 12.5056C19.7294 12.5083 19.7334 12.5109 19.7377 12.5132C19.7462 12.5178 19.7547 12.5206 19.7636 12.5196C19.7724 12.5187 19.7832 12.5139 19.7961 12.5001L19.8102 12.5133C19.7951 12.5295 19.7802 12.5372 19.7657 12.5388C19.7512 12.5404 19.7387 12.5356 19.7286 12.5302C19.7235 12.5275 19.7188 12.5245 19.7147 12.5218C19.7145 12.5217 19.7142 12.5215 19.714 12.5213C19.7101 12.5188 19.7069 12.5168 19.7041 12.5152C19.7027 12.5145 19.7016 12.514 19.7008 12.5137V12.5661C19.7043 12.5925 19.7085 12.6159 19.7123 12.6368C19.7134 12.6432 19.7145 12.6494 19.7155 12.6554C19.7199 12.6805 19.723 12.7023 19.7218 12.7199C19.7205 12.738 19.7143 12.7532 19.699 12.7632C19.6846 12.7726 19.6636 12.7764 19.6351 12.7764C19.6113 12.7764 19.5932 12.7726 19.5811 12.7626C19.5685 12.752 19.5648 12.7366 19.5648 12.7192C19.5648 12.7019 19.5685 12.6804 19.5731 12.6553C19.5737 12.6521 19.5743 12.6489 19.5749 12.6456C19.5792 12.6226 19.5841 12.5962 19.5881 12.5661V12.5137C19.5873 12.514 19.5862 12.5145 19.5849 12.5152C19.582 12.5168 19.5788 12.5188 19.5749 12.5213C19.5747 12.5215 19.5744 12.5217 19.5742 12.5218C19.5701 12.5245 19.5654 12.5275 19.5604 12.5302C19.5502 12.5356 19.5377 12.5404 19.5233 12.5388C19.5087 12.5372 19.4939 12.5295 19.4787 12.5133L19.4929 12.5001C19.5058 12.5139 19.5166 12.5187 19.5253 12.5196C19.5342 12.5206 19.5427 12.5178 19.5512 12.5132C19.5555 12.5109 19.5596 12.5083 19.5637 12.5056C19.564 12.5054 19.5643 12.5052 19.5646 12.505C19.5681 12.5028 19.5717 12.5004 19.5752 12.4985C19.564 12.4892 19.5541 12.4842 19.5454 12.4816C19.533 12.4779 19.522 12.4788 19.5112 12.4812C19.5074 12.482 19.5038 12.4829 19.5002 12.4838C19.4984 12.4843 19.4966 12.4848 19.4948 12.4852C19.4893 12.4866 19.4835 12.4879 19.4777 12.4882C19.4717 12.4886 19.4654 12.4881 19.4591 12.4857C19.4528 12.4833 19.4469 12.4792 19.4414 12.4733L19.4555 12.4601C19.4593 12.4642 19.4628 12.4664 19.466 12.4676C19.4691 12.4688 19.4725 12.4692 19.4764 12.4689C19.4805 12.4687 19.4849 12.4678 19.4901 12.4665C19.4916 12.4661 19.4932 12.4657 19.4948 12.4653C19.4987 12.4643 19.5029 12.4632 19.5071 12.4623C19.5196 12.4596 19.5343 12.4581 19.551 12.4631C19.5677 12.4681 19.5854 12.4792 19.6049 12.5001L19.5978 12.5067H19.6075V12.5673L19.6074 12.568C19.6033 12.5989 19.5982 12.626 19.5939 12.6492C19.5933 12.6525 19.5927 12.6557 19.5921 12.6588C19.5874 12.6843 19.5841 12.704 19.5841 12.7192C19.5841 12.7343 19.5874 12.7426 19.5935 12.7477C19.6001 12.7533 19.6123 12.757 19.6351 12.757C19.6627 12.757 19.679 12.7533 19.6885 12.7471C19.6971 12.7414 19.7015 12.7329 19.7025 12.7185C19.7036 12.7036 19.7009 12.6841 19.6965 12.6587C19.6955 12.6529 19.6944 12.6468 19.6933 12.6405C19.6895 12.6193 19.6852 12.5951 19.6816 12.568L19.6815 12.5673V12.5067H19.6911L19.6841 12.5001C19.7034 12.4794 19.7209 12.4671 19.7376 12.4608C19.7545 12.4544 19.7698 12.4545 19.784 12.4572C19.7949 12.4593 19.8056 12.4632 19.8155 12.4668C19.818 12.4677 19.8205 12.4686 19.8229 12.4695ZM21.2571 13.2573C21.353 13.2367 21.4487 13.2573 21.525 13.2982L21.5159 13.3152C21.4429 13.2761 21.3519 13.2567 21.2612 13.2762L21.2571 13.2573ZM20.1598 13.4572C20.1574 13.4054 20.1671 13.3438 20.205 13.2626L20.2226 13.2708C20.1858 13.3496 20.1769 13.408 20.1791 13.4563C20.1808 13.4928 20.1889 13.5235 20.1968 13.5539C20.1995 13.5641 20.2021 13.5742 20.2045 13.5845L20.1857 13.5889C20.1835 13.5795 20.181 13.5699 20.1785 13.5601C20.1704 13.5293 20.1616 13.496 20.1598 13.4572Z" fill="black"/>
<path d="M19.6533 13.0067C19.728 13.0067 19.7653 13.0067 19.7653 12.8867C19.7653 12.8467 19.8213 12.8267 19.784 12.7467C19.8213 12.8267 19.6533 12.8267 19.6533 12.7867C19.6533 12.8267 19.4666 12.8267 19.504 12.7467C19.4853 12.8267 19.5413 12.8467 19.5226 12.8867C19.5226 13.0067 19.56 13.0067 19.6533 13.0067Z" fill="#FF0016"/>
<path fill-rule="evenodd" clip-rule="evenodd" d="M19.6405 12.7919C19.6442 12.7892 19.6445 12.7874 19.6445 12.7866H19.6638C19.6638 12.7878 19.6644 12.7897 19.6674 12.7922C19.6706 12.7947 19.6756 12.7972 19.6825 12.7992C19.6962 12.8032 19.7147 12.8044 19.7322 12.8021C19.75 12.7997 19.765 12.7939 19.7733 12.7855C19.7773 12.7815 19.7797 12.7769 19.7804 12.7717C19.7811 12.7664 19.7802 12.7595 19.7761 12.7507L19.7936 12.7426C19.8034 12.7635 19.8073 12.7812 19.8073 12.7966C19.8073 12.8122 19.8033 12.8248 19.7983 12.8357C19.7957 12.8411 19.7929 12.8461 19.7903 12.8507C19.7896 12.8519 19.789 12.853 19.7883 12.8541C19.7864 12.8574 19.7845 12.8605 19.7829 12.8637C19.7785 12.8719 19.7758 12.879 19.7758 12.8866C19.7758 12.9466 19.7668 12.9811 19.7442 12.9992C19.733 13.0082 19.7193 13.0123 19.7044 13.0143C19.6898 13.0163 19.6729 13.0163 19.6547 13.0163H19.6537C19.6307 13.0163 19.6105 13.0163 19.5933 13.0144C19.576 13.0124 19.5607 13.0084 19.5482 12.9995C19.5229 12.9814 19.5138 12.9465 19.5138 12.8866V12.8845L19.5147 12.8826C19.5211 12.8689 19.5166 12.8593 19.5081 12.8414C19.5072 12.8396 19.5063 12.8377 19.5054 12.8357C19.4982 12.8204 19.4909 12.8017 19.4913 12.7761C19.4912 12.7757 19.4911 12.7753 19.4911 12.7749C19.489 12.7648 19.4908 12.754 19.4961 12.7426L19.5142 12.7488C19.5121 12.7579 19.511 12.7662 19.5107 12.7737C19.5121 12.7778 19.5147 12.7815 19.5187 12.785C19.5288 12.7937 19.5464 12.7996 19.5666 12.802C19.5866 12.8044 19.6076 12.8032 19.6232 12.7992C19.631 12.7971 19.6369 12.7946 19.6405 12.7919ZM19.788 12.7981C19.7877 12.7984 19.7874 12.7987 19.787 12.7991C19.7743 12.8119 19.7543 12.8186 19.7348 12.8212C19.715 12.8239 19.6938 12.8226 19.6772 12.8178C19.6689 12.8154 19.6611 12.812 19.6552 12.8072C19.6547 12.8068 19.6543 12.8064 19.6538 12.806C19.6532 12.8065 19.6526 12.807 19.6519 12.8075C19.6455 12.8122 19.6371 12.8155 19.628 12.8179C19.6098 12.8226 19.5864 12.8239 19.5644 12.8212C19.5465 12.8191 19.5283 12.8143 19.5144 12.8057C19.5167 12.8137 19.5198 12.8209 19.5229 12.8276C19.5238 12.8295 19.5248 12.8314 19.5257 12.8334C19.5336 12.8496 19.5421 12.8673 19.5332 12.8887C19.5334 12.9473 19.543 12.972 19.5594 12.9838C19.568 12.9899 19.5795 12.9934 19.5955 12.9952C19.6114 12.997 19.6307 12.997 19.6542 12.997C19.673 12.997 19.6887 12.997 19.7019 12.9952C19.715 12.9934 19.7247 12.9901 19.7321 12.9841C19.7469 12.9722 19.7565 12.9467 19.7565 12.8866C19.7565 12.8743 19.7609 12.8639 19.7658 12.8546C19.7677 12.8511 19.7698 12.8475 19.7718 12.8441C19.7724 12.843 19.773 12.842 19.7736 12.841C19.7761 12.8365 19.7786 12.8322 19.7807 12.8276C19.7848 12.8188 19.7878 12.8094 19.788 12.7981Z" fill="black"/>
<path d="M19.5607 12.7667L19.374 12.7067L19.5607 12.7667ZM19.5607 12.7667H19.374H19.5607ZM19.5607 12.7867L19.3927 12.8467L19.5607 12.7867ZM19.71 12.7667L19.8967 12.7067L19.71 12.7667ZM19.71 12.7667H19.934H19.71ZM19.71 12.7867L19.8967 12.8467L19.71 12.7867Z" fill="black"/>
<path fill-rule="evenodd" clip-rule="evenodd" d="M19.377 12.6975L19.5637 12.7575L19.5607 12.7667V12.7764H19.3741V12.757H19.4991L19.3711 12.7159L19.377 12.6975ZM19.7717 12.757L19.8997 12.7159L19.8938 12.6975L19.7071 12.7575L19.7101 12.7667V12.7764H19.9341V12.757H19.7717ZM19.8938 12.8559L19.7071 12.7959L19.713 12.7775L19.8997 12.8375L19.8938 12.8559ZM19.3895 12.8376L19.5575 12.7776L19.564 12.7958L19.396 12.8558L19.3895 12.8376Z" fill="black"/>
<path d="M18.0674 12.2667H18.2008H18.0674ZM18.0674 12.4001H17.8008H18.0674ZM18.0674 12.6667H17.8008H17.9341H18.0674ZM18.0674 13.4667C18.0674 13.3334 17.9341 13.4667 17.9341 13.4667H18.0674ZM18.0674 13.4667C18.0674 13.4667 17.9341 13.7334 18.0674 13.7334V13.6001V13.4667ZM20.3341 13.8667C20.3341 13.8667 20.0674 14.0001 20.2008 14.1334V13.8667H20.3341ZM20.3341 14.0001V14.2667V14.1334V14.0001ZM20.3341 13.7334L20.2008 13.8667H20.3341V13.7334ZM21.8008 14.0001V14.1334V14.0001ZM21.8008 13.8667C21.8008 13.8667 21.6674 13.8667 21.8008 13.8667V13.8667ZM21.8008 14.1334V14.2667H21.9341V14.1334H21.8008ZM19.1341 13.0667V13.4667V13.0667Z" fill="#0051BA"/>
</g>
<defs>
<clipPath id="clip0_8424_43270">
<rect width="40" height="40" rx="20" fill="white"/>
</clipPath>
</defs>
</svg>
