<svg width="40" height="40" viewBox="0 0 40 40" fill="none" xmlns="http://www.w3.org/2000/svg">
<g clip-path="url(#clip0_8424_43247)">
<path fill-rule="evenodd" clip-rule="evenodd" d="M-7 0H46.3333V40H-7V0Z" fill="#00ABC2"/>
<path fill-rule="evenodd" clip-rule="evenodd" d="M-1.98262 38.9167C-1.70762 39.1833 -1.79928 39.625 -1.04095 39.5667C0.10905 39.5667 0.142383 38.8667 0.142383 38.375C0.142383 37.8833 -1.58262 37.2 -1.66595 36.475C-1.74928 35.75 -1.26595 35.5583 -0.865951 35.5583C-0.474284 35.5583 -0.199284 35.7833 -0.199284 35.9833C-0.199284 36.1833 -0.382617 36.25 -0.66595 36.25C-0.949284 36.25 -0.540951 36.1083 -0.782617 36C-1.02428 35.8917 -1.18262 36.1667 -1.18262 36.3333C-1.18262 36.5167 -0.582617 36.5667 -0.182617 36.4417C-0.0992832 36.8333 -0.0659504 36.8583 -0.624284 37.525C-0.224284 37.2667 -0.19095 37.2083 0.250716 37.3583C-0.19095 36.975 0.142383 36.2083 0.150717 36.0167C0.15905 35.825 0.0673833 35.5917 -0.0992832 35.475C-0.424284 35.1833 -1.11595 35.1667 -1.53262 35.3583C-2.14095 35.625 -2.17428 36.425 -2.01595 36.6917L-0.332617 38.3917C-0.21595 38.5917 -0.16595 39.1583 -0.882617 39.1833C-1.63262 39.2417 -1.89928 38.2167 -2.03262 37.875C-2.20762 38.25 -2.40762 39.275 -3.16595 39.2167C-3.88262 39.1917 -4.01595 38.6333 -3.89928 38.425L-2.17428 36.675C-2.00762 36.4083 -2.04095 35.6083 -2.64928 35.3417C-3.06595 35.15 -3.75762 35.175 -4.07428 35.4583C-4.25762 35.575 -4.35762 35.8 -4.34095 36C-4.32428 36.2 -3.99928 36.9583 -4.43262 37.3333C-3.99928 37.1917 -3.95762 37.25 -3.55762 37.5C-4.11595 36.8417 -4.07428 36.8167 -3.99928 36.4167C-3.59928 36.55 -2.99928 36.5 -2.99928 36.325C-2.99928 36.15 -3.16595 35.8583 -3.40762 35.975C-3.64095 36.0917 -3.24095 36.2333 -3.52428 36.2333C-3.79928 36.2333 -3.99928 36.175 -3.99928 35.9833C-3.99928 35.7917 -3.72428 35.5417 -3.32428 35.5417C-2.92428 35.5417 -2.44928 35.7417 -2.53262 36.4667C-2.61595 37.1917 -4.36595 37.975 -4.36595 38.4667C-4.36595 38.9667 -4.24928 39.5583 -3.09928 39.5583C-2.34928 39.6167 -2.25762 39.175 -1.98262 38.9083V38.9167Z" fill="#FFEC2D"/>
<path fill-rule="evenodd" clip-rule="evenodd" d="M-2.07474 28.6084C-1.79974 28.3417 -1.57474 27.5584 -0.82474 27.6084C0.32526 27.6084 0.758593 28.25 0.758593 28.7417C0.758593 29.2334 -1.57474 33.2417 -1.65807 33.9667C-1.74141 34.6917 -1.25807 34.8917 -0.866407 34.8917C-0.466407 34.8917 -0.191407 34.6667 -0.191407 34.4584C-0.191407 34.25 -0.391407 34.2084 -0.666407 34.2084C-0.941406 34.2084 -0.54974 34.35 -0.783073 34.4584C-1.01641 34.5667 -1.18307 34.2917 -1.18307 34.1167C-1.18307 33.9417 -0.583073 33.8834 -0.183073 34.0167C-0.108073 33.625 -0.0747399 33.6 -0.62474 32.9334C-0.22474 33.1834 -0.191407 33.25 0.25026 33.1C-0.191407 33.4834 0.133594 34.2417 0.15026 34.4334C0.166927 34.625 0.0669265 34.8667 -0.108074 34.9834C-0.42474 35.275 -1.12474 35.2834 -1.54141 35.1C-2.14141 34.825 -2.17474 34.0334 -2.01641 33.7667L0.25026 28.8834C0.37526 28.6834 0.0585933 28.0167 -0.658073 27.9917C-1.40807 27.9334 -1.66641 28.725 -1.79974 29.0667L-0.77474 28.9834C-0.77474 28.9834 -0.733074 29.15 -0.77474 29.25C-1.11864 29.2752 -1.46085 29.3197 -1.79974 29.3834L-1.84141 29.9H-1.34141L-1.37474 30.1334C-1.37474 30.1334 -1.79974 30.1 -1.84141 30.1334C-1.88307 30.1584 -1.92474 30.65 -1.92474 30.65C-1.92474 30.65 -2.00807 30.6834 -2.09141 30.6834C-2.17474 30.6834 -2.25807 30.65 -2.25807 30.65C-2.25807 30.65 -2.29141 30.1584 -2.33307 30.1334C-2.37474 30.1 -2.79974 30.1334 -2.79974 30.1334L-2.84141 29.9H-2.33307L-2.37474 29.3834C-2.37474 29.3834 -2.87474 29.2834 -3.39974 29.25C-3.43307 29.15 -3.39974 28.9917 -3.39974 28.9917L-2.37474 29.0667C-2.50807 28.725 -2.76641 27.9334 -3.51641 27.9834C-4.23307 28.0167 -4.54974 28.6834 -4.43307 28.8834L-2.16641 33.7667C-2.00807 34.025 -2.04141 34.825 -2.64141 35.1C-3.05807 35.2834 -3.75807 35.2667 -4.07474 34.9834C-4.24974 34.8667 -4.34974 34.6334 -4.33307 34.4417C-4.31641 34.25 -3.99974 33.475 -4.43307 33.1084C-3.99141 33.25 -3.94974 33.1917 -3.55807 32.9334C-4.10807 33.6 -4.07474 33.625 -3.99141 34.0167C-3.59974 33.8834 -2.99974 33.9334 -2.99974 34.1167C-2.99974 34.2834 -3.16641 34.575 -3.39974 34.4584C-3.63307 34.3417 -3.23307 34.2084 -3.51641 34.2084C-3.79141 34.2084 -3.99141 34.2584 -3.99141 34.4584C-3.99141 34.6584 -3.71641 34.8917 -3.32474 34.8917C-2.93307 34.8917 -2.44974 34.6917 -2.52474 33.975C-2.60807 33.25 -4.94141 29.225 -4.94141 28.7417C-4.94141 28.2417 -4.50807 27.6167 -3.35807 27.6167C-2.60807 27.5584 -2.33307 28.3417 -2.06641 28.6084H-2.07474Z" fill="#FFEC2D"/>
<path fill-rule="evenodd" clip-rule="evenodd" d="M-2.07474 26.6167C-1.79974 26.8834 -1.57474 27.6667 -0.82474 27.6167C0.32526 27.6167 0.758593 26.975 0.758593 26.4834C0.758593 25.9917 -1.57474 21.9834 -1.65807 21.2584C-1.74141 20.5334 -1.25807 20.3334 -0.866407 20.3334C-0.466407 20.3334 -0.191407 20.5584 -0.191407 20.7667C-0.191407 20.975 -0.391407 21.0167 -0.666407 21.0167C-0.941406 21.0167 -0.54974 20.8834 -0.783073 20.7667C-1.01641 20.65 -1.18307 20.9334 -1.18307 21.1084C-1.18307 21.2834 -0.583073 21.3417 -0.183073 21.2084C-0.108073 21.6 -0.0747399 21.625 -0.62474 22.2917C-0.22474 22.0417 -0.191407 21.975 0.25026 22.125C-0.191407 21.7417 0.133594 20.9834 0.15026 20.7917C0.166927 20.6 0.0669265 20.3584 -0.108074 20.2417C-0.42474 19.9584 -1.12474 19.9417 -1.54141 20.125C-2.14141 20.4 -2.17474 21.1917 -2.01641 21.4584L0.25026 26.3334C0.37526 26.5334 0.0585933 27.2 -0.658073 27.225C-1.40807 27.2834 -1.66641 26.4917 -1.79974 26.15L-0.77474 26.2334C-0.77474 26.2334 -0.733074 26.0667 -0.77474 25.9667C-1.11864 25.9416 -1.46085 25.897 -1.79974 25.8334L-1.84141 25.3167H-1.34141L-1.37474 25.0834C-1.37474 25.0834 -1.79974 25.1167 -1.84141 25.0834C-1.88307 25.0584 -1.92474 24.5667 -1.92474 24.5667C-1.92474 24.5667 -2.00807 24.5334 -2.09141 24.5334C-2.17474 24.5334 -2.25807 24.5667 -2.25807 24.5667C-2.25807 24.5667 -2.29141 25.0584 -2.33307 25.0834C-2.37474 25.1167 -2.79974 25.0834 -2.79974 25.0834L-2.84141 25.3167H-2.33307L-2.37474 25.8334C-2.37474 25.8334 -2.87474 25.9334 -3.39974 25.9667C-3.43307 26.0667 -3.39974 26.225 -3.39974 26.225L-2.37474 26.15C-2.50807 26.4917 -2.76641 27.2834 -3.51641 27.2334C-4.23307 27.2 -4.54974 26.5334 -4.43307 26.3334L-2.16641 21.4584C-2.00807 21.1917 -2.04141 20.4 -2.64141 20.125C-3.05807 19.9417 -3.75807 19.9584 -4.07474 20.2417C-4.24974 20.3584 -4.34974 20.5917 -4.33307 20.7834C-4.31641 20.975 -3.99974 21.7417 -4.43307 22.1167C-3.99141 21.975 -3.94974 22.0334 -3.55807 22.2917C-4.10807 21.625 -4.07474 21.6 -3.99141 21.2084C-3.59974 21.3417 -2.99974 21.2917 -2.99974 21.1084C-2.99974 20.9417 -3.16641 20.65 -3.39974 20.7667C-3.63307 20.8834 -3.23307 21.0167 -3.51641 21.0167C-3.79141 21.0167 -3.99141 20.9667 -3.99141 20.7667C-3.99141 20.5667 -3.71641 20.3334 -3.32474 20.3334C-2.93307 20.3334 -2.44974 20.5334 -2.52474 21.25C-2.60807 21.975 -4.94141 26 -4.94141 26.4834C-4.94141 26.9834 -4.50807 27.6084 -3.35807 27.6084C-2.60807 27.6667 -2.33307 26.8834 -2.06641 26.6167H-2.07474Z" fill="#FFEC2D"/>
<path fill-rule="evenodd" clip-rule="evenodd" d="M-2.07474 13.3833C-1.79974 13.1167 -1.57474 12.3333 -0.82474 12.3833C0.32526 12.3833 0.758593 13.025 0.758593 13.5167C0.758593 14.0083 -1.57474 18.0167 -1.65807 18.75C-1.74141 19.4667 -1.25807 19.6667 -0.866407 19.6667C-0.466407 19.6667 -0.191407 19.4417 -0.191407 19.2417C-0.191407 19.0417 -0.391407 18.975 -0.666407 18.975C-0.941406 18.975 -0.54974 19.125 -0.783073 19.2417C-1.01641 19.3583 -1.18307 19.0667 -1.18307 18.8917C-1.18307 18.725 -0.583073 18.6583 -0.183073 18.7917C-0.108073 18.4 -0.0747399 18.375 -0.62474 17.7083C-0.22474 17.9667 -0.191407 18.025 0.25026 17.875C-0.191407 18.2583 0.133594 19.025 0.15026 19.2083C0.166927 19.3917 0.0669265 19.6417 -0.108074 19.7583C-0.42474 20.05 -1.12474 20.0583 -1.54141 19.875C-2.14141 19.6 -2.17474 18.8083 -2.01641 18.5417L0.25026 13.6667C0.37526 13.4667 0.0585933 12.8 -0.658073 12.775C-1.40807 12.7167 -1.66641 13.5083 -1.79974 13.85L-0.77474 13.7667C-0.77474 13.7667 -0.733074 13.9333 -0.77474 14.0333C-1.30807 14.0667 -1.79974 14.1667 -1.79974 14.1667L-1.84141 14.6833H-1.34141L-1.37474 14.9167C-1.37474 14.9167 -1.79974 14.8917 -1.84141 14.9167C-1.88307 14.9417 -1.92474 15.4417 -1.92474 15.4417C-1.92474 15.4417 -2.00807 15.4667 -2.09141 15.4667C-2.17474 15.4667 -2.25807 15.4417 -2.25807 15.4417C-2.25807 15.4417 -2.29141 14.9417 -2.33307 14.9167C-2.37474 14.8917 -2.79974 14.9167 -2.79974 14.9167L-2.84141 14.6833H-2.33307L-2.37474 14.1667C-2.37474 14.1667 -2.87474 14.0667 -3.39974 14.0333C-3.43307 13.9333 -3.39974 13.775 -3.39974 13.775L-2.37474 13.85C-2.50807 13.5083 -2.76641 12.7167 -3.51641 12.7667C-4.23307 12.8 -4.54974 13.4667 -4.43307 13.6667L-2.16641 18.5417C-2.00807 18.8083 -2.04141 19.6 -2.64141 19.875C-3.05807 20.0583 -3.75807 20.0417 -4.07474 19.7583C-4.24974 19.6417 -4.34974 19.4083 -4.33307 19.2167C-4.31641 19.025 -3.99974 18.2583 -4.43307 17.8833C-3.99141 18.025 -3.94974 17.9667 -3.55807 17.7083C-4.10807 18.375 -4.07474 18.4 -3.99141 18.7917C-3.59974 18.6583 -2.99974 18.7167 -2.99974 18.8917C-2.99974 19.0583 -3.16641 19.35 -3.39974 19.2333C-3.63307 19.125 -3.23307 18.9833 -3.51641 18.9833C-3.79141 18.9833 -3.99141 19.0333 -3.99141 19.2333C-3.99141 19.4333 -3.71641 19.6667 -3.32474 19.6667C-2.93307 19.6667 -2.44974 19.4667 -2.52474 18.75C-2.60807 18.025 -4.94141 14.0083 -4.94141 13.5167C-4.94141 13.025 -4.50807 12.3917 -3.35807 12.3917C-2.60807 12.3333 -2.33307 13.1167 -2.06641 13.3917L-2.07474 13.3833Z" fill="#FFEC2D"/>
<path fill-rule="evenodd" clip-rule="evenodd" d="M-2.07474 11.3917C-1.79974 11.6583 -1.57474 12.45 -0.82474 12.3917C0.32526 12.3917 0.758593 11.75 0.758593 11.2583C0.758593 10.7667 -1.57474 6.75832 -1.65807 6.03332C-1.74141 5.30832 -1.25807 5.10832 -0.866407 5.10832C-0.466407 5.10832 -0.191407 5.34165 -0.191407 5.54165C-0.191407 5.74165 -0.391407 5.79999 -0.666407 5.79999C-0.941406 5.79999 -0.54974 5.65832 -0.783073 5.54165C-1.01641 5.42499 -1.18307 5.70832 -1.18307 5.88332C-1.18307 6.05832 -0.583073 6.11665 -0.183073 5.98332C-0.108073 6.37499 -0.0747399 6.39999 -0.62474 7.06665C-0.22474 6.81665 -0.191407 6.74999 0.25026 6.89999C-0.191407 6.52499 0.133594 5.75832 0.15026 5.56665C0.166927 5.37499 0.0669265 5.13332 -0.108074 5.01665C-0.42474 4.73332 -1.12474 4.71665 -1.54141 4.90832C-2.14141 5.17499 -2.17474 5.97499 -2.01641 6.23332L0.25026 11.1167C0.37526 11.3167 0.0585933 11.9833 -0.658073 12.0167C-1.40807 12.0667 -1.66641 11.2833 -1.79974 10.9333L-0.77474 11.0167C-0.77474 11.0167 -0.733074 10.85 -0.77474 10.75C-1.11846 10.7274 -1.46065 10.6856 -1.79974 10.625L-1.84141 10.1H-1.34141L-1.37474 9.86665C-1.37474 9.86665 -1.79974 9.89999 -1.84141 9.86665C-1.88307 9.84165 -1.92474 9.34999 -1.92474 9.34999C-1.92474 9.34999 -2.00807 9.31665 -2.09141 9.31665C-2.17474 9.31665 -2.25807 9.34999 -2.25807 9.34999C-2.25807 9.34999 -2.29141 9.84165 -2.33307 9.86665C-2.37474 9.89999 -2.79974 9.86665 -2.79974 9.86665L-2.84141 10.1H-2.33307L-2.37474 10.625C-2.37474 10.625 -2.87474 10.7167 -3.39974 10.75C-3.43307 10.8583 -3.39974 11.0167 -3.39974 11.0167L-2.37474 10.9333C-2.50807 11.2833 -2.76641 12.0667 -3.51641 12.0167C-4.23307 11.9833 -4.54974 11.3167 -4.43307 11.1167L-2.16641 6.23332C-2.00807 5.97499 -2.04141 5.17499 -2.64141 4.89999C-3.05807 4.71665 -3.75807 4.73332 -4.07474 5.01665C-4.24974 5.13332 -4.34974 5.36665 -4.33307 5.55832C-4.31641 5.74999 -3.99974 6.52499 -4.43307 6.89165C-3.99141 6.74999 -3.94974 6.80832 -3.55807 7.06665C-4.10807 6.39999 -4.07474 6.37499 -3.99141 5.98332C-3.59141 6.11665 -2.99974 6.06665 -2.99974 5.88332C-2.99974 5.71665 -3.16641 5.42499 -3.39974 5.54165C-3.63307 5.65832 -3.23307 5.79999 -3.51641 5.79999C-3.79141 5.79999 -3.99141 5.74165 -3.99141 5.54165C-3.99141 5.34165 -3.71641 5.10832 -3.32474 5.10832C-2.93307 5.10832 -2.44141 5.30832 -2.52474 6.02499C-2.60807 6.74999 -4.94141 10.775 -4.94141 11.2583C-4.94141 11.7583 -4.50807 12.3917 -3.35807 12.3917C-2.60807 12.45 -2.33307 11.6583 -2.06641 11.3917H-2.07474Z" fill="#FFEC2D"/>
<path fill-rule="evenodd" clip-rule="evenodd" d="M-1.98262 1.08335C-1.70762 0.816681 -1.79928 0.375014 -1.04095 0.433347C0.10905 0.433347 0.142383 1.13335 0.142383 1.62501C0.142383 2.11668 -1.58262 2.80001 -1.66595 3.52501C-1.74928 4.25001 -1.26595 4.44168 -0.865951 4.44168C-0.474284 4.44168 -0.199284 4.21668 -0.199284 4.01668C-0.199284 3.81668 -0.382617 3.75001 -0.66595 3.75001C-0.949284 3.75001 -0.540951 3.89168 -0.782617 4.00001C-1.02428 4.10835 -1.18262 3.83335 -1.18262 3.66668C-1.18262 3.48335 -0.582617 3.42501 -0.182617 3.55835C-0.0992832 3.16668 -0.0659504 3.14168 -0.624284 2.47501C-0.224284 2.73335 -0.19095 2.79168 0.250716 2.64168C-0.19095 3.02501 0.142383 3.79168 0.150717 3.98335C0.15905 4.17501 0.0673833 4.40835 -0.0992832 4.52501C-0.432617 4.83335 -1.12428 4.83335 -1.54095 4.65001C-2.14928 4.38335 -2.18262 3.58335 -2.02428 3.31668L-0.332617 1.60835C-0.21595 1.40835 -0.16595 0.841681 -0.882617 0.816681C-1.63262 0.758347 -1.89928 1.78335 -2.03262 2.12501C-2.20762 1.75001 -2.40762 0.716681 -3.16595 0.775014C-3.88262 0.800014 -4.01595 1.35835 -3.89928 1.56668L-2.17428 3.31668C-2.00762 3.58335 -2.04095 4.38335 -2.64928 4.65001C-3.06595 4.84168 -3.75762 4.82501 -4.07428 4.53335C-4.25762 4.41668 -4.35762 4.19168 -4.34095 3.99168C-4.32428 3.79168 -3.99928 3.03335 -4.43262 2.65835C-3.99928 2.80001 -3.95762 2.74168 -3.56595 2.49168C-4.11595 3.15001 -4.07428 3.17501 -3.99928 3.57501C-3.59928 3.44168 -2.99928 3.49168 -2.99928 3.66668C-2.99928 3.84168 -3.16595 4.13335 -3.40762 4.01668C-3.64095 3.90001 -3.24095 3.75835 -3.52428 3.75835C-3.79928 3.75835 -3.99928 3.81668 -3.99928 4.00835C-3.99928 4.20001 -3.72428 4.45001 -3.32428 4.45001C-2.92428 4.45001 -2.44928 4.25001 -2.53262 3.52501C-2.61595 2.80001 -4.36595 2.01668 -4.36595 1.52501C-4.36595 1.02501 -4.24928 0.433347 -3.09928 0.433347C-2.34928 0.375014 -2.25762 0.816681 -1.98262 1.08335Z" fill="#FFEC2D"/>
<path d="M29.7931 17.1592C29.7931 13.1976 26.4044 9.98608 22.2242 9.98608C18.044 9.98608 14.6553 13.1976 14.6553 17.1592C14.6553 21.1208 18.044 24.3324 22.2242 24.3324C26.4044 24.3324 29.7931 21.1208 29.7931 17.1592Z" fill="#FFEC2D"/>
<path fill-rule="evenodd" clip-rule="evenodd" d="M21.8688 5.70799C21.7976 5.70799 21.4596 8.09163 21.3351 8.62528C21.2106 9.82599 22.9361 9.78152 22.6515 8.58081L21.8688 5.6991V5.70799ZM22.4736 28.815C22.5358 28.815 23.0517 26.4581 23.2207 25.9333C23.4253 24.7504 21.6998 24.6881 21.8866 25.8977L22.4736 28.815ZM10.4131 17.1103C10.4131 17.1726 12.8946 17.6706 13.446 17.8307C14.6912 18.0353 14.7801 16.4077 13.4994 16.5856L10.4131 17.1192V17.1103ZM34.5785 17.3949C34.5785 17.3327 32.0704 16.9235 31.51 16.7812C30.256 16.63 30.2471 18.2577 31.51 18.0353L34.5785 17.3949ZM12.9568 9.55027C12.9123 9.59474 14.5489 11.4447 14.878 11.8983C15.7318 12.7877 16.8614 11.5426 15.7318 10.9378L12.9568 9.55916V9.55027ZM31.7324 24.7593C31.7769 24.7148 29.9803 23.0071 29.6067 22.5891C28.6728 21.7709 27.6678 23.0961 28.8418 23.6119L31.7324 24.7682V24.7593ZM16.7013 6.97096C16.6479 6.99764 17.4128 9.29234 17.5373 9.83488C17.9642 10.9644 19.5118 10.2262 18.7113 9.25676L16.7102 6.97096H16.7013ZM27.65 27.641C27.7122 27.6143 27.1163 25.2752 27.0363 24.7326C26.6894 23.5764 25.0974 24.199 25.8178 25.2307L27.6589 27.6321L27.65 27.641ZM30.3449 8.57191C30.2915 8.52744 28.317 10.0483 27.8368 10.3507C26.8851 11.1512 28.1747 12.2363 28.8329 11.1779L30.3449 8.57191ZM14.0686 25.7999C14.1131 25.8444 16.2032 24.4658 16.7013 24.1901C17.7063 23.4607 16.5056 22.2867 15.7674 23.3007L14.0775 25.7999H14.0686ZM10.9556 12.9834C10.9289 13.0368 13.0902 14.2909 13.5616 14.6199C14.6734 15.1981 15.3227 13.6861 14.0508 13.4459L10.9556 12.9834ZM33.5201 21.7353C33.5468 21.6819 31.4745 20.2855 31.0298 19.9298C29.9625 19.2716 29.2065 20.7391 30.4605 21.0593L33.5201 21.7353ZM26.3514 6.35727C26.2892 6.33948 25.0529 8.4385 24.7238 8.8921C24.7244 9.03695 24.7703 9.17798 24.8552 9.29541C24.94 9.41283 25.0594 9.50076 25.1967 9.54686C25.3341 9.59296 25.4824 9.59492 25.6209 9.55247C25.7594 9.51001 25.8811 9.42527 25.969 9.31013L26.3514 6.35727ZM17.9998 28.0857C18.0621 28.1124 19.4496 26.0934 19.8053 25.6576C20.4546 24.6259 18.8803 23.9677 18.5868 25.1595L17.9998 28.0857ZM11.1068 21.9221C11.1335 21.9754 13.5972 21.3884 14.1753 21.2995C15.3849 20.9615 14.709 19.4673 13.6417 20.161L11.1068 21.9221ZM33.529 12.7877C33.5112 12.7344 31.012 13.1524 30.4339 13.2058C29.1887 13.4637 29.7668 15.0024 30.8786 14.3798L33.529 12.7877Z" fill="#FFEC2D"/>
<path fill-rule="evenodd" clip-rule="evenodd" d="M24.3232 5.85917C24.2609 5.85028 23.4249 8.11829 23.1758 8.61637C22.8112 9.77261 24.51 10.0572 24.4833 8.82983L24.3321 5.85028L24.3232 5.85917ZM20.0095 28.6193C20.0718 28.6371 21.0768 26.4225 21.3614 25.9333C21.8061 24.8126 20.134 24.4213 20.0718 25.6398L20.0006 28.6193H20.0095ZM19.1468 6.08153C19.0845 6.09932 19.3158 8.50074 19.3158 9.05218C19.4848 10.2351 21.148 9.82597 20.5965 8.7231L19.1468 6.08153ZM25.1948 28.4859C25.2571 28.477 25.1948 26.0667 25.2393 25.5153C25.1592 24.3146 23.4604 24.617 23.9407 25.7554L25.1859 28.4859H25.1948ZM14.8598 8.07382C14.8064 8.1094 15.9893 10.2351 16.2117 10.7421C16.8521 11.7827 18.2307 10.8043 17.2612 9.97717L14.8598 8.07382ZM29.5174 26.5648C29.5707 26.5292 28.539 24.3235 28.3611 23.8076C27.8008 22.7314 26.3599 23.6208 27.2583 24.5014L29.5174 26.5648ZM11.729 11.0623C11.6935 11.1156 13.6057 12.6988 14.006 13.1079C14.9932 13.855 15.9093 12.4675 14.6997 12.0317L11.729 11.0623ZM32.5592 23.4874C32.5948 23.434 30.807 21.7264 30.4335 21.2994C29.5085 20.4901 28.4945 21.8153 29.6686 22.3312L32.5592 23.4874ZM10.3593 14.7889C10.3416 14.8512 12.6985 15.7495 13.2144 16.0074C14.4062 16.4077 14.7886 14.8156 13.4901 14.78L10.3593 14.7889ZM34.1423 19.9297C34.169 19.8764 31.8832 18.8269 31.3852 18.5334C30.2289 18.0531 29.7219 19.6185 31.0116 19.743L34.1423 19.9297ZM10.2793 19.3694C10.2882 19.4228 12.8319 19.3872 13.41 19.4317C14.673 19.3694 14.3706 17.7596 13.161 18.1954L10.2793 19.3694ZM34.3113 15.367C34.3113 15.3048 31.7676 15.1714 31.1984 15.0913C29.9265 15.0735 30.1133 16.7012 31.3496 16.3365L34.3113 15.3581V15.367ZM12.4584 24.1189C12.4939 24.1723 14.7709 23.0872 15.3045 22.8826C16.4074 22.3045 15.3934 20.9793 14.5129 21.8776L12.4584 24.1189ZM32.2301 10.5731C32.1945 10.5197 29.8554 11.4536 29.295 11.6226C28.1477 12.1296 29.0638 13.5171 30.0066 12.681L32.2301 10.5731ZM16.1583 27.2674C16.2117 27.2941 17.8393 25.4441 18.2485 25.0528C19.0223 24.1011 17.5369 23.274 17.1011 24.4302L16.1583 27.2674ZM28.5835 7.36229C28.539 7.32671 26.778 9.06107 26.3422 9.42574C25.5061 10.324 26.9292 11.249 27.445 10.1284L28.5746 7.36229H28.5835Z" fill="#FFEC2D"/>
<path fill-rule="evenodd" clip-rule="evenodd" d="M10.6512 21.9303C10.7871 22.389 10.8065 24.9577 13.5434 27.4347C16.2609 29.8933 20.9194 30.4437 20.9194 30.4437C20.9194 30.4437 20.9388 30.7923 20.6089 30.8107C20.2789 30.8474 18.6872 30.5355 17.8914 30.2969C17.1149 30.0768 16.4162 29.6731 16.3385 29.6915C16.2415 29.7282 16.0862 29.985 15.8533 29.9483C15.6203 29.9116 14.4945 28.8108 13.9898 28.5172C12.9804 27.6925 12.0867 26.7491 11.3306 25.71C10.7871 24.8843 10.6512 24.3339 10.4765 24.3339C10.3018 24.3339 9.66127 24.7376 9.66127 24.7376C9.66127 24.7376 9.07895 23.9119 8.57427 22.5909C8.05019 21.2698 8.10842 20.4992 8.22488 20.4442C8.36076 20.3891 8.36075 21.4166 8.74897 22.3523C9.13718 23.3064 9.68068 23.6 9.68068 23.6C9.68068 23.6 9.33129 23.1046 9.05954 21.8753C8.78779 20.646 8.67133 19.4534 8.86543 19.0864C9.05954 18.7195 9.23423 18.6094 9.25364 18.6277C9.29247 18.6644 8.92367 19.1965 9.176 20.6093C9.42834 22.0221 10.1077 23.2147 10.263 23.1596C10.4183 23.1046 10.1659 22.811 10.0689 21.9854C9.97184 21.1597 10.1659 20.646 10.3795 20.5726C10.4765 20.4992 10.6318 21.49 10.6512 21.9303ZM8.74897 24.2789C8.22488 23.8202 7.40964 22.2239 7.23494 22.2973C7.04083 22.389 8.55486 24.6825 8.59368 24.866C8.63251 25.0862 8.96249 25.71 8.71015 25.6182C8.45781 25.5265 6.65262 23.7284 6.86614 24.077C7.07966 24.4256 8.4384 26.0036 8.36075 26.0953C8.28311 26.187 7.23494 25.2146 7.19612 25.343C7.17671 25.4531 8.22488 26.4072 8.20547 26.5173C8.18606 26.6274 7.5261 25.9118 7.5261 26.0586C7.5261 26.2054 8.20547 26.9209 8.20547 27.031C8.20547 27.1411 7.62315 26.5173 7.81726 26.8476C7.99196 27.2145 8.49663 27.5264 8.47722 27.6365C8.45781 27.7466 8.05019 27.4897 8.05019 27.5448C8.05019 27.5998 8.8072 27.8567 8.9819 28.0585C9.176 28.2603 10.4183 29.6181 11.35 30.2969C12.2817 30.9758 14.9604 32.1684 15.1545 32.1684C15.3292 32.1684 15.6009 31.8014 15.5427 31.6547C15.4845 31.5079 12.864 30.6639 12.1458 30.0401C11.4082 29.4162 9.62245 27.9117 9.46716 27.8383C9.33129 27.7466 8.92367 27.7833 8.92367 27.6915C8.92367 27.5998 9.44775 27.7466 9.40893 27.6915C9.38952 27.6365 8.69074 27.3429 8.71015 27.2879C8.74897 27.2329 9.19542 27.398 9.19542 27.3429C9.19542 27.2879 8.38017 26.8659 8.41899 26.7742C8.4384 26.6824 9.02072 27.031 9.02072 26.9576C9.02072 26.9209 8.24429 26.4072 8.2637 26.3155C8.28311 26.2237 8.86543 26.7191 8.84602 26.609C8.82661 26.4989 8.38017 25.8751 8.38017 25.8017C8.38017 25.71 9.07895 26.4256 9.15659 26.2788C9.19541 26.1503 8.90426 24.9577 8.92367 24.9394C8.94308 24.921 9.44775 25.1962 9.52539 25.0311C9.62245 24.8476 9.176 24.6091 8.74897 24.2789ZM17.6973 33.306C17.3285 33.361 17.1538 33.2326 17.3673 32.939C17.6585 32.939 18.4349 32.7005 18.7066 32.5904C18.9784 32.4803 19.2695 32.3335 19.5025 32.1317C19.7354 31.8932 19.8907 32.2601 19.7548 32.462C19.6577 32.5904 19.2113 32.8289 18.8813 32.9574C18.3961 33.1041 17.969 33.3243 17.6973 33.306ZM20.1236 32.3702C19.8713 32.1134 20.0848 31.9299 20.4536 31.7281C20.9971 31.4528 20.8418 31.0675 21.5406 30.7556C21.8511 30.5721 26.1991 28.9209 27.6161 28.0402C29.0331 27.1595 33.0123 24.3156 34.0798 22.3523C35.128 20.4075 34.6233 20.2607 34.7786 20.1873C34.9145 20.0956 35.0698 20.4625 35.0504 20.9029C35.0115 21.3249 34.6622 22.6092 34.7786 22.7376C34.8951 22.8661 36.3703 21.7285 36.9914 20.3524C37.6126 18.9764 38.0784 17.5452 38.3696 17.5452C38.6802 17.5452 37.8649 19.8937 37.3408 20.8111C36.8361 21.7285 36.2344 22.1872 36.3703 22.389C36.5256 22.5725 38.0396 21.3799 38.5637 20.4992C39.0684 19.6002 39.5536 18.8112 39.6507 18.9764C39.4962 20.0511 39.048 21.0693 38.3502 21.9303C37.5349 22.811 36.5644 23.4532 36.7197 23.5816C36.8556 23.7284 37.962 23.8752 39.1072 23.1413C40.2718 22.389 40.3883 21.3065 40.5242 21.3616C40.6795 21.4166 40.3883 22.9028 39.2819 23.8202C38.1755 24.7376 36.7197 24.8293 36.7585 25.0311C36.8362 25.2146 39.9224 24.1871 39.8642 24.4256C39.806 24.6458 35.8656 26.1136 35.8268 26.2604C35.8268 26.3705 36.5062 26.4072 37.5738 26.1687C38.6219 25.9485 39.6313 25.1596 39.7672 25.343C39.806 25.5999 39.0101 26.2237 37.8067 26.5173C36.5838 26.8109 35.9821 27.1962 35.9433 27.2879C35.9238 27.3796 38.1173 27.031 38.1173 27.1411C38.1173 27.2512 35.2445 27.7833 35.2251 27.9301C35.1862 28.0585 37.9426 27.398 37.9037 27.5631C37.8261 27.6915 34.1575 28.719 34.1963 28.7741C34.2157 28.8475 37.2632 28.1502 37.2049 28.2603C37.1273 28.3888 32.0805 29.7281 32.0417 29.8199C32.0029 29.8933 36.5062 28.8658 36.4674 28.9575C36.4285 29.0493 34.1381 29.5814 34.1381 29.6364C34.1381 29.6915 35.9821 29.3612 35.9433 29.4529C35.9238 29.5263 31.2847 30.6455 31.1877 30.8107C31.0906 30.9941 33.5946 30.352 33.5558 30.6822C33.5169 31.0125 28.179 32.7005 28.1596 32.3886C28.1208 32.0767 31.4012 31.2877 31.3818 31.196C31.3429 31.1042 29.4989 31.3794 29.4601 31.2143C29.4407 31.0308 30.683 30.6639 30.5859 30.5905C30.4889 30.4988 29.5572 30.8474 29.6348 30.6455C29.7319 30.4437 31.4982 29.6731 31.4594 29.6181C31.44 29.563 30.8189 29.8015 30.8771 29.6181C30.9547 29.4162 34.701 28.3888 34.6428 28.2603C34.5845 28.1502 32.9152 28.5172 32.7599 28.5539C32.7017 28.4438 35.0892 27.5998 35.0504 27.453C34.9727 27.3246 33.7693 27.9484 33.6916 27.7833C33.6528 27.5998 35.8074 26.8109 35.6715 26.6824C35.5356 26.554 34.5651 27.0127 34.4292 26.8842C34.2934 26.7558 36.4673 25.343 36.1374 25.3063C35.8074 25.288 35.3998 25.7467 35.3609 25.4531C35.3998 25.0862 37.0497 24.4807 36.6809 24.1871C36.0985 24.022 34.1381 24.3156 33.3228 24.7742C32.5076 25.2329 29.7901 27.7833 29.1301 28.1869C28.4702 28.5722 26.2185 29.4713 25.7915 29.6548C25.1315 29.8749 25.0151 30.2052 24.3357 30.5354C23.1128 30.8474 23.1322 31.196 22.5499 31.3978C22.3364 31.4528 20.143 32.4436 20.1236 32.3702ZM17.0567 33.6546C16.6879 33.838 16.3579 34.2784 16.5715 34.4619C16.6879 34.6821 17.0567 33.9665 17.3479 34.0032L18.9007 34.0766C19.7354 34.1316 20.143 33.9114 20.6089 33.9481C21.0747 33.9848 22.1035 33.7096 22.5887 33.7096C23.074 33.7096 23.1711 33.7647 23.2099 33.5628C23.2681 33.3794 21.6959 33.5078 20.9971 33.4894C20.2983 33.4527 19.4248 33.6179 18.9007 33.6179C18.4155 33.5995 17.5808 33.4527 17.0567 33.6546Z" fill="#FFEC2D"/>
<path d="M19.3855 33.4344C19.3855 33.2824 19.2378 33.1592 19.0556 33.1592C18.8733 33.1592 18.7256 33.2824 18.7256 33.4344C18.7256 33.5864 18.8733 33.7096 19.0556 33.7096C19.2378 33.7096 19.3855 33.5864 19.3855 33.4344Z" fill="#FFEC2D"/>
<path fill-rule="evenodd" clip-rule="evenodd" d="M27.1312 32.9023C27.4612 32.8473 28.354 33.1408 28.9752 33.2693C30.101 33.6913 32.1974 33.4894 32.1974 33.6913C32.1974 33.8931 32.0615 34.1316 31.5762 34.1683C31.0909 34.205 29.8681 33.9848 29.9069 33.9848C29.9457 33.9848 30.8774 34.4068 30.6057 34.5169C30.3339 34.627 29.5381 34.2784 29.4022 34.3701C29.2664 34.4619 30.1398 34.627 29.9845 34.682C29.8681 34.7371 29.2663 34.6086 29.0722 34.627C28.8781 34.6637 29.2275 34.8655 28.9946 34.9389C28.7617 35.0306 28.3735 34.8288 28.2182 34.8839C28.0435 34.9389 28.5676 35.2508 28.3346 35.2875C28.1017 35.3242 27.5582 35.1407 27.2476 35.104C26.9371 35.104 27.5388 35.3976 27.3447 35.4343C27.1506 35.4526 26.6071 35.1958 26.4712 35.1958C26.3353 35.1958 26.4712 35.5627 26.2771 35.5627C26.083 35.5627 25.8501 35.2508 25.7336 35.2508C25.6171 35.2508 25.7336 35.6178 25.5395 35.6178C25.3454 35.6178 25.2678 35.2325 25.1125 35.2508C24.9184 35.2875 25.1125 35.7462 24.8407 35.7095C24.5884 35.6912 24.5496 35.2325 24.3361 35.2508C24.1419 35.2875 24.3749 35.7095 24.1808 35.7095C23.9867 35.7095 23.9478 35.2875 23.7537 35.2508C23.5596 35.2325 23.6373 35.6545 23.5208 35.6545C23.4043 35.6545 23.2879 35.2508 23.2102 35.2508C23.152 35.2508 23.2102 35.6545 22.9773 35.6178C22.7444 35.5811 22.7444 35.1774 22.6861 35.1958C22.6085 35.2325 22.6085 35.526 22.4532 35.526C22.2979 35.526 22.2785 35.2325 22.2203 35.2692C22.1427 35.2875 21.9097 35.6545 21.7544 35.5994C21.5797 35.5444 21.7933 35.2508 21.7156 35.2508C21.638 35.2508 21.4439 35.4526 21.3274 35.4343C21.2109 35.4159 21.3274 35.1774 21.2886 35.1774C21.2498 35.1774 20.9586 35.3242 20.8227 35.3242C20.6869 35.3242 20.318 35.5077 20.221 35.3426C20.1239 35.1591 20.4733 35.1591 20.551 34.9939C20.6092 34.8288 20.3569 34.3334 20.6286 34.1683C20.881 33.9848 21.7156 34.4068 22.9579 34.1133C25.2095 33.5445 26.9565 32.884 27.1312 32.9023Z" fill="#FFEC2D"/>
</g>
<defs>
<clipPath id="clip0_8424_43247">
<rect width="40" height="40" rx="20" fill="white"/>
</clipPath>
</defs>
</svg>
