<svg width="40" height="40" viewBox="0 0 40 40" fill="none" xmlns="http://www.w3.org/2000/svg">
<g clip-path="url(#clip0_8424_43262)">
<path d="M-6.9834 0H46.3499V40H-6.9834V0Z" fill="white"/>
<path d="M-6.9834 0H46.3499V12H-6.9834V0Z" fill="black"/>
<path d="M-6.9834 28H46.3499V40H-6.9834V28Z" fill="#006600"/>
<path d="M12.5332 31.875L12.9832 32.125L24.6582 11.875C25.3332 11.725 25.7082 11.075 26.0832 10.425C26.3332 9.975 27.3332 8.25 27.7582 6C26.5721 7.05398 25.5671 8.29548 24.7832 9.675C24.4082 10.325 24.0332 10.975 24.2082 11.65L12.5332 31.875Z" fill="black"/>
<path fill-rule="evenodd" clip-rule="evenodd" d="M27.9489 5.66309L27.8809 6.02309C27.4696 8.20075 26.5251 9.89024 26.2272 10.4231C26.2144 10.4461 26.2027 10.467 26.1924 10.4856L26.1919 10.4865L26.1881 10.4931C26.0029 10.814 25.8106 11.1474 25.578 11.4187C25.3539 11.6802 25.0858 11.8923 24.7397 11.9837L13.03 32.2939L12.3613 31.9224L24.0749 11.6306C23.9965 11.2786 24.0535 10.9375 24.1718 10.6105C24.2943 10.272 24.4864 9.93899 24.6717 9.6178L24.6744 9.61313C24.6745 9.61301 24.6746 9.61288 24.6746 9.61276C25.4653 8.22149 26.4789 6.96942 27.6751 5.90645L27.9489 5.66309ZM27.5582 6.35158C26.5049 7.33905 25.6058 8.48009 24.8918 9.73664L24.8914 9.73735C24.7027 10.0645 24.5212 10.3797 24.4069 10.6955C24.2934 11.0091 24.25 11.3134 24.3291 11.6185L24.342 11.6681L12.7049 31.8273L12.9363 31.9559L24.5773 11.7648L24.631 11.7529C24.9334 11.6857 25.1739 11.506 25.3882 11.256C25.604 11.0042 25.7857 10.6903 25.9743 10.3633C25.9844 10.3451 25.9958 10.3248 26.0082 10.3025C26.2864 9.80488 27.1239 8.30648 27.5582 6.35158Z" fill="black"/>
<path d="M12.5332 31.875L12.9832 32.125L24.6582 11.875C25.3332 11.725 25.7082 11.075 26.0832 10.425C26.3332 9.975 27.3332 8.25 27.7582 6C26.5721 7.05398 25.5671 8.29548 24.7832 9.675C24.4082 10.325 24.0332 10.975 24.2082 11.65L12.5332 31.875Z" fill="white"/>
<path d="M46.3917 14H24.4333C23.6833 12 21.1833 8 19.6833 8C18.1833 8 15.6833 12 14.9333 14H-7V26H14.9333C15.6833 28 18.1833 32 19.6833 32C21.1833 32 23.6833 28 24.4333 26H46.3917V14Z" fill="#BB0000"/>
<path d="M24.4336 26C25.1836 24 25.6836 22 25.6836 20C25.6836 18 25.1836 16 24.4336 14C23.6836 16 23.1836 18 23.1836 20C23.1836 22 23.6836 24 24.4336 26Z" fill="black"/>
<path d="M19.6836 21.5C20.2359 21.5 20.6836 20.8284 20.6836 20C20.6836 19.1716 20.2359 18.5 19.6836 18.5C19.1313 18.5 18.6836 19.1716 18.6836 20C18.6836 20.8284 19.1313 21.5 19.6836 21.5Z" fill="white"/>
<path d="M19.9336 21.45C19.9336 21.45 20.9336 23.45 20.9336 26.7C20.9336 29.95 19.9336 31.95 19.9336 31.95V21.45Z" fill="white"/>
</g>
<defs>
<clipPath id="clip0_8424_43262">
<rect width="40" height="40" rx="20" fill="white"/>
</clipPath>
</defs>
</svg>
