<svg width="56" height="56" viewBox="0 0 56 56" fill="none" xmlns="http://www.w3.org/2000/svg">
<g clip-path="url(#clip0_3318_24677)">
<path d="M28 56C43.464 56 56 43.464 56 28C56 12.536 43.464 0 28 0C12.536 0 0 12.536 0 28C0 43.464 12.536 56 28 56Z" fill="#F0F0F0"/>
<path d="M28 0C16.8991 0 7.30732 6.46023 2.77832 15.8261H53.2215C48.6926 6.46023 39.1008 0 28 0Z" fill="black"/>
<path d="M28 56C16.8991 56 7.30732 49.5398 2.77832 40.1739H53.2215C48.6926 49.5398 39.1008 56 28 56Z" fill="#496E2D"/>
<path d="M54.6778 19.4783H1.32223C0.464516 22.1655 0 25.0284 0 28C0 30.9716 0.464516 33.8345 1.32223 36.5217H54.6777C55.5355 33.8345 56 30.9716 56 28C56 25.0284 55.5355 22.1655 54.6778 19.4783Z" fill="#A2001D"/>
<path d="M36.7189 12.9392L33.403 11.4087L28.0001 23.6424L22.5972 11.4087L19.2812 12.9392L25.989 28L19.2812 43.0608L22.5972 44.5913L28.0001 32.3576L33.403 44.5913L36.7189 43.0608L30.0112 28L36.7189 12.9392Z" fill="#F0F0F0"/>
<path d="M30.2523 14.3816C28.9687 12.9798 28.0002 12.1739 28.0002 12.1739C28.0002 12.1739 27.0317 12.9797 25.748 14.3816V41.6182C27.0317 43.0203 28.0002 43.8261 28.0002 43.8261C28.0002 43.8261 28.9687 43.0204 30.2523 41.6183V14.3816Z" fill="#F0F0F0"/>
<path d="M21.9131 19.6047V36.395C23.2696 38.7986 24.9298 40.7686 26.174 42.0748V13.925C24.9298 15.2311 23.2694 17.2013 21.9131 19.6047Z" fill="#A2001D"/>
<path d="M34.0871 19.6047C32.7305 17.2012 31.0704 15.2311 29.8262 13.925V42.0748C31.0703 40.7686 32.7305 38.7986 34.0871 36.395V19.6047Z" fill="#A2001D"/>
<path d="M34.0869 19.6047V36.3951C35.4601 33.9616 36.5217 31.084 36.5217 28C36.5217 24.9159 35.4601 22.0383 34.0869 19.6047Z" fill="black"/>
<path d="M21.9133 19.6047V36.3951C20.5401 33.9616 19.4785 31.084 19.4785 28C19.4785 24.9159 20.5401 22.0383 21.9133 19.6047Z" fill="black"/>
</g>
<defs>
<clipPath id="clip0_3318_24677">
<rect width="56" height="56" fill="white"/>
</clipPath>
</defs>
</svg>
