<svg width="40" height="40" viewBox="0 0 40 40" fill="none" xmlns="http://www.w3.org/2000/svg">
<g clip-path="url(#clip0_8424_43218)">
<path fill-rule="evenodd" clip-rule="evenodd" d="M-12.8672 0H52.4297V23.9453H-12.8672V0Z" fill="#E73E2D"/>
<path fill-rule="evenodd" clip-rule="evenodd" d="M15.9297 22.0391C14.4141 20.8516 11.5859 21.2578 11.1172 18.0312C13.2812 19.7109 12.8906 17.9375 16.1172 19.5391L15.9297 22.0391Z" fill="#FEC74A"/>
<path fill-rule="evenodd" clip-rule="evenodd" d="M11.0273 17.8778L11.1575 17.9788C11.6953 18.3963 12.0692 18.595 12.3762 18.6866C12.682 18.7779 12.9264 18.7648 13.2145 18.7482L13.2192 18.7479C13.5071 18.7313 13.8341 18.7124 14.2909 18.7988C14.7494 18.8854 15.3359 19.0773 16.1463 19.4796L16.1863 19.4995L15.9862 22.168L15.8883 22.0913C15.518 21.8012 15.0654 21.6069 14.5808 21.4279C14.4555 21.3816 14.3278 21.3363 14.1991 21.2906C13.833 21.1607 13.4579 21.0276 13.1021 20.8599C12.6192 20.6323 12.165 20.3381 11.8019 19.8937C11.4384 19.4488 11.1697 18.8575 11.051 18.0408L11.0273 17.8778ZM11.2087 18.1848C11.3349 18.8966 11.5828 19.4156 11.9047 19.8097C12.2511 20.2336 12.6865 20.5172 13.1587 20.7397C13.5081 20.9044 13.8739 21.0342 14.2381 21.1635C14.3682 21.2097 14.498 21.2557 14.6268 21.3033C15.073 21.4681 15.5046 21.6501 15.8721 21.9133L16.0472 19.5788C15.2652 19.1938 14.7022 19.0116 14.2663 18.9293C13.8255 18.846 13.5117 18.8641 13.2255 18.8806L13.2221 18.8808C12.934 18.8974 12.6686 18.9125 12.3382 18.8139C12.0364 18.7238 11.6845 18.5402 11.2087 18.1848Z" fill="#D8AA3F"/>
<path fill-rule="evenodd" clip-rule="evenodd" d="M16.3362 20.5781C15.2503 18.9844 12.43 18.5 12.9769 15.2891C14.5315 17.5469 14.6956 15.7344 17.2894 18.25L16.3362 20.5781Z" fill="#FEC74A"/>
<path fill-rule="evenodd" clip-rule="evenodd" d="M12.9388 15.1168L13.0316 15.2514C13.418 15.8126 13.7142 16.1152 13.9792 16.2956C14.2431 16.4752 14.4801 16.5367 14.76 16.6085L14.7626 16.6092C15.0427 16.6811 15.3609 16.7627 15.7716 16.9852C16.1827 17.208 16.6841 17.5705 17.3356 18.2023L17.3678 18.2336L16.3509 20.7176L16.2814 20.6155C16.016 20.2261 15.6432 19.9023 15.2354 19.5832C15.131 19.5015 15.0241 19.42 14.9163 19.3378C14.6058 19.101 14.2877 18.8584 13.9989 18.5886C13.6083 18.2237 13.2658 17.8044 13.0565 17.2702C12.847 16.7355 12.773 16.0907 12.9114 15.2779L12.9388 15.1168ZM13.0173 15.4622C12.9181 16.1781 12.9945 16.7479 13.1802 17.2217C13.3798 17.7313 13.7077 18.1347 14.0896 18.4915C14.3731 18.7564 14.6834 18.9931 14.9924 19.2287C15.1013 19.3117 15.2099 19.3946 15.3172 19.4786C15.6929 19.7725 16.0496 20.0783 16.3204 20.4416L17.2109 18.2665C16.5813 17.6599 16.0993 17.3138 15.7083 17.102C15.312 16.8873 15.0067 16.8089 14.7283 16.7375L14.726 16.7369C14.4466 16.6653 14.1892 16.5992 13.9045 16.4054C13.6438 16.2279 13.3636 15.946 13.0173 15.4622Z" fill="#D8AA3F"/>
<path fill-rule="evenodd" clip-rule="evenodd" d="M16.8277 19.5312C16.4371 17.6484 14.0152 16.125 15.7496 13.3594C16.3121 16.0469 17.1558 14.4375 18.5933 17.75L16.8277 19.5312Z" fill="#FEC74A"/>
<path fill-rule="evenodd" clip-rule="evenodd" d="M15.7808 13.1845L15.8146 13.3458C15.9544 14.0138 16.1104 14.4082 16.2848 14.6773C16.4584 14.9453 16.6529 15.0935 16.8833 15.2673L16.8892 15.2717C17.119 15.445 17.3803 15.6421 17.6732 16.0025C17.968 16.3654 18.2932 16.8916 18.6542 17.7236L18.6721 17.7648L16.7878 19.6658L16.7627 19.5447C16.6672 19.0848 16.4471 18.6441 16.1927 18.1942C16.1277 18.0791 16.0603 17.9633 15.9923 17.8465C15.7961 17.5093 15.595 17.1637 15.4313 16.8039C15.2101 16.3175 15.054 15.7988 15.065 15.2244C15.076 14.6495 15.2543 14.0241 15.6933 13.3241L15.7808 13.1845ZM16.8654 19.3989L18.5144 17.7352C18.164 16.9349 17.8505 16.4314 17.5701 16.0863C17.2874 15.7384 17.0366 15.5493 16.8082 15.377L16.8033 15.3733C16.5728 15.1994 16.361 15.0391 16.1733 14.7495C16.0019 14.4849 15.8528 14.1163 15.7202 13.536C15.3548 14.1609 15.2075 14.7177 15.1978 15.227C15.1873 15.7749 15.3359 16.2733 15.5522 16.7489C15.7128 17.1021 15.909 17.4392 16.1043 17.7748C16.173 17.8928 16.2415 18.0106 16.3083 18.1288C16.5426 18.5431 16.7548 18.961 16.8654 19.3989Z" fill="#D8AA3F"/>
<path fill-rule="evenodd" clip-rule="evenodd" d="M17.9609 18.5625C18.1718 16.6484 16.3359 14.4531 18.828 12.3594C18.5468 15.0859 19.8437 13.8203 20.1952 17.4063L17.9609 18.5625Z" fill="#FEC74A"/>
<path fill-rule="evenodd" clip-rule="evenodd" d="M18.9109 12.203L18.8941 12.3662C18.8242 13.0439 18.8532 13.4668 18.9376 13.7765C19.0218 14.0849 19.1621 14.286 19.3286 14.5223L19.3321 14.5273C19.4983 14.7631 19.6871 15.0311 19.8556 15.4642C20.025 15.8996 20.173 16.4991 20.2613 17.3998L20.2657 17.4445L17.9914 18.6215L17.9609 18.5625L17.8949 18.5552C17.9464 18.0876 17.8731 17.6001 17.7698 17.0935C17.743 16.962 17.7141 16.8291 17.685 16.6951C17.6026 16.3155 17.5181 15.9266 17.473 15.5359C17.4118 15.0052 17.4221 14.4639 17.608 13.9212C17.7941 13.378 18.1544 12.8385 18.7853 12.3085L18.9109 12.203ZM18.0376 18.448L20.1247 17.368C20.0367 16.5007 19.8929 15.9264 19.7319 15.5124C19.5692 15.0944 19.388 14.8372 19.2228 14.6027L19.22 14.5988C19.0535 14.3624 18.9004 14.1446 18.8095 13.8114C18.7264 13.507 18.6963 13.1105 18.7464 12.518C18.2085 12.9993 17.8985 13.4831 17.7336 13.9643C17.5563 14.4819 17.5451 15.0017 17.605 15.5207C17.6492 15.9043 17.7316 16.2836 17.8136 16.6613C17.843 16.7967 17.8724 16.9318 17.8999 17.0669C17.9951 17.5335 18.0679 17.9968 18.0376 18.448Z" fill="#D8AA3F"/>
<path fill-rule="evenodd" clip-rule="evenodd" d="M18.9766 17.7891C19.9453 16.125 19.1719 13.375 22.3047 12.4844C20.9297 14.8516 22.6328 14.2266 21.4844 17.6406L18.9766 17.7891Z" fill="#FEC74A"/>
<path fill-rule="evenodd" clip-rule="evenodd" d="M22.4445 12.3755L22.3619 12.5177C22.0201 13.1061 21.8731 13.5027 21.8233 13.8189C21.7737 14.1339 21.8194 14.374 21.8745 14.6572L21.8757 14.6631C21.9308 14.9458 21.9934 15.2671 21.9698 15.7309C21.9461 16.1971 21.8355 16.8043 21.5471 17.6618L21.5328 17.7043L18.9803 17.8553L18.9763 17.789L18.9189 17.7556C19.1556 17.3491 19.2872 16.8738 19.3997 16.369C19.4283 16.2405 19.4557 16.1099 19.4834 15.9782C19.5637 15.5957 19.6459 15.2038 19.7656 14.8266C19.927 14.3175 20.1583 13.8283 20.5506 13.4095C20.9431 12.9904 21.4933 12.6459 22.2863 12.4205L22.4445 12.3755ZM19.0929 17.7156L21.4354 17.577C21.7105 16.75 21.8146 16.1674 21.8371 15.7242C21.8599 15.2766 21.7998 14.9683 21.7451 14.6872L21.7442 14.6826C21.689 14.3994 21.6385 14.1386 21.6921 13.7982C21.7411 13.4873 21.8761 13.1144 22.1647 12.5958C21.4765 12.8148 20.9952 13.1291 20.6475 13.5003C20.2733 13.8997 20.05 14.369 19.8922 14.8667C19.7747 15.2371 19.6944 15.6194 19.6145 16C19.5866 16.133 19.5587 16.2658 19.5293 16.3978C19.4258 16.8627 19.3036 17.3155 19.0929 17.7156Z" fill="#D8AA3F"/>
<path fill-rule="evenodd" clip-rule="evenodd" d="M20.4375 17.9922C21.8906 16.7266 22.0312 13.8672 25.2812 14.0156C23.2266 15.8281 25.0469 15.7734 22.8594 18.6563L20.4375 17.9922Z" fill="#FEC74A"/>
<path fill-rule="evenodd" clip-rule="evenodd" d="M20.5718 17.9601L22.8339 18.5803C23.3609 17.881 23.6468 17.3599 23.8102 16.9455C23.9759 16.5254 24.017 16.2124 24.0544 15.9271L24.0547 15.9247C24.0923 15.6386 24.1268 15.3752 24.285 15.0695C24.4297 14.7897 24.6756 14.4782 25.1139 14.077C24.3926 14.0666 23.837 14.2125 23.3896 14.4548C22.9083 14.7154 22.5476 15.0903 22.2395 15.5128C22.0118 15.825 21.8151 16.16 21.6192 16.4935C21.549 16.613 21.4789 16.7324 21.4075 16.8504C21.1608 17.2583 20.9001 17.6485 20.5718 17.9601ZM23.3263 14.338C23.8314 14.0645 24.4619 13.9117 25.2846 13.9493L25.4486 13.9568L25.3255 14.0654C24.8148 14.5159 24.5501 14.846 24.4029 15.1305C24.2563 15.4139 24.2239 15.6565 24.1863 15.9432L24.1859 15.9457C24.1483 16.2327 24.1055 16.5589 23.9338 16.9942C23.7619 17.43 23.462 17.9724 22.9126 18.6964L22.8854 18.7322L20.3008 18.0235L20.3942 17.9421C20.7492 17.6329 21.026 17.2245 21.2938 16.7817C21.3633 16.6668 21.4322 16.5495 21.5018 16.4311C21.6986 16.0959 21.9003 15.7525 22.1322 15.4345C22.4472 15.0025 22.8218 14.6112 23.3263 14.338Z" fill="#D8AA3F"/>
<path fill-rule="evenodd" clip-rule="evenodd" d="M21.7344 18.7422C23.4922 17.9531 24.4609 15.2656 27.5234 16.3594C25.0234 17.4922 26.7813 17.9766 23.8516 20.0859L21.7344 18.7422Z" fill="#FEC74A"/>
<path fill-rule="evenodd" clip-rule="evenodd" d="M21.7348 18.7422L21.6992 18.7983L23.8543 20.1661L23.8908 20.1398C24.6266 19.61 25.071 19.1802 25.3621 18.8144C25.6524 18.4496 25.7883 18.1506 25.908 17.8874L25.9095 17.8839C26.0292 17.6207 26.1313 17.3979 26.3549 17.1694C26.5793 16.94 26.9299 16.7014 27.5513 16.4199L27.7009 16.3521L27.5462 16.2968C26.7709 16.02 26.1239 15.981 25.5614 16.0942C24.9995 16.2073 24.5273 16.4712 24.1002 16.7916C23.7848 17.0283 23.491 17.2983 23.2041 17.5619C23.1041 17.6539 23.0049 17.745 22.9059 17.8337C22.5208 18.1789 22.1371 18.4888 21.7076 18.6816L21.7348 18.7422ZM22.9946 17.9326C22.6398 18.2506 22.2766 18.5479 21.8719 18.7506L23.8496 20.0058C24.5567 19.4931 24.9814 19.0795 25.2582 18.7317C25.5383 18.3797 25.6687 18.0929 25.7876 17.8312L25.7886 17.829C25.9082 17.5658 26.0184 17.3233 26.26 17.0765C26.4807 16.8509 26.8079 16.6246 27.3456 16.3689C26.6593 16.1477 26.0858 16.1242 25.5876 16.2244C25.0516 16.3323 24.5976 16.5845 24.1799 16.8978C23.8702 17.1302 23.5836 17.3936 23.2982 17.656C23.1971 17.7488 23.0963 17.8415 22.9946 17.9326Z" fill="#D8AA3F"/>
<path fill-rule="evenodd" clip-rule="evenodd" d="M22.8203 19.9219C24.7266 19.6563 26.4141 17.3438 29.0469 19.2656C26.3359 19.6484 27.875 20.6016 24.4766 21.8047L22.8203 19.9141V19.9219Z" fill="#FEC74A"/>
<path fill-rule="evenodd" clip-rule="evenodd" d="M22.8001 19.9917L24.4563 21.8823L24.4987 21.8673C25.3523 21.5651 25.8991 21.2775 26.2814 21.0085C26.662 20.7407 26.8771 20.493 27.0663 20.275L27.0697 20.2711C27.2591 20.0528 27.4205 19.8684 27.6994 19.7126C27.9793 19.5563 28.3824 19.4265 29.0562 19.3314L29.2182 19.3085L29.086 19.212C28.4196 18.7255 27.8092 18.5044 27.2372 18.4539C26.6657 18.4034 26.138 18.5236 25.6378 18.7113C25.267 18.8504 24.9077 19.0281 24.557 19.2016C24.4365 19.2612 24.317 19.3203 24.1985 19.3771C23.7457 19.5942 23.3038 19.7799 22.8525 19.85L22.7539 19.7375V19.9982L22.8001 19.9917ZM24.2559 19.4969C23.828 19.7021 23.398 19.8853 22.9552 19.9672L24.4968 21.727C25.318 21.4332 25.8415 21.1557 26.205 20.8999C26.5723 20.6414 26.7787 20.4037 26.9669 20.1869L26.9694 20.184C27.1588 19.9658 27.3334 19.7649 27.6346 19.5967C27.9099 19.4429 28.2871 19.3184 28.8737 19.2245C28.2766 18.8165 27.7323 18.6309 27.2255 18.5862C26.6805 18.538 26.1735 18.6522 25.6845 18.8356C25.3204 18.9722 24.9699 19.1456 24.6209 19.3182C24.4992 19.3784 24.3777 19.4385 24.2559 19.4969Z" fill="#D8AA3F"/>
<path fill-rule="evenodd" clip-rule="evenodd" d="M29.6172 20.2812L20.8594 20.4766L21.2266 22.8359L29.6172 20.2812Z" fill="#FEC74A"/>
<path fill-rule="evenodd" clip-rule="evenodd" d="M29.6158 20.2149L29.6367 20.3448L21.1728 22.9218L20.7822 20.4119L29.6158 20.2149ZM20.9368 20.5413L21.2805 22.7501L29.1359 20.3584L20.9368 20.5413Z" fill="#D8AA3F"/>
<path fill-rule="evenodd" clip-rule="evenodd" d="M28.3281 17.0625L20.2188 20.1797L21.5703 22.7813L28.3281 17.0625Z" fill="#FEC74A"/>
<path fill-rule="evenodd" clip-rule="evenodd" d="M28.3047 17.0005L28.3285 17.0625L28.3714 17.1132L21.5501 22.8857L20.126 20.1444L28.3047 17.0005ZM27.9861 17.2653L20.3123 20.215L21.5913 22.6768L27.9861 17.2653Z" fill="#D8AA3F"/>
<path fill-rule="evenodd" clip-rule="evenodd" d="M21.8906 21.9297L26.0859 14.3047L19.6484 20.2969L21.8906 21.9297Z" fill="#FEC74A"/>
<path fill-rule="evenodd" clip-rule="evenodd" d="M26.0404 14.2561L26.1438 14.3367L21.9122 22.0277L19.5439 20.3031L26.0404 14.2561ZM19.7523 20.2906L21.8685 21.8316L25.828 14.6353L19.7523 20.2906Z" fill="#D8AA3F"/>
<path fill-rule="evenodd" clip-rule="evenodd" d="M21.8047 21.2969L23.1484 12.75L18.9453 20.3438L21.8047 21.2969Z" fill="#FEC74A"/>
<path fill-rule="evenodd" clip-rule="evenodd" d="M23.0904 12.7178L23.2141 12.7603L21.8582 21.3847L18.8486 20.3815L23.0904 12.7178ZM19.0422 20.306L21.7514 21.2091L23.0245 13.1112L19.0422 20.306Z" fill="#D8AA3F"/>
<path fill-rule="evenodd" clip-rule="evenodd" d="M21.2969 20.6016L19.8906 11.9922L18.3281 20.6406L21.2969 20.6016Z" fill="#FEC74A"/>
<path fill-rule="evenodd" clip-rule="evenodd" d="M19.8249 11.9804L19.9558 11.9815L21.3744 20.6669L18.248 20.7081L19.8249 11.9804ZM18.4074 20.5732L21.2185 20.5362L19.8869 12.3839L18.4074 20.5732Z" fill="#D8AA3F"/>
<path fill-rule="evenodd" clip-rule="evenodd" d="M20.5703 19.8672L16.4844 12.6797L18.0469 21.4141L20.5703 19.8672Z" fill="#FEC74A"/>
<path fill-rule="evenodd" clip-rule="evenodd" d="M16.4189 12.6914L16.542 12.6469L20.6597 19.8902L17.9986 21.5215L16.4189 12.6914ZM16.6178 13.0489L18.0951 21.3066L20.4808 19.8442L16.6178 13.0489Z" fill="#D8AA3F"/>
<path fill-rule="evenodd" clip-rule="evenodd" d="M19.9375 19.8125L13.6016 14.4609L18.1016 22.1172L19.9375 19.8125Z" fill="#FEC74A"/>
<path fill-rule="evenodd" clip-rule="evenodd" d="M13.5439 14.4946L13.644 14.4102L19.98 19.7618L19.9371 19.8125L19.9891 19.8539L18.0929 22.2342L13.5439 14.4946ZM19.845 19.8216L13.8556 14.7628L18.1095 22.0002L19.845 19.8216Z" fill="#D8AA3F"/>
<path fill-rule="evenodd" clip-rule="evenodd" d="M11.375 17.1016L18.1719 22.7187L19.2187 19.7813L11.375 17.1016Z" fill="#FEC74A"/>
<path fill-rule="evenodd" clip-rule="evenodd" d="M11.333 17.1528L11.3968 17.0387L19.3042 19.7402L18.2029 22.8303L11.333 17.1528ZM11.6978 17.2819L18.1414 22.6072L19.1339 19.8223L11.6978 17.2819Z" fill="#D8AA3F"/>
<path fill-rule="evenodd" clip-rule="evenodd" d="M18.1016 20.3828L10.1094 20.2656L18.0703 22.9219L18.1016 20.3828Z" fill="#FEC74A"/>
<path fill-rule="evenodd" clip-rule="evenodd" d="M10.0879 20.3286L10.1099 20.1992L18.1021 20.3164L18.1011 20.3828L18.1675 20.3836L18.1351 23.0137L10.0879 20.3286ZM18.0339 20.4482L10.5366 20.3383L18.0046 22.8301L18.0339 20.4482Z" fill="#D8AA3F"/>
<path fill-rule="evenodd" clip-rule="evenodd" d="M24.5859 21.8125C24.612 22.4582 24.5073 23.1025 24.2782 23.7068C24.0491 24.311 23.7003 24.8627 23.2526 25.3288C22.805 25.7949 22.2678 26.1657 21.6733 26.419C21.0788 26.6723 20.4392 26.8029 19.793 26.8029C19.1467 26.8029 18.5072 26.6723 17.9127 26.419C17.3182 26.1657 16.781 25.7949 16.3333 25.3288C15.8857 24.8627 15.5368 24.311 15.3077 23.7068C15.0786 23.1025 14.9739 22.4582 15 21.8125C15.05 20.5748 15.5768 19.4044 16.4702 18.5464C17.3636 17.6883 18.5543 17.2092 19.793 17.2092C21.0317 17.2092 22.2223 17.6883 23.1157 18.5464C24.0091 19.4044 24.536 20.5748 24.5859 21.8125Z" fill="#FEC74A"/>
<path fill-rule="evenodd" clip-rule="evenodd" d="M19.793 17.2756C18.5714 17.2756 17.3972 17.7481 16.5162 18.5943C15.6352 19.4404 15.1156 20.5946 15.0664 21.8152C15.0406 22.4519 15.1439 23.0873 15.3698 23.6832C15.5957 24.2791 15.9398 24.8232 16.3812 25.2828C16.8227 25.7424 17.3524 26.1081 17.9387 26.3579C18.525 26.6077 19.1557 26.7365 19.793 26.7365C20.4303 26.7365 21.061 26.6077 21.6472 26.3579C22.2335 26.1081 22.7633 25.7424 23.2047 25.2828C23.6462 24.8232 23.9902 24.2791 24.2161 23.6832C24.4421 23.0873 24.5453 22.4519 24.5196 21.8152C24.4703 20.5946 23.9508 19.4404 23.0697 18.5943C22.1887 17.7481 21.0145 17.2756 19.793 17.2756ZM16.4242 18.4985C17.33 17.6286 18.5371 17.1428 19.793 17.1428C21.0488 17.1428 22.256 17.6286 23.1617 18.4985C24.0675 19.3684 24.6016 20.555 24.6523 21.8098C24.6787 22.4645 24.5726 23.1177 24.3403 23.7303C24.108 24.3429 23.7544 24.9023 23.3005 25.3748C22.8467 25.8473 22.302 26.2233 21.6993 26.4801C21.0966 26.7369 20.4481 26.8693 19.793 26.8693C19.1378 26.8693 18.4894 26.7369 17.8866 26.4801C17.2839 26.2233 16.7393 25.8473 16.2854 25.3748C15.8316 24.9023 15.4779 24.3429 15.2456 23.7303C15.0133 23.1177 14.9072 22.4645 14.9336 21.8098C14.9843 20.555 15.5184 19.3684 16.4242 18.4985Z" fill="#D8AA3F"/>
<path fill-rule="evenodd" clip-rule="evenodd" d="M-12.9297 23.7031H52.6875V40H-12.9375L-12.9297 23.7031Z" fill="#005989"/>
<path fill-rule="evenodd" clip-rule="evenodd" d="M-12.9688 35.4688C-11.75 36.0313 -10 37.4453 -8.125 37.4453C-5 37.4219 -4.92188 35.3047 -1.75 35.4063C1.42969 35.4844 0.851562 37.7188 5.14062 37.7109C8.6875 37.6953 9.82812 35 12.8906 35.3203C15.1562 35.2031 16.0781 37.875 19.5547 37.9141C23.1641 37.9922 24.4844 35 26.7422 35.25C29.1641 35.25 29.9453 37.6563 33.3281 37.6719C37.6406 37.6953 38.3984 35.1719 41.0859 35.3281C43.0078 35.2891 44.5234 37.1797 47.3359 37.2266C49.5703 37.2656 51.4531 35.5703 52.7266 34.9609L52.7812 32.0859C51.4531 32.5781 49.4688 34.2031 47.4922 34.2188C44.6328 34.3281 42.875 32.3437 40.8906 32.3672C38.5156 32.3906 37.5703 34.8125 33.5469 34.8125C29.8594 34.8125 29.0156 32.3672 26.6406 32.3672C24.3203 32.3828 23.6094 35.0234 19.5859 34.9766C16.3047 34.9375 15.0312 32.4531 12.7109 32.4766C10.25 32.4766 7.71094 34.8906 4.97656 34.7734C1.22656 34.6172 0.40625 32.4766 -2.05469 32.4766C-3.89062 32.4766 -5.88281 34.4766 -8.09375 34.5078C-10.2969 34.5469 -12.7734 32.5156 -13 32.4766L-12.9688 35.4688ZM-12.9688 29.7656C-11.75 30.3359 -10 31.75 -8.125 31.75C-5 31.7266 -4.92188 29.6094 -1.75 29.7031C1.42969 29.7813 0.851562 32.0234 5.14062 32.0078C8.6875 32.0078 9.82812 29.3047 12.8906 29.625C15.1562 29.5078 16.0781 32.1797 19.5547 32.2109C23.1641 32.2891 24.4844 29.3047 26.7422 29.5547C29.1641 29.5547 29.9453 31.9609 33.3281 31.9766C37.6406 32 38.3984 29.4766 41.0859 29.6328C43.0078 29.5937 44.5234 31.4844 47.3359 31.5313C49.5703 31.5703 51.4531 29.875 52.7266 29.2656L52.7812 26.3906C51.4531 26.8828 49.4688 28.5 47.4922 28.5234C44.6328 28.625 42.875 26.6484 40.8906 26.6719C38.5156 26.6953 37.5703 29.1172 33.5469 29.1172C29.8594 29.1172 29.0156 26.6719 26.6406 26.6719C24.3203 26.6875 23.6094 29.3281 19.5859 29.2812C16.3047 29.2422 15.0312 26.7578 12.7109 26.7812C10.25 26.7812 7.71094 29.1875 4.97656 29.0703C1.22656 28.9141 0.40625 26.7734 -2.05469 26.7734C-3.89062 26.7734 -5.88281 28.7812 -8.09375 28.8125C-10.2969 28.8437 -12.7734 26.8203 -13 26.7812L-12.9688 29.7734V29.7656Z" fill="white"/>
<path fill-rule="evenodd" clip-rule="evenodd" d="M-12.9688 24.1406C-11.75 24.7031 -10 26.1094 -8.13281 26.1094C-5.00781 26.0938 -4.92969 23.9688 -1.75781 24.0703C1.41406 24.1484 0.835938 26.3828 5.125 26.375C8.66406 26.3672 9.8125 23.6641 12.8594 23.9922C15.125 23.875 16.0469 26.5469 19.5234 26.5781C23.125 26.6563 24.4453 23.6641 26.7109 23.9141C29.1172 23.9141 29.9141 26.3203 33.2891 26.3359C37.5859 26.3594 38.3438 23.8359 41.0391 23.9922C42.9531 23.9531 44.4688 25.8437 47.2734 25.8906C49.5156 25.9297 51.3906 24.2344 52.6641 23.625L52.7188 20.75C51.3906 21.25 49.4141 22.8672 47.4297 22.8828C44.5859 22.9922 42.8203 21.0156 40.8359 21.0313C38.4688 21.0547 37.5234 23.4766 33.4922 23.4766C29.8203 23.4766 28.9766 21.0313 26.6016 21.0313C24.2812 21.0547 23.5703 23.6875 19.5625 23.6406C16.2812 23.6016 15.0078 21.125 12.6875 21.1406C10.2266 21.1406 7.6875 23.5547 4.96875 23.4375C1.21094 23.2812 0.398438 21.1406 -2.0625 21.1406C-3.89844 21.1406 -5.88281 23.1406 -8.09375 23.1719C-10.2969 23.2109 -12.7656 21.1875 -13 21.1406L-12.9688 24.1328V24.1406Z" fill="white"/>
<path fill-rule="evenodd" clip-rule="evenodd" d="M10.6562 5.9375C15.4219 5.60938 14.5625 5.20312 16.4766 4.89062C18.8984 5.22656 19.1719 6.6875 20.5234 7.58594C20.5234 7.58594 20.0156 9.30469 18.3594 9.0625C18.1328 8.375 19.1562 8.15625 16.2109 6.35938C14.4922 6.25781 11.4219 6.66406 10.6641 5.9375H10.6562ZM25.4453 8.58594L22.0078 8.72656V9.57812C24.3281 9.65625 24.7422 9.34375 25.4453 8.58594Z" fill="#FFC84B"/>
<path fill-rule="evenodd" clip-rule="evenodd" d="M16.4755 4.81952L16.4861 4.82098C17.7137 4.99126 18.4008 5.44834 18.9499 5.97667C19.1309 6.15079 19.2984 6.33419 19.464 6.51564C19.5468 6.6063 19.6291 6.69646 19.7125 6.78474C19.9645 7.05167 20.2308 7.30706 20.5622 7.52738L20.6054 7.5561L20.5907 7.60586L20.5233 7.58594C20.5907 7.60586 20.5907 7.6059 20.5907 7.60594L20.5906 7.60606L20.5905 7.60642L20.5902 7.6076L20.5889 7.61178C20.5878 7.61537 20.5861 7.62053 20.584 7.62716C20.5796 7.64041 20.5731 7.65953 20.5642 7.6836C20.5465 7.73172 20.5194 7.79976 20.4818 7.88046C20.4065 8.04161 20.2882 8.2545 20.1163 8.46014C19.771 8.87302 19.2074 9.25759 18.349 9.13207L18.306 9.12578L18.2924 9.08451C18.2332 8.9048 18.2523 8.75314 18.2697 8.6155C18.2706 8.60833 18.2715 8.6012 18.2723 8.5941C18.2902 8.45078 18.3026 8.31767 18.2389 8.15222C18.1743 7.98452 18.0283 7.77616 17.7106 7.49584C17.3954 7.2177 16.9155 6.87239 16.1891 6.42855C15.6686 6.39898 15.0292 6.41517 14.3656 6.43197C13.9376 6.4428 13.4996 6.45389 13.0769 6.45312C12.5373 6.45214 12.0244 6.43164 11.5978 6.36513C11.1745 6.29914 10.8214 6.18593 10.6152 5.98825L10.654 5.9478L10.6513 5.86735C13.0327 5.70338 14.0032 5.52018 14.6158 5.34072C14.806 5.28502 14.9641 5.22866 15.121 5.1727C15.4654 5.04994 15.8044 4.92909 16.4651 4.82123L16.4755 4.81952ZM10.8568 5.99389C11.0385 6.10079 11.2983 6.17612 11.6194 6.22618C12.0353 6.29101 12.5395 6.31152 13.0771 6.3125C13.4904 6.31325 13.9245 6.30232 14.3512 6.29159C15.0282 6.27455 15.6868 6.25798 16.2149 6.28918L16.2324 6.29022L16.2474 6.29935C16.9853 6.74953 17.4775 7.10257 17.8037 7.39039C18.1295 7.67794 18.2941 7.90415 18.3701 8.10169C18.4471 8.30147 18.4302 8.46425 18.4119 8.61146C18.4112 8.61685 18.4106 8.62222 18.4099 8.62756C18.394 8.75477 18.3798 8.86803 18.4138 8.99897C19.1865 9.09638 19.6917 8.74868 20.0084 8.36993C20.1704 8.17616 20.2826 7.9745 20.3543 7.82095C20.3901 7.7443 20.4157 7.67996 20.4322 7.63503C20.435 7.62759 20.4375 7.62069 20.4397 7.61435C20.1161 7.39255 19.8542 7.13967 19.6102 6.88127C19.5234 6.78932 19.4394 6.69731 19.3559 6.60581C19.1922 6.42649 19.0303 6.24912 18.8525 6.07801C18.3231 5.56878 17.6648 5.12851 16.4772 4.96173C15.836 5.0671 15.5161 5.18131 15.179 5.30165C15.0201 5.3584 14.8574 5.4165 14.6553 5.47568C14.0452 5.65439 13.0995 5.83324 10.8568 5.99389ZM25.6127 8.50871L25.4967 8.63376C25.1436 9.0143 24.8543 9.29309 24.3554 9.4621C23.861 9.62956 23.1664 9.68749 22.0053 9.6484L21.9373 9.64611V8.65907L25.6127 8.50871ZM22.078 8.79406V9.51004C23.1956 9.54451 23.851 9.48449 24.3103 9.32891C24.721 9.18978 24.9792 8.97291 25.2759 8.66323L22.078 8.79406Z" fill="#D8AA3F"/>
<path fill-rule="evenodd" clip-rule="evenodd" d="M13.625 8.4375C14.2266 8.13282 14.5234 8.25782 15.0469 8.24219C15.3984 8.89063 15.7344 8.94532 16.5156 9.02344C16.8613 9.53575 17.3247 9.95775 17.8671 10.2541C18.4095 10.5504 19.0149 10.7124 19.6328 10.7266C21.9687 10.6641 22.7109 9.03125 24.2812 8.85157H25.9375C25.6641 8.38282 25.4453 8.10938 24.8437 8.07813C23.6094 8.01563 22.0156 8.04688 20.625 8.35938L18.6641 8.85157C18.0859 8.57032 16.6875 7.10157 15.7891 7.13282C15.2656 7.27344 15.2656 7.45313 15.0078 7.65625C14.5 7.875 13.9922 7.76563 13.625 8.4375Z" fill="#FFC84B"/>
<path fill-rule="evenodd" clip-rule="evenodd" d="M18.6715 8.78114L20.6085 8.29497L20.6101 8.29459C22.009 7.98022 23.6095 7.94916 24.8468 8.01181L24.8469 8.01181C25.1582 8.02799 25.3775 8.10752 25.5548 8.24887C25.7294 8.38817 25.8577 8.58354 25.9945 8.81811C26.0065 8.83864 26.0066 8.86402 25.9948 8.88464C25.9829 8.90526 25.961 8.91797 25.9372 8.91797H24.2847C23.6248 8.99455 23.116 9.33336 22.5511 9.70954C22.4624 9.76862 22.3723 9.82862 22.28 9.88867C21.602 10.3299 20.8201 10.7612 19.6343 10.7929C19.6332 10.793 19.6321 10.793 19.631 10.793C19.0025 10.7786 18.3866 10.6138 17.8349 10.3124C17.2924 10.0159 16.8275 9.59589 16.4778 9.08642C16.1053 9.04888 15.8232 9.01409 15.5919 8.90694C15.3579 8.79857 15.1814 8.61943 15.0078 8.30954C14.8844 8.31174 14.775 8.30706 14.6723 8.30267C14.3468 8.28875 14.0872 8.27766 13.6547 8.49674L13.6247 8.4375L13.5664 8.40566C13.7587 8.05373 13.9913 7.90316 14.2411 7.81438C14.3453 7.77736 14.4529 7.75096 14.5586 7.72505C14.5767 7.72059 14.5948 7.71616 14.6128 7.71168C14.7343 7.68148 14.8542 7.64913 14.9732 7.5987C15.0304 7.55287 15.0743 7.50813 15.1162 7.46324C15.124 7.45484 15.1319 7.44633 15.1398 7.43775C15.1752 7.39944 15.2119 7.3597 15.2541 7.32174C15.3611 7.22546 15.5019 7.14111 15.7715 7.06868C15.7764 7.06737 15.7814 7.06662 15.7864 7.06645C16.028 7.05805 16.2961 7.15011 16.5662 7.28964C16.8374 7.42981 17.1179 7.62178 17.3861 7.82177C17.5709 7.95967 17.7516 8.10267 17.9198 8.23579C17.9952 8.29551 18.0682 8.35323 18.1378 8.40762C18.3539 8.5763 18.5363 8.71088 18.6715 8.78114ZM13.8022 8.28473C14.1551 8.14649 14.4122 8.15762 14.6946 8.16984C14.805 8.17461 14.9192 8.17955 15.0446 8.17581C15.0696 8.17507 15.093 8.1885 15.1049 8.21054C15.2765 8.52703 15.4393 8.6899 15.6477 8.78643C15.8612 8.88532 16.1285 8.91802 16.5219 8.95736C16.5416 8.95933 16.5593 8.96993 16.5703 8.9863C16.9101 9.48981 17.3656 9.90456 17.8986 10.1958C18.4312 10.4868 19.0257 10.646 19.6324 10.6601C20.7815 10.629 21.5383 10.2129 22.2076 9.77735C22.2976 9.71876 22.3864 9.65958 22.4745 9.60082C23.0386 9.22452 23.5773 8.86524 24.2734 8.78559C24.2759 8.7853 24.2784 8.78516 24.2809 8.78516H25.8204C25.7077 8.60014 25.6028 8.45705 25.4719 8.3527C25.321 8.23233 25.1302 8.15953 24.84 8.14445C23.6088 8.08211 22.0222 8.11353 20.64 8.42399L18.6799 8.91597C18.6648 8.91978 18.6487 8.91812 18.6347 8.91128C18.4827 8.83735 18.2814 8.68813 18.0561 8.51231C17.985 8.45684 17.9113 8.3985 17.8355 8.33844C17.668 8.20588 17.49 8.06497 17.3067 7.92823C17.0406 7.72978 16.7669 7.54285 16.5052 7.40763C16.2454 7.2734 16.0045 7.19388 15.7985 7.19896C15.5498 7.26663 15.4304 7.34173 15.3429 7.42046C15.3057 7.45394 15.274 7.48826 15.2389 7.52622C15.2306 7.53521 15.2221 7.54441 15.2133 7.55386C15.1679 7.60242 15.1169 7.65456 15.0486 7.70841C15.0441 7.71199 15.0391 7.71496 15.0338 7.71724C14.9015 7.77421 14.7701 7.80944 14.6448 7.84057C14.6261 7.84524 14.6075 7.8498 14.5891 7.85432C14.4832 7.88032 14.3829 7.90494 14.2856 7.93953C14.1116 8.00135 13.9485 8.09457 13.8022 8.28473Z" fill="#D8AA3F"/>
<path fill-rule="evenodd" clip-rule="evenodd" d="M15.9922 7.73436C15.9986 7.77035 15.9971 7.80731 15.9877 7.84264C15.9783 7.87797 15.9613 7.91081 15.9378 7.93884C15.9143 7.96688 15.885 7.98942 15.8519 8.00489C15.8188 8.02036 15.7827 8.02838 15.7461 8.02838C15.7095 8.02838 15.6734 8.02036 15.6403 8.00489C15.6072 7.98942 15.5778 7.96688 15.5544 7.93884C15.5309 7.91081 15.5139 7.87797 15.5045 7.84264C15.4951 7.80731 15.4936 7.77035 15.5 7.73436C15.5103 7.67661 15.5406 7.62433 15.5856 7.58667C15.6306 7.54902 15.6874 7.52838 15.7461 7.52838C15.8048 7.52838 15.8616 7.54902 15.9066 7.58667C15.9515 7.62433 15.9819 7.67661 15.9922 7.73436Z" fill="#FFC84B"/>
<path fill-rule="evenodd" clip-rule="evenodd" d="M15.7461 7.59479C15.703 7.59479 15.6613 7.60994 15.6283 7.63759C15.5952 7.66525 15.573 7.70364 15.5654 7.74605C15.5606 7.77248 15.5618 7.79963 15.5687 7.82557C15.5756 7.85151 15.5881 7.87563 15.6053 7.89622C15.6225 7.91681 15.6441 7.93336 15.6684 7.94473C15.6927 7.95609 15.7192 7.96198 15.7461 7.96198C15.7729 7.96198 15.7995 7.95609 15.8238 7.94473C15.8481 7.93336 15.8696 7.91681 15.8869 7.89622C15.9041 7.87563 15.9166 7.85151 15.9235 7.82557C15.9304 7.79962 15.9315 7.77248 15.9268 7.74605C15.9192 7.70364 15.897 7.66525 15.8639 7.63759C15.8309 7.60994 15.7892 7.59479 15.7461 7.59479ZM15.543 7.53575C15.6 7.48809 15.6718 7.46198 15.7461 7.46198C15.8203 7.46198 15.8922 7.48809 15.9492 7.53575C16.0061 7.58341 16.0445 7.64957 16.0576 7.72267C16.0657 7.76821 16.0638 7.81499 16.0519 7.85971C16.04 7.90442 16.0184 7.94598 15.9887 7.98146C15.959 8.01694 15.9219 8.04548 15.88 8.06506C15.8381 8.08464 15.7924 8.09479 15.7461 8.09479C15.6998 8.09479 15.6541 8.08464 15.6122 8.06506C15.5703 8.04548 15.5332 8.01694 15.5035 7.98146C15.4738 7.94598 15.4522 7.90442 15.4403 7.85971C15.4284 7.81499 15.4265 7.76821 15.4346 7.72267C15.4477 7.64957 15.4861 7.58341 15.543 7.53575Z" fill="#D8AA3F"/>
<path fill-rule="evenodd" clip-rule="evenodd" d="M17.5934 8.42188C21.1012 4.19531 24.1637 4.71094 28.1637 4.42188C28.2966 4.91406 28.2419 5.64844 26.3434 6.29688C23.7341 6.6875 19.07 9.4375 19.0466 9.4375C18.1794 9.39063 17.57 8.48438 17.5934 8.42188Z" fill="#FFC84B"/>
<path fill-rule="evenodd" clip-rule="evenodd" d="M28.2165 4.34756L28.2316 4.40356C28.3015 4.66236 28.3231 4.99292 28.0724 5.34181C27.8254 5.68559 27.3205 6.03743 26.3662 6.36341L26.3601 6.36547L26.3538 6.36641C25.0613 6.55991 23.2519 7.34018 21.7563 8.07675C21.01 8.44433 20.3442 8.79977 19.8634 9.06336C19.6231 9.19514 19.429 9.30395 19.2943 9.37984C19.267 9.39524 19.242 9.40931 19.2196 9.42195C19.1869 9.44041 19.1595 9.45582 19.1381 9.46785C19.12 9.47797 19.1058 9.48592 19.0957 9.49137C19.0908 9.49406 19.0864 9.49641 19.0829 9.4982C19.0812 9.49904 19.079 9.50016 19.0766 9.5012C19.0755 9.50168 19.0734 9.50261 19.0708 9.50355C19.0695 9.50402 19.0663 9.50502 19.0643 9.50555C19.0612 9.50628 19.0524 9.50758 19.0466 9.50781H19.0447L19.0428 9.50771C18.586 9.48302 18.2019 9.23278 17.9381 8.98699C17.8056 8.86354 17.7014 8.73936 17.6314 8.64117C17.5965 8.5922 17.5693 8.54866 17.5512 8.51409C17.5423 8.49701 17.5347 8.48042 17.5297 8.46546C17.5272 8.45805 17.5247 8.44921 17.5234 8.43981C17.5224 8.43207 17.5208 8.41543 17.5276 8.39719L17.5934 8.42187L17.5393 8.37697C19.3018 6.25339 20.9568 5.31676 22.6766 4.87719C23.9147 4.56074 25.1882 4.5024 26.551 4.43997C27.0728 4.41607 27.6077 4.39156 28.1587 4.35174L28.2165 4.34756ZM17.6708 8.43883C17.6723 8.4419 17.674 8.44528 17.6759 8.44899C17.6901 8.47612 17.7134 8.514 17.7459 8.55951C17.8106 8.65029 17.9086 8.76732 18.0339 8.88411C18.282 9.11521 18.6292 9.33822 19.0317 9.36614C19.0407 9.3612 19.0532 9.35422 19.0693 9.34519C19.0906 9.33323 19.1177 9.31796 19.1503 9.2996C19.1727 9.28695 19.1977 9.27283 19.2253 9.25731C19.3603 9.18128 19.5548 9.07219 19.7958 8.94006C20.2777 8.67581 20.9454 8.31935 21.6942 7.95059C23.1864 7.21569 25.0103 6.427 26.3267 6.22829C27.2668 5.90644 27.737 5.56766 27.9582 5.25975C28.1591 4.98019 28.1601 4.71822 28.1098 4.49622C27.5705 4.53424 27.0498 4.55809 26.5437 4.58128C25.1867 4.64345 23.9346 4.70081 22.7114 5.01343C21.0305 5.44305 19.4074 6.35565 17.6708 8.43883Z" fill="#D8AA3F"/>
<path fill-rule="evenodd" clip-rule="evenodd" d="M24.7345 5.66088C24.7362 5.62209 24.7691 5.59207 24.8079 5.59382L27.3938 5.71101C27.4326 5.71277 27.4626 5.74564 27.4609 5.78443C27.4591 5.82323 27.4262 5.85325 27.3874 5.85149L24.8015 5.7343C24.7627 5.73255 24.7327 5.69967 24.7345 5.66088ZM24.4534 6.08794C24.4566 6.04924 24.4906 6.02047 24.5293 6.02368L26.4121 6.17993C26.4508 6.18314 26.4795 6.21712 26.4763 6.25582C26.4731 6.29452 26.4391 6.32328 26.4004 6.32007L24.5176 6.16382C24.4789 6.16061 24.4502 6.12664 24.4534 6.08794Z" fill="#D9A43E"/>
</g>
<defs>
<clipPath id="clip0_8424_43218">
<rect width="40" height="40" rx="20" fill="white"/>
</clipPath>
</defs>
</svg>
