<svg width="40" height="40" viewBox="0 0 40 40" fill="none" xmlns="http://www.w3.org/2000/svg">
<g clip-path="url(#clip0_8424_43167)">
<path d="M-7 0H46.3333V40H-7V0Z" fill="#244AA5"/>
<path d="M14.0829 18.7337C14.0829 18.7337 14.1829 18.667 14.2163 18.6587C14.2579 18.6587 14.3829 18.6087 14.3829 18.6087C14.3829 18.6087 14.4663 18.567 14.5079 18.567C14.5579 18.567 14.6413 18.617 14.6746 18.6587C14.6996 18.7003 14.8413 18.7753 14.8413 18.7753C14.8413 18.7753 14.9413 18.8087 14.9663 18.7753C14.9829 18.742 15.0246 18.717 15.0746 18.717C15.1163 18.717 15.1246 18.6753 15.1246 18.642C15.1246 18.6087 15.1413 18.567 15.1746 18.5253C15.2163 18.4837 15.2829 18.4587 15.2829 18.4587C15.2829 18.4587 15.3829 18.417 15.3913 18.3587C15.4079 18.3003 15.4996 18.2587 15.5579 18.2503C15.6163 18.2503 15.5579 18.217 15.7079 18.2337C15.8496 18.2503 15.8746 18.2003 15.8746 18.1587C15.8829 18.117 15.8746 18.0753 15.9663 18.0753C16.0579 18.092 16.0996 18.092 16.0996 18.042C16.0996 17.992 16.1829 17.9587 16.0413 17.9253C15.8913 17.8837 15.9079 17.917 15.8913 17.842C15.8913 17.7837 15.8913 17.792 15.7996 17.7837C15.6996 17.7753 15.7496 17.7253 15.7413 17.6753C15.7329 17.6253 15.7079 17.592 15.6913 17.567C15.6663 17.5337 15.6163 17.5337 15.6163 17.4837C15.6163 17.4337 15.6079 17.4003 15.5579 17.4003C15.4996 17.4003 15.4746 17.4003 15.4746 17.3587C15.4746 17.3087 15.4913 17.2753 15.5413 17.2753C15.5996 17.2753 15.6246 17.2253 15.6246 17.1753C15.6079 17.1253 15.6079 17.017 15.6079 17.017L15.6829 16.9337C15.6829 16.9337 15.8996 16.7587 15.9163 16.7253C15.9329 16.692 16.0079 16.667 16.0413 16.7337C16.0746 16.8003 16.0913 16.817 16.1246 16.8503C16.1496 16.8837 16.2329 16.8587 16.2496 16.8253C16.2663 16.792 16.2746 16.667 16.3246 16.6003C16.3746 16.542 16.4079 16.5087 16.4163 16.4503C16.4246 16.392 16.4579 16.3503 16.5163 16.3503C16.5663 16.3503 16.5996 16.2753 16.5996 16.2337C16.5996 16.192 16.6329 16.1503 16.6996 16.1337C16.7663 16.1253 16.8079 16.0837 16.8329 16.1503C16.8579 16.217 16.8829 16.2087 16.9246 16.2337C16.9746 16.2587 17.0413 16.2837 17.0746 16.2587C17.1163 16.2253 17.1329 16.1753 17.1829 16.2003C17.2329 16.2337 17.2663 16.2003 17.2829 16.142L17.3079 15.9837C17.3079 15.9837 17.3163 15.942 17.3996 15.942C17.4829 15.942 17.4246 15.892 17.4663 15.8587C17.5163 15.8253 17.5163 15.792 17.5746 15.8087C17.6329 15.8337 17.7246 15.7837 17.6829 15.7253C17.6329 15.6753 17.5329 15.592 17.5913 15.5253C17.6496 15.4587 17.6746 15.3587 17.6163 15.342C17.5579 15.3337 17.4663 15.3503 17.4579 15.292C17.4496 15.2253 17.4246 15.1753 17.4996 15.167C17.5663 15.1587 17.6829 15.1587 17.7246 15.1253C17.7579 15.092 17.8746 15.067 17.8746 14.9753C17.8746 14.8753 17.9079 14.867 17.9246 14.8087C17.9329 14.7587 17.9329 14.642 17.8829 14.592C17.8329 14.5337 17.7663 14.4587 17.7579 14.4253C17.7413 14.392 17.6996 14.342 17.6246 14.317C17.5579 14.3003 17.4913 14.2837 17.4913 14.2337C17.4913 14.1753 17.5413 14.242 17.5413 14.1003C17.5413 13.9587 17.4496 13.9337 17.4496 13.9337L17.3079 13.8503C17.3079 13.8503 17.0579 13.7837 16.9913 13.7837C16.9246 13.7837 16.8413 13.717 16.9163 13.667C16.9996 13.6253 17.0163 13.542 16.9913 13.4837C16.9579 13.4253 16.9413 13.3753 16.8329 13.3503C16.7246 13.3253 16.6996 13.3003 16.7496 13.2337C16.7913 13.1753 16.8079 13.1253 16.8663 13.1753C16.9163 13.217 17.0163 13.2337 17.0913 13.2003C17.1746 13.167 17.1996 13.1337 17.2413 13.1753C17.2746 13.2087 17.3246 13.242 17.3829 13.192C17.4413 13.1337 17.5496 13.1253 17.5996 13.1503C17.6413 13.1837 17.7663 13.1753 17.7996 13.1503C17.8329 13.1337 17.9163 13.067 17.9163 13.042C17.9163 13.017 17.9663 12.942 18.0079 12.917C18.0579 12.8837 18.1163 12.8003 18.1663 12.8003C18.2163 12.8003 18.2329 12.742 18.2329 12.717C18.2329 12.6753 18.2746 12.6003 18.2829 12.5753C18.2829 12.5503 18.3829 12.5087 18.4496 12.5753C18.5246 12.617 18.6163 12.642 18.6163 12.642C18.6163 12.642 18.6996 12.6587 18.7579 12.642C18.7842 12.6258 18.8145 12.6172 18.8454 12.6172C18.8763 12.6172 18.9066 12.6258 18.9329 12.642C19.0079 12.692 19.0996 12.692 19.0996 12.692L19.1246 12.5837C19.1246 12.5503 19.1413 12.4837 19.0996 12.4587C19.0663 12.4337 19.0163 12.4003 19.0913 12.342C19.1746 12.292 19.1746 12.3003 19.2496 12.3003L19.4329 12.3087C19.4913 12.3087 19.5829 12.367 19.5829 12.417C19.5829 12.467 19.6246 12.5003 19.6663 12.5337C19.7163 12.5587 19.7746 12.5837 19.7496 12.6337C19.7413 12.6753 19.7413 12.717 19.7996 12.7003C19.8579 12.692 19.8746 12.7253 19.8746 12.7753C19.8746 12.817 19.8913 12.842 19.9579 12.8587C20.0079 12.8753 20.0413 12.917 20.0413 12.9587C20.0413 13.0003 20.0246 13.0337 20.0413 13.0753L20.1246 13.192C20.1246 13.192 20.2329 13.317 20.0913 13.2503C19.9579 13.192 19.9246 13.167 19.8829 13.167L19.7996 13.2087L19.6913 13.2253C19.6413 13.2253 19.5913 13.3253 19.6746 13.342C19.7496 13.3587 19.7746 13.3753 19.7746 13.442C19.7746 13.5087 19.7496 13.4837 19.7079 13.5253C19.6746 13.5753 19.6413 13.542 19.5746 13.542C19.5079 13.542 19.4913 13.6003 19.4913 13.6503C19.4913 13.7003 19.5163 13.7003 19.5413 13.7337C19.5746 13.7837 19.6246 13.792 19.6746 13.7503C19.7163 13.7087 19.7579 13.6753 19.7829 13.7587C19.8163 13.842 19.8579 13.842 19.9079 13.842C19.9663 13.842 19.9913 13.842 20.0413 13.8087C20.0829 13.7837 20.1413 13.8087 20.1496 13.8837C20.1663 13.9503 20.2079 13.967 20.2579 13.992C20.3079 14.017 20.3413 14.0337 20.3413 14.0753C20.3579 14.1253 20.3829 14.142 20.4329 14.117C20.4829 14.0837 20.5579 14.067 20.5913 14.1087L20.6663 14.2087V14.3003L20.8579 14.367L20.8746 14.4503C20.8746 14.4753 20.9079 14.5003 20.9579 14.4837H21.0913C21.0913 14.4837 21.1579 14.4587 21.1579 14.4003C21.1579 14.3503 21.1829 14.3337 21.2413 14.3337C21.2829 14.3337 21.3913 14.3753 21.4163 14.317C21.4496 14.267 21.5329 14.2503 21.5996 14.2753L21.8496 14.3753C21.8496 14.3753 21.8246 14.3753 21.8829 14.467C21.9413 14.5587 22.0496 14.5587 22.0496 14.5587C22.0496 14.5587 22.0496 14.642 22.0746 14.6753C22.0913 14.7087 22.1829 14.7253 22.2246 14.692C22.2746 14.6587 22.3413 14.6087 22.3996 14.6087C22.4579 14.6087 22.4996 14.6087 22.4996 14.5753C22.4996 14.542 22.4413 14.517 22.4413 14.4587C22.4413 14.4003 22.4996 14.4087 22.5079 14.3503C22.5163 14.3003 22.5746 14.3503 22.6163 14.3837C22.6579 14.417 22.6996 14.4503 22.6996 14.4837C22.6996 14.5253 22.7829 14.6503 22.8246 14.667C22.8746 14.6837 22.9996 14.692 23.0413 14.6503C23.0746 14.6003 23.1746 14.5837 23.1663 14.692C23.1579 14.8003 23.1329 14.8087 23.1996 14.842C23.2663 14.8753 23.2829 15.0087 23.2246 15.042C23.1663 15.0753 23.1413 15.0837 23.1413 15.142C23.1413 15.2003 23.1246 15.2753 23.1746 15.3087C23.2246 15.3503 23.2579 15.3753 23.2579 15.4087C23.2579 15.4503 23.3079 15.6087 23.3079 15.6087C23.3079 15.6087 23.3413 15.767 23.3246 15.8003C23.3246 15.842 23.2996 15.9003 23.3829 15.892C23.4663 15.8837 23.4913 15.8837 23.4913 15.9503C23.4913 16.017 23.5246 16.0503 23.4746 16.0753C23.4246 16.1087 23.3913 16.192 23.4413 16.2087C23.4913 16.2253 23.5246 16.2587 23.5413 16.292C23.5496 16.3253 23.6246 16.392 23.6746 16.3503C23.7246 16.317 23.7329 16.3003 23.7746 16.292C23.8079 16.2837 23.8413 16.2587 23.7996 16.2087C23.7663 16.167 23.7496 16.1253 23.7913 16.092C23.8329 16.067 23.8496 15.9837 23.8496 15.9837C23.8496 15.9837 23.9079 15.9003 23.9746 15.9837C24.0413 16.067 24.0579 16.0337 24.0996 16.0337C24.1413 16.0337 24.1663 16.0753 24.1663 16.117C24.1663 16.167 24.2663 16.1587 24.2663 16.2253L24.2829 16.4753C24.2829 16.4753 24.2829 16.567 24.3413 16.6003C24.3996 16.642 24.3913 16.6503 24.3579 16.6837C24.3329 16.7337 24.3413 16.8087 24.3413 16.8503C24.3413 16.892 24.3579 16.892 24.3163 16.9337C24.2663 16.967 24.2413 17.017 24.2746 17.067C24.2996 17.117 24.2913 17.1503 24.3663 17.217C24.4496 17.2753 24.4413 17.3003 24.4413 17.3503C24.4413 17.392 24.5163 17.4587 24.5163 17.5003C24.5163 17.542 24.5746 17.6003 24.6246 17.6087C24.6746 17.617 24.7246 17.692 24.7246 17.742L24.7329 17.9003C24.7329 17.9003 24.7329 17.9253 24.7829 17.9253C24.8413 17.9253 24.8829 17.992 24.8996 17.9253C24.9163 17.842 24.9829 17.842 25.0163 17.817C25.0496 17.792 25.1329 17.767 25.1746 17.792C25.2163 17.817 25.2579 17.817 25.2996 17.817L25.5163 17.8253C25.5163 17.8253 25.5663 17.8253 25.5996 17.892C25.6246 17.9587 25.7079 18.042 25.6663 18.0753C25.6163 18.117 25.6163 18.1837 25.6663 18.1837C25.7163 18.1837 25.7913 18.1837 25.7913 18.2253C25.7913 18.2753 25.7913 18.3087 25.8496 18.2837C25.8913 18.2587 25.9246 18.2503 25.9413 18.2837C25.9663 18.317 25.9996 18.317 26.0496 18.342C26.0996 18.3753 26.1163 18.3503 26.1496 18.317C26.1746 18.2837 26.2913 18.2503 26.2913 18.2503C26.2913 18.2503 26.4413 18.2087 26.4996 18.2253L26.6413 18.2837C26.6413 18.2837 26.6746 18.367 26.6579 18.4253C26.6413 18.4753 26.6163 18.467 26.6413 18.5503C26.6579 18.6337 26.6163 18.6337 26.5829 18.6337C26.5413 18.617 26.4996 18.617 26.4996 18.692C26.4996 18.7587 26.4663 18.7753 26.4663 18.842C26.4663 18.9087 26.4663 18.892 26.4246 18.9253C26.3913 18.9503 26.3746 18.992 26.4329 19.0087C26.4913 19.0087 26.4746 19.0753 26.4746 19.1087L26.4663 19.2253C26.4663 19.2253 26.4663 19.267 26.4079 19.267C26.3496 19.267 26.2829 19.267 26.2746 19.3087C26.2579 19.3503 26.1913 19.417 26.2496 19.467C26.3163 19.5087 26.2996 19.5337 26.2579 19.5503C26.2246 19.5753 26.1913 19.6587 26.2746 19.6837C26.3496 19.717 26.3413 19.742 26.2913 19.7753C26.2413 19.8087 26.1496 19.842 26.1496 19.892C26.1496 19.942 26.1246 19.942 26.0663 19.9503C26.0079 19.9587 25.9829 20.0337 26.0496 20.117C26.1163 20.2087 26.1329 20.2003 26.1829 20.2003C26.2329 20.2003 26.2329 20.117 26.2329 20.117L26.4413 20.1337C26.4913 20.1337 26.5579 20.1337 26.5996 20.1087C26.6413 20.0753 26.7413 20.0337 26.7413 20.1087C26.7413 20.192 26.7663 20.192 26.8079 20.217C26.8579 20.2587 26.8663 20.2253 26.9079 20.2837C26.9496 20.3337 26.9579 20.2837 26.9913 20.2253C27.0163 20.167 27.0746 20.1087 27.1246 20.1753C27.1663 20.2503 27.1663 20.2253 27.2246 20.2253C27.2829 20.2253 27.3079 20.2587 27.3079 20.3003C27.3079 20.342 27.3579 20.342 27.4329 20.3337C27.4996 20.3337 27.5079 20.3753 27.5329 20.417C27.5579 20.4587 27.5746 20.4503 27.6163 20.4503C27.6496 20.4503 27.6913 20.4503 27.7163 20.417C27.7496 20.3837 27.7829 20.3337 27.8246 20.392C27.8663 20.442 27.9413 20.4337 27.9579 20.3753C27.9829 20.3087 28.0663 20.2587 28.1163 20.3253C28.1663 20.4003 28.1996 20.4003 28.2496 20.4087C28.2996 20.4087 28.3663 20.4087 28.3913 20.4587C28.4246 20.5087 28.5163 20.5753 28.4496 20.6253C28.3829 20.6837 28.3079 20.7503 28.3663 20.7753C28.4185 20.788 28.4653 20.8173 28.4996 20.8587C28.5413 20.892 28.6663 20.917 28.7246 20.9253C28.7829 20.9253 28.8246 20.942 28.8913 20.8837C28.9663 20.8337 29.0329 20.8337 29.0246 20.9087C29.0163 20.9753 29.0496 21.0587 29.0496 21.0587C29.0496 21.0587 29.0996 21.1753 29.0996 21.217C29.0996 21.2587 29.0913 21.267 29.1829 21.3253C29.2663 21.3753 29.2496 21.4087 29.3246 21.3587C29.3913 21.3087 29.4079 21.2753 29.4079 21.2337V21.092C29.4079 21.092 29.5079 21.0753 29.5413 21.0503C29.5829 21.017 29.7329 20.942 29.7746 20.9753C29.8163 21.0087 29.8579 21.0003 29.8996 20.9837C29.9413 20.967 30.0163 20.967 30.0579 20.967C30.0913 20.967 30.1579 20.9753 30.2413 20.917C30.3163 20.8503 30.3163 20.867 30.3663 20.917C30.4079 20.9587 30.4079 21.0087 30.3829 21.0503C30.3496 21.0837 30.3829 21.1587 30.4496 21.1587C30.5163 21.1587 30.5329 21.2003 30.5329 21.242L30.5579 21.3837C30.5579 21.417 30.5579 21.442 30.6746 21.467C30.7746 21.492 30.7579 21.5503 30.7746 21.6003C30.7996 21.642 30.7996 21.6837 30.7413 21.6837C30.6829 21.6837 30.6579 21.7087 30.6579 21.7503C30.6413 21.792 30.5579 21.8087 30.5579 21.8087L30.4746 21.792C30.4746 21.792 30.4079 21.792 30.3829 21.8253C30.3496 21.867 30.2996 21.9337 30.3329 21.992C30.3746 22.0587 30.3746 22.092 30.3329 22.1253C30.2996 22.1503 30.2746 22.2837 30.2413 22.2587C30.1996 22.2253 30.1579 22.2587 30.1163 22.2837C30.0746 22.3003 30.0829 22.4253 30.1579 22.467C30.2413 22.517 30.2579 22.5753 30.2579 22.5753L30.3413 22.7087C30.3413 22.7087 30.3163 22.7337 30.2996 22.7837C30.2746 22.8253 30.2163 22.917 30.2746 22.9337C30.3329 22.9503 30.3079 23.0503 30.2496 23.0503C30.1913 23.0503 30.1246 23.017 30.1163 23.092C30.1079 23.167 30.0746 23.142 30.0163 23.1337C29.9579 23.1337 29.8163 23.092 29.7746 23.1587C29.7329 23.2337 29.7246 23.2587 29.6579 23.2503C29.5913 23.2503 29.6163 23.3587 29.6413 23.4003L29.7246 23.5087C29.7246 23.5087 29.7829 23.5503 29.7829 23.642C29.7829 23.7253 29.7413 23.7253 29.6996 23.6587C29.6663 23.6003 29.5913 23.6087 29.5829 23.6753C29.5746 23.7503 29.5579 23.8587 29.4996 23.8587C29.4246 23.8587 29.3996 23.8753 29.3663 23.9087C29.3413 23.942 29.2913 24.0087 29.2913 24.042C29.2913 24.0753 29.2829 24.117 29.2329 24.1253C29.1829 24.1337 29.1746 24.2253 29.1746 24.2253C29.1746 24.2253 29.0579 24.2503 29.0496 24.292C29.0413 24.3337 29.0579 24.4087 28.9663 24.417C28.9289 24.4214 28.893 24.4342 28.8613 24.4544C28.8295 24.4746 28.8028 24.5017 28.7829 24.5337C28.7496 24.5753 28.7413 24.617 28.7829 24.6587C28.8246 24.7003 28.8496 24.842 28.8996 24.867C28.9413 24.892 28.9829 24.9087 28.9746 24.9753C28.9663 25.0503 28.9079 25.1003 28.9829 25.1003C29.0663 25.1003 29.1079 25.117 29.0829 25.1837C29.0496 25.242 29.0496 25.2503 28.9996 25.2753C28.9329 25.3087 28.9079 25.3087 28.9079 25.3753C28.9079 25.442 28.9246 25.4503 28.8746 25.4753C28.8246 25.5003 28.8246 25.5337 28.8246 25.592C28.8246 25.6503 28.8079 25.6253 28.7496 25.6837C28.6913 25.7503 28.6163 25.7503 28.5663 25.7337C28.5163 25.717 28.5079 25.717 28.4996 25.6587C28.4913 25.6087 28.4079 25.6087 28.3579 25.617C28.3079 25.617 28.2413 25.6753 28.2413 25.6753C28.2413 25.6753 28.1579 25.7337 28.1913 25.7753C28.2329 25.817 28.2079 25.892 28.1413 25.8837C28.0746 25.8753 27.9246 25.9503 27.8746 25.8753C27.8246 25.792 27.6913 25.742 27.6663 25.8503C27.6496 25.9503 27.7246 25.942 27.7163 26.0503C27.7163 26.1587 27.6913 26.1587 27.6496 26.192C27.6163 26.2253 27.6163 26.2587 27.5996 26.3003C27.5996 26.342 27.5829 26.442 27.6496 26.4753C27.7163 26.517 27.7496 26.6087 27.7496 26.667C27.7496 26.717 27.7496 26.7753 27.8163 26.7753C27.8829 26.7753 27.9413 26.7587 27.9496 26.7003C27.9579 26.642 28.0913 26.6003 28.1079 26.7253C28.1079 26.8503 28.1079 26.917 28.1663 26.967C28.2079 27.017 28.2496 27.092 28.2913 27.117C28.3246 27.142 28.3913 27.367 28.3913 27.367C28.2996 27.392 28.2746 27.517 28.2163 27.5337C28.1829 27.5503 28.1413 27.5337 28.1079 27.5587C28.0913 27.5837 28.0913 27.617 28.0579 27.6253C27.9829 27.6587 27.9996 27.5503 27.9079 27.592C27.8329 27.6253 27.8246 27.717 27.7163 27.6753C27.6579 27.6587 27.6246 27.4253 27.6079 27.3753L27.5163 27.2253C27.4496 27.1253 27.3246 27.2253 27.2829 27.192C27.2163 27.1503 27.2413 27.0753 27.1413 27.067C26.9413 27.0503 27.0829 27.192 26.9996 27.217C26.8329 27.2753 26.8329 27.067 26.7163 27.167C26.6746 27.2003 26.7996 27.2253 26.7663 27.2837C26.7413 27.3337 26.6246 27.417 26.6246 27.4753C26.6413 27.5587 26.7246 27.5837 26.7496 27.642C26.8329 27.8337 26.7079 27.9587 26.5246 27.8087C26.4246 27.7337 26.3996 27.5837 26.2496 27.6003C26.2079 27.6003 26.1996 27.6337 26.1663 27.642C26.1246 27.642 26.0996 27.6087 26.0579 27.617C25.9996 27.642 26.0579 27.6837 26.0413 27.717C26.0413 27.717 25.9579 27.7753 25.9579 27.8003C25.9079 27.8503 25.9246 27.9003 25.8579 27.9503C25.8079 27.992 25.7663 27.967 25.7079 28.0337C25.6496 28.092 25.6413 28.192 25.5663 28.2503C25.5246 28.2837 25.4996 28.1587 25.4496 28.242L25.4329 28.2753C25.4163 28.3003 25.4163 28.3087 25.4329 28.3337C25.5329 28.5337 25.3163 28.6003 25.2496 28.742C25.2246 28.8003 25.2996 28.8503 25.2746 28.9003L25.1496 29.042C25.1496 29.0587 25.1329 29.1087 25.1163 29.1253C25.0996 29.142 25.0329 29.1253 25.0329 29.1587C25.0329 29.192 25.0996 29.217 25.1163 29.2337C25.1329 29.2587 25.0996 29.292 25.1163 29.3003C25.2163 29.4087 25.1579 29.3753 25.2079 29.467C25.2163 29.4837 25.2496 29.4587 25.2663 29.492C25.2746 29.5253 25.2329 29.5253 25.2496 29.5587C25.2496 29.5753 25.3329 29.6753 25.3329 29.6753C25.3329 29.7087 25.1829 29.7753 25.1496 29.7753C25.0579 29.7753 25.2329 29.592 25.0829 29.592C25.0163 29.592 25.0079 29.7337 24.9996 29.7587H24.9163C24.8163 29.7587 24.7496 29.8753 24.7163 29.8837C24.6913 29.892 24.6329 29.867 24.5913 29.8837C24.5579 29.8837 24.5079 29.9253 24.4746 29.9253C24.4496 29.9253 24.4413 29.9087 24.4163 29.892C24.3746 29.867 24.2913 29.8587 24.2496 29.842C24.2163 29.842 24.1663 29.8753 24.1496 29.867C24.1246 29.8503 24.1746 29.7837 24.0996 29.7503L24.0413 29.6087C24.0663 29.5253 24.0913 29.442 24.0829 29.3503C24.0663 29.2587 23.9163 29.1837 23.8829 29.1003C23.8579 29.0503 23.8329 28.9003 23.7746 28.867C23.7111 28.8183 23.6597 28.7556 23.6246 28.6837C23.6246 28.667 23.6496 28.6337 23.6246 28.6003C23.5996 28.5753 23.5579 28.5587 23.5413 28.517C23.5329 28.4837 23.5413 28.367 23.4996 28.342C23.4579 28.317 23.1663 28.2753 23.0829 28.267C23.0496 28.267 23.0246 28.267 22.9996 28.242L22.9496 28.1837L22.8663 28.2003C22.8413 28.2003 22.7996 28.1837 22.7829 28.2003C22.6913 28.2587 22.6663 28.342 22.5746 28.417C22.4829 28.4837 22.3829 28.4837 22.2913 28.5587C22.2329 28.6087 22.1913 28.7337 22.1329 28.792C22.1079 28.817 22.0746 28.792 22.0663 28.8003C22.0163 28.8587 21.9496 28.9003 21.8996 28.9503C21.8913 28.967 21.8996 28.9837 21.8829 28.992L21.7746 29.0253H21.6746C21.6329 29.042 21.6329 29.092 21.4663 29.1253L21.4246 29.1503L21.3746 29.192H21.2996C21.2579 29.192 21.2329 29.2337 21.1996 29.2337C21.1163 29.2503 20.9663 29.192 20.8996 29.2253C20.8579 29.2337 20.7496 29.367 20.7079 29.3753C20.6829 29.3837 20.6579 29.3753 20.6246 29.367L20.5746 29.5503L20.3746 29.7253C20.3496 29.7503 20.3413 29.7837 20.3079 29.8087C20.2913 29.8337 20.2579 29.8503 20.2246 29.8503C20.1913 29.8503 20.1329 29.817 20.0913 29.817C20.0246 29.8003 19.8163 29.792 19.7579 29.8087C19.6829 29.817 19.7079 30.0087 19.5413 30.0253L19.2663 30.0587C19.2579 30.0587 19.1996 30.0253 19.1413 30.0337C19.1163 30.042 19.0496 30.117 19.0496 30.1337V30.1753L19.0663 30.2087C19.0329 30.2503 18.9496 30.317 18.9246 30.3753L18.8913 30.4087C18.8746 30.4253 18.7579 30.467 18.7496 30.4837C18.7246 30.5503 18.8329 30.617 18.8163 30.642C18.7913 30.7253 18.6746 30.8087 18.6329 30.892C18.6246 30.9253 18.6746 31.0337 18.6746 31.067C18.6579 31.1753 18.6246 31.3087 18.6329 31.4087L18.6496 31.5503L18.7079 31.592L18.8579 31.892C18.8829 32.0753 18.6079 32.0087 18.7746 32.192C18.7913 32.2253 18.8079 32.2503 18.8413 32.2753L19.0746 32.467C19.0746 32.5003 18.9079 32.5253 18.8829 32.5503C18.7996 32.6337 18.7413 32.767 18.6663 32.8503C18.6163 32.892 18.5829 32.842 18.5163 32.9587C18.4996 33.0003 18.5163 33.092 18.4913 33.1253C18.4496 33.1587 18.4246 33.1087 18.3829 33.1253C18.3663 33.1253 18.3579 33.1837 18.3413 33.192C18.2996 33.2337 17.9079 33.442 17.8746 33.417C17.8579 33.4087 17.8329 33.342 17.8329 33.3253C17.8329 33.3003 17.7996 33.2503 17.7829 33.242C17.6829 33.1587 17.5329 33.1337 17.4329 33.242C17.4079 33.267 17.4079 33.3087 17.3746 33.3253L17.2079 33.4587L17.1663 33.5003C17.1246 33.5003 17.0329 33.392 16.9996 33.3587C16.9663 33.3087 16.8329 33.192 16.8246 33.1337C16.8246 32.9337 16.6663 32.7253 16.6079 32.5337H16.6996C16.8079 32.4587 16.7829 32.2837 16.9746 32.3503C16.9996 32.317 16.9996 32.2837 17.0413 32.267C17.0579 32.2503 17.0913 32.242 17.0996 32.2253C17.1663 32.1253 17.2413 31.742 17.1746 31.642C17.1163 31.5587 17.0496 31.5587 17.0079 31.417C16.9913 31.3753 17.0079 31.3337 17.0079 31.2837L16.9246 31.0253C16.9079 31.0003 16.8663 30.9837 16.8663 30.967L16.8496 30.7087C16.7913 30.5253 16.5663 30.417 16.5579 30.392L16.4746 30.2503C16.4413 30.192 16.4413 30.167 16.4246 30.117C16.4163 30.092 16.3746 30.067 16.3746 30.042C16.3746 29.992 16.5079 29.9003 16.4996 29.817C16.4996 29.792 16.4163 29.7087 16.4329 29.667C16.4496 29.617 16.5329 29.517 16.5329 29.4587C16.5329 29.392 16.3996 29.242 16.3829 29.1753C16.3746 29.1337 16.4329 29.1087 16.4163 29.0837C16.3996 29.0503 16.2663 28.9253 16.2496 28.892C16.2246 28.867 16.2913 28.8337 16.2496 28.7837C16.1996 28.742 16.2413 28.7503 16.2246 28.717C16.2079 28.6753 16.1663 28.6337 16.1413 28.592C16.1246 28.5503 16.0079 28.1337 16.0163 28.1087C15.9913 28.0837 15.9579 28.0587 15.9413 28.0253L15.9079 27.9253C15.9079 27.9253 15.7746 27.8837 15.7496 27.842C15.7329 27.817 15.7246 27.7087 15.6913 27.6587C15.6746 27.6337 15.6496 27.642 15.6329 27.6253C15.6163 27.6087 15.6163 27.5837 15.6079 27.567C15.5663 27.517 15.4913 27.567 15.4413 27.367C15.3579 27.317 15.2996 27.2837 15.2413 27.217L15.2079 27.1837C15.1579 27.167 15.0829 27.1587 15.0413 27.1253C15.0163 27.1253 14.8913 27.1253 14.8746 27.1087L14.8413 27.042C14.7746 27.0337 14.6579 27.042 14.5996 26.992C14.5579 26.9503 14.5496 26.7587 14.4663 26.7837C14.4554 26.7804 14.4438 26.7804 14.4329 26.7837C14.3746 26.7003 14.1913 26.7003 14.1163 26.6503C14.0996 26.642 14.0329 26.6503 14.0329 26.6337L14.0413 26.5253L13.9496 26.4087C13.8746 26.392 13.8996 26.3837 13.8663 26.3587C13.7413 26.3587 13.7246 26.3753 13.6496 26.442C13.6329 26.4587 13.5913 26.467 13.5663 26.4753C13.5246 26.5003 13.5163 26.5753 13.4579 26.542L13.4079 26.5003C13.3746 26.467 13.3579 26.4837 13.3413 26.4337C13.2413 26.3753 12.9663 26.5587 12.9079 26.4337C12.8579 26.4087 12.8246 26.4337 12.7829 26.4003C12.7663 26.3837 12.8413 26.1503 12.6413 26.067L12.7746 25.9753C12.7913 25.9503 12.7746 25.9087 12.7746 25.892C12.7746 25.8503 12.7996 25.7753 12.7913 25.7503C12.7913 25.7253 12.7579 25.7003 12.7496 25.667C12.7329 25.642 12.7496 25.6003 12.7329 25.567L12.6663 25.5337C12.6163 25.492 12.5663 25.467 12.5246 25.417L12.4913 25.3753C12.4579 25.3503 12.3413 25.3087 12.3413 25.2587C12.3413 25.242 12.3746 25.2337 12.3746 25.217C12.3829 25.192 12.3746 25.167 12.3996 25.1503C12.4496 25.067 12.5746 25.1087 12.5579 24.967C12.5496 24.9003 12.4996 24.8503 12.4913 24.7837C12.4663 24.767 12.4663 24.742 12.4496 24.7253C12.3246 24.717 12.3413 24.592 12.2996 24.5587C12.1746 24.4753 12.0746 24.5253 12.2163 24.3587C12.2329 24.3003 12.0913 24.2087 12.0663 24.1837C12.0163 24.1337 12.0413 24.0253 12.0163 23.9753C12.0163 23.9503 11.9246 23.9003 11.8996 23.867L11.8579 23.7837V23.7753C11.8829 23.7503 11.8746 23.7087 11.8579 23.692C11.8496 23.667 11.8079 23.6753 11.7996 23.6587C11.6829 23.5587 11.5496 23.5087 11.3913 23.4503C11.3496 23.4337 11.3663 23.4003 11.3246 23.3837L11.0746 23.2837C11.0579 23.2837 11.0413 23.192 11.0246 23.1587L10.9496 23.0753C10.9496 22.992 10.8996 22.992 10.8329 22.942V22.892L10.8829 22.717C10.8913 22.6837 10.9329 22.6503 10.9246 22.617L10.8913 22.4253C10.8246 22.2587 10.7496 22.2753 10.7913 22.0503C10.7913 22.0003 10.7829 21.9753 10.8163 21.9337L10.8329 21.9087L10.9329 21.8337C10.9663 21.7837 10.9913 21.6753 11.0329 21.642L11.1829 21.542C11.1996 21.5253 11.2163 21.467 11.2079 21.442C11.1746 21.4253 11.1413 21.4337 11.1079 21.4253C11.0913 21.4253 11.0496 21.392 11.0163 21.392C11.0079 21.3753 10.9913 21.367 10.9913 21.3503L10.9746 21.3337C10.9329 21.3337 10.8913 21.3087 10.8579 21.292C10.8163 21.2753 10.7579 21.2753 10.7163 21.2503C10.6329 21.2087 10.5496 21.0837 10.4746 21.067C10.3746 21.042 10.3079 21.0753 10.2079 21.0837C10.1496 21.0837 10.1496 21.0503 10.0996 21.0337C10.0329 21.0087 10.0829 21.067 9.93294 21.017C9.90794 21.0003 9.93294 20.9503 9.93294 20.9337H9.84961C9.73294 20.9003 9.77461 20.7837 9.74128 20.7087C9.73294 20.692 9.67461 20.692 9.65794 20.692C9.64128 20.692 9.64128 20.6753 9.64128 20.6753L9.65794 20.667C9.67461 20.6337 9.59961 20.5503 9.59961 20.5337C9.60794 20.5087 9.76628 20.4837 9.78294 20.4837C9.79128 20.4587 9.77461 20.442 9.76628 20.4253C9.76628 20.3837 9.79128 20.3253 9.80794 20.2837V20.267C9.75794 20.242 9.74961 20.2087 9.70794 20.1837C9.70794 20.1587 9.73294 20.1503 9.74128 20.1253C9.81628 19.917 9.93294 20.0837 10.0329 19.892C10.0413 19.8753 10.0746 19.8337 10.0829 19.8003H10.0996C10.1163 19.8003 10.1496 19.817 10.1663 19.8003C10.1829 19.7837 10.2079 19.7837 10.2329 19.7753H10.2746C10.4579 19.742 10.4163 19.6753 10.5246 19.6003C10.5579 19.5753 10.6413 19.567 10.6746 19.5503C10.7163 19.5753 10.7746 19.6337 10.8496 19.667C10.9079 19.6837 11.0996 19.7253 11.1329 19.7503C11.1746 19.767 11.1829 19.817 11.2163 19.8337C11.3246 19.9003 11.2579 19.8003 11.3663 19.817C11.4746 19.842 11.5579 19.9337 11.6579 19.9753L11.7413 19.967C11.7663 19.9587 11.9329 19.9253 11.9496 19.9337L12.0163 19.9587C12.0413 19.967 12.0579 19.917 12.0829 19.917C12.1496 19.9337 12.1496 19.9587 12.2496 19.9503C12.2496 19.9503 12.2996 19.6753 12.3496 19.667C12.3746 19.6587 12.4496 19.7253 12.4663 19.7337C12.4996 19.742 12.4663 19.6753 12.4663 19.6753C12.4496 19.6503 12.3996 19.4837 12.4079 19.467C12.4079 19.467 12.4496 19.4837 12.4746 19.4753C12.5246 19.4587 12.5996 19.442 12.6413 19.4003L12.7246 19.2753C12.7329 19.2587 12.7079 19.2087 12.7246 19.192L12.7996 19.142C12.8329 19.1087 12.8329 19.0587 12.8829 19.0337C13.0496 19.017 13.1079 18.8837 13.2663 18.867H13.3163L13.3496 18.917C13.3496 18.9253 13.4579 18.992 13.4746 18.9837C13.4913 18.9837 13.4996 18.9587 13.5163 18.9503C13.5413 18.9587 13.6329 18.9087 13.6413 18.8753C13.6413 18.8753 13.6246 18.8503 13.6329 18.8253C13.6745 18.7883 13.7191 18.7549 13.7663 18.7253H13.8829C13.8996 18.742 13.8996 18.7753 13.9246 18.7753H14.0246C14.0413 18.7753 14.0496 18.7337 14.0829 18.7337Z" fill="#D0A650"/>
<path d="M22.3254 6.11621L23.6671 10.2495L20.1504 7.69121H24.5004L20.9837 10.2495L22.3171 6.11621H22.3254ZM27.5587 7.04121L28.8921 11.1745L25.3837 8.61621H29.7254L26.2087 11.1745L27.5587 7.04121ZM32.5504 8.85788L33.8837 12.9912L30.3754 10.4329H34.7171L31.2004 12.9995L32.5504 8.86621V8.85788Z" fill="white"/>
<path d="M17.0083 6.11621L15.6666 10.2495L19.1833 7.69121H14.8333L18.3499 10.2495L17.0166 6.11621H17.0083ZM11.7749 7.04121L10.4416 11.1745L13.9499 8.61621H9.60827L13.1249 11.1745L11.7749 7.04121ZM6.80827 8.85788L8.15827 12.9912L4.6416 10.4329H8.98327L5.4666 12.9912L6.80827 8.85788Z" fill="white"/>
</g>
<defs>
<clipPath id="clip0_8424_43167">
<rect width="40" height="40" rx="20" fill="white"/>
</clipPath>
</defs>
</svg>
