<svg width="40" height="40" viewBox="0 0 40 40" fill="none" xmlns="http://www.w3.org/2000/svg">
<g clip-path="url(#clip0_8424_43226)">
<path fill-rule="evenodd" clip-rule="evenodd" d="M-10 0H50.0625V40H-10V0Z" fill="#FF0000"/>
<path fill-rule="evenodd" clip-rule="evenodd" d="M8.24219 20.3984C9.30469 19.1016 11.5156 20.3672 13.3203 19.4375C11.1797 19.5547 10.0156 18.4063 8.32812 18.5703C10.0781 17.4922 11.5703 18.9219 13.5234 18.3516C10.9375 18.1328 11.0469 16.9688 8.6875 16.8047C10.7812 15.9141 11.8125 17.7266 13.8672 17.3125C11.4453 16.7578 11.1328 15.3359 9.33594 15.0312C11.9609 14.6406 11.7891 16.1875 14.3594 16.375C11.75 15.2578 12.4297 14.2812 10.25 13.4297C12.6953 13.375 12.5312 15.0703 15.0156 15.5078C12.8906 14.1641 13.1484 12.9375 11.4062 11.9766C13.4766 12.0156 13.6719 14.1328 15.7891 14.7891C13.9063 13.2969 14.3984 12.0312 12.7734 10.6953C14.8359 11.1797 14.5312 13.0078 16.6797 14.1797C15.0859 12.4141 15.6953 11.1484 14.3125 9.70312C16.2969 10.3359 15.5391 12.0781 17.5938 13.7344C16.4219 11.7891 17.1484 10.5469 15.9844 8.91406C17.8281 9.85938 16.9375 11.6406 18.6406 13.4063C17.8359 11.4141 18.6406 10.1797 17.8203 8.41406C19.3984 9.58594 18.4609 11.4844 19.7344 13.2969C19.2656 10.7969 20.3438 10.3906 20.0078 8.20312C21.2031 9.67188 19.8672 11.1406 20.7891 13.3047C20.6719 10.8438 21.9844 10.2734 21.7578 8.30469C22.9375 10.0703 21.0938 11.6094 21.8672 13.5C22.0625 11.1719 23.5938 10.5625 23.6172 8.75C24.5547 10.4141 22.5234 11.6172 22.8516 13.8281C23.5156 11.3906 25.1484 11.0938 25.3516 9.45313C25.9062 11.375 23.6797 12.2656 23.8125 14.4062C24.4766 12.2422 26.5156 11.9844 26.9375 10.3906C27.1953 12.4219 25.1875 12.7891 24.6172 15.0391C25.6719 13.2031 27.5234 13.0547 28.3516 11.6016C28.2891 13.6172 26.0234 13.8828 25.3281 15.7656C26.6328 14.1641 28.2734 14.4375 29.5781 13.0234C29.4375 14.8438 27.1328 14.7422 25.9063 16.625C27.3203 15.3203 29.4531 15.7109 30.5391 14.5859C30.4844 16.1953 27.6562 16.0703 26.3203 17.5156C27.9609 16.6094 30.0547 17.1406 31.2578 16.3047C31.0391 17.7109 28.0547 17.3828 26.625 18.4922C28.5938 17.9453 30.1172 18.7813 31.7031 18.1797C30.9297 19.5469 28.2188 18.6797 26.7812 19.5703C28.5 19.2813 30.3125 20.3203 31.8672 19.9844C31.3594 21.1719 28.3828 19.9062 26.7891 20.6484C28.6953 20.6328 29.9375 21.8594 31.7109 21.7734C30.75 22.8516 28.1406 21.375 26.6172 21.625C28.4766 22.0156 29.8984 23.5469 31.3047 23.625C30.1406 24.5078 27.9844 22.4922 26.2266 22.7422C28.0391 23.2266 29.5547 25.2813 30.5859 25.3281C29.4688 26.0938 27.2656 23.5703 25.7578 23.6641C27.5938 24.4922 28.4297 26.5938 29.6406 26.8906C28.1484 27.3672 26.6797 24.6094 25.0781 24.5078C26.9375 25.6797 27.0391 27.4766 28.4688 28.2734C26.9609 28.6406 25.8906 25.5234 24.3047 25.2578C25.8281 26.375 26.0625 28.7734 27.0703 29.5234C25.5391 29.6016 24.9844 26.3438 23.4141 25.875C24.7578 27 24.4375 29.4375 25.4844 30.4844C23.8906 30.1484 24.0938 27.3125 22.4297 26.3516C23.625 27.8672 23.0156 30.0156 23.7969 31.2266C22.2422 30.6016 22.9141 28.0547 21.4375 26.6172C22.2422 28.2266 21.375 30.1016 22.0156 31.6563C20.5938 30.9609 21.5469 27.9531 20.4609 26.7578C20.9609 28.6172 20.0391 30.1562 20.4141 31.8203C18.9609 30.1406 20.6328 28.4453 19.375 26.7344C19.7031 28.6953 18.3281 30.0703 18.5469 31.7109C17.3984 30.3672 19.1719 28.2188 18.2734 26.5234C18.4609 28.4531 16.6875 30.1484 16.8125 31.3672C15.875 29.8047 17.8516 27.9609 17.3203 26.1875C17.2109 28.0313 15.4141 29.0313 15.0781 30.7109C14.4766 28.8594 16.6094 27.5234 16.4219 25.7031C15.8125 27.4297 14.0781 28.125 13.4687 29.8047C12.9687 27.9531 15.5 26.9766 15.5625 25.0391C14.7812 26.8516 12.7109 27.2578 12.0234 28.6484C11.7656 26.8125 14.6641 25.9922 14.7734 24.25C13.8359 25.9219 11.5703 25.9922 10.7891 27.3203C10.6719 25.4922 13.7266 25.2656 14.2031 23.3516C13.2734 24.7734 10.7891 24.5938 9.75 25.75C9.91406 24.0547 13.2188 23.9531 13.75 22.4219C12.5156 23.6094 10.2344 23.125 8.94531 24.0625C9.66406 22.3906 12.7656 22.7422 13.4609 21.5391C12.0938 22.25 9.66406 21.5547 8.46094 22.2734C9.55469 20.6953 11.9609 21.6406 13.3281 20.5547C11.1094 20.875 9.77344 19.9922 8.23438 20.3984H8.24219Z" fill="#FFFF00"/>
<path fill-rule="evenodd" clip-rule="evenodd" d="M27.8125 20.0078C27.8125 22.0643 26.9956 24.0365 25.5414 25.4907C24.0873 26.9448 22.1151 27.7617 20.0586 27.7617C18.0021 27.7617 16.0299 26.9448 14.5758 25.4907C13.1216 24.0365 12.3047 22.0643 12.3047 20.0078C12.3047 17.9524 13.1212 15.9811 14.5746 14.5277C16.028 13.0743 17.9993 12.2578 20.0547 12.2578C22.1101 12.2578 24.0814 13.0743 25.5348 14.5277C26.9882 15.9811 27.8047 17.9524 27.8047 20.0078H27.8125Z" fill="#FFFF00"/>
<path fill-rule="evenodd" clip-rule="evenodd" d="M26.8125 20.0234C26.8125 21.8116 26.1022 23.5265 24.8378 24.7909C23.5734 26.0553 21.8585 26.7656 20.0703 26.7656C18.2822 26.7656 16.5673 26.0553 15.3029 24.7909C14.0385 23.5265 13.3281 21.8116 13.3281 20.0234C13.3281 18.2353 14.0385 16.5204 15.3029 15.256C16.5673 13.9916 18.2822 13.2813 20.0703 13.2812C21.8585 13.2813 23.5734 13.9916 24.8378 15.256C26.1022 16.5204 26.8125 18.2353 26.8125 20.0234Z" fill="#FF0000"/>
<path fill-rule="evenodd" clip-rule="evenodd" d="M25.875 20.0391C25.875 21.5744 25.2651 23.0469 24.1794 24.1325C23.0938 25.2182 21.6213 25.8281 20.0859 25.8281C18.5506 25.8281 17.0781 25.2182 15.9925 24.1325C14.9068 23.0469 14.2969 21.5744 14.2969 20.0391C14.2969 18.5037 14.9068 17.0312 15.9925 15.9456C17.0781 14.8599 18.5506 14.25 20.0859 14.25C21.6213 14.25 23.0938 14.8599 24.1794 15.9456C25.2651 17.0312 25.875 18.5037 25.875 20.0391Z" fill="#FFFF00"/>
<path fill-rule="evenodd" clip-rule="evenodd" d="M15.1562 16.25C16.7578 16.2109 18.75 16.3594 20.0703 17.4063C21.4808 16.5259 23.1415 16.1334 24.7969 16.2891L25.6562 17.8594C24.3209 17.7375 22.9765 17.958 21.75 18.5C22.6266 19.1465 23.3313 19.998 23.8026 20.98C24.2738 21.962 24.4972 23.0445 24.4531 24.1328C24.2422 24.3984 23.9062 24.6875 23.6953 24.9531C24.0078 22.7266 22.8359 20.2422 21.125 18.9375C22.5156 20.9375 23.3359 22.7344 23.1094 25.2187L22.3281 25.7188C22.6875 23.5313 22.1719 20.9531 20.5547 19.4688C21.4922 20.8359 22.4141 23.2969 21.8359 25.7969C21.5859 25.875 21.1953 26.0859 20.9453 26.1562C21.2516 25.1306 21.3348 24.0512 21.1892 22.9907C21.0437 21.9302 20.6728 20.9131 20.1016 20.0078C19.0234 21.5547 18.6719 23.9141 19.2812 26.1016C18.9844 26.0234 18.7578 25.9297 18.4531 25.8594C18.0078 23.5156 18.625 20.8594 19.6953 19.4766C18.6016 20.1094 17.5781 22.8125 17.8672 25.5703L17.1406 25.2344C16.7891 23.1797 17.7187 20.5 19.0547 18.9531C17.5391 19.9063 16.3047 22.2578 16.5156 24.7813C16.2812 24.5781 16.0703 24.4766 15.8359 24.2656C15.5703 22.0625 16.8516 19.8438 18.3437 18.5156C17.0859 17.9453 16 17.8359 14.4375 17.8594C14.6797 17.3516 14.9062 16.7578 15.1562 16.2422V16.25Z" fill="#FF0000"/>
</g>
<defs>
<clipPath id="clip0_8424_43226">
<rect width="40" height="40" rx="20" fill="white"/>
</clipPath>
</defs>
</svg>
