<svg width="56" height="56" viewBox="0 0 56 56" fill="none" xmlns="http://www.w3.org/2000/svg">
<g clip-path="url(#clip0_3318_24736)">
<path d="M28 56C43.464 56 56 43.464 56 28C56 12.536 43.464 0 28 0C12.536 0 0 12.536 0 28C0 43.464 12.536 56 28 56Z" fill="#F0F0F0"/>
<path d="M28 0C16.8991 0 7.30732 6.46023 2.77832 15.8261H53.2215C48.6926 6.46023 39.1008 0 28 0Z" fill="#D80027"/>
<path d="M28 56C39.1008 56 48.6926 49.5397 53.2216 40.1738H2.77832C7.30732 49.5397 16.8991 56 28 56Z" fill="#D80027"/>
<path d="M35.3041 32.8696L27.9997 19.4783L20.6953 32.8696H26.1736V36.5217H29.8258V32.8696H35.3041Z" fill="#6DA544"/>
</g>
<defs>
<clipPath id="clip0_3318_24736">
<rect width="56" height="56" fill="white"/>
</clipPath>
</defs>
</svg>
