<svg width="40" height="40" viewBox="0 0 40 40" fill="none" xmlns="http://www.w3.org/2000/svg">
<g clip-path="url(#clip0_8424_43246)">
<path fill-rule="evenodd" clip-rule="evenodd" d="M-10 30H50V40H-10V30ZM-10 0H50V10H-10V0Z" fill="#EE161F"/>
<path fill-rule="evenodd" clip-rule="evenodd" d="M-10 10H50V30H-10V10Z" fill="white"/>
<path d="M19.6954 10.1563C19.086 11.3672 18.6798 11.3672 17.6642 12.1875C17.2579 12.5859 16.6485 12.7891 17.461 13.2031C16.6407 13.6016 16.2345 13.8047 15.8282 14.6172L16.0314 14.8203C16.0314 14.8203 16.8126 14.4453 16.8439 14.6172C16.9845 14.7813 15.8282 15.3984 15.6798 15.5L14.8204 16.0469C13.797 16.8516 13.1798 16.6484 12.5782 17.8672L14.6095 17.6641C15.0157 19.0859 13.5939 19.2891 12.5782 19.8984L10.9454 20.9141C11.3595 22.3359 12.5782 21.5234 13.5939 21.1172L13.797 21.3203V21.7266L11.7657 22.7422C11.7657 22.7422 9.35948 24.1172 9.32042 24.1641C9.3048 24.2422 9.32042 24.5703 9.32042 24.5703C10.1329 24.7734 11.3517 24.9766 12.172 24.5703C13.1876 24.1641 13.3907 23.7578 14.6095 23.7578C13.4364 24.6731 12.0277 25.2366 10.547 25.3828V26.1953C11.7657 26.1953 12.5782 26.1953 13.5939 25.9922L16.2345 25.1797C16.8439 25.1797 17.461 25.7891 17.2501 26.3984C16.6485 28.6328 14.2032 28.2266 13.3907 30.0547L16.6407 28.8281C17.4532 28.4219 18.2657 28.0234 19.2814 28.2266C20.5001 28.6328 20.5001 29.4453 22.1251 29.8516L21.7189 28.8359C22.1251 29.0391 22.5314 29.0391 22.9454 29.2422C23.961 29.6484 24.1642 30.0547 25.3829 29.8516C24.3673 28.6328 24.1642 28.8359 23.3517 28.0234C22.5392 26.8047 22.1251 24.9766 23.3517 24.7734L24.7735 25.1797C26.1954 25.3828 26.1954 24.9766 28.2267 25.7891C29.4532 26.1953 29.8595 26.8047 31.2735 26.3984C30.672 24.9766 28.4376 23.9609 27.0079 23.5547C28.6407 22.5391 28.2267 23.9609 30.4689 23.3516V22.9453C28.8517 21.7188 28.2345 20.7031 26.0001 20.7031L29.461 20.2969V19.8906C29.461 19.8906 26.047 19 25.9689 18.9609C25.9923 18.8594 26.0782 18.7031 26.3048 18.6094C26.9532 19.0312 28.9064 18.9844 29.0235 18.9766C28.961 18.4766 28.0314 18.0625 27.2267 17.6563C27.2267 17.6563 23.7345 15.5078 23.7189 15.3203C23.7892 14.7734 25.1485 15.4063 26.6095 15.8281C26.2032 15.0156 25.3907 14.6094 24.5782 14.4062L25.797 14.2031C24.9845 12.375 22.9532 12.5781 21.7345 11.7656C20.9142 11.1563 20.9142 10.75 19.6954 10.1484V10.1563Z" fill="#00A850"/>
<path fill-rule="evenodd" clip-rule="evenodd" d="M17.5 23.6719C17.6484 23.1953 17.8438 22.7656 16.9375 22.3516C16.0312 21.9375 17.3906 24 17.5 23.6797V23.6719ZM18.5703 22.7109C18.3906 22.7344 18.2891 23.3984 18.6562 23.5859C19.0625 23.6484 18.7344 22.7187 18.5703 22.7109ZM19.625 22.6328C19.4375 22.6953 19.4297 23.6328 20.0938 23.4609C20.7656 23.2969 20.0937 22.5625 19.625 22.6406V22.6328ZM20.8594 20.2344C21 20 20.8516 19.0625 20.2812 19.4531C19.7031 19.8516 20.6719 20.2969 20.8594 20.2344ZM19.6094 19.4531C19.7891 19.3828 19.8047 18.8047 19.2969 18.9609C18.8047 19.1094 19.4766 19.5703 19.6094 19.4531ZM18.4844 19.6797C18.4844 19.6797 18.1328 19.1953 17.8594 19.2969C17.5234 19.625 18.5078 19.6875 18.4844 19.6797ZM14.6094 21.2266C14.7578 21.2422 15.8594 21.0469 16.2422 20.6172C16.625 20.1875 14.2812 20.7969 14.2812 20.8047C14.2812 20.8125 14.5 21.1875 14.6094 21.2266ZM25.6328 18.4922C25.6875 18.3906 25.0469 17.9375 24.6641 18.1172C24.5625 18.4531 25.6328 18.5625 25.6328 18.4922ZM23.4609 17.3984C23.5859 17.2266 23.1875 16.5156 22.3906 16.9141C21.5938 17.3047 23.2266 17.6797 23.4609 17.4062V17.3984ZM20.9531 16.9844C20.9531 16.9844 21.1484 16.3437 21.625 16.4687C22.1719 16.8828 20.9766 17.0078 20.9531 16.9844ZM20.4844 16.5C20.4063 16.3203 19.9141 16.4219 19.3438 16.8047C18.7656 17.1719 20.6563 16.9141 20.4844 16.4922V16.5ZM21.9453 14.7734C21.9453 14.7734 22.4531 14.5391 22.6094 14.7734C22.8203 15.1094 21.9375 14.7734 21.9453 14.7734ZM21.5156 14.5469C21.4141 14.3437 20.8516 14.3203 20.8672 14.625C20.7734 14.8594 21.6016 14.8125 21.5156 14.5469ZM20.1719 14.5469C20.1172 14.4297 19.3125 14.5469 19.0781 15.0312C19.4687 15.2187 20.3516 14.8516 20.1719 14.5469ZM18.4531 15.0391C18.4531 15.0391 17.4062 15.6875 17.3359 16.1562C17.3672 16.5625 18.6484 15.4219 18.6484 15.4219C18.6484 15.4219 18.7578 14.9687 18.4609 15.0391H18.4531ZM17.2891 14.4531C17.3203 14.3203 17.8125 14.0156 17.8516 14.0391C17.8906 14.1719 17.4531 14.5312 17.2891 14.4531ZM17.625 16.9219C17.6484 16.7266 16.375 16.7422 16.8516 17.3281C17.2578 17.8203 17.7109 17.0078 17.625 16.9219ZM16.4531 17.7578C16.3906 17.6328 16.2969 17.2891 16.125 17.2578C15.9766 17.2578 15.2109 17.4141 15.1484 17.5391C15.1172 17.6406 15.4687 18.2734 15.5859 18.2891C15.7266 18.3437 16.4375 17.8203 16.4609 17.7578H16.4531ZM23.3594 22.0703C23.3984 21.9297 24.7109 21.4844 25.1562 21.9141C25.6875 22.6406 23.3281 22.3047 23.3594 22.0703ZM26.9531 22.9219C27.2422 22.4375 26.0703 21.8594 25.5781 22.4141C25.75 23.0781 26.7188 23.3203 26.9531 22.9219Z" fill="white"/>
<path fill-rule="evenodd" clip-rule="evenodd" d="M18.0308 14.0002C18.0439 14.0009 18.0682 14.0039 18.0936 14.0191C18.1205 14.0352 18.1404 14.0609 18.1492 14.091C18.165 14.1446 18.1532 14.195 18.1399 14.23C18.1258 14.2667 18.1044 14.3016 18.0812 14.3326C18.0347 14.3951 17.9697 14.4579 17.9007 14.5113C17.8317 14.5646 17.7525 14.6134 17.6749 14.6437C17.6046 14.6712 17.5033 14.6962 17.4131 14.6532C17.3599 14.6279 17.3316 14.569 17.3451 14.5117C17.3553 14.4686 17.3797 14.4321 17.4001 14.4061C17.4223 14.378 17.4495 14.3502 17.4779 14.3242C17.535 14.2719 17.6059 14.2183 17.6747 14.1714C17.7437 14.1244 17.814 14.0817 17.8713 14.0517C17.8994 14.037 17.9274 14.0236 17.952 14.0146C17.9639 14.0102 17.9794 14.0052 17.996 14.0024C18.0043 14.001 18.0165 13.9995 18.0308 14.0002ZM21.5924 14.4013C21.6736 14.4329 21.7603 14.4884 21.8052 14.5782C21.808 14.5838 21.8104 14.5896 21.8123 14.5956C21.8334 14.6608 21.827 14.7261 21.7962 14.7829C21.7676 14.8357 21.7225 14.8729 21.679 14.8988C21.5927 14.9501 21.4795 14.9765 21.3768 14.9852C21.2745 14.9939 21.1613 14.9867 21.0737 14.9528C21.0304 14.9361 20.9786 14.9071 20.9448 14.8555C20.9119 14.8052 20.9054 14.748 20.9197 14.6937C20.9216 14.5839 20.9741 14.4977 21.0524 14.4414C21.1307 14.3851 21.229 14.3619 21.3196 14.3579C21.4115 14.3537 21.5083 14.3685 21.5924 14.4013ZM21.1983 14.6444C21.1782 14.6589 21.1682 14.6751 21.1698 14.7058C21.17 14.7111 21.17 14.7164 21.1696 14.7217C21.2092 14.7354 21.2772 14.7427 21.3557 14.7361C21.4375 14.7292 21.5094 14.7087 21.5513 14.6839C21.5585 14.6796 21.5638 14.6758 21.5676 14.6726C21.5552 14.661 21.5344 14.647 21.5016 14.6342C21.4521 14.615 21.3903 14.6049 21.3308 14.6076C21.27 14.6103 21.2243 14.6257 21.1983 14.6444ZM20.4596 14.5746C20.4262 14.5108 20.3607 14.4887 20.3274 14.4803C20.2846 14.4693 20.2352 14.4661 20.1856 14.4673C20.0851 14.4697 19.9603 14.491 19.8324 14.5315C19.5811 14.6111 19.2823 14.7768 19.1433 15.064C19.1289 15.0939 19.1269 15.1284 19.1379 15.1597C19.1488 15.1911 19.1718 15.2168 19.2018 15.2312C19.328 15.2917 19.482 15.3031 19.6286 15.2892C19.7774 15.275 19.9314 15.2337 20.0661 15.1756C20.1987 15.1185 20.3236 15.0404 20.4044 14.9459C20.4454 14.8981 20.4797 14.8405 20.4928 14.7744C20.5063 14.7068 20.4957 14.6379 20.4596 14.5746ZM19.4569 15.0419C19.5017 15.0458 19.5514 15.0454 19.605 15.0403C19.726 15.0288 19.8547 14.9945 19.9671 14.946C20.0816 14.8968 20.1681 14.8376 20.2145 14.7834C20.2371 14.7569 20.2453 14.7373 20.2476 14.7257C20.248 14.7236 20.2483 14.7215 20.2484 14.7194C20.2348 14.7177 20.2159 14.7166 20.1916 14.7172C20.1185 14.7189 20.0172 14.7352 19.9079 14.7699C19.738 14.8237 19.5697 14.9147 19.4569 15.0419ZM20.2725 14.7248C20.2724 14.7248 20.2713 14.7245 20.2693 14.7235C20.2717 14.7243 20.2727 14.7247 20.2725 14.7248ZM22.6369 14.6383C22.729 14.6528 22.8268 14.6949 22.8911 14.7913C22.8917 14.7923 22.8924 14.7932 22.893 14.7942C22.9232 14.8424 22.9541 14.9078 22.942 14.9782C22.927 15.0658 22.8587 15.1068 22.8069 15.1222C22.7582 15.1367 22.7041 15.1366 22.6577 15.1329C22.6089 15.129 22.5562 15.12 22.5047 15.1088C22.4017 15.0864 22.2939 15.0533 22.2135 15.0264C22.173 15.0129 22.1387 15.0006 22.1145 14.9916C22.1025 14.9872 22.0925 14.9834 22.0854 14.9805C22.082 14.9792 22.0783 14.9777 22.0749 14.9762C22.074 14.9758 22.0699 14.974 22.0652 14.9716C22.0639 14.9709 22.0614 14.9695 22.0584 14.9677C22.0566 14.9666 22.0492 14.9622 22.0411 14.9552C22.0364 14.9508 22.0248 14.938 22.0184 14.9292C22.0087 14.9112 21.9981 14.856 22.0046 14.8205C22.0182 14.7942 22.0494 14.7646 22.0718 14.7495C22.0707 14.7471 22.0707 14.7471 22.0707 14.7471L22.071 14.747L22.0715 14.7468L22.073 14.7461C22.0743 14.7455 22.0761 14.7447 22.0783 14.7437C22.0827 14.7418 22.089 14.7391 22.0968 14.7358C22.1125 14.7292 22.1348 14.7202 22.1619 14.7103C22.2156 14.6906 22.2904 14.6665 22.372 14.6502C22.4522 14.6341 22.5467 14.6241 22.6369 14.6383ZM18.9477 15.5383C18.9477 15.5384 18.9477 15.5384 18.8262 15.5091C18.9093 15.6025 18.9093 15.6025 18.9093 15.6025L18.9082 15.6034L18.9053 15.606C18.9028 15.6082 18.8991 15.6115 18.8943 15.6157C18.8847 15.6241 18.8707 15.6364 18.8529 15.6518C18.8173 15.6826 18.7665 15.7261 18.7055 15.777C18.5838 15.8785 18.4202 16.0104 18.2549 16.1299C18.0921 16.2476 17.9183 16.3602 17.7784 16.4162C17.7124 16.4426 17.6303 16.4665 17.5543 16.4511C17.5114 16.4424 17.4681 16.4207 17.4357 16.38C17.4046 16.3408 17.3923 16.2951 17.389 16.2531C17.3883 16.2437 17.3887 16.2342 17.3901 16.2249C17.413 16.072 17.5108 15.9214 17.6228 15.7901C17.7376 15.6553 17.8814 15.525 18.0196 15.4122C18.1583 15.2991 18.2943 15.2013 18.3955 15.1319C18.4461 15.0971 18.4882 15.0693 18.5177 15.0502C18.5325 15.0406 18.5442 15.0331 18.5522 15.0281C18.5563 15.0255 18.5594 15.0235 18.5615 15.0222L18.564 15.0206L18.5649 15.0201C18.565 15.0201 18.565 15.02 18.6309 15.1263L18.565 15.02C18.583 15.0089 18.6035 15.0025 18.6245 15.0014C18.7232 14.9817 18.816 15.0001 18.8831 15.0696C18.9443 15.1329 18.9624 15.2179 18.9682 15.2797C18.9743 15.3453 18.9687 15.4102 18.9625 15.4562C18.9593 15.4798 18.9557 15.4997 18.9529 15.5139C18.9515 15.521 18.9503 15.5268 18.9494 15.531C18.9489 15.533 18.9485 15.5347 18.9483 15.536L18.9479 15.5375L18.9478 15.5381L18.9477 15.5383L18.9477 15.5383ZM18.6749 15.2463C18.669 15.2501 18.6619 15.2547 18.6537 15.2599C18.6258 15.2781 18.5855 15.3046 18.5369 15.338C18.4395 15.4048 18.3094 15.4984 18.1777 15.6059C18.0453 15.7139 17.9142 15.8335 17.813 15.9523C17.7355 16.0432 17.6828 16.1253 17.6558 16.1949C17.6645 16.1921 17.6744 16.1885 17.6855 16.184C17.7946 16.1404 17.947 16.044 18.1084 15.9273C18.2673 15.8125 18.4259 15.6846 18.5454 15.585C18.605 15.5353 18.6546 15.4928 18.6892 15.4628C18.6976 15.4556 18.7051 15.449 18.7117 15.4433C18.7127 15.437 18.7137 15.43 18.7148 15.4226C18.7198 15.3858 18.7229 15.3419 18.7193 15.3029C18.7157 15.265 18.7073 15.2489 18.7042 15.2444C18.7012 15.2439 18.6923 15.2429 18.6749 15.2463ZM18.8262 15.5091L18.9093 15.6025C18.9283 15.5855 18.9417 15.5631 18.9477 15.5383L18.8262 15.5091ZM20.7495 16.49C20.7001 16.4232 20.6225 16.3923 20.5494 16.3815C20.4608 16.3684 20.3563 16.3799 20.2462 16.4073C20.0244 16.4625 19.746 16.5908 19.4531 16.7873C19.4134 16.8126 19.3788 16.8385 19.352 16.8657C19.3273 16.8907 19.2956 16.9302 19.2879 16.9832C19.2782 17.0494 19.3097 17.1023 19.3492 17.1336C19.3826 17.16 19.4221 17.1725 19.4527 17.1793C19.5163 17.1935 19.5974 17.1952 19.6809 17.1904C19.7666 17.1855 19.8635 17.173 19.9626 17.1544C20.1586 17.1175 20.3747 17.0541 20.5345 16.9678C20.6134 16.9252 20.6896 16.8713 20.7397 16.8028C20.7938 16.7286 20.819 16.6331 20.7779 16.5322C20.7712 16.516 20.7615 16.5017 20.7495 16.49ZM20.5473 16.6387C20.5429 16.636 20.5331 16.6318 20.5128 16.6288C20.4694 16.6224 20.4006 16.6265 20.3065 16.6499C20.1397 16.6914 19.9197 16.787 19.6764 16.9402C19.7475 16.9356 19.83 16.925 19.9163 16.9087C20.0992 16.8743 20.2874 16.8171 20.4157 16.7479C20.4809 16.7127 20.5196 16.6802 20.5378 16.6553C20.5432 16.6479 20.546 16.6426 20.5473 16.6387ZM19.5254 17.0465C19.5253 17.0465 19.5256 17.0461 19.5263 17.0452C19.5257 17.0461 19.5254 17.0465 19.5254 17.0465ZM21.1309 17.0716L21.0113 17.0351C20.9978 17.0793 21.0098 17.1273 21.0425 17.16C21.0646 17.1821 21.089 17.1898 21.095 17.1917L21.0951 17.1918C21.1047 17.1948 21.113 17.1962 21.1179 17.197C21.1281 17.1985 21.1378 17.199 21.1449 17.1992C21.1599 17.1996 21.1776 17.199 21.1962 17.1979C21.2341 17.1957 21.2839 17.1907 21.3399 17.1829C21.4511 17.1674 21.5942 17.1397 21.7212 17.0961C21.7847 17.0743 21.848 17.0473 21.9025 17.0135C21.9555 16.9806 22.0106 16.9349 22.0431 16.8713C22.079 16.8011 22.0803 16.7222 22.0456 16.6461C22.0137 16.5763 21.9543 16.514 21.8782 16.4563C21.8651 16.4464 21.8503 16.4392 21.8344 16.4351C21.5248 16.3538 21.3103 16.5289 21.1881 16.6919C21.1265 16.7741 21.0827 16.8593 21.0545 16.9228C21.0403 16.9548 21.0298 16.9821 21.0227 17.0016C21.0191 17.0114 21.0164 17.0194 21.0145 17.0251C21.0136 17.0279 21.0128 17.0302 21.0123 17.0319L21.0117 17.034L21.0114 17.0347L21.0113 17.035C21.0113 17.0351 21.0113 17.0351 21.1309 17.0716ZM21.3881 16.8419C21.3659 16.8715 21.3464 16.9021 21.3295 16.9318C21.4271 16.9171 21.5419 16.8933 21.6401 16.8596C21.6933 16.8413 21.7378 16.8215 21.7708 16.801C21.8053 16.7796 21.8174 16.7637 21.8204 16.7577C21.8205 16.7575 21.8206 16.7573 21.8207 16.7571C21.8205 16.7559 21.8198 16.7536 21.8181 16.7498C21.8116 16.7356 21.7931 16.7089 21.7474 16.6715C21.5926 16.6411 21.4781 16.7219 21.3881 16.8419ZM23.7589 17.5276C23.754 17.5449 23.7454 17.561 23.7336 17.5748C23.6784 17.6392 23.5959 17.6713 23.5209 17.6886C23.4422 17.7068 23.3515 17.7133 23.2585 17.7118C23.0724 17.7088 22.859 17.6733 22.6786 17.6154C22.5883 17.5865 22.5025 17.5507 22.4311 17.5082C22.3622 17.4672 22.2936 17.4123 22.2556 17.3392C22.2119 17.2553 22.2159 17.1612 22.2717 17.0768C22.3209 17.0024 22.406 16.9417 22.5129 16.8892C22.9515 16.6701 23.3035 16.7498 23.5281 16.9326C23.6367 17.021 23.7129 17.1315 23.753 17.2369C23.7731 17.2896 23.7855 17.3445 23.7862 17.3974C23.7868 17.4387 23.7803 17.485 23.7589 17.5276ZM23.3703 17.1266C23.2278 17.0106 22.9823 16.9341 22.6243 17.1131L22.6234 17.1135C22.5313 17.1587 22.4932 17.1951 22.4802 17.2148C22.4753 17.2222 22.4756 17.2224 22.4765 17.2229C22.4767 17.223 22.4771 17.2232 22.4773 17.2237C22.4839 17.2364 22.506 17.2619 22.559 17.2934C22.6093 17.3233 22.6763 17.3521 22.755 17.3774C22.9125 17.4279 23.1015 17.4593 23.2625 17.4619C23.3431 17.4632 23.4121 17.4572 23.4645 17.4451C23.4993 17.437 23.52 17.4279 23.5316 17.4211C23.5328 17.4192 23.5339 17.4174 23.5351 17.4156C23.5356 17.4136 23.5364 17.409 23.5363 17.4009C23.536 17.3835 23.5316 17.3578 23.5194 17.3259C23.4951 17.2622 23.4454 17.1876 23.3703 17.1266ZM17.9258 16.9741C17.9131 16.8998 17.8518 16.8558 17.8162 16.8365C17.7665 16.8096 17.7046 16.7937 17.6439 16.7843C17.5203 16.7651 17.3632 16.7675 17.2209 16.7968C17.086 16.8246 16.928 16.8841 16.8473 17.0096C16.8035 17.0776 16.7871 17.1584 16.8039 17.2453C16.82 17.3286 16.865 17.4115 16.9323 17.4942L16.9329 17.4949C17.054 17.6416 17.1957 17.7087 17.3441 17.6961C17.4838 17.6844 17.6018 17.604 17.6887 17.5177C17.7771 17.4299 17.8466 17.3228 17.889 17.2299C17.91 17.1838 17.9267 17.136 17.9341 17.0921C17.9378 17.0704 17.94 17.0445 17.9367 17.0179C17.9352 17.0057 17.9322 16.9904 17.9258 16.9741ZM17.126 17.3361C17.0743 17.2725 17.055 17.2269 17.0494 17.198C17.0445 17.1727 17.0493 17.1576 17.0575 17.1449C17.0808 17.1087 17.1503 17.0666 17.2713 17.0417C17.3848 17.0183 17.5119 17.0168 17.6056 17.0313C17.6423 17.037 17.6685 17.0443 17.6849 17.0508C17.6855 17.0524 17.686 17.0539 17.6867 17.0555C17.6834 17.071 17.6757 17.0952 17.6615 17.1262C17.6304 17.1944 17.5774 17.2758 17.5125 17.3403C17.446 17.4064 17.38 17.4422 17.3231 17.447C17.2751 17.4511 17.2079 17.4352 17.126 17.3361ZM17.7024 17.0595C17.7024 17.0595 17.702 17.0593 17.7013 17.0587C17.7021 17.0593 17.7025 17.0595 17.7024 17.0595ZM16.0745 17.2483C16.1673 17.2319 16.2532 17.22 16.3027 17.22C16.3102 17.22 16.3177 17.2207 16.3251 17.222C16.4065 17.2369 16.4679 17.2865 16.5116 17.3362C16.5557 17.3864 16.5911 17.447 16.6196 17.504C16.6484 17.5616 16.673 17.6214 16.6933 17.6718C16.696 17.6786 16.6986 17.685 16.7012 17.6913C16.7118 17.7177 16.7207 17.7398 16.7285 17.7581C16.7332 17.7629 16.7375 17.7682 16.7414 17.7738C16.7648 17.8075 16.7701 17.8505 16.7557 17.8889C16.7452 17.9169 16.7262 17.938 16.7198 17.9451L16.7194 17.9455C16.7092 17.9569 16.6971 17.9686 16.6847 17.9801C16.6596 18.0032 16.6267 18.0307 16.5893 18.0602C16.5143 18.1194 16.4161 18.191 16.3143 18.2587C16.2131 18.326 16.1051 18.3916 16.0112 18.4375C15.9646 18.4602 15.9176 18.48 15.8743 18.4921C15.8408 18.5015 15.7859 18.5134 15.7318 18.4974C15.6833 18.4861 15.6459 18.4546 15.6256 18.436C15.5975 18.4103 15.5694 18.3777 15.5427 18.3434C15.489 18.2741 15.4318 18.185 15.3807 18.0955C15.3295 18.0057 15.2822 17.9117 15.2493 17.8317C15.2329 17.792 15.2189 17.7528 15.21 17.7177C15.2056 17.7002 15.2018 17.6812 15.2001 17.6621C15.1986 17.6447 15.198 17.6179 15.2067 17.5895C15.2087 17.5829 15.2113 17.5765 15.2144 17.5704C15.2393 17.5206 15.2856 17.4891 15.3159 17.471C15.3516 17.4497 15.3943 17.4304 15.439 17.4131C15.5288 17.3782 15.6406 17.3455 15.7518 17.3175C15.8636 17.2895 15.9781 17.2654 16.0745 17.2483ZM16.5358 17.7757C16.5359 17.7756 16.5354 17.7763 16.5341 17.7777C16.5351 17.7764 16.5357 17.7757 16.5358 17.7757ZM16.4847 17.823C16.4794 17.8101 16.4742 17.797 16.469 17.784C16.4665 17.7777 16.4639 17.7715 16.4615 17.7653C16.4413 17.7152 16.4199 17.6636 16.396 17.6158C16.3718 17.5673 16.3476 17.5283 16.3239 17.5013C16.3074 17.4826 16.2952 17.4743 16.2877 17.4706C16.2563 17.4727 16.1974 17.4804 16.1181 17.4945C16.0273 17.5106 15.9186 17.5334 15.8127 17.56C15.7061 17.5868 15.6055 17.6166 15.5295 17.6461C15.5001 17.6576 15.4764 17.6682 15.4585 17.6776C15.4637 17.6938 15.471 17.7136 15.4805 17.7365C15.5083 17.8042 15.5504 17.8884 15.5978 17.9716C15.6454 18.0548 15.6961 18.1332 15.7403 18.1902C15.7626 18.2189 15.7809 18.2392 15.7943 18.2515C15.7953 18.2524 15.7961 18.2531 15.7969 18.2539C15.7996 18.2533 15.803 18.2525 15.8071 18.2513C15.8297 18.245 15.8614 18.2324 15.9016 18.2128C15.9813 18.1739 16.0789 18.115 16.1759 18.0505C16.2724 17.9864 16.3651 17.9188 16.4343 17.864C16.4534 17.849 16.4703 17.8352 16.4847 17.823ZM15.7881 18.2553C15.7881 18.2553 15.7882 18.2553 15.7884 18.2553L15.7881 18.2553ZM15.8053 18.2604C15.8053 18.2604 15.8049 18.2602 15.8041 18.2596C15.8049 18.2601 15.8053 18.2604 15.8053 18.2604ZM15.4492 17.6405C15.4491 17.6396 15.4492 17.6398 15.4492 17.6407C15.4492 17.6406 15.4492 17.6405 15.4492 17.6405ZM25.9294 18.6195C25.9555 18.5502 25.922 18.4867 25.9076 18.4625C25.8859 18.4264 25.8543 18.3918 25.8209 18.3609C25.7528 18.2979 25.6561 18.2312 25.5474 18.1753C25.4385 18.1193 25.3118 18.0711 25.1829 18.0496C25.0545 18.0283 24.9149 18.032 24.7887 18.0912C24.7566 18.1063 24.7324 18.1343 24.7221 18.1682C24.6992 18.2442 24.7099 18.3176 24.7451 18.3808C24.7781 18.4399 24.8295 18.4849 24.8818 18.5192C24.986 18.5874 25.1269 18.6344 25.2592 18.6659C25.3938 18.6978 25.5317 18.7165 25.6378 18.7225C25.6901 18.7255 25.7392 18.7257 25.7779 18.7216C25.796 18.7196 25.8202 18.716 25.8431 18.7073C25.8543 18.703 25.8734 18.6945 25.8917 18.6778C25.9055 18.6652 25.921 18.6456 25.9294 18.6195ZM24.9924 18.2907C24.9996 18.2967 25.0084 18.3032 25.0188 18.3101C25.0868 18.3546 25.1944 18.3935 25.317 18.4226C25.395 18.4412 25.4744 18.4546 25.5455 18.4632C25.5118 18.441 25.4739 18.4186 25.433 18.3976C25.3408 18.3501 25.239 18.3124 25.1418 18.2962C25.0875 18.2872 25.0374 18.2853 24.9924 18.2907ZM25.6953 18.5952C25.6952 18.5952 25.6944 18.594 25.6935 18.5917C25.695 18.5942 25.6954 18.5953 25.6953 18.5952ZM19.851 19.6486C19.9359 19.6069 19.9829 19.5209 20.0051 19.4483C20.0303 19.3655 20.0345 19.2672 20.0091 19.1759C19.9833 19.0829 19.9243 18.9898 19.8185 18.9373C19.7138 18.8853 19.5845 18.8836 19.4382 18.9286C19.297 18.9712 19.1818 19.0552 19.1724 19.1958C19.1644 19.3158 19.2419 19.4181 19.3095 19.4837C19.383 19.5548 19.4781 19.6151 19.5673 19.6501C19.6119 19.6676 19.6606 19.6811 19.7084 19.6837C19.7484 19.686 19.8031 19.6812 19.851 19.6486ZM19.7074 19.1612C19.6779 19.1466 19.6189 19.1346 19.5114 19.1676L19.5107 19.1678C19.4601 19.1831 19.4363 19.199 19.4266 19.2081C19.4239 19.2106 19.4225 19.2124 19.4218 19.2133C19.4223 19.2203 19.4307 19.253 19.4834 19.3041C19.533 19.352 19.6 19.3943 19.6587 19.4174C19.6874 19.4287 19.7087 19.4332 19.7213 19.4341C19.7275 19.4302 19.734 19.4269 19.7408 19.4242C19.7403 19.4244 19.7401 19.4245 19.7401 19.4245C19.7398 19.4241 19.7541 19.4142 19.7659 19.3753C19.7783 19.3348 19.78 19.2851 19.7682 19.2427C19.7569 19.2018 19.7358 19.1753 19.7074 19.1612ZM19.7286 19.4341C19.7286 19.4341 19.7282 19.4342 19.7274 19.4342C19.7282 19.4341 19.7286 19.434 19.7286 19.4341ZM18.759 19.6876C18.7587 19.6873 18.7584 19.6869 18.7581 19.6865C18.755 19.6824 18.7507 19.6767 18.7451 19.6695C18.734 19.6553 18.7181 19.6353 18.6982 19.6119C18.6585 19.5652 18.6019 19.5032 18.5351 19.4439C18.4692 19.3854 18.3884 19.325 18.3001 19.2865C18.2116 19.2479 18.1031 19.2262 17.9936 19.2669C17.9772 19.273 17.9623 19.2825 17.9498 19.2947C17.8981 19.3451 17.8563 19.405 17.845 19.4754C17.8328 19.5519 17.8604 19.6171 17.9016 19.665C17.94 19.7095 17.9912 19.7411 18.0395 19.7642C18.0892 19.788 18.1445 19.8068 18.1991 19.8219C18.3082 19.8521 18.4255 19.8704 18.5124 19.8807C18.5563 19.8858 18.5936 19.8891 18.6199 19.8909C18.6327 19.8917 18.6442 19.8923 18.6529 19.8925C18.6559 19.8925 18.6639 19.8927 18.6722 19.892C18.6745 19.8918 18.6797 19.8913 18.6861 19.89C18.6893 19.8894 18.6949 19.8882 18.7017 19.8859C18.7068 19.8842 18.7214 19.8792 18.7371 19.8675C18.7518 19.8566 18.7888 19.8229 18.7875 19.7644C18.7867 19.7286 18.7717 19.7031 18.759 19.6876ZM18.1041 19.4958C18.1005 19.5003 18.098 19.504 18.0961 19.507C18.1047 19.5147 18.1206 19.5259 18.1474 19.5387C18.1794 19.554 18.2197 19.5683 18.2658 19.581C18.2863 19.5867 18.3074 19.5919 18.3286 19.5967C18.2854 19.5622 18.2417 19.5337 18.2002 19.5156C18.1599 19.4981 18.1286 19.4931 18.1041 19.4958ZM21.2113 20.0424C21.2145 20.1644 21.1981 20.2963 21.1443 20.3859C21.1289 20.4115 21.1049 20.4307 21.0766 20.4402C21.0235 20.4579 20.963 20.4535 20.9149 20.4457C20.862 20.4372 20.8032 20.421 20.7438 20.3994C20.6254 20.3566 20.4924 20.2883 20.3833 20.2018C20.2781 20.1184 20.1738 20.001 20.1551 19.8552C20.1344 19.6949 20.2217 19.5521 20.3881 19.4374L20.3883 19.4372C20.5518 19.3252 20.7123 19.2913 20.856 19.3485C20.9924 19.4029 21.0784 19.5263 21.1298 19.6479C21.1823 19.7722 21.2079 19.915 21.2113 20.0424ZM20.5298 19.6433C20.4072 19.7278 20.3988 19.7901 20.403 19.8233C20.4092 19.8712 20.4504 19.9359 20.5386 20.0059C20.6229 20.0727 20.731 20.1289 20.829 20.1644C20.8755 20.1813 20.917 20.1924 20.95 20.1981C20.9578 20.1612 20.963 20.1108 20.9613 20.049C20.9586 19.9469 20.9378 19.8358 20.8995 19.7453C20.8601 19.6521 20.8108 19.5997 20.7634 19.5808C20.7233 19.5648 20.6514 19.5601 20.5298 19.6433ZM16.5835 20.6603C16.5731 20.7118 16.5426 20.7547 16.5133 20.7876C16.4024 20.912 16.2457 21.0133 16.0794 21.0952C15.9117 21.1778 15.7263 21.2444 15.5509 21.296C15.3752 21.3477 15.2071 21.3851 15.0726 21.4087C15.0054 21.4205 14.9457 21.429 14.8971 21.434C14.8518 21.4387 14.8068 21.4415 14.774 21.4381L14.7871 21.3138L14.7451 21.4315C14.7106 21.4192 14.6817 21.3979 14.6606 21.3799C14.638 21.3607 14.6161 21.3381 14.5959 21.3151C14.5553 21.269 14.5145 21.2136 14.479 21.1619C14.4431 21.1097 14.411 21.0587 14.3878 21.0201C14.3762 21.0009 14.3665 20.9842 14.3595 20.9717C14.3561 20.9655 14.3528 20.9596 14.3502 20.9544C14.349 20.952 14.3471 20.9484 14.3454 20.9444C14.3445 20.9426 14.3429 20.9389 14.3413 20.9342C14.3405 20.9319 14.3391 20.9278 14.3378 20.9226C14.3369 20.9191 14.334 20.9073 14.334 20.8919C14.3374 20.8627 14.356 20.8211 14.3661 20.8083C14.3725 20.8016 14.3838 20.792 14.3885 20.7887C14.3968 20.7829 14.404 20.7795 14.4061 20.7785C14.4117 20.7759 14.4164 20.7742 14.4179 20.7736C14.422 20.7722 14.426 20.7709 14.4287 20.77C14.4348 20.7682 14.4426 20.7659 14.4515 20.7634C14.4695 20.7584 14.4953 20.7514 14.5273 20.743C14.5915 20.7263 14.6823 20.7033 14.7899 20.6774C15.0049 20.6256 15.2882 20.5615 15.5603 20.5112C15.8291 20.4614 16.0975 20.4229 16.2774 20.4264C16.3231 20.4272 16.3675 20.4308 16.407 20.4392C16.4436 20.4469 16.4909 20.4617 16.5287 20.4954C16.5753 20.5369 16.5963 20.5972 16.5835 20.6603ZM14.8223 21.1893C14.8351 21.1887 14.8514 21.1874 14.8713 21.1854C14.9128 21.1811 14.9665 21.1735 15.0294 21.1625C15.1552 21.1404 15.3142 21.1051 15.4803 21.0562C15.6467 21.0072 15.8178 20.9454 15.969 20.8709C16.0901 20.8113 16.1936 20.7459 16.2714 20.6763C16.1195 20.6736 15.8743 20.7073 15.6058 20.757C15.3397 20.8063 15.061 20.8692 14.8485 20.9204C14.7729 20.9386 14.7059 20.9553 14.651 20.9693C14.6618 20.9859 14.6732 21.0031 14.6851 21.0204C14.7179 21.0683 14.7523 21.1145 14.7835 21.1499C14.7989 21.1674 14.812 21.1805 14.8223 21.1893ZM23.6414 22.2219C23.6414 22.2219 23.6419 22.2214 23.6429 22.2204C23.642 22.2215 23.6414 22.222 23.6414 22.2219ZM23.7434 22.162C23.7655 22.1515 23.7907 22.1405 23.8186 22.1292C23.9462 22.0776 24.1201 22.0244 24.3069 21.9883C24.4943 21.952 24.689 21.934 24.8598 21.9492C25.0276 21.964 25.1571 22.0093 25.2395 22.0841C25.2905 22.1567 25.2879 22.1907 25.2861 22.1985C25.2849 22.2041 25.2772 22.2257 25.2208 22.2516C25.1042 22.3051 24.8866 22.326 24.6284 22.3149C24.3767 22.304 24.1099 22.2639 23.9102 22.213C23.8442 22.1962 23.788 22.1788 23.7434 22.162ZM24.8819 21.7001C25.0814 21.7178 25.2801 21.7755 25.4208 21.9113C25.4259 21.9163 25.4307 21.9217 25.4349 21.9275C25.5101 22.0303 25.5553 22.1423 25.5299 22.2539C25.504 22.3681 25.4147 22.4376 25.3251 22.4788C25.1497 22.5593 24.8791 22.5759 24.6176 22.5646C24.3498 22.5531 24.0659 22.5107 23.8485 22.4553C23.7408 22.4278 23.6434 22.3957 23.5713 22.3597C23.536 22.3421 23.4993 22.3199 23.4704 22.2916C23.4431 22.2647 23.4037 22.2127 23.4132 22.141C23.414 22.1353 23.4151 22.1296 23.4167 22.1241C23.4287 22.0808 23.4576 22.0511 23.4744 22.0357C23.4943 22.0175 23.518 22.0009 23.542 21.9862C23.5905 21.9565 23.6535 21.9263 23.7249 21.8975C23.8682 21.8395 24.0576 21.7819 24.2595 21.7428C24.4608 21.7039 24.6802 21.6823 24.8819 21.7001ZM27.2107 22.5773C27.308 22.7211 27.341 22.9008 27.2383 23.0729C27.1561 23.2123 27.0144 23.2869 26.8636 23.3142C26.713 23.3415 26.5436 23.3244 26.3818 23.2727C26.0608 23.1699 25.7345 22.9177 25.6348 22.5326C25.6244 22.4923 25.6347 22.4495 25.6624 22.4183C25.96 22.0829 26.4439 22.1049 26.7854 22.2506C26.9594 22.3248 27.1165 22.4382 27.2107 22.5773ZM25.8978 22.5365C26.0982 22.3642 26.4152 22.3645 26.6873 22.4805C26.8316 22.542 26.944 22.6293 27.0037 22.7175C27.0602 22.801 27.0653 22.8751 27.0235 22.945L27.0231 22.9457C26.9881 23.0052 26.921 23.0497 26.819 23.0682C26.7166 23.0868 26.5892 23.0766 26.458 23.0346C26.2147 22.9567 25.9889 22.7809 25.8978 22.5365ZM16.9948 22.2663C17.0475 22.2765 17.105 22.2967 17.1672 22.3251C17.6347 22.5387 17.8564 22.7737 17.9143 23.0498C17.9423 23.1832 17.929 23.314 17.902 23.4368C17.8809 23.5325 17.8496 23.6308 17.8199 23.7242C17.8138 23.7432 17.8078 23.762 17.802 23.7806C17.801 23.7897 17.799 23.7986 17.796 23.8073C17.7783 23.8591 17.736 23.9117 17.6637 23.9236C17.6065 23.933 17.5561 23.9114 17.5253 23.8946C17.4599 23.8591 17.3896 23.793 17.3237 23.7203C17.1875 23.5702 17.0305 23.3474 16.9069 23.1293C16.8449 23.0199 16.7899 22.9092 16.7498 22.8072C16.7107 22.7078 16.6816 22.6062 16.6804 22.5183C16.6798 22.4737 16.6863 22.4233 16.7105 22.377C16.7368 22.327 16.7799 22.2896 16.8359 22.2713C16.8878 22.2543 16.9429 22.2562 16.9948 22.2663ZM17.5871 23.6312C17.5649 23.6113 17.5387 23.5852 17.5088 23.5523C17.3877 23.4187 17.241 23.2118 17.1244 23.006C17.0663 22.9035 17.017 22.8038 16.9825 22.7158C16.9469 22.6252 16.931 22.5573 16.9304 22.515C16.9304 22.5129 16.9304 22.511 16.9304 22.5092C16.935 22.5096 16.9405 22.5104 16.9472 22.5117C16.9741 22.5169 17.0121 22.5291 17.0633 22.5525C17.502 22.7529 17.6358 22.9398 17.6697 23.1012C17.6876 23.1865 17.6809 23.2784 17.6578 23.3831C17.6402 23.4632 17.6149 23.5436 17.5871 23.6312ZM17.6516 23.6782C17.6516 23.6783 17.6511 23.6781 17.65 23.6776C17.651 23.6779 17.6515 23.6782 17.6516 23.6782ZM19.8323 22.5986C19.8097 22.5931 19.7858 22.5939 19.7632 22.6014C19.6961 22.6238 19.6553 22.6777 19.6318 22.7213C19.6068 22.7677 19.5903 22.8225 19.5804 22.8781C19.5606 22.9895 19.5634 23.1254 19.5968 23.2536C19.6301 23.3811 19.6975 23.5141 19.8186 23.6014C19.9439 23.6918 20.1076 23.7195 20.302 23.6694C20.4924 23.6227 20.6277 23.5246 20.6684 23.372C20.7067 23.2283 20.6468 23.0839 20.5656 22.9732C20.4819 22.8591 20.3593 22.7572 20.225 22.6886C20.1062 22.628 19.9683 22.5886 19.8323 22.5986ZM19.8478 22.8481C19.8402 22.8647 19.8323 22.8893 19.8266 22.9219C19.8129 22.9985 19.8146 23.0979 19.8387 23.1904C19.863 23.2836 19.9065 23.3566 19.9648 23.3987C20.0188 23.4376 20.1029 23.4627 20.2402 23.4271L20.2418 23.4267C20.387 23.3913 20.4192 23.3362 20.4268 23.3076C20.4369 23.2699 20.4255 23.2048 20.3641 23.1211C20.3052 23.0409 20.2139 22.9636 20.1114 22.9113C20.018 22.8637 19.9255 22.8418 19.8478 22.8481ZM19.8587 22.8293C19.8587 22.8293 19.8585 22.8296 19.8581 22.83C19.8585 22.8295 19.8587 22.8293 19.8587 22.8293ZM18.7319 22.6742C18.7392 22.6732 18.7466 22.6729 18.754 22.6733C18.8271 22.6768 18.8798 22.7257 18.9076 22.7561C18.9409 22.7924 18.9712 22.8386 18.9976 22.8872C19.0509 22.9851 19.0985 23.1109 19.1267 23.2341C19.154 23.353 19.1681 23.4898 19.1346 23.6002C19.1171 23.6581 19.0834 23.7181 19.0223 23.7583C18.9604 23.799 18.8877 23.8079 18.815 23.7967C18.8018 23.7947 18.789 23.7905 18.7771 23.7845C18.5313 23.6589 18.4588 23.385 18.4609 23.1729C18.4621 23.0634 18.4824 22.9557 18.519 22.8696C18.5372 22.8266 18.5614 22.7843 18.5934 22.7498C18.6253 22.7154 18.6714 22.6821 18.7319 22.6742ZM18.7514 22.962C18.7597 22.9746 18.7687 22.9895 18.778 23.0067C18.8197 23.0834 18.8596 23.1876 18.883 23.29C18.9075 23.3967 18.9095 23.481 18.8954 23.5276C18.8907 23.543 18.8862 23.5482 18.8849 23.5494C18.8835 23.55 18.8796 23.5511 18.872 23.5512C18.7633 23.4837 18.7093 23.3389 18.7109 23.1754C18.7118 23.0925 18.7275 23.0181 18.7491 22.9672C18.7499 22.9654 18.7506 22.9637 18.7514 22.962ZM18.7121 22.9145C18.7121 22.9144 18.7126 22.9147 18.7137 22.9156C18.7126 22.915 18.7121 22.9145 18.7121 22.9145Z" fill="white"/>
</g>
<defs>
<clipPath id="clip0_8424_43246">
<rect width="40" height="40" rx="20" fill="white"/>
</clipPath>
</defs>
</svg>
