<svg width="40" height="40" viewBox="0 0 40 40" fill="none" xmlns="http://www.w3.org/2000/svg">
<g clip-path="url(#clip0_8424_43238)">
<path d="M-7 0H46.3333V40H-7V0Z" fill="white"/>
<path d="M-7 28H46.3333V40H-7V28Z" fill="#009543"/>
<path d="M-7 0H46.3333V12H-7V0Z" fill="#00209F"/>
<path d="M19.6331 12.7502C19.4081 12.7502 19.1831 13.0002 19.1831 13.0002L19.2081 15.7002L18.3498 16.5919H19.0415V18.1336L14.9581 23.6336L14.3581 23.4169L13.2998 25.6669C13.2998 25.6669 15.9081 27.3002 19.6915 27.2502C23.8415 27.2086 26.0998 25.5919 26.0998 25.5919L25.0165 23.3752L24.4748 23.6086L20.3415 18.1419V16.5502H21.0248L20.0915 15.6669V12.9836C20.0915 12.9836 19.8665 12.7336 19.6331 12.7419V12.7502Z" fill="black"/>
<path fill-rule="evenodd" clip-rule="evenodd" d="M20.1415 12.9387C20.1415 12.9387 20.1416 12.9387 20.092 12.9833L20.1415 12.9387L20.1587 12.9578V15.638L21.1928 16.6167H20.4087V18.1193L24.497 23.5264L25.049 23.2886L26.185 25.6131L26.1391 25.6459L26.1003 25.5917C26.1391 25.6459 26.1391 25.6459 26.1391 25.6459L26.1389 25.646L26.1385 25.6463L26.1371 25.6473C26.1359 25.6482 26.1341 25.6494 26.1318 25.651C26.1271 25.6543 26.1203 25.659 26.1113 25.6651C26.0932 25.6773 26.0664 25.695 26.0309 25.7175C25.9599 25.7625 25.8543 25.8265 25.7148 25.9033C25.4357 26.0569 25.0209 26.2617 24.476 26.4676C23.3862 26.8794 21.7764 27.2957 19.6927 27.3167C17.7914 27.3418 16.1855 26.9439 15.055 26.5399C14.4896 26.3378 14.0428 26.1341 13.7371 25.9807C13.5842 25.904 13.4666 25.8399 13.387 25.7948C13.3471 25.7722 13.3168 25.7545 13.2964 25.7423C13.2862 25.7362 13.2784 25.7314 13.2731 25.7282L13.2672 25.7245L13.2656 25.7236L13.265 25.7232C13.265 25.7232 13.265 25.7232 13.3003 25.6667L13.265 25.7232L13.2148 25.6918L14.3242 23.3333L14.9347 23.5538L18.9753 18.1113V16.6583H18.1936L19.1418 15.6734L19.1168 12.9747L19.1341 12.9554L19.1837 13C19.1341 12.9554 19.1341 12.9554 19.1341 12.9554L19.1342 12.9553L19.1345 12.955L19.1351 12.9543L19.1374 12.9518C19.1394 12.9497 19.1422 12.9467 19.1458 12.943C19.153 12.9356 19.1633 12.9251 19.1764 12.9127C19.2024 12.8879 19.2397 12.8547 19.2846 12.8214C19.3573 12.7676 19.4577 12.7076 19.567 12.6891V12.6773L19.6313 12.6751C19.7706 12.6701 19.9004 12.7413 19.9893 12.8053C20.0349 12.8381 20.0726 12.8711 20.0989 12.8959C20.1121 12.9083 20.1225 12.9188 20.1298 12.9262C20.1334 12.93 20.1362 12.933 20.1382 12.9351L20.1405 12.9376L20.1412 12.9384L20.1414 12.9386L20.1415 12.9387ZM19.2506 13.0266L19.2756 15.7266L18.507 16.525H19.1087V18.1554L14.9826 23.7129L14.3931 23.5L13.3863 25.6405C13.4039 25.6509 13.4261 25.6637 13.4526 25.6787C13.5304 25.7228 13.6461 25.7859 13.7969 25.8615C14.0984 26.0128 14.5402 26.2143 15.0999 26.4143C16.2193 26.8144 17.8092 27.2082 19.6911 27.1833L19.6913 27.1833C21.7577 27.1626 23.352 26.7498 24.4289 26.3429C24.9673 26.1394 25.3764 25.9374 25.6505 25.7865C25.7875 25.7111 25.8907 25.6485 25.9595 25.6049C25.9816 25.5909 26.0001 25.5789 26.0151 25.569L24.985 23.4614L24.4537 23.6903L20.2753 18.164V16.4833H20.8579L20.0253 15.6954V13.0102C20.0204 13.0053 20.0144 12.9994 20.0075 12.9929C19.9843 12.9711 19.9512 12.9421 19.9114 12.9135C19.848 12.8679 19.7741 12.8278 19.7003 12.8136V12.8167H19.6337C19.5433 12.8167 19.4455 12.8682 19.364 12.9286C19.3245 12.9578 19.2915 12.9872 19.2683 13.0092C19.2615 13.0157 19.2555 13.0216 19.2506 13.0266ZM19.6927 27.3167C19.6927 27.3167 19.6928 27.3167 19.6927 27.3167L19.692 27.25L19.6929 27.3167C19.6928 27.3167 19.6928 27.3167 19.6927 27.3167Z" fill="black"/>
<path fill-rule="evenodd" clip-rule="evenodd" d="M19.5955 13.5915C19.0825 13.5991 18.6568 13.7605 18.3406 14.0665C18.0224 14.3744 17.7841 14.8589 17.7069 15.5686C17.6355 16.2499 17.8309 17.1104 18.0625 17.83C18.1764 18.1839 18.2953 18.4924 18.3857 18.7124C18.4095 18.7703 18.4312 18.8219 18.4504 18.8665H20.8445C20.8651 18.8197 20.8888 18.765 20.9147 18.7032C21.0086 18.4796 21.1316 18.1659 21.2478 17.8067C21.4846 17.0747 21.6758 16.2049 21.5787 15.5218L21.5787 15.5213C21.4756 14.7877 21.2606 14.316 20.9576 14.0262C20.6608 13.7425 20.2315 13.5879 19.5955 13.5915ZM21.0587 19.1999V19.5332H18.0223L17.9322 19.3419L18.2337 19.1999C17.9322 19.3419 17.9322 19.3419 17.9321 19.3418L17.9318 19.3411L17.9311 19.3396L17.9285 19.3341C17.9264 19.3294 17.9233 19.3227 17.9193 19.3141C17.9114 19.2967 17.9 19.2716 17.8857 19.2394C17.8571 19.1749 17.8168 19.0819 17.7691 18.9658C17.6738 18.7339 17.5484 18.4086 17.4279 18.0343C17.1909 17.2979 16.9571 16.3254 17.0439 15.4984L17.044 15.4978L17.044 15.4972C17.1335 14.6739 17.4201 14.0295 17.8769 13.5874C18.3355 13.1437 18.9342 12.9342 19.5873 12.9249L19.5887 12.9249L19.5901 12.9249C20.3366 12.9204 20.9569 13.1033 21.4183 13.5444C21.8735 13.9796 22.1252 14.6203 22.2388 15.4283C22.3583 16.2701 22.1245 17.2626 21.8821 18.0118C21.7588 18.3932 21.6287 18.7249 21.5294 18.9614C21.4796 19.0797 21.4375 19.1747 21.4075 19.2405C21.3925 19.2734 21.3806 19.2991 21.3723 19.3168C21.3707 19.3201 21.3692 19.3232 21.3679 19.326C21.3658 19.3305 21.364 19.3343 21.3626 19.3373L21.3599 19.3429L21.3591 19.3445L21.3587 19.3452C21.3587 19.3452 21.3587 19.3453 21.0587 19.1999Z" fill="black"/>
<path d="M14.7081 24.3417C14.6581 24.4 14.3164 25.0834 14.3164 25.0834L14.8997 24.9584L14.7081 24.3417ZM15.0414 25.2167L14.4247 25.4167L15.1664 25.7084L15.0414 25.2167ZM15.3164 24.3584L15.6247 25.2667L16.3747 25.05L16.1831 24.6167L15.3164 24.3584ZM15.7997 25.5917L15.8997 25.9584L16.8997 26.2084L16.4997 25.3584L15.7997 25.5917ZM16.8997 24.8167L17.2581 25.6667L18.0081 25.375L17.7581 25L16.8997 24.8167ZM17.3997 25.975L17.5164 26.2917L18.6831 26.4584L18.1914 25.6917L17.3914 25.975H17.3997ZM18.5164 25.0584L18.9497 25.8167L20.0331 25.4167L19.9164 25.125L18.5164 25.0667V25.0584ZM19.1497 26.0917L19.3747 26.4917L20.7247 26.45L20.2247 25.7L19.1414 26.0917H19.1497ZM20.5747 25.0917L20.9414 25.725L21.8081 25.3084L21.5747 24.975L20.5747 25.0917ZM21.9914 25.575L21.1331 26L21.3581 26.375L22.5081 26.1917L21.9914 25.575ZM22.2664 24.9084L22.7081 25.4667L23.4331 24.8917L23.1831 24.6417L22.2664 24.9084ZM23.5914 25.2L22.8997 25.725L23.0831 26.05L24.0331 25.8L23.5914 25.2ZM24.5414 24.1167L24.7081 24.3584L24.2331 25.0667L23.7414 24.4334L24.5414 24.1167ZM24.8664 24.725L25.1581 25.3084L24.5747 25.5084L24.5247 25.2334L24.8581 24.7334L24.8664 24.725Z" fill="white"/>
</g>
<defs>
<clipPath id="clip0_8424_43238">
<rect width="40" height="40" rx="20" fill="white"/>
</clipPath>
</defs>
</svg>
