<svg width="56" height="56" viewBox="0 0 56 56" fill="none" xmlns="http://www.w3.org/2000/svg">
<g clip-path="url(#clip0_3318_24764)">
<path d="M2.77834 15.8262C0.998375 19.5073 0 23.637 0 28C0 32.3631 0.998375 36.4928 2.77834 40.1739L28 42.6087L53.2217 40.1739C55.0016 36.4928 56 32.3631 56 28C56 23.637 55.0016 19.5073 53.2217 15.8262L28 13.3914L2.77834 15.8262Z" fill="black"/>
<path d="M2.7793 40.1738C7.30808 49.5397 16.8991 56 28 56C39.1008 56 48.6918 49.5397 53.2206 40.1738H2.7793Z" fill="#496E2D"/>
<path d="M2.7793 15.8261H53.2206C48.6918 6.46023 39.1008 0 28 0C16.8991 0 7.30808 6.46023 2.7793 15.8261Z" fill="#D80027"/>
<path d="M34.5172 22.8796L36.8145 26.0455L40.5351 24.8391L38.2341 28.0022L40.5312 31.168L36.812 29.957L34.5109 33.1201L34.5134 29.2087L30.7939 27.9977L34.5147 26.7913L34.5172 22.8796Z" fill="#F0F0F0"/>
<path d="M28.2474 35.913C23.8772 35.913 20.3343 32.3701 20.3343 27.9999C20.3343 23.6297 23.8772 20.0869 28.2474 20.0869C29.61 20.0869 30.8922 20.4314 32.0115 21.038C30.2554 19.3207 27.854 18.2607 25.2039 18.2607C19.8251 18.2607 15.4648 22.6211 15.4648 27.9998C15.4648 33.3786 19.8252 37.7389 25.2039 37.7389C27.8541 37.7389 30.2555 36.6789 32.0115 34.9616C30.8921 35.5685 29.6101 35.913 28.2474 35.913Z" fill="#F0F0F0"/>
</g>
<defs>
<clipPath id="clip0_3318_24764">
<rect width="56" height="56" fill="white"/>
</clipPath>
</defs>
</svg>
