<svg width="40" height="40" viewBox="0 0 40 40" fill="none" xmlns="http://www.w3.org/2000/svg">
<g clip-path="url(#clip0_8424_43288)">
<path d="M-20 0H60V40H-20V0Z" fill="#239E46"/>
<path d="M-20 0H60V30H-20V0Z" fill="black"/>
<path d="M-20 0H60V10H-20V0Z" fill="#E70013"/>
<path d="M23.536 16.464C22.8865 16.0005 22.1218 15.7248 21.3259 15.6673C20.53 15.6098 19.7336 15.7726 19.0241 16.1379C18.3147 16.5032 17.7195 17.0569 17.304 17.7382C16.8886 18.4194 16.6687 19.202 16.6687 20C16.6687 20.798 16.8886 21.5806 17.304 22.2618C17.7195 22.9431 18.3147 23.4968 19.0241 23.8621C19.7336 24.2274 20.53 24.3902 21.3259 24.3327C22.1218 24.2752 22.8865 23.9995 23.536 23.536C22.8367 24.2351 21.9458 24.7112 20.9759 24.904C20.0061 25.0968 19.0008 24.9978 18.0873 24.6193C17.1737 24.2408 16.3929 23.5999 15.8435 22.7777C15.2942 21.9555 15.001 20.9889 15.001 20C15.001 19.0112 15.2942 18.0445 15.8435 17.2223C16.3929 16.4001 17.1737 15.7592 18.0873 15.3807C19.0008 15.0023 20.0061 14.9032 20.9759 15.096C21.9458 15.2888 22.8367 15.7649 23.536 16.464ZM22.432 20L29.16 17.816L25 23.536V16.464L29.16 22.184L22.432 20Z" fill="white"/>
</g>
<defs>
<clipPath id="clip0_8424_43288">
<rect width="40" height="40" rx="20" fill="white"/>
</clipPath>
</defs>
</svg>
