<svg width="40" height="40" viewBox="0 0 40 40" fill="none" xmlns="http://www.w3.org/2000/svg">
<g clip-path="url(#clip0_8424_43244)">
<path d="M-2 0H51.3333V20H-2V0Z" fill="#002B7F"/>
<path d="M-2 20H51.3333V40H-2V20Z" fill="#CE1126"/>
<path d="M12.427 8.15349L12.3003 12.3202H8.07362C7.55362 11.3068 7.12695 10.4535 7.12695 9.28683C7.12695 8.31349 7.89362 7.54016 8.99362 7.54016C10.1603 7.54016 11.447 7.93349 12.427 8.15349Z" fill="#FFD83D"/>
<path d="M7.63379 8.34693V10.7469V8.34693ZM7.96712 8.10026V11.3003V8.10026ZM8.31379 7.9336V11.7469V7.9336ZM8.64712 7.8536V10.8469V7.8536ZM8.98712 7.84026V10.8603V7.84026ZM9.32712 7.72693V10.8603V7.72693ZM9.66712 7.72693V10.8603V7.72693ZM10.0071 7.76026V10.8936V7.76026ZM10.3471 7.7936V10.9203V7.7936ZM10.6871 7.98693V11.1203V7.98693ZM11.0205 8.02026V11.5469V8.02026ZM11.3671 8.02026V11.1536V8.02026ZM11.7005 8.02026V11.1536V8.02026Z" fill="#FFD83D"/>
<path fill-rule="evenodd" clip-rule="evenodd" d="M9.32732 7.67688C9.35493 7.67688 9.37732 7.69927 9.37732 7.72688V10.8602C9.37732 10.8878 9.35493 10.9102 9.32732 10.9102C9.2997 10.9102 9.27732 10.8878 9.27732 10.8602V7.72688C9.27732 7.69927 9.2997 7.67688 9.32732 7.67688ZM9.66732 7.67688C9.69493 7.67688 9.71732 7.69927 9.71732 7.72688V10.8602C9.71732 10.8878 9.69493 10.9102 9.66732 10.9102C9.6397 10.9102 9.61732 10.8878 9.61732 10.8602V7.72688C9.61732 7.69927 9.6397 7.67688 9.66732 7.67688ZM10.0073 7.71021C10.0349 7.71021 10.0573 7.7326 10.0573 7.76021V10.8935C10.0573 10.9212 10.0349 10.9435 10.0073 10.9435C9.9797 10.9435 9.95732 10.9212 9.95732 10.8935V7.76021C9.95732 7.7326 9.9797 7.71021 10.0073 7.71021ZM10.3473 7.74355C10.3749 7.74355 10.3973 7.76593 10.3973 7.79355V10.9202C10.3973 10.9478 10.3749 10.9702 10.3473 10.9702C10.3197 10.9702 10.2973 10.9478 10.2973 10.9202V7.79355C10.2973 7.76593 10.3197 7.74355 10.3473 7.74355ZM8.98732 7.79021C9.01493 7.79021 9.03732 7.8126 9.03732 7.84021V10.8602C9.03732 10.8878 9.01493 10.9102 8.98732 10.9102C8.9597 10.9102 8.93732 10.8878 8.93732 10.8602V7.84021C8.93732 7.8126 8.9597 7.79021 8.98732 7.79021ZM8.64732 7.80355C8.67493 7.80355 8.69732 7.82593 8.69732 7.85355V10.8469C8.69732 10.8745 8.67493 10.8969 8.64732 10.8969C8.6197 10.8969 8.59732 10.8745 8.59732 10.8469V7.85355C8.59732 7.82593 8.6197 7.80355 8.64732 7.80355ZM8.31398 7.88355C8.3416 7.88355 8.36398 7.90593 8.36398 7.93355V11.7469C8.36398 11.7745 8.3416 11.7969 8.31398 11.7969C8.28637 11.7969 8.26398 11.7745 8.26398 11.7469V7.93355C8.26398 7.90593 8.28637 7.88355 8.31398 7.88355ZM10.6873 7.93688C10.7149 7.93688 10.7373 7.95927 10.7373 7.98688V11.1202C10.7373 11.1478 10.7149 11.1702 10.6873 11.1702C10.6597 11.1702 10.6373 11.1478 10.6373 11.1202V7.98688C10.6373 7.95927 10.6597 7.93688 10.6873 7.93688ZM11.0207 7.97021C11.0483 7.97021 11.0707 7.9926 11.0707 8.02021V11.5469C11.0707 11.5745 11.0483 11.5969 11.0207 11.5969C10.993 11.5969 10.9707 11.5745 10.9707 11.5469V8.02021C10.9707 7.9926 10.993 7.97021 11.0207 7.97021ZM11.3673 7.97021C11.3949 7.97021 11.4173 7.9926 11.4173 8.02021V11.1535C11.4173 11.1812 11.3949 11.2035 11.3673 11.2035C11.3397 11.2035 11.3173 11.1812 11.3173 11.1535V8.02021C11.3173 7.9926 11.3397 7.97021 11.3673 7.97021ZM11.7007 7.97021C11.7283 7.97021 11.7507 7.9926 11.7507 8.02021V11.1535C11.7507 11.1812 11.7283 11.2035 11.7007 11.2035C11.673 11.2035 11.6507 11.1812 11.6507 11.1535V8.02021C11.6507 7.9926 11.673 7.97021 11.7007 7.97021ZM7.96732 8.05021C7.99493 8.05021 8.01732 8.0726 8.01732 8.10021V11.3002C8.01732 11.3278 7.99493 11.3502 7.96732 11.3502C7.9397 11.3502 7.91732 11.3278 7.91732 11.3002V8.10021C7.91732 8.0726 7.9397 8.05021 7.96732 8.05021ZM7.63398 8.29688C7.6616 8.29688 7.68398 8.31927 7.68398 8.34688V10.7469C7.68398 10.7745 7.6616 10.7969 7.63398 10.7969C7.60637 10.7969 7.58398 10.7745 7.58398 10.7469V8.34688C7.58398 8.31927 7.60637 8.29688 7.63398 8.29688Z" fill="black"/>
<path d="M9.76018 7.86682C10.4802 7.98015 12.0535 8.72015 11.8735 9.71349C11.6202 11.1268 10.7935 10.5602 9.70018 10.3602L8.87352 10.6335C8.57352 10.9335 8.14018 11.2135 7.84685 10.8468H7.35352V12.7668H12.7802V8.13349L9.76018 7.86682Z" fill="black"/>
<path fill-rule="evenodd" clip-rule="evenodd" d="M9.71075 7.86081C9.71403 7.83406 9.73793 7.81472 9.76478 7.81709L12.7848 8.08376C12.8106 8.08604 12.8304 8.10765 12.8304 8.13356V12.7669C12.8304 12.7945 12.808 12.8169 12.7804 12.8169H7.35371C7.3261 12.8169 7.30371 12.7945 7.30371 12.7669V10.8469C7.30371 10.8193 7.3261 10.7969 7.35371 10.7969H7.84704C7.86223 10.7969 7.8766 10.8038 7.88609 10.8157C7.95339 10.8998 8.02624 10.9441 8.10061 10.9618C8.17566 10.9797 8.25687 10.9716 8.34187 10.9429C8.51337 10.8849 8.6901 10.7465 8.83836 10.5982C8.84387 10.5927 8.85061 10.5885 8.85801 10.5861L9.68468 10.3128C9.69264 10.3101 9.70113 10.3095 9.70937 10.311C9.92157 10.3499 10.1243 10.4025 10.313 10.4515C10.3692 10.4661 10.4242 10.4803 10.4778 10.4938C10.7132 10.5531 10.9209 10.5967 11.1007 10.5919C11.2781 10.5872 11.4251 10.5354 11.5441 10.4053C11.6651 10.2729 11.7619 10.0541 11.8245 9.70474L11.8245 9.70465C11.9089 9.23884 11.5835 8.82226 11.1258 8.50116C10.6709 8.18201 10.1047 7.97172 9.7526 7.91629C9.72598 7.9121 9.70747 7.88756 9.71075 7.86081ZM10.3047 7.96516C10.5924 8.0713 10.9077 8.22593 11.1833 8.4193C11.6473 8.74486 12.0185 9.19493 11.9229 9.72243C11.8589 10.0797 11.7573 10.3201 11.6179 10.4727C11.4765 10.6275 11.301 10.6866 11.1034 10.6919C10.9082 10.6971 10.6883 10.6499 10.4534 10.5908C10.3984 10.577 10.3424 10.5624 10.2856 10.5477C10.1013 10.4999 9.90756 10.4496 9.70391 10.4117L8.90062 10.6773C8.7503 10.8262 8.56381 10.9734 8.37388 11.0376C8.27638 11.0705 8.17551 11.0824 8.07743 11.0591C7.98508 11.0371 7.89923 10.9847 7.82357 10.8969H7.40371V12.7169H12.7304V8.17934L10.3047 7.96516Z" fill="black"/>
<path d="M12.187 7.86012C12.3674 7.86012 12.5137 7.71387 12.5137 7.53345C12.5137 7.35304 12.3674 7.20679 12.187 7.20679C12.0066 7.20679 11.8604 7.35304 11.8604 7.53345C11.8604 7.71387 12.0066 7.86012 12.187 7.86012Z" fill="#FFD83D"/>
<path fill-rule="evenodd" clip-rule="evenodd" d="M12.1873 7.27347C12.0437 7.27347 11.9273 7.38988 11.9273 7.53347C11.9273 7.67706 12.0437 7.79347 12.1873 7.79347C12.3309 7.79347 12.4473 7.67706 12.4473 7.53347C12.4473 7.38988 12.3309 7.27347 12.1873 7.27347ZM11.7939 7.53347C11.7939 7.31624 11.97 7.14014 12.1873 7.14014C12.4045 7.14014 12.5806 7.31624 12.5806 7.53347C12.5806 7.7507 12.4045 7.9268 12.1873 7.9268C11.97 7.9268 11.7939 7.7507 11.7939 7.53347Z" fill="black"/>
<path d="M11.4468 7.68019C11.6272 7.68019 11.7735 7.53394 11.7735 7.35352C11.7735 7.17311 11.6272 7.02686 11.4468 7.02686C11.2664 7.02686 11.1201 7.17311 11.1201 7.35352C11.1201 7.53394 11.2664 7.68019 11.4468 7.68019Z" fill="#FFD83D"/>
<path fill-rule="evenodd" clip-rule="evenodd" d="M11.447 7.09354C11.3034 7.09354 11.187 7.20994 11.187 7.35354C11.187 7.49713 11.3034 7.61354 11.447 7.61354C11.5906 7.61354 11.707 7.49713 11.707 7.35354C11.707 7.20994 11.5906 7.09354 11.447 7.09354ZM11.0537 7.35354C11.0537 7.13631 11.2298 6.96021 11.447 6.96021C11.6643 6.96021 11.8404 7.13631 11.8404 7.35354C11.8404 7.57077 11.6643 7.74687 11.447 7.74687C11.2298 7.74687 11.0537 7.57077 11.0537 7.35354Z" fill="black"/>
<path d="M10.6939 7.49354C10.8743 7.49354 11.0205 7.34729 11.0205 7.16688C11.0205 6.98646 10.8743 6.84021 10.6939 6.84021C10.5134 6.84021 10.3672 6.98646 10.3672 7.16688C10.3672 7.34729 10.5134 7.49354 10.6939 7.49354Z" fill="#FFD83D"/>
<path fill-rule="evenodd" clip-rule="evenodd" d="M10.6941 6.90677C10.5505 6.90677 10.4341 7.02318 10.4341 7.16677C10.4341 7.31037 10.5505 7.42677 10.6941 7.42677C10.8377 7.42677 10.9541 7.31036 10.9541 7.16677C10.9541 7.02318 10.8377 6.90677 10.6941 6.90677ZM10.3008 7.16677C10.3008 6.94954 10.4769 6.77344 10.6941 6.77344C10.9113 6.77344 11.0874 6.94954 11.0874 7.16677C11.0874 7.384 10.9113 7.5601 10.6941 7.5601C10.4769 7.5601 10.3008 7.384 10.3008 7.16677Z" fill="black"/>
<path d="M9.94093 7.36683C10.1213 7.36683 10.2676 7.22058 10.2676 7.04017C10.2676 6.85975 10.1213 6.7135 9.94093 6.7135C9.76051 6.7135 9.61426 6.85975 9.61426 7.04017C9.61426 7.22058 9.76051 7.36683 9.94093 7.36683Z" fill="#FFD83D"/>
<path fill-rule="evenodd" clip-rule="evenodd" d="M9.94021 6.78018C9.79661 6.78018 9.68021 6.89659 9.68021 7.04018C9.68021 7.18378 9.79661 7.30018 9.94021 7.30018C10.0838 7.30018 10.2002 7.18378 10.2002 7.04018C10.2002 6.89659 10.0838 6.78018 9.94021 6.78018ZM9.54688 7.04018C9.54688 6.82295 9.72298 6.64685 9.94021 6.64685C10.1574 6.64685 10.3335 6.82295 10.3335 7.04018C10.3335 7.25742 10.1574 7.43352 9.94021 7.43352C9.72298 7.43352 9.54688 7.25742 9.54688 7.04018Z" fill="black"/>
<path d="M9.18702 7.29347C9.36743 7.29347 9.51369 7.14722 9.51369 6.9668C9.51369 6.78639 9.36743 6.64014 9.18702 6.64014C9.00661 6.64014 8.86035 6.78639 8.86035 6.9668C8.86035 7.14722 9.00661 7.29347 9.18702 7.29347Z" fill="#FFD83D"/>
<path fill-rule="evenodd" clip-rule="evenodd" d="M9.18728 6.70682C9.04369 6.70682 8.92728 6.82323 8.92728 6.96682C8.92728 7.11041 9.04369 7.22682 9.18728 7.22682C9.33087 7.22682 9.44728 7.11041 9.44728 6.96682C9.44728 6.82323 9.33087 6.70682 9.18728 6.70682ZM8.79395 6.96682C8.79395 6.74959 8.97005 6.57349 9.18728 6.57349C9.40451 6.57349 9.58061 6.74959 9.58061 6.96682C9.58061 7.18405 9.40451 7.36015 9.18728 7.36015C8.97005 7.36015 8.79395 7.18405 8.79395 6.96682Z" fill="black"/>
<path d="M8.45362 7.33351C8.63403 7.33351 8.78029 7.18726 8.78029 7.00684C8.78029 6.82643 8.63403 6.68018 8.45362 6.68018C8.27321 6.68018 8.12695 6.82643 8.12695 7.00684C8.12695 7.18726 8.27321 7.33351 8.45362 7.33351Z" fill="#FFD83D"/>
<path fill-rule="evenodd" clip-rule="evenodd" d="M8.45388 6.74686C8.31029 6.74686 8.19388 6.86326 8.19388 7.00686C8.19388 7.15045 8.31029 7.26686 8.45388 7.26686C8.59747 7.26686 8.71388 7.15045 8.71388 7.00686C8.71388 6.86326 8.59747 6.74686 8.45388 6.74686ZM8.06055 7.00686C8.06055 6.78963 8.23665 6.61353 8.45388 6.61353C8.67111 6.61353 8.84721 6.78963 8.84721 7.00686C8.84721 7.22409 8.67111 7.40019 8.45388 7.40019C8.23665 7.40019 8.06055 7.22409 8.06055 7.00686Z" fill="black"/>
<path d="M7.74756 7.5735C7.92798 7.5735 8.07423 7.42725 8.07423 7.24683C8.07423 7.06642 7.92798 6.92017 7.74756 6.92017C7.56715 6.92017 7.4209 7.06642 7.4209 7.24683C7.4209 7.42725 7.56715 7.5735 7.74756 7.5735Z" fill="#FFD83D"/>
<path fill-rule="evenodd" clip-rule="evenodd" d="M7.74685 6.98685C7.60325 6.98685 7.48685 7.10325 7.48685 7.24685C7.48685 7.39044 7.60325 7.50685 7.74685 7.50685C7.89044 7.50685 8.00685 7.39044 8.00685 7.24685C8.00685 7.10325 7.89044 6.98685 7.74685 6.98685ZM7.35352 7.24685C7.35352 7.02962 7.52962 6.85352 7.74685 6.85352C7.96408 6.85352 8.14018 7.02962 8.14018 7.24685C8.14018 7.46408 7.96408 7.64018 7.74685 7.64018C7.52962 7.64018 7.35352 7.46408 7.35352 7.24685Z" fill="black"/>
<path d="M7.15382 8.01344C7.33423 8.01344 7.48048 7.86719 7.48048 7.68677C7.48048 7.50636 7.33423 7.36011 7.15382 7.36011C6.9734 7.36011 6.82715 7.50636 6.82715 7.68677C6.82715 7.86719 6.9734 8.01344 7.15382 8.01344Z" fill="#FFD83D"/>
<path fill-rule="evenodd" clip-rule="evenodd" d="M7.15408 7.42679C7.01048 7.42679 6.89408 7.5432 6.89408 7.68679C6.89408 7.83038 7.01048 7.94679 7.15408 7.94679C7.29767 7.94679 7.41408 7.83038 7.41408 7.68679C7.41408 7.5432 7.29767 7.42679 7.15408 7.42679ZM6.76074 7.68679C6.76074 7.46956 6.93684 7.29346 7.15408 7.29346C7.37131 7.29346 7.54741 7.46956 7.54741 7.68679C7.54741 7.90402 7.37131 8.08012 7.15408 8.08012C6.93684 8.08012 6.76074 7.90402 6.76074 7.68679Z" fill="black"/>
<path d="M6.73389 8.62013C6.91431 8.62013 7.06056 8.47388 7.06056 8.29346C7.06056 8.11305 6.91431 7.9668 6.73389 7.9668C6.55348 7.9668 6.40723 8.11305 6.40723 8.29346C6.40723 8.47388 6.55348 8.62013 6.73389 8.62013Z" fill="#FFD83D"/>
<path fill-rule="evenodd" clip-rule="evenodd" d="M6.73415 8.03348C6.59056 8.03348 6.47415 8.14989 6.47415 8.29348C6.47415 8.43707 6.59056 8.55348 6.73415 8.55348C6.87775 8.55348 6.99415 8.43707 6.99415 8.29348C6.99415 8.14989 6.87775 8.03348 6.73415 8.03348ZM6.34082 8.29348C6.34082 8.07625 6.51692 7.90015 6.73415 7.90015C6.95139 7.90015 7.12749 8.07625 7.12749 8.29348C7.12749 8.51071 6.95139 8.68681 6.73415 8.68681C6.51692 8.68681 6.34082 8.51071 6.34082 8.29348Z" fill="black"/>
<path d="M6.52686 9.3401C6.70728 9.3401 6.85353 9.19385 6.85353 9.01343C6.85353 8.83302 6.70728 8.68677 6.52686 8.68677C6.34645 8.68677 6.2002 8.83302 6.2002 9.01343C6.2002 9.19385 6.34645 9.3401 6.52686 9.3401Z" fill="#FFD83D"/>
<path fill-rule="evenodd" clip-rule="evenodd" d="M6.52712 8.75345C6.38353 8.75345 6.26712 8.86986 6.26712 9.01345C6.26712 9.15704 6.38353 9.27345 6.52712 9.27345C6.67072 9.27345 6.78712 9.15704 6.78712 9.01345C6.78712 8.86986 6.67072 8.75345 6.52712 8.75345ZM6.13379 9.01345C6.13379 8.79622 6.30989 8.62012 6.52712 8.62012C6.74435 8.62012 6.92046 8.79622 6.92046 9.01345C6.92046 9.23068 6.74435 9.40678 6.52712 9.40678C6.30989 9.40678 6.13379 9.23068 6.13379 9.01345Z" fill="black"/>
<path d="M6.5337 10.0802C6.71411 10.0802 6.86036 9.93396 6.86036 9.75355C6.86036 9.57313 6.71411 9.42688 6.5337 9.42688C6.35328 9.42688 6.20703 9.57313 6.20703 9.75355C6.20703 9.93396 6.35328 10.0802 6.5337 10.0802Z" fill="#FFD83D"/>
<path fill-rule="evenodd" clip-rule="evenodd" d="M6.53396 9.49344C6.39036 9.49344 6.27396 9.60985 6.27396 9.75344C6.27396 9.89704 6.39036 10.0134 6.53396 10.0134C6.67755 10.0134 6.79396 9.89704 6.79396 9.75344C6.79396 9.60985 6.67755 9.49344 6.53396 9.49344ZM6.14062 9.75344C6.14062 9.53621 6.31673 9.36011 6.53396 9.36011C6.75119 9.36011 6.92729 9.53621 6.92729 9.75344C6.92729 9.97067 6.75119 10.1468 6.53396 10.1468C6.31673 10.1468 6.14062 9.97067 6.14062 9.75344Z" fill="black"/>
<path d="M6.68018 10.8068C6.86059 10.8068 7.00685 10.6605 7.00685 10.4801C7.00685 10.2997 6.86059 10.1534 6.68018 10.1534C6.49977 10.1534 6.35352 10.2997 6.35352 10.4801C6.35352 10.6605 6.49977 10.8068 6.68018 10.8068Z" fill="#FFD83D"/>
<path fill-rule="evenodd" clip-rule="evenodd" d="M6.68044 10.2201C6.53685 10.2201 6.42044 10.3365 6.42044 10.4801C6.42044 10.6237 6.53685 10.7401 6.68044 10.7401C6.82404 10.7401 6.94044 10.6237 6.94044 10.4801C6.94044 10.3365 6.82404 10.2201 6.68044 10.2201ZM6.28711 10.4801C6.28711 10.2629 6.46321 10.0868 6.68044 10.0868C6.89767 10.0868 7.07378 10.2629 7.07378 10.4801C7.07378 10.6974 6.89767 10.8735 6.68044 10.8735C6.46321 10.8735 6.28711 10.6974 6.28711 10.4801Z" fill="black"/>
<path d="M12.3339 7.96685L12.3006 8.40018C11.4806 8.26685 10.3206 7.81352 9.23389 7.81352C8.23389 7.81352 7.46056 8.21352 7.46056 9.22685C7.46056 10.2202 7.88056 11.1268 8.44056 12.0468L7.86056 12.3135C7.34056 11.3135 6.90723 10.4468 6.90723 9.28685C6.90723 8.31352 7.67389 7.35352 8.99389 7.35352C10.1606 7.35352 11.3539 7.75352 12.3339 7.96685Z" fill="#FFD83D"/>
<path fill-rule="evenodd" clip-rule="evenodd" d="M8.99415 7.4202C7.71184 7.4202 6.97415 8.34947 6.97415 9.28687C6.97415 10.4073 7.38382 11.25 7.89069 12.2264L8.34511 12.0175C7.80269 11.1163 7.39415 10.2157 7.39415 9.22686C7.39415 8.70075 7.59626 8.32625 7.93382 8.08589C8.26783 7.84806 8.72688 7.74686 9.23415 7.74686C9.78587 7.74686 10.354 7.86186 10.8834 7.99213C11.047 8.03237 11.2063 8.07391 11.3603 8.11407C11.6794 8.19724 11.9758 8.27451 12.24 8.32212L12.2632 8.01951C12.034 7.9684 11.7938 7.90797 11.5466 7.84568L11.5386 7.84366C11.273 7.77675 10.9991 7.70774 10.7196 7.64526C10.1548 7.51901 9.57032 7.4202 8.99415 7.4202ZM12.3342 7.96687L12.3483 7.90172C12.1046 7.84866 11.8473 7.78394 11.5792 7.71639L11.5705 7.71418C11.3054 7.6474 11.03 7.57801 10.7487 7.51514C10.1802 7.38805 9.58465 7.28687 8.99415 7.28687C7.63646 7.28687 6.84082 8.27759 6.84082 9.28687C6.84082 10.465 7.28195 11.3448 7.80167 12.3443C7.81808 12.3758 7.85636 12.389 7.88867 12.3741L8.46867 12.1074C8.48595 12.0995 8.49902 12.0845 8.50458 12.0663C8.51014 12.0482 8.50766 12.0285 8.49777 12.0122C7.93937 11.0948 7.52749 10.2013 7.52749 9.22686C7.52749 8.73965 7.71204 8.40748 8.01115 8.1945C8.31381 7.979 8.74143 7.8802 9.23415 7.8802C9.7691 7.8802 10.3243 7.99187 10.8516 8.1216C11.0101 8.16061 11.1666 8.2014 11.3192 8.2412C11.6708 8.33282 12.0019 8.41913 12.2901 8.466C12.3085 8.469 12.3274 8.46414 12.342 8.4526C12.3567 8.44107 12.3659 8.42391 12.3673 8.40531L12.4006 7.97198L12.3342 7.96687Z" fill="black"/>
<path d="M12.7999 3.54011L12.4532 4.18678L12.7999 4.82678L13.1399 4.18678L12.7999 3.53345V3.54011ZM12.7999 5.16678L12.4532 5.80678L12.7999 6.45345L13.1332 5.80011L12.7932 5.16011L12.7999 5.16678ZM11.5732 5.00011L12.1132 5.34011L12.6532 5.00011L12.1199 4.65345L11.5732 5.00011ZM12.9399 5.00011L13.4799 5.34011L14.0266 5.00011L13.4799 4.65345L12.9466 5.00011H12.9399Z" fill="#FFD83D"/>
<path fill-rule="evenodd" clip-rule="evenodd" d="M12.7843 3.46871C12.8142 3.46141 12.8451 3.47545 12.8593 3.50269L13.1993 4.15603C13.2094 4.17549 13.2093 4.1987 13.199 4.21808L12.859 4.85808C12.8475 4.87977 12.825 4.89337 12.8004 4.89347C12.7759 4.89357 12.7532 4.88015 12.7415 4.85856L12.3949 4.21856C12.3842 4.19884 12.3842 4.17507 12.3947 4.15531L12.7346 3.52132C12.7393 3.49591 12.7585 3.47503 12.7843 3.46871ZM12.8011 3.67959L12.5292 4.18664L12.7996 4.68578L13.0648 4.18648L12.8011 3.67959ZM12.0845 4.59717C12.1065 4.5832 12.1346 4.58336 12.1565 4.59757L12.6898 4.94424C12.7089 4.95663 12.7203 4.97788 12.7202 5.00062C12.72 5.02335 12.7083 5.04444 12.689 5.05655L12.149 5.39655C12.1273 5.41022 12.0997 5.41022 12.078 5.39655L11.538 5.05655C11.5186 5.04437 11.5069 5.02311 11.5068 5.00024C11.5068 4.97738 11.5185 4.95608 11.5378 4.94384L12.0845 4.59717ZM13.4438 4.59757C13.4657 4.58336 13.4938 4.5832 13.5159 4.59717L14.0625 4.94384C14.0819 4.95612 14.0936 4.97749 14.0935 5.00043C14.0934 5.02336 14.0815 5.04463 14.062 5.05675L13.5154 5.39675C13.4937 5.41023 13.4662 5.41015 13.4446 5.39655L12.9046 5.05655C12.8795 5.04073 12.8679 5.01019 12.8761 4.98165C12.8828 4.95843 12.9014 4.9411 12.924 4.93545L13.4438 4.59757ZM13.0673 5.00137L13.4804 5.26149L13.9015 4.99959L13.4806 4.73269L13.0673 5.00137ZM11.6983 4.99994L12.1135 5.26136L12.5298 4.99924L12.1197 4.73269L11.6983 4.99994ZM12.7539 5.10654C12.7804 5.08691 12.8173 5.08965 12.8406 5.11299L12.8473 5.11966C12.8568 5.12918 12.863 5.14104 12.8655 5.15359L13.1924 5.76886C13.2026 5.78807 13.2028 5.81106 13.1929 5.83043L12.8596 6.48377C12.8483 6.50587 12.8257 6.51988 12.8008 6.52013C12.776 6.52039 12.7531 6.50684 12.7414 6.48497L12.3947 5.8383C12.3842 5.81854 12.3842 5.79477 12.3949 5.77505L12.7269 5.16217C12.7262 5.14092 12.7358 5.11991 12.7539 5.10654ZM12.798 5.31074L12.5292 5.80697L12.7987 6.30964L13.0583 5.80076L12.798 5.31074Z" fill="black"/>
<path d="M12.8 5.26683C12.9436 5.26683 13.06 5.15042 13.06 5.00683C13.06 4.86323 12.9436 4.74683 12.8 4.74683C12.6564 4.74683 12.54 4.86323 12.54 5.00683C12.54 5.15042 12.6564 5.26683 12.8 5.26683Z" fill="#FFD83D"/>
<path fill-rule="evenodd" clip-rule="evenodd" d="M12.8003 4.81351C12.6935 4.81351 12.607 4.90007 12.607 5.00684C12.607 5.11362 12.6935 5.20018 12.8003 5.20018C12.9071 5.20018 12.9936 5.11362 12.9936 5.00684C12.9936 4.90007 12.9071 4.81351 12.8003 4.81351ZM12.4736 5.00684C12.4736 4.82643 12.6199 4.68018 12.8003 4.68018C12.9807 4.68018 13.127 4.82643 13.127 5.00684C13.127 5.18726 12.9807 5.33351 12.8003 5.33351C12.6199 5.33351 12.4736 5.18726 12.4736 5.00684Z" fill="black"/>
<path d="M12.7996 7.3668C13.1862 7.3668 13.4996 7.0534 13.4996 6.6668C13.4996 6.2802 13.1862 5.9668 12.7996 5.9668C12.413 5.9668 12.0996 6.2802 12.0996 6.6668C12.0996 7.0534 12.413 7.3668 12.7996 7.3668Z" fill="#FFD83D"/>
<path fill-rule="evenodd" clip-rule="evenodd" d="M12.7999 6.03348C12.4501 6.03348 12.1665 6.31703 12.1665 6.66681C12.1665 7.01659 12.4501 7.30015 12.7999 7.30015C13.1497 7.30015 13.4332 7.01659 13.4332 6.66681C13.4332 6.31703 13.1497 6.03348 12.7999 6.03348ZM12.0332 6.66681C12.0332 6.24339 12.3765 5.90015 12.7999 5.90015C13.2233 5.90015 13.5665 6.24339 13.5665 6.66681C13.5665 7.09023 13.2233 7.43348 12.7999 7.43348C12.3765 7.43348 12.0332 7.09023 12.0332 6.66681Z" fill="black"/>
<path fill-rule="evenodd" clip-rule="evenodd" d="M12.6203 5.94348C12.6479 5.94348 12.6703 5.96587 12.6703 5.99348V6.43348C12.6703 6.46016 12.6494 6.48214 12.6227 6.48342C12.4594 6.49129 12.2966 6.50889 12.1353 6.53612C12.1081 6.54071 12.0823 6.52237 12.0777 6.49514C12.0731 6.46791 12.0914 6.44211 12.1187 6.43751C12.2682 6.41226 12.419 6.3951 12.5703 6.3861V5.99348C12.5703 5.96587 12.5927 5.94348 12.6203 5.94348ZM12.9737 5.94348C13.0013 5.94348 13.0237 5.96587 13.0237 5.99348V6.38598C13.1772 6.39473 13.3302 6.41193 13.482 6.43751C13.5092 6.4421 13.5275 6.4679 13.523 6.49513C13.5184 6.52236 13.4926 6.54071 13.4653 6.53612C13.3019 6.50856 13.1369 6.49097 12.9714 6.48343C12.9447 6.48221 12.9237 6.46021 12.9237 6.43348V5.99348C12.9237 5.96587 12.946 5.94348 12.9737 5.94348ZM12.8001 6.73015L12.8003 6.73015C13.0298 6.73015 13.2596 6.75039 13.4762 6.791C13.5033 6.79609 13.5212 6.82222 13.5161 6.84936C13.511 6.8765 13.4849 6.89438 13.4578 6.88929C13.2477 6.84991 13.0242 6.83015 12.8004 6.83015C12.5753 6.83117 12.3507 6.851 12.1289 6.88941C12.1016 6.89413 12.0758 6.87589 12.0711 6.84868C12.0663 6.82147 12.0846 6.79559 12.1118 6.79088C12.3391 6.75151 12.5694 6.73119 12.8001 6.73015Z" fill="black"/>
<path d="M12.1203 7.8468C12.0536 8.98014 11.9203 10.1468 11.4736 10.9868L12.1936 10.6935C12.447 9.74014 12.5003 8.5068 12.5736 7.92014L12.1203 7.8468ZM13.4803 7.8468L13.0203 7.92014C13.1003 8.5068 13.1536 9.74014 13.4003 10.6935L14.1203 10.9868C13.6803 10.1468 13.547 8.9868 13.4803 7.8468Z" fill="#FFD83D"/>
<path fill-rule="evenodd" clip-rule="evenodd" d="M13.0101 7.85434L13.4701 7.78101L13.4806 7.84684L13.5471 7.84295C13.6138 8.98369 13.7471 10.1301 14.1796 10.9559C14.1926 10.9807 14.1887 11.011 14.1699 11.0317C14.1511 11.0524 14.1213 11.0591 14.0954 11.0486L13.3754 10.7552C13.3559 10.7473 13.3413 10.7306 13.336 10.7102C13.2114 10.2287 13.136 9.67813 13.0818 9.17651C13.0582 8.95819 13.0386 8.75024 13.0209 8.56084C12.9975 8.3121 12.9772 8.09536 12.9545 7.92918C12.9496 7.89328 12.9743 7.86004 13.0101 7.85434ZM13.4184 7.92426L13.095 7.97581C13.1147 8.13438 13.1333 8.33234 13.1541 8.55336C13.1719 8.74279 13.1913 8.94915 13.2143 9.16217C13.2672 9.65083 13.3396 10.1803 13.4568 10.6444L13.9836 10.859C13.607 10.0406 13.4823 8.97119 13.4184 7.92426ZM12.1312 7.78103L12.5845 7.85436C12.62 7.86009 12.6445 7.89284 12.64 7.92844C12.6215 8.07649 12.6042 8.26842 12.5843 8.48816C12.5267 9.12573 12.4478 9.99745 12.2583 10.7106C12.253 10.7308 12.2384 10.7474 12.219 10.7552L11.499 11.0486C11.4731 11.0592 11.4432 11.0523 11.4244 11.0315C11.4056 11.0107 11.4019 10.9803 11.415 10.9555C11.854 10.13 11.9873 8.97712 12.054 7.84293L12.1206 7.84684L12.1312 7.78103ZM12.1827 7.92442C12.1188 8.96514 11.9941 10.0395 11.6123 10.8585L12.1379 10.6443C12.3181 9.94964 12.3935 9.11527 12.4502 8.48852C12.4678 8.29419 12.4836 8.11983 12.5001 7.97577L12.1827 7.92442Z" fill="black"/>
<path d="M12.7998 10.3135C11.9332 10.3135 11.2998 10.7135 11.2665 11.7535C11.0532 11.3801 10.1665 10.2201 9.33316 10.3735C8.83983 10.4668 8.39983 11.1535 8.47983 11.9335C8.0665 10.7601 6.87316 10.5668 5.99316 11.2668C6.77316 11.9001 7.11983 13.7868 7.77316 14.6001H17.8198C18.4732 13.7868 18.8198 11.9001 19.5998 11.2668C18.7265 10.5668 17.5265 10.7601 17.1198 11.9335C17.1865 11.1535 16.7532 10.4668 16.2532 10.3735C15.4265 10.2201 14.5398 11.3801 14.3265 11.7535C14.2932 10.7201 13.6598 10.3135 12.7932 10.3135H12.7998Z" fill="#FFD83D"/>
<path fill-rule="evenodd" clip-rule="evenodd" d="M12.7922 10.2468C12.7926 10.2468 12.793 10.2468 12.7934 10.2468H12.8001M12.8013 10.2468C13.2408 10.2481 13.6305 10.3521 13.9158 10.5953C14.166 10.8085 14.3286 11.1224 14.3785 11.548C14.5199 11.342 14.7454 11.0603 15.0154 10.8165C15.3694 10.4969 15.8192 10.2251 16.2656 10.3079L16.2657 10.308C16.5409 10.3593 16.7884 10.5712 16.957 10.8626C17.0799 11.0751 17.1635 11.3338 17.1869 11.614C17.4168 11.1863 17.771 10.926 18.1699 10.8327C18.6525 10.72 19.1914 10.8538 19.6418 11.2148C19.6575 11.2274 19.6667 11.2465 19.6668 11.2666C19.6668 11.2868 19.6578 11.3059 19.6421 11.3186C19.4569 11.4689 19.294 11.6969 19.1433 11.9725C18.9928 12.2475 18.8572 12.5651 18.7243 12.8911C18.693 12.968 18.6618 13.0455 18.6306 13.1229C18.5301 13.3724 18.4296 13.6218 18.3249 13.8528C18.1876 14.1554 18.0407 14.4319 17.8721 14.6419C17.8594 14.6577 17.8403 14.6668 17.8201 14.6668H7.77342C7.75322 14.6668 7.7341 14.6577 7.72145 14.6419C7.55278 14.4319 7.40587 14.1554 7.26865 13.8528C7.16387 13.6217 7.06341 13.3724 6.96288 13.1229C6.9317 13.0455 6.90051 12.968 6.86919 12.8911C6.73634 12.5651 6.60067 12.2475 6.45025 11.9725C6.29951 11.6969 6.13657 11.4689 5.9514 11.3186C5.93572 11.3058 5.92666 11.2867 5.92676 11.2665C5.92686 11.2463 5.93611 11.2272 5.95192 11.2147C6.40553 10.8538 6.94434 10.72 7.42693 10.8327C7.82439 10.9256 8.17739 11.1844 8.4092 11.6092C8.4301 11.3308 8.51241 11.0739 8.63398 10.8627C8.80173 10.5713 9.04912 10.3594 9.32103 10.308L9.32136 10.3079C9.77091 10.2252 10.2223 10.4968 10.5772 10.8165C10.8478 11.0602 11.0734 11.3418 11.2149 11.5479C11.2647 11.1196 11.4272 10.8054 11.6778 10.5927C11.9632 10.3503 12.3529 10.248 12.7922 10.2468M12.7967 10.3802C12.374 10.3807 12.0179 10.4787 11.7641 10.6943C11.5111 10.9092 11.3496 11.2493 11.3334 11.7556C11.3324 11.7854 11.3118 11.811 11.2828 11.8182C11.2539 11.8254 11.2237 11.8125 11.2089 11.7866C11.1054 11.6055 10.8347 11.2279 10.488 10.9155C10.138 10.6003 9.72939 10.3685 9.34566 10.439C9.12429 10.481 8.90509 10.659 8.74953 10.9293C8.59478 11.1981 8.50785 11.5508 8.54641 11.9267C8.54986 11.9603 8.52763 11.9912 8.49467 11.9985C8.46171 12.0059 8.42843 11.9875 8.41721 11.9556C8.21735 11.3883 7.83229 11.0644 7.39659 10.9626C6.98091 10.8654 6.51063 10.9685 6.09898 11.2701C6.27641 11.4334 6.42936 11.6564 6.56723 11.9085C6.72159 12.1907 6.85967 12.5144 6.99266 12.8408C7.02447 12.9189 7.05597 12.9971 7.08734 13.075C7.18763 13.3239 7.28659 13.5695 7.39008 13.7977C7.52033 14.085 7.65563 14.3396 7.80575 14.5335H17.7878C17.9379 14.3396 18.0732 14.085 18.2034 13.7977C18.3069 13.5695 18.4059 13.3239 18.5062 13.0749C18.5375 12.9971 18.569 12.9189 18.6009 12.8408C18.7338 12.5144 18.8719 12.1907 19.0263 11.9085C19.1642 11.6563 19.3172 11.4332 19.4947 11.2699C19.0861 10.9685 18.616 10.8654 18.2003 10.9626C17.7645 11.0644 17.3796 11.3883 17.1831 11.9553C17.1721 11.9871 17.1391 12.0057 17.1062 11.9987C17.0733 11.9917 17.0508 11.9613 17.0537 11.9278C17.0858 11.5514 16.9972 11.1983 16.8416 10.9294C16.6852 10.6591 16.4659 10.481 16.2412 10.439C15.861 10.3685 15.4541 10.6001 15.1048 10.9155C14.7588 11.2278 14.4881 11.6055 14.3846 11.7866C14.3698 11.8125 14.3396 11.8254 14.3107 11.8182C14.2817 11.811 14.2611 11.7855 14.2601 11.7556C14.2439 11.2528 14.0825 10.9125 13.8293 10.6967C13.5754 10.4803 13.2192 10.3807 12.7967 10.3802Z" fill="black"/>
<path d="M17.8071 14.6001C17.8071 14.9734 15.5671 15.3801 12.8004 15.3801C10.0338 15.3801 7.78711 14.9801 7.78711 14.6001C7.78711 14.2334 10.0338 14.0334 12.8004 14.0334C15.5604 14.0334 17.8071 14.2334 17.8071 14.6001Z" fill="black"/>
<path fill-rule="evenodd" clip-rule="evenodd" d="M7.91421 14.5133C7.8506 14.5519 7.83633 14.5822 7.83633 14.6002C7.83633 14.6221 7.85336 14.6568 7.91715 14.702C7.97861 14.7455 8.0723 14.7905 8.19746 14.8353C8.44714 14.9247 8.81101 15.0098 9.26352 15.0833C10.1678 15.2303 11.4184 15.3302 12.7997 15.3302C14.1808 15.3302 15.4297 15.2287 16.3324 15.0808C16.7841 15.0069 17.1472 14.9216 17.3963 14.8325C17.5211 14.7878 17.6146 14.7431 17.6759 14.7C17.7397 14.6551 17.7563 14.621 17.7563 14.6002C17.7563 14.5822 17.7421 14.5519 17.6785 14.5133C17.6175 14.4763 17.5241 14.4399 17.3988 14.4051C17.1491 14.3359 16.7852 14.2769 16.3327 14.2291C15.4285 14.1335 14.1788 14.0835 12.7997 14.0835C11.4172 14.0835 10.1658 14.1335 9.26075 14.2291C8.80783 14.2769 8.44379 14.3359 8.19395 14.4051C8.06864 14.4399 7.97523 14.4763 7.91421 14.5133ZM9.25024 14.1296C10.1602 14.0335 11.4155 13.9835 12.7997 13.9835C14.1805 13.9835 15.4341 14.0335 16.3432 14.1296C16.7974 14.1776 17.1678 14.2373 17.4255 14.3088C17.554 14.3444 17.6577 14.3837 17.7303 14.4278C17.8004 14.4703 17.8563 14.5266 17.8563 14.6002C17.8563 14.6727 17.8029 14.733 17.7334 14.7818C17.6614 14.8324 17.5583 14.8807 17.4299 14.9266C17.1726 15.0187 16.8027 15.1052 16.3486 15.1795C15.4396 15.3284 14.1851 15.4302 12.7997 15.4302C11.4142 15.4302 10.1581 15.3301 9.24747 15.182C8.79248 15.1081 8.42176 15.0219 8.16374 14.9294C8.03504 14.8833 7.9316 14.8347 7.85938 14.7836C7.78951 14.7342 7.73633 14.6733 7.73633 14.6002C7.73633 14.5266 7.79227 14.4703 7.86233 14.4278C7.93498 14.3837 8.03871 14.3444 8.16725 14.3088C8.42512 14.2373 8.79566 14.1776 9.25024 14.1296Z" fill="black"/>
<path d="M12.7997 7.86022C12.9286 7.86022 13.0331 7.75575 13.0331 7.62689C13.0331 7.49802 12.9286 7.39355 12.7997 7.39355C12.6709 7.39355 12.5664 7.49802 12.5664 7.62689C12.5664 7.75575 12.6709 7.86022 12.7997 7.86022Z" fill="#FFD83D"/>
<path fill-rule="evenodd" clip-rule="evenodd" d="M12.7999 7.44351C12.6987 7.44351 12.6166 7.52559 12.6166 7.62684C12.6166 7.72809 12.6987 7.81017 12.7999 7.81017C12.9012 7.81017 12.9833 7.72809 12.9833 7.62684C12.9833 7.52559 12.9012 7.44351 12.7999 7.44351ZM12.5166 7.62684C12.5166 7.47036 12.6435 7.34351 12.7999 7.34351C12.9564 7.34351 13.0833 7.47036 13.0833 7.62684C13.0833 7.78332 12.9564 7.91017 12.7999 7.91017C12.6435 7.91017 12.5166 7.78332 12.5166 7.62684Z" fill="black"/>
<path d="M12.8004 8.38017C12.9366 8.38017 13.047 8.26974 13.047 8.13351C13.047 7.99728 12.9366 7.88684 12.8004 7.88684C12.6641 7.88684 12.5537 7.99728 12.5537 8.13351C12.5537 8.26974 12.6641 8.38017 12.8004 8.38017Z" fill="#FFD83D"/>
<path fill-rule="evenodd" clip-rule="evenodd" d="M12.7996 7.93679C12.691 7.93679 12.6029 8.02484 12.6029 8.13346C12.6029 8.24207 12.691 8.33012 12.7996 8.33012C12.9082 8.33012 12.9963 8.24207 12.9963 8.13346C12.9963 8.02484 12.9082 7.93679 12.7996 7.93679ZM12.5029 8.13346C12.5029 7.96961 12.6358 7.83679 12.7996 7.83679C12.9634 7.83679 13.0963 7.96961 13.0963 8.13346C13.0963 8.2973 12.9634 8.43012 12.7996 8.43012C12.6358 8.43012 12.5029 8.2973 12.5029 8.13346Z" fill="black"/>
<path d="M12.7997 8.95353C12.9507 8.95353 13.073 8.83115 13.073 8.68019C13.073 8.52924 12.9507 8.40686 12.7997 8.40686C12.6487 8.40686 12.5264 8.52924 12.5264 8.68019C12.5264 8.83115 12.6487 8.95353 12.7997 8.95353Z" fill="#FFD83D"/>
<path fill-rule="evenodd" clip-rule="evenodd" d="M12.7999 8.45681C12.6766 8.45681 12.5766 8.5568 12.5766 8.68014C12.5766 8.80349 12.6766 8.90348 12.7999 8.90348C12.9232 8.90348 13.0232 8.80349 13.0232 8.68014C13.0232 8.5568 12.9232 8.45681 12.7999 8.45681ZM12.4766 8.68014C12.4766 8.50157 12.6213 8.35681 12.7999 8.35681C12.9785 8.35681 13.1232 8.50157 13.1232 8.68014C13.1232 8.85872 12.9785 9.00348 12.7999 9.00348C12.6213 9.00348 12.4766 8.85872 12.4766 8.68014Z" fill="black"/>
<path d="M12.7997 9.60018C12.9727 9.60018 13.113 9.45989 13.113 9.28684C13.113 9.11379 12.9727 8.97351 12.7997 8.97351C12.6266 8.97351 12.4863 9.11379 12.4863 9.28684C12.4863 9.45989 12.6266 9.60018 12.7997 9.60018Z" fill="#FFD83D"/>
<path fill-rule="evenodd" clip-rule="evenodd" d="M12.7999 9.02346C12.6544 9.02346 12.5365 9.14136 12.5365 9.2868C12.5365 9.43223 12.6544 9.55013 12.7999 9.55013C12.9453 9.55013 13.0632 9.43223 13.0632 9.2868C13.0632 9.14136 12.9453 9.02346 12.7999 9.02346ZM12.4365 9.2868C12.4365 9.08613 12.5992 8.92346 12.7999 8.92346C13.0005 8.92346 13.1632 9.08613 13.1632 9.2868C13.1632 9.48746 13.0005 9.65013 12.7999 9.65013C12.5992 9.65013 12.4365 9.48746 12.4365 9.2868Z" fill="black"/>
<path d="M12.8 10.3001C12.9877 10.3001 13.14 10.1479 13.14 9.96012C13.14 9.77234 12.9877 9.62012 12.8 9.62012C12.6122 9.62012 12.46 9.77234 12.46 9.96012C12.46 10.1479 12.6122 10.3001 12.8 10.3001Z" fill="#FFD83D"/>
<path fill-rule="evenodd" clip-rule="evenodd" d="M12.8002 9.67019C12.64 9.67019 12.5102 9.80003 12.5102 9.96019C12.5102 10.1204 12.64 10.2502 12.8002 10.2502C12.9603 10.2502 13.0902 10.1204 13.0902 9.96019C13.0902 9.80003 12.9603 9.67019 12.8002 9.67019ZM12.4102 9.96019C12.4102 9.7448 12.5848 9.57019 12.8002 9.57019C13.0155 9.57019 13.1902 9.7448 13.1902 9.96019C13.1902 10.1756 13.0155 10.3502 12.8002 10.3502C12.5848 10.3502 12.4102 10.1756 12.4102 9.96019Z" fill="black"/>
<path d="M12.6666 10.6135C12.6266 10.6135 12.5933 10.6469 12.6 10.7069L12.64 10.9935C12.6533 11.0935 12.7066 11.0602 12.7266 10.9935C12.74 10.9135 12.7333 10.8602 12.74 10.7202C12.74 10.6469 12.7 10.6135 12.66 10.6135H12.6666ZM12.9333 10.6135C12.8933 10.6135 12.86 10.6469 12.86 10.7202C12.86 10.8602 12.86 10.9135 12.8733 10.9869C12.8866 11.0669 12.94 11.0935 12.96 10.9869L12.9933 10.7069C13.0066 10.6402 12.9666 10.6135 12.9333 10.6135ZM12.42 10.6535C12.4023 10.6535 12.3853 10.6605 12.3728 10.6731C12.3603 10.6856 12.3533 10.7025 12.3533 10.7202C12.3533 10.7869 12.3733 10.8735 12.38 10.9735C12.3933 11.0735 12.4666 11.0402 12.4733 10.9735C12.4733 10.9202 12.4866 10.8269 12.4733 10.7135C12.4733 10.6735 12.46 10.6535 12.4333 10.6469C12.4289 10.6463 12.4244 10.6463 12.42 10.6469V10.6535ZM13.16 10.6535C13.14 10.6535 13.12 10.6735 13.1133 10.7202C13.1097 10.8049 13.1142 10.8897 13.1266 10.9735C13.1266 11.0402 13.2066 11.0735 13.2133 10.9735C13.2133 10.8735 13.24 10.7935 13.24 10.7269C13.24 10.6869 13.2066 10.6602 13.1733 10.6535C13.1689 10.653 13.1644 10.653 13.16 10.6535ZM12.1333 10.7669C12.1 10.7735 12.0666 10.8135 12.08 10.8535C12.1 10.9402 12.12 11.0335 12.12 11.1202C12.12 11.1935 12.18 11.1669 12.1866 11.1202C12.1918 11.0314 12.1941 10.9425 12.1933 10.8535C12.1933 10.7869 12.16 10.7602 12.1266 10.7669H12.1333ZM13.44 10.7669C13.42 10.7735 13.4 10.8002 13.4 10.8535L13.4133 11.1202C13.4133 11.1669 13.48 11.1935 13.48 11.1202C13.48 11.0335 13.4933 10.9402 13.5133 10.8535C13.5266 10.8135 13.4933 10.7735 13.4666 10.7669C13.4601 10.7652 13.4532 10.7652 13.4466 10.7669H13.44ZM9.50664 10.7802C9.46664 10.7802 9.43998 10.8269 9.46664 10.8802C9.50664 10.9735 9.55331 11.0269 9.59331 11.1202C9.62664 11.2069 9.68664 11.1535 9.66664 11.0935L9.57331 10.8469C9.55331 10.8002 9.52664 10.7802 9.50664 10.7802ZM16.0933 10.7802C16.0666 10.7802 16.0466 10.8002 16.0266 10.8469C15.9666 10.9735 15.9466 11.0335 15.9266 11.0935C15.9133 11.1602 15.9666 11.2069 16.0066 11.1202L16.1266 10.8802C16.1533 10.8269 16.1266 10.7802 16.0933 10.7802ZM9.77331 10.7802C9.73998 10.7935 9.72664 10.8269 9.73998 10.8669C9.77998 10.9469 9.82664 11.0335 9.85998 11.1202C9.88664 11.1935 9.95331 11.1735 9.92664 11.1069L9.85998 10.8602C9.83331 10.7935 9.79331 10.7735 9.77331 10.7802ZM15.8066 10.7802C15.78 10.7869 15.7533 10.8135 15.74 10.8602C15.6933 10.9935 15.6866 11.0335 15.6666 11.1069C15.64 11.1735 15.7066 11.1935 15.7333 11.1202L15.8533 10.8669C15.8666 10.8269 15.8533 10.7935 15.8266 10.7802C15.8201 10.7785 15.8132 10.7785 15.8066 10.7802ZM10.1066 10.8469C10.0666 10.8535 10.04 10.9069 10.0666 10.9735C10.0933 11.0535 10.1333 11.1269 10.1733 11.2202C10.2133 11.3135 10.2733 11.2935 10.26 11.2335C10.24 11.1735 10.2266 11.0802 10.18 10.9335C10.16 10.8669 10.1333 10.8402 10.1066 10.8469ZM15.4933 10.8469C15.4666 10.8469 15.4333 10.8669 15.4133 10.9335C15.3733 11.0802 15.3466 11.1735 15.34 11.2335C15.32 11.3002 15.3866 11.3135 15.42 11.2202C15.46 11.1269 15.5 11.0535 15.5266 10.9735C15.5533 10.9069 15.5266 10.8535 15.4933 10.8469ZM9.27998 10.8935C9.23998 10.8935 9.21331 10.9602 9.23331 11.0069C9.26664 11.0735 9.29331 11.1002 9.32664 11.1802C9.36664 11.2602 9.40664 11.2002 9.39331 11.1469C9.37331 11.0935 9.35331 11.0335 9.33998 10.9602C9.32664 10.9069 9.29998 10.8935 9.27331 10.8935H9.27998ZM16.32 10.8935C16.2933 10.8935 16.2733 10.9069 16.2533 10.9602L16.2066 11.1469C16.1933 11.2002 16.2333 11.2602 16.2733 11.1802C16.3066 11.1002 16.3266 11.0802 16.3666 11.0069C16.3866 10.9602 16.3533 10.9002 16.32 10.8935ZM11.8533 11.0802C11.8066 11.0802 11.7666 11.1335 11.7866 11.1802C11.8 11.2602 11.84 11.3269 11.86 11.4269C11.8866 11.5135 11.9466 11.4735 11.94 11.4135C11.9351 11.324 11.924 11.2349 11.9066 11.1469C11.8933 11.1002 11.8733 11.0802 11.8466 11.0802H11.8533ZM13.7466 11.0802C13.7266 11.0802 13.7 11.1002 13.6933 11.1469C13.6737 11.2347 13.6604 11.3238 13.6533 11.4135C13.6533 11.4735 13.7133 11.5135 13.7333 11.4269L13.8133 11.1802C13.8266 11.1335 13.7866 11.0802 13.7466 11.0802ZM12.8 11.1602C12.7466 11.1602 12.74 11.2269 12.74 11.2735C12.7359 11.4254 12.6897 11.5731 12.6066 11.7002C12.54 11.7802 12.4533 11.7602 12.3733 11.7135C12.2958 11.6713 12.2221 11.6222 12.1533 11.5669C12.06 11.5002 11.9933 11.5402 12.1 11.6935C12.4066 12.1335 12.74 12.5069 12.74 13.2269C12.74 13.3135 12.76 13.3402 12.8 13.3402C12.84 13.3402 12.8533 13.3135 12.8533 13.2202C12.8533 12.5069 13.1866 12.1335 13.4933 11.6869C13.6 11.5402 13.5333 11.5002 13.4466 11.5669C13.3781 11.6226 13.3044 11.6717 13.2266 11.7135C13.14 11.7602 13.0533 11.7802 12.9933 11.7002C12.9102 11.5731 12.864 11.4254 12.86 11.2735C12.8533 11.2269 12.8466 11.1602 12.7933 11.1602H12.8ZM10.4466 11.0535C10.4422 11.0528 10.4377 11.0528 10.4333 11.0535C10.4133 11.0602 10.4066 11.0802 10.4133 11.1202L10.4866 11.3802C10.5066 11.4469 10.58 11.4269 10.5666 11.3469L10.5266 11.1402C10.5133 11.0869 10.4733 11.0535 10.4466 11.0535ZM15.1533 11.0535C15.12 11.0535 15.0866 11.0869 15.0733 11.1402C15.0466 11.2335 15.0466 11.2602 15.0333 11.3402C15.0133 11.4269 15.0933 11.4402 15.1066 11.3802L15.1866 11.1135C15.1866 11.0802 15.18 11.0602 15.16 11.0535C15.1556 11.0528 15.1511 11.0528 15.1466 11.0535H15.1533ZM9.04664 11.0802C9.00664 11.0802 8.97998 11.1335 9.01998 11.2002C9.05998 11.2802 9.13331 11.3735 9.16664 11.4335C9.19998 11.4869 9.25998 11.4469 9.21998 11.3802C9.17998 11.3135 9.16664 11.2269 9.11331 11.1269C9.10891 11.1128 9.09998 11.1006 9.08792 11.0922C9.07586 11.0837 9.06135 11.0795 9.04664 11.0802ZM16.5466 11.0802C16.5266 11.0802 16.5 11.0935 16.48 11.1269C16.4333 11.2269 16.4133 11.3069 16.38 11.3802C16.34 11.4469 16.3933 11.4869 16.4266 11.4335C16.46 11.3735 16.5333 11.2802 16.5733 11.2002C16.6133 11.1335 16.5866 11.0802 16.5466 11.0802ZM6.93331 11.3002C6.89331 11.3002 6.87998 11.3802 6.91998 11.4335C6.97175 11.499 7.0298 11.5593 7.09331 11.6135C7.14664 11.6669 7.15998 11.6002 7.13331 11.5469L7.01331 11.3669C6.97998 11.3202 6.95331 11.3002 6.93331 11.3002ZM18.66 11.3002C18.64 11.3002 18.6133 11.3202 18.5866 11.3669L18.46 11.5469C18.4333 11.6002 18.4466 11.6669 18.5066 11.6135C18.5702 11.5594 18.6283 11.4991 18.68 11.4335C18.72 11.3802 18.7066 11.3002 18.66 11.3002ZM7.27331 11.3669C7.23331 11.3669 7.20664 11.3935 7.23998 11.4535L7.36664 11.7069C7.39998 11.7735 7.49998 11.7935 7.45998 11.6935L7.37331 11.4402C7.35331 11.3935 7.30664 11.3735 7.27331 11.3735V11.3669ZM18.3266 11.3669C18.2866 11.3669 18.24 11.3935 18.22 11.4402L18.14 11.6935C18.1 11.7935 18.2 11.7735 18.2333 11.7069C18.2666 11.6402 18.32 11.5402 18.3533 11.4535C18.3866 11.3935 18.36 11.3669 18.3266 11.3669ZM6.61998 11.3935C6.56664 11.3935 6.56664 11.4402 6.61331 11.4735C6.67331 11.5202 6.74664 11.5669 6.81331 11.6269C6.89998 11.6935 6.92664 11.6269 6.87998 11.5735C6.83998 11.5202 6.79998 11.4669 6.68664 11.4069C6.65998 11.3935 6.63998 11.3935 6.61998 11.3935ZM18.9733 11.3935C18.96 11.3935 18.9333 11.3935 18.9066 11.4069C18.8 11.4669 18.7533 11.5202 18.7066 11.5735C18.6666 11.6335 18.7 11.6935 18.78 11.6269C18.8466 11.5669 18.9266 11.5202 18.98 11.4735C19.0333 11.4402 19.0266 11.3935 18.98 11.3935H18.9733ZM11.6666 11.4402C11.6333 11.4402 11.6133 11.4735 11.62 11.5202L11.6866 11.7602C11.7 11.8335 11.7866 11.8335 11.7733 11.7602C11.76 11.6935 11.7533 11.6069 11.7266 11.5002C11.72 11.4602 11.7 11.4402 11.6733 11.4335C11.6711 11.4333 11.6689 11.4333 11.6666 11.4335V11.4402ZM13.92 11.4402C13.9 11.4402 13.88 11.4602 13.8666 11.5069C13.84 11.6069 13.8333 11.6935 13.82 11.7669C13.8066 11.8335 13.8933 11.8335 13.9066 11.7602L13.9733 11.5202C13.9866 11.4735 13.96 11.4402 13.9333 11.4402C13.9289 11.4394 13.9244 11.4394 13.92 11.4402ZM9.65331 11.3069C9.63331 11.3069 9.61998 11.3535 9.63998 11.4202C9.71069 11.6123 9.7468 11.8155 9.74664 12.0202C9.72664 12.1002 9.67998 12.1069 9.61998 12.0869C9.55458 12.0546 9.49212 12.0167 9.43331 11.9735C9.37998 11.9402 9.31998 11.9802 9.39998 12.0469C9.79998 12.3802 10.0866 12.7602 10.2 13.2202C10.2133 13.3135 10.2733 13.3269 10.26 13.2202C10.1666 12.6402 10.1466 12.1602 10.2866 11.8669C10.34 11.7535 10.2866 11.6469 10.2066 11.8269C10.1466 11.9469 10.06 11.9935 9.98664 11.8935C9.88241 11.7308 9.79315 11.559 9.71998 11.3802C9.70664 11.3335 9.68664 11.3135 9.66664 11.3069C9.66444 11.3065 9.66218 11.3065 9.65998 11.3069H9.65331ZM15.9266 11.3069C15.9066 11.3069 15.8866 11.3335 15.8733 11.3735C15.8266 11.5069 15.68 11.7869 15.6066 11.8935C15.5333 12.0002 15.4466 11.9469 15.3933 11.8269C15.3066 11.6469 15.26 11.7535 15.3066 11.8669C15.4466 12.1602 15.4266 12.6402 15.34 13.2202C15.32 13.3269 15.38 13.3135 15.4066 13.2202C15.5299 12.752 15.807 12.3387 16.1933 12.0469C16.2733 11.9802 16.2133 11.9402 16.16 11.9802C16.1008 12.019 16.0384 12.0524 15.9733 12.0802C15.9066 12.1069 15.8666 12.1002 15.8466 12.0135C15.8333 11.9335 15.86 11.7535 15.96 11.4135C15.9733 11.3602 15.96 11.3135 15.94 11.3069C15.9357 11.3053 15.931 11.3053 15.9266 11.3069ZM7.62664 11.4669C7.59331 11.4669 7.55998 11.4935 7.57998 11.5469C7.60664 11.6402 7.65998 11.7335 7.67998 11.7869C7.69998 11.8469 7.75998 11.8202 7.74664 11.7402L7.71331 11.5335C7.71331 11.4935 7.66664 11.4669 7.62664 11.4669ZM17.9666 11.4669C17.9266 11.4669 17.8866 11.4935 17.88 11.5335L17.8533 11.7402C17.84 11.8202 17.9 11.8469 17.92 11.7869C17.9333 11.7335 17.9866 11.6402 18.0133 11.5469C18.0333 11.4935 18.0066 11.4669 17.9666 11.4669ZM8.87998 11.3535C8.83998 11.3469 8.83331 11.4535 8.86664 11.5002L9.05331 11.7069C9.10664 11.7735 9.13998 11.7135 9.10664 11.6602L8.93331 11.4069C8.91331 11.3735 8.89331 11.3535 8.87998 11.3535ZM16.7133 11.3535C16.7 11.3535 16.68 11.3735 16.66 11.4069L16.4866 11.6602C16.4533 11.7135 16.4866 11.7735 16.5466 11.7069L16.7266 11.5002C16.76 11.4535 16.76 11.3469 16.7133 11.3535ZM7.91331 11.6202C7.88664 11.6202 7.86664 11.6335 7.87998 11.6869C7.89331 11.7669 7.91331 11.8202 7.93331 11.8935C7.95331 11.9602 7.99998 11.9535 7.99998 11.8869L7.97998 11.6735C7.97707 11.6576 7.96895 11.643 7.95689 11.6321C7.94482 11.6213 7.9295 11.6147 7.91331 11.6135V11.6202ZM17.68 11.6202C17.6644 11.6199 17.6492 11.625 17.637 11.6348C17.6248 11.6445 17.6164 11.6582 17.6133 11.6735L17.5933 11.8869C17.5933 11.9535 17.6466 11.9669 17.66 11.8935L17.72 11.6935C17.7333 11.6335 17.7066 11.6135 17.68 11.6135V11.6202ZM8.78664 11.7135C8.74664 11.7135 8.71331 11.7602 8.75998 11.8202C8.83331 11.9202 8.91998 11.9869 8.95331 12.0202C8.97998 12.0602 9.05331 12.0469 9.00664 11.9735L8.85331 11.7402C8.83998 11.7135 8.81331 11.7069 8.78664 11.7135ZM16.7866 11.7135C16.7733 11.7135 16.7533 11.7202 16.7466 11.7402L16.5866 11.9735C16.54 12.0469 16.6133 12.0602 16.6466 12.0269C16.6733 11.9869 16.76 11.9202 16.84 11.8202C16.8866 11.7535 16.8466 11.7135 16.8066 11.7135C16.8022 11.713 16.7977 11.713 16.7933 11.7135H16.7866ZM7.40664 11.9869C7.37998 11.9869 7.36664 12.0135 7.40664 12.0735C7.5096 12.1984 7.58462 12.3439 7.62664 12.5002C7.63331 12.5935 7.59331 12.5935 7.55331 12.5935C7.42664 12.5935 7.36664 12.5002 7.25998 12.4735C7.14664 12.4535 7.12664 12.5069 7.20664 12.5669C7.58877 12.8085 7.92136 13.1207 8.18664 13.4869C8.25331 13.6135 8.33998 13.6535 8.29331 13.5402C8.16378 13.2802 8.10842 12.9896 8.13331 12.7002C8.16664 12.5135 8.21331 12.3935 8.20664 12.2869C8.20664 12.1869 8.13998 12.1935 8.11998 12.2869L8.05331 12.4735C8.02664 12.5069 7.93331 12.5269 7.85331 12.4135C7.73993 12.2744 7.61504 12.145 7.47998 12.0269C7.45998 12.0069 7.43331 11.9935 7.41331 11.9869H7.40664ZM18.1866 11.9869C18.1666 11.9869 18.14 12.0002 18.1133 12.0269C17.9806 12.1454 17.858 12.2747 17.7466 12.4135C17.66 12.5269 17.5666 12.5069 17.5466 12.4802C17.5162 12.4189 17.4938 12.3539 17.48 12.2869C17.4533 12.1935 17.3933 12.1869 17.3866 12.2869C17.3866 12.3935 17.4266 12.5135 17.46 12.7002C17.4933 12.8869 17.46 13.1802 17.3066 13.5402C17.2533 13.6535 17.3466 13.6069 17.4133 13.4869C17.6761 13.1209 18.0065 12.8087 18.3866 12.5669C18.4666 12.5069 18.4533 12.4535 18.34 12.4735C18.2266 12.5002 18.1666 12.5935 18.0466 12.5935C18.0066 12.5935 17.96 12.5935 17.9666 12.5002C17.9733 12.4135 18.0866 12.2069 18.1866 12.0735C18.2266 12.0069 18.22 11.9869 18.1866 11.9869Z" fill="black"/>
<path d="M8.00684 14.1802L8.14017 14.5869L8.00684 14.1802ZM8.2735 14.1002L8.3935 14.5135L8.2735 14.1002ZM8.56684 14.0469L8.64684 14.4735L8.56684 14.0469ZM8.8335 14.0002L8.92017 14.4202L8.8335 14.0002ZM9.1735 13.9669L9.24017 14.3935L9.1735 13.9669ZM9.54017 13.9669L9.6135 14.3869L9.54017 13.9669ZM9.90017 13.8469L9.9535 14.2735L9.90017 13.8469ZM10.2335 13.8669L10.2868 14.2935L10.2335 13.8669ZM10.5602 13.8269L10.6135 14.2535L10.5602 13.8269ZM10.8802 13.7869L10.9135 14.2202L10.8802 13.7869ZM11.2335 13.7869L11.2602 14.2202L11.2335 13.7869ZM11.5535 13.7669L11.5735 14.2002L11.5535 13.7669ZM11.9002 13.7469L11.9202 14.1735L11.9002 13.7469ZM12.3002 13.7335L12.3202 14.1669L12.3002 13.7335ZM17.5868 14.1802L17.4535 14.5869L17.5868 14.1802ZM17.3202 14.1002L17.2068 14.5135L17.3202 14.1002ZM17.0335 14.0469L16.9535 14.4735L17.0335 14.0469ZM16.7668 14.0002L16.6802 14.4202L16.7668 14.0002ZM16.4135 13.9669L16.3468 14.3935L16.4135 13.9669ZM16.0535 13.9669L15.9802 14.3935L16.0535 13.9669ZM15.7002 13.8469L15.6468 14.2735L15.7002 13.8469ZM15.3602 13.8669L15.3068 14.2935L15.3602 13.8669ZM15.0402 13.8269L14.9802 14.2535L15.0402 13.8269ZM14.7135 13.7869L14.6802 14.2202L14.7135 13.7869ZM14.3602 13.7869L14.3335 14.2202L14.3602 13.7869ZM14.0468 13.7669L14.0268 14.2002L14.0468 13.7669ZM13.6935 13.7469L13.6802 14.1735L13.6935 13.7469ZM13.2935 13.7335L13.2802 14.1669L13.2935 13.7335ZM12.8002 13.7002V14.1802V13.7002Z" fill="#FFD83D"/>
<path fill-rule="evenodd" clip-rule="evenodd" d="M12.8004 13.6501C12.828 13.6501 12.8504 13.6725 12.8504 13.7001V14.1801C12.8504 14.2078 12.828 14.2301 12.8004 14.2301C12.7728 14.2301 12.7504 14.2078 12.7504 14.1801V13.7001C12.7504 13.6725 12.7728 13.6501 12.8004 13.6501ZM12.2981 13.6835C12.3257 13.6823 12.3491 13.7036 12.3503 13.7312L12.3703 14.1645C12.3716 14.1921 12.3503 14.2155 12.3227 14.2168C12.2951 14.218 12.2717 14.1967 12.2704 14.1691L12.2504 13.7358C12.2492 13.7082 12.2705 13.6848 12.2981 13.6835ZM13.2952 13.6835C13.3228 13.6844 13.3445 13.7074 13.3437 13.735L13.3304 14.1684C13.3295 14.196 13.3064 14.2176 13.2788 14.2168C13.2512 14.2159 13.2296 14.1929 13.2304 14.1653L13.2437 13.7319C13.2446 13.7043 13.2676 13.6827 13.2952 13.6835ZM11.898 13.6969C11.9256 13.6956 11.949 13.7169 11.9503 13.7445L11.9703 14.1711C11.9716 14.1987 11.9503 14.2221 11.9227 14.2234C11.8951 14.2247 11.8717 14.2034 11.8704 14.1758L11.8504 13.7492C11.8491 13.7216 11.8705 13.6982 11.898 13.6969ZM13.6953 13.6968C13.7229 13.6977 13.7445 13.7208 13.7437 13.7484L13.7304 14.175C13.7295 14.2026 13.7064 14.2243 13.6788 14.2235C13.6512 14.2226 13.6295 14.1995 13.6304 14.1719L13.6437 13.7453C13.6446 13.7177 13.6677 13.696 13.6953 13.6968ZM11.5514 13.7169C11.579 13.7156 11.6024 13.7369 11.6037 13.7645L11.6237 14.1978C11.6249 14.2254 11.6036 14.2488 11.576 14.2501C11.5484 14.2514 11.525 14.23 11.5238 14.2025L11.5038 13.7691C11.5025 13.7415 11.5238 13.7181 11.5514 13.7169ZM14.0493 13.7169C14.0769 13.7181 14.0983 13.7415 14.097 13.7691L14.077 14.2025C14.0757 14.23 14.0523 14.2514 14.0247 14.2501C13.9972 14.2488 13.9758 14.2254 13.9771 14.1978L13.9971 13.7645C13.9984 13.7369 14.0218 13.7156 14.0493 13.7169ZM10.8765 13.737C10.9041 13.7348 10.9281 13.7554 10.9302 13.783L10.9636 14.2163C10.9657 14.2438 10.9451 14.2679 10.9175 14.27C10.89 14.2721 10.866 14.2515 10.8639 14.224L10.8305 13.7906C10.8284 13.7631 10.849 13.7391 10.8765 13.737ZM14.7175 13.737C14.7451 13.7391 14.7657 13.7631 14.7636 13.7906L14.7302 14.224C14.7281 14.2515 14.7041 14.2721 14.6765 14.27C14.649 14.2679 14.6284 14.2438 14.6305 14.2163L14.6639 13.783C14.666 13.7554 14.69 13.7348 14.7175 13.737ZM11.2306 13.7369C11.2582 13.7352 11.2819 13.7562 11.2836 13.7837L11.3103 14.2171C11.312 14.2446 11.291 14.2684 11.2634 14.2701C11.2359 14.2717 11.2122 14.2508 11.2105 14.2232L11.1838 13.7899C11.1821 13.7623 11.2031 13.7386 11.2306 13.7369ZM14.3634 13.7369C14.391 13.7386 14.412 13.7623 14.4103 13.7899L14.3836 14.2232C14.3819 14.2508 14.3582 14.2717 14.3306 14.2701C14.3031 14.2684 14.2821 14.2446 14.2838 14.2171L14.3105 13.7837C14.3122 13.7562 14.3359 13.7352 14.3634 13.7369ZM15.0473 13.7773C15.0747 13.7811 15.0937 13.8064 15.0899 13.8338L15.0299 14.2604C15.026 14.2878 15.0008 14.3068 14.9734 14.303C14.9461 14.2991 14.927 14.2739 14.9309 14.2465L14.9909 13.8198C14.9947 13.7925 15.02 13.7735 15.0473 13.7773ZM10.5542 13.7772C10.5816 13.7738 10.6066 13.7932 10.61 13.8206L10.6633 14.2473C10.6667 14.2747 10.6473 14.2997 10.6199 14.3031C10.5925 14.3065 10.5675 14.2871 10.5641 14.2597L10.5108 13.833C10.5073 13.8056 10.5268 13.7806 10.5542 13.7772ZM9.89418 13.7972C9.92158 13.7938 9.94657 13.8132 9.94999 13.8406L10.0033 14.2673C10.0068 14.2947 9.98731 14.3197 9.95991 14.3231C9.93251 14.3265 9.90752 14.3071 9.9041 14.2797L9.85076 13.853C9.84734 13.8256 9.86678 13.8006 9.89418 13.7972ZM15.7066 13.7972C15.734 13.8006 15.7534 13.8256 15.75 13.853L15.6967 14.2797C15.6932 14.3071 15.6682 14.3265 15.6408 14.3231C15.6134 14.3197 15.594 14.2947 15.5974 14.2673L15.6508 13.8406C15.6542 13.8132 15.6792 13.7938 15.7066 13.7972ZM10.2275 13.8172C10.2549 13.8138 10.2799 13.8332 10.2833 13.8606L10.3367 14.2873C10.3401 14.3147 10.3206 14.3397 10.2932 14.3431C10.2658 14.3465 10.2409 14.3271 10.2374 14.2997L10.1841 13.873C10.1807 13.8456 10.2001 13.8206 10.2275 13.8172ZM15.3666 13.8172C15.394 13.8206 15.4134 13.8456 15.41 13.873L15.3567 14.2997C15.3532 14.3271 15.3282 14.3465 15.3008 14.3431C15.2734 14.3397 15.254 14.3147 15.2574 14.2873L15.3108 13.8606C15.3142 13.8332 15.3392 13.8138 15.3666 13.8172ZM9.53178 13.9176C9.55898 13.9128 9.58488 13.931 9.58963 13.9582L9.66297 14.3782C9.66772 14.4054 9.64951 14.4313 9.62231 14.4361C9.59511 14.4408 9.56921 14.4226 9.56446 14.3954L9.49112 13.9754C9.48637 13.9482 9.50458 13.9223 9.53178 13.9176ZM16.0622 13.9175C16.0894 13.9222 16.1077 13.9481 16.103 13.9753L16.0297 14.4019C16.025 14.4292 15.9991 14.4474 15.9719 14.4428C15.9447 14.4381 15.9264 14.4122 15.9311 14.385L16.0044 13.9583C16.0091 13.9311 16.035 13.9129 16.0622 13.9175ZM9.16599 13.9174C9.19328 13.9131 9.21885 13.9318 9.22311 13.9591L9.28978 14.3858C9.29404 14.413 9.27538 14.4386 9.2481 14.4429C9.22081 14.4471 9.19524 14.4285 9.19098 14.4012L9.12431 13.9745C9.12005 13.9472 9.13871 13.9217 9.16599 13.9174ZM16.4214 13.9174C16.4487 13.9217 16.4674 13.9472 16.4631 13.9745L16.3964 14.4012C16.3922 14.4285 16.3666 14.4471 16.3393 14.4429C16.312 14.4386 16.2934 14.413 16.2976 14.3858L16.3643 13.9591C16.3686 13.9318 16.3941 13.9131 16.4214 13.9174ZM8.82361 13.9512C8.85065 13.9456 8.8771 13.963 8.88268 13.99L8.96935 14.41C8.97493 14.4371 8.95753 14.4635 8.93048 14.4691C8.90344 14.4747 8.87699 14.4573 8.87141 14.4303L8.78474 14.0103C8.77916 13.9832 8.79656 13.9568 8.82361 13.9512ZM16.7771 13.9512C16.8042 13.9568 16.8216 13.9832 16.816 14.0103L16.7293 14.4303C16.7238 14.4573 16.6973 14.4747 16.6703 14.4691C16.6432 14.4635 16.6258 14.4371 16.6314 14.41L16.7181 13.99C16.7237 13.963 16.7501 13.9456 16.7771 13.9512ZM8.55783 13.9977C8.58497 13.9926 8.6111 14.0105 8.61619 14.0376L8.69619 14.4643C8.70128 14.4914 8.6834 14.5175 8.65626 14.5226C8.62912 14.5277 8.60299 14.5098 8.5979 14.4827L8.5179 14.056C8.51281 14.0289 8.53069 14.0028 8.55783 13.9977ZM17.0429 13.9977C17.0701 14.0028 17.0879 14.0289 17.0829 14.056L17.0029 14.4827C16.9978 14.5098 16.9716 14.5277 16.9445 14.5226C16.9174 14.5175 16.8995 14.4914 16.9046 14.4643L16.9846 14.0376C16.9897 14.0105 17.0158 13.9926 17.0429 13.9977ZM8.25977 14.0521C8.28629 14.0444 8.31403 14.0597 8.32173 14.0862L8.44173 14.4995C8.44943 14.5261 8.43417 14.5538 8.40765 14.5615C8.38113 14.5692 8.35339 14.5539 8.34569 14.5274L8.22569 14.1141C8.218 14.0876 8.23325 14.0598 8.25977 14.0521ZM17.3336 14.0519C17.3602 14.0592 17.3759 14.0867 17.3686 14.1134L17.2553 14.5267C17.248 14.5533 17.2205 14.569 17.1938 14.5617C17.1672 14.5544 17.1515 14.5269 17.1588 14.5003L17.2722 14.0869C17.2795 14.0603 17.307 14.0446 17.3336 14.0519ZM7.99147 14.1326C8.01771 14.124 8.04595 14.1383 8.05456 14.1646L8.18789 14.5712C8.19649 14.5975 8.1822 14.6257 8.15596 14.6343C8.12972 14.6429 8.10147 14.6286 8.09287 14.6024L7.95953 14.1957C7.95093 14.1695 7.96523 14.1412 7.99147 14.1326ZM17.6026 14.1326C17.6289 14.1412 17.6432 14.1695 17.6346 14.1957L17.5012 14.6024C17.4926 14.6286 17.4644 14.6429 17.4381 14.6343C17.4119 14.6257 17.3976 14.5975 17.4062 14.5712L17.5395 14.1646C17.5481 14.1383 17.5764 14.124 17.6026 14.1326Z" fill="black"/>
</g>
<defs>
<clipPath id="clip0_8424_43244">
<rect width="40" height="40" rx="20" fill="white"/>
</clipPath>
</defs>
</svg>
