<svg width="40" height="40" viewBox="0 0 40 40" fill="none" xmlns="http://www.w3.org/2000/svg">
<g clip-path="url(#clip0_8424_43227)">
<path d="M-7 0H46.3333V40H-7V0Z" fill="#00785E"/>
<path d="M17.584 9.05817L20.959 11.5165L19.6673 7.5415L18.3757 11.5165L21.759 9.05817H17.584Z" fill="#FBD116"/>
<path d="M19.6669 27.6336H11.1253C11.0176 27.5245 10.912 27.4134 10.8086 27.3003H19.6669C19.7013 27.3125 19.731 27.335 19.752 27.3649C19.7729 27.3948 19.7839 27.4305 19.7836 27.467C19.7836 27.5336 19.7419 27.6086 19.6669 27.6336ZM19.6669 25.0253C19.7634 24.8291 19.7983 24.6083 19.7669 24.392C19.7509 24.2817 19.7171 24.1748 19.6669 24.0753C18.8992 24.806 17.9719 25.348 16.9586 25.6586C16.3237 25.8516 15.6638 25.9499 15.0003 25.9503H9.74193C9.89539 26.178 10.0566 26.4003 10.2253 26.617H15.3086C16.9753 26.617 18.4919 26.017 19.6669 25.0253ZM10.5336 22.967C10.2743 23.0637 10.0017 23.12 9.72526 23.1336C10.3586 23.8536 11.138 24.4303 12.0116 24.8255C12.8853 25.2206 13.8331 25.4251 14.7919 25.4253C15.7031 25.4255 16.6049 25.241 17.4428 24.8829C18.2807 24.5249 19.0373 24.0006 19.6669 23.342C19.9011 21.7188 20.0264 20.0818 20.0419 18.442C20.062 16.5546 19.9366 14.6684 19.6669 12.8003C19.1169 13.3003 18.0836 14.3586 17.6003 15.992C17.419 16.6174 17.3292 17.2658 17.3336 17.917C17.3333 19.2526 17.7308 20.5581 18.4753 21.667C17.5579 20.4875 17.0594 19.0362 17.0586 17.542C17.0586 16.5086 17.2919 15.5253 17.7086 14.6503C17.4186 14.3429 17.2046 13.9719 17.0836 13.567C16.5073 14.5832 16.2058 15.732 16.2086 16.9003C16.2086 18.4003 16.7003 19.792 17.5336 20.9086C16.7498 20.085 15.7977 19.4398 14.7423 19.017C13.6868 18.5943 12.5526 18.4038 11.4169 18.4586C11.6472 18.6713 11.8389 18.9222 11.9836 19.2003C13.0525 19.2016 14.1101 19.4193 15.0926 19.8404C16.0751 20.2615 16.9621 20.8771 17.7003 21.6503C16.2756 20.4559 14.476 19.801 12.6169 19.8003C11.5672 19.7983 10.5276 20.0051 9.55859 20.4086C10.0783 21.7826 11.031 22.9501 12.2727 23.7349C13.5145 24.5196 14.9779 24.879 16.4419 24.7586C16.0503 24.8253 15.6503 24.867 15.2419 24.867C13.4876 24.8701 11.8012 24.1884 10.5419 22.967H10.5336ZM19.6669 30.367H15.2419C16.6503 30.9253 18.1519 31.2109 19.6669 31.2086C19.7356 31.0803 19.7727 30.9375 19.7753 30.792C19.7741 30.6436 19.7369 30.4978 19.6669 30.367ZM19.6669 28.3253H11.8669C12.0776 28.505 12.2944 28.6773 12.5169 28.842H19.6669C19.7343 28.7726 19.773 28.6803 19.7753 28.5836C19.777 28.5353 19.7683 28.4871 19.7495 28.4425C19.7308 28.3979 19.7026 28.3579 19.6669 28.3253ZM19.6669 29.367H13.2753C13.6622 29.612 14.0628 29.8345 14.4753 30.0336H19.6669C19.7338 29.9293 19.7686 29.8076 19.7669 29.6836C19.7628 29.571 19.7282 29.4616 19.6669 29.367Z" fill="white"/>
<path d="M9.70898 14.5669L11.8257 16.5335L11.2673 13.7002L10.0507 16.3169L12.5757 14.9169L9.70898 14.5669ZM12.784 11.9002L15.6757 11.9502L13.3673 10.2002L14.209 12.9752L15.1507 10.2335L12.784 11.9002Z" fill="#FBD116"/>
</g>
<defs>
<clipPath id="clip0_8424_43227">
<rect width="40" height="40" rx="20" fill="white"/>
</clipPath>
</defs>
</svg>
