<svg width="40" height="40" viewBox="0 0 40 40" fill="none" xmlns="http://www.w3.org/2000/svg">
<g clip-path="url(#clip0_8424_43219)">
<path d="M-7 0H46.3333V40H-7V0Z" fill="#CC0000"/>
<path d="M-6.95898 3.3252H46.291V6.5252H-6.95898V3.3252ZM-6.95898 9.88353H46.291V13.0835H-6.95898V9.88353ZM-6.95898 16.4502H46.291V19.6502H-6.95898V16.4502Z" fill="white"/>
<path d="M-7 0.0415039H19.6667V23.3748H-7V0.0415039Z" fill="#000066"/>
<path d="M10.291 6.14984L10.791 9.54151L12.7076 6.70817L11.6743 9.97484L14.6326 8.24151L12.291 10.7415L15.7076 10.4748L12.516 11.7082L15.7076 12.9415L12.291 12.6748L14.6326 15.1748L11.6743 13.4415L12.6993 16.7165L10.7826 13.8748L10.2826 17.2665L9.79097 13.8748L7.8743 16.7082L8.90763 13.4415L5.9493 15.1748L8.28263 12.6748L4.86596 12.9415L8.06597 11.7082L4.8743 10.4748L8.29097 10.7415L5.9493 8.24151L8.90763 9.97484L7.8743 6.69984L9.79097 9.54151L10.291 6.14984ZM7.51596 6.29151C6.61393 5.89165 5.62633 5.7234 4.64278 5.80201C3.65923 5.88062 2.71089 6.20362 1.88383 6.74167C1.05676 7.27973 0.377164 8.01582 -0.0932879 8.88312C-0.56374 9.75043 -0.810148 10.7215 -0.810148 11.7082C-0.810148 12.6949 -0.56374 13.6659 -0.0932879 14.5332C0.377164 15.4005 1.05676 16.1366 1.88383 16.6747C2.71089 17.2127 3.65923 17.5357 4.64278 17.6143C5.62633 17.693 6.61393 17.5247 7.51596 17.1248C6.51975 17.8396 5.34571 18.2658 4.12295 18.3566C2.9002 18.4473 1.67611 18.1991 0.585296 17.6392C-0.505519 17.0793 -1.4208 16.2294 -2.05989 15.183C-2.69897 14.1367 -3.03711 12.9343 -3.03711 11.7082C-3.03711 10.4821 -2.69897 9.27969 -2.05989 8.23331C-1.4208 7.18692 -0.505519 6.33705 0.585296 5.77716C1.67611 5.21727 2.9002 4.96905 4.12295 5.05979C5.34571 5.15053 6.51975 5.57673 7.51596 6.29151Z" fill="#FFCC00"/>
<path d="M-6.95833 23.0166H46.2917V26.2166H-6.95833V23.0166ZM-6.95833 29.5333H46.2917V32.7333H-6.95833V29.5333ZM-7 36.7999H46.25V39.9999H-7V36.7999Z" fill="white"/>
</g>
<defs>
<clipPath id="clip0_8424_43219">
<rect width="40" height="40" rx="20" fill="white"/>
</clipPath>
</defs>
</svg>
