<svg width="40" height="40" viewBox="0 0 40 40" fill="none" xmlns="http://www.w3.org/2000/svg">
<g clip-path="url(#clip0_8424_43201)">
<path fill-rule="evenodd" clip-rule="evenodd" d="M-13 0H40.3333V40H-13V0Z" fill="#F41408"/>
<path fill-rule="evenodd" clip-rule="evenodd" d="M-13 26.6667H40.3333V40H-13V26.6667Z" fill="#21873B"/>
<path fill-rule="evenodd" clip-rule="evenodd" d="M-13 0H40.3333V13.3333H-13V0Z" fill="black"/>
<path fill-rule="evenodd" clip-rule="evenodd" d="M5.37504 11.75C7.23337 7.65 12.4167 5.68333 16.9417 7.375C18.0037 7.73502 18.9805 8.30902 19.8118 9.06152C20.6432 9.81402 21.3113 10.729 21.775 11.75H5.37504ZM3.20837 12.2833C1.73784 12.1832 0.277645 11.9659 -1.15829 11.6333C-1.49996 11.525 -1.51663 11.3333 -1.47496 11.1917C-1.43329 11.05 -1.21663 10.8917 -0.958293 10.9417C-0.491627 11.0583 1.44171 11.525 3.20837 12.2833ZM13.5917 5.125C13.2417 3.375 13.1584 1.45833 13.1917 1.125C13.225 0.8 13.4167 0.75 13.5834 0.75C13.75 0.75 13.975 0.9 13.975 1.14167C13.975 1.58333 13.9667 3.39167 13.5917 5.14167V5.125ZM14.5584 5.16667C14.4202 3.83174 14.4118 2.48655 14.5334 1.15C14.6 0.825 14.8 0.783333 14.9584 0.8C15.125 0.808333 15.3334 0.975 15.3084 1.21667C15.2667 1.65833 15.0917 3.45833 14.5584 5.16667ZM15.425 5.275C15.4084 3.5 15.675 1.58333 15.7667 1.275C15.8584 0.95 16.0667 0.925 16.225 0.95C16.3917 0.975 16.5834 1.15833 16.5417 1.39167C16.4584 1.83333 16.1084 3.60833 15.425 5.275ZM16.3417 5.45833C16.4917 3.69167 16.95 1.80833 17.075 1.5C17.2 1.19167 17.4084 1.18333 17.5584 1.21667C17.725 1.25833 17.8917 1.45 17.8334 1.68333C17.7 2.10833 17.1917 3.85 16.35 5.45833H16.3417ZM17.25 5.725C17.575 3.975 18.2084 2.13333 18.3584 1.83333C18.5167 1.54167 18.7167 1.54167 18.875 1.59167C19.025 1.64167 19.1834 1.85833 19.1 2.075C18.5981 3.3465 17.9788 4.56845 17.25 5.725ZM18.0917 6.04167C18.575 4.31667 19.3834 2.54167 19.5667 2.25C19.75 1.96667 19.95 1.99167 20.1 2.05833C20.25 2.11667 20.3834 2.34167 20.275 2.55833C20.0667 2.95833 19.2334 4.59167 18.0917 6.04167ZM18.925 6.43333C19.4207 5.15936 20.0345 3.93458 20.7584 2.775C20.9584 2.50833 21.1667 2.55 21.3084 2.625C21.3503 2.64984 21.3869 2.68279 21.4159 2.72193C21.445 2.76106 21.4659 2.8056 21.4776 2.85293C21.4892 2.90026 21.4913 2.94944 21.4837 2.99758C21.4761 3.04573 21.459 3.09188 21.4334 3.13333C21.1834 3.51667 20.1917 5.08333 18.925 6.43333ZM19.7084 6.89167C20.5167 5.275 21.65 3.64167 21.8834 3.39167C22.1167 3.14167 22.3167 3.2 22.45 3.28333C22.4898 3.31149 22.5236 3.3473 22.5493 3.38865C22.5751 3.43 22.5924 3.47608 22.6001 3.52418C22.6079 3.57228 22.606 3.62145 22.5945 3.66881C22.5831 3.71617 22.5623 3.76077 22.5334 3.8C22.2417 4.16667 21.1 5.64167 19.7 6.88333L19.7084 6.89167ZM20.4417 7.40833C21.4084 5.85833 22.6917 4.325 22.95 4.1C23.2 3.86667 23.4 3.93333 23.525 4.03333C23.5615 4.06505 23.5912 4.10382 23.6122 4.1473C23.6333 4.19078 23.6454 4.23807 23.6477 4.28633C23.6501 4.3346 23.6426 4.38284 23.6258 4.42815C23.609 4.47346 23.5833 4.51491 23.55 4.55C23.2334 4.89167 21.9584 6.275 20.4417 7.40833ZM21.1334 7.98333C21.9788 6.86879 22.9214 5.83139 23.95 4.88333C24.225 4.675 24.4084 4.75833 24.525 4.85833C24.5596 4.89356 24.5865 4.93554 24.6041 4.98165C24.6216 5.02776 24.6295 5.077 24.6271 5.12629C24.6248 5.17558 24.6123 5.22385 24.5904 5.26808C24.5686 5.31231 24.5378 5.35155 24.5 5.38333C24.1584 5.7 22.75 6.975 21.1334 7.98333ZM21.7667 8.60833C22.7111 7.56343 23.7488 6.6067 24.8667 5.75C25.1667 5.55833 25.3417 5.65833 25.45 5.775C25.55 5.88333 25.575 6.14167 25.3667 6.29167C24.2338 7.16343 23.0295 7.93838 21.7667 8.60833ZM22.3084 9.25833C23.3503 8.28842 24.4739 7.41016 25.6667 6.63333C25.975 6.46667 26.1417 6.58333 26.2334 6.70833C26.3334 6.825 26.325 7.08333 26.1167 7.21667C25.7167 7.46667 24.0917 8.51667 22.3084 9.25833ZM22.8 9.95C23.927 9.07071 25.1256 8.28742 26.3834 7.60833C26.7167 7.46667 26.875 7.59167 26.9584 7.71667C27.0417 7.85 27.0084 8.1 26.7917 8.21667C25.5078 8.90238 24.17 9.48208 22.7917 9.95H22.8ZM23.25 10.75C24.4639 9.96788 25.7405 9.28777 27.0667 8.71667C27.4084 8.6 27.55 8.74167 27.6167 8.875C27.6917 9.00833 27.6417 9.25833 27.4 9.35833C26.9584 9.54167 25.15 10.3083 23.25 10.75ZM23.6 11.5167C24.8838 10.8307 26.2216 10.251 27.6 9.78333C27.95 9.7 28.075 9.85 28.1334 9.99167C28.1834 10.125 28.1084 10.375 27.8667 10.45C27.4084 10.6083 25.5334 11.225 23.6 11.5167ZM23.8834 12.3333C25.2263 11.7524 26.6142 11.2814 28.0334 10.925C28.3834 10.875 28.5 11.025 28.5417 11.175C28.5834 11.3167 28.4834 11.55 28.2334 11.6167C27.7584 11.725 25.8334 12.2 23.8834 12.3333ZM12.65 5.16667C12.2547 3.87892 11.984 2.55618 11.8417 1.21667C11.8417 0.891667 12.0334 0.816667 12.1917 0.8C12.3584 0.791667 12.6084 0.925 12.625 1.15833C12.6667 1.6 12.8417 3.4 12.6584 5.16667H12.65ZM11.7334 5.275C11.2121 4.02765 10.813 2.7327 10.5417 1.40833C10.5084 1.075 10.6917 0.991667 10.85 0.966667C11.0167 0.941667 11.2667 1.05 11.3167 1.28333C11.5774 2.59835 11.7169 3.9345 11.7334 5.275ZM10.8167 5.45833C10.1767 4.25506 9.65217 2.99387 9.25004 1.69167C9.18337 1.36667 9.35837 1.26667 9.51671 1.225C9.67504 1.19167 9.93337 1.275 10.0084 1.50833C10.1334 1.93333 10.65 3.675 10.8084 5.45L10.8167 5.45833ZM9.94171 5.70833C9.19711 4.56166 8.56102 3.34808 8.04171 2.08333C7.95004 1.76667 8.10837 1.65 8.25837 1.6C8.41671 1.55 8.68337 1.61667 8.77504 1.83333C8.94171 2.25 9.62504 3.95 9.94171 5.7V5.70833ZM9.10004 6C8.24586 4.91845 7.4927 3.76083 6.85004 2.54167C6.73337 2.23333 6.88337 2.1 7.03337 2.04167C7.18337 1.975 7.45004 2.025 7.56671 2.24167C7.77504 2.64167 8.60837 4.28333 9.10004 6ZM8.24171 6.41667C7.28344 5.40826 6.41878 4.31488 5.65837 3.15C5.51671 2.85833 5.65004 2.71667 5.79171 2.64167C5.93337 2.56667 6.20837 2.59167 6.34171 2.8C6.59171 3.18333 7.59171 4.74167 8.24171 6.41667ZM7.45837 6.86667C6.41172 5.93401 5.44963 4.91057 4.58337 3.80833C4.40837 3.525 4.52504 3.375 4.66671 3.28333C4.79171 3.2 5.08337 3.2 5.22504 3.4C5.50837 3.75833 6.65004 5.23333 7.45837 6.85833V6.86667ZM6.73337 7.36667C5.60051 6.51857 4.54373 5.57332 3.57504 4.54167C3.37504 4.275 3.48337 4.125 3.60837 4.025C3.69646 3.97042 3.80043 3.9473 3.90335 3.9594C4.00626 3.97151 4.10203 4.01813 4.17504 4.09167C4.49171 4.425 5.77504 5.81667 6.73337 7.36667ZM6.02504 7.95C4.81507 7.19652 3.67199 6.3406 2.60837 5.39167C2.37504 5.14167 2.46671 4.975 2.58337 4.86667C2.66765 4.80452 2.77067 4.77311 2.87529 4.77766C2.9799 4.78221 3.0798 4.82244 3.15837 4.89167C3.50837 5.2 4.90837 6.475 6.02504 7.94167V7.95ZM5.40837 8.53333C4.1325 7.87586 2.91431 7.11205 1.76671 6.25C1.51671 6.01667 1.59171 5.85 1.70004 5.73333C1.80004 5.61667 2.07504 5.55833 2.27504 5.70833C3.39965 6.56016 4.44804 7.50818 5.40837 8.54167V8.53333ZM4.82504 9.21667C3.48895 8.66342 2.20117 8.00003 0.97504 7.23333C0.70004 7.025 0.758373 6.84167 0.85004 6.725C0.941707 6.6 1.20837 6.51667 1.42504 6.65C1.82504 6.90833 3.45004 7.94167 4.82504 9.21667ZM4.30004 9.95C2.45004 9.36667 0.558373 8.48333 0.266706 8.29167C-0.0332935 8.10833 0.0167073 7.925 0.0917072 7.79167C0.166707 7.65833 0.42504 7.55833 0.658373 7.675C1.07504 7.9 2.80837 8.8 4.30004 9.95ZM3.85837 10.7C1.95837 10.2583 3.98159e-05 9.53333 -0.316627 9.36667C-0.62496 9.2 -0.608293 9.01667 -0.533293 8.88333C-0.466626 8.75 -0.22496 8.625 0.0167065 8.71667C0.458373 8.90833 2.26671 9.66667 3.85837 10.7ZM3.50837 11.45C2.05562 11.2267 0.623209 10.8867 -0.77496 10.4333C-1.10829 10.3 -1.09163 10.1083 -1.04163 9.975C-0.983293 9.83333 -0.74996 9.69167 -0.508294 9.76667C-0.041627 9.925 1.82504 10.5417 3.50837 11.45Z" fill="#F31509"/>
<path fill-rule="evenodd" clip-rule="evenodd" d="M3.20837 12.2833C1.73784 12.1832 0.277651 11.9658 -1.15829 11.6334C-1.49996 11.525 -1.51663 11.3334 -1.47496 11.1917C-1.43329 11.05 -1.21663 10.8917 -0.958293 10.9417C-0.491627 11.0584 1.44171 11.525 3.20837 12.2833Z" fill="#F31509"/>
<path fill-rule="evenodd" clip-rule="evenodd" d="M-2.2168 11.7917H29.5499V12.8417H-2.2168V11.7917Z" fill="black"/>
</g>
<defs>
<clipPath id="clip0_8424_43201">
<rect width="40" height="40" rx="20" fill="white"/>
</clipPath>
</defs>
</svg>
