<svg width="40" height="40" viewBox="0 0 40 40" fill="none" xmlns="http://www.w3.org/2000/svg">
<g clip-path="url(#clip0_8424_43220)">
<path d="M-7 0H46.3333V40H-7V0Z" fill="#D21034"/>
<path d="M3 10H36.3333V30H3V10Z" fill="#007E3A"/>
<path d="M22.1667 26.6668C25.8486 26.6668 28.8333 23.6821 28.8333 20.0002C28.8333 16.3183 25.8486 13.3335 22.1667 13.3335C18.4848 13.3335 15.5 16.3183 15.5 20.0002C15.5 23.6821 18.4848 26.6668 22.1667 26.6668Z" fill="white"/>
<path d="M24.6667 26.6668C28.3486 26.6668 31.3333 23.6821 31.3333 20.0002C31.3333 16.3183 28.3486 13.3335 24.6667 13.3335C20.9848 13.3335 18 16.3183 18 20.0002C18 23.6821 20.9848 26.6668 24.6667 26.6668Z" fill="#007E3A"/>
</g>
<defs>
<clipPath id="clip0_8424_43220">
<rect width="40" height="40" rx="20" fill="white"/>
</clipPath>
</defs>
</svg>
