<svg width="40" height="40" viewBox="0 0 40 40" fill="none" xmlns="http://www.w3.org/2000/svg">
<g clip-path="url(#clip0_8424_43222)">
<path fill-rule="evenodd" clip-rule="evenodd" d="M19.667 0H46.3337V40H19.667V0Z" fill="#CE0000"/>
<path fill-rule="evenodd" clip-rule="evenodd" d="M-7 0H19.6667V40H-7V0Z" fill="white"/>
<path fill-rule="evenodd" clip-rule="evenodd" d="M5.9274 11.8208C5.9274 11.9407 5.8075 12.0207 5.66096 12.0207C5.5011 12.0207 5.39453 11.9407 5.39453 11.8342C5.39453 11.7276 5.5011 11.6343 5.66096 11.6343C5.8075 11.6343 5.9274 11.7276 5.9274 11.8342V11.8208Z" fill="#F1EEEE"/>
<path fill-rule="evenodd" clip-rule="evenodd" d="M-2.61133 10.8883V15.844H2.35765C2.35765 16.6699 3.1836 17.4959 4.00954 17.4959V22.4515H8.97852V17.4959C9.80446 17.4959 10.6304 16.6699 10.6304 15.844H15.5861V10.8883H10.6171C10.6171 10.0624 9.79114 9.23642 8.9652 9.23642V4.28076H4.00954V9.23642C3.17028 9.23642 2.34433 10.0624 2.34433 10.8883H-2.61133Z" fill="#CC0000"/>
<path fill-rule="evenodd" clip-rule="evenodd" d="M-2.43848 11.0482V15.6841H2.51718C2.51718 16.51 3.34313 17.336 4.16907 17.336V22.2916H8.79169V17.3493C9.61763 17.3493 10.4436 16.5234 10.4436 15.6974H15.4126V11.0615H10.4569C10.4569 10.2355 9.63095 9.4096 8.80501 9.4096V4.44061H4.16907V9.39627C3.34313 9.39627 2.51718 10.2222 2.51718 11.0482H-2.43848Z" fill="#FFE600"/>
<path fill-rule="evenodd" clip-rule="evenodd" d="M-2.27832 11.2214V15.511H2.67734C2.67734 16.3369 3.50328 17.1628 4.32923 17.1628V22.1185H8.63212V17.1628C9.45807 17.1628 10.284 16.3369 10.284 15.511H15.2397V11.2214H10.284C10.284 10.3954 9.45807 9.56949 8.63212 9.56949V4.61383H4.32923V9.55617C3.50328 9.55617 2.67734 10.3821 2.67734 11.2081H-2.27832V11.2214Z" fill="#707070"/>
<path fill-rule="evenodd" clip-rule="evenodd" d="M-2.10484 11.3812V15.3511H2.85082C2.85082 16.177 3.67676 17.003 4.5027 17.003V21.9453H8.45924V16.9896C9.28518 16.9896 10.1111 16.1637 10.1111 15.3378H15.0668V11.3679H10.1111C10.1111 10.542 9.28518 9.71602 8.45924 9.71602V4.77368H4.5027V9.72934C3.67676 9.72934 2.85082 10.5553 2.85082 11.3812H-2.11816H-2.10484Z" fill="#A0A0A0"/>
<path fill-rule="evenodd" clip-rule="evenodd" d="M4.54241 9.31637C4.82216 9.60945 4.59569 10.3155 4.00954 10.9017C3.42339 11.4878 2.73066 11.701 2.43758 11.4345C2.14451 11.1281 2.3843 10.4221 2.97045 9.83592C3.5566 9.24977 4.24933 9.03662 4.54241 9.31637Z" fill="#D0D0D0"/>
<path fill-rule="evenodd" clip-rule="evenodd" d="M4.18317 9.66275C4.47625 9.95582 4.39632 10.502 4.00999 10.9017C3.62366 11.3013 3.07747 11.3679 2.78439 11.0748C2.49132 10.7818 2.57125 10.2356 2.95758 9.84925C3.34391 9.46292 3.89009 9.38299 4.18317 9.66275Z" fill="#808080"/>
<path fill-rule="evenodd" clip-rule="evenodd" d="M2.73047 10.5419L2.83704 10.4354L3.3033 10.6618L3.07683 10.1956L3.19673 10.0757L3.66299 11.0082L2.73047 10.5419ZM3.4232 9.84922L3.55641 9.716L4.24914 10.4354L4.12924 10.5419L3.4232 9.84922Z" fill="#D0D0D0"/>
<path fill-rule="evenodd" clip-rule="evenodd" d="M10.5235 11.4212C10.2304 11.7143 9.52433 11.4745 8.9515 10.8883C8.37866 10.3022 8.12555 9.60944 8.41863 9.31637C8.71171 9.02329 9.41775 9.26308 10.0039 9.84923C10.5901 10.4354 10.8032 11.1281 10.5368 11.4212H10.5235Z" fill="#D0D0D0"/>
<path fill-rule="evenodd" clip-rule="evenodd" d="M10.1772 11.0748C9.88412 11.3679 9.33793 11.288 8.9516 10.9017C8.56528 10.5153 8.48535 9.96913 8.7651 9.67606C9.05818 9.38298 9.61769 9.46291 10.004 9.84924C10.3903 10.2356 10.4703 10.7818 10.1772 11.0748Z" fill="#808080"/>
<path fill-rule="evenodd" clip-rule="evenodd" d="M9.29829 9.60944L9.41818 9.72933L9.17839 10.1956L9.64465 9.9558L9.77787 10.089L8.83203 10.542L9.29829 9.60944ZM10.0043 10.3155L10.1109 10.4221L9.41818 11.1281L9.29829 11.0082L10.0043 10.3155Z" fill="#D0D0D0"/>
<path fill-rule="evenodd" clip-rule="evenodd" d="M8.41903 17.4159C8.12595 17.1228 8.36574 16.4168 8.9519 15.8306C9.53805 15.2445 10.2308 15.018 10.5239 15.2978C10.8169 15.5908 10.5771 16.2969 9.99099 16.883C9.40483 17.4692 8.71211 17.6957 8.41903 17.4159Z" fill="#D0D0D0"/>
<path fill-rule="evenodd" clip-rule="evenodd" d="M8.77854 17.0562C8.48546 16.7631 8.56539 16.217 8.95172 15.8306C9.33805 15.4443 9.88423 15.3644 10.1773 15.6574C10.4704 15.9505 10.3905 16.4967 10.0041 16.883C9.6178 17.2694 9.07161 17.3493 8.76521 17.0562H8.77854Z" fill="#808080"/>
<path fill-rule="evenodd" clip-rule="evenodd" d="M10.2309 16.177L10.111 16.3102L9.64478 16.0704L9.88457 16.5367L9.76468 16.6433L9.29842 15.7108L10.2309 16.177ZM9.55153 16.8831L9.41831 17.003L8.72559 16.2969L8.84548 16.177L9.55153 16.8831Z" fill="#D0D0D0"/>
<path fill-rule="evenodd" clip-rule="evenodd" d="M2.43728 15.3111C2.73036 15.018 3.4364 15.2578 4.00924 15.8306C4.58207 16.4035 4.82186 17.1228 4.5421 17.4026C4.24903 17.6957 3.54298 17.4692 2.95682 16.883C2.37067 16.2969 2.15752 15.5908 2.42396 15.3111H2.43728Z" fill="#D0D0D0"/>
<path fill-rule="evenodd" clip-rule="evenodd" d="M2.78342 15.6574C3.0765 15.3644 3.62268 15.4443 4.00901 15.8306C4.39534 16.217 4.47527 16.7631 4.18219 17.0562C3.90244 17.3493 3.34293 17.2694 2.9566 16.883C2.57027 16.4967 2.49034 15.9505 2.78342 15.6574Z" fill="#808080"/>
<path fill-rule="evenodd" clip-rule="evenodd" d="M3.66321 17.1228L3.54331 16.9896L3.7831 16.5366L3.31684 16.7631L3.18363 16.6432L4.12947 16.177L3.66321 17.1095V17.1228ZM2.95716 16.4167L2.85059 16.2969L3.54331 15.6041L3.66321 15.7107L2.95716 16.4167Z" fill="#D0D0D0"/>
<path fill-rule="evenodd" clip-rule="evenodd" d="M6.49479 9.92292C4.58993 9.92292 3.04706 11.4654 3.04706 13.3691C3.04706 15.2729 4.58541 16.8153 6.49023 16.8153C8.39507 16.8153 9.93795 15.2682 9.93795 13.3691V13.3461H9.94243C9.93004 11.453 8.39195 9.92292 6.49479 9.92292ZM9.98396 13.3922H9.98859V13.3691C9.98859 11.4399 8.42508 9.87683 6.49479 9.87683C4.56449 9.87683 3.00098 11.4399 3.00098 13.3691C3.00098 15.2983 4.5599 16.8614 6.49023 16.8614C8.41284 16.8614 9.97154 15.3062 9.98396 13.3922Z" fill="#707070"/>
<path fill-rule="evenodd" clip-rule="evenodd" d="M6.47833 10.7364C5.02702 10.7364 3.85152 11.9116 3.85152 13.3621C3.85152 14.8126 5.02358 15.9878 6.47486 15.9878C7.92615 15.9878 9.10166 14.809 9.10166 13.3621V13.3445H9.10508C9.09564 11.9021 7.92377 10.7364 6.47833 10.7364ZM9.13672 13.3797H9.14025V13.3621C9.14025 11.8922 7.94901 10.7013 6.47833 10.7013C5.00764 10.7013 3.81641 11.8922 3.81641 13.3621C3.81641 14.832 5.00414 16.0229 6.47486 16.0229C7.93968 16.0229 9.12726 14.8379 9.13672 13.3797Z" fill="#707070"/>
<path fill-rule="evenodd" clip-rule="evenodd" d="M5.32816 16.177C5.32816 16.2212 5.31061 16.2635 5.27939 16.2948C5.24816 16.326 5.2058 16.3435 5.16164 16.3435C5.11747 16.3435 5.07512 16.326 5.04389 16.2948C5.01266 16.2635 4.99512 16.2212 4.99512 16.177C4.99512 16.1329 5.01266 16.0905 5.04389 16.0593C5.07512 16.028 5.11747 16.0105 5.16164 16.0105C5.2058 16.0105 5.24816 16.028 5.27939 16.0593C5.31061 16.0905 5.32816 16.1329 5.32816 16.177ZM7.96585 16.177C7.96585 16.2212 7.9483 16.2635 7.91708 16.2948C7.88585 16.326 7.84349 16.3435 7.79933 16.3435C7.75516 16.3435 7.71281 16.326 7.68158 16.2948C7.65035 16.2635 7.63281 16.2212 7.63281 16.177C7.63281 16.1329 7.65035 16.0905 7.68158 16.0593C7.71281 16.028 7.75516 16.0105 7.79933 16.0105C7.84349 16.0105 7.88585 16.028 7.91708 16.0593C7.9483 16.0905 7.96585 16.1329 7.96585 16.177ZM6.36725 16.177V16.3502H6.1541C5.92763 16.3502 5.92763 16.5234 6.1541 16.5234H6.36725V16.6832C6.36725 16.8697 6.56707 16.8831 6.58039 16.6966V16.5101H6.80686C7.03333 16.5101 7.03333 16.3502 6.80686 16.3502H6.59372V16.177C6.59372 16.0038 6.36725 16.0038 6.36725 16.177Z" fill="#D0D0D0"/>
<path fill-rule="evenodd" clip-rule="evenodd" d="M5.66101 13.7258V13.8324C5.66101 13.8324 5.60772 13.899 5.27468 13.9257C4.94164 13.9523 4.88835 13.9257 4.88835 13.9257C4.90167 14.0189 4.96828 14.1788 4.94164 14.3653C4.95496 14.5917 4.88835 14.7916 4.88835 14.7916C4.88835 14.8049 4.84839 14.8182 4.78178 14.8049C4.83507 14.7516 4.83507 14.6184 4.83507 14.4052C4.83507 14.2187 4.63524 13.9123 4.67521 13.8324C4.71517 13.7525 5.66101 13.7258 5.66101 13.7258ZM6.96653 13.3795L7.83244 13.3661C7.83244 13.3661 7.96566 13.6326 7.95234 13.7658C7.95234 13.899 7.89905 14.0322 7.84576 13.9656C7.77915 13.899 7.87241 13.9123 7.88573 13.7658C7.88573 13.6059 7.77915 13.4594 7.77915 13.4594C7.77915 13.4594 7.53937 13.5527 7.193 13.5393C6.84664 13.5127 7.0065 13.3795 6.96653 13.3795Z" fill="#D0D0D0"/>
<path fill-rule="evenodd" clip-rule="evenodd" d="M7.8392 13.3632L7.8393 13.3634L7.83959 13.364L7.84072 13.3663C7.8417 13.3683 7.84313 13.3712 7.84495 13.375C7.84858 13.3826 7.85375 13.3935 7.85992 13.4071C7.87224 13.4343 7.88853 13.4719 7.90441 13.5137C7.92029 13.5554 7.93579 13.6015 7.9465 13.6456C7.95714 13.6894 7.96317 13.7318 7.9598 13.7661C7.95975 13.8333 7.94634 13.9008 7.92584 13.9435C7.9157 13.9647 7.90314 13.9812 7.88826 13.9874C7.88052 13.9906 7.87231 13.991 7.86409 13.9879C7.85614 13.9849 7.84865 13.9788 7.8416 13.9701C7.82495 13.9534 7.8167 13.9402 7.81618 13.9272C7.81566 13.9141 7.82305 13.9032 7.83115 13.8918C7.83206 13.8906 7.833 13.8893 7.83396 13.8879C7.85039 13.8651 7.87369 13.8328 7.87987 13.7655C7.8798 13.6871 7.85362 13.6116 7.82722 13.5555C7.81402 13.5275 7.80082 13.5044 7.79094 13.4883C7.78599 13.4803 7.78188 13.474 7.77901 13.4697C7.77844 13.4689 7.77792 13.4681 7.77745 13.4674C7.77578 13.4681 7.77368 13.4688 7.77117 13.4697C7.76386 13.4722 7.75306 13.4759 7.73903 13.4801C7.71096 13.4887 7.66997 13.5 7.61813 13.5109C7.51447 13.5326 7.36738 13.5527 7.19355 13.546L7.19329 13.546C7.10638 13.5393 7.05049 13.5259 7.01507 13.5091C6.97944 13.4923 6.96391 13.4717 6.95917 13.4509C6.95464 13.4309 6.96042 13.4121 6.96431 13.3994L6.9645 13.3988C6.96551 13.3955 6.96634 13.3927 6.96692 13.3904C6.96739 13.3884 6.96761 13.3871 6.96767 13.3861C6.96756 13.3861 6.96745 13.3861 6.96733 13.3861L6.96723 13.3728L6.96733 13.3728L7.83733 13.3594L7.8392 13.3632ZM6.981 13.3859L7.82913 13.3729C7.83007 13.3748 7.83136 13.3775 7.83293 13.3807C7.83653 13.3883 7.84167 13.3991 7.84778 13.4126C7.86003 13.4396 7.8762 13.4769 7.89196 13.5184C7.90772 13.5599 7.92302 13.6054 7.93355 13.6487C7.94411 13.6922 7.94973 13.733 7.94651 13.7651L7.94648 13.7658C7.94648 13.8317 7.93326 13.8973 7.91383 13.9378C7.90398 13.9583 7.89324 13.9709 7.88313 13.9751C7.87838 13.9771 7.87369 13.9773 7.86879 13.9754C7.86372 13.9735 7.85796 13.9692 7.85177 13.9615L7.85127 13.9609C7.83478 13.9444 7.8298 13.9344 7.82949 13.9267C7.82918 13.9189 7.83345 13.9115 7.84199 13.8996C7.84289 13.8983 7.84381 13.897 7.84476 13.8957C7.86168 13.8722 7.8867 13.8375 7.89316 13.7664L7.89319 13.7658C7.89319 13.6845 7.86612 13.6069 7.83927 13.5498C7.82582 13.5213 7.81238 13.4977 7.80228 13.4813C7.79723 13.4731 7.79302 13.4667 7.79006 13.4623C7.78858 13.4601 7.78741 13.4584 7.78661 13.4573L7.78568 13.456L7.78544 13.4556L7.78537 13.4555L7.78232 13.4513L7.77754 13.4532L7.77739 13.4533L7.7769 13.4535L7.77487 13.4542C7.77307 13.4549 7.77036 13.4559 7.76678 13.4571C7.75963 13.4596 7.74899 13.4632 7.73513 13.4674C7.70741 13.4759 7.6668 13.4871 7.6154 13.4979C7.5126 13.5194 7.36667 13.5393 7.19419 13.5327C7.10799 13.5261 7.05402 13.5128 7.02076 13.4971C6.9877 13.4815 6.97575 13.4637 6.97216 13.4479C6.96845 13.4316 6.97322 13.4158 6.97724 13.4027C6.97822 13.3995 6.97918 13.3964 6.97986 13.3935C6.98046 13.3911 6.98097 13.3884 6.981 13.3859ZM4.69666 13.824C4.68779 13.8285 4.68345 13.8324 4.68197 13.8354C4.6778 13.8437 4.67644 13.8558 4.67803 13.8717C4.67961 13.8874 4.684 13.9062 4.6905 13.9275C4.7032 13.969 4.72362 14.0189 4.74555 14.0725L4.74712 14.0763C4.76958 14.1313 4.79341 14.1898 4.81161 14.2463C4.82979 14.3027 4.84253 14.3576 4.84253 14.4053V14.4056C4.84253 14.5119 4.84253 14.5987 4.83583 14.6657C4.82983 14.7257 4.81836 14.7712 4.7954 14.8004C4.82267 14.8048 4.84444 14.8044 4.85965 14.8017C4.86835 14.8001 4.87456 14.7978 4.87841 14.7955C4.88229 14.7931 4.88248 14.7916 4.88249 14.7916C4.88249 14.7916 4.88249 14.7916 4.88249 14.7916L4.88249 14.7905L4.88284 14.7895L4.88288 14.7893L4.88301 14.7889L4.88355 14.7873C4.88403 14.7858 4.88473 14.7835 4.88562 14.7806C4.88739 14.7748 4.88993 14.7661 4.89293 14.7551C4.89892 14.7329 4.90679 14.7011 4.91425 14.6621C4.92917 14.5842 4.94241 14.4782 4.93579 14.3657L4.93575 14.365L4.93585 14.3643C4.94902 14.2721 4.93916 14.1864 4.92425 14.1118C4.91736 14.0773 4.90939 14.0453 4.90213 14.0161C4.90155 14.0138 4.90096 14.0114 4.90038 14.0091C4.8927 13.9781 4.88595 13.9503 4.88256 13.9266L4.88076 13.914L4.89205 13.9197L4.89231 13.9198C4.89262 13.9199 4.89321 13.9201 4.89413 13.9204C4.89597 13.921 4.89911 13.9219 4.90402 13.9229C4.91383 13.9249 4.93057 13.9274 4.95783 13.929C5.01236 13.9323 5.1086 13.9323 5.27495 13.919C5.44111 13.9057 5.53706 13.8825 5.59126 13.8628C5.61835 13.8529 5.63494 13.844 5.64464 13.8377C5.64949 13.8345 5.6526 13.832 5.65445 13.8304C5.65471 13.8301 5.65494 13.8299 5.65515 13.8297V13.7327L5.65139 13.7328C5.64445 13.733 5.63428 13.7334 5.62132 13.7338C5.59539 13.7347 5.55831 13.736 5.51368 13.7379C5.42442 13.7417 5.305 13.7475 5.18436 13.7558C5.06367 13.7641 4.9419 13.7749 4.84786 13.7886C4.80081 13.7955 4.76092 13.803 4.73165 13.8113C4.717 13.8154 4.70524 13.8197 4.69666 13.824ZM5.66181 13.7258C5.66162 13.7192 5.66162 13.7192 5.66161 13.7192L5.6589 13.7193L5.65097 13.7195C5.64403 13.7197 5.63384 13.72 5.62087 13.7205C5.59491 13.7214 5.55779 13.7227 5.51312 13.7246C5.42379 13.7284 5.30425 13.7342 5.18344 13.7425C5.06266 13.7508 4.94049 13.7617 4.84594 13.7755C4.7987 13.7823 4.75814 13.79 4.72803 13.7985C4.713 13.8027 4.70033 13.8072 4.69067 13.8121C4.6813 13.8168 4.67356 13.8224 4.67005 13.8294C4.66423 13.8411 4.66309 13.8561 4.66478 13.873C4.66648 13.89 4.67114 13.9097 4.67776 13.9314C4.69064 13.9735 4.71126 14.0239 4.73306 14.0772L4.73479 14.0814C4.75728 14.1364 4.78091 14.1944 4.79893 14.2503C4.81697 14.3063 4.82921 14.3597 4.82921 14.4053C4.82921 14.512 4.8292 14.5982 4.82258 14.6644C4.81593 14.7309 4.80271 14.7753 4.77787 14.8002L4.76907 14.809L4.78127 14.8114C4.81519 14.8182 4.8427 14.8183 4.86204 14.8148C4.87166 14.813 4.8796 14.8103 4.88533 14.8068C4.89045 14.8037 4.89521 14.7991 4.89576 14.7928L4.89625 14.7913C4.89674 14.7898 4.89746 14.7875 4.89836 14.7845C4.90018 14.7785 4.90275 14.7698 4.90578 14.7586C4.91186 14.7362 4.91981 14.7039 4.92734 14.6646C4.94236 14.5862 4.95574 14.4793 4.94913 14.3656C4.96246 14.2715 4.95235 14.1844 4.93732 14.1092C4.93036 14.0744 4.92232 14.0421 4.91507 14.013C4.91448 14.0106 4.91389 14.0082 4.91331 14.0059C4.90672 13.9793 4.90097 13.9557 4.8974 13.9351C4.8986 13.9354 4.89991 13.9357 4.90135 13.9359C4.91194 13.9381 4.92933 13.9406 4.95703 13.9423C5.0124 13.9457 5.10932 13.9456 5.27601 13.9323C5.4429 13.919 5.54012 13.8956 5.59581 13.8753C5.62368 13.8652 5.64122 13.8558 5.65192 13.8488C5.65728 13.8453 5.66092 13.8424 5.6633 13.8403C5.66448 13.8393 5.66535 13.8384 5.66595 13.8378C5.66625 13.8375 5.66649 13.8372 5.66666 13.837L5.66688 13.8367L5.66696 13.8366C5.66696 13.8366 5.66701 13.8366 5.66181 13.8324L5.66701 13.8366L5.66847 13.8348V13.7258H5.66181Z" fill="#707070"/>
<path fill-rule="evenodd" clip-rule="evenodd" d="M7.07382 13.6326C7.39354 13.6193 7.60669 13.6592 7.60669 13.6592C7.60669 13.6592 7.73991 13.9257 7.73991 14.0589C7.72659 14.1921 7.68662 14.3253 7.62001 14.2587C7.56673 14.2054 7.64666 14.2187 7.65998 14.0589C7.65998 13.9123 7.5534 13.7525 7.5534 13.7525C7.5534 13.7525 7.32694 13.8457 6.98057 13.8324C6.63421 13.8058 6.74078 13.7924 6.70082 13.7791C6.66085 13.7791 6.64753 13.8857 6.12799 13.899C5.59512 13.899 5.32869 13.7791 5.32869 13.7791C5.32869 13.7791 5.2754 13.859 4.95568 13.8857H4.55603C4.56935 13.9656 4.63596 14.1255 4.62264 14.3253C4.62264 14.5384 4.55603 14.7516 4.55603 14.7516H4.46278C4.51606 14.7116 4.50274 14.5651 4.51606 14.3653C4.51606 14.1654 4.30292 13.8724 4.34288 13.7791C4.39617 13.6992 4.63596 13.7791 4.67592 13.7391C4.71589 13.6859 4.46278 13.3795 4.51606 13.0997C4.55603 12.82 4.83578 12.8999 5.16883 12.8999C5.50187 12.9132 6.23456 13.0065 6.42106 12.8999C6.60757 12.8066 6.52764 12.4469 6.6875 12.2205C6.74055 12.1557 6.80779 12.104 6.88402 12.0693C6.96025 12.0347 7.04342 12.018 7.12711 12.0207C7.24701 12.0207 7.39354 12.4203 7.39354 12.5136L7.35358 12.5668H7.30029V12.6068C7.16708 12.6201 7.15375 12.5002 7.07382 12.4203C7.04718 12.5535 7.1804 13.0065 7.1804 13.2995C7.1804 13.5393 7.08715 13.6459 7.07382 13.6326Z" fill="#D0D0D0"/>
<path fill-rule="evenodd" clip-rule="evenodd" d="M7.12673 12.0273C7.04406 12.0247 6.9619 12.0412 6.8866 12.0754C6.81138 12.1096 6.74501 12.1606 6.69262 12.2245C6.62065 12.3266 6.59791 12.4562 6.57666 12.5773C6.57466 12.5887 6.57267 12.6001 6.57065 12.6113C6.559 12.6762 6.54641 12.7377 6.52486 12.7888C6.50327 12.84 6.47244 12.8815 6.42403 12.9058C6.3759 12.9332 6.29378 12.9473 6.19378 12.9534C6.0933 12.9594 5.97355 12.9573 5.84941 12.9515C5.72524 12.9457 5.59651 12.9361 5.47809 12.9271C5.47276 12.9267 5.46746 12.9263 5.46218 12.9259C5.34999 12.9175 5.24788 12.9097 5.16852 12.9066C5.10464 12.9065 5.04267 12.9036 4.98415 12.9008C4.96626 12.9 4.94869 12.8992 4.93149 12.8984C4.8578 12.8953 4.79087 12.8941 4.73321 12.9015C4.67558 12.9089 4.62791 12.9249 4.59225 12.9555C4.55672 12.9861 4.53231 13.0319 4.52248 13.1007L4.52244 13.101C4.4962 13.2387 4.54536 13.3836 4.59693 13.5017C4.60979 13.5312 4.62277 13.5589 4.63471 13.5844L4.63549 13.586C4.64711 13.6108 4.65776 13.6335 4.66627 13.6535C4.67494 13.6739 4.68155 13.6918 4.68468 13.7065C4.68772 13.7207 4.68795 13.734 4.68108 13.7432L4.68051 13.7439C4.67404 13.7504 4.6642 13.7538 4.65327 13.7556C4.64217 13.7575 4.62883 13.758 4.6142 13.7577C4.59464 13.7573 4.57204 13.7554 4.54857 13.7535C4.53709 13.7526 4.5254 13.7516 4.51376 13.7508C4.478 13.7483 4.44239 13.7471 4.41255 13.7514C4.3828 13.7556 4.36039 13.7651 4.34859 13.7823C4.34444 13.7924 4.34339 13.8057 4.34529 13.8221C4.34722 13.8388 4.35212 13.8582 4.35923 13.8799C4.37291 13.9215 4.39442 13.9704 4.41753 14.023L4.42041 14.0296C4.44454 14.0845 4.47005 14.143 4.48952 14.2004C4.50896 14.2577 4.52255 14.3142 4.52255 14.3653V14.3657C4.51923 14.4156 4.51755 14.4621 4.51609 14.5045L4.5159 14.5102C4.51452 14.5504 4.51327 14.5869 4.51087 14.6189C4.50837 14.6523 4.50458 14.6812 4.49794 14.7043C4.4933 14.7205 4.48716 14.7343 4.47875 14.7449H4.55091C4.55131 14.7436 4.55178 14.742 4.55232 14.7402C4.55413 14.734 4.55672 14.7249 4.55983 14.7132C4.56604 14.69 4.57434 14.6569 4.58264 14.617C4.59924 14.5373 4.6158 14.4313 4.6158 14.3253V14.3249C4.62241 14.2258 4.60922 14.1366 4.59265 14.062C4.58466 14.026 4.5759 13.9936 4.56819 13.965L4.56732 13.9617C4.55944 13.9325 4.55268 13.9072 4.54928 13.8868L4.54799 13.879H4.95523C5.11444 13.8657 5.20685 13.8392 5.25923 13.8163C5.28542 13.8049 5.30157 13.7943 5.31105 13.7868C5.3158 13.783 5.31888 13.7801 5.32072 13.7781C5.32164 13.7771 5.32225 13.7763 5.32261 13.7759L5.32296 13.7754L5.3261 13.7707L5.33124 13.773L5.3314 13.7731L5.33195 13.7734L5.33422 13.7743C5.33625 13.7752 5.33933 13.7765 5.34344 13.7781C5.35167 13.7813 5.36405 13.786 5.3806 13.7915C5.41369 13.8027 5.46342 13.8176 5.5298 13.8326C5.66253 13.8624 5.86184 13.8923 6.12772 13.8924C6.38708 13.8857 6.51942 13.8558 6.59167 13.8279C6.6277 13.8139 6.64889 13.8005 6.66359 13.7905C6.66526 13.7893 6.66687 13.7882 6.66843 13.7872C6.67366 13.7836 6.67833 13.7803 6.68259 13.7779C6.68829 13.7747 6.69404 13.7725 6.70064 13.7725H6.70172L6.70275 13.7728C6.7082 13.7746 6.71211 13.7767 6.71479 13.7796C6.71744 13.7824 6.71831 13.7854 6.71881 13.7871C6.71884 13.7872 6.71887 13.7873 6.7189 13.7874C6.71936 13.789 6.71958 13.7895 6.72024 13.7902C6.72107 13.7911 6.72305 13.7926 6.72801 13.7946C6.73802 13.7984 6.75772 13.8029 6.79706 13.8081C6.8362 13.8133 6.8943 13.8191 6.98078 13.8258C7.15325 13.8324 7.29585 13.8125 7.39529 13.7909C7.44502 13.7802 7.48394 13.769 7.5104 13.7605C7.52363 13.7563 7.53374 13.7527 7.54052 13.7502C7.54392 13.749 7.54648 13.748 7.54818 13.7473L7.55009 13.7466L7.55056 13.7464L7.55067 13.7463L7.55574 13.7442L7.55877 13.7488L7.55886 13.7489L7.5591 13.7493L7.56002 13.7507C7.56082 13.7519 7.56198 13.7537 7.56345 13.7561C7.56641 13.7608 7.57061 13.7677 7.57565 13.7764C7.58572 13.7938 7.59915 13.8186 7.61257 13.848C7.63936 13.9066 7.66646 13.9842 7.66646 14.0589V14.0594C7.65968 14.1408 7.6358 14.1785 7.62044 14.2024L7.62035 14.2025C7.61658 14.2084 7.61361 14.213 7.61151 14.2172C7.60943 14.2214 7.60846 14.2246 7.60839 14.2276C7.60825 14.2334 7.61141 14.2409 7.62455 14.254C7.64024 14.2697 7.65253 14.272 7.66237 14.2681C7.67321 14.2639 7.68392 14.2513 7.69376 14.2308C7.71319 14.1904 7.72642 14.1249 7.73307 14.0585C7.73302 14.0262 7.7249 13.9854 7.71251 13.9421C7.70011 13.8986 7.68354 13.8531 7.66694 13.8116C7.65034 13.7701 7.63374 13.7327 7.62128 13.7057C7.61506 13.6922 7.60987 13.6813 7.60624 13.6738C7.60443 13.6701 7.603 13.6672 7.60203 13.6652C7.60046 13.6649 7.59833 13.6646 7.59565 13.6641C7.58924 13.663 7.57972 13.6615 7.56728 13.6598C7.54241 13.6563 7.50589 13.6517 7.45938 13.6475C7.36815 13.6394 7.23851 13.6328 7.08303 13.6389C7.08128 13.6396 7.07943 13.6402 7.07754 13.6403C7.07465 13.6405 7.07144 13.6398 7.06894 13.6373L7.07365 13.6326L7.07337 13.6259C7.07544 13.6258 7.07751 13.6258 7.07957 13.6257C7.08241 13.6239 7.08629 13.6207 7.09096 13.6154C7.10101 13.6042 7.11357 13.5853 7.12587 13.5582C7.15041 13.5042 7.17356 13.4186 7.17356 13.2995C7.17356 13.1537 7.14039 12.9679 7.11039 12.8012L7.10944 12.7959C7.09481 12.7146 7.08104 12.6381 7.07246 12.5736C7.06373 12.5079 7.06021 12.4535 7.06712 12.419L7.06956 12.4068L7.07836 12.4156C7.09884 12.4361 7.11496 12.459 7.1296 12.4814C7.13317 12.4869 7.13664 12.4923 7.14005 12.4976C7.15076 12.5143 7.16096 12.5301 7.17215 12.5444C7.1868 12.5632 7.20273 12.5786 7.22275 12.5886C7.24143 12.5979 7.26414 12.6028 7.29346 12.6007V12.5602H7.35007L7.38668 12.5114C7.38614 12.4887 7.37734 12.4481 7.36223 12.3992C7.34671 12.3489 7.32475 12.2904 7.29907 12.2349C7.27336 12.1794 7.24406 12.127 7.21391 12.0887C7.19884 12.0695 7.18372 12.054 7.16892 12.0434C7.15411 12.0328 7.14005 12.0273 7.12694 12.0273L7.12673 12.0273ZM7.10035 13.6249C7.24857 13.62 7.37238 13.6264 7.46057 13.6343C7.50732 13.6384 7.54407 13.643 7.56915 13.6466C7.58169 13.6484 7.59132 13.6499 7.59782 13.651C7.60107 13.6515 7.60354 13.6519 7.6052 13.6522L7.60709 13.6526L7.60757 13.6526L7.6077 13.6527L7.60652 13.6592L7.61248 13.6563L7.61257 13.6565L7.61286 13.657L7.61399 13.6593C7.61497 13.6613 7.61641 13.6643 7.61824 13.668C7.6219 13.6756 7.62712 13.6866 7.63338 13.7001C7.6459 13.7273 7.6626 13.7649 7.67931 13.8066C7.69601 13.8484 7.71275 13.8944 7.72532 13.9384C7.73787 13.9823 7.74639 14.0246 7.74639 14.0589V14.0595C7.73971 14.1263 7.72627 14.1939 7.70577 14.2366C7.69563 14.2577 7.68302 14.2743 7.66722 14.2805C7.65042 14.2871 7.63274 14.281 7.61513 14.2634C7.60162 14.2499 7.59479 14.239 7.59507 14.2273C7.59521 14.2216 7.59705 14.2163 7.5996 14.2112C7.60202 14.2064 7.60533 14.2012 7.60888 14.1957L7.60924 14.1952C7.62384 14.1724 7.64657 14.1369 7.65314 14.0586C7.65307 13.9868 7.62692 13.9114 7.60046 13.8535C7.58724 13.8246 7.57402 13.8002 7.56411 13.7831C7.55916 13.7745 7.55504 13.7678 7.55216 13.7632C7.55159 13.7622 7.55106 13.7614 7.55059 13.7607C7.54908 13.7612 7.54726 13.7619 7.54512 13.7627C7.53817 13.7653 7.52788 13.7689 7.51446 13.7732C7.48763 13.7818 7.44829 13.7931 7.39811 13.8039C7.29774 13.8257 7.15397 13.8457 6.98014 13.8391L6.97989 13.8391C6.89325 13.8324 6.83483 13.8265 6.79531 13.8213C6.75597 13.8161 6.73486 13.8115 6.72323 13.807C6.71737 13.8047 6.71331 13.8023 6.71055 13.7994C6.70762 13.7963 6.70669 13.7932 6.70612 13.7912C6.70556 13.7893 6.70544 13.7891 6.70507 13.7887C6.70462 13.7882 6.70332 13.7872 6.69962 13.7858C6.69655 13.786 6.69337 13.7871 6.68914 13.7895C6.68545 13.7916 6.68146 13.7944 6.67638 13.7979C6.67474 13.799 6.67298 13.8002 6.67109 13.8015C6.65581 13.8119 6.63371 13.8259 6.59647 13.8403C6.52219 13.869 6.38811 13.899 6.12798 13.9057L6.12781 13.9057C5.86087 13.9057 5.66056 13.8756 5.52687 13.8456C5.46003 13.8305 5.40985 13.8155 5.37634 13.8042C5.35958 13.7985 5.34699 13.7938 5.33856 13.7905C5.33518 13.7891 5.33247 13.788 5.33043 13.7872C5.32811 13.7897 5.32454 13.7931 5.31932 13.7972C5.30883 13.8056 5.29167 13.8167 5.26457 13.8285C5.21041 13.8522 5.11639 13.879 4.95606 13.8923L4.9555 13.8924L4.56383 13.8924C4.56739 13.9106 4.57326 13.9326 4.58019 13.9583L4.58107 13.9616C4.58877 13.9901 4.5976 14.0229 4.60565 14.0591C4.62237 14.1343 4.63581 14.2249 4.62912 14.3255C4.6291 14.4327 4.61237 14.5396 4.59568 14.6197C4.58732 14.6599 4.57897 14.6933 4.5727 14.7167C4.56956 14.7284 4.56694 14.7376 4.56511 14.7439C4.56419 14.747 4.56347 14.7495 4.56298 14.7511L4.56241 14.7529L4.56226 14.7534L4.56223 14.7535L4.56075 14.7583H4.44262L4.45861 14.7463C4.47025 14.7375 4.47885 14.7225 4.48513 14.7006C4.49139 14.6788 4.4951 14.6511 4.49759 14.6179C4.49997 14.5862 4.50121 14.5499 4.50259 14.5096L4.50278 14.5041C4.50423 14.4617 4.5059 14.415 4.50923 14.3651C4.50919 14.3162 4.49614 14.2613 4.4769 14.2046C4.45765 14.1479 4.43237 14.0899 4.40821 14.0349L4.4052 14.028C4.38221 13.9757 4.36046 13.9263 4.34658 13.884C4.33933 13.862 4.33413 13.8416 4.33206 13.8236C4.32999 13.8058 4.33094 13.7897 4.33658 13.7765L4.33683 13.7759L4.33716 13.7754C4.3521 13.753 4.37951 13.7426 4.41066 13.7382C4.44202 13.7337 4.47885 13.735 4.51469 13.7375C4.52673 13.7383 4.53864 13.7393 4.55022 13.7403C4.57342 13.7422 4.59532 13.7439 4.61449 13.7444C4.6288 13.7447 4.64116 13.7442 4.65103 13.7425C4.66074 13.7408 4.66709 13.7382 4.67069 13.7348C4.67359 13.7305 4.67451 13.7226 4.67165 13.7092C4.6688 13.6959 4.66262 13.6789 4.65401 13.6587C4.6456 13.6389 4.63503 13.6164 4.62336 13.5915L4.62265 13.59C4.61071 13.5645 4.59766 13.5367 4.58472 13.507C4.53306 13.3887 4.48233 13.2406 4.50932 13.0986C4.51949 13.0276 4.54503 12.9785 4.58357 12.9454C4.622 12.9124 4.67259 12.8959 4.73152 12.8883C4.79042 12.8807 4.85838 12.882 4.93206 12.8851C4.94939 12.8859 4.96705 12.8867 4.98499 12.8875C5.0435 12.8903 5.10508 12.8932 5.16865 12.8932H5.16892C5.24854 12.8964 5.35093 12.9042 5.46304 12.9126C5.46837 12.913 5.47372 12.9134 5.47909 12.9139C5.59754 12.9228 5.72608 12.9324 5.85003 12.9382C5.97401 12.944 6.09321 12.9461 6.19298 12.9401C6.29311 12.934 6.37244 12.9199 6.41758 12.8941L6.4179 12.8939C6.46265 12.8716 6.49173 12.8331 6.51258 12.7837C6.53349 12.734 6.54588 12.6739 6.55754 12.609C6.55957 12.5977 6.56157 12.5862 6.56359 12.5747C6.58473 12.454 6.60797 12.3213 6.68188 12.2166L6.68215 12.2163C6.73586 12.1507 6.80393 12.0984 6.88109 12.0633C6.95821 12.0282 7.04237 12.0114 7.12704 12.014C7.14387 12.014 7.16058 12.021 7.17669 12.0326C7.19286 12.0442 7.20886 12.0607 7.22438 12.0804C7.25543 12.1199 7.28524 12.1733 7.31116 12.2293C7.3371 12.2854 7.35927 12.3444 7.37496 12.3952C7.39058 12.4458 7.40003 12.4891 7.40003 12.5136V12.5158L7.35673 12.5735H7.30678V12.6128L7.30078 12.6134C7.26642 12.6169 7.23931 12.6118 7.21679 12.6005C7.19435 12.5893 7.17697 12.5722 7.16165 12.5526C7.15005 12.5378 7.13938 12.5212 7.12859 12.5044C7.12523 12.4992 7.12186 12.4939 7.11845 12.4887C7.10631 12.4701 7.09347 12.4517 7.07819 12.4348C7.07465 12.4672 7.07802 12.5143 7.08566 12.5718C7.0942 12.6361 7.10793 12.7123 7.12259 12.7937L7.1235 12.7988C7.15344 12.9651 7.18688 13.1523 7.18688 13.2995C7.18688 13.4203 7.1634 13.5078 7.13799 13.5637C7.12531 13.5916 7.11207 13.6118 7.10088 13.6243C7.10071 13.6245 7.10053 13.6247 7.10035 13.6249ZM7.60652 13.6592L7.61248 13.6563L7.61099 13.6533L7.6077 13.6527L7.60652 13.6592Z" fill="#707070"/>
<path fill-rule="evenodd" clip-rule="evenodd" d="M6.02122 13.2063C6.02122 13.2995 5.60824 13.526 5.56828 13.6059C5.54164 13.6992 5.67485 13.7391 5.63489 13.7924C5.59492 13.8457 5.55496 13.8191 5.54164 13.8324L5.38178 13.4993C5.38178 13.4993 5.78143 13.3128 5.7681 13.2329C5.75478 13.153 5.47503 13.0997 5.42174 12.9132C5.36845 12.7267 5.3951 12.3403 5.35513 12.2604C5.31517 12.1805 4.82227 12.1006 4.82227 11.994C4.82227 11.8608 5.32849 11.541 5.38178 11.4878C5.43506 11.4345 5.48835 11.541 5.43506 11.581C5.38178 11.6343 4.99545 11.9407 4.99545 11.9807C4.99545 12.0339 5.31517 12.0872 5.42174 12.0872C5.54164 12.0872 5.59492 12.0339 5.59492 11.9807C5.59492 11.9407 5.47503 11.9407 5.47503 11.8474C5.47503 11.7542 5.54164 11.6876 5.64821 11.6876C5.7015 11.6876 5.80807 11.7542 5.80807 11.8341C5.80807 11.9141 5.71482 11.9274 5.7015 11.9807C5.68817 12.0473 5.80807 12.0872 5.91464 12.0872C6.02122 12.0872 6.39422 12.367 6.44751 12.4203C6.51412 12.4602 6.5674 12.4602 6.51412 12.5135C6.46083 12.5668 6.48747 12.6201 6.43419 12.5668C6.40825 12.5412 6.38982 12.5089 6.3809 12.4736C6.3809 12.4336 5.98125 12.2338 5.91464 12.2737C5.86136 12.327 5.91464 12.9132 5.91464 12.9665C5.91464 13.0597 6.03454 13.0597 6.02122 13.2063Z" fill="#D0D0D0"/>
<path fill-rule="evenodd" clip-rule="evenodd" d="M5.41818 11.4807C5.40933 11.4783 5.39836 11.4804 5.38631 11.4925C5.37924 11.4996 5.36509 11.5107 5.34624 11.5247C5.32724 11.5388 5.30305 11.5563 5.27559 11.576L5.27506 11.5764C5.22019 11.6159 5.15223 11.6648 5.08594 11.7162C5.01941 11.7677 4.95475 11.8216 4.90679 11.8708C4.8828 11.8955 4.86315 11.9187 4.84954 11.9398C4.83583 11.961 4.82875 11.9793 4.82875 11.994C4.82875 12.0046 4.8349 12.0159 4.84787 12.0279C4.86077 12.0398 4.87955 12.0517 4.90274 12.0634C4.94909 12.0869 5.01152 12.1092 5.07567 12.1309C5.09058 12.1359 5.1056 12.1409 5.1205 12.1459C5.16949 12.1622 5.21738 12.1782 5.25728 12.1939C5.28331 12.2041 5.3062 12.2144 5.32393 12.2246C5.34137 12.2348 5.35498 12.2456 5.36091 12.2575C5.36636 12.2683 5.37044 12.2839 5.37367 12.3026C5.37692 12.3215 5.37939 12.3441 5.38137 12.3694C5.3849 12.4143 5.38694 12.468 5.3891 12.5249C5.38937 12.5321 5.38964 12.5393 5.38992 12.5466C5.39493 12.6768 5.4016 12.8191 5.42797 12.9114C5.45383 13.0019 5.53486 13.0607 5.61314 13.1073C5.62774 13.116 5.64231 13.1243 5.65636 13.1323C5.67952 13.1455 5.70127 13.1579 5.71936 13.1699C5.73399 13.1796 5.7467 13.1893 5.75623 13.1993C5.76574 13.2093 5.77253 13.22 5.7745 13.2318C5.77663 13.2446 5.7704 13.2582 5.76046 13.2713C5.75034 13.2847 5.73535 13.2989 5.71737 13.3134C5.68137 13.3425 5.6323 13.3735 5.58309 13.4019C5.53381 13.4303 5.48415 13.4561 5.44683 13.4749C5.42816 13.4843 5.41257 13.4919 5.40164 13.4972C5.39708 13.4994 5.39333 13.5012 5.39051 13.5025L5.54437 13.8231C5.54816 13.8218 5.55219 13.8215 5.55581 13.8214C5.55831 13.8213 5.56073 13.8213 5.56317 13.8213C5.56764 13.8213 5.57217 13.8213 5.57743 13.8208C5.59238 13.8193 5.61061 13.8135 5.62938 13.7884C5.63369 13.7827 5.6354 13.7775 5.63558 13.7727C5.63576 13.7678 5.63437 13.7626 5.63148 13.7569C5.62617 13.7465 5.61666 13.7358 5.60559 13.7233C5.60422 13.7217 5.60282 13.7202 5.60141 13.7186C5.57657 13.6904 5.54729 13.6545 5.5617 13.6041L5.56187 13.6035L5.56215 13.6029C5.56772 13.5918 5.57933 13.5788 5.59451 13.5647C5.60985 13.5505 5.62945 13.5346 5.65169 13.5176C5.68297 13.4936 5.71977 13.4673 5.75765 13.4402C5.77357 13.4288 5.78968 13.4172 5.80566 13.4057C5.85978 13.3666 5.91238 13.3272 5.95142 13.2919C5.97095 13.2742 5.98688 13.2577 5.99787 13.243C6.00903 13.228 6.01438 13.2157 6.01438 13.2063H6.02104L6.01441 13.2057C6.01765 13.17 6.01276 13.1436 6.00388 13.1227C5.99497 13.1017 5.98186 13.0857 5.96791 13.071C5.96426 13.0671 5.96052 13.0633 5.95677 13.0595C5.93237 13.0347 5.90781 13.0098 5.90781 12.9665C5.90781 12.9561 5.9057 12.9244 5.90272 12.8797C5.90197 12.8685 5.90117 12.8564 5.90033 12.8437C5.89616 12.7804 5.89116 12.7004 5.88783 12.6204C5.8845 12.5404 5.88282 12.4603 5.88533 12.3967C5.88658 12.365 5.88889 12.3372 5.8926 12.3155C5.89446 12.3047 5.8967 12.2952 5.8994 12.2875C5.90206 12.2799 5.90538 12.2734 5.90976 12.269L5.91034 12.2685L5.91104 12.268C5.92134 12.2619 5.93677 12.2609 5.95428 12.2626C5.97216 12.2644 5.99368 12.2692 6.0173 12.2761C6.06456 12.29 6.12108 12.3126 6.17537 12.3376C6.22966 12.3627 6.28195 12.3903 6.32073 12.4142C6.3401 12.4261 6.35628 12.4373 6.36769 12.4468C6.37337 12.4515 6.37807 12.456 6.38141 12.4601C6.3843 12.4637 6.387 12.468 6.38735 12.4726C6.39603 12.5065 6.41378 12.5375 6.43869 12.5621C6.44529 12.5687 6.45052 12.5735 6.45469 12.5768C6.45897 12.5802 6.46168 12.5816 6.46332 12.5821C6.46438 12.5824 6.46457 12.5822 6.46468 12.5821C6.46469 12.5821 6.46467 12.5821 6.46468 12.5821C6.46532 12.5816 6.46644 12.5803 6.46802 12.5772C6.46925 12.5747 6.47055 12.5715 6.47207 12.5678C6.47797 12.5534 6.48724 12.5308 6.50923 12.5088C6.52248 12.4956 6.52776 12.4869 6.52883 12.4809C6.5293 12.4783 6.52893 12.4762 6.52792 12.4742C6.52683 12.4721 6.52482 12.4698 6.52151 12.4672C6.51471 12.4619 6.50424 12.4568 6.49047 12.4502L6.48943 12.4497C6.47615 12.4434 6.46044 12.4359 6.44391 12.426L6.4432 12.4256L6.44262 12.425C6.41647 12.3988 6.31037 12.3159 6.19715 12.2393C6.14063 12.2011 6.08256 12.1646 6.03206 12.1377C6.00681 12.1242 5.98356 12.1132 5.96342 12.1056C5.94314 12.0979 5.92656 12.0939 5.91447 12.0939C5.8605 12.0939 5.80292 12.0838 5.76025 12.065C5.73893 12.0557 5.72086 12.0439 5.70892 12.0297C5.69683 12.0153 5.69099 11.9984 5.69479 11.9794L5.69485 11.9791C5.69862 11.964 5.70799 11.9521 5.71903 11.9417C5.72663 11.9345 5.73551 11.9277 5.74428 11.9209C5.74806 11.918 5.75182 11.9151 5.75544 11.9122C5.78011 11.8925 5.80123 11.8709 5.80123 11.8341C5.80123 11.7971 5.77642 11.7622 5.74379 11.7361C5.71112 11.71 5.67259 11.6943 5.64803 11.6943C5.59615 11.6943 5.55459 11.7105 5.52605 11.7374C5.49754 11.7643 5.48151 11.8025 5.48151 11.8475C5.48151 11.8903 5.50861 11.9119 5.53803 11.9282C5.54418 11.9316 5.55031 11.9348 5.55629 11.9378C5.55748 11.9384 5.55867 11.939 5.55984 11.9396C5.56686 11.9432 5.57366 11.9468 5.57956 11.9505C5.59094 11.9576 5.60141 11.9669 5.60141 11.9807C5.60141 12.0097 5.58683 12.0383 5.55696 12.0594C5.5272 12.0804 5.48242 12.0939 5.42157 12.0939C5.36762 12.0939 5.26054 12.0805 5.16706 12.0605C5.1203 12.0504 5.07659 12.0387 5.04445 12.026C5.02842 12.0197 5.01491 12.013 5.00528 12.0059C4.996 11.9991 4.98861 11.9907 4.98861 11.9807C4.98861 11.9782 4.98934 11.9758 4.99024 11.9736C4.99116 11.9714 4.99246 11.969 4.99401 11.9666C4.9971 11.9618 5.00151 11.9561 5.00694 11.9499C5.01782 11.9373 5.03331 11.9217 5.05188 11.904C5.08907 11.8687 5.13913 11.8249 5.19077 11.7808C5.2289 11.7482 5.26796 11.7154 5.30337 11.6856C5.31591 11.675 5.328 11.6649 5.33942 11.6552C5.38326 11.6183 5.41711 11.5894 5.43018 11.5763L5.43085 11.5756C5.45393 11.5583 5.45473 11.5258 5.44233 11.5026C5.43622 11.4911 5.42748 11.4832 5.41818 11.4807ZM6.0277 13.2066C6.02759 13.2204 6.02006 13.2355 6.00856 13.2509C5.99682 13.2667 5.98017 13.2838 5.96036 13.3018C5.92072 13.3376 5.86758 13.3774 5.81346 13.4165C5.79735 13.4281 5.78116 13.4397 5.7652 13.4512C5.7274 13.4782 5.69089 13.5044 5.65978 13.5282C5.63768 13.5451 5.61846 13.5607 5.60357 13.5745C5.58882 13.5882 5.57889 13.5996 5.57434 13.6084C5.5625 13.6509 5.5864 13.6814 5.6114 13.7098C5.6128 13.7113 5.6142 13.7129 5.61561 13.7145C5.62643 13.7267 5.63721 13.7388 5.64336 13.7509C5.64692 13.7579 5.64918 13.7653 5.64889 13.7732C5.6486 13.7811 5.64573 13.7888 5.64004 13.7964C5.61885 13.8247 5.59711 13.8322 5.57876 13.834C5.5729 13.8346 5.56701 13.8346 5.56215 13.8346C5.55994 13.8346 5.55794 13.8346 5.55625 13.8347C5.55001 13.8349 5.54749 13.8358 5.54617 13.8371L5.53952 13.8437L5.37268 13.4962L5.37878 13.4933L5.37991 13.4928L5.38323 13.4912C5.38614 13.4898 5.39042 13.4878 5.39585 13.4852C5.40673 13.4799 5.42225 13.4724 5.44085 13.463C5.47804 13.4443 5.52746 13.4186 5.57643 13.3903C5.62547 13.3621 5.67382 13.3315 5.709 13.3031C5.72662 13.2889 5.74066 13.2754 5.74984 13.2633C5.75921 13.2509 5.76256 13.2412 5.76136 13.234C5.76 13.2258 5.75513 13.2174 5.74659 13.2085C5.73806 13.1995 5.72631 13.1905 5.71201 13.181C5.69422 13.1692 5.6732 13.1573 5.6504 13.1443C5.63628 13.1362 5.62147 13.1278 5.60632 13.1187C5.52808 13.0721 5.44259 13.011 5.41516 12.915C5.38825 12.8208 5.38159 12.6767 5.37661 12.5471C5.37633 12.5398 5.37606 12.5326 5.37578 12.5254C5.37362 12.4685 5.37159 12.415 5.36809 12.3704C5.36612 12.3453 5.36369 12.3232 5.36054 12.3049C5.35737 12.2865 5.35355 12.2725 5.349 12.2634C5.34494 12.2553 5.33441 12.2461 5.31724 12.2362C5.30037 12.2264 5.2782 12.2164 5.2524 12.2063C5.21287 12.1907 5.16546 12.1749 5.11656 12.1586C5.10159 12.1536 5.08647 12.1486 5.07141 12.1435C5.00733 12.1219 4.94404 12.0993 4.89672 12.0753C4.87308 12.0633 4.85304 12.0508 4.83882 12.0377C4.82469 12.0246 4.81543 12.01 4.81543 11.994C4.81543 11.9754 4.82417 11.9545 4.83835 11.9326C4.85263 11.9105 4.87295 11.8865 4.89725 11.8615C4.94587 11.8117 5.0111 11.7573 5.07778 11.7056C5.14426 11.6541 5.21237 11.6051 5.26721 11.5656L5.26781 11.5652C5.2953 11.5454 5.31939 11.5281 5.33828 11.514C5.35731 11.4999 5.37064 11.4893 5.37689 11.4831C5.39149 11.4685 5.40716 11.4639 5.42162 11.4678C5.43563 11.4716 5.44688 11.4828 5.45409 11.4963C5.46827 11.5229 5.46908 11.5634 5.43927 11.5861C5.42547 11.5998 5.39125 11.629 5.34801 11.6654C5.33656 11.6751 5.32445 11.6853 5.3119 11.6958C5.2765 11.7256 5.23751 11.7584 5.19943 11.7909C5.14782 11.835 5.09797 11.8786 5.06106 11.9137C5.04258 11.9312 5.02747 11.9465 5.01701 11.9586C5.01177 11.9646 5.00783 11.9697 5.00524 11.9738C5.00394 11.9758 5.00307 11.9774 5.00253 11.9787C5.00226 11.9794 5.00211 11.9799 5.00202 11.9802C5.00193 11.9806 5.00193 11.9807 5.00193 11.9807C5.00193 11.9839 5.00453 11.9889 5.01315 11.9952C5.02143 12.0012 5.03373 12.0075 5.04934 12.0136C5.08048 12.0259 5.12336 12.0375 5.16985 12.0474C5.26287 12.0674 5.36893 12.0806 5.42157 12.0806C5.4806 12.0806 5.52242 12.0675 5.54928 12.0485C5.57602 12.0296 5.58809 12.0049 5.58809 11.9807C5.58809 11.9745 5.58357 11.9687 5.57247 11.9618C5.56713 11.9584 5.56082 11.9551 5.55378 11.9515C5.55264 11.9509 5.55148 11.9503 5.5503 11.9497C5.54432 11.9467 5.53794 11.9434 5.53157 11.9399C5.50104 11.9229 5.46819 11.8979 5.46819 11.8475C5.46819 11.7992 5.48547 11.7574 5.5169 11.7277C5.54832 11.698 5.59335 11.6809 5.64803 11.6809C5.67676 11.6809 5.71817 11.6985 5.75211 11.7257C5.78609 11.7529 5.81455 11.7912 5.81455 11.8341C5.81455 11.8773 5.78906 11.9024 5.76376 11.9226C5.7597 11.9258 5.7557 11.9289 5.75181 11.9319C5.74329 11.9385 5.73527 11.9447 5.72816 11.9514C5.71801 11.9609 5.71073 11.9707 5.70782 11.9821C5.70502 11.9964 5.70918 12.0093 5.71911 12.0211C5.72924 12.0332 5.7453 12.0439 5.76562 12.0528C5.8062 12.0707 5.86186 12.0806 5.91447 12.0806C5.92901 12.0806 5.94741 12.0853 5.96813 12.0931C5.989 12.101 6.01279 12.1123 6.03833 12.1259C6.08941 12.1531 6.1479 12.1899 6.20461 12.2283C6.31706 12.3043 6.42339 12.3873 6.45145 12.415C6.46718 12.4244 6.48215 12.4315 6.49531 12.4378L6.4962 12.4382C6.50949 12.4446 6.5215 12.4503 6.52969 12.4567C6.53387 12.4599 6.53748 12.4636 6.53978 12.4681C6.54215 12.4728 6.54292 12.4778 6.54194 12.4833C6.54009 12.4936 6.53204 12.5049 6.51865 12.5183C6.49881 12.5381 6.49086 12.5574 6.48489 12.5718C6.48315 12.576 6.48158 12.5798 6.47993 12.5831C6.47818 12.5866 6.47594 12.5904 6.47262 12.5928C6.46878 12.5956 6.46431 12.5962 6.45966 12.5949C6.45547 12.5937 6.4511 12.5909 6.44643 12.5872C6.44166 12.5835 6.43604 12.5783 6.42932 12.5716M5.91863 12.279C5.91649 12.2814 5.91419 12.2856 5.91197 12.2919C5.9096 12.2987 5.90752 12.3073 5.90573 12.3178C5.90216 12.3386 5.89989 12.3657 5.89864 12.3972C5.89616 12.4602 5.89781 12.54 5.90114 12.6198C5.90447 12.6997 5.90946 12.7796 5.91362 12.8428C5.91445 12.8554 5.91524 12.8673 5.91598 12.8784C5.91897 12.9232 5.92113 12.9556 5.92113 12.9665C5.92113 13.0039 5.9415 13.0248 5.9659 13.0497C5.96972 13.0536 5.97364 13.0576 5.97759 13.0618C5.99195 13.077 6.00632 13.0944 6.01614 13.1175C6.02596 13.1406 6.03106 13.1691 6.0277 13.2066" fill="#707070"/>
<path fill-rule="evenodd" clip-rule="evenodd" d="M5.32812 12.0739H5.99421V12.7533H5.32812V12.0739Z" fill="#A7A7A7"/>
<path d="M7.44773 14.5257L5.26154 11.244C5.24114 11.2134 5.21408 11.1942 5.2011 11.2011C5.18812 11.2081 5.19412 11.2385 5.21452 11.2691L7.40072 14.5508C7.42111 14.5814 7.44817 14.6006 7.46115 14.5937C7.47414 14.5867 7.46813 14.5563 7.44773 14.5257Z" fill="#808080"/>
<path fill-rule="evenodd" clip-rule="evenodd" d="M5.50096 11.5406C5.50096 11.5665 5.48944 11.5914 5.46893 11.6098C5.44842 11.6281 5.4206 11.6384 5.39159 11.6384C5.36259 11.6384 5.33477 11.6281 5.31426 11.6098C5.29375 11.5914 5.28223 11.5665 5.28223 11.5406C5.28223 11.5146 5.29375 11.4898 5.31426 11.4714C5.33477 11.4531 5.36259 11.4427 5.39159 11.4427C5.4206 11.4427 5.44842 11.4531 5.46893 11.4714C5.48944 11.4898 5.50096 11.5146 5.50096 11.5406Z" fill="#D0D0D0"/>
<path fill-rule="evenodd" clip-rule="evenodd" d="M5.39107 11.4501C5.36375 11.4501 5.33769 11.4598 5.31859 11.4769C5.29952 11.4939 5.28898 11.5169 5.28898 11.5406C5.28898 11.5644 5.29952 11.5873 5.31859 11.6044C5.33769 11.6215 5.36375 11.6312 5.39107 11.6312C5.41839 11.6312 5.44445 11.6215 5.46354 11.6044C5.48261 11.5873 5.49315 11.5644 5.49315 11.5406C5.49315 11.5169 5.48261 11.4939 5.46354 11.4769C5.44445 11.4598 5.41839 11.4501 5.39107 11.4501ZM5.30887 11.466C5.3308 11.4464 5.36037 11.4355 5.39107 11.4355C5.42176 11.4355 5.45134 11.4464 5.47326 11.466C5.49521 11.4856 5.50772 11.5125 5.50772 11.5406C5.50772 11.5688 5.49521 11.5956 5.47326 11.6152C5.45134 11.6348 5.42176 11.6457 5.39107 11.6457C5.36037 11.6457 5.3308 11.6348 5.30887 11.6152C5.28693 11.5956 5.27441 11.5688 5.27441 11.5406C5.27441 11.5125 5.28693 11.4856 5.30887 11.466Z" fill="#707070"/>
<path fill-rule="evenodd" clip-rule="evenodd" d="M7.40683 12.4203C7.40683 12.4602 7.1404 12.5135 6.86064 12.5135C6.56757 12.5135 6.31445 12.4602 6.31445 12.4203C6.31445 12.3803 6.56756 12.4869 6.84732 12.4869C7.15372 12.4869 7.40683 12.3803 7.40683 12.4203Z" fill="#808080"/>
<path fill-rule="evenodd" clip-rule="evenodd" d="M5.38184 12.7534H5.92803V12.9532H5.39516L5.38184 12.7534Z" fill="#A7A7A7"/>
<path fill-rule="evenodd" clip-rule="evenodd" d="M7.15345 12.2737C7.10016 12.3803 7.0602 12.4469 7.04688 12.4336C7.04688 12.4336 7.07352 12.327 7.12681 12.2338L7.23338 12.0739C7.2467 12.0872 7.20674 12.1805 7.15345 12.2737ZM7.28667 12.5402L7.18009 12.6068C7.20771 12.5604 7.24387 12.5197 7.28667 12.4869C7.35327 12.4336 7.40656 12.407 7.40656 12.4203L7.29999 12.5269L7.28667 12.5402Z" fill="#808080"/>
<path fill-rule="evenodd" clip-rule="evenodd" d="M7.23292 12.407L7.29953 12.5668L7.19296 12.4336L7.12635 12.2737L7.23292 12.407ZM7.17963 12.8333C7.17963 12.8333 7.01977 12.8599 6.80663 12.8599C6.59348 12.8599 6.4203 12.8466 6.4203 12.8333L6.80663 12.8066C7.01977 12.8066 7.17963 12.8066 7.17963 12.8333ZM5.9274 12.78C5.9274 12.7933 5.8075 12.8066 5.66096 12.8066C5.5011 12.8066 5.39453 12.8066 5.39453 12.78C5.39453 12.78 5.5011 12.7533 5.66096 12.7533C5.8075 12.7533 5.9274 12.7666 5.9274 12.78Z" fill="#808080"/>
<path fill-rule="evenodd" clip-rule="evenodd" d="M4.72852 14.4851C4.72852 14.4851 4.82177 14.6983 5.2081 14.6983C5.5811 14.6983 5.71432 14.6317 5.56778 14.5251C5.42124 14.4185 5.11484 14.4452 5.16813 14.5384C5.19477 14.645 5.04824 14.6717 5.02159 14.605C4.98163 14.5384 4.84841 14.3253 5.0882 14.312C5.34131 14.2986 5.86086 14.2187 5.99407 14.3653C6.12729 14.5118 5.84754 14.6317 6.06068 14.6717C6.26051 14.6983 6.30047 14.6317 6.66016 14.6184C7.01984 14.5917 7.16638 14.685 7.28628 14.6717C7.41949 14.6717 7.39285 14.4452 7.28628 14.4052C7.19302 14.3386 7.00652 14.3253 6.95323 14.272C6.91327 14.2054 6.78005 14.272 6.79337 14.1921C6.79337 14.1255 6.97988 14.232 6.97988 14.2054L7.00652 14.1788H6.96656L6.97988 14.1521L6.95323 14.1654L6.96656 14.1388C6.96656 14.1388 6.92659 14.1654 6.92659 14.1388H6.89995C6.92659 14.1121 6.91327 14.1121 6.89995 14.0988H6.85998V14.0589C6.83334 14.0589 6.83334 14.0589 6.82002 14.0855V14.0189C6.82002 14.0056 6.84666 13.9922 6.88663 13.9922C6.97988 13.9922 7.01984 14.0988 7.05981 14.0988C7.08645 14.0988 7.12642 13.9922 7.24631 14.0322L7.44614 14.1121C7.51274 14.1521 7.40617 14.1921 7.44614 14.2454C7.4861 14.2986 7.72589 14.4718 7.65928 14.6717C7.59267 14.8582 7.39285 14.8848 7.39285 14.9647C7.36621 15.0447 7.96568 15.018 8.11222 15.0447C8.21411 15.0631 8.30486 15.1205 8.36533 15.2045L8.0989 15.2178C8.0989 15.2178 7.96568 15.1512 7.63264 15.1379C7.2996 15.1379 7.1797 15.0047 7.04648 14.9781L6.51362 15.0047L6.11397 14.9647C6.03404 14.9514 5.55446 15.1779 5.55446 15.2312H5.23474C5.23474 15.2312 5.2747 15.1113 5.46121 15.0979C5.63439 15.0713 5.82089 14.9914 5.80757 14.9381L5.86086 14.5917C5.86086 14.5118 5.94079 14.4585 5.92747 14.4319C5.91414 14.3786 5.701 14.3386 5.50117 14.3386C5.30135 14.3386 5.0882 14.3519 5.04823 14.3919C5.02159 14.4452 5.04824 14.5917 5.0882 14.5651C5.12817 14.5651 5.07488 14.4585 5.11484 14.4452C5.20117 14.4187 5.29097 14.4052 5.38128 14.4052C5.48785 14.4052 5.66103 14.4985 5.66103 14.5384C5.66103 14.5518 5.71432 14.645 5.63439 14.685C5.50142 14.7291 5.36122 14.7471 5.22142 14.7383C5.08222 14.731 4.94609 14.6947 4.82177 14.6317C4.76848 14.5917 4.72852 14.4985 4.72852 14.4851Z" fill="#D0D0D0"/>
<path fill-rule="evenodd" clip-rule="evenodd" d="M6.83032 14.0138C6.82797 14.0162 6.82748 14.0179 6.82748 14.0189V14.0608C6.82886 14.0592 6.83038 14.0578 6.83211 14.0567C6.83585 14.0542 6.83995 14.0531 6.84448 14.0527C6.84878 14.0522 6.85407 14.0522 6.86043 14.0522L6.86744 14.0522V14.0922H6.90351L6.90546 14.0941C6.90765 14.0963 6.90971 14.098 6.91182 14.0997C6.91268 14.1004 6.91354 14.1011 6.91442 14.1019C6.91708 14.1041 6.92057 14.1073 6.92205 14.1117C6.92372 14.1167 6.92243 14.1217 6.91963 14.1265C6.91861 14.1283 6.91732 14.1301 6.91577 14.1321H6.93405V14.1388C6.93405 14.1413 6.93454 14.1425 6.93482 14.143C6.93502 14.1434 6.93524 14.1435 6.93574 14.1437C6.9373 14.1442 6.9405 14.1441 6.94527 14.1425C6.94971 14.141 6.9543 14.1387 6.95788 14.1367C6.95964 14.1357 6.96111 14.1349 6.96213 14.1342L6.9633 14.1335L6.96359 14.1333L6.96366 14.1333M6.85412 14.0655C6.85075 14.0656 6.8481 14.0657 6.84587 14.0659C6.84248 14.0663 6.84076 14.0669 6.8395 14.0677C6.83817 14.0686 6.8367 14.0702 6.83462 14.0736C6.83251 14.077 6.83016 14.0817 6.82678 14.0885L6.81416 14.0855V14.0189C6.81416 14.0132 6.817 14.0083 6.8209 14.0044C6.8248 14.0005 6.83019 13.9972 6.83651 13.9945C6.84919 13.989 6.86678 13.9856 6.88743 13.9856C6.93685 13.9856 6.97181 14.0139 6.99871 14.0408C7.00459 14.0467 7.00994 14.0524 7.01498 14.0577C7.02183 14.0649 7.0281 14.0715 7.03432 14.0773C7.04513 14.0873 7.05342 14.0922 7.06061 14.0922C7.06179 14.0922 7.0639 14.0915 7.06742 14.089C7.07084 14.0865 7.07473 14.0828 7.07942 14.0781C7.08088 14.0766 7.0824 14.0751 7.08399 14.0735C7.09237 14.065 7.10256 14.0546 7.11484 14.0452C7.12955 14.034 7.14752 14.0239 7.16978 14.0192C7.19208 14.0146 7.21825 14.0156 7.24922 14.0259L7.24959 14.026L7.45041 14.1064L7.45036 14.1064C7.46808 14.1171 7.47608 14.1289 7.47608 14.1423C7.47608 14.1547 7.46909 14.1667 7.4626 14.1773C7.46184 14.1785 7.46109 14.1797 7.46034 14.1809C7.45424 14.1907 7.44854 14.1999 7.44586 14.2095C7.44303 14.2196 7.44364 14.2299 7.45226 14.2414C7.45694 14.2476 7.46473 14.2558 7.475 14.2661C7.48022 14.2713 7.48585 14.2768 7.49191 14.2827C7.49791 14.2886 7.50432 14.2948 7.51116 14.3016C7.53829 14.3285 7.57019 14.3617 7.59879 14.3995C7.65583 14.475 7.70077 14.5707 7.6664 14.6738L7.66636 14.6739C7.63232 14.7692 7.56424 14.8235 7.50566 14.8637C7.49711 14.8695 7.48882 14.875 7.4809 14.8803C7.46139 14.8933 7.44403 14.9049 7.4302 14.9165C7.41079 14.9329 7.40031 14.9478 7.40031 14.9647V14.9658L7.39997 14.9668C7.399 14.9698 7.39938 14.9721 7.40117 14.9747C7.40321 14.9776 7.40722 14.9808 7.41385 14.9841C7.42706 14.9906 7.44805 14.9961 7.4753 15.0006C7.52959 15.0097 7.60623 15.0147 7.68866 15.018C7.7392 15.0201 7.79171 15.0215 7.84241 15.0229C7.87439 15.0237 7.90566 15.0246 7.93527 15.0255C8.01151 15.028 8.07699 15.0313 8.11421 15.0381C8.2178 15.0569 8.31006 15.1152 8.37154 15.2006L8.37868 15.2106L8.09828 15.2246M7.24482 14.0385C7.21592 14.0289 7.1922 14.0282 7.17249 14.0323C7.1527 14.0364 7.13654 14.0454 7.12294 14.0558C7.11146 14.0646 7.10201 14.0742 7.09362 14.0827C7.09199 14.0843 7.0904 14.086 7.08884 14.0875C7.08416 14.0922 7.07962 14.0965 7.07529 14.0997C7.07106 14.1028 7.06609 14.1055 7.06061 14.1055C7.04781 14.1055 7.03612 14.0971 7.02528 14.0871C7.01889 14.0812 7.01197 14.0739 7.00475 14.0663C6.99972 14.061 6.99454 14.0555 6.98929 14.0503C6.96291 14.0239 6.93126 13.9989 6.88743 13.9989C6.86811 13.9989 6.85239 14.0021 6.84176 14.0067C6.83643 14.009 6.83265 14.0115 6.83032 14.0138M5.05451 14.3959C5.04879 14.4079 5.04567 14.4255 5.04508 14.4454C5.04447 14.4657 5.0465 14.4876 5.05056 14.5071C5.05466 14.5268 5.06067 14.5432 5.06758 14.5529C5.07103 14.5578 5.07424 14.5603 5.0769 14.5612C5.07916 14.562 5.08179 14.5619 5.08531 14.5595L5.08698 14.5584H5.089C5.09233 14.5584 5.09387 14.5574 5.09486 14.5562C5.09612 14.5547 5.09724 14.552 5.09779 14.5474C5.09892 14.5382 5.09742 14.5254 5.09572 14.511C5.09408 14.497 5.09227 14.4816 5.09362 14.4688C5.09496 14.4561 5.09976 14.4435 5.11354 14.4389L5.11369 14.4388C5.20064 14.4121 5.29111 14.3985 5.38208 14.3986M5.05451 14.3959C5.05868 14.392 5.06523 14.3881 5.07434 14.3843C5.08394 14.3803 5.09596 14.3766 5.11012 14.3732C5.13843 14.3664 5.17473 14.3611 5.21622 14.3569C5.29917 14.3486 5.40217 14.3453 5.50197 14.3453C5.6015 14.3453 5.70429 14.3552 5.7837 14.3718C5.82344 14.3801 5.85705 14.3899 5.88141 14.4009C5.89359 14.4064 5.90321 14.412 5.91008 14.4177C5.917 14.4234 5.92062 14.4287 5.92181 14.4335L5.92198 14.4342L5.92231 14.4348C5.92395 14.4381 5.92331 14.4436 5.91767 14.4536C5.9138 14.4605 5.90842 14.4681 5.90223 14.4769C5.89976 14.4804 5.89716 14.4841 5.89447 14.488C5.87615 14.5147 5.85517 14.5493 5.855 14.5912L5.80158 14.9384L5.80191 14.9397C5.80304 14.9442 5.80222 14.9495 5.79862 14.9559C5.795 14.9623 5.78877 14.9693 5.77994 14.9767C5.7623 14.9915 5.73545 15.0071 5.7024 15.0219C5.63645 15.0516 5.54723 15.0781 5.46126 15.0913C5.36666 15.0981 5.30866 15.132 5.27425 15.1647C5.25707 15.181 5.24587 15.197 5.23894 15.2089C5.23548 15.2148 5.23307 15.2198 5.23153 15.2233C5.23075 15.2251 5.23019 15.2265 5.22982 15.2274L5.22939 15.2286L5.22927 15.2289L5.22924 15.229M5.65945 14.5172C5.66469 14.5239 5.66849 14.5312 5.66849 14.5384C5.66849 14.5384 5.66851 14.5388 5.66886 14.5402C5.66917 14.5414 5.66965 14.5429 5.67029 14.5448C5.67092 14.5467 5.67167 14.5489 5.67252 14.5513C5.67336 14.5537 5.67428 14.5564 5.67523 14.5592C5.67903 14.5706 5.68336 14.5853 5.68511 14.601C5.68685 14.6167 5.68604 14.6337 5.6792 14.6497C5.67228 14.6659 5.65945 14.6803 5.63817 14.6909L5.63731 14.6914C5.50354 14.7357 5.36247 14.7538 5.22183 14.7449C5.08173 14.7376 4.9447 14.7011 4.81956 14.6376L4.81851 14.6371L4.81857 14.637C4.7908 14.6162 4.76694 14.5819 4.75014 14.5517C4.74169 14.5365 4.73491 14.5221 4.73023 14.5106C4.72789 14.5048 4.72604 14.4997 4.72477 14.4956C4.72358 14.4917 4.72266 14.4879 4.72266 14.4852M5.65945 14.5172C5.65407 14.5102 5.64645 14.5029 5.63728 14.4956L5.65945 14.5172ZM5.63728 14.4956C5.6189 14.4808 5.59348 14.4652 5.5649 14.4509L5.63728 14.4956ZM5.5649 14.4509C5.50791 14.4224 5.43687 14.3986 5.38208 14.3986L5.5649 14.4509Z" fill="#808080"/>
<path fill-rule="evenodd" clip-rule="evenodd" d="M7.15317 14.1521C7.15317 14.1573 7.15214 14.1625 7.15013 14.1674C7.14812 14.1722 7.14518 14.1766 7.14147 14.1803C7.13776 14.1841 7.13335 14.187 7.1285 14.189C7.12365 14.191 7.11845 14.1921 7.11321 14.1921C7.10796 14.1921 7.10276 14.191 7.09791 14.189C7.09306 14.187 7.08866 14.1841 7.08495 14.1803C7.08124 14.1766 7.07829 14.1722 7.07628 14.1674C7.07428 14.1625 7.07324 14.1573 7.07324 14.1521C7.07324 14.1415 7.07745 14.1313 7.08495 14.1238C7.09244 14.1163 7.10261 14.1121 7.11321 14.1121C7.12381 14.1121 7.13397 14.1163 7.14147 14.1238C7.14896 14.1313 7.15317 14.1415 7.15317 14.1521Z" fill="black"/>
<path d="M9.21858 13.526L9.43173 13.566L9.79142 13.3262L9.76477 13.4594L9.57827 13.5793L9.4717 13.6326L9.5383 13.7392L9.6582 13.9257L9.63156 14.0589L9.40509 13.6726L9.19194 13.6326L9.21858 13.526ZM8.8589 11.9541L9.25855 11.7676L9.15198 11.5278L9.20526 11.5011L9.4717 12.0873L9.43173 12.1139L9.31184 11.8608L8.91219 12.0606L8.8589 11.9541ZM8.21946 11.1814L8.59247 10.835L8.6724 10.915V11.5011L8.96547 11.2347L9.03208 11.3146L8.65907 11.661L8.57914 11.5811V10.9949L8.28607 11.2613L8.21946 11.1814ZM6.56757 10.5153L6.63418 10.0091H6.74075L6.67415 10.4754L7.0738 10.5153V10.5819L6.56757 10.5153ZM5.75495 10.5952L5.6617 10.089L5.76827 10.0624L5.8482 10.5153L6.24785 10.4354V10.502L5.75495 10.5952ZM4.2496 11.3279L4.20964 11.288L4.47607 11.0748L4.60929 11.208C4.58068 11.2656 4.54486 11.3193 4.50271 11.3679C4.46815 11.4169 4.4279 11.4616 4.38282 11.5011C4.32657 11.5461 4.26365 11.5821 4.19632 11.6077C4.12971 11.621 4.0631 11.6343 4.02313 11.6077C3.97216 11.6022 3.92487 11.5786 3.88992 11.5411C3.86295 11.502 3.84897 11.4554 3.84995 11.4079C3.84995 11.3546 3.86327 11.288 3.90324 11.2347C3.92988 11.1814 3.98317 11.1281 4.03646 11.0881C4.08083 11.0505 4.13013 11.0192 4.18299 10.9949L4.30289 10.9683C4.32953 10.9683 4.3695 10.9683 4.39614 10.9949L4.34285 11.0615C4.31764 11.0508 4.29025 11.0462 4.26293 11.0482L4.18299 11.0615C4.14905 11.0794 4.11769 11.1018 4.08974 11.1281C4.04978 11.1548 4.00981 11.1814 3.99649 11.2214C3.97403 11.2446 3.95598 11.2716 3.9432 11.3013V11.3679C3.9432 11.4079 3.95653 11.4478 3.98317 11.4745L4.07642 11.5411L4.20964 11.5278C4.33223 11.476 4.43171 11.3813 4.48939 11.2613L4.43611 11.1814L4.2496 11.3279ZM4.23628 15.018L3.80999 15.3244L3.49027 14.8715L3.54356 14.8315L3.80999 15.1912L3.92988 15.098L3.71674 14.7916L3.7567 14.7649L3.98317 15.0713L4.16967 14.9381L4.23628 15.018ZM3.61016 14.352C3.67677 14.3386 3.71674 14.2987 3.74338 14.2321V14.0322C3.72236 13.9635 3.68046 13.9029 3.62348 13.8591C3.58352 13.8191 3.51691 13.8058 3.46363 13.8191C3.42146 13.8283 3.3838 13.8518 3.35705 13.8857C3.34373 13.9123 3.31709 13.9523 3.31709 13.9923L3.33041 14.1388C3.35705 14.2187 3.38369 14.272 3.43698 14.3253C3.47695 14.3653 3.54356 14.3786 3.61016 14.352ZM3.65013 14.4585C3.61109 14.471 3.56941 14.4726 3.52953 14.4632C3.48965 14.4538 3.45306 14.4338 3.42366 14.4052C3.35258 14.3412 3.30166 14.2579 3.27712 14.1655C3.25048 14.0855 3.25048 14.0322 3.25048 13.9523C3.25048 13.8724 3.27712 13.8457 3.30376 13.8058C3.3341 13.7583 3.382 13.7248 3.43698 13.7125C3.48167 13.7025 3.52838 13.7072 3.5702 13.7258C3.62348 13.7525 3.66345 13.7791 3.70341 13.8324C3.78523 13.9488 3.823 14.0904 3.80999 14.2321C3.80516 14.2847 3.7868 14.3352 3.7567 14.3786C3.73006 14.4186 3.69009 14.4452 3.65013 14.4585ZM3.69009 13.4194H3.15723V13.0464L3.18387 12.8866L3.23716 12.7933C3.24797 12.7837 3.26063 12.7763 3.27438 12.7718C3.28812 12.7672 3.30265 12.7655 3.31709 12.7667C3.35705 12.7667 3.3837 12.78 3.41034 12.82C3.42366 12.8599 3.4503 12.9132 3.4503 12.9931C3.46788 12.9369 3.50006 12.8863 3.54356 12.8466L3.69009 12.7134V12.8466L3.58352 12.9399L3.50359 13.0198C3.48771 13.0355 3.47425 13.0534 3.46363 13.0731C3.4614 13.0908 3.4614 13.1087 3.46363 13.1264V13.1797L3.4503 13.3129H3.69009V13.4194ZM3.39702 13.2995V13.0731C3.40153 13.0332 3.40153 12.993 3.39702 12.9532C3.39227 12.9336 3.38316 12.9154 3.37037 12.8999C3.36083 12.8864 3.34658 12.8769 3.33041 12.8733C3.30377 12.8733 3.27712 12.8866 3.2638 12.9132L3.23716 13.0464V13.3129H3.41034L3.39702 13.2995ZM4.82243 11.0482V10.4487L4.92901 10.3821L5.4752 10.6485L5.36862 10.7151L5.20876 10.6352L4.92901 10.8084V10.9949L4.82243 11.0482ZM4.91569 10.7418L5.15548 10.6086L5.02226 10.5286C4.98095 10.5089 4.94091 10.4867 4.90236 10.462L4.91569 10.5686V10.7418ZM7.39352 10.5819L7.95303 10.3555L8.04628 10.4221L8.00631 11.0349L7.91306 10.9549L7.92638 10.7818L7.65995 10.5819L7.48677 10.6485L7.39352 10.5819ZM7.71324 10.5553L7.9397 10.7151V10.5553C7.94588 10.5104 7.95478 10.4659 7.96635 10.4221C7.93796 10.4478 7.90666 10.4702 7.8731 10.4887L7.71324 10.5553ZM9.08537 12.4603L9.59159 12.3404L9.67152 12.7001L9.69816 12.8599L9.67152 12.9532C9.66469 12.9662 9.65524 12.9776 9.64378 12.9868C9.63232 12.9959 9.61908 13.0027 9.60491 13.0065C9.56495 13.0065 9.52498 13.0065 9.49834 12.9798C9.45432 12.9352 9.42225 12.8802 9.40509 12.82C9.40731 12.8421 9.40731 12.8644 9.40509 12.8866L9.3518 12.9931L9.24523 13.153L9.21858 13.0198L9.29851 12.8866L9.3518 12.8066C9.36984 12.7741 9.37903 12.7373 9.37844 12.7001C9.37554 12.6776 9.37109 12.6553 9.36512 12.6335L9.33848 12.5136L9.11201 12.5669L9.08537 12.4603ZM9.39177 12.5002L9.44505 12.7267C9.44505 12.7667 9.4717 12.8066 9.48502 12.8333C9.48502 12.8599 9.51166 12.8733 9.52498 12.8866L9.57827 12.8999C9.59159 12.8999 9.61823 12.8733 9.61823 12.8466C9.62896 12.8029 9.62896 12.7571 9.61823 12.7134L9.55163 12.4603L9.39177 12.5002Z" fill="#D0D0D0"/>
</g>
<defs>
<clipPath id="clip0_8424_43222">
<rect width="40" height="40" rx="20" fill="white"/>
</clipPath>
</defs>
</svg>
