<svg width="40" height="40" viewBox="0 0 40 40" fill="none" xmlns="http://www.w3.org/2000/svg">
<g clip-path="url(#clip0_8424_43231)">
<path fill-rule="evenodd" clip-rule="evenodd" d="M-11 0H42.325V40H-11V0Z" fill="#3B5AA3"/>
<path fill-rule="evenodd" clip-rule="evenodd" d="M-11 38.9167L42.325 0V7.25L-11 40V38.9167Z" fill="#E2AE57"/>
<path fill-rule="evenodd" clip-rule="evenodd" d="M-9.13333 40.0001L42.3333 14.9334L42.325 6.97506L-11 40.0001H-9.13333ZM3.61666 1.26672L3.08333 9.83339L0.833333 4.36672L1.7 10.1834L-1.79167 5.48339L0.499999 10.8417L-4.08333 7.29172L-0.516667 11.7584L-5.69167 9.45839L-1.15833 12.8917L-6.8 12.1417L-1.46667 14.2584L-9.83333 15.0251L-1.45 15.5834L-6.75833 17.7667L-1.175 17.0167L-5.7 20.3501L-0.450001 18.0501L-4.03333 22.5501L0.516665 19.1084L-1.73333 24.3501L1.9 19.7917L0.916666 25.4667L3.20833 20.1584L3.725 28.5501L4.53333 20.1834L6.50833 25.5167L5.75833 19.7667L9.375 24.3334L6.99166 19.0001L11.5417 22.6667L7.925 18.0917L13.3333 20.3417L8.55 16.8501L14.375 17.8334L8.79167 15.6917L17.4667 15.1501L8.8 14.3417L14.5083 12.4417L8.59167 13.1917L13.475 9.77506L7.975 11.9834L11.775 7.37506L7.14166 10.9917L9.36666 5.45839L5.775 10.1584L6.55 4.29172L4.40833 9.83339L3.60833 1.26672H3.61666Z" fill="white"/>
</g>
<defs>
<clipPath id="clip0_8424_43231">
<rect width="40" height="40" rx="20" fill="white"/>
</clipPath>
</defs>
</svg>
