<svg width="40" height="40" viewBox="0 0 40 40" fill="none" xmlns="http://www.w3.org/2000/svg">
<g clip-path="url(#clip0_8424_43311)">
<path d="M-7 0H46.3333V40H-7V0Z" fill="#CD2A3E"/>
<path d="M-7 6H46.3333V34H-7V6Z" fill="#006233"/>
<path d="M32.1667 12.8833C32.1667 16.1985 30.8497 19.3779 28.5055 21.7221C26.1613 24.0663 22.9819 25.3833 19.6667 25.3833C16.3515 25.3833 13.172 24.0663 10.8278 21.7221C8.48363 19.3779 7.16667 16.1985 7.16667 12.8833C6.88889 13.9499 6.74886 15.0478 6.75001 16.15C6.75001 19.5757 8.11087 22.8611 10.5332 25.2834C12.9556 27.7058 16.241 29.0666 19.6667 29.0666C23.0924 29.0666 26.3778 27.7058 28.8001 25.2834C31.2225 22.8611 32.5833 19.5757 32.5833 16.15C32.5849 15.0477 32.4449 13.9498 32.1667 12.8833Z" fill="#FFC400"/>
<path d="M19.666 7.81689L18.541 11.2752H14.916L17.8577 13.4086L16.7327 16.8586L19.6743 14.7252L22.616 16.8586L21.491 13.4086L24.4327 11.2752H20.7993L19.666 7.81689Z" fill="#FFC400"/>
</g>
<defs>
<clipPath id="clip0_8424_43311">
<rect width="40" height="40" rx="20" fill="white"/>
</clipPath>
</defs>
</svg>
