<svg width="56" height="56" viewBox="0 0 56 56" fill="none" xmlns="http://www.w3.org/2000/svg">
<g clip-path="url(#clip0_3318_24880)">
<path d="M28 56C43.464 56 56 43.464 56 28C56 12.536 43.464 0 28 0C12.536 0 0 12.536 0 28C0 43.464 12.536 56 28 56Z" fill="#F0F0F0"/>
<path d="M56 28C56 16.8991 49.5397 7.30732 40.1738 2.77832V53.2215C49.5397 48.6926 56 39.1009 56 28Z" fill="#D80027"/>
<path d="M0 28C0 39.1009 6.46023 48.6926 15.8261 53.2216V2.77832C6.46023 7.30732 0 16.8991 0 28Z" fill="#6DA544"/>
<path d="M20.6953 27.9997C20.6953 32.0338 23.9656 35.3041 27.9997 35.3041C32.0338 35.3041 35.3041 32.0338 35.3041 27.9997V25.5649H20.6953V27.9997Z" fill="#6DA544"/>
<path d="M37.7391 23.1306H30.4347C30.4347 21.7859 29.3446 20.6958 27.9999 20.6958C26.6553 20.6958 25.5651 21.7859 25.5651 23.1306H18.2607C18.2607 24.4754 19.432 25.5654 20.7766 25.5654H20.6955C20.6955 26.9102 21.7856 28.0002 23.1303 28.0002C23.1303 29.345 24.2204 30.435 25.5651 30.435H30.4347C31.7795 30.435 32.8695 29.345 32.8695 28.0002C34.2143 28.0002 35.3043 26.9102 35.3043 25.5654H35.2232C36.5679 25.5654 37.7391 24.4754 37.7391 23.1306Z" fill="#FF9811"/>
</g>
<defs>
<clipPath id="clip0_3318_24880">
<rect width="56" height="56" fill="white"/>
</clipPath>
</defs>
</svg>
