<svg width="40" height="40" viewBox="0 0 40 40" fill="none" xmlns="http://www.w3.org/2000/svg">
<g clip-path="url(#clip0_8424_43296)">
<path fill-rule="evenodd" clip-rule="evenodd" d="M-7 0H10.775V40H-7V0Z" fill="#00319C"/>
<path fill-rule="evenodd" clip-rule="evenodd" d="M10.7754 0H28.5587V40H10.7754V0Z" fill="#FFDE00"/>
<path fill-rule="evenodd" clip-rule="evenodd" d="M28.5586 0H46.3336V40H28.5586V0Z" fill="#DE2110"/>
<path fill-rule="evenodd" clip-rule="evenodd" d="M23.0332 26.7002L25.0499 29.6169C25.1665 29.7835 25.2749 29.9419 25.1082 30.0502C24.9415 30.1585 24.9915 30.5835 25.1082 30.7502C25.3332 31.0752 25.6082 31.1252 25.7749 31.0169L27.3082 30.0502C27.4749 29.9502 27.5332 29.6752 27.3082 29.3502C27.1832 29.1835 26.8082 28.9752 26.6415 29.0835C26.4665 29.1919 26.3499 29.0252 26.2415 28.8669L24.2165 25.9502" fill="#FF1900"/>
<path fill-rule="evenodd" clip-rule="evenodd" d="M24.241 25.9336L26.2662 28.8504C26.3211 28.9307 26.3746 29.0074 26.4345 29.0518C26.4637 29.0735 26.493 29.0863 26.5232 29.0886C26.5532 29.0909 26.5871 29.0832 26.6265 29.0589C26.6759 29.0269 26.7382 29.0198 26.8023 29.0271C26.8668 29.0345 26.9362 29.0567 27.0032 29.0872C27.1364 29.148 27.2658 29.2444 27.3321 29.3327L27.3328 29.3336C27.562 29.6647 27.5118 29.9621 27.3241 30.0751L25.7913 31.0414C25.7913 31.0414 25.7912 31.0414 25.7911 31.0415C25.6058 31.1618 25.3145 31.0985 25.0848 30.7669C25.0223 30.6775 24.9798 30.5236 24.9734 30.3796C24.9701 30.3072 24.976 30.2353 24.9941 30.1737C25.0121 30.1123 25.0432 30.0581 25.0929 30.0258C25.1305 30.0013 25.15 29.9758 25.1588 29.9506C25.1677 29.9252 25.1671 29.8965 25.1578 29.8633C25.1386 29.7952 25.0858 29.7183 25.0265 29.6336L25.0264 29.6335L23.0098 26.7168L23.0577 26.6836L25.0743 29.6002C25.0743 29.6002 25.0743 29.6001 25.0743 29.6002C25.1317 29.6821 25.1915 29.7678 25.2139 29.8475C25.2254 29.8883 25.2279 29.9299 25.2139 29.9699C25.1998 30.0101 25.1703 30.045 25.1247 30.0747C25.091 30.0966 25.0659 30.1361 25.05 30.1901C25.0343 30.2438 25.0286 30.3089 25.0316 30.3771C25.0377 30.5144 25.0786 30.6562 25.1326 30.7335L25.1327 30.7336C25.353 31.0518 25.6116 31.0886 25.7595 30.9924L25.7599 30.9922L27.2937 30.0252C27.439 29.9381 27.5054 29.6858 27.2851 29.3673C27.2262 29.2891 27.1059 29.1982 26.9789 29.1403C26.9157 29.1114 26.8523 29.0915 26.7957 29.0851C26.7388 29.0786 26.6918 29.086 26.658 29.108L26.6574 29.1084C26.6094 29.1381 26.5633 29.1502 26.5188 29.1468C26.4745 29.1434 26.435 29.1249 26.3997 29.0987C26.3304 29.0473 26.2714 28.9614 26.2181 28.8835C26.2181 28.8834 26.218 28.8834 26.218 28.8834L24.1931 25.9669L24.241 25.9336Z" fill="black"/>
<path fill-rule="evenodd" clip-rule="evenodd" d="M23.8248 24.644C24.7268 25.6685 25.0405 26.8431 24.5264 27.2564C24.0124 27.6697 22.8549 27.1732 21.953 26.1487C21.051 25.1241 20.7416 23.946 21.2557 23.5327C21.7698 23.1194 22.9236 23.6117 23.8292 24.6404L23.8248 24.644Z" fill="#A77B3B"/>
<path fill-rule="evenodd" clip-rule="evenodd" d="M21.1434 24.5955C21.266 25.0577 21.5628 25.5992 22.0082 26.1051C22.4537 26.6111 22.9601 26.9841 23.4147 27.1795C23.8744 27.3772 24.2564 27.3843 24.4806 27.2041C24.7047 27.0239 24.7628 26.663 24.6377 26.1964C24.514 25.735 24.2161 25.1943 23.7706 24.6883L23.7242 24.6357L23.7283 24.6324C23.2926 24.151 22.8055 23.7969 22.3672 23.6088C21.9081 23.4117 21.5269 23.4055 21.3026 23.5858C21.0784 23.766 21.0193 24.1279 21.1434 24.5955ZM23.9261 24.6534L23.9308 24.6495L23.8844 24.5968C23.4261 24.0763 22.9029 23.6888 22.4251 23.4836C21.9524 23.2807 21.4997 23.2474 21.2099 23.4804C20.92 23.7134 20.8767 24.1473 21.0043 24.6283C21.1334 25.1146 21.4422 25.6745 21.8988 26.193C22.3553 26.7116 22.8785 27.099 23.3567 27.3047C23.8297 27.508 24.2834 27.5426 24.5733 27.3095C24.8633 27.0764 24.9054 26.6433 24.7766 26.1632C24.6509 25.6943 24.3574 25.1568 23.9261 24.6534Z" fill="black"/>
<path fill-rule="evenodd" clip-rule="evenodd" d="M14.8339 25.5083L13.0423 28.5666C12.9423 28.7333 12.8423 28.9 12.6673 28.8166C12.4923 28.7166 12.1173 28.9583 12.0173 29.1333C11.8173 29.4666 11.8923 29.7333 12.0756 29.8333L13.6756 30.6833C13.8423 30.775 14.1256 30.7 14.3256 30.3666C14.4173 30.1833 14.4423 29.7583 14.2673 29.6666C14.0923 29.575 14.1839 29.4 14.2923 29.2333L16.0756 26.175" fill="#FF1900"/>
<path fill-rule="evenodd" clip-rule="evenodd" d="M13.0171 28.5517L14.8086 25.4937L14.859 25.5231L13.0673 28.5815L13.0671 28.5817L13.0655 28.5845C13.0167 28.6657 12.9648 28.7523 12.902 28.8074C12.8696 28.8358 12.8329 28.8572 12.7908 28.8649C12.7482 28.8727 12.703 28.8661 12.6546 28.8431L12.6536 28.8426L12.6527 28.8421C12.6172 28.8218 12.5689 28.8174 12.5111 28.8281C12.4537 28.8387 12.3902 28.8636 12.328 28.8975C12.2025 28.9659 12.0888 29.0668 12.0425 29.1479L12.0422 29.1484C11.9446 29.3109 11.9159 29.4543 11.9314 29.5669C11.9469 29.6791 12.0063 29.7624 12.0893 29.8077C12.0893 29.8077 12.0894 29.8078 12.0894 29.8078L13.6895 30.6578C13.8364 30.7386 14.104 30.6783 14.2999 30.3527C14.3427 30.2663 14.3712 30.1199 14.3672 29.9832C14.3651 29.9149 14.355 29.8509 14.3357 29.7992C14.3162 29.7474 14.2887 29.7109 14.2536 29.6926C14.2054 29.6673 14.1729 29.6349 14.1554 29.5957C14.1379 29.5568 14.1367 29.5147 14.1447 29.4727C14.1605 29.3905 14.2136 29.3008 14.2673 29.2181L16.0503 26.1604L16.1007 26.1898L14.317 29.2487L14.3166 29.2493C14.2621 29.3331 14.2154 29.414 14.202 29.4837C14.1955 29.5177 14.1974 29.5469 14.2086 29.5718C14.2197 29.5965 14.2414 29.6203 14.2807 29.6409C14.3331 29.6684 14.368 29.7194 14.3903 29.7788C14.4126 29.8383 14.4233 29.9092 14.4255 29.9815C14.4297 30.1255 14.4001 30.2827 14.3516 30.3798L14.3511 30.3808L14.3505 30.3817C14.1464 30.7218 13.8479 30.8113 13.6616 30.7091C13.6615 30.709 13.6615 30.709 13.6614 30.709L12.0618 29.8592L12.0615 29.859C11.9612 29.8043 11.8915 29.7043 11.8737 29.5749C11.8559 29.4459 11.8896 29.2894 11.992 29.1187C12.0457 29.0248 12.1694 28.9175 12.3001 28.8463C12.3659 28.8105 12.4353 28.7828 12.5005 28.7707C12.565 28.7588 12.6287 28.7616 12.6806 28.7908C12.7193 28.8091 12.7519 28.8128 12.7802 28.8076C12.8091 28.8023 12.8365 28.7872 12.8635 28.7636C12.9187 28.7151 12.9663 28.6364 13.017 28.5519C13.0171 28.5518 13.0171 28.5518 13.0171 28.5517Z" fill="black"/>
<path fill-rule="evenodd" clip-rule="evenodd" d="M20.5998 23.3834H18.9665C18.9165 23.4334 18.4498 26.35 17.9498 27.4667C17.3415 28.825 15.5165 30.025 15.5165 30.025C15.5165 30.025 16.6081 30.3584 16.9331 30.575C17.0165 30.55 18.7665 30.1834 18.9665 28.05C19.1665 30.1834 17.7498 31.1584 17.7498 31.1584C17.7498 31.1584 19.7831 31.7417 19.7831 33.1C19.7831 31.7417 21.8165 31.1584 21.8165 31.1584C21.8165 31.1584 20.7998 30.1834 20.5915 28.05C21.0081 30.1834 22.5498 30.55 22.6331 30.575C22.9581 30.3584 24.0498 30.025 24.0498 30.025C24.0498 30.025 22.2248 28.825 21.6165 27.4667C21.1165 26.35 20.6498 23.4334 20.5998 23.3834ZM13.6831 13.6584L16.7331 14.6334C17.7415 14.6334 18.7665 13.6584 18.7665 12.6834C18.7998 10.5167 17.9498 9.76669 17.7498 9.76669L18.1498 9.38336L17.5415 8.80003C17.5415 8.80003 17.7498 7.79169 19.7831 7.82503C21.8165 7.86669 21.8165 8.80003 21.8165 9.76669C21.8165 10.7334 20.7998 10.7417 20.7998 12.6834C20.7998 13.6584 21.8165 14.6334 22.8331 14.6334L25.8831 13.6584V23.3834H13.6748V13.6584H13.6831Z" fill="#A77B3B"/>
<path fill-rule="evenodd" clip-rule="evenodd" d="M17.6213 8.77887L18.2517 9.38341L17.8813 9.73841C17.8834 9.7396 17.8855 9.74081 17.8876 9.74203C17.9359 9.77027 17.9898 9.81183 18.0466 9.86695C18.1603 9.97732 18.2887 10.1454 18.4083 10.3804C18.6478 10.8508 18.8536 11.5916 18.8368 12.684C18.8367 13.1955 18.5685 13.7002 18.1764 14.0752C17.784 14.4505 17.2589 14.7042 16.7327 14.7042H16.7216L13.7452 13.7527V23.3126H25.8118V13.7554L22.8437 14.7042H22.8327C22.3023 14.7042 21.7772 14.4506 21.3857 14.0751C20.9945 13.6999 20.7285 13.195 20.7285 12.6834C20.7285 11.6967 20.988 11.1953 21.2495 10.819C21.2957 10.7526 21.3409 10.6911 21.3842 10.6323C21.5866 10.3571 21.7452 10.1416 21.7452 9.76673C21.7452 9.27724 21.7427 8.82743 21.504 8.48992C21.2695 8.15837 20.7903 7.91658 19.7814 7.89588C18.7765 7.87943 18.2339 8.12039 17.9439 8.35511C17.7986 8.47276 17.7148 8.59036 17.6675 8.67696C17.6443 8.7195 17.6298 8.75468 17.6213 8.77887ZM20.5478 23.4542H19.0176C19.0122 23.4763 19.0055 23.5057 18.9978 23.5422C18.9794 23.6282 18.9552 23.7501 18.9259 23.8991C18.9201 23.9283 18.9142 23.9586 18.9081 23.9897C18.8517 24.2766 18.7795 24.6446 18.6957 25.0397C18.5106 25.9133 18.2676 26.9292 18.014 27.4957C17.7034 28.1891 17.0856 28.8369 16.5514 29.3084C16.2834 29.5449 16.0346 29.7386 15.8528 29.8733C15.7832 29.9248 15.7234 29.9677 15.676 30.0011C15.6878 30.0049 15.7003 30.0089 15.7134 30.0131C15.8212 30.0479 15.9685 30.0965 16.126 30.152C16.2834 30.2074 16.4517 30.2699 16.6015 30.3323C16.7353 30.3881 16.8578 30.4453 16.9447 30.4987C17.0631 30.4676 17.4568 30.3571 17.8626 30.0469C18.3213 29.6963 18.7975 29.0886 18.8955 28.0434H19.0365C19.1382 29.128 18.8288 29.9207 18.4922 30.4426C18.3242 30.7032 18.1496 30.8959 18.0167 31.0238C17.9715 31.0672 17.9311 31.1033 17.8973 31.1319C17.9499 31.1501 18.0165 31.1744 18.0933 31.205C18.2864 31.2819 18.5446 31.399 18.8034 31.5597C19.2047 31.8089 19.6204 32.1712 19.7827 32.6605C19.945 32.1712 20.3607 31.8089 20.762 31.5597C21.0207 31.399 21.2789 31.2819 21.4721 31.205C21.559 31.1703 21.633 31.1438 21.6882 31.125C21.6631 31.0963 21.6328 31.0602 21.5983 31.0166C21.4975 30.8891 21.3617 30.6973 21.2195 30.4383C20.9351 29.9202 20.6257 29.134 20.5205 28.0569L20.6605 28.0365C20.8656 29.0862 21.3459 29.6967 21.7813 30.0481C22.1626 30.3558 22.512 30.467 22.6213 30.4983C22.7081 30.445 22.8304 30.388 22.9639 30.3323C23.1136 30.2699 23.2819 30.2074 23.4394 30.152C23.5969 30.0965 23.7441 30.0479 23.852 30.0131C23.865 30.0089 23.8775 30.0049 23.8894 30.0011C23.842 29.9677 23.7822 29.9248 23.7125 29.8733C23.5307 29.7386 23.2819 29.5449 23.0139 29.3084C22.4797 28.8369 21.8619 28.1891 21.5514 27.4957C21.2977 26.9292 21.0547 25.9133 20.8696 25.0397C20.7859 24.6446 20.7136 24.2765 20.6573 23.9897C20.6512 23.9585 20.6452 23.9283 20.6395 23.8991C20.6102 23.7501 20.586 23.6282 20.5676 23.5422C20.5598 23.5057 20.5532 23.4763 20.5478 23.4542ZM21.8651 31.1073L21.9539 31.1925L21.8353 31.2265L21.8344 31.2268L21.8304 31.228C21.8268 31.2291 21.8213 31.2307 21.8141 31.233C21.7997 31.2374 21.7784 31.2442 21.7511 31.2533C21.6966 31.2715 21.6184 31.2992 21.5245 31.3366C21.3364 31.4115 21.0863 31.5251 20.8367 31.68C20.3334 31.9926 19.8535 32.4595 19.8535 33.1001H19.7118C19.7118 32.4595 19.232 31.9926 18.7287 31.68C18.4791 31.5251 18.2289 31.4115 18.0409 31.3366C17.9469 31.2992 17.8688 31.2715 17.8142 31.2533C17.787 31.2442 17.7657 31.2374 17.7513 31.233C17.7441 31.2307 17.7386 31.2291 17.735 31.228L17.731 31.2268L17.73 31.2265L17.7298 31.2265L17.5856 31.1851L17.7091 31.1001L17.7092 31.1L17.7097 31.0997L17.7122 31.0979C17.7146 31.0962 17.7182 31.0936 17.723 31.09C17.7326 31.0829 17.747 31.0719 17.7654 31.0571C17.8023 31.0275 17.8553 30.9825 17.9185 30.9217C18.0449 30.8001 18.212 30.6157 18.3732 30.3658C18.6186 29.9852 18.8507 29.4519 18.9034 28.7548C18.6998 29.4329 18.3208 29.875 17.9486 30.1595C17.5005 30.5019 17.064 30.6142 16.9693 30.6386C16.9615 30.6406 16.956 30.642 16.953 30.6429L16.9211 30.6525L16.8934 30.634C16.8183 30.5839 16.6946 30.5246 16.547 30.4631C16.4006 30.4021 16.2351 30.3406 16.0789 30.2856C15.9229 30.2307 15.7769 30.1824 15.6699 30.1479C15.6164 30.1307 15.5727 30.1169 15.5424 30.1074C15.5273 30.1027 15.5154 30.099 15.5075 30.0965L15.4984 30.0937L15.4961 30.093L15.4955 30.0929L15.4954 30.0928L15.3511 30.0487L15.4771 29.9659L15.4773 29.9657L15.4783 29.9651L15.482 29.9626C15.4854 29.9604 15.4904 29.957 15.497 29.9525C15.5103 29.9436 15.53 29.9302 15.5552 29.9127C15.6058 29.8776 15.6789 29.8258 15.7685 29.7594C15.9479 29.6266 16.1934 29.4354 16.4577 29.2022C16.988 28.7341 17.5869 28.1027 17.8847 27.4378C18.1311 26.8875 18.3714 25.8868 18.5571 25.0104C18.6406 24.6163 18.7127 24.2493 18.7691 23.9624C18.7752 23.9312 18.7811 23.901 18.7869 23.8718C18.8161 23.723 18.8405 23.6 18.8592 23.5126C18.8638 23.4911 18.8681 23.4716 18.872 23.4542H13.6035V13.5876H13.6937L16.7436 14.5625C17.2222 14.559 17.7091 14.3261 18.0785 13.9728C18.4509 13.6167 18.6952 13.1466 18.6952 12.6834V12.6823C18.7117 11.6082 18.5092 10.8909 18.2821 10.4447C18.1684 10.2214 18.0488 10.0665 17.9479 9.96859C17.8974 9.91953 17.8524 9.88558 17.8161 9.86433C17.7777 9.8419 17.7557 9.83756 17.7493 9.83756H17.5731L18.047 9.38338L17.4637 8.82408L17.4716 8.78573L17.541 8.80006C17.4716 8.78573 17.4717 8.78566 17.4717 8.78558L17.4717 8.78542L17.4718 8.78501L17.472 8.78393C17.4722 8.78309 17.4725 8.782 17.4728 8.78069C17.4734 8.77805 17.4743 8.77447 17.4755 8.77002C17.478 8.76111 17.4817 8.74871 17.4871 8.73331C17.4979 8.70252 17.5155 8.65973 17.5432 8.6091C17.5985 8.50768 17.6939 8.37528 17.8548 8.245C18.1773 7.9839 18.7555 7.73738 19.7838 7.75424L19.7841 7.75424C20.8084 7.77523 21.3458 8.02094 21.6197 8.40812C21.8869 8.78594 21.8869 9.28058 21.8868 9.75388V9.76673C21.8868 10.1917 21.6972 10.4481 21.4919 10.7258C21.45 10.7824 21.4075 10.8399 21.3658 10.8999C21.1191 11.2549 20.8702 11.7285 20.8702 12.6834C20.8702 13.1468 21.1126 13.6169 21.4838 13.9729C21.852 14.3261 22.339 14.5591 22.8218 14.5625L25.9535 13.5614V23.4542H20.6933C20.6973 23.4716 20.7016 23.4911 20.7062 23.5126C20.7248 23.6 20.7492 23.723 20.7785 23.8718C20.7842 23.901 20.7902 23.9313 20.7963 23.9625C20.8526 24.2493 20.9247 24.6163 21.0082 25.0104C21.194 25.8868 21.4343 26.8875 21.6807 27.4378C21.9784 28.1027 22.5773 28.7341 23.1077 29.2022C23.372 29.4354 23.6175 29.6266 23.7968 29.7594C23.8865 29.8258 23.9596 29.8776 24.0101 29.9127C24.0354 29.9302 24.0551 29.9436 24.0683 29.9525C24.075 29.957 24.08 29.9604 24.0834 29.9626L24.0871 29.9651L24.088 29.9657L24.0882 29.9658L24.2143 30.0487L24.07 30.0928L24.0699 30.0929L24.0693 30.093L24.067 30.0937L24.0579 30.0965C24.0499 30.099 24.0381 30.1027 24.023 30.1074C23.9926 30.1169 23.9489 30.1307 23.8954 30.1479C23.7884 30.1824 23.6424 30.2307 23.4864 30.2856C23.3303 30.3406 23.1647 30.4021 23.0184 30.4631C22.8708 30.5246 22.7471 30.5839 22.672 30.634L22.6442 30.6525L22.6123 30.6429C22.6098 30.6422 22.6061 30.6411 22.6011 30.6397C22.5208 30.6174 22.125 30.5074 21.6924 30.1583C21.3912 29.9153 21.0736 29.5576 20.8307 29.036C20.9709 29.5986 21.1631 30.0412 21.3437 30.3701C21.4818 30.6216 21.6131 30.8069 21.7095 30.9288C21.7577 30.9898 21.7971 31.0349 21.8242 31.0645C21.8377 31.0793 21.8482 31.0903 21.8552 31.0974C21.8587 31.1009 21.8613 31.1035 21.8629 31.1052L21.8647 31.1069L21.8651 31.1073ZM17.6103 8.81474C17.6103 8.8148 17.6103 8.81479 17.6103 8.81474V8.81474Z" fill="black"/>
<path fill-rule="evenodd" clip-rule="evenodd" d="M18.7642 14.03L18.9687 14.6197L19.376 14.0348L19.5729 14.645L19.7802 14.0324L20.0813 14.6505L20.392 14.0328L20.5939 14.6147L20.7926 14.0458L20.8036 14.0496L20.5939 14.6501L20.3901 14.0626L20.0811 14.6767L19.7821 14.063L19.5726 14.6821L19.3721 14.0607L18.9652 14.6451L18.7641 14.0654L18.5599 14.6501L18.3516 14.0496L18.3626 14.0458L18.5599 14.6147L18.7642 14.03Z" fill="black"/>
<path fill-rule="evenodd" clip-rule="evenodd" d="M18.7598 14.051L19.1675 11.9111L19.1785 11.9132L18.7708 14.0531L18.7598 14.051ZM20.3847 14.0526L20.1837 11.9127L20.1949 11.9117L20.3959 14.0516L20.3847 14.0526ZM20.7924 14.0526L20.5914 11.9127L20.6026 11.9117L20.8036 14.0516L20.7924 14.0526ZM19.3683 14.0521V11.9122H19.3796V14.0521H19.3683ZM19.776 14.0521V11.9122H19.7872V14.0521H19.776Z" fill="black"/>
<path fill-rule="evenodd" clip-rule="evenodd" d="M11.6381 7.82996C9.60539 8.80114 9.60539 10.749 9.60539 11.7202C9.67429 12.6036 9.60539 31.1603 9.60539 31.1603C9.60539 31.1603 9.73745 30.0629 10.6217 29.218L11.6323 28.2468L12.6487 27.2756C13.3952 26.6281 13.665 25.3277 13.665 24.3565V10.749C13.665 10.749 13.665 9.77232 11.6323 7.82996H11.6381Z" fill="#A77B3B"/>
<path fill-rule="evenodd" clip-rule="evenodd" d="M11.65 7.81162L11.6382 7.75977H11.4575L11.5134 7.81321C9.53536 8.81807 9.53537 10.7608 9.53537 11.7161V11.7229L9.53559 11.7256C9.55254 11.943 9.56121 13.2641 9.56444 15.1305C9.56767 16.9943 9.56552 19.3966 9.56121 21.7714C9.55691 24.1461 9.55045 26.4933 9.54506 28.2468C9.54237 29.1235 9.53995 29.8518 9.5382 30.361C9.53732 30.6155 9.53662 30.8153 9.53613 30.9514L9.53537 31.1598C9.53537 31.16 9.53537 31.16 9.60554 31.1603L9.53537 31.16L9.67474 31.1687C9.67519 31.1687 9.67519 31.1687 9.67519 31.1687L9.67525 31.1683L9.6755 31.1663C9.67575 31.1644 9.67613 31.1616 9.67669 31.1577C9.67779 31.15 9.67955 31.1384 9.68212 31.1232C9.68727 31.0927 9.69564 31.0478 9.70843 30.9911C9.73403 30.8776 9.77729 30.7173 9.84774 30.5308C9.98875 30.1576 10.2379 29.6819 10.6704 29.2687L10.6705 29.2685L11.681 28.2975L11.6811 28.2973L12.6961 27.3274C13.0824 26.9918 13.3414 26.4915 13.5041 25.9579C13.6672 25.4229 13.7354 24.8479 13.7354 24.3565V10.749H13.6652C13.7354 10.749 13.7354 10.7489 13.7354 10.7488L13.7354 10.7486L13.7353 10.7482L13.7353 10.7471C13.7353 10.7463 13.7353 10.7452 13.7353 10.7438C13.7352 10.7412 13.735 10.7375 13.7347 10.733C13.7341 10.7238 13.733 10.7109 13.7308 10.6942C13.7264 10.6607 13.7179 10.6121 13.7013 10.5483C13.6681 10.4209 13.6026 10.2331 13.4733 9.98538C13.2148 9.49002 12.7014 8.75428 11.681 7.7792L11.65 7.81162ZM11.6211 7.91623C9.68034 8.87345 9.67571 10.7509 9.6757 11.7175C9.69306 11.9498 9.70156 13.2763 9.70477 15.1302C9.708 16.9943 9.70585 19.3968 9.70154 21.7716C9.69723 24.1465 9.69077 26.4937 9.68539 28.2472C9.6827 29.124 9.68027 29.8523 9.67852 30.3615C9.67825 30.4428 9.67798 30.5186 9.67774 30.5885C9.68968 30.5538 9.70257 30.518 9.71647 30.4812C9.86256 30.0945 10.1216 29.599 10.5733 29.1673C10.5734 29.1673 10.5734 29.1672 10.5734 29.1672" fill="black"/>
<path fill-rule="evenodd" clip-rule="evenodd" d="M12.6551 10.6514L11.6382 11.6231L10.6219 10.6519L9.55704 11.6694L9.65399 11.7709L10.6219 10.846L11.6382 11.8172L12.654 10.8465C12.6809 10.8727 12.7176 10.9085 12.7612 10.951C12.8547 11.042 12.9797 11.1635 13.1054 11.285C13.231 11.4064 13.3576 11.5281 13.4542 11.6194C13.5025 11.665 13.5436 11.7034 13.5736 11.7304C13.5885 11.7439 13.6011 11.7551 13.6108 11.7631C13.6155 11.767 13.6204 11.771 13.625 11.7743C13.6271 11.7758 13.6305 11.7782 13.6346 11.7805C13.6366 11.7816 13.64 11.7835 13.6444 11.7852C13.6474 11.7864 13.6575 11.7903 13.6709 11.7903V11.65C13.684 11.65 13.6936 11.6538 13.696 11.6547C13.6998 11.6562 13.7025 11.6577 13.7037 11.6584C13.7061 11.6597 13.7074 11.6607 13.707 11.6604C13.7064 11.66 13.7045 11.6585 13.7006 11.6553C13.6932 11.6491 13.6822 11.6395 13.6677 11.6264C13.6389 11.6003 13.5987 11.5628 13.5506 11.5174C13.4545 11.4266 13.3284 11.3054 13.2029 11.1841C13.0774 11.0628 12.9525 10.9414 12.8591 10.8504C12.8124 10.8049 12.7735 10.767 12.7463 10.7405L12.7037 10.6988C12.7036 10.6988 12.7036 10.6988 12.6546 10.7489L12.7037 10.6988L12.6551 10.6514Z" fill="black"/>
<path fill-rule="evenodd" clip-rule="evenodd" d="M12.6551 13.7574L11.6382 12.7857L10.6219 13.7569L9.55704 12.7394L9.65399 12.638L10.6219 13.5628L11.6382 12.5916L12.654 13.5623C12.6809 13.5361 12.7176 13.5003 12.7612 13.4579C12.8547 13.3668 12.9797 13.2453 13.1054 13.1238C13.231 13.0024 13.3576 12.8808 13.4542 12.7894C13.5025 12.7438 13.5436 12.7055 13.5736 12.6784C13.5885 12.6649 13.6011 12.6537 13.6108 12.6457C13.6155 12.6418 13.6204 12.6378 13.625 12.6345C13.6271 12.633 13.6305 12.6306 13.6346 12.6283C13.6366 12.6272 13.64 12.6254 13.6444 12.6236C13.6474 12.6224 13.6575 12.6185 13.6709 12.6185V12.7588C13.684 12.7588 13.6936 12.7551 13.696 12.7541C13.6998 12.7526 13.7025 12.7511 13.7037 12.7505C13.7061 12.7491 13.7074 12.7481 13.707 12.7484C13.7064 12.7488 13.7045 12.7503 13.7006 12.7535C13.6932 12.7597 13.6822 12.7693 13.6677 12.7824C13.6389 12.8085 13.5987 12.846 13.5506 12.8914C13.4545 12.9822 13.3284 13.1034 13.2029 13.2247C13.0774 13.346 12.9525 13.4674 12.8591 13.5584C12.8124 13.6039 12.7735 13.6418 12.7463 13.6683L12.7037 13.71C12.7036 13.71 12.7036 13.71 12.6546 13.6599L12.7037 13.71L12.6551 13.7574Z" fill="black"/>
<path fill-rule="evenodd" clip-rule="evenodd" d="M12.6551 14.5347L11.6382 15.5064L10.6219 14.5352L9.55704 15.5527L9.65399 15.6542L10.6219 14.7293L11.6382 15.7005L12.654 14.7298C12.6809 14.756 12.7176 14.7918 12.7612 14.8343C12.8547 14.9253 12.9797 15.0468 13.1054 15.1683C13.231 15.2897 13.3576 15.4114 13.4542 15.5027C13.5025 15.5483 13.5436 15.5867 13.5736 15.6137C13.5885 15.6272 13.6011 15.6384 13.6108 15.6464C13.6155 15.6503 13.6204 15.6543 13.625 15.6576C13.6271 15.6591 13.6305 15.6615 13.6346 15.6638C13.6366 15.6649 13.64 15.6668 13.6444 15.6685C13.6474 15.6697 13.6575 15.6736 13.6709 15.6736V15.5333C13.684 15.5333 13.6936 15.5371 13.696 15.538C13.6998 15.5395 13.7025 15.541 13.7037 15.5417C13.7061 15.543 13.7074 15.544 13.707 15.5437C13.7064 15.5433 13.7045 15.5418 13.7006 15.5386C13.6932 15.5324 13.6822 15.5228 13.6677 15.5097C13.6389 15.4836 13.5987 15.4461 13.5506 15.4007C13.4545 15.3099 13.3284 15.1887 13.2029 15.0674C13.0774 14.9461 12.9525 14.8247 12.8591 14.7337C12.8124 14.6882 12.7735 14.6503 12.7463 14.6238L12.7037 14.5821C12.7036 14.5821 12.7036 14.5821 12.6546 14.6322L12.7037 14.5821L12.6551 14.5347Z" fill="black"/>
<path fill-rule="evenodd" clip-rule="evenodd" d="M12.751 27.2762L12.7395 10.7463L12.5462 10.7465L12.5577 27.2764L12.751 27.2762Z" fill="black"/>
<path fill-rule="evenodd" clip-rule="evenodd" d="M11.7461 28.2077L11.7346 11.718L11.5515 11.7181L11.563 28.2078L11.7461 28.2077Z" fill="black"/>
<path fill-rule="evenodd" clip-rule="evenodd" d="M10.7344 29.2229L10.7229 10.7507L10.5291 10.7509L10.5406 29.223L10.7344 29.2229Z" fill="black"/>
<path fill-rule="evenodd" clip-rule="evenodd" d="M27.9195 7.82996C29.9522 8.80114 29.9522 10.749 29.9522 11.7202C29.8833 12.6036 29.9522 31.1603 29.9522 31.1603C29.9522 31.1603 29.8202 30.0629 28.9359 29.218L27.9253 28.2468L26.9089 27.2756C26.1625 26.6281 25.8926 25.3277 25.8926 24.3565V10.749C25.8926 10.749 25.8926 9.77232 27.9253 7.82996H27.9195Z" fill="#A77B3B"/>
<path fill-rule="evenodd" clip-rule="evenodd" d="M27.9076 7.81162L27.9194 7.75977H28.1001L28.0442 7.81321C30.0223 8.81807 30.0222 10.7608 30.0222 11.7161V11.7229L30.022 11.7256C30.0051 11.943 29.9964 13.2641 29.9932 15.1305C29.9899 16.9943 29.9921 19.3966 29.9964 21.7714C30.0007 24.1461 30.0072 26.4933 30.0126 28.2468C30.0152 29.1235 30.0177 29.8518 30.0194 30.361C30.0203 30.6155 30.021 30.8153 30.0215 30.9514L30.0222 31.1598C30.0222 31.16 30.0222 31.16 29.9521 31.1603L30.0222 31.16L29.8829 31.1687C29.8824 31.1687 29.8824 31.1687 29.8824 31.1687L29.8824 31.1683L29.8821 31.1663C29.8819 31.1644 29.8815 31.1616 29.8809 31.1577C29.8798 31.15 29.8781 31.1384 29.8755 31.1232C29.8704 31.0927 29.862 31.0478 29.8492 30.9911C29.8236 30.8776 29.7803 30.7173 29.7099 30.5308C29.5689 30.1576 29.3197 29.6819 28.8873 29.2687L28.8871 29.2685L27.8767 28.2975L27.8765 28.2973L26.8615 27.3274C26.4752 26.9918 26.2162 26.4915 26.0536 25.9579C25.8905 25.4229 25.8223 24.8479 25.8223 24.3565V10.749H25.8924C25.8223 10.749 25.8223 10.7489 25.8223 10.7488L25.8223 10.7486L25.8223 10.7482L25.8223 10.7471C25.8223 10.7463 25.8223 10.7452 25.8224 10.7438C25.8225 10.7412 25.8226 10.7375 25.8229 10.733C25.8235 10.7238 25.8246 10.7109 25.8268 10.6942C25.8312 10.6607 25.8397 10.6121 25.8563 10.5483C25.8895 10.4209 25.955 10.2331 26.0843 9.98538C26.3428 9.49002 26.8562 8.75428 27.8767 7.7792L27.9076 7.81162ZM27.9365 7.91623C29.8773 8.87345 29.8819 10.7509 29.8819 11.7175C29.8646 11.9498 29.8561 13.2763 29.8528 15.1302C29.8496 16.9943 29.8518 19.3968 29.8561 21.7716C29.8604 24.1465 29.8668 26.4937 29.8722 28.2472C29.8749 29.124 29.8773 29.8523 29.8791 30.3615C29.8794 30.4428 29.8796 30.5186 29.8799 30.5885C29.8679 30.5538 29.8551 30.518 29.8411 30.4812C29.6951 30.0945 29.436 29.599 28.9843 29.1673C28.9843 29.1673 28.9842 29.1672 28.9842 29.1672" fill="black"/>
<path fill-rule="evenodd" clip-rule="evenodd" d="M26.9025 10.6514L27.9194 11.6231L28.9358 10.6519L30.0006 11.6694L29.9036 11.7709L28.9358 10.846L27.9194 11.8172L26.9036 10.8465C26.8768 10.8727 26.84 10.9085 26.7964 10.951C26.7029 11.042 26.578 11.1635 26.4523 11.285C26.3266 11.4064 26.2 11.5281 26.1034 11.6194C26.0551 11.665 26.014 11.7034 25.984 11.7304C25.9692 11.7439 25.9565 11.7551 25.9468 11.7631C25.9421 11.767 25.9372 11.771 25.9326 11.7743C25.9305 11.7758 25.9271 11.7782 25.923 11.7805C25.921 11.7816 25.9176 11.7835 25.9133 11.7852C25.9102 11.7864 25.9002 11.7903 25.8867 11.7903V11.65C25.8736 11.65 25.864 11.6538 25.8616 11.6547C25.8578 11.6562 25.8551 11.6577 25.8539 11.6584C25.8516 11.6597 25.8503 11.6607 25.8507 11.6604C25.8512 11.66 25.8531 11.6585 25.857 11.6553C25.8644 11.6491 25.8754 11.6395 25.8899 11.6264C25.9187 11.6003 25.9589 11.5628 26.007 11.5174C26.1031 11.4266 26.2292 11.3054 26.3547 11.1841C26.4803 11.0628 26.6051 10.9414 26.6985 10.8504C26.7453 10.8049 26.7841 10.767 26.8113 10.7405L26.854 10.6988C26.854 10.6988 26.854 10.6988 26.9031 10.7489L26.854 10.6988L26.9025 10.6514Z" fill="black"/>
<path fill-rule="evenodd" clip-rule="evenodd" d="M26.9025 13.7574L27.9194 12.7857L28.9358 13.7569L30.0006 12.7394L29.9036 12.638L28.9358 13.5628L27.9194 12.5916L26.9036 13.5623C26.8768 13.5361 26.84 13.5003 26.7964 13.4579C26.7029 13.3668 26.578 13.2453 26.4523 13.1238C26.3266 13.0024 26.2 12.8808 26.1034 12.7894C26.0551 12.7438 26.014 12.7055 25.984 12.6784C25.9692 12.6649 25.9565 12.6537 25.9468 12.6457C25.9421 12.6418 25.9372 12.6378 25.9326 12.6345C25.9305 12.633 25.9271 12.6306 25.923 12.6283C25.921 12.6272 25.9176 12.6254 25.9133 12.6236C25.9102 12.6224 25.9002 12.6185 25.8867 12.6185V12.7588C25.8736 12.7588 25.864 12.7551 25.8616 12.7541C25.8578 12.7526 25.8551 12.7511 25.8539 12.7505C25.8516 12.7491 25.8503 12.7481 25.8507 12.7484C25.8512 12.7488 25.8531 12.7503 25.857 12.7535C25.8644 12.7597 25.8754 12.7693 25.8899 12.7824C25.9187 12.8085 25.9589 12.846 26.007 12.8914C26.1031 12.9822 26.2292 13.1034 26.3547 13.2247C26.4803 13.346 26.6051 13.4674 26.6985 13.5584C26.7453 13.6039 26.7841 13.6418 26.8113 13.6683L26.854 13.71C26.854 13.71 26.854 13.71 26.9031 13.6599L26.854 13.71L26.9025 13.7574Z" fill="black"/>
<path fill-rule="evenodd" clip-rule="evenodd" d="M26.9025 14.5347L27.9194 15.5064L28.9358 14.5352L30.0006 15.5527L29.9036 15.6542L28.9358 14.7293L27.9194 15.7005L26.9036 14.7298C26.8768 14.756 26.84 14.7918 26.7964 14.8343C26.7029 14.9253 26.578 15.0468 26.4523 15.1683C26.3266 15.2897 26.2 15.4114 26.1034 15.5027C26.0551 15.5483 26.014 15.5867 25.984 15.6137C25.9692 15.6272 25.9565 15.6384 25.9468 15.6464C25.9421 15.6503 25.9372 15.6543 25.9326 15.6576C25.9305 15.6591 25.9271 15.6615 25.923 15.6638C25.921 15.6649 25.9176 15.6668 25.9133 15.6685C25.9102 15.6697 25.9002 15.6736 25.8867 15.6736V15.5333C25.8736 15.5333 25.864 15.5371 25.8616 15.538C25.8578 15.5395 25.8551 15.541 25.8539 15.5417C25.8516 15.543 25.8503 15.544 25.8507 15.5437C25.8512 15.5433 25.8531 15.5418 25.857 15.5386C25.8644 15.5324 25.8754 15.5228 25.8899 15.5097C25.9187 15.4836 25.9589 15.4461 26.007 15.4007C26.1031 15.3099 26.2292 15.1887 26.3547 15.0674C26.4803 14.9461 26.6051 14.8247 26.6985 14.7337C26.7453 14.6882 26.7841 14.6503 26.8113 14.6238L26.854 14.5821C26.854 14.5821 26.854 14.5821 26.9031 14.6322L26.854 14.5821L26.9025 14.5347Z" fill="black"/>
<path fill-rule="evenodd" clip-rule="evenodd" d="M26.8066 27.2762L26.8181 10.7463L27.0114 10.7465L26.9999 27.2764L26.8066 27.2762Z" fill="black"/>
<path fill-rule="evenodd" clip-rule="evenodd" d="M27.8193 28.2077L27.8308 11.718L28.0139 11.7181L28.0024 28.2078L27.8193 28.2077Z" fill="black"/>
<path fill-rule="evenodd" clip-rule="evenodd" d="M28.8311 29.2229L28.8425 10.7507L29.0363 10.7509L29.0249 29.223L28.8311 29.2229Z" fill="black"/>
<path fill-rule="evenodd" clip-rule="evenodd" d="M17.1058 25.2389C16.5669 26.4747 15.6186 27.28 14.9984 27.0331C14.3783 26.7862 14.3089 25.5757 14.8478 24.3399C15.3867 23.1041 16.3403 22.3009 16.9605 22.5478C17.5806 22.7947 17.6522 24.0001 17.1111 25.241L17.1058 25.2389Z" fill="#A77B3B"/>
<path fill-rule="evenodd" clip-rule="evenodd" d="M15.9195 22.9403C15.5462 23.2562 15.179 23.7564 14.9131 24.3663C14.647 24.9764 14.5326 25.5772 14.5594 26.0524C14.5865 26.5326 14.7548 26.8611 15.0265 26.9692C15.2982 27.0774 15.6608 26.9604 16.0367 26.6406C16.4087 26.3241 16.7746 25.8234 17.0406 25.2134L17.0687 25.149L17.0735 25.151C17.3209 24.5608 17.4265 23.9854 17.4004 23.5275C17.3731 23.0481 17.2043 22.7208 16.9325 22.6126C16.6606 22.5043 16.2967 22.621 15.9195 22.9403ZM17.1425 25.3294L17.1483 25.3317L17.1763 25.2674C17.4503 24.6391 17.5707 24.0168 17.5421 23.5167C17.5139 23.0214 17.3369 22.6226 16.9886 22.4839C16.6402 22.3452 16.2173 22.5067 15.8279 22.8363C15.4347 23.1692 15.0555 23.6885 14.7826 24.3144C14.5098 24.9402 14.3894 25.5625 14.4177 26.0632C14.4456 26.5589 14.622 26.9592 14.9704 27.0979C15.3189 27.2366 15.7405 27.0744 16.1285 26.7443C16.507 26.4224 16.8722 25.9266 17.1425 25.3294Z" fill="black"/>
<path fill-rule="evenodd" clip-rule="evenodd" d="M13.6748 14.6333H25.8831V20.4666H13.6748V14.6333Z" fill="#FF0000"/>
<path fill-rule="evenodd" clip-rule="evenodd" d="M13.6743 20.4668H25.8827V23.3835C25.8827 25.3251 22.8327 25.3251 19.7827 27.2668C16.7243 25.3335 13.666 25.3335 13.666 23.3835V20.4668H13.6743Z" fill="#564DFF"/>
<path fill-rule="evenodd" clip-rule="evenodd" d="M13.6211 14.5771H25.941V23.3904C25.941 23.8937 25.7423 24.2724 25.3985 24.5853C25.0574 24.8957 24.5731 25.1417 24.0005 25.3851C23.7289 25.5005 23.4368 25.6157 23.1291 25.737C22.1337 26.1294 20.9739 26.5866 19.8112 27.328L19.781 27.3472L19.7508 27.3279C18.5907 26.5868 17.4317 26.1296 16.4363 25.737C16.1282 25.6154 15.8357 25.5001 15.5638 25.3844C14.9908 25.1407 14.5059 24.8942 14.1644 24.5829C13.8201 24.2693 13.6211 23.8896 13.6211 23.3849V14.5771ZM13.7334 14.6894V23.3849C13.7334 23.8542 13.9161 24.2049 14.24 24.5C14.5665 24.7974 15.0359 25.0379 15.6077 25.2811C15.8754 25.395 16.1649 25.5092 16.4711 25.6299C17.4592 26.0196 18.6208 26.4777 19.7811 27.2141C20.9438 26.4776 22.1061 26.0194 23.0942 25.6299C23.4001 25.5094 23.6892 25.3954 23.9566 25.2818C24.528 25.0389 24.9969 24.799 25.323 24.5023C25.6463 24.208 25.8288 23.8583 25.8288 23.3904V14.6894H13.7334Z" fill="#FFFF00"/>
<path fill-rule="evenodd" clip-rule="evenodd" d="M17.5407 15.022C17.5407 15.022 15.5068 16.4519 15.5068 17.82C15.5068 19.188 17.6412 19.6466 17.6412 19.6466C17.6412 19.6466 16.9297 19.6466 16.9297 21.4707C16.9297 22.3854 19.0641 21.9293 19.0641 22.3854C19.0641 22.8414 19.036 23.9441 19.0641 24.6681C19.0641 25.1241 17.6412 24.6681 17.6412 25.1241C17.6412 25.3508 18.7104 26.4922 19.7796 26.4922C20.8488 26.4922 21.9139 25.3508 21.9139 25.1241C21.9139 24.6681 20.491 25.1241 20.491 24.6681V22.3854C20.491 21.9293 22.6254 22.3854 22.6254 21.4707C22.6254 19.6466 21.9139 19.6466 21.9139 19.6466C21.9139 19.6466 24.0523 19.1906 24.0523 17.82C24.0523 16.4493 22.0144 15.022 22.0144 15.022C22.0144 15.022 23.16 16.9079 23.16 17.82C23.16 18.276 22.6254 19.1906 21.2025 19.1906C21.2025 19.1906 20.8407 18.732 20.491 19.1906C20.491 19.1906 20.081 18.732 19.7796 19.1906C19.6751 19.3452 19.4902 18.732 19.0641 19.1906C18.8872 19.3117 18.7425 18.732 18.3526 19.1906C17.6412 19.1906 16.2183 18.732 16.2183 17.82C16.2183 16.9079 17.5407 15.022 17.5407 15.022Z" fill="#FFFF00"/>
<path fill-rule="evenodd" clip-rule="evenodd" d="M21.9802 15.0426L22.0377 14.9888L22.0146 15.0217L21.9802 15.0426ZM22.0665 19.6496C22.1196 19.6351 22.1854 19.6161 22.2605 19.592C22.4625 19.5274 22.7322 19.4267 23.0022 19.2825C23.5396 18.9957 24.0927 18.5287 24.0927 17.8197C24.0927 17.4673 23.9618 17.114 23.7688 16.784C23.5756 16.4537 23.3185 16.1442 23.0625 15.8788C22.8063 15.6132 22.5503 15.3909 22.3584 15.2349C22.2624 15.1569 22.1824 15.0955 22.1263 15.0535C22.0982 15.0325 22.0761 15.0164 22.061 15.0055C22.0535 15 22.0477 14.9959 22.0438 14.9931L22.0393 14.9899L22.0381 14.9891L22.0378 14.9889L22.0377 14.9888C22.0376 14.9888 22.0377 14.9888 22.0146 15.0217C21.9802 15.0426 21.9802 15.0426 21.9802 15.0426L21.9803 15.0427L21.981 15.0439L21.9834 15.0479C21.9856 15.0515 21.9888 15.0568 21.9929 15.0638C22.0013 15.0777 22.0135 15.0983 22.0291 15.1249C22.0603 15.1781 22.105 15.2551 22.1585 15.3504C22.2657 15.541 22.4085 15.8045 22.5512 16.0964C22.6941 16.3883 22.8365 16.7081 22.9432 17.0111C23.0502 17.315 23.1199 17.5987 23.1199 17.8197C23.1199 18.2484 22.6112 19.1422 21.2212 19.1501C21.2197 19.1483 21.218 19.1465 21.2162 19.1445C21.2049 19.1321 21.1885 19.115 21.1677 19.0961C21.1264 19.0585 21.0665 19.0124 20.9939 18.9814C20.9209 18.9502 20.8336 18.9337 20.7398 18.9579C20.6558 18.9797 20.5706 19.0331 20.488 19.1302C20.4771 19.1199 20.4637 19.1079 20.4481 19.0949C20.4032 19.0576 20.339 19.0119 20.2638 18.9812C20.1884 18.9503 20.0996 18.9336 20.0078 18.958C19.9154 18.9826 19.8258 19.0472 19.7463 19.168C19.7425 19.1736 19.74 19.1754 19.7393 19.1758C19.7393 19.1758 19.7392 19.1758 19.7392 19.1758C19.7357 19.1756 19.7263 19.1725 19.7077 19.1587C19.6933 19.1481 19.6777 19.1345 19.6593 19.1184C19.6551 19.1147 19.6507 19.1109 19.6461 19.107C19.6225 19.0865 19.5954 19.0637 19.5652 19.0431C19.5047 19.0019 19.4286 18.9677 19.3364 18.9787C19.2455 18.9895 19.147 19.0433 19.0382 19.1593C19.0258 19.1669 19.0155 19.1682 19.0051 19.1666C18.9921 19.1645 18.9762 19.1574 18.9559 19.1436C18.9364 19.1304 18.916 19.1134 18.8926 19.0939L18.89 19.0918C18.8662 19.0719 18.8396 19.0499 18.811 19.0305C18.7534 18.9915 18.6826 18.9598 18.5969 18.9743C18.5159 18.988 18.4299 19.0416 18.3345 19.15C17.9854 19.1462 17.4688 19.0332 17.0373 18.8113C16.5964 18.5846 16.2587 18.2523 16.2587 17.8197C16.2587 17.5997 16.3389 17.3168 16.4624 17.0129C16.5855 16.71 16.7499 16.3904 16.9147 16.0985C17.0795 15.8066 17.2443 15.5431 17.368 15.3525C17.4298 15.2573 17.4813 15.1803 17.5174 15.1271C17.5354 15.1005 17.5495 15.0799 17.5591 15.066C17.564 15.059 17.5676 15.0537 17.5701 15.0501L17.5729 15.0461L17.5738 15.0449C17.5738 15.0449 17.5738 15.0448 17.5409 15.0217C17.5178 14.9888 17.5177 14.9888 17.5177 14.9888L17.5176 14.9889L17.5173 14.9891L17.5162 14.9899L17.5117 14.9931C17.5078 14.9959 17.502 15.0001 17.4944 15.0056C17.4794 15.0165 17.4573 15.0326 17.4293 15.0537C17.3734 15.0957 17.2935 15.1572 17.1977 15.2353C17.0061 15.3915 16.7506 15.6141 16.495 15.8798C16.2394 16.1454 15.9829 16.4549 15.7901 16.7851C15.5974 17.115 15.4668 17.468 15.4668 17.8197C15.4668 18.5274 16.0188 18.9944 16.5552 19.2815C16.8248 19.4259 17.094 19.5268 17.2956 19.5916C17.3705 19.6158 17.4362 19.6349 17.4893 19.6495C17.4204 19.6834 17.3367 19.7436 17.2539 19.8497C17.0682 20.0878 16.8897 20.5543 16.8897 21.4705C16.8897 21.5933 16.9258 21.6949 16.9897 21.7782C17.0532 21.8608 17.1426 21.9234 17.2465 21.9716C17.4532 22.0677 17.7259 22.1111 17.9928 22.1398C18.0867 22.1499 18.1796 22.1581 18.2692 22.1661C18.4376 22.181 18.5942 22.195 18.7237 22.218C18.8227 22.2357 18.9006 22.2579 18.9528 22.2874C19.0038 22.3162 19.0241 22.3478 19.0241 22.3851C19.0241 22.5123 19.0218 22.6905 19.0193 22.8972C19.0127 23.4282 19.0038 24.1467 19.0241 24.6686C19.0239 24.7129 19.0072 24.7441 18.9776 24.7686C18.9459 24.7947 18.8976 24.8143 18.8335 24.828C18.7052 24.8554 18.5322 24.8556 18.3528 24.8556H18.3493C18.1741 24.8556 17.9929 24.8556 17.8553 24.885C17.7859 24.8998 17.7231 24.923 17.6769 24.961C17.629 25.0005 17.6012 25.0545 17.6012 25.1238C17.6012 25.1451 17.6072 25.1682 17.6162 25.1912C17.6253 25.2146 17.6384 25.2405 17.6548 25.2682C17.6876 25.3236 17.735 25.3886 17.7944 25.4592C17.9132 25.6003 18.0823 25.7662 18.2848 25.9246C18.6887 26.2405 19.232 26.5322 19.7798 26.5322C20.3275 26.5322 20.8698 26.2405 21.2727 25.9246C21.4747 25.7661 21.6433 25.6003 21.7618 25.4591C21.821 25.3886 21.8682 25.3236 21.9009 25.2682C21.9172 25.2405 21.9303 25.2146 21.9394 25.1911C21.9483 25.1681 21.9543 25.1451 21.9543 25.1238C21.9543 25.0545 21.9265 25.0005 21.8785 24.961C21.8324 24.923 21.7696 24.8998 21.7002 24.885C21.5626 24.8556 21.3814 24.8556 21.2061 24.8556H21.2027C21.0232 24.8556 20.8503 24.8554 20.7219 24.828C20.6579 24.8143 20.6096 24.7947 20.5779 24.7686C20.5481 24.744 20.5314 24.7125 20.5314 24.6678V22.3851C20.5314 22.3478 20.5517 22.3162 20.6027 22.2874C20.6549 22.2579 20.7328 22.2357 20.8318 22.218C20.9613 22.195 21.1179 22.181 21.2863 22.1661C21.3759 22.1581 21.4688 22.1499 21.5627 22.1398C21.8295 22.1111 22.1023 22.0677 22.309 21.9716C22.4129 21.9234 22.5022 21.8608 22.5657 21.7782C22.6297 21.6949 22.6658 21.5933 22.6658 21.4705C22.6658 20.5543 22.4873 20.0878 22.3015 19.8497C22.2189 19.7437 22.1353 19.6836 22.0665 19.6496ZM21.914 19.686L21.9057 19.607L21.906 19.607L21.9071 19.6068L21.9115 19.6058C21.9154 19.6049 21.9212 19.6036 21.9289 19.6018C21.9443 19.5982 21.967 19.5927 21.9959 19.5852C22.0537 19.5702 22.1365 19.5472 22.236 19.5154C22.4349 19.4517 22.6998 19.3527 22.9644 19.2116C23.4962 18.9277 24.0123 18.4813 24.0123 17.8197C24.0123 17.4868 23.8884 17.1477 23.6993 16.8246C23.5104 16.5017 23.258 16.1974 23.0046 15.9346C22.7513 15.672 22.4978 15.4519 22.3076 15.2974C22.2482 15.2491 22.1949 15.2072 22.1499 15.1725C22.173 15.2127 22.1995 15.2591 22.2287 15.3109C22.3363 15.5025 22.4799 15.7674 22.6235 16.061C22.7671 16.3545 22.911 16.6773 23.0191 16.9844C23.1269 17.2906 23.2004 17.5847 23.2004 17.8197C23.2004 18.3012 22.6444 19.2306 21.2027 19.2306H21.1832L21.1711 19.2153L21.171 19.2152L21.1704 19.2145C21.1699 19.2138 21.169 19.2127 21.1677 19.2112C21.1653 19.2083 21.1616 19.204 21.1566 19.1986C21.1468 19.1877 21.1322 19.1725 21.1136 19.1556C21.0762 19.1216 21.0238 19.0817 20.9623 19.0554C20.9011 19.0292 20.8323 19.0171 20.76 19.0358C20.6877 19.0545 20.6066 19.1054 20.5232 19.2148L20.4937 19.2535L20.4612 19.2172L20.4611 19.217L20.4604 19.2163C20.4598 19.2156 20.4587 19.2145 20.4573 19.213C20.4545 19.21 20.4503 19.2057 20.4447 19.2002C20.4336 19.1892 20.4173 19.1739 20.3967 19.1568C20.3554 19.1225 20.2982 19.0822 20.2333 19.0556C20.1685 19.0291 20.0982 19.0172 20.0284 19.0358C19.9592 19.0542 19.8846 19.1041 19.8134 19.2125L19.8131 19.2129C19.7944 19.2406 19.7677 19.2584 19.7338 19.2561C19.7055 19.2542 19.68 19.2383 19.6599 19.2234C19.6426 19.2107 19.6239 19.1944 19.6054 19.1782C19.6014 19.1747 19.5974 19.1712 19.5934 19.1678C19.5702 19.1476 19.5461 19.1274 19.52 19.1096C19.4679 19.0742 19.4114 19.0507 19.3459 19.0586C19.2799 19.0664 19.1966 19.107 19.0938 19.2177L19.0907 19.221L19.087 19.2236C19.0567 19.2443 19.0248 19.251 18.9927 19.2461C18.9625 19.2414 18.935 19.2267 18.9108 19.2103C18.8878 19.1947 18.8646 19.1753 18.8423 19.1568L18.8385 19.1535C18.8144 19.1334 18.7908 19.1139 18.7659 19.0971C18.7164 19.0636 18.6669 19.044 18.6103 19.0536C18.5525 19.0634 18.4781 19.1051 18.3835 19.2164L18.3714 19.2306H18.3528C17.9905 19.2306 17.4507 19.1143 17.0005 18.8828C16.552 18.6522 16.1782 18.2992 16.1782 17.8197C16.1782 17.5837 16.2634 17.2889 16.3878 16.9826C16.5127 16.6754 16.6789 16.3525 16.8447 16.0589C17.0105 15.7652 17.1762 15.5003 17.3005 15.3088C17.3266 15.2686 17.3508 15.2317 17.3728 15.1984C17.3356 15.2275 17.2939 15.2607 17.2485 15.2977C17.0587 15.4524 16.8057 15.6728 16.5529 15.9356C16.3 16.1985 16.0481 16.5029 15.8595 16.8257C15.6709 17.1487 15.5472 17.4874 15.5472 17.8197C15.5472 18.4801 16.0624 18.9264 16.5932 19.2106C16.8572 19.352 17.1216 19.4512 17.3202 19.5151C17.4194 19.547 17.5021 19.57 17.5598 19.5851C17.5887 19.5926 17.6113 19.5981 17.6267 19.6018C17.6343 19.6036 17.6402 19.6049 17.6441 19.6058L17.6485 19.6068L17.6495 19.607L17.6498 19.607L17.6414 19.686C17.6414 19.6866 17.6415 19.6866 17.6415 19.6866L17.641 19.6866C17.6402 19.6867 17.6388 19.6867 17.6368 19.6869C17.6328 19.6873 17.6264 19.688 17.6181 19.6895C17.6013 19.6926 17.5764 19.6989 17.546 19.7119C17.4856 19.7377 17.4021 19.7905 17.3174 19.8991C17.1474 20.117 16.9702 20.5626 16.9702 21.4705C16.9702 21.5763 17.0008 21.6605 17.0535 21.7292C17.1068 21.7984 17.1841 21.8539 17.2804 21.8987C17.4739 21.9886 17.7347 22.0311 18.0014 22.0598C18.0914 22.0694 18.1823 22.0775 18.271 22.0854C18.442 22.1007 18.605 22.1152 18.7378 22.1388C18.8389 22.1569 18.9279 22.181 18.9924 22.2174C19.0581 22.2545 19.1045 22.3084 19.1045 22.3851C19.1045 22.5139 19.1023 22.6936 19.0997 22.9013C19.0931 23.4322 19.0843 24.1466 19.1045 24.6663L19.1045 24.667V24.6678C19.1045 24.7371 19.0767 24.7912 19.0287 24.8307C18.9826 24.8687 18.9197 24.8918 18.8504 24.9067C18.7128 24.9361 18.5316 24.9361 18.3563 24.9361H18.3528C18.1734 24.9361 18.0004 24.9363 17.8721 24.9637C17.8081 24.9774 17.7598 24.997 17.7281 25.0231C17.6982 25.0477 17.6816 25.0791 17.6816 25.1238C17.6816 25.1309 17.6839 25.1433 17.6911 25.162C17.6982 25.1802 17.7091 25.202 17.724 25.2272C17.7539 25.2777 17.7984 25.339 17.8559 25.4074C17.9709 25.5439 18.136 25.706 18.3344 25.8612C18.7325 26.1726 19.2583 26.4517 19.7798 26.4517C20.3012 26.4517 20.826 26.1727 21.223 25.8613C21.421 25.706 21.5855 25.544 21.7002 25.4074C21.7575 25.339 21.8019 25.2777 21.8316 25.2273C21.8465 25.2021 21.8573 25.1802 21.8644 25.162C21.8716 25.1434 21.8739 25.1309 21.8739 25.1238C21.8739 25.0791 21.8572 25.0477 21.8274 25.0231C21.7957 24.997 21.7474 24.9774 21.6834 24.9637C21.5551 24.9363 21.3821 24.9361 21.2027 24.9361H21.1992C21.0239 24.9361 20.8427 24.9361 20.7051 24.9067C20.6358 24.8918 20.5729 24.8687 20.5268 24.8307C20.4788 24.7912 20.451 24.7371 20.451 24.6678V22.3851C20.451 22.3084 20.4974 22.2545 20.5631 22.2174C20.6276 22.181 20.7165 22.1569 20.8176 22.1388C20.9505 22.1152 21.1135 22.1007 21.2844 22.0854C21.3732 22.0775 21.4641 22.0694 21.5541 22.0598C21.8208 22.0311 22.0816 21.9886 22.2751 21.8987C22.3714 21.8539 22.4487 21.7984 22.5019 21.7292C22.5547 21.6605 22.5853 21.5763 22.5853 21.4705C22.5853 20.5626 22.4081 20.117 22.2381 19.8991C22.1534 19.7905 22.0699 19.7377 22.0095 19.7119C21.9791 19.6989 21.9542 19.6926 21.9374 19.6895C21.929 19.688 21.9227 19.6873 21.9187 19.6869C21.9178 19.6868 21.9171 19.6868 21.9164 19.6867C21.9156 19.6867 21.9149 19.6867 21.9145 19.6866L21.9141 19.6866L21.914 19.6866C21.914 19.6866 21.914 19.6866 21.914 19.686Z" fill="black"/>
<path fill-rule="evenodd" clip-rule="evenodd" d="M17.5831 23.1894C17.4384 23.2822 17.768 24.7688 17.8644 24.8332C18.0091 24.9234 18.8653 24.9234 19.006 24.8332C19.1064 24.7688 19.006 23.3724 18.8653 23.2822C18.7206 23.1894 17.6835 23.1276 17.579 23.1894H17.5831Z" fill="#FFFF00"/>
<path fill-rule="evenodd" clip-rule="evenodd" d="M18.782 23.2102C18.8246 23.2207 18.8624 23.233 18.8866 23.2485C18.9038 23.2595 18.9164 23.2772 18.9259 23.2944C18.9359 23.3125 18.9451 23.3346 18.9535 23.3593C18.9704 23.4088 18.9859 23.473 18.9998 23.5462C19.0278 23.6927 19.0506 23.8792 19.0657 24.0643C19.0809 24.2493 19.0885 24.4342 19.086 24.5773C19.0847 24.6486 19.0809 24.7108 19.0739 24.7578C19.0704 24.7812 19.066 24.8023 19.0601 24.8194C19.055 24.8342 19.0459 24.8553 19.0273 24.8672C19.0035 24.8825 18.969 24.8935 18.931 24.9022C18.8918 24.9111 18.8446 24.9184 18.7926 24.9241C18.6884 24.9356 18.5622 24.9412 18.4363 24.9412C18.3104 24.9412 18.1839 24.9356 18.0793 24.9241C18.027 24.9184 17.9795 24.9111 17.94 24.9022C17.9015 24.8936 17.8668 24.8825 17.8427 24.8675L17.8422 24.8672L17.8417 24.8668C17.833 24.8611 17.8265 24.8534 17.8219 24.847C17.8169 24.8403 17.8122 24.8325 17.8078 24.8242C17.7991 24.8077 17.79 24.7867 17.7807 24.7624C17.7621 24.7138 17.7415 24.6488 17.7203 24.5733C17.6777 24.4222 17.6318 24.2263 17.5934 24.0298C17.5551 23.8335 17.5241 23.6353 17.5119 23.4797C17.5058 23.4021 17.5042 23.3335 17.5092 23.2805C17.5109 23.2624 17.5134 23.2453 17.5171 23.2299H17.4316L17.5581 23.155C17.5703 23.1478 17.5856 23.1433 17.6001 23.1402C17.6155 23.1368 17.6336 23.1342 17.6538 23.132C17.6941 23.1278 17.7451 23.1255 17.8028 23.1248C17.9184 23.1233 18.0634 23.1282 18.2093 23.1379C18.3553 23.1476 18.5029 23.1622 18.6235 23.1803C18.6838 23.1893 18.7379 23.1993 18.782 23.2102ZM17.6083 23.221L17.605 23.2231C17.6047 23.2235 17.6021 23.2265 17.5989 23.2358C17.5949 23.2475 17.5915 23.2648 17.5893 23.288C17.5849 23.3343 17.5861 23.3975 17.5921 23.4734C17.604 23.6246 17.6343 23.8195 17.6724 24.0144C17.7104 24.2092 17.7559 24.4029 17.7977 24.5515C17.8187 24.6259 17.8385 24.6883 17.8559 24.7337C17.8646 24.7565 17.8723 24.7741 17.8789 24.7864C17.8822 24.7926 17.8848 24.7968 17.8867 24.7995C17.8871 24.8 17.8874 24.8003 17.8876 24.8006C17.9003 24.8078 17.9233 24.816 17.9577 24.8237C17.9932 24.8317 18.0375 24.8386 18.088 24.8441C18.189 24.8552 18.3125 24.8608 18.4363 24.8608C18.5601 24.8608 18.6833 24.8552 18.7838 24.8441C18.834 24.8386 18.878 24.8317 18.9131 24.8237C18.9463 24.8162 18.9684 24.8083 18.9807 24.8014C18.9814 24.8 18.9826 24.7975 18.984 24.7932C18.9876 24.7828 18.9912 24.7672 18.9943 24.746C19.0006 24.704 19.0043 24.6458 19.0055 24.5758C19.008 24.4362 19.0006 24.2542 18.9856 24.0708C18.9705 23.8875 18.9481 23.704 18.9208 23.5613C18.9072 23.4898 18.8925 23.4296 18.8773 23.3853C18.8698 23.363 18.8624 23.3458 18.8556 23.3335C18.8522 23.3274 18.8492 23.323 18.8468 23.32C18.8444 23.3171 18.8431 23.3162 18.8431 23.3162C18.8431 23.3162 18.8431 23.3162 18.8432 23.3162C18.8312 23.3086 18.8049 23.2987 18.7627 23.2883C18.722 23.2782 18.6705 23.2687 18.6116 23.2598C18.4938 23.2422 18.3485 23.2278 18.204 23.2182C18.0595 23.2086 17.9167 23.2038 17.8038 23.2052C17.7474 23.2059 17.6991 23.2082 17.6621 23.2121C17.6437 23.214 17.6287 23.2163 17.6173 23.2188C17.6138 23.2195 17.6108 23.2203 17.6083 23.221Z" fill="black"/>
<path fill-rule="evenodd" clip-rule="evenodd" d="M21.9833 23.1894C22.128 23.2822 21.7985 24.7688 21.702 24.8332C21.5573 24.9234 20.7011 24.9234 20.5604 24.8332C20.46 24.7688 20.5604 23.3724 20.7011 23.2822C20.8458 23.1894 21.8829 23.1276 21.9874 23.1894H21.9833Z" fill="#FFFF00"/>
<path fill-rule="evenodd" clip-rule="evenodd" d="M20.7844 23.2102C20.7418 23.2207 20.704 23.233 20.6798 23.2485C20.6626 23.2595 20.65 23.2772 20.6405 23.2944C20.6305 23.3125 20.6213 23.3346 20.6129 23.3593C20.596 23.4088 20.5805 23.473 20.5666 23.5462C20.5386 23.6927 20.5158 23.8792 20.5007 24.0643C20.4855 24.2493 20.4779 24.4342 20.4804 24.5773C20.4817 24.6486 20.4855 24.7108 20.4925 24.7578C20.496 24.7812 20.5004 24.8023 20.5063 24.8194C20.5114 24.8342 20.5205 24.8553 20.5392 24.8672C20.5629 24.8825 20.5974 24.8935 20.6354 24.9022C20.6746 24.9111 20.7218 24.9184 20.7738 24.9241C20.878 24.9356 21.0042 24.9412 21.1301 24.9412C21.256 24.9412 21.3825 24.9356 21.4872 24.9241C21.5394 24.9184 21.5869 24.9111 21.6264 24.9022C21.6649 24.8936 21.6996 24.8825 21.7237 24.8675L21.7242 24.8672L21.7247 24.8668C21.7334 24.8611 21.7399 24.8534 21.7445 24.847C21.7495 24.8403 21.7542 24.8325 21.7586 24.8242C21.7673 24.8077 21.7764 24.7867 21.7857 24.7624C21.8043 24.7138 21.8249 24.6488 21.8461 24.5733C21.8887 24.4222 21.9346 24.2263 21.973 24.0298C22.0113 23.8335 22.0423 23.6353 22.0545 23.4797C22.0606 23.4021 22.0622 23.3335 22.0572 23.2805C22.0555 23.2624 22.053 23.2453 22.0494 23.2299H22.1348L22.0083 23.155C21.9961 23.1478 21.9808 23.1433 21.9663 23.1402C21.951 23.1368 21.9328 23.1342 21.9126 23.132C21.8723 23.1278 21.8213 23.1255 21.7636 23.1248C21.6481 23.1233 21.503 23.1282 21.3571 23.1379C21.2111 23.1476 21.0635 23.1622 20.9429 23.1803C20.8826 23.1893 20.8285 23.1993 20.7844 23.2102ZM21.9581 23.221L21.9614 23.2231C21.9617 23.2235 21.9643 23.2265 21.9675 23.2358C21.9715 23.2475 21.975 23.2648 21.9771 23.288C21.9815 23.3343 21.9803 23.3975 21.9743 23.4734C21.9624 23.6246 21.9321 23.8195 21.894 24.0144C21.856 24.2092 21.8105 24.4029 21.7687 24.5515C21.7477 24.6259 21.7279 24.6883 21.7105 24.7337C21.7018 24.7565 21.6941 24.7741 21.6875 24.7864C21.6842 24.7926 21.6816 24.7968 21.6797 24.7995C21.6793 24.8 21.679 24.8003 21.6788 24.8006C21.6661 24.8078 21.6431 24.816 21.6087 24.8237C21.5732 24.8317 21.5289 24.8386 21.4784 24.8441C21.3774 24.8552 21.2539 24.8608 21.1301 24.8608C21.0063 24.8608 20.8831 24.8552 20.7826 24.8441C20.7324 24.8386 20.6884 24.8317 20.6533 24.8237C20.6201 24.8162 20.598 24.8083 20.5857 24.8014C20.585 24.8 20.5838 24.7975 20.5824 24.7932C20.5788 24.7828 20.5752 24.7672 20.5721 24.746C20.5659 24.704 20.5621 24.6458 20.5609 24.5758C20.5584 24.4362 20.5659 24.2542 20.5809 24.0708C20.5959 23.8875 20.6183 23.704 20.6456 23.5613C20.6593 23.4898 20.6739 23.4296 20.6891 23.3853C20.6966 23.363 20.704 23.3458 20.7108 23.3335C20.7142 23.3274 20.7172 23.323 20.7197 23.32C20.722 23.3171 20.7233 23.3162 20.7233 23.3162C20.7233 23.3162 20.7233 23.3162 20.7233 23.3162C20.7353 23.3086 20.7615 23.2987 20.8037 23.2883C20.8444 23.2782 20.8959 23.2687 20.9548 23.2598C21.0726 23.2422 21.2179 23.2278 21.3624 23.2182C21.5069 23.2086 21.6497 23.2038 21.7626 23.2052C21.8191 23.2059 21.8673 23.2082 21.9043 23.2121C21.9227 23.214 21.9377 23.2163 21.9491 23.2188C21.9526 23.2195 21.9556 23.2203 21.9581 23.221Z" fill="black"/>
<path fill-rule="evenodd" clip-rule="evenodd" d="M19.0468 22.6472C19.0468 22.7835 18.9689 22.9142 18.8303 23.0106C18.6916 23.1069 18.5036 23.1611 18.3076 23.1611C18.1115 23.1611 17.9235 23.1069 17.7849 23.0106C17.6462 22.9142 17.5684 22.7835 17.5684 22.6472C17.5684 22.5109 17.6462 22.3802 17.7849 22.2838C17.9235 22.1874 18.1115 22.1333 18.3076 22.1333C18.5036 22.1333 18.6916 22.1874 18.8303 22.2838C18.9689 22.3802 19.0468 22.5109 19.0468 22.6472Z" fill="#FFFF00"/>
<path fill-rule="evenodd" clip-rule="evenodd" d="M18.3069 22.1818C18.119 22.1818 17.941 22.2338 17.8117 22.3237C17.6825 22.4135 17.6158 22.5308 17.6158 22.6475C17.6158 22.7642 17.6825 22.8815 17.8117 22.9713C17.941 23.0612 18.119 23.1132 18.3069 23.1132C18.4947 23.1132 18.6728 23.0612 18.8021 22.9713C18.9313 22.8815 18.9979 22.7642 18.9979 22.6475C18.9979 22.5308 18.9313 22.4135 18.8021 22.3237C18.6728 22.2338 18.4947 22.1818 18.3069 22.1818ZM17.7567 22.2446C17.9046 22.1417 18.1026 22.0854 18.3069 22.0854C18.5111 22.0854 18.7091 22.1417 18.8571 22.2446C19.0051 22.3475 19.0942 22.4916 19.0942 22.6475C19.0942 22.8034 19.0051 22.9475 18.8571 23.0504C18.7091 23.1533 18.5111 23.2095 18.3069 23.2095C18.1026 23.2095 17.9046 23.1533 17.7567 23.0504C17.6086 22.9475 17.5195 22.8034 17.5195 22.6475C17.5195 22.4916 17.6086 22.3475 17.7567 22.2446Z" fill="black"/>
<path fill-rule="evenodd" clip-rule="evenodd" d="M21.9882 22.6477C21.9882 22.784 21.9103 22.9147 21.7717 23.0111C21.6331 23.1075 21.445 23.1616 21.249 23.1616C21.0529 23.1616 20.8649 23.1075 20.7263 23.0111C20.5876 22.9147 20.5098 22.784 20.5098 22.6477C20.5098 22.5114 20.5876 22.3807 20.7263 22.2843C20.8649 22.1879 21.0529 22.1338 21.249 22.1338C21.445 22.1338 21.6331 22.1879 21.7717 22.2843C21.9103 22.3807 21.9882 22.5114 21.9882 22.6477Z" fill="#FFFF00"/>
<path fill-rule="evenodd" clip-rule="evenodd" d="M21.2483 22.1818C21.0604 22.1818 20.8824 22.2338 20.7531 22.3237C20.6239 22.4135 20.5572 22.5308 20.5572 22.6475C20.5572 22.7642 20.6239 22.8816 20.7531 22.9714C20.8824 23.0613 21.0604 23.1133 21.2483 23.1133C21.4362 23.1133 21.6142 23.0613 21.7435 22.9714C21.8727 22.8816 21.9394 22.7642 21.9394 22.6475C21.9394 22.5308 21.8727 22.4135 21.7435 22.3237C21.6142 22.2338 21.4362 22.1818 21.2483 22.1818ZM20.6981 22.2446C20.8461 22.1417 21.0441 22.0854 21.2483 22.0854C21.4526 22.0854 21.6506 22.1417 21.7985 22.2446C21.9466 22.3475 22.0357 22.4916 22.0357 22.6475C22.0357 22.8034 21.9466 22.9475 21.7985 23.0504C21.6506 23.1533 21.4526 23.2096 21.2483 23.2096C21.0441 23.2096 20.8461 23.1533 20.6981 23.0504C20.55 22.9475 20.4609 22.8034 20.4609 22.6475C20.4609 22.4916 20.55 22.3475 20.6981 22.2446Z" fill="black"/>
<path fill-rule="evenodd" clip-rule="evenodd" d="M21.0667 25.6249C21.0667 25.7499 20.9 25.8499 20.7083 25.8499C20.5083 25.8499 20.35 25.7499 20.35 25.6249C20.35 25.4999 20.5167 25.3999 20.7083 25.3999C20.9 25.3999 21.0667 25.4999 21.0667 25.6249ZM19.2083 25.6249C19.2083 25.7499 19.05 25.8499 18.8583 25.8499C18.6583 25.8499 18.5 25.7499 18.5 25.6249C18.5 25.4999 18.6583 25.3999 18.8583 25.3999C19.05 25.3999 19.2083 25.4999 19.2083 25.6249Z" fill="black"/>
<path fill-rule="evenodd" clip-rule="evenodd" d="M19.7826 18.3338L19.3456 17.7824L18.6285 17.8734L18.7294 17.1882L18.1523 16.776L18.7294 16.3585L18.6285 15.6733L19.3456 15.7696L19.7826 15.2183L20.2195 15.7696L20.931 15.6733L20.8357 16.3585L21.4072 16.776L20.8357 17.1936L20.931 17.8734L20.2139 17.7824L19.7826 18.3338Z" fill="#FFFF00"/>
<path fill-rule="evenodd" clip-rule="evenodd" d="M19.7824 15.1694L20.2323 15.7371L20.9661 15.6378L20.8679 16.3444L21.458 16.7757L20.8679 17.2069L20.9661 17.9079L20.2269 17.8141L19.7825 18.3821L19.3324 17.8141L18.5928 17.9079L18.6967 17.2017L18.1006 16.7758L18.6967 16.3444L18.5927 15.6378L19.3325 15.7372L19.7824 15.1694ZM19.7824 15.2664L19.3584 15.8014L18.664 15.7081L18.7617 16.3718L18.2038 16.7755L18.7617 17.174L18.6639 17.8382L19.3585 17.75L19.7822 18.2847L20.2006 17.75L20.8955 17.8382L20.8033 17.1795L21.3559 16.7757L20.8033 16.3718L20.8955 15.7081L20.2064 15.8014L19.7824 15.2664Z" fill="black"/>
<path fill-rule="evenodd" clip-rule="evenodd" d="M22.8301 20.4659L24.0531 21.053L25.2762 20.4659L24.0531 19.8843L22.8358 20.4659H22.8301Z" fill="#FFFF00"/>
<path fill-rule="evenodd" clip-rule="evenodd" d="M24.0538 19.8501L25.3485 20.4658L24.0538 21.0873L22.8174 20.4937L22.8278 20.4478L22.8232 20.4381L24.0538 19.8501ZM22.9051 20.4674L24.0538 21.0188L25.2053 20.466L24.0538 19.9185L22.9051 20.4674Z" fill="black"/>
<path fill-rule="evenodd" clip-rule="evenodd" d="M14.0801 20.4659L15.3031 21.053L16.5262 20.4659L15.3031 19.8843L14.0858 20.4659H14.0801Z" fill="#FFFF00"/>
<path fill-rule="evenodd" clip-rule="evenodd" d="M15.3038 19.8501L16.5985 20.4658L15.3038 21.0873L14.0674 20.4937L14.0778 20.4478L14.0732 20.4381L15.3038 19.8501ZM14.1551 20.4674L15.3038 21.0188L16.4553 20.466L15.3038 19.9185L14.1551 20.4674Z" fill="black"/>
<path fill-rule="evenodd" clip-rule="evenodd" d="M24.7186 23.9451C24.3441 23.7076 23.7134 23.826 23.3598 24.02C23.0063 24.214 22.6528 24.408 22.6052 25.1111C22.1991 24.4355 22.5189 23.8107 23.0567 23.5156C23.3419 23.3817 23.6685 23.3518 23.975 23.4318C24.2816 23.5118 24.547 23.696 24.7215 23.9498L24.7186 23.9451Z" fill="#FFFF00"/>
<path fill-rule="evenodd" clip-rule="evenodd" d="M22.5831 25.0081C22.6183 24.7079 22.7141 24.5054 22.8435 24.3553C22.9856 24.1906 23.1665 24.0913 23.342 23.995L23.3439 23.9939C23.5246 23.8948 23.7748 23.8155 24.0276 23.7909C24.2291 23.7713 24.4352 23.7863 24.6099 23.8563C24.444 23.6658 24.2201 23.5274 23.9674 23.4615C23.6686 23.3835 23.3501 23.4125 23.0718 23.543C22.8088 23.6875 22.6004 23.9119 22.5068 24.1812C22.4218 24.426 22.4309 24.7098 22.5831 25.0081ZM24.7401 23.9231C24.5613 23.6684 24.2924 23.4837 23.9827 23.4029C23.6687 23.321 23.3344 23.3516 23.0425 23.4887L23.0417 23.4891L23.0408 23.4895C22.7664 23.6401 22.5464 23.8755 22.4472 24.1609C22.3478 24.4471 22.3707 24.7813 22.5781 25.1264L22.6299 25.2125L22.6366 25.1141C22.66 24.7676 22.7585 24.5497 22.8921 24.3947C23.0265 24.2388 23.1983 24.1442 23.3758 24.0468C23.5486 23.952 23.7905 23.8751 24.0351 23.8513C24.2803 23.8275 24.5231 23.8575 24.7018 23.9707L24.7103 23.9579L24.7485 23.9353L24.7419 23.9242L24.7401 23.9231Z" fill="black"/>
<path fill-rule="evenodd" clip-rule="evenodd" d="M16.3174 22.7999C16.3174 22.9025 16.2748 23.0009 16.1989 23.0734C16.123 23.146 16.02 23.1867 15.9126 23.1867C15.8053 23.1867 15.7023 23.146 15.6264 23.0734C15.5505 23.0009 15.5078 22.9025 15.5078 22.7999C15.5078 22.6973 15.5505 22.5989 15.6264 22.5264C15.7023 22.4538 15.8053 22.4131 15.9126 22.4131C16.02 22.4131 16.123 22.4538 16.1989 22.5264C16.2748 22.5989 16.3174 22.6973 16.3174 22.7999Z" fill="#FFFF00"/>
<path fill-rule="evenodd" clip-rule="evenodd" d="M15.9123 22.4436C15.8126 22.4436 15.7174 22.4814 15.6473 22.5483C15.5773 22.6152 15.5383 22.7056 15.5383 22.7995C15.5383 22.8935 15.5773 22.9839 15.6473 23.0507C15.7174 23.1177 15.8126 23.1555 15.9123 23.1555C16.0119 23.1555 16.1071 23.1177 16.1772 23.0507C16.2472 22.9839 16.2862 22.8935 16.2862 22.7995C16.2862 22.7056 16.2472 22.6152 16.1772 22.5483C16.1071 22.4814 16.0119 22.4436 15.9123 22.4436ZM15.6047 22.5037C15.6865 22.4255 15.7971 22.3818 15.9123 22.3818C16.0274 22.3818 16.138 22.4255 16.2198 22.5037C16.3017 22.5819 16.3479 22.6883 16.3479 22.7995C16.3479 22.9108 16.3017 23.0172 16.2198 23.0954C16.138 23.1736 16.0274 23.2172 15.9123 23.2172C15.7971 23.2172 15.6865 23.1736 15.6047 23.0954C15.5228 23.0172 15.4766 22.9108 15.4766 22.7995C15.4766 22.6883 15.5228 22.5819 15.6047 22.5037Z" fill="black"/>
<path fill-rule="evenodd" clip-rule="evenodd" d="M15.9092 24.1578C15.9092 24.2604 15.8666 24.3588 15.7907 24.4314C15.7148 24.5039 15.6118 24.5446 15.5044 24.5446C15.3971 24.5446 15.2941 24.5039 15.2182 24.4314C15.1423 24.3588 15.0996 24.2604 15.0996 24.1578C15.0996 24.0552 15.1423 23.9568 15.2182 23.8843C15.2941 23.8118 15.3971 23.771 15.5044 23.771C15.6118 23.771 15.7148 23.8118 15.7907 23.8843C15.8666 23.9568 15.9092 24.0552 15.9092 24.1578Z" fill="#FFFF00"/>
<path fill-rule="evenodd" clip-rule="evenodd" d="M15.504 23.802C15.4044 23.802 15.3092 23.8398 15.2391 23.9067C15.1691 23.9736 15.1301 24.064 15.1301 24.1579C15.1301 24.2519 15.1691 24.3423 15.2391 24.4091C15.3092 24.4761 15.4044 24.5139 15.504 24.5139C15.6037 24.5139 15.6989 24.4761 15.769 24.4091C15.839 24.3423 15.878 24.2519 15.878 24.1579C15.878 24.064 15.839 23.9736 15.769 23.9067C15.6989 23.8398 15.6037 23.802 15.504 23.802ZM15.1965 23.8621C15.2783 23.7839 15.3889 23.7402 15.504 23.7402C15.6192 23.7402 15.7298 23.7839 15.8116 23.8621C15.8935 23.9403 15.9397 24.0467 15.9397 24.1579C15.9397 24.2692 15.8935 24.3756 15.8116 24.4538C15.7298 24.532 15.6192 24.5756 15.504 24.5756C15.3889 24.5756 15.2783 24.532 15.1965 24.4538C15.1146 24.3756 15.0684 24.2692 15.0684 24.1579C15.0684 24.0467 15.1146 23.9403 15.1965 23.8621Z" fill="black"/>
<path fill-rule="evenodd" clip-rule="evenodd" d="M15.709 23.3829C15.709 23.4855 15.6664 23.5839 15.5905 23.6564C15.5146 23.729 15.4116 23.7697 15.3042 23.7697C15.1969 23.7697 15.0939 23.729 15.018 23.6564C14.9421 23.5839 14.8994 23.4855 14.8994 23.3829C14.8994 23.2803 14.9421 23.1819 15.018 23.1094C15.0939 23.0368 15.1969 22.9961 15.3042 22.9961C15.4116 22.9961 15.5146 23.0368 15.5905 23.1094C15.6664 23.1819 15.709 23.2803 15.709 23.3829Z" fill="#FFFF00"/>
<path fill-rule="evenodd" clip-rule="evenodd" d="M15.3048 23.0271C15.2052 23.0271 15.1099 23.0649 15.0399 23.1318C14.9699 23.1987 14.9309 23.2891 14.9309 23.383C14.9309 23.477 14.9699 23.5674 15.0399 23.6342C15.1099 23.7012 15.2052 23.739 15.3048 23.739C15.4044 23.739 15.4997 23.7012 15.5697 23.6342C15.6397 23.5674 15.6788 23.477 15.6788 23.383C15.6788 23.2891 15.6397 23.1987 15.5697 23.1318C15.4997 23.0649 15.4044 23.0271 15.3048 23.0271ZM14.9973 23.0872C15.0791 23.009 15.1897 22.9653 15.3048 22.9653C15.4199 22.9653 15.5306 23.009 15.6124 23.0872C15.6943 23.1654 15.7405 23.2718 15.7405 23.383C15.7405 23.4943 15.6943 23.6007 15.6124 23.6789C15.5306 23.757 15.4199 23.8007 15.3048 23.8007C15.1897 23.8007 15.0791 23.757 14.9973 23.6789C14.9154 23.6007 14.8691 23.4943 14.8691 23.383C14.8691 23.2718 14.9154 23.1654 14.9973 23.0872Z" fill="black"/>
<path fill-rule="evenodd" clip-rule="evenodd" d="M16.7256 24.1578C16.7256 24.2604 16.683 24.3588 16.6071 24.4314C16.5312 24.5039 16.4282 24.5446 16.3208 24.5446C16.2135 24.5446 16.1105 24.5039 16.0346 24.4314C15.9587 24.3588 15.916 24.2604 15.916 24.1578C15.916 24.0552 15.9587 23.9568 16.0346 23.8843C16.1105 23.8118 16.2135 23.771 16.3208 23.771C16.4282 23.771 16.5312 23.8118 16.6071 23.8843C16.683 23.9568 16.7256 24.0552 16.7256 24.1578Z" fill="#FFFF00"/>
<path fill-rule="evenodd" clip-rule="evenodd" d="M16.3205 23.802C16.2208 23.802 16.1256 23.8398 16.0555 23.9067C15.9855 23.9736 15.9465 24.064 15.9465 24.1579C15.9465 24.2519 15.9855 24.3423 16.0555 24.4091C16.1256 24.4761 16.2208 24.5139 16.3205 24.5139C16.4201 24.5139 16.5153 24.4761 16.5854 24.4091C16.6554 24.3423 16.6944 24.2519 16.6944 24.1579C16.6944 24.064 16.6554 23.9736 16.5854 23.9067C16.5153 23.8398 16.4201 23.802 16.3205 23.802ZM16.0129 23.8621C16.0947 23.7839 16.2053 23.7402 16.3205 23.7402C16.4356 23.7402 16.5462 23.7839 16.628 23.8621C16.7099 23.9403 16.7561 24.0467 16.7561 24.1579C16.7561 24.2692 16.7099 24.3756 16.628 24.4538C16.5462 24.532 16.4356 24.5756 16.3205 24.5756C16.2053 24.5756 16.0947 24.532 16.0129 24.4538C15.931 24.3756 15.8848 24.2692 15.8848 24.1579C15.8848 24.0467 15.931 23.9403 16.0129 23.8621Z" fill="black"/>
<path fill-rule="evenodd" clip-rule="evenodd" d="M16.9258 23.3829C16.9258 23.4855 16.8832 23.5839 16.8073 23.6564C16.7314 23.729 16.6284 23.7697 16.521 23.7697C16.4137 23.7697 16.3107 23.729 16.2348 23.6564C16.1589 23.5839 16.1162 23.4855 16.1162 23.3829C16.1162 23.2803 16.1589 23.1819 16.2348 23.1094C16.3107 23.0368 16.4137 22.9961 16.521 22.9961C16.6284 22.9961 16.7314 23.0368 16.8073 23.1094C16.8832 23.1819 16.9258 23.2803 16.9258 23.3829Z" fill="#FFFF00"/>
<path fill-rule="evenodd" clip-rule="evenodd" d="M16.5216 23.0271C16.422 23.0271 16.3267 23.0649 16.2567 23.1318C16.1867 23.1987 16.1477 23.2891 16.1477 23.383C16.1477 23.477 16.1867 23.5674 16.2567 23.6342C16.3267 23.7012 16.422 23.739 16.5216 23.739C16.6212 23.739 16.7165 23.7012 16.7865 23.6342C16.8565 23.5674 16.8956 23.477 16.8956 23.383C16.8956 23.2891 16.8565 23.1987 16.7865 23.1318C16.7165 23.0649 16.6212 23.0271 16.5216 23.0271ZM16.214 23.0872C16.2959 23.009 16.4065 22.9653 16.5216 22.9653C16.6367 22.9653 16.7474 23.009 16.8292 23.0872C16.9111 23.1654 16.9573 23.2718 16.9573 23.383C16.9573 23.4943 16.9111 23.6007 16.8292 23.6789C16.7474 23.757 16.6367 23.8007 16.5216 23.8007C16.4065 23.8007 16.2959 23.757 16.214 23.6789C16.1322 23.6007 16.0859 23.4943 16.0859 23.383C16.0859 23.2718 16.1322 23.1654 16.214 23.0872Z" fill="black"/>
<path fill-rule="evenodd" clip-rule="evenodd" d="M16.3174 23.5748C16.3174 23.6774 16.2748 23.7758 16.1989 23.8483C16.123 23.9209 16.02 23.9616 15.9126 23.9616C15.8053 23.9616 15.7023 23.9209 15.6264 23.8483C15.5505 23.7758 15.5078 23.6774 15.5078 23.5748C15.5078 23.4722 15.5505 23.3738 15.6264 23.3013C15.7023 23.2287 15.8053 23.188 15.9126 23.188C16.02 23.188 16.123 23.2287 16.1989 23.3013C16.2748 23.3738 16.3174 23.4722 16.3174 23.5748Z" fill="#FFFF00"/>
<path fill-rule="evenodd" clip-rule="evenodd" d="M15.9123 23.219C15.8126 23.219 15.7174 23.2568 15.6473 23.3237C15.5773 23.3906 15.5383 23.481 15.5383 23.5749C15.5383 23.6689 15.5773 23.7593 15.6473 23.8261C15.7174 23.8931 15.8126 23.9309 15.9123 23.9309C16.0119 23.9309 16.1071 23.8931 16.1772 23.8261C16.2472 23.7593 16.2862 23.6689 16.2862 23.5749C16.2862 23.481 16.2472 23.3906 16.1772 23.3237C16.1071 23.2568 16.0119 23.219 15.9123 23.219ZM15.6047 23.2791C15.6865 23.2009 15.7971 23.1572 15.9123 23.1572C16.0274 23.1572 16.138 23.2009 16.2198 23.2791C16.3017 23.3573 16.3479 23.4637 16.3479 23.5749C16.3479 23.6862 16.3017 23.7926 16.2198 23.8708C16.138 23.9489 16.0274 23.9926 15.9123 23.9926C15.7971 23.9926 15.6865 23.9489 15.6047 23.8708C15.5228 23.7926 15.4766 23.6862 15.4766 23.5749C15.4766 23.4637 15.5228 23.3573 15.6047 23.2791Z" fill="black"/>
<path fill-rule="evenodd" clip-rule="evenodd" d="M17.8159 10.0333C16.7826 10.0333 16.6493 10.2 16.1826 10.3583C16.1826 9.9083 17.3326 9.3833 18.3493 9.3833C18.3493 9.7083 18.0826 10.0333 17.8159 10.0333Z" fill="#DA4500"/>
<path fill-rule="evenodd" clip-rule="evenodd" d="M19.3743 8.99994C19.3743 9.20828 19.191 9.38328 18.966 9.38328C18.741 9.38328 18.5576 9.20828 18.5576 8.99161C18.5576 8.77494 18.741 8.60828 18.966 8.60828C19.191 8.60828 19.3743 8.77494 19.3743 8.99161V8.99994Z" fill="#CAC9C7"/>
<path fill-rule="evenodd" clip-rule="evenodd" d="M15.1014 7.63766V8.21928H16.1178V11.1328H16.7322V8.21928H17.7485V7.63766H16.7322V6.85852H16.1121V7.63766H15.0957H15.1014Z" fill="#FFFF00"/>
<path fill-rule="evenodd" clip-rule="evenodd" d="M16.0809 6.82764H16.7628V7.60678H17.7792V8.25013H16.7628V11.1637H16.0867V8.25013H15.0703V7.63765H15.0954V7.60678H16.0809V6.82764ZM15.1321 7.66852H16.1427V6.88938H16.7011V7.66852H17.7174V8.18839H16.7011V11.1019H16.1484V8.18839H15.1321V7.66852Z" fill="black"/>
<path fill-rule="evenodd" clip-rule="evenodd" d="M18.3577 9.38332C17.5306 9.33607 16.702 9.44636 15.916 9.70833C15.916 9.10833 16.616 8.40833 17.816 8.40833C18.0827 8.40833 18.3577 9.05832 18.3577 9.38332Z" fill="#DA4500"/>
<path fill-rule="evenodd" clip-rule="evenodd" d="M7.77222 19.7073C7.47937 19.076 7.48617 18.8746 8.00713 19.5968L14.2825 31.4938L14.0904 31.5479L7.77546 19.7097L7.77222 19.7073Z" fill="#008500"/>
<path fill-rule="evenodd" clip-rule="evenodd" d="M7.78003 19.6997C7.70752 19.5433 7.65368 19.4137 7.62168 19.3185C7.60556 19.2706 7.59513 19.2319 7.59055 19.2029C7.58826 19.1885 7.58751 19.1769 7.58807 19.1682C7.58865 19.1592 7.59052 19.1544 7.59238 19.152C7.59385 19.1501 7.59603 19.1488 7.60051 19.1491C7.60542 19.1495 7.61255 19.1519 7.62229 19.1577C7.6417 19.1694 7.66833 19.1924 7.70281 19.2286C7.77149 19.3007 7.86906 19.4228 7.99898 19.6029L14.2672 31.4863L14.0951 31.5349L7.78299 19.702L7.78003 19.6997ZM7.71634 19.2125C7.78621 19.2859 7.88469 19.4093 8.01501 19.59L8.0155 19.5906L14.298 31.5011L14.086 31.5609L7.76815 19.7174L7.76463 19.7147L7.76339 19.712C7.69011 19.5541 7.6354 19.4226 7.60278 19.3256C7.58649 19.2772 7.57555 19.2369 7.57065 19.2059C7.5682 19.1905 7.56718 19.1769 7.56791 19.1656C7.56863 19.1544 7.57114 19.1442 7.57683 19.1369C7.58292 19.129 7.59147 19.1259 7.60101 19.1266C7.61011 19.1273 7.62028 19.1315 7.63123 19.138C7.6532 19.1511 7.6815 19.1759 7.71634 19.2125Z" fill="black"/>
<path fill-rule="evenodd" clip-rule="evenodd" d="M12.0336 27.5333C12.1002 26.6499 10.4836 25.6999 10.4169 25.7583C10.3586 25.8249 10.5169 26.3416 10.8252 26.5999C10.2419 26.2999 9.62525 26.1166 9.60858 26.2416C9.55858 26.4249 10.5252 26.8416 10.6086 27.0083C10.6086 27.1249 9.89191 27.1083 9.90858 27.2249C9.92525 27.3416 11.9336 28.3583 12.0336 27.5333ZM10.4169 24.9666C10.4836 24.0833 8.86691 23.1333 8.80858 23.1916C8.74191 23.2499 8.90025 23.7666 9.20858 24.0333C8.62525 23.7333 8.00858 23.5416 7.99191 23.6749C7.95025 23.8499 8.90858 24.2749 8.99191 24.4416C9.00025 24.5583 8.28358 24.5416 8.29191 24.6583C8.30858 24.7749 10.3169 25.7833 10.4169 24.9666ZM9.18358 22.6333C9.25025 21.7499 7.63358 20.7999 7.56691 20.8583C7.50858 20.9166 7.66691 21.4333 7.97525 21.6999C7.39191 21.3999 6.77525 21.2083 6.75858 21.3416C6.71691 21.5166 7.67525 21.9416 7.75858 22.1083C7.75858 22.2249 7.05025 22.2083 7.05858 22.3249C7.07525 22.4416 9.08358 23.4583 9.18358 22.6333ZM7.96691 20.0999C8.02525 19.2249 6.41691 18.2666 6.35025 18.3249C6.28358 18.3916 6.45025 18.9083 6.75025 19.1749C6.16691 18.8666 5.55025 18.6833 5.54191 18.8166C5.49191 18.9916 6.45858 19.4166 6.53358 19.5749C6.54191 19.6916 5.82525 19.6833 5.84191 19.7999C5.85025 19.9166 7.85858 20.9249 7.96691 20.0999Z" fill="#008F00"/>
<path fill-rule="evenodd" clip-rule="evenodd" d="M8.38398 19.9916C9.16731 19.5166 9.00898 17.7082 8.92564 17.6916C8.83398 17.6832 8.49231 18.1082 8.45064 18.5082C8.35897 17.8749 8.15064 17.2916 8.03397 17.3582C7.85897 17.4249 8.06731 18.4166 7.97564 18.5749C7.89231 18.6582 7.47564 18.0916 7.39231 18.1749C7.29231 18.2582 7.62564 20.3999 8.39231 19.9916H8.38398ZM9.51731 22.2082C10.4173 22.0082 10.909 20.2582 10.8256 20.2166C10.7423 20.1749 10.2756 20.4666 10.1006 20.8332C10.234 20.2082 10.2423 19.5916 10.1006 19.6166C9.90897 19.6249 9.76731 20.6249 9.62564 20.7416C9.51731 20.7916 9.31731 20.1332 9.20897 20.1749C9.09231 20.2249 8.65897 22.3499 9.51731 22.2082ZM10.8673 24.4749C11.6923 24.0749 11.7006 22.2582 11.6173 22.2416C11.534 22.2166 11.159 22.6166 11.0756 23.0082C11.0423 22.3666 10.8923 21.7749 10.7673 21.8332C10.584 21.8832 10.7006 22.8832 10.6006 23.0332C10.5006 23.1082 10.1423 22.5082 10.0423 22.5832C9.94231 22.6499 10.0756 24.8166 10.8756 24.4749H10.8673ZM12.334 27.4416C13.1923 27.1166 13.4006 25.3166 13.3173 25.2832C13.234 25.2582 12.8173 25.6166 12.6923 25.9999C12.7256 25.3582 12.6423 24.7499 12.509 24.7999C12.3173 24.8332 12.334 25.8416 12.2173 25.9832C12.109 26.0416 11.8173 25.4166 11.7173 25.4832C11.609 25.5332 11.509 27.7082 12.334 27.4416Z" fill="#008F00"/>
<path fill-rule="evenodd" clip-rule="evenodd" d="M14.2233 30.5337C14.0049 30.9074 13.3144 30.9412 12.6726 30.5988C12.0309 30.2565 11.6986 29.677 11.917 29.3033C12.1353 28.9297 12.8309 28.8985 13.4676 29.2382C14.1043 29.5779 14.4416 30.16 14.2233 30.5337Z" fill="#FF1900"/>
<path fill-rule="evenodd" clip-rule="evenodd" d="M12.5361 29.0338C12.2612 29.0456 12.0457 29.1442 11.9442 29.3181C11.8425 29.492 11.8666 29.7184 11.9997 29.9477C12.1324 30.1766 12.3714 30.4034 12.6882 30.5724C13.0049 30.7413 13.3324 30.8167 13.6059 30.8047C13.8801 30.7926 14.0943 30.6933 14.196 30.5194C14.2975 30.3455 14.2724 30.1186 14.1386 29.8887C14.0052 29.6595 13.7662 29.4327 13.452 29.2651C13.1377 29.0975 12.8103 29.0221 12.5361 29.0338ZM12.5346 28.9731C12.8219 28.9608 13.1606 29.0397 13.4831 29.2118C13.8056 29.3838 14.0536 29.6179 14.1935 29.8581C14.3329 30.0977 14.3672 30.3486 14.2505 30.5485C14.1337 30.7482 13.8936 30.8527 13.6075 30.8653C13.3207 30.878 12.982 30.7991 12.657 30.6257C12.332 30.4523 12.084 30.2182 11.9448 29.9783C11.8059 29.7389 11.773 29.4887 11.8897 29.289C12.0064 29.0891 12.248 28.9854 12.5346 28.9731Z" fill="black"/>
<path fill-rule="evenodd" clip-rule="evenodd" d="M30.7927 18.0172L30.9008 17.7383L31.1918 17.83L31.2998 17.5511L31.5908 17.6428L31.4843 17.9177L31.7836 18.0119L31.674 18.2947L31.3747 18.2005L31.1054 18.8956L30.8144 18.804L31.0837 18.1088L30.7927 18.0172ZM30.1677 20.4732L30.4587 20.5648L27.3317 28.6358L27.0407 28.5442L30.1677 20.4732Z" fill="#FFFF00"/>
<path fill-rule="evenodd" clip-rule="evenodd" d="M31.293 17.5379L31.6044 17.636L31.4979 17.9109L31.7972 18.0052L31.6799 18.3079L31.3806 18.2137L31.1113 18.9089L30.7998 18.8108L31.0691 18.1156L30.7884 18.0272L30.7922 18.0172L30.782 18.014L30.8939 17.7251L31.1849 17.8168L31.293 17.5379ZM30.8063 18.0104L31.0973 18.1021L30.828 18.7972L31.0986 18.8824L31.3679 18.1873L31.6672 18.2815L31.769 18.0187L31.4697 17.9245L31.5762 17.6495L31.3057 17.5643L31.1976 17.8432L30.9066 17.7516L30.8063 18.0104ZM30.1608 20.46L30.4723 20.5581L27.3375 28.6491L27.0261 28.551L30.1608 20.46ZM30.1735 20.4864L27.0542 28.5374L27.3248 28.6226L30.4441 20.5716L30.1735 20.4864Z" fill="black"/>
<path fill-rule="evenodd" clip-rule="evenodd" d="M26.9442 28.3596L27.5345 28.5455L26.6717 30.7724L26.0814 30.5865L26.9442 28.3596ZM30.4153 18.9912L31.3008 19.2701C31.8869 19.4547 30.5577 20.7547 30.5577 20.7547L29.9715 20.5701C29.9715 20.5701 29.825 18.8053 30.4153 18.9912ZM31.2291 19.0095C31.1835 19.1274 31.0181 19.181 30.856 19.13C30.6938 19.0789 30.5973 18.9428 30.6414 18.8289C30.6856 18.715 30.8525 18.6574 31.0146 18.7084C31.1767 18.7595 31.2733 18.8957 31.2276 19.0135L31.2291 19.0095Z" fill="#FFFF00"/>
<path fill-rule="evenodd" clip-rule="evenodd" d="M30.7864 18.7167C30.7212 18.7382 30.6717 18.7791 30.6512 18.8321C30.6307 18.885 30.6424 18.9441 30.68 18.9968C30.7175 19.0495 30.7802 19.0951 30.8593 19.12C30.9384 19.1449 31.0179 19.1441 31.0827 19.1232C31.1467 19.1025 31.1959 19.0624 31.2176 19.0083C31.2379 18.9539 31.2262 18.8946 31.1894 18.8421C31.1521 18.7889 31.0894 18.7434 31.0103 18.7185C30.9312 18.6936 30.8514 18.6953 30.7864 18.7167ZM31.2388 19.0128C31.2611 18.9511 31.2469 18.8857 31.2077 18.8298C31.1676 18.7726 31.101 18.7246 31.018 18.6985C30.9349 18.6723 30.8502 18.6739 30.7802 18.6969C30.7103 18.72 30.6543 18.7649 30.6307 18.8257C30.6071 18.8867 30.6215 18.9527 30.6617 19.0092C30.6801 19.035 30.7039 19.059 30.7322 19.08L30.4187 18.9813C30.3424 18.9572 30.2767 18.9645 30.2209 18.9968C30.1657 19.0289 30.1217 19.0847 30.0866 19.1554C30.0164 19.2966 29.9792 19.5014 29.9606 19.7106C29.942 19.9201 29.9419 20.1353 29.9464 20.2981C29.9487 20.3795 29.9521 20.4478 29.955 20.4958C29.9564 20.5197 29.9577 20.5387 29.9586 20.5516C29.9591 20.558 29.9594 20.563 29.9597 20.5663L29.96 20.5701L29.9601 20.5714C29.9601 20.5714 29.9601 20.5715 29.971 20.5701L29.9601 20.5715L29.9607 20.578L30.5598 20.7667L30.5648 20.7618L30.5572 20.7547C30.5648 20.7618 30.5648 20.7619 30.5648 20.7618L30.5658 20.7609L30.5686 20.7581C30.5711 20.7556 30.5748 20.7519 30.5796 20.7471C30.5893 20.7375 30.6033 20.7234 30.6209 20.7055C30.6562 20.6695 30.7059 20.6179 30.7637 20.5554C30.8793 20.4305 31.0275 20.2619 31.1573 20.0874C31.287 19.9132 31.3992 19.7321 31.442 19.5822C31.4634 19.5073 31.4677 19.4389 31.447 19.3829C31.426 19.3264 31.38 19.284 31.3042 19.2601L30.9855 19.1597C31.0219 19.1591 31.0568 19.1534 31.0887 19.1431C31.1571 19.1209 31.2122 19.0774 31.2373 19.0167L31.2388 19.0128ZM30.4109 19.0012C30.3396 18.9788 30.2808 18.986 30.2315 19.0146C30.1818 19.0435 30.1404 19.095 30.1062 19.1636C30.0379 19.301 30.001 19.5026 29.9824 19.7113C29.9639 19.9198 29.9637 20.1341 29.9683 20.2965C29.9705 20.3776 29.9739 20.4457 29.9768 20.4935C29.9782 20.5174 29.9795 20.5362 29.9804 20.5491C29.9808 20.5545 29.9811 20.5589 29.9814 20.5622L30.5545 20.7426C30.5569 20.7403 30.5602 20.737 30.5643 20.733C30.5738 20.7234 30.5878 20.7094 30.6054 20.6915C30.6405 20.6556 30.6901 20.6042 30.7477 20.5419C30.863 20.4173 31.0106 20.2494 31.1398 20.0758C31.2692 19.9019 31.3793 19.7235 31.4209 19.5776C31.4417 19.5048 31.4451 19.4413 31.4263 19.3908C31.4078 19.3409 31.3672 19.3024 31.2964 19.2801L30.4109 19.0012ZM26.9374 28.3464L27.5481 28.5388L26.6776 30.7856L26.0668 30.5933L26.9374 28.3464ZM27.5199 28.5523L26.95 28.3728L26.095 30.5798L26.6649 30.7592L27.5199 28.5523Z" fill="black"/>
<path fill-rule="evenodd" clip-rule="evenodd" d="M27.4181 29.5166C27.6654 29.8735 27.38 30.4753 26.7672 30.8631C26.1544 31.2509 25.4632 31.2672 25.2159 30.9103C24.9685 30.5535 25.2587 29.9487 25.8667 29.5639C26.4747 29.1791 27.1708 29.1598 27.4181 29.5166Z" fill="#FF1900"/>
<path fill-rule="evenodd" clip-rule="evenodd" d="M25.2499 30.2608C25.1347 30.4996 25.1276 30.7278 25.2427 30.8939C25.3579 31.0601 25.5795 31.1435 25.8538 31.1357C26.1274 31.128 26.4479 31.0292 26.7503 30.8378C27.0528 30.6464 27.2731 30.403 27.3873 30.1652C27.5018 29.927 27.5079 29.6994 27.3927 29.5332C27.2776 29.3671 27.0549 29.2844 26.7799 29.2925C26.5056 29.3006 26.185 29.3995 25.885 29.5894C25.585 29.7792 25.3647 30.0226 25.2499 30.2608ZM25.1927 30.2346C25.3131 29.9849 25.5419 29.7335 25.8499 29.5386C26.1579 29.3437 26.4894 29.2405 26.7769 29.232C27.0637 29.2235 27.3127 29.3095 27.4449 29.5002C27.577 29.6908 27.5641 29.9426 27.4445 30.1914C27.3247 30.4407 27.0959 30.6921 26.7855 30.8885C26.4752 31.085 26.1437 31.1882 25.8566 31.1963C25.5703 31.2044 25.3226 31.1176 25.1905 30.9269C25.0583 30.7362 25.0726 30.4836 25.1927 30.2346Z" fill="black"/>
</g>
<defs>
<clipPath id="clip0_8424_43296">
<rect width="40" height="40" rx="20" fill="white"/>
</clipPath>
</defs>
</svg>
