<svg width="56" height="56" viewBox="0 0 56 56" fill="none" xmlns="http://www.w3.org/2000/svg">
<g clip-path="url(#clip0_3318_24904)">
<path d="M28.0005 56C31.4254 56 34.7064 55.384 37.7395 54.2584L38.957 28L37.7397 1.74158C34.7064 0.616109 31.4254 0 28.0005 0C24.5755 0 21.2946 0.616109 18.2614 1.74158L17.0439 28L18.2613 54.2584C21.2946 55.384 24.5755 56 28.0005 56Z" fill="#0052B4"/>
<path d="M0 28.0001C0 40.0391 7.5985 50.3023 18.2609 54.2585V1.7417C7.5985 5.6979 0 15.9611 0 28.0001Z" fill="#A2001D"/>
<path d="M37.7393 1.7417V54.2586C48.4017 50.3023 56.0002 40.0391 56.0002 28.0001C56.0002 15.9611 48.4017 5.6979 37.7393 1.7417Z" fill="#A2001D"/>
<path d="M13.3916 28H15.8264V37.7391H13.3916V28Z" fill="#FFDA44"/>
<path d="M3.65234 28H6.08714V37.7391H3.65234V28Z" fill="#FFDA44"/>
<path d="M9.73948 34.0869C11.0842 34.0869 12.1743 32.9968 12.1743 31.6521C12.1743 30.3074 11.0842 29.2173 9.73948 29.2173C8.39478 29.2173 7.30469 30.3074 7.30469 31.6521C7.30469 32.9968 8.39478 34.0869 9.73948 34.0869Z" fill="#FFDA44"/>
<path d="M9.73883 24.3478C10.4111 24.3478 10.9562 23.8027 10.9562 23.1304C10.9562 22.4581 10.4111 21.9131 9.73883 21.9131C9.06651 21.9131 8.52148 22.4581 8.52148 23.1304C8.52148 23.8027 9.06651 24.3478 9.73883 24.3478Z" fill="#FFDA44"/>
<path d="M7.30469 35.3044H12.1743V37.7392H7.30469V35.3044Z" fill="#FFDA44"/>
<path d="M7.30469 25.5652H12.1743V28H7.30469V25.5652Z" fill="#FFDA44"/>
<path d="M9.73905 14.6086L10.6014 17.2621H13.3913L11.1344 18.902L11.996 21.5555L9.73905 19.9155L7.48221 21.5555L8.34387 18.902L6.08691 17.2621H8.87685L9.73905 14.6086Z" fill="#FFDA44"/>
</g>
<defs>
<clipPath id="clip0_3318_24904">
<rect width="56" height="56" fill="white"/>
</clipPath>
</defs>
</svg>
