<svg width="40" height="40" viewBox="0 0 40 40" fill="none" xmlns="http://www.w3.org/2000/svg">
<g clip-path="url(#clip0_8424_43228)">
<path d="M-7 0H46.3333V40H-7V0Z" fill="#DA2032"/>
<path d="M10.7754 0H28.5587V40H10.7754V0Z" fill="#0066B3"/>
<path d="M1.89193 18.4836C3.73288 18.4836 5.22526 16.9912 5.22526 15.1502C5.22526 13.3093 3.73288 11.8169 1.89193 11.8169C0.0509778 11.8169 -1.44141 13.3093 -1.44141 15.1502C-1.44141 16.9912 0.0509778 18.4836 1.89193 18.4836Z" fill="#FFD900"/>
<path d="M1.89115 17.2667C3.89778 17.2667 5.52448 15.64 5.52448 13.6333C5.52448 11.6267 3.89778 10 1.89115 10C-0.115489 10 -1.74219 11.6267 -1.74219 13.6333C-1.74219 15.64 -0.115489 17.2667 1.89115 17.2667Z" fill="#DA2032"/>
<path d="M1.8918 16.6669C3.23109 16.6669 4.3168 15.5812 4.3168 14.2419C4.3168 12.9026 3.23109 11.8169 1.8918 11.8169C0.552506 11.8169 -0.533203 12.9026 -0.533203 14.2419C-0.533203 15.5812 0.552506 16.6669 1.8918 16.6669Z" fill="#FFD900"/>
<path d="M2.14128 6.3667C2.01825 6.42053 1.91259 6.50746 1.83608 6.61782C1.75957 6.72817 1.7152 6.85761 1.70794 6.9917C1.69128 7.20003 1.78294 7.43337 1.79128 7.63337C1.79128 7.98337 1.43294 8.10003 1.43294 8.5917C1.43294 8.75837 1.59128 8.95003 1.59128 9.3917C1.55794 9.62503 1.42461 9.68337 1.28294 9.70003C1.24283 9.70005 1.20313 9.69202 1.16618 9.67643C1.12923 9.66083 1.09578 9.63799 1.06781 9.60924C1.03984 9.58049 1.01792 9.54643 1.00334 9.50907C0.988765 9.4717 0.981829 9.43179 0.982943 9.3917C0.982727 9.31409 1.0126 9.23942 1.06628 9.18337C1.07679 9.17427 1.08793 9.16592 1.09961 9.15837C1.16628 9.08337 1.26628 9.05837 1.26628 8.87503C1.26628 8.78337 1.19961 8.6917 1.14128 8.52503C1.08294 8.35837 1.12461 8.0917 1.25794 7.93337C1.04128 8.0167 0.916275 8.2167 0.841275 8.40003C0.774609 8.62503 0.841276 8.75003 0.741275 8.9417C0.682942 9.05837 0.616275 9.10837 0.549609 9.20837C0.466276 9.32503 0.382942 9.57503 0.382942 9.70003C0.411297 10.0818 0.582957 10.4387 0.863482 10.6991C1.14401 10.9596 1.51265 11.1044 1.89544 11.1044C2.27824 11.1044 2.64688 10.9596 2.9274 10.6991C3.20793 10.4387 3.37959 10.0818 3.40794 9.70003C3.40794 9.57503 3.31628 9.32503 3.24127 9.20837C3.16628 9.10837 3.09961 9.05837 3.04128 8.9417C2.94128 8.75003 3.00794 8.62503 2.93294 8.40003C2.86628 8.2167 2.74128 8.0167 2.52461 7.93337C2.65794 8.10003 2.69128 8.3667 2.64128 8.52503C2.58294 8.6917 2.52461 8.77503 2.52461 8.87503C2.52461 9.05837 2.61628 9.08337 2.69128 9.15837C2.70009 9.1662 2.70844 9.17455 2.71628 9.18337C2.76996 9.23942 2.79982 9.31409 2.79961 9.3917C2.80072 9.43179 2.79379 9.4717 2.77921 9.50907C2.76463 9.54643 2.74271 9.58049 2.71474 9.60924C2.68677 9.63799 2.65332 9.66083 2.61637 9.67643C2.57942 9.69202 2.53972 9.70005 2.49961 9.70003C2.33294 9.67503 2.20794 9.60003 2.19128 9.3917C2.19128 8.80837 2.44128 8.77503 2.44128 8.3417C2.44128 7.72503 1.89128 7.43337 1.89128 6.98337C1.89128 6.83337 1.92461 6.5667 2.14128 6.3667ZM-4.77539 19.0834H-1.75039V33.625H-4.77539V19.0834ZM5.52461 19.0834H8.55794V33.625H5.52461V19.0834ZM-1.14206 19.0834H4.91628L1.89128 20.9L-1.14206 19.0834ZM-1.14206 21.5H4.91628V22.7167H-1.14206V21.5ZM-1.14206 29.9917H4.91628V31.2084H-1.14206V29.9917ZM-1.14206 31.8084H4.91628L1.89128 33.625L-1.14206 31.8084Z" fill="#FFD900"/>
<path d="M1.89173 29.4002C3.567 29.4002 4.92507 28.0421 4.92507 26.3668C4.92507 24.6916 3.567 23.3335 1.89173 23.3335C0.216468 23.3335 -1.1416 24.6916 -1.1416 26.3668C-1.1416 28.0421 0.216468 29.4002 1.89173 29.4002Z" fill="#FFD900"/>
<path d="M1.88731 25.3613C2.22203 25.3613 2.49337 25.0899 2.49337 24.7552C2.49337 24.4205 2.22203 24.1492 1.88731 24.1492C1.55259 24.1492 1.28125 24.4205 1.28125 24.7552C1.28125 25.0899 1.55259 25.3613 1.88731 25.3613Z" fill="#DA2032"/>
<path d="M1.88731 28.5734C2.22203 28.5734 2.49337 28.3021 2.49337 27.9674C2.49337 27.6327 2.22203 27.3613 1.88731 27.3613C1.55259 27.3613 1.28125 27.6327 1.28125 27.9674C1.28125 28.3021 1.55259 28.5734 1.88731 28.5734Z" fill="#DA2032"/>
<path d="M1.88748 22.9673C2.36165 22.9673 2.81641 23.1556 3.1517 23.4909C3.48699 23.8262 3.67535 24.281 3.67535 24.7552C3.67535 25.2293 3.48699 25.6841 3.1517 26.0194C2.81641 26.3547 2.36165 26.543 1.88748 26.543C1.50975 26.543 1.14749 26.6931 0.880394 26.9602C0.613298 27.2273 0.463244 27.5895 0.463244 27.9673C0.463244 28.345 0.613298 28.7073 0.880394 28.9744C1.14749 29.2415 1.50975 29.3915 1.88748 29.3915V29.7551C1.41331 29.7551 0.958556 29.5668 0.623265 29.2315C0.287974 28.8962 0.0996094 28.4414 0.0996094 27.9673C0.0996094 27.4931 0.287974 27.0383 0.623265 26.7031C0.958556 26.3678 1.41331 26.1794 1.88748 26.1794C2.26521 26.1794 2.62747 26.0293 2.89457 25.7622C3.16166 25.4951 3.31172 25.1329 3.31172 24.7552C3.31172 24.3774 3.16166 24.0152 2.89457 23.7481C2.62747 23.481 2.26521 23.3309 1.88748 23.3309V22.9673Z" fill="#DA2032"/>
</g>
<defs>
<clipPath id="clip0_8424_43228">
<rect width="40" height="40" rx="20" fill="white"/>
</clipPath>
</defs>
</svg>
