<svg width="40" height="40" viewBox="0 0 40 40" fill="none" xmlns="http://www.w3.org/2000/svg">
<g clip-path="url(#clip0_8424_43223)">
<path d="M-7 0H46.3333V40H-7V0Z" fill="#012169"/>
<path d="M25.0748 9.25H42.1998L42.1748 21.4417C42.3165 26.3333 39.2665 29.375 33.6498 30.75C29.6581 29.75 25.0665 27.7083 25.0498 21.5833L25.0748 9.25Z" fill="white"/>
<path d="M25.4503 9.6167H41.8169L41.8003 21.3C41.9336 25.9917 39.0169 28.9 33.6503 30.2167C29.8336 29.2667 25.4419 27.3 25.4336 21.4334L25.4503 9.6167Z" fill="#00A2BD"/>
<path fill-rule="evenodd" clip-rule="evenodd" d="M25.525 9.6915L25.5084 21.4331C25.5125 24.3446 26.603 26.2821 28.1623 27.6115C29.7201 28.9397 31.7506 29.665 33.6502 30.1392C36.3163 29.4827 38.3659 28.4332 39.7328 26.9725C41.1011 25.5104 41.7913 23.6303 41.7251 21.302L41.7251 21.3008L41.7416 9.6915H25.525ZM25.4501 9.6165V9.5415H41.8918L41.8751 21.2988C41.942 23.6616 41.2404 25.5811 39.8423 27.075C38.4457 28.5674 36.3597 29.6289 33.6679 30.2893L33.6499 30.2938L33.6319 30.2893C31.72 29.8134 29.6543 29.0808 28.0649 27.7257C26.4721 26.3676 25.3626 24.3884 25.3584 21.4333V21.4331L25.3751 9.6164L25.4501 9.6165Z" fill="black"/>
<path d="M41.6914 22.6831C41.0914 27.1581 37.6414 29.1164 33.6497 30.1581C30.1081 29.2081 26.2997 27.6914 25.5664 22.6998L41.6914 22.6831Z" fill="#A53D08"/>
<path d="M33.0003 11.7919L32.9753 10.3252L34.1419 10.3335L34.1503 11.7919H37.3336L37.3419 12.9335L34.1503 12.9502L34.1253 26.4002L32.9919 26.4085L32.9753 12.9335L29.8086 12.9502V11.7835L33.0003 11.7919Z" fill="black"/>
<path fill-rule="evenodd" clip-rule="evenodd" d="M30.416 23.2334L33.3326 26.2584C34.341 25.15 33.641 21.0084 32.316 20.25C32.1576 20.7417 31.891 21.3334 31.5993 21.5167C30.9743 21.95 29.4243 22.45 29.941 22.7667C30.0576 22.6084 30.366 22.4584 30.516 22.8167C30.6826 23.3917 29.866 23.425 29.866 23.425C29.866 23.425 29.3493 23.3584 29.2576 22.8417C29.1743 22.3084 30.0326 21.825 30.1076 21.7917C30.1743 21.7667 31.2993 21.4584 31.491 20.4667C31.7326 19.4834 31.9743 19.6334 32.016 19.6167C33.491 19.7584 34.4493 22.3917 34.5076 24.2417C34.5576 26.0917 33.7576 27.325 33.6076 27.4084C33.466 27.4834 30.1076 23.4167 30.1076 23.4167L30.4243 23.2334H30.416Z" fill="#FF9A08"/>
<path fill-rule="evenodd" clip-rule="evenodd" d="M32.0113 19.5825L32.0193 19.5833C32.3979 19.6197 32.7412 19.8158 33.043 20.1151C33.3447 20.4143 33.6066 20.8182 33.8233 21.274C34.2566 22.1857 34.5118 23.311 34.5411 24.2404L34.5411 24.2406C34.5662 25.1706 34.3777 25.9458 34.1639 26.4993C34.057 26.7761 33.9436 26.9977 33.8472 27.1557C33.799 27.2347 33.7548 27.2981 33.7176 27.3448C33.699 27.3681 33.6819 27.3876 33.6667 27.4028C33.6519 27.4176 33.6374 27.4298 33.624 27.4373L33.6234 27.4376C33.6112 27.444 33.5991 27.4428 33.5917 27.4412C33.5839 27.4395 33.5764 27.4363 33.5698 27.4328C33.5566 27.4259 33.5412 27.4151 33.5244 27.4018C33.4906 27.375 33.4462 27.3341 33.3933 27.2819C33.2872 27.1772 33.1439 27.0239 32.9764 26.8384C32.6413 26.4673 32.208 25.9657 31.7793 25.462C31.3505 24.9583 30.9262 24.4522 30.6091 24.0721C30.4506 23.882 30.3188 23.7234 30.2267 23.6123C30.1806 23.5568 30.1445 23.5132 30.1199 23.4834L30.0821 23.4377C30.0821 23.4377 30.0821 23.4377 30.1009 23.4222L30.0821 23.4377L30.0744 23.4284C30.0466 23.4347 30.0204 23.4396 29.9965 23.4435C29.9586 23.4497 29.9266 23.4534 29.904 23.4554C29.8926 23.4565 29.8836 23.4572 29.8774 23.4576C29.8743 23.4578 29.8719 23.4579 29.8702 23.458L29.8683 23.4581L29.8677 23.4581L29.8676 23.4581C29.8675 23.4581 29.8675 23.4581 29.8661 23.4248C29.8619 23.4579 29.8618 23.4579 29.8618 23.4579L29.8616 23.4578L29.8612 23.4578L29.8599 23.4576C29.8587 23.4574 29.8571 23.4572 29.855 23.4568C29.8508 23.4562 29.8448 23.4551 29.8373 23.4536C29.8222 23.4506 29.8007 23.4458 29.7748 23.4384C29.723 23.4235 29.6529 23.3981 29.5797 23.3558C29.4327 23.2709 29.2729 23.1176 29.225 22.8473L29.2248 22.8466C29.2025 22.7034 29.2437 22.5655 29.316 22.4404C29.3884 22.3154 29.4929 22.2013 29.6011 22.1042C29.8172 21.9102 30.0535 21.7791 30.0942 21.761L30.0952 21.7606L30.0961 21.7603C30.1003 21.7587 30.108 21.7562 30.119 21.7526C30.2009 21.726 30.4612 21.6414 30.7344 21.4635C31.0437 21.2621 31.3649 20.9438 31.4584 20.4601L31.4585 20.4593L31.4587 20.4585C31.5798 19.966 31.7025 19.749 31.8061 19.6544C31.8592 19.6059 31.9074 19.5894 31.9468 19.5849C31.9658 19.5828 31.982 19.5836 31.9933 19.5842L31.9934 19.5842C31.9994 19.5845 32.0028 19.5847 32.0056 19.5846C32.0057 19.5846 32.0059 19.5846 32.006 19.5846L32.0113 19.5825ZM32.0072 19.5846C32.0072 19.5846 32.0072 19.5846 32.0071 19.5846L32.0072 19.5846ZM29.8661 23.4248L29.8618 23.4579L29.8647 23.4582L29.8675 23.4581L29.8661 23.4248ZM29.8677 23.3914C29.869 23.3913 29.8709 23.3912 29.8731 23.391C29.8788 23.3907 29.8871 23.39 29.8978 23.3891C29.9192 23.3871 29.9496 23.3836 29.9857 23.3777C30.0507 23.3671 30.133 23.3486 30.2129 23.3171L30.3656 23.2287L30.3377 23.1998H30.4048C30.4246 23.1805 30.4421 23.1594 30.4567 23.1363C30.5038 23.0618 30.5233 22.9626 30.4846 22.8276C30.4491 22.7435 30.4057 22.6922 30.3612 22.6631C30.3166 22.634 30.2683 22.6254 30.2199 22.6308C30.1209 22.6421 30.0223 22.7126 29.968 22.7862L29.9498 22.8109L29.9237 22.7949C29.8551 22.7528 29.813 22.703 29.8053 22.6439C29.7977 22.5855 29.8252 22.5291 29.8688 22.4771C29.9559 22.3734 30.1262 22.265 30.3262 22.156C30.4729 22.0759 30.6389 21.9938 30.805 21.9117C30.8667 21.8812 30.9284 21.8507 30.9891 21.8203C31.2143 21.7074 31.4264 21.5959 31.5805 21.4891L31.5811 21.4887L31.5817 21.4883C31.7196 21.4016 31.8558 21.2147 31.9783 20.9832C32.1001 20.7531 32.2056 20.4842 32.2844 20.2396L32.297 20.2005L32.3327 20.2209C32.673 20.4157 32.9689 20.8244 33.206 21.3387C33.4437 21.8542 33.6246 22.4805 33.7323 23.1172C33.84 23.7538 33.8746 24.4022 33.8188 24.9617C33.7631 25.5199 33.6168 25.9954 33.3574 26.2806L33.3335 26.3069L30.4147 23.2797C30.3696 23.3158 30.3185 23.3443 30.267 23.3668C30.2587 23.3704 30.2504 23.3739 30.2421 23.3772L30.1586 23.4256L30.1712 23.4409C30.1958 23.4706 30.232 23.5143 30.278 23.5698C30.3701 23.6808 30.5018 23.8394 30.6603 24.0294C30.9774 24.4094 31.4015 24.9153 31.83 25.4188C32.2586 25.9224 32.6915 26.4234 33.0259 26.7937C33.1932 26.979 33.3355 27.1311 33.4401 27.2344C33.4926 27.2862 33.5349 27.325 33.5658 27.3495C33.5809 27.3615 33.5922 27.3692 33.5999 27.3733C33.605 27.3693 33.6116 27.3636 33.6196 27.3556C33.6326 27.3427 33.648 27.3252 33.6655 27.3032C33.7006 27.2593 33.7431 27.1982 33.7903 27.121C33.8845 26.9665 33.9961 26.7486 34.1017 26.4753C34.3128 25.9288 34.4993 25.1624 34.4745 24.2425C34.4454 23.3219 34.1923 22.2056 33.7631 21.3027C33.5485 20.8512 33.2906 20.4546 32.996 20.1624C32.7031 19.8719 32.3753 19.6861 32.0186 19.6502C32.0139 19.6511 32.0096 19.6513 32.0065 19.6513C32.0014 19.6514 31.9958 19.6511 31.991 19.6508L31.9897 19.6507C31.9789 19.6502 31.9674 19.6497 31.9542 19.6512C31.929 19.654 31.8939 19.6645 31.8511 19.7036C31.7631 19.7839 31.6442 19.9834 31.5237 20.4736C31.4253 20.9812 31.0883 21.3126 30.7708 21.5194C30.4883 21.7033 30.2174 21.7909 30.1393 21.8161C30.1304 21.819 30.124 21.821 30.1204 21.8224C30.0831 21.8393 29.8549 21.966 29.6457 22.1538C29.5404 22.2483 29.4413 22.3571 29.3737 22.4738C29.3063 22.5903 29.2715 22.7126 29.2907 22.836C29.3345 23.0822 29.4787 23.2205 29.613 23.298C29.6804 23.337 29.7452 23.3605 29.7932 23.3743C29.8171 23.3812 29.8367 23.3856 29.8502 23.3882C29.857 23.3896 29.8622 23.3905 29.8656 23.391C29.8664 23.3912 29.8671 23.3913 29.8677 23.3914ZM30.4727 23.2438L33.3316 26.2089C33.5622 25.9369 33.699 25.4909 33.7525 24.9551C33.8076 24.4027 33.7735 23.7604 33.6666 23.1283C33.5597 22.4962 33.3802 21.8757 33.1455 21.3666C32.9189 20.8752 32.6428 20.4921 32.3349 20.2999C32.2568 20.5362 32.1547 20.7924 32.0372 21.0144C31.9141 21.2471 31.7713 21.4475 31.6178 21.5443C31.4594 21.654 31.2436 21.7673 31.0189 21.8799C30.9575 21.9107 30.8953 21.9414 30.8334 21.972C30.6677 22.054 30.5036 22.1351 30.3581 22.2145C30.1571 22.3242 29.9977 22.4272 29.9199 22.5199C29.8812 22.5661 29.8674 22.6041 29.8715 22.6353C29.8748 22.6614 29.8918 22.6907 29.9342 22.7218C29.9992 22.6463 30.1025 22.577 30.2124 22.5646C30.2743 22.5576 30.3385 22.5687 30.3976 22.6073C30.4564 22.6457 30.5075 22.7096 30.5469 22.8036L30.5476 22.8054L30.5481 22.8072C30.5921 22.9588 30.572 23.0788 30.513 23.1719C30.507 23.1815 30.5005 23.1908 30.4937 23.1998H30.5486L30.4727 23.2438Z" fill="black"/>
<path d="M32.5499 20.4165L32.5666 25.8748L32.5499 20.4165ZM32.2166 20.5248L32.2416 25.4748L32.2166 20.5248ZM31.8666 21.2415L31.8833 25.1748L31.8666 21.2415ZM31.5749 21.5165L31.5916 24.7748L31.5749 21.5165ZM31.2666 21.6665V24.4165V21.6665ZM30.9333 21.8832V24.0582V21.8832ZM30.6416 22.0582V23.7248V22.0582Z" fill="#FF9A08"/>
<path fill-rule="evenodd" clip-rule="evenodd" d="M32.5334 25.875L32.5167 20.4167L32.5834 20.4165L32.6001 25.8748L32.5334 25.875ZM32.2084 25.4751L32.1834 20.5251L32.2501 20.5248L32.2751 25.4748L32.2084 25.4751ZM31.8501 25.1751L31.8334 21.2417L31.9001 21.2415L31.9167 25.1748L31.8501 25.1751ZM31.5584 24.7751L31.5417 21.5168L31.6084 21.5164L31.6251 24.7748L31.5584 24.7751ZM31.2334 24.4166V21.6666H31.3001V24.4166H31.2334ZM30.9001 24.0583V21.8833H30.9667V24.0583H30.9001ZM30.6084 23.7249V22.0583H30.6751V23.7249H30.6084Z" fill="black"/>
<path fill-rule="evenodd" clip-rule="evenodd" d="M30.3532 23.558C30.3671 23.5459 30.3881 23.5473 30.4002 23.5612L33.4002 26.9945C33.4123 27.0084 33.4109 27.0295 33.3971 27.0416C33.3832 27.0537 33.3621 27.0523 33.35 27.0384L30.35 23.6051C30.3379 23.5912 30.3393 23.5702 30.3532 23.558Z" fill="#FFDF00"/>
<path fill-rule="evenodd" clip-rule="evenodd" d="M33.5004 21.3619C33.5305 21.3481 33.5661 21.3613 33.58 21.3914L33.5254 21.4165C33.58 21.3914 33.5799 21.3914 33.58 21.3914L33.5803 21.3921L33.5811 21.3939L33.5841 21.4006C33.5867 21.4065 33.5906 21.4152 33.5955 21.4266C33.6054 21.4494 33.6197 21.483 33.6373 21.5265C33.6726 21.6136 33.7214 21.7404 33.776 21.9001C33.8851 22.2194 34.0172 22.6706 34.1095 23.1988C34.294 24.2541 34.3206 25.6234 33.6787 26.8608C33.6634 26.8902 33.6272 26.9016 33.5978 26.8864C33.5684 26.8711 33.5569 26.8349 33.5722 26.8055C34.1969 25.6012 34.1736 24.2622 33.9913 23.2195C33.9003 22.6988 33.77 22.2537 33.6624 21.9389C33.6086 21.7815 33.5606 21.6568 33.5261 21.5716C33.5088 21.529 33.4949 21.4963 33.4854 21.4743C33.4807 21.4633 33.477 21.455 33.4745 21.4495L33.4718 21.4434L33.4711 21.4419L33.471 21.4416C33.471 21.4416 33.471 21.4416 33.471 21.4416M33.5004 21.3619C33.4703 21.3758 33.4571 21.4115 33.471 21.4416L33.5004 21.3619ZM29.8375 22.1522C29.8592 22.1773 29.8564 22.2152 29.8313 22.2369L29.8311 22.237L29.8302 22.2379C29.8293 22.2386 29.8279 22.2399 29.8261 22.2415C29.8225 22.2448 29.8171 22.2497 29.8102 22.2562C29.7964 22.2691 29.777 22.2881 29.7544 22.3119C29.7091 22.3597 29.6525 22.4258 29.6053 22.5006C29.5577 22.5759 29.5223 22.656 29.5143 22.7321C29.5065 22.8056 29.524 22.8767 29.5857 22.9419C29.6085 22.9659 29.6074 23.0039 29.5834 23.0267C29.5593 23.0495 29.5213 23.0484 29.4986 23.0244C29.4103 22.9312 29.3839 22.8242 29.3949 22.7196C29.4057 22.6176 29.4515 22.5195 29.5039 22.4365C29.5567 22.3529 29.6188 22.2805 29.6673 22.2294C29.6916 22.2037 29.7128 22.1831 29.7279 22.1688C29.7355 22.1617 29.7416 22.1561 29.7459 22.1523C29.748 22.1503 29.7497 22.1488 29.7509 22.1478L29.7523 22.1466L29.7527 22.1462L29.7528 22.1461C29.7528 22.1461 29.7529 22.146 29.7921 22.1915L29.7529 22.146C29.778 22.1244 29.8159 22.1272 29.8375 22.1522ZM30.0814 22.9715L30.0815 22.9712L30.0821 22.9696C30.0827 22.9681 30.0837 22.9658 30.085 22.9628C30.0876 22.9568 30.0915 22.9482 30.0966 22.9381C30.107 22.9175 30.1213 22.8926 30.138 22.8715C30.1557 22.8493 30.171 22.838 30.1815 22.8344C30.1862 22.8329 30.1941 22.8304 30.2111 22.8451C30.2362 22.8668 30.2741 22.8641 30.2958 22.8391C30.3175 22.814 30.3148 22.7762 30.2897 22.7545C30.2442 22.715 30.1928 22.7042 30.1436 22.7206C30.1002 22.7351 30.0671 22.768 30.0441 22.7968C30.0202 22.8268 30.0017 22.8597 29.9894 22.8842C29.9832 22.8966 29.9783 22.9073 29.975 22.915C29.9733 22.9188 29.972 22.922 29.9711 22.9242L29.97 22.9269L29.9697 22.9277L29.9696 22.928L29.9695 22.9281C29.9695 22.9281 29.9695 22.9281 30.0254 22.9498L29.9695 22.9281C29.9576 22.959 29.9729 22.9938 30.0038 23.0057C30.0347 23.0177 30.0694 23.0023 30.0814 22.9715Z" fill="#FFDF00"/>
<path d="M34.1671 14.6164C34.3587 14.4498 34.4671 14.3414 34.5921 14.3664C34.7171 14.3831 34.8837 14.3664 35.0087 14.3331C35.3367 14.2569 35.6764 14.2456 36.0087 14.2998C36.0921 14.3164 36.2171 14.3581 36.3921 14.5081C36.5671 14.6581 36.8254 14.9248 36.7421 15.6414C36.6587 16.3581 36.6837 16.6664 36.6421 17.0748C36.5754 17.7831 36.4171 18.3664 36.1421 18.3248C36.5171 18.9914 36.5587 19.5748 36.8087 20.0331C37.0587 20.4914 37.2087 21.4331 37.1171 22.4498C37.0171 23.4748 36.7504 25.7581 37.5587 27.2998C37.4254 27.3914 37.1004 27.2998 36.8087 26.9914C36.5171 26.6831 36.3921 26.6914 36.1587 26.8748C35.4254 27.4331 34.7421 28.1081 33.7337 27.4331C33.5004 27.2831 33.4337 27.0998 33.6004 26.6248C34.0171 25.4581 34.2254 23.8414 34.1587 23.0914V14.6164H34.1671Z" fill="#008021"/>
<path fill-rule="evenodd" clip-rule="evenodd" d="M35.0116 14.3455C34.8854 14.3791 34.7171 14.396 34.5902 14.3791L34.5894 14.379C34.5317 14.3675 34.4768 14.3862 34.4113 14.4302C34.3575 14.4664 34.298 14.5185 34.2254 14.5822C34.2093 14.5963 34.1925 14.611 34.1751 14.6262L34.1715 14.6292H34.171V23.0912C34.2044 23.4676 34.1688 24.0601 34.073 24.704C33.9771 25.3483 33.8207 26.0449 33.612 26.6292C33.5288 26.8662 33.5048 27.0281 33.5291 27.1486C33.5532 27.2681 33.6252 27.3489 33.7403 27.4229L33.7405 27.423C33.9912 27.5908 34.2211 27.6743 34.436 27.697C34.6509 27.7197 34.8518 27.6816 35.0445 27.6051C35.3625 27.4789 35.6572 27.249 35.9565 27.0155C36.021 26.9653 36.0857 26.9148 36.1509 26.8652C36.2676 26.7735 36.3609 26.7223 36.4634 26.7366C36.565 26.7508 36.6718 26.829 36.8176 26.9831C36.9623 27.1361 37.1149 27.2349 37.2473 27.2842C37.374 27.3313 37.4792 27.3321 37.5421 27.2956C37.1408 26.5241 37.0064 25.5701 36.9846 24.6816C36.9644 23.8607 37.0404 23.0944 37.0917 22.5781C37.0961 22.5331 37.1004 22.49 37.1044 22.4489C37.1502 21.9415 37.1356 21.4529 37.0784 21.034C37.0212 20.615 36.9215 20.2667 36.7976 20.0394C36.6857 19.8343 36.6153 19.6044 36.539 19.355C36.5295 19.324 36.5199 19.2926 36.5101 19.261C36.4216 18.9748 36.3178 18.6633 36.131 18.3312L36.1184 18.3089L36.1437 18.3127C36.2072 18.3223 36.2647 18.2963 36.3174 18.2385C36.3703 18.1804 36.4173 18.091 36.4582 17.9771C36.54 17.7494 36.5961 17.4277 36.6294 17.0739L36.6294 17.0738C36.6463 16.9088 36.6522 16.7603 36.6588 16.5939C36.6604 16.5549 36.662 16.5149 36.6638 16.4735C36.6731 16.2556 36.6877 15.999 36.7294 15.6403C36.7709 15.2836 36.7273 15.0401 36.6523 14.8675C36.5773 14.695 36.4706 14.5924 36.3837 14.5179C36.2105 14.3694 36.0875 14.3286 36.0063 14.3124C35.6757 14.2585 35.3378 14.2698 35.0116 14.3455ZM34.1622 14.6042C34.1781 14.5904 34.1935 14.5769 34.2084 14.5638C34.2811 14.5001 34.3421 14.4466 34.3974 14.4095C34.4651 14.364 34.5268 14.3411 34.5939 14.3544C34.7169 14.3707 34.8817 14.3543 35.0053 14.3213L35.0057 14.3212C35.3353 14.2447 35.6766 14.2333 36.0105 14.2877L36.011 14.2878C36.0965 14.3049 36.2234 14.3475 36.4 14.4989C36.4881 14.5744 36.5981 14.6801 36.6752 14.8576C36.7523 15.035 36.7961 15.2832 36.7543 15.6432C36.7127 16.0011 36.6981 16.257 36.6887 16.4745C36.687 16.5158 36.6854 16.5557 36.6838 16.5946C36.6772 16.761 36.6712 16.9104 36.6543 17.0762C36.6209 17.4308 36.5646 17.7549 36.4818 17.9855C36.4404 18.1008 36.392 18.1937 36.3359 18.2553C36.2857 18.3104 36.2284 18.3413 36.1643 18.3396C36.3452 18.6664 36.4472 18.9729 36.534 19.2537C36.5438 19.2853 36.5534 19.3166 36.5629 19.3476C36.6394 19.5974 36.709 19.8247 36.8195 20.0274C36.9455 20.2584 37.0458 20.6101 37.1032 21.0307C37.1606 21.4514 37.1752 21.9419 37.1293 22.4512L37.1293 22.4513C37.1253 22.4924 37.121 22.5355 37.1166 22.5805C37.0653 23.0969 36.9895 23.8617 37.0096 24.681C37.0314 25.5719 37.1667 26.5259 37.5696 27.2942L37.5748 27.3041L37.5656 27.3104C37.4938 27.3597 37.3741 27.358 37.2385 27.3076C37.1021 27.2568 36.9464 27.1556 36.7995 27.0003C36.6536 26.8461 36.5521 26.7743 36.4599 26.7614C36.3687 26.7486 36.2828 26.7933 36.1663 26.8849L36.1661 26.885C36.1015 26.9342 36.0372 26.9843 35.973 27.0344C35.6736 27.268 35.3754 27.5007 35.0538 27.6283C34.858 27.706 34.6531 27.745 34.4334 27.7219C34.2137 27.6987 33.9801 27.6135 33.7267 27.4438C33.6084 27.3678 33.5305 27.282 33.5046 27.1536C33.4789 27.0262 33.5049 26.8589 33.5884 26.6209C33.7964 26.0386 33.9525 25.3435 34.0483 24.7003C34.144 24.0569 34.1793 23.4664 34.1461 23.0928L34.146 23.0917L34.146 14.6042H34.1622Z" fill="black"/>
<path d="M34.8586 13.9001C34.9251 14.0837 34.9221 14.2853 34.8503 14.4668C34.767 14.6668 34.742 14.8835 34.892 15.1668C35.117 14.8335 35.442 14.9001 35.642 14.7168C35.8253 14.5251 35.867 14.3418 36.0086 14.3001C35.867 14.1751 35.6503 14.0335 35.692 13.6751C35.742 13.3085 36.2503 13.0085 35.792 12.4585C35.7234 12.3704 35.6339 12.301 35.5316 12.2565C35.4293 12.212 35.3175 12.1939 35.2063 12.2039C35.0952 12.2138 34.9884 12.2515 34.8956 12.3134C34.8028 12.3754 34.7271 12.4596 34.6753 12.5585C34.6503 12.6251 34.692 12.7585 34.617 12.8418C34.567 12.9085 34.5086 12.9668 34.442 13.0085C34.4003 13.0418 34.3753 13.0835 34.4253 13.1418C34.442 13.1668 34.4753 13.1668 34.5086 13.1751L34.442 13.3001C34.417 13.3251 34.4253 13.3501 34.4586 13.3835C34.417 13.4918 34.492 13.5085 34.442 13.5918C34.392 13.6668 34.342 13.7585 34.492 13.8418C34.542 13.8668 34.742 13.9085 34.8586 13.9001ZM32.9836 15.8168C32.717 15.8835 32.2836 15.7668 31.9586 15.8001C31.8086 15.8168 31.692 15.7418 31.7086 15.6001C31.7336 15.4585 31.7586 15.2335 31.7253 15.0335C31.7284 14.6026 31.8371 14.1792 32.042 13.8001C32.2067 13.5004 32.3141 13.1726 32.3586 12.8335C32.3586 12.6751 32.3753 12.5085 32.5086 12.4168C32.6086 12.3585 32.6253 12.3001 32.6586 12.2501C32.742 12.1251 32.8253 12.1001 32.8253 12.1668C32.8336 12.2085 32.8253 12.2501 32.7836 12.3001C32.867 12.2335 33.017 12.1501 33.0503 12.1335C33.0836 12.1001 33.2503 11.9835 33.2586 12.1001C33.3253 12.0668 33.3753 12.0668 33.392 12.1001C33.4086 12.1418 33.392 12.1585 33.367 12.1835C33.417 12.1835 33.467 12.2585 33.367 12.3335C33.4253 12.3168 33.4753 12.4001 33.3836 12.4751C33.3003 12.5585 33.1836 12.6085 33.1586 12.6751C33.1253 12.7418 32.892 12.9168 32.8003 12.9501C32.7086 12.9918 32.7003 13.0418 32.7003 13.1751C32.7003 14.6585 32.5336 14.5335 32.5336 14.9001C32.5336 14.9835 32.5086 15.0751 32.6003 15.0501C32.7003 15.0168 32.842 14.9751 32.9836 14.9751V15.8085V15.8168ZM33.042 19.0001C33.4753 18.7835 33.9753 18.7001 34.2336 18.6335C34.533 18.5377 34.8231 18.415 35.1003 18.2668C35.3086 18.1585 35.4753 18.0168 35.592 17.9751C35.7287 17.9317 35.8425 17.8358 35.9086 17.7085C36.2369 17.155 36.4337 16.5334 36.4836 15.8918C36.4836 15.5585 36.4003 15.1751 36.067 15.4418C35.727 15.7349 35.4734 16.1152 35.3336 16.5418C35.2003 17.0751 35.0836 17.2001 35.0586 17.3001C35.0253 17.4085 34.9253 17.4085 34.792 17.4335C34.3709 17.4991 33.9775 17.6842 33.6586 17.9668C33.2805 18.2467 32.8853 18.5027 32.4753 18.7335C32.167 18.9085 32.1086 18.9251 32.042 19.0668C31.9753 19.2001 31.9086 19.3168 31.8586 19.3668C31.792 19.4335 31.7753 19.5001 31.792 19.5835C31.8003 19.6501 31.7753 19.9335 31.767 20.0335C31.767 20.1335 31.792 20.1501 31.8253 20.1585C31.8586 20.1585 31.9086 20.1418 31.9336 20.0251C31.917 20.1418 32.0753 20.1085 32.0836 20.0168C32.0836 20.1418 32.2503 20.0668 32.2503 19.9501C32.2503 20.0335 32.392 19.9751 32.392 19.9501C32.4253 19.8418 32.4503 19.7418 32.492 19.6668C32.542 19.5501 32.6003 19.4001 32.717 19.3335C32.842 19.2335 32.7836 19.1335 33.042 19.0001ZM36.1586 26.8751C36.1836 26.9835 36.242 27.1001 36.2586 27.1751C36.2753 27.2418 36.242 27.2668 36.2253 27.3085C36.1133 27.5407 36.0348 27.7876 35.992 28.0418C35.992 28.1418 35.9086 28.2418 35.8836 28.3085C35.8419 28.3751 35.8586 28.4335 35.9503 28.5001C35.9836 28.5251 36.117 28.4835 36.1253 28.4168C36.1836 28.4668 36.2586 28.4501 36.3003 28.3751C36.3503 28.4168 36.4253 28.3918 36.4669 28.3168C36.5086 28.3418 36.5753 28.2918 36.6003 28.2501C36.667 28.2835 36.7336 28.2501 36.7336 28.1168C36.7336 28.0835 36.7586 28.0335 36.7753 28.0085C36.792 27.9751 36.8003 27.9168 36.8003 27.8668C36.8003 27.8085 36.8253 27.7001 36.8753 27.6335C36.9253 27.5501 37.0003 27.4251 36.9669 27.3001C36.9336 27.1835 36.8836 27.1918 36.8419 27.0335C36.7336 26.9168 36.592 26.7668 36.442 26.7501C36.292 26.7501 36.2086 26.8418 36.1586 26.8751ZM33.417 27.7001C33.5586 27.8335 33.8586 27.8335 34.067 27.6168C33.992 27.5835 33.817 27.5001 33.7503 27.4501C33.6573 27.5552 33.5439 27.6403 33.417 27.7001Z" fill="#FFE1CF"/>
<path fill-rule="evenodd" clip-rule="evenodd" d="M33.1684 12.073C33.1234 12.091 33.0749 12.1274 33.0594 12.1429L33.0578 12.1445L33.0559 12.1454C33.0229 12.1619 32.8739 12.2448 32.7916 12.3106L32.773 12.2916C32.8125 12.2443 32.8193 12.2066 32.8119 12.1694L32.8116 12.1681V12.1668C32.8116 12.1525 32.8072 12.1475 32.8041 12.1458C32.8004 12.1437 32.7923 12.1427 32.7782 12.1489C32.7504 12.1609 32.7105 12.1959 32.6694 12.2576C32.663 12.2671 32.6571 12.2773 32.651 12.2879C32.6265 12.3303 32.5979 12.3799 32.5154 12.4281C32.3888 12.5155 32.3716 12.6748 32.3716 12.8335V12.8344L32.3715 12.8352C32.3268 13.176 32.2189 13.5054 32.0533 13.8065C31.8497 14.1833 31.7415 14.6042 31.7383 15.0324C31.7717 15.2342 31.7465 15.4601 31.7215 15.6021C31.7138 15.6684 31.7371 15.7176 31.7788 15.7489C31.8211 15.7806 31.8841 15.795 31.9568 15.7869L31.9569 15.7869C32.1061 15.7716 32.2776 15.7876 32.444 15.8031C32.4607 15.8047 32.4773 15.8062 32.4939 15.8077C32.672 15.824 32.8405 15.836 32.9699 15.8063V14.9886C32.835 14.9911 32.7008 15.0306 32.6042 15.0628L32.6035 15.063C32.5792 15.0697 32.5591 15.0696 32.544 15.0604C32.5285 15.0511 32.522 15.0347 32.5191 15.0181C32.5162 15.0014 32.5166 14.9815 32.5175 14.9617C32.5177 14.956 32.518 14.9503 32.5184 14.9447C32.5191 14.9298 32.5199 14.9149 32.5199 14.9002C32.5199 14.8072 32.5305 14.7452 32.5464 14.6813C32.5516 14.6601 32.5574 14.639 32.5635 14.6166C32.5759 14.5712 32.5896 14.5205 32.6036 14.4537C32.645 14.255 32.6866 13.9164 32.6866 13.1752C32.6866 13.109 32.6885 13.0605 32.7032 13.0234C32.7184 12.9847 32.7467 12.9597 32.7944 12.938L32.7954 12.9376C32.8391 12.9217 32.919 12.8708 32.9929 12.8145C33.0296 12.7866 33.0644 12.7578 33.092 12.7319C33.1197 12.7059 33.1387 12.6841 33.1461 12.6698C33.1534 12.6508 33.1667 12.6338 33.183 12.618C33.1994 12.6019 33.2196 12.5863 33.241 12.5707C33.2489 12.5649 33.257 12.5591 33.2652 12.5532C33.3019 12.5268 33.3406 12.499 33.3739 12.4657L33.3743 12.4653L33.3748 12.4648C33.418 12.4295 33.4247 12.3951 33.4184 12.3737C33.412 12.3521 33.3919 12.3401 33.3703 12.3463L33.3586 12.3228C33.4062 12.2871 33.4145 12.2544 33.4098 12.2333C33.4049 12.2112 33.3853 12.1968 33.3666 12.1968H33.3344L33.3572 12.1741C33.3702 12.161 33.3784 12.1525 33.3824 12.1429C33.3859 12.1347 33.3867 12.124 33.3795 12.1057C33.374 12.0951 33.363 12.0885 33.3437 12.0885C33.3237 12.0885 33.2967 12.0959 33.2642 12.1121L33.2464 12.121L33.245 12.1011C33.244 12.0881 33.241 12.0797 33.2373 12.0743C33.2338 12.0691 33.2291 12.066 33.2232 12.0643C33.2104 12.0606 33.1913 12.0638 33.1684 12.073ZM33.2687 12.0806C33.2666 12.0724 33.2635 12.0653 33.2593 12.0592C33.252 12.0485 33.242 12.0419 33.2306 12.0386C33.2088 12.0324 33.1825 12.0386 33.1585 12.0482C33.1112 12.0671 33.0612 12.1041 33.0421 12.1225C33.0124 12.1376 32.9119 12.1933 32.8305 12.249C32.842 12.2203 32.8436 12.193 32.8383 12.1655C32.838 12.147 32.8319 12.1307 32.8171 12.1225C32.8026 12.1144 32.7847 12.117 32.7676 12.1244C32.7329 12.1394 32.6894 12.1794 32.6472 12.2428C32.6399 12.2537 32.6335 12.2647 32.627 12.2759C32.6028 12.3177 32.5778 12.3608 32.5016 12.4053L32.5007 12.4058C32.3613 12.5017 32.345 12.675 32.3449 12.8326C32.3006 13.1698 32.1937 13.4957 32.0299 13.7937L32.0299 13.7938C31.824 14.1748 31.7147 14.6004 31.7116 15.0334L31.7116 15.0346L31.7118 15.0357C31.7448 15.2335 31.7201 15.4567 31.6951 15.5978L31.695 15.5986C31.6862 15.6738 31.7129 15.7328 31.7628 15.7702C31.8121 15.8072 31.8824 15.822 31.9597 15.8134M32.5961 15.0374C32.5747 15.0432 32.5636 15.0411 32.5578 15.0376C32.5521 15.0342 32.5477 15.0271 32.5454 15.0135C32.543 15 32.5432 14.9828 32.5441 14.9629C32.5444 14.9577 32.5447 14.9523 32.5449 14.9468C32.5458 14.9317 32.5466 14.9157 32.5466 14.9002C32.5466 14.8097 32.5569 14.7499 32.5723 14.6877C32.5773 14.6675 32.5829 14.6469 32.5889 14.6247C32.6014 14.5789 32.6156 14.5267 32.6297 14.4591C32.6716 14.2578 32.7133 13.9172 32.7133 13.1752C32.7133 13.108 32.7155 13.0648 32.728 13.0332C32.7398 13.0032 32.7614 12.9824 32.805 12.9625C32.853 12.9449 32.9353 12.8918 33.0091 12.8358C33.0463 12.8075 33.0818 12.778 33.1102 12.7513C33.1382 12.725 33.1607 12.7002 33.1702 12.6811L33.1705 12.6805L33.1708 12.6798C33.176 12.6658 33.1865 12.6518 33.2016 12.6371C33.2166 12.6224 33.2355 12.6077 33.2568 12.5922C33.2643 12.5867 33.2721 12.5811 33.2801 12.5753C33.3167 12.549 33.3574 12.5198 33.3922 12.4851C33.4403 12.4455 33.4543 12.4009 33.444 12.3662C33.4375 12.3442 33.4214 12.3276 33.4011 12.321C33.4325 12.2888 33.4422 12.2558 33.4359 12.2275C33.4304 12.2031 33.4134 12.1842 33.3926 12.1755C33.3985 12.1687 33.4036 12.1614 33.407 12.1532C33.414 12.1365 33.4132 12.1182 33.404 12.0952L33.4035 12.0942C33.3923 12.0717 33.37 12.0618 33.3437 12.0618C33.322 12.0618 33.2965 12.0684 33.2687 12.0806C33.2701 12.0863 33.2711 12.0925 33.2716 12.0992M33.3926 12.1755C33.3844 12.172 33.3755 12.1702 33.3666 12.1702V12.1835L33.376 12.1929L33.3771 12.1918C33.3824 12.1866 33.3878 12.1812 33.3926 12.1755ZM33.4011 12.321C33.3895 12.3173 33.3764 12.3168 33.3629 12.3207L33.3666 12.3335L33.3746 12.3442C33.3848 12.3365 33.3936 12.3288 33.4011 12.321ZM33.3922 12.4851C33.3924 12.4849 33.3926 12.4847 33.3927 12.4846L33.3833 12.4752L33.3917 12.4855C33.3919 12.4853 33.3921 12.4852 33.3922 12.4851ZM32.805 12.9625C32.8052 12.9624 32.8053 12.9624 32.8055 12.9623L32.7999 12.9502L32.8045 12.9627C32.8047 12.9626 32.8048 12.9626 32.805 12.9625ZM32.5961 15.0374C32.5962 15.0374 32.5963 15.0373 32.5964 15.0373L32.5999 15.0502L32.5957 15.0375C32.5958 15.0375 32.596 15.0374 32.5961 15.0374ZM35.2048 12.1906C35.3182 12.1805 35.4322 12.1989 35.5366 12.2443C35.6409 12.2896 35.7321 12.3604 35.802 12.4501C35.9177 12.589 35.9731 12.713 35.9896 12.8272C36.006 12.9414 35.9832 13.0444 35.9446 13.1405C35.9153 13.2136 35.8765 13.2836 35.8389 13.3515C35.8272 13.3725 35.8157 13.3934 35.8045 13.414C35.7571 13.5021 35.717 13.5878 35.7048 13.6768C35.6844 13.8526 35.7273 13.9744 35.7921 14.0675C35.8447 14.1431 35.9116 14.2 35.9731 14.2523C35.9882 14.2651 36.003 14.2777 36.0171 14.2902L36.0352 14.3061L36.012 14.313C35.9462 14.3323 35.9027 14.3846 35.8516 14.4597C35.8428 14.4727 35.8337 14.4863 35.8244 14.5004C35.78 14.5673 35.7277 14.6461 35.6512 14.726L35.6506 14.7267C35.599 14.774 35.5395 14.8049 35.4766 14.83C35.4386 14.8451 35.3984 14.8585 35.3578 14.8719C35.332 14.8804 35.3061 14.889 35.2805 14.8981C35.1474 14.9456 35.0129 15.011 34.9027 15.1743L34.8902 15.1927L34.8798 15.1731C34.804 15.0298 34.7721 14.9028 34.7699 14.7858C34.7678 14.6689 34.7955 14.5629 34.8376 14.4618C34.907 14.2864 34.911 14.092 34.8491 13.9141C34.7904 13.9168 34.7149 13.9085 34.6476 13.8966C34.6119 13.8903 34.5782 13.883 34.5502 13.8756C34.5225 13.8682 34.4995 13.8607 34.4856 13.8538L34.4851 13.8535C34.4078 13.8105 34.3783 13.7631 34.3783 13.7137C34.3783 13.6665 34.4056 13.6218 34.4303 13.5847C34.4418 13.5655 34.4456 13.5511 34.4461 13.5388C34.4467 13.5261 34.4439 13.5146 34.4402 13.5004L34.4399 13.4995C34.4364 13.4857 34.4322 13.4697 34.4318 13.4503C34.4314 13.4322 34.4342 13.4116 34.4429 13.3868C34.4289 13.3718 34.4186 13.357 34.4151 13.3417C34.4108 13.3233 34.4168 13.3068 34.4307 13.2922L34.4882 13.1844C34.4865 13.1841 34.4848 13.1838 34.4831 13.1835L34.481 13.183C34.473 13.1815 34.4646 13.1798 34.4567 13.1776C34.441 13.1731 34.4252 13.1657 34.4143 13.1499C34.3879 13.1189 34.3795 13.0898 34.3859 13.0627C34.3922 13.0364 34.4118 13.0153 34.4333 12.9981L34.4339 12.9976L34.4345 12.9972C34.4995 12.9566 34.5566 12.8996 34.6059 12.8338L34.6063 12.8334L34.6067 12.8329C34.6409 12.7949 34.6491 12.7449 34.6512 12.6934C34.6517 12.6806 34.6518 12.6679 34.6519 12.6554L34.652 12.6522C34.6521 12.6408 34.6521 12.6295 34.6525 12.6187C34.6533 12.5954 34.6554 12.5727 34.6625 12.5538L34.6628 12.553L34.6631 12.5523C34.7159 12.4515 34.7932 12.3656 34.8879 12.3024C34.9825 12.2392 35.0915 12.2008 35.2048 12.1906ZM34.8583 13.9002L34.8708 13.8956C34.9384 14.0823 34.9354 14.2872 34.8623 14.4717L34.8623 14.472C34.8211 14.5708 34.7946 14.6731 34.7966 14.7853C34.7986 14.8923 34.8264 15.009 34.8933 15.1411C35.0056 14.9844 35.1408 14.9196 35.2715 14.873C35.2985 14.8634 35.3249 14.8547 35.3508 14.8461C35.3906 14.833 35.4292 14.8202 35.4668 14.8052C35.5279 14.7809 35.584 14.7514 35.6323 14.7073C35.7068 14.6293 35.7575 14.5529 35.8018 14.4862C35.8113 14.4719 35.8205 14.4581 35.8295 14.4447C35.8754 14.3774 35.9189 14.322 35.9823 14.2953C35.9741 14.2882 35.9656 14.281 35.957 14.2736C35.8952 14.2212 35.825 14.1615 35.7702 14.0828C35.7018 13.9843 35.6572 13.8561 35.6784 13.6736L35.6784 13.6734C35.6912 13.5791 35.7334 13.4898 35.781 13.4014C35.7925 13.3801 35.8043 13.3588 35.8161 13.3376C35.8536 13.2699 35.8912 13.202 35.9199 13.1306C35.9573 13.0372 35.9788 12.9391 35.9632 12.831C35.9476 12.7228 35.8948 12.6031 35.7814 12.467L35.7811 12.4667C35.7139 12.3804 35.6262 12.3123 35.526 12.2687C35.4257 12.2252 35.3161 12.2074 35.2072 12.2172C35.0983 12.2269 34.9936 12.2638 34.9027 12.3246C34.812 12.3851 34.7379 12.4674 34.6872 12.5639C34.6819 12.5783 34.6799 12.597 34.6792 12.6196C34.6788 12.6301 34.6787 12.641 34.6786 12.6525L34.6786 12.6556C34.6785 12.6681 34.6784 12.6812 34.6779 12.6944C34.6758 12.747 34.6674 12.805 34.6269 12.8503C34.5765 12.9175 34.5173 12.9768 34.4493 13.0194C34.4295 13.0354 34.416 13.0516 34.4119 13.0689C34.408 13.0853 34.4118 13.1061 34.4351 13.1332L34.4356 13.1338L34.436 13.1344C34.4418 13.1431 34.4508 13.1481 34.464 13.1519C34.4707 13.1538 34.478 13.1553 34.4861 13.1569L34.4882 13.1573C34.4956 13.1587 34.5035 13.1602 34.5115 13.1622L34.5281 13.1664L34.4524 13.3082L34.451 13.3096C34.441 13.3197 34.4392 13.3277 34.4411 13.3357C34.4433 13.3454 34.4514 13.3577 34.4677 13.3741L34.4738 13.3802L34.4707 13.3883C34.4609 13.4139 34.4581 13.4336 34.4585 13.4497C34.4588 13.466 34.4623 13.4795 34.4659 13.4936L34.466 13.4937L34.466 13.4939C34.4696 13.5077 34.4735 13.5228 34.4728 13.5399C34.472 13.5575 34.4665 13.5763 34.453 13.5987L34.4527 13.5992C34.4275 13.6371 34.4049 13.6756 34.4049 13.7137C34.4049 13.7497 34.4254 13.7897 34.4978 13.83C34.5091 13.8356 34.5297 13.8426 34.557 13.8498C34.5842 13.857 34.6172 13.8642 34.6523 13.8704C34.7227 13.8828 34.8006 13.8909 34.8573 13.8869L34.8583 13.9002ZM36.4782 15.6412C36.4914 15.7208 36.4966 15.808 36.4966 15.8918V15.8929C36.4465 16.5364 36.2492 17.1598 35.9199 17.715C35.8522 17.8452 35.7357 17.9433 35.5959 17.9878C35.5394 18.008 35.4702 18.0527 35.3875 18.1071C35.3834 18.1098 35.3793 18.1125 35.3752 18.1153C35.2959 18.1674 35.2058 18.2268 35.1062 18.2786C34.8283 18.4272 34.5375 18.5502 34.2373 18.6462L34.2366 18.6464C34.1831 18.6602 34.1195 18.6747 34.0485 18.6909C33.7747 18.7532 33.3904 18.8407 33.0477 19.012C32.9205 19.0777 32.8724 19.1344 32.8405 19.1863C32.8331 19.1984 32.8263 19.2105 32.8196 19.2227C32.7974 19.2631 32.7748 19.304 32.7249 19.3439L32.7241 19.3446L32.7232 19.3451C32.6678 19.3768 32.6255 19.4287 32.5906 19.4882C32.5598 19.5407 32.5354 19.598 32.5128 19.6511C32.5098 19.6582 32.5068 19.6652 32.5039 19.6721L32.5036 19.6727L32.5033 19.6733C32.4705 19.7322 32.4483 19.8069 32.4234 19.8908C32.4174 19.9109 32.4113 19.9316 32.4048 19.9527C32.4039 19.9603 32.3988 19.9664 32.3949 19.9702C32.3899 19.9751 32.3834 19.9798 32.3762 19.984C32.3617 19.9924 32.3426 19.9999 32.3235 20.0038C32.3047 20.0077 32.2837 20.0085 32.2667 20.001C32.2629 19.9993 32.2592 19.9972 32.2559 19.9946C32.2411 20.0381 32.2065 20.0717 32.1718 20.0864C32.149 20.0961 32.1234 20.0987 32.1028 20.0872C32.0932 20.0818 32.0855 20.0739 32.08 20.0636C32.0613 20.0911 32.0298 20.1084 32.0007 20.1123C31.9788 20.1153 31.9558 20.1111 31.9394 20.0957C31.9357 20.0923 31.9326 20.0884 31.9299 20.0842C31.9189 20.1121 31.9057 20.1317 31.8914 20.1453C31.8685 20.1669 31.8441 20.1718 31.8249 20.1718H31.8233L31.8217 20.1714C31.8035 20.1669 31.7848 20.1593 31.7718 20.1371C31.7595 20.1162 31.7533 20.084 31.7533 20.0335V20.0324C31.7539 20.0249 31.7547 20.0164 31.7555 20.007C31.7599 19.9537 31.7668 19.8729 31.7721 19.7951C31.7752 19.7493 31.7778 19.7047 31.7791 19.6674C31.7804 19.6301 31.7803 19.6012 31.7784 19.5856C31.7699 19.5426 31.7698 19.503 31.7809 19.4651C31.7921 19.4271 31.8143 19.3919 31.8488 19.3574C31.8726 19.3336 31.9011 19.2931 31.9323 19.2412C31.9632 19.1896 31.9964 19.1275 32.0296 19.061C32.0638 18.9884 32.0964 18.947 32.1599 18.9018C32.2057 18.8692 32.2681 18.8343 32.3589 18.7835C32.3916 18.7652 32.4278 18.7449 32.4684 18.7219C32.8777 18.4915 33.2723 18.2359 33.6499 17.9565C33.9706 17.6724 34.3661 17.4863 34.7894 17.4204C34.8077 17.4169 34.8262 17.4138 34.8437 17.4109C34.8574 17.4086 34.8704 17.4064 34.8825 17.4042C34.9109 17.3991 34.9361 17.3935 34.9579 17.3855C34.9796 17.3776 34.9976 17.3676 35.012 17.3536C35.0263 17.3398 35.0377 17.3216 35.0454 17.2966C35.0521 17.2702 35.0646 17.2425 35.081 17.2087C35.0845 17.2015 35.0882 17.194 35.0921 17.1861C35.1066 17.1565 35.1237 17.1215 35.143 17.0781C35.1916 16.9684 35.2538 16.8046 35.3203 16.5386L35.3206 16.5377C35.4611 16.1088 35.7161 15.7264 36.0579 15.4317L36.0583 15.4314C36.1426 15.3639 36.2136 15.3355 36.2732 15.3395C36.3337 15.3435 36.3787 15.3806 36.4114 15.435C36.4439 15.4891 36.4651 15.5618 36.4782 15.6412ZM32.2366 19.9502H32.2633C32.2633 19.9587 32.2651 19.9644 32.2674 19.9682C32.2697 19.9719 32.273 19.9747 32.2775 19.9766C32.287 19.9808 32.3014 19.9812 32.3181 19.9777C32.3344 19.9744 32.3507 19.9679 32.3628 19.9609C32.3689 19.9574 32.3734 19.954 32.3762 19.9513C32.3774 19.9501 32.378 19.9493 32.3783 19.9488V19.9482L32.3789 19.9462C32.3853 19.9255 32.3914 19.9049 32.3974 19.8846C32.4223 19.8007 32.4455 19.7226 32.4796 19.661C32.4825 19.6543 32.4853 19.6476 32.4882 19.6408C32.5108 19.5878 32.5359 19.5288 32.5676 19.4747C32.6034 19.4136 32.6483 19.3575 32.7091 19.3224C32.7539 19.2864 32.7732 19.2513 32.7949 19.2122C32.8019 19.1994 32.8092 19.1862 32.8178 19.1723C32.8525 19.1159 32.9044 19.056 33.0355 18.9883L33.0416 19.0002L33.0356 18.9882C33.3817 18.8152 33.7705 18.7267 34.0443 18.6644C34.1145 18.6485 34.1771 18.6342 34.2296 18.6207C34.5281 18.5252 34.8173 18.4028 35.0937 18.2551L35.0938 18.255C35.1922 18.2038 35.2813 18.1451 35.3607 18.0928C35.3648 18.0902 35.3688 18.0875 35.3728 18.0849C35.4546 18.031 35.527 17.9841 35.5871 17.9626L35.5876 17.9624C35.7209 17.9201 35.832 17.8265 35.8964 17.7024L35.8968 17.7017C36.224 17.1501 36.4201 16.5307 36.4699 15.8913C36.4699 15.8086 36.4647 15.7231 36.4519 15.6456C36.439 15.5676 36.4185 15.4987 36.3885 15.4487C36.3586 15.3989 36.3203 15.3693 36.2715 15.3661C36.2217 15.3628 36.1573 15.3864 36.0751 15.4521C35.7372 15.7435 35.4851 16.1215 35.3461 16.5455C35.2793 16.8126 35.2166 16.9778 35.1673 17.0889C35.1479 17.1328 35.1305 17.1683 35.1159 17.1981C35.1121 17.2059 35.1085 17.2133 35.105 17.2203C35.0885 17.2545 35.0771 17.2799 35.0712 17.3034L35.071 17.3041C35.0621 17.3331 35.0485 17.3554 35.0306 17.3728C35.0127 17.3901 34.9911 17.4018 34.967 17.4106C34.943 17.4193 34.916 17.4252 34.8872 17.4305C34.874 17.4329 34.8608 17.4351 34.8473 17.4373C34.8304 17.4401 34.8129 17.4431 34.7941 17.4466L34.7937 17.4467C34.3751 17.5119 33.9841 17.6959 33.6671 17.9768L33.6662 17.9776C33.2877 18.2578 32.892 18.5141 32.4815 18.7451C32.4401 18.7686 32.4034 18.7892 32.3705 18.8075C32.2804 18.858 32.2199 18.8918 32.1754 18.9235C32.116 18.9658 32.0861 19.0035 32.0537 19.0725L32.0535 19.0728C32.0201 19.1396 31.9866 19.2025 31.9551 19.2549C31.9238 19.3072 31.8939 19.35 31.8677 19.3763C31.8356 19.4084 31.8161 19.4398 31.8065 19.4727C31.7968 19.5055 31.7967 19.5407 31.8047 19.5809L31.8049 19.5818C31.8071 19.5997 31.807 19.631 31.8057 19.6683C31.8044 19.706 31.8018 19.751 31.7987 19.7969C31.7933 19.875 31.7865 19.956 31.782 20.0093C31.7813 20.0184 31.7806 20.0267 31.7799 20.034C31.78 20.0831 31.7863 20.1092 31.7948 20.1236C31.8023 20.1364 31.8123 20.1414 31.8266 20.1451C31.8404 20.1449 31.857 20.1411 31.8731 20.1259C31.8902 20.1097 31.9081 20.0793 31.9202 20.0224L31.9465 20.027C31.9427 20.0534 31.9491 20.0683 31.9576 20.0762C31.9664 20.0845 31.9804 20.0882 31.9971 20.0859C32.0312 20.0813 32.0665 20.0537 32.07 20.0156L32.0966 20.0168C32.0966 20.0453 32.1059 20.0584 32.1158 20.0639C32.1265 20.0698 32.1426 20.0698 32.1614 20.0618C32.199 20.0459 32.2366 20.0022 32.2366 19.9502ZM36.1799 26.8422C36.2314 26.8017 36.3138 26.7368 36.4416 26.7368H36.4423L36.4431 26.7369C36.5218 26.7457 36.5971 26.7892 36.6656 26.8439C36.7342 26.8988 36.7973 26.9662 36.8514 27.0244L36.8537 27.0269L36.8545 27.0301C36.8749 27.1075 36.8971 27.1437 36.9183 27.175C36.9202 27.1779 36.9222 27.1807 36.9241 27.1836C36.944 27.2126 36.9637 27.2413 36.9794 27.2965L36.9795 27.2967C36.9971 27.3628 36.9859 27.4283 36.9646 27.487C36.9433 27.5455 36.9115 27.5985 36.8866 27.64L36.886 27.6409L36.8856 27.6415C36.8619 27.6731 36.8437 27.7152 36.8315 27.757C36.8193 27.7988 36.8133 27.8392 36.8133 27.8668C36.8133 27.9175 36.8049 27.9783 36.7869 28.0145L36.7865 28.0152L36.786 28.0159C36.7782 28.0277 36.7682 28.0457 36.7601 28.0647C36.752 28.084 36.7466 28.1029 36.7466 28.1168C36.7466 28.1851 36.7296 28.2317 36.7001 28.2562C36.6728 28.279 36.6381 28.2803 36.6048 28.267C36.5905 28.2867 36.5692 28.3066 36.5462 28.32C36.5239 28.3331 36.4965 28.3418 36.472 28.3338C36.4504 28.368 36.4215 28.3917 36.3907 28.4023C36.3613 28.4125 36.3304 28.4105 36.3039 28.3944C36.2823 28.4272 36.2534 28.4485 36.2217 28.4559C36.1917 28.4629 36.1605 28.4571 36.1323 28.4389C36.1267 28.4512 36.118 28.4621 36.1077 28.4714C36.0921 28.4856 36.0721 28.497 36.0518 28.5052C36.0315 28.5135 36.0101 28.5188 35.9913 28.5203C35.9733 28.5218 35.9545 28.5202 35.942 28.5109M36.1583 26.8752L36.1509 26.8641C36.1592 26.8585 36.1689 26.8509 36.1799 26.8422M36.1734 26.8809C36.1858 26.9314 36.2051 26.9836 36.2239 27.0329C36.2254 27.0371 36.227 27.0412 36.2286 27.0453C36.2465 27.0923 36.2633 27.1365 36.2713 27.1721C36.2803 27.2083 36.2758 27.2341 36.2664 27.2564C36.2621 27.2665 36.2569 27.2759 36.252 27.2845L36.2511 27.286C36.2459 27.2953 36.2411 27.304 36.2373 27.3134L36.237 27.3143C36.1257 27.5451 36.0476 27.7904 36.0049 28.043C36.0046 28.096 35.9826 28.148 35.9586 28.1938C35.95 28.2104 35.9408 28.2265 35.9323 28.2417C35.9289 28.2477 35.9256 28.2536 35.9224 28.2593C35.9111 28.2796 35.9016 28.2975 35.8958 28.3132L35.8953 28.3144L35.8946 28.3156C35.8752 28.3466 35.8704 28.3737 35.8793 28.4001C35.8884 28.4274 35.9128 28.4566 35.9578 28.4894L35.9579 28.4895C35.9622 28.4927 35.9724 28.4952 35.9891 28.4938C36.0049 28.4925 36.0236 28.4879 36.0418 28.4805C36.06 28.4731 36.0771 28.4632 36.0898 28.4516C36.1026 28.44 36.1102 28.4276 36.1117 28.4152L36.1148 28.3906L36.1336 28.4067C36.1599 28.4293 36.189 28.4361 36.2157 28.4299C36.2425 28.4236 36.2689 28.4036 36.2883 28.3687L36.2961 28.3546L36.3085 28.3649C36.3295 28.3825 36.3558 28.3862 36.3821 28.3771C36.4086 28.368 36.4354 28.3455 36.455 28.3104L36.4616 28.2983L36.4735 28.3054C36.4878 28.314 36.509 28.3109 36.5328 28.297C36.556 28.2835 36.5772 28.2621 36.5885 28.2433L36.5949 28.2327L36.6059 28.2382C36.6362 28.2534 36.6634 28.2521 36.6831 28.2358C36.7036 28.2187 36.7199 28.1819 36.7199 28.1168C36.7199 28.0974 36.727 28.0746 36.7356 28.0544C36.7441 28.0342 36.7547 28.015 36.7634 28.0018C36.7784 27.9711 36.7866 27.9158 36.7866 27.8668C36.7866 27.8361 36.7931 27.7931 36.8059 27.7495C36.8186 27.7062 36.8378 27.661 36.8639 27.6261C36.8889 27.5844 36.9193 27.5335 36.9395 27.4779C36.9598 27.4221 36.9694 27.3626 36.9538 27.3037C36.9392 27.2528 36.9216 27.2271 36.9021 27.1986C36.9001 27.1957 36.8982 27.1929 36.8962 27.1899C36.874 27.1571 36.8506 27.1188 36.8296 27.0401C36.7759 26.9823 36.7148 26.9175 36.6489 26.8647C36.5822 26.8113 36.5119 26.7716 36.4409 26.7635C36.3239 26.7637 36.2504 26.8212 36.1986 26.8617C36.1895 26.8687 36.1812 26.8753 36.1734 26.8809ZM33.7481 27.4321L33.7579 27.4395C33.7902 27.4637 33.8497 27.4966 33.9112 27.5279C33.9724 27.559 34.0347 27.5881 34.072 27.6046L34.0894 27.6124L34.0762 27.6261C33.8639 27.8468 33.5556 27.8492 33.4075 27.7099L33.4166 27.7002L33.4109 27.6881C33.5362 27.629 33.6482 27.5451 33.74 27.4413L33.7481 27.4321ZM33.4406 27.7034C33.5782 27.8151 33.8474 27.8128 34.0436 27.6211C34.0056 27.6039 33.952 27.5785 33.8991 27.5516C33.8433 27.5232 33.7874 27.4927 33.7519 27.468C33.6638 27.5653 33.5582 27.6451 33.4406 27.7034Z" fill="black"/>
<path d="M34.7832 12.4164C34.8332 12.0831 35.0749 12.0831 35.2249 12.1248C35.2915 12.1331 35.4415 12.1498 35.5915 12.1081C35.8749 12.0331 36.0915 12.1331 36.0582 12.4081C36.1415 12.4664 36.2249 12.5998 36.1999 12.7164C36.1915 12.8331 36.2165 12.8831 36.3165 12.8914C36.4249 12.9081 36.6499 13.0414 36.4999 13.2248C36.6415 13.3081 36.7499 13.5331 36.6749 13.6748C36.5999 13.8248 36.3749 13.8498 36.2749 13.7164C36.1665 13.7664 35.9999 13.7748 35.8915 13.6664C35.8165 13.7498 35.6415 13.7414 35.5999 13.6664C35.5665 13.5831 35.5165 13.5498 35.4415 13.5248C35.3665 13.4998 35.3582 13.2914 35.4749 13.2664C35.4665 13.1998 35.4749 13.1331 35.4999 13.0998C35.5249 13.0664 35.4999 12.9998 35.4332 12.9498C35.3665 12.8914 35.3082 12.6998 35.3749 12.5831C35.2582 12.6248 35.0082 12.5081 34.9582 12.4331C34.8999 12.3498 34.8249 12.3498 34.7832 12.4164Z" fill="#870F00"/>
<path fill-rule="evenodd" clip-rule="evenodd" d="M35.9379 12.1379C35.8566 12.0903 35.7355 12.0834 35.5955 12.1204C35.4429 12.1628 35.2908 12.1458 35.224 12.1375L35.2231 12.1373L35.2222 12.1371C35.1484 12.1166 35.0537 12.1069 34.9721 12.1418C34.899 12.173 34.8339 12.241 34.8041 12.3755C34.8223 12.3617 34.8434 12.3548 34.8659 12.3563C34.9023 12.3588 34.9386 12.3827 34.9691 12.4262L34.9692 12.4264L34.9692 12.4264C34.9803 12.443 35.0035 12.4632 35.0354 12.4838C35.067 12.5042 35.1058 12.5241 35.1468 12.5405C35.1878 12.5569 35.2307 12.5696 35.2701 12.5757C35.3098 12.5818 35.3449 12.581 35.3713 12.5716L35.4031 12.5602L35.3864 12.5896C35.3551 12.6442 35.3527 12.7178 35.3669 12.786C35.3812 12.8543 35.4114 12.9136 35.4417 12.9403C35.4763 12.9664 35.5006 12.9971 35.5131 13.0264C35.5254 13.0555 35.5268 13.0858 35.5105 13.1075C35.4998 13.1218 35.4919 13.1445 35.4879 13.1726C35.4839 13.2006 35.4839 13.2328 35.4879 13.2652L35.4893 13.2765L35.4781 13.2789C35.4281 13.2896 35.4025 13.3403 35.3995 13.3966C35.398 13.4242 35.4022 13.4515 35.4109 13.473C35.4198 13.4948 35.4323 13.5086 35.4461 13.5132C35.4844 13.5259 35.5173 13.5411 35.545 13.5644C35.5727 13.5877 35.5946 13.6185 35.6118 13.6613C35.6206 13.6766 35.6365 13.6894 35.658 13.6986C35.6797 13.7079 35.7062 13.7131 35.7341 13.7136C35.7902 13.7146 35.8486 13.6964 35.8829 13.6584L35.8917 13.6486L35.901 13.6579C36.0043 13.7612 36.1647 13.7541 36.2703 13.7054L36.2794 13.7011L36.2855 13.7092C36.3324 13.7718 36.409 13.7977 36.4836 13.7897C36.5581 13.7817 36.629 13.7401 36.6643 13.6695L36.6645 13.6692L36.6645 13.6692C36.6995 13.603 36.6924 13.5156 36.6577 13.433C36.6232 13.3506 36.5623 13.2759 36.4942 13.2358L36.4816 13.2284L36.4908 13.2171C36.5269 13.1731 36.5394 13.1333 36.5379 13.0985C36.5364 13.0636 36.5205 13.0318 36.4963 13.0041C36.4476 12.9484 36.3674 12.9122 36.3157 12.9041C36.2642 12.8998 36.2283 12.8843 36.2076 12.8515C36.1876 12.8197 36.1839 12.7744 36.188 12.7158L36.1881 12.715L36.1883 12.7141C36.2 12.6595 36.1865 12.5999 36.1592 12.5463C36.1319 12.4928 36.0915 12.4465 36.0517 12.4186L36.0455 12.4143L36.0464 12.4069C36.0626 12.2732 36.0181 12.1849 35.9379 12.1379ZM34.7838 12.4167L34.7715 12.4149C34.797 12.2449 34.872 12.1573 34.9623 12.1188C35.0511 12.0808 35.1519 12.0918 35.228 12.1128C35.2949 12.1211 35.4421 12.1371 35.5888 12.0963L35.589 12.0963L35.589 12.0963C35.7323 12.0584 35.8611 12.064 35.9506 12.1163C36.0396 12.1685 36.0867 12.2651 36.0721 12.4025C36.1135 12.4332 36.1538 12.4808 36.1814 12.535C36.2103 12.5916 36.2259 12.6567 36.2129 12.7185C36.2089 12.7761 36.2135 12.8139 36.2288 12.8382C36.2435 12.8615 36.27 12.8752 36.3182 12.8793L36.3191 12.8793L36.3191 12.8794C36.3758 12.8881 36.4619 12.9268 36.5151 12.9877C36.542 13.0183 36.561 13.0553 36.5629 13.0974C36.5646 13.1364 36.5515 13.1782 36.5189 13.2218C36.5874 13.2663 36.6465 13.3417 36.6808 13.4233C36.7169 13.5095 36.7265 13.6053 36.6866 13.6808C36.6469 13.7601 36.5678 13.8059 36.4862 13.8146C36.4076 13.8229 36.3251 13.7971 36.2717 13.7321C36.1635 13.7785 36.0027 13.7855 35.8925 13.6843C35.8514 13.723 35.7899 13.7396 35.7336 13.7386C35.7031 13.738 35.6734 13.7323 35.6482 13.7216C35.6231 13.7108 35.6018 13.6947 35.5896 13.6728L35.5892 13.6721L35.5889 13.6714C35.5729 13.6313 35.5531 13.6039 35.5289 13.5836C35.5046 13.5631 35.475 13.5492 35.4382 13.5369C35.4145 13.529 35.3979 13.5074 35.3878 13.4824C35.3775 13.457 35.3728 13.4259 35.3745 13.3952C35.3775 13.3382 35.4031 13.2763 35.4619 13.2574C35.4589 13.2268 35.4593 13.1963 35.4631 13.1691C35.4674 13.139 35.4762 13.1116 35.4905 13.0925C35.4992 13.081 35.5007 13.0613 35.49 13.0362C35.4796 13.0115 35.4583 12.984 35.4263 12.96L35.4256 12.9595L35.4256 12.9595C35.3894 12.9278 35.3573 12.8622 35.3424 12.7911C35.3295 12.729 35.3291 12.6598 35.3526 12.602C35.3264 12.6062 35.2968 12.6051 35.2663 12.6004C35.2245 12.594 35.1799 12.5807 35.1375 12.5637C35.0952 12.5468 35.0549 12.5261 35.0219 12.5048C34.9892 12.4838 34.9625 12.4613 34.9485 12.4404C34.9207 12.4007 34.8904 12.383 34.8643 12.3813C34.8387 12.3796 34.8134 12.3929 34.7944 12.4233L34.7838 12.4167Z" fill="black"/>
<path fill-rule="evenodd" clip-rule="evenodd" d="M34.933 12.371C34.9344 12.3832 34.9401 12.3956 34.9518 12.4072L34.9329 12.4261C34.9175 12.4106 34.9086 12.3928 34.9065 12.374C34.9043 12.3553 34.9089 12.3366 34.9186 12.3196C34.9379 12.2856 34.9775 12.2571 35.0293 12.2423C35.1337 12.2127 35.2905 12.2378 35.4515 12.3903L35.4518 12.3905C35.482 12.4208 35.5306 12.4369 35.5784 12.443C35.602 12.446 35.6249 12.4465 35.6442 12.4453C35.6638 12.444 35.6789 12.441 35.6874 12.4376L35.6973 12.4623C35.685 12.4673 35.6667 12.4705 35.6459 12.4719C35.6249 12.4732 35.6004 12.4727 35.575 12.4694C35.5249 12.463 35.4694 12.4458 35.433 12.4095C35.2774 12.2621 35.1301 12.2414 35.0366 12.268C34.9895 12.2814 34.9567 12.3065 34.9418 12.3327C34.9345 12.3457 34.9316 12.3587 34.933 12.371ZM35.6167 12.588C35.5401 12.5719 35.4526 12.5799 35.3786 12.5963L35.3728 12.5703C35.4488 12.5534 35.5404 12.5447 35.6222 12.5619C35.7043 12.5792 35.7776 12.623 35.8131 12.7117C35.8289 12.7513 35.8477 12.773 35.8679 12.7869C35.8872 12.8002 35.9084 12.807 35.9328 12.8148C35.9345 12.8153 35.9363 12.8159 35.9381 12.8164C35.9643 12.8248 35.9932 12.8347 36.0219 12.8559C36.0507 12.8771 36.0785 12.9091 36.1042 12.9606C36.1541 13.0562 36.2156 13.154 36.2841 13.2094C36.3181 13.237 36.3529 13.2532 36.3881 13.2545C36.423 13.2558 36.4604 13.2424 36.5001 13.2067L36.5179 13.2265C36.4743 13.2658 36.4304 13.2827 36.3872 13.2811C36.3442 13.2796 36.304 13.2598 36.2673 13.2301C36.1941 13.171 36.1306 13.0688 36.0805 12.9728L36.0804 12.9726C36.0562 12.9241 36.0309 12.8957 36.006 12.8774C35.9811 12.859 35.9558 12.8501 35.9299 12.8418C35.928 12.8412 35.926 12.8406 35.924 12.8399C35.9003 12.8324 35.8755 12.8245 35.8527 12.8089C35.8276 12.7915 35.8058 12.7653 35.7883 12.7216C35.7571 12.6436 35.6929 12.6041 35.6167 12.588ZM35.8379 13.2633C35.8349 13.3142 35.8434 13.3618 35.869 13.3912L35.8739 13.3967L35.8718 13.4038C35.8591 13.4463 35.8553 13.4911 35.8608 13.5352C35.8663 13.5792 35.881 13.6217 35.9038 13.6598L35.8809 13.6735C35.8562 13.6322 35.8403 13.5862 35.8344 13.5385C35.8287 13.4931 35.8321 13.447 35.8443 13.403C35.8155 13.3658 35.8083 13.3123 35.8113 13.2617C35.8145 13.208 35.8295 13.1541 35.8471 13.119L35.8709 13.1309C35.8551 13.1625 35.841 13.2128 35.8379 13.2633ZM34.5855 13.2364L34.5021 13.1864L34.5159 13.1635L34.5992 13.2135L34.5855 13.2364ZM35.4787 13.3237C35.4685 13.304 35.4623 13.2841 35.4623 13.2666H35.489C35.489 13.2783 35.4933 13.2939 35.5024 13.3114C35.5113 13.3288 35.5246 13.3473 35.5415 13.3646C35.5753 13.3995 35.6228 13.4289 35.6776 13.4368L35.6738 13.4632C35.6119 13.4543 35.5594 13.4213 35.5224 13.3832C35.5038 13.3641 35.489 13.3436 35.4787 13.3237ZM34.4932 13.4111L34.4521 13.3864L34.4659 13.3635L34.5081 13.3889L34.5087 13.3893C34.5387 13.4118 34.5853 13.42 34.6173 13.42V13.4466C34.5829 13.4466 34.5299 13.4382 34.4932 13.4111ZM36.2472 13.4522C36.2305 13.552 36.2234 13.6299 36.2861 13.7083L36.2653 13.725C36.1946 13.6367 36.2042 13.5479 36.2209 13.4478L36.2472 13.4522ZM35.0757 13.8357C35.0193 13.866 34.955 13.9003 34.8608 13.9132L34.8572 13.8868C34.9463 13.8746 35.007 13.8423 35.0631 13.8122L35.0652 13.811C35.1203 13.7814 35.1727 13.7533 35.2423 13.7533V13.78C35.1795 13.78 35.1323 13.8053 35.0757 13.8357Z" fill="black"/>
<path fill-rule="evenodd" clip-rule="evenodd" d="M35.6285 12.1869C35.7922 12.219 35.9442 12.295 36.0681 12.4067L36.0503 12.4265C35.9299 12.318 35.7823 12.2443 35.6233 12.2131L35.6285 12.1869ZM35.5994 12.8997C35.5756 12.8521 35.5625 12.798 35.5625 12.75H35.5892C35.5892 12.7936 35.6012 12.8436 35.6232 12.8878C35.6453 12.932 35.6769 12.9689 35.7152 12.988L35.7192 12.99L35.7211 12.994C35.745 13.0417 35.8326 13.1694 36.0248 13.1534L36.027 13.1799C35.8242 13.1968 35.7281 13.0649 35.6993 13.0099C35.6561 12.9869 35.6224 12.9458 35.5994 12.8997ZM34.6794 16.1353C34.6122 15.6987 34.7129 15.3867 34.8818 15.1587L34.9033 15.1746C34.7389 15.3965 34.6396 15.7011 34.7057 16.131C34.7473 16.3475 34.7975 16.6152 34.7986 16.8645C34.7996 17.1134 34.7517 17.3475 34.5932 17.4931L34.5752 17.4735C34.7251 17.3358 34.773 17.1116 34.7719 16.8646C34.7709 16.6181 34.7212 16.3527 34.6795 16.1358L34.6794 16.1353L34.6794 16.1353ZM35.7635 18.2773C35.8931 18.2678 36.0279 18.2826 36.1377 18.3121L36.1307 18.3378C36.0238 18.3091 35.892 18.2946 35.7654 18.3039C35.6386 18.3132 35.5186 18.3461 35.434 18.4106L35.4339 18.4106C35.3478 18.4752 35.2283 18.5091 35.1067 18.5143C34.985 18.5196 34.8597 18.4964 34.7614 18.4451L34.7737 18.4215C34.8671 18.4702 34.9876 18.4928 35.1055 18.4877C35.2235 18.4826 35.3373 18.4497 35.4179 18.3893" fill="black"/>
<path fill-rule="evenodd" clip-rule="evenodd" d="M36.0047 18.4078C36.0476 18.4992 36.0726 18.6495 36.0726 18.8833H36.0459C36.0459 18.6504 36.0209 18.505 35.9805 18.4192C35.9605 18.3766 35.9369 18.3494 35.9115 18.3332C35.8934 18.3218 35.8738 18.3155 35.8528 18.3136C35.844 18.3134 35.8351 18.3133 35.8259 18.3133L35.8251 18.2867C35.8349 18.2861 35.8446 18.2861 35.8541 18.2869C35.8899 18.2878 35.9246 18.2912 35.9572 18.3029C35.9991 18.3179 36.0367 18.3462 36.0704 18.3979C36.1369 18.4998 36.1892 18.6945 36.2308 19.0651L36.2309 19.0655L36.2309 19.0655C36.2679 19.4856 36.3415 19.6932 36.4353 19.9579C36.4675 20.0491 36.5022 20.147 36.5386 20.2626L36.5387 20.2628C36.7101 20.8314 36.7517 21.5518 36.7726 22.2068C36.7761 22.3168 36.779 22.4249 36.7818 22.5301C36.7874 22.7387 36.7927 22.9362 36.8017 23.1148C36.8153 23.3837 36.8371 23.6084 36.8804 23.763L36.8547 23.7702C36.8106 23.6124 36.7886 23.385 36.7751 23.1161C36.7661 22.9372 36.7608 22.7392 36.7551 22.5304C36.7523 22.4252 36.7494 22.3173 36.7459 22.2077C36.7251 21.5524 36.6834 20.8353 36.5132 20.2706C36.4772 20.1563 36.4428 20.0591 36.4106 19.9683C36.3165 19.7027 36.2417 19.4916 36.2043 19.068C36.1626 18.697 36.1107 18.5084 36.0481 18.4125C36.0173 18.3653 35.9842 18.341 35.9485 18.3281C35.9698 18.3474 35.9886 18.3737 36.0047 18.4078ZM35.4464 18.4385C35.4934 18.35 35.566 18.3041 35.6653 18.2868L35.6699 18.3131C35.5775 18.3292 35.5126 18.3708 35.47 18.451C35.4268 18.5324 35.4059 18.6547 35.4059 18.8333C35.4059 18.9474 35.3971 19.0795 35.3875 19.223C35.3823 19.3001 35.3769 19.3805 35.3726 19.4632C35.3601 19.7004 35.356 19.9578 35.3891 20.2149L35.3627 20.2183C35.3292 19.9588 35.3334 19.6996 35.3459 19.4618C35.3503 19.3781 35.3558 19.2972 35.3609 19.2199C35.3705 19.0771 35.3793 18.9466 35.3793 18.8333C35.3793 18.6536 35.4001 18.5259 35.4464 18.4385ZM35.2915 18.4527C35.302 18.4503 35.3125 18.4479 35.3227 18.4454L35.3292 18.4712C35.3178 18.4741 35.3068 18.4766 35.296 18.4791C35.2739 18.4842 35.2529 18.489 35.2327 18.4956C35.203 18.5053 35.1771 18.5182 35.1563 18.5395C35.1148 18.5819 35.0893 18.662 35.1059 18.832L35.0793 18.8346C35.0626 18.6629 35.087 18.5722 35.1372 18.5209C35.1622 18.4953 35.1925 18.4806 35.2244 18.4702C35.2458 18.4633 35.2688 18.458 35.2915 18.4527ZM34.7409 18.5697C34.7056 18.6371 34.685 18.735 34.6809 18.8339L34.6543 18.8327C34.6585 18.7316 34.6795 18.6295 34.7172 18.5573C34.7361 18.5213 34.7596 18.4916 34.7883 18.4739C34.8175 18.4559 34.8512 18.4507 34.8882 18.4622L34.8803 18.4877C34.8506 18.4784 34.825 18.4826 34.8023 18.4966C34.7792 18.5109 34.7585 18.536 34.7409 18.5697ZM35.7468 23.1203C36.2442 21.8012 36.256 20.3481 35.78 19.0211L35.8051 19.0121C36.2827 20.3435 36.2714 21.8013 35.7735 23.1251C35.9341 23.5732 36.0947 23.9716 36.2342 24.3177C36.2678 24.401 36.3001 24.4813 36.331 24.5586C36.4902 24.9571 36.6096 25.2753 36.6474 25.5062L36.6211 25.5105C36.5839 25.283 36.4658 24.9678 36.3062 24.5685C36.2754 24.4913 36.2431 24.4111 36.2095 24.3278C36.0695 23.9805 35.9081 23.58 35.7467 23.1295L35.745 23.1249L35.7468 23.1203ZM34.7705 19.9572C34.7621 20.0729 34.7348 20.2196 34.6889 20.4032L34.6888 20.4033C34.5808 20.8229 34.5895 21.0375 34.6161 21.1766C34.6228 21.2116 34.6306 21.2419 34.6382 21.2699C34.6395 21.2748 34.6408 21.2796 34.6421 21.2844C34.6482 21.3068 34.654 21.328 34.6585 21.3487C34.6695 21.3997 34.6728 21.4489 34.6554 21.5119L34.6297 21.5048C34.6457 21.4469 34.6428 21.4023 34.6324 21.3543C34.6281 21.3344 34.6226 21.314 34.6165 21.2917C34.6151 21.2868 34.6138 21.2819 34.6124 21.2768C34.6048 21.2487 34.5968 21.2176 34.5899 21.1816C34.5623 21.0375 34.5543 20.8188 34.663 20.3967C34.7087 20.2137 34.7356 20.0687 34.7439 19.9553C34.7521 19.8415 34.7416 19.7611 34.714 19.7059L34.7378 19.694C34.7686 19.7555 34.7789 19.8417 34.7705 19.9572Z" fill="black"/>
<path fill-rule="evenodd" clip-rule="evenodd" d="M34.7171 20.5314C34.6979 20.4058 34.6908 20.2912 34.7122 20.197L34.7382 20.2029C34.7179 20.292 34.7244 20.4025 34.7434 20.5274C34.7571 20.6168 34.7771 20.7125 34.7978 20.8123C34.8061 20.8519 34.8145 20.8921 34.8226 20.9328C34.8799 21.2179 34.9266 21.5254 34.8378 21.7876L34.8126 21.779C34.8988 21.5245 34.8538 21.2237 34.7965 20.938C34.7884 20.8978 34.7801 20.8579 34.7719 20.8184C34.751 20.7184 34.7309 20.6216 34.7171 20.5314ZM34.3834 22.356C34.3684 22.1895 34.3535 22.024 34.3535 21.875H34.3802C34.3802 22.0227 34.395 22.1869 34.41 22.3537C34.4119 22.3742 34.4137 22.3948 34.4155 22.4155C34.4322 22.6029 34.4469 22.7913 34.4385 22.959L34.4385 22.959C34.4257 23.2091 34.5023 23.3525 34.6085 23.5512C34.6384 23.6071 34.6706 23.6674 34.7038 23.7357C35.2704 24.8522 35.6387 25.6467 35.5968 26.7005L35.5968 26.7011L35.5968 26.7011C35.5929 26.7475 35.5936 26.8049 35.5944 26.8681L35.5945 26.8798C35.5953 26.9472 35.5958 27.0201 35.5906 27.0906C35.5853 27.1609 35.5742 27.2296 35.5514 27.2884C35.5285 27.3473 35.4936 27.397 35.4402 27.4282L35.4268 27.4051C35.4734 27.3779 35.5052 27.3339 35.5266 27.2787C35.548 27.2235 35.5588 27.1578 35.564 27.0886C35.5691 27.0194 35.5686 26.9476 35.5678 26.8801C35.5678 26.876 35.5677 26.8719 35.5677 26.8679C35.567 26.8054 35.5663 26.7468 35.5702 26.6992C35.6116 25.6532 35.2466 24.8644 34.68 23.7477L34.6799 23.7475C34.6476 23.6812 34.616 23.6221 34.5864 23.5667C34.4793 23.3665 34.3986 23.2157 34.4119 22.9576C34.4119 22.9576 34.4119 22.9576 34.4119 22.9576L34.4252 22.9583L34.4119 22.9576C34.4119 22.9576 34.4119 22.9576 34.4119 22.9576C34.4201 22.792 34.4057 22.6054 34.389 22.4178C34.3872 22.3972 34.3853 22.3766 34.3834 22.356ZM34.7885 25.5823C34.8374 26.2296 34.7695 26.8804 34.588 27.5037L34.5877 27.5046L34.5873 27.5054C34.5496 27.5894 34.5154 27.6413 34.4822 27.6722C34.4484 27.7038 34.4159 27.7133 34.3835 27.7133V27.6866C34.4094 27.6866 34.4353 27.6795 34.464 27.6527C34.4932 27.6254 34.5256 27.5776 34.5626 27.4954C34.743 26.8754 34.8105 26.2281 34.7619 25.5843L34.7885 25.5823ZM34.7711 27.4118C34.9117 27.0479 34.9118 26.6004 34.8787 26.3853L34.905 26.3813C34.9386 26.5996 34.9387 27.052 34.796 27.4214L34.7711 27.4118Z" fill="black"/>
<path fill-rule="evenodd" clip-rule="evenodd" d="M32.8757 12.3727L33.2507 12.0894L33.2668 12.1106L32.8918 12.394L32.8757 12.3727ZM33.3418 12.1765C33.3505 12.1727 33.3592 12.17 33.3671 12.17V12.1967C33.3647 12.1967 33.36 12.1976 33.3525 12.2009C33.3452 12.2041 33.3363 12.209 33.3255 12.2157C33.3039 12.2292 33.2762 12.2492 33.2418 12.2752C33.2119 12.2979 33.1773 12.3249 33.1376 12.3558C33.1318 12.3603 33.1259 12.3649 33.1198 12.3696C33.0727 12.4064 33.019 12.4481 32.9585 12.494L32.9424 12.4727C33.0027 12.4269 33.0563 12.3853 33.1035 12.3486C33.1095 12.3439 33.1154 12.3393 33.1212 12.3347C33.1609 12.3038 33.1957 12.2767 33.2257 12.2539C33.2601 12.2279 33.2887 12.2073 33.3114 12.1931C33.3227 12.186 33.3329 12.1804 33.3418 12.1765ZM32.641 12.4322L32.7744 12.2989L32.7932 12.3178L32.6599 12.4511L32.641 12.4322ZM33.2107 12.4314C33.2707 12.3817 33.3265 12.3385 33.3705 12.3209L33.3804 12.3457C33.341 12.3615 33.2885 12.4016 33.2277 12.4519C33.2116 12.4653 33.195 12.4793 33.178 12.4936C33.1316 12.5326 33.0825 12.5739 33.0335 12.6107L33.0175 12.5893C33.0658 12.553 33.1141 12.5125 33.1603 12.4736C33.1774 12.4592 33.1942 12.445 33.2107 12.4314ZM31.9457 19.8996C31.9464 19.9367 31.9471 19.978 31.9471 20.025H31.9205C31.9205 19.9796 31.9197 19.9391 31.919 19.9022C31.9178 19.8318 31.9167 19.7749 31.9216 19.7237C31.9291 19.6444 31.9507 19.5778 32.0059 19.4927L32.0283 19.5073C31.9752 19.5889 31.9552 19.6514 31.9481 19.7263C31.9434 19.7759 31.9444 19.8304 31.9457 19.8996ZM32.101 19.9296C32.0998 19.9565 32.0985 19.9856 32.0971 20.0173L32.0705 20.0161C32.0719 19.9848 32.0731 19.9559 32.0743 19.9292C32.0798 19.7998 32.0832 19.7204 32.0947 19.664C32.1017 19.6294 32.1119 19.6028 32.1276 19.5782C32.1433 19.5538 32.1641 19.5321 32.1914 19.5069L32.2095 19.5265C32.1826 19.5512 32.1639 19.5712 32.1501 19.5926C32.1364 19.6139 32.1273 19.6372 32.1208 19.6693C32.1098 19.7234 32.1065 19.8001 32.101 19.9296ZM32.2666 19.9008C32.2659 19.9174 32.2652 19.934 32.2637 19.9511L32.2372 19.9489C32.2384 19.9338 32.2391 19.9183 32.2398 19.9022C32.2413 19.8672 32.2429 19.8296 32.2509 19.7891C32.2628 19.7288 32.2886 19.6604 32.3479 19.5757L32.3697 19.591C32.3124 19.6729 32.2881 19.7379 32.2771 19.7942C32.2695 19.8328 32.268 19.8668 32.2666 19.9008ZM36.2477 25.8386C36.1026 25.4067 35.951 24.9556 35.7809 24.6905L35.8033 24.6761C35.9753 24.9441 36.1278 25.398 36.2723 25.8281C36.2793 25.849 36.2863 25.8698 36.2933 25.8905C36.3688 26.1151 36.4424 26.3305 36.5158 26.5075C36.5894 26.6851 36.6619 26.8217 36.7346 26.8903L36.7163 26.9097C36.639 26.8367 36.5646 26.6951 36.4911 26.5177C36.4174 26.3398 36.3435 26.1234 36.268 25.899C36.2613 25.879 36.2545 25.8588 36.2477 25.8386ZM35.2542 26.9134C35.3286 26.6159 35.3288 26.1929 35.2457 25.7273L35.2719 25.7227C35.3554 26.1904 35.3557 26.6174 35.2801 26.9199L35.2542 26.9134ZM36.0897 26.4292C36.1034 26.5157 36.1055 26.6082 36.1055 26.6833H36.0788C36.0788 26.6085 36.0767 26.5177 36.0633 26.4333C36.0499 26.3485 36.0254 26.2727 35.9823 26.2257L36.002 26.2077C36.0505 26.2607 36.076 26.3431 36.0897 26.4292ZM35.0653 27.0223C35.0606 26.9823 35.0565 26.9466 35.0538 26.9179L35.0804 26.9155C35.0829 26.9431 35.087 26.978 35.0916 27.0174C35.1021 27.1069 35.1154 27.2198 35.119 27.3235C35.1216 27.3983 35.1193 27.4697 35.1071 27.5254C35.0951 27.58 35.0723 27.6251 35.0292 27.6378L35.0217 27.6122C35.0494 27.604 35.0693 27.5731 35.081 27.5197C35.0925 27.4673 35.0949 27.3986 35.0923 27.3244C35.0887 27.2218 35.0758 27.1114 35.0653 27.0223ZM36.5951 28.2376C36.5949 28.2374 36.5939 28.2367 36.5921 28.2367V28.2633C36.5799 28.2633 36.5728 28.254 36.5694 28.2457C36.5658 28.2372 36.5642 28.2258 36.5642 28.2125C36.5642 28.1856 36.5709 28.1466 36.5878 28.0958L36.6131 28.1042C36.5967 28.1534 36.5909 28.1894 36.5909 28.2125C36.5909 28.2242 36.5924 28.2315 36.594 28.2355C36.595 28.2378 36.5955 28.238 36.5951 28.2376ZM36.4523 28.2579C36.4533 28.2848 36.4627 28.2996 36.4731 28.3047L36.4612 28.3286C36.4382 28.3171 36.4268 28.2902 36.4257 28.2588C36.4245 28.2269 36.4336 28.1872 36.4552 28.144L36.479 28.156C36.4589 28.1962 36.4514 28.2314 36.4523 28.2579ZM36.3083 28.34C36.3095 28.3548 36.3132 28.3617 36.3168 28.3643L36.3008 28.3857C36.2877 28.3758 36.2831 28.3587 36.2817 28.3422C36.2803 28.3251 36.282 28.3046 36.2852 28.2834C36.2899 28.2522 36.298 28.2174 36.3053 28.1865C36.3079 28.1755 36.3103 28.1651 36.3124 28.1554L36.3385 28.1612C36.3362 28.1715 36.3336 28.1824 36.331 28.1936C36.3238 28.2242 36.3161 28.2573 36.3116 28.2874C36.3085 28.3079 36.3071 28.3259 36.3083 28.34ZM36.1342 28.4061C36.1346 28.407 36.1349 28.4072 36.1349 28.4072L36.116 28.4261C36.112 28.422 36.1093 28.4167 36.1075 28.4115C36.1056 28.4061 36.1042 28.3999 36.1033 28.3931C36.1014 28.3795 36.1012 28.3626 36.1028 28.3436C36.106 28.3057 36.1168 28.2584 36.1383 28.2111L36.1626 28.2222C36.1424 28.2666 36.1324 28.3109 36.1294 28.3459C36.1279 28.3635 36.1282 28.3783 36.1297 28.3895C36.1304 28.395 36.1315 28.3994 36.1326 28.4026C36.1332 28.4042 36.1337 28.4053 36.1342 28.4061Z" fill="black"/>
<path d="M34.7077 12.725C34.7744 12.8083 34.8494 12.8083 34.8577 12.8583C34.8744 12.925 34.8827 12.925 34.891 12.9416C34.9077 12.9583 34.8577 12.9583 34.841 12.9416H34.7244C34.691 12.9416 34.6577 12.9 34.6744 12.9C34.6994 12.8916 34.6994 12.8833 34.691 12.8666C34.691 12.8416 34.7077 12.8166 34.7244 12.8083L34.716 12.7833C34.6994 12.7583 34.691 12.7 34.7077 12.7166V12.725ZM34.7494 12.6333C34.855 12.6484 34.9537 12.6948 35.0327 12.7666C35.091 12.8333 35.041 12.8166 35.016 12.8166C34.991 12.8166 34.9327 12.8 34.8994 12.7666C34.8557 12.7207 34.8013 12.6864 34.741 12.6666C34.716 12.6666 34.691 12.6333 34.741 12.6333H34.7494Z" fill="black"/>
<path d="M-7 0H19.6667V20H-7V0Z" fill="#012169"/>
<path d="M-3.875 0L6.29167 7.54167L16.4167 0H19.6667V2.58333L9.66667 10.0417L19.6667 17.4583V20H16.3333L6.33333 12.5417L-3.625 20H-7V17.5L2.95833 10.0833L-7 2.66667V0H-3.875Z" fill="white"/>
<path d="M10.6667 11.7083L19.6667 18.3333V20L8.375 11.7083H10.6667ZM3 12.5417L3.25 14L-4.75 20H-7L3 12.5417ZM19.6667 0V0.125L9.29167 7.95833L9.375 6.125L17.5833 0H19.6667ZM-7 0L2.95833 7.33333H0.458333L-7 1.75V0Z" fill="#C8102E"/>
<path d="M3.04167 0V20H9.70833V0H3.04167ZM-7 6.66667V13.3333H19.6667V6.66667H-7Z" fill="white"/>
<path d="M-7 8.04167V12.0417H19.6667V8.04167H-7ZM4.375 0V20H8.375V0H4.375Z" fill="#C8102E"/>
</g>
<defs>
<clipPath id="clip0_8424_43223">
<rect width="40" height="40" rx="20" fill="white"/>
</clipPath>
</defs>
</svg>
