<svg width="40" height="40" viewBox="0 0 40 40" fill="none" xmlns="http://www.w3.org/2000/svg">
<g clip-path="url(#clip0_8424_43234)">
<path d="M46.3333 0H-7V40H46.3333V0Z" fill="#C1272D"/>
<path fill-rule="evenodd" clip-rule="evenodd" d="M19.6667 13.3721L21.1578 17.9626H25.9691L22.0752 20.787L23.5598 25.3577L19.6667 22.5339L15.7735 25.3577L17.2582 20.787L13.3643 17.9626H18.1756L19.6667 13.3721ZM17.8589 18.9376H16.3691L17.5748 19.8121L17.8589 18.9376ZM18.4045 20.4139L18.884 18.9376H20.4493L20.9288 20.4139L19.6667 21.3294L18.4045 20.4139ZM18.0879 21.3887L17.6265 22.8092L18.8364 21.9316L18.0879 21.3887ZM20.497 21.9316L21.7069 22.8092L21.2455 21.3887L20.497 21.9316ZM21.7585 19.8121L22.9643 18.9376H21.4745L21.7585 19.8121ZM20.1326 17.9626H19.2007L19.6667 16.5281L20.1326 17.9626Z" fill="#006233"/>
</g>
<defs>
<clipPath id="clip0_8424_43234">
<rect width="40" height="40" rx="20" fill="white"/>
</clipPath>
</defs>
</svg>
