<svg width="56" height="56" viewBox="0 0 56 56" fill="none" xmlns="http://www.w3.org/2000/svg">
<g clip-path="url(#clip0_3318_24937)">
<path d="M28 56C43.464 56 56 43.464 56 28C56 12.536 43.464 0 28 0C12.536 0 0 12.536 0 28C0 43.464 12.536 56 28 56Z" fill="#D80027"/>
<path d="M44.5474 22.9786H31.9065L28.0002 10.9565L24.094 22.9786H11.4531L21.6798 30.4087L17.7735 42.431L28.0002 35.0009L38.227 42.4312L34.3207 30.4088L44.5474 22.9786ZM24.542 29.4786L25.8629 25.4133H30.1374L31.4585 29.4786V29.4788L28.0002 31.9912L24.5421 29.4788L24.542 29.4786ZM29.3464 22.9786H26.6542L28.0002 18.8355L29.3464 22.9786ZM33.5295 27.974L32.6975 25.4134H37.0538L33.5295 27.974ZM23.3029 25.4134L22.4709 27.974L18.9465 25.4134H23.3029ZM22.4047 36.0567L23.7509 31.9137L25.9291 33.4961L22.4047 36.0567ZM30.0714 33.4962L32.2496 31.9138L33.5958 36.0568L30.0714 33.4962Z" fill="#FFDA44"/>
</g>
<defs>
<clipPath id="clip0_3318_24937">
<rect width="56" height="56" fill="white"/>
</clipPath>
</defs>
</svg>
