<svg width="40" height="40" viewBox="0 0 40 40" fill="none" xmlns="http://www.w3.org/2000/svg">
<g clip-path="url(#clip0_8424_43217)">
<path fill-rule="evenodd" clip-rule="evenodd" d="M-10 0H50V12.5H-10V0Z" fill="#009A00"/>
<path fill-rule="evenodd" clip-rule="evenodd" d="M-10 12.5H50V13.75H-10V12.5Z" fill="white"/>
<path fill-rule="evenodd" clip-rule="evenodd" d="M-10 13.75H50V26.25H-10V13.75Z" fill="black"/>
<path fill-rule="evenodd" clip-rule="evenodd" d="M-10 26.25H50V27.5H-10V26.25Z" fill="white"/>
<path fill-rule="evenodd" clip-rule="evenodd" d="M-10 27.5H50V40H-10V27.5Z" fill="#FFCA00"/>
<path fill-rule="evenodd" clip-rule="evenodd" d="M-10 0V40L16.25 20L-10 0Z" fill="#FF0000"/>
<path fill-rule="evenodd" clip-rule="evenodd" d="M5.50781 26.0156L1.50781 23.0859L-2.49219 26.0156L-0.9375 21.3047L-4.96094 18.4063L0 18.4219L1.50781 13.7031L3.02344 18.4297L7.98438 18.4063L3.96094 21.3047L5.50781 26.0156Z" fill="#FFCA00"/>
<path fill-rule="evenodd" clip-rule="evenodd" d="M-1.96875 22.7266H0.921875C1.15625 22.9844 1.66406 23.0937 2.15625 22.7266C3.0625 22.2266 4.8125 22.7266 4.8125 22.7266L5.15625 22.3594L4.32031 19.6094L4.01562 19.2813C4.01562 19.2813 3.36719 18.8906 2.14062 19.0234C0.914062 19.1562 0.484375 18.9844 0.484375 18.9844C0.484375 18.9844 -0.585938 19.1094 -0.890625 19.2656L-1.23438 19.6094L-1.96875 22.7266Z" fill="white"/>
<path fill-rule="evenodd" clip-rule="evenodd" d="M0.500333 18.9445C0.500343 18.9445 0.500323 18.9445 0.500333 18.9445C0.50032 18.9445 0.500232 18.9444 0.500219 18.9444C0.49361 18.9418 0.486454 18.9409 0.479391 18.9417L0.484375 18.9844C0.479391 18.9417 0.479401 18.9417 0.479391 18.9417L0.476235 18.9421L0.467139 18.9432C0.459171 18.9441 0.447466 18.9455 0.432474 18.9474C0.40249 18.9512 0.359349 18.9567 0.306641 18.9638C0.201249 18.978 0.0574813 18.9985 -0.0959094 19.024C-0.24921 19.0495 -0.412598 19.0799 -0.557083 19.1139C-0.700448 19.1477 -0.828989 19.1857 -0.910233 19.2274C-0.914211 19.2294 -0.917847 19.2321 -0.921009 19.2352L-1.26476 19.579C-1.27041 19.5846 -1.27437 19.5917 -1.2762 19.5995L-2.01036 22.7158C-2.01125 22.7192 -2.01172 22.7228 -2.01172 22.7266C-2.01172 22.7503 -1.99248 22.7695 -1.96875 22.7695H0.903251C1.15892 23.0347 1.68117 23.133 2.17954 22.7628C2.61987 22.5212 3.27038 22.5195 3.81938 22.5818C4.09293 22.6128 4.3385 22.6594 4.5157 22.6982C4.60428 22.7176 4.67569 22.7351 4.72489 22.7477C4.74948 22.754 4.76852 22.759 4.78137 22.7625C4.78477 22.7635 4.78774 22.7643 4.79026 22.765C4.7925 22.7656 4.79439 22.7661 4.79592 22.7665L4.79956 22.7676L4.80044 22.7678L4.80065 22.7679C4.81614 22.7723 4.83286 22.7677 4.84387 22.7559L5.18762 22.3887C5.19811 22.3775 5.20183 22.3616 5.19736 22.3469L4.36142 19.5969C4.35953 19.5906 4.35624 19.5849 4.3518 19.5801L4.04711 19.252C4.04438 19.2491 4.04124 19.2465 4.0378 19.2444L4.01562 19.2813C4.0378 19.2444 4.03782 19.2445 4.0378 19.2444L4.03754 19.2443L4.03704 19.244L4.03532 19.243C4.03386 19.2421 4.03177 19.2409 4.02905 19.2394C4.02359 19.2364 4.01562 19.232 4.00513 19.2266C3.98414 19.2157 3.95312 19.2005 3.91218 19.1828C3.83031 19.1475 3.70881 19.102 3.54878 19.0609C3.22863 18.9787 2.75469 18.9137 2.136 18.9807C1.52518 19.0469 1.11416 19.037 0.856862 19.011C0.728226 18.998 0.638047 18.9809 0.580554 18.9673C0.551807 18.9605 0.531231 18.9546 0.518103 18.9505C0.511539 18.9484 0.506836 18.9468 0.503905 18.9458C0.502439 18.9453 0.501416 18.9449 0.500825 18.9447L0.500333 18.9445ZM3.98853 19.3152C3.98807 19.315 3.98757 19.3147 3.98704 19.3144C3.9824 19.3118 3.97524 19.3079 3.96561 19.3029C3.94634 19.2929 3.91712 19.2786 3.8781 19.2617C3.80006 19.228 3.68279 19.1841 3.52739 19.1442C3.21668 19.0643 2.75312 19.0003 2.14525 19.0662C1.5295 19.1328 1.1124 19.1232 0.848216 19.0965C0.716109 19.0831 0.622206 19.0655 0.560804 19.051C0.530102 19.0437 0.507526 19.0373 0.492364 19.0325C0.48717 19.0309 0.482847 19.0294 0.479365 19.0282L0.477422 19.0285C0.469563 19.0294 0.457975 19.0308 0.443106 19.0327C0.413367 19.0364 0.370509 19.0419 0.318115 19.0489C0.213302 19.0631 0.0704484 19.0835 -0.0818251 19.1088C-0.234188 19.1341 -0.395508 19.1642 -0.5374 19.1976C-0.676533 19.2303 -0.793418 19.2654 -0.865127 19.3009L-1.19535 19.6311L-1.91448 22.6836H0.921876C0.933982 22.6836 0.945526 22.6887 0.95367 22.6977C1.17146 22.9372 1.654 23.0477 2.13056 22.6921C2.13213 22.6909 2.13378 22.6899 2.13549 22.6889C2.60138 22.4319 3.27755 22.4338 3.82906 22.4964C4.10629 22.5278 4.35486 22.575 4.5341 22.6143C4.62375 22.6339 4.69614 22.6516 4.74619 22.6644C4.76822 22.6701 4.78593 22.6748 4.79887 22.6782L5.10792 22.3481L4.28208 19.6314L3.98853 19.3152Z" fill="black"/>
<path fill-rule="evenodd" clip-rule="evenodd" d="M0.9583 22.7401C1.151 22.8747 1.33595 22.9349 1.52125 22.9297C1.70681 22.9244 1.89769 22.8535 2.10186 22.7171C1.9654 22.5515 1.77596 22.4222 1.55363 22.3219C1.37669 22.4067 1.24071 22.4948 1.14157 22.5711C1.0771 22.6207 1.02834 22.6653 0.994109 22.7006C0.979125 22.716 0.967307 22.7293 0.9583 22.7401ZM1.4491 22.2778C1.29893 22.3548 1.17984 22.4332 1.08915 22.503C1.02166 22.555 0.969775 22.6022 0.932442 22.6407C0.896034 22.6782 0.871289 22.7096 0.860528 22.7297C0.850508 22.7485 0.855757 22.7718 0.872865 22.7845C1.08963 22.9451 1.30392 23.0218 1.52367 23.0156C1.74281 23.0094 1.96181 22.921 2.18875 22.7617C2.19829 22.755 2.2047 22.7447 2.20651 22.7332C2.20832 22.7217 2.20538 22.7099 2.19835 22.7006C2.0631 22.5216 1.87482 22.3827 1.65616 22.2752C1.67825 22.2657 1.7009 22.2562 1.7241 22.2468C2.24872 22.0351 3.05945 21.8755 4.22858 22.0347C4.25209 22.0379 4.27375 22.0215 4.27695 21.998C4.28016 21.9744 4.26369 21.9528 4.24018 21.9496C3.05774 21.7885 2.23176 21.9492 1.69193 22.1672C1.6431 22.1869 1.59662 22.207 1.55244 22.2275C1.46718 22.1908 1.37816 22.1583 1.28655 22.1295C0.912047 22.012 0.489742 21.9557 0.0943017 21.9327C-0.301403 21.9096 -0.671807 21.9197 -0.94317 21.9355C-1.0789 21.9434 -1.18997 21.9527 -1.26718 21.9601C-1.30579 21.9638 -1.33594 21.967 -1.35648 21.9693C-1.36675 21.9704 -1.37462 21.9713 -1.37994 21.972L-1.386 21.9727L-1.38757 21.9729L-1.38809 21.9729C-1.38812 21.973 -1.38814 21.973 -1.38281 22.0156L-1.38809 21.9729C-1.41164 21.9759 -1.42839 21.9974 -1.42545 22.0209C-1.4225 22.0445 -1.40103 22.0612 -1.37748 22.0582L-1.38281 22.0156C-1.37748 22.0582 -1.37749 22.0582 -1.37748 22.0582L-1.37705 22.0582L-1.37562 22.058L-1.36985 22.0573C-1.36472 22.0567 -1.35705 22.0558 -1.34698 22.0547C-1.32685 22.0525 -1.29714 22.0493 -1.259 22.0457C-1.1827 22.0384 -1.0727 22.0291 -0.938171 22.0213C-0.669006 22.0056 -0.302106 21.9956 0.089299 22.0184C0.480968 22.0413 0.895577 22.0969 1.26082 22.2115C1.32539 22.2318 1.38827 22.2538 1.4491 22.2778Z" fill="black"/>
<path fill-rule="evenodd" clip-rule="evenodd" d="M1.49219 22.2965L1.51563 19.2653L1.60937 19.266L1.58593 22.2972L1.49219 22.2965ZM4.48541 21.7285L3.96978 19.3145L4.06146 19.2949L4.57709 21.709L4.48541 21.7285Z" fill="black"/>
<path fill-rule="evenodd" clip-rule="evenodd" d="M-3.83594 23.0547L-3.16406 23.8516C-3.08594 23.8984 -3.00781 23.8984 -2.9375 23.8516L-1.9375 22.6484L-1.51563 22.125C-1.44531 22.0469 -1.42969 21.9609 -1.4375 21.8906L-0.625 21.1641L-0.453125 21.1797C-0.53125 21.1641 -0.585938 21.125 -0.53125 21.0391L-0.34375 20.8984L-0.203125 21.0781C-0.203125 21.0781 -0.40625 21.3438 -0.429688 21.3438H-0.648438L-1.07031 21.7266L-0.882813 21.8828L-0.609375 22.6484L-0.265625 22.4062L-0.484375 21.625L-0.00781274 21.1016L-0.1875 20.8203L-0.0625005 20.6641C-0.0625005 20.6641 1.60156 21.7109 2.25 21.4297C2.26562 21.4297 2.28906 20.6797 2.28906 20.6797C2.28906 20.6797 0.554688 20.5 0.515625 20.1562C0.476562 19.8125 0.90625 19.7656 0.90625 19.7656L0.71875 19.5156L0.757812 19.375L1.0625 19.75L1.74219 19.1719L5.76562 23.75C5.98438 23.6641 6.03125 23.6094 6.04687 23.3906L2.10937 18.8672L2.40625 18.5469C2.46875 18.4766 2.48438 18.4531 2.48438 18.3438L2.95312 17.9453C3.07586 17.9874 3.18058 18.0701 3.25 18.1797L4.53125 17.1094C4.5625 17.1406 4.66406 17.1719 4.73438 17.1406L6.83594 15.1172L4.54688 16.7344L4.46875 16.6797C4.46875 16.6094 4.54688 16.6016 4.46875 16.4766C4.375 16.3672 4.24219 16.5781 4.22656 16.5781C4.20312 16.5781 3.89062 16.4687 3.82031 16.3281L3.80469 16.6953L3.21875 17.2422L2.77344 17.2187L2.13281 17.8437L2.05469 18.0781L2.15625 18.2891C2.15625 18.2891 1.8125 18.5859 1.8125 18.5703C1.8125 18.5469 1.74219 18.4766 1.73437 18.4687L2.03125 18.2031L2.07031 18.0234L1.97656 17.8672C1.94531 17.8906 1.57031 18.2891 1.54688 18.2422L0.453125 17.0312L0.515625 16.8047L-0.164063 16.0625C-0.414063 15.9766 -0.8125 15.9609 -0.890625 16.5078C-0.953125 16.6328 -1.46875 16.5234 -1.46875 16.5234L-1.75 16.5859L-3.34375 18.8281L-2.46094 19.8906L-0.648438 17.6016L-0.59375 16.9531L-0.21875 17.375C-0.085938 17.3906 0.0312493 17.3984 0.148437 17.3359L1.21875 18.5312L1.03906 18.7109L1.19531 18.8828L1.38281 18.7578L1.45312 18.8594C1.36719 18.9062 1.29688 18.9766 1.21094 19.0234C1.07031 18.9297 0.929688 18.8125 0.9375 18.6328L0.335938 19.1328L0.3125 19.2266L-1.47656 20.7109L-1.63281 20.7344L-1.67188 21.2031L-0.507813 20.2344V20.0938L-0.390625 20.1953L0.515625 19.4687C0.515625 19.4687 0.578125 19.5469 0.554688 19.5469C0.53125 19.5469 -0.25 20.2734 -0.25 20.2734L-0.265625 20.3516L-0.40625 20.4766L-0.484375 20.4141L-1.57812 21.3828H-1.73438L-2.33594 21.9844C-2.49219 22 -2.625 22.0156 -2.75781 22.1016L-3.83594 23.0547Z" fill="black"/>
<path fill-rule="evenodd" clip-rule="evenodd" d="M6.8687 15.0898C6.88302 15.1071 6.88157 15.1326 6.86539 15.1481L4.76382 17.1716C4.76022 17.175 4.75604 17.1779 4.75147 17.1799C4.70519 17.2005 4.65225 17.1994 4.60918 17.1905C4.58244 17.185 4.55546 17.1757 4.53317 17.1635L3.27719 18.2127C3.26769 18.2206 3.25523 18.2241 3.24301 18.2221C3.23078 18.2202 3.21997 18.2131 3.21334 18.2027C3.15347 18.1081 3.06519 18.0353 2.96148 17.9943L2.5268 18.3638C2.52588 18.4095 2.52134 18.4444 2.5081 18.4764C2.4932 18.5124 2.46865 18.541 2.43801 18.5754L2.43742 18.5761L2.16677 18.8681L6.07893 23.3624C6.08643 23.371 6.09019 23.3823 6.08938 23.3937C6.08149 23.5041 6.06544 23.5841 6.01574 23.6468C5.9668 23.7086 5.89012 23.7471 5.78098 23.79C5.76413 23.7966 5.74494 23.792 5.733 23.7784L1.73747 19.232L1.08999 19.7827C1.08118 19.7902 1.06972 19.7939 1.05821 19.7928C1.04669 19.7917 1.03609 19.7861 1.0288 19.7771L0.776587 19.4667L0.765456 19.5068L0.940272 19.7398C0.949535 19.7522 0.95146 19.7686 0.945316 19.7827C0.939176 19.7969 0.92592 19.8067 0.910586 19.8083L0.909876 19.8084C0.909254 19.8085 0.908246 19.8086 0.906879 19.8088C0.904143 19.8092 0.899979 19.8098 0.894601 19.8107C0.883833 19.8125 0.868275 19.8155 0.849639 19.82C0.812146 19.8293 0.763297 19.8448 0.716157 19.8699C0.668929 19.8951 0.625326 19.9289 0.595695 19.9739C0.566613 20.0179 0.549305 20.0752 0.557966 20.1514C0.560825 20.1766 0.580435 20.2076 0.628228 20.2429C0.674972 20.2774 0.74191 20.311 0.824387 20.343C0.988997 20.4068 1.20658 20.4609 1.42508 20.5047C1.64314 20.5485 1.86021 20.5815 2.0229 20.6037C2.10421 20.6147 2.17184 20.6231 2.21913 20.6286C2.24276 20.6314 2.26131 20.6335 2.27393 20.6349C2.28023 20.6356 2.28506 20.6361 2.28829 20.6364L2.29195 20.6368L2.29307 20.6369C2.29308 20.6369 2.29314 20.637 2.28871 20.6797C2.33166 20.681 2.33166 20.681 2.33166 20.681L2.33165 20.6812L2.33164 20.6816L2.33062 20.7133C2.32995 20.7339 2.32897 20.7632 2.32775 20.7984C2.3253 20.8687 2.32188 20.9626 2.31797 21.0565C2.31406 21.1503 2.30965 21.2444 2.30523 21.3152C2.30302 21.3505 2.30078 21.3805 2.29855 21.4019C2.29745 21.4124 2.29626 21.4219 2.29489 21.4292C2.29427 21.4325 2.29328 21.4373 2.29164 21.4419C2.29092 21.4439 2.28918 21.4486 2.28579 21.4535C2.28434 21.4556 2.27738 21.4656 2.26413 21.4702C2.08892 21.5451 1.85277 21.5293 1.60485 21.4705C1.3538 21.411 1.08215 21.3053 0.832411 21.1914C0.582413 21.0775 0.352997 20.9548 0.186172 20.8607C0.102724 20.8136 0.0348527 20.7736 -0.0122004 20.7453C-0.0283358 20.7357 -0.042026 20.7273 -0.0530589 20.7206L-0.135071 20.8231L0.0280442 21.0784C0.0384984 21.0948 0.0366793 21.1161 0.0236073 21.1305L-0.436934 21.6363L-0.224601 22.3947C-0.219695 22.4122 -0.226357 22.4309 -0.24123 22.4414L-0.58498 22.6836C-0.595956 22.6913 -0.609915 22.6935 -0.622714 22.6894C-0.635512 22.6853 -0.645678 22.6755 -0.650194 22.6629L-0.919686 21.9083L-1.09817 21.7596C-1.10773 21.7516 -1.11336 21.7399 -1.11362 21.7275C-1.11389 21.715 -1.10875 21.7031 -1.09954 21.6947L-0.677665 21.3119C-0.66976 21.3048 -0.659466 21.3008 -0.648791 21.3008H-0.442742C-0.436366 21.2948 -0.427558 21.2856 -0.416738 21.2736C-0.395146 21.2495 -0.368109 21.217 -0.341379 21.1839C-0.314743 21.151 -0.288791 21.118 -0.269473 21.0932C-0.265276 21.0878 -0.261395 21.0828 -0.257891 21.0783L-0.351998 20.9581L-0.499206 21.0685C-0.507513 21.0829 -0.510135 21.0927 -0.510636 21.0987C-0.511113 21.1044 -0.509843 21.1074 -0.507791 21.1102C-0.501344 21.1189 -0.482358 21.1301 -0.445051 21.1376C-0.422655 21.142 -0.407676 21.1633 -0.410954 21.1859C-0.414233 21.2085 -0.434622 21.2246 -0.457369 21.2225L-0.610638 21.2085L-1.39339 21.9085C-1.39004 21.9844 -1.41158 22.0728 -1.48324 22.1529L-1.9048 22.6759L-2.90481 23.879C-2.90746 23.8822 -2.91056 23.885 -2.91402 23.8873C-2.99946 23.9443 -3.09557 23.943 -3.18652 23.8884C-3.19058 23.886 -3.19421 23.8829 -3.19727 23.8793L-3.86914 23.0824L-3.83629 23.0547L-3.86475 23.0225L-2.78663 22.0694C-2.78502 22.068 -2.78331 22.0667 -2.78151 22.0655C-2.64366 21.9763 -2.50573 21.9583 -2.35584 21.9432L-1.76511 21.3524C-1.75705 21.3444 -1.74612 21.3398 -1.73473 21.3398H-1.59477L-0.513218 20.3819C-0.497567 20.368 -0.474211 20.3675 -0.457885 20.3805L-0.408061 20.4204L-0.305288 20.329L-0.292487 20.265C-0.290719 20.2562 -0.286216 20.2481 -0.279615 20.242L-0.250353 20.2734C-0.279615 20.242 -0.279621 20.242 -0.279615 20.242L-0.245966 20.2107C-0.224546 20.1908 -0.193922 20.1624 -0.1571 20.1284C-0.0834627 20.0602 0.0149822 19.9694 0.114174 19.8785C0.213332 19.7876 0.313371 19.6966 0.390149 19.6283C0.408665 19.6118 0.425888 19.5966 0.441459 19.583L-0.3641 20.2288C-0.380289 20.2418 -0.40344 20.2414 -0.419119 20.2278L-0.465197 20.1879V20.2344C-0.465197 20.2471 -0.47087 20.2592 -0.48068 20.2674L-1.64474 21.2362C-1.65805 21.2472 -1.67671 21.2492 -1.69207 21.2412C-1.70743 21.2332 -1.71649 21.2168 -1.71505 21.1996L-1.67599 20.7308C-1.67433 20.711 -1.65924 20.6948 -1.63954 20.6919L-1.49513 20.6702L0.273876 19.2025L0.293899 19.1224C0.296114 19.1135 0.301095 19.1056 0.308119 19.0998L0.909681 18.5998C0.922755 18.5889 0.941007 18.5868 0.956238 18.5943C0.971468 18.6019 0.980814 18.6177 0.980075 18.6347C0.973755 18.78 1.08034 18.8819 1.21237 18.9728C1.24381 18.9535 1.27391 18.931 1.3059 18.907L1.30701 18.9062C1.33357 18.8863 1.36147 18.8654 1.39131 18.8461L1.37116 18.817L1.21879 18.9186C1.20111 18.9304 1.17746 18.9274 1.16317 18.9117L1.00692 18.7398C0.991487 18.7229 0.992107 18.6968 1.00833 18.6806L1.15926 18.5296L0.137697 17.3888C0.017863 17.4416 -0.1017 17.4321 -0.224124 17.4177C-0.234581 17.4164 -0.244223 17.4114 -0.251219 17.4035L-0.5597 17.0565L-0.605974 17.6052C-0.606684 17.6136 -0.60986 17.6216 -0.615103 17.6282L-2.4276 19.9173C-2.43564 19.9275 -2.44783 19.9334 -2.46078 19.9336C-2.47373 19.9337 -2.48606 19.928 -2.49434 19.9181L-3.37715 18.8556C-3.3896 18.8406 -3.39041 18.8191 -3.37913 18.8032L-1.78538 16.561C-1.77921 16.5524 -1.77006 16.5463 -1.75967 16.544L-1.47842 16.4815C-1.47242 16.4802 -1.4662 16.4801 -1.46019 16.4814L-1.4599 16.4815L-1.45888 16.4817L-1.45474 16.4825C-1.45108 16.4833 -1.44564 16.4844 -1.43868 16.4857C-1.42474 16.4884 -1.4047 16.4921 -1.38043 16.4962C-1.33179 16.5044 -1.26662 16.514 -1.19981 16.5197C-1.13252 16.5255 -1.06576 16.5271 -1.01314 16.5204C-0.986792 16.517 -0.966082 16.5118 -0.951293 16.5051C-0.940933 16.5005 -0.935258 16.496 -0.932166 16.4925C-0.932625 16.4956 -0.933075 16.4987 -0.933515 16.5017L-0.890978 16.5078L-0.92941 16.4886C-0.929952 16.4897 -0.930811 16.491 -0.932166 16.4925C-0.890093 16.2138 -0.764495 16.0677 -0.607481 16.0077C-0.453198 15.9488 -0.279528 15.9775 -0.150447 16.0219C-0.143664 16.0242 -0.137572 16.0282 -0.132727 16.0335L0.54696 16.7757C0.55695 16.7866 0.560627 16.8019 0.556694 16.8161L0.500464 17.0199L0.484659 17.0025L0.452772 17.0313L0.494194 17.0427L0.500464 17.0199L1.5622 18.1954C1.5577 18.1984 1.55389 18.2007 1.55079 18.2023C1.54858 18.2034 1.54754 18.2038 1.54748 18.2038C1.54742 18.2038 1.54875 18.2034 1.55117 18.2032C1.55383 18.2029 1.55992 18.2028 1.56715 18.206C1.57139 18.2079 1.5751 18.2105 1.57818 18.2136C1.58098 18.2164 1.58327 18.2196 1.58495 18.223C1.58322 18.2195 1.58101 18.2163 1.57841 18.2134L1.5622 18.1954C1.57011 18.1902 1.58017 18.1828 1.59232 18.1731C1.62963 18.1433 1.67849 18.0983 1.72866 18.0501C1.7786 18.0021 1.82884 17.9518 1.8688 17.9119L1.86916 17.9115C1.88891 17.8918 1.90625 17.8744 1.91963 17.8613C1.93189 17.8493 1.94365 17.8379 1.95043 17.8328C1.96016 17.8255 1.97253 17.8227 1.98447 17.825C1.99641 17.8274 2.0068 17.8347 2.01305 17.8451L2.06041 17.924L2.03015 18.0148L2.02797 18.0143L2.02435 18.0309L1.96698 17.9353C1.9716 17.9307 1.9759 17.9265 1.97984 17.9226C1.9864 17.9162 1.99178 17.911 1.9959 17.9071C1.99956 17.9037 2.00137 17.9021 2.00186 17.9017C2.002 17.9016 2.00204 17.9015 2.00199 17.9016L1.97621 17.8672L1.93936 17.8893L1.96698 17.9353C1.95618 17.946 1.94358 17.9586 1.92957 17.9726L1.92938 17.9728C1.88953 18.0127 1.83878 18.0634 1.78821 18.112C1.7378 18.1605 1.68656 18.2078 1.64598 18.2402C1.6261 18.2561 1.60664 18.2702 1.59007 18.2787C1.58236 18.2827 1.57109 18.2877 1.55856 18.2888C1.55186 18.2893 1.54233 18.289 1.5323 18.2846C1.52414 18.281 1.51743 18.2754 1.51247 18.2686L1.51463 18.271L1.54652 18.2422L1.50809 18.2614C1.50935 18.2639 1.51081 18.2663 1.51247 18.2686L0.420885 17.0601C0.411041 17.0492 0.407445 17.034 0.411351 17.0198L0.467529 16.8162L0.483584 16.8337L0.515272 16.8047L0.473851 16.7933L0.467529 16.8162L-0.188627 16.0997C-0.18519 16.1008 -0.181775 16.102 -0.178384 16.1031L-0.164416 16.0625L-0.196104 16.0915L-0.188627 16.0997C-0.307729 16.0604 -0.453413 16.0409 -0.576819 16.088C-0.699339 16.1348 -0.810996 16.2518 -0.848441 16.5139C-0.849094 16.5185 -0.85048 16.5229 -0.852545 16.527C-0.866393 16.5547 -0.89097 16.5723 -0.916235 16.5836C-0.941606 16.5949 -0.971434 16.6017 -1.00221 16.6056C-1.06385 16.6135 -1.13772 16.6113 -1.20715 16.6053C-1.27706 16.5993 -1.3447 16.5894 -1.39469 16.5809C-1.41974 16.5767 -1.44047 16.5729 -1.45497 16.5701C-1.46049 16.569 -1.46512 16.5681 -1.46874 16.5674L-1.45978 16.5654L-1.4691 16.5234C-1.47802 16.5655 -1.47801 16.5655 -1.478 16.5655L-1.47756 16.5656L-1.47636 16.5658L-1.47185 16.5667C-1.47092 16.5669 -1.46988 16.5671 -1.46874 16.5674M-1.7249 16.6243L-1.71533 16.6108L-1.75035 16.5859L-1.74103 16.6279L-1.7249 16.6243ZM2.02358 18.0345L2.02435 18.0309L2.02462 18.0314L2.02358 18.0345ZM2.01223 18.0867C2.01074 18.0794 2.01117 18.0717 2.01357 18.0645L2.02358 18.0345L2.01223 18.0867ZM2.07232 18.2145L2.01562 18.0968C2.01407 18.0935 2.01294 18.0902 2.01223 18.0867L1.99187 18.1804L1.70537 18.4367C1.69657 18.4446 1.6914 18.4558 1.69107 18.4676C1.69074 18.4794 1.69529 18.4908 1.70364 18.4991C1.70744 18.5029 1.72603 18.5215 1.74349 18.5418C1.75231 18.552 1.76005 18.5617 1.76535 18.5696C1.76752 18.5728 1.76889 18.5752 1.76967 18.5767C1.77126 18.5871 1.77697 18.6001 1.79117 18.6082C1.80419 18.6156 1.81649 18.6139 1.81988 18.6133C1.82781 18.6121 1.83402 18.6088 1.83579 18.6079L1.83591 18.6078C1.84112 18.6051 1.84677 18.6013 1.85166 18.5978C1.86214 18.5905 1.87638 18.5795 1.89261 18.5666C1.92531 18.5406 1.96865 18.5046 2.01168 18.4684C2.05478 18.4322 2.09785 18.3955 2.13013 18.3678C2.14627 18.354 2.15973 18.3425 2.16915 18.3344L2.18373 18.3218L2.18392 18.3216L2.1559 18.2891L2.18398 18.3216C2.19868 18.3089 2.20304 18.2879 2.19461 18.2704L2.10204 18.0782L2.10657 18.0573L2.16993 17.8672L2.78962 17.2626L3.21614 17.2851C3.22779 17.2857 3.23919 17.2816 3.24771 17.2736L3.83365 16.7267C3.8419 16.719 3.84678 16.7084 3.84726 16.6971L3.8582 16.4401C3.86652 16.4472 3.8751 16.4541 3.88382 16.4607C3.92619 16.4929 3.97508 16.5211 4.02145 16.5443C4.06794 16.5675 4.11286 16.5862 4.14784 16.5991C4.16531 16.6056 4.1806 16.6107 4.1926 16.6143C4.19857 16.6161 4.20407 16.6176 4.20883 16.6187C4.21225 16.6195 4.21924 16.6211 4.22621 16.6211C4.23759 16.6211 4.24591 16.6167 4.24888 16.6151C4.25272 16.613 4.25576 16.6106 4.2577 16.609C4.26163 16.6058 4.26535 16.6021 4.26832 16.599C4.27306 16.594 4.27887 16.5875 4.28481 16.5808C4.28638 16.579 4.28796 16.5772 4.28953 16.5755C4.30554 16.5575 4.32472 16.5367 4.34551 16.5193C4.36705 16.5014 4.38579 16.4911 4.40039 16.4887C4.41031 16.487 4.42072 16.4881 4.43378 16.5023C4.45037 16.5293 4.4569 16.5473 4.45913 16.5591C4.4612 16.5701 4.45986 16.5771 4.4574 16.5837C4.45594 16.5877 4.45391 16.5919 4.45097 16.5975C4.4503 16.5987 4.44951 16.6002 4.44865 16.6018C4.44624 16.6063 4.44326 16.6119 4.44073 16.6171C4.433 16.633 4.42543 16.6533 4.42543 16.6797C4.42543 16.6937 4.43227 16.7069 4.44376 16.7149L4.52188 16.7696C4.53673 16.78 4.55651 16.7799 4.57131 16.7695L6.39766 15.4792L4.71023 17.1039C4.68691 17.1122 4.65672 17.1126 4.62644 17.1063C4.59226 17.0993 4.56845 17.0862 4.56128 17.079C4.54555 17.0633 4.52042 17.0621 4.50335 17.0764L3.25822 18.1165C3.18469 18.0186 3.08325 17.9446 2.96671 17.9047C2.95237 17.8998 2.93649 17.9028 2.92494 17.9126L2.45619 18.311C2.44659 18.3192 2.44105 18.3311 2.44105 18.3438C2.44105 18.3973 2.43702 18.4234 2.42869 18.4435C2.42019 18.4641 2.40574 18.4824 2.37409 18.518L2.37438 18.5177L2.4059 18.5469L2.37378 18.5183L2.07751 18.838C2.06258 18.8541 2.0622 18.8788 2.07661 18.8954L6.00229 23.4053C5.99417 23.5022 5.97892 23.5549 5.94839 23.5934C5.91823 23.6315 5.86894 23.6612 5.77748 23.6988L1.77411 19.1435C1.75862 19.1259 1.73186 19.1239 1.71399 19.1391L1.06778 19.6888L0.790808 19.3479C0.780671 19.3354 0.764419 19.3297 0.748683 19.3329C0.732947 19.3362 0.72036 19.348 0.716058 19.3635L0.676995 19.5041C0.673428 19.517 0.676023 19.5307 0.684021 19.5414L0.83021 19.7363C0.829841 19.7364 0.82947 19.7365 0.829098 19.7366C0.787246 19.7469 0.731115 19.7646 0.675716 19.7941C0.620405 19.8236 0.56391 19.866 0.523961 19.9265C0.483463 19.9879 0.461708 20.0654 0.472579 20.1611C0.479486 20.2219 0.522619 20.2717 0.577152 20.312C0.632733 20.3531 0.707702 20.3899 0.793315 20.4231C0.964888 20.4897 1.18822 20.5449 1.40819 20.589C1.62861 20.6332 1.84758 20.6665 2.01131 20.6888C2.09321 20.7 2.16137 20.7084 2.20909 20.714C2.22257 20.7156 2.23441 20.7169 2.24448 20.7181C2.24382 20.7379 2.24294 20.7644 2.24186 20.7954C2.23942 20.8656 2.23601 20.9593 2.23211 21.0529C2.2282 21.1466 2.22382 21.24 2.21946 21.3098C2.21727 21.3448 2.21511 21.3734 2.21307 21.393C2.21287 21.3949 2.21268 21.3967 2.21249 21.3984C2.06488 21.4538 1.85909 21.4425 1.62467 21.3869C1.38133 21.3292 1.11539 21.226 0.868054 21.1132C0.620982 21.0006 0.393855 20.8792 0.228405 20.7858C0.145715 20.7392 0.0785155 20.6996 0.0320318 20.6717C0.00879169 20.6577 -0.00926495 20.6467 -0.0214846 20.6392C-0.0275941 20.6354 -0.0322442 20.6325 -0.0353529 20.6306L-0.0388498 20.6284L-0.0397115 20.6279L-0.0399179 20.6277C-0.0399251 20.6277 -0.0399725 20.6277 -0.0628533 20.6641L-0.0399179 20.6277C-0.0584149 20.6161 -0.0827546 20.6202 -0.0964062 20.6372L-0.221406 20.7935C-0.232903 20.8078 -0.233971 20.8279 -0.224063 20.8434L-0.0620911 21.097L-0.516501 21.5961C-0.526468 21.607 -0.530097 21.6223 -0.526105 21.6366L-0.31554 22.3886L-0.588272 22.5808L-0.8427 21.8684C-0.845283 21.8611 -0.849758 21.8547 -0.855658 21.8498L-1.0052 21.7252L-0.632201 21.3867H-0.430041C-0.420141 21.3867 -0.412533 21.3835 -0.409084 21.3819C-0.404981 21.38 -0.40152 21.3777 -0.398968 21.376C-0.393842 21.3724 -0.388802 21.368 -0.384289 21.3638C-0.37508 21.3552 -0.364216 21.3437 -0.352767 21.3309C-0.329681 21.3052 -0.301543 21.2713 -0.274561 21.238C-0.247487 21.2045 -0.221193 21.1711 -0.201692 21.146C-0.191934 21.1335 -0.183862 21.1231 -0.178223 21.1158L-0.171681 21.1073L-0.169504 21.1044L-0.169388 21.1043C-0.157498 21.0887 -0.157576 21.0671 -0.16964 21.0516L-0.310265 20.872C-0.324679 20.8535 -0.351175 20.85 -0.369884 20.8641L-0.557384 21.0047C-0.561527 21.0078 -0.565074 21.0116 -0.567854 21.016C-0.583818 21.0411 -0.594158 21.0663 -0.596272 21.0915C-0.597217 21.1028 -0.59647 21.1135 -0.594168 21.1238L-0.621463 21.1213C-0.63333 21.1202 -0.645113 21.1241 -0.653995 21.132L-1.4665 21.8586C-1.47685 21.8679 -1.48209 21.8816 -1.48056 21.8954C-1.47391 21.9552 -1.48688 22.0284 -1.54792 22.0963C-1.54844 22.0968 -1.54894 22.0974 -1.54943 22.098L-1.9709 22.621L-1.93785 22.6484L-1.97131 22.6215L-2.9667 23.819C-3.01881 23.8516 -3.07531 23.8527 -3.13635 23.8182L-3.77638 23.0591L-2.73216 22.1359C-2.60995 22.0578 -2.48757 22.0427 -2.33201 22.0271C-2.32215 22.0261 -2.31292 22.0218 -2.30591 22.0148L-1.71693 21.4258H-1.57848C-1.56798 21.4258 -1.55785 21.4219 -1.54999 21.415L-0.48332 20.4702L-0.433445 20.5101C-0.417098 20.5232 -0.393703 20.5226 -0.378056 20.5087L-0.237431 20.3837C-0.230447 20.3775 -0.225677 20.3692 -0.223844 20.36L-0.210939 20.2955L-0.187509 20.2737C-0.166113 20.2539 -0.13552 20.2255 -0.0987325 20.1915C-0.0251534 20.1234 0.0731792 20.0326 0.17223 19.9418C0.271314 19.8511 0.370982 19.7604 0.44728 19.6925C0.485473 19.6585 0.517558 19.6304 0.540698 19.611C0.552337 19.6012 0.561278 19.5939 0.567417 19.5893C0.568351 19.5886 0.569163 19.5879 0.569859 19.5874C0.573848 19.5861 0.578031 19.5842 0.582153 19.5814C0.593026 19.5739 0.598726 19.5633 0.601071 19.5539C0.604875 19.5387 0.600347 19.5252 0.598675 19.5205C0.594264 19.5079 0.586104 19.4944 0.579619 19.4844C0.57254 19.4735 0.564831 19.4629 0.559047 19.4552C0.55612 19.4513 0.55361 19.448 0.551816 19.4457L0.549685 19.443L0.549083 19.4422L0.54891 19.442L0.548856 19.4419C0.548854 19.4419 0.548829 19.4419 0.546544 19.4437L0.548856 19.4419C0.541732 19.433 0.53133 19.4273 0.519995 19.426C0.50866 19.4248 0.497292 19.4281 0.488395 19.4352L-0.389907 20.1394L-0.480024 20.0613C-0.492737 20.0503 -0.510711 20.0477 -0.526014 20.0547C-0.541317 20.0617 -0.551134 20.0769 -0.551134 20.0938V20.2142L-1.62089 21.1045L-1.59317 20.7718L-1.47054 20.7534C-1.46279 20.7523 -1.45551 20.749 -1.44948 20.744L0.339584 19.2596C0.346622 19.2538 0.351614 19.2459 0.353833 19.237L0.373861 19.1569L0.901095 18.7187C0.933432 18.875 1.06838 18.9803 1.18675 19.0592C1.20004 19.068 1.21714 19.0688 1.23116 19.0612C1.27686 19.0362 1.31801 19.0054 1.35634 18.9766L1.35746 18.9758C1.39694 18.9462 1.43356 18.9188 1.47335 18.8971C1.48405 18.8913 1.49177 18.8812 1.49458 18.8693C1.49739 18.8574 1.49504 18.8449 1.4881 18.8349L1.41779 18.7334C1.40445 18.7141 1.37812 18.7091 1.35862 18.7221L1.20189 18.8266L1.09806 18.7124L1.24878 18.5616C1.26491 18.5455 1.26563 18.5196 1.25041 18.5026L0.180095 17.3073C0.166893 17.2925 0.145326 17.2887 0.127863 17.298C0.0278728 17.3514 -0.0726988 17.3483 -0.197886 17.3342L-0.561988 16.9246C-0.573402 16.9117 -0.591368 16.9069 -0.607671 16.9124C-0.623972 16.9178 -0.635476 16.9324 -0.636919 16.9495L-0.690519 17.585L-2.46209 19.8224L-3.28993 18.8261L-3.30908 18.853L-3.3441 18.8281L-3.31105 18.8007L-3.28993 18.8261M-2.46209 19.8224L-2.49498 19.864L-2.46129 19.8906L-2.42824 19.8632L-2.46209 19.8224ZM-0.690519 17.585L-0.691608 17.598L-0.648791 17.6016L-0.682478 17.5749L-0.690519 17.585ZM-0.197886 17.3342C-0.203239 17.3336 -0.208637 17.333 -0.214083 17.3323L-0.219103 17.375L-0.186988 17.3465L-0.197886 17.3342ZM1.09806 18.7124L1.0705 18.682L1.03871 18.7109L1.06909 18.7413L1.09806 18.7124ZM1.20189 18.8266L1.17112 18.8471L1.19496 18.8828L1.22675 18.8539L1.20189 18.8266ZM0.901095 18.7187L0.964612 18.6659L0.937147 18.6328L0.894218 18.6309C0.892874 18.6619 0.895385 18.6911 0.901095 18.7187ZM0.373861 19.1569L0.37727 19.1432L0.335585 19.1328L0.36305 19.1659L0.373861 19.1569ZM-1.59317 20.7718L-1.59035 20.7379L-1.63317 20.7344L-1.62679 20.7769L-1.59317 20.7718ZM-1.62089 21.1045L-1.69971 21.1701L-1.67223 21.2031L-1.62941 21.2067L-1.62089 21.1045ZM-0.551134 20.2142V20.2344H-0.508166L-0.535652 20.2013L-0.551134 20.2142ZM-0.389907 20.1394L-0.417856 20.1618L-0.390978 20.1953L-0.362837 20.1628L-0.389907 20.1394ZM0.569859 19.5874C0.571517 19.5862 0.572524 19.5855 0.572993 19.5852C0.573386 19.585 0.572678 19.5855 0.571223 19.5862C0.570485 19.5865 0.568916 19.5872 0.566748 19.5879C0.564971 19.5885 0.560422 19.5898 0.554335 19.5898C0.558556 19.5898 0.563999 19.5893 0.569859 19.5874ZM-0.48332 20.4702L-0.456238 20.4462L-0.484728 20.4141L-0.51157 20.4476L-0.48332 20.4702ZM-1.71693 21.4258L-1.70434 21.4132L-1.73473 21.3828V21.4258H-1.71693ZM-2.73216 22.1359L-2.72971 22.1338L-2.75817 22.1016L-2.73482 22.1376C-2.73394 22.1371 -2.73305 22.1365 -2.73216 22.1359ZM-3.13635 23.8182C-3.13833 23.8171 -3.14032 23.8159 -3.14231 23.8147L-3.16442 23.8516L-3.13156 23.8239L-3.13635 23.8182ZM-2.9667 23.819L-2.9709 23.8241L-2.93785 23.8516L-2.96169 23.8158C-2.96335 23.8169 -2.96502 23.818 -2.9667 23.819ZM-0.594168 21.1238C-0.591089 21.1374 -0.585225 21.15 -0.5769 21.1613C-0.550144 21.1975 -0.502724 21.2137 -0.461905 21.2218L-0.453478 21.1797L-0.449588 21.1369L-0.594168 21.1238ZM-0.632201 21.3867L-0.619916 21.3756L-0.648791 21.3438V21.3867H-0.632201ZM-1.0052 21.7252L-1.04316 21.6936L-1.07067 21.7266L-1.04179 21.7584L-1.0052 21.7252ZM-0.588272 22.5808L-0.634476 22.6133L-0.609728 22.6484L-0.569263 22.634L-0.588272 22.5808ZM-0.31554 22.3886L-0.307355 22.4178L-0.265978 22.4063L-0.290726 22.3711L-0.31554 22.3886ZM-0.0620911 21.097L-0.0443749 21.1247L-0.0081656 21.1016L-0.0399382 21.0726L-0.0620911 21.097ZM2.23202 21.3905C2.22148 21.3954 2.21599 21.4033 2.21499 21.4048C2.21214 21.4089 2.21089 21.4125 2.21064 21.4132C2.2103 21.4141 2.21014 21.4147 2.21014 21.4148C2.21013 21.4148 2.21024 21.4144 2.21043 21.4133C2.21099 21.4103 2.21169 21.4054 2.21249 21.3984C2.21912 21.3959 2.22563 21.3933 2.23202 21.3905ZM2.23202 21.3905C2.23682 21.3883 2.24268 21.3867 2.24965 21.3867C2.24376 21.3867 2.23795 21.3879 2.23255 21.3903C2.23237 21.3903 2.23219 21.3904 2.23202 21.3905ZM0.905897 19.7656L0.871522 19.7914L0.83021 19.7363C0.850759 19.7313 0.868064 19.728 0.880419 19.7259C0.886714 19.7249 0.891744 19.7241 0.895284 19.7237C0.897054 19.7234 0.898454 19.7232 0.899455 19.7231L0.900655 19.723L0.901024 19.7229L0.901151 19.7229C0.901171 19.7229 0.901237 19.7229 0.905897 19.7656ZM1.06778 19.6888L1.03431 19.7173L1.06215 19.75L1.0955 19.7229L1.06778 19.6888ZM5.77748 23.6988C5.76858 23.7025 5.75928 23.7062 5.74956 23.71L5.76527 23.75L5.79755 23.7216L5.77748 23.6988ZM6.00229 23.4053L6.01411 23.4188L6.04652 23.3906L6.00366 23.3876C6.00323 23.3936 6.00277 23.3995 6.00229 23.4053ZM3.25822 18.1165L3.2221 18.1467L3.24965 18.1797L3.28595 18.1567C3.27722 18.1429 3.26796 18.1295 3.25822 18.1165ZM4.71023 17.1039L4.70422 17.1097L4.73402 17.1406L4.71657 17.1014C4.71452 17.1023 4.7124 17.1031 4.71023 17.1039ZM4.43378 16.5023C4.43444 16.503 4.4351 16.5037 4.43577 16.5045L4.4684 16.4766L4.43196 16.4993C4.43258 16.5003 4.43319 16.5013 4.43378 16.5023ZM3.8582 16.4401L3.86289 16.33L3.81996 16.3281L3.78153 16.3473C3.79881 16.3819 3.82664 16.4129 3.8582 16.4401ZM2.78962 17.2626L2.80309 17.2495L2.77308 17.2188L2.77083 17.2617L2.78962 17.2626ZM2.16993 17.8672L2.17322 17.8573L2.13246 17.8438L2.16247 17.8745L2.16993 17.8672ZM2.10061 18.0752L2.10204 18.0782L2.07288 18.2123C2.07272 18.213 2.07253 18.2138 2.07232 18.2145L2.10288 18.278C2.09485 18.2849 2.08517 18.2932 2.07424 18.3026C2.04207 18.3301 1.9992 18.3666 1.95637 18.4027C1.91346 18.4387 1.87086 18.4741 1.83911 18.4993C1.83495 18.5026 1.83101 18.5057 1.82733 18.5086C1.82132 18.5007 1.8148 18.4928 1.80853 18.4856C1.80425 18.4806 1.79993 18.4758 1.79574 18.4712L2.05955 18.2351C2.06571 18.2296 2.07014 18.2225 2.07232 18.2145M1.82733 18.5086C1.81683 18.5168 1.80833 18.5233 1.80217 18.5276C1.79837 18.5303 1.79654 18.5314 1.79616 18.5316C1.79614 18.5316 1.79609 18.5317 1.79616 18.5316C1.79635 18.5315 1.79708 18.5311 1.79833 18.5306C1.79929 18.5303 1.80223 18.5291 1.80638 18.5284C1.80913 18.528 1.82093 18.5262 1.83362 18.5335C1.85058 18.5431 1.85511 18.5599 1.85511 18.5703C1.85511 18.558 1.85091 18.5476 1.84809 18.5415C1.84486 18.5345 1.84077 18.5278 1.83672 18.5217C1.83383 18.5174 1.83065 18.513 1.82733 18.5086ZM1.79574 18.4712L1.76267 18.5008L1.73402 18.4688L1.7644 18.4384C1.76754 18.4415 1.78074 18.4547 1.79574 18.4712ZM2.10061 18.0752L2.10657 18.0573L2.11195 18.0326C2.11427 18.0219 2.11243 18.0107 2.1068 18.0013L2.06041 17.924L2.0917 17.8302C2.09386 17.8237 2.09755 17.8178 2.10245 17.813L2.74308 17.188C2.75166 17.1796 2.76336 17.1752 2.77534 17.1758L3.20242 17.1983L3.18908 17.2108L3.2184 17.2422L3.22065 17.1993L3.20242 17.1983L3.76215 16.6759L3.7614 16.6935L3.80433 16.6953L3.77501 16.6639L3.76215 16.6759L3.77703 16.3263C3.77786 16.3067 3.79182 16.2902 3.81098 16.2861C3.83013 16.282 3.84963 16.2914 3.85839 16.3089C3.8717 16.3355 3.89846 16.364 3.93579 16.3923C3.97252 16.4202 4.0164 16.4457 4.05988 16.4674C4.10323 16.4891 4.14522 16.5066 4.17763 16.5185C4.19217 16.5239 4.20454 16.5281 4.21404 16.531C4.21101 16.5344 4.20845 16.5372 4.2062 16.5396C4.20385 16.542 4.20303 16.5427 4.20325 16.5425C4.20334 16.5425 4.20473 16.5413 4.20714 16.54C4.20869 16.5391 4.2158 16.5352 4.22621 16.5352C4.22833 16.5352 4.22984 16.5354 4.23024 16.5354C4.23061 16.5355 4.23007 16.5354 4.22829 16.535C4.22585 16.5344 4.22217 16.5335 4.21721 16.532C4.2162 16.5317 4.21514 16.5314 4.21404 16.531C4.2158 16.5291 4.21771 16.5269 4.2198 16.5246C4.22153 16.5226 4.22339 16.5205 4.22539 16.5183C4.24161 16.5001 4.26441 16.4751 4.2905 16.4533C4.31583 16.4322 4.34885 16.4102 4.38601 16.4039C4.42735 16.3969 4.46815 16.4103 4.50102 16.4486C4.50242 16.4502 4.50369 16.452 4.50483 16.4538C4.52595 16.4876 4.53857 16.5166 4.54358 16.5432C4.54883 16.571 4.54529 16.5938 4.53799 16.6136C4.53457 16.6228 4.53049 16.6309 4.52702 16.6375C4.52571 16.64 4.52456 16.6421 4.52351 16.6441C4.52146 16.6479 4.51979 16.651 4.51804 16.6546C4.51709 16.6566 4.51625 16.6584 4.51551 16.6602L4.49304 16.6445L4.4684 16.6797H4.51136C4.51136 16.6728 4.51273 16.6669 4.51551 16.6602L4.54641 16.6818L4.52173 16.6993L4.54652 16.7344L4.57116 16.6992L4.54641 16.6818L6.81079 15.0821C6.82914 15.0691 6.85439 15.0725 6.8687 15.0898M2.10288 18.278C2.10667 18.2747 2.11009 18.2718 2.1131 18.2692L2.12775 18.2566L2.1559 18.2891L2.11718 18.3077L2.10288 18.278ZM1.76967 18.5767C1.76985 18.577 1.77 18.5774 1.77012 18.5776C1.77118 18.5799 1.76918 18.5767 1.76918 18.5703C1.76918 18.5723 1.76933 18.5744 1.76967 18.5767ZM1.99187 18.1804L1.98891 18.194L2.0309 18.2031L2.00225 18.1711L1.99187 18.1804ZM2.28871 20.6797L2.33166 20.681C2.33236 20.6585 2.31549 20.6393 2.29307 20.6369L2.28871 20.6797Z" fill="black"/>
</g>
<defs>
<clipPath id="clip0_8424_43217">
<rect width="40" height="40" rx="20" fill="white"/>
</clipPath>
</defs>
</svg>
