<svg width="40" height="40" viewBox="0 0 40 40" fill="none" xmlns="http://www.w3.org/2000/svg">
<g clip-path="url(#clip0_8424_43210)">
<path fill-rule="evenodd" clip-rule="evenodd" d="M-3.7998 0H49.5335V40H-3.7998V0Z" fill="white"/>
<path fill-rule="evenodd" clip-rule="evenodd" d="M-6 0.0166667L-5.93333 28.8167L38.9083 0L-6 0.0166667Z" fill="#3662A2"/>
<path fill-rule="evenodd" clip-rule="evenodd" d="M51.7333 39.9667L51.6166 10.025L6.3916 39.9834L51.7249 39.9667H51.7333Z" fill="#38A100"/>
<path fill-rule="evenodd" clip-rule="evenodd" d="M-5.9668 30.9834L-5.93346 40L3.8582 39.9917L51.6499 7.95002L51.5915 0.108358L41.9249 0.0250244L-5.9668 30.975V30.9834Z" fill="#C70000"/>
<path fill-rule="evenodd" clip-rule="evenodd" d="M14.4996 14.3333L12.6829 13.2333L11.6329 15.075L10.6163 13.225L8.78294 14.3L8.83294 12.1833L6.71628 12.2L7.81628 10.3833L5.97461 9.34163L7.82461 8.31663L6.75794 6.48329L8.87461 6.53329L8.86628 4.40829L10.6746 5.50829L11.7246 3.66663L12.7413 5.51663L14.5746 4.44163L14.5246 6.55829L16.6413 6.54163L15.5413 8.35829L17.3829 9.39996L15.5329 10.425L16.5996 12.2583L14.4829 12.2083L14.4996 14.3333Z" fill="#FFE700"/>
<path fill-rule="evenodd" clip-rule="evenodd" d="M15.5665 9.36672C15.5665 11.5001 13.8248 13.2251 11.6831 13.2251C9.54147 13.2251 7.7998 11.5001 7.7998 9.36672C7.7998 7.23339 9.53314 5.51672 11.6831 5.51672C13.8331 5.51672 15.5665 7.24172 15.5665 9.36672Z" fill="#3662A2"/>
<path fill-rule="evenodd" clip-rule="evenodd" d="M14.7249 9.36662C14.7249 10.1733 14.4045 10.947 13.8341 11.5174C13.2636 12.0878 12.49 12.4083 11.6833 12.4083C10.8766 12.4083 10.1029 12.0878 9.53248 11.5174C8.96206 10.947 8.6416 10.1733 8.6416 9.36662C8.6416 8.55992 8.96206 7.78626 9.53248 7.21583C10.1029 6.64541 10.8766 6.32495 11.6833 6.32495C12.49 6.32495 13.2636 6.64541 13.8341 7.21583C14.4045 7.78626 14.7249 8.55992 14.7249 9.36662Z" fill="#FFE700"/>
</g>
<defs>
<clipPath id="clip0_8424_43210">
<rect width="40" height="40" rx="20" fill="white"/>
</clipPath>
</defs>
</svg>
