<svg width="56" height="56" viewBox="0 0 56 56" fill="none" xmlns="http://www.w3.org/2000/svg">
<g clip-path="url(#clip0_3318_24960)">
<path d="M28 56C43.464 56 56 43.464 56 28C56 12.536 43.464 0 28 0C12.536 0 0 12.536 0 28C0 43.464 12.536 56 28 56Z" fill="#0052B4"/>
<path d="M40.016 29.9534C40.119 29.3172 40.1734 28.6648 40.1734 28C40.1734 28.6648 40.119 29.3172 40.016 29.9534L45.043 28L40.016 26.0467L37.2548 24.9738L32.7688 23.2307L31.0257 18.7447C33.965 19.7082 36.2911 22.0343 37.2547 24.9737L40.0159 26.0466C39.1815 20.8954 35.1039 16.8177 29.9528 15.9834L27.9995 10.9565L26.0461 15.9835C20.895 16.8181 16.8175 20.8956 15.983 26.0467L10.9561 28L15.9831 29.9534C16.8176 35.1046 20.8951 39.1821 26.0462 40.0165L27.9995 45.0435L29.953 40.0165C35.104 39.1821 39.1816 35.1045 40.016 29.9534ZM30.8879 25.1117L27.9995 28H38.3207L30.8878 30.8884L27.9995 28V38.3213L25.1111 30.8883L27.9995 28H17.6783L25.1111 25.1117L27.9995 28V17.6788L30.8879 25.1117ZM24.9732 18.7448L23.23 23.2308L18.7442 24.9739C19.7077 22.0343 22.0338 19.7084 24.9732 18.7448ZM18.7443 31.0263L23.23 32.7694L24.9732 37.2552C22.0338 36.2916 19.7079 33.9658 18.7443 31.0263ZM31.0258 37.2552L32.7689 32.7694L37.2547 31.0263C36.2911 33.9658 33.9653 36.2916 31.0258 37.2552Z" fill="#F0F0F0"/>
<path d="M38.3212 28H28L30.8884 30.8884L38.3212 28Z" fill="#0052B4"/>
<path d="M17.6787 28.0001H27.9999L25.1115 25.1118L17.6787 28.0001Z" fill="#0052B4"/>
<path d="M27.9997 38.3213V28L25.1113 30.8884L27.9997 38.3213Z" fill="#0052B4"/>
<path d="M28 27.9999L30.8884 25.1116L28 17.6787V27.9999Z" fill="#0052B4"/>
<path d="M26.7832 3.65234H29.218V8.52194H26.7832V3.65234Z" fill="#F0F0F0"/>
<path d="M3.65234 26.7827H8.52194V29.2175H3.65234V26.7827Z" fill="#F0F0F0"/>
<path d="M26.7832 47.4785H29.218V52.3481H26.7832V47.4785Z" fill="#F0F0F0"/>
<path d="M47.4785 26.7827H52.3481V29.2175H47.4785V26.7827Z" fill="#F0F0F0"/>
</g>
<defs>
<clipPath id="clip0_3318_24960">
<rect width="56" height="56" fill="white"/>
</clipPath>
</defs>
</svg>
