<svg width="40" height="40" viewBox="0 0 40 40" fill="none" xmlns="http://www.w3.org/2000/svg">
<g clip-path="url(#clip0_8424_43291)">
<path fill-rule="evenodd" clip-rule="evenodd" d="M-20 0H60V40H-20V0Z" fill="#002170"/>
<path fill-rule="evenodd" clip-rule="evenodd" d="M-20 18.2891H60V21.7187H-20V18.2891Z" fill="#FFB20D"/>
<path fill-rule="evenodd" clip-rule="evenodd" d="M3.57812 34.2187L1 31.6406L0.179688 35.1875L-0.757812 31.6719L-3.25 34.3281L-2.30469 30.8125L-5.78125 31.8672L-3.20312 29.2891L-6.75 28.4609L-3.23438 27.5234L-5.89063 25.0391L-2.375 25.9766L-3.4375 22.5L-0.859375 25.0781L-0.03125 21.5312L0.90625 25.0469L3.39062 22.3906L2.45312 25.9062L5.92969 24.8516L3.35156 27.4297L6.89844 28.25L3.38281 29.1875L6.03906 31.6875L2.52344 30.7344L3.57812 34.2187Z" fill="white"/>
</g>
<defs>
<clipPath id="clip0_8424_43291">
<rect width="40" height="40" rx="20" fill="white"/>
</clipPath>
</defs>
</svg>
