<svg width="40" height="40" viewBox="0 0 40 40" fill="none" xmlns="http://www.w3.org/2000/svg">
<g clip-path="url(#clip0_8424_43212)">
<path d="M0 0H53.3333V40H0V0Z" fill="white"/>
<path fill-rule="evenodd" clip-rule="evenodd" d="M4.53125 39.4922H34.125L14.7578 19.8516L34.8594 19.875L4.53906 0.507812V39.4922H4.53125Z" fill="#CE0000"/>
<path fill-rule="evenodd" clip-rule="evenodd" d="M4 -0.476196L36.7081 20.4162L16.0479 20.3921L35.4136 40.0312H4.53125V39.4922H4V-0.476196ZM5.07813 38.9531H32.8364L13.4677 19.311L33.0107 19.3337L5.07813 1.49176V38.9531Z" fill="#000063"/>
<path fill-rule="evenodd" clip-rule="evenodd" d="M18.1406 29.0469L16.0312 29.75L17.6875 31.2969L15.4609 31.1562L16.375 33.2031L14.3828 32.2422L14.4219 34.4766L12.9531 32.8438L12.1172 34.9219L11.3984 32.8672L9.8125 34.4766L9.95312 32.3125L7.85156 33.2031L8.83594 31.25L6.54687 31.2969L8.22656 29.8672L6.09375 29.0469L8.20312 28.3438L6.53906 26.7969L8.75781 26.9375L7.85156 24.8906L9.85156 25.8516L9.8125 23.6172L11.2812 25.25L12.1172 23.1719L12.8281 25.2266L14.4219 23.6172L14.2734 25.7812L16.3828 24.8906L15.3906 26.8438L17.6875 26.7969L16.0078 28.2266L18.1406 29.0469ZM15.6094 14.6172L14.7266 15.2734L15.1641 15.6328C16.1907 14.9157 17.0165 13.9474 17.5625 12.8203C17.7031 14.4844 16.1797 18.2109 12.1953 18.25C11.4671 18.2593 10.7442 18.1243 10.0684 17.8527C9.39261 17.5811 8.77729 17.1784 8.25796 16.6678C7.73863 16.1572 7.32557 15.5488 7.04261 14.8777C6.75966 14.2066 6.61241 13.4861 6.60937 12.7578C7.39062 14.1797 7.875 14.8672 9.10938 15.6094L9.47656 15.2656L8.64844 14.5703L9.71875 14.2891L9.14062 13.3203L10.2656 13.3984L10.125 12.2734L11.1094 12.8516L11.4219 11.7969L12.125 12.6406L12.7891 11.8359L13.1484 12.9297L14.0703 12.2891L13.9531 13.4063L15.0625 13.2734L14.5391 14.3047L15.6094 14.6172Z" fill="white"/>
</g>
<defs>
<clipPath id="clip0_8424_43212">
<rect width="40" height="40" rx="20" fill="white"/>
</clipPath>
</defs>
</svg>
