<svg width="56" height="56" viewBox="0 0 56 56" fill="none" xmlns="http://www.w3.org/2000/svg">
<g clip-path="url(#clip0_3318_24990)">
<path d="M28 56C43.464 56 56 43.464 56 28C56 12.536 43.464 0 28 0C12.536 0 0 12.536 0 28C0 43.464 12.536 56 28 56Z" fill="#F0F0F0"/>
<path d="M27.9996 0C15.9606 0 5.69741 7.5985 1.74121 18.2609H54.2582C50.3018 7.5985 40.0386 0 27.9996 0Z" fill="#A2001D"/>
<path d="M27.9996 55.9999C40.0386 55.9999 50.3018 48.4014 54.2581 37.739H1.74121C5.69741 48.4014 15.9606 55.9999 27.9996 55.9999Z" fill="#0052B4"/>
</g>
<defs>
<clipPath id="clip0_3318_24990">
<rect width="56" height="56" fill="white"/>
</clipPath>
</defs>
</svg>
