<svg width="40" height="40" viewBox="0 0 40 40" fill="none" xmlns="http://www.w3.org/2000/svg">
<g clip-path="url(#clip0_8424_43216)">
<path d="M-4 0H49.3333V40H-4V0Z" fill="#009543"/>
<path d="M-4 0H49.3333V26.6667H-4V0Z" fill="#ED4135"/>
<path d="M-4 0H49.3333V13.3333H-4V0Z" fill="#0035AD"/>
<path d="M15.9999 33.1083C23.2395 33.1083 29.1083 27.2395 29.1083 19.9999C29.1083 12.7604 23.2395 6.8916 15.9999 6.8916C8.7604 6.8916 2.8916 12.7604 2.8916 19.9999C2.8916 27.2395 8.7604 33.1083 15.9999 33.1083Z" fill="#FAE600"/>
<path fill-rule="evenodd" clip-rule="evenodd" d="M16.0001 7.11257C8.8825 7.11257 3.11257 12.8825 3.11257 20.0001C3.11257 27.1176 8.8825 32.8876 16.0001 32.8876C23.1176 32.8876 28.8876 27.1176 28.8876 20.0001C28.8876 12.8825 23.1176 7.11257 16.0001 7.11257ZM2.6709 20.0001C2.6709 12.6386 8.63857 6.6709 16.0001 6.6709C23.3616 6.6709 29.3292 12.6386 29.3292 20.0001C29.3292 27.3616 23.3616 33.3292 16.0001 33.3292C8.63857 33.3292 2.6709 27.3616 2.6709 20.0001Z" fill="black"/>
<path d="M13.7754 21.9581H18.2171H13.7754ZM13.7754 18.6664H18.2171H13.7754ZM16.0004 6.93311V29.3331V6.93311Z" fill="black"/>
<path fill-rule="evenodd" clip-rule="evenodd" d="M15.7337 18.3998V6.93311H16.2671V18.3998H18.2171V18.9331H16.2671V21.6914H18.2171V22.2248H16.2671V29.3331H15.7337V22.2248H13.7754V21.6914H15.7337V18.9331H13.7754V18.3998H15.7337Z" fill="black"/>
<path d="M10.7168 32.0334C16.0668 34.2251 21.0835 32.1751 21.0835 32.1751C21.0835 32.1751 19.1918 30.1251 18.2251 29.3251C17.2751 28.5417 14.4918 28.5751 13.5418 29.3251C12.5573 30.1821 11.6145 31.0859 10.7168 32.0334Z" fill="black"/>
<path d="M15.9999 28.1749C16.8099 28.1749 17.4665 27.2197 17.4665 26.0415C17.4665 24.8633 16.8099 23.9082 15.9999 23.9082C15.1899 23.9082 14.5332 24.8633 14.5332 26.0415C14.5332 27.2197 15.1899 28.1749 15.9999 28.1749Z" fill="black"/>
<path d="M15.9996 21.4331C16.9799 21.4331 17.7746 20.9294 17.7746 20.3081C17.7746 19.6868 16.9799 19.1831 15.9996 19.1831C15.0193 19.1831 14.2246 19.6868 14.2246 20.3081C14.2246 20.9294 15.0193 21.4331 15.9996 21.4331Z" fill="black"/>
<path d="M15.9996 16.8835C16.9799 16.8835 17.7746 16.0888 17.7746 15.1085C17.7746 14.1282 16.9799 13.3335 15.9996 13.3335C15.0193 13.3335 14.2246 14.1282 14.2246 15.1085C14.2246 16.0888 15.0193 16.8835 15.9996 16.8835Z" fill="black"/>
<path d="M18.1333 8.49173C18.1333 8.49173 18.2833 8.74173 17.9666 9.32507C16.4166 12.1167 14.8583 12.1751 14.5666 12.4167C14.2333 12.6834 14.0999 12.6667 14.0999 12.6667C14.1249 12.4251 14.1416 11.4501 14.1583 11.3584C14.3999 10.0501 16.3666 10.0667 17.9083 8.7334C18.1499 8.52507 18.1333 8.4834 18.1333 8.4834V8.49173ZM12.9333 14.4917C12.9333 14.4917 13.2916 15.4917 13.3333 16.4917C13.4166 18.0917 14.9499 18.1334 15.9999 18.1334V17.2417C15.2083 17.2417 14.5249 17.1251 13.9583 15.9584C13.6601 15.4405 13.3171 14.9497 12.9333 14.4917ZM12.8916 27.3751C12.8916 27.3751 13.4499 26.6834 14.1083 25.0667C14.4416 24.2251 15.2583 23.7334 15.9999 23.7334V22.4834C14.3083 22.4834 13.4999 23.1084 13.4166 24.0334C13.3105 25.157 13.1352 26.273 12.8916 27.3751Z" fill="black"/>
<path d="M19.0667 14.4917C19.0667 14.4917 18.7083 15.4917 18.6667 16.4917C18.5833 18.0917 17.05 18.1334 16 18.1334V17.25C16.7917 17.25 17.475 17.1334 18.0417 15.9584C18.3417 15.4417 18.6833 14.95 19.0667 14.4917ZM19.1083 27.3834C19.1083 27.3834 18.55 26.6834 17.8917 25.0667C17.5583 24.225 16.7417 23.7334 16 23.7334V22.5C17.6917 22.5 18.5 23.125 18.5833 24.05C18.6897 25.1709 18.8651 26.2841 19.1083 27.3834Z" fill="black"/>
</g>
<defs>
<clipPath id="clip0_8424_43216">
<rect width="40" height="40" rx="20" fill="white"/>
</clipPath>
</defs>
</svg>
