<svg width="56" height="56" viewBox="0 0 56 56" fill="none" xmlns="http://www.w3.org/2000/svg">
<g clip-path="url(#clip0_3318_24994)">
<path d="M56 28C56 43.4639 43.4639 56 28 56C12.5361 56 0 43.4639 0 28C0 28.0067 28 0.0030625 28 0C43.4639 0 56 12.5361 56 28Z" fill="#0052B4"/>
<path d="M27.9248 28H27.9997C27.9997 27.9748 27.9997 27.9503 27.9997 27.925C27.9748 27.9501 27.9499 27.975 27.9248 28Z" fill="#F0F0F0"/>
<path d="M28 14.6087C28 9.68188 28 6.45367 28 0H27.9953C12.5335 0.002625 0 12.5375 0 28H14.6087V19.7738L22.835 28H27.9252C27.9501 27.9751 27.9752 27.9501 28.0001 27.9251C28.0001 26.0387 28.0001 24.3555 28.0001 22.8351L19.7737 14.6087H28Z" fill="#F0F0F0"/>
<path d="M14.1659 3.6521C9.78664 6.14574 6.14599 9.7864 3.65234 14.1657V28H10.9567V10.9567V10.9565H28.0002C28.0002 8.65273 28.0002 6.45801 28.0002 3.6521H14.1659Z" fill="#D80027"/>
<path d="M28.0006 24.5566L18.0526 14.6086C18.0526 14.6086 14.6094 14.6089 14.6094 14.6086V14.6089L28.0005 27.9999H28.0006C28.0006 27.9999 28.0006 25.6257 28.0006 24.5566Z" fill="#D80027"/>
<path d="M48.489 20.7769L49.0933 22.6369H51.049L49.4668 23.7864L50.0712 25.6463L48.489 24.4969L46.9066 25.6463L47.511 23.7864L45.9287 22.6369H47.8844L48.489 20.7769Z" fill="#D80027"/>
<path d="M41.4984 34.168L42.405 36.9581H45.3385L42.9651 38.6823L43.8718 41.4724L41.4984 39.7481L39.1249 41.4724L40.0316 38.6823L37.6582 36.9581H40.5918L41.4984 34.168Z" fill="#D80027"/>
<path d="M41.7625 12.2549L42.5181 14.5801H44.9627L42.9848 16.0167L43.7403 18.3418L41.7625 16.9047L39.7848 18.3418L40.5402 16.0167L38.5625 14.5801H41.007L41.7625 12.2549Z" fill="#D80027"/>
<path d="M35.0355 20.6956L35.942 23.4857H38.8756L36.5022 25.2099L37.4089 28L35.0355 26.2757L32.662 28L33.5687 25.2099L31.1953 23.4857H34.1289L35.0355 20.6956Z" fill="#D80027"/>
</g>
<defs>
<clipPath id="clip0_3318_24994">
<rect width="56" height="56" fill="white"/>
</clipPath>
</defs>
</svg>
