<svg width="40" height="40" viewBox="0 0 40 40" fill="none" xmlns="http://www.w3.org/2000/svg">
<g clip-path="url(#clip0_8424_43229)">
<path d="M-7 0H46.3333V40H-7V0Z" fill="#0067C6"/>
<path d="M-7 13.3335H46.3333V26.6668H-7V13.3335Z" fill="white"/>
<path d="M13.666 19.9583L14.3327 20V19.9L14.0827 19.8833L14.0993 19.5667L14.3743 19.3667L14.3827 19.2417L14.091 19.45C14.0827 19.3833 14.041 19.3083 13.9743 19.2833C13.9077 19.2667 13.841 19.2667 13.7827 19.3083C13.716 19.3583 13.6993 19.4417 13.6993 19.5167L13.666 19.9583ZM13.766 19.8667L13.791 19.5333C13.7993 19.4833 13.8077 19.4167 13.8577 19.3833C13.8683 19.3763 13.8803 19.3717 13.8929 19.37C13.9055 19.3683 13.9183 19.3695 13.9304 19.3735C13.9425 19.3775 13.9534 19.3843 13.9625 19.3932C13.9716 19.4021 13.9785 19.413 13.9827 19.425C14.016 19.5083 13.9993 19.6 13.991 19.6917L13.9827 19.875L13.766 19.8667ZM13.7493 18.9333L14.3993 19.0833L14.5493 18.45C14.5188 18.4445 14.4882 18.439 14.4577 18.4333L14.3327 18.9667L14.1327 18.925L14.2493 18.4417L14.1577 18.4167L14.041 18.9L13.8743 18.8583L13.991 18.3417L13.891 18.325L13.7493 18.9333ZM13.9827 18.0583L14.616 18.2833L14.6493 18.1917L14.3993 18.1083L14.4993 17.8167C14.516 17.7333 14.5327 17.65 14.491 17.5667C14.4716 17.5408 14.4464 17.5198 14.4175 17.5053C14.3886 17.4909 14.3567 17.4833 14.3243 17.4833C14.241 17.4833 14.191 17.5417 14.1577 17.6083C14.1077 17.6917 14.0743 17.7917 14.0493 17.8917L13.9827 18.0583ZM14.1077 18L14.2077 17.7167C14.2327 17.6667 14.2577 17.6083 14.316 17.5917C14.3276 17.5893 14.3395 17.5894 14.3511 17.5919C14.3626 17.5945 14.3735 17.5995 14.3829 17.6066C14.3924 17.6137 14.4002 17.6227 14.4059 17.6331C14.4116 17.6434 14.4151 17.6549 14.416 17.6667C14.4327 17.75 14.391 17.8333 14.366 17.9167L14.3077 18.075L14.1077 18ZM14.3327 17.25L14.691 17.4667C14.7577 17.5 14.841 17.5167 14.916 17.4833C15.0063 17.4221 15.0761 17.3349 15.116 17.2333C15.1493 17.15 15.1827 17.05 15.1327 16.9667C15.0827 16.8833 14.991 16.85 14.9077 16.8L14.6827 16.6667L14.6327 16.75L14.966 16.95C15.0243 16.9833 15.066 17.0333 15.0577 17.1083C15.0411 17.1846 15.0068 17.256 14.9577 17.3167C14.9243 17.3667 14.8577 17.4083 14.791 17.4C14.7243 17.3833 14.666 17.3333 14.6077 17.3L14.3827 17.175L14.3327 17.2583V17.25ZM14.816 16.475L15.341 16.875L15.591 16.5583C15.641 16.4833 15.6743 16.3917 15.6493 16.3083C15.6339 16.2763 15.6104 16.2487 15.5812 16.2283C15.552 16.2078 15.5181 16.1952 15.4827 16.1917C15.441 16.1917 15.3993 16.2167 15.3827 16.225C15.3993 16.15 15.341 16.0833 15.2827 16.0667C15.1993 16.0417 15.116 16.0917 15.066 16.15L14.8993 16.3583L14.816 16.475ZM14.9493 16.45C15.0077 16.3667 15.066 16.2833 15.1327 16.2167C15.166 16.1833 15.216 16.1333 15.2577 16.1667C15.2993 16.1833 15.316 16.2417 15.291 16.275C15.2577 16.35 15.2077 16.4 15.1577 16.4667L15.091 16.5583L14.9493 16.45ZM15.166 16.6167L15.3577 16.3667C15.391 16.3333 15.441 16.2833 15.491 16.3C15.541 16.3083 15.5743 16.3583 15.5577 16.4083C15.5327 16.4917 15.466 16.5583 15.4077 16.6333L15.3243 16.7417L15.1577 16.6167H15.166ZM15.416 15.7667L15.8743 16.25L16.266 15.875L16.1993 15.8083L15.8827 16.1083H15.8743L15.4827 15.6917L15.416 15.7667ZM15.9993 15.25L16.4077 15.775L16.491 15.7167L16.0743 15.1917L15.9993 15.25ZM16.5993 14.8417C16.5342 14.8799 16.4775 14.9309 16.4327 14.9917C16.3948 15.0418 16.3737 15.1025 16.3722 15.1653C16.3707 15.2281 16.3889 15.2898 16.4243 15.3417C16.4566 15.3947 16.5027 15.4379 16.5577 15.4667C16.6089 15.4936 16.6667 15.5052 16.7243 15.5C16.8046 15.4894 16.8815 15.4609 16.9493 15.4167C17.0187 15.3769 17.0763 15.3194 17.116 15.25C17.1493 15.1833 17.1577 15.1167 17.141 15.05L17.0577 15.0833C17.0744 15.2167 16.991 15.2833 16.891 15.3333C16.741 15.4333 16.5993 15.425 16.5077 15.2917C16.416 15.1333 16.5077 15.0083 16.641 14.925C16.7327 14.8667 16.8243 14.825 16.9077 14.8833L16.9827 14.8167C16.9343 14.7818 16.8756 14.7642 16.816 14.7667C16.741 14.7667 16.6744 14.8 16.5993 14.85V14.8417ZM17.391 14.45L17.316 15.2L17.4243 15.1583L17.441 14.925L17.7743 14.7917L17.9577 14.9417L18.0577 14.9L17.491 14.4083L17.391 14.45ZM17.4743 14.5333L17.6993 14.7167L17.4493 14.8167L17.4743 14.525V14.5333ZM18.8493 14.0333L18.891 14.7L19.2493 14.6833C19.3493 14.6667 19.4493 14.65 19.5077 14.5667C19.591 14.4833 19.6077 14.3417 19.566 14.225C19.5502 14.1744 19.521 14.129 19.4813 14.0937C19.4417 14.0585 19.3932 14.0347 19.341 14.025C19.241 14.0083 19.141 14.025 19.041 14.025L18.8493 14.0417V14.0333ZM18.9493 14.125L19.241 14.1167C19.2942 14.1142 19.3467 14.1288 19.391 14.1583C19.4577 14.2083 19.4993 14.2833 19.491 14.3667C19.4874 14.4132 19.4694 14.4574 19.4395 14.4932C19.4097 14.5291 19.3694 14.5547 19.3243 14.5667C19.2743 14.5833 19.216 14.5833 19.166 14.5917L18.9827 14.6L18.9493 14.125ZM19.7827 14L19.741 14.6667L20.391 14.7V14.6083L19.841 14.575L19.8493 14.375L20.3493 14.4V14.3083L19.8577 14.2833L19.866 14.1L20.3993 14.1333V14.0333L19.7743 14H19.7827ZM21.516 14.275L21.2743 14.9L21.3577 14.9333L21.5577 14.4333V14.4167L21.5743 14.4417L21.8077 15.1083L21.916 15.15L22.1577 14.525L22.0743 14.4917L21.8827 14.9917L21.8743 15.0083L21.8577 14.9833L21.6327 14.3167L21.516 14.275ZM22.416 14.6667L22.1077 15.25L22.0243 15.2083L22.3243 14.6167L22.416 14.6667ZM22.916 14.9583C22.8554 14.9178 22.7875 14.8895 22.716 14.875C22.6544 14.8575 22.5888 14.8602 22.5288 14.8827C22.4688 14.9052 22.4176 14.9463 22.3827 15C22.3505 15.0527 22.3332 15.1132 22.3327 15.175C22.3327 15.2333 22.341 15.2917 22.3827 15.35C22.416 15.4083 22.466 15.4583 22.5493 15.5167C22.6165 15.5623 22.6937 15.5909 22.7743 15.6C22.8403 15.6019 22.9049 15.5813 22.9577 15.5417L22.891 15.4667C22.7744 15.55 22.6827 15.4917 22.591 15.4333C22.441 15.3333 22.3827 15.2 22.4743 15.0583C22.5744 14.9083 22.7327 14.95 22.866 15.0333C22.9493 15.0917 23.0327 15.1583 23.016 15.2583L23.0993 15.2917C23.1093 15.2349 23.1005 15.1764 23.0743 15.125C23.041 15.0583 22.991 15.0083 22.916 14.9583ZM23.5493 15.4333L22.8577 15.7167L22.941 15.7917L23.1577 15.7083L23.4327 15.9417L23.3743 16.1667L23.4577 16.2417L23.6327 15.5083L23.5493 15.4333ZM23.5243 15.55L23.4577 15.8333L23.2493 15.6667L23.5243 15.55ZM24.0577 15.9L23.541 16.3167L23.5993 16.4L23.8077 16.2333L24.0077 16.4833L23.9493 16.8167L24.0243 16.9083L24.091 16.5583C24.1494 16.6 24.2327 16.625 24.2993 16.5917C24.3577 16.5583 24.416 16.5083 24.416 16.4417C24.416 16.35 24.3577 16.275 24.3077 16.2083L24.0577 15.9ZM24.041 16.0333L24.2577 16.3C24.291 16.35 24.3327 16.4167 24.291 16.4667C24.266 16.5167 24.1993 16.5167 24.1577 16.4833C24.0743 16.425 24.0243 16.3417 23.9577 16.2667L23.8743 16.175L24.041 16.0333ZM24.8327 16.9583L24.0827 16.9917L24.141 17.0917L24.3743 17.0833L24.5577 17.4L24.4243 17.5917L24.4827 17.6917L24.891 17.0583L24.8327 16.9583ZM24.7743 17.0583L24.6077 17.3083L24.4827 17.075L24.7743 17.0583ZM25.266 17.8417C25.2243 17.7333 25.1577 17.6167 25.041 17.5583C24.978 17.5292 24.9072 17.5216 24.8394 17.5366C24.7717 17.5517 24.7108 17.5886 24.666 17.6417C24.5827 17.725 24.5827 17.85 24.6077 17.9667C24.6327 18.0917 24.691 18.2167 24.7743 18.3083L24.7243 18.325L24.7577 18.4167L25.0743 18.3083L24.9493 17.9667L24.8827 17.9917L24.966 18.2417L24.866 18.2833C24.7756 18.199 24.7143 18.0881 24.691 17.9667C24.666 17.875 24.666 17.7667 24.7327 17.7C24.816 17.6167 24.9493 17.5917 25.041 17.6583C25.1327 17.725 25.1827 17.8333 25.2077 17.9417C25.2327 18.0167 25.2243 18.1 25.1743 18.1583C25.1577 18.1583 25.1744 18.1833 25.1827 18.1917L25.2077 18.2333C25.2359 18.2118 25.2588 18.184 25.2747 18.1523C25.2906 18.1205 25.299 18.0855 25.2993 18.05C25.301 17.9791 25.2897 17.9085 25.266 17.8417ZM25.4577 18.3667L25.0827 18.4333C25.0251 18.4417 24.9706 18.4647 24.9243 18.5C24.8882 18.5326 24.8646 18.5768 24.8577 18.625V18.825C24.8827 18.9083 24.9077 18.9667 24.941 19.0167C24.966 19.0667 24.9993 19.1 25.041 19.1C25.0957 19.1141 25.153 19.1141 25.2077 19.1L25.5827 19.0333L25.566 18.9417L25.1993 19.0083C25.0327 19.0417 24.9827 18.9583 24.9493 18.8083C24.9243 18.6583 24.9493 18.5583 25.1077 18.5333L25.4743 18.4583L25.4577 18.3667ZM25.6577 19.5L24.966 19.2L24.9743 19.3167L25.191 19.4L25.216 19.7667L25.016 19.8917L25.0243 20L25.666 19.6083L25.6577 19.5ZM25.5577 19.5583L25.3077 19.7167L25.291 19.45L25.5577 19.5583ZM14.1827 21.225L14.0827 21.25L14.191 21.6583L14.291 21.6333L14.1827 21.225ZM25.1493 21.225L25.2493 21.25L25.141 21.6583L25.041 21.6333L25.1493 21.225ZM15.216 22.9333L14.466 23.0167L14.5327 23.1083L14.766 23.0833L14.966 23.3833L14.8493 23.5917L14.916 23.675L15.2743 23.025L15.216 22.9333ZM15.1577 23.0417L15.016 23.2917L14.866 23.075L15.1577 23.0417ZM15.4993 23.3417L15.0243 23.7833L15.091 23.85L15.491 23.475L15.2743 24.0583L15.3577 24.1333L15.9243 23.9667L15.5327 24.325L15.5993 24.3917L16.0743 23.95L15.9743 23.85L15.391 24.0167L15.6077 23.4583L15.4993 23.3417ZM16.191 24.0417L15.791 24.5833L16.3077 24.9667L16.366 24.8917L15.9243 24.5583L16.0493 24.3917L16.441 24.7L16.4993 24.6167L16.1077 24.325L16.216 24.1833L16.6327 24.5L16.691 24.4167L16.191 24.0417ZM16.841 24.525L16.5327 25.1083L16.616 25.1583L16.741 24.925L17.0243 25.075L17.091 25.4083L17.1993 25.4667L17.1243 25.1167C17.1993 25.1417 17.291 25.125 17.3327 25.0667C17.3743 25.0167 17.4077 24.9583 17.3827 24.8917C17.366 24.8083 17.2743 24.7583 17.2077 24.7167L16.841 24.525ZM16.8827 24.65L17.1827 24.8167C17.2327 24.85 17.291 24.8917 17.2827 24.95C17.2827 25.0083 17.2243 25.0333 17.1743 25.025C17.0743 25.0083 16.991 24.95 16.9077 24.9083L16.7827 24.8417L16.8827 24.65ZM17.5993 24.9167L17.3493 25.5333L17.4327 25.575L17.6827 24.9583L17.5993 24.9167ZM18.1993 25.125C18.13 25.0997 18.0564 25.0884 17.9827 25.0917C17.9185 25.0927 17.8563 25.1143 17.8053 25.1533C17.7543 25.1923 17.7172 25.2467 17.6993 25.3083C17.6842 25.3657 17.6842 25.426 17.6993 25.4833C17.6993 25.55 17.7327 25.6 17.7827 25.65C17.8401 25.701 17.9086 25.7381 17.9827 25.7583C18.0602 25.7859 18.1438 25.7916 18.2243 25.775C18.29 25.7624 18.349 25.7269 18.391 25.675L18.3077 25.625C18.2243 25.7333 18.116 25.7083 18.0077 25.6667C17.841 25.6083 17.7493 25.5 17.7993 25.3333C17.8577 25.1667 18.0243 25.1667 18.166 25.2083C18.266 25.2417 18.3577 25.2917 18.366 25.3833L18.466 25.4C18.4614 25.3373 18.4349 25.2783 18.391 25.2333C18.3371 25.1819 18.2712 25.1447 18.1993 25.125ZM18.866 25.275L18.4327 25.8833L18.541 25.9L18.6743 25.7083L19.041 25.7667L19.116 25.9833L19.2243 26L18.9743 25.2917L18.866 25.275ZM18.9077 25.3833L19.0077 25.6667L18.741 25.625L18.9077 25.3833ZM20.4327 25.2833C20.3493 25.2917 20.291 25.3167 20.2327 25.3583C20.1776 25.3904 20.1342 25.4392 20.1087 25.4977C20.0832 25.5561 20.077 25.6211 20.091 25.6833C20.0993 25.7417 20.1243 25.7917 20.1743 25.85C20.2077 25.8917 20.2577 25.9167 20.3243 25.9333C20.3827 25.95 20.466 25.95 20.5577 25.9333C20.641 25.9167 20.7243 25.8833 20.7743 25.8333C20.8232 25.79 20.8556 25.7311 20.866 25.6667H20.766C20.741 25.8 20.641 25.8333 20.5327 25.85C20.3577 25.8833 20.2243 25.825 20.191 25.6583C20.1577 25.4833 20.2993 25.4 20.441 25.3667C20.5493 25.35 20.6493 25.3417 20.7077 25.425L20.791 25.3917C20.7597 25.3418 20.7129 25.3037 20.6577 25.2833C20.5839 25.2643 20.5065 25.2643 20.4327 25.2833ZM20.8743 25.2L21.066 25.8417L21.691 25.6583L21.6577 25.5667L21.1327 25.725L21.0743 25.525L21.5493 25.3833L21.5243 25.3L21.0493 25.4333L20.9993 25.2667L21.4993 25.1167L21.4743 25.025L20.8743 25.2ZM21.5993 24.975L21.8743 25.5833L21.9577 25.5417L21.7243 25.0417L22.3743 25.3333H22.416L22.4993 25.2917L22.216 24.6833L22.1327 24.725L22.366 25.225L21.6993 24.925L21.5993 24.975ZM22.3327 24.6333L22.3827 24.7167L22.616 24.55H22.6327L22.941 25.025L23.0243 24.9667L22.716 24.5V24.4917L22.9577 24.325L22.9077 24.25L22.3327 24.6333ZM22.9993 24.1667L23.4493 24.6667L23.5243 24.5917L23.3493 24.4L23.5827 24.1833L23.916 24.2333L24.016 24.15L23.6577 24.1C23.6993 24.0417 23.716 23.95 23.6743 23.8833C23.641 23.825 23.591 23.775 23.516 23.7833C23.4327 23.7833 23.3493 23.85 23.291 23.9L22.9993 24.175V24.1667ZM23.1327 24.175L23.3827 23.9417C23.4327 23.9083 23.4993 23.8667 23.5493 23.9C23.6077 23.925 23.6077 23.9917 23.5743 24.0333C23.5243 24.1167 23.4493 24.175 23.3743 24.25L23.2827 24.3333L23.1327 24.1667V24.175ZM23.7743 23.3917L24.0743 24.0833L24.141 24L24.0577 23.7833L24.2827 23.5L24.5077 23.55L24.5827 23.4667L23.8493 23.3L23.7743 23.3917ZM23.891 23.4167L24.1827 23.475L24.016 23.6833L23.891 23.4167ZM24.066 23.0167L24.6243 23.375L24.916 22.925L24.8327 22.875L24.6077 23.2333L24.5993 23.25H24.591L24.116 22.9333L24.066 23.0167Z" fill="#C8A400"/>
<path d="M19.6667 15.0934L17.5667 18.7267L16.54 20.5067H22.7934L21.8134 18.8134L19.6667 15.0934Z" fill="white"/>
<path opacity="0.6" d="M19.6659 15.0934L19.5059 15.3601L19.6659 19.0267L19.8259 15.3601L19.6659 15.0934Z" fill="#17C0EB"/>
<path opacity="0.6" fill-rule="evenodd" clip-rule="evenodd" d="M19.6663 15.0869L19.8297 15.3592L19.6696 19.0269H19.663L19.5029 15.3592L19.6663 15.0869ZM19.5097 15.3609L19.6663 18.9503L19.8229 15.3609L19.6663 15.0999L19.5097 15.3609Z" fill="#17C0EB"/>
<path d="M19.6658 18.5H19.6592L19.6658 18.7L19.6725 18.5H19.6658Z" fill="white"/>
<path d="M19.667 17.7201C18.9569 17.7193 18.2703 17.975 17.7337 18.4401L16.7604 20.1334C16.7255 20.3158 16.7076 20.5011 16.707 20.6868H17.0404C17.0743 20.0139 17.3655 19.3798 17.8537 18.9155C18.342 18.4513 18.99 18.1924 19.6637 18.1924C20.3374 18.1924 20.9854 18.4513 21.4737 18.9155C21.9619 19.3798 22.2531 20.0139 22.287 20.6868H22.6204C22.6219 20.5013 22.6063 20.316 22.5737 20.1334L21.6004 18.4401C21.0634 17.9755 20.3771 17.7199 19.667 17.7201Z" fill="#FF0000"/>
<path d="M19.6664 17.78C18.913 17.7785 18.1886 18.0702 17.6464 18.5934L16.8464 19.9867C16.7898 20.2135 16.7607 20.4463 16.7598 20.68H17.0464C17.0937 20.0175 17.3903 19.3974 17.8764 18.9447C18.3626 18.4921 19.0022 18.2404 19.6664 18.2404C20.3307 18.2404 20.9703 18.4921 21.4564 18.9447C21.9426 19.3974 22.2391 20.0175 22.2864 20.68H22.5731C22.5725 20.4441 22.5434 20.209 22.4864 19.98L21.6864 18.5934C21.1443 18.0702 20.4199 17.7785 19.6664 17.78Z" fill="#FF6600"/>
<path d="M19.6663 17.8334C19.2635 17.8323 18.865 17.9167 18.4973 18.0811C18.1295 18.2454 17.8008 18.4859 17.5329 18.7867L16.9529 19.7867C16.8605 20.0776 16.8155 20.3815 16.8196 20.6867H17.0396C17.0735 20.0138 17.3647 19.3797 17.853 18.9155C18.3412 18.4512 18.9892 18.1923 19.6629 18.1923C20.3367 18.1923 20.9846 18.4512 21.4729 18.9155C21.9611 19.3797 22.2523 20.0138 22.2863 20.6867H22.5196C22.5196 20.3734 22.4663 20.0734 22.3796 19.7934L21.7929 18.7867C21.526 18.4864 21.1985 18.2462 20.8319 18.0819C20.4653 17.9175 20.068 17.8328 19.6663 17.8334Z" fill="#FFFF00"/>
<path d="M19.6662 17.8867C19.2064 17.8864 18.7536 17.9994 18.3478 18.2157C17.942 18.432 17.5957 18.7448 17.3395 19.1267L17.1529 19.4533C16.964 19.837 16.8659 20.259 16.8662 20.6867H17.0462C17.0935 20.0241 17.3901 19.404 17.8762 18.9514C18.3624 18.4987 19.002 18.247 19.6662 18.247C20.3305 18.247 20.9701 18.4987 21.4562 18.9514C21.9423 19.404 22.2389 20.0241 22.2862 20.6867H22.4662C22.4666 20.259 22.3685 19.837 22.1795 19.4533L21.9929 19.12C21.7367 18.7382 21.3904 18.4253 20.9846 18.209C20.5788 17.9928 20.126 17.8798 19.6662 17.88V17.8867Z" fill="#00FF00"/>
<path d="M19.6666 17.9333C19.3053 17.9333 18.9476 18.0046 18.614 18.1431C18.2803 18.2815 17.9772 18.4844 17.722 18.7402C17.4669 18.9959 17.2647 19.2995 17.1271 19.6335C16.9895 19.9675 16.9191 20.3254 16.9199 20.6867H17.0466C17.0939 20.0241 17.3905 19.4041 17.8766 18.9514C18.3627 18.4987 19.0023 18.247 19.6666 18.247C20.3309 18.247 20.9705 18.4987 21.4566 18.9514C21.9427 19.4041 22.2393 20.0241 22.2866 20.6867H22.4133C22.4141 20.3254 22.3437 19.9675 22.2061 19.6335C22.0685 19.2995 21.8663 18.9959 21.6111 18.7402C21.356 18.4844 21.0529 18.2815 20.7192 18.1431C20.3856 18.0046 20.0279 17.9333 19.6666 17.9333Z" fill="#00CCFF"/>
<path d="M19.667 17.9867C18.9526 17.9867 18.2676 18.2705 17.7625 18.7756C17.2574 19.2807 16.9736 19.9657 16.9736 20.68H17.067C17.067 19.9905 17.3409 19.3291 17.8285 18.8416C18.3161 18.354 18.9774 18.08 19.667 18.08C20.3565 18.08 21.0178 18.354 21.5054 18.8416C21.993 19.3291 22.267 19.9905 22.267 20.68H22.3603C22.3568 19.968 22.0715 19.2864 21.5667 18.7842C21.062 18.2819 20.379 18 19.667 18V17.9867Z" fill="#0000FF"/>
<path d="M19.6668 18.0467C19.3161 18.0467 18.969 18.1165 18.6456 18.252C18.3222 18.3876 18.0291 18.5863 17.7833 18.8364C17.5376 19.0865 17.3441 19.383 17.2142 19.7088C17.0843 20.0345 17.0206 20.3828 17.0268 20.7334H17.0801V20.68C17.0872 19.994 17.3665 19.3389 17.8566 18.8588C18.3467 18.3787 19.0074 18.113 19.6934 18.12C20.3795 18.1271 21.0346 18.4064 21.5147 18.8965C21.9948 19.3866 22.2605 20.0473 22.2534 20.7334H22.3068V20.68C22.3068 20.3333 22.2385 19.9901 22.1058 19.6698C21.9731 19.3495 21.7787 19.0584 21.5335 18.8133C21.2884 18.5681 20.9974 18.3737 20.6771 18.241C20.3568 18.1083 20.0135 18.04 19.6668 18.04V18.0467Z" fill="#800080"/>
<path d="M19.6932 19.2067C19.6465 19.2067 19.6132 19.1734 19.5732 19.1667C19.5537 19.1839 19.5392 19.2059 19.531 19.2305C19.5228 19.255 19.5212 19.2814 19.5265 19.3067C19.5465 19.3134 19.5465 19.3334 19.5865 19.3667C19.6265 19.4001 19.6199 19.4134 19.6132 19.5001C19.6132 19.5267 19.6199 19.6001 19.6532 19.6067C19.6865 19.6134 19.7199 19.5867 19.7265 19.5267C19.7332 19.4801 19.7532 19.4467 19.7732 19.4201C19.7932 19.2934 19.7599 19.2467 19.6932 19.2067Z" fill="#510000"/>
<path d="M19.4799 18.9001C19.4399 18.9001 19.3733 18.9667 19.3466 18.9334C19.3333 18.9134 19.3266 18.8734 19.3466 18.8401C19.3766 18.7738 19.4284 18.7197 19.4933 18.6867C19.6466 18.5934 19.7533 18.6201 19.8266 18.7534C19.8999 18.8734 19.9733 19.0067 19.9799 19.1134C19.9799 19.1467 19.9999 19.2067 19.9666 19.2401C19.8799 19.3334 19.6599 19.1401 19.5333 19.1734C19.4933 19.1801 19.4399 19.2134 19.3999 19.1867C19.3733 19.1667 19.3999 19.1201 19.4199 19.1001C19.4599 19.0667 19.5199 18.9401 19.5133 18.8867C19.5133 18.8601 19.5133 18.9001 19.4799 18.9001Z" fill="#FF0000"/>
<path d="M19.4671 18.84C19.3871 18.8667 19.4004 18.9067 19.3604 18.94C19.3737 18.9467 19.4137 18.96 19.4537 18.92C19.4671 18.9067 19.4871 18.9 19.5004 18.9L19.4537 18.9467C19.4141 18.9793 19.3822 19.0203 19.3604 19.0667C19.3404 19.12 19.3337 19.18 19.3404 19.1867C19.3404 19.1867 19.3671 19.24 19.4404 19.2667C19.5737 19.32 19.6004 19.4334 19.7404 19.4334C19.8471 19.4334 19.8337 19.36 19.9204 19.3734C19.9871 19.3867 20.0337 19.3267 19.9604 19.2934C19.8415 19.27 19.7193 19.27 19.6004 19.2934C19.5737 19.0267 19.6004 19.12 19.5937 19C19.5871 18.8867 19.5471 18.88 19.5937 18.78C19.5604 18.8467 19.5137 18.8334 19.4604 18.8334L19.4671 18.84Z" fill="url(#paint0_linear_8424_43229)"/>
<path d="M19.7332 18.6534L19.7266 18.6934L19.7466 18.7601L19.7599 18.8268C19.7599 18.8468 19.7866 18.8534 19.8066 18.8668C19.8332 18.8868 19.8066 18.9334 19.8266 18.9401C19.8399 18.9401 19.8599 18.8734 19.8599 18.8601V18.8134C19.8495 18.7931 19.8383 18.7731 19.8266 18.7534C19.8225 18.7466 19.818 18.7399 19.8132 18.7334C19.7984 18.711 19.7805 18.6908 19.7599 18.6734C19.7534 18.6687 19.7468 18.6643 19.7399 18.6601L19.7266 18.6534H19.7332Z" fill="#FF2A2A"/>
<path d="M19.7529 19.16L19.6195 19.1133C19.5329 19.0867 19.4462 19.0333 19.3862 19.06C19.3662 19.0667 19.3662 19.0867 19.3595 19.12C19.3595 19.1533 19.3262 19.2067 19.3595 19.1867C19.3995 19.16 19.5195 19.24 19.5595 19.26C19.5795 19.2733 19.6262 19.3 19.6329 19.3267C19.6462 19.3667 19.6329 19.4467 19.6329 19.4867C19.6329 19.52 19.6462 19.6067 19.6795 19.62C19.7195 19.6267 19.7529 19.5933 19.7662 19.5333C19.7862 19.4733 19.7929 19.44 19.8195 19.4067C19.8462 19.3733 19.8729 19.3533 19.9062 19.3467C19.9462 19.3467 19.9995 19.38 19.9995 19.3333C19.9995 19.3067 19.9729 19.28 19.9862 19.24C19.9929 19.2067 19.9595 19.2133 19.9262 19.2L19.7462 19.16H19.7529Z" fill="url(#paint1_linear_8424_43229)"/>
<path d="M19.5597 19.2601C19.533 19.2468 19.4063 19.1601 19.3597 19.1934C19.3397 19.1934 19.333 19.1935 19.333 19.1735L19.3463 19.1135C19.3463 19.0935 19.3597 19.0601 19.3797 19.0468C19.4263 19.0068 19.533 19.0801 19.5863 19.1001L19.5597 19.2601Z" fill="#910000"/>
<path d="M19.7865 19.4267C19.8465 19.3201 19.8865 19.3334 19.9599 19.3334C19.9865 19.3334 19.9932 19.3134 19.9865 19.2867C19.9665 19.3267 19.8732 19.2867 19.8199 19.3067C19.7199 19.3534 19.7399 19.5534 19.6865 19.5734C19.7399 19.6201 19.7599 19.4601 19.7865 19.4267Z" fill="#FF3A3A"/>
<path d="M16.5397 20.5067L15.873 21.66H23.4664L22.7997 20.5134H16.5464L16.5397 20.5067Z" fill="white"/>
<path d="M16.3135 21.4267C16.2087 21.4265 16.104 21.4332 16.0001 21.4467L15.9668 21.5067C16.1268 21.4867 16.2801 21.46 16.4468 21.46C16.6601 21.46 16.8601 21.5134 17.0935 21.5134H17.4001C17.6335 21.5134 17.8268 21.46 18.0468 21.46C18.2668 21.46 18.4668 21.5134 18.7001 21.5134H19.0068C19.2401 21.5134 19.4335 21.46 19.6535 21.46C19.8735 21.46 20.0735 21.5134 20.3068 21.5134H20.6068C20.8401 21.5134 21.0401 21.46 21.2601 21.46C21.4801 21.46 21.6801 21.5134 21.9135 21.5134H22.2135C22.4468 21.5134 22.6468 21.46 22.8668 21.46C23.0401 21.46 23.2001 21.4934 23.3668 21.5067L23.3335 21.44C23.236 21.4299 23.1381 21.4255 23.0401 21.4267H22.7401C22.5068 21.4267 22.3068 21.4734 22.0868 21.48C21.8668 21.48 21.6668 21.4267 21.4335 21.4267H21.1335C20.9001 21.4267 20.7001 21.4734 20.4801 21.48C20.2601 21.48 20.0601 21.4267 19.8268 21.4267H19.5335C19.3001 21.4267 19.1001 21.4734 18.8801 21.48C18.6601 21.48 18.4601 21.4267 18.2268 21.4267H17.9268C17.6935 21.4267 17.4935 21.4734 17.2735 21.48C17.0535 21.48 16.8601 21.4267 16.6268 21.4267H16.3201H16.3135Z" fill="url(#paint2_linear_8424_43229)"/>
<path d="M16.5464 20.5V20.5133H22.793L22.7864 20.5H16.5464ZM16.533 20.52L16.5264 20.54H22.7997L22.793 20.52H16.5264H16.533ZM16.5197 20.5467L16.5064 20.5667H22.8264L22.813 20.5467H16.5197ZM16.4997 20.58L16.4797 20.6133H22.853L22.833 20.58H16.4997ZM16.473 20.6267L16.453 20.66H22.8797L22.8597 20.6267H16.473ZM16.4464 20.6733L16.433 20.7H22.8997L22.8864 20.6733H16.4464ZM16.4197 20.72L16.4064 20.7467H22.933L22.913 20.72H16.4197ZM16.393 20.7667L16.373 20.8067H22.9597L22.9397 20.7667H16.3997H16.393Z" fill="url(#paint3_linear_8424_43229)"/>
<path d="M16.8262 20.8199C17.0528 20.8666 17.0728 20.8199 17.0728 20.8199H16.8262ZM22.2595 20.8199C22.2595 20.8199 22.2795 20.8666 22.5062 20.8199H22.2595Z" fill="url(#paint4_linear_8424_43229)"/>
<path d="M21.7072 19.8C21.5938 19.8 21.5605 19.86 21.5605 19.86C21.3805 20.5667 20.7738 21.28 20.0538 21.28H19.5205V22H23.6138L23.2005 21.2667C22.5538 21.1734 22.0272 20.5134 21.8605 19.86C21.8605 19.86 21.8205 19.8 21.7072 19.8Z" fill="url(#paint5_linear_8424_43229)"/>
<path d="M21.7067 19.8334C21.6534 19.8334 21.6267 19.8401 21.6067 19.8534L21.5867 19.8734C21.4867 20.2425 21.294 20.5799 21.0267 20.8534C20.76 21.1267 20.4267 21.3134 20.0534 21.3134H19.54V21.9734H23.6L23.22 21.3067C22.9067 21.2601 22.62 21.0934 22.3934 20.8534C22.1261 20.5799 21.9333 20.2425 21.8334 19.8734L21.8134 19.8534C21.7806 19.8363 21.7435 19.8294 21.7067 19.8334Z" fill="#97C924"/>
<path d="M21.7074 19.8334H21.734V20.5534C21.7277 20.7048 21.6817 20.8519 21.6007 20.98C21.5674 21.0867 21.534 21.0467 21.4474 21.1734C21.3349 21.2121 21.2187 21.239 21.1007 21.2534C20.934 21.28 20.5674 21.3067 20.374 21.26C20.6221 21.1841 20.8469 21.0465 21.0274 20.86C21.077 20.807 21.1237 20.7514 21.1674 20.6934C21.2417 20.601 21.3085 20.5029 21.3674 20.4L21.434 20.2667C21.4659 20.2037 21.4948 20.1391 21.5207 20.0734C21.5464 20.0079 21.5687 19.9412 21.5874 19.8734L21.6074 19.8534L21.6474 19.84L21.714 19.8334H21.7074Z" fill="#EDE71F"/>
<path d="M21.6677 19.9268C21.6343 20.3268 21.5143 20.8068 21.221 21.1134C21.1143 21.2001 20.9743 21.2868 20.8477 21.2668C21.2943 20.9001 21.5677 20.3334 21.661 19.9268H21.6677Z" fill="#C6CB24"/>
<path d="M21.3005 20.62C21.2338 20.8 20.9805 21.0667 20.7138 21.2867H20.5205C20.6872 21.2733 21.0738 20.9533 21.3005 20.62Z" fill="#9ECB34"/>
<path d="M19.8136 19.8668C20.0003 20.5668 20.6003 21.2801 21.3203 21.2801H21.8603V22.0001H17.4736V21.2801H18.007C18.727 21.2801 19.3336 20.5668 19.5136 19.8601C19.5136 19.8601 19.5536 19.8068 19.667 19.8068C19.7803 19.8068 19.8136 19.8601 19.8136 19.8601V19.8668Z" fill="url(#paint6_linear_8424_43229)"/>
<path d="M19.6667 19.8334C19.72 19.8334 19.7467 19.8468 19.7667 19.8534L19.7867 19.8734C19.8866 20.2426 20.0794 20.5799 20.3467 20.8534C20.6133 21.1268 20.9467 21.3134 21.32 21.3134H21.8333V21.9734H17.5V21.3068H18.0133C18.38 21.3068 18.72 21.1268 18.9867 20.8534C19.2515 20.5792 19.442 20.2419 19.54 19.8734L19.56 19.8534C19.593 19.8371 19.6299 19.8301 19.6667 19.8334Z" fill="#97C924"/>
<path d="M19.6207 19.8335C19.614 19.8332 19.6073 19.8332 19.6007 19.8335L19.5607 19.8535L19.5407 19.8735C19.5221 19.9413 19.4998 20.0081 19.474 20.0735C19.4505 20.1414 19.4238 20.2081 19.394 20.2735C19.3731 20.3164 19.3509 20.3586 19.3273 20.4001C19.2685 20.5031 19.2016 20.6011 19.1273 20.6935C19.0835 20.7492 19.0367 20.8026 18.9873 20.8535C18.8076 21.0424 18.5828 21.1823 18.334 21.2601C18.5207 21.3068 18.6007 21.2601 18.7673 21.2335C18.9007 21.2135 19.0473 21.1935 19.1673 21.1535C19.2673 21.0201 19.234 21.0668 19.2673 20.9601C19.3473 20.8135 19.4673 20.6801 19.494 20.5135C19.6007 20.3135 19.6207 19.9401 19.6207 19.8335Z" fill="#EDE71F"/>
<path d="M19.6208 19.9268C19.5941 20.3268 19.4674 20.8068 19.1741 21.1134C19.0674 21.2001 18.9341 21.2868 18.8008 21.2668C19.2541 20.9001 19.5274 20.3334 19.6208 19.9268Z" fill="#C6CB24"/>
<path d="M19.2538 20.6201C19.1089 20.8822 18.9087 21.1097 18.6671 21.2868H18.4805C18.6471 21.2735 19.0271 20.9535 19.2538 20.6201Z" fill="#9ECB34"/>
<path d="M19.7335 19.8401L19.7669 19.8534L19.7935 19.8734C19.8125 19.9411 19.8347 20.0079 19.8602 20.0734C19.8837 20.1413 19.9104 20.2081 19.9402 20.2734L20.0069 20.4001C20.0657 20.503 20.1326 20.6011 20.2069 20.6934C20.2507 20.7491 20.2975 20.8025 20.3469 20.8534C20.5254 21.0498 20.7499 21.1987 21.0002 21.2868C20.5135 21.2868 20.3069 21.2468 20.1335 21.0201C20.0075 20.8867 19.912 20.7274 19.8535 20.5534C19.8202 20.4201 19.7202 20.1201 19.7269 19.8401H19.7335Z" fill="#EDE71F"/>
<path d="M19.7666 19.9268C19.7933 20.3268 19.9133 20.7268 20.2066 21.0334C20.3133 21.1268 20.4466 21.2068 20.5799 21.1868C20.1611 20.883 19.871 20.4335 19.7666 19.9268Z" fill="#C6CB24"/>
<path d="M18.6537 19.8C18.5337 19.8 18.5004 19.86 18.5004 19.86C18.3337 20.5134 17.7137 21.3467 17.0671 21.4467L16.7471 22H20.0137V21.2467C19.4271 21.0867 18.9537 20.4667 18.8004 19.86C18.8004 19.86 18.7671 19.8067 18.6471 19.8067L18.6537 19.8Z" fill="url(#paint7_linear_8424_43229)"/>
<path d="M18.6533 19.8334C18.5999 19.8334 18.5666 19.8467 18.5466 19.8534L18.5266 19.8734C18.4145 20.2391 18.2309 20.579 17.9866 20.8734C17.7599 21.16 17.3399 21.4467 17.0533 21.4734L16.7666 21.9734H19.9666V21.26C19.7259 21.1806 19.5084 21.0432 19.3333 20.86C19.065 20.5846 18.8722 20.2448 18.7733 19.8734L18.7533 19.8534C18.7223 19.8379 18.6878 19.8309 18.6533 19.8334Z" fill="#97C924"/>
<path d="M18.5602 19.9268C18.5202 20.5268 18.1869 21.2934 17.8069 21.4201C17.6802 21.4668 17.4669 21.4801 17.3936 21.4868C17.6875 21.3234 17.9439 21.1002 18.146 20.8314C18.3481 20.5627 18.4915 20.2545 18.5669 19.9268H18.5602Z" fill="#93BC30"/>
<path d="M18.6535 19.8333H18.6201V20.5533C18.6201 20.7067 18.6801 20.8333 18.7535 20.98L18.7668 21.0133C18.8001 21.0867 18.8201 21.1133 18.9201 21.1933C19.2064 21.3976 19.5566 21.4923 19.9068 21.46C19.8335 21.4 19.7535 21.3467 19.6801 21.3L19.9801 21.2667C19.733 21.1859 19.5105 21.0437 19.3335 20.8533C19.3012 20.821 19.2701 20.7877 19.2401 20.7533L19.2001 20.7C19.1212 20.6058 19.0499 20.5055 18.9868 20.4C18.9631 20.3563 18.9409 20.3118 18.9201 20.2667C18.8792 20.1823 18.8436 20.0954 18.8135 20.0067C18.7987 19.9627 18.7853 19.9182 18.7735 19.8733L18.7535 19.8533C18.7408 19.847 18.7274 19.8425 18.7135 19.84C18.6917 19.8347 18.6692 19.8324 18.6468 19.8333H18.6535Z" fill="#EDE71F"/>
<path d="M18.6934 19.9268C18.7267 20.3268 18.8467 20.8068 19.14 21.1134C19.2467 21.2001 19.38 21.2868 19.5134 21.2668C19.1067 20.9168 18.8199 20.4482 18.6934 19.9268Z" fill="#CCD11E"/>
<path d="M18.9736 20.4868C19.1896 20.9091 19.5291 21.2556 19.947 21.4801H20.1136C19.8203 21.3201 19.347 21.0934 18.9803 20.4801L18.9736 20.4868Z" fill="#9ECB34"/>
<path d="M23.4333 21.6467C23.3933 21.66 23.1399 21.6333 23.0066 21.6467L22.9199 21.6667H22.6999C22.4599 21.6667 22.2533 21.7333 22.0266 21.7333C21.7999 21.7333 21.5933 21.6667 21.3599 21.6667H21.1333C20.8933 21.6667 20.6866 21.7333 20.4599 21.7333C20.2333 21.7333 20.0266 21.6667 19.7933 21.6667H19.5666C19.3266 21.6667 19.1199 21.7333 18.8999 21.7333C18.6666 21.7333 18.4666 21.6667 18.2266 21.6667H17.9999C17.7599 21.6667 17.5599 21.7333 17.3333 21.7333C17.0999 21.7333 16.8999 21.6667 16.6599 21.6667H16.4333C16.2466 21.6667 16.0199 21.7067 15.8399 21.72L15.4199 22.4467H23.9133L23.4333 21.6467Z" fill="white"/>
<path d="M22.8664 21.54H22.8264C22.6131 21.5467 22.4531 21.6134 22.0797 21.6134C21.7064 21.6134 21.6664 21.5467 21.2397 21.56C20.8397 21.56 20.6797 21.64 20.4597 21.64C20.2464 21.64 19.8997 21.5934 19.6264 21.62C19.3597 21.6467 19.0397 21.7067 18.8264 21.7067C18.5664 21.7067 18.3064 21.66 18.0397 21.6867C17.7664 21.7134 17.6397 21.7867 17.2997 21.7867C17.0064 21.7867 16.6997 21.74 16.4464 21.74C16.2197 21.74 15.9664 21.8067 15.7797 21.8334L15.7197 21.9334C15.8731 21.9134 16.2931 21.8467 16.4397 21.8467C16.5997 21.8467 17.1531 21.88 17.4597 21.8667C17.7731 21.86 17.8064 21.7867 18.1731 21.7867C18.4264 21.7867 18.6131 21.8134 18.8731 21.8134C19.0397 21.8134 19.1864 21.7334 19.4331 21.7334L19.6197 21.7267C19.8264 21.6934 20.1797 21.7267 20.4197 21.74C20.6397 21.7534 20.7864 21.7 21.0197 21.6934L21.3131 21.6867C21.5464 21.6734 21.7397 21.7267 21.9597 21.7267C22.1731 21.7134 22.3864 21.66 22.6131 21.66L22.9131 21.6467C23.0664 21.6467 23.3064 21.6467 23.4664 21.68L23.4131 21.5867C23.2531 21.58 23.0597 21.54 22.8664 21.54Z" fill="url(#paint8_linear_8424_43229)"/>
<path d="M16.3528 22.32C16.1261 22.32 15.9261 22.3734 15.7128 22.38C15.6325 22.3779 15.5523 22.3712 15.4728 22.36L15.4395 22.4134H15.8395C16.0728 22.4134 16.2661 22.36 16.4795 22.3534C16.6995 22.36 16.8928 22.42 17.1261 22.42H17.4261C17.6528 22.42 17.8528 22.36 18.0661 22.3534C18.2861 22.36 18.4861 22.42 18.7128 22.42H19.0128C19.2461 22.42 19.4395 22.36 19.6595 22.3534C19.8728 22.36 20.0661 22.42 20.2995 22.42H20.5995C20.8261 22.42 21.0261 22.36 21.2461 22.3534C21.4595 22.36 21.6595 22.42 21.8861 22.42H22.1861C22.4195 22.42 22.6128 22.36 22.8261 22.3534C23.0461 22.36 23.2395 22.42 23.4728 22.42H23.7728L23.8928 22.4134L23.8595 22.36C23.7928 22.3667 23.7195 22.38 23.6461 22.38C23.4261 22.38 23.2328 22.3134 22.9995 22.3134H22.6995C22.4728 22.3134 22.2728 22.38 22.0595 22.38C21.8395 22.3734 21.6461 22.3134 21.4128 22.3134H21.1128C20.8861 22.3134 20.6861 22.38 20.4728 22.38C20.2528 22.3734 20.0595 22.3134 19.8261 22.3134H19.5261C19.2928 22.3134 19.0995 22.38 18.8861 22.38C18.6661 22.3734 18.4728 22.3134 18.2395 22.3134H17.9395C17.7128 22.3134 17.5128 22.38 17.2995 22.38C17.0795 22.3734 16.8861 22.3134 16.6528 22.3134H16.3528V22.32Z" fill="url(#paint9_linear_8424_43229)"/>
<path d="M15.9264 21.6467L15.7598 21.9267C15.9531 21.8934 16.2331 21.8134 16.4731 21.8134C16.7131 21.8134 17.0064 21.8734 17.2998 21.88C17.6331 21.88 17.7664 21.8 18.0331 21.7734C18.3064 21.7467 18.5664 21.8067 18.8331 21.8134C19.0398 21.8134 19.3598 21.74 19.6331 21.7134C19.8998 21.68 20.1464 21.7334 20.4664 21.7334C20.7931 21.74 20.8464 21.6534 21.2398 21.6467C21.6664 21.64 21.7064 21.7067 22.0798 21.7067C22.3598 21.72 22.6064 21.6467 22.8598 21.6334C23.1131 21.6134 23.2264 21.6334 23.4131 21.6334L23.2864 21.42L16.5331 21.5734L15.9264 21.6467Z" fill="#97C924"/>
<path d="M23 21.64L23.2667 21.66C23.331 21.6677 23.3955 21.6744 23.46 21.68L23.4333 21.6467C23.3933 21.66 23.14 21.6333 23.0067 21.6467L23 21.64Z" fill="white"/>
<path d="M19.6673 14.9917L17.5257 18.7L15.334 22.5H24.0007L21.859 18.7834L19.6673 15V14.9917ZM19.6673 15.1917L21.7673 18.8334L23.8257 22.4H15.509L17.609 18.75L19.6673 15.1917Z" fill="#C8A400"/>
</g>
<defs>
<linearGradient id="paint0_linear_8424_43229" x1="19.5804" y1="19.2734" x2="19.7071" y2="18.8934" gradientUnits="userSpaceOnUse">
<stop stop-color="#510000"/>
<stop offset="0.3" stop-color="#8A0000"/>
<stop offset="1" stop-color="#AA0000"/>
</linearGradient>
<linearGradient id="paint1_linear_8424_43229" x1="19.7595" y1="19.4267" x2="19.8595" y2="19.16" gradientUnits="userSpaceOnUse">
<stop stop-color="#FF2A2A"/>
<stop offset="1" stop-color="#FF0000"/>
</linearGradient>
<linearGradient id="paint2_linear_8424_43229" x1="15.9668" y1="21.1667" x2="28.6268" y2="21.1667" gradientUnits="userSpaceOnUse">
<stop stop-color="#002255"/>
<stop offset="0.5" stop-color="#0044AA"/>
<stop offset="1" stop-color="#002255"/>
</linearGradient>
<linearGradient id="paint3_linear_8424_43229" x1="15.9664" y1="21.1667" x2="28.6264" y2="21.1667" gradientUnits="userSpaceOnUse">
<stop stop-color="#002255"/>
<stop offset="0.5" stop-color="#0044AA"/>
<stop offset="1" stop-color="#002255"/>
</linearGradient>
<linearGradient id="paint4_linear_8424_43229" x1="15.9662" y1="21.1666" x2="28.6262" y2="21.1666" gradientUnits="userSpaceOnUse">
<stop stop-color="#002255"/>
<stop offset="0.5" stop-color="#0044AA"/>
<stop offset="1" stop-color="#002255"/>
</linearGradient>
<linearGradient id="paint5_linear_8424_43229" x1="18.6538" y1="20.78" x2="18.6538" y2="21.1734" gradientUnits="userSpaceOnUse">
<stop stop-color="#F5F549"/>
<stop offset="1" stop-color="#97C924"/>
</linearGradient>
<linearGradient id="paint6_linear_8424_43229" x1="18.6536" y1="20.7801" x2="18.6536" y2="21.1734" gradientUnits="userSpaceOnUse">
<stop stop-color="#F5F549"/>
<stop offset="1" stop-color="#97C924"/>
</linearGradient>
<linearGradient id="paint7_linear_8424_43229" x1="18.6537" y1="20.78" x2="18.6537" y2="21.1734" gradientUnits="userSpaceOnUse">
<stop stop-color="#F5F549"/>
<stop offset="1" stop-color="#97C924"/>
</linearGradient>
<linearGradient id="paint8_linear_8424_43229" x1="15.7205" y1="21.5416" x2="23.476" y2="21.5416" gradientUnits="userSpaceOnUse">
<stop stop-color="#002255"/>
<stop offset="0.5" stop-color="#0044AA"/>
<stop offset="1" stop-color="#002255"/>
</linearGradient>
<linearGradient id="paint9_linear_8424_43229" x1="15.4689" y1="22.316" x2="23.863" y2="22.316" gradientUnits="userSpaceOnUse">
<stop stop-color="#002255"/>
<stop offset="0.5" stop-color="#0044AA"/>
<stop offset="1" stop-color="#002255"/>
</linearGradient>
<clipPath id="clip0_8424_43229">
<rect width="40" height="40" rx="20" fill="white"/>
</clipPath>
</defs>
</svg>
