<svg width="40" height="40" viewBox="0 0 40 40" fill="none" xmlns="http://www.w3.org/2000/svg">
<g clip-path="url(#clip0_8424_43370)">
<path d="M-7 0H46.3333V40H-7V0Z" fill="#FEDD00"/>
<path d="M-7 0H19.6667V20H-7V0Z" fill="#012169"/>
<path d="M-3.875 0L6.29167 7.54167L16.4167 0H19.6667V2.58333L9.66667 10.0417L19.6667 17.4583V20H16.3333L6.33333 12.5417L-3.625 20H-7V17.5L2.95833 10.0833L-7 2.66667V0H-3.875Z" fill="white"/>
<path d="M10.6667 11.7083L19.6667 18.3333V20L8.375 11.7083H10.6667ZM3 12.5417L3.25 14L-4.75 20H-7L3 12.5417ZM19.6667 0V0.125L9.29167 7.95833L9.375 6.125L17.5833 0H19.6667ZM-7 0L2.95833 7.33333H0.458333L-7 1.75V0Z" fill="#C8102E"/>
<path d="M3.04167 0V20H9.70833V0H3.04167ZM-7 6.66667V13.3333H19.6667V6.66667H-7Z" fill="white"/>
<path d="M-7 8.04167V12.0417H19.6667V8.04167H-7ZM4.375 0V20H8.375V0H4.375Z" fill="#C8102E"/>
<path d="M6.33359 13.4001C8.21136 13.4001 9.73359 11.8779 9.73359 10.0001C9.73359 8.12233 8.21136 6.6001 6.33359 6.6001C4.45583 6.6001 2.93359 8.12233 2.93359 10.0001C2.93359 11.8779 4.45583 13.4001 6.33359 13.4001Z" fill="#012169"/>
<path d="M6.3332 6.5999L8.3332 12.7499L3.09987 8.9499H9.56653L4.3332 12.7499M-1.4418 8.19157L-0.275131 11.8082L-3.3418 9.58323H0.466536L-2.6168 11.8166M14.1082 8.19157L15.2832 11.8082L12.2082 9.5749H16.0165L12.9332 11.8082M6.3332 14.8582L7.5082 18.4749L4.42487 16.2416H8.2332L5.14987 18.4749M6.3332 1.5249L7.5082 5.14157L4.42487 2.90824H8.2332L5.14987 5.14157" fill="#FEDD00"/>
</g>
<defs>
<clipPath id="clip0_8424_43370">
<rect width="40" height="40" rx="20" fill="white"/>
</clipPath>
</defs>
</svg>
