<svg width="40" height="40" viewBox="0 0 40 40" fill="none" xmlns="http://www.w3.org/2000/svg">
<g clip-path="url(#clip0_8424_43230)">
<path d="M-7 0H46.3333V40H-7V0Z" fill="#D20000"/>
<path d="M-7 0H1L19.6667 19.2833L38.3333 0H46.3333L-7 40H1L19.6667 20.7167L38.3333 40H46.3333L-7 0ZM46.3333 16V24L-7 16V24L46.3333 16ZM16.3333 0L19.6667 17.1417L23 0H16.3333ZM16.3333 40L19.6667 22.8583L23 40H16.3333Z" fill="#FFE600"/>
<path d="M19.6672 26.4252C23.2156 26.4252 26.0922 23.5486 26.0922 20.0002C26.0922 16.4518 23.2156 13.5752 19.6672 13.5752C16.1188 13.5752 13.2422 16.4518 13.2422 20.0002C13.2422 23.5486 16.1188 26.4252 19.6672 26.4252Z" fill="#FFE600"/>
<path fill-rule="evenodd" clip-rule="evenodd" d="M19.6668 14.2873C16.5119 14.2873 13.9543 16.8449 13.9543 19.9998C13.9543 23.1547 16.5119 25.7123 19.6668 25.7123C22.8217 25.7123 25.3793 23.1547 25.3793 19.9998C25.3793 16.8449 22.8217 14.2873 19.6668 14.2873ZM12.5293 19.9998C12.5293 16.0579 15.7249 12.8623 19.6668 12.8623C23.6087 12.8623 26.8043 16.0579 26.8043 19.9998C26.8043 23.9417 23.6087 27.1373 19.6668 27.1373C15.7249 27.1373 12.5293 23.9417 12.5293 19.9998Z" fill="#D20000"/>
</g>
<defs>
<clipPath id="clip0_8424_43230">
<rect width="40" height="40" rx="20" fill="white"/>
</clipPath>
</defs>
</svg>
