<svg width="56" height="56" viewBox="0 0 56 56" fill="none" xmlns="http://www.w3.org/2000/svg">
<g clip-path="url(#clip0_3318_25071)">
<path d="M28 56C43.464 56 56 43.464 56 28C56 12.536 43.464 0 28 0C12.536 0 0 12.536 0 28C0 43.464 12.536 56 28 56Z" fill="#F0F0F0"/>
<path d="M0.964844 35.3044C2.58491 41.3156 6.15545 46.5256 10.9568 50.2147V35.3044H0.964844Z" fill="#D80027"/>
<path d="M25.5654 55.8935C26.368 55.9626 27.1797 56.0001 28.0002 56.0001C40.937 56.0001 51.8226 47.2259 55.0356 35.3044H25.5654V55.8935Z" fill="#D80027"/>
<path d="M55.0356 20.6956C51.8226 8.77417 40.937 0 28.0002 0C27.1797 0 26.368 0.0374062 25.5654 0.106531V20.6956H55.0356Z" fill="#D80027"/>
<path d="M10.9568 5.7854C6.15545 9.47462 2.58491 14.6845 0.964844 20.6956H10.9568V5.7854Z" fill="#D80027"/>
<path d="M55.763 24.3478H21.9132H21.9131V0.665527C19.3255 1.23931 16.8723 2.16932 14.6087 3.4045V24.3476V24.3477H0.237016C0.0811563 25.5433 0 26.7622 0 28C0 29.2378 0.0811563 30.4567 0.237016 31.6521H14.6086H14.6087V52.5954C16.8723 53.8304 19.3255 54.7607 21.9131 55.3343V31.6525V31.6522H55.763C55.9186 30.4567 56 29.2378 56 28C56 26.7622 55.9186 25.5433 55.763 24.3478Z" fill="#0052B4"/>
</g>
<defs>
<clipPath id="clip0_3318_25071">
<rect width="56" height="56" fill="white"/>
</clipPath>
</defs>
</svg>
