<svg width="40" height="40" viewBox="0 0 40 40" fill="none" xmlns="http://www.w3.org/2000/svg">
<g clip-path="url(#clip0_8424_43215)">
<path fill-rule="evenodd" clip-rule="evenodd" d="M-11 -1.79993H47.525V44.2834H-11V-1.79993Z" fill="#EF2D29"/>
<path fill-rule="evenodd" clip-rule="evenodd" d="M3.8252 26.4418H48.4669V43.7501H3.8252V26.4418Z" fill="#009025"/>
<path fill-rule="evenodd" clip-rule="evenodd" d="M3.82474 -2.94995H50.8997V12.8834H3.81641L3.82474 -2.94995Z" fill="white"/>
<path d="M0.9417 5.79907H-0.970325C-1.07355 5.79907 -1.15723 5.87719 -1.15723 5.97355V6.88146C-1.15723 6.97782 -1.07355 7.05594 -0.970325 7.05594H0.9417C1.04492 7.05594 1.1286 6.97782 1.1286 6.88146V5.97355C1.1286 5.87719 1.04492 5.79907 0.9417 5.79907Z" fill="white"/>
<path fill-rule="evenodd" clip-rule="evenodd" d="M-0.97012 5.80998C-1.06802 5.80998 -1.14607 5.88389 -1.14607 5.97352V6.88142C-1.14607 6.97104 -1.06802 7.04495 -0.97012 7.04495H0.941905C1.0398 7.04495 1.11786 6.97104 1.11786 6.88142V5.97352C1.11786 5.88389 1.0398 5.80998 0.941905 5.80998H-0.97012ZM-1.16797 5.97352C-1.16797 5.87041 -1.07867 5.78809 -0.97012 5.78809H0.941905C1.05045 5.78809 1.13975 5.87041 1.13975 5.97352V6.88142C1.13975 6.98452 1.05045 7.06685 0.941905 7.06685H-0.97012C-1.07867 7.06685 -1.16797 6.98452 -1.16797 6.88142V5.97352Z" fill="#EF2D28"/>
<path d="M0.89376 5.85229H-0.920678C-1.01842 5.85229 -1.09766 5.92446 -1.09766 6.01347V6.84448C-1.09766 6.9335 -1.01842 7.00565 -0.920678 7.00565H0.89376C0.991502 7.00565 1.07074 6.9335 1.07074 6.84448V6.01347C1.07074 5.92446 0.991502 5.85229 0.89376 5.85229Z" fill="white"/>
<path fill-rule="evenodd" clip-rule="evenodd" d="M-0.920279 5.86237C-1.01332 5.86237 -1.08709 5.93085 -1.08709 6.01338V6.84439C-1.08709 6.92692 -1.01332 6.9954 -0.920279 6.9954H0.894159C0.987203 6.9954 1.06097 6.92692 1.06097 6.84439V6.01338C1.06097 5.93085 0.987203 5.86237 0.894159 5.86237H-0.920279ZM-1.10742 6.01338C-1.10742 5.91788 -1.02272 5.84204 -0.920279 5.84204H0.894159C0.9966 5.84204 1.0813 5.91788 1.0813 6.01338V6.84439C1.0813 6.93989 0.996599 7.01573 0.894159 7.01573H-0.920279C-1.02272 7.01573 -1.10742 6.93989 -1.10742 6.84439V6.01338Z" fill="#EF2D28"/>
<path fill-rule="evenodd" clip-rule="evenodd" d="M-0.0886598 6.16479L0.0206113 6.16912L0.0251173 6.21931L0.115238 6.26517L0.185081 6.2072L0.269569 6.25306L0.190714 6.30325L0.209864 6.37247L0.308997 6.36814V6.459L0.230142 6.45554L0.189587 6.51265L0.279708 6.57755L0.209864 6.6312L0.134389 6.57409L0.0251173 6.59659L0.0307499 6.68052L-0.0886598 6.68918L-0.104431 6.60784L-0.203563 6.5663L-0.258762 6.62341L-0.34325 6.58101L-0.293684 6.51611L-0.353389 6.47458H-0.437877L-0.442383 6.35603L-0.357895 6.36382L-0.29819 6.29459L-0.368033 6.24094L-0.277913 6.18037L-0.213702 6.22969L-0.104431 6.21412L-0.0886598 6.16479Z" fill="white"/>
<path fill-rule="evenodd" clip-rule="evenodd" d="M-0.0934305 6.1582L0.0263536 6.16295L0.0310464 6.21521L0.114241 6.25755L0.18418 6.1995L0.282067 6.25263L0.19802 6.30612L0.214542 6.36585L0.315269 6.36145V6.46572L0.233206 6.46212L0.198365 6.51118L0.290314 6.5774L0.209748 6.63928L0.132689 6.58098L0.03175 6.60176L0.0374351 6.68648L-0.0940213 6.696L-0.110223 6.61244L-0.202143 6.57393L-0.257571 6.63128L-0.353198 6.58329L-0.303002 6.51756L-0.355547 6.48101H-0.4442L-0.449219 6.34898L-0.360742 6.35714L-0.307631 6.29556L-0.379166 6.24061L-0.277808 6.17248L-0.21208 6.22297L-0.109464 6.20835L-0.0934305 6.1582ZM-0.0841797 6.17141L-0.0996886 6.21992L-0.215615 6.23644L-0.278308 6.18828L-0.357191 6.2413L-0.28904 6.29365L-0.355339 6.37053L-0.435838 6.36311L-0.431844 6.46817H-0.351521L-0.284657 6.51469L-0.333593 6.57876L-0.260244 6.61558L-0.205275 6.5587L-0.0989296 6.60326L-0.083589 6.68238L0.023774 6.6746L0.018194 6.59144L0.135797 6.56723L0.20969 6.62314L0.268811 6.57773L0.180518 6.51415L0.226787 6.44899L0.302434 6.45231V6.37486L0.204896 6.37912L0.183117 6.30039L0.256781 6.25351L0.185692 6.21492L0.115944 6.27282L0.0188976 6.22343L0.0145783 6.17532L-0.0841797 6.17141Z" fill="#EF2D28"/>
<path d="M-0.0578712 6.51724C0.00886674 6.51724 0.0629685 6.47122 0.0629685 6.41444C0.0629685 6.35767 0.00886674 6.31165 -0.0578712 6.31165C-0.124609 6.31165 -0.178711 6.35767 -0.178711 6.41444C-0.178711 6.47122 -0.124609 6.51724 -0.0578712 6.51724Z" fill="white"/>
<path fill-rule="evenodd" clip-rule="evenodd" d="M-0.0577962 6.31851C-0.121807 6.31851 -0.171725 6.36245 -0.171725 6.4144C-0.171725 6.46635 -0.121807 6.51029 -0.0577962 6.51029C0.00621489 6.51029 0.0561326 6.46635 0.0561326 6.4144C0.0561326 6.36245 0.00621492 6.31851 -0.0577962 6.31851ZM-0.185547 6.4144C-0.185547 6.3528 -0.127261 6.30469 -0.0577962 6.30469C0.0116685 6.30469 0.0699544 6.3528 0.0699544 6.4144C0.0699544 6.47599 0.0116685 6.52411 -0.0577962 6.52411C-0.127261 6.52411 -0.185547 6.47599 -0.185547 6.4144Z" fill="#EF2D28"/>
<path fill-rule="evenodd" clip-rule="evenodd" d="M-0.804766 5.90405L-0.981744 6.06079L-0.804766 5.90405ZM-0.687332 5.90405L-0.86431 6.06079L-0.687332 5.90405ZM-0.571552 5.90405L-0.746876 6.06079L-0.571552 5.90405ZM-0.454118 5.90405L-0.629442 6.06079L-0.454118 5.90405ZM-0.336684 5.90405L-0.512008 6.06079L-0.336684 5.90405ZM-0.21925 5.90405L-0.394574 6.06079L-0.21925 5.90405ZM-0.101816 5.90405L-0.27714 6.06079L-0.101816 5.90405ZM0.0156175 5.90405L-0.159706 6.06079L0.0156175 5.90405ZM0.133052 5.90405L-0.0439265 6.06079L0.133052 5.90405ZM0.250486 5.90405L0.0718535 6.06079L0.250486 5.90405ZM0.364612 5.90405L0.189287 6.06079L0.364612 5.90405ZM0.482046 5.90405L0.306722 6.06079L0.482046 5.90405ZM0.0139636 5.90405L-0.159706 6.06079L0.0139636 5.90405ZM0.601134 5.90405L0.42581 6.06079L0.601134 5.90405ZM0.718568 5.90405L0.543244 6.06079L0.718568 5.90405ZM0.836002 5.90405L0.660678 6.06079L0.836002 5.90405ZM0.953436 5.90405L0.778111 6.06079L0.953436 5.90405ZM0.778111 5.90405L0.953436 6.06079L0.778111 5.90405ZM0.660678 5.90405L0.836002 6.06079L0.660678 5.90405ZM0.543244 5.90405L0.718568 6.06079L0.543244 5.90405ZM0.42581 5.90405L0.601134 6.06079L0.42581 5.90405ZM0.308376 5.90405L0.4837 6.06079L0.308376 5.90405ZM0.190942 5.90405L0.366266 6.06079L0.190942 5.90405ZM0.0735074 5.90405L0.250486 6.06079L0.0735074 5.90405ZM-0.0439265 5.90405L0.131397 6.06079L-0.0439265 5.90405ZM-0.163014 5.90405L0.0139636 6.06079L-0.163014 5.90405ZM-0.278794 5.90405L-0.10347 6.06079L-0.278794 5.90405ZM-0.396228 5.90405L-0.220904 6.06079L-0.396228 5.90405ZM-0.513662 5.90405L-0.338338 6.06079L-0.513662 5.90405ZM-0.0439265 5.90405L0.131397 6.06079L-0.0439265 5.90405ZM-0.629442 5.90405L-0.455772 6.06079L-0.629442 5.90405ZM-0.74853 5.90405L-0.571552 6.06079L-0.74853 5.90405ZM-0.865964 5.90405L-0.688986 6.06079L-0.865964 5.90405ZM-0.983398 5.90405L-0.804766 6.06079L-0.983398 5.90405ZM-0.804766 6.79421L-0.98009 6.95243L-0.804766 6.79421ZM-0.688986 6.79421L-0.865964 6.95243L-0.688986 6.79421ZM-0.569898 6.79421L-0.746876 6.95243L-0.569898 6.79421ZM-0.454118 6.79421L-0.629442 6.95243L-0.454118 6.79421ZM-0.336684 6.79421L-0.512008 6.95243L-0.336684 6.79421ZM-0.21925 6.79421L-0.394574 6.95243L-0.21925 6.79421ZM-0.101816 6.79421L-0.275486 6.95243L-0.101816 6.79421ZM0.0156175 6.79421L-0.159706 6.95243L0.0156175 6.79421ZM0.133052 6.79421L-0.0439265 6.95243L0.133052 6.79421ZM0.248832 6.79421L0.0718535 6.95243L0.248832 6.79421ZM0.369574 6.79421L0.192596 6.95243L0.369574 6.79421ZM0.485354 6.79421L0.31003 6.95243L0.485354 6.79421ZM0.0156175 6.79421L-0.159706 6.95243L0.0156175 6.79421ZM0.601134 6.79421L0.42581 6.95243L0.601134 6.79421ZM0.718568 6.79421L0.543244 6.95243L0.718568 6.79421ZM0.836002 6.79421L0.660678 6.95243L0.836002 6.79421ZM0.953436 6.79421L0.778111 6.95243L0.953436 6.79421ZM0.778111 6.79421L0.953436 6.95243L0.778111 6.79421ZM0.660678 6.79421L0.836002 6.95243L0.660678 6.79421ZM0.543244 6.79421L0.718568 6.95243L0.543244 6.79421ZM0.42581 6.79421L0.601134 6.95243L0.42581 6.79421ZM0.308376 6.79421L0.4837 6.95243L0.308376 6.79421ZM0.190942 6.79421L0.36792 6.95243L0.190942 6.79421ZM0.0718535 6.79421L0.248832 6.95243L0.0718535 6.79421ZM-0.0439265 6.79421L0.131397 6.95243L-0.0439265 6.79421ZM-0.159706 6.79421L0.0156175 6.95243L-0.159706 6.79421ZM-0.27714 6.79421L-0.101816 6.95243L-0.27714 6.79421ZM-0.394574 6.79421L-0.21925 6.95243L-0.394574 6.79421ZM-0.512008 6.79421L-0.336684 6.95243L-0.512008 6.79421ZM-0.0422724 6.79421L0.133052 6.95243L-0.0422724 6.79421ZM-0.627788 6.79421L-0.454118 6.95243L-0.627788 6.79421ZM-0.746876 6.79421L-0.569898 6.95243L-0.746876 6.79421ZM-0.86431 6.79421L-0.687332 6.95243L-0.86431 6.79421ZM-0.98009 6.79421L-0.804766 6.95243L-0.98009 6.79421Z" fill="white"/>
<path fill-rule="evenodd" clip-rule="evenodd" d="M0.220367 5.91679L0.24365 5.89636L0.257059 5.91164L0.235635 5.93044L0.277645 5.968L0.32111 5.92914L0.301469 5.91158L0.315019 5.89642L0.336362 5.91551L0.357705 5.89642L0.371255 5.91158L0.351614 5.92914L0.395079 5.968L0.438544 5.92914L0.418903 5.91158L0.432453 5.89642L0.453796 5.91551L0.475139 5.89642L0.488689 5.91158L0.469048 5.92914L0.51334 5.96874L0.556805 5.92988L0.536337 5.91158L0.549887 5.89642L0.572057 5.91624L0.594227 5.89642L0.607777 5.91158L0.587309 5.92988L0.630774 5.96874L0.674239 5.92988L0.653771 5.91158L0.667321 5.89642L0.689491 5.91624L0.711661 5.89642L0.725211 5.91158L0.704743 5.92988L0.748208 5.96874L0.791673 5.92988L0.771205 5.91158L0.784755 5.89642L0.806925 5.91624L0.829095 5.89642L0.842645 5.91158L0.822177 5.92988L0.865642 5.96874L0.946529 5.89642L0.960079 5.91158L0.880894 5.98237L0.960079 6.05316L0.946529 6.06832L0.865642 5.99601L0.822177 6.03487L0.842645 6.05316L0.829095 6.06832L0.806925 6.0485L0.784755 6.06832L0.771205 6.05316L0.791673 6.03487L0.748208 5.99601L0.704743 6.03487L0.725211 6.05316L0.711661 6.06832L0.689491 6.0485L0.667321 6.06832L0.653771 6.05316L0.674239 6.03487L0.630774 5.99601L0.587309 6.03487L0.607777 6.05316L0.594227 6.06832L0.572057 6.0485L0.549887 6.06832L0.536337 6.05316L0.556805 6.03487L0.51334 5.99601L0.469875 6.03487L0.490343 6.05316L0.476793 6.06832L0.454623 6.0485L0.432453 6.06832L0.418903 6.05316L0.439371 6.03487L0.395079 5.99527L0.351614 6.03413L0.372909 6.05316L0.359359 6.06832L0.336362 6.04776L0.313365 6.06832L0.299815 6.05316L0.32111 6.03413L0.277645 5.99527L0.234903 6.03348L0.257094 6.05313L0.243615 6.06835L0.219643 6.04712L0.195931 6.06832L0.182381 6.05316L0.20432 6.03355L0.161422 5.99556L0.117104 6.03445L0.138041 6.05316L0.124491 6.06832L0.101709 6.04795L0.0784264 6.06838L0.0650176 6.0531L0.0864407 6.0343L0.0439838 5.99635L0.000219047 6.03511L0.0205716 6.05313L0.00709242 6.06835L-0.015113 6.04869L-0.0373185 6.06835L-0.0507976 6.05313L-0.0304451 6.03511L-0.0733789 5.99708L-0.116468 6.0356L-0.096827 6.05316L-0.110377 6.06832L-0.13172 6.04924L-0.153027 6.06829L-0.153063 6.06832L-0.159842 6.06074L-0.166649 6.0532L-0.166613 6.05316L-0.147065 6.03552L-0.190437 5.99675L-0.233902 6.0356L-0.214261 6.05316L-0.227811 6.06832L-0.249154 6.04924L-0.270497 6.06832L-0.284047 6.05316L-0.264406 6.0356L-0.307871 5.99675L-0.351336 6.0356L-0.331695 6.05316L-0.345245 6.06832L-0.366588 6.04924L-0.387931 6.06832L-0.401481 6.05316L-0.38184 6.0356L-0.425305 5.99675L-0.468677 6.03552L-0.449093 6.0532L-0.462715 6.06829L-0.483921 6.04915L-0.505365 6.06832L-0.518915 6.05316L-0.499101 6.03545L-0.54236 5.99641L-0.585473 6.03495L-0.564945 6.05313L-0.578424 6.06835L-0.600733 6.04859L-0.622799 6.06832L-0.636349 6.05316L-0.616057 6.03502L-0.659726 5.99635L-0.702907 6.03495L-0.682378 6.05313L-0.695858 6.06835L-0.718167 6.04859L-0.740233 6.06832L-0.753783 6.05316L-0.733491 6.03502L-0.77678 5.99668L-0.819436 6.03446L-0.798194 6.0531L-0.811602 6.06838L-0.834777 6.04805L-0.857702 6.06835L-0.871182 6.05313L-0.850181 6.03453L-0.893767 5.99629L-0.975136 6.06835L-0.988616 6.05313L-0.909171 5.98277L-0.990234 5.91164L-0.976826 5.89636L-0.89383 5.96919L-0.850829 5.9311L-0.872836 5.91161L-0.859356 5.89639L-0.835497 5.91752L-0.811638 5.89639L-0.798158 5.91161L-0.820165 5.9311L-0.77678 5.96953L-0.733395 5.9311L-0.755402 5.91161L-0.741922 5.89639L-0.718063 5.91752L-0.694204 5.89639L-0.680724 5.91161L-0.702731 5.9311L-0.659789 5.96913L-0.615978 5.92997L-0.636385 5.91155L-0.622763 5.89646L-0.600734 5.91634L-0.578459 5.89642L-0.564909 5.91158L-0.585554 5.93004L-0.542295 5.96908L-0.499274 5.93062L-0.520569 5.91158L-0.507019 5.89642L-0.484022 5.91698L-0.461025 5.89642L-0.447475 5.91158L-0.46877 5.93062L-0.425305 5.96948L-0.38184 5.93062L-0.403135 5.91158L-0.389585 5.89642L-0.366588 5.91698L-0.343591 5.89642L-0.330041 5.91158L-0.351336 5.93062L-0.307871 5.96948L-0.264406 5.93062L-0.285701 5.91158L-0.272151 5.89642L-0.249154 5.91698L-0.226157 5.89642L-0.212607 5.91158L-0.233902 5.93062L-0.190437 5.96948L-0.147695 5.93127L-0.169886 5.91161L-0.156406 5.89639L-0.132435 5.91762L-0.108723 5.89642L-0.095173 5.91158L-0.117112 5.93119L-0.0738862 5.96948L-0.0301877 5.93004L-0.050833 5.91158L-0.037283 5.89642L-0.015008 5.91634L0.00702137 5.89646L0.00775993 5.89728L0.00871104 5.89642L0.022261 5.91158L0.000965953 5.93062L0.0440472 5.96913L0.0878159 5.93037L0.0666364 5.91161L0.0801156 5.89639L0.103148 5.91679L0.12618 5.89639L0.13966 5.91161L0.11848 5.93037L0.161485 5.96846L0.204972 5.9303L0.184035 5.91158L0.197585 5.89642L0.220367 5.91679ZM0.220241 5.94395L0.176826 5.98204L0.21958 6.01991L0.262393 5.98163L0.220241 5.94395ZM0.146081 5.98197L0.103148 5.94395L0.0593073 5.98278L0.101835 6.0208L0.146081 5.98197ZM0.0287237 5.9827L-0.014286 5.94425L-0.0581189 5.98344L-0.015113 6.02153L0.0287237 5.9827ZM-0.131885 6.02182L-0.0890735 5.98318L-0.132372 5.94484L-0.175185 5.98311L-0.131885 6.02182ZM-0.205689 5.98311L-0.249154 5.94425L-0.292619 5.98311L-0.249154 6.02197L-0.205689 5.98311ZM-0.323123 5.98311L-0.366588 5.94425L-0.410053 5.98311L-0.366588 6.02197L-0.323123 5.98311ZM-0.440557 5.98311L-0.484022 5.94425L-0.527116 5.98278L-0.483857 6.02182L-0.440557 5.98311ZM-0.557539 5.98271L-0.600798 5.94367L-0.644466 5.9827L-0.600797 6.02138L-0.557539 5.98271ZM-0.675049 5.98278L-0.718063 5.94468L-0.761448 5.9831L-0.718231 6.02138L-0.675049 5.98278ZM-0.792112 5.9831L-0.835497 5.94468L-0.878426 5.9827L-0.83484 6.02095L-0.792112 5.9831ZM0.292897 5.98163L0.336362 6.02049L0.379827 5.98163L0.336362 5.94278L0.292897 5.98163ZM0.410331 5.98163L0.454623 6.02123L0.498088 5.98237L0.453796 5.94278L0.410331 5.98163ZM0.528592 5.98237L0.572057 6.02123L0.615522 5.98237L0.572057 5.94351L0.528592 5.98237ZM0.646026 5.98237L0.689491 6.02123L0.732956 5.98237L0.689491 5.94352L0.646026 5.98237ZM0.76346 5.98237L0.806925 6.02123L0.85039 5.98237L0.806925 5.94351L0.76346 5.98237ZM-0.718063 6.8064L-0.695893 6.78658L-0.682343 6.80174L-0.702811 6.82004L-0.658519 6.85963L-0.61442 6.82021L-0.634766 6.80168L-0.621074 6.78665L-0.599184 6.80659L-0.576805 6.78658L-0.563255 6.80174L-0.584076 6.82035L-0.541464 6.85917L-0.498368 6.82028L-0.51895 6.80171L-0.50533 6.78661L-0.483195 6.80659L-0.46106 6.78661L-0.44744 6.80171L-0.468022 6.82028L-0.424478 6.85958L-0.380934 6.82028L-0.401516 6.80171L-0.387896 6.78661L-0.365761 6.80659L-0.343626 6.78661L-0.330006 6.80171L-0.350588 6.82028L-0.307044 6.85958L-0.2635 6.82028L-0.284082 6.80171L-0.270462 6.78661L-0.248327 6.80659L-0.226192 6.78661L-0.212572 6.80171L-0.233154 6.82028L-0.189227 6.85992L-0.145889 6.82044L-0.166648 6.80171L-0.153028 6.78661L-0.130788 6.80668L-0.108794 6.78665L-0.0951022 6.80168L-0.115623 6.82037L-0.072176 6.85958L-0.0294588 6.82103L-0.0508683 6.80171L-0.0372477 6.78661L-0.0363361 6.78744L-0.0355937 6.78661L-0.013459 6.80659L0.00867569 6.78661L0.0222963 6.80171L0.00171387 6.82028L0.0448784 6.85923L0.0870692 6.82152L0.064947 6.80174L0.0784971 6.78658L0.102321 6.80788L0.126145 6.78658L0.139695 6.80174L0.117573 6.82152L0.160211 6.85963L0.204503 6.82004L0.184035 6.80174L0.197585 6.78658L0.219755 6.8064L0.241925 6.78658L0.255475 6.80174L0.235007 6.82004L0.280126 6.86037L0.323487 6.82161L0.301434 6.80171L0.315054 6.78661L0.338731 6.80798L0.362667 6.78658L0.376217 6.80174L0.353912 6.82168L0.396733 6.86032L0.440277 6.82103L0.418868 6.80171L0.432488 6.78661L0.45545 6.80734L0.478412 6.78661L0.492032 6.80171L0.470623 6.82103L0.51334 6.85958L0.556884 6.82028L0.536302 6.80171L0.549922 6.78661L0.572057 6.80659L0.594192 6.78661L0.607812 6.80171L0.58723 6.82028L0.630774 6.85958L0.674318 6.82028L0.653736 6.80171L0.667356 6.78661L0.689491 6.80659L0.711626 6.78661L0.725246 6.80171L0.704664 6.82028L0.748208 6.85958L0.791752 6.82028L0.77117 6.80171L0.78479 6.78661L0.806925 6.80659L0.82906 6.78661L0.84268 6.80171L0.822098 6.82028L0.865642 6.85958L0.946494 6.78661L0.960114 6.80171L0.880815 6.87327L0.960114 6.94483L0.946494 6.95992L0.865642 6.88696L0.822098 6.92626L0.84268 6.94483L0.82906 6.95992L0.806925 6.93995L0.78479 6.95992L0.77117 6.94483L0.791752 6.92626L0.748208 6.88696L0.704664 6.92626L0.725246 6.94483L0.711626 6.95992L0.689491 6.93995L0.667356 6.95992L0.653736 6.94483L0.674318 6.92626L0.630774 6.88696L0.58723 6.92626L0.607812 6.94483L0.594192 6.95992L0.572057 6.93995L0.549922 6.95992L0.536302 6.94483L0.556884 6.92626L0.51334 6.88696L0.469796 6.92626L0.490378 6.94483L0.476758 6.95992L0.454623 6.93995L0.432488 6.95992L0.418868 6.94483L0.43945 6.92626L0.396733 6.88771L0.353919 6.92634L0.374563 6.9448L0.361013 6.95996L0.338739 6.94004L0.316708 6.95992L0.303088 6.94483L0.323495 6.92642L0.280126 6.88764L0.235834 6.92724L0.255475 6.9448L0.241925 6.95996L0.220582 6.94088L0.199239 6.95996L0.185689 6.9448L0.20533 6.92724L0.160211 6.8869L0.117677 6.92493L0.13973 6.94483L0.12611 6.95992L0.125198 6.9591L0.124456 6.95992L0.101602 6.9393L0.0784971 6.95996L0.064947 6.9448L0.0864216 6.9256L0.0439836 6.8873L0.00106591 6.92567L0.0222963 6.94483L0.00867569 6.95992L-0.0141781 6.9393L-0.037283 6.95996L-0.050833 6.9448L-0.0293584 6.9256L-0.072176 6.88696L-0.11572 6.92626L-0.0951377 6.94483L-0.108758 6.95992L-0.130893 6.93995L-0.153028 6.95992L-0.166648 6.94483L-0.146066 6.92626L-0.189162 6.88737L-0.2325 6.92685L-0.212572 6.94483L-0.226192 6.95992L-0.247601 6.94061L-0.268772 6.95989L-0.282464 6.94486L-0.262766 6.92692L-0.307044 6.88696L-0.350588 6.92626L-0.330006 6.94483L-0.343626 6.95992L-0.365761 6.93995L-0.387896 6.95992L-0.401516 6.94483L-0.380934 6.92626L-0.424478 6.88696L-0.467925 6.92617L-0.447404 6.94486L-0.461096 6.95989L-0.48309 6.93986L-0.50533 6.95992L-0.51895 6.94483L-0.498191 6.9261L-0.541529 6.88662L-0.58473 6.9256L-0.563255 6.9448L-0.576805 6.95996L-0.59991 6.9393L-0.622764 6.95992L-0.636384 6.94483L-0.615154 6.92567L-0.658519 6.8869L-0.701984 6.92576L-0.680689 6.9448L-0.694239 6.95996L-0.717236 6.9394L-0.740233 6.95996L-0.753783 6.9448L-0.732488 6.92576L-0.77678 6.88617L-0.820141 6.92493L-0.798088 6.94483L-0.811708 6.95992L-0.835385 6.93856L-0.859321 6.95996L-0.872871 6.9448L-0.850566 6.92486L-0.89256 6.88696L-0.973412 6.95992L-0.987032 6.94483L-0.907733 6.87327L-0.987032 6.80171L-0.973412 6.78661L-0.89256 6.85958L-0.849742 6.82094L-0.871217 6.80174L-0.857667 6.78658L-0.834562 6.80724L-0.811708 6.78661L-0.798088 6.80171L-0.819318 6.82087L-0.77678 6.8589L-0.733315 6.82004L-0.753783 6.80174L-0.740233 6.78658L-0.718063 6.8064ZM-0.718063 6.83367L-0.761528 6.87253L-0.717236 6.91213L-0.673771 6.87327L-0.718063 6.83367ZM-0.792032 6.87253L-0.834498 6.83457L-0.877387 6.87327L-0.835321 6.91123L-0.792032 6.87253ZM-0.643267 6.87327L-0.599974 6.91197L-0.55663 6.87286L-0.599312 6.83397L-0.643267 6.87327ZM-0.526363 6.87293L-0.483025 6.91241L-0.439651 6.87327L-0.483195 6.83397L-0.526363 6.87293ZM-0.409305 6.87327L-0.365761 6.91256L-0.322217 6.87327L-0.365761 6.83397L-0.409305 6.87327ZM-0.291871 6.87327L-0.247666 6.91316L-0.204328 6.87368L-0.248327 6.83397L-0.291871 6.87327ZM-0.174061 6.87361L-0.130893 6.91256L-0.0873488 6.87327L-0.130723 6.83413L-0.174061 6.87361ZM-0.0570031 6.87327L-0.0141143 6.91197L0.0288033 6.87361L-0.014286 6.83472L-0.0570031 6.87327ZM0.0600587 6.87293L0.102497 6.91123L0.144959 6.87327L0.102321 6.83515L0.0600587 6.87293ZM0.175463 6.87327L0.220582 6.91361L0.264874 6.87401L0.219755 6.83367L0.175463 6.87327ZM0.295378 6.87401L0.338675 6.91272L0.38156 6.87402L0.338668 6.83531L0.295378 6.87401ZM0.411906 6.87402L0.454623 6.91256L0.498167 6.87327L0.45545 6.83472L0.411906 6.87402ZM0.528513 6.87327L0.572057 6.91256L0.615601 6.87327L0.572057 6.83397L0.528513 6.87327ZM0.645947 6.87327L0.689491 6.91256L0.733035 6.87327L0.689491 6.83397L0.645947 6.87327ZM0.763381 6.87327L0.806925 6.91256L0.850469 6.87327L0.806925 6.83397L0.763381 6.87327Z" fill="#EF2D28"/>
<path fill-rule="evenodd" clip-rule="evenodd" d="M-2.0037 5.86483C-0.742394 3.68161 0.0941201 1.82123 -0.133958 1.71592C-0.364389 1.60952 -1.57476 3.29728 -2.83607 5.48049L-2.0037 5.86483Z" fill="white"/>
<path fill-rule="evenodd" clip-rule="evenodd" d="M-2.00334 5.86486L-2.00981 5.87605L-2.85391 5.4863L-2.84745 5.47511C-2.21665 4.38326 -1.59849 3.41513 -1.10911 2.73313C-0.864462 2.3922 -0.651752 2.12243 -0.485573 1.94441C-0.402557 1.85548 -0.330657 1.78891 -0.27182 1.74783C-0.24243 1.7273 -0.215646 1.71267 -0.191862 1.70499C-0.168047 1.6973 -0.145786 1.69615 -0.127137 1.70476C-0.108593 1.71332 -0.0968977 1.7302 -0.090253 1.75195C-0.0836138 1.77367 -0.0815561 1.80162 -0.0833458 1.83488C-0.086929 1.90147 -0.106134 1.99236 -0.139251 2.10433C-0.205544 2.32846 -0.328411 2.6397 -0.497632 3.01546C-0.836138 3.76712 -1.36081 4.77842 -1.99161 5.87028L-2.00334 5.86486ZM-0.522274 3.00692C-0.859176 3.75502 -1.38099 4.76119 -2.00861 5.84825L-2.81751 5.47476C-2.18925 4.38798 -1.57411 3.4249 -1.08705 2.74614C-0.842634 2.40553 -0.630713 2.13686 -0.465723 1.96012C-0.383153 1.87167 -0.312834 1.80678 -0.256446 1.76741C-0.228223 1.7477 -0.204144 1.73485 -0.184266 1.72843C-0.164419 1.72202 -0.15022 1.72245 -0.140066 1.72714C-0.1301 1.73174 -0.121602 1.74174 -0.116059 1.75988C-0.11051 1.77804 -0.108385 1.803 -0.110104 1.83495C-0.113539 1.89878 -0.132122 1.98757 -0.165063 2.09894C-0.230885 2.32147 -0.353213 2.63152 -0.522274 3.00692Z" fill="#EF2D28"/>
<path fill-rule="evenodd" clip-rule="evenodd" d="M-2.08709 5.82798C-0.870298 3.72181 -0.0323237 1.94138 -0.21479 1.85713C-0.399137 1.77201 -1.53621 3.41434 -2.753 5.52051" fill="white"/>
<path fill-rule="evenodd" clip-rule="evenodd" d="M-0.636348 3.08035C-0.974963 3.7989 -1.4885 4.77026 -2.09679 5.82316L-2.07617 5.83268C-1.46767 4.77941 -0.953815 3.80747 -0.61486 3.0882C-0.445408 2.72862 -0.319536 2.43191 -0.247425 2.21966C-0.211398 2.11362 -0.188608 2.02813 -0.180645 1.96623C-0.176672 1.93533 -0.176293 1.90962 -0.180184 1.8899C-0.184037 1.87038 -0.192549 1.85461 -0.208496 1.84724C-0.224519 1.83985 -0.243908 1.84268 -0.264062 1.85114C-0.284396 1.85967 -0.307716 1.8748 -0.333667 1.89555C-0.385664 1.93713 -0.450531 2.0032 -0.526448 2.09082C-0.678404 2.26621 -0.876128 2.52975 -1.10591 2.86147C-1.56556 3.52502 -2.15419 4.46243 -2.76269 5.51569L-2.74208 5.52521C-2.13379 4.47231 -1.54549 3.53547 -1.08631 2.87259C-0.856687 2.5411 -0.659529 2.27838 -0.508412 2.10395C-0.432793 2.01667 -0.369075 1.95194 -0.318851 1.91177C-0.293691 1.89165 -0.272491 1.87817 -0.255322 1.87096C-0.237972 1.86368 -0.226875 1.86366 -0.219854 1.8669C-0.212992 1.87007 -0.206669 1.87808 -0.203344 1.89492C-0.200058 1.91158 -0.200161 1.93481 -0.204015 1.96477C-0.211707 2.02459 -0.233954 2.10847 -0.269841 2.2141C-0.341556 2.42519 -0.467015 2.72103 -0.636348 3.08035Z" fill="#EF2D28"/>
<path fill-rule="evenodd" clip-rule="evenodd" d="M-2.49813 8.32991C0.346 11.1193 1.55928 11.4716 0.988865 11.6968C0.418451 11.9219 -1.41254 10.482 -3.31747 8.57112C-5.2224 6.66024 -6.38926 4.95818 -5.81884 4.73304C-5.24843 4.5079 -5.524 5.36571 -2.49813 8.32991Z" fill="white"/>
<path fill-rule="evenodd" clip-rule="evenodd" d="M-5.47803 6.01614C-5.02027 6.7075 -4.25314 7.60986 -3.30116 8.56482C-2.34901 9.51994 -1.41581 10.3569 -0.649821 10.9267C-0.266686 11.2117 0.0736913 11.4292 0.35303 11.5613C0.492715 11.6274 0.616051 11.6716 0.721101 11.6924C0.825838 11.7133 0.911226 11.7108 0.977346 11.6847C1.04724 11.6571 1.08665 11.6287 1.10081 11.596C1.11481 11.5637 1.10522 11.5245 1.06755 11.4721C1.02975 11.4197 0.964854 11.3557 0.87186 11.2752C0.779023 11.1949 0.659168 11.0989 0.512246 10.9827C0.480248 10.9574 0.446983 10.9311 0.412453 10.9038C-0.187174 10.4303 -1.16795 9.65571 -2.51331 8.33625L-2.49764 8.32986L-2.5133 8.33626C-2.51331 8.33626 -2.51331 8.33625 -2.51331 8.33625C-4.02721 6.8532 -4.71546 5.89683 -5.09656 5.33933C-5.12896 5.29193 -5.1591 5.24748 -5.18731 5.20586C-5.24212 5.12503 -5.28967 5.0549 -5.33244 4.99467C-5.39733 4.90331 -5.45032 4.83607 -5.4997 4.78988C-5.54906 4.74372 -5.59216 4.72108 -5.63686 4.71458C-5.68259 4.70793 -5.7359 4.71723 -5.80634 4.74503C-5.87253 4.77116 -5.91482 4.81912 -5.93319 4.88871C-5.95161 4.95846 -5.94574 5.04911 -5.9165 5.15878C-5.85803 5.3781 -5.70699 5.67034 -5.47803 6.01614ZM-5.97235 4.87962C-5.9528 4.80558 -5.90677 4.7511 -5.83036 4.72094C-5.75819 4.69245 -5.69534 4.67931 -5.63514 4.68806C-5.57391 4.69696 -5.52131 4.72755 -5.46901 4.77647C-5.41673 4.82536 -5.3621 4.89503 -5.2972 4.98641C-5.25425 5.0469 -5.20639 5.11747 -5.15145 5.19851C-5.12327 5.24007 -5.09323 5.28439 -5.06102 5.3315C-4.68083 5.88767 -3.99393 6.84231 -2.48197 8.32345L-2.48196 8.32346C-1.1381 9.64145 -0.158675 10.415 0.440581 10.8882C0.47511 10.9155 0.508378 10.9418 0.540381 10.9671C0.687225 11.0833 0.807786 11.1797 0.901413 11.2608C0.994885 11.3416 1.0625 11.4079 1.10267 11.4637C1.14298 11.5197 1.15681 11.5667 1.13909 11.6076C1.12153 11.6482 1.07407 11.6801 1.00137 11.7088C0.924884 11.739 0.828274 11.7407 0.716257 11.7184C0.604553 11.6962 0.476376 11.6499 0.334427 11.5828C0.0504963 11.4485 -0.292885 11.2288 -0.676917 10.9431C-1.44526 10.3715 -2.38002 9.53307 -3.33281 8.57731C-4.28576 7.62138 -5.05452 6.71728 -5.51381 6.02361C-5.74338 5.67689 -5.89616 5.38197 -5.95557 5.15911C-5.98527 5.0477 -5.99186 4.95351 -5.97235 4.87962Z" fill="#EF2D28"/>
<path fill-rule="evenodd" clip-rule="evenodd" d="M-0.10713 10.3595L-1.10449 10.6212C-0.166674 11.5129 0.888577 11.8781 1.18134 11.7213C1.47409 11.5646 0.653709 11.1979 -0.108785 10.361L-0.10713 10.3595Z" fill="white"/>
<path fill-rule="evenodd" clip-rule="evenodd" d="M-0.109398 10.3505L-0.105352 10.358L-0.101734 10.3547C0.224826 10.7131 0.561962 10.9851 0.817926 11.1917C0.860335 11.2259 0.900516 11.2583 0.938051 11.289C1.06966 11.3967 1.16977 11.4843 1.21834 11.5551C1.24262 11.5905 1.25526 11.6235 1.25062 11.6537C1.24589 11.6844 1.22381 11.7094 1.18588 11.7297C1.10981 11.7704 0.986302 11.7765 0.8311 11.7503C0.675388 11.724 0.485974 11.6649 0.276664 11.5731C-0.14199 11.3894 -0.641165 11.0746 -1.11084 10.6281L-1.12305 10.6165L-0.109398 10.3505ZM-0.112548 10.3707L-1.08568 10.6261C-0.62112 11.065 -0.128787 11.3747 0.284202 11.5559C0.492527 11.6472 0.680432 11.7058 0.834225 11.7318C0.988528 11.7578 1.10671 11.7508 1.17702 11.7131C1.21228 11.6942 1.2286 11.6734 1.23207 11.6508C1.23562 11.6277 1.22624 11.5998 1.20286 11.5657C1.15612 11.4975 1.05837 11.4117 0.926167 11.3035C0.888744 11.2729 0.848643 11.2406 0.806284 11.2064C0.551137 11.0005 0.214108 10.7286 -0.112548 10.3707Z" fill="#EF2D28"/>
<path fill-rule="evenodd" clip-rule="evenodd" d="M-0.107016 10.4551L-0.928711 10.6641C-0.0151795 11.5215 0.888685 11.7646 1.1223 11.6594C1.35753 11.5556 0.634121 11.2613 -0.107016 10.4551Z" fill="white"/>
<path fill-rule="evenodd" clip-rule="evenodd" d="M-0.10346 10.4441L-0.0994843 10.4484C0.254174 10.8331 0.60379 11.1011 0.847173 11.2876C0.858364 11.2962 0.869329 11.3046 0.88006 11.3128C1.00172 11.4062 1.09431 11.4786 1.14148 11.5344C1.16484 11.562 1.17908 11.5878 1.17752 11.6115C1.17588 11.6366 1.15723 11.6548 1.1266 11.6684C1.06543 11.6959 0.962704 11.7 0.830454 11.6785C0.697663 11.657 0.533475 11.6094 0.34825 11.5318C-0.0222353 11.3765 -0.477568 11.1007 -0.935154 10.6713L-0.948242 10.659L-0.10346 10.4441ZM-0.908566 10.6692C-0.457052 11.0901 -0.00884604 11.3608 0.355855 11.5136C0.53999 11.5908 0.702668 11.6379 0.833605 11.6591C0.965058 11.6804 1.06291 11.6755 1.11855 11.6504C1.14671 11.638 1.15697 11.6243 1.15789 11.6102C1.1589 11.5948 1.14943 11.5743 1.12646 11.5471C1.08099 11.4934 0.990516 11.4224 0.868081 11.3284C0.857313 11.3202 0.846306 11.3117 0.835071 11.3031C0.592564 11.1173 0.243491 10.8497 -0.109991 10.4661L-0.908566 10.6692Z" fill="#EF2D28"/>
<path fill-rule="evenodd" clip-rule="evenodd" d="M-0.17062 10.6612H-0.173964C-0.174108 10.6619 -0.17426 10.6626 -0.174419 10.6634C-0.1748 10.6652 -0.175225 10.6673 -0.175703 10.6696C-0.17734 10.6774 -0.179524 10.6876 -0.182438 10.7003L-0.182969 10.7026L-0.184533 10.7043C-0.195778 10.7171 -0.214946 10.7243 -0.234575 10.7274C-0.254559 10.7305 -0.2769 10.7298 -0.296351 10.725L-0.29825 10.7245L-0.299806 10.7234C-0.308553 10.7167 -0.31509 10.7105 -0.320768 10.7049C-0.321543 10.7041 -0.322295 10.7034 -0.323029 10.7026C-0.327769 10.698 -0.331777 10.694 -0.33637 10.6903C-0.346282 10.6824 -0.359372 10.6756 -0.387334 10.6706C-0.415776 10.6721 -0.435195 10.6764 -0.451292 10.6824C-0.466513 10.688 -0.479038 10.6953 -0.494088 10.7041C-0.495314 10.7048 -0.496556 10.7055 -0.497819 10.7063L-0.498656 10.7067L-0.499575 10.7071C-0.532514 10.718 -0.559791 10.7389 -0.576771 10.7659C-0.579528 10.7733 -0.581802 10.7798 -0.583228 10.7856C-0.584713 10.7916 -0.585083 10.7962 -0.584461 10.7999C-0.583889 10.8032 -0.582423 10.8062 -0.57925 10.809C-0.575862 10.812 -0.570246 10.8151 -0.561052 10.8178L-0.559923 10.8181L-0.558912 10.8187C-0.525708 10.8386 -0.48745 10.8509 -0.447546 10.8544C-0.441519 10.8544 -0.435565 10.8543 -0.429733 10.8542C-0.414063 10.854 -0.399281 10.8538 -0.386369 10.8552C-0.368201 10.8571 -0.351661 10.8624 -0.338797 10.8763C-0.321529 10.8918 -0.312791 10.9052 -0.308955 10.9223C-0.305975 10.9357 -0.306073 10.9512 -0.306196 10.9707C-0.306216 10.974 -0.306237 10.9773 -0.306245 10.9808C-0.303272 10.9859 -0.301149 10.9922 -0.299484 10.9984C-0.297456 11.006 -0.295847 11.0146 -0.294395 11.023C-0.293972 11.0254 -0.293565 11.0278 -0.293163 11.0301C-0.292159 11.0361 -0.291196 11.0417 -0.290146 11.047C-0.28903 11.0526 -0.287903 11.0573 -0.286712 11.0609C-0.262355 11.0717 -0.235357 11.0771 -0.2081 11.0764C-0.200157 11.0544 -0.192301 11.0236 -0.18553 10.997C-0.183274 10.9881 -0.181138 10.9797 -0.17916 10.9723C-0.177196 10.9646 -0.175599 10.9558 -0.173943 10.9465C-0.173776 10.9455 -0.173609 10.9446 -0.17344 10.9436C-0.171955 10.9352 -0.170395 10.9263 -0.168489 10.9177C-0.164375 10.8992 -0.158264 10.8797 -0.145828 10.8666C-0.126401 10.8406 -0.101848 10.8181 -0.0734287 10.8002C-0.0555466 10.7824 -0.0325024 10.7695 -0.00700319 10.763L-0.00097841 10.7807C-0.0205142 10.7891 -0.0300416 10.7975 -0.0357165 10.808C-0.0410987 10.8179 -0.0435734 10.8305 -0.0458324 10.8491C-0.0409498 10.8513 -0.0365471 10.8534 -0.0324551 10.8554C-0.0314077 10.8559 -0.0303807 10.8564 -0.0293711 10.8568C-0.0226966 10.86 -0.0167621 10.8628 -0.0102237 10.8651C0.00256884 10.8696 0.0183761 10.8728 0.0463554 10.8736C0.0745257 10.8714 0.0905297 10.8671 0.101889 10.8606C0.113228 10.8541 0.120911 10.8449 0.131629 10.8301L0.146002 10.8104L0.148551 10.8347C0.150909 10.8572 0.155968 10.8718 0.16193 10.886C0.163199 10.889 0.164533 10.8921 0.165904 10.8952C0.170828 10.9065 0.176238 10.9189 0.180861 10.935C0.190802 10.9486 0.197904 10.9625 0.204936 10.977C0.206082 10.9794 0.207225 10.9818 0.20838 10.9842C0.214608 10.9972 0.221153 11.0109 0.23003 11.0261L0.231781 11.0291L0.231143 11.0326C0.227376 11.0528 0.221196 11.065 0.215742 11.0758C0.214797 11.0777 0.213875 11.0795 0.21299 11.0813C0.207289 11.0931 0.202308 11.1058 0.201526 11.1317L0.201481 11.1332L0.200981 11.1346C0.197818 11.1434 0.195422 11.1521 0.193131 11.1608C0.192814 11.162 0.192498 11.1632 0.192181 11.1644C0.190243 11.1718 0.188289 11.1793 0.185977 11.1864C0.180872 11.2021 0.173699 11.2172 0.159574 11.2295C0.185357 11.2259 0.206603 11.2191 0.228922 11.2075C0.243293 11.1989 0.256127 11.1896 0.269332 11.18L0.269474 11.1799C0.282555 11.1704 0.296008 11.1606 0.311169 11.1516C0.34931 11.1259 0.392187 11.1065 0.43781 11.0942L0.439007 11.0939H0.440247C0.44667 11.0939 0.452986 11.0938 0.45914 11.0938C0.475212 11.0935 0.49018 11.0933 0.50307 11.0947C0.520905 11.0966 0.536994 11.1018 0.549039 11.1154C0.580697 11.1363 0.601171 11.1709 0.614585 11.2128L0.61478 11.2134L0.61489 11.2141C0.622964 11.2603 0.629125 11.297 0.602112 11.3315C0.593984 11.349 0.589684 11.3593 0.589176 11.3701C0.58868 11.3806 0.591814 11.3926 0.601956 11.4131C0.612802 11.4256 0.625828 11.4331 0.643147 11.4389C0.657653 11.4438 0.674556 11.4472 0.695374 11.4515C0.700241 11.4525 0.705321 11.4536 0.710635 11.4547C0.747454 11.4531 0.784109 11.4459 0.809414 11.4375L0.81538 11.4553C0.78802 11.4644 0.749092 11.472 0.710213 11.4735L0.709053 11.4735L0.707917 11.4733C0.702518 11.4721 0.697273 11.4711 0.692183 11.47C0.671222 11.4657 0.652882 11.462 0.637201 11.4567C0.617264 11.4501 0.600705 11.4408 0.58688 11.4243L0.586174 11.4234L0.585681 11.4225C0.574718 11.4006 0.569694 11.3848 0.57043 11.3692C0.571153 11.3539 0.577451 11.34 0.585564 11.3226L0.586038 11.3216L0.586738 11.3207C0.608429 11.2936 0.604832 11.2656 0.596515 11.2179C0.583631 11.1779 0.564797 11.1479 0.537705 11.1304L0.536516 11.1296L0.535606 11.1286C0.527901 11.1194 0.517075 11.1151 0.50106 11.1134C0.489374 11.1121 0.476154 11.1123 0.46063 11.1125C0.454614 11.1126 0.448251 11.1127 0.441497 11.1127C0.398172 11.1245 0.357537 11.143 0.321439 11.1673L0.321008 11.1676L0.321001 11.1676C0.306536 11.1762 0.293636 11.1855 0.280361 11.1952L0.280218 11.1953C0.267074 11.2048 0.253553 11.2147 0.238301 11.2237L0.237843 11.224L0.237836 11.224C0.196256 11.2457 0.15816 11.2517 0.0978686 11.2517L0.097403 11.2329C0.112551 11.2322 0.121253 11.2314 0.127791 11.2294C0.133614 11.2277 0.138018 11.2248 0.143804 11.2183L0.144347 11.2177L0.144985 11.2172C0.156993 11.2077 0.163244 11.1956 0.168131 11.1806C0.170259 11.1741 0.172058 11.1672 0.174006 11.1598C0.174327 11.1585 0.174652 11.1573 0.174984 11.156C0.177182 11.1477 0.179611 11.1388 0.182817 11.1296C0.183839 11.1017 0.189525 11.0867 0.196113 11.0731C0.197109 11.0711 0.198101 11.0691 0.199083 11.0672C0.204076 11.0572 0.20878 11.0479 0.212029 11.0325C0.20363 11.0177 0.197221 11.0044 0.191395 10.9922C0.190258 10.9898 0.189143 10.9875 0.18804 10.9852C0.180843 10.9703 0.174133 10.9573 0.164776 10.9448L0.163732 10.9434L0.163262 10.9417C0.158922 10.9262 0.153947 10.9148 0.148927 10.9033C0.147492 10.9 0.146053 10.8967 0.144625 10.8933C0.140273 10.8829 0.136264 10.872 0.133318 10.8584C0.12693 10.8657 0.119988 10.8719 0.111216 10.8769C0.0961749 10.8855 0.0767348 10.8901 0.0473119 10.8923L0.0463541 10.8924L0.0463554 10.8924C0.0167437 10.8916 -0.0012489 10.8882 -0.0165015 10.8828C-0.0240222 10.8801 -0.0306996 10.877 -0.0374638 10.8738C-0.0385209 10.8733 -0.0395799 10.8728 -0.0406462 10.8722C-0.0464605 10.8695 -0.0524913 10.8666 -0.0596286 10.8635L-0.0660548 10.8608L-0.0652784 10.8538C-0.0634367 10.8374 -0.0615228 10.8231 -0.0572745 10.8107C-0.0584936 10.8118 -0.0596862 10.813 -0.0608516 10.8142L-0.0616236 10.8149L-0.0625554 10.8155C-0.0896438 10.8325 -0.112888 10.8538 -0.131128 10.8782L-0.131492 10.8787L-0.131916 10.8792C-0.140687 10.8882 -0.14606 10.9033 -0.150167 10.9218C-0.151978 10.93 -0.153466 10.9384 -0.154962 10.9469C-0.155129 10.9479 -0.155296 10.9488 -0.155463 10.9497C-0.157112 10.9591 -0.15882 10.9685 -0.160985 10.977L-0.161011 10.9771C-0.162855 10.984 -0.164893 10.992 -0.16708 11.0006C-0.174493 11.0297 -0.183629 11.0656 -0.192768 11.089L-0.194964 11.0946L-0.200981 11.0949C-0.234612 11.0968 -0.268214 11.0904 -0.298125 11.0763L-0.301343 11.0748L-0.302748 11.0715C-0.305235 11.0657 -0.30704 11.0583 -0.308552 11.0507C-0.309657 11.0451 -0.310689 11.039 -0.311711 11.033C-0.312102 11.0307 -0.312492 11.0284 -0.312884 11.0262C-0.314327 11.0179 -0.315819 11.01 -0.317616 11.0033C-0.319468 10.9963 -0.3214 10.9916 -0.323276 10.989L-0.325015 10.9865V10.9835C-0.325015 10.9786 -0.324991 10.9741 -0.324968 10.9698C-0.324864 10.9504 -0.324796 10.9375 -0.327269 10.9264C-0.330024 10.9141 -0.336079 10.9039 -0.351657 10.89L-0.352385 10.8893L-0.352347 10.8893C-0.360937 10.8798 -0.372385 10.8756 -0.388379 10.8738C-0.400083 10.8726 -0.413115 10.8728 -0.428252 10.873C-0.434448 10.8731 -0.440997 10.8731 -0.447951 10.8731H-0.448759L-0.448756 10.8731C-0.491153 10.8695 -0.531948 10.8565 -0.567551 10.8354C-0.577669 10.8323 -0.585729 10.8283 -0.591682 10.823C-0.598071 10.8174 -0.60167 10.8106 -0.60296 10.8031C-0.604198 10.7958 -0.603224 10.7883 -0.601453 10.7811C-0.599678 10.7739 -0.59691 10.7662 -0.594025 10.7585L-0.5937 10.7576L-0.593208 10.7568C-0.573936 10.7257 -0.543107 10.702 -0.506423 10.6896C-0.505381 10.689 -0.504344 10.6883 -0.503312 10.6877C-0.488506 10.6791 -0.474637 10.671 -0.457843 10.6648C-0.439402 10.6579 -0.417749 10.6533 -0.387219 10.6518L-0.386175 10.6518L-0.385146 10.6519C-0.354271 10.6573 -0.337788 10.6652 -0.324663 10.6757C-0.319227 10.68 -0.314446 10.6847 -0.309758 10.6894C-0.309036 10.6901 -0.308318 10.6908 -0.307599 10.6915C-0.302484 10.6965 -0.297038 10.7017 -0.290011 10.7072C-0.273501 10.711 -0.254479 10.7115 -0.237489 10.7088C-0.220723 10.7062 -0.207504 10.7007 -0.200154 10.6936C-0.197562 10.6822 -0.195583 10.6729 -0.194072 10.6657C-0.193638 10.6636 -0.193237 10.6617 -0.192868 10.6599C-0.191887 10.6552 -0.191135 10.6516 -0.19058 10.6492C-0.190384 10.6484 -0.19018 10.6476 -0.189971 10.6469L-0.189962 10.6468C-0.189826 10.6464 -0.189443 10.6451 -0.188722 10.6439C-0.188499 10.6435 -0.188086 10.6428 -0.187442 10.6421C-0.186866 10.6415 -0.185552 10.6402 -0.183417 10.6395C-0.180859 10.6387 -0.178063 10.639 -0.175726 10.6403C-0.173774 10.6414 -0.172744 10.6429 -0.172306 10.6437C-0.17146 10.6451 -0.171172 10.6464 -0.171093 10.6468L-0.17109 10.6468C-0.170966 10.6474 -0.170898 10.6479 -0.170857 10.6483C-0.170784 10.6489 -0.170733 10.6498 -0.170698 10.6508H-0.17062V10.6581C-0.17062 10.6588 -0.17062 10.6594 -0.17062 10.6601C-0.17062 10.6605 -0.17062 10.6608 -0.17062 10.6612Z" fill="#EF2D28"/>
</g>
<defs>
<clipPath id="clip0_8424_43215">
<rect width="40" height="40" rx="20" fill="white"/>
</clipPath>
</defs>
</svg>
