<svg width="40" height="40" viewBox="0 0 40 40" fill="none" xmlns="http://www.w3.org/2000/svg">
<g clip-path="url(#clip0_8424_43243)">
<path fill-rule="evenodd" clip-rule="evenodd" d="M-10 0H50V40H-10V0Z" fill="#0C590B"/>
<path fill-rule="evenodd" clip-rule="evenodd" d="M-10 0H5.03906V40H-10V0Z" fill="white"/>
<path fill-rule="evenodd" clip-rule="evenodd" d="M28.9609 17.6094L26.5234 17.0938L25.2422 19.2266L24.9766 16.7578L22.5547 16.1953L24.8203 15.1797L24.6094 12.7031L26.2812 14.5469L28.5703 13.5781L27.3281 15.7344L28.9687 17.6094H28.9609Z" fill="white"/>
<path fill-rule="evenodd" clip-rule="evenodd" d="M29.875 23.9062C29.3551 25.0408 28.616 26.0613 27.7003 26.9092C26.7846 27.7572 25.7103 28.4157 24.5392 28.8469C23.3681 29.2782 22.1233 29.4737 20.8763 29.4222C19.6294 29.3707 18.405 29.0732 17.2734 28.5469C14.9776 27.4839 13.1981 25.5525 12.3264 23.1776C11.4546 20.8026 11.562 18.1786 12.625 15.8828C13.1528 14.7027 13.9218 13.646 14.8825 12.7809C15.8432 11.9157 16.9743 11.2612 18.2031 10.8594C17.8814 11.1272 17.5737 11.4115 17.2812 11.7109C15.757 13.399 14.9479 15.6129 15.0244 17.886C15.101 20.1591 16.0572 22.3136 17.6916 23.8952C19.3259 25.4769 21.5106 26.3621 23.785 26.3641C26.0593 26.3662 28.2456 25.4849 29.8828 23.9062H29.875Z" fill="white"/>
</g>
<defs>
<clipPath id="clip0_8424_43243">
<rect width="40" height="40" rx="20" fill="white"/>
</clipPath>
</defs>
</svg>
