<svg width="56" height="56" viewBox="0 0 56 56" fill="none" xmlns="http://www.w3.org/2000/svg">
<g clip-path="url(#clip0_3318_25099)">
<path d="M28 56C43.464 56 56 43.464 56 28C56 12.536 43.464 0 28 0C12.536 0 0 12.536 0 28C0 43.464 12.536 56 28 56Z" fill="#F0F0F0"/>
<path d="M0 27.9998C0 38.613 5.90505 47.8463 14.6087 52.5953V3.4043C5.90505 8.15325 0 17.3866 0 27.9998Z" fill="#F0F0F0"/>
<path d="M27.9997 0C23.1489 0 18.5865 1.23408 14.6084 3.40452V52.5954C18.5865 54.7659 23.1489 56 27.9997 56C43.4636 56 55.9997 43.4639 55.9997 28C55.9997 12.5361 43.4636 0 27.9997 0Z" fill="#496E2D"/>
<path d="M39.971 32.6306C36.4286 35.1901 31.482 34.3934 28.9227 30.8512C26.3631 27.3087 27.1599 22.3622 30.7022 19.8029C31.8067 19.0049 33.0476 18.5331 34.3102 18.3692C31.8813 18.0059 29.3137 18.5532 27.1659 20.1052C22.8062 23.2554 21.8254 29.3433 24.9755 33.7032C28.1257 38.0628 34.2137 39.0437 38.5736 35.8932C40.7216 34.3413 42.0473 32.0758 42.4649 29.6555C41.913 30.8024 41.0756 31.8325 39.971 32.6306Z" fill="#F0F0F0"/>
<path d="M39.8195 18.2612L41.8149 20.4117L44.4766 19.1788L43.0479 21.7408L45.0432 23.8914L42.1649 23.3243L40.7362 25.8865L40.3861 22.9739L37.5078 22.4068L40.1697 21.1739L39.8195 18.2612Z" fill="#F0F0F0"/>
</g>
<defs>
<clipPath id="clip0_3318_25099">
<rect width="56" height="56" fill="white"/>
</clipPath>
</defs>
</svg>
