<svg width="40" height="40" viewBox="0 0 40 40" fill="none" xmlns="http://www.w3.org/2000/svg">
<g clip-path="url(#clip0_8424_43361)">
<path fill-rule="evenodd" clip-rule="evenodd" d="M-15 0H55.525V40H-15V0Z" fill="#4AADD6"/>
<path fill-rule="evenodd" clip-rule="evenodd" d="M27.4163 19.3417C27.4574 20.7896 27.1949 22.2308 26.6444 23.58C26.094 24.9293 25.2667 26.1592 24.2114 27.1973C23.1561 28.2353 21.8942 29.0604 20.5003 29.6238C19.1063 30.1871 17.6086 30.4774 16.0955 30.4774C14.5824 30.4774 13.0847 30.1871 11.6908 29.6238C10.2968 29.0604 9.03494 28.2353 7.97965 27.1973C6.92435 26.1592 6.09704 24.9293 5.54657 23.58C4.9961 22.2308 4.73363 20.7896 4.77467 19.3417C4.73363 17.8937 4.9961 16.4525 5.54657 15.1033C6.09704 13.7541 6.92435 12.5241 7.97965 11.4861C9.03494 10.448 10.2968 9.62295 11.6908 9.05957C13.0847 8.49619 14.5824 8.20593 16.0955 8.20593C17.6086 8.20593 19.1063 8.49619 20.5003 9.05957C21.8942 9.62295 23.1561 10.448 24.2114 11.4861C25.2667 12.5241 26.094 13.7541 26.6444 15.1033C27.1949 16.4525 27.4574 17.8937 27.4163 19.3417Z" fill="#FFDE00"/>
</g>
<defs>
<clipPath id="clip0_8424_43361">
<rect width="40" height="40" rx="20" fill="white"/>
</clipPath>
</defs>
</svg>
