<svg width="40" height="40" viewBox="0 0 40 40" fill="none" xmlns="http://www.w3.org/2000/svg">
<g clip-path="url(#clip0_8424_43208)">
<path fill-rule="evenodd" clip-rule="evenodd" d="M-6.95833 0L-7 40H46.3333L-6.95833 0Z" fill="black"/>
<path fill-rule="evenodd" clip-rule="evenodd" d="M46.2917 40L46.3333 0H-7L46.2917 40Z" fill="#FF0000"/>
<path d="M25.9278 9.95344L25.2248 9.91658C25.0028 9.40046 24.3924 9.21613 24.0039 9.43733C23.2884 9.43746 22.573 9.42516 21.858 9.40046L23.1714 9.97188C23.5229 10.8751 24.6329 11.0594 24.6329 11.0594C24.5219 12.6815 22.9865 10.8567 21.6915 11.7783C20.7666 12.3313 20.7666 12.9764 20.2671 14.0455C20.1006 14.3405 19.4531 15.1146 19.4531 15.1146L20.5446 15.0225L20.1931 15.4833L21.488 15.299L21.2105 15.557C21.3955 15.5939 22.6905 15.2437 22.6905 15.2437L22.598 15.6676L24.0779 15.1331C24.0779 15.1331 24.3739 15.3727 24.6329 15.4833L24.8179 14.746L25.5578 14.9303L25.7428 14.193C26.8528 15.6676 27.2227 17.1423 29.2576 17.5109L29.0726 16.7736C29.6136 17.0096 30.1501 17.2554 30.6821 17.5109L30.8486 17.1975C31.7365 17.8243 32.458 17.8058 32.9575 17.8796L32.5875 16.9579L32.9575 17.1423L32.4025 15.6676L32.9575 15.852L32.2175 14.746L32.495 14.5617L32.4025 14.0087C33.5124 14.3773 34.9924 14.9303 35.1773 16.2206C35.3623 18.2482 33.1424 18.8012 31.6625 18.6169C32.7725 19.5385 34.8074 19.1699 35.7323 18.2482C36.1023 17.8796 36.2873 17.3266 36.4723 16.7736C36.6573 17.3266 37.0273 18.0639 37.0273 18.8012C36.8423 20.4602 34.6224 21.0131 33.1424 21.1975C34.8074 22.1191 37.7672 21.0131 37.9522 18.6169C37.9522 16.5893 36.6573 15.6676 36.1023 14.746L35.9173 13.7506L36.4723 14.0087C36.4723 14.0087 36.1393 13.4004 36.1023 13.2714C36.1023 13.2714 35.5288 11.7046 35.3253 11.3543L35.7323 11.4281L34.2154 9.52949L34.6409 9.49262C34.6409 9.49262 32.8835 8.11016 32.4025 7.92583L32.9575 7.74151C31.8475 7.18852 30.5526 7.55718 29.4426 8.29449L29.6276 7.74151L29.2946 7.77837V7.13322L29.6276 6.63554L29.0726 6.45121L29.4426 5.52956L28.8877 5.71389L29.0726 4.79225C29.0726 4.79225 28.6657 4.97658 28.4067 4.95815C28.5129 4.75288 28.6117 4.54384 28.7027 4.33143C28.5177 4.05494 28.7027 3.50195 28.7027 3.50195C27.4077 3.68628 27.2227 3.87061 26.4828 4.97658C25.3728 7.00419 25.7428 7.92583 25.9278 9.95344Z" fill="#FFCC00"/>
<path fill-rule="evenodd" clip-rule="evenodd" d="M28.5641 3.62527C28.0131 3.71022 27.6984 3.80062 27.4421 3.97744C27.161 4.17134 26.9405 4.47513 26.5695 5.02948C26.0225 6.02974 25.8435 6.75061 25.821 7.46838C25.8057 7.95747 25.8622 8.44237 25.9294 9.0184C25.9623 9.30132 25.9979 9.60623 26.0288 9.9444L26.0394 10.0612L25.1563 10.0149L25.1313 9.9569C24.9313 9.49186 24.3856 9.33694 24.054 9.52577L24.0306 9.53907L24.0037 9.53908C23.4632 9.53917 22.9228 9.53219 22.3825 9.51814L23.2506 9.89581L23.2659 9.93523C23.4289 10.3541 23.7694 10.6105 24.0788 10.7635C24.2328 10.8397 24.3766 10.8889 24.4817 10.9191C24.5342 10.9341 24.5769 10.9443 24.606 10.9507C24.6206 10.9539 24.6318 10.9561 24.6392 10.9576C24.6414 10.958 24.6432 10.9583 24.6447 10.9586C24.6457 10.9588 24.6466 10.9589 24.6473 10.9591L24.6491 10.9594L24.6493 10.9594L24.6494 10.9594C24.6494 10.9594 24.6494 10.9594 24.6494 10.9594L24.7403 10.9745L24.734 11.0665C24.7055 11.4833 24.5821 11.7272 24.3459 11.821C24.2347 11.8652 24.1107 11.8702 23.9848 11.858C23.8587 11.8457 23.7218 11.8149 23.5816 11.7803C23.544 11.771 23.506 11.7614 23.4676 11.7518C22.9221 11.6143 22.3129 11.4607 21.7502 11.8612L21.7469 11.8636L21.7434 11.8657C21.2998 12.1309 21.0812 12.4147 20.9108 12.7632C20.827 12.9345 20.755 13.1212 20.6733 13.3328L20.6649 13.3548C20.5801 13.5743 20.4854 13.818 20.3589 14.0887L20.3573 14.0922L20.3553 14.0956C20.2674 14.2514 20.0584 14.5253 19.8771 14.754C19.8072 14.842 19.7405 14.9247 19.6845 14.9933L20.764 14.9022L20.424 15.348L21.7942 15.153L21.5032 15.4235C21.6478 15.3964 21.8241 15.3567 21.9961 15.3156C22.1686 15.2743 22.3356 15.2319 22.4595 15.1997C22.5215 15.1836 22.5726 15.1701 22.6082 15.1607C22.626 15.1559 22.6399 15.1522 22.6494 15.1497L22.6637 15.1458C22.6637 15.1458 22.6638 15.1458 22.6903 15.2439L22.6637 15.1458L22.8251 15.1022L22.7362 15.5098L24.0971 15.0183L24.1416 15.0543L24.1417 15.0544L24.1422 15.0548L24.1445 15.0566C24.1465 15.0583 24.1496 15.0607 24.1537 15.064C24.1619 15.0704 24.1741 15.0799 24.1895 15.0916C24.2204 15.1151 24.2642 15.1476 24.3159 15.1834C24.3897 15.2346 24.4772 15.291 24.5645 15.3377L24.7438 14.6231L25.4838 14.8074L25.6959 13.9622L25.8238 14.1321C26.0908 14.4869 26.3153 14.8415 26.5279 15.1773C26.5385 15.1941 26.5491 15.2108 26.5597 15.2275C26.7827 15.5795 26.9936 15.9087 27.2321 16.2029C27.6796 16.7551 28.2239 17.1837 29.1199 17.38L28.9237 16.5981L29.1131 16.6807C29.6253 16.9042 30.1337 17.1364 30.6379 17.3774L30.8128 17.0483L30.9069 17.1148C31.6326 17.627 32.2366 17.6943 32.7141 17.7476C32.7427 17.7508 32.7709 17.7539 32.7986 17.7571L32.3935 16.7481L32.7711 16.9362L32.2322 15.5043L32.7081 15.6624L32.0762 14.718L32.3838 14.5137L32.2743 13.8593L32.4343 13.9125C32.989 14.0967 33.6479 14.3305 34.1919 14.684C34.7371 15.0383 35.1795 15.5212 35.2777 16.2064L35.2781 16.209L35.2783 16.2116C35.3264 16.7383 35.2183 17.1753 35.0007 17.5297C34.7836 17.8831 34.4614 18.148 34.0905 18.3387C33.473 18.6563 32.7108 18.7734 32.0366 18.7486C32.5288 19.0186 33.1446 19.0968 33.7544 19.0231C34.5002 18.9331 35.2174 18.6179 35.6604 18.1765C36.0101 17.828 36.1887 17.3008 36.3758 16.7416L36.4721 16.4536L36.5684 16.7416C36.6114 16.87 36.6646 17.0089 36.7219 17.1583L36.7317 17.1839C36.7924 17.3422 36.8567 17.5111 36.9153 17.6862C37.0322 18.0359 37.1286 18.4167 37.1286 18.8014V18.807L37.128 18.8126C37.0299 19.6924 36.3916 20.2685 35.6144 20.644C34.9529 20.9635 34.1757 21.1459 33.5003 21.2503C34.2624 21.534 35.2263 21.4547 36.0586 21.0598C37.0041 20.6112 37.76 19.7647 37.8504 18.6131C37.8496 17.6258 37.5348 16.9087 37.1503 16.3226C36.9587 16.0307 36.7502 15.7717 36.5521 15.5257L36.5462 15.5184C36.3478 15.272 36.1581 15.036 36.0151 14.7986L36.0056 14.7828L35.7813 13.5756L36.2386 13.7883C36.2295 13.771 36.2202 13.7534 36.211 13.7356C36.1668 13.6511 36.1212 13.562 36.0841 13.4855C36.0497 13.4144 36.0185 13.3461 36.0056 13.3035L36.0003 13.2889C35.9961 13.2774 35.9898 13.2604 35.9818 13.2387C35.9658 13.1953 35.9426 13.1329 35.9142 13.0568C35.8573 12.9047 35.7794 12.6983 35.6952 12.4811C35.5251 12.0421 35.3341 11.5721 35.2373 11.4056L35.1268 11.2154L35.4837 11.28L34.0174 9.44487L34.3739 9.41398C34.3499 9.39541 34.3241 9.3755 34.2967 9.35443C34.1247 9.2222 33.8906 9.04406 33.6415 8.86025C33.3923 8.67633 33.129 8.48728 32.8985 8.333C32.6647 8.17655 32.4738 8.06221 32.3659 8.02086L32.1007 7.91919L32.6728 7.72917C31.6653 7.35714 30.5152 7.70396 29.4986 8.37928L29.2523 8.54291L29.4807 7.86012L29.1929 7.89199V7.10257L29.4689 6.69007L28.938 6.51375L29.2666 5.69518L28.7535 5.86561L28.9361 4.95562C28.9147 4.96326 28.8919 4.97108 28.8681 4.97885C28.7327 5.02304 28.55 5.07037 28.3993 5.05964L28.2454 5.04869L28.3163 4.91165C28.4136 4.72363 28.5046 4.53242 28.589 4.33832C28.5501 4.26194 28.5312 4.17701 28.5233 4.09503C28.5137 3.99407 28.5202 3.89079 28.5324 3.79972C28.5411 3.73524 28.5527 3.67552 28.5641 3.62527ZM29.0306 4.69991L29.211 4.61819L29.0215 5.56255L29.6183 5.36433L29.2069 6.38904L29.786 6.58137L29.396 7.16425V7.66513L29.7741 7.62327L29.6293 8.05634C30.6977 7.41402 31.9268 7.11486 33.0026 7.65079L33.2228 7.76052L32.6656 7.94559C32.7688 8.00542 32.887 8.08089 33.0114 8.16419C33.2457 8.32096 33.5119 8.51209 33.7622 8.69682C34.0126 8.88167 34.2479 9.06067 34.4205 9.19341C34.5068 9.2598 34.5775 9.31465 34.6266 9.35292C34.6512 9.37206 34.6704 9.38706 34.6834 9.39728L34.7034 9.41292L34.7034 9.41297C34.7035 9.41298 34.7035 9.41299 34.6407 9.49281L34.7034 9.41297L34.9054 9.57182L34.413 9.61449L35.9805 11.5765L35.5072 11.4907C35.6157 11.7258 35.7587 12.0827 35.8846 12.4077C35.9692 12.6259 36.0474 12.8331 36.1045 12.9857C36.133 13.062 36.1562 13.1247 36.1723 13.1683C36.1804 13.1902 36.1867 13.2072 36.1909 13.2188L36.1974 13.2366C36.1975 13.2366 36.1975 13.2366 36.1021 13.2715L36.1975 13.2366L36.1987 13.2401L36.1997 13.2435C36.2061 13.2658 36.2296 13.3198 36.2669 13.3969C36.3027 13.4707 36.3472 13.5578 36.391 13.6416C36.4347 13.7252 36.4772 13.8048 36.5089 13.8636C36.5247 13.893 36.5378 13.9172 36.5469 13.934L36.5575 13.9534L36.5609 13.9597L36.5611 13.96L36.5612 13.9601L36.7097 14.2313L36.053 13.926L36.1986 14.7094C36.332 14.9276 36.5086 15.1478 36.7044 15.391L36.7125 15.4011C36.9093 15.6455 37.1231 15.911 37.3201 16.2112C37.7212 16.8224 38.0536 17.5788 38.0536 18.6171V18.621L38.0533 18.6249C37.9573 19.8676 37.1415 20.7708 36.1456 21.2433C35.1526 21.7145 33.9609 21.7669 33.0931 21.2865L32.8201 21.1354L33.1297 21.0969C33.8656 21.0052 34.7777 20.8226 35.5261 20.4611C36.2733 20.1001 36.8365 19.5719 36.9255 18.7957C36.9245 18.445 36.8363 18.0904 36.7226 17.7507C36.6656 17.5802 36.6027 17.415 36.542 17.2565L36.5316 17.2294C36.5125 17.1795 36.4935 17.1301 36.4752 17.0816C36.316 17.5407 36.1289 17.9964 35.8038 18.3204C35.3219 18.8005 34.5591 19.1305 33.7788 19.2248C32.9985 19.319 32.1809 19.1797 31.5974 18.6952L31.3303 18.4734L31.6749 18.5163C32.4001 18.6066 33.3034 18.5151 33.9976 18.1581C34.3436 17.9802 34.6342 17.7382 34.8276 17.4234C35.02 17.1101 35.1201 16.7185 35.0762 16.2326C34.9888 15.6288 34.599 15.1908 34.0812 14.8544C33.6109 14.5487 33.0452 14.3337 32.5304 14.159L32.6058 14.61L32.3584 14.7744L33.2064 16.0419L32.5723 15.8313L33.1434 17.3486L32.781 17.1681L33.1174 18.0061L32.9424 17.9802C32.8669 17.9691 32.785 17.96 32.6971 17.9504C32.2375 17.8997 31.615 17.8311 30.8847 17.3458L30.7258 17.6449L30.6379 17.6026C30.1693 17.3775 29.697 17.16 29.2214 16.95L29.3943 17.6391L29.2393 17.611C28.1942 17.4217 27.5725 16.9455 27.0743 16.3308C26.8272 16.026 26.6103 15.687 26.3881 15.3362C26.3779 15.3201 26.3676 15.3039 26.3574 15.2877C26.1793 15.0065 25.9964 14.7175 25.7886 14.4274L25.6315 15.0536L24.8915 14.8692L24.7022 15.6236L24.5928 15.5769C24.4538 15.5175 24.3084 15.4253 24.2002 15.3504C24.1455 15.3125 24.0992 15.2782 24.0665 15.2533C24.0641 15.2514 24.0617 15.2496 24.0594 15.2478L22.4594 15.8258L22.5556 15.3846C22.5413 15.3883 22.5263 15.3922 22.5106 15.3963C22.3859 15.4287 22.2176 15.4715 22.0433 15.5131C21.8693 15.5547 21.6882 15.5955 21.5383 15.6236C21.4635 15.6377 21.3951 15.6488 21.3385 15.6552C21.2865 15.6612 21.2312 15.6649 21.1905 15.6568L20.9958 15.618L21.1815 15.4453L19.9618 15.619L20.3248 15.1431L19.2188 15.2365L19.375 15.0497L19.3751 15.0495L19.3822 15.0411C19.3869 15.0354 19.3939 15.027 19.4029 15.0162C19.4208 14.9945 19.4466 14.9633 19.4782 14.9248C19.5412 14.848 19.627 14.7424 19.7179 14.6278C19.9005 14.3975 20.0968 14.139 20.1766 13.9991C20.299 13.7367 20.3911 13.5 20.4753 13.2816L20.4853 13.256C20.5657 13.0475 20.6405 12.8534 20.7283 12.6739C20.9135 12.2952 21.1568 11.9806 21.6358 11.6934C22.2774 11.239 22.9761 11.4169 23.5085 11.5524C23.5502 11.563 23.5908 11.5734 23.6303 11.5831C23.7699 11.6176 23.8944 11.6451 24.0045 11.6558C24.1149 11.6666 24.2022 11.6595 24.2709 11.6323C24.3846 11.5871 24.4871 11.4676 24.5236 11.1402C24.496 11.1335 24.4631 11.125 24.4258 11.1143C24.3118 11.0817 24.1562 11.0284 23.9887 10.9456C23.6645 10.7852 23.2866 10.5091 23.0927 10.0487L21.8173 9.49378L21.8613 9.29915C22.5666 9.32351 23.2722 9.33578 23.9778 9.33595C24.4072 9.11181 25.0321 9.30489 25.2908 9.81854L25.8155 9.84605C25.7885 9.56688 25.7583 9.30687 25.7296 9.06057C25.6614 8.47456 25.6022 7.96616 25.618 7.46202C25.6417 6.70611 25.8322 5.9533 26.3935 4.928L26.3957 4.92404L26.3982 4.92029C26.7656 4.37106 27.0072 4.03064 27.3267 3.81024C27.6489 3.58803 28.0405 3.49378 28.6882 3.40159L28.851 3.37842L28.7988 3.53429L28.7988 3.53442L28.7985 3.53526L28.7972 3.5392C28.7961 3.54282 28.7943 3.54836 28.7922 3.55562C28.7878 3.57016 28.7817 3.59154 28.7748 3.61818C28.7611 3.67163 28.7447 3.7453 28.7338 3.82666C28.7228 3.90841 28.7178 3.99521 28.7255 4.0757C28.7333 4.15686 28.7533 4.22497 28.7869 4.27514L28.8175 4.32095L28.7958 4.37162C28.7274 4.53127 28.6547 4.68904 28.5778 4.84475C28.6521 4.83154 28.7313 4.80984 28.8051 4.78575C28.8695 4.76474 28.9262 4.74311 28.9669 4.72674C28.9872 4.71857 29.0033 4.71175 29.0143 4.70703C29.0198 4.70466 29.024 4.70283 29.0268 4.70161L29.0298 4.70027L29.0305 4.69997L29.0306 4.69991Z" fill="#FFCC00"/>
<path fill-rule="evenodd" clip-rule="evenodd" d="M32.9209 12.9766C33.0134 13.1425 34.0678 13.6401 34.8448 14.0825C34.6413 13.2346 33.1059 13.0503 32.9209 12.9766Z" fill="#FF0000"/>
<path fill-rule="evenodd" clip-rule="evenodd" d="M32.6309 12.7222L32.9687 12.8568C32.9805 12.8615 33.0134 12.8702 33.0772 12.8848C33.0964 12.8892 33.1178 12.894 33.141 12.8993C33.1881 12.9098 33.2424 12.922 33.3006 12.9358C33.476 12.9772 33.6975 13.0351 33.9211 13.1185C34.1438 13.2016 34.3742 13.312 34.5641 13.461C34.7547 13.6105 34.9108 13.804 34.9705 14.0527L35.0401 14.3428L34.7808 14.1952C34.518 14.0455 34.2245 13.8902 33.9454 13.7425C33.8138 13.6729 33.6854 13.6049 33.5649 13.54C33.3785 13.4397 33.2107 13.3465 33.0831 13.2674C33.0195 13.2279 32.9634 13.1904 32.9191 13.1561C32.8794 13.1254 32.8336 13.0857 32.808 13.0399L32.6309 12.7222ZM33.6791 13.3079C33.6819 13.3094 33.6847 13.3109 33.6874 13.3124C33.8045 13.3754 33.9309 13.4424 34.0615 13.5115C34.203 13.5864 34.3494 13.6638 34.4938 13.7416C34.4661 13.715 34.4363 13.6893 34.4046 13.6644C34.2436 13.5381 34.0404 13.4389 33.8307 13.3607C33.78 13.3418 33.7293 13.3242 33.6791 13.3079Z" fill="#FF0000"/>
<path fill-rule="evenodd" clip-rule="evenodd" d="M7.4916 33.2499L6.30827 32.4999L4.72493 33.2582L5.08327 31.9082L3.87493 30.6499L5.2666 30.5666L6.09993 29.0332L6.60827 30.3249L8.33327 30.6416L7.24993 31.5249L7.4916 33.2499ZM10.5083 26.6666L9.95827 26.4166L9.43327 26.7166L9.5166 26.1166L9.0666 25.7082L9.65827 25.5999L9.90827 25.0499L10.1999 25.5832L10.7999 25.6499L10.3833 26.0832L10.5083 26.6666ZM13.1749 22.8999L11.9666 22.3166L10.8083 22.9666L10.9999 21.6582L10.0166 20.7582L11.3249 20.5249L11.8749 19.3249L12.5083 20.4916L13.8249 20.6416L12.9083 21.5999L13.1749 22.8999ZM7.6916 17.6499L6.27493 16.9416L4.89993 17.6999L5.13327 16.1499L3.98327 15.0666L5.5416 14.8166L6.20827 13.3999L6.93327 14.7916L8.49993 14.9832L7.3916 16.0999L7.6916 17.6499ZM2.62493 23.0999L1.20827 22.2666L-0.208399 23.1249L0.149935 21.5166L-1.1084 20.4332L0.533268 20.2832L1.17493 18.7582L1.83327 20.2749L3.48327 20.4082L2.2416 21.4916L2.62493 23.0999Z" fill="white"/>
</g>
<defs>
<clipPath id="clip0_8424_43208">
<rect width="40" height="40" rx="20" fill="white"/>
</clipPath>
</defs>
</svg>
