<svg width="40" height="40" viewBox="0 0 40 40" fill="none" xmlns="http://www.w3.org/2000/svg">
<g clip-path="url(#clip0_8424_43278)">
<path d="M-7 0H46.3333V20H-7V0Z" fill="#0038A8"/>
<path d="M-7 20H46.3333V40H-7V20Z" fill="#CE1126"/>
<path d="M27.6417 20L-7 40V0" fill="white"/>
<path d="M-4.77565 3.5332L-3.58398 4.5832L-2.20065 3.81654L-2.81732 5.27487L-1.65065 6.3582L-3.23398 6.22487L-3.90898 7.6582L-4.26732 6.11654L-5.83398 5.91654L-4.47565 5.0832L-4.77565 3.5332ZM22.2077 17.8915L22.241 19.4749L23.741 19.9999L22.241 20.5165L22.2077 22.0999L21.2493 20.8415L19.7327 21.2999L20.6327 19.9999L19.7327 18.6999L21.2493 19.1582L22.2077 17.8915ZM-3.90065 32.3415L-3.23398 33.7749L-1.65065 33.6415L-2.80898 34.7249L-2.19232 36.1832L-3.57565 35.4249L-4.77565 36.4582L-4.47565 34.8999L-5.83398 34.0832L-4.25898 33.8832L-3.90065 32.3415ZM5.61601 11.5915L5.09935 12.1082L5.35768 16.0249L5.10768 16.0499L4.63268 12.4749L4.20768 12.8915L4.84102 16.0915C4.3289 16.1923 3.84178 16.3934 3.40768 16.6832L1.59935 13.9832H0.999349L3.19935 16.8415C3.13089 16.8949 3.06419 16.9505 2.99935 17.0082L0.407682 14.0499H-0.325652V14.7832L2.62435 17.3665L2.45768 17.5749L-0.400651 15.3832V15.9749L2.30768 17.7832C2.02435 18.2165 1.81602 18.6999 1.71601 19.2165L-1.47565 18.5832L-1.90065 18.9999L1.67435 19.4749C1.65768 19.5582 1.64935 19.6499 1.64935 19.7332L-2.26732 19.4832L-2.78398 19.9999L-2.26732 20.5165L1.64935 20.2582L1.67435 20.5165L-1.90065 20.9915L-1.48398 21.4082L1.71601 20.7749C1.81681 21.287 2.01789 21.7741 2.30768 22.2082L-0.400651 24.0165V24.6165L2.45768 22.4249C2.51105 22.4933 2.56664 22.56 2.62435 22.6249L-0.325652 25.2082V25.9415H0.416015L2.99935 22.9915L3.20768 23.1582L0.999349 26.0165H1.59935L3.40768 23.3082C3.83268 23.5915 4.32435 23.7999 4.84102 23.8999L4.20768 27.0999L4.62435 27.5165L5.09935 23.9415C5.18268 23.9582 5.26602 23.9665 5.35768 23.9665L5.10768 27.8832L5.61601 28.3999L6.14102 27.8832L5.88268 23.9665L6.13268 23.9415L6.60768 27.5249L7.03268 27.0999L6.39935 23.8999C6.91146 23.7991 7.39858 23.598 7.83268 23.3082L9.64101 26.0165H10.241L8.04101 23.1582C8.10947 23.1048 8.17617 23.0492 8.24101 22.9915L10.8327 25.9415H11.566V25.2082L8.61601 22.6249L8.78268 22.4249L11.641 24.6165V24.0165L8.93268 22.2082C9.21601 21.7832 9.42435 21.2915 9.52435 20.7749L12.716 21.4082L13.141 20.9915L9.56602 20.5165C9.58268 20.4332 9.59101 20.3499 9.59101 20.2582L13.5077 20.5082L14.0243 19.9999L13.5077 19.4832L9.59101 19.7332L9.56602 19.4832L13.141 19.0082L12.7243 18.5915L9.52435 19.2165C9.42355 18.7044 9.22247 18.2173 8.93268 17.7832L11.641 15.9749V15.3832L8.78268 17.5749C8.72931 17.5064 8.67373 17.4397 8.61601 17.3749L11.566 14.7915V14.0499H10.8327L8.24935 17.0082C8.18178 16.9503 8.11229 16.8948 8.04101 16.8415L10.241 13.9832H9.64101L7.83268 16.6832C7.40768 16.3999 6.91601 16.1915 6.39935 16.0915L7.03268 12.8999L6.61601 12.4832L6.14102 16.0499L5.88268 16.0249L6.13268 12.1082L5.61601 11.5915Z" fill="#FCD116"/>
</g>
<defs>
<clipPath id="clip0_8424_43278">
<rect width="40" height="40" rx="20" fill="white"/>
</clipPath>
</defs>
</svg>
