<svg width="40" height="40" viewBox="0 0 40 40" fill="none" xmlns="http://www.w3.org/2000/svg">
<g clip-path="url(#clip0_8424_43204)">
<path d="M14.334 0H46.334V40H14.334V0Z" fill="#FF0000"/>
<path d="M-7 0H14.3333V40H-7V0Z" fill="#006600"/>
<path fill-rule="evenodd" clip-rule="evenodd" d="M21.2913 25.5165C18.5997 25.4331 6.29134 17.7498 6.20801 16.5165L6.88301 15.3915C8.10801 17.1665 20.6913 24.6415 21.933 24.3748L21.2913 25.5165Z" fill="#FFFF00"/>
<path fill-rule="evenodd" clip-rule="evenodd" d="M6.8828 15.3665C6.89129 15.3663 6.89934 15.3703 6.90417 15.3773C7.055 15.5959 7.38293 15.9048 7.84674 16.2786C8.30981 16.6518 8.90613 17.088 9.59154 17.5609C10.9623 18.5067 12.6884 19.5989 14.4151 20.6273C16.1419 21.6558 17.869 22.6203 19.2417 23.311C19.9281 23.6563 20.5255 23.933 20.9898 24.1149C21.222 24.2059 21.4203 24.273 21.5795 24.3132C21.7399 24.3536 21.8569 24.3658 21.9283 24.3504C21.938 24.3483 21.9479 24.3521 21.9537 24.36C21.9596 24.3679 21.9602 24.3785 21.9554 24.3871L21.3137 25.5288C21.3092 25.5369 21.3005 25.5418 21.2912 25.5415C20.9504 25.531 20.4604 25.4005 19.8657 25.1799C19.2703 24.959 18.5676 24.6469 17.8003 24.271C16.2657 23.5193 14.4715 22.5121 12.7591 21.4691C11.0467 20.4262 9.41559 19.3471 8.20712 18.4514C7.60296 18.0037 7.10393 17.6014 6.75312 17.2721C6.57776 17.1076 6.43888 16.9607 6.34233 16.8352C6.24667 16.7108 6.1894 16.6033 6.18365 16.5182C6.18331 16.5131 6.18453 16.508 6.18716 16.5037L6.86216 15.3787C6.86653 15.3714 6.8743 15.3668 6.8828 15.3665ZM6.8854 15.4371L6.23421 16.5224C6.24177 16.5909 6.29028 16.6855 6.38197 16.8047C6.47619 16.9272 6.61291 17.072 6.78734 17.2357C7.1361 17.563 7.63337 17.964 8.23689 18.4113C9.44379 19.3057 11.0736 20.384 12.7851 21.4264C14.4967 22.4689 16.2895 23.4752 17.8223 24.2261C18.5888 24.6015 19.2899 24.9129 19.8831 25.133C20.4681 25.35 20.946 25.4774 21.2776 25.491L21.8874 24.406C21.8065 24.4108 21.6982 24.3947 21.5673 24.3616C21.4052 24.3208 21.2047 24.2528 20.9715 24.1615C20.5052 23.9787 19.9062 23.7013 19.2192 23.3556C17.8451 22.6643 16.1169 21.6991 14.3896 20.6703C12.6621 19.6414 10.9351 18.5487 9.56315 17.6021C8.8772 17.1288 8.27977 16.6918 7.81537 16.3175C7.37287 15.9609 7.04913 15.6596 6.8854 15.4371Z" fill="black"/>
<path fill-rule="evenodd" clip-rule="evenodd" d="M6.74191 15.2332C6.50025 15.8832 9.95858 18.0165 14.1086 20.5498C18.2669 23.0748 21.8502 24.6332 22.1086 24.4165L22.2336 24.1832C22.1836 24.2665 22.0669 24.2915 21.8752 24.2332C20.7502 23.9082 17.8252 22.5665 14.2002 20.3665C10.5669 18.1665 7.41691 16.1415 6.92525 15.2832C6.88692 15.2027 6.86971 15.1138 6.87525 15.0248H6.85858L6.75858 15.2082L6.74191 15.2332ZM21.3502 25.5498C21.3086 25.6332 21.2169 25.6332 21.0586 25.6165C20.0586 25.5082 17.0086 24.0248 13.4002 21.8665C9.20025 19.3498 5.73358 17.0665 6.11691 16.4665L6.21691 16.2832L6.23358 16.2915C5.90025 17.3082 13.0752 21.4082 13.5002 21.6748C17.6502 24.2415 21.1502 25.7498 21.4586 25.3582L21.3502 25.5498Z" fill="#FFFF00"/>
<path fill-rule="evenodd" clip-rule="evenodd" d="M6.83627 15.0128C6.84065 15.0048 6.84907 14.9998 6.85822 14.9998H6.87488C6.88178 14.9998 6.88838 15.0027 6.8931 15.0077C6.89783 15.0127 6.90026 15.0195 6.89983 15.0264C6.89458 15.1108 6.91083 15.1951 6.94705 15.2715C7.0677 15.4816 7.35315 15.7663 7.77393 16.1108C8.19434 16.4551 8.74705 16.8569 9.39834 17.301C10.7009 18.1892 12.3962 19.2451 14.2128 20.3451L14.2129 20.3451C17.8374 22.5448 20.7601 23.8851 21.8818 24.2091L21.8822 24.2092C21.9761 24.2378 22.0491 24.2451 22.1033 24.2366C22.1566 24.2282 22.1912 24.2046 22.2118 24.1703C22.2188 24.1587 22.2337 24.1547 22.2456 24.1614C22.2574 24.1681 22.2617 24.183 22.2553 24.195L22.1303 24.4283C22.1287 24.4311 22.1267 24.4336 22.1243 24.4356C22.1009 24.4553 22.0637 24.4616 22.0214 24.4615C21.9776 24.4614 21.922 24.4542 21.8558 24.4406C21.7233 24.4135 21.5447 24.3601 21.3256 24.2824C20.8873 24.1269 20.2844 23.8731 19.5601 23.5339C18.1113 22.8554 16.1751 21.8341 14.0952 20.5712L14.0952 20.5712C12.0204 19.3046 10.1176 18.1375 8.76383 17.2058C8.08705 16.7401 7.54648 16.3324 7.19 16.0001C7.01187 15.8341 6.87859 15.6858 6.79737 15.5577C6.71687 15.4307 6.68361 15.3172 6.71812 15.2244L6.74155 15.2332L6.72075 15.2193L6.7368 15.1952L6.83627 15.0128ZM6.76403 15.2445C6.73963 15.314 6.76201 15.4085 6.8396 15.5309C6.91746 15.6538 7.04714 15.7986 7.22409 15.9636C7.57776 16.2932 8.11584 16.6992 8.79218 17.1646C10.1446 18.0954 12.046 19.2617 14.1212 20.5284C16.1996 21.7905 18.1343 22.8109 19.5813 23.4886C20.3049 23.8275 20.9062 24.0805 21.3424 24.2352C21.5605 24.3126 21.7367 24.3652 21.8659 24.3916C21.9305 24.4049 21.9825 24.4114 22.0216 24.4115C22.0577 24.4116 22.0785 24.4062 22.0888 24.3997L22.1557 24.2749C22.1418 24.2798 22.1269 24.2835 22.1111 24.286C22.0466 24.2962 21.9654 24.2868 21.8678 24.2571C20.7394 23.9311 17.8122 22.588 14.1869 20.3879C12.3702 19.2878 10.6739 18.2313 9.37017 17.3423C8.71834 16.8979 8.16428 16.4951 7.74225 16.1495C7.32113 15.8047 7.02865 15.5146 6.90319 15.2956C6.90288 15.295 6.90258 15.2945 6.90231 15.2939C6.87207 15.2304 6.85438 15.1619 6.84997 15.0921L6.78016 15.2201C6.77981 15.2208 6.77943 15.2214 6.77902 15.222L6.76403 15.2445ZM6.1946 16.2712C6.20105 16.2594 6.21569 16.2548 6.22773 16.2608L6.2444 16.2691C6.25548 16.2747 6.26083 16.2875 6.25697 16.2993C6.23866 16.3551 6.24527 16.4243 6.27844 16.5073C6.31155 16.5901 6.37018 16.6843 6.45197 16.7883C6.61551 16.9962 6.86857 17.2395 7.18433 17.5049C7.81559 18.0354 8.6935 18.6509 9.5959 19.2435C11.0319 20.1865 12.5262 21.0691 13.1854 21.4584C13.355 21.5586 13.4693 21.6261 13.5131 21.6536C15.5874 22.9365 17.4989 23.9547 18.93 24.6031C19.6457 24.9274 20.2405 25.1588 20.6752 25.2848C20.8927 25.3478 21.0689 25.3841 21.1996 25.3927C21.265 25.397 21.3178 25.3943 21.3581 25.3851C21.3986 25.376 21.4242 25.361 21.4386 25.3427C21.4467 25.3324 21.4613 25.3301 21.4721 25.3374C21.483 25.3447 21.4864 25.3591 21.48 25.3705L21.3719 25.5616C21.3468 25.6114 21.3059 25.6359 21.2521 25.6453C21.2002 25.6543 21.1343 25.6496 21.0556 25.6413L21.0555 25.6413C20.802 25.6139 20.4213 25.4998 19.9381 25.3117C19.4543 25.1233 18.8658 24.86 18.1962 24.5327C16.8569 23.8781 15.1917 22.9674 13.387 21.8879L13.387 21.8879C11.287 20.6295 9.36955 19.4291 8.02493 18.4681C7.35279 17.9877 6.82276 17.5664 6.48452 17.2271C6.31556 17.0576 6.19314 16.9073 6.1251 16.7793C6.05773 16.6525 6.04016 16.5404 6.095 16.4538L6.1946 16.2712ZM21.3499 25.5498L21.3281 25.5375L21.3897 25.4285C21.3831 25.4305 21.3762 25.4323 21.3691 25.4339C21.3223 25.4445 21.2643 25.447 21.1963 25.4426C21.0603 25.4336 20.8801 25.3962 20.6613 25.3328C20.2233 25.2059 19.626 24.9733 18.9094 24.6486C17.4759 23.9991 15.5624 22.9799 13.4867 21.6961L13.4866 21.696C13.4438 21.6691 13.331 21.6025 13.1634 21.5035C12.5065 21.1156 11.0066 20.2297 9.56845 19.2853C8.66564 18.6925 7.78574 18.0757 7.15216 17.5432C6.83549 17.277 6.57937 17.0311 6.41267 16.8192C6.32934 16.7133 6.26758 16.6148 6.23201 16.5258C6.21026 16.4714 6.19794 16.4196 6.19701 16.3712L6.1385 16.4785C6.13822 16.479 6.13793 16.4795 6.13762 16.4799C6.0972 16.5432 6.10421 16.6334 6.16926 16.7558C6.23384 16.8773 6.35217 17.0235 6.51993 17.1918C6.85513 17.528 7.38239 17.9474 8.054 18.4274C9.39688 19.3872 11.3128 20.5868 13.4127 21.845C15.2165 22.9239 16.8804 23.834 18.2182 24.4878C18.887 24.8147 19.4741 25.0774 19.9562 25.2651C20.4389 25.453 20.8143 25.5649 21.0608 25.5916C21.1405 25.6 21.1996 25.6037 21.2435 25.596C21.2853 25.5887 21.311 25.5718 21.3275 25.5386L21.3499 25.5498Z" fill="black"/>
<path fill-rule="evenodd" clip-rule="evenodd" d="M14.3501 17.2665C17.0334 17.2415 20.3501 16.8999 22.2667 16.1332L21.8501 15.4665C20.7251 16.0915 17.3917 16.5082 14.3251 16.5665C10.7084 16.5332 8.15006 16.1915 6.86673 15.3332L6.4834 16.0499C8.8334 17.0499 11.2501 17.2582 14.3501 17.2665Z" fill="#FFFF00"/>
<path fill-rule="evenodd" clip-rule="evenodd" d="M6.86027 15.3089C6.86712 15.3072 6.87437 15.3085 6.88024 15.3124C7.51739 15.7385 8.47352 16.0378 9.72439 16.2345C10.9747 16.4311 12.5169 16.5248 14.3245 16.5415C15.8569 16.5123 17.4558 16.3937 18.8118 16.2042C19.4899 16.1095 20.107 15.9972 20.6245 15.8696C21.1425 15.7419 21.5592 15.5993 21.8375 15.4446C21.8492 15.4382 21.8638 15.442 21.8709 15.4533L22.2875 16.1199C22.2915 16.1262 22.2924 16.1339 22.2901 16.1409C22.2878 16.148 22.2825 16.1536 22.2756 16.1564C20.3544 16.9249 17.0338 17.2665 14.3499 17.2915C14.3498 17.2915 14.3497 17.2915 14.3496 17.2915C14.336 17.2914 14.3248 17.2804 14.3247 17.2667C14.3245 17.2529 14.3356 17.2416 14.3494 17.2415C14.3495 17.2415 14.3495 17.2415 14.3496 17.2415C11.2615 17.2332 8.85524 17.0263 6.51795 16.0375L6.87543 15.3692C7.52142 15.7932 8.47811 16.0892 9.71662 16.2839C10.9704 16.481 12.5155 16.5748 14.3244 16.5915L14.3244 16.5915L14.3251 16.5915C15.8593 16.5623 17.4603 16.4435 18.8188 16.2538C19.498 16.1589 20.1168 16.0462 20.6365 15.9181C21.1433 15.7932 21.5572 15.6532 21.841 15.4998L22.2293 16.121C20.313 16.8781 17.0194 17.2166 14.3496 17.2415M6.86027 15.3089C6.85343 15.3106 6.84762 15.3152 6.8443 15.3214L6.86027 15.3089ZM6.8443 15.3214L6.46096 16.038L6.8443 15.3214ZM14.3496 17.2915C11.2488 17.2832 8.828 17.0749 6.47322 16.0728C6.46676 16.0701 6.46176 16.0648 6.45943 16.0581C6.4571 16.0515 6.45765 16.0442 6.46096 16.038" fill="black"/>
<path fill-rule="evenodd" clip-rule="evenodd" d="M22.3749 16.1498C22.3083 16.2582 21.0583 16.6832 19.2249 16.9998C17.6088 17.2447 15.9762 17.3646 14.3416 17.3582C12.7755 17.3641 11.2108 17.2638 9.65827 17.0582C7.73327 16.7582 6.7416 16.3415 6.3666 16.1915L6.45827 16.0082C7.5166 16.4248 8.5166 16.6748 9.68327 16.8582C11.2245 17.0663 12.7781 17.1693 14.3333 17.1665C15.9594 17.1682 17.5833 17.0484 19.1916 16.8082C21.0666 16.4998 22.0916 16.1082 22.2416 15.9332L22.3749 16.1582V16.1498ZM22.0083 15.4748C21.8083 15.6415 20.7916 15.9998 19.0083 16.2832C17.4683 16.506 15.9143 16.6174 14.3583 16.6165C12.5249 16.6165 11.0166 16.4832 9.87494 16.3165C8.05827 16.0832 7.0916 15.6498 6.7416 15.5332L6.84993 15.3498C7.12493 15.4915 8.04993 15.8665 9.8916 16.1248C11.3721 16.3232 12.8646 16.4178 14.3583 16.4082C15.9032 16.4087 17.4461 16.2973 18.9749 16.0748C20.7666 15.8248 21.7333 15.3748 21.8833 15.2582L22.0083 15.4748ZM5.52494 20.4998C7.17494 21.3915 10.8499 21.8332 14.3249 21.8665C17.4916 21.8748 21.6083 21.3832 23.1499 20.5665L23.1083 19.6748C22.6249 20.4248 18.2083 21.1498 14.2916 21.1248C10.3749 21.0915 6.73327 20.4915 5.5166 19.7082V20.4998" fill="#FFFF00"/>
<path fill-rule="evenodd" clip-rule="evenodd" d="M21.8877 15.2336C21.8948 15.235 21.9009 15.2394 21.9045 15.2457L22.0295 15.4623L22.0079 15.4748L22.0239 15.494C21.9707 15.5384 21.8664 15.5932 21.7149 15.6548C21.5626 15.7166 21.3602 15.7862 21.1086 15.8592C20.6053 16.0054 19.9043 16.166 19.0118 16.3078L19.0115 16.3079C17.4703 16.5309 15.9151 16.6424 14.3579 16.6415L14.3579 16.6165V16.6415C14.3579 16.6415 14.3579 16.6415 14.3579 16.6415C12.5235 16.6415 11.014 16.5081 9.87115 16.3413C9.87122 16.3413 9.87129 16.3413 9.87136 16.3413L9.87454 16.3165L9.87093 16.3412C9.87101 16.3412 9.87108 16.3412 9.87115 16.3413C8.31762 16.1417 7.38379 15.7959 6.92682 15.6266C6.84857 15.5977 6.78431 15.5739 6.7333 15.5569C6.72614 15.5545 6.72044 15.549 6.71779 15.5419C6.71515 15.5348 6.71584 15.5269 6.71969 15.5204L6.82802 15.3371C6.83476 15.3257 6.84922 15.3215 6.86099 15.3276C7.13279 15.4676 8.05486 15.842 9.8946 16.1001C9.89458 16.1 9.89456 16.1 9.89453 16.1L9.89121 16.1248L9.89468 16.1001C9.89466 16.1001 9.89463 16.1001 9.8946 16.1001C11.3739 16.2982 12.8652 16.3928 14.3577 16.3832L14.3579 16.3832C15.9016 16.3836 17.4433 16.2723 18.9709 16.0501L18.9711 16.0501C19.8655 15.9253 20.5537 15.7506 21.0366 15.5927C21.278 15.5138 21.4681 15.4391 21.6069 15.377C21.7464 15.3146 21.8326 15.2656 21.8675 15.2384C21.8732 15.234 21.8806 15.2322 21.8877 15.2336ZM21.9753 15.4684L21.8749 15.2944C21.8276 15.3258 21.7447 15.3701 21.6273 15.4226C21.4867 15.4855 21.295 15.5608 21.0521 15.6402C20.5663 15.7991 19.8753 15.9744 18.9781 16.0996C17.4481 16.3221 15.904 16.4336 14.3579 16.4332C12.8631 16.4428 11.3695 16.3481 9.88789 16.1496L9.88774 16.1496C8.08824 15.8972 7.16115 15.5332 6.85915 15.3827L6.77837 15.5194C6.8245 15.5354 6.87956 15.5558 6.94398 15.5797C7.40136 15.749 8.33017 16.0929 9.87773 16.2917L9.87816 16.2917L9.87816 16.2917C11.0186 16.4582 12.5257 16.5915 14.3579 16.5915H14.3579C15.9126 16.5923 17.4654 16.481 19.0041 16.2584C19.8949 16.1169 20.5938 15.9567 21.0947 15.8112C21.3451 15.7385 21.5458 15.6695 21.6961 15.6084C21.8313 15.5535 21.9238 15.5058 21.9753 15.4684ZM22.2434 15.9082C22.2514 15.9089 22.2586 15.9135 22.2627 15.9204L22.3853 16.1272C22.3939 16.1313 22.3995 16.1401 22.3995 16.1498V16.1582C22.3995 16.1694 22.392 16.1793 22.3812 16.1823C22.38 16.1826 22.3788 16.1828 22.3776 16.183C22.3729 16.1869 22.3678 16.1907 22.3625 16.1943C22.348 16.2043 22.3292 16.2151 22.3066 16.2267C22.2614 16.2499 22.1991 16.277 22.1211 16.3071C21.965 16.3675 21.7444 16.4409 21.469 16.5207C20.9181 16.6804 20.1463 16.866 19.2288 17.0245L19.2283 17.0245C17.6109 17.2696 15.977 17.3895 14.3412 17.3832C12.774 17.389 11.2082 17.2887 9.65459 17.0829L9.65403 17.0829L9.65403 17.0829C7.79739 16.7935 6.80724 16.3956 6.40095 16.2324C6.38543 16.2261 6.37076 16.2202 6.35693 16.2147C6.35043 16.2121 6.34533 16.2069 6.34284 16.2004C6.34036 16.1938 6.34072 16.1866 6.34385 16.1803L6.43552 15.997C6.44131 15.9854 6.45499 15.9801 6.46704 15.9849C7.52327 16.4007 8.52137 16.6503 9.68649 16.8334C11.2265 17.0413 12.7789 17.1443 14.3328 17.1415H14.3329C15.9577 17.1432 17.5804 17.0235 19.1873 16.7835C20.1239 16.6294 20.8476 16.4547 21.3557 16.2968C21.6097 16.2178 21.8095 16.1432 21.9548 16.0776C22.0274 16.0448 22.0861 16.0144 22.131 15.987C22.1763 15.9594 22.206 15.9358 22.2222 15.9169C22.2275 15.9108 22.2353 15.9075 22.2434 15.9082ZM22.34 16.1489L22.236 15.9735C22.2156 15.9914 22.1891 16.0102 22.157 16.0297C22.1098 16.0585 22.0492 16.0898 21.9753 16.1231C21.8276 16.1898 21.6258 16.2652 21.3705 16.3445C20.8598 16.5033 20.1337 16.6785 19.1953 16.8328L19.1949 16.8329C17.5854 17.0733 15.9602 17.1932 14.3329 17.1915C12.7766 17.1943 11.2219 17.0912 9.67953 16.8829L9.679 16.8829L9.679 16.8829C8.51872 16.7005 7.5225 16.4522 6.47002 16.0398L6.40071 16.1784C6.40687 16.1809 6.41318 16.1834 6.41964 16.186C6.82418 16.3486 7.81044 16.7449 9.66144 17.0334C11.2128 17.2389 12.7762 17.339 14.3411 17.3332H14.3413C15.9745 17.3395 17.6058 17.2198 19.2206 16.9751C20.1362 16.817 20.9061 16.6318 21.4551 16.4727C21.7297 16.3931 21.9487 16.3202 22.103 16.2605C22.1802 16.2306 22.2408 16.2043 22.2839 16.1822C22.3054 16.1712 22.3221 16.1614 22.3341 16.1532C22.3363 16.1517 22.3383 16.1502 22.34 16.1489ZM23.1144 19.6507C23.1249 19.6535 23.1323 19.6628 23.1329 19.6737L23.1745 20.5653C23.175 20.575 23.1698 20.584 23.1612 20.5886C22.3861 20.9992 20.9676 21.3267 19.3498 21.5506C17.731 21.7747 15.909 21.8957 14.3245 21.8915L14.3243 21.8915C12.5859 21.8748 10.7973 21.756 9.23658 21.5298C7.68008 21.3041 6.34757 20.9713 5.5181 20.5247C5.51748 20.5248 5.51685 20.5248 5.51621 20.5248C5.5024 20.5248 5.49121 20.5136 5.49121 20.4998V19.7082C5.49121 19.699 5.49621 19.6906 5.50424 19.6862C5.51227 19.6818 5.52205 19.6822 5.52974 19.6871C6.13328 20.0757 7.34317 20.421 8.89522 20.6731C10.4459 20.9249 12.3342 21.0832 14.2914 21.0998C16.2483 21.1123 18.3302 20.9374 19.983 20.6658C20.8094 20.5299 21.5279 20.37 22.0696 20.1975C22.3404 20.1112 22.5664 20.022 22.7393 19.9313C22.913 19.8403 23.0301 19.7494 23.0869 19.6613C23.0928 19.6521 23.1039 19.6479 23.1144 19.6507ZM5.54121 20.4804C6.3625 20.9227 7.68794 21.2548 9.24376 21.4803C10.8018 21.7061 12.5881 21.8248 14.3248 21.8415M5.54121 20.4804V19.7534V20.4804Z" fill="black"/>
<path fill-rule="evenodd" clip-rule="evenodd" d="M23.2337 20.3748V20.5832C23.0003 20.8665 21.5503 21.2832 19.7337 21.5832C17.9288 21.8426 16.107 21.9652 14.2837 21.9498C12.5547 21.9646 10.8273 21.8448 9.11699 21.5915C7.84079 21.444 6.59373 21.107 5.41699 20.5915V20.3498C6.22533 20.8832 8.40866 21.2832 9.14199 21.3998C10.4587 21.5998 12.1503 21.7498 14.2837 21.7498C16.5253 21.7498 18.317 21.5915 19.7003 21.3832C21.0087 21.1915 22.867 20.6998 23.2337 20.3748ZM23.2337 19.6248V19.8332C23.0003 20.1082 21.5503 20.5248 19.7337 20.8248C17.929 21.087 16.1072 21.2124 14.2837 21.1998C12.5549 21.21 10.8278 21.0902 9.11699 20.8415C7.84079 20.694 6.59373 20.357 5.41699 19.8415V19.5915C6.22533 20.1332 8.41699 20.5248 9.14199 20.6415C10.8443 20.8909 12.5632 21.0106 14.2837 20.9998C16.5253 20.9998 18.3253 20.8332 19.7003 20.6248C21.0087 20.4415 22.867 19.9498 23.2337 19.6248ZM14.317 25.3582C10.517 25.3415 7.25866 24.3248 6.56699 24.1582L7.06699 24.9415C9.40442 25.7693 11.871 26.1729 14.3503 26.1332C17.242 26.0498 19.767 25.8248 21.542 24.9582L22.0587 24.1415C20.8503 24.7165 16.7253 25.3582 14.3087 25.3582" fill="#FFFF00"/>
<path fill-rule="evenodd" clip-rule="evenodd" d="M5.40483 19.5695C5.41297 19.5651 5.42285 19.5656 5.43052 19.5708C5.8305 19.8388 6.57629 20.0713 7.31627 20.2516C8.05483 20.4316 8.78315 20.5585 9.1454 20.6168C10.8464 20.866 12.5639 20.9857 14.2831 20.9749L14.2833 20.9749C16.5237 20.9749 18.3224 20.8083 19.6962 20.6001L19.6965 20.6001C20.3494 20.5086 21.14 20.3401 21.8131 20.1539C22.1496 20.0608 22.4563 19.9634 22.7015 19.8691C22.9479 19.7744 23.1288 19.6841 23.2167 19.6062L23.2333 19.6249H23.2583V19.8332C23.2583 19.8391 23.2562 19.8449 23.2523 19.8494C23.2205 19.8869 23.1695 19.9252 23.103 19.964C23.0362 20.0031 22.9523 20.0436 22.8531 20.085C22.6547 20.168 22.3937 20.2555 22.0839 20.3437C21.464 20.5201 20.6464 20.6994 19.7373 20.8495L19.7369 20.8496C17.9311 21.112 16.108 21.2374 14.2833 21.2249C12.5534 21.235 10.8252 21.1152 9.11337 20.8663C7.83482 20.7185 6.58548 20.3809 5.40657 19.8644C5.39748 19.8604 5.3916 19.8515 5.3916 19.8415V19.5915C5.3916 19.5823 5.39669 19.5738 5.40483 19.5695ZM23.2083 19.6768C23.1047 19.7522 22.9338 19.8334 22.7194 19.9158C22.4722 20.0108 22.1638 20.1087 21.8264 20.2021C21.1516 20.3888 20.3589 20.5578 19.7035 20.6496C18.3273 20.8581 16.5261 21.0249 14.2833 21.0249C14.2833 21.0249 14.2833 21.0249 14.2833 21.0249V20.9999L14.2834 21.0249C14.2834 21.0249 14.2834 21.0249 14.2833 21.0249C12.5616 21.0357 10.8416 20.9158 9.13798 20.6663L9.13763 20.6662L9.13763 20.6662C8.77481 20.6078 8.04492 20.4806 7.30443 20.3002C6.58813 20.1257 5.85773 19.9004 5.4416 19.6376V19.5915H5.4166L5.40268 19.6123C5.41533 19.6208 5.4283 19.6292 5.4416 19.6376V19.8252C5.43661 19.823 5.43162 19.8208 5.42663 19.8186L5.4166 19.8415H5.4416V19.8252C6.61167 20.336 7.85115 20.6701 9.11947 20.8167L9.1202 20.8168L9.1202 20.8168C10.8298 21.0653 12.5556 21.185 14.2831 21.1749L14.2834 21.1749C16.1056 21.1874 17.9261 21.0622 19.7294 20.8002C19.7294 20.8002 19.7293 20.8002 19.7292 20.8002L19.7333 20.8249L19.7297 20.8001C19.7296 20.8001 19.7295 20.8001 19.7294 20.8002C20.637 20.6503 21.4526 20.4713 22.0702 20.2956C22.379 20.2077 22.6379 20.1208 22.8338 20.0389C22.9317 19.998 23.0135 19.9584 23.0778 19.9209C23.1378 19.8858 23.1812 19.8532 23.2083 19.8237V19.8332H23.2333L23.2142 19.817C23.2123 19.8192 23.2103 19.8215 23.2083 19.8237V19.6768ZM5.40475 20.3278C5.41285 20.3235 5.42269 20.3239 5.43037 20.329C5.83044 20.593 6.57427 20.8255 7.31318 21.0068C8.05078 21.1878 8.77916 21.3169 9.14544 21.3752C10.4608 21.5749 12.1512 21.7249 14.2833 21.7249C16.5238 21.7249 18.3142 21.5666 19.6962 21.3585L19.6963 21.3585C20.3493 21.2628 21.14 21.0922 21.813 20.9049C22.1495 20.8113 22.4563 20.7136 22.7015 20.6192C22.9479 20.5244 23.1288 20.4341 23.2167 20.3562L23.2333 20.3749H23.2583V20.5832C23.2583 20.589 23.2563 20.5946 23.2526 20.5991C23.2207 20.6378 23.1697 20.677 23.1032 20.7167C23.0364 20.7565 22.9524 20.7977 22.8532 20.8398C22.6548 20.9239 22.3938 21.0123 22.0839 21.101C21.464 21.2784 20.6464 21.4577 19.7373 21.6079L19.7368 21.6079C17.9308 21.8675 16.1078 21.9902 14.2833 21.9749C12.5533 21.9896 10.8247 21.8697 9.11333 21.6163C7.8348 21.4685 6.58547 21.1309 5.40657 20.6144C5.39748 20.6104 5.3916 20.6015 5.3916 20.5915V20.3499C5.3916 20.3407 5.39665 20.3322 5.40475 20.3278ZM23.2083 20.4268C23.1047 20.5022 22.9338 20.5834 22.7195 20.6659C22.4722 20.7611 22.1639 20.8592 21.8264 20.9531C21.1516 21.1409 20.3589 21.3119 19.7036 21.4079C18.319 21.6165 16.5261 21.7749 14.2833 21.7749C12.1488 21.7749 10.4558 21.6248 9.13785 21.4246L9.13767 21.4245C8.77059 21.3661 8.0407 21.2369 7.30127 21.0554C6.58588 20.8798 5.8575 20.6545 5.4416 20.3956V20.5752C6.61167 21.086 7.85115 21.4201 9.11947 21.5667L9.12026 21.5668L9.12026 21.5668C10.8293 21.8199 12.5554 21.9396 14.2831 21.9249H14.2835C16.1054 21.9402 17.926 21.8177 19.7294 21.5585C20.637 21.4086 21.4526 21.2296 22.0701 21.0529C22.379 20.9645 22.6378 20.8768 22.8337 20.7938C22.9316 20.7522 23.0134 20.7121 23.0776 20.6737C23.1377 20.6379 23.1812 20.6044 23.2083 20.574V20.4268ZM22.077 24.1249C22.0844 24.1333 22.0853 24.1455 22.0794 24.1549L21.5627 24.9716C21.5603 24.9755 21.5567 24.9786 21.5526 24.9807C19.772 25.85 17.2418 26.0749 14.3507 26.1582L14.3503 26.1582C11.868 26.198 9.39849 25.7939 7.05826 24.9651C7.053 24.9632 7.04853 24.9597 7.04553 24.955L6.54553 24.1716C6.54004 24.163 6.54033 24.152 6.54625 24.1437C6.55217 24.1354 6.56254 24.1315 6.57246 24.1339C6.65717 24.1543 6.78015 24.1874 6.9377 24.2298C8.0692 24.5342 10.984 25.3185 14.3161 25.3332C15.5219 25.3325 17.1521 25.1725 18.6325 24.9408C20.1173 24.7084 21.4471 24.4047 22.0475 24.119C22.0576 24.1142 22.0696 24.1166 22.077 24.1249ZM14.3067 25.3831C14.3072 25.3832 14.3078 25.3832 14.3083 25.3832C14.3109 25.3832 14.3135 25.3832 14.3161 25.3832M14.3067 25.3831C10.971 25.367 8.05353 24.5819 6.92435 24.278C6.80168 24.245 6.70011 24.2176 6.6214 24.1976L7.08305 24.9208C9.41522 25.7457 11.8759 26.1478 14.3494 26.1082C17.2381 26.0249 19.7552 25.8002 21.5243 24.9388L21.9923 24.199C21.3535 24.4777 20.0647 24.7673 18.6403 24.9902C17.1587 25.222 15.5262 25.3824 14.317 25.3832" fill="black"/>
<path fill-rule="evenodd" clip-rule="evenodd" d="M21.742 24.7748C21.6661 24.8872 21.5883 24.9984 21.5087 25.1081C20.6753 25.4081 19.342 25.7248 18.792 25.8081C17.3161 26.0832 15.8182 26.2226 14.317 26.2248C10.9503 26.1748 8.19199 25.5165 6.90033 24.9498L6.79199 24.7748L6.80866 24.7415L6.98366 24.8165C9.35535 25.6013 11.8355 26.009 14.3337 26.0248C15.9003 26.0248 17.4587 25.8498 18.717 25.6248C20.6503 25.2331 21.4337 24.9415 21.6753 24.8081L21.7337 24.7748H21.742ZM22.1837 24.0415C22.1288 24.1391 22.0732 24.2363 22.017 24.3331C21.567 24.4998 20.3503 24.8498 18.5753 25.0998C17.4087 25.2581 16.6837 25.4165 14.3587 25.4581C11.7008 25.4315 9.05936 25.0389 6.50866 24.2915L6.41699 24.0831C9.00853 24.7994 11.6789 25.1913 14.367 25.2498C16.492 25.2081 17.4003 25.0498 18.5587 24.8915C20.6253 24.5748 21.667 24.2248 21.9753 24.1331C21.9755 24.1276 21.9755 24.122 21.9753 24.1165L22.192 24.0331L22.1837 24.0415Z" fill="#FFFF00"/>
<path fill-rule="evenodd" clip-rule="evenodd" d="M22.2126 24.0196C22.219 24.0295 22.2176 24.0425 22.2093 24.0509L22.2034 24.0568C22.149 24.1535 22.0939 24.2498 22.0382 24.3457C22.0353 24.3508 22.0307 24.3546 22.0253 24.3566C21.5732 24.524 20.3548 24.8744 18.5784 25.1246L18.5783 25.1246C18.3977 25.1491 18.2276 25.1737 18.0605 25.1978C17.1484 25.3292 16.3251 25.4479 14.3587 25.4832L14.358 25.4832C11.6979 25.4565 9.05414 25.0636 6.50124 24.3155C6.49416 24.3134 6.48836 24.3083 6.48539 24.3016L6.39372 24.0933C6.38983 24.0844 6.39138 24.0741 6.39769 24.0668C6.404 24.0595 6.41396 24.0565 6.42326 24.0591C9.01264 24.7747 11.6808 25.1663 14.3666 25.2248C16.2588 25.1877 17.1851 25.0581 18.1841 24.9182C18.3059 24.9012 18.4288 24.884 18.5547 24.8668C20.4386 24.5781 21.4696 24.2618 21.8698 24.139C21.9001 24.1297 21.9268 24.1215 21.95 24.1145C21.9508 24.105 21.9569 24.0967 21.966 24.0932L22.1826 24.0098C22.1936 24.0056 22.2061 24.0097 22.2126 24.0196ZM22.131 24.0833L21.9999 24.1337C21.9999 24.1338 21.9999 24.1339 21.9999 24.134C21.9996 24.1448 21.9924 24.1541 21.9821 24.1571C21.9551 24.1652 21.9224 24.1752 21.884 24.187C21.4831 24.3099 20.4495 24.627 18.5621 24.9162L18.5617 24.9163C18.4358 24.9335 18.3129 24.9507 18.191 24.9678C17.1913 25.1077 16.2626 25.2377 14.3671 25.2748L14.3661 25.2749L14.3661 25.2748C11.6935 25.2166 9.03831 24.8292 6.46067 24.1213L6.52646 24.2708C9.07139 25.0154 11.7066 25.4065 14.3582 25.4332C16.3212 25.398 17.1421 25.2796 18.0534 25.1483C18.2205 25.1242 18.3907 25.0996 18.5715 25.0751C20.3341 24.8268 21.5449 24.48 21.9995 24.3128C22.0438 24.2366 22.0876 24.16 22.131 24.0833ZM6.78591 24.7303C6.79183 24.7185 6.80595 24.7133 6.81812 24.7185L6.99214 24.7931C9.36101 25.5769 11.8382 25.9841 14.3333 25.9998C15.8981 25.9998 17.4548 25.8251 18.7119 25.6003C20.6447 25.2087 21.4246 24.9177 21.6627 24.7864C21.6628 24.7863 21.6628 24.7863 21.6629 24.7863L21.7209 24.7531C21.7246 24.751 21.7289 24.7498 21.7333 24.7498H21.7416C21.7508 24.7498 21.7593 24.7549 21.7637 24.7631C21.768 24.7713 21.7675 24.7812 21.7623 24.7888C21.6863 24.9015 21.6083 25.0129 21.5285 25.1229C21.5256 25.1269 21.5215 25.13 21.5167 25.1317C20.682 25.4322 19.3476 25.7492 18.7958 25.8328C17.3186 26.1081 15.8193 26.2477 14.3166 26.2498L14.3162 26.2498C10.9472 26.1998 8.18538 25.5411 6.88989 24.9727C6.88525 24.9707 6.88134 24.9673 6.87868 24.963L6.77035 24.788C6.76578 24.7806 6.76536 24.7714 6.76924 24.7637L6.78591 24.7303ZM6.82044 24.7739L6.91709 24.9301C8.20793 25.4944 10.9588 26.15 14.3168 26.1998C15.8164 26.1976 17.3127 26.0583 18.787 25.7836L18.7879 25.7835L18.7879 25.7835C19.3347 25.7006 20.6603 25.3859 21.4926 25.0873C21.5515 25.006 21.6093 24.924 21.6661 24.8413C21.3987 24.9812 20.6031 25.2682 18.7216 25.6494L18.721 25.6495C17.4615 25.8747 15.9017 26.0498 14.3333 26.0498L14.3331 26.0498C11.8324 26.0341 9.34959 25.6259 6.97541 24.8402C6.97474 24.84 6.97407 24.8398 6.97342 24.8395L6.82044 24.7739Z" fill="black"/>
<path fill-rule="evenodd" clip-rule="evenodd" d="M22.2333 19.7998C22.2416 22.2998 20.9583 24.5498 19.9333 25.5331C18.4194 27.0096 16.3977 27.8505 14.2833 27.8832C11.7583 27.9248 9.38328 26.2832 8.74161 25.5582C7.30614 24.0359 6.48914 22.0335 6.44995 19.9415C6.59995 17.2082 7.67495 15.3081 9.22495 13.9998C10.7307 12.7603 12.6248 12.0906 14.5749 12.1082C15.7134 12.1633 16.8277 12.4557 17.8466 12.9666C18.8655 13.4775 19.7664 14.1956 20.4916 15.0748C21.5333 16.3415 21.9916 17.7165 22.2333 19.7998ZM14.2999 11.2498C16.6312 11.2498 18.8679 12.1712 20.5226 13.8134C22.1773 15.4556 23.1157 17.6853 23.1333 20.0165C23.1333 21.1732 22.9054 22.3186 22.4628 23.3873C22.0201 24.456 21.3713 25.427 20.5534 26.2449C19.7354 27.0628 18.7644 27.7117 17.6958 28.1543C16.6271 28.597 15.4817 28.8248 14.3249 28.8248C13.1682 28.8248 12.0228 28.597 10.9541 28.1543C9.88547 27.7117 8.91445 27.0628 8.09652 26.2449C7.27859 25.427 6.62977 24.456 6.18711 23.3873C5.74445 22.3186 5.51661 21.1732 5.51661 20.0165C5.50828 15.1831 9.45828 11.2498 14.2999 11.2498Z" fill="#FFFF00"/>
<path fill-rule="evenodd" clip-rule="evenodd" d="M20.5046 13.8312C18.8546 12.1937 16.6242 11.2748 14.2996 11.2749C9.47161 11.2749 5.53291 15.1971 5.54122 20.0165L5.54122 20.0165C5.54122 21.17 5.76841 22.3121 6.20982 23.3778C6.65122 24.4434 7.2982 25.4117 8.1138 26.2273C8.92941 27.0429 9.89768 27.6899 10.9633 28.1313C12.029 28.5727 13.1711 28.7999 14.3246 28.7999C15.478 28.7999 16.6201 28.5727 17.6858 28.1313C18.7514 27.6899 19.7197 27.0429 20.5353 26.2273C21.3509 25.4117 21.9979 24.4434 22.4393 23.3778C22.8807 22.3121 23.1079 21.17 23.1079 20.0165C23.0903 17.692 22.1545 15.4687 20.5046 13.8312ZM14.2996 11.2249C16.6374 11.2248 18.8805 12.1489 20.5398 13.7957C22.1992 15.4425 23.1402 17.6786 23.1579 20.0163L23.1579 20.0165C23.1579 21.1765 22.9294 22.3252 22.4855 23.3969C22.0416 24.4686 21.3909 25.4424 20.5707 26.2626C19.7504 27.0829 18.7766 27.7335 17.7049 28.1775C16.6332 28.6214 15.4846 28.8499 14.3246 28.8499C13.1645 28.8499 12.0159 28.6214 10.9442 28.1775C9.87248 27.7335 8.8987 27.0829 8.07845 26.2626C7.2582 25.4424 6.60754 24.4686 6.16362 23.3969C5.71971 22.3252 5.49123 21.1765 5.49122 20.0165C5.48288 15.1693 9.44418 11.2249 14.2996 11.2249ZM14.5738 12.1332C12.6297 12.1158 10.7416 12.7834 9.24057 14.0191C7.69623 15.3227 6.62439 17.2159 6.47457 19.942C6.51387 22.0274 7.32841 24.0235 8.75941 25.541L8.75995 25.5416L8.75994 25.5416C9.07807 25.9011 9.82935 26.491 10.817 26.9858C11.8043 27.4805 13.0253 27.8789 14.2825 27.8582H14.2825C16.3905 27.8257 18.4061 26.9873 19.9154 25.5153L19.9156 25.5151C20.936 24.5362 22.2157 22.2932 22.2079 19.8013C21.9665 17.7215 21.5092 16.3521 20.4719 15.0908C19.7489 14.2142 18.8508 13.4983 17.835 12.989C16.8194 12.4798 15.7086 12.1883 14.5738 12.1332ZM22.2329 19.7999L22.2577 19.797C22.0157 17.711 21.5564 16.3307 20.5105 15.059L20.5105 15.0589C19.7831 14.177 18.8794 13.4567 17.8574 12.9443C16.8354 12.4319 15.7177 12.1386 14.5758 12.0832L14.5758 12.0832L14.5748 12.0832C12.6187 12.0656 10.7189 12.7373 9.20867 13.9806L9.20843 13.9807C7.65301 15.2937 6.57496 17.2002 6.42459 19.9402C6.42456 19.9408 6.42455 19.9414 6.42456 19.942C6.46387 22.0401 7.28319 24.0483 8.72277 25.5751C9.04645 25.9406 9.80337 26.5339 10.7946 27.0305C11.7864 27.5275 13.0155 27.9291 14.2833 27.9082C16.404 27.8755 18.4318 27.0321 19.9502 25.5512C19.9502 25.5512 19.9502 25.5512 19.9502 25.5512L19.9329 25.5332L19.9503 25.5511C19.9503 25.5511 19.9503 25.5512 19.9502 25.5512" fill="black"/>
<path fill-rule="evenodd" clip-rule="evenodd" d="M14.3249 11.2082C19.1749 11.2082 23.1249 15.1582 23.1249 20.0082C23.1249 24.8582 19.1749 28.8082 14.3332 28.8082C9.49154 28.8082 5.5332 24.8582 5.5332 20.0082C5.5332 15.1582 9.4832 11.2082 14.3332 11.2082H14.3249ZM5.71654 19.9999C5.71654 24.7332 9.6082 28.6082 14.3249 28.6082C19.0415 28.6082 22.9332 24.7332 22.9332 19.9999C22.9332 15.2665 19.0415 11.3915 14.3249 11.3915C9.6082 11.3915 5.71654 15.2665 5.71654 19.9999Z" fill="#FFFF00"/>
<path fill-rule="evenodd" clip-rule="evenodd" d="M14.3286 11.2332C9.49436 11.2354 5.55781 15.1734 5.55781 20.0082C5.55781 24.8443 9.50494 28.7832 14.3328 28.7832C19.1607 28.7832 23.0995 24.8444 23.0995 20.0082C23.0995 15.1734 19.1629 11.2354 14.3286 11.2332ZM14.3333 11.1832C19.1931 11.1879 23.1495 15.1473 23.1495 20.0082C23.1495 24.872 19.1883 28.8332 14.3328 28.8332C9.47736 28.8332 5.50781 24.872 5.50781 20.0082C5.50781 15.1473 9.46423 11.1879 14.324 11.1832C14.3242 11.1832 14.3243 11.1832 14.3245 11.1832H14.3328C14.333 11.1832 14.3331 11.1832 14.3333 11.1832ZM5.69115 19.9998C5.69115 15.2527 9.59404 11.3665 14.3245 11.3665C19.0549 11.3665 22.9578 15.2527 22.9578 19.9998C22.9578 24.747 19.0549 28.6332 14.3245 28.6332C9.59404 28.6332 5.69115 24.747 5.69115 19.9998ZM14.3245 11.4165C9.62159 11.4165 5.74115 15.2803 5.74115 19.9998C5.74115 24.7193 9.62159 28.5832 14.3245 28.5832C19.0274 28.5832 22.9078 24.7193 22.9078 19.9998C22.9078 15.2803 19.0274 11.4165 14.3245 11.4165Z" fill="black"/>
<path fill-rule="evenodd" clip-rule="evenodd" d="M14.3337 11.9415C16.4689 11.9481 18.5147 12.7992 20.0245 14.309C21.5343 15.8188 22.3855 17.8647 22.3921 19.9999C22.3855 22.1358 21.5346 24.1825 20.0251 25.6936C18.5155 27.2048 16.4697 28.0577 14.3337 28.0665C9.91706 28.0665 6.27539 24.4332 6.27539 19.9999C6.28417 17.8654 7.13598 15.8208 8.64532 14.3115C10.1546 12.8021 12.1992 11.9503 14.3337 11.9415ZM6.46706 19.9999C6.46706 24.3332 10.0171 27.8665 14.3337 27.8665C18.6504 27.8665 22.2004 24.3249 22.2004 19.9999C22.2004 15.6665 18.6504 12.1332 14.3337 12.1332C12.2501 12.142 10.2542 12.9736 8.78084 14.447C7.30745 15.9204 6.47583 17.9162 6.46706 19.9999Z" fill="#FFFF00"/>
<path fill-rule="evenodd" clip-rule="evenodd" d="M20.0065 14.3267C18.5014 12.8216 16.4619 11.9731 14.3333 11.9665C12.2055 11.9753 10.1673 12.8245 8.6626 14.3291C7.15795 15.8338 6.30876 17.872 6.3 19.9999C6.30003 24.4194 9.93043 28.0414 14.3332 28.0415C16.4626 28.0327 18.5021 27.1824 20.007 25.676C21.5119 24.1695 22.3601 22.1292 22.3667 19.9998C22.3601 17.8713 21.5116 15.8318 20.0065 14.3267ZM14.3333 11.9415L14.3334 11.9165C16.4752 11.9231 18.5274 12.7769 20.0418 14.2913C21.5563 15.8058 22.4101 17.858 22.4167 19.9998V19.9999C22.4101 22.1425 21.5566 24.1955 20.0424 25.7113C18.5281 27.2271 16.476 28.0827 14.3334 28.0915H14.3333C9.90286 28.0915 6.25 24.447 6.25 19.9998L6.25 19.9997C6.2588 17.8586 7.11325 15.8077 8.62725 14.2938C10.1412 12.7798 12.1921 11.9253 14.3332 11.9165L14.3333 11.9415ZM14.3333 12.1082C18.6638 12.1082 22.225 15.6527 22.225 19.9998C22.225 24.3387 18.6638 27.8915 14.3333 27.8915C10.0029 27.8915 6.44167 24.347 6.44167 19.9998H6.46667L6.44167 19.9997C6.45047 17.9095 7.28472 15.9073 8.76277 14.4293C10.2408 12.9512 12.243 12.117 14.3332 12.1082L14.3333 12.1082ZM6.49167 19.9999C6.4917 24.3194 10.0305 27.8415 14.3333 27.8415C18.6362 27.8415 22.175 24.311 22.175 19.9998C22.175 15.6804 18.6363 12.1582 14.3334 12.1582C12.2563 12.1669 10.2668 12.9959 8.79813 14.4646C7.32942 15.9333 6.50043 17.9228 6.49167 19.9999Z" fill="black"/>
<path fill-rule="evenodd" clip-rule="evenodd" d="M14.6919 11.1665H13.9336V28.8582H14.6836L14.6919 11.1665Z" fill="#FFFF00"/>
<path fill-rule="evenodd" clip-rule="evenodd" d="M13.9082 11.1665C13.9082 11.1527 13.9194 11.1415 13.9332 11.1415H14.6915C14.6982 11.1415 14.7045 11.1441 14.7092 11.1488C14.7139 11.1535 14.7165 11.1599 14.7165 11.1665L14.7082 28.8582C14.7082 28.872 14.697 28.8831 14.6832 28.8831H13.9332C13.9194 28.8831 13.9082 28.872 13.9082 28.8581V11.1665ZM13.9582 11.1915V28.8331H14.6582L14.6665 11.1915H13.9582Z" fill="black"/>
<path fill-rule="evenodd" clip-rule="evenodd" d="M14.6084 11.0665H14.8001V28.9582H14.6167V11.0665H14.6084ZM13.8584 11.0665H14.0584V28.9582H13.8667V11.0665H13.8584Z" fill="#FFFF00"/>
<path fill-rule="evenodd" clip-rule="evenodd" d="M13.833 11.0665C13.833 11.0527 13.8442 11.0415 13.858 11.0415H14.058C14.0718 11.0415 14.083 11.0527 14.083 11.0665V28.9582C14.083 28.972 14.0718 28.9832 14.058 28.9832H13.8663C13.8525 28.9832 13.8413 28.972 13.8413 28.9582V11.0851C13.8362 11.0806 13.833 11.0739 13.833 11.0665ZM13.8913 11.0915V28.9332H14.033V11.0915H13.8913ZM14.583 11.0665C14.583 11.0527 14.5942 11.0415 14.608 11.0415H14.7997C14.8135 11.0415 14.8247 11.0527 14.8247 11.0665V28.9582C14.8247 28.972 14.8135 28.9832 14.7997 28.9832H14.6163C14.6025 28.9832 14.5913 28.972 14.5913 28.9582V11.0851C14.5862 11.0806 14.583 11.0739 14.583 11.0665ZM14.6413 11.0915V28.9332H14.7747V11.0915H14.6413Z" fill="black"/>
<path fill-rule="evenodd" clip-rule="evenodd" d="M23.1329 20.3499V19.6999L22.5995 19.1999L19.5745 18.3999L15.2245 17.9582L9.97454 18.2249L6.24121 19.1082L5.49121 19.6665V20.3249L7.39955 19.4665L11.9329 18.7582H16.2912L19.4912 19.1082L21.7079 19.6415L23.1329 20.3499Z" fill="#FFFF00"/>
<path fill-rule="evenodd" clip-rule="evenodd" d="M15.2239 17.9332C15.2251 17.9331 15.2264 17.9332 15.2277 17.9333L19.5777 18.375C19.579 18.3751 19.5803 18.3753 19.5815 18.3757L22.6065 19.1757C22.6105 19.1767 22.6142 19.1788 22.6172 19.1816L23.1506 19.6816C23.1556 19.6863 23.1585 19.6929 23.1585 19.6998V20.3498C23.1585 20.3585 23.154 20.3665 23.1466 20.3711C23.1393 20.3756 23.1301 20.3761 23.1223 20.3722L21.6999 19.6651L19.4875 19.1328L16.2904 18.7832H11.9354L7.40732 19.4907L5.50205 20.3476C5.49432 20.3511 5.48534 20.3504 5.47822 20.3458C5.4711 20.3412 5.4668 20.3333 5.4668 20.3248V19.6665C5.4668 19.6586 5.47053 19.6512 5.47687 19.6464L6.22687 19.0881C6.2296 19.0861 6.23272 19.0846 6.23604 19.0838L9.96937 18.2005C9.97085 18.2002 9.97235 18.1999 9.97386 18.1999L15.2239 17.9332ZM9.97867 18.2497L6.25258 19.1313L5.5168 19.6791V20.2862L7.38988 19.4437C7.39191 19.4428 7.39406 19.4421 7.39627 19.4418L11.9296 18.7335C11.9309 18.7333 11.9322 18.7332 11.9335 18.7332H16.2918C16.2922 18.7332 16.2925 18.7332 16.2929 18.7332C16.2934 18.7332 16.294 18.7333 16.2945 18.7333L19.4945 19.0833C19.4956 19.0834 19.4966 19.0836 19.4976 19.0839L21.7143 19.6172C21.7161 19.6176 21.7179 19.6183 21.7196 19.6191L23.1085 20.3095V19.7107L22.5876 19.2224L19.5706 18.4245L15.2245 17.9832L9.97867 18.2497Z" fill="black"/>
<path fill-rule="evenodd" clip-rule="evenodd" d="M14.3337 18.6498C16.4087 18.6498 18.417 18.8415 20.0253 19.1498C21.6753 19.4832 22.8337 19.8998 23.2337 20.3582V20.5915C22.7503 20.0082 21.192 19.5915 19.9837 19.3415C18.4003 19.0415 16.4003 18.8415 14.3253 18.8415C12.1503 18.8415 10.117 19.0582 8.55033 19.3582C7.30033 19.6082 5.62533 20.1082 5.41699 20.5915V20.3498C5.52533 20.0165 6.77533 19.5165 8.52533 19.1582C10.1003 18.8498 12.1337 18.6498 14.3253 18.6498H14.3337ZM14.3337 17.8915C16.242 17.8877 18.1469 18.055 20.0253 18.3915C21.6753 18.7248 22.8337 19.1415 23.2337 19.6082V19.8332C22.7503 19.2582 21.192 18.8332 19.9837 18.5915C18.4003 18.2832 16.4003 18.0915 14.3253 18.0915C12.3913 18.0854 10.4608 18.2583 8.55866 18.6082C7.35033 18.8332 5.60866 19.3498 5.41699 19.8332V19.5998C5.53366 19.2665 6.80033 18.7415 8.52533 18.4082C10.1087 18.0998 12.1337 17.8915 14.3337 17.8915ZM14.2837 14.0415C17.5587 14.0248 20.417 14.4998 21.7253 15.1665L22.2003 15.9998C21.067 15.3832 17.9837 14.7498 14.292 14.8332C11.2837 14.8582 8.06699 15.1665 6.45866 16.0332L7.02533 15.0832C8.35033 14.3915 11.467 14.0415 14.2837 14.0415Z" fill="#FFFF00"/>
<path fill-rule="evenodd" clip-rule="evenodd" d="M18.7378 14.3724C17.4517 14.1727 15.9197 14.0581 14.2834 14.0665C14.2834 14.0665 14.2833 14.0665 14.2833 14.0665M18.7378 14.3724C20.02 14.5716 21.0559 14.8553 21.7069 15.1854L18.7378 14.3724ZM21.7069 15.1854L22.1359 15.938C21.5503 15.6408 20.525 15.3448 19.2092 15.1293C17.8337 14.9041 16.1385 14.7665 14.2912 14.8081C12.7864 14.8207 11.2291 14.904 9.84655 15.0927C8.50877 15.2754 7.33222 15.5569 6.52517 15.9698L7.04277 15.102C7.70188 14.76 8.80566 14.5011 10.098 14.3277C11.3936 14.1539 12.8758 14.0665 14.2832 14.0665M14.2832 14.0165C12.874 14.0165 11.3895 14.104 10.0914 14.2782C8.79415 14.4522 7.68 14.713 7.01337 15.061C7.00926 15.0631 7.00584 15.0664 7.00346 15.0703L6.4368 16.0203C6.43104 16.03 6.43243 16.0423 6.44021 16.0504C6.44799 16.0586 6.46023 16.0605 6.47013 16.0552C7.27021 15.624 8.47279 15.3307 9.85332 15.1423C11.2332 14.9539 12.7883 14.8706 14.2918 14.8581L14.2922 14.8581C16.1365 14.8165 17.8287 14.9539 19.2011 15.1786C20.5743 15.4035 21.6251 15.7155 22.188 16.0218C22.1978 16.0271 22.21 16.0253 22.2178 16.0173C22.2256 16.0093 22.2272 15.9971 22.2217 15.9874L21.7467 15.1541C21.7442 15.1499 21.7406 15.1464 21.7363 15.1442C21.0786 14.8091 20.0338 14.5232 18.7454 14.323C17.4565 14.1228 15.9219 14.0081 14.2832 14.0165ZM20.0203 18.416C18.1434 18.0798 16.2401 17.9127 14.3333 17.9165L14.3333 17.8915V17.9165C12.1347 17.9165 10.1113 18.1247 8.52971 18.4327L8.52968 18.4327C7.66832 18.5991 6.92192 18.8133 6.37677 19.0272C6.10412 19.1342 5.88249 19.2409 5.72217 19.3411C5.642 19.3912 5.57771 19.4393 5.53016 19.4847C5.48404 19.5287 5.45502 19.5688 5.4416 19.6042V19.7386C5.46791 19.7026 5.50125 19.6672 5.54044 19.6323C5.61048 19.5699 5.70052 19.5083 5.80599 19.4478C6.01692 19.3268 6.2919 19.2093 6.59779 19.1002C7.2097 18.882 7.94851 18.6963 8.55369 18.5836L8.55375 18.5836C10.4574 18.2334 12.3894 18.0604 14.325 18.0665C16.4014 18.0665 18.403 18.2583 19.988 18.5669L19.9882 18.567C20.5929 18.6879 21.2858 18.8548 21.8883 19.0637C22.1896 19.1681 22.4688 19.2832 22.7033 19.4085C22.9112 19.5196 23.0852 19.6394 23.2083 19.768V19.6175C23.0108 19.3917 22.6287 19.1751 22.0891 18.9732C21.545 18.7697 20.8444 18.5825 20.0203 18.416ZM14.3332 17.8665C16.2431 17.8626 18.1494 18.0301 20.0293 18.3669L20.0299 18.367C20.8556 18.5338 21.5591 18.7216 22.1066 18.9264C22.6531 19.1308 23.0479 19.3534 23.2522 19.5919C23.2561 19.5964 23.2583 19.6022 23.2583 19.6081V19.8331C23.2583 19.8436 23.2517 19.853 23.2418 19.8566C23.232 19.8602 23.2209 19.8573 23.2141 19.8492C23.0962 19.709 22.9114 19.5764 22.6797 19.4526C22.4483 19.3289 22.1717 19.2148 21.872 19.1109C21.2724 18.9031 20.582 18.7367 19.9784 18.616C18.3969 18.308 16.3985 18.1165 14.3249 18.1165H14.3249C12.3924 18.1104 10.4634 18.2832 8.56279 18.6327C7.95964 18.745 7.22349 18.9301 6.61458 19.1473C6.31005 19.2559 6.03816 19.3723 5.83086 19.4912C5.72721 19.5506 5.6403 19.6103 5.57369 19.6696C5.50688 19.7291 5.4618 19.787 5.43984 19.8424C5.43542 19.8535 5.4237 19.86 5.41191 19.8577C5.40013 19.8554 5.3916 19.8451 5.3916 19.8331V19.5998C5.3916 19.597 5.39208 19.5942 5.39301 19.5916C5.40944 19.5446 5.44511 19.4967 5.49565 19.4485C5.54644 19.4 5.61373 19.3499 5.69567 19.2987C5.85957 19.1962 6.08429 19.0883 6.35851 18.9807C6.90711 18.7654 7.65655 18.5505 8.52019 18.3836C10.1052 18.0749 12.1318 17.8665 14.3332 17.8665ZM14.3249 18.6748C12.1347 18.6748 10.1031 18.8747 8.52986 19.1827C7.65584 19.3616 6.9073 19.5759 6.36419 19.7867C6.09254 19.8921 5.87303 19.9964 5.71509 20.0946C5.63612 20.1437 5.57313 20.1909 5.52685 20.2356C5.48187 20.279 5.45403 20.3186 5.4416 20.3539V20.4998C5.5157 20.3996 5.64341 20.302 5.8058 20.2084C6.01346 20.0886 6.28297 19.9724 6.58417 19.8638C7.1867 19.6466 7.91921 19.4588 8.54503 19.3336L8.54523 19.3336C10.1135 19.0333 12.1484 18.8165 14.3249 18.8165C16.4014 18.8165 18.403 19.0166 19.9879 19.3169L19.9883 19.317C20.5929 19.4421 21.2858 19.609 21.8883 19.8179C22.1896 19.9223 22.4688 20.0374 22.7033 20.1632C22.9112 20.2748 23.0852 20.3954 23.2083 20.5256V20.3676C23.0108 20.1459 22.6286 19.9313 22.0891 19.7305C21.545 19.528 20.8443 19.3409 20.0201 19.1743C18.4135 18.8664 16.4068 18.6748 14.3333 18.6748H14.3249ZM8.52013 19.1336C10.0969 18.8249 12.1319 18.6248 14.3249 18.6248H14.3333C16.4097 18.6248 18.4196 18.8166 20.0296 19.1253L20.0299 19.1253C20.8556 19.2921 21.5591 19.4799 22.1066 19.6837C22.653 19.887 23.0477 20.1075 23.2521 20.3417C23.2561 20.3463 23.2583 20.3521 23.2583 20.3581V20.5915C23.2583 20.602 23.2517 20.6114 23.2417 20.615C23.2318 20.6186 23.2207 20.6155 23.214 20.6074C23.0961 20.4652 22.9113 20.3316 22.6796 20.2073C22.4483 20.0831 22.1717 19.969 21.872 19.8651C21.2725 19.6573 20.5821 19.4909 19.9784 19.366C18.3967 19.0663 16.3984 18.8665 14.3249 18.8665C12.1515 18.8665 10.1198 19.083 8.55473 19.3827C7.93057 19.5075 7.20064 19.6947 6.60112 19.9108C6.30128 20.0189 6.03484 20.134 5.83079 20.2517C5.62535 20.3702 5.48816 20.4886 5.43956 20.6014C5.43487 20.6123 5.42316 20.6184 5.41155 20.616C5.39993 20.6136 5.3916 20.6033 5.3916 20.5915V20.3498C5.3916 20.3472 5.39201 20.3446 5.39283 20.3421C5.40815 20.2949 5.44272 20.2473 5.49213 20.1996C5.54178 20.1517 5.60789 20.1024 5.68869 20.0521C5.85028 19.9517 6.07295 19.8461 6.3461 19.74C6.89255 19.5279 7.64398 19.313 8.51992 19.1337L8.52013 19.1336Z" fill="black"/>
<path fill-rule="evenodd" clip-rule="evenodd" d="M14.3337 14.7248C16.0437 14.696 17.7529 14.8159 19.4421 15.0832C20.7754 15.3332 22.0504 15.6998 22.2337 15.8998L22.3754 16.1498C21.9337 15.8665 20.8254 15.5415 19.4087 15.2748C17.9921 15.0082 16.1837 14.9165 14.3254 14.9248C12.2171 14.9165 10.5754 15.0248 9.17539 15.2748C8.2103 15.4101 7.2733 15.6999 6.40039 16.1332L6.54206 15.8748C7.04206 15.6248 7.81706 15.3165 9.13372 15.0748C10.5921 14.8082 12.2504 14.7332 14.3337 14.7248ZM14.3337 13.9748C16.1171 13.9582 17.8837 14.0582 19.2587 14.3082C20.1496 14.4404 21.0117 14.7222 21.8087 15.1415L22.0171 15.4748C21.6671 15.0832 20.3504 14.7082 19.1754 14.5082C17.8087 14.2665 16.1171 14.1748 14.3337 14.1582C12.6737 14.1434 11.0152 14.266 9.37539 14.5248C8.51796 14.6443 7.68519 14.9003 6.90872 15.2832L7.09206 15.0082C7.57539 14.7582 8.35872 14.5248 9.34206 14.3332C10.9927 14.0709 12.6625 13.9483 14.3337 13.9665V13.9748ZM18.7004 23.6665C17.256 23.4164 15.791 23.3048 14.3254 23.3332C8.86706 23.3998 7.10872 24.4582 6.89206 24.7748L6.47539 24.1082C7.87539 23.1082 10.8421 22.5415 14.3587 22.5915C16.1837 22.6248 17.7587 22.7498 19.0754 23.0082L18.7004 23.6748" fill="#FFFF00"/>
<path fill-rule="evenodd" clip-rule="evenodd" d="M9.34602 14.3578C8.36745 14.5486 7.58938 14.7803 7.10888 15.0274L6.9802 15.2205C7.73524 14.8588 8.54177 14.6157 9.37133 14.5001C11.0124 14.2411 12.6722 14.1184 14.3336 14.1332L14.3336 14.1332C16.1173 14.1499 17.8106 14.2415 19.1793 14.4836C19.7676 14.5837 20.3917 14.7277 20.9129 14.8959C21.1735 14.9799 21.4088 15.0702 21.6012 15.1642C21.719 15.2218 21.8215 15.2812 21.9041 15.3419L21.7907 15.1605C20.9978 14.7442 20.1405 14.4644 19.2547 14.3329L19.2539 14.3328L19.2539 14.3328C17.881 14.0832 16.1161 13.9832 14.3336 13.9999C14.3269 13.9999 14.3205 13.9973 14.3157 13.9926C14.3153 13.9922 14.3149 13.9918 14.3145 13.9913C12.651 13.9742 10.989 14.0968 9.34602 14.3578ZM14.3518 13.9497C14.3473 13.9447 14.3408 13.9416 14.3336 13.9415C12.661 13.9233 10.9898 14.0461 9.33775 14.3085L9.33774 14.3085L9.33688 14.3087C8.35289 14.5004 7.56674 14.7343 7.08018 14.986C7.07642 14.9879 7.07322 14.9908 7.07087 14.9943L6.88753 15.2693C6.88126 15.2787 6.88208 15.2912 6.88955 15.2997C6.89701 15.3082 6.90924 15.3106 6.91939 15.3056C7.69346 14.924 8.52366 14.6687 9.37845 14.5496L9.37845 14.5496L9.3789 14.5496C11.0174 14.2909 12.6744 14.1684 14.3331 14.1832C16.116 14.1999 17.806 14.2915 19.1706 14.5328L19.1708 14.5328C19.7574 14.6327 20.3791 14.7762 20.8975 14.9434C21.1568 15.0271 21.3897 15.1165 21.5793 15.2092C21.7694 15.3021 21.9138 15.3973 21.998 15.4915C22.0067 15.5012 22.0213 15.5026 22.0317 15.4948C22.0421 15.4871 22.0447 15.4726 22.0379 15.4616L21.8295 15.1283C21.8272 15.1245 21.8239 15.1215 21.82 15.1194C21.0206 14.6988 20.1559 14.4162 19.2624 14.2835C17.8901 14.0341 16.1294 13.9339 14.3518 13.9497ZM19.4374 15.1078C17.7498 14.8408 16.0421 14.721 14.3338 14.7499L14.3333 14.7249L14.3334 14.7499C12.2504 14.7582 10.5939 14.8332 9.13783 15.0994C7.82947 15.3396 7.05782 15.6455 6.55983 15.8937L6.45992 16.0759C7.31481 15.6608 8.22961 15.3822 9.17107 15.2502C10.573 14.9999 12.2161 14.8915 14.325 14.8999C16.1839 14.8915 17.994 14.9832 19.413 15.2503C20.1219 15.3837 20.754 15.5318 21.2644 15.6821C21.7167 15.8153 22.0752 15.9508 22.3067 16.08L22.213 15.9148C22.1927 15.8934 22.1563 15.868 22.1036 15.8396C22.0497 15.8106 21.9806 15.7793 21.898 15.7462C21.7329 15.6803 21.5155 15.6081 21.2618 15.5343C20.7544 15.3867 20.1033 15.2327 19.4374 15.1078ZM14.3331 14.6999C12.2495 14.7082 10.5894 14.7832 9.12884 15.0503L9.12882 15.0503C7.80999 15.2923 7.03273 15.6014 6.53049 15.8525C6.52594 15.8548 6.52219 15.8584 6.51975 15.8628L6.37808 16.1212C6.37283 16.1307 6.3744 16.1426 6.38197 16.1505C6.38953 16.1584 6.40133 16.1604 6.41112 16.1556C7.28162 15.7235 8.21604 15.4345 9.17847 15.2996L9.17847 15.2996L9.1794 15.2995C10.5774 15.0498 12.2174 14.9415 14.3249 14.9499H14.3251C16.1829 14.9415 17.9894 15.0332 19.4037 15.2994C20.1115 15.4326 20.7419 15.5804 21.2502 15.7301C21.7593 15.88 22.1439 16.0313 22.3615 16.1709C22.3712 16.1771 22.3838 16.1759 22.3922 16.168C22.4005 16.1601 22.4024 16.1475 22.3968 16.1375L22.2551 15.8875C22.2542 15.8859 22.253 15.8844 22.2518 15.883C22.2259 15.8548 22.1829 15.8256 22.1273 15.7956C22.0711 15.7653 22.0001 15.7332 21.9166 15.6998C21.7494 15.633 21.5303 15.5603 21.2757 15.4863C20.7665 15.3381 20.1136 15.1837 19.4463 15.0586L19.4463 15.0586L19.4456 15.0585C17.755 14.791 16.0444 14.671 14.3331 14.6999ZM6.5087 24.1149L6.89383 24.7311C6.96474 24.6477 7.11523 24.5323 7.36549 24.4032C7.64799 24.2574 8.06038 24.0927 8.63615 23.9361C9.78769 23.6229 11.594 23.3415 14.3247 23.3082C14.3247 23.3082 14.3247 23.3082 14.3247 23.3082L14.325 23.3332L14.3245 23.3082C14.3246 23.3082 14.3246 23.3082 14.3247 23.3082C15.7874 23.2799 17.2495 23.3909 18.6911 23.6396L18.6782 23.6626C18.6735 23.6709 18.6741 23.6807 18.6789 23.6882C17.2415 23.4405 15.7838 23.33 14.3255 23.3582L14.3253 23.3582C11.5976 23.3915 9.79564 23.6726 8.64927 23.9844C8.07608 24.1403 7.66712 24.3038 7.38842 24.4476C7.10859 24.592 6.9628 24.7152 6.9123 24.789C6.90754 24.7959 6.89958 24.8 6.89115 24.7999C6.88271 24.7997 6.87494 24.7953 6.87047 24.7881L6.4538 24.1214C6.4468 24.1102 6.44972 24.0955 6.46047 24.0878C7.16475 23.5848 8.26052 23.1922 9.6182 22.9316C10.9764 22.6708 12.599 22.5415 14.3587 22.5665L14.3588 22.5665C16.1845 22.5999 17.7611 22.7249 19.0798 22.9837C19.0877 22.9852 19.0943 22.9904 19.0977 22.9977C19.1011 23.005 19.1007 23.0135 19.0968 23.0204L18.7218 23.6871C18.715 23.6991 18.6998 23.7034 18.6877 23.6966C18.684 23.6945 18.681 23.6916 18.6789 23.6882M19.0362 23.0261L18.6911 23.6396L19.0362 23.0261ZM19.0362 23.0261C19.0476 23.0283 19.0589 23.0305 19.0702 23.0327L19.075 23.0082L19.0532 22.9959L19.0362 23.0261ZM19.0362 23.0261C17.7285 22.7726 16.1665 22.6496 14.358 22.6165L14.3583 22.5915L14.3579 22.6165C14.3579 22.6165 14.3579 22.6165 14.358 22.6165C12.601 22.5915 10.9819 22.7206 9.62763 22.9807C8.28519 23.2384 7.20515 23.6245 6.5087 24.1149" fill="black"/>
<path fill-rule="evenodd" clip-rule="evenodd" d="M14.2999 23.2415C15.8165 23.2665 17.2999 23.3249 18.7415 23.5915L18.6415 23.7749C17.3082 23.5249 15.8749 23.4415 14.3082 23.4415C12.2832 23.4249 10.2499 23.6165 8.47487 24.1249C7.91654 24.2832 6.99154 24.6415 6.89154 24.9415L6.79154 24.7749C6.82487 24.5915 7.37487 24.2249 8.42487 23.9415C10.4582 23.3582 12.3582 23.2499 14.2999 23.2415ZM14.3665 22.4749C15.9674 22.4732 17.5652 22.6127 19.1415 22.8915L19.0332 23.0832C17.4939 22.8008 15.9315 22.6641 14.3665 22.6749C12.3499 22.6749 10.2082 22.8249 8.2582 23.3915C7.6332 23.5749 6.54154 23.9749 6.5082 24.2832L6.4082 24.0999C6.42487 23.8165 7.36654 23.4415 8.21654 23.1999C10.1749 22.6249 12.3249 22.4832 14.3665 22.4749Z" fill="#FFFF00"/>
<path fill-rule="evenodd" clip-rule="evenodd" d="M19.102 22.91C17.5384 22.6355 15.9538 22.4982 14.3662 22.4998C12.3253 22.5082 10.1781 22.6498 8.22319 23.2238L8.22298 23.2239C7.79869 23.3445 7.35213 23.4983 7.01 23.6569C6.83881 23.7363 6.69481 23.8164 6.59297 23.8936C6.54205 23.9322 6.50245 23.9695 6.47528 24.0049C6.45017 24.0377 6.43666 24.0676 6.43338 24.0945L6.50108 24.2186C6.51241 24.1946 6.52836 24.1709 6.5478 24.1478C6.58389 24.1048 6.6335 24.0618 6.69286 24.0192C6.81158 23.9341 6.97238 23.8487 7.15059 23.7677C7.50724 23.6056 7.9376 23.4594 8.25078 23.3675L8.25084 23.3675C10.2041 22.7999 12.3485 22.6498 14.3661 22.6498C15.9266 22.6391 17.4847 22.7749 19.0198 23.0554L19.102 22.91ZM14.3661 22.4748L14.3661 22.4498C15.9684 22.4482 17.5677 22.5878 19.1455 22.8669C19.1535 22.8683 19.1603 22.8735 19.1638 22.8808C19.1672 22.8882 19.1669 22.8967 19.1629 22.9038L19.0546 23.0955C19.0493 23.1048 19.0388 23.1097 19.0283 23.1078C17.4906 22.8257 15.9297 22.6891 14.3663 22.6998L14.3661 22.6998C12.3504 22.6998 10.2115 22.8498 8.2648 23.4155C7.95298 23.507 7.52504 23.6524 7.17128 23.8132C6.99428 23.8937 6.83686 23.9775 6.72199 24.0599C6.66454 24.1011 6.61853 24.1413 6.58609 24.1799C6.5535 24.2187 6.5361 24.2542 6.53267 24.2859C6.53149 24.2967 6.5234 24.3056 6.51268 24.3077C6.50196 24.3098 6.4911 24.3047 6.48587 24.2951L6.38587 24.1118C6.38362 24.1077 6.38258 24.103 6.38286 24.0984C6.38534 24.0562 6.40483 24.0147 6.43559 23.9745C6.46643 23.9343 6.50978 23.8939 6.56276 23.8537C6.66873 23.7734 6.8164 23.6915 6.98896 23.6115C7.33431 23.4514 7.78354 23.2969 8.20921 23.1758C10.1709 22.5999 12.3236 22.4582 14.366 22.4498L14.3661 22.4748ZM14.2999 23.2165V23.2165C15.8167 23.2415 17.3018 23.2999 18.7457 23.5669C18.7536 23.5684 18.7603 23.5735 18.7637 23.5808C18.7672 23.588 18.7669 23.5964 18.7631 23.6035L18.6631 23.7868C18.6579 23.7963 18.6472 23.8014 18.6365 23.7994C17.3053 23.5498 15.8737 23.4665 14.3078 23.4665L14.3076 23.4665C12.2841 23.4499 10.2533 23.6414 8.48136 24.1489L8.4813 24.1489C8.20313 24.2278 7.83361 24.3565 7.52154 24.5027C7.36546 24.5758 7.22452 24.6529 7.11675 24.7299C7.00784 24.8078 6.93717 24.8825 6.91486 24.9494C6.91178 24.9587 6.90358 24.9653 6.89387 24.9664C6.88417 24.9674 6.87473 24.9627 6.86971 24.9544L6.76971 24.7877C6.76659 24.7825 6.76546 24.7763 6.76655 24.7704C6.77648 24.7158 6.82277 24.6537 6.89615 24.5884C6.97065 24.5222 7.07705 24.4493 7.21452 24.3738C7.48956 24.2226 7.89145 24.0595 8.41777 23.9174C10.4543 23.3332 12.3569 23.2248 14.2994 23.2165L14.2999 23.2165ZM14.2993 23.2665C12.3586 23.2748 10.4613 23.3832 8.43137 23.9655L8.43099 23.9656L8.43099 23.9656C7.90741 24.1069 7.50937 24.2688 7.2386 24.4176C7.10316 24.492 7.00018 24.5629 6.92937 24.6258C6.86289 24.6849 6.828 24.7342 6.81777 24.7706L6.8881 24.8878C6.92639 24.8203 6.99783 24.7535 7.08768 24.6893C7.19892 24.6098 7.34288 24.5312 7.50033 24.4574C7.81534 24.3098 8.18747 24.1802 8.46763 24.1008C10.2456 23.5916 12.2815 23.3998 14.3079 23.4165C15.8683 23.4165 17.2975 23.4991 18.6279 23.7469L18.7027 23.6099C17.2739 23.3489 15.8038 23.2913 14.2993 23.2665Z" fill="black"/>
<path fill-rule="evenodd" clip-rule="evenodd" d="M22.1164 24.2082L21.4664 25.2332L19.5747 23.5582L14.6914 20.2665L9.17474 17.2415L6.31641 16.2665L6.92474 15.1332L7.13307 15.0248L8.90807 15.4665L14.7747 18.4915L18.1581 20.6248L20.9997 22.6665L22.1581 23.9998L22.1164 24.2082Z" fill="#FFFF00"/>
<path fill-rule="evenodd" clip-rule="evenodd" d="M7.12213 15.0026C7.12753 14.9998 7.13378 14.9991 7.1397 15.0006L8.91469 15.4422C8.91657 15.4427 8.91839 15.4434 8.92012 15.4443L14.7868 18.4693C14.7874 18.4696 14.788 18.47 14.7887 18.4703L18.172 20.6037C18.1724 20.6039 18.1728 20.6042 18.1732 20.6045L21.0149 22.6462C21.0165 22.6473 21.0179 22.6486 21.0192 22.6501L22.1775 23.9834C22.1826 23.9893 22.1847 23.9971 22.1832 24.0047L22.1415 24.2131C22.1409 24.2161 22.1398 24.2189 22.1381 24.2215L21.4881 25.2465C21.4842 25.2527 21.4777 25.2569 21.4705 25.2579C21.4632 25.2589 21.4559 25.2567 21.4504 25.2519L19.56 23.578L14.679 20.2879L9.1652 17.2644L6.30892 16.2901C6.30197 16.2878 6.29641 16.2825 6.29373 16.2756C6.29104 16.2688 6.29149 16.2611 6.29496 16.2547L6.9033 15.1213C6.90568 15.1169 6.90933 15.1133 6.91379 15.111L7.12213 15.0026ZM7.1368 15.0514L6.9437 15.1518L6.35296 16.2523L9.1834 17.2178C9.18476 17.2183 9.18608 17.2189 9.18735 17.2196L14.704 20.2446C14.7047 20.2449 14.7053 20.2453 14.706 20.2458L19.5893 23.5374C19.5902 23.538 19.5911 23.5387 19.5919 23.5394L21.4616 25.195L22.0934 24.1987L22.1317 24.0069L20.9834 22.6851L18.1447 20.6456L14.7629 18.5132L8.89979 15.49L7.1368 15.0514Z" fill="black"/>
<path fill-rule="evenodd" clip-rule="evenodd" d="M6.21673 16.2915C6.71673 15.9582 10.4001 17.5915 14.2667 19.9248C18.1084 22.2582 21.7917 24.8915 21.4584 25.3832L21.3501 25.5582L21.3001 25.5998C21.3084 25.5915 21.3667 25.5165 21.3001 25.3415C21.1334 24.7998 18.5167 22.7165 14.1917 20.0998C9.96673 17.5915 6.45007 16.0748 6.1084 16.5082L6.21673 16.2915ZM22.2501 24.1998C22.5667 23.5665 19.1501 20.9915 14.9084 18.4832C10.5751 16.0248 7.44173 14.5748 6.86673 15.0082L6.75006 15.2498C6.75006 15.2582 6.75006 15.2332 6.7834 15.2082C6.8834 15.1248 7.0584 15.1248 7.1334 15.1248C8.11673 15.1415 10.9251 16.4332 14.8667 18.6915C16.6001 19.6915 22.1667 23.2748 22.1417 24.2748C22.1417 24.3582 22.1501 24.3748 22.1167 24.4248L22.2584 24.2082L22.2501 24.1998Z" fill="#FFFF00"/>
<path fill-rule="evenodd" clip-rule="evenodd" d="M9.48788 15.6384C10.8859 16.2545 12.7534 17.2321 14.9203 18.4614L14.9207 18.4616C17.0421 19.7161 18.9576 20.9875 20.3035 22.0248C20.9763 22.5433 21.5075 23.004 21.851 23.3752C22.0226 23.5606 22.1483 23.7248 22.2212 23.8636C22.2892 23.9931 22.3144 24.1065 22.2792 24.1949C22.2843 24.203 22.2843 24.2135 22.2789 24.2218L22.1404 24.4337C22.1394 24.4353 22.1383 24.437 22.1371 24.4387C22.1295 24.4501 22.1141 24.4533 22.1026 24.4457C22.0911 24.4381 22.0879 24.4227 22.0954 24.4111L22.0955 24.4109C22.0965 24.4094 22.0975 24.408 22.0984 24.4066C22.1112 24.3867 22.115 24.3745 22.1165 24.3598C22.1173 24.351 22.1174 24.3409 22.1171 24.3268C22.1169 24.3131 22.1163 24.296 22.1163 24.2748L22.1164 24.2742C22.1178 24.2173 22.0993 24.1488 22.0603 24.0693C22.0216 23.99 21.9633 23.9012 21.8873 23.8042C21.7354 23.6102 21.5144 23.3854 21.2422 23.1397C20.6978 22.6485 19.951 22.0762 19.1487 21.5035C17.5441 20.3581 15.7198 19.2127 14.8539 18.7131C12.8834 17.5842 11.1966 16.6971 9.87984 16.0902C9.22142 15.7868 8.65585 15.5536 8.19379 15.3952C7.73123 15.2367 7.37451 15.154 7.1328 15.1498C7.09526 15.1498 7.03465 15.1499 6.9713 15.1599C6.90738 15.1701 6.84391 15.1899 6.79901 15.2274C6.79869 15.2276 6.79835 15.2279 6.79801 15.2281C6.78471 15.2381 6.77879 15.2475 6.7762 15.2527C6.77492 15.2552 6.77431 15.2571 6.77393 15.2582C6.77386 15.2584 6.77352 15.2594 6.77318 15.2603C6.77308 15.2606 6.77228 15.2627 6.77085 15.2649C6.77034 15.2657 6.76762 15.27 6.76232 15.2731C6.75904 15.275 6.75365 15.2771 6.74692 15.2763C6.74005 15.2755 6.73507 15.2721 6.73206 15.2691C6.72734 15.2644 6.72591 15.2591 6.72565 15.2581C6.72564 15.2581 6.72563 15.2581 6.72563 15.2581C6.72515 15.2564 6.72497 15.255 6.72489 15.2544C6.72474 15.2531 6.72471 15.2521 6.7247 15.2518C6.72467 15.251 6.72468 15.2501 6.72468 15.2498C6.72468 15.2461 6.72553 15.2423 6.72716 15.2389L6.84383 14.9973C6.84556 14.9937 6.84812 14.9906 6.8513 14.9882C6.92985 14.929 7.04856 14.9042 7.19974 14.9072C7.35161 14.9103 7.54018 14.9414 7.76227 14.9984C8.20655 15.1123 8.78899 15.3304 9.48788 15.6384ZM22.1666 24.3022L22.2269 24.2101C22.2239 24.2034 22.2239 24.1955 22.2273 24.1886C22.2612 24.1209 22.2476 24.0213 22.177 23.8868C22.1071 23.7538 21.9847 23.5933 21.8143 23.4091C21.4736 23.041 20.945 22.5823 20.273 22.0644C18.9293 21.0288 17.0157 19.7586 14.8955 18.5048C12.7292 17.2758 10.8634 16.2993 9.46772 15.6842C8.76974 15.3765 8.1902 15.1597 7.74985 15.0468C7.52962 14.9904 7.34521 14.9601 7.19874 14.9572C7.0551 14.9543 6.95165 14.9778 6.88615 15.0246L6.82469 15.1519C6.86866 15.1302 6.91762 15.1178 6.96347 15.1105C7.03104 15.0998 7.09514 15.0998 7.13266 15.0998H7.13343C7.38339 15.1041 7.74638 15.189 8.21 15.3479C8.67423 15.507 9.24148 15.741 9.90077 16.0448C11.2194 16.6525 12.9076 17.5404 14.8788 18.6698C15.7461 19.1702 17.5719 20.3165 19.1777 21.4628C19.9806 22.0359 20.7292 22.6095 21.2757 23.1026C21.5489 23.3491 21.7722 23.5761 21.9267 23.7734C22.0039 23.872 22.0644 23.9638 22.1053 24.0473C22.1459 24.1305 22.168 24.2071 22.1663 24.2751C22.1663 24.2851 22.1665 24.294 22.1666 24.3022ZM6.2356 16.3089L6.17267 16.4347C6.18209 16.4312 6.19197 16.4281 6.20227 16.4254C6.25105 16.4124 6.31109 16.4077 6.38104 16.4102C6.52095 16.4152 6.70497 16.4493 6.92758 16.5097C7.3731 16.6306 7.97806 16.8585 8.7035 17.178C10.1547 17.817 12.091 18.8238 14.2041 20.0783L14.2043 20.0784C16.3673 21.3871 18.1035 22.5626 19.3199 23.4788C19.9281 23.9369 20.4067 24.3304 20.7439 24.6436C20.9125 24.8002 21.0461 24.937 21.1429 25.052C21.2388 25.1658 21.3007 25.2606 21.3233 25.3333C21.3495 25.4023 21.3574 25.4575 21.3561 25.5003L21.4373 25.3691C21.4532 25.3456 21.4586 25.314 21.4499 25.2715C21.4411 25.2286 21.4184 25.1769 21.381 25.1163C21.3063 24.9952 21.1764 24.8446 20.9976 24.6688C20.6404 24.3176 20.0923 23.8702 19.4129 23.3647C18.0543 22.3538 16.1738 21.1126 14.2534 19.9462C12.3208 18.78 10.4342 17.7888 8.96861 17.131C8.23572 16.802 7.60872 16.5566 7.13417 16.4144C6.89681 16.3432 6.69843 16.2981 6.54445 16.281C6.46746 16.2725 6.40228 16.2711 6.34926 16.2766C6.29949 16.2818 6.26199 16.293 6.2356 16.3089ZM6.21634 16.2915L6.20248 16.2707C6.2384 16.2467 6.28657 16.2329 6.34407 16.2269C6.40183 16.2208 6.47083 16.2226 6.54996 16.2313C6.70822 16.2489 6.90984 16.2949 7.14852 16.3665C7.62606 16.5096 8.2553 16.756 8.98908 17.0853C10.4568 17.7442 12.3452 18.7363 14.2793 19.9034C16.2005 21.0703 18.0825 22.3125 19.4427 23.3246C20.1227 23.8305 20.673 24.2795 21.0327 24.6332C21.2124 24.8098 21.3456 24.9638 21.4235 25.09C21.4625 25.1531 21.4884 25.2106 21.4989 25.2614C21.5093 25.3124 21.5045 25.3588 21.479 25.3967L21.3709 25.5713C21.3695 25.5736 21.3677 25.5756 21.3657 25.5774L21.3157 25.619C21.3054 25.6276 21.2902 25.6265 21.2812 25.6167C21.2722 25.6068 21.2725 25.5916 21.282 25.5821C21.2822 25.5819 21.2859 25.5779 21.2903 25.5692C21.2948 25.5604 21.3 25.5472 21.3032 25.5288C21.3096 25.4924 21.3083 25.4344 21.2763 25.3504C21.2761 25.3499 21.2759 25.3494 21.2758 25.3488C21.2565 25.2863 21.2003 25.1977 21.1047 25.0842C21.0096 24.9713 20.8776 24.8361 20.7099 24.6802C20.3744 24.3687 19.8973 23.9763 19.2898 23.5187C18.0751 22.6038 16.3404 21.4292 14.1785 20.1213C12.0666 18.8675 10.1322 17.8618 8.68335 17.2237C7.9588 16.9047 7.35647 16.6779 6.91448 16.5579C6.69334 16.4979 6.51357 16.465 6.37925 16.4602C6.3121 16.4578 6.25742 16.4625 6.21509 16.4737C6.17275 16.4849 6.14455 16.5022 6.12764 16.5236C6.1197 16.5337 6.10544 16.5361 6.09461 16.5293C6.08379 16.5224 6.07992 16.5084 6.08565 16.497L6.19398 16.2803L6.21634 16.2915Z" fill="black"/>
<path d="M9.05371 20.9805C9.05503 21.6705 9.19319 22.3534 9.46021 22.9896C9.72722 23.6259 10.1178 24.2029 10.6093 24.6872C11.0948 25.1801 11.673 25.5722 12.3107 25.8407C12.9484 26.1092 13.6329 26.2488 14.3248 26.2516C15.7251 26.2515 17.0681 25.6952 18.0582 24.7049C18.5479 24.218 18.9367 23.6391 19.2021 23.0014C19.4675 22.3638 19.6044 21.68 19.6049 20.9894V13.9494L9.05371 13.9316V20.9805Z" fill="white"/>
<path fill-rule="evenodd" clip-rule="evenodd" d="M9.02246 13.9004L19.6358 13.9183V20.9894C19.6354 21.6841 19.4977 22.372 19.2307 23.0134C18.9637 23.6548 18.5727 24.2371 18.08 24.727C18.08 24.727 18.08 24.7269 18.08 24.727M10.5871 24.7092C11.0755 25.205 11.6571 25.5993 12.2985 25.8693C12.94 26.1394 13.6286 26.2799 14.3246 26.2827H14.3247C15.7332 26.2826 17.0841 25.723 18.08 24.727M10.5871 24.7092C10.0928 24.222 9.69996 23.6416 9.43138 23.0017C9.16278 22.3616 9.02379 21.6746 9.02246 20.9805L9.02246 13.9004M9.08468 20.9804C9.086 21.6663 9.22334 22.3451 9.48875 22.9776C9.75418 23.61 10.1424 24.1836 10.631 24.665L10.6313 24.6653C11.1139 25.1554 11.6887 25.5451 12.3227 25.812C12.9566 26.0789 13.637 26.2177 14.3248 26.2205C15.7168 26.2203 17.0518 25.6673 18.036 24.6829L18.0361 24.6829C18.523 24.1988 18.9094 23.6233 19.1733 22.9895C19.4371 22.3556 19.5732 21.6759 19.5736 20.9893V13.9804L9.08468 13.9627V20.9804Z" fill="black"/>
<path d="M9.24902 20.9893C9.2509 21.6512 9.38383 22.3062 9.64013 22.9165C9.89644 23.5267 10.2711 24.0802 10.7424 24.5449C11.6887 25.4962 12.9738 26.0333 14.3157 26.0383C15.6552 26.039 16.9403 25.5083 17.889 24.5627C18.3587 24.0972 18.7317 23.5434 18.9865 22.9332C19.2413 22.323 19.3728 21.6684 19.3735 21.0071V14.1627H9.2668V20.9893M17.3557 16.216V20.5627L17.3468 21.016C17.3498 21.4131 17.2726 21.8067 17.1199 22.1733C16.9672 22.5399 16.742 22.8719 16.4579 23.1494C15.8927 23.7166 15.1254 24.0363 14.3246 24.0382C13.489 24.0382 12.7513 23.6827 12.2001 23.1316C11.6329 22.5663 11.3132 21.799 11.3113 20.9982V16.1982L17.3557 16.216Z" fill="#FF0000"/>
<path fill-rule="evenodd" clip-rule="evenodd" d="M9.24434 14.1404H19.3955V21.0071C19.3948 21.6713 19.2627 22.3289 19.0068 22.9418C18.7509 23.5547 18.3763 24.1109 17.9045 24.5784C16.9516 25.5282 15.6609 26.0612 14.3155 26.0605C12.9677 26.0555 11.6769 25.5161 10.7264 24.5606C10.2531 24.0939 9.87683 23.538 9.61941 22.9251C9.36196 22.3121 9.22845 21.6542 9.22656 20.9894L9.24878 20.9894H9.24434V14.1404ZM9.27101 20.9894C9.27288 21.6483 9.40522 22.3003 9.66038 22.9079C9.91555 23.5154 10.2885 24.0664 10.7577 24.5291L10.7579 24.5292C11.7001 25.4764 12.9796 26.0111 14.3155 26.016C15.6492 26.0167 16.9286 25.4884 17.8731 24.547C18.3407 24.0836 18.7121 23.5322 18.9657 22.9247C19.2194 22.3171 19.3503 21.6654 19.351 21.0071V14.1849H9.28878V20.9894H9.27101ZM11.2888 16.1759L17.3777 16.1938V20.5627L17.3777 20.5631L17.3688 21.0159C17.3688 21.0159 17.3688 21.016 17.3688 21.0161C17.3718 21.4161 17.294 21.8126 17.1402 22.1819C16.9863 22.5512 16.7595 22.8856 16.4733 23.1652C15.9039 23.7365 15.131 24.0585 14.3244 24.0605C13.4823 24.0605 12.739 23.7021 12.1842 23.1473C11.6128 22.5779 11.2908 21.805 11.2888 20.9983V16.1759ZM11.3332 16.2205V20.9982C11.3352 21.7931 11.6525 22.5547 12.2156 23.1158C12.7631 23.6633 13.4954 24.016 14.3243 24.016C15.1192 24.0141 15.8808 23.6967 16.442 23.1337L16.4422 23.1335C16.7241 22.8581 16.9476 22.5286 17.0991 22.1648C17.2507 21.801 17.3273 21.4103 17.3244 21.0162L17.3244 21.0156L17.3333 20.5627V16.2382L11.3332 16.2205Z" fill="black"/>
<path d="M9.90723 15.9494C9.91612 15.4605 10.2628 15.3449 10.2628 15.3449C10.2717 15.3449 10.645 15.4694 10.645 15.9582H9.90723" fill="#FFFF00"/>
<path d="M9.60511 15.3538L9.54289 15.9138H9.91623C9.91623 15.4516 10.2718 15.3805 10.2718 15.3805C10.2807 15.3805 10.6273 15.4782 10.6362 15.9138H11.0096L10.9385 15.3449H9.60511V15.3538ZM9.51622 15.9227H11.0273C11.054 15.9227 11.0807 15.9494 11.0807 15.9849C11.0807 16.0294 11.054 16.056 11.0273 16.056H9.51622C9.48956 16.056 9.46289 16.0294 9.46289 15.9849C9.46289 15.9494 9.48956 15.9227 9.52511 15.9227H9.51622Z" fill="#FFFF00"/>
<path fill-rule="evenodd" clip-rule="evenodd" d="M9.58265 15.3227H10.9578L11.0301 15.9005C11.0698 15.9024 11.1027 15.9404 11.1027 15.9849C11.1027 16.0373 11.07 16.0783 11.0271 16.0783H9.51599C9.47308 16.0783 9.44043 16.0373 9.44043 15.9849C9.44043 15.9401 9.47258 15.9051 9.51599 15.9009V15.9005H9.52178L9.58265 15.3526V15.3227ZM9.62575 15.3671L9.56748 15.8916H9.89404C9.89956 15.6674 9.98853 15.5341 10.0794 15.4569C10.1259 15.4173 10.1725 15.3929 10.2074 15.3783C10.2186 15.3736 10.2287 15.37 10.2371 15.3671H9.62575ZM10.2715 15.3805C10.2704 15.3746 10.2695 15.3703 10.2689 15.3671L10.2715 15.3805ZM10.304 15.3671C10.3141 15.3708 10.3265 15.3758 10.3405 15.3825C10.3759 15.3991 10.4222 15.4261 10.4685 15.4672C10.5586 15.5471 10.6476 15.6798 10.6575 15.8916H10.9842L10.9186 15.3671H10.304ZM10.6134 15.9005C10.6057 15.6976 10.5218 15.5739 10.439 15.5004C10.3964 15.4626 10.3539 15.4379 10.3215 15.4227C10.3053 15.415 10.2918 15.4098 10.2822 15.4066C10.2777 15.405 10.2742 15.4039 10.2717 15.4033C10.2694 15.4038 10.2663 15.4046 10.2625 15.4058C10.2535 15.4084 10.2404 15.4127 10.2245 15.4193C10.1928 15.4325 10.1505 15.4548 10.1082 15.4907C10.0259 15.5607 9.94164 15.6842 9.93831 15.9005H10.6134ZM9.52487 15.9449C9.50159 15.9449 9.48487 15.9616 9.48487 15.9849C9.48487 16.0215 9.50555 16.0338 9.51599 16.0338H11.0271C11.0375 16.0338 11.0582 16.0215 11.0582 15.9849C11.0582 15.9594 11.0394 15.9449 11.0271 15.9449H9.52487Z" fill="black"/>
<path d="M10.0669 15.9138C10.0669 15.6205 10.2714 15.5405 10.2714 15.5405C10.2714 15.5405 10.4758 15.6293 10.4758 15.9138H10.0669ZM9.55138 15.1138H11.0003C11.0269 15.1138 11.0536 15.1493 11.0536 15.1849C11.0536 15.2116 11.0269 15.2382 11.0003 15.2382H9.55138C9.52471 15.2382 9.49805 15.2116 9.49805 15.176C9.49805 15.1493 9.52471 15.1227 9.55138 15.1227V15.1138ZM10.1025 16.0471H10.9558C10.9825 16.0471 11.0092 16.0738 11.0092 16.1093C11.0092 16.1449 10.9825 16.1716 10.9558 16.1716H9.57805C9.54249 16.1716 9.52471 16.1449 9.52471 16.1093C9.52471 16.0738 9.54249 16.0471 9.57805 16.0471H10.1025ZM10.5469 15.1049H10.6536V15.176H10.7336V15.1049H10.8492V15.1849H10.9292V15.096H11.0358V15.2738C11.0358 15.3093 11.0181 15.3271 10.9914 15.3271H10.6003C10.5736 15.3271 10.5469 15.3093 10.5469 15.2827V15.1049ZM10.9558 15.3449L10.9825 15.9138H10.6003L10.6269 15.336H10.9558" fill="#FFFF00"/>
<path fill-rule="evenodd" clip-rule="evenodd" d="M10.9067 15.0738H11.0578V15.1274C11.0686 15.1436 11.0756 15.164 11.0756 15.1849C11.0756 15.2025 11.0682 15.2188 11.0578 15.2314V15.2738C11.0578 15.295 11.0525 15.3142 11.0401 15.3284C11.0273 15.343 11.0096 15.3493 10.9911 15.3493H10.978L11.0055 15.936H10.5768L10.6038 15.3493H10.6C10.582 15.3493 10.5638 15.3434 10.5497 15.3324C10.5354 15.3213 10.5245 15.3041 10.5245 15.2827V15.2605H9.55114C9.51006 15.2605 9.47559 15.2216 9.47559 15.176C9.47559 15.1555 9.48564 15.1368 9.49876 15.1236C9.50694 15.1155 9.5173 15.1085 9.52892 15.1044V15.0916H10.5245V15.0827H10.6756V15.0916H10.7111V15.0827H10.8711V15.0916H10.9067V15.0738ZM10.9067 15.136H10.8711V15.1627H10.9067V15.136ZM10.8267 15.136V15.2071H10.9511V15.136H11C11.0027 15.136 11.0077 15.1377 11.0134 15.143V15.2118C11.0087 15.2147 11.004 15.216 11 15.216H10.5689V15.136H10.6311V15.1982H10.7556V15.136H10.8267ZM10.7111 15.136H10.6756V15.1538H10.7111V15.136ZM10.5245 15.136H9.57336V15.1449H9.55114C9.54503 15.1449 9.53707 15.1482 9.53019 15.1551C9.52331 15.1619 9.52003 15.1699 9.52003 15.176C9.52003 15.2016 9.53889 15.216 9.55114 15.216H10.5245V15.136ZM10.5689 15.2605V15.2827C10.5689 15.2879 10.5714 15.293 10.577 15.2974C10.5829 15.3019 10.5914 15.3049 10.6 15.3049H10.9911C10.9993 15.3049 11.0038 15.3024 11.0066 15.2992C11.0098 15.2956 11.0134 15.2881 11.0134 15.2738V15.2591C11.009 15.26 11.0046 15.2605 11 15.2605H10.5689ZM10.6479 15.3582L10.6233 15.8916H10.959L10.934 15.3582H10.6479ZM10.28 15.5201L10.2711 15.5405L10.263 15.5198L10.2716 15.5164L10.28 15.5201ZM10.2707 15.5651C10.2658 15.5676 10.2591 15.5713 10.2511 15.5763C10.2333 15.5875 10.2094 15.6054 10.1854 15.632C10.1404 15.6819 10.0942 15.7635 10.0893 15.8916H10.4529C10.448 15.7678 10.4019 15.6863 10.3567 15.6352C10.3327 15.608 10.3086 15.5892 10.2908 15.5773C10.2826 15.5718 10.2757 15.5678 10.2707 15.5651ZM10.263 15.5198C10.2631 15.5198 10.263 15.5198 10.2711 15.5405C10.28 15.5201 10.28 15.5201 10.28 15.5201L10.2801 15.5201L10.2803 15.5202L10.281 15.5205C10.2815 15.5207 10.2822 15.5211 10.2831 15.5215C10.2848 15.5224 10.2873 15.5236 10.2904 15.5252C10.2966 15.5285 10.3052 15.5335 10.3154 15.5403C10.3359 15.5539 10.363 15.5752 10.39 15.6057C10.4444 15.6672 10.4978 15.7657 10.4978 15.9138V15.936H10.0445V15.9138C10.0445 15.7614 10.0978 15.6628 10.1524 15.6022C10.1796 15.5721 10.2068 15.5517 10.2273 15.5387C10.2376 15.5323 10.2463 15.5276 10.2525 15.5245C10.2556 15.523 10.2581 15.5219 10.2599 15.5211C10.2608 15.5207 10.2615 15.5204 10.262 15.5202L10.2627 15.5199L10.2629 15.5198L10.263 15.5198ZM9.55516 16.0788C9.55032 16.0848 9.5467 16.095 9.5467 16.1093C9.5467 16.1237 9.55032 16.1339 9.55516 16.1399C9.55946 16.1453 9.56617 16.1493 9.57781 16.1493H10.9556C10.9678 16.1493 10.9867 16.1349 10.9867 16.1093C10.9867 16.0838 10.9678 16.0693 10.9556 16.0693H9.57781C9.56617 16.0693 9.55946 16.0734 9.55516 16.0788ZM9.52045 16.051C9.53393 16.0342 9.55389 16.0249 9.57781 16.0249H10.9556C10.9967 16.0249 11.0311 16.0638 11.0311 16.1093C11.0311 16.1549 10.9967 16.1938 10.9556 16.1938H9.57781C9.55389 16.1938 9.53393 16.1845 9.52045 16.1677C9.50751 16.1515 9.50225 16.1305 9.50225 16.1093C9.50225 16.0882 9.50751 16.0672 9.52045 16.051Z" fill="black"/>
<path d="M9.9786 14.8116V15.1138H9.62305V14.8116H9.9786Z" fill="#FFFF00"/>
<path fill-rule="evenodd" clip-rule="evenodd" d="M9.60059 14.7894H10.0006V15.136H9.60059V14.7894ZM9.64503 14.8338V15.0916H9.95614V14.8338H9.64503Z" fill="black"/>
<path d="M9.56055 14.5804H9.66721V14.6693H9.74721V14.5804H9.85388V14.6693H9.93388V14.5804H10.0405V14.7582C10.0405 14.7938 10.0228 14.8116 9.9961 14.8116H9.61388C9.59973 14.8116 9.58617 14.8059 9.57617 14.7959C9.56617 14.7859 9.56055 14.7724 9.56055 14.7582V14.5804Z" fill="#FFFF00"/>
<path fill-rule="evenodd" clip-rule="evenodd" d="M9.58253 14.6027V14.7582C9.58253 14.7665 9.58581 14.7744 9.59164 14.7802C9.59748 14.7861 9.60539 14.7893 9.61364 14.7893H9.99586C10.004 14.7893 10.0086 14.7868 10.0114 14.7836C10.0145 14.78 10.0181 14.7725 10.0181 14.7582V14.6027H9.95586V14.6916H9.83142V14.6027H9.7692V14.6916H9.64475V14.6027H9.58253ZM9.56031 14.5804V14.5582H9.6892V14.6471H9.72475V14.5582H9.87587V14.6471H9.91142V14.5582H10.0625V14.7582C10.0625 14.7795 10.0572 14.7987 10.0448 14.8129C10.0321 14.8274 10.0144 14.8338 9.99586 14.8338H9.61364C9.5936 14.8338 9.57438 14.8258 9.56022 14.8117C9.54605 14.7975 9.53809 14.7783 9.53809 14.7582V14.5804H9.56031Z" fill="black"/>
<path d="M10.2363 14.7227C10.2363 14.6693 10.3163 14.6693 10.3163 14.7227V14.8649H10.2363V14.7227Z" fill="black"/>
<path d="M9.76465 14.9182C9.76465 14.8649 9.83576 14.8649 9.83576 14.9182V15.0249H9.76465V14.9182Z" fill="black"/>
<path d="M13.6758 20.216C13.6742 20.4037 13.7441 20.5848 13.8714 20.7227C13.9307 20.7891 14.0033 20.8424 14.0844 20.8791C14.1655 20.9158 14.2534 20.9352 14.3425 20.936C14.5291 20.936 14.698 20.8472 14.8136 20.7227C14.9408 20.5848 15.0108 20.4037 15.0091 20.216V19.256H13.6758V20.216Z" fill="#003399"/>
<path d="M13.9868 19.7539C14.0605 19.7539 14.1202 19.6942 14.1202 19.6205C14.1202 19.5469 14.0605 19.4872 13.9868 19.4872C13.9132 19.4872 13.8535 19.5469 13.8535 19.6205C13.8535 19.6942 13.9132 19.7539 13.9868 19.7539Z" fill="white"/>
<path d="M14.7251 19.7539C14.7988 19.7539 14.8585 19.6942 14.8585 19.6205C14.8585 19.5469 14.7988 19.4872 14.7251 19.4872C14.6515 19.4872 14.5918 19.5469 14.5918 19.6205C14.5918 19.6942 14.6515 19.7539 14.7251 19.7539Z" fill="white"/>
<path d="M14.3511 20.1094C14.4247 20.1094 14.4844 20.0497 14.4844 19.976C14.4844 19.9024 14.4247 19.8427 14.3511 19.8427C14.2775 19.8427 14.2178 19.9024 14.2178 19.976C14.2178 20.0497 14.2775 20.1094 14.3511 20.1094Z" fill="white"/>
<path d="M13.9868 20.4827C14.0605 20.4827 14.1202 20.423 14.1202 20.3494C14.1202 20.2758 14.0605 20.2161 13.9868 20.2161C13.9132 20.2161 13.8535 20.2758 13.8535 20.3494C13.8535 20.423 13.9132 20.4827 13.9868 20.4827Z" fill="white"/>
<path d="M14.7251 20.4827C14.7988 20.4827 14.8585 20.423 14.8585 20.3494C14.8585 20.2758 14.7988 20.2161 14.7251 20.2161C14.6515 20.2161 14.5918 20.2758 14.5918 20.3494C14.5918 20.423 14.6515 20.4827 14.7251 20.4827Z" fill="white"/>
</g>
<defs>
<clipPath id="clip0_8424_43204">
<rect width="40" height="40" rx="20" fill="white"/>
</clipPath>
</defs>
</svg>
