<svg width="56" height="56" viewBox="0 0 56 56" fill="none" xmlns="http://www.w3.org/2000/svg">
<g clip-path="url(#clip0_3318_25167)">
<path d="M0 28.0001C0 40.039 7.5985 50.3022 18.2607 54.2584L20.6956 28L18.2607 1.7417C7.5985 5.69801 0 15.9611 0 28.0001Z" fill="#6DA544"/>
<path d="M56 28C56 12.5361 43.4639 0 28 0C24.5751 0 21.2941 0.616109 18.2607 1.74158V54.2584C21.2941 55.384 24.5751 56 28 56C43.4639 56 56 43.4639 56 28Z" fill="#D80027"/>
<path d="M18.2606 37.7389C23.6393 37.7389 27.9996 33.3786 27.9996 27.9998C27.9996 22.6211 23.6393 18.2607 18.2606 18.2607C12.8818 18.2607 8.52148 22.6211 8.52148 27.9998C8.52148 33.3786 12.8818 37.7389 18.2606 37.7389Z" fill="#FFDA44"/>
<path d="M12.7822 23.1304V29.2173C12.7822 32.2428 15.2349 34.6956 18.2605 34.6956C21.2861 34.6956 23.7388 32.243 23.7388 29.2173V23.1304H12.7822Z" fill="#D80027"/>
<path d="M18.2607 31.0435C17.2538 31.0435 16.4346 30.2243 16.4346 29.2174V26.7827H20.0867V29.2175C20.0867 30.2243 19.2675 31.0435 18.2607 31.0435Z" fill="#F0F0F0"/>
</g>
<defs>
<clipPath id="clip0_3318_25167">
<rect width="56" height="56" fill="white"/>
</clipPath>
</defs>
</svg>
