<svg width="56" height="56" viewBox="0 0 56 56" fill="none" xmlns="http://www.w3.org/2000/svg">
<g clip-path="url(#clip0_3318_25208)">
<path d="M28 56C43.464 56 56 43.464 56 28C56 12.536 43.464 0 28 0C12.536 0 0 12.536 0 28C0 43.464 12.536 56 28 56Z" fill="#F0F0F0"/>
<path d="M54.2584 37.7391C55.384 34.7058 56 31.425 56 28.0001C56 24.5751 55.384 21.2943 54.2584 18.261H1.74158C0.616109 21.2943 0 24.5751 0 28.0001C0 31.425 0.616109 34.7058 1.74158 37.7391L28 40.1739L54.2584 37.7391Z" fill="#0052B4"/>
<path d="M27.9996 55.9999C40.0386 55.9999 50.3018 48.4014 54.2581 37.739H1.74121C5.69741 48.4014 15.9606 55.9999 27.9996 55.9999Z" fill="#D80027"/>
</g>
<defs>
<clipPath id="clip0_3318_25208">
<rect width="56" height="56" fill="white"/>
</clipPath>
</defs>
</svg>
