<svg width="40" height="40" viewBox="0 0 40 40" fill="none" xmlns="http://www.w3.org/2000/svg">
<g clip-path="url(#clip0_8424_43347)">
<path d="M-7 0H46.3333V40H-7V0Z" fill="#20603D"/>
<path d="M-7 0H46.3333V30H-7V0Z" fill="#FAD201"/>
<path d="M-7 0H46.3333V20H-7V0Z" fill="#00A1DE"/>
<path d="M42.0339 10.4502L37.5672 10.7113L41.8117 12.1224L37.4339 11.2169L41.1728 13.6724L37.1728 11.6613L40.1395 15.0113L36.8005 12.0391L38.8117 16.0391L36.3505 12.3002L37.2506 16.6725L35.845 12.4336L35.5839 16.9002L35.5283 10.3947L42.0339 10.4502Z" fill="#E5BE01"/>
<path d="M35.5843 12.3557C36.6367 12.3557 37.4898 11.5026 37.4898 10.4502C37.4898 9.39777 36.6367 8.54462 35.5843 8.54462C34.5319 8.54462 33.6787 9.39777 33.6787 10.4502C33.6787 11.5026 34.5319 12.3557 35.5843 12.3557Z" fill="#E5BE01"/>
<path fill-rule="evenodd" clip-rule="evenodd" d="M35.584 8.63909C34.5837 8.63909 33.7729 9.44995 33.7729 10.4502C33.7729 11.4505 34.5837 12.2613 35.584 12.2613C36.5842 12.2613 37.3951 11.4505 37.3951 10.4502C37.3951 9.44995 36.5842 8.63909 35.584 8.63909ZM33.584 10.4502C33.584 9.34563 34.4794 8.4502 35.584 8.4502C36.6886 8.4502 37.584 9.34563 37.584 10.4502C37.584 11.5548 36.6886 12.4502 35.584 12.4502C34.4794 12.4502 33.584 11.5548 33.584 10.4502Z" fill="#00A1DE"/>
</g>
<defs>
<clipPath id="clip0_8424_43347">
<rect width="40" height="40" rx="20" fill="white"/>
</clipPath>
</defs>
</svg>
