<svg width="40" height="40" viewBox="0 0 40 40" fill="none" xmlns="http://www.w3.org/2000/svg">
<g clip-path="url(#clip0_8424_43168)">
<path fill-rule="evenodd" clip-rule="evenodd" d="M-7 0H46.3333V40H-7V0Z" fill="#CE1126"/>
<path fill-rule="evenodd" clip-rule="evenodd" d="M-7 0H19.6667V20H-7V0Z" fill="#002B7F"/>
<path fill-rule="evenodd" clip-rule="evenodd" d="M7.99974 19.1083L6.27474 17.9417L4.61641 19.1167L5.15807 17.0417L3.57474 15.775L5.61641 15.65L6.29141 13.6833L7.02474 15.6833L9.02474 15.7417L7.44141 17.1L7.99974 19.1083ZM7.69974 5.30833L6.31641 4.41667L4.98307 5.28333L5.34974 3.61667L4.13307 2.55833L5.74974 2.425L6.34974 0.875L6.96641 2.43333L8.55807 2.575L7.33307 3.69167L7.69974 5.30833ZM1.61641 10.2667L0.283073 9.35L-1.10859 10.2667L-0.67526 8.65L-1.93359 7.58333L-0.333594 7.5L0.249739 5.91667L0.816406 7.49167L2.44974 7.58333L1.19974 8.625L1.61641 10.2667ZM13.8331 9.16667L12.5497 8.33333L11.2997 9.16667L11.6664 7.64167L10.4997 6.65833L12.0247 6.53333L12.5497 5.1L13.1331 6.55L14.6081 6.63333L13.4664 7.65833L13.8331 9.16667ZM10.2414 12.7833L9.38307 12.25L8.52474 12.8L8.74974 11.775L7.98307 11.0833L8.98307 11L9.3664 10.0333L9.77474 11L10.7664 11.0833L10.0081 11.775L10.2414 12.7833Z" fill="white"/>
</g>
<defs>
<clipPath id="clip0_8424_43168">
<rect width="40" height="40" rx="20" fill="white"/>
</clipPath>
</defs>
</svg>
