<svg width="40" height="40" viewBox="0 0 40 40" fill="none" xmlns="http://www.w3.org/2000/svg">
<g clip-path="url(#clip0_8424_43197)">
<path fill-rule="evenodd" clip-rule="evenodd" d="M-10 0H50V40H-10V0Z" fill="#199D00"/>
<path fill-rule="evenodd" clip-rule="evenodd" d="M5.11675 11.3359C5.05425 12.2734 4.9605 13.914 5.76519 14.0859C6.72613 14.1796 6.19488 12.4609 6.54644 12.1484C6.60894 11.9921 6.72613 11.9921 6.73394 12.1874V13.6484C6.73394 14.1171 7.04644 14.2578 7.28081 14.3515C7.53081 14.3359 7.70269 14.3515 7.79644 14.5859L7.92144 17.1093C7.92144 17.1093 8.49956 17.2812 8.53081 15.6953C8.55425 14.7578 8.34332 13.9843 8.46832 13.8046C8.46832 13.6249 8.70269 13.6171 8.85894 13.7031C9.10894 13.8749 9.21832 14.0937 9.60894 14.0156C10.2027 13.8437 10.5621 13.5546 10.5699 13.1015C10.5582 12.6562 10.4655 12.2168 10.2964 11.8046C10.3277 11.7265 10.1871 11.5156 10.2183 11.4374C10.3199 11.6093 10.4839 11.5937 10.5152 11.4374C10.4136 11.1093 10.2574 10.789 10.0074 10.6562C9.79644 10.4687 9.48394 10.4999 9.38238 10.8906C9.31988 11.3359 9.53863 11.8593 9.85894 12.2968C9.92925 12.4609 10.023 12.7421 9.98394 12.9921C9.81207 13.0937 9.64019 13.0468 9.49175 12.8984C9.49175 12.8984 9.023 12.5468 9.023 12.4609C9.148 11.664 9.04644 11.5703 8.97613 11.3437C8.92925 11.039 8.78082 10.9374 8.66363 10.7343C8.54644 10.6093 8.39019 10.6093 8.31207 10.7343C8.10113 11.0937 8.20269 11.8671 8.35113 12.2187C8.4605 12.539 8.62457 12.7421 8.54644 12.7421C8.48394 12.9218 8.35113 12.8749 8.24956 12.664C8.13523 12.2201 8.08007 11.763 8.0855 11.3046C8.04644 10.9453 7.99957 10.1796 7.75738 9.97651C7.61675 9.78901 7.40582 9.88276 7.32769 10.0546C7.30706 10.4036 7.3149 10.7538 7.35113 11.1015C7.50738 11.6796 7.56207 12.1953 7.64019 12.7812C7.66363 13.5703 7.18707 13.1249 7.2105 12.7265C7.31299 12.2256 7.30499 11.7084 7.18706 11.2109C7.10894 11.0078 7.023 10.9609 6.82769 10.9921C6.67925 10.9921 6.29644 11.4062 6.18706 12.1093C6.18706 12.1093 6.09331 12.4687 6.05425 12.789C5.99956 13.1484 5.76519 13.414 5.59331 12.7421C5.45269 12.2499 5.35894 11.0546 5.12456 11.3359H5.11675Z" fill="white"/>
<path fill-rule="evenodd" clip-rule="evenodd" d="M7.73438 15.1719L5.23438 16.375C5.25781 15.8047 6.41406 14.7812 7.21094 14.7734C7.71875 14.7812 7.59375 14.9687 7.72656 15.1719H7.73438Z" fill="white"/>
<path fill-rule="evenodd" clip-rule="evenodd" d="M7.28918 15.9532C5.97668 19.3516 10.3751 19.8282 10.8673 16.0938C10.9142 15.9375 11.1017 15.7891 11.1329 16.0391C11.0314 19.4219 7.72668 19.6485 7.16418 18.586C7.03185 18.2204 6.96571 17.8341 6.96886 17.4454C6.89074 16.7813 6.53918 17.0391 6.48449 17.6954C6.4298 18.0625 6.44543 18.1641 6.44543 18.5157C6.6173 21.1875 10.8751 20.0391 11.5704 17.836C11.9376 16.6172 11.5079 15.7188 11.7032 15.7188C12.1251 16.1719 12.7189 15.7813 12.8517 15.625C12.9064 15.5469 13.047 15.4922 13.1407 15.5938C13.4689 15.8282 14.047 15.7188 14.172 15.3047C14.2423 14.8907 14.297 14.4688 14.3126 14.0391C14.0392 14.1172 13.8439 14.1719 13.8204 14.2891L13.7657 14.6485C13.7423 14.7657 13.5157 14.7657 13.5001 14.6172C13.3986 14.1485 12.9767 14.0938 12.7189 14.8125C12.5548 14.9532 12.2423 14.9844 12.2111 14.7735C12.2501 14.2891 12.0548 14.2266 11.6642 14.4532L11.2892 11.625C11.4454 11.625 11.6017 11.7422 11.7501 11.5547C11.5939 11.0469 11.2423 10.0157 11.047 9.93754C10.9611 9.82817 10.8829 9.89848 10.7579 9.92973C10.5548 9.99223 10.3673 10.1641 10.4298 10.5079C10.6642 11.9766 10.8204 13.0938 11.0626 14.5704C11.1017 14.7344 10.9611 14.961 10.7736 14.9375C10.4611 14.7266 10.3829 14.2969 9.83605 14.3125C9.44543 14.3125 9.00793 14.7422 8.95324 15.1485C8.88293 15.4766 8.85949 15.8282 8.95324 16.1094C9.22668 16.4375 9.5548 16.4063 9.84386 16.336C10.0782 16.2344 10.2736 16 10.3595 16.0547C10.4142 16.125 10.3673 16.9063 9.2423 17.5C8.56261 17.8125 8.01574 17.875 7.72668 17.3204C7.54699 16.9688 7.7423 15.6485 7.28918 15.9532Z" fill="white"/>
<path fill-rule="evenodd" clip-rule="evenodd" d="M12.8908 12.4999C13.1486 12.4062 14.3986 10.9687 14.3986 10.9687L14.2111 10.8124C14.1408 10.7578 14.1486 10.6953 14.2111 10.6406C14.5236 10.4531 14.422 10.0624 14.2658 9.87494C14.1597 9.82323 14.043 9.79701 13.925 9.79837C13.807 9.79972 13.691 9.82862 13.5861 9.88276C13.3674 10.0937 13.3205 10.4296 13.4924 10.6328C13.6564 10.7109 13.8205 10.8828 13.7111 10.9765C13.1955 11.5234 11.797 12.4687 11.9611 12.4999C11.9924 12.5468 12.8595 12.5468 12.883 12.4999H12.8908ZM5.31267 17.5781C4.84392 18.3281 4.80486 19.4453 5.06267 19.7812C5.2033 19.9374 5.42986 20.0078 5.59392 19.9531C5.8908 19.8281 6.02361 19.2265 5.9533 19.0156C5.85174 18.8593 5.77361 18.8359 5.67205 18.9609C5.46892 19.3828 5.38299 19.0937 5.35955 18.8593C5.33716 18.4624 5.35811 18.0642 5.42205 17.6718C5.47674 17.3437 5.42205 17.4374 5.31267 17.5781ZM25.3986 16.3828C24.9455 15.3984 24.3127 14.4296 24.1174 14.0624C23.5085 13.1 22.8622 12.1618 22.1799 11.2499C21.6955 10.6718 22.9767 11.4921 22.0236 10.3359L21.3283 9.74994C21.172 9.64057 20.797 9.43744 20.7345 9.76557C20.7033 10.0624 20.7189 10.2187 20.7658 10.4609C20.8049 10.6171 21.0392 10.8906 21.1564 11.0468C22.7581 13.1683 24.1648 15.4301 25.3595 17.8046C25.5627 17.7031 25.5158 16.5468 25.3986 16.3828Z" fill="white"/>
<path fill-rule="evenodd" clip-rule="evenodd" d="M23.4064 19.6484C23.3126 19.75 23.6251 20.1797 24.0314 20.1797C24.7033 20.1016 25.297 19.7266 25.8439 18.7266C26.0661 18.3939 26.2079 18.0141 26.258 17.6172C26.3241 15.7206 26.1721 13.8228 25.8048 11.9609C25.7814 11.8047 25.8048 11.6172 25.8205 11.5703C25.8673 11.5156 26.0158 11.5703 26.0939 11.4375C26.2111 11.3203 25.7814 10.3438 25.547 9.97657C25.4689 9.8047 25.4298 9.69532 25.2892 9.9922C25.1195 10.3198 25.0387 10.6861 25.0548 11.0547C25.3751 13.2813 25.4767 15.2266 25.6798 17.4531C25.7033 17.6719 25.672 17.9844 25.5236 18.1094C24.9341 18.7657 24.2126 19.2902 23.4064 19.6484ZM32.508 19.6406C32.0236 19.9219 32.0236 20.2422 32.4142 20.25C33.0861 20.1719 33.883 20.1172 34.4298 19.2891C34.623 18.899 34.7346 18.4737 34.758 18.0391C34.8563 16.1717 34.7331 14.2993 34.3908 12.4609C34.3751 12.3047 34.3048 11.9375 34.3283 11.8906C34.3751 11.7813 34.5939 11.8984 34.672 11.7734C34.7814 11.6563 34.1017 10.7813 33.8595 10.4063C33.7814 10.2344 33.7501 10.125 33.6017 10.4219C33.4443 10.7525 33.3951 11.1242 33.4611 11.4844C33.8205 13.9063 34.0861 15.7188 34.1408 17.8594C34.1095 18.0625 34.1017 18.1719 34.008 18.4297C33.797 18.6953 33.5626 19.0391 33.3439 19.2031C33.1251 19.3594 32.6564 19.5156 32.508 19.6406Z" fill="white"/>
<path fill-rule="evenodd" clip-rule="evenodd" d="M32.8669 17.4766C32.8669 16.9063 32.8748 16.4219 32.8591 15.9922C32.8541 15.6283 32.7743 15.2693 32.6248 14.9375C32.4841 14.6172 32.5701 14.3594 32.4998 14.0156C32.4373 13.6719 32.4529 13.1563 32.3591 12.7578C32.3279 12.6016 32.2498 12.0938 32.2732 12.0391C32.3123 11.9297 32.4607 12.0391 32.5388 11.9141C32.6482 11.7969 32.1482 10.5078 31.8982 10.1406C31.8123 9.97657 31.6404 10.0313 31.4451 10.2969C31.2498 10.4766 31.3201 10.875 31.3982 11.2578C31.8748 13.7813 32.2419 16.0703 32.1638 18.4688C32.1326 18.6719 32.8669 17.8594 32.8669 17.4766ZM29.2966 14.3516C28.9919 14.3359 28.3591 13.75 28.1716 13.4141C28.1409 13.332 28.1279 13.2443 28.1332 13.1568C28.1386 13.0694 28.1624 12.984 28.2029 12.9063C28.3201 12.8281 28.4919 12.75 28.6248 12.8281C28.6248 12.8281 28.7576 13.0156 28.7341 13.0391C28.8904 13.1172 28.9685 13.0781 28.9841 13.0078C28.9919 12.8906 28.9373 12.8203 28.9373 12.6953C29.0076 12.3359 29.406 12.2813 29.5623 12.5078C29.6716 12.6484 29.7185 12.9375 29.7263 13.1328C29.7263 13.2344 29.5701 13.1172 29.4685 13.1328C29.3826 13.1641 29.3591 13.2734 29.3513 13.3672C29.3357 13.625 29.3044 14.0391 29.2966 14.3438V14.3516ZM23.6873 18.1016C23.7654 17.3359 23.656 15.9688 23.6482 15.5156C23.6064 14.3503 23.5099 13.1876 23.3591 12.0313C23.2654 11.375 23.6248 12.1016 23.5779 11.7188C23.4607 11.0703 23.1013 10.625 22.6716 10.0391C22.5388 9.84376 22.5388 9.8047 22.3279 10.0859C22.0935 10.6094 22.2966 10.9766 22.3591 11.3906C22.6638 12.7344 22.8435 13.9688 22.9294 15.1953C23.0194 16.4695 23.0298 17.748 22.9607 19.0234C23.1951 19.0313 23.5544 18.6563 23.6873 18.1016Z" fill="white"/>
<path fill-rule="evenodd" clip-rule="evenodd" d="M33.9064 16.875C33.3674 15.9687 32.5627 15 32.3439 14.6328C31.6195 13.6211 30.8586 12.6361 30.0627 11.6797C29.3986 10.9765 30.3752 11.5625 29.9377 11.0156C29.5705 10.6172 29.4689 10.4843 29.1486 10.2422C28.9924 10.1406 28.8986 9.94528 28.8361 10.2812C28.8112 10.5722 28.806 10.8645 28.8205 11.1562C28.8205 11.289 28.9611 11.5468 29.0861 11.7031C30.7033 13.6953 32.4767 15.7265 33.8986 18.2812C34.1017 18.1797 34.0314 17.0312 33.8986 16.875H33.9064Z" fill="white"/>
<path fill-rule="evenodd" clip-rule="evenodd" d="M9.578 15.211C9.53893 15.2813 9.453 15.3672 9.48425 15.4532C9.53893 15.5313 9.59362 15.5547 9.68737 15.5547C9.77331 15.5547 9.89831 15.5782 9.92175 15.5313C9.96862 15.4766 9.99987 15.375 9.96862 15.2735C9.87487 15.0391 9.62487 15.1329 9.578 15.211Z" fill="#1BA400"/>
<path fill-rule="evenodd" clip-rule="evenodd" d="M27.6719 28.3203C28.3906 28.3516 28.8594 28.3594 29.4922 28.4297L30.2422 28.3516C31.0703 28.2735 31.1016 29.5313 31.1016 29.5313C31.1016 30.2735 30.8125 30.3125 30.4453 30.3907C30.2344 30.4219 30.1328 30.2657 30.0156 30.1094C29.8389 30.166 29.6507 30.1768 29.4688 30.1407C29.1641 30.125 28.8672 30.125 28.5703 30.1016C28.2578 30.0782 28.0859 30.1407 27.7656 30.1094C27.7031 30.211 27.6094 30.3516 27.4219 30.3125C27.2656 30.2891 27.0703 29.8438 27.125 29.4922C27.2422 29.2422 27.2031 29.3282 27.2031 29.2188C24.2656 29.1407 21.3047 29.0078 18.4297 29.0469C16.1797 29.0547 13.9609 29.1485 11.7344 29.2422C10.5469 29.2266 9.64062 29.0391 9.01562 28.125C9.07812 28.125 12.0469 28.2891 12.9141 28.2344C14.5156 28.2188 15.9844 28.086 17.6172 28.0391C20.8359 28.0938 24.0312 28.0938 27.25 28.3203C26.9375 28.1094 26.9375 27.6172 27.4062 27.4922C27.4453 27.461 27.4688 27.7344 27.5391 27.7266C27.9219 27.7032 27.75 28.2188 27.6719 28.3203ZM14.7344 10.5703C14.25 11.961 15.0156 13.4922 15.5469 13.3438C15.9375 13.5 16.1719 12.7657 16.3281 11.9688C16.4453 11.7422 16.5234 11.7188 16.5781 11.836C16.5625 12.8985 16.6562 13.1407 16.9297 13.461C17.5391 13.9297 18.0469 13.5235 18.0859 13.4844L18.5547 13.0078C18.6641 12.8907 18.8047 12.8907 18.9531 12.9844C19.1016 13.1172 19.0781 13.3438 19.3906 13.5C19.6562 13.6094 20.2109 13.5313 20.3437 13.3047C20.5156 13 20.5625 12.8985 20.6406 12.7891C20.7656 12.625 20.9766 12.6953 20.9766 12.75C20.9531 12.8438 20.8281 12.9297 20.9141 13.1016C21.0703 13.211 21.1016 13.1407 21.1875 13.1172C21.5 12.961 21.7344 12.2891 21.7344 12.2891C21.7422 12.0391 21.6016 12.0547 21.5078 12.1172L21.2656 12.2813C21.1094 12.3047 20.8203 12.4063 20.6719 12.1797C20.5234 11.9141 20.5234 11.5313 20.4141 11.2578C20.4141 11.2422 20.2109 10.8282 20.3984 10.8047C20.4922 10.8203 20.6875 10.875 20.7188 10.711C20.8125 10.5469 20.5156 10.086 20.3047 9.85159C20.125 9.65628 19.875 9.63284 19.6328 9.83597C19.4609 9.99222 19.4844 10.1641 19.4531 10.3282C19.4235 10.4457 19.4222 10.5687 19.4494 10.6868C19.4765 10.805 19.5314 10.915 19.6094 11.0078C19.7812 11.336 20.0859 11.7657 19.9844 12.375C19.9844 12.375 19.8047 12.6563 19.4922 12.6172C19.3594 12.5938 19.1484 12.5391 19.0391 11.6953C18.9531 11.0703 19.0547 10.1797 18.7891 9.76566C18.6875 9.50784 18.6172 9.26566 18.3828 9.69534C18.3203 9.86722 18.0469 10.125 18.2422 10.6485C18.427 11.1202 18.481 11.633 18.3984 12.1328C18.2812 12.3047 18.2578 12.3594 18.1094 12.5235C17.9062 12.7578 17.6797 12.6953 17.5078 12.6094C17.3516 12.5078 17.2266 12.4532 17.1484 12.1016C17.1641 11.5547 17.1953 10.6563 17.0938 10.4688C16.9453 10.1719 16.7031 10.2813 16.6016 10.375C16.1368 10.8913 15.8256 11.5272 15.7031 12.211C15.5625 12.6641 15.4141 12.5313 15.3125 12.3516C15.0625 12.1172 15.0391 10.2657 14.7344 10.5703Z" fill="white"/>
<path fill-rule="evenodd" clip-rule="evenodd" d="M16.2029 13.6015C16.4295 13.4453 16.3279 13.3359 16.656 13.664C17.0795 14.4134 17.3254 15.25 17.3748 16.1094C17.3591 16.3125 17.4998 16.4375 17.5701 16.3906C17.6013 15.9219 18.7498 15.2656 19.8045 15.1719C19.9607 15.1328 19.8826 14.8281 19.906 14.6719C19.8435 14.0859 20.2341 13.5547 20.781 13.5156C21.531 13.625 21.781 14.0234 21.7966 14.625C21.7107 15.7969 20.492 15.9922 19.8123 16.0859C19.7107 16.125 19.6638 16.1719 19.8123 16.2265L22.6716 16.2422L22.8201 16.3203C22.8357 16.3984 22.7732 16.3359 22.6638 16.5234C22.5065 16.7998 22.4081 17.1056 22.3748 17.4219C21.5232 17.7031 20.6404 17.8125 19.7498 17.9297C19.4373 18.0859 19.281 18.2969 19.3435 18.5312C19.4529 18.789 20.1404 19.0547 20.1404 19.0625C20.2732 19.1406 20.4216 19.3359 20.1013 19.7344C18.7107 19.6719 17.6248 19.0781 17.2498 18.2422C17.1404 18.1562 17.0154 18.2422 16.9373 18.3515C16.3904 19.0547 15.8591 19.6797 14.9295 20.0234C14.3826 20.164 13.8123 19.9375 13.5466 19.5781C13.367 19.3672 13.3748 19.1406 13.3123 19.0937C13.0076 19.2265 10.4295 20.3203 10.7576 19.8047C11.3826 19.1406 12.4763 18.6406 13.4295 17.9844C13.4998 17.7578 13.6248 17.0078 13.9998 16.7656C14.0232 16.7656 13.9451 17.2031 13.9529 17.3906C13.9529 17.5469 13.9373 17.6015 13.9685 17.5625C14.0388 17.5234 15.1951 16.6094 15.2966 16.3281C15.406 16.1719 15.3201 15.7656 15.3201 15.75C15.1013 15.1875 14.7966 15.1406 14.6873 14.8594C14.5857 14.4922 14.6326 14.0703 14.8435 13.9453C15.031 13.7812 15.2498 13.7969 15.4607 13.9844C15.6951 14.1953 15.8982 14.6094 15.9607 14.914C15.9216 15.0312 15.6482 14.8359 15.5701 14.8906C15.7204 15.0634 15.8204 15.2742 15.8591 15.5C16.0154 16.1406 15.9685 16.3906 15.8123 16.8047C15.2966 17.8906 14.6404 18.2109 14.0623 18.6172C14.0466 18.6172 14.0388 18.8906 14.2498 19.039C14.3279 19.1172 14.6326 19.1562 14.9841 19.039C15.7352 18.6219 16.3425 17.9874 16.7263 17.2187C16.7927 16.6339 16.7287 16.0415 16.5388 15.4844C16.3123 14.9609 16.0466 14.2187 16.0466 14.2031C16.0388 13.875 16.0623 13.7656 16.2029 13.6015ZM8.71852 10.5859C9.04664 10.7422 9.67164 10.6719 9.64039 10.1406L9.62477 9.89842C9.56227 9.74217 9.37477 9.78123 9.3357 9.93748C9.32008 9.99217 9.35914 10.0781 9.31227 10.1015C9.28102 10.1328 9.17945 10.1172 9.17945 9.96873C9.17945 9.92186 9.1482 9.87498 9.12477 9.84373C9.10914 9.82811 9.09352 9.82811 9.05445 9.82811C9.00758 9.82811 9.00758 9.83592 8.98414 9.87498C8.97633 9.91404 8.9607 9.95311 8.9607 9.99998C8.9607 10.0547 8.92945 10.0703 8.8982 10.0781C8.85133 10.0781 8.85914 10.0781 8.82008 10.0625C8.80445 10.039 8.78102 10.0312 8.78102 9.98436L8.75758 9.85936C8.74195 9.83592 8.7107 9.82029 8.67945 9.81248C8.49977 9.81248 8.48414 10.0234 8.49977 10.1015C8.48414 10.1172 8.47633 10.4844 8.71852 10.5859Z" fill="white"/>
<path fill-rule="evenodd" clip-rule="evenodd" d="M18.367 14.6641C18.6951 14.8204 19.4842 14.7344 19.2889 14.2266L19.2732 13.9766C19.2029 13.8204 19.0232 13.8594 18.9842 14.0235C18.9685 14.0704 19.0076 14.1563 18.9529 14.1797C18.9295 14.211 18.8201 14.1954 18.8279 14.0547C18.8279 14.0079 18.7967 13.9532 18.7732 13.9219C18.7498 13.9141 18.742 13.9063 18.6951 13.9063C18.656 13.9063 18.656 13.9219 18.6326 13.961C18.617 14.0001 18.6092 14.0391 18.6092 14.086C18.6014 14.1329 18.5779 14.1485 18.5389 14.1641C18.4998 14.1641 18.5076 14.1641 18.4764 14.1407C18.4529 14.1172 18.4295 14.1094 18.4295 14.0704L18.406 13.9454C18.3904 13.9219 18.3592 13.9063 18.3279 13.8985C18.1482 13.8985 18.1326 14.1016 18.1404 14.1797C18.1326 14.1954 18.1248 14.5704 18.3748 14.6641H18.367ZM23.992 12.9766C24.3201 13.1329 24.9373 13.0626 24.9139 12.5391L24.8982 12.2891C24.8279 12.1329 24.6482 12.1719 24.6092 12.3282C24.5935 12.3829 24.6326 12.4688 24.5779 12.5001C24.5545 12.5235 24.4451 12.5079 24.4529 12.3594C24.4529 12.3126 24.4217 12.2657 24.3982 12.2344C24.3748 12.2188 24.367 12.2188 24.3201 12.2188C24.281 12.2188 24.281 12.2344 24.2576 12.2735L24.2342 12.3907C24.2264 12.4454 24.2029 12.4688 24.1639 12.4688C24.1248 12.4688 24.1326 12.4688 24.1014 12.4532C24.0779 12.4297 24.0545 12.4219 24.0545 12.3829C24.0545 12.3438 24.0467 12.2813 24.031 12.2501C24.0154 12.2266 23.9842 12.2188 23.9529 12.211C23.7732 12.211 23.7576 12.4141 23.7654 12.4922C23.7576 12.5079 23.7498 12.8751 23.9998 12.9766H23.992ZM26.906 17.2188C26.3357 17.8672 26.5857 18.9376 26.7185 19.1719C26.906 19.5469 27.0545 19.7891 27.4217 19.9766C27.7576 20.2188 28.0232 20.0704 28.1639 19.8985C28.4998 19.5469 28.5076 18.6485 28.6639 18.4766C28.7732 18.1485 29.0545 18.2032 29.1873 18.3516C29.3116 18.528 29.4781 18.6704 29.6717 18.7657C29.9842 19.0391 30.3592 19.0938 30.7342 18.8438C30.9842 18.6954 31.1482 18.5157 31.2967 18.1485C31.4529 17.711 31.3748 15.6797 31.3357 14.4766L31.0076 12.7969C31.0076 12.7813 30.9685 12.0001 30.9295 11.8204C30.9295 11.7422 30.906 11.7188 30.9842 11.7266C31.0701 11.8047 31.0779 11.8047 31.1404 11.8282C31.2185 11.8438 31.2967 11.6954 31.242 11.5704L30.4607 10.1172C30.3982 10.0547 30.3123 9.99224 30.2107 10.1329C30.1508 10.1871 30.1031 10.2535 30.0708 10.3276C30.0385 10.4016 30.0222 10.4817 30.0232 10.5626C30.0467 10.9063 30.1014 11.2579 30.1248 11.6016L30.4373 13.3672C30.5389 14.6172 30.5623 15.6485 30.6639 16.9063C30.6482 17.4376 30.4842 17.8985 30.3279 17.9688C30.3279 17.9688 30.0935 18.1016 29.9373 17.9532C29.8201 17.9063 29.3592 17.1797 29.3592 17.1797C29.1248 16.9688 28.9685 17.0235 28.8045 17.1797C28.3357 17.6329 28.1326 18.461 27.8123 19.0391C27.7342 19.1719 27.4998 19.2735 27.2498 19.0313C26.6092 18.1485 26.9842 16.8985 26.906 17.2188ZM24.1404 9.89849C24.4373 10.0157 24.6404 10.6172 24.5779 10.9141C24.5154 11.2657 24.3592 11.6563 24.2498 11.6094C24.1248 11.5626 24.3279 11.2501 24.2107 10.9219C24.1482 10.7032 23.742 10.3126 23.7889 10.2032C23.7107 9.96099 23.9607 9.85162 24.1404 9.89068V9.89849Z" fill="white"/>
<path fill-rule="evenodd" clip-rule="evenodd" d="M27.8596 17.5781C27.9143 16.8593 27.8127 16.4218 27.7971 16C27.7815 15.5781 27.3205 12.3593 27.2268 12.0468C27.1096 11.4375 27.6721 11.9687 27.6096 11.6093C27.4143 11.1718 26.9377 10.5234 26.7893 10.1406C26.6955 9.98434 26.7346 9.82809 26.5315 10.1015C26.3565 10.5809 26.295 11.0944 26.3518 11.6015C26.8361 14.125 27.3283 16.2187 27.2502 18.6172C27.4846 18.6172 27.7424 18.0937 27.8596 17.5781ZM32.8908 10.914C33.1643 11.0468 33.3205 11.7968 33.2893 12.0078C33.2346 12.3984 33.094 12.8203 32.9924 12.7656C32.8752 12.7187 33.0158 12.1875 32.9611 12.0234C32.8986 11.789 32.5315 11.3672 32.5705 11.2422C32.4924 10.9765 32.7268 10.8672 32.8908 10.914ZM12.9143 16.2187C13.1721 16.3203 13.3283 16.8672 13.3049 17.0234C13.2424 17.3125 13.1096 17.625 13.008 17.5781C12.9065 17.5468 13.0315 17.1562 12.9846 17.0312C12.9611 16.7422 12.6018 16.5859 12.6096 16.4609C12.5471 16.2265 12.7658 16.1875 12.9221 16.2187H12.9143Z" fill="white"/>
<path fill-rule="evenodd" clip-rule="evenodd" d="M19.1331 17.0469C19.4613 17.0625 19.6253 17.3281 19.3206 17.4375C19.0081 17.5391 18.7191 17.625 18.7113 18.0625C18.8285 18.6875 18.555 18.4688 18.3988 18.3906C18.2113 18.25 17.68 17.9219 17.6019 17.2188C17.5941 17.0547 17.7269 16.9062 17.9378 16.9062C18.2503 16.9922 18.7191 17 19.1331 17.0469Z" fill="#1B9D00"/>
<path fill-rule="evenodd" clip-rule="evenodd" d="M6.0464 9.71881C6.4214 9.82818 6.44484 10.3907 6.4214 10.5547C6.36671 10.8516 6.2339 11.1719 6.14015 11.1329C6.03077 11.0938 6.14015 10.6876 6.08546 10.5626C6.03077 10.3907 5.71046 10.0626 5.74171 9.96881C5.6714 9.77349 5.89796 9.67974 6.0464 9.71881ZM13.5386 12.3438C13.2417 12.5001 13.1323 12.9688 13.312 13.2501C13.4839 13.4844 13.7495 13.3985 13.7808 13.3985C14.0698 13.4297 14.2417 12.8594 14.2417 12.8594C14.2417 12.8594 14.2495 12.7032 13.9136 13.0079C13.7651 13.0313 13.7573 12.9766 13.7183 12.8985C13.6825 12.7498 13.6962 12.5934 13.7573 12.4532C13.812 12.3126 13.7026 12.2501 13.5386 12.3438ZM15.7261 9.50006C15.5698 9.60162 15.2808 9.90631 15.273 10.2501C15.2651 10.4454 15.2261 10.4454 15.3511 10.5626C15.4526 10.7032 15.5386 10.6954 15.7261 10.5938C15.7728 10.5644 15.8129 10.5256 15.8438 10.4799C15.8748 10.4341 15.8959 10.3825 15.9058 10.3282C15.9526 10.1094 15.6714 10.4376 15.6401 10.1876C15.5776 9.95318 15.7573 9.85943 15.9292 9.64068C15.9292 9.48443 15.9292 9.38287 15.7183 9.50006H15.7261ZM17.4761 9.81256C17.4072 10.097 17.3654 10.3874 17.3511 10.6797C17.3042 10.8985 17.5855 10.9922 17.7027 10.711C17.8902 10.2032 17.8901 9.98443 17.9058 9.77349C17.8511 9.43756 17.6245 9.44537 17.4761 9.81256ZM28.5698 15.461C28.6011 15.4219 30.1323 14.336 30.1323 14.336C30.2886 14.2813 30.2495 14.8985 30.1792 14.8907C29.7043 15.3484 29.1581 15.7257 28.562 16.0079C28.4839 16.0626 28.4136 15.5938 28.562 15.461H28.5698ZM29.9526 15.4454C30.2261 15.5782 30.3355 16.3672 30.3042 16.5782C30.3042 17.0001 30.0464 17.3282 29.937 17.2813C29.8276 17.2266 29.9526 16.7579 29.898 16.5938C29.8355 16.3594 29.6089 15.9297 29.648 15.8047C29.5698 15.5391 29.7886 15.3985 29.9605 15.4454H29.9526ZM20.8901 18.836C21.0169 18.6881 21.1642 18.5591 21.3276 18.4532C21.4839 18.3751 21.6245 18.5157 21.6167 18.5079C21.6402 18.6641 21.523 18.7969 21.562 19.0001C21.5933 19.0782 21.6167 19.1719 21.7652 19.1407C22.0073 18.9454 22.2339 18.9297 22.4683 18.9219C22.6636 18.9297 22.6714 19.2501 22.5464 19.2501C22.1011 19.3438 21.9058 19.4688 21.5855 19.586C21.4292 19.6797 21.3042 19.5626 21.3042 19.5547C21.3042 19.5469 21.2183 19.4688 21.273 19.2657C21.2886 19.1094 21.2261 19.0157 21.0855 19.0313C20.9917 19.0938 20.898 19.1251 20.8511 19.0079C20.8276 18.9297 20.8198 18.8829 20.8901 18.836ZM31.562 19.2579C31.6245 19.336 31.6714 19.4141 31.5542 19.5547L31.2651 19.8047C31.2183 19.8829 31.187 20.0235 31.3433 20.0626C31.6245 20.1407 32.2808 19.711 32.2808 19.7032C32.3901 19.6251 32.3589 19.4688 32.3433 19.4688C32.2808 19.3985 32.1401 19.4454 32.0464 19.4297C31.9995 19.4297 31.8511 19.4141 31.9214 19.2735C31.9739 19.2045 32.016 19.1281 32.0464 19.0469C32.0855 18.9532 32.0464 18.8907 31.8901 18.836C31.7261 18.8047 31.6558 18.8204 31.4761 18.836C31.3823 18.8516 31.3511 18.8985 31.3276 19.0157C31.3355 19.1954 31.4448 19.1876 31.562 19.2501V19.2579Z" fill="white"/>
<path fill-rule="evenodd" clip-rule="evenodd" d="M20.9449 14.8203C20.9059 14.8985 20.7653 14.8985 20.6324 14.8203C20.4996 14.7422 20.4215 14.6172 20.4684 14.5469C20.5153 14.4766 20.6481 14.4766 20.7809 14.5469C20.9137 14.6172 20.984 14.75 20.9449 14.8203ZM13.9918 10.6328C13.9137 10.6563 13.8043 10.586 13.7574 10.4766C13.7106 10.3672 13.734 10.2735 13.8121 10.25C13.8903 10.2266 13.9918 10.3047 14.0465 10.4063C14.1012 10.5078 14.0699 10.6172 13.984 10.6407L13.9918 10.6328Z" fill="#259F00"/>
<path fill-rule="evenodd" clip-rule="evenodd" d="M27.75 29.2969C28.4844 29.3281 29.1719 29.2969 29.8985 29.3359C30.0313 29.4531 29.9375 29.7266 29.8516 29.7109L29.2422 29.6875C29.2344 29.4531 28.6407 29.4922 28.6563 29.6953C28.336 29.7344 28.0469 29.6875 27.7188 29.6719C27.625 29.5547 27.6407 29.3438 27.75 29.2969Z" fill="#209000"/>
</g>
<defs>
<clipPath id="clip0_8424_43197">
<rect width="40" height="40" rx="20" fill="white"/>
</clipPath>
</defs>
</svg>
