<svg width="56" height="56" viewBox="0 0 56 56" fill="none" xmlns="http://www.w3.org/2000/svg">
<g clip-path="url(#clip0_3318_25274)">
<path d="M28 56C43.464 56 56 43.464 56 28C56 12.536 43.464 0 28 0C12.536 0 0 12.536 0 28C0 43.464 12.536 56 28 56Z" fill="#6DA544"/>
<path d="M15.8252 33.4783C15.8252 35.4953 17.4604 37.1304 19.4773 37.1304H30.4339C30.4339 38.8113 31.7965 40.1739 33.4773 40.1739H37.1295C38.8104 40.1739 40.1729 38.8113 40.1729 37.1304V33.4783H15.8252Z" fill="#F0F0F0"/>
<path d="M40.4778 15.8259V24.3477C40.4778 25.6902 39.3855 26.7825 38.043 26.7825V30.4346C41.3994 30.4346 44.1299 27.7039 44.1299 24.3477V15.8259H40.4778Z" fill="#F0F0F0"/>
<path d="M14.3039 24.3477C14.3039 25.6902 13.2117 26.7825 11.8691 26.7825V30.4346C15.2255 30.4346 17.9561 27.7039 17.9561 24.3477V15.8259H14.3039V24.3477Z" fill="#F0F0F0"/>
<path d="M35 15.8259H38.6521V24.3477H35V15.8259Z" fill="#F0F0F0"/>
<path d="M29.5213 20.6955C29.5213 21.0312 29.2482 21.3042 28.9126 21.3042C28.5771 21.3042 28.304 21.0311 28.304 20.6955V15.8259H24.6518V20.6955C24.6518 21.0312 24.3787 21.3042 24.0431 21.3042C23.7076 21.3042 23.4345 21.0311 23.4345 20.6955V15.8259H19.7822V20.6955C19.7822 23.045 21.6937 24.9564 24.0431 24.9564C24.948 24.9564 25.7871 24.6721 26.4779 24.1891C27.1686 24.672 28.0079 24.9564 28.9127 24.9564C29.095 24.9564 29.2741 24.9436 29.4503 24.9212C29.1915 25.9875 28.2312 26.7825 27.0866 26.7825V30.4346C30.443 30.4346 33.1736 27.7039 33.1736 24.3477V20.6955V15.8259H29.5214V20.6955H29.5213Z" fill="#F0F0F0"/>
<path d="M19.7822 26.7825H25.2605V30.4346H19.7822V26.7825Z" fill="#F0F0F0"/>
</g>
<defs>
<clipPath id="clip0_3318_25274">
<rect width="56" height="56" fill="white"/>
</clipPath>
</defs>
</svg>
