<svg width="56" height="56" viewBox="0 0 56 56" fill="none" xmlns="http://www.w3.org/2000/svg">
<g clip-path="url(#clip0_3318_25283)">
<path d="M28 56C43.464 56 56 43.464 56 28C56 12.536 43.464 0 28 0C12.536 0 0 12.536 0 28C0 43.464 12.536 56 28 56Z" fill="#F0F0F0"/>
<path d="M45.0467 5.78813C40.3253 2.15895 34.4153 0 28 0C21.5847 0 15.6745 2.15906 10.9531 5.78813L28 22.8349L45.0467 5.78813Z" fill="#0052B4"/>
<path d="M5.78802 10.9534C2.15906 15.6748 0 21.5848 0 28.0001C0 34.4154 2.15906 40.3256 5.78813 45.0471L22.835 28.0001L5.78802 10.9534Z" fill="#0052B4"/>
<path d="M10.9531 50.2118C15.6746 53.841 21.5847 55.9999 28 55.9999C34.4153 55.9999 40.3253 53.8409 45.0468 50.2118L28 33.165L10.9531 50.2118Z" fill="#0052B4"/>
<path d="M50.2118 45.0469C53.841 40.3255 55.9999 34.4154 55.9999 28.0001C55.9999 21.5848 53.841 15.6748 50.2118 10.9534L33.165 28.0001L50.2118 45.0469Z" fill="#0052B4"/>
</g>
<defs>
<clipPath id="clip0_3318_25283">
<rect width="56" height="56" fill="white"/>
</clipPath>
</defs>
</svg>
