<svg width="56" height="56" viewBox="0 0 56 56" fill="none" xmlns="http://www.w3.org/2000/svg">
<g clip-path="url(#clip0_3318_25316)">
<path d="M28 56C43.464 56 56 43.464 56 28C56 12.536 43.464 0 28 0C12.536 0 0 12.536 0 28C0 43.464 12.536 56 28 56Z" fill="#F0F0F0"/>
<path d="M0 28.0001C0 12.5361 12.5361 0 28 0C43.4639 0 56 12.5361 56 28.0001" fill="#D80027"/>
<path d="M17.0439 14.6085C17.0439 10.5291 19.9109 7.12116 23.7395 6.28499C23.151 6.15659 22.5406 6.08691 21.9133 6.08691C17.2068 6.08691 13.3916 9.90213 13.3916 14.6086C13.3916 19.3152 17.2068 23.1304 21.9133 23.1304C22.5404 23.1304 23.1509 23.0607 23.7395 22.9322C19.9109 22.096 17.0439 18.6881 17.0439 14.6085Z" fill="#F0F0F0"/>
<path d="M28.0005 6.6958L28.6049 8.55572H30.5606L28.9783 9.70536L29.5827 11.5653L28.0005 10.4159L26.4182 11.5653L27.0226 9.70536L25.4404 8.55572H27.3961L28.0005 6.6958Z" fill="#F0F0F0"/>
<path d="M23.2565 10.3477L23.8608 12.2077H25.8166L24.2344 13.3572L24.8388 15.2171L23.2565 14.0677L21.6741 15.2171L22.2786 13.3572L20.6963 12.2077H22.652L23.2565 10.3477Z" fill="#F0F0F0"/>
<path d="M32.7446 10.3477L33.3491 12.2077H35.3047L33.7224 13.3572L34.3269 15.2171L32.7446 14.0677L31.1624 15.2171L31.7668 13.3572L30.1846 12.2077H32.1402L32.7446 10.3477Z" fill="#F0F0F0"/>
<path d="M30.9184 15.8262L31.5228 17.6862H33.4785L31.8962 18.8357L32.5006 20.6957L30.9184 19.5462L29.3362 20.6957L29.9406 18.8357L28.3584 17.6862H30.3139L30.9184 15.8262Z" fill="#F0F0F0"/>
<path d="M25.0826 15.8262L25.6869 17.6862H27.6427L26.0604 18.8357L26.6649 20.6957L25.0826 19.5462L23.5003 20.6957L24.1047 18.8357L22.5225 17.6862H24.4782L25.0826 15.8262Z" fill="#F0F0F0"/>
</g>
<defs>
<clipPath id="clip0_3318_25316">
<rect width="56" height="56" fill="white"/>
</clipPath>
</defs>
</svg>
