<svg width="40" height="40" viewBox="0 0 40 40" fill="none" xmlns="http://www.w3.org/2000/svg">
<g clip-path="url(#clip0_8424_43194)">
<path fill-rule="evenodd" clip-rule="evenodd" d="M-10 0H50V40H-10V0Z" fill="white"/>
<path fill-rule="evenodd" clip-rule="evenodd" d="M-10 0H50V20H-10V0Z" fill="#DF0000"/>
<path fill-rule="evenodd" clip-rule="evenodd" d="M3.83297 3.34997C2.25447 3.6892 0.840746 4.56117 -0.170859 5.81949C-1.18247 7.07781 -1.73035 8.64586 -1.72253 10.2604C-1.71471 11.8749 -1.15167 13.4376 -0.127922 14.686C0.895823 15.9345 2.31793 16.7927 3.89963 17.1166C2.99352 17.3788 2.04457 17.4596 1.10718 17.3542C0.169803 17.2489 -0.73756 16.9595 -1.56287 16.5027C-2.38817 16.0459 -3.11519 15.4307 -3.70221 14.6924C-4.28924 13.954 -4.72472 13.107 -4.9837 12.2C-5.49806 10.3767 -5.26959 8.42397 -4.34825 6.76868C-3.42691 5.11339 -1.88766 3.89023 -0.0670328 3.36664C1.2663 2.9833 2.49963 2.97497 3.8413 3.34997H3.83297Z" fill="white"/>
<path fill-rule="evenodd" clip-rule="evenodd" d="M2.74967 9.16672L3.15801 10.4167L2.07467 9.65006L1.00801 10.4334L1.39967 9.16672L0.333008 8.39172L1.65801 8.37506L2.07467 7.12506L2.49134 8.37506H3.80801L2.74967 9.16672ZM4.20801 13.5001L4.62467 14.7584L3.54134 13.9917L2.46634 14.7667L2.86634 13.5084L1.79967 12.7251L3.12467 12.7167L3.53301 11.4584L3.94967 12.7084H5.28301L4.20801 13.5001ZM9.08301 13.4667L9.49134 14.7334L8.40801 13.9584L7.34134 14.7334L7.73301 13.4751L6.66634 12.7001L7.99134 12.6834L8.40801 11.4334L8.82467 12.6834H10.1413L9.08301 13.4667ZM10.533 9.16672L10.9413 10.4251L9.85801 9.65839L8.79134 10.4334L9.19134 9.17506L8.11634 8.39172L9.44967 8.38339L9.84967 7.12506L10.2663 8.37506H11.5997L10.533 9.16672ZM6.67467 6.30839L7.09134 7.57506L6.00801 6.80006L4.93301 7.58339L5.33301 6.31672L4.26634 5.53339L5.58301 5.52506L5.99967 4.26672L6.41634 5.51672H7.74967L6.67467 6.30839Z" fill="white"/>
</g>
<defs>
<clipPath id="clip0_8424_43194">
<rect width="40" height="40" rx="20" fill="white"/>
</clipPath>
</defs>
</svg>
