<svg width="40" height="40" viewBox="0 0 40 40" fill="none" xmlns="http://www.w3.org/2000/svg">
<g clip-path="url(#clip0_8424_43334)">
<path fill-rule="evenodd" clip-rule="evenodd" d="M-10 0H50V20H16.6641L-10 0Z" fill="#ED2939"/>
<path fill-rule="evenodd" clip-rule="evenodd" d="M-10 40H50V20H16.6641L-10 40Z" fill="#002395"/>
<path fill-rule="evenodd" clip-rule="evenodd" d="M-10 0L16.6641 20L-10 40V0Z" fill="white"/>
<path d="M3.46094 15.0938L3.46875 14.7812C3.46875 14.7812 3.30469 14.5156 3.5 14.2344C3.5 14.2344 3.08594 14.0156 3.1875 13.6719C3.1875 13.6719 2.8125 13.5781 2.83594 13.1719C2.83594 13.1719 2.44531 13.1484 2.39844 12.8047C2.39844 12.8047 2 12.8672 1.82031 12.5391C1.82031 12.5391 1.42969 12.6172 1.32031 12.3438C1.32031 12.3438 0.9375 12.4688 0.71875 12.1484C0.71875 12.1484 0.3125 12.3125 0.148437 12.0078C-0.0156255 12.3125 -0.421875 12.1484 -0.421875 12.1484C-0.640625 12.4688 -1.02344 12.3359 -1.02344 12.3359C-1.13281 12.6094 -1.51562 12.5312 -1.51562 12.5312C-1.69531 12.8672 -2.09375 12.7969 -2.09375 12.7969C-2.13281 13.1406 -2.53125 13.1719 -2.53125 13.1719C-2.51997 13.2824 -2.54835 13.3934 -2.61131 13.485C-2.67427 13.5766 -2.76773 13.6428 -2.875 13.6719C-2.77344 14.0078 -3.1875 14.2266 -3.1875 14.2266C-2.98438 14.5156 -3.14844 14.7734 -3.14844 14.7734L-3.15625 15.0625L3.46094 15.0938Z" fill="#FFFF00"/>
<path fill-rule="evenodd" clip-rule="evenodd" d="M0.157366 11.9836L0.168918 12.0055C0.246228 12.1514 0.381187 12.1863 0.499375 12.1841C0.558478 12.183 0.612815 12.1726 0.652456 12.1624C0.672248 12.1573 0.688305 12.1523 0.699376 12.1486C0.704909 12.1467 0.709191 12.1452 0.712066 12.1441C0.713503 12.1436 0.714588 12.1432 0.7153 12.1429L0.716088 12.1426L0.716268 12.1425L0.726225 12.1386L0.732322 12.1473C0.841293 12.3042 0.989145 12.3499 1.11049 12.3565C1.17128 12.3598 1.22529 12.3532 1.26412 12.3458C1.28352 12.3421 1.29908 12.3382 1.30974 12.3352C1.31507 12.3338 1.31916 12.3325 1.3219 12.3317C1.3226 12.3314 1.32321 12.3312 1.32373 12.3311C1.32423 12.3309 1.32464 12.3308 1.32497 12.3307L1.3257 12.3304L1.32587 12.3304M-0.411133 12.1425L-0.410953 12.1426L-0.410166 12.1429C-0.409453 12.1432 -0.408369 12.1436 -0.406931 12.1441C-0.404055 12.1452 -0.399769 12.1467 -0.394228 12.1486C-0.383143 12.1523 -0.367052 12.1573 -0.347191 12.1624C-0.307415 12.1726 -0.252793 12.183 -0.193121 12.1841C-0.0737991 12.1863 0.0635827 12.1514 0.145322 12.0052L0.157366 11.9836" fill="black"/>
<path d="M3.30469 14.7031C2.26563 14.6016 1.07031 14.3516 0.148438 14.875C-0.476562 14.5078 -1.33594 14.5312 -2.07031 14.6016C-2.46875 14.6797 -2.9375 14.6797 -3.35938 14.7422L-3.42188 14.75C-4.17969 14.8047 -4.86719 14.5781 -5.53125 14.2812C-5.3125 15.4688 -5.08594 16.6797 -4.96875 17.9219C-4.71875 19.7656 -5.83594 21.3047 -5.39063 23.125C-5.11719 24 -4.15625 24.5078 -3.28125 24.6094C-2.43503 24.6628 -1.59408 24.7803 -0.765625 24.9609C-0.618185 24.9973 -0.474361 25.0469 -0.335938 25.1094C-0.140477 25.1947 0.0351119 25.3198 0.179688 25.4766C0.648438 24.9844 1.35156 24.8438 2.03125 24.7734C3.26562 24.625 4.78906 24.7031 5.54688 23.5859V23.5234C5.96094 22.8984 5.90625 21.9609 5.72656 21.2578C5.71094 21.0156 5.64844 20.7969 5.60938 20.5625C4.85938 18.5703 5.50781 16.3281 5.82813 14.3125C5.42362 14.5159 4.9922 14.6605 4.54688 14.7422C4.19531 14.7891 3.80469 14.7734 3.45312 14.75L3.29688 14.7109" fill="#FF0000"/>
<path d="M4.85938 20.4297C4.85938 20.5547 4.92969 20.6641 4.95312 20.7812C5.10156 21.6562 5.23438 22.8125 4.34375 23.3516C3.34375 23.9766 2.04688 23.7109 0.898438 24.0469C0.664062 24.1094 0.351562 24.3203 0.195312 24.4688C0.0859375 24.3984 -0.015625 24.2969 -0.148438 24.2344C-1.09375 23.7344 -2.32813 23.8984 -3.39063 23.625C-3.92969 23.4609 -4.48437 23.0391 -4.625 22.4922C-4.96875 21.0547 -4.14062 19.8281 -4.23437 18.3984C-4.29687 17.3047 -4.48438 16.2656 -4.73438 15.2422C-3.89844 15.6328 -2.9375 15.6953 -2 15.5078C-1.27689 15.3751 -0.531243 15.4426 0.15625 15.7031C0.515625 15.5469 0.9375 15.4766 1.32812 15.4375C2.05469 15.5156 2.84375 15.6406 3.60156 15.6406C4.10938 15.6094 4.57031 15.4687 5.00781 15.2734C4.75 16.9609 4.24219 18.7266 4.85938 20.4297Z" fill="#80CFE1"/>
<path d="M3.35937 20.7656V19.1719H3.54687L1.125 17.6094L1.11719 16.7891H1.35156L0.132812 15.9297L-1.07031 16.7891H-0.835938V17.6094L-3.25 19.1719H-3.05469V20.7578H3.35937" fill="white"/>
<path fill-rule="evenodd" clip-rule="evenodd" d="M0.138522 15.8584L1.52303 16.8558H1.178L1.18603 17.5785L3.73254 19.2286H3.41646V20.7686H3.36273V20.8134H-3.10368V19.2286H-3.42871L-0.882849 17.5789L-0.890897 16.8468H-1.23751L0.138522 15.8584ZM3.309 20.706V19.1211H3.36908L1.07921 17.6373L1.06933 16.7483H1.19002L0.138432 15.9908L-0.90372 16.7394H-0.784611L-0.774745 17.6369L-3.06526 19.1211H-2.99622V20.706H3.309Z" fill="black"/>
<path d="M4.10938 22.8516V23.3437H-3.71094V22.8438H4.10156" fill="white"/>
<path fill-rule="evenodd" clip-rule="evenodd" d="M-3.76562 22.7925H4.1696V23.4014H-3.76562V22.7925ZM-3.65816 22.8999V23.2939H4.06214V22.8999H-3.65816Z" fill="black"/>
<path d="M-3.19531 22.8203V21.1406H-2.88281L-2.89844 22.8359L-2.88281 21.1484L-3.33594 21.1406V20.7734L3.64844 20.7891V21.1406H3.22656V22.8438L3.21875 21.1406H3.53125L3.54687 22.8281" fill="white"/>
<path fill-rule="evenodd" clip-rule="evenodd" d="M-3.38086 20.7239L3.71248 20.733V21.1985H3.59633L3.605 22.8278L3.49754 22.8284L3.48887 21.1985H3.28286L3.29153 22.8455L3.29153 22.8457L3.18408 22.8466L3.18407 22.8463L3.16559 21.0911H3.60502V20.8403L-3.2734 20.8315V21.0842L-3.24652 21.0853V21.0821H-2.82502L-2.82523 21.1021L-2.82503 21.1021L-2.8435 22.8376L-2.95095 22.8365L-2.93378 21.2053L-3.13905 21.1971V22.8192H-3.24652V21.1928L-3.38086 21.1875V20.7239Z" fill="black"/>
<path fill-rule="evenodd" clip-rule="evenodd" d="M1.91197 21.1892H2.95047L2.96026 22.4607H1.91197V21.1892ZM2.01943 21.2967V22.3532H2.85196L2.84383 21.2967H2.01943ZM-2.37808 21.422H-1.88549V22.21H-2.42285V21.4757H-2.37808V21.422ZM-2.31539 21.5295V22.1025H-1.99295V21.5295H-2.31539Z" fill="black"/>
<path fill-rule="evenodd" clip-rule="evenodd" d="M1.90332 19.2822H2.95119V20.5537H1.90332V19.2822ZM2.01078 19.3897V20.4462H2.84373V19.3897H2.01078ZM2.16305 21.4312H2.70041V22.2191H2.16305V21.4312ZM2.27051 21.5386V22.1117H2.59295V21.5386H2.27051Z" fill="black"/>
<path fill-rule="evenodd" clip-rule="evenodd" d="M-2.69141 19.2734H-1.64354V20.5001H-1.69727V20.5449H-2.69141V19.2734ZM-1.751 20.4374V19.3809H-2.58395V20.4374H-1.751ZM2.15393 19.5241H2.69129V20.3121H2.15393V19.5241ZM2.26139 19.6316V20.2046H2.58382V19.6316H2.26139Z" fill="black"/>
<path fill-rule="evenodd" clip-rule="evenodd" d="M-0.989684 19.2734H0.0581832V20.5001H0.00445294V20.5449H-0.989684V19.2734ZM-0.0492775 20.4374V19.3809H-0.882223V20.4374H-0.0492775ZM-2.43164 19.5152H-1.89428V20.3031H-2.43164V19.5152ZM-2.32418 19.6226V20.1957H-2.00174V19.6226H-2.32418Z" fill="black"/>
<path fill-rule="evenodd" clip-rule="evenodd" d="M0.317581 19.2725L1.36545 19.2824V20.5539L0.317581 20.5439V19.2725ZM0.425042 19.3809V20.4375L1.25799 20.4454V19.3889L0.425042 19.3809ZM-0.739258 19.5147H-0.201895V20.3027H-0.739258V19.5147ZM-0.631797 19.6222V20.1952H-0.309356V19.6222H-0.631797Z" fill="black"/>
<path fill-rule="evenodd" clip-rule="evenodd" d="M0.568359 19.5146H1.11468V20.3026H0.568359V19.5146ZM0.67582 19.6221V20.1951H1.00722V19.6221H0.67582Z" fill="black"/>
<path d="M1.53906 20.1406L1.55469 22.8438H-1.17188L-1.17969 20.1406H1.53125" fill="white"/>
<path fill-rule="evenodd" clip-rule="evenodd" d="M-0.631364 16.8916H0.927011V17.6796H-0.631364V16.8916ZM-0.523903 16.9991V17.5721H0.81955V16.9991H-0.523903ZM-0.729487 17.8228H1.03409L2.70402 19.0406H-2.39941L-0.729487 17.8228ZM-0.694467 17.9303L-2.06966 18.9331H2.37427L0.999069 17.9303H-0.694467ZM-1.22265 20.0881H1.59855L1.60786 22.8997H-1.21334L-1.22265 20.0881ZM-1.11484 20.1956L-1.11264 20.8582H1.49364L1.49145 20.1956H-1.11484ZM1.494 20.9656H1.2763V22.7922H1.50004L1.494 20.9656ZM1.16884 22.7922V20.9656H-0.79259V22.7922H1.16884ZM-0.900051 22.7922V20.9656H-1.11229L-1.10624 22.7922H-0.900051Z" fill="black"/>
<path fill-rule="evenodd" clip-rule="evenodd" d="M-0.490531 16.6769H0.77602L0.142744 16.2267L-0.490531 16.6769ZM0.142744 16.1513L0.11609 16.1138L-0.827148 16.7843H1.11264L0.169399 16.1138L0.142744 16.1513ZM-0.23789 17.0619H0.532333V17.5096H-0.23789V17.0619ZM-0.130429 17.1694V17.4021H0.424872V17.1694H-0.130429Z" fill="black"/>
<path d="M3.39062 15.7812C3.61719 15.7812 3.67188 16.7188 3.67188 17.1875C3.875 17.25 4.30469 17.5234 4.5 17.7656H2.29688C2.48438 17.5234 2.91406 17.25 3.10938 17.1953C3.10938 16.7266 3.15625 15.7734 3.39062 15.7891" fill="white"/>
<path fill-rule="evenodd" clip-rule="evenodd" d="M3.22 16.3182C3.17906 16.6091 3.16567 16.96 3.16567 17.196V17.2365L3.1267 17.2476C3.04108 17.2721 2.89007 17.351 2.7346 17.4565C2.61813 17.5355 2.5036 17.6264 2.41611 17.7153H4.38095C4.29344 17.6264 4.17874 17.5355 4.06151 17.4566C3.90503 17.3512 3.75193 17.2723 3.66205 17.2478L3.62245 17.237V17.196C3.62245 16.96 3.60906 16.6092 3.56703 16.3184C3.54594 16.1724 3.5181 16.045 3.48264 15.9553C3.46484 15.9103 3.44645 15.8783 3.42866 15.8584C3.41134 15.8389 3.39852 15.835 3.38958 15.835C3.38259 15.835 3.37089 15.8381 3.35411 15.8576C3.33697 15.8776 3.31918 15.9096 3.30193 15.9548C3.26759 16.0446 3.24054 16.1722 3.22 16.3182ZM3.27262 15.7876C3.30164 15.7538 3.3406 15.7275 3.38958 15.7275C3.43887 15.7275 3.47866 15.753 3.50885 15.7868C3.53857 15.8202 3.56258 15.8653 3.58257 15.9158C3.62268 16.0173 3.65193 16.1545 3.67339 16.303C3.71413 16.5849 3.72838 16.9193 3.7298 17.1566C3.83561 17.1938 3.98077 17.2726 4.12155 17.3674C4.28139 17.4751 4.44347 17.6087 4.54257 17.736L4.61004 17.8228H2.18705L2.25451 17.736C2.3536 17.6087 2.51565 17.4751 2.67427 17.3675C2.81353 17.2731 2.95627 17.1944 3.05833 17.1571C3.05972 16.9198 3.07391 16.5852 3.11359 16.3032C3.13447 16.1548 3.16284 16.0177 3.20155 15.9164C3.22083 15.866 3.24397 15.8209 3.27262 15.7876ZM3.82845 15.7275H4.16918L4.07903 15.8949C4.08809 15.911 4.09837 15.9332 4.10544 15.9602C4.11934 16.0132 4.12005 16.0828 4.07935 16.1576L4.16517 16.3006H3.78727L3.87506 16.1543C3.87462 16.1533 3.87418 16.1522 3.87372 16.1511C3.86582 16.1322 3.8562 16.1053 3.84973 16.0743C3.83888 16.0222 3.83545 15.9504 3.87291 15.8854L3.82845 15.8039V15.7275ZM3.97714 16.1195C4.01143 16.0656 4.00998 16.0198 4.00149 15.9874C3.99684 15.9697 3.98982 15.9552 3.984 15.9452C3.98112 15.9403 3.97862 15.9366 3.97701 15.9344C3.9762 15.9333 3.97563 15.9326 3.97536 15.9322C3.97532 15.9322 3.97528 15.9321 3.97525 15.9321C3.97523 15.9321 3.97521 15.932 3.9752 15.932C3.9752 15.932 3.9752 15.932 3.9752 15.932L3.97263 15.929C3.94749 15.9636 3.94569 16.008 3.95493 16.0524C3.95965 16.075 3.96683 16.0952 3.97292 16.1098C3.97443 16.1134 3.97586 16.1167 3.97714 16.1195ZM3.9786 15.8548L3.98925 15.835H3.96781L3.9786 15.8548ZM4.40667 15.835L4.41746 15.8548L4.4281 15.835H4.40667ZM4.41148 15.929C4.38635 15.9636 4.38455 16.008 4.39379 16.0524C4.39851 16.075 4.40569 16.0952 4.41177 16.1098C4.41329 16.1134 4.41472 16.1167 4.416 16.1195C4.45029 16.0656 4.44884 16.0198 4.44035 15.9874C4.4357 15.9697 4.42868 15.9552 4.42286 15.9452C4.41998 15.9403 4.41748 15.9366 4.41587 15.9344C4.41506 15.9333 4.41449 15.9326 4.41422 15.9322L4.41414 15.9321L4.41404 15.932L4.41148 15.929ZM4.31497 16.1568C4.31419 16.155 4.3134 16.1531 4.31258 16.1511C4.30467 16.1322 4.29506 16.1053 4.28858 16.0743C4.27773 16.0222 4.27431 15.9504 4.31177 15.8854L4.27387 15.816L4.32104 15.7902V15.7275H4.60804L4.51788 15.8949C4.52695 15.911 4.53723 15.9332 4.5443 15.9602C4.5582 16.0132 4.55891 16.0828 4.51821 16.1576L4.60402 16.3006H4.24304L4.31497 16.1568ZM4.66937 15.7365H5.05049L4.95738 15.8961C4.96628 15.9121 4.97625 15.9338 4.98316 15.9602C4.99705 16.0132 4.99777 16.0828 4.95707 16.1576L5.04288 16.3006H4.6819L4.75383 16.1568C4.75305 16.155 4.75225 16.1531 4.75144 16.1511C4.74353 16.1322 4.73391 16.1053 4.72744 16.0743C4.71659 16.0222 4.71317 15.9504 4.75063 15.8854L4.66937 15.7365ZM4.85486 16.1195C4.88915 16.0656 4.8877 16.0198 4.8792 15.9874C4.87456 15.9697 4.86754 15.9552 4.86172 15.9452C4.85883 15.9403 4.85633 15.9366 4.85472 15.9344C4.85392 15.9333 4.85335 15.9326 4.85307 15.9322C4.85301 15.9321 4.85302 15.9321 4.85299 15.9321C4.85296 15.9321 4.85288 15.932 4.8529 15.932L4.85034 15.929C4.8252 15.9636 4.82341 16.008 4.83264 16.0524C4.83737 16.075 4.84454 16.0952 4.85063 16.1098C4.85215 16.1134 4.85358 16.1167 4.85486 16.1195ZM4.85667 15.8554L4.86337 15.844H4.85042L4.85667 15.8554ZM-1.13071 20.1597H-0.759774L-0.839545 20.3192C-0.831114 20.3362 -0.821158 20.3602 -0.81448 20.3896C-0.802372 20.4428 -0.801258 20.5134 -0.838407 20.5885L-0.75181 20.7328H-1.13867L-1.05088 20.5865C-1.05132 20.5855 -1.05176 20.5844 -1.05221 20.5833C-1.06012 20.5643 -1.06974 20.5375 -1.07621 20.5065C-1.08713 20.4541 -1.09053 20.3817 -1.05234 20.3164L-1.13071 20.1597ZM-0.945241 20.6193L-0.948849 20.6253H-0.941633L-0.945241 20.6193ZM-0.945069 20.5595C-0.91021 20.5028 -0.910637 20.4514 -0.919268 20.4134C-0.923715 20.3938 -0.930412 20.3778 -0.935921 20.3668C-0.938655 20.3613 -0.941035 20.3572 -0.942588 20.3547C-0.943362 20.3534 -0.943923 20.3525 -0.94421 20.3521C-0.944277 20.352 -0.944327 20.3519 -0.944363 20.3519C-0.944404 20.3518 -0.944427 20.3518 -0.944425 20.3518L-0.94507 20.3509L-0.94875 20.3553C-0.978204 20.3906 -0.980776 20.4377 -0.971008 20.4845C-0.966284 20.5072 -0.959107 20.5274 -0.953022 20.542C-0.950008 20.5492 -0.947336 20.5549 -0.945495 20.5586C-0.945347 20.5589 -0.945205 20.5592 -0.945069 20.5595ZM-0.945241 20.2903L-0.93367 20.2672H-0.956812L-0.945241 20.2903ZM-0.727677 20.1597H-0.356743L-0.436514 20.3192C-0.428083 20.3362 -0.418126 20.3602 -0.411449 20.3896C-0.399341 20.4428 -0.398227 20.5134 -0.435376 20.5885L-0.348779 20.7328H-0.735641L-0.647844 20.5865C-0.648285 20.5855 -0.648731 20.5844 -0.649181 20.5833C-0.65709 20.5643 -0.666706 20.5375 -0.673178 20.5065C-0.684096 20.4541 -0.687495 20.3817 -0.649306 20.3164L-0.727677 20.1597ZM-0.54221 20.6193L-0.545818 20.6253H-0.538602L-0.54221 20.6193ZM-0.542038 20.5595C-0.507179 20.5028 -0.507606 20.4514 -0.516236 20.4134C-0.520684 20.3938 -0.527381 20.3778 -0.532889 20.3668C-0.535624 20.3613 -0.538003 20.3572 -0.539556 20.3547C-0.54033 20.3534 -0.540892 20.3525 -0.541179 20.3521C-0.541245 20.352 -0.541295 20.3519 -0.541331 20.3519L-0.541394 20.3518L-0.542039 20.3509L-0.545719 20.3553C-0.575173 20.3906 -0.577745 20.4377 -0.567976 20.4845C-0.563253 20.5072 -0.556075 20.5274 -0.54999 20.542C-0.546976 20.5492 -0.544304 20.5549 -0.542464 20.5586C-0.542316 20.5589 -0.542174 20.5592 -0.542038 20.5595ZM-0.54221 20.2903L-0.530638 20.2672H-0.553781L-0.54221 20.2903ZM-0.288817 20.1597H0.082113L0.00234199 20.3192C0.0107725 20.3362 0.0207292 20.3602 0.0274067 20.3896C0.0395145 20.4428 0.0406288 20.5134 0.00347948 20.5885L0.0900767 20.7328H-0.279865L-0.207931 20.589C-0.208711 20.5872 -0.209511 20.5853 -0.210326 20.5833C-0.218235 20.5643 -0.22785 20.5375 -0.234322 20.5065C-0.245241 20.4541 -0.248639 20.3817 -0.21045 20.3164L-0.288817 20.1597ZM-0.10314 20.6197L-0.105969 20.6253H-0.0997463L-0.10314 20.6197ZM-0.103182 20.5595C-0.0683233 20.5028 -0.0687501 20.4514 -0.0773807 20.4134C-0.0818284 20.3938 -0.0885255 20.3778 -0.0940337 20.3668C-0.0967679 20.3613 -0.0991478 20.3572 -0.100701 20.3547C-0.101475 20.3534 -0.102036 20.3525 -0.102323 20.3521C-0.10239 20.352 -0.102442 20.3519 -0.102478 20.3519C-0.102512 20.3518 -0.102531 20.3518 -0.102537 20.3518C-0.102538 20.3518 -0.102537 20.3518 -0.102537 20.3518L-0.103183 20.3509L-0.106863 20.3553C-0.136317 20.3906 -0.138889 20.4377 -0.129121 20.4845C-0.124398 20.5072 -0.11722 20.5274 -0.111135 20.542C-0.108121 20.5492 -0.105449 20.5549 -0.103608 20.5586C-0.103461 20.5589 -0.103318 20.5592 -0.103182 20.5595ZM-0.103354 20.2903L-0.0917828 20.2672H-0.114925L-0.103354 20.2903Z" fill="black"/>
<path d="M0.195312 26.3125C1.21094 26.3125 2.46094 26.1016 3.04687 25.8047L4.33594 25.6875L4.36719 27.2578C3.27344 27.8594 0.757812 27.9922 0.203125 27.9844C-0.351562 27.9844 -2.89844 27.8594 -4 27.2578L-3.98438 25.6797L-2.69531 25.7969C-1.77406 26.1536 -0.792472 26.3287 0.195312 26.3125Z" fill="#FFFF00"/>
<path fill-rule="evenodd" clip-rule="evenodd" d="M-3.99452 25.6702L-2.68774 25.7881L-2.68541 25.7893C-2.39172 25.9406 -1.92315 26.0679 -1.40071 26.1574C-0.878578 26.2468 -0.303898 26.2982 0.201312 26.2982C0.710998 26.2982 1.27671 26.2468 1.78874 26.1574C2.30104 26.0679 2.75846 25.9406 3.05221 25.7893L3.05458 25.7881L4.35228 25.6792L4.37954 27.2686L4.37247 27.2725C3.82815 27.5738 2.92347 27.7576 2.08832 27.865C1.25275 27.9725 0.484192 28.0039 0.210162 27.9994C-0.0681415 27.9994 -0.845574 27.968 -1.69127 27.8605C-2.53649 27.7531 -3.45238 27.5693 -4.00567 27.2635L-4.0127 27.2597L-3.99452 25.6702ZM-3.96799 25.6995L-3.98565 27.2439C-3.43659 27.5446 -2.52955 27.7269 -1.68788 27.8339C-0.843196 27.9413 -0.066807 27.9726 0.210266 27.9726L0.210486 27.9726C0.482889 27.977 1.25023 27.9457 2.08489 27.8384C2.91644 27.7314 3.81225 27.5492 4.3524 27.2529L4.32591 25.7084L3.06213 25.8144C2.76469 25.967 2.30518 26.0945 1.79336 26.1838C1.2799 26.2735 0.712639 26.3251 0.201312 26.3251C-0.305534 26.3251 -0.881733 26.2735 -1.40524 26.1838C-1.92708 26.0945 -2.39782 25.967 -2.69537 25.8144L-3.96799 25.6995Z" fill="black"/>
<path d="M7.60937 19.625L6.48438 19.9844L6.84375 21.8125L7.92187 21.9844C7.92187 21.9844 8.09375 21.0234 7.60937 19.625Z" fill="#FFFF00"/>
<path fill-rule="evenodd" clip-rule="evenodd" d="M7.62603 19.606L7.6303 19.6184C7.8726 20.3226 7.94893 20.9171 7.96464 21.3358C7.9725 21.5451 7.96521 21.7104 7.95593 21.8235C7.95129 21.8801 7.94616 21.9236 7.94217 21.953C7.94018 21.9677 7.93848 21.9789 7.93727 21.9864C7.93666 21.9902 7.93618 21.9931 7.93585 21.995L7.93546 21.9972L7.93536 21.9977L7.93533 21.9979C7.93533 21.9979 7.93532 21.998 7.92211 21.9955L7.93533 21.9979L7.93292 22.0109L6.83596 21.8282L6.47363 19.9717L7.62603 19.606ZM7.91108 21.9801C7.91223 21.9728 7.91377 21.9626 7.91555 21.9494C7.91947 21.9204 7.92456 21.8774 7.92915 21.8214C7.93835 21.7092 7.94561 21.5449 7.9378 21.3368C7.92226 20.9229 7.84713 20.3356 7.60915 19.6395L6.50459 19.9901L6.85876 21.8047L7.91108 21.9801Z" fill="black"/>
<path d="M6.84375 21.7969L7.91406 21.9922L7.22656 21.0234L6.83594 21.7969" fill="#7E7E7E"/>
<path fill-rule="evenodd" clip-rule="evenodd" d="M7.23027 21.0024L7.95215 22.0053L6.82715 21.8085L7.23027 21.0024ZM7.23443 21.0542L6.86731 21.7882L7.89181 21.9675L7.23443 21.0542Z" fill="black"/>
<path d="M8.30469 20.9453L7.21094 21.0234C7.19531 21.9453 7.10938 25.4766 2.89062 25.6719L3.04688 26.9531C8.17969 27.0156 8.53125 22.625 8.3125 20.9453" fill="#FFFF00"/>
<path fill-rule="evenodd" clip-rule="evenodd" d="M8.32077 20.9331V20.9555C8.43281 21.7946 8.40132 23.3125 7.69781 24.6137C7.34581 25.2648 6.82551 25.8617 6.07087 26.2917C5.35435 26.7001 4.42725 26.9577 3.23357 26.9692L4.35141 27.202L4.34593 27.2283L3.10317 26.9695C3.08249 26.9694 3.06173 26.9692 3.0409 26.9689L3.02903 26.9688L2.88281 25.6623L2.89716 25.6617C5.00625 25.5679 6.07665 24.6392 6.62291 23.6194C7.16982 22.5984 7.19229 21.4844 7.20124 21.0188L7.20148 21.0065L8.32077 20.9331ZM3.10601 26.9426L3.06171 26.9334L3.05986 26.9423C3.05761 26.9423 3.05535 26.9422 3.05309 26.9422L2.9127 25.6879C5.02149 25.5901 6.09696 24.6582 6.6466 23.6321C7.19203 22.6139 7.21872 21.5045 7.22787 21.0317L8.2945 20.9618C8.40566 21.798 8.37332 23.3078 7.67418 24.601C7.32424 25.2482 6.80729 25.8411 6.05756 26.2684C5.32048 26.6884 4.35766 26.9488 3.10601 26.9426Z" fill="black"/>
<path d="M-0.48458 27.0856C-0.51583 27.1012 -0.562705 27.109 -0.601767 27.1012L-0.804893 27.0934L-0.789268 26.8356L-0.586143 26.8512C-0.54708 26.8512 -0.508018 26.859 -0.492393 26.8747C-0.45333 26.8903 -0.437705 26.9294 -0.437705 26.984C-0.437705 27.0309 -0.461143 27.0622 -0.492393 27.0856M-0.82833 27.4762L-0.812705 27.1715L-0.57833 27.1872C-0.500205 27.195 -0.437705 27.1715 -0.398643 27.1325C-0.35958 27.1012 -0.336143 27.0544 -0.336143 26.9919C-0.332232 26.964 -0.334395 26.9356 -0.342486 26.9086C-0.350577 26.8816 -0.364403 26.8567 -0.383018 26.8356C-0.425192 26.7945 -0.480528 26.7696 -0.539268 26.7653L-0.883018 26.7419L-0.929893 27.4762H-0.82833ZM-0.0939546 26.8747H0.156045L0.241983 26.8903C0.281045 26.9137 0.296671 26.945 0.296671 26.9997C0.296671 27.0465 0.288858 27.0778 0.257608 27.1012C0.224061 27.1191 0.186165 27.1272 0.148232 27.1247H-0.0939546V26.8747ZM-0.0939546 27.5153V27.2028L0.14042 27.2106C0.179483 27.2106 0.218545 27.2106 0.23417 27.2262C0.26542 27.2419 0.288857 27.2731 0.288857 27.32V27.4997L0.304482 27.5231H0.429482V27.5075C0.421865 27.5035 0.415155 27.4979 0.409779 27.4912C0.404401 27.4845 0.400471 27.4767 0.398233 27.4684C0.393159 27.448 0.390536 27.427 0.39042 27.4059V27.3044C0.39042 27.2575 0.374796 27.2262 0.359171 27.2106C0.343508 27.1891 0.321733 27.1727 0.296671 27.1637C0.327921 27.1481 0.359171 27.1247 0.374796 27.1012C0.390421 27.07 0.406045 27.0387 0.406045 26.9919C0.406045 26.9137 0.366983 26.8512 0.296671 26.82C0.252319 26.8004 0.204524 26.7898 0.156045 26.7887H-0.195518V27.5231H-0.0939546M0.687296 27.3669C0.640425 27.3091 0.613072 27.238 0.609171 27.1637C0.609171 27.0622 0.624796 26.984 0.671671 26.9294C0.695403 26.9035 0.724461 26.8832 0.756834 26.8697C0.789207 26.8562 0.824124 26.8499 0.85917 26.8512C0.893089 26.8474 0.927444 26.851 0.95983 26.8618C0.992217 26.8725 1.02185 26.8903 1.04667 26.9137C1.10136 26.9606 1.12479 27.0309 1.13261 27.1169C1.13864 27.1928 1.12235 27.2688 1.08573 27.3356C1.04667 27.3981 0.984169 27.4372 0.890419 27.4372C0.796669 27.4372 0.73417 27.4215 0.679482 27.3669M0.562295 26.9059C0.517072 26.984 0.495368 27.0736 0.499794 27.1637C0.507607 27.2731 0.538858 27.3669 0.609171 27.4294C0.646011 27.4655 0.690199 27.4933 0.73873 27.5108C0.787262 27.5283 0.838997 27.5352 0.890419 27.5309C0.943785 27.5303 0.996278 27.5173 1.04374 27.4929C1.0912 27.4685 1.13232 27.4334 1.16386 27.3903C1.21917 27.3072 1.24654 27.2087 1.24198 27.109C1.23927 27.02 1.20619 26.9345 1.14823 26.8669C1.07792 26.7887 0.976358 26.7497 0.843546 26.7575C0.718546 26.7575 0.624795 26.8122 0.562295 26.9059ZM3.99979 25.8512C4.07792 25.8434 4.14042 25.8434 4.19511 25.859C4.27323 25.8903 4.32792 25.945 4.36698 26.0387L4.26542 26.0544C4.24824 26.0098 4.21471 25.9735 4.17167 25.9528C4.12223 25.9324 4.06791 25.927 4.01542 25.9372C3.98381 25.9425 3.95364 25.9543 3.92677 25.9718C3.89989 25.9892 3.87688 26.012 3.85917 26.0387C3.82011 26.0934 3.80448 26.1715 3.82011 26.2731C3.82841 26.3492 3.86132 26.4205 3.91386 26.4762C3.96073 26.5231 4.03104 26.5387 4.11698 26.5309C4.17786 26.5225 4.23348 26.4919 4.27323 26.445C4.32011 26.3981 4.32792 26.3356 4.31229 26.2497L4.07792 26.2887L4.07011 26.2106L4.39823 26.1559L4.46073 26.5465H4.39042L4.35136 26.4684L4.27323 26.5465C4.23417 26.5856 4.17948 26.6012 4.11698 26.6169C4.0297 26.6323 3.93984 26.6127 3.86698 26.5622C3.82573 26.5301 3.79133 26.49 3.76584 26.4444C3.74034 26.3988 3.72426 26.3485 3.71855 26.2965C3.70577 26.2435 3.70404 26.1884 3.71344 26.1346C3.72285 26.0809 3.7432 26.0296 3.77323 25.984C3.80031 25.9462 3.8353 25.9147 3.87578 25.8918C3.91625 25.8689 3.96124 25.855 4.00761 25.8512M4.74198 25.7965L4.97636 25.7106C5.00761 25.695 5.03886 25.695 5.0623 25.695C5.10917 25.695 5.14042 25.7262 5.15605 25.7731C5.17167 25.82 5.17167 25.859 5.15605 25.8903C5.13261 25.9137 5.10136 25.9372 5.05448 25.9528L4.83573 26.0309L4.74198 25.7965ZM4.97636 26.3981L4.86698 26.109L5.08573 26.0309C5.11262 26.0177 5.14179 26.0097 5.17167 26.0075C5.21073 26.0153 5.24198 26.0387 5.26542 26.0856L5.3123 26.195L5.33573 26.2497L5.35136 26.2731L5.46855 26.2262V26.2106C5.44511 26.2106 5.42948 26.2028 5.42167 26.1794C5.40604 26.1715 5.39823 26.1481 5.39042 26.1247L5.35136 26.0309C5.33573 25.9919 5.3123 25.9684 5.29667 25.9528C5.27205 25.9421 5.24541 25.9367 5.21855 25.9372L5.26542 25.8434C5.26542 25.8122 5.26542 25.7731 5.24979 25.734C5.21854 25.6559 5.17167 25.609 5.09354 25.609C5.04295 25.6061 4.99232 25.6141 4.94511 25.6325L4.61698 25.7497L4.88261 26.4372L4.97636 26.4059M5.83573 26.0387L5.42167 25.4294L5.87479 25.1325L5.92948 25.2106L5.55448 25.445L5.67948 25.6325L6.03104 25.4137L6.07792 25.484L5.72636 25.7028L5.86698 25.9137L6.25761 25.6637L6.30448 25.7419L5.83573 26.0387ZM6.20292 24.9606L6.32011 24.8278C6.38261 24.7653 6.43729 24.7419 6.49979 24.7497C6.57011 24.7497 6.63261 24.7887 6.70292 24.8512C6.75251 24.8928 6.79024 24.9467 6.81229 25.0075C6.82792 25.0544 6.82011 25.0934 6.81229 25.1325C6.79817 25.1612 6.77973 25.1875 6.75761 25.2106L6.64042 25.3356L6.20292 24.9606ZM6.83573 25.2419C6.92167 25.1481 6.93729 25.0544 6.89042 24.9294C6.85775 24.8662 6.81256 24.8104 6.75761 24.7653C6.69142 24.7027 6.60613 24.6642 6.51542 24.6559C6.42167 24.6481 6.34355 24.6794 6.27323 24.7575L6.07011 24.9762L6.63261 25.4684L6.83573 25.2497M7.27323 24.6794L6.6248 24.2887L6.67948 24.2106L7.32792 24.5934L7.27323 24.6715M7.53104 24.234L6.82792 23.9528L7.03105 23.4606L7.11698 23.4919L6.95292 23.8981L7.16386 23.9762L7.32011 23.609L7.39823 23.6403L7.24198 24.0153L7.47636 24.109L7.65605 23.7028L7.73417 23.734L7.53104 24.234ZM7.84354 23.3747L7.10917 23.2184L7.14042 23.1012L7.82011 22.8669L7.21854 22.734L7.24198 22.6481L7.97636 22.8044L7.95292 22.9137L7.27323 23.1481L7.8748 23.2809L7.85136 23.3747M7.78886 22.4372L7.79667 22.3434C7.84355 22.3434 7.87479 22.3434 7.90604 22.3278C7.96073 22.2965 7.98417 22.2419 7.99979 22.1637C8.00419 22.1271 8.00154 22.09 7.99198 22.0544C7.97636 21.9997 7.94511 21.9606 7.89042 21.9606C7.84355 21.9528 7.8123 21.9606 7.79667 21.984C7.77323 22.0075 7.75761 22.0465 7.74198 22.1012L7.70292 22.195C7.6873 22.2575 7.66386 22.3044 7.64042 22.3278C7.60917 22.3747 7.5623 22.3903 7.4998 22.3825C7.46978 22.3809 7.44042 22.3731 7.41353 22.3597C7.38665 22.3463 7.36283 22.3274 7.34355 22.3044C7.29667 22.2575 7.28105 22.1872 7.28886 22.1012C7.29667 22.0231 7.32011 21.9606 7.36698 21.9137C7.40605 21.8669 7.46854 21.8356 7.55448 21.8512L7.54667 21.945C7.50761 21.945 7.46854 21.945 7.45292 21.9684C7.40604 21.9919 7.38261 22.0465 7.37479 22.1169C7.37479 22.1715 7.3748 22.2106 7.40605 22.2419C7.42948 22.2731 7.45292 22.2887 7.48417 22.2887C7.52323 22.2887 7.55448 22.2887 7.57011 22.2575L7.6248 22.1247L7.65605 22.0231C7.67167 21.9762 7.69511 21.945 7.71855 21.9137C7.75761 21.8747 7.8123 21.859 7.8748 21.859C7.96073 21.8669 8.02323 21.9059 8.04667 21.9684C8.07792 22.0309 8.09355 22.0934 8.08573 22.1794C8.08137 22.2565 8.04786 22.3291 7.99198 22.3825C7.9373 22.4294 7.87479 22.445 7.78886 22.4372ZM-7.49239 22.3903L-7.46896 22.484C-7.51583 22.4919 -7.54708 22.5075 -7.57052 22.5309C-7.60958 22.57 -7.62521 22.6325 -7.60958 22.7184C-7.6042 22.7511 -7.59365 22.7828 -7.57833 22.8122C-7.54708 22.8669 -7.50021 22.8903 -7.44552 22.8825C-7.40646 22.8747 -7.38302 22.859 -7.36739 22.8278L-7.34396 22.7028V22.6012C-7.34396 22.5387 -7.32833 22.484 -7.32052 22.4606C-7.29708 22.4137 -7.25021 22.3825 -7.18771 22.3669C-7.12521 22.359 -7.06271 22.3669 -7.01583 22.4137C-6.96114 22.445 -6.92989 22.5075 -6.91427 22.5856C-6.89908 22.654 -6.90734 22.7256 -6.93771 22.7887C-6.96896 22.8512 -7.01583 22.8825 -7.10177 22.8981L-7.11739 22.8122C-7.08854 22.8018 -7.06199 22.7859 -7.03927 22.7653C-7.00021 22.7262 -6.99239 22.6715 -7.00021 22.6012C-7.01583 22.5387 -7.03146 22.4997 -7.06271 22.484C-7.07577 22.4737 -7.09089 22.4663 -7.10705 22.4622C-7.12322 22.4582 -7.14006 22.4576 -7.15646 22.4606C-7.17369 22.4598 -7.1907 22.4648 -7.20483 22.4746C-7.21896 22.4845 -7.22942 22.4988 -7.23458 22.5153L-7.24239 22.6559L-7.25021 22.7575C-7.25052 22.801 -7.26123 22.8439 -7.28146 22.8825C-7.29414 22.9079 -7.3129 22.9297 -7.33608 22.9461C-7.35925 22.9624 -7.38611 22.9728 -7.41427 22.9762C-7.49239 22.9919 -7.57052 22.9684 -7.60958 22.9137C-7.65733 22.8609 -7.68975 22.7961 -7.70333 22.7262C-7.71221 22.6878 -7.71333 22.6479 -7.70662 22.609C-7.69991 22.5701 -7.68552 22.5329 -7.66427 22.4997C-7.64486 22.4711 -7.6194 22.4472 -7.58968 22.4297C-7.55997 22.4121 -7.52675 22.4013 -7.49239 22.3981M-7.53927 23.359L-6.81271 23.1403L-6.64864 23.6481L-6.73458 23.6794L-6.87521 23.2653L-7.09396 23.3278L-6.96114 23.7184L-7.04708 23.7419L-7.17208 23.3512L-7.42208 23.4294L-7.28146 23.8512L-7.35958 23.8747L-7.53927 23.359ZM-7.21896 24.2419L-6.55489 23.8903L-6.47677 24.0153L-6.93771 24.4919L-6.27364 24.3825L-6.20333 24.4997L-6.86739 24.8512L-6.91427 24.7731L-6.52364 24.5622L-6.45333 24.5309L-6.35177 24.4762L-7.01583 24.5934L-7.06271 24.5075L-6.60958 24.0231L-6.63302 24.0387L-6.71114 24.0778C-6.73359 24.0925 -6.75709 24.1056 -6.78146 24.1169L-7.17208 24.32L-7.21896 24.2419ZM-5.98458 25.2184C-6.01583 25.2106 -6.04708 25.1872 -6.07833 25.1559L-6.21896 25.0153L-6.03146 24.8434L-5.89083 24.984C-5.86744 25.0061 -5.84883 25.0327 -5.83614 25.0622C-5.82052 25.1012 -5.83614 25.1403 -5.87521 25.1794C-5.91427 25.2106 -5.95333 25.2262 -5.98458 25.2184ZM-6.51583 25.2809L-6.28146 25.07L-6.12521 25.234C-6.06271 25.2887 -6.00802 25.3122 -5.95333 25.3122C-5.89531 25.3114 -5.83963 25.2891 -5.79708 25.2497C-5.75762 25.2071 -5.73535 25.1514 -5.73458 25.0934C-5.73458 25.0465 -5.75802 24.9919 -5.80489 24.945L-6.03927 24.7106L-6.58614 25.2106L-6.50802 25.2887M-5.85177 25.8747L-5.45333 25.2497L-4.98458 25.5309L-5.03146 25.609L-5.42208 25.3747L-5.53927 25.57L-5.18771 25.7809L-5.22677 25.859L-5.58614 25.6403L-5.71896 25.8512L-5.32833 26.0856L-5.37521 26.1637L-5.85177 25.8747ZM-4.67989 25.7497L-4.43771 25.8278L-4.35958 25.8669C-4.32833 25.8981 -4.32052 25.9372 -4.34396 25.984C-4.35958 26.0309 -4.37521 26.0622 -4.41427 26.07L-4.53146 26.0622L-4.75802 25.984L-4.67989 25.7497ZM-4.88302 26.3669L-4.78146 26.07L-4.56271 26.1403C-4.52364 26.1481 -4.48458 26.1637 -4.47677 26.1794C-4.45333 26.2028 -4.44552 26.2419 -4.45333 26.2887L-4.49239 26.4059L-4.50021 26.4606V26.484L-4.38302 26.5231V26.5075L-4.39864 26.4528L-4.38302 26.3981L-4.35177 26.3044C-4.34396 26.2575 -4.33614 26.2262 -4.35177 26.2106C-4.35177 26.1872 -4.37521 26.1637 -4.39864 26.1403C-4.35958 26.1403 -4.32052 26.1247 -4.29708 26.1012C-4.27364 26.0778 -4.25021 26.0465 -4.24239 26.0075C-4.21114 25.9294 -4.22677 25.859 -4.28927 25.8122C-4.32643 25.7815 -4.36876 25.7577 -4.41427 25.7419L-4.75021 25.6403L-4.98458 26.3356L-4.88302 26.3669Z" fill="#009FC5"/>
<path d="M-3.86724 13.7183C-3.78912 13.5074 -2.98443 12.9371 -0.36724 13.1871C-0.36724 13.1871 0.0780723 13.4605 0.335885 13.4214C0.492135 13.4058 0.25776 13.437 0.0546346 13.273C-0.140678 13.1167 -0.179741 12.7808 0.265572 12.7964C0.718697 12.8042 2.39839 12.898 2.42964 13.0542C2.46089 13.2027 1.53901 13.2652 1.20307 13.2574C0.859322 13.2495 0.890573 13.4214 1.23432 13.4136C2.30464 13.3667 3.4687 12.9917 4.69526 13.8667C4.8437 13.9683 4.32807 13.9839 3.92964 13.8199C3.92964 13.8199 2.83589 13.8746 2.36714 13.7964C2.36714 13.7964 2.01557 14.0933 1.53901 14.0621C1.60151 14.2183 1.36713 14.7808 -0.101615 14.3511C-0.351615 14.4292 -1.23443 14.5777 -1.14068 14.312C-1.37505 14.312 -1.7813 14.3902 -1.8438 14.2574C-1.9063 14.1246 -1.12505 13.9292 -0.984428 13.7886C-0.984428 13.7886 -2.64068 13.8042 -2.95318 13.687C-2.95318 13.687 -3.92974 13.9058 -3.86724 13.7183Z" fill="#BC715F"/>
</g>
<defs>
<clipPath id="clip0_8424_43334">
<rect width="40" height="40" rx="20" fill="white"/>
</clipPath>
</defs>
</svg>
