<svg width="40" height="40" viewBox="0 0 40 40" fill="none" xmlns="http://www.w3.org/2000/svg">
<g clip-path="url(#clip0_8424_43398)">
<path fill-rule="evenodd" clip-rule="evenodd" d="M-12 0H68V40H-12V0Z" fill="white"/>
<path fill-rule="evenodd" clip-rule="evenodd" d="M-12 26.6641H68V40H-12V26.6641Z" fill="#D50000"/>
<path fill-rule="evenodd" clip-rule="evenodd" d="M-12 13.3359H68V26.6641H-12V13.3359Z" fill="#0000BF"/>
<path fill-rule="evenodd" clip-rule="evenodd" d="M10.6875 7.26562C10.375 12.0781 10.1875 14.7188 9.46094 15.9375C8.66406 17.25 7.89844 18.2109 4.79688 19.375C1.70312 18.2109 0.9375 17.25 0.140625 15.9375C-0.59375 14.7188 -0.773438 12.0781 -1.08594 7.26562L-0.632812 7.10938C0.289063 6.82812 0.976563 6.60156 1.48438 6.5C2.21094 6.34375 2.83594 6.17188 4.78906 6.13281C6.74219 6.16406 7.36719 6.35156 8.09375 6.50781C8.59375 6.61719 9.3125 6.82031 10.2266 7.10938L10.6875 7.26562Z" fill="#D50000"/>
<path fill-rule="evenodd" clip-rule="evenodd" d="M10.2344 7.10938C9.9375 11.9141 9.6875 14.1172 9.29688 15.1719C8.54688 16.9844 7.35937 17.9766 4.79687 18.9219C2.23437 17.9766 1.04688 16.9844 0.289063 15.1719C-0.101562 14.1094 -0.335938 11.9141 -0.632812 7.10156C0.273438 6.82031 0.976562 6.60156 1.48437 6.5C2.21094 6.34375 2.83594 6.16406 4.78906 6.13281C6.74219 6.16406 7.36719 6.34375 8.09375 6.5C8.8169 6.66462 9.53134 6.86539 10.2344 7.10156V7.10938Z" fill="#0000BF"/>
<path fill-rule="evenodd" clip-rule="evenodd" d="M4.79687 8.57812L4.91406 8.86719L5.46094 8.94531L5.10937 9.15625L5.44531 9.38281L4.95312 9.46094L4.79687 9.72656L4.64062 9.45312L4.17187 9.39062L4.48437 9.15625L4.15625 8.94531L4.67969 8.86719L4.79687 8.57812Z" fill="#FFDF00"/>
<path fill-rule="evenodd" clip-rule="evenodd" d="M9.11719 14.0312L8.8125 13.7969L8.60156 13.4375L8.17969 13.0703L7.95312 12.7031L7.53125 12.3203L7.32812 11.9531L7.09375 11.7734L6.95313 11.625L6.5625 11.9609L6.35938 12.3281L6.10156 12.5625L5.8125 12.3359L5.60156 11.9609L4.79688 10.5312L3.99219 11.9609L3.78125 12.3359L3.49219 12.5625L3.23438 12.3281L3.02344 11.9609L2.64063 11.625L2.49219 11.7656L2.26563 11.9531L2.0625 12.3203L1.64063 12.7031L1.41406 13.0703L0.992188 13.4375L0.78125 13.7969L0.476562 14.0312C0.648326 15.1066 1.15716 16.0997 1.92969 16.8672C2.7678 17.5845 3.7396 18.1288 4.78906 18.4687C5.84652 18.1364 6.82489 17.5914 7.66406 16.8672C8.11719 16.3984 8.96094 15.3594 9.11719 14.0312Z" fill="white"/>
<path fill-rule="evenodd" clip-rule="evenodd" d="M6.07812 6.55469L6.20312 6.84375L6.75 6.92187L6.39062 7.13281L6.73437 7.35937L6.24219 7.4375L6.08594 7.70312L5.92969 7.42969L5.46094 7.36719L5.77344 7.13281L5.44531 6.92187L5.96094 6.84375L6.08594 6.55469H6.07812ZM3.5 6.55469L3.625 6.84375L4.17187 6.91406L3.82031 7.125L4.15625 7.35156L3.66406 7.42969L3.50781 7.69531L3.35156 7.42969L2.88281 7.35937L3.19531 7.125L2.86719 6.91406L3.39062 6.83594L3.50781 6.54688L3.5 6.55469Z" fill="#FFDF00"/>
<path fill-rule="evenodd" clip-rule="evenodd" d="M8.44531 15.8594H7.86719L7.32031 15.8203L6.67188 15.5078H5.9375L5.30469 15.8203L4.79688 15.8672L4.29688 15.8203L3.66406 15.5078H2.92188L2.26562 15.8203L1.72656 15.8672L1.13281 15.8594L0.851562 15.375L0.859375 15.3594L1.73438 15.5078L2.27344 15.4688L2.92188 15.1484H3.65625L4.29688 15.4609L4.79688 15.5078L5.30469 15.4609L5.9375 15.1484H6.67188L7.32812 15.4609L7.86719 15.5078L8.71094 15.3516L8.72656 15.3828L8.4375 15.8594H8.44531ZM1.69531 16.6016L2.27344 16.5625L2.92188 16.25H3.65625L4.29688 16.5625L4.79688 16.6016L5.29687 16.5625L5.9375 16.25H6.67188L7.32031 16.5625L7.90625 16.6016L8.28125 16.1328H8.27344L7.86719 16.2422L7.32812 16.2031L6.67969 15.8906H5.94531L5.30469 16.2031L4.80469 16.25L4.29688 16.2031L3.66406 15.8906H2.92188L2.26562 16.2031L1.72656 16.25L1.33594 16.1484V16.1641L1.6875 16.6016H1.69531Z" fill="#0000BF"/>
</g>
<defs>
<clipPath id="clip0_8424_43398">
<rect width="40" height="40" rx="20" fill="white"/>
</clipPath>
</defs>
</svg>
