<svg width="40" height="40" viewBox="0 0 40 40" fill="none" xmlns="http://www.w3.org/2000/svg">
<g clip-path="url(#clip0_8424_43192)">
<path d="M-7 0H46.3333V40H-7V0Z" fill="#EE1C25"/>
<path d="M-7 0H46.3333V26.6667H-7V0Z" fill="#0B4EA2"/>
<path d="M-7 0H46.3333V13.3333H-7V0Z" fill="white"/>
<path d="M12.4169 30.9001C8.83353 29.1751 3.7002 25.7418 3.7002 18.9668C3.7002 12.1834 4.03353 9.1001 4.03353 9.1001H20.8085C20.8085 9.1001 21.1335 12.1834 21.1335 18.9668C21.1335 25.7501 16.0002 29.1668 12.4169 30.9001Z" fill="white"/>
<path d="M12.416 30C9.12435 28.4167 4.41602 25.2667 4.41602 19.05C4.41602 12.8333 4.71602 10 4.71602 10H20.116C20.116 10 20.4077 12.8333 20.4077 19.05C20.416 25.275 15.7077 28.4167 12.416 30Z" fill="#EE1C25"/>
<path d="M13.116 17.4168C14.0077 17.4334 15.7493 17.4668 17.291 16.9501C17.291 16.9501 17.2577 17.5084 17.2577 18.1501C17.2577 18.7918 17.2993 19.3501 17.2993 19.3501C15.8827 18.8751 14.1243 18.8668 13.116 18.8751V22.3084H11.716V18.8751C10.716 18.8668 8.95768 18.8751 7.54102 19.3501C7.54102 19.3501 7.58268 18.7918 7.58268 18.1501C7.58268 17.5001 7.54102 16.9501 7.54102 16.9501C9.08268 17.4668 10.8243 17.4334 11.7077 17.4168V15.2584C10.8993 15.2584 9.73268 15.2918 8.40768 15.7334C8.40768 15.7334 8.44935 15.1834 8.44935 14.5334C8.44935 13.8918 8.40768 13.3334 8.40768 13.3334C9.73268 13.7751 10.8993 13.8168 11.7077 13.8084C11.666 12.4418 11.266 10.7251 11.266 10.7251C11.266 10.7251 12.091 10.7834 12.416 10.7834C12.7493 10.7834 13.566 10.7251 13.566 10.7251C13.566 10.7251 13.166 12.4418 13.1243 13.8084C13.9327 13.8168 15.0993 13.7751 16.4243 13.3334C16.4243 13.3334 16.3827 13.8918 16.3827 14.5334C16.3827 15.1834 16.4243 15.7334 16.4243 15.7334C15.3564 15.3891 14.2377 15.2284 13.116 15.2584V17.4251V17.4168Z" fill="white"/>
<path d="M12.4161 21.9419C10.7578 21.9419 9.87448 24.2336 9.87448 24.2336C9.87448 24.2336 9.37448 23.1502 8.02448 23.1502C7.10781 23.1502 6.44115 23.9586 6.00781 24.7169C7.67448 27.3586 10.3328 28.9919 12.4161 30.0002C14.4995 29.0002 17.1661 27.3586 18.8245 24.7169C18.3911 23.9669 17.7245 23.1502 16.8078 23.1502C15.4578 23.1502 14.9578 24.2336 14.9578 24.2336C14.9578 24.2336 14.0828 21.9419 12.4161 21.9419Z" fill="#0B4EA2"/>
</g>
<defs>
<clipPath id="clip0_8424_43192">
<rect width="40" height="40" rx="20" fill="white"/>
</clipPath>
</defs>
</svg>
