<svg width="40" height="40" viewBox="0 0 40 40" fill="none" xmlns="http://www.w3.org/2000/svg">
<g clip-path="url(#clip0_8424_43401)">
<path fill-rule="evenodd" clip-rule="evenodd" d="M-13 39.625L64.1406 0H-13V39.625Z" fill="#0000D6"/>
<path fill-rule="evenodd" clip-rule="evenodd" d="M67 0L-10.875 40H67V0Z" fill="#006000"/>
<path fill-rule="evenodd" clip-rule="evenodd" d="M67 0H62.7109L-13 37.9219V40H-8.71094L67 2.15625V0Z" fill="#FFCC00"/>
<path fill-rule="evenodd" clip-rule="evenodd" d="M-7.42188 0.710938L-6.5 3.40625H-3.49219L-5.92188 5.05469L-4.99219 7.74219L-7.42188 6.09375L-9.85156 7.75L-8.92188 5.0625L-11.3516 3.39844H-8.35156L-7.42188 0.710938ZM7.50781 0.710938L8.4375 3.40625H11.4453L9.00781 5.0625L9.94531 7.75L7.5 6.09375L5.07812 7.75781L6.00781 5.07031L3.57031 3.40625H6.57812L7.50781 0.710938ZM7.50781 12L8.4375 14.6953H11.4453L9.00781 16.3516L9.94531 19.0391L7.50781 17.375L5.08594 19.0391L6.01562 16.3516L3.57812 14.6875H6.58594L7.50781 12ZM0.0859375 6.42187L1.01562 9.10937H4.01562L1.59375 10.7734L2.51562 13.4609L0.09375 11.7969L-2.34375 13.4609L-1.40625 10.7734L-3.84375 9.10937H-0.835938L0.0859375 6.42187ZM-7.42188 12L-6.5 14.6953H-3.49219L-5.92188 16.3516L-4.99219 19.0391L-7.42188 17.375L-9.85156 19.0391L-8.91406 16.3516L-11.3594 14.6875H-8.35938L-7.42188 12Z" fill="white"/>
</g>
<defs>
<clipPath id="clip0_8424_43401">
<rect width="40" height="40" rx="20" fill="white"/>
</clipPath>
</defs>
</svg>
