<svg width="40" height="40" viewBox="0 0 40 40" fill="none" xmlns="http://www.w3.org/2000/svg">
<g clip-path="url(#clip0_8424_43249)">
<path fill-rule="evenodd" clip-rule="evenodd" d="M-7 0.0020752H46.3438V40.0021H-7V0.0020752Z" fill="white"/>
<path fill-rule="evenodd" clip-rule="evenodd" d="M-1.15527 12.1512L4.39317 3.83164L5.77976 4.75638L0.231317 13.0759L-1.15527 12.1512ZM0.924612 13.5383L6.47306 5.21875L7.85965 6.14349L2.3112 14.463L0.924612 13.5383ZM3.0045 14.9254L8.55294 6.60586L9.93953 7.5306L4.39109 15.8501L3.0045 14.9254Z" fill="black"/>
<path fill-rule="evenodd" clip-rule="evenodd" d="M38.1322 32.8437L31.1992 28.22L31.6616 27.5267L38.5945 32.1504L38.1322 32.8437Z" fill="white"/>
<path fill-rule="evenodd" clip-rule="evenodd" d="M11.3252 14.4646C12.7967 12.2581 15.0845 10.7266 17.6853 10.2069C20.286 9.68721 22.9867 10.222 25.1932 11.6935C27.3997 13.165 28.9312 15.4528 29.4509 18.0536C29.9706 20.6543 29.4358 23.355 27.9643 25.5615L11.3252 14.4646Z" fill="#CD2E3A"/>
<path fill-rule="evenodd" clip-rule="evenodd" d="M11.3248 14.4646C9.85327 16.6711 9.31853 19.3718 9.83821 21.9725C10.3579 24.5733 11.8894 26.8611 14.0959 28.3326C16.3024 29.8042 19.0031 30.3389 21.6038 29.8192C24.2046 29.2996 26.4924 27.768 27.9639 25.5615C28.6997 24.4583 28.967 23.108 28.7072 21.8076C28.4474 20.5072 27.6816 19.3633 26.5784 18.6275C25.4751 17.8918 24.1248 17.6244 22.8244 17.8842C21.524 18.1441 20.3801 18.9098 19.6444 20.0131L11.3248 14.4646Z" fill="#0047A0"/>
<path d="M19.6445 20.0131C21.1767 17.7157 20.5564 14.6112 18.259 13.0791C15.9616 11.5469 12.8572 12.1672 11.325 14.4646C9.79284 16.762 10.4132 19.8665 12.7106 21.3986C15.0079 22.9308 18.1124 22.3104 19.6445 20.0131Z" fill="#CD2E3A"/>
<path fill-rule="evenodd" clip-rule="evenodd" d="M5.68535 29.8415L3.60547 31.2286L3.1431 30.5353L5.22298 29.1482L5.68535 29.8415ZM34.1105 10.8843L31.6839 12.5026L31.2216 11.8093L33.6481 10.191L34.1105 10.8843ZM38.2702 8.11005L36.1903 9.49716L35.728 8.80387L37.8079 7.41676L38.2702 8.11005Z" fill="white"/>
</g>
<defs>
<clipPath id="clip0_8424_43249">
<rect width="40" height="40" rx="20" fill="white"/>
</clipPath>
</defs>
</svg>
