<svg width="56" height="56" viewBox="0 0 56 56" fill="none" xmlns="http://www.w3.org/2000/svg">
<g clip-path="url(#clip0_3318_25388)">
<path d="M28 56C43.464 56 56 43.464 56 28C56 12.536 43.464 0 28 0C12.536 0 0 12.536 0 28C0 43.464 12.536 56 28 56Z" fill="#F0F0F0"/>
<path d="M8.20099 47.7993C-2.73366 36.8645 -2.73366 19.1359 8.20099 8.20117C8.20022 8.20237 24.3479 28.0002 24.3479 28.0002L8.20099 47.7993Z" fill="black"/>
<path d="M24.3483 28L3.71403 14.0562C3.0743 15.1682 2.51014 16.3289 2.02539 17.5302L12.4717 28.0002L2.02572 38.4706C2.51003 39.6711 3.07364 40.831 3.71294 41.9423L24.3483 28Z" fill="#FFDA44"/>
<path d="M55.7634 24.3477H24.3475L8.20109 8.20117C6.46116 9.94111 4.94948 11.9089 3.71398 14.056L17.6308 27.9998L3.71289 41.9418C4.94839 44.0895 6.46072 46.0579 8.20109 47.7983L24.3475 31.6519H55.7634C55.919 30.4565 56.0004 29.2376 56.0004 27.9998C56.0004 26.762 55.919 25.5431 55.7634 24.3477Z" fill="#6DA544"/>
<path d="M10.9521 50.2114C15.6738 53.8406 21.5841 55.9998 27.9996 55.9998C40.9363 55.9998 51.822 47.2256 55.035 35.3042H25.8594L10.9521 50.2114Z" fill="#0052B4"/>
<path d="M55.035 20.6956C51.822 8.77417 40.9363 0 27.9996 0C21.5841 0 15.6738 2.15917 10.9521 5.78845L25.8593 20.6956H55.035Z" fill="#D80027"/>
</g>
<defs>
<clipPath id="clip0_3318_25388">
<rect width="56" height="56" fill="white"/>
</clipPath>
</defs>
</svg>
