<svg width="56" height="56" viewBox="0 0 56 56" fill="none" xmlns="http://www.w3.org/2000/svg">
<g clip-path="url(#clip0_3318_25424)">
<path d="M0 28C0 31.425 0.616109 34.7058 1.74158 37.7391L28 40.1739L54.2584 37.7391C55.3839 34.7058 56 31.425 56 28C56 24.5751 55.3839 21.2943 54.2584 18.261L28 15.8262L1.74158 18.261C0.616109 21.2943 0 24.5751 0 28H0Z" fill="#FFDA44"/>
<path d="M54.2581 18.2609C50.3018 7.59861 40.0386 0 27.9996 0C15.9606 0 5.69741 7.59861 1.74121 18.2609H54.2581Z" fill="#D80027"/>
<path d="M1.74121 37.7393C5.69741 48.4016 15.9606 56.0002 27.9996 56.0002C40.0386 56.0002 50.3018 48.4016 54.2581 37.7393H1.74121Z" fill="#D80027"/>
</g>
<defs>
<clipPath id="clip0_3318_25424">
<rect width="56" height="56" fill="white"/>
</clipPath>
</defs>
</svg>
