<svg width="56" height="56" viewBox="0 0 56 56" fill="none" xmlns="http://www.w3.org/2000/svg">
<g clip-path="url(#clip0_3318_25429)">
<path d="M0.001 4.86963H0V51.1304H0.001V28.0002V4.86963Z" fill="#FF9811"/>
<path d="M27.9999 55.9999C43.4639 55.9999 55.9999 43.4639 55.9999 27.9999C55.9999 12.536 43.4639 0 27.9999 0C12.536 0 0 12.536 0 27.9999C0 43.4639 12.536 55.9999 27.9999 55.9999Z" fill="#FFDA44"/>
<path d="M21.9128 4.86963H12.2184C11.7887 5.1633 11.3683 5.46901 10.9563 5.78543L8.52148 28L10.9563 50.2145C11.3683 50.531 11.7887 50.8367 12.2184 51.1303H21.9128V4.86963Z" fill="#FF9811"/>
<path d="M0 28.0001C0 37.0503 4.29495 45.0962 10.9566 50.2146V5.7854C4.29495 10.9039 0 18.9498 0 28.0001Z" fill="#6DA544"/>
<path d="M45.0439 17.0696V17.7701L45.07 17.7741L45.0439 17.0696Z" fill="#FFDA44"/>
<path d="M53.7684 35.3044H48.4929L46.2611 37.7392V42.6088H41.3915V40.174H43.8263V35.3044H32.8697V38.3478H30.4349V32.5476C29.6879 31.8788 29.2176 30.9075 29.2176 29.8261V14.0001C29.2176 11.9831 30.8527 10.3479 32.8697 10.3479V32.8697H37.7393L39.4101 31.4772C39.1183 30.7821 38.9567 30.0188 38.9567 29.2175V25.5654H35.3045V18.2611H42.6088C42.6088 17.0437 44.4349 15.8263 44.4349 15.8263C44.4349 15.8263 46.2611 17.0436 46.2611 18.2611V20.0872V25.5655C47.6155 25.5816 49.7673 25.5465 52.0921 25.5655C51.4813 24.498 51.1306 23.2313 51.1306 21.9133C51.1306 19.7651 52.0581 17.8338 53.5344 16.4972C51.4064 11.7815 48.0107 7.76063 43.7815 4.86963H25.5654V51.1305H43.7816C48.9244 47.6151 52.8344 42.4295 54.7314 36.355L53.7684 35.3044Z" fill="#A2001D"/>
</g>
<defs>
<clipPath id="clip0_3318_25429">
<rect width="56" height="56" fill="white"/>
</clipPath>
</defs>
</svg>
