<svg width="40" height="40" viewBox="0 0 40 40" fill="none" xmlns="http://www.w3.org/2000/svg">
<g clip-path="url(#clip0_8424_43315)">
<path d="M-7 0H46.3333V40H-7V0Z" fill="#FFB700"/>
<path d="M-4.77539 20.0001L2.55794 2.2251H9.89128V37.7751H2.55794L-4.77539 20.0001Z" fill="#FF5B00"/>
<path d="M-4.77539 2.2251H2.55794V37.7751H-4.77539V2.2251Z" fill="#005641"/>
<path d="M12.1084 2.2251H44.3334V37.7751H12.1084V2.2251Z" fill="#8D2029"/>
<path d="M23.2916 28.3166L23.4833 28.2L23.5666 28.3166C23.6749 28.4666 23.9833 28.4583 24.1833 28.3166L24.3416 28.1916L24.4749 28.3083C24.6416 28.4666 24.9583 28.4666 25.1666 28.3083C25.3083 28.2083 25.3333 28.2 25.4166 28.2833C25.4749 28.3333 25.6416 28.3833 25.7833 28.4083C26.0499 28.4416 26.0499 28.4416 26.1999 28.2083C26.3333 28.0166 26.3499 27.9416 26.3249 27.75C26.3017 27.6036 26.285 27.4562 26.2749 27.3083C26.2583 27.0916 26.2666 27.0916 26.5749 26.975C26.728 26.928 26.8782 26.8724 27.0249 26.8083C27.1499 26.7333 27.4999 26.325 27.4999 26.2416C27.4999 26.225 27.3666 26.1916 27.1999 26.175C26.5333 26.0916 26.4249 25.7416 26.8583 25.0916C27.5499 24.0083 27.9749 22.9666 27.9749 22.3083C27.9749 22.0083 27.9999 21.9083 28.0333 21.975C28.1916 22.2333 27.9083 23.3416 27.4916 24.1416L27.3249 24.4583L27.4833 24.425C27.5666 24.4 28.0999 24.175 28.6499 23.925C30.1666 23.2416 30.6833 23.1083 31.6666 23.15C32.4916 23.1833 32.8333 23.3416 33.4166 23.95C33.7249 24.2833 34.0249 24.5083 34.5666 24.85C35.7166 25.5666 35.7666 25.6333 35.8249 26.4833C35.8833 27.3416 35.8499 27.3916 35.1999 27.5333C34.6416 27.6583 34.2916 27.9166 34.1999 28.2833C34.1499 28.4666 34.2583 28.475 34.5333 28.2916L34.7416 28.1583L34.8333 28.2916C34.9583 28.4666 35.2083 28.4666 35.4166 28.2916L35.5833 28.1666L35.7499 28.2916C35.9999 28.5 36.3333 28.45 36.4333 28.1916C36.4499 28.15 36.4999 28.1583 36.5999 28.25C36.7916 28.4166 37.2666 28.4833 37.3166 28.35C37.3333 28.3 37.2999 28.1833 37.2333 28.0833C36.9583 27.6666 36.8666 27.475 36.8666 27.25C36.8666 26.9333 36.9499 26.775 37.3166 26.525C37.7499 26.2083 37.8833 25.8083 37.5499 25.8083C37.3499 25.8083 37.1416 25.625 37.0083 25.3333C36.7416 24.7333 36.7999 24.0666 37.1999 22.95C37.5066 22.2929 37.6605 21.575 37.6499 20.85C37.6499 20.2333 37.6333 20.1333 37.4999 19.7916C37.3956 19.5541 37.2672 19.3279 37.1166 19.1166L36.8833 18.8083L37.1749 18.5583C38.0749 17.8166 37.8916 16.6 36.8083 16.1333C36.4749 15.9833 36.3916 15.975 35.8083 15.975C35.4749 15.975 34.9333 16.025 34.6416 16.0833C34.2501 16.1453 33.8546 16.1787 33.4583 16.1833C32.8916 16.1833 32.7916 16.1666 32.5749 16.05C32.3499 15.9333 32.3083 15.875 32.2666 15.5916C32.2626 15.5649 32.2522 15.5396 32.2362 15.5178C32.2202 15.4961 32.1992 15.4785 32.1749 15.4666C32.0916 15.4416 31.7416 15.75 31.6916 15.8833C31.6583 15.9583 31.6416 15.95 31.5666 15.8583C31.4959 15.7675 31.4397 15.6663 31.3999 15.5583C31.3166 15.2833 31.4249 15.0833 31.7499 14.925L31.9999 14.8083L31.8499 14.7166C31.5499 14.525 31.0333 14.6583 30.8499 14.9666C30.7916 15.05 30.7333 15.1333 30.7166 15.1333C30.6999 15.1333 30.5999 15.05 30.4999 14.9416C30.1083 14.5583 30.2416 13.9916 30.7666 13.825C31.0416 13.7333 31.2916 13.8 31.3416 13.9916C31.4249 14.2666 31.6583 13.9 31.6166 13.5583C31.5916 13.3333 31.5916 13.325 31.7499 13.325C31.9666 13.325 32.4166 13.6083 32.5666 13.825C32.7333 14.0833 32.7166 14.4916 32.5333 14.7916L32.3916 15.025L32.5833 14.9916C32.8499 14.9333 33.1166 14.7666 33.2499 14.5583C33.3202 14.4256 33.3597 14.2788 33.3654 14.1288C33.3712 13.9787 33.3431 13.8293 33.2833 13.6916C33.1583 13.4666 33.1749 13.4333 33.3583 13.5083C33.6583 13.6333 33.8249 13.775 33.9416 14.0166C34.0583 14.2333 34.0666 14.2833 34.0083 14.5166C33.9684 14.6587 33.9065 14.7937 33.8249 14.9166C33.7249 15.05 33.7166 15.075 33.7999 15.075C33.9499 15.075 34.2499 14.9333 34.3583 14.825C34.4166 14.7583 34.4999 14.6166 34.5416 14.4916L34.6249 14.2833L34.7083 14.45C34.8333 14.675 35.0833 14.8833 35.3833 15.0166C35.7083 15.15 35.8416 15.1583 35.6749 15.0333C35.5583 14.95 35.3416 14.325 35.4166 14.2666C35.7763 14.468 36.1047 14.7207 36.3916 15.0166C36.8666 15.4416 37.1666 15.5833 37.5999 15.5833C38.1583 15.5833 38.4833 15.1 38.2333 14.6416C38.0916 14.375 37.7666 14.3333 37.5666 14.5583C37.4833 14.6666 37.4583 14.75 37.4833 14.8666C37.5166 15 37.5083 15.0166 37.3833 15.0166C37.2166 15.0166 36.8999 14.8083 36.3333 14.3333C35.5445 13.6545 34.6378 13.1263 33.6583 12.775C32.9947 12.6216 32.3094 12.5849 31.6333 12.6666C31.0999 12.7666 30.4666 13.075 30.1166 13.4C29.5083 13.9833 29.4999 14.7583 30.0916 15.4666L30.2583 15.6666L30.1499 15.85C30.0684 15.9813 30.0281 16.134 30.034 16.2884C30.04 16.4428 30.0919 16.592 30.1833 16.7166C30.2666 16.8333 30.3499 16.925 30.3749 16.925C30.3916 16.925 30.4083 16.85 30.4166 16.7583C30.4333 16.5333 30.5333 16.3833 30.6999 16.325C30.8499 16.2666 30.9499 16.3 31.6333 16.575C32.3583 16.8583 33.5499 16.875 34.8166 16.625C35.3656 16.4982 35.9369 16.5039 36.4833 16.6416C37.0833 16.8916 37.2166 17.5333 36.7833 18.0166C36.5916 18.2333 36.4166 18.3166 35.8083 18.4833C35.2786 18.623 34.728 18.6653 34.1833 18.6083C33.2833 18.6 32.9583 18.6166 32.5999 18.6916C32.1916 18.775 31.9499 18.7833 30.7833 18.7583L29.4249 18.725L29.5749 18.8416C29.6553 18.913 29.7417 18.9771 29.8333 19.0333C29.9416 19.0916 29.9333 19.1 29.7833 19.1583C29.6999 19.1916 29.4999 19.2166 29.3416 19.2166H29.0666L29.0333 19.45C29.0108 19.5599 29.0108 19.6733 29.0333 19.7833C29.0666 19.8666 29.0499 19.8833 28.9666 19.85C28.9083 19.825 28.7499 19.7833 28.6083 19.7583C28.4653 19.7277 28.3258 19.683 28.1916 19.625C28.0333 19.5416 28.0166 19.5416 27.9583 19.65C27.9083 19.7333 27.4416 20.0833 27.3749 20.0833C27.3448 19.8671 27.283 19.6565 27.1916 19.4583C27.1083 19.2833 27.0333 19.0833 27.0083 19.025C26.9833 18.9333 26.9666 18.925 26.9249 19C26.8999 19.0416 26.8666 19.1666 26.8416 19.2666C26.8124 19.4016 26.7618 19.531 26.6916 19.65L26.5666 19.8333L26.4833 19.675C26.3999 19.5083 26.2666 19.325 26.2166 19.325C26.1999 19.325 26.1749 19.375 26.1583 19.45C26.1166 19.5833 25.7916 19.975 25.7083 19.975C25.6833 19.975 25.6583 19.8666 25.6583 19.725C25.6583 19.6 25.6333 19.4833 25.5999 19.4833C25.5666 19.4833 25.5416 19.525 25.5416 19.5666C25.5416 19.6666 25.2666 19.9833 25.1666 19.9833C25.1333 19.9833 25.0666 20.0166 25.0249 20.0666C24.9249 20.175 24.8416 20.1583 24.8833 20.0333C24.8949 19.9266 24.8836 19.8186 24.8499 19.7166L24.7666 19.45C24.7499 19.4083 24.6499 19.425 24.4333 19.4916C24.0999 19.6 23.9833 19.575 24.1583 19.4416C24.2249 19.3916 24.3249 19.2166 24.3749 19.0583C24.4333 18.8916 24.5166 18.75 24.5583 18.7333C24.6166 18.7166 24.6166 18.7333 24.5416 18.8333C24.4934 18.8967 24.4618 18.9712 24.4499 19.05C24.4499 19.0916 24.4083 19.2 24.3666 19.2916C24.3166 19.375 24.2833 19.4583 24.2916 19.4666C24.2999 19.475 24.4333 19.425 24.5833 19.3583L24.8499 19.225V19.3416C24.8499 19.4083 24.8833 19.575 24.9249 19.7166L24.9999 19.9666L25.1833 19.8833C25.3666 19.8 25.5416 19.5 25.5416 19.2583C25.5416 19.1416 25.6083 19.1583 25.6416 19.2833C25.6416 19.3166 25.6916 19.4583 25.7249 19.5916L25.8083 19.825L25.9333 19.675C26.0083 19.5916 26.0916 19.425 26.1249 19.3166C26.1916 19.1166 26.2916 19.025 26.2916 19.175C26.2916 19.275 26.5749 19.6583 26.6249 19.625C26.6583 19.6083 26.7083 19.4666 26.7499 19.3083C26.8333 18.975 26.9583 18.7583 27.0416 18.8083C27.0749 18.825 27.0833 18.8583 27.0666 18.8916C27.0499 18.9083 27.1166 19.125 27.2166 19.3583C27.2891 19.5332 27.3613 19.7082 27.4333 19.8833C27.4666 19.9666 27.4999 19.9666 27.7083 19.775C27.8333 19.6583 27.9583 19.5333 27.9666 19.4916C27.9916 19.425 28.0166 19.4333 28.1333 19.5083C28.379 19.6381 28.6481 19.7174 28.9249 19.7416C28.9416 19.725 28.9583 19.575 28.9583 19.4083L28.9666 19.1L29.1333 19.1333C29.2166 19.1583 29.4083 19.1583 29.5499 19.1333L29.7999 19.1L29.5749 18.9333C29.4499 18.85 29.3249 18.7416 29.2916 18.6916C29.2666 18.6416 29.1499 18.5916 29.0249 18.5833C28.6833 18.55 28.0749 18.2166 28.0749 18.05C28.0749 18.0166 28.1583 18.075 28.2583 18.1666C28.4916 18.375 28.8083 18.5 29.0916 18.5H29.2916L29.1666 18.3333C29.0775 18.2041 29.0204 18.0556 28.9999 17.9C28.9833 17.65 28.9583 17.6166 28.6999 17.4416C28.5501 17.3355 28.4106 17.2155 28.2833 17.0833L28.1416 16.925L28.0666 17.1166C28.0249 17.225 27.9833 17.3083 27.9583 17.3083C27.9416 17.3083 27.8583 17.2416 27.7916 17.1666C27.7447 17.1123 27.6882 17.0671 27.6249 17.0333C27.5999 17.0333 27.5416 17.1333 27.4749 17.2583L27.3583 17.4833L27.2749 17.3583C27.2008 17.2561 27.1171 17.1612 27.0249 17.075C26.9249 16.9916 26.8833 16.925 26.9166 16.925C26.9499 16.925 27.0583 17.0083 27.1666 17.1166L27.3499 17.3083L27.4333 17.1666C27.4814 17.0685 27.496 16.9572 27.4749 16.85C27.4416 16.7 27.4499 16.6916 27.4999 16.7916C27.5718 16.8857 27.6559 16.9698 27.7499 17.0416L27.9333 17.1916L28.0583 16.9666C28.1833 16.7333 28.1833 16.7333 28.2333 16.875C28.3166 17.05 28.8583 17.5 29.3166 17.7583C29.3999 17.8 29.3666 17.6666 29.2333 17.3416C29.1932 17.2348 29.1707 17.1223 29.1666 17.0083C29.1666 16.8583 29.1249 16.7916 28.9333 16.6416C28.8141 16.5655 28.7144 16.4625 28.6421 16.341C28.5697 16.2194 28.5268 16.0827 28.5166 15.9416C28.4916 15.8 28.4416 15.65 28.3999 15.6C28.3499 15.5166 28.3333 15.5666 28.3499 15.8166C28.3666 15.9916 28.3416 16.2083 28.2999 16.3L28.2333 16.4666L28.1833 16.325C28.1499 16.25 28.0166 16.1166 27.8916 16.0333C27.7666 15.95 27.6749 15.8666 27.6916 15.85C27.7083 15.8333 27.8416 15.9083 27.9833 16.0166C28.2083 16.1916 28.2499 16.2083 28.2833 16.1333C28.3166 16.05 28.2833 15.6666 28.2166 15.4C28.1833 15.2666 28.1833 15.2666 28.3499 15.4333C28.4666 15.55 28.5333 15.7 28.5916 15.95C28.6583 16.2666 28.6916 16.325 28.9833 16.5833C29.1583 16.7416 29.3166 16.8583 29.3249 16.85C29.3416 16.8333 29.3583 16.4333 29.3749 15.95C29.4083 15.025 29.3749 14.8 29.1499 14.5166L29.0333 14.3666L29.2166 14.175C29.422 13.9785 29.5592 13.7216 29.6083 13.4416L29.6416 13.2166L29.4416 13.4083C29.2749 13.5666 29.1916 13.6 28.9999 13.6C28.8083 13.6 28.7333 13.5666 28.6083 13.4333C28.4136 13.2459 28.1762 13.1086 27.9166 13.0333C27.8166 13 27.7833 13.0166 27.7833 13.0833C27.7833 13.1333 27.7333 13.2666 27.6666 13.3916L27.5499 13.6083L27.2999 13.3583C27.1416 13.2166 26.9666 13.0916 26.8249 13.0583C26.4833 12.975 26.4666 12.975 26.4666 13.2333C26.4666 13.625 26.2999 13.7 25.9999 13.4416C25.7666 13.2416 25.5833 13.1916 25.1416 13.25L24.8083 13.2833L24.8666 13.4333C24.9166 13.5583 24.9083 13.6166 24.7999 13.7583C24.6249 13.9916 24.3999 14.0916 24.0499 14.0916C23.8833 14.0916 23.6833 14.125 23.5999 14.1666C23.5166 14.2083 23.2999 14.25 23.1249 14.2666C22.9583 14.2833 22.7666 14.3166 22.7083 14.3333C22.6249 14.3666 22.6249 14.3333 22.6499 14.15C22.6916 13.8666 22.4833 13.65 22.1749 13.65C21.7666 13.65 21.5833 14.0166 21.7416 14.5C21.774 14.6043 21.8018 14.7099 21.8249 14.8166C21.9344 15.025 22.0813 15.2115 22.2583 15.3666C22.4749 15.5833 22.6749 15.8083 22.7083 15.8666C22.7753 15.9535 22.8607 16.0247 22.9583 16.075L23.1416 16.175L23.1166 15.975C23.0916 15.7583 23.1333 15.725 23.2499 15.8833C23.2916 15.9333 23.3999 16.025 23.4833 16.075C23.6249 16.1583 23.6499 16.1583 23.6499 16.0916C23.6499 16.0416 23.6749 15.9333 23.7083 15.85L23.7666 15.7L23.8749 15.9083C23.9333 16.025 24.1249 16.2833 24.2999 16.4916C24.6416 16.8833 24.8583 17.325 24.7499 17.425C24.6999 17.4666 24.5833 17.4666 24.3333 17.4166C24.1499 17.3833 23.9166 17.3583 23.8166 17.375C23.6249 17.4 23.6083 17.375 23.7333 17.225C23.8583 17.0583 23.8333 17.0333 23.5833 17.0333C23.2916 17.0333 22.5666 16.8916 22.2833 16.7833C22.0166 16.675 21.9499 16.7 21.8666 16.9583L21.7249 17.425L21.6416 17.675L21.9416 17.65C22.0963 17.6338 22.2495 17.6059 22.3999 17.5666C22.459 17.547 22.5211 17.5385 22.5833 17.5416C22.5999 17.55 22.5583 17.65 22.4999 17.7666L22.3833 17.9666L22.5666 17.9333C22.6666 17.9083 22.8166 17.8583 22.8999 17.8166C23.0499 17.75 23.0666 17.75 23.1833 17.9416C23.3249 18.1666 23.4333 18.1583 23.4583 17.9166C23.4833 17.6666 23.5666 17.7 23.7249 18.0333C23.8749 18.35 24.0249 18.4666 24.0583 18.2833C24.0666 18.2166 24.1416 18.1166 24.2333 18.05C24.4166 17.925 24.5499 17.9666 24.6249 18.1583C24.7083 18.3666 24.5249 18.575 24.0083 18.8916C23.5298 19.1558 23.1181 19.5259 22.8047 19.9737C22.4912 20.4215 22.2844 20.935 22.1999 21.475C22.0416 22.4583 22.5333 23.475 23.4999 24.2166C23.9666 24.5666 24.7083 24.9333 24.6583 24.8C24.4583 24.1916 24.4666 23.05 24.6666 22.8583C24.6999 22.825 24.6916 22.9416 24.6416 23.1166C24.4749 23.775 24.5583 24.2916 24.9749 25.5083C25.3416 26.6083 25.2916 27.0833 24.7583 27.3916C24.5916 27.4916 24.4833 27.5083 24.0249 27.5C23.5249 27.5 23.4666 27.5 23.3083 27.6333C23.1168 27.8288 22.9915 28.0795 22.9499 28.35C22.9499 28.4583 23.0666 28.4416 23.2833 28.3166H23.2916Z" fill="#FFB700"/>
<path d="M31.3752 28.2916L31.5835 28.1583L31.7252 28.2916C31.9085 28.4666 32.1335 28.4583 32.3085 28.2833C32.3918 28.1999 32.4585 28.1499 32.4668 28.1583L32.5418 28.2916C32.5835 28.3666 32.6752 28.3999 32.8418 28.4166C33.0335 28.4249 33.0918 28.4166 33.1752 28.2999L33.2585 28.1583L33.4668 28.2916C34.0335 28.6583 34.3335 28.2749 34.0752 27.5166C33.9502 27.1333 34.0252 26.9166 34.4335 26.4333C34.6085 26.2249 34.7502 25.9999 34.7502 25.9333C34.7502 25.8416 34.7168 25.8249 34.4835 25.8333C34.2668 25.8333 34.2002 25.8083 34.0835 25.6833C33.8918 25.4749 33.9085 25.2333 34.1168 24.9666L34.2835 24.7583L33.9835 24.5583C33.744 24.3814 33.5209 24.1834 33.3168 23.9666C33.1349 23.7519 32.9125 23.5752 32.6623 23.4465C32.4121 23.3178 32.1389 23.2397 31.8585 23.2166L31.4668 23.1749V23.4749C31.4668 23.8499 31.6502 24.2166 32.1335 24.8333C32.6835 25.5333 32.7168 25.6416 32.7418 26.5583L32.7668 27.3333L32.6002 27.4833C32.4585 27.6166 32.4002 27.6416 31.9335 27.6666C31.4918 27.6916 31.3918 27.7166 31.2668 27.8333C31.1206 27.94 31.0195 28.0975 30.9835 28.2749C30.9585 28.3999 30.9668 28.4249 31.0585 28.4249C31.1168 28.4249 31.2585 28.3666 31.3752 28.2916ZM19.5252 26.2916C19.5756 26.2176 19.6044 26.1311 19.6085 26.0416C19.6085 25.9583 19.6585 25.9249 19.8752 25.8916L20.1335 25.8583L19.9668 25.7166C19.7585 25.5499 19.7335 25.4249 19.9168 25.4249C20.1002 25.4249 20.4002 25.2416 20.4502 25.0999C20.4752 25.0333 20.4502 24.9499 20.4168 24.9083C20.3168 24.7916 20.1252 24.8083 20.0918 24.9416C20.0502 25.0749 19.9918 25.0749 19.8418 24.9416C19.6335 24.7333 19.6252 24.3083 19.8418 24.0583C19.9335 23.9416 19.9335 23.9416 19.8085 23.8166C19.6752 23.6833 19.5752 23.4333 19.6418 23.3666C19.6585 23.3499 19.7668 23.3666 19.8752 23.4083C20.0418 23.4583 20.1002 23.4583 20.1668 23.4083C20.3585 23.2499 20.1502 23.0499 19.8335 23.0999C19.7002 23.1166 19.6502 23.0999 19.6335 23.0333C19.6168 22.9833 19.5085 22.9166 19.3835 22.8833C19.1585 22.8249 19.1585 22.8249 19.1585 22.9833C19.1585 23.1499 19.0585 23.1833 18.8752 23.0749C18.7252 22.9916 18.5835 23.0583 18.5835 23.2166C18.5835 23.3666 18.7252 23.4333 19.0002 23.4166C19.2002 23.4083 19.2085 23.5583 19.0168 23.7749L18.8752 23.9416L18.9835 24.0999C19.1502 24.3333 19.1335 24.7249 18.9585 24.9249L18.8168 25.0749L18.7252 24.9499C18.5918 24.7833 18.4168 24.7916 18.3668 24.9749C18.3418 25.0916 18.3668 25.1416 18.5168 25.2749C18.6168 25.3583 18.7668 25.4249 18.8418 25.4249C19.0335 25.4249 19.0252 25.5833 18.8252 25.7333L18.6585 25.8583L18.9085 25.8916C19.0418 25.9166 19.1585 25.9499 19.1585 25.9749C19.1585 26.0833 19.3252 26.4083 19.3752 26.4083C19.4085 26.4083 19.4752 26.3499 19.5252 26.2833V26.2916Z" fill="#FFB700"/>
<path d="M22.7084 24.9083C22.9334 24.825 23.4167 24.4083 23.4167 24.3166C23.4167 24.2833 23.2834 24.1333 23.1167 23.9833C22.7834 23.6833 22.4084 23.1583 22.3084 22.8583C22.2584 22.6916 22.0167 22.425 21.3334 21.7583L20.4251 20.8833L20.1667 20.95C20.0167 20.9833 19.8417 21.0166 19.7751 21.0166C19.6501 21.0166 19.6501 21.0166 19.8167 21.15L19.9834 21.2833L20.2334 21.15C20.4584 21.0166 20.4667 21.0166 20.4917 21.125C20.5084 21.1833 20.4751 21.2916 20.4084 21.3666C20.3501 21.4416 20.3167 21.5333 20.3251 21.5583C20.3501 21.5833 20.2917 21.6416 20.2001 21.6916C20.0334 21.775 19.9084 22.05 20.0417 22.05C20.1667 22.05 20.4334 21.7166 20.4001 21.6083C20.3834 21.55 20.4001 21.4916 20.4167 21.475C20.5251 21.4166 20.5167 21.675 20.4167 21.8083C20.3501 21.875 20.3167 21.9583 20.3334 21.9916C20.3501 22.0166 20.2917 22.075 20.2001 22.125C20.0334 22.2083 19.9084 22.4833 20.0417 22.4833C20.1751 22.4833 20.4334 22.1666 20.4084 22.05C20.3917 21.9916 20.3917 21.925 20.4167 21.9083C20.4917 21.875 20.5251 22.075 20.4667 22.175C20.4514 22.2031 20.4434 22.2346 20.4434 22.2666C20.4434 22.2987 20.4514 22.3302 20.4667 22.3583C20.5251 22.4666 20.4667 22.6666 20.3584 22.7333C20.3167 22.7583 20.3417 22.8166 20.4584 22.9C20.6251 23.0166 20.6251 23.0333 20.6251 23.5666C20.6251 24.0166 20.6417 24.1333 20.7251 24.2083C20.8084 24.2916 20.8251 24.2916 20.8251 24.2083C20.8251 24.125 20.9917 24.0083 21.1167 24.0083C21.1584 24.0083 21.4001 24.2166 21.6584 24.4666C21.9167 24.7166 22.1917 24.9416 22.2667 24.95L22.4501 24.9833C22.4751 24.9833 22.5917 24.9583 22.7084 24.9V24.9083ZM19.9334 22.7333C19.9334 22.5916 19.6334 22.4333 19.2751 22.4C18.9834 22.3583 18.9834 22.3666 18.9834 22.5083C18.9834 22.625 19.0251 22.675 19.2334 22.7583C19.5501 22.9 19.9334 22.8833 19.9334 22.7333Z" fill="#FFB700"/>
<path d="M20.2586 22.7166C20.4086 22.5833 20.4752 22.4333 20.3836 22.4333C20.2836 22.4333 20.0169 22.6666 20.0169 22.7666C20.0169 22.9 20.0669 22.8916 20.2669 22.7166H20.2586ZM19.9502 22.2916C19.9586 22.2083 19.9086 22.1583 19.7586 22.0833C19.4252 21.9416 19.0419 21.8666 18.9502 21.9416C18.7752 22.0833 18.8919 22.2666 19.1669 22.3C19.2836 22.3083 19.4336 22.3416 19.5086 22.375C19.7252 22.4583 19.9252 22.4166 19.9502 22.2916ZM19.9502 21.85C19.9669 21.7416 19.8919 21.7 19.2836 21.4833C18.8252 21.3166 18.6252 21.4 18.7752 21.675C18.8252 21.7666 18.9086 21.8083 19.1002 21.8416C19.2419 21.8583 19.4336 21.9 19.5252 21.9333C19.7752 22.0166 19.9252 21.9833 19.9419 21.85H19.9502ZM20.2502 21.4416C20.3419 21.35 20.4169 21.2416 20.4169 21.1916C20.4169 21.0666 20.0586 21.3 20.0086 21.4666C19.9586 21.6583 20.0502 21.65 20.2586 21.4416H20.2502ZM19.9502 21.4166C19.9669 21.2833 19.7502 21.1666 19.3169 21.075C18.9919 21 18.8502 21.0416 18.8752 21.1916C18.8919 21.275 19.0002 21.3333 19.2919 21.425C19.7836 21.575 19.9252 21.575 19.9502 21.4166ZM20.3669 20.8C20.9336 20.55 20.9752 19.925 20.4502 19.7583C20.2336 19.6916 20.1002 19.7333 20.0169 19.875C19.9502 19.9916 19.9919 20.1916 20.0752 20.1916C20.1086 20.1916 20.1336 20.2333 20.1336 20.275C20.1336 20.5 19.2836 20.5916 18.9336 20.4166C18.8086 20.3583 18.7669 20.1916 18.8586 20.1916C18.9419 20.1916 18.9919 20.025 18.9502 19.9166C18.9002 19.75 18.7336 19.7 18.5086 19.7666C17.9836 19.9 18.0002 20.5166 18.5336 20.7666C19.1236 20.9832 19.7694 20.995 20.3669 20.8Z" fill="#FFB700"/>
<path d="M20.0255 20.3166C20.0589 20.2833 20.0422 20.2333 19.9922 20.2C19.8755 20.1083 19.8839 19.9666 20.0089 19.8083C20.1089 19.6916 20.1172 19.5083 20.1505 17.7166C20.2089 14.625 20.4422 12.3 20.7422 11.7333C20.8672 11.5166 20.8505 11.5166 20.5339 11.7333C20.1184 12.0227 19.783 12.4126 19.5589 12.8666C19.0422 13.825 18.8672 15.1166 18.8672 17.8833C18.8672 19.45 18.8755 19.6583 18.9672 19.8C19.0505 19.95 19.0505 20 19.0005 20.15C18.9589 20.2416 18.9422 20.3416 18.9589 20.3583C19.0755 20.4666 19.9089 20.4416 20.0255 20.3166ZM24.7005 17.3666C24.7255 17.3416 24.6839 17.2 24.6172 17.0666C24.5172 16.85 24.4755 16.8166 24.3339 16.8166C23.6675 16.7587 23.0177 16.5779 22.4172 16.2833C21.9922 16.0916 21.8339 16.05 21.7922 16.1C21.6589 16.225 21.8755 16.5166 22.2089 16.675C22.6994 16.8517 23.2132 16.9556 23.7339 16.9833C23.9589 16.9833 23.9672 16.9833 23.8339 17.175L23.7505 17.3083H24.0005L24.4172 17.3583C24.6672 17.4166 24.6672 17.4166 24.7005 17.3666Z" fill="#FFB700"/>
<path d="M27.334 18.7583C27.334 18.675 27.0923 18.4666 26.859 18.325C26.6673 18.2166 26.634 18.2083 26.634 18.3C26.634 18.4333 26.5173 18.775 26.4673 18.775C26.4423 18.775 26.4006 18.7083 26.384 18.6333C26.359 18.55 26.2673 18.3833 26.1756 18.275L26.009 18.0666L25.8923 18.2583C25.7756 18.4416 25.5673 18.6166 25.4756 18.6166C25.459 18.6166 25.4506 18.5166 25.4756 18.4083C25.484 18.275 25.4756 18.175 25.434 18.1583C25.4006 18.1333 25.3673 18.1416 25.3673 18.175C25.3673 18.2416 25.084 18.5583 25.034 18.5583C25.0006 18.5583 24.9673 18.475 24.9506 18.3583L24.884 17.9583C24.8673 17.8583 24.909 17.925 24.9673 18.125L25.1006 18.4666L25.234 18.2583C25.2943 18.1722 25.3394 18.0764 25.3673 17.975C25.3673 17.9333 25.3923 17.9166 25.4256 17.9333C25.459 17.95 25.5006 18.0916 25.5173 18.2416L25.559 18.525L25.709 18.3583C25.7875 18.2747 25.8599 18.1856 25.9256 18.0916C25.984 17.9916 25.9923 17.9916 26.1173 18.0916C26.184 18.1583 26.2923 18.3 26.359 18.4166C26.4256 18.5333 26.484 18.6166 26.4923 18.6083L26.5423 18.3416L26.5756 18.0916C26.584 18.05 27.0256 18.3416 27.1923 18.4833C27.2923 18.575 27.3923 18.6416 27.409 18.625C27.4256 18.6083 27.4423 18.475 27.4423 18.3166C27.4423 18.0833 27.4173 18.0166 27.2756 17.8916C27.109 17.7416 27.109 17.7416 27.0423 17.85C26.959 17.9916 26.8673 17.9916 26.8673 17.85C26.8673 17.75 26.5506 17.3583 26.4756 17.3583C26.4506 17.3583 26.384 17.4416 26.3256 17.55C26.2673 17.6583 26.2006 17.7416 26.184 17.7416C26.1006 17.7416 25.659 17.2416 25.659 17.1583C25.659 17.0916 25.6923 17.1083 25.7673 17.225C25.8418 17.3344 25.9284 17.4351 26.0256 17.525C26.1923 17.675 26.259 17.6416 26.3256 17.35C26.3506 17.2666 26.384 17.2 26.409 17.2C26.4756 17.2 26.859 17.6083 26.909 17.7416L26.9673 17.875L27.009 17.725C27.059 17.5416 27.1173 17.5416 27.2006 17.7083C27.234 17.775 27.4006 17.925 27.5673 18.025L27.8756 18.225L27.934 18.025C27.9673 17.9166 28.0173 17.8583 28.034 17.8916C28.0673 17.9333 27.984 18.2666 27.9256 18.3333C27.9256 18.3416 27.8173 18.2833 27.709 18.2083L27.5006 18.0583V18.325C27.5006 18.4666 27.484 18.6416 27.4673 18.7083C27.4256 18.8416 27.3256 18.875 27.3256 18.7583H27.334ZM25.7923 16.6416C25.4256 16.3416 25.3756 16.275 25.3756 16.125L25.384 15.975L25.409 16.1166C25.4256 16.2 25.5256 16.3333 25.6423 16.4333L25.859 16.6L25.984 16.45C26.059 16.3666 26.1173 16.2666 26.1173 16.2333C26.1173 16.1333 26.134 16.1416 26.384 16.3583C26.6006 16.55 26.609 16.55 26.634 16.425C26.659 16.3583 26.6506 16.225 26.634 16.1333C26.5506 15.8833 26.5673 15.85 26.6756 16L26.8756 16.2333C26.959 16.325 26.9673 16.325 27.0006 16.2083C27.0256 16.1333 27.0423 16.0083 27.0423 15.925V15.7666L27.234 15.9916C27.4256 16.2083 27.4423 16.2166 27.4923 16.1083C27.534 16.05 27.559 15.9083 27.559 15.8C27.559 15.65 27.5756 15.6166 27.609 15.6666C27.6756 15.7666 27.634 16.0166 27.5173 16.2333L27.434 16.4L27.3256 16.225C27.184 16.0083 27.134 16.0083 27.0506 16.2416C26.9673 16.4666 26.909 16.4833 26.8256 16.3083C26.7756 16.2 26.759 16.2166 26.7256 16.45L26.684 16.7L26.434 16.5083L26.184 16.3166L26.059 16.4416C26.0006 16.5166 25.9506 16.6083 25.9506 16.6416C25.9506 16.725 25.884 16.725 25.7923 16.6416ZM29.0423 15.5083C28.9173 15.3916 28.8256 15.275 28.8423 15.2583C28.8673 15.2333 28.884 15.225 28.8923 15.2416C28.973 15.3276 29.0563 15.411 29.1423 15.4916C29.4256 15.7916 29.3673 15.8 29.0506 15.5083H29.0423ZM24.709 15.0583C24.5923 14.8916 24.6006 14.7916 24.7506 14.6083C24.8506 14.4833 24.9006 14.4666 25.084 14.4916C25.209 14.5 25.4673 14.6083 25.659 14.725C25.9359 14.8905 26.253 14.9769 26.5756 14.975L26.434 14.7416C26.2506 14.4666 26.2506 14.4333 26.4673 14.6C26.684 14.775 26.9423 14.825 27.5256 14.8083L27.809 14.8L27.6423 14.6333C27.4173 14.4083 27.484 14.3833 27.7423 14.6083C27.9756 14.8166 27.9673 14.8333 27.459 14.8833C27.247 14.9047 27.0329 14.8906 26.8256 14.8416C26.5423 14.7583 26.5256 14.7666 26.584 14.8583C26.6173 14.9166 26.6673 14.9583 26.6923 14.9583C26.7256 14.9583 26.7506 14.9916 26.7506 15.025C26.7506 15.1333 26.134 15.0333 25.834 14.8916C25.1673 14.55 25.084 14.5166 24.9173 14.5666C24.8729 14.5837 24.8324 14.6095 24.798 14.6424C24.7637 14.6753 24.7362 14.7147 24.7173 14.7583C24.609 15.0333 25.0006 15.25 25.159 15.0083C25.209 14.9333 25.2006 14.8916 25.1173 14.8C25.0006 14.6833 25.0173 14.6666 25.1673 14.7166C25.2756 14.7583 25.284 15.0166 25.184 15.1166C25.0756 15.225 24.809 15.2 24.709 15.0583Z" fill="black"/>
<path d="M27.3669 14.3832C27.2835 14.2999 27.3502 14.2832 27.7252 14.2749C28.1919 14.2666 28.4752 14.1916 28.8085 13.9749C29.0752 13.8082 29.1502 13.8416 28.8919 14.0166C28.6669 14.1832 28.3085 14.2999 27.9502 14.3332L27.5252 14.3916C27.4585 14.4082 27.3835 14.3999 27.3585 14.3832H27.3669Z" fill="black"/>
</g>
<defs>
<clipPath id="clip0_8424_43315">
<rect width="40" height="40" rx="20" fill="white"/>
</clipPath>
</defs>
</svg>
