<svg width="56" height="56" viewBox="0 0 56 56" fill="none" xmlns="http://www.w3.org/2000/svg">
<g clip-path="url(#clip0_3318_25485)">
<path d="M28 56C43.464 56 56 43.464 56 28C56 12.536 43.464 0 28 0C12.536 0 0 12.536 0 28C0 43.464 12.536 56 28 56Z" fill="#FFDA44"/>
<path d="M21.9132 24.3479H55.763C53.9733 10.6096 42.2261 0 28 0C25.9094 0 23.873 0.231109 21.9131 0.665547V24.3479H21.9132Z" fill="#0052B4"/>
<path d="M14.609 24.3475V3.4043C6.92055 7.59927 1.41669 15.2939 0.237305 24.3476H14.609V24.3475Z" fill="#0052B4"/>
<path d="M14.6088 31.6523H0.237305C1.41669 40.7061 6.92055 48.4007 14.609 52.5956L14.6088 31.6523Z" fill="#0052B4"/>
<path d="M21.9131 31.6525V55.3347C23.873 55.7691 25.9094 56.0002 28 56.0002C42.2261 56.0002 53.9733 45.3906 55.763 31.6523H21.9131V31.6525Z" fill="#0052B4"/>
</g>
<defs>
<clipPath id="clip0_3318_25485">
<rect width="56" height="56" fill="white"/>
</clipPath>
</defs>
</svg>
