<svg width="40" height="40" viewBox="0 0 40 40" fill="none" xmlns="http://www.w3.org/2000/svg">
<g clip-path="url(#clip0_8424_43174)">
<path d="M-10 0H50V40H-10V0Z" fill="#FF0000"/>
<path d="M-10 0H20V20H-10V0Z" fill="#000095"/>
<path d="M2.83333 10.575L2.625 11.375L3.40833 11.5917L3.25833 11L2.83333 10.575ZM6.74167 11L6.59167 11.5917L7.375 11.375L7.16667 10.575L6.74167 11ZM3.25833 9L2.83333 9.425L2.99167 10L3.25833 9Z" fill="white"/>
<path d="M2.99134 10L2.83301 10.575L3.25801 11L2.99134 10Z" fill="white"/>
<path d="M2.83281 9.42529L2.25781 10.0003L2.83281 10.5753L2.99114 10.0003L2.83281 9.42529ZM3.99948 11.742L4.42448 12.167L4.99948 12.0086L3.99948 11.742ZM5.57448 12.167L6.37448 12.3753L6.59115 11.592L5.99948 11.742L5.57448 12.167Z" fill="white"/>
<path d="M5.99987 11.7417L6.59154 11.5917L6.74154 11L5.99987 11.7417ZM3.4082 11.5917L3.62487 12.375L4.42487 12.1667L3.99987 11.7417L3.4082 11.5917ZM4.99987 12.0083L5.57487 12.1667L5.99987 11.7417L4.99987 12.0083Z" fill="white"/>
<path d="M4.425 12.1663L5 12.7413L5.575 12.1663L5 12.008L4.425 12.1663ZM3.40833 8.40796L2.625 8.62463L2.83333 9.42463L3.25833 8.99963L3.40833 8.40796ZM3.25833 10.9996L3.40833 11.5913L4 11.7413L3.25833 10.9996ZM7.00833 9.99963L7.16667 9.42463L6.74167 8.99963L7.00833 9.99963Z" fill="white"/>
<path d="M3.99948 8.25867L3.40781 8.40867L3.25781 9.00033L3.99948 8.25867ZM6.74114 9.00033L6.59115 8.40867L5.99948 8.25867L6.74114 9.00033ZM7.16615 10.5753L7.74114 10.0003L7.16615 9.42533L7.00781 10.0003L7.16615 10.5753Z" fill="white"/>
<path d="M6.74219 8.99967L6.00052 8.258L5.00052 7.99133L4.00052 8.258L3.25886 8.99967L2.99219 9.99967L3.25886 10.9997L4.00052 11.7413L5.00052 12.008L6.00052 11.7413L6.74219 10.9997L7.00886 9.99967L6.74219 8.99967Z" fill="white"/>
<path d="M6.74154 11L7.16654 10.575L7.0082 10L6.74154 11ZM7.16654 9.425L7.37487 8.625L6.59154 8.40833L6.74154 9L7.16654 9.425ZM6.59154 8.40833L6.37487 7.625L5.57487 7.83333L5.99987 8.25833L6.59154 8.40833ZM4.42487 7.83333L3.62487 7.625L3.4082 8.40833L3.99987 8.25833L4.42487 7.83333ZM4.99987 7.99167L4.42487 7.83333L3.99987 8.25833L4.99987 7.99167Z" fill="white"/>
<path d="M5.5748 7.83367L4.9998 7.25867L4.4248 7.83367L4.9998 7.992L5.5748 7.83367Z" fill="white"/>
<path d="M6.00045 8.25837L5.57545 7.83337L5.00046 7.99171L6.00045 8.25837ZM4.42546 12.1667L3.62546 12.375L4.00046 13.7584L5.00046 12.7417L4.42546 12.1667ZM4.00046 13.7584L5.00046 17.5L6.00045 13.7584L5.00046 12.7417L4.00046 13.7584ZM3.40879 11.5917L2.62546 11.375L2.25879 12.7417L3.62546 12.375L3.40879 11.5917Z" fill="white"/>
<path d="M2.25833 12.7417L1.25833 16.5L4 13.7583L3.625 12.375L2.25833 12.7417ZM1.25833 11L-1.5 13.7583L2.25833 12.7417L2.625 11.375L1.25833 11Z" fill="white"/>
<path d="M2.83379 10.575L2.25879 10L1.25879 11L2.62546 11.375L2.83379 10.575ZM2.83379 9.425L2.62546 8.625L1.25879 9L2.25879 10L2.83379 9.425Z" fill="white"/>
<path d="M1.25833 9L-2.5 10L1.25833 11L2.25833 10L1.25833 9ZM8.75833 11L7.375 11.375L7.74167 12.7417L11.5 13.7583L8.75833 11Z" fill="white"/>
<path d="M6.59167 11.5917L6.375 12.375L7.74167 12.7417L7.375 11.375L6.59167 11.5917ZM5.575 12.1667L5 12.7417L6 13.7583L6.375 12.375L5.575 12.1667ZM7.16667 10.575L7.375 11.375L8.75833 11L7.74167 10L7.16667 10.575Z" fill="white"/>
<path d="M6 13.7587L8.75833 16.5003L7.74167 12.742L6.375 12.3753L6 13.7587ZM6.59167 8.40867L7.375 8.62533L7.74167 7.25867L6.375 7.62533L6.59167 8.40867Z" fill="white"/>
<path d="M8.75833 9L11.5 6.25833L7.74167 7.25833L7.375 8.625L8.75833 9ZM7.74167 7.25833L8.75833 3.5L6 6.25833L6.375 7.625L7.74167 7.25833ZM8.75833 11L12.5 10L8.75833 9L7.74167 10L8.75833 11Z" fill="white"/>
<path d="M7.16712 9.425L7.74212 10L8.75879 9L7.37546 8.625L7.16712 9.425ZM4.00046 6.25833L1.25879 3.5L2.25879 7.25833L3.62546 7.625L4.00046 6.25833Z" fill="white"/>
<path d="M3.40781 8.40867L3.62448 7.62533L2.25781 7.25867L2.62448 8.62533L3.40781 8.40867Z" fill="white"/>
<path d="M2.25833 7.25867L-1.5 6.25867L1.25833 9.00033L2.625 8.62533L2.25833 7.25867ZM5.575 7.83367L6.375 7.62533L6 6.25867L5 7.25867L5.575 7.83367Z" fill="white"/>
<path d="M6 6.25833L5 2.5L4 6.25833L5 7.25833L6 6.25833Z" fill="white"/>
<path d="M4.425 7.83367L5 7.25867L4 6.25867L3.625 7.62533L4.425 7.83367Z" fill="white"/>
<path d="M5.00052 14.258C7.35233 14.258 9.25885 12.3515 9.25885 9.99967C9.25885 7.64785 7.35233 5.74133 5.00052 5.74133C2.64871 5.74133 0.742188 7.64785 0.742188 9.99967C0.742188 12.3515 2.64871 14.258 5.00052 14.258Z" fill="#000095"/>
<path d="M5.00052 13.758C7.07619 13.758 8.75886 12.0753 8.75886 9.99967C8.75886 7.924 7.07619 6.24133 5.00052 6.24133C2.92485 6.24133 1.24219 7.924 1.24219 9.99967C1.24219 12.0753 2.92485 13.758 5.00052 13.758Z" fill="white"/>
</g>
<defs>
<clipPath id="clip0_8424_43174">
<rect width="40" height="40" rx="20" fill="white"/>
</clipPath>
</defs>
</svg>
