<svg width="56" height="56" viewBox="0 0 56 56" fill="none" xmlns="http://www.w3.org/2000/svg">
<g clip-path="url(#clip0_3318_25502)">
<path d="M56 28C56 43.4639 43.4639 56 28 56C12.5361 56 0 43.4639 0 28C9.61734 18.3827 17.7739 10.2261 28 0C43.4639 0 56 12.5361 56 28Z" fill="#D80027"/>
<path d="M28 28C28 12.5361 28 10.7131 28 0C12.5361 0 0 12.5361 0 28H28Z" fill="#0052B4"/>
<path d="M24.348 16.3867L20.9284 17.9954L22.7493 21.3072L19.0361 20.5967L18.5655 24.3479L15.9792 21.5891L13.3927 24.3479L12.9223 20.5967L9.20898 21.307L11.0299 17.9952L7.61035 16.3867L11.03 14.7784L9.20898 11.4665L12.9221 12.1769L13.3928 8.42578L15.9792 11.1847L18.5656 8.42578L19.0361 12.1769L22.7494 11.4665L20.9284 14.7785L24.348 16.3867Z" fill="#F0F0F0"/>
<path d="M15.9796 21.5982C18.8582 21.5982 21.1917 19.2647 21.1917 16.3861C21.1917 13.5076 18.8582 11.1741 15.9796 11.1741C13.1011 11.1741 10.7676 13.5076 10.7676 16.3861C10.7676 19.2647 13.1011 21.5982 15.9796 21.5982Z" fill="#0052B4"/>
<path d="M15.9793 19.1639C14.4479 19.1639 13.2021 17.918 13.2021 16.3866C13.2021 14.8553 14.448 13.6094 15.9793 13.6094C17.5106 13.6094 18.7565 14.8553 18.7565 16.3866C18.7564 17.918 17.5104 19.1639 15.9793 19.1639Z" fill="#F0F0F0"/>
</g>
<defs>
<clipPath id="clip0_3318_25502">
<rect width="56" height="56" fill="white"/>
</clipPath>
</defs>
</svg>
