<svg width="40" height="40" viewBox="0 0 40 40" fill="none" xmlns="http://www.w3.org/2000/svg">
<g clip-path="url(#clip0_8424_43180)">
<path d="M-7 0H46.3333V40H-7V0Z" fill="#006600"/>
<path d="M-7 0H46.3333V28.575H-7V0Z" fill="white"/>
<path d="M-7 0H46.3333V11.425H-7V0Z" fill="#CC0000"/>
<path d="M18.0667 19.4666C18.1452 19.3335 18.2647 19.2293 18.4073 19.1696C18.5499 19.1099 18.7079 19.0979 18.8579 19.1354C19.0078 19.1729 19.1416 19.2579 19.2394 19.3776C19.3371 19.4974 19.3934 19.6455 19.4001 19.8V22.6666H19.9334V19.8083C19.94 19.6539 19.9964 19.5057 20.0941 19.386C20.1918 19.2662 20.3256 19.1812 20.4756 19.1437C20.6255 19.1062 20.7836 19.1182 20.9262 19.1779C21.0688 19.2376 21.1882 19.3418 21.2667 19.475C21.3494 19.2222 21.3709 18.9535 21.3297 18.6908C21.2885 18.4281 21.1856 18.1789 21.0295 17.9637C20.8734 17.7484 20.6685 17.5732 20.4316 17.4524C20.1948 17.3315 19.9326 17.2686 19.6667 17.2686C19.4008 17.2686 19.1387 17.3315 18.9018 17.4524C18.665 17.5732 18.4601 17.7484 18.304 17.9637C18.1479 18.1789 18.045 18.4281 18.0038 18.6908C17.9625 18.9535 17.9841 19.2222 18.0667 19.475" fill="#F8C300"/>
<path d="M18.4502 18.7249C18.6842 18.6766 18.9274 18.7028 19.1457 18.8C19.364 18.8972 19.5462 19.0604 19.6669 19.2666C19.7875 19.0604 19.9698 18.8972 20.188 18.8C20.4063 18.7028 20.6496 18.6766 20.8835 18.7249C20.8486 18.4268 20.7054 18.1519 20.4811 17.9523C20.2568 17.7528 19.9671 17.6426 19.6669 17.6426C19.3667 17.6426 19.0769 17.7528 18.8526 17.9523C18.6284 18.1519 18.4852 18.4268 18.4502 18.7249Z" fill="white"/>
<path d="M19.4007 21.5254C19.3652 21.9315 19.216 22.3194 18.97 22.6445C18.724 22.9696 18.3913 23.2187 18.01 23.3632C17.6288 23.5077 17.2146 23.5417 16.8149 23.4613C16.4152 23.3809 16.0464 23.1894 15.7507 22.9087C15.6253 23.2288 15.4282 23.5158 15.1746 23.7478C14.921 23.9799 14.6176 24.1507 14.2878 24.2473C13.9579 24.3438 13.6102 24.3635 13.2716 24.3048C12.9329 24.2461 12.6122 24.1106 12.334 23.9087C12.5423 25.9921 15.6673 25.5671 15.9007 23.5421C16.8756 25.2671 19.034 24.7671 19.6673 22.6587L19.4007 21.5254Z" fill="#F8C300"/>
<path d="M17.3167 25.2168C16.875 26.1585 16.0083 26.3168 15.25 25.5585C15.25 25.5585 15.55 25.3418 15.8833 25.2835C15.8167 25.0251 15.9417 24.6585 16.125 24.4668C16.3677 24.626 16.5474 24.8646 16.6333 25.1418C17.0917 25.0835 17.3167 25.2251 17.3167 25.2251V25.2168Z" fill="#F8C300"/>
<path fill-rule="evenodd" clip-rule="evenodd" d="M25.0775 27.7557C21.5467 26.7047 17.7864 26.7047 14.2557 27.7557L13.9941 26.8771C17.6955 25.7753 21.6376 25.7753 25.339 26.8771L25.0775 27.7557Z" fill="#F8C300"/>
<path d="M20.5299 14.904L18.2715 13.2631H21.0631L18.8046 14.904L19.6673 12.249L20.5299 14.904Z" fill="#F8C300"/>
</g>
<defs>
<clipPath id="clip0_8424_43180">
<rect width="40" height="40" rx="20" fill="white"/>
</clipPath>
</defs>
</svg>
