<svg width="56" height="56" viewBox="0 0 56 56" fill="none" xmlns="http://www.w3.org/2000/svg">
<g clip-path="url(#clip0_3318_25526)">
<path d="M28 56C43.464 56 56 43.464 56 28C56 12.536 43.464 0 28 0C12.536 0 0 12.536 0 28C0 43.464 12.536 56 28 56Z" fill="#F0F0F0"/>
<path d="M54.2584 18.261H1.74158C0.616 21.2943 0 24.5751 0 28.0001C0 31.425 0.616 34.7058 1.74158 37.7391H54.2585C55.384 34.7058 56 31.425 56 28.0001C56 24.5751 55.384 21.2943 54.2584 18.261Z" fill="#0052B4"/>
<path d="M27.9998 0C19.5133 0 11.9092 3.77606 6.77441 9.73908H49.2252C44.0904 3.77606 36.4864 0 27.9998 0Z" fill="#D80027"/>
<path d="M49.2253 46.261H6.77441C11.9092 52.224 19.5133 56.0001 27.9998 56.0001C36.4864 56.0001 44.0904 52.224 49.2253 46.261Z" fill="#D80027"/>
</g>
<defs>
<clipPath id="clip0_3318_25526">
<rect width="56" height="56" fill="white"/>
</clipPath>
</defs>
</svg>
