<svg width="40" height="40" viewBox="0 0 40 40" fill="none" xmlns="http://www.w3.org/2000/svg">
<g clip-path="url(#clip0_8424_43179)">
<path d="M-7 0H46.3333V40H-7V0Z" fill="#00247D"/>
<path d="M2.00833 29.5502C1.45 29.5418 7.24167 26.4668 12.0833 22.5168C18.4333 17.3418 32.1083 9.06684 36.1333 7.71684C36.55 7.57517 35.275 8.43351 35.1083 8.70851C30.8167 13.7918 34.2417 23.3752 39.6083 28.2002C41.225 29.4335 41.1417 29.5002 44.1333 29.6168V29.9002L2.00833 29.5502ZM1.65833 30.1085C1.65833 30.1085 1.25 30.4002 1.25 30.6168C1.25 30.8585 1.70833 31.1752 1.70833 31.1752L43.25 31.6335L44.0167 31.1252L42.95 30.4668L1.65833 30.1085Z" fill="#FED100"/>
<path d="M1.90065 9.09089L1.56732 10.1076L2.43398 9.48255L3.29232 10.1076L2.96732 9.09089L3.82565 8.46589H2.75898L2.43398 7.44922L2.10065 8.46589H1.03398L1.90065 9.09089ZM8.40898 13.8742L9.12565 13.3492H8.23398L7.95898 12.5076L7.68398 13.3492H6.80065L7.51732 13.8742L7.24232 14.7159L7.95898 14.1909L8.68398 14.7159L8.40898 13.8742ZM-3.69102 14.9576L-4.02435 13.9409L-4.34935 14.9576H-5.41602L-4.55768 15.5826L-4.88268 16.5992L-4.02435 15.9742L-3.15768 16.5992L-3.49102 15.5826L-2.62435 14.9576H-3.69102ZM2.81732 25.1492L2.43398 23.9659L2.05065 25.1492H0.800651L1.80898 25.8742L1.42565 27.0659L2.43398 26.3326L3.44232 27.0659L3.05065 25.8742L4.05898 25.1492H2.81732Z" fill="white"/>
</g>
<defs>
<clipPath id="clip0_8424_43179">
<rect width="40" height="40" rx="20" fill="white"/>
</clipPath>
</defs>
</svg>
