<svg width="40" height="40" viewBox="0 0 40 40" fill="none" xmlns="http://www.w3.org/2000/svg">
<g clip-path="url(#clip0_8424_43177)">
<path fill-rule="evenodd" clip-rule="evenodd" d="M-10 0H50V40H-10V0Z" fill="#E70013"/>
<path fill-rule="evenodd" clip-rule="evenodd" d="M30.1406 19.9844C30.1406 22.6593 29.078 25.2247 27.1865 27.1162C25.295 29.0077 22.7296 30.0703 20.0547 30.0703C17.3797 30.0703 14.8143 29.0077 12.9229 27.1162C11.0314 25.2247 9.96875 22.6593 9.96875 19.9844C9.96875 17.3094 11.0314 14.744 12.9229 12.8525C14.8143 10.9611 17.3797 9.89844 20.0547 9.89844C22.7296 9.89844 25.295 10.9611 27.1865 12.8525C29.078 14.744 30.1406 17.3094 30.1406 19.9844Z" fill="white"/>
<path fill-rule="evenodd" clip-rule="evenodd" d="M20.0545 26.6719C18.3194 26.6126 16.6752 25.8816 15.4687 24.6332C14.2623 23.3848 13.5879 21.7166 13.5879 19.9805C13.5879 18.2444 14.2623 16.5761 15.4687 15.3277C16.6752 14.0793 18.3194 13.3484 20.0545 13.2891C20.9764 13.2891 22.0311 13.5078 22.742 14.0312C17.8514 14.2109 16.6092 18.3672 16.6092 20.0391C16.6092 21.7109 17.3983 25.4375 22.742 25.9922C22.1327 26.3828 20.9764 26.6719 20.0545 26.6719Z" fill="#E70013"/>
<path fill-rule="evenodd" clip-rule="evenodd" d="M25.9453 22.7969L22.9063 21.6875L20.8984 24.2188L21.0156 20.9922L17.9844 19.8594L21.0938 18.9688L21.2266 15.7422L23.0391 18.4219L26.1484 17.5625L24.1563 20.1016L25.9453 22.7969Z" fill="#E70013"/>
</g>
<defs>
<clipPath id="clip0_8424_43177">
<rect width="40" height="40" rx="20" fill="white"/>
</clipPath>
</defs>
</svg>
