<svg width="40" height="40" viewBox="0 0 40 40" fill="none" xmlns="http://www.w3.org/2000/svg">
<g clip-path="url(#clip0_8424_43178)">
<path fill-rule="evenodd" clip-rule="evenodd" d="M-10 0H50V40H-10V0Z" fill="#00843D"/>
<path fill-rule="evenodd" clip-rule="evenodd" d="M10.5703 10.7422C12.75 11.7891 15.3438 10.7422 16.2813 9.28906C17.25 7.92969 17.3672 5.65625 15.7031 3.57031C18.2813 5.71094 18.8594 8.14063 17.5703 10.1406C15.8516 12.4297 12.0547 12.3594 10.5703 10.7422Z" fill="white"/>
<path fill-rule="evenodd" clip-rule="evenodd" d="M14.4375 5.42188L14.875 5.42969L14.5313 5.70312L14.6641 6.14062L14.2969 5.88281L13.9453 6.14062L14.0625 5.71094L13.7109 5.4375L14.1484 5.42969L14.2969 5L14.4375 5.42188ZM12.2734 8.14062H12.7109L12.3672 8.42188L12.5 8.85156L12.1328 8.59375L11.7734 8.85938L11.8984 8.42188L11.5469 8.15625L11.9844 8.14062L12.125 7.71094L12.2734 8.14062ZM12.4141 6H12.8594L12.5078 6.28125L12.6406 6.71094L12.2813 6.45312L11.9219 6.71875L12.0469 6.28125L11.6953 6.00781L12.1328 6L12.2734 5.57031L12.4141 6ZM12.4141 3.85156H12.8594L12.5 4.14062L12.6328 4.57031L12.2734 4.32031L11.9141 4.57812L12.0391 4.14844L11.6875 3.875L12.125 3.86719L12.2656 3.4375L12.4141 3.85156ZM10.0156 6.57031H10.4531L10.1016 6.85156L10.2344 7.28125L9.875 7.02344L9.51563 7.28906L9.64062 6.85156L9.28906 6.58594L9.72656 6.57031L9.86719 6.14062L10.0156 6.57031Z" fill="white"/>
<path fill-rule="evenodd" clip-rule="evenodd" d="M-6.28906 0H6.57031V40H-6.28906V0Z" fill="#CA3745"/>
<path fill-rule="evenodd" clip-rule="evenodd" d="M6.57031 10.4297V10.1406L6.03906 9.42969L6.14844 9.28125L5.82813 8.85938L5.92969 8.71094L6.14844 9L6.25781 8.85938L5.50781 7.85938L5.39844 8L5.50781 8.14062L5.28125 8.42969L4.75781 7.71094L5.28906 7.01563L5.50781 7.28125L5.39844 7.42969L5.5 7.57031L6.25 6.57031L6.14844 6.42969L5.92969 6.71094L5.82813 6.57031L6.14063 6.14062L6.03906 6L6.57031 5.28125V5L5.82813 6L5.92969 6.14062L5.61719 6.57031L5.82813 6.85938L5.60938 7.14063L5.28906 6.71094L4.53125 7.72656L5.28906 8.71094L5.60938 8.28125L5.82813 8.57031L5.60938 8.85938L5.92969 9.28125L5.82813 9.42969L6.57031 10.4297Z" fill="#FAAE29"/>
<path fill-rule="evenodd" clip-rule="evenodd" d="M6.57031 6.85938L6.46094 7.14062V7.57812H6.14844L5.92969 7.71875L6.14063 7.86719H6.46094V8.28906L6.57031 8.57812V6.85938Z" fill="#FAAE29"/>
<path fill-rule="evenodd" clip-rule="evenodd" d="M6.60938 17.2891V17L6.07813 16.2891L6.17969 16.1406L5.86719 15.7109L5.96875 15.5703L6.17969 15.8594L6.28906 15.7109L5.53906 14.7109L5.42969 14.8594L5.53906 15L5.32031 15.2891L4.78906 14.5703L5.32812 13.875L5.53906 14.1406L5.42969 14.2812L5.53906 14.4297L6.28906 13.4297L6.17969 13.2812L5.96875 13.5703L5.85938 13.4297L6.17969 13L6.07813 12.8594L6.60938 12.1406V11.8594L5.85938 12.8594L5.96875 13L5.64844 13.4297L5.85938 13.7109L5.64844 14L5.32812 13.5703L4.57031 14.5859L5.32812 15.5703L5.64062 15.1406L5.85938 15.4297L5.64844 15.7109L5.96094 16.1406L5.85938 16.2812L6.60938 17.2812V17.2891Z" fill="#FAAE29"/>
<path fill-rule="evenodd" clip-rule="evenodd" d="M6.60938 13.7109L6.5 14V14.4297H6.17188L5.95312 14.5703L6.17188 14.7109H6.48438V15.1406L6.60156 15.4297V13.7109H6.60938Z" fill="#FAAE29"/>
<path fill-rule="evenodd" clip-rule="evenodd" d="M6.57031 24.1406V23.8594L6.03906 23.1406L6.14844 23L5.82813 22.5703L5.92969 22.4297L6.14844 22.7109L6.25781 22.5703L5.50781 21.5703L5.39844 21.7109L5.50781 21.8594L5.28125 22.1484L4.75781 21.4297L5.28906 20.7266L5.50781 21L5.39844 21.1406L5.5 21.2812L6.25 20.2813L6.14844 20.1406L5.92969 20.4297L5.82813 20.2813L6.14063 19.8594L6.03906 19.7109L6.57031 19V18.7109L5.82813 19.7109L5.92969 19.8594L5.61719 20.2813L5.82813 20.5703L5.60938 20.8594L5.28906 20.4297L4.53125 21.4453L5.28906 22.4297L5.60938 22L5.82813 22.2813L5.60938 22.5703L5.92969 23L5.82813 23.1406L6.5625 24.1406H6.57031Z" fill="#FAAE29"/>
<path fill-rule="evenodd" clip-rule="evenodd" d="M6.57031 20.5703L6.46094 20.8594V21.2891H6.14844L5.92969 21.4297L6.14063 21.5703H6.46094V22L6.57031 22.2891V20.5703Z" fill="#FAAE29"/>
<path fill-rule="evenodd" clip-rule="evenodd" d="M6.57031 30.5703V30.2813L6.03906 29.5703L6.14844 29.4297L5.82813 29L5.92969 28.8594L6.14844 29.1406L6.25781 29L5.50781 28L5.39844 28.1406L5.50781 28.2813L5.28125 28.5703L4.75781 27.8594L5.28906 27.1563L5.50781 27.4297L5.39844 27.5703L5.5 27.7109L6.25 26.7188L6.14844 26.5781L5.92969 26.8672L5.82813 26.7188L6.14063 26.2891L6.03906 26.1484L6.57031 25.4375V25.1484L5.82813 26.1484L5.92969 26.2891L5.61719 26.7188L5.82813 27.0078L5.60938 27.2891L5.28906 26.8672L4.53125 27.8828L5.28906 28.8672L5.60938 28.4375L5.82813 28.7188L5.60938 29.0078L5.92969 29.4375L5.82813 29.5781L6.57031 30.5781V30.5703Z" fill="#FAAE29"/>
<path fill-rule="evenodd" clip-rule="evenodd" d="M6.57031 27L6.46094 27.2813V27.7109H6.14844L5.92969 27.8594L6.14063 28H6.46094V28.4297L6.57031 28.7109V26.9922V27Z" fill="#FAAE29"/>
<path fill-rule="evenodd" clip-rule="evenodd" d="M-6.28906 2.71094V2.42969L-5.75781 1.71094L-5.85938 1.57031L-5.54688 1.14062L-5.64844 1L-5.85938 1.28906L-5.96875 1.14062L-5.21875 0.140625L-5.10938 0.289062L-5.21875 0.429688L-5 0.71875L-4.46875 0H-4.25L-5 1L-5.32813 0.570312L-5.53906 0.859375L-5.32813 1.14062L-5.64063 1.57031L-5.54688 1.71875L-6.28906 2.71875V2.71094ZM-6.28906 0H-5.64063L-5.85938 0.140625H-6.17188V0.570312L-6.29688 0.859375V0H-6.28906ZM6.57031 2.71094V2.42969L6.03906 1.71094L6.14844 1.57031L5.82813 1.14062L5.92969 1L6.14844 1.28906L6.25 1.14062L5.5 0.140625L5.39844 0.289062L5.5 0.429688L5.28125 0.71875L4.75 0H4.53125L5.28906 1L5.60938 0.570312L5.82813 0.859375L5.60938 1.14062L5.92969 1.57031L5.82813 1.71094L6.57031 2.71094ZM6.57031 0H5.92969L6.14063 0.140625H6.46094V0.570312L6.57031 0.859375V0ZM-0.929688 39.4297C-0.929688 39.4297 -0.460938 38.6172 0.695312 38.375C1.85938 38.125 2.0625 38.9141 2.72656 38.9141C3.39062 38.9141 4.44531 38.3672 4.44531 38.3672C4.44531 38.3672 3.39062 39.4062 2.57031 39.3828C1.76562 39.3594 1.49219 38.8359 0.65625 38.9141C-0.171875 38.9922 -0.929688 39.4531 -0.929688 39.4297Z" fill="#FAAE29"/>
<path fill-rule="evenodd" clip-rule="evenodd" d="M1.3125 39.4298C1.3125 39.4298 0.851563 38.6173 -0.304687 38.3751C-1.47656 38.1251 -1.67187 38.9142 -2.33594 38.9142C-3 38.9142 -4.05469 38.3673 -4.05469 38.3673C-4.05469 38.3673 -3 39.4064 -2.1875 39.3829C-1.375 39.3595 -1.09375 38.8361 -0.273437 38.9142C0.5625 38.9923 1.3125 39.4532 1.3125 39.4298Z" fill="#FAAE29"/>
<path fill-rule="evenodd" clip-rule="evenodd" d="M2.81244 38.2031C2.91401 37.9844 3.17182 37.0469 3.03901 36.9297C2.82807 36.8515 2.28901 37.8047 2.33588 38.664C2.69526 38.8594 3.9062 38.5859 3.89057 38.3359C3.80463 37.9844 3.12494 38.1015 2.81244 38.1953V38.2031Z" fill="#FAAE29"/>
<path fill-rule="evenodd" clip-rule="evenodd" d="M3.54657 37.375C3.61688 37.1406 3.71845 36.1562 3.57001 36.0781C3.35907 36.0625 2.96845 37.1406 3.15595 37.9687C3.53095 38.0625 4.67939 37.4609 4.61689 37.2187C4.48407 36.8984 3.83563 37.2031 3.54657 37.375Z" fill="#FAAE29"/>
<path fill-rule="evenodd" clip-rule="evenodd" d="M4.14072 36.4687C4.1876 36.2187 4.20322 35.2188 4.04697 35.1719C3.83603 35.1875 3.54697 36.3203 3.80478 37.1094C4.19541 37.1406 5.27353 36.3672 5.19541 36.1328C5.02353 35.8359 4.41416 36.2422 4.14072 36.4687Z" fill="#FAAE29"/>
<path fill-rule="evenodd" clip-rule="evenodd" d="M4.60888 35.4922C4.62451 35.2422 4.53076 34.25 4.36669 34.2344C4.15576 34.2891 4.00732 35.4766 4.35107 36.2031C4.74169 36.1562 5.71044 35.1641 5.60888 34.9531C5.41357 34.6875 4.85107 35.2187 4.60888 35.4922Z" fill="#FAAE29"/>
<path fill-rule="evenodd" clip-rule="evenodd" d="M4.93714 34.4688C4.92933 34.2188 4.71839 33.2578 4.56214 33.2734C4.35901 33.3672 4.33558 34.5703 4.75745 35.2266C5.13245 35.1016 5.99183 33.9375 5.86683 33.7422C5.64026 33.5234 5.14026 34.1563 4.92933 34.4688H4.93714Z" fill="#FAAE29"/>
<path fill-rule="evenodd" clip-rule="evenodd" d="M4.84375 33.3125C4.875 34.3281 5.05469 34.3359 5.39062 33.5859C5.54688 33.3047 5.5625 32.125 5.42969 32.0859C5.23438 32.0859 4.85156 32.9219 4.84375 33.3125Z" fill="#FAAE29"/>
<path fill-rule="evenodd" clip-rule="evenodd" d="M4.57805 25.6966H3.9386V26.1256H3.3224V26.5545H0.85761L0.439061 26.9957L0.648335 27.2164H1.68308L1.88073 26.9957H0.85761L1.05526 26.7751H2.49693L1.88073 27.4247H0.450686L0.0437632 27.2164L-0.374786 27.4247H-1.81646L-2.43266 26.7751H-0.990985L-0.78171 26.9957H-1.81646L-1.60718 27.2164H-0.572435L-0.374786 26.9957L-0.78171 26.5545H-3.04885V26.1256H-3.66505V25.6966H-4.28125V23.7356H-3.66505V23.3066H-3.04885V22.8654H-0.78171L-0.374786 22.4365L-0.572435 22.2159H-1.60718L-1.81646 22.4365H-0.78171L-0.990985 22.6448H-2.43266L-1.81646 21.9952H-0.36316L0.0553894 22.2159L0.462313 21.9952H1.90398L2.52018 22.6448H1.07851L0.880863 22.4365H1.90398L1.69471 22.2159H0.671588L0.450686 22.4365L0.869236 22.8654H3.33403V23.3066H3.95023V23.7356H4.57805V25.6966Z" fill="#CA3745"/>
<path fill-rule="evenodd" clip-rule="evenodd" d="M-1.81891 21.9893H-0.361574L0.055459 22.2091L0.460908 21.9893H1.90666L2.53418 22.6508H1.07606L0.867084 22.4305H1.8902L1.69225 22.2218H0.674167L0.459188 22.4365L0.871861 22.8594H3.34011V23.3007H3.95631V23.7296H4.58413V25.6966H4.57816V25.7026H3.94468V26.1315H3.32848V26.5605H0.860284L0.447396 26.9957L0.65101 27.2104H1.68053L1.86748 27.0017H0.844358L1.0527 26.7692H2.51093L1.88341 27.4307H0.449357L0.0438347 27.223L-0.373274 27.4307H-1.81891L-2.44644 26.7692H-0.988311L-0.767712 27.0017H-1.80246L-1.60451 27.2104H-0.574992L-0.382743 26.9958L-0.784215 26.5605H-3.05471V26.1315H-3.67091V25.7026H-4.28711V23.7296H-3.67091V23.3007H-3.05471V22.8594H-0.784165L-0.382794 22.4363L-0.574992 22.2218H-1.60451L-1.80246 22.4305H-0.767146L-0.988411 22.6508H-2.44644L-1.81891 21.9893ZM4.57219 25.6906V23.7416H3.94437V23.3126H3.32817V22.8714H0.86683L0.442404 22.4364L0.669227 22.2099H1.69738L1.91798 22.4424H0.89486L1.08119 22.6388H2.5064L1.90153 22.0012H0.463936L0.0555382 22.2226L-0.364528 22.0012H-1.81378L-2.41866 22.6388H-0.99334L-0.796055 22.4424H-1.83024L-1.60964 22.2099H-0.569659L-0.36656 22.4366L-0.779036 22.8714H-3.04278V23.3126H-3.65897V23.7416H-4.27517V25.6906H-3.65897V26.1196H-3.04278V26.5485H-0.778986L-0.366611 26.9957L-0.569659 27.2223H-1.60964L-1.83024 26.9898H-0.795489L-0.993441 26.7811H-2.41866L-1.81378 27.4187H-0.376081L0.04391 27.2097L0.452234 27.4187H1.87828L2.48315 26.7811H1.05803L0.87108 26.9898H1.8942L1.68586 27.2223H0.645879L0.430943 26.9957L0.855154 26.5485H3.31654V26.1196H3.93274V25.6906H4.57219Z" fill="black"/>
<path fill-rule="evenodd" clip-rule="evenodd" d="M-4.07422 23.9639V25.4837H-3.45803V25.9127H-2.84184V26.3416H-0.778185L0.0472779 26.9973L0.866927 26.3478H3.13404V25.9188L3.75023 25.9127V25.4837H4.37805V23.9578H3.75604V23.5288H3.13985V23.0876H0.872741L0.0530915 22.438L-0.772371 23.0876H-2.83603V23.5288H-3.45222V23.9578H-4.06841L-4.07422 23.9639Z" fill="#00843D"/>
<path fill-rule="evenodd" clip-rule="evenodd" d="M0.0529699 22.3851L0.887075 23.0461H3.18142V23.4873H3.79761V23.9163H4.41961V25.5257H3.7918V25.9543L3.17561 25.9604V26.3898H0.881262L0.0470347 27.0509L-0.792972 26.3837H-2.88383V25.9547H-3.50002V25.5257H-4.11621V23.9475L-4.08657 23.9163H-3.49421V23.4873H-2.87802V23.0461H-0.787052L0.0529699 22.3851ZM0.0527868 22.4915L-0.758117 23.1297H-2.79446V23.5709H-3.41065V23.9998H-4.03265V25.4422H-3.41646V25.8711H-2.80027V26.3001H-0.763824L0.0470948 26.9443L0.852166 26.3062H3.09205V25.8777L3.70824 25.8716V25.4422H4.33605V23.9998H3.71405V23.5709H3.09786V23.1297H0.85798L0.0527868 22.4915Z" fill="#FAAE29"/>
<path fill-rule="evenodd" clip-rule="evenodd" d="M-1.19354 23.3L-2.42773 24.3873V23.3H-1.19354ZM1.27483 23.3L2.51684 24.3873V23.3H1.27483ZM-1.19354 26.1269L-2.42773 25.0396V26.1269H-1.19354ZM1.27483 26.1269L2.51684 25.0396V26.1269H1.27483ZM1.68884 23.9524L1.27483 24.3873H2.10284L1.68884 23.9524ZM-1.60755 23.9524L-2.01373 24.3873H-1.19354L-1.60755 23.9524ZM-1.60755 25.4745L-2.01373 25.0396H-1.19354L-1.60755 25.4745ZM1.68884 25.4745L1.27483 25.0396H2.10284L1.68884 25.4745Z" fill="#CA3745"/>
<path fill-rule="evenodd" clip-rule="evenodd" d="M0.0409535 26.5617L-0.373047 26.1268H0.454954L0.0409535 26.5617ZM0.0409535 24.3872L-0.373047 23.9524H0.454954L0.0409535 24.3872ZM0.0409535 22.8651L-0.373047 23.3099H0.454954L0.0409535 22.8651ZM0.0409535 25.0396L-0.373047 25.4745H0.454954L0.0409535 25.0396Z" fill="#FAAE29"/>
<path fill-rule="evenodd" clip-rule="evenodd" d="M1.2793 24.3929H2.11057V24.6074H1.28511L1.2793 24.3929Z" fill="#FAAE29"/>
<path fill-rule="evenodd" clip-rule="evenodd" d="M1.27637 24.3903H2.11369V24.6108H1.28234L1.27637 24.3903ZM1.2825 24.3963L1.28815 24.6048H2.10772V24.3963H1.2825Z" fill="black"/>
<path fill-rule="evenodd" clip-rule="evenodd" d="M-1.80762 24.6074H-1.4007V24.828H-1.80762V24.6074ZM1.48842 24.6074H1.89533V24.828H1.48842V24.6074Z" fill="#CC0000"/>
<path fill-rule="evenodd" clip-rule="evenodd" d="M-1.81055 24.6047H-1.39766V24.8313H-1.81055V24.6047ZM-1.80458 24.6107V24.8253H-1.40363V24.6107H-1.80458ZM1.48549 24.6047H1.89837V24.8313H1.48549V24.6047ZM1.49146 24.6107V24.8253H1.8924V24.6107H1.49146Z" fill="black"/>
<path fill-rule="evenodd" clip-rule="evenodd" d="M-0.366211 23.3079H0.453438V23.5223H-0.366211V23.3079ZM-0.366211 23.7368H0.453438V23.9574H-0.366211V23.7368Z" fill="#990000"/>
<path fill-rule="evenodd" clip-rule="evenodd" d="M-0.369141 23.3052H0.456477V23.5257H-0.369141V23.3052ZM-0.363172 23.3112V23.5197H0.450509V23.3112H-0.363172ZM-0.369141 23.7342H0.456477V23.9608H-0.369141V23.7342ZM-0.363172 23.7402V23.9548H0.450509V23.7402H-0.363172Z" fill="black"/>
<path fill-rule="evenodd" clip-rule="evenodd" d="M-0.575195 23.5231H0.662999V23.7437H-0.575195V23.5231ZM-0.365923 25.4841H0.453726V25.6925H-0.365923V25.4841ZM-0.365923 25.9131H0.453726V26.1276H-0.365923V25.9131ZM-0.575195 25.6986H0.662999V25.9131H-0.575195V25.6986Z" fill="#990000"/>
<path fill-rule="evenodd" clip-rule="evenodd" d="M-0.578125 23.5197H0.666038V23.7463H-0.578125V23.5197ZM-0.572156 23.5257V23.7403H0.660069V23.5257H-0.572156ZM-0.368853 25.4807H0.456765V25.695H-0.368853V25.4807ZM-0.362884 25.4867V25.6891H0.450797V25.4867H-0.362884ZM-0.578125 25.6952H0.666038V25.9156H0.456765V26.1301H-0.368853V25.9156H-0.578125V25.6952ZM0.660069 25.9097V25.7011H-0.572156V25.9097H0.660069ZM-0.362884 25.9156V26.1241H0.450797V25.9156H-0.362884Z" fill="black"/>
<path fill-rule="evenodd" clip-rule="evenodd" d="M1.27879 24.828H2.11006V25.0425H1.2846L1.27879 24.828ZM-2.01724 24.3929H-1.19178V24.6074H-2.01724V24.3929ZM-2.01724 24.8218H-1.19178V25.0425H-2.01724V24.8218ZM-2.2207 24.6074H-1.81379V24.828H-2.2207V24.6074ZM-1.39524 24.6074H-0.988323V24.828H-1.39524V24.6074ZM1.07533 24.6074H1.48225V24.828H1.07533V24.6074ZM1.90079 24.6074H2.30771V24.828H1.90079V24.6074Z" fill="#FAAE29"/>
<path fill-rule="evenodd" clip-rule="evenodd" d="M-2.02017 24.3903H-1.18874V24.6048H-0.985284V24.8314H-1.18874V25.0459H-2.02017V24.8314H-2.22363V24.6048H-2.02017V24.3903ZM-2.01421 24.6048H-1.19471V24.3963H-2.01421V24.6048ZM-1.39817 24.6108H-1.81075V24.8193H-1.39817V24.6108ZM-1.39817 24.8253H-1.81075V24.8314H-2.01421V25.0399H-1.19471V24.8314H-1.39817V24.8253ZM-1.18874 24.8254V24.8193H-1.3922V24.6108H-0.991252V24.8254H-1.18874ZM-1.19471 24.8254H-1.3922V24.8253H-1.19471V24.8254ZM-2.01421 24.8254H-1.81671V24.8253H-2.01421V24.8254ZM-1.81671 24.8193V24.6108H-2.21766V24.8254H-2.02017V24.8193H-1.81671ZM1.0724 24.6048H1.48529V24.8254H1.89786V24.6048H2.31075V24.8314H2.1131V25.0459H1.28175L1.27594 24.8314H1.0724V24.6048ZM1.47932 24.8254V24.6108H1.07837V24.8254H1.47932ZM1.28191 24.8314L1.28756 25.0399H2.10714V24.8314H1.28191ZM2.30478 24.8254V24.6108H1.90383V24.8254H2.30478Z" fill="black"/>
<path d="M0.0464601 25.8504C0.0753545 25.8504 0.0987777 25.8257 0.0987777 25.7953C0.0987777 25.7648 0.0753545 25.7401 0.0464601 25.7401C0.0175656 25.7401 -0.00585938 25.7648 -0.00585938 25.7953C-0.00585938 25.8257 0.0175656 25.8504 0.0464601 25.8504Z" fill="white"/>
<path d="M0.562085 25.8504C0.590979 25.8504 0.614403 25.8257 0.614403 25.7953C0.614403 25.7648 0.590979 25.7401 0.562085 25.7401C0.533191 25.7401 0.509766 25.7648 0.509766 25.7953C0.509766 25.8257 0.533191 25.8504 0.562085 25.8504Z" fill="white"/>
<path d="M0.351148 25.643C0.380042 25.643 0.403465 25.6183 0.403465 25.5878C0.403465 25.5573 0.380042 25.5327 0.351148 25.5327C0.322253 25.5327 0.298828 25.5573 0.298828 25.5878C0.298828 25.6183 0.322253 25.643 0.351148 25.643Z" fill="white"/>
<path d="M0.351148 26.0778C0.380042 26.0778 0.403465 26.0531 0.403465 26.0227C0.403465 25.9922 0.380042 25.9675 0.351148 25.9675C0.322253 25.9675 0.298828 25.9922 0.298828 26.0227C0.298828 26.0531 0.322253 26.0778 0.351148 26.0778Z" fill="white"/>
<path d="M1.17048 24.763C1.19938 24.763 1.2228 24.7383 1.2228 24.7078C1.2228 24.6773 1.19938 24.6526 1.17048 24.6526C1.14159 24.6526 1.11816 24.6773 1.11816 24.7078C1.11816 24.7383 1.14159 24.763 1.17048 24.763Z" fill="white"/>
<path d="M1.68611 24.763C1.715 24.763 1.73843 24.7383 1.73843 24.7078C1.73843 24.6773 1.715 24.6526 1.68611 24.6526C1.65721 24.6526 1.63379 24.6773 1.63379 24.7078C1.63379 24.7383 1.65721 24.763 1.68611 24.763Z" fill="white"/>
<path d="M2.20173 24.763C2.23063 24.763 2.25405 24.7383 2.25405 24.7078C2.25405 24.6773 2.23063 24.6526 2.20173 24.6526C2.17284 24.6526 2.14941 24.6773 2.14941 24.7078C2.14941 24.7383 2.17284 24.763 2.20173 24.763Z" fill="white"/>
<path d="M1.3824 24.5457C1.41129 24.5457 1.43472 24.521 1.43472 24.4906C1.43472 24.4601 1.41129 24.4354 1.3824 24.4354C1.3535 24.4354 1.33008 24.4601 1.33008 24.4906C1.33008 24.521 1.3535 24.5457 1.3824 24.5457Z" fill="white"/>
<path d="M1.9908 24.5457C2.01969 24.5457 2.04311 24.521 2.04311 24.4906C2.04311 24.4601 2.01969 24.4354 1.9908 24.4354C1.9619 24.4354 1.93848 24.4601 1.93848 24.4906C1.93848 24.521 1.9619 24.5457 1.9908 24.5457Z" fill="white"/>
<path d="M1.37459 24.9702C1.40348 24.9702 1.4269 24.9455 1.4269 24.9151C1.4269 24.8846 1.40348 24.8599 1.37459 24.8599C1.34569 24.8599 1.32227 24.8846 1.32227 24.9151C1.32227 24.9455 1.34569 24.9702 1.37459 24.9702Z" fill="white"/>
<path d="M1.9908 24.9807C2.01969 24.9807 2.04311 24.956 2.04311 24.9255C2.04311 24.8951 2.01969 24.8704 1.9908 24.8704C1.9619 24.8704 1.93848 24.8951 1.93848 24.9255C1.93848 24.956 1.9619 24.9807 1.9908 24.9807Z" fill="white"/>
<path d="M0.0464601 23.6856C0.0753545 23.6856 0.0987777 23.6609 0.0987777 23.6304C0.0987777 23.6 0.0753545 23.5753 0.0464601 23.5753C0.0175656 23.5753 -0.00585938 23.6 -0.00585938 23.6304C-0.00585938 23.6609 0.0175656 23.6856 0.0464601 23.6856Z" fill="white"/>
<path d="M0.562085 23.676C0.590979 23.676 0.614403 23.6513 0.614403 23.6208C0.614403 23.5904 0.590979 23.5657 0.562085 23.5657C0.533191 23.5657 0.509766 23.5904 0.509766 23.6208C0.509766 23.6513 0.533191 23.676 0.562085 23.676Z" fill="white"/>
<path d="M0.351148 23.4685C0.380042 23.4685 0.403465 23.4438 0.403465 23.4133C0.403465 23.3828 0.380042 23.3582 0.351148 23.3582C0.322253 23.3582 0.298828 23.3828 0.298828 23.4133C0.298828 23.4438 0.322253 23.4685 0.351148 23.4685Z" fill="white"/>
<path d="M0.351148 23.9034C0.380042 23.9034 0.403465 23.8787 0.403465 23.8482C0.403465 23.8178 0.380042 23.7931 0.351148 23.7931C0.322253 23.7931 0.298828 23.8178 0.298828 23.8482C0.298828 23.8787 0.322253 23.9034 0.351148 23.9034Z" fill="white"/>
<path fill-rule="evenodd" clip-rule="evenodd" d="M0.851562 19.9844L1.20312 19.8125L1.5625 19.9844H0.851562ZM-0.210937 19.9844L0.140625 19.8125L0.5 19.9844H-0.210937ZM-1.27344 19.9844L-0.921875 19.8125L-0.5625 19.9844H-1.27344ZM0.851562 16.1562L1.20312 16.3281L1.5625 16.1641H0.851562V16.1562ZM-0.210937 16.1562L0.140625 16.3281L0.5 16.1641H-0.210937V16.1562ZM-1.27344 16.1562L-0.921875 16.3281L-0.5625 16.1641H-1.27344V16.1562Z" fill="white"/>
<path fill-rule="evenodd" clip-rule="evenodd" d="M0.554688 20.4766L0.140625 20.8125L-0.273438 20.4766L-0.6875 20.8125L-1.10156 20.4766V20.6484L-0.820312 20.8047L-0.960938 20.9766V21.1406H-0.820312L-0.6875 20.9844L-0.546875 21.1406H-0.40625V20.9844L-0.546875 20.8125L-0.273438 20.6484L0.00781345 20.8047L-0.132812 20.9766V21.1406H0.00781345L0.140625 20.9844L0.281251 21.1406H0.414063V20.9844L0.281251 20.8125L0.554688 20.6484L0.828126 20.8047L0.695312 20.9766V21.1406H0.828126L0.96875 20.9844L1.10938 21.1406H1.24219V20.9844L1.10938 20.8125L1.38281 20.6484V20.4688L0.96875 20.8047L0.554688 20.4688V20.4766ZM0.554688 15.6641L0.140625 15.3281L-0.273438 15.6641L-0.6875 15.3281L-1.10156 15.6641V15.5L-0.820312 15.3281L-0.960938 15.1719V15H-0.820312L-0.6875 15.1641L-0.546875 15H-0.40625V15.1641L-0.546875 15.3359L-0.273438 15.4922L0.00781345 15.3359L-0.132812 15.1641V15H0.00781345L0.140625 15.1641L0.281251 15H0.414063V15.1641L0.281251 15.3359L0.554688 15.4922L0.828126 15.3359L0.695312 15.1641V15H0.828126L0.96875 15.1641L1.10938 15H1.24219V15.1641L1.10938 15.3359L1.38281 15.4922V15.6641L0.96875 15.3281L0.554688 15.6641ZM3.67969 18.4297L4.13281 18.0703L3.6875 17.7109L4.13281 17.3516L3.6875 16.9922H3.90625L4.13281 17.2266L4.35156 17.1094H4.57031V17.2344L4.35156 17.3516L4.57031 17.4688V17.5937H4.35156L4.13281 17.4688L3.90625 17.7109L4.13281 17.9453L4.35156 17.8359H4.57031V17.9531L4.35156 18.0703L4.57031 18.1875V18.3125H4.35156L4.13281 18.1875L3.90625 18.4297L4.13281 18.6641L4.35156 18.5469H4.57031V18.6719L4.35156 18.7891L4.57031 18.9141V19.0313H4.35156L4.13281 18.9141L3.90625 19.1484H3.6875L4.13281 18.7891L3.6875 18.4297H3.67969ZM-3.39844 18.4297L-3.84375 18.0703L-3.39844 17.7109L-3.84375 17.3516L-3.39844 16.9922H-3.625L-3.84375 17.2266L-4.0625 17.1094H-4.29688V17.2344L-4.0625 17.3438L-4.28906 17.4609V17.5859H-4.0625L-3.84375 17.4609L-3.625 17.7031L-3.84375 17.9375L-4.0625 17.8281H-4.29688V17.9453L-4.07031 18.0625L-4.29688 18.1797V18.3047H-4.0625L-3.84375 18.1797L-3.625 18.4219L-3.84375 18.6641L-4.0625 18.5469H-4.29688V18.6641L-4.07031 18.7812L-4.29688 18.9062V19.0234H-4.0625L-3.84375 18.9062L-3.625 19.1406H-3.39844L-3.84375 18.7812L-3.39844 18.4219V18.4297Z" fill="#00843D"/>
<path fill-rule="evenodd" clip-rule="evenodd" d="M3.85611 19.6541H4.03609V19.8134H3.85611V19.6541ZM3.67614 19.8134H3.85611V19.982H3.68614L3.67614 19.8134ZM2.79628 20.6474H2.97625V20.8161H2.79628V20.6474ZM2.97625 20.4787H3.14622V20.6474H2.97625V20.4787ZM-2.87283 20.4787H-2.69286V20.6474H-2.88283L-2.87283 20.4787ZM-3.7627 19.6541H-3.58272V19.8134H-3.7627V19.6541ZM-3.58272 19.8134H-3.40275V19.982H-3.58272V19.8134ZM-3.58272 16.1586H-3.40275V16.3273H-3.58272V16.1586ZM-3.7627 16.3273H-3.58272V16.496H-3.7627V16.3273ZM-2.69286 15.334H-2.52289V15.5027H-2.68286L-2.69286 15.334ZM-2.87283 15.5027H-2.69286V15.6713H-2.88283L-2.87283 15.5027ZM2.79628 15.334H2.97625V15.5027H2.79628V15.334ZM2.97625 15.5027H3.14622V15.6713H2.97625V15.5027ZM3.67614 16.1586H3.85611V16.3273H3.68614L3.67614 16.1586ZM3.85611 16.3367H4.03609V16.496H3.85611V16.3367ZM-2.68286 20.6474H-2.51289V20.8161H-2.68286V20.6474Z" fill="#00843D"/>
<path fill-rule="evenodd" clip-rule="evenodd" d="M-2.7084 15.3193H-2.5085V15.5171H-2.67847V15.6857H-2.89837L-2.88665 15.488H-2.6984L-2.7084 15.3193ZM-2.66931 15.488H-2.53754V15.3484H-2.67759L-2.66931 15.488ZM-2.70751 15.5171H-2.85928L-2.86756 15.6567H-2.70751V15.5171ZM2.78163 15.3193H2.99064V15.488H3.16062V15.6857H2.9616V15.5171H2.78163V15.3193ZM2.99064 15.5171V15.6567H3.13158V15.5171H2.99064ZM2.9616 15.488V15.3484H2.81067V15.488H2.9616ZM-3.59737 16.144H-3.38836V16.3417H-3.56833V16.5104H-3.77734V16.3127H-3.59737V16.144ZM-3.59737 16.3417H-3.7483V16.4814H-3.59737V16.3417ZM-3.56833 16.3127H-3.4174V16.173H-3.56833V16.3127ZM3.66061 16.144H3.87051V16.322H4.05048V16.5104H3.84147V16.3417H3.67233L3.66061 16.144ZM3.87051 16.3511V16.4814H4.02144V16.3511H3.87051ZM3.84147 16.3127V16.173H3.69142L3.6997 16.3127H3.84147ZM-3.77734 19.6394H-3.56833V19.7987H-3.38836V19.9964H-3.59737V19.8278H-3.77734V19.6394ZM-3.56833 19.8278V19.9674H-3.4174V19.8278H-3.56833ZM-3.59737 19.7987V19.6684H-3.7483V19.7987H-3.59737ZM3.84147 19.6394H4.05048V19.8278H3.87051V19.9964H3.67233L3.66061 19.7987H3.84147V19.6394ZM3.84147 19.8278H3.69142L3.6997 19.9674H3.84147V19.8278ZM3.87051 19.7987H4.02144V19.6684H3.87051V19.7987ZM-2.88665 20.4641H-2.67847V20.6327H-2.4985V20.8305H-2.69751V20.6618H-2.89837L-2.88665 20.4641ZM-2.66847 20.6618V20.8014H-2.52754V20.6618H-2.66847ZM-2.70751 20.6327V20.4931H-2.85928L-2.86756 20.6327H-2.70751ZM2.9616 20.4641H3.16062V20.6618H2.99064V20.8305H2.78163V20.6327H2.9616V20.4641ZM2.9616 20.6618H2.81067V20.8014H2.9616V20.6618ZM2.99064 20.6327H3.13158V20.4931H2.99064V20.6327Z" fill="black"/>
<path fill-rule="evenodd" clip-rule="evenodd" d="M-0.398437 18.0703H-0.921875V17.7422H-0.570312V17.4375H-0.226562V17.1562H0.125001V17.5078C-0.164062 17.5078 -0.398437 17.7422 -0.398437 18.0703Z" fill="white"/>
<path fill-rule="evenodd" clip-rule="evenodd" d="M0.648437 18.0703H1.17187V17.7422H0.820312V17.4375H0.46875V17.1562H0.125V17.5078C0.414062 17.5078 0.648437 17.7422 0.648437 18.0703Z" fill="#FAAE29"/>
<path fill-rule="evenodd" clip-rule="evenodd" d="M0.648437 18.0703H1.17187V18.3984H0.820312V18.7031H0.46875V18.9844H0.125V18.6328C0.414062 18.6328 0.648437 18.3984 0.648437 18.0703Z" fill="white"/>
<path fill-rule="evenodd" clip-rule="evenodd" d="M-0.398437 18.0703H-0.921875V18.3984H-0.570312V18.7031H-0.226562V18.9844H0.125001V18.6328C-0.164062 18.6328 -0.398437 18.3984 -0.398437 18.0703Z" fill="#FAAE29"/>
<path fill-rule="evenodd" clip-rule="evenodd" d="M0.648437 18.0703H0.125V17.5078C0.414062 17.5078 0.648437 17.7656 0.648437 18.0703Z" fill="#00843D"/>
<path fill-rule="evenodd" clip-rule="evenodd" d="M0.648437 18.0703H0.125V18.6328C0.414062 18.6328 0.648437 18.3828 0.648437 18.0703Z" fill="#CA3745"/>
<path fill-rule="evenodd" clip-rule="evenodd" d="M-0.398438 18.0703H0.125V18.6328C-0.164062 18.6328 -0.398438 18.3828 -0.398438 18.0703Z" fill="#00843D"/>
<path fill-rule="evenodd" clip-rule="evenodd" d="M-0.398438 18.0703H0.125V17.5078C-0.164062 17.5078 -0.398438 17.7656 -0.398438 18.0703Z" fill="#CA3745"/>
<path fill-rule="evenodd" clip-rule="evenodd" d="M0.671875 20.1484L0.140625 19.8125L-0.390625 20.1484L-0.921875 19.8125L-1.45312 20.1484V19.9844L-1.10156 19.8125L-1.27344 19.6484V19.4844H-1.10156L-0.921875 19.6484L-0.742188 19.4844H-0.5625V19.6484L-0.742188 19.8125L-0.390625 19.9844L-0.0312502 19.8125L-0.210937 19.6484V19.4844H-0.0312502L0.140625 19.6484L0.320313 19.4844H0.499999V19.6484L0.320313 19.8125L0.671875 19.9844L1.03125 19.8125L0.851562 19.6484V19.4844H1.03125L1.20312 19.6484L1.38281 19.4844H1.5625V19.6484L1.38281 19.8125L1.73437 19.9844V20.1406L1.20312 19.8125L0.671875 20.1484ZM0.671875 16L0.140625 16.3281L-0.390625 16L-0.921875 16.3281L-1.45312 16V16.1563L-1.10156 16.3281L-1.27344 16.4922V16.6641H-1.10156L-0.921875 16.4922L-0.742188 16.6641H-0.5625V16.4844L-0.742188 16.3281L-0.390625 16.1563L-0.0312502 16.3203L-0.210937 16.4844V16.6562H-0.0312502L0.140625 16.4844L0.320313 16.6562H0.499999V16.4844L0.320313 16.3281L0.671875 16.1563L1.03125 16.3203L0.851562 16.4844V16.6562H1.03125L1.20312 16.4844L1.38281 16.6562H1.5625V16.4844L1.38281 16.3281L1.73437 16.1563V15.9922L1.20312 16.3203L0.671875 15.9922V16ZM2.625 18.4844L2.35937 18.0703L2.625 17.6563L2.35937 17.2422L2.625 16.8281H2.49219L2.35937 17.1016L2.22656 16.9609H2.09375V17.1016L2.22656 17.2422L2.09375 17.3828V17.5156H2.22656L2.35937 17.3828L2.49219 17.6563L2.35937 17.9297L2.22656 17.7969H2.09375V17.9297L2.22656 18.0703L2.09375 18.2109V18.3516H2.22656L2.35937 18.2109L2.49219 18.4844L2.35937 18.7656L2.22656 18.625H2.09375V18.7656L2.22656 18.8984L2.09375 19.0391V19.1797H2.22656L2.35937 19.0391L2.49219 19.3203H2.625L2.35937 18.8984L2.625 18.4844Z" fill="#00843D"/>
<path fill-rule="evenodd" clip-rule="evenodd" d="M-1.4507 16.1681L-2.15059 16.8241V19.3168L-1.4507 19.9822H1.7488L2.4487 19.3262V16.8335L1.73881 16.1681H-1.4507ZM-1.63067 15.6621L-3.40039 17.3302V18.8295L-1.62067 20.4789H1.91878L3.6885 18.8202V17.3208L1.91878 15.6621H-1.62067H-1.63067Z" fill="#00843D"/>
<path fill-rule="evenodd" clip-rule="evenodd" d="M-1.63755 15.6426H1.92724L3.70867 17.3122V18.8284L1.92724 20.498H-1.62745L-3.41895 18.8378V17.3216L-1.63755 15.6426ZM-1.62218 15.6813L-3.38023 17.3383V18.8209L-1.61227 20.4593H1.91193L3.66995 18.8116V17.329L1.91193 15.6813H-1.62218ZM-1.45754 16.1486H1.74726L2.46886 16.8249V19.3344L1.75726 20.0014H-1.45762L-2.16914 19.325V16.8156L-1.45754 16.1486ZM-1.44224 16.1873L-2.13042 16.8323V19.3084L-1.44216 19.9627H1.74195L2.43014 19.3176V16.8417L1.73196 16.1873H-1.44224Z" fill="black"/>
<path fill-rule="evenodd" clip-rule="evenodd" d="M0.426944 15.9961L0.7069 15.6587L0.994855 15.9961H0.418945H0.426944Z" fill="#FAAE29"/>
<path fill-rule="evenodd" clip-rule="evenodd" d="M1.01703 16.0068L0.705971 15.6424L0.421149 15.9856H0.41813V15.9893L0.417969 15.9895L0.41813 15.9896V16.0068H1.01703ZM0.448707 15.9856H0.971048L0.706199 15.6753L0.448707 15.9856Z" fill="black"/>
<path fill-rule="evenodd" clip-rule="evenodd" d="M0.426944 20.1445L0.7069 20.4819L0.994855 20.1445H0.418945H0.426944Z" fill="#FAAE29"/>
<path fill-rule="evenodd" clip-rule="evenodd" d="M1.01703 20.1338L0.705971 20.4982L0.421149 20.155H0.41813V20.1514L0.417969 20.1512L0.41813 20.151V20.1338H1.01703ZM0.448707 20.155H0.971048L0.706199 20.4653L0.448707 20.155Z" fill="black"/>
<path fill-rule="evenodd" clip-rule="evenodd" d="M-0.143369 15.9961L0.136588 15.6587L0.424543 15.9961H-0.151367H-0.143369Z" fill="#CA3745"/>
<path fill-rule="evenodd" clip-rule="evenodd" d="M0.446719 16.0068L0.135658 15.6424L-0.149164 15.9856H-0.152183V15.9893L-0.152344 15.9895L-0.152183 15.9896V16.0068H0.446719ZM-0.121605 15.9856H0.400735L0.135887 15.6753L-0.121605 15.9856Z" fill="black"/>
<path fill-rule="evenodd" clip-rule="evenodd" d="M0.989444 15.9961L1.2694 15.6587L1.55736 15.9961H0.981445H0.989444Z" fill="#CA3745"/>
<path fill-rule="evenodd" clip-rule="evenodd" d="M1.57953 16.0068L1.26847 15.6424L0.983649 15.9856H0.98063V15.9893L0.980469 15.9895L0.98063 15.9896V16.0068H1.57953ZM1.01121 15.9856H1.53355L1.2687 15.6753L1.01121 15.9856Z" fill="black"/>
<path fill-rule="evenodd" clip-rule="evenodd" d="M2.79492 17.6217H3.50481L3.68478 17.7735L3.50481 17.9253H2.80492V17.6133L2.79492 17.6217Z" fill="#CA3745"/>
<path fill-rule="evenodd" clip-rule="evenodd" d="M2.79173 17.6358H2.75781L2.81928 17.584V17.6083H3.51043L3.70673 17.7739L3.51043 17.9395H2.79173V17.6358ZM2.81928 17.6358H3.50036L3.664 17.7739L3.50036 17.9119H2.81928V17.6358Z" fill="black"/>
<path fill-rule="evenodd" clip-rule="evenodd" d="M-0.143369 20.1445L0.136588 20.4819L0.424543 20.1445H-0.151367H-0.143369Z" fill="#CA3745"/>
<path fill-rule="evenodd" clip-rule="evenodd" d="M0.446719 20.1338L0.135658 20.4982L-0.149164 20.155H-0.152183V20.1514L-0.152344 20.1512L-0.152183 20.151V20.1338H0.446719ZM-0.121605 20.155H0.400735L0.135887 20.4653L-0.121605 20.155Z" fill="black"/>
<path fill-rule="evenodd" clip-rule="evenodd" d="M0.989444 20.1445L1.2694 20.4819L1.55736 20.1445H0.981445H0.989444Z" fill="#CA3745"/>
<path fill-rule="evenodd" clip-rule="evenodd" d="M1.57953 20.1338L1.26847 20.4982L0.983649 20.155H0.98063V20.1514L0.980469 20.1512L0.98063 20.151V20.1338H1.57953ZM1.01121 20.155H1.53355L1.2687 20.4653L1.01121 20.155Z" fill="black"/>
<path fill-rule="evenodd" clip-rule="evenodd" d="M2.26207 16.4961L2.62202 16.8335V19.3168L2.26207 19.6542H2.79199V16.4961H2.26207Z" fill="#CA3745"/>
<path fill-rule="evenodd" clip-rule="evenodd" d="M2.81152 16.4766H2.21328L2.60283 16.8417V19.3082L2.21328 19.6733H2.81152V16.4766ZM2.7728 16.5153V19.6346H2.31121L2.64155 19.325V16.8249L2.31121 16.5153H2.7728Z" fill="black"/>
<path fill-rule="evenodd" clip-rule="evenodd" d="M2.26562 19.6487L1.74073 20.1406H2.26562V19.6487Z" fill="#CA3745"/>
<path fill-rule="evenodd" clip-rule="evenodd" d="M2.28711 20.1621H1.68536L2.28711 19.5981V20.1621ZM2.24355 20.1186V19.6986L1.79552 20.1186H2.24355Z" fill="black"/>
<path fill-rule="evenodd" clip-rule="evenodd" d="M2.26562 16.4919L1.74073 16H2.26562V16.4919Z" fill="#CA3745"/>
<path fill-rule="evenodd" clip-rule="evenodd" d="M2.28711 15.9785H1.68536L2.28711 16.5425V15.9785ZM2.24355 16.0221V16.442L1.79552 16.0221H2.24355Z" fill="black"/>
<path fill-rule="evenodd" clip-rule="evenodd" d="M-1.45022 16.1677L-2.15011 16.8237V19.3164L-1.45022 19.9817H1.74928L2.44918 19.3258V16.8331L1.73929 16.1677H-1.45022ZM-1.45022 15.999L-2.33008 16.8237V19.3164L-1.45022 20.1504H1.74928L2.62915 19.3164V16.8237L1.73929 15.999H-1.45022Z" fill="#00843D"/>
<path fill-rule="evenodd" clip-rule="evenodd" d="M-1.45804 15.9805H1.74671L2.64833 16.816V19.3255L1.75683 20.1706H-1.4581L-2.34961 19.3255V16.8161L-1.45804 15.9805ZM-1.44273 16.0192L-2.31089 16.8329V19.3089L-1.44267 20.1319H1.7414L2.60962 19.3089V16.8329L1.73152 16.0192H-1.44273ZM-1.45804 16.1491H1.74677L2.46836 16.8255V19.335L1.75677 20.0019H-1.45812L-2.16964 19.3255V16.8161L-1.45804 16.1491ZM-1.44273 16.1879L-2.13092 16.8329V19.3089L-1.44265 19.9632H1.74146L2.42964 19.3182V16.8422L1.73146 16.1879H-1.44273Z" fill="black"/>
<path fill-rule="evenodd" clip-rule="evenodd" d="M2.79492 17.9196H3.50481L3.68478 18.0714L3.50481 18.2232H2.80492V17.9111L2.79492 17.9196Z" fill="#FAAE29"/>
<path fill-rule="evenodd" clip-rule="evenodd" d="M2.79173 17.9337H2.75781L2.81928 17.8818V17.9061H3.51043L3.70673 18.0717L3.51043 18.2373H2.79173V17.9337ZM2.81928 17.9337H3.50036L3.664 18.0717L3.50036 18.2098H2.81928V17.9337Z" fill="black"/>
<path fill-rule="evenodd" clip-rule="evenodd" d="M2.79492 18.2155H3.50481L3.68478 18.3673L3.50481 18.5191H2.80492V18.207L2.79492 18.2155Z" fill="#CA3745"/>
<path fill-rule="evenodd" clip-rule="evenodd" d="M2.79173 18.2296H2.75781L2.81928 18.1777V18.202H3.51043L3.70673 18.3676L3.51043 18.5332H2.79173V18.2296ZM2.81928 18.2296H3.50036L3.664 18.3676L3.50036 18.5057H2.81928V18.2296Z" fill="black"/>
<path fill-rule="evenodd" clip-rule="evenodd" d="M2.79492 18.5133H3.50481L3.68478 18.6651L3.50481 18.817H2.80492V18.5049L2.79492 18.5133Z" fill="#FAAE29"/>
<path fill-rule="evenodd" clip-rule="evenodd" d="M2.79173 18.5274H2.75781L2.81928 18.4756V18.4999H3.51043L3.70673 18.6655L3.51043 18.8311H2.79173V18.5274ZM2.81928 18.5274H3.50036L3.664 18.6655L3.50036 18.8035H2.81928V18.5274Z" fill="black"/>
<path fill-rule="evenodd" clip-rule="evenodd" d="M2.79492 17.318H3.50481L3.68478 17.4698L3.50481 17.6217H2.80492V17.3096L2.79492 17.318Z" fill="#FAAE29"/>
<path fill-rule="evenodd" clip-rule="evenodd" d="M2.79173 17.3321H2.75781L2.81928 17.2803V17.3046H3.51043L3.70673 17.4702L3.51043 17.6358H2.79173V17.3321ZM2.81928 17.3321H3.50036L3.664 17.4702L3.50036 17.6082H2.81928V17.3321Z" fill="black"/>
<path fill-rule="evenodd" clip-rule="evenodd" d="M-3.58301 16.3364V19.8037H-2.69315V20.6377H2.97597V19.8037H3.85583V16.3364H2.97597V15.5117H-2.69315V16.3364H-3.58301ZM-3.40304 16.4957V19.6537H-2.52317V20.4784H2.796V19.6537H3.68586V16.4957H2.796V15.6804H-2.52317V16.5051H-3.40304V16.4957Z" fill="#970000"/>
<path fill-rule="evenodd" clip-rule="evenodd" d="M-2.7078 15.498H2.99036V16.3227H3.87022V19.819H2.99036V20.6531H-2.7078V19.819H-3.59766V16.3227H-2.7078V15.498ZM-2.67876 15.5271V16.3517H-3.56862V19.79H-2.67876V20.624H2.96132V19.79H3.84118V16.3517H2.96132V15.5271H-2.67876ZM-2.53782 15.6667H2.81039V16.482H3.70025V19.6691H2.81039V20.4938H-2.53782V19.6691H-3.41768V16.4965H-3.40316V16.4914H-2.53782V15.6667ZM-3.38865 16.5204V19.6401H-2.50878V20.4647H2.78135V19.6401H3.67121V16.5111H2.78135V15.6958H-2.50878V16.5204H-3.38865Z" fill="black"/>
<path fill-rule="evenodd" clip-rule="evenodd" d="M4.56737 3.3598L4.03745 2.71997V2.24235L3.50753 1.76473H2.4477L1.55784 1.28711H-1.27172L-2.16158 1.76473H-3.22142L-3.75133 2.24235V2.71997L-4.28125 3.35079V4.63947L-3.75133 5.27029V5.75692L-3.22142 6.23454H-2.16158L-1.27172 6.71216H1.55784L2.4477 6.23454H3.50753L4.04745 5.75692V5.2793L4.57737 4.63947V3.35079L4.56737 3.3598Z" fill="#CA3745"/>
<path fill-rule="evenodd" clip-rule="evenodd" d="M-1.27571 1.27246H1.56101L2.45087 1.75008H3.51259L4.05128 2.23561V2.71443L4.56845 3.33888L4.5912 3.31838V4.64419L4.06128 5.28402V5.76293L3.51252 6.24837H2.45087L1.56101 6.72599H-1.27571L-2.16557 6.24837H-3.2273L-3.76598 5.76285V5.27507L-4.2959 4.64425V3.3452L-3.76598 2.71438V2.23561L-3.2273 1.75008H-2.16557L-1.27571 1.27246ZM4.56272 3.3766L4.0228 2.72469V2.24828L3.50165 1.77856H2.44371L1.55385 1.30094H-1.26855L-2.15841 1.77856H-3.21636L-3.7375 2.24828V2.72475L-4.26742 3.35557V4.63387L-3.7375 5.26469V5.75018L-3.21636 6.21989H-2.15841L-1.26855 6.69752H1.55385L2.44371 6.21989H3.50173L4.0328 5.7501V5.27376L4.56272 4.63393V3.3766Z" fill="black"/>
<path fill-rule="evenodd" clip-rule="evenodd" d="M-4.10938 4V4.47656L-3.57813 5.11719V5.59375L-3.04688 6.07813H-1.98438L-1.09375 6.54688H0.140625V4.00781H-4.10938V4Z" fill="#FAAE29"/>
<path fill-rule="evenodd" clip-rule="evenodd" d="M4.39062 4V3.52344L3.85937 2.88281V2.40625L3.32812 1.92188H2.26562L1.38281 1.44531H0.140625V4H4.39062Z" fill="#FAAE29"/>
<path fill-rule="evenodd" clip-rule="evenodd" d="M0.140625 6.55469H-0.1875L-0.5625 6.23438H-1.17188L-1.5 6.07813L-1.33594 5.92188L-1.00781 6.07813H-0.679688L-0.351563 5.59375L0.140625 5.75V6.07813H-0.351563L0.140625 6.54688V6.55469Z" fill="#CA3745"/>
<path fill-rule="evenodd" clip-rule="evenodd" d="M-4.10938 4V3.52344L-3.57813 2.88281V2.40625L-3.04688 1.92188H-1.98438L-1.09375 1.44531H0.140625V4H-4.10938Z" fill="white"/>
<path fill-rule="evenodd" clip-rule="evenodd" d="M0.140625 1.44531H-0.1875L-0.5625 1.75781H-1.17188L-1.5 1.92188L-1.33594 2.07812L-1.00781 1.92188H-0.679688L-0.351563 2.40625L0.140625 2.25V1.92188H-0.351563L0.140625 1.44531Z" fill="#CA3745"/>
<path fill-rule="evenodd" clip-rule="evenodd" d="M0.140625 1.44531H0.46875L0.851562 1.75781H1.45313L1.78125 1.92188L1.625 2.07812L1.28906 1.92188H0.960938L0.632813 2.40625L0.140625 2.25V1.92188H0.632813L0.140625 1.44531Z" fill="#CA3745"/>
<path fill-rule="evenodd" clip-rule="evenodd" d="M4.39062 4V4.47656L3.85937 5.11719V5.59375L3.32812 6.07813H2.26562L1.38281 6.54688H0.140625V4.00781H4.39062V4Z" fill="white"/>
<path fill-rule="evenodd" clip-rule="evenodd" d="M0.140625 6.55469H0.46875L0.851562 6.23438H1.45313L1.78125 6.07813L1.625 5.92188L1.28906 6.07813H0.960938L0.632813 5.59375L0.140625 5.75V6.07813H0.632813L0.140625 6.54688V6.55469ZM-2.0625 3.19531L-2.71094 2.78906H-3.09375L-2.96875 2.65625L-3.21875 2.38281L-3.09375 2.24219L-2.70313 2.38281L-2.57813 2.24219L-2.51562 2.60938L-1.80469 3.03906L-2.0625 3.19531ZM1.64062 2.88281L2.28125 2.46875H2.67187L2.53906 2.33594L2.79688 2.0625L2.67187 1.92188L2.28125 2.0625L2.15625 1.92188L2.09375 2.28906L1.38281 2.72656L1.64062 2.88281Z" fill="#CA3745"/>
<path fill-rule="evenodd" clip-rule="evenodd" d="M-3.78906 4H-3.63281L-3.46875 4.15625L-3.30469 4H0.140625V6.23438H-0.0156245L0.140625 6.39063V6.5625L-0.351562 6.08594V5.92969H-0.1875V6.08594H-0.0234377V5.92969L-1.35156 5.22656H-2.47656V4.52344L-2.96875 4.17188H-3.29687L-3.46094 4.32813L-3.30469 4.48438H-3.46094L-3.78906 4.01563V4Z" fill="white"/>
<path fill-rule="evenodd" clip-rule="evenodd" d="M-3.78906 4H-3.63281L-3.46875 3.84375L-3.30469 4H0.140625V1.76563H-0.0156245L0.140625 1.60938V1.44531L-0.351562 1.92188V2.07813H-0.1875V1.92188H-0.0234377V2.07813L-1.35156 2.78906H-2.47656V3.48438L-2.96875 3.84375H-3.29687L-3.46094 3.6875L-3.30469 3.52344H-3.46094L-3.78906 4Z" fill="#FAAE29"/>
<path fill-rule="evenodd" clip-rule="evenodd" d="M-3.04688 4H0.140625V5.91406L-1.27344 5.11719H-2.33594V4.47656L-3.03906 4H-3.04688Z" fill="#00843D"/>
<path fill-rule="evenodd" clip-rule="evenodd" d="M2.34375 3.20312L2.99219 2.78906H3.38281L3.25 2.65625L3.50781 2.38281L3.38281 2.24219L2.99219 2.38281L2.86719 2.24219L2.80469 2.60938L2.09375 3.03906L2.34375 3.19531V3.20312ZM2.70313 3.84375L3.35156 3.42969H3.73438L3.60156 3.28906L3.85937 3.01562L3.73438 2.88281L3.34375 3.02344L3.21875 2.88281L3.15625 3.25L2.44531 3.67969L2.70313 3.83594V3.84375Z" fill="#CA3745"/>
<path fill-rule="evenodd" clip-rule="evenodd" d="M4.07812 4H3.91406L3.75 3.84375L3.58594 4H0.140625V1.76563H0.304687L0.140625 1.60938V1.44531L0.632813 1.92188V2.07813H0.46875V1.92188H0.304687V2.07813L1.63281 2.78906H2.75781V3.48438L3.25781 3.84375H3.58594L3.74219 3.6875L3.58594 3.52344H3.74219L4.07812 4Z" fill="white"/>
<path fill-rule="evenodd" clip-rule="evenodd" d="M3.32812 4H0.140625V2.08594L1.5625 2.88281H2.625V3.52344L3.33594 4H3.32812Z" fill="#00843D"/>
<path fill-rule="evenodd" clip-rule="evenodd" d="M1.64063 5.11719L2.28125 5.53125H2.67188L2.53906 5.66406L2.79688 5.9375L2.67188 6.07813L2.28125 5.9375L2.15625 6.07813L2.09375 5.71094L1.38281 5.27344L1.64063 5.11719Z" fill="#CA3745"/>
<path fill-rule="evenodd" clip-rule="evenodd" d="M2.34375 4.79688L2.99219 5.21094H3.38281L3.25 5.34375L3.50781 5.61719L3.38281 5.75781L2.99219 5.61719L2.86719 5.75781L2.80469 5.39062L2.09375 4.96094L2.34375 4.80469V4.79688ZM2.70313 4.15625L3.35156 4.57031H3.73438L3.60156 4.70312L3.85937 4.97656L3.73438 5.11719L3.34375 4.97656L3.21875 5.11719L3.15625 4.75L2.44531 4.32031L2.70313 4.16406V4.15625Z" fill="#CA3745"/>
<path fill-rule="evenodd" clip-rule="evenodd" d="M4.07812 4H3.91406L3.75 4.15625L3.58594 4H0.140625V6.23438H0.304687L0.140625 6.39063V6.5625L0.632813 6.08594V5.92969H0.46875V6.08594H0.304687V5.92969L1.63281 5.22656H2.75781V4.52344L3.25781 4.17188H3.58594L3.74219 4.32813L3.58594 4.48438H3.74219L4.07812 4.01563V4Z" fill="#FAAE29"/>
<path fill-rule="evenodd" clip-rule="evenodd" d="M3.32813 4H0.140625V5.91406L1.5625 5.11719H2.625V4.47656L3.33594 4H3.32813ZM-3.04688 4H0.140625V2.08594L-1.27344 2.88281H-2.33594V3.52344L-3.03906 4H-3.04688Z" fill="#CA3745"/>
<path fill-rule="evenodd" clip-rule="evenodd" d="M0.492188 4L1.38281 3.52344H1.91406L1.73437 3.36719L2.09375 3.03906L1.91406 2.88281L1.38281 3.03906L1.20312 2.88281L1.125 3.3125L0.140625 3.8125L0.492188 4ZM-0.210937 4L-1.09375 4.47656H-1.625L-1.45312 4.63281L-1.80469 4.96094L-1.625 5.11719L-1.09375 4.96094L-0.921875 5.11719L-0.84375 4.6875L0.140625 4.1875L-0.210937 4Z" fill="#CA3745"/>
<path fill-rule="evenodd" clip-rule="evenodd" d="M-0.210937 4L-1.09375 3.52344H-1.625L-1.44531 3.36719L-1.79688 3.03906L-1.61719 2.88281L-1.08594 3.03906L-0.914062 2.88281L-0.835937 3.3125L0.148437 3.8125L-0.203125 4H-0.210937ZM0.492188 4L1.38281 4.47656H1.91406L1.73437 4.63281L2.09375 4.96094L1.91406 5.11719L1.38281 4.96094L1.20312 5.11719L1.125 4.6875L0.140625 4.1875L0.492188 4Z" fill="#00843D"/>
<path fill-rule="evenodd" clip-rule="evenodd" d="M-0.921875 4L0.140625 3.20312L1.20312 4L0.140625 4.79688L-0.921875 4Z" fill="white"/>
<path fill-rule="evenodd" clip-rule="evenodd" d="M-3.30469 3.67969L-3.14062 3.52344L-3.29688 3.36719H-3.46875L-3.96094 4H-3.79688L-3.46875 3.52344H-3.30469L-3.46094 3.67969L-3.30469 3.83594H-2.96875V3.67969H-3.29688H-3.30469ZM3.58594 4.32031L3.42969 4.47656L3.58594 4.63281H3.75L4.24219 4H4.08594L3.75 4.47656H3.59375L3.75 4.32031L3.59375 4.16406H3.25781V4.32031H3.58594Z" fill="#CA3745"/>
<path fill-rule="evenodd" clip-rule="evenodd" d="M3.59375 3.67969L3.42188 3.52344L3.58594 3.36719H3.75L4.24219 4H4.08594L3.75 3.52344H3.59375L3.75 3.67969L3.59375 3.83594H3.25781V3.67969H3.58594H3.59375ZM-0.0234375 3.36719H0.304687V4.64063H-0.0234375V3.36719Z" fill="#CA3745"/>
<path fill-rule="evenodd" clip-rule="evenodd" d="M-0.515625 3.67969H0.796875V4.32031H-0.515625V3.67969Z" fill="#CA3745"/>
<path fill-rule="evenodd" clip-rule="evenodd" d="M-1.35875 28.2646L-4.30273 29.8876V32.5324L-1.33097 34.1554H1.61301L4.55699 32.5324V29.8876L1.61301 28.2947H-1.33097L-1.35875 28.2646Z" fill="#00843D"/>
<path fill-rule="evenodd" clip-rule="evenodd" d="M-1.35504 28.2471L-1.32388 28.2808H1.61744L4.57221 29.8795V32.5415L1.61751 34.1703H-1.33389L-4.31641 32.5415V29.8796L-1.35504 28.2471ZM-4.28751 29.8967V32.5244L-1.32651 34.1415H1.61007L4.54332 32.5244V29.8967L1.61013 28.3097H-1.33652L-1.36091 28.2833L-4.28751 29.8967Z" fill="black"/>
<path fill-rule="evenodd" clip-rule="evenodd" d="M-3.1875 30.9609H-3.01562V30.625H-2.65625V30.9531H-2.47656V30.1875H-2.65625V30.5156H-3.00781V30.1875H-3.1875V30.9531V30.9609ZM1.33594 33.5078H1.51562V33.1797H1.86719V33.5078H2.04688V32.7344H1.875V33.0625H1.51562V32.7344H1.34375V33.5L1.33594 33.5078ZM-1.52344 29.6797H-1.34375V29.3594H-0.984375V29.6875H-0.8125V28.9219H-0.984375V29.25H-1.34375V28.9219H-1.52344V29.6875V29.6797ZM1.09375 29.6797H1.27344V29.3594H1.63281V29.6875H1.8125V28.9219H1.63281V29.25H1.27344V28.9219H1.09375V29.6875V29.6797ZM2.76562 30.9609H2.9375V30.625H3.29687V30.9531H3.47656V30.1875H3.29687V30.5156H2.9375V30.1875H2.76562V30.9531V30.9609ZM2.76562 32.2344H2.9375V31.9062H3.29687V32.2344H3.47656V31.4687H3.29687V31.7969H2.9375V31.4687H2.76562V32.2344Z" fill="#CC0000"/>
<path fill-rule="evenodd" clip-rule="evenodd" d="M0.140625 34.0156V31.2109H4.42969V32.4844L1.5625 34.0156H0.132812H0.140625ZM0.140625 28.4141V31.2109H-4.14062V29.9375L-1.28906 28.4141H0.140625Z" fill="#FAAE29"/>
<path fill-rule="evenodd" clip-rule="evenodd" d="M0.140625 28.4141V31.2109H4.42969V29.9375L1.5625 28.4141H0.132812H0.140625ZM0.140625 34.0156V31.2109H-4.14062V32.4844L-1.28906 34.0156H0.140625Z" fill="white"/>
<path fill-rule="evenodd" clip-rule="evenodd" d="M2.43035 30.0711H4.14783L2.43035 29.3092V30.0711ZM4.43004 29.9417V31.2139H1.72078V30.2005H1.14828L0.430652 29.8195V28.9283L0.866069 28.5402H0.293577V29.8195H0.148438V28.418H1.57564L4.43004 29.9417Z" fill="#FAAE29"/>
<path fill-rule="evenodd" clip-rule="evenodd" d="M0.144531 28.415H1.57649L4.43173 29.9392L4.42994 29.9426H4.43375V31.2186H1.71687V30.2052H1.14724L0.426746 29.8227V28.9275L0.855979 28.5448H0.297283V29.8242H0.144531V28.415ZM4.42613 29.9449L1.57459 28.4227H0.152144V29.8166H0.289671V28.5372H0.87596L0.434359 28.9309V29.8181L1.14913 30.1975H1.72448V31.211H4.42613V29.9449ZM2.42644 29.3042L4.14927 30.0685L4.14773 30.0758H2.42644V29.3042ZM2.43405 29.3159V30.0682H4.12976L2.43405 29.3159Z" fill="black"/>
<path fill-rule="evenodd" clip-rule="evenodd" d="M-1.28906 30.3203V32.1094H-0.859375L0.140625 32.625L1.14063 32.1094H1.57031V30.3281H1.14063L0.140625 29.8203L-0.859375 30.3281H-1.28906V30.3203Z" fill="#CA3745"/>
<path fill-rule="evenodd" clip-rule="evenodd" d="M-2.14128 32.3586H-3.85876L-2.14128 33.1205V32.3586ZM-4.14098 32.488V31.2158H-1.43171V32.2292H-0.859221L-0.14159 32.6102V33.5014L-0.577007 33.8895H-0.00451431V32.6102H0.140625V34.0117H-1.28658L-4.14098 32.488Z" fill="#FAAE29"/>
<path fill-rule="evenodd" clip-rule="evenodd" d="M0.144531 34.0146H-1.28743L-4.14267 32.4904L-4.14088 32.4871H-4.14468V31.2111H-1.42781V32.2245H-0.858174L-0.137684 32.607V33.5022L-0.566916 33.8848H-0.00822087V32.6055H0.144531V34.0146ZM-4.13707 32.4848L-1.28552 34.007H0.136918V32.6131H-0.000608057V33.8925H-0.586897L-0.145296 33.4988V32.6116L-0.860069 32.2321H-1.43542V31.2187H-4.13707V32.4848ZM-2.13738 33.1254L-3.86021 32.3612L-3.85866 32.3539H-2.13738V33.1254ZM-2.14499 33.1137V32.3615H-3.8407L-2.14499 33.1137Z" fill="black"/>
<path fill-rule="evenodd" clip-rule="evenodd" d="M-2.14128 30.0711H-3.85876L-2.14128 29.3092V30.0711ZM-4.14098 29.9417V31.2139H-1.43171V30.2005H-0.859221L-0.14159 29.8195V28.9283L-0.577007 28.5402H-0.00451431V29.8195H0.140625V28.418H-1.28658L-4.14098 29.9417Z" fill="white"/>
<path fill-rule="evenodd" clip-rule="evenodd" d="M0.144531 28.415H-1.28743L-4.14267 29.9392L-4.14088 29.9426H-4.14468V31.2186H-1.42781V30.2052H-0.858174L-0.137684 29.8227V28.9275L-0.566916 28.5448H-0.00822087V29.8242H0.144531V28.415ZM-4.13707 29.9449L-1.28552 28.4227H0.136918V29.8166H-0.000608057V28.5372H-0.586897L-0.145296 28.9309V29.8181L-0.860069 30.1975H-1.43542V31.211H-4.13707V29.9449ZM-2.13738 29.3042L-3.86021 30.0685L-3.85866 30.0758H-2.13738V29.3042ZM-2.14499 29.3159V30.0682H-3.8407L-2.14499 29.3159Z" fill="black"/>
<path fill-rule="evenodd" clip-rule="evenodd" d="M2.43035 32.3586H4.14783L2.43035 33.1205V32.3586ZM4.43004 32.488V31.2158H1.72078V32.2292H1.14828L0.430652 32.6102V33.5014L0.866069 33.8895H0.293577V32.6102H0.148438V34.0117H1.57564L4.43004 32.488Z" fill="white"/>
<path fill-rule="evenodd" clip-rule="evenodd" d="M0.144531 34.0146H1.57649L4.43173 32.4904L4.42994 32.4871H4.43375V31.2111H1.71687V32.2245H1.14724L0.426746 32.607V33.5022L0.855979 33.8848H0.297283V32.6055H0.144531V34.0146ZM4.42613 32.4848L1.57459 34.007H0.152144V32.6131H0.289671V33.8925H0.87596L0.434359 33.4988V32.6116L1.14913 32.2321H1.72448V31.2187H4.42613V32.4848ZM2.42644 33.1254L4.14927 32.3612L4.14773 32.3539H2.42644V33.1254ZM2.43405 33.1137V32.3615H4.12976L2.43405 33.1137Z" fill="black"/>
<path fill-rule="evenodd" clip-rule="evenodd" d="M-3.28125 32.2344H-3.10938V31.8437H-2.75V32.2344H-2.57031V31.3438H-2.75V31.7266H-3.10938V31.3359H-3.28125V32.2344ZM-1.57031 33.5078H-1.39063V33.1172H-1.03906V33.5078H-0.859375V32.6172H-1.03906V33H-1.39063V32.6094H-1.57031V33.5156V33.5078ZM-3.28906 30.1953H-3.10938V30.5781H-2.75V30.1875H-2.57031V31.0937H-2.75V30.7031H-3.10938V31.0859H-3.28125V30.1953H-3.28906ZM-1.57031 28.9219H-1.39063V29.3047H-1.03906V28.9141H-0.859375V29.8125H-1.03906V29.4297H-1.39063V29.8203H-1.57031V28.9219ZM1.14062 33.5078H1.32031V33.1172H1.67969V33.5078H1.85937V32.6172H1.67969V33H1.32031V32.6094H1.14062V33.5156V33.5078ZM2.85937 31.0859H3.03906V30.7031H3.39062V31.0937H3.57031V30.1953H3.39062V30.5781H3.04687V30.1875H2.86719V31.0937L2.85937 31.0859Z" fill="#CA3745"/>
<path fill-rule="evenodd" clip-rule="evenodd" d="M1.14062 33.5078H1.32031V33.1172H1.67969V33.5078H1.85937V32.6172H1.67969V33H1.32031V32.6094H1.14062V33.5156V33.5078Z" fill="#CA3745"/>
<path fill-rule="evenodd" clip-rule="evenodd" d="M1.14062 33.5078H1.32031V33.1172H1.67969V33.5078H1.85937V32.6172H1.67969V33H1.32031V32.6094H1.14062V33.5156V33.5078ZM2.85938 32.2344H3.03906V31.8437H3.39062V32.2344H3.57031V31.3438H3.39062V31.7187H3.04687V31.3359H2.86719V32.2344H2.85938ZM1.14062 29.8125H1.32031V29.4297H1.67969V29.8203H1.85937V28.9219H1.67969V29.3047H1.32031V28.9141H1.14062V29.8125Z" fill="#CA3745"/>
<path fill-rule="evenodd" clip-rule="evenodd" d="M0.289063 31.2109L0.859375 30.7422H1.14063V30.9766H0.859375V31.0937H1.28906V30.6328H0.859375V30.2812H0.289063V30.6328H0.429688V30.3984H0.710938V30.6328L0.140626 31.1016L-0.429687 30.6328V30.3984H-0.140625V30.6328H3.57628e-07V30.2812H-0.570312V30.6328H-1V31.1016H-0.570312V30.9844H-0.859375V30.75H-0.570312L3.57628e-07 31.2188L-0.570312 31.6797H-0.859375V31.4453H-0.570312V31.3281H-1V31.7969H-0.570312V32.1406H3.57628e-07V31.7969H-0.140625V32.0312H-0.429687V31.7969L0.140626 31.3281L0.710938 31.7969V32.0312H0.429688V31.7969H0.289063V32.1406H0.859375V31.7969H1.28906V31.3281H0.859375V31.4453H1.14063V31.6797H0.859375L0.289063 31.2109Z" fill="white"/>
<path fill-rule="evenodd" clip-rule="evenodd" d="M-3.86205 11.4775L-3.5879 11.193H-1.92687L-0.685121 9.94263H0.975915L2.21766 11.2005H3.8787L4.15285 11.4775L3.8787 11.7546H2.2096L0.967852 13.0124H-0.693184L-1.92687 11.7546H-3.59597L-3.87012 11.4775H-3.86205Z" fill="#CA3745"/>
<path fill-rule="evenodd" clip-rule="evenodd" d="M-3.7207 11.4999L-3.57056 11.3638H-1.85891L-0.575171 10.0433H0.851204L2.14245 11.3706H3.8541L3.99674 11.5067L3.8541 11.636H2.14245L0.993842 12.8272H-0.717808L-1.85891 11.636H-3.57807L-3.7207 11.4999Z" fill="#CA3745"/>
<path fill-rule="evenodd" clip-rule="evenodd" d="M-0.580111 10.0329H0.855323L2.14657 11.3602H3.85799L4.01207 11.5072L3.85783 11.6471H2.1466L0.997988 12.8382H-0.722795L-1.8639 11.6471H-3.58277L-3.72852 11.508L-3.72111 11.5002L-3.72831 11.4923L-3.57511 11.3534H-1.86385L-0.580111 10.0329ZM-3.70537 11.5004L-3.57418 11.6256H-1.85474L-0.713641 12.8168H0.988876L2.13748 11.6256H3.84955L3.98059 11.5068L3.84939 11.3816H2.13751L0.846267 10.0543H-0.57105L-1.85479 11.3748H-3.56683L-3.70537 11.5004Z" fill="black"/>
<path fill-rule="evenodd" clip-rule="evenodd" d="M0.839375 11.6196L1.38768 12.1737L1.11353 12.4507L0.968388 12.3159H0.839375V12.4507L0.976452 12.593H1.25867L1.53282 12.3159V12.0314L0.976452 11.4773L1.53282 10.9158V10.6388L1.25867 10.3617H0.976452L0.839375 10.4965V10.6388H0.976452L1.12159 10.4965L1.39574 10.781L0.839375 11.3351L0.291072 10.781L0.839375 10.2195V10.0772H0.7023L0.153997 10.6388L-0.40237 10.0772H-0.539445V10.2195L0.00885749 10.781L-0.539445 11.3351L-1.09581 10.781L-0.813597 10.4965L-0.676521 10.6388H-0.539445V10.4965L-0.676521 10.3617H-0.958736L-1.23289 10.6388V10.9158L-0.676521 11.4773L-1.23289 12.0314V12.3159L-0.958736 12.593H-0.676521L-0.539445 12.4507V12.3159H-0.692648L-0.829723 12.4507L-1.11194 12.1737L-0.555572 11.6196L-0.00726891 12.1737L-0.555572 12.7352V12.87H-0.418496L0.137871 12.3159L0.686173 12.87H0.823249V12.7352L0.274946 12.1737L0.823249 11.6196H0.839375ZM0.145934 10.9158L-0.410433 11.4773L0.145934 12.0314L0.694236 11.4773L0.145934 10.9158ZM-0.684585 13.0122V14.1354L-0.547508 13.9856L-0.410433 14.1354L-0.273357 13.9856L-0.136281 14.1354L0.00885749 13.9856L0.145934 14.1354L0.283009 13.9856L0.420085 14.1354L0.557161 13.9856L0.694236 14.1354L0.831313 13.9856L0.976452 14.1354V13.0122H-0.692648H-0.684585ZM0.976452 9.94244V8.81934L0.831313 8.96908L0.694236 8.81934L0.557161 8.96908L0.420085 8.81934L0.283009 8.96908L0.145934 8.81934L0.000794172 8.96908L-0.136281 8.81934L-0.273357 8.96908L-0.410433 8.81934L-0.547508 8.96908L-0.684585 8.81934V9.94244H0.976452ZM3.3148 11.2003V10.0772L3.18579 10.227L3.04872 10.0772L2.91164 10.227L2.7665 10.0772L2.62942 10.227L2.49235 10.0772L2.35527 10.227L2.2182 10.0772V11.2003H3.32287H3.3148ZM-1.92633 11.2003V10.0772L-2.07147 10.227L-2.20854 10.0772L-2.34562 10.227L-2.4827 10.0772L-2.61977 10.227L-2.75685 10.0772L-2.90199 10.227L-3.03906 10.0772V11.2003H-1.93439H-1.92633ZM3.32287 11.7544V12.8775L3.18579 12.7277L3.04872 12.8775L2.91164 12.7277L2.7665 12.8775L2.62942 12.7277L2.49235 12.8775L2.35527 12.7277L2.2182 12.8775V11.7544H3.32287ZM-1.93439 11.7544V12.8775L-2.07147 12.7277L-2.20854 12.8775L-2.34562 12.7277L-2.4827 12.8775L-2.61977 12.7277L-2.75685 12.8775L-2.90199 12.7277L-3.03906 12.8775V11.7544H-1.93439Z" fill="#FAAE29"/>
<path fill-rule="evenodd" clip-rule="evenodd" d="M0.967589 13.0117V13.708L1.11273 13.5657L1.2498 13.7155L1.38688 13.5657L1.52396 13.7155L1.66103 13.5657L1.79811 13.7155L1.94325 13.5657L2.08032 13.7155L2.2174 13.5657V11.7538L0.967589 13.0117ZM-0.685383 13.0117V13.708L-0.830522 13.5657L-0.967598 13.7155L-1.10467 13.5657L-1.24175 13.7155L-1.37883 13.5657L-1.5159 13.7155L-1.65298 13.5657L-1.79005 13.7155L-1.93519 13.5657V11.7538L-0.685383 13.0117ZM-0.685383 9.94187V9.24554L-0.830522 9.38032L-0.967598 9.24554L-1.10467 9.38032L-1.24175 9.24554L-1.37883 9.38032L-1.5159 9.24554L-1.65298 9.38032L-1.79005 9.24554L-1.93519 9.38032V11.1997L-0.685383 9.94187ZM0.967589 9.94187V9.24554L1.11273 9.38032L1.2498 9.24554L1.38688 9.38032L1.52396 9.24554L1.66103 9.38032L1.79811 9.24554L1.93518 9.38032L2.08032 9.24554L2.2174 9.38032V11.1997L0.967589 9.94187ZM-3.03986 12.5924L-3.17694 12.4501L-3.31401 12.5999L-3.45109 12.4501L-3.58816 12.5999L-3.72524 12.4501L-3.87038 12.5999L-4.00746 12.4501L-4.14453 12.5999V10.3537L-4.00746 10.5034L-3.87038 10.3537L-3.72524 10.5034L-3.58816 10.3537L-3.45109 10.5034L-3.31401 10.3537L-3.17694 10.5034L-3.03986 10.3537V11.1997H-3.58816L-3.87038 11.4768L-3.58816 11.7538H-3.03986V12.5924ZM3.32207 12.5924L3.45914 12.4501L3.59622 12.5999L3.73329 12.4501L3.87843 12.5999L4.01551 12.4501L4.15259 12.5999L4.28966 12.4501L4.42674 12.5999V10.3537L4.28966 10.5034L4.15259 10.3537L4.01551 10.5034L3.87843 10.3537L3.73329 10.5034L3.59622 10.3537L3.45914 10.5034L3.32207 10.3537V11.1997H3.87843L4.15259 11.4768L3.87843 11.7538H3.32207V12.5924Z" fill="#00843D"/>
<path fill-rule="evenodd" clip-rule="evenodd" d="M0.0729889 13.5284C0.0729889 13.5284 -0.0640866 13.6781 -0.0640866 13.753C-0.0640866 13.8279 0.0810523 13.9926 0.145559 13.9926C0.226191 13.9926 0.347141 13.8353 0.347141 13.7605C0.347141 13.6856 0.210064 13.5284 0.210064 13.5284V13.2139C0.210064 13.2139 0.451963 13.723 0.451963 13.4909C0.451963 13.3412 0.210064 13.0641 0.210064 13.0641H0.0729889C0.0729889 13.0641 -0.209226 13.4086 -0.16891 13.4909C-0.16891 13.723 0.0729889 13.2139 0.0729889 13.2139V13.5284Z" fill="#CA3745"/>
<path d="M0.143228 11.6109C0.294063 11.6109 0.416338 11.5474 0.416338 11.4691C0.416338 11.3907 0.294063 11.3272 0.143228 11.3272C-0.00760704 11.3272 -0.129883 11.3907 -0.129883 11.4691C-0.129883 11.5474 -0.00760704 11.6109 0.143228 11.6109Z" fill="#00843D"/>
<path d="M1.65885 11.6109C1.80969 11.6109 1.93196 11.5474 1.93196 11.4691C1.93196 11.3907 1.80969 11.3272 1.65885 11.3272C1.50802 11.3272 1.38574 11.3907 1.38574 11.4691C1.38574 11.5474 1.50802 11.6109 1.65885 11.6109Z" fill="#00843D"/>
<path fill-rule="evenodd" clip-rule="evenodd" d="M0.041013 9.43305C0.041013 9.43305 -0.0960625 9.2833 -0.0960625 9.20843C-0.0960625 9.13355 0.0571397 8.97632 0.113583 8.97632C0.194215 8.97632 0.323228 9.12607 0.323228 9.20094C0.323228 9.27581 0.186152 9.44053 0.186152 9.44053V9.74003C0.186152 9.74003 0.428051 9.23838 0.428051 9.47048C0.428051 9.62023 0.186152 9.90475 0.186152 9.90475H0.0329499C0.0329499 9.90475 -0.249265 9.55284 -0.208949 9.47048C-0.208949 9.24586 0.0329499 9.74751 0.0329499 9.74751V9.43305H0.041013Z" fill="#CA3745"/>
<path fill-rule="evenodd" clip-rule="evenodd" d="M1.57298 13.1019C1.57298 13.1019 1.46009 13.2067 1.46009 13.2666C1.46009 13.319 1.58104 13.4313 1.63749 13.4313C1.70199 13.4313 1.80681 13.319 1.80681 13.2666C1.80681 13.2142 1.69393 13.1019 1.69393 13.1019V12.8772C1.69393 12.8772 1.93583 13.2591 1.93583 13.0944C1.93583 12.9746 1.69393 12.7724 1.69393 12.7724H1.56492C1.56492 12.7724 1.32302 13.012 1.32302 13.0944C1.32302 13.2591 1.56492 12.8772 1.56492 12.8772V13.1019H1.57298ZM1.54879 9.86733C1.54879 9.86733 1.4359 9.75502 1.4359 9.69512C1.4359 9.65019 1.55685 9.5304 1.60523 9.5304C1.66974 9.5304 1.77456 9.64271 1.77456 9.69512C1.77456 9.75502 1.66168 9.86733 1.66168 9.86733V10.0919C1.66168 10.0919 1.91164 9.7026 1.91164 9.86733C1.91164 9.98712 1.66974 10.1968 1.66974 10.1968H1.54879C1.54879 10.1968 1.29883 9.95717 1.29883 9.87481C1.29883 9.71009 1.54073 10.0845 1.54073 10.0845V9.85984L1.54879 9.86733Z" fill="white"/>
<path fill-rule="evenodd" clip-rule="evenodd" d="M-2.5716 12.3234C-2.5716 12.3234 -2.7248 12.4282 -2.7248 12.4732C-2.7248 12.5256 -2.56354 12.6379 -2.49097 12.6304C-2.41033 12.6304 -2.26519 12.5331 -2.26519 12.4807C-2.26519 12.4282 -2.4184 12.3234 -2.4184 12.3234V12.1138C-2.4184 12.1138 -2.14424 12.4507 -2.14424 12.301C-2.14424 12.1961 -2.4184 12.0089 -2.4184 12.0089H-2.5716C-2.5716 12.0089 -2.88607 12.2485 -2.83769 12.301C-2.83769 12.4507 -2.5716 12.1138 -2.5716 12.1138V12.3234ZM-2.60385 10.7436C-2.60385 10.7436 -2.75705 10.6388 -2.75705 10.5864C-2.75705 10.5339 -2.59579 10.4291 -2.52322 10.4366C-2.44259 10.4366 -2.29745 10.5339 -2.29745 10.5864C-2.29745 10.6388 -2.45065 10.7361 -2.45065 10.7361V10.9457C-2.45065 10.9457 -2.1765 10.6088 -2.1765 10.766C-2.1765 10.8634 -2.45065 11.0506 -2.45065 11.0506H-2.60385C-2.60385 11.0506 -2.91832 10.8185 -2.86994 10.766C-2.86994 10.6163 -2.60385 10.9457 -2.60385 10.9457V10.7436ZM2.7421 12.286C2.7421 12.286 2.58084 12.3908 2.58084 12.4432C2.58084 12.4956 2.75017 12.6004 2.82274 12.6004C2.90337 12.6004 3.04851 12.4956 3.04851 12.4507C3.04851 12.3908 2.88724 12.286 2.88724 12.286V12.0838C2.88724 12.0838 3.16139 12.4208 3.16139 12.2635C3.16139 12.1662 2.89531 11.979 2.89531 11.979H2.73404C2.73404 11.979 2.42764 12.2111 2.46795 12.2635C2.46795 12.4208 2.7421 12.0838 2.7421 12.0838V12.2935V12.286ZM2.70985 10.7136C2.70985 10.7136 2.54858 10.6088 2.54858 10.5564C2.54858 10.504 2.71791 10.3992 2.79048 10.3992C2.87112 10.3992 3.01625 10.504 3.01625 10.5489C3.01625 10.6088 2.85499 10.7062 2.85499 10.7062V10.9158C2.85499 10.9158 3.12914 10.5789 3.12914 10.7286C3.12914 10.8334 2.86305 11.0206 2.86305 11.0206H2.70179C2.70179 11.0206 2.39538 10.7885 2.4357 10.7361C2.4357 10.5789 2.70985 10.9158 2.70985 10.9158V10.7062V10.7136Z" fill="#CA3745"/>
<path fill-rule="evenodd" clip-rule="evenodd" d="M-3.70052 12.3086C-3.7489 12.2112 -3.73277 12.1663 -3.73277 12.1139C-3.73277 12.0615 -3.5957 11.9641 -3.54732 11.9641C-3.48281 11.9641 -3.37799 12.069 -3.37799 12.1289C-3.37799 12.1813 -3.37799 12.2262 -3.40218 12.3235L-3.46668 12.1663C-3.55538 12.3909 -3.56344 12.3909 -3.61182 12.1588L-3.69245 12.3086H-3.70052ZM-3.70052 10.6988C-3.74083 10.7961 -3.73277 10.841 -3.73277 10.8935C-3.73277 10.9459 -3.5957 11.0432 -3.53925 11.0432C-3.47475 11.0432 -3.36992 10.9384 -3.36992 10.8785C-3.36992 10.8261 -3.36992 10.7811 -3.39411 10.6838L-3.46668 10.841C-3.54732 10.6164 -3.55538 10.6164 -3.61182 10.8485L-3.69245 10.6988H-3.70052ZM3.75802 12.2861C3.70964 12.1888 3.7177 12.1438 3.7177 12.0914C3.7177 12.039 3.86284 11.9417 3.91122 11.9417C3.97573 11.9417 4.08055 12.054 4.08055 12.1064C4.08055 12.1588 4.08055 12.2112 4.05636 12.3011L3.98379 12.1438C3.90316 12.3685 3.89509 12.3759 3.83865 12.1438L3.75802 12.2861ZM3.75802 10.6838C3.70964 10.7737 3.72576 10.8186 3.72576 10.8785C3.72576 10.9234 3.86284 11.0282 3.91122 11.0282C3.97573 11.0282 4.08861 10.9159 4.08861 10.8635C4.08861 10.8036 4.08861 10.7587 4.06442 10.6613L3.98379 10.8261C3.90316 10.594 3.90316 10.5865 3.84671 10.8261L3.76608 10.6763L3.75802 10.6838Z" fill="white"/>
<path fill-rule="evenodd" clip-rule="evenodd" d="M-0.709217 14.1645V13.7602H-1.99934V12.9665H-3.14433V12.7045H-4.14417V10.3086H-3.14433V10.0465H-1.99934V9.25285H-0.709217V8.85602H1.0002V9.25285H2.29032V10.0465H3.42725V10.316H4.43516V12.7045H3.43531V12.9665H2.29839V13.7602H1.00826V14.157H-0.701153L-0.709217 14.1645ZM-0.854355 14.2918V13.895H-2.14448V13.1013H-3.2814V12.8318H-4.28125V10.1813H-3.2814V9.91922H-2.14448V9.11808H-0.854355V8.72125H1.14534V9.11808H2.43546V9.91922H3.57239V10.1813H4.57223V12.8318H3.57239V13.1013H2.4274V13.895H1.13728V14.2918H-0.854355Z" fill="#CA3745"/>
<path fill-rule="evenodd" clip-rule="evenodd" d="M-0.858262 8.71777H1.1492V9.1146H2.43933V9.91574H3.57625V10.1778H4.5761V12.8361H3.57625V13.1056H2.43126V13.8992H1.14114V14.2961H-0.854376V14.2922H-0.858262V13.8992H-2.14839V13.1056H-3.28531V12.8361H-4.28516V10.1778H-3.28531V9.91574H-2.14839V9.1146H-0.858262V8.71777ZM-0.850492 14.2883H1.13337V13.8915H2.4235V13.0978H3.56848V12.8283H4.56833V10.1856H3.56848V9.92351H2.43156V9.12237H1.14143V8.72554H-0.850492V9.12237H-2.14062V9.92351H-3.27754V10.1856H-4.27739V12.8283H-3.27754V13.0978H-2.14062V13.8915H-0.850492V14.2883ZM-0.713123 8.85254H1.00406V9.24937H2.29419V10.043H3.43111V10.3126H4.43902V12.7088H3.43917V12.9708H2.30225V13.7645H1.01213V14.1613H-0.699649L-0.713123 14.1738V13.7645H-2.00325V12.9708H-3.14823V12.7088H-4.14808V10.3051H-3.14823V10.043H-2.00325V9.24937H-0.713123V8.85254ZM-0.705353 8.86031V9.25714H-1.99548V10.0508H-3.14046V10.3128H-4.14031V12.701H-3.14046V12.9631H-1.99548V13.7567H-0.705353V14.156L-0.7027 14.1535H1.00436V13.7567H2.29448V12.9631H3.43141V12.701H4.43125V10.3203H3.42334V10.0508H2.28642V9.25714H0.996293V8.86031H-0.705353Z" fill="black"/>
</g>
<defs>
<clipPath id="clip0_8424_43178">
<rect width="40" height="40" rx="20" fill="white"/>
</clipPath>
</defs>
</svg>
