<svg width="40" height="40" viewBox="0 0 40 40" fill="none" xmlns="http://www.w3.org/2000/svg">
<g clip-path="url(#clip0_8424_43175)">
<path d="M-7 0H46.3333V40H-7V0Z" fill="#009FCA"/>
<path fill-rule="evenodd" clip-rule="evenodd" d="M42.4419 10.2253H44.7503L42.8919 11.492L43.6003 13.5503L41.7419 12.2753L39.8919 13.5503L40.6003 11.492L38.7419 10.2253H41.0336L41.7419 8.16699L42.4419 10.2253ZM36.6753 26.6253H38.9753L37.1169 27.892L37.8253 29.9503L35.9669 28.6753L34.1086 29.9503L34.8253 27.892L32.9669 26.6253H35.2503L35.9586 24.567L36.6753 26.6253ZM42.4419 22.9087H44.7503L42.8919 24.1753L43.6003 26.2337L41.7419 24.9587L39.8919 26.2337L40.6003 24.1753L38.7419 22.9087H41.0336L41.7419 20.8503L42.4419 22.9087ZM17.6503 34.8087H19.9503L18.0836 36.067L18.8003 38.117L16.9419 36.8503L15.0836 38.117L15.8003 36.067L13.9336 34.792H16.2336L16.9419 32.742L17.6503 34.8087ZM22.8669 28.4337H20.5669L22.4253 27.1587L21.7169 25.1087L23.5753 26.3753L25.4336 25.1087L24.7169 27.1587L26.5753 28.4337H24.2836L23.5753 30.4837L22.8669 28.4337ZM29.6419 19.0587H27.3336L29.1919 17.792L28.4836 15.7337L30.3419 17.0087L32.2003 15.7337L31.4836 17.792L33.3419 19.0587H31.0503L30.3419 21.117L29.6419 19.0587ZM35.3336 17.117H33.0336L34.9003 15.842L34.1836 13.792L36.0419 15.0587L37.9003 13.792L37.1836 15.842L39.0503 17.117H36.7503L36.0419 19.167L35.3336 17.117ZM29.6419 33.3337H27.3336L29.1919 32.067L28.5003 30.0003L30.3586 31.267L32.2169 30.0003L31.5003 32.0587L33.3586 33.3253H31.0669L30.3586 35.3837L29.6419 33.3337ZM22.8669 34.992H20.5669L22.4253 33.7253L21.7169 31.667L23.5753 32.9337L25.4336 31.667L24.7169 33.717L26.5836 35.0003H24.2919L23.5836 37.0587L22.8669 34.992Z" fill="#FFF40D"/>
<path d="M-7 0H19.6667V20H-7V0Z" fill="#012169"/>
<path d="M-3.875 0L6.29167 7.54167L16.4167 0H19.6667V2.58333L9.66667 10.0417L19.6667 17.4583V20H16.3333L6.33333 12.5417L-3.625 20H-7V17.5L2.95833 10.0833L-7 2.66667V0H-3.875Z" fill="white"/>
<path d="M10.6667 11.7083L19.6667 18.3333V20L8.375 11.7083H10.6667ZM3 12.5417L3.25 14L-4.75 20H-7L3 12.5417ZM19.6667 0V0.125L9.29167 7.95833L9.375 6.125L17.5833 0H19.6667ZM-7 0L2.95833 7.33333H0.458333L-7 1.75V0Z" fill="#C8102E"/>
<path d="M3.04167 0V20H9.70833V0H3.04167ZM-7 6.66667V13.3333H19.6667V6.66667H-7Z" fill="white"/>
<path d="M-7 8.04167V12.0417H19.6667V8.04167H-7ZM4.375 0V20H8.375V0H4.375Z" fill="#C8102E"/>
</g>
<defs>
<clipPath id="clip0_8424_43175">
<rect width="40" height="40" rx="20" fill="white"/>
</clipPath>
</defs>
</svg>
