<svg width="40" height="40" viewBox="0 0 40 40" fill="none" xmlns="http://www.w3.org/2000/svg">
<g clip-path="url(#clip0_8424_43173)">
<path fill-rule="evenodd" clip-rule="evenodd" d="M-10 26.6719H50V33.3359H-10V26.6719Z" fill="#FFE700"/>
<path fill-rule="evenodd" clip-rule="evenodd" d="M-10 20H50V26.6641H-10V20Z" fill="black"/>
<path fill-rule="evenodd" clip-rule="evenodd" d="M-10 13.3359H50V20H-10V13.3359Z" fill="#DE3908"/>
<path fill-rule="evenodd" clip-rule="evenodd" d="M-10 6.67188H50V13.3359H-10V6.67188Z" fill="#FFE700"/>
<path fill-rule="evenodd" clip-rule="evenodd" d="M-10 0H50V6.66406H-10V0Z" fill="black"/>
<path fill-rule="evenodd" clip-rule="evenodd" d="M26.2266 20C26.2266 21.6514 25.5706 23.2351 24.4028 24.4028C23.2351 25.5706 21.6514 26.2266 20 26.2266C18.3486 26.2266 16.7649 25.5706 15.5972 24.4028C14.4294 23.2351 13.7734 21.6514 13.7734 20C13.7734 18.3486 14.4294 16.7649 15.5972 15.5972C16.7649 14.4294 18.3486 13.7734 20 13.7734C21.6514 13.7734 23.2351 14.4294 24.4028 15.5972C25.5706 16.7649 26.2266 18.3486 26.2266 20Z" fill="#FFFDFF"/>
<path fill-rule="evenodd" clip-rule="evenodd" d="M20 13.8125C18.359 13.8125 16.7852 14.4644 15.6248 15.6248C14.4644 16.7852 13.8125 18.359 13.8125 20C13.8125 21.641 14.4644 23.2148 15.6248 24.3752C16.7852 25.5356 18.359 26.1875 20 26.1875C21.641 26.1875 23.2148 25.5356 24.3752 24.3752C25.5356 23.2148 26.1875 21.641 26.1875 20C26.1875 18.359 25.5356 16.7852 24.3752 15.6248C23.2148 14.4644 21.641 13.8125 20 13.8125ZM15.5695 15.5695C16.7446 14.3945 18.3383 13.7344 20 13.7344C21.6617 13.7344 23.2554 14.3945 24.4305 15.5695C25.6055 16.7446 26.2656 18.3383 26.2656 20C26.2656 21.6617 25.6055 23.2554 24.4305 24.4305C23.2554 25.6055 21.6617 26.2656 20 26.2656C18.3383 26.2656 16.7446 25.6055 15.5695 24.4305C14.3945 23.2554 13.7344 21.6617 13.7344 20C13.7344 18.3383 14.3945 16.7446 15.5695 15.5695Z" fill="black"/>
<path fill-rule="evenodd" clip-rule="evenodd" d="M18.9062 15.2266L18.5 14.4844C18.6562 14.3281 18.9141 14.2031 19.3359 14.2031L19.2891 15.0234L18.8984 15.2266H18.9062Z" fill="#DE3108"/>
<path fill-rule="evenodd" clip-rule="evenodd" d="M18.5491 14.4918L18.9209 15.1711L19.2518 14.999L19.295 14.2426C18.9246 14.2501 18.6934 14.3584 18.5491 14.4918ZM18.9584 15.2396L19.3273 15.0478L19.3778 14.1641H19.3364C18.9064 14.1641 18.6378 14.2918 18.4728 14.4568L18.4521 14.4775L18.8725 15.2453L18.8914 15.2349L18.8989 15.2656H18.9726L18.9584 15.2396Z" fill="black"/>
<path fill-rule="evenodd" clip-rule="evenodd" d="M19.2969 15.0235L19.3516 14.2032C19.3516 14.2032 20.1875 14.1563 20.6406 14.7032L20.1953 15.3438L19.2891 15.0313L19.2969 15.0235Z" fill="#FFE700"/>
<path fill-rule="evenodd" clip-rule="evenodd" d="M19.3877 14.2413L19.3367 15.0065L20.1796 15.2972L20.5909 14.7056C20.3734 14.4572 20.0714 14.3404 19.8176 14.2863C19.6873 14.2585 19.5708 14.2475 19.4869 14.2434C19.445 14.2414 19.4113 14.2411 19.3883 14.2413C19.3881 14.2413 19.3879 14.2413 19.3877 14.2413ZM19.2584 15.0062L19.3144 14.1661L19.3489 14.1642L19.3511 14.2032C19.3489 14.1642 19.3489 14.1642 19.3489 14.1642L19.349 14.1641L19.3492 14.1641L19.3497 14.1641L19.3518 14.164C19.3535 14.1639 19.356 14.1638 19.3593 14.1637C19.3658 14.1635 19.3753 14.1633 19.3876 14.1631C19.412 14.1629 19.4471 14.1632 19.4907 14.1654C19.5777 14.1696 19.6985 14.181 19.8339 14.2099C20.1038 14.2674 20.4358 14.3953 20.6702 14.6782L20.6892 14.7011L20.2101 15.3903L19.2168 15.0478L19.2584 15.0062Z" fill="black"/>
<path fill-rule="evenodd" clip-rule="evenodd" d="M20.2031 15.3359L20.6172 14.6953C20.8906 14.9844 21.0078 15.1875 21.0469 15.5C21.0547 15.5078 20.3984 15.6641 20.3984 15.6562L20.2031 15.3359Z" fill="#DE3108"/>
<path fill-rule="evenodd" clip-rule="evenodd" d="M20.6115 14.632L20.6457 14.6681C20.922 14.9602 21.0448 15.1704 21.0855 15.4928C21.0865 15.498 21.0864 15.5036 21.085 15.5091C21.0824 15.5197 21.0763 15.526 21.0743 15.528C21.0698 15.5324 21.0651 15.5348 21.0639 15.5354L21.0638 15.5355C21.0604 15.5373 21.0567 15.5386 21.0542 15.5395C21.0487 15.5415 21.0411 15.5439 21.0323 15.5464C21.0145 15.5516 20.9891 15.5584 20.9588 15.5663C20.898 15.582 20.8165 15.602 20.7348 15.6216C20.6532 15.6412 20.5712 15.6603 20.5095 15.674C20.4787 15.6808 20.4527 15.6864 20.4343 15.69C20.4252 15.6918 20.4175 15.6933 20.4117 15.6941C20.4091 15.6945 20.4057 15.695 20.4026 15.6951C20.4014 15.6952 20.3979 15.6954 20.3938 15.6948C20.3921 15.6946 20.3868 15.6938 20.3807 15.6907C20.3767 15.6886 20.3688 15.6834 20.3639 15.674L20.1699 15.3559L20.2033 15.3356L20.1705 15.3144L20.6115 14.632ZM20.2494 15.3362L20.4185 15.6135C20.4187 15.6135 20.419 15.6134 20.4192 15.6134C20.4367 15.61 20.4619 15.6045 20.4925 15.5977C20.5536 15.5841 20.6352 15.5651 20.7166 15.5456C20.7981 15.5261 20.8791 15.5062 20.9392 15.4906C20.9657 15.4838 20.9878 15.4779 21.004 15.4732C20.9644 15.2019 20.8595 15.0146 20.623 14.7582L20.2494 15.3362ZM20.433 15.6372L20.4314 15.6346C20.4319 15.6354 20.4325 15.6363 20.433 15.6372Z" fill="black"/>
<path fill-rule="evenodd" clip-rule="evenodd" d="M19.1098 25.8671C19.1098 25.8671 19.8833 24.9843 21.3833 25.1718C21.1567 24.8046 20.4223 24.8515 20.4223 24.8515C20.4223 24.8515 20.2036 23.1328 20.3755 23.039C20.5473 22.9453 21.313 23.0468 21.313 23.0468C21.4067 23.0468 21.5786 22.7812 21.438 22.6093C21.3051 22.4374 20.9067 21.789 21.0708 21.6562C21.2348 21.5312 22.1176 21.7343 22.1176 21.7343L19.6176 18.5312C19.6176 18.5312 19.3598 17.3203 19.8755 16.7343C20.4926 16.2265 20.4223 15.6718 20.4067 15.6796C20.3208 15.1171 19.4692 14.7187 18.8911 15.2343C18.5551 15.6406 18.7817 15.9531 18.7817 15.9531C18.7817 15.9531 17.8833 16.1953 17.852 16.3515C17.813 16.5078 18.8598 16.3281 18.8598 16.3281L18.7583 17.039C18.7583 17.039 16.727 18.8828 18.2895 20.4765L18.3364 20.414C18.3364 20.414 18.8833 21.0859 19.4536 21.2343C20.0005 21.7812 19.9458 21.7031 19.9458 21.7031C19.9458 21.7031 20.0473 22.5703 19.9458 22.7421C19.813 22.7031 18.438 22.6484 18.2348 22.7265C18.0473 22.789 17.3442 22.7499 17.5161 23.9062L17.7739 23.3203C17.7739 23.3203 17.7505 23.7343 17.9223 23.8828C17.8911 23.4453 18.0864 23.1484 18.0864 23.1484C18.0864 23.1484 18.1176 23.6328 18.227 23.6953C18.3364 23.7734 18.3364 22.914 18.9301 22.9921C19.5083 23.0624 19.938 23.039 19.938 23.039C19.938 23.039 20.1333 24.7109 20.0708 24.8671C19.6489 24.7656 18.6333 24.9062 18.5708 25.164C19.1645 25.1249 19.438 25.1953 19.438 25.1953C19.438 25.1953 18.9614 25.6249 19.1098 25.8671Z" fill="black"/>
<path fill-rule="evenodd" clip-rule="evenodd" d="M20.439 15.6649C20.39 15.3718 20.146 15.1268 19.8443 15.0193C19.5379 14.9101 19.1666 14.9403 18.8667 15.2078C18.8653 15.209 18.8641 15.2103 18.863 15.2117C18.689 15.422 18.6587 15.6112 18.6745 15.7497C18.6823 15.8184 18.7013 15.8737 18.7185 15.912C18.7216 15.9189 18.7246 15.9253 18.7275 15.9311C18.7031 15.938 18.6696 15.9476 18.6298 15.9594C18.5448 15.9846 18.4309 16.02 18.3159 16.0603C18.2012 16.1005 18.0843 16.146 17.9936 16.1917C17.9484 16.2145 17.9084 16.238 17.8783 16.2616C17.85 16.2837 17.8235 16.3111 17.8167 16.3435C17.8121 16.363 17.8158 16.3821 17.8279 16.398C17.8389 16.4124 17.8547 16.4216 17.8699 16.4277C17.9004 16.44 17.943 16.446 17.9901 16.4486C18.0856 16.4539 18.215 16.4458 18.3437 16.4331C18.4729 16.4203 18.6032 16.4027 18.701 16.3882C18.7487 16.3812 18.7887 16.3749 18.8172 16.3703L18.7242 17.0214C18.7206 17.0248 18.716 17.0292 18.7105 17.0345C18.6958 17.0486 18.6744 17.0694 18.6479 17.0965C18.5949 17.1505 18.521 17.2295 18.4374 17.3291C18.2701 17.5283 18.0631 17.8111 17.9052 18.1448C17.7473 18.4784 17.6376 18.8645 17.6675 19.2694C17.6975 19.6751 17.8673 20.0968 18.2634 20.5009C18.2706 20.5082 18.2806 20.512 18.2908 20.5113C18.3011 20.5107 18.3105 20.5055 18.3166 20.4973L18.337 20.4701C18.3532 20.4888 18.3757 20.5143 18.4039 20.5449C18.4646 20.6108 18.5516 20.7002 18.6566 20.7944C18.8635 20.9799 19.1442 21.1872 19.4344 21.2656C19.7031 21.5342 19.8253 21.6506 19.8803 21.6997C19.8942 21.7122 19.9043 21.7206 19.9115 21.7263C19.9117 21.7265 19.9119 21.7266 19.9121 21.7268C19.9126 21.7317 19.9133 21.7375 19.914 21.7442C19.9165 21.7681 19.9201 21.8025 19.924 21.8443C19.9319 21.928 19.9414 22.0412 19.9477 22.1598C19.9541 22.2784 19.9572 22.4016 19.9525 22.5054C19.9501 22.5573 19.9459 22.6037 19.9393 22.6419C19.935 22.6665 19.93 22.6864 19.9245 22.7017C19.9036 22.6982 19.8764 22.6949 19.8449 22.6918C19.7936 22.6867 19.7278 22.6816 19.6521 22.6769C19.5009 22.6674 19.3097 22.6594 19.1165 22.655C18.9232 22.6506 18.7275 22.6498 18.567 22.6551C18.4868 22.6577 18.415 22.6619 18.3566 22.6679C18.2998 22.6738 18.2523 22.6817 18.222 22.6931C18.2013 22.7 18.1725 22.7057 18.1353 22.7129L18.1317 22.7137C18.0958 22.7206 18.0539 22.7288 18.0094 22.7403C17.9174 22.7641 17.812 22.8029 17.7177 22.8785C17.5263 23.032 17.3934 23.3265 17.4803 23.9111C17.4826 23.9266 17.4949 23.9387 17.5104 23.9408C17.5259 23.9429 17.5409 23.9344 17.5472 23.9201L17.7408 23.4803C17.7424 23.5024 17.7447 23.5259 17.7478 23.55C17.7558 23.6126 17.7694 23.6811 17.7926 23.7441C17.8157 23.8069 17.8492 23.8666 17.8983 23.9091C17.9091 23.9184 17.9244 23.9203 17.9371 23.9139C17.9498 23.9076 17.9574 23.8942 17.9564 23.88C17.9412 23.667 17.9811 23.4883 18.0248 23.3628C18.0371 23.3275 18.0497 23.2964 18.0615 23.2701C18.066 23.3099 18.0721 23.3563 18.08 23.4039C18.0909 23.4691 18.1054 23.5376 18.1246 23.5944C18.1342 23.6228 18.1453 23.6493 18.1583 23.6714C18.1707 23.6925 18.1865 23.7124 18.2071 23.7247C18.2206 23.7337 18.2378 23.7385 18.2562 23.7326C18.2727 23.7272 18.2841 23.715 18.2916 23.7048C18.3067 23.6842 18.3195 23.6527 18.3316 23.619C18.3388 23.5991 18.3461 23.5774 18.3539 23.5543C18.3739 23.4951 18.3969 23.427 18.428 23.3579C18.471 23.2624 18.5272 23.1705 18.6062 23.1072C18.6838 23.0449 18.7855 23.0084 18.9245 23.0267L18.9249 23.0268C19.2154 23.0621 19.4686 23.0739 19.6493 23.0768C19.7396 23.0783 19.8118 23.0776 19.8616 23.0765C19.8792 23.0761 19.894 23.0756 19.9058 23.0752C19.907 23.086 19.9085 23.0993 19.9103 23.1149C19.9155 23.1608 19.9229 23.2267 19.9315 23.3062C19.9489 23.4653 19.9713 23.679 19.9918 23.8975C20.0123 24.1161 20.0308 24.3392 20.0403 24.5172C20.045 24.6062 20.0475 24.6835 20.0468 24.7431C20.0465 24.7729 20.0454 24.7978 20.0436 24.8172C20.0433 24.82 20.043 24.8226 20.0427 24.825C19.8224 24.7815 19.479 24.7937 19.179 24.8459C19.0203 24.8735 18.8713 24.9127 18.7572 24.962C18.7002 24.9867 18.6506 25.0145 18.6126 25.0456C18.5748 25.0765 18.5459 25.113 18.5356 25.1555C18.533 25.1663 18.5357 25.1778 18.5429 25.1864C18.5501 25.1949 18.5609 25.1996 18.5721 25.1988C18.8672 25.1794 19.0822 25.1872 19.2229 25.1997C19.2834 25.2051 19.3302 25.2114 19.3637 25.2167C19.3562 25.2243 19.3481 25.2326 19.3395 25.2416C19.2964 25.2863 19.2404 25.3488 19.1888 25.4194C19.1375 25.4896 19.0894 25.5695 19.064 25.649C19.0385 25.7284 19.0343 25.8125 19.0788 25.8852L19.1088 25.8669C19.1353 25.89 19.1353 25.89 19.1352 25.8901L19.1353 25.89L19.1356 25.8896L19.1371 25.888C19.1385 25.8864 19.1406 25.8841 19.1435 25.8811C19.1492 25.875 19.158 25.8659 19.1697 25.8543C19.1931 25.8312 19.2284 25.7981 19.2756 25.7589C19.3699 25.6804 19.5114 25.5774 19.6992 25.4801C20.0746 25.2857 20.6359 25.1137 21.3779 25.2064C21.3913 25.2081 21.4045 25.2019 21.4118 25.1906C21.4191 25.1792 21.4193 25.1646 21.4122 25.1531C21.2901 24.9553 21.0355 24.8734 20.8224 24.839C20.7144 24.8216 20.6138 24.8159 20.5403 24.8145C20.5035 24.8138 20.4733 24.8142 20.4524 24.8148C20.4523 24.8148 20.4523 24.8148 20.4522 24.8148C20.4508 24.8036 20.4491 24.7896 20.4472 24.773C20.4415 24.726 20.4337 24.6586 20.4248 24.5774C20.407 24.415 20.385 24.1977 20.3685 23.9775C20.3519 23.7571 20.3408 23.5348 20.3444 23.3622C20.3462 23.2758 20.3517 23.2032 20.3617 23.15C20.3667 23.1234 20.3725 23.103 20.3788 23.0888C20.3855 23.0737 20.3906 23.07 20.3913 23.0696C20.4076 23.0607 20.4338 23.0528 20.4698 23.0469C20.5052 23.041 20.5477 23.0373 20.5948 23.0355C20.689 23.032 20.7995 23.0358 20.9054 23.0426C21.0112 23.0494 21.1117 23.0591 21.1858 23.0671C21.2229 23.0711 21.2533 23.0747 21.2745 23.0773C21.285 23.0786 21.2933 23.0796 21.2989 23.0803L21.3052 23.0811L21.3068 23.0813L21.3072 23.0814L21.3073 23.0814C21.3088 23.0816 21.3104 23.0817 21.3119 23.0817C21.35 23.0817 21.387 23.0564 21.4159 23.027C21.4463 22.996 21.4746 22.9536 21.4947 22.9059C21.5346 22.8115 21.5458 22.687 21.4645 22.5872C21.3995 22.503 21.2683 22.3004 21.1737 22.1027C21.1263 22.0035 21.0892 21.9077 21.0737 21.8299C21.066 21.7909 21.064 21.7584 21.0678 21.7331C21.0714 21.7085 21.08 21.6931 21.0915 21.6836C21.1051 21.6734 21.1298 21.6642 21.1674 21.6581C21.2045 21.6522 21.2502 21.6498 21.3021 21.6506C21.4057 21.652 21.5296 21.6654 21.6496 21.6829C21.7694 21.7004 21.8843 21.7217 21.9692 21.7387C22.0117 21.7473 22.0466 21.7547 22.0709 21.7599C22.0831 21.7626 22.0926 21.7647 22.099 21.7661L22.1063 21.7678L22.1082 21.7682L22.1086 21.7683L22.1087 21.7683C22.1232 21.7717 22.1383 21.7655 22.1463 21.7529C22.1543 21.7404 22.1535 21.7242 22.1443 21.7124L19.6494 18.5158C19.6491 18.5142 19.6488 18.5125 19.6484 18.5104C19.6466 18.5016 19.6442 18.4886 19.6412 18.4717C19.6352 18.4378 19.6272 18.3888 19.6193 18.328C19.6033 18.2064 19.5873 18.0383 19.5873 17.8522C19.5873 17.4788 19.6517 17.0422 19.899 16.7594C20.2117 16.5013 20.3518 16.2303 20.4112 16.023C20.4409 15.9194 20.4503 15.8318 20.4512 15.77C20.4517 15.7391 20.45 15.7142 20.4475 15.6966C20.4462 15.6881 20.4446 15.68 20.4425 15.6735C20.4419 15.6715 20.4408 15.6684 20.439 15.6649ZM19.6166 18.5309C19.5822 18.5383 19.5822 18.5382 19.5822 18.5382L19.5822 18.538L19.582 18.5372L19.5815 18.5345C19.581 18.5321 19.5803 18.5285 19.5794 18.5239C19.5776 18.5147 19.575 18.5012 19.5719 18.4839C19.5658 18.4492 19.5577 18.3991 19.5496 18.3371C19.5333 18.2134 19.517 18.0421 19.517 17.8522C19.517 17.4746 19.5813 17.014 19.8481 16.7108C19.8493 16.7094 19.8507 16.7081 19.8521 16.7069C20.155 16.4577 20.2879 16.1983 20.3436 16.0037C20.3715 15.9062 20.3801 15.8248 20.3809 15.7689C20.3813 15.7409 20.3798 15.7198 20.3779 15.7066C20.3774 15.7034 20.377 15.7009 20.3766 15.6991C20.3737 15.6948 20.3717 15.6899 20.3709 15.6847C20.3304 15.4193 20.1076 15.1878 19.8207 15.0855C19.5359 14.984 19.1933 15.012 18.9155 15.2585C18.755 15.4536 18.7308 15.623 18.7443 15.7418C18.7512 15.802 18.7678 15.8503 18.7826 15.8832C18.79 15.8997 18.7969 15.9123 18.8019 15.9207C18.8043 15.9248 18.8063 15.9279 18.8076 15.9298C18.8082 15.9308 18.8087 15.9315 18.8089 15.9319L18.8092 15.9322C18.8159 15.9415 18.8177 15.9536 18.8138 15.9645C18.81 15.9754 18.801 15.9837 18.7898 15.9868L18.7892 15.9869L18.7874 15.9874L18.7799 15.9895C18.7734 15.9913 18.7638 15.9939 18.7515 15.9974C18.7271 16.0043 18.692 16.0143 18.6498 16.0268C18.5654 16.0518 18.4527 16.0868 18.3392 16.1266C18.2254 16.1665 18.1119 16.2108 18.0253 16.2545C17.9819 16.2763 17.9465 16.2974 17.9216 16.3169C17.8964 16.3366 17.8877 16.3503 17.8857 16.3571C17.886 16.3572 17.8862 16.3574 17.8865 16.3576C17.8886 16.359 17.8917 16.3607 17.8963 16.3625C17.9155 16.3703 17.9484 16.3759 17.9939 16.3784C18.0837 16.3834 18.2087 16.3758 18.3368 16.3631C18.4645 16.3505 18.5935 16.333 18.6907 16.3187C18.7393 16.3115 18.7799 16.3051 18.8083 16.3005C18.8225 16.2982 18.8337 16.2964 18.8413 16.2951L18.8499 16.2937L18.8528 16.2932C18.8639 16.2913 18.8753 16.2948 18.8833 16.3026C18.8914 16.3104 18.8952 16.3217 18.8936 16.3328L18.7921 17.0437C18.7909 17.0518 18.787 17.0593 18.7809 17.0648L18.7806 17.065L18.7796 17.066L18.7754 17.0698C18.7718 17.0732 18.7663 17.0784 18.7592 17.0852C18.7449 17.0989 18.7241 17.1192 18.6981 17.1457C18.6462 17.1987 18.5736 17.2763 18.4912 17.3743C18.3264 17.5707 18.1233 17.8484 17.9687 18.1749C17.8141 18.5014 17.7089 18.8751 17.7376 19.2642C17.7656 19.6427 17.9205 20.0385 18.2851 20.4221L18.3073 20.3927C18.3138 20.384 18.3239 20.3788 18.3347 20.3786C18.3455 20.3784 18.3558 20.3832 18.3626 20.3916L18.363 20.392L18.3641 20.3933C18.3647 20.394 18.3654 20.3949 18.3664 20.3961C18.367 20.3969 18.3678 20.3978 18.3686 20.3988C18.3727 20.4036 18.3787 20.4108 18.3866 20.42C18.4025 20.4384 18.4258 20.4649 18.4556 20.4972C18.5152 20.5619 18.6006 20.6497 18.7036 20.7421C18.9105 20.9276 19.1847 21.128 19.4614 21.2C19.4675 21.2016 19.473 21.2048 19.4774 21.2092C19.7509 21.4827 19.8733 21.5992 19.9272 21.6473C19.9381 21.6571 19.946 21.6638 19.9515 21.6683C19.9602 21.67 19.9682 21.675 19.9736 21.6826L19.9448 21.7028L19.9111 21.7067C19.9111 21.7067 19.9111 21.7067 19.9111 21.7067L19.9448 21.7028C19.9736 21.6826 19.9735 21.6826 19.9736 21.6826L19.9736 21.6827L19.9737 21.6828L19.9738 21.683L19.9742 21.6836C19.9744 21.6839 19.9746 21.6842 19.9748 21.6845C19.975 21.6848 19.9751 21.685 19.9753 21.6853C19.9759 21.6863 19.9774 21.6888 19.9787 21.692C19.9793 21.6936 19.9804 21.6967 19.981 21.7007C19.9813 21.7025 19.9818 21.7063 19.9811 21.7111C19.9818 21.7174 19.9827 21.726 19.9839 21.7367C19.9865 21.7608 19.9901 21.7955 19.994 21.8377C20.002 21.922 20.0116 22.0362 20.018 22.156C20.0243 22.2756 20.0276 22.4015 20.0227 22.5086C20.0203 22.5621 20.0158 22.6117 20.0086 22.6539C20.0014 22.6952 19.991 22.7327 19.975 22.7598C19.9668 22.7736 19.9503 22.7801 19.9348 22.7756C19.922 22.7718 19.8894 22.7669 19.8379 22.7618C19.7878 22.7567 19.7229 22.7517 19.6478 22.7471C19.4975 22.7377 19.3073 22.7296 19.1149 22.7253C18.9223 22.7209 18.728 22.7202 18.5693 22.7254C18.49 22.728 18.42 22.7321 18.3638 22.7379C18.3065 22.7438 18.267 22.7511 18.2464 22.7591C18.2459 22.7593 18.2454 22.7594 18.2449 22.7596C18.2189 22.7683 18.1848 22.7749 18.1488 22.782L18.1457 22.7826C18.1095 22.7896 18.0694 22.7974 18.0271 22.8084C17.9399 22.8309 17.8451 22.8664 17.7617 22.9334C17.6101 23.055 17.4853 23.2896 17.5341 23.7753L17.7407 23.3058C17.7476 23.2903 17.7646 23.2818 17.7811 23.2858C17.7976 23.2898 17.8089 23.305 17.808 23.322M17.808 23.322L17.808 23.3222L17.8079 23.3229L17.8078 23.3262C17.8077 23.3291 17.8075 23.3334 17.8074 23.339C17.8071 23.3502 17.8068 23.3665 17.8071 23.3866C17.8075 23.4268 17.8099 23.4818 17.8175 23.5411C17.8251 23.6006 17.8379 23.6635 17.8586 23.7198C17.8658 23.7394 17.8739 23.7579 17.8828 23.775C17.8845 23.5987 17.9201 23.4498 17.9584 23.3397C17.9815 23.2735 18.0056 23.2212 18.0241 23.1853C18.0333 23.1673 18.0412 23.1534 18.0468 23.1439C18.0496 23.1391 18.0518 23.1355 18.0534 23.133C18.0542 23.1317 18.0548 23.1307 18.0552 23.13L18.0558 23.1292L18.056 23.1289C18.056 23.1288 18.056 23.1288 18.0854 23.1481L18.056 23.1289C18.0643 23.1162 18.0798 23.1103 18.0944 23.1141C18.109 23.118 18.1195 23.1308 18.1205 23.1459L18.1205 23.1461L18.1206 23.1471L18.1208 23.1511C18.1211 23.1545 18.1215 23.1597 18.122 23.1663C18.123 23.1794 18.1247 23.1984 18.127 23.2213C18.1315 23.2672 18.1388 23.3289 18.1494 23.3923C18.16 23.456 18.1738 23.5203 18.1912 23.5719C18.1999 23.5977 18.2092 23.6193 18.2189 23.6357C18.2258 23.6474 18.232 23.6551 18.2372 23.6598C18.245 23.6478 18.2541 23.6267 18.2654 23.5952C18.2718 23.5775 18.2787 23.5572 18.2862 23.5351C18.3064 23.4751 18.3312 23.4015 18.3639 23.329C18.4088 23.2292 18.4707 23.1257 18.5622 23.0523C18.6549 22.978 18.7758 22.9363 18.9335 22.957C19.2211 22.992 19.4717 23.0036 19.6504 23.0065C19.7398 23.008 19.8111 23.0073 19.86 23.0062C19.8844 23.0056 19.9033 23.005 19.916 23.0045C19.9223 23.0042 19.9271 23.004 19.9303 23.0039L19.9339 23.0037L19.9348 23.0037L19.935 23.0036C19.9535 23.0026 19.9697 23.0162 19.9719 23.0347L19.9369 23.0387C19.9719 23.0347 19.9719 23.0347 19.9719 23.0347L19.974 23.0535C19.9755 23.0658 19.9775 23.0839 19.9801 23.1069C19.9854 23.153 19.9928 23.219 20.0014 23.2986C20.0188 23.4579 20.0413 23.672 20.0618 23.8909C20.0823 24.1098 20.1009 24.334 20.1105 24.5134C20.1153 24.6031 20.1178 24.6821 20.1171 24.7438C20.1168 24.7747 20.1157 24.8017 20.1136 24.824C20.1115 24.8453 20.1083 24.8652 20.1024 24.8799C20.0959 24.8961 20.0785 24.9051 20.0615 24.9011C19.8573 24.8519 19.5034 24.8608 19.191 24.9152C19.0353 24.9423 18.8922 24.9802 18.7851 25.0266C18.7315 25.0498 18.6883 25.0745 18.6571 25.1C18.6468 25.1084 18.6381 25.1167 18.6309 25.1248C18.8973 25.1102 19.0951 25.1178 19.2291 25.1297C19.3013 25.1361 19.355 25.1438 19.3909 25.15C19.4088 25.153 19.4223 25.1557 19.4314 25.1577C19.4359 25.1586 19.4394 25.1594 19.4418 25.16L19.4445 25.1607L19.4453 25.1609L19.4456 25.1609L19.4456 25.1609C19.4457 25.1609 19.4457 25.1609 19.4369 25.195L19.4456 25.1609C19.4582 25.1642 19.468 25.174 19.4711 25.1866C19.4742 25.1992 19.4701 25.2124 19.4605 25.2211C19.4605 25.2211 19.4605 25.2211 19.4605 25.2211L19.4602 25.2213L19.4593 25.2222L19.4555 25.2256C19.4522 25.2287 19.4473 25.2333 19.4411 25.2393C19.4286 25.2512 19.411 25.2686 19.3901 25.2903C19.3485 25.3337 19.2947 25.3937 19.2456 25.4609C19.1963 25.5283 19.1531 25.6012 19.131 25.6704C19.1151 25.7199 19.1108 25.7649 19.1204 25.8042C19.1451 25.7798 19.1819 25.7454 19.2306 25.7048C19.3282 25.6236 19.4739 25.5177 19.6669 25.4177C20.0391 25.2249 20.5871 25.0547 21.3047 25.1274C21.1883 25.0007 20.994 24.9379 20.8112 24.9084C20.7074 24.8917 20.6102 24.8861 20.539 24.8848C20.5034 24.8842 20.4743 24.8845 20.4543 24.8851C20.4443 24.8854 20.4365 24.8857 20.4313 24.8859C20.4296 24.886 20.4282 24.8861 20.4271 24.8861L20.4254 24.8862L20.4239 24.8863L20.4236 24.8863C20.4051 24.8875 20.3888 24.8741 20.3864 24.8557L20.4213 24.8512C20.3864 24.8557 20.3864 24.8557 20.3864 24.8557L20.3864 24.8556L20.3864 24.8554L20.3858 24.8507L20.384 24.8362C20.3824 24.8236 20.3802 24.805 20.3773 24.7814C20.3717 24.7341 20.3638 24.6665 20.3549 24.5851C20.337 24.4222 20.315 24.204 20.2984 23.9828C20.2817 23.7618 20.2704 23.5368 20.2741 23.3608C20.276 23.2729 20.2816 23.1959 20.2926 23.1371C20.298 23.1078 20.3051 23.0816 20.3145 23.0603C20.3235 23.04 20.3368 23.0192 20.3576 23.0079C20.3842 22.9934 20.4196 22.9839 20.4583 22.9775C20.4977 22.971 20.5433 22.9671 20.5921 22.9653C20.6898 22.9616 20.8029 22.9655 20.9099 22.9724C21.017 22.9793 21.1186 22.9891 21.1934 22.9972C21.2308 23.0013 21.2616 23.0049 21.283 23.0075C21.2889 23.0082 21.2941 23.0088 21.2985 23.0094C21.3021 23.0098 21.3052 23.0102 21.3078 23.0106L21.3136 23.0113C21.3231 23.0104 21.3419 23.002 21.3657 22.9777C21.3895 22.9536 21.413 22.9188 21.4299 22.8786C21.4642 22.7974 21.4687 22.7033 21.4097 22.6313L21.4091 22.6306C21.3412 22.5426 21.2071 22.3354 21.1103 22.133C21.062 22.032 21.022 21.93 21.0048 21.8436C20.9962 21.8004 20.9928 21.7591 20.9982 21.7228C21.0036 21.6862 21.0183 21.6523 21.0476 21.6286L21.0484 21.628C21.0759 21.607 21.1146 21.5954 21.1563 21.5887C21.1989 21.5818 21.249 21.5795 21.303 21.5803C21.4111 21.5818 21.5386 21.5957 21.6598 21.6133C21.7812 21.631 21.8973 21.6526 21.983 21.6698C21.9996 21.6731 22.0151 21.6763 22.0292 21.6792L19.5889 18.5526C19.5856 18.5484 19.5834 18.5434 19.5822 18.5382L19.6166 18.5309M20.3757 15.6952C20.3756 15.6952 20.3757 15.6953 20.3757 15.6952V15.6952Z" fill="black"/>
<path fill-rule="evenodd" clip-rule="evenodd" d="M19.3437 16.7813C19.3437 16.7813 17.8672 18.4063 18.5078 19.6484C18.539 19.4766 18.5234 19.3672 18.5469 19.375C18.5078 19.3516 18.7265 19.5234 18.7109 19.4922C18.7109 19.3984 18.6484 19.2031 18.6484 19.2031L18.8437 19.2578L18.7265 19.0391L19.0156 19.0703C19.0156 19.0703 18.914 18.8047 18.9453 18.8047L19.1797 18.8203C18.7578 18.0703 19.1562 17.4453 19.3437 16.7734V16.7813Z" fill="#9CA69C"/>
<path fill-rule="evenodd" clip-rule="evenodd" d="M19.3485 16.7381C19.3659 16.7405 19.3789 16.7554 19.3789 16.773V16.7808C19.3789 16.7882 19.3766 16.7954 19.3723 16.8013C19.3339 16.936 19.2874 17.0689 19.2415 17.2002C19.232 17.2276 19.2224 17.255 19.2129 17.2823C19.1558 17.4469 19.1023 17.6097 19.0676 17.7743C18.9986 18.1022 19.0046 18.4368 19.2103 18.8026C19.2167 18.8138 19.2163 18.8277 19.2094 18.8386C19.2026 18.8495 19.1902 18.8558 19.1774 18.8549L18.9782 18.8416C18.9831 18.8643 18.992 18.8946 19.0022 18.9262C19.0128 18.9589 19.0244 18.9916 19.0333 19.0163C19.0378 19.0287 19.0416 19.0389 19.0443 19.0461L19.0474 19.0544L19.0482 19.0566L19.0484 19.0571L19.0485 19.0572C19.0528 19.0687 19.051 19.0816 19.0435 19.0913C19.036 19.101 19.024 19.1061 19.0119 19.1048L18.789 19.0807L18.8748 19.2407C18.8814 19.2531 18.88 19.2683 18.8712 19.2793C18.8624 19.2903 18.8479 19.295 18.8343 19.2912L18.7003 19.2537C18.7045 19.2686 18.7091 19.2854 18.7137 19.3032C18.7287 19.3613 18.7449 19.4345 18.746 19.4862C18.7464 19.4878 18.7467 19.4895 18.7468 19.4914C18.7475 19.5001 18.745 19.5156 18.73 19.525C18.7189 19.5321 18.7078 19.5307 18.7047 19.5303C18.7003 19.5297 18.6966 19.5284 18.6944 19.5276C18.6861 19.5244 18.6761 19.5184 18.6674 19.5129C18.6486 19.5008 18.623 19.4823 18.5989 19.4641C18.5875 19.4555 18.5762 19.4467 18.5658 19.4386C18.5657 19.441 18.5655 19.4434 18.5654 19.446C18.5653 19.4477 18.5652 19.4495 18.5651 19.4513C18.5621 19.4991 18.5579 19.5692 18.5424 19.6542C18.5397 19.669 18.5279 19.6805 18.513 19.6827C18.4981 19.6849 18.4835 19.6774 18.4766 19.6641C18.148 19.027 18.3641 18.2962 18.6543 17.7324C18.8 17.4495 18.9657 17.2058 19.0949 17.033C19.1595 16.9466 19.2151 16.8778 19.2546 16.8305C19.2743 16.8068 19.29 16.7886 19.3009 16.7762C19.304 16.7726 19.3066 16.7696 19.3089 16.767C19.3092 16.7658 19.3096 16.7647 19.3099 16.7635C19.3146 16.7466 19.3311 16.7357 19.3485 16.7381ZM19.2564 16.9393C19.2257 16.9775 19.1901 17.0231 19.1512 17.0751C19.0236 17.2458 18.8602 17.4861 18.7168 17.7646C18.4459 18.291 18.2511 18.9445 18.4892 19.524C18.492 19.4945 18.4936 19.4686 18.4949 19.4466L18.4952 19.4417C18.4966 19.4188 18.4979 19.3977 18.5008 19.383C18.502 19.3768 18.5043 19.3669 18.5101 19.358C18.5197 19.3363 18.5421 19.3371 18.5448 19.3372C18.5502 19.3376 18.5543 19.3391 18.5554 19.3396C18.5572 19.3402 18.5586 19.3409 18.5596 19.3414C18.5615 19.3423 18.5634 19.3434 18.565 19.3444C18.5706 19.3477 18.575 19.3525 18.5779 19.3579C18.5788 19.3587 18.5798 19.3595 18.5808 19.3603C18.595 19.3722 18.6177 19.3901 18.6413 19.408C18.6508 19.4151 18.6603 19.4222 18.6693 19.4287C18.6637 19.3948 18.6549 19.3565 18.6457 19.3208C18.638 19.291 18.6303 19.2641 18.6245 19.2446C18.6216 19.2349 18.6192 19.227 18.6176 19.2216L18.6156 19.2154L18.6151 19.2138L18.615 19.2134L18.6485 19.2026M19.1186 18.7805C18.9326 18.4181 18.9308 18.0832 18.9988 17.7599C19.0345 17.5905 19.0893 17.4242 19.1465 17.2592C19.1561 17.2316 19.1657 17.2039 19.1754 17.1764C19.203 17.0973 19.2306 17.0185 19.2564 16.9393" fill="#9CA69C"/>
<path fill-rule="evenodd" clip-rule="evenodd" d="M19.8598 15.3828C19.8598 15.3828 19.9379 15.9453 19.6254 16.1016C19.5864 16.1406 19.3911 16.2031 19.4223 16.3203C19.4536 16.4766 19.5395 16.4453 19.6567 16.4141C19.977 16.3594 20.352 15.6797 19.8598 15.3828Z" fill="#9CA69C"/>
<path fill-rule="evenodd" clip-rule="evenodd" d="M19.809 15.3073L19.8791 15.3496C20.0104 15.4287 20.0858 15.535 20.1176 15.6514C20.1492 15.7669 20.1371 15.8896 20.0991 16.002C20.0611 16.1144 19.9966 16.2187 19.9202 16.2988C19.8448 16.3778 19.7549 16.4364 19.6642 16.4524C19.6597 16.4537 19.655 16.4549 19.6504 16.4562C19.6271 16.4625 19.6035 16.4688 19.5817 16.4731C19.5549 16.4783 19.5263 16.4814 19.4989 16.476C19.47 16.4704 19.4441 16.4557 19.4238 16.4293C19.4046 16.4044 19.3918 16.3709 19.3834 16.3293C19.3615 16.2445 19.4241 16.1852 19.4741 16.1499C19.4995 16.132 19.5268 16.1166 19.549 16.104C19.5503 16.1033 19.5515 16.1026 19.5527 16.1019C19.5645 16.0953 19.5744 16.0896 19.5826 16.0845C19.5911 16.0791 19.5953 16.0758 19.597 16.0741L19.6014 16.0697L19.6071 16.0668C19.7445 15.9981 19.8009 15.8368 19.8202 15.6791C19.8296 15.6017 19.8296 15.5288 19.8273 15.4751C19.8261 15.4482 19.8243 15.4264 19.8228 15.4113C19.8221 15.4037 19.8214 15.3979 19.821 15.394C19.8207 15.392 19.8206 15.3906 19.8204 15.3896L19.8203 15.3886L19.8203 15.3884L19.809 15.3073ZM19.9049 15.4632C19.905 15.4659 19.9052 15.4687 19.9053 15.4716C19.9078 15.5282 19.9078 15.6057 19.8977 15.6885C19.8781 15.8495 19.8183 16.0453 19.6471 16.1341C19.64 16.1403 19.6318 16.1458 19.6242 16.1506C19.6142 16.1569 19.6027 16.1634 19.5912 16.1699C19.5902 16.1705 19.5893 16.171 19.5883 16.1716C19.5654 16.1845 19.5412 16.1982 19.5192 16.2137C19.4699 16.2486 19.4508 16.2788 19.4592 16.3104L19.4595 16.3116L19.4598 16.3128C19.467 16.3489 19.4765 16.3697 19.4857 16.3816C19.494 16.3924 19.5028 16.3972 19.5139 16.3994C19.5266 16.4018 19.5434 16.401 19.5667 16.3964C19.5856 16.3927 19.6058 16.3873 19.6289 16.381C19.6344 16.3796 19.64 16.3781 19.6458 16.3765L19.6475 16.376L19.6493 16.3757C19.7181 16.364 19.7945 16.3174 19.8636 16.2448C19.9323 16.1728 19.9908 16.0784 20.0251 15.9769C20.0594 15.8755 20.0688 15.7691 20.0422 15.672C20.0215 15.5962 19.9784 15.5242 19.9049 15.4632Z" fill="#9CA69C"/>
<path fill-rule="evenodd" clip-rule="evenodd" d="M19.3125 15.8594C19.3125 15.8905 19.3002 15.9203 19.2782 15.9422C19.2562 15.9642 19.2264 15.9766 19.1953 15.9766C19.1642 15.9766 19.1344 15.9642 19.1124 15.9422C19.0905 15.9203 19.0781 15.8905 19.0781 15.8594C19.0781 15.8283 19.0905 15.7985 19.1124 15.7765C19.1344 15.7545 19.1642 15.7422 19.1953 15.7422C19.2264 15.7422 19.2562 15.7545 19.2782 15.7765C19.3002 15.7985 19.3125 15.8283 19.3125 15.8594Z" fill="white"/>
<path fill-rule="evenodd" clip-rule="evenodd" d="M18.836 16.3281C18.7579 16.3984 18.3516 16.8203 18.7579 16.9766C19.1719 16.8672 19.0547 16.7891 19.1485 16.6953C19.1485 16.5 18.9454 16.4531 18.836 16.3359V16.3281Z" fill="#DE3108"/>
<path fill-rule="evenodd" clip-rule="evenodd" d="M18.8751 16.3199V16.2404L18.8099 16.299C18.7694 16.3355 18.6436 16.4628 18.5797 16.604C18.5478 16.6745 18.5287 16.7544 18.5501 16.8298C18.5723 16.9076 18.6345 16.9709 18.7439 17.013L18.7556 17.0175L18.7679 17.0143C18.9752 16.9595 19.0615 16.9101 19.1044 16.8537C19.1229 16.8294 19.1322 16.8047 19.1395 16.7856C19.1405 16.7828 19.1415 16.7801 19.1425 16.7776C19.1504 16.7575 19.1582 16.7408 19.1761 16.7229L19.1876 16.7114V16.6953C19.1876 16.5804 19.1263 16.5098 19.0574 16.4556C19.0329 16.4363 19.006 16.418 18.9805 16.4006C18.9712 16.3942 18.962 16.388 18.9533 16.3819C18.924 16.3616 18.8974 16.3417 18.8751 16.3199ZM18.8318 16.3864C18.7809 16.4381 18.6968 16.5346 18.6509 16.6362C18.6223 16.6994 18.6111 16.7587 18.6253 16.8085C18.6382 16.854 18.6749 16.8999 18.7603 16.9354C18.9571 16.8823 19.0173 16.8391 19.0422 16.8064C19.0534 16.7916 19.0587 16.7779 19.0661 16.7586C19.0673 16.7556 19.0685 16.7525 19.0698 16.7492C19.0778 16.7285 19.0882 16.7049 19.109 16.6805C19.1043 16.6085 19.0654 16.5613 19.0091 16.517C18.9869 16.4994 18.9634 16.4835 18.9386 16.4666C18.9289 16.46 18.9189 16.4532 18.9087 16.4461C18.8828 16.4281 18.8562 16.4086 18.8318 16.3864Z" fill="black"/>
<path fill-rule="evenodd" clip-rule="evenodd" d="M19.7345 20.3516C19.7111 20.4453 19.6173 20.7891 19.7423 21.0547C20.1017 20.8984 20.2657 20.9453 20.3829 21.0234C20.0939 20.7891 19.9767 20.6875 19.7345 20.3516Z" fill="#9CA69C"/>
<path fill-rule="evenodd" clip-rule="evenodd" d="M19.763 20.3307C20.0028 20.6633 20.1175 20.7626 20.4051 20.9958C20.4197 21.0076 20.4224 21.0288 20.4112 21.044C20.4001 21.0591 20.3791 21.0628 20.3634 21.0524C20.3092 21.0162 20.2453 20.9878 20.1528 20.986C20.059 20.9842 19.9334 21.0096 19.7563 21.0866C19.7389 21.0942 19.7186 21.0865 19.7105 21.0693C19.6443 20.9286 19.6367 20.7692 19.6477 20.6355C19.6579 20.5107 19.6847 20.405 19.6977 20.3534C19.6987 20.3495 19.6996 20.346 19.7004 20.3427L19.7345 20.3512L19.763 20.3307ZM19.7507 20.4331C19.919 20.6607 20.0304 20.7746 20.2008 20.9187C20.1859 20.9171 20.1704 20.916 20.1541 20.9157C20.0531 20.9137 19.9269 20.9395 19.7607 21.0084C19.7142 20.8909 19.7081 20.7588 19.7178 20.6412C19.7244 20.5601 19.7384 20.4874 19.7507 20.4331Z" fill="#9CA69C"/>
<path fill-rule="evenodd" clip-rule="evenodd" d="M20.3438 21.9609L20.3594 22.7578C20.3594 22.7578 20.6406 22.8047 20.7656 22.7578C20.8906 22.7109 20.7656 22.2109 20.3438 21.9609Z" fill="white"/>
<path fill-rule="evenodd" clip-rule="evenodd" d="M20.326 21.9301C20.3371 21.9237 20.3507 21.9237 20.3617 21.9302C20.58 22.0596 20.7213 22.2534 20.7922 22.4214C20.8275 22.5052 20.8461 22.5845 20.8469 22.6477C20.8473 22.6793 20.8433 22.7088 20.8332 22.7333C20.8228 22.7583 20.8051 22.7801 20.778 22.7902C20.7417 22.8038 20.6964 22.8099 20.6512 22.8122C20.6054 22.8145 20.557 22.813 20.5132 22.81C20.4694 22.807 20.4296 22.8025 20.4008 22.7988C20.3863 22.7969 20.3746 22.7952 20.3665 22.794C20.3624 22.7934 20.3592 22.7929 20.3571 22.7926L20.3545 22.7922L20.3539 22.792L20.3537 22.792C20.3537 22.792 20.3536 22.792 20.3594 22.7573L20.3536 22.792C20.3369 22.7892 20.3246 22.7749 20.3242 22.758L20.3086 21.9611C20.3084 21.9484 20.315 21.9365 20.326 21.9301ZM20.3939 22.7269C20.3987 22.7276 20.404 22.7283 20.4098 22.729C20.4376 22.7326 20.4759 22.737 20.518 22.7398C20.5602 22.7427 20.6056 22.7441 20.6477 22.742C20.6903 22.7399 20.7271 22.7342 20.7533 22.7244C20.7574 22.7229 20.7631 22.7188 20.7682 22.7064C20.7735 22.6937 20.7769 22.6745 20.7766 22.6486C20.776 22.5971 20.7604 22.527 20.7274 22.4487C20.6676 22.3069 20.5531 22.1444 20.3802 22.0255L20.3939 22.7269Z" fill="white"/>
<path fill-rule="evenodd" clip-rule="evenodd" d="M22.3441 22.0622C22.3441 22.0622 21.8362 20.8278 20.5316 20.5153C19.2269 20.2028 19.3987 18.8122 19.5003 18.7263C19.5628 18.6091 19.6019 18.4216 19.9769 18.6013C20.3519 18.7809 22.0862 19.6481 22.3362 19.695C22.5862 19.7419 22.3675 22.0934 22.3519 22.0622H22.3441Z" fill="#9CA69C"/>
<path fill-rule="evenodd" clip-rule="evenodd" d="M19.5541 18.7059C19.5479 18.7187 19.5415 18.7321 19.5348 18.7447L19.5312 18.7513L19.5255 18.7561C19.5257 18.756 19.5257 18.756 19.5255 18.7563C19.5247 18.7573 19.5214 18.7618 19.5166 18.7727C19.5112 18.7851 19.5054 18.8025 19.4998 18.8246C19.4886 18.8687 19.479 18.9289 19.4741 19.0008C19.4643 19.1444 19.4739 19.3317 19.5263 19.5257C19.6307 19.9119 19.9047 20.325 20.5407 20.4774C21.2036 20.6361 21.6635 21.0291 21.9571 21.3809C22.1039 21.5569 22.2094 21.723 22.2783 21.8453C22.2987 21.8814 22.3159 21.9137 22.33 21.9413C22.3364 21.8821 22.3441 21.8026 22.3523 21.7087C22.371 21.4924 22.392 21.2005 22.4046 20.9062C22.4173 20.6117 22.4216 20.316 22.4074 20.0916C22.4002 19.979 22.3885 19.8864 22.3715 19.8213C22.363 19.7886 22.3537 19.7652 22.3445 19.7501C22.3399 19.7427 22.336 19.7383 22.3332 19.7359C22.3305 19.7337 22.3292 19.7335 22.329 19.7334C22.2936 19.7268 22.2358 19.7067 22.1641 19.6783C22.0913 19.6494 22.001 19.6108 21.899 19.5653C21.6948 19.4744 21.4425 19.3558 21.1866 19.2332C20.9305 19.1106 20.6707 18.9838 20.4514 18.8765C20.3966 18.8497 20.3444 18.8241 20.2955 18.8001C20.1482 18.728 20.0302 18.6701 19.96 18.6365C19.7752 18.548 19.6883 18.5576 19.6416 18.5859C19.6173 18.6006 19.5988 18.6233 19.5821 18.6518C19.5738 18.666 19.5662 18.6811 19.5585 18.697C19.557 18.6999 19.5556 18.7029 19.5541 18.7059ZM22.3079 22.0771L22.3079 22.077L22.3077 22.0764L22.3066 22.074C22.3057 22.0718 22.3043 22.0685 22.3023 22.0641C22.2984 22.0553 22.2925 22.0422 22.2844 22.0254C22.2684 21.9918 22.2438 21.9431 22.2103 21.8836C22.1432 21.7647 22.0403 21.6026 21.8971 21.431C21.6106 21.0876 21.1642 20.707 20.5225 20.5533C19.8537 20.3932 19.5613 19.9547 19.4509 19.546C19.3959 19.3426 19.3859 19.1465 19.3961 18.9955C19.4013 18.92 19.4115 18.855 19.4241 18.8054C19.4303 18.7807 19.4374 18.759 19.445 18.7415C19.4508 18.7281 19.4584 18.7138 19.4685 18.7028C19.4735 18.6932 19.4783 18.6833 19.4835 18.6725C19.485 18.6693 19.4866 18.6661 19.4882 18.6628C19.4961 18.6467 19.5047 18.6293 19.5147 18.6123C19.5346 18.5783 19.5611 18.5433 19.6012 18.519C19.6834 18.4692 19.8035 18.4749 19.9937 18.5661C20.0643 18.5999 20.1828 18.6579 20.3302 18.7301C20.3791 18.7541 20.4312 18.7796 20.4857 18.8063C20.705 18.9136 20.9646 19.0402 21.2203 19.1627C21.4761 19.2852 21.7276 19.4035 21.9307 19.4939C22.0323 19.5392 22.1215 19.5774 22.1928 19.6056C22.2653 19.6343 22.3164 19.6516 22.3434 19.6566C22.3747 19.6625 22.3964 19.6853 22.4111 19.7093C22.4261 19.7338 22.4377 19.7656 22.4471 19.8016C22.466 19.874 22.4781 19.9726 22.4853 20.0866C22.4999 20.3153 22.4954 20.6143 22.4827 20.9096C22.47 21.2052 22.4489 21.4982 22.4301 21.7155C22.4207 21.8241 22.4118 21.9139 22.4047 21.9758C22.4012 22.0067 22.3981 22.031 22.3956 22.0473C22.3944 22.0552 22.3931 22.0623 22.3919 22.0676L22.3918 22.0677C22.3914 22.0695 22.3901 22.0748 22.3874 22.0799C22.3866 22.0815 22.385 22.0844 22.3823 22.0876C22.3801 22.0903 22.374 22.0967 22.3636 22.0999C22.358 22.1016 22.3525 22.102 22.3473 22.1013H22.3179L22.3079 22.0771Z" fill="black"/>
<path fill-rule="evenodd" clip-rule="evenodd" d="M21.1094 20.5078C21.0859 20.5234 22.8516 21.5547 22.3203 22.4375C22.8203 22.1016 22.6641 21.5234 22.6641 21.5234C22.6641 21.5234 23.0703 22.5937 22.0703 23.1172C22.1797 23.2109 22.25 23.1953 22.25 23.1953L22.0781 23.3594C22.0781 23.3594 22 23.4922 22.6719 23.1641C22.4922 23.3125 22.4766 23.4219 22.4766 23.4219C22.4766 23.4219 22.5234 23.5625 22.9609 23.1797C22.6094 23.5625 22.5312 23.7578 22.5312 23.75C23.4922 23.6719 25.5781 20.5469 21.875 19.6328L22.0391 19.8047L21.1016 20.5078H21.1094Z" fill="#DE3108"/>
<path fill-rule="evenodd" clip-rule="evenodd" d="M21.8446 19.6147C21.8524 19.6012 21.8683 19.5944 21.8834 19.5982C22.8141 19.8279 23.3866 20.1979 23.7033 20.6295C24.0204 21.0617 24.0775 21.551 23.9866 22.0112C23.8959 22.4708 23.6576 22.9027 23.3816 23.2247C23.2434 23.3858 23.0953 23.5201 22.9504 23.6169C22.8074 23.7124 22.6654 23.7729 22.5381 23.7842C22.5315 23.7855 22.5226 23.7854 22.5134 23.78C22.5016 23.773 22.4982 23.762 22.4973 23.7587C22.4962 23.7544 22.4961 23.7509 22.4961 23.7495C22.4961 23.7415 22.4988 23.734 22.5034 23.7281L22.5042 23.7265C22.507 23.7213 22.5116 23.7125 22.5182 23.7005C22.5314 23.6766 22.5527 23.6401 22.585 23.5914C22.6172 23.5428 22.6605 23.482 22.7177 23.4093C22.6497 23.4511 22.5992 23.4711 22.5613 23.4784C22.5217 23.4859 22.4924 23.4802 22.4717 23.467C22.4617 23.4606 22.4549 23.4531 22.4505 23.4466C22.4483 23.4434 22.4467 23.4405 22.4455 23.4381C22.4449 23.4369 22.4445 23.4358 22.4441 23.4349L22.4436 23.4336L22.4434 23.433L22.4433 23.4327L22.4433 23.4326C22.4432 23.4326 22.4432 23.4325 22.4766 23.4214C22.4418 23.4164 22.4418 23.4164 22.4418 23.4164L22.4418 23.4163L22.4418 23.4162L22.4418 23.4159L22.4419 23.4153L22.4422 23.4136C22.4425 23.4122 22.4429 23.4105 22.4434 23.4083C22.4444 23.4039 22.446 23.398 22.4485 23.3907C22.4535 23.3759 22.462 23.3556 22.4764 23.3306C22.4853 23.3151 22.4965 23.2977 22.5105 23.279C22.4287 23.3164 22.3622 23.3445 22.3083 23.3653C22.2205 23.3993 22.1639 23.4147 22.1273 23.4192C22.1091 23.4214 22.093 23.4213 22.0794 23.4175C22.0648 23.4134 22.051 23.4043 22.0442 23.3885C22.038 23.3744 22.0404 23.3613 22.0422 23.3546C22.0432 23.3509 22.0444 23.3479 22.0454 23.3457C22.046 23.3446 22.0464 23.3436 22.0468 23.3429L22.0474 23.3418L22.0476 23.3414L22.0477 23.3412L22.0478 23.3411C22.0478 23.3411 22.0478 23.3411 22.0781 23.3589L22.0478 23.3411C22.0495 23.3383 22.0515 23.3357 22.0539 23.3335L22.1734 23.2193C22.139 23.2077 22.0962 23.1852 22.0474 23.1434C22.0386 23.1358 22.0341 23.1243 22.0354 23.1127C22.0367 23.1011 22.0437 23.091 22.054 23.0856C22.5411 22.8306 22.6844 22.4445 22.7071 22.1211C22.7123 22.0472 22.7112 21.9765 22.7064 21.9114C22.6728 22.0945 22.5771 22.3069 22.3399 22.4662C22.3262 22.4754 22.308 22.4738 22.2961 22.4625C22.2841 22.4511 22.2817 22.433 22.2902 22.4189C22.4159 22.21 22.4068 21.9921 22.3194 21.7786C22.2315 21.5638 22.0651 21.3556 21.8805 21.1719C21.6962 20.9886 21.4959 20.8318 21.3426 20.7197C21.2739 20.6693 21.2147 20.6281 21.1707 20.5974C21.1657 20.5939 21.1609 20.5905 21.1563 20.5873C21.134 20.5717 21.116 20.5591 21.1039 20.55C21.0999 20.5471 21.0961 20.5441 21.0928 20.5414C21.0815 20.5385 21.0721 20.53 21.0682 20.5184C21.0634 20.5041 21.0684 20.4883 21.0805 20.4792L21.9863 19.7998L21.8496 19.6566C21.8388 19.6453 21.8367 19.6282 21.8446 19.6147ZM21.1624 20.5056C21.1718 20.5123 21.1832 20.5203 21.1966 20.5297C21.2012 20.5329 21.2059 20.5362 21.2109 20.5397C21.2549 20.5704 21.3147 20.6121 21.3842 20.6629C21.5388 20.7761 21.7423 20.9352 21.9301 21.1221C22.1175 21.3085 22.2914 21.5246 22.3845 21.7519C22.4593 21.9348 22.4822 22.1263 22.4167 22.3146C22.5682 22.1686 22.6264 21.9961 22.6448 21.8496C22.6561 21.7598 22.6523 21.6799 22.6457 21.6225C22.6424 21.5939 22.6385 21.571 22.6353 21.5554C22.6338 21.5475 22.6324 21.5416 22.6315 21.5376C22.631 21.5357 22.6307 21.5342 22.6304 21.5333L22.6302 21.5323L22.6301 21.5321L22.6301 21.5321L22.6301 21.5321C22.6252 21.514 22.6354 21.4953 22.6532 21.4895C22.6711 21.4837 22.6903 21.493 22.6969 21.5105L22.6641 21.523C22.6969 21.5105 22.6969 21.5105 22.6969 21.5105L22.697 21.5106L22.6971 21.5108L22.6973 21.5115L22.6983 21.5141C22.6991 21.5163 22.7002 21.5195 22.7016 21.5237C22.7045 21.532 22.7085 21.5442 22.7132 21.5598C22.7226 21.5909 22.7349 21.6358 22.7463 21.6912C22.7693 21.802 22.7893 21.9554 22.7773 22.126C22.7539 22.4576 22.6092 22.8531 22.1347 23.1217C22.1663 23.1426 22.1917 23.1523 22.2097 23.1568C22.2225 23.16 22.2318 23.1606 22.2373 23.1606C22.2401 23.1606 22.2419 23.1605 22.2428 23.1604C22.243 23.1604 22.2431 23.1603 22.2432 23.1603C22.2583 23.1573 22.2737 23.1646 22.281 23.1783C22.2884 23.1922 22.2857 23.2094 22.2743 23.2203L22.1436 23.345C22.1734 23.3384 22.2178 23.3249 22.283 23.2997C22.3689 23.2665 22.489 23.2138 22.6565 23.132C22.6725 23.1242 22.6918 23.1296 22.7014 23.1445C22.7111 23.1595 22.708 23.1793 22.6943 23.1907C22.6073 23.2625 22.5614 23.3238 22.5373 23.3657C22.5264 23.3847 22.5199 23.3998 22.5162 23.4103C22.5219 23.4116 22.5319 23.4124 22.5481 23.4093C22.6045 23.3985 22.7195 23.3438 22.9378 23.1527C22.9518 23.1405 22.9731 23.1413 22.9861 23.1546C22.9991 23.168 22.9995 23.1892 22.9868 23.203C22.8122 23.3931 22.7059 23.5362 22.6436 23.6303C22.6242 23.6595 22.609 23.684 22.5973 23.7038C22.693 23.6824 22.7998 23.6329 22.9113 23.5584C23.05 23.4658 23.1935 23.336 23.3282 23.1789C23.5978 22.8644 23.8297 22.4433 23.9177 21.9976C24.0055 21.5526 23.9498 21.0843 23.6466 20.6711C23.3562 20.2753 22.8356 19.9257 21.9854 19.6971L22.0645 19.7799C22.0714 19.7872 22.0749 19.7971 22.0741 19.8071C22.0733 19.8171 22.0682 19.8263 22.0602 19.8323L21.1624 20.5056ZM22.4766 23.4214L22.4418 23.4164C22.441 23.4218 22.4415 23.4273 22.4432 23.4325L22.4766 23.4214Z" fill="black"/>
<path fill-rule="evenodd" clip-rule="evenodd" d="M21.1873 20.2031C21.4217 20.375 21.5076 20.4375 21.5389 20.5156C21.3201 20.4687 21.1248 20.4843 21.1248 20.4843C21.1248 20.4843 20.6483 20.0312 20.5623 19.9921C20.4998 19.9921 20.1248 19.7578 20.1248 19.7578C19.9451 19.664 19.7733 19.0312 20.4529 19.2109C20.7137 19.3469 20.9824 19.4669 21.2576 19.5703L22.0936 19.8359L22.5779 20.375C22.5779 20.375 21.7186 19.9531 21.6092 19.9453C21.8436 20.1328 21.9764 20.3984 21.9764 20.3984C21.7029 20.3203 21.4686 20.2421 21.1873 20.2031Z" fill="white"/>
<path fill-rule="evenodd" clip-rule="evenodd" d="M20.0369 19.5936C20.0662 19.6601 20.1064 19.7088 20.1411 19.7268C20.1419 19.7273 20.1427 19.7277 20.1435 19.7282L20.1476 19.7308L20.1595 19.7382C20.1698 19.7445 20.1847 19.7537 20.2027 19.7646C20.2387 19.7865 20.2872 19.8156 20.3377 19.8448C20.3883 19.8739 20.4403 19.9028 20.4833 19.9243C20.5049 19.9351 20.5236 19.9438 20.5385 19.9496C20.5459 19.9526 20.5519 19.9546 20.5565 19.9559C20.5607 19.9571 20.5625 19.9572 20.5625 19.9572C20.5625 19.9572 20.5624 19.9572 20.5623 19.9572C20.5673 19.9572 20.5723 19.9583 20.5769 19.9604C20.5916 19.9671 20.6113 19.9808 20.6324 19.9967C20.6544 20.0134 20.6806 20.0348 20.7092 20.0589C20.7664 20.1073 20.8344 20.1679 20.8995 20.2271C20.9646 20.2864 21.0269 20.3443 21.073 20.3875C21.0961 20.4091 21.1151 20.427 21.1283 20.4395L21.1379 20.4486C21.1432 20.4483 21.1498 20.448 21.1576 20.4477C21.1799 20.447 21.2119 20.4465 21.2507 20.4475C21.309 20.449 21.3832 20.4538 21.4641 20.4664C21.4515 20.4529 21.4359 20.4382 21.4164 20.4214C21.3638 20.3763 21.2865 20.3197 21.1716 20.2354L21.1665 20.2317L21.1873 20.2033L21.1922 20.1685C21.4261 20.201 21.6284 20.2603 21.8441 20.3236C21.8636 20.3293 21.8833 20.3351 21.9031 20.3408C21.8893 20.3183 21.8721 20.2917 21.8518 20.2625C21.7905 20.1743 21.7009 20.0639 21.5872 19.973C21.5752 19.9634 21.5708 19.947 21.5765 19.9327C21.5821 19.9184 21.5963 19.9094 21.6117 19.9105C21.6311 19.9118 21.661 19.9212 21.6942 19.9332C21.729 19.9458 21.7722 19.9632 21.8204 19.9836C21.9169 20.0245 22.035 20.0781 22.1494 20.1314C22.2525 20.1795 22.3529 20.2273 22.4319 20.2653L22.0738 19.8668L21.247 19.604C21.2464 19.6038 21.2458 19.6036 21.2453 19.6034C20.9699 19.5 20.7011 19.38 20.4402 19.2441C20.2759 19.2012 20.1699 19.2092 20.1044 19.2395C20.0409 19.269 20.01 19.3223 20.0015 19.3867C19.9928 19.4524 20.008 19.5281 20.0369 19.5936ZM22.5779 20.3752C22.5625 20.4068 22.5625 20.4068 22.5624 20.4068L22.5528 20.402C22.5465 20.399 22.5372 20.3944 22.5254 20.3887C22.5017 20.3771 22.4678 20.3606 22.4267 20.3408C22.3445 20.3012 22.2338 20.2483 22.1197 20.1952C22.0056 20.142 21.8884 20.0887 21.793 20.0483C21.78 20.0428 21.7675 20.0376 21.7555 20.0326C21.8181 20.0983 21.8698 20.1651 21.9095 20.2223C21.9414 20.2682 21.9659 20.3081 21.9824 20.3366C21.9907 20.3509 21.9969 20.3623 22.0012 20.3703C22.0033 20.3742 22.005 20.3773 22.0061 20.3795L22.0073 20.3819L22.0077 20.3826L22.0078 20.3828L22.0078 20.3829C22.0078 20.3829 22.0078 20.3829 21.9764 20.3986L22.0078 20.3829C22.0141 20.3954 22.0123 20.4104 22.0034 20.4211C21.9945 20.4318 21.9801 20.4363 21.9667 20.4324C21.9175 20.4184 21.8697 20.4044 21.8227 20.3906C21.6539 20.3411 21.4966 20.295 21.3265 20.2621C21.383 20.3042 21.4275 20.3383 21.4622 20.368C21.5183 20.4162 21.5527 20.4558 21.5715 20.5028C21.5763 20.5148 21.5741 20.5286 21.5658 20.5385C21.5574 20.5484 21.5442 20.5529 21.5315 20.5502C21.4249 20.5274 21.3236 20.5197 21.2489 20.5178C21.2116 20.5168 21.1811 20.5173 21.1599 20.518C21.1494 20.5184 21.1412 20.5188 21.1357 20.5191C21.1329 20.5193 21.1309 20.5194 21.1295 20.5195L21.128 20.5196L21.1277 20.5196C21.1277 20.5196 21.1277 20.5196 21.1277 20.5196M21.1248 20.4846L21.1006 20.5101L21.0953 20.505L21.08 20.4906C21.0669 20.4782 21.048 20.4603 21.025 20.4388C20.979 20.3958 20.9169 20.3381 20.8521 20.2791C20.7873 20.2202 20.7201 20.1602 20.6638 20.1126C20.6356 20.0888 20.6105 20.0684 20.5899 20.0528C20.5725 20.0396 20.5601 20.0311 20.5524 20.0268C20.5558 20.0273 20.5591 20.0275 20.5623 20.0275V19.9924L20.5478 20.0244C20.549 20.025 20.5506 20.0258 20.5524 20.0268C20.5394 20.0249 20.5252 20.02 20.5127 20.015C20.4951 20.0081 20.4743 19.9984 20.4519 19.9872C20.407 19.9648 20.3536 19.9351 20.3026 19.9057C20.2515 19.8762 20.2024 19.8467 20.1661 19.8247C20.148 19.8136 20.133 19.8044 20.1226 19.798L20.1105 19.7905L20.1073 19.7885C20.0526 19.7594 20.0044 19.6942 19.9725 19.6219C19.9399 19.548 19.9209 19.4591 19.9318 19.3774C19.9428 19.2943 19.9851 19.2173 20.0749 19.1757C20.1623 19.1352 20.2885 19.1313 20.4619 19.1772C20.4645 19.1778 20.4669 19.1788 20.4692 19.18C20.7284 19.3151 20.9955 19.4345 21.2691 19.5373L22.1042 19.8026C22.1102 19.8045 22.1155 19.808 22.1197 19.8126L22.6041 20.3517C22.6154 20.3642 22.6161 20.383 22.606 20.3964C22.5958 20.4098 22.5776 20.4142 22.5624 20.4068L22.5779 20.3752M21.1277 20.5196C21.1277 20.5196 21.1277 20.5196 21.1277 20.5196C21.1177 20.5204 21.1078 20.5169 21.1006 20.5101L21.1248 20.4846" fill="black"/>
<path fill-rule="evenodd" clip-rule="evenodd" d="M17.8522 16.4328C17.8334 16.4374 17.8143 16.426 17.8096 16.4071C17.805 16.3883 17.8165 16.3692 17.8353 16.3645L17.8438 16.3987C17.8353 16.3645 17.8353 16.3645 17.8353 16.3645L17.8446 16.3622C17.8507 16.3608 17.8596 16.3586 17.8709 16.3558C17.8936 16.3503 17.9261 16.3425 17.9654 16.3332C18.0441 16.3146 18.15 16.2901 18.2592 16.2666C18.3683 16.2431 18.4811 16.2205 18.5732 16.2057C18.6192 16.1984 18.6606 16.1928 18.6941 16.1901C18.7108 16.1888 18.7261 16.1882 18.7392 16.1884C18.7518 16.1887 18.7649 16.1898 18.776 16.1932C18.7945 16.1989 18.8049 16.2186 18.7992 16.2371C18.7935 16.2557 18.7739 16.2661 18.7553 16.2604C18.7537 16.2599 18.7485 16.2589 18.7378 16.2587C18.7278 16.2585 18.7151 16.259 18.6997 16.2602C18.6688 16.2627 18.6295 16.2679 18.5843 16.2752C18.494 16.2897 18.3827 16.312 18.274 16.3354C18.1654 16.3587 18.06 16.3831 17.9816 16.4016C17.9424 16.4109 17.9101 16.4187 17.8875 16.4242C17.8762 16.4269 17.8674 16.4291 17.8614 16.4305L17.8522 16.4328Z" fill="white"/>
<path fill-rule="evenodd" clip-rule="evenodd" d="M-10 33.3359H50V40H-10V33.3359Z" fill="#DE3908"/>
</g>
<defs>
<clipPath id="clip0_8424_43173">
<rect width="40" height="40" rx="20" fill="white"/>
</clipPath>
</defs>
</svg>
