<svg width="56" height="56" viewBox="0 0 56 56" fill="none" xmlns="http://www.w3.org/2000/svg">
<g clip-path="url(#clip0_3318_25688)">
<path d="M28 56C43.464 56 56 43.464 56 28C56 12.536 43.464 0 28 0C12.536 0 0 12.536 0 28C0 43.464 12.536 56 28 56Z" fill="#338AF3"/>
<path d="M27.9188 18.2607C22.5398 18.2607 18.1797 22.6211 18.1797 27.9998C18.1797 33.3786 22.5399 37.7389 27.9188 37.7389C33.2974 37.7389 37.6578 33.3786 37.6578 27.9998C37.6578 22.6211 33.2973 18.2607 27.9188 18.2607ZM25.484 27.9998C25.484 26.6552 26.574 25.565 27.9188 25.565C29.2634 25.565 30.3536 26.6552 30.3536 27.9998C30.3536 29.3446 29.2634 30.4346 27.9188 30.4346C26.574 30.4346 25.484 29.3446 25.484 27.9998ZM30.4431 23.8349C30.0653 23.6054 29.6533 23.4271 29.2172 23.3066V20.8129C30.3154 21.01 31.328 21.4518 32.1971 22.0811L30.4431 23.8349ZM26.7825 23.265C26.3256 23.3742 25.894 23.5478 25.4974 23.7756L23.7354 22.0136C24.6261 21.39 25.6617 20.9591 26.7825 20.7838V23.265ZM25.4973 32.224C25.8939 32.4517 26.3255 32.6254 26.7824 32.7346V35.2156C25.6615 35.0405 24.6261 34.6095 23.7354 33.9858L25.4973 32.224ZM29.2173 32.693C29.6533 32.5726 30.0655 32.3944 30.4431 32.1648L32.197 33.9186C31.3279 34.5479 30.3154 34.9898 29.2172 35.1869V32.6931H29.2173V32.693ZM32.1428 30.4214C32.3573 30.0481 32.525 29.6443 32.6349 29.2173H35.1201C34.9373 30.3069 34.5135 31.3141 33.905 32.1832L32.1428 30.4214ZM32.6349 26.7825C32.525 26.3554 32.3573 25.9519 32.1428 25.5785L33.9049 23.8164C34.5134 24.6856 34.9373 25.6928 35.12 26.7824H32.6348V26.7825H32.6349ZM21.9999 23.7216L23.7538 25.4754C23.51 25.8769 23.3226 26.3161 23.2025 26.7825H20.7173C20.9068 25.6531 21.3552 24.612 21.9999 23.7216ZM20.7173 29.2172H23.2025C23.3225 29.6835 23.5099 30.1228 23.7538 30.5242L21.9999 32.278C21.3552 31.3876 20.9068 30.3467 20.7173 29.2172Z" fill="#F0F0F0"/>
<path d="M43.7448 27.9998C43.7448 23.6707 42.006 19.7484 39.1896 16.8911L36.6071 19.4736C38.7627 21.6698 40.0927 24.6794 40.0927 27.9998C40.0927 34.7233 34.6422 40.1737 27.9188 40.1737C21.1952 40.1737 15.7449 34.7233 15.7449 27.9998C15.7449 24.6379 17.1074 21.5945 19.3105 19.3915L16.7281 16.8091C13.8641 19.6731 12.0928 23.6296 12.0928 27.9998C12.0928 35.242 16.9574 41.3481 23.5975 43.2286C22.8695 44.6115 22.9804 46.3527 24.0203 47.6504C25.3862 46.5558 26.8003 45.4225 27.9999 44.4613C29.1996 45.4226 30.6138 46.5558 31.9796 47.6504C33.0298 46.3398 33.1331 44.5765 32.381 43.1869C38.9484 41.2603 43.7448 35.1906 43.7448 27.9998Z" fill="#F0F0F0"/>
</g>
<defs>
<clipPath id="clip0_3318_25688">
<rect width="56" height="56" fill="white"/>
</clipPath>
</defs>
</svg>
