<svg width="40" height="40" viewBox="0 0 40 40" fill="none" xmlns="http://www.w3.org/2000/svg">
<g clip-path="url(#clip0_8424_43172)">
<path fill-rule="evenodd" clip-rule="evenodd" d="M-12 0H64V3.08333H-12V0ZM-12 6.15833H64V9.24167H-12V6.15833ZM-12 12.3083H64V15.3917H-12V12.3083ZM-12 18.4583H64V21.5417H-12V18.4583ZM-12 24.625H64V27.6917H-12V24.625ZM-12 30.7667H64V33.85H-12V30.7667ZM-12 36.9167H64V40H-12V36.9167Z" fill="#BD3D44"/>
<path fill-rule="evenodd" clip-rule="evenodd" d="M-12 3.08337H64V6.15837H-12V3.08337ZM-12 9.23337H64V12.3084H-12V9.23337ZM-12 15.3834H64V18.4667H-12V15.3834ZM-12 21.5417H64V24.625H-12V21.5417ZM-12 27.6917H64V30.775H-12V27.6917ZM-12 33.8417H64V36.925H-12V33.8417Z" fill="white"/>
<path fill-rule="evenodd" clip-rule="evenodd" d="M-12 0H18.4V21.5417H-12V0Z" fill="#192F5D"/>
<path fill-rule="evenodd" clip-rule="evenodd" d="M-9.4666 0.916626L-9.18327 1.77496H-8.29993L-9.0166 2.29996L-8.7416 3.15829L-9.4666 2.62496L-10.1833 3.14996L-9.9166 2.29996L-10.6416 1.77496H-9.73327L-9.4666 0.916626ZM-4.39994 0.916626L-4.12494 1.77496H-3.22493L-3.94993 2.29996L-3.68327 3.15829L-4.39994 2.62496L-5.12494 3.14996L-4.84993 2.29996L-5.5666 1.77496H-4.68327L-4.39994 0.916626ZM0.666732 0.916626L0.941732 1.77496H1.8334L1.11673 2.29996L1.39173 3.15829L0.666732 2.62496L-0.0582676 3.14996L0.216732 2.29996L-0.508268 1.77496H0.391731L0.666732 0.916626ZM5.7334 0.916626L6.0084 1.77496H6.9084L6.1834 2.29996L6.4584 3.15829L5.7334 2.62496L5.0084 3.14996L5.29173 2.29996L4.5584 1.77496H5.45007L5.7334 0.916626ZM10.8001 0.916626L11.0751 1.77496H11.9667L11.2501 2.29996L11.5251 3.15829L10.8001 2.62496L10.0751 3.14996L10.3501 2.29996L9.6334 1.77496H10.5251L10.8001 0.916626ZM15.8667 0.916626L16.1417 1.77496H17.0417L16.3084 2.29996L16.5917 3.15829L15.8667 2.62496L15.1417 3.14996L15.4251 2.29996L14.6917 1.77496H15.5917L15.8667 0.916626ZM-6.93327 3.08329L-6.65827 3.93329H-5.74993L-6.47493 4.44996L-6.20827 5.30829L-6.9166 4.78329L-7.6416 5.30829L-7.38327 4.44996L-8.08327 3.93329H-7.1916L-6.93327 3.08329ZM-1.8666 3.08329L-1.58327 3.93329H-0.691602L-1.42493 4.44996L-1.1416 5.30829L-1.8666 4.78329L-2.5916 5.30829L-2.3166 4.44996L-3.0416 3.93329H-2.1416L-1.8666 3.08329ZM3.20006 3.08329L3.47507 3.93329H4.37506L3.65007 4.44996L3.92507 5.30829L3.20006 4.78329L2.47507 5.30829L2.75006 4.44996L2.0334 3.93329H2.91673L3.20006 3.08329ZM8.26673 3.08329L8.55007 3.93329H9.44173L8.7084 4.44996L8.99173 5.30829L8.26673 4.78329L7.55007 5.30829L7.81673 4.44996L7.09173 3.93329H8.00006L8.26673 3.08329ZM13.3334 3.08329L13.6084 3.93329H14.5084L13.7834 4.44996L14.0584 5.30829L13.3334 4.78329L12.6084 5.30829L12.8834 4.44996L12.1667 3.93329H13.0584L13.3334 3.08329ZM-9.4666 5.21663L-9.18327 6.08329H-8.29993L-9.0166 6.60829L-8.7416 7.45829L-9.4666 6.93329L-10.1833 7.45829L-9.9166 6.60829L-10.6416 6.08329H-9.73327L-9.4666 5.21663ZM-4.39994 5.21663L-4.12494 6.08329H-3.22493L-3.94993 6.60829L-3.68327 7.45829L-4.39994 6.93329L-5.12494 7.45829L-4.84993 6.59996L-5.5666 6.07496H-4.68327L-4.39994 5.21663ZM0.666732 5.21663L0.941732 6.07496H1.8334L1.11673 6.59996L1.39173 7.44996L0.666732 6.92496L-0.0582676 7.44996L0.216732 6.59163L-0.508268 6.06663H0.391731L0.666732 5.21663ZM5.7334 5.21663L6.0084 6.07496H6.9084L6.1834 6.59996L6.4584 7.44996L5.7334 6.92496L5.0084 7.44996L5.29173 6.59163L4.5584 6.06663H5.45007L5.7334 5.21663ZM10.8001 5.21663L11.0751 6.07496H11.9667L11.2501 6.59996L11.5251 7.44996L10.8001 6.92496L10.0751 7.44996L10.3501 6.59163L9.6334 6.06663H10.5251L10.8001 5.21663ZM15.8667 5.21663L16.1417 6.07496H17.0417L16.3084 6.59996L16.5917 7.44996L15.8667 6.92496L15.1417 7.44996L15.4251 6.59163L14.6917 6.06663H15.5917L15.8667 5.21663ZM-6.93327 7.38329L-6.65827 8.23329H-5.74993L-6.47493 8.75829L-6.19993 9.61663L-6.92493 9.08329L-7.64993 9.60829L-7.37493 8.75829L-8.0916 8.23329H-7.19993L-6.93327 7.38329ZM-1.8666 7.38329L-1.58327 8.23329H-0.691602L-1.42493 8.75829L-1.1416 9.61663L-1.8666 9.08329L-2.5916 9.60829L-2.3166 8.75829L-3.0416 8.23329H-2.1416L-1.8666 7.38329ZM3.20006 7.38329L3.47507 8.23329H4.37506L3.65007 8.75829L3.92507 9.61663L3.20006 9.08329L2.47507 9.60829L2.75006 8.75829L2.0334 8.23329H2.91673L3.20006 7.38329ZM8.26673 7.38329L8.55007 8.23329H9.44173L8.71673 8.75829L8.99173 9.61663L8.26673 9.08329L7.55007 9.60829L7.81673 8.75829L7.09173 8.23329H8.00006L8.26673 7.38329ZM13.3334 7.38329L13.6084 8.23329H14.5084L13.7834 8.75829L14.0584 9.61663L13.3334 9.08329L12.6084 9.60829L12.8834 8.75829L12.1667 8.23329H13.0584L13.3334 7.38329ZM-9.4666 9.54163L-9.18327 10.3916H-8.29993L-9.0166 10.9166L-8.7416 11.775L-9.4666 11.2416L-10.1833 11.7666L-9.9166 10.9166L-10.6416 10.3916H-9.73327L-9.4666 9.54163ZM-4.39994 9.54163L-4.12494 10.3916H-3.22493L-3.94993 10.9166L-3.68327 11.7666L-4.39994 11.2416L-5.12494 11.7666L-4.84993 10.9166L-5.5666 10.3916H-4.68327L-4.39994 9.54163ZM0.666732 9.54163L0.941732 10.3916H1.8334L1.11673 10.9166L1.39173 11.775L0.666732 11.2416L-0.0582676 11.7666L0.216732 10.9166L-0.508268 10.3916H0.391731L0.666732 9.54163ZM5.7334 9.54163L6.0084 10.3916H6.9084L6.1834 10.9166L6.4584 11.775L5.7334 11.2416L5.0084 11.7666L5.29173 10.9166L4.5584 10.3916H5.45007L5.7334 9.54163ZM10.8001 9.54163L11.0751 10.3916H11.9667L11.2501 10.9166L11.5251 11.775L10.8001 11.2416L10.0751 11.7666L10.3501 10.9166L9.6334 10.3916H10.5251L10.8001 9.54163ZM15.8667 9.54163L16.1417 10.3916H17.0417L16.3084 10.9166L16.5917 11.775L15.8667 11.2416L15.1417 11.7666L15.4167 10.9166L14.6834 10.3916H15.5834L15.8667 9.54163ZM-6.93327 11.6916L-6.65827 12.55H-5.74993L-6.47493 13.0666L-6.19993 13.925L-6.92493 13.3916L-7.64993 13.925L-7.37493 13.0666L-8.0916 12.5416H-7.19993L-6.93327 11.6916ZM-1.8666 11.6916L-1.58327 12.55H-0.691602L-1.42493 13.0666L-1.1416 13.925L-1.8666 13.3916L-2.5916 13.925L-2.3166 13.0666L-3.0416 12.5416H-2.1416L-1.8666 11.6916ZM3.20006 11.6916L3.47507 12.55H4.37506L3.65007 13.0666L3.92507 13.925L3.20006 13.3916L2.47507 13.925L2.75006 13.0666L2.0334 12.5416H2.91673L3.20006 11.6916ZM8.26673 11.6916L8.55007 12.55H9.44173L8.71673 13.0666L8.99173 13.925L8.26673 13.3916L7.55007 13.925L7.81673 13.0666L7.09173 12.5416H8.00006L8.26673 11.6916ZM13.3334 11.6916L13.6084 12.55H14.5084L13.7834 13.0666L14.0584 13.925L13.3334 13.3916L12.6084 13.925L12.8834 13.0666L12.1667 12.5416H13.0584L13.3334 11.6916ZM-9.4666 13.8416L-9.18327 14.7H-8.29993L-9.0166 15.225L-8.7416 16.0666L-9.4666 15.55L-10.1833 16.0666L-9.9166 15.2166L-10.6416 14.6916H-9.73327L-9.4666 13.8416ZM-4.39994 13.8416L-4.12494 14.7H-3.22493L-3.94993 15.225L-3.67493 16.0666L-4.39994 15.55L-5.12494 16.0666L-4.8416 15.2166L-5.5666 14.6916H-4.68327L-4.39994 13.8416ZM0.666732 13.8416L0.941732 14.7H1.8334L1.11673 15.225L1.39173 16.0666L0.666732 15.55L-0.0582676 16.0666L0.216732 15.2166L-0.508268 14.6916H0.391731L0.666732 13.8416ZM5.7334 13.8416L6.0084 14.7H6.9084L6.1834 15.225L6.4584 16.0666L5.7334 15.55L5.0084 16.0666L5.29173 15.2166L4.5584 14.6916H5.45007L5.7334 13.8416ZM10.8001 13.8416L11.0751 14.7H11.9667L11.2501 15.225L11.5251 16.0666L10.8001 15.55L10.0751 16.0666L10.3501 15.2166L9.6334 14.6916H10.5251L10.8001 13.8416ZM15.8667 13.8416L16.1417 14.7H17.0417L16.3084 15.225L16.5917 16.0666L15.8667 15.55L15.1417 16.0666L15.4251 15.2166L14.6917 14.6916H15.5917L15.8667 13.8416ZM-6.93327 16L-6.65827 16.85H-5.74993L-6.47493 17.375L-6.19993 18.2333L-6.92493 17.7L-7.64993 18.225L-7.37493 17.375L-8.0916 16.85H-7.19993L-6.93327 16ZM-1.8666 16L-1.58327 16.85H-0.691602L-1.42493 17.375L-1.1416 18.2333L-1.8666 17.7L-2.5916 18.225L-2.3166 17.375L-3.0416 16.85H-2.1416L-1.8666 16ZM3.20006 16L3.47507 16.85H4.37506L3.65007 17.375L3.92507 18.2333L3.20006 17.7L2.47507 18.225L2.75006 17.375L2.0334 16.85H2.91673L3.20006 16ZM8.26673 16L8.55007 16.85H9.44173L8.71673 17.375L8.99173 18.2333L8.26673 17.7L7.55007 18.225L7.81673 17.375L7.09173 16.85H8.00006L8.26673 16ZM13.3334 16L13.6084 16.85H14.5084L13.7834 17.375L14.0584 18.2333L13.3334 17.7L12.6084 18.225L12.8834 17.375L12.1667 16.85H13.0584L13.3334 16ZM-9.4666 18.1583L-9.18327 19.0083H-8.29993L-9.0166 19.5333L-8.7416 20.3833L-9.4666 19.8583L-10.1833 20.3833L-9.9166 19.525L-10.6416 19H-9.73327L-9.4666 18.1583ZM-4.39994 18.1583L-4.12494 19.0083H-3.22493L-3.94993 19.5333L-3.67493 20.3833L-4.39994 19.8583L-5.12494 20.3833L-4.8416 19.525L-5.5666 19H-4.68327L-4.39994 18.1583ZM0.666732 18.1583L0.941732 19.0083H1.8334L1.1334 19.5333L1.4084 20.3833L0.683398 19.8583L-0.0416012 20.3833L0.233398 19.525L-0.491601 19H0.408398L0.666732 18.1583ZM5.7334 18.1583L6.0084 19.0083H6.9084L6.1834 19.5333L6.4584 20.3833L5.7334 19.8583L5.0084 20.3833L5.29173 19.525L4.5584 19H5.45007L5.7334 18.1583ZM10.8001 18.1583L11.0751 19.0083H11.9667L11.2501 19.5333L11.5251 20.3833L10.8001 19.8583L10.0751 20.3833L10.3501 19.525L9.6334 19H10.5251L10.8001 18.1583ZM15.8667 18.1583L16.1417 19.0083H17.0417L16.3084 19.5333L16.5917 20.3833L15.8667 19.8583L15.1417 20.3833L15.4251 19.525L14.6917 19H15.5917L15.8667 18.1583Z" fill="white"/>
</g>
<defs>
<clipPath id="clip0_8424_43172">
<rect width="40" height="40" rx="20" fill="white"/>
</clipPath>
</defs>
</svg>
