<svg width="56" height="56" viewBox="0 0 56 56" fill="none" xmlns="http://www.w3.org/2000/svg">
<g clip-path="url(#clip0_3318_25693)">
<path d="M28 56C43.464 56 56 43.464 56 28C56 12.536 43.464 0 28 0C12.536 0 0 12.536 0 28C0 43.464 12.536 56 28 56Z" fill="#F0F0F0"/>
<path d="M26.7832 27.9999H56.0005C56.0005 25.4727 55.6637 23.0245 55.036 20.6956H26.7832V27.9999Z" fill="#D80027"/>
<path d="M26.7832 13.3913H51.8909C50.1769 10.5944 47.9853 8.12216 45.4301 6.08691H26.7832V13.3913Z" fill="#D80027"/>
<path d="M27.9999 56C34.5896 56 40.6465 53.7224 45.4294 49.9131H10.5703C15.3533 53.7224 21.4101 56 27.9999 56Z" fill="#D80027"/>
<path d="M4.10992 42.6086H51.8906C53.2667 40.3632 54.3338 37.9089 55.0357 35.3042H0.964844C1.6667 37.9089 2.73388 40.3632 4.10992 42.6086Z" fill="#D80027"/>
<path d="M12.9701 4.37259H15.5217L13.1483 6.09689L14.0549 8.88694L11.6816 7.16264L9.30825 8.88694L10.0914 6.47664C8.00166 8.21734 6.17006 10.2568 4.66069 12.5291H5.47827L3.96747 13.6267C3.73209 14.0194 3.50634 14.4182 3.29 14.823L4.01144 17.0435L2.66547 16.0655C2.33089 16.7744 2.02486 17.4992 1.74978 18.2392L2.54461 20.6857H5.47827L3.10483 22.41L4.01144 25.2L1.63811 23.4757L0.216453 24.5086C0.0741562 25.6525 0 26.8175 0 28H28C28 12.5361 28 10.7131 28 0C22.4687 0 17.3124 1.60453 12.9701 4.37259ZM14.0549 25.2L11.6816 23.4757L9.30825 25.2L10.2149 22.41L7.84142 20.6857H10.7751L11.6816 17.8956L12.5881 20.6857H15.5217L13.1483 22.41L14.0549 25.2ZM13.1483 14.2534L14.0549 17.0435L11.6816 15.3192L9.30825 17.0435L10.2149 14.2534L7.84142 12.5291H10.7751L11.6816 9.73908L12.5881 12.5291H15.5217L13.1483 14.2534ZM24.0984 25.2L21.725 23.4757L19.3517 25.2L20.2583 22.41L17.8849 20.6857H20.8185L21.725 17.8956L22.6315 20.6857H25.5652L23.1918 22.41L24.0984 25.2ZM23.1918 14.2534L24.0984 17.0435L21.725 15.3192L19.3517 17.0435L20.2583 14.2534L17.8849 12.5291H20.8185L21.725 9.73908L22.6315 12.5291H25.5652L23.1918 14.2534ZM23.1918 6.09689L24.0984 8.88694L21.725 7.16264L19.3517 8.88694L20.2583 6.09689L17.8849 4.37259H20.8185L21.725 1.58255L22.6315 4.37259H25.5652L23.1918 6.09689Z" fill="#0052B4"/>
</g>
<defs>
<clipPath id="clip0_3318_25693">
<rect width="56" height="56" fill="white"/>
</clipPath>
</defs>
</svg>
