<svg width="56" height="56" viewBox="0 0 56 56" fill="none" xmlns="http://www.w3.org/2000/svg">
<g clip-path="url(#clip0_3318_25671)">
<path d="M28 56C43.464 56 56 43.464 56 28C56 12.536 43.464 0 28 0C12.536 0 0 12.536 0 28C0 43.464 12.536 56 28 56Z" fill="#F0F0F0"/>
<path d="M5.78839 10.9526C3.58897 13.8142 1.93052 17.1124 0.964844 20.6954H15.5312L5.78839 10.9526Z" fill="#0052B4"/>
<path d="M55.0358 20.6958C54.0702 17.1129 52.4116 13.8147 50.2123 10.9531L40.4697 20.6958H55.0358Z" fill="#0052B4"/>
<path d="M0.964844 35.3042C1.93062 38.8871 3.58908 42.1853 5.78839 45.0468L15.5309 35.3042H0.964844Z" fill="#0052B4"/>
<path d="M45.0474 5.78801C42.1858 3.58859 38.8877 1.93014 35.3047 0.964355V15.5306L45.0474 5.78801Z" fill="#0052B4"/>
<path d="M10.9531 50.2117C13.8147 52.4111 17.1129 54.0696 20.6958 55.0354V40.4692L10.9531 50.2117Z" fill="#0052B4"/>
<path d="M20.6957 0.964355C17.1128 1.93014 13.8146 3.58859 10.9531 5.7879L20.6957 15.5305V0.964355Z" fill="#0052B4"/>
<path d="M35.3047 55.0354C38.8876 54.0696 42.1858 52.4111 45.0473 50.2118L35.3047 40.4692V55.0354Z" fill="#0052B4"/>
<path d="M40.4697 35.3042L50.2123 45.0469C52.4116 42.1854 54.0702 38.8871 55.0358 35.3042H40.4697Z" fill="#0052B4"/>
<path d="M55.763 24.3479H31.6524H31.6523V0.237016C30.4567 0.081375 29.2378 0 28 0C26.762 0 25.5433 0.081375 24.3479 0.237016V24.3476V24.3477H0.237016C0.081375 25.5433 0 26.7622 0 28C0 29.238 0.081375 30.4567 0.237016 31.6521H24.3476H24.3477V55.763C25.5433 55.9186 26.762 56 28 56C29.2378 56 30.4567 55.9187 31.6521 55.763V31.6524V31.6523H55.763C55.9186 30.4567 56 29.238 56 28C56 26.7622 55.9186 25.5433 55.763 24.3479Z" fill="#D80027"/>
<path d="M35.3047 35.3043L47.7993 47.7989C48.3739 47.2244 48.9221 46.6238 49.4451 46.0013L38.748 35.3042H35.3047V35.3043Z" fill="#D80027"/>
<path d="M20.6958 35.3047H20.6956L8.20117 47.7991C8.77561 48.3738 9.37619 48.922 9.99875 49.445L20.6958 38.7477V35.3047Z" fill="#D80027"/>
<path d="M20.6951 20.6961V20.6958L8.20056 8.20117C7.62591 8.77561 7.07772 9.37619 6.55469 9.99875L17.2519 20.696H20.6951V20.6961Z" fill="#D80027"/>
<path d="M35.3047 20.6957L47.7994 8.20094C47.2249 7.62629 46.6243 7.0781 46.0018 6.55518L35.3047 17.2524V20.6957Z" fill="#D80027"/>
</g>
<defs>
<clipPath id="clip0_3318_25671">
<rect width="56" height="56" fill="white"/>
</clipPath>
</defs>
</svg>
