<svg width="56" height="56" viewBox="0 0 56 56" fill="none" xmlns="http://www.w3.org/2000/svg">
<g clip-path="url(#clip0_3318_25666)">
<path d="M28 56C43.464 56 56 43.464 56 28C56 12.536 43.464 0 28 0C12.536 0 0 12.536 0 28C0 43.464 12.536 56 28 56Z" fill="#F0F0F0"/>
<path d="M15.8262 37.7393L18.261 54.2588C21.2942 55.3844 24.5751 56.0002 28.0001 56.0002C40.039 56.0002 50.3023 48.4017 54.2584 37.7393H15.8262Z" fill="black"/>
<path d="M15.8262 18.2609L18.261 1.74136C21.2942 0.615781 24.5751 0 28.0001 0C40.039 0 50.3023 7.5985 54.2584 18.2609H15.8262Z" fill="#6DA544"/>
<path d="M0 28.0001C0 40.0391 7.59861 50.3023 18.2609 54.2585V1.7417C7.59861 5.6979 0 15.9611 0 28.0001Z" fill="#A2001D"/>
</g>
<defs>
<clipPath id="clip0_3318_25666">
<rect width="56" height="56" fill="white"/>
</clipPath>
</defs>
</svg>
