<svg width="40" height="40" viewBox="0 0 40 40" fill="none" xmlns="http://www.w3.org/2000/svg">
<g clip-path="url(#clip0_8424_43339)">
<path d="M-7 26.667H46.3333V40.0003H-7V26.667Z" fill="#1EB53A"/>
<path d="M-7 0H46.3333V13.3333H-7V0Z" fill="#0099B5"/>
<path d="M-7 12.8008H46.3333V27.2008H-7V12.8008Z" fill="#CE1126"/>
<path d="M-7 13.5996H46.3333V26.3996H-7V13.5996Z" fill="white"/>
<path d="M4.20039 11.1996C6.85136 11.1996 9.00039 9.05058 9.00039 6.39961C9.00039 3.74864 6.85136 1.59961 4.20039 1.59961C1.54942 1.59961 -0.599609 3.74864 -0.599609 6.39961C-0.599609 9.05058 1.54942 11.1996 4.20039 11.1996Z" fill="white"/>
<path d="M5.8 11.1996C8.45097 11.1996 10.6 9.05058 10.6 6.39961C10.6 3.74864 8.45097 1.59961 5.8 1.59961C3.14903 1.59961 1 3.74864 1 6.39961C1 9.05058 3.14903 11.1996 5.8 11.1996Z" fill="#0099B5"/>
</g>
<defs>
<clipPath id="clip0_8424_43339">
<rect width="40" height="40" rx="20" fill="white"/>
</clipPath>
</defs>
</svg>
