<svg width="40" height="40" viewBox="0 0 40 40" fill="none" xmlns="http://www.w3.org/2000/svg">
<g clip-path="url(#clip0_8424_43169)">
<path d="M-7.86035 0H45.473V40H-7.86035V0Z" fill="#009543"/>
<path d="M-7.86035 0H45.473V20H-7.86035V0Z" fill="#D21034"/>
<path d="M-7.86035 -0.00012207L17.0285 16.421H45.4729V23.5789H17.0285L-7.86035 40" fill="black"/>
<path fill-rule="evenodd" clip-rule="evenodd" d="M-10 3.24291L-5.72063 -3.24316L18.1948 12.5357H49.3582V27.4642H18.1948L-5.72063 43.2431L-10 36.757L15.398 19.9999L-10 3.24291Z" fill="#FDCE12"/>
<path fill-rule="evenodd" clip-rule="evenodd" d="M-9.02734 1.76882L-6.69314 -1.76904L17.6647 14.3017H45.473V18.5403H16.3925L-9.02734 1.76882ZM16.3925 21.4597H45.473V25.6982H17.6647L-6.69314 41.769L-9.02734 38.2311L16.3925 21.4597Z" fill="black"/>
<path d="M-0.691151 23.8314V26.1051C1.2878 26.1051 5.17834 24.5893 5.17834 19.6967C5.17834 14.804 1.02675 13.8945 -0.21115 13.8945C-1.45747 13.8945 -5.28906 14.7872 -5.28906 18.7788C-5.28906 22.7872 -1.52484 23.1577 -0.783783 23.1577C-0.0427275 23.1577 2.73623 22.484 2.41623 19.4861C2.33326 20.2178 1.98317 20.8931 1.43306 21.3826C0.882948 21.8721 0.171527 22.1414 -0.564835 22.1388C-2.58589 22.1388 -3.84906 20.6398 -3.84906 19.1577C-3.84906 17.6756 -2.61958 15.6882 -0.489045 15.6882C1.64149 15.6882 3.19939 17.583 3.19939 19.4861C3.19939 21.3977 1.70044 23.823 -0.691151 23.823V23.8314Z" fill="#FDCE12"/>
<path d="M-2.43457 20.8585L-2.31668 20.9427C-2.31668 20.9427 -1.37351 18.7953 1.14439 17.2711C0.824389 17.4395 -0.859828 18.2816 -2.43457 20.8585Z" fill="#FDCE12"/>
<path fill-rule="evenodd" clip-rule="evenodd" d="M1.10605 17.2529C1.11438 17.2486 1.12208 17.2446 1.12912 17.2408L1.16226 17.2995C-0.0922902 18.0589 -0.954525 18.9736 -1.50308 19.6984C-1.77734 20.0607 -1.97312 20.3755 -2.10025 20.5995C-2.16381 20.7115 -2.2102 20.8008 -2.24065 20.862C-2.25588 20.8926 -2.26712 20.9162 -2.27453 20.932C-2.27823 20.9399 -2.28098 20.9459 -2.28279 20.9499L-2.2848 20.9544L-2.28528 20.9555L-2.28539 20.9557L-2.30209 20.9938L-2.45373 20.8854L-2.43415 20.858L-2.46289 20.8405C-0.918259 18.3129 0.732477 17.4486 1.10605 17.2529ZM-2.38903 20.8489L-2.32977 20.8912C-2.32251 20.8759 -2.31293 20.856 -2.30096 20.832C-2.27 20.7698 -2.22304 20.6794 -2.15884 20.5663C-2.03044 20.34 -1.83306 20.0227 -1.55679 19.6577C-1.51413 19.6013 -1.46958 19.5438 -1.42312 19.4853C-1.74099 19.8734 -2.06717 20.3249 -2.38903 20.8489Z" fill="#FDCE12"/>
<path d="M-2.19027 20.4879C-2.19027 20.4879 -2.47659 19.8985 -2.22396 19.629C-1.97133 19.3679 -2.0808 20.3279 -2.0808 20.3279L-1.97133 20.1679C-1.97133 20.1679 -2.13975 19.4437 -1.95448 19.2921C-1.7608 19.1321 -1.85343 19.9911 -1.85343 19.9911L-1.73553 19.8395C-1.73553 19.8395 -1.86185 19.1321 -1.67659 18.9974C-1.4829 18.8627 -1.6008 19.6711 -1.6008 19.6711L-1.46606 19.5027C-1.46606 19.5027 -1.56711 18.829 -1.33974 18.669C-1.11237 18.509 -1.31448 19.309 -1.31448 19.309L-1.1629 19.1406C-1.1629 19.1406 -1.23027 18.5258 -1.03658 18.3827C-0.842899 18.2479 -1.0029 18.9721 -1.0029 18.9721L-0.868163 18.8206C-0.868163 18.8206 -0.910268 18.2479 -0.725005 18.1132C-0.53132 17.9784 -0.708163 18.6606 -0.708163 18.6606L-0.565004 18.5258C-0.565004 18.5258 -0.598688 17.9448 -0.362898 17.8353C-0.127107 17.7258 -0.405003 18.3742 -0.405003 18.3742L-0.236582 18.2395C-0.236582 18.2395 -0.194477 17.5658 0.00762939 17.5069C0.209735 17.4395 -0.0765815 18.0963 -0.0765815 18.0963L0.0665774 17.9784C0.0665774 17.9784 0.142367 17.4058 0.361315 17.3384C0.588685 17.2627 0.226578 17.8605 0.226578 17.8605L0.369736 17.7511C0.369736 17.7511 0.529737 17.1784 0.740264 17.1111C0.94237 17.0521 0.521316 17.6584 0.521316 17.6584L0.664474 17.5574C0.664474 17.5574 0.891843 17.0353 1.08553 17.0016C1.26237 16.9679 0.86658 17.4311 0.86658 17.4311L1.04342 17.33C1.04342 17.33 1.33816 16.7911 1.44764 16.9511C1.54869 17.1195 1.02658 17.3637 1.02658 17.3637L0.858159 17.4648C0.858159 17.4648 1.48974 17.1616 1.56553 17.3132C1.64132 17.4648 0.698159 17.5658 0.698159 17.5658L0.546579 17.6669C0.546579 17.6669 1.17816 17.4984 1.10237 17.6584C1.01816 17.8184 0.395 17.7848 0.395 17.7848L0.251841 17.8858C0.251841 17.8858 0.883422 17.7342 0.799211 17.8858C0.715 18.0205 0.100262 18.0121 0.100262 18.0121L-0.0513179 18.1384C-0.0513179 18.1384 0.563421 17.97 0.470789 18.1637C0.386578 18.349 -0.320792 18.3405 -0.320792 18.3405L-0.489214 18.509C-0.489214 18.509 0.159209 18.2816 0.100262 18.4584C0.0497353 18.6269 -0.69132 18.7111 -0.69132 18.7111L-0.859742 18.8795C-0.859742 18.8795 -0.160792 18.6521 -0.371319 18.8627C-0.573425 19.0816 -1.08711 19.1321 -1.08711 19.1321L-1.2808 19.3848C-1.2808 19.3848 -0.590267 18.9637 -0.69132 19.1995C-0.783952 19.4353 -1.46606 19.5953 -1.46606 19.5953L-1.6008 19.7637C-1.6008 19.7637 -0.977637 19.4016 -1.04501 19.5953C-1.10395 19.8058 -1.76922 20.0163 -1.76922 20.0163L-1.87869 20.1679C-1.87869 20.1679 -1.14606 19.73 -1.20501 19.9574C-1.27237 20.1763 -1.97133 20.3363 -1.97133 20.3363L-2.05554 20.4795C-2.05554 20.4795 -1.38185 20.0837 -1.38185 20.2774C-1.36501 20.4627 -2.17343 20.6479 -2.17343 20.6479L-2.19027 20.4879Z" fill="#FDCE12"/>
</g>
<defs>
<clipPath id="clip0_8424_43169">
<rect width="40" height="40" rx="20" fill="white"/>
</clipPath>
</defs>
</svg>
