<svg width="56" height="56" viewBox="0 0 56 56" fill="none" xmlns="http://www.w3.org/2000/svg">
<g clip-path="url(#clip0_3318_25792)">
<path d="M28 56C43.464 56 56 43.464 56 28C56 12.536 43.464 0 28 0C12.536 0 0 12.536 0 28C0 43.464 12.536 56 28 56Z" fill="#F0F0F0"/>
<path d="M56 28C56 43.4639 43.4639 56 28 56C12.5361 56 0 43.4639 0 28" fill="#496E2D"/>
<path d="M48.4548 19.4845C47.4535 16.6448 44.7479 14.6089 41.5656 14.6089H35.3046C31.2705 14.6089 28.0002 17.8792 28.0002 21.9133C28.0002 23.2312 28.3511 24.4979 28.9617 25.5654C26.6367 25.5464 24.485 25.5815 23.1306 25.5654C23.1306 22.7484 23.1306 19.1598 23.1306 18.4089L23.4182 18.1212C24.7095 16.83 24.2789 14.6779 24.2789 14.6779C24.2789 14.6779 22.1271 14.2475 20.8358 15.5388L19.3309 17.0437H17.6523C13.9544 17.0437 10.9567 20.0414 10.9567 23.7393H15.8263V29.2176C15.8263 30.0188 15.9879 30.7822 16.2798 31.4774L14.6089 32.8697H12.1741V30.4349H9.73926V35.3045H20.6958V40.1741H18.261V42.6089H23.1306V37.7393L25.3624 35.061H30.6379L32.8697 37.7393V40.1741H30.4349V42.6089H40.1739V29.2175C40.1739 27.2005 41.8091 25.5653 43.8261 25.5653C43.8779 25.5653 43.9293 25.5672 43.9807 25.5692C43.8799 25.179 43.8261 24.7698 43.8261 24.348C43.8263 21.7395 45.8774 19.6102 48.4548 19.4845ZM35.3046 40.174V35.0609H35.5075L37.7393 37.7392V40.174H35.3046Z" fill="#D80027"/>
</g>
<defs>
<clipPath id="clip0_3318_25792">
<rect width="56" height="56" fill="white"/>
</clipPath>
</defs>
</svg>
