<svg width="40" height="40" viewBox="0 0 40 40" fill="none" xmlns="http://www.w3.org/2000/svg">
<g clip-path="url(#clip0_8424_43413)">
<path fill-rule="evenodd" clip-rule="evenodd" d="M-10 0H50V40H-10V0Z" fill="#198A00"/>
<path fill-rule="evenodd" clip-rule="evenodd" d="M35.9297 14.3594H42.9609V39.9844H35.9297V14.3594Z" fill="black"/>
<path fill-rule="evenodd" clip-rule="evenodd" d="M28.75 14.375H35.9297V40H28.7422L28.75 14.375Z" fill="#DE2010"/>
<path fill-rule="evenodd" clip-rule="evenodd" d="M45.2809 5.125C45.2809 5.125 47.9372 3.99219 48.1872 3.75781C48.3044 3.89844 47.1247 5.32031 44.8356 5.84375C46.9137 5.35938 48.6872 3.8125 49.0544 3.85938C49.1559 3.88281 49.1325 5.36719 44.3669 6.65625C47.6637 5.79688 49.5778 4.20313 49.5544 4.375C49.5778 4.41406 49.2262 5.625 46.3434 6.57031C47.1481 6.38281 49.3356 5.05469 49.3122 5.3125C49.3825 5.41406 47.2028 8.21875 43.2497 7.30469C46.4059 8.125 48.445 6.14844 48.734 6.1875C48.7965 6.19531 48.1559 7.90625 44.1872 8.01562C46.0856 7.82031 45.5387 8.00781 45.5387 8.00781C45.5387 8.00781 44.4216 8.88281 43.0622 8.28906C44.1247 8.57812 44.2419 8.59375 44.2653 8.67969C44.195 8.80469 43.3278 8.97656 42.4762 8.52344C43.1559 8.80469 43.7653 8.85156 43.7731 8.95312C43.7653 8.98438 43.3356 9.23438 42.945 9.05469C42.5622 8.88281 39.0153 6.70313 39.0153 6.70313L45.0622 5.03906L45.2809 5.11719V5.125ZM38.1716 11.0312C37.6403 11.0312 37.6247 11.5 37.6247 11.5C37.6247 11.5 37.5856 11.5391 37.6091 11.7656L37.7419 11.5625C37.8044 11.5703 38.0466 11.6406 38.4294 11.3438C38.0778 11.7109 38.2887 11.8438 38.2887 11.8438C38.2887 11.8438 38.2106 12.1328 38.4762 12.1875C38.3981 12.0703 38.445 11.9688 38.445 11.9688C38.445 11.9688 38.82 11.9297 38.7966 11.4766C38.8044 11.8906 39.0309 11.9922 39.0309 11.9922C39.0309 11.9922 39.0309 12.2188 39.2731 12.2422C39.1481 12.125 39.1716 11.9453 39.1716 11.9453C39.1716 11.9453 39.4841 11.7109 39.2262 11.3203C39.3825 11.2266 39.5153 10.9687 39.5153 10.9687C39.5153 10.9687 39.2966 10.875 39.195 10.7969C39.1481 10.6953 39.195 10.1328 39.195 10.1328L39.0544 9.40625L38.6794 10.5391C38.695 10.3828 38.7028 11.0312 38.1716 11.0312Z" fill="#EF7D00"/>
<path fill-rule="evenodd" clip-rule="evenodd" d="M48.1896 3.71882C48.2003 3.71948 48.2103 3.72454 48.2172 3.73281C48.2351 3.75432 48.236 3.78199 48.2326 3.8045C48.229 3.82812 48.2195 3.85478 48.2059 3.8832C48.1786 3.94036 48.1312 4.01213 48.0653 4.09396C47.9331 4.25803 47.7228 4.46739 47.4376 4.68812C47.4271 4.69624 47.4165 4.70439 47.4058 4.71255C47.4605 4.68102 47.5141 4.6497 47.5668 4.61869C47.7537 4.50852 47.9273 4.40247 48.0857 4.3056L48.1047 4.294C48.2554 4.2018 48.3923 4.11811 48.5128 4.0478C48.6383 3.97464 48.7473 3.91526 48.8371 3.87559C48.882 3.85574 48.923 3.84043 48.9593 3.83084C48.9953 3.82136 49.0293 3.8168 49.0593 3.82063C49.0606 3.82079 49.0619 3.82102 49.0631 3.82131C49.0776 3.82466 49.0877 3.8336 49.094 3.84161C49.1004 3.84968 49.1047 3.85896 49.1078 3.8679C49.1139 3.88584 49.1168 3.90828 49.1166 3.93361C49.1164 3.98473 49.1039 4.05439 49.0714 4.13899C49.0064 4.30855 48.8599 4.54145 48.5621 4.81211C48.4806 4.88619 48.3876 4.96316 48.2819 5.0425C48.6444 4.84184 48.9321 4.6663 49.1402 4.53936C49.1599 4.52737 49.1788 4.51582 49.197 4.50473C49.3104 4.43568 49.3975 4.38326 49.4557 4.35362C49.4837 4.33934 49.5094 4.328 49.5293 4.32441C49.5378 4.32287 49.556 4.32057 49.5724 4.33136C49.5887 4.34209 49.5931 4.35802 49.5936 4.37035C49.5937 4.37094 49.5937 4.37147 49.5938 4.37194C49.5944 4.37593 49.5945 4.37969 49.5944 4.38279C49.5943 4.38902 49.5935 4.39575 49.5923 4.40252C49.5899 4.41622 49.5853 4.43365 49.5784 4.45421C49.5645 4.49553 49.5404 4.55194 49.502 4.62061C49.4253 4.75808 49.291 4.9457 49.0657 5.16105C48.9761 5.24672 48.8721 5.33678 48.7517 5.42982C48.8256 5.39523 48.8942 5.36427 48.9561 5.33796C49.0634 5.29231 49.1532 5.25942 49.2166 5.24655C49.2471 5.24036 49.2779 5.23734 49.3026 5.2446C49.316 5.24854 49.3302 5.2563 49.3402 5.27072C49.348 5.28202 49.351 5.29443 49.3514 5.30622C49.3526 5.31118 49.3529 5.31569 49.3529 5.31919C49.3529 5.32664 49.3515 5.33373 49.35 5.33973C49.3468 5.35176 49.3411 5.36522 49.334 5.37925C49.3196 5.40766 49.2966 5.44437 49.2658 5.48749C49.2038 5.57404 49.1076 5.68986 48.9785 5.82243C48.8634 5.9405 48.7218 6.07217 48.5544 6.20855C48.5883 6.19086 48.6188 6.17642 48.6455 6.16616C48.678 6.15367 48.7107 6.14498 48.7391 6.14877M49.2736 5.31858C49.2658 5.31816 49.2525 5.31898 49.2321 5.32312C49.1772 5.33427 49.0937 5.36431 48.9866 5.40985C48.8122 5.48407 48.5825 5.5962 48.3278 5.72328C47.9536 5.95691 47.4728 6.19937 46.8564 6.43145C46.6622 6.5133 46.4885 6.57662 46.3523 6.60836C46.3319 6.6131 46.3114 6.60097 46.3058 6.58084C46.3002 6.56071 46.3114 6.53971 46.3313 6.53319C46.5058 6.47596 46.671 6.41777 46.8273 6.35894C46.9243 6.31804 47.0271 6.2722 47.1337 6.22296C47.4304 6.08588 47.7537 5.92369 48.0582 5.77093C48.0792 5.7604 48.1 5.74992 48.1208 5.7395C48.1779 5.71085 48.2343 5.68262 48.2896 5.65505C48.6003 5.46073 48.8352 5.27336 49.0117 5.10458C49.2318 4.89415 49.3612 4.71263 49.4338 4.58252C49.4702 4.5174 49.4922 4.46541 49.5043 4.42933C49.5061 4.42396 49.5077 4.41899 49.5091 4.41443C49.5037 4.41694 49.4978 4.41986 49.4911 4.42323C49.4362 4.45122 49.352 4.50182 49.2376 4.57145C49.2194 4.58253 49.2005 4.59408 49.1809 4.60606C48.9549 4.74392 48.6337 4.93991 48.2244 5.1632C47.9791 5.29707 47.7021 5.44077 47.3949 5.58773C46.8793 5.85414 46.2135 6.13202 45.3556 6.40638C45.0445 6.50828 44.718 6.60509 44.3767 6.69405C44.3559 6.69947 44.3346 6.68706 44.3291 6.66628C44.3236 6.64549 44.3359 6.62416 44.3567 6.61854C44.7068 6.52383 45.0312 6.42809 45.3317 6.33199C46.1071 6.07798 46.7865 5.79219 47.3602 5.51776C47.8895 5.24418 48.2568 4.98398 48.5095 4.7543C48.8006 4.4898 48.9388 4.26664 48.9985 4.11101C49.0284 4.03301 49.0383 3.97279 49.0385 3.93321C49.0386 3.91676 49.037 3.90498 49.0351 3.89741C49.0206 3.89763 49.0022 3.90034 48.9793 3.90639C48.9483 3.91455 48.9115 3.92814 48.8687 3.94704C48.7831 3.98488 48.6771 4.04245 48.5522 4.11529C48.4323 4.18519 48.2961 4.26851 48.145 4.36094L48.1265 4.37225C47.9681 4.46911 47.794 4.57547 47.6064 4.686C47.2724 4.88282 46.8954 5.09321 46.4875 5.28755C46.0267 5.52371 45.4777 5.737 44.8443 5.88183C44.8233 5.88663 44.8024 5.87353 44.7976 5.85254C44.7927 5.83155 44.8058 5.8106 44.8267 5.80571C45.3994 5.67223 45.9492 5.45747 46.453 5.21747C46.8243 5.02708 47.1373 4.82184 47.3898 4.62634C47.6711 4.40859 47.8768 4.20339 48.0044 4.04496C48.0684 3.96553 48.1118 3.89906 48.1355 3.8495C48.1367 3.84682 48.1379 3.84421 48.1391 3.84168C48.1035 3.86461 48.0596 3.8903 48.0094 3.91803C47.912 3.97189 47.7871 4.03569 47.6448 4.10539C47.36 4.24484 47.0041 4.40862 46.6563 4.56493C46.3085 4.72127 45.9685 4.87026 45.7154 4.98016C45.5889 5.03512 45.4841 5.0803 45.411 5.11175C45.3744 5.12748 45.3457 5.13977 45.3262 5.14813L45.2963 5.16092C45.2963 5.16093 45.2963 5.16093 45.2809 5.125L45.2963 5.16092C45.2842 5.16606 45.2703 5.16482 45.2594 5.15759C45.2552 5.15479 45.2516 5.15124 45.2488 5.14718L45.0606 5.08L39.1124 6.71691C39.1338 6.73005 39.1594 6.74576 39.1889 6.76382C39.2866 6.82375 39.4266 6.90956 39.5959 7.01306C39.9343 7.22008 40.3896 7.49788 40.8568 7.78105C41.3241 8.06423 41.8032 8.35272 42.1894 8.58112C42.5768 8.81031 42.8678 8.97723 42.961 9.01905L42.9613 9.0192C43.1452 9.1038 43.34 9.0879 43.4921 9.04539C43.5679 9.0242 43.632 8.9967 43.6771 8.97289C43.6943 8.96383 43.7085 8.95546 43.7193 8.94838C43.7044 8.93974 43.6817 8.93023 43.6503 8.91973C43.5869 8.89846 43.4972 8.87605 43.386 8.84826L43.3672 8.84356C43.3603 8.84184 43.3533 8.8401 43.3463 8.83835C43.0726 8.80431 42.7643 8.72095 42.4579 8.55792C42.4395 8.54813 42.432 8.52562 42.4409 8.50678C42.4498 8.48793 42.4719 8.47937 42.4912 8.48734C42.8163 8.62186 43.1254 8.70242 43.3607 8.7614C43.468 8.77454 43.5697 8.77985 43.6635 8.7793C43.8269 8.77834 43.9653 8.75958 44.0662 8.73387C44.1168 8.721 44.157 8.70661 44.1859 8.69239C44.201 8.68501 44.2115 8.67837 44.2186 8.67296C44.2147 8.66866 44.2082 8.66328 44.1971 8.65676C44.1706 8.64124 44.1245 8.6233 44.0419 8.59788C43.9744 8.57712 43.8851 8.5521 43.7665 8.51978C43.538 8.49422 43.2963 8.43395 43.0465 8.32486C43.0278 8.31667 43.0185 8.29539 43.0253 8.27608C43.0321 8.25678 43.0527 8.246 43.0724 8.25137C43.2485 8.29928 43.3989 8.33973 43.5272 8.37425C43.6237 8.40023 43.7078 8.42285 43.781 8.44278C44.169 8.48521 44.5171 8.42436 44.7983 8.33391C45.0197 8.26266 45.1993 8.1731 45.3234 8.10143C45.3854 8.0656 45.4335 8.03429 45.466 8.01203C45.4822 8.00091 45.4945 7.99205 45.5027 7.98603C45.5068 7.98302 45.5099 7.98072 45.5119 7.9792L45.5141 7.97752L45.5146 7.97713L45.5147 7.97706C45.5147 7.97706 45.5146 7.97706 45.5147 7.97706C45.5181 7.97438 45.5219 7.97228 45.526 7.97087L45.5262 7.9708L45.5266 7.97068C45.4925 7.96728 45.4432 7.96533 45.3738 7.96592C45.0157 8.01173 44.6217 8.04273 44.1883 8.05467C44.1673 8.05525 44.1496 8.03912 44.1482 8.01816C44.1468 7.9972 44.1623 7.97892 44.1832 7.97677C44.6581 7.92791 44.9807 7.90292 45.1975 7.89299C45.2636 7.88996 45.3202 7.8883 45.3686 7.88782M45.5577 8.0425C45.5555 8.04416 45.5526 8.04633 45.549 8.04896C45.5402 8.05547 45.5271 8.06483 45.5102 8.07647C45.4762 8.09974 45.4264 8.13215 45.3625 8.16908C45.2346 8.24291 45.05 8.335 44.8222 8.40828C44.6138 8.47534 44.369 8.5267 44.0987 8.53385C44.1624 8.55438 44.2064 8.57168 44.2366 8.58933C44.2547 8.59993 44.2694 8.61152 44.2807 8.62539C44.2923 8.63961 44.2989 8.65444 44.303 8.66941C44.3057 8.67932 44.3044 8.68989 44.2993 8.69884C44.2844 8.72539 44.2538 8.7461 44.2204 8.76251C44.1851 8.77984 44.1394 8.79585 44.0855 8.80958C43.9866 8.83476 43.8569 8.85309 43.7064 8.85678C43.7285 8.86525 43.7479 8.87414 43.7635 8.88379C43.7841 8.89649 43.8095 8.91741 43.8121 8.95013C43.8124 8.95432 43.812 8.95853 43.811 8.9626C43.8089 8.97119 43.8045 8.9774 43.8022 8.98034C43.7995 8.98391 43.7965 8.98704 43.7938 8.98965C43.7883 8.99489 43.7815 9.00029 43.774 9.00561C43.759 9.01638 43.7384 9.02891 43.7136 9.042C43.6638 9.06825 43.5945 9.09787 43.5131 9.12063C43.3508 9.166 43.1355 9.18526 42.9288 9.09025C42.8304 9.04602 42.5346 8.87609 42.1496 8.64837C41.7631 8.41975 41.2837 8.13109 40.8163 7.84786C40.349 7.56462 39.8936 7.28676 39.5551 7.07971C39.3858 6.97619 39.2458 6.89036 39.148 6.83042C39.0992 6.80045 39.0609 6.77695 39.0348 6.76094L38.9949 6.73643C38.9949 6.73641 38.9948 6.73641 39.0153 6.70313L38.9949 6.73643C38.9816 6.72829 38.9744 6.71303 38.9766 6.69763C38.9788 6.68222 38.9899 6.66959 39.0049 6.66546L45.0518 5.0014C45.0595 4.99927 45.0678 4.99958 45.0753 5.00228L45.2896 5.07881L45.2954 5.07631C45.3149 5.06796 45.3436 5.05569 45.3801 5.03998C45.4532 5.00856 45.5579 4.96342 45.6843 4.90851C45.9371 4.79868 46.2768 4.64983 46.6243 4.49367C46.9718 4.33748 47.3268 4.17411 47.6104 4.03523C47.7523 3.96577 47.8759 3.90262 47.9716 3.84967C48.0689 3.79589 48.1333 3.75474 48.1605 3.72932C48.1683 3.72196 48.1788 3.71816 48.1896 3.71882M49.5446 4.40112C49.5446 4.40114 49.5442 4.4012 49.5436 4.40121C49.5443 4.4011 49.5446 4.4011 49.5446 4.40112ZM39.0569 9.36727C39.0746 9.36841 39.0893 9.38138 39.0927 9.39883L39.2333 10.1254C39.234 10.1289 39.2342 10.1325 39.2339 10.1361L39.2338 10.1376L39.2334 10.1423C39.2331 10.1464 39.2326 10.1524 39.232 10.1602C39.2308 10.1756 39.2292 10.1979 39.2274 10.2249C39.2237 10.279 39.2194 10.3521 39.2164 10.4282C39.2135 10.5045 39.2121 10.5833 39.2143 10.649C39.2153 10.6819 39.2173 10.7108 39.2203 10.7342C39.2225 10.7516 39.2251 10.7642 39.2275 10.7725C39.2753 10.8073 39.3472 10.8459 39.4105 10.8771C39.4437 10.8934 39.4738 10.9074 39.4957 10.9173C39.5066 10.9222 39.5154 10.9261 39.5214 10.9288L39.5284 10.9318L39.5301 10.9326L39.5306 10.9328L39.5307 10.9328C39.5406 10.9371 39.5484 10.9453 39.5521 10.9555C39.5557 10.9657 39.555 10.977 39.55 10.9866L39.5153 10.9687C39.55 10.9866 39.55 10.9866 39.55 10.9866L39.55 10.9867L39.5499 10.9869L39.5495 10.9876L39.5483 10.9899C39.5472 10.992 39.5456 10.9949 39.5436 10.9987C39.5395 11.0062 39.5335 11.017 39.5259 11.0301C39.5106 11.0564 39.4886 11.0925 39.4615 11.1316C39.4152 11.1985 39.3515 11.2782 39.2794 11.3316C39.3935 11.5231 39.3798 11.6815 39.3315 11.7946C39.3064 11.8533 39.2727 11.8983 39.2454 11.9287C39.2317 11.944 39.2194 11.9556 39.2105 11.9636C39.21 11.964 39.2096 11.9644 39.2092 11.9647C39.2091 11.9679 39.209 11.9716 39.2089 11.9757C39.2087 11.9926 39.2096 12.0164 39.214 12.0435C39.2229 12.098 39.2457 12.163 39.2998 12.2137C39.312 12.2251 39.3156 12.2431 39.3087 12.2583C39.3018 12.2735 39.286 12.2827 39.2694 12.2811C39.1335 12.2679 39.062 12.1962 39.0264 12.1261C39.009 12.092 39.0005 12.059 38.9962 12.0347C38.995 12.0277 38.9941 12.0214 38.9935 12.0159C38.9873 12.0121 38.9801 12.0072 38.972 12.0011C38.948 11.9831 38.9166 11.9549 38.8854 11.913C38.853 11.8697 38.8211 11.8123 38.7973 11.7375C38.7625 11.8233 38.7087 11.8831 38.6526 11.9241C38.6029 11.9605 38.5525 11.9812 38.5147 11.9929C38.4992 11.9977 38.4856 12.001 38.4749 12.0033C38.4729 12.0118 38.471 12.0229 38.4703 12.0361C38.4687 12.069 38.4749 12.1151 38.5087 12.1658C38.5175 12.179 38.5175 12.1962 38.5086 12.2093C38.4998 12.2225 38.4839 12.229 38.4684 12.2258C38.3945 12.2105 38.3416 12.1783 38.3053 12.1362C38.2694 12.0947 38.2521 12.0462 38.2444 12.0018C38.2367 11.9574 38.2384 11.9156 38.2419 11.8854C38.243 11.8751 38.2444 11.866 38.2457 11.8585C38.241 11.8538 38.2358 11.8481 38.2306 11.8414C38.2125 11.8184 38.1937 11.7836 38.1884 11.7358C38.1817 11.6759 38.1965 11.6006 38.2519 11.507C38.1438 11.5649 38.0499 11.5935 37.9717 11.606C37.8734 11.6216 37.8004 11.6115 37.7607 11.605L37.6417 11.787C37.6327 11.8008 37.6159 11.8075 37.5998 11.8036C37.5838 11.7997 37.5719 11.7861 37.5702 11.7696C37.5583 11.6543 37.5619 11.5839 37.5696 11.541C37.5735 11.5194 37.5785 11.5041 37.5834 11.4934C37.5844 11.4912 37.5854 11.4892 37.5864 11.4874C37.5867 11.4841 37.587 11.4801 37.5876 11.4754C37.5892 11.4614 37.5921 11.4418 37.5973 11.4183C37.6077 11.3715 37.6275 11.3087 37.6654 11.2455C37.7425 11.117 37.8917 10.9922 38.1716 10.9922C38.4164 10.9922 38.5361 10.8448 38.5948 10.7109C38.6229 10.6467 38.6363 10.5867 38.6419 10.55C38.6405 10.5453 38.64 10.5403 38.6405 10.5352C38.6415 10.525 38.6426 10.5168 38.6438 10.511L38.6439 10.5108C38.6442 10.5091 38.6454 10.5029 38.6485 10.497C38.6493 10.4956 38.6513 10.4917 38.6552 10.4877L39.0173 9.39397C39.0229 9.3771 39.0391 9.36613 39.0569 9.36727ZM38.7225 10.533C38.722 10.5393 38.7212 10.5469 38.72 10.5554C38.7143 10.597 38.6993 10.667 38.6663 10.7422C38.6 10.8935 38.4579 11.0703 38.1716 11.0703C37.9201 11.0703 37.7959 11.1799 37.7324 11.2857C37.7 11.3398 37.6827 11.3942 37.6736 11.4352C37.669 11.4557 37.6665 11.4726 37.6652 11.4843C37.6645 11.4901 37.6642 11.4946 37.6639 11.4975C37.6638 11.499 37.6638 11.5 37.6637 11.5007L37.6637 11.5013C37.6634 11.5097 37.6604 11.5178 37.6552 11.5244C37.655 11.5247 37.6548 11.5252 37.6545 11.5259C37.6528 11.5295 37.6495 11.5383 37.6465 11.5548C37.6431 11.574 37.6402 11.6031 37.6407 11.6459L37.7092 11.5411C37.7173 11.5286 37.7319 11.5219 37.7467 11.5237C37.7523 11.5244 37.7589 11.5255 37.7664 11.5267C37.8048 11.533 37.8679 11.5434 37.9593 11.5288C38.0683 11.5114 38.2185 11.4578 38.4054 11.3129C38.4216 11.3003 38.4447 11.3024 38.4584 11.3176C38.4721 11.3328 38.4717 11.356 38.4576 11.3708C38.2851 11.5509 38.2591 11.6649 38.266 11.7271C38.2695 11.7583 38.2815 11.7797 38.292 11.7931C38.2973 11.7999 38.3023 11.8047 38.3058 11.8076C38.3075 11.8091 38.3088 11.8101 38.3094 11.8106L38.3099 11.8109L38.3098 11.8108L38.3097 11.8108C38.3098 11.8109 38.3098 11.8109 38.3099 11.8109C38.3241 11.8201 38.3309 11.8375 38.3265 11.8539L38.2887 11.8438L38.3096 11.8107C38.3096 11.8107 38.3097 11.8108 38.3097 11.8108C38.3096 11.8108 38.3096 11.8107 38.2887 11.8438M38.4015 12.1172C38.3865 12.1075 38.3743 12.0966 38.3645 12.0852C38.3403 12.0572 38.3274 12.0231 38.3214 11.9885C38.3154 11.9537 38.3166 11.9198 38.3195 11.8942C38.3209 11.8815 38.3228 11.8711 38.3242 11.864C38.3249 11.8605 38.3255 11.8578 38.3259 11.8561L38.3264 11.8542L38.3265 11.8539M38.4015 12.1172C38.4093 12.1462 38.4225 12.1773 38.4437 12.2092L38.4762 12.1875L38.4841 12.1492C38.4496 12.1421 38.4227 12.1309 38.4015 12.1172ZM38.4015 12.1172C38.3931 12.0858 38.3911 12.0568 38.3923 12.0323C38.3934 12.0089 38.3974 11.9896 38.4013 11.9759C38.4032 11.9691 38.4051 11.9636 38.4066 11.9596C38.4073 11.9576 38.408 11.956 38.4085 11.9548L38.4091 11.9533L38.4094 11.9528L38.4094 11.9525L38.4095 11.9525C38.4095 11.9524 38.4095 11.9524 38.445 11.9688L38.4409 11.9299L38.4413 11.9299C38.4417 11.9298 38.4425 11.9297 38.4436 11.9295C38.4458 11.9292 38.4492 11.9287 38.4537 11.9278C38.4627 11.9261 38.4758 11.9231 38.4917 11.9182C38.5235 11.9084 38.5654 11.8911 38.6065 11.861C38.6828 11.8053 38.7608 11.7025 38.7585 11.5083C38.758 11.4982 38.7577 11.4878 38.7575 11.4773C38.7571 11.456 38.7739 11.4383 38.7952 11.4375C38.8165 11.4368 38.8345 11.4532 38.8356 11.4745C38.8361 11.4852 38.8365 11.4957 38.8366 11.5059C38.8451 11.6876 38.8983 11.7998 38.948 11.8663C38.9743 11.9015 39.0001 11.9246 39.0188 11.9386C39.0282 11.9456 39.0357 11.9503 39.0407 11.9532C39.0432 11.9546 39.045 11.9556 39.0461 11.9561L39.0469 11.9565C39.0469 11.9566 39.0469 11.9565 39.0469 11.9565C39.0469 11.9565 39.0469 11.9565 39.0309 11.9922C39.07 11.9922 39.07 11.9922 39.07 11.9921L39.07 11.9934C39.0701 11.9945 39.0702 11.9964 39.0704 11.999C39.0707 12.0042 39.0715 12.0118 39.0732 12.0212C39.0765 12.0401 39.0831 12.0653 39.096 12.0907C39.1109 12.12 39.1346 12.1509 39.174 12.1731C39.1537 12.1324 39.1427 12.0915 39.1369 12.0561C39.1316 12.0236 39.1305 11.9952 39.1308 11.9747C39.1309 11.9645 39.1314 11.9561 39.1318 11.9503C39.1321 11.9473 39.1323 11.945 39.1325 11.9433L39.1327 11.9413L39.1328 11.9406L39.1328 11.9404L39.1328 11.9403C39.1328 11.9403 39.1328 11.9403 39.1716 11.9453L39.1328 11.9403C39.1342 11.9299 39.1397 11.9204 39.1481 11.9141L39.1484 11.9138C39.1488 11.9135 39.1494 11.913 39.1503 11.9123C39.1521 11.9108 39.1549 11.9085 39.1585 11.9053C39.1656 11.899 39.1758 11.8893 39.1873 11.8765C39.2105 11.8507 39.2388 11.8127 39.2597 11.7639C39.3004 11.6686 39.3153 11.5262 39.1936 11.3418C39.1878 11.3329 39.1858 11.322 39.1881 11.3117C39.1905 11.3013 39.197 11.2923 39.2061 11.2868C39.2767 11.2445 39.3451 11.1625 39.3972 11.0871C39.4229 11.0501 39.4438 11.0159 39.4583 10.9909C39.4591 10.9896 39.4598 10.9884 39.4605 10.9871C39.4384 10.9771 39.4087 10.9633 39.376 10.9471C39.3085 10.9139 39.2253 10.8695 39.1712 10.8278C39.1662 10.824 39.1622 10.819 39.1595 10.8132C39.151 10.7948 39.1461 10.7699 39.1428 10.7441C39.1394 10.7173 39.1373 10.6857 39.1362 10.6515C39.1339 10.5832 39.1354 10.5023 39.1384 10.4253C39.1413 10.3481 39.1457 10.2742 39.1494 10.2197C39.1513 10.1924 39.1529 10.1699 39.1541 10.1542C39.1545 10.1494 39.1548 10.1452 39.1551 10.1417C39.1553 10.1395 39.1554 10.1376 39.1555 10.136L39.1556 10.135L39.0444 9.56053L38.7225 10.533M39.07 11.9921C39.07 11.9921 39.07 11.9921 39.07 11.9921C39.07 11.9921 39.07 11.9921 39.07 11.9921C39.0699 11.9768 39.061 11.9629 39.0471 11.9566C39.047 11.9566 39.0469 11.9566 39.0469 11.9565M38.4409 11.9299C38.441 11.9299 38.4409 11.9299 38.4409 11.9299C38.4273 11.9313 38.4153 11.9399 38.4095 11.9524L38.445 11.9688M38.4409 11.9299C38.441 11.9299 38.4409 11.9299 38.4409 11.9299V11.9299Z" fill="black"/>
<path fill-rule="evenodd" clip-rule="evenodd" d="M40.7969 9.39844C40.8125 9.40625 41.1953 9.83594 41.5703 9.8125C41.7109 9.69531 41.2812 9.44531 41.2812 9.38281C41.4375 9.52344 42.0703 10.0703 42.4844 9.875C42.6406 9.64063 42.1875 9.67969 41.6875 9.04688C42.0391 9.28125 42.9141 9.78906 43.3281 9.59375C43.4922 9.40625 42.4141 8.82031 42.0469 8.36719L41.1094 7.89062L39.8438 8.92969L40.8047 9.39844H40.7969Z" fill="#EF7D00"/>
<path fill-rule="evenodd" clip-rule="evenodd" d="M41.0846 7.86043C41.0966 7.85059 41.1133 7.84878 41.1271 7.8558L42.0646 8.33237C42.0695 8.33485 42.0738 8.33834 42.0772 8.34259C42.1663 8.45253 42.2999 8.572 42.4496 8.69328C42.5558 8.77923 42.6687 8.865 42.7782 8.94823C42.8231 8.98233 42.8674 9.01601 42.9105 9.0491C43.0577 9.16213 43.191 9.26889 43.2771 9.35985C43.3199 9.40502 43.354 9.44924 43.3713 9.4908C43.3892 9.53376 43.3913 9.58089 43.3575 9.61947C43.354 9.62352 43.3497 9.62679 43.3448 9.62908C43.231 9.68276 43.0895 9.68658 42.9402 9.66221C42.7903 9.63773 42.628 9.58403 42.4693 9.51747C42.2638 9.43132 42.0619 9.32262 41.8971 9.22467C42.0718 9.39991 42.2308 9.50029 42.3473 9.57378L42.3529 9.57732C42.3917 9.60181 42.4268 9.62409 42.4558 9.64531C42.4846 9.66638 42.51 9.68827 42.5278 9.71284C42.5463 9.73844 42.5568 9.7675 42.5545 9.80082C42.5522 9.83281 42.5384 9.86442 42.5169 9.89667C42.5129 9.90258 42.5075 9.9073 42.501 9.91033C42.3873 9.96397 42.2607 9.9656 42.1354 9.93845C42.0102 9.91131 41.8836 9.8549 41.7669 9.78888C41.7183 9.76136 41.6711 9.73201 41.6262 9.70215C41.6344 9.72232 41.6393 9.74417 41.6372 9.76661C41.6344 9.79615 41.6199 9.82199 41.5953 9.84251C41.5889 9.84782 41.581 9.85097 41.5728 9.85149C41.371 9.8641 41.1719 9.75539 41.0258 9.64874C40.9519 9.59479 40.8896 9.53996 40.8449 9.49828C40.8226 9.47743 40.8046 9.45981 40.7919 9.44732L40.7911 9.44654C40.785 9.44059 40.7804 9.43611 40.7771 9.43294C40.7758 9.4317 40.7749 9.43084 40.7743 9.43029C40.7715 9.42832 40.769 9.42601 40.7669 9.42345L39.8266 8.9648C39.8147 8.95896 39.8065 8.94745 39.805 8.93424C39.8034 8.92103 39.8087 8.90794 39.819 8.8995L41.0846 7.86043ZM40.8421 9.38715C40.8432 9.38821 40.8443 9.3893 40.8454 9.39043L40.8466 9.39155C40.8592 9.40396 40.8766 9.42101 40.8982 9.44117C40.9415 9.48152 41.0013 9.53412 41.0719 9.58563C41.2108 9.68703 41.3847 9.77909 41.5534 9.77417C41.5575 9.76878 41.5589 9.76386 41.5594 9.7593C41.5602 9.75106 41.558 9.739 41.5496 9.72222C41.5324 9.68796 41.4964 9.64779 41.4517 9.60553C41.4231 9.57853 41.3936 9.55299 41.3656 9.52874C41.3498 9.51508 41.3345 9.50182 41.3202 9.48896C41.301 9.47179 41.2832 9.45513 41.2701 9.44021C41.2636 9.43276 41.2572 9.42473 41.2524 9.41645C41.2479 9.40889 41.2422 9.39701 41.2422 9.38281C41.2422 9.36739 41.2513 9.35341 41.2654 9.34713C41.2794 9.34085 41.2959 9.34346 41.3074 9.35378C41.385 9.42362 41.5797 9.59316 41.8054 9.72089C41.9182 9.78475 42.0372 9.83723 42.1519 9.86209C42.2625 9.88606 42.3667 9.88388 42.4577 9.84421C42.4708 9.82265 42.4757 9.80697 42.4765 9.79534C42.4774 9.78347 42.4742 9.77218 42.4644 9.7586C42.4539 9.74399 42.4363 9.72785 42.4097 9.70836C42.3832 9.68902 42.3505 9.66821 42.3112 9.64338L42.3054 9.63972C42.148 9.54043 41.908 9.38892 41.6569 9.07109C41.6449 9.05602 41.6458 9.03451 41.6588 9.02039C41.6718 9.00627 41.6932 9.00372 41.7092 9.01437C41.8838 9.1308 42.1882 9.3149 42.4995 9.44542C42.6552 9.5107 42.8112 9.56198 42.9528 9.58511C43.0907 9.60762 43.2105 9.60274 43.3027 9.56242C43.3071 9.5542 43.308 9.54212 43.2992 9.5208C43.2875 9.49266 43.2614 9.4568 43.2204 9.41359C43.1391 9.32779 43.0107 9.22459 42.8629 9.11106C42.8206 9.07851 42.7767 9.04516 42.732 9.01124C42.6221 8.92771 42.5076 8.84075 42.4005 8.75399C42.2527 8.63436 42.1162 8.51299 42.0218 8.39828L41.1144 7.93702L39.9156 8.92126L40.8218 9.36333C40.8319 9.36823 40.839 9.377 40.8421 9.38715ZM40.7737 9.42983C40.7737 9.42982 40.7737 9.42982 40.7737 9.42982C40.7733 9.42944 40.7731 9.42929 40.7731 9.42931M41.3191 9.37559C41.3191 9.3756 41.3191 9.37572 41.3192 9.37596C41.3191 9.37571 41.319 9.37559 41.3191 9.37559Z" fill="black"/>
<path fill-rule="evenodd" clip-rule="evenodd" d="M39.3672 5.84407C39.3672 5.84407 39.7969 5.59407 41.5234 5.71907C41.7109 5.7425 42.6953 5.38313 43.0156 5.27375C43.5156 5.18 45.125 4.83625 45.5469 4.50813C45.8594 4.46907 45.4688 5.06282 45.0781 5.21125C44.6719 5.39094 43.1953 5.90657 42.6641 5.83625C43.2969 5.84407 42.9453 6.35969 41.8984 6.1175C42.3984 6.39875 42.2109 6.44563 42.2109 6.44563C42.2109 6.44563 41.3281 6.4925 41.0938 6.28938C41.6875 6.51594 41.4375 6.60188 41.4375 6.60188C41.4375 6.60188 40.8359 6.65657 40.5547 6.52375C40.9844 6.65657 40.7656 6.73469 40.7656 6.73469C40.7656 6.73469 40.4141 6.79719 40.125 6.68782C39.8281 6.58625 39.3906 5.85188 39.3672 5.85188V5.84407Z" fill="#EF7D00"/>
<path fill-rule="evenodd" clip-rule="evenodd" d="M45.5618 4.54585C45.4503 4.62953 45.2697 4.71184 45.0571 4.78968C44.8376 4.87007 44.58 4.94707 44.3207 5.01656C43.8038 5.15504 43.2774 5.26433 43.0256 5.31162C42.9795 5.32737 42.9198 5.34826 42.8507 5.37241C42.6796 5.43222 42.4513 5.51204 42.2318 5.58336C42.0768 5.63374 41.9253 5.68016 41.8005 5.71256C41.7381 5.72875 41.6818 5.74159 41.6349 5.74964C41.5895 5.75741 41.5492 5.76142 41.5197 5.75795C40.6589 5.69569 40.1231 5.727 39.8035 5.77334C39.6436 5.79652 39.5381 5.82342 39.4732 5.84416C39.454 5.85029 39.4383 5.85589 39.4259 5.86068C39.4402 5.88027 39.4593 5.90771 39.4818 5.9402L39.4858 5.94591C39.5348 6.01635 39.6005 6.11069 39.6746 6.2081C39.7489 6.30561 39.8309 6.40537 39.9123 6.48673C39.9946 6.56907 40.0723 6.62851 40.1376 6.65085L40.1388 6.65128C40.2768 6.70348 40.4314 6.71512 40.5531 6.71321C40.6136 6.71225 40.6654 6.70796 40.7019 6.70392C40.7201 6.7019 40.7345 6.69994 40.7443 6.69851C40.749 6.69782 40.7526 6.69725 40.755 6.69686C40.7558 6.69653 40.7567 6.69613 40.7577 6.69566C40.7615 6.69386 40.7664 6.6913 40.7711 6.68812C40.7792 6.68259 40.7815 6.67891 40.7821 6.67782C40.7811 6.675 40.7759 6.66387 40.7476 6.64547C40.728 6.63268 40.6999 6.61822 40.6607 6.60228C40.6162 6.59063 40.5747 6.5764 40.538 6.55907C40.5195 6.55032 40.5109 6.52872 40.5183 6.5096C40.5257 6.49049 40.5466 6.48037 40.5662 6.48643C40.6126 6.50075 40.6521 6.51462 40.6856 6.52806C40.8097 6.55979 40.9635 6.57137 41.1022 6.57356C41.1939 6.57501 41.277 6.57235 41.3372 6.56933C41.3672 6.56782 41.3915 6.56622 41.4083 6.565C41.4166 6.5644 41.4231 6.56388 41.4275 6.56352L41.4282 6.56346C41.4287 6.56323 41.4293 6.56297 41.4298 6.56269C41.4338 6.56075 41.4385 6.55803 41.4425 6.55468C41.4508 6.54788 41.4513 6.54392 41.4503 6.53953C41.448 6.52983 41.4346 6.50502 41.3763 6.46631C41.3576 6.45384 41.3348 6.44038 41.3075 6.4259C41.2111 6.40186 41.1248 6.36797 41.0682 6.31889C41.0538 6.30648 41.0505 6.28558 41.0602 6.26931C41.07 6.25305 41.09 6.24612 41.1077 6.25288C41.2027 6.28915 41.2773 6.32218 41.3353 6.35228C41.3482 6.3554 41.3615 6.35839 41.3752 6.36124C41.4882 6.38485 41.6183 6.39788 41.7424 6.40467C41.8662 6.41144 41.9829 6.41193 42.0688 6.41071C42.1117 6.41011 42.1468 6.40908 42.1711 6.4082C42.1833 6.40776 42.1928 6.40737 42.1992 6.40708L42.2032 6.40689C42.2045 6.40624 42.2056 6.40552 42.2063 6.40487C42.2063 6.40486 42.2063 6.40488 42.2063 6.40487C42.2063 6.404 42.2061 6.40223 42.2051 6.39938C42.2008 6.38654 42.1844 6.3601 42.1332 6.31743C42.083 6.27561 42.0032 6.22127 41.8793 6.15154C41.8624 6.14202 41.855 6.12149 41.862 6.10338C41.869 6.08526 41.8883 6.07506 41.9072 6.07944C42.1656 6.13922 42.3798 6.15191 42.5454 6.1379C42.712 6.12381 42.8265 6.083 42.8884 6.03882C42.9196 6.01662 42.934 5.9961 42.9386 5.98104C42.9425 5.96844 42.9407 5.95649 42.9291 5.94317C42.9161 5.92815 42.8899 5.91125 42.8448 5.89799C42.8219 5.89127 42.795 5.88572 42.7639 5.88179C42.7261 5.88142 42.691 5.87922 42.6589 5.87497C42.6384 5.87226 42.6236 5.85405 42.6251 5.83344C42.6266 5.81282 42.6439 5.79693 42.6645 5.79719C42.7024 5.79766 42.7373 5.79989 42.7691 5.80372C42.886 5.80439 43.0342 5.7865 43.201 5.75513C43.4188 5.7142 43.6645 5.6511 43.907 5.58001C44.3922 5.43777 44.8612 5.2645 45.0623 5.17552C45.063 5.17524 45.0636 5.17498 45.0642 5.17473C45.2498 5.10423 45.4392 4.92529 45.5436 4.7678C45.5694 4.72882 45.5894 4.69205 45.6027 4.65952C45.6162 4.6265 45.6218 4.60025 45.6213 4.58154C45.6209 4.56381 45.6155 4.55682 45.6102 4.55314C45.6038 4.54872 45.5897 4.5437 45.5618 4.54585ZM42.9651 5.87021C42.9737 5.87695 42.9814 5.88419 42.9881 5.89192C43.0162 5.92425 43.0256 5.96394 43.0133 6.00401C43.0017 6.04163 42.9725 6.07482 42.9338 6.10242C42.8561 6.15786 42.726 6.20103 42.552 6.21575C42.4259 6.22642 42.275 6.22229 42.1013 6.19616C42.1339 6.21848 42.1609 6.23884 42.1832 6.25741C42.2375 6.30263 42.2679 6.34065 42.2792 6.37468C42.2852 6.39265 42.2861 6.41029 42.2815 6.42669C42.2768 6.44291 42.2676 6.45478 42.2586 6.46294C42.2497 6.47093 42.2404 6.47588 42.2338 6.4788C42.2304 6.4803 42.2274 6.48138 42.2251 6.48213C42.224 6.48251 42.223 6.4828 42.2222 6.48303L42.2212 6.48332L42.2208 6.48343L42.2206 6.48348L42.2205 6.4835C42.2204 6.48351 42.2204 6.48352 42.2109 6.44562C42.213 6.48463 42.213 6.48463 42.213 6.48463L42.2123 6.48467L42.2103 6.48477L42.2027 6.48512C42.1961 6.48542 42.1864 6.48583 42.174 6.48628C42.1491 6.48717 42.1134 6.48822 42.0699 6.48883C41.9829 6.49006 41.8643 6.48957 41.7381 6.48267C41.6571 6.47824 41.5725 6.47115 41.491 6.46007C41.5097 6.48061 41.5214 6.501 41.5263 6.52164C41.537 6.56705 41.5121 6.59873 41.492 6.61513C41.482 6.62338 41.4717 6.62914 41.4643 6.63279C41.4605 6.63465 41.4573 6.63606 41.4549 6.63704C41.4536 6.63754 41.4526 6.63793 41.4518 6.63822L41.4508 6.63859L41.4505 6.63872L41.4503 6.63877C41.4503 6.63878 41.4502 6.63881 41.4375 6.60187C41.441 6.64077 41.441 6.64078 41.441 6.64078L41.4405 6.64082L41.4391 6.64094L41.4339 6.64139C41.4293 6.64176 41.4226 6.6423 41.4139 6.64292C41.3967 6.64418 41.3718 6.64581 41.3411 6.64736C41.2797 6.65044 41.1948 6.65315 41.1009 6.65167C41.0215 6.65042 40.9342 6.64616 40.8486 6.63618C40.8565 6.64983 40.8608 6.66443 40.8603 6.68008C40.8593 6.71818 40.8309 6.74191 40.8151 6.75268C40.806 6.75891 40.7971 6.76348 40.7907 6.76648C40.7874 6.768 40.7846 6.76917 40.7826 6.77C40.7816 6.77041 40.7807 6.77074 40.7801 6.77098L40.7793 6.77129L40.779 6.7714L40.7789 6.77144C40.7788 6.77145 40.7788 6.77147 40.7656 6.73469C40.7725 6.77314 40.7725 6.77315 40.7724 6.77315L40.7723 6.77317L40.7721 6.77321L40.7712 6.77337L40.7679 6.77391C40.765 6.77438 40.7609 6.77503 40.7556 6.7758C40.745 6.77736 40.7297 6.77944 40.7105 6.78157C40.672 6.78583 40.6178 6.79032 40.5543 6.79132C40.4282 6.79331 40.2627 6.78154 40.1118 6.72456C40.0288 6.69599 39.9407 6.62568 39.857 6.54197C39.7721 6.45706 39.6877 6.35419 39.6125 6.25542C39.5372 6.15653 39.4706 6.06094 39.4217 5.9905L39.418 5.98529C39.3951 5.95227 39.3765 5.92549 39.3627 5.90664C39.3554 5.89664 39.3501 5.88964 39.3465 5.88535C39.3462 5.88505 39.346 5.88479 39.3458 5.88454C39.3351 5.87756 39.3281 5.86554 39.3281 5.85187V5.84406C39.3281 5.83015 39.3355 5.81729 39.3475 5.8103L39.3672 5.84406C39.3475 5.8103 39.3475 5.81032 39.3475 5.8103L39.3477 5.81021L39.3479 5.8101L39.3484 5.80982L39.3499 5.809C39.3511 5.80835 39.3527 5.80748 39.3548 5.80641C39.3591 5.80427 39.3652 5.80133 39.3734 5.79775C39.3898 5.7906 39.4146 5.78086 39.4494 5.76974C39.519 5.74751 39.6288 5.71973 39.7922 5.69603C40.119 5.64864 40.661 5.61746 41.5263 5.6801C41.5269 5.68015 41.5276 5.68022 41.5283 5.6803C41.5456 5.68246 41.5766 5.68037 41.6217 5.67264C41.6656 5.6651 41.7195 5.65285 41.7808 5.63694C41.9034 5.60513 42.0531 5.55927 42.2077 5.50906C42.4263 5.43801 42.6528 5.35884 42.8237 5.2991C42.8945 5.27433 42.9558 5.2529 43.003 5.23678C43.0048 5.23618 43.0066 5.2357 43.0084 5.23535C43.2577 5.18861 43.7841 5.07944 44.3004 4.94109C44.5586 4.87191 44.8138 4.79559 45.0303 4.71632C45.2479 4.63662 45.4226 4.5553 45.5229 4.47729C45.5284 4.47297 45.5351 4.47023 45.542 4.46936C45.5855 4.46393 45.6249 4.46828 45.6547 4.48892C45.6863 4.51082 45.6986 4.54497 45.6995 4.57972C45.7002 4.61351 45.6906 4.6511 45.675 4.68906C45.6593 4.72752 45.6366 4.76887 45.6087 4.81095C45.4984 4.9774 45.2977 5.16921 45.093 5.24739C44.8874 5.33822 44.4157 5.51228 43.929 5.65498C43.6851 5.72648 43.4367 5.79033 43.2155 5.83191C43.1276 5.84843 43.0434 5.86156 42.9651 5.87021ZM40.7656 6.73469L40.7724 6.77315C40.7746 6.77277 40.7767 6.7722 40.7788 6.77147L40.7656 6.73469ZM41.4375 6.60187L41.441 6.64078C41.4441 6.64049 41.4472 6.63983 41.4502 6.63881L41.4375 6.60187ZM42.2109 6.44562L42.213 6.48463C42.2155 6.4845 42.2181 6.48411 42.2205 6.4835L42.2109 6.44562Z" fill="black"/>
<path fill-rule="evenodd" clip-rule="evenodd" d="M40.055 9.64062L40.1175 10.7812L40.055 10.875C40.0316 10.9062 39.2503 10.75 39.3519 11.3437C39.3519 11.5937 39.3519 11.6562 39.5238 11.7891C39.4847 11.6328 39.4925 11.5156 39.4925 11.5156C39.4925 11.5156 39.7191 11.6484 39.93 11.2812C39.7816 11.6406 39.8831 11.7734 39.9222 11.7813C39.9534 11.8438 39.8597 12.1328 40.1566 12.125C40.0394 12.0156 40.0941 11.8594 40.0941 11.8594C40.0941 11.8594 40.4066 11.8125 40.2972 11.2578C40.4066 11.1484 40.4534 11.2578 40.4534 11.2578C40.4534 11.2578 40.4847 11.5859 40.7581 11.5156C40.8753 11.5859 40.7347 11.7656 40.7347 11.7656C40.7347 11.7656 40.93 11.7656 40.9925 11.6094C41.0472 11.4375 41.1175 11.1406 40.7972 11.0156C40.7581 10.8984 40.9222 10.8906 40.9222 10.8906C40.9222 10.8906 41.1253 10.9609 41.1878 11.0625C41.2503 11.1641 41.2269 10.7969 40.9691 10.75C40.6566 10.75 40.6409 10.6797 40.6409 10.6719L40.5628 9.60156L40.055 9.64062Z" fill="#EF7D00"/>
<path fill-rule="evenodd" clip-rule="evenodd" d="M40.5883 9.57195C40.5962 9.57873 40.601 9.58836 40.6018 9.59872L40.6795 10.6638C40.6821 10.6664 40.6886 10.6717 40.7033 10.678C40.739 10.6934 40.8147 10.7109 40.969 10.7109C40.9714 10.7109 40.9737 10.7111 40.976 10.7116C41.1244 10.7385 41.2027 10.8573 41.2353 10.9488C41.2515 10.9941 41.2586 11.0385 41.255 11.0679C41.2541 11.0753 41.2521 11.0849 41.2473 11.0939C41.2424 11.1031 41.2309 11.1173 41.2102 11.1191C41.1919 11.1206 41.1786 11.1109 41.1723 11.1053C41.1652 11.0989 41.1594 11.0909 41.1545 11.083C41.1294 11.0421 41.0719 11.0033 41.0136 10.9732C40.9856 10.9587 40.9594 10.9472 40.9401 10.9394C40.9305 10.9354 40.9227 10.9324 40.9173 10.9304C40.9172 10.9304 40.9171 10.9303 40.9169 10.9303C40.9135 10.9307 40.909 10.9313 40.9038 10.9322C40.8909 10.9344 40.8752 10.9383 40.8613 10.9447C40.8471 10.9512 40.8384 10.9587 40.8341 10.9661C40.8317 10.9702 40.8294 10.9766 40.8305 10.9871C40.9062 11.0197 40.962 11.0626 41.0013 11.1129C41.0438 11.1673 41.0655 11.2283 41.0741 11.2895C41.0911 11.4103 41.0572 11.5349 41.0297 11.6212C41.0294 11.6221 41.0291 11.623 41.0288 11.6239C40.9917 11.7164 40.9155 11.7614 40.8529 11.783C40.8214 11.7939 40.7923 11.7993 40.7711 11.8019C40.7604 11.8033 40.7516 11.804 40.7454 11.8043C40.7422 11.8045 40.7397 11.8046 40.7379 11.8046L40.7357 11.8047L40.7351 11.8047L40.7348 11.8047H40.7347C40.7347 11.8047 40.7347 11.8047 40.7347 11.7656L40.7347 11.8047C40.7198 11.8047 40.7061 11.7962 40.6996 11.7827C40.693 11.7693 40.6947 11.7533 40.7039 11.7416C40.7039 11.7416 40.7039 11.7416 40.7039 11.7416M40.7039 11.7416L40.7041 11.7413L40.705 11.7401C40.7058 11.739 40.7071 11.7373 40.7087 11.735C40.712 11.7305 40.7166 11.7238 40.7218 11.7156C40.7324 11.6989 40.7448 11.6766 40.7538 11.6531C40.763 11.629 40.7673 11.6068 40.7651 11.5891C40.7637 11.5774 40.7595 11.5669 40.7496 11.5577C40.6815 11.5717 40.6244 11.5635 40.5776 11.5399C40.5273 11.5145 40.4928 11.4734 40.4693 11.4325C40.4459 11.3916 40.4323 11.349 40.4246 11.3172C40.4207 11.3012 40.4182 11.2876 40.4167 11.2778C40.4162 11.2747 40.4158 11.2719 40.4155 11.2696C40.4147 11.2683 40.4138 11.2668 40.4126 11.2651C40.4085 11.2594 40.4034 11.2542 40.3978 11.2512C40.3932 11.2487 40.3872 11.247 40.3775 11.2495C40.3691 11.2517 40.3564 11.2576 40.3396 11.2718C40.389 11.5428 40.3392 11.7003 40.2672 11.7909C40.2306 11.8369 40.1899 11.8635 40.1579 11.8787C40.1458 11.8844 40.135 11.8885 40.126 11.8914C40.1259 11.892 40.1258 11.8926 40.1256 11.8932C40.1228 11.9075 40.12 11.9275 40.1204 11.9504C40.1213 11.9961 40.1346 12.051 40.1832 12.0964C40.1948 12.1073 40.1987 12.124 40.1931 12.1388C40.1875 12.1537 40.1734 12.1636 40.1576 12.164C40.0772 12.1662 40.0173 12.1483 39.9746 12.1138C39.9319 12.0794 39.9116 12.0327 39.9016 11.988C39.8918 11.9438 39.8914 11.898 39.8912 11.8627L39.8912 11.8607C39.891 11.8432 39.8909 11.829 39.8901 11.8171C39.8899 11.814 39.8896 11.8113 39.8893 11.809C39.8754 11.7999 39.8632 11.7866 39.8535 11.7719C39.8371 11.7472 39.8237 11.713 39.8171 11.6688C39.8098 11.6192 39.811 11.5563 39.8268 11.4782C39.7607 11.5385 39.6958 11.5659 39.638 11.5747C39.5957 11.5812 39.5592 11.5774 39.5315 11.571C39.5317 11.5773 39.532 11.5841 39.5325 11.5914C39.5353 11.6383 39.5428 11.7042 39.5616 11.7796C39.5657 11.7957 39.559 11.8127 39.5451 11.8218C39.5312 11.8309 39.513 11.8301 39.4999 11.82C39.412 11.7521 39.3616 11.6974 39.3363 11.6229C39.3128 11.5533 39.3128 11.4694 39.3128 11.3509L39.3128 11.347C39.287 11.1919 39.3177 11.0787 39.3859 10.999C39.4532 10.9203 39.5518 10.8806 39.6485 10.8602C39.7456 10.8398 39.8458 10.8379 39.9215 10.8389C39.9413 10.8391 39.9584 10.8396 39.9736 10.8399C39.9888 10.8403 40.002 10.8406 40.0141 10.8407C40.0211 10.8407 40.0267 10.8407 40.031 10.8405L40.0778 10.7704L40.016 9.64276L40.055 9.64063L40.052 9.60168L40.5598 9.56262C40.5702 9.56182 40.5804 9.56518 40.5883 9.57195M40.0961 9.67664L40.1565 10.7791C40.157 10.7875 40.1547 10.7959 40.15 10.8029L40.0875 10.8967C40.0871 10.8973 40.0867 10.8979 40.0862 10.8984C40.0775 10.91 40.0655 10.9138 40.0617 10.9149C40.0562 10.9165 40.0506 10.9173 40.0461 10.9177C40.0369 10.9187 40.0256 10.9189 40.0137 10.9188C40.002 10.9188 39.9871 10.9184 39.9706 10.918C39.9548 10.9176 39.9376 10.9172 39.9204 10.917C39.8462 10.916 39.753 10.918 39.6646 10.9367C39.5757 10.9554 39.4966 10.9898 39.4453 11.0498C39.3953 11.1082 39.3664 11.1971 39.3904 11.3372C39.3907 11.3393 39.3909 11.3415 39.3909 11.3437C39.3909 11.4714 39.3914 11.5419 39.4103 11.5978C39.4204 11.6276 39.4362 11.6543 39.4634 11.6837C39.4587 11.6505 39.456 11.6209 39.4545 11.5961C39.4529 11.5707 39.4527 11.5503 39.4528 11.536C39.4529 11.5289 39.453 11.5233 39.4532 11.5194C39.4533 11.5175 39.4533 11.516 39.4534 11.5149L39.4535 11.5136L39.4535 11.5132L39.4535 11.5131C39.4535 11.5131 39.4535 11.513 39.4925 11.5156L39.4535 11.513C39.4544 11.4995 39.4622 11.4874 39.4742 11.4811C39.4861 11.4748 39.5004 11.4751 39.512 11.4818C39.512 11.4818 39.512 11.4818 39.512 11.4818M39.512 11.4818L39.513 11.4823C39.514 11.4829 39.5159 11.4838 39.5184 11.4849C39.5235 11.4871 39.5313 11.4902 39.5415 11.493C39.5618 11.4985 39.5912 11.5029 39.6262 11.4975C39.6945 11.4871 39.7949 11.438 39.8961 11.2618C39.9064 11.2439 39.9287 11.2371 39.9472 11.2462C39.9657 11.2553 39.974 11.2771 39.9661 11.2962C39.8935 11.4718 39.8841 11.5875 39.8944 11.6574C39.8996 11.6923 39.9096 11.7152 39.9186 11.7288C39.9263 11.7405 39.9317 11.7432 39.9316 11.7433C39.9316 11.7434 39.931 11.7432 39.9298 11.7429C39.9417 11.7453 39.9517 11.753 39.9571 11.7638C39.9647 11.779 39.9669 11.797 39.968 11.8115C39.9691 11.826 39.9692 11.8426 39.9693 11.859L39.9693 11.8622C39.9695 11.8984 39.9701 11.9361 39.9779 11.971C39.9855 12.0054 39.9994 12.0334 40.0236 12.053C40.0355 12.0626 40.0512 12.0712 40.0722 12.0772C40.0502 12.0336 40.043 11.9892 40.0423 11.9519C40.0417 11.9221 40.0453 11.8962 40.049 11.8778C40.0509 11.8685 40.0528 11.861 40.0543 11.8557C40.0551 11.853 40.0557 11.8509 40.0562 11.8493L40.0568 11.8474L40.0571 11.8468L40.0571 11.8466L40.0572 11.8465C40.0572 11.8465 40.0572 11.8465 40.094 11.8594L40.0572 11.8465C40.0619 11.833 40.0738 11.823 40.088 11.8208C40.088 11.8208 40.0881 11.8208 40.0881 11.8208C40.0882 11.8207 40.0884 11.8207 40.0887 11.8207C40.0889 11.8206 40.0891 11.8206 40.0894 11.8205C40.0909 11.8202 40.0933 11.8196 40.0966 11.8187C40.1031 11.8168 40.1128 11.8136 40.1245 11.8081C40.1476 11.7971 40.1782 11.7774 40.2061 11.7423C40.261 11.6732 40.3122 11.5358 40.2588 11.2654C40.2563 11.2526 40.2603 11.2394 40.2696 11.2302C40.2999 11.1999 40.3292 11.1813 40.3579 11.1739C40.3878 11.1661 40.414 11.1712 40.4348 11.1824C40.4546 11.1931 40.4681 11.2084 40.4762 11.2197C40.4804 11.2256 40.4835 11.2309 40.4856 11.2348C40.4867 11.2368 40.4875 11.2385 40.4881 11.2398L40.4889 11.2414L40.4891 11.242L40.4892 11.2422L40.4893 11.2423C40.4893 11.2424 40.4893 11.2424 40.4534 11.2578L40.4893 11.2424C40.4909 11.2461 40.4919 11.25 40.4923 11.254L40.4924 11.2545L40.4926 11.2567C40.4929 11.2587 40.4933 11.2617 40.4939 11.2657C40.4951 11.2737 40.4972 11.2851 40.5005 11.2988C40.5072 11.3263 40.5186 11.3613 40.5371 11.3937C40.5557 11.426 40.5803 11.4537 40.6127 11.4701C40.6445 11.4861 40.6878 11.4934 40.7484 11.4778C40.7585 11.4752 40.7692 11.4768 40.7782 11.4821C40.8184 11.5063 40.838 11.5416 40.8427 11.5796C40.8471 11.6153 40.8381 11.6513 40.8268 11.6809C40.8224 11.6925 40.8175 11.7036 40.8123 11.7139C40.8173 11.7125 40.8223 11.7109 40.8274 11.7092C40.8777 11.6918 40.93 11.659 40.9557 11.5961C40.9828 11.5108 41.011 11.4016 40.9968 11.3004C40.9897 11.2502 40.9724 11.2028 40.9397 11.161C40.9071 11.1193 40.8576 11.0811 40.783 11.052C40.7722 11.0478 40.7638 11.039 40.7601 11.028C40.7475 10.99 40.75 10.9557 40.7664 10.9272C40.7819 10.9002 40.8068 10.8838 40.8287 10.8737C40.851 10.8635 40.8739 10.8581 40.8905 10.8552C40.8989 10.8537 40.9061 10.8528 40.9113 10.8523C40.9139 10.8521 40.916 10.8519 40.9175 10.8518L40.9194 10.8517L40.92 10.8516L40.9202 10.8516L40.9203 10.8516C40.9203 10.8516 40.9203 10.8516 40.9222 10.8906C40.935 10.8537 40.935 10.8537 40.935 10.8537L40.9352 10.8538L40.9357 10.854L40.9377 10.8547C40.9393 10.8553 40.9417 10.8561 40.9447 10.8573C40.9507 10.8595 40.9592 10.8628 40.9697 10.867C40.9904 10.8755 41.0189 10.888 41.0495 10.9038C41.0851 10.9222 41.1267 10.9467 41.1623 10.9766C41.1621 10.976 41.1619 10.9755 41.1617 10.975C41.1341 10.8974 41.0728 10.8101 40.9654 10.7891C40.8096 10.7888 40.7222 10.7713 40.6723 10.7497C40.623 10.7284 40.6029 10.6991 40.6019 10.6738L40.5267 9.64352L40.0961 9.67664M41.1772 11.06C41.1772 11.06 41.1772 11.06 41.1772 11.0599L41.1772 11.06ZM40.9222 10.8906L40.935 10.8537C40.9303 10.8521 40.9253 10.8514 40.9203 10.8516L40.9222 10.8906ZM40.4177 11.2736L40.4176 11.2735C40.4177 11.2736 40.4177 11.2736 40.4177 11.2736ZM40.0882 11.8208C40.0882 11.8208 40.0882 11.8208 40.0882 11.8208V11.8208ZM40.678 10.6619C40.678 10.6619 40.6782 10.6621 40.6784 10.6625C40.6781 10.6621 40.678 10.6619 40.678 10.6619Z" fill="black"/>
<path fill-rule="evenodd" clip-rule="evenodd" d="M41.1408 10.609C41.1408 10.5544 40.6095 9.83561 40.7501 9.74967C40.8829 9.77311 41.1017 10.1012 41.2892 9.99186C41.2345 9.86686 41.0704 9.93717 40.8908 9.60905C40.7033 9.23405 40.6798 8.67936 40.0314 8.0778C40.4533 8.71842 41.3908 9.09342 41.4376 8.90592C41.4845 8.71842 40.6017 8.0153 40.6486 7.84342C40.8204 8.18717 41.6954 8.96842 42.3361 8.90592C42.3829 8.74967 41.8126 8.4528 41.6642 8.17155C41.2501 7.8903 40.1486 6.94499 40.1329 6.72624C39.9391 6.39672 39.675 6.11397 39.3595 5.89811C39.3305 5.85819 39.3093 5.81312 39.297 5.7653C39.047 5.17936 39.3751 4.98405 39.5704 4.96061C39.7267 4.93717 39.7736 4.96061 39.8829 4.90592L39.4845 4.74967C39.6642 4.88249 40.1095 4.7653 40.0158 5.1403C40.2111 5.06217 40.6329 4.56217 39.5392 4.4528C39.1798 4.04655 37.7189 3.81217 37.3517 5.59342C37.3829 5.61686 37.3986 5.6403 37.4923 5.7028C37.0236 5.48405 35.7814 5.31217 35.3361 5.23405C34.1173 4.8903 32.8595 4.04655 32.7423 4.14811C32.5861 4.22624 33.4767 5.05436 33.4298 5.06999C32.735 4.67432 32.0176 4.31955 31.2814 4.00749C30.8126 3.83561 30.3517 3.42936 30.3048 3.50749C30.1329 3.85905 31.047 4.74967 31.2189 4.85124C31.3908 4.9528 32.7267 5.5778 32.7033 5.58561C30.6876 4.67155 30.3595 4.49967 30.2501 4.39811C30.0704 4.35905 29.6408 3.77311 29.5236 3.81217C29.4533 3.87467 29.5861 4.79655 30.547 5.21842C30.7033 5.3278 32.6095 6.00749 32.5939 6.06217C32.5939 6.0778 30.4064 5.16374 30.3283 5.12467C29.9064 4.96842 29.3908 4.3903 29.297 4.4528C29.2033 4.5153 29.5314 5.1403 29.9533 5.33561C30.1798 5.42936 31.0314 5.85124 31.797 6.11686C31.8439 6.1403 30.4142 5.5778 29.7267 5.29655C29.4142 5.12467 29.2736 4.90592 29.2267 4.9528C29.1486 4.99967 29.3361 5.92155 31.547 6.43717C31.6017 6.46842 32.3283 6.27311 32.2892 6.29655C31.8834 6.39855 31.4709 6.47165 31.0548 6.5153C31.0314 6.5778 31.1954 6.90592 32.3361 6.84342C32.4767 6.83561 33.2736 6.55436 33.2033 6.60905C32.8238 6.75386 32.4379 6.8816 32.047 6.99186C31.9767 6.99186 31.6095 7.03874 31.5939 7.06999C31.5783 7.13249 31.8673 7.36686 32.4767 7.39811C33.0236 7.42936 34.0548 7.06999 34.0392 7.09342C34.0079 7.11686 33.0392 7.4528 33.0158 7.46842C32.9767 7.49186 32.6251 7.50749 32.6095 7.53874C32.5783 7.60905 33.1251 8.11686 34.7267 7.56999C34.5704 7.78874 33.7892 7.93717 33.7892 7.97624C33.7892 8.00749 33.9611 8.17155 34.2345 8.23405C34.3673 8.2653 34.5548 8.25749 34.7267 8.23405C35.0392 8.17155 35.3517 8.05436 35.7658 7.67155C35.8126 7.78874 34.7423 8.33561 34.7892 8.38249C35.0236 8.60124 35.797 8.35905 35.8439 8.3278C35.8986 8.30436 37.3283 7.49186 37.3283 7.3903C37.3517 7.5153 35.4767 8.53874 35.5001 8.5778C35.6173 8.7653 36.2579 8.56999 36.2814 8.54655L37.1251 8.09342C37.1486 8.08561 36.2033 8.6403 36.2814 8.73405C36.2423 9.10124 37.7658 8.48405 37.8829 8.40592C37.9376 8.36686 37.1486 8.74967 37.1486 8.92936C37.4064 9.35905 38.2189 9.22624 38.3439 9.13249C38.4064 9.08561 38.2658 9.44499 38.3126 9.41374C38.4087 9.31541 38.4879 9.2019 38.547 9.0778C38.5314 9.2028 38.4376 9.3903 38.3908 9.60905C38.3361 9.81999 38.3204 10.07 38.2501 10.3278C38.2345 10.4372 38.7501 10.1012 38.672 9.29655C38.7189 9.71842 38.5158 10.4997 38.5704 10.5465C38.672 10.6247 38.9767 10.1559 39.0079 9.83561C39.0939 9.99186 39.2814 10.3278 39.4454 10.4059C39.4298 10.1637 39.4454 10.1715 39.3673 9.93717C39.4142 9.61686 39.422 9.17936 39.4298 8.67936C39.8673 9.5153 40.047 9.87467 39.922 10.5153C40.0548 10.57 40.2579 10.0622 40.2423 9.81217C40.2912 10.0217 40.4038 10.2108 40.5648 10.3536C40.7257 10.4963 40.9269 10.5856 41.1408 10.609Z" fill="#EF7D00"/>
<path fill-rule="evenodd" clip-rule="evenodd" d="M30.6578 3.62772C30.838 3.74129 31.0667 3.88333 31.2962 3.96747C31.2968 3.96771 31.2975 3.96798 31.2982 3.96825C31.9664 4.25151 32.6192 4.56988 33.2537 4.92202C33.2362 4.9032 33.2177 4.88325 33.1983 4.86247C33.1406 4.80059 33.076 4.73124 33.0131 4.66159C32.9145 4.55215 32.8175 4.43896 32.755 4.3475C32.7241 4.30235 32.6992 4.25913 32.6879 4.22251C32.6822 4.2043 32.6786 4.18345 32.6827 4.16307C32.6869 4.14179 32.6992 4.12372 32.7186 4.11242C32.7378 4.09841 32.7611 4.09641 32.7792 4.09719C32.8001 4.09809 32.8241 4.10317 32.8495 4.1106C32.9006 4.12554 32.9665 4.1526 33.0435 4.18785C33.1578 4.24013 33.3013 4.31255 33.4654 4.39539C33.523 4.42445 33.5831 4.45479 33.6454 4.486C34.1262 4.7269 34.7412 5.02168 35.3456 5.19243C35.4201 5.20548 35.5177 5.22127 35.6304 5.23953C35.8521 5.27544 36.1328 5.3209 36.4134 5.37379C36.7365 5.43471 37.065 5.5064 37.3093 5.58667C37.3094 5.58614 37.3095 5.58561 37.3096 5.58508C37.4959 4.68148 37.9629 4.27943 38.438 4.16142C38.6738 4.10286 38.9089 4.11501 39.1084 4.16794C39.2994 4.21862 39.4614 4.3077 39.5599 4.41205C39.8268 4.44007 40.0074 4.49193 40.1238 4.55839C40.2441 4.62702 40.2995 4.71384 40.3038 4.80662C40.3079 4.89598 40.2638 4.97952 40.2104 5.04323C40.1569 5.10713 40.0883 5.15787 40.0317 5.18052C40.0167 5.18651 39.9997 5.18361 39.9875 5.173C39.9753 5.16239 39.9702 5.14586 39.9741 5.1302C39.9958 5.04332 39.984 4.99488 39.9626 4.96508C39.9523 4.9506 39.9381 4.93828 39.9202 4.92761C39.9161 4.93481 39.9099 4.94082 39.9022 4.94468C39.8418 4.97488 39.7973 4.98384 39.748 4.98812C39.7329 4.98943 39.7182 4.9903 39.7027 4.9912C39.668 4.99324 39.6299 4.99548 39.5768 5.00343L39.5756 5.0036C39.4871 5.01422 39.3701 5.06389 39.3036 5.17449C39.238 5.2835 39.2147 5.46321 39.3365 5.74876C39.3374 5.75077 39.3381 5.75284 39.3386 5.75496C39.3489 5.7952 39.3664 5.83325 39.3901 5.86732C39.708 6.08618 39.9742 6.37202 40.17 6.70478C40.1733 6.71049 40.1753 6.71689 40.1758 6.7235C40.1762 6.72957 40.179 6.74053 40.187 6.75732C40.1947 6.77363 40.2063 6.79312 40.2217 6.81565C40.2526 6.86073 40.2971 6.91509 40.3524 6.97631C40.463 7.09859 40.614 7.24499 40.778 7.39397C41.1064 7.69213 41.4836 7.9973 41.6883 8.13633C41.6942 8.14028 41.6989 8.1456 41.7022 8.15182C41.736 8.2158 41.7953 8.28321 41.868 8.35213C41.9328 8.41359 42.0056 8.47399 42.0763 8.53255C42.0845 8.53935 42.0927 8.54613 42.1008 8.55288C42.1779 8.61691 42.2519 8.6794 42.3036 8.73626C42.3294 8.7647 42.3515 8.79373 42.3654 8.8227C42.3794 8.85169 42.3873 8.88498 42.3772 8.9186C42.3722 8.9353 42.3576 8.94732 42.3402 8.94902C42.0035 8.98187 41.6135 8.79398 41.2914 8.56222C41.2807 8.55448 41.27 8.54668 41.2594 8.53883C41.2965 8.58042 41.3311 8.62069 41.3612 8.65858C41.3995 8.70687 41.4319 8.75287 41.4534 8.79394C41.4736 8.8327 41.4893 8.87675 41.4793 8.91667C41.4679 8.96247 41.4293 8.98463 41.3898 8.99284C41.3509 9.00094 41.3024 8.99811 41.2496 8.98829C41.143 8.96847 41.0041 8.91726 40.8555 8.84096C40.7557 8.78971 40.6502 8.72653 40.5461 8.65277C40.6719 8.87497 40.7421 9.08241 40.8034 9.26372C40.8445 9.38514 40.8816 9.49484 40.9288 9.58942C41.0145 9.74569 41.0944 9.80423 41.1577 9.83939C41.1723 9.84749 41.1861 9.85441 41.2 9.86134L41.2057 9.86425C41.2211 9.87196 41.237 9.88008 41.2518 9.88931C41.2828 9.90856 41.3104 9.93357 41.3286 9.97497C41.3373 9.99495 41.3297 10.0183 41.3108 10.0293C41.2509 10.0642 41.1889 10.0632 41.1314 10.0447C41.0754 10.0267 41.0216 9.99159 40.9733 9.95523C40.9489 9.93684 40.925 9.9175 40.9024 9.89906C40.8796 9.88042 40.8583 9.86288 40.8378 9.84719C40.8103 9.82605 40.7878 9.81099 40.7694 9.80192C40.7694 9.80367 40.7694 9.8056 40.7695 9.80772C40.7703 9.82884 40.7776 9.8591 40.7921 9.8978C40.8207 9.97446 40.8724 10.0714 40.9298 10.1697C40.9766 10.2498 41.0262 10.3291 41.0689 10.3973C41.0785 10.4126 41.0877 10.4273 41.0964 10.4414C41.1202 10.4795 41.1408 10.5131 41.1556 10.539C41.1629 10.5519 41.1692 10.5637 41.1738 10.5735C41.1761 10.5784 41.1783 10.5836 41.1799 10.5886C41.1813 10.5928 41.1837 10.6005 41.1837 10.6094H41.1408L41.1361 10.6521C40.9134 10.6276 40.7038 10.5347 40.5362 10.386C40.4201 10.283 40.3282 10.1569 40.2657 10.0165C40.2462 10.1106 40.2144 10.2095 40.1773 10.2954C40.1438 10.3729 40.1044 10.4434 40.0629 10.4919C40.0423 10.516 40.0192 10.5371 39.9938 10.5498C39.9675 10.563 39.9366 10.5681 39.9056 10.5554C39.8867 10.5476 39.8759 10.5275 39.8798 10.5074C39.9411 10.1936 39.9276 9.95073 39.8458 9.68347C39.7734 9.44705 39.6476 9.19128 39.47 8.8496C39.4628 9.27379 39.452 9.64824 39.4113 9.93359C39.4481 10.0446 39.4642 10.1029 39.4724 10.1632C39.4775 10.201 39.4795 10.2403 39.4822 10.2941C39.4838 10.325 39.4856 10.3606 39.4883 10.4035C39.4893 10.4187 39.4822 10.4333 39.4695 10.4418C39.4569 10.4504 39.4407 10.4516 39.427 10.445C39.3789 10.4222 39.3321 10.3821 39.2886 10.3355C39.2446 10.2885 39.2018 10.2324 39.162 10.1748C39.1123 10.1027 39.0666 10.027 39.0288 9.96119C38.9936 10.1002 38.9249 10.2477 38.8519 10.3637C38.8045 10.4391 38.7533 10.5043 38.7056 10.5461C38.6819 10.5668 38.6565 10.5842 38.6306 10.5927C38.6035 10.6016 38.5715 10.6019 38.5442 10.5809C38.5436 10.5805 38.5431 10.58 38.5425 10.5795C38.527 10.5663 38.5226 10.5473 38.5208 10.5374C38.5186 10.5252 38.5179 10.5111 38.5181 10.4966C38.5183 10.4674 38.5218 10.4294 38.5272 10.3859C38.5348 10.3241 38.5465 10.2476 38.5595 10.1634C38.5626 10.1426 38.5659 10.1215 38.5692 10.0999C38.5532 10.1286 38.5367 10.1552 38.5199 10.1796C38.4589 10.2686 38.3945 10.33 38.3436 10.3625C38.3197 10.3778 38.2928 10.3906 38.268 10.3912C38.2547 10.3915 38.2351 10.3882 38.2207 10.3715C38.2064 10.3551 38.2057 10.3353 38.2076 10.322C38.2077 10.3211 38.2079 10.3202 38.2081 10.3192C38.2083 10.3184 38.2085 10.3176 38.2087 10.3168C38.2432 10.1903 38.2644 10.0654 38.2839 9.94433C38.2855 9.93432 38.2871 9.92432 38.2887 9.91435C38.3063 9.80489 38.3234 9.69814 38.3489 9.59948C38.3671 9.51486 38.3921 9.43502 38.4166 9.36248C38.3934 9.39067 38.369 9.4179 38.3434 9.44409C38.3413 9.44623 38.339 9.44815 38.3365 9.44982C38.3314 9.45319 38.309 9.467 38.2844 9.45272C38.2732 9.44621 38.2674 9.43673 38.2646 9.43028C38.2619 9.4239 38.2608 9.41793 38.2604 9.41386C38.2588 9.39962 38.2617 9.38214 38.2644 9.36842C38.2696 9.34197 38.2792 9.30635 38.2885 9.27184C38.2899 9.26667 38.2912 9.26153 38.2926 9.25644C38.2981 9.23615 38.3031 9.21687 38.3072 9.19975C38.2988 9.20306 38.2901 9.20625 38.281 9.20932C38.2441 9.22183 38.1992 9.23349 38.1488 9.24324C38.0481 9.26273 37.9235 9.275 37.7945 9.27048C37.5398 9.26156 37.2524 9.18618 37.1117 8.9518C37.1077 8.94512 37.1056 8.93748 37.1056 8.92969C37.1056 8.89265 37.1252 8.85749 37.1485 8.82762C37.1726 8.79656 37.2059 8.76475 37.2436 8.73351C37.2594 8.72041 37.2763 8.70721 37.2939 8.69402C37.2097 8.72349 37.1224 8.7523 37.036 8.77843C36.8401 8.83768 36.6456 8.88417 36.501 8.89191C36.4296 8.89573 36.3639 8.89059 36.3157 8.86772C36.2908 8.85586 36.2688 8.83843 36.2544 8.81357C36.2422 8.79242 36.2371 8.76867 36.2377 8.7436C36.2321 8.72824 36.2333 8.71248 36.2369 8.69986C36.2417 8.68315 36.2515 8.66739 36.262 8.65362C36.2832 8.62559 36.3166 8.59379 36.3559 8.56076C36.3616 8.55598 36.3674 8.55113 36.3734 8.54622L36.3048 8.58307C36.302 8.58506 36.2995 8.58643 36.2982 8.58717C36.2948 8.58904 36.2911 8.5908 36.2875 8.59241C36.2802 8.59566 36.271 8.59926 36.2605 8.60305C36.2394 8.61068 36.211 8.61979 36.1777 8.62932C36.1112 8.64838 36.0236 8.66955 35.9327 8.68404C35.8422 8.69844 35.7463 8.70662 35.6641 8.6984C35.5844 8.69043 35.5042 8.6657 35.4637 8.6009L35.4633 8.60024L35.4633 8.60023C35.4511 8.57988 35.4597 8.56081 35.462 8.55624C35.4653 8.54983 35.4694 8.54505 35.4719 8.54243C35.4772 8.53671 35.484 8.531 35.4907 8.5258C35.5046 8.515 35.5247 8.50114 35.5494 8.48503C35.5666 8.4738 35.5865 8.46119 35.6087 8.44735C35.5434 8.46351 35.4699 8.47927 35.3937 8.49163C35.2778 8.51046 35.154 8.52171 35.0432 8.51381C34.9338 8.50601 34.8293 8.47904 34.7599 8.41423C34.7595 8.41389 34.7592 8.41355 34.7588 8.4132C34.7437 8.39808 34.743 8.37882 34.7465 8.36582C34.7494 8.35498 34.7554 8.34662 34.7593 8.34166C34.7677 8.33106 34.78 8.32024 34.7928 8.31001C34.8174 8.29045 34.8529 8.26617 34.895 8.23896C34.8414 8.25369 34.7883 8.26588 34.7351 8.27651C34.7343 8.27668 34.7334 8.27683 34.7325 8.27695C34.5594 8.30055 34.3656 8.30932 34.2248 8.27623C34.0822 8.24362 33.966 8.18456 33.8851 8.12922C33.8446 8.10157 33.8123 8.07443 33.7897 8.05135C33.7784 8.03989 33.7688 8.02873 33.7617 8.01842C33.7582 8.01329 33.7547 8.00761 33.752 8.00162C33.7496 7.99629 33.7462 7.98733 33.7462 7.97656C33.7462 7.95755 33.7575 7.94561 33.7616 7.94168C33.7668 7.93666 33.7725 7.93305 33.7767 7.93064C33.7855 7.92566 33.7964 7.92101 33.8078 7.91669C33.8311 7.90787 33.8635 7.89762 33.9013 7.88623C33.9236 7.8795 33.948 7.8723 33.974 7.86462C34.0374 7.84592 34.1104 7.82439 34.1862 7.79993C34.2766 7.77073 34.3695 7.73785 34.4522 7.70167C33.8025 7.88771 33.3472 7.88894 33.0473 7.82825C32.8762 7.79362 32.7551 7.73873 32.6777 7.68603C32.6392 7.65982 32.6104 7.6334 32.5918 7.60928C32.5826 7.59733 32.5748 7.58458 32.5701 7.57156C32.5658 7.55964 32.5618 7.54071 32.5702 7.52161C32.5705 7.52102 32.5708 7.52043 32.5711 7.51985C32.5783 7.50544 32.5907 7.49827 32.596 7.49547C32.6028 7.49182 32.6103 7.4891 32.6171 7.48699C32.631 7.4827 32.6483 7.47907 32.6667 7.47586C32.7039 7.46938 32.7518 7.46364 32.799 7.45828C32.8095 7.45709 32.8199 7.45592 32.8303 7.45477C32.8671 7.45064 32.9025 7.44669 32.9322 7.44265C32.9512 7.44007 32.9671 7.43757 32.9791 7.43512C32.9904 7.43283 32.9944 7.43128 32.9944 7.4314C32.9944 7.43144 32.9942 7.4316 32.9936 7.43191L33.0158 7.46875L32.9919 7.433C32.9964 7.42999 33.0018 7.4277 33.0036 7.42695C33.0067 7.42559 33.0106 7.42401 33.0149 7.42227C33.0237 7.41879 33.0357 7.41424 33.0502 7.40885C33.0792 7.39803 33.1193 7.38347 33.1666 7.36643C33.1718 7.36455 33.1771 7.36265 33.1825 7.36071C32.933 7.41384 32.6736 7.45271 32.4744 7.44134C32.1647 7.42545 31.9345 7.35787 31.7823 7.28483C31.7064 7.2484 31.6489 7.21013 31.6107 7.17537C31.5916 7.1581 31.5761 7.14059 31.5657 7.12346C31.5563 7.1081 31.546 7.08483 31.5522 7.05989C31.553 7.05685 31.554 7.0539 31.5554 7.0511C31.5624 7.03719 31.5744 7.02989 31.5793 7.02708C31.5859 7.02327 31.5932 7.02018 31.6002 7.01763C31.6143 7.01247 31.6321 7.00762 31.6516 7.00308C31.6909 6.99392 31.7418 6.98493 31.7935 6.97705C31.8908 6.96222 31.9971 6.95043 32.0407 6.94931C32.1075 6.93044 32.1742 6.91106 32.2407 6.89116C31.7264 6.9103 31.4197 6.84677 31.2412 6.76569C31.1462 6.72256 31.086 6.67378 31.0508 6.62838C31.0332 6.60572 31.0215 6.58338 31.0152 6.56263C31.0093 6.54298 31.0071 6.52054 31.0146 6.50054C31.0203 6.48529 31.0341 6.47459 31.0503 6.47289C31.1528 6.46215 31.255 6.44961 31.3569 6.43529C30.3604 6.18036 29.8016 5.8412 29.4987 5.55054C29.3384 5.3967 29.2493 5.25608 29.2056 5.14852C29.1838 5.09496 29.1727 5.04847 29.1704 5.01197C29.1692 4.99386 29.1701 4.97653 29.1739 4.96137C29.1771 4.94886 29.1839 4.93126 29.1998 4.91947C29.2172 4.90431 29.2386 4.90143 29.2574 4.90529C29.2748 4.90885 29.291 4.91808 29.3046 4.92725C29.3298 4.94421 29.3608 4.97141 29.3955 5.00194C29.3988 5.00483 29.4021 5.00774 29.4054 5.01068C29.4847 5.08029 29.5944 5.17477 29.7453 5.25805C29.7463 5.25846 29.7473 5.25887 29.7483 5.25929C29.6063 5.14925 29.4841 5.00354 29.3958 4.86822C29.333 4.77197 29.2857 4.67865 29.26 4.60391C29.2473 4.56686 29.2391 4.532 29.238 4.5025C29.2371 4.47584 29.2417 4.43834 29.2732 4.41737C29.2897 4.40633 29.308 4.40445 29.3234 4.40587C29.3385 4.40728 29.3536 4.4121 29.3677 4.41808C29.3959 4.43004 29.4284 4.45024 29.4631 4.47461C29.5225 4.51639 29.5954 4.57546 29.6751 4.64004C29.6888 4.65109 29.7026 4.6623 29.7166 4.67361C29.7759 4.72151 29.8383 4.77139 29.9022 4.81972C29.7725 4.68135 29.6776 4.53597 29.6101 4.39997C29.536 4.25086 29.4947 4.11261 29.4763 4.00658C29.4672 3.9537 29.4636 3.90779 29.465 3.87193C29.4657 3.85409 29.4676 3.83749 29.4713 3.82322C29.4746 3.81048 29.4809 3.79295 29.495 3.78039C29.4994 3.77652 29.5045 3.77358 29.51 3.77174C29.5426 3.76087 29.5762 3.77367 29.6012 3.7869C29.6285 3.80136 29.6583 3.82346 29.6889 3.84918C29.7503 3.90078 29.8221 3.97315 29.894 4.04599C29.8974 4.04945 29.9008 4.05292 29.9042 4.05638C29.9735 4.12659 30.0428 4.19688 30.1058 4.25278C30.1388 4.28206 30.1692 4.30663 30.1962 4.32482C30.2238 4.34347 30.2448 4.3533 30.2593 4.35645C30.2668 4.35809 30.2737 4.36171 30.2794 4.36695C30.3285 4.41258 30.4316 4.47827 30.7807 4.6489C30.8615 4.68839 30.9553 4.7334 31.0642 4.78497C31.0292 4.75427 30.9904 4.71853 30.9496 4.67914C30.8414 4.57488 30.7152 4.4418 30.5997 4.30065C30.4845 4.15983 30.3785 4.00931 30.3122 3.87032C30.2473 3.73433 30.2138 3.59606 30.2662 3.48894C30.2668 3.48784 30.2673 3.48676 30.268 3.48571C30.2895 3.44977 30.3298 3.45335 30.3503 3.45786C30.3741 3.46311 30.402 3.47551 30.4311 3.49071C30.4859 3.51928 30.5575 3.56441 30.6385 3.61554C30.6449 3.61956 30.6513 3.62362 30.6578 3.62772ZM31.213 5.45214C30.962 5.34736 30.7298 5.2499 30.569 5.18183C30.5675 5.18092 30.5659 5.18012 30.5643 5.17941C30.0944 4.9731 29.8278 4.64512 29.6871 4.36175C29.6166 4.21985 29.5779 4.08954 29.561 3.99196C29.5526 3.94303 29.5498 3.90337 29.5509 3.8752C29.5511 3.86881 29.5516 3.86325 29.5521 3.85851C29.5547 3.85965 29.5576 3.86107 29.5609 3.86282C29.5803 3.87308 29.6047 3.89065 29.6336 3.91498C29.6913 3.96348 29.7602 4.03271 29.8328 4.10635C29.8365 4.11007 29.8402 4.1138 29.8439 4.11754C29.9124 4.18701 29.9836 4.25919 30.0488 4.31705C30.0831 4.34758 30.1167 4.37489 30.1481 4.39606C30.1748 4.4141 30.2024 4.42934 30.2291 4.43735C30.2917 4.49225 30.4119 4.56428 30.743 4.72611C31.0913 4.89634 31.6777 5.16806 32.6855 5.62507C32.6954 5.62955 32.7066 5.63013 32.7168 5.6267C32.7254 5.62384 32.7431 5.61409 32.7461 5.5914C32.7484 5.57477 32.7404 5.56314 32.7388 5.56082L32.7388 5.56079C32.7345 5.55448 32.7291 5.55044 32.7278 5.54943L32.7277 5.54933C32.7236 5.54621 32.7186 5.54311 32.7142 5.5405C32.7046 5.53486 32.6905 5.52727 32.6731 5.5182C32.638 5.49992 32.5867 5.47428 32.5243 5.44362C32.3995 5.38225 32.2292 5.30013 32.053 5.2152C31.6989 5.04453 31.3246 4.86413 31.2407 4.81457C31.2026 4.79206 31.1166 4.72073 31.0092 4.61725C30.903 4.51496 30.7792 4.38437 30.6662 4.24623C30.5529 4.10775 30.4518 3.96335 30.3897 3.8333C30.3311 3.71038 30.3126 3.6115 30.3366 3.54301C30.3489 3.54651 30.3669 3.55413 30.3914 3.56691C30.4429 3.59376 30.5115 3.63701 30.5942 3.68918C30.6 3.69288 30.606 3.69663 30.612 3.70041C30.791 3.81324 31.0266 3.96001 31.2656 4.04779C31.9999 4.35909 32.7155 4.71298 33.4086 5.10765C33.4192 5.11369 33.4318 5.11494 33.4434 5.11108C33.4544 5.10741 33.4649 5.09921 33.4706 5.08645C33.4755 5.07546 33.4748 5.06543 33.474 5.06011C33.4725 5.04996 33.468 5.0415 33.4655 5.03716C33.4598 5.02691 33.4508 5.01485 33.4408 5.00247C33.4202 4.97696 33.389 4.94209 33.3518 4.9016C33.3243 4.87156 33.2932 4.83828 33.2601 4.80279C33.2029 4.74138 33.1395 4.67335 33.077 4.60404C32.9784 4.49473 32.8849 4.38526 32.8259 4.29898C32.796 4.25526 32.7773 4.22085 32.77 4.19717C32.7683 4.19157 32.7674 4.18729 32.7671 4.18419C32.767 4.18399 32.767 4.1838 32.767 4.18362C32.7672 4.18351 32.7673 4.18339 32.7675 4.18328C32.7688 4.18309 32.7713 4.18287 32.7755 4.18305C32.7865 4.18352 32.8028 4.18649 32.8254 4.19309C32.8702 4.20619 32.9314 4.23107 33.0078 4.266C33.1204 4.31754 33.2617 4.38883 33.4252 4.47137C33.483 4.50057 33.5437 4.53119 33.6069 4.56283C34.0884 4.80407 34.7107 5.10264 35.3244 5.27573C35.3258 5.27612 35.3272 5.27645 35.3286 5.2767C35.4054 5.29017 35.5049 5.30627 35.6194 5.32482C35.8404 5.3606 36.1176 5.40548 36.3974 5.45824C36.8232 5.53849 37.2455 5.63536 37.4741 5.74206C37.4945 5.75157 37.5188 5.74377 37.5298 5.72419C37.5408 5.7046 37.5348 5.67984 37.5162 5.66737C37.4705 5.63696 37.4445 5.61647 37.4264 5.60105C37.4209 5.59636 37.4154 5.59151 37.4099 5.58665C37.4063 5.58345 37.4027 5.58025 37.3991 5.5771C37.5833 4.71761 38.0259 4.35233 38.4587 4.24483C38.679 4.19011 38.8994 4.2014 39.0864 4.25101C39.2742 4.30084 39.4244 4.38823 39.507 4.4816C39.5142 4.4897 39.5241 4.4948 39.5349 4.49588C39.8058 4.52297 39.9776 4.57388 40.0812 4.63302C40.1834 4.69134 40.2154 4.75491 40.218 4.81057C40.2207 4.86965 40.191 4.93259 40.1446 4.98803C40.1218 5.01523 40.0963 5.03899 40.0714 5.05806C40.0732 5.00096 40.0601 4.95363 40.0325 4.91505C39.9924 4.85898 39.9279 4.83094 39.8643 4.81312C39.8223 4.80138 39.7748 4.79272 39.7296 4.78448C39.7072 4.78041 39.6854 4.77644 39.6652 4.77225C39.6606 4.7713 39.656 4.77033 39.6515 4.76935L39.5002 4.71C39.4801 4.70213 39.4573 4.71034 39.4469 4.72921C39.4365 4.74807 39.4416 4.77174 39.459 4.78456C39.5064 4.81958 39.567 4.83846 39.6264 4.85181L39.7527 4.90132C39.7487 4.90176 39.7447 4.90215 39.7405 4.90251C39.7289 4.90352 39.7161 4.90427 39.7019 4.90512C39.6661 4.90723 39.6214 4.90988 39.5647 4.91835C39.4579 4.93134 39.3136 4.99108 39.2299 5.1302C39.1454 5.27072 39.1294 5.48072 39.2562 5.77953C39.2699 5.83141 39.2932 5.8803 39.3248 5.92371C39.3276 5.92768 39.3312 5.93113 39.3352 5.9339C39.6431 6.14453 39.9012 6.41991 40.0914 6.74072C40.0943 6.7585 40.101 6.77663 40.1094 6.79419C40.1197 6.8159 40.1338 6.83942 40.1508 6.86422C40.1848 6.91381 40.2321 6.97139 40.2887 7.03395C40.402 7.15922 40.5552 7.30775 40.7203 7.45759C41.0456 7.753 41.4203 8.05681 41.6314 8.20151C41.6723 8.27484 41.7374 8.3467 41.8088 8.41448C41.8758 8.47806 41.951 8.54037 42.0214 8.59866C42.0296 8.6055 42.0378 8.61228 42.0459 8.619C42.1241 8.68388 42.1931 8.74247 42.2399 8.79402C42.2633 8.81978 42.2792 8.84177 42.288 8.86004C42.2891 8.86223 42.29 8.8643 42.2908 8.86627C41.9952 8.87772 41.6459 8.71142 41.3416 8.49247C41.1836 8.37875 41.04 8.25252 40.9256 8.13376C40.8106 8.01439 40.7271 7.90477 40.687 7.82453C40.679 7.8086 40.6621 7.79924 40.6443 7.80099C40.6266 7.80275 40.6118 7.81526 40.6071 7.83245C40.6015 7.85307 40.6037 7.87411 40.6087 7.89296C40.6137 7.91203 40.6224 7.93178 40.6332 7.95156C40.6546 7.99106 40.687 8.03575 40.7253 8.08298C40.7992 8.17414 40.9002 8.28076 41.0006 8.38671L41.0119 8.39869C41.1167 8.50941 41.2198 8.61881 41.2939 8.71203C41.331 8.75871 41.3595 8.79974 41.3772 8.83368C41.3961 8.86994 41.3977 8.88888 41.3959 8.89583L41.3959 8.89595C41.3956 8.89735 41.394 8.90419 41.3723 8.90871C41.3493 8.91349 41.3136 8.91278 41.2653 8.9038C41.1698 8.88603 41.0391 8.8386 40.8948 8.76451C40.7355 8.68274 40.5626 8.57011 40.4051 8.4331C40.314 8.30698 40.2017 8.17753 40.0606 8.04663C40.0447 8.03184 40.0202 8.03129 40.0036 8.04533C39.987 8.05938 39.9835 8.0836 39.9955 8.10176C40.0912 8.24708 40.2124 8.37867 40.3436 8.49345C40.5472 8.77773 40.6364 9.04173 40.7154 9.2753C40.7585 9.40266 40.7985 9.52097 40.8523 9.62859C40.8524 9.62878 40.8525 9.62896 40.8526 9.62914C40.8528 9.62943 40.8529 9.62972 40.8531 9.63001C40.9469 9.80135 41.0387 9.8716 41.116 9.91452C41.1345 9.92483 41.1521 9.93348 41.1672 9.94105C41.1827 9.94884 41.1954 9.95537 41.2064 9.96226C41.211 9.96512 41.2152 9.96798 41.2191 9.97094C41.1997 9.97279 41.1794 9.96986 41.1577 9.96288C41.1158 9.9494 41.0714 9.92149 41.025 9.88657C41.0021 9.86931 40.9794 9.85094 40.9568 9.83248L40.9501 9.82705C40.93 9.81057 40.9097 9.79404 40.8902 9.77904C40.8488 9.74724 40.8025 9.71561 40.7576 9.70769C40.7473 9.70587 40.7367 9.70788 40.7277 9.71334C40.6905 9.73607 40.6823 9.7767 40.6836 9.811C40.6849 9.84584 40.696 9.88627 40.7116 9.92789C40.743 10.0119 40.7978 10.1141 40.8556 10.2131C40.9031 10.2944 40.9536 10.3751 40.9963 10.4434C41.0058 10.4585 41.0149 10.473 41.0235 10.4868C41.0393 10.5122 41.0533 10.535 41.065 10.5545C40.8902 10.5207 40.7272 10.4405 40.5933 10.3217C40.439 10.1849 40.331 10.0036 40.2842 9.80274C40.2791 9.78098 40.2582 9.76674 40.2361 9.76999C40.214 9.77323 40.198 9.79288 40.1994 9.81518C40.2066 9.9306 40.1625 10.1129 40.0984 10.2613C40.0665 10.3351 40.0311 10.3969 39.9976 10.4361C39.9899 10.4451 39.9827 10.4524 39.9761 10.4583C40.0257 10.1621 40.0083 9.92079 39.9279 9.65832C39.8425 9.37929 39.6861 9.07662 39.4679 8.65976C39.4588 8.64235 39.439 8.63334 39.4199 8.63788C39.4008 8.64243 39.3872 8.65937 39.3869 8.67902C39.379 9.18007 39.3712 9.61435 39.3248 9.93128C39.3238 9.93793 39.3244 9.94471 39.3266 9.95109C39.3656 10.0681 39.38 10.1214 39.3872 10.1747C39.3919 10.2091 39.3936 10.2429 39.3961 10.2931C39.3965 10.3021 39.397 10.3116 39.3975 10.3218C39.3826 10.3087 39.3671 10.2937 39.3513 10.2768C39.3113 10.234 39.2711 10.1816 39.2328 10.126C39.156 10.0147 39.0886 9.89335 39.0456 9.81523C39.0365 9.79872 39.0177 9.79006 38.9993 9.79385C38.9808 9.79764 38.967 9.81302 38.9652 9.83177C38.9504 9.98286 38.87 10.1736 38.7792 10.3179C38.7339 10.39 38.6879 10.4474 38.6489 10.4815C38.6296 10.4984 38.6145 10.5074 38.6042 10.5109C38.604 10.5071 38.604 10.5027 38.604 10.4974C38.6042 10.4733 38.6072 10.4392 38.6125 10.3964C38.6199 10.3359 38.6313 10.2615 38.6442 10.1779C38.6495 10.143 38.6551 10.1066 38.6608 10.0689C38.6818 9.92853 38.7036 9.77159 38.7146 9.62253C38.723 9.54351 38.7255 9.45835 38.7204 9.36702C38.7193 9.3411 38.7174 9.31608 38.7147 9.29213C38.7121 9.26866 38.691 9.25169 38.6676 9.25414C38.6441 9.25658 38.627 9.27752 38.6292 9.30103C38.6316 9.32563 38.6334 9.34977 38.6347 9.37345C38.638 9.44705 38.6354 9.52895 38.6291 9.61444C38.6047 9.84413 38.5281 10.0158 38.4491 10.131C38.3969 10.2071 38.3443 10.2576 38.3058 10.2844C38.3335 10.1721 38.3519 10.0622 38.3687 9.95801C38.3703 9.94819 38.3719 9.93843 38.3734 9.92872C38.3912 9.81796 38.4078 9.71491 38.4323 9.62016C38.4325 9.61957 38.4326 9.61898 38.4328 9.61838C38.4556 9.51196 38.4899 9.41277 38.5212 9.32271L38.5235 9.31598C38.5533 9.23044 38.5814 9.14979 38.5896 9.08346C38.5923 9.06253 38.5793 9.0428 38.5591 9.03688C38.5388 9.03097 38.5173 9.04061 38.5082 9.05965C38.4719 9.13578 38.4279 9.20778 38.3767 9.27451C38.3869 9.23647 38.3974 9.19601 38.4013 9.16724C38.4024 9.15955 38.4032 9.15157 38.4032 9.14401C38.4032 9.13745 38.4026 9.12667 38.3981 9.11602C38.3957 9.11024 38.3913 9.10255 38.3833 9.09614C38.3747 9.08925 38.3644 9.08584 38.3542 9.08563C38.3368 9.08527 38.3238 9.09419 38.3181 9.09844C38.308 9.10601 38.2868 9.1166 38.2534 9.12793C38.2209 9.13895 38.1799 9.14969 38.1325 9.15886C38.0376 9.17722 37.9195 9.18887 37.7975 9.1846C37.5557 9.17613 37.3133 9.10602 37.1932 8.92013C37.196 8.9111 37.2026 8.89796 37.2163 8.88039C37.235 8.85628 37.263 8.829 37.2984 8.7997C37.369 8.74123 37.4637 8.67907 37.5582 8.62287C37.6195 8.58642 37.6801 8.55282 37.733 8.52475C37.756 8.51492 37.7773 8.50564 37.7964 8.49706C37.8485 8.47375 37.8886 8.45413 37.9068 8.442L37.9079 8.44122C37.9093 8.4402 37.9115 8.43859 37.9138 8.43656C37.9148 8.43557 37.9167 8.4338 37.9187 8.43137C37.92 8.42976 37.9248 8.42391 37.9272 8.41488C37.9285 8.40981 37.9296 8.402 37.9273 8.39295C37.9248 8.38329 37.9192 8.37551 37.9126 8.37014C37.9014 8.36111 37.8895 8.36065 37.8871 8.36054C37.8802 8.36025 37.8746 8.36169 37.8733 8.36203L37.8732 8.36206C37.8664 8.36376 37.8576 8.36746 37.85 8.37073C37.8326 8.37827 37.8055 8.39113 37.772 8.40787C37.7494 8.41919 37.7237 8.43239 37.6959 8.44712C37.6563 8.46401 37.6111 8.4826 37.5619 8.50219C37.404 8.56497 37.205 8.63753 37.0111 8.69618C36.8164 8.75509 36.6301 8.79894 36.4964 8.80609C36.4286 8.80972 36.3807 8.80345 36.3526 8.79009C36.3394 8.78383 36.3325 8.77696 36.3288 8.77055C36.3252 8.76428 36.3224 8.75469 36.3241 8.73892C36.3248 8.73211 36.3239 8.7253 36.3215 8.71902C36.3231 8.716 36.3259 8.71156 36.3304 8.7056C36.3457 8.68539 36.3732 8.65853 36.4112 8.6265C36.4866 8.56304 36.5951 8.48624 36.7066 8.41171C36.8179 8.33738 36.9309 8.26613 37.0149 8.21384C37.0359 8.20078 37.055 8.18891 37.0719 8.17846L37.0786 8.1743C37.0926 8.16562 37.1049 8.15801 37.1151 8.15167C37.1268 8.14439 37.1361 8.13856 37.1421 8.13464C37.1448 8.13286 37.1479 8.13081 37.1503 8.12902C37.151 8.12854 37.152 8.12771 37.1533 8.12666C37.1534 8.12658 37.1576 8.12311 37.1613 8.11764C37.1624 8.11586 37.1648 8.11127 37.1659 8.10841C37.1673 8.10396 37.1685 8.09248 37.1678 8.08559C37.1652 8.07713 37.1556 8.06296 37.1491 8.05771C37.1437 8.05475 37.1341 8.05158 37.1301 8.05095C37.1231 8.05018 37.1175 8.05142 37.1163 8.05168C37.1141 8.05215 37.1124 8.05269 37.1115 8.05299C37.1092 8.05376 37.107 8.05474 37.1048 8.0559L36.2611 8.50902C36.2592 8.51003 36.2574 8.51117 36.2557 8.51244C36.2552 8.51266 36.2547 8.51294 36.2539 8.51328C36.2535 8.51346 36.2531 8.51367 36.2526 8.51389C36.2479 8.51598 36.2408 8.5188 36.2313 8.52222C36.2124 8.52903 36.186 8.53756 36.1541 8.54671C36.0902 8.565 36.006 8.58533 35.9192 8.59917C35.8318 8.61308 35.7442 8.62004 35.6726 8.61289C35.622 8.60782 35.5855 8.59634 35.5617 8.58034C35.5711 8.57371 35.5827 8.56592 35.5964 8.557C35.6447 8.5255 35.7153 8.48219 35.8013 8.43051C35.8921 8.376 35.9989 8.31281 36.1136 8.24495C36.2167 8.18393 36.3263 8.11914 36.4362 8.0535C36.6677 7.9153 36.8999 7.77398 37.0729 7.65922C37.1593 7.60195 37.232 7.55062 37.2827 7.50921C37.3078 7.48865 37.329 7.4694 37.3438 7.45225C37.3512 7.44374 37.3582 7.43436 37.3633 7.42445C37.3679 7.41533 37.3738 7.40023 37.3705 7.38271C37.3664 7.3609 37.3464 7.34579 37.3243 7.34784C37.3052 7.34961 37.29 7.36364 37.2862 7.38171C37.2851 7.38323 37.2833 7.38556 37.2804 7.38873C37.272 7.39795 37.2585 7.41035 37.2396 7.42581C37.2019 7.45654 37.1471 7.49583 37.08 7.54102C36.9461 7.63121 36.7664 7.74257 36.5845 7.85184C36.4026 7.96102 36.2191 8.0678 36.0776 8.14874C36.0068 8.1892 35.9466 8.22318 35.9025 8.24773C35.8804 8.26001 35.8624 8.26989 35.8492 8.27703C35.8425 8.2806 35.8372 8.28342 35.8332 8.28549C35.8312 8.28653 35.8296 8.28732 35.8285 8.2879C35.8275 8.28837 35.8271 8.28858 35.8269 8.28864C35.8269 8.28866 35.8269 8.28865 35.827 8.28863C35.8245 8.28966 35.8222 8.29092 35.82 8.29237C35.8204 8.29215 35.8204 8.29216 35.8198 8.29243C35.8188 8.29293 35.816 8.29431 35.8104 8.2966C35.8031 8.29964 35.793 8.30345 35.7804 8.30789C35.7553 8.31674 35.7212 8.32765 35.6804 8.33931C35.599 8.36262 35.4922 8.38857 35.38 8.40681C35.2674 8.42509 35.1509 8.43533 35.0493 8.42809C34.9661 8.42216 34.8978 8.40481 34.8494 8.37483C34.8724 8.3569 34.9074 8.33309 34.9518 8.3046C35.014 8.26466 35.0918 8.21732 35.1752 8.16655C35.2158 8.1418 35.2578 8.11624 35.3 8.09032C35.4278 8.01175 35.5572 7.93008 35.6518 7.86041C35.6989 7.82575 35.7392 7.79275 35.7666 7.76358C35.7802 7.74914 35.7925 7.73374 35.8004 7.71795C35.808 7.70283 35.8152 7.67991 35.8057 7.65592C35.8004 7.64278 35.789 7.63308 35.7752 7.62996C35.7614 7.62685 35.747 7.63072 35.7366 7.64033C35.3292 8.017 35.0242 8.1309 34.7196 8.19198C34.5493 8.2151 34.3689 8.22185 34.2443 8.19255L34.2441 8.19249C34.1133 8.16259 34.0069 8.10839 33.9336 8.05828C33.8975 8.03363 33.87 8.01038 33.8519 7.9921C33.871 7.98543 33.896 7.97759 33.9261 7.96851C33.9476 7.96203 33.9715 7.95497 33.9972 7.94739C34.0609 7.9286 34.1357 7.90652 34.2125 7.88171C34.3206 7.84684 34.435 7.80588 34.5327 7.75939C34.6287 7.71375 34.7157 7.65958 34.7617 7.59529C34.7725 7.5801 34.7723 7.55964 34.7612 7.54466C34.75 7.52968 34.7305 7.52362 34.7128 7.52965C33.917 7.80139 33.3878 7.80948 33.0643 7.74402C32.9024 7.71126 32.7925 7.6602 32.7261 7.615C32.6975 7.59551 32.6777 7.57766 32.6654 7.56353C32.6703 7.56254 32.6756 7.56154 32.6814 7.56052C32.7158 7.55455 32.7612 7.54906 32.8087 7.54367C32.8188 7.54253 32.829 7.54138 32.8392 7.54024C32.8762 7.5361 32.9129 7.53199 32.9438 7.52781C32.9634 7.52514 32.9815 7.52234 32.9963 7.51932C33.0084 7.51685 33.0248 7.51309 33.0368 7.50619C33.0371 7.50608 33.0374 7.50595 33.0378 7.50578C33.0397 7.50495 33.0426 7.50376 33.0466 7.50217C33.0546 7.49901 33.0659 7.49471 33.0802 7.48938C33.1087 7.47874 33.1484 7.46431 33.1957 7.44729C33.2655 7.42215 33.3515 7.3915 33.4419 7.35928C33.4739 7.34787 33.5064 7.33627 33.539 7.32465C33.6635 7.28022 33.7884 7.23549 33.8842 7.20038C33.932 7.18284 33.9728 7.16762 34.0028 7.15601C34.0177 7.15022 34.0302 7.14521 34.0396 7.14119C34.0443 7.13919 34.0486 7.13729 34.0522 7.13556C34.0547 7.13434 34.0602 7.1317 34.065 7.12813C34.0689 7.1252 34.0722 7.12164 34.0749 7.11759C34.0773 7.11405 34.0828 7.1048 34.0823 7.0917C34.0817 7.07567 34.0728 7.06401 34.0638 7.05769C34.0563 7.05251 34.0492 7.05098 34.0463 7.05045C34.0427 7.0498 34.0397 7.04969 34.0379 7.04968C34.0316 7.04965 34.0254 7.05082 34.022 7.05149C34.0135 7.05315 34.0016 7.05616 33.9877 7.05992C33.9619 7.06693 33.9247 7.07771 33.8793 7.09091L33.8666 7.0946C33.7636 7.12449 33.6196 7.16608 33.4582 7.2074C33.1336 7.29051 32.7451 7.37074 32.4791 7.35554L32.4789 7.35553C32.1792 7.34016 31.9603 7.27493 31.8195 7.20736C31.7489 7.17347 31.699 7.13948 31.6684 7.11174C31.6604 7.1045 31.6541 7.09797 31.6492 7.09229C31.6556 7.09052 31.6629 7.08868 31.6711 7.08677C31.7073 7.07835 31.7556 7.06976 31.8064 7.06201C31.9091 7.04636 32.0155 7.03516 32.047 7.03516C32.051 7.03516 32.0549 7.03461 32.0587 7.03354C32.4509 6.92293 32.8379 6.79479 33.2186 6.64952C33.2226 6.648 33.2263 6.64591 33.2296 6.64329L33.2297 6.64322C33.2323 6.64121 33.2404 6.63492 33.2456 6.62484C33.2486 6.61903 33.2534 6.60639 33.2486 6.59106C33.2436 6.57512 33.2318 6.56725 33.2249 6.56401C33.2136 6.55872 33.2024 6.55931 33.1998 6.55941C33.1949 6.5596 33.1897 6.56026 33.1851 6.561C33.167 6.56392 33.1389 6.57111 33.1056 6.58046C33.0408 6.59863 32.9482 6.62734 32.8494 6.65793L32.836 6.66208C32.7319 6.69434 32.6218 6.72837 32.529 6.75482C32.4826 6.76805 32.4409 6.77927 32.4067 6.78739C32.3716 6.79571 32.3471 6.8001 32.3337 6.80085C31.7667 6.83192 31.4484 6.76541 31.2767 6.68744C31.191 6.64853 31.1433 6.60747 31.1187 6.57572C31.1123 6.56751 31.1076 6.56006 31.1041 6.55354C31.2953 6.5325 31.4857 6.50528 31.675 6.47192C31.6829 6.4706 31.6909 6.46919 31.6992 6.4677C31.7054 6.46657 31.7118 6.4654 31.7183 6.46417C31.9134 6.4288 32.1073 6.38691 32.2997 6.33855C32.3038 6.33752 32.3077 6.33589 32.3113 6.33372L32.3113 6.33372C32.3127 6.33287 32.3175 6.33003 32.322 6.32514C32.3241 6.32281 32.3292 6.31695 32.3319 6.30775C32.3353 6.29638 32.3342 6.28219 32.3255 6.27011C32.3184 6.26031 32.3093 6.25635 32.3056 6.25492C32.3012 6.25326 32.2974 6.25264 32.2954 6.25238C32.2913 6.25184 32.2878 6.25193 32.2861 6.25201C32.2794 6.25229 32.2706 6.25379 32.2629 6.25523C32.2457 6.25845 32.2195 6.26422 32.1878 6.27147C32.159 6.27805 32.1251 6.286 32.0882 6.29465L32.0761 6.29747C32.0345 6.30722 31.9895 6.31776 31.9437 6.32823C31.8596 6.34747 31.7736 6.36635 31.7028 6.37966C31.6887 6.38221 31.6746 6.38473 31.6605 6.38722C31.6335 6.39176 31.6104 6.39501 31.5923 6.39668C31.5806 6.39776 31.572 6.39807 31.5663 6.39787C31.5649 6.39782 31.5639 6.39775 31.5632 6.39768C31.5611 6.39684 31.5589 6.39616 31.5568 6.39566C30.4561 6.13897 29.8644 5.78234 29.5582 5.48853C29.4051 5.34158 29.3237 5.21072 29.2852 5.11613C29.2658 5.06862 29.2578 5.03136 29.2562 5.00647C29.256 5.00336 29.2559 5.00054 29.2559 4.99801C29.2561 4.99818 29.2564 4.99836 29.2567 4.99853C29.277 5.01223 29.3037 5.0357 29.3409 5.06836C29.3435 5.07062 29.3461 5.07292 29.3487 5.07526C29.4292 5.14594 29.5454 5.24622 29.706 5.33453C29.7074 5.33532 29.7089 5.33602 29.7104 5.33665C30.0544 5.47737 30.5839 5.68839 31.0215 5.86125C31.0264 5.86322 31.0314 5.86517 31.0363 5.86713C31.2678 5.96506 31.5131 6.06299 31.7505 6.14646C31.7607 6.1503 31.7688 6.1533 31.7745 6.15536C31.7783 6.15671 31.7824 6.15816 31.7854 6.15902C31.7859 6.15918 31.7881 6.15981 31.7908 6.16026L31.7909 6.16027C31.7917 6.16041 31.7962 6.1612 31.8019 6.1607C31.8058 6.16017 31.8166 6.15666 31.8231 6.15285C31.8323 6.1439 31.841 6.12036 31.8399 6.10789C31.8377 6.10114 31.8323 6.09176 31.8298 6.08886C31.8283 6.08726 31.8256 6.08482 31.8245 6.08391C31.8224 6.08227 31.8206 6.08117 31.8199 6.08077C31.8183 6.07981 31.8169 6.07909 31.8162 6.07876C31.8146 6.07792 31.8128 6.0772 31.8111 6.07659C31.8007 6.073 31.7904 6.06937 31.78 6.06572C31.7754 6.06402 31.7704 6.06212 31.765 6.06005C31.7292 6.04642 31.6746 6.02532 31.6056 5.99842C31.4702 5.9457 31.2796 5.87082 31.0662 5.78652C30.7569 5.65561 30.4726 5.52482 30.2631 5.42844C30.1325 5.36835 30.0309 5.32163 29.9705 5.29658C29.7703 5.20357 29.5885 5.00624 29.4678 4.82124C29.4075 4.72901 29.364 4.64215 29.3413 4.57602C29.3299 4.54264 29.3245 4.51689 29.3239 4.49948C29.3238 4.49713 29.3238 4.4951 29.3239 4.49337C29.3267 4.49425 29.3301 4.49549 29.3342 4.4972C29.3537 4.50551 29.3802 4.52144 29.4137 4.54493C29.4705 4.58485 29.5406 4.64167 29.6206 4.70647C29.6343 4.71758 29.6483 4.72892 29.6626 4.74045C29.8541 4.89521 30.0931 5.08315 30.3114 5.16457C30.3309 5.17383 30.4103 5.20791 30.5283 5.25791C30.5541 5.27436 30.6025 5.29712 30.6633 5.32357C30.731 5.35299 30.8187 5.38892 30.919 5.42895C30.9992 5.46093 31.0877 5.49562 31.1807 5.53181C31.2769 5.57194 31.3756 5.61307 31.4739 5.65393C31.7522 5.76967 32.0282 5.88373 32.2346 5.96789C32.3378 6.00996 32.4238 6.04462 32.484 6.0683C32.5141 6.08011 32.538 6.08931 32.5546 6.09535C32.5627 6.09832 32.5697 6.10076 32.575 6.10237C32.5773 6.10309 32.5807 6.10409 32.5842 6.10475C32.5853 6.10497 32.5897 6.10583 32.595 6.10564C32.5971 6.10556 32.6045 6.10525 32.6128 6.10118C32.6168 6.09891 32.6251 6.09214 32.6289 6.08747C32.6308 6.0843 32.6328 6.07915 32.6344 6.07406L32.6352 6.07431C32.6401 6.05732 32.6338 6.04365 32.6302 6.03768C32.6265 6.03131 32.6219 6.02669 32.6189 6.02392C32.6126 6.01816 32.6048 6.01297 32.5975 6.00852C32.5824 5.99929 32.561 5.98834 32.5352 5.97617C32.4831 5.95163 32.4085 5.91981 32.3189 5.8832C32.1394 5.80988 31.8973 5.71622 31.6503 5.62104C31.6244 5.61102 31.5983 5.60099 31.5723 5.59097C31.45 5.54385 31.3279 5.49683 31.213 5.45214ZM29.3252 4.48444C29.3252 4.48444 29.3252 4.48453 29.3251 4.48468C29.3251 4.48451 29.3252 4.48443 29.3252 4.48444ZM29.2578 4.98053C29.2578 4.98054 29.2578 4.98076 29.2576 4.98113C29.2577 4.9807 29.2578 4.98051 29.2578 4.98053ZM31.5616 6.39749C31.5616 6.39748 31.5617 6.3975 31.5619 6.39753L31.5616 6.39749ZM31.6359 7.07255C31.636 7.07255 31.636 7.07267 31.636 7.07288C31.636 7.07265 31.6359 7.07254 31.6359 7.07255ZM31.6225 7.10134C31.6218 7.10187 31.6216 7.1019 31.6223 7.10149C31.6223 7.10145 31.6224 7.1014 31.6225 7.10134ZM32.6508 7.54175C32.6508 7.54177 32.6508 7.54193 32.6509 7.54224C32.6508 7.5419 32.6507 7.54174 32.6508 7.54175ZM36.2566 8.51195C36.2566 8.51197 36.2566 8.51199 36.2565 8.51201C36.257 8.51168 36.2572 8.51166 36.2566 8.51195ZM38.606 10.5248C38.6061 10.5249 38.6059 10.5247 38.6058 10.5239C38.6059 10.5244 38.606 10.5247 38.606 10.5248ZM30.3252 3.54081C30.3252 3.54079 30.3255 3.54077 30.3262 3.54083C30.3256 3.54087 30.3252 3.54084 30.3252 3.54081ZM29.5561 3.83987C29.5561 3.83988 29.5561 3.83992 29.556 3.84001L29.5561 3.83987ZM35.7247 7.67687C35.7247 7.67689 35.7246 7.67701 35.7246 7.67723C35.7246 7.67698 35.7247 7.67686 35.7247 7.67687ZM38.3697 9.16719C38.3703 9.16672 38.3702 9.16691 38.3694 9.16741C38.3695 9.16734 38.3696 9.16726 38.3697 9.16719ZM33.3912 5.08028C33.3911 5.08028 33.3911 5.0801 33.3909 5.07977C33.3911 5.08012 33.3912 5.08028 33.3912 5.08028Z" fill="black"/>
<path fill-rule="evenodd" clip-rule="evenodd" d="M33.8594 5.28906C33.8594 5.28906 33.5547 5.51563 33.1875 5.5C33.2813 5.875 34.0469 5.58594 34.0469 5.58594C34.0469 5.58594 33.6797 6 33.4141 6.0625C33.5703 6.19531 34.2422 6.14844 34.3516 6.08594C34.4609 6.01563 34.6641 5.75781 34.6641 5.75781C34.6641 5.75781 33.9766 6.55469 33.8828 6.54688C33.8594 6.64063 34.5938 6.60938 34.7422 6.46875C34.8984 6.32813 35.2891 6.125 35.2891 6.125C35.2891 6.125 34.2734 6.82813 34.2344 6.82813C34.6094 6.92188 35.3672 6.70313 35.8516 6.40625C35.1328 6.88281 35.0703 6.96875 34.7031 7.13281C35.0313 7.20313 35.1953 7.42188 36.2891 6.94531C36.9141 6.64844 37.2734 6.10156 37.2734 6.10156C36.7964 6.66431 36.2255 7.1401 35.5859 7.50781C35.5469 7.58594 36.3203 7.91406 37.2969 6.89062" fill="#EF7D00"/>
<path fill-rule="evenodd" clip-rule="evenodd" d="M33.8338 5.25457C33.8528 5.24043 33.8797 5.24439 33.8939 5.26343C33.908 5.28247 33.9041 5.30939 33.885 5.32355L33.8613 5.29172C33.885 5.32355 33.885 5.32354 33.885 5.32355L33.8849 5.32365L33.8846 5.32383L33.8838 5.32444L33.8808 5.32659C33.8783 5.32842 33.8745 5.33102 33.8698 5.33428C33.8602 5.3408 33.8463 5.34998 33.8285 5.36087C33.7929 5.38264 33.7417 5.41138 33.6787 5.43961C33.5675 5.48943 33.4177 5.53846 33.2511 5.54335C33.2771 5.58662 33.3193 5.61407 33.3737 5.6305C33.4502 5.65357 33.5477 5.65338 33.647 5.64096C33.7455 5.62865 33.8418 5.60486 33.9138 5.58398C33.9497 5.57357 33.9794 5.56394 34 5.55694C34.0103 5.55344 34.0183 5.55061 34.0237 5.54866C34.0264 5.54769 34.0285 5.54694 34.0298 5.54645L34.0313 5.54589L34.0316 5.54577C34.0316 5.54576 34.0316 5.54577 34.0316 5.54577C34.0501 5.53879 34.0711 5.54529 34.0823 5.56157C34.0935 5.57784 34.0921 5.59966 34.079 5.61445L34.0469 5.58594C34.079 5.61445 34.079 5.61444 34.079 5.61445L34.0789 5.61456L34.0787 5.61482L34.0778 5.61579L34.0746 5.61941C34.0717 5.62257 34.0675 5.62715 34.0622 5.63299C34.0514 5.64466 34.0358 5.66134 34.0162 5.68152C33.9771 5.72184 33.9221 5.77633 33.8587 5.83287C33.7953 5.88934 33.7228 5.94837 33.6488 5.99748C33.6081 6.02447 33.5661 6.049 33.5243 6.06847C33.5507 6.07628 33.582 6.08304 33.6176 6.08851C33.7011 6.10134 33.8006 6.10594 33.8998 6.1045C33.9988 6.10306 34.0961 6.0956 34.1751 6.08475C34.2145 6.07933 34.2489 6.07312 34.2762 6.06655C34.3037 6.05996 34.3209 6.05371 34.3294 6.04911C34.3515 6.03468 34.3788 6.011 34.4081 5.98256C34.4505 5.93546 34.4897 5.89145 34.523 5.85375C34.5559 5.81654 34.583 5.78552 34.602 5.7638C34.6114 5.75295 34.6188 5.74442 34.6239 5.73862L34.6315 5.72978C34.6315 5.72977 34.6315 5.72975 34.6641 5.75782C34.6978 5.78441 34.6978 5.78441 34.6978 5.78441L34.6972 5.78522L34.6954 5.78746C34.6938 5.78942 34.6916 5.79228 34.6886 5.79592C34.6828 5.80322 34.6743 5.81369 34.6638 5.82647C34.6429 5.852 34.6137 5.88681 34.5811 5.9239C34.5472 5.96235 34.5083 6.00485 34.4701 6.04208C34.429 6.08766 34.3849 6.13609 34.3401 6.18447C34.2481 6.28379 34.1527 6.38348 34.074 6.45806C34.0354 6.4947 34 6.52605 33.9706 6.54845C33.977 6.54948 33.9839 6.55044 33.9914 6.55133C34.0557 6.55896 34.147 6.55957 34.2451 6.55284C34.343 6.54612 34.4456 6.53223 34.5321 6.51167C34.5753 6.50138 34.6138 6.48962 34.6453 6.47661C34.6774 6.46338 34.6996 6.44994 34.7126 6.43756L34.7134 6.4368C34.7953 6.36317 34.9356 6.27526 35.0526 6.20703C35.1116 6.17258 35.1657 6.14258 35.2051 6.12119C35.2247 6.11049 35.2407 6.10194 35.2518 6.09605C35.2574 6.0931 35.2617 6.09082 35.2647 6.08927L35.268 6.08751L35.2692 6.08693L35.2692 6.08689C35.2692 6.08688 35.2692 6.08688 35.2891 6.125C35.3135 6.16033 35.3135 6.16033 35.3135 6.16034L35.2698 6.19058C35.2419 6.20981 35.2021 6.23729 35.1541 6.27027C35.0583 6.33621 34.93 6.42416 34.8005 6.51211C34.6711 6.60004 34.5402 6.68809 34.4392 6.75422C34.4109 6.77275 34.3848 6.78963 34.3617 6.80433C34.5317 6.81704 34.7546 6.7859 34.9908 6.72219C35.2842 6.64303 35.5909 6.51562 35.8291 6.36962C35.8491 6.35737 35.8752 6.36339 35.8878 6.38315C35.9004 6.40291 35.8948 6.42912 35.8753 6.44206C35.6466 6.59373 35.484 6.7061 35.3565 6.79423C35.1275 6.95252 35.0116 7.03265 34.8284 7.12192C34.8443 7.12682 34.8601 7.13181 34.8757 7.13675C34.9 7.14445 34.9239 7.15204 34.9476 7.15895C35.0239 7.18123 35.1054 7.19932 35.2098 7.20118C35.4193 7.20492 35.7269 7.14334 36.2713 6.9062C36.4274 6.83199 36.5667 6.74177 36.6878 6.64844C36.8836 6.46899 37.0683 6.2771 37.2407 6.07378C37.2554 6.05645 37.281 6.05355 37.2992 6.06716C37.3174 6.08076 37.3218 6.10618 37.3093 6.12516L37.2734 6.10157C37.3093 6.12516 37.3094 6.12515 37.3093 6.12516L37.3092 6.12534L37.309 6.12572L37.3081 6.12705C37.3073 6.1282 37.3062 6.12986 37.3047 6.13201C37.3018 6.13631 37.2975 6.14255 37.2918 6.15055C37.2804 6.16654 37.2636 6.18955 37.2414 6.21802C37.1972 6.27495 37.1317 6.35378 37.0465 6.44197C36.9638 6.52754 36.8623 6.62219 36.7432 6.71426C36.4085 7.02061 36.0418 7.29114 35.6489 7.52095C35.6639 7.5294 35.6849 7.53868 35.7123 7.54725C35.7882 7.57103 35.9057 7.58707 36.0556 7.56963C36.3545 7.53485 36.7832 7.36675 37.2658 6.86096C37.2822 6.8438 37.3094 6.84316 37.3265 6.85954C37.3437 6.87592 37.3443 6.90312 37.328 6.92029C36.834 7.43794 36.3877 7.6175 36.0655 7.65499C35.9049 7.67368 35.7752 7.657 35.6866 7.62927C35.6427 7.61552 35.607 7.59845 35.5824 7.58011C35.5704 7.57112 35.5587 7.56002 35.5509 7.54664C35.5429 7.53302 35.5362 7.51115 35.5475 7.4886C35.5513 7.48105 35.5572 7.47477 35.5645 7.47056C35.8094 7.32977 36.0441 7.17303 36.2673 7.00153C35.742 7.22707 35.4307 7.29108 35.2082 7.28711C35.0938 7.28506 35.0044 7.26506 34.9235 7.24145C34.8958 7.23335 34.8699 7.22512 34.8446 7.21712C34.7947 7.20125 34.7474 7.18625 34.6941 7.17483C34.6759 7.17094 34.6623 7.15579 34.6604 7.1373C34.6585 7.11881 34.6686 7.10117 34.6856 7.09358C34.9306 6.9841 35.0358 6.91139 35.301 6.72803C35.3152 6.71821 35.3299 6.70807 35.345 6.69758C35.2352 6.73913 35.1232 6.77547 35.0131 6.80516C34.7146 6.88569 34.4225 6.91945 34.224 6.86981C34.2029 6.86455 34.1891 6.84442 34.1917 6.82288C34.194 6.80463 34.2075 6.79023 34.2247 6.78625C34.2263 6.78551 34.2288 6.78427 34.2323 6.78238C34.2409 6.77779 34.253 6.77071 34.2685 6.76124C34.2994 6.74237 34.3419 6.7152 34.3921 6.68231C34.4279 6.65888 34.4675 6.63266 34.5095 6.60462C34.4277 6.62135 34.3371 6.63266 34.251 6.63857C34.1499 6.64551 34.0528 6.64515 33.9813 6.63667C33.9462 6.6325 33.9138 6.62601 33.8899 6.61564C33.8781 6.61055 33.8644 6.60289 33.8541 6.59072C33.8423 6.57675 33.8359 6.55748 33.8411 6.53646C33.8458 6.51764 33.8625 6.50452 33.8815 6.50393C33.8825 6.50352 33.8843 6.50275 33.8869 6.50135C33.8942 6.49747 33.9043 6.49084 33.9174 6.48097C33.9432 6.46135 33.9765 6.43212 34.0149 6.3957C34.0825 6.33158 34.1637 6.24763 34.2448 6.16077C34.2266 6.16403 34.2072 6.16708 34.1868 6.16989C34.1041 6.18126 34.0032 6.18894 33.901 6.19043C33.799 6.19191 33.6944 6.18724 33.6046 6.17346C33.5172 6.16004 33.4352 6.13685 33.3862 6.09524C33.3739 6.08474 33.3685 6.06819 33.3723 6.05243C33.3761 6.03667 33.3884 6.02439 33.4042 6.02068C33.4634 6.00675 33.5312 5.97231 33.6013 5.92586C33.6708 5.87976 33.7399 5.82356 33.8015 5.7687C33.8373 5.73684 33.8703 5.70561 33.8992 5.67732C33.8301 5.69599 33.7452 5.7153 33.6577 5.72623C33.5539 5.73921 33.4424 5.74097 33.3489 5.71277C33.2533 5.68391 33.1738 5.62232 33.1458 5.51042C33.1425 5.49728 33.1456 5.48335 33.1542 5.47285C33.1628 5.46234 33.1758 5.4565 33.1893 5.45707C33.3639 5.4645 33.525 5.41429 33.6436 5.36118C33.7026 5.33472 33.7506 5.3078 33.7836 5.28757C33.8001 5.27747 33.8129 5.26906 33.8214 5.26326C33.8256 5.26036 33.8288 5.25811 33.8309 5.25662L33.8332 5.25499L33.8337 5.25463L33.8338 5.25457C33.8338 5.25457 33.8338 5.25457 33.8338 5.25457ZM33.8338 5.25457C33.8338 5.25457 33.8338 5.25457 33.8338 5.25457V5.25457ZM35.2891 6.125L35.3135 6.16034C35.3322 6.14743 35.3376 6.12224 35.3259 6.10282C35.3142 6.08339 35.2894 6.07642 35.2692 6.08689L35.2891 6.125ZM34.6641 5.75782L34.6978 5.78441C34.7123 5.76607 34.7094 5.73952 34.6914 5.72466C34.6734 5.7098 34.6468 5.71209 34.6315 5.72978L34.6641 5.75782Z" fill="black"/>
<path fill-rule="evenodd" clip-rule="evenodd" d="M39.1719 7.5C39.1719 7.5 39.2422 7.8125 39.5078 8.04688C39.7734 8.28125 39.7891 8.51562 39.7891 8.51562M39.0469 5.46875C39.0469 5.46875 39.1328 5.75781 39.4063 5.9375C39.6875 6.10938 40.1094 6.67187 40.1328 6.77344C40.1641 6.89062 40.3281 7.75781 40.3125 7.85156M37.3594 5.89844C37.375 6.01562 36.9688 6.54688 37.5313 7.17969C37.0156 7.80469 37.0156 7.88281 37.0156 7.88281C37.0156 7.88281 37.3047 8.03906 37.8125 7.60156C38.6563 8.63281 38.375 9.10156 38.375 9.10156" fill="#EF7D00"/>
<path fill-rule="evenodd" clip-rule="evenodd" d="M39.0346 5.42757C39.0574 5.42081 39.0813 5.43376 39.0881 5.45649C39.0881 5.4565 39.0881 5.45648 39.0881 5.45649L39.0469 5.46876C39.0881 5.45652 39.0881 5.4565 39.0881 5.45649M40.1745 6.76299C40.1909 6.82476 40.2398 7.07195 40.2825 7.31382C40.3041 7.43562 40.3242 7.557 40.338 7.65401C40.3448 7.70246 40.3502 7.74526 40.3533 7.77917C40.3563 7.81094 40.3579 7.84045 40.3549 7.85864C40.351 7.88205 40.3288 7.89786 40.3054 7.89396C40.282 7.89006 40.2662 7.86792 40.2701 7.84451C40.271 7.83926 40.2709 7.82117 40.2678 7.78711C40.2648 7.75519 40.2597 7.71394 40.2529 7.66608C40.2393 7.57046 40.2194 7.45015 40.1979 7.32878C40.1549 7.08514 40.1064 6.84098 40.0913 6.78452L40.0911 6.78382L40.0909 6.78311C40.0895 6.77704 40.0833 6.7619 40.069 6.73651C40.0554 6.71244 40.0366 6.68252 40.0134 6.64826C39.967 6.57981 39.9041 6.49566 39.833 6.40912C39.6897 6.23465 39.5178 6.05605 39.3838 5.97418L39.3832 5.97381L39.3827 5.97342C39.2389 5.87894 39.1449 5.75607 39.087 5.65752C39.058 5.60815 39.0378 5.56456 39.0249 5.53311C39.0184 5.51738 39.0137 5.50464 39.0105 5.4957C39.009 5.49123 39.0078 5.48771 39.007 5.48523L39.0061 5.4823L39.0058 5.48144L39.0057 5.48117L39.0057 5.48108C39.0057 5.48106 39.0057 5.48101 39.0469 5.46876L39.0057 5.48108C38.9989 5.45833 39.0119 5.43434 39.0346 5.42757M40.1745 6.76299C40.1699 6.7438 40.158 6.71946 40.1438 6.69433C40.1287 6.66752 40.1085 6.63549 40.0845 6.60005C40.0364 6.5291 39.9719 6.44284 39.8994 6.35458C39.7558 6.17968 39.5764 5.99138 39.4293 5.90123M37.3537 5.85586C37.3772 5.85272 37.3988 5.86925 37.402 5.89277C37.4054 5.91817 37.3974 5.94799 37.3892 5.97413C37.3829 5.99402 37.3745 6.01725 37.3654 6.04228C37.3618 6.05242 37.358 6.06286 37.3542 6.0735C37.3274 6.14881 37.2969 6.24255 37.2828 6.35123C37.255 6.56631 37.2909 6.84468 37.5634 7.15115L37.5878 7.17866L37.5644 7.20704C37.307 7.51908 37.1792 7.69351 37.1159 7.78931C37.096 7.81958 37.0827 7.84166 37.0738 7.85748C37.0752 7.85781 37.0766 7.85814 37.0781 7.85846C37.1087 7.86529 37.1559 7.87081 37.2187 7.86357C37.3441 7.84914 37.5356 7.78344 37.7845 7.56902L37.8178 7.54025L37.8458 7.57436C38.271 8.09406 38.4161 8.47615 38.4527 8.73222C38.471 8.8603 38.462 8.9563 38.4477 9.02143C38.4406 9.05395 38.4322 9.07863 38.4252 9.09563C38.4218 9.10413 38.4187 9.1107 38.4163 9.11537C38.4152 9.1177 38.4142 9.11956 38.4134 9.12095L38.4124 9.12267L38.4121 9.12326L38.412 9.12349L38.4119 9.12359C38.4119 9.12364 38.4118 9.12368 38.375 9.10157L38.4118 9.12368C38.3996 9.14403 38.3732 9.15063 38.3529 9.13842C38.3326 9.12627 38.326 9.10008 38.338 9.07977C38.338 9.07972 38.338 9.07967 38.3381 9.07962C38.3381 9.0796 38.3381 9.07964 38.3381 9.07962L38.3382 9.07945C38.3384 9.079 38.3389 9.0781 38.3396 9.07675C38.3409 9.07404 38.3431 9.06954 38.3456 9.06321C38.3508 9.05055 38.3577 9.03055 38.3638 9.00301C38.3759 8.94802 38.3845 8.86238 38.3676 8.74437C38.3346 8.51349 38.2038 8.15663 37.8067 7.66267C37.5635 7.86368 37.3682 7.93287 37.2285 7.94895C37.1557 7.95734 37.0988 7.95114 37.0594 7.94234C37.0397 7.93795 37.0244 7.93292 37.0136 7.92879C37.0083 7.92673 37.004 7.92489 37.0009 7.92346C36.9994 7.92275 36.9982 7.92214 36.9972 7.92166L36.996 7.92104L36.9955 7.9208L36.9953 7.92071L36.9953 7.92066C36.9952 7.92064 36.9952 7.92062 37.0156 7.88282C36.9727 7.88282 36.9727 7.88269 36.9727 7.88255L36.9727 7.88227L36.9727 7.88173L36.9727 7.88065C36.9727 7.87994 36.9728 7.87924 36.9729 7.87855C36.973 7.87717 36.9732 7.8758 36.9734 7.87444C36.9739 7.87175 36.9746 7.86892 36.9755 7.8659C36.9773 7.85993 36.9802 7.85239 36.9848 7.84253C36.9941 7.82287 37.0114 7.79169 37.0442 7.74197C37.1079 7.64546 37.2321 7.47598 37.475 7.18045C37.2067 6.86468 37.1677 6.57147 37.1976 6.3402C37.2129 6.22232 37.2458 6.12172 37.2732 6.04469C37.2775 6.03277 37.2815 6.02161 37.2853 6.01111C37.294 5.98698 37.3015 5.96638 37.3072 5.94826C37.316 5.92044 37.3173 5.90802 37.3168 5.90413C37.3136 5.8806 37.3302 5.85899 37.3537 5.85586ZM37.0156 7.88282L36.9727 7.88282L36.9727 7.90844L36.9952 7.92062L37.0156 7.88282ZM39.1624 7.45809C39.1856 7.45288 39.2086 7.46741 39.2138 7.49055L39.2139 7.49105L39.2144 7.49327C39.2149 7.49531 39.2158 7.49847 39.2169 7.50265C39.2192 7.51101 39.2227 7.52344 39.2279 7.53919C39.2381 7.5707 39.2546 7.61537 39.2791 7.66719C39.3282 7.77104 39.409 7.90242 39.5362 8.01467C39.6743 8.13644 39.7482 8.25907 39.7876 8.35244C39.8073 8.39904 39.8183 8.4382 39.8244 8.46616C39.8275 8.48014 39.8293 8.49132 39.8304 8.49924C39.831 8.5032 39.8313 8.50635 39.8316 8.50863C39.8316 8.50913 39.8317 8.5096 39.8317 8.51002C39.8318 8.51054 39.8318 8.51099 39.8318 8.51138L39.8319 8.51225L39.8319 8.51256L39.8319 8.51268C39.8319 8.5127 39.8319 8.51278 39.7906 8.51553L39.8319 8.51278C39.8335 8.53646 39.8156 8.55693 39.7919 8.55851C39.7683 8.56008 39.7479 8.54226 39.7462 8.51867C39.7462 8.51864 39.7462 8.51856 39.7462 8.51854M39.7462 8.51854L39.7461 8.51727C39.7459 8.51599 39.7457 8.51388 39.7453 8.51097C39.7445 8.50516 39.7431 8.4962 39.7405 8.48455C39.7354 8.46123 39.7259 8.42716 39.7085 8.38587C39.6737 8.30345 39.607 8.1917 39.4794 8.07911C39.341 7.95698 39.2539 7.81492 39.2014 7.70392C39.1751 7.64833 39.1574 7.60022 39.1462 7.56582C39.1405 7.5486 39.1366 7.53479 39.1339 7.52514C39.1326 7.52032 39.1317 7.51654 39.131 7.51389L39.1303 7.51078L39.1301 7.50989L39.13 7.50961L39.13 7.50951C39.13 7.5095 39.13 7.50944 39.1719 7.50001L39.13 7.50951C39.1248 7.48636 39.1393 7.4633 39.1624 7.45809" fill="black"/>
<path fill-rule="evenodd" clip-rule="evenodd" d="M38.3048 8.375C38.3048 8.375 38.2267 8.26562 38.3673 7.85156C38.4923 8.00781 38.633 8.03125 38.6877 8.08594C38.7502 8.15625 39.3908 8.24219 39.422 8.67188" fill="#EF7D00"/>
<path fill-rule="evenodd" clip-rule="evenodd" d="M38.3599 7.809C38.3754 7.80628 38.3911 7.81222 38.4009 7.82448C38.4588 7.89688 38.5202 7.93854 38.5748 7.96909C38.5921 7.97876 38.607 7.98641 38.6215 7.99391C38.6317 7.99918 38.6418 8.00438 38.6525 8.01017C38.6757 8.02268 38.6996 8.03687 38.718 8.05531C38.7186 8.05591 38.7192 8.05652 38.7198 8.05715C38.7196 8.05701 38.7196 8.05693 38.7196 8.05693C38.7196 8.05691 38.7215 8.0586 38.727 8.06173C38.7331 8.06518 38.7415 8.06918 38.7525 8.07383C38.7747 8.08318 38.8037 8.09354 38.8388 8.106L38.842 8.10716C38.9106 8.13155 38.9984 8.16275 39.0854 8.20529C39.2603 8.29072 39.4475 8.42937 39.4649 8.66852C39.4666 8.69218 39.4488 8.71277 39.4251 8.71449C39.4015 8.71621 39.3809 8.69842 39.3792 8.67475C39.3653 8.48421 39.2166 8.36505 39.0477 8.2825C38.965 8.24211 38.8811 8.21228 38.8119 8.18766L38.81 8.18697C38.7757 8.17477 38.7441 8.16353 38.7192 8.15304C38.7067 8.14777 38.6949 8.1423 38.6847 8.13655C38.6755 8.13134 38.6651 8.12451 38.6567 8.11548C38.6477 8.10676 38.6337 8.09766 38.6117 8.08578C38.6042 8.08173 38.5951 8.07701 38.5851 8.07185C38.5689 8.06344 38.5503 8.05386 38.5329 8.04409C38.4876 8.01878 38.4364 7.98551 38.3854 7.93537C38.3356 8.09853 38.3247 8.20345 38.3263 8.26725C38.3272 8.30339 38.3321 8.32607 38.3359 8.3386C38.3378 8.34487 38.3395 8.34865 38.3403 8.35034C38.3406 8.35076 38.3407 8.35106 38.3408 8.35124C38.3534 8.37042 38.3486 8.39627 38.3298 8.40972C38.3105 8.42352 38.2837 8.41904 38.2699 8.39973L38.3048 8.37476C38.2699 8.39973 38.2698 8.39969 38.2698 8.39964L38.2697 8.39955L38.2696 8.39935L38.2693 8.39892L38.2687 8.39794C38.2682 8.39722 38.2677 8.39639 38.2671 8.39543C38.2659 8.39351 38.2646 8.3911 38.2632 8.38815C38.2603 8.38225 38.257 8.37425 38.2538 8.36379C38.2473 8.34287 38.2415 8.31233 38.2404 8.26937C38.2383 8.18369 38.2553 8.04762 38.3267 7.8375C38.3317 7.82264 38.3445 7.81171 38.3599 7.809Z" fill="black"/>
<path fill-rule="evenodd" clip-rule="evenodd" d="M39.0547 4.4922C39.0547 4.46095 38.9219 4.1797 38.4453 4.52345C38.7031 4.53907 38.9531 4.68751 39.0547 4.4922Z" fill="#EF7D00"/>
<path fill-rule="evenodd" clip-rule="evenodd" d="M39.0869 4.45239C39.092 4.46345 39.0974 4.47833 39.0974 4.49194V4.50245L39.0926 4.51177C39.0622 4.57022 39.0187 4.60545 38.9657 4.62236C38.9148 4.63857 38.8584 4.63686 38.8026 4.62924C38.7581 4.62318 38.7102 4.61274 38.6623 4.6023C38.6501 4.59964 38.638 4.59698 38.6258 4.59439C38.5649 4.5814 38.5035 4.56978 38.4425 4.56608L38.3223 4.5588L38.4199 4.48834C38.6629 4.31312 38.8301 4.28846 38.9422 4.32622C38.9977 4.34492 39.0358 4.37787 39.0601 4.4088C39.0721 4.42419 39.081 4.43932 39.0869 4.45239ZM38.5653 4.49487C38.7421 4.38826 38.8519 4.38649 38.9148 4.40766C38.952 4.42021 38.9769 4.44195 38.9924 4.46181C38.9997 4.47111 39.0048 4.47979 39.008 4.48655C38.9891 4.51626 38.9661 4.53205 38.9396 4.54048C38.907 4.55088 38.8657 4.55113 38.8142 4.54409C38.7734 4.53854 38.7299 4.52906 38.6825 4.51872C38.6699 4.51597 38.6569 4.51316 38.6437 4.51034C38.6184 4.50493 38.5921 4.49958 38.5653 4.49487Z" fill="black"/>
<path fill-rule="evenodd" clip-rule="evenodd" d="M33.4453 5.07812C33.4453 5.07812 34.5078 5.64062 34.9609 5.60156C34.8745 5.67453 34.7732 5.72784 34.6641 5.75781C34.7734 5.80469 35.0859 5.96875 35.5547 5.86719L35.2969 6.10156C35.2969 6.10156 35.7031 6.25781 36.1562 6.02344C36.0786 6.11608 36.0055 6.21256 35.9375 6.3125L36.2578 6.33594" fill="#EF7D00"/>
<path fill-rule="evenodd" clip-rule="evenodd" d="M33.4073 5.05803C33.4184 5.03706 33.4445 5.02905 33.4654 5.04016L33.4453 5.07813L33.4252 5.11611C33.4042 5.10501 33.3962 5.079 33.4073 5.05803ZM34.7819 5.76203C34.8565 5.73003 34.9262 5.68707 34.9887 5.63441C35.003 5.62234 35.0078 5.60239 35.0006 5.5851C34.9935 5.56781 34.9759 5.55715 34.9573 5.55876C34.8522 5.56782 34.7072 5.54192 34.5449 5.49499C34.3838 5.44839 34.2102 5.38243 34.0499 5.3149C33.8897 5.24743 33.7435 5.17869 33.6373 5.12681C33.5842 5.10087 33.5412 5.07917 33.5114 5.06397C33.4966 5.05637 33.485 5.05039 33.4772 5.04633L33.4684 5.0417L33.4661 5.04053L33.4654 5.04016L33.4453 5.07813C33.4252 5.11611 33.4252 5.1161 33.4252 5.11611L33.4261 5.11655L33.4284 5.11779L33.4375 5.12255C33.4455 5.12671 33.4572 5.13278 33.4723 5.14049C33.5024 5.15589 33.5459 5.17783 33.5996 5.20402C33.7067 5.25638 33.8545 5.32583 34.0165 5.3941C34.1785 5.46231 34.3555 5.52965 34.521 5.57754C34.6296 5.60894 34.7352 5.63258 34.8294 5.64201C34.7742 5.67429 34.7148 5.69934 34.6527 5.71639C34.6351 5.72122 34.6225 5.73666 34.6212 5.75488C34.62 5.7731 34.6304 5.79012 34.6471 5.79732C34.6551 5.80071 34.6641 5.80476 34.6743 5.80931C34.7896 5.8608 35.0478 5.97612 35.418 5.93344L35.268 6.06978C35.2569 6.07981 35.2519 6.09484 35.2546 6.10949C35.2574 6.12414 35.2675 6.13632 35.2815 6.14168L35.2969 6.10157C35.2815 6.14168 35.2814 6.14167 35.2815 6.14168L35.2817 6.14176L35.282 6.14189L35.2832 6.14233C35.2842 6.14269 35.2855 6.14318 35.2873 6.1438C35.2908 6.14502 35.2958 6.14673 35.3022 6.14877C35.3151 6.15287 35.3337 6.15833 35.3573 6.16407C35.4045 6.17556 35.472 6.18822 35.554 6.19329C35.6802 6.20108 35.8412 6.19088 36.0157 6.13048C35.9764 6.18208 35.9385 6.23471 35.902 6.28833C35.8933 6.30102 35.8921 6.31737 35.8988 6.3312C35.9055 6.34503 35.9191 6.35424 35.9344 6.35536L36.2547 6.3788C36.2784 6.38053 36.2989 6.36275 36.3007 6.33908C36.3024 6.31541 36.2846 6.29482 36.261 6.29309L36.0159 6.27516C36.0707 6.19821 36.1285 6.12345 36.1892 6.05106C36.2023 6.03537 36.2026 6.01257 36.1898 5.99659C36.177 5.98061 36.1547 5.97587 36.1365 5.98528C35.9183 6.09813 35.7116 6.11691 35.5593 6.10751C35.486 6.10299 35.4254 6.09193 35.3826 6.08176L35.5836 5.89899C35.598 5.88591 35.6018 5.86481 35.5929 5.84752C35.584 5.83024 35.5646 5.82108 35.5456 5.8252C35.1923 5.90174 34.9318 5.82292 34.7819 5.76203Z" fill="black"/>
</g>
<defs>
<clipPath id="clip0_8424_43413">
<rect width="40" height="40" rx="20" fill="white"/>
</clipPath>
</defs>
</svg>
