<svg width="40" height="40" viewBox="0 0 40 40" fill="none" xmlns="http://www.w3.org/2000/svg">
<g clip-path="url(#clip0_8424_43163)">
<path d="M-11.0352 -0.00891113H71.0188V39.9821H-11.0352V-0.00891113Z" fill="#006400"/>
<path d="M-11.0352 5.70453H71.0188V34.2695H-11.0352V5.70453Z" fill="#FFD200"/>
<path d="M-11.0352 11.4175H71.0188V28.5565H-11.0352V11.4175Z" fill="#D40000"/>
<path d="M-11.0352 17.1309H71.0188V22.8439H-11.0352V17.1309Z" fill="black"/>
<path d="M-11.0352 -0.00891113V39.9821L16.3162 19.9866L-11.0352 -0.00891113Z" fill="black"/>
<path fill-rule="evenodd" clip-rule="evenodd" d="M-12 -1.9082L17.9499 19.987L-12 41.8822V-1.9082ZM-10.0712 1.89121V38.0828L14.6816 19.987L-10.0712 1.89121Z" fill="black"/>
<path d="M-11.0352 -0.00891113V39.9821L16.3162 19.9866L-11.0352 -0.00891113Z" fill="white"/>
<path d="M-0.632338 9.93213L4.78909 26.1856L-9.39453 16.1403H8.13963L-6.05376 26.1856L-0.632338 9.93213Z" fill="#D40000"/>
<path d="M-2.94704 24.1477L-1.98974 23.9763L-0.221676 23.9097L0.432803 23.9668L1.89805 24.2049L2.0055 24.062V23.0337L2.18133 22.1482L2.47438 21.2531L2.79674 20.539L3.20701 19.7963L3.87126 19.9582H4.04708L4.06662 19.8344L2.65998 18.6632L1.19473 17.5683L-0.924996 16.0257L-1.12036 15.9781L-1.34503 14.3595L-1.5111 13.8738L-1.73577 13.6834L-2.15581 13.5501L-2.62469 13.5692L-2.83959 13.6834L-3.28893 13.7786L-3.52337 13.8167L-3.67967 13.9976L-3.6992 14.2261L-3.04472 14.2452L-2.87866 14.3118L-2.8982 14.3785L-3.2694 14.4261L-3.44523 14.4832L-3.24009 14.6356L-3.02519 14.7118L-2.75167 14.807L-2.69306 14.9974L-2.67353 17.454L-2.82005 17.8349L-2.86889 18.549L-2.65399 19.4059L-3.20102 20.0153L-3.5136 20.5581L-3.57221 20.8913L-3.73828 21.2246L-3.75781 21.434L-3.65036 21.6626L-3.23032 23.0146L-3.01542 24.1287L-2.94704 24.1477Z" fill="#FFCC00"/>
<path d="M-2.43928 13.5126C-2.61511 13.5126 -2.69326 13.5316 -2.85932 13.6173C-2.99692 13.6941 -3.15051 13.7397 -3.30867 13.7506C-3.55287 13.7506 -3.74824 13.922 -3.74824 14.141V14.2838L-3.39658 14.2743C-2.36114 14.3029 -3.2989 14.3981 -3.37704 14.4076C-3.63102 14.4552 -3.31843 14.6552 -3.01562 14.7599C-2.69326 14.8551 -2.7128 14.798 -2.7128 16.1882C-2.7128 17.3212 -2.7128 17.4831 -2.81048 17.7402C-2.93747 18.1211 -2.93747 18.6924 -2.81048 19.0732C-2.75187 19.2256 -2.7128 19.3589 -2.7128 19.3874C-2.7128 19.4065 -2.86909 19.5874 -3.05469 19.7969C-3.39658 20.1777 -3.60172 20.5681 -3.60172 20.8443C-3.6139 20.9331 -3.64736 21.0179 -3.6994 21.0918C-3.82639 21.2537 -3.82639 21.5298 -3.70917 21.6346C-3.58218 21.7488 -3.06446 23.7103 -3.05469 24.0816C-3.05469 24.2149 -3.03515 24.2149 -2.24392 24.0626C-1.59921 23.9388 -0.0851166 23.9102 0.686582 24.0054C1.03824 24.0531 1.44851 24.1292 1.59504 24.1578C2.06392 24.2816 2.04438 24.3006 2.04438 23.7484C2.04797 22.8782 2.21688 22.0163 2.54257 21.2061C2.72922 20.7444 2.95466 20.2986 3.21658 19.873C3.21658 19.873 3.39241 19.8921 3.60731 19.9492C4.00781 20.0444 4.12503 20.0349 4.12503 19.854C4.12503 19.7588 3.705 19.416 1.64388 17.8545C0.812565 17.1912 -0.0444162 16.5592 -0.925193 15.9596C-0.983803 15.9596 -1.04241 15.9311 -1.05218 15.893L-1.19871 14.9884C-1.26708 14.5219 -1.36477 14.0648 -1.40384 13.9696C-1.5406 13.684 -1.80434 13.5411 -2.24392 13.5126C-2.30902 13.5105 -2.37418 13.5105 -2.43928 13.5126ZM-2.42952 13.6078H-2.23415C-1.58944 13.6459 -1.47222 13.8173 -1.29639 14.9408C-1.24894 15.2381 -1.20985 15.5365 -1.17917 15.8359C-1.17917 15.912 -1.26708 16.0072 -1.49176 16.1501C-1.86141 16.4029 -2.1906 16.7077 -2.46859 17.0546L-2.59558 17.226L-2.62488 16.8261V15.7026C-2.59558 14.8742 -2.62488 14.798 -2.8984 14.7028C-3.12307 14.6266 -3.41612 14.5504 -3.33797 14.5028C-3.24029 14.4457 -3.1426 14.4838 -2.90816 14.4171C-2.81048 14.3981 -2.82025 14.4076 -2.83979 14.3314C-2.85932 14.2077 -2.99608 14.141 -3.35751 14.16C-3.65056 14.1791 -3.67986 14.1696 -3.66033 14.0934C-3.62125 13.941 -3.46496 13.8458 -3.22075 13.8173C-3.07125 13.8004 -2.92585 13.7585 -2.79094 13.6935C-2.6819 13.6296 -2.55673 13.5966 -2.42952 13.5983V13.6078ZM-0.974035 16.0644H-0.934961C-0.768899 16.0929 4.02735 19.7493 4.02735 19.854C4.02735 19.8921 3.98828 19.9207 3.92967 19.9207C3.89059 19.9207 2.66955 19.5874 1.22384 19.178C-1.08149 18.5114 -1.41361 18.4162 -1.51129 18.2924C-1.57925 18.2088 -1.61703 18.1056 -1.61879 17.9989C-1.62056 17.8922 -1.58621 17.7879 -1.52106 17.7021C-1.47417 17.6466 -1.44077 17.5815 -1.42338 17.5117C-1.42338 17.3974 -1.66759 17.6831 -1.71643 17.8449C-1.76527 18.0354 -1.66759 18.3591 -1.52106 18.4638C-1.46245 18.5114 -1.02288 18.6543 -0.544228 18.7971C0.276312 19.0256 0.334922 19.0542 0.373995 19.1875C0.471679 19.5017 0.129787 19.873 -0.358629 19.9778C-0.541764 20.0205 -0.714403 20.0982 -0.866583 20.2063C-1.37339 20.6155 -1.93958 20.9492 -2.54674 21.1966C-2.58581 21.2251 -2.63465 21.3775 -2.66396 21.5203C-2.72257 21.8345 -2.7421 21.8821 -2.83979 21.8821C-2.88863 21.8821 -2.8984 21.8536 -2.85932 21.7488C-2.79094 21.5584 -2.80071 21.3299 -2.86909 21.3299C-2.91793 21.3299 -2.93747 21.3965 -2.93747 21.5013C-2.93747 21.5965 -2.96677 21.7107 -3.00585 21.7393C-3.05469 21.7964 -3.06446 21.7583 -3.04492 21.5203C-3.02538 21.3584 -3.03515 21.2346 -3.05469 21.2346C-3.10353 21.2346 -3.19145 21.4727 -3.22075 21.6822C-3.24029 21.8059 -3.24029 21.8059 -3.27936 21.6536C-3.30867 21.5393 -3.2989 21.4632 -3.21098 21.3203C-3.15547 21.2169 -3.12223 21.1035 -3.1133 20.9871C-3.1133 20.8633 -3.01562 20.7395 -2.5565 20.292C-2.26345 19.9968 -1.90203 19.6255 -1.77504 19.4636C-1.55037 19.197 -1.5406 19.178 -1.55037 18.9018C-1.55037 18.7495 -1.5699 18.6067 -1.58944 18.5876C-1.64805 18.5305 -1.7262 18.8352 -1.68712 18.9971C-1.66759 19.1494 -1.68712 19.197 -2.00948 19.5684C-2.2414 19.8272 -2.48589 20.075 -2.7421 20.311C-3.12307 20.6538 -3.25982 20.8443 -3.25982 21.0156C-3.25982 21.0728 -3.2989 21.2061 -3.35751 21.3299C-3.41612 21.4536 -3.43565 21.5774 -3.41612 21.606C-3.39658 21.6346 -3.41612 21.6346 -3.44542 21.606C-3.49426 21.5584 -3.49426 21.4822 -3.45519 21.3203C-3.43283 21.2397 -3.4262 21.1558 -3.43565 21.0728C-3.4845 20.9776 -3.55287 21.0918 -3.58218 21.3299C-3.60172 21.4632 -3.63102 21.5679 -3.66033 21.5489C-3.7287 21.5108 -3.70917 21.2632 -3.62125 21.1299C-3.57241 21.0633 -3.52357 20.9109 -3.49426 20.7871C-3.42589 20.4348 -3.26959 20.1492 -2.9277 19.7683C-2.81821 19.6521 -2.71391 19.5314 -2.61511 19.4065L-2.7128 19.0923C-2.84381 18.6677 -2.85058 18.2159 -2.73233 17.7878C-2.60535 17.426 -2.35137 17.0642 -1.95087 16.6738C-1.56013 16.3024 -1.17917 16.0739 -0.974035 16.0644ZM0.491215 19.1304C0.503553 19.1295 0.516044 19.1303 0.527865 19.1327C0.539686 19.1352 0.550569 19.1393 0.559797 19.1447C0.569026 19.1501 0.576389 19.1567 0.581405 19.1641C0.586421 19.1714 0.588975 19.1794 0.588898 19.1875C0.582899 19.1987 0.571681 19.2084 0.556803 19.2153C0.541924 19.2221 0.524122 19.2258 0.505867 19.2258C0.487613 19.2258 0.469811 19.2221 0.454933 19.2153C0.440054 19.2084 0.428837 19.1987 0.422837 19.1875C0.422331 19.1743 0.428864 19.1614 0.441329 19.151C0.453793 19.1406 0.471419 19.1333 0.491215 19.1304ZM0.735424 19.1589C0.747762 19.158 0.760252 19.1588 0.772073 19.1613C0.783894 19.1638 0.794777 19.1678 0.804006 19.1732C0.813234 19.1786 0.820598 19.1852 0.825613 19.1926C0.83063 19.2 0.833184 19.208 0.833107 19.2161C0.827107 19.2273 0.81589 19.237 0.801011 19.2438C0.786132 19.2507 0.768331 19.2544 0.750076 19.2544C0.731822 19.2544 0.71402 19.2507 0.699141 19.2438C0.684262 19.237 0.673045 19.2273 0.667045 19.2161C0.666539 19.2029 0.673072 19.19 0.685537 19.1796C0.698001 19.1691 0.715628 19.1618 0.735424 19.1589ZM0.9894 19.2065C1.00174 19.2056 1.01423 19.2064 1.02605 19.2089C1.03787 19.2114 1.04875 19.2154 1.05798 19.2208C1.06721 19.2262 1.07458 19.2328 1.07959 19.2402C1.08461 19.2476 1.08716 19.2556 1.08708 19.2637C1.08108 19.2749 1.06987 19.2846 1.05499 19.2914C1.04011 19.2983 1.02231 19.302 1.00405 19.302C0.985798 19.302 0.967996 19.2983 0.953117 19.2914C0.938239 19.2846 0.927022 19.2749 0.921022 19.2637C0.920516 19.2505 0.927049 19.2376 0.939513 19.2272C0.951977 19.2167 0.969604 19.2095 0.9894 19.2065ZM1.22384 19.2541C1.23618 19.2532 1.24867 19.2541 1.26049 19.2565C1.27231 19.259 1.28319 19.2631 1.29242 19.2684C1.30165 19.2738 1.30901 19.2805 1.31403 19.2878C1.31905 19.2952 1.3216 19.3032 1.32152 19.3113C1.31552 19.3225 1.30431 19.3322 1.28943 19.3391C1.27455 19.3459 1.25675 19.3496 1.23849 19.3496C1.22024 19.3496 1.20244 19.3459 1.18756 19.3391C1.17268 19.3322 1.16146 19.3225 1.15546 19.3113C1.15496 19.2981 1.16149 19.2852 1.17395 19.2748C1.18642 19.2644 1.20404 19.2571 1.22384 19.2541ZM0.608435 19.3113C0.620773 19.3104 0.633265 19.3112 0.645085 19.3137C0.656906 19.3161 0.667789 19.3202 0.677017 19.3256C0.686245 19.331 0.69361 19.3376 0.698626 19.345C0.703642 19.3523 0.706195 19.3603 0.706118 19.3684C0.700118 19.3796 0.688901 19.3893 0.674022 19.3962C0.659144 19.4031 0.641342 19.4068 0.623087 19.4068C0.604833 19.4068 0.587031 19.4031 0.572152 19.3962C0.557273 19.3893 0.546056 19.3796 0.540057 19.3684C0.53955 19.3552 0.546084 19.3423 0.558548 19.3319C0.571012 19.3215 0.588639 19.3142 0.608435 19.3113ZM0.842875 19.3494C0.855213 19.3485 0.867705 19.3493 0.879526 19.3517C0.891346 19.3542 0.902229 19.3583 0.911457 19.3637C0.920685 19.3691 0.92805 19.3757 0.933066 19.3831C0.938082 19.3904 0.940635 19.3984 0.940558 19.4065C0.934558 19.4177 0.923341 19.4274 0.908463 19.4343C0.893584 19.4411 0.875782 19.4448 0.857527 19.4448C0.839273 19.4448 0.821471 19.4411 0.806592 19.4343C0.791714 19.4274 0.780497 19.4177 0.774497 19.4065C0.773991 19.3933 0.780524 19.3804 0.792988 19.37C0.805453 19.3596 0.823079 19.3523 0.842875 19.3494ZM1.35083 19.3684C1.36317 19.3675 1.37566 19.3683 1.38748 19.3708C1.3993 19.3732 1.41018 19.3773 1.41941 19.3827C1.42864 19.3881 1.436 19.3947 1.44102 19.4021C1.44603 19.4095 1.44859 19.4175 1.44851 19.4255C1.44251 19.4367 1.43129 19.4464 1.41642 19.4533C1.40154 19.4602 1.38373 19.4639 1.36548 19.4639C1.34723 19.4639 1.32942 19.4602 1.31455 19.4533C1.29967 19.4464 1.28845 19.4367 1.28245 19.4255C1.28194 19.4123 1.28848 19.3994 1.30094 19.389C1.31341 19.3786 1.33103 19.3713 1.35083 19.3684ZM1.08708 19.3684C1.09942 19.3675 1.11191 19.3683 1.12373 19.3708C1.13555 19.3732 1.14644 19.3773 1.15567 19.3827C1.16489 19.3881 1.17226 19.3947 1.17727 19.4021C1.18229 19.4095 1.18484 19.4175 1.18477 19.4255C1.17877 19.4367 1.16755 19.4464 1.15267 19.4533C1.13779 19.4602 1.11999 19.4639 1.10174 19.4639C1.08348 19.4639 1.06568 19.4602 1.0508 19.4533C1.03592 19.4464 1.0247 19.4367 1.0187 19.4255C1.0182 19.4123 1.02473 19.3994 1.0372 19.389C1.04966 19.3786 1.06729 19.3713 1.08708 19.3684ZM1.5755 19.4255C1.58527 19.4255 1.93693 19.5017 2.35697 19.616L3.12867 19.835L2.98214 20.092C2.90027 20.2297 2.8221 20.3694 2.7477 20.511C2.65002 20.7014 2.63048 20.7014 2.1616 20.5967C1.65365 20.4824 0.852643 20.3777 0.0321035 20.311L-0.749363 20.2444L-0.456313 20.1397C-0.279369 20.0733 -0.106508 19.997 0.061408 19.9111C0.256775 19.8064 0.334922 19.7874 0.63774 19.8159C1.07732 19.8445 1.37036 19.7588 1.48758 19.5874L1.58527 19.4255H1.5755ZM0.715887 19.4827C0.728226 19.4818 0.740716 19.4826 0.752537 19.485C0.764358 19.4875 0.77524 19.4916 0.784468 19.497C0.793697 19.5024 0.801062 19.509 0.806077 19.5164C0.811093 19.5237 0.813647 19.5317 0.81357 19.5398C0.80757 19.551 0.796353 19.5607 0.781474 19.5676C0.766595 19.5744 0.748794 19.5781 0.730539 19.5781C0.712285 19.5781 0.694483 19.5744 0.679605 19.5676C0.664726 19.5607 0.653508 19.551 0.647508 19.5398C0.647002 19.5266 0.653536 19.5137 0.666 19.5033C0.678465 19.4929 0.696091 19.4856 0.715887 19.4827ZM1.26291 19.4827C1.27525 19.4818 1.28774 19.4826 1.29956 19.485C1.31138 19.4875 1.32227 19.4916 1.3315 19.497C1.34072 19.5024 1.34809 19.509 1.3531 19.5164C1.35812 19.5237 1.36067 19.5317 1.3606 19.5398C1.3532 19.5491 1.342 19.5569 1.32821 19.5624C1.31443 19.5679 1.29859 19.5707 1.28245 19.5707C1.26631 19.5707 1.25047 19.5679 1.23669 19.5624C1.2229 19.5569 1.2117 19.5491 1.2043 19.5398C1.2038 19.5266 1.21033 19.5137 1.2228 19.5033C1.23526 19.4929 1.25289 19.4856 1.27268 19.4827H1.26291ZM0.481447 19.4827C0.493785 19.4818 0.506276 19.4826 0.518096 19.485C0.529918 19.4875 0.540801 19.4916 0.550029 19.497C0.559258 19.5024 0.566621 19.509 0.571637 19.5164C0.576653 19.5237 0.579207 19.5317 0.57913 19.5398C0.573131 19.551 0.561913 19.5607 0.547034 19.5676C0.532156 19.5744 0.514354 19.5781 0.496099 19.5781C0.477845 19.5781 0.460043 19.5744 0.445164 19.5676C0.430286 19.5607 0.419068 19.551 0.413068 19.5398C0.415647 19.5283 0.423576 19.5175 0.435796 19.509C0.448016 19.5005 0.463944 19.4946 0.481447 19.4922V19.4827ZM0.999168 19.5017C1.02177 19.4999 1.04458 19.5038 1.0628 19.5127C1.08103 19.5216 1.09323 19.5347 1.09685 19.5493C1.09085 19.5605 1.07963 19.5702 1.06476 19.5771C1.04988 19.584 1.03207 19.5877 1.01382 19.5877C0.995566 19.5877 0.977764 19.584 0.962885 19.5771C0.948007 19.5702 0.93679 19.5605 0.93079 19.5493C0.933369 19.5378 0.941298 19.5271 0.953518 19.5186C0.965738 19.51 0.981665 19.5042 0.999168 19.5017ZM0.354458 19.6064C0.366797 19.6055 0.379288 19.6064 0.391109 19.6088C0.40293 19.6113 0.413812 19.6154 0.42304 19.6208C0.432269 19.6261 0.439633 19.6328 0.444649 19.6401C0.449666 19.6475 0.452219 19.6555 0.452141 19.6636C0.446142 19.6748 0.434925 19.6845 0.420046 19.6914C0.405167 19.6982 0.387365 19.7019 0.369111 19.7019C0.350856 19.7019 0.333055 19.6982 0.318176 19.6914C0.303297 19.6845 0.29208 19.6748 0.28608 19.6636C0.285574 19.6504 0.292108 19.6375 0.304572 19.6271C0.317036 19.6167 0.334662 19.6094 0.354458 19.6064ZM0.598667 19.6064C0.612342 19.6053 0.626237 19.6063 0.639227 19.6093C0.652218 19.6123 0.663941 19.6172 0.673449 19.6237C0.682957 19.6302 0.689985 19.638 0.693963 19.6466C0.697941 19.6552 0.698758 19.6643 0.69635 19.6731C0.69035 19.6843 0.679133 19.694 0.664254 19.7009C0.649375 19.7078 0.631574 19.7114 0.613319 19.7114C0.595065 19.7114 0.577263 19.7078 0.562384 19.7009C0.547505 19.694 0.536288 19.6843 0.530288 19.6731C0.529782 19.6599 0.536316 19.647 0.54878 19.6366C0.561244 19.6262 0.578871 19.6189 0.598667 19.616V19.6064ZM0.852643 19.6255C0.875244 19.6237 0.898058 19.6276 0.916279 19.6365C0.9345 19.6453 0.946705 19.6585 0.950326 19.6731C0.944326 19.6843 0.933109 19.694 0.918231 19.7009C0.903352 19.7078 0.88555 19.7114 0.867296 19.7114C0.849041 19.7114 0.831239 19.7078 0.81636 19.7009C0.801482 19.694 0.790265 19.6843 0.784265 19.6731C0.786843 19.6616 0.794774 19.6508 0.806993 19.6423C0.819213 19.6338 0.83514 19.6279 0.852643 19.6255ZM1.12616 19.6255C1.13849 19.6246 1.15099 19.6254 1.16281 19.6279C1.17463 19.6303 1.18551 19.6344 1.19474 19.6398C1.20397 19.6452 1.21133 19.6518 1.21635 19.6592C1.22136 19.6666 1.22392 19.6745 1.22384 19.6826C1.21784 19.6938 1.20662 19.7035 1.19174 19.7104C1.17687 19.7173 1.15906 19.721 1.14081 19.721C1.12255 19.721 1.10475 19.7173 1.08987 19.7104C1.075 19.7035 1.06378 19.6938 1.05778 19.6826C1.05727 19.6694 1.06381 19.6565 1.07627 19.6461C1.08873 19.6357 1.10636 19.6284 1.12616 19.6255ZM-0.856815 20.3967C0.296297 20.4265 1.4441 20.5604 2.57187 20.7966C2.58164 20.8062 2.51326 21.0347 2.40581 21.3108L2.21044 21.8821C2.20067 21.9297 2.1323 21.9297 1.96623 21.9107C1.15546 21.7869 -1.18894 21.7964 -2.08762 21.9297C-2.60535 22.0059 -2.67372 21.9964 -2.63465 21.8916L-2.53697 21.5584L-2.47836 21.3013L-1.95087 21.0347C-1.59927 20.8598 -1.26563 20.6526 -0.954498 20.4158H-0.866583L-0.856815 20.3967ZM-3.49426 21.7488C-3.46496 21.7488 -3.40635 21.7774 -3.33797 21.825C-3.24029 21.8821 -3.12307 21.9297 -3.07423 21.9297C-2.82025 21.9297 -2.68349 22.282 -2.46859 23.4532L-2.39044 23.8721C-2.37091 23.9674 -2.39044 23.9864 -2.61511 24.034C-2.88863 24.0911 -2.95701 24.1007 -2.95701 24.0626C-2.95701 23.9674 -3.23052 22.7581 -3.34774 22.3296C-3.40609 22.1409 -3.45821 21.9503 -3.50403 21.7583C-3.50255 21.7575 -3.50086 21.7571 -3.49915 21.7571C-3.49743 21.7571 -3.49575 21.7575 -3.49426 21.7583V21.7488ZM-0.700521 21.9392H-0.41724L-0.514924 22.0345C-0.680985 22.2249 -0.759131 22.2344 -0.876351 22.1106C-0.917521 22.0692 -0.95062 22.0208 -0.974035 21.9678C-0.974035 21.9488 -0.847046 21.9297 -0.700521 21.9297V21.9392ZM-0.104653 21.9392H0.422837L0.305616 22.0535C0.16886 22.2059 0.159092 22.2059 0.0125666 22.0535L-0.104653 21.9297V21.9392ZM0.69635 21.9392H0.823339C0.891717 21.9392 1.0187 21.9392 1.09685 21.9583L1.24338 21.9869L1.10662 22.1106C1.02847 22.1773 0.960094 22.2344 0.950326 22.2249L0.81357 22.0726L0.69635 21.9297V21.9392ZM1.52666 21.9678L1.64388 21.9964C1.71226 22.0154 1.85878 22.0249 1.96623 22.0345H2.1616L2.01508 22.1582C1.962 22.2065 1.90293 22.2481 1.83925 22.282C1.82948 22.282 1.74156 22.2059 1.67318 22.1202L1.52666 21.9678ZM-1.42338 21.9773H-1.40384C-1.39407 21.9964 -1.43315 22.0726 -1.50152 22.1392L-1.59921 22.2725L-1.74573 22.1582L-1.89226 22.0345L-1.65782 22.0059L-1.42338 21.9773ZM-1.19871 21.9964L-1.04241 22.1297L-0.886119 22.2725L-1.17917 22.2915L-1.47222 22.3011L-1.33546 22.1582L-1.19871 21.9964ZM0.559593 21.9964C0.588898 21.9964 0.608435 22.0059 0.63774 22.0249C0.688822 22.0718 0.731715 22.1265 0.764729 22.1868C0.803802 22.263 0.794034 22.282 0.667045 22.282L0.422837 22.2344L0.305616 22.2059L0.432605 22.0821C0.491215 22.0249 0.530289 21.9869 0.569362 21.9869L0.559593 21.9964ZM-0.251178 21.9964C-0.202336 21.9964 -0.153495 22.0249 -0.0948849 22.1202C-0.0265064 22.2249 -0.0265067 22.2249 -0.290252 22.2249H-0.553996L-0.41724 22.1011C-0.348862 22.0345 -0.290251 22.0059 -0.251178 22.0059V21.9964ZM1.40944 22.0154L1.52666 22.1297C1.66342 22.2535 1.68295 22.3296 1.58527 22.3201L1.31176 22.2915L1.09685 22.2725L1.25315 22.1487L1.40944 22.0154ZM-2.02901 22.0821C-2.00948 22.0821 -1.93133 22.1297 -1.87272 22.1963L-1.7555 22.3201L-1.99971 22.3582L-2.3416 22.4058C-2.40998 22.4249 -2.39044 22.3772 -2.24392 22.2535C-2.14623 22.1582 -2.04855 22.0821 -2.02901 22.0821ZM-2.39044 22.0821H-2.35137C-2.27322 22.1011 -2.27322 22.1202 -2.40998 22.2535L-2.5565 22.3963L-2.60535 22.2725C-2.64442 22.1773 -2.63465 22.1487 -2.54674 22.1106C-2.49669 22.0925 -2.44383 22.0829 -2.39044 22.0821ZM2.10299 22.2535C2.12253 22.2535 2.12253 22.2725 2.10299 22.3106C2.08345 22.3868 1.99554 22.4058 1.99554 22.3296C1.99554 22.3106 2.02484 22.282 2.06392 22.263H2.09322L2.10299 22.2535ZM0.0125666 22.4058C0.764728 22.4058 1.52666 22.4249 1.71226 22.4439C2.01507 22.482 2.04438 22.4915 2.04438 22.6058C2.04438 22.7391 2.00531 22.7486 1.59504 22.6819C1.47782 22.6534 0.979631 22.6153 0.500983 22.5772C-0.428002 22.5225 -1.36023 22.5543 -2.28299 22.6724C-2.46859 22.6915 -2.51743 22.6724 -2.51743 22.6153C-2.51743 22.4915 -1.52106 22.4058 0.0125666 22.4058ZM-0.993571 22.6819H-0.466082L-0.583301 22.8057C-0.729826 22.9581 -0.739594 22.9581 -0.876351 22.8057L-0.993571 22.6819ZM-0.309788 22.6819L-0.173032 22.8152L-0.0362751 22.9676L-0.319557 22.9771H-0.602838L-0.456313 22.8248L-0.319557 22.6819H-0.309788ZM-0.104653 22.6819H0.422837L0.305616 22.8057C0.16886 22.9581 0.159092 22.9581 0.0125666 22.8057L-0.104653 22.6819ZM-1.355 22.6819C-1.33546 22.6819 -1.355 22.7295 -1.42338 22.8248C-1.49176 22.9105 -1.56013 22.9771 -1.5699 22.9771C-1.58944 22.9771 -1.65782 22.92 -1.71643 22.8533L-1.83365 22.7295H-1.65782C-1.56843 22.73 -1.47949 22.7172 -1.39407 22.6915C-1.38118 22.6889 -1.36789 22.6889 -1.355 22.6915V22.6819ZM-1.15963 22.7295L-1.03264 22.8438L-0.886119 22.9676L-1.1401 22.9866L-1.42338 23.0057L-1.28662 22.8628L-1.15963 22.7295ZM0.540057 22.7295L0.676814 22.8819C0.833107 23.0438 0.823339 23.0533 0.471679 22.9866L0.305616 22.9581L0.422837 22.8438L0.540057 22.7295ZM0.735424 22.7295H0.969863C1.22384 22.7295 1.25315 22.7676 1.10662 22.9009C0.9894 22.9962 0.9894 22.9962 0.852643 22.8533L0.735424 22.7295ZM-2.25369 22.7772C-2.13647 22.7772 -2.14623 22.7867 -2.29276 22.9295C-2.40021 23.0342 -2.40998 23.0342 -2.44905 22.9581C-2.47836 22.8628 -2.39044 22.7867 -2.25369 22.7772ZM1.53643 22.7962C1.5755 22.7962 1.65365 22.7962 1.73179 22.8152L1.95647 22.8533L1.82948 22.9676L1.71226 23.0818L1.6048 22.9485L1.50712 22.7962H1.53643ZM-1.98017 22.8438C-1.95087 22.8438 -1.92156 22.8628 -1.87272 22.9105C-1.77504 23.0057 -1.77504 23.0057 -1.85318 23.0438C-1.92888 23.068 -2.00794 23.0809 -2.08762 23.0818H-2.24392L-2.11693 22.9485C-2.04855 22.8819 -2.01925 22.8533 -1.98994 22.8438H-1.98017ZM1.35083 22.8724C1.3899 22.8724 1.41921 22.8914 1.46805 22.9676L1.55596 23.0818H1.35083C1.21407 23.0818 1.15546 23.0628 1.15546 23.0247C1.175 22.9866 1.22384 22.9295 1.28245 22.9009L1.35083 22.8724ZM1.976 22.9962C1.99554 22.9962 1.99554 23.0152 1.99554 23.0438C1.99554 23.139 1.90762 23.2056 1.86855 23.139C1.85878 23.1104 1.87832 23.0628 1.91739 23.0342L1.976 22.9962ZM-0.553996 23.1104C0.295848 23.1104 1.23361 23.1675 1.7904 23.2628L1.9467 23.2913V23.7103C1.9467 24.0245 1.92716 24.1292 1.87832 24.1292L1.3899 24.034C0.260363 23.8473 -0.890384 23.8153 -2.02901 23.9388L-2.25369 23.9674L-2.3123 23.6151C-2.33657 23.4959 -2.34965 23.3748 -2.35137 23.2532C-2.35137 23.2532 -2.1267 23.2056 -1.86295 23.1771C-1.5406 23.1295 -1.06195 23.1104 -0.553996 23.1104Z" fill="black"/>
<path d="M1.15541 20.7297C0.862362 20.7297 0.657227 20.9296 0.657227 21.2248C0.657227 21.6818 1.18472 21.9104 1.4973 21.5866C1.80989 21.2629 1.59499 20.7297 1.15541 20.7297ZM1.15541 20.8439C1.20672 20.8439 1.25753 20.8538 1.30494 20.8729C1.35235 20.8921 1.39542 20.9201 1.4317 20.9555C1.46798 20.9909 1.49677 21.0328 1.5164 21.0791C1.53604 21.1253 1.54615 21.1748 1.54615 21.2248C1.54615 21.5105 1.22379 21.7009 0.960045 21.5771C0.6963 21.4343 0.715837 20.9963 0.999118 20.882C1.04518 20.8608 1.09484 20.8479 1.14564 20.8439H1.15541Z" fill="black"/>
</g>
<defs>
<clipPath id="clip0_8424_43163">
<rect width="40" height="40" rx="20" fill="white"/>
</clipPath>
</defs>
</svg>
