<svg xmlns="http://www.w3.org/2000/svg" width="80" height="80"><defs><linearGradient id="a" x1="50%" x2="50%" y1="100.845%" y2="2.104%"><stop offset="0%" stop-color="#49479c"/><stop offset="100%" stop-color="#99b9ff"/></linearGradient></defs><g fill="none" fill-rule="evenodd"><path fill="url(#a)" fill-rule="nonzero" d="M22.238 60.188q-11.322 6.677-11.379 6.617C-2.814 52.11-3.468 29.162 9.996 13.674a39.66 39.66 0 0 1 28-13.624 1.84 1.84 0 0 1 1.93 1.832l.02 8.915a1.95 1.95 0 0 1-1.897 1.956 26.97 26.97 0 0 0-18.481 9.241c-9.81 11.285-8.614 28.385 2.67 38.194"/><path fill="#8a80db" d="m15.45 55.402 4.596-11.376a1.95 1.95 0 0 1 2.54-1.079l8.14 3.29c1 .403 1.483 1.54 1.08 2.54l-5.967 14.766q-.364.9-.864 1.695a8.78 8.78 0 0 1-7.624 4.42 8.76 8.76 0 0 1-6.63-3.024l-.014-.006-.64-.718a39.5 39.5 0 0 1-6.252-9.664 6.35 6.35 0 0 0 4.845 3.377l.002-.013a6.344 6.344 0 0 0 6.755-4.149.3.3 0 0 1 .032-.059z"/><path fill="url(#a)" fill-rule="nonzero" d="M22.238 60.188q-11.322 6.677-11.379 6.617C-2.814 52.11-3.468 29.162 9.996 13.674a39.66 39.66 0 0 1 28-13.624 1.84 1.84 0 0 1 1.93 1.832l.02 8.915a1.95 1.95 0 0 1-1.897 1.956 26.97 26.97 0 0 0-18.481 9.241c-9.81 11.285-8.614 28.385 2.67 38.194" transform="rotate(180 40 40)"/><path fill="#8a80db" d="m64.55 24.598-4.596 11.376a1.95 1.95 0 0 1-2.54 1.079l-8.14-3.29a1.95 1.95 0 0 1-1.08-2.54l5.967-14.766q.364-.9.864-1.695a8.78 8.78 0 0 1 7.624-4.42 8.76 8.76 0 0 1 6.63 3.024l.014.006.64.718a39.5 39.5 0 0 1 6.252 9.664 6.35 6.35 0 0 0-4.845-3.377l-.002.013a6.344 6.344 0 0 0-6.755 4.149.3.3 0 0 1-.032.059z"/></g></svg>