<svg width="24" height="24" viewBox="0 0 24 24" fill="none" xmlns="http://www.w3.org/2000/svg">
<path d="M12 21.3599C17.256 21.3599 21.36 17.0879 21.36 11.9999C21.36 6.76789 17.232 2.63989 12 2.63989C6.76802 2.63989 2.64001 6.76789 2.64001 11.9999C2.64001 17.2319 6.76802 21.3599 12 21.3599ZM4.56001 11.9999C4.56001 7.82389 7.82402 4.55989 12 4.55989C16.176 4.55989 19.44 7.82389 19.44 11.9999C19.44 16.0559 16.176 19.4399 12 19.4399C7.82402 19.4399 4.56001 16.1759 4.56001 11.9999ZM8.23202 13.4159C8.18402 15.2159 9.48002 16.5359 11.352 16.7759V17.9759H12.672V16.7759C14.496 16.5359 15.792 15.3359 15.792 13.7759C15.792 12.3119 14.784 11.4719 13.104 11.2319L11.544 11.0159C10.608 10.8959 10.248 10.6559 10.248 9.93589C10.248 8.97589 10.824 8.73589 12.024 8.73589C13.368 8.73589 13.752 9.07189 13.728 10.2719H15.576C15.576 8.71189 14.352 7.43989 12.672 7.17589V5.97589H11.352V7.17589C9.64802 7.41589 8.49602 8.59189 8.49602 10.0559C8.49602 11.4719 9.36002 12.2879 10.92 12.5039L12.48 12.7199C13.56 12.8639 13.92 13.1279 13.92 13.9199C13.92 14.9279 13.416 15.1919 12.024 15.1919C10.44 15.1919 10.008 14.8079 10.032 13.4159H8.23202Z" fill="black"/>
</svg>
