<svg width="24" height="24" viewBox="0 0 24 24" fill="none" xmlns="http://www.w3.org/2000/svg">
<path d="M12.0001 21.3599C17.2561 21.3599 21.3601 17.0879 21.3601 11.9999C21.3601 6.76789 17.2321 2.63989 12.0001 2.63989C6.76814 2.63989 2.64014 6.76789 2.64014 11.9999C2.64014 17.2319 6.76814 21.3599 12.0001 21.3599ZM4.56014 11.9999C4.56014 7.82389 7.82414 4.55989 12.0001 4.55989C16.1761 4.55989 19.4401 7.82389 19.4401 11.9999C19.4401 16.0559 16.1761 19.4399 12.0001 19.4399C7.82414 19.4399 4.56014 16.1759 4.56014 11.9999ZM8.23214 13.4159C8.18414 15.2159 9.48014 16.5359 11.3521 16.7759V17.9759H12.6721V16.7759C14.4961 16.5359 15.7921 15.3359 15.7921 13.7759C15.7921 12.3119 14.7841 11.4719 13.1041 11.2319L11.5441 11.0159C10.6081 10.8959 10.2481 10.6559 10.2481 9.93589C10.2481 8.97589 10.8241 8.73589 12.0241 8.73589C13.3681 8.73589 13.7521 9.07189 13.7281 10.2719H15.5761C15.5761 8.71189 14.3521 7.43989 12.6721 7.17589V5.97589H11.3521V7.17589C9.64814 7.41589 8.49614 8.59189 8.49614 10.0559C8.49614 11.4719 9.36014 12.2879 10.9201 12.5039L12.4801 12.7199C13.5601 12.8639 13.9201 13.1279 13.9201 13.9199C13.9201 14.9279 13.4161 15.1919 12.0241 15.1919C10.4401 15.1919 10.0081 14.8079 10.0321 13.4159H8.23214Z" fill="black"/>
</svg>
