<svg width="24" height="24" viewBox="0 0 24 24" fill="none" xmlns="http://www.w3.org/2000/svg">
<path d="M2.64018 12H4.46418V7.00795H19.1522C18.6962 7.41595 18.2642 7.79995 17.8562 8.20795L16.8002 9.28795L17.9762 10.464L22.3202 6.09595L17.9762 1.75195L16.8002 2.95195L17.8562 4.00795C18.2402 4.39195 18.6722 4.79995 19.1042 5.18395H2.64018V12ZM1.68018 17.904L6.02418 22.248L7.20018 21.048L6.14418 19.992C5.76018 19.608 5.32818 19.2 4.89618 18.816H21.3602V12H19.5362V16.992H4.84818C5.30418 16.584 5.73618 16.2 6.14418 15.792L7.20018 14.712L6.02418 13.536L1.68018 17.904Z" fill="black"/>
</svg>
