<svg width="24" height="24" viewBox="0 0 24 24" fill="none" xmlns="http://www.w3.org/2000/svg">
<path d="M19.7282 20.4721C21.1442 20.4721 22.2962 19.3201 22.2962 17.9041C22.2962 16.4881 21.1442 15.3361 19.7282 15.3361C19.0802 15.3361 18.5042 15.5761 18.0482 15.9601L15.7922 14.6401C15.9122 14.3041 15.9602 13.9441 15.9602 13.5841C15.9602 11.6641 14.4242 10.1281 12.5042 10.1281C12.2402 10.1281 12.0002 10.1521 11.7602 10.2001L10.6802 7.94408C11.1602 7.48808 11.4722 6.81608 11.4722 6.09608C11.4722 4.68008 10.3202 3.52808 8.90418 3.52808C7.48818 3.52808 6.33618 4.68008 6.33618 6.09608C6.33618 7.51208 7.48818 8.66408 8.90418 8.66408C9.02418 8.66408 9.16818 8.66408 9.28818 8.64008L10.3442 10.8961C9.57618 11.5201 9.07218 12.5041 9.07218 13.5841C9.07218 15.5041 10.5842 17.0161 12.5042 17.0161C13.4882 17.0161 14.3762 16.6081 15.0002 15.9601L17.2322 17.3041C17.1842 17.4961 17.1602 17.6881 17.1602 17.9041C17.1602 19.3201 18.3122 20.4721 19.7282 20.4721ZM1.68018 13.5841C1.68018 14.7121 2.61618 15.6481 3.74418 15.6481C4.89618 15.6481 5.80818 14.7121 5.80818 13.5841C5.80818 12.4081 4.89618 11.5201 3.74418 11.5201C2.61618 11.5201 1.68018 12.4081 1.68018 13.5841ZM6.60018 14.2321H8.20818V12.9121H6.60018V14.2321ZM7.89618 6.09608C7.89618 5.54408 8.35218 5.08808 8.90418 5.08808C9.45618 5.08808 9.91218 5.54408 9.91218 6.09608C9.91218 6.64808 9.45618 7.10408 8.90418 7.10408C8.35218 7.10408 7.89618 6.64808 7.89618 6.09608ZM10.7522 13.5841C10.7522 12.6001 11.5202 11.8081 12.5042 11.8081C13.4882 11.8081 14.2802 12.6001 14.2802 13.5841C14.2802 14.5681 13.4882 15.3361 12.5042 15.3361C11.5202 15.3361 10.7522 14.5681 10.7522 13.5841ZM15.7922 10.3441L16.5602 11.4001L18.1202 10.2481L17.3522 9.19208L15.7922 10.3441ZM18.1922 7.87208C18.1922 9.02408 19.1282 9.96008 20.2562 9.96008C21.4322 9.96008 22.3202 9.02408 22.3202 7.87208C22.3202 6.72008 21.4322 5.80808 20.2562 5.80808C19.1282 5.80808 18.1922 6.72008 18.1922 7.87208ZM18.7202 17.9041C18.7202 17.3521 19.1762 16.8961 19.7282 16.8961C20.2802 16.8961 20.7362 17.3521 20.7362 17.9041C20.7362 18.4561 20.2802 18.9121 19.7282 18.9121C19.1762 18.9121 18.7202 18.4561 18.7202 17.9041Z" fill="black"/>
</svg>
