<svg width="24" height="24" viewBox="0 0 24 24" fill="none" xmlns="http://www.w3.org/2000/svg">
<path d="M19.7281 20.4721C21.1441 20.4721 22.2961 19.3201 22.2961 17.9041C22.2961 16.4881 21.1441 15.3361 19.7281 15.3361C19.0801 15.3361 18.5041 15.5761 18.0481 15.9601L15.7921 14.6401C15.9121 14.3041 15.9601 13.9441 15.9601 13.5841C15.9601 11.6641 14.4241 10.1281 12.5041 10.1281C12.2401 10.1281 12.0001 10.1521 11.7601 10.2001L10.6801 7.94408C11.1601 7.48808 11.4721 6.81608 11.4721 6.09608C11.4721 4.68008 10.3201 3.52808 8.90405 3.52808C7.48805 3.52808 6.33605 4.68008 6.33605 6.09608C6.33605 7.51208 7.48805 8.66408 8.90405 8.66408C9.02405 8.66408 9.16805 8.66408 9.28805 8.64008L10.3441 10.8961C9.57605 11.5201 9.07205 12.5041 9.07205 13.5841C9.07205 15.5041 10.5841 17.0161 12.5041 17.0161C13.4881 17.0161 14.3761 16.6081 15.0001 15.9601L17.2321 17.3041C17.1841 17.4961 17.1601 17.6881 17.1601 17.9041C17.1601 19.3201 18.3121 20.4721 19.7281 20.4721ZM1.68005 13.5841C1.68005 14.7121 2.61605 15.6481 3.74405 15.6481C4.89605 15.6481 5.80805 14.7121 5.80805 13.5841C5.80805 12.4081 4.89605 11.5201 3.74405 11.5201C2.61605 11.5201 1.68005 12.4081 1.68005 13.5841ZM6.60005 14.2321H8.20805V12.9121H6.60005V14.2321ZM7.89605 6.09608C7.89605 5.54408 8.35205 5.08808 8.90405 5.08808C9.45605 5.08808 9.91205 5.54408 9.91205 6.09608C9.91205 6.64808 9.45605 7.10408 8.90405 7.10408C8.35205 7.10408 7.89605 6.64808 7.89605 6.09608ZM10.7521 13.5841C10.7521 12.6001 11.5201 11.8081 12.5041 11.8081C13.4881 11.8081 14.2801 12.6001 14.2801 13.5841C14.2801 14.5681 13.4881 15.3361 12.5041 15.3361C11.5201 15.3361 10.7521 14.5681 10.7521 13.5841ZM15.7921 10.3441L16.5601 11.4001L18.1201 10.2481L17.3521 9.19208L15.7921 10.3441ZM18.1921 7.87208C18.1921 9.02408 19.1281 9.96008 20.2561 9.96008C21.4321 9.96008 22.3201 9.02408 22.3201 7.87208C22.3201 6.72008 21.4321 5.80808 20.2561 5.80808C19.1281 5.80808 18.1921 6.72008 18.1921 7.87208ZM18.7201 17.9041C18.7201 17.3521 19.1761 16.8961 19.7281 16.8961C20.2801 16.8961 20.7361 17.3521 20.7361 17.9041C20.7361 18.4561 20.2801 18.9121 19.7281 18.9121C19.1761 18.9121 18.7201 18.4561 18.7201 17.9041Z" fill="black"/>
</svg>
