<svg width="24" height="24" viewBox="0 0 24 24" fill="none" xmlns="http://www.w3.org/2000/svg">
<path d="M11.088 9.93589V17.0399H12.912V9.88789C13.32 10.3439 13.704 10.7759 14.112 11.1839L15.192 12.2399L16.368 11.0639L12 6.71989L7.65602 11.0639L8.85602 12.2399L9.91202 11.1839C10.296 10.7999 10.704 10.3679 11.088 9.93589ZM2.64001 11.9999C2.64001 17.2319 6.76802 21.3599 12 21.3599C17.256 21.3599 21.36 17.0879 21.36 11.9999C21.36 6.76789 17.232 2.63989 12 2.63989C6.76802 2.63989 2.64001 6.76789 2.64001 11.9999ZM4.56001 11.9999C4.56001 7.82389 7.82402 4.55989 12 4.55989C16.176 4.55989 19.44 7.82389 19.44 11.9999C19.44 16.0559 16.176 19.4399 12 19.4399C7.82402 19.4399 4.56001 16.1759 4.56001 11.9999Z" fill="black"/>
</svg>
