<svg width="24" height="24" viewBox="0 0 24 24" fill="none" xmlns="http://www.w3.org/2000/svg">
<path d="M9.62402 15.7919H15.792V9.64789H14.112V11.1599C14.112 11.6879 14.112 12.2879 14.16 12.8639L9.14402 7.84789L7.84802 9.14389L12.888 14.1839C12.288 14.1599 11.712 14.1119 11.136 14.1119L9.62402 14.1359V15.7919ZM2.64001 11.9999C2.64001 17.2319 6.76802 21.3599 12 21.3599C17.256 21.3599 21.36 17.0879 21.36 11.9999C21.36 6.76789 17.232 2.63989 12 2.63989C6.76802 2.63989 2.64001 6.76789 2.64001 11.9999ZM4.56001 11.9999C4.56001 7.82389 7.82402 4.55989 12 4.55989C16.176 4.55989 19.44 7.82389 19.44 11.9999C19.44 16.0559 16.176 19.4399 12 19.4399C7.82402 19.4399 4.56001 16.1759 4.56001 11.9999Z" fill="black"/>
</svg>
