<svg width="24" height="24" viewBox="0 0 24 24" fill="none" xmlns="http://www.w3.org/2000/svg">
<path d="M18.1438 15.5761V17.4241C20.5438 17.0641 22.3438 15.0721 22.3438 12.6241C22.3438 10.2241 20.6158 8.37612 18.4078 7.92012C17.9518 5.11212 15.3838 3.12012 12.5278 3.12012C10.3918 3.12012 8.39976 4.22412 7.39176 6.07212C4.39176 6.12012 1.65576 8.52012 1.65576 11.7601C1.65576 14.2081 3.21576 16.3441 5.61576 17.1601V15.1921C4.39176 14.5441 3.57576 13.2481 3.57576 11.7601C3.57576 9.09612 6.21576 7.24812 8.66376 8.06412C9.04776 6.12012 10.7038 4.92012 12.5278 4.92012C14.9278 4.92012 17.0158 7.00812 16.4878 9.67212C18.5278 9.24012 20.4238 10.5601 20.4238 12.6241C20.4238 14.0401 19.4878 15.2641 18.1438 15.5761ZM7.60776 16.5361L11.9758 20.8801L16.3198 16.5361L15.1198 15.3601L14.0638 16.4161C13.6798 16.8001 13.2718 17.2321 12.8878 17.6641V11.5201H11.0638V17.7121C10.6558 17.2561 10.2718 16.8241 9.86376 16.4161L8.78376 15.3601L7.60776 16.5361Z" fill="black"/>
</svg>
