<svg width="24" height="24" viewBox="0 0 24 24" fill="none" xmlns="http://www.w3.org/2000/svg">
<path d="M9.6478 21.3719C13.5838 21.3719 16.6798 20.0999 16.6798 17.8679V16.4279C19.3918 16.0439 21.4078 14.8919 21.4078 13.0919V6.10793C21.4078 3.87593 18.4078 2.62793 14.3758 2.62793C10.5118 2.62793 7.3198 3.85193 7.3198 6.10793V7.54793C4.5838 7.95593 2.5918 9.08393 2.5918 10.8839V17.8679C2.5918 20.0999 5.6398 21.3719 9.6478 21.3719ZM4.2718 17.8679V16.8119C5.5438 17.5319 7.4638 17.9159 9.6478 17.9159C11.8078 17.9159 13.7278 17.5319 14.9998 16.8119V17.8679C14.9998 18.8759 13.0798 19.6919 9.6478 19.6919C6.1438 19.6919 4.2718 18.8759 4.2718 17.8679ZM4.2718 14.4119V13.2839C5.5438 14.0039 7.4638 14.3879 9.6478 14.3879C11.8078 14.3879 13.7278 14.0039 14.9998 13.2839V14.4119C14.9998 15.4199 13.0798 16.2359 9.6478 16.2359C6.1438 16.2359 4.2718 15.4199 4.2718 14.4119ZM4.2718 10.8839C4.2718 9.87593 6.2158 9.08393 9.6478 9.08393C13.1758 9.08393 14.9998 9.87593 14.9998 10.8839C14.9998 11.8919 13.0798 12.7079 9.6478 12.7079C6.1438 12.7079 4.2718 11.8919 4.2718 10.8839ZM8.9998 6.10793C8.9998 5.09993 10.9438 4.30793 14.3758 4.30793C17.9038 4.30793 19.7278 5.09993 19.7278 6.10793C19.7278 7.11593 17.3278 8.17193 13.6558 7.90793C12.7198 7.64393 11.6398 7.47593 10.4398 7.42793C9.4798 7.09193 8.9998 6.61193 8.9998 6.10793ZM16.2238 9.51593C17.6158 9.34793 18.8398 9.01193 19.7278 8.50793V9.63593C19.7278 10.3799 18.7198 11.0039 16.6798 11.2919V10.8839C16.6798 10.3799 16.5118 9.92393 16.2238 9.51593ZM16.6798 14.7479V12.9719C17.8558 12.8039 18.9118 12.4919 19.7278 12.0359V13.0919C19.7278 13.8359 18.7198 14.4599 16.6798 14.7479Z" fill="black"/>
</svg>
