<svg width="24" height="24" viewBox="0 0 24 24" fill="none" xmlns="http://www.w3.org/2000/svg">
<path d="M3.35999 11.9999C3.35999 17.4719 6.26399 22.3199 10.44 22.3199H13.632C17.712 22.3199 20.64 17.5439 20.64 11.9999C20.64 6.45593 17.712 1.67993 13.632 1.67993H10.44C6.26399 1.67993 3.35999 6.52793 3.35999 11.9999ZM5.27999 11.9999C5.27999 7.36793 7.58399 3.59993 10.44 3.59993C13.224 3.59993 15.576 7.36793 15.576 11.9999C15.576 16.6319 13.224 20.3999 10.44 20.3999C7.58399 20.3999 5.27999 16.6319 5.27999 11.9999ZM14.112 20.3519C15.96 18.5759 17.136 15.4559 17.136 11.9999C17.136 8.54393 15.96 5.42393 14.112 3.64793C16.68 4.03193 18.72 7.63193 18.72 11.9999C18.72 16.3679 16.68 19.9679 14.112 20.3519Z" fill="black"/>
</svg>
