<svg width="24" height="24" viewBox="0 0 24 24" fill="none" xmlns="http://www.w3.org/2000/svg">
<path d="M2.64014 4.17598V17.904L7.10414 14.496H17.5201V4.17598C17.5201 3.19198 16.7041 2.37598 15.7201 2.37598H4.44014C3.45614 2.37598 2.64014 3.19198 2.64014 4.17598ZM4.56014 14.112V4.22398C4.56014 4.19998 4.58414 4.17598 4.60814 4.17598H15.5521C15.5761 4.17598 15.6001 4.19998 15.6001 4.22398V12.696H6.43214L4.56014 14.112ZM7.75214 9.19198C7.72814 10.248 8.54414 11.088 9.69614 11.256V11.976H10.5361V11.256C11.6401 11.088 12.4801 10.344 12.4801 9.43198C12.4801 8.56798 11.8801 8.01598 10.8001 7.87198L9.84014 7.75198C9.31214 7.67998 9.09614 7.53598 9.09614 7.17598C9.09614 6.71998 9.40814 6.55198 10.1281 6.55198C10.8961 6.55198 11.1121 6.71998 11.0881 7.36798H12.3361C12.3361 6.45598 11.5681 5.66398 10.5361 5.49598V4.77598H9.69614V5.49598C8.64014 5.66398 7.92014 6.38398 7.92014 7.27198C7.92014 8.13598 8.42414 8.63998 9.40814 8.75998L10.3921 8.87998C10.9921 8.95198 11.1841 9.09598 11.1841 9.50398C11.1841 10.008 10.9201 10.176 10.1041 10.176C9.19214 10.176 8.97614 9.98398 8.97614 9.19198H7.75214ZM7.92014 16.416C7.92014 17.4 8.73614 18.216 9.72014 18.216H16.8961L21.3601 21.624V8.37598C21.3601 7.34398 20.4961 6.45598 19.4401 6.45598V8.37598V8.85598V17.832L17.5681 16.416H10.3201H9.84014H7.92014Z" fill="black"/>
</svg>
