<svg width="24" height="24" viewBox="0 0 24 24" fill="none" xmlns="http://www.w3.org/2000/svg">
<path d="M2.64001 4.17598V17.904L7.10402 14.496H17.52V4.17598C17.52 3.19198 16.704 2.37598 15.72 2.37598H4.44001C3.45601 2.37598 2.64001 3.19198 2.64001 4.17598ZM4.56001 14.112V4.22398C4.56001 4.19998 4.58401 4.17598 4.60801 4.17598H15.552C15.576 4.17598 15.6 4.19998 15.6 4.22398V12.696H6.43201L4.56001 14.112ZM7.75202 9.19198C7.72802 10.248 8.54402 11.088 9.69602 11.256V11.976H10.536V11.256C11.64 11.088 12.48 10.344 12.48 9.43198C12.48 8.56798 11.88 8.01598 10.8 7.87198L9.84002 7.75198C9.31202 7.67998 9.09602 7.53598 9.09602 7.17598C9.09602 6.71998 9.40802 6.55198 10.128 6.55198C10.896 6.55198 11.112 6.71998 11.088 7.36798H12.336C12.336 6.45598 11.568 5.66398 10.536 5.49598V4.77598H9.69602V5.49598C8.64002 5.66398 7.92002 6.38398 7.92002 7.27198C7.92002 8.13598 8.42402 8.63998 9.40802 8.75998L10.392 8.87998C10.992 8.95198 11.184 9.09598 11.184 9.50398C11.184 10.008 10.92 10.176 10.104 10.176C9.19202 10.176 8.97602 9.98398 8.97602 9.19198H7.75202ZM7.92002 16.416C7.92002 17.4 8.73602 18.216 9.72002 18.216H16.896L21.36 21.624V8.37598C21.36 7.34398 20.496 6.45598 19.44 6.45598V8.37598V8.85598V17.832L17.568 16.416H10.32H9.84002H7.92002Z" fill="black"/>
</svg>
