<svg width="24" height="24" viewBox="0 0 24 24" fill="none" xmlns="http://www.w3.org/2000/svg">
<path d="M2.64014 4.77607V17.3041L7.10414 13.8961H17.5201V4.77607C17.5201 3.79207 16.7041 2.97607 15.7201 2.97607H4.44014C3.45614 2.97607 2.64014 3.79207 2.64014 4.77607ZM4.56014 13.5121V4.82407C4.56014 4.80007 4.58414 4.77607 4.60814 4.77607H15.5521C15.5761 4.77607 15.6001 4.80007 15.6001 4.82407V12.0961H6.43214L4.56014 13.5121ZM7.92014 15.8161C7.92014 16.8001 8.73614 17.6161 9.72014 17.6161H16.8961L21.3601 21.0241V8.73607C21.3601 7.70407 20.4961 6.81607 19.4401 6.81607V8.73607V9.21607V17.2321L17.5681 15.8161H10.3201H9.84014H7.92014Z" fill="black"/>
</svg>
