<svg width="24" height="24" viewBox="0 0 24 24" fill="none" xmlns="http://www.w3.org/2000/svg">
<path d="M5.18414 20.4001H18.8161C18.7201 19.4641 17.9281 18.7201 16.9201 18.7201H14.9761L14.4721 16.3201H19.5601C20.5441 16.3201 21.3601 15.5041 21.3601 14.5201V5.4001C21.3601 4.4161 20.5441 3.6001 19.5601 3.6001H4.44014C3.45614 3.6001 2.64014 4.4161 2.64014 5.4001V14.5201C2.64014 15.5041 3.45614 16.3201 4.44014 16.3201H9.52814L9.02414 18.7201H7.08014C6.12014 18.7201 5.30414 19.4641 5.18414 20.4001ZM4.56014 14.4721V5.4481C4.56014 5.4241 4.58414 5.4001 4.60814 5.4001H19.3921C19.4161 5.4001 19.4401 5.4241 19.4401 5.4481V14.4721C19.4401 14.4961 19.4161 14.5201 19.3921 14.5201H4.60814C4.58414 14.5201 4.56014 14.4961 4.56014 14.4721ZM10.6321 18.7201L11.1361 16.3201H12.8641L13.3681 18.7201H10.6321Z" fill="black"/>
</svg>
