<svg width="24" height="24" viewBox="0 0 24 24" fill="none" xmlns="http://www.w3.org/2000/svg">
<path d="M5.40001 21.3599H12V19.5599H5.56801C5.54401 19.5599 5.52001 19.5359 5.52001 19.5119V4.48789C5.52001 4.46389 5.54401 4.43989 5.56801 4.43989H15.672C15.696 4.43989 15.72 4.46389 15.72 4.48789V6.35989H17.64V4.43989C17.64 3.45589 16.824 2.63989 15.84 2.63989H5.40001C4.41601 2.63989 3.60001 3.45589 3.60001 4.43989V19.5599C3.60001 20.5439 4.41601 21.3599 5.40001 21.3599ZM14.04 21.3599H20.4V8.39989H14.04V21.3599ZM15.84 19.5599V10.1999H18.6V19.5599H15.84Z" fill="black"/>
</svg>
