<svg width="24" height="24" viewBox="0 0 24 24" fill="none" xmlns="http://www.w3.org/2000/svg">
<path d="M4.464 19.9201H11.76V18.2401H9.912L10.416 15.8401H11.76V14.0401H3.888C3.864 14.0401 3.84 14.0161 3.84 13.9921V4.96812C3.84 4.94412 3.864 4.92012 3.888 4.92012H18.672C18.696 4.92012 18.72 4.94412 18.72 4.96812V6.12012H20.64V4.92012C20.64 3.93612 19.824 3.12012 18.84 3.12012H3.72C2.736 3.12012 1.92 3.93612 1.92 4.92012V14.0401C1.92 15.0241 2.736 15.8401 3.72 15.8401H8.808L8.304 18.2401H6.36C5.4 18.2401 4.584 18.9841 4.464 19.9201ZM13.32 19.0801C13.32 20.0641 14.136 20.8801 15.12 20.8801H20.28C21.264 20.8801 22.08 20.0641 22.08 19.0801V9.60012C22.08 8.61612 21.264 7.80012 20.28 7.80012H15.12C14.136 7.80012 13.32 8.61612 13.32 9.60012V19.0801ZM15.12 19.1521V9.52812C15.12 9.50412 15.144 9.48012 15.168 9.48012H20.232C20.256 9.48012 20.28 9.50412 20.28 9.52812V19.1521C20.28 19.1761 20.256 19.2001 20.232 19.2001H15.168C15.144 19.2001 15.12 19.1761 15.12 19.1521ZM16.92 17.6881C16.92 18.1201 17.256 18.4801 17.712 18.4801C18.144 18.4801 18.48 18.1201 18.48 17.6881C18.48 17.2561 18.144 16.9201 17.712 16.9201C17.256 16.9201 16.92 17.2561 16.92 17.6881Z" fill="black"/>
</svg>
