<svg width="24" height="24" viewBox="0 0 24 24" fill="none" xmlns="http://www.w3.org/2000/svg">
<path d="M12.0697 21.7946L14.3017 19.5626C15.2857 18.2426 14.4937 15.7706 12.0937 13.1306L13.0297 12.1946C15.6697 14.6426 18.0457 15.4826 19.5577 14.3066L21.7897 12.0746C23.0617 10.4186 21.9577 7.77861 19.0777 4.92261C16.2217 2.04261 13.5817 0.938605 11.9257 2.21061L9.69375 4.44261C8.51774 5.9546 9.35775 8.33061 11.8057 10.9706L10.8697 11.9066C8.22974 9.5066 5.75774 8.7146 4.43774 9.6986L2.20574 11.9306C0.957744 13.5626 2.01374 16.2026 4.91774 19.0826C7.79774 21.9866 10.4377 23.0426 12.0697 21.7946ZM3.52574 13.0826L4.24574 12.3626C4.38974 13.6826 5.46974 15.2186 7.12574 16.8746C8.78174 18.5306 10.3177 19.6106 11.6377 19.7546L10.9177 20.4746C10.1737 20.9306 8.20574 19.8986 6.14174 17.8586C4.10174 15.7946 3.06974 13.8266 3.52574 13.0826ZM5.58974 11.0186C6.28574 10.6106 7.94174 11.4026 9.74175 13.0346L8.56574 14.2106C8.46974 14.3066 8.58974 14.6906 8.97375 15.0266C9.30975 15.4106 9.69375 15.5306 9.78975 15.4346L10.9657 14.2586C12.5977 16.0586 13.3897 17.7146 12.9817 18.4106C12.4057 18.9866 10.2217 17.8586 8.20574 15.7946C6.14174 13.7786 5.01374 11.5946 5.58974 11.0186ZM11.0137 5.59461L11.7097 4.89861C11.8777 6.19461 12.9577 7.75461 14.6137 9.3866C16.2457 11.0426 17.8057 12.1226 19.1017 12.2906L18.4057 12.9866C17.6617 13.4426 15.6697 12.4106 13.6297 10.3706C11.5897 8.33061 10.5577 6.33861 11.0137 5.59461ZM13.0777 3.53061C13.8457 3.07461 15.7897 4.10661 17.8537 6.14661C19.8937 8.21061 20.9257 10.1546 20.4697 10.9226C19.8697 11.5226 17.7097 10.3706 15.6697 8.33061C13.6297 6.29061 12.4777 4.13061 13.0777 3.53061ZM15.8857 6.67461C15.7897 6.79461 15.9577 7.22661 16.3657 7.63461C16.7737 8.04261 17.2057 8.21061 17.3257 8.11461L17.9977 7.49061C18.1177 7.39461 17.9017 6.93861 17.4697 6.53061C17.0377 6.12261 16.6057 5.88261 16.5097 6.00261L15.8857 6.67461Z" fill="black"/>
</svg>
