<svg width="24" height="24" viewBox="0 0 24 24" fill="none" xmlns="http://www.w3.org/2000/svg">
<path d="M10.416 16.7039H10.464C12.456 16.7039 13.992 15.5279 13.992 13.9919C13.992 13.0559 13.44 12.2639 12.552 11.9999V11.7119C13.224 11.4479 13.68 10.7279 13.68 9.93589C13.68 8.47189 12.216 7.34389 10.44 7.34389H10.416C8.64001 7.34389 7.17601 8.47189 7.17601 9.93589C7.17601 10.7519 7.65601 11.4719 8.35201 11.7359V11.9999C7.46401 12.2639 6.88801 13.0319 6.88801 13.9919C6.88801 15.5279 8.42401 16.7039 10.416 16.7039ZM4.20001 21.3599H10.44C15.696 21.3599 19.8 17.0879 19.8 11.9999C19.8 6.76789 15.672 2.63989 10.44 2.63989H4.20001V4.55989H10.44C14.616 4.55989 17.88 7.82389 17.88 11.9999C17.88 16.0559 14.616 19.4399 10.44 19.4399H4.20001V21.3599ZM8.92801 14.2079V13.6319C8.92801 13.0319 9.33601 12.7919 10.344 12.7919H10.584C11.616 12.7919 12.024 13.0319 12.024 13.6319V14.2079C12.024 14.8079 11.616 15.0239 10.584 15.0239H10.344C9.33601 15.0239 8.92801 14.8079 8.92801 14.2079ZM9.02401 10.3919V9.81589C9.02401 9.26389 9.38401 9.04789 10.32 9.04789H10.536C11.448 9.04789 11.832 9.26389 11.832 9.81589V10.3919C11.832 10.9439 11.448 11.1599 10.536 11.1599H10.32C9.38401 11.1599 9.02401 10.9439 9.02401 10.3919Z" fill="black"/>
</svg>
