<svg width="24" height="24" viewBox="0 0 24 24" fill="none" xmlns="http://www.w3.org/2000/svg">
<path d="M1.67999 21.3599H7.67999V15.3599H5.51999V12.8399H11.16V15.3599H8.99999V21.3599H15V15.3599H12.84V12.8399H18.48V15.3599H16.32V21.3599H22.32V15.3599H20.16V11.1599H12.84V8.63989H15V2.63989H8.99999V8.63989H11.16V11.1599H3.83999V15.3599H1.67999V21.3599ZM3.35999 19.7519V16.9679H5.99999V19.7519H3.35999ZM10.68 19.7519V16.9679H13.32V19.7519H10.68ZM10.68 7.03189V4.24789H13.32V7.03189H10.68ZM18 19.7519V16.9679H20.64V19.7519H18Z" fill="black"/>
</svg>
