<svg width="24" height="24" viewBox="0 0 24 24" fill="none" xmlns="http://www.w3.org/2000/svg">
<path d="M11.9998 16.7039C13.9438 16.7039 15.3358 15.4079 15.3358 13.6319C15.3358 11.9279 14.0878 10.5839 12.4078 10.5839C11.7838 10.5839 11.2558 10.7759 10.8958 11.1119H10.6078L10.8958 9.21589H14.8078V7.58389H9.40777L8.95177 12.7439H10.6318C10.8478 12.3359 11.1598 12.1919 11.9038 12.1919H12.0238C13.0558 12.1919 13.4158 12.4559 13.4158 13.2719V13.9439C13.4158 14.7839 13.0798 15.0479 12.0478 15.0479H11.9278C10.8478 15.0479 10.5358 14.7359 10.4878 13.7519H8.59177C8.59177 15.4559 10.0318 16.7039 11.9998 16.7039ZM5.75977 21.3599H18.2398V19.4399H5.75977V21.3599ZM5.75977 4.55989H18.2398V2.63989H5.75977V4.55989Z" fill="black"/>
</svg>
