<svg width="24" height="24" viewBox="0 0 24 24" fill="none" xmlns="http://www.w3.org/2000/svg">
<path d="M10.4402 16.7039C12.3842 16.7039 13.7762 15.4079 13.7762 13.6319C13.7762 11.9279 12.5282 10.5839 10.8482 10.5839C10.2242 10.5839 9.6962 10.7759 9.33619 11.1119H9.04819L9.33619 9.21589H13.2482V7.58389H7.8482L7.39219 12.7439H9.0722C9.2882 12.3359 9.60019 12.1919 10.3442 12.1919H10.4642C11.4962 12.1919 11.8562 12.4559 11.8562 13.2719V13.9439C11.8562 14.7839 11.5202 15.0479 10.4882 15.0479H10.3682C9.2882 15.0479 8.97619 14.7359 8.92819 13.7519H7.0322C7.0322 15.4559 8.4722 16.7039 10.4402 16.7039ZM4.2002 21.3599H10.4402C15.6962 21.3599 19.8002 17.0879 19.8002 11.9999C19.8002 6.76789 15.6722 2.63989 10.4402 2.63989H4.2002V4.55989H10.4402C14.6162 4.55989 17.8802 7.82389 17.8802 11.9999C17.8802 16.0559 14.6162 19.4399 10.4402 19.4399H4.2002V21.3599Z" fill="black"/>
</svg>
