<svg width="24" height="24" viewBox="0 0 24 24" fill="none" xmlns="http://www.w3.org/2000/svg">
<path d="M12.0001 21.3599C17.2561 21.3599 21.3601 17.0879 21.3601 11.9999C21.3601 6.76789 17.2321 2.63989 12.0001 2.63989C6.76814 2.63989 2.64014 6.76789 2.64014 11.9999C2.64014 17.2319 6.76814 21.3599 12.0001 21.3599ZM4.56014 11.9999C4.56014 7.82389 7.82414 4.55989 12.0001 4.55989C16.1761 4.55989 19.4401 7.82389 19.4401 11.9999C19.4401 16.0559 16.1761 19.4399 12.0001 19.4399C7.82414 19.4399 4.56014 16.1759 4.56014 11.9999ZM8.59214 13.7519C8.59214 15.4559 10.0321 16.7039 12.0001 16.7039C13.9441 16.7039 15.3361 15.4079 15.3361 13.6319C15.3361 11.9279 14.0881 10.5839 12.4081 10.5839C11.7841 10.5839 11.2561 10.7759 10.8961 11.1119H10.6081L10.8961 9.21589H14.8081V7.58389H9.40814L8.95214 12.7439H10.6321C10.8481 12.3359 11.1601 12.1919 11.9041 12.1919H12.0241C13.0561 12.1919 13.4161 12.4559 13.4161 13.2719V13.9439C13.4161 14.7839 13.0801 15.0479 12.0481 15.0479H11.9281C10.8481 15.0479 10.5361 14.7359 10.4881 13.7519H8.59214Z" fill="black"/>
</svg>
