<svg width="24" height="24" viewBox="0 0 24 24" fill="none" xmlns="http://www.w3.org/2000/svg">
<path d="M13.5602 16.7039C15.5042 16.7039 16.8962 15.4079 16.8962 13.6319C16.8962 11.9279 15.6482 10.5839 13.9682 10.5839C13.3442 10.5839 12.8162 10.7759 12.4562 11.1119H12.1682L12.4562 9.21589H16.3682V7.58389H10.9682L10.5122 12.7439H12.1922C12.4082 12.3359 12.7202 12.1919 13.4642 12.1919H13.5842C14.6162 12.1919 14.9762 12.4559 14.9762 13.2719V13.9439C14.9762 14.7839 14.6402 15.0479 13.6082 15.0479H13.4882C12.4082 15.0479 12.0962 14.7359 12.0482 13.7519H10.1522C10.1522 15.4559 11.5922 16.7039 13.5602 16.7039ZM4.2002 11.9999C4.2002 17.2319 8.3282 21.3599 13.5602 21.3599H19.8002V19.4399H13.5602C9.38419 19.4399 6.1202 16.1759 6.1202 11.9999C6.1202 7.94389 9.38419 4.55989 13.5602 4.55989H19.8002V2.63989H13.5602C8.30419 2.63989 4.2002 6.91189 4.2002 11.9999Z" fill="black"/>
</svg>
