<svg width="24" height="24" viewBox="0 0 24 24" fill="none" xmlns="http://www.w3.org/2000/svg">
<path d="M13.4642 12.4079V13.1039H11.2322L13.4882 9.69589H13.5122C13.4882 10.4879 13.4642 11.4959 13.4642 12.4079ZM4.2002 11.9999C4.2002 17.2319 8.3282 21.3599 13.5602 21.3599H19.8002V19.4399H13.5602C9.38419 19.4399 6.1202 16.1759 6.1202 11.9999C6.1202 7.94389 9.38419 4.55989 13.5602 4.55989H19.8002V2.63989H13.5602C8.30419 2.63989 4.2002 6.91189 4.2002 11.9999ZM9.45619 14.6639H13.4642V16.4639H15.2642V14.6639H16.6322V13.1039H15.2642V7.58389H13.2482L9.45619 13.2959V14.6639Z" fill="black"/>
</svg>
