<svg width="24" height="24" viewBox="0 0 24 24" fill="none" xmlns="http://www.w3.org/2000/svg">
<path d="M12.0001 21.3599C17.2561 21.3599 21.3601 17.0879 21.3601 11.9999C21.3601 6.76789 17.2321 2.63989 12.0001 2.63989C6.76814 2.63989 2.64014 6.76789 2.64014 11.9999C2.64014 17.2319 6.76814 21.3599 12.0001 21.3599ZM4.56014 11.9999C4.56014 7.82389 7.82414 4.55989 12.0001 4.55989C16.1761 4.55989 19.4401 7.82389 19.4401 11.9999C19.4401 16.0559 16.1761 19.4399 12.0001 19.4399C7.82414 19.4399 4.56014 16.1759 4.56014 11.9999ZM7.89614 14.6639H11.9041V16.4639H13.7041V14.6639H15.0721V13.1039H13.7041V7.58389H11.6881L7.89614 13.2959V14.6639ZM9.67214 13.1039L11.9281 9.69589H11.9521C11.9281 10.4879 11.9041 11.4959 11.9041 12.4079V13.1039H9.67214Z" fill="black"/>
</svg>
