<svg width="24" height="24" viewBox="0 0 24 24" fill="none" xmlns="http://www.w3.org/2000/svg">
<path d="M11.16 21.3599H12.84L12.768 18.6479L14.28 20.1599L15.384 19.0559L12.84 16.5119L12.816 13.8719L17.712 18.8159L18.816 17.7119L13.872 12.8159L16.512 12.8399L19.056 15.3839L20.16 14.2799L18.648 12.7679L21.36 12.8399V11.1599L18.648 11.2319L20.16 9.71989L19.056 8.61589L16.512 11.1599L13.872 11.1839L18.816 6.28789L17.712 5.18389L12.816 10.1279L12.84 7.48789L15.384 4.94389L14.28 3.83989L12.768 5.35189L12.84 2.63989H11.16L11.232 5.35189L9.72002 3.83989L8.61602 4.94389L11.16 7.48789L11.184 10.1279L6.28801 5.18389L5.18401 6.28789L10.128 11.1839L7.48802 11.1599L4.94401 8.61589L3.84001 9.71989L5.35201 11.2319L2.64001 11.1599V12.8399L5.35201 12.7679L3.84001 14.2799L4.94401 15.3839L7.48802 12.8399L10.128 12.8159L5.18401 17.7119L6.28801 18.8159L11.184 13.8719L11.16 16.5119L8.61602 19.0559L9.72002 20.1599L11.232 18.6479L11.16 21.3599Z" fill="black"/>
</svg>
