<svg width="24" height="24" viewBox="0 0 24 24" fill="none" xmlns="http://www.w3.org/2000/svg">
<path d="M11.1601 21.3599H12.8401L12.7681 18.6479L14.2801 20.1599L15.3841 19.0559L12.8401 16.5119L12.8161 13.8719L17.7121 18.8159L18.8161 17.7119L13.8721 12.8159L16.5121 12.8399L19.0561 15.3839L20.1601 14.2799L18.6481 12.7679L21.3601 12.8399V11.1599L18.6481 11.2319L20.1601 9.71989L19.0561 8.61589L16.5121 11.1599L13.8721 11.1839L18.8161 6.28789L17.7121 5.18389L12.8161 10.1279L12.8401 7.48789L15.3841 4.94389L14.2801 3.83989L12.7681 5.35189L12.8401 2.63989H11.1601L11.2321 5.35189L9.72014 3.83989L8.61614 4.94389L11.1601 7.48789L11.1841 10.1279L6.28814 5.18389L5.18414 6.28789L10.1281 11.1839L7.48814 11.1599L4.94414 8.61589L3.84014 9.71989L5.35214 11.2319L2.64014 11.1599V12.8399L5.35214 12.7679L3.84014 14.2799L4.94414 15.3839L7.48814 12.8399L10.1281 12.8159L5.18414 17.7119L6.28814 18.8159L11.1841 13.8719L11.1601 16.5119L8.61614 19.0559L9.72014 20.1599L11.2321 18.6479L11.1601 21.3599Z" fill="black"/>
</svg>
