<svg width="24" height="24" viewBox="0 0 24 24" fill="none" xmlns="http://www.w3.org/2000/svg">
<path d="M10.6918 20.6761C10.9318 20.6761 11.1478 20.6521 11.3878 20.6521L9.46779 18.7321L8.55579 18.6601C6.15579 18.3961 4.90779 17.7001 4.90779 16.8841V15.6361C6.25179 16.4041 8.31579 16.8361 10.6918 16.8361H11.4838L13.3318 14.9881L14.6758 16.3321C16.9078 15.7081 18.3958 14.5321 18.3958 12.9241V5.72406C18.3958 3.27605 15.0598 1.95605 10.6918 1.95605C6.44379 1.95605 2.98779 3.27605 2.98779 5.72406V16.8841C2.98779 19.3321 6.37179 20.8201 10.6918 20.6761ZM4.90779 13.1641V11.9161C6.25179 12.7081 8.31579 13.1401 10.6918 13.1401C13.0438 13.1401 15.1078 12.7081 16.4758 11.9161V13.1641C16.4758 14.8921 12.2278 15.1561 10.6918 15.1561C6.94779 15.1561 4.90779 14.2681 4.90779 13.1641ZM4.90779 9.44406V8.22006C6.25179 8.98806 8.31579 9.42006 10.6918 9.42006C13.0198 9.42006 15.1078 8.98806 16.4758 8.19606V9.44406C16.4758 10.5481 14.3638 11.4601 10.6918 11.4601C6.94779 11.4601 4.90779 10.5481 4.90779 9.44406ZM4.90779 5.72406C4.90779 4.71605 6.97179 3.87605 10.6918 3.87605C14.5318 3.87605 16.4758 4.69205 16.4758 5.72406C16.4758 6.85206 14.3638 7.74006 10.6918 7.74006C6.94779 7.74006 4.90779 6.85206 4.90779 5.72406ZM11.9878 18.6601L15.3478 22.0441L21.0118 16.3561L19.6678 15.0121L15.3478 19.3081L13.3318 17.3161L11.9878 18.6601Z" fill="black"/>
</svg>
