<svg width="24" height="24" viewBox="0 0 24 24" fill="none" xmlns="http://www.w3.org/2000/svg">
<path d="M10.7519 20.7481H11.0399L13.0799 18.6841C12.4079 18.7801 11.6159 18.8281 10.7519 18.8281C6.95985 18.8281 4.96785 17.9881 4.96785 16.9561V15.7081C6.31185 16.4761 8.37585 16.9081 10.7519 16.9081C11.2319 16.9081 11.7119 16.8841 12.1679 16.8601L11.3519 16.0201L12.1919 15.1801C11.7359 15.2041 11.2559 15.2281 10.7519 15.2281C7.00785 15.2281 4.96785 14.3401 4.96785 13.2361V11.9881C6.31185 12.7801 8.37585 13.2121 10.7519 13.2121C13.1039 13.2121 15.1679 12.7801 16.5359 11.9881V13.5001L17.4239 14.3641L18.4559 13.3321V5.79608C18.4559 3.34808 15.1199 2.02808 10.7519 2.02808C6.50385 2.02808 3.04785 3.34808 3.04785 5.79608V16.9561C3.04785 19.4041 6.43185 20.7481 10.7519 20.7481ZM4.96785 9.51608V8.29208C6.31185 9.06008 8.37585 9.49208 10.7519 9.49208C13.0799 9.49208 15.1679 9.06008 16.5359 8.26808V9.51608C16.5359 10.6201 14.4239 11.5321 10.7519 11.5321C7.00785 11.5321 4.96785 10.6201 4.96785 9.51608ZM4.96785 5.79608C4.96785 4.78808 7.03185 3.94808 10.7519 3.94808C14.5919 3.94808 16.5359 4.76408 16.5359 5.79608C16.5359 6.92408 14.4239 7.81208 10.7519 7.81208C7.00785 7.81208 4.96785 6.92408 4.96785 5.79608ZM13.9439 20.6761L15.2399 21.9721L17.4479 19.7641L19.6559 21.9721L20.9519 20.6761L18.7439 18.4681L20.9519 16.2601L19.6559 14.9641L17.4479 17.1721L15.2399 14.9641L13.9439 16.2601L16.1519 18.4681L13.9439 20.6761Z" fill="black"/>
</svg>
