<svg width="24" height="24" viewBox="0 0 24 24" fill="none" xmlns="http://www.w3.org/2000/svg">
<path d="M10.6923 20.6761C10.9323 20.6761 11.1483 20.6521 11.3883 20.6521L9.46828 18.7321L8.55628 18.6601C6.15628 18.3961 4.90828 17.7001 4.90828 16.8841V15.6361C6.25228 16.4041 8.31628 16.8361 10.6923 16.8361H11.4843L13.3323 14.9881L14.6763 16.3321C16.9083 15.7081 18.3963 14.5321 18.3963 12.9241V5.72406C18.3963 3.27605 15.0603 1.95605 10.6923 1.95605C6.44428 1.95605 2.98828 3.27605 2.98828 5.72406V16.8841C2.98828 19.3321 6.37228 20.8201 10.6923 20.6761ZM4.90828 13.1641V11.9161C6.25228 12.7081 8.31628 13.1401 10.6923 13.1401C13.0443 13.1401 15.1083 12.7081 16.4763 11.9161V13.1641C16.4763 14.8921 12.2283 15.1561 10.6923 15.1561C6.94828 15.1561 4.90828 14.2681 4.90828 13.1641ZM4.90828 9.44406V8.22006C6.25228 8.98806 8.31628 9.42006 10.6923 9.42006C13.0203 9.42006 15.1083 8.98806 16.4763 8.19606V9.44406C16.4763 10.5481 14.3643 11.4601 10.6923 11.4601C6.94828 11.4601 4.90828 10.5481 4.90828 9.44406ZM4.90828 5.72406C4.90828 4.71605 6.97228 3.87605 10.6923 3.87605C14.5323 3.87605 16.4763 4.69205 16.4763 5.72406C16.4763 6.85206 14.3643 7.74006 10.6923 7.74006C6.94828 7.74006 4.90828 6.85206 4.90828 5.72406ZM11.9883 18.6601L15.3483 22.0441L21.0123 16.3561L19.6683 15.0121L15.3483 19.3081L13.3323 17.3161L11.9883 18.6601Z" fill="black"/>
</svg>
