<svg width="24" height="24" viewBox="0 0 24 24" fill="none" xmlns="http://www.w3.org/2000/svg">
<path d="M4.56 20.9521H19.44C20.544 20.9521 21.36 20.1361 21.36 19.0321V9.9121C21.36 8.8081 20.544 7.9921 19.44 7.9921H18.816C19.08 7.4881 19.224 6.9121 19.224 6.3601C19.224 4.5601 17.784 3.0481 15.936 3.0481C15.36 3.0481 14.736 3.2161 14.256 3.5041C13.44 4.0081 12.816 4.8481 12.288 5.8801L12 6.4081L11.712 5.8801C11.184 4.8481 10.56 4.0081 9.744 3.5041C9.264 3.2161 8.64 3.0481 8.064 3.0481C6.216 3.0481 4.776 4.5601 4.776 6.3601C4.776 6.9121 4.92 7.4881 5.184 7.9921H4.56C3.456 7.9921 2.64 8.8081 2.64 9.9121V19.0321C2.64 20.1361 3.456 20.9521 4.56 20.9521ZM4.56 19.1041V13.7521H19.44V19.1041C19.44 19.1281 19.416 19.1521 19.392 19.1521H4.608C4.584 19.1521 4.56 19.1281 4.56 19.1041ZM4.56 11.8321V9.8401C4.56 9.8161 4.584 9.7921 4.608 9.7921H19.392C19.416 9.7921 19.44 9.8161 19.44 9.8401V11.8321H4.56ZM6 17.3521H9.6V15.4321H6V17.3521ZM6.456 6.3601C6.456 5.4961 7.152 4.7281 8.064 4.7281C9.12 4.7281 9.744 5.7121 10.224 6.6481L10.992 8.1121H9.312C8.568 8.1121 7.752 8.0881 7.2 7.7281C6.672 7.4401 6.456 6.8641 6.456 6.3601ZM13.008 8.1121L13.776 6.6481C14.256 5.7121 14.88 4.7281 15.936 4.7281C16.848 4.7281 17.544 5.4961 17.544 6.3601C17.544 6.8641 17.328 7.4401 16.8 7.7281C16.248 8.0881 15.432 8.1121 14.688 8.1121H13.008Z" fill="black"/>
</svg>
