<svg width="24" height="24" viewBox="0 0 24 24" fill="none" xmlns="http://www.w3.org/2000/svg">
<path d="M12 21.3599C17.304 21.3599 21.36 17.0879 21.36 11.9999C21.36 6.79189 17.28 2.63989 12 2.63989C6.72002 2.63989 2.64001 6.79189 2.64001 11.9999C2.64001 17.2079 6.72002 21.3599 12 21.3599ZM4.44001 11.9999C4.44001 11.2799 4.53601 10.6079 4.70401 9.95989H7.56002C7.46402 10.6319 7.44002 11.3279 7.44002 11.9999C7.44002 12.6719 7.46402 13.3679 7.56002 14.0399H4.70401C4.53601 13.3919 4.44001 12.7199 4.44001 11.9999ZM5.28001 15.5999H7.82402C8.16002 16.9919 8.76002 18.2639 9.69602 19.3199C7.77602 18.7199 6.19201 17.3759 5.28001 15.5999ZM5.28001 8.39989C6.19201 6.62389 7.77602 5.27989 9.69602 4.67989C8.76002 5.73589 8.16002 7.00789 7.82402 8.39989H5.28001ZM9.24002 11.9999C9.24002 11.3039 9.28802 10.6319 9.36002 9.95989H14.64C14.712 10.6319 14.76 11.3039 14.76 11.9999C14.76 12.6959 14.712 13.3679 14.64 14.0399H9.36002C9.28802 13.3679 9.24002 12.6959 9.24002 11.9999ZM9.67202 15.5999H14.328C13.896 17.4239 13.08 18.9119 12 19.6799C10.92 18.9119 10.104 17.4239 9.67202 15.5999ZM9.67202 8.39989C10.104 6.57589 10.92 5.08789 12 4.31989C13.08 5.08789 13.896 6.57589 14.328 8.39989H9.67202ZM14.304 4.67989C16.224 5.27989 17.808 6.62389 18.72 8.39989H16.176C15.84 7.00789 15.24 5.73589 14.304 4.67989ZM14.328 19.3199C15.24 18.2639 15.84 16.9679 16.176 15.5999H18.696C17.784 17.3519 16.224 18.6959 14.328 19.3199ZM16.44 14.0399C16.536 13.3679 16.56 12.6719 16.56 11.9999C16.56 11.3279 16.536 10.6319 16.44 9.95989H19.296C19.464 10.6079 19.56 11.2799 19.56 11.9999C19.56 12.6959 19.464 13.3919 19.296 14.0399H16.44Z" fill="black"/>
</svg>
