<svg width="24" height="24" viewBox="0 0 24 24" fill="none" xmlns="http://www.w3.org/2000/svg">
<path d="M8.03999 21.0091C9.07199 21.5851 10.368 21.7291 12 20.9851L20.832 16.9531C21.744 16.5451 22.32 15.6091 22.32 14.6491C22.32 13.2091 21.144 12.1531 19.8 12.1531C19.584 12.1531 19.368 12.1771 19.152 12.2491L19.08 12.1051C18.504 11.0251 17.184 10.5931 16.032 11.1211L14.568 11.7931C14.976 12.1771 15.312 12.6571 15.528 13.1851L16.728 12.6571C17.088 12.4891 17.496 12.6331 17.664 13.0171L17.76 13.2331L14.376 14.7691C14.376 13.7611 13.776 12.8251 12.864 12.3931L8.90399 10.5451C6.23999 9.29713 3.69599 9.82513 1.67999 12.2491V18.9451H3.47999V12.9451C4.84799 11.5771 6.35999 11.3611 8.13599 12.1771L12.096 14.0251C12.384 14.1691 12.576 14.4571 12.576 14.7931C12.576 15.3931 11.928 15.8011 11.4 15.5611L8.32799 14.1451L7.72799 15.4411L11.184 17.0491C11.712 17.2891 12.384 17.2411 13.296 16.8331L19.512 14.0251C19.992 13.8091 20.52 14.1451 20.52 14.6491C20.52 14.9131 20.352 15.2011 20.088 15.3211L11.256 19.3531C10.32 19.7851 9.59999 19.8091 8.90399 19.4251L6.19199 17.9131L5.30399 19.4971L8.03999 21.0091ZM8.39999 6.10513C8.39999 8.09713 10.008 9.70513 12 9.70513C13.992 9.70513 15.6 8.09713 15.6 6.10513C15.6 4.11313 13.992 2.50513 12 2.50513C10.008 2.50513 8.39999 4.11313 8.39999 6.10513ZM10.08 6.10513C10.08 5.04913 10.944 4.18513 12 4.18513C13.056 4.18513 13.92 5.04913 13.92 6.10513C13.92 7.16113 13.056 8.02513 12 8.02513C10.944 8.02513 10.08 7.16113 10.08 6.10513Z" fill="black"/>
</svg>
