<svg width="24" height="24" viewBox="0 0 24 24" fill="none" xmlns="http://www.w3.org/2000/svg">
<path d="M12 21.3599C17.136 21.3599 21.36 17.1359 21.36 11.9999C21.36 6.86389 17.136 2.63989 12 2.63989C9.28802 2.63989 6.91202 3.76789 5.20801 5.71189C5.23201 5.18389 5.25601 4.65589 5.25601 4.15189V2.63989H3.57601V8.78389H9.12002V7.10389H8.20802C7.58402 7.10389 6.91202 7.12789 6.28801 7.17589C7.63202 5.56789 9.64802 4.55989 12 4.55989C16.08 4.55989 19.44 7.91989 19.44 11.9999C19.44 16.0799 16.08 19.4399 12 19.4399C7.92002 19.4399 4.56001 16.0799 4.56001 11.9999H2.64001C2.64001 17.1359 6.86402 21.3599 12 21.3599ZM11.064 11.9999C11.064 12.2639 11.184 12.5039 11.352 12.6719L14.808 16.1279L16.152 14.7839L12.984 11.5919V6.47989H11.064V11.9999Z" fill="black"/>
</svg>
