<svg width="24" height="24" viewBox="0 0 24 24" fill="none" xmlns="http://www.w3.org/2000/svg">
<path d="M9.96002 21.3599H14.04C19.632 21.3599 21.36 19.5839 21.36 14.0399V9.95989C21.36 4.41589 19.632 2.63989 14.04 2.63989H9.96002C4.36801 2.63989 2.64001 4.41589 2.64001 9.95989V14.0399C2.64001 19.5839 4.36801 21.3599 9.96002 21.3599ZM4.29601 14.0399V9.95989C4.29601 5.35189 5.32801 4.29589 9.96002 4.29589H14.04C18.672 4.29589 19.704 5.35189 19.704 9.95989V14.0399C19.704 18.6479 18.672 19.7039 14.04 19.7039H9.96002C5.32801 19.7039 4.29601 18.6479 4.29601 14.0399ZM7.20002 11.9999C7.20002 14.6639 9.33602 16.7999 12 16.7999C14.664 16.7999 16.8 14.6639 16.8 11.9999C16.8 9.33589 14.664 7.19989 12 7.19989C9.33602 7.19989 7.20002 9.33589 7.20002 11.9999ZM8.88002 11.9999C8.88002 10.2719 10.272 8.87989 12 8.87989C13.728 8.87989 15.12 10.2719 15.12 11.9999C15.12 13.7279 13.728 15.1199 12 15.1199C10.272 15.1199 8.88002 13.7279 8.88002 11.9999ZM15.888 7.00789C15.888 7.60789 16.392 8.11189 16.992 8.11189C17.592 8.11189 18.096 7.60789 18.096 7.00789C18.096 6.40789 17.592 5.90389 16.992 5.90389C16.392 5.90389 15.888 6.40789 15.888 7.00789Z" fill="black"/>
</svg>
