<svg width="24" height="24" viewBox="0 0 24 24" fill="none" xmlns="http://www.w3.org/2000/svg">
<path d="M5.04 22.3199H18C19.104 22.3199 19.92 21.5039 19.92 20.3999V8.39993H20.88V5.03993H19.92V3.59993C19.92 2.49593 19.104 1.67993 18 1.67993H5.04C3.936 1.67993 3.12 2.49593 3.12 3.59993V20.3999C3.12 21.5039 3.936 22.3199 5.04 22.3199ZM4.92 20.4719V3.52793C4.92 3.50393 4.944 3.47993 4.968 3.47993H18.072C18.096 3.47993 18.12 3.50393 18.12 3.52793V20.4719C18.12 20.4959 18.096 20.5199 18.072 20.5199H4.968C4.944 20.5199 4.92 20.4959 4.92 20.4719ZM6.48 18.9599H16.56V5.03993H6.48V18.9599ZM8.04 17.3999V6.59993H15V17.3999H8.04Z" fill="black"/>
</svg>
