<svg width="24" height="24" viewBox="0 0 24 24" fill="none" xmlns="http://www.w3.org/2000/svg">
<path d="M12 14.2319C10.776 14.2319 9.76802 13.2239 9.76802 11.9999C9.76802 10.7759 10.776 9.76789 12 9.76789C13.224 9.76789 14.232 10.7759 14.232 11.9999C14.232 13.2239 13.224 14.2319 12 14.2319ZM2.64001 11.9999C2.64001 17.2319 6.76802 21.3599 12 21.3599C17.256 21.3599 21.36 17.0879 21.36 11.9999C21.36 6.76789 17.232 2.63989 12 2.63989C6.76802 2.63989 2.64001 6.76789 2.64001 11.9999ZM4.56001 11.9999C4.56001 10.2719 5.13601 8.68789 6.07201 7.43989L8.64002 10.0079C8.28002 10.5839 8.08802 11.2799 8.08802 11.9999C8.08802 12.7199 8.28002 13.4159 8.64002 13.9919L6.07201 16.5599C5.13601 15.3119 4.56001 13.7279 4.56001 11.9999ZM7.44002 17.9279L10.008 15.3599C10.584 15.7199 11.28 15.9119 12 15.9119C12.72 15.9119 13.416 15.7199 13.992 15.3599L16.536 17.9039C15.288 18.8639 13.728 19.4399 12 19.4399C10.272 19.4399 8.68802 18.8639 7.44002 17.9279ZM7.44002 6.07189C8.68802 5.13589 10.272 4.55989 12 4.55989C13.728 4.55989 15.312 5.13589 16.56 6.07189L13.992 8.63989C13.416 8.27989 12.72 8.08789 12 8.08789C11.28 8.08789 10.584 8.27989 10.008 8.63989L7.44002 6.07189ZM15.36 13.9919C15.72 13.4159 15.912 12.7199 15.912 11.9999C15.912 11.2799 15.72 10.5839 15.36 10.0079L17.928 7.43989C18.864 8.68789 19.44 10.2719 19.44 11.9999C19.44 13.7039 18.864 15.2879 17.904 16.5359L15.36 13.9919Z" fill="black"/>
</svg>
