<svg width="24" height="24" viewBox="0 0 24 24" fill="none" xmlns="http://www.w3.org/2000/svg">
<path d="M12.0001 14.2319C10.7761 14.2319 9.76814 13.2239 9.76814 11.9999C9.76814 10.7759 10.7761 9.76789 12.0001 9.76789C13.2241 9.76789 14.2321 10.7759 14.2321 11.9999C14.2321 13.2239 13.2241 14.2319 12.0001 14.2319ZM2.64014 11.9999C2.64014 17.2319 6.76814 21.3599 12.0001 21.3599C17.2561 21.3599 21.3601 17.0879 21.3601 11.9999C21.3601 6.76789 17.2321 2.63989 12.0001 2.63989C6.76814 2.63989 2.64014 6.76789 2.64014 11.9999ZM4.56014 11.9999C4.56014 10.2719 5.13614 8.68789 6.07214 7.43989L8.64014 10.0079C8.28014 10.5839 8.08814 11.2799 8.08814 11.9999C8.08814 12.7199 8.28014 13.4159 8.64014 13.9919L6.07214 16.5599C5.13614 15.3119 4.56014 13.7279 4.56014 11.9999ZM7.44014 17.9279L10.0081 15.3599C10.5841 15.7199 11.2801 15.9119 12.0001 15.9119C12.7201 15.9119 13.4161 15.7199 13.9921 15.3599L16.5361 17.9039C15.2881 18.8639 13.7281 19.4399 12.0001 19.4399C10.2721 19.4399 8.68814 18.8639 7.44014 17.9279ZM7.44014 6.07189C8.68814 5.13589 10.2721 4.55989 12.0001 4.55989C13.7281 4.55989 15.3121 5.13589 16.5601 6.07189L13.9921 8.63989C13.4161 8.27989 12.7201 8.08789 12.0001 8.08789C11.2801 8.08789 10.5841 8.27989 10.0081 8.63989L7.44014 6.07189ZM15.3601 13.9919C15.7201 13.4159 15.9121 12.7199 15.9121 11.9999C15.9121 11.2799 15.7201 10.5839 15.3601 10.0079L17.9281 7.43989C18.8641 8.68789 19.4401 10.2719 19.4401 11.9999C19.4401 13.7039 18.8641 15.2879 17.9041 16.5359L15.3601 13.9919Z" fill="black"/>
</svg>
