<svg width="24" height="24" viewBox="0 0 24 24" fill="none" xmlns="http://www.w3.org/2000/svg">
<path d="M8.25579 17.5439V21.8399H15.7438V17.5439C15.7438 16.6559 15.8878 16.3679 16.8718 15.2879L17.4238 14.6639C18.8158 13.1039 19.5118 11.4479 19.5118 9.52791C19.5118 5.18391 15.9838 2.15991 11.9998 2.15991C8.01579 2.15991 4.48779 5.18391 4.48779 9.52791C4.48779 11.4479 5.18379 13.1039 6.57579 14.6639L7.12779 15.2879C8.11179 16.3679 8.25579 16.6559 8.25579 17.5439ZM6.40779 9.52791C6.40779 6.21591 9.02379 3.95991 11.9998 3.95991C14.9758 3.95991 17.5918 6.21591 17.5918 9.52791C17.5918 11.0159 17.0638 12.2639 15.9838 13.4639L15.4318 14.0879C14.3998 15.2639 13.9198 16.0559 13.8478 17.1599H12.9118V12.4799H11.1118V17.1599H10.1518C10.0798 16.0559 9.59979 15.2639 8.56779 14.0879L8.01579 13.4639C6.93579 12.2639 6.40779 11.0159 6.40779 9.52791ZM10.1758 20.0399V18.8399H13.8238V20.0399H10.1758Z" fill="black"/>
</svg>
