<svg width="24" height="24" viewBox="0 0 24 24" fill="none" xmlns="http://www.w3.org/2000/svg">
<path d="M9.93594 14.0884C11.9519 15.9844 15.0719 16.0324 17.0399 14.0644L20.2559 10.8484C22.2239 8.88036 22.2239 5.68836 20.2559 3.74436C18.3119 1.77636 15.1439 1.80036 13.1759 3.74436L10.7759 6.09636L12.1919 7.56036L14.6159 5.18436C16.2239 3.60036 17.2319 3.60036 18.8159 5.18436C20.4239 6.79236 20.4239 7.80036 18.8159 9.38436L15.5759 12.6244C13.9679 14.2564 12.9119 14.2804 11.2799 12.7204L10.5839 12.0484L9.26394 13.4404L9.93594 14.0884ZM3.74394 20.2564C5.68794 22.2244 8.85594 22.2004 10.8239 20.2564L13.2239 17.9044L11.8079 16.4404L9.38394 18.8164C7.77594 20.4004 6.76794 20.4004 5.18394 18.8164C3.57594 17.2084 3.57594 16.2004 5.18394 14.6164L8.42394 11.3764C10.0319 9.74436 11.0879 9.72036 12.7199 11.2804L13.4159 11.9524L14.7359 10.5604L14.0639 9.91236C12.0479 8.01636 8.92794 7.96836 6.95994 9.93636L3.74394 13.1524C1.77594 15.1204 1.77594 18.3124 3.74394 20.2564Z" fill="black"/>
</svg>
