<svg width="24" height="24" viewBox="0 0 24 24" fill="none" xmlns="http://www.w3.org/2000/svg">
<path d="M3.96014 21.3599H20.0401C20.7841 21.3599 21.3601 20.7599 21.3601 20.0399V3.95989C21.3601 3.23989 20.7841 2.63989 20.0401 2.63989H3.96014C3.24014 2.63989 2.64014 3.23989 2.64014 3.95989V20.0399C2.64014 20.7599 3.24014 21.3599 3.96014 21.3599ZM5.30414 6.91189C5.30414 6.02389 6.02414 5.30389 6.91214 5.30389C7.80014 5.30389 8.52014 6.02389 8.52014 6.91189C8.52014 7.79989 7.80014 8.51989 6.91214 8.51989C6.02414 8.51989 5.30414 7.79989 5.30414 6.91189ZM5.52014 18.6959V9.74389H8.32814V18.6959H5.52014ZM10.0561 18.6959V9.74389H12.7201V10.9439H12.7441C13.1761 10.1519 14.1361 9.52789 15.4081 9.52789C17.8081 9.52789 18.6961 11.1119 18.6961 13.7999V18.6959H15.9361V14.3279C15.9361 13.1279 15.8641 11.9519 14.4721 11.9519C13.2001 11.9519 12.8401 12.8879 12.8401 14.2559V18.6959H10.0561Z" fill="black"/>
</svg>
