<svg width="24" height="24" viewBox="0 0 24 24" fill="none" xmlns="http://www.w3.org/2000/svg">
<path d="M15.804 22.3199C16.668 22.3199 17.484 21.7919 17.988 21.1199C18.588 20.3519 20.58 19.9919 20.58 19.0079C20.58 18.5279 20.196 18.1919 19.932 17.8079C19.572 17.3759 19.74 16.6079 19.212 16.1519C19.116 16.0559 18.972 15.9839 18.876 15.9119C18.972 15.5279 19.044 15.0959 19.044 14.6879C19.044 11.1119 15.492 9.52793 15.492 6.93593V6.16793C15.492 3.98393 15.132 1.67993 12.42 1.67993C10.068 1.67993 9.20404 2.99993 9.20404 5.20793C9.20404 5.83193 9.30004 6.43193 9.30004 7.03193C9.30004 10.0319 5.36404 11.9519 5.77204 15.6239C5.53204 15.8879 5.34004 16.1999 5.10004 16.4639C4.62004 16.9439 3.51604 16.7279 3.51604 17.9519C3.51604 18.2879 3.66004 18.6239 3.66004 18.9839C3.66004 19.3439 3.42004 19.7039 3.42004 20.1119C3.42004 20.6159 3.73204 20.9519 4.21204 21.0719C5.05204 21.3119 5.94004 21.1919 6.75604 21.5999C7.33204 21.8879 7.90804 22.0799 8.53204 22.0799C9.13204 22.0799 10.02 21.7919 10.188 21.1199C10.836 21.0479 11.436 20.8319 12.084 20.8319C12.756 20.8319 13.428 21.0479 14.124 20.9999C14.364 21.8159 14.94 22.3199 15.804 22.3199ZM3.92404 20.0879C3.92404 19.7039 4.11604 19.3919 4.11604 18.9839C4.11604 18.6239 3.99604 18.2879 3.99604 17.9279C3.99604 17.8079 4.02004 17.7119 4.06804 17.6159C4.33204 17.1359 5.05204 17.1839 5.43604 16.7999C5.60404 16.6319 5.74804 16.3919 5.91604 16.1999C6.08404 16.0079 6.15604 15.8879 6.44404 15.8399C6.92404 15.8399 7.16404 16.0319 7.45204 16.4399C7.76404 16.8719 7.98004 17.3759 8.22004 17.8319C8.41204 18.1919 8.67604 18.5279 8.91604 18.8399C9.22804 19.2959 9.85204 19.9199 9.85204 20.4959C9.85204 21.1919 9.25204 21.5999 8.58004 21.5999C8.02804 21.5999 7.50004 21.4319 6.97204 21.1919C6.42004 20.9039 5.77204 20.8079 5.14804 20.7359C4.83604 20.6879 4.16404 20.6639 3.97204 20.3759C3.92404 20.2799 3.92404 20.1839 3.92404 20.0879ZM7.09204 14.2319C7.09204 13.1759 7.71604 11.9759 8.26804 11.0879C7.98004 12.1199 7.33204 12.6239 7.33204 13.8479C7.33204 14.3519 7.50004 14.8319 7.78804 15.2159C7.86004 12.7199 9.70804 10.7759 9.90004 8.30393C10.308 8.68793 10.932 9.16793 11.532 9.16793C12.084 9.16793 13.524 8.37593 13.932 7.96793C14.268 9.26393 14.772 10.5839 15.396 11.7599C15.828 12.5759 16.164 13.4399 16.332 14.3519C16.5 14.3279 16.62 14.3759 16.764 14.3999C16.884 14.1119 16.932 13.7999 16.932 13.5119C16.932 12.1199 15.732 10.8239 15.732 10.7759C15.732 10.7759 15.708 10.7519 15.732 10.7279C16.548 11.4479 17.22 12.7199 17.22 13.8239C17.22 14.0639 17.22 14.2799 17.148 14.5199C17.58 14.6159 18.444 15.2159 18.444 15.7199L18.42 15.8399L18.252 15.8159L18.276 15.7199C18.276 15.1199 16.884 14.6639 16.38 14.6639C16.044 14.6639 15.852 14.9759 15.804 15.2639L15.564 15.3839H15.54C14.676 15.8639 14.7 17.1839 14.652 18.0719C14.628 18.3839 14.46 19.0079 14.34 19.3439C13.596 19.7999 12.732 20.1359 11.844 20.1359C11.22 20.1359 10.596 19.9679 10.068 19.6319C9.87604 19.3199 9.70804 19.0079 9.44404 18.7439C9.75604 18.6719 10.02 18.5519 10.02 18.1919C10.02 16.5839 7.09204 16.2719 7.09204 14.2319ZM9.66004 5.75993C9.66004 5.35193 9.87604 4.75193 10.332 4.75193C10.884 4.75193 11.124 5.49593 11.124 5.92793V6.02393C10.956 6.04793 10.812 6.11993 10.692 6.19193C10.692 5.99993 10.62 5.49593 10.308 5.49593C10.116 5.49593 10.02 5.83193 10.02 5.99993C10.02 6.19193 10.068 6.43193 10.212 6.59993C10.164 6.62393 10.02 6.74393 9.94804 6.79193C9.70804 6.50393 9.66004 6.11993 9.66004 5.75993ZM9.68404 7.51193C9.68404 7.24793 10.38 6.79193 10.428 6.81593C10.692 6.52793 11.028 6.26393 11.508 6.26393C11.892 6.26393 13.836 7.00793 13.836 7.39193C13.836 7.89593 13.332 8.13593 12.924 8.27993C12.372 8.49593 12.18 8.87993 11.508 8.87993C11.052 8.87993 9.68404 7.96793 9.68404 7.51193ZM9.85204 7.58393C10.356 7.84793 10.86 8.37593 11.388 8.37593C12.228 8.37593 13.188 7.51193 13.5 7.51193L13.476 7.34393C13.044 7.34393 12.252 8.18393 11.364 8.18393C10.932 8.18393 10.404 7.63193 9.85204 7.36793V7.58393ZM11.868 5.99993C11.868 5.39993 12.108 4.53593 12.852 4.53593C13.5 4.53593 13.908 5.23193 13.908 5.80793C13.908 6.14393 13.812 6.47993 13.62 6.74393C13.452 6.71993 13.284 6.59993 13.116 6.55193C13.212 6.38393 13.236 6.16793 13.236 5.97593C13.236 5.71193 13.116 5.32793 12.78 5.32793C12.372 5.32793 12.324 5.87993 12.324 6.19193C12.156 6.09593 12.012 6.02393 11.868 5.99993ZM14.556 20.6159C14.556 19.7759 15.084 18.9599 15.132 18.0719C15.132 17.4239 15.18 16.4879 15.564 15.9359C15.66 15.8879 15.732 15.8399 15.78 15.7919C15.924 16.2959 16.092 16.8719 16.74 16.8719C17.148 16.8719 17.7 16.6079 17.964 16.3199H18.18C18.348 16.3199 18.54 16.3199 18.708 16.3919C18.78 16.3919 18.852 16.4399 18.9 16.4879C19.284 16.7519 19.188 17.7119 19.572 18.1439C19.788 18.3839 20.1 18.6959 20.1 19.0319C20.1 19.4159 18.132 20.2079 17.604 20.8559C17.172 21.3839 16.548 21.8399 15.828 21.8399C15.132 21.8399 14.556 21.3359 14.556 20.6159Z" fill="black"/>
</svg>
