<svg width="24" height="24" viewBox="0 0 24 24" fill="none" xmlns="http://www.w3.org/2000/svg">
<path d="M7.488 16.3201L12 22.3681L16.512 16.3201C18.168 14.1361 19.536 11.8321 19.536 9.28808C19.512 4.56008 15.888 1.63208 12 1.63208C8.112 1.63208 4.488 4.56008 4.464 9.28808C4.464 11.8321 5.832 14.1361 7.488 16.3201ZM6.384 9.28808C6.408 5.71208 9.096 3.55208 12 3.55208C14.904 3.55208 17.592 5.71208 17.616 9.28808C17.616 11.2321 16.512 13.1281 14.976 15.1681L12 19.1521L9.024 15.1681C7.488 13.1281 6.384 11.2321 6.384 9.28808ZM8.4 9.19208C8.4 11.1841 10.008 12.7921 12 12.7921C13.992 12.7921 15.6 11.1841 15.6 9.19208C15.6 7.20008 13.992 5.59208 12 5.59208C10.008 5.59208 8.4 7.20008 8.4 9.19208ZM10.08 9.19208C10.08 8.13608 10.944 7.27208 12 7.27208C13.056 7.27208 13.92 8.13608 13.92 9.19208C13.92 10.2481 13.056 11.1121 12 11.1121C10.944 11.1121 10.08 10.2481 10.08 9.19208Z" fill="black"/>
</svg>
