<svg width="24" height="24" viewBox="0 0 24 24" fill="none" xmlns="http://www.w3.org/2000/svg">
<path d="M7.68002 21.3599H9.36002V17.9999H11.16V21.3599H12.84V17.9999H14.64V21.3599H16.32V17.9999H18V16.3199H21.36V14.6399H18V12.8399H21.36V11.1599H18V9.35989H21.36V7.67989H18V5.99989H16.32V2.63989H14.64V5.99989H12.84V2.63989H11.16V5.99989H9.36002V2.63989H7.68002V5.99989H6.00001V7.67989H2.64001V9.35989H6.00001V11.1599H2.64001V12.8399H6.00001V14.6399H2.64001V16.3199H6.00001V17.9999H7.68002V21.3599ZM7.80002 16.1999V7.79989H16.2V16.1999H7.80002ZM10.56 13.4399H13.44V10.5599H10.56V13.4399Z" fill="black"/>
</svg>
