<svg width="24" height="24" viewBox="0 0 24 24" fill="none" xmlns="http://www.w3.org/2000/svg">
<path d="M2.64014 21.36H21.3601V14.52H2.66414L2.64014 21.36ZM4.32014 19.68L4.34414 16.2H10.2001C9.88814 16.704 9.72014 17.304 9.72014 17.952C9.72014 18.576 9.88814 19.176 10.2001 19.68H4.32014ZM11.4001 17.952C11.4001 16.992 12.1921 16.2 13.0801 16.2H19.6801V19.68H13.0801C12.1921 19.68 11.4001 18.888 11.4001 17.952ZM12.4081 17.952C12.4081 18.432 12.8161 18.84 13.2961 18.84C13.7761 18.84 14.2081 18.432 14.2081 17.952C14.2081 17.448 13.7761 17.04 13.2961 17.04C12.8161 17.04 12.4081 17.448 12.4081 17.952Z" fill="black"/>
<path fill-rule="evenodd" clip-rule="evenodd" d="M12.0001 12C14.7616 12 17.0001 9.76142 17.0001 7C17.0001 4.23858 14.7616 2 12.0001 2C9.23871 2 7.00014 4.23858 7.00014 7C7.00014 9.76142 9.23871 12 12.0001 12ZM11.2501 4V6.25L9.00014 6.25V7.75L11.2501 7.75V10H12.7501V7.75H15.0001V6.25H12.7501V4H11.2501Z" fill="black"/>
</svg>
