<svg width="24" height="24" viewBox="0 0 24 24" fill="none" xmlns="http://www.w3.org/2000/svg">
<path d="M2.64001 9.47989H21.36V2.63989H2.66401L2.64001 9.47989ZM4.32001 7.79989L4.34401 4.31989H10.2C9.88802 4.82389 9.72002 5.42389 9.72002 6.07189C9.72002 6.69589 9.88802 7.29589 10.2 7.79989H4.32001ZM7.63202 17.0159L12 21.3599L16.344 17.0159L15.144 15.8399L14.088 16.8959C13.704 17.2799 13.296 17.7119 12.912 18.1439V11.0399H11.088V18.1919C10.68 17.7359 10.296 17.3039 9.88802 16.8959L8.80802 15.8399L7.63202 17.0159ZM11.4 6.07189C11.4 5.11189 12.192 4.31989 13.08 4.31989H19.68V7.79989H13.08C12.192 7.79989 11.4 7.00789 11.4 6.07189ZM12.408 6.07189C12.408 6.55189 12.816 6.95989 13.296 6.95989C13.776 6.95989 14.208 6.55189 14.208 6.07189C14.208 5.56789 13.776 5.15989 13.296 5.15989C12.816 5.15989 12.408 5.56789 12.408 6.07189Z" fill="black"/>
</svg>
