<svg width="24" height="24" viewBox="0 0 24 24" fill="none" xmlns="http://www.w3.org/2000/svg">
<path d="M17.4721 22.3199L22.3201 17.4719L6.50405 1.67993L1.68005 6.52793L17.4721 22.3199ZM4.05605 6.52793L6.50405 4.05593L12.5281 10.0559C11.9521 10.1999 11.4001 10.5119 10.9201 10.9679C10.4881 11.3999 10.2001 11.9519 10.0561 12.5279L4.05605 6.52793ZM5.66405 6.57593C5.66405 7.05593 6.07205 7.46393 6.55205 7.46393C7.03205 7.46393 7.46405 7.05593 7.46405 6.57593C7.46405 6.07193 7.03205 5.66393 6.55205 5.66393C6.07205 5.66393 5.66405 6.07193 5.66405 6.57593ZM12.0481 14.5439C11.4241 13.8959 11.4721 12.8159 12.1201 12.1439C12.8161 11.4719 13.8961 11.4719 14.5201 12.0719L19.9441 17.4719L17.4721 19.9439L12.0481 14.5439ZM12.6001 13.5119C12.6001 13.9919 13.0081 14.3999 13.4881 14.3999C13.9681 14.3999 14.4001 13.9919 14.4001 13.5119C14.4001 13.0079 13.9681 12.5999 13.4881 12.5999C13.0081 12.5999 12.6001 13.0079 12.6001 13.5119Z" fill="black"/>
</svg>
