<svg width="24" height="24" viewBox="0 0 24 24" fill="none" xmlns="http://www.w3.org/2000/svg">
<path d="M2.64001 21.3599H21.36V14.5199H2.66401L2.64001 21.3599ZM4.32001 19.6799L4.34401 16.1999H10.2C9.88802 16.7039 9.72002 17.3039 9.72002 17.9519C9.72002 18.5759 9.88802 19.1759 10.2 19.6799H4.32001ZM7.63202 8.61589L12 12.9599L16.344 8.61589L15.144 7.43989L14.088 8.49589C13.704 8.87989 13.296 9.31189 12.912 9.74389V2.63989H11.088V9.79189C10.68 9.33589 10.296 8.90389 9.88802 8.49589L8.80802 7.43989L7.63202 8.61589ZM11.4 17.9519C11.4 16.9919 12.192 16.1999 13.08 16.1999H19.68V19.6799H13.08C12.192 19.6799 11.4 18.8879 11.4 17.9519ZM12.408 17.9519C12.408 18.4319 12.816 18.8399 13.296 18.8399C13.776 18.8399 14.208 18.4319 14.208 17.9519C14.208 17.4479 13.776 17.0399 13.296 17.0399C12.816 17.0399 12.408 17.4479 12.408 17.9519Z" fill="black"/>
</svg>
