<svg width="24" height="24" viewBox="0 0 24 24" fill="none" xmlns="http://www.w3.org/2000/svg">
<path d="M14.928 19.6559L5.18401 9.88791L8.49602 6.59991L18.24 16.3439C18.816 16.8959 19.032 17.4959 19.032 18.0959C19.032 19.4159 18 20.4479 16.68 20.4479C16.08 20.4479 15.48 20.2079 14.928 19.6559ZM2.64001 9.88791L13.032 20.3039V21.8399H20.4V11.8319H21.36V9.40791H20.4V6.71991H21.36V4.29591H20.4V2.15991H13.2V8.75991L8.49602 4.05591L2.64001 9.88791ZM15.408 18.0959C15.408 18.7679 15.96 19.3679 16.68 19.3679C17.376 19.3679 17.928 18.7679 17.928 18.0959C17.928 17.3999 17.376 16.8479 16.68 16.8479C15.96 16.8479 15.408 17.3999 15.408 18.0959Z" fill="black"/>
</svg>
