<svg width="24" height="24" viewBox="0 0 24 24" fill="none" xmlns="http://www.w3.org/2000/svg">
<path d="M1.91998 21.3599H17.952C20.208 21.3599 22.08 19.4879 22.08 17.2079C22.08 16.1519 21.696 15.1439 21 14.4239L9.23998 2.63989L3.50398 8.37589L8.23198 13.0799H1.91998V21.3599ZM3.71998 19.5599V14.8799H17.952C19.224 14.8799 20.28 15.9359 20.28 17.2079C20.28 18.5039 19.224 19.5599 17.952 19.5599H3.71998ZM6.04798 8.37589L9.23998 5.18389L17.112 13.0799H16.392H10.776L6.04798 8.37589ZM16.56 17.2079C16.56 17.8799 17.112 18.4799 17.832 18.4799C18.528 18.4799 19.08 17.8799 19.08 17.2079C19.08 16.5119 18.528 15.9599 17.832 15.9599C17.112 15.9599 16.56 16.5119 16.56 17.2079Z" fill="black"/>
</svg>
