<svg width="24" height="24" viewBox="0 0 24 24" fill="none" xmlns="http://www.w3.org/2000/svg">
<path d="M10.5842 16.7039C12.9602 16.7039 14.2322 14.8319 14.2082 11.9039C14.1842 9.04789 12.8402 7.34389 10.5602 7.34389C8.83219 7.34389 7.2962 8.66389 7.2962 10.5119C7.2962 12.2159 8.6162 13.5119 10.2482 13.5119C10.9442 13.5119 11.6642 13.2719 12.0722 12.7919H12.3362C12.3362 14.3999 11.7362 15.0479 10.5362 15.0479C9.57619 15.0479 9.12019 14.6399 9.04819 13.7759H7.1762C7.2482 15.5519 8.71219 16.7039 10.5842 16.7039ZM4.2002 21.3599H10.4402C15.6962 21.3599 19.8002 17.0879 19.8002 11.9999C19.8002 6.76789 15.6722 2.63989 10.4402 2.63989H4.2002V4.55989H10.4402C14.6162 4.55989 17.8802 7.82389 17.8802 11.9999C17.8802 16.0559 14.6162 19.4399 10.4402 19.4399H4.2002V21.3599ZM9.19219 10.7999V10.0559C9.19219 9.33589 9.57619 9.04789 10.5122 9.04789H10.7522C11.6882 9.04789 12.0722 9.33589 12.0722 10.0559V10.7999C12.0722 11.5199 11.6882 11.8079 10.7522 11.8079H10.5122C9.57619 11.8079 9.19219 11.5199 9.19219 10.7999Z" fill="black"/>
</svg>
