<svg width="24" height="24" viewBox="0 0 24 24" fill="none" xmlns="http://www.w3.org/2000/svg">
<path d="M12 21.3599C17.256 21.3599 21.36 17.0879 21.36 11.9999C21.36 6.76789 17.232 2.63989 12 2.63989C6.76802 2.63989 2.64001 6.76789 2.64001 11.9999C2.64001 17.2319 6.76802 21.3599 12 21.3599ZM4.56001 11.9999C4.56001 7.82389 7.82402 4.55989 12 4.55989C16.176 4.55989 19.44 7.82389 19.44 11.9999C19.44 16.0559 16.176 19.4399 12 19.4399C7.82402 19.4399 4.56001 16.1759 4.56001 11.9999ZM8.73602 13.7759C8.80802 15.5519 10.272 16.7039 12.144 16.7039C14.52 16.7039 15.792 14.8319 15.768 11.9039C15.744 9.04789 14.4 7.34389 12.12 7.34389C10.392 7.34389 8.85602 8.66389 8.85602 10.5119C8.85602 12.2159 10.176 13.5119 11.808 13.5119C12.504 13.5119 13.224 13.2719 13.632 12.7919H13.896C13.896 14.3999 13.296 15.0479 12.096 15.0479C11.136 15.0479 10.68 14.6399 10.608 13.7759H8.73602ZM10.752 10.7999V10.0559C10.752 9.33589 11.136 9.04789 12.072 9.04789H12.312C13.248 9.04789 13.632 9.33589 13.632 10.0559V10.7999C13.632 11.5199 13.248 11.8079 12.312 11.8079H12.072C11.136 11.8079 10.752 11.5199 10.752 10.7999Z" fill="black"/>
</svg>
