<svg width="24" height="24" viewBox="0 0 24 24" fill="none" xmlns="http://www.w3.org/2000/svg">
<path d="M12.1438 16.7039C14.5198 16.7039 15.7918 14.8319 15.7678 11.9039C15.7438 9.04789 14.3998 7.34389 12.1198 7.34389C10.3918 7.34389 8.85577 8.66389 8.85577 10.5119C8.85577 12.2159 10.1758 13.5119 11.8078 13.5119C12.5038 13.5119 13.2238 13.2719 13.6318 12.7919H13.8958C13.8958 14.3999 13.2958 15.0479 12.0958 15.0479C11.1358 15.0479 10.6798 14.6399 10.6078 13.7759H8.73577C8.80777 15.5519 10.2718 16.7039 12.1438 16.7039ZM5.75977 21.3599H18.2398V19.4399H5.75977V21.3599ZM5.75977 4.55989H18.2398V2.63989H5.75977V4.55989ZM10.7518 10.7999V10.0559C10.7518 9.33589 11.1358 9.04789 12.0718 9.04789H12.3118C13.2478 9.04789 13.6318 9.33589 13.6318 10.0559V10.7999C13.6318 11.5199 13.2478 11.8079 12.3118 11.8079H12.0718C11.1358 11.8079 10.7518 11.5199 10.7518 10.7999Z" fill="black"/>
</svg>
