<svg width="24" height="24" viewBox="0 0 24 24" fill="none" xmlns="http://www.w3.org/2000/svg">
<path d="M12.0001 21.3599C17.2561 21.3599 21.3601 17.0879 21.3601 11.9999C21.3601 6.76789 17.2321 2.63989 12.0001 2.63989C6.76814 2.63989 2.64014 6.76789 2.64014 11.9999C2.64014 17.2319 6.76814 21.3599 12.0001 21.3599ZM4.56014 11.9999C4.56014 7.82389 7.82414 4.55989 12.0001 4.55989C16.1761 4.55989 19.4401 7.82389 19.4401 11.9999C19.4401 16.0559 16.1761 19.4399 12.0001 19.4399C7.82414 19.4399 4.56014 16.1759 4.56014 11.9999ZM8.73614 13.7759C8.80814 15.5519 10.2721 16.7039 12.1441 16.7039C14.5201 16.7039 15.7921 14.8319 15.7681 11.9039C15.7441 9.04789 14.4001 7.34389 12.1201 7.34389C10.3921 7.34389 8.85614 8.66389 8.85614 10.5119C8.85614 12.2159 10.1761 13.5119 11.8081 13.5119C12.5041 13.5119 13.2241 13.2719 13.6321 12.7919H13.8961C13.8961 14.3999 13.2961 15.0479 12.0961 15.0479C11.1361 15.0479 10.6801 14.6399 10.6081 13.7759H8.73614ZM10.7521 10.7999V10.0559C10.7521 9.33589 11.1361 9.04789 12.0721 9.04789H12.3121C13.2481 9.04789 13.6321 9.33589 13.6321 10.0559V10.7999C13.6321 11.5199 13.2481 11.8079 12.3121 11.8079H12.0721C11.1361 11.8079 10.7521 11.5199 10.7521 10.7999Z" fill="black"/>
</svg>
