<svg width="24" height="24" viewBox="0 0 24 24" fill="none" xmlns="http://www.w3.org/2000/svg">
<path d="M13.7042 16.7039C16.0802 16.7039 17.3522 14.8319 17.3282 11.9039C17.3042 9.04789 15.9602 7.34389 13.6802 7.34389C11.9522 7.34389 10.4162 8.66389 10.4162 10.5119C10.4162 12.2159 11.7362 13.5119 13.3682 13.5119C14.0642 13.5119 14.7842 13.2719 15.1922 12.7919H15.4562C15.4562 14.3999 14.8562 15.0479 13.6562 15.0479C12.6962 15.0479 12.2402 14.6399 12.1682 13.7759H10.2962C10.3682 15.5519 11.8322 16.7039 13.7042 16.7039ZM4.2002 11.9999C4.2002 17.2319 8.3282 21.3599 13.5602 21.3599H19.8002V19.4399H13.5602C9.38419 19.4399 6.1202 16.1759 6.1202 11.9999C6.1202 7.94389 9.38419 4.55989 13.5602 4.55989H19.8002V2.63989H13.5602C8.30419 2.63989 4.2002 6.91189 4.2002 11.9999ZM12.3122 10.7999V10.0559C12.3122 9.33589 12.6962 9.04789 13.6322 9.04789H13.8722C14.8082 9.04789 15.1922 9.33589 15.1922 10.0559V10.7999C15.1922 11.5199 14.8082 11.8079 13.8722 11.8079H13.6322C12.6962 11.8079 12.3122 11.5199 12.3122 10.7999Z" fill="black"/>
</svg>
