<svg width="24" height="24" viewBox="0 0 24 24" fill="none" xmlns="http://www.w3.org/2000/svg">
<path d="M12.0001 21.3599C17.2561 21.3599 21.3601 17.0879 21.3601 11.9999C21.3601 6.76789 17.2321 2.63989 12.0001 2.63989C6.76814 2.63989 2.64014 6.76789 2.64014 11.9999C2.64014 17.2319 6.76814 21.3599 12.0001 21.3599ZM4.56014 11.9999C4.56014 7.82389 7.82414 4.55989 12.0001 4.55989C13.7281 4.55989 15.3121 5.13589 16.5601 6.09589L6.09614 16.5599C5.13614 15.3119 4.56014 13.7279 4.56014 11.9999ZM7.44014 17.9039L17.9041 7.43989C18.8641 8.68789 19.4401 10.2719 19.4401 11.9999C19.4401 16.0559 16.1761 19.4399 12.0001 19.4399C10.2721 19.4399 8.68814 18.8639 7.44014 17.9039Z" fill="black"/>
</svg>
