<svg width="24" height="24" viewBox="0 0 24 24" fill="none" xmlns="http://www.w3.org/2000/svg">
<path d="M12 21.3599C17.256 21.3599 21.36 17.0879 21.36 11.9999C21.36 6.76789 17.232 2.63989 12 2.63989C6.76802 2.63989 2.64001 6.76789 2.64001 11.9999C2.64001 17.2319 6.76802 21.3599 12 21.3599ZM4.56001 11.9999C4.56001 7.82389 7.82402 4.55989 12 4.55989C13.728 4.55989 15.312 5.13589 16.56 6.09589L6.09601 16.5599C5.13601 15.3119 4.56001 13.7279 4.56001 11.9999ZM7.44002 17.9039L17.904 7.43989C18.864 8.68789 19.44 10.2719 19.44 11.9999C19.44 16.0559 16.176 19.4399 12 19.4399C10.272 19.4399 8.68802 18.8639 7.44002 17.9039Z" fill="black"/>
</svg>
