<svg width="24" height="24" viewBox="0 0 24 24" fill="none" xmlns="http://www.w3.org/2000/svg">
<path d="M11.2791 2.03638C7.47521 2.42333 4.50006 5.84101 4.50006 9.9999L4.50001 15.9999H2V17.9999H22V15.9999H19.4999L19.5 10.8388C19.0168 10.9443 18.5149 10.9999 18 10.9999C17.8319 10.9999 17.6651 10.994 17.5 10.9823L17.4999 15.9999H6.50002L6.50006 9.9999C6.50006 6.96174 8.51731 4.60682 11.0007 4.10091C11.0002 4.06729 11 4.03362 11 3.9999C11 3.31824 11.0974 2.65935 11.2791 2.03638Z" fill="black"/>
<path d="M15 21.9999H9V19.9999H15V21.9999Z" fill="black"/>
<circle cx="18" cy="4" r="4" fill="#F04F52"/>
</svg>
