<svg width="24" height="24" viewBox="0 0 24 24" fill="none" xmlns="http://www.w3.org/2000/svg">
<path d="M18.096 21.8399L21.84 17.9519L15.936 12.6479L11.664 16.8479C10.824 16.2239 10.008 15.5279 9.24 14.7599C8.496 13.9919 7.776 13.1759 7.152 12.3359L11.352 8.06391L6.048 2.15991L2.16 5.92791C2.88 9.64791 5.088 13.2719 7.896 16.1039C10.752 18.9359 14.328 21.1439 18.096 21.8399ZM4.272 6.55191L5.952 4.94391L8.712 8.01591L6.072 10.7039C5.28 9.38391 4.656 7.99191 4.272 6.55191ZM13.272 17.9519L15.984 15.2879L19.056 18.0479L17.448 19.7279C16.008 19.3439 14.616 18.7439 13.272 17.9519Z" fill="black"/>
</svg>
