<svg width="24" height="24" viewBox="0 0 24 24" fill="none" xmlns="http://www.w3.org/2000/svg">
<path d="M11.9999 9.07123C10.3824 9.07123 9.07109 10.3825 9.07109 12H7.17109C7.17109 9.33316 9.33302 7.17124 11.9999 7.17123L11.9999 9.07123Z" fill="#191919"/>
<path fill-rule="evenodd" clip-rule="evenodd" d="M16.3342 5.01098C15.0758 4.22897 13.5906 3.77734 12.0001 3.77734C7.45875 3.77734 3.77729 7.4588 3.77729 12.0001C3.77729 12.0832 3.77853 12.166 3.78097 12.2484C2.81877 13.2028 2.05391 14.161 1.58328 15.061C1.08368 16.0165 0.79003 17.1639 1.35965 18.1486C1.37412 18.1736 1.38957 18.1977 1.40591 18.2209C1.88398 18.9783 2.72123 19.3167 3.55274 19.4371C4.42554 19.5635 5.46759 19.4815 6.58404 19.2531C6.93418 19.1814 7.29697 19.0942 7.67047 18.992C8.9279 19.7723 10.4114 20.2229 12.0001 20.2229C16.5414 20.2229 20.2228 16.5414 20.2228 12.0001C20.2228 11.9156 20.2215 11.8314 20.219 11.7475C20.4946 11.4748 20.7518 11.204 20.9892 10.9363C21.7452 10.0836 22.3373 9.22216 22.6642 8.40309C22.9762 7.62141 23.1017 6.72542 22.6822 5.93165C22.6693 5.90358 22.6549 5.87589 22.639 5.84866C22.0689 4.8713 20.9308 4.55476 19.8558 4.51107C18.8441 4.46994 17.6365 4.65338 16.3342 5.01098ZM12.0001 5.67734C8.50809 5.67734 5.67729 8.50814 5.67729 12.0001C5.67729 12.1724 5.68418 12.343 5.6977 12.5118C5.70046 12.5344 5.7024 12.5572 5.70353 12.58C5.86204 14.3232 6.72814 15.8621 8.01224 16.907C9.64968 16.3764 11.512 15.5483 13.4144 14.45C15.3172 13.3514 16.9658 12.1524 18.2441 10.9994C17.9731 9.2955 17.0215 7.81846 15.6767 6.85562C15.6427 6.83482 15.61 6.81188 15.5788 6.78692C14.5612 6.08702 13.3285 5.67734 12.0001 5.67734ZM18.1519 6.54386C18.8815 7.3659 19.4489 8.33519 19.8038 9.40154C20.3493 8.74898 20.7109 8.17128 20.8995 7.69876C21.1192 7.14842 21.0482 6.89832 20.9952 6.80659L20.9974 6.80532C20.9305 6.69146 20.6588 6.44528 19.7787 6.4095C19.3232 6.39098 18.7762 6.43437 18.1519 6.54386ZM3.00278 17.1945L3.0046 17.1935C3.05757 17.2852 3.23865 17.4718 3.82509 17.5567C4.32914 17.6297 5.01117 17.6052 5.85031 17.4587C5.11935 16.6357 4.55105 15.6651 4.19584 14.5972C3.78924 15.0844 3.47841 15.5371 3.267 15.9414C2.86053 16.7188 2.93636 17.0764 3.00278 17.1945ZM12.0001 18.3229C14.9482 18.3229 17.4251 16.3051 18.1251 13.5752C17.0111 14.4445 15.7425 15.2998 14.3644 16.0954C12.9863 16.8911 11.6113 17.562 10.3015 18.0921C10.842 18.2425 11.4116 18.3229 12.0001 18.3229Z" fill="#191919"/>
</svg>
