<svg width="24" height="24" viewBox="0 0 24 24" fill="none" xmlns="http://www.w3.org/2000/svg">
<path d="M10.056 22.3199L13.632 18.8159L12.6 15.7679L14.088 14.2799L17.832 21.4079L20.856 18.1439L18.888 9.47993L21.456 6.91193C22.008 6.35993 22.32 5.59193 22.32 4.77593C22.32 2.99993 20.928 1.67993 19.224 1.67993C18.384 1.67993 17.616 2.03993 16.872 2.78393L14.52 5.11193L5.80799 3.11993L2.68799 6.23993L9.71999 9.91193L8.23199 11.3999L5.20799 10.4399L1.67999 13.9679L7.12799 16.9439L10.056 22.3199ZM4.65599 13.5359L5.71199 12.4799L8.73599 13.4399L12.744 9.45593L5.68799 5.78393L6.38399 5.08793L15.096 7.07993L18.144 4.05593C18.552 3.64793 18.864 3.47993 19.224 3.47993C19.944 3.47993 20.52 3.98393 20.52 4.77593C20.52 5.11193 20.4 5.42393 20.184 5.63993L16.92 8.90393L18.888 17.6159L18.24 18.3119L14.544 11.2799L10.536 15.2879L11.568 18.3119L10.488 19.3679L8.44799 15.6239L4.65599 13.5359Z" fill="black"/>
</svg>
