<svg width="24" height="24" viewBox="0 0 24 24" fill="none" xmlns="http://www.w3.org/2000/svg">
<path d="M5.18399 18.3599H18.816V16.6799H17.232C19.152 15.2159 20.28 12.9599 20.28 10.4399C20.28 5.87991 16.56 2.15991 12 2.15991C7.43999 2.15991 3.71999 5.87991 3.71999 10.4399C3.71999 12.9599 4.84799 15.2159 6.76799 16.6799H5.18399V18.3599ZM1.67999 21.8399H22.32V14.7599H20.4V20.0399H3.59999V14.7599H1.67999V21.8399ZM5.63999 10.4399C5.63999 6.93591 8.49599 4.07991 12 4.07991C15.504 4.07991 18.36 6.93591 18.36 10.4399C18.36 13.5359 16.128 16.1039 13.224 16.6799H10.776C7.87199 16.1039 5.63999 13.5359 5.63999 10.4399Z" fill="black"/>
</svg>
