<svg width="24" height="24" viewBox="0 0 24 24" fill="none" xmlns="http://www.w3.org/2000/svg">
<path d="M14.712 22.2001L14.976 19.0561C15.624 18.792 16.2 18.4561 16.728 18.0721L19.608 19.416L22.224 14.856L19.68 13.128C19.728 12.7441 19.752 12.384 19.752 12C19.752 11.616 19.728 11.2561 19.68 10.872L22.224 9.14405L19.608 4.60805L16.776 5.92805C16.224 5.52005 15.624 5.18405 14.976 4.94405L14.712 1.80005H9.288L9.024 4.94405C8.376 5.20805 7.8 5.52005 7.248 5.92805L4.416 4.60805L1.776 9.12005L4.368 10.896C4.32 11.2561 4.296 11.616 4.296 12C4.296 12.384 4.32 12.7441 4.368 13.104L1.776 14.88L4.416 19.392L7.248 18.0721C7.8 18.4801 8.376 18.792 9.024 19.0561L9.288 22.2001H14.712ZM4.272 15.408L6.528 13.8481C6.288 13.2 6.216 12.696 6.216 12C6.216 11.304 6.288 10.8 6.528 10.1521L4.272 8.59205L5.208 6.98405L7.608 8.11205C8.544 7.12805 9.504 6.55205 10.848 6.28805L11.064 3.60005H12.936L13.152 6.28805C14.544 6.57605 15.48 7.10405 16.416 8.08805L18.792 6.98405L19.728 8.61605L17.544 10.104C17.76 10.824 17.832 11.328 17.832 12C17.832 12.672 17.76 13.1761 17.544 13.896L19.728 15.3841L18.792 17.0161L16.392 15.8881C15.48 16.8481 14.52 17.4001 13.152 17.7361L12.936 20.4001H11.064L10.848 17.7121C9.504 17.4481 8.544 16.8721 7.608 15.8881L5.208 17.0161L4.272 15.408ZM8.4 12C8.4 13.9921 10.008 15.6 12 15.6C13.992 15.6 15.6 13.9921 15.6 12C15.6 10.008 13.992 8.40005 12 8.40005C10.008 8.40005 8.4 10.008 8.4 12ZM10.08 12C10.08 10.944 10.944 10.08 12 10.08C13.056 10.08 13.92 10.944 13.92 12C13.92 13.056 13.056 13.92 12 13.92C10.944 13.92 10.08 13.056 10.08 12Z" fill="black"/>
</svg>
