<svg width="24" height="24" viewBox="0 0 24 24" fill="none" xmlns="http://www.w3.org/2000/svg">
<path d="M12.0001 21.3599C17.2561 21.3599 21.3601 17.0879 21.3601 11.9999C21.3601 6.76789 17.2321 2.63989 12.0001 2.63989C6.76814 2.63989 2.64014 6.76789 2.64014 11.9999C2.64014 17.2319 6.76814 21.3599 12.0001 21.3599ZM4.56014 11.9999C4.56014 7.82389 7.82414 4.55989 12.0001 4.55989C16.1761 4.55989 19.4401 7.82389 19.4401 11.9999C19.4401 16.0559 16.1761 19.4399 12.0001 19.4399C7.82414 19.4399 4.56014 16.1759 4.56014 11.9999ZM8.64014 9.23989H13.1281V9.55189C11.3521 11.7839 10.3921 13.9919 10.1041 16.4639H12.3121C12.5281 13.4399 13.5121 11.0639 15.4561 9.09589V7.58389H8.64014V9.23989Z" fill="black"/>
</svg>
