<svg width="24" height="24" viewBox="0 0 24 24" fill="none" xmlns="http://www.w3.org/2000/svg">
<path d="M12 21.8399C18.24 19.3679 21.36 15.4319 21.36 10.1279V5.08791C18.696 3.16791 15.456 2.15991 12 2.15991C8.54402 2.15991 5.30401 3.16791 2.64001 5.08791V10.1279C2.64001 15.4319 5.76001 19.3679 12 21.8399ZM4.56001 10.1279V5.99991C6.79202 4.60791 9.19202 3.95991 12 3.95991C14.808 3.95991 17.208 4.60791 19.44 5.99991V10.1279C19.44 14.6399 17.208 17.6399 12 19.8719C6.79202 17.6399 4.56001 14.6399 4.56001 10.1279ZM7.92002 11.3039L11.28 14.6879L16.944 8.99991L15.6 7.65591L11.28 11.9519L9.26402 9.95991L7.92002 11.3039Z" fill="black"/>
</svg>
