<svg width="24" height="24" viewBox="0 0 24 24" fill="none" xmlns="http://www.w3.org/2000/svg">
<path d="M12.0001 21.8399C18.2401 19.3679 21.3601 15.4319 21.3601 10.1279V5.08791C18.6961 3.16791 15.4561 2.15991 12.0001 2.15991C8.54414 2.15991 5.30414 3.16791 2.64014 5.08791V10.1279C2.64014 15.4319 5.76014 19.3679 12.0001 21.8399ZM4.56014 10.1279V5.99991C6.79214 4.60791 9.19214 3.95991 12.0001 3.95991C14.8081 3.95991 17.2081 4.60791 19.4401 5.99991V10.1279C19.4401 14.6399 17.2081 17.6399 12.0001 19.8719C6.79214 17.6399 4.56014 14.6399 4.56014 10.1279ZM7.92014 11.3039L11.2801 14.6879L16.9441 8.99991L15.6001 7.65591L11.2801 11.9519L9.26414 9.95991L7.92014 11.3039Z" fill="black"/>
</svg>
