<svg width="24" height="24" viewBox="0 0 24 24" fill="none" xmlns="http://www.w3.org/2000/svg">
<path d="M3.59998 20.8801H20.4V8.88012H16.8V8.13612C16.8 6.62412 16.536 5.61612 15.912 4.84812C15 3.69612 13.488 3.12012 12 3.12012C10.512 3.12012 8.99998 3.69612 8.08798 4.84812C7.46398 5.64012 7.19998 6.64812 7.19998 8.13612V8.88012H3.59998V20.8801ZM5.51998 19.0801V10.6801H7.19998V12.9601H9.11998V10.6801H14.88V12.9601H16.8V10.6801H18.48V19.0801H5.51998ZM9.11998 8.88012V7.15212C9.11998 5.61612 9.69598 4.99212 11.352 4.99212H12.648C14.28 4.99212 14.88 5.61612 14.88 7.15212V8.88012H9.11998Z" fill="black"/>
</svg>
