<svg width="24" height="24" viewBox="0 0 24 24" fill="none" xmlns="http://www.w3.org/2000/svg">
<path d="M11.9518 16.7039C13.9198 16.7039 15.2638 15.3839 15.2638 13.6079C15.2638 11.8319 13.8958 10.5359 12.2638 10.5359C11.5678 10.5359 10.8718 10.7759 10.4398 11.2319H10.1518C10.1998 9.69589 10.7278 8.99989 11.9758 8.99989C12.8398 8.99989 13.3918 9.28789 13.4878 9.98389H15.2398C14.9998 8.37589 13.7758 7.34389 11.9998 7.34389C9.62377 7.34389 8.27977 9.21589 8.30377 12.1439C8.32777 14.9999 9.67177 16.7039 11.9518 16.7039ZM5.75977 21.3599H18.2398V19.4399H5.75977V21.3599ZM5.75977 4.55989H18.2398V2.63989H5.75977V4.55989ZM10.3918 13.9439V13.1759C10.3918 12.4319 10.7998 12.1199 11.7838 12.1199H12.0238C13.0078 12.1199 13.4158 12.4319 13.4158 13.1759V13.9439C13.4158 14.6879 13.0078 14.9999 12.0238 14.9999H11.7838C10.7998 14.9999 10.3918 14.6879 10.3918 13.9439Z" fill="black"/>
</svg>
