<svg width="24" height="24" viewBox="0 0 24 24" fill="none" xmlns="http://www.w3.org/2000/svg">
<path d="M13.5122 16.7039C15.4802 16.7039 16.8242 15.3839 16.8242 13.6079C16.8242 11.8319 15.4562 10.5359 13.8242 10.5359C13.1282 10.5359 12.4322 10.7759 12.0002 11.2319H11.7122C11.7602 9.69589 12.2882 8.99989 13.5362 8.99989C14.4002 8.99989 14.9522 9.28789 15.0482 9.98389H16.8002C16.5602 8.37589 15.3362 7.34389 13.5602 7.34389C11.1842 7.34389 9.84019 9.21589 9.86419 12.1439C9.8882 14.9999 11.2322 16.7039 13.5122 16.7039ZM4.2002 11.9999C4.2002 17.2319 8.3282 21.3599 13.5602 21.3599H19.8002V19.4399H13.5602C9.38419 19.4399 6.1202 16.1759 6.1202 11.9999C6.1202 7.94389 9.38419 4.55989 13.5602 4.55989H19.8002V2.63989H13.5602C8.30419 2.63989 4.2002 6.91189 4.2002 11.9999ZM11.9522 13.9439V13.1759C11.9522 12.4319 12.3602 12.1199 13.3442 12.1199H13.5842C14.5682 12.1199 14.9762 12.4319 14.9762 13.1759V13.9439C14.9762 14.6879 14.5682 14.9999 13.5842 14.9999H13.3442C12.3602 14.9999 11.9522 14.6879 11.9522 13.9439Z" fill="black"/>
</svg>
