<svg width="24" height="24" viewBox="0 0 24 24" fill="none" xmlns="http://www.w3.org/2000/svg">
<path d="M12.0001 21.3599C17.2561 21.3599 21.3601 17.0879 21.3601 11.9999C21.3601 6.76789 17.2321 2.63989 12.0001 2.63989C6.76814 2.63989 2.64014 6.76789 2.64014 11.9999C2.64014 17.2319 6.76814 21.3599 12.0001 21.3599ZM4.56014 11.9999C4.56014 7.82389 7.82414 4.55989 12.0001 4.55989C16.1761 4.55989 19.4401 7.82389 19.4401 11.9999C19.4401 16.0559 16.1761 19.4399 12.0001 19.4399C7.82414 19.4399 4.56014 16.1759 4.56014 11.9999ZM8.30414 12.1439C8.32814 14.9999 9.67214 16.7039 11.9521 16.7039C13.9201 16.7039 15.2641 15.3839 15.2641 13.6079C15.2641 11.8319 13.8961 10.5359 12.2641 10.5359C11.5681 10.5359 10.8721 10.7759 10.4401 11.2319H10.1521C10.2001 9.69589 10.7281 8.99989 11.9761 8.99989C12.8401 8.99989 13.3921 9.28789 13.4881 9.98389H15.2401C15.0001 8.37589 13.7761 7.34389 12.0001 7.34389C9.62414 7.34389 8.28014 9.21589 8.30414 12.1439ZM10.3921 13.9439V13.1759C10.3921 12.4319 10.8001 12.1199 11.7841 12.1199H12.0241C13.0081 12.1199 13.4161 12.4319 13.4161 13.1759V13.9439C13.4161 14.6879 13.0081 14.9999 12.0241 14.9999H11.7841C10.8001 14.9999 10.3921 14.6879 10.3921 13.9439Z" fill="black"/>
</svg>
