<svg width="24" height="24" viewBox="0 0 24 24" fill="none" xmlns="http://www.w3.org/2000/svg">
<path d="M10.3922 16.7039C12.3602 16.7039 13.7042 15.3839 13.7042 13.6079C13.7042 11.8319 12.3362 10.5359 10.7042 10.5359C10.0082 10.5359 9.31219 10.7759 8.8802 11.2319H8.5922C8.64019 9.69589 9.16819 8.99989 10.4162 8.99989C11.2802 8.99989 11.8322 9.28789 11.9282 9.98389H13.6802C13.4402 8.37589 12.2162 7.34389 10.4402 7.34389C8.0642 7.34389 6.7202 9.21589 6.7442 12.1439C6.7682 14.9999 8.1122 16.7039 10.3922 16.7039ZM4.2002 21.3599H10.4402C15.6962 21.3599 19.8002 17.0879 19.8002 11.9999C19.8002 6.76789 15.6722 2.63989 10.4402 2.63989H4.2002V4.55989H10.4402C14.6162 4.55989 17.8802 7.82389 17.8802 11.9999C17.8802 16.0559 14.6162 19.4399 10.4402 19.4399H4.2002V21.3599ZM8.83219 13.9439V13.1759C8.83219 12.4319 9.24019 12.1199 10.2242 12.1199H10.4642C11.4482 12.1199 11.8562 12.4319 11.8562 13.1759V13.9439C11.8562 14.6879 11.4482 14.9999 10.4642 14.9999H10.2242C9.24019 14.9999 8.83219 14.6879 8.83219 13.9439Z" fill="black"/>
</svg>
