<svg width="24" height="24" viewBox="0 0 24 24" fill="none" xmlns="http://www.w3.org/2000/svg">
<path d="M12 22.0799C16.56 22.0799 20.28 18.3599 20.28 13.7999C20.28 11.8799 19.632 10.1279 18.528 8.71192L19.68 7.55992L18.24 6.11992L17.088 7.27192C15.912 6.35992 14.496 5.75992 12.96 5.56792V3.83992H14.76V1.91992H9.24V3.83992H11.04V5.56792C6.936 6.04792 3.72 9.57592 3.72 13.7999C3.72 18.3599 7.44 22.0799 12 22.0799ZM5.64 13.7999C5.64 10.2959 8.496 7.43992 12 7.43992C15.504 7.43992 18.36 10.2959 18.36 13.7999C18.36 17.3039 15.504 20.1599 12 20.1599C8.496 20.1599 5.64 17.3039 5.64 13.7999ZM11.04 14.2799C11.04 14.8079 11.472 15.2399 12 15.2399C12.528 15.2399 12.96 14.8079 12.96 14.2799V9.11992H11.04V14.2799Z" fill="black"/>
</svg>
