<svg width="24" height="24" viewBox="0 0 24 24" fill="none" xmlns="http://www.w3.org/2000/svg">
<path d="M12 21.3599C17.232 21.3599 21.36 19.6319 21.36 16.7759V7.17589C21.36 4.34389 17.376 2.63989 12 2.63989C6.79202 2.63989 2.64001 4.31989 2.64001 7.17589V16.7759C2.64001 19.6319 6.67201 21.3599 12 21.3599ZM4.56001 16.7759V14.8799C6.21601 15.9599 8.88002 16.5599 12 16.5599C15.072 16.5599 17.76 15.9599 19.44 14.8799V16.7759C19.44 18.3599 16.656 19.5359 12 19.5359C7.27202 19.5359 4.56001 18.3599 4.56001 16.7759ZM4.56001 10.0319C6.21601 11.1119 8.88002 11.6879 12 11.6879C15.072 11.6879 17.76 11.0879 19.44 10.0079V12.0479C19.44 13.5359 16.632 14.7599 12 14.7599C7.29602 14.7599 4.58401 13.5599 4.58401 12.0479L4.56001 10.0319ZM4.58401 7.17589C4.56001 5.61589 7.36802 4.43989 12 4.43989C16.8 4.43989 19.44 5.61589 19.44 7.17589C19.44 8.68789 16.632 9.88789 12 9.88789C7.29602 9.88789 4.58401 8.71189 4.58401 7.17589Z" fill="black"/>
</svg>
