<svg width="24" height="24" viewBox="0 0 24 24" fill="none" xmlns="http://www.w3.org/2000/svg">
<path d="M10.464 21.3599H13.536C14.28 21.3599 14.856 20.8559 14.976 20.1599C16.968 19.2239 18.384 17.4719 18.84 15.3599H19.224C20.976 15.3599 22.32 14.0159 22.32 12.2639V11.2559C22.32 9.50389 20.976 8.15989 19.224 8.15989H18.84C18.192 5.03989 15.408 2.63989 12 2.63989C8.59199 2.63989 5.80799 5.03989 5.15999 8.15989H4.77599C3.02399 8.15989 1.67999 9.50389 1.67999 11.2559V12.2639C1.67999 14.0159 3.02399 15.3599 4.77599 15.3599H6.93599V9.55189C6.93599 6.74389 9.19199 4.43989 12 4.43989C14.808 4.43989 17.064 6.74389 17.064 9.55189V13.9199C17.064 15.6239 16.224 17.1359 14.952 18.0719C14.76 17.4479 14.232 17.0399 13.536 17.0399H10.464C9.62399 17.0399 8.99999 17.6639 8.99999 18.5039V19.8959C8.99999 20.7359 9.62399 21.3599 10.464 21.3599ZM3.35999 12.2639V11.2559C3.35999 10.1999 3.71999 9.83989 4.77599 9.83989H5.01599V13.6799H4.77599C3.71999 13.6799 3.35999 13.3199 3.35999 12.2639ZM10.56 19.7519V18.6479C10.56 18.6239 10.584 18.5999 10.608 18.5999H13.392C13.416 18.5999 13.44 18.6239 13.44 18.6479V19.7519C13.44 19.7759 13.416 19.7999 13.392 19.7999H10.608C10.584 19.7999 10.56 19.7759 10.56 19.7519ZM18.984 13.6799V9.83989H19.224C20.28 9.83989 20.64 10.1999 20.64 11.2559V12.2639C20.64 13.3199 20.28 13.6799 19.224 13.6799H18.984Z" fill="black"/>
</svg>
