<svg width="24" height="24" viewBox="0 0 24 24" fill="none" xmlns="http://www.w3.org/2000/svg">
<path d="M4.00799 20.4001H19.992C21.432 18.6481 22.32 16.3681 22.32 13.9201C22.32 12.0241 21.816 10.2481 20.928 8.7361L19.512 10.1521C20.088 11.2801 20.4 12.5761 20.4 13.9201C20.4 15.6001 19.896 17.1601 19.032 18.4801H4.96799C4.10399 17.1601 3.59999 15.6001 3.59999 13.9201C3.59999 9.2881 7.36799 5.5201 12 5.5201C13.344 5.5201 14.64 5.8321 15.768 6.4081L17.184 4.9921C15.672 4.1041 13.896 3.6001 12 3.6001C6.31199 3.6001 1.67999 8.2321 1.67999 13.9201C1.67999 16.3681 2.56799 18.6481 4.00799 20.4001ZM11.04 13.9201C11.04 14.4481 11.472 14.8801 12 14.8801C12.264 14.8801 12.504 14.7841 12.672 14.5921L19.992 7.2721L18.648 5.9281L11.328 13.2481C11.136 13.4161 11.04 13.6561 11.04 13.9201Z" fill="black"/>
</svg>
