<svg width="24" height="24" viewBox="0 0 24 24" fill="none" xmlns="http://www.w3.org/2000/svg">
<path d="M4.00799 20.4001H19.992C21.432 18.6481 22.32 16.3681 22.32 13.9201C22.32 8.2321 17.688 3.6001 12 3.6001C10.104 3.6001 8.32799 4.1041 6.81599 4.9921L8.23199 6.4081C9.35999 5.8321 10.656 5.5201 12 5.5201C16.632 5.5201 20.4 9.2881 20.4 13.9201C20.4 15.6001 19.896 17.1601 19.032 18.4801H4.96799C4.10399 17.1601 3.59999 15.6001 3.59999 13.9201C3.59999 12.5761 3.91199 11.2801 4.48799 10.1521L3.07199 8.7361C2.18399 10.2481 1.67999 12.0241 1.67999 13.9201C1.67999 16.3681 2.56799 18.6481 4.00799 20.4001ZM4.00799 7.2721L11.328 14.5921C11.496 14.7841 11.736 14.8801 12 14.8801C12.528 14.8801 12.96 14.4481 12.96 13.9201C12.96 13.6561 12.864 13.4161 12.672 13.2481L5.35199 5.9281L4.00799 7.2721Z" fill="black"/>
</svg>
