<svg width="24" height="24" viewBox="0 0 24 24" fill="none" xmlns="http://www.w3.org/2000/svg">
<path d="M12 16.6799C14.016 16.6799 15.528 15.5039 15.528 13.9679C15.528 13.0079 14.904 12.2399 14.088 11.9999V11.6639C14.736 11.3999 15.216 10.7279 15.216 9.91189C15.216 8.47189 13.776 7.31989 12 7.31989C10.104 7.31989 8.64001 8.56789 8.64001 10.1279V10.2959H10.536C10.536 9.23989 10.776 8.99989 11.976 8.99989C13.104 8.99989 13.344 9.21589 13.344 10.1039C13.344 11.0159 13.152 11.1119 12.192 11.1119H11.16V12.7919H12.216C13.296 12.7919 13.56 12.9839 13.56 13.8959C13.56 14.8079 13.272 14.9999 11.976 14.9999C10.68 14.9999 10.44 14.7839 10.44 13.5599H8.49601V13.6799C8.49601 15.4079 9.96001 16.6799 12 16.6799ZM5.76001 21.3599H18.24V19.4399H5.76001V21.3599ZM5.76001 4.55989H18.24V2.63989H5.76001V4.55989Z" fill="black"/>
</svg>
