<svg width="24" height="24" viewBox="0 0 24 24" fill="none" xmlns="http://www.w3.org/2000/svg">
<path d="M10.44 16.6799C12.456 16.6799 13.968 15.5039 13.968 13.9679C13.968 13.0079 13.344 12.2399 12.528 11.9999V11.6639C13.176 11.3999 13.656 10.7279 13.656 9.91189C13.656 8.47189 12.216 7.31989 10.44 7.31989C8.54401 7.31989 7.08001 8.56789 7.08001 10.1279V10.2959H8.97601C8.97601 9.23989 9.21601 8.99989 10.416 8.99989C11.544 8.99989 11.784 9.21589 11.784 10.1039C11.784 11.0159 11.592 11.1119 10.632 11.1119H9.60001V12.7919H10.656C11.736 12.7919 12 12.9839 12 13.8959C12 14.8079 11.712 14.9999 10.416 14.9999C9.12001 14.9999 8.88001 14.7839 8.88001 13.5599H6.93601V13.6799C6.93601 15.4079 8.40001 16.6799 10.44 16.6799ZM4.20001 21.3599H10.44C15.696 21.3599 19.8 17.0879 19.8 11.9999C19.8 6.76789 15.672 2.63989 10.44 2.63989H4.20001V4.55989H10.44C14.616 4.55989 17.88 7.82389 17.88 11.9999C17.88 16.0559 14.616 19.4399 10.44 19.4399H4.20001V21.3599Z" fill="black"/>
</svg>
