<svg width="24" height="24" viewBox="0 0 24 24" fill="none" xmlns="http://www.w3.org/2000/svg">
<path d="M2.64014 20.4001H21.3601V11.1601L18.6001 8.4001H16.8241V5.3761C16.8241 4.3681 16.0561 3.6001 15.0721 3.6001H8.92814C7.94414 3.6001 7.17614 4.3681 7.17614 5.3761V8.4001H5.40014L2.64014 11.1601V20.4001ZM4.51214 18.6001V15.6481H7.63214V16.7761H9.43214V15.6481H14.5921V16.7761H16.3921V15.6481H19.4881V18.6001H4.51214ZM4.51214 13.8481V11.8801L6.19214 10.2001H17.8081L19.4881 11.8801V13.8481H16.3921V12.6961H14.5921V13.8481H9.43214V12.6961H7.63214V13.8481H4.51214ZM8.97614 8.4001V5.4481C8.97614 5.4241 9.00014 5.4001 9.02414 5.4001H14.9761C15.0001 5.4001 15.0241 5.4241 15.0241 5.4481V8.4001H8.97614Z" fill="black"/>
</svg>
