<svg width="24" height="24" viewBox="0 0 24 24" fill="none" xmlns="http://www.w3.org/2000/svg">
<path d="M2.64001 20.4001H21.36V11.1601L18.6 8.4001H16.824V5.3761C16.824 4.3681 16.056 3.6001 15.072 3.6001H8.92802C7.94402 3.6001 7.17602 4.3681 7.17602 5.3761V8.4001H5.40001L2.64001 11.1601V20.4001ZM4.51201 18.6001V15.6481H7.63202V16.7761H9.43202V15.6481H14.592V16.7761H16.392V15.6481H19.488V18.6001H4.51201ZM4.51201 13.8481V11.8801L6.19201 10.2001H17.808L19.488 11.8801V13.8481H16.392V12.6961H14.592V13.8481H9.43202V12.6961H7.63202V13.8481H4.51201ZM8.97602 8.4001V5.4481C8.97602 5.4241 9.00002 5.4001 9.02402 5.4001H14.976C15 5.4001 15.024 5.4241 15.024 5.4481V8.4001H8.97602Z" fill="black"/>
</svg>
