<svg width="24" height="24" viewBox="0 0 24 24" fill="none" xmlns="http://www.w3.org/2000/svg">
<path d="M4.92018 21.9599C5.68818 21.9599 6.40818 21.6719 6.96018 21.1199L15.9362 12.1199C16.3202 12.1919 16.6802 12.2399 17.0402 12.2399C19.9442 12.2399 22.3202 9.86393 22.3202 6.95993C22.3202 4.05593 19.9442 1.67993 17.0402 1.67993C14.1362 1.67993 11.7602 4.05593 11.7602 6.95993C11.7602 7.31993 11.8082 7.67993 11.8802 8.06393L2.88018 17.0399C2.32818 17.5919 2.04018 18.3119 2.04018 19.0799C2.04018 20.6639 3.33618 21.9599 4.92018 21.9599ZM1.68018 5.99993L6.52818 10.8479L8.68818 8.68793L7.94418 7.94393L6.96018 8.90393L5.90418 7.84793L6.86418 6.86393L6.09618 6.09593L5.11218 7.05593L4.05618 5.99993L6.00018 4.05593L9.67218 7.72793L9.98418 7.41593C9.93618 6.55193 9.98418 6.14393 10.0562 5.73593L6.00018 1.67993L1.68018 5.99993ZM3.84018 19.0799C3.84018 18.7919 3.93618 18.5279 4.15218 18.3119L13.9442 8.54393C13.7042 8.06393 13.5602 7.53593 13.5602 6.95993C13.5602 5.03993 15.1202 3.47993 17.0402 3.47993C17.6402 3.47993 18.2162 3.64793 18.7202 3.91193L16.2002 6.45593L17.5442 7.79993L20.0882 5.27993C20.3522 5.78393 20.5202 6.35993 20.5202 6.95993C20.5202 8.87993 18.9602 10.4399 17.0402 10.4399C16.4642 10.4399 15.9362 10.2959 15.4562 10.0559L5.68818 19.8479C5.47218 20.0639 5.20818 20.1599 4.92018 20.1599C4.32018 20.1599 3.84018 19.6799 3.84018 19.0799ZM13.1522 17.4719L18.0002 22.3199L22.3202 17.9999L18.2642 13.9439C17.8562 14.0159 17.4482 14.0639 16.5842 14.0159L16.2722 14.3279L19.9442 17.9999L18.0002 19.9439L16.9442 18.8879L17.9042 17.9039L17.1362 17.1359L16.1522 18.0959L15.0962 17.0399L16.0562 16.0559L15.3122 15.3119L13.1522 17.4719Z" fill="black"/>
</svg>
