<svg width="24" height="24" viewBox="0 0 24 24" fill="none" xmlns="http://www.w3.org/2000/svg">
<path d="M4.56005 22.3199C5.32805 22.3199 6.04805 22.0319 6.60005 21.4799L15.9361 12.1199C16.3201 12.1919 16.6801 12.2399 17.0401 12.2399C19.9441 12.2399 22.3201 9.86393 22.3201 6.95993C22.3201 4.05593 19.9441 1.67993 17.0401 1.67993C14.1361 1.67993 11.7601 4.05593 11.7601 6.95993C11.7601 7.31993 11.8081 7.67993 11.8801 8.06393L2.52005 17.3999C1.96805 17.9519 1.68005 18.6719 1.68005 19.4399C1.68005 21.0239 2.97605 22.3199 4.56005 22.3199ZM3.48005 19.4399C3.48005 19.1519 3.57605 18.8879 3.79205 18.6719L13.9441 8.54393C13.7041 8.06393 13.5601 7.53593 13.5601 6.95993C13.5601 5.03993 15.1201 3.47993 17.0401 3.47993C17.6401 3.47993 18.2161 3.64793 18.7201 3.91193L16.2001 6.45593L17.5441 7.79993L20.0881 5.27993C20.3521 5.78393 20.5201 6.35993 20.5201 6.95993C20.5201 8.87993 18.9601 10.4399 17.0401 10.4399C16.4641 10.4399 15.9361 10.2959 15.4561 10.0559L5.32805 20.2079C5.11205 20.4239 4.84805 20.5199 4.56005 20.5199C3.96005 20.5199 3.48005 20.0399 3.48005 19.4399Z" fill="black"/>
</svg>
