<svg width="24" height="24" viewBox="0 0 24 24" fill="none" xmlns="http://www.w3.org/2000/svg">
<path d="M4.92005 21.9599C5.68805 21.9599 6.40805 21.6719 6.96005 21.1199L15.9361 12.1199C16.3201 12.1919 16.6801 12.2399 17.0401 12.2399C19.9441 12.2399 22.3201 9.86393 22.3201 6.95993C22.3201 4.05593 19.9441 1.67993 17.0401 1.67993C14.1361 1.67993 11.7601 4.05593 11.7601 6.95993C11.7601 7.31993 11.8081 7.67993 11.8801 8.06393L2.88005 17.0399C2.32805 17.5919 2.04005 18.3119 2.04005 19.0799C2.04005 20.6639 3.33605 21.9599 4.92005 21.9599ZM1.68005 5.99993L6.52805 10.8479L8.68805 8.68793L7.94405 7.94393L6.96005 8.90393L5.90405 7.84793L6.86405 6.86393L6.09605 6.09593L5.11205 7.05593L4.05605 5.99993L6.00005 4.05593L9.67205 7.72793L9.98405 7.41593C9.93605 6.55193 9.98405 6.14393 10.0561 5.73593L6.00005 1.67993L1.68005 5.99993ZM3.84005 19.0799C3.84005 18.7919 3.93605 18.5279 4.15205 18.3119L13.9441 8.54393C13.7041 8.06393 13.5601 7.53593 13.5601 6.95993C13.5601 5.03993 15.1201 3.47993 17.0401 3.47993C17.6401 3.47993 18.2161 3.64793 18.7201 3.91193L16.2001 6.45593L17.5441 7.79993L20.0881 5.27993C20.3521 5.78393 20.5201 6.35993 20.5201 6.95993C20.5201 8.87993 18.9601 10.4399 17.0401 10.4399C16.4641 10.4399 15.9361 10.2959 15.4561 10.0559L5.68805 19.8479C5.47205 20.0639 5.20805 20.1599 4.92005 20.1599C4.32005 20.1599 3.84005 19.6799 3.84005 19.0799ZM13.1521 17.4719L18.0001 22.3199L22.3201 17.9999L18.2641 13.9439C17.8561 14.0159 17.4481 14.0639 16.5841 14.0159L16.2721 14.3279L19.9441 17.9999L18.0001 19.9439L16.9441 18.8879L17.9041 17.9039L17.1361 17.1359L16.1521 18.0959L15.0961 17.0399L16.0561 16.0559L15.3121 15.3119L13.1521 17.4719Z" fill="black"/>
</svg>
