<svg width="24" height="24" viewBox="0 0 24 24" fill="none" xmlns="http://www.w3.org/2000/svg">
<path d="M12.0001 21.3481C17.1601 21.3481 21.3601 17.1721 21.3601 12.0121C21.3601 6.8521 17.1601 2.6521 12.0001 2.6521C6.84014 2.6521 2.64014 6.8521 2.64014 12.0121C2.64014 17.1721 6.84014 21.3481 12.0001 21.3481ZM5.52014 9.6601V8.0761H11.9521V9.6601H9.60014V16.4281H7.89614V9.6601H5.52014ZM12.8881 16.4281V8.0761H15.9361C17.6401 8.0761 18.8401 9.2521 18.8401 10.8121C18.8401 12.3721 17.6401 13.5001 15.9361 13.5001H14.6161V16.4281H12.8881ZM14.6161 11.9401H16.0801C16.8241 11.9401 17.0401 11.7001 17.0401 11.0281V10.5721C17.0401 9.8761 16.8241 9.6601 16.0801 9.6601H14.6161V11.9401Z" fill="black"/>
</svg>
