<svg width="24" height="24" viewBox="0 0 24 24" fill="none" xmlns="http://www.w3.org/2000/svg">
<path d="M12 21.3481C17.16 21.3481 21.36 17.1721 21.36 12.0121C21.36 6.8521 17.16 2.6521 12 2.6521C6.84002 2.6521 2.64001 6.8521 2.64001 12.0121C2.64001 17.1721 6.84002 21.3481 12 21.3481ZM5.52001 9.6601V8.0761H11.952V9.6601H9.60002V16.4281H7.89602V9.6601H5.52001ZM12.888 16.4281V8.0761H15.936C17.64 8.0761 18.84 9.2521 18.84 10.8121C18.84 12.3721 17.64 13.5001 15.936 13.5001H14.616V16.4281H12.888ZM14.616 11.9401H16.08C16.824 11.9401 17.04 11.7001 17.04 11.0281V10.5721C17.04 9.8761 16.824 9.6601 16.08 9.6601H14.616V11.9401Z" fill="black"/>
</svg>
