<svg width="24" height="24" viewBox="0 0 24 24" fill="none" xmlns="http://www.w3.org/2000/svg">
<path d="M17.0161 12.3121L21.3601 7.9441L17.0161 3.6001L15.8401 4.8001L16.8961 5.8561C17.2801 6.2401 17.7121 6.6481 18.1441 7.0321H3.60014V8.8561H18.1921C17.7361 9.2641 17.3041 9.6481 16.8961 10.0561L15.8401 11.1361L17.0161 12.3121ZM2.64014 16.0561L6.98414 20.4001L8.16014 19.2001L7.10414 18.1441C6.72014 17.7601 6.28814 17.3521 5.85614 16.9681H20.4001V15.1441H5.80814C6.26414 14.7361 6.69614 14.3521 7.10414 13.9441L8.16014 12.8641L6.98414 11.6881L2.64014 16.0561Z" fill="black"/>
</svg>
