<svg width="24" height="24" viewBox="0 0 24 24" fill="none" xmlns="http://www.w3.org/2000/svg">
<path d="M17.016 12.3121L21.36 7.9441L17.016 3.6001L15.84 4.8001L16.896 5.8561C17.28 6.2401 17.712 6.6481 18.144 7.0321H3.60001V8.8561H18.192C17.736 9.2641 17.304 9.6481 16.896 10.0561L15.84 11.1361L17.016 12.3121ZM2.64001 16.0561L6.98402 20.4001L8.16002 19.2001L7.10402 18.1441C6.72002 17.7601 6.28801 17.3521 5.85601 16.9681H20.4V15.1441H5.80801C6.26401 14.7361 6.69601 14.3521 7.10402 13.9441L8.16002 12.8641L6.98402 11.6881L2.64001 16.0561Z" fill="black"/>
</svg>
