<svg width="24" height="24" viewBox="0 0 24 24" fill="none" xmlns="http://www.w3.org/2000/svg">
<path d="M12.0001 21.3599C17.2561 21.3599 21.3601 17.0879 21.3601 11.9999C21.3601 6.76789 17.2321 2.63989 12.0001 2.63989C6.76814 2.63989 2.64014 6.76789 2.64014 11.9999C2.64014 17.2319 6.76814 21.3599 12.0001 21.3599ZM4.56014 11.9999C4.56014 7.82389 7.82414 4.55989 12.0001 4.55989C16.1761 4.55989 19.4401 7.82389 19.4401 11.9999C19.4401 16.0559 16.1761 19.4399 12.0001 19.4399C7.82414 19.4399 4.56014 16.1759 4.56014 11.9999ZM8.64014 10.4639H10.5361V10.1999C10.5361 9.33589 10.8241 9.02389 11.9281 9.02389H12.0961C13.1041 9.02389 13.4161 9.33589 13.4161 10.2719C13.4161 10.9439 13.2481 11.4479 11.6401 12.4559L8.85614 14.2079V16.4639H15.2161V14.8079L11.1121 14.8319V14.5199L13.3441 13.1519C14.7601 12.2879 15.3361 11.3519 15.3361 10.2239C15.3361 8.42389 13.8721 7.34389 12.0241 7.34389C10.0321 7.34389 8.64014 8.63989 8.64014 10.1519V10.4639Z" fill="black"/>
</svg>
