<svg width="24" height="24" viewBox="0 0 24 24" fill="none" xmlns="http://www.w3.org/2000/svg">
<path d="M10.4162 16.4639H16.7762V14.8079L12.6722 14.8319V14.5199L14.9042 13.1519C16.3202 12.2879 16.8962 11.3519 16.8962 10.2239C16.8962 8.42389 15.4322 7.34389 13.5842 7.34389C11.5922 7.34389 10.2002 8.63989 10.2002 10.1519V10.4639H12.0962V10.1999C12.0962 9.33589 12.3842 9.02389 13.4882 9.02389H13.6562C14.6642 9.02389 14.9762 9.33589 14.9762 10.2719C14.9762 10.9439 14.8082 11.4479 13.2002 12.4559L10.4162 14.2079V16.4639ZM4.2002 11.9999C4.2002 17.2319 8.3282 21.3599 13.5602 21.3599H19.8002V19.4399H13.5602C9.38419 19.4399 6.1202 16.1759 6.1202 11.9999C6.1202 7.94389 9.38419 4.55989 13.5602 4.55989H19.8002V2.63989H13.5602C8.30419 2.63989 4.2002 6.91189 4.2002 11.9999Z" fill="black"/>
</svg>
