<svg width="24" height="24" viewBox="0 0 24 24" fill="none" xmlns="http://www.w3.org/2000/svg">
<path d="M7.2962 16.4639H13.6562V14.8079L9.5522 14.8319V14.5199L11.7842 13.1519C13.2002 12.2879 13.7762 11.3519 13.7762 10.2239C13.7762 8.42389 12.3122 7.34389 10.4642 7.34389C8.4722 7.34389 7.0802 8.63989 7.0802 10.1519V10.4639H8.97619V10.1999C8.97619 9.33589 9.26419 9.02389 10.3682 9.02389H10.5362C11.5442 9.02389 11.8562 9.33589 11.8562 10.2719C11.8562 10.9439 11.6882 11.4479 10.0802 12.4559L7.2962 14.2079V16.4639ZM4.2002 21.3599H10.4402C15.6962 21.3599 19.8002 17.0879 19.8002 11.9999C19.8002 6.76789 15.6722 2.63989 10.4402 2.63989H4.2002V4.55989H10.4402C14.6162 4.55989 17.8802 7.82389 17.8802 11.9999C17.8802 16.0559 14.6162 19.4399 10.4402 19.4399H4.2002V21.3599Z" fill="black"/>
</svg>
