<svg width="24" height="24" viewBox="0 0 24 24" fill="none" xmlns="http://www.w3.org/2000/svg">
<path d="M8.85577 16.4639H15.2158V14.8079L11.1118 14.8319V14.5199L13.3438 13.1519C14.7598 12.2879 15.3358 11.3519 15.3358 10.2239C15.3358 8.42389 13.8718 7.34389 12.0238 7.34389C10.0318 7.34389 8.63977 8.63989 8.63977 10.1519V10.4639H10.5358V10.1999C10.5358 9.33589 10.8238 9.02389 11.9278 9.02389H12.0958C13.1038 9.02389 13.4158 9.33589 13.4158 10.2719C13.4158 10.9439 13.2478 11.4479 11.6398 12.4559L8.85577 14.2079V16.4639ZM5.75977 21.3599H18.2398V19.4399H5.75977V21.3599ZM5.75977 4.55989H18.2398V2.63989H5.75977V4.55989Z" fill="black"/>
</svg>
