<svg width="24" height="24" viewBox="0 0 24 24" fill="none" xmlns="http://www.w3.org/2000/svg">
<path d="M8.436 9.88794L20.556 22.0079L21.852 20.7119L3.132 1.99194L1.836 3.28794L7.068 8.51994C6.372 9.52794 5.94 10.7279 5.94 11.9999V20.3999H7.86V11.9999C7.86 11.1839 8.052 10.4879 8.436 9.88794ZM10.284 6.35994L11.892 7.96794H11.94H18.996C18.54 8.37594 18.108 8.75994 17.7 9.16794L16.644 10.2479L17.82 11.4239L22.164 7.05594L17.82 2.71194L16.644 3.91194L17.7 4.96794C18.084 5.35194 18.516 5.75994 18.948 6.14394H11.844C11.292 6.14394 10.764 6.21594 10.284 6.35994Z" fill="black"/>
</svg>
