<svg width="24" height="24" viewBox="0 0 24 24" fill="none" xmlns="http://www.w3.org/2000/svg">
<path d="M11.916 22.3199C13.308 22.3199 14.436 21.1919 14.436 19.7999C14.436 18.7439 13.788 17.8559 12.876 17.4719V15.1919L17.22 13.8479C17.988 13.6079 18.468 12.9839 18.468 12.2159V8.75993H19.356V5.39993H15.852V8.75993H16.788V12.1439C16.788 12.2159 16.74 12.2399 16.668 12.2639L12.876 13.4399V6.11993H14.604L11.916 1.67993L9.22801 6.11993H10.956V14.9759L7.57201 13.8479C7.45201 13.7999 7.40401 13.7759 7.40401 13.6559V10.1279C8.05201 9.81593 8.48401 9.14393 8.48401 8.39993C8.48401 7.34393 7.62001 6.47993 6.56401 6.47993C5.50801 6.47993 4.64401 7.34393 4.64401 8.39993C4.64401 9.14393 5.07601 9.81593 5.72401 10.1279V13.7999C5.72401 14.5679 6.20401 15.1679 6.94801 15.4079L10.956 16.7519V17.4719C10.044 17.8559 9.39601 18.7439 9.39601 19.7999C9.39601 21.1919 10.524 22.3199 11.916 22.3199Z" fill="black"/>
</svg>
