<svg width="24" height="24" viewBox="0 0 24 24" fill="none" xmlns="http://www.w3.org/2000/svg">
<path d="M4.48801 19.5599V21.3599H19.512V19.5599C19.512 17.0639 18.648 15.1919 16.728 14.3519V11.1119H7.27201V14.3519C5.35201 15.1919 4.48801 17.0639 4.48801 19.5599ZM5.76001 7.99189H9.04801C8.90401 8.18389 8.83201 8.44789 8.83201 8.71189C8.83201 9.38389 9.38401 9.98389 10.08 9.98389C10.8 9.98389 11.352 9.38389 11.352 8.71189C11.352 8.44789 11.28 8.18389 11.136 7.99189H12.864C12.72 8.18389 12.648 8.44789 12.648 8.71189C12.648 9.38389 13.2 9.98389 13.92 9.98389C14.616 9.98389 15.168 9.38389 15.168 8.71189C15.168 8.44789 15.096 8.18389 14.952 7.99189H18.24V6.19189H16.2V4.17589C16.2 3.31189 15.528 2.63989 14.664 2.63989H9.33601C8.47201 2.63989 7.80001 3.31189 7.80001 4.17589V6.19189H5.76001V7.99189ZM6.52801 19.5599V18.3599C6.52801 16.4879 7.20001 15.7919 9.07201 15.7199V12.7919H11.232V19.5599H6.52801ZM9.48001 6.19189V4.36789C9.48001 4.34389 9.50401 4.31989 9.52801 4.31989H14.472C14.496 4.31989 14.52 4.34389 14.52 4.36789V6.19189H9.48001ZM12.792 19.5599V12.7919H14.928V15.7199C16.8 15.7919 17.472 16.4879 17.472 18.3599V19.5599H12.792Z" fill="black"/>
</svg>
