<svg width="24" height="24" viewBox="0 0 24 24" fill="none" xmlns="http://www.w3.org/2000/svg">
<path d="M6.88798 11.9999V21.8399H8.80798V12.0239C10.728 11.5679 12.12 9.86391 12.12 7.91991V2.39991H10.32V7.91991C10.32 9.07191 9.74398 9.93591 8.80798 10.2719V2.39991H6.88798V10.2719C5.97598 9.91191 5.39998 9.04791 5.39998 7.91991V2.39991H3.59998V7.91991C3.59998 9.86391 4.99198 11.5679 6.88798 11.9999ZM13.92 16.7999H18.48V21.8399H20.4V2.15991C16.8 2.15991 13.92 5.03991 13.92 8.63991V16.7999ZM15.84 15.1199V8.63991C15.84 6.43191 16.848 4.84791 18.48 4.19991V15.1199H15.84Z" fill="black"/>
</svg>
