<svg width="20" height="20" viewBox="0 0 20 20" fill="none" xmlns="http://www.w3.org/2000/svg">
<path d="M13.5 10.0006L8 6.5V13.5L13.5 10.0006Z" fill="black"/>
<path fill-rule="evenodd" clip-rule="evenodd" d="M10.0001 19.3606C4.76814 19.3606 0.640137 15.2326 0.640137 10.0006C0.640137 4.76863 4.76814 0.640625 10.0001 0.640625C15.2321 0.640625 19.3601 4.76863 19.3601 10.0006C19.3601 15.0886 15.2561 19.3606 10.0001 19.3606ZM10.0001 2.56063C5.82414 2.56063 2.56014 5.82463 2.56014 10.0006C2.56014 14.1766 5.82414 17.4406 10.0001 17.4406C14.1761 17.4406 17.4401 14.0566 17.4401 10.0006C17.4401 5.82463 14.1761 2.56063 10.0001 2.56063Z" fill="black"/>
</svg>
