<svg width="24" height="24" viewBox="0 0 24 24" fill="none" xmlns="http://www.w3.org/2000/svg">
<path d="M10.8126 12.9883C10.9239 13.0996 11.1837 13.0996 11.3321 12.9883L15.6739 8.64648C15.8223 8.49805 15.8223 8.27539 15.711 8.12695L14.8204 7.23633C14.709 7.125 14.4493 7.125 14.3008 7.23633L11.0723 10.4648L9.66217 9.05469C9.51373 8.90625 9.29108 8.90625 9.14264 9.05469L8.28912 9.9082C8.14069 10.0566 8.14069 10.2793 8.28912 10.4277L10.8126 12.9883ZM22.0938 12.4687L19.1251 12.4687L19.1251 3.82226C19.1251 3.04297 18.5684 2.375 17.9005 2.375L6.06256 2.375C5.39459 2.375 4.87506 3.04297 4.87506 3.82227L4.87506 12.4687L1.90631 12.4687C0.904359 12.4687 0.125062 13.2852 0.125062 14.25L0.125063 19.5938C0.125063 20.5957 0.90436 21.375 1.90631 21.375L22.0938 21.375C23.0587 21.375 23.8751 20.5957 23.8751 19.5937L23.8751 14.25C23.8751 13.2852 23.0587 12.4687 22.0938 12.4687ZM17.3438 4.15625L17.3438 16.0312L6.65631 16.0312L6.65631 4.15625L17.3438 4.15625ZM22.0938 19.5937L1.90631 19.5937L1.90631 14.25L4.87506 14.25L4.87506 16.0312L4.02155 16.0312C3.836 16.0312 3.68756 16.1797 3.68756 16.3281L3.68756 17.5156C3.68756 17.7012 3.836 17.8125 4.02155 17.8125L19.9415 17.8125C20.127 17.8125 20.3126 17.7012 20.3126 17.5156L20.3126 16.3281C20.3126 16.1797 20.127 16.0312 19.9415 16.0312L19.1251 16.0312L19.1251 14.25L22.0938 14.25L22.0938 19.5937Z" fill="black"/>
</svg>
