<svg width="24" height="24" viewBox="0 0 24 24" fill="none" xmlns="http://www.w3.org/2000/svg">
<path d="M12 19.9201H21.36V6.72012H6.36001V8.52012H19.44V18.1201H12V19.9201ZM2.64001 17.6881H5.83201V20.8801H7.63202V17.6881H10.8V15.8881H7.63202V12.7201H5.83201V15.8881H2.64001V17.6881ZM2.64001 11.5201H4.44001V5.04012C4.44001 4.92012 4.44001 4.92012 4.56001 4.92012H19.44C19.392 3.86412 18.576 3.12012 17.52 3.12012H4.56001C3.45601 3.12012 2.64001 3.93612 2.64001 5.04012V11.5201ZM15.048 13.4401C15.048 14.1121 15.6 14.7121 16.32 14.7121C17.016 14.7121 17.568 14.1121 17.568 13.4401C17.568 12.7441 17.016 12.1921 16.32 12.1921C15.6 12.1921 15.048 12.7441 15.048 13.4401Z" fill="black"/>
</svg>
