<svg width="24" height="24" viewBox="0 0 24 24" fill="none" xmlns="http://www.w3.org/2000/svg">
<path d="M6.09442 8.03997C9.35599 4.65334 14.644 4.65334 17.9056 8.03997L18.2981 8.44756C18.4612 8.61689 18.4612 8.89143 18.2981 9.06076L16.9554 10.455C16.8738 10.5397 16.7416 10.5397 16.6601 10.455L16.1199 9.89415C13.8445 7.53155 10.1555 7.53155 7.88012 9.89415L7.30164 10.4948C7.2201 10.5795 7.0879 10.5795 7.00636 10.4948L5.66357 9.10054C5.50049 8.93121 5.50049 8.65667 5.66357 8.48734L6.09442 8.03997ZM20.6826 10.9235L21.8777 12.1644C22.0408 12.3337 22.0408 12.6083 21.8777 12.7776L16.489 18.373C16.3259 18.5423 16.0615 18.5423 15.8984 18.373C15.8984 18.373 15.8984 18.373 15.8984 18.373L12.0739 14.4018C12.0331 14.3594 11.967 14.3594 11.9262 14.4018C11.9262 14.4018 11.9262 14.4018 11.9262 14.4018L8.10172 18.373C7.93865 18.5423 7.67424 18.5423 7.51116 18.373C7.51117 18.373 7.51116 18.373 7.51116 18.373L2.12231 12.7775C1.95923 12.6082 1.95923 12.3336 2.12231 12.1643L3.31739 10.9234C3.48047 10.7541 3.74487 10.7541 3.90795 10.9234L7.73258 14.8947C7.77335 14.937 7.83945 14.937 7.88022 14.8947C7.88022 14.8947 7.88022 14.8947 7.88022 14.8947L11.7047 10.9234C11.8677 10.7541 12.1321 10.7541 12.2952 10.9234C12.2952 10.9234 12.2952 10.9234 12.2952 10.9234L16.1198 14.8947C16.1606 14.937 16.2267 14.937 16.2675 14.8947L20.0921 10.9235C20.2551 10.7541 20.5195 10.7541 20.6826 10.9235Z" fill="#142533"/>
</svg>
