<svg width="24" height="24" viewBox="0 0 24 24" fill="none" xmlns="http://www.w3.org/2000/svg">
<path d="M10.44 16.7039C12.912 16.7039 14.208 14.8559 14.208 12.0239C14.208 9.16789 12.936 7.34389 10.44 7.34389C7.96795 7.34389 6.64795 9.19189 6.64795 12.0239C6.64795 14.8559 7.96795 16.7039 10.44 16.7039ZM4.19995 21.3599H10.44C15.696 21.3599 19.8 17.0879 19.8 11.9999C19.8 6.76789 15.672 2.63989 10.44 2.63989H4.19995V4.55989H10.44C14.616 4.55989 17.88 7.82389 17.88 11.9999C17.88 16.0559 14.616 19.4399 10.44 19.4399H4.19995V21.3599ZM8.63995 13.1519V10.9439C8.63995 9.26389 9.14395 8.95189 10.416 8.95189C11.136 8.95189 11.616 9.04789 11.904 9.45589L8.63995 13.1519ZM8.92795 14.6399L12.216 10.9439V13.1759C12.216 14.8319 11.688 15.1439 10.416 15.1439C9.69595 15.1439 9.21595 15.0479 8.92795 14.6399Z" fill="black"/>
</svg>
