<svg width="24" height="24" viewBox="0 0 24 24" fill="none" xmlns="http://www.w3.org/2000/svg">
<path d="M12.0001 21.3599C17.2561 21.3599 21.3601 17.0879 21.3601 11.9999C21.3601 6.76789 17.2321 2.63989 12.0001 2.63989C6.76814 2.63989 2.64014 6.76789 2.64014 11.9999C2.64014 17.2319 6.76814 21.3599 12.0001 21.3599ZM4.56014 11.9999C4.56014 7.82389 7.82414 4.55989 12.0001 4.55989C16.1761 4.55989 19.4401 7.82389 19.4401 11.9999C19.4401 16.0559 16.1761 19.4399 12.0001 19.4399C7.82414 19.4399 4.56014 16.1759 4.56014 11.9999ZM8.20814 12.0239C8.20814 14.8559 9.52814 16.7039 12.0001 16.7039C14.4721 16.7039 15.7681 14.8559 15.7681 12.0239C15.7681 9.16789 14.4961 7.34389 12.0001 7.34389C9.52814 7.34389 8.20814 9.19189 8.20814 12.0239ZM10.2001 13.1519V10.9439C10.2001 9.26389 10.7041 8.95189 11.9761 8.95189C12.6961 8.95189 13.1761 9.04789 13.4641 9.45589L10.2001 13.1519ZM10.4881 14.6399L13.7761 10.9439V13.1759C13.7761 14.8319 13.2481 15.1439 11.9761 15.1439C11.2561 15.1439 10.7761 15.0479 10.4881 14.6399Z" fill="black"/>
</svg>
