<svg width="24" height="24" viewBox="0 0 24 24" fill="none" xmlns="http://www.w3.org/2000/svg">
<path d="M13.56 16.7039C16.032 16.7039 17.328 14.8559 17.328 12.0239C17.328 9.16789 16.056 7.34389 13.56 7.34389C11.088 7.34389 9.76795 9.19189 9.76795 12.0239C9.76795 14.8559 11.088 16.7039 13.56 16.7039ZM4.19995 11.9999C4.19995 17.2319 8.32795 21.3599 13.56 21.3599H19.8V19.4399H13.56C9.38395 19.4399 6.11995 16.1759 6.11995 11.9999C6.11995 7.94389 9.38395 4.55989 13.56 4.55989H19.8V2.63989H13.56C8.30395 2.63989 4.19995 6.91189 4.19995 11.9999ZM11.76 13.1519V10.9439C11.76 9.26389 12.264 8.95189 13.536 8.95189C14.256 8.95189 14.736 9.04789 15.024 9.45589L11.76 13.1519ZM12.048 14.6399L15.336 10.9439V13.1759C15.336 14.8319 14.808 15.1439 13.536 15.1439C12.816 15.1439 12.336 15.0479 12.048 14.6399Z" fill="black"/>
</svg>
