<svg width="24" height="24" viewBox="0 0 24 24" fill="none" xmlns="http://www.w3.org/2000/svg">
<path d="M11.9998 16.7039C14.4718 16.7039 15.7678 14.8559 15.7678 12.0239C15.7678 9.16789 14.4958 7.34389 11.9998 7.34389C9.52777 7.34389 8.20777 9.19189 8.20777 12.0239C8.20777 14.8559 9.52777 16.7039 11.9998 16.7039ZM5.75977 21.3599H18.2398V19.4399H5.75977V21.3599ZM5.75977 4.55989H18.2398V2.63989H5.75977V4.55989ZM10.1998 13.1519V10.9439C10.1998 9.26389 10.7038 8.95189 11.9758 8.95189C12.6958 8.95189 13.1758 9.04789 13.4638 9.45589L10.1998 13.1519ZM10.4878 14.6399L13.7758 10.9439V13.1759C13.7758 14.8319 13.2478 15.1439 11.9758 15.1439C11.2558 15.1439 10.7758 15.0479 10.4878 14.6399Z" fill="black"/>
</svg>
