<svg width="24" height="24" viewBox="0 0 24 24" fill="none" xmlns="http://www.w3.org/2000/svg">
<path d="M12.3899 6.99994V12.3899H7.98993M20.9399 10.9999C20.3799 6.05994 15.9299 2.49994 10.9899 3.04994C6.04993 3.59994 2.48993 8.04994 3.03993 12.9899C3.49993 17.1599 6.79993 20.4599 10.9799 20.9299M17.2499 17.9999H20.7499M17.2499 17.9999C16.5596 17.9999 15.9999 18.5596 15.9999 19.2499V20.7499C15.9999 21.4403 16.5596 21.9999 17.2499 21.9999H20.7499C21.4403 21.9999 21.9999 21.4403 21.9999 20.7499V19.2499C21.9999 18.5596 21.4403 17.9999 20.7499 17.9999M17.2499 17.9999V16.7499C17.2499 15.7799 18.0299 14.9999 18.9999 14.9999C19.9599 14.9999 20.7499 15.7799 20.7499 16.7499V17.9999" stroke="white" stroke-width="1.8" stroke-linecap="round" stroke-linejoin="round"/>
</svg>
