<svg width="24" height="24" viewBox="0 0 24 24" fill="none" xmlns="http://www.w3.org/2000/svg">
<path d="M9.00023 18V18.25C9.00023 19.9 10.3402 21.25 12.0002 21.25C13.6502 21.25 15.0002 19.9 15.0002 18.25V18M18.0002 13.75L19.7002 15.45C19.8802 15.63 19.9902 15.89 19.9902 16.15V16.98C19.9902 17.53 19.5402 17.98 18.9902 17.98H4.99023C4.43023 17.98 3.99023 17.53 3.99023 16.98V16.14C3.99023 15.87 4.09023 15.62 4.28023 15.43L5.98023 13.72V9.46997C5.98023 6.14997 8.66023 3.46997 11.9802 3.46997C15.2902 3.46897 17.9802 6.14997 17.9802 9.46997L18.0002 13.75Z" stroke="white" stroke-width="1.8" stroke-linecap="round" stroke-linejoin="round"/>
</svg>
