<svg width="24" height="24" viewBox="0 0 24 24" fill="none" xmlns="http://www.w3.org/2000/svg">
<path d="M8.99999 18V18.25C8.99999 19.9 10.34 21.25 12 21.25C13.65 21.25 15 19.9 15 18.25V18M18 13.75L19.7 15.45C19.88 15.63 19.99 15.89 19.99 16.15V16.98C19.99 17.53 19.54 17.98 18.99 17.98H4.98999C4.42999 17.98 3.98999 17.53 3.98999 16.98V16.14C3.98999 15.87 4.08999 15.62 4.27999 15.43L5.97999 13.72V9.46997C5.97999 6.14997 8.65999 3.46997 11.98 3.46997C15.29 3.46897 17.98 6.14997 17.98 9.46997L18 13.75Z" stroke="white" stroke-width="1.8" stroke-linecap="round" stroke-linejoin="round"/>
</svg>
