<svg width="24" height="24" viewBox="0 0 24 24" fill="none" xmlns="http://www.w3.org/2000/svg">
<path d="M14 17L14.5 21M9.99999 17L9.49999 21M8.13999 21H15.86M10.06 9.97998V7.26998H12.791C13.531 7.26998 14.141 7.86998 14.141 8.62398C14.141 9.36398 13.531 9.97398 12.781 9.97398M11.772 6.49998V7.26998M11.772 13.5V12.625M18.429 17H5.56999C4.14999 17 2.98999 15.84 2.98999 14.42V5.55998C2.98999 4.13998 4.13999 2.97998 5.55999 2.97998H18.417C19.837 2.97998 20.987 4.12998 20.987 5.54998V14.4C20.987 15.82 19.827 16.97 18.407 16.97L18.429 17ZM13.125 12.61H10.055V9.97998H13.115C13.835 9.97998 14.425 10.56 14.425 11.29C14.425 12.01 13.835 12.6 13.105 12.6L13.125 12.61Z" stroke="white" stroke-width="1.8" stroke-linecap="round" stroke-linejoin="round"/>
</svg>
