<svg width="25" height="24" viewBox="0 0 25 24" fill="none" xmlns="http://www.w3.org/2000/svg">
<path d="M19.7866 5H20.7866C21.8866 5 22.7866 5.89 22.7866 7V19C22.7866 20.1 21.8866 21 20.7866 21H4.78662C3.68162 21 2.78662 20.1 2.78662 19V7C2.78662 5.89 3.68162 5 4.78662 5H5.78662M12.7866 6C12.7866 4.343 11.4436 3 9.78662 3H6.78662C6.22662 3 5.78662 3.44 5.78662 4V17C5.78662 17.55 6.22662 18 6.78662 18H9.78662C11.4436 18 12.7866 19.343 12.7866 21M12.7866 6C12.7866 4.343 14.1296 3 15.7866 3H18.7866C19.3366 3 19.7866 3.448 19.7866 4V17C19.7866 17.55 19.3366 18 18.7866 18H15.7866C14.1296 18 12.7866 19.343 12.7866 21M12.7866 6V21" stroke="white" stroke-width="1.8" stroke-linecap="round" stroke-linejoin="round"/>
</svg>
