<svg width="24" height="24" viewBox="0 0 24 24" fill="none" xmlns="http://www.w3.org/2000/svg">
<path d="M19 5H20C21.1 5 22 5.89 22 7V19C22 20.1 21.1 21 20 21H4C2.895 21 2 20.1 2 19V7C2 5.89 2.895 5 4 5H5M12 6C12 4.343 10.657 3 9 3H6C5.44 3 5 3.44 5 4V17C5 17.55 5.44 18 6 18H9C10.657 18 12 19.343 12 21M12 6C12 4.343 13.343 3 15 3H18C18.55 3 19 3.448 19 4V17C19 17.55 18.55 18 18 18H15C13.343 18 12 19.343 12 21M12 6V21" stroke="white" stroke-width="1.8" stroke-linecap="round" stroke-linejoin="round"/>
</svg>
