<svg width="25" height="24" viewBox="0 0 25 24" fill="none" xmlns="http://www.w3.org/2000/svg">
<path fill-rule="evenodd" clip-rule="evenodd" d="M2.88672 12C2.88672 6.53236 7.3191 2.09998 12.7867 2.09998C18.2543 2.09998 22.6867 6.53236 22.6867 12C22.6867 17.4676 18.2543 21.9 12.7867 21.9C7.3191 21.9 2.88672 17.4676 2.88672 12ZM16.9089 10.2394C17.2603 9.88795 17.2603 9.3181 16.9089 8.96663C16.5574 8.61516 15.9875 8.61516 15.6361 8.96663L11.3835 13.2192L9.86686 11.7026C9.51539 11.3512 8.94554 11.3512 8.59407 11.7026C8.2426 12.0541 8.2426 12.624 8.59407 12.9754L10.7471 15.1284L10.7611 15.1424C11.1125 15.4939 11.6824 15.4939 12.0339 15.1424C12.0796 15.0967 12.1194 15.0472 12.1532 14.995L16.9089 10.2394Z" fill="white"/>
</svg>
