<svg width="25" height="24" viewBox="0 0 25 24" fill="none" xmlns="http://www.w3.org/2000/svg">
<path d="M14.2367 9.38L8.70669 14.909C8.05669 15.549 8.05669 16.589 8.70669 17.229H8.69669C9.33669 17.869 10.3767 17.869 11.0167 17.229L19.6367 8.603C20.9167 7.313 20.9167 5.233 19.6367 3.953C19.6267 3.943 19.6267 3.943 19.6267 3.943C18.3367 2.653 16.2567 2.653 14.9767 3.933C14.9667 3.933 14.9667 3.933 14.9667 3.933L6.33669 12.553V12.552C4.40669 14.472 4.40669 17.592 6.32669 19.512C8.24669 21.432 11.3667 21.432 13.2867 19.512C13.2867 19.502 13.2867 19.502 13.2867 19.502L19.5867 13.202" stroke="white" stroke-width="1.8" stroke-linecap="round" stroke-linejoin="round"/>
</svg>
