<svg width="25" height="24" viewBox="0 0 25 24" fill="none" xmlns="http://www.w3.org/2000/svg">
<path fill-rule="evenodd" clip-rule="evenodd" d="M9.00792 2.36358C10.209 1.86606 11.4964 1.60999 12.7965 1.60999C15.4221 1.60999 17.9402 2.65302 19.7968 4.50963C21.6535 6.36624 22.6965 8.88434 22.6965 11.51C22.6965 14.1356 21.6535 16.6537 19.7968 18.5103C17.9402 20.367 15.4221 21.41 12.7965 21.41C11.4964 21.41 10.209 21.1539 9.00792 20.6564C7.8068 20.1589 6.71543 19.4296 5.79613 18.5103C4.87683 17.591 4.1476 16.4997 3.65008 15.2986C3.15256 14.0974 2.89648 12.8101 2.89648 11.51C2.89648 10.2099 3.15256 8.92254 3.65008 7.72142C4.1476 6.5203 4.87683 5.42893 5.79613 4.50963C6.71543 3.59033 7.8068 2.8611 9.00792 2.36358ZM13.0963 6.52002C13.0963 6.02296 12.6933 5.62002 12.1963 5.62002C11.6992 5.62002 11.2963 6.02296 11.2963 6.52002V12.12C11.2963 12.6171 11.6992 13.02 12.1963 13.02H16.8463C17.3433 13.02 17.7463 12.6171 17.7463 12.12C17.7463 11.623 17.3433 11.22 16.8463 11.22H13.0963V6.52002Z" fill="white"/>
</svg>
