<svg width="24" height="24" viewBox="0 0 24 24" fill="none" xmlns="http://www.w3.org/2000/svg">
<path d="M2.99999 8C2.99999 9.1 5.22999 10 7.99999 10M2.99999 8V16C2.99999 17.1 5.23899 18 7.99999 18M2.99999 8C2.99999 7.46957 3.52677 6.96086 4.46446 6.58579C5.40214 6.21071 6.67391 6 7.99999 6C9.32607 6 10.5978 6.21071 11.5355 6.58579C12.4732 6.96086 13 7.46957 13 8M2.99999 8C2.99999 8.53043 3.52677 9.03914 4.46446 9.41421C5.40214 9.78929 6.67391 10 7.99999 10M7.99999 10C9.32607 10 10.5978 9.78929 11.5355 9.41421C12.4732 9.03914 13 8.53043 13 8M16 21C13.23 21 11 20.1 11 19V15C11 16.1 13.23 17 16 17C18.76 17 21 16.1 21 15L20.999 19C20.999 20.1 18.759 21 15.999 21M13 8V10.5M17.5 6.5L20.5 3.5M20.5 6.5L17.5 3.5M2.99999 12C2.99999 13.1 5.22999 13.99 7.99899 13.99M7.98999 14C5.21999 14 2.98999 13.1 2.98999 12M20.997 15C20.997 13.89 18.757 13 15.997 13C13.237 13 10.997 13.89 10.997 15C10.997 16.1 13.227 17 15.997 17C18.757 17 20.997 16.1 20.997 15Z" stroke="white" stroke-width="1.8" stroke-linecap="round" stroke-linejoin="round"/>
</svg>
