<svg width="24" height="24" viewBox="0 0 24 24" fill="none" xmlns="http://www.w3.org/2000/svg">
<path d="M11.79 9.2L15.2 5.78M11.57 5.65C11.57 5.6 11.6 5.559 11.65 5.559C11.69 5.559 11.73 5.589 11.73 5.639C11.72 5.679 11.69 5.719 11.64 5.719C11.59 5.709 11.55 5.679 11.55 5.629V5.619M7.99999 7V5.3C7.99999 3.47 9.46999 2 11.3 2H15.7C17.52 2 19 3.47 19 5.3V9.7C19 11.52 17.52 13 15.7 13H15M15.425 9.34C15.415 9.38 15.385 9.42 15.335 9.42C15.285 9.41 15.245 9.38 15.245 9.33C15.245 9.28 15.275 9.24 15.325 9.24C15.365 9.24 15.405 9.27 15.405 9.32M2.99999 12.6V19.4C2.99999 20.28 4.78999 21 6.99999 21C9.19999 21 10.99 20.28 11 19.4V12.6M2.99999 16C2.99999 16.88 4.77999 17.6 6.98999 17.6C9.18999 17.6 10.99 16.88 10.99 16M10.99 12.6C10.99 13.48 9.18999 14.2 6.98999 14.2C4.77999 14.2 2.98999 13.48 2.98999 12.6C2.98999 11.71 4.77999 11 6.98999 11C9.19799 11 10.98 11.71 10.99 12.6Z" stroke="white" stroke-width="1.8" stroke-linecap="round" stroke-linejoin="round"/>
</svg>
