<svg width="25" height="24" viewBox="0 0 25 24" fill="none" xmlns="http://www.w3.org/2000/svg">
<path fill-rule="evenodd" clip-rule="evenodd" d="M3.03662 12C3.03662 6.6053 7.4019 2.25 12.7866 2.25C18.1718 2.25 22.5366 6.61479 22.5366 12C22.5366 17.3852 18.1718 21.75 12.7866 21.75C7.39192 21.75 3.03662 17.3847 3.03662 12ZM10.4869 8.63971C10.194 8.34682 9.71911 8.34682 9.42621 8.63971C9.13332 8.93261 9.13332 9.40748 9.42621 9.70037L11.7259 12L9.42621 14.2997C9.13332 14.5926 9.13332 15.0675 9.42621 15.3604C9.71911 15.6533 10.194 15.6533 10.4869 15.3604L12.7865 13.0607L15.0862 15.3604C15.3791 15.6533 15.854 15.6533 16.1469 15.3604C16.4398 15.0675 16.4398 14.5926 16.1469 14.2997L13.8472 12L16.1469 9.70037C16.4398 9.40748 16.4398 8.93261 16.1469 8.63971C15.854 8.34682 15.3791 8.34682 15.0862 8.63971L12.7865 10.9394L10.4869 8.63971Z" fill="white"/>
</svg>
