<svg width="24.000000000000004" height="24.000000000000004" xmlns="http://www.w3.org/2000/svg" fill="none">

 <g>
  <title>Layer 1</title>
  <path id="svg_1" stroke-width="1.8" stroke="white" d="m18,7l0.7,0c0.1105,0 0.2,0.08954 0.2,0.2l0,2.6c0,0.11046 -0.0895,0.2 -0.2,0.2l-0.7,0m-11.5,11l9.5,0c1.1046,0 2,-0.8954 2,-2l0,-14c0,-1.10457 -0.8954,-2 -2,-2l-9.5,0c-0.27614,0 -0.5,0.22386 -0.5,0.5l0,17c0,0.2761 0.22386,0.5 0.5,0.5z"/>
  <text transform="matrix(0.567696 0 0 0.54061 3.40861 4.46363)" stroke="#000" xml:space="preserve" text-anchor="start" font-family="'Signika'" font-size="24" id="svg_2" y="22.18957" x="7.67184" stroke-width="0" fill="#ffffff">E</text>
 </g>
</svg>