<svg width="24" height="24" viewBox="0 0 24 24" fill="none" xmlns="http://www.w3.org/2000/svg">
<path d="M14.55 13.55H14.549C13.699 14.97 11.859 15.44 10.429 14.6C8.99898 13.75 8.52898 11.91 9.36898 10.48C9.61898 10.04 9.97898 9.68 10.419 9.42M17.99 16.99C16.26 18.29 14.149 19 11.989 18.99C8.39898 19.05 5.08898 17.08 3.43498 13.9H3.42998C2.82998 12.69 2.82998 11.28 3.42998 10.07C4.24998 8.42 5.56998 7.07 7.19998 6.2M20.42 14.13C20.46 14.05 20.51 13.98 20.55 13.9C21.14 12.69 21.14 11.28 20.55 10.07C18.89 6.88 15.579 4.91 11.989 4.98C11.759 4.98 11.539 5.01 11.319 5.02M21 20L3.99998 3" stroke="white" stroke-width="1.8" stroke-linecap="round" stroke-linejoin="round"/>
</svg>
