<svg width="24" height="24" viewBox="0 0 24 24" fill="none" xmlns="http://www.w3.org/2000/svg">
<path d="M12 21V8.00005M15.696 6.61005C14.616 7.73005 12.916 7.99805 12.096 7.99805M12.09 8.00005C12.09 8.00005 11.59 4.88005 12.81 3.62005M15.69 6.61005C16.48 5.78005 16.48 4.44005 15.69 3.61005C14.89 2.78005 13.6 2.78005 12.815 3.61005M11.89 7.99805C11.07 7.99805 9.37 7.73005 8.3 6.61005C7.5 5.78005 7.5 4.44005 8.3 3.61005C9.09 2.78005 10.38 2.78005 11.175 3.61005M11.901 8.00005C11.901 8.00005 12.391 4.88005 11.171 3.62005M19 12V20C19 20.55 18.55 21 18 21H6C5.44 21 5 20.55 5 20V12M20 8.00005H4C3.448 8.00005 3 8.44005 3 9.00005V11C3 11.55 3.44 12 4 12H20C20.55 12 21 11.55 21 11V9.00005C21 8.44005 20.55 8.00005 20 8.00005Z" stroke="white" stroke-width="1.8" stroke-linecap="round" stroke-linejoin="round"/>
</svg>
