<svg width="24" height="24" viewBox="0 0 24 24" fill="none" xmlns="http://www.w3.org/2000/svg">
<path fill-rule="evenodd" clip-rule="evenodd" d="M7.75 9.75H5C3.895 9.75 3 8.85 3 7.75V5C3 3.895 3.895 3 5 3H7.75C8.85 3 9.75 3.895 9.75 5V7.75C9.75 8.85 8.85 9.75 7.75 9.75Z" stroke="white" stroke-width="1.8" stroke-linecap="round" stroke-linejoin="round"/>
<path fill-rule="evenodd" clip-rule="evenodd" d="M19 9.75H16.25C15.14 9.75 14.25 8.85 14.25 7.75V5C14.25 3.895 15.14 3 16.25 3H19C20.1 3 21 3.895 21 5V7.75C21 8.85 20.1 9.75 19 9.75Z" stroke="white" stroke-width="1.8" stroke-linecap="round" stroke-linejoin="round"/>
<path fill-rule="evenodd" clip-rule="evenodd" d="M7.75 21H5C3.895 21 3 20.1 3 19V16.25C3 15.14 3.895 14.25 5 14.25H7.75C8.85 14.25 9.75 15.14 9.75 16.25V19C9.75 20.1 8.85 21 7.75 21Z" stroke="white" stroke-width="1.8" stroke-linecap="round" stroke-linejoin="round"/>
<path fill-rule="evenodd" clip-rule="evenodd" d="M19 21H16.25C15.14 21 14.25 20.1 14.25 19V16.25C14.25 15.14 15.14 14.25 16.25 14.25H19C20.1 14.25 21 15.14 21 16.25V19C21 20.1 20.1 21 19 21Z" stroke="white" stroke-width="1.8" stroke-linecap="round" stroke-linejoin="round"/>
</svg>
