<svg width="24" height="24" viewBox="0 0 24 24" fill="none" xmlns="http://www.w3.org/2000/svg">
<path d="M3 21C3 19.07 4.564 17.5 6.49 17.5H10.5C12.43 17.5 13.99 19.064 13.99 20.99M16 17.506H17.5C19.43 17.506 20.99 19.07 20.99 20.996M17.3789 4.49998H21.6215M19.5002 6.6213V2.37866M8.5 8.50596C8.10603 8.50596 7.71593 8.58356 7.35195 8.73433C6.98797 8.88509 6.65726 9.10607 6.37868 9.38464C6.1001 9.66322 5.87913 9.99394 5.72836 10.3579C5.5776 10.7219 5.5 11.112 5.5 11.506C5.5 11.8999 5.5776 12.29 5.72836 12.654C5.87913 13.018 6.1001 13.3487 6.37868 13.6273C6.65726 13.9059 6.98797 14.1268 7.35195 14.2776C7.71593 14.4284 8.10603 14.506 8.5 14.506C8.89397 14.506 9.28407 14.4284 9.64805 14.2776C10.012 14.1268 10.3427 13.9059 10.6213 13.6273C10.8999 13.3487 11.1209 13.018 11.2716 12.654C11.4224 12.29 11.5 11.8999 11.5 11.506C11.5 11.112 11.4224 10.7219 11.2716 10.3579C11.1209 9.99394 10.8999 9.66322 10.6213 9.38464C10.3427 9.10607 10.012 8.88509 9.64805 8.73433C9.28407 8.58356 8.89397 8.50596 8.5 8.50596ZM16 10.506C15.4696 10.506 14.9609 10.7167 14.5858 11.0918C14.2107 11.4668 14 11.9755 14 12.506C14 13.0364 14.2107 13.5451 14.5858 13.9202C14.9609 14.2953 15.4696 14.506 16 14.506C16.5304 14.506 17.0391 14.2953 17.4142 13.9202C17.7893 13.5451 18 13.0364 18 12.506C18 11.9755 17.7893 11.4668 17.4142 11.0918C17.0391 10.7167 16.5304 10.506 16 10.506Z" stroke="white" stroke-width="1.8" stroke-linecap="round" stroke-linejoin="round"/>
</svg>
