<svg width="25" height="24" viewBox="0 0 25 24" fill="none" xmlns="http://www.w3.org/2000/svg">
<path d="M7.75662 19.96H9.26662C9.58662 19.96 9.91662 20 10.2366 20.08L12.8866 20.75C13.4666 20.9 14.0566 20.91 14.6466 20.8L17.5766 20.22C18.3566 20.06 19.0666 19.68 19.6266 19.13L21.7066 17.06C22.2966 16.47 22.2966 15.51 21.7066 14.92C21.1666 14.38 20.3266 14.32 19.7266 14.78L17.3166 16.6C16.9666 16.86 16.5466 17 16.1166 17H13.7866L15.2666 17C16.0966 17 16.7766 16.32 16.7766 15.48V15.17C16.7766 14.47 16.2966 13.86 15.6266 13.7L13.3346 13.12C12.9546 13.02 12.5746 12.98 12.1946 12.98C11.2646 12.98 10.3546 13.25 9.58462 13.76L7.76462 14.97M17.9466 5.15002C19.0466 6.25002 19.0466 8.05002 17.9466 9.16002C16.8366 10.26 15.0366 10.26 13.9266 9.16002C12.8166 8.05002 12.8166 6.25002 13.9266 5.14002C15.0266 4.03002 16.8266 4.03002 17.9366 5.14002M15.4166 4.37502C15.3166 3.80502 15.0566 3.26502 14.6266 2.82502C13.5166 1.71702 11.7166 1.71702 10.6136 2.82502C9.50362 3.93302 9.50362 5.72502 10.6136 6.83502C11.3036 7.52502 12.2536 7.77502 13.1436 7.61502M6.78662 21H4.78662C4.23462 21 3.78662 20.55 3.78662 20V14C3.78662 13.44 4.22662 13 4.78662 13H6.78662C7.33662 13 7.78662 13.44 7.78662 14V20C7.78662 20.55 7.33662 21 6.78662 21Z" stroke="white" stroke-width="1.8" stroke-linecap="round" stroke-linejoin="round"/>
</svg>
