<svg width="25" height="24" viewBox="0 0 25 24" fill="none" xmlns="http://www.w3.org/2000/svg">
<path d="M22.1973 9.00012V15.7501M6.77651 12.2001V16.1201C6.77651 17.0601 7.24651 17.9501 8.03651 18.4701L9.63651 19.5301C11.5365 20.7901 14.0115 20.7901 15.9115 19.5301L17.5115 18.4601C18.3015 17.9301 18.7715 17.0401 18.7715 16.1001V12.1701M10.4895 4.09006L4.30651 7.52006C3.00851 8.24006 3.00851 10.1001 4.30651 10.8201L10.4765 14.2501C11.8965 15.0401 13.6365 15.0401 15.0665 14.2501L21.2365 10.8201C22.5265 10.0901 22.5265 8.23006 21.2365 7.51206L15.0565 4.08206C13.6265 3.28206 11.8865 3.28206 10.4565 4.08206L10.4895 4.09006Z" stroke="white" stroke-width="1.8" stroke-linecap="round" stroke-linejoin="round"/>
</svg>
