<svg width="25" height="24" viewBox="0 0 25 24" fill="none" xmlns="http://www.w3.org/2000/svg">
<path fill-rule="evenodd" clip-rule="evenodd" d="M2.88672 12C2.88672 6.52233 7.31925 2.09998 12.7867 2.09998C18.2548 2.09998 22.6867 6.53192 22.6867 12C22.6867 17.468 18.2548 21.9 12.7867 21.9C7.30908 21.9 2.88672 17.4674 2.88672 12ZM12.7769 7.1L12.7718 7.10001L12.7669 7.1C12.7421 7.1 12.7176 7.101 12.6934 7.10295C12.0956 7.14545 11.6269 7.64101 11.6269 8.25C11.6269 8.85365 12.1167 9.4 12.7769 9.4C13.118 9.4 13.4005 9.2467 13.587 9.06015C13.7736 8.8736 13.9269 8.59117 13.9269 8.25C13.9269 7.60661 13.4205 7.15402 12.8676 7.10451C12.8377 7.10153 12.8075 7.1 12.7769 7.1ZM13.6869 12C13.6869 11.5029 13.2839 11.1 12.7869 11.1C12.2898 11.1 11.8869 11.5029 11.8869 12V17C11.8869 17.4971 12.2898 17.9 12.7869 17.9C13.2839 17.9 13.6869 17.4971 13.6869 17V12Z" fill="white"/>
</svg>
