<svg width="25" height="24" viewBox="0 0 25 24" fill="none" xmlns="http://www.w3.org/2000/svg">
<path d="M8.6451 2.06994C7.58109 2.12014 6.85448 2.28994 6.21927 2.53954C5.56187 2.79574 5.00466 3.13954 4.45025 3.69594C3.89585 4.25235 3.55445 4.80995 3.30004 5.46835C3.05384 6.10495 2.88704 6.83215 2.84004 7.89676C2.79304 8.96136 2.78264 9.30356 2.78784 12.0192C2.79304 14.7348 2.80504 15.0752 2.85664 16.142C2.90744 17.2058 3.07664 17.9322 3.32624 18.5676C3.58285 19.225 3.92625 19.782 4.48285 20.3366C5.03946 20.8912 5.59667 21.2318 6.25667 21.4866C6.89268 21.7324 7.62009 21.9 8.6845 21.9466C9.74891 21.9932 10.0915 22.004 12.8063 21.9988C15.5212 21.9936 15.863 21.9816 16.9296 21.931C17.9962 21.8804 18.7188 21.71 19.3544 21.4616C20.0118 21.2044 20.5692 20.8616 21.1234 20.3048C21.6776 19.748 22.0188 19.19 22.273 18.5312C22.5194 17.8952 22.6868 17.1678 22.733 16.1042C22.7796 15.0368 22.7906 14.696 22.7854 11.9808C22.7802 9.26556 22.768 8.92516 22.7174 7.85876C22.6668 6.79235 22.4974 6.06815 22.248 5.43235C21.991 4.77495 21.648 4.21835 21.0916 3.66334C20.5352 3.10834 19.9768 2.76734 19.3182 2.51374C18.6818 2.26754 17.9548 2.09974 16.8904 2.05374C15.826 2.00774 15.4834 1.99594 12.7675 2.00114C10.0517 2.00634 9.71171 2.01794 8.6451 2.06994ZM8.7619 20.1476C7.78689 20.1052 7.25748 19.9432 6.90468 19.8076C6.43747 19.6276 6.10467 19.41 5.75307 19.0618C5.40146 18.7136 5.18546 18.3796 5.00306 17.9134C4.86606 17.5606 4.70106 17.0318 4.65546 16.0568C4.60586 15.003 4.59546 14.6866 4.58966 12.0168C4.58386 9.34696 4.59406 9.03096 4.64026 7.97676C4.68186 7.00256 4.84486 6.47255 4.98026 6.11995C5.16026 5.65215 5.37706 5.31995 5.72607 4.96855C6.07507 4.61715 6.40807 4.40075 6.87468 4.21835C7.22708 4.08074 7.75589 3.91714 8.7305 3.87074C9.78511 3.82074 10.1011 3.81074 12.7705 3.80494C15.44 3.79914 15.7568 3.80914 16.8118 3.85554C17.786 3.89794 18.3162 4.05934 18.6684 4.19555C19.1358 4.37555 19.4684 4.59175 19.8198 4.94135C20.1712 5.29095 20.3878 5.62275 20.5702 6.09035C20.708 6.44175 20.8716 6.97036 20.9176 7.94556C20.9678 9.00016 20.9792 9.31636 20.984 11.9856C20.9888 14.6548 20.9794 14.9718 20.9332 16.0256C20.8906 17.0006 20.729 17.5302 20.5932 17.8834C20.4132 18.3504 20.1962 18.6834 19.847 19.0346C19.4978 19.3858 19.1652 19.6022 18.6984 19.7846C18.3464 19.922 17.817 20.086 16.8432 20.1324C15.7886 20.182 15.4726 20.1924 12.8021 20.1982C10.1317 20.204 9.81671 20.1932 8.7621 20.1476M16.9142 6.65535C16.9146 6.89271 16.9854 7.12462 17.1176 7.32174C17.2498 7.51887 17.4375 7.67237 17.6569 7.76281C17.8764 7.85326 18.1177 7.8766 18.3504 7.82988C18.5831 7.78315 18.7968 7.66847 18.9643 7.50033C19.1318 7.33218 19.2457 7.11813 19.2916 6.88525C19.3375 6.65237 19.3132 6.41112 19.222 6.19201C19.1307 5.97289 18.9765 5.78576 18.7789 5.65428C18.5813 5.5228 18.3491 5.45288 18.1118 5.45335C17.7936 5.45399 17.4887 5.58097 17.2641 5.80638C17.0395 6.03179 16.9136 6.33716 16.9142 6.65535ZM7.65209 12.01C7.65769 14.846 9.96091 17.1398 12.7963 17.1344C15.6318 17.129 17.9272 14.826 17.9218 11.99C17.9164 9.15396 15.6126 6.85955 12.7767 6.86515C9.94091 6.87075 7.64669 9.17436 7.65209 12.01ZM9.4533 12.0064C9.452 11.3471 9.64623 10.7022 10.0114 10.1533C10.3766 9.60442 10.8964 9.17614 11.505 8.92264C12.1136 8.66914 12.7837 8.6018 13.4306 8.72914C14.0775 8.85648 14.672 9.17278 15.1392 9.63804C15.6063 10.1033 15.9249 10.6966 16.0548 11.343C16.1847 11.9894 16.12 12.6597 15.8689 13.2693C15.6179 13.8789 15.1916 14.4004 14.6442 14.7677C14.0967 15.1351 13.4526 15.3319 12.7933 15.3332C12.3556 15.3341 11.9219 15.2488 11.5171 15.0821C11.1123 14.9154 10.7444 14.6706 10.4342 14.3616C10.124 14.0527 9.87777 13.6857 9.70946 13.2816C9.54116 12.8775 9.45412 12.4441 9.4533 12.0064Z" fill="white"/>
</svg>
