<svg width="24" height="24" viewBox="0 0 24 24" fill="none" xmlns="http://www.w3.org/2000/svg">
<path d="M7.85848 2.06994C6.79447 2.12014 6.06786 2.28994 5.43265 2.53954C4.77524 2.79574 4.21804 3.13954 3.66363 3.69594C3.10923 4.25235 2.76782 4.80995 2.51342 5.46835C2.26722 6.10495 2.10042 6.83215 2.05342 7.89676C2.00642 8.96136 1.99602 9.30356 2.00122 12.0192C2.00642 14.7348 2.01842 15.0752 2.07002 16.142C2.12082 17.2058 2.29002 17.9322 2.53962 18.5676C2.79622 19.225 3.13963 19.782 3.69623 20.3366C4.25284 20.8912 4.81004 21.2318 5.47005 21.4866C6.10606 21.7324 6.83347 21.9 7.89788 21.9466C8.96229 21.9932 9.30489 22.004 12.0197 21.9988C14.7345 21.9936 15.0763 21.9816 16.143 21.931C17.2096 21.8804 17.9322 21.71 18.5678 21.4616C19.2252 21.2044 19.7826 20.8616 20.3368 20.3048C20.891 19.748 21.2322 19.19 21.4864 18.5312C21.7328 17.8952 21.9002 17.1678 21.9464 16.1042C21.993 15.0368 22.004 14.696 21.9988 11.9808C21.9936 9.26556 21.9814 8.92516 21.9308 7.85876C21.8802 6.79235 21.7108 6.06815 21.4614 5.43235C21.2044 4.77495 20.8614 4.21835 20.305 3.66334C19.7486 3.10834 19.1902 2.76734 18.5316 2.51374C17.8952 2.26754 17.1682 2.09974 16.1038 2.05374C15.0393 2.00774 14.6967 1.99594 11.9809 2.00114C9.26509 2.00634 8.92509 2.01794 7.85848 2.06994ZM7.97528 20.1476C7.00027 20.1052 6.47086 19.9432 6.11806 19.8076C5.65085 19.6276 5.31805 19.41 4.96645 19.0618C4.61484 18.7136 4.39884 18.3796 4.21644 17.9134C4.07944 17.5606 3.91444 17.0318 3.86884 16.0568C3.81923 15.003 3.80883 14.6866 3.80303 12.0168C3.79723 9.34696 3.80743 9.03096 3.85363 7.97676C3.89524 7.00256 4.05824 6.47255 4.19364 6.11995C4.37364 5.65215 4.59044 5.31995 4.93945 4.96855C5.28845 4.61715 5.62145 4.40075 6.08806 4.21835C6.44046 4.08074 6.96927 3.91714 7.94388 3.87074C8.99849 3.82074 9.31449 3.81074 11.9839 3.80494C14.6533 3.79914 14.9701 3.80914 16.0252 3.85554C16.9994 3.89794 17.5296 4.05934 17.8818 4.19555C18.3492 4.37555 18.6818 4.59175 19.0332 4.94135C19.3846 5.29095 19.6012 5.62275 19.7836 6.09035C19.9214 6.44175 20.085 6.97036 20.131 7.94556C20.1812 9.00016 20.1926 9.31636 20.1974 11.9856C20.2022 14.6548 20.1928 14.9718 20.1466 16.0256C20.104 17.0006 19.9424 17.5302 19.8066 17.8834C19.6266 18.3504 19.4096 18.6834 19.0604 19.0346C18.7112 19.3858 18.3786 19.6022 17.9118 19.7846C17.5598 19.922 17.0304 20.086 16.0566 20.1324C15.0019 20.182 14.6859 20.1924 12.0155 20.1982C9.34509 20.204 9.03009 20.1932 7.97548 20.1476M16.1276 6.65535C16.128 6.89271 16.1987 7.12462 16.3309 7.32174C16.4631 7.51887 16.6508 7.67237 16.8703 7.76281C17.0897 7.85326 17.3311 7.8766 17.5638 7.82988C17.7965 7.78315 18.0101 7.66847 18.1777 7.50033C18.3452 7.33218 18.4591 7.11813 18.505 6.88525C18.5508 6.65237 18.5266 6.41112 18.4354 6.19201C18.3441 5.97289 18.1899 5.78576 17.9923 5.65428C17.7947 5.5228 17.5625 5.45288 17.3252 5.45335C17.007 5.45399 16.7021 5.58097 16.4775 5.80638C16.2529 6.03179 16.127 6.33716 16.1276 6.65535ZM6.86547 12.01C6.87107 14.846 9.17429 17.1398 12.0097 17.1344C14.8451 17.129 17.1406 14.826 17.1352 11.99C17.1298 9.15396 14.8259 6.85955 11.9901 6.86515C9.15429 6.87075 6.86007 9.17436 6.86547 12.01ZM8.66668 12.0064C8.66538 11.3471 8.85961 10.7022 9.2248 10.1533C9.59 9.60442 10.1098 9.17614 10.7184 8.92264C11.327 8.66914 11.9971 8.6018 12.644 8.72914C13.2908 8.85648 13.8854 9.17278 14.3525 9.63804C14.8196 10.1033 15.1383 10.6966 15.2682 11.343C15.3981 11.9894 15.3334 12.6597 15.0823 13.2693C14.8312 13.8789 14.405 14.4004 13.8576 14.7677C13.3101 15.1351 12.666 15.3319 12.0067 15.3332C11.5689 15.3341 11.1353 15.2488 10.7305 15.0821C10.3257 14.9154 9.95773 14.6706 9.64757 14.3616C9.33741 14.0527 9.09115 13.6857 8.92284 13.2816C8.75454 12.8775 8.6675 12.4441 8.66668 12.0064Z" fill="white"/>
</svg>
