<svg width="24" height="24" viewBox="0 0 24 24" fill="none" xmlns="http://www.w3.org/2000/svg">
<path d="M12 21H7C5.89543 21 5 20.1046 5 19V5C5 3.89543 5.89543 3 7 3H15C16.1046 3 17 3.89543 17 5M17 4.875V5.125M15 19.8V9.7C15 9.03726 15.5373 8.5 16.2 8.5H17.8C18.4627 8.5 19 9.03726 19 9.7V19.8M15 19.8C15 20.4627 15.5373 21 16.2 21H17.8C18.4627 21 19 20.4627 19 19.8M15 19.8V17C15 15.8954 15.8954 15 17 15C18.1046 15 19 15.8954 19 17V19.8" stroke="white" stroke-width="1.8" stroke-linecap="round" stroke-linejoin="round"/>
</svg>
