<svg width="24" height="24" viewBox="0 0 24 24" fill="none" xmlns="http://www.w3.org/2000/svg">
<path d="M14.47 9.53L18.36 5.64M5.64 18.36L9.53 14.47M9.53 9.53L5.64 5.64M18.36 18.36L14.47 14.47M12 3C10.8181 3 9.64778 3.23279 8.55585 3.68508C7.46392 4.13738 6.47177 4.80031 5.63604 5.63604C4.80031 6.47177 4.13738 7.46392 3.68508 8.55585C3.23279 9.64778 3 10.8181 3 12C3 13.1819 3.23279 14.3522 3.68508 15.4442C4.13738 16.5361 4.80031 17.5282 5.63604 18.364C6.47177 19.1997 7.46392 19.8626 8.55585 20.3149C9.64778 20.7672 10.8181 21 12 21C13.1819 21 14.3522 20.7672 15.4442 20.3149C16.5361 19.8626 17.5282 19.1997 18.364 18.364C19.1997 17.5282 19.8626 16.5361 20.3149 15.4442C20.7672 14.3522 21 13.1819 21 12C21 10.8181 20.7672 9.64778 20.3149 8.55585C19.8626 7.46392 19.1997 6.47177 18.364 5.63604C17.5282 4.80031 16.5361 4.13738 15.4442 3.68508C14.3522 3.23279 13.1819 3 12 3ZM12 8.5C11.5404 8.5 11.0852 8.59053 10.6606 8.76642C10.236 8.94231 9.85013 9.20012 9.52513 9.52513C9.20012 9.85013 8.94231 10.236 8.76642 10.6606C8.59053 11.0852 8.5 11.5404 8.5 12C8.5 12.4596 8.59053 12.9148 8.76642 13.3394C8.94231 13.764 9.20012 14.1499 9.52513 14.4749C9.85013 14.7999 10.236 15.0577 10.6606 15.2336C11.0852 15.4095 11.5404 15.5 12 15.5C12.4596 15.5 12.9148 15.4095 13.3394 15.2336C13.764 15.0577 14.1499 14.7999 14.4749 14.4749C14.7999 14.1499 15.0577 13.764 15.2336 13.3394C15.4095 12.9148 15.5 12.4596 15.5 12C15.5 11.5404 15.4095 11.0852 15.2336 10.6606C15.0577 10.236 14.7999 9.85013 14.4749 9.52513C14.1499 9.20012 13.764 8.94231 13.3394 8.76642C12.9148 8.59053 12.4596 8.5 12 8.5Z" stroke="white" stroke-width="1.8" stroke-linecap="round" stroke-linejoin="round"/>
</svg>
