<svg width="24" height="24" viewBox="0 0 24 24" fill="none" xmlns="http://www.w3.org/2000/svg">
<path d="M15.8034 22.32C16.6674 22.32 17.4834 21.792 17.9874 21.12C18.5874 20.352 20.5794 19.992 20.5794 19.008C20.5794 18.528 20.1954 18.192 19.9314 17.808C19.5714 17.376 19.7394 16.608 19.2114 16.152C19.1154 16.056 18.9714 15.984 18.8754 15.912C18.9714 15.528 19.0434 15.096 19.0434 14.688C19.0434 11.112 15.4914 9.52799 15.4914 6.93599V6.16799C15.4914 3.98399 15.1314 1.67999 12.4194 1.67999C10.0674 1.67999 9.20343 2.99999 9.20343 5.20799C9.20343 5.83199 9.29943 6.43199 9.29943 7.03199C9.29943 10.032 5.36343 11.952 5.77143 15.624C5.53143 15.888 5.33943 16.2 5.09943 16.464C4.61943 16.944 3.51543 16.728 3.51543 17.952C3.51543 18.288 3.65943 18.624 3.65943 18.984C3.65943 19.344 3.41943 19.704 3.41943 20.112C3.41943 20.616 3.73143 20.952 4.21143 21.072C5.05143 21.312 5.93943 21.192 6.75543 21.6C7.33143 21.888 7.90743 22.08 8.53143 22.08C9.13143 22.08 10.0194 21.792 10.1874 21.12C10.8354 21.048 11.4354 20.832 12.0834 20.832C12.7554 20.832 13.4274 21.048 14.1234 21C14.3634 21.816 14.9394 22.32 15.8034 22.32ZM3.92343 20.088C3.92343 19.704 4.11543 19.392 4.11543 18.984C4.11543 18.624 3.99543 18.288 3.99543 17.928C3.99543 17.808 4.01943 17.712 4.06743 17.616C4.33143 17.136 5.05143 17.184 5.43543 16.8C5.60343 16.632 5.74743 16.392 5.91543 16.2C6.08343 16.008 6.15543 15.888 6.44343 15.84C6.92343 15.84 7.16343 16.032 7.45143 16.44C7.76343 16.872 7.97943 17.376 8.21943 17.832C8.41143 18.192 8.67543 18.528 8.91543 18.84C9.22743 19.296 9.85143 19.92 9.85143 20.496C9.85143 21.192 9.25143 21.6 8.57943 21.6C8.02743 21.6 7.49943 21.432 6.97143 21.192C6.41943 20.904 5.77143 20.808 5.14743 20.736C4.83543 20.688 4.16343 20.664 3.97143 20.376C3.92343 20.28 3.92343 20.184 3.92343 20.088ZM7.09143 14.232C7.09143 13.176 7.71543 11.976 8.26743 11.088C7.97943 12.12 7.33143 12.624 7.33143 13.848C7.33143 14.352 7.49943 14.832 7.78743 15.216C7.85943 12.72 9.70743 10.776 9.89943 8.30399C10.3074 8.68799 10.9314 9.16799 11.5314 9.16799C12.0834 9.16799 13.5234 8.37599 13.9314 7.96799C14.2674 9.26399 14.7714 10.584 15.3954 11.76C15.8274 12.576 16.1634 13.44 16.3314 14.352C16.4994 14.328 16.6194 14.376 16.7634 14.4C16.8834 14.112 16.9314 13.8 16.9314 13.512C16.9314 12.12 15.7314 10.824 15.7314 10.776C15.7314 10.776 15.7074 10.752 15.7314 10.728C16.5474 11.448 17.2194 12.72 17.2194 13.824C17.2194 14.064 17.2194 14.28 17.1474 14.52C17.5794 14.616 18.4434 15.216 18.4434 15.72L18.4194 15.84L18.2514 15.816L18.2754 15.72C18.2754 15.12 16.8834 14.664 16.3794 14.664C16.0434 14.664 15.8514 14.976 15.8034 15.264L15.5634 15.384H15.5394C14.6754 15.864 14.6994 17.184 14.6514 18.072C14.6274 18.384 14.4594 19.008 14.3394 19.344C13.5954 19.8 12.7314 20.136 11.8434 20.136C11.2194 20.136 10.5954 19.968 10.0674 19.632C9.87543 19.32 9.70743 19.008 9.44343 18.744C9.75543 18.672 10.0194 18.552 10.0194 18.192C10.0194 16.584 7.09143 16.272 7.09143 14.232ZM9.65943 5.75999C9.65943 5.35199 9.87543 4.75199 10.3314 4.75199C10.8834 4.75199 11.1234 5.49599 11.1234 5.92799V6.02399C10.9554 6.04799 10.8114 6.11999 10.6914 6.19199C10.6914 5.99999 10.6194 5.49599 10.3074 5.49599C10.1154 5.49599 10.0194 5.83199 10.0194 5.99999C10.0194 6.19199 10.0674 6.43199 10.2114 6.59999C10.1634 6.62399 10.0194 6.74399 9.94743 6.79199C9.70743 6.50399 9.65943 6.11999 9.65943 5.75999ZM9.68343 7.51199C9.68343 7.24799 10.3794 6.79199 10.4274 6.81599C10.6914 6.52799 11.0274 6.26399 11.5074 6.26399C11.8914 6.26399 13.8354 7.00799 13.8354 7.39199C13.8354 7.89599 13.3314 8.13599 12.9234 8.27999C12.3714 8.49599 12.1794 8.87999 11.5074 8.87999C11.0514 8.87999 9.68343 7.96799 9.68343 7.51199ZM9.85143 7.58399C10.3554 7.84799 10.8594 8.37599 11.3874 8.37599C12.2274 8.37599 13.1874 7.51199 13.4994 7.51199L13.4754 7.34399C13.0434 7.34399 12.2514 8.18399 11.3634 8.18399C10.9314 8.18399 10.4034 7.63199 9.85143 7.36799V7.58399ZM11.8674 5.99999C11.8674 5.39999 12.1074 4.53599 12.8514 4.53599C13.4994 4.53599 13.9074 5.23199 13.9074 5.80799C13.9074 6.14399 13.8114 6.47999 13.6194 6.74399C13.4514 6.71999 13.2834 6.59999 13.1154 6.55199C13.2114 6.38399 13.2354 6.16799 13.2354 5.97599C13.2354 5.71199 13.1154 5.32799 12.7794 5.32799C12.3714 5.32799 12.3234 5.87999 12.3234 6.19199C12.1554 6.09599 12.0114 6.02399 11.8674 5.99999ZM14.5554 20.616C14.5554 19.776 15.0834 18.96 15.1314 18.072C15.1314 17.424 15.1794 16.488 15.5634 15.936C15.6594 15.888 15.7314 15.84 15.7794 15.792C15.9234 16.296 16.0914 16.872 16.7394 16.872C17.1474 16.872 17.6994 16.608 17.9634 16.32H18.1794C18.3474 16.32 18.5394 16.32 18.7074 16.392C18.7794 16.392 18.8514 16.44 18.8994 16.488C19.2834 16.752 19.1874 17.712 19.5714 18.144C19.7874 18.384 20.0994 18.696 20.0994 19.032C20.0994 19.416 18.1314 20.208 17.6034 20.856C17.1714 21.384 16.5474 21.84 15.8274 21.84C15.1314 21.84 14.5554 21.336 14.5554 20.616Z" fill="white"/>
</svg>
