<svg width="24" height="24" viewBox="0 0 24 24" fill="none" xmlns="http://www.w3.org/2000/svg">
<path d="M14.8002 18H17.8002M14.8002 15H17.8002M3.00023 12H21.0002M15.0002 7.49998H18.0002M6.00023 7.49998H9.00023M7.50023 8.99998V5.99998M6.44023 15.44L8.56024 17.56M6.44023 17.56L8.56024 15.44M12.0002 2.99998V21M21.0002 18.652C21.0002 19.942 19.9402 20.992 18.6502 20.992H5.34023C4.04023 20.992 2.99023 19.932 2.99023 18.642V5.32998C2.99023 4.02998 4.04023 2.97998 5.33823 2.97998H18.6382C19.9282 2.97998 20.9782 4.02998 20.9782 5.32798V18.628L21.0002 18.652Z" stroke="white" stroke-width="1.8" stroke-linecap="round" stroke-linejoin="round"/>
</svg>
