<svg width="24" height="24" viewBox="0 0 24 24" fill="none" xmlns="http://www.w3.org/2000/svg">
<path d="M20.9999 12V14.42C20.9999 15.83 19.8399 16.99 18.4199 16.99C18.4099 16.99 18.4099 16.99 18.4099 16.99H5.5499C4.1299 16.99 2.9699 15.83 2.9699 14.41C2.9599 14.4 2.9599 14.4 2.9699 14.4V5.54C2.9599 4.12 4.1199 2.96 5.5399 2.96M5.5399 2.96C5.5399 2.95 5.5399 2.95 5.5399 2.96ZM5.5399 2.96H5.9599M13.9999 17L14.4999 21M9.9999 17L9.4999 21M8.1399 21H15.8599M12.4949 5.5V5.49L12.4849 5.48H12.4749M15.4949 5.5V5.49L15.4849 5.48H15.4749M18.4899 5.5V5.49L18.4799 5.48H18.4699M20.9999 13.5H2.9999M10.9999 2H19.9999C21.1045 2 21.9999 2.89543 21.9999 4V7C21.9999 8.10457 21.1045 9 19.9999 9H10.9999C9.89533 9 8.9999 8.10457 8.9999 7V4C8.9999 2.89543 9.89533 2 10.9999 2Z" stroke="white" stroke-width="1.8" stroke-linecap="round" stroke-linejoin="round"/>
</svg>
