<svg width="24" height="24" viewBox="0 0 24 24" fill="none" xmlns="http://www.w3.org/2000/svg">
<path d="M11.9902 17.5C11.7102 17.5 11.4902 17.72 11.4902 18C11.4902 18.27 11.7102 18.5 11.9902 18.5C12.2602 18.5 12.4902 18.27 12.4902 18C12.4902 17.72 12.2602 17.5 11.9802 17.5M11.9902 11.5C11.7102 11.5 11.4902 11.72 11.4902 12C11.4902 12.27 11.7102 12.5 11.9902 12.5C12.2602 12.5 12.4902 12.27 12.4902 12C12.4902 11.72 12.2602 11.5 11.9802 11.5M11.9902 5.5C11.7102 5.5 11.4902 5.72 11.4902 6C11.4902 6.27 11.7102 6.5 11.9902 6.5C12.2602 6.5 12.4902 6.27 12.4902 6C12.4902 5.72 12.2602 5.5 11.9802 5.5" stroke="white" stroke-width="1.8" stroke-linecap="round" stroke-linejoin="round"/>
</svg>
