<svg width="24" height="24" viewBox="0 0 24 24" fill="none" xmlns="http://www.w3.org/2000/svg">
<path d="M17.4902 12C17.4902 12.28 17.7102 12.5 17.9902 12.5C18.2602 12.5 18.4902 12.28 18.4902 12C18.4902 11.73 18.2602 11.5 17.9902 11.5C17.7102 11.5 17.4902 11.73 17.4902 12.01M11.4902 12C11.4902 12.28 11.7102 12.5 11.9902 12.5C12.2602 12.5 12.4902 12.28 12.4902 12C12.4902 11.73 12.2602 11.5 11.9902 11.5C11.7102 11.5 11.4902 11.73 11.4902 12.01M5.49023 12C5.49023 12.28 5.71023 12.5 5.99023 12.5C6.26023 12.5 6.49023 12.28 6.49023 12C6.49023 11.73 6.26023 11.5 5.99023 11.5C5.71023 11.5 5.49023 11.73 5.49023 12.01" stroke="white" stroke-width="1.8" stroke-linecap="round" stroke-linejoin="round"/>
</svg>
