<svg width="24" height="24" viewBox="0 0 24 24" fill="none" xmlns="http://www.w3.org/2000/svg">
<path d="M17 17.9167C17 18.15 17.1833 18.3334 17.4167 18.3334C17.6417 18.3334 17.8333 18.15 17.8333 17.9167C17.8333 17.6917 17.6417 17.5 17.4167 17.5C17.1833 17.5 17 17.6917 17 17.925M8.75739 12L4.35359 7.59624C4.15833 7.40098 4.15833 7.0844 4.35359 6.88913L7.88912 3.3536C8.08438 3.15834 8.40097 3.15834 8.59623 3.3536L17.2427 12M3.43902 21H18C19.6569 21 21 19.6569 21 18C21 16.3432 19.6569 15 18 15H3.43902C3.19656 15 3 15.1966 3 15.4391V20.561C3 20.8035 3.19656 21 3.43902 21Z" stroke="white" stroke-width="1.8" stroke-linecap="round" stroke-linejoin="round"/>
</svg>
