<svg width="24" height="24" viewBox="0 0 24 24" fill="none" xmlns="http://www.w3.org/2000/svg">
<path d="M6.5 14.5V9.49996L9 14.5V9.49996M11.5 14.5V9.49996H13.5M16.5 14.5V9.49996M16.5 9.49996H15.5M16.5 9.49996H17.5M12 12H12.5M20.25 15.705V8.29496C20.25 7.63996 19.901 7.03496 19.333 6.70696L12.916 3.00196C12.349 2.67496 11.65 2.67496 11.083 3.00196L4.667 6.70796C4.099 7.03496 3.75 7.63996 3.75 8.29496V15.704C3.75 16.359 4.099 16.964 4.667 17.292L11.084 20.997C11.651 21.324 12.35 21.324 12.917 20.997L19.334 17.292C19.901 16.965 20.25 16.36 20.25 15.705Z" stroke="white" stroke-width="1.8" stroke-linecap="round" stroke-linejoin="round"/>
</svg>
