<svg width="24" height="24" viewBox="0 0 24 24" fill="none" xmlns="http://www.w3.org/2000/svg">
<path d="M6.5 14.5V9.50002L9 14.5V9.50002M11.5 14.5V9.50002H13.5M16.5 14.5V9.50002M16.5 9.50002H15.5M16.5 9.50002H17.5M12 12H12.5M20.25 15.705V8.29502C20.25 7.64002 19.901 7.03502 19.333 6.70702L12.916 3.00202C12.349 2.67502 11.65 2.67502 11.083 3.00202L4.667 6.70802C4.099 7.03502 3.75 7.64002 3.75 8.29502V15.704C3.75 16.359 4.099 16.964 4.667 17.292L11.084 20.997C11.651 21.324 12.35 21.324 12.917 20.997L19.334 17.292C19.901 16.965 20.25 16.36 20.25 15.705Z" stroke="white" stroke-width="1.8" stroke-linecap="round" stroke-linejoin="round"/>
</svg>
