<svg width="20" height="6" viewBox="0 0 20 6" fill="none" xmlns="http://www.w3.org/2000/svg">
<g id="450x">
<path id="Vector" d="M19.2631 4.50113V5.4997H17.8223L16.2888 3.95191V3.49542H17.2731C17.2731 3.86632 17.1828 4.20156 17.0021 4.50113L16.9379 4.60099C16.7619 4.85776 16.5385 5.06699 16.2674 5.22866C15.9773 5.40936 15.6492 5.4997 15.2831 5.4997H14.2703V4.50113H15.2831C15.5589 4.50113 15.7919 4.40365 15.9821 4.20869C16.1866 4.01373 16.2888 3.77598 16.2888 3.49542V2.49685H17.2731V3.49542L18.2646 4.50113H19.2631ZM15.2688 1.50541H14.2703V0.506836H15.2688V1.50541ZM15.2688 0.506836V1.50541L16.2817 2.48972V2.49685H17.2731C17.2731 2.22581 17.3706 1.99281 17.5656 1.79785C17.7653 1.59813 18.0006 1.49828 18.2717 1.49828H19.2845V0.506836H18.2717C17.9055 0.506836 17.5774 0.597183 17.2874 0.777877C17.0163 0.939551 16.7952 1.1464 16.624 1.39842L15.7111 0.506836H15.2688Z" fill="white"/>
<path id="Vector_2" d="M11.6211 5.4997C11.2692 5.4997 10.9459 5.40936 10.6511 5.22866C10.3467 5.06223 10.1019 4.81735 9.91641 4.494C9.85459 4.39414 9.81417 4.31568 9.79515 4.25862L10.4086 3.63808L10.537 3.50969H9.6311V2.49685C9.6311 2.14973 9.72383 1.81925 9.90928 1.50541C10.1042 1.19157 10.3491 0.946684 10.6439 0.770745C10.953 0.594806 11.2787 0.506836 11.6211 0.506836H11.992C12.3344 0.506836 12.6601 0.594806 12.9692 0.770745C13.264 0.946684 13.5089 1.19157 13.7039 1.50541C13.7609 1.60051 13.7966 1.66233 13.8108 1.69086L13.5255 1.96903L12.9835 2.50398H13.982V3.50969C13.982 3.85206 13.8941 4.17778 13.7181 4.48686C13.5422 4.78168 13.2973 5.02657 12.9835 5.22153C12.6696 5.40698 12.3415 5.4997 11.9991 5.4997H11.6211ZM12.4485 1.6124C12.3154 1.54107 12.1632 1.50541 11.992 1.50541H11.6211C11.3453 1.50541 11.1147 1.59813 10.9292 1.78358C10.7295 1.9833 10.6297 2.22105 10.6297 2.49685V3.41696L12.4485 1.6124ZM11.1076 4.36561C11.255 4.45596 11.4262 4.50113 11.6211 4.50113H11.992C12.2678 4.50113 12.5056 4.40127 12.7053 4.20156C12.8907 4.01611 12.9835 3.78549 12.9835 3.50969V2.50398L11.1076 4.36561Z" fill="white"/>
<path id="Vector_3" d="M5.35449 4.50113H7.35877C7.62981 4.50113 7.86757 4.40841 8.07204 4.22296C8.26224 4.00898 8.35735 3.76884 8.35735 3.50256H5.35449V2.50398H8.35021V2.51112L9.34879 3.50256C9.34879 3.85919 9.25844 4.19205 9.07775 4.50113C8.89705 4.80546 8.65454 5.04797 8.35021 5.22866C8.04113 5.40936 7.71065 5.4997 7.35877 5.4997H5.35449V4.50113ZM6.35307 2.50398V0.506836H8.35021C8.62601 0.506836 8.86139 0.604316 9.05635 0.799275C9.25131 0.994235 9.34879 1.22961 9.34879 1.50541H6.35307V0.506836L5.35449 1.50541V2.50398H6.35307Z" fill="white"/>
<path id="Vector_4" d="M3.06911 5.5V4.50143H1.72817H1.71391V3.50999H3.06911V2.51141H4.06769V3.50999H5.06626V4.50143H4.06769V5.5H3.06911ZM1.71391 4.50143V2.94651L3.78951 0.920827V0.5H2.79094L0.729597 2.50428H0.715332V3.50999L1.71391 4.50143ZM1.13616 3.50999L1.71391 2.94651V2.50428H0.729597L0.722465 2.51141V3.50999H1.13616Z" fill="white"/>
</g>
</svg>
