<svg width="20" height="10" viewBox="0 0 20 10" fill="none" xmlns="http://www.w3.org/2000/svg">
<g id="Group 2">
<g id="Group">
<path id="Vector" d="M10.1412 3.03674C10.1944 2.3961 10.1586 1.67033 10.0979 1.31273C10.0493 1.02703 9.91892 0.829687 9.71029 0.726201C9.5344 0.638969 9.30932 0.622085 9.02224 0.674633C8.08143 0.846839 7.20227 1.43065 6.47979 2.36297C6.27007 2.6336 6.10243 2.89541 5.975 3.11629C5.96881 3.12701 5.95245 3.12297 5.95241 3.11064C5.95006 2.41267 5.88022 1.44272 5.88035 1.43627C5.88224 1.35006 5.81646 1.27859 5.73342 1.27662C5.6503 1.27469 5.58154 1.34294 5.57963 1.42914C5.57945 1.43723 5.64612 2.70424 5.65302 3.64927C5.65306 3.65551 5.64836 3.66068 5.6422 3.66147C5.63495 3.6624 5.62769 3.66349 5.62041 3.66482C5.61312 3.66616 5.60594 3.66772 5.59882 3.66942C5.59278 3.67086 5.58666 3.66767 5.58466 3.66181C5.27978 2.77135 4.925 1.55706 4.92213 1.54949C4.89193 1.46915 4.80473 1.42948 4.72736 1.46077C4.64997 1.49212 4.61171 1.58264 4.64189 1.66296C4.64416 1.66897 4.89809 2.60523 5.12585 3.26193C5.12987 3.27353 5.11583 3.28314 5.10648 3.27526C4.91397 3.11294 4.67017 2.92644 4.38393 2.74659C3.39788 2.12701 2.37939 1.89054 1.43858 2.06275C0.663271 2.20468 0.575314 2.67484 0.638064 3.04426C0.698806 3.40186 0.90425 4.09656 1.16536 4.67968C1.5102 5.44974 1.85695 5.82288 2.19669 5.7904C2.20646 5.78946 2.21368 5.79973 2.20907 5.80849C2.05679 6.09818 1.88078 6.52426 1.93862 6.86478C2.02511 7.37396 2.62824 7.91941 3.16386 8.26008C3.85682 8.70083 4.55471 8.91195 5.03075 8.82481C5.40349 8.75659 5.75136 8.36321 5.96137 7.77256C6.05911 7.49767 6.14972 7.35118 6.1824 7.04613C6.18373 7.03375 6.20105 7.03058 6.20637 7.04174C6.33761 7.31679 6.47102 7.42227 6.65342 7.64589C7.04537 8.12637 7.50187 8.3725 7.8746 8.30427C8.35064 8.21714 8.93687 7.77098 9.44284 7.11077C9.83391 6.60046 10.221 5.87379 10.1345 5.36461C10.0766 5.02409 9.77085 4.68619 9.53231 4.46804C9.5251 4.46144 9.52849 4.44924 9.53799 4.44664C9.86797 4.35654 10.0709 3.88278 10.1412 3.03674ZM5.67916 7.66447C5.50922 8.14253 5.24074 8.46933 4.97852 8.51733C4.57883 8.59049 3.94371 8.38989 3.32101 7.99383C2.71818 7.6104 2.29182 7.14595 2.23486 6.81057C2.18022 6.48893 2.45945 5.96015 2.60992 5.72062C2.61173 5.71773 2.61459 5.71586 2.61793 5.71525L5.39175 5.20753C5.39827 5.20634 5.40446 5.21067 5.40557 5.21721L5.52379 5.91321C5.55914 6.1213 5.71709 6.27548 5.90686 6.31007C5.91196 6.311 5.91595 6.31523 5.91668 6.32038C6.01147 6.99328 5.87047 7.12635 5.67916 7.66447ZM6.01751 6.00249C5.92494 6.01943 5.83635 5.95504 5.82003 5.85895L5.53439 4.17732C5.51807 4.08123 5.5801 3.98927 5.67266 3.97232C5.76523 3.95538 5.85382 4.01977 5.87014 4.11586L6.15578 5.79749C6.1721 5.89358 6.11007 5.98554 6.01751 6.00249ZM9.83826 5.41883C9.89523 5.7542 9.64765 6.34201 9.20746 6.91635C8.75281 7.50961 8.22208 7.9236 7.82239 7.99676C7.56018 8.04476 7.20021 7.83299 6.88301 7.4441C6.52594 7.00636 6.3496 6.93139 6.21694 6.26536C6.21593 6.26026 6.21829 6.25486 6.22277 6.25218C6.38972 6.1523 6.48733 5.95134 6.45199 5.74326L6.33376 5.04725C6.33265 5.04071 6.33704 5.03445 6.34356 5.03325L9.11746 4.52552C9.12079 4.52491 9.12409 4.52564 9.12675 4.52771C9.34701 4.69906 9.78347 5.09628 9.83826 5.41883Z" fill="white"/>
</g>
<g id="Group_2">
<path id="Vector_2" d="M18.8347 4.74934C19.0958 4.16624 19.3013 3.47152 19.362 3.11392C19.4105 2.82822 19.353 2.59647 19.1911 2.42515C19.0545 2.28073 18.8486 2.18496 18.5615 2.13241C17.6207 1.9602 16.6022 2.19667 15.6161 2.81625C15.3299 2.99609 15.0861 3.1826 14.8936 3.34491C14.8842 3.3528 14.8702 3.34319 14.8742 3.33159C15.102 2.67487 15.3559 1.73863 15.3582 1.73261C15.3883 1.65227 15.3501 1.56175 15.2727 1.53042C15.1952 1.4991 15.1081 1.53882 15.0779 1.61914C15.0751 1.62668 14.7203 2.84095 14.4154 3.73144C14.4134 3.73731 14.4073 3.7405 14.4012 3.73906C14.3941 3.73736 14.3869 3.73581 14.3796 3.73447C14.3723 3.73314 14.3651 3.73206 14.3578 3.73113C14.3517 3.73034 14.347 3.72517 14.347 3.71895C14.3539 2.77395 14.4206 1.50693 14.4204 1.49879C14.4185 1.41258 14.3496 1.34434 14.2666 1.34627C14.1836 1.34826 14.1178 1.41973 14.1197 1.50592C14.1198 1.51238 14.05 2.48233 14.0476 3.18029C14.0476 3.19262 14.0312 3.19666 14.025 3.18594C13.8976 2.96506 13.73 2.70325 13.5203 2.43262C12.7978 1.50031 11.9187 0.916499 10.9778 0.744293C10.2025 0.602398 9.96497 1.01297 9.90222 1.38239C9.84148 1.73999 9.80564 2.46574 9.85889 3.1064C9.92921 3.95245 10.1321 4.4262 10.4621 4.5163C10.4716 4.51889 10.4749 4.5311 10.4677 4.53769C10.2292 4.75585 9.92342 5.09374 9.86558 5.43426C9.77909 5.94344 10.1661 6.67014 10.5572 7.18043C11.0632 7.84063 11.6494 8.28679 12.1254 8.37393C12.4982 8.44215 12.9547 8.19601 13.3466 7.71555C13.529 7.49193 13.6625 7.38645 13.7937 7.11139C13.799 7.10024 13.8163 7.1034 13.8176 7.11578C13.8503 7.42084 13.941 7.56733 14.0387 7.84222C14.2487 8.43288 14.5966 8.82624 14.9693 8.89447C15.4453 8.9816 16.1432 8.77048 16.8362 8.32973C17.3718 7.98904 17.9749 7.44361 18.0614 6.93443C18.1193 6.59391 17.9433 6.16783 17.791 5.87814C17.7864 5.86938 17.7936 5.85912 17.8034 5.86005C18.1431 5.89254 18.4899 5.51938 18.8347 4.74934ZM13.1171 7.51377C12.7998 7.90267 12.4399 8.11444 12.1777 8.06644C11.778 7.99328 11.2473 7.57928 10.7926 6.98602C10.3525 6.41169 10.1048 5.82388 10.1618 5.4885C10.2164 5.16685 10.653 4.7691 10.8734 4.59744C10.876 4.59537 10.8793 4.59463 10.8827 4.59524L13.6565 5.10296C13.663 5.10416 13.6674 5.11042 13.6663 5.11696L13.548 5.81297C13.5127 6.02105 13.6103 6.22201 13.7773 6.32189C13.7817 6.32458 13.7841 6.32997 13.7831 6.33507C13.6505 7.00104 13.4741 7.07603 13.1171 7.51377ZM13.9826 6.07215C13.89 6.05521 13.828 5.96324 13.8443 5.86715L14.1299 4.18552C14.1463 4.08943 14.2349 4.02504 14.3274 4.04198C14.42 4.05893 14.482 4.15089 14.4657 4.24698L14.1801 5.92861C14.1637 6.0247 14.0751 6.08909 13.9826 6.07215ZM17.7652 6.88021C17.7082 7.21559 17.2819 7.68005 16.6791 8.06346C16.0564 8.45953 15.4212 8.66012 15.0215 8.58696C14.7593 8.53897 14.4908 8.21217 14.3209 7.73411C14.1296 7.19599 13.9886 7.06294 14.0834 6.38997C14.0841 6.38482 14.0881 6.38059 14.0932 6.37966C14.283 6.34507 14.4409 6.19089 14.4763 5.98281L14.5945 5.2868C14.5956 5.28027 14.6018 5.27593 14.6083 5.27713L17.3822 5.78486C17.3855 5.78547 17.3884 5.78734 17.3902 5.79022C17.5407 6.02944 17.82 6.55767 17.7652 6.88021Z" fill="white"/>
</g>
</g>
</svg>
