<svg width="21" height="9" viewBox="0 0 21 9" fill="none" xmlns="http://www.w3.org/2000/svg">
<path d="M16.812 8.21936C16.3023 8.21936 15.8206 8.0867 15.3668 7.8214C14.9199 7.5561 14.5639 7.20004 14.2986 6.75322C14.0333 6.29941 13.9006 5.8107 13.9006 5.28708V3.82095H18.8122V3.83142C19.2171 3.83142 19.5627 3.97454 19.849 4.26079C20.1352 4.54703 20.2783 4.88913 20.2783 5.28708H15.3563C15.3563 5.67805 15.4959 6.03062 15.7752 6.34479C16.0824 6.61708 16.4315 6.75322 16.8224 6.75322H17.3461V6.76369H18.7912H18.8122H20.2783L18.8122 8.21936H18.7912H16.812ZM15.3668 3.82095V0.888672H18.8227C19.2206 0.888672 19.5627 1.03179 19.849 1.31804C20.1352 1.60429 20.2783 1.94988 20.2783 2.35481H15.3668V0.888672L13.9006 2.35481V3.82095H15.3668ZM20.2783 6.76369V5.28708H18.8122V6.76369H20.2783Z" fill="white"/>
<path d="M12.0115 3.81047C12.0115 3.40554 11.8649 3.05646 11.5716 2.76323C11.2994 2.49095 10.9608 2.35481 10.5558 2.35481H10.0113C9.60632 2.35481 9.26771 2.49095 8.99543 2.76323C8.7022 3.05646 8.55559 3.40554 8.55559 3.81047H7.08945C7.08945 3.30082 7.22559 2.81559 7.49788 2.35481C7.78412 1.89402 8.14367 1.53447 8.57653 1.27615C9.03034 1.01783 9.50858 0.888672 10.0113 0.888672H10.5558C11.0585 0.888672 11.5367 1.01783 11.9905 1.27615C12.4234 1.53447 12.7829 1.89402 13.0692 2.35481C13.3415 2.81559 13.4776 3.30082 13.4776 3.81047H12.0115ZM8.54512 5.28708C8.54512 5.69201 8.69173 6.04109 8.98496 6.33432C9.26422 6.61359 9.60632 6.75322 10.0113 6.75322H10.5558C10.9608 6.75322 11.2994 6.61708 11.5716 6.34479C11.8649 6.05157 12.0115 5.70249 12.0115 5.29755H13.4776C13.4776 5.80721 13.3415 6.29243 13.0692 6.75322C12.7829 7.214 12.4234 7.57356 11.9905 7.83188C11.5367 8.0902 11.0585 8.21936 10.5558 8.21936H10.0113C9.51556 8.21936 9.03383 8.0867 8.56606 7.8214C8.1332 7.56308 7.77365 7.20353 7.4874 6.74275C7.21512 6.28196 7.07898 5.79674 7.07898 5.28708H8.54512ZM12.0115 5.28708V3.81047H8.54512V5.28708H12.0115Z" fill="white"/>
<path d="M3.74469 0.888672C4.26133 0.888672 4.74655 1.02132 5.20035 1.28662C5.64717 1.55192 6.00324 1.90799 6.26854 2.35481C6.53384 2.80861 6.66649 3.29383 6.66649 3.81047V4.44929L2.84406 6.75322H6.66649V8.21936H0.27832V6.75322L5.20035 3.81047C5.20035 3.41252 5.06421 3.06344 4.79193 2.76323C4.49172 2.49095 4.14264 2.35481 3.74469 2.35481H3.20012C2.80915 2.35481 2.46007 2.49095 2.15288 2.76323C1.8806 3.06344 1.74446 3.41252 1.74446 3.81047H0.27832C0.27832 3.29383 0.410971 2.80861 0.676272 2.35481C0.941573 1.90799 1.29763 1.55192 1.74446 1.28662C2.19826 1.02132 2.68348 0.888672 3.20012 0.888672H3.74469Z" fill="white"/>
</svg>
