<svg width="10" height="16" viewBox="0 0 10 16" fill="none" xmlns="http://www.w3.org/2000/svg">
<path id="Path" fill-rule="evenodd" clip-rule="evenodd" d="M8 15H2C1.44772 15 1 14.3732 1 13.6V11.9913C1 11.6734 1.07727 11.365 1.21911 11.1167L3 8L1.219 4.88175C1.07723 4.63355 1 4.32522 1 4.00742V2.4C1 1.6268 1.44772 1 2 1H8C8.55229 1 9 1.6268 9 2.4V4.00891C9 4.32681 8.92272 4.63524 8.78087 4.88347L7 8L8.78087 11.1165C8.92272 11.3648 9 11.6732 9 11.9911V13.6C9 14.3732 8.55229 15 8 15Z" stroke="white" stroke-width="1.25" stroke-linecap="round" stroke-linejoin="round"/>
</svg>
