<svg width="24" height="24" viewBox="0 0 24 24" fill="none" xmlns="http://www.w3.org/2000/svg">
<g id="Group 1000002428">
<g id="Group">
<path id="Vector" d="M17.9629 11.1161C18.1668 10.3512 18.2769 9.46325 18.2769 9.01617C18.2769 8.65899 18.155 8.39077 17.9145 8.21899C17.7117 8.07418 17.4321 8.00376 17.0595 8.00376C15.8385 8.00376 14.6071 8.51651 13.4984 9.4866C13.1854 9.76049 12.9243 10.0331 12.7192 10.2682C12.7041 10.2855 12.6755 10.2719 12.6794 10.2493C12.8235 9.40439 12.9405 8.23766 12.9421 8.22995C12.9629 8.12583 12.8954 8.02457 12.7913 8.00376C12.6871 7.98297 12.5859 8.05047 12.5651 8.15456C12.5631 8.16431 12.3769 9.70932 12.1839 10.856C12.182 10.8675 12.1717 10.8753 12.1602 10.8748C12.153 10.8745 12.1457 10.8744 12.1384 10.8744C12.1311 10.8744 12.1239 10.8746 12.1166 10.8749C12.1051 10.8753 12.0949 10.8675 12.0929 10.8561C11.9 9.7094 11.7138 8.16436 11.7118 8.15456C11.6909 8.05045 11.5897 7.983 11.4856 8.00376C11.3815 8.0246 11.314 8.12586 11.3348 8.22995C11.3364 8.23766 11.4533 9.4044 11.5975 10.2493C11.6013 10.2719 11.5727 10.2855 11.5577 10.2682C11.3526 10.0331 11.0914 9.76048 10.7784 9.4866C9.66979 8.51651 8.4384 8.00376 7.21743 8.00376C6.21123 8.00378 6 8.55433 6 9.01617C6 9.46325 6.11006 10.3512 6.31404 11.1161C6.58032 12.1147 6.93186 12.6434 7.3596 12.6903C7.3781 12.6924 7.3881 12.7143 7.37653 12.7289C7.12476 13.0463 6.82015 13.517 6.82015 13.9372C6.82015 14.5738 7.46268 15.369 8.06401 15.9009C8.84198 16.5891 9.67526 17 10.2931 17C10.7768 17 11.2988 16.6002 11.6894 15.9307C11.8668 15.6265 12.0096 15.4691 12.1152 15.1245C12.122 15.1025 12.1549 15.1025 12.1616 15.1245C12.2673 15.4691 12.41 15.6265 12.5875 15.9307C12.9781 16.6003 13.5001 17 13.9838 17C14.6016 17 15.4349 16.5891 16.2129 15.9009C16.8142 15.369 17.4567 14.5738 17.4567 13.9372C17.4567 13.517 17.1521 13.0463 16.9003 12.7289C16.8888 12.7143 16.8988 12.6924 16.9173 12.6903C17.345 12.6434 17.6966 12.1147 17.9629 11.1161ZM11.3573 15.737C11.0412 16.2789 10.6334 16.6156 10.2931 16.6156C9.77433 16.6156 9.01782 16.2314 8.31873 15.613C7.64194 15.0143 7.2046 14.3565 7.2046 13.9372C7.2046 13.5362 7.66646 12.9592 7.90765 12.7011C7.91189 12.6966 7.91766 12.6942 7.92387 12.6942H11.5136C11.526 12.6942 11.5361 12.7042 11.5361 12.7167V13.5791C11.5361 13.8373 11.6995 14.058 11.9283 14.1434C11.9375 14.1469 11.9437 14.156 11.9434 14.1659C11.9181 14.9975 11.7123 15.1284 11.3573 15.737ZM12.1385 13.7969C12.0183 13.7969 11.9206 13.6992 11.9206 13.5791V11.4767C11.9206 11.3566 12.0183 11.2588 12.1385 11.2588C12.2586 11.2588 12.3563 11.3566 12.3563 11.4767V13.5791C12.3563 13.6992 12.2586 13.7969 12.1385 13.7969ZM17.0723 13.9372C17.0723 14.3565 16.635 15.0143 15.9582 15.6129C15.2591 16.2314 14.5025 16.6156 13.9838 16.6156C13.6435 16.6156 13.2357 16.2789 12.9196 15.737C12.5646 15.1284 12.3588 14.9975 12.3335 14.1658C12.3332 14.156 12.3393 14.1468 12.3486 14.1434C12.5774 14.0579 12.7407 13.8373 12.7407 13.579V12.7166C12.7407 12.7042 12.7508 12.6941 12.7632 12.6941H16.3531C16.3593 12.6941 16.3651 12.6965 16.3693 12.701C16.6105 12.9588 17.0723 13.5351 17.0723 13.9372Z" fill="white"/>
</g>
<g id="Group_2">
<path id="Path" fill-rule="evenodd" clip-rule="evenodd" d="M4 15.5059V8.49394C4 7.78194 4.379 7.12394 4.994 6.76594L10.994 3.27394C11.616 2.91194 12.384 2.91194 13.006 3.27394L19.006 6.76594C19.621 7.12394 20 7.78194 20 8.49394V15.5069C20 16.2189 19.621 16.8769 19.006 17.2349L13.006 20.7269C12.384 21.0889 11.616 21.0889 10.994 20.7269L4.994 17.2349C4.379 16.8759 4 16.2179 4 15.5059Z" stroke="white" stroke-width="1.5" stroke-linecap="round" stroke-linejoin="round"/>
<path id="Path_2" d="M12 21V12" stroke="white" stroke-width="1.5" stroke-linecap="round" stroke-linejoin="round"/>
<path id="Path_3" d="M12 12L19.75 7.53003" stroke="white" stroke-width="1.5" stroke-linecap="round" stroke-linejoin="round"/>
<path id="Path_4" d="M4.25 7.53003L12 12" stroke="white" stroke-width="1.5" stroke-linecap="round" stroke-linejoin="round"/>
</g>
</g>
</svg>
