<svg width="19" height="9" viewBox="0 0 19 9" fill="none" xmlns="http://www.w3.org/2000/svg">
<g id="Group 2">
<g id="Group">
<path id="Vector" d="M9.6412 2.44372C9.69444 1.82658 9.65861 1.12744 9.59786 0.782949C9.54933 0.507728 9.41892 0.317623 9.21029 0.217933C9.0344 0.1339 8.80932 0.117635 8.52224 0.168256C7.58143 0.334145 6.70227 0.896543 5.97979 1.79467C5.77006 2.05538 5.60241 2.30761 5.47497 2.5204C5.46869 2.53089 5.45245 2.52659 5.45241 2.51436C5.45002 1.84203 5.38022 0.908172 5.38035 0.901959C5.38225 0.818908 5.31646 0.750057 5.23342 0.748162C5.1503 0.746302 5.08154 0.812054 5.07963 0.89509C5.07945 0.902883 5.14611 2.12316 5.15302 3.03351C5.15306 3.03969 5.14841 3.04478 5.14227 3.04553C5.135 3.04643 5.12772 3.04748 5.12041 3.04877C5.1131 3.05006 5.10589 3.05157 5.09875 3.05322C5.09273 3.0546 5.08663 3.05141 5.08456 3.0456C4.7797 2.18782 4.425 1.01832 4.42213 1.01102C4.39193 0.933632 4.30473 0.895419 4.22736 0.925559C4.14997 0.95576 4.11172 1.04296 4.14189 1.12033C4.14416 1.12612 4.39795 2.02755 4.62566 2.66013C4.6298 2.67164 4.61601 2.68124 4.60652 2.67352C4.414 2.51716 4.17019 2.33748 3.88393 2.16422C2.89788 1.56736 1.87939 1.33957 0.938583 1.50546C0.163271 1.64219 0.0753144 2.0951 0.138064 2.45097C0.198806 2.79546 0.40425 3.46467 0.665362 4.02641C1.01 4.76781 1.35657 5.12728 1.69612 5.09644C1.70601 5.09554 1.71331 5.10605 1.70855 5.11477C1.55639 5.39381 1.38085 5.80371 1.43862 6.13136C1.52511 6.62187 2.12824 7.14732 2.66386 7.47549C3.35683 7.90007 4.05471 8.10345 4.53075 8.01951C4.90349 7.95379 5.25136 7.57484 5.46137 7.00586C5.55912 6.74103 5.64973 6.59991 5.68241 6.306C5.68377 6.29378 5.70089 6.29076 5.70635 6.30178C5.83759 6.56678 5.971 6.6684 6.15342 6.88383C6.54537 7.34669 7.00187 7.58379 7.37461 7.51806C7.85064 7.43413 8.43687 7.00433 8.94284 6.36834C9.33391 5.87674 9.72096 5.17672 9.63447 4.68622C9.5767 4.35856 9.27154 4.03342 9.03312 3.82325C9.02567 3.81668 9.02894 3.80431 9.03854 3.80177C9.3682 3.71461 9.5709 3.25828 9.6412 2.44372ZM5.17916 6.90173C5.00922 7.36225 4.74074 7.67707 4.47852 7.7233C4.07883 7.79378 3.44371 7.60054 2.82101 7.219C2.21818 6.84964 1.79182 6.40222 1.73486 6.07915C1.68022 5.76929 1.95946 5.25989 2.10993 5.02915C2.11174 5.02638 2.11455 5.0246 2.11781 5.02402L4.89173 4.5349C4.89826 4.53375 4.90449 4.53811 4.90564 4.54464L5.02379 5.2147C5.05913 5.4151 5.21701 5.5636 5.40671 5.59697C5.41188 5.59788 5.41598 5.60216 5.41674 5.60735C5.51141 6.25521 5.37043 6.38346 5.17916 6.90173ZM5.51751 5.3007C5.42494 5.31702 5.33635 5.25499 5.32003 5.16243L5.03439 3.54247C5.01807 3.44991 5.0801 3.36132 5.17266 3.345C5.26523 3.32868 5.35382 3.39071 5.37014 3.48327L5.65578 5.10323C5.6721 5.19579 5.61007 5.28438 5.51751 5.3007ZM9.33826 4.73845C9.39523 5.06152 9.14765 5.62777 8.70746 6.18104C8.25281 6.75254 7.72209 7.15135 7.32239 7.22183C7.06018 7.26807 6.70021 7.06407 6.38301 6.68944C6.02602 6.26784 5.84968 6.19556 5.71703 5.55435C5.71597 5.5492 5.71836 5.54378 5.72291 5.54116C5.88977 5.44491 5.98732 5.25137 5.95199 5.05098L5.83384 4.38092C5.83269 4.37439 5.83705 4.36816 5.84358 4.36701L8.61758 3.87788C8.62084 3.8773 8.62408 3.87802 8.62673 3.88C8.84699 4.04507 9.28347 4.42772 9.33826 4.73845Z" fill="white"/>
</g>
<g id="Group_2">
<path id="Vector_2" d="M18.3346 4.09384C18.5957 3.53212 18.8012 2.86289 18.8619 2.5184C18.9104 2.24318 18.8529 2.01993 18.6909 1.8549C18.5544 1.71578 18.3485 1.62351 18.0614 1.57289C17.1206 1.407 16.1021 1.63479 15.116 2.23165C14.8297 2.40491 14.5859 2.58459 14.3934 2.74095C14.3839 2.74867 14.3701 2.73907 14.3743 2.72756C14.602 2.09496 14.8558 1.19355 14.858 1.18776C14.8882 1.11036 14.8499 1.02316 14.7726 0.992984C14.6951 0.962807 14.608 1.00108 14.5778 1.07845C14.575 1.08571 14.2202 2.2552 13.9154 3.113C13.9133 3.11883 13.9072 3.12202 13.9012 3.12063C13.894 3.11899 13.8868 3.11749 13.8795 3.1162C13.8722 3.11491 13.8649 3.11386 13.8576 3.11296C13.8515 3.11221 13.8469 3.10712 13.8469 3.10095C13.8538 2.19064 13.9205 0.970349 13.9203 0.962516C13.9184 0.879461 13.8495 0.813727 13.7665 0.815588C13.6834 0.817498 13.6177 0.886352 13.6196 0.969385C13.6197 0.975601 13.5499 1.90946 13.5475 2.58178C13.5475 2.59401 13.5312 2.59831 13.5249 2.58782C13.3975 2.37504 13.2299 2.12281 13.0201 1.86209C12.2977 0.963975 11.4185 0.401577 10.4777 0.235688C9.7024 0.0989972 9.46485 0.494512 9.4021 0.850381C9.34135 1.19487 9.30552 1.894 9.35876 2.51116C9.42904 3.32572 9.63176 3.78204 9.96138 3.8692C9.97098 3.87174 9.97425 3.8841 9.9668 3.89067C9.72838 4.10085 9.42323 4.42598 9.36545 4.75364C9.27897 5.24415 9.66601 5.94419 10.0571 6.43576C10.563 7.07175 11.1493 7.50155 11.6253 7.58549C11.9981 7.65121 12.4546 7.41409 12.8465 6.95126C13.0289 6.73583 13.1623 6.63421 13.2936 6.36921C13.299 6.35819 13.3162 6.36121 13.3175 6.37343C13.3502 6.66734 13.4408 6.80845 13.5386 7.07328C13.7486 7.64228 14.0964 8.02121 14.4692 8.08694C14.9452 8.17088 15.6431 7.9675 16.3361 7.54292C16.8717 7.21472 17.4748 6.68929 17.5613 6.19879C17.6191 5.87113 17.4435 5.46124 17.2914 5.18219C17.2866 5.17347 17.2939 5.16297 17.3038 5.16387C17.6434 5.19471 17.9899 4.83522 18.3346 4.09384ZM12.6169 6.75688C12.2997 7.13152 11.9398 7.33551 11.6775 7.28928C11.2779 7.2188 10.7471 6.81999 10.2925 6.24849C9.85233 5.69522 9.60471 5.12897 9.66168 4.80589C9.71632 4.49603 10.1529 4.11286 10.3733 3.9475C10.3759 3.94551 10.3791 3.9448 10.3824 3.94537L13.1563 4.43449C13.1629 4.43564 13.1672 4.44187 13.1661 4.4484L13.0479 5.11846C13.0126 5.31885 13.1102 5.5124 13.277 5.60864C13.2816 5.61126 13.2839 5.61668 13.2829 5.62183C13.1503 6.26299 12.9739 6.33529 12.6169 6.75688ZM13.4825 5.36813C13.3899 5.35181 13.3279 5.26322 13.3442 5.17066L13.6298 3.5507C13.6461 3.45814 13.7347 3.39611 13.8273 3.41243C13.9199 3.42875 13.9819 3.51734 13.9656 3.6099L13.6799 5.22986C13.6636 5.32242 13.575 5.38445 13.4825 5.36813ZM17.2651 6.14656C17.2081 6.46963 16.7818 6.91706 16.1789 7.28641C15.5562 7.66795 14.9211 7.86119 14.5214 7.79071C14.2592 7.74448 13.9907 7.42966 13.8208 6.96914C13.6295 6.45087 13.4885 6.32264 13.5832 5.67472C13.584 5.66953 13.5881 5.66525 13.5932 5.66434C13.7829 5.63097 13.9408 5.48247 13.9761 5.28207L14.0943 4.61201C14.0954 4.60548 14.1017 4.60112 14.1082 4.60227L16.8822 5.09141C16.8855 5.09198 16.8883 5.09376 16.8901 5.09653C17.0406 5.32697 17.3199 5.83584 17.2651 6.14656Z" fill="white"/>
</g>
</g>
</svg>
