<svg width="19" height="8" viewBox="0 0 19 8" fill="none" xmlns="http://www.w3.org/2000/svg">
<path d="M15.4316 7.40496C14.9167 7.40496 14.4301 7.27096 13.9717 7.00298C13.5204 6.73499 13.1607 6.37532 12.8927 5.92397C12.6247 5.46557 12.4907 4.9719 12.4907 4.44298V2.96198H17.452V2.97256C17.8611 2.97256 18.2102 3.11714 18.4993 3.40628C18.7885 3.69543 18.933 4.04099 18.933 4.44298H13.9611C13.9611 4.83791 14.1022 5.19405 14.3843 5.5114C14.6946 5.78645 15.0472 5.92397 15.4421 5.92397H15.9711V5.93455H17.4309H17.452H18.933L17.452 7.40496H17.4309H15.4316ZM13.9717 2.96198V0H17.4626C17.8646 0 18.2102 0.144573 18.4993 0.433719C18.7885 0.722865 18.933 1.07196 18.933 1.48099H13.9717V0L12.4907 1.48099V2.96198H13.9717ZM18.933 5.93455V4.44298H17.452V5.93455H18.933Z" fill="white"/>
<path d="M9.18619 7.40496C8.67137 7.40496 8.18476 7.27096 7.72635 7.00298C7.275 6.73499 6.91533 6.37532 6.64734 5.92397C6.37936 5.46557 6.24536 4.9719 6.24536 4.44298V2.96198H11.2067V2.97256C11.6157 2.97256 11.9648 3.11714 12.254 3.40628C12.5431 3.69543 12.6877 4.04099 12.6877 4.44298H7.71577C7.71577 4.83791 7.85682 5.19405 8.13892 5.5114C8.44922 5.78645 8.80184 5.92397 9.19677 5.92397H9.72569V5.93455H11.1855H11.2067H12.6877L11.2067 7.40496H11.1855H9.18619ZM7.72635 2.96198V0H11.2173C11.6192 0 11.9648 0.144573 12.254 0.433719C12.5431 0.722865 12.6877 1.07196 12.6877 1.48099H7.72635V0L6.24536 1.48099V2.96198H7.72635ZM12.6877 5.93455V4.44298H11.2067V5.93455H12.6877Z" fill="white"/>
<path d="M2.94083 7.40496C2.42601 7.40496 1.93939 7.27096 1.48099 7.00298C1.02964 6.73499 0.669972 6.37532 0.401983 5.92397C0.133994 5.46557 0 4.9719 0 4.44298V2.96198H4.96132V2.97256C5.37036 2.97256 5.71945 3.11714 6.00859 3.40628C6.29774 3.69543 6.44231 4.04099 6.44231 4.44298H1.47041C1.47041 4.83791 1.61146 5.19405 1.89355 5.5114C2.20386 5.78645 2.55647 5.92397 2.95141 5.92397H3.48033V5.93455H4.94017H4.96132H6.44231L4.96132 7.40496H4.94017H2.94083ZM1.48099 2.96198V0H4.9719C5.37388 0 5.71945 0.144573 6.00859 0.433719C6.29774 0.722865 6.44231 1.07196 6.44231 1.48099H1.48099V0L0 1.48099V2.96198H1.48099ZM6.44231 5.93455V4.44298H4.96132V5.93455H6.44231Z" fill="white"/>
</svg>
