<svg width="20" height="20" viewBox="0 0 20 20" fill="none" xmlns="http://www.w3.org/2000/svg">
<g id="Group">
<path id="Path" fill-rule="evenodd" clip-rule="evenodd" d="M6.14383 2.3989C12.2944 2.80742 17.1928 7.70573 17.6013 13.8563C17.6223 14.3273 17.2925 14.7414 16.8288 14.8263L3.73596 17.385C3.42394 17.446 3.10203 17.3478 2.87723 17.1229C2.65242 16.8981 2.55419 16.5762 2.61516 16.2642L5.17385 3.17135C5.25875 2.70767 5.67291 2.37785 6.14383 2.3989Z" stroke="white" stroke-width="1.25" stroke-linecap="round" stroke-linejoin="round"/>
<path id="Path_2" d="M14.5174 15.2223C14.7079 12.5854 13.7431 9.99586 11.8737 8.12643C10.0043 6.257 7.41473 5.2922 4.77783 5.48268" stroke="white" stroke-width="1.25" stroke-linecap="round" stroke-linejoin="round"/>
<path id="Path_3" d="M10.6443 12.213C10.6442 12.328 10.5508 12.4212 10.4358 12.4212C10.3208 12.4211 10.2275 12.3279 10.2275 12.2128C10.2274 12.0978 10.3206 12.0045 10.4356 12.0043C10.491 12.0042 10.5441 12.0262 10.5833 12.0654C10.6224 12.1045 10.6444 12.1576 10.6443 12.213" stroke="white" stroke-width="1.25" stroke-linecap="round" stroke-linejoin="round"/>
<path id="Path_4" d="M6.67189 13.5372C6.67175 13.6523 6.57843 13.7454 6.46339 13.7454C6.34835 13.7453 6.2551 13.6521 6.25505 13.537C6.255 13.422 6.34817 13.3287 6.4632 13.3285C6.51857 13.3285 6.57169 13.3504 6.61084 13.3896C6.65 13.4287 6.67196 13.4818 6.67189 13.5372" stroke="white" stroke-width="1.25" stroke-linecap="round" stroke-linejoin="round"/>
<path id="Path_5" d="M7.99587 9.56505C7.99572 9.68009 7.9024 9.77326 7.78736 9.77321C7.67232 9.77316 7.57907 9.67992 7.57903 9.56488C7.57898 9.44984 7.67215 9.35651 7.78719 9.35637C7.84255 9.3563 7.89567 9.37826 7.93482 9.41741C7.97397 9.45656 7.99593 9.50968 7.99587 9.56505" stroke="white" stroke-width="1.25" stroke-linecap="round" stroke-linejoin="round"/>
</g>
</svg>
