<svg width="12" height="14" viewBox="0 0 12 14" fill="none" xmlns="http://www.w3.org/2000/svg">
<path id="9" d="M6.52217 0.103516C7.48112 0.103516 8.38752 0.353105 9.24138 0.852284C10.0821 1.35146 10.7521 2.02141 11.2512 2.86214C11.7504 3.716 12 4.63554 12 5.62076V8.37938H2.75862V8.35967C1.99672 8.35967 1.34647 8.09038 0.807882 7.55179C0.269294 7.0132 0 6.36953 0 5.62076H9.26108C9.26108 4.88513 8.99836 4.22174 8.47291 3.63061C7.90805 3.11829 7.25123 2.86214 6.50246 2.86214H5.51724V2.84243H2.79803H2.75862H0L2.75862 0.103516H2.79803H6.52217ZM9.24138 11.138V13.8966H2.73892C1.99015 13.8966 1.34647 13.6273 0.807882 13.0887C0.269294 12.5501 0 11.8999 0 11.138H9.24138ZM2.75862 5.62076V2.84243H0V5.62076H2.75862ZM12 11.138V8.37938H9.24138V13.8966L12 11.138Z" fill="white"/>
</svg>
