<svg width="22" height="8" viewBox="0 0 22 8" fill="none" xmlns="http://www.w3.org/2000/svg">
<g id="666">
<path id="Vector" d="M17.4442 8C16.888 8 16.3623 7.85524 15.8671 7.56571C15.3795 7.27619 14.9909 6.88762 14.7014 6.4C14.4119 5.90476 14.2671 5.37143 14.2671 4.8V3.2H19.6271V3.21143C20.069 3.21143 20.4461 3.36762 20.7585 3.68C21.0709 3.99238 21.2271 4.36572 21.2271 4.8H15.8557C15.8557 5.22667 16.008 5.61143 16.3128 5.95429C16.648 6.25143 17.029 6.4 17.4557 6.4H18.0271V6.41143H19.6042H19.6271H21.2271L19.6271 8H19.6042H17.4442ZM15.8671 3.2V0H19.6385C20.0728 0 20.4461 0.15619 20.7585 0.468571C21.0709 0.780952 21.2271 1.1581 21.2271 1.6H15.8671V0L14.2671 1.6V3.2H15.8671ZM21.2271 6.41143V4.8H19.6271V6.41143H21.2271Z" fill="white"/>
<path id="Vector_2" d="M10.6972 8C10.141 8 9.61526 7.85524 9.12002 7.56571C8.6324 7.27619 8.24383 6.88762 7.9543 6.4C7.66478 5.90476 7.52002 5.37143 7.52002 4.8V3.2H12.88V3.21143C13.3219 3.21143 13.6991 3.36762 14.0114 3.68C14.3238 3.99238 14.48 4.36572 14.48 4.8H9.10859C9.10859 5.22667 9.26097 5.61143 9.56573 5.95429C9.90097 6.25143 10.2819 6.4 10.7086 6.4H11.28V6.41143H12.8572H12.88H14.48L12.88 8H12.8572H10.6972ZM9.12002 3.2V0H12.8914C13.3257 0 13.6991 0.15619 14.0114 0.468571C14.3238 0.780952 14.48 1.1581 14.48 1.6H9.12002V0L7.52002 1.6V3.2H9.12002ZM14.48 6.41143V4.8H12.88V6.41143H14.48Z" fill="white"/>
<path id="Vector_3" d="M3.94985 8C3.39366 8 2.86794 7.85524 2.37271 7.56571C1.88509 7.27619 1.49651 6.88762 1.20699 6.4C0.917467 5.90476 0.772705 5.37143 0.772705 4.8V3.2H6.1327V3.21143C6.57461 3.21143 6.95175 3.36762 7.26413 3.68C7.57651 3.99238 7.7327 4.36572 7.7327 4.8H2.36128C2.36128 5.22667 2.51366 5.61143 2.81842 5.95429C3.15366 6.25143 3.53461 6.4 3.96128 6.4H4.5327V6.41143H6.10985H6.1327H7.7327L6.1327 8H6.10985H3.94985ZM2.37271 3.2V0H6.14413C6.57842 0 6.95175 0.15619 7.26413 0.468571C7.57651 0.780952 7.7327 1.1581 7.7327 1.6H2.37271V0L0.772705 1.6V3.2H2.37271ZM7.7327 6.41143V4.8H6.1327V6.41143H7.7327Z" fill="white"/>
</g>
</svg>
