<svg width="18" height="14" viewBox="0 0 18 14" fill="none" xmlns="http://www.w3.org/2000/svg">
<path id="&#206;&#177;" d="M17.139 13.5821C16.5165 13.7475 15.959 13.8302 15.4666 13.8302C13.8407 13.8302 12.7444 12.681 12.1776 10.3825H12.108C10.7979 12.7942 8.963 14 6.60312 14C4.85644 14 3.45816 13.3775 2.4083 12.1325C1.35843 10.8787 0.833496 9.29851 0.833496 7.39179C0.833496 5.21517 1.43276 3.43905 2.63128 2.06343C3.8298 0.687811 5.45105 0 7.49504 0C8.60066 0 9.58549 0.287313 10.4495 0.86194C11.3136 1.43657 11.9686 2.24627 12.4146 3.29105H12.4703L13.5295 0.313433H16.8463L13.9894 6.97388C14.3052 8.62811 14.6397 9.7556 14.9928 10.3563C15.3458 10.9484 15.8057 11.2444 16.3725 11.2444C16.6791 11.2444 16.9438 11.2009 17.1668 11.1138L17.139 13.5821ZM11.3554 6.8694C11.0581 5.42413 10.5982 4.31841 9.9757 3.55224C9.36251 2.77736 8.62388 2.38993 7.75983 2.38993C6.64493 2.38993 5.75301 2.85572 5.08406 3.78731C4.42441 4.7102 4.09459 5.85075 4.09459 7.20896C4.09459 8.43657 4.3826 9.46393 4.95864 10.291C5.53467 11.1182 6.30581 11.5317 7.27206 11.5317C8.08966 11.5317 8.83293 11.1791 9.50187 10.4739C10.1801 9.76866 10.7422 8.73259 11.1882 7.36567L11.3554 6.8694Z" fill="white"/>
</svg>
