<svg width="22" height="8" viewBox="0 0 22 8" fill="none" xmlns="http://www.w3.org/2000/svg">
<g id="286">
<path id="Vector" d="M18.13 7.99988C17.5738 7.99988 17.0481 7.85512 16.5529 7.5656C16.0652 7.27608 15.6767 6.88752 15.3872 6.39991C15.0976 5.90468 14.9529 5.37135 14.9529 4.79993V3.19995H20.3128V3.21138C20.7547 3.21138 21.1318 3.36757 21.4442 3.67995C21.7566 3.99232 21.9128 4.36565 21.9128 4.79993H16.5414C16.5414 5.22659 16.6938 5.61135 16.9986 5.9542C17.3338 6.25134 17.7147 6.39991 18.1414 6.39991H18.7128V6.41133H20.2899H20.3128H21.9128L20.3128 7.99988H20.2899H18.13ZM16.5529 3.19995V0H20.3242C20.7585 0 21.1318 0.156188 21.4442 0.468565C21.7566 0.780941 21.9128 1.15808 21.9128 1.59998H16.5529V0L14.9529 1.59998V3.19995H16.5529ZM21.9128 6.41133V4.79993H20.3128V6.41133H21.9128Z" fill="white"/>
<path id="Vector_2" d="M12.8916 3.18852C12.8916 2.74663 12.7316 2.36568 12.4116 2.04568C12.1144 1.74855 11.7449 1.59998 11.303 1.59998H10.7087C10.2668 1.59998 9.89733 1.74855 9.60019 2.04568C9.28019 2.36568 9.12019 2.74663 9.12019 3.18852H7.52022C7.52022 2.63234 7.66879 2.10283 7.96593 1.59998C8.2783 1.09713 8.67068 0.704751 9.14305 0.422851C9.63828 0.14095 10.1602 0 10.7087 0H11.303C11.8516 0 12.3735 0.14095 12.8687 0.422851C13.3411 0.704751 13.7335 1.09713 14.0458 1.59998C14.343 2.10283 14.4915 2.63234 14.4915 3.18852H12.8916ZM9.10877 4.79993C9.10877 5.24183 9.26876 5.62277 9.58876 5.94277C9.89352 6.24753 10.2668 6.39991 10.7087 6.39991H11.303C11.7449 6.39991 12.1144 6.25134 12.4116 5.9542C12.7316 5.6342 12.8916 5.25326 12.8916 4.81136H14.4915C14.4915 5.36754 14.343 5.89706 14.0458 6.39991C13.7335 6.90276 13.3411 7.29513 12.8687 7.57703C12.3735 7.85893 11.8516 7.99988 11.303 7.99988H10.7087C10.1678 7.99988 9.64209 7.85512 9.13162 7.5656C8.65925 7.2837 8.26687 6.89133 7.9545 6.38848C7.65736 5.88563 7.50879 5.35611 7.50879 4.79993H9.10877ZM12.8916 4.79993V3.18852H9.10877V4.79993H12.8916Z" fill="white"/>
<path id="Vector_3" d="M3.86996 0C4.43376 0 4.96328 0.144759 5.45851 0.434279C5.94612 0.723799 6.33469 1.11237 6.6242 1.59998C6.91372 2.09521 7.05848 2.62472 7.05848 3.18852V3.88566L2.88712 6.39991H7.05848V7.99988H0.0871582V6.39991L5.45851 3.18852C5.45851 2.75425 5.30994 2.3733 5.0128 2.04568C4.68519 1.74855 4.30424 1.59998 3.86996 1.59998H3.27568C2.84902 1.59998 2.46808 1.74855 2.13284 2.04568C1.8357 2.3733 1.68713 2.75425 1.68713 3.18852H0.0871582C0.0871582 2.62472 0.231918 2.09521 0.521438 1.59998C0.810957 1.11237 1.19952 0.723799 1.68713 0.434279C2.18237 0.144759 2.71188 0 3.27568 0H3.86996Z" fill="white"/>
</g>
</svg>
