<svg width="18" height="12" viewBox="0 0 18 12" fill="none" xmlns="http://www.w3.org/2000/svg">
<g id="Group">
<path id="Vector" d="M16.7659 4.15486C17.0379 3.13492 17.1846 1.951 17.1846 1.3549C17.1846 0.878657 17.022 0.521028 16.7014 0.291987C16.4311 0.0989133 16.0582 0.00501399 15.5614 0.00501399C13.9334 0.00501399 12.2916 0.688684 10.8133 1.98214C10.3842 2.35762 10.0282 2.7313 9.75139 3.05069C9.73773 3.06644 9.71176 3.05442 9.7153 3.03388C9.91025 1.90485 10.0694 0.316984 10.0715 0.306597C10.0993 0.167779 10.0092 0.0327649 9.87045 0.00501399C9.7315 -0.022705 9.59665 0.0672935 9.56886 0.20608C9.56625 0.219105 9.31702 2.28672 9.05924 3.81653C9.05749 3.82692 9.04816 3.83408 9.03764 3.83353C9.02518 3.83288 9.01265 3.8325 9 3.8325C8.98735 3.8325 8.9748 3.8329 8.96233 3.83355C8.95182 3.83409 8.94252 3.82693 8.94077 3.81656C8.68299 2.28682 8.43378 0.219169 8.43114 0.20608C8.40336 0.0672616 8.26831 -0.022673 8.12956 0.00501399C7.99074 0.0327969 7.90074 0.167811 7.92849 0.306597C7.93059 0.316984 8.08975 1.90487 8.2847 3.03387C8.28825 3.05441 8.26227 3.06643 8.24861 3.05068C7.9718 2.73129 7.61579 2.35761 7.18667 1.98214C5.70848 0.688684 4.06664 0.00501399 2.43867 0.00501399C1.09706 0.00504596 0.81543 0.739103 0.81543 1.3549C0.81543 1.951 0.962177 3.13489 1.23416 4.15486C1.59314 5.50109 2.06838 6.20691 2.64735 6.25563C2.66421 6.25705 2.67336 6.27684 2.6628 6.29007C2.32487 6.71334 1.90897 7.34929 1.90897 7.91627C1.90897 8.76504 2.76567 9.82532 3.56744 10.5346C4.60474 11.4522 5.71577 12 6.53951 12C7.18449 12 7.88044 11.467 8.40125 10.5742C8.64366 10.1587 8.83748 9.94872 8.97929 9.46515C8.98519 9.44504 9.01482 9.44504 9.02071 9.46515C9.16255 9.94872 9.35638 10.1587 9.59876 10.5742C10.1196 11.467 10.8155 12 11.4605 12C12.2842 12 13.3952 11.4522 14.4326 10.5346C15.2343 9.82529 16.091 8.76504 16.091 7.91627C16.091 7.34929 15.6751 6.71334 15.3372 6.29007C15.3266 6.27684 15.3358 6.25705 15.3527 6.25563C15.9317 6.20691 16.4069 5.50106 16.7659 4.15486ZM7.95845 10.316C7.53697 11.0386 6.99324 11.4874 6.53951 11.4874C5.84787 11.4874 4.83919 10.9752 3.90707 10.1506C3.00468 9.35238 2.42156 8.47534 2.42156 7.9163C2.42156 7.38012 3.04093 6.60787 3.36173 6.26516C3.36559 6.26104 3.37082 6.25888 3.37647 6.25888H8.17646C8.18776 6.25888 8.19692 6.26804 8.19692 6.27935V7.43881C8.19692 7.78558 8.41794 8.08151 8.72642 8.19365C8.73483 8.19671 8.74045 8.2051 8.74018 8.21405C8.70735 9.3293 8.4328 9.50282 7.95845 10.316ZM9.00003 7.72924C8.83986 7.72924 8.70954 7.59892 8.70954 7.43875V4.63558C8.70954 4.47541 8.83986 4.34509 9.00003 4.34509C9.16021 4.34509 9.29052 4.47541 9.29052 4.63558V7.43875C9.29052 7.59892 9.16021 7.72924 9.00003 7.72924ZM15.5785 7.91627C15.5785 8.47531 14.9954 9.35234 14.093 10.1506C13.1609 10.9752 12.1522 11.4874 11.4605 11.4874C11.0068 11.4874 10.4631 11.0385 10.0416 10.316C9.56723 9.50278 9.29268 9.3293 9.25982 8.21395C9.25956 8.20501 9.26518 8.19662 9.27359 8.19356C9.5821 8.08141 9.80308 7.78548 9.80308 7.43871V6.27925C9.80308 6.26795 9.81225 6.25879 9.82355 6.25879H14.6237C14.6293 6.25879 14.6345 6.26094 14.6384 6.26506C14.9592 6.60725 15.5785 7.37859 15.5785 7.91627Z" fill="white"/>
</g>
</svg>
