<svg width="20" height="7" viewBox="0 0 20 7" fill="none" xmlns="http://www.w3.org/2000/svg">
<g id="450x">
<path id="Vector" d="M19.977 5.264V6.33952H18.4251L16.7735 4.67246V4.18079H17.8336C17.8336 4.58027 17.7363 4.94134 17.5417 5.264L17.4725 5.37155C17.283 5.64811 17.0423 5.87346 16.7504 6.04759C16.438 6.24221 16.0846 6.33952 15.6903 6.33952H14.5994V5.264H15.6903C15.9873 5.264 16.2383 5.15901 16.4431 4.94902C16.6633 4.73904 16.7735 4.48296 16.7735 4.18079V3.10527H17.8336V4.18079L18.9014 5.264H19.977ZM15.6749 2.03744H14.5994V0.961914H15.6749V2.03744ZM15.6749 0.961914V2.03744L16.7658 3.09759V3.10527H17.8336C17.8336 2.81335 17.9386 2.56239 18.1486 2.35241C18.3637 2.1373 18.6172 2.02975 18.9091 2.02975H20V0.961914H18.9091C18.5148 0.961914 18.1614 1.05922 17.849 1.25384C17.557 1.42797 17.3189 1.65076 17.1345 1.9222L16.1512 0.961914H15.6749Z" fill="white"/>
<path id="Vector_2" d="M11.7463 6.33952C11.3673 6.33952 11.019 6.24221 10.7015 6.04759C10.3737 5.86834 10.1099 5.60458 9.9102 5.25631C9.84362 5.14876 9.80008 5.06426 9.7796 5.0028L10.4403 4.33444L10.5786 4.19616H9.60291V3.10527C9.60291 2.7314 9.70277 2.37546 9.90251 2.03744C10.1125 1.69941 10.3763 1.43566 10.6938 1.24616C11.0267 1.05666 11.3775 0.961914 11.7463 0.961914H12.1457C12.5145 0.961914 12.8653 1.05666 13.1982 1.24616C13.5158 1.43566 13.7795 1.69941 13.9895 2.03744C14.051 2.13987 14.0894 2.20645 14.1047 2.23717L13.7974 2.53678L13.2136 3.11296H14.2891V4.19616C14.2891 4.56491 14.1944 4.91573 14.0049 5.24863C13.8154 5.56617 13.5516 5.82993 13.2136 6.03991C12.8756 6.23965 12.5222 6.33952 12.1534 6.33952H11.7463ZM12.6374 2.15267C12.494 2.07585 12.3301 2.03744 12.1457 2.03744H11.7463C11.4492 2.03744 11.2008 2.1373 11.0011 2.33704C10.786 2.55215 10.6784 2.80822 10.6784 3.10527V4.09629L12.6374 2.15267ZM11.1931 5.11803C11.3519 5.21534 11.5363 5.264 11.7463 5.264H12.1457C12.4428 5.264 12.6989 5.15644 12.914 4.94134C13.1137 4.7416 13.2136 4.49321 13.2136 4.19616V3.11296L11.1931 5.11803Z" fill="white"/>
<path id="Vector_3" d="M4.99646 5.264H7.15518C7.44711 5.264 7.70319 5.16413 7.92341 4.96439C8.12827 4.73392 8.2307 4.47528 8.2307 4.18848H4.99646V3.11296H8.22302V3.12064L9.29854 4.18848C9.29854 4.57259 9.20123 4.9311 9.00662 5.264C8.812 5.59177 8.5508 5.85297 8.22302 6.04759C7.89012 6.24221 7.53418 6.33952 7.15518 6.33952H4.99646V5.264ZM6.07198 3.11296V0.961914H8.22302C8.52007 0.961914 8.77359 1.06691 8.98357 1.27689C9.19355 1.48687 9.29854 1.74039 9.29854 2.03744H6.07198V0.961914L4.99646 2.03744V3.11296H6.07198Z" fill="white"/>
<path id="Vector_4" d="M2.53516 6.33939V5.26387H1.09089H1.07552V4.19603H2.53516V3.12051H3.61068V4.19603H4.6862V5.26387H3.61068V6.33939H2.53516ZM1.07552 5.26387V3.58913L3.31107 1.40736V0.954102H2.23555L0.0153646 3.11282H0V4.19603L1.07552 5.26387ZM0.453255 4.19603L1.07552 3.58913V3.11282H0.0153646L0.00768229 3.12051V4.19603H0.453255Z" fill="white"/>
</g>
</svg>
