<svg width="24" height="24" viewBox="0 0 24 24" fill="none" xmlns="http://www.w3.org/2000/svg">
<path d="M2.99609 13.0004L4.29179 11.7047C4.74413 11.2523 5.35764 10.9982 5.99734 10.9982C6.63704 10.9982 7.25055 11.2523 7.70288 11.7047L11.9998 16.0016M7.00076 21.0037L13.2986 14.7059C14.2405 13.764 15.7677 13.764 16.7096 14.7059L20.6504 18.6467M21.0036 17.002C21.0036 19.2121 19.212 21.0037 17.0019 21.0037H6.99776C4.7877 21.0037 2.99609 19.2121 2.99609 17.002V6.99788C2.99609 4.78782 4.7877 2.99622 6.99776 2.99622H17.0019C19.212 2.99622 21.0036 4.78782 21.0036 6.99788V17.002Z" stroke="white" stroke-width="1.8" stroke-linecap="round" stroke-linejoin="round"/>
</svg>
