<svg width="25" height="24" viewBox="0 0 25 24" fill="none" xmlns="http://www.w3.org/2000/svg">
<path d="M14.7568 4.02005C16.1168 5.38005 16.1168 7.60005 14.7568 8.96005C13.3868 10.32 11.1668 10.32 9.80681 8.96005C8.43681 7.59005 8.43681 5.37005 9.80581 4.01005C11.1658 2.64005 13.3858 2.64005 14.7458 4.00905M17.8168 11.96C17.8268 11.97 17.8268 12 17.8168 12.02C17.7968 12.03 17.7668 12.03 17.7468 12.02C17.7268 12 17.7268 11.97 17.7468 11.95C17.7568 11.93 17.7868 11.93 17.8068 11.95M15.7668 6.85905C16.0868 6.76905 16.3968 6.64905 16.6868 6.46905C17.1468 6.16905 17.6868 5.99905 18.2768 5.99905H19.2768V8.54905C19.9948 9.18905 20.5568 9.99905 20.8968 10.929H21.7668C22.3168 10.929 22.7668 11.369 22.7668 11.929V14.989C22.7668 15.539 22.3168 15.989 21.7668 15.989H20.4468C19.9168 16.889 19.1568 17.649 18.2578 18.179V19.979C18.2578 20.529 17.8078 20.979 17.2578 20.979H15.2578C14.6978 20.979 14.2578 20.529 14.2578 19.979V18.979H10.7578V19.839C10.7578 20.389 10.3078 20.839 9.75781 20.839H7.75781C7.19781 20.839 6.75781 20.389 6.75781 19.839V17.429C5.52781 16.329 4.75781 14.739 4.75781 12.959C4.75781 10.309 6.47581 8.06805 8.84781 7.26905M3.06681 10C2.59681 10.27 2.27881 10.77 2.27881 11.35C2.27881 12.22 2.97881 12.927 3.84881 12.927H4.77181M9.28681 10H15.2868" stroke="white" stroke-width="1.8" stroke-linecap="round" stroke-linejoin="round"/>
</svg>
