<svg width="25" height="24" viewBox="0 0 25 24" fill="none" xmlns="http://www.w3.org/2000/svg">
<path fill-rule="evenodd" clip-rule="evenodd" d="M2.88672 12C2.88672 6.52233 7.31925 2.09998 12.7867 2.09998C18.2548 2.09998 22.6867 6.53192 22.6867 12C22.6867 17.468 18.2548 21.9 12.7867 21.9C7.30908 21.9 2.88672 17.4674 2.88672 12ZM13.6866 8C13.6866 7.50294 13.2837 7.1 12.7866 7.1C12.2896 7.1 11.8866 7.50294 11.8866 8V11.1H8.78662C8.28956 11.1 7.88662 11.5029 7.88662 12C7.88662 12.4971 8.28956 12.9 8.78662 12.9H11.8866V16C11.8866 16.4971 12.2896 16.9 12.7866 16.9C13.2837 16.9 13.6866 16.4971 13.6866 16V12.9H16.7866C17.2837 12.9 17.6866 12.4971 17.6866 12C17.6866 11.5029 17.2837 11.1 16.7866 11.1H13.6866V8Z" fill="white"/>
</svg>
