<svg width="16" height="16" viewBox="0 0 16 16" fill="none"
    xmlns="http://www.w3.org/2000/svg">
    <path d="M2 3.99935H10.6667" stroke="white" stroke-width="1.3" stroke-linecap="round" stroke-linejoin="round"/>
    <path fill-rule="evenodd" clip-rule="evenodd" d="M12.6663 6.66634H8.66634C7.92967 6.66634 7.33301 6.06967 7.33301 5.33301V2.66634C7.33301 1.92967 7.92967 1.33301 8.66634 1.33301H12.6663C13.403 1.33301 13.9997 1.92967 13.9997 2.66634V5.33301C13.9997 6.06967 13.403 6.66634 12.6663 6.66634Z" stroke="white" stroke-width="1.3" stroke-linecap="round" stroke-linejoin="round"/>
    <path d="M13.9997 11.9993H5.33301" stroke="white" stroke-width="1.3" stroke-linecap="round" stroke-linejoin="round"/>
    <path d="M12.667 13.3327L14.0003 11.9993L12.667 10.666" stroke="white" stroke-width="1.3" stroke-linecap="round" stroke-linejoin="round"/>
    <path fill-rule="evenodd" clip-rule="evenodd" d="M3.33333 9.33301H7.33333C8.07 9.33301 8.66667 9.92967 8.66667 10.6663V13.333C8.66667 14.0697 8.07 14.6663 7.33333 14.6663H3.33333C2.59667 14.6663 2 14.0697 2 13.333V10.6663C2 9.92967 2.59667 9.33301 3.33333 9.33301Z" stroke="white" stroke-width="1.3" stroke-linecap="round" stroke-linejoin="round"/>
    <path d="M3.33333 2.66602L2 3.99935L3.33333 5.33268" stroke="white" stroke-width="1.3" stroke-linecap="round" stroke-linejoin="round"/>
</svg>
