<svg width="16" height="16" viewBox="0 0 16 16" fill="none"
    xmlns="http://www.w3.org/2000/svg">
    <path d="M7.8623 6.13743L10.1384 3.86133" stroke="white" stroke-width="1.3" stroke-linecap="round" stroke-linejoin="round"/>
    <path d="M7.71693 3.7698C7.71704 3.73945 7.7417 3.71492 7.77205 3.71497C7.8024 3.71503 7.82697 3.73965 7.82697 3.77C7.82697 3.80034 7.8024 3.82496 7.77205 3.82502C7.7417 3.82507 7.71704 3.80054 7.71693 3.7702V3.7698" stroke="white" stroke-width="1.3" stroke-linecap="round" stroke-linejoin="round"/>
    <path d="M5.33301 4.66578V3.53197C5.33301 2.31644 6.31839 1.33105 7.53392 1.33105H10.4685C11.684 1.33105 12.6694 2.31644 12.6694 3.53197V6.46653C12.6694 7.68206 11.684 8.66744 10.4685 8.66744H10.0016" stroke="white" stroke-width="1.3" stroke-linecap="round" stroke-linejoin="round"/>
    <path d="M10.285 6.2282C10.2849 6.25855 10.2602 6.28308 10.2299 6.28303C10.1995 6.28297 10.1749 6.25835 10.1749 6.228C10.1749 6.19765 10.1995 6.17304 10.2299 6.17298C10.2602 6.17293 10.2849 6.19745 10.285 6.2278V6.2282" stroke="white" stroke-width="1.3" stroke-linecap="round" stroke-linejoin="round"/>
    <path d="M12.6694 10.668V14.0027" stroke="white" stroke-width="1.3" stroke-linecap="round" stroke-linejoin="round"/>
    <path d="M11.335 12.0019L12.6688 10.668" stroke="white" stroke-width="1.3" stroke-linecap="round" stroke-linejoin="round"/>
    <path d="M14.0028 12.0019L12.6689 10.668" stroke="white" stroke-width="1.3" stroke-linecap="round" stroke-linejoin="round"/>
    <path d="M1.99805 8.40039V12.9356C1.99881 13.5248 3.19245 14.0027 4.66582 14.0027C6.1392 14.0027 7.33284 13.5248 7.3336 12.9356V8.40039" stroke="white" stroke-width="1.3" stroke-linecap="round" stroke-linejoin="round"/>
    <path d="M7.33284 8.40012C7.33284 8.98932 6.13844 9.46723 4.66506 9.46723C3.19169 9.46723 1.99805 8.98932 1.99805 8.40012C1.99805 7.81016 3.19321 7.33301 4.66582 7.33301C6.13844 7.33301 7.33284 7.81092 7.3336 8.40012" stroke="white" stroke-width="1.3" stroke-linecap="round" stroke-linejoin="round"/>
    <path d="M1.99805 10.668C1.99805 11.2572 3.19169 11.7351 4.66506 11.7351C6.13844 11.7351 7.33284 11.2572 7.33284 10.668" stroke="white" stroke-width="1.3" stroke-linecap="round" stroke-linejoin="round"/>
</svg>
