<svg width="25" height="24" viewBox="0 0 25 24" fill="none" xmlns="http://www.w3.org/2000/svg">
<path d="M10.4944 12C9.92133 12 9.4535 12.4679 9.4535 13.041C9.4535 13.6141 9.92133 14.0819 10.4944 14.0819C11.0675 14.0819 11.5354 13.6141 11.5354 13.041C11.5354 12.4679 11.0675 12 10.4944 12Z" fill="white"/>
<path d="M12.7985 16.5497C13.1962 16.5497 14.5529 16.503 15.2664 15.7895C15.3716 15.6842 15.3716 15.5205 15.2898 15.4035C15.1845 15.2983 15.009 15.2983 14.9038 15.4035C14.4476 15.848 13.5003 16.0117 12.8102 16.0117C12.1202 16.0117 11.1611 15.848 10.7167 15.4035C10.6114 15.2983 10.436 15.2983 10.3307 15.4035C10.2254 15.5088 10.2254 15.6842 10.3307 15.7895C11.0324 16.4913 12.4009 16.5497 12.7985 16.5497Z" fill="white"/>
<path d="M14.0383 13.041C14.0383 13.6141 14.5061 14.0819 15.0792 14.0819C15.6523 14.0819 16.1202 13.6141 16.1202 13.041C16.1202 12.4679 15.6523 12 15.0792 12C14.5061 12 14.0383 12.4679 14.0383 13.041Z" fill="white"/>
<path fill-rule="evenodd" clip-rule="evenodd" d="M22.7866 12C22.7866 17.5228 18.3095 22 12.7866 22C7.26377 22 2.78662 17.5228 2.78662 12C2.78662 6.47715 7.26377 2 12.7866 2C18.3095 2 22.7866 6.47715 22.7866 12ZM17.9915 10.538C18.7985 10.538 19.4535 11.193 19.4535 12C19.4535 12.5965 19.0909 13.1111 18.6114 13.3451C18.6348 13.4854 18.6465 13.6258 18.6465 13.7778C18.6465 16.0234 16.0383 17.8363 12.8102 17.8363C9.58215 17.8363 6.97396 16.0234 6.97396 13.7778C6.97396 13.6258 6.98566 13.4737 7.00905 13.3334C6.49443 13.0994 6.14355 12.5965 6.14355 12C6.14355 11.193 6.79852 10.538 7.60554 10.538C7.99151 10.538 8.35408 10.7018 8.61139 10.9474C9.61724 10.2106 11.0091 9.75442 12.5646 9.70763L13.3014 6.22225C13.3248 6.15208 13.3599 6.0936 13.4184 6.05851C13.4769 6.02342 13.5471 6.01173 13.6172 6.02342L16.0383 6.53804C16.202 6.18716 16.5529 5.95325 16.9623 5.95325C17.5354 5.95325 18.0032 6.42108 18.0032 6.99418C18.0032 7.56728 17.5354 8.03512 16.9623 8.03512C16.4009 8.03512 15.9447 7.59067 15.9213 7.04097L13.7576 6.58483L13.0909 9.70763C14.6114 9.76611 15.9915 10.2339 16.9857 10.9474C17.243 10.6901 17.5938 10.538 17.9915 10.538Z" fill="white"/>
</svg>
