<svg width="24" height="24" viewBox="0 0 24 24" fill="none" xmlns="http://www.w3.org/2000/svg">
<path d="M9.70781 12C9.13471 12 8.66687 12.4679 8.66687 13.041C8.66687 13.6141 9.13471 14.0819 9.70781 14.0819C10.2809 14.0819 10.7487 13.6141 10.7487 13.041C10.7487 12.4679 10.2809 12 9.70781 12Z" fill="white"/>
<path d="M12.0119 16.5497C12.4096 16.5497 13.7663 16.503 14.4797 15.7895C14.585 15.6842 14.585 15.5205 14.5031 15.4035C14.3979 15.2983 14.2224 15.2983 14.1172 15.4035C13.661 15.848 12.7137 16.0117 12.0236 16.0117C11.3335 16.0117 10.3745 15.848 9.93003 15.4035C9.82477 15.2983 9.64933 15.2983 9.54407 15.4035C9.4388 15.5088 9.4388 15.6842 9.54407 15.7895C10.2458 16.4913 11.6142 16.5497 12.0119 16.5497Z" fill="white"/>
<path d="M13.2517 13.041C13.2517 13.6141 13.7195 14.0819 14.2926 14.0819C14.8657 14.0819 15.3335 13.6141 15.3335 13.041C15.3335 12.4679 14.8657 12 14.2926 12C13.7195 12 13.2517 12.4679 13.2517 13.041Z" fill="white"/>
<path fill-rule="evenodd" clip-rule="evenodd" d="M22 12C22 17.5228 17.5228 22 12 22C6.47715 22 2 17.5228 2 12C2 6.47715 6.47715 2 12 2C17.5228 2 22 6.47715 22 12ZM17.2049 10.538C18.0119 10.538 18.6669 11.193 18.6669 12C18.6669 12.5965 18.3043 13.1111 17.8248 13.3451C17.8482 13.4854 17.8599 13.6258 17.8599 13.7778C17.8599 16.0234 15.2517 17.8363 12.0236 17.8363C8.79553 17.8363 6.18734 16.0234 6.18734 13.7778C6.18734 13.6258 6.19904 13.4737 6.22243 13.3334C5.70781 13.0994 5.35693 12.5965 5.35693 12C5.35693 11.193 6.0119 10.538 6.81892 10.538C7.20489 10.538 7.56746 10.7018 7.82477 10.9474C8.83062 10.2106 10.2224 9.75442 11.778 9.70763L12.5148 6.22225C12.5382 6.15208 12.5733 6.0936 12.6318 6.05851C12.6903 6.02342 12.7604 6.01173 12.8306 6.02342L15.2517 6.53804C15.4154 6.18716 15.7663 5.95325 16.1756 5.95325C16.7487 5.95325 17.2166 6.42108 17.2166 6.99418C17.2166 7.56728 16.7487 8.03512 16.1756 8.03512C15.6142 8.03512 15.1581 7.59067 15.1347 7.04097L12.971 6.58483L12.3043 9.70763C13.8248 9.76611 15.2049 10.2339 16.199 10.9474C16.4563 10.6901 16.8072 10.538 17.2049 10.538Z" fill="white"/>
</svg>
