<svg width="25" height="24" viewBox="0 0 25 24" fill="none" xmlns="http://www.w3.org/2000/svg">
<path d="M9.98332 12C9.39395 12 8.91282 12.4679 8.91282 13.041C8.91282 13.6141 9.39395 14.0819 9.98332 14.0819C10.5727 14.0819 11.0538 13.6141 11.0538 13.041C11.0538 12.4679 10.5727 12 9.98332 12Z" fill="white"/>
<path d="M12.3528 16.5497C12.7618 16.5497 14.157 16.503 14.8908 15.7895C14.999 15.6842 14.999 15.5205 14.9148 15.4035C14.8066 15.2983 14.6261 15.2983 14.5179 15.4035C14.0488 15.848 13.0745 16.0117 12.3649 16.0117C11.6552 16.0117 10.6689 15.848 10.2119 15.4035C10.1036 15.2983 9.92318 15.2983 9.81493 15.4035C9.70667 15.5088 9.70667 15.6842 9.81493 15.7895C10.5366 16.4913 11.9439 16.5497 12.3528 16.5497Z" fill="white"/>
<path d="M13.6278 13.041C13.6278 13.6141 14.1089 14.0819 14.6983 14.0819C15.2877 14.0819 15.7688 13.6141 15.7688 13.041C15.7688 12.4679 15.2877 12 14.6983 12C14.1089 12 13.6278 12.4679 13.6278 13.041Z" fill="white"/>
<path fill-rule="evenodd" clip-rule="evenodd" d="M22.6245 12C22.6245 17.5228 18.0203 22 12.3406 22C6.66092 22 2.05664 17.5228 2.05664 12C2.05664 6.47715 6.66092 2 12.3406 2C18.0203 2 22.6245 6.47715 22.6245 12ZM17.6933 10.538C18.5232 10.538 19.1968 11.193 19.1968 12C19.1968 12.5965 18.8239 13.1111 18.3308 13.3451C18.3548 13.4854 18.3668 13.6258 18.3668 13.7778C18.3668 16.0234 15.6846 17.8363 12.3649 17.8363C9.04513 17.8363 6.36288 16.0234 6.36288 13.7778C6.36288 13.6258 6.37491 13.4737 6.39897 13.3334C5.86974 13.0994 5.5089 12.5965 5.5089 12C5.5089 11.193 6.18247 10.538 7.0124 10.538C7.40932 10.538 7.78219 10.7018 8.04681 10.9474C9.08122 10.2106 10.5126 9.75442 12.1123 9.70763L12.87 6.22225C12.8941 6.15208 12.9302 6.0936 12.9903 6.05851C13.0505 6.02342 13.1226 6.01173 13.1948 6.02342L15.6846 6.53804C15.853 6.18716 16.2138 5.95325 16.6348 5.95325C17.2242 5.95325 17.7053 6.42108 17.7053 6.99418C17.7053 7.56728 17.2242 8.03512 16.6348 8.03512C16.0575 8.03512 15.5884 7.59067 15.5643 7.04097L13.3391 6.58483L12.6535 9.70763C14.2172 9.76611 15.6365 10.2339 16.6589 10.9474C16.9235 10.6901 17.2843 10.538 17.6933 10.538Z" fill="white"/>
</svg>
