<svg width="24" height="24" viewBox="0 0 24 24" fill="none" xmlns="http://www.w3.org/2000/svg">
<path d="M11.2601 9.60205L3.64008 17.212C2.77008 18.072 2.77008 19.472 3.63008 20.342H3.62908C4.48908 21.202 5.88908 21.202 6.75908 20.342L14.3691 12.722V12.721C16.9591 13.601 19.7891 12.221 20.6791 9.62105C20.6891 9.58105 20.6991 9.54105 20.7091 9.50105V9.50005C20.9191 8.85005 20.9891 8.17005 20.9291 7.50005C20.8491 6.95005 20.3491 6.57005 19.7991 6.64005C19.5791 6.66005 19.3691 6.77005 19.2191 6.92005L17.4091 8.72005C17.2091 8.91005 16.8891 8.91005 16.6991 8.72005C16.6891 8.71005 16.6891 8.71005 16.6891 8.71005L15.1591 7.18005C14.9591 6.98005 14.9591 6.66005 15.3391 6.28005L16.9491 4.66005C17.3391 4.27005 17.3391 3.64005 16.9591 3.24005C16.7991 3.08005 16.5991 2.98005 16.3791 2.95005C15.6991 2.88005 15.0191 2.95005 14.3791 3.17005V3.16005C11.7491 3.98005 10.2991 6.77005 11.1191 9.39005C11.1291 9.42005 11.1391 9.46005 11.1491 9.50005L11.2601 9.60205Z" stroke="white" stroke-width="1.8" stroke-linecap="round" stroke-linejoin="round"/>
</svg>
