<svg width="24" height="24" viewBox="0 0 24 24" fill="none" xmlns="http://www.w3.org/2000/svg">
<path d="M18 5.00004H21M3 5.00004H11M13 12H21M3 12H6M18 19H21M3 19H11M17.414 3.58004C18.194 4.36004 18.194 5.62004 17.414 6.40004C16.624 7.18004 15.364 7.18004 14.584 6.40004C13.794 5.61004 13.794 4.35004 14.584 3.57004C15.364 2.78004 16.624 2.78004 17.404 3.57004M9.41 10.586C10.19 11.366 10.19 12.626 9.41 13.406C8.62 14.186 7.36 14.186 6.58 13.406C5.79 12.616 5.79 11.356 6.58 10.576C7.36 9.78604 8.62 9.78604 9.4 10.576M17.414 17.586C18.194 18.366 18.194 19.626 17.414 20.406C16.624 21.186 15.364 21.186 14.584 20.406C13.794 19.616 13.794 18.356 14.584 17.576C15.364 16.786 16.624 16.786 17.404 17.576" stroke="white" stroke-width="1.8" stroke-linecap="round" stroke-linejoin="round"/>
</svg>
