<svg width="24" height="24" viewBox="0 0 24 24" fill="none" xmlns="http://www.w3.org/2000/svg">
<path d="M12.8001 3C13.006 3.00003 13.2069 3.06363 13.3753 3.18212C13.5438 3.3006 13.6715 3.4682 13.7411 3.662L14.2491 5.077C14.3297 5.29951 14.4863 5.48647 14.6911 5.605L16.1981 6.475C16.4027 6.59307 16.6426 6.63488 16.8751 6.593L18.3551 6.326C18.5579 6.28912 18.7672 6.31583 18.9543 6.40247C19.1413 6.48911 19.2971 6.63145 19.4001 6.81L20.2001 8.19C20.3034 8.36808 20.3493 8.57371 20.3314 8.77882C20.3135 8.98393 20.2327 9.17851 20.1001 9.336L19.1291 10.484C18.9762 10.6645 18.8922 10.8934 18.8921 11.13V12.87C18.8922 13.1066 18.9762 13.3355 19.1291 13.516L20.1001 14.664C20.2327 14.8215 20.3135 15.0161 20.3314 15.2212C20.3493 15.4263 20.3034 15.6319 20.2001 15.81L19.4001 17.19C19.2971 17.3684 19.1416 17.5106 18.9547 17.5972C18.7678 17.6838 18.5588 17.7107 18.3561 17.674L16.8761 17.407C16.6436 17.3651 16.4037 17.4069 16.1991 17.525L14.6921 18.395C14.4873 18.5135 14.3307 18.7005 14.2501 18.923L13.7421 20.338C13.6724 20.532 13.5446 20.6997 13.3759 20.8182C13.2073 20.9367 13.0062 21.0002 12.8001 21H11.2001C10.9942 21 10.7933 20.9364 10.6249 20.8179C10.4564 20.6994 10.3287 20.5318 10.2591 20.338L9.75111 18.923C9.6705 18.7008 9.51442 18.5139 9.31011 18.395L7.80211 17.525C7.59747 17.4069 7.35763 17.3651 7.12511 17.407L5.64511 17.674C5.44228 17.7109 5.23301 17.6842 5.04594 17.5975C4.85887 17.5109 4.70316 17.3686 4.60011 17.19L3.80011 15.81C3.69678 15.6319 3.65093 15.4263 3.66883 15.2212C3.68672 15.0161 3.76749 14.8215 3.90011 14.664L4.87111 13.516C5.02404 13.3355 5.10801 13.1066 5.10811 12.87V11.13C5.10801 10.8934 5.02404 10.6645 4.87111 10.484L3.91011 9.336C3.77749 9.17851 3.69672 8.98393 3.67883 8.77882C3.66093 8.57371 3.70678 8.36808 3.81011 8.19L4.61011 6.81C4.7131 6.63163 4.86865 6.48942 5.05551 6.40279C5.24238 6.31616 5.45143 6.28934 5.65411 6.326L7.13411 6.593C7.36663 6.63488 7.60647 6.59307 7.81111 6.475L9.31911 5.605C9.52342 5.48609 9.6795 5.29923 9.76011 5.077L10.2681 3.662C10.3372 3.46963 10.4635 3.30305 10.6302 3.18469C10.7968 3.06633 10.9957 3.00187 11.2001 3H12.8001Z" stroke="white" stroke-width="1.8" stroke-linecap="round" stroke-linejoin="round"/>
<path d="M12.0001 14.75C13.5189 14.75 14.7501 13.5188 14.7501 12C14.7501 10.4812 13.5189 9.25 12.0001 9.25C10.4813 9.25 9.25011 10.4812 9.25011 12C9.25011 13.5188 10.4813 14.75 12.0001 14.75Z" stroke="white" stroke-width="1.8" stroke-linecap="round" stroke-linejoin="round"/>
</svg>
