<svg width="24" height="24" viewBox="0 0 24 24" fill="none" xmlns="http://www.w3.org/2000/svg">
<path d="M8.5531 10.1142C9.59463 11.1557 9.59463 12.8443 8.5531 13.8859C7.51157 14.9274 5.82292 14.9274 4.78139 13.8859C3.73986 12.8443 3.73986 11.1557 4.78139 10.1142C5.82292 9.07263 7.51157 9.07263 8.5531 10.1142" stroke="white" stroke-width="1.8" stroke-linecap="round" stroke-linejoin="round"/>
<path d="M19.2189 4.78115C20.2604 5.82268 20.2604 7.51133 19.2189 8.55286C18.1773 9.59439 16.4887 9.59439 15.4472 8.55286C14.4056 7.51133 14.4056 5.82268 15.4472 4.78115C16.4887 3.73962 18.1773 3.73962 19.2189 4.78115" stroke="white" stroke-width="1.8" stroke-linecap="round" stroke-linejoin="round"/>
<path d="M19.2189 15.447C20.2604 16.4886 20.2604 18.1772 19.2189 19.2188C18.1773 20.2603 16.4887 20.2603 15.4472 19.2188C14.4056 18.1772 14.4056 16.4886 15.4472 15.447C16.4887 14.4055 18.1773 14.4055 19.2189 15.447" stroke="white" stroke-width="1.8" stroke-linecap="round" stroke-linejoin="round"/>
<path d="M9.04004 10.81L14.96 7.84998" stroke="white" stroke-width="1.8" stroke-linecap="round" stroke-linejoin="round"/>
<path d="M9.04004 13.1901L14.96 16.1501" stroke="white" stroke-width="1.8" stroke-linecap="round" stroke-linejoin="round"/>
</svg>
