<svg width="24" height="24" viewBox="0 0 24 24" fill="none" xmlns="http://www.w3.org/2000/svg">
<path d="M13.527 11.125V9.77501C13.527 8.93201 12.837 8.24501 11.997 8.24501C11.154 8.24501 10.467 8.92501 10.467 9.76501V11.105M13.75 11.12H10.25C9.69 11.12 9.25 11.56 9.25 12.12V14.24C9.25 14.79 9.69 15.24 10.25 15.24H13.75C14.3 15.24 14.75 14.79 14.75 14.24V12.11C14.75 11.55 14.3 11.11 13.75 11.11V11.12ZM20 11.24C20 15.608 16.843 19.7 12.52 20.92C12.18 21.01 11.818 21.01 11.48 20.92C7.15 19.69 4 15.6 4 11.23V7.20001C4 6.38001 4.49 5.65001 5.24 5.34901L10.1 3.35901C11.31 2.85901 12.674 2.85901 13.88 3.35901L18.74 5.34901C19.49 5.64901 19.98 6.37901 19.98 7.20001V11.228L20 11.24Z" stroke="white" stroke-width="1.8" stroke-linecap="round" stroke-linejoin="round"/>
</svg>
