<svg width="24" height="24" viewBox="0 0 24 24" fill="none" xmlns="http://www.w3.org/2000/svg">
<path d="M12 2C12 1.72386 11.7761 1.5 11.5 1.5C11.2239 1.5 11 1.72386 11 2V2.33333C11 2.91801 10.782 3.47276 10.403 3.87698C10.0251 4.28011 9.51964 4.5 9 4.5C8.72386 4.5 8.5 4.72386 8.5 5C8.5 5.27614 8.72386 5.5 9 5.5C9.51964 5.5 10.0251 5.71989 10.403 6.12302C10.782 6.52724 11 7.08199 11 7.66667V8C11 8.27614 11.2239 8.5 11.5 8.5C11.7761 8.5 12 8.27614 12 8V7.66667C12 7.08199 12.218 6.52724 12.597 6.12302C12.9749 5.71989 13.4804 5.5 14 5.5C14.2761 5.5 14.5 5.27614 14.5 5C14.5 4.72386 14.2761 4.5 14 4.5C13.4804 4.5 12.9749 4.28011 12.597 3.87698C12.218 3.47276 12 2.91801 12 2.33333V2Z" fill="white"/>
<path d="M18 7.89999C18 7.62385 17.7761 7.39999 17.5 7.39999C17.2239 7.39999 17 7.62385 17 7.89999C17 8.72664 16.6806 9.51669 16.1164 10.097C15.5526 10.6769 14.791 11 14 11C13.7239 11 13.5 11.2239 13.5 11.5C13.5 11.7761 13.7239 12 14 12C14.791 12 15.5526 12.3231 16.1164 12.9029C16.6806 13.4833 17 14.2733 17 15.1C17 15.3761 17.2239 15.6 17.5 15.6C17.7761 15.6 18 15.3761 18 15.1C18 14.2733 18.3194 13.4833 18.8836 12.9029C19.4474 12.3231 20.209 12 21 12C21.2761 12 21.5 11.7761 21.5 11.5C21.5 11.2239 21.2761 11 21 11C20.209 11 19.4474 10.6769 18.8836 10.097C18.3194 9.51669 18 8.72664 18 7.89999Z" fill="white"/>
<path d="M9 11C9 10.7239 8.77614 10.5 8.5 10.5C8.22386 10.5 8 10.7239 8 11C8 12.3261 7.47322 13.5979 6.53553 14.5355C5.59785 15.4732 4.32608 16 3 16C2.72386 16 2.5 16.2239 2.5 16.5C2.5 16.7761 2.72386 17 3 17C4.32608 17 5.59785 17.5268 6.53553 18.4645C7.47322 19.4021 8 20.6739 8 22C8 22.2761 8.22386 22.5 8.5 22.5C8.77614 22.5 9 22.2761 9 22C9 20.6739 9.52678 19.4021 10.4645 18.4645C11.4021 17.5268 12.6739 17 14 17C14.2761 17 14.5 16.7761 14.5 16.5C14.5 16.2239 14.2761 16 14 16C12.6739 16 11.4021 15.4732 10.4645 14.5355C9.52678 13.5979 9 12.3261 9 11Z" fill="white"/>
</svg>
