<svg width="25" height="24" viewBox="0 0 25 24" fill="none" xmlns="http://www.w3.org/2000/svg">
<path d="M11.3442 11.59L6.25418 6.50003M4.57418 9.31003C2.87418 13.03 3.91418 17.43 7.11418 19.99M9.07418 4.81003C10.2342 4.27003 11.4942 4.00003 12.7642 3.99003L12.7652 3.98903C17.7352 3.97903 21.7652 8.00903 21.7752 12.979C21.7852 15.699 20.5452 18.269 18.4352 19.979M12.7542 10.99C13.2846 10.99 13.7933 11.2007 14.1684 11.5758C14.5435 11.9509 14.7542 12.4596 14.7542 12.99C14.7542 13.5205 14.5435 14.0292 14.1684 14.4042C13.7933 14.7793 13.2846 14.99 12.7542 14.99C12.2237 14.99 11.715 14.7793 11.34 14.4042C10.9649 14.0292 10.7542 13.5205 10.7542 12.99C10.7542 12.4596 10.9649 11.9509 11.34 11.5758C11.715 11.2007 12.2237 10.99 12.7542 10.99Z" stroke="white" stroke-width="1.8" stroke-linecap="round" stroke-linejoin="round"/>
</svg>
