<svg width="25" height="24" viewBox="0 0 25 24" fill="none" xmlns="http://www.w3.org/2000/svg">
<path d="M4.57418 9.31C2.87418 13.03 3.91418 17.43 7.11418 19.99M18.4356 19.9787C20.5456 18.2687 21.7856 15.6987 21.7756 12.9787C21.7677 9.0687 19.2717 5.74047 15.7874 4.50354M7.10596 19.9787C4.99596 18.2687 3.75596 15.6987 3.76596 12.9787C3.77383 9.0687 6.26982 5.74047 9.75418 4.50354M12.7874 10.9996V3.99963M12.7542 10.99C13.2846 10.99 13.7933 11.2007 14.1684 11.5758C14.5435 11.9509 14.7542 12.4596 14.7542 12.99C14.7542 13.5204 14.5435 14.0291 14.1684 14.4042C13.7933 14.7793 13.2846 14.99 12.7542 14.99C12.2237 14.99 11.715 14.7793 11.34 14.4042C10.9649 14.0291 10.7542 13.5204 10.7542 12.99C10.7542 12.4596 10.9649 11.9509 11.34 11.5758C11.715 11.2007 12.2237 10.99 12.7542 10.99Z" stroke="white" stroke-width="1.8" stroke-linecap="round" stroke-linejoin="round"/>
</svg>
