<svg width="25" height="24" viewBox="0 0 25 24" fill="none" xmlns="http://www.w3.org/2000/svg">
<path d="M14.1967 11.59L19.2867 6.50003M20.9667 9.31003C22.6667 13.03 21.6267 17.43 18.4267 19.99M16.4667 4.81003C15.3067 4.27003 14.0467 4.00003 12.7767 3.99003L12.7757 3.98903C7.80569 3.97903 3.77569 8.00903 3.76569 12.979C3.75569 15.699 4.99568 18.269 7.10568 19.979M12.7867 10.99C12.2563 10.99 11.7475 11.2007 11.3725 11.5758C10.9974 11.9509 10.7867 12.4596 10.7867 12.99C10.7867 13.5205 10.9974 14.0292 11.3725 14.4042C11.7475 14.7793 12.2563 14.99 12.7867 14.99C13.3171 14.99 13.8258 14.7793 14.2009 14.4042C14.576 14.0292 14.7867 13.5205 14.7867 12.99C14.7867 12.4596 14.576 11.9509 14.2009 11.5758C13.8258 11.2007 13.3171 10.99 12.7867 10.99Z" stroke="white" stroke-width="1.8" stroke-linecap="round" stroke-linejoin="round"/>
</svg>
