<svg width="72" height="72" viewBox="0 0 72 72" fill="none" xmlns="http://www.w3.org/2000/svg">
<path d="M59.0907 23.2603C58.5222 23.8625 57.573 23.89 56.9705 23.3218C56.368 22.7533 56.3405 21.8033 56.909 21.2007L57.9998 22.2305L59.0907 23.2603ZM57.2528 10.6988C57.8176 10.1657 58.6875 10.1564 59.2625 10.6539L59.3729 10.7603L64.158 15.8306L64.2537 15.9429C64.6715 16.4821 64.6716 17.2388 64.2537 17.7779L64.158 17.8902L59.0907 23.2603L57.9998 22.2305L56.909 21.2007L61.0037 16.8599L57.1912 12.8189L57.0916 12.7027C56.6282 12.0999 56.6879 11.2319 57.2528 10.6988Z" fill="white"/>
<path d="M11.9764 10.7603C12.5449 10.1578 13.494 10.1303 14.0965 10.6988C14.699 11.2673 14.7266 12.2164 14.158 12.8189L10.0614 17.1587L13.8758 21.2007C14.4444 21.8033 14.4168 22.7533 13.8143 23.3218C13.2119 23.8901 12.2627 23.8624 11.6942 23.2603L6.90902 18.189C6.36367 17.6111 6.36365 16.7084 6.90902 16.1304L11.9764 10.7603Z" fill="white"/>
<path d="M38.1771 22.7896C38.1771 21.3732 37.1153 20.3767 35.9847 20.3765C34.8539 20.3765 33.7913 21.373 33.7913 22.7896V45.3697C33.7913 45.8987 33.5127 46.3884 33.0579 46.6587C32.6033 46.9289 32.0402 46.9397 31.5755 46.687L24.9603 43.0894C24.0679 42.604 22.9746 42.7705 22.2357 43.5532C21.2188 44.6309 21.2716 46.4245 22.3372 47.4322L34.3997 58.8316L34.4007 58.8325L34.5228 58.9439C35.1458 59.4813 35.9142 59.7651 36.6966 59.7652H48.2796C49.8554 59.765 51.3168 58.5951 51.6908 56.8091L54.3734 44.0122C54.978 41.1243 53.2167 38.4263 50.7025 37.8657L50.4564 37.8179L39.4339 36.0083C38.7091 35.8893 38.1772 35.2634 38.1771 34.5288V22.7896ZM41.1771 33.2544L50.9427 34.8579L51.3587 34.938C55.6056 35.879 58.2207 40.2785 57.3099 44.6275L54.6273 57.4243C53.9861 60.486 51.3884 62.765 48.2796 62.7652H36.6966C35.0767 62.7651 33.5258 62.1352 32.3392 61.0122L20.2767 49.6128C18.0025 47.4625 17.9051 43.771 20.0531 41.4947L20.2113 41.3345C21.8652 39.7191 24.3427 39.3379 26.3939 40.4536L30.7913 42.8452V22.7896C30.7913 19.8825 33.0355 17.3765 35.9847 17.3765C38.9337 17.3767 41.1771 19.8826 41.1771 22.7896V33.2544Z" fill="white"/>
<path d="M35.8455 8.5C40.2479 8.5 44.5237 10.7253 47.7645 14.9277L48.0741 15.3408L48.159 15.4688C48.5441 16.1242 48.3772 16.9784 47.7508 17.4375C47.1246 17.8961 46.2608 17.7976 45.7518 17.2334L45.6541 17.1143L45.3895 16.7607C42.6226 13.1707 39.1704 11.5 35.8455 11.5C32.4137 11.5001 28.8465 13.2806 26.0369 17.1143C25.5473 17.7822 24.6084 17.927 23.9403 17.4375C23.2722 16.9479 23.1275 16.009 23.617 15.3408C26.8924 10.8717 31.3013 8.50007 35.8455 8.5Z" fill="white"/>
</svg>
