<svg width="24" height="24" viewBox="0 0 24 24" fill="none" xmlns="http://www.w3.org/2000/svg">
<path d="M17.2285 11.2696C17.1433 11.2283 17.0569 11.1886 16.9693 11.1505C16.8168 8.30606 15.2812 6.6776 12.7027 6.66094C12.6911 6.66086 12.6794 6.66086 12.6678 6.66086C11.1255 6.66086 9.84283 7.32718 9.05336 8.53966L10.4714 9.52425C11.0612 8.61857 11.9868 8.4255 12.6684 8.4255C12.6763 8.4255 12.6842 8.4255 12.692 8.42557C13.541 8.43105 14.1816 8.6809 14.5963 9.16813C14.898 9.52284 15.0999 10.013 15.1998 10.6316C14.4471 10.5022 13.633 10.4623 12.7627 10.5128C10.3113 10.6558 8.73526 12.1029 8.84111 14.1137C8.89482 15.1337 9.39686 16.0112 10.2547 16.5845C10.98 17.0691 11.9141 17.306 12.8849 17.2524C14.167 17.1812 15.1728 16.6861 15.8745 15.7808C16.4074 15.0933 16.7444 14.2024 16.8933 13.0798C17.5043 13.453 17.9571 13.9442 18.2072 14.5346C18.6324 15.5382 18.6572 17.1875 17.3277 18.5321C16.1628 19.71 14.7625 20.2196 12.6463 20.2353C10.2989 20.2177 8.52353 19.4557 7.36926 17.9705C6.28838 16.5798 5.72977 14.571 5.70893 12C5.72977 9.42894 6.28838 7.42017 7.36926 6.02945C8.52353 4.54426 10.2988 3.78229 12.6463 3.76464C15.0107 3.78243 16.817 4.54806 18.0154 6.04042C18.6031 6.77225 19.0461 7.69258 19.3382 8.76566L21 8.3169C20.646 6.99606 20.0889 5.85789 19.3308 4.91396C17.7944 3.0007 15.5473 2.02033 12.6521 2H12.6405C9.75108 2.02026 7.52919 3.00435 6.03652 4.92493C4.70825 6.634 4.02309 9.01205 4.00007 11.993L4 12L4.00007 12.007C4.02309 14.9879 4.70825 17.366 6.03652 19.0751C7.52919 20.9956 9.75108 21.9798 12.6405 22H12.6521C15.2209 21.982 17.0316 21.3013 18.5232 19.7928C20.4748 17.8194 20.4161 15.3457 19.7728 13.8272C19.3114 12.7382 18.4315 11.8538 17.2285 11.2696ZM12.7932 15.4903C11.7187 15.5516 10.6025 15.0634 10.5474 14.0179C10.5066 13.2427 11.0925 12.3777 12.8591 12.2747C13.0614 12.2629 13.2599 12.2571 13.455 12.2571C14.0966 12.2571 14.6969 12.3202 15.2427 12.4409C15.0391 15.0141 13.8451 15.4319 12.7932 15.4903Z" fill="white"/>
</svg>
