<svg width="25" height="24" viewBox="0 0 25 24" fill="none" xmlns="http://www.w3.org/2000/svg">
<path d="M20.7391 7.98316C20.7513 8.15675 20.7513 8.33034 20.7513 8.50553C20.7513 13.8436 16.6237 20 9.07628 20V19.9968C6.84675 20 4.66353 19.3712 2.78662 18.1857C3.11081 18.2241 3.43663 18.2433 3.76326 18.2441C5.61092 18.2457 7.40576 17.6353 8.85934 16.5114C7.1035 16.4786 5.56379 15.3515 5.02591 13.706C5.64098 13.8228 6.27474 13.7988 6.87844 13.6364C4.96416 13.2556 3.58695 11.5997 3.58695 9.67665C3.58695 9.65905 3.58695 9.64225 3.58695 9.62545C4.15733 9.93824 4.79596 10.1118 5.44923 10.131C3.64626 8.9447 3.0905 6.58325 4.17927 4.73696C6.26255 7.2608 9.33629 8.79511 12.6359 8.9575C12.3052 7.55439 12.757 6.08408 13.823 5.09774C15.4756 3.56824 18.0749 3.64663 19.6284 5.27293C20.5473 5.09454 21.4281 4.76256 22.2341 4.29219C21.9278 5.22733 21.2867 6.02168 20.4303 6.52645C21.2437 6.43206 22.0383 6.21767 22.7866 5.89049C22.2357 6.70324 21.5419 7.41119 20.7391 7.98316Z" fill="white"/>
</svg>
