<svg width="16" height="18" viewBox="0 0 16 18" fill="none" xmlns="http://www.w3.org/2000/svg">
<path d="M13.9336 4.10001L12.0586 2.22501C11.5836 1.75001 10.9502 1.49084 10.2836 1.49084H3.81689C2.43356 1.49084 1.31689 2.60751 1.31689 3.99084V13.9908C1.31689 15.3658 2.43356 16.4908 3.81689 16.4908H12.1502C13.5252 16.4908 14.6502 15.3658 14.6502 13.9908V5.85001C14.6419 5.18334 14.3836 4.55001 13.9169 4.07501L13.9336 4.10001Z" stroke="black" stroke-width="1.5" stroke-linecap="round" stroke-linejoin="round"/>
<path d="M14.6668 6.08333H11.7502C10.8252 6.08333 10.0835 5.33333 10.0835 4.41667V1.5" stroke="black" stroke-width="1.5" stroke-linecap="round" stroke-linejoin="round"/>
<path d="M6.125 10.875L8 9L9.875 10.875" stroke="black" stroke-width="1.5" stroke-linecap="round" stroke-linejoin="round"/>
<path d="M7.9917 13.1667V9" stroke="black" stroke-width="1.5" stroke-linecap="round" stroke-linejoin="round"/>
</svg>
