<svg width="20" height="20" viewBox="0 0 20 20" fill="none" xmlns="http://www.w3.org/2000/svg">
<path d="M8.92002 19C8.97002 18.66 8.99002 18.33 9.00002 18C9.00002 14.13 5.86002 11 2.00002 11C1.66002 11 1.32902 11.02 0.999023 11.08" stroke="black" stroke-width="1.8" stroke-linecap="round" stroke-linejoin="round"/>
<path d="M1.00021 8.10973V15.8797C0.999215 17.5897 2.39021 18.9897 4.11021 18.9897H11.8802C13.5902 18.9897 14.9902 17.5897 14.9902 15.8697V8.08973C14.9902 6.36973 13.5902 4.96973 11.8702 4.96973H4.09021C2.37021 4.96973 0.970215 6.35973 0.970215 8.07973L1.00021 8.10973Z" stroke="black" stroke-width="1.8" stroke-linecap="round" stroke-linejoin="round"/>
<path d="M5 5V4C5 2.34 6.34 1 8 1H16C17.65 1 19 2.34 19 4V12C19 13.65 17.65 15 16 15H15" stroke="black" stroke-width="1.8" stroke-linecap="round" stroke-linejoin="round"/>
<path d="M10.4603 9.45969V9.44969C10.4703 9.42969 10.5103 9.42969 10.5303 9.44969C10.5403 9.45969 10.5403 9.49969 10.5203 9.51969C10.5003 9.52969 10.4603 9.52969 10.4403 9.50969C10.4203 9.48969 10.4203 9.44969 10.4403 9.42969" stroke="black" stroke-width="1.8" stroke-linecap="round" stroke-linejoin="round"/>
</svg>
