<svg width="24" height="24" viewBox="0 0 24 24" fill="none" xmlns="http://www.w3.org/2000/svg">
<path d="M15.57 16.42V14.99C15.57 13.88 16.459 12.99 17.569 12.99C18.669 12.99 19.569 13.88 19.569 14.99V16.41M11 15H7C4.79 15 3 16.79 3 19V20M15.57 16.428H19.571C20.3597 16.428 20.999 17.0673 20.999 17.856V19.571C20.999 20.3597 20.3597 20.999 19.571 20.999H15.57C14.7813 20.999 14.142 20.3597 14.142 19.571V17.856C14.142 17.0673 14.7813 16.428 15.57 16.428ZM11 3C9.93913 3 8.92172 3.42143 8.17157 4.17157C7.42143 4.92172 7 5.93913 7 7C7 8.06087 7.42143 9.07828 8.17157 9.82843C8.92172 10.5786 9.93913 11 11 11C12.0609 11 13.0783 10.5786 13.8284 9.82843C14.5786 9.07828 15 8.06087 15 7C15 5.93913 14.5786 4.92172 13.8284 4.17157C13.0783 3.42143 12.0609 3 11 3Z" stroke="white" stroke-width="1.8" stroke-linecap="round" stroke-linejoin="round"/>
</svg>
