<svg width="25" height="24" viewBox="0 0 25 24" fill="none" xmlns="http://www.w3.org/2000/svg">
<path d="M16.3566 16.42V14.99C16.3566 13.88 17.2456 12.99 18.3556 12.99C19.4556 12.99 20.3556 13.88 20.3556 14.99V16.41M11.7866 15H7.78662C5.57662 15 3.78662 16.79 3.78662 19V20M16.3566 16.428H20.3576C21.1463 16.428 21.7856 17.0673 21.7856 17.856V19.571C21.7856 20.3597 21.1463 20.999 20.3576 20.999H16.3566C15.568 20.999 14.9286 20.3597 14.9286 19.571V17.856C14.9286 17.0673 15.568 16.428 16.3566 16.428ZM11.7866 3C10.7258 3 9.70834 3.42143 8.95819 4.17157C8.20805 4.92172 7.78662 5.93913 7.78662 7C7.78662 8.06087 8.20805 9.07828 8.95819 9.82843C9.70834 10.5786 10.7258 11 11.7866 11C12.8475 11 13.8649 10.5786 14.615 9.82843C15.3652 9.07828 15.7866 8.06087 15.7866 7C15.7866 5.93913 15.3652 4.92172 14.615 4.17157C13.8649 3.42143 12.8475 3 11.7866 3Z" stroke="white" stroke-width="1.8" stroke-linecap="round" stroke-linejoin="round"/>
</svg>
