<svg width="24" height="24" viewBox="0 0 24 24" fill="none" xmlns="http://www.w3.org/2000/svg">
<path d="M16.595 13.125C16.385 13.125 16.215 13.285 16.215 13.495C16.215 13.695 16.375 13.87 16.59 13.865C16.79 13.865 16.965 13.695 16.965 13.49C16.965 13.28 16.795 13.115 16.585 13.115M3 5V18.5C3 19.6 3.895 20.5 5 20.5H19C20.1 20.5 21 19.6 21 18.5V8.5C21 7.39 20.1 6.5 19 6.5H4.5C3.67 6.5 3 5.82 3 5ZM3 5C3 4.17 3.67 3.5 4.5 3.5H17" stroke="white" stroke-width="1.8" stroke-linecap="round" stroke-linejoin="round"/>
</svg>
