<svg width="25" height="24" viewBox="0 0 25 24" fill="none" xmlns="http://www.w3.org/2000/svg">
<path fill-rule="evenodd" clip-rule="evenodd" d="M15.446 3.75843C14.2618 1.6764 11.2628 1.67068 10.0841 3.7599L10.083 3.76186L2.43644 17.1616C1.26005 19.2197 2.74591 21.7809 5.11649 21.7809H20.4355C22.7994 21.7809 24.2937 19.2132 23.1164 17.1614L23.1159 17.1605L15.4465 3.75935L15.446 3.75843ZM13.5369 9.38C13.5369 8.96579 13.2011 8.63 12.7869 8.63C12.3726 8.63 12.0369 8.96579 12.0369 9.38V13.12C12.0369 13.5342 12.3726 13.87 12.7869 13.87C13.2011 13.87 13.5369 13.5342 13.5369 13.12V9.38ZM12.7769 15.375L12.7718 15.375L12.7669 15.375C12.746 15.375 12.7253 15.3759 12.7049 15.3775C12.1846 15.4141 11.7769 15.845 11.7769 16.375C11.7769 16.8997 12.2034 17.375 12.7769 17.375C13.072 17.375 13.3178 17.2423 13.4809 17.0791C13.6441 16.9159 13.7769 16.6701 13.7769 16.375C13.7769 15.8152 13.3345 15.4198 12.8504 15.3786C12.8262 15.3762 12.8017 15.375 12.7769 15.375Z" fill="white"/>
</svg>
