<svg width="25" height="24" viewBox="0 0 25 24" fill="none" xmlns="http://www.w3.org/2000/svg">
<path fill-rule="evenodd" clip-rule="evenodd" d="M20.6019 5.41816C21.4629 5.64864 22.1396 6.32526 22.3701 7.18627H22.3684C22.7866 8.7453 22.7866 12 22.7866 12C22.7866 12 22.7866 15.2547 22.3684 16.8137C22.138 17.6747 21.4613 18.3514 20.6003 18.5818C19.0411 19 12.7866 19 12.7866 19C12.7866 19 6.53209 19 4.97299 18.5818C4.11194 18.3514 3.43529 17.6747 3.2048 16.8137C2.78662 15.2547 2.78662 12 2.78662 12C2.78662 12 2.78662 8.7453 3.2048 7.18627C3.43529 6.32526 4.11194 5.64864 4.97299 5.41816C6.53209 5 12.7866 5 12.7866 5C12.7866 5 19.0411 5 20.6019 5.41816ZM15.9838 12L10.7863 9.00048V14.9995L15.9838 12Z" fill="white"/>
</svg>
