<svg width="24" height="24" viewBox="0 0 24 24" fill="none" xmlns="http://www.w3.org/2000/svg">
<path d="M2.25598 18.78H3.74398V15.66H20.28L20.256 18.78H21.744V11.844C21.744 9.82797 20.208 8.29197 18.192 8.29197L11.856 8.31597V14.1H3.74398V5.21997H2.25598V18.78ZM4.82398 10.068C4.82398 11.724 6.16798 13.044 7.79998 13.044C9.43198 13.044 10.776 11.724 10.776 10.068C10.776 8.43597 9.43198 7.11597 7.79998 7.11597C6.16798 7.11597 4.82398 8.43597 4.82398 10.068ZM6.11998 10.068C6.11998 9.15597 6.86398 8.38797 7.79998 8.38797C8.73598 8.38797 9.47998 9.15597 9.47998 10.068C9.47998 11.004 8.73598 11.748 7.79998 11.748C6.86398 11.748 6.11998 11.004 6.11998 10.068ZM13.32 14.1V9.77997L18.624 9.75597C19.704 9.75597 20.28 10.332 20.28 11.412V14.1H13.32Z" fill="black"/>
</svg>
