<svg width="24" height="24" viewBox="0 0 24 24" fill="none" xmlns="http://www.w3.org/2000/svg">
<path d="M19.7161 20.3519C21.0601 20.3519 22.1641 19.2479 22.1641 17.9039C22.1641 16.5599 21.0601 15.4559 19.7161 15.4559C19.0681 15.4559 18.4681 15.6959 18.0361 16.1279L15.6361 14.6879C15.7561 14.3519 15.8281 13.9679 15.8281 13.5839C15.8281 11.7359 14.3401 10.2239 12.4921 10.2239C12.2041 10.2239 11.9161 10.2719 11.6521 10.3439L10.5001 7.91995C11.0281 7.48795 11.3401 6.81595 11.3401 6.09595C11.3401 4.75195 10.2361 3.64795 8.89206 3.64795C7.54806 3.64795 6.44406 4.75195 6.44406 6.09595C6.44406 7.43995 7.54806 8.54395 8.89206 8.54395C9.06006 8.54395 9.20406 8.51995 9.34806 8.49595L10.5001 10.9199C9.68406 11.5199 9.18006 12.4799 9.18006 13.5839C9.18006 15.4319 10.6441 16.8959 12.4921 16.8959C13.4761 16.8959 14.3641 16.4879 14.9641 15.8159L17.3641 17.2319C17.2921 17.4479 17.2681 17.6639 17.2681 17.9039C17.2681 19.2479 18.3721 20.3519 19.7161 20.3519ZM1.83606 13.5839C1.83606 14.6159 2.70006 15.4799 3.73206 15.4799C4.78806 15.4799 5.65206 14.6159 5.65206 13.5839C5.65206 12.5039 4.78806 11.6639 3.73206 11.6639C2.70006 11.6639 1.83606 12.5039 1.83606 13.5839ZM6.46806 14.1359H8.29206V13.0319H6.46806V14.1359ZM7.74006 6.09595C7.74006 5.44795 8.26806 4.91995 8.89206 4.91995C9.54006 4.91995 10.0681 5.44795 10.0681 6.09595C10.0681 6.71995 9.54006 7.24795 8.89206 7.24795C8.26806 7.24795 7.74006 6.71995 7.74006 6.09595ZM10.5481 13.5839C10.5481 12.4799 11.4121 11.6159 12.4921 11.6159C13.5721 11.6159 14.4601 12.4799 14.4601 13.5839C14.4601 14.6639 13.5721 15.5279 12.4921 15.5279C11.4121 15.5279 10.5481 14.6639 10.5481 13.5839ZM15.7081 10.5119L16.3801 11.3999L18.2041 10.0559L17.5561 9.16795L15.7081 10.5119ZM18.3481 7.87195C18.3481 8.92795 19.2121 9.79195 20.2441 9.79195C21.3241 9.79195 22.1641 8.92795 22.1641 7.87195C22.1641 6.81595 21.3241 5.95195 20.2441 5.95195C19.2121 5.95195 18.3481 6.81595 18.3481 7.87195ZM18.5641 17.9039C18.5641 17.2559 19.0921 16.7279 19.7161 16.7279C20.3641 16.7279 20.8921 17.2559 20.8921 17.9039C20.8921 18.5279 20.3641 19.0559 19.7161 19.0559C19.0921 19.0559 18.5641 18.5279 18.5641 17.9039Z" fill="black"/>
</svg>
