<svg width="24" height="24" viewBox="0 0 24 24" fill="none" xmlns="http://www.w3.org/2000/svg">
<path d="M11.064 16.344L12.024 15.36L10.824 14.136C10.344 13.68 9.86401 13.2 9.36001 12.744H17.04V11.256H9.33601C9.84001 10.776 10.344 10.32 10.824 9.84001L12.024 8.59201L11.064 7.63201L6.72001 12L11.064 16.344ZM2.76001 12C2.76001 17.16 6.84001 21.24 12 21.24C17.184 21.24 21.24 17.04 21.24 12C21.24 6.84001 17.16 2.76001 12 2.76001C6.84001 2.76001 2.76001 6.84001 2.76001 12ZM4.32001 12C4.32001 7.68001 7.70401 4.32001 12 4.32001C16.32 4.32001 19.68 7.68001 19.68 12C19.68 16.176 16.32 19.68 12 19.68C7.70401 19.68 4.32001 16.296 4.32001 12Z" fill="black"/>
</svg>
