<svg width="24" height="24" viewBox="0 0 24 24" fill="none" xmlns="http://www.w3.org/2000/svg">
<path d="M12 17.28L16.344 12.936L15.36 11.976L14.136 13.176C13.68 13.656 13.2 14.136 12.744 14.64V6.96001H11.256V14.664C10.776 14.16 10.32 13.656 9.84 13.176L8.616 11.976L7.632 12.936L12 17.28ZM2.76 12C2.76 17.16 6.84 21.24 12 21.24C17.184 21.24 21.24 17.04 21.24 12C21.24 6.84001 17.16 2.76001 12 2.76001C6.84 2.76001 2.76 6.84001 2.76 12ZM4.32 12C4.32 7.68001 7.704 4.32001 12 4.32001C16.32 4.32001 19.68 7.68001 19.68 12C19.68 16.176 16.32 19.68 12 19.68C7.704 19.68 4.32 16.296 4.32 12Z" fill="black"/>
</svg>
