<svg width="24" height="24" viewBox="0 0 24 24" fill="none" xmlns="http://www.w3.org/2000/svg">
<path d="M9.02401 16.032L14.472 10.584C14.448 11.28 14.424 11.952 14.424 12.624V14.376H15.792V8.20801H9.64801V9.57601H11.376C12.024 9.57601 12.72 9.57601 13.392 9.55201L7.96801 14.976L9.02401 16.032ZM2.76001 12C2.76001 17.16 6.84001 21.24 12 21.24C17.184 21.24 21.24 17.04 21.24 12C21.24 6.84001 17.16 2.76001 12 2.76001C6.84001 2.76001 2.76001 6.84001 2.76001 12ZM4.32001 12C4.32001 7.68001 7.70401 4.32001 12 4.32001C16.32 4.32001 19.68 7.68001 19.68 12C19.68 16.176 16.32 19.68 12 19.68C7.70401 19.68 4.32001 16.296 4.32001 12Z" fill="black"/>
</svg>
