<svg width="24" height="24" viewBox="0 0 24 24" fill="none" xmlns="http://www.w3.org/2000/svg">
<path d="M8.20801 15.792H14.352V14.4H12.624C11.976 14.4 11.28 14.4 10.608 14.448L16.032 9.02401L14.976 7.96801L9.52801 13.416C9.55201 12.72 9.60001 12.048 9.60001 11.352L9.57601 9.62401H8.20801V15.792ZM2.76001 12C2.76001 17.16 6.84001 21.24 12 21.24C17.184 21.24 21.24 17.04 21.24 12C21.24 6.84001 17.16 2.76001 12 2.76001C6.84001 2.76001 2.76001 6.84001 2.76001 12ZM4.32001 12C4.32001 7.68001 7.70401 4.32001 12 4.32001C16.32 4.32001 19.68 7.68001 19.68 12C19.68 16.176 16.32 19.68 12 19.68C7.70401 19.68 4.32001 16.296 4.32001 12Z" fill="black"/>
</svg>
