<svg width="24" height="24" viewBox="0 0 24 24" fill="none" xmlns="http://www.w3.org/2000/svg">
<path d="M5.20804 18.1801H18.792V16.8121H16.968C18.96 15.3721 20.16 13.0681 20.16 10.5001C20.16 6.01209 16.488 2.34009 12 2.34009C7.51204 2.34009 3.84004 6.01209 3.84004 10.5001C3.84004 13.0681 5.04004 15.3481 7.03204 16.8121H5.20804V18.1801ZM1.92004 21.6601H22.08V14.8201H20.52V20.1961H3.48004V14.8201H1.92004V21.6601ZM5.40004 10.5001C5.40004 6.85209 8.35204 3.90009 12 3.90009C15.648 3.90009 18.6 6.85209 18.6 10.5001C18.6 13.5721 16.44 16.1641 13.584 16.8121H10.44C7.56004 16.1641 5.40004 13.5721 5.40004 10.5001ZM9.00004 11.5561C8.97604 13.0201 10.008 14.0761 11.496 14.2921V15.2281H12.504V14.2921C13.968 14.1241 15 13.1641 15 11.9401C15 10.7641 14.184 10.0681 12.84 9.90009L11.568 9.73209C10.776 9.63609 10.464 9.37209 10.464 8.74809C10.464 7.98009 11.016 7.66809 12.024 7.66809C13.152 7.66809 13.56 8.02809 13.536 9.08409H14.832C14.832 7.78809 13.872 6.78009 12.504 6.56409V5.62809H11.496V6.58809C10.176 6.75609 9.24004 7.66809 9.24004 8.84409C9.24004 9.97209 9.96004 10.6441 11.208 10.7881L12.432 10.9321C13.32 11.0281 13.68 11.3161 13.68 12.0121C13.68 12.8521 13.176 13.1881 12.024 13.1881C10.704 13.1881 10.272 12.7801 10.248 11.5561H9.00004Z" fill="black"/>
</svg>
