<svg width="24" height="24" viewBox="0 0 24 24" fill="none" xmlns="http://www.w3.org/2000/svg">
<path d="M17.988 15.8761V17.3641C20.436 17.0521 22.212 15.0841 22.212 12.6601C22.212 10.3081 20.508 8.4601 18.3 8.0521C17.892 5.2441 15.372 3.2041 12.516 3.2041C10.404 3.2041 8.45996 4.3081 7.45196 6.1081C4.45196 6.1561 1.78796 8.5561 1.78796 11.7481C1.78796 14.2441 3.41996 16.3801 5.81996 17.1481V15.5401C4.35596 14.9161 3.34796 13.4761 3.34796 11.7481C3.34796 9.0361 5.91596 7.0681 8.48396 7.7161C8.98796 5.8441 10.644 4.6681 12.516 4.6681C15.012 4.6681 17.148 6.7561 16.764 9.4681C18.828 9.1801 20.652 10.5721 20.652 12.6601C20.652 14.2681 19.548 15.5881 17.988 15.8761ZM7.61996 16.4521L11.988 20.7961L16.332 16.4521L15.348 15.4921L14.1 16.7401C13.644 17.1961 13.188 17.6761 12.732 18.1561V11.4361H11.244V18.1801C10.788 17.7001 10.332 17.1961 9.87596 16.7401L8.60396 15.4921L7.61996 16.4521Z" fill="black"/>
</svg>
