<svg width="24" height="24" viewBox="0 0 24 24" fill="none" xmlns="http://www.w3.org/2000/svg">
<path d="M8.87996 16.0201H11.832C13.44 16.0201 14.832 15.4201 15.816 14.1241C15.936 13.9561 16.056 13.8121 16.152 13.6441H16.992C19.824 13.6441 21.936 11.7721 21.936 9.15612C21.936 6.49212 19.824 4.62012 16.992 4.62012H3.81596V10.1401C3.81596 11.9641 4.15196 13.1641 4.91996 14.1241C5.92796 15.4201 7.27196 16.0201 8.87996 16.0201ZM2.06396 17.8201C2.13596 18.6841 2.90396 19.3801 3.81596 19.3801H17.976C18.912 19.3801 19.656 18.6841 19.728 17.8201H2.06396ZM5.47196 11.1241V6.08412H15.24V11.1241C15.24 13.4041 14.328 14.4601 12 14.4601H8.73596C6.43196 14.4601 5.47196 13.4281 5.47196 11.1241ZM16.704 12.1801C16.848 11.6041 16.896 10.9321 16.896 10.1401V6.08412C19.344 6.08412 20.28 6.80412 20.28 8.72412V9.56412C20.28 11.4121 19.392 12.1801 17.088 12.1801H16.704Z" fill="black"/>
</svg>
