<svg width="24" height="24" viewBox="0 0 24 24" fill="none" xmlns="http://www.w3.org/2000/svg">
<path d="M2.64001 4.38008V17.7481L6.93602 14.4601H17.592V4.38008C17.592 3.39608 16.752 2.58008 15.792 2.58008H4.44001C3.45601 2.58008 2.64001 3.39608 2.64001 4.38008ZM4.20001 14.6521V4.40408C4.20001 4.21208 4.36801 4.04408 4.56001 4.04408H15.648C15.864 4.04408 16.032 4.21208 16.032 4.40408V12.9961H6.40801L4.20001 14.6521ZM7.75202 9.30008C7.75202 10.4041 8.56802 11.2441 9.74402 11.3881V12.1081H10.488V11.3881C11.616 11.2441 12.456 10.5241 12.456 9.58808C12.456 8.70008 11.808 8.14808 10.752 8.00408L9.79202 7.88408C9.21602 7.81208 8.95202 7.62008 8.95202 7.18808C8.95202 6.66008 9.36002 6.42008 10.128 6.42008C10.968 6.42008 11.28 6.68408 11.256 7.42808H12.312C12.312 6.44408 11.544 5.65208 10.488 5.50808V4.78808H9.74402V5.50808C8.68802 5.65208 7.94402 6.34808 7.94402 7.26008C7.94402 8.12408 8.47202 8.65208 9.45602 8.77208L10.44 8.89208C11.112 8.96408 11.352 9.15608 11.352 9.63608C11.352 10.2121 10.992 10.4761 10.104 10.4761C9.14402 10.4761 8.80802 10.1641 8.78402 9.27608L7.75202 9.30008ZM7.80002 16.3081C7.80002 17.2921 8.61602 18.1081 9.60002 18.1081H17.064L21.36 21.4201V8.46008C21.36 7.45208 20.496 6.56408 19.464 6.56408V8.12408C19.656 8.12408 19.8 8.36408 19.8 8.82008V18.3241L17.592 16.6441H10.056C9.50402 16.6441 9.36002 16.5001 9.36002 16.3081H7.80002Z" fill="black"/>
</svg>
