<svg width="24" height="24" viewBox="0 0 24 24" fill="none" xmlns="http://www.w3.org/2000/svg">
<path d="M5.23201 20.4001H18.792C18.624 19.6321 17.928 19.0081 17.04 19.0081H14.88L14.328 16.3201H19.56C20.544 16.3201 21.36 15.5041 21.36 14.5201V5.4001C21.36 4.4161 20.544 3.6001 19.56 3.6001H4.44001C3.45601 3.6001 2.64001 4.4161 2.64001 5.4001V14.5201C2.64001 15.5041 3.45601 16.3201 4.44001 16.3201H9.67202L9.12002 19.0081H6.96002C6.12001 19.0081 5.40001 19.6321 5.23201 20.4001ZM4.20001 14.4721V5.4241C4.20001 5.2081 4.34401 5.0641 4.56001 5.0641H19.44C19.656 5.0641 19.8 5.2081 19.8 5.4241V14.4721C19.8 14.6881 19.656 14.8561 19.44 14.8561H4.56001C4.34401 14.8561 4.20001 14.6881 4.20001 14.4721ZM10.44 19.0081L11.016 16.3201H12.984L13.56 19.0081H10.44Z" fill="black"/>
</svg>
