<svg width="24" height="24" viewBox="0 0 24 24" fill="none" xmlns="http://www.w3.org/2000/svg">
<path d="M4.572 19.9201H11.916V18.5281H9.78L10.356 15.8401H11.916V14.3761H3.9C3.684 14.3761 3.54 14.2081 3.54 13.9921V4.94412C3.54 4.72812 3.684 4.58412 3.9 4.58412H18.78C18.996 4.58412 19.14 4.72812 19.14 4.94412V6.12012H20.7V4.92012C20.7 3.93612 19.884 3.12012 18.9 3.12012H3.78C2.796 3.12012 1.98 3.93612 1.98 4.92012V14.0401C1.98 15.0241 2.796 15.8401 3.78 15.8401H9.012L8.46 18.5281H6.3C5.46 18.5281 4.74 19.1521 4.572 19.9201ZM13.5 19.0801C13.5 20.0641 14.316 20.8801 15.3 20.8801H20.22C21.204 20.8801 22.02 20.0641 22.02 19.0801V9.60012C22.02 8.61612 21.204 7.80012 20.22 7.80012H15.3C14.316 7.80012 13.5 8.61612 13.5 9.60012V19.0801ZM14.964 19.1281V9.55212C14.964 9.33612 15.132 9.16812 15.348 9.16812H20.196C20.412 9.16812 20.556 9.33612 20.556 9.55212V19.1281C20.556 19.3441 20.412 19.4881 20.196 19.4881H15.348C15.132 19.4881 14.964 19.3441 14.964 19.1281ZM16.98 17.9041C16.98 18.3361 17.316 18.6961 17.772 18.6961C18.204 18.6961 18.54 18.3361 18.54 17.9041C18.54 17.4721 18.204 17.1361 17.772 17.1361C17.316 17.1361 16.98 17.4721 16.98 17.9041Z" fill="black"/>
</svg>
