<svg width="24" height="24" viewBox="0 0 24 24" fill="none" xmlns="http://www.w3.org/2000/svg">
<path d="M5.52 21.3599H12.216V19.8959H5.64C5.424 19.8959 5.28 19.7279 5.28 19.5119V4.46389C5.28 4.24789 5.424 4.10389 5.64 4.10389H15.6C15.816 4.10389 15.96 4.24789 15.96 4.46389V6.57589H17.52V4.43989C17.52 3.45589 16.704 2.63989 15.72 2.63989H5.52C4.536 2.63989 3.72 3.45589 3.72 4.43989V19.5599C3.72 20.5439 4.536 21.3599 5.52 21.3599ZM14.16 21.3599H20.28V8.51989H14.16V21.3599ZM15.624 19.8959V9.98389H18.816V19.8959H15.624Z" fill="black"/>
</svg>
