<svg width="34" height="24" viewBox="0 0 34 24" fill="none" xmlns="http://www.w3.org/2000/svg">
<path d="M28.8012 2.00996C26.5674 1.05745 24.2092 0.381713 21.7868 0C21.4553 0.551901 21.1554 1.11973 20.8882 1.70112C18.3079 1.33898 15.6839 1.33898 13.1036 1.70112C12.8363 1.11979 12.5364 0.551968 12.2051 0C9.78114 0.384937 7.42135 1.06228 5.18527 2.01494C0.746079 8.132 -0.457316 14.0971 0.144382 19.9776C2.74408 21.7665 5.65389 23.127 8.74732 24C9.44387 23.1275 10.0602 22.2018 10.5899 21.2329C9.5839 20.883 8.61298 20.4512 7.68833 19.9427C7.93169 19.7783 8.16969 19.609 8.39967 19.4446C11.0902 20.623 14.0268 21.234 16.9999 21.234C19.9731 21.234 22.9097 20.623 25.6002 19.4446C25.8329 19.6214 26.0709 19.7908 26.3115 19.9427C25.3851 20.4521 24.4124 20.8846 23.4047 21.2354C23.9337 22.2039 24.55 23.1287 25.2472 24C28.3433 23.1305 31.2553 21.7707 33.8555 19.9801C34.5615 13.1606 32.6494 7.25031 28.8012 2.00996ZM11.352 16.3611C9.67527 16.3611 8.29003 14.944 8.29003 13.2005C8.29003 11.457 9.62714 10.0274 11.3467 10.0274C13.0662 10.0274 14.4407 11.457 14.4113 13.2005C14.3819 14.944 13.0608 16.3611 11.352 16.3611ZM22.6479 16.3611C20.9685 16.3611 19.5886 14.944 19.5886 13.2005C19.5886 11.457 20.9257 10.0274 22.6479 10.0274C24.3701 10.0274 25.7339 11.457 25.7045 13.2005C25.6751 14.944 24.3567 16.3611 22.6479 16.3611Z" fill="white"/>
</svg>