<svg width="24" height="24" viewBox="0 0 24 24" fill="none" xmlns="http://www.w3.org/2000/svg">
<path d="M11.9332 21.7631L14.1892 19.5071C15.1252 18.2111 14.2132 15.7871 11.8132 13.1711L13.0612 11.9471C15.6772 14.3711 18.0532 15.2591 19.4932 14.2031L21.7492 11.9471C22.9012 10.4111 21.7252 7.81914 18.9412 5.05914C16.1812 2.27514 13.5892 1.09914 12.0532 2.25114L9.79719 4.50714C8.74119 5.94714 9.62919 8.32314 12.0532 10.9391L10.8292 12.1871C8.21319 9.78714 5.78919 8.87514 4.49319 9.81114L2.23719 12.0671C1.13319 13.5791 2.21319 16.1951 5.02119 18.9791C7.80519 21.7871 10.4212 22.8671 11.9332 21.7631ZM3.34119 13.0031L4.27719 12.0431C4.39719 13.3391 5.54919 15.0191 7.27719 16.7231C8.98119 18.4511 10.6612 19.6031 11.9572 19.7231L10.9972 20.6831C10.2052 21.1391 8.16519 20.1071 6.02919 17.9711C3.89319 15.8351 2.88519 13.7951 3.34119 13.0031ZM5.45319 10.8911C6.17319 10.4351 7.94919 11.3231 9.89319 13.0991L8.69319 14.2991C8.59719 14.3951 8.71719 14.7071 9.02919 14.9711C9.29319 15.2831 9.60519 15.4031 9.70119 15.3071L10.9012 14.1071C12.6772 16.0511 13.5652 17.8271 13.1092 18.5471C12.5092 19.1471 10.2772 17.9711 8.16519 15.8351C6.02919 13.7231 4.85319 11.4911 5.45319 10.8911ZM10.8772 5.44314L11.8132 4.50714C11.9332 5.80314 13.0852 7.48314 14.8132 9.18714C16.5172 10.9151 18.1972 12.0671 19.4932 12.1871L18.5572 13.1231C17.7652 13.5791 15.6772 12.5711 13.5652 10.4351C11.4292 8.32314 10.4212 6.23514 10.8772 5.44314ZM12.9892 3.33114C13.7812 2.85114 15.7972 3.93114 17.9572 6.04314C20.0692 8.20314 21.1492 10.2191 20.6692 11.0111C20.0452 11.6351 17.8132 10.4351 15.6772 8.32314C13.5652 6.18714 12.3652 3.95514 12.9892 3.33114ZM16.1092 6.73914C16.0132 6.83514 16.1572 7.17114 16.4932 7.50714C16.8292 7.84314 17.1652 7.98714 17.2612 7.89114L17.9092 7.29114C18.0052 7.19514 17.8372 6.83514 17.5012 6.49914C17.1412 6.16314 16.8052 5.99514 16.7092 6.09114L16.1092 6.73914Z" fill="black"/>
</svg>
