<svg width="24" height="24" viewBox="0 0 24 24" fill="none" xmlns="http://www.w3.org/2000/svg">
<path d="M10.584 16.704H10.632C12.6 16.704 14.064 15.552 14.064 14.016C14.064 13.056 13.488 12.264 12.552 11.952V11.736C13.296 11.448 13.776 10.728 13.776 9.88801C13.776 8.44801 12.384 7.34401 10.608 7.34401H10.584C8.83198 7.34401 7.43998 8.44801 7.43998 9.88801C7.43998 10.728 7.94398 11.472 8.68798 11.76V11.952C7.75198 12.264 7.17598 13.032 7.17598 14.016C7.17598 15.552 8.63998 16.704 10.584 16.704ZM4.15198 21.24H10.608C15.792 21.24 19.848 17.016 19.848 12C19.848 6.84001 15.768 2.76001 10.608 2.76001H4.15198V4.32001H10.608C14.928 4.32001 18.288 7.68001 18.288 12C18.288 16.176 14.928 19.68 10.608 19.68H4.15198V21.24ZM8.80798 14.184V13.752C8.80798 12.984 9.35998 12.6 10.536 12.6H10.728C11.928 12.6 12.456 12.984 12.456 13.752V14.184C12.456 14.952 11.904 15.312 10.728 15.312H10.536C9.35998 15.312 8.80798 14.952 8.80798 14.184ZM8.95198 10.248V9.79201C8.95198 9.09601 9.43198 8.73601 10.512 8.73601H10.68C11.76 8.73601 12.264 9.09601 12.264 9.79201V10.248C12.264 10.944 11.76 11.28 10.68 11.28H10.512C9.43198 11.28 8.95198 10.944 8.95198 10.248Z" fill="black"/>
</svg>
