<svg width="24" height="24" viewBox="0 0 24 24" fill="none" xmlns="http://www.w3.org/2000/svg">
<path d="M11.9999 20.7188C9.68831 20.7161 7.47218 19.7966 5.83772 18.162C4.20326 16.5274 3.28395 14.3112 3.28149 11.9996C3.28414 9.68819 4.20353 7.47217 5.83797 5.83773C7.47241 4.20329 9.68843 3.2839 11.9999 3.28125C14.3113 3.2839 16.5274 4.20329 18.1618 5.83773C19.7962 7.47217 20.7156 9.68819 20.7183 11.9996C20.7158 14.3112 19.7965 16.5274 18.162 18.162C16.5276 19.7966 14.3115 20.7161 11.9999 20.7188ZM11.9999 4.42362C9.99129 4.42588 8.06562 5.2248 6.64533 6.64509C5.22504 8.06538 4.42613 9.99105 4.42386 11.9996C4.42594 14.0084 5.22477 15.9342 6.64508 17.3547C8.06539 18.7751 9.99117 19.5741 11.9999 19.5764C14.0086 19.5741 15.9344 18.7751 17.3547 17.3547C18.775 15.9342 19.5738 14.0084 19.5759 11.9996C19.5736 9.99105 18.7747 8.06538 17.3544 6.64509C15.9342 5.2248 14.0085 4.42588 11.9999 4.42362Z" fill="black"/>
<path d="M8.81982 11.2143C9.47557 11.2143 10.0072 10.6827 10.0072 10.0269C10.0072 9.37117 9.47557 8.83957 8.81982 8.83957C8.16407 8.83957 7.63247 9.37117 7.63247 10.0269C7.63247 10.6827 8.16407 11.2143 8.81982 11.2143Z" fill="black"/>
<path d="M15.1178 11.2143C15.7736 11.2143 16.3052 10.6827 16.3052 10.0269C16.3052 9.37117 15.7736 8.83957 15.1178 8.83957C14.4621 8.83957 13.9305 9.37117 13.9305 10.0269C13.9305 10.6827 14.4621 11.2143 15.1178 11.2143Z" fill="black"/>
<path d="M8.73344 13.5519C9.00064 14.187 9.44944 14.7291 10.0236 15.1102C10.5977 15.4913 11.2716 15.6943 11.9606 15.6938C12.6498 15.6944 13.3238 15.4915 13.8981 15.1104C14.4724 14.7293 14.9213 14.1871 15.1885 13.5519L16.2431 13.9967C15.8877 14.8388 15.2916 15.5573 14.5295 16.0619C13.7674 16.5666 12.8732 16.8349 11.9592 16.8333C11.0459 16.8341 10.1527 16.5653 9.3914 16.0607C8.63014 15.5561 8.03468 14.8381 7.67961 13.9967L8.73344 13.5519Z" fill="black"/>
</svg>
