<svg width="24" height="24" viewBox="0 0 24 24" fill="none" xmlns="http://www.w3.org/2000/svg">
<path d="M11.9999 20.7188C9.68831 20.7161 7.47218 19.7966 5.83772 18.162C4.20326 16.5274 3.28395 14.3112 3.28149 11.9996C3.28414 9.68819 4.20353 7.47217 5.83797 5.83773C7.47241 4.20329 9.68843 3.2839 11.9999 3.28125C14.3113 3.2839 16.5274 4.20329 18.1618 5.83773C19.7962 7.47217 20.7156 9.68819 20.7183 11.9996C20.7158 14.3112 19.7965 16.5274 18.162 18.162C16.5276 19.7966 14.3115 20.7161 11.9999 20.7188ZM11.9999 4.42362C9.99129 4.42588 8.06562 5.2248 6.64533 6.64509C5.22504 8.06538 4.42613 9.99105 4.42386 11.9996C4.42594 14.0084 5.22477 15.9342 6.64508 17.3547C8.06539 18.7751 9.99117 19.5741 11.9999 19.5764C14.0086 19.5741 15.9344 18.7751 17.3547 17.3547C18.775 15.9342 19.5738 14.0084 19.5759 11.9996C19.5736 9.99105 18.7747 8.06538 17.3544 6.64509C15.9342 5.2248 14.0085 4.42588 11.9999 4.42362Z" fill="black"/>
<path d="M8.81982 11.2143C9.47557 11.2143 10.0072 10.6827 10.0072 10.0269C10.0072 9.37117 9.47557 8.83957 8.81982 8.83957C8.16407 8.83957 7.63247 9.37117 7.63247 10.0269C7.63247 10.6827 8.16407 11.2143 8.81982 11.2143Z" fill="black"/>
<path d="M15.1178 11.2143C15.7736 11.2143 16.3052 10.6827 16.3052 10.0269C16.3052 9.37117 15.7736 8.83957 15.1178 8.83957C14.4621 8.83957 13.9305 9.37117 13.9305 10.0269C13.9305 10.6827 14.4621 11.2143 15.1178 11.2143Z" fill="black"/>
<path d="M15.1892 15.8958C14.922 15.2607 14.4732 14.7186 13.8991 14.3375C13.325 13.9564 12.6511 13.7534 11.962 13.7539C11.2729 13.7533 10.5988 13.9562 10.0246 14.3373C9.45031 14.7184 9.00139 15.2606 8.73416 15.8958L7.67961 15.451C8.03496 14.6089 8.63107 13.8904 9.39318 13.3858C10.1553 12.8811 11.0494 12.6128 11.9635 12.6144C12.8768 12.6136 13.77 12.8824 14.5313 13.387C15.2925 13.8916 15.888 14.6096 16.2431 15.451L15.1892 15.8958Z" fill="black"/>
</svg>
