<svg width="24" height="24" viewBox="0 0 24 24" fill="none" xmlns="http://www.w3.org/2000/svg">
<path d="M1.67999 21.3599H7.67999V15.3599H5.37599V12.6959H11.304V15.3599H8.99999V21.3599H15V15.3599H12.696V12.6959H18.624V15.3599H16.32V21.3599H22.32V15.3599H20.016V11.3039H12.696V8.63989H15V2.63989H8.99999V8.63989H11.304V11.3039H3.98399V15.3599H1.67999V21.3599ZM3.07199 20.0399V16.6799H6.31199V20.0399H3.07199ZM10.392 20.0399V16.6799H13.632V20.0399H10.392ZM10.392 7.31989V3.95989H13.632V7.31989H10.392ZM17.712 20.0399V16.6799H20.952V20.0399H17.712Z" fill="black"/>
</svg>
