<svg width="24" height="24" viewBox="0 0 24 24" fill="none" xmlns="http://www.w3.org/2000/svg">
<path d="M20.832 21.8881L21.888 20.8321L3.16804 2.11206L2.11204 3.16806L5.88004 6.93606C4.22404 8.25606 2.83204 10.0081 1.92004 12.0001C3.91204 16.2961 8.11204 19.5121 12 19.5121C13.632 19.5121 15.312 18.9121 16.896 17.9521L20.832 21.8881ZM3.55204 12.0001C4.39204 10.4161 5.54404 9.04806 6.91204 7.96806L9.07204 10.1281C8.73604 10.6801 8.52004 11.3281 8.52004 12.0001C8.52004 13.9201 10.08 15.4801 12 15.4801C12.672 15.4801 13.32 15.2641 13.872 14.9281L15.816 16.8721C14.544 17.6401 13.296 18.0241 12 18.0241C8.78404 18.0241 5.47204 15.6241 3.55204 12.0001ZM9.07204 5.06406L10.2 6.21606C10.8 6.04806 11.4 5.95206 12 5.95206C15.168 5.95206 18.456 8.35206 20.376 12.0001C19.848 12.9601 19.272 13.8241 18.576 14.5921L19.632 15.6481C20.616 14.5921 21.456 13.3441 22.08 12.0001C20.088 7.70406 15.888 4.48806 12 4.48806C11.016 4.48806 10.032 4.70406 9.07204 5.06406ZM9.91204 12.0001C9.91204 11.6881 9.96004 11.4001 10.08 11.1361L12.864 13.9201C12.6 14.0401 12.312 14.0881 12 14.0881C10.848 14.0881 9.91204 13.1521 9.91204 12.0001Z" fill="black"/>
</svg>
