<svg width="24" height="24" viewBox="0 0 24 24" fill="none" xmlns="http://www.w3.org/2000/svg">
<path d="M12 19.512C15.888 19.512 20.088 16.296 22.08 12C20.088 7.70404 15.888 4.48804 12 4.48804C8.11204 4.48804 3.91204 7.70404 1.92004 12C3.91204 16.296 8.11204 19.512 12 19.512ZM3.64804 12C5.54404 8.35204 8.83204 5.95204 12 5.95204C15.168 5.95204 18.456 8.35204 20.352 12C18.456 15.648 15.168 18.024 12 18.024C8.83204 18.024 5.54404 15.648 3.64804 12ZM8.52004 12C8.52004 13.92 10.08 15.48 12 15.48C13.92 15.48 15.48 13.92 15.48 12C15.48 10.08 13.92 8.52004 12 8.52004C10.08 8.52004 8.52004 10.08 8.52004 12ZM9.91204 12C9.91204 10.848 10.848 9.88804 12 9.88804C13.152 9.88804 14.112 10.848 14.112 12C14.112 13.152 13.152 14.088 12 14.088C10.848 14.088 9.91204 13.152 9.91204 12Z" fill="black"/>
</svg>
