<svg width="24" height="24" viewBox="0 0 24 24" fill="none" xmlns="http://www.w3.org/2000/svg">
<path d="M10.8 12.216V13.296H8.08798L10.728 9.28801H10.848C10.824 10.176 10.8 11.232 10.8 12.216ZM4.15198 21.24H10.608C15.792 21.24 19.848 17.016 19.848 12C19.848 6.84001 15.768 2.76001 10.608 2.76001H4.15198V4.32001H10.608C14.928 4.32001 18.288 7.68001 18.288 12C18.288 16.176 14.928 19.68 10.608 19.68H4.15198V21.24ZM6.62398 14.568H10.8V16.464H12.288V14.568H13.68V13.296H12.288V7.58401H10.488L6.62398 13.416V14.568Z" fill="black"/>
</svg>
