<svg width="24" height="24" viewBox="0 0 24 24" fill="none" xmlns="http://www.w3.org/2000/svg">
<path d="M4.67999 20.7841H19.32C20.424 20.7841 21.24 19.9681 21.24 18.8641V9.98406C21.24 8.88006 20.424 8.06406 19.32 8.06406H18.36C18.792 7.56006 18.984 6.91206 18.984 6.31206C18.984 4.65606 17.64 3.21606 15.912 3.21606C15.36 3.21606 14.784 3.36006 14.328 3.64806C13.536 4.12806 12.912 4.99206 12.408 5.97606L12 6.76806L11.592 5.97606C11.088 4.99206 10.464 4.12806 9.67199 3.64806C9.21599 3.36006 8.63999 3.21606 8.08799 3.21606C6.35999 3.21606 5.01599 4.65606 5.01599 6.31206C5.01599 6.91206 5.20799 7.56006 5.63999 8.06406H4.67999C3.57599 8.06406 2.75999 8.88006 2.75999 9.98406V18.8641C2.75999 19.9681 3.57599 20.7841 4.67999 20.7841ZM4.31999 18.9121V13.7041H19.68V18.9121C19.68 19.1521 19.536 19.3201 19.296 19.3201H4.72799C4.46399 19.3201 4.31999 19.1521 4.31999 18.9121ZM4.31999 11.7841V9.93606C4.31999 9.67206 4.46399 9.52806 4.72799 9.52806H19.296C19.536 9.52806 19.68 9.67206 19.68 9.93606V11.7841H4.31999ZM5.87999 17.4721H9.47999V15.5521H5.87999V17.4721ZM6.40799 6.31206C6.40799 5.40006 7.12799 4.58406 8.08799 4.58406C9.19199 4.58406 9.83999 5.59206 10.368 6.60006L11.184 8.16006H9.40799C8.61599 8.16006 7.77599 8.13606 7.17599 7.75206C6.62399 7.44006 6.40799 6.84006 6.40799 6.31206ZM12.816 8.16006L13.632 6.60006C14.16 5.59206 14.808 4.58406 15.912 4.58406C16.872 4.58406 17.592 5.40006 17.592 6.31206C17.592 6.84006 17.376 7.44006 16.824 7.75206C16.248 8.13606 15.384 8.16006 14.592 8.16006H12.816Z" fill="black"/>
</svg>
