<svg width="24" height="24" viewBox="0 0 24 24" fill="none" xmlns="http://www.w3.org/2000/svg">
<path d="M9.072 21.0792C9.456 21.1992 9.696 20.9592 9.696 20.6472C9.696 20.6232 9.672 20.3112 9.672 19.6872C9.648 19.1112 9.648 18.6552 9.648 18.3432C9.336 18.4392 8.952 18.4632 8.688 18.4632C7.872 18.4632 6.816 18.2232 6.504 17.2152C6.12 16.5912 5.784 16.0152 5.448 15.8232C4.92 15.4392 4.968 15.2232 5.52 15.2232L5.736 15.2712C6.072 15.3432 6.648 15.6792 6.96 16.2072C7.272 16.8312 7.8 17.2392 8.616 17.2392C8.928 17.2392 9.312 17.1672 9.696 17.0472C9.768 16.4472 10.008 16.0392 10.296 15.7512C9.264 15.6552 8.808 15.5832 7.92 15.1992C7.488 15.0312 7.2 14.8152 6.96 14.5272C6.504 13.9752 6.072 12.9672 6.072 11.5272C6.072 10.7352 6.36 9.99121 6.96 9.34321C6.648 8.59921 6.696 7.73521 7.056 6.77521C7.728 6.58321 8.904 7.30321 9.648 7.83121C10.416 7.59121 11.208 7.47121 12.024 7.47121C12.84 7.47121 13.656 7.59121 14.424 7.83121L14.88 7.47121C15.48 7.01521 16.536 6.65521 17.016 6.77521C17.376 7.73521 17.4 8.59921 17.064 9.34321C17.808 10.1112 18.072 10.5912 18.072 11.5272C18.072 13.3512 17.544 14.6952 16.152 15.1992C15.264 15.5832 14.856 15.6072 13.752 15.7512C14.184 16.0872 14.376 16.6392 14.376 17.4792C14.376 17.9832 14.376 18.6312 14.376 19.4232V20.6472C14.376 20.9592 14.616 21.1992 15.024 21.0792C18.816 19.8312 21.36 16.2552 21.36 12.1032C21.36 6.82321 17.088 2.88721 12 2.88721C6.96 2.88721 2.64 6.84721 2.64 12.1032C2.64 16.2552 5.256 19.8312 9.072 21.0792ZM5.904 15.6072C5.88 15.6552 5.904 15.7032 6.024 15.7512C6.072 15.7992 6.12 15.7752 6.168 15.7032C6.192 15.6792 6.168 15.6312 6.072 15.5592C6.024 15.5352 5.952 15.5592 5.904 15.6072ZM6.288 15.8952C6.264 15.9432 6.264 15.9912 6.336 16.0872C6.432 16.1352 6.504 16.1592 6.528 16.1112C6.576 16.0632 6.576 15.9912 6.504 15.9192C6.432 15.8712 6.336 15.8472 6.288 15.8952ZM6.696 16.3752C6.576 16.3992 6.744 16.8072 6.912 16.6872C6.96 16.6152 6.96 16.5432 6.912 16.4472C6.84 16.3272 6.744 16.3032 6.696 16.3752ZM7.128 16.9272C7.056 16.9992 7.056 17.0712 7.2 17.1672C7.272 17.2872 7.368 17.2872 7.44 17.2152C7.488 17.1432 7.44 17.0712 7.368 16.9512C7.272 16.8552 7.2 16.8312 7.128 16.9272ZM7.896 17.5752C8.016 17.6232 8.088 17.5992 8.112 17.5032C8.136 17.4072 8.088 17.3352 7.968 17.3112C7.728 17.2392 7.608 17.5272 7.896 17.5752ZM8.496 17.5512C8.496 17.6712 8.592 17.7192 8.712 17.6952C8.856 17.6952 8.928 17.6232 8.928 17.5512C8.928 17.4552 8.832 17.4072 8.688 17.4312C8.568 17.4312 8.496 17.4792 8.496 17.5512ZM9.384 17.3112C9.144 17.3592 9.192 17.6712 9.432 17.5992C9.672 17.5272 9.624 17.3112 9.384 17.3112Z" fill="black"/>
</svg>
