<svg width="24" height="24" viewBox="0 0 24 24" fill="none" xmlns="http://www.w3.org/2000/svg">
<path d="M12 21.24C17.232 21.24 21.24 17.016 21.24 12C21.24 6.84001 17.208 2.76001 12 2.76001C6.79201 2.76001 2.76001 6.84001 2.76001 12C2.76001 17.16 6.79201 21.24 12 21.24ZM4.22401 12C4.22401 11.16 4.34401 10.344 4.58401 9.60001H7.75201C7.65601 10.368 7.60801 11.184 7.60801 12C7.60801 12.816 7.65601 13.632 7.75201 14.4H4.58401C4.34401 13.656 4.22401 12.84 4.22401 12ZM5.08801 15.672H7.99201C8.35201 17.232 8.97601 18.576 9.98401 19.584C7.82401 19.032 6.07201 17.592 5.08801 15.672ZM5.11201 8.30401C6.09601 6.36001 7.84801 4.94401 10.008 4.36801C9.00001 5.37601 8.35201 6.74401 7.99201 8.30401H5.11201ZM9.07201 12C9.07201 11.16 9.12001 10.368 9.24001 9.60001H14.76C14.88 10.368 14.928 11.16 14.928 12C14.928 12.84 14.88 13.632 14.76 14.4H9.24001C9.12001 13.632 9.07201 12.84 9.07201 12ZM9.48001 15.672H14.52C14.04 17.664 13.152 19.224 12 19.848C10.848 19.224 9.96001 17.664 9.48001 15.672ZM9.48001 8.30401C9.96001 6.31201 10.848 4.75201 12 4.12801C13.152 4.75201 14.04 6.31201 14.52 8.30401H9.48001ZM13.992 4.36801C16.152 4.94401 17.904 6.36001 18.888 8.30401H16.032C15.648 6.74401 15 5.37601 13.992 4.36801ZM14.04 19.584C15.024 18.576 15.672 17.208 16.032 15.672H18.888C17.88 17.568 16.152 19.008 14.04 19.584ZM16.272 14.4C16.368 13.632 16.416 12.816 16.416 12C16.416 11.184 16.368 10.368 16.272 9.60001H19.416C19.656 10.344 19.776 11.16 19.776 12C19.776 12.84 19.656 13.632 19.416 14.4H16.272Z" fill="black"/>
</svg>
