<svg width="24" height="24" viewBox="0 0 24 24" fill="none" xmlns="http://www.w3.org/2000/svg">
<path d="M2.83201 14.8321L7.77601 9.86412H15.48L19.872 5.49612C19.848 6.21612 19.848 6.93612 19.848 7.63212V9.28812H21.192V3.12012H15.048V4.48812H16.68C17.376 4.48812 18.096 4.48812 18.792 4.46412L14.856 8.40012H7.20001L2.83201 12.7441V14.8321ZM2.80801 20.8801H4.46401V17.9521H2.80801V20.8801ZM6.98401 20.8801H8.64001V16.0561H6.98401V20.8801ZM11.184 20.8801H12.816V12.9601H11.184V20.8801ZM15.36 20.8801H17.016V15.1201H15.36V20.8801ZM19.512 20.8801H21.168V12.0001H19.512V20.8801Z" fill="black"/>
</svg>
