<svg width="24" height="24" viewBox="0 0 24 24" fill="none" xmlns="http://www.w3.org/2000/svg">
<path d="M13.608 8.09999L11.16 10.548C10.944 10.74 10.728 10.86 10.464 10.86C9.83999 10.86 9.47999 10.38 9.47999 9.89999C9.47999 9.63599 9.59999 9.34799 9.74399 9.20399L12.24 6.73199C12.6 6.41999 13.056 6.22799 13.512 6.22799H15.432C15.912 6.22799 16.344 6.41999 16.704 6.73199L18.144 8.14799C18.48 8.50799 18.936 8.67599 19.392 8.67599H22.32V7.21199H19.584C19.416 7.21199 19.272 7.16399 19.176 7.04399L17.808 5.72399C17.184 5.09999 16.296 4.73999 15.432 4.73999H8.56799C7.70399 4.73999 6.81599 5.09999 6.19199 5.72399L4.82399 7.04399C4.72799 7.16399 4.60799 7.21199 4.41599 7.21199H1.67999V8.67599H4.60799C5.06399 8.67599 5.51999 8.50799 5.87999 8.14799L7.31999 6.73199C7.65599 6.41999 8.11199 6.22799 8.56799 6.22799H10.944L8.85599 8.29199C8.44799 8.69999 8.20799 9.29999 8.20799 9.87599C8.20799 11.124 9.19199 12.156 10.464 12.156C11.04 12.156 11.592 11.94 12.024 11.508L12.552 10.98L16.68 15.108L14.472 17.268C14.136 17.58 13.68 17.796 13.224 17.796H9.26399C8.80799 17.796 8.35199 17.58 8.03999 17.268L5.42399 14.7C5.06399 14.388 4.63199 14.196 4.15199 14.196H1.67999V15.66H3.98399C4.12799 15.66 4.27199 15.708 4.39199 15.828L6.93599 18.324C7.51199 18.876 8.39999 19.26 9.26399 19.26H13.224C14.088 19.26 14.976 18.876 15.552 18.3L18.24 15.66H22.32V14.196H17.592L13.464 10.068L14.52 9.01199L13.608 8.09999Z" fill="black"/>
</svg>
