<svg width="24" height="24" viewBox="0 0 24 24" fill="none" xmlns="http://www.w3.org/2000/svg">
<path d="M7.91997 21.3599L9.07197 20.2079L6.76797 17.9039L8.06397 16.6079L10.368 18.8879L11.52 17.7359L9.23997 15.4319L13.344 11.3039C14.112 11.8079 15.024 12.0959 16.008 12.0959C18.72 12.0959 20.832 9.95989 20.832 7.36789C20.832 4.77589 18.72 2.63989 16.008 2.63989C13.296 2.63989 11.184 4.77589 11.184 7.36789C11.184 8.42389 11.544 9.40789 12.144 10.1759L3.16797 19.1759L4.31997 20.3279L5.59197 19.0799L7.91997 21.3599ZM12.84 7.36789C12.84 5.59189 14.256 4.19989 16.008 4.19989C17.784 4.19989 19.176 5.59189 19.176 7.36789C19.176 9.11989 17.784 10.5359 16.008 10.5359C14.256 10.5359 12.84 9.11989 12.84 7.36789Z" fill="black"/>
</svg>
