<svg width="24" height="24" viewBox="0 0 24 24" fill="none" xmlns="http://www.w3.org/2000/svg">
<path d="M8.56798 17.688V21.72H15.432V17.688C15.432 16.704 15.648 16.296 16.68 15.12L17.256 14.472C18.624 12.96 19.296 11.352 19.296 9.45603C19.296 5.20803 15.864 2.28003 12 2.28003C8.13598 2.28003 4.70398 5.20803 4.70398 9.45603C4.70398 11.352 5.37598 12.96 6.74398 14.472L7.31998 15.12C8.35198 16.296 8.56798 16.704 8.56798 17.688ZM6.26398 9.45603C6.26398 6.04803 8.95198 3.74403 12 3.74403C15.048 3.74403 17.736 6.04803 17.736 9.45603C17.736 10.992 17.184 12.264 16.08 13.512L15.528 14.136C14.424 15.384 13.944 16.2 13.872 17.472H12.744V12.48H11.256V17.472H10.128C10.056 16.2 9.57598 15.384 8.47198 14.136L7.91998 13.512C6.81598 12.264 6.26398 10.992 6.26398 9.45603ZM10.128 20.256V18.84H13.872V20.256H10.128Z" fill="black"/>
</svg>
