<svg width="24" height="24" viewBox="0 0 24 24" fill="none" xmlns="http://www.w3.org/2000/svg">
<path d="M7.68001 16.3441L12 22.1281L16.32 16.3441C17.976 14.1121 19.344 11.8321 19.344 9.33607C19.32 4.72807 15.792 1.87207 12 1.87207C8.20801 1.87207 4.68001 4.72807 4.65601 9.33607C4.65601 11.8321 6.02401 14.1121 7.68001 16.3441ZM6.21601 9.33607C6.24001 5.66407 9.00001 3.43207 12 3.43207C15 3.43207 17.76 5.66407 17.784 9.33607C17.784 11.3521 16.656 13.2961 15.072 15.4081L12 19.5121L8.92801 15.4081C7.36801 13.2961 6.21601 11.3521 6.21601 9.33607ZM8.52001 9.24007C8.52001 11.1841 10.08 12.7201 12 12.7201C13.92 12.7201 15.48 11.1841 15.48 9.24007C15.48 7.32007 13.92 5.76007 12 5.76007C10.08 5.76007 8.52001 7.32007 8.52001 9.24007ZM9.91201 9.24007C9.91201 8.08807 10.848 7.15207 12 7.15207C13.152 7.15207 14.112 8.08807 14.112 9.24007C14.112 10.4161 13.152 11.3521 12 11.3521C10.848 11.3521 9.91201 10.4161 9.91201 9.24007Z" fill="black"/>
</svg>
