<svg width="24" height="24" viewBox="0 0 24 24" fill="none" xmlns="http://www.w3.org/2000/svg">
<path d="M7.82401 21.24H9.21601V17.88H11.304V21.24H12.696V17.88H14.784V21.24H16.176V17.88H17.88V16.176H21.24V14.784H17.88V12.696H21.24V11.304H17.88V9.21601H21.24V7.82401H17.88V6.12001H16.176V2.76001H14.784V6.12001H12.696V2.76001H11.304V6.12001H9.21601V2.76001H7.82401V6.12001H6.12001V7.82401H2.76001V9.21601H6.12001V11.304H2.76001V12.696H6.12001V14.784H2.76001V16.176H6.12001V17.88H7.82401V21.24ZM7.58401 16.416V7.58401H16.416V16.416H7.58401ZM10.296 13.704H13.704V10.296H10.296V13.704Z" fill="black"/>
</svg>
