<svg width="24" height="24" viewBox="0 0 24 24" fill="none" xmlns="http://www.w3.org/2000/svg">
<path d="M8.004 20.8801H10.956C12.564 20.8801 13.956 20.2801 14.94 18.9841C15.06 18.8401 15.18 18.6721 15.276 18.5041H16.116C18.948 18.5041 21.06 16.6321 21.06 14.0161C21.06 11.3521 18.948 9.48012 16.116 9.48012H2.94V15.0001C2.94 16.8241 3.276 18.0241 4.044 18.9841C5.052 20.2801 6.396 20.8801 8.004 20.8801ZM4.596 15.9841V10.9441H14.364V15.9841C14.364 18.2641 13.452 19.3201 11.124 19.3201H7.86C5.556 19.3201 4.596 18.2881 4.596 15.9841ZM6.612 7.92012H8.268C8.244 6.88812 8.748 6.48012 10.092 6.28812L11.82 6.07212C13.692 5.85612 14.868 4.87212 14.772 3.12012H13.14C13.14 4.15212 12.636 4.56012 11.316 4.75212L9.588 4.96812C7.692 5.18412 6.516 6.16812 6.612 7.92012ZM15.828 17.0401C15.972 16.4641 16.02 15.7921 16.02 15.0001V10.9441C18.468 10.9441 19.404 11.6641 19.404 13.5841V14.4241C19.404 16.2721 18.516 17.0401 16.212 17.0401H15.828Z" fill="black"/>
</svg>
