<svg width="24" height="24" viewBox="0 0 24 24" fill="none" xmlns="http://www.w3.org/2000/svg">
<path d="M2.64001 21.2999H21.36V14.724H2.66401L2.64001 21.2999ZM4.03201 19.9079V16.116H10.56C10.128 16.62 9.88802 17.292 9.86402 18.012C9.88802 18.732 10.128 19.404 10.56 19.9079H4.03201ZM7.63202 8.67595L12 13.02L16.344 8.67595L15.36 7.71595L14.112 8.93995L12.744 10.38V2.69995H11.256V10.404C10.8 9.89995 10.344 9.41995 9.86402 8.93995L8.61602 7.71595L7.63202 8.67595ZM11.256 18.012C11.256 16.98 12.12 16.116 13.104 16.116H19.992V19.9079H13.104C12.12 19.9079 11.256 19.044 11.256 18.012ZM12.264 18.012C12.264 18.588 12.72 19.044 13.296 19.044C13.848 19.044 14.328 18.588 14.328 18.012C14.328 17.436 13.848 16.98 13.296 16.98C12.72 16.98 12.264 17.436 12.264 18.012Z" fill="black"/>
</svg>
