<svg width="24" height="24" viewBox="0 0 24 24" fill="none" xmlns="http://www.w3.org/2000/svg">
<path d="M14.868 19.8479L4.812 9.76791L8.412 6.19191L18.468 16.2719C19.068 16.8239 19.284 17.4719 19.284 18.1199C19.284 19.5359 18.156 20.6639 16.74 20.6639C16.092 20.6639 15.444 20.4239 14.868 19.8479ZM2.724 9.76791L13.14 20.1839V21.8399H20.436V11.9279H21.276V9.47991H20.436V6.74391H21.276V4.29591H20.436V2.15991H13.308V8.99991L8.388 4.10391L2.724 9.76791ZM15.348 18.1199C15.348 18.8639 15.948 19.5359 16.764 19.5359C17.532 19.5359 18.132 18.8639 18.132 18.1199C18.132 17.3519 17.508 16.7519 16.764 16.7519C15.948 16.7519 15.348 17.3519 15.348 18.1199Z" fill="black"/>
</svg>
