<svg width="24" height="24" viewBox="0 0 24 24" fill="none" xmlns="http://www.w3.org/2000/svg">
<path d="M13.488 16.704C15.816 16.704 17.088 14.832 17.064 11.904C17.04 9.04801 15.72 7.34401 13.488 7.34401C11.76 7.34401 10.296 8.66401 10.296 10.488C10.296 12.216 11.592 13.512 13.248 13.512C14.136 13.512 14.928 13.128 15.312 12.432H15.528C15.552 14.28 14.976 15.336 13.464 15.336C12.384 15.336 11.832 14.832 11.736 13.848H10.2C10.32 15.576 11.688 16.704 13.488 16.704ZM4.15198 12C4.15198 17.16 8.23198 21.24 13.392 21.24H19.848V19.68H13.392C9.09598 19.68 5.71198 16.296 5.71198 12C5.71198 7.80001 9.09598 4.32001 13.392 4.32001H19.848V2.76001H13.392C8.20798 2.76001 4.15198 6.96001 4.15198 12ZM11.832 10.704V10.152C11.832 9.21601 12.36 8.73601 13.44 8.73601H13.632C14.736 8.73601 15.264 9.24001 15.264 10.152V10.704C15.264 11.64 14.736 12.12 13.632 12.12H13.44C12.36 12.12 11.832 11.64 11.832 10.704Z" fill="black"/>
</svg>
