<svg width="24" height="24" viewBox="0 0 24 24" fill="none" xmlns="http://www.w3.org/2000/svg">
<path d="M10.704 16.704C13.032 16.704 14.304 14.832 14.28 11.904C14.256 9.04801 12.936 7.34401 10.704 7.34401C8.97598 7.34401 7.51198 8.66401 7.51198 10.488C7.51198 12.216 8.80798 13.512 10.464 13.512C11.352 13.512 12.144 13.128 12.552 12.432H12.744C12.768 14.28 12.192 15.336 10.68 15.336C9.59998 15.336 9.04798 14.832 8.95198 13.848H7.41598C7.53598 15.576 8.90398 16.704 10.704 16.704ZM4.15198 21.24H10.608C15.792 21.24 19.848 17.016 19.848 12C19.848 6.84001 15.768 2.76001 10.608 2.76001H4.15198V4.32001H10.608C14.928 4.32001 18.288 7.68001 18.288 12C18.288 16.176 14.928 19.68 10.608 19.68H4.15198V21.24ZM9.04798 10.704V10.152C9.04798 9.21601 9.57598 8.73601 10.656 8.73601H10.848C11.952 8.73601 12.48 9.24001 12.48 10.152V10.704C12.48 11.64 11.952 12.12 10.848 12.12H10.656C9.57598 12.12 9.04798 11.64 9.04798 10.704Z" fill="black"/>
</svg>
