<svg width="24" height="24" viewBox="0 0 24 24" fill="none" xmlns="http://www.w3.org/2000/svg">
<path d="M18.072 21.5999L21.6 17.9279L15.984 12.8639L11.712 17.0399C10.824 16.3919 9.96 15.6479 9.144 14.8559C8.352 14.0399 7.608 13.1759 6.96 12.2879L11.136 8.0159L6.072 2.3999L2.4 5.9519C3.12 9.5999 5.304 13.1519 8.064 15.9359C10.872 18.7199 14.376 20.9039 18.072 21.5999ZM4.104 6.4559L6 4.6319L9 7.9919L6.072 10.9679C5.184 9.5279 4.512 8.0159 4.104 6.4559ZM13.032 17.9279L16.008 14.9999L19.368 17.9999L17.544 19.8959C15.96 19.4879 14.448 18.8159 13.032 17.9279Z" fill="black"/>
</svg>
