<svg width="24" height="24" viewBox="0 0 24 24" fill="none" xmlns="http://www.w3.org/2000/svg">
<path d="M9.948 22.092L13.116 19.02L12.06 15.9L14.1 13.836L17.964 21.156L20.556 18.324L18.54 9.41996L21.324 6.63596C21.804 6.13196 22.092 5.43596 22.092 4.71596C22.092 3.08396 20.82 1.90796 19.284 1.90796C18.516 1.90796 17.844 2.24396 17.148 2.93996L14.604 5.45996L5.628 3.41996L2.916 6.10796L10.164 9.89996L8.124 11.94L4.98 10.956L1.908 14.052L7.14 16.932L9.948 22.092ZM4.332 13.716L5.412 12.612L8.532 13.62L12.636 9.51596L5.388 5.72396L6.108 5.02796L15.06 7.06796L18.18 3.97196C18.612 3.53996 18.924 3.37196 19.284 3.37196C20.028 3.37196 20.628 3.89996 20.628 4.71596C20.628 5.05196 20.508 5.36396 20.292 5.57996L16.932 8.93996L18.948 17.892L18.3 18.612L14.484 11.388L10.356 15.492L11.436 18.612L10.308 19.692L8.22 15.852L4.332 13.716Z" fill="black"/>
</svg>
