<svg width="24" height="24" viewBox="0 0 24 24" fill="none" xmlns="http://www.w3.org/2000/svg">
<path d="M13.464 9.88799H20.112V3.23999H13.464V9.88799ZM2.64001 13.08H21.36V11.592H2.64001V13.08ZM3.88801 20.76H10.536V14.76H9.21602V19.44H5.20801V14.76H3.88801V20.76ZM3.88801 9.88799H10.536V3.23999H3.88801V9.88799ZM5.20801 8.56799V4.55999H9.21602V8.56799H5.20801ZM6.48001 18.192H7.99202V16.656H6.48001V18.192ZM6.48001 7.31999H7.99202V5.80799H6.48001V7.31999ZM13.464 20.76H14.976V19.248H13.464V20.76ZM13.464 16.272H16.488V14.76H13.464V16.272ZM14.784 8.56799V4.55999H18.792V8.56799H14.784ZM14.976 19.248H17.976V16.272H16.488V17.736H14.976V19.248ZM16.032 7.31999H17.544V5.80799H16.032V7.31999ZM18.12 20.76H20.112V17.736H18.12V20.76Z" fill="black"/>
</svg>
