<svg width="24" height="24" viewBox="0 0 24 24" fill="none" xmlns="http://www.w3.org/2000/svg">
<path d="M12 21.3599C17.16 21.3599 21.36 17.1599 21.36 11.9999C21.36 6.83989 17.16 2.63989 12 2.63989C6.84002 2.63989 2.64001 6.83989 2.64001 11.9999C2.64001 17.1599 6.84002 21.3599 12 21.3599ZM6.40801 11.7119C6.40801 11.0159 6.96002 10.4639 7.65602 10.4639C7.99202 10.4639 8.30402 10.6079 8.52002 10.8239C9.38402 10.2239 10.512 9.86389 11.784 9.81589L12.504 6.55189C12.528 6.40789 12.624 6.35989 12.768 6.38389L15.072 6.88789C15.216 6.57589 15.528 6.38389 15.912 6.38389C16.44 6.38389 16.848 6.79189 16.848 7.31989C16.848 7.84789 16.44 8.25589 15.912 8.25589C15.384 8.25589 14.976 7.84789 14.976 7.31989L12.888 6.86389L12.24 9.81589C13.488 9.86389 14.64 10.2239 15.48 10.8239C15.696 10.6079 16.008 10.4639 16.344 10.4639C17.04 10.4639 17.592 11.0159 17.592 11.7119C17.592 12.1919 17.328 12.5999 16.92 12.8159C16.968 13.0079 16.992 13.1999 16.992 13.3919C16.992 15.3599 14.784 16.9679 12 16.9679C9.21602 16.9679 7.00802 15.3599 7.00802 13.3919C7.00802 13.1999 7.03202 13.0079 7.08002 12.8159C6.67201 12.5999 6.40801 12.1919 6.40801 11.7119ZM9.00002 12.9359C9.00002 13.4639 9.40802 13.8719 9.93602 13.8719C10.464 13.8719 10.872 13.4639 10.872 12.9359C10.872 12.4079 10.464 11.9999 9.93602 11.9999C9.40802 11.9999 9.00002 12.4079 9.00002 12.9359ZM9.81602 14.9999C9.81602 15.0719 9.84002 15.1439 9.91202 15.1919C10.392 15.5759 11.232 15.7919 12 15.7919C12.792 15.7919 13.656 15.5759 14.112 15.1679C14.16 15.1439 14.184 15.0719 14.184 14.9999C14.184 14.8559 14.088 14.7599 13.944 14.7599C13.872 14.7599 13.824 14.7839 13.776 14.8319C13.416 15.1439 12.744 15.3119 12 15.3119C11.28 15.3119 10.608 15.1439 10.2 14.8079C10.176 14.7839 10.104 14.7599 10.056 14.7599C9.91202 14.7599 9.81602 14.8559 9.81602 14.9999ZM13.128 12.9359C13.128 13.4639 13.536 13.8719 14.064 13.8719C14.592 13.8719 15 13.4639 15 12.9359C15 12.4079 14.592 11.9999 14.064 11.9999C13.536 11.9999 13.128 12.4079 13.128 12.9359Z" fill="black"/>
</svg>
