<svg width="24" height="24" viewBox="0 0 24 24" fill="none" xmlns="http://www.w3.org/2000/svg">
<path d="M2.76001 11.8799V12.6479H4.32001V11.8799C4.32001 7.65589 7.72801 4.31989 11.976 4.31989C14.544 4.31989 16.776 5.54389 18.168 7.46389C17.496 7.41589 16.752 7.39189 16.08 7.39189H14.28V8.78389H20.424V2.63989H19.032V4.43989C19.032 5.03989 19.056 5.66389 19.08 6.28789C17.232 3.93589 14.592 2.75989 11.976 2.75989C6.86401 2.75989 2.76001 6.79189 2.76001 11.8799ZM3.60001 21.3599H4.99201V19.5599C4.99201 18.9599 4.96801 18.3359 4.94401 17.7119C6.79201 20.0639 9.43201 21.2399 12.024 21.2399C17.136 21.2399 21.24 17.1839 21.24 12.1199V11.3519H19.68V12.1199C19.68 16.3439 16.296 19.6799 12.024 19.6799C9.48001 19.6799 7.24801 18.4319 5.85601 16.5359C6.52801 16.5839 7.27201 16.5839 7.94401 16.5839H9.74401V15.2159H3.60001V21.3599Z" fill="black"/>
</svg>
