<svg width="24" height="24" viewBox="0 0 24 24" fill="none" xmlns="http://www.w3.org/2000/svg">
<path d="M5.20798 18.1801H18.792V16.8121H16.968C18.96 15.3721 20.16 13.0681 20.16 10.5001C20.16 6.01209 16.488 2.34009 12 2.34009C7.51198 2.34009 3.83998 6.01209 3.83998 10.5001C3.83998 13.0681 5.03998 15.3481 7.03198 16.8121H5.20798V18.1801ZM1.91998 21.6601H22.08V14.8201H20.52V20.1961H3.47998V14.8201H1.91998V21.6601ZM5.39998 10.5001C5.39998 6.85209 8.35198 3.90009 12 3.90009C15.648 3.90009 18.6 6.85209 18.6 10.5001C18.6 13.5721 16.44 16.1641 13.584 16.8121H10.44C7.55998 16.1641 5.39998 13.5721 5.39998 10.5001Z" fill="black"/>
</svg>
