<svg width="24" height="24" viewBox="0 0 24 24" fill="none" xmlns="http://www.w3.org/2000/svg">
<path d="M15.228 16.4039L20.916 22.0679L22.068 20.9159L16.404 15.2279C17.556 13.8359 18.252 12.0359 18.252 10.0919C18.252 5.60389 14.58 1.93188 10.092 1.93188C5.60401 1.93188 1.93201 5.60389 1.93201 10.0919C1.93201 14.5799 5.60401 18.2519 10.092 18.2519C12.036 18.2519 13.836 17.5559 15.228 16.4039ZM3.49201 10.0919C3.49201 6.44389 6.46801 3.49188 10.092 3.49188C13.74 3.49188 16.692 6.44389 16.692 10.0919C16.692 13.7159 13.74 16.6919 10.092 16.6919C6.46801 16.6919 3.49201 13.7159 3.49201 10.0919ZM7.09201 11.1479C7.06801 12.6119 8.10001 13.6679 9.58801 13.8839V14.8199H10.596V13.8839C12.06 13.7159 13.092 12.7559 13.092 11.5319C13.092 10.3559 12.276 9.65989 10.932 9.49189L9.66001 9.32389C8.86801 9.22789 8.55601 8.96389 8.55601 8.33989C8.55601 7.57189 9.10801 7.25989 10.116 7.25989C11.268 7.25989 11.652 7.61989 11.628 8.67589H12.924C12.924 7.37989 11.964 6.37189 10.596 6.15589V5.21989H9.58801V6.17989C8.26801 6.34789 7.33201 7.25989 7.33201 8.43589C7.33201 9.56389 8.05201 10.2359 9.30001 10.3799L10.524 10.5239C11.412 10.6199 11.772 10.9079 11.772 11.6039C11.772 12.4439 11.292 12.7799 10.116 12.7799C8.79601 12.7799 8.36401 12.3479 8.36401 11.1479H7.09201Z" fill="black"/>
</svg>
