<svg width="24" height="24" viewBox="0 0 24 24" fill="none" xmlns="http://www.w3.org/2000/svg">
<path d="M14.592 22.104L14.856 18.984C15.552 18.72 16.152 18.384 16.728 17.952L19.536 19.272L22.08 14.88L19.56 13.152C19.608 12.768 19.632 12.408 19.632 12C19.632 11.592 19.608 11.232 19.56 10.848L22.08 9.12L19.56 4.728L16.752 6.024C16.176 5.592 15.552 5.256 14.856 4.992L14.592 1.896H9.40804L9.14404 4.992C8.44804 5.256 7.84804 5.616 7.27204 6.048L4.46404 4.728L1.92004 9.096L4.48804 10.872C4.44004 11.232 4.41604 11.616 4.41604 12C4.41604 12.384 4.44004 12.768 4.48804 13.128L1.92004 14.904L4.46404 19.272L7.27204 17.952C7.84804 18.384 8.44804 18.744 9.14404 19.008L9.40804 22.104H14.592ZM3.96004 15.336L6.24004 13.752C6.04804 13.152 5.97604 12.648 5.97604 12C5.97604 11.352 6.04804 10.848 6.24004 10.248L3.96004 8.664L5.11204 6.672L7.56004 7.824C8.44804 6.912 9.36004 6.36 10.632 6.096L10.848 3.36H13.152L13.368 6.096C14.664 6.384 15.576 6.888 16.464 7.8L18.888 6.672L20.04 8.688L17.808 10.2C18 10.872 18.072 11.376 18.072 12C18.072 12.624 18 13.128 17.808 13.8L20.04 15.312L18.888 17.328L16.44 16.176C15.576 17.064 14.64 17.592 13.368 17.928L13.152 20.64H10.848L10.632 17.904C9.36004 17.64 8.44804 17.088 7.56004 16.176L5.11204 17.328L3.96004 15.336ZM8.52004 12C8.52004 13.92 10.08 15.48 12 15.48C13.92 15.48 15.48 13.92 15.48 12C15.48 10.08 13.92 8.52 12 8.52C10.08 8.52 8.52004 10.08 8.52004 12ZM9.91204 12C9.91204 10.848 10.848 9.888 12 9.888C13.152 9.888 14.112 10.848 14.112 12C14.112 13.152 13.152 14.088 12 14.088C10.848 14.088 9.91204 13.152 9.91204 12Z" fill="black"/>
</svg>
