<svg width="24" height="24" viewBox="0 0 24 24" fill="none" xmlns="http://www.w3.org/2000/svg">
<path d="M10.56 16.704C12.48 16.704 13.8 15.384 13.8 13.608C13.8 11.832 12.456 10.536 10.8 10.536C9.93598 10.536 9.14398 10.92 8.73598 11.592H8.51998C8.51998 9.79201 9.04798 8.71201 10.608 8.71201C11.592 8.71201 12.216 9.12001 12.336 9.98401H13.776C13.536 8.37601 12.336 7.34401 10.608 7.34401C8.30398 7.34401 6.98398 9.21601 7.00798 12.144C7.03198 15 8.32798 16.704 10.56 16.704ZM4.15198 21.24H10.608C15.792 21.24 19.848 17.016 19.848 12C19.848 6.84001 15.768 2.76001 10.608 2.76001H4.15198V4.32001H10.608C14.928 4.32001 18.288 7.68001 18.288 12C18.288 16.176 14.928 19.68 10.608 19.68H4.15198V21.24ZM8.75998 13.872V13.272C8.75998 12.336 9.31198 11.832 10.44 11.832H10.632C11.76 11.832 12.288 12.336 12.288 13.272V13.872C12.288 14.808 11.76 15.312 10.632 15.312H10.44C9.28798 15.312 8.75998 14.784 8.75998 13.872Z" fill="black"/>
</svg>
