<svg width="24" height="24" viewBox="0 0 24 24" fill="none" xmlns="http://www.w3.org/2000/svg">
<path d="M13.344 16.704C15.264 16.704 16.584 15.384 16.584 13.608C16.584 11.832 15.24 10.536 13.584 10.536C12.72 10.536 11.928 10.92 11.52 11.592H11.28C11.304 9.79201 11.832 8.71201 13.392 8.71201C14.376 8.71201 15 9.12001 15.12 9.98401H16.56C16.32 8.37601 15.12 7.34401 13.392 7.34401C11.088 7.34401 9.76798 9.21601 9.79198 12.144C9.81598 15 11.112 16.704 13.344 16.704ZM4.15198 12C4.15198 17.16 8.23198 21.24 13.392 21.24H19.848V19.68H13.392C9.09598 19.68 5.71198 16.296 5.71198 12C5.71198 7.80001 9.09598 4.32001 13.392 4.32001H19.848V2.76001H13.392C8.20798 2.76001 4.15198 6.96001 4.15198 12ZM11.544 13.872V13.272C11.544 12.336 12.096 11.832 13.224 11.832H13.416C14.544 11.832 15.072 12.336 15.072 13.272V13.872C15.072 14.808 14.544 15.312 13.416 15.312H13.224C12.072 15.312 11.544 14.784 11.544 13.872Z" fill="black"/>
</svg>
