<svg width="24" height="24" viewBox="0 0 24 24" fill="none" xmlns="http://www.w3.org/2000/svg">
<path d="M12.312 6.98389L7.944 2.63989L3.6 6.98389L4.584 7.94389L5.856 6.69589C6.288 6.23989 6.768 5.75989 7.2 5.27989V20.3999H8.688V5.23189C9.144 5.73589 9.6 6.21589 10.056 6.69589L11.352 7.94389L12.312 6.98389ZM11.688 17.0159L16.056 21.3599L20.4 17.0159L19.416 16.0559L18.168 17.3039C17.712 17.7599 17.256 18.2399 16.8 18.7199V3.59989H15.312V18.7439C14.856 18.2639 14.4 17.7599 13.944 17.3039L12.672 16.0559L11.688 17.0159Z" fill="black"/>
</svg>
