<svg width="24" height="24" viewBox="0 0 24 24" fill="none" xmlns="http://www.w3.org/2000/svg">
<path d="M12 21.9001C16.488 21.9001 20.16 18.2281 20.16 13.7401C20.16 11.7961 19.464 9.9961 18.312 8.6041L19.536 7.3561L18.384 6.2041L17.136 7.4281C15.936 6.4201 14.424 5.7721 12.792 5.6281V3.6601H14.64V2.1001H9.36V3.6601H11.232V5.6281C7.104 6.0121 3.84 9.5161 3.84 13.7401C3.84 18.2281 7.512 21.9001 12 21.9001ZM5.4 13.7401C5.4 10.0921 8.376 7.1401 12 7.1401C15.648 7.1401 18.6 10.0921 18.6 13.7401C18.6 17.3641 15.648 20.3401 12 20.3401C8.376 20.3401 5.4 17.3641 5.4 13.7401ZM11.232 14.2201C11.232 14.6521 11.568 14.9881 12 14.9881C12.432 14.9881 12.792 14.6521 12.792 14.2201V8.8681H11.232V14.2201Z" fill="black"/>
</svg>
