<svg width="24" height="24" viewBox="0 0 24 24" fill="none" xmlns="http://www.w3.org/2000/svg">
<path d="M4.06801 20.124H19.908C21.228 18.444 22.068 16.284 22.068 13.956C22.068 12.012 21.516 10.212 20.556 8.69998L19.428 9.85198C20.1 11.052 20.508 12.468 20.508 13.956C20.508 15.66 19.98 17.244 19.116 18.564H4.86001C3.99601 17.244 3.49201 15.66 3.49201 13.956C3.49201 9.25198 7.30801 5.43598 11.988 5.43598C13.476 5.43598 14.892 5.84398 16.092 6.51598L17.244 5.38798C15.732 4.42798 13.932 3.87598 11.988 3.87598C6.44401 3.87598 1.93201 8.41198 1.93201 13.956C1.93201 16.284 2.74801 18.444 4.06801 20.124ZM11.22 13.956C11.22 14.388 11.556 14.724 11.988 14.724C12.204 14.724 12.396 14.652 12.54 14.508L19.668 7.35598L18.588 6.27598L11.436 13.404C11.292 13.548 11.22 13.74 11.22 13.956Z" fill="black"/>
</svg>
