<svg width="24" height="24" viewBox="0 0 24 24" fill="none" xmlns="http://www.w3.org/2000/svg">
<path d="M7.02003 21.3599H16.98C17.964 21.3599 18.78 20.5439 18.78 19.5599V9.28789H17.22V19.5119C17.22 19.7279 17.052 19.8959 16.836 19.8959H7.14003C6.92403 19.8959 6.78003 19.7279 6.78003 19.5119V9.28789H5.22003V19.5599C5.22003 20.5439 6.03603 21.3599 7.02003 21.3599ZM3.66003 7.65589H20.34V6.19189H16.068V4.17589C16.068 3.31189 15.396 2.63989 14.532 2.63989H9.44403C8.58003 2.63989 7.90803 3.31189 7.90803 4.17589V6.19189H3.66003V7.65589ZM9.30003 6.19189V4.31989C9.30003 4.12789 9.39603 4.00789 9.58803 4.00789H14.388C14.58 4.00789 14.7 4.12789 14.7 4.31989V6.19189H9.30003ZM9.32403 17.2799H10.812V10.6079H9.32403V17.2799ZM13.164 17.2799H14.652V10.6079H13.164V17.2799Z" fill="black"/>
</svg>
