<svg width="24" height="24" viewBox="0 0 24 24" fill="none" xmlns="http://www.w3.org/2000/svg">
<path d="M7.53598 16.464H13.776V15.096L9.35998 15.12V14.76L11.808 13.176C13.272 12.216 13.848 11.304 13.848 10.176C13.848 8.37601 12.408 7.34401 10.632 7.34401C8.66398 7.34401 7.34398 8.66401 7.34398 10.176V10.464H8.87998V10.2C8.87998 9.24001 9.31198 8.71201 10.56 8.71201H10.68C11.784 8.71201 12.288 9.14401 12.288 10.224C12.288 10.968 12.048 11.496 10.44 12.552L7.53598 14.472V16.464ZM4.15198 21.24H10.608C15.792 21.24 19.848 17.016 19.848 12C19.848 6.84001 15.768 2.76001 10.608 2.76001H4.15198V4.32001H10.608C14.928 4.32001 18.288 7.68001 18.288 12C18.288 16.176 14.928 19.68 10.608 19.68H4.15198V21.24Z" fill="black"/>
</svg>
