<svg width="24" height="24" viewBox="0 0 24 24" fill="none" xmlns="http://www.w3.org/2000/svg">
<path d="M10.32 16.464H16.56V15.096L12.144 15.12V14.76L14.568 13.176C16.056 12.216 16.632 11.304 16.632 10.176C16.632 8.37601 15.192 7.34401 13.416 7.34401C11.448 7.34401 10.128 8.66401 10.128 10.176V10.464H11.664V10.2C11.664 9.24001 12.096 8.71201 13.344 8.71201H13.464C14.568 8.71201 15.072 9.14401 15.072 10.224C15.072 10.968 14.832 11.52 13.224 12.552L10.32 14.472V16.464ZM4.15198 12C4.15198 17.16 8.23198 21.24 13.392 21.24H19.848V19.68H13.392C9.09598 19.68 5.71198 16.296 5.71198 12C5.71198 7.80001 9.09598 4.32001 13.392 4.32001H19.848V2.76001H13.392C8.20798 2.76001 4.15198 6.96001 4.15198 12Z" fill="black"/>
</svg>
