<svg width="24" height="24" viewBox="0 0 24 24" fill="none" xmlns="http://www.w3.org/2000/svg">
<path d="M7.10399 11.8799V21.8399H8.66399V11.8799C10.56 11.5199 11.976 9.83991 11.976 7.91991V2.39991H10.512V7.91991C10.512 9.19191 9.76799 10.1759 8.66399 10.4639V2.39991H7.10399V10.4639C5.99999 10.1759 5.25599 9.19191 5.25599 7.91991V2.39991H3.79199V7.91991C3.79199 9.83991 5.20799 11.5199 7.10399 11.8799ZM14.016 16.7999H18.648V21.8399H20.208V2.15991C16.776 2.15991 14.016 4.89591 14.016 8.32791V16.7999ZM15.576 15.4079V8.32791C15.576 6.04791 16.776 4.36791 18.648 3.81591V15.4079H15.576Z" fill="black"/>
</svg>
