<svg width="24" height="24" viewBox="0 0 24 24" fill="none" xmlns="http://www.w3.org/2000/svg">
<path fill-rule="evenodd" clip-rule="evenodd" d="M3.532 9.43888C4.03622 9.943 4.6647 10.2943 5.34547 10.463H2.2948V21.1875H17.8482V17.7299L21.7049 20.9359V9.99962L17.8482 13.4387V10.463H14.8016C15.4824 10.2943 16.1108 9.943 16.6151 9.43888C17.3429 8.71116 17.7525 7.72442 17.7538 6.69515C17.7525 5.6658 17.343 4.67899 16.6151 3.95113C15.8872 3.22327 14.9004 2.81379 13.8711 2.8125C12.8418 2.81379 11.8551 3.2233 11.1273 3.95118C10.5914 4.48722 10.2282 5.1637 10.0735 5.89414C9.91887 5.1637 9.55564 4.48722 9.01971 3.95118C8.29199 3.2233 7.30525 2.81379 6.27598 2.8125C5.24663 2.81379 4.25982 3.22327 3.53196 3.95113C2.8041 4.67899 2.3946 5.6658 2.39331 6.69515C2.3946 7.72442 2.80412 8.71116 3.532 9.43888ZM11.1276 9.4386C11.6319 9.94286 12.2605 10.2943 12.9414 10.463H7.20567C7.88658 10.2943 8.51517 9.94286 9.01944 9.4386C9.55552 8.90252 9.91884 8.22593 10.0735 7.49535C10.2282 8.22593 10.5915 8.90252 11.1276 9.4386ZM4.45252 4.87171C4.93617 4.38805 5.59198 4.11605 6.27598 4.1154C6.95983 4.11627 7.6154 4.38836 8.09888 4.87199C8.58236 5.35563 8.85426 6.0113 8.8549 6.69515C8.85404 7.37886 8.58206 8.03432 8.0986 8.51778C7.61514 9.00124 6.95969 9.27322 6.27598 9.27408C5.59212 9.27344 4.93647 9.00155 4.45283 8.51807C3.9692 8.03459 3.69708 7.379 3.69621 6.69515C3.69686 6.01116 3.96886 5.35536 4.45252 4.87171ZM12.0482 4.87199C12.5317 4.38836 13.1872 4.11627 13.8711 4.1154C14.5551 4.11605 15.2109 4.38805 15.6945 4.87171C16.1782 5.35536 16.4502 6.01116 16.4508 6.69515C16.45 7.379 16.1779 8.03459 15.6942 8.51807C15.2106 9.00155 14.5549 9.27344 13.8711 9.27408C13.1874 9.27322 12.5319 9.00124 12.0485 8.51778C11.565 8.03432 11.293 7.37886 11.2922 6.69515C11.2928 6.0113 11.5647 5.35563 12.0482 4.87199ZM3.5977 19.8846H16.5453V11.7659H3.5977V19.8846ZM20.402 18.1607L17.8483 16.0353V15.1901L20.402 12.91V18.1607Z" fill="black"/>
</svg>
