<svg width="24" height="24" viewBox="0 0 24 24" fill="none" xmlns="http://www.w3.org/2000/svg">
<path d="M4.68001 20.28H21.24V7.19997H6.36001V8.66397H19.776V18.816H4.68001C4.36801 18.816 4.22401 18.672 4.22401 18.36V5.63997C4.22401 5.32797 4.36801 5.18397 4.68001 5.18397H19.296C19.176 4.31997 18.432 3.71997 17.52 3.71997H4.68001C3.57601 3.71997 2.76001 4.53597 2.76001 5.63997V18.36C2.76001 19.464 3.57601 20.28 4.68001 20.28ZM15.168 13.848C15.168 14.472 15.672 15.024 16.32 15.024C16.968 15.024 17.472 14.472 17.472 13.848C17.472 13.224 16.968 12.72 16.32 12.72C15.672 12.72 15.168 13.224 15.168 13.848Z" fill="black"/>
</svg>
