<svg width="24" height="24" viewBox="0 0 24 24" fill="none" xmlns="http://www.w3.org/2000/svg">
<path d="M12.06 19.7399H21.3V6.65993H6.42001V8.12393H19.74V18.2759H12.06V19.7399ZM2.70001 17.4839H6.03601V20.8199H7.52401V17.4839H10.86V15.9959H7.52401V12.6599H6.03601V15.9959H2.70001V17.4839ZM2.82001 11.5799H4.28401V5.09993C4.28401 4.78793 4.42801 4.64393 4.74001 4.64393H19.356C19.236 3.77993 18.492 3.17993 17.58 3.17993H4.74001C3.63601 3.17993 2.82001 3.99593 2.82001 5.09993V11.5799ZM15.228 13.3079C15.228 13.9319 15.732 14.4839 16.38 14.4839C17.028 14.4839 17.532 13.9319 17.532 13.3079C17.532 12.6839 17.028 12.1799 16.38 12.1799C15.732 12.1799 15.228 12.6839 15.228 13.3079Z" fill="black"/>
</svg>
