<svg width="24" height="24" viewBox="0 0 24 24" fill="none" xmlns="http://www.w3.org/2000/svg">
<path d="M1.82397 8.44799L2.95197 9.62399C5.30397 7.36799 8.32798 5.99999 12 5.99999C15.672 5.99999 18.696 7.36799 21.048 9.62399L22.176 8.44799C19.632 5.99999 16.032 4.34399 12 4.34399C7.96798 4.34399 4.36797 5.99999 1.82397 8.44799ZM5.03997 11.928L6.11997 13.176C7.77598 11.76 9.62398 10.968 12 10.968C14.376 10.968 16.224 11.76 17.88 13.176L18.96 11.928C17.112 10.344 14.712 9.31199 12 9.31199C9.28798 9.31199 6.88798 10.344 5.03997 11.928ZM8.35198 15.624L12 19.656L15.672 15.624C14.688 14.784 13.44 14.28 12 14.28C10.584 14.28 9.33598 14.784 8.35198 15.624Z" fill="black"/>
</svg>
