<svg width="24" height="24" viewBox="0 0 24 24" fill="none" xmlns="http://www.w3.org/2000/svg">
<path d="M10.608 16.704C13.008 16.704 14.28 14.856 14.28 12.024C14.28 9.16801 13.032 7.34401 10.608 7.34401C8.20798 7.34401 6.93598 9.19201 6.93598 12.024C6.93598 14.856 8.20798 16.704 10.608 16.704ZM4.15198 21.24H10.608C15.792 21.24 19.848 17.016 19.848 12C19.848 6.84001 15.768 2.76001 10.608 2.76001H4.15198V4.32001H10.608C14.928 4.32001 18.288 7.68001 18.288 12C18.288 16.176 14.928 19.68 10.608 19.68H4.15198V21.24ZM8.54398 12.888V11.208C8.54398 9.26401 9.14398 8.66401 10.584 8.66401C11.4 8.66401 11.952 8.85601 12.288 9.33601L8.56798 13.536C8.54398 13.344 8.54398 13.128 8.54398 12.888ZM8.90398 14.712L12.648 10.488C12.672 10.704 12.672 10.944 12.672 11.208V12.888C12.672 14.808 12.024 15.408 10.584 15.408C9.76798 15.408 9.23998 15.216 8.90398 14.712Z" fill="black"/>
</svg>
