<?xml version="1.0" encoding="UTF-8"?>
<svg width="216px" height="104px" viewBox="0 0 216 104" version="1.1" xmlns="http://www.w3.org/2000/svg" xmlns:xlink="http://www.w3.org/1999/xlink">
    <!-- Generator: Sketch 59 (86127) - https://sketch.com -->
    <title>Bitpanda-dark</title>
    <desc>Created with Sketch.</desc>
    <g id="Bitpanda" stroke="none" stroke-width="1" fill="none" fill-rule="evenodd">
        <path d="M45.35946,54.5996953 L39.0204,58.2481385 L32.67891,54.6004998 L32.67891,47.3816506 L39.01716,43.7340118 L45.35865,47.3816506 L45.35865,54.6004998 L45.35946,54.5996953 Z M33.01263,40.6294159 C37.01646,38.3204783 39.01959,37.166814 39.02283,37.1692275 C45.5409,40.9278883 46.69515,41.5899983 51.04566,44.0992584 L51.04566,57.9569067 L45.03465,61.4275537 L45.03465,64.5474352 C45.03465,65.137944 44.19873,65.131508 44.19873,64.5820291 L44.19873,63.6487999 C44.1987338,63.414251 44.0080063,63.2237384 43.77186,63.2224108 C43.5353971,63.223297 43.3441783,63.4139386 43.34418,63.6487999 L43.34418,66.5683591 C43.34418,67.2537998 42.4548,67.2192059 42.4548,66.6343287 L42.4548,62.7734954 C42.4548038,62.5389465 42.2640763,62.3484338 42.02793,62.3471062 C41.7914671,62.3479925 41.6002483,62.5386341 41.60025,62.7734954 L41.60025,65.7614376 C41.60025,66.4420513 40.71087,66.413089 40.71087,65.8282118 L40.71087,65.3165448 C40.7108717,65.0816835 40.5196529,64.8910419 40.28319,64.8901556 C40.0470437,64.8914832 39.8563162,65.0819959 39.85632,65.3165448 L39.85632,67.532964 C39.85632,68.1323224 39.02121,68.1170367 39.02121,67.5675578 L39.02121,64.8853286 L33.01263,61.4275537 L27,57.9561022 L27,40.0879821 C27,39.517586 27.82377,39.517586 27.82377,40.0598243 L27.82377,42.1603944 C27.82377,42.3953107 28.01574,42.5867836 28.25064,42.5867836 C28.4871029,42.5858973 28.6783217,42.3952557 28.67832,42.1603944 L28.67832,38.9447764 C28.67832,38.3285234 29.56851,38.293125 29.56851,38.8788068 L29.56851,43.5369074 C29.56851,43.7718237 29.76048,43.9632966 29.99538,43.9632966 C30.2318429,43.9624103 30.4230617,43.7717687 30.42306,43.5369074 L30.42306,37.0268296 C30.42306,36.3912684 31.31244,36.3751782 31.31244,36.9592509 L31.31244,41.7613585 C31.31244,41.9946658 31.50441,42.1869432 31.73931,42.1869432 C31.9754563,42.1856155 32.1661838,41.9951029 32.16618,41.760554 L32.16618,37.9681038 C32.16618,37.3421967 33.01263,37.36955 33.01263,37.9270739 L33.01263,40.6302204 L33.01263,40.6294159 Z M31.37724,34.4548179 L31.37724,35.5199863 C31.37724,36.202209 30.35421,36.1933594 30.35421,35.5199863 L30.35421,34.5256146 C30.35421,33.84661 31.37724,33.8281063 31.37724,34.4548179 Z M29.55717,37.1281976 C29.55717,37.6937666 28.66617,37.6857216 28.66617,37.1281976 L28.66617,36.4628696 C28.66617,35.9013231 29.55717,35.8868419 29.55717,36.403336 L29.55717,37.1281976 Z M33.06042,36.5746962 C33.06042,37.2022123 32.11434,37.1941672 32.11434,36.5746962 L32.11434,36.0034956 C32.11434,35.380002 33.06042,35.3623028 33.06042,35.9383304 L33.06042,36.5738917 L33.06042,36.5746962 Z M27.89019,37.4355196 L27.89019,38.6310183 C27.891,39.2215271 27,39.213482 27,38.6310183 L27,37.4966622 C27,36.9093715 27.891,36.8932813 27.891,37.4363241 L27.89019,37.4355196 Z M42.43617,67.886143 C42.43617,67.3205739 43.32717,67.328619 43.32717,67.886143 L43.32717,68.5522755 C43.32717,69.1130175 42.43617,69.1274986 42.43617,68.6102001 L42.43617,67.886143 L42.43617,67.886143 Z M44.16309,65.8772868 C44.16309,65.285169 45.10836,65.2948231 45.10836,65.8772868 L45.10836,67.0100339 C45.10836,67.5973246 44.16309,67.6134148 44.16309,67.0711765 L44.16309,65.8772868 Z M40.69629,67.4661898 C40.69629,66.7839672 41.58729,66.7928167 41.58729,67.4661898 L41.58729,68.4605616 C41.58729,69.1395662 40.69629,69.1580699 40.69629,68.5313583 L40.69629,67.4661898 Z M39.02283,68.9464844 C39.02283,68.3189682 39.91383,68.3270133 39.91383,68.9464844 L39.91383,69.5168804 C39.91383,70.1411786 39.02283,70.1580732 39.02283,69.5812411 L39.02283,68.9472889 L39.02283,68.9464844 Z M62.52903,60.2256189 L59.08167,60.2256189 L59.08167,38.755717 L62.52903,36.8039809 L62.52903,46.2810838 C63.50022,45.2231559 65.19231,44.4765726 67.1355,44.4765726 C71.80434,44.4765726 74.90664,47.5892136 74.90664,52.4444187 C74.90664,57.2996237 71.80434,60.4122647 67.1355,60.4122647 C65.06676,60.4122647 63.531,59.5723585 62.52903,58.606949 L62.52903,60.2256189 L62.52903,60.2256189 Z M62.46585,52.4444187 C62.46585,55.1210164 64.2519,57.1129779 66.97836,57.1129779 C69.70482,57.1129779 71.52246,55.1210164 71.52246,52.4444187 C71.52246,49.7678209 69.70482,47.7758594 66.97836,47.7758594 C64.2519,47.7758594 62.46666,49.7678209 62.46666,52.4444187 L62.46585,52.4444187 Z M78.60429,60.2256189 L82.05165,60.2256189 L82.05165,44.6632184 L78.6051,44.6632184 L78.6051,60.2256189 L78.60429,60.2256189 Z M78.00894,40.5859725 C78.00894,41.8932978 79.04331,42.9206544 80.32797,42.9206544 C81.61344,42.9206544 82.647,41.8932978 82.647,40.5859725 C82.647,39.2786472 81.61344,38.2512906 80.32797,38.2512906 C79.04331,38.2512906 78.00894,39.2786472 78.00894,40.5859725 L78.00894,40.5859725 Z M86.84604,53.4403994 C86.84604,57.2996237 90.01152,60.4122647 93.86631,60.4122647 L93.86631,56.9263321 C91.95471,56.9263321 90.35577,55.339038 90.35577,53.4403994 L90.35577,47.9625053 L93.86631,47.9625053 L93.86631,44.6640229 L90.35577,44.6640229 L90.35577,36.7718006 L86.84604,38.7549125 L86.84604,53.4395949 L86.84604,53.4403994 Z M97.6887,44.6632184 L101.13606,44.6632184 L101.13606,46.2818883 C102.13884,45.3164788 103.6746,44.4765726 105.74253,44.4765726 C110.41218,44.4765726 113.51448,47.5892136 113.51448,52.4444187 C113.51448,57.2996237 110.41218,60.4122647 105.74253,60.4122647 C103.80015,60.4122647 102.10806,59.6656814 101.13606,58.606949 L101.13606,66.7702905 L97.6887,68.7719061 L97.6887,44.6632184 L97.6887,44.6632184 Z M101.07369,52.4444187 C101.07369,55.1210164 102.85974,57.1129779 105.58539,57.1129779 C108.31266,57.1129779 110.12949,55.1210164 110.12949,52.4444187 C110.12949,49.7678209 108.31266,47.7758594 105.58539,47.7758594 C102.85974,47.7758594 101.07369,49.7678209 101.07369,52.4444187 L101.07369,52.4444187 Z M128.43063,44.6632184 L131.94117,44.6632184 L131.94117,60.2256189 L128.43063,60.2256189 L128.43063,58.606949 C127.77291,59.4476598 126.04923,60.4122647 123.94971,60.4122647 C119.46879,60.4122647 116.08461,57.1137824 116.08461,52.4444187 C116.08461,47.7758594 119.46879,44.4765726 123.94971,44.4765726 C126.01764,44.4765726 127.77291,45.4419821 128.43063,46.2818883 L128.43063,44.6632184 Z M128.55618,52.4444187 C128.55618,49.8925197 126.6138,47.7758594 124.07526,47.7758594 C121.47435,47.7758594 119.46879,49.8917152 119.46879,52.4444187 C119.46879,54.9971222 121.47435,57.1129779 124.07526,57.1129779 C126.6138,57.1129779 128.55618,54.9971222 128.55618,52.4444187 Z M136.76634,60.2256189 L140.2137,60.2256189 L140.2137,51.6350837 C140.2137,49.3317777 141.4044,47.7139123 143.66106,47.7139123 C145.91691,47.7139123 147.07683,48.8965389 147.07683,51.6350837 L147.07683,60.2256189 L150.52419,60.2256189 L150.52419,50.8885004 C150.52419,46.7485029 148.39308,44.4765726 144.5067,44.4765726 C142.34481,44.4765726 140.9346,45.5039292 140.2137,46.4371583 L140.2137,44.6632184 L136.76634,44.6632184 L136.76634,60.2256189 L136.76634,60.2256189 Z M169.76493,60.2256189 L166.31757,60.2256189 L166.31757,58.606949 C165.31479,59.5723585 163.77984,60.4122647 161.7111,60.4122647 C157.04226,60.4122647 153.93996,57.2996237 153.93996,52.4444187 C153.93996,47.5892136 157.04226,44.4765726 161.7111,44.4765726 C163.65429,44.4765726 165.34638,45.2231559 166.31757,46.2818883 L166.31757,38.7549125 L169.76493,36.7919133 L169.76493,60.2248144 L169.76493,60.2256189 Z M166.38075,52.4444187 C166.38075,49.7678209 164.59389,47.7758594 161.86824,47.7758594 C159.14178,47.7758594 157.32414,49.7678209 157.32414,52.4444187 C157.32414,55.1210164 159.14178,57.1129779 161.86824,57.1129779 C164.59389,57.1129779 166.37994,55.1210164 166.37994,52.4444187 L166.38075,52.4444187 Z M185.49027,44.6632184 L189,44.6632184 L189,60.2256189 L185.49027,60.2256189 L185.49027,58.606949 C184.83174,59.4476598 183.10887,60.4122647 181.00935,60.4122647 C176.52762,60.4122647 173.14344,57.1137824 173.14344,52.4444187 C173.14344,47.7758594 176.52762,44.4765726 181.00854,44.4765726 C183.07728,44.4765726 184.83174,45.4419821 185.49027,46.2818883 L185.49027,44.6632184 L185.49027,44.6632184 Z M185.61582,52.4444187 C185.61582,49.8925197 183.67263,47.7758594 181.13409,47.7758594 C178.53399,47.7758594 176.52762,49.8917152 176.52762,52.4444187 C176.52762,54.9971222 178.53318,57.1129779 181.13409,57.1129779 C183.67263,57.1129779 185.61582,54.9971222 185.61582,52.4444187 Z" id="Logo" fill="#076CDB"></path>
    </g>
</svg>