<?xml version="1.0" encoding="UTF-8"?>
<svg viewBox="0 0 200 45">
    <path d="M22.666 25.605L14.84 30.14l-7.829-4.534v-8.973l7.825-4.534 7.829 4.534v8.973zM7.423 8.24c4.943-2.87 7.416-4.304 7.42-4.301 8.047 4.672 9.472 5.495 14.843 8.614v17.225l-7.421 4.314v3.878c0 .734-1.032.726-1.032.043v-1.16a.53.53 0 0 0-.527-.53.53.53 0 0 0-.528.53v3.629c0 .852-1.098.809-1.098.082v-4.799a.53.53 0 0 0-.527-.53.53.53 0 0 0-.528.53v3.714c0 .846-1.098.81-1.098.083v-.636a.53.53 0 0 0-.528-.53.53.53 0 0 0-.527.53v2.755c0 .745-1.031.726-1.031.043v-3.334l-7.418-4.298L0 29.777V7.567c0-.709 1.017-.709 1.017-.035v2.611c0 .292.237.53.527.53a.53.53 0 0 0 .528-.53V6.146c0-.766 1.099-.81 1.099-.082v5.79c0 .292.237.53.527.53a.53.53 0 0 0 .528-.53V3.762c0-.79 1.098-.81 1.098-.084v5.969c0 .29.237.529.527.529a.53.53 0 0 0 .527-.53V4.932c0-.778 1.045-.744 1.045-.051v3.36zM5.404.565v1.324c0 .848-1.263.837-1.263 0V.653c0-.844 1.263-.867 1.263-.088zM3.157 3.888c0 .703-1.1.693-1.1 0v-.827c0-.698 1.1-.716 1.1-.074v.901zM7.482 3.2c0 .78-1.168.77-1.168 0V2.49c0-.775 1.168-.797 1.168-.081v.79zM1.099 4.27v1.486C1.1 6.49 0 6.48 0 5.756v-1.41c0-.73 1.1-.75 1.1-.075zm17.958 37.85c0-.703 1.1-.693 1.1 0v.828c0 .697-1.1.715-1.1.072v-.9zm2.132-2.497c0-.736 1.167-.724 1.167 0v1.408c0 .73-1.167.75-1.167.076v-1.484zm-4.28 1.975c0-.848 1.1-.837 1.1 0v1.236c0 .844-1.1.867-1.1.088v-1.324zm-2.066 1.84c0-.78 1.1-.77 1.1 0v.709c0 .776-1.1.797-1.1.08v-.788zm29.02-10.84h-4.256V5.911l4.256-2.426v11.78c1.199-1.315 3.288-2.243 5.687-2.243 5.764 0 9.594 3.869 9.594 9.904s-3.83 9.904-9.594 9.904c-2.554 0-4.45-1.044-5.687-2.244v2.012zm-.078-9.672c0 3.327 2.205 5.803 5.571 5.803 3.366 0 5.61-2.476 5.61-5.803s-2.244-5.803-5.61-5.803-5.57 2.476-5.57 5.803zm19.924 9.672h4.256V13.254H63.71v19.344zm-.735-24.412c0 1.625 1.277 2.902 2.863 2.902 1.587 0 2.863-1.277 2.863-2.902 0-1.625-1.276-2.902-2.863-2.902-1.586 0-2.863 1.277-2.863 2.902zm10.91 15.978c0 4.797 3.908 8.666 8.667 8.666v-4.333c-2.36 0-4.334-1.973-4.334-4.333v-6.809h4.334v-4.1h-4.334V3.445l-4.333 2.465v18.253zm13.386-10.91h4.256v2.012c1.238-1.2 3.134-2.244 5.687-2.244 5.765 0 9.595 3.869 9.595 9.904s-3.83 9.904-9.595 9.904c-2.398 0-4.487-.928-5.687-2.244v10.147l-4.256 2.488V13.254zm4.179 9.672c0 3.327 2.205 5.803 5.57 5.803 3.367 0 5.61-2.476 5.61-5.803s-2.243-5.803-5.61-5.803c-3.365 0-5.57 2.476-5.57 5.803zm33.774-9.672h4.334v19.344h-4.334v-2.012c-.812 1.045-2.94 2.244-5.532 2.244-5.532 0-9.71-4.1-9.71-9.904 0-5.803 4.178-9.904 9.71-9.904 2.553 0 4.72 1.2 5.532 2.244v-2.012zm.155 9.672c0-3.172-2.398-5.803-5.532-5.803-3.211 0-5.687 2.63-5.687 5.803s2.476 5.803 5.687 5.803c3.134 0 5.532-2.63 5.532-5.803zm10.136 9.672h4.256V21.92c0-2.863 1.47-4.874 4.256-4.874 2.785 0 4.217 1.47 4.217 4.874v10.678h4.256V20.992c0-5.146-2.631-7.97-7.429-7.97-2.669 0-4.41 1.277-5.3 2.437v-2.205h-4.256v19.344zm40.739 0h-4.256v-2.012c-1.238 1.2-3.133 2.244-5.687 2.244-5.764 0-9.594-3.869-9.594-9.904s3.83-9.904 9.594-9.904c2.399 0 4.488.928 5.687 2.244V5.91l4.256-2.44v29.127zm-4.178-9.672c0-3.327-2.206-5.803-5.571-5.803-3.366 0-5.61 2.476-5.61 5.803s2.244 5.803 5.61 5.803c3.365 0 5.57-2.476 5.57-5.803zm23.592-9.672H200v19.344h-4.333v-2.012c-.813 1.045-2.94 2.244-5.532 2.244-5.533 0-9.711-4.1-9.711-9.904 0-5.803 4.178-9.904 9.71-9.904 2.554 0 4.72 1.2 5.533 2.244v-2.012zm.155 9.672c0-3.172-2.399-5.803-5.533-5.803-3.21 0-5.687 2.63-5.687 5.803s2.476 5.803 5.687 5.803c3.134 0 5.533-2.63 5.533-5.803z" fill="#076CDB" fill-rule="evenodd" />
</svg>
