<?xml version="1.0" encoding="UTF-8"?>
<svg width="216px" height="104px" viewBox="0 0 216 104" version="1.1" xmlns="http://www.w3.org/2000/svg" xmlns:xlink="http://www.w3.org/1999/xlink">
    <!-- Generator: Sketch 59 (86127) - https://sketch.com -->
    <title>BTC Direct-dark</title>
    <desc>Created with Sketch.</desc>
    <g id="BTC-Direct" stroke="none" stroke-width="1" fill="none" fill-rule="evenodd">
        <g id="Logo" transform="translate(24.000000, 30.000000)" fill="#0086FB" fill-rule="nonzero">
            <path d="M29.9046443,7.2154094 L31.8548188,0 L26.1991946,0 L25.0292081,4.4885906 C23.9891544,4.09820134 22.8841342,3.83892617 21.7808859,3.64343624 L22.7542013,0 L17.0985772,0 L16.1884564,3.51055034 C11.3136107,4.16021477 6.82797315,6.69567785 3.83892617,10.6609933 C-2.40257718,18.7865235 -0.842791946,30.4875705 7.28332886,36.7278926 L5.33315436,43.9409396 L10.9261745,43.9409396 L12.0961611,39.4558926 C13.1362148,39.8456913 14.2418255,40.105557 15.3444832,40.301047 L14.3688054,43.9409396 L19.9588725,43.9409396 L20.9339597,40.4309799 C25.809396,39.7830872 30.2979866,37.2482148 33.2852617,33.2828993 C39.5905503,25.0918121 38.0301745,13.4563221 29.9046443,7.2154094 Z M18.5939866,26.3273557 C16.8059383,26.3275946 15.1938199,25.2506841 14.5093979,23.5988114 C13.8249759,21.9469388 14.203044,20.0454324 15.4673006,18.7810069 C16.7315572,17.5165813 18.633013,17.1382592 20.2849771,17.8224605 C21.9369412,18.5066618 23.0140671,20.1186362 23.0140671,21.9066846 C23.0140671,24.3771812 21.0638926,26.3273557 18.5939866,26.3273557 Z" id="Shape"></path>
            <path d="M33.5463087,40.6926174 C33.5463087,40.1073289 33.1559195,39.7824966 32.506255,39.7824966 L31.4000537,39.7824966 L31.4000537,42.3179597 L32.0497181,42.3179597 L32.0497181,41.6033289 L32.5700403,41.6033289 L32.9598389,42.3185503 L33.6750604,42.3185503 L33.0897718,41.5383624 C33.4151946,41.4084295 33.610094,41.0830067 33.5463087,40.6926174 Z M32.9610201,40.6926174 C32.9610201,40.9524832 32.8310872,41.1473826 32.5712215,41.1473826 L32.0508993,41.1473826 L32.0508993,40.3028188 L32.506255,40.3028188 C32.7011544,40.2378523 32.8960537,40.4327517 32.9610201,40.627651 L32.9610201,40.6926174 Z" id="Shape"></path>
            <path d="M32.4401074,38.4831677 C31.3357252,38.4829289 30.3399547,39.1480089 29.9171604,40.1682564 C29.4943661,41.188504 29.7278185,42.3629784 30.5086502,43.1439791 C31.2894819,43.9249797 32.4639058,44.1586862 33.4842448,43.7361126 C34.5045838,43.313539 35.1698792,42.3179125 35.1698792,41.2135302 C35.1049128,39.7181208 33.9349262,38.4831677 32.4401074,38.4831677 Z M32.4401074,43.2936377 C31.5984362,43.2938765 30.8395196,42.7870182 30.5173156,42.0094611 C30.1951116,41.231904 30.3730898,40.3368155 30.9682412,39.741664 C31.5633927,39.1465126 32.4584812,38.9685344 33.2360383,39.2907384 C34.0135954,39.6129424 34.5204536,40.371859 34.5202148,41.2135302 C34.5267883,41.7669825 34.309669,42.2996538 33.9180693,42.6908088 C33.5264695,43.0819638 32.9935518,43.2984776 32.4401074,43.2912752 L32.4401074,43.2936377 Z" id="Shape"></path>
            <path d="M62.0169664,21.7767517 C64.0970738,21.3219866 65.4625503,19.7616107 65.4625503,17.2917047 C65.4625503,14.3014765 63.2525101,12.351302 59.8069262,12.351302 L51.1616644,12.351302 L51.1616644,31.5925906 L60.0644295,31.5925906 C63.5749799,31.5925906 65.7850228,29.5124832 65.7850228,26.2623893 C65.7873826,23.7269262 64.2275973,22.0366174 62.0169664,21.7767517 Z M56.3619329,16.0561611 L58.4420403,16.0561611 C58.9422227,16.0906803 59.4081917,16.3225332 59.7373898,16.7006901 C60.0665879,17.078847 60.2320344,17.5723146 60.1973154,18.0724832 L60.1973154,18.3329396 C60.132349,19.3729933 59.2222282,20.1525906 58.1172081,20.0876242 L56.3619329,20.0876242 L56.3619329,16.0561611 Z M60.3922148,25.809396 C60.3272483,26.8494497 59.3521611,27.694604 58.2471409,27.5646711 L56.4268993,27.5646711 L56.4268993,23.402094 L58.5719732,23.402094 C59.6467408,23.4784601 60.4591063,24.4068025 60.3922148,25.4822013 L60.3922148,25.809396 Z" id="Shape"></path>
            <polygon id="Path" points="66.7624698 17.2267383 71.3780403 17.2911141 71.3780403 31.5925906 76.7082416 31.5925906 76.7082416 17.2911141 81.2588456 17.2911141 81.2588456 12.351302 66.7624698 12.351302"></polygon>
            <path d="M91.7485638,16.8912752 C93.9160805,16.8912752 95.2549799,18.0494497 95.6376913,19.7852349 L101.12145,19.7852349 C100.738738,14.7651007 97.1679463,11.8711409 91.7485638,11.8711409 C86.010255,11.8711409 82.0567517,16.0526174 82.0567517,21.9704698 C82.0567517,27.8245369 85.9464698,32.0697987 91.7485638,32.0697987 C97.1679463,32.0697987 100.674953,29.1758389 101.12145,24.1557047 L95.6376913,24.1557047 C95.3187651,25.8926711 93.9160805,27.0496644 91.7485638,27.0496644 C89.0707651,27.0496644 87.4767248,25.1201611 87.4767248,21.9675168 C87.4767248,18.8148725 89.0707651,16.8912752 91.7485638,16.8912752 Z" id="Path"></path>
            <path d="M109.24698,12.351302 L103.916188,12.351302 L103.916188,31.5925906 L109.24698,31.5925906 C115.16247,31.5925906 118.347597,26.9120537 118.347597,21.971651 C118.347597,17.0312483 115.16247,12.351302 109.24698,12.351302 Z M109.117047,29.8373154 L105.606497,29.8373154 L105.606497,14.0410201 L109.117047,14.0410201 C114.05745,14.0410201 116.592322,17.9390067 116.592322,21.971651 C116.592322,25.9369664 114.05745,29.8373154 109.117047,29.8373154 Z" id="Shape"></path>
            <path d="M122.009933,13.2614228 C121.164779,13.3263893 120.514523,14.0410201 120.57949,14.8861745 L120.57949,15.0810738 C120.644456,15.9262282 121.359678,16.5764832 122.204832,16.5115168 C123.049987,16.4465503 123.699651,15.7313289 123.634685,14.8861745 L123.634685,14.6912752 C123.569718,13.8461208 122.855087,13.1958658 122.009933,13.2614228 Z" id="Path"></path>
            <rect id="Rectangle" x="121.262228" y="19.0463893" width="1.69030872" height="12.5462013"></rect>
            <path d="M128.618201,22.3620403 L128.618201,19.0463893 L126.99345,19.0463893 L126.99345,31.5276242 L128.618201,31.5276242 L128.618201,26.1318658 C128.618201,23.402094 129.658255,20.4768322 132.323651,20.4768322 C132.71345,20.4768322 133.038872,20.4768322 133.428671,20.5417987 L133.428671,18.9164564 C133.08672,18.8412514 132.73856,18.797756 132.388617,18.7865235 C130.700671,18.7865235 129.138523,19.8915436 128.618201,22.3620403 Z" id="Path"></path>
            <path d="M140.644081,18.7221477 C137.264054,18.7221477 134.989047,21.2576107 134.989047,25.2878926 C134.989047,29.3181745 137.199087,31.9180134 140.709047,31.9180134 C143.307705,31.9180134 145.389584,30.2932617 145.844349,28.0200268 L144.219597,28.0200268 C143.699275,29.4504698 142.270604,30.425557 140.709047,30.2956242 C138.304107,30.2956242 136.678765,28.540349 136.678765,25.7479732 L146.039839,25.7479732 C146.039839,25.3581745 146.104805,24.9677852 146.039839,24.5779866 C146.039839,21.1914631 143.894174,18.7221477 140.644081,18.7221477 Z M136.678765,24.3128054 C136.808698,21.8423087 138.304107,20.152 140.644081,20.152 C142.984054,20.152 144.414497,21.8423087 144.479463,24.3128054 L136.678765,24.3128054 Z" id="Shape"></path>
            <path d="M153.904913,20.4118658 C155.985611,20.4118658 157.28553,21.386953 157.610362,23.3371275 L159.235705,23.3371275 C158.910282,20.5417987 156.895141,18.7865235 153.904913,18.7865235 C150.329987,18.7865235 148.119946,21.3851812 148.119946,25.287302 C148.119946,29.1894228 150.329987,31.8524564 153.904913,31.9174228 C156.960698,31.9174228 158.975839,30.1627383 159.235705,27.4323758 L157.610362,27.4323758 C157.28553,29.3175839 155.920644,30.2926711 153.904913,30.2926711 C151.37004,30.2926711 149.809664,28.3436779 149.809664,25.3522685 C149.809664,22.3608591 151.371812,20.4118658 153.904913,20.4118658 Z" id="Path"></path>
            <path d="M166.646013,30.1627383 C165.540993,30.1627383 164.630872,29.772349 164.630872,27.1719195 L164.630872,20.6067651 L167.816,20.6067651 L167.816,19.0463893 L164.630872,19.0463893 L164.630872,14.8861745 L163.006711,14.8861745 L163.006711,19.0463893 L160.796081,19.0463893 L160.796081,20.6067651 L163.006711,20.6067651 L163.006711,27.4973423 C163.006711,31.3953289 164.891329,31.7225235 166.321772,31.7225235 C166.971436,31.7874899 167.621101,31.657557 168.20698,31.5276242 L168.20698,29.9022819 C167.686067,30.0322148 167.166336,30.0971812 166.646013,30.1627383 Z" id="Path"></path>
        </g>
    </g>
</svg>