<?xml version="1.0" encoding="UTF-8"?>
<svg width="216px" height="104px" viewBox="0 0 216 104" version="1.1" xmlns="http://www.w3.org/2000/svg" xmlns:xlink="http://www.w3.org/1999/xlink">
    <!-- Generator: Sketch 59 (86127) - https://sketch.com -->
    <title>Changelly-dark</title>
    <desc>Created with Sketch.</desc>
    <g id="Changelly" stroke="none" stroke-width="1" fill="none" fill-rule="evenodd">
        <g id="Logo" transform="translate(25.000000, 33.000000)" fill-rule="nonzero">
            <path d="M46.7376345,18.7764706 C46.7376345,14.8849684 49.8325725,11.5787869 53.9309173,11.5787869 C56.5901655,11.5787869 58.2460069,12.6724123 59.5486754,14.0322926 L58.2196014,15.4185784 C57.1061719,14.2710418 55.8035034,13.3919606 53.9034117,13.3919606 C51.0538243,13.3919606 48.8819765,15.7640496 48.8819765,18.7764706 C48.8819765,21.7624861 51.1077354,24.1345751 54.0387396,24.1345751 C55.831009,24.1345751 57.1611832,23.2290885 58.2735125,22.0551465 L59.6575978,23.309405 C58.2460069,24.8552237 56.5637601,25.9741543 53.9309173,25.9741543 C49.8325725,25.9741543 46.7387347,22.6954785 46.7387347,18.7764706 M62.0032814,7.20538532 L64.0937123,6.19317666 L64.0937123,14.2710418 C65.0157024,12.7791343 66.4812045,11.5787869 68.8973025,11.5787869 C72.2893017,11.5787869 74.2708102,13.8188486 74.2708102,17.0975245 L74.2708102,25.6550885 L72.1803793,25.6550885 L72.1803793,17.6036288 C72.1803793,15.0445013 70.7698885,13.4447715 68.2998794,13.4447715 C65.8848815,13.4447715 64.0926121,15.1776287 64.0926121,17.7642619 L64.0926121,25.6550885 L62.0032814,25.6550885 L62.0032814,7.20428509 M87.0334411,20.5896444 L87.0334411,19.3100806 C85.7019529,18.9216829 84.3220761,18.7242402 82.9350963,18.7236597 C80.3297592,18.7236597 78.8367514,19.8436906 78.8367514,21.5490421 C78.8367514,23.2818993 80.4650871,24.2952082 82.3651788,24.2952082 C84.9430102,24.2952082 87.0334411,22.775795 87.0334411,20.5896444 L87.0334411,20.5896444 Z M76.7199151,21.601853 C76.7199151,18.6433431 79.1624186,17.0975245 82.7183516,17.0975245 C84.5095208,17.0975245 85.757178,17.3373739 87.0059354,17.6839454 L87.0059354,17.2570574 C87.0059354,14.8035516 85.4865222,13.5250881 82.8536795,13.5250881 C81.1978382,13.5250881 79.8951696,13.9244704 78.5925011,14.5108913 L77.9686725,12.8319452 C79.5155914,12.1388023 81.0085991,11.6591034 83.0704242,11.6591034 C85.0519326,11.6591034 86.5988515,12.1916132 87.6033586,13.1774164 C88.58036,14.1379144 89.0688607,15.4713893 89.0688607,17.2306519 L89.0688607,25.6550885 L87.0059354,25.6550885 L87.0059354,23.6020653 C86.028934,24.827718 84.428104,25.9477489 81.9580949,25.9477489 C79.3252521,25.9477489 76.7199151,24.4822468 76.7199151,21.601853 L76.7199151,21.601853 Z M92.6005887,11.8714472 L94.6910196,11.8714472 L94.6910196,14.2710418 C95.6141099,12.7791343 97.0785118,11.5787869 99.4946099,11.5787869 C102.887709,11.5787869 104.869218,13.8188486 104.869218,17.0975245 L104.869218,25.6550885 L102.778787,25.6550885 L102.778787,17.6036288 C102.778787,15.0445013 101.367196,13.4447715 98.8982869,13.4447715 C96.4821889,13.4447715 94.6910196,15.1776287 94.6910196,17.7642619 L94.6910196,25.6550885 L92.6005887,25.6550885 L92.6005887,11.8714472 M119.647464,18.0569223 C119.647464,15.2315398 117.149949,13.3919606 114.490701,13.3919606 C111.831453,13.3919606 109.6321,15.2051344 109.6321,18.0833277 C109.6321,20.8558992 111.885364,22.775795 114.490701,22.775795 C117.15105,22.775795 119.647464,20.8834049 119.647464,18.055822 L119.647464,18.0569223 Z M108.139092,28.053583 L109.089688,26.4549534 C110.690518,27.6013898 112.482787,28.2142161 114.490701,28.2142161 C117.584539,28.2142161 119.593553,26.5341698 119.593553,23.3083048 L119.593553,21.6821696 C118.372301,23.2818993 116.661449,24.5889688 114.083617,24.5889688 C110.718023,24.5889688 107.488858,22.1090576 107.488858,18.0833277 C107.488858,14.0586981 110.745529,11.5787869 114.083617,11.5787869 C116.71646,11.5787869 118.426212,12.8583506 119.566047,14.3513584 L119.566047,11.8725474 L121.656478,11.8725474 L121.656478,23.2554939 C121.656478,25.3888337 121.004044,27.0138686 119.864209,28.1338995 C118.616552,29.3606524 116.743966,29.9734787 114.517107,29.9734787 C112.183526,29.9734787 110.011678,29.3331467 108.140192,28.053583 L108.139092,28.053583 Z M135.68327,17.9502003 C135.439019,15.4438836 133.973517,13.3116441 131.205347,13.3116441 C128.789249,13.3116441 126.944168,15.2843507 126.644907,17.9502003 L135.68327,17.9502003 Z M131.584925,24.1884862 C133.511422,24.1884862 134.869102,23.4150268 136.007837,22.242185 L137.311605,23.3886213 C135.900014,24.93444 134.190262,25.9741543 131.531014,25.9741543 C127.675819,25.9741543 124.52807,23.0695556 124.52807,18.7764706 C124.52807,14.7782464 127.377658,11.5787869 131.259258,11.5787869 C135.411514,11.5787869 137.800106,14.8310573 137.800106,18.8842928 C137.800106,19.0702311 137.800106,19.2825749 137.7726,19.6027409 L126.644907,19.6027409 C126.944168,22.5084399 129.114916,24.1884862 131.584925,24.1884862 L131.584925,24.1884862 Z M140.715707,8.09326835 L142.806138,7.08215992 L142.806138,25.6539883 L140.715707,25.6539883 L140.715707,8.0954688 M146.627226,7.20538532 L148.717657,6.19317666 L148.717657,25.6550885 L146.627226,25.6550885 L146.627226,7.20428509 M151.488028,29.3067413 L152.194373,27.6806061 C152.872113,28.0271775 153.497042,28.1867104 154.391526,28.1867104 C155.640284,28.1867104 156.426946,27.5485789 157.26972,25.6011774 L150.890605,11.8725474 L153.19778,11.8725474 L158.300632,23.3622159 L162.806061,11.8725474 L165.03182,11.8725474 L159.142306,26.1072818 C157.947459,28.9601699 156.59088,29.9998842 154.474043,29.9998842 C153.306703,29.9998842 152.438624,29.7600347 151.488028,29.3067413" id="Shape" fill="#FFFFFF"></path>
            <path d="M32.6635333,20.2430729 C26.5869806,25.4911548 24.0520581,25.9950586 21.5369396,24.8442214 L24.2820055,21.4390194 C24.686889,20.9406167 24.9817497,20.3486947 25.1324808,19.7281668 L26.2404092,15.1864305 L21.6150557,16.2734546 C20.982306,16.4230135 20.3893301,16.7074918 19.8766974,17.1074265 L16.4065821,19.8040824 C15.2359407,17.3340733 15.7475462,14.84426 21.092448,8.8755296 C26.1413888,3.23686725 36.8256913,1.9419003 39.992144,1.67674564 C39.7225884,4.78708681 38.4045167,15.2821503 32.6635333,20.2419727 L32.6635333,20.2430729 Z M28.6179993,28.3781499 C28.5656689,28.6316358 28.415426,28.8542326 28.1999131,28.9975776 C27.5606814,29.4299667 26.5737779,30.0295903 25.6990976,30.5488974 L25.7431067,30.3882642 C26.1677942,28.7478261 26.1633933,27.4836655 25.7321044,26.6210877 C26.8829417,26.2778169 28.1272982,25.6462867 29.5366887,24.7011919 C29.1956184,25.9719539 28.800637,27.4880664 28.6179993,28.3781499 L28.6179993,28.3781499 Z M19.006418,25.433943 C18.6444434,25.8828355 18.0811272,26.1336872 17.4991073,26.1050813 L17.4771027,26.1028809 L16.0952179,26.1050813 L20.8856054,20.4455146 L15.1226174,25.1500844 L15.1259181,23.8155093 L15.1237176,23.7715003 C15.0955792,23.1960815 15.3502542,22.6431904 15.8058582,22.290595 L20.8801042,18.3462819 C21.2077832,18.0907283 21.5868594,17.909072 21.9913333,17.8137721 L24.0597597,17.3263717 L23.5646576,19.3595908 C23.4660023,19.7598386 23.280021,20.133304 23.0200454,20.4532162 L19.006418,25.433943 L19.006418,25.433943 Z M10.7624186,15.6749312 L10.5973845,15.7167399 C11.1036382,14.8846324 11.6308147,14.065436 12.1784105,13.2599334 C12.3275888,13.0469779 12.5536062,12.9002442 12.8088404,12.850649 C13.7143271,12.6713121 15.2579453,12.2840322 16.551812,11.9484631 C15.5891135,13.3325484 14.9476813,14.5549004 14.5978092,15.6859335 C13.7209284,15.261246 12.4336631,15.2568451 10.7624186,15.6749312 L10.7624186,15.6749312 Z M40.8294166,0.033006804 C40.2352941,0.0583120205 26.2767167,0.689842204 19.8810983,7.83141437 C19.2751897,8.50569473 18.6849438,9.19388693 18.1108334,9.89543985 C17.1844424,10.1451913 13.9299715,11.0132703 12.4897746,11.298229 C11.8258927,11.4272118 11.2380933,11.8090842 10.8504367,12.3632486 C9.87123486,13.7638373 8.16038218,16.6409304 8.08886744,16.7630555 L6.84891184,18.851286 L9.10657723,17.8874873 C10.5852821,17.2559571 13.0673937,16.6068233 13.9530763,17.1415336 C14.0983062,17.2295517 14.2501375,17.3736814 14.2754427,17.7829658 L14.2787434,17.7829658 C14.2963471,18.8116778 14.5835062,19.7985813 15.1127153,20.8107899 L14.8057521,21.0484389 C13.9486895,21.7115635 13.4667116,22.7493544 13.5129856,23.8320127 L13.505284,27.6938088 L17.4374946,27.6861072 C18.5300848,27.7377909 19.5820405,27.2663514 20.2705786,26.4164455 L20.5126285,26.1149834 C21.543541,26.6353906 22.5480481,26.9148482 23.5965642,26.9313516 L23.5965642,26.9390532 C24.0124499,26.9632582 24.1598803,27.1117888 24.2489987,27.2548183 C24.793611,28.1239975 24.1323747,30.5621001 23.4898422,32.0154997 L22.504039,34.2357574 L24.6340781,33.0145056 C24.7584037,32.9440911 27.6883077,31.265145 29.1131014,30.3024466 C29.6775177,29.9217681 30.0625971,29.3496501 30.197925,28.6917145 C30.4883849,27.2779231 31.371867,24.0817642 31.6260194,23.1707764 C32.2894562,22.6481687 32.9881002,22.0705496 33.7274526,21.4324181 C40.9977513,15.1501231 41.641384,1.43799643 41.665589,0.858176905 L41.7007962,-8.8817842e-15 L40.8283164,0.0341070308 L40.8294166,0.033006804 Z" id="Shape" fill="#46B06E"></path>
            <path d="M29.557593,8.26490373 C30.0557126,7.77750116 30.7255708,7.50560589 31.4224774,7.50793269 C32.0969165,7.50793269 32.7724557,7.76099986 33.2862616,8.26490373 C33.7793593,8.74664089 34.0573539,9.40687213 34.0573539,10.0962312 C34.0573539,10.7855904 33.7793593,11.4458216 33.2862616,11.9275588 C32.2484347,12.9372521 30.5954199,12.9372521 29.557593,11.9275588 C29.0629418,11.4465493 28.7842899,10.7856442 28.7852314,10.0956811 C28.7852314,9.4047387 29.0602905,8.75340443 29.557593,8.26490373 L29.557593,8.26490373 Z M31.4224774,14.2666409 C32.5095015,14.2666409 33.5976258,13.859557 34.4260966,13.0464894 C35.2204777,12.2701909 35.6683083,11.206393 35.6683083,10.0956811 C35.6683083,8.9849693 35.2204777,7.92117139 34.4260966,7.14487285 C32.7540498,5.51818425 30.0909051,5.51818425 28.4188583,7.14487285 C27.6216999,7.91954676 27.1723745,8.98411463 27.1733998,10.0956811 C27.1733998,11.2113111 27.6156927,12.258727 28.417758,13.0464894 C29.2197156,13.8322532 30.2986349,14.2709347 31.4213772,14.2677585 L31.4224774,14.2666409 Z M19.705062,31.5457028 C19.3915577,31.8368755 19.0612926,32.1094636 18.7159581,32.3620711 C18.0339811,32.8682593 17.310383,33.3158153 16.5529122,33.6999469 C15.7992569,34.0850263 15.0180958,34.4095932 14.2204314,34.680249 C13.4218298,34.9537286 12.6058437,35.1735302 11.7779279,35.3381846 C11.3675433,35.4306037 10.9483569,35.4900159 10.5346716,35.5637311 L9.90534189,35.6440477 L9.59177725,35.6847561 L9.27601216,35.713362 L8.64448198,35.7727742 L8.01075134,35.805781 C7.58826425,35.8387878 7.1635767,35.8365874 6.73998938,35.8475896 C5.49685481,35.8574321 4.25406795,35.8016096 3.01682189,35.6803552 C3.16205183,35.4812141 3.30398108,35.2787724 3.44150943,35.0719297 C3.83869131,34.466805 4.19516479,33.8330744 4.50872943,33.1850408 C5.12705689,31.8823722 5.57594943,30.542296 5.95882835,29.2044202 C6.32643473,27.8905857 6.76122947,26.5964838 7.26149689,25.327221 C7.7667018,24.0446162 8.34489955,22.7919769 8.99325387,21.5754476 C8.52895816,22.0991555 8.11307243,22.6646721 7.71919124,23.2411909 C7.32200936,23.81881 6.95453361,24.4151329 6.60796217,25.0257588 C5.92149162,26.2498839 5.32967649,27.5247324 4.83769724,28.8391449 C4.34369541,30.1176085 3.83319018,31.3751677 3.20055976,32.5414081 C2.57673117,33.7120494 1.80327173,34.777069 0.921990059,35.8046808 L0.0022004536,36.8774019 L1.42919461,37.0776432 C3.19175795,37.324094 4.98072673,37.4539208 6.77409641,37.3901076 C7.22188872,37.3681031 7.66968103,37.3604015 8.11747334,37.3130917 L8.78861169,37.2503788 L9.45754958,37.1612604 C9.90314144,37.1117502 10.3443324,37.0127298 10.7866236,36.9357139 C11.2267143,36.8311924 11.6679052,36.7486754 12.1002944,36.6166482 C12.5348839,36.5033248 12.9617719,36.3580949 13.3886599,36.2172658 C13.811147,36.0588332 14.2314337,35.8993003 14.6418183,35.713362 C15.4619979,35.3507683 16.2490627,34.9174777 16.9941032,34.418395 C17.7344074,33.9247612 18.421346,33.3554465 19.0438257,32.7196448 C19.6522511,32.0815133 20.2133668,31.3905709 20.5973459,30.6116103 C20.3243536,30.9450911 20.0260404,31.2570141 19.705062,31.5446026" id="Shape" fill="#46B06E"></path>
        </g>
    </g>
</svg>