<?xml version="1.0" encoding="UTF-8"?>
<svg width="216px" height="104px" viewBox="0 0 216 104" version="1.1" xmlns="http://www.w3.org/2000/svg" xmlns:xlink="http://www.w3.org/1999/xlink">
    <!-- Generator: Sketch 59 (86127) - https://sketch.com -->
    <title>ChangeNow</title>
    <desc>Created with Sketch.</desc>
    <g id="ChangeNow" stroke="none" stroke-width="1" fill="none" fill-rule="evenodd">
        <g id="Logo" transform="translate(47.000000, 24.000000)" fill-rule="nonzero">
            <polygon id="Path" fill="#2B2B37" points="0 28 0 0 122.5 0 122.5 56 0 56"></polygon>
            <g transform="translate(30.625000, 10.500000)" id="Group">
                <g fill="#38F06E">
                    <path d="M27.1238651,34.8470885 C26.5803126,34.7873575 25.5887774,34.5723257 25.0571711,34.3991057 C22.0706191,33.4195167 20.1413066,31.0661137 19.6216465,27.7749334 C19.5260769,27.1835962 19.5260769,25.4812615 19.6216465,24.877978 C19.932248,22.9008806 20.6908322,21.3657929 21.9869957,20.0935217 C23.0502082,19.0482285 24.4419414,18.3374292 26.1562223,17.9670967 C26.6878285,17.8536078 26.944672,17.8356885 28.1392928,17.8297153 C29.644515,17.8297153 30.0686054,17.8834733 31.1736296,18.2239402 C33.6166291,18.9705782 35.4802376,20.7864018 36.2925797,23.2234282 C36.6509659,24.30456 36.7345894,24.8720049 36.7405625,26.2816575 C36.7405625,27.2970851 36.7166701,27.6793638 36.6330466,28.1034542 C35.9043279,31.6693972 33.4075705,34.0825312 29.7520309,34.7335996 C29.2263977,34.8291692 27.6017134,34.8948734 27.1238651,34.8470885 Z M29.5131067,32.0457028 C30.7853778,31.7052359 31.7828862,31.0481944 32.5116049,30.0745785 C33.837634,28.3125128 34.0885043,25.451396 33.090996,23.4563793 C32.6788518,22.6320909 32.0218103,21.8735067 31.3169841,21.3896853 C30.9227592,21.1208956 30.1343095,20.7625094 29.6624343,20.6370742 C29.0770701,20.4817735 27.6017134,20.4459349 26.9625913,20.5773432 C24.9018704,20.9954605 23.3548365,22.5066557 22.7873917,24.6569732 C22.6261178,25.2542836 22.5723599,26.5564202 22.6679296,27.2373541 C22.9486654,29.1368012 23.898389,30.624104 25.397638,31.5021503 C25.8038091,31.7351014 26.657963,32.0397297 27.1597037,32.1293262 C27.6315789,32.2129497 29.0830432,32.1651649 29.5131067,32.0457028 Z M0.931804217,26.3413885 L0.931804217,18.2179671 L4.80237561,18.2179671 L8.73865111,24.2269097 L12.6689535,30.2358523 L12.6868728,24.2269097 L12.698819,18.2179671 L15.62564,18.2179671 L15.62564,34.4648099 L13.7620315,34.4648099 L11.89245,34.4588368 L7.93228206,28.3125128 C5.75209913,24.9257628 3.94224862,22.1602157 3.9123831,22.1602157 C3.88251758,22.1602157 3.85862516,24.6510001 3.85862516,28.3125128 L3.85862516,34.4648099 L0.931804217,34.4648099 L0.931804217,26.3413885 Z M43.6454707,34.3214554 C43.6156052,34.2438051 42.5344733,30.624104 41.2442829,26.2756843 C39.9600655,21.9272647 38.8908799,18.3314561 38.8729606,18.2896443 C38.8550413,18.2299133 39.183562,18.2179671 40.4737525,18.2299133 L42.1044098,18.2478326 L43.603659,23.9939586 C44.4279473,27.1537306 45.1148542,29.7520309 45.1327736,29.7699502 C45.1506929,29.7818964 45.8913577,27.4822514 46.775377,24.6510001 C47.6593964,21.8197488 48.4717386,19.2154754 48.5852274,18.8630623 L48.7823401,18.2179671 L51.6792956,18.2179671 L53.4652535,24.0536897 C54.4508157,27.2672196 55.2631579,29.8535736 55.2751039,29.8057888 C55.2870505,29.7580039 55.9978498,27.1358113 56.8639497,23.9820124 L58.4289028,18.2478326 L59.9341253,18.2299133 L61.4333742,18.2179671 L61.3557239,18.4807837 C61.3079393,18.6301113 60.2447268,22.2856509 58.9844016,26.6101782 L56.6967026,34.4648099 L55.2989965,34.4528637 L53.9012904,34.4349443 L52.0556009,28.4021094 C51.0401735,25.0870367 50.1919927,22.3274626 50.1740732,22.2796778 C50.1442076,22.2080005 50.1262885,22.2139737 50.0844768,22.3095433 C50.0307187,22.4290054 46.3871252,34.3811864 46.3871252,34.4349443 C46.3871252,34.4528637 45.7838419,34.4648099 45.043177,34.4648099 L43.6992286,34.4648099 L43.6454707,34.3214554 Z M44.7146563,17.0830773 C43.4722507,16.9875077 42.3015223,16.4738207 41.5548843,15.6913441 L41.3517988,15.4763124 L41.7639429,15.0283296 L42.170114,14.5803468 L42.6121237,14.9984641 C43.3946003,15.7451021 44.4637859,16.1273807 45.5508908,16.0497304 C47.0441668,15.9422145 47.9162402,15.2672537 48.2686534,13.9471978 C48.3701957,13.5708922 48.4657655,11.8028534 48.3940883,11.6176872 C48.3642227,11.5340638 48.3224111,11.5639293 48.149191,11.7670148 C47.4802033,12.5674108 46.5245066,12.9795549 45.3418322,12.9795549 C43.6872824,12.9735818 42.2776299,12.1313742 41.5787767,10.7217216 C41.2622022,10.0706533 41.1726056,9.60475116 41.2084443,8.69086626 C41.2323367,8.00993241 41.2562291,7.8546317 41.4175029,7.41859512 C41.7818622,6.43900609 42.4508499,5.66250254 43.31695,5.21451976 C44.0874804,4.8143218 44.8460646,4.67694039 45.7360571,4.77848318 C46.6678611,4.88599903 47.4324186,5.26230457 48.0775137,5.93129222 L48.4179809,6.28370538 L48.4179809,4.95767627 L49.5588436,4.95767627 L49.5409241,9.39569253 C49.523005,13.7739777 49.517032,13.8337088 49.3856236,14.305584 C49.2124035,14.938733 49.0033448,15.3449041 48.6509316,15.7689945 C48.0715407,16.4678477 47.0680594,16.951669 45.9271964,17.0830773 C45.6404874,17.1129429 45.3776708,17.1368353 45.3418322,17.1308622 C45.3119667,17.1308622 45.0252577,17.1069698 44.7146563,17.0830773 Z M46.1720935,11.8506383 C46.6977267,11.7132569 47.2054409,11.4265479 47.5877191,11.0502423 C48.1671105,10.4768243 48.4179809,9.82575604 48.4179809,8.89395182 C48.4179809,7.60973445 47.8206704,6.58833368 46.7813505,6.09853917 C45.6285412,5.55498668 44.35627,5.74015289 43.4244658,6.58833368 C42.8271554,7.13188612 42.5225272,7.79490066 42.4627961,8.66100076 C42.4030651,9.59877809 42.7136664,10.4230664 43.3707079,11.0801079 C44.1173459,11.8207728 45.1626391,12.1134548 46.1720935,11.8506383 Z M3.42856168,13.1408287 C1.74414636,12.8362004 0.573417982,11.7968803 0.143354495,10.2319271 C-0.0418117278,9.55099324 -0.0418117278,8.33845314 0.143354495,7.67543861 C0.543552459,6.27773226 1.57092635,5.24438526 2.91487473,4.90391834 C3.82875964,4.67096732 4.67096732,4.68888663 5.48928257,4.96364939 C5.95518465,5.1189501 6.61819918,5.53109426 6.94671991,5.86558811 L7.20356336,6.12840467 L6.7615537,6.46887159 C6.51665645,6.6540378 6.30162469,6.80933851 6.28370538,6.80933851 C6.26578607,6.80933851 6.11645848,6.67195711 5.94921153,6.50471021 C5.35190116,5.90739984 4.47385487,5.66847566 3.54205065,5.85364187 C1.89347396,6.17618948 0.949723531,7.83671239 1.32005598,9.76602499 C1.49924909,10.6978292 2.00098983,11.3966824 2.78346645,11.7849341 C3.92432931,12.3583521 5.18465426,12.2030514 5.96713084,11.3907092 L6.27773226,11.0681616 L6.74960747,11.432521 L7.22148272,11.7968803 L6.82725782,12.1612397 C6.39719436,12.5614376 5.78196463,12.8959314 5.20257357,13.0512322 C4.77848318,13.1647211 3.82278654,13.212506 3.42856168,13.1408287 Z M22.1363233,13.1049901 C21.3956584,12.9078777 20.7864018,12.4479487 20.4578811,11.8207728 C20.3264728,11.5878217 20.3145266,11.4803058 20.3145266,10.8113182 C20.3145266,10.1064919 20.3264728,10.0467609 20.4817735,9.74213257 C20.7923749,9.15079527 21.3538467,8.7207318 22.1482695,8.445969 C22.8471227,8.21301793 23.4802717,8.11744827 24.6987849,8.08160965 L25.851594,8.04577103 L25.8097823,7.62765376 C25.7500512,7.01242408 25.5887774,6.63014542 25.2542836,6.319544 C24.877978,5.96115777 24.4777801,5.83572256 23.7789269,5.82974949 C22.9307461,5.82974949 22.2080005,6.06270051 21.5867978,6.53457576 L21.3060618,6.74960747 L20.971568,6.36135574 C20.7744556,6.14035086 20.6430473,5.93726534 20.6609666,5.88948053 C20.6788859,5.8476688 20.8879446,5.67444878 21.1328418,5.51317495 C21.8615605,5.02935355 22.8292033,4.77848318 23.9760393,4.77848318 C25.391665,4.7844563 26.3832002,5.40565909 26.8072906,6.55846814 C26.9327258,6.88101575 26.9386989,7.04228958 26.9805106,9.79589049 C27.004403,11.3907092 27.0402417,12.7645232 27.0641341,12.8600928 L27.1059458,13.0213667 L26.5982319,13.0213667 C26.251792,13.0213667 26.0725988,12.9974742 26.0307871,12.9437163 C25.9949485,12.9019046 25.9471637,12.6032494 25.9232712,12.2866748 L25.8814595,11.7132569 L25.7201857,11.9342617 C25.2960953,12.5136528 24.6928118,12.925797 24.0059049,13.1049901 C23.5519489,13.2244522 22.5843061,13.2244522 22.1363233,13.1049901 Z M24.2030173,12.0298314 C24.8660318,11.8506383 25.4454229,11.2712472 25.6664277,10.572394 C25.738105,10.3513892 25.8038091,9.93327189 25.8217284,9.59280497 L25.8575671,9.00146768 L24.7286504,9.0373063 C23.844631,9.06119872 23.498191,9.09106422 23.1278586,9.19260701 C22.5365213,9.34790772 21.9869957,9.6465629 21.7540447,9.93924501 C21.5987439,10.1303843 21.5688784,10.2199809 21.5509591,10.572394 C21.5210936,11.0741347 21.5987439,11.3309782 21.8794798,11.6176872 C22.3752474,12.1254011 23.2831593,12.2866748 24.2030173,12.0298314 Z M56.1830159,13.1109632 C54.7912828,12.7943887 53.8833709,12.0716431 53.2860604,10.7933989 C52.8858626,9.9511912 52.7902928,8.68489318 53.0471361,7.73516966 C53.3517646,6.61222611 54.1760528,5.61471773 55.1974537,5.13089629 C55.7648986,4.86210665 56.2606662,4.76056387 56.9595195,4.76056387 C57.9331352,4.76056387 58.6140694,4.97559563 59.3308418,5.51914807 C60.2447268,6.21202814 60.7823061,7.38872962 60.7823061,8.69683937 L60.7823061,9.24039182 L57.4612601,9.27623048 C55.6275171,9.30012286 54.1222951,9.32401529 54.1163221,9.33596148 C54.068537,9.38374634 54.3313538,10.2856851 54.4806813,10.5783671 C54.6777935,10.9606458 55.1377225,11.4564134 55.5319478,11.7132569 C56.2128815,12.1492935 57.1864972,12.2627825 57.9868934,12.0119121 C58.488634,11.8506383 59.0620519,11.4623865 59.3845995,11.0681616 L59.6354698,10.7635333 L60.0535872,11.0980272 C60.2865384,11.2891665 60.4776776,11.4683596 60.4836506,11.4982251 C60.4836506,11.605741 59.695201,12.3404328 59.3368148,12.5674108 C58.7633969,12.9317701 58.0048124,13.1468018 57.2342824,13.1766674 C56.7862994,13.1886136 56.4458323,13.1706942 56.1830159,13.1109632 Z M59.5160079,7.9442283 C59.4921153,7.61570757 59.4323846,7.41859512 59.2651376,7.0781282 C59.0082942,6.56444126 58.7156118,6.27773226 58.1541404,6.0149157 C57.8136733,5.85364187 57.6882379,5.82377637 57.1566316,5.80585706 C56.660864,5.78196463 56.4697249,5.80585706 56.1352313,5.90739984 C55.1317495,6.21202814 54.2596766,7.15577855 54.1700798,8.03979796 L54.1342412,8.36234557 L59.5458735,8.36234557 L59.5160079,7.9442283 Z M9.93327189,12.9795549 C9.90937947,12.9616356 9.89146016,10.0288416 9.89146016,6.46887159 L9.89146016,0 L11.0263499,0 L11.0263499,6.22397434 L11.4205748,5.80585706 C11.71923,5.47733633 11.9223155,5.32203562 12.2807018,5.14284253 C12.9078777,4.83224111 13.2961294,4.75459075 14.1024985,4.79640249 C15.4703393,4.85613353 16.2707352,5.44149771 16.658987,6.66001092 C16.7844221,7.06618201 16.7903953,7.14980543 16.7903953,10.0348147 L16.7903953,12.9915011 L15.7152365,12.9915011 L15.685371,10.3334699 C15.6495324,7.75906204 15.6435593,7.66349237 15.512151,7.25732134 C15.2493344,6.46289847 15.052222,6.20605503 14.5206157,5.96115777 C14.2637723,5.8476688 14.1263909,5.82377637 13.5649191,5.82377637 C12.9437163,5.82377637 12.8899584,5.83572256 12.5435183,6.0149157 C12.1194279,6.23592053 11.5878217,6.78544609 11.3847362,7.20356336 C11.0741348,7.86657794 11.0681616,7.93228206 11.0442693,10.5604478 L11.0203768,13.0213667 L10.4947437,13.0213667 C10.2080347,13.0213667 9.9511912,13.0034473 9.93327189,12.9795549 Z M30.8271896,12.9496894 C30.8152434,12.9078777 30.7913509,11.0920541 30.7853778,8.91187113 L30.7674585,4.9517032 L31.3349034,4.96962251 L31.9023483,4.98754182 L31.9322138,5.60874461 L31.9620793,6.22397434 L32.1591917,5.95518465 C32.4996587,5.47136321 33.323947,4.97559563 34.0168271,4.83224111 C34.5185678,4.73069832 35.5817803,4.79640249 36.0058707,4.95767627 C36.7883473,5.25035838 37.2721687,5.77599151 37.5529047,6.64806473 C37.6962591,7.0781282 37.6962591,7.09007439 37.6962591,10.0348147 L37.6962591,12.9915011 L36.6211004,12.9915011 L36.5912349,10.3334699 C36.5553963,7.75906204 36.5494232,7.66349238 36.4180149,7.25732134 C36.1551983,6.46289847 35.9580859,6.20605503 35.4264796,5.96115777 C35.1756093,5.8476688 35.0262816,5.82377637 34.5006485,5.82377637 C33.9451498,5.82377637 33.837634,5.84169568 33.5270326,5.98505015 C32.8699911,6.29565157 32.344358,6.9407468 32.0755683,7.76503516 C31.9859717,8.05174415 31.9680524,8.41013038 31.94416,10.5604478 L31.9202676,13.0213667 L31.3886614,13.0213667 C31.0123558,13.0213667 30.8451089,12.9974742 30.8271896,12.9496894 Z" id="Shape"></path>
                </g>
                <g fill="#FFFFFF">
                    <path d="M44.7146563,17.0830773 C43.4722507,16.9875077 42.3015223,16.4738207 41.5548843,15.6913441 L41.3517988,15.4763124 L41.7639429,15.0283296 L42.170114,14.5803468 L42.6121237,14.9984641 C43.3946003,15.7451021 44.4637859,16.1273807 45.5508908,16.0497304 C47.0441668,15.9422145 47.9162402,15.2672538 48.2686534,13.9471978 C48.3701957,13.5708922 48.4657655,11.8028534 48.3940883,11.6176872 C48.3642227,11.5340638 48.3224111,11.5639293 48.149191,11.7670148 C47.4802033,12.5674108 46.5245066,12.9795549 45.3418322,12.9795549 C43.6872824,12.9735818 42.2776299,12.1313742 41.5787767,10.7217216 C41.2622022,10.0706533 41.1726056,9.60475116 41.2084443,8.69086626 C41.2323367,8.00993241 41.2562291,7.8546317 41.4175029,7.41859512 C41.7818622,6.43900609 42.4508499,5.66250254 43.31695,5.21451976 C44.0874804,4.8143218 44.8460646,4.67694039 45.7360571,4.77848318 C46.6678611,4.88599903 47.4324186,5.26230457 48.0775137,5.93129222 L48.4179809,6.28370538 L48.4179809,4.95767627 L49.5588436,4.95767627 L49.5409241,9.39569253 C49.523005,13.7739777 49.517032,13.8337088 49.3856236,14.305584 C49.2124035,14.938733 49.0033448,15.3449041 48.6509316,15.7689945 C48.0715407,16.4678477 47.0680594,16.951669 45.9271964,17.0830773 C45.6404874,17.1129429 45.3776708,17.1368353 45.3418322,17.1308622 C45.3119667,17.1308622 45.0252577,17.1069698 44.7146563,17.0830773 Z M46.1720935,11.8506383 C46.6977267,11.7132569 47.2054409,11.4265479 47.5877191,11.0502423 C48.1671105,10.4768243 48.4179809,9.82575604 48.4179809,8.89395182 C48.4179809,7.60973445 47.8206704,6.58833368 46.7813505,6.09853917 C45.6285412,5.55498668 44.35627,5.74015289 43.4244658,6.58833368 C42.8271554,7.13188612 42.5225272,7.79490066 42.4627961,8.66100076 C42.4030651,9.59877809 42.7136664,10.4230664 43.3707079,11.0801079 C44.1173459,11.8207728 45.1626391,12.1134548 46.1720935,11.8506383 Z M3.42856168,13.1408287 C1.74414636,12.8362004 0.573417982,11.7968803 0.143354495,10.2319271 C-0.0418117278,9.55099324 -0.0418117278,8.33845314 0.143354495,7.67543861 C0.543552459,6.27773226 1.57092635,5.24438526 2.91487473,4.90391834 C3.82875964,4.67096732 4.67096732,4.68888663 5.48928257,4.96364939 C5.95518465,5.1189501 6.61819918,5.53109426 6.94671991,5.86558811 L7.20356336,6.12840467 L6.7615537,6.46887159 C6.51665645,6.6540378 6.30162469,6.80933851 6.28370538,6.80933851 C6.26578607,6.80933851 6.11645848,6.67195711 5.94921153,6.50471021 C5.35190116,5.90739984 4.47385487,5.66847566 3.54205065,5.85364187 C1.89347396,6.17618948 0.949723531,7.83671239 1.32005598,9.76602499 C1.49924909,10.6978292 2.00098983,11.3966824 2.78346645,11.7849341 C3.92432931,12.3583521 5.18465426,12.2030514 5.96713084,11.3907092 L6.27773226,11.0681616 L6.74960747,11.432521 L7.22148272,11.7968803 L6.82725782,12.1612397 C6.39719436,12.5614376 5.78196463,12.8959314 5.20257357,13.0512322 C4.77848318,13.1647211 3.82278654,13.212506 3.42856168,13.1408287 Z M22.1363233,13.1049901 C21.3956584,12.9078777 20.7864018,12.4479487 20.4578811,11.8207728 C20.3264728,11.5878217 20.3145266,11.4803058 20.3145266,10.8113182 C20.3145266,10.1064919 20.3264728,10.0467609 20.4817735,9.74213257 C20.7923749,9.15079527 21.3538467,8.7207318 22.1482695,8.445969 C22.8471227,8.21301793 23.4802717,8.11744827 24.6987849,8.08160965 L25.851594,8.04577103 L25.8097823,7.62765376 C25.7500512,7.01242408 25.5887774,6.63014542 25.2542836,6.319544 C24.877978,5.96115777 24.4777801,5.83572256 23.7789269,5.82974949 C22.9307461,5.82974949 22.2080005,6.06270051 21.5867978,6.53457576 L21.3060618,6.74960747 L20.971568,6.36135574 C20.7744556,6.14035086 20.6430473,5.93726534 20.6609666,5.88948053 C20.6788859,5.8476688 20.8879446,5.67444878 21.1328418,5.51317495 C21.8615605,5.02935355 22.8292033,4.77848318 23.9760393,4.77848318 C25.391665,4.7844563 26.3832002,5.40565909 26.8072906,6.55846814 C26.9327258,6.88101575 26.9386989,7.04228958 26.9805106,9.79589049 C27.004403,11.3907092 27.0402417,12.7645232 27.0641341,12.8600928 L27.1059458,13.0213667 L26.5982319,13.0213667 C26.251792,13.0213667 26.0725988,12.9974742 26.0307871,12.9437163 C25.9949485,12.9019046 25.9471637,12.6032494 25.9232712,12.2866748 L25.8814595,11.7132569 L25.7201857,11.9342617 C25.2960953,12.5136528 24.6928118,12.925797 24.0059049,13.1049901 C23.5519489,13.2244522 22.5843061,13.2244522 22.1363233,13.1049901 Z M24.2030173,12.0298314 C24.8660318,11.8506383 25.4454229,11.2712472 25.6664277,10.572394 C25.738105,10.3513892 25.8038091,9.93327189 25.8217284,9.59280497 L25.8575671,9.00146768 L24.7286504,9.0373063 C23.844631,9.06119872 23.498191,9.09106422 23.1278586,9.19260701 C22.5365213,9.34790772 21.9869957,9.6465629 21.7540447,9.93924501 C21.5987439,10.1303843 21.5688784,10.2199809 21.5509591,10.572394 C21.5210936,11.0741347 21.5987439,11.3309782 21.8794798,11.6176872 C22.3752474,12.1254011 23.2831593,12.2866748 24.2030173,12.0298314 Z M56.1830159,13.1109632 C54.7912828,12.7943887 53.8833709,12.0716431 53.2860604,10.7933989 C52.8858626,9.9511912 52.7902928,8.68489318 53.0471361,7.73516966 C53.3517646,6.61222611 54.1760528,5.61471773 55.1974537,5.13089629 C55.7648986,4.86210665 56.2606662,4.76056387 56.9595195,4.76056387 C57.9331352,4.76056387 58.6140694,4.97559563 59.3308418,5.51914807 C60.2447268,6.21202814 60.7823061,7.38872962 60.7823061,8.69683937 L60.7823061,9.24039182 L57.4612601,9.27623048 C55.6275171,9.30012286 54.1222951,9.32401529 54.1163221,9.33596148 C54.068537,9.38374634 54.3313538,10.2856851 54.4806813,10.5783671 C54.6777935,10.9606458 55.1377225,11.4564134 55.5319478,11.7132569 C56.2128815,12.1492935 57.1864972,12.2627825 57.9868934,12.0119121 C58.488634,11.8506383 59.0620519,11.4623865 59.3845995,11.0681616 L59.6354698,10.7635333 L60.0535872,11.0980272 C60.2865384,11.2891665 60.4776776,11.4683596 60.4836506,11.4982251 C60.4836506,11.605741 59.695201,12.3404328 59.3368148,12.5674108 C58.7633969,12.9317701 58.0048124,13.1468018 57.2342824,13.1766674 C56.7862994,13.1886136 56.4458323,13.1706942 56.1830159,13.1109632 Z M59.5160079,7.9442283 C59.4921153,7.61570757 59.4323846,7.41859512 59.2651376,7.0781282 C59.0082942,6.56444126 58.7156118,6.27773226 58.1541404,6.0149157 C57.8136733,5.85364187 57.6882379,5.82377637 57.1566316,5.80585706 C56.660864,5.78196463 56.4697249,5.80585706 56.1352313,5.90739984 C55.1317495,6.21202814 54.2596766,7.15577855 54.1700798,8.03979796 L54.1342412,8.36234557 L59.5458735,8.36234557 L59.5160079,7.9442283 Z M9.93327189,12.9795549 C9.90937947,12.9616356 9.89146016,10.0288416 9.89146016,6.46887159 L9.89146016,0 L11.0263499,0 L11.0263499,6.22397434 L11.4205748,5.80585706 C11.71923,5.47733633 11.9223155,5.32203562 12.2807018,5.14284253 C12.9078777,4.83224111 13.2961294,4.75459075 14.1024985,4.79640249 C15.4703393,4.85613353 16.2707352,5.44149771 16.658987,6.66001092 C16.7844221,7.06618201 16.7903953,7.14980543 16.7903953,10.0348147 L16.7903953,12.9915011 L15.7152365,12.9915011 L15.685371,10.3334699 C15.6495324,7.75906204 15.6435593,7.66349237 15.512151,7.25732134 C15.2493344,6.46289847 15.052222,6.20605503 14.5206157,5.96115777 C14.2637722,5.8476688 14.1263909,5.82377637 13.5649191,5.82377637 C12.9437163,5.82377637 12.8899584,5.83572256 12.5435183,6.0149157 C12.1194279,6.23592053 11.5878217,6.78544609 11.3847362,7.20356336 C11.0741348,7.86657794 11.0681616,7.93228206 11.0442693,10.5604478 L11.0203768,13.0213667 L10.4947437,13.0213667 C10.2080347,13.0213667 9.9511912,13.0034473 9.93327189,12.9795549 Z M30.8271896,12.9496894 C30.8152434,12.9078777 30.7913509,11.0920541 30.7853778,8.91187113 L30.7674585,4.9517032 L31.3349034,4.96962251 L31.9023483,4.98754182 L31.9322138,5.60874461 L31.9620793,6.22397434 L32.1591917,5.95518465 C32.4996587,5.47136321 33.323947,4.97559563 34.0168271,4.83224111 C34.5185678,4.73069832 35.5817803,4.79640249 36.0058707,4.95767627 C36.7883473,5.25035838 37.2721687,5.77599151 37.5529047,6.64806473 C37.6962591,7.0781282 37.6962591,7.09007439 37.6962591,10.0348147 L37.6962591,12.9915011 L36.6211004,12.9915011 L36.5912349,10.3334699 C36.5553963,7.75906204 36.5494232,7.66349238 36.4180149,7.25732134 C36.1551983,6.46289847 35.9580859,6.20605503 35.4264796,5.96115777 C35.1756093,5.8476688 35.0262816,5.82377637 34.5006485,5.82377637 C33.9451498,5.82377637 33.837634,5.84169568 33.5270326,5.98505015 C32.8699911,6.29565157 32.344358,6.9407468 32.0755683,7.76503516 C31.9859717,8.05174415 31.9680524,8.41013038 31.94416,10.5604478 L31.9202676,13.0213667 L31.3886614,13.0213667 C31.0123558,13.0213667 30.8451089,12.9974742 30.8271896,12.9496894 Z" id="Shape"></path>
                </g>
            </g>
        </g>
    </g>
</svg>