<?xml version="1.0" encoding="UTF-8"?>
<svg width="216px" height="104px" viewBox="0 0 216 104" version="1.1" xmlns="http://www.w3.org/2000/svg" xmlns:xlink="http://www.w3.org/1999/xlink">
    <!-- Generator: Sketch 59 (86127) - https://sketch.com -->
    <title>ChangeNow-dark</title>
    <desc>Created with Sketch.</desc>
    <g id="ChangeNow" stroke="none" stroke-width="1" fill="none" fill-rule="evenodd">
        <g id="Logo" transform="translate(70.000000, 30.000000)" fill-rule="nonzero">
            <g transform="translate(0.763889, 0.611111)" id="Group">
                <g fill="#38F06E">
                    <path d="M33.1513907,42.590886 C32.4870488,42.5178814 31.2751723,42.2550648 30.6254314,42.0433514 C26.9752012,40.846076 24.6171525,37.9696946 23.9820124,33.9471408 C23.8652051,33.2243953 23.8652051,31.1437641 23.9820124,30.4064176 C24.3616364,27.9899652 25.2887949,26.1137468 26.8729948,24.5587488 C28.1724767,23.2811682 29.873484,22.4124134 31.9687161,21.9597849 C32.6184571,21.8210762 32.9323769,21.7991748 34.3924689,21.7918743 C36.232185,21.7918743 36.7505177,21.8575784 38.1011029,22.2737047 C41.0869911,23.1862622 43.3647348,25.4056022 44.3575974,28.3841901 C44.795625,29.7055734 44.8978315,30.3991171 44.9051319,32.1220258 C44.9051319,33.3631041 44.8759301,33.8303335 44.7737237,34.3486662 C43.8830675,38.7070411 40.831475,41.6564271 36.3635933,42.4521773 C35.7211527,42.5689846 33.7354275,42.6492897 33.1513907,42.590886 Z M36.0715748,39.1669701 C37.6265729,38.7508438 38.8457498,37.9477931 39.736406,36.7578182 C41.3571082,34.6041823 41.6637275,31.1072618 40.4445506,28.668908 C39.9408189,27.6614445 39.1377682,26.734286 38.2763139,26.1429487 C37.7944835,25.814428 36.8308227,25.3764004 36.2540863,25.2230907 C35.5386412,25.0332787 33.7354275,24.989476 32.9542783,25.1500861 C30.4356194,25.6611183 28.5448002,27.5081348 27.8512565,30.1363005 C27.654144,30.8663466 27.5884399,32.4578469 27.7052472,33.2900995 C28.0483689,35.6116459 29.2091421,37.4294605 31.0415576,38.5026282 C31.5379889,38.7873461 32.5819548,39.1596696 33.1951935,39.2691765 C33.7719298,39.3713829 35.5459417,39.3129793 36.0715748,39.1669701 Z M1.13887182,32.1950304 L1.13887182,22.2664042 L5.86957018,22.2664042 L10.6805736,29.6106674 L15.4842765,36.9549306 L15.5061779,29.6106674 L15.5207788,22.2664042 L19.0980044,22.2664042 L19.0980044,42.1236565 L16.8202608,42.1236565 L14.5352167,42.1163561 L9.69501141,34.6041823 C7.03034338,30.4648213 4.81830386,27.0847081 4.78180156,27.0847081 C4.74529926,27.0847081 4.71609742,30.1290001 4.71609742,34.6041823 L4.71609742,42.1236565 L1.13887182,42.1236565 L1.13887182,32.1950304 Z M53.3444641,41.9484455 C53.3079619,41.8535395 51.9865785,37.4294605 50.4096791,32.1147253 C48.8400801,26.7999902 47.5332977,22.405113 47.5113963,22.3540098 C47.4894949,22.2810051 47.8910202,22.2664042 49.4679197,22.2810051 L51.4609454,22.3029065 L53.293361,29.3259494 C54.3008245,33.187893 55.1403774,36.3635933 55.1622788,36.3854947 C55.1841802,36.4000956 56.0894372,33.5894183 57.1699052,30.1290001 C58.2503734,26.6685818 59.243236,23.4855811 59.3819446,23.054854 L59.6228601,22.2664042 L63.1635835,22.2664042 L65.3464209,29.398954 C66.550997,33.3266017 67.5438596,36.4877011 67.5584604,36.4292974 C67.5730617,36.3708937 68.4418164,33.1659916 69.5003829,29.3113485 L71.4131035,22.3029065 L73.2528198,22.2810051 L75.0852351,22.2664042 L74.9903293,22.5876245 C74.9319258,22.770136 73.6324438,27.2380178 72.0920465,32.5235511 L69.2959699,42.1236565 L67.5876624,42.1090556 L65.8793549,42.0871542 L63.6235122,34.7136892 C62.3824343,30.6619337 61.3457689,27.289121 61.3238672,27.2307173 C61.2873648,27.1431118 61.2654637,27.1504123 61.2143606,27.2672196 C61.1486562,27.4132288 56.6953752,42.0214501 56.6953752,42.0871542 C56.6953752,42.1090556 55.958029,42.1236565 55.0527719,42.1236565 L53.4101683,42.1236565 L53.3444641,41.9484455 Z M54.6512466,20.8793167 C53.1327508,20.7625094 51.7018606,20.1346698 50.789303,19.1783095 L50.5410874,18.9154929 L51.0448191,18.3679584 L51.5412504,17.8204239 L52.0814845,18.3314561 C53.0378448,19.2440136 54.3446272,19.7112431 55.673311,19.6163371 C57.4984261,19.4849288 58.5642936,18.6599768 58.9950208,17.046575 C59.1191281,16.586646 59.2359356,14.4257098 59.1483301,14.1993955 C59.1118277,14.097189 59.0607246,14.1336913 58.8490112,14.381907 C58.0313596,15.3601687 56.8632859,15.8639005 55.4177949,15.8639005 C53.3955674,15.8566 51.6726587,14.8272351 50.8185049,13.1043264 C50.4315805,12.3085763 50.3220735,11.7391403 50.3658763,10.6221699 C50.3950781,9.7899174 50.42428,9.60010542 50.6213925,9.06717181 C51.0667205,7.86989633 51.8843721,6.92083644 52.9429389,6.37330193 C53.8846982,5.88417108 54.8118567,5.71626048 55.8996253,5.84036833 C57.0384969,5.9717766 57.9729561,6.43170559 58.7614057,7.24935716 L59.1775322,7.68008436 L59.1775322,6.05938211 L60.57192,6.05938211 L60.5500183,11.4836242 C60.5281172,16.8348617 60.5208169,16.9078663 60.3602066,17.4846027 C60.1484932,18.2584515 59.892977,18.7548828 59.4622498,19.2732154 C58.7541053,20.1273694 57.5276282,20.7187066 56.1332401,20.8793167 C55.782818,20.9158191 55.4615977,20.9450209 55.4177949,20.9377204 C55.3812926,20.9377204 55.0308705,20.9085186 54.6512466,20.8793167 Z M56.4325587,14.4841134 C57.0749993,14.3162028 57.6955388,13.9657808 58.1627678,13.5058517 C58.8709129,12.8050075 59.1775322,12.0092574 59.1775322,10.8703856 C59.1775322,9.30078655 58.447486,8.05240784 57.1772061,7.4537701 C55.768217,6.78942817 54.2132189,7.01574243 53.0743471,8.05240784 C52.3443011,8.71674971 51.9719776,9.5271008 51.898973,10.5856676 C51.8259684,11.7318399 52.2055923,12.7393034 53.008643,13.5423541 C53.9212006,14.4476111 55.1987811,14.8053337 56.4325587,14.4841134 Z M4.19046427,16.0610129 C2.13173444,15.6886894 0.700844201,14.4184093 0.17521105,12.5056887 C-0.0511032228,11.6734362 -0.0511032228,10.1914427 0.17521105,9.38109164 C0.664341895,7.67278388 1.92002109,6.40980421 3.56262468,5.99367797 C4.67959512,5.70896006 5.70896006,5.73086144 6.70912314,6.06668259 C7.27855902,6.25649457 8.08891011,6.76022631 8.49043545,7.16905213 L8.80435522,7.49027238 L8.26412119,7.90639861 C7.96480232,8.13271287 7.70198573,8.32252485 7.68008436,8.32252485 C7.65818298,8.32252485 7.47567148,8.15461425 7.27125854,7.95020137 C6.54121253,7.22015536 5.46804484,6.92813692 4.32917302,7.15445117 C2.31424595,7.54867603 1.1607732,9.57820404 1.61340175,11.9362528 C1.83241556,13.0751246 2.44565424,13.9292784 3.40201455,14.4038084 C4.79640249,15.1046526 6.33679965,14.9148406 7.29315992,13.921978 L7.67278388,13.5277531 L8.24952024,13.9730812 L8.82625665,14.4184093 L8.34442623,14.8637374 C7.8187931,15.3528682 7.06684566,15.761694 6.35870103,15.951506 C5.84036833,16.0902147 4.67229466,16.1486184 4.19046427,16.0610129 Z M27.0555063,16.0172101 C26.1502492,15.7762949 25.4056022,15.2141595 25.0040769,14.4476111 C24.8434668,14.1628932 24.8288659,14.0314849 24.8288659,13.2138333 C24.8288659,12.352379 24.8434668,12.2793744 25.0332787,11.9070509 C25.4129026,11.1843053 26.0991459,10.6586722 27.0701072,10.322851 C27.924261,10.038133 28.6981098,9.92132566 30.1874038,9.87752291 L31.5963927,9.83372015 L31.5452894,9.32268792 C31.4722848,8.57074054 31.2751723,8.10351107 30.8663466,7.72388711 C30.4064176,7.2858595 29.9172867,7.13254979 29.0631328,7.12524937 C28.0264675,7.12524937 27.1431118,7.40996729 26.3838639,7.9867037 L26.0407422,8.24952024 L25.6319165,7.77499035 C25.3910013,7.50487328 25.2303911,7.25665764 25.2522925,7.19825398 C25.2741939,7.14715075 25.52971,6.93543739 25.8290289,6.73832494 C26.7196851,6.14698768 27.9023596,5.84036833 29.3040481,5.84036833 C31.0342572,5.84766881 32.2461336,6.60691667 32.7644663,8.0159055 C32.917776,8.41013036 32.9250764,8.60724282 32.9761796,11.972755 C33.0053815,13.921978 33.0491842,15.6010839 33.0783861,15.7178912 L33.1294893,15.9150037 L32.5089502,15.9150037 C32.0855235,15.9150037 31.8665097,15.8858018 31.8154064,15.8200977 C31.7716037,15.7689945 31.7132,15.4039715 31.6839982,15.017047 L31.6328949,14.3162028 L31.4357825,14.5863199 C30.9174498,15.2944645 30.1801033,15.7981963 29.3405504,16.0172101 C28.7857153,16.1632193 27.6030408,16.1632193 27.0555063,16.0172101 Z M29.5814655,14.7031273 C30.3918166,14.4841134 31.0999613,13.7759688 31.3700783,12.9218149 C31.4576838,12.6516979 31.5379889,12.1406656 31.5598903,11.7245394 L31.6036931,11.0017938 L30.2239061,11.0455966 C29.1434379,11.0747984 28.7200112,11.1113007 28.2673827,11.2354086 C27.5446371,11.4252205 26.8729948,11.7902435 26.5882768,12.1479661 C26.3984648,12.3815809 26.3619625,12.4910878 26.3400612,12.9218149 C26.3035588,13.5350536 26.3984648,13.8489734 26.7415864,14.1993955 C27.3475247,14.8199346 28.4571947,15.017047 29.5814655,14.7031273 Z M68.6681306,16.0245106 C66.9671235,15.6375862 65.8574533,14.7542305 65.1274071,13.191932 C64.6382765,12.162567 64.5214689,10.6148694 64.8353886,9.45409625 C65.2077123,8.08160969 66.2151757,6.86243278 67.4635545,6.27109546 C68.1570982,5.9425748 68.7630364,5.81846695 69.6171905,5.81846695 C70.8071652,5.81846695 71.6394182,6.08128354 72.5154733,6.74562541 C73.6324438,7.59247884 74.2894852,9.03066953 74.2894852,10.6294703 L74.2894852,11.2938122 L70.230429,11.337615 C67.9891876,11.3668168 66.1494718,11.3960187 66.1421715,11.4106196 C66.0837674,11.4690233 66.404988,12.5713928 66.5874994,12.9291154 C66.8284143,13.3963448 67.3905497,14.0022831 67.8723806,14.3162028 C68.704633,14.8491365 69.8946077,14.9878452 70.8728697,14.6812259 C71.4861082,14.4841134 72.1869523,14.0095835 72.5811771,13.5277531 L72.8877964,13.1554296 L73.3988288,13.5642554 C73.683547,13.7978702 73.9171615,14.016884 73.9244618,14.0533863 C73.9244618,14.1847946 72.9608012,15.0827512 72.5227736,15.3601687 C71.8219296,15.8054967 70.8947708,16.0683133 69.9530118,16.1048157 C69.4054771,16.1194166 68.9893506,16.0975152 68.6681306,16.0245106 Z M72.7417874,9.70961236 C72.7125854,9.30808702 72.6395812,9.06717181 72.4351681,8.65104557 C72.1212485,8.02320598 71.7635255,7.67278388 71.0772827,7.35156363 C70.6611562,7.15445117 70.5078463,7.11794889 69.8581053,7.09604752 C69.2521671,7.06684566 69.0185526,7.09604752 68.6097271,7.22015536 C67.3832494,7.59247884 66.3173825,8.74595156 66.2078753,9.82641973 L66.1640726,10.2206446 L72.7782898,10.2206446 L72.7417874,9.70961236 Z M12.1406656,15.8639005 C12.1114638,15.8419991 12.0895624,12.257473 12.0895624,7.90639861 L12.0895624,0 L13.4766499,0 L13.4766499,7.60707974 L13.9584803,7.09604752 C14.3235033,6.69452218 14.5717189,6.5047102 15.0097466,6.28569642 C15.7762949,5.90607246 16.2508248,5.81116647 17.236387,5.86226971 C18.9081924,5.93527432 19.8864541,6.65071942 20.3609841,8.14001335 C20.5142937,8.63644467 20.5215942,8.73865109 20.5215942,12.2647735 L20.5215942,15.8785014 L19.2075113,15.8785014 L19.171009,12.6297965 C19.1272063,9.48329805 19.1199058,9.36649068 18.9592957,8.87005941 C18.6380754,7.89909813 18.3971602,7.58517837 17.7474192,7.2858595 C17.4334994,7.14715075 17.2655889,7.11794889 16.5793456,7.11794889 C15.8200977,7.11794889 15.7543936,7.13254979 15.3309669,7.35156363 C14.8126341,7.62168064 14.1628932,8.29332299 13.9146775,8.80435522 C13.5350536,9.61470637 13.5277531,9.69501141 13.4985513,12.907214 L13.4693494,15.9150037 L12.826909,15.9150037 C12.4764869,15.9150037 12.162567,15.8931023 12.1406656,15.8639005 Z M37.6776761,15.8273982 C37.6630752,15.7762949 37.6338734,13.556955 37.6265729,10.8922869 L37.6046715,6.05208169 L38.2982153,6.07398306 L38.991759,6.09588444 L39.0282613,6.8551323 L39.0647636,7.60707974 L39.3056788,7.27855902 C39.721805,6.6872217 40.7292686,6.08128354 41.576122,5.90607246 C42.1893607,5.78196462 43.4888426,5.86226971 44.0071753,6.05938211 C44.9635356,6.41710469 45.5548729,7.05954518 45.8979946,8.12541245 C46.0732056,8.65104557 46.0732056,8.66564647 46.0732056,12.2647735 L46.0732056,15.8785014 L44.7591228,15.8785014 L44.7226204,12.6297965 C44.6788177,9.48329805 44.6715172,9.36649068 44.5109071,8.87005941 C44.1896868,7.89909813 43.9487716,7.58517837 43.2990306,7.2858595 C42.9924113,7.14715075 42.8098998,7.11794889 42.1674593,7.11794889 C41.4885165,7.11794889 41.3571082,7.13985027 40.9774842,7.3150613 C40.1744336,7.69468526 39.5319931,8.48313497 39.2034723,9.49059853 C39.0939654,9.84102063 39.0720641,10.2790482 39.0428622,12.907214 L39.0136604,15.9150037 L38.3639194,15.9150037 C37.9039904,15.9150037 37.6995775,15.8858018 37.6776761,15.8273982 Z" id="Shape"></path>
                </g>
                <g fill="#FFFFFF">
                    <path d="M54.6512466,20.8793167 C53.1327508,20.7625094 51.7018606,20.1346698 50.789303,19.1783095 L50.5410874,18.9154929 L51.0448191,18.3679584 L51.5412504,17.8204239 L52.0814845,18.3314561 C53.0378448,19.2440136 54.3446272,19.7112431 55.673311,19.6163371 C57.4984261,19.4849288 58.5642936,18.6599768 58.9950208,17.046575 C59.1191281,16.586646 59.2359356,14.4257098 59.1483301,14.1993955 C59.1118277,14.097189 59.0607246,14.1336913 58.8490112,14.381907 C58.0313596,15.3601687 56.8632859,15.8639005 55.4177949,15.8639005 C53.3955674,15.8566 51.6726587,14.8272351 50.8185049,13.1043264 C50.4315805,12.3085763 50.3220735,11.7391403 50.3658763,10.6221699 C50.3950781,9.7899174 50.42428,9.60010542 50.6213925,9.06717181 C51.0667205,7.86989633 51.8843721,6.92083644 52.9429389,6.37330193 C53.8846982,5.88417108 54.8118567,5.71626048 55.8996253,5.84036833 C57.0384969,5.9717766 57.9729561,6.43170559 58.7614057,7.24935716 L59.1775322,7.68008436 L59.1775322,6.05938211 L60.57192,6.05938211 L60.5500183,11.4836242 C60.5281172,16.8348617 60.5208169,16.9078663 60.3602066,17.4846027 C60.1484932,18.2584515 59.892977,18.7548828 59.4622498,19.2732154 C58.7541053,20.1273694 57.5276282,20.7187066 56.1332401,20.8793167 C55.782818,20.9158191 55.4615977,20.9450209 55.4177949,20.9377204 C55.3812926,20.9377204 55.0308705,20.9085186 54.6512466,20.8793167 Z M56.4325587,14.4841134 C57.0749993,14.3162028 57.6955388,13.9657808 58.1627678,13.5058517 C58.8709129,12.8050075 59.1775322,12.0092574 59.1775322,10.8703856 C59.1775322,9.30078655 58.447486,8.05240784 57.1772061,7.4537701 C55.768217,6.78942817 54.2132189,7.01574243 53.0743471,8.05240784 C52.3443011,8.71674971 51.9719776,9.5271008 51.898973,10.5856676 C51.8259684,11.7318399 52.2055923,12.7393034 53.008643,13.5423541 C53.9212006,14.4476111 55.1987811,14.8053337 56.4325587,14.4841134 Z M4.19046427,16.0610129 C2.13173444,15.6886894 0.700844201,14.4184093 0.17521105,12.5056887 C-0.0511032228,11.6734362 -0.0511032228,10.1914427 0.17521105,9.38109164 C0.664341895,7.67278388 1.92002109,6.40980421 3.56262468,5.99367797 C4.67959512,5.70896006 5.70896006,5.73086144 6.70912314,6.06668259 C7.27855902,6.25649457 8.08891011,6.76022631 8.49043545,7.16905213 L8.80435522,7.49027238 L8.26412119,7.90639861 C7.96480232,8.13271287 7.70198573,8.32252485 7.68008436,8.32252485 C7.65818298,8.32252485 7.47567148,8.15461425 7.27125854,7.95020137 C6.54121253,7.22015536 5.46804484,6.92813692 4.32917302,7.15445117 C2.31424595,7.54867603 1.1607732,9.57820404 1.61340175,11.9362528 C1.83241556,13.0751246 2.44565424,13.9292784 3.40201455,14.4038084 C4.79640249,15.1046526 6.33679965,14.9148406 7.29315992,13.921978 L7.67278388,13.5277531 L8.24952024,13.9730812 L8.82625665,14.4184093 L8.34442623,14.8637374 C7.8187931,15.3528682 7.06684566,15.761694 6.35870103,15.951506 C5.84036833,16.0902147 4.67229466,16.1486184 4.19046427,16.0610129 Z M27.0555063,16.0172101 C26.1502492,15.7762949 25.4056022,15.2141595 25.0040769,14.4476111 C24.8434668,14.1628932 24.8288659,14.0314849 24.8288659,13.2138333 C24.8288659,12.352379 24.8434668,12.2793744 25.0332787,11.9070509 C25.4129026,11.1843053 26.0991459,10.6586722 27.0701072,10.322851 C27.924261,10.038133 28.6981098,9.92132566 30.1874038,9.87752291 L31.5963927,9.83372015 L31.5452894,9.32268792 C31.4722848,8.57074054 31.2751723,8.10351107 30.8663466,7.72388711 C30.4064176,7.2858595 29.9172867,7.13254979 29.0631328,7.12524937 C28.0264675,7.12524937 27.1431118,7.40996729 26.3838639,7.9867037 L26.0407422,8.24952024 L25.6319165,7.77499035 C25.3910013,7.50487328 25.2303911,7.25665764 25.2522925,7.19825398 C25.2741939,7.14715075 25.52971,6.93543739 25.8290289,6.73832494 C26.7196851,6.14698768 27.9023596,5.84036833 29.3040481,5.84036833 C31.0342572,5.84766881 32.2461336,6.60691667 32.7644663,8.0159055 C32.917776,8.41013036 32.9250764,8.60724282 32.9761796,11.972755 C33.0053815,13.921978 33.0491842,15.6010839 33.0783861,15.7178912 L33.1294893,15.9150037 L32.5089502,15.9150037 C32.0855235,15.9150037 31.8665097,15.8858018 31.8154064,15.8200977 C31.7716037,15.7689945 31.7132,15.4039715 31.6839982,15.017047 L31.6328949,14.3162028 L31.4357825,14.5863199 C30.9174498,15.2944645 30.1801033,15.7981963 29.3405504,16.0172101 C28.7857153,16.1632193 27.6030408,16.1632193 27.0555063,16.0172101 Z M29.5814655,14.7031273 C30.3918166,14.4841134 31.0999613,13.7759688 31.3700783,12.9218149 C31.4576838,12.6516979 31.5379889,12.1406656 31.5598903,11.7245394 L31.6036931,11.0017938 L30.2239061,11.0455966 C29.1434379,11.0747984 28.7200112,11.1113007 28.2673827,11.2354086 C27.5446371,11.4252205 26.8729948,11.7902435 26.5882768,12.1479661 C26.3984648,12.3815809 26.3619625,12.4910878 26.3400612,12.9218149 C26.3035588,13.5350536 26.3984648,13.8489734 26.7415864,14.1993955 C27.3475247,14.8199346 28.4571947,15.017047 29.5814655,14.7031273 Z M68.6681306,16.0245106 C66.9671235,15.6375862 65.8574533,14.7542305 65.1274071,13.191932 C64.6382765,12.162567 64.5214689,10.6148694 64.8353886,9.45409625 C65.2077123,8.08160969 66.2151757,6.86243278 67.4635545,6.27109546 C68.1570982,5.9425748 68.7630364,5.81846695 69.6171905,5.81846695 C70.8071652,5.81846695 71.6394182,6.08128354 72.5154733,6.74562541 C73.6324438,7.59247884 74.2894852,9.03066953 74.2894852,10.6294703 L74.2894852,11.2938122 L70.230429,11.337615 C67.9891876,11.3668168 66.1494718,11.3960187 66.1421715,11.4106196 C66.0837674,11.4690233 66.404988,12.5713928 66.5874994,12.9291154 C66.8284143,13.3963448 67.3905497,14.0022831 67.8723806,14.3162028 C68.704633,14.8491365 69.8946077,14.9878452 70.8728697,14.6812259 C71.4861082,14.4841134 72.1869523,14.0095835 72.5811771,13.5277531 L72.8877964,13.1554296 L73.3988288,13.5642554 C73.683547,13.7978702 73.9171615,14.016884 73.9244618,14.0533863 C73.9244618,14.1847946 72.9608012,15.0827512 72.5227736,15.3601687 C71.8219296,15.8054967 70.8947708,16.0683133 69.9530118,16.1048157 C69.4054771,16.1194166 68.9893506,16.0975152 68.6681306,16.0245106 Z M72.7417874,9.70961236 C72.7125854,9.30808702 72.6395812,9.06717181 72.4351681,8.65104557 C72.1212485,8.02320598 71.7635255,7.67278388 71.0772827,7.35156363 C70.6611562,7.15445117 70.5078463,7.11794889 69.8581053,7.09604752 C69.2521671,7.06684566 69.0185526,7.09604752 68.6097271,7.22015536 C67.3832494,7.59247884 66.3173825,8.74595156 66.2078753,9.82641973 L66.1640726,10.2206446 L72.7782898,10.2206446 L72.7417874,9.70961236 Z M12.1406656,15.8639005 C12.1114638,15.8419991 12.0895624,12.257473 12.0895624,7.90639861 L12.0895624,0 L13.4766499,0 L13.4766499,7.60707974 L13.9584803,7.09604752 C14.3235033,6.69452218 14.5717189,6.5047102 15.0097466,6.28569642 C15.7762949,5.90607246 16.2508248,5.81116647 17.236387,5.86226971 C18.9081924,5.93527432 19.8864541,6.65071942 20.3609841,8.14001335 C20.5142937,8.63644467 20.5215942,8.73865109 20.5215942,12.2647735 L20.5215942,15.8785014 L19.2075113,15.8785014 L19.171009,12.6297965 C19.1272063,9.48329805 19.1199058,9.36649068 18.9592957,8.87005941 C18.6380754,7.89909813 18.3971602,7.58517837 17.7474192,7.2858595 C17.4334994,7.14715075 17.2655889,7.11794889 16.5793456,7.11794889 C15.8200977,7.11794889 15.7543936,7.13254979 15.3309669,7.35156363 C14.8126341,7.62168064 14.1628932,8.29332299 13.9146775,8.80435522 C13.5350536,9.61470637 13.5277531,9.69501141 13.4985513,12.907214 L13.4693494,15.9150037 L12.826909,15.9150037 C12.4764869,15.9150037 12.162567,15.8931023 12.1406656,15.8639005 Z M37.6776761,15.8273982 C37.6630752,15.7762949 37.6338734,13.556955 37.6265729,10.8922869 L37.6046715,6.05208169 L38.2982153,6.07398306 L38.991759,6.09588444 L39.0282613,6.8551323 L39.0647636,7.60707974 L39.3056788,7.27855902 C39.721805,6.6872217 40.7292686,6.08128354 41.576122,5.90607246 C42.1893607,5.78196462 43.4888426,5.86226971 44.0071753,6.05938211 C44.9635356,6.41710469 45.5548729,7.05954518 45.8979946,8.12541245 C46.0732056,8.65104557 46.0732056,8.66564647 46.0732056,12.2647735 L46.0732056,15.8785014 L44.7591228,15.8785014 L44.7226204,12.6297965 C44.6788177,9.48329805 44.6715172,9.36649068 44.5109071,8.87005941 C44.1896868,7.89909813 43.9487716,7.58517837 43.2990306,7.2858595 C42.9924113,7.14715075 42.8098998,7.11794889 42.1674593,7.11794889 C41.4885165,7.11794889 41.3571082,7.13985027 40.9774842,7.3150613 C40.1744336,7.69468526 39.5319931,8.48313497 39.2034723,9.49059853 C39.0939654,9.84102063 39.0720641,10.2790482 39.0428622,12.907214 L39.0136604,15.9150037 L38.3639194,15.9150037 C37.9039904,15.9150037 37.6995775,15.8858018 37.6776761,15.8273982 Z" id="Shape"></path>
                </g>
            </g>
        </g>
    </g>
</svg>