<?xml version="1.0" encoding="UTF-8"?>
<svg width="216px" height="104px" viewBox="0 0 216 104" version="1.1" xmlns="http://www.w3.org/2000/svg" xmlns:xlink="http://www.w3.org/1999/xlink">
    <!-- Generator: Sketch 59 (86127) - https://sketch.com -->
    <title>Coinmama-dark</title>
    <desc>Created with Sketch.</desc>
    <g id="Coinmama" stroke="none" stroke-width="1" fill="none" fill-rule="evenodd">
        <path d="M48.0453691,33.0042953 C48.2536913,33.0053691 48.4566443,33.0687248 48.6273826,33.1879195 C48.8883221,33.3575839 49.1320805,33.5508725 49.3565101,33.7667114 C49.6367785,34.0222819 49.8998658,34.2971812 50.1425503,34.5881879 C50.3669799,34.8641611 50.5978523,35.1336913 50.7997315,35.4268456 C51.0005369,35.7210738 51.1863087,36.0067114 51.2432215,36.3653691 C51.2883221,36.612349 51.3473826,36.8550336 51.4225503,37.0934228 C51.4510866,37.1645056 51.4951068,37.2283349 51.5514094,37.2802685 C51.6405369,37.3769128 51.7361074,37.4649664 51.8316779,37.5530201 C52.0303356,37.7516779 52.2053691,37.9718121 52.3557047,38.2091275 C52.544698,38.4722148 52.7122148,38.7492617 52.8550336,39.0391946 C53.0139597,39.3645638 53.1342282,39.713557 53.2630872,40.0507383 C53.3683221,40.3267114 53.4563758,40.605906 53.5530201,40.8851007 C53.5660417,40.9207336 53.5743449,40.9579173 53.5777181,40.9957047 C53.5991946,41.3328859 53.633557,41.6700671 53.6367785,42.009396 C53.6485906,43.1959732 53.6518121,44.384698 53.6528859,45.5712752 C53.6528859,45.7645638 53.6528859,45.9578523 53.5100671,46.1350336 C53.4445638,46.212349 53.4424161,46.3497987 53.4273826,46.4636242 C53.3951678,46.6987919 53.4144966,46.9511409 53.3350336,47.1680537 C53.2308725,47.4504698 53.2813423,47.7275168 53.270604,48.0056376 L53.3232215,48.5908725 C53.3425503,48.8808054 53.5412081,49.0966443 53.6604027,49.344698 C53.8204027,49.6797315 54.0190604,49.9954362 54.2005369,50.3197315 C54.3938255,50.6612081 54.5871141,51.0026846 54.7750336,51.3441611 C55.0220134,51.7554362 55.2410738,52.1828188 55.4300671,52.6241611 C55.5073826,52.8174497 55.5922148,53.0032215 55.6609396,53.1965101 C55.7973154,53.5830872 55.7081879,53.8451007 55.4386577,54.1715436 C55.4289933,54.1822819 55.4107383,54.187651 55.4032215,54.1994631 C55.1852349,54.5269799 54.8394631,54.5860403 54.4861745,54.6504698 C54.1747651,54.7095302 53.8633557,54.7857718 53.6303356,55.0413423 C53.3983893,55.2969128 53.3661745,55.5116779 53.5648322,55.8069799 C53.7634899,56.1022819 53.9514094,56.3857718 54.1457718,56.6821477 C54.2760815,56.8654769 54.3249518,57.0944589 54.2808408,57.3150138 C54.2367299,57.5355687 54.1035488,57.7281404 53.9127517,57.8472483 C53.7516779,57.9449664 53.5959732,58.0534228 53.4477852,58.169396 C53.3253691,58.2660403 53.3328859,58.2971812 53.4263087,58.4324832 C53.6367785,58.7363758 53.8236242,59.0488591 53.8289933,59.4365101 C53.8434181,59.6692283 53.7232024,59.8896239 53.5197315,60.0034899 C53.2018792,60.2161074 52.8367785,60.3009396 52.4985235,60.4544966 C52.0528859,60.6563758 51.8692617,60.9914094 52.1688591,61.4456376 C52.4609396,61.8601342 52.5726174,62.3744966 52.4791946,62.8716779 C52.435764,63.1215888 52.3477409,63.3616516 52.2193289,63.5804027 C52.0419395,63.892413 51.8128164,64.1720086 51.541745,64.4072483 C51.3806711,64.5479195 51.1873826,64.6488591 50.9801342,64.7004027 C50.7707383,64.7455034 50.5720805,64.8507383 50.3626846,64.8872483 C49.8236242,64.9838926 49.2974497,65.1374497 48.7433557,65.1771812 C48.3428188,65.2040268 47.9487248,65.2899329 47.5503356,65.338255 C47.3130201,65.3672483 47.0703356,65.3618792 46.8319463,65.3908725 C45.9471141,65.4961074 45.0569128,65.4628188 44.1688591,65.4928859 C43.886443,65.5036242 43.6147651,65.6002685 43.3409396,65.6861745 C43.0832215,65.7634899 42.8824161,65.9267114 42.6633557,66.0534228 C42.5726873,66.1111308 42.4977805,66.1904656 42.4453691,66.2842953 C42.3379866,66.4668456 42.2520805,66.6622819 42.1554362,66.8512752 L41.7720805,67.5707383 C41.646443,67.8091275 41.5197315,68.0786577 41.3908725,68.3331544 C41.1116779,68.8861745 40.8271141,69.437047 40.5479195,69.9922148 C40.3761074,70.3336913 40.2075168,70.6783893 40.0357047,71.0209396 C39.7887248,71.5148993 39.5395973,72.0067114 39.2883221,72.4985235 C39.2544369,72.5717271 39.2018394,72.6346959 39.1358389,72.6810738 C39.120879,71.4447503 39.1065613,70.208419 39.0928859,68.9720805 C39.0767785,67.7318121 39.0585235,66.4926174 39.0391946,65.2115436 C39.1680537,65.202953 39.2754362,65.1911409 39.3806711,65.1900671 L40.1946309,65.1900671 C40.501745,65.1900671 40.5114094,65.1804027 40.5114094,64.882953 L40.5114094,62.5334228 C40.661745,62.415302 40.8260403,62.4442953 40.9731544,62.4442953 C42.0727517,62.4389262 43.1734228,62.4442953 44.274094,62.4442953 C44.4727517,62.4442953 44.6724832,62.4636242 44.8195973,62.4722148 C44.9581208,62.674094 45.1095302,62.8673826 45.2716779,63.0499329 C45.6518121,63.418255 46.2724832,63.5653691 46.7825503,63.2851007 C47.061425,63.1378317 47.2913008,62.912434 47.4440268,62.6365101 C47.6663087,62.237047 47.5546309,61.597047 47.2571812,61.2437584 C47.0813884,61.0340264 46.8542212,60.8734554 46.5978523,60.7777181 C46.3528893,60.6892666 46.0850867,60.6869938 45.8386577,60.7712752 C45.5465505,60.8634692 45.2885762,61.0406863 45.0977181,61.2802685 C45.018255,61.3833557 44.9581208,61.498255 44.9162416,61.6206711 C44.8775319,61.7164164 44.7854039,61.7798073 44.6821477,61.781745 C44.5711857,61.7924832 44.4587919,61.7936764 44.3462391,61.7935968 L39.2947651,61.793557 C39.0327517,61.793557 39.0102013,61.7731544 39.0048322,61.5240268 C39.0048322,61.1073826 38.994094,60.6907383 38.994094,60.2697987 C38.994094,59.8961074 38.994094,59.8939597 39.3645638,59.8939597 C39.9068456,59.8939597 40.4491275,59.8993289 40.9914094,59.8939597 C41.0880537,59.8939597 41.184698,59.8778523 41.3049664,59.8671141 L41.3049664,57.1181208 C41.3049664,56.9248322 41.2995973,56.9119463 41.0955705,56.9108725 C40.4834899,56.9108725 39.8714094,56.9108725 39.2561074,56.9065772 L38.9651007,56.9065772 L38.9651007,55.357047 C39.0875168,55.3484564 39.2077852,55.3355705 39.3302013,55.3355705 L46.1404027,55.3355705 C46.7288591,55.3355705 47.3173154,55.3248322 47.9057718,55.3108725 C48.0609577,55.290439 48.2110099,55.3748707 48.274094,55.5181208 C48.3793289,55.7221477 48.5296644,55.8993289 48.7143624,56.0367785 C49.0365101,56.2472483 49.4091275,56.3621477 49.7967785,56.2408054 C50.0437584,56.175302 50.2703356,56.0550336 50.464698,55.8907383 C50.8834899,55.5052349 51.0445638,54.6257718 50.6085906,54.1554362 C50.4765101,54.0104698 50.3766443,53.8386577 50.1930201,53.7430872 C49.8207173,53.53288 49.3737023,53.5009504 48.975302,53.6561074 C48.6692617,53.7710067 48.4813423,54.0061745 48.2891275,54.2338255 C48.2204027,54.3175839 48.2053691,54.4442953 48.1645638,54.5559732 C47.997047,54.6021477 42.3025503,54.6204027 41.9997315,54.5677852 C41.9922148,54.4614765 41.9804027,54.3487248 41.9804027,54.2359732 L41.9804027,51.3194631 C41.9696644,51.1111409 41.941745,51.0810738 41.7291275,51.0810738 L38.9457718,51.0810738 C38.9404027,50.9758389 38.9318121,50.8931544 38.9318121,50.8104698 C38.9318121,50.4174497 38.9318121,50.0233557 38.926443,49.6303356 C38.9210738,49.2620134 38.901745,48.8936913 38.8910067,48.5242953 L38.8910067,48.2773154 C38.9930201,48.2730201 39.0767785,48.2665772 39.1594631,48.2665772 L46.2037584,48.2665772 C46.3787919,48.2665772 46.5108725,48.285906 46.581745,48.4802685 C46.6590604,48.6918121 46.8448322,48.8324832 47.0026846,48.9860403 C47.0853691,49.0504698 47.1787919,49.0998658 47.2786577,49.1299329 C47.7919463,49.3371812 48.2472483,49.2502013 48.6789262,48.8979866 C49.0139597,48.6316779 49.2083221,48.2268456 49.2051007,47.7994631 C49.2001093,47.5911943 49.1327802,47.3892072 49.0118121,47.2195973 C48.754094,46.8051007 48.6359732,46.7116779 48.1484564,46.532349 C47.9367056,46.4543656 47.7040998,46.4543656 47.492349,46.532349 C47.4343624,46.5538255 47.3742282,46.5645638 47.3162416,46.5838926 C47.188608,46.6162995 47.0723373,46.6831645 46.9801342,46.7771812 C46.9348064,46.8152406 46.8850506,46.84769 46.8319463,46.8738255 C46.8072483,46.8910067 46.7728859,46.901745 46.76,46.926443 C46.6472483,47.1197315 46.5377181,47.3183893 46.421745,47.5256376 L41.0096644,47.5256376 C41.0010738,47.418255 40.9903356,47.332349 40.9903356,47.2561074 L40.9903356,45.9138255 C40.9903356,45.6539597 40.9473826,45.6131544 40.68,45.6131544 L38.9146309,45.6131544 C38.845906,45.313557 38.8319463,43.2593289 38.9006711,43.0467114 C38.9812081,43.0467114 39.0724832,43.0359732 39.1616107,43.0359732 L42.7642953,43.0359732 C42.9822819,43.0263087 43.0220134,42.9897987 43.0220134,42.7761074 L43.0220134,41.1245638 C43.0765162,41.1095051 43.132196,41.0990876 43.1884564,41.0934228 L44.5844295,41.0934228 C44.6839592,41.0896853 44.7770661,41.1424736 44.8249664,41.2297987 C44.9430872,41.3973154 45.018255,41.5938255 45.1879195,41.7302013 C45.5884564,42.052349 46.0362416,42.1983893 46.5269799,42.0265772 C46.7986577,41.9299329 47.0681879,41.7785235 47.2163758,41.4971812 C47.2353493,41.4633662 47.256889,41.4310566 47.2808054,41.4005369 C47.5514094,41.0268456 47.553557,40.6295302 47.3967785,40.2150336 C47.3062038,39.9700402 47.1414004,39.7594371 46.9253691,39.6126174 C46.7176894,39.4528961 46.4704751,39.3526741 46.2102013,39.3226846 C45.9566572,39.3059415 45.7036256,39.3622122 45.4810738,39.4848322 C45.1084564,39.6867114 44.8904698,39.9948993 44.7401342,40.3879195 L42.1436242,40.3879195 C42.1371812,39.2496644 42.1328859,38.1221477 42.1436242,36.9710067 C42.3014765,36.9624161 42.433557,36.950604 42.5613423,36.950604 L45.2566443,36.950604 C45.3114094,36.9538255 45.3661745,36.9538255 45.4198658,36.950604 C45.5648322,36.9377181 45.5916779,36.9097987 45.5981208,36.7648322 L45.5981208,33.0236242 C45.714094,33.0161074 45.8107383,33.0042953 45.9084564,33.0042953 C46.6214765,33.0042953 47.3344966,33.0161074 48.0453691,33.0042953 Z M37.4671141,66.3959732 L37.4671141,68.4598658 C37.3704698,68.4663087 37.2888591,68.4759732 37.2061745,68.477047 L35.9068456,68.477047 C35.7307383,68.477047 35.5546309,68.4974497 35.3849664,68.5071141 C35.3162416,68.3374497 35.2883221,66.7159732 35.3484564,66.4067114 C35.5116779,66.3562416 37.1642953,66.3433557 37.4671141,66.3959732 Z M38.0748993,60.7100671 C38.1253691,60.8636242 38.1404027,63.9830872 38.0899329,64.3063087 C38.0222819,64.3127517 37.9492617,64.3277852 37.8751678,64.3288591 L34.6697987,64.3288591 C34.6010738,64.3331544 34.5334228,64.3224161 34.4378523,64.3138255 L34.4378523,60.7315436 C34.6042953,60.6853691 37.7055034,60.6671141 38.0748993,60.7100671 Z M72.7089933,42.0072483 C73.4692617,42.002953 74.2273826,42.0673826 74.9758389,42.2005369 C75.5739597,42.3014765 76.1656376,42.4367785 76.747651,42.6053691 C77.1793289,42.7310067 77.597047,42.895302 77.9975839,43.0971812 C78.3272483,43.2700671 78.5581208,43.3957047 78.6955705,43.4730201 L77.6195973,46.4528859 C77.1546309,46.162953 76.4920805,45.8891275 75.6297987,45.6281879 C74.7192572,45.3623902 73.7745361,45.2321338 72.8260403,45.2416107 C71.9913175,45.2348831 71.162953,45.3872176 70.3852349,45.6904698 C69.6374723,45.9839574 68.9664975,46.4441279 68.4233557,47.0359732 C67.8387455,47.6892834 67.3982299,48.4583562 67.1304698,49.2931544 C66.8212081,50.1994631 66.6655034,51.2507383 66.6655034,52.445906 C66.6558389,53.4316779 66.778255,54.4142282 67.0295302,55.3677852 C67.2442953,56.2021477 67.6244295,56.9838926 68.1473826,57.6679195 C68.6550765,58.3176327 69.3133141,58.833977 70.0652349,59.172349 C70.8405369,59.5299329 71.7704698,59.7081879 72.8550336,59.7081879 C74.1511409,59.7081879 75.2067114,59.5793289 76.021745,59.3216107 C76.6703405,59.1238426 77.3019935,58.8742697 77.910604,58.575302 L78.8985235,61.5551678 C78.6003769,61.7413954 78.2836878,61.8961411 77.953557,62.0169128 C76.9100542,62.4130082 75.8220948,62.68022 74.7138255,62.8126174 C73.9922148,62.9028188 73.2641611,62.9457718 72.5361074,62.9437008 C71.0252349,62.9437008 69.6689933,62.7116779 68.4684564,62.2488591 C67.3073109,61.8135035 66.2627546,61.1151725 65.4166443,60.2085906 C64.5822819,59.3130201 63.9433557,58.2198658 63.4987919,56.9302013 C63.0542282,55.6416107 62.8319463,54.1565101 62.8308725,52.4748993 C62.8308725,50.7975839 63.0875168,49.3124832 63.6008054,48.0195973 C64.0719002,46.7946758 64.7885031,45.6790263 65.7065772,44.7412081 C66.5953086,43.8449864 67.6655341,43.1493215 68.8453691,42.7009396 C70.079125,42.2322685 71.3892577,41.9970418 72.7089933,42.0072483 Z M86.5688591,46.9973154 C87.5799486,46.9870514 88.5828812,47.1790945 89.5186577,47.5621477 C90.3961208,47.9224579 91.184122,48.4703936 91.8273826,49.1675168 C92.4868274,49.896414 92.9955637,50.7485656 93.3242953,51.6748993 C93.6947651,52.7197315 93.8773154,53.8214765 93.8633557,54.9285906 L93.8633557,54.9296644 C93.8770457,56.0411132 93.7001682,57.1466885 93.3404027,58.1983893 C93.0225918,59.1296107 92.5179651,59.986124 91.8574497,60.7154362 C91.2120383,61.4142868 90.4244443,61.9668109 89.547651,62.3358389 C88.6046483,62.7301123 87.5908915,62.9270895 86.5688591,62.9146309 C85.5515234,62.927783 84.5424644,62.7303584 83.6051007,62.3347651 C82.7343101,61.9632726 81.9521882,61.4113587 81.3103356,60.7154362 C80.6488742,59.9843664 80.1399647,59.128639 79.8134228,58.1983893 C79.4437793,57.148826 79.2620279,56.0423233 79.2765101,54.9296644 C79.2610968,53.8214908 79.4428987,52.719408 79.8134228,51.6748993 C80.1425216,50.7456355 80.6564848,49.8926832 81.3242953,49.1675168 C81.9711493,48.4740461 82.7586448,47.9267166 83.634094,47.5621477 C84.5642673,47.1779478 85.5625292,46.9858198 86.5688591,46.9973154 Z M146.596,47.2042953 C147.584698,47.2045638 148.42443,47.3441611 149.114899,47.6244295 C149.757047,47.8714094 150.329396,48.2687248 150.785772,48.7820134 C151.220671,49.2899329 151.538523,49.8880537 151.715705,50.532349 C151.915436,51.2475168 152.013154,51.9884564 152.005638,52.7304698 L152.005638,62.1618792 C151.728591,62.2402685 151.447248,62.304698 151.163758,62.3551678 C150.795436,62.4195973 150.369128,62.4915436 149.885906,62.5720805 C149.35129,62.6583209 148.813142,62.7210213 148.27302,62.76 C147.682416,62.8083221 147.076779,62.8319463 146.457181,62.8319463 C145.717843,62.8387455 144.980645,62.7514221 144.263356,62.5720805 C143.632774,62.4165196 143.039787,62.1360925 142.519463,61.7473826 C142.02128,61.3658966 141.622672,60.8696627 141.357584,60.3009396 C141.076242,59.7124832 140.93557,58.994094 140.93557,58.1457718 C140.93557,57.3350336 141.091275,56.6413423 141.400537,56.0625503 C141.710539,55.4836754 142.160092,54.9913074 142.708456,54.6300671 C143.319904,54.2336282 143.999736,53.95434 144.713289,53.806443 C145.543734,53.6268306 146.39145,53.5393221 147.241074,53.5455034 C147.512752,53.5455034 147.798389,53.5605369 148.097987,53.5884564 C148.635912,53.6390487 149.169765,53.7262305 149.695839,53.849396 C149.840805,53.8783893 149.981477,53.9224161 150.117852,53.9793289 L150.117852,53.0536913 C150.117852,52.5457718 150.080268,52.0378523 150.001879,51.535302 C149.930686,51.0598203 149.757014,50.6054891 149.492886,50.2037584 C149.215107,49.7941582 148.834381,49.4649124 148.388993,49.2491275 C147.914362,49.0085906 147.289396,48.8883221 146.515168,48.8883221 C145.410201,48.8883221 144.587651,48.9645638 144.045369,49.1191946 C143.503087,49.2738255 143.105772,49.3983893 142.853423,49.4950336 L142.592483,47.8467114 C142.921074,47.6920805 143.430067,47.5471141 144.117315,47.4118121 C144.772031,47.2936923 145.434554,47.2256549 146.099128,47.208181 L146.596,47.2042953 Z M183.555705,47.2045638 C184.543624,47.2045638 185.383356,47.3441611 186.073826,47.6244295 C186.715973,47.8714094 187.288322,48.2687248 187.744698,48.7820134 C188.179597,49.2899329 188.496376,49.8880537 188.674631,50.532349 C188.873289,51.2475168 188.972081,51.9884564 188.964564,52.7304698 L188.964564,62.1618792 C188.687517,62.2402685 188.406174,62.304698 188.122685,62.3551678 C187.754362,62.4195973 187.328054,62.4915436 186.844832,62.5720805 C186.307495,62.6582755 185.766407,62.7191927 185.223356,62.7546309 C184.632752,62.802953 184.027114,62.827651 183.406443,62.827651 C182.667059,62.8340992 181.92986,62.7464148 181.212617,62.5667114 C180.582495,62.4113408 179.989891,62.1312871 179.469799,61.7430872 C178.971346,61.3618773 178.57268,60.8655711 178.307919,60.2966443 C178.026577,59.7081879 177.885906,58.9897987 177.885906,58.1404027 C177.885906,57.3307383 178.041611,56.637047 178.350872,56.0571812 C178.660459,55.4783012 179.110116,54.986189 179.658792,54.6257718 C180.270161,54.2289551 180.949997,53.949301 181.663624,53.8010738 C182.494101,53.6217705 183.341822,53.5346216 184.191409,53.5412081 C184.462013,53.5412081 184.747651,53.5551678 185.048322,53.5841611 C185.586247,53.6347534 186.120101,53.7219352 186.646174,53.8451007 C186.791141,53.874094 186.931812,53.917047 187.068188,53.9739597 L187.068188,53.049396 C187.068188,52.5404027 187.02953,52.0324832 186.951141,51.5299329 C186.880274,51.0545362 186.706971,50.6002108 186.443221,50.1983893 C186.1653,49.7891835 185.784587,49.4603192 185.339329,49.2448322 C184.864698,49.0032215 184.239732,48.882953 183.46443,48.882953 C182.360537,48.882953 181.537987,48.9602685 180.994631,49.1148993 C180.452349,49.2684564 180.056107,49.394094 179.803758,49.4907383 L179.542819,47.8413423 C179.871409,47.6867114 180.380403,47.5428188 181.067651,47.4075168 C181.889128,47.2604027 182.721342,47.1927517 183.555705,47.2045638 Z M99.5868456,47.3785235 L99.5868456,62.5087248 L99.5857718,62.5097987 L96.0711409,62.5097987 L96.0711409,47.3785235 L99.5868456,47.3785235 Z M108.855034,47.0606711 C110.094228,47.0606711 111.131544,47.2292617 111.963758,47.566443 C112.797047,47.9036242 113.459597,48.3771812 113.953557,48.9838926 C114.465772,49.6281879 114.823356,50.3798658 115.000537,51.1830872 C115.211007,52.1087248 115.31302,53.0547651 115.305503,54.0040268 L115.305503,62.5087248 L111.789799,62.5087248 L111.789799,54.5538255 C111.798389,53.8601342 111.745772,53.1685906 111.628725,52.4845638 C111.552483,51.990604 111.374228,51.5181208 111.106846,51.0961074 C110.865791,50.740356 110.520769,50.4677137 110.118926,50.3154362 C109.630398,50.1391264 109.113299,50.0553709 108.594094,50.0684564 C108.127457,50.0697493 107.661309,50.0987938 107.198121,50.1554362 C106.714899,50.2134228 106.356242,50.2628188 106.124295,50.3004027 L106.124295,62.5097987 L102.607517,62.5097987 L102.607517,47.8703356 C103.477315,47.6373154 104.361074,47.4536913 105.252349,47.3205369 C106.444526,47.139168 107.649169,47.0522758 108.855034,47.0606711 Z M133.266309,47.2625503 C134.408859,47.2625503 135.334497,47.4311409 136.041074,47.769396 C136.712098,48.0760156 137.281692,48.5677513 137.682953,49.1868456 C138.091007,49.8526174 138.359463,50.5967785 138.466846,51.3710067 C138.607517,52.2902013 138.675168,53.2179866 138.671065,54.1479195 L138.671065,62.5097987 L136.782013,62.5097987 L136.782013,54.7567785 C136.788795,53.9012527 136.74505,53.046073 136.651007,52.1957047 C136.565101,51.4719463 136.390067,50.8748993 136.128054,50.4024161 C135.875705,49.9385235 135.484832,49.5648322 135.010201,49.3318121 C134.525906,49.0902013 133.89557,48.9699329 133.120268,48.9699329 C132.588438,48.9648755 132.057658,49.0181696 131.53745,49.1288591 C131.114362,49.2179866 130.699866,49.3489933 130.30255,49.5197315 C130.003151,49.6466139 129.716266,49.8012012 129.445638,49.9814765 C129.281574,50.0937418 129.1201,50.2097453 128.961342,50.329396 C129.147114,50.8791946 129.278121,51.4461745 129.353289,52.021745 C129.442416,52.6789262 129.486443,53.3404027 129.484295,54.0040268 L129.484295,62.5087248 L127.595436,62.5087248 L127.595436,54.7557047 C127.602176,53.900537 127.558431,53.0457171 127.46443,52.1957047 C127.378523,51.4719463 127.198121,50.8748993 126.927517,50.4024161 C126.663277,49.9366235 126.262655,49.562984 125.779597,49.3318121 C125.285638,49.0902013 124.631678,48.9699329 123.818792,48.9699329 C123.046329,48.9608888 122.274264,49.0093447 121.508993,49.1148993 C120.878658,49.2115436 120.477047,49.2974497 120.303087,49.3747651 L120.303087,62.5097987 L118.413154,62.5097987 L118.413154,48.0732886 L118.414228,48.0732886 C119.140597,47.8796321 119.872148,47.7059648 120.608054,47.5524832 C121.508993,47.3591946 122.675168,47.2625503 124.108725,47.2625503 C126.007248,47.2625503 127.382819,47.812349 128.234362,48.9119463 C128.738485,48.5295914 129.286429,48.2087553 129.866577,47.9562416 C130.937954,47.4870035 132.096741,47.250561 133.266309,47.2625503 Z M170.224161,47.2625503 C171.366711,47.2625503 172.292349,47.4311409 172.998926,47.769396 C173.672215,48.0754362 174.244564,48.5672483 174.645101,49.1868456 C175.054228,49.8526174 175.321611,50.5967785 175.430067,51.3710067 C175.570738,52.2902013 175.638389,53.2179866 175.634286,54.1479195 L175.634286,62.5097987 L173.744161,62.5097987 L173.744161,54.7567785 C173.751299,53.9012739 173.707913,53.0460942 173.614228,52.1957047 C173.527248,51.4719463 173.352215,50.8748993 173.091275,50.4024161 C172.838397,49.9381112 172.447358,49.5639601 171.972349,49.3318121 C171.489128,49.0902013 170.858792,48.9699329 170.08349,48.9699329 C169.55166,48.9648755 169.020879,49.0181696 168.500671,49.1288591 C168.07651,49.2190604 167.663087,49.3489933 167.265772,49.5197315 C166.966108,49.646773 166.678881,49.8013508 166.407785,49.9814765 C166.244083,50.0937555 166.082968,50.2097589 165.924564,50.329396 C166.107114,50.8802685 166.238121,51.4461745 166.311141,52.021745 C166.400268,52.6789262 166.444295,53.3404027 166.442148,54.0040268 L166.442148,62.5087248 L164.553289,62.5087248 L164.553289,54.7557047 C164.560028,53.900537 164.516283,53.0457171 164.422282,52.1957047 C164.336376,51.4719463 164.155973,50.8748993 163.885369,50.4024161 C163.621349,49.9364504 163.220665,49.5627532 162.73745,49.3318121 C162.24349,49.0902013 161.58953,48.9699329 160.776644,48.9699329 C160.00349,48.9602685 159.231409,49.0085906 158.466846,49.1148993 C157.83651,49.2115436 157.434899,49.2974497 157.26094,49.3747651 L157.26094,62.5097987 L155.371007,62.5097987 L155.371007,48.0732886 L155.372081,48.0732886 C156.098449,47.8796321 156.83,47.7059648 157.565906,47.5524832 C158.466846,47.3591946 159.63302,47.2625503 161.066577,47.2625503 C162.965101,47.2625503 164.340671,47.812349 165.192215,48.9119463 C165.696637,48.5300397 166.244526,48.2092359 166.82443,47.9562416 C167.895806,47.4870035 169.054594,47.250561 170.224161,47.2625503 Z M147.183087,55.1605369 C146.696644,55.1605369 146.212349,55.1927517 145.730201,55.2571812 C145.24349,55.3193234 144.771406,55.4661457 144.335302,55.6910067 C143.917584,55.9057718 143.558926,56.218255 143.289396,56.6026846 C143.018792,56.9892617 142.882416,57.4993289 142.882416,58.1361074 C142.867802,58.6232385 142.962085,59.1074912 143.158389,59.553557 C143.332349,59.9272483 143.602953,60.2461745 143.943356,60.4791946 C144.313826,60.7240268 144.727248,60.8958389 145.163221,60.9860403 C145.586738,61.0762416 146.01644,61.1293315 146.448479,61.1447603 L146.772,61.1482953 L147.132086,61.1472881 C147.72003,61.140701 148.245459,61.1175839 148.708993,61.0773154 C149.181477,61.0397315 149.651812,60.9774497 150.117852,60.889396 L150.117852,55.6233557 C149.788826,55.4916131 149.448437,55.390251 149.10094,55.3205369 C148.635973,55.2131544 147.997047,55.1605369 147.183087,55.1605369 Z M184.142013,55.1605369 C183.65557,55.1605369 183.170201,55.1927517 182.689128,55.2571812 C182.202384,55.3191714 181.730273,55.4660018 181.294228,55.6910067 C180.87651,55.9057718 180.517852,56.218255 180.248322,56.6026846 C179.976644,56.9892617 179.840268,57.4993289 179.841342,58.1361074 C179.827383,58.6225503 179.920805,59.1068456 180.117315,59.553557 C180.291275,59.9272483 180.561879,60.2461745 180.901208,60.4791946 C181.272752,60.7240268 181.687248,60.8958389 182.122148,60.9860403 C182.65047,61.0987919 183.18953,61.153557 183.730738,61.1492617 C184.466309,61.1492617 185.111678,61.1256376 185.666846,61.0773154 C186.139329,61.0397315 186.610738,60.9774497 187.076779,60.889396 L187.076779,55.6233557 C186.747753,55.4916131 186.407363,55.390251 186.059866,55.3205369 C185.594899,55.2131544 184.955973,55.1605369 184.142013,55.1605369 Z M86.5699329,50.0405369 C85.4080537,50.0405369 84.5038926,50.4786577 83.8585235,51.357047 C83.2120805,52.2343624 82.8867114,53.4252349 82.8802685,54.9296644 C82.8802685,56.4534228 83.2045638,57.658255 83.8531544,58.5463087 C84.501745,59.4332886 85.405906,59.8767785 86.5656376,59.8767785 C87.7275168,59.8767785 88.6327517,59.4332886 89.2824161,58.5452349 C89.9310067,57.658255 90.2563758,56.4534228 90.2595973,54.9296644 C90.2595973,53.4252349 89.9374497,52.2343624 89.2910067,51.357047 C88.6467114,50.4786577 87.738255,50.0405369 86.5699329,50.0405369 Z M31.9057718,57.3790604 C31.9616107,57.572349 31.972349,59.1583893 31.9165101,59.3785235 L29.8869799,59.3785235 L29.8869799,57.3790604 L31.9057718,57.3790604 Z M36.8453691,56.9162416 L36.8453691,58.4593289 C36.6714094,58.5280537 35.5202685,58.5344966 35.2679195,58.4689933 L35.2679195,56.9162416 L36.8453691,56.9162416 Z M36.8453691,53.2716779 L36.8453691,55.4515436 C36.6885906,55.5095302 34.901745,55.5267114 34.6053691,55.4762416 C34.550604,55.307651 34.5355705,53.5519463 34.5871141,53.2748993 C34.7675168,53.2287248 36.5897987,53.2212081 36.8453691,53.2716779 Z M40.2601342,52.317047 C40.317047,52.4834899 40.3277852,53.9836242 40.2708725,54.2391946 L38.4174497,54.2391946 C38.3959732,53.6024161 38.4067114,52.9677852 38.4088591,52.317047 L40.2601342,52.317047 Z M31.172349,51.898255 C31.2185235,51.9068456 31.2636242,51.9197315 31.3065772,51.9369128 L31.3087248,51.9369128 L31.3087248,53.5412081 L29.6507383,53.5412081 C29.6413303,53.482869 29.6348791,53.4240915 29.6314094,53.3651007 L29.6314094,52.1119463 C29.6314094,51.9272483 29.6485906,51.9004027 29.824698,51.898255 C30.273557,51.8928859 30.7224161,51.898255 31.172349,51.898255 Z M36.5253691,48.4405369 C36.5779234,48.6325622 36.5848197,50.5186902 36.5371054,50.92166 L36.527,50.9772953 L34.052349,50.9779866 C33.9954362,50.809396 33.9814765,48.722953 34.0330201,48.4512752 C34.2091275,48.4051007 36.2934228,48.3975839 36.5253691,48.4405369 Z M30.6751678,47.5610738 L30.6751678,49.1943624 C30.6244651,49.2100297 30.5722915,49.2204644 30.5194631,49.2255034 L29.1954362,49.2255034 C29.0332886,49.2255034 29.0085906,49.2072483 29.006443,49.0612081 C29,48.6048322 29,48.1516779 29,47.6974497 C29.007041,47.6511191 29.0192886,47.6057311 29.0365101,47.5621477 L29.0365101,47.5610738 L30.6751678,47.5610738 Z M33.7355705,41.9621477 C33.9288591,42.0587919 34.1414765,42.0265772 34.347651,42.0287248 L36.6714094,42.0287248 C36.7551678,42.0287248 36.8378523,42.0362416 36.9355705,42.0405369 L36.9355705,45.1900671 C36.7530201,45.2544966 33.9020134,45.2641611 33.6604027,45.2008054 L33.6604027,41.9771812 C33.6915436,41.9707383 33.7194631,41.9546309 33.7355705,41.9621477 Z M97.8139597,40.7820134 C98.3733919,40.7739391 98.9144503,40.9815948 99.3248322,41.3618792 C99.7511409,41.7463087 99.9637584,42.2767785 99.9637584,42.9522148 C99.9637584,43.6072483 99.7511409,44.1291275 99.3248322,44.5146309 C98.9142837,44.8945246 98.3732444,45.1017884 97.8139597,45.0934228 C97.2452424,45.1051064 96.6938432,44.8974665 96.274094,44.513557 C95.8477852,44.1291275 95.634094,43.6083221 95.634094,42.9522148 C95.634094,42.2767785 95.8477852,41.7463087 96.274094,41.3608054 C96.6928859,40.9774497 97.2448322,40.7702013 97.8139597,40.7820134 Z M40.855,37.8452953 L40.8550336,40.5328859 C40.68,40.5844295 38.4238926,40.5994631 38.1124832,40.5489933 L38.1124832,37.8483221 L40.855,37.8452953 Z M44.3557047,33.1771812 C44.3589262,34.1307383 44.3557047,35.0885906 44.3557047,36.0625503 L41.4853691,36.0625503 C41.4252349,35.8789262 41.4069799,33.522953 41.4595973,33.1954362 C41.6174497,33.1449664 43.9616107,33.1256376 44.3557047,33.1771812 Z" id="Combined-Shape" fill="#FFFFFF" fill-rule="nonzero"></path>
    </g>
</svg>