<?xml version="1.0" encoding="UTF-8"?>
<svg width="216px" height="104px" viewBox="0 0 216 104" version="1.1" xmlns="http://www.w3.org/2000/svg" xmlns:xlink="http://www.w3.org/1999/xlink">
    <!-- Generator: Sketch 59 (86127) - https://sketch.com -->
    <title>Coinmama</title>
    <desc>Created with Sketch.</desc>
    <g id="Coinmama" stroke="none" stroke-width="1" fill="none" fill-rule="evenodd">
        <g id="Logo" transform="translate(29.000000, 33.000000)" fill="#135577" fill-rule="nonzero">
            <path d="M24.3232215,15.5908725 C24.3425503,15.8808054 24.5412081,16.0966443 24.6604027,16.344698 C24.8204027,16.6797315 25.0190604,16.9954362 25.2005369,17.3197315 C25.3938255,17.6612081 25.5871141,18.0026846 25.7750336,18.3441611 C26.0220134,18.7554362 26.2410738,19.1828188 26.4300671,19.6241611 C26.5073826,19.8174497 26.5922148,20.0032215 26.6609396,20.1965101 C26.7973154,20.5830872 26.7081879,20.8451007 26.4386577,21.1715436 C26.4289933,21.1822819 26.4107383,21.187651 26.4032215,21.1994631 C26.1852349,21.5269799 25.8394631,21.5860403 25.4861745,21.6504698 C25.1747651,21.7095302 24.8633557,21.7857718 24.6303356,22.0413423 C24.3983893,22.2969128 24.3661745,22.5116779 24.5648322,22.8069799 C24.7634899,23.1022819 24.9514094,23.3857718 25.1457718,23.6821477 C25.2760815,23.8654769 25.3249518,24.0944589 25.2808408,24.3150138 C25.2367299,24.5355687 25.1035488,24.7281404 24.9127517,24.8472483 C24.7516779,24.9449664 24.5959732,25.0534228 24.4477852,25.169396 C24.3253691,25.2660403 24.3328859,25.2971812 24.4263087,25.4324832 C24.6367785,25.7363758 24.8236242,26.0488591 24.8289933,26.4365101 C24.8434181,26.6692283 24.7232024,26.8896239 24.5197315,27.0034899 C24.2018792,27.2161074 23.8367785,27.3009396 23.4985235,27.4544966 C23.0528859,27.6563758 22.8692617,27.9914094 23.1688591,28.4456376 C23.4609396,28.8601342 23.5726174,29.3744966 23.4791946,29.8716779 C23.435764,30.1215888 23.3477409,30.3616516 23.2193289,30.5804027 C23.0419395,30.892413 22.8128164,31.1720086 22.541745,31.4072483 C22.3806711,31.5479195 22.1873826,31.6488591 21.9801342,31.7004027 C21.7707383,31.7455034 21.5720805,31.8507383 21.3626846,31.8872483 C20.8236242,31.9838926 20.2974497,32.1374497 19.7433557,32.1771812 C19.3428188,32.2040268 18.9487248,32.2899329 18.5503356,32.338255 C18.3130201,32.3672483 18.0703356,32.3618792 17.8319463,32.3908725 C16.9471141,32.4961074 16.0569128,32.4628188 15.1688591,32.4928859 C14.886443,32.5036242 14.6147651,32.6002685 14.3409396,32.6861745 C14.0832215,32.7634899 13.8824161,32.9267114 13.6633557,33.0534228 C13.5726873,33.1111308 13.4977805,33.1904656 13.4453691,33.2842953 C13.3379866,33.4668456 13.2520805,33.6622819 13.1554362,33.8512752 L12.7720805,34.5707383 C12.646443,34.8091275 12.5197315,35.0786577 12.3908725,35.3331544 C12.1116779,35.8861745 11.8271141,36.437047 11.5479195,36.9922148 C11.3761074,37.3336913 11.2075168,37.6783893 11.0357047,38.0209396 C10.7887248,38.5148993 10.5395973,39.0067114 10.2883221,39.4985235 C10.2544369,39.5717271 10.2018394,39.6346959 10.1358389,39.6810738 C10.120879,38.4447503 10.1065613,37.208419 10.0928859,35.9720805 C10.0767785,34.7318121 10.0585235,33.4926174 10.0391946,32.2115436 C10.1680537,32.202953 10.2754362,32.1911409 10.3806711,32.1900671 L11.1946309,32.1900671 C11.501745,32.1900671 11.5114094,32.1804027 11.5114094,31.882953 L11.5114094,29.5334228 C11.661745,29.415302 11.8260403,29.4442953 11.9731544,29.4442953 C13.0727517,29.4389262 14.1734228,29.4442953 15.274094,29.4442953 C15.4727517,29.4442953 15.6724832,29.4636242 15.8195973,29.4722148 C15.9581208,29.674094 16.1095302,29.8673826 16.2716779,30.0499329 C16.6518121,30.418255 17.2724832,30.5653691 17.7825503,30.2851007 C18.061425,30.1378317 18.2913008,29.912434 18.4440268,29.6365101 C18.6663087,29.237047 18.5546309,28.597047 18.2571812,28.2437584 C18.0813884,28.0340264 17.8542212,27.8734554 17.5978523,27.7777181 C17.3528893,27.6892666 17.0850867,27.6869938 16.8386577,27.7712752 C16.5465505,27.8634692 16.2885762,28.0406863 16.0977181,28.2802685 C16.018255,28.3833557 15.9581208,28.498255 15.9162416,28.6206711 C15.8775319,28.7164164 15.7854039,28.7798073 15.6821477,28.781745 C15.5157047,28.7978523 15.3460403,28.7924832 15.1774497,28.793557 L10.2947651,28.793557 C10.0327517,28.793557 10.0102013,28.7731544 10.0048322,28.5240268 C10.0048322,28.1073826 9.99409396,27.6907383 9.99409396,27.2697987 C9.99409396,26.8961074 9.99409396,26.8939597 10.3645638,26.8939597 C10.9068456,26.8939597 11.4491275,26.8993289 11.9914094,26.8939597 C12.0880537,26.8939597 12.184698,26.8778523 12.3049664,26.8671141 L12.3049664,26.5943624 L12.3049664,24.1181208 C12.3049664,23.9248322 12.2995973,23.9119463 12.0955705,23.9108725 C11.4834899,23.9108725 10.8714094,23.9108725 10.2561074,23.9065772 L9.96510067,23.9065772 L9.96510067,22.357047 C10.0875168,22.3484564 10.2077852,22.3355705 10.3302013,22.3355705 L17.1404027,22.3355705 C17.7288591,22.3355705 18.3173154,22.3248322 18.9057718,22.3108725 C19.0609577,22.290439 19.2110099,22.3748707 19.274094,22.5181208 C19.3793289,22.7221477 19.5296644,22.8993289 19.7143624,23.0367785 C20.0365101,23.2472483 20.4091275,23.3621477 20.7967785,23.2408054 C21.0437584,23.175302 21.2703356,23.0550336 21.464698,22.8907383 C21.8834899,22.5052349 22.0445638,21.6257718 21.6085906,21.1554362 C21.4765101,21.0104698 21.3766443,20.8386577 21.1930201,20.7430872 C20.8207173,20.53288 20.3737023,20.5009504 19.975302,20.6561074 C19.6692617,20.7710067 19.4813423,21.0061745 19.2891275,21.2338255 C19.2204027,21.3175839 19.2053691,21.4442953 19.1645638,21.5559732 C18.997047,21.6021477 13.3025503,21.6204027 12.9997315,21.5677852 C12.9922148,21.4614765 12.9804027,21.3487248 12.9804027,21.2359732 L12.9804027,18.4590604 L12.9804027,18.3194631 C12.9696644,18.1111409 12.941745,18.0810738 12.7291275,18.0810738 L9.94577181,18.0810738 C9.94040268,17.9758389 9.93181208,17.8931544 9.93181208,17.8104698 C9.93181208,17.4174497 9.93181208,17.0233557 9.92644295,16.6303356 C9.92107383,16.2620134 9.90174497,15.8936913 9.89100671,15.5242953 L9.89100671,15.2773154 C9.99302013,15.2730201 10.0767785,15.2665772 10.1594631,15.2665772 L17.2037584,15.2665772 C17.3787919,15.2665772 17.5108725,15.285906 17.581745,15.4802685 C17.6590604,15.6918121 17.8448322,15.8324832 18.0026846,15.9860403 C18.0853691,16.0504698 18.1787919,16.0998658 18.2786577,16.1299329 C18.7919463,16.3371812 19.2472483,16.2502013 19.6789262,15.8979866 C20.0139597,15.6316779 20.2083221,15.2268456 20.2051007,14.7994631 C20.2001093,14.5911943 20.1327802,14.3892072 20.0118121,14.2195973 C19.754094,13.8051007 19.6359732,13.7116779 19.1484564,13.532349 C18.9367056,13.4543656 18.7040998,13.4543656 18.492349,13.532349 C18.4343624,13.5538255 18.3742282,13.5645638 18.3162416,13.5838926 C18.188608,13.6162995 18.0723373,13.6831645 17.9801342,13.7771812 C17.9348064,13.8152406 17.8850506,13.84769 17.8319463,13.8738255 C17.8072483,13.8910067 17.7728859,13.901745 17.76,13.926443 C17.6472483,14.1197315 17.5377181,14.3183893 17.421745,14.5256376 L12.0096644,14.5256376 C12.0010738,14.418255 11.9903356,14.332349 11.9903356,14.2561074 L11.9903356,12.9138255 C11.9903356,12.6539597 11.9473826,12.6131544 11.68,12.6131544 L9.91463087,12.6131544 C9.84590604,12.313557 9.83194631,10.2593289 9.90067114,10.0467114 C9.98120805,10.0467114 10.0724832,10.0359732 10.1616107,10.0359732 L13.7642953,10.0359732 C13.9822819,10.0263087 14.0220134,9.98979866 14.0220134,9.77610738 L14.0220134,8.12456376 C14.0765162,8.10950513 14.132196,8.09908762 14.1884564,8.09342282 L15.5844295,8.09342282 C15.6839592,8.08968526 15.7770661,8.14247356 15.8249664,8.22979866 C15.9430872,8.39731544 16.018255,8.5938255 16.1879195,8.73020134 C16.5884564,9.05234899 17.0362416,9.19838926 17.5269799,9.02657718 C17.7986577,8.92993289 18.0681879,8.77852349 18.2163758,8.49718121 C18.2353493,8.46336621 18.256889,8.43105664 18.2808054,8.40053691 C18.5514094,8.02684564 18.553557,7.6295302 18.3967785,7.21503356 C18.3062038,6.97004016 18.1414004,6.75943715 17.9253691,6.61261745 C17.7176894,6.45289614 17.4704751,6.35267413 17.2102013,6.32268456 C16.9566572,6.30594155 16.7036256,6.36221218 16.4810738,6.48483221 C16.1084564,6.68671141 15.8904698,6.99489933 15.7401342,7.38791946 L13.1436242,7.38791946 C13.1371812,6.24966443 13.1328859,5.12214765 13.1436242,3.97100671 C13.3014765,3.96241611 13.433557,3.95060403 13.5613423,3.95060403 L16.2566443,3.95060403 C16.3114094,3.9538255 16.3661745,3.9538255 16.4198658,3.95060403 C16.5648322,3.93771812 16.5916779,3.90979866 16.5981208,3.76483221 L16.5981208,3.53288591 L16.5981208,0.0236241611 C16.714094,0.0161073826 16.8107383,0.00429530201 16.9084564,0.00429530201 C17.6214765,0.00429530201 18.3344966,0.0161073826 19.0453691,0.00429530201 C19.2536913,0.00536912752 19.4566443,0.0687248322 19.6273826,0.187919463 C19.8883221,0.357583893 20.1320805,0.550872483 20.3565101,0.766711409 C20.6367785,1.02228188 20.8998658,1.29718121 21.1425503,1.58818792 C21.3669799,1.86416107 21.5978523,2.13369128 21.7997315,2.42684564 C22.0005369,2.72107383 22.1863087,3.00671141 22.2432215,3.36536913 C22.2883221,3.61234899 22.3473826,3.85503356 22.4225503,4.09342282 C22.4510866,4.16450564 22.4951068,4.22833486 22.5514094,4.28026846 C22.6405369,4.37691275 22.7361074,4.46496644 22.8316779,4.55302013 C23.0303356,4.75167785 23.2053691,4.97181208 23.3557047,5.20912752 C23.544698,5.47221477 23.7122148,5.74926174 23.8550336,6.03919463 C24.0139597,6.36456376 24.1342282,6.71355705 24.2630872,7.05073826 C24.3683221,7.32671141 24.4563758,7.60590604 24.5530201,7.88510067 C24.5660417,7.92073363 24.5743449,7.95791726 24.5777181,7.9957047 C24.5991946,8.33288591 24.633557,8.67006711 24.6367785,9.00939597 C24.6485906,10.1959732 24.6518121,11.384698 24.6528859,12.5712752 C24.6528859,12.7645638 24.6528859,12.9578523 24.5100671,13.1350336 C24.4445638,13.212349 24.4424161,13.3497987 24.4273826,13.4636242 C24.3951678,13.6987919 24.4144966,13.9511409 24.3350336,14.1680537 C24.2308725,14.4504698 24.2813423,14.7275168 24.270604,15.0056376 M5.43785235,31.3127517 L5.43785235,27.7315436 C5.6042953,27.6853691 8.70550336,27.6671141 9.07489933,27.7100671 C9.12536913,27.8636242 9.14040268,30.9830872 9.08993289,31.3063087 C9.02228188,31.3127517 8.94926174,31.3277852 8.87516779,31.3288591 L5.66979866,31.3288591 C5.60107383,31.3331544 5.53342282,31.3224161 5.43785235,31.3138255 L5.43785235,31.3127517 Z M4.66040268,12.1997315 L4.66040268,8.97718121 C4.69154362,8.97073826 4.71946309,8.95463087 4.73557047,8.96214765 C4.92885906,9.05879195 5.14147651,9.02657718 5.34765101,9.02872483 L7.6714094,9.02872483 C7.75516779,9.02872483 7.83785235,9.03624161 7.93557047,9.04053691 L7.93557047,12.1900671 C7.75302013,12.2544966 4.90201342,12.2641611 4.66040268,12.2008054 L4.66040268,12.1997315 Z" id="Shape"></path>
            <path d="M15.3557047,3.06255034 L12.4853691,3.06255034 C12.4252349,2.87892617 12.4069799,0.52295302 12.4595973,0.195436242 C12.6174497,0.144966443 14.9616107,0.125637584 15.3557047,0.177181208 C15.3589262,1.13073826 15.3557047,2.0885906 15.3557047,3.06255034 Z M11.8550336,4.8461745 L11.8550336,7.53288591 C11.68,7.58442953 9.42389262,7.59946309 9.11248322,7.54899329 L9.11248322,4.84832215 L11.8561074,4.8461745 L11.8550336,4.8461745 Z M7.52751678,17.9779866 L5.05234899,17.9779866 C4.99543624,17.809396 4.98147651,15.722953 5.03302013,15.4512752 C5.20912752,15.4051007 7.29342282,15.3975839 7.52536913,15.4405369 C7.58120805,15.6445638 7.58550336,17.7610738 7.52751678,17.9790604 L7.52751678,17.9779866 Z M7.84536913,20.2716779 L7.84536913,22.4515436 C7.6885906,22.5095302 5.90174497,22.5267114 5.60536913,22.4762416 C5.55060403,22.307651 5.53557047,20.5519463 5.58711409,20.2748993 C5.76751678,20.2287248 7.58979866,20.2212081 7.84536913,20.2716779 L7.84536913,20.2716779 Z M8.46711409,33.3959732 L8.46711409,35.4598658 C8.3704698,35.4663087 8.28885906,35.4759732 8.2061745,35.477047 L6.90684564,35.477047 C6.73073826,35.477047 6.55463087,35.4974497 6.38496644,35.5071141 C6.31624161,35.3374497 6.28832215,33.7159732 6.34845638,33.4067114 C6.51167785,33.3562416 8.1642953,33.3433557 8.46711409,33.3959732 L8.46711409,33.3959732 Z M0.886979866,26.3785235 L0.886979866,24.3790604 L2.90577181,24.3790604 C2.96161074,24.572349 2.97234899,26.1583893 2.91651007,26.3785235 L0.888053691,26.3785235 L0.886979866,26.3785235 Z M9.40671141,19.317047 L11.2601342,19.317047 C11.317047,19.4834899 11.3277852,20.9836242 11.2708725,21.2391946 L9.41744966,21.2391946 C9.39597315,20.6024161 9.40671141,19.9677852 9.40885906,19.317047 L9.40671141,19.317047 Z M0.0365100671,14.5610738 L1.67516779,14.5610738 L1.67516779,16.1943624 C1.62446508,16.2100297 1.57229145,16.2204644 1.51946309,16.2255034 L0.195436242,16.2255034 C0.0332885906,16.2255034 0.00859060403,16.2072483 0.00644295302,16.0612081 C0,15.6048322 0,15.1516779 0,14.6974497 C0.00704102104,14.6511191 0.0192885561,14.6057311 0.0365100671,14.5621477 L0.0365100671,14.5610738 Z M2.30872483,18.9369128 L2.30872483,20.5412081 L0.650738255,20.5412081 C0.641330302,20.482869 0.634879107,20.4240915 0.631409396,20.3651007 L0.631409396,19.1119463 C0.631409396,18.9272483 0.648590604,18.9004027 0.824697987,18.898255 C1.27355705,18.8928859 1.72241611,18.898255 2.17234899,18.898255 C2.21852349,18.9068456 2.26362416,18.9197315 2.30657718,18.9369128 L2.30872483,18.9369128 Z M7.84536913,23.9162416 L7.84536913,25.4593289 C7.6714094,25.5280537 6.52026846,25.5344966 6.26791946,25.4689933 L6.26791946,23.9162416 L7.84536913,23.9162416 Z M43.5361074,29.9437008 C42.0252349,29.9437008 40.6689933,29.7116779 39.4684564,29.2488591 C38.3073109,28.8135035 37.2627546,28.1151725 36.4166443,27.2085906 C35.5822819,26.3130201 34.9433557,25.2198658 34.4987919,23.9302013 C34.0542282,22.6416107 33.8319463,21.1565101 33.8308725,19.4748993 C33.8308725,17.7975839 34.0875168,16.3124832 34.6008054,15.0195973 C35.0719002,13.7946758 35.7885031,12.6790263 36.7065772,11.7412081 C37.5953086,10.8449864 38.6655341,10.1493215 39.8453691,9.7009396 C41.079125,9.2322685 42.3892577,8.99704178 43.7089933,9.00724832 C44.4692617,9.00295302 45.2273826,9.06738255 45.9758389,9.20053691 C46.5739597,9.30147651 47.1656376,9.43677852 47.747651,9.60536913 C48.1793289,9.73100671 48.597047,9.89530201 48.9975839,10.0971812 C49.3272483,10.2700671 49.5581208,10.3957047 49.6955705,10.4730201 L48.6195973,13.4528859 C48.1546309,13.162953 47.4920805,12.8891275 46.6297987,12.6281879 C45.7192572,12.3623902 44.7745361,12.2321338 43.8260403,12.2416107 C42.9913175,12.2348831 42.162953,12.3872176 41.3852349,12.6904698 C40.6374723,12.9839574 39.9664975,13.4441279 39.4233557,14.0359732 C38.8387455,14.6892834 38.3982299,15.4583562 38.1304698,16.2931544 C37.8212081,17.1994631 37.6655034,18.2507383 37.6655034,19.445906 C37.6558389,20.4316779 37.778255,21.4142282 38.0295302,22.3677852 C38.2442953,23.2021477 38.6244295,23.9838926 39.1473826,24.6679195 C39.6550765,25.3176327 40.3133141,25.833977 41.0652349,26.172349 C41.8405369,26.5299329 42.7704698,26.7081879 43.8550336,26.7081879 C45.1511409,26.7081879 46.2067114,26.5793289 47.021745,26.3216107 C47.6703405,26.1238426 48.3019935,25.8742697 48.910604,25.575302 L49.8985235,28.5551678 C49.6003769,28.7413954 49.2836878,28.8961411 48.953557,29.0169128 C47.9100542,29.4130082 46.8220948,29.68022 45.7138255,29.8126174 C44.9922148,29.9028188 44.2641611,29.9457718 43.5361074,29.9437008 L43.5361074,29.9437008 Z M64.8633557,21.9296644 C64.8770457,23.0411132 64.7001682,24.1466885 64.3404027,25.1983893 C64.0225918,26.1296107 63.5179651,26.986124 62.8574497,27.7154362 C62.2120383,28.4142868 61.4244443,28.9668109 60.547651,29.3358389 C59.6046483,29.7301123 58.5908915,29.9270895 57.5688591,29.9146309 C56.5515234,29.927783 55.5424644,29.7303584 54.6051007,29.3347651 C53.7343101,28.9632726 52.9521882,28.4113587 52.3103356,27.7154362 C51.6488742,26.9843664 51.1399647,26.128639 50.8134228,25.1983893 C50.4437793,24.148826 50.2620279,23.0423233 50.2765101,21.9296644 C50.2610968,20.8214908 50.4428987,19.719408 50.8134228,18.6748993 C51.1425216,17.7456355 51.6564848,16.8926832 52.3242953,16.1675168 C52.9711493,15.4740461 53.7586448,14.9267166 54.634094,14.5621477 C55.5642673,14.1779478 56.5625292,13.9858198 57.5688591,13.9973154 C58.5799486,13.9870514 59.5828812,14.1790945 60.5186577,14.5621477 C61.3961208,14.9224579 62.184122,15.4703936 62.8273826,16.1675168 C63.4868274,16.896414 63.9955637,17.7485656 64.3242953,18.6748993 C64.6947651,19.7197315 64.8773154,20.8214765 64.8633557,21.9285906 L64.8633557,21.9296644 Z M61.2595973,21.9296644 C61.2595973,20.4252349 60.9374497,19.2343624 60.2910067,18.357047 C59.6467114,17.4786577 58.738255,17.0405369 57.5699329,17.0405369 C56.4080537,17.0405369 55.5038926,17.4786577 54.8585235,18.357047 C54.2120805,19.2343624 53.8867114,20.4252349 53.8802685,21.9296644 C53.8802685,23.4534228 54.2045638,24.658255 54.8531544,25.5463087 C55.501745,26.4332886 56.405906,26.8767785 57.5656376,26.8767785 C58.7275168,26.8767785 59.6327517,26.4332886 60.2824161,25.5452349 C60.9310067,24.658255 61.2563758,23.4534228 61.2595973,21.9296644 L61.2595973,21.9296644 Z M70.9637584,9.95221477 C70.9637584,10.6072483 70.7511409,11.1291275 70.3248322,11.5146309 C69.9142837,11.8945246 69.3732444,12.1017884 68.8139597,12.0934228 C68.2452424,12.1051064 67.6938432,11.8974665 67.274094,11.513557 C66.8477852,11.1291275 66.634094,10.6083221 66.634094,9.95221477 C66.634094,9.27677852 66.8477852,8.74630872 67.274094,8.36080537 C67.6928859,7.97744966 68.2448322,7.77020134 68.8139597,7.78201342 C69.3733919,7.77393914 69.9144503,7.98159483 70.3248322,8.36187919 C70.7511409,8.74630872 70.9637584,9.27677852 70.9637584,9.95221477 L70.9637584,9.95221477 Z M70.5857718,29.5097987 L67.0711409,29.5097987 L67.0711409,14.3785235 L70.5868456,14.3785235 L70.5868456,29.5087248 L70.5857718,29.5097987 Z M73.6075168,14.8703356 C74.4773154,14.6373154 75.3610738,14.4536913 76.252349,14.3205369 C77.4445257,14.139168 78.6491689,14.0522758 79.8550336,14.0606711 C81.0942282,14.0606711 82.1315436,14.2292617 82.9637584,14.566443 C83.797047,14.9036242 84.4595973,15.3771812 84.953557,15.9838926 C85.4657718,16.6281879 85.8233557,17.3798658 86.0005369,18.1830872 C86.2110067,19.1087248 86.3130201,20.0547651 86.3055034,21.0040268 L86.3055034,29.5087248 L82.7897987,29.5087248 L82.7897987,21.5538255 C82.7983893,20.8601342 82.7457718,20.1685906 82.6287248,19.4845638 C82.5524832,18.990604 82.3742282,18.5181208 82.1068456,18.0961074 C81.8657912,17.740356 81.5207693,17.4677137 81.1189262,17.3154362 C80.6303979,17.1391264 80.1132989,17.0553709 79.594094,17.0684564 C79.1274567,17.0697493 78.6613094,17.0987938 78.1981208,17.1554362 C77.7148993,17.2134228 77.3562416,17.2628188 77.1242953,17.3004027 L77.1242953,29.5097987 L73.6075168,29.5097987 L73.6075168,14.8703356 L73.6075168,14.8703356 Z M89.4142282,15.0732886 C90.1405967,14.8796321 90.8721478,14.7059648 91.6080537,14.5524832 C92.5089933,14.3591946 93.6751678,14.2625503 95.1087248,14.2625503 C97.0072483,14.2625503 98.3828188,14.812349 99.2343624,15.9119463 C99.7384846,15.5295914 100.286429,15.2087553 100.866577,14.9562416 C101.937954,14.4870035 103.096741,14.250561 104.266309,14.2625503 C105.408859,14.2625503 106.334497,14.4311409 107.041074,14.769396 C107.712098,15.0760156 108.281692,15.5677513 108.682953,16.1868456 C109.091007,16.8526174 109.359463,17.5967785 109.466846,18.3710067 C109.607517,19.2902013 109.675168,20.2179866 109.671065,21.1479195 L109.671065,29.5097987 L107.782013,29.5097987 L107.782013,21.7567785 C107.788795,20.9012527 107.74505,20.046073 107.651007,19.1957047 C107.565101,18.4719463 107.390067,17.8748993 107.128054,17.4024161 C106.875705,16.9385235 106.484832,16.5648322 106.010201,16.3318121 C105.525906,16.0902013 104.89557,15.9699329 104.120268,15.9699329 C103.588438,15.9648755 103.057658,16.0181696 102.53745,16.1288591 C102.114362,16.2179866 101.699866,16.3489933 101.30255,16.5197315 C101.003151,16.6466139 100.716266,16.8012012 100.445638,16.9814765 C100.281574,17.0937418 100.1201,17.2097453 99.9613423,17.329396 C100.147114,17.8791946 100.278121,18.4461745 100.353289,19.021745 C100.442416,19.6789262 100.486443,20.3404027 100.484295,21.0040268 L100.484295,29.5087248 L98.5954362,29.5087248 L98.5954362,21.7557047 C98.6021755,20.900537 98.5584306,20.0457171 98.4644295,19.1957047 C98.3785235,18.4719463 98.1981208,17.8748993 97.9275168,17.4024161 C97.6632774,16.9366235 97.262655,16.562984 96.7795973,16.3318121 C96.2856376,16.0902013 95.6316779,15.9699329 94.8187919,15.9699329 C94.0463289,15.9608888 93.2742639,16.0093447 92.5089933,16.1148993 C91.8786577,16.2115436 91.477047,16.2974497 91.3030872,16.3747651 L91.3030872,29.5097987 L89.4131544,29.5097987 L89.4131544,15.0732886 L89.4142282,15.0732886 Z M117.596779,14.2045638 C118.584698,14.2045638 119.42443,14.3441611 120.114899,14.6244295 C120.757047,14.8714094 121.329396,15.2687248 121.785772,15.7820134 C122.220671,16.2899329 122.538523,16.8880537 122.715705,17.532349 C122.915436,18.2475168 123.013154,18.9884564 123.005638,19.7304698 L123.005638,29.1618792 C122.728591,29.2402685 122.447248,29.304698 122.163758,29.3551678 C121.795436,29.4195973 121.369128,29.4915436 120.885906,29.5720805 C120.35129,29.6583209 119.813142,29.7210213 119.27302,29.76 C118.682416,29.8083221 118.076779,29.8319463 117.457181,29.8319463 C116.717843,29.8387455 115.980645,29.7514221 115.263356,29.5720805 C114.632774,29.4165196 114.039787,29.1360925 113.519463,28.7473826 C113.02128,28.3658966 112.622672,27.8696627 112.357584,27.3009396 C112.076242,26.7124832 111.93557,25.994094 111.93557,25.1457718 C111.93557,24.3350336 112.091275,23.6413423 112.400537,23.0625503 C112.710539,22.4836754 113.160092,21.9913074 113.708456,21.6300671 C114.319904,21.2336282 114.999736,20.95434 115.713289,20.806443 C116.543734,20.6268306 117.39145,20.5393221 118.241074,20.5455034 C118.512752,20.5455034 118.798389,20.5605369 119.097987,20.5884564 C119.635912,20.6390487 120.169765,20.7262305 120.695839,20.849396 C120.840805,20.8783893 120.981477,20.9224161 121.117852,20.9793289 L121.117852,20.0536913 C121.117852,19.5457718 121.080268,19.0378523 121.001879,18.535302 C120.930686,18.0598203 120.757014,17.6054891 120.492886,17.2037584 C120.215107,16.7941582 119.834381,16.4649124 119.388993,16.2491275 C118.914362,16.0085906 118.289396,15.8883221 117.515168,15.8883221 C116.410201,15.8883221 115.587651,15.9645638 115.045369,16.1191946 C114.503087,16.2738255 114.105772,16.3983893 113.853423,16.4950336 L113.592483,14.8467114 C113.921074,14.6920805 114.430067,14.5471141 115.117315,14.4118121 C115.93571,14.2641623 116.766303,14.1947664 117.597852,14.2045638 L117.596779,14.2045638 Z M117.771812,28.1492617 C118.507383,28.1492617 119.152752,28.1256376 119.708993,28.0773154 C120.181477,28.0397315 120.651812,27.9774497 121.117852,27.889396 L121.117852,22.6233557 C120.788826,22.4916131 120.448437,22.390251 120.10094,22.3205369 C119.635973,22.2131544 118.997047,22.1605369 118.183087,22.1605369 C117.696644,22.1605369 117.212349,22.1927517 116.730201,22.2571812 C116.24349,22.3193234 115.771406,22.4661457 115.335302,22.6910067 C114.917584,22.9057718 114.558926,23.218255 114.289396,23.6026846 C114.018792,23.9892617 113.882416,24.4993289 113.882416,25.1361074 C113.867802,25.6232385 113.962085,26.1074912 114.158389,26.553557 C114.332349,26.9272483 114.602953,27.2461745 114.943356,27.4791946 C115.313826,27.7240268 115.727248,27.8958389 116.163221,27.9860403 C116.692617,28.0987919 117.231678,28.153557 117.772886,28.1492617 L117.771812,28.1492617 L117.771812,28.1492617 Z M126.372081,15.0732886 C127.098449,14.8796321 127.83,14.7059648 128.565906,14.5524832 C129.466846,14.3591946 130.63302,14.2625503 132.066577,14.2625503 C133.965101,14.2625503 135.340671,14.812349 136.192215,15.9119463 C136.696637,15.5300397 137.244526,15.2092359 137.82443,14.9562416 C138.895806,14.4870035 140.054594,14.250561 141.224161,14.2625503 C142.366711,14.2625503 143.292349,14.4311409 143.998926,14.769396 C144.672215,15.0754362 145.244564,15.5672483 145.645101,16.1868456 C146.054228,16.8526174 146.321611,17.5967785 146.430067,18.3710067 C146.570738,19.2902013 146.638389,20.2179866 146.634286,21.1479195 L146.634286,29.5097987 L144.744161,29.5097987 L144.744161,21.7567785 C144.751299,20.9012739 144.707913,20.0460942 144.614228,19.1957047 C144.527248,18.4719463 144.352215,17.8748993 144.091275,17.4024161 C143.838397,16.9381112 143.447358,16.5639601 142.972349,16.3318121 C142.489128,16.0902013 141.858792,15.9699329 141.08349,15.9699329 C140.55166,15.9648755 140.020879,16.0181696 139.500671,16.1288591 C139.07651,16.2190604 138.663087,16.3489933 138.265772,16.5197315 C137.966108,16.646773 137.678881,16.8013508 137.407785,16.9814765 C137.244083,17.0937555 137.082968,17.2097589 136.924564,17.329396 C137.107114,17.8802685 137.238121,18.4461745 137.311141,19.021745 C137.400268,19.6789262 137.444295,20.3404027 137.442148,21.0040268 L137.442148,29.5087248 L135.553289,29.5087248 L135.553289,21.7557047 C135.560028,20.900537 135.516283,20.0457171 135.422282,19.1957047 C135.336376,18.4719463 135.155973,17.8748993 134.885369,17.4024161 C134.621349,16.9364504 134.220665,16.5627532 133.73745,16.3318121 C133.24349,16.0902013 132.58953,15.9699329 131.776644,15.9699329 C131.00349,15.9602685 130.231409,16.0085906 129.466846,16.1148993 C128.83651,16.2115436 128.434899,16.2974497 128.26094,16.3747651 L128.26094,29.5097987 L126.371007,29.5097987 L126.371007,15.0732886 L126.372081,15.0732886 Z M154.555705,14.2045638 C155.543624,14.2045638 156.383356,14.3441611 157.073826,14.6244295 C157.715973,14.8714094 158.288322,15.2687248 158.744698,15.7820134 C159.179597,16.2899329 159.496376,16.8880537 159.674631,17.532349 C159.873289,18.2475168 159.972081,18.9884564 159.964564,19.7304698 L159.964564,29.1618792 C159.687517,29.2402685 159.406174,29.304698 159.122685,29.3551678 C158.754362,29.4195973 158.328054,29.4915436 157.844832,29.5720805 C157.307495,29.6582755 156.766407,29.7191927 156.223356,29.7546309 C155.632752,29.802953 155.027114,29.827651 154.406443,29.827651 C153.667059,29.8340992 152.92986,29.7464148 152.212617,29.5667114 C151.582495,29.4113408 150.989891,29.1312871 150.469799,28.7430872 C149.971346,28.3618773 149.57268,27.8655711 149.307919,27.2966443 C149.026577,26.7081879 148.885906,25.9897987 148.885906,25.1404027 C148.885906,24.3307383 149.041611,23.637047 149.350872,23.0571812 C149.660459,22.4783012 150.110116,21.986189 150.658792,21.6257718 C151.270161,21.2289551 151.949997,20.949301 152.663624,20.8010738 C153.494101,20.6217705 154.341822,20.5346216 155.191409,20.5412081 C155.462013,20.5412081 155.747651,20.5551678 156.048322,20.5841611 C156.586247,20.6347534 157.120101,20.7219352 157.646174,20.8451007 C157.791141,20.874094 157.931812,20.917047 158.068188,20.9739597 L158.068188,20.049396 C158.068188,19.5404027 158.02953,19.0324832 157.951141,18.5299329 C157.880274,18.0545362 157.706971,17.6002108 157.443221,17.1983893 C157.1653,16.7891835 156.784587,16.4603192 156.339329,16.2448322 C155.864698,16.0032215 155.239732,15.882953 154.46443,15.882953 C153.360537,15.882953 152.537987,15.9602685 151.994631,16.1148993 C151.452349,16.2684564 151.056107,16.394094 150.803758,16.4907383 L150.542819,14.8413423 C150.871409,14.6867114 151.380403,14.5428188 152.067651,14.4075168 C152.889128,14.2604027 153.721342,14.1927517 154.555705,14.2045638 L154.555705,14.2045638 Z M154.730738,28.1492617 C155.466309,28.1492617 156.111678,28.1256376 156.666846,28.0773154 C157.139329,28.0397315 157.610738,27.9774497 158.076779,27.889396 L158.076779,22.6233557 C157.747753,22.4916131 157.407363,22.390251 157.059866,22.3205369 C156.594899,22.2131544 155.955973,22.1605369 155.142013,22.1605369 C154.65557,22.1605369 154.170201,22.1927517 153.689128,22.2571812 C153.202384,22.3191714 152.730273,22.4660018 152.294228,22.6910067 C151.87651,22.9057718 151.517852,23.218255 151.248322,23.6026846 C150.976644,23.9892617 150.840268,24.4993289 150.841342,25.1361074 C150.827383,25.6225503 150.920805,26.1068456 151.117315,26.553557 C151.291275,26.9272483 151.561879,27.2461745 151.901208,27.4791946 C152.272752,27.7240268 152.687248,27.8958389 153.122148,27.9860403 C153.65047,28.0987919 154.18953,28.153557 154.730738,28.1492617 L154.730738,28.1492617 Z" id="Shape"></path>
        </g>
    </g>
</svg>