<?xml version="1.0" encoding="UTF-8"?>
<svg width="216px" height="104px" viewBox="0 0 216 104" version="1.1" xmlns="http://www.w3.org/2000/svg" xmlns:xlink="http://www.w3.org/1999/xlink">
    <!-- Generator: Sketch 59 (86127) - https://sketch.com -->
    <title>Coinhouse</title>
    <desc>Created with Sketch.</desc>
    <g id="Coinhouse" stroke="none" stroke-width="1" fill="none" fill-rule="evenodd">
        <g id="Logo" transform="translate(28.000000, 38.000000)" fill-rule="nonzero">
            <path d="M0,6.9312 C1.80373333,5.8752 3.60426667,4.81173333 5.41226667,3.7632 C7.456,2.5792 9.50933333,1.4112 11.5562667,0.232533333 C12.6773333,-0.411733333 14.1034667,0.356266667 14.112,1.6352 C14.1258667,4.32 14.112,7.00373333 14.1194816,9.68853333 C14.1216,10.3125333 13.8954667,10.7552 13.3002667,11.0112 C12.6090667,11.3077333 11.9456,11.6714667 11.2490667,11.9498667 C10.4597333,12.2666667 9.7888,11.8272 9.7504,10.9770667 C9.71733333,10.2496 9.74186667,9.52 9.74186667,8.7904 C9.74186667,8.592 9.75253333,8.39253333 9.74186667,8.19413333 C9.69066667,7.25226667 9.03786667,6.82133333 8.17813333,7.1872 C7.7888,7.3536 7.42293333,7.57866667 7.05173333,7.78666667 C6.50773333,8.09066667 5.97866667,8.42453333 5.42293333,8.70613333 C4.95786667,8.9408 4.7424,9.26933333 4.74453333,9.80053333 C4.7584,12.4842667 4.75733333,15.1690667 4.74453333,17.8538667 C4.74346667,18.3445333 4.9504,18.6538667 5.36746667,18.8842667 C7.34293333,19.9701333 6.91413333,19.7226667 6.96106667,21.7248 C6.97386667,22.2549333 6.9824,22.7861333 6.95786667,23.3152 C6.91413333,24.2528 6.12053333,24.72 5.2896,24.256 C3.71413333,23.3770667 2.16213333,22.4544 0.606933333,21.5402667 C0.3872,21.4101333 0.2016,21.2224 0.00106666667,21.0613333 L0.00106666667,6.9312 L0,6.9312 Z" id="Path" fill="#222246"></path>
            <path d="M10.9450667,27.6277333 C10.7349333,27.4922667 10.5290667,27.3525333 10.3157333,27.2234667 C9.82506667,26.9290667 9.56906667,26.5045333 9.56906667,25.9285333 C9.56906667,23.2778667 9.57333333,20.6272 9.56586423,17.9754667 C9.5648,17.3034667 9.91466667,16.8384 10.4565333,16.5461333 C11.1104,16.1941333 11.8058667,15.9125333 12.4917333,15.6213333 C13.1882667,15.3258667 13.9018667,15.7792 13.9285333,16.5557333 C13.9573333,17.4165333 13.952,18.2784 13.9296,19.1392 C13.9168,19.6256 13.9648,20.1322667 14.3936,20.3594667 C14.8586667,20.6048 15.3792,20.5589333 15.8805333,20.2357333 C16.5898667,19.7781333 17.3365333,19.3717333 18.0949333,19.0016 C18.8010667,18.656 19.0965333,18.1376 19.0901333,17.3610667 C19.072,14.9749333 19.0688,12.5888 19.0922667,10.2037333 C19.0997333,9.41866667 18.7936,8.80106667 18.0992,8.54933333 C16.9290667,8.12586667 16.5770667,7.344 16.7146667,6.18346667 C16.7808,5.6288 16.7136,5.05813333 16.7285333,4.49493333 C16.7605333,3.27786667 17.6192,2.81386667 18.6570667,3.43573333 C20.0245333,4.25706667 21.3813333,5.09973333 22.7744,5.8752 C23.4229333,6.2368 23.7130667,6.66453333 23.7056,7.43573333 C23.6714667,11.4784 23.6672,15.5210667 23.7089394,19.5637333 C23.7162667,20.3648 23.424,20.8586667 22.7712,21.2309333 C20.4554667,22.5536 18.1386667,23.8762667 15.8304,25.2117333 C14.4597333,26.0042667 13.104,26.8224 11.7408,27.6277333 L10.9450667,27.6277333 Z" id="Path" fill="#267BBF"></path>
            <path d="M145.717333,12.2784 L157.261867,12.2784 C156.967467,10.8554667 156.2912,9.74186667 155.2512,8.84906667 C154.113067,7.87093333 152.779733,7.5552 151.2832,7.47306667 C148.484267,7.3216 145.783467,10.0608 145.717333,12.2784 L145.717333,12.2784 Z M159.204267,14.2944 L145.738667,14.2944 C145.524267,14.9045333 145.856,15.3824 146.069333,15.8645333 C146.573867,17.008 147.3888,17.8741333 148.484267,18.4906667 C149.758933,19.2085333 151.074133,19.4186667 152.5344,19.1541333 C153.981867,18.8928 155.024,18.0757333 156.0256,17.008 L156.605867,17.5669333 C157.442133,18.3733333 157.512533,18.3456 156.616533,19.1616 C155.489067,20.1898667 154.1792,20.8138667 152.645333,21.0976 C151.229867,21.3589333 149.936,21.1178667 148.634667,20.6634667 C146.964267,20.0789333 145.761067,18.9301333 144.778667,17.4922667 C143.589333,15.7514667 143.447467,13.7802667 143.733333,11.824 C144.0128,9.9264 145.093333,8.3712 146.599467,7.16053333 C147.644008,6.32103349 148.895926,5.77928498 150.222933,5.59253333 C151.579733,5.39946667 152.958933,5.4944 154.276267,6.06186667 C156.020267,6.81386667 157.441067,7.92213333 158.327467,9.61386667 C158.6368,10.2048 158.980267,10.8170667 159.008,11.5264 C159.010133,11.5893333 159.136,11.6469333 159.2032,11.7077333 L159.2032,14.2944 L159.204267,14.2944 Z" id="Shape" fill="#2F7DC1"></path>
            <path d="M85.7568,21.2149333 L83.8218667,21.2149333 L83.8218667,1.24906667 C84.4,1.06133333 85.0218667,1.22133333 85.7269333,1.1584 C85.8069333,3.35893333 85.7109333,5.5296 85.7802667,7.74826667 C86.7477333,6.9568 87.7002667,6.2976 88.8981333,6.06613333 C91.0773333,5.64266667 93.0613333,5.9936 94.768,7.48266667 C96.3669333,8.88 97.1029333,10.6677333 97.104,12.7733333 C97.1072,15.5573333 97.1050667,18.3413333 97.1050667,21.1776 C96.4810667,21.3397333 95.8624,21.1957333 95.1914667,21.2810667 C95.1701333,20.9685333 95.1402667,20.7157333 95.1402667,20.4629333 C95.136,17.7770667 95.0624,15.088 95.1616,12.4064 C95.2384,10.3285333 93.1509333,8.1824 91.2661333,7.86346667 C89.6448,7.58826667 88.3413333,8.06826667 87.2277333,9.0432 C86.3168,9.83893333 85.7429333,10.9312 85.7525333,12.24 C85.7696,14.8917333 85.7568,17.5456 85.7568,20.1973333 L85.7568,21.2149333 Z" id="Path" fill="#347FC2"></path>
            <path d="M48.3253333,13.5424 C48.208,16.5141333 50.6848,19.4432 54.1909333,19.4496139 C57.84,19.4570667 60.1365333,16.4618667 60.1173333,13.4890667 C60.0949333,10.1514667 57.2629333,7.62986667 54.1834667,7.63837841 C50.8234667,7.64906667 48.1429333,10.6186667 48.3253333,13.5424 M46.3744,13.4858667 C46.2997333,9.3504 49.8837333,5.6736 54.2528,5.69589818 C58.4565333,5.71733333 62.1034667,9.2064 62.0629333,13.5509333 C62.0234667,17.8496 58.7061333,21.3664 54.224,21.3942814 C49.8506667,21.4208 46.2848,17.8421333 46.3744,13.4858667" id="Shape" fill="#262449"></path>
            <path d="M112.661333,13.7269333 C112.816,10.4501333 110.065067,7.728 106.736,7.76426667 C103.157333,7.8016 100.916267,10.7050667 100.8736,13.6213333 C100.8288,16.64 103.182933,19.664 106.88,19.6373333 C110.0992,19.616 112.784,16.9301333 112.661333,13.7269333 M106.757333,21.4709333 C102.485333,21.5914667 98.9152,17.9829333 98.9332646,13.6458667 C98.9514667,9.408 102.545067,5.8752 106.862933,5.88478048 C110.948267,5.8944 114.692267,9.41973333 114.635733,13.8016 C114.5824,17.9349333 111.0208,21.6992 106.757333,21.4709333" id="Shape" fill="#2D7DC0"></path>
            <path d="M44.096,17.1829333 L45.4474667,18.5248 C41.8506667,22.5024 36.6506667,22.144 33.5968,19.0069333 C30.6293333,15.9562667 30.6176,10.6282667 34.0341333,7.6256 C37.3056,4.75093333 42.1429333,4.83093333 45.3365333,8.42453333 L43.936,9.8304 C42.7338667,8.6048 41.2981333,7.6704 39.3802667,7.6672 C37.7834667,7.664 36.3722667,8.1472 35.2608,9.248 C32.9194667,11.5712 32.7434667,14.9237333 34.8928,17.4272 C36.64,19.4645333 40.3712,20.7232 44.096,17.1829333" id="Path" fill="#262449"></path>
            <path d="M141.653333,10.2976 L139.842133,10.2976 C139.792,10.2165333 139.7312,10.1642667 139.728,10.1088 C139.6384,8.51413333 138.481067,7.39946667 136.890667,7.3248 C136.068267,7.28533333 135.338667,7.5488 134.6656,7.94773333 C133.964432,8.35403409 133.543812,9.11328266 133.5712,9.9232 C133.592533,10.7445333 134.0896,11.3493333 134.882133,11.7237333 C135.7152,12.1173333 136.608,12.2698667 137.4816,12.4981333 C138.423467,12.7434667 139.3536,12.9845333 140.2208,13.4656 C141.1008,13.9530667 141.6576,14.6250667 141.937067,15.5914667 C142.3104,16.8832 142.123733,18.0768 141.3184,19.1189333 C140.2368,20.5162667 138.7808,21.2522667 136.990933,21.2629333 C136.171733,21.2682667 135.3888,21.1936 134.584533,20.9152 C133.032533,20.3776 132.040533,19.3429333 131.472,17.8698667 C131.301333,17.4282667 131.335467,16.9056 131.271467,16.3936 C131.898667,16.1717333 132.478933,16.3264 133.031467,16.272 C133.138133,16.5792 133.261867,16.8128 133.3024,17.0613333 C133.537067,18.4917333 134.509867,19.1328 135.800533,19.4858667 C137.373867,19.9168 138.626133,19.3866667 139.6512,18.224 C140.542933,17.2128 140.263467,15.5690667 139.098667,14.8938667 C138.1632,14.3509333 137.109333,14.1365333 136.069333,13.8901333 C134.896,13.6128 133.744,13.2896 132.772267,12.5152 C132.213333,12.0704 131.911467,11.5082667 131.723733,10.8202667 C131.373867,9.536 131.697067,8.42026667 132.528,7.46773333 C133.438933,6.4256 134.592,5.7664 136.024533,5.7312 C137.006933,5.70666667 137.968,5.7152 138.920533,6.10773333 C140.624,6.81173333 141.7408,8.4096 141.653333,10.2976" id="Path" fill="#2C7DC0"></path>
            <path d="M79.584,21.2501333 C79.584,18.3370667 79.5872,15.5541333 79.584,12.7701333 C79.5818667,11.6202667 79.2970667,10.5386667 78.5717333,9.6416 C77.3290667,8.1056 75.712,7.47733333 73.7589333,7.92426667 C71.9157333,8.34453333 70.8010667,9.584 70.2848,11.3386667 C70.0928,11.9882667 70.1002667,12.7093333 70.0949333,13.3973333 C70.0757333,15.9786667 70.0874667,18.56 70.0874667,21.1968 L68.2389333,21.1968 L68.2389333,20.6101333 C68.2389333,17.9914667 68.2730667,15.3728 68.2272,12.7552 C68.1930667,10.8693333 68.7978667,9.24693333 70.0832,7.90826667 C71.1541333,6.79253333 72.4757333,6.09173333 74.0512,5.9296 C75.9114667,5.7376 77.5946667,6.17493333 79.0368,7.36533333 C80.3808,8.4768 81.2181333,9.9072 81.3973333,11.664 C81.7034667,14.6677333 81.4656,17.68 81.5328,20.688 C81.5434667,21.1733333 81.4517333,21.2352 80.9482667,21.248 C80.5237333,21.2586667 80.0992,21.2501333 79.584,21.2501333" id="Path" fill="#232247"></path>
            <path d="M116.426667,5.78346667 L118.158933,5.78346667 C118.180267,6.02453333 118.2208,6.27413333 118.221867,6.5248 C118.226133,9.01013333 118.205867,11.4976 118.237867,13.984 C118.2464,14.6261333 118.359467,15.2810667 118.520533,15.9061333 C118.942933,17.5381333 120.0864,18.5237333 121.614933,19.0581333 C123.691733,19.7834667 125.940267,18.7744 127.0272,16.9610667 C127.5456,16.0970667 127.768533,15.1722667 127.76,14.1642667 C127.739733,11.6789333 127.7536,9.19253333 127.7536,6.70613333 L127.7536,5.79626667 L129.5648,5.79626667 L129.5648,6.58346667 C129.5648,9.3024 129.5136,12.0213333 129.578667,14.7381333 C129.6512,17.7674667 126.990933,20.7818667 123.805867,21.1018667 C121.659733,21.3173333 119.880533,20.6645333 118.381867,19.2714667 C117.266133,18.2368 116.490667,16.8714667 116.4512,15.3173333 C116.368,12.1717333 116.4256,9.024 116.4256,5.7824" id="Path" fill="#2A7CC0"></path>
            <path d="M65.856,21.2128 L64.0874667,21.2128 L64.0874667,6.18453333 L65.7802667,6.18453333 C65.9445333,6.95893333 66.0085333,18.8565333 65.856,21.2128" id="Path" fill="#202045"></path>
        </g>
    </g>
</svg>