<?xml version="1.0" encoding="UTF-8"?>
<svg width="216px" height="104px" viewBox="0 0 216 104" version="1.1" xmlns="http://www.w3.org/2000/svg" xmlns:xlink="http://www.w3.org/1999/xlink">
    <!-- Generator: Sketch 59 (86127) - https://sketch.com -->
    <title>Coinhouse-dark</title>
    <desc>Created with Sketch.</desc>
    <g id="Coinhouse" stroke="none" stroke-width="1" fill="none" fill-rule="evenodd">
        <path d="M46.6570667,41.4357333 C48.0245333,42.2570667 49.3813333,43.0997333 50.7744,43.8752 C51.4229333,44.2368 51.7130667,44.6645333 51.7056,45.4357333 C51.6714667,49.4784 51.6672,53.5210667 51.7089394,57.5637333 C51.7162667,58.3648 51.424,58.8586667 50.7712,59.2309333 C48.4554667,60.5536 46.1386667,61.8762667 43.8304,63.2117333 C42.4597333,64.0042667 41.104,64.8224 39.7408,65.6277333 L38.9450667,65.6277333 C38.7349333,65.4922667 38.5290667,65.3525333 38.3157333,65.2234667 C37.8250667,64.9290667 37.5690667,64.5045333 37.5690667,63.9285333 C37.5690667,61.2778667 37.5733333,58.6272 37.5658642,55.9754667 C37.5648,55.3034667 37.9146667,54.8384 38.4565333,54.5461333 C39.1104,54.1941333 39.8058667,53.9125333 40.4917333,53.6213333 C41.1882667,53.3258667 41.9018667,53.7792 41.9285333,54.5557333 C41.9573333,55.4165333 41.952,56.2784 41.9296,57.1392 C41.9168,57.6256 41.9648,58.1322667 42.3936,58.3594667 C42.8586667,58.6048 43.3792,58.5589333 43.8805333,58.2357333 C44.5898667,57.7781333 45.3365333,57.3717333 46.0949333,57.0016 C46.8010667,56.656 47.0965333,56.1376 47.0901333,55.3610667 C47.072,52.9749333 47.0688,50.5888 47.0922667,48.2037333 C47.0997333,47.4186667 46.7936,46.8010667 46.0992,46.5493333 C44.9290667,46.1258667 44.5770667,45.344 44.7146667,44.1834667 C44.7808,43.6288 44.7136,43.0581333 44.7285333,42.4949333 C44.7605333,41.2778667 45.6192,40.8138667 46.6570667,41.4357333 Z M42.112,39.6352 C42.1258667,42.32 42.112,45.0037333 42.1194816,47.6885333 C42.1216,48.3125333 41.8954667,48.7552 41.3002667,49.0112 C40.6090667,49.3077333 39.9456,49.6714667 39.2490667,49.9498667 C38.4597333,50.2666667 37.7888,49.8272 37.7504,48.9770667 C37.7173333,48.2496 37.7418667,47.52 37.7418667,46.7904 C37.7418667,46.592 37.7525333,46.3925333 37.7418667,46.1941333 C37.6906667,45.2522667 37.0378667,44.8213333 36.1781333,45.1872 C35.7888,45.3536 35.4229333,45.5786667 35.0517333,45.7866667 C34.5077333,46.0906667 33.9786667,46.4245333 33.4229333,46.7061333 C32.9578667,46.9408 32.7424,47.2693333 32.7445333,47.8005333 C32.7584,50.4842667 32.7573333,53.1690667 32.7445333,55.8538667 C32.7434667,56.3445333 32.9504,56.6538667 33.3674667,56.8842667 C35.3429333,57.9701333 34.9141333,57.7226667 34.9610667,59.7248 C34.9738667,60.2549333 34.9824,60.7861333 34.9578667,61.3152 C34.9141333,62.2528 34.1205333,62.72 33.2896,62.256 C31.7141333,61.3770667 30.1621333,60.4544 28.6069333,59.5402667 C28.3872,59.4101333 28.2016,59.2224 28.0010667,59.0613333 L28.0010667,44.9312 L28,44.9312 C29.8037333,43.8752 31.6042667,42.8117333 33.4122667,41.7632 C35.456,40.5792 37.5093333,39.4112 39.5562667,38.2325333 C40.6773333,37.5882667 42.1034667,38.3562667 42.112,39.6352 Z M134.862933,43.8847805 C138.948267,43.8944 142.692267,47.4197333 142.635733,51.8016 C142.5824,55.9349333 139.0208,59.6992 134.757333,59.4709333 C130.485333,59.5914667 126.9152,55.9829333 126.933265,51.6458667 C126.951467,47.408 130.545067,43.8752 134.862933,43.8847805 Z M73.3365333,46.4245333 L71.936,47.8304 C70.7338667,46.6048 69.2981333,45.6704 67.3802667,45.6672 C65.7834667,45.664 64.3722667,46.1472 63.2608,47.248 C60.9194667,49.5712 60.7434667,52.9237333 62.8928,55.4272 C64.64,57.4645333 68.3712,58.7232 72.096,55.1829333 L73.4474667,56.5248 C69.8506667,60.5024 64.6506667,60.144 61.5968,57.0069333 C58.6293333,53.9562667 58.6176,48.6282667 62.0341333,45.6256 C65.3056,42.7509333 70.1429333,42.8309333 73.3365333,46.4245333 Z M82.2528,43.6958982 C86.4565333,43.7173333 90.1034667,47.2064 90.0629333,51.5509333 C90.0234667,55.8496 86.7061333,59.3664 82.224,59.3942814 C77.8506667,59.4208 74.2848,55.8421333 74.3744,51.4858667 C74.2997333,47.3504 77.8837333,43.6736 82.2528,43.6958982 Z M113.726933,39.1584 C113.806933,41.3589333 113.710933,43.5296 113.780267,45.7482667 C114.747733,44.9568 115.700267,44.2976 116.898133,44.0661333 C119.077333,43.6426667 121.061333,43.9936 122.768,45.4826667 C124.366933,46.88 125.102933,48.6677333 125.104,50.7733333 C125.1072,53.5573333 125.105067,56.3413333 125.105067,59.1776 C124.481067,59.3397333 123.8624,59.1957333 123.191467,59.2810667 C123.170133,58.9685333 123.140267,58.7157333 123.140267,58.4629333 C123.136,55.7770667 123.0624,53.088 123.1616,50.4064 C123.2384,48.3285333 121.150933,46.1824 119.266133,45.8634667 C117.6448,45.5882667 116.341333,46.0682667 115.227733,47.0432 C114.3168,47.8389333 113.742933,48.9312 113.752533,50.24 C113.7696,52.8917333 113.7568,55.5456 113.7568,58.1973333 L113.7568,59.2149333 L111.821867,59.2149333 L111.821867,39.2490667 C112.4,39.0613333 113.021867,39.2213333 113.726933,39.1584 Z M166.920533,44.1077333 C168.624,44.8117333 169.7408,46.4096 169.653333,48.2976 L167.842133,48.2976 C167.792,48.2165333 167.7312,48.1642667 167.728,48.1088 C167.6384,46.5141333 166.481067,45.3994667 164.890667,45.3248 C164.068267,45.2853333 163.338667,45.5488 162.6656,45.9477333 C161.964432,46.3540341 161.543812,47.1132827 161.5712,47.9232 C161.592533,48.7445333 162.0896,49.3493333 162.882133,49.7237333 C163.7152,50.1173333 164.608,50.2698667 165.4816,50.4981333 C166.423467,50.7434667 167.3536,50.9845333 168.2208,51.4656 C169.1008,51.9530667 169.6576,52.6250667 169.937067,53.5914667 C170.3104,54.8832 170.123733,56.0768 169.3184,57.1189333 C168.2368,58.5162667 166.7808,59.2522667 164.990933,59.2629333 C164.171733,59.2682667 163.3888,59.1936 162.584533,58.9152 C161.032533,58.3776 160.040533,57.3429333 159.472,55.8698667 C159.301333,55.4282667 159.335467,54.9056 159.271467,54.3936 C159.898667,54.1717333 160.478933,54.3264 161.031467,54.272 C161.138133,54.5792 161.261867,54.8128 161.3024,55.0613333 C161.537067,56.4917333 162.509867,57.1328 163.800533,57.4858667 C165.373867,57.9168 166.626133,57.3866667 167.6512,56.224 C168.542933,55.2128 168.263467,53.5690667 167.098667,52.8938667 C166.1632,52.3509333 165.109333,52.1365333 164.069333,51.8901333 C162.896,51.6128 161.744,51.2896 160.772267,50.5152 C160.213333,50.0704 159.911467,49.5082667 159.723733,48.8202667 C159.373867,47.536 159.697067,46.4202667 160.528,45.4677333 C161.438933,44.4256 162.592,43.7664 164.024533,43.7312 C165.006933,43.7066667 165.968,43.7152 166.920533,44.1077333 Z M107.0368,45.3653333 C108.3808,46.4768 109.218133,47.9072 109.397333,49.664 C109.703467,52.6677333 109.4656,55.68 109.5328,58.688 C109.543467,59.1733333 109.451733,59.2352 108.948267,59.248 C108.523733,59.2586667 108.0992,59.2501333 107.584,59.2501333 L107.584922,55.8085205 C107.585536,54.1105493 107.58592,52.4405333 107.584,50.7701333 C107.581867,49.6202667 107.297067,48.5386667 106.571733,47.6416 C105.329067,46.1056 103.712,45.4773333 101.758933,45.9242667 C99.9157333,46.3445333 98.8010667,47.584 98.2848,49.3386667 C98.0928,49.9882667 98.1002667,50.7093333 98.0949333,51.3973333 C98.0757333,53.9786667 98.0874667,56.56 98.0874667,59.1968 L96.2389333,59.1968 L96.2389333,58.6101333 C96.2389333,55.9914667 96.2730667,53.3728 96.2272,50.7552 C96.1930667,48.8693333 96.7978667,47.2469333 98.0832,45.9082667 C99.1541333,44.7925333 100.475733,44.0917333 102.0512,43.9296 C103.911467,43.7376 105.594667,44.1749333 107.0368,45.3653333 Z M93.7802667,44.1845333 C93.9445333,44.9589333 94.0085333,56.8565333 93.856,59.2128 L92.0874667,59.2128 L92.0874667,44.1845333 L93.7802667,44.1845333 Z M182.276267,44.0618667 C184.020267,44.8138667 185.441067,45.9221333 186.327467,47.6138667 C186.6368,48.2048 186.980267,48.8170667 187.008,49.5264 C187.010133,49.5893333 187.136,49.6469333 187.2032,49.7077333 L187.2032,52.2944 L173.738667,52.2944 C173.524267,52.9045333 173.856,53.3824 174.069333,53.8645333 C174.573867,55.008 175.3888,55.8741333 176.484267,56.4906667 C177.758933,57.2085333 179.074133,57.4186667 180.5344,57.1541333 C181.981867,56.8928 183.024,56.0757333 184.0256,55.008 L184.605867,55.5669333 C185.442133,56.3733333 185.512533,56.3456 184.616533,57.1616 C183.489067,58.1898667 182.1792,58.8138667 180.645333,59.0976 C179.229867,59.3589333 177.936,59.1178667 176.634667,58.6634667 C174.964267,58.0789333 173.761067,56.9301333 172.778667,55.4922667 C171.589333,53.7514667 171.447467,51.7802667 171.733333,49.824 C172.0128,47.9264 173.093333,46.3712 174.599467,45.1605333 C175.644008,44.3210335 176.895926,43.779285 178.222933,43.5925333 C179.579733,43.3994667 180.958933,43.4944 182.276267,44.0618667 Z M144.4256,43.7824 L144.426667,43.7834667 L146.158933,43.7834667 C146.180267,44.0245333 146.2208,44.2741333 146.221867,44.5248 C146.226133,47.0101333 146.205867,49.4976 146.237867,51.984 C146.2464,52.6261333 146.359467,53.2810667 146.520533,53.9061333 C146.942933,55.5381333 148.0864,56.5237333 149.614933,57.0581333 C151.691733,57.7834667 153.940267,56.7744 155.0272,54.9610667 C155.5456,54.0970667 155.768533,53.1722667 155.76,52.1642667 C155.739733,49.6789333 155.7536,47.1925333 155.7536,44.7061333 L155.7536,43.7962667 L157.5648,43.7962667 L157.5648,44.5834667 C157.5648,47.3024 157.5136,50.0213333 157.578667,52.7381333 C157.6512,55.7674667 154.990933,58.7818667 151.805867,59.1018667 C149.659733,59.3173333 147.880533,58.6645333 146.381867,57.2714667 C145.266133,56.2368 144.490667,54.8714667 144.4512,53.3173333 C144.368,50.1717333 144.4256,47.024 144.4256,43.7824 Z M134.736,45.7642667 C131.157333,45.8016 128.916267,48.7050667 128.8736,51.6213333 C128.8288,54.64 131.182933,57.664 134.88,57.6373333 C138.0992,57.616 140.784,54.9301333 140.661333,51.7269333 C140.816,48.4501333 138.065067,45.728 134.736,45.7642667 Z M82.1834667,45.6383784 C78.8234667,45.6490667 76.1429333,48.6186667 76.3253333,51.5424 C76.208,54.5141333 78.6848,57.4432 82.1909333,57.4496139 C85.84,57.4570667 88.1365333,54.4618667 88.1173333,51.4890667 C88.0949333,48.1514667 85.2629333,45.6298667 82.1834667,45.6383784 Z M173.717333,50.2784 L185.261867,50.2784 C184.967467,48.8554667 184.2912,47.7418667 183.2512,46.8490667 C182.113067,45.8709333 180.779733,45.5552 179.2832,45.4730667 C176.484267,45.3216 173.783467,48.0608 173.717333,50.2784 Z" id="Logo" fill="#FFFFFF" fill-rule="nonzero"></path>
    </g>
</svg>