<?xml version="1.0" encoding="utf-8"?>
<!-- Generator: Adobe Illustrator 23.1.1, SVG Export Plug-In . SVG Version: 6.00 Build 0)  -->
<svg version="1.1" id="Layer_1" xmlns="http://www.w3.org/2000/svg" xmlns:xlink="http://www.w3.org/1999/xlink" x="0px" y="0px"
     viewBox="0 0 677.4 231.1" style="enable-background:new 0 0 677.4 231.1;" xml:space="preserve">
<style type="text/css">
	.st0{fill:#002D74;}
	.st1{fill:url(#SVGID_8_);}
</style>
    <g>
	<g>
		<path class="st0" d="M189,143c-13.7,0-23.8-10.7-23.8-23.9s10.1-24.2,23.9-24.2c8.7,0,14.1,3.2,18.4,7.9l-6.5,7.1
			c-3.2-3.4-6.6-5.8-12-5.8c-7.7,0-13.3,6.6-13.3,14.8c0,8.3,5.7,14.9,13.8,14.9c5,0,8.6-2.4,12-5.8l6.4,6.3
			C203.3,139.4,198,143,189,143z"/>
        <path class="st0" d="M227.9,143h-10.6V95h10.6v11.3c2.9-6.9,8.2-11.6,16.3-11.3v11.2h-0.6c-9.3,0-15.7,6-15.7,18.3V143z"/>
        <polygon class="st0" points="299.5,94.9 276.2,155.9 265.5,155.9 270.6,143 250.6,94.9 261.8,94.9 275.5,130.4 288.6,94.9 		"/>
        <path class="st0" d="M333.1,142.9c-7.6,0-12.4-3.8-15.6-8.1v21.1h-10.6v-61h10.6v8.6c3.4-4.8,8.2-8.6,15.6-8.6
			c10.9,0,21.5,8.6,21.5,24C354.6,134.3,344.1,142.9,333.1,142.9z M330.7,104c-7.2,0-13.4,5.9-13.4,14.8s6.3,14.8,13.4,14.8
			c7.2,0,13.2-5.7,13.2-14.8C343.9,109.8,337.9,104,330.7,104z"/>
        <path class="st0" d="M377.8,104.9v22.6c0,4.1,2.1,5.8,5.7,5.8h4.1v9.4h-7.2c-7.7,0-13.2-3.4-13.2-13.5v-24.3h-5.9v-9.1h5.9V83.2
			h10.6v12.7h9.8v9.1H377.8z"/>
        <path class="st0" d="M421,143c-14.1,0-24.5-10.7-24.5-23.9c0-13.3,10.5-24.2,24.6-24.2c14.1,0,24.5,10.7,24.5,24
			C445.7,132.1,435.3,143,421,143z M421,104.1c-8.5,0-13.9,6.6-13.9,14.8c0,8.2,5.9,14.9,14.1,14.9c8.6,0,14-6.6,14-14.8
			C435.2,110.8,429.3,104.1,421,104.1z"/>
        <path class="st0" d="M546.8,143c-14.1,0-24.5-10.7-24.5-23.9c0-13.3,10.5-24.2,24.6-24.2c14.1,0,24.5,10.7,24.5,24
			C571.5,132.1,561,143,546.8,143z M546.8,104.1c-8.5,0-13.9,6.6-13.9,14.8c0,8.2,5.9,14.9,14.1,14.9c8.6,0,14-6.6,14-14.8
			C560.9,110.8,555.1,104.1,546.8,104.1z"/>
        <path class="st0" d="M634.3,94.9c10,0,16.2,6.4,16.2,17.6V143h-10.6v-27.2c0-7.3-3.4-11.3-9.3-11.3c-5.8,0-9.9,4-9.9,11.4V143
			h-10.6v-27.3c0-7.2-3.5-11.2-9.3-11.2c-5.9,0-9.9,4.4-9.9,11.5v27h-10.6V94.9h10.6v7.9c3-4.1,7-7.9,14.1-7.9
			c6.6,0,11.3,3.2,13.7,8.1C622.4,98.1,627.3,94.9,634.3,94.9z"/>
        <path class="st0" d="M465.1,133.3v5.3c0,0.2-0.1,0.4-0.3,0.5l-4.6,2.7c-0.2,0.1-0.4,0.1-0.6,0l-4.6-2.7c-0.2-0.1-0.3-0.3-0.3-0.5
			v-5.3c0-0.2,0.1-0.4,0.3-0.5l4.6-2.7c0.2-0.1,0.4-0.1,0.6,0l4.6,2.7C465,132.9,465.1,133.1,465.1,133.3z"/>
        <path class="st0" d="M497.3,142.9c-13.7-0.3-23.6-11.2-23.4-24.4s10.6-24,24.4-23.7c8.7,0.2,14.1,3.5,18.3,8.3l-6.7,6.9
			c-3.2-3.5-6.5-5.9-11.9-6c-7.7-0.1-13.4,6.4-13.6,14.5c-0.2,8.3,5.4,15,13.5,15.2c5,0.1,8.7-2.2,12.1-5.5l6.3,6.4
			C511.6,139.6,506.3,143.1,497.3,142.9z"/>
	</g>
        <g>
		<g>
			<g>
				<g>
					<defs>
						<path id="SVGID_1_" d="M79,55.4L27.2,85.4v59.9L79,175.2l51.9-29.9V85.4L79,55.4z M79,55.4L27.2,85.4v59.9L79,175.2l51.9-29.9
							V85.4L79,55.4z"/>
					</defs>
                    <use xlink:href="#SVGID_1_"  style="overflow:visible;fill:#FFFFFF;"/>
                    <clipPath id="SVGID_2_">
						<use xlink:href="#SVGID_1_"  style="overflow:visible;"/>
					</clipPath>
				</g>
			</g>
		</g>
            <g>
			<g>
				<g>
					<defs>
						<path id="SVGID_3_" d="M79,55.4L27.2,85.4v59.9L79,175.2l51.9-29.9V85.4L79,55.4z M58.6,81.3h40.8l4.9,20.8H53.8L58.6,81.3z
							 M74.9,143.6l-8.8,8.2h-7.5L40,119.4l13.7-10.2l12.1,7.7v13.8l9.1,8.8V143.6z M69,129.9l1.4-13l-4.5-11.6h26.4l-4.4,11.6
							l1.3,13l-10.2,0H69z M99.5,151.7h-7.4l-8.8-8.1v-4.1l9.1-8.8v-13.8l11.9-7.8l13.6,10.3L99.5,151.7z"/>
					</defs>
                    <use xlink:href="#SVGID_3_"  style="overflow:visible;fill:#002D74;"/>
                    <clipPath id="SVGID_4_">
						<use xlink:href="#SVGID_3_"  style="overflow:visible;"/>
					</clipPath>
				</g>
			</g>
		</g>
            <g>
			<g>
				<defs>
					<path id="SVGID_5_" d="M79,55.4v25.9h20.3l4.9,20.8H79v3.1h13.3l-4.4,11.6l1.3,13l-10.2,0v45.3l51.9-29.9V85.4L79,55.4z
						 M99.5,151.7h-7.4l-8.8-8.1v-4.1l9.1-8.8v-13.8l11.9-7.8l13.6,10.3L99.5,151.7z"/>
				</defs>
                <linearGradient id="SVGID_6_" gradientUnits="userSpaceOnUse" x1="104.9563" y1="162.2572" x2="104.9563" y2="68.0414">
					<stop  offset="0" style="stop-color:#002D74"/>
                    <stop  offset="1" style="stop-color:#002D74;stop-opacity:0"/>
				</linearGradient>
                <use xlink:href="#SVGID_5_"  style="overflow:visible;fill:url(#SVGID_6_);"/>
                <clipPath id="SVGID_7_">
					<use xlink:href="#SVGID_5_"  style="overflow:visible;"/>
				</clipPath>
			</g>
		</g>
            <linearGradient id="SVGID_8_" gradientUnits="userSpaceOnUse" x1="53.0987" y1="162.2571" x2="53.0987" y2="68.0414">
			<stop  offset="0" style="stop-color:#002D74;stop-opacity:0"/>
                <stop  offset="1" style="stop-color:#002D74"/>
		</linearGradient>
            <path class="st1" d="M69,129.9l1.4-13l-4.5-11.6H79v-3.1H53.8l4.7-20.8H79V55.4L27.2,85.4v59.9L79,175.2v-45.3H69z M74.9,143.6
			l-8.8,8.2h-7.5L40,119.4l13.7-10.2l12.1,7.7v13.8l9.1,8.8V143.6z"/>
	</g>
</g>
</svg>
