<svg width="624" height="121" viewBox="0 0 624 121" fill="none" xmlns="http://www.w3.org/2000/svg">
<path fill-rule="evenodd" clip-rule="evenodd" d="M0.200012 30.4L52 0.399994L103.9 30.4V90.3L52 120.2L0.200012 90.3V30.4ZM72.4 26.3H31.6L26.8 47.1H77.3L72.4 26.3ZM39.1 96.8L47.9 88.6V84.5L38.8 75.7V61.9L26.7 54.2L13 64.4L31.6 96.8H39.1ZM43.4 61.9L42 74.9H62.2L60.9 61.9L65.3 50.3H38.9L43.4 61.9ZM65.1 96.7H72.5L90.9 64.4L77.3 54.1L65.4 61.9V75.7L56.3 84.5V88.6L65.1 96.7Z" fill="white"/>
<path d="M350.8 72.5V50H360.6V40.9H350.8V28.2H340.2V40.8H334.3V49.9H340.2V74.2C340.2 84.3 345.7 87.7 353.4 87.7H360.6V78.3H356.5C352.9 78.3 350.8 76.6 350.8 72.5Z" fill="white"/>
<path d="M162 88C148.3 88 138.2 77.3 138.2 64.1C138.2 50.9 148.3 39.9 162.1 39.9C170.8 39.9 176.2 43.1 180.5 47.8L174 54.9C170.8 51.5 167.4 49.1 162 49.1C154.3 49.1 148.7 55.7 148.7 63.9C148.7 72.2 154.4 78.8 162.5 78.8C167.5 78.8 171.1 76.4 174.5 73L180.9 79.3C176.3 84.4 171 88 162 88Z" fill="white"/>
<path d="M190.3 88H200.9V69.5C200.9 57.2 207.3 51.2 216.6 51.2H217.2V40C209.1 39.7 203.8 44.4 200.9 51.3V40H190.3V88Z" fill="white"/>
<path d="M249.2 100.9L272.5 39.9H261.6L248.5 75.4L234.8 39.9H223.6L243.6 88L238.5 100.9H249.2Z" fill="white"/>
<path fill-rule="evenodd" clip-rule="evenodd" d="M290.5 79.8C293.7 84.1 298.5 87.9 306.1 87.9C317.1 87.9 327.6 79.3 327.6 63.9C327.6 48.5 317 39.9 306.1 39.9C298.7 39.9 293.9 43.7 290.5 48.5V39.9H279.9V100.9H290.5V79.8ZM290.3 63.8C290.3 54.9 296.5 49 303.7 49C310.9 49 316.9 54.8 316.9 63.8C316.9 72.9 310.9 78.6 303.7 78.6C296.6 78.6 290.3 72.7 290.3 63.8Z" fill="white"/>
<path fill-rule="evenodd" clip-rule="evenodd" d="M394 88C379.9 88 369.5 77.3 369.5 64.1C369.5 50.8 380 39.9 394.1 39.9C408.2 39.9 418.6 50.6 418.6 63.9C418.7 77.1 408.3 88 394 88ZM394 49.1C385.5 49.1 380.1 55.7 380.1 63.9C380.1 72.1 386 78.8 394.2 78.8C402.8 78.8 408.2 72.2 408.2 64C408.2 55.8 402.3 49.1 394 49.1Z" fill="white"/>
<path fill-rule="evenodd" clip-rule="evenodd" d="M519.8 88C505.7 88 495.3 77.3 495.3 64.1C495.3 50.8 505.8 39.9 519.9 39.9C534 39.9 544.4 50.6 544.4 63.9C544.5 77.1 534 88 519.8 88ZM519.8 49.1C511.3 49.1 505.9 55.7 505.9 63.9C505.9 72.1 511.8 78.8 520 78.8C528.6 78.8 534 72.2 534 64C533.9 55.8 528.1 49.1 519.8 49.1Z" fill="white"/>
<path d="M607.3 39.9C617.3 39.9 623.5 46.3 623.5 57.5V88H612.9V60.8C612.9 53.5 609.5 49.5 603.6 49.5C597.8 49.5 593.7 53.5 593.7 60.9V88H583.1V60.7C583.1 53.5 579.6 49.5 573.8 49.5C567.9 49.5 563.9 53.9 563.9 61V88H553.3V39.9H563.9V47.8C566.9 43.7 570.9 39.9 578 39.9C584.6 39.9 589.3 43.1 591.7 48C595.4 43.1 600.3 39.9 607.3 39.9Z" fill="white"/>
<path d="M438.1 78.3V83.6C438.1 83.8 438 84 437.8 84.1L433.2 86.8C433 86.9 432.8 86.9 432.6 86.8L428 84.1C427.8 84 427.7 83.8 427.7 83.6V78.3C427.7 78.1 427.8 77.9 428 77.8L432.6 75.1C432.8 75 433 75 433.2 75.1L437.8 77.8C438 77.9 438.1 78.1 438.1 78.3Z" fill="white"/>
<path d="M470.3 87.9C456.6 87.6 446.7 76.7 446.9 63.5C447.1 50.3 457.5 39.5 471.3 39.8C480 40 485.4 43.3 489.6 48.1L482.9 55C479.7 51.5 476.4 49.1 471 49C463.3 48.9 457.6 55.4 457.4 63.5C457.2 71.8 462.8 78.5 470.9 78.7C475.9 78.8 479.6 76.5 483 73.2L489.3 79.6C484.6 84.6 479.3 88.1 470.3 87.9Z" fill="white"/>
</svg>
