<svg xmlns="http://www.w3.org/2000/svg" viewBox="0 0 506.95 83"><defs><style>.cls-1{fill:#337ffb;}</style></defs><title>Asset 1</title><g id="Layer_2" data-name="Layer 2"><g id="Isolation_Mode" data-name="Isolation Mode"><polygon class="cls-1" points="263.9 63.93 263.9 50.44 290.95 50.44 290.95 39.95 263.9 39.95 263.9 27.3 294.53 27.3 294.53 16.48 250.5 16.48 250.5 26.7 250.5 74.75 295.61 74.75 295.61 63.93 263.9 63.93"/><path class="cls-1" d="M423.18,74.75l-.08-35L406,68.59h-6.07L382.81,40.54V74.75H370.16V16.48h11.15l21.81,36.21L424.6,16.48h11.07l.17,58.27Z"/><path class="cls-1" d="M476.42,26.73a18.89,18.89,0,1,1-18.88,18.88,18.9,18.9,0,0,1,18.88-18.88m0-11.64A30.53,30.53,0,1,0,507,45.61a30.53,30.53,0,0,0-30.53-30.52Z"/><polygon class="cls-1" points="361.52 16.48 346.61 16.48 332.78 35.41 332.78 35.41 325.32 45.61 325.32 45.61 304.04 74.75 318.95 74.75 332.78 55.82 346.61 74.75 361.52 74.75 340.23 45.61 361.52 16.48"/><polygon class="cls-1" points="328.08 28.98 318.95 16.48 304.04 16.48 320.62 39.18 328.08 28.98"/><g id="Rectangle_5.1" data-name="Rectangle 5.1"><path class="cls-1" d="M114.35,16.42H38.45l-4.74-8.2L38.45,0h75.9l-4.74,8.21Z"/></g><g id="Rectangle_5.1-2" data-name="Rectangle 5.1"><path class="cls-1" d="M99.78,74.79,143,0h9.48l4.74,8.21L114,83l-4.74-8.21Z"/></g><g id="Rectangle_5.1-3" data-name="Rectangle 5.1"><path class="cls-1" d="M169.2,74.79,212.4,0h9.47l4.74,8.21L183.41,83l-4.74-8.21Z"/></g><g id="Rectangle_5.1-4" data-name="Rectangle 5.1"><path class="cls-1" d="M179.31,30l-25.85,44.8H144l-4.74-8.21,25.84-44.79L169.83,30Z"/></g><g id="Rectangle_5.1-5" data-name="Rectangle 5.1"><path class="cls-1" d="M80.64,74.79H4.74L0,66.58l4.74-8.21h75.9L75.9,66.59Z"/></g><g id="Rectangle_5.1-6" data-name="Rectangle 5.1"><path class="cls-1" d="M21.62,29.18H73.28L78,37.4l-4.74,8.2H21.62l4.74-8.21Z"/></g></g></g></svg>