<?xml version="1.0" encoding="UTF-8"?>
<svg width="216px" height="104px" viewBox="0 0 216 104" version="1.1" xmlns="http://www.w3.org/2000/svg" xmlns:xlink="http://www.w3.org/1999/xlink">
    <!-- Generator: Sketch 59 (86127) - https://sketch.com -->
    <title>Kyberswap-dark</title>
    <desc>Created with Sketch.</desc>
    <g id="Kyberswap" stroke="none" stroke-width="1" fill="none" fill-rule="evenodd">
        <g id="Logo" transform="translate(30.000000, 20.005995)" fill-rule="nonzero">
            <path d="M22.9155015,0.285798483 C23.2072948,0.441421583 27.6425532,3.78731824 32.7781155,7.71680152 C39.8200608,13.1247043 42.1933131,15.0505401 42.4462006,15.5563152 C42.7555643,16.1386468 42.792547,17.2316926 42.7960313,29.2507275 L42.7960313,34.542754 C42.792547,46.5617889 42.7555643,47.6548347 42.4462006,48.2371663 C42.1933131,48.7429413 39.8978723,50.6104185 33.1671733,55.7848866 C28.2455927,59.5587468 23.8297872,62.9046435 23.3629179,63.2158897 C22.1568389,64.0329109 20.6784195,64.0329109 19.4334347,63.2353426 C17.2352584,61.7958289 0.836474164,49.0152818 0.447416413,48.451148 L-3.55271368e-14,47.7897499 L0.000916209293,27.7173071 C0.00730401246,16.5045963 0.054821774,15.9642364 0.369604863,15.4395979 C0.700303951,14.894917 18.8303951,0.830479334 19.9781155,0.22743982 C20.5617021,-0.103259268 22.2930091,-0.0643534931 22.9155015,0.285798483 Z M16.3987842,34.6979565 C16.3598784,34.7368623 17.5659574,40.6505401 19.1027356,47.8286556 C21.106383,57.2049474 21.9428571,60.8620903 22.1179331,60.7842787 C22.2541033,60.745373 26.1641337,57.788534 30.8133739,54.2286556 C36.0072948,50.2602666 39.1975684,47.7119383 39.0419453,47.6341268 C38.9057751,47.5563152 33.7896657,44.5994763 27.6425532,41.0590508 C21.4954407,37.5186252 16.43769,34.6590508 16.3987842,34.6979565 Z M10.6601824,10.5569231 L2.52887538,16.7818471 L2.52887538,47.0310872 L10.6601824,53.2365584 C15.1148936,56.6602666 18.7914894,59.3642179 18.8303951,59.2475006 C18.849848,59.1307833 17.5659574,52.9253122 15.9708207,45.4748562 L13.0528875,31.8967407 L15.9708207,18.3380781 C17.5659574,10.8681693 18.849848,4.66269818 18.8303951,4.54598085 C18.7914894,4.42926353 15.1148936,7.1332149 10.6601824,10.5569231 Z M40.1702128,18.5715128 L28.6541033,25.1854945 C22.312462,28.8231845 17.1379395,31.8383821 17.1379395,31.8967407 C17.118541,31.9550994 22.312462,34.970297 28.6541033,38.6079869 L40.1702128,45.2219687 L40.2285714,38.5690812 C40.2480243,34.8924854 40.2480243,28.9009961 40.2285714,25.2244003 L40.1702128,18.5715128 Z M71.7617021,29.7569231 L72.7537994,32.3441571 L72.9413103,32.8122806 C73.438493,34.0596136 73.9015198,35.2642517 74.0571429,35.5927894 L74.3294833,36.2736404 L75.6522796,33.063914 L76.975076,29.8541875 L78.1617021,29.7958289 C79.3483283,29.7374702 79.3677812,29.7374702 79.1927052,30.1848866 C78.8425532,31.1186252 74.8741641,40.1253122 74.5240122,40.8061632 C73.6486322,42.5180173 72.0924012,43.2377742 70.0887538,42.8487164 C69.699696,42.7709049 69.6413374,42.6347347 69.6413374,41.7982605 L69.6413374,40.845069 L70.575076,40.845069 C71.6838906,40.845069 72.2285714,40.494917 72.7343465,39.5028198 L73.1039514,38.7830629 L71.3920973,34.6395979 C70.4389058,32.36361 69.6024316,30.3405097 69.5440729,30.126528 C69.4273556,29.7958289 69.5246201,29.7569231 70.5945289,29.7569231 L71.7617021,29.7569231 Z M150.97386,29.6596587 C152.549544,29.6596587 152.72462,29.6985644 153.502736,30.2432453 C154.767173,31.1380781 155.467477,32.3830629 155.584195,33.9976526 C155.739818,36.3709049 154.728267,38.2383821 152.821884,39.113762 C151.401824,39.7557073 149.2231,39.5028198 148.192097,38.5690812 C147.861398,38.2772878 147.841945,38.3550994 147.841945,40.5143699 L147.841945,42.7903578 L145.702128,42.7903578 L145.702128,29.7569231 L146.772036,29.7569231 C147.727389,29.7569231 147.832519,29.7742746 147.841251,30.1858906 L147.841945,30.7490204 L148.561702,30.2043395 C149.203647,29.6985644 149.417629,29.6596587 150.97386,29.6596587 Z M82.8693009,24.6991723 L82.8693009,27.6171055 C82.8693009,29.2316951 82.9082067,30.5350386 82.9665653,30.5350386 C83.024924,30.5350386 83.3556231,30.3405097 83.6668693,30.1070751 C84.1726444,29.7180173 84.5033435,29.6596587 85.9428571,29.6596587 C87.4601824,29.6596587 87.7130699,29.7180173 88.4328267,30.2043395 C89.4443769,30.8851906 89.9696049,31.6049474 90.3781155,32.8499322 C91.0200608,34.8341268 90.4559271,36.9739444 88.9191489,38.3745523 C87.7130699,39.463914 85.7094225,39.814066 84.231003,39.1721207 C83.8613982,39.0164976 83.3556231,38.6857985 83.1221884,38.4718167 L82.674772,38.0633061 L82.674772,38.6663456 C82.674772,39.2542551 82.6574205,39.2869167 81.852504,39.2887313 L80.7294833,39.288838 L80.7294833,24.6991723 L82.8693009,24.6991723 Z M128.661398,32.4608745 C129.400608,34.0754641 130.062006,35.3399018 130.139818,35.3009961 C130.217629,35.2620903 130.742857,33.9976526 131.326444,32.4997802 L132.3769,29.7569231 L134.789058,29.7569231 L134.26383,30.982455 C133.972036,31.6438532 133.038298,33.8225766 132.182371,35.826224 C130.159271,40.5727286 130.237082,40.5532757 128.350152,36.5654337 C127.591489,34.970297 126.910638,33.6475006 126.832827,33.6475006 C126.774468,33.6475006 126.11307,34.970297 125.37386,36.5654337 C124.206687,39.113762 123.973252,39.4833669 123.584195,39.4833669 C123.292401,39.4833669 123.058967,39.3277438 122.961702,39.0554033 C122.864438,38.8025158 121.950152,36.6821511 120.919149,34.3478046 C119.888146,31.9940052 119.051672,29.9903578 119.051672,29.9125462 C119.051672,29.8347347 119.557447,29.7569231 120.199392,29.7569231 L121.32766,29.7569231 L122.47538,32.5775918 C123.097872,34.1338228 123.642553,35.3982605 123.700912,35.3982605 C123.778723,35.3982605 124.381763,34.094917 125.082067,32.5192331 C126.210334,30.0292635 126.424316,29.6596587 126.85228,29.6013 C127.299696,29.5429413 127.435866,29.7569231 128.661398,32.4608745 Z M117.903951,28.0839748 C118.370821,28.6675614 118.370821,28.6286556 117.145289,29.5040356 C116.717325,29.7958289 116.678419,29.7958289 116.055927,29.1927894 C114.986018,28.1617863 113.527052,27.9867103 112.651672,28.8231845 C112.204255,29.2316951 112.126444,29.776376 112.457143,30.3794155 C112.57386,30.5933973 113.429787,31.1186252 114.344073,31.5660416 C116.717325,32.6554033 117.670517,33.3557073 118.09848,34.3088988 C118.584802,35.3788076 118.56535,36.2930933 118.040122,37.3435492 C117.106383,39.1915736 114.694225,39.9502362 112.184802,39.1721207 C111.212158,38.8608745 109.325228,37.2657377 109.325228,36.7405097 C109.325228,36.5848866 109.655927,36.2347347 110.064438,35.9623942 L110.784195,35.4566192 L111.620669,36.2930933 C112.924012,37.5964368 114.46079,37.8493243 115.647416,36.9350386 C116.289362,36.4098106 116.308815,35.4371663 115.705775,34.8730325 C115.452888,34.6395979 114.421884,34.0560112 113.410334,33.5502362 C110.706383,32.2079869 110.064438,31.4687772 110.064438,29.7569231 C110.064438,26.0608745 115.413982,24.9131541 117.903951,28.0839748 Z M141.169605,29.776376 C141.94772,30.0681693 142.589666,30.7101146 142.998176,31.6049474 C143.29869,32.2435388 143.363456,32.8458612 143.367565,35.5480267 L143.367781,39.288838 L142.297872,39.288838 C141.383587,39.288838 141.227964,39.2304793 141.227964,38.9192331 C141.227964,38.588534 141.169605,38.588534 140.313678,39.0164976 C139.204863,39.5806313 137.76535,39.6195371 136.656535,39.113762 C135.586626,38.6274398 135.119757,37.8882301 135.119757,36.6237924 C135.119757,35.8067711 135.217021,35.5149778 135.586626,35.0870143 C136.4231,34.2116343 137.103951,33.9781997 139.243769,33.8809353 C140.780547,33.8031237 141.227964,33.7253122 141.227964,33.5113304 C141.227964,32.9666495 140.66383,31.9161936 140.235866,31.7022119 C139.535562,31.3131541 138.193313,31.5854945 137.337386,32.2663456 L136.559271,32.888838 L135.975684,32.2468927 C135.664438,31.8967407 135.392097,31.5465888 135.392097,31.4687772 C135.392097,31.1769839 137.006687,29.9903578 137.706991,29.7958289 C138.640729,29.5040356 140.449848,29.5040356 141.169605,29.776376 Z M96.8559271,29.5623942 C98.4316109,29.5623942 99.6182371,30.0876222 100.3769,31.157531 C101.018845,32.0134581 101.446809,33.744765 101.25228,34.620145 L101.116109,35.2037316 L94.1714286,35.2037316 L94.3854103,35.7873182 C94.8522796,37.1490204 96.7586626,37.8493243 98.3148936,37.2657377 C98.8012158,37.0906617 99.287538,36.7988684 99.4042553,36.6432453 C99.7544073,36.2347347 99.8905775,36.2930933 100.435258,37.1295675 L100.941033,37.8882301 L100.51307,38.2772878 C99.7155015,38.9970447 98.7428571,39.3471967 97.3617021,39.4055553 C96.6224924,39.4444611 95.7860182,39.4055553 95.5136778,39.3082909 C94.0547112,38.8414216 92.8291793,37.7520599 92.3039514,36.4876222 C92.1288754,36.0791116 91.9927052,35.2037316 91.9927052,34.5228805 C91.9927052,31.5660416 93.9574468,29.5623942 96.8559271,29.5623942 Z M61.4516717,26.4499322 L61.5100304,29.2706009 L61.5683891,32.0912696 L64.0778116,29.2706009 L66.587234,26.4499322 L67.9100304,26.4499322 C68.6492401,26.4499322 69.2522796,26.488838 69.2522796,26.5471967 C69.2522796,26.6250082 68.1240122,27.9283517 66.7234043,29.5040356 C65.3422492,31.0602666 64.1945289,32.3830629 64.1945289,32.4608745 C64.1945289,32.538686 65.4589666,34.0754641 67.0151976,35.8651298 C68.5714286,37.6547954 69.8358663,39.1526678 69.8358663,39.2110264 C69.8358663,39.2471532 69.3158985,39.28328 68.6497647,39.2882567 L67.1513678,39.288838 L64.350152,36.0791116 L61.5683891,32.8693851 L61.5100304,36.0791116 L61.4711246,39.288838 L59.1367781,39.288838 L59.1367781,26.4499322 L61.4516717,26.4499322 Z M108.644377,29.6596587 L108.702736,30.6906617 L108.761094,31.7022119 L108.06079,31.7022119 C107.088146,31.7022119 106.17386,32.1301754 105.726444,32.7915736 C105.395745,33.2778957 105.337386,33.7836708 105.279027,36.3319991 L105.201216,39.288838 L103.100304,39.288838 L103.100304,29.7569231 L104.170213,29.7569231 C105.123404,29.7569231 105.240122,29.7958289 105.240122,30.1654337 L105.240122,30.5739444 L105.940426,30.1459809 C106.387842,29.8541875 106.971429,29.6985644 107.632827,29.6791116 L108.644377,29.6596587 Z M139.730091,35.5927894 C138.018237,35.5927894 137.337386,35.9040356 137.337386,36.6626982 C137.337386,37.8493243 139.418845,38.082759 140.449848,37.032303 C140.741641,36.7210568 141.052888,36.2736404 141.130699,36.0402058 C141.247416,35.6122423 141.227964,35.5927894 139.730091,35.5927894 Z M148.036474,35.3788076 C148.522796,37.1879261 150.623708,38.0049474 152.121581,36.9544915 C152.899696,36.4098106 153.32766,35.5149778 153.32766,34.3867103 C153.308207,33.2584429 152.958055,32.6554033 151.927052,31.9550994 C149.884498,30.5544915 147.33617,32.7915736 148.036474,35.3788076 Z M84.7367781,31.7022119 C83.2389058,32.188534 82.5191489,34.0171055 83.1416413,35.6900538 C83.5306991,36.6626982 83.7641337,36.8961328 84.756231,37.2462848 C85.5732523,37.5380781 86.1762918,37.4602666 87.0516717,36.9739444 C87.7908815,36.5654337 88.3161094,35.5344307 88.3161094,34.4645219 C88.3161094,32.4608745 86.5653495,31.0991723 84.7367781,31.7022119 Z M94.8522796,32.3052514 C94.0085801,33.3140225 94.064128,33.4408395 96.2581061,33.4520389 L97.1138331,33.4525793 C98.9308863,33.4485306 99.0151976,33.4066873 99.0151976,33.0444611 C99.0151976,32.5192331 98.0231003,31.5854945 97.3033435,31.4493243 C96.4474164,31.2742483 95.3969605,31.6438532 94.8522796,32.3052514 Z M21.9817629,3.04810851 C21.8650456,3.18427873 16.3404255,28.6286556 16.3404255,29.0371663 C16.3404255,29.2706009 15.56231,29.6985644 27.9732523,22.5593547 C34.1787234,18.9800234 39.2559271,16.0426374 39.2365299,16.0231845 C38.4389058,15.245069 22.0790274,2.95084408 21.9817629,3.04810851 Z" id="Text" fill="#FFFFFF"></path>
            <path d="M19.4334347,63.2353426 C17.2352584,61.7958289 0.836474164,49.0152818 0.447416413,48.451148 L2.13162821e-14,47.7897499 L2.13162821e-14,31.9161936 C2.13162821e-14,16.626224 0.0194528875,16.0231845 0.369604863,15.4395979 C0.700303951,14.894917 18.8303951,0.830479334 19.9781155,0.22743982 C20.5617021,-0.103259268 22.2930091,-0.0643534931 22.9155015,0.285798483 C23.2072948,0.441421583 27.6425532,3.78731824 32.7781155,7.71680152 C39.8200608,13.1247043 42.1933131,15.0505401 42.4462006,15.5563152 C42.7768997,16.1788076 42.7963526,17.3848866 42.7963526,31.8967407 C42.7963526,46.4085948 42.7768997,47.6146739 42.4462006,48.2371663 C42.1933131,48.7429413 39.8978723,50.6104185 33.1671733,55.7848866 C28.2455927,59.5587468 23.8297872,62.9046435 23.3629179,63.2158897 C22.1568389,64.0329109 20.6784195,64.0329109 19.4334347,63.2353426 Z M30.8133739,54.2286556 C36.0072948,50.2602666 39.1975684,47.7119383 39.0419453,47.6341268 C38.9057751,47.5563152 33.7896657,44.5994763 27.6425532,41.0590508 C21.4954407,37.5186252 16.43769,34.6590508 16.3987842,34.6979565 C16.3598784,34.7368623 17.5659574,40.6505401 19.1027356,47.8286556 C21.106383,57.2049474 21.9428571,60.8620903 22.1179331,60.7842787 C22.2541033,60.745373 26.1641337,57.788534 30.8133739,54.2286556 Z M15.9708207,45.4748562 L13.0528875,31.8967407 L15.9708207,18.3380781 C17.5659574,10.8681693 18.849848,4.66269818 18.8303951,4.54598085 C18.7914894,4.42926353 15.1148936,7.1332149 10.6601824,10.5569231 L2.52887538,16.7818471 L2.52887538,31.8967407 L2.52887538,47.0310872 L10.6601824,53.2365584 C15.1148936,56.6602666 18.7914894,59.3642179 18.8303951,59.2475006 C18.849848,59.1307833 17.5659574,52.9253122 15.9708207,45.4748562 Z M40.2285714,25.2244003 L40.1702128,18.5715128 L28.6541033,25.1854945 C22.312462,28.8231845 17.1379395,31.8383821 17.1379395,31.8967407 C17.118541,31.9550994 22.312462,34.970297 28.6541033,38.6079869 L40.1702128,45.2219687 L40.2285714,38.5690812 C40.2480243,34.8924854 40.2480243,28.9009961 40.2285714,25.2244003 Z M27.9732523,22.5593547 C34.1787234,18.9800234 39.2559271,16.0426374 39.2365299,16.0231845 C38.4389058,15.245069 22.0790274,2.95084408 21.9817629,3.04810851 C21.8650456,3.18427873 16.3404255,28.6286556 16.3404255,29.0371663 C16.3404255,29.2706009 15.56231,29.6985644 27.9732523,22.5593547 Z" fill="#EF8102"></path>
        </g>
    </g>
</svg>