<?xml version="1.0" encoding="UTF-8"?>
<svg width="800px" height="329px" viewBox="0 0 800 329" version="1.1" xmlns="http://www.w3.org/2000/svg" xmlns:xlink="http://www.w3.org/1999/xlink">
    <!-- Generator: Sketch 52.5 (67469) - http://www.bohemiancoding.com/sketch -->
    <title>kyberswap</title>
    <desc>Created with Sketch.</desc>
    <g id="Page-1" stroke="none" stroke-width="1" fill="none" fill-rule="evenodd">
        <g id="kyberswap">
            <g id="layer101" fill="#141927">
                <path d="M99.9,325.1 C88.6,317.7 4.3,252 2.3,249.1 L0,245.7 L0,164.1 C0,85.5 0.1,82.4 1.9,79.4 C3.6,76.6 96.8,4.3 102.7,1.2 C105.7,-0.5 114.6,-0.3 117.8,1.5 C119.3,2.3 142.1,19.5 168.5,39.7 C204.7,67.5 216.9,77.4 218.2,80 C219.9,83.2 220,89.4 220,164 C220,238.6 219.9,244.8 218.2,248 C216.9,250.6 205.1,260.2 170.5,286.8 C145.2,306.2 122.5,323.4 120.1,325 C113.9,329.2 106.3,329.2 99.9,325.1 Z M158.4,278.8 C185.1,258.4 201.5,245.3 200.7,244.9 C200,244.5 173.7,229.3 142.1,211.1 C110.5,192.9 84.5,178.2 84.3,178.4 C84.1,178.6 90.3,209 98.2,245.9 C108.5,294.1 112.8,312.9 113.7,312.5 C114.4,312.3 134.5,297.1 158.4,278.8 Z M82.1,233.8 L67.1,164 L82.1,94.3 C90.3,55.9 96.9,24 96.8,23.4 C96.6,22.8 77.7,36.7 54.8,54.3 L13,86.3 L13,164 L13,241.8 L54.8,273.7 C77.7,291.3 96.6,305.2 96.8,304.6 C96.9,304 90.3,272.1 82.1,233.8 Z M206.8,129.7 L206.5,95.5 L147.3,129.5 C114.7,148.2 88.1,163.7 88.1,164 C88,164.3 114.7,179.8 147.3,198.5 L206.5,232.5 L206.8,198.3 C206.9,179.4 206.9,148.6 206.8,129.7 Z M143.8,116 C175.7,97.6 201.8,82.5 201.7,82.4 C197.6,78.4 113.5,15.2 113,15.7 C112.4,16.4 84,147.2 84,149.3 C84,150.5 80,152.7 143.8,116 Z" id="Shape" fill-rule="nonzero"></path>
                <path d="M360.3,220.3 C358.3,219.9 358,219.2 358,214.9 L358,210 L362.8,210 C368.5,210 371.3,208.2 373.9,203.1 L375.8,199.4 L367,178.1 C362.1,166.4 357.8,156 357.5,154.9 C356.9,153.2 357.4,153 362.9,153 L368.9,153 L374,166.3 C376.9,173.5 379.8,181.1 380.7,183 L382.1,186.5 L388.9,170 L395.7,153.5 L401.8,153.2 C407.9,152.9 408,152.9 407.1,155.2 C405.3,160 384.9,206.3 383.1,209.8 C378.6,218.6 370.6,222.3 360.3,220.3 Z" id="Path"></path>
                <path d="M749,186.5 L749,153 L754.5,153 C759.7,153 760,153.1 760,155.6 L760,158.1 L763.7,155.3 C767,152.7 768.1,152.5 776.1,152.5 C784.2,152.5 785.1,152.7 789.1,155.5 C795.6,160.1 799.2,166.5 799.8,174.8 C800.6,187 795.4,196.6 785.6,201.1 C778.3,204.4 767.1,203.1 761.8,198.3 C760.1,196.8 760,197.2 760,208.3 L760,220 L754.5,220 L749,220 L749,186.5 Z M782,190 C786,187.2 788.2,182.6 788.2,176.8 C788.1,171 786.3,167.9 781,164.3 C770.5,157.1 757.4,168.6 761,181.9 C763.5,191.2 774.3,195.4 782,190 Z" id="Shape" fill-rule="nonzero"></path>
                <path d="M433,201.4 C431.1,200.6 428.5,198.9 427.3,197.8 L425,195.7 L425,198.8 C425,202 424.9,202 420,202 L415,202 L415,164.5 L415,127 L420.5,127 L426,127 L426,142 C426,150.3 426.2,157 426.5,157 C426.8,157 428.5,156 430.1,154.8 C432.7,152.8 434.4,152.5 441.8,152.5 C449.6,152.5 450.9,152.8 454.6,155.3 C459.8,158.8 462.5,162.5 464.6,168.9 C467.9,179.1 465,190.1 457.1,197.3 C450.9,202.9 440.6,204.7 433,201.4 Z M447.5,190.1 C451.3,188 454,182.7 454,177.2 C454,166.9 445,159.9 435.6,163 C427.9,165.5 424.2,174.9 427.4,183.5 C429.4,188.5 430.6,189.7 435.7,191.5 C439.9,193 443,192.6 447.5,190.1 Z" id="Shape" fill-rule="nonzero"></path>
                <path d="M491,202.1 C483.5,199.7 477.2,194.1 474.5,187.6 C473.6,185.5 472.9,181 472.9,177.5 C472.9,162.3 483,152 497.9,152 C506,152 512.1,154.7 516,160.2 C519.3,164.6 521.5,173.5 520.5,178 L519.8,181 L502,181 L484.1,181 L485.2,184 C487.6,191 497.4,194.6 505.4,191.6 C507.9,190.7 510.4,189.2 511,188.4 C512.8,186.3 513.5,186.6 516.3,190.9 L518.9,194.8 L516.7,196.8 C512.6,200.5 507.6,202.3 500.5,202.6 C496.7,202.8 492.4,202.6 491,202.1 Z M509,169.9 C509,167.2 503.9,162.4 500.2,161.7 C495.8,160.8 490.4,162.7 487.6,166.1 C483,171.6 483.6,172 497,172 C508.5,172 509,171.9 509,169.9 Z" id="Shape" fill-rule="nonzero"></path>
                <path d="M576.7,201.4 C571.7,199.8 562,191.6 562,188.9 C562,188.1 563.7,186.3 565.8,184.9 L569.5,182.3 L573.8,186.6 C580.5,193.3 588.4,194.6 594.5,189.9 C597.8,187.2 597.9,182.2 594.8,179.3 C593.5,178.1 588.2,175.1 583,172.5 C569.1,165.6 565.8,161.8 565.8,153 C565.8,134 593.3,128.1 606.1,144.4 C608.5,147.4 608.5,147.2 602.2,151.7 C600,153.2 599.8,153.2 596.6,150.1 C591.1,144.8 583.6,143.9 579.1,148.2 C576.8,150.3 576.4,153.1 578.1,156.2 C578.7,157.3 583.1,160 587.8,162.3 C600,167.9 604.9,171.5 607.1,176.4 C609.6,181.9 609.5,186.6 606.8,192 C602,201.5 589.6,205.4 576.7,201.4 Z" id="Path"></path>
                <path d="M632.1,200.8 C631.6,199.5 626.9,188.6 621.6,176.6 C616.3,164.5 612,154.2 612,153.8 C612,153.4 614.6,153 617.9,153 L623.7,153 L629.6,167.5 C632.8,175.5 635.6,182 635.9,182 C636.3,182 639.4,175.3 643,167.2 C648.8,154.4 649.9,152.5 652.1,152.2 C654.4,151.9 655.1,153 661.4,166.9 C665.2,175.2 668.6,181.7 669,181.5 C669.4,181.3 672.1,174.8 675.1,167.1 L680.5,153 L686.7,153 L692.9,153 L690.2,159.3 C688.7,162.7 683.9,173.9 679.5,184.2 C669.1,208.6 669.5,208.5 659.8,188 C655.9,179.8 652.4,173 652,173 C651.7,173 648.3,179.8 644.5,188 C638.5,201.1 637.3,203 635.3,203 C633.8,203 632.6,202.2 632.1,200.8 Z" id="Path"></path>
                <path d="M702.5,201.1 C697,198.6 694.6,194.8 694.6,188.3 C694.6,184.1 695.1,182.6 697,180.4 C701.3,175.9 704.8,174.7 715.8,174.2 C723.7,173.8 726,173.4 726,172.3 C726,169.5 723.1,164.1 720.9,163 C717.3,161 710.4,162.4 706,165.9 L702,169.1 L699,165.8 C697.4,164 696,162.2 696,161.8 C696,160.3 704.3,154.2 707.9,153.2 C712.7,151.7 722,151.7 725.7,153.1 C729.7,154.6 733,157.9 735.1,162.5 C736.7,165.9 737,169.1 737,184.3 L737,202 L731.5,202 C726.8,202 726,201.7 726,200.1 C726,198.4 725.7,198.4 721.3,200.6 C715.6,203.5 708.2,203.7 702.5,201.1 Z M722,190.4 C723.5,188.8 725.1,186.5 725.5,185.3 C726.1,183.1 726,183 718.3,183 C709.5,183 706,184.6 706,188.5 C706,194.6 716.7,195.8 722,190.4 Z" id="Shape" fill-rule="nonzero"></path>
                <path d="M304,169 L304,136 L310,136 L315.9,136 L316.2,150.5 L316.5,165 L329.4,150.5 L342.3,136 L349.1,136 C352.9,136 356,136.2 356,136.5 C356,136.9 350.2,143.6 343,151.7 C335.9,159.7 330,166.5 330,166.9 C330,167.3 336.5,175.2 344.5,184.4 C352.5,193.6 359,201.3 359,201.6 C359,201.8 355.9,202 352.1,202 L345.2,202 L330.8,185.5 L316.5,169 L316.2,185.5 L316,202 L310,202 L304,202 L304,169 Z" id="Path"></path>
                <path d="M530,177.5 L530,153 L535.5,153 C540.4,153 541,153.2 541,155.1 L541,157.2 L544.6,155 C546.9,153.5 549.9,152.7 553.3,152.6 L558.5,152.5 L558.8,157.8 L559.1,163 L555.5,163 C550.5,163 545.8,165.2 543.5,168.6 C541.8,171.1 541.5,173.7 541.2,186.8 L540.8,202 L535.4,202 L530,202 L530,177.5 Z" id="Path"></path>
            </g>
            <g id="layer102" fill="#EF8102" fill-rule="nonzero">
                <path d="M99.9,325.1 C88.6,317.7 4.3,252 2.3,249.1 L0,245.7 L0,164.1 C0,85.5 0.1,82.4 1.9,79.4 C3.6,76.6 96.8,4.3 102.7,1.2 C105.7,-0.5 114.6,-0.3 117.8,1.5 C119.3,2.3 142.1,19.5 168.5,39.7 C204.7,67.5 216.9,77.4 218.2,80 C219.9,83.2 220,89.4 220,164 C220,238.6 219.9,244.8 218.2,248 C216.9,250.6 205.1,260.2 170.5,286.8 C145.2,306.2 122.5,323.4 120.1,325 C113.9,329.2 106.3,329.2 99.9,325.1 Z M158.4,278.8 C185.1,258.4 201.5,245.3 200.7,244.9 C200,244.5 173.7,229.3 142.1,211.1 C110.5,192.9 84.5,178.2 84.3,178.4 C84.1,178.6 90.3,209 98.2,245.9 C108.5,294.1 112.8,312.9 113.7,312.5 C114.4,312.3 134.5,297.1 158.4,278.8 Z M82.1,233.8 L67.1,164 L82.1,94.3 C90.3,55.9 96.9,24 96.8,23.4 C96.6,22.8 77.7,36.7 54.8,54.3 L13,86.3 L13,164 L13,241.8 L54.8,273.7 C77.7,291.3 96.6,305.2 96.8,304.6 C96.9,304 90.3,272.1 82.1,233.8 Z M206.8,129.7 L206.5,95.5 L147.3,129.5 C114.7,148.2 88.1,163.7 88.1,164 C88,164.3 114.7,179.8 147.3,198.5 L206.5,232.5 L206.8,198.3 C206.9,179.4 206.9,148.6 206.8,129.7 Z M143.8,116 C175.7,97.6 201.8,82.5 201.7,82.4 C197.6,78.4 113.5,15.2 113,15.7 C112.4,16.4 84,147.2 84,149.3 C84,150.5 80,152.7 143.8,116 Z" id="Shape"></path>
            </g>
        </g>
    </g>
</svg>