<?xml version="1.0" encoding="UTF-8"?>
<svg width="216px" height="104px" viewBox="0 0 216 104" version="1.1" xmlns="http://www.w3.org/2000/svg" xmlns:xlink="http://www.w3.org/1999/xlink">
    <!-- Generator: Sketch 59 (86127) - https://sketch.com -->
    <title>Kyberswap</title>
    <desc>Created with Sketch.</desc>
    <g id="Kyberswap" stroke="none" stroke-width="1" fill="none" fill-rule="evenodd">
        <g id="Logo" transform="translate(30.000000, 20.000000)" fill-rule="nonzero">
            <g id="layer101" fill="#141927">
                <path d="M19.4334347,63.2413374 C17.2352584,61.8018237 0.836474164,49.0212766 0.447416413,48.4571429 L0,47.7957447 L0,31.9221884 C0,16.6322188 0.0194528875,16.0291793 0.369604863,15.4455927 C0.700303951,14.9009119 18.8303951,0.836474164 19.9781155,0.23343465 C20.5617021,-0.0972644377 22.2930091,-0.0583586626 22.9155015,0.291793313 C23.2072948,0.447416413 27.6425532,3.79331307 32.7781155,7.72279635 C39.8200608,13.1306991 42.1933131,15.056535 42.4462006,15.56231 C42.7768997,16.1848024 42.7963526,17.3908815 42.7963526,31.9027356 C42.7963526,46.4145897 42.7768997,47.6206687 42.4462006,48.2431611 C42.1933131,48.7489362 39.8978723,50.6164134 33.1671733,55.7908815 C28.2455927,59.5647416 23.8297872,62.9106383 23.3629179,63.2218845 C22.1568389,64.0389058 20.6784195,64.0389058 19.4334347,63.2413374 Z M30.8133739,54.2346505 C36.0072948,50.2662614 39.1975684,47.7179331 39.0419453,47.6401216 C38.9057751,47.56231 33.7896657,44.6054711 27.6425532,41.0650456 C21.4954407,37.5246201 16.43769,34.6650456 16.3987842,34.7039514 C16.3598784,34.7428571 17.5659574,40.656535 19.1027356,47.8346505 C21.106383,57.2109422 21.9428571,60.8680851 22.1179331,60.7902736 C22.2541033,60.7513678 26.1641337,57.7945289 30.8133739,54.2346505 Z M15.9708207,45.4808511 L13.0528875,31.9027356 L15.9708207,18.3440729 C17.5659574,10.8741641 18.849848,4.66869301 18.8303951,4.55197568 C18.7914894,4.43525836 15.1148936,7.13920973 10.6601824,10.5629179 L2.52887538,16.7878419 L2.52887538,31.9027356 L2.52887538,47.0370821 L10.6601824,53.2425532 C15.1148936,56.6662614 18.7914894,59.3702128 18.8303951,59.2534954 C18.849848,59.1367781 17.5659574,52.931307 15.9708207,45.4808511 Z M40.2285714,25.2303951 L40.1702128,18.5775076 L28.6541033,25.1914894 C22.312462,28.8291793 17.1379395,31.8443769 17.1379395,31.9027356 C17.118541,31.9610942 22.312462,34.9762918 28.6541033,38.6139818 L40.1702128,45.2279635 L40.2285714,38.575076 C40.2480243,34.8984802 40.2480243,28.9069909 40.2285714,25.2303951 Z M27.9732523,22.5653495 C34.1787234,18.9860182 39.2559271,16.0486322 39.2365299,16.0291793 C38.4389058,15.2510638 22.0790274,2.95683891 21.9817629,3.05410334 C21.8650456,3.19027356 16.3404255,28.6346505 16.3404255,29.0431611 C16.3404255,29.2765957 15.56231,29.7045593 27.9732523,22.5653495 Z" id="Shape"></path>
                <path d="M70.0887538,42.8547112 C69.699696,42.7768997 69.6413374,42.6407295 69.6413374,41.8042553 L69.6413374,40.8510638 L70.575076,40.8510638 C71.6838906,40.8510638 72.2285714,40.5009119 72.7343465,39.5088146 L73.1039514,38.7890578 L71.3920973,34.6455927 C70.4389058,32.3696049 69.6024316,30.3465046 69.5440729,30.1325228 C69.4273556,29.8018237 69.5246201,29.7629179 70.5945289,29.7629179 L71.7617021,29.7629179 L72.7537994,32.350152 C73.3179331,33.7507599 73.8820669,35.2291793 74.0571429,35.5987842 L74.3294833,36.2796353 L75.6522796,33.0699088 L76.975076,29.8601824 L78.1617021,29.8018237 C79.3483283,29.743465 79.3677812,29.743465 79.1927052,30.1908815 C78.8425532,31.1246201 74.8741641,40.131307 74.5240122,40.8121581 C73.6486322,42.5240122 72.0924012,43.243769 70.0887538,42.8547112 Z" id="Path"></path>
                <path d="M145.702128,36.2796353 L145.702128,29.7629179 L146.772036,29.7629179 C147.783587,29.7629179 147.841945,29.7823708 147.841945,30.268693 L147.841945,30.7550152 L148.561702,30.2103343 C149.203647,29.7045593 149.417629,29.6656535 150.97386,29.6656535 C152.549544,29.6656535 152.72462,29.7045593 153.502736,30.2492401 C154.767173,31.1440729 155.467477,32.3890578 155.584195,34.0036474 C155.739818,36.3768997 154.728267,38.2443769 152.821884,39.1197568 C151.401824,39.7617021 149.2231,39.5088146 148.192097,38.575076 C147.861398,38.2832827 147.841945,38.3610942 147.841945,40.5203647 L147.841945,42.7963526 L146.772036,42.7963526 L145.702128,42.7963526 L145.702128,36.2796353 Z M152.121581,36.9604863 C152.899696,36.4158055 153.32766,35.5209726 153.32766,34.3927052 C153.308207,33.2644377 152.958055,32.6613982 151.927052,31.9610942 C149.884498,30.5604863 147.33617,32.7975684 148.036474,35.3848024 C148.522796,37.193921 150.623708,38.0109422 152.121581,36.9604863 Z" id="Shape"></path>
                <path d="M84.231003,39.1781155 C83.8613982,39.0224924 83.3556231,38.6917933 83.1221884,38.4778116 L82.674772,38.0693009 L82.674772,38.6723404 C82.674772,39.2948328 82.6553191,39.2948328 81.7021277,39.2948328 L80.7294833,39.2948328 L80.7294833,32 L80.7294833,24.7051672 L81.7993921,24.7051672 L82.8693009,24.7051672 L82.8693009,27.6231003 C82.8693009,29.23769 82.9082067,30.5410334 82.9665653,30.5410334 C83.024924,30.5410334 83.3556231,30.3465046 83.6668693,30.1130699 C84.1726444,29.7240122 84.5033435,29.6656535 85.9428571,29.6656535 C87.4601824,29.6656535 87.7130699,29.7240122 88.4328267,30.2103343 C89.4443769,30.8911854 89.9696049,31.6109422 90.3781155,32.8559271 C91.0200608,34.8401216 90.4559271,36.9799392 88.9191489,38.3805471 C87.7130699,39.4699088 85.7094225,39.8200608 84.231003,39.1781155 Z M87.0516717,36.9799392 C87.7908815,36.5714286 88.3161094,35.5404255 88.3161094,34.4705167 C88.3161094,32.4668693 86.5653495,31.1051672 84.7367781,31.7082067 C83.2389058,32.1945289 82.5191489,34.0231003 83.1416413,35.6960486 C83.5306991,36.668693 83.7641337,36.9021277 84.756231,37.2522796 C85.5732523,37.5440729 86.1762918,37.4662614 87.0516717,36.9799392 Z" id="Shape"></path>
                <path d="M95.5136778,39.3142857 C94.0547112,38.8474164 92.8291793,37.7580547 92.3039514,36.493617 C92.1288754,36.0851064 91.9927052,35.2097264 91.9927052,34.5288754 C91.9927052,31.5720365 93.9574468,29.5683891 96.8559271,29.5683891 C98.4316109,29.5683891 99.6182371,30.093617 100.3769,31.1635258 C101.018845,32.0194529 101.446809,33.7507599 101.25228,34.6261398 L101.116109,35.2097264 L97.6534954,35.2097264 L94.1714286,35.2097264 L94.3854103,35.7933131 C94.8522796,37.1550152 96.7586626,37.8553191 98.3148936,37.2717325 C98.8012158,37.0966565 99.287538,36.8048632 99.4042553,36.6492401 C99.7544073,36.2407295 99.8905775,36.2990881 100.435258,37.1355623 L100.941033,37.8942249 L100.51307,38.2832827 C99.7155015,39.0030395 98.7428571,39.3531915 97.3617021,39.4115502 C96.6224924,39.4504559 95.7860182,39.4115502 95.5136778,39.3142857 Z M99.0151976,33.0504559 C99.0151976,32.525228 98.0231003,31.5914894 97.3033435,31.4553191 C96.4474164,31.2802432 95.3969605,31.649848 94.8522796,32.3112462 C93.9574468,33.381155 94.0741641,33.4589666 96.6808511,33.4589666 C98.9179331,33.4589666 99.0151976,33.4395137 99.0151976,33.0504559 Z" id="Shape"></path>
                <path d="M112.184802,39.1781155 C111.212158,38.8668693 109.325228,37.2717325 109.325228,36.7465046 C109.325228,36.5908815 109.655927,36.2407295 110.064438,35.9683891 L110.784195,35.462614 L111.620669,36.2990881 C112.924012,37.6024316 114.46079,37.8553191 115.647416,36.9410334 C116.289362,36.4158055 116.308815,35.4431611 115.705775,34.8790274 C115.452888,34.6455927 114.421884,34.0620061 113.410334,33.556231 C110.706383,32.2139818 110.064438,31.474772 110.064438,29.7629179 C110.064438,26.0668693 115.413982,24.9191489 117.903951,28.0899696 C118.370821,28.6735562 118.370821,28.6346505 117.145289,29.5100304 C116.717325,29.8018237 116.678419,29.8018237 116.055927,29.1987842 C114.986018,28.1677812 113.527052,27.9927052 112.651672,28.8291793 C112.204255,29.23769 112.126444,29.7823708 112.457143,30.3854103 C112.57386,30.5993921 113.429787,31.1246201 114.344073,31.5720365 C116.717325,32.6613982 117.670517,33.3617021 118.09848,34.3148936 C118.584802,35.3848024 118.56535,36.2990881 118.040122,37.3495441 C117.106383,39.1975684 114.694225,39.956231 112.184802,39.1781155 Z" id="Path"></path>
                <path d="M122.961702,39.0613982 C122.864438,38.8085106 121.950152,36.6881459 120.919149,34.3537994 C119.888146,32 119.051672,29.9963526 119.051672,29.918541 C119.051672,29.8407295 119.557447,29.7629179 120.199392,29.7629179 L121.32766,29.7629179 L122.47538,32.5835866 C123.097872,34.1398176 123.642553,35.4042553 123.700912,35.4042553 C123.778723,35.4042553 124.381763,34.1009119 125.082067,32.525228 C126.210334,30.0352584 126.424316,29.6656535 126.85228,29.6072948 C127.299696,29.5489362 127.435866,29.7629179 128.661398,32.4668693 C129.400608,34.081459 130.062006,35.3458967 130.139818,35.3069909 C130.217629,35.2680851 130.742857,34.0036474 131.326444,32.5057751 L132.3769,29.7629179 L133.582979,29.7629179 L134.789058,29.7629179 L134.26383,30.9884498 C133.972036,31.649848 133.038298,33.8285714 132.182371,35.8322188 C130.159271,40.5787234 130.237082,40.5592705 128.350152,36.5714286 C127.591489,34.9762918 126.910638,33.6534954 126.832827,33.6534954 C126.774468,33.6534954 126.11307,34.9762918 125.37386,36.5714286 C124.206687,39.1197568 123.973252,39.4893617 123.584195,39.4893617 C123.292401,39.4893617 123.058967,39.3337386 122.961702,39.0613982 Z" id="Path"></path>
                <path d="M136.656535,39.1197568 C135.586626,38.6334347 135.119757,37.8942249 135.119757,36.6297872 C135.119757,35.812766 135.217021,35.5209726 135.586626,35.0930091 C136.4231,34.2176292 137.103951,33.9841945 139.243769,33.8869301 C140.780547,33.8091185 141.227964,33.731307 141.227964,33.5173252 C141.227964,32.9726444 140.66383,31.9221884 140.235866,31.7082067 C139.535562,31.3191489 138.193313,31.5914894 137.337386,32.2723404 L136.559271,32.8948328 L135.975684,32.2528875 C135.664438,31.9027356 135.392097,31.5525836 135.392097,31.474772 C135.392097,31.1829787 137.006687,29.9963526 137.706991,29.8018237 C138.640729,29.5100304 140.449848,29.5100304 141.169605,29.7823708 C141.94772,30.0741641 142.589666,30.7161094 142.998176,31.6109422 C143.309422,32.2723404 143.367781,32.8948328 143.367781,35.8516717 L143.367781,39.2948328 L142.297872,39.2948328 C141.383587,39.2948328 141.227964,39.2364742 141.227964,38.925228 C141.227964,38.5945289 141.169605,38.5945289 140.313678,39.0224924 C139.204863,39.5866261 137.76535,39.6255319 136.656535,39.1197568 Z M140.449848,37.0382979 C140.741641,36.7270517 141.052888,36.2796353 141.130699,36.0462006 C141.247416,35.6182371 141.227964,35.5987842 139.730091,35.5987842 C138.018237,35.5987842 137.337386,35.9100304 137.337386,36.668693 C137.337386,37.8553191 139.418845,38.0887538 140.449848,37.0382979 Z" id="Shape"></path>
                <path d="M59.1367781,32.8753799 L59.1367781,26.4559271 L60.3039514,26.4559271 L61.4516717,26.4559271 L61.5100304,29.2765957 L61.5683891,32.0972644 L64.0778116,29.2765957 L66.587234,26.4559271 L67.9100304,26.4559271 C68.6492401,26.4559271 69.2522796,26.4948328 69.2522796,26.5531915 C69.2522796,26.631003 68.1240122,27.9343465 66.7234043,29.5100304 C65.3422492,31.0662614 64.1945289,32.3890578 64.1945289,32.4668693 C64.1945289,32.5446809 65.4589666,34.081459 67.0151976,35.8711246 C68.5714286,37.6607903 69.8358663,39.1586626 69.8358663,39.2170213 C69.8358663,39.2559271 69.2328267,39.2948328 68.493617,39.2948328 L67.1513678,39.2948328 L64.350152,36.0851064 L61.5683891,32.8753799 L61.5100304,36.0851064 L61.4711246,39.2948328 L60.3039514,39.2948328 L59.1367781,39.2948328 L59.1367781,32.8753799 Z" id="Path"></path>
                <path d="M103.100304,34.5288754 L103.100304,29.7629179 L104.170213,29.7629179 C105.123404,29.7629179 105.240122,29.8018237 105.240122,30.1714286 L105.240122,30.5799392 L105.940426,30.1519757 C106.387842,29.8601824 106.971429,29.7045593 107.632827,29.6851064 L108.644377,29.6656535 L108.702736,30.6966565 L108.761094,31.7082067 L108.06079,31.7082067 C107.088146,31.7082067 106.17386,32.1361702 105.726444,32.7975684 C105.395745,33.2838906 105.337386,33.7896657 105.279027,36.3379939 L105.201216,39.2948328 L104.15076,39.2948328 L103.100304,39.2948328 L103.100304,34.5288754 Z" id="Path"></path>
            </g>
            <g id="layer102" fill="#EF8102">
                <path d="M19.4334347,63.2413374 C17.2352584,61.8018237 0.836474164,49.0212766 0.447416413,48.4571429 L0,47.7957447 L0,31.9221884 C0,16.6322188 0.0194528875,16.0291793 0.369604863,15.4455927 C0.700303951,14.9009119 18.8303951,0.836474164 19.9781155,0.23343465 C20.5617021,-0.0972644377 22.2930091,-0.0583586626 22.9155015,0.291793313 C23.2072948,0.447416413 27.6425532,3.79331307 32.7781155,7.72279635 C39.8200608,13.1306991 42.1933131,15.056535 42.4462006,15.56231 C42.7768997,16.1848024 42.7963526,17.3908815 42.7963526,31.9027356 C42.7963526,46.4145897 42.7768997,47.6206687 42.4462006,48.2431611 C42.1933131,48.7489362 39.8978723,50.6164134 33.1671733,55.7908815 C28.2455927,59.5647416 23.8297872,62.9106383 23.3629179,63.2218845 C22.1568389,64.0389058 20.6784195,64.0389058 19.4334347,63.2413374 Z M30.8133739,54.2346505 C36.0072948,50.2662614 39.1975684,47.7179331 39.0419453,47.6401216 C38.9057751,47.56231 33.7896657,44.6054711 27.6425532,41.0650456 C21.4954407,37.5246201 16.43769,34.6650456 16.3987842,34.7039514 C16.3598784,34.7428571 17.5659574,40.656535 19.1027356,47.8346505 C21.106383,57.2109422 21.9428571,60.8680851 22.1179331,60.7902736 C22.2541033,60.7513678 26.1641337,57.7945289 30.8133739,54.2346505 Z M15.9708207,45.4808511 L13.0528875,31.9027356 L15.9708207,18.3440729 C17.5659574,10.8741641 18.849848,4.66869301 18.8303951,4.55197568 C18.7914894,4.43525836 15.1148936,7.13920973 10.6601824,10.5629179 L2.52887538,16.7878419 L2.52887538,31.9027356 L2.52887538,47.0370821 L10.6601824,53.2425532 C15.1148936,56.6662614 18.7914894,59.3702128 18.8303951,59.2534954 C18.849848,59.1367781 17.5659574,52.931307 15.9708207,45.4808511 Z M40.2285714,25.2303951 L40.1702128,18.5775076 L28.6541033,25.1914894 C22.312462,28.8291793 17.1379395,31.8443769 17.1379395,31.9027356 C17.118541,31.9610942 22.312462,34.9762918 28.6541033,38.6139818 L40.1702128,45.2279635 L40.2285714,38.575076 C40.2480243,34.8984802 40.2480243,28.9069909 40.2285714,25.2303951 Z M27.9732523,22.5653495 C34.1787234,18.9860182 39.2559271,16.0486322 39.2365299,16.0291793 C38.4389058,15.2510638 22.0790274,2.95683891 21.9817629,3.05410334 C21.8650456,3.19027356 16.3404255,28.6346505 16.3404255,29.0431611 C16.3404255,29.2765957 15.56231,29.7045593 27.9732523,22.5653495 Z" id="Shape"></path>
            </g>
        </g>
    </g>
</svg>