<?xml version="1.0" encoding="UTF-8"?>
<svg width="216px" height="104px" viewBox="0 0 216 104" version="1.1" xmlns="http://www.w3.org/2000/svg" xmlns:xlink="http://www.w3.org/1999/xlink">
    <!-- Generator: Sketch 59 (86127) - https://sketch.com -->
    <title>Luno</title>
    <desc>Created with Sketch.</desc>
    <g id="Luno" stroke="none" stroke-width="1" fill="none" fill-rule="evenodd">
        <path d="M86.1912717,65.952068 C84.7195401,65.7981868 82.76927,65.2550766 81.6316125,64.684811 C78.6430042,63.1731545 76.7830243,60.7382107 75.9252667,57.1898912 C75.7898312,56.6196256 75.7717732,55.6963384 75.7446861,48.4096108 L75.70857,40.2629589 L75.9252667,39.8556263 C76.2412827,39.2491533 76.7649663,38.9232872 77.4692305,38.878028 C78.0922334,38.8327689 78.4533946,38.9685464 78.904846,39.3939827 C79.5007618,39.9370928 79.4556167,39.3939827 79.5097909,47.9117599 C79.563965,56.7554031 79.5188199,56.2213448 80.4126937,58.0136083 C81.8573382,60.9011438 84.9723529,62.4580595 88.6020222,62.1140897 C91.8073273,61.8153792 94.3354552,59.9144937 95.3286483,57.0541137 C95.7981577,55.6963384 95.7891287,55.9045306 95.8252448,47.8302933 C95.8613609,40.6250323 95.8703899,40.2629589 96.0329125,39.9370928 C96.5024219,39.0138056 97.6671666,38.6245766 98.5610403,39.0862203 C98.9402595,39.2853606 99.4458851,39.9008855 99.5542334,40.308218 C99.6264657,40.5616694 99.6445237,42.9966132 99.6264657,48.3915071 C99.5993786,56.0222044 99.5903496,56.1127228 99.3917109,57.0812692 C98.3533727,62.0145195 94.9674871,65.0830918 89.6674476,65.8796533 C88.854835,65.9973271 87.0219423,66.0425863 86.1912717,65.952068 Z M150.071646,65.6986166 C147.055951,65.1917138 144.6452,63.9787678 142.667843,61.987364 C141.548244,60.8649364 140.780776,59.7787162 140.085541,58.3666298 C139.489625,57.1355802 139.182638,56.2485003 138.902738,54.9359842 C138.622838,53.5963125 138.622838,50.8083472 138.911767,49.4505719 C139.895931,44.7436174 142.875511,41.1771943 147.317793,39.3668272 C147.633809,39.2401015 148.401276,38.9957019 149.024279,38.8418207 C150.152907,38.5431101 150.179995,38.5431101 152.283758,38.5431101 C154.134709,38.552162 154.522957,38.5702656 155.290424,38.7513023 C158.947181,39.5659675 161.863557,41.5483195 163.768682,44.5173215 C166.504477,48.7626324 166.739232,54.17563 164.391685,58.6381849 C162.531705,62.1774526 159.425719,64.576189 155.443918,65.5356835 C154.622276,65.7348239 154.252086,65.7710313 152.644919,65.7981868 C151.380855,65.8162904 150.568243,65.7891349 150.071646,65.6986166 Z M154.243057,62.0778824 C156.906621,61.5709796 159.199994,59.9778565 160.572406,57.6877422 C162.089283,55.1441764 162.450444,51.6592197 161.484338,48.7807361 C159.832026,43.8203302 154.848002,41.0957277 149.800775,42.3901402 C146.369745,43.2681683 143.751326,46.0199262 142.938714,49.5954013 C141.629505,55.3523686 144.83481,60.8106254 150.252227,62.0326232 C151.191246,62.2498673 153.240835,62.2679709 154.243057,62.0778824 Z M60.7294122,65.6805129 C59.8084513,65.6171501 58.4631261,65.345595 57.5782814,65.0559363 C53.605509,63.7524719 51.041265,60.8287291 50.1925363,56.6558329 C50.0661299,56.0222044 50.0390428,54.890725 50.0119558,48.1199521 C49.9848687,42.6073843 50.0029267,40.2086479 50.075159,39.9461446 C50.1925363,39.5026047 50.6801038,38.9413909 51.1044682,38.7331987 C51.2760197,38.6517322 51.6462099,38.5883693 51.9441678,38.5883693 C52.5942578,38.5883693 53.1721156,38.9142354 53.5152187,39.4573455 L53.7319154,39.8103671 L53.7770605,47.4591681 L53.8312347,55.1079691 L54.0750184,56.0041008 C54.5084118,57.6243793 55.1133567,58.6653404 56.2329562,59.733457 C57.0275107,60.4938112 57.767891,60.9554548 58.724968,61.3084764 C60.1786415,61.8425347 60.4495123,61.8696902 64.5216041,61.9058975 C68.2054476,61.9421048 68.2776798,61.9511567 68.674957,62.1502971 C69.2076697,62.4218521 69.5959179,63.0373769 69.641063,63.6891091 C69.6952372,64.3679968 69.3340761,65.0559363 68.7291312,65.4270615 L68.2867088,65.6986166 L64.7112137,65.7076684 C62.7428855,65.7076684 60.9551379,65.6986166 60.7294122,65.6805129 Z M108.492971,64.9020551 C108.032491,64.684811 107.752591,64.4404114 107.517836,64.0330788 L107.274053,63.6166944 L107.246965,56.5562627 C107.219878,48.9708246 107.255994,47.8574488 107.635214,46.2914813 C108.673552,42.019015 111.779538,39.1405313 116.438516,38.162933 C117.05249,38.0362073 117.630348,38 119.327805,38 C121.214872,38.0090518 121.539917,38.0271555 122.307384,38.2081922 C123.526303,38.5069028 124.402119,38.8146652 125.332109,39.2853606 C127.977614,40.6159805 129.846623,42.8608357 130.686323,45.6940602 C131.191948,47.4229607 131.200977,47.5496864 131.200977,55.9226343 L131.200977,63.6166944 L130.948164,64.0511825 C130.812729,64.2865302 130.5238,64.5942926 130.325162,64.7300702 C130.000117,64.9382624 129.855652,64.9744697 129.304881,64.9744697 C128.754111,64.9744697 128.609646,64.9382624 128.284601,64.7300702 C128.085963,64.5942926 127.797034,64.2865302 127.661598,64.0511825 L127.408785,63.6166944 L127.36364,55.8773751 C127.327524,51.6230124 127.27335,48.0384855 127.237234,47.9117599 C127.201118,47.7850342 127.08374,47.4229607 126.984421,47.0970947 C125.937054,43.775071 123.011649,41.7565117 119.237515,41.7565117 C115.860658,41.7565117 113.133892,43.3405829 111.833712,46.0561336 C111.129448,47.5225309 111.174593,46.9613171 111.11139,55.6510792 C111.057215,64.2141156 111.093331,63.6891091 110.506445,64.3861004 C110.045964,64.9382624 109.088887,65.182662 108.492971,64.9020551 Z" id="Logo" fill="#213569" fill-rule="nonzero"></path>
    </g>
</svg>