<?xml version="1.0" encoding="UTF-8"?>
<svg width="216px" height="104px" viewBox="0 0 216 104" version="1.1" xmlns="http://www.w3.org/2000/svg" xmlns:xlink="http://www.w3.org/1999/xlink">
    <!-- Generator: Sketch 59 (86127) - https://sketch.com -->
    <title>Ndax-dark</title>
    <desc>Created with Sketch.</desc>
    <g id="Ndax" stroke="none" stroke-width="1" fill="none" fill-rule="evenodd">
        <g id="Logo" transform="translate(38.000000, 40.001606)" fill-rule="nonzero">
            <path d="M3.50125852,0.359376143 L16.8358966,20.8060021 L16.8358966,0.359376143 L20.3009664,0.359376143 L20.3018711,26.7771407 L16.8006126,26.7771407 L3.50125852,6.42098649 L3.50125852,26.7771407 L7.46069873e-14,26.7771407 L7.46069873e-14,0.359376143 L3.50125852,0.359376143 Z M38.7038344,1.88292119 C40.464907,2.89382293 41.8881598,4.40237007 42.7949691,6.21923439 C43.7870194,8.22589831 44.2875324,10.4397537 44.2551839,12.6780159 L44.2551839,14.3653149 C44.30569,16.6323668 43.8111208,18.878406 42.8130634,20.9145683 C41.904213,22.7342584 40.4693796,24.2387531 38.6947873,25.2327871 C36.7824072,26.2677329 34.6373984,26.797134 32.4630899,26.7708076 L25.1511594,26.7771407 L25.1511594,0.359376143 L32.6078448,0.359376143 C34.7390734,0.316948939 36.8431591,0.842814242 38.7038344,1.88292119 Z M58.3751171,0.359376143 L68.4817215,26.7771407 L64.9062761,26.7771407 L62.3839224,19.8650954 L51.3174123,19.8650954 L48.8312473,26.7771407 L45.239517,26.7771407 L55.3271223,0.359376143 L58.3751171,0.359376143 Z M75.1341127,0.361185579 L81.5015177,10.4849796 L87.8345434,0.361185579 L91.9347252,0.361185579 L83.5905115,13.460597 L92.1355726,26.7771407 L87.9992021,26.7771407 L81.5024224,16.4724031 L74.9703587,26.7771407 L70.8520825,26.7771407 L79.4152381,13.460597 L71.0520252,0.361185579 L75.1341127,0.361185579 Z M32.6983166,3.20923773 L28.6343235,3.21014244 L28.6343235,23.9281838 L32.299336,23.9281838 C34.6566101,24.0619472 36.9519667,23.1442022 38.567222,21.422115 C40.0612129,19.7514025 40.8082084,17.3725974 40.8082084,14.2856997 L40.8082084,12.7422509 C40.8082084,9.7403967 40.1037347,7.40712907 38.6947873,5.74244802 C37.1837765,4.03206385 34.9779393,3.10020749 32.6983166,3.20923773 Z M56.8506673,4.66131006 L52.3695993,17.0161386 L61.3498298,17.0161386 L56.8506673,4.66131006 Z" id="Ndax" fill="#FFFFFF"></path>
            <path d="M136.614222,1.5355095 C138.273197,2.60840553 139.572246,4.15421758 140.343469,5.9731511 C141.254033,8.11388775 141.699337,10.4236698 141.649882,12.7494886 L141.649882,14.4223122 C141.701778,16.7483374 141.256376,19.0586291 140.343469,21.1986497 C139.575464,23.0058888 138.287059,24.5437238 136.642268,25.6163875 C134.967394,26.6552952 133.027009,27.1858053 131.056539,27.1435514 C129.1012,27.1778831 127.17798,26.6435677 125.52057,25.6055309 C123.875474,24.5414662 122.574137,23.0232928 121.774133,21.2348384 C120.847792,19.1674104 120.380487,16.9237899 120.40439,14.6584435 L120.40439,12.7531075 C120.358652,10.4404352 120.810348,8.14493121 121.728897,6.02200587 C122.510367,4.1951033 123.813612,2.63945523 125.475334,1.54998498 C127.132453,0.504942141 129.05883,-0.0330974465 131.017637,0.00201254811 C132.992001,-0.0371296272 134.935573,0.495420416 136.614222,1.5355095 Z M116.29878,0.363899733 L116.29878,26.7816642 L112.815616,26.7816642 L112.815616,0.363899733 L116.29878,0.363899733 Z M100.732203,12.1333757 L107.86319,19.327693 L100.732203,26.4586799 L100.732203,24.225836 L105.63125,19.3267882 L100.732203,14.3662196 L100.732203,12.1333757 Z M98.5002635,13.4976904 L104.266936,19.3195505 L98.5002635,25.0871275 L98.5002635,22.54487 L101.84772,19.1974136 L98.5002635,15.8499571 L98.5002635,13.4976904 Z M131.017637,2.98758183 C128.975333,2.90970964 127.027688,3.85115632 125.820032,5.49998361 C124.553427,7.17491813 123.903236,9.5003449 123.86946,12.4762638 L123.86946,14.4177886 C123.86946,17.4534189 124.507587,19.8391601 125.783843,21.5750124 C126.988929,23.2780721 128.971629,24.2585354 131.056539,24.1824095 C133.097534,24.2803971 135.054199,23.3595145 136.279476,21.7242908 C137.512908,20.0855451 138.14802,17.7359925 138.184812,14.6756332 L138.184812,12.7169188 C138.184812,9.58418203 137.555732,7.18034643 136.297571,5.50541192 C135.06625,3.83978836 133.086948,2.89592321 131.017637,2.98758183 Z M96.2058987,14.9235259 L100.485215,19.2019372 L96.2058987,23.4803484 L96.2058987,14.9235259 Z" id="dot-io" fill="#00B8FF"></path>
        </g>
    </g>
</svg>