<?xml version="1.0" encoding="UTF-8"?>
<svg width="157px" height="30px" viewBox="0 0 157 30" version="1.1" xmlns="http://www.w3.org/2000/svg">
  <g id="Page-1" stroke="none" stroke-width="1" fill="none" fill-rule="evenodd">
    <g id="ndax">
      <path d="M22.44,29.599 L18.57,29.599 L3.87,7.099 L3.87,29.599 L0,29.599 L0,0.399 L3.87,0.399 L18.609,22.999 L18.609,0.399 L22.439,0.399 L22.44,29.599 Z M27.8,29.599 L27.8,0.399 L36.042,0.399 C38.3976828,0.352104497 40.7233642,0.933352272 42.78,2.083 C44.7265432,3.20036671 46.2996884,4.86778927 47.302,6.876 C48.3985299,9.09399943 48.9517554,11.5410111 48.916,14.015 L48.916,15.88 C48.9718253,18.3858106 48.4251696,20.8683956 47.322,23.119 C46.3174323,25.1303342 44.7314868,26.7932775 42.77,27.892 C40.6562141,29.035943 38.2852997,29.621099 35.882,29.592 L27.8,29.599 Z M31.65,3.55 L31.65,26.45 L35.701,26.45 C38.3065348,26.597851 40.8436311,25.5834519 42.629,23.68 C44.2803333,21.8333333 45.106,19.204 45.106,15.792 L45.106,14.086 C45.106,10.768 44.3273333,8.189 42.77,6.349 C41.0998544,4.45848357 38.6617054,3.42848704 36.142,3.549 L31.65,3.55 Z M68.954,21.959 L56.722,21.959 L53.974,29.599 L50.004,29.599 L61.154,0.399 L64.523,0.399 L75.694,29.599 L71.742,29.599 L68.954,21.959 Z M57.885,18.81 L67.811,18.81 L62.838,5.154 L57.885,18.81 Z M90.085,11.591 L97.085,0.401 L101.617,0.401 L92.394,14.88 L101.839,29.599 L97.267,29.599 L90.086,18.209 L82.866,29.599 L78.314,29.599 L87.779,14.88 L78.535,0.401 L83.047,0.401 L90.085,11.591 Z" id="Path_437" fill="#31336E" style="mix-blend-mode: darken;"/>
      <path d="M128.547,29.604 L124.697,29.604 L124.697,0.404 L128.547,0.404 L128.547,29.604 Z M156.568,15.943 C156.625361,18.5139949 156.133051,21.0675992 155.124,23.433 C154.275111,25.4305718 152.851015,27.1303667 151.033,28.316 C149.181733,29.4643222 147.036993,30.0507039 144.859,30.004 C142.697731,30.0419474 140.571963,29.4513596 138.74,28.304 C136.921647,27.1278714 135.483258,25.4498088 134.599,23.473 C133.5751,21.187837 133.05858,18.7079255 133.085,16.204 L133.085,14.098 C133.034445,11.5417643 133.533712,9.00450513 134.549,6.658 C135.412772,4.63869382 136.85327,2.91920981 138.69,1.715 C140.521641,0.559896549 142.650898,-0.0348076683 144.816,0.004 C146.998298,-0.0392645055 149.146561,0.549372026 151.002,1.699 C152.835693,2.88489005 154.271554,4.59350215 155.124,6.604 C156.130461,8.97019227 156.622663,11.5232333 156.568,14.094 L156.568,15.943 Z M152.738,14.058 C152.738,10.5953333 152.042667,7.93833333 150.652,6.087 C149.291001,4.24595823 147.103245,3.20268819 144.816,3.304 C142.558608,3.21792656 140.405843,4.25852343 139.071,6.081 C137.671,7.93233333 136.952333,10.5026667 136.915,13.792 L136.915,15.938 C136.915,19.2933333 137.620333,21.9303333 139.031,23.849 C140.363002,25.7314206 142.554514,26.8151432 144.859,26.731 C147.114946,26.8393073 149.27768,25.8214403 150.632,24.014 C151.995333,22.2026667 152.697333,19.6056667 152.738,16.223 L152.738,14.058 Z" id="Path_438" fill="#00B8FF"/>
      <g id="dot" transform="translate(106.338000, 13.413000)" fill="#00B8FF">
        <polygon id="Path_7" points="5.003 0 5.003 2.468 10.418 7.951 5.003 13.366 5.003 15.834 12.885 7.952"/>
        <polygon id="Path_8" points="2.536 1.508 2.536 4.108 6.236 7.808 2.536 11.508 2.536 14.318 8.91 7.943"/>
        <polyline id="Path_9" points="0 3.084 4.73 7.813 0 12.542"/>
      </g>
    </g>
  </g>
</svg>