<?xml version="1.0" encoding="UTF-8"?>
<svg width="216px" height="104px" viewBox="0 0 216 104" version="1.1" xmlns="http://www.w3.org/2000/svg" xmlns:xlink="http://www.w3.org/1999/xlink">
    <!-- Generator: Sketch 59 (86127) - https://sketch.com -->
    <title>Ndax</title>
    <desc>Created with Sketch.</desc>
    <g id="Ndax" stroke="none" stroke-width="1" fill="none" fill-rule="evenodd">
        <g id="Logo" transform="translate(38.000000, 40.000000)" fill-rule="nonzero">
            <path d="M20.3018711,26.778747 L16.8006126,26.778747 L3.50125852,6.42259282 L3.50125852,26.778747 L0,26.778747 L0,0.360982467 L3.50125852,0.360982467 L16.8358966,20.8076084 L16.8358966,0.360982467 L20.3009664,0.360982467 L20.3018711,26.778747 Z M25.1511594,26.778747 L25.1511594,0.360982467 L32.6078448,0.360982467 C34.7390734,0.318555263 36.8431591,0.844420566 38.7038344,1.88452752 C40.464907,2.89542925 41.8881598,4.40397639 42.7949691,6.22084071 C43.7870194,8.22750464 44.2875324,10.4413601 44.2551839,12.6796222 L44.2551839,14.3669212 C44.30569,16.6339731 43.8111208,18.8800124 42.8130634,20.9161746 C41.904213,22.7358648 40.4693796,24.2403594 38.6947873,25.2343934 C36.7824072,26.2693392 34.6373984,26.7987403 32.4630899,26.772414 L25.1511594,26.778747 Z M28.6343235,3.21174877 L28.6343235,23.9297901 L32.299336,23.9297901 C34.6566101,24.0635536 36.9519667,23.1458085 38.567222,21.4237214 C40.0612129,19.7530088 40.8082084,17.3742038 40.8082084,14.2873061 L40.8082084,12.7438572 C40.8082084,9.74200302 40.1037347,7.4087354 38.6947873,5.74405435 C37.1837765,4.03367017 34.9779393,3.10181381 32.6983166,3.21084405 L28.6343235,3.21174877 Z M62.3839224,19.8667017 L51.3174123,19.8667017 L48.8312473,26.778747 L45.239517,26.778747 L55.3271223,0.360982467 L58.3751171,0.360982467 L68.4817215,26.778747 L64.9062761,26.778747 L62.3839224,19.8667017 Z M52.3695993,17.0177449 L61.3498298,17.0177449 L56.8506673,4.66291638 L52.3695993,17.0177449 Z M81.5015177,10.4865859 L87.8345434,0.362791903 L91.9347252,0.362791903 L83.5905115,13.4622033 L92.1355726,26.778747 L87.9992021,26.778747 L81.5024224,16.4740094 L74.9703587,26.778747 L70.8520825,26.778747 L79.4152381,13.4622033 L71.0520252,0.362791903 L75.1341127,0.362791903 L81.5015177,10.4865859 Z" id="Ndax" fill="#31336E" style="mix-blend-mode: darken;"></path>
            <path d="M136.614222,1.53711582 C138.273197,2.61001185 139.572246,4.15582391 140.343469,5.97475743 C141.254033,8.11549408 141.699337,10.4252762 141.649882,12.751095 L141.649882,14.4239185 C141.701778,16.7499437 141.256376,19.0602354 140.343469,21.200256 C139.575464,23.0074951 138.287059,24.5453301 136.642268,25.6179938 C134.967394,26.6569016 133.027009,27.1874116 131.056539,27.1451578 C129.1012,27.1794895 127.17798,26.6451741 125.52057,25.6071372 C123.875474,24.5430725 122.574137,23.0248992 121.774133,21.2364447 C120.847792,19.1690167 120.380487,16.9253962 120.40439,14.6600499 L120.40439,12.7547138 C120.358652,10.4420415 120.810348,8.14653754 121.728897,6.0236122 C122.510367,4.19670962 123.813612,2.64106155 125.475334,1.55159131 C127.132453,0.506548465 129.05883,-0.0314911228 131.017637,0.00361887185 C132.992001,-0.0355233034 134.935573,0.49702674 136.614222,1.53711582 Z M116.29878,0.365506057 L116.29878,26.7832706 L112.815616,26.7832706 L112.815616,0.365506057 L116.29878,0.365506057 Z M100.732203,12.134982 L107.86319,19.3292993 L100.732203,26.4602863 L100.732203,24.2274423 L105.63125,19.3283946 L100.732203,14.367826 L100.732203,12.134982 Z M98.5002635,13.4992967 L104.266936,19.3211568 L98.5002635,25.0887338 L98.5002635,22.5464764 L101.84772,19.1990199 L98.5002635,15.8515634 L98.5002635,13.4992967 Z M131.017637,2.98918815 C128.975333,2.91131596 127.027688,3.85276264 125.820032,5.50158993 C124.553427,7.17652445 123.903236,9.50195122 123.86946,12.4778701 L123.86946,14.4193949 C123.86946,17.4550252 124.507587,19.8407665 125.783843,21.5766187 C126.988929,23.2796784 128.971629,24.2601417 131.056539,24.1840159 C133.097534,24.2820034 135.054199,23.3611209 136.279476,21.7258972 C137.512908,20.0871514 138.14802,17.7375988 138.184812,14.6772395 L138.184812,12.7185251 C138.184812,9.58578836 137.555732,7.18195276 136.297571,5.50701824 C135.06625,3.84139468 133.086948,2.89752953 131.017637,2.98918815 Z M96.2058987,14.9251322 L100.485215,19.2035435 L96.2058987,23.4819547 L96.2058987,14.9251322 Z" id="dot-io" fill="#00B8FF"></path>
        </g>
    </g>
</svg>