<?xml version="1.0" encoding="UTF-8"?>
<svg width="216px" height="104px" viewBox="0 0 216 104" version="1.1" xmlns="http://www.w3.org/2000/svg" xmlns:xlink="http://www.w3.org/1999/xlink">
    <!-- Generator: Sketch 59 (86127) - https://sketch.com -->
    <title>Paybis</title>
    <desc>Created with Sketch.</desc>
    <g id="Paybis" stroke="none" stroke-width="1" fill="none" fill-rule="evenodd">
        <g id="Logo" transform="translate(45.000000, 23.000000)">
            <polygon id="Path" points="18.615 14.763 42.974 14.763 42.974 39.91 18.614 39.91"></polygon>
            <path d="M27.15,27.634 L29.832,27.634 C31.458,27.634 32.759,27.337 33.734,26.688 C34.737,26.093 35.333,25.228 35.577,24.092 C35.82,22.794 35.631,21.902 34.981,21.361 C34.331,20.821 33.084,20.577 31.241,20.577 L28.56,20.577 L27.15,27.634 Z M25.578,14.764 L29.155,14.764 L28.532,17.764 L31.594,17.764 L32.19,14.764 L35.74,14.764 L35.143,17.764 L36.443,17.764 C38.936,17.764 40.698,18.306 41.782,19.387 C42.838,20.442 43.163,22.037 42.757,24.092 C42.351,26.12 41.402,27.688 39.857,28.797 C38.34,29.906 36.335,30.447 33.924,30.447 L26.58,30.447 L26.309,31.744 L24.792,39.343 L24.792,39.37 L24.656,39.883 L18.885,39.883 C18.939,39.721 18.966,39.532 19.02,39.343 L22.326,22.74 C22.516,21.848 22.461,21.226 22.19,20.928 C21.892,20.631 21.242,20.468 20.24,20.468 L18.614,20.468 L19.129,17.765 L24.981,17.765 L25.577,14.763 L25.578,14.764 Z" id="Shape" fill="#424644" fill-rule="nonzero"></path>
            <polygon id="Path" points="0.813 0.973 127.35 0.973 127.35 57.594 0.813 57.594"></polygon>
            <path d="M35.441,34.502 C35.441,34.583 35.414,34.665 35.414,34.746 C35.144,36.044 34.574,36.936 33.707,37.476 C32.867,38.018 31.512,38.288 29.67,38.288 L29.1,38.288 C25.389,38.288 19.563,38.369 15.824,38.369 L14.496,41.073 L20.322,41.073 L19.78,43.804 L23.33,43.804 L23.871,41.074 L26.933,41.074 L26.391,43.804 L29.941,43.804 L30.483,41.074 L33.111,41.074 C35.55,41.074 37.528,40.532 39.045,39.478 C40.535,38.396 41.483,36.828 41.917,34.746 C42.323,32.718 41.971,31.176 40.887,30.068 L40.833,30.014 L42.513,28.634 L35.062,28.634 L33.572,36.044 L35.442,34.502 L35.441,34.502 Z M43.461,51.51 C39.1892188,54.2670517 34.2122344,55.7320553 29.128,55.729 C14.496,55.729 2.655,43.912 2.655,29.284 C2.655,14.655 14.496,2.839 29.128,2.839 C39.153,2.839 48.258,8.463 52.782,17.386 L54.842,17.386 C50.208,7.408 40.182,1 29.128,1 C13.494,1 0.813,13.655 0.813,29.284 C0.813,44.913 13.493,57.567 29.128,57.567 C35.4845165,57.567 41.6571673,55.4338979 46.658,51.51 L43.461,51.51 Z M125.643,34.665 C126.293,31.771 124.071,30.987 122.527,30.392 C121.578,30.041 120.874,29.716 121.064,28.851 C121.199,28.202 121.904,27.742 122.906,27.742 C123.773,27.742 124.911,28.175 125.426,28.5 L127.323,25.66 C126.347,25.065 124.938,24.66 123.041,24.66 C119.627,24.66 117.297,26.282 116.701,28.878 C116.078,31.718 118.273,32.556 119.79,33.15 C120.711,33.502 121.416,33.853 121.226,34.638 C121.064,35.341 120.359,35.8 119.384,35.8 C118.517,35.8 117.162,35.422 116.511,35.043 L115.671,38.667 C116.566,38.937 117.622,39.099 118.761,39.099 C122.689,39.099 125.047,37.396 125.643,34.665 L125.643,34.665 Z M113.043,38.802 L116.159,24.957 L111.932,24.957 L108.816,38.802 L113.043,38.802 Z M117.324,20.874 C117.595,19.657 116.728,18.657 115.454,18.657 C114.154,18.657 112.881,19.657 112.61,20.874 C112.339,22.091 113.179,23.064 114.452,23.064 C115.752,23.064 117.053,22.091 117.324,20.874 Z M104.834,31.798 C104.264,34.368 102.909,35.828 101.148,35.828 C100.66,35.828 100.2,35.746 99.956,35.638 L101.609,28.256 C101.989,28.094 102.53,27.959 103.018,27.959 C104.725,27.959 105.375,29.365 104.833,31.799 L104.834,31.798 Z M109.169,31.42 C110.117,27.202 108.193,24.768 104.589,24.768 C103.858,24.768 102.909,24.958 102.313,25.201 L103.776,18.63 L99.55,18.63 L95.16,38.099 C96.19,38.639 98.06,39.099 100.119,39.099 C104.833,39.099 108.003,36.611 109.169,31.419 L109.169,31.42 Z" id="Shape" fill="#3BB0DF" fill-rule="nonzero"></path>
            <polygon id="Path" points="69.853 25.2 97.03 25.2 97.03 42.534 69.853 42.534"></polygon>
            <path d="M96.975,25.471 L92.45,25.471 L88.928,33.042 C88.5939912,33.7659645 88.2956339,34.5058505 88.034,35.259 L88.007,35.259 C88.007,35.259 88.088,34.069 88.007,33.042 L87.437,25.472 L82.913,25.472 L85.297,38.639 L83.075,42.506 L87.302,42.506 L96.975,25.471 L96.975,25.471 Z M80.61,37.963 L82.154,30.041 C82.831,26.553 81.287,25.201 77.71,25.201 C76.68,25.201 75.597,25.309 74.676,25.498 C74.405,26.796 73.863,27.878 73.023,28.716 C74.025,28.364 75.489,28.013 76.681,28.013 C78.036,28.013 78.659,28.5 78.469,29.554 L78.361,30.068 C74.323,30.284 70.611,31.095 69.934,34.583 C69.419,37.369 71.154,38.937 75.272,38.937 C77.412,38.937 79.526,38.504 80.61,37.963 L80.61,37.963 Z M77.223,35.935 C76.952,36.044 76.247,36.125 75.705,36.125 C74.269,36.125 73.483,35.557 73.673,34.475 C73.998,32.935 75.678,32.691 77.873,32.583 L77.223,35.935 Z" id="Shape" fill="#424644" fill-rule="nonzero"></path>
            <polygon id="Path" points="53.704 20.144 73.51 20.144 73.51 38.666 53.704 38.666"></polygon>
            <path d="M60.749,28.364 L62.619,28.364 C63.973,28.364 65.057,28.094 65.869,27.607 C66.682,27.093 67.197,26.363 67.387,25.417 C67.604,24.335 67.441,23.578 66.899,23.146 C66.357,22.686 65.328,22.47 63.81,22.47 L61.914,22.47 L60.749,28.364 L60.749,28.364 Z M68.119,20.144 C70.178,20.144 71.641,20.577 72.508,21.469 C73.402,22.389 73.673,23.686 73.348,25.417 C72.996,27.093 72.21,28.418 70.936,29.311 C69.663,30.257 68.037,30.717 66.006,30.717 L60.288,30.717 L60.071,31.798 L58.825,38.153 L58.798,38.18 L58.716,38.612 L53.92,38.612 C53.975,38.477 54.002,38.315 54.029,38.152 L56.793,24.308 C56.928,23.524 56.901,23.038 56.657,22.768 C56.44,22.524 55.898,22.388 55.031,22.388 L53.704,22.388 L54.137,20.144 L68.12,20.144 L68.119,20.144 Z" id="Shape" fill="#424644" fill-rule="nonzero"></path>
            <polygon id="Path" points="50.344 43.94 126.239 43.94 126.239 50.753 50.344 50.753"></polygon>
            <path d="M53.27,49.023 L54.57,43.939 L53.46,43.939 L53.026,45.616 C52.8862799,45.5684434 52.7404629,45.5411659 52.593,45.535 C51.482,45.535 50.696,46.265 50.425,47.427 C50.127,48.617 50.588,49.293 51.807,49.293 C52.376,49.293 52.945,49.185 53.27,49.023 Z M52.322,48.401 C52.268,48.428 52.105,48.428 51.997,48.428 C51.536,48.428 51.373,48.076 51.536,47.4 C51.699,46.778 52.024,46.373 52.511,46.373 C52.62,46.373 52.782,46.4 52.837,46.427 L52.322,48.401 Z M56.332,44.507 C56.413,44.183 56.196,43.939 55.844,43.939 C55.519,43.939 55.167,44.183 55.086,44.507 C55.004,44.832 55.221,45.075 55.573,45.075 C55.898,45.075 56.251,44.832 56.332,44.507 Z M55.058,49.212 L55.98,45.589 L54.896,45.589 L53.948,49.212 L55.058,49.212 L55.058,49.212 Z M58.96,49.131 L59.827,45.751 C59.557,45.616 59.096,45.508 58.554,45.508 C57.334,45.508 56.467,46.13 56.142,47.346 C55.872,48.428 56.332,49.076 57.253,49.076 C57.47,49.076 57.741,49.023 57.903,48.969 L57.876,49.131 C57.768,49.564 57.497,49.78 57.036,49.78 C56.603,49.78 56.251,49.699 56.034,49.59 L55.519,50.429 C55.817,50.591 56.278,50.726 56.901,50.726 C57.903,50.726 58.689,50.186 58.961,49.131 L58.96,49.131 Z M58.12,48.185 C58.012,48.212 57.85,48.265 57.714,48.265 C57.307,48.265 57.118,47.941 57.28,47.292 C57.443,46.643 57.795,46.346 58.229,46.346 C58.364,46.346 58.499,46.346 58.581,46.373 L58.121,48.185 L58.12,48.185 Z M62.05,44.507 C62.13,44.183 61.914,43.939 61.561,43.939 C61.236,43.939 60.884,44.183 60.803,44.507 C60.721,44.832 60.938,45.075 61.29,45.075 C61.616,45.075 61.968,44.832 62.05,44.507 Z M60.776,49.212 L61.696,45.589 L60.613,45.589 L59.665,49.212 L60.775,49.212 L60.776,49.212 Z M63.486,49.158 L63.729,48.238 C63.6331359,48.2717363 63.532591,48.2902933 63.431,48.293 C63.214,48.293 63.106,48.212 63.16,47.968 L63.566,46.4 L64.19,46.4 L64.406,45.589 L63.756,45.589 L64.027,44.507 L62.889,44.805 L62.672,45.589 L62.266,45.589 L62.049,46.399 L62.483,46.399 L62.049,48.049 C61.859,48.861 62.049,49.266 62.808,49.266 C63.078,49.266 63.35,49.212 63.485,49.158 L63.486,49.158 Z M67.089,49.023 L67.658,46.833 C67.902,45.859 67.495,45.5079942 66.52,45.5079942 C66.0045799,45.5071989 65.4923812,45.5892453 65.003,45.751 L65.083,46.481 C65.382,46.373 65.843,46.265 66.168,46.265 C66.547,46.265 66.737,46.4 66.655,46.697 L66.601,46.833 C65.491,46.887 64.461,47.13 64.217,48.103 C64.027,48.888 64.487,49.293 65.626,49.293 C66.195,49.293 66.791,49.185 67.089,49.023 L67.089,49.023 Z M66.195,48.482 C66.0625247,48.5189374 65.9255239,48.5371144 65.788,48.536 C65.382,48.536 65.192,48.374 65.246,48.076 C65.355,47.644 65.843,47.59 66.439,47.563 L66.195,48.482 L66.195,48.482 Z M68.905,49.212 L70.232,43.939 L69.122,43.939 L67.793,49.212 L68.904,49.212 L68.905,49.212 Z M80.122,49.05 L79.986,48.239 C79.8292493,48.3277544 79.6521334,48.3742732 79.472,48.374 C79.092,48.374 78.876,47.995 79.038,47.4 C79.201,46.751 79.553,46.4 79.986,46.4 C80.176,46.4 80.339,46.427 80.42,46.535 L80.962,45.751 C80.772,45.589 80.502,45.508 80.041,45.508 C79.146,45.508 78.225,46.102 77.901,47.4 C77.575,48.671 78.171,49.293 79.065,49.293 C79.525,49.293 79.851,49.212 80.122,49.05 L80.122,49.05 Z M83.644,45.535 C83.509,45.508 83.346,45.508 83.13,45.508 C82.48,45.508 81.937,45.588 81.477,45.751 L80.61,49.212 L81.72,49.212 L82.425,46.427 C82.533,46.373 82.669,46.373 82.805,46.373 C82.967,46.373 83.102,46.4 83.211,46.427 L83.644,45.535 Z M87.682,45.589 L86.435,45.589 L85.351,47.671 C85.189,47.968 85.053,48.293 85.053,48.293 C85.053,48.293 85.08,47.968 85.08,47.671 L85.053,45.589 L83.807,45.589 L84.24,49.212 L83.346,50.645 L84.484,50.645 L87.682,45.589 Z M90.933,47.4 C91.231,46.157 90.771,45.508 89.551,45.508 C88.982,45.508 88.413,45.616 88.061,45.751 L86.815,50.645 L87.925,50.645 L88.332,49.185 C88.413,49.212 88.602,49.239 88.765,49.239 C89.876,49.239 90.635,48.509 90.933,47.4 L90.933,47.4 Z M89.823,47.4 C89.66,47.995 89.307,48.428 88.847,48.428 C88.7362434,48.4304771 88.6260045,48.4121605 88.522,48.374 L89.036,46.4 C89.1403188,46.3617158 89.2509085,46.3433973 89.362,46.346 C89.822,46.346 89.985,46.697 89.822,47.4 L89.823,47.4 Z M92.993,49.158 L93.236,48.238 C93.1401359,48.2717363 93.039591,48.2902933 92.938,48.293 C92.721,48.293 92.613,48.212 92.668,47.968 L93.074,46.4 L93.697,46.4 L93.914,45.589 L93.264,45.589 L93.561,44.507 L92.396,44.805 L92.18,45.589 L91.773,45.589 L91.556,46.399 L91.99,46.399 L91.556,48.049 C91.366,48.861 91.556,49.266 92.315,49.266 C92.585,49.266 92.857,49.212 92.992,49.158 L92.993,49.158 Z M97.246,47.4 C97.517,46.292 97.111,45.508 96.027,45.508 C94.943,45.508 94.13,46.292 93.859,47.4 C93.561,48.482 93.995,49.293 95.052,49.293 C96.135,49.293 96.975,48.482 97.246,47.4 Z M96.136,47.4 C95.973,48.05 95.675,48.4 95.296,48.4 C94.889,48.4 94.781,48.05 94.97,47.4 C95.133,46.697 95.431,46.346 95.81,46.346 C96.19,46.346 96.325,46.697 96.135,47.4 L96.136,47.4 Z M101.555,49.05 L101.419,48.239 C101.261955,48.3279221 101.084472,48.3744466 100.904,48.374 C100.525,48.374 100.308,47.995 100.471,47.4 C100.633,46.751 100.986,46.4 101.392,46.4 C101.582,46.4 101.744,46.427 101.852,46.535 L102.395,45.751 C102.178,45.589 101.934,45.508 101.446,45.508 C100.579,45.508 99.631,46.102 99.306,47.4 C98.981,48.671 99.604,49.293 100.498,49.293 C100.958,49.293 101.257,49.212 101.555,49.05 Z M105.185,49.023 L106.08,45.589 L104.969,45.589 L104.264,48.347 C104.122584,48.3835149 103.977053,48.4016642 103.831,48.401 C103.506,48.401 103.397,48.266 103.451,47.941 L104.075,45.589 L102.964,45.589 L102.367,47.914 C102.124,48.888 102.557,49.294 103.614,49.294 C104.183,49.294 104.806,49.185 105.185,49.023 L105.185,49.023 Z M108.898,45.535 C108.789,45.508 108.599,45.508 108.383,45.508 C107.76,45.508 107.191,45.588 106.757,45.751 L105.863,49.212 L106.973,49.212 L107.678,46.427 C107.787,46.373 107.922,46.373 108.085,46.373 C108.22,46.373 108.383,46.4 108.464,46.427 L108.898,45.535 L108.898,45.535 Z M111.498,45.535 C111.363,45.508 111.174,45.508 110.984,45.508 C110.334,45.508 109.764,45.588 109.331,45.751 L108.464,49.212 L109.574,49.212 L110.279,46.427 C110.388,46.373 110.523,46.373 110.659,46.373 C110.821,46.373 110.957,46.4 111.065,46.427 L111.499,45.535 L111.498,45.535 Z M114.642,47.185 C114.886,46.211 114.506,45.508 113.45,45.508 C112.366,45.508 111.499,46.265 111.228,47.4 C110.957,48.482 111.363,49.293 112.61,49.293 C113.152,49.293 113.748,49.185 114.1,49.023 L113.992,48.212 C113.657527,48.3535426 113.298188,48.4269741 112.935,48.428 C112.475,48.428 112.176,48.238 112.203,47.86 L114.533,47.563 C114.561,47.427 114.588,47.293 114.642,47.184 L114.642,47.185 Z M113.612,46.968 L112.312,47.13 C112.447,46.535 112.826,46.265 113.206,46.265 C113.586,46.265 113.721,46.508 113.612,46.968 L113.612,46.968 Z M117.866,49.212 L118.489,46.724 C118.706,45.94 118.327,45.508 117.189,45.508 C116.539,45.508 116.051,45.588 115.59,45.751 L114.723,49.212 L115.834,49.212 L116.539,46.427 C116.680764,46.392343 116.826066,46.3742223 116.972,46.373 C117.297,46.373 117.432,46.535 117.352,46.833 L116.755,49.212 L117.866,49.212 L117.866,49.212 Z M121.172,49.05 L121.036,48.239 C120.879249,48.3277544 120.702133,48.3742732 120.522,48.374 C120.142,48.374 119.925,47.995 120.088,47.4 C120.251,46.751 120.603,46.4 121.009,46.4 C121.199,46.4 121.362,46.427 121.469,46.535 L122.012,45.751 C121.795,45.589 121.552,45.508 121.064,45.508 C120.196,45.508 119.248,46.102 118.923,47.4 C118.625,48.671 119.221,49.293 120.115,49.293 C120.575,49.293 120.874,49.212 121.172,49.05 L121.172,49.05 Z M126.185,45.589 L124.938,45.589 L123.828,47.671 C123.692,47.968 123.556,48.293 123.556,48.293 C123.556,48.293 123.583,47.968 123.583,47.671 L123.556,45.589 L122.31,45.589 L122.743,49.212 L121.823,50.645 L122.987,50.645 L126.185,45.589 Z M76.03,46.67 L76.112,45.832 L74.215,46.157 C74.025,46.184 73.89,46.184 73.782,46.184 C73.402,46.184 73.212,45.994 73.294,45.67 C73.375,45.372 73.646,45.183 74.08,45.183 C74.35,45.183 74.622,45.264 74.784,45.373 L75.326,44.507 C75.082,44.372 74.676,44.264 74.161,44.264 C73.104,44.264 72.4,44.886 72.21,45.589 C72.102,46.021 72.237,46.427 72.644,46.616 C72.129,46.806 71.614,47.211 71.451,47.887 C71.235,48.807 71.831,49.293 73.077,49.293 C73.754,49.293 74.351,49.185 74.703,49.023 L75.272,46.778 L76.03,46.67 L76.03,46.67 Z M73.81,48.4 C73.6496024,48.4347317 73.4861045,48.4531587 73.322,48.455 C72.752,48.455 72.509,48.239 72.617,47.806 C72.726,47.4 73.051,47.13 73.539,47.049 L74.162,46.968 L73.81,48.401 L73.81,48.4 Z" id="Shape" fill="#424644" fill-rule="nonzero"></path>
            <polygon id="Path" points="50.317 50.78 79.716 50.78 79.716 57.594 50.316 57.594"></polygon>
            <path d="M53.812,54.025 C54.056,53.052 53.677,52.349 52.62,52.349 C51.536,52.349 50.696,53.106 50.398,54.241 C50.154,55.323 50.533,56.134 51.807,56.134 C52.349,56.134 52.917,56.026 53.297,55.864 L53.189,55.053 C52.8458791,55.1971975 52.4771856,55.2706641 52.105,55.269 C51.671,55.269 51.373,55.079 51.373,54.701 L53.703,54.404 C53.758,54.269 53.785,54.134 53.812,54.025 Z M52.809,53.809 L51.482,53.971 C51.644,53.376 52.024,53.106 52.403,53.106 C52.755,53.106 52.918,53.349 52.809,53.809 Z M57.28,56.053 L56.522,54.187 L58.093,52.43 L56.847,52.43 L56.034,53.457 L56.007,53.457 L55.736,52.43 L54.462,52.43 L55.167,54.187 L53.46,56.053 L54.706,56.053 L55.655,54.917 L56.007,56.053 L57.28,56.053 L57.28,56.053 Z M60.071,55.891 L59.936,55.08 C59.7789545,55.1689221 59.6014722,55.2154466 59.421,55.215 C59.014,55.215 58.825,54.836 58.987,54.241 C59.15,53.593 59.502,53.241 59.909,53.241 C60.099,53.241 60.261,53.268 60.369,53.376 L60.911,52.592 C60.694,52.43 60.423,52.349 59.963,52.349 C59.096,52.349 58.147,52.944 57.823,54.241 C57.497,55.512 58.12,56.134 59.014,56.134 C59.475,56.134 59.774,56.054 60.071,55.891 L60.071,55.891 Z M63.701,56.053 L64.325,53.593 C64.515,52.781 64.163,52.349 63.295,52.349 C63.052,52.349 62.781,52.429 62.564,52.511 L62.997,50.781 L61.887,50.781 L60.532,56.053 L61.642,56.053 L62.347,53.295 C62.4855973,53.2420453 62.6326321,53.2146033 62.781,53.214 C63.133,53.214 63.268,53.376 63.187,53.701 L62.591,56.053 L63.701,56.053 L63.701,56.053 Z M67.441,55.863 L68.011,53.673 C68.254,52.7 67.848,52.349 66.845,52.349 C66.303,52.349 65.707,52.457 65.355,52.592 L65.436,53.322 C65.734,53.214 66.168,53.106 66.52,53.106 C66.9,53.106 67.062,53.241 66.98,53.538 L66.953,53.674 C65.843,53.728 64.786,53.971 64.542,54.944 C64.352,55.702 64.786,56.134 65.978,56.134 C66.547,56.134 67.143,56.026 67.441,55.864 L67.441,55.863 Z M66.547,55.323 C66.4144488,55.3578639 66.2780559,55.3760048 66.141,55.377 C65.734,55.377 65.517,55.215 65.599,54.917 C65.707,54.485 66.168,54.431 66.791,54.404 L66.547,55.324 L66.547,55.323 Z M71.262,56.053 L71.912,53.565 C72.102,52.781 71.722,52.349 70.584,52.349 C69.934,52.349 69.446,52.429 69.013,52.592 L68.119,56.053 L69.229,56.053 L69.934,53.268 C70.0757644,53.233343 70.2210659,53.2152223 70.367,53.214 C70.693,53.214 70.828,53.376 70.747,53.674 L70.151,56.054 L71.261,56.054 L71.262,56.053 Z M75.163,55.972 L76.003,52.592 C75.733,52.457 75.299,52.349 74.73,52.349 C73.538,52.349 72.644,52.971 72.345,54.187 C72.075,55.269 72.535,55.917 73.456,55.917 C73.673,55.917 73.917,55.864 74.106,55.81 L74.052,55.972 C73.944,56.405 73.673,56.621 73.212,56.621 C72.806,56.621 72.454,56.54 72.237,56.431 L71.695,57.27 C72.02,57.432 72.454,57.567 73.105,57.567 C74.107,57.567 74.892,57.027 75.163,55.972 L75.163,55.972 Z M74.296,55.026 C74.1742717,55.0711025 74.0465721,55.0980576 73.917,55.106 C73.483,55.106 73.294,54.782 73.457,54.133 C73.619,53.484 73.998,53.187 74.405,53.187 C74.567,53.187 74.675,53.187 74.757,53.214 L74.297,55.026 L74.296,55.026 Z M79.607,54.026 C79.851,53.052 79.472,52.349 78.415,52.349 C77.331,52.349 76.491,53.106 76.193,54.241 C75.923,55.323 76.329,56.134 77.602,56.134 C78.144,56.134 78.713,56.026 79.092,55.864 L78.984,55.053 C78.6400753,55.1945565 78.2719156,55.2679167 77.9,55.269 C77.44,55.269 77.169,55.079 77.169,54.701 L79.499,54.404 C79.553,54.269 79.58,54.134 79.607,54.025 L79.607,54.026 Z M78.605,53.809 L77.277,53.971 C77.439,53.376 77.792,53.106 78.198,53.106 C78.55,53.106 78.713,53.349 78.605,53.809 Z" id="Shape" fill="#424644" fill-rule="nonzero"></path>
        </g>
    </g>
</svg>