<svg version="1.1" id="Layer_1" xmlns="http://www.w3.org/2000/svg" x="0" y="0" viewBox="0 0 786.4 207.6" xml:space="preserve"><path class="st0" d="M636 141.7h8V94h-8v47.7zM636 79.7h8v8h-8zM265.8 79.3c-8.7 0-18 3.4-18 11.8 0 7.4 8.5 9.6 18.6 11.3 13.7 2.2 27.2 4.9 27.2 20.4-.1 15.4-14.8 20.4-27.9 20.4-12.1 0-23.7-4.4-29-15.9l7.1-4.1c4.4 8.1 13.6 12 22 12 8.3 0 19.4-2.6 19.4-12.7.1-8.5-9.5-11-19.8-12.5-13.2-2.1-26.1-5.1-26.1-19-.2-14.3 14.4-19.2 26.2-19.2 10.2 0 19.9 2.1 26 12.4l-6.5 4c-3.6-6.1-11.5-8.8-19.2-8.9zM308.1 73.3v28.1c4.1-6.4 10.6-8.5 16.7-8.6 13.6 0 20.3 9 20.3 22.3v26.6h-7.9v-26.5c0-9.5-4.9-14.9-13.7-14.9s-15.3 7-15.3 15.8v25.7h-8V73.2l7.9.1zM394.7 141.9l-.2-8.8c-3.8 6.7-11.2 9.8-17.8 9.8-13.9 0-24.8-9.6-24.8-25.4 0-15.7 11.1-25.1 24.9-25 7.2 0 14.4 3.3 17.9 9.6l.1-8.8h7.8v48.4h-7.7l-.2.2zm-17.6-41.7c-9.6 0-17.3 6.9-17.3 17.6s7.7 17.7 17.3 17.7c23.3 0 23.3-35.4 0-35.3zM410.1 93.5h7.6l.4 9.3c3.8-6.5 11-10.2 18.6-10.2 13.9.3 24.1 10.1 24.1 25 0 15.3-10.1 25.2-24.6 25.2-6.9 0-14.5-2.9-18.3-9.8v31.5h-7.8v-71zm42.7 24.3c0-10.9-7.2-17.3-17-17.3-10.1 0-16.9 7.4-16.9 17.3s7.2 17.3 16.9 17.4c9.6 0 17-6.5 17-17.4zM512.4 133.9c-4.9 5.8-13.3 8.6-20.9 8.6-15 0-25.5-9.9-25.5-25.3 0-14.6 10.5-25.1 25.1-25.1 14.8 0 26.1 9.1 24.2 28.4h-41.1c.9 8.9 8.2 14.5 17.5 14.5 5.5 0 12.1-2.2 15.4-6.1l5.3 5zm-4.7-19.9c-.4-9.4-6.9-14.5-16.4-14.5-8.4 0-15.8 5.1-17.1 14.4l33.5.1zM548.9 79.3c-8.7 0-18 3.4-18 11.8 0 7.4 8.5 9.6 18.6 11.3 13.7 2.2 27.2 4.9 27.2 20.4-.1 15.4-14.8 20.4-27.9 20.4-12.1 0-23.7-4.4-29-15.9l7.1-4.1c4.4 8.1 13.6 12 22 12 8.3 0 19.4-2.6 19.4-12.7.1-8.5-9.5-11-19.8-12.5-13.2-2.1-26.1-5.1-26.1-19-.2-14.3 14.4-19.2 26.2-19.2 10.2 0 19.9 2.1 26 12.4l-6.5 4c-3.7-6.1-11.6-8.8-19.2-8.9zM591 73.2v28.1c4.1-6.4 10.6-8.5 16.7-8.6 13.6 0 20.3 9 20.3 22.3v26.6h-7.9v-26.5c0-9.5-4.9-14.9-13.7-14.9-8.8 0-15.3 7-15.3 15.8v25.7h-8V73.1l7.9.1zM659.4 141.9v-.1h-.1zM668.9 90.1c0-7.2 3.3-10.5 8.5-10.5h.3l1.8-6.9c-.8-.1-1.5-.2-2.3-.2C667 72.5 661 79 661 90.1v3.8h-9.5v7.1h9.5v40.7h7.9V101h9.6v-7.1h-9.6v-3.8zM709.8 135c-.6.1-1.3.2-1.9.2-5.8 0-7.6-3.6-7.6-9.3V101h10.3v-7h-10.2V79.2l-8 .9v13.8h-9.7v7h9.7v24.9c0 10.7 4.9 16.7 15.3 16.6 1.3 0 2.5-.2 3.7-.4l-1.6-7zM194.6 38.5L153.2 55h-38.7L74.9 38.3l9 54.3-8.6 29.4 22.5 13.5c10.7 6.4 20.2 14.3 28.4 23.7l8.8 10 9.2-10.6c7.9-9.1 17.1-16.8 27.3-23.1l22.1-13.5-8-29.4 9-54.1zm-27.4 91.7c-7.5 4.7-14.5 10.1-20.8 16.2l-7.7-8.4 28.5-7.8zm-36.4 7.8l-7.5 8.3c-6.4-6.1-13.4-11.4-20.9-16l28.4 7.7zm-7.4-9.1l-39.8-10.8L89 99.5l34.4 29.4zm-15-69.1L89.5 84.5l-5.8-35.1 24.7 10.4zM173 96.3l-38.3 33.4-39-33.4H173zm-78.7-6.9l21.2-27.6h36.7l23.5 27.6H94.3zm85.9 9.6l5.2 19.1-39.5 10.9 34.3-30zm5.7-49.7l-5.8 34.8-20.6-24.3 26.4-10.5z" fill="#fff"/></svg>
