<?xml version="1.0" encoding="UTF-8"?>
<svg width="216px" height="104px" viewBox="0 0 216 104" version="1.1" xmlns="http://www.w3.org/2000/svg" xmlns:xlink="http://www.w3.org/1999/xlink">
    <!-- Generator: Sketch 59 (86127) - https://sketch.com -->
    <title>Shapeshift-dark</title>
    <desc>Created with Sketch.</desc>
    <defs>
        <linearGradient x1="0%" y1="50%" x2="100%" y2="50%" id="linearGradient-1">
            <stop stop-color="#5C769B" offset="27%"></stop>
            <stop stop-color="#495F7D" offset="100%"></stop>
        </linearGradient>
        <linearGradient x1="100.08%" y1="-45.282%" x2="44.136%" y2="89.845%" id="linearGradient-2">
            <stop stop-color="#314259" offset="13%"></stop>
            <stop stop-color="#425774" offset="38%"></stop>
            <stop stop-color="#5C769B" offset="69%"></stop>
            <stop stop-color="#5A7498" offset="79%"></stop>
            <stop stop-color="#546C8F" offset="86%"></stop>
            <stop stop-color="#4A607F" offset="93%"></stop>
            <stop stop-color="#3C4F69" offset="98%"></stop>
            <stop stop-color="#374961" offset="100%"></stop>
        </linearGradient>
        <linearGradient x1="99.809%" y1="63.342%" x2="-4.606%" y2="7.408%" id="linearGradient-3">
            <stop stop-color="#5C769B" offset="0%"></stop>
            <stop stop-color="#5B7499" offset="48%"></stop>
            <stop stop-color="#566F92" offset="69%"></stop>
            <stop stop-color="#4F6685" offset="85%"></stop>
            <stop stop-color="#4A607E" offset="91%"></stop>
        </linearGradient>
        <linearGradient x1="728.331%" y1="50%" x2="-348.488%" y2="50%" id="linearGradient-4">
            <stop stop-color="#25344A" offset="25%"></stop>
            <stop stop-color="#2C3D55" offset="41%"></stop>
            <stop stop-color="#3F5471" offset="68%"></stop>
            <stop stop-color="#5C769B" offset="100%"></stop>
        </linearGradient>
        <linearGradient x1="-653.906%" y1="49.996%" x2="455.58%" y2="49.996%" id="linearGradient-5">
            <stop stop-color="#5C769B" offset="25%"></stop>
            <stop stop-color="#556D90" offset="41%"></stop>
            <stop stop-color="#425774" offset="69%"></stop>
            <stop stop-color="#28384E" offset="100%"></stop>
        </linearGradient>
        <linearGradient x1="50.987%" y1="-209.612%" x2="48.896%" y2="236.046%" id="linearGradient-6">
            <stop stop-color="#5C769B" offset="1%"></stop>
            <stop stop-color="#587195" offset="20%"></stop>
            <stop stop-color="#4D6485" offset="45%"></stop>
            <stop stop-color="#3B4E6A" offset="74%"></stop>
            <stop stop-color="#26354B" offset="100%"></stop>
        </linearGradient>
        <linearGradient x1="183.934%" y1="-95.776%" x2="-71.265%" y2="173.207%" id="linearGradient-7">
            <stop stop-color="#5C769B" offset="25%"></stop>
            <stop stop-color="#556E90" offset="41%"></stop>
            <stop stop-color="#425774" offset="69%"></stop>
            <stop stop-color="#27374C" offset="100%"></stop>
        </linearGradient>
        <linearGradient x1="-60.786%" y1="-60.281%" x2="153.26%" y2="146.989%" id="linearGradient-8">
            <stop stop-color="#5C769B" offset="25%"></stop>
            <stop stop-color="#556E90" offset="41%"></stop>
            <stop stop-color="#425774" offset="69%"></stop>
            <stop stop-color="#27374C" offset="100%"></stop>
        </linearGradient>
        <linearGradient x1="-19.379%" y1="31.605%" x2="154.799%" y2="103.778%" id="linearGradient-9">
            <stop stop-color="#5C769B" offset="27%"></stop>
            <stop stop-color="#495F7D" offset="100%"></stop>
        </linearGradient>
        <linearGradient x1="-71.29%" y1="-81.38%" x2="149.246%" y2="102.791%" id="linearGradient-10">
            <stop stop-color="#5C769B" stop-opacity="0" offset="46%"></stop>
            <stop stop-color="#597296" stop-opacity="0.06" offset="59%"></stop>
            <stop stop-color="#4E6586" stop-opacity="0.23" offset="71%"></stop>
            <stop stop-color="#3C506D" stop-opacity="0.53" offset="83%"></stop>
            <stop stop-color="#243349" stop-opacity="0.94" offset="95%"></stop>
            <stop stop-color="#202E43" offset="97%"></stop>
        </linearGradient>
        <linearGradient x1="50.156%" y1="296.046%" x2="50.156%" y2="-124.719%" id="linearGradient-11">
            <stop stop-color="#5C769B" offset="25%"></stop>
            <stop stop-color="#556E90" offset="41%"></stop>
            <stop stop-color="#425774" offset="69%"></stop>
            <stop stop-color="#27374C" offset="100%"></stop>
        </linearGradient>
    </defs>
    <g id="Shapeshift" stroke="none" stroke-width="1" fill="none" fill-rule="evenodd">
        <g id="Logo" transform="translate(31.000000, 26.000000)" fill-rule="nonzero">
            <path d="M41.192,29.674 C38.954,29.674 36.566,30.566 36.566,32.734 C36.566,34.664 38.753,35.231 41.343,35.664 C44.859,36.226 48.331,36.939 48.331,40.967 C48.306,44.968 44.534,46.268 41.167,46.268 C38.049,46.268 35.083,45.121 33.725,42.139 L35.535,41.069 C36.667,43.184 39.029,44.203 41.192,44.203 C43.328,44.203 46.174,43.515 46.174,40.89 C46.199,38.672 43.734,38.036 41.095,37.621 C37.701,37.086 34.409,36.296 34.409,32.677 C34.358,28.963 38.103,27.68 41.149,27.68 C43.765,27.68 46.253,28.217 47.812,30.918 L46.152,31.958 C45.187,30.414 43.152,29.701 41.192,29.674 L41.192,29.674 Z M51.92,28.095 L51.92,35.411 C52.977,33.752 54.636,33.192 56.22,33.167 C59.714,33.167 61.423,35.512 61.423,38.977 L61.423,45.909 L59.387,45.909 L59.387,39.004 C59.387,36.531 58.13,35.13 55.871,35.13 C53.611,35.13 51.95,36.94 51.95,39.233 L51.95,45.909 L49.885,45.909 L49.885,28.069 L51.92,28.069 L51.92,28.095 L51.92,28.095 Z M74.014,45.962 L73.962,43.668 C72.982,45.402 71.098,46.218 69.388,46.218 C65.818,46.218 63.028,43.718 63.028,39.615 C63.028,35.537 65.868,33.09 69.413,33.115 C71.273,33.115 73.108,33.983 74.013,35.615 L74.039,33.32 L76.048,33.32 L76.048,45.91 L74.064,45.91 L74.014,45.963 L74.014,45.962 Z M69.489,35.104 C67.024,35.104 65.039,36.887 65.039,39.692 C65.039,42.497 67.024,44.298 69.489,44.298 C75.472,44.298 75.472,35.07 69.514,35.07 L69.489,35.104 Z M77.699,33.37 L79.659,33.37 L79.759,35.792 C80.741,34.111 82.575,33.142 84.536,33.142 C88.106,33.218 90.721,35.767 90.721,39.64 C90.721,43.618 88.131,46.19 84.41,46.19 C82.652,46.19 80.69,45.427 79.71,43.643 L79.71,51.851 L77.699,51.851 L77.699,33.371 L77.699,33.37 Z M88.659,39.692 C88.659,36.862 86.823,35.18 84.285,35.18 C81.696,35.18 79.936,37.112 79.936,39.692 C79.936,42.273 81.771,44.203 84.286,44.23 C86.773,44.23 88.659,42.521 88.659,39.692 L88.659,39.692 Z M104.021,43.897 C102.764,45.402 100.603,46.14 98.665,46.14 C94.821,46.14 92.13,43.566 92.13,39.565 C92.13,35.767 94.82,33.039 98.566,33.039 C102.361,33.039 105.252,35.416 104.774,40.431 L94.217,40.431 C94.443,42.75 96.328,44.203 98.717,44.203 C100.125,44.203 101.833,43.643 102.663,42.623 L104.046,43.897 L104.021,43.897 L104.021,43.897 Z M102.814,38.697 C102.714,36.25 101.055,34.925 98.616,34.925 C96.454,34.925 94.569,36.25 94.22,38.67 L102.817,38.67 L102.814,38.697 Z" id="Shape" fill="#FFFFFF"></path>
            <path d="M113.17,29.674 C110.933,29.674 108.544,30.566 108.544,32.734 C108.544,34.664 110.732,35.231 113.321,35.664 C116.838,36.226 120.309,36.939 120.309,40.967 C120.284,44.968 116.514,46.268 113.145,46.268 C110.029,46.268 107.062,45.121 105.705,42.139 L107.515,41.069 C108.645,43.184 111.009,44.203 113.17,44.203 C115.307,44.203 118.152,43.515 118.152,40.89 C118.177,38.672 115.714,38.036 113.074,37.621 C109.676,37.092 106.379,36.301 106.379,32.686 C106.329,28.971 110.074,27.689 113.119,27.689 C115.733,27.689 118.222,28.226 119.78,30.927 L118.121,31.967 C117.167,30.414 115.131,29.701 113.171,29.674 L113.17,29.674 Z M123.9,28.095 L123.9,35.411 C124.955,33.752 126.616,33.192 128.2,33.167 C131.693,33.167 133.403,35.512 133.403,38.977 L133.403,45.909 L131.366,45.909 L131.366,39.004 C131.366,36.531 130.109,35.13 127.849,35.13 C125.589,35.13 123.929,36.94 123.929,39.233 L123.929,45.909 L121.864,45.909 L121.864,28.069 L123.9,28.069 L123.9,28.095 L123.9,28.095 Z M135.079,45.909 L137.141,45.909 L137.141,33.499 L135.079,33.499 L135.079,45.909 L135.079,45.909 Z M136.135,31.599 L134.503,29.787 L136.135,27.976 L137.766,29.787 L136.136,31.598 L136.135,31.599 Z M143.027,32.48 C143.027,30.592 143.881,29.751 145.213,29.751 L145.29,29.751 L145.755,27.955 C145.560737,27.9288839 145.365007,27.9151894 145.169,27.914 C142.555,27.914 140.996,29.595 140.996,32.476 L140.996,33.47 L138.552,33.47 L138.552,35.305 L140.99,35.305 L140.99,45.909 L143.027,45.909 L143.027,35.308 L145.493,35.308 L145.493,33.473 L143.027,33.473 L143.027,32.479 L143.027,32.48 Z M153.499,44.161 C153.341,44.188 153.181,44.202 153.021,44.203 C151.538,44.203 151.061,43.261 151.061,41.783 L151.061,35.292 L153.698,35.292 L153.698,33.48 L151.078,33.48 L151.078,29.648 L149.018,29.878 L149.018,33.48 L146.528,33.48 L146.528,35.29 L149.018,35.29 L149.018,41.782 C149.018,44.559 150.275,46.139 152.939,46.09 C153.262,46.08 153.583,46.042 153.899,45.974 L153.499,44.16 L153.499,44.161 Z" id="Shape" fill="#FFFFFF"></path>
            <polygon id="Path" fill="url(#linearGradient-1)" points="0.006 28.135 0 34.723 8.904 48.797 18.452 51.867 25.44 47.369"></polygon>
            <polygon id="Path" fill="url(#linearGradient-2)" points="14.344 15.031 0.02 27.781 19.985 39.435 20.059 15.415"></polygon>
            <polygon id="Path" fill="#4C6382" points="12.304 22.916 20.002 43.76 20.057 24.08"></polygon>
            <polygon id="Path" fill="#3B4E68" points="27.702 22.991 20.002 43.761 20.057 24.081"></polygon>
            <polygon id="Path" fill="url(#linearGradient-3)" points="33.827 0.012 26.186 4.08 20.068 5.44 13.9 4.08 6.279 0 8.904 12.297 6.404 19.203 15.151 24.707 20.02 30.055 20.02 30.105 20.042 30.08 20.065 30.105 20.065 30.055 24.935 24.707 33.697 19.207 31.21 12.307"></polygon>
            <polygon id="Path" fill="url(#linearGradient-4)" points="33.827 0.012 31.704 12.332 33.697 19.207 31.21 12.307"></polygon>
            <polygon id="Path" fill="url(#linearGradient-5)" points="6.279 0 8.417 12.323 6.405 19.203 8.905 12.297"></polygon>
            <polygon id="Path" fill="url(#linearGradient-6)" points="6.279 0 15.174 3.77 24.936 3.77 33.827 0.011 26.186 4.08 20.068 5.44 13.9 4.08"></polygon>
            <polygon id="Path" fill="url(#linearGradient-7)" points="8.904 12.297 8.462 13.527 17.692 4.91"></polygon>
            <polygon id="Path" fill="url(#linearGradient-8)" points="31.21 12.308 22.461 4.91 31.631 13.472"></polygon>
            <polygon id="Path" fill="url(#linearGradient-9)" points="0.02 27.781 21.476 39.787 24.195 46.672 18.445 48.898 9.496 47.953 0.015 34.723"></polygon>
            <polygon id="Path" fill="#FFFFFF" points="17.775 37.728 9.52 47.923 9.496 47.953 18.433 50.999 18.445 51.002 25.425 47.376 25.44 47.369 25.44 41.991"></polygon>
            <polygon id="Path" fill="url(#linearGradient-10)" points="31.21 12.308 33.827 0.012 26.186 4.08 22.461 4.91"></polygon>
            <polygon id="Path" fill="#FFFFFF" points="20.06 30.105 17.629 27.407 20.059 24.709 22.49 27.407"></polygon>
            <polygon id="Path" fill="url(#linearGradient-11)" points="19.822 5.386 20.068 5.441 20.291 5.391 20.053 21.091"></polygon>
        </g>
    </g>
</svg>