<?xml version="1.0" encoding="UTF-8"?>
<svg width="216px" height="104px" viewBox="0 0 216 104" version="1.1" xmlns="http://www.w3.org/2000/svg" xmlns:xlink="http://www.w3.org/1999/xlink">
    <!-- Generator: Sketch 59 (86127) - https://sketch.com -->
    <title>Simplex-dark</title>
    <desc>Created with Sketch.</desc>
    <g id="Simplex" stroke="none" stroke-width="1" fill="none" fill-rule="evenodd">
        <g id="Logo" transform="translate(28.000000, 27.000000)" fill-rule="nonzero">
            <path d="M30.6854167,49.6625253 C29.746192,49.6662902 28.8557547,49.2446251 28.2635417,48.515625 C27.8331683,47.984576 27.5959068,47.3231082 27.590625,46.6395833 L14.3625,43.6666667 C13.834093,44.7118806 12.7607647,45.3691027 11.5895833,45.3645833 C10.6416667,45.3645833 9.759375,44.9479167 9.16875,44.21875 C8.65989816,43.5933191 8.42340332,42.7898019 8.51231353,41.9884349 C8.60122375,41.187068 9.00809661,40.4549313 9.64166667,39.95625 L3.75833333,27.9375 C3.53960896,27.9847168 3.31647107,28.0084623 3.09270833,28.0083333 C2.14479167,28.0083333 1.2625,27.5916667 0.673958333,26.8645833 C0.163684094,26.2356605 -0.0719640729,25.4278177 0.02014,24.6231808 C0.112244094,23.8185439 0.524347115,23.084847 1.16354167,22.5875 C1.71143275,22.1562037 2.38918345,21.9230663 3.08645833,21.9260417 C3.31354167,21.9260417 3.53958333,21.95 3.76145833,21.9989583 L9.65,9.978125 C8.82796209,9.33578826 8.40069255,8.31105216 8.52291667,7.275 C8.61427811,6.46846642 9.02746045,5.73300186 9.66875,5.23541667 C10.2177257,4.80292197 10.8969643,4.56904362 11.5958333,4.571875 C12.54375,4.571875 13.4270833,4.98854167 14.0177083,5.71770833 C14.153125,5.884375 14.271875,6.071875 14.371875,6.27395833 L27.5979167,3.30729167 C27.6025874,2.38492815 28.0312969,1.51598474 28.7604167,0.951041667 C29.309255,0.518173562 29.9885066,0.283923583 30.6875,0.286437977 C31.6354167,0.286437977 32.51875,0.704166667 33.109375,1.43333333 C33.84375,2.33958333 33.9875,3.58229167 33.4875,4.62708333 L44.096875,12.9520833 C44.6424239,12.5290176 45.3138032,12.3005799 46.0041667,12.303125 C46.953125,12.303125 47.8354167,12.7208333 48.4260417,13.4489583 C48.9366492,14.077941 49.1724988,14.8860227 49.0803876,15.6909171 C48.9882766,16.4958114 48.5759638,17.2297181 47.9364583,17.7270833 C47.5781211,18.0082454 47.1618709,18.206409 46.7177083,18.3072917 L46.7145833,31.6447917 C47.3885417,31.8010417 47.9927083,32.1760417 48.4229167,32.709375 C48.9336323,33.3382066 49.1694595,34.1462817 49.0771383,34.9511024 C48.9848172,35.7559231 48.5721346,36.4896075 47.9322917,36.9864583 C47.3836757,37.4188767 46.7047895,37.6527601 46.00625,37.65 C45.3142665,37.6507659 44.6414673,37.4225929 44.0927083,37.0010417 L33.4833333,45.3197917 C34.0921603,46.5980649 33.7304286,48.1277349 32.6135417,48.9979167 C32.0647033,49.4307848 31.3854518,49.6650348 30.6864583,49.6625253 L30.6854167,49.6625253 L30.6854167,49.6625253 Z M22.015625,9.23645833 L27.8,4.7 L14.8,7.61666667 L22.015625,9.23645833 Z M26.515625,10.2479167 L28.7,5.78854167 L23.7916667,9.63541667 L26.5135417,10.246875 L26.515625,10.2479167 L26.515625,10.2479167 Z M29.9791667,11.0260417 L29.9802083,6.403125 L27.940625,10.5677083 L29.9791667,11.0260417 L29.9791667,11.0260417 Z M34.1229167,11.95625 L31.4052083,6.40833333 L31.4052083,11.3458333 L34.1229167,11.95625 L34.1229167,11.95625 Z M18.4104167,12.0635417 L20.5895833,10.3552083 L14.4833333,8.98229167 L18.4104167,12.0635417 Z M43.11875,13.978125 L32.6854167,5.790625 L35.9,12.35625 L43.11875,13.978125 Z M15.6322917,14.2427083 L17.2677083,12.9604167 L13.59375,10.078125 L15.6322917,14.2427083 L15.6322917,14.2427083 Z M23.621875,16.153125 L25.8802083,11.5427083 L22.3666667,10.7541667 L19.5541667,12.9604167 L23.6229167,16.153125 L23.621875,16.153125 L23.621875,16.153125 Z M37.9010417,16.4447917 L42.8020833,15.3447917 L36.690625,13.971875 L37.9010417,16.44375 L37.9010417,16.4447917 L37.9010417,16.4447917 Z M12.309375,16.8489583 L14.4885417,15.1395833 L12.3104167,10.6875 L12.309375,16.8489583 L12.309375,16.8489583 Z M31.403125,17.9010417 L36.4760417,16.7635417 L34.9135417,13.5729167 L31.4041667,12.784375 L31.4041667,17.9010417 L31.403125,17.9010417 Z M27.0864583,18.8697917 L29.978125,18.2208333 L29.978125,12.4645833 L27.30625,11.8635417 L24.7645833,17.0489583 L27.0875,18.8697917 L27.0864583,18.8697917 L27.0864583,18.8697917 Z M39.44375,19.5927083 L43.1197917,16.7114583 L38.5364583,17.7395833 L39.4427083,19.59375 L39.44375,19.5927083 L39.44375,19.5927083 Z M23.4770833,19.6791667 L25.309375,19.26875 L24.13125,18.34375 L23.4770833,19.6791667 Z M18.8052083,20.7270833 L21.7,20.078125 L22.9885417,17.4479167 L18.4104167,13.85625 L16.2666667,15.5385417 L18.8052083,20.7270833 L18.8052083,20.7270833 Z M29.9770833,21.1375 L29.9770833,19.6583333 L28.5114583,19.9875 L29.9770833,21.1375 Z M12.3083333,22.184375 L17.3802083,21.046875 L15.1229167,16.4354167 L12.3083333,18.6416667 L12.3083333,22.184375 Z M5.09479167,22.5072917 L10.8833333,17.965625 L10.884375,10.6864583 L5.09479167,22.50625 L5.09479167,22.5072917 Z M20.0927083,23.3583333 L20.9083333,21.6927083 L19.4395833,22.0229167 L20.0927083,23.3583333 Z M41.2875,23.359375 L44.0072917,17.8072917 L40.078125,20.8885417 L41.2864583,23.359375 L41.2875,23.359375 L41.2875,23.359375 Z M5.98229167,23.603125 L10.8822917,22.5041667 L10.8822917,19.7604167 L5.98229167,23.6041667 L5.98229167,23.603125 Z M33.7239583,24.0770833 L38.3010417,20.4895833 L37.1104167,18.059375 L31.4020833,19.3395833 L31.4020833,22.25625 L33.725,24.0770833 L33.7239583,24.0770833 Z M31.4010417,25.8979167 L32.58125,24.9739583 L31.4020833,24.0479167 L31.4020833,25.8979167 L31.4010417,25.8979167 L31.4010417,25.8979167 Z M10.88125,25.9989583 L10.8822917,23.9416667 L6.3,24.9697917 L10.88125,25.9989583 L10.88125,25.9989583 Z M18.0145833,27.6010417 L19.3010417,24.9739583 L18.0135417,22.3427083 L12.3083333,23.6229167 L12.3072917,26.31875 L18.0145833,27.6 L18.0145833,27.6010417 L18.0145833,27.6010417 Z M38.934375,28.1635417 L40.496875,24.9739583 L38.934375,21.7854167 L34.8677083,24.9739583 L38.934375,28.1635417 Z M20.9052083,28.25 L20.0927083,26.5895833 L19.4395833,27.9208333 L20.9052083,28.25 L20.9052083,28.25 Z M26.7322917,29.559375 L29.9760417,27.0166667 L29.9760417,22.9302083 L26.734375,20.3864583 L22.6854167,21.2947917 L20.8833333,24.9739583 L22.6822917,28.65 L26.7322917,29.559375 Z M10.88125,30.18125 L10.88125,27.4375 L5.98125,26.3364583 L10.88125,30.18125 Z M29.975,30.2875 L29.975,28.809375 L28.5104167,29.9583333 L29.975,30.2875 L29.975,30.2875 Z M45.2895833,31.5322917 L45.2916667,18.415625 L42.078125,24.975 L45.2895833,31.5322917 Z M24.1270833,31.6020833 L25.3072917,30.6770833 L23.4729167,30.2645833 L24.1270833,31.6020833 L24.1270833,31.6020833 Z M37.1083333,31.8895833 L38.3,29.459375 L33.7239583,25.8697917 L31.4010417,27.6927083 L31.4010417,30.6072917 L37.109375,31.8895833 L37.1083333,31.8895833 L37.1083333,31.8895833 Z M44.0072917,32.14375 L41.2875,26.5895833 L40.0770833,29.0604167 L44.0072917,32.14375 L44.0072917,32.14375 Z M43.11875,33.2395833 L39.4416667,30.3552083 L38.534375,32.209375 L43.1177083,33.240625 L43.11875,33.2395833 L43.11875,33.2395833 Z M15.1208333,33.5083333 L17.3791667,28.896875 L12.30625,27.7572917 L12.30625,31.2989583 L15.1208333,33.5083333 L15.1208333,33.5083333 Z M36.6875,35.9770833 L42.8020833,34.60625 L37.8989583,33.5052083 L36.6875,35.978125 L36.6875,35.9770833 Z M18.40625,36.0875 L22.9833333,32.4989583 L21.6947917,29.865625 L18.8052083,29.2166667 L16.2635417,34.4052083 L18.40625,36.0875 Z M31.3989583,37.1645833 L34.9104167,36.3770833 L36.4729167,33.1854167 L31.4,32.0458333 L31.3989583,37.1645833 Z M27.2989583,38.084375 L29.9729167,37.484375 L29.975,31.7260417 L27.0833333,31.0760417 L24.7604167,32.8979167 L27.2979167,38.084375 L27.2989583,38.084375 L27.2989583,38.084375 Z M22.3625,39.1916667 L25.8729167,38.4041667 L23.6177083,33.79375 L19.5489583,36.984375 L22.3625,39.1916667 L22.3625,39.1916667 Z M10.8802083,39.25625 L10.8802083,31.975 L5.09375,27.4333333 L10.8802083,39.25625 Z M12.3052083,39.2552083 L14.4864583,34.8041667 L12.30625,33.0927083 L12.3052083,39.25625 L12.3052083,39.2552083 L12.3052083,39.2552083 Z M13.5885417,39.8645833 L17.2635417,36.9833333 L15.628125,35.7010417 L13.5885417,39.8645833 Z M14.478125,40.9604167 L20.5854167,39.590625 L18.40625,37.8802083 L14.478125,40.9604167 L14.478125,40.9604167 Z M29.971875,43.546875 L29.9729167,38.921875 L27.9333333,39.3802083 L29.971875,43.546875 L29.971875,43.546875 Z M31.3979167,43.546875 L34.11875,37.9916667 L31.3989583,38.6020833 L31.3979167,43.5479167 L31.3979167,43.546875 L31.3979167,43.546875 Z M28.6875,44.1541667 L26.5072917,39.7 L23.7885417,40.309375 L28.6875,44.1541667 Z M32.68125,44.1552083 L43.11875,35.9729167 L35.896875,37.5927083 L32.68125,44.1552083 L32.68125,44.1552083 Z M27.7947917,45.2479167 L22.0104167,40.7083333 L14.79375,42.3270833 L27.79375,45.2479167 L27.7947917,45.2479167 L27.7947917,45.2479167 Z" id="Shape" fill="#43B02A"></path>
            <path d="M60.653125,23.6291667 C61.6645833,24.0989583 62.7041667,24.2104167 64.3895833,24.2375 C68.8,24.3208333 70.4010417,25.3697917 70.4010417,27.9125 C70.4068047,28.5062918 70.2722498,29.0930507 70.0083333,29.625 C69.7552083,30.121875 69.2208333,30.646875 68.4625,31.171875 C67.7041667,31.696875 66.384375,31.9458333 64.5020833,31.9458333 C61.8333333,31.9458333 59.8666667,31.3104167 58.5458333,30.0114583 C58.4022428,29.8609262 58.3134551,29.6664736 58.29375,29.459375 C58.321875,28.9895833 58.5458333,28.7677083 58.9677083,28.7677083 C59.1927083,28.7677083 59.3614583,28.8239583 59.5010417,28.9625 C60.484375,30.0395833 62.2552083,30.646875 64.4177083,30.646875 C67.3395833,30.646875 68.96875,29.6520833 68.96875,27.884375 C68.996875,27.0822917 68.74375,26.5583333 68.2104167,26.2822917 C67.1708333,25.7302083 66.046875,25.590625 64.2489583,25.5635417 C59.978125,25.4802083 58.51875,24.5416667 58.51875,22.1927083 C58.51875,19.70625 60.79375,18.13125 64.3052083,18.13125 C66.46875,18.13125 68.2385417,18.7385417 69.5583333,19.871875 C69.7097172,20.0146546 69.7917897,20.2160363 69.7833333,20.4239583 C69.7552083,20.8385417 69.5302083,21.0875 69.1375,21.115625 C68.9125,21.115625 68.715625,21.0604167 68.575,20.921875 C67.5645833,19.9552083 66.075,19.4572917 64.3895833,19.4572917 C63.715625,19.4572917 63.0979167,19.5125 62.5635417,19.6510417 C61.959271,19.8154003 61.3820684,20.0666325 60.85,20.396875 C60.2604167,20.75625 59.9791667,21.3364583 59.9510417,22.1927083 C59.9229167,22.9114583 60.1760417,23.3802083 60.653125,23.6302083 L60.653125,23.6291667 L60.653125,23.6291667 Z M102.029167,24.04375 L102.029167,31.00625 C102.029167,31.5041667 101.804167,31.7520833 101.327083,31.7802083 C100.848958,31.7520833 100.595833,31.5041667 100.595833,31.00625 L100.595833,24.1822917 C100.595833,21.0885417 99.2760417,19.4572917 96.7197917,19.4572917 C94.1354167,19.4572917 92.4770833,21.4739583 92.4770833,24.7072917 L92.4770833,31.00625 C92.4770833,31.5041667 92.253125,31.7520833 91.775,31.7802083 C91.2979167,31.7520833 91.0447917,31.5041667 91.0447917,31.00625 L91.0447917,24.1822917 C91.0447917,21.0885417 89.725,19.4572917 87.16875,19.4572917 C84.55625,19.4572917 82.9260417,21.4739583 82.9260417,24.7072917 L82.9260417,31.00625 C82.9260417,31.5041667 82.6739583,31.7520833 82.196875,31.7802083 C81.746875,31.7520833 81.521875,31.5041667 81.49375,31.00625 L81.49375,19.0979167 C81.521875,18.5729167 81.746875,18.325 82.1958333,18.296875 C82.6739583,18.325 82.9260417,18.5729167 82.9260417,19.0989583 L82.9260417,20.5354167 L82.9822917,20.5354167 C83.88125,18.9875 85.4270833,18.13125 87.4208333,18.13125 C89.66875,18.13125 91.1854167,19.1260417 91.94375,20.9770833 L92,20.9770833 C92.8989583,19.2083333 94.528125,18.13125 96.9166667,18.13125 C100.315625,18.13125 102.029167,20.2041667 102.029167,24.04375 L102.029167,24.04375 Z M119.775,25.0385417 C119.775,21.7229167 117.55625,19.4572917 114.241667,19.4572917 C110.954167,19.4572917 108.651042,21.7229167 108.651042,25.0385417 C108.651042,28.3541667 110.954167,30.6197917 114.241667,30.6197917 C117.55625,30.6197917 119.775,28.3541667 119.775,25.0385417 Z M108.65,19.0989583 L108.65,21.0052083 L108.707292,21.0052083 C108.988542,20.5354167 109.325,20.1479167 109.690625,19.7895833 C110.083333,19.4302083 110.645833,19.0708333 111.376042,18.7114583 C112.105208,18.325 113.117708,18.13125 114.438542,18.13125 C116.460417,18.13125 118.146875,18.821875 119.354167,20.0375 C121.152083,22.0270833 121.152083,23.6291667 121.236458,25.0385417 C121.236458,26.0614583 121.095833,26.8895833 120.617708,28.1885417 C119.8875,30.0947917 117.415625,32.05625 114.4375,31.9458333 C113.117708,31.9458333 112.10625,31.7520833 111.375,31.39375 C109.914583,30.6197917 109.26875,29.984375 108.707292,29.0729167 L108.651042,29.0729167 L108.651042,36.1458333 C108.651042,36.6427083 108.426042,36.8916667 107.947917,36.91875 C107.470833,36.8916667 107.21875,36.6427083 107.21875,36.1458333 L107.21875,19.0989583 C107.21875,18.5739583 107.470833,18.325 107.947917,18.296875 C108.427083,18.325 108.651042,18.5739583 108.651042,19.0989583 L108.65,19.0989583 Z M126.989583,12.8822917 L126.989583,31.00625 C126.989583,31.503125 126.7375,31.7520833 126.260417,31.7802083 C125.810417,31.7520833 125.585417,31.503125 125.557292,31.00625 L125.557292,12.88125 C125.585417,12.384375 125.810417,12.1364583 126.259375,12.1083333 C126.738542,12.1364583 126.990625,12.384375 126.990625,12.8822917 L126.989583,12.8822917 Z M132.682292,24.2375 L143.721875,24.2375 C143.357292,21.3645833 141.25,19.4572917 138.215625,19.4572917 C135.126042,19.4572917 133.046875,21.3635417 132.682292,24.2375 L132.682292,24.2375 Z M144.228125,25.5364583 L132.654167,25.5364583 C132.878125,28.575 135.013542,30.6197917 138.357292,30.6197917 C140.351042,30.6197917 141.895833,29.8177083 142.907292,28.575 C143.029086,28.4005961 143.228951,28.2973521 143.441667,28.2989583 C143.91875,28.3260417 144.170833,28.575 144.170833,29.0447917 C144.17332,29.2214257 144.102404,29.3911731 143.975,29.5135417 C142.683333,31.00625 140.801042,31.9458333 138.357292,31.9458333 C136.19375,31.9458333 134.395833,31.2541667 133.13125,30.0395833 C131.277083,28.05 131.220833,26.4479167 131.165625,25.0395833 C131.165625,24.0166667 131.277083,23.159375 131.811458,21.9166667 C132.597917,19.9822917 135.097917,17.9927083 138.215625,18.13125 C142.233333,18.13125 145.098958,20.8666667 145.098958,24.7072917 C145.070833,25.23125 144.761458,25.5083333 144.228125,25.5364583 L144.228125,25.5364583 Z M159.973958,30.48125 C160.141234,30.6386453 160.233333,30.8599848 160.227083,31.0895833 C160.198958,31.53125 159.945833,31.7520833 159.46875,31.7802083 C159.24375,31.7802083 159.046875,31.6697917 158.878125,31.4760417 L153.794792,25.8947917 L148.653125,31.503125 C148.524348,31.6844336 148.312854,31.7886143 148.090625,31.7802083 C147.642708,31.7520833 147.416667,31.503125 147.388542,31.0614583 C147.380967,30.8752439 147.452925,30.6945915 147.586458,30.5645833 L152.810417,24.9833333 L147.782292,19.5958333 C147.613542,19.4020833 147.529167,19.2083333 147.529167,18.9875 C147.557292,18.5458333 147.810417,18.325 148.2875,18.296875 C148.5125,18.296875 148.709375,18.4083333 148.878125,18.6010417 L153.821875,24.071875 L158.79375,18.5729167 C158.930712,18.401634 159.13697,18.3004146 159.35625,18.296875 C159.805208,18.325 160.030208,18.5729167 160.058333,19.015625 C160.065652,19.2015918 159.994163,19.3820142 159.861458,19.5125 L154.805208,24.95625 L159.973958,30.48125 L159.973958,30.48125 Z" id="Shape" fill="#FFFFFF"></path>
            <path d="M78.7114583,15.3072917 C78.7114583,13.6770833 77.3677083,12.35625 75.7104167,12.35625 C74.053125,12.35625 72.7104167,13.6770833 72.7104167,15.3072917 C72.7104167,16.6927083 73.6833333,17.853125 74.99375,18.1697917 L74.99375,31.00625 C75.021875,31.503125 75.246875,31.7520833 75.696875,31.7802083 C76.1739583,31.7520833 76.4260417,31.503125 76.4260417,31.00625 L76.4260417,18.1697917 C77.7375,17.853125 78.7114583,16.69375 78.7114583,15.3072917" id="Path" fill="#43B02A"></path>
        </g>
    </g>
</svg>