<svg id="Calque_1" data-name="Calque 1" xmlns="http://www.w3.org/2000/svg" viewBox="0 0 216 104"><defs><style>.cls-1{fill:#fff;fill-rule:evenodd;}</style></defs><title>swft</title><path class="cls-1" d="M55.54,21.49a12.57,12.57,0,0,1,3.81,1.63.65.65,0,0,1,0-.18c-2.69-2.3-5.68-3.76-9.32-3.48a5.49,5.49,0,0,0-2.77.76,1.4,1.4,0,0,0,1.08,2.57,8.81,8.81,0,0,0,1.16-.47c.21-.1.42-.2.64-.28l.44-.2a7.63,7.63,0,0,1,1.33-.49A8.43,8.43,0,0,1,55.54,21.49ZM77.89,34.3l.3.06-.09-.18v0L78,33.91a29.51,29.51,0,0,0-7-7.59,13.29,13.29,0,0,0-8.76-3,9.15,9.15,0,0,0-5.6,2.09,8.74,8.74,0,0,0-2.79,5.19c-.21,1.11-.36,2.22-.5,3.34-.09.68-.18,1.36-.28,2a8.6,8.6,0,0,1-4.83,6.91c-1.75.86-3.47,1.81-5.15,2.79a28,28,0,0,0-10,9.61,32.61,32.61,0,0,0-4.39,16.09,59.5,59.5,0,0,0,.86,12c0,.25.09.49.14.74h0l.09.5a1,1,0,0,0,.23-.46,11.73,11.73,0,0,1,2.71-5.23,14.12,14.12,0,0,1,7.46-4.43c1.87-.45,3.76-.78,5.64-1.12h0c1.11-.19,2.22-.39,3.32-.61l1.73-.33a47.46,47.46,0,0,0,5.31-1.2A16.21,16.21,0,0,0,66,63a17.69,17.69,0,0,0,1.75-7.8,33.15,33.15,0,0,0-1.07-9.56c-.22-.85-.48-1.7-.74-2.54h0c-.25-.84-.51-1.69-.73-2.54a8.16,8.16,0,0,1-.15-4,2.61,2.61,0,0,1,1.54-1.82,14.43,14.43,0,0,1,8.89-.91ZM36.37,68.85c-.18.18-.38.36-.58.54,0-.15.05-.3.07-.45h0c.08-.5.15-1,.26-1.49A24.4,24.4,0,0,1,40.49,57.1a14.54,14.54,0,0,1,8.86-5.78,8.09,8.09,0,0,1,7.57,2,6.73,6.73,0,0,1,1.73,7.63,7.34,7.34,0,0,1-6.57,5,34.37,34.37,0,0,1-6.65-.13,11,11,0,0,0-8,2.16C37.08,68.18,36.74,68.5,36.37,68.85ZM70.76,31.12A8.91,8.91,0,0,1,74,32.31h0c-2.8-.08-5.58-.16-8.17,1.5.1-.21.17-.35.24-.48A4.59,4.59,0,0,1,70.76,31.12Zm37.86,24.11h0l-.08,0h0c0-.08,0-.17,0-.25s0-.25,0-.37c-.06-.55-.11-1.1-.16-1.64h0c-.06-.55-.11-1.1-.16-1.65l-.36-3.52-.36-3.51c-.09-1-.19-2-.29-3v0c-.09-1-.19-2-.29-2.94a1.39,1.39,0,0,0-1.19-1.27,4.75,4.75,0,0,0-.84-.06h-4.67c-4.15,0-8.3,0-12.45,0a15,15,0,0,0-3.47.45c-3.61.9-6.57,3.75-6.29,8.27A5.57,5.57,0,0,0,79.08,49a8.22,8.22,0,0,0,3.72,2.51c.55.21,1.12.38,1.68.56h0c.66.21,1.32.42,2,.67A12,12,0,0,1,88.81,54,2.12,2.12,0,0,1,89,57.24a3.73,3.73,0,0,1-2.69,1l-4.39,0c-1.76,0-3.52,0-5.27,0a4.49,4.49,0,0,0-4.2,2.52c-.4.74-.79,1.49-1.18,2.24a3,3,0,0,0-.13.3l-.08.21h4.68c3.28,0,6.56,0,9.85,0a15.36,15.36,0,0,0,2.87-.3c4-.81,6.42-3.51,6.74-7,.28-3.06-.52-5.42-3.66-7a14.11,14.11,0,0,0-2.17-.83c-.4-.13-.81-.26-1.21-.41l-.12-.05-.11,0-.35-.12h0c-1-.34-1.89-.69-2.8-1.11a2.14,2.14,0,0,1,.11-3.82,5,5,0,0,1,1.91-.54c3.22,0,6.44,0,9.66,0h4.84c.42,0,.55.17.6.57.13,1.26.29,2.51.44,3.76h0c.06.45.11.9.17,1.35.28,2.48.58,4.94.87,7.41h0l.1.8c.1.87.21,1.75.31,2.62.16,1.31.31,2.62.46,3.93.06.47.22.66.73.65,1.43,0,2.84,0,4.27,0a1.12,1.12,0,0,0,1.16-.69q3.5-6.57,7-13.12h0l.35-.66.93-1.72.17-.33.54-1c0-.06.07-.11.1-.18l0,0,0,0,0,0c0-.07.09-.15.14-.25l0,.21q0,.09,0,.15l.15,1.3h0l.06.56.09.74c.16,1.42.33,2.84.5,4.26s.33,2.84.49,4.26l.24,2c.16,1.35.32,2.69.47,4,0,.42.22.53.63.53,1.61,0,3.21,0,4.83,0a.85.85,0,0,0,.87-.53q4.94-9.37,9.89-18.74c1.13-2.16,2.27-4.31,3.41-6.47l.07-.14,0,0a.54.54,0,0,1,.05-.11h0c0-.08.07-.16.11-.25l-.18,0h0a2.68,2.68,0,0,0-.35,0h-2.07a4.65,4.65,0,0,0-4.33,2.69l-4.51,8.54h0l-3.33,6.3,0,.05s0,0,0,0l-.1.16h0l0,0,0,0,0,.07,0,.06,0,.05c0-.08,0-.15,0-.21a2.23,2.23,0,0,1-.07-.36l-.15-1.24-.09-.78h0c-.08-.68-.15-1.35-.23-2-.51-4.32-1-8.65-1.5-13,0-.36-.18-.48-.53-.48h-1.36c-.61,0-1.22,0-1.83,0a4.36,4.36,0,0,0-3.93,2.52q-2,3.81-4,7.62l-4,7.63C108.79,55,108.71,55.09,108.62,55.23Zm27.17,8.23.15-.31c.05-.11.09-.2.14-.29,1.23-2.33,2.48-4.67,3.72-7l0-.07,0-.06q4.8-9,9.58-18.08a1,1,0,0,1,1.05-.63h36.2l.43,0,.25,0,0,.08v0a.14.14,0,0,1,0,.07.8.8,0,0,1-.06.2l-.21.42h0c-.29.61-.59,1.21-.92,1.8a4.08,4.08,0,0,1-3.67,2.2q-2.37,0-4.74,0a.87.87,0,0,0-.91.54l-4.58,8.65h0c-1.7,3.22-3.41,6.43-5.1,9.65a4.67,4.67,0,0,1-4.52,2.75h-2.65c2-4,4-7.9,6-11.84l5-9.69-.27,0-.3,0H153.71a.72.72,0,0,0-.74.42q-1.28,2.41-2.57,4.81h0l0,0-1,1.88a1.56,1.56,0,0,0-.13.26c0,.08-.07.16-.12.27h11.72l-.06.13a1.12,1.12,0,0,0-.05.13h0c-.06.13-.1.23-.15.32s-.15.31-.23.47L159.66,52a3.65,3.65,0,0,1-3.49,2.17c-2.94,0-5.89,0-8.82,0a1.1,1.1,0,0,0-1.12.67c-.78,1.51-1.58,3-2.38,4.49h0l-.48.88-.45.83a4.27,4.27,0,0,1-4.06,2.44c-.78,0-1.56,0-2.4,0ZM77.64,73.32a1.23,1.23,0,0,1-.2-.13,1.73,1.73,0,0,1,.28-.16A2.14,2.14,0,0,0,79,70.86a2.33,2.33,0,0,0-2.22-2.33,35.41,35.41,0,0,0-3.57-.18c-.51,0-1,0-1.52,0-.31,0-.31.21-.31.43v0q0,4.6,0,9.19c0,.36.1.51.48.5h3.89a3.94,3.94,0,0,0,2.21-.65,2.75,2.75,0,0,0,1.25-2.66A2,2,0,0,0,77.64,73.32ZM75.2,76.65h0l-.38,0H74.4c-.34,0-.52,0-.6-.11s-.08-.26-.08-.6h0v-.74c0-.21,0-.43,0-.65a.35.35,0,0,1,.4-.41h.24c.5,0,1,0,1.48.06a.93.93,0,0,1,1,.94c0,.73-.19,1.2-.79,1.36A4.38,4.38,0,0,1,75.2,76.65Zm-1.49-5.07V71.3c0-.59,0-.89.15-1s.45-.14,1-.14h.47c.83.09,1.19.47,1.19,1.22s-.4,1.14-1.22,1.18c-.26,0-.54,0-.81,0h-.41c-.28,0-.43-.11-.42-.42a5.23,5.23,0,0,0,0-.56ZM182.2,74.06V69h0c0-.34,0-.51.08-.6s.27-.09.65-.08h.66c.37,0,.55,0,.64.09s.08.25.08.58c0,.1,0,.2,0,.33,0,1.89,0,3.79,0,5.69v2.84c0,.59,0,.59-.5.63h-.12a1.89,1.89,0,0,1-1.85-.88c-.83-1.11-1.7-2.19-2.56-3.27h0c-.44-.54-.87-1.08-1.3-1.63l-.13-.16-.26-.29c0,.23,0,.36,0,.49v5.11c0,.3,0,.46-.08.53s-.23.09-.55.09h-.84c-.32,0-.48,0-.55-.08s-.08-.23-.08-.54V71h0v0c0-.71,0-1.42,0-2.13,0-.36.12-.47.48-.51a2,2,0,0,1,2,.93c.87,1.18,1.79,2.32,2.71,3.47h0L181.72,74l.19.22h0c.07.07.13.15.19.22l.1-.06ZM92.37,73.4a5.3,5.3,0,1,0,5.38-5.19A5,5,0,0,0,92.37,73.4Zm8,.79a2.55,2.55,0,0,1-2.74,2.39c-1.74,0-2.77-1.07-2.85-3A5.2,5.2,0,0,1,95,72.36a2.59,2.59,0,0,1,3-2.14,2.56,2.56,0,0,1,2.5,2.35A6.76,6.76,0,0,1,100.42,74.19Zm51-.78v1.13c0,1.13,0,2.25,0,3.38,0,.43-.14.58-.57.55a11.06,11.06,0,0,0-1.41,0c-.34,0-.47-.13-.47-.46,0-.69,0-1.37,0-2.06v-1c0-.67,0-.7-.67-.7h-.79c-.66,0-1.32,0-2,0-.44,0-.61.13-.6.59s0,1,0,1.57,0,1,0,1.58-.13.55-.54.53a14.22,14.22,0,0,0-1.46,0c-.33,0-.45-.12-.45-.44,0-.51,0-1,0-1.52h0V69c0-.67,0-.68.69-.68h1.26c.37,0,.5.13.49.5q0,.8,0,1.59h0c0,.53,0,1.06,0,1.59s.11.56.54.55c1,0,2,0,2.95,0,.44,0,.56-.17.56-.58s0-1,0-1.55,0-1,0-1.55.15-.59.59-.56a10.29,10.29,0,0,0,1.36,0c.39,0,.51.14.5.53,0,1.13,0,2.27,0,3.42ZM126,70.49h0c.5-.67,1-1.34,1.49-2,0,0,0-.1-.06-.13h-.61q-.6,0-1.2,0a1.45,1.45,0,0,0-1.3.69c-.64,1-1.3,1.9-2,2.85l0,0v0a.88.88,0,0,1-.34.35,1.1,1.1,0,0,1-.7.11c-.1,0-.16-.36-.16-.56,0-1,0-2,0-3,0-.32-.13-.45-.44-.44-.52,0-1,0-1.55,0-.27,0-.41.1-.41.39q0,4.68,0,9.38c0,.3.14.4.44.39.49,0,1,0,1.5,0,.34,0,.47-.13.46-.47,0-1,0-2.06,0-3.1,0-.23.06-.65.14-.66a2.34,2.34,0,0,1,1,.08c.12,0,.22.19.31.32l.06.09c.27.41.54.83.82,1.24.42.65.84,1.29,1.27,1.93.14.2.37.47.58.48.56,0,1.12,0,1.74,0h.81c-.53-.72-1-1.47-1.45-2.2A22.43,22.43,0,0,0,124.11,73L126,70.5Zm38.44,8h0a9.59,9.59,0,0,1-1.42,0c-.22,0-.48-.32-.61-.57a6.84,6.84,0,0,1-.43-1.2h0v0a.49.49,0,0,0-.58-.4q-1.45,0-2.91,0a.56.56,0,0,0-.63.48c-.08.29-.18.57-.27.85h0l-.05.12-.06.18a.84.84,0,0,1-.88.63h-1.76c0-.09.05-.17.07-.24a2.31,2.31,0,0,1,.1-.34l1.18-3h0q1.17-3,2.33-6a.65.65,0,0,1,.72-.49c.5,0,1,0,1.5,0a.52.52,0,0,1,.56.39c.6,1.55,1.2,3.09,1.79,4.64s1.21,3.11,1.81,4.66c0,.08.05.16.08.26h0v0s0,0,0,.06,0,.06,0,.08Zm-4.54-7.65h0l-.57,1.68-.57,1.68c-.1.28,0,.41.29.4h1.82c.33,0,.41-.14.3-.44s-.27-.77-.4-1.15h0c-.07-.22-.15-.44-.22-.65-.12-.4-.26-.79-.4-1.18l-.13-.35Zm-53.5,2.38c-.15,3.42,2.17,5.47,5,5.38a4.59,4.59,0,0,0,2.89-.8c.94-.66,1-.73.16-1.55-.5-.51-.6-.52-1.18-.09a2.7,2.7,0,0,1-4-1,4.17,4.17,0,0,1-.19-2.93,2.58,2.58,0,0,1,3.78-1.67c1.09.55,1.09.55,1.84-.46l.06-.08c.26-.28.22-.48-.09-.72a5.15,5.15,0,0,0-4.45-.87A4.76,4.76,0,0,0,106.39,73.18Zm28.74,5.38a4.85,4.85,0,0,1-5-5.65,5.07,5.07,0,0,1,7.69-4c.95.56.95.6.3,1.48-.49.64-.67.69-1.27.33a2.67,2.67,0,0,0-4.26,2.24,4.21,4.21,0,0,0,.35,2.19,2.7,2.7,0,0,0,3.92,1c.38-.25.57-.38.74-.36s.31.18.61.5c.68.72.68.75-.12,1.36A4.48,4.48,0,0,1,135.13,78.56ZM83.26,72.25h0v2h0c0,1.22,0,2.43,0,3.63,0,.42.13.57.56.56h2c.76,0,1.52,0,2.28,0h.69c.32,0,.49,0,.58-.06s.1-.3.1-.74h0c0-.18,0-.41,0-.68s-.13-.43-.45-.43H86.37c-.36,0-.54,0-.64-.09s-.09-.28-.09-.64q0-3.48,0-6.94c0-.42-.11-.6-.55-.58a9,9,0,0,1-1.27,0c-.47,0-.59.16-.58.6C83.27,70,83.26,71.13,83.26,72.25Zm85.18,1.14V69.07c0-.76,0-.76.79-.77h.32a6.43,6.43,0,0,0,.76,0c.46,0,.58.16.58.6,0,1.33,0,2.65,0,4v4.85c0,.75,0,.75-.78.76h-.33a5.19,5.19,0,0,0-.79,0c-.42,0-.55-.15-.54-.54,0-1,0-2,0-3V73.39ZM57.35,23.65l-.59-.11a11,11,0,0,0-1.15-.17,5,5,0,0,0-4.27,1.31,3.21,3.21,0,0,1-1.07.64.89.89,0,0,1-1-1.37A4.29,4.29,0,0,1,50.6,23a7.2,7.2,0,0,1,5.09-.15c.45.15.88.33,1.33.5h0l.38.16,0,.08S57.35,23.64,57.35,23.65Zm-.87.69.61-.08a5,5,0,0,0-4.69.86.87.87,0,0,0-.3.4c0,.24,0,.58.12.71a.77.77,0,0,0,.7.07,1.35,1.35,0,0,0,.6-.56,2.6,2.6,0,0,1,1.67-1.19A11.18,11.18,0,0,1,56.48,24.34Z"/></svg>