
<svg width="471px" height="115px" viewBox="0 0 471 115" version="1.1" xmlns="http://www.w3.org/2000/svg" xmlns:xlink="http://www.w3.org/1999/xlink">
    <g id="taxtoken">
        <path d="M57.6255556,13.0372746 C61.2270901,13.0372746 64.1431908,10.1181677 64.1431908,6.51663312 C64.1431908,6.28314465 64.1301635,6.05366457 64.1071153,5.82719078 C63.761392,2.55334172 60.9936017,0 57.6255556,0 C54.2575094,0 51.4897191,2.55334172 51.1439958,5.82719078 C51.1209476,6.05366457 51.1069182,6.28314465 51.1069182,6.51663312 C51.1069182,10.1181677 54.024021,13.0372746 57.6255556,13.0372746" id="Path" fill="#17394F"></path>
        <path d="M18.090847,44.401891 L28.1779497,47.6817526 C32.6583229,37.5044612 42.3556101,30.145065 53.8837275,29.0006709 L53.8837275,18.3964864 C48.8231405,17.0376436 45.0813124,12.4781048 44.9620629,7.01467505 C30.1310356,10.3576688 17.581782,19.7142432 10.0209644,32.4017862 C15.1807589,34.1995472 18.3604109,39.1679413 18.090847,44.401891 L96.3501313,67.9127331" id="Path" fill="#008F63"></path>
        <path d="M57.7798784,72.8584235 C51.1129308,72.8584235 45.7096268,67.4531153 45.7096268,60.7851656 C45.7096268,54.1192201 51.1129308,48.7169182 57.7798784,48.7169182 C64.446826,48.7169182 69.8531363,54.1192201 69.8531363,60.7851656 C69.8531363,67.4531153 64.446826,72.8584235 57.7798784,72.8584235 Z" id="Path" fill="#17394F"></path>
        <path d="M57.7788763,35.0733753 C50.6750147,35.0733753 44.2656059,37.9463857 39.6018491,42.6091405 C34.9421006,47.2728973 32.067086,53.6823061 32.067086,60.7851656 C32.067086,67.8870231 34.9421006,74.2994382 39.6018491,78.963195 C44.2656059,83.6229434 50.6770189,86.4979581 57.7788763,86.4979581 C64.8827379,86.4979581 71.2921468,83.6229434 75.9559036,78.963195 C80.6166541,74.2994382 83.4906667,67.8870231 83.4906667,60.7851656 C83.4906667,53.6823061 80.6166541,47.2728973 75.9559036,42.6091405 C71.2921468,37.9463857 64.8827379,35.0733753 57.7788763,35.0733753 Z" id="Path" fill="#17394F"></path>
        <path d="M4.50507925,49.7924068 C7.92924237,50.9067381 11.6049321,49.0308135 12.7172591,45.60665 C13.8285841,42.1854928 11.9556659,38.5088009 8.53350652,37.397476 C8.30703273,37.324323 8.08055894,37.2641972 7.85408514,37.2170986 C4.63535179,36.5396814 1.35949854,38.3825368 0.32032454,41.5802265 C-0.71784737,44.7779162 0.84842936,48.1920588 3.84870609,49.5378743 C4.06115053,49.6310693 4.27860546,49.7182517 4.50507925,49.7924068" id="Path" fill="#17394F"></path>
        <path d="M86.8326583,47.6787463 L96.919761,44.401891 C96.6511992,39.1679413 99.8318532,34.1995472 104.990646,32.4017862 C97.4308302,19.7142432 84.8825786,10.3576688 70.0495472,7.01467505 C69.9302977,12.4781048 66.1884696,17.0376436 61.1278826,18.3964864 L61.1278826,29.0006709 C72.6549979,30.145065 82.3522851,37.5044612 86.8326583,47.6787463 Z M58.1957484,91.4873962 C52.4046331,91.4873962 46.9782809,89.9131027 42.3145241,87.1823899 L36.0754717,95.766348 C39.372369,99.8468847 39.7190943,105.737208 36.5965618,110.2266 C43.2254298,113.078566 50.5247002,114.665887 58.1967505,114.665887 C65.8677987,114.665887 73.1710776,113.078566 79.7969392,110.2266 C76.6754088,105.737208 77.0221342,99.8438784 80.3180294,95.766348 L74.0809811,87.1823899 C69.4152201,89.9131027 63.9908721,91.4873962 58.1957484,91.4873962 Z" id="Shape" fill="#00703E" fill-rule="nonzero"></path>
        <path d="M114.930582,41.5802265 C113.89241,38.3825368 110.614552,36.5396814 107.396821,37.2170986 C107.172351,37.2641972 106.943873,37.324323 106.718401,37.397476 C103.29524,38.5088009 101.422322,42.1854928 102.534649,45.60665 C103.646976,49.0308135 107.323668,50.9037318 110.747831,49.7924068 C110.974305,49.7182517 111.190758,49.6310693 111.4022,49.5378743 C114.402477,48.1920588 115.968753,44.7779162 114.930582,41.5802265 M94.9655788,99.8895948 C92.8501532,96.9795068 88.7736249,96.3321525 85.8605305,98.4485802 C82.9494404,100.565008 82.3030882,104.642538 84.4195159,107.552626 C84.5578052,107.745029 84.7071175,107.924404 84.8594362,108.094761 C87.0670546,110.537872 90.8028702,110.974786 93.523562,108.996647 C96.2472601,107.015503 96.9868073,103.325784 95.3413649,100.470811 C95.228128,100.272396 95.102866,100.078991 94.9655788,99.8895948 M30.3913893,98.4484546 C27.4792971,96.3320269 23.4017667,96.9793812 21.2873432,99.8914735 C21.1490539,100.078866 21.025796,100.27227 20.9105549,100.470685 C19.2651126,103.325657 20.0046598,107.018383 22.7283579,108.996521 C25.4500518,110.97466 29.1858673,110.537746 31.3914816,108.094634 C31.5478086,107.924278 31.6951168,107.744903 31.8334061,107.5525 C33.9488317,104.642412 33.3034816,100.564882 30.3913893,98.4484546" id="Shape" fill="#17394F" fill-rule="nonzero"></path>
        <path d="M36.7308428,83.5928805 C30.2633124,77.8198029 26.1837778,69.4272453 26.1827757,60.082696 C26.1827757,57.7838868 26.4373082,55.5421971 26.9052872,53.3816771 L16.8211908,50.1048218 C13.9622096,54.4950063 8.47372746,56.6465073 3.24378616,55.0722138 C3.09447379,56.7236688 3.00628931,58.3941635 3.00628931,60.082696 C3.00628931,73.9006038 8.14002935,86.5099832 16.5927128,96.1381258 C19.8986289,91.7940377 25.6015597,90.3079287 30.4917904,92.1788428 L36.7308428,83.5928805 Z M79.165618,83.5928805 C85.633148,77.8198029 89.712683,69.4272453 89.713685,60.082696 C89.713685,57.7838868 89.459153,55.5421971 88.991174,53.3816771 L99.0752701,50.1048218 C101.934251,54.4950063 107.422733,56.6465073 112.652675,55.0722138 C112.801987,56.7236688 112.890172,58.3941635 112.890172,60.082696 C112.890172,73.9006038 107.756431,86.5099832 99.3037481,96.1381258 C95.9978319,91.7940377 90.294901,90.3079287 85.404671,92.1788428 L79.165618,83.5928805 Z" id="Shape" fill="#00B412" fill-rule="nonzero"></path>
        <path d="M321.670163,84.8157258 C320.970635,84.6933745 319.378605,84.2529097 318.196644,83.8369151 C310.936025,81.3898883 305.677504,75.5904348 303.627163,67.8088897 C303.072365,65.6799764 303,64.9213981 303,61.4710903 C303,58.0697231 303.072365,57.2622042 303.603041,55.231172 C305.822234,46.7889296 311.635553,40.8426545 319.957525,38.5424493 C321.742528,38.0530439 322.538542,37.9796331 326.108547,38.0041034 C331.077609,38.0285737 332.766125,38.3956277 336.722077,40.4266599 C341.377556,42.8002759 344.441007,45.9324702 346.732564,50.7041724 C348.517567,54.4481234 349,56.7238583 349,61.4710903 C349,64.7256359 348.927635,65.7533872 348.469324,67.5886573 C347.793917,70.2559165 346.008915,74.146689 344.465128,76.2021915 C341.522286,80.1419047 337.108023,83.0538665 331.897745,84.4976123 C330.185107,84.9625474 323.67226,85.1827798 321.670163,84.8157258 Z M330.908757,80.4355479 C338.989512,78.3555751 344.320399,70.7942623 344.320399,61.4710903 C344.320399,55.5248152 342.487153,50.8754643 338.651809,47.009162 C337.05978,45.3941243 336.263765,44.8068379 334.406397,43.8769677 C331.24646,42.3108706 329.630309,41.9438165 325.987939,41.9193463 C322.393812,41.9193463 320.126377,42.4821624 317.304143,44.0237893 C312.865758,46.4463458 309.850551,50.3860589 308.330886,55.8429287 C307.872575,57.5069069 307.80021,58.3633663 307.80021,61.5934416 C307.80021,65.0192791 307.872575,65.6065656 308.475616,67.5886573 C310.694809,75.0031484 315.977451,79.7503804 323.213949,80.9249532 C325.216046,81.2185965 328.713686,81.0228343 330.908757,80.4355479 Z" id="Shape" fill="#17394F" fill-rule="nonzero"></path>
        <polygon id="Path" fill="#17394F" points="154.648649 66.1467391 154.648649 48.2934783 142 48.2934783 142 39 178 39 178 48.2934783 165.351351 48.2934783 165.351351 84 154.648649 84"></polygon>
        <path d="M174.312963,83.2173913 C174.722222,82.263587 181.02963,67.0027174 187.77037,50.6902174 L192.609259,39 L203.081481,39 L203.562963,40.173913 C203.827778,40.8097826 205.994444,46.1168478 208.377778,51.9619565 C210.761111,57.8070652 214.251852,66.3423913 216.12963,70.9157609 C218.007407,75.4891304 219.837037,79.9646739 220.174074,80.8940217 C220.535185,81.798913 220.872222,82.5326087 220.944444,82.5326087 C221.040741,82.5081522 231.633333,66.3423913 235.196296,60.7663043 L235.62963,60.1059783 L230.55,52.548913 C227.757407,48.3913043 224.555556,43.6467391 223.448148,42.0081522 L221.425926,39 L234.305556,39 L238.374074,45.8722826 C240.588889,49.638587 242.514815,52.6467391 242.611111,52.5244565 C242.731481,52.4266304 244.561111,49.3695652 246.67963,45.7255435 L250.531481,39.1222826 L256.766667,39.048913 L263.001852,39 L256.068519,49.5652174 C252.264815,55.361413 249.207407,60.2282609 249.27963,60.375 C249.375926,60.5217391 252.938889,65.8288043 257.224074,72.1875 C261.509259,78.5461957 265,83.8043478 265,83.8777174 C265,83.951087 262.038889,84 258.451852,84 L251.87963,83.9755435 L248.075926,77.6902174 C246.005556,74.2418478 243.814815,70.6467391 243.237037,69.7173913 L242.177778,68.0298913 L237.531481,76.0027174 L232.861111,84 L221.185185,83.9266304 L209.533333,83.8777174 L207.8,79.4755435 L206.090741,75.0733696 L197.544444,75 L188.974074,74.951087 L187.337037,79.4755435 L185.675926,84 L174,84 L174.312963,83.2173913 Z M203.12963,66.3423913 C203.12963,66.2934783 201.901852,62.8206522 200.385185,58.6141304 L197.640741,50.9347826 L197.038889,52.6222826 C195.787037,55.9728261 192.055556,66.2201087 192.055556,66.3179348 C192.055556,66.3668478 194.559259,66.3913043 197.592593,66.3913043 C200.65,66.3913043 203.12963,66.3668478 203.12963,66.3423913 Z" id="Shape" fill="#17394F" fill-rule="nonzero"></path>
        <polygon id="Path" fill="#17394F" fill-rule="nonzero" points="279.28169 63.4565217 279.28169 42.9130435 264 42.9130435 264 39 299 39 299 42.9130435 283.964789 42.9130435 283.964789 84 279.28169 84"></polygon>
        <path d="M358,61.5 L358,39 L362.681159,39 L362.730435,49.0027174 L362.804348,59.0298913 L373.497101,49.0027174 L384.189855,39 L387.343478,39 C389.092754,39 390.521739,39.048913 390.521739,39.0978261 C390.521739,39.1711957 385.495652,43.6956522 379.385507,49.173913 C373.250725,54.6521739 368.224638,59.2255435 368.224638,59.3233696 C368.224638,59.4211957 373.571014,64.9483696 380.124638,71.6005435 C386.653623,78.2771739 392,83.7798913 392,83.8532609 C392,83.9266304 390.521739,84 388.723188,84 L385.471014,84 L374.137681,72.0163043 L362.804348,60.0081522 L362.730435,72.0163043 L362.681159,84 L358,84 L358,61.5 Z" id="Path" fill="#17394F" fill-rule="nonzero"></path>
        <polygon id="Path" fill="#17394F" fill-rule="nonzero" points="397 61.5 397 39 425.262712 39 425.262712 42.9130435 401.669492 42.9130435 401.669492 58.5652174 423.542373 58.5652174 423.542373 62.4782609 401.669492 62.4782609 401.669492 79.8423913 426 79.8423913 426 84 397 84"></polygon>
        <polygon id="Path" fill="#17394F" fill-rule="nonzero" points="434 61.5 434 39 437.009333 39.0732899 440.018667 39.1465798 453.116667 58.1286645 466.19 77.0863192 466.264 58.0553746 466.313333 39.02443 471 39.02443 471 84 468.114 83.9267101 465.228 83.8534202 452.031333 64.504886 438.81 45.1807818 438.736 64.5781759 438.686667 83.97557 434 83.97557"></polygon>
    </g>
</svg>