<?xml version="1.0" encoding="UTF-8"?>
<svg width="792px" height="200px" viewBox="0 0 792 200" version="1.1" xmlns="http://www.w3.org/2000/svg" xmlns:xlink="http://www.w3.org/1999/xlink">
    <g id="Page-1" stroke="none" stroke-width="1" fill="none" fill-rule="evenodd">
        <g id="Group" fill="#F18F35">
            <g id="Group-4" transform="translate(256.000000, 64.000000)">
                <path d="M361.596016,69.745468 C359.892032,65.3490063 357.027888,57.9629507 352.133466,45.3714845 C349.486853,38.5130042 345.97012,29.473879 344.3749,25.3236192 C342.743426,21.1733594 341.111952,16.741726 340.749402,15.4755451 C340.350598,14.2093641 339.625498,12.0990625 339.081673,10.7273665 C336.906375,5.38126909 336,2.98959394 336,2.74339208 C336,2.56753362 338.574104,2.46201854 341.764542,2.46201854 L347.492829,2.46201854 L349.051793,6.26056142 C351.517131,12.274921 360.182072,34.5034312 362.212351,40.1309021 L364.09761,45.2659694 L365.874104,39.7791852 C367.360558,35.10135 372.581275,21.3843896 379.360956,4.32611828 C380.303586,1.93444314 381.246215,0 381.463745,0 C381.681275,0 382.696414,2.1103016 383.747809,4.67783522 C384.762948,7.21019714 386.974502,12.732153 388.678486,16.9175845 C390.38247,21.103016 392.449004,26.4842851 393.282869,28.8759603 C394.116733,31.2676354 395.095618,33.7999973 395.458167,34.4682595 C395.820717,35.1716934 396.835857,37.8095704 397.742231,40.3419323 L399.33745,44.9494241 L401.005179,40.3067606 C401.875299,37.7743987 405.029482,29.5442224 407.92988,21.9823084 C410.866534,14.455566 413.766932,6.96399529 414.383267,5.38126909 L415.507171,2.46201854 L421.235458,2.46201854 C426.2749,2.46201854 427,2.53236192 427,3.02476563 C427,3.34131087 426.238645,5.41644078 425.332271,7.66742916 C422.649402,14.2445358 420.474104,19.9423501 419.023904,24.2684684 C417.791235,27.8208095 413.041833,40.2364172 403.506773,64.5400573 C401.911554,68.6199738 400.388845,71.9261129 400.171315,71.9261129 C399.91753,71.9261129 398.249801,68.3034285 396.473307,63.8366235 C394.660558,59.4049901 390.708765,49.662431 387.627092,42.206032 C384.581673,34.7496331 381.971315,28.2428698 381.86255,27.7152944 C381.71753,27.1525473 381.5,26.730487 381.35498,26.730487 C381.246215,26.730487 380.70239,28.0318396 380.158566,29.6497375 C379.288446,32.2876145 369.427092,56.5912546 367.578088,60.6008277 C367.179283,61.5504634 366.816733,62.5000991 366.816733,62.7111293 C366.816733,63.5552499 363.37251,71.8909413 362.973705,71.9964563 C362.71992,72.0667997 362.139841,71.0819923 361.596016,69.745468 Z" id="Path"></path>
                <path d="M158.353351,71.8677117 C157.848024,71.7966016 156.223758,71.5477164 154.779966,71.3343862 C143.337916,69.6632994 132.726046,61.7700812 127.817153,51.2813453 C125.470992,46.3036401 124.965664,43.5303472 125.001759,36.1704545 C125.001759,30.0905432 125.073949,29.3438874 125.976319,26.4639294 C127.528395,21.4862242 130.740832,15.6907532 133.772795,12.3130247 C135.794103,10.0730573 140.630806,6.69532881 144.456854,4.77535681 C154.419018,-0.131238299 167.413145,-0.273458447 177.555782,4.45536148 C179.216143,5.20201726 181.273546,6.37533348 182.175916,7.05087918 C183.078286,7.72642489 184.233319,8.54419074 184.774741,8.86418607 C186.254628,9.82417207 189.647539,13.3441207 191.416184,15.7618633 C201.306158,29.3794424 199.898461,49.5035934 188.239842,60.596765 C182.753433,65.8233554 177.952825,68.7388685 171.961089,70.4455102 C167.810187,71.6543815 161.421408,72.2943722 158.353351,71.8677117 Z M167.124386,60.3123247 C171.239193,59.5301139 175.28181,57.1479264 178.8191,53.4857576 C181.814968,50.3569143 182.897812,48.6147175 184.125035,44.7392184 C186.110249,38.517087 186.110249,34.1793724 184.125035,27.992796 C181.778873,20.5617933 174.993052,14.3041067 167.160481,12.3485797 C153.733217,8.97085118 140.089384,17.8596104 137.2018,31.9038501 C135.108302,42.2503659 140.594711,53.3790924 150.376401,58.4990178 C152.181141,59.4590038 155.357483,60.3834347 158.533825,60.8456502 C160.013711,61.0589805 164.886509,60.7745402 167.124386,60.3123247 Z" id="Shape" fill-rule="nonzero"></path>
                <path d="M305.144392,70.8004669 C299.599823,69.9561148 295.222531,67.8452345 292.12195,64.5030073 C289.969781,62.181039 288.182387,58.7684492 288.072955,56.7631129 L288,55.2503153 L292.194904,53.350523 C294.492982,52.3302642 296.572196,51.4859121 296.827538,51.4507308 C297.08288,51.4507308 297.702996,52.4006269 298.250158,53.5616111 C298.906751,54.9688646 299.891642,56.2705741 301.131875,57.396377 C302.773359,58.8388118 303.46643,59.1554439 305.87394,59.7183453 C310.506574,60.7737855 315.394549,60.0701587 317.65615,58.029641 C319.370589,56.4816622 320.391957,54.3356005 320.537867,51.8729068 C320.683777,49.7268452 320.574344,49.3398504 319.589454,47.6863275 C317.875015,44.9070018 314.774433,42.6553961 307.953154,39.313169 C297.009925,33.9656055 293.216272,31.1159171 290.991149,26.5423431 C289.969781,24.4314628 289.860349,23.7981987 289.714439,20.1041582 C289.459097,13.6659732 290.845239,10.1830207 295.149576,6.24271079 C299.526868,2.26721954 303.539385,0.965510014 311.163168,1.00069135 C318.057402,1.03587269 322.142874,2.19685686 326.045959,5.25763331 C328.088695,6.87597488 330.42325,9.86638865 330.71507,11.2736422 L330.933934,12.3642637 L326.520165,14.475144 C322.252306,16.550843 321.012074,16.973019 321.012074,16.3045736 C321.012074,16.1286669 320.282525,15.2139521 319.407067,14.264056 C317.036034,11.7309996 314.044885,10.4996527 310.834871,10.7107408 C303.685295,11.2032795 300.110507,17.2896511 303.758249,22.6723959 C305.290301,24.8536389 308.974522,27.2459699 316.999556,31.2214611 C327.249714,36.2523925 329.949044,38.5039982 331.99178,43.6404736 C332.97667,46.17353 333.304967,51.3803681 332.684851,54.9336833 C331.408141,62.286583 325.389365,68.2322292 317.181943,70.2727468 C314.482614,70.9411923 308.062586,71.222643 305.144392,70.8004669 Z" id="Path"></path>
                <path d="M210,36 L210,2 L221.927273,2.17782427 C232.4,2.32008368 234.145455,2.42677824 236.618182,3.06694561 C240.436364,4.09832636 242.654545,5.27196653 245.090909,7.58368201 C248.472727,10.8556485 250,15.0523013 250,21.1338912 C250,25.2238494 249.090909,29.3849372 247.636364,31.8033473 C245.818182,34.8263598 241.709091,37.5648536 237.272727,38.667364 L234.727273,39.3075314 L242.436364,49.2656904 C246.690909,54.7426778 251.927273,61.4288703 254.109091,64.1317992 C256.254545,66.834728 258,69.2531381 258,69.5020921 C258,69.8933054 256.763636,70 251.309091,70 L244.618182,70 L235.563636,58.0146444 C222.290909,40.374477 221.854545,39.8054393 221.563636,39.7698745 C221.381818,39.7698745 221.272727,46.5627615 221.272727,54.8849372 L221.272727,70 L215.636364,70 L210,70 L210,36 Z M232.036364,29.9539749 C234.8,29.2426778 235.636364,28.709205 236.618182,26.8598326 C237.818182,24.7259414 237.818182,19.0355649 236.654545,16.58159 C235.309091,13.7364017 232.290909,12.4916318 225.927273,12.1359833 L222,11.9225941 L222,21.4539749 L222,30.9853556 L225.927273,30.7364017 C228.109091,30.6297071 230.836364,30.2740586 232.036364,29.9539749 Z" id="Shape" fill-rule="nonzero"></path>
                <path d="M422,69.3989899 C422,69.0454545 422.977838,66.7828283 424.209189,64.3434343 C425.404324,61.9040404 429.098378,54.2676768 432.394054,47.3737374 C435.68973,40.479798 438.514595,34.6818182 438.659459,34.469697 C439.13027,33.8686869 444.454054,22.5909091 445.250811,20.5050505 C445.685405,19.4444444 447.894595,14.7424242 450.176216,10.0757576 C452.457838,5.40909091 454.44973,1.23737374 454.630811,0.813131313 C454.811892,0.353535354 455.101622,0 455.318919,0 C455.536216,0 457.021081,2.65151515 458.614595,5.93939394 C463.503784,15.7676768 469.443243,28.2828283 470.891892,31.6414141 C472.231892,34.7525253 480.815135,52.7474747 486.247568,63.7424242 C487.768649,66.8535354 489,69.5050505 489,69.6818182 C489,69.8585859 486.211351,70 482.662162,70 L476.288108,70 L475.527568,68.3383838 C475.129189,67.3838384 473.427027,63.530303 471.797297,59.7474747 L468.827568,52.8535354 L455.608649,52.7474747 L442.38973,52.6767677 L441.629189,54.3383838 C441.230811,55.2929293 439.42,59.1464646 437.645405,62.9292929 L434.422162,69.8232323 L428.192973,69.9292929 C422.470811,70 422,69.9646465 422,69.3989899 Z M464.372973,42.9545455 C464.372973,42.7070707 461.656757,36.8030303 459.628649,32.7020202 C458.578378,30.5808081 457.202162,27.3282828 456.586486,25.489899 C455.5,22.3787879 455.391351,22.2373737 455.174054,23.3686869 C454.884324,24.8888889 452.494054,30.4747475 449.198378,37.4040404 C447.785946,40.3383838 446.627027,42.8484848 446.627027,42.9545455 C446.627027,43.0606061 450.610811,43.1313131 455.5,43.1313131 C460.389189,43.1313131 464.372973,43.0606061 464.372973,42.9545455 Z" id="Shape" fill-rule="nonzero"></path>
                <path d="M495,35.9821147 L495,2 L508.614664,2.10731194 C521.544993,2.25039453 522.301363,2.28616518 524.318351,3.03734876 C532.458335,6.04208311 536.49231,12.6238822 535.952045,22.067333 C535.591869,27.7906365 534.043111,31.6180957 530.729489,34.6586007 C526.767549,38.3429774 523.634016,39.2372436 513.477044,39.4876381 L505.805289,39.702262 L505.805289,54.8332457 L505.805289,70 L500.402644,70 L495,70 L495,35.9821147 Z M518.771636,29.0426092 C523.201804,27.6833246 525.146756,23.283535 523.634016,18.2041031 C522.877645,15.7001578 521.328887,14.054708 518.951724,13.1604419 C516.790666,12.337717 512.216427,11.6938453 508.794752,11.6938453 L506.525642,11.6938453 L506.525642,20.851131 L506.525642,30.0441873 L511.676163,29.8295634 C515.025802,29.7222514 517.475001,29.4360863 518.771636,29.0426092 Z" id="Shape" fill-rule="nonzero"></path>
                <polygon id="Path" points="18.4210526 41.0105263 18.4210526 12.0210526 9.21052632 12.0210526 0 12.0210526 0 7.01052632 0 2 24.5 2 49 2 49 7.01052632 49 12.0210526 39.7894737 12.0210526 30.5789474 12.0210526 30.5789474 41.0105263 30.5789474 70 24.5 70 18.4210526 70"></polygon>
                <polygon id="Path" points="56 36 56 2 61.9230769 2 67.8461538 2 67.8461538 14.5263158 67.8461538 27.0526316 84.1794872 27.0526316 100.512821 27.0526316 100.512821 14.5263158 100.512821 2 106.25641 2 112 2 112 36 112 70 106.25641 70 100.512821 70 100.512821 53.7157895 100.512821 37.4315789 84.1794872 37.4315789 67.8461538 37.4315789 67.8461538 53.7157895 67.8461538 70 61.9230769 70 56 70"></polygon>
            </g>
            <g id="Group-3">
                <path d="M94.2523447,199.594088 C89.1225127,198.305947 83.9926808,194.034742 81.7652537,189.25506 C80.2803023,186.102504 79.8753156,184.407581 79.4703289,179.255016 C79.1665888,175.45839 79.0653421,175.01771 77.6141397,172.000748 C76.3316817,169.356668 75.589206,168.339715 73.4630256,166.204112 C69.3456605,162.170196 65.9370221,160.712563 59.558481,160.305781 C52.1337242,159.831203 47.3751301,157.254921 43.561505,151.661676 C41.1315846,148.06844 40.2541133,145.424361 40.0853689,141.119257 C39.8828755,136.712459 40.4566067,133.932785 42.3802937,130.237854 C44.9789586,125.186985 49.973795,121.492053 55.8461026,120.237811 C58.8160054,119.59374 63.4733528,119.763232 66.1395155,120.610694 C70.5268718,122.00053 75.892946,126.373431 77.8841308,130.170057 C79.3690822,133.051426 80.0103112,135.627708 80.3140512,139.865015 C80.719038,145.932838 82.1027427,149.424378 85.6126277,153.051513 C91.5524331,159.221031 98.8084455,161.085446 106.368198,158.407468 C109.304352,157.390515 111.19429,156.102373 113.961699,153.288802 C116.9991,150.237941 117.977818,148.407425 118.754042,144.5769 C119.42902,141.05146 119.42902,139.153147 118.754042,135.627708 C118.045315,131.966675 116.594113,129.220901 114.062946,126.712415 C110.046827,122.746296 105.861964,120.949678 99.3821767,120.441201 C91.8899221,119.864928 86.4226012,116.780169 82.9127161,111.153025 C80.9215313,108.000469 80.1453068,105.525882 79.74032,101.119084 C79.1328399,94.0682054 77.3103996,89.763102 73.3617789,86.0003738 C69.3119116,82.1359502 66.5782511,80.9495044 60.7396924,80.4071291 C55.3061203,79.9325508 53.7199223,79.5257693 50.3787817,77.7969483 C45.4176942,75.2545643 42.1103025,70.9833593 40.6591001,65.3223178 C39.9166244,62.3731524 39.7816288,58.373135 40.35536,55.6273604 C41.0978357,52.2375152 44.1689851,46.9493566 46.8688967,44.4747696 C48.1176058,43.3222222 52.4374643,40.983229 54.3274024,40.4747522 C55.0698781,40.2713615 57.5335474,39.9323769 59.7947233,39.7628847 C65.9032732,39.2883063 69.2106649,37.9662667 73.1255367,34.4069292 C74.9817259,32.7120066 77.6141397,28.9153799 78.4241131,26.7119805 C79.1328399,24.8475656 79.8078178,20.4068683 79.8078178,17.830586 C79.8078178,15.7627804 81.2927692,11.3559816 82.7777205,9.05088679 C84.8026542,5.93222917 86.9625835,4.00001738 90.4049707,2.33899322 C94.5223359,0.305086072 95.8722917,0 100.057155,0 C102.993308,0 104.039524,0.169492262 106.266951,0.915258215 C115.075413,3.93222048 119.192778,9.52546513 119.969002,19.559407 C120.137747,21.8306034 120.508985,24.4746826 120.812725,25.4577378 C122.027685,29.4916536 125.84131,34.4069292 129.553688,36.6781255 C132.692336,38.5764388 135.493494,39.4239002 139.847101,39.7628847 C146.394387,40.2713615 149.97177,41.7628934 153.92039,45.6951138 C156.519055,48.2713962 157.970258,50.6103894 159.151469,54.0002347 C160.130187,56.8816031 160.231434,62.6104416 159.320214,65.6952008 C157.666518,71.3562423 154.460373,75.2545643 149.330541,77.8308467 C142.378268,81.3562858 135.830983,81.1528951 128.912459,77.2206746 C122.938905,73.8647278 119.327773,67.4579203 119.294025,60.1019561 C119.260276,56.7799078 118.21406,52.678195 116.796606,50.3053034 C114.299188,46.2035906 109.810585,42.6781516 105.220735,41.2544166 C97.4584897,38.8476265 88.9200194,42.1018779 83.8239363,49.3561467 C81.4277648,52.7798904 80.7527869,54.8137975 80.5502935,59.1527995 C80.4152979,62.4070509 80.4827957,63.0850199 81.2590203,65.6274039 C82.9127161,70.9155624 86.4563501,75.152869 91.1136975,77.3901668 C94.4210892,78.9494957 96.074785,79.3562771 100.124652,79.6274647 C104.17452,79.8986523 106.773185,80.5427229 109.574343,82.0342548 C115.986633,85.3902016 119.327773,91.0851416 119.969002,99.729247 C120.441487,105.729273 122.196429,109.96658 125.706314,113.593714 C129.452442,117.458138 133.569807,119.288654 139.712106,119.797131 C145.280673,120.237811 147.980585,121.11917 151.49047,123.627656 C157.90276,128.237845 160.838914,135.051434 159.792698,142.81418 C159.286465,146.475213 158.442742,148.644714 156.417809,151.526082 C154.460373,154.373552 152.266695,156.305764 149.330541,157.865093 C146.259391,159.492219 143.998215,160.068492 139.543361,160.441375 C135.088507,160.78036 132.354847,161.593923 129.51994,163.458338 C126.583786,165.356651 125.200081,166.67869 123.512636,169.254973 C121.183963,172.780412 120.34024,175.390593 119.969002,180.305868 C119.361522,188.407598 116.830355,193.356773 111.430532,196.950008 C108.055643,199.187306 105.828216,199.831377 100.563388,199.966971 C97.4922386,200.068666 95.6023005,199.933072 94.2523447,199.594088 Z" id="Path"></path>
                <path d="M16.3344068,120.704998 C8.79255439,119.165007 2.24035685,112.868152 0.431677328,105.305082 C-0.216717219,102.669985 -0.114339133,97.3997913 0.602307472,94.8673606 C2.47923906,88.3993957 7.29100912,83.2660903 13.6384505,80.9389918 C16.4367848,79.9123307 22.57947,79.6727764 25.7190647,80.4941053 C38.3456953,83.7794208 44.6248846,97.8446778 38.8234597,109.753947 C36.2981336,114.921474 30.6332128,119.370339 25.0706701,120.56811 C22.6477221,121.081441 18.5184726,121.149885 16.3344068,120.704998 Z" id="Path"></path>
                <path d="M174.789916,120.482771 C171.394958,119.593791 168.840336,118.055172 166.084034,115.251467 C161.848739,110.977526 160,106.498435 160,100.514918 C160,94.5314 161.848739,90.0523097 166.084034,85.744177 C170.184874,81.5728104 174.016807,80 180,80 C185.94958,80 189.747899,81.5728104 193.94958,85.81256 C198.016807,89.881352 200,94.7023577 200,100.514918 C200,106.361669 198.016807,111.148483 193.915966,115.251467 C191.12605,118.089364 188.571429,119.593791 185.042017,120.516962 C182.554622,121.166602 177.243697,121.166602 174.789916,120.482771 Z" id="Path"></path>
            </g>
        </g>
    </g>
</svg>