<?xml version="1.0" encoding="UTF-8"?>
<svg viewBox="0 0 566 128" xmlns="http://www.w3.org/2000/svg">
    <g fill="#3831ab">
        <path d="m92 22.14h-12.8a2.52 2.52 0 0 0 -2.82 2.08l-19.86 49.66-19.86-49.66c-.36-1.59-1.22-2.08-2.82-2.08h-12.75c-.73 0-1.22.24-1.34.61a2.78 2.78 0 0 0 0 1.47l33.81 81.52a2.89 2.89 0 0 0 2.94 2.26 2.89 2.89 0 0 0 2.94-2.21l33.86-81.57a1.57 1.57 0 0 0 0-1.47 1.59 1.59 0 0 0 -1.3-.61z"/>
        <path d="m282.54 25.3a2.89 2.89 0 0 0 -3-2.2 2.88 2.88 0 0 0 -2.95 2.2l-33.81 81.53a1.57 1.57 0 0 0 0 1.47 1.61 1.61 0 0 0 1.35.61h12.75a2.53 2.53 0 0 0 2.82-2.08l19.86-49.67 19.86 49.67c.37 1.59 1.22 2.08 2.82 2.08h12.76c.73 0 1.22-.25 1.35-.61a3 3 0 0 0 0-1.47z"/>
        <path d="m136.59 20.91c-22.6 0-40.25 19.25-40.25 44.25 0 24.52 17.32 44 40.25 44 22.49 0 40.48-19 40.48-44 0-24.76-17.32-44.25-40.48-44.25zm0 72.57c-14.39 0-25.41-12.5-25.41-28.32 0-15.56 10.57-28.56 25.41-28.56 14.62 0 25.64 12.5 25.64 28.56 0 15.57-11.02 28.32-25.64 28.32z"/>
        <path d="m249.68 22.75a1 1 0 0 0 -1-.61h-14.07a2.32 2.32 0 0 0 -2.21 1.22l-18 35.34-17.9-35.34a2.11 2.11 0 0 0 -2.21-1.22h-14.24a1 1 0 0 0 -1 .61 1.34 1.34 0 0 0 .25 1.35l27.11 48.9v33a1.7 1.7 0 0 0 2 2h12.14a1.7 1.7 0 0 0 2-2v-33l27-48.9a1.32 1.32 0 0 0 .13-1.35z"/>
        <path d="m392.35 61.73h-27.83c-1.35 0-2 .61-2 2v9.56c0 1.35.61 2 2 2h14v15.25a28 28 0 0 1 -13.36 2.94c-15.57 0-27.7-12.62-27.7-28.32s11.54-28.56 27.67-28.56a28.59 28.59 0 0 1 15.69 4.66 3.28 3.28 0 0 0 1.6.61 1 1 0 0 0 .49-.12 2.29 2.29 0 0 0 1.35-1.1l6.25-9.65c.86-1.1.61-2.08-.86-2.94a45.28 45.28 0 0 0 -24.39-7.11c-25.14 0-44 18.63-44 44.25 0 24.77 18.63 44 43.88 44a60 60 0 0 0 27.59-6.37 2.78 2.78 0 0 0 1.59-2.58v-36.56c-.01-1.35-.62-1.96-1.97-1.96z"/>
        <path d="m461.38 92.13h-34.94v-19.37h30.56c1.35 0 2-.73 2-2.08v-11.28c0-1.35-.62-2.08-2-2.08h-30.56v-19.32h34.82a1.7 1.7 0 0 0 2-2v-11.9a1.7 1.7 0 0 0 -2-2h-49c-1.35 0-2 .61-2 2v81.9a1.7 1.7 0 0 0 2 2h49.16a1.7 1.7 0 0 0 2-2v-11.91a1.7 1.7 0 0 0 -2.04-1.96z"/>
        <path d="m537.76 105.86-19.36-29.42c10.78-3.31 18.14-14.83 18.14-25.86 0-16.31-11.16-28.44-28.07-28.44h-29.79c-1.35 0-2 .61-2 2v81.86a1.7 1.7 0 0 0 2 2h12.26a1.71 1.71 0 0 0 2-2v-27h8.82l17.9 27a3.88 3.88 0 0 0 3.56 2h13.48c1.68 0 2.05-.79 1.06-2.14zm-33.09-41.55h-11.77v-27.46h11.77c8.7 0 15.69 4.41 15.69 13.73s-6.99 13.73-15.69 13.73z"/>
    </g>
</svg>
