<?xml version="1.0" encoding="UTF-8"?>
<svg width="216px" height="104px" viewBox="0 0 216 104" version="1.1" xmlns="http://www.w3.org/2000/svg" xmlns:xlink="http://www.w3.org/1999/xlink">
    <!-- Generator: Sketch 59 (86127) - https://sketch.com -->
    <title>Voyager</title>
    <desc>Created with Sketch.</desc>
    <g id="Voyager" stroke="none" stroke-width="1" fill="none" fill-rule="evenodd">
        <path d="M133.953102,39.0117756 C136.502427,39.0100014 138.999021,39.7364973 141.148044,41.1054697 C141.581687,41.3587151 141.655436,41.6472969 141.40174,41.9712153 L141.40174,41.9712153 L139.558017,44.8128633 C139.47318,44.9689729 139.330073,45.0853713 139.159773,45.1367817 C139.115408,45.1606984 139.065642,45.1728644 139.015226,45.1721183 C138.844737,45.1550165 138.681855,45.0930282 138.543233,44.9924908 C137.167341,44.0945937 135.558578,43.6176332 133.914752,43.6202546 C129.156474,43.6202546 125.752225,47.4071554 125.752225,52.0303547 C125.752225,56.653554 129.330521,60.3697817 133.923602,60.3697817 C135.288816,60.4109087 136.642941,60.1134497 137.864743,59.5040361 L137.864743,59.5040361 L137.864743,55.0133489 L133.734805,55.0133489 C133.324761,55.0133489 133.144814,54.8219426 133.144814,54.4244063 L133.144814,54.4244063 L133.144814,51.6092607 C133.144814,51.1999457 133.336561,51.0203182 133.734805,51.0203182 L133.734805,51.0203182 L141.944532,51.0203182 C142.342776,51.0203182 142.522723,51.1999457 142.525673,51.5974819 L142.525673,51.5974819 L142.525673,62.3633524 C142.533508,62.6868826 142.349672,62.9846528 142.05663,63.1230883 C139.532427,64.387576 136.741743,65.030746 133.917702,64.9988704 C126.469064,64.9988704 120.973296,59.3361875 120.973296,52.0421335 C120.973296,44.497779 126.536913,39.0117756 133.953102,39.0117756 Z M66.4964643,39 C73.3285617,39 78.437885,44.7392455 78.437885,52.0303547 C78.437885,59.392137 73.1309147,64.9870916 66.4964643,64.9870916 C59.7322159,64.9870916 54.6228926,59.2507908 54.6228926,52.0303547 C54.6228926,44.6685724 59.8295644,39 66.4964643,39 Z M108.666081,39.6448921 C109.079609,39.6174047 109.453033,39.8907623 109.551068,40.292729 L109.551068,40.292729 L119.524868,64.3009735 C119.56083,64.4430316 119.56083,64.5917881 119.524868,64.7338463 C119.486519,64.8398559 119.341971,64.9134737 119.126624,64.9134737 L119.126624,64.9134737 L115.362481,64.9134737 C114.890488,64.9134737 114.639742,64.7691828 114.530593,64.3009735 L114.530593,64.3009735 L108.671981,49.6745844 L102.813369,64.3009735 C102.745514,64.6948104 102.378462,64.9650622 101.981482,64.9134737 L101.981482,64.9134737 L98.220288,64.9134737 C98.0661887,64.9217388 97.9176736,64.8547513 97.822044,64.7338463 C97.7501935,64.5984681 97.7501935,64.4363516 97.822044,64.3009735 L97.822044,64.3009735 L107.795844,40.292729 C107.891866,39.8958189 108.257593,39.623558 108.666081,39.6448921 Z M83.5177088,39.3621997 C83.7907334,39.3246706 84.0559766,39.4708341 84.169649,39.7214547 L84.169649,39.7214547 L89.4500697,50.1280701 L94.75999,39.7214547 C94.8873067,39.4838359 95.1426566,39.343124 95.4119302,39.3621997 L99.5625179,39.3621997 C99.6893669,39.3523052 99.8082782,39.4247121 99.8575134,39.5418272 C99.919118,39.6712648 99.9043802,39.824039 99.819164,39.9393634 L99.819164,39.9393634 L91.8542836,54.3390096 L91.8542836,64.0565623 C91.8871101,64.2206488 91.8356385,64.3902575 91.7171102,64.5085752 C91.5985818,64.6268929 91.4286712,64.678273 91.2642925,64.6455049 L91.2642925,64.6455049 L87.6830462,64.6455049 C87.5186675,64.678273 87.3487569,64.6268929 87.2302285,64.5085752 C87.1117002,64.3902575 87.0602286,64.2206488 87.0930551,64.0565623 L87.0930551,64.0565623 L87.0930551,54.3390096 L79.0957251,39.9393634 C78.9998376,39.8304429 78.9715201,39.6778002 79.0219763,39.5418272 C79.0712115,39.4247121 79.1901228,39.3523052 79.3169718,39.3621997 L79.3169718,39.3621997 Z M162.272676,39.3504208 C162.437055,39.3176527 162.606966,39.3690328 162.725494,39.4873505 C162.844022,39.6056682 162.895494,39.7752769 162.862668,39.9393634 L162.862668,39.9393634 L162.862668,43.4435718 C162.895494,43.6076584 162.844022,43.7772671 162.725494,43.8955847 C162.606966,44.0139024 162.437055,44.0652825 162.272676,44.0325144 L162.272676,44.0325144 L152.000931,44.0325144 L152.000931,49.7216998 L161.015995,49.7216998 C161.423089,49.7216998 161.605986,49.9366638 161.605986,50.3342001 L161.605986,50.3342001 L161.605986,53.6558362 C161.605986,54.0533725 161.414239,54.2683365 161.015995,54.2683365 L161.015995,54.2683365 L152.000931,54.2683365 L152.000931,59.9722455 L162.308076,59.9722455 C162.471806,59.9361424 162.64278,59.9841119 162.763693,60.1000769 C162.884606,60.2160419 162.939459,60.3846567 162.909867,60.5494092 L162.909867,60.5494092 L162.909867,64.0565623 C162.942693,64.2206488 162.891222,64.3902575 162.772693,64.5085752 C162.654165,64.6268929 162.484254,64.678273 162.319876,64.6455049 L162.319876,64.6455049 L147.817893,64.6455049 C147.653515,64.678273 147.483604,64.6268929 147.365076,64.5085752 C147.246547,64.3902575 147.195076,64.2206488 147.227902,64.0565623 L147.227902,64.0565623 L147.227902,39.9393634 C147.227902,39.5300483 147.419649,39.3504208 147.817893,39.3504208 L147.817893,39.3504208 Z M176.199417,39.3621997 C181.187792,39.3621997 184.479943,42.9341365 184.479943,47.7369633 C184.479943,50.9849816 182.308776,54.3772909 179.128723,55.3519909 L179.128723,55.3519909 L184.839838,64.0153363 C185.131883,64.4128725 185.022735,64.6455049 184.527142,64.6455049 L184.527142,64.6455049 L180.550602,64.6455049 C180.116997,64.6638129 179.710315,64.4357464 179.500418,64.0565623 L179.500418,64.0565623 L174.219997,56.1058374 L171.618136,56.1058374 L171.618136,64.0565623 C171.649423,64.2203694 171.59744,64.389014 171.479314,64.5069296 C171.361189,64.6248452 171.192244,64.6767361 171.028145,64.6455049 L171.028145,64.6455049 L167.411499,64.6455049 C167.247121,64.678273 167.07721,64.6268929 166.958682,64.5085752 C166.840153,64.3902575 166.788682,64.2206488 166.821508,64.0565623 L166.821508,64.0565623 L166.821508,39.9511423 C166.821508,39.5418272 167.013255,39.3621997 167.411499,39.3621997 L167.411499,39.3621997 Z M49.4680894,39.3555416 L49.5666685,39.3621997 L53.3426118,39.3621997 C53.4917921,39.3577612 53.6341839,39.4244571 53.726106,39.5418272 C53.7979565,39.6772053 53.7979565,39.8393219 53.726106,39.9747 L53.726106,39.9747 L43.737556,63.9947233 C43.6418934,64.3909884 43.2781873,64.6639005 42.870269,64.6455049 C42.457912,64.6624624 42.0925995,64.3821431 42.002982,63.9799997 L42.002982,63.9799997 L32.0291818,39.9747 C31.9902727,39.8330228 31.9902727,39.6835044 32.0291818,39.5418272 C32.0645813,39.4328728 32.2091291,39.3621997 32.4244759,39.3621997 L32.4244759,39.3621997 L36.1856694,39.3621997 C36.6576623,39.3621997 36.9113585,39.5064906 37.0175569,39.9747 L37.0175569,39.9747 L42.8761689,54.5981444 L48.734781,39.9747 C48.8012323,39.5800003 49.1692764,39.3090175 49.5666685,39.3621997 Z M66.4964643,43.6202546 C62.11873,43.6202546 59.0006268,47.4483814 59.0006268,52.0303547 C59.0006268,56.6888905 62.251478,60.3697817 66.4964643,60.3697817 C70.8092996,60.3697817 74.0601508,56.6152727 74.0601508,52.0303547 C74.0601508,47.3011457 70.8092996,43.6202546 66.4964643,43.6202546 Z M175.078434,43.6938724 L171.606336,43.6938724 L171.606336,51.7800541 L175.078434,51.7800541 C177.644896,51.7800541 179.706915,50.4814357 179.706915,47.7369633 C179.706915,44.9924908 177.644896,43.6938724 175.078434,43.6938724 L175.078434,43.6938724 Z" id="Logo" fill="#3831AB" fill-rule="nonzero"></path>
    </g>
</svg>