<svg width="24" height="24" viewBox="0 0 24 24" fill="none" xmlns="http://www.w3.org/2000/svg">
<path d="M2.30402 18.8519H3.45602V15.3479H20.544V18.8519H21.696V11.6279C21.696 9.77995 20.304 8.38795 18.48 8.38795L11.664 8.41195V14.1479H3.45602V5.14795H2.30402V18.8519ZM4.60802 10.0919C4.60802 11.7239 5.92802 13.0199 7.56002 13.0199C9.16802 13.0199 10.512 11.7239 10.512 10.0919C10.512 8.45995 9.16802 7.13995 7.56002 7.13995C5.92802 7.13995 4.60802 8.45995 4.60802 10.0919ZM5.64002 10.0919C5.64002 9.01195 6.50402 8.17195 7.56002 8.17195C8.61602 8.17195 9.48002 9.01195 9.48002 10.0919C9.48002 11.1479 8.61602 12.0119 7.56002 12.0119C6.50402 12.0119 5.64002 11.1479 5.64002 10.0919ZM12.792 14.1479V9.53995H18.768C19.896 9.53995 20.568 10.2119 20.568 11.3399L20.544 14.1479H12.792Z" fill="black"/>
</svg>
