<svg width="24" height="24" viewBox="0 0 24 24" fill="none" xmlns="http://www.w3.org/2000/svg">
<path d="M12 21.1199C17.112 21.1199 21.12 16.9679 21.12 11.9999C21.12 6.91188 17.088 2.87988 12 2.87988C6.912 2.87988 2.88 6.91188 2.88 11.9999C2.88 17.0879 6.912 21.1199 12 21.1199ZM4.08 11.9999C4.08 7.55988 7.56 4.07988 12 4.07988C16.44 4.07988 19.92 7.55988 19.92 11.9999C19.92 16.3199 16.44 19.9199 12 19.9199C7.56 19.9199 4.08 16.4399 4.08 11.9999ZM8.328 13.4159C8.328 15.3119 9.648 16.6319 11.568 16.7999V17.9759H12.456V16.7999C14.256 16.6319 15.6 15.5279 15.6 13.9439C15.6 12.5279 14.544 11.6879 12.936 11.4719L11.376 11.2799C10.272 11.1359 9.768 10.7039 9.768 9.81588C9.768 8.71188 10.632 8.15988 12.024 8.15988C13.536 8.15988 14.256 8.85588 14.232 10.2719H15.408C15.408 8.59188 14.184 7.31988 12.456 7.15188V5.97588H11.568V7.15188C9.888 7.31988 8.64 8.39988 8.64 9.86388C8.64 11.2319 9.528 12.0479 11.04 12.2399L12.6 12.4559C13.848 12.6239 14.424 13.0559 14.424 14.0159C14.424 15.1919 13.584 15.7679 12.024 15.7679C10.272 15.7679 9.456 15.0479 9.456 13.4159H8.328Z" fill="black"/>
</svg>
