<svg width="24" height="24" viewBox="0 0 24 24" fill="none" xmlns="http://www.w3.org/2000/svg">
<path d="M11.424 8.78388V17.0399H12.576V8.75988C13.128 9.33588 13.656 9.88788 14.208 10.4399L15.6 11.8079L16.368 11.0639L12 6.71988L7.656 11.0639L8.424 11.8079L9.816 10.4399L11.424 8.78388ZM2.88 11.9999C2.88 17.0879 6.912 21.1199 12 21.1199C17.112 21.1199 21.12 16.9679 21.12 11.9999C21.12 6.91188 17.088 2.87988 12 2.87988C6.912 2.87988 2.88 6.91188 2.88 11.9999ZM4.08 11.9999C4.08 7.55988 7.56 4.07988 12 4.07988C16.44 4.07988 19.92 7.55988 19.92 11.9999C19.92 16.3199 16.44 19.9199 12 19.9199C7.56 19.9199 4.08 16.4399 4.08 11.9999Z" fill="black"/>
</svg>
