<svg width="24" height="24" viewBox="0 0 24 24" fill="none" xmlns="http://www.w3.org/2000/svg">
<path d="M9.648 15.7919H15.792V9.64788H14.712V11.5919C14.712 12.3599 14.712 13.1279 14.736 13.9199L8.904 8.06388L8.088 8.90388L13.944 14.7359C13.152 14.7359 12.384 14.7119 11.592 14.7119H9.648V15.7919ZM2.88 11.9999C2.88 17.0879 6.912 21.1199 12 21.1199C17.112 21.1199 21.12 16.9679 21.12 11.9999C21.12 6.91188 17.088 2.87988 12 2.87988C6.912 2.87988 2.88 6.91188 2.88 11.9999ZM4.08 11.9999C4.08 7.55988 7.56 4.07988 12 4.07988C16.44 4.07988 19.92 7.55988 19.92 11.9999C19.92 16.3199 16.44 19.9199 12 19.9199C7.56 19.9199 4.08 16.4399 4.08 11.9999Z" fill="black"/>
</svg>
