<svg width="24" height="24" viewBox="0 0 24 24" fill="none" xmlns="http://www.w3.org/2000/svg">
<path d="M8.85601 16.0799H11.808C13.416 16.0799 14.808 15.4799 15.792 14.1839C15.96 13.9919 16.08 13.7999 16.2 13.5839H16.92C19.704 13.5839 21.792 11.7359 21.792 9.16793C21.792 6.52793 19.704 4.67993 16.92 4.67993H3.79201V10.1999C3.79201 12.0239 4.12801 13.2239 4.89601 14.1839C5.90401 15.4799 7.24801 16.0799 8.85601 16.0799ZM2.20801 18.1199C2.37601 18.7919 3.02401 19.3199 3.79201 19.3199H17.952C18.744 19.3199 19.392 18.7919 19.56 18.1199H2.20801ZM5.06401 10.8479V5.80793H15.624V10.8479C15.624 13.4159 14.52 14.8799 11.928 14.8799H8.76001C6.21601 14.8799 5.06401 13.4639 5.06401 10.8479ZM16.632 12.4319C16.8 11.8079 16.872 11.0879 16.872 10.1999V5.80793C19.32 5.83193 20.544 6.79193 20.544 8.85593V9.43193C20.544 11.4239 19.344 12.4319 16.992 12.4319H16.632Z" fill="black"/>
</svg>
