<svg width="24" height="24" viewBox="0 0 24 24" fill="none" xmlns="http://www.w3.org/2000/svg">
<path d="M5.25601 20.4001H18.744C18.528 19.7761 17.928 19.3201 17.16 19.3201H14.808L14.16 16.3201H19.56C20.544 16.3201 21.36 15.5041 21.36 14.5201V5.4001C21.36 4.4161 20.544 3.6001 19.56 3.6001H4.44001C3.45601 3.6001 2.64001 4.4161 2.64001 5.4001V14.5201C2.64001 15.5041 3.45601 16.3201 4.44001 16.3201H9.84002L9.19202 19.3201H6.84002C6.12001 19.3201 5.49601 19.7761 5.25601 20.4001ZM3.84001 14.4961V5.4241C3.84001 5.0161 4.12801 4.7281 4.53601 4.7281H19.488C19.896 4.7281 20.16 5.0161 20.16 5.4241V14.4961C20.16 14.9041 19.896 15.1681 19.488 15.1681H4.53601C4.12801 15.1681 3.84001 14.9041 3.84001 14.4961ZM10.248 19.3201L10.896 16.3201H13.104L13.752 19.3201H10.248Z" fill="black"/>
</svg>
