<svg width="16" height="12" viewBox="0 0 16 12" fill="none" xmlns="http://www.w3.org/2000/svg">
<path d="M13.5535 1.42123C12.5023 0.984667 11.3925 0.674952 10.2526 0.5C10.0966 0.752955 9.95547 1.01321 9.82976 1.27968C8.6155 1.1137 7.38067 1.1137 6.16641 1.27968C6.04063 1.01324 5.89949 0.752985 5.74357 0.5C4.60289 0.676429 3.4924 0.986879 2.44013 1.42352C0.351096 4.22717 -0.215207 6.96119 0.0679444 9.65639C1.29133 10.4763 2.66066 11.0999 4.11639 11.5C4.44417 11.1001 4.73422 10.6758 4.98346 10.2317C4.51007 10.0714 4.05317 9.87348 3.61804 9.64041C3.73256 9.56507 3.84456 9.48744 3.95279 9.4121C5.21891 9.95222 6.60083 10.2323 7.99997 10.2323C9.39912 10.2323 10.781 9.95222 12.0472 9.4121C12.1566 9.49315 12.2686 9.57078 12.3819 9.64041C11.9459 9.87386 11.4882 10.0721 11.014 10.2329C11.2629 10.6768 11.553 11.1007 11.881 11.5C13.338 11.1015 14.7084 10.4782 15.932 9.65753C16.2642 6.53196 15.3644 3.82306 13.5535 1.42123ZM5.34212 7.99886C4.55307 7.99886 3.90119 7.34931 3.90119 6.55023C3.90119 5.75114 4.53042 5.09589 5.3396 5.09589C6.14879 5.09589 6.79563 5.75114 6.78179 6.55023C6.76795 7.34931 6.14627 7.99886 5.34212 7.99886ZM10.6578 7.99886C9.86752 7.99886 9.21815 7.34931 9.21815 6.55023C9.21815 5.75114 9.84738 5.09589 10.6578 5.09589C11.4683 5.09589 12.1101 5.75114 12.0962 6.55023C12.0824 7.34931 11.462 7.99886 10.6578 7.99886Z" fill="white"/>
</svg>