<svg width="24" height="24" viewBox="0 0 24 24" fill="none" xmlns="http://www.w3.org/2000/svg">
<path d="M5.952 14.4961C6.024 17.9041 8.184 20.1121 11.496 20.3761L11.472 22.3201H12.744V20.3761C15.672 20.1601 18.048 18.3601 18.048 15.5281C18.048 13.0321 16.248 11.6881 13.536 11.3281L11.04 10.9681C9 10.6801 7.944 9.86405 7.944 8.18405V7.99205C7.944 6.04805 9.456 4.89605 11.904 4.89605H12.264C14.928 4.89605 16.248 6.33605 16.272 9.00005H17.76C17.712 5.95205 15.696 3.86405 12.744 3.62405V1.68005H11.496V3.62405C8.856 3.86405 6.552 5.47205 6.552 8.18405C6.552 10.5361 8.136 11.8801 10.728 12.2401L13.176 12.5761C15.432 12.8641 16.608 13.7521 16.608 15.5281V15.7921C16.608 17.9041 15 19.0801 12.336 19.0801H12.024C8.928 19.0801 7.44 17.4721 7.416 14.4961H5.952Z" fill="black"/>
</svg>
