<svg width="24" height="24" viewBox="0 0 24 24" fill="none" xmlns="http://www.w3.org/2000/svg">
<path d="M13.212 16.704H13.26C15.18 16.704 16.572 15.552 16.572 14.04C16.572 13.056 15.972 12.264 15.012 11.928V11.76C15.804 11.448 16.308 10.728 16.308 9.84C16.308 8.424 14.988 7.344 13.26 7.344H13.212C11.484 7.344 10.164 8.424 10.164 9.84C10.164 10.728 10.668 11.472 11.484 11.784V11.928C10.5 12.24 9.90003 13.056 9.90003 14.04C9.90003 15.552 11.292 16.704 13.212 16.704ZM4.11603 12C4.11603 17.088 8.14803 21.12 13.236 21.12H19.884V19.92H13.236C8.79603 19.92 5.31603 16.44 5.31603 12C5.31603 7.68 8.79603 4.08 13.236 4.08H19.884V2.88H13.236C8.12403 2.88 4.11603 7.032 4.11603 12ZM11.172 14.16V13.848C11.172 12.936 11.82 12.432 13.188 12.432H13.332C14.7 12.432 15.348 12.936 15.348 13.848V14.16C15.348 15.096 14.676 15.624 13.332 15.624H13.188C11.844 15.624 11.172 15.096 11.172 14.16ZM11.316 10.08V9.768C11.316 8.928 11.94 8.424 13.164 8.424H13.308C14.508 8.424 15.156 8.928 15.156 9.768V10.08C15.156 10.92 14.532 11.4 13.308 11.4H13.164C11.916 11.4 11.316 10.92 11.316 10.08Z" fill="black"/>
</svg>
