<svg width="24" height="24" viewBox="0 0 24 24" fill="none" xmlns="http://www.w3.org/2000/svg">
<path d="M12.0004 20.7188C9.68867 20.7163 7.47236 19.7969 5.83775 18.1622C4.20314 16.5276 3.28373 14.3113 3.28125 11.9996C3.28392 9.68807 4.20341 7.47196 5.838 5.8375C7.4726 4.20304 9.68879 3.28373 12.0004 3.28125C14.3118 3.28392 16.5278 4.20332 18.1622 5.83775C19.7967 7.47219 20.7161 9.6882 20.7187 11.9996C20.7163 14.3112 19.797 16.5274 18.1625 18.162C16.528 19.7966 14.3119 20.7161 12.0004 20.7188ZM12.0004 4.28907C9.95597 4.29117 7.9959 5.10418 6.55022 6.54972C5.10455 7.99525 4.29136 9.95525 4.28907 11.9996C4.29136 14.0441 5.10453 16.0042 6.55018 17.4498C7.99583 18.8955 9.9559 19.7086 12.0004 19.7109C14.0448 19.7086 16.0047 18.8954 17.4503 17.4498C18.8958 16.0041 19.7088 14.044 19.7109 11.9996C19.7086 9.95537 18.8955 7.99549 17.45 6.54997C16.0045 5.10445 14.0446 4.29136 12.0004 4.28907Z" fill="black"/>
<path d="M8.79404 11.2078C9.45521 11.2078 9.99119 10.6718 9.99119 10.0106C9.99119 9.34946 9.45521 8.81348 8.79404 8.81348C8.13287 8.81348 7.59689 9.34946 7.59689 10.0106C7.59689 10.6718 8.13287 11.2078 8.79404 11.2078Z" fill="black"/>
<path d="M15.144 11.2078C15.8052 11.2078 16.3412 10.6718 16.3412 10.0106C16.3412 9.34946 15.8052 8.81348 15.144 8.81348C14.4829 8.81348 13.9469 9.34946 13.9469 10.0106C13.9469 10.6718 14.4829 11.2078 15.144 11.2078Z" fill="black"/>
<path d="M15.2823 15.8999C15.007 15.2471 14.5451 14.6901 13.9547 14.2987C13.3642 13.9072 12.6714 13.6987 11.9629 13.6993C11.2544 13.6986 10.5613 13.907 9.97074 14.2985C9.38014 14.69 8.91822 15.247 8.64287 15.8999L7.71567 15.5076C8.06806 14.6724 8.65899 13.9597 9.41448 13.4588C10.17 12.9579 11.0564 12.691 11.9629 12.6914C12.8694 12.691 13.7559 12.9579 14.5114 13.4588C15.2669 13.9597 15.8578 14.6724 16.2102 15.5076L15.2823 15.8999Z" fill="black"/>
</svg>
