<svg width="24" height="24" viewBox="0 0 24 24" fill="none" xmlns="http://www.w3.org/2000/svg">
<path d="M7.44004 12.552H13.44V11.424H7.44004V12.552ZM3.93604 12C3.93604 17.424 6.74404 22.08 10.608 22.08H13.488C17.232 22.08 20.064 17.448 20.064 12C20.064 6.55204 17.232 1.92004 13.488 1.92004H10.608C6.74404 1.92004 3.93604 6.57604 3.93604 12ZM5.13604 12C5.13604 7.10404 7.58404 3.12004 10.608 3.12004C13.536 3.12004 16.032 7.10404 16.032 12C16.032 16.896 13.536 20.88 10.608 20.88C7.58404 20.88 5.13604 16.896 5.13604 12ZM13.488 20.88C15.6 19.248 17.04 15.84 17.04 12C17.04 8.16004 15.6 4.75204 13.488 3.12004C16.44 3.12004 18.864 7.10404 18.864 12C18.864 16.896 16.44 20.88 13.488 20.88Z" fill="black"/>
</svg>
