<svg width="24" height="24" viewBox="0 0 24 24" fill="none" xmlns="http://www.w3.org/2000/svg">
<path d="M12 21.24C16.32 21.24 19.704 19.944 19.704 17.736V6.24001C19.704 4.03201 16.44 2.76001 12 2.76001C7.68 2.76001 4.296 4.03201 4.296 6.24001V17.736C4.296 19.944 7.608 21.24 12 21.24ZM5.496 17.736V15.744C6.696 16.776 9.096 17.352 12 17.352C14.88 17.352 17.28 16.752 18.504 15.744V17.736C18.504 19.032 16.008 20.04 12 20.04C7.944 20.04 5.496 19.032 5.496 17.736ZM5.496 13.896V11.928C6.696 12.96 9.096 13.56 12 13.56C14.88 13.56 17.28 12.96 18.504 11.928V13.896C18.504 15.24 15.96 16.272 12 16.272C7.968 16.272 5.496 15.24 5.496 13.896ZM5.496 10.056V8.11201C6.696 9.12001 9.096 9.69601 12 9.69601C14.856 9.69601 17.28 9.12001 18.504 8.08801V10.056C18.504 11.424 15.96 12.48 12 12.48C7.968 12.48 5.496 11.424 5.496 10.056ZM5.496 6.24001C5.496 4.94401 7.992 3.96001 12 3.96001C16.104 3.96001 18.504 4.94401 18.504 6.24001C18.504 7.60801 15.984 8.61601 12 8.61601C7.968 8.61601 5.496 7.63201 5.496 6.24001Z" fill="black"/>
</svg>
