<svg width="24" height="24" viewBox="0 0 24 24" fill="none" xmlns="http://www.w3.org/2000/svg">
<path d="M4.8 20.6279H19.2C20.304 20.6279 21.12 19.8119 21.12 18.7079V10.0679C21.12 8.96395 20.304 8.14795 19.2 8.14795H17.928C18.504 7.64395 18.744 6.92395 18.744 6.27595C18.744 4.73995 17.496 3.37195 15.888 3.37195C15.36 3.37195 14.832 3.51595 14.424 3.77995C13.608 4.25995 13.032 5.14795 12.528 6.08395L12 7.11595L11.472 6.08395C10.968 5.14795 10.392 4.25995 9.576 3.77995C9.168 3.51595 8.64 3.37195 8.136 3.37195C6.504 3.37195 5.28 4.73995 5.28 6.27595C5.28 6.92395 5.496 7.64395 6.072 8.14795H4.8C3.696 8.14795 2.88 8.96395 2.88 10.0679V18.7079C2.88 19.8119 3.696 20.6279 4.8 20.6279ZM4.08 18.7319V13.6679H19.92V18.7319C19.92 19.2119 19.656 19.4759 19.176 19.4759H4.824C4.368 19.4759 4.08 19.2119 4.08 18.7319ZM4.08 11.7479V10.0199C4.08 9.56395 4.368 9.27595 4.824 9.27595H19.176C19.656 9.27595 19.92 9.56395 19.92 10.0199V11.7479H4.08ZM5.76 17.6279H9.36V15.7079H5.76V17.6279ZM6.36 6.27595C6.36 5.31595 7.128 4.45195 8.136 4.45195C9.264 4.45195 9.96 5.48395 10.512 6.58795L11.352 8.19595H9.504C8.688 8.19595 7.776 8.17195 7.176 7.78795C6.6 7.45195 6.36 6.82795 6.36 6.27595ZM12.648 8.19595L13.488 6.58795C14.064 5.48395 14.736 4.45195 15.888 4.45195C16.896 4.45195 17.664 5.31595 17.664 6.27595C17.664 6.82795 17.424 7.45195 16.848 7.78795C16.224 8.17195 15.336 8.19595 14.496 8.19595H12.648Z" fill="black"/>
</svg>
