<svg width="24" height="24" viewBox="0 0 24 24" fill="none" xmlns="http://www.w3.org/2000/svg">
<path d="M12 21.12C17.136 21.12 21.12 16.968 21.12 12C21.12 6.888 17.136 2.88 12 2.88C6.864 2.88 2.88 6.888 2.88 12C2.88 17.112 6.864 21.12 12 21.12ZM4.032 12C4.032 11.016 4.2 10.104 4.488 9.24001H7.94401C7.82401 10.104 7.75201 11.04 7.75201 12C7.75201 12.96 7.82401 13.872 7.94401 14.736H4.488C4.2 13.896 4.032 12.96 4.032 12ZM4.92 8.23201C5.976 6.144 7.92 4.632 10.296 4.128C9.24001 5.064 8.544 6.504 8.136 8.23201H4.92ZM4.92 15.768H8.136C8.544 17.496 9.24001 18.936 10.272 19.872C7.92 19.368 6.00001 17.856 4.92 15.768ZM8.90401 12C8.90401 11.04 8.97601 10.104 9.12001 9.24001H14.904C15.048 10.104 15.12 11.04 15.12 12C15.12 12.96 15.048 13.872 14.904 14.736H9.12001C8.97601 13.872 8.90401 12.96 8.90401 12ZM9.31201 15.768H14.712C14.184 17.952 13.224 19.56 12 20.04C10.8 19.56 9.84 17.952 9.31201 15.768ZM9.31201 8.23201C9.84 6.048 10.8 4.44 12 3.96C13.224 4.44 14.184 6.048 14.712 8.23201H9.31201ZM13.704 4.128C16.08 4.632 18.024 6.144 19.104 8.23201H15.864C15.456 6.504 14.76 5.064 13.704 4.128ZM13.728 19.848C14.76 18.936 15.456 17.496 15.864 15.768H19.056C18 17.808 16.056 19.344 13.728 19.848ZM16.056 9.24001H19.536C19.824 10.104 19.992 11.016 19.992 12C19.992 12.96 19.824 13.872 19.512 14.736H16.056C16.176 13.872 16.248 12.96 16.248 12C16.248 11.04 16.176 10.104 16.056 9.24001Z" fill="black"/>
</svg>
