<svg width="24" height="24" viewBox="0 0 24 24" fill="none" xmlns="http://www.w3.org/2000/svg">
<path d="M9.96002 21.36H14.04C19.632 21.36 21.36 19.584 21.36 14.04V9.96002C21.36 4.41601 19.632 2.64001 14.04 2.64001H9.96002C4.36801 2.64001 2.64001 4.41601 2.64001 9.96002V14.04C2.64001 19.584 4.36801 21.36 9.96002 21.36ZM4.29601 14.04V9.96002C4.29601 5.35201 5.32801 4.29601 9.96002 4.29601H14.04C18.672 4.29601 19.704 5.35201 19.704 9.96002V14.04C19.704 18.648 18.672 19.704 14.04 19.704H9.96002C5.32801 19.704 4.29601 18.648 4.29601 14.04ZM7.20002 12C7.20002 14.664 9.33602 16.8 12 16.8C14.664 16.8 16.8 14.664 16.8 12C16.8 9.33602 14.664 7.20002 12 7.20002C9.33602 7.20002 7.20002 9.33602 7.20002 12ZM8.88002 12C8.88002 10.272 10.272 8.88002 12 8.88002C13.728 8.88002 15.12 10.272 15.12 12C15.12 13.728 13.728 15.12 12 15.12C10.272 15.12 8.88002 13.728 8.88002 12ZM15.888 7.00802C15.888 7.60802 16.392 8.11202 16.992 8.11202C17.592 8.11202 18.096 7.60802 18.096 7.00802C18.096 6.40801 17.592 5.90401 16.992 5.90401C16.392 5.90401 15.888 6.40801 15.888 7.00802Z" fill="black"/>
</svg>
