<svg width="24" height="24" viewBox="0 0 24 24" fill="none" xmlns="http://www.w3.org/2000/svg">
<path fill-rule="evenodd" clip-rule="evenodd" d="M16.0278 10.2639H14.9461L13.4077 15.5954H14.2L14.5577 14.3025H16.3701L16.7057 15.5954H17.5202L16.0278 10.2639ZM15.5298 11.1319L16.1774 13.6001H14.7461L15.4233 11.1319H15.5298Z" fill="black"/>
<path fill-rule="evenodd" clip-rule="evenodd" d="M8.6081 15.3048L3.17627 10.4763V3.28125H13.8743V8.5887H20.8237V15.8976L15.4676 20.7187L16.3788 17.2847H10.1053V11.8276H7.76589L8.6081 15.3048ZM13.0124 4.14315V8.5887H10.1053V8.85195C9.87528 8.82265 9.6724 8.77057 9.49362 8.70277C10.0821 7.99734 10.261 7.14437 10.3148 6.63526H10.825V5.77336H9.15293V4.89423H8.29103V5.77336H6.61894V6.63526H9.44736C9.39179 7.0597 9.22904 7.72681 8.75584 8.23635C8.32987 7.81917 8.22073 7.34649 8.21346 7.31186L7.3688 7.48486C7.4379 7.82644 7.64671 8.31016 8.04636 8.74207C7.65108 8.91976 7.17729 9.00388 6.62879 8.99259L6.61093 9.85449H6.72545C7.53578 9.85449 8.2258 9.67555 8.78645 9.32193C9.14538 9.52082 9.58138 9.66701 10.1053 9.71921V10.9657H6.67005L7.12193 12.8305L4.03817 10.089V4.14315H13.0124ZM10.9672 16.4228H17.4992L17.0436 18.1398L19.9593 15.5141V9.4506H10.9678L10.9672 16.4228Z" fill="black"/>
</svg>
