<svg width="24" height="24" viewBox="0 0 24 24" fill="none" xmlns="http://www.w3.org/2000/svg">
<path d="M12 14.784C10.464 14.784 9.216 13.536 9.216 12C9.216 10.44 10.464 9.192 12 9.192C13.56 9.192 14.808 10.44 14.808 12C14.808 13.536 13.56 14.784 12 14.784ZM2.88 12C2.88 17.088 6.912 21.12 12 21.12C17.112 21.12 21.12 16.968 21.12 12C21.12 6.912 17.088 2.88 12 2.88C6.912 2.88 2.88 6.912 2.88 12ZM4.08 12C4.08 10.008 4.776 8.184 5.976 6.816L8.88 9.72C8.4 10.368 8.136 11.136 8.136 12C8.136 12.864 8.4 13.632 8.88 14.28L5.976 17.184C4.776 15.816 4.08 13.992 4.08 12ZM6.816 18.024L9.72 15.12C10.368 15.6 11.136 15.864 12 15.864C12.864 15.864 13.632 15.6 14.28 15.12L17.16 18C15.792 19.2 13.992 19.92 12 19.92C10.008 19.92 8.184 19.224 6.816 18.024ZM6.816 5.976C8.184 4.776 10.008 4.08 12 4.08C13.992 4.08 15.816 4.776 17.184 5.976L14.28 8.88C13.632 8.4 12.864 8.112 12 8.112C11.136 8.112 10.368 8.4 9.72 8.88L6.816 5.976ZM15.12 14.28C15.6 13.632 15.888 12.864 15.888 12C15.888 11.136 15.6 10.368 15.12 9.72L18.024 6.816C19.224 8.184 19.92 10.008 19.92 12C19.92 13.968 19.2 15.768 18 17.16L15.12 14.28Z" fill="black"/>
</svg>
