<svg width="24" height="24" viewBox="0 0 24 24" fill="none" xmlns="http://www.w3.org/2000/svg">
<path d="M19.968 20.832L20.832 19.968L4.03204 3.16804L3.16804 4.03204L19.968 20.832ZM4.00804 19.992C5.76004 21.72 8.61604 21.72 10.368 19.992L13.464 16.92L12.576 16.008L9.48004 19.08C7.99204 20.568 6.38404 20.568 4.92004 19.08C3.45604 17.616 3.45604 16.008 4.92004 14.52L7.99204 11.424L7.08004 10.536L4.00804 13.632C2.28004 15.384 2.28004 18.24 4.00804 19.992ZM10.536 7.08004L11.448 7.96804L14.544 4.89604C16.008 3.43204 17.64 3.43204 19.104 4.89604C20.568 6.36004 20.568 7.99204 19.104 9.45604L16.032 12.552L16.92 13.464L19.992 10.368C21.72 8.61604 21.72 5.76004 19.992 4.00804C18.24 2.28004 15.384 2.28004 13.632 4.00804L10.536 7.08004Z" fill="black"/>
</svg>
