<svg width="24" height="24" viewBox="0 0 24 24" fill="none" xmlns="http://www.w3.org/2000/svg">
<path d="M13.5721 21.84H20.8201V2.16003H13.7401V9.26403L8.65205 4.17603L3.18005 9.64803L13.5721 20.064V21.84ZM4.78805 9.64803L8.65205 5.78403L19.0441 16.176C19.6441 16.776 19.9081 17.424 19.9081 18.168C19.9081 19.68 18.6601 20.904 17.1721 20.904C16.4521 20.904 15.7561 20.616 15.1801 20.04L4.78805 9.64803ZM15.2761 5.73603C15.2761 4.63203 16.1641 3.74403 17.3161 3.74403C18.3961 3.74403 19.2841 4.63203 19.2841 5.73603C19.2841 6.76803 18.3961 7.77603 17.3161 7.77603C16.1881 7.75203 15.2761 6.76803 15.2761 5.73603ZM15.6361 18.144C15.6361 18.984 16.3081 19.704 17.1721 19.704C18.0121 19.704 18.6841 18.984 18.6841 18.144C18.6841 17.304 18.0121 16.632 17.1721 16.632C16.3081 16.632 15.6361 17.304 15.6361 18.144ZM16.0201 5.73603C16.0201 6.43203 16.5721 7.05603 17.3161 7.03203C18.0121 7.05603 18.5881 6.43203 18.5881 5.73603C18.5641 5.04003 18.0121 4.46403 17.3161 4.46403C16.5721 4.46403 16.0201 5.04003 16.0201 5.73603Z" fill="black"/>
</svg>
