<svg width="24" height="24" viewBox="0 0 24 24" fill="none" xmlns="http://www.w3.org/2000/svg">
<path d="M2.64001 9.04801H21.36V2.76001H2.66401L2.64001 9.04801ZM3.72001 7.96801L3.74401 3.84001H10.92C10.368 4.34401 10.032 5.08801 10.032 5.90401C10.032 6.72001 10.368 7.46401 10.92 7.96801H3.72001ZM7.65602 16.896L12 21.24L16.344 16.896L15.576 16.128L14.16 17.568C13.632 18.072 13.104 18.624 12.576 19.176V10.92H11.424V19.2C10.896 18.648 10.368 18.096 9.84002 17.568L8.40002 16.128L7.65602 16.896ZM11.112 5.90401C11.112 4.77601 12.048 3.84001 13.128 3.84001H20.28V7.96801H13.128C12.048 7.96801 11.112 7.03201 11.112 5.90401ZM12.12 5.90401C12.12 6.55201 12.648 7.08001 13.272 7.08001C13.92 7.08001 14.448 6.55201 14.448 5.90401C14.448 5.25601 13.92 4.72801 13.272 4.72801C12.648 4.72801 12.12 5.25601 12.12 5.90401Z" fill="black"/>
</svg>
