<svg width="24" height="24" viewBox="0 0 24 24" fill="none" xmlns="http://www.w3.org/2000/svg">
<path d="M14.82 20.04L4.42801 9.64803L8.29201 5.78403L18.684 16.176C19.284 16.752 19.548 17.424 19.548 18.168C19.548 19.68 18.3 20.904 16.812 20.904C16.092 20.904 15.396 20.616 14.82 20.04ZM2.82001 9.64803L13.212 20.064V21.84H20.46V12.024H21.18V9.52803H20.46V6.76803H21.18V4.29603H20.46V2.16003H13.38V9.26403L8.29201 4.17603L2.82001 9.64803ZM15.276 18.144C15.276 18.984 15.948 19.704 16.812 19.704C17.652 19.704 18.324 18.984 18.324 18.144C18.324 17.304 17.652 16.632 16.812 16.632C15.948 16.632 15.276 17.304 15.276 18.144Z" fill="black"/>
</svg>
