<svg width="24" height="24" viewBox="0 0 24 24" fill="none" xmlns="http://www.w3.org/2000/svg">
<path d="M17.8561 22.3201L22.3201 17.8561L6.14405 1.68005L1.68005 6.14405L17.8561 22.3201ZM3.21605 6.14405L6.14405 3.19205L12.9841 10.0321C12.2401 10.0081 11.4721 10.2961 10.8721 10.8721C10.2961 11.4481 10.0321 12.2401 10.0561 12.9841L3.21605 6.14405ZM4.96805 6.12005C4.96805 6.76805 5.49605 7.29605 6.14405 7.29605C6.76805 7.29605 7.32005 6.76805 7.32005 6.12005C7.32005 5.47205 6.76805 4.94405 6.14405 4.94405C5.49605 4.94405 4.96805 5.47205 4.96805 6.12005ZM11.5921 14.5201C10.8241 13.7521 10.8481 12.4561 11.6401 11.6401C12.4561 10.8481 13.7521 10.8481 14.5201 11.5921L20.8081 17.8561L17.8561 20.8081L11.5921 14.5201ZM12.0241 13.1761C12.0241 13.8241 12.5521 14.3521 13.1761 14.3521C13.8241 14.3521 14.3521 13.8241 14.3521 13.1761C14.3521 12.5281 13.8241 12.0001 13.1761 12.0001C12.5521 12.0001 12.0241 12.5281 12.0241 13.1761Z" fill="black"/>
</svg>
