<svg width="24" height="24" viewBox="0 0 24 24" fill="none" xmlns="http://www.w3.org/2000/svg">
<path d="M2.03998 21.144H18.096C20.208 21.144 21.96 19.392 21.96 17.256C21.96 16.152 21.528 15.216 20.76 14.424L9.19198 2.85596L3.81598 8.20796L8.99998 13.392H2.03998V21.144ZM3.19198 19.992V14.52H18.096C19.608 14.52 20.832 15.744 20.832 17.256C20.832 18.792 19.608 19.992 18.096 19.992H3.19198ZM5.42398 8.20796L9.19198 4.46396L18.144 13.44C17.88 13.416 17.592 13.392 17.328 13.392H10.608L5.42398 8.20796ZM16.44 17.256C16.44 18.072 17.112 18.792 17.976 18.792C18.816 18.792 19.488 18.072 19.488 17.256C19.488 16.416 18.816 15.744 17.976 15.744C17.112 15.744 16.44 16.416 16.44 17.256Z" fill="black"/>
</svg>
