<svg width="24" height="24" viewBox="0 0 24 24" fill="none" xmlns="http://www.w3.org/2000/svg">
<path d="M12 21.12C17.112 21.12 21.12 16.968 21.12 12C21.12 6.912 17.088 2.88 12 2.88C6.912 2.88 2.88 6.912 2.88 12C2.88 17.088 6.912 21.12 12 21.12ZM4.08 12C4.08 7.56 7.56 4.08 12 4.08C16.44 4.08 19.92 7.56 19.92 12C19.92 16.32 16.44 19.92 12 19.92C7.56 19.92 4.08 16.44 4.08 12ZM8.88 13.896C9.048 15.6 10.344 16.704 12.072 16.704C14.328 16.704 15.6 14.832 15.576 11.904C15.552 9.048 14.256 7.344 12.072 7.344C10.344 7.344 8.952 8.664 8.952 10.464C8.952 12.216 10.224 13.512 11.928 13.512C12.984 13.512 13.872 12.984 14.232 12.096H14.376C14.448 14.16 13.872 15.624 12.048 15.624C10.872 15.624 10.2 15.048 10.08 13.896H8.88ZM10.128 10.632V10.224C10.128 9.096 10.8 8.424 12.048 8.424H12.192C13.464 8.424 14.112 9.168 14.112 10.224V10.632C14.112 11.76 13.44 12.432 12.192 12.432H12.048C10.8 12.432 10.128 11.76 10.128 10.632Z" fill="black"/>
</svg>
