<svg width="24" height="24" viewBox="0 0 24 24" fill="none" xmlns="http://www.w3.org/2000/svg">
<path d="M18.012 21.3721L21.372 17.9161L15.996 13.0921L11.748 17.2441C10.812 16.5721 9.9 15.8041 9.06 14.9401C8.22 14.1001 7.428 13.1881 6.756 12.2521L10.908 8.00405L6.084 2.62805L2.628 5.98805C3.348 9.56405 5.484 13.0441 8.22 15.7801C10.98 18.5401 14.412 20.6761 18.012 21.3721ZM3.948 6.37205L6.036 4.35605L9.276 7.95605L6.06 11.2201C5.1 9.70805 4.356 8.07605 3.948 6.37205ZM12.78 17.9401L16.044 14.7241L19.644 17.9641L17.628 20.0521C15.924 19.6441 14.292 18.9241 12.78 17.9401Z" fill="black"/>
</svg>
