<svg width="24" height="24" viewBox="0 0 24 24" fill="none" xmlns="http://www.w3.org/2000/svg">
<path d="M11.9997 14.8125C11.1795 14.8115 10.3931 14.479 9.8132 13.8881C9.23327 13.2972 8.9071 12.4961 8.90625 11.6606V5.96444C8.9071 5.12887 9.23327 4.32777 9.8132 3.73687C10.3931 3.14597 11.1795 2.81354 11.9997 2.8125C12.82 2.81354 13.6064 3.14595 14.1864 3.73683C14.7664 4.32771 15.0927 5.12881 15.0938 5.96444V11.6606C15.0929 12.4962 14.7666 13.2974 14.1866 13.8884C13.6065 14.4793 12.82 14.8116 11.9997 14.8125ZM11.9997 3.92464C11.4689 3.92533 10.96 4.14048 10.5848 4.52289C10.2095 4.90529 9.99848 5.42372 9.99797 5.96444V11.6606C9.99831 12.2013 10.2093 12.7199 10.5846 13.1023C10.9599 13.4847 11.4688 13.6998 11.9997 13.7004C12.5306 13.6998 13.0396 13.4848 13.415 13.1023C13.7904 12.7199 14.0015 12.2014 14.002 11.6606V5.96444C14.0015 5.42361 13.7904 4.90508 13.415 4.52266C13.0396 4.14024 12.5306 3.92516 11.9997 3.92464Z" fill="black"/>
<path d="M11.9984 17.625C10.3334 17.6228 8.73724 16.9701 7.56004 15.8102C6.38284 14.6502 5.72067 13.0777 5.71875 11.4375H6.83811C6.83968 12.7856 7.38399 14.078 8.35164 15.0313C9.31928 15.9845 10.6312 16.5207 11.9997 16.5223C13.3682 16.5207 14.6802 15.9846 15.6479 15.0313C16.6157 14.0781 17.1601 12.7857 17.1619 11.4375H18.2812C18.2793 13.0783 17.6167 14.6513 16.4388 15.8113C15.2609 16.9714 13.6639 17.6236 11.9984 17.625Z" fill="black"/>
<path d="M12.4688 17.0625H11.5312V20.4375H12.4688V17.0625Z" fill="black"/>
<path d="M14.5312 20.0625H9.46875V21.1875H14.5312V20.0625Z" fill="black"/>
</svg>
