<svg width="24" height="24" viewBox="0 0 24 24" fill="none" xmlns="http://www.w3.org/2000/svg">
<path d="M12 21.24C16.992 21.24 21.12 17.112 21.12 12.12C21.12 7.12801 16.992 3.00001 12 3.00001C8.952 3.00001 6.264 4.56001 4.632 6.98401C4.656 6.26401 4.656 5.52001 4.656 4.84801V2.76001H3.576V8.90401H9.72V7.82401H7.632C6.888 7.82401 6.096 7.82401 5.376 7.84801C6.792 5.66401 9.216 4.20001 12 4.20001C16.344 4.20001 19.92 7.77601 19.92 12.12C19.92 16.44 16.32 20.04 12 20.04C7.656 20.04 4.08 16.44 4.08 12.12H2.88C2.88 17.112 7.008 21.24 12 21.24Z" fill="black"/>
</svg>
