<svg width="24" height="24" viewBox="0 0 24 24" fill="none" xmlns="http://www.w3.org/2000/svg">
<path d="M5.25597 18.024H18.768V16.944H16.704C18.768 15.504 20.04 13.176 20.04 10.56C20.04 6.14402 16.416 2.52002 12 2.52002C7.58397 2.52002 3.95997 6.14402 3.95997 10.56C3.95997 13.176 5.20797 15.504 7.29597 16.944H5.25597V18.024ZM2.15997 21.48H21.84V14.88H20.64V20.328H3.35997V14.88H2.15997V21.48ZM5.15997 10.56C5.15997 6.76802 8.23197 3.72002 12 3.72002C15.792 3.72002 18.84 6.76802 18.84 10.56C18.84 13.608 16.824 16.152 14.064 16.944H9.93597C7.19997 16.152 5.15997 13.608 5.15997 10.56Z" fill="black"/>
</svg>
