<svg width="24" height="24" viewBox="0 0 24 24" fill="none" xmlns="http://www.w3.org/2000/svg">
<path d="M12 21.84C18.24 19.368 21.36 15.432 21.36 10.128V5.08803C18.696 3.16803 15.456 2.16003 12 2.16003C8.54402 2.16003 5.30401 3.16803 2.64001 5.08803V10.128C2.64001 15.432 5.76001 19.368 12 21.84ZM3.84001 10.128V5.66403C6.24001 4.08003 8.95202 3.28803 12 3.28803C15.048 3.28803 17.76 4.08003 20.16 5.66403V10.128C20.16 14.928 17.616 18.264 12 20.592C6.38401 18.264 3.84001 14.928 3.84001 10.128ZM8.04002 11.184L11.28 14.448L16.848 8.88003L16.008 8.04003L11.28 12.744L8.88002 10.344L8.04002 11.184Z" fill="black"/>
</svg>
