<svg width="24" height="24" viewBox="0 0 24 24" fill="none" xmlns="http://www.w3.org/2000/svg">
<path d="M12.312 6.98402L7.944 2.64001L3.6 6.98402L4.368 7.72802L5.832 6.26401C6.336 5.76001 6.864 5.23201 7.368 4.70401V20.4H8.52V4.68001C9.048 5.20801 9.552 5.76001 10.08 6.26401L11.544 7.72802L12.312 6.98402ZM11.712 17.016L16.056 21.36L20.4 17.016L19.632 16.248L18.168 17.712C17.664 18.216 17.136 18.768 16.632 19.296V3.60001H15.48V19.32C14.976 18.768 14.448 18.24 13.944 17.712L12.456 16.248L11.712 17.016Z" fill="black"/>
</svg>
