<svg width="24" height="24" viewBox="0 0 24 24" fill="none" xmlns="http://www.w3.org/2000/svg">
<path d="M10.632 21.12H13.392C14.088 21.12 14.664 20.64 14.688 19.824C16.656 19.032 18.072 17.28 18.456 15.192H18.888C20.568 15.192 21.84 13.896 21.84 12.24V11.28C21.84 9.6 20.568 8.328 18.888 8.328H18.456C17.952 5.256 15.264 2.88 12 2.88C8.73597 2.88 6.04797 5.256 5.54397 8.328H5.11197C3.45597 8.328 2.15997 9.6 2.15997 11.28V12.24C2.15997 13.896 3.45597 15.192 5.11197 15.192H6.64797V9.432C6.64797 6.456 9.02397 4.008 12 4.008C14.976 4.008 17.376 6.456 17.376 9.432V14.04C17.376 15.984 16.272 17.688 14.664 18.528C14.616 17.832 14.064 17.352 13.392 17.352H10.632C9.86397 17.352 9.31197 17.904 9.31197 18.672V19.8C9.31197 20.568 9.86397 21.12 10.632 21.12ZM3.23997 12.24V11.28C3.23997 10.056 3.88797 9.408 5.11197 9.408H5.44797V14.112H5.11197C3.88797 14.112 3.23997 13.464 3.23997 12.24ZM10.32 19.728V18.744C10.32 18.504 10.44 18.36 10.704 18.36H13.32C13.56 18.36 13.68 18.504 13.68 18.744V19.728C13.68 19.968 13.56 20.088 13.32 20.088H10.704C10.44 20.088 10.32 19.968 10.32 19.728ZM18.576 14.112V9.408H18.888C20.112 9.408 20.76 10.056 20.76 11.28V12.24C20.76 13.464 20.112 14.112 18.888 14.112H18.576Z" fill="black"/>
</svg>
