<svg width="24" height="24" viewBox="0 0 24 24" fill="none" xmlns="http://www.w3.org/2000/svg">
<path d="M4.16398 19.86H19.812C21.036 18.276 21.804 16.212 21.804 14.004C21.804 9.30002 18.468 5.34001 14.028 4.42801V5.65201C17.796 6.56401 20.604 9.97202 20.604 14.004C20.604 15.708 20.076 17.316 19.212 18.66H4.78798C3.89998 17.316 3.39598 15.708 3.39598 14.004C3.39598 9.97202 6.17998 6.56401 9.94798 5.65201V4.42801C5.53198 5.34001 2.19598 9.30002 2.19598 14.004C2.19598 16.188 2.93998 18.252 4.16398 19.86ZM11.388 14.004C11.388 14.34 11.652 14.604 11.988 14.604C12.324 14.604 12.588 14.34 12.588 14.004V4.14001H11.388V14.004Z" fill="black"/>
</svg>
