<svg width="24" height="24" viewBox="0 0 24 24" fill="none" xmlns="http://www.w3.org/2000/svg">
<path d="M4.15202 19.8359H19.776C20.568 18.8519 21.264 17.4119 21.552 16.0199H20.328C20.112 16.9559 19.704 17.8679 19.2 18.6359H4.77602C3.88802 17.2919 3.38402 15.6839 3.38402 13.9799C3.38402 9.22794 7.22402 5.36394 11.976 5.36394C16.032 5.36394 19.416 8.17194 20.328 11.9399H21.552C20.64 7.49994 16.704 4.16394 11.976 4.16394C6.57602 4.16394 2.18402 8.57994 2.18402 13.9799C2.18402 16.1639 2.92802 18.2279 4.15202 19.8359ZM11.376 13.9799C11.376 14.3159 11.64 14.5799 11.976 14.5799H21.816V13.3799H11.976C11.64 13.3799 11.376 13.6439 11.376 13.9799Z" fill="black"/>
</svg>
