<svg width="24" height="24" viewBox="0 0 24 24" fill="none" xmlns="http://www.w3.org/2000/svg">
<path d="M13.236 16.68C15.132 16.68 16.572 15.552 16.572 13.992C16.572 13.008 15.972 12.216 14.916 11.928V11.736C15.852 11.424 16.284 10.704 16.284 9.888C16.284 8.424 14.94 7.32 13.236 7.32C11.412 7.32 10.092 8.568 10.092 10.128V10.296H11.268C11.268 9 11.844 8.4 13.236 8.4C14.508 8.4 15.108 8.904 15.108 9.984C15.108 10.92 14.796 11.352 13.236 11.352H12.42V12.432H13.26C14.844 12.432 15.348 12.888 15.348 13.968C15.348 15.072 14.676 15.6 13.212 15.6C11.7 15.6 11.148 15 11.148 13.56H9.94797V13.68C9.94797 15.408 11.22 16.68 13.236 16.68ZM4.11597 12C4.11597 17.088 8.14797 21.12 13.236 21.12H19.884V19.92H13.236C8.79597 19.92 5.31597 16.44 5.31597 12C5.31597 7.68 8.79597 4.08 13.236 4.08H19.884V2.88H13.236C8.12397 2.88 4.11597 7.032 4.11597 12Z" fill="black"/>
</svg>
