<svg width="24" height="24" viewBox="0 0 24 24" fill="none" xmlns="http://www.w3.org/2000/svg">
<path d="M12 16.68C13.896 16.68 15.336 15.552 15.336 13.992C15.336 13.008 14.736 12.216 13.68 11.928V11.736C14.616 11.424 15.048 10.704 15.048 9.888C15.048 8.424 13.704 7.32 12 7.32C10.176 7.32 8.85601 8.568 8.85601 10.128V10.296H10.032C10.032 9 10.608 8.4 12 8.4C13.272 8.4 13.872 8.904 13.872 9.984C13.872 10.92 13.56 11.352 12 11.352H11.184V12.432H12.024C13.608 12.432 14.112 12.888 14.112 13.968C14.112 15.072 13.44 15.6 11.976 15.6C10.464 15.6 9.91201 15 9.91201 13.56H8.71201V13.68C8.71201 15.408 9.98401 16.68 12 16.68ZM5.76001 21.12H18.24V19.92H5.76001V21.12ZM5.76001 4.08H18.24V2.88H5.76001V4.08Z" fill="black"/>
</svg>
