<svg width="24" height="24" viewBox="0 0 24 24" fill="none" xmlns="http://www.w3.org/2000/svg">
<path d="M12 21.12C17.112 21.12 21.12 16.968 21.12 12C21.12 6.912 17.088 2.88 12 2.88C6.912 2.88 2.88 6.912 2.88 12C2.88 17.088 6.912 21.12 12 21.12ZM4.08 12C4.08 7.56 7.56 4.08 12 4.08C16.44 4.08 19.92 7.56 19.92 12C19.92 16.32 16.44 19.92 12 19.92C7.56 19.92 4.08 16.44 4.08 12ZM8.712 13.68C8.712 15.408 9.984 16.68 12 16.68C13.896 16.68 15.336 15.552 15.336 13.992C15.336 13.008 14.736 12.216 13.68 11.928V11.736C14.616 11.424 15.048 10.704 15.048 9.888C15.048 8.424 13.704 7.32 12 7.32C10.176 7.32 8.856 8.568 8.856 10.128V10.296H10.032C10.032 9 10.608 8.4 12 8.4C13.272 8.4 13.872 8.904 13.872 9.984C13.872 10.92 13.56 11.352 12 11.352H11.184V12.432H12.024C13.608 12.432 14.112 12.888 14.112 13.968C14.112 15.072 13.44 15.6 11.976 15.6C10.464 15.6 9.912 15 9.912 13.56H8.712V13.68Z" fill="black"/>
</svg>
