<svg width="14" height="16" viewBox="0 0 14 16" fill="none" xmlns="http://www.w3.org/2000/svg">
<path d="M11.9089 3.20711C11.0442 2.64503 10.4199 1.74608 10.2253 0.698056C10.1832 0.471515 10.1602 0.238563 10.1602 0H7.40007L7.39551 11.0241C7.34914 12.2586 6.32974 13.2494 5.07982 13.2494C4.69142 13.2494 4.32553 13.1527 4.0036 12.9836C3.26512 12.5963 2.75985 11.8248 2.75985 10.937C2.75985 9.66192 3.80069 8.62459 5.07982 8.62459C5.31865 8.62459 5.54757 8.66386 5.76442 8.73145V5.9232C5.54006 5.89274 5.31222 5.87377 5.07982 5.87377C2.27896 5.87404 0 8.14533 0 10.937C0 12.65 0.858833 14.1658 2.1688 15.0823C2.99385 15.6597 3.9977 16 5.08009 16C7.88122 16 10.1602 13.7287 10.1602 10.937V5.34696C11.2426 6.12142 12.5689 6.57771 14 6.57771V3.82689C13.2291 3.82689 12.511 3.59848 11.9089 3.20711Z" fill="white"/>
</svg>
