<svg width="24" height="24" viewBox="0 0 24 24" fill="none" xmlns="http://www.w3.org/2000/svg">
<path d="M4.51203 21.84C5.08803 21.84 5.71203 21.624 6.16803 21.168L15.792 11.52C16.2 11.64 16.656 11.688 17.064 11.688C19.704 11.688 21.84 9.55203 21.84 6.93603C21.84 4.32003 19.704 2.16003 17.064 2.16003C14.448 2.16003 12.312 4.29603 12.312 6.93603C12.312 7.36803 12.36 7.80003 12.48 8.20803L2.85603 17.832C2.40003 18.288 2.16003 18.888 2.16003 19.488C2.16003 20.784 3.19203 21.84 4.51203 21.84ZM3.31203 19.488C3.31203 19.176 3.40803 18.888 3.67203 18.624L13.8 8.49603C13.584 8.01603 13.44 7.48803 13.44 6.93603C13.44 4.92003 15.072 3.28803 17.064 3.28803C17.64 3.28803 18.192 3.43203 18.672 3.69603L15.984 6.38403L17.616 8.01603L20.304 5.32803C20.568 5.80803 20.712 6.36003 20.712 6.93603C20.712 8.92803 19.08 10.56 17.064 10.56C16.512 10.56 15.984 10.416 15.504 10.2L5.35203 20.352C5.11203 20.592 4.82403 20.712 4.51203 20.712C3.84003 20.712 3.31203 20.16 3.31203 19.488Z" fill="black"/>
</svg>
