<svg width="24" height="24" viewBox="0 0 24 24" fill="none" xmlns="http://www.w3.org/2000/svg">
<path d="M2.88 20.04H21.12V11.04L18.6 8.51996H16.824V5.73596C16.824 4.72796 16.056 3.95996 15.072 3.95996H8.928C7.944 3.95996 7.176 4.72796 7.176 5.73596V8.51996H5.4L2.88 11.04V20.04ZM4.056 18.888V15.216H7.944V16.656H9.096V15.216H14.904V16.656H16.056V15.216H19.944V18.888H4.056ZM4.056 14.064V11.496L5.904 9.64796H18.096L19.944 11.496V14.064H16.056V12.576H14.904V14.064H9.096V12.576H7.944V14.064H4.056ZM8.328 8.51996V5.75996C8.328 5.35196 8.568 5.08796 8.976 5.08796H15.024C15.432 5.08796 15.696 5.35196 15.696 5.75996V8.51996H8.328Z" fill="black"/>
</svg>
