<svg width="24" height="24" viewBox="0 0 24 24" fill="none" xmlns="http://www.w3.org/2000/svg">
<path d="M8.268 9.35993L20.676 21.7679L21.492 20.9519L2.772 2.23193L1.956 3.04793L7.428 8.49593C6.66 9.47993 6.18 10.6799 6.18 11.9999V20.3999H7.38V11.9999C7.38 10.9679 7.692 10.0799 8.268 9.35993ZM10.428 6.62393L11.46 7.63193H11.772H20.004C19.476 8.13593 18.924 8.66393 18.42 9.16793L16.956 10.6559L17.7 11.3999L22.044 7.05593L17.7 2.71193L16.956 3.47993L18.42 4.94393C18.924 5.44793 19.452 5.97593 19.98 6.47993H11.724C11.268 6.47993 10.836 6.52793 10.428 6.62393Z" fill="black"/>
</svg>
