<svg width="24" height="24" viewBox="0 0 24 24" fill="none" xmlns="http://www.w3.org/2000/svg">
<path d="M20.964 21.7559L21.756 20.9639L3.036 2.2439L2.244 3.0359L10.62 11.4119L7.476 11.3879L4.812 8.7479L4.092 9.4679L6.108 11.4359L2.7 11.3879V12.4679L6.108 12.4439L4.092 14.4119L4.812 15.1319L7.476 12.4679L10.86 12.4439L5.436 17.8439L6.156 18.5639L11.556 13.1399L11.532 16.5239L8.868 19.1879L9.588 19.9079L11.556 17.8919L11.532 21.2999H12.612L12.564 17.8919L14.532 19.9079L15.252 19.1879L12.612 16.5239L12.588 13.3799L20.964 21.7559ZM8.868 4.6919L12.588 8.4119L12.612 7.3319L15.252 4.6919L14.532 3.9719L12.564 5.9639L12.612 2.5799H11.532L11.556 5.9639L9.588 3.9719L8.868 4.6919ZM13.74 9.5639L14.436 10.2599L18.684 6.0359L17.964 5.3159L13.74 9.5639ZM15.588 11.4119L19.308 15.1319L20.028 14.4119L18.036 12.4439L21.42 12.4679V11.3879L18.036 11.4359L20.028 9.4679L19.308 8.7479L16.668 11.3879L15.588 11.4119Z" fill="black"/>
</svg>
