<svg width="24" height="24" viewBox="0 0 24 24" fill="none" xmlns="http://www.w3.org/2000/svg">
<path d="M3.19199 19.32V21.24H17.976V18.048L16.728 19.32V20.088H4.46399V18.72C4.46399 16.416 5.90399 15.048 8.25599 15.048H10.296L9.02399 13.8H8.47199C6.71999 13.8 5.27999 14.568 4.29599 15.84C3.57599 16.752 3.19199 17.856 3.19199 19.32ZM6.04799 7.24801C6.04799 9.74401 8.08799 11.736 10.584 11.736C13.08 11.736 15.144 9.74401 15.144 7.24801C15.144 4.75201 13.08 2.76001 10.584 2.76001C8.08799 2.76001 6.04799 4.75201 6.04799 7.24801ZM7.24799 7.24801C7.24799 5.37601 8.73599 3.88801 10.584 3.88801C12.456 3.88801 13.944 5.37601 13.944 7.24801C13.944 9.09601 12.456 10.584 10.584 10.584C8.73599 10.584 7.24799 9.09601 7.24799 7.24801ZM12 14.136L15.24 17.4L20.808 11.832L19.968 10.992L15.24 15.696L12.84 13.296L12 14.136Z" fill="black"/>
</svg>
