<svg width="24" height="24" viewBox="0 0 24 24" fill="none" xmlns="http://www.w3.org/2000/svg">
<path d="M4.608 19.32V21.24H19.392V19.32C19.392 17.856 19.032 16.728 18.312 15.84C17.352 14.568 15.768 13.8 14.016 13.8H10.008C8.256 13.8 6.696 14.568 5.712 15.84C4.992 16.752 4.608 17.856 4.608 19.32ZM5.88 20.088V18.72C5.88 16.416 7.32 15.048 9.672 15.048H14.352C16.68 15.048 18.144 16.416 18.144 18.72V20.088H5.88ZM7.464 7.24801C7.464 9.74401 9.504 11.736 12 11.736C14.496 11.736 16.56 9.74401 16.56 7.24801C16.56 4.75201 14.496 2.76001 12 2.76001C9.504 2.76001 7.464 4.75201 7.464 7.24801ZM8.664 7.24801C8.664 5.37601 10.152 3.88801 12 3.88801C13.872 3.88801 15.36 5.37601 15.36 7.24801C15.36 9.09601 13.872 10.584 12 10.584C10.152 10.584 8.664 9.09601 8.664 7.24801Z" fill="black"/>
</svg>
