<svg width="24" height="24" viewBox="0 0 24 24" fill="none" xmlns="http://www.w3.org/2000/svg">
<path d="M7.33197 11.7599V21.8399H8.53197V11.7599C10.428 11.4719 11.868 9.83991 11.868 7.91991V2.39991H10.716V7.91991C10.716 9.31191 9.82797 10.4159 8.53197 10.6559V2.39991H7.33197V10.6559C6.05997 10.4159 5.14797 9.31191 5.14797 7.91991V2.39991H3.99597V7.91991C3.99597 9.83991 5.45997 11.4719 7.33197 11.7599ZM14.124 16.7999H18.804V21.8399H20.004V2.15991C16.74 2.15991 14.124 4.75191 14.124 8.03991V16.7999ZM15.324 15.7199V8.03991C15.324 5.63991 16.74 3.86391 18.804 3.43191V15.7199H15.324Z" fill="black"/>
</svg>
