<svg width="24" height="24" viewBox="0 0 24 24" fill="none" xmlns="http://www.w3.org/2000/svg">
<path d="M4.8 20.1601H21.12V7.20009H6.36V8.32809H19.992V19.0081H4.8C4.296 19.0081 4.032 18.7441 4.032 18.2401V5.76009C4.032 5.23209 4.296 4.96809 4.8 4.96809H19.128C18.936 4.29609 18.312 3.84009 17.52 3.84009H4.8C3.696 3.84009 2.88 4.65609 2.88 5.76009V18.2401C2.88 19.3441 3.696 20.1601 4.8 20.1601ZM15.264 13.7761C15.264 14.3521 15.744 14.8561 16.344 14.8561C16.896 14.8561 17.376 14.3521 17.376 13.7761C17.376 13.2241 16.896 12.7441 16.344 12.7441C15.744 12.7441 15.264 13.2241 15.264 13.7761Z" fill="black"/>
</svg>
