<svg width="24" height="24" viewBox="0 0 24 24" fill="none" xmlns="http://www.w3.org/2000/svg">
<path d="M19.548 21.2039L20.364 20.3879L7.23599 7.2599L6.29999 6.2999L2.77199 2.7959L1.95599 3.6119L5.17199 6.8279C3.97199 7.4759 2.89199 8.2679 1.95599 9.1799L2.81999 10.0679C3.80399 9.1319 4.88399 8.3399 6.08399 7.7399L8.79599 10.4519C7.40399 10.9079 6.15599 11.6519 5.07599 12.5639L5.91599 13.5239C7.09199 12.5159 8.33999 11.8199 9.82799 11.4839L13.212 14.8679C12.828 14.7959 12.42 14.7479 11.988 14.7479C10.548 14.7479 9.27599 15.2759 8.26799 16.1159L11.988 20.2439L15.132 16.7879L19.548 21.2039ZM8.69999 5.5079L9.75599 6.5639C10.476 6.4439 11.22 6.3959 11.988 6.3959C15.708 6.3959 18.804 7.7879 21.156 10.0679L22.044 9.1799C19.524 6.7319 15.996 5.1239 11.988 5.1239C10.86 5.1239 9.73199 5.2679 8.69999 5.5079ZM13.236 10.0439L14.988 11.8199C16.14 12.1559 17.172 12.7559 18.084 13.5239L18.9 12.5639C17.34 11.2439 15.396 10.3079 13.236 10.0439Z" fill="black"/>
</svg>
