<svg width="24" height="24" viewBox="0 0 24 24" fill="none" xmlns="http://www.w3.org/2000/svg">
<path d="M10.764 16.7039C13.116 16.7039 14.34 14.8559 14.34 12.0239C14.34 9.16788 13.14 7.34388 10.764 7.34388C8.43597 7.34388 7.18797 9.19188 7.18797 12.0239C7.18797 14.8559 8.43597 16.7039 10.764 16.7039ZM4.11597 21.1199H10.764C15.876 21.1199 19.884 16.9679 19.884 11.9999C19.884 6.88788 15.876 2.87988 10.764 2.87988H4.11597V4.07988H10.764C15.204 4.07988 18.684 7.55988 18.684 11.9999C18.684 16.3199 15.204 19.9199 10.764 19.9199H4.11597V21.1199ZM8.43597 12.5999V11.4719C8.43597 9.28788 9.15597 8.37588 10.764 8.37588C11.652 8.37588 12.252 8.63988 12.636 9.26388L8.55597 13.8959C8.48397 13.5119 8.43597 13.1039 8.43597 12.5999ZM8.86797 14.7839L12.972 10.1519C13.044 10.5119 13.092 10.9679 13.092 11.4719V12.5999C13.092 14.7839 12.372 15.6719 10.764 15.6719C9.87597 15.6719 9.25197 15.4079 8.86797 14.7839Z" fill="black"/>
</svg>
