<svg width="24" height="24" viewBox="0 0 24 24" fill="none" xmlns="http://www.w3.org/2000/svg">
<path d="M13.236 16.7039C15.588 16.7039 16.812 14.8559 16.812 12.0239C16.812 9.16788 15.612 7.34388 13.236 7.34388C10.908 7.34388 9.65997 9.19188 9.65997 12.0239C9.65997 14.8559 10.908 16.7039 13.236 16.7039ZM4.11597 11.9999C4.11597 17.0879 8.14797 21.1199 13.236 21.1199H19.884V19.9199H13.236C8.79597 19.9199 5.31597 16.4399 5.31597 11.9999C5.31597 7.67988 8.79597 4.07988 13.236 4.07988H19.884V2.87988H13.236C8.12397 2.87988 4.11597 7.03188 4.11597 11.9999ZM10.908 12.5999V11.4719C10.908 9.28788 11.628 8.37588 13.236 8.37588C14.1 8.37588 14.724 8.63988 15.108 9.23988L11.028 13.8719C10.932 13.5119 10.908 13.0799 10.908 12.5999ZM11.34 14.7839L15.444 10.1519C15.516 10.5119 15.564 10.9679 15.564 11.4719V12.5999C15.564 14.7839 14.844 15.6719 13.236 15.6719C12.348 15.6719 11.724 15.4079 11.34 14.7839Z" fill="black"/>
</svg>
