<svg width="24" height="24" viewBox="0 0 24 24" fill="none" xmlns="http://www.w3.org/2000/svg">
<path d="M12 21.1199C17.112 21.1199 21.12 16.9679 21.12 11.9999C21.12 6.91188 17.088 2.87988 12 2.87988C6.912 2.87988 2.88 6.91188 2.88 11.9999C2.88 17.0879 6.912 21.1199 12 21.1199ZM4.08 11.9999C4.08 7.55988 7.56 4.07988 12 4.07988C16.44 4.07988 19.92 7.55988 19.92 11.9999C19.92 16.3199 16.44 19.9199 12 19.9199C7.56 19.9199 4.08 16.4399 4.08 11.9999ZM8.424 12.0239C8.424 14.8559 9.672 16.7039 12 16.7039C14.352 16.7039 15.576 14.8559 15.576 12.0239C15.576 9.16788 14.376 7.34388 12 7.34388C9.672 7.34388 8.424 9.19188 8.424 12.0239ZM9.672 12.5999V11.4719C9.672 9.28788 10.392 8.37588 12 8.37588C12.864 8.37588 13.488 8.63988 13.872 9.23988L9.792 13.8719C9.696 13.5119 9.672 13.0799 9.672 12.5999ZM10.104 14.7839L14.208 10.1519C14.28 10.5119 14.328 10.9679 14.328 11.4719V12.5999C14.328 14.7839 13.608 15.6719 12 15.6719C11.112 15.6719 10.488 15.4079 10.104 14.7839Z" fill="black"/>
</svg>
