<svg width="167" height="84" viewBox="0 0 167 84" fill="none" xmlns="http://www.w3.org/2000/svg">
<path d="M78.0314 17.8625C80.0838 19.1803 82.7821 19.8387 85.4862 19.8387C88.2115 19.8387 90.943 19.1698 93.024 17.8335C95.1512 16.4674 96.3232 14.6148 96.3232 12.6173C96.3232 10.6353 95.1678 8.80151 93.0691 7.4538C88.9484 4.80768 82.2225 4.82103 78.0766 7.48305C75.9493 8.84919 74.7774 10.7018 74.7774 12.6993C74.7774 14.6813 75.9333 16.5148 78.0314 17.8625ZM78.662 8.61106C80.5817 7.37813 83.1012 6.76103 85.6149 6.76103C88.1063 6.76103 90.5931 7.36764 92.4837 8.58181C94.2045 9.68693 95.1524 11.1202 95.1524 12.6173C95.1524 14.13 94.1885 15.582 92.4386 16.7055C88.614 19.1609 82.414 19.1739 78.6168 16.7345C76.896 15.6297 75.9482 14.1964 75.9482 12.6993C75.9482 11.1866 76.912 9.73462 78.662 8.61106Z" fill="white"/>
<path d="M142.435 69.2782L82.2585 30.6355L83.4295 29.8835L142.435 67.7744L164.828 53.3945L103.452 13.9813C103.505 13.6365 103.534 13.2866 103.534 12.9317C103.534 9.83189 101.478 6.73368 97.8919 4.43092C91.2746 0.181484 81.21 -0.269333 75.4583 3.42372L0.600098 51.4945L1.2326 51.9007L0.644118 51.9272L1.19923 67.2279L25.1879 82.6325L83.1528 45.4098L142.477 83.5048L166.041 68.3732L166.2 54.0172L142.435 69.2782ZM131.829 46.2077C135.974 43.5454 142.7 43.533 146.821 46.1788C148.92 47.5262 150.075 49.3596 150.075 51.3416C150.075 53.3395 148.904 55.192 146.776 56.5582C144.695 57.8944 141.963 58.5634 139.238 58.5634C136.534 58.5637 133.836 57.9053 131.783 56.5874C129.685 55.2397 128.529 53.4059 128.529 51.424C128.529 49.4264 129.701 47.5738 131.829 46.2077ZM76.0437 4.55173C81.4742 1.06532 91.0128 1.51679 97.3065 5.55893C100.52 7.6226 102.363 10.3097 102.363 12.9317C102.363 15.0532 101.124 17.0171 98.8752 18.4611L25.1879 65.7797L2.94174 51.4945L76.0437 4.55173ZM1.82862 52.2834L24.6025 66.9076V80.7528L2.34261 66.4585L1.82862 52.2834ZM25.7733 80.7528V66.9076L71.255 37.7014C71.6436 37.9951 72.053 38.2821 72.4864 38.5604L81.9818 44.6578L25.7733 80.7528Z" fill="white"/>
<path d="M132.369 55.4593C136.167 57.8978 142.367 57.8851 146.19 55.4301C147.94 54.3065 148.904 52.8545 148.904 51.3415C148.904 49.8444 147.956 48.4115 146.236 47.3067C144.345 46.0922 141.858 45.4856 139.366 45.4856C136.852 45.4856 134.334 46.1024 132.414 47.3356C130.664 48.4592 129.7 49.9111 129.7 51.4238C129.7 52.921 130.648 54.3542 132.369 55.4593Z" fill="white"/>
<path d="M47.2606 37.232L47.1517 37.1636C47.4901 36.7518 47.301 36.1968 46.6714 35.8013C46.275 35.5523 45.7842 35.4149 45.2435 35.4002C44.5662 35.3852 43.9612 35.5527 43.4085 35.9153L41.9102 36.8985L47.3517 40.3172L48.0177 39.8803L45.849 38.5177L46.8479 37.8622C47.3606 37.5257 47.8159 37.5466 48.4379 37.9373L49.7361 38.7529L50.4153 38.3072L49.2414 37.5698C48.3863 37.0325 47.8867 36.941 47.2606 37.232ZM46.1994 37.3692L45.1338 38.0684L43.2915 36.9109L44.357 36.2117C44.8765 35.8709 45.265 35.8754 45.8171 36.2223L46.1435 36.4273C46.7109 36.7838 46.7254 37.024 46.1994 37.3692Z" fill="white"/>
<path d="M30.5714 51.3291L29.8563 50.8798L27.4721 52.4442L22.7457 49.4748L22.0665 49.9205L27.5081 53.3392L30.5714 51.3291Z" fill="white"/>
<path d="M18.4818 47.6784L13.8203 50.7373L17.3962 52.9839L18.0754 52.5382L15.2923 50.7897L19.2747 48.1765L18.4818 47.6784Z" fill="white"/>
<path d="M53.9987 40.5491L58.6603 37.4902L55.0845 35.2437L54.4054 35.6894L57.1882 37.4378L53.2059 40.051L53.9987 40.5491Z" fill="white"/>
<path d="M36.7843 47.2524C38.0563 46.4178 37.4019 45.3993 35.8083 44.3982C34.1913 43.3823 32.5814 43.0209 31.3293 43.8425L29.8908 44.7864L35.3324 48.2051L36.7843 47.2524ZM31.2719 44.7985L31.9978 44.3221C32.6838 43.872 33.2589 43.7542 34.3473 44.438L35.7776 45.3366C36.8659 46.0203 36.6951 46.3921 36.0092 46.8422L35.2832 47.3186L31.2719 44.7985Z" fill="white"/>
<path d="M34.466 48.7726L33.7508 48.3232L31.4001 49.8658L29.7365 48.8206L31.7876 47.4747L31.0725 47.0254L29.0213 48.3713L27.3888 47.3457L29.6396 45.8687L28.9245 45.4194L25.9943 47.3422L31.4358 50.7609L34.466 48.7726Z" fill="white"/>
<path d="M36.4737 43.9615C37.5232 44.6209 38.5005 44.9781 39.3951 45.01C39.9935 45.0267 40.5509 44.8806 40.9305 44.6316C41.3301 44.3694 41.5098 44.0117 41.2919 43.6356L41.3851 43.5744L41.8982 43.8968L42.5108 43.4948L39.7046 41.7317L37.8999 42.916L38.615 43.3653L39.7807 42.6004L40.1538 42.8348C40.9389 43.3281 40.9491 43.651 40.3299 44.0574L40.1833 44.1535C39.5639 44.5599 39.031 44.61 37.9505 43.9311L36.4889 43.0129C35.4007 42.3292 35.4881 41.9821 36.1073 41.5757L36.2405 41.4884C36.8465 41.0907 37.304 41.1301 38.0413 41.5848L38.7739 41.1042C37.6345 40.4738 36.3456 40.451 35.4266 41.0541C34.9805 41.3468 34.7708 41.6942 34.802 42.0729C34.8411 42.6364 35.3855 43.2778 36.4737 43.9615Z" fill="white"/>
<path d="M31.0771 55.5908L30.2841 55.0926L26.3017 57.7058L23.5188 55.9574L22.8396 56.4031L26.4155 58.6497L31.0771 55.5908Z" fill="white"/>
<path d="M46.1796 30.522L48.9626 32.2705L49.6418 31.8248L46.0659 29.5782L41.4043 32.6371L42.1972 33.1352L46.1796 30.522Z" fill="white"/>
<path d="M46.4529 40.9072L45.7377 40.4579L43.387 42.0004L41.7233 40.9552L43.7745 39.6093L43.0593 39.16L41.0082 40.5059L39.3757 39.4803L41.6265 38.0033L40.9114 37.554L37.9812 39.4768L43.4227 42.8955L46.4529 40.9072Z" fill="white"/>
</svg>
