<svg xmlns="http://www.w3.org/2000/svg" width="30" height="12" fill="none" viewBox="0 0 30 12"><path fill="#999" d="M6.064 1.55c-.34.405-.88.725-1.427.68-.068-.549.198-1.13.513-1.49.34-.417.934-.713 1.416-.74.057.57-.164 1.13-.498 1.546zm.497.784c-.788-.046-1.462.45-1.835.45s-.954-.428-1.575-.416c-.405.01-.801.128-1.148.34a2.34 2.34 0 0 0-.829.87c-.849 1.473-.22 3.652.601 4.85.402.592.88 1.245 1.518 1.222.6-.023.839-.394 1.563-.394s.94.394 1.575.382c.66-.01 1.07-.591 1.473-1.183a5.2 5.2 0 0 0 .66-1.364c-.011-.01-1.269-.496-1.28-1.957-.01-1.221.992-1.803 1.036-1.838-.565-.844-1.449-.936-1.755-.961zM11.115.68v8.897h1.37V6.535h1.898c1.733 0 2.951-1.199 2.951-2.934 0-1.734-1.195-2.922-2.906-2.922zm1.37 1.165h1.58c1.19 0 1.87.639 1.87 1.763 0 1.125-.68 1.769-1.875 1.769h-1.574zm7.352 7.801c.86 0 1.66-.44 2.023-1.136h.027v1.067h1.27V5.148c0-1.284-1.02-2.111-2.589-2.111-1.456 0-2.532.839-2.568 1.991h1.234c.102-.547.606-.907 1.297-.907.838 0 1.309.394 1.309 1.118v.491l-1.71.103c-1.592.097-2.453.753-2.453 1.895s.877 1.92 2.15 1.92zm.367-1.056c-.734 0-1.195-.354-1.195-.896 0-.559.447-.887 1.303-.936l1.523-.097v.502c-.008.837-.71 1.43-1.639 1.43zm4.645 3.407c1.337 0 1.965-.517 2.514-2.07l2.407-6.802h-1.394L26.762 8.38h-.03L25.12 3.124h-1.434L26.007 9.6l-.124.394c-.21.665-.55.924-1.156.924a4 4 0 0 1-.402-.023v1.068q.256.036.515.036z"/></svg>