<svg xmlns="http://www.w3.org/2000/svg" width="32" height="12" fill="none" viewBox="0 0 32 12"><path fill="#999" d="M15.241 5.863V9.38h-1.13V.694h2.997a2.74 2.74 0 0 1 1.941.75 2.5 2.5 0 0 1 .81 1.84 2.5 2.5 0 0 1-.81 1.839 2.7 2.7 0 0 1-1.94.739zm0-4.1v3.032h1.895a1.54 1.54 0 0 0 1.427-.896 1.495 1.495 0 0 0-.278-1.646l-.03-.03a1.47 1.47 0 0 0-1.119-.46zm7.223 1.479q1.253 0 1.977.661.725.662.725 1.814V9.38h-1.081v-.825h-.05q-.701 1.02-1.866 1.019-.995 0-1.664-.582a1.86 1.86 0 0 1-.67-1.456 1.75 1.75 0 0 1 .706-1.467q.707-.546 1.886-.545 1.005 0 1.658.363v-.254a1.26 1.26 0 0 0-.466-.988 1.6 1.6 0 0 0-1.092-.407 1.75 1.75 0 0 0-.853.2 1.7 1.7 0 0 0-.644.589l-.996-.62q.82-1.164 2.43-1.165m-1.462 4.319a.88.88 0 0 0 .375.728c.25.194.56.296.878.29.476 0 .934-.187 1.27-.52a1.64 1.64 0 0 0 .562-1.226q-.528-.416-1.474-.415c-.408-.015-.81.1-1.148.327-.31.222-.46.492-.46.819zM31.37 3.437 27.593 12h-1.166l1.4-2.996-2.48-5.567h1.228l1.793 4.27h.024l1.745-4.27z"/><path fill="#4285f4" d="M10.675 5.104q0-.511-.086-1.015H5.823v1.922h2.73a2.3 2.3 0 0 1-1.014 1.517v1.247h1.629c.958-.867 1.507-2.147 1.507-3.67"/><path fill="#34a853" d="M5.823 9.98c1.364 0 2.512-.441 3.349-1.204L7.544 7.528c-.455.304-1.038.478-1.72.478-1.319 0-2.438-.878-2.838-2.06H1.308v1.286a5 5 0 0 0 1.863 2.006 5.1 5.1 0 0 0 2.652.743"/><path fill="#fbbc04" d="M2.986 5.946a2.95 2.95 0 0 1 0-1.91V2.75H1.308a4.94 4.94 0 0 0 0 4.482z"/><path fill="#ea4335" d="M5.823 1.975a2.77 2.77 0 0 1 1.934.749L9.2 1.299A4.9 4.9 0 0 0 5.82 0a5.1 5.1 0 0 0-2.652.743A5 5 0 0 0 1.305 2.75l1.678 1.285c.403-1.182 1.522-2.06 2.84-2.06"/></svg>