<svg xmlns="http://www.w3.org/2000/svg" width="21" height="12" fill="none" viewBox="0 0 21 12"><g clip-path="url(#a)"><path fill="#0066cb" d="M10.743 10.447a5.98 5.98 0 0 0 1.971-4.448 5.98 5.98 0 0 0-1.971-4.447 6 6 0 1 0 0 8.895"/><path fill="#0066cb" d="M10.742 10.447a5.98 5.98 0 0 0 1.972-4.448 5.98 5.98 0 0 0-1.972-4.447"/><path stroke="#0066cb" stroke-width=".31" d="M10.742 10.447a5.98 5.98 0 0 0 1.972-4.448 5.98 5.98 0 0 0-1.972-4.447"/><path fill="#cc0001" d="M14.775 0a5.98 5.98 0 0 0-4.64 2.188h1.214q.255.303.455.635H9.681q-.188.306-.348.635h2.82c.097.206.177.418.249.636h-3.32a5 5 0 0 0-.177.635h3.675q.135.616.134 1.27c0 .667-.107 1.308-.312 1.906H9.083q.105.327.25.636h2.82c-.108.22-.215.432-.349.635H9.681c.133.222.294.434.455.635h1.213a7 7 0 0 1-.607.636A5.998 5.998 0 0 0 20.77 6c0-3.313-2.685-6-5.995-6"/><path fill="#231f20" d="M20.137 9.332h.027q.015.001.017-.003.017-.007.018-.019c0-.007-.009-.015-.018-.018 0-.004-.017-.003-.017-.003h-.027zm0 .097h-.036v-.17h.072c.018 0 .026 0 .044.008q.017.016.018.043 0 .032-.027.044l.027.076h-.044l-.018-.069h-.036zm.027.063c.08 0 .151-.066.151-.148a.15.15 0 0 0-.151-.147.144.144 0 0 0-.143.147c0 .082.063.148.143.148m-.197-.148a.197.197 0 0 1 .393 0c0 .107-.09.194-.196.194a.196.196 0 0 1-.197-.194M5.782 7.669h-.758l.446-2.34-1.026 2.34h-.625l-.125-2.326-.5 2.326h-.686l.58-3.042h1.186l.018 1.883.82-1.883h1.259zm8.342-.031c-.206.056-.366.08-.536.08-.383 0-.588-.19-.588-.543 0-.07 0-.144.017-.222l.045-.242.036-.195.347-1.89h.741l-.107.569h.384l-.107.6h-.384l-.196 1.033c-.01.046-.01.079-.01.102 0 .128.072.184.25.184.09 0 .152-.007.206-.023zm-2.962-1.662c0 .313.17.528.57.69.304.124.357.16.357.273 0 .155-.133.224-.437.224-.223 0-.437-.03-.678-.099l-.098.572.027.005.143.025q.064.012.196.022c.178.014.321.021.42.021.793 0 1.16-.262 1.16-.826 0-.339-.152-.539-.527-.689-.321-.125-.357-.152-.357-.268 0-.134.125-.202.366-.202.151 0 .357.015.544.038l.107-.573a6 6 0 0 0-.66-.049c-.848 0-1.142.38-1.133.836m-3.471.591a1 1 0 0 0-.17-.01c-.419 0-.633.126-.633.376 0 .153.107.252.268.252.303 0 .526-.252.535-.618M8.2 7.669h-.625l.018-.257c-.196.203-.446.3-.785.3-.41 0-.687-.276-.687-.676 0-.603.482-.954 1.311-.954.09 0 .197.006.304.02a.5.5 0 0 0 .035-.162c0-.164-.134-.225-.482-.225-.214 0-.454.027-.624.07l-.098.025-.072.016.107-.556c.375-.095.616-.131.892-.131.643 0 .982.25.982.726 0 .122-.01.214-.063.49l-.151.877-.027.157-.018.126L8.2 7.6zm2.088-1.526c0-.051.009-.094.009-.126 0-.2-.134-.32-.357-.32-.241 0-.41.16-.473.444zm.365 1.472a3 3 0 0 1-.767.1c-.839 0-1.267-.38-1.267-1.108 0-.85.553-1.474 1.303-1.474.615 0 1.008.35 1.008.899 0 .183-.027.36-.098.61H9.35c-.01.038-.01.055-.01.078 0 .287.224.433.66.433.269 0 .51-.048.777-.156zm7.209-1.363c0-.259-.107-.504-.41-.504-.384 0-.616.451-.616.848 0 .336.16.561.429.556.16 0 .508-.22.57-.606q.027-.133.027-.294m.758.296c-.107.822-.687 1.187-1.454 1.187-.838 0-1.178-.512-1.178-1.14 0-.877.572-1.47 1.464-1.47.776 0 1.186.488 1.186 1.116 0 .152 0 .163-.018.307"/><path fill="#fff" d="M18.87 7.289h.027s.009 0 .018-.004.009-.012.009-.02c0-.006 0-.013-.01-.016 0-.004-.017-.004-.026-.004h-.018zm0 .096h-.036v-.17h.072c.009 0 .027 0 .044.01a.06.06 0 0 1 .018.042.05.05 0 0 1-.027.044l.027.074h-.044l-.027-.067h-.027zm.027.062c.08 0 .143-.066.143-.148a.144.144 0 0 0-.143-.146.15.15 0 0 0-.152.146c0 .082.072.148.152.148m-.196-.148c0-.106.089-.192.196-.192s.196.086.196.192c0 .108-.09.194-.196.194A.196.196 0 0 1 18.7 7.3m-12.73.193h-.75l.446-2.338L4.64 7.493h-.678L3.837 5.17l-.446 2.324h-.678l.58-3.041H4.46l.054 1.884.83-1.884h1.213zm8.341-.029a2 2 0 0 1-.535.08c-.384 0-.59-.192-.59-.543 0-.07.01-.144.019-.222l.044-.242.036-.197.348-1.888h.74l-.106.567h.383l-.107.602h-.384l-.196 1.033c-.009.045-.009.079-.009.102 0 .128.08.183.259.183q.118 0 .196-.023z"/><path fill="#231f20" d="m16.23 5.73-.018-.078.151-.388q-.053-.005-.053-.007c-.045-.009-.063-.014-.072-.014a.3.3 0 0 0-.071-.006c-.25 0-.42.109-.651.401l.08-.44h-.776l-.455 2.47h.74c.098-.566.143-.889.206-1.157.098-.445.428-.647.669-.602.026.005.044.005.08.018l.044.017z"/><path fill="#fff" d="M16.488 5.04c-.063-.024-.072-.024-.08-.027L16.345 5l-.08-.007c-.241 0-.42.11-.651.403l.07-.376h-.677l-.455 2.474h.75c.267-1.512.383-1.778.74-1.778q.037 0 .089.006l.09.018zm-5.138.762c0 .312.178.528.58.69.302.123.347.16.347.273 0 .153-.134.223-.428.223-.232 0-.437-.03-.678-.098l-.107.57.035.006.134.025q.07.012.205.022.266.02.41.02c.804 0 1.17-.26 1.17-.825 0-.34-.152-.538-.536-.688-.312-.126-.348-.154-.348-.27 0-.132.125-.2.366-.2.151 0 .348.013.544.036l.107-.573a6 6 0 0 0-.669-.049c-.838 0-1.133.38-1.133.838m-3.497.59a1 1 0 0 0-.17-.01q-.631.001-.633.376c0 .154.098.253.267.253.304 0 .518-.254.536-.62m.544 1.101H7.77l.018-.256c-.187.204-.446.299-.785.299-.401 0-.678-.276-.678-.675 0-.603.482-.955 1.311-.955.08 0 .188.008.304.02.017-.082.026-.116.026-.16 0-.164-.134-.225-.482-.225-.214 0-.455.025-.615.068l-.107.027-.063.016.099-.557c.374-.095.615-.13.892-.13.642 0 .981.25.981.725 0 .122-.009.214-.053.49l-.161.878-.027.157-.018.126-.008.085zm2.052-1.523v-.127c0-.201-.125-.318-.348-.318-.24 0-.41.157-.482.443zm.393 1.472c-.25.067-.5.1-.759.1-.838 0-1.276-.38-1.276-1.11 0-.847.553-1.473 1.303-1.473.616 0 1.008.35 1.008.898 0 .183-.027.361-.09.612h-1.48c-.01.038-.01.055-.01.078 0 .287.224.433.652.433.268 0 .509-.05.776-.157zm7.199-1.386c0-.258-.107-.503-.41-.503-.383 0-.615.451-.615.848 0 .337.16.562.428.557.16 0 .508-.22.57-.605a1.5 1.5 0 0 0 .027-.297m.777.317c-.116.823-.687 1.188-1.454 1.188-.848 0-1.187-.513-1.187-1.14 0-.876.58-1.471 1.472-1.471.776 0 1.186.489 1.186 1.116 0 .154 0 .164-.017.307"/></g><defs><clipPath id="a"><path fill="#fff" d="M.714 0H20.77v12H.714z"/></clipPath></defs></svg>