<svg xmlns="http://www.w3.org/2000/svg" width="20" height="12" fill="none" viewBox="0 0 20 12"><path fill="#ff5f00" d="M12.526 1.283H7.197v9.434h5.327z"/><path fill="#eb001b" d="M7.536 6c0-.908.208-1.803.61-2.62a6 6 0 0 1 1.707-2.097 6.17 6.17 0 0 0-6.425-.68 6.06 6.06 0 0 0-2.5 2.214 5.93 5.93 0 0 0 0 6.366 6.06 6.06 0 0 0 2.5 2.214 6.17 6.17 0 0 0 6.425-.68 6 6 0 0 1-1.71-2.096A5.9 5.9 0 0 1 7.536 6"/><path fill="#f79e1b" d="M19.714 6a5.93 5.93 0 0 1-.924 3.183 6.05 6.05 0 0 1-2.498 2.213 6.16 6.16 0 0 1-6.422-.68 6 6 0 0 0 1.708-2.096 5.94 5.94 0 0 0 0-5.24A6 6 0 0 0 9.87 1.283a6.16 6.16 0 0 1 6.421-.68 6.05 6.05 0 0 1 2.499 2.214A5.93 5.93 0 0 1 19.714 6"/></svg>