<svg xmlns="http://www.w3.org/2000/svg" width="46" height="12" fill="none" viewBox="0 0 46 12"><path fill="#253b80" d="M6.174.001H2.671a.49.49 0 0 0-.48.41L.774 9.394a.292.292 0 0 0 .289.337h1.672c.24 0 .444-.174.48-.41l.383-2.423a.486.486 0 0 1 .48-.412h1.11c2.307 0 3.638-1.116 3.986-3.329.157-.968.007-1.728-.447-2.26C8.23.31 7.347 0 6.174 0m.404 3.28c-.191 1.257-1.152 1.257-2.08 1.257h-.529L4.34 2.19a.29.29 0 0 1 .288-.246h.243c.632 0 1.229 0 1.537.36.184.215.24.535.17.976m10.066-.04h-1.677a.29.29 0 0 0-.288.246l-.075.47-.117-.17c-.363-.527-1.173-.704-1.981-.704-1.854 0-3.437 1.404-3.745 3.373-.16.983.068 1.922.625 2.577.511.602 1.243.853 2.113.853 1.493 0 2.321-.96 2.321-.96l-.075.466a.292.292 0 0 0 .288.338h1.511c.24 0 .443-.174.481-.411l.907-5.74a.29.29 0 0 0-.288-.338m-2.338 3.265c-.162.958-.922 1.601-1.892 1.601-.487 0-.876-.156-1.126-.452-.248-.294-.343-.712-.264-1.179a1.88 1.88 0 0 1 1.88-1.614c.476 0 .864.158 1.119.457.255.302.357.723.283 1.187M25.578 3.24h-1.686c-.16 0-.312.08-.403.214l-2.325 3.424-.985-3.29a.49.49 0 0 0-.467-.348h-1.657a.292.292 0 0 0-.277.387l1.857 5.448-1.745 2.464a.292.292 0 0 0 .238.461h1.683c.16 0 .31-.078.4-.209l5.606-8.092a.292.292 0 0 0-.24-.459"/><path fill="#179bd7" d="M31.158 0h-3.503a.49.49 0 0 0-.48.411l-1.417 8.982a.29.29 0 0 0 .287.337h1.798a.34.34 0 0 0 .336-.288l.402-2.546a.486.486 0 0 1 .48-.411h1.109c2.308 0 3.639-1.117 3.987-3.33.157-.967.006-1.728-.447-2.26C33.213.31 32.33 0 31.158 0m.404 3.28c-.191 1.258-1.151 1.258-2.08 1.258h-.529l.372-2.348a.29.29 0 0 1 .288-.246h.242c.632 0 1.23 0 1.537.36.184.216.24.535.17.977m10.065-.041h-1.676a.29.29 0 0 0-.288.246l-.074.47-.118-.17c-.363-.527-1.172-.704-1.98-.704-1.854 0-3.436 1.404-3.745 3.373-.16.983.067 1.922.625 2.577.512.602 1.242.853 2.112.853 1.494 0 2.322-.96 2.322-.96l-.075.466a.292.292 0 0 0 .289.338h1.51c.24 0 .443-.174.48-.411l.908-5.74a.292.292 0 0 0-.29-.338M39.29 6.505c-.16.958-.922 1.601-1.892 1.601-.486 0-.876-.156-1.126-.452-.248-.294-.341-.712-.264-1.179.153-.95.925-1.614 1.88-1.614.477 0 .864.158 1.119.457.256.302.358.723.283 1.187M43.605.247l-1.438 9.146a.29.29 0 0 0 .288.337H43.9c.24 0 .444-.174.481-.411L45.8.338A.292.292 0 0 0 45.511 0h-1.618a.29.29 0 0 0-.288.247"/></svg>