<svg xmlns="http://www.w3.org/2000/svg" width="35" height="12" fill="none" viewBox="0 0 35 12"><path fill="#0054a5" d="m.718 10.914.342-.035c.01.096.055.186.125.254a.38.38 0 0 0 .254.08.4.4 0 0 0 .256-.071.21.21 0 0 0 .087-.168.16.16 0 0 0-.037-.11.3.3 0 0 0-.126-.077 6 6 0 0 0-.28-.075.96.96 0 0 1-.396-.172.453.453 0 0 1-.084-.597.47.47 0 0 1 .22-.176.9.9 0 0 1 .343-.06.74.74 0 0 1 .493.143.51.51 0 0 1 .175.384l-.353.015a.3.3 0 0 0-.097-.194.35.35 0 0 0-.22-.058.4.4 0 0 0-.24.063.12.12 0 0 0-.056.11.13.13 0 0 0 .052.11q.152.087.323.111.196.04.379.125a.5.5 0 0 1 .192.178c.048.084.072.18.068.277a.52.52 0 0 1-.318.476 1 1 0 0 1-.379.064.75.75 0 0 1-.507-.154.67.67 0 0 1-.216-.443m1.781-.864v-.307h.331v.307zm0 1.436v-1.26h.331v1.26zm1.897-.003h-.332v-.644a1 1 0 0 0-.02-.266.185.185 0 0 0-.18-.126.26.26 0 0 0-.155.048.24.24 0 0 0-.094.126q-.032.143-.026.29v.572h-.331v-1.26h.297v.185a.51.51 0 0 1 .618-.176.33.33 0 0 1 .203.242q.021.11.018.221zm.374.083.38.042a.14.14 0 0 0 .043.096.24.24 0 0 0 .15.038.4.4 0 0 0 .197-.04.16.16 0 0 0 .067-.083.5.5 0 0 0 .015-.154v-.183a.45.45 0 0 1-.376.2.47.47 0 0 1-.403-.213.74.74 0 0 1-.11-.425.7.7 0 0 1 .152-.485.494.494 0 0 1 .599-.113.46.46 0 0 1 .167.152v-.175h.311v1.133q.006.168-.037.331a.4.4 0 0 1-.103.174.5.5 0 0 1-.178.1 1 1 0 0 1-.282.034.73.73 0 0 1-.455-.11.35.35 0 0 1-.134-.28.1.1 0 0 1-.003-.04m.3-.74a.46.46 0 0 0 .077.294.24.24 0 0 0 .19.093.26.26 0 0 0 .205-.095.43.43 0 0 0 .084-.284.44.44 0 0 0-.08-.291.25.25 0 0 0-.202-.095.25.25 0 0 0-.197.092.45.45 0 0 0-.074.285zm1.292.658v-1.74h.332v1.74zm1.483-.397.332.055a.54.54 0 0 1-.203.278.6.6 0 0 1-.348.095.57.57 0 0 1-.488-.216.73.73 0 0 1-.125-.435.7.7 0 0 1 .165-.493.54.54 0 0 1 .415-.179.56.56 0 0 1 .442.188q.163.187.156.572h-.839a.33.33 0 0 0 .081.232.26.26 0 0 0 .194.082.2.2 0 0 0 .134-.042.26.26 0 0 0 .084-.137m.018-.338a.33.33 0 0 0-.075-.221.24.24 0 0 0-.356 0 .32.32 0 0 0-.07.221zm1.427.735v-1.74h1.288v.293h-.935v.387h.873v.293h-.87v.474h.97v.293zm2.52 0v-.189a.5.5 0 0 1-.42.22.5.5 0 0 1-.228-.055.33.33 0 0 1-.146-.157.7.7 0 0 1-.045-.28v-.799h.331v.58q-.008.166.018.33a.2.2 0 0 0 .067.096q.057.038.124.035a.27.27 0 0 0 .154-.046.24.24 0 0 0 .092-.117q.034-.17.025-.34v-.532h.331v1.26zm1.046 0h-.332v-1.26h.312v.18a.6.6 0 0 1 .142-.17.26.26 0 0 1 .145-.042.43.43 0 0 1 .221.064l-.102.292a.3.3 0 0 0-.158-.055.2.2 0 0 0-.119.038.27.27 0 0 0-.076.14q-.038.21-.029.424zm.619-.647a.7.7 0 0 1 .081-.323.57.57 0 0 1 .232-.239.7.7 0 0 1 .332-.083.63.63 0 0 1 .47.187.703.703 0 0 1 0 .947.62.62 0 0 1-.466.189.7.7 0 0 1-.331-.079.54.54 0 0 1-.24-.23.8.8 0 0 1-.078-.37m.341.017a.42.42 0 0 0 .09.289.294.294 0 0 0 .441 0 .43.43 0 0 0 .089-.291.42.42 0 0 0-.088-.286.29.29 0 0 0-.343-.075.3.3 0 0 0-.1.075.42.42 0 0 0-.089.288m2.051.631v-1.74h.563q.21-.009.419.026c.1.027.188.087.25.17a.55.55 0 0 1 .101.34.6.6 0 0 1-.058.27.5.5 0 0 1-.33.254q-.18.028-.364.024h-.23v.656zm.352-1.446v.497h.192a.9.9 0 0 0 .276-.028.23.23 0 0 0 .11-.086.24.24 0 0 0 .04-.136.22.22 0 0 0-.056-.158.24.24 0 0 0-.14-.077 1.6 1.6 0 0 0-.253-.012zm1.589.569-.3-.056a.46.46 0 0 1 .176-.27.64.64 0 0 1 .37-.089.8.8 0 0 1 .332.053.33.33 0 0 1 .153.135.7.7 0 0 1 .045.3v.39q-.003.123.017.245a.7.7 0 0 0 .06.169h-.332q-.013-.032-.032-.097l-.012-.039a.53.53 0 0 1-.39.167.43.43 0 0 1-.306-.105.35.35 0 0 1-.11-.269.37.37 0 0 1 .05-.19.33.33 0 0 1 .144-.129 1 1 0 0 1 .265-.077q.166-.027.325-.083v-.033a.18.18 0 0 0-.049-.14.3.3 0 0 0-.18-.04.23.23 0 0 0-.139.035.25.25 0 0 0-.087.123m.45.273q-.1.03-.204.052a.6.6 0 0 0-.181.058.14.14 0 0 0-.065.117.16.16 0 0 0 .053.122.18.18 0 0 0 .132.052.3.3 0 0 0 .172-.06.22.22 0 0 0 .08-.11.7.7 0 0 0 .012-.164zm.562-.656h.356l.301.894.296-.894h.345l-.442 1.216-.08.22a1 1 0 0 1-.084.17.37.37 0 0 1-.22.151.7.7 0 0 1-.17.02 1 1 0 0 1-.19-.02l-.03-.262a.7.7 0 0 0 .142.016.21.21 0 0 0 .172-.069.5.5 0 0 0 .087-.176zm1.56 0h.307v.172a.5.5 0 0 1 .393-.204.39.39 0 0 1 .358.201.6.6 0 0 1 .18-.15.44.44 0 0 1 .205-.05.45.45 0 0 1 .235.057.34.34 0 0 1 .145.165.7.7 0 0 1 .034.261v.808h-.331v-.722a.55.55 0 0 0-.034-.243.16.16 0 0 0-.143-.07.22.22 0 0 0-.132.043.22.22 0 0 0-.09.125 1 1 0 0 0-.027.26v.607h-.331v-.692a1 1 0 0 0-.018-.237.15.15 0 0 0-.055-.081.2.2 0 0 0-.102-.025.24.24 0 0 0-.138.04.24.24 0 0 0-.088.121 1 1 0 0 0-.027.26v.614h-.331zm2.993.863.331.055a.54.54 0 0 1-.203.278.6.6 0 0 1-.347.095.57.57 0 0 1-.488-.216.73.73 0 0 1-.125-.435.7.7 0 0 1 .165-.493.54.54 0 0 1 .415-.179.56.56 0 0 1 .442.188q.163.187.156.572h-.839a.33.33 0 0 0 .08.232.26.26 0 0 0 .195.082.2.2 0 0 0 .133-.042.26.26 0 0 0 .085-.137m.018-.338a.33.33 0 0 0-.075-.221.24.24 0 0 0-.356 0 .3.3 0 0 0-.071.221zm1.819.735h-.331v-.644a1 1 0 0 0-.022-.266.2.2 0 0 0-.069-.092.2.2 0 0 0-.116-.034.27.27 0 0 0-.154.048.25.25 0 0 0-.094.126 1 1 0 0 0-.026.29v.572h-.331v-1.26h.31v.185a.51.51 0 0 1 .618-.176.33.33 0 0 1 .203.242q.02.11.02.221zm.995-1.26v.265h-.228v.51q-.003.091.007.181a.07.07 0 0 0 .029.042.1.1 0 0 0 .055.017.4.4 0 0 0 .131-.032l.03.258a.7.7 0 0 1-.262.05.4.4 0 0 1-.162-.03.24.24 0 0 1-.11-.079.3.3 0 0 1-.047-.13 2 2 0 0 1-.01-.235v-.553h-.152v-.265h.152V9.97l.331-.197v.45zm.185.904.33-.052c.01.058.041.11.087.147a.3.3 0 0 0 .182.051.33.33 0 0 0 .195-.049.11.11 0 0 0 .038-.123.1.1 0 0 0-.019-.03.3.3 0 0 0-.11-.043 1.8 1.8 0 0 1-.515-.164.33.33 0 0 1-.15-.284.35.35 0 0 1 .13-.276.6.6 0 0 1 .404-.11.7.7 0 0 1 .386.083.44.44 0 0 1 .175.248l-.315.06a.2.2 0 0 0-.077-.11.3.3 0 0 0-.163-.04.36.36 0 0 0-.191.037.08.08 0 0 0-.039.067.08.08 0 0 0 .033.062q.151.067.314.094a.9.9 0 0 1 .374.15.31.31 0 0 1 .11.249.39.39 0 0 1-.145.3.64.64 0 0 1-.428.124.7.7 0 0 1-.408-.104.48.48 0 0 1-.199-.287m3.861.356h-.38l-.15-.394h-.701l-.144.394h-.372l.674-1.74h.37zm-.645-.687-.244-.646-.235.646zm1.22.687h-.331v-1.26h.31v.18a.6.6 0 0 1 .144-.17.26.26 0 0 1 .144-.042.43.43 0 0 1 .22.064l-.101.292a.3.3 0 0 0-.157-.055.2.2 0 0 0-.12.038.27.27 0 0 0-.077.14q-.036.21-.027.424zm1.433-.397.332.056a.54.54 0 0 1-.204.277.6.6 0 0 1-.346.095.57.57 0 0 1-.489-.216.72.72 0 0 1-.125-.435.7.7 0 0 1 .165-.493.54.54 0 0 1 .415-.179.55.55 0 0 1 .442.188q.165.187.157.572h-.84a.34.34 0 0 0 .082.232.26.26 0 0 0 .195.082.2.2 0 0 0 .132-.042.26.26 0 0 0 .084-.137m.018-.338a.33.33 0 0 0-.075-.22.243.243 0 0 0-.357 0 .32.32 0 0 0-.07.22zm.92-.142-.3-.056a.48.48 0 0 1 .176-.27.64.64 0 0 1 .37-.089.8.8 0 0 1 .331.053.33.33 0 0 1 .155.135.7.7 0 0 1 .044.3v.39q-.003.123.015.245a.7.7 0 0 0 .061.169h-.331a1 1 0 0 1-.032-.097c0-.02-.01-.032-.012-.039a.53.53 0 0 1-.39.167.43.43 0 0 1-.308-.105.38.38 0 0 1-.06-.459.33.33 0 0 1 .142-.129q.128-.055.267-.077.165-.026.323-.083v-.033a.17.17 0 0 0-.047-.14.3.3 0 0 0-.18-.04.24.24 0 0 0-.14.035.25.25 0 0 0-.084.123m.449.273q-.064.021-.202.052a.6.6 0 0 0-.181.058.14.14 0 0 0-.066.117.16.16 0 0 0 .052.122.18.18 0 0 0 .133.052.3.3 0 0 0 .172-.06.2.2 0 0 0 .079-.11.7.7 0 0 0 .013-.164zM8.114 2.905h-2.28q0-.561-.132-.753-.203-.284-1.124-.284-.894 0-1.182.164-.289.164-.29.713c0 .332.087.553.257.655.15.081.316.126.486.131l.46.032q1.48.097 1.847.138 1.17.117 1.695.621c.281.273.456.637.492 1.028q.05.426.047.857 0 1.106-.21 1.61-.381.938-1.713 1.185a10 10 0 0 1-1.704.105q-1.916 0-2.67-.228Q1.17 8.596.878 7.74.713 7.264.714 6.153h2.28v.189q0 .593.341.763c.179.083.373.126.57.124h.839q.64 0 .819-.066a.66.66 0 0 0 .413-.398q.058-.217.052-.442 0-.602-.442-.733-.165-.05-1.525-.143-1.094-.079-1.52-.15-1.12-.212-1.492-.863Q.72 3.88.718 2.752A4.4 4.4 0 0 1 .894 1.38c.1-.318.3-.593.572-.785Q2.042.184 2.94.11 3.688.045 4.598.045q1.437 0 2.045.164 1.49.4 1.488 2.24.005.155-.017.456M18.14 9.107V0h4.566q.94 0 1.436.154a2.22 2.22 0 0 1 1.512 1.445q.201.573.2 1.726 0 1.385-.22 1.988-.442 1.2-1.807 1.38c-.11.017-.562.033-1.367.046l-.406.014h-1.462v2.351zm2.45-4.463h1.527q.726-.027.884-.11.22-.12.29-.48a4 4 0 0 0 .047-.708 3 3 0 0 0-.093-.858q-.133-.393-.634-.478a5 5 0 0 0-.476-.014H20.59zm10.495 2.889h-3.277l-.442 1.574H24.83L27.567 0h3.697l2.77 9.107h-2.482zm-.487-1.774L29.45 1.81l-1.115 3.948z"/><path fill="#ffc10e" d="M14.757 1.282a3.22 3.22 0 0 1 2.507 1.194l.528-1.132a4.64 4.64 0 0 0-7.453 1.555h-1.03L8.7 4.203h1.326a4.5 4.5 0 0 0 .006.808h-.663l-.61 1.305h1.614a4.6 4.6 0 0 0 4.23 2.738 4.64 4.64 0 0 0 2.583-.773V6.682a3.226 3.226 0 0 1-5.13-.362h3.378l.61-1.305H11.56a3.3 3.3 0 0 1-.02-.812h4.879l.609-1.304h-5.066a3.23 3.23 0 0 1 2.794-1.617"/><path fill="#0054a5" d="M14.757 1.32a3.18 3.18 0 0 1 2.476 1.181l.04.049.027-.056.528-1.134.012-.025-.021-.02a4.71 4.71 0 0 0-5.84-.476 4.54 4.54 0 0 0-1.675 2.045l.035-.025H9.284l-.01.024-.609 1.303-.025.057h1.386L9.988 4.2a4 4 0 0 0 .005.81l.039-.043h-.69l-.01.023-.61 1.304-.025.056h1.674l-.037-.024A4.63 4.63 0 0 0 14.6 9.09a4.7 4.7 0 0 0 2.606-.784l.016-.01V6.57l-.067.078a3.187 3.187 0 0 1-5.067-.36l-.033.062h3.403l.01-.022.608-1.305.027-.056h-4.544l.038.034a3.3 3.3 0 0 1-.018-.8l-.04.036h4.904l.01-.023.609-1.304.025-.056h-5.126l.034.058a3.2 3.2 0 0 1 2.762-1.592m-2.796 1.618h5.066l-.036-.055-.608 1.303.035-.022h-4.914V4.2a3.3 3.3 0 0 0 .018.817l.006.034h4.512l-.035-.056-.61 1.305.036-.023h-3.45l.04.06a3.265 3.265 0 0 0 5.194.368l-.069-.026v1.599l.017-.032a4.6 4.6 0 0 1-2.562.773 4.55 4.55 0 0 1-4.193-2.716l-.01-.024H8.759l.035.056.61-1.305-.036.024h.706v-.045a4 4 0 0 1-.007-.804v-.042H8.7l.036.055.608-1.303-.035.022h1.056l.01-.025a4.46 4.46 0 0 1 1.647-2.01 4.63 4.63 0 0 1 5.745.47l-.009-.046-.527 1.133.065-.008a3.265 3.265 0 0 0-5.367.427l-.035.059z"/></svg>