<svg xmlns="http://www.w3.org/2000/svg" width="33" height="12" fill="none" viewBox="0 0 33 12"><path fill="#00579f" d="M14.3 11.822h-2.673L13.298.212h2.672zM23.987.494A6 6 0 0 0 21.59 0c-2.638 0-4.494 1.578-4.508 3.841-.022 1.668 1.33 2.594 2.34 3.156 1.03.568 1.386.939 1.386 1.445-.01.778-.836 1.137-1.604 1.137-1.068 0-1.639-.185-2.508-.619l-.352-.185-.374 2.607c.627.315 1.779.605 2.98.618 2.804 0 4.63-1.557 4.652-3.965.01-1.322-.704-2.335-2.248-3.162-.936-.532-1.507-.89-1.507-1.434.011-.494.484-1 1.54-1a4.1 4.1 0 0 1 1.99.445l.241.123L23.982.5zm3.553 7.215c.22-.667 1.066-3.248 1.066-3.248-.011.025.22-.68.352-1.112l.187 1s.507 2.78.616 3.36zM30.838.212h-2.067c-.638 0-1.124.21-1.397.963l-3.97 10.647h2.81l.562-1.741h3.43c.077.408.32 1.741.32 1.741H33L30.846.212zm-21.443 0L6.778 8.129l-.286-1.606C6.008 4.671 4.49 2.658 2.798 1.657L5.195 11.81H8.02L12.22.212z"/><path fill="#faa61a" d="M4.351.212H.044L0 .447c3.355.964 5.576 3.286 6.489 6.077l-.937-5.336C5.4.45 4.926.24 4.344.212z"/></svg>