<svg width="56" height="56" viewBox="0 0 56 56" fill="none" xmlns="http://www.w3.org/2000/svg">
<rect width="56" height="56" transform="translate(0 0.000305176)" fill="url(#paint0_linear_1125_17396)"/>
<path d="M43.2556 41.8083L31.488 13.387C30.8242 11.9175 29.8377 11.2007 28.5372 11.2007L27.4968 11.2006C26.1963 11.2006 25.2098 11.9174 24.5461 13.3868L19.4252 25.7694L15.5507 25.7693C14.3937 25.7783 13.452 26.7101 13.443 27.8749L13.443 27.9018C13.452 29.0576 14.3938 29.9984 15.5507 30.0074L17.6315 30.0075L12.7438 41.8077C12.6541 42.0675 12.6003 42.3363 12.6003 42.6141C12.6003 43.2771 12.8066 43.7968 13.1743 44.2C13.542 44.6032 14.0712 44.8004 14.7349 44.8004C15.1744 44.7914 15.5959 44.657 15.9457 44.3972C16.3224 44.1374 16.5824 43.761 16.7887 43.331L22.1697 29.9986L25.9007 29.9987C27.0577 29.9897 27.9994 29.0579 28.0084 27.8931L28.0084 27.8394C27.9994 26.6835 27.0576 25.7427 25.9007 25.7337L23.9096 25.7337L28.0171 15.5104L39.2107 43.3225C39.417 43.7526 39.6771 44.1289 40.0538 44.3887C40.4036 44.6486 40.8341 44.783 41.2646 44.792C41.9283 44.792 42.4485 44.5949 42.8252 44.1917C43.2019 43.7885 43.3992 43.2688 43.3992 42.6058C43.4081 42.337 43.3633 42.0592 43.2556 41.8083Z" fill="white"/>
<defs>
<linearGradient id="paint0_linear_1125_17396" x1="48.8764" y1="10.4341" x2="7.21239" y2="45.4901" gradientUnits="userSpaceOnUse">
<stop stop-color="#B6509E"/>
<stop offset="1" stop-color="#2EBAC6"/>
</linearGradient>
</defs>
</svg>
