<svg width="56" height="56" viewBox="0 0 56 56" fill="none" xmlns="http://www.w3.org/2000/svg">
<rect width="56" height="56" fill="#FBFBFB"/>
<g clip-path="url(#clip0_6982_23596)">
<path fill-rule="evenodd" clip-rule="evenodd" d="M34.3687 34.3271C34.3687 32.023 32.6396 30.9198 29.377 30.9198H21.4083V37.7345H29.377C32.6396 37.7345 34.3687 36.6313 34.3687 34.3271ZM21.4083 17.8655V24.3438H27.9374C31.1061 24.3438 32.7374 23.2406 32.7374 21.0812C32.7374 18.9218 31.1061 17.8655 27.9374 17.8655H21.4083V17.8655ZM43.9687 35.3834C43.9687 41.1927 39.1687 44.6 30.1438 44.6H20.1604C15.6538 44.6 12 40.9462 12 36.4396V11H29.1814C38.0147 11 42.3335 14.599 42.3335 19.7824C42.3335 22.998 40.7022 25.5917 37.823 27.0782C41.6137 28.42 43.9687 31.3032 43.9687 35.3834Z" fill="#003EDD"/>
</g>
<defs>
<clipPath id="clip0_6982_23596">
<rect width="31.9687" height="33.6" fill="white" transform="translate(12 11)"/>
</clipPath>
</defs>
</svg>
