<svg width="56" height="56" viewBox="0 0 56 56" fill="none" xmlns="http://www.w3.org/2000/svg">
<rect width="56" height="56" fill="#191919"/>
<g clip-path="url(#clip0_8467_10276)">
<path d="M16.0972 43.8412L15.6138 43.3517C15.2468 43.6943 14.9103 43.9085 14.3841 43.9085C13.5643 43.9085 12.9709 43.2233 12.9709 42.379C12.9709 41.5347 13.5643 40.8617 14.3841 40.8617C14.8736 40.8617 15.2406 41.0758 15.5833 41.394L16.0666 40.8372C15.6567 40.4457 15.1795 40.1704 14.3902 40.1704C13.0932 40.1704 12.1816 41.1676 12.1816 42.3912C12.1816 43.627 13.1116 44.5998 14.3596 44.5998C15.1611 44.5998 15.6505 44.3061 16.0972 43.8412Z" fill="#F0B90B"/>
<path d="M21.0575 42.379C21.0575 41.1676 20.1398 40.1704 18.8244 40.1704C17.509 40.1704 16.5791 41.1798 16.5791 42.3912C16.5791 43.6026 17.4968 44.5998 18.8122 44.5998C20.1275 44.5998 21.0575 43.5903 21.0575 42.379ZM20.2683 42.3912C20.2683 43.2294 19.6748 43.9085 18.8244 43.9085C17.974 43.9085 17.3683 43.2171 17.3683 42.379C17.3683 41.5408 17.9617 40.8617 18.8122 40.8617C19.6626 40.8617 20.2683 41.553 20.2683 42.3912Z" fill="#F0B90B"/>
<path d="M24.9585 43.2052L22.6642 40.2441H21.9668V44.5267H22.7071V41.4799L25.0686 44.5267H25.6988V40.2441H24.9585V43.2052Z" fill="#F0B90B"/>
<path d="M29.792 43.2052L27.4977 40.2441H26.8003V44.5267H27.5406V41.4799L29.9021 44.5267H30.5323V40.2441H29.792V43.2052Z" fill="#F0B90B"/>
<path d="M34.809 40.2441H31.6338V44.5267H34.8396V43.8537H32.3863V42.7035H34.5337V42.0306H32.3863V40.9171H34.809V40.2441Z" fill="#F0B90B"/>
<path d="M39.458 43.8412L38.9747 43.3517C38.6076 43.6943 38.2711 43.9085 37.745 43.9085C36.9251 43.9085 36.3317 43.2233 36.3317 42.379C36.3317 41.5347 36.9251 40.8617 37.745 40.8617C38.2344 40.8617 38.6015 41.0758 38.9441 41.394L39.4274 40.8372C39.0175 40.4457 38.5403 40.1704 37.7511 40.1704C36.454 40.1704 35.5425 41.1676 35.5425 42.3912C35.5425 43.627 36.4724 44.5998 37.7205 44.5998C38.5219 44.5998 39.0114 44.3061 39.458 43.8412Z" fill="#F0B90B"/>
<path d="M42.0602 40.9416H43.4184V40.2441H39.9434V40.9416H41.3016V44.5267H42.0602V40.9416Z" fill="#F0B90B"/>
<path d="M27.8058 29.9419L23.0674 25.2035L20.3024 27.9685L27.8058 35.472L35.3092 27.9685L32.5441 25.2035L27.8058 29.9419ZM15.564 23.2418L18.329 26.0069L21.094 23.2418L18.329 20.4768L15.564 23.2418ZM25.0349 23.2418L27.8 26.0069L30.565 23.2418L27.8 20.4768L25.0349 23.2418ZM34.5059 23.2418L37.2709 26.0069L40.0359 23.2418L37.2767 20.471L34.5059 23.2418ZM27.8058 11L20.3024 18.5034L23.0674 21.2685L27.8058 16.5301L32.5441 21.2685L35.3092 18.5034L27.8058 11Z" fill="#F0B90B"/>
</g>
<defs>
<clipPath id="clip0_8467_10276">
<rect width="33.6" height="33.6" fill="white" transform="translate(11 11)"/>
</clipPath>
</defs>
</svg>
