<svg width="56" height="56" viewBox="0 0 56 56" fill="none" xmlns="http://www.w3.org/2000/svg">
<rect width="56" height="56" fill="#449BF7"/>
<path fill-rule="evenodd" clip-rule="evenodd" d="M22.3043 11.2002C20.2399 11.2002 18.5663 12.8737 18.5663 14.9382V22.4821H17.7375C15.6731 22.4821 13.9995 24.1557 13.9995 26.2201C13.9995 28.2845 15.6731 29.9581 17.7375 29.9581H18.5663V33.6412C18.5663 39.8041 23.5624 44.8002 29.7254 44.8002C35.8883 44.8002 40.8844 39.8041 40.8844 33.6412C40.8844 27.4782 35.8883 22.4821 29.7254 22.4821H26.0423V14.9388C26.0423 12.8746 24.369 11.2002 22.3043 11.2002ZM17.7375 24.2496H18.5663V25.3364H17.7381C17.25 25.3364 16.8544 25.732 16.8544 26.2201C16.8544 26.7082 17.25 27.1038 17.7381 27.1038H18.5663V28.1906H17.7375C16.6492 28.1906 15.767 27.3084 15.767 26.2201C15.767 25.1318 16.6492 24.2496 17.7375 24.2496ZM20.3338 33.6412V14.9382C20.3338 13.8499 21.216 12.9676 22.3043 12.9676C23.3923 12.9676 24.2748 13.8503 24.2748 14.9388V33.6412C24.2748 36.6514 26.7151 39.0917 29.7254 39.0917C32.7356 39.0917 35.1759 36.6514 35.1759 33.6412C35.1759 30.6309 32.7356 28.1906 29.7254 28.1906H26.0423V27.1038H29.726C33.3365 27.1038 36.2633 30.0307 36.2633 33.6412C36.2633 37.2516 33.3365 40.1785 29.726 40.1785C26.1155 40.1785 23.1886 37.2516 23.1886 33.6412V14.9382C23.1886 14.4501 22.793 14.0545 22.3049 14.0545C21.8169 14.0545 21.4212 14.4501 21.4212 14.9382V33.6412C21.4212 38.2278 25.1394 41.946 29.726 41.946C34.3126 41.946 38.0308 38.2278 38.0308 33.6412C38.0308 29.0546 34.3126 25.3364 29.726 25.3364H26.0423V24.2496H29.7254C34.9122 24.2496 39.117 28.4543 39.117 33.6412C39.117 38.828 34.9122 43.0327 29.7254 43.0327C24.5385 43.0327 20.3338 38.828 20.3338 33.6412ZM26.0423 33.6412V29.9581H29.7254C31.7595 29.9581 33.4084 31.607 33.4084 33.6412C33.4084 35.6753 31.7595 37.3242 29.7254 37.3242C27.6913 37.3242 26.0423 35.6753 26.0423 33.6412Z" fill="white"/>
</svg>
