<svg width="56" height="56" viewBox="0 0 56 56" fill="none" xmlns="http://www.w3.org/2000/svg">
<rect width="56" height="56" transform="translate(0 0.000305176)" fill="#0086FB"/>
<path d="M36.8583 16.7177L38.3495 11.2003H34.0249L33.1303 14.6326C32.335 14.3341 31.49 14.1358 30.6464 13.9863L31.3906 11.2003H27.066L26.3701 13.8847C22.6424 14.3815 19.2124 16.3203 16.9268 19.3524C12.1542 25.5657 13.3469 34.513 19.5606 39.2848L18.0694 44.8003H22.3462L23.2408 41.3708C24.0361 41.6688 24.8815 41.8675 25.7247 42.017L24.9786 44.8003H29.2532L29.9988 42.1164C33.7268 41.621 37.1591 39.6826 39.4433 36.6505C44.2648 30.3871 43.0716 21.4899 36.8583 16.7177ZM28.2095 31.3319C27.5409 31.332 26.8873 31.1338 26.3313 30.7624C25.7754 30.391 25.3421 29.8631 25.0861 29.2454C24.8302 28.6278 24.7632 27.9481 24.8936 27.2924C25.024 26.6366 25.3459 26.0342 25.8186 25.5615C26.2913 25.0887 26.8937 24.7667 27.5494 24.6362C28.2051 24.5057 28.8848 24.5727 29.5025 24.8285C30.1202 25.0843 30.6482 25.5176 31.0196 26.0735C31.3911 26.6294 31.5893 27.283 31.5893 27.9515C31.5893 29.8406 30.0981 31.3319 28.2095 31.3319Z" fill="white"/>
</svg>
