<svg width="56" height="56" viewBox="0 0 56 56" fill="none" xmlns="http://www.w3.org/2000/svg">
<rect width="56" height="56" transform="translate(0 0.000244141)" fill="#10D078"/>
<path d="M26.4035 38.6137C26.1593 38.8581 25.893 39.0802 25.6045 39.2802C25.0496 39.7023 24.4726 40.0578 23.8512 40.391C22.6306 41.0131 21.3434 41.4797 19.9896 41.7463C19.6567 41.813 19.3238 41.8796 18.9909 41.9241L18.4805 41.9907L18.2363 42.013L17.9922 42.0352L17.4818 42.0796L16.9713 42.1019C16.6384 42.1241 16.2834 42.1241 15.9505 42.1463C14.9518 42.1464 13.9531 42.102 12.9544 42.0132C13.0654 41.8577 13.1764 41.6799 13.2874 41.5022C13.5981 41.0135 13.8866 40.4803 14.1529 39.9471C14.6412 38.8808 15.0185 37.77 15.3293 36.6592C15.6178 35.5707 15.973 34.5265 16.3725 33.4602C16.772 32.3938 17.2381 31.3719 17.7708 30.3722C17.3935 30.7943 17.0606 31.2608 16.7498 31.7496C16.4391 32.2161 16.1284 32.7271 15.8621 33.2158C15.3072 34.2155 14.8189 35.2819 14.4416 36.3482C14.0421 37.3924 13.6204 38.4365 13.1099 39.3918C12.5994 40.3471 11.978 41.2357 11.2678 42.0799L10.5354 42.9685L11.6894 43.124C13.1097 43.3239 14.5523 43.4349 15.9948 43.3904C16.3499 43.3682 16.7272 43.3681 17.0823 43.3237L17.6149 43.2793L18.1475 43.2126C18.5026 43.1681 18.8577 43.0793 19.2128 43.0348C19.5679 42.9459 19.923 42.8793 20.2781 42.7682C20.6331 42.6793 20.966 42.546 21.3211 42.4349C21.654 42.3016 22.0091 42.1683 22.342 42.0128C23.0078 41.724 23.6514 41.3463 24.2507 40.9464C24.8499 40.5465 25.4047 40.0799 25.9152 39.5468C26.4034 39.0136 26.8473 38.4582 27.158 37.8139C26.9139 38.1249 26.6698 38.3915 26.4035 38.6137ZM34.3493 19.4416C34.7488 19.0418 35.2814 18.8196 35.8584 18.8196C36.4132 18.8195 36.9459 19.0195 37.3675 19.4415C38.1886 20.2857 38.1886 21.6186 37.3674 22.4628C36.5462 23.2848 35.1925 23.2848 34.3492 22.4629C33.9497 22.0631 33.7278 21.5299 33.7278 20.9523C33.7278 20.3747 33.9498 19.8415 34.3493 19.4416ZM35.8582 24.3734C36.7459 24.3733 37.6114 24.0401 38.2773 23.3736C39.6089 22.0184 39.609 19.8635 38.2775 18.5085C36.9459 17.1756 34.771 17.1757 33.4394 18.5087C32.7958 19.1529 32.4407 20.0193 32.4406 20.9301C32.4406 21.841 32.7957 22.7073 33.4392 23.3516C34.0828 24.018 34.9483 24.3734 35.8582 24.3734ZM36.8567 29.3051C31.9519 33.6373 29.9101 34.0372 27.8684 33.1043L30.0878 30.3051C30.4207 29.9052 30.6427 29.4164 30.7758 28.9055L31.6637 25.1511L27.9353 26.0398C27.4248 26.1731 26.9366 26.3953 26.5371 26.7286L23.7407 28.9502C22.7865 26.9064 23.2082 24.8626 27.5139 19.9529C31.5975 15.3097 40.2084 14.2431 42.7606 14.0208C42.5608 16.5756 41.4952 25.2173 36.8567 29.3051ZM33.5941 36.0142C33.5497 36.2142 33.4387 36.4141 33.2611 36.5252C32.7507 36.8806 31.9517 37.3694 31.2415 37.8138L31.2859 37.6805C31.6189 36.3253 31.6189 35.2812 31.286 34.5703C32.2182 34.2815 33.2169 33.7705 34.3487 32.9929C34.0602 34.0371 33.7494 35.2811 33.5941 36.0142ZM25.8488 33.5931C25.5603 33.9708 25.0943 34.1707 24.6282 34.1485L24.606 34.1485L23.4964 34.1486L27.3581 29.4832L22.6975 33.3488L22.6975 32.2603L22.6975 32.2159C22.6753 31.7494 22.8751 31.2828 23.2524 30.994L27.336 27.7504C27.6023 27.5505 27.913 27.395 28.2237 27.3061L29.8882 26.9061L29.4887 28.5723C29.3999 28.9055 29.2667 29.2165 29.0448 29.4831L25.8488 33.5931ZM19.1913 25.5515L19.0581 25.5959C19.4798 24.885 19.9681 24.0852 20.3232 23.5743C20.4342 23.3965 20.6339 23.2854 20.8337 23.241C21.566 23.0855 22.8089 22.7744 23.8519 22.5078C23.0751 23.6408 22.5647 24.6627 22.2761 25.5958C21.5882 25.1959 20.5451 25.196 19.1913 25.5515ZM43.4486 12.6656C42.9826 12.6879 31.7086 13.1993 26.5374 19.0865C26.0491 19.6419 25.5831 20.2195 25.117 20.7972C24.3624 20.9971 21.7436 21.7081 20.5896 21.9525C20.057 22.0636 19.5687 22.3747 19.258 22.8412C18.459 23.9964 17.083 26.3735 17.0386 26.4624L16.0398 28.173L17.8597 27.3732C19.0581 26.8622 21.0555 26.3289 21.7656 26.751C21.8766 26.8176 22.0097 26.9509 22.0319 27.2841C22.0541 28.1283 22.276 28.9503 22.6976 29.7722L22.4535 29.9721C21.7655 30.5276 21.366 31.3717 21.4103 32.2604L21.4102 35.4371L24.5838 35.437C25.4715 35.4814 26.3148 35.0815 26.8697 34.3928L27.0694 34.1484C27.8905 34.5705 28.7117 34.8148 29.555 34.8148C29.8879 34.837 29.9988 34.948 30.0876 35.0813C30.5314 35.7922 29.9987 37.8138 29.4661 39.0134L28.667 40.8351L30.3759 39.8354C30.4869 39.7687 32.8394 38.3913 33.9935 37.5915C34.4373 37.2805 34.748 36.8139 34.859 36.2585C35.1032 35.1033 35.8135 32.4597 36.0132 31.7044C36.5459 31.2823 37.1007 30.7935 37.7 30.2603C43.5591 25.0839 44.0922 13.7764 44.1144 13.3099L44.1366 12.599L43.4486 12.6656Z" fill="white"/>
</svg>
