<svg width="56" height="56" viewBox="0 0 56 56" fill="none" xmlns="http://www.w3.org/2000/svg">
<g filter="url(#filter0_i_1125_17263)">
<rect width="56" height="56" transform="translate(0 0.000244141)" fill="#FBFBFB"/>
<g clip-path="url(#clip0_1125_17263)">
<path d="M44.8 27.9259C44.8147 31.2485 43.8437 34.501 42.0099 37.2718C40.1761 40.0427 37.5619 42.2075 34.4977 43.4926C31.4336 44.7777 28.0572 45.1253 24.7955 44.4915C21.5338 43.8576 18.5333 42.2709 16.1734 39.9318C13.8136 37.5926 12.2003 34.6063 11.5377 31.3503C10.875 28.0943 11.1928 24.715 12.4507 21.6396C13.7087 18.5642 15.8503 15.9309 18.6049 14.0727C21.3594 12.2145 24.6031 11.2148 27.9258 11.2001V11.2001C30.132 11.1903 32.3185 11.6152 34.3605 12.4505C36.4025 13.2857 38.26 14.515 39.827 16.0682C41.3939 17.6213 42.6395 19.4679 43.4928 21.5024C44.3461 23.537 44.7903 25.7196 44.8 27.9259Z" fill="#8DC63F"/>
<path d="M43.5398 27.9323C43.5549 31.0056 42.6583 34.0143 40.9634 36.5779C39.2685 39.1416 36.8513 41.145 34.0177 42.3348C31.1841 43.5246 28.0612 43.8474 25.0442 43.2622C22.0271 42.6771 19.2513 41.2104 17.0679 39.0476C14.8845 36.8847 13.3915 34.123 12.7778 31.1116C12.1641 28.1002 12.4572 24.9745 13.6201 22.1297C14.783 19.2849 16.7634 16.8489 19.3108 15.1297C21.8583 13.4106 24.8584 12.4855 27.9316 12.4715V12.4715C32.0512 12.4533 36.0094 14.0717 38.9362 16.9709C41.863 19.8701 43.5189 23.8128 43.5398 27.9323V27.9323Z" fill="#F9E988"/>
<path d="M28.2859 13.4719C29.2736 13.2966 30.2844 13.2966 31.2721 13.4719C32.2694 13.63 33.2333 13.953 34.1245 14.4276C35.0108 14.9145 35.7765 15.5756 36.5386 16.1952C37.3007 16.8149 38.0591 17.4492 38.781 18.1431C39.518 18.8261 40.1611 19.6039 40.6935 20.4561C41.2416 21.3016 41.6909 22.2072 42.0327 23.1551C42.6815 25.0615 42.9068 27.1152 42.5829 29.074H42.4867C42.1617 27.1323 41.721 25.2819 41.0259 23.5215C40.6996 22.6367 40.3157 21.7741 39.8767 20.9394C39.4188 20.1001 38.914 19.2872 38.3647 18.5046C37.8062 17.7164 37.1218 17.0254 36.3389 16.4594C35.5501 15.897 34.6431 15.533 33.7654 15.1872C32.8876 14.8415 32.0172 14.4872 31.1017 14.2243C30.1862 13.9613 29.2561 13.7641 28.2847 13.573L28.2859 13.4719Z" fill="white"/>
<path d="M35.8813 22.4478C34.754 22.1215 33.5853 21.6589 32.402 21.1914C32.3338 20.8944 32.0708 20.5243 31.5388 20.0726C30.7658 19.4019 29.3135 19.4189 28.0583 19.716C26.6729 19.3897 25.3046 19.274 23.991 19.5942C13.2475 22.5537 19.3394 29.774 15.395 37.0321C15.9562 38.2227 22.0055 45.1692 30.7585 43.3053C30.7585 43.3053 27.7649 36.1118 34.5202 32.6593C39.9997 29.8483 43.9587 24.6476 35.8813 22.4478Z" fill="#8BC53F"/>
<path d="M37.2084 27.1724C37.2091 27.3013 37.1716 27.4274 37.1006 27.5349C37.0297 27.6424 36.9284 27.7264 36.8097 27.7764C36.6909 27.8264 36.5601 27.84 36.4336 27.8156C36.3071 27.7912 36.1907 27.7298 36.0991 27.6392C36.0075 27.5486 35.9448 27.4329 35.919 27.3067C35.8932 27.1805 35.9053 27.0495 35.9539 26.9302C36.0026 26.8109 36.0855 26.7087 36.1922 26.6366C36.2989 26.5644 36.4246 26.5255 36.5534 26.5248C36.726 26.5241 36.8919 26.5919 37.0147 26.7133C37.1374 26.8347 37.2071 26.9998 37.2084 27.1724Z" fill="white"/>
<path d="M28.0581 19.7112C28.8409 19.7672 31.6713 20.6851 32.4018 21.1866C31.7931 19.4214 29.7442 19.1865 28.0581 19.7112Z" fill="#009345"/>
<path d="M28.8035 24.1753C28.8037 24.7695 28.6277 25.3505 28.2978 25.8447C27.9679 26.339 27.4988 26.7242 26.9499 26.9519C26.401 27.1795 25.7969 27.2392 25.214 27.1235C24.6311 27.0078 24.0957 26.7219 23.6753 26.3019C23.2549 25.8819 22.9686 25.3466 22.8524 24.7639C22.7362 24.1811 22.7955 23.577 23.0227 23.0279C23.2499 22.4788 23.6348 22.0094 24.1287 21.679C24.6227 21.3487 25.2035 21.1722 25.7977 21.172V21.172C26.5942 21.172 27.358 21.4882 27.9214 22.0511C28.4848 22.6141 28.8016 23.3777 28.8023 24.1741L28.8035 24.1753Z" fill="white"/>
<path d="M27.9123 24.2019C27.9123 24.6199 27.7884 25.0285 27.5562 25.376C27.3239 25.7236 26.9939 25.9945 26.6077 26.1544C26.2215 26.3144 25.7966 26.3562 25.3866 26.2747C24.9767 26.1931 24.6001 25.9918 24.3045 25.6963C24.009 25.4007 23.8077 25.0242 23.7262 24.6142C23.6446 24.2042 23.6865 23.7793 23.8464 23.3931C24.0064 23.007 24.2773 22.6769 24.6248 22.4447C24.9723 22.2124 25.381 22.0885 25.7989 22.0885C26.3594 22.0885 26.897 22.3112 27.2933 22.7075C27.6897 23.1038 27.9123 23.6414 27.9123 24.2019Z" fill="#58595B"/>
<path d="M39.6418 28.497C37.207 30.2123 34.4387 31.5137 30.5114 31.5137C28.6731 31.5137 28.3006 29.5659 27.0856 30.5179C26.4587 31.0121 24.2479 32.1175 22.4936 32.0335C20.7394 31.9495 17.8955 30.9221 17.103 27.1761C16.7889 30.9221 16.6282 33.6795 15.2173 36.841C18.0173 41.3247 24.6935 44.7833 30.7536 43.2932C30.1072 38.7462 34.0869 34.293 36.3196 32.0177C37.1717 31.1546 38.7909 29.7461 39.6418 28.4982V28.497Z" fill="#8BC53F"/>
<path d="M39.547 28.6088C38.791 29.2978 37.8914 29.8079 36.9759 30.2583C36.0491 30.6979 35.0831 31.0496 34.0907 31.309C33.0973 31.5658 32.0613 31.7594 31.0119 31.6644C29.9625 31.5695 28.89 31.2128 28.1948 30.4263L28.2277 30.3886C29.0799 30.9413 30.0635 31.1361 31.0423 31.1641C32.0344 31.1946 33.0268 31.1129 34.0006 30.9206C34.9842 30.7144 35.9465 30.4169 36.8748 30.0319C37.8037 29.6484 38.7228 29.2041 39.5141 28.571L39.547 28.6088Z" fill="#58595B"/>
</g>
</g>
<defs>
<filter id="filter0_i_1125_17263" x="0" y="-0.999756" width="56" height="57" filterUnits="userSpaceOnUse" color-interpolation-filters="sRGB">
<feFlood flood-opacity="0" result="BackgroundImageFix"/>
<feBlend mode="normal" in="SourceGraphic" in2="BackgroundImageFix" result="shape"/>
<feColorMatrix in="SourceAlpha" type="matrix" values="0 0 0 0 0 0 0 0 0 0 0 0 0 0 0 0 0 0 127 0" result="hardAlpha"/>
<feMorphology radius="1" operator="erode" in="SourceAlpha" result="effect1_innerShadow_1125_17263"/>
<feOffset dy="-1"/>
<feComposite in2="hardAlpha" operator="arithmetic" k2="-1" k3="1"/>
<feColorMatrix type="matrix" values="0 0 0 0 1 0 0 0 0 1 0 0 0 0 1 0 0 0 0.65 0"/>
<feBlend mode="normal" in2="shape" result="effect1_innerShadow_1125_17263"/>
</filter>
<clipPath id="clip0_1125_17263">
<rect width="33.6" height="33.6" fill="white" transform="translate(11.1997 11.2003)"/>
</clipPath>
</defs>
</svg>
