<svg width="56" height="56" viewBox="0 0 56 56" fill="none" xmlns="http://www.w3.org/2000/svg">
<rect width="56" height="56" transform="translate(0 0.000244141)" fill="#E48825"/>
<g clip-path="url(#clip0_1562_20077)">
<path fill-rule="evenodd" clip-rule="evenodd" d="M43.4966 31.1478C44.3299 30.3123 44.7979 29.1804 44.7979 28.0004C44.7979 26.8204 44.3299 25.6885 43.4966 24.8529L31.1538 12.5101C30.3183 11.6768 29.1864 11.2089 28.0064 11.2089C26.8263 11.2089 25.6945 11.6768 24.8589 12.5101L12.5161 24.8529C11.6828 25.6885 11.2148 26.8204 11.2148 28.0004C11.2148 29.1804 11.6828 30.3123 12.5161 31.1478L24.8589 43.4907C25.6945 44.3239 26.8263 44.7919 28.0064 44.7919C29.1864 44.7919 30.3183 44.3239 31.1538 43.4907L43.4966 31.1478ZM27.9892 32.2689C28.721 32.2692 29.4406 32.0818 30.0792 31.7247C30.7179 31.3675 31.2543 30.8525 31.6372 30.229C31.6673 30.1755 31.7111 30.1311 31.7642 30.1003C31.8172 30.0695 31.8776 30.0536 31.9389 30.0541H36.2178C36.2682 30.0559 36.3176 30.0688 36.3624 30.0918C36.4073 30.1149 36.4465 30.1475 36.4772 30.1875C36.508 30.2274 36.5296 30.2737 36.5405 30.3229C36.5513 30.3722 36.5512 30.4232 36.5401 30.4724C35.944 32.5358 34.6231 34.3147 32.8201 35.4819C31.0171 36.649 28.8533 37.126 26.7267 36.825C24.6001 36.524 22.6537 35.4653 21.2454 33.8437C19.8371 32.222 19.0616 30.1465 19.0616 27.9987C19.0616 25.8509 19.8371 23.7753 21.2454 22.1536C22.6537 20.532 24.6001 19.4733 26.7267 19.1723C28.8533 18.8714 31.0171 19.3483 32.8201 20.5155C34.6231 21.6826 35.944 23.4615 36.5401 25.5249C36.5516 25.5758 36.5513 25.6286 36.5393 25.6794C36.5273 25.7301 36.5039 25.7775 36.4708 25.8178C36.4377 25.8582 36.3959 25.8904 36.3485 25.9121C36.3011 25.9339 36.2493 25.9445 36.1972 25.9432H31.9526C31.8911 25.9423 31.8309 25.9258 31.7775 25.8952C31.7241 25.8646 31.6794 25.821 31.6475 25.7684C31.2581 25.1308 30.7087 24.6062 30.0539 24.2467C29.399 23.8871 28.6615 23.7051 27.9146 23.7188C27.1676 23.7325 26.4373 23.9413 25.796 24.3246C25.1547 24.7078 24.6249 25.2522 24.2591 25.9035C23.8933 26.5549 23.7043 27.2907 23.7108 28.0377C23.7173 28.7847 23.9191 29.5171 24.2962 30.162C24.6733 30.8069 25.2126 31.3419 25.8604 31.7139C26.5083 32.0859 27.2421 32.282 27.9892 32.2827V32.2689Z" fill="white"/>
</g>
<defs>
<clipPath id="clip0_1562_20077">
<rect width="33.6" height="33.6" fill="white" transform="translate(11.1997 11.2003)"/>
</clipPath>
</defs>
</svg>
