<svg width="56" height="56" viewBox="0 0 56 56" fill="none" xmlns="http://www.w3.org/2000/svg">
<rect width="56" height="56" transform="translate(0 0.000244141)" fill="#00D395"/>
<path fill-rule="evenodd" clip-rule="evenodd" d="M16.0637 37.3815C15.2177 36.8696 14.7 35.9606 14.7 34.9817L14.6999 29.5164C14.6999 28.8675 15.2346 28.3417 15.891 28.3445C16.1003 28.3445 16.3069 28.4005 16.4879 28.504L28.9619 35.6951C29.6918 36.1146 30.1417 36.8866 30.1417 37.7229L30.1417 43.3839C30.1446 44.1614 29.508 44.7935 28.7215 44.7935C28.4584 44.7935 28.1981 44.7208 27.9746 44.5866L16.0637 37.3815ZM34.657 27.0078C35.3869 27.4273 35.8339 28.2021 35.8367 29.0356L35.8369 40.5255C35.8369 40.8639 35.653 41.1772 35.3531 41.3422L32.6229 42.8609C32.589 42.8805 32.5522 42.8945 32.5126 42.9056L32.5125 36.5258C32.5125 35.7007 32.074 34.9343 31.3554 34.5092L20.4007 28.0313L20.4006 20.8292C20.4006 20.1803 20.9353 19.6544 21.5917 19.6572C21.8011 19.6572 22.0076 19.7132 22.1887 19.8167L34.657 27.0078ZM40.1172 18.5219C40.85 18.9414 41.2998 19.7162 41.2998 20.5525L41.3 37.3342C41.2972 37.6782 41.1048 37.9943 40.7992 38.1593L38.2105 39.541L38.2104 27.8581C38.2104 27.033 37.7719 26.2694 37.0589 25.8443L25.8609 19.2042L25.8609 12.374C25.8609 12.1671 25.9174 11.9629 26.0193 11.7839C26.3503 11.2245 27.0774 11.0343 27.6432 11.3588L40.1172 18.5219Z" fill="white"/>
</svg>
