<svg width="56" height="56" viewBox="0 0 56 56" fill="none" xmlns="http://www.w3.org/2000/svg">
<rect width="56" height="56" transform="translate(0 0.000244141)" fill="#6436FF"/>
<path d="M44.363 26.9937L32.4706 15.1768C31.8877 14.5975 30.9429 14.5975 30.3599 15.1768L23.3886 22.1039L21.3703 20.0985C20.7874 19.5192 19.8426 19.5192 19.2556 20.0985L11.6369 27.6688C11.054 28.248 11.054 29.1868 11.6369 29.7701L19.2596 37.3444C19.8426 37.9237 20.7874 37.9237 21.3743 37.3444L22.7091 36.0181L17.1007 30.4492C16.5177 29.87 16.5177 28.9312 17.1007 28.3519L17.4102 28.0443L30.3559 40.9079C30.9389 41.4871 31.8837 41.4871 32.4666 40.9079L44.359 29.091C44.9459 28.5117 44.9459 27.5729 44.363 26.9937Z" fill="white"/>
</svg>
