<svg width="56" height="56" viewBox="0 0 56 56" fill="none" xmlns="http://www.w3.org/2000/svg">
<rect width="56" height="56" fill="#FBFBFB"/>
<g clip-path="url(#clip0_8419_23729)">
<path d="M27.8318 44.6C25.7606 44.5904 20.4785 44.1045 16.0681 39.7792C11.3857 35.1993 11 29.4315 11 27.777V27.7635C11.027 25.6925 11.5631 20.4146 15.9273 16.0141C20.3377 11.5788 25.67 11.0292 27.7585 11.0003C27.8693 10.9972 27.9794 11.0168 28.0822 11.0579C28.1851 11.0991 28.2784 11.1608 28.3564 11.2394C28.4352 11.3166 28.4978 11.4087 28.5405 11.5103C28.5833 11.612 28.6052 11.7212 28.6051 11.8314V15.4355C28.6054 15.5444 28.5842 15.6523 28.5427 15.753C28.5013 15.8537 28.4405 15.9453 28.3636 16.0224C28.2868 16.0996 28.1955 16.1609 28.095 16.2028C27.9945 16.2447 27.8867 16.2664 27.7778 16.2667C26.6323 16.2667 22.6558 16.5386 19.5239 19.7705C17.4621 21.9243 16.3005 24.784 16.2763 27.7654C16.2841 29.1269 16.5926 32.5979 19.3253 35.5676C22.4841 39.0059 26.64 39.3067 27.8376 39.3163C28.9947 39.3163 33.0021 39.0464 36.1455 35.7701C39.0381 32.7638 39.3525 29.1866 39.3565 27.7886V11.9009C39.3565 11.6809 39.4437 11.47 39.5992 11.3145C39.7549 11.159 39.9659 11.0717 40.1856 11.0717H43.7707C43.8797 11.0714 43.9877 11.0927 44.0883 11.1343C44.1891 11.1759 44.2805 11.2369 44.3576 11.314C44.4347 11.391 44.4957 11.4825 44.5373 11.5832C44.5789 11.684 44.6003 11.7919 44.6 11.9009V27.831C44.6 29.4778 44.2336 35.2012 39.6091 39.7656C35.1948 44.1219 29.8991 44.5981 27.8318 44.6ZM12.6604 27.777C12.6604 29.2831 13.0211 34.4742 17.2251 38.5952C21.2075 42.4963 25.9708 42.9357 27.8318 42.9416C29.284 42.9416 34.352 42.6235 38.4384 38.5875C42.604 34.4742 42.9317 29.3158 42.9339 27.8329V12.7358H41.0053V27.7963C41.0053 29.3968 40.6349 33.485 37.3412 36.9251C33.7426 40.672 29.1509 40.9747 27.8299 40.9747C26.453 40.9632 21.7089 40.62 18.0987 36.6899C14.9862 33.2998 14.6255 29.3197 14.614 27.777C14.614 26.1649 14.9997 22.0652 18.3263 18.625C21.354 15.4992 25.076 14.7973 26.9389 14.6526V12.7031C24.8677 12.8689 20.6116 13.6576 17.1037 17.1884C13.1753 21.1493 12.6874 25.9046 12.6604 27.777Z" fill="#4643EE"/>
<path d="M27.8299 37.247C25.961 37.247 24.134 36.6928 22.5801 35.6546C21.0261 34.6163 19.8149 33.1406 19.0997 31.414C18.3845 29.6875 18.1973 27.7876 18.5619 25.9547C18.9266 24.1217 19.8265 22.4381 21.1481 21.1167C22.4696 19.7952 24.1534 18.8953 25.9864 18.5307C27.8195 18.1661 29.7195 18.3532 31.4461 19.0684C33.1728 19.7835 34.6486 20.9946 35.687 22.5485C36.7253 24.1024 37.2795 25.9292 37.2795 27.7981C37.2749 30.3027 36.2779 32.7034 34.5067 34.4744C32.7356 36.2454 30.3347 37.2424 27.8299 37.247ZM27.8299 19.9979C26.2883 19.9979 24.7812 20.455 23.4993 21.3115C22.2174 22.1679 21.2183 23.3852 20.6284 24.8095C20.0384 26.2337 19.884 27.8009 20.1848 29.3129C20.4855 30.8249 21.2279 32.2137 22.3181 33.3037C23.4082 34.3938 24.7972 35.1362 26.3092 35.4369C27.8213 35.7377 29.3886 35.5833 30.8129 34.9934C32.2373 34.4034 33.4547 33.4044 34.3112 32.1226C35.1677 30.8408 35.6249 29.3339 35.6249 27.7923C35.6223 25.7259 34.8003 23.7448 33.339 22.2836C31.8777 20.8224 29.8965 20.0004 27.8299 19.9979Z" fill="#4643EE"/>
</g>
<defs>
<clipPath id="clip0_8419_23729">
<rect width="33.6" height="33.6" fill="white" transform="translate(11 11)"/>
</clipPath>
</defs>
</svg>
