<svg width="56" height="56" viewBox="0 0 56 56" fill="none" xmlns="http://www.w3.org/2000/svg">
<rect width="56" height="56" fill="#FBFBFB"/>
<path d="M27.2737 20.3847C27.4672 20.1875 27.7337 20.0671 28.0293 20.0671C28.325 20.0671 28.5878 20.1839 28.7776 20.3773L33.4718 25.0715C33.8514 25.4511 34.4683 25.4511 34.8479 25.0715L38.582 21.3374C38.9617 20.9577 38.9617 20.3409 38.582 19.9612L30.7597 12.1279C29.2558 10.624 26.8138 10.624 25.3099 12.1279L17.4766 19.9612C17.097 20.3409 17.097 20.9577 17.4766 21.3374L21.2108 25.0715C21.5904 25.4511 22.2073 25.4511 22.5869 25.0715L27.2737 20.3847Z" fill="#FF6521"/>
<path d="M43.7031 25.0753L42.0058 23.378C41.6261 22.9984 41.0093 22.9984 40.6296 23.378L28.7774 35.2301C28.5876 35.42 28.3212 35.5404 28.0292 35.5404C27.7372 35.5404 27.4743 35.4236 27.2809 35.2338L15.4323 23.378C15.0527 22.9984 14.4358 22.9984 14.0562 23.378L12.3589 25.0753C10.855 26.5792 10.855 29.0212 12.3589 30.5251L25.3061 43.4723C26.81 44.9762 29.252 44.9762 30.7559 43.4723L43.7031 30.5251C45.207 29.0212 45.207 26.5792 43.7031 25.0753Z" fill="#202020"/>
</svg>
