<svg width="56" height="56" viewBox="0 0 56 56" fill="none" xmlns="http://www.w3.org/2000/svg">
<rect width="56" height="56" fill="url(#paint0_linear_3276_23639)"/>
<rect x="7.15819" y="19.7583" width="13.8574" height="10.3139" rx="1.10733" fill="url(#paint1_linear_3276_23639)" stroke="#A1A1A1" stroke-width="0.316379"/>
<path d="M7 23.144H21.1738" stroke="#A2A2A2" stroke-width="0.316379" stroke-linejoin="round"/>
<path d="M7 26.687H21.1738" stroke="#A2A2A2" stroke-width="0.316379" stroke-linejoin="round"/>
<path d="M13.2014 30.0092L12.2632 28.7192C11.7511 28.015 11.6741 27.0842 12.0635 26.3055V26.3055C12.501 25.4305 12.501 24.4005 12.0635 23.5254V23.5254C11.6741 22.7467 11.7511 21.8159 12.2632 21.1118L13.2014 19.8218" stroke="#A1A1A1" stroke-width="0.316379" stroke-linejoin="round"/>
<path d="M14.9734 30.0092L15.9116 28.7192C16.4237 28.015 16.5007 27.0842 16.1113 26.3055V26.3055C15.6738 25.4305 15.6738 24.4005 16.1113 23.5254V23.5254C16.5007 22.7467 16.4237 21.8159 15.9116 21.1118L14.9734 19.8218" stroke="#A1A1A1" stroke-width="0.316379" stroke-linejoin="round"/>
<path d="M31.2503 21.3875C31.1741 21.1258 30.8767 21.0067 30.6347 21.132V21.132C30.4406 21.2324 30.349 21.4585 30.4095 21.6685C30.6966 22.665 30.8563 23.761 30.8563 24.9149C30.8563 26.0687 30.6966 27.1648 30.4095 28.1613C30.349 28.3713 30.4406 28.5973 30.6347 28.6978V28.6978C30.8767 28.823 31.1741 28.7039 31.2503 28.4423C31.5682 27.3519 31.7422 26.1601 31.7422 24.9149C31.7422 23.6696 31.5682 22.4778 31.2503 21.3875Z" fill="white"/>
<path d="M28.9564 27.829C29.1914 27.9507 29.4809 27.8423 29.5618 27.5904C29.8256 26.7689 29.9705 25.863 29.9705 24.9149C29.9705 23.9667 29.8256 23.0608 29.5618 22.2394C29.4809 21.9874 29.1914 21.8791 28.9564 22.0007V22.0007C28.7556 22.1046 28.6658 22.342 28.7334 22.5577C28.9582 23.2745 29.0846 24.0716 29.0846 24.9149C29.0846 25.7582 28.9582 26.5552 28.7334 27.272C28.6658 27.4878 28.7556 27.7251 28.9564 27.829V27.829Z" fill="white"/>
<path d="M27.339 26.9918C27.5752 27.1141 27.8666 27.0045 27.9414 26.7493C28.1082 26.1804 28.1988 25.5604 28.1988 24.9149C28.1988 24.2693 28.1082 23.6493 27.9414 23.0805C27.8666 22.8252 27.5752 22.7156 27.339 22.8379V22.8379C27.139 22.9414 27.0491 23.177 27.1097 23.3938C27.2399 23.8602 27.3129 24.3733 27.3129 24.9149C27.3129 25.4565 27.2399 25.9695 27.1097 26.4359C27.0491 26.6528 27.139 26.8883 27.339 26.9918V26.9918Z" fill="white"/>
<path d="M25.7177 26.1526C25.9571 26.2765 26.2528 26.1639 26.3146 25.9015C26.388 25.5895 26.427 25.2572 26.427 24.9149C26.427 24.5725 26.388 24.2403 26.3146 23.9282C26.2528 23.6658 25.9571 23.5532 25.7177 23.6771V23.6771C25.5198 23.7796 25.4296 24.0109 25.4738 24.2294C25.5172 24.4437 25.5412 24.6738 25.5412 24.9149C25.5412 25.156 25.5172 25.386 25.4738 25.6004C25.4296 25.8188 25.5198 26.0501 25.7177 26.1526V26.1526Z" fill="white"/>
<defs>
<linearGradient id="paint0_linear_3276_23639" x1="8.34465e-07" y1="56" x2="67.5766" y2="29.3003" gradientUnits="userSpaceOnUse">
<stop stop-color="#2F2F2F"/>
<stop offset="0.28125" stop-color="#222222"/>
<stop offset="0.770833" stop-color="#434343"/>
<stop offset="1" stop-color="#616161"/>
</linearGradient>
<linearGradient id="paint1_linear_3276_23639" x1="7.6644" y1="20.7074" x2="19.845" y2="29.566" gradientUnits="userSpaceOnUse">
<stop offset="0.0928262" stop-color="#C9C9C9"/>
<stop offset="0.406123" stop-color="#B3B3B3"/>
<stop offset="0.726779" stop-color="#CCCCCC"/>
</linearGradient>
</defs>
</svg>
