<svg width="56" height="56" viewBox="0 0 56 56" fill="none" xmlns="http://www.w3.org/2000/svg">
<rect width="56" height="56" fill="#212529"/>
<g clip-path="url(#clip0_6940_23586)">
<path d="M26.4374 33.7111C27.1857 38.4244 27.6049 42.5607 27.3435 44.6H25.8315L25.6363 44.4452C23.1552 42.5614 22.5548 38.615 22.2748 34.6328C22.0438 30.8644 21.0537 17.1336 21.0435 16.9967C21.0078 16.4732 20.6453 15.4652 19.5261 15.3952H19.5152H19.5043C17.8274 15.4792 17.5505 17.9479 17.5327 18.1307C15.8511 28.3009 16.1599 32.3967 19.1045 39.0016C20.4353 41.9874 20.6321 43.9078 20.6539 44.6H19.1567C19.0773 44.0657 18.7328 42.1702 17.493 39.2333C16.0152 35.7333 14.693 32.3889 15.393 23.0556C16.093 13.7222 19.2041 14.0333 19.593 14.0333C19.9819 14.0333 22.2475 13.772 23.0152 19.0889C24.0263 26.0889 25.6597 28.8111 26.4374 33.7111ZM21.8882 34.6584C21.6572 30.8901 20.6671 17.1616 20.657 17.0239C20.6539 16.9757 20.5598 15.8572 19.5144 15.7841C18.1557 15.8642 17.9223 18.1509 17.92 18.1742L17.9184 18.1874C17.0193 23.6257 16.7463 27.0424 16.9773 29.9824C17.2005 32.8221 17.92 35.3888 19.46 38.8437C20.8227 41.9011 21.0218 43.8837 21.0435 44.5945V44.6008H25.2093C22.7671 42.5731 22.1667 38.6313 21.8882 34.6592V34.6584ZM38.2021 39.2613C36.9522 42.1632 36.5898 44.0478 36.5027 44.6008H28.5437C28.2994 42.5428 28.6751 38.3576 29.4537 33.6746C30.2672 28.78 31.7644 26.0702 32.8261 19.0772C33.6327 13.7666 35.896 14.0434 36.2849 14.0466C36.6738 14.0497 39.7872 13.7611 40.4195 23.0991C41.0519 32.4371 39.7055 35.7722 38.2029 39.2613H38.2021ZM38.3312 18.1019C38.3071 17.9199 37.9524 15.4606 36.274 15.4294H36.2631L36.2522 15.4302C35.1361 15.5352 34.8048 16.5541 34.7861 17.0713C34.776 17.2098 33.7563 30.9679 33.6443 34.7432C33.5541 37.0874 33.2173 39.084 32.6441 40.6769C32.018 42.4168 31.087 43.7359 29.8783 44.6008H30.5145C31.5902 43.6978 32.4287 42.4253 33.0104 40.8091C33.5969 39.1781 33.9414 37.1427 34.0332 34.7572C34.1452 30.9889 35.1641 17.2393 35.1742 17.0939C35.1765 17.0457 35.2349 15.9249 36.2779 15.8191C37.639 15.8564 37.9439 18.1346 37.9462 18.1579L37.9485 18.1711C38.8881 22.9148 39.1557 26.9188 38.7691 30.4118C38.3872 33.8581 37.4228 36.5103 36.4373 38.8639C35.1548 41.9276 34.8297 43.8984 34.7495 44.6015H35.1431C35.2318 43.8891 35.5685 41.9462 36.7967 39.014C37.7455 36.7483 38.7675 33.9592 39.1557 30.4546C39.5469 26.9234 39.2778 22.8829 38.332 18.1019H38.3312ZM27.643 11C27.643 12.6536 26.3021 13.9944 24.6485 13.9944V14.4611C26.3021 14.4611 27.643 15.802 27.643 17.4556H28.1097C28.1097 15.802 29.4505 14.4611 31.1041 14.4611V13.9944C29.4505 13.9944 28.1097 12.6536 28.1097 11H27.643Z" fill="white"/>
</g>
<defs>
<clipPath id="clip0_6940_23586">
<rect width="33.6" height="33.6" fill="white" transform="translate(11 11)"/>
</clipPath>
</defs>
</svg>
