<svg width="56" height="56" viewBox="0 0 56 56" fill="none" xmlns="http://www.w3.org/2000/svg">
<rect width="56" height="56" transform="translate(0 0.000244141)" fill="#FBFBFB"/>
<path d="M11.2039 30.336C11.2398 30.1976 11.2679 30.0573 11.288 29.9157C11.7523 24.3531 15.688 19.6752 21.1072 18.4101C25.5409 17.3761 29.5123 18.4101 32.8975 21.472C35.0389 23.3942 36.4494 25.9981 36.8899 28.8419C37.3445 31.525 36.9426 34.2831 35.7413 36.7248C34.54 39.1665 32.6002 41.1679 30.1974 42.4448C28.8013 43.1918 27.276 43.6668 25.7027 43.8444C25.4926 43.8696 25.2825 43.9012 25.0849 43.9306H23.2148C23.1539 43.9159 23.095 43.897 23.0362 43.8886C22.4773 43.8045 21.9099 43.7541 21.3552 43.6322C18.6639 43.0306 16.2352 41.5848 14.4235 39.5055C12.6117 37.4263 11.5116 34.8225 11.2838 32.074C11.2647 31.9322 11.2366 31.7918 11.1997 31.6537L11.2039 30.336Z" fill="#7213F5"/>
<path d="M40.5773 12.0845L40.9976 12.1728C41.971 12.3456 42.863 12.8271 43.5415 13.5462C44.22 14.2653 44.6491 15.1837 44.7652 16.1656C44.9095 17.3422 44.5964 18.5293 43.8905 19.4816C43.1847 20.4339 42.14 21.0787 40.9724 21.2827C39.8029 21.4772 38.6034 21.2149 37.6218 20.55C36.6402 19.8851 35.9516 18.8685 35.6982 17.7102C35.566 17.1161 35.5525 16.5018 35.6583 15.9024C35.7641 15.3031 35.9872 14.7305 36.3148 14.2176C36.6424 13.7047 37.0681 13.2615 37.5673 12.9135C38.0665 12.5655 38.6296 12.3195 39.2241 12.1896L39.7852 12.0698L40.5773 12.0845Z" fill="#7213F5"/>
</svg>
