<svg width="56" height="56" viewBox="0 0 56 56" fill="none" xmlns="http://www.w3.org/2000/svg">
<rect width="56" height="56" transform="translate(0 0.000305176)" fill="#212529"/>
<g clip-path="url(#clip0_3080_23533)">
<path d="M18.9985 29.5155L19.8875 22.4186L12.1768 16.7311L19.2219 19.2667L20.8858 16.5543L26.9611 12.5488L40.3527 20.3881L41.0467 32.3491L35.0807 41.1583L30.3649 41.926L32.8036 37.183V32.6168L31.0304 29.0508L29.2287 27.7829L26.4572 30.8186V34.0311L24.2942 36.1829L21.5465 36.5365L20.3296 37.2689L18.333 36.5921L17.501 33.4099L18.9985 31.1722V29.5155Z" fill="white"/>
<path d="M31.3076 16.6674C29.8387 16.3441 28.2319 16.43 28.2319 16.43C28.2319 16.43 27.7042 19.0212 24.4336 19.7031C24.4574 19.7031 28.7548 21.2639 31.3076 16.6674Z" fill="#94A6C3"/>
<path d="M32.6411 40.1776C34.4143 38.7027 35.7453 36.6722 36.3586 34.3739C36.3871 34.2881 36.6343 34.1365 36.8007 34.0203C37.0764 33.8436 37.3569 33.6971 37.4092 33.4597C37.5185 32.7828 37.5756 32.0757 37.5756 31.3685C37.5756 31.1059 37.3236 30.8381 37.0764 30.5755C36.8815 30.3987 36.6866 30.1916 36.6866 30.0451C36.4109 27.363 35.2462 24.8576 33.3875 23.0342L33.1926 23.2413C34.9942 25.0395 36.1589 27.4842 36.4109 30.0754C36.4394 30.3128 36.6581 30.5452 36.8815 30.7826C37.0764 30.9594 37.2998 31.2271 37.2998 31.3433C37.2998 32.0201 37.2428 32.697 37.1335 33.3738C37.1049 33.49 36.8577 33.6112 36.6628 33.7274C36.3871 33.8739 36.1352 34.0203 36.0829 34.2577C35.4173 36.7631 33.8914 38.9452 31.8662 40.3595C32.2275 39.5362 33.3637 36.854 33.9722 35.4953L33.8628 31.1362L30.3403 27.5145L28.3437 27.8075L26.1522 31.5807C26.1522 31.5807 27.179 32.9647 25.7338 34.5861C24.3219 36.1772 23.2096 36.5307 23.2096 36.5307L22.1827 35.9398C22.487 35.5256 23.1002 34.9093 23.5708 34.4952C24.3742 33.788 25.1776 33.7274 25.1776 32.9647C25.2109 31.3685 23.5994 31.808 23.5994 31.808L23.0146 32.3989L22.7675 34.581L21.5505 36.2024L21.4126 36.1721L19.416 35.7024C19.416 35.7024 20.6377 35.0255 20.8327 34.2577C21.0276 33.5203 20.4428 31.0756 20.4143 30.9291C20.4428 30.9594 20.999 31.4594 21.2462 32.2828C21.6883 30.9846 22.2731 29.7471 22.4394 29.6309C22.6058 29.5148 24.8496 28.2469 24.8496 28.2469L24.1033 30.3381L24.6595 30.0148L25.9905 26.5397C25.9905 26.5397 27.2931 25.8628 28.2629 25.8628C30.0075 25.8325 32.5888 23.5646 31.4241 19.4984C31.7569 19.6449 37.5233 22.7109 38.5216 28.7217C39.2679 33.3435 36.8007 37.6723 32.6411 40.1776Z" fill="#94A6C3"/>
<path d="M26.043 17.3136C26.68 16.5155 26.4328 15.3386 26.4328 15.3386L24.5741 18.2582C24.5456 18.2582 25.2349 18.2885 26.043 17.3136Z" fill="#1B314F"/>
<path d="M19.7971 33.2549L20.0205 32.0779C20.0205 32.0779 19.103 33.7853 19.0222 34.0227C18.9366 34.2904 19.0793 34.7602 19.4358 34.7298C19.7971 34.6995 20.2392 34.1389 20.2392 33.7297C20.2392 33.1993 19.7971 33.2549 19.7971 33.2549Z" fill="#1B314F"/>
<path d="M36.2682 14.5152C36.2682 14.5152 37.6563 14.5758 39.0967 14.7526C35.8498 12.0401 32.7741 11.2471 30.2784 11.2471C26.8414 11.2471 24.512 12.7523 24.3694 12.8382L25.4532 11.0097C25.4532 11.0097 21.1273 10.5652 19.6013 15.4294C19.2115 14.399 18.8549 12.8938 18.8549 12.8938C18.8549 12.8938 16.6064 14.99 17.6617 18.4651C15.0804 17.465 11.3962 16.076 11.2536 16.0507C11.0587 16.0204 11.0016 16.1113 11.0016 16.1113C11.0016 16.1113 10.9446 16.1972 11.111 16.3487C11.42 16.6063 17.2434 21.1776 18.5222 22.0615C18.2464 23.1223 18.2464 23.6223 18.5222 24.1224C18.912 24.7992 18.9358 25.1528 18.8835 25.6529C18.8264 26.1529 18.3273 30.4868 18.2179 31.0172C18.1086 31.5475 16.9439 33.4316 16.9962 33.9923C17.0532 34.5529 17.7711 36.9371 18.4128 37.2048C18.8835 37.3816 20.0481 37.7654 20.823 37.7654C21.0987 37.7654 21.3507 37.7048 21.46 37.5887C21.9307 37.1492 22.0685 37.0583 22.4013 37.0583C22.4298 37.0583 22.4583 37.0583 22.4821 37.0583C22.62 37.0583 22.7863 37.0886 22.9813 37.0886C23.4234 37.0886 24.0081 36.9977 24.4217 36.5885C25.0302 35.942 26.0855 35.058 26.4183 34.6439C26.8366 34.0832 27.0553 33.3205 26.9459 32.5527C26.8604 31.8455 27.2217 31.2243 27.64 30.608C28.1677 29.8706 29.1375 28.5472 29.1375 28.5472C31.0532 30.0726 32.2465 32.4012 32.2465 34.9924C32.2465 39.5889 28.4767 43.3015 23.8179 43.3015C23.0953 43.3015 22.406 43.2156 21.712 43.0388C23.8464 43.8318 25.6481 44.0995 27.1218 44.0995C30.2546 44.0995 31.9184 42.8923 31.9184 42.8923C31.9184 42.8923 31.3385 43.6904 30.3925 44.5996C30.421 44.5996 30.421 44.5996 30.421 44.5996C35.6074 43.8318 38.1317 39.2959 38.1317 39.2959C38.1317 39.2959 37.9368 40.7709 37.6896 41.771C44.5874 36.2602 43.4227 29.3654 43.3942 29.1331C43.4512 29.219 44.1453 30.1029 44.5018 30.5777C45.6142 18.4348 36.2682 14.5152 36.2682 14.5152ZM25.6481 33.9064C25.5388 34.0529 25.0682 34.4974 24.7354 34.8206C24.4026 35.1439 24.0414 35.4672 23.7656 35.7652C23.6563 35.8814 23.4329 35.942 23.1001 35.942C22.9908 35.942 22.8767 35.942 22.7959 35.942C22.7388 35.942 22.6865 35.942 22.6295 35.942C22.5724 35.942 22.5439 35.942 22.5201 35.942C22.4346 35.942 22.3538 35.942 22.2682 35.942C22.6865 35.351 23.9035 33.9973 24.3218 33.7043C24.821 33.3508 25.0729 32.9972 24.7639 32.381C24.4597 31.7597 23.6563 31.9112 23.6563 31.9112C23.6563 31.9112 24.1269 31.7041 24.5453 31.7041C24.0176 31.5576 23.3521 31.7041 23.0478 32.0274C22.715 32.3506 22.7721 33.5023 22.6342 34.2347C22.4964 35.0025 22.0257 35.3864 21.3032 36.0935C20.9133 36.4774 20.6376 36.5936 20.4142 36.5936C19.9436 36.5077 19.3874 36.3562 18.9976 36.2097C18.7218 35.8258 18.3035 34.558 18.1942 34.0276C18.275 33.7347 18.6077 33.1134 18.7741 32.7598C19.1069 32.0829 19.3018 31.6991 19.3588 31.3455C19.4682 30.8454 19.8295 27.7491 19.9673 26.456C20.3286 26.9561 20.8278 27.7844 20.7137 28.3148C21.5171 27.1076 20.9371 25.9256 20.6566 25.4559C20.4094 24.9861 20.0767 24.0416 20.3524 23.0414C20.6281 22.0413 21.6264 19.2683 21.6264 19.2683C21.6264 19.2683 21.9592 19.8896 22.4298 19.7683C22.9004 19.6522 26.6987 13.5807 26.6987 13.5807C26.6987 13.5807 27.7256 15.9648 26.6417 17.7075C25.5341 19.4451 24.4502 19.7683 24.4502 19.7683C24.4502 19.7683 25.9762 20.0613 27.388 18.9703C27.968 20.4149 28.5242 21.915 28.5527 22.1221C28.4672 22.3292 27.3595 25.1579 27.2502 25.3347C27.1931 25.3953 26.8081 25.5114 26.5276 25.5721C26.057 25.7185 25.7813 25.8095 25.6672 25.8953C25.4723 26.0721 24.5833 28.6633 24.1697 29.9312C23.6706 30.0776 23.1714 30.3757 22.8101 30.9616C23.005 30.8151 23.6135 30.7242 24.0604 30.6686C24.4502 30.6383 25.6386 31.3152 25.9476 32.583C25.9476 32.6133 25.9476 32.6133 25.9476 32.6436C26.0094 33.1083 25.8716 33.5528 25.6481 33.9064ZM23.0431 34.26C23.295 33.8761 23.2665 33.2295 23.295 33.0224C23.3235 32.8154 23.3758 32.4315 23.5993 32.3759C23.8227 32.3153 24.3504 32.4062 24.3504 32.8154C24.3504 33.1992 23.9605 33.2851 23.6848 33.5528C23.4852 33.7549 23.0953 34.1994 23.0431 34.26ZM34.1052 28.628C34.3809 27.1278 34.4094 25.8297 34.3286 24.7689C35.4077 26.2994 36.0733 28.1582 36.2682 30.0726C36.2967 30.31 36.5154 30.5424 36.7388 30.7798C36.9337 30.9565 37.1571 31.1939 37.1571 31.3404C37.1571 32.0173 37.1001 32.6941 36.9908 33.376C36.9622 33.4619 36.715 33.6134 36.5201 33.7296C36.2444 33.8761 35.9925 34.0226 35.9402 34.26C35.3317 36.5279 34.0244 38.5332 32.2797 39.9475C34.8563 37.0886 36.1018 32.3709 34.1052 28.628ZM32.3605 40.2102C34.1622 38.7353 35.5504 36.6744 36.1588 34.3458C36.1874 34.26 36.4346 34.1084 36.601 33.9923C36.8767 33.8458 37.1571 33.669 37.2094 33.4316C37.3188 32.7547 37.3758 32.0476 37.3758 31.3404C37.3758 31.0778 37.1239 30.8101 36.8767 30.5474C36.7388 30.3706 36.5154 30.1635 36.5154 30.017C36.292 27.8653 35.4886 25.8347 34.2431 24.1527C33.6869 20.6169 31.4716 19.5259 31.4145 19.4956C31.4716 19.5865 32.912 21.7938 31.9137 24.385C30.8869 27.0066 28.2532 26.5974 28.0298 26.6227C27.8064 26.6227 26.9507 27.7996 25.8668 29.9817C25.729 29.9211 25.1442 29.7746 24.4787 29.8958C24.9779 28.4209 25.729 26.3297 25.8668 26.1529C25.9239 26.0923 26.3375 25.9761 26.6179 25.8903C27.1456 25.7438 27.3928 25.6529 27.4784 25.5367C27.5354 25.4458 27.8111 24.7689 28.0869 24.0618C28.3388 24.0618 28.9758 24.0012 29.0281 23.9709C29.0852 23.9102 29.6128 22.4707 29.6128 22.2939C29.6128 22.1474 28.529 19.2885 28.1154 18.1974C28.3103 17.96 28.5052 17.6671 28.6953 17.3438C34.3809 17.9954 38.821 23.1223 38.821 29.3351C38.821 34.1084 36.1874 38.2655 32.3605 40.2102Z" fill="#1B314F"/>
<path d="M24.9877 24.2998C25.5154 23.6533 25.2397 22.446 24.2652 22.2389C24.5171 21.6227 24.8737 20.3852 24.8737 20.3852C24.8737 20.3852 22.0451 25.0979 21.7979 25.1888C21.546 25.2797 21.2988 24.2442 21.2988 24.2442C20.7711 26.396 22.1877 26.689 22.3541 26.0121C23.129 25.8 24.4601 24.916 24.9877 24.2998Z" fill="#1B314F"/>
<path d="M22.5674 25.4464L24.0078 22.8248C24.0078 22.8248 24.8397 23.2693 24.4214 23.9765C23.8984 24.7998 22.5674 25.4464 22.5674 25.4464Z" fill="#FFD923"/>
<path d="M40.4023 37.5891C39.984 38.1801 39.5134 38.7963 38.9619 39.3873C42.5368 32.0783 39.1283 25.3906 38.9904 25.128C39.2424 25.3957 39.4896 25.6887 39.713 25.9513C42.456 29.1891 42.7887 34.0533 40.4023 37.5891Z" fill="#D82122"/>
<path d="M43.7298 28.1889C42.4796 24.6228 40.7064 21.5871 36.7988 18.8494C33.029 16.1976 28.9787 16.4047 28.7553 16.435C28.7268 16.435 28.6982 16.435 28.6982 16.435C28.8361 16.3744 28.974 16.3441 29.1118 16.3188C29.9723 16.0258 31.0799 15.7884 32.1923 15.642C35.1349 15.1924 38.1013 16.2531 40.1264 18.5261C40.1549 18.5564 40.1549 18.5564 40.1835 18.5868C42.4843 21.178 43.6775 24.4158 43.7298 28.1889Z" fill="#D82122"/>
<path d="M35.9093 13.6013C31.7782 12.778 29.116 13.1871 27.2003 13.9549C27.1432 13.7175 26.9483 13.2477 26.7819 12.8639C26.2067 13.6013 25.5935 14.4853 25.2084 15.0459C24.153 15.8137 23.7109 16.5512 23.7109 16.5512C24.3194 14.3388 26.0974 12.6921 28.2604 12.2779C28.8689 12.1617 29.5344 12.1011 30.257 12.1011C32.168 12.1314 34.0791 12.6315 35.9093 13.6013Z" fill="#D82122"/>
<path d="M20.6309 19.2586C17.3888 19.1424 18.4679 15.1318 18.525 14.8995C18.525 14.9298 18.7436 18.0514 20.6309 19.2586Z" fill="#D82122"/>
<path d="M23.8223 12.0369C21.3266 13.628 21.8257 17.4264 21.8257 17.4264C19.4393 13.5724 23.6274 12.1278 23.8223 12.0369Z" fill="#D82122"/>
<path d="M19.7157 20.3195C19.8821 20.466 20.0485 20.7337 19.8536 21.1176C19.7442 21.3247 19.5778 21.2943 19.3259 21.1782C18.9931 21.0014 16.9965 19.7639 15.1948 18.496C17.2485 19.2638 19.3259 20.0871 19.6587 20.2639C19.6587 20.2639 19.6872 20.2942 19.7157 20.3195Z" fill="white"/>
</g>
<defs>
<clipPath id="clip0_3080_23533">
<rect width="33.6" height="33.6" fill="white" transform="translate(10.9995 11)"/>
</clipPath>
</defs>
</svg>
