<svg width="56" height="56" viewBox="0 0 56 56" fill="none" xmlns="http://www.w3.org/2000/svg">
<rect width="56" height="56" transform="translate(0 0.000244141)" fill="#2081E2"/>
<path d="M13.1992 30.1388L13.3168 29.9548L20.4064 18.9154C20.51 18.7537 20.7536 18.7705 20.832 18.946C22.0164 21.5881 23.0384 24.8741 22.5596 26.9198C22.3552 27.7614 21.7952 28.9013 21.1652 29.9548C21.084 30.1081 20.9944 30.2586 20.8992 30.4036C20.8544 30.4704 20.7788 30.5095 20.6976 30.5095H13.4064C13.2104 30.5095 13.0956 30.2977 13.1992 30.1388Z" fill="white"/>
<path d="M44.7997 32.1891V33.9366C44.7997 34.0369 44.7381 34.1261 44.6485 34.1651C44.0997 34.3992 42.2209 35.2576 41.4397 36.339C39.4461 39.101 37.9229 43.0502 34.5181 43.0502H20.3137C15.2793 43.0502 11.1997 38.9756 11.1997 33.9477V33.7861C11.1997 33.6523 11.3089 33.5436 11.4433 33.5436H19.3617C19.5185 33.5436 19.6333 33.6885 19.6193 33.8418C19.5633 34.3546 19.6585 34.8786 19.9021 35.3552C20.3725 36.3056 21.3469 36.8992 22.3997 36.8992H26.3197V33.853H22.4445C22.2457 33.853 22.1281 33.6244 22.2429 33.4628C22.2849 33.3987 22.3325 33.3318 22.3829 33.2566C22.7497 32.7382 23.2733 31.9327 23.7941 31.0158C24.1497 30.3971 24.4941 29.7365 24.7713 29.0732C24.8273 28.9534 24.8721 28.8307 24.9169 28.7109C24.9925 28.4991 25.0709 28.3012 25.1269 28.1033C25.1829 27.9361 25.2277 27.7605 25.2725 27.5961C25.4041 27.0331 25.4601 26.4367 25.4601 25.8179C25.4601 25.5755 25.4489 25.3218 25.4265 25.0794C25.4153 24.8146 25.3817 24.5498 25.3481 24.2851C25.3257 24.051 25.2837 23.8196 25.2389 23.5772C25.1829 23.2232 25.1045 22.8721 25.0149 22.5181L24.9841 22.3843C24.9169 22.1418 24.8609 21.9105 24.7825 21.6681C24.5613 20.9072 24.3065 20.1658 24.0377 19.4719C23.9397 19.1959 23.8277 18.9312 23.7157 18.6664C23.5505 18.2679 23.3825 17.9056 23.2285 17.5627C23.1501 17.4067 23.0829 17.2645 23.0157 17.1196C22.9401 16.9552 22.8617 16.7907 22.7833 16.6347C22.7273 16.5148 22.6629 16.4033 22.6181 16.2918L22.1393 15.4111C22.0721 15.2913 22.1841 15.1492 22.3157 15.1854L25.3117 15.9936H25.3201C25.3257 15.9936 25.3313 15.9964 25.3313 15.9964L25.7261 16.1051L26.1601 16.2278L26.3197 16.2723V14.4998C26.3197 13.6442 27.0085 12.9502 27.8597 12.9502C28.2853 12.9502 28.6717 13.123 28.9489 13.4045C29.2261 13.686 29.3997 14.0706 29.3997 14.4998V17.1308L29.7189 17.2199C29.7441 17.2283 29.7693 17.2394 29.7917 17.2562C29.8701 17.3147 29.9821 17.4011 30.1249 17.507C30.2369 17.5962 30.3573 17.7049 30.5029 17.8164C30.7913 18.0477 31.1357 18.3459 31.5137 18.6887C31.6145 18.7751 31.7125 18.8643 31.8021 18.9535C32.2893 19.405 32.8353 19.9345 33.3561 20.5198C33.5017 20.6842 33.6445 20.8514 33.7901 21.027C33.9357 21.2054 34.0897 21.381 34.2241 21.5566C34.4005 21.7907 34.5909 22.0331 34.7561 22.2868C34.8345 22.4066 34.9241 22.5292 34.9997 22.6491C35.2125 22.9696 35.4001 23.3013 35.5793 23.6329C35.6549 23.7862 35.7333 23.9534 35.8005 24.1178C35.9993 24.561 36.1561 25.0125 36.2569 25.464C36.2877 25.5615 36.3101 25.6674 36.3213 25.7622V25.7845C36.3549 25.9183 36.3661 26.0604 36.3773 26.2053C36.4221 26.668 36.3997 27.1306 36.2989 27.5961C36.2569 27.794 36.2009 27.9807 36.1337 28.1786C36.0665 28.3681 35.9993 28.566 35.9125 28.7527C35.7445 29.1401 35.5457 29.5275 35.3105 29.8898C35.2349 30.0236 35.1453 30.1657 35.0557 30.2995C34.9577 30.4416 34.8569 30.5754 34.7673 30.7064C34.6441 30.8736 34.5125 31.0492 34.3781 31.2053C34.2577 31.3697 34.1345 31.5342 34.0001 31.6791C33.8125 31.8993 33.6333 32.1083 33.4457 32.309C33.3337 32.4399 33.2133 32.5737 33.0901 32.6936C32.9697 32.8273 32.8465 32.9472 32.7345 33.0587C32.5469 33.2454 32.3901 33.3903 32.2585 33.5102L31.9505 33.7917C31.9057 33.8307 31.8469 33.853 31.7853 33.853H29.3997V36.8992H32.4013C33.0733 36.8992 33.7117 36.6623 34.2269 36.2275C34.4033 36.0742 35.1733 35.4109 36.0833 34.4104C36.1141 34.3769 36.1533 34.3518 36.1981 34.3407L44.4889 31.955C44.6429 31.9104 44.7997 32.0275 44.7997 32.1891Z" fill="white"/>
</svg>
