<svg width="56" height="56" viewBox="0 0 56 56" fill="none" xmlns="http://www.w3.org/2000/svg">
<rect width="56" height="56" transform="translate(0 0.000244141)" fill="url(#paint0_linear_1125_17019)"/>
<g clip-path="url(#clip0_1125_17019)">
<path fill-rule="evenodd" clip-rule="evenodd" d="M17.2645 16.4502C16.7356 13.7202 18.8513 11.2002 21.6017 11.2002C24.0347 11.2002 26.0446 13.1952 26.0446 15.6102V21.0702C26.6793 21.0702 27.314 20.9652 27.9487 20.9652C28.5834 20.9652 29.1123 20.9652 29.747 21.0702V15.6102C29.747 13.1952 31.7569 11.2002 34.1899 11.2002C36.9403 11.2002 39.0559 13.7202 38.6328 16.4502L37.4692 22.8552C41.5947 24.6402 44.7683 27.7902 44.7683 31.6752V34.0902C44.7683 37.3452 42.6526 40.0752 39.5849 41.8602C36.5171 43.7502 32.4974 44.8002 27.9487 44.8002C23.4 44.8002 19.3802 43.7502 16.3125 41.8602C13.3505 40.0752 11.2349 37.3452 11.2349 34.0902V31.6752C11.2349 27.7902 14.3026 24.6402 18.4281 22.8552L17.2645 16.4502ZM35.8824 23.6952L37.2576 16.1352C37.575 14.2452 36.1998 12.4602 34.1899 12.4602C32.4974 12.4602 31.1222 13.8252 31.1222 15.5052V22.4352C30.699 22.3302 30.1701 22.3302 29.747 22.3302C29.1123 22.3302 28.5834 22.2252 27.9487 22.2252C27.314 22.2252 26.6793 22.2252 26.0446 22.3302C25.6214 22.3302 25.0925 22.4352 24.6694 22.4352V15.6102C24.6694 13.9302 23.2942 12.5652 21.6017 12.5652C19.6975 12.5652 18.2166 14.3502 18.6397 16.2402L20.0149 23.8002C15.572 25.4802 12.61 28.4202 12.61 31.7802V34.1952C12.61 39.3402 19.486 43.5402 27.9487 43.5402C36.4114 43.5402 43.2873 39.3402 43.2873 34.1952V31.7802C43.3931 28.3152 40.4311 25.3752 35.8824 23.6952V23.6952Z" fill="#633001"/>
<path d="M43.3911 34.0903C43.3911 39.2353 36.5152 43.4353 28.0525 43.4353C19.5898 43.4353 12.7139 39.2353 12.7139 34.0903V31.6753H43.4969V34.0903H43.3911Z" fill="#FEDC90"/>
<path fill-rule="evenodd" clip-rule="evenodd" d="M18.6377 16.2402C18.2146 14.3502 19.6956 12.5652 21.5997 12.5652C23.2922 12.5652 24.6674 13.9302 24.6674 15.6102V22.5402C25.7252 22.4352 26.7831 22.3302 27.9467 22.3302C29.0045 22.3302 30.0624 22.4352 31.1202 22.5402V15.6102C31.1202 13.9302 32.4954 12.5652 34.1879 12.5652C36.092 12.5652 37.573 14.3502 37.2557 16.2402L35.8805 23.8002C40.3234 25.4802 43.3911 28.4202 43.3911 31.7802C43.3911 36.9252 36.5152 41.1252 28.0525 41.1252C19.5898 41.1252 12.7139 36.9252 12.7139 31.7802C12.7139 28.4202 15.6758 25.4802 20.1187 23.8002L18.6377 16.2402Z" fill="#D1884F"/>
<path d="M23.7156 31.0451C23.7156 32.4101 22.9752 33.5651 22.0231 33.5651C21.0711 33.5651 20.3306 32.4101 20.3306 31.0451C20.3306 29.6801 21.0711 28.5251 22.0231 28.5251C22.9752 28.5251 23.7156 29.6801 23.7156 31.0451Z" fill="#633001"/>
<path d="M35.4573 31.0451C35.4573 32.4101 34.7168 33.5651 33.7648 33.5651C32.8127 33.5651 32.0723 32.4101 32.0723 31.0451C32.0723 29.6801 32.8127 28.5251 33.7648 28.5251C34.7168 28.5251 35.4573 29.6801 35.4573 31.0451Z" fill="#633001"/>
</g>
<defs>
<linearGradient id="paint0_linear_1125_17019" x1="28" y1="0" x2="28" y2="56" gradientUnits="userSpaceOnUse">
<stop stop-color="#56DADF"/>
<stop offset="1" stop-color="#26C8D7"/>
</linearGradient>
<clipPath id="clip0_1125_17019">
<rect width="33.6" height="33.6" fill="white" transform="translate(11.1997 11.2002)"/>
</clipPath>
</defs>
</svg>
