<svg width="56" height="56" viewBox="0 0 56 56" fill="none" xmlns="http://www.w3.org/2000/svg">
<rect width="56" height="56" transform="translate(0 0.000244141)" fill="#7F77F2"/>
<path fill-rule="evenodd" clip-rule="evenodd" d="M35.4051 34.4263C35.8348 35.4406 36.2652 36.4546 36.6939 37.4694C37.1812 38.6233 37.6618 39.7801 38.1562 40.9309C38.3266 41.3276 38.3578 41.708 38.0549 42.0391C37.7602 42.3612 37.3856 42.3747 36.9875 42.2342C36.0378 41.8989 35.0827 41.579 34.1355 41.2366C33.9032 41.1526 33.8077 41.2134 33.7101 41.4268C33.2745 42.3779 32.8253 43.3228 32.3741 44.2667C32.194 44.6433 31.8777 44.7843 31.469 44.7541C31.106 44.7274 30.8822 44.5234 30.7486 44.2055C30.0444 42.5297 29.3434 40.8527 28.6404 39.1765C28.608 39.0991 28.5672 39.0253 28.5094 38.9069C28.2676 39.4772 28.0394 40.0093 27.8159 40.5435C27.3072 41.7598 26.8026 42.9778 26.2924 44.1934C26.1398 44.557 25.8746 44.7531 25.4632 44.7571C25.0495 44.7612 24.7982 44.5604 24.6299 44.2023C24.1848 43.2555 23.7287 42.3138 23.2856 41.366C23.2037 41.1908 23.1202 41.1641 22.9366 41.2292C21.9343 41.585 20.9269 41.9269 19.9194 42.2679C19.5675 42.3871 19.2305 42.3247 18.9844 42.0506C18.738 41.7762 18.6667 41.445 18.8212 41.0782C19.644 39.1256 20.4598 37.1699 21.2795 35.216C21.3194 35.1208 21.3743 35.0319 21.4221 34.9402C21.5479 34.9927 21.6658 35.0566 21.7463 35.1724C21.3409 36.1556 20.9383 37.1399 20.5293 38.1216C20.1091 39.1302 19.6815 40.1357 19.2598 41.1436C19.1679 41.3633 19.1365 41.5883 19.3234 41.7764C19.4957 41.9497 19.6946 41.8977 19.9 41.8258C20.9483 41.4584 22.0015 41.1049 23.0469 40.7297C23.314 40.6339 23.4443 40.6839 23.5648 40.9484C24.0299 41.969 24.5189 42.9787 24.9977 43.9931C25.0924 44.1935 25.2265 44.3496 25.4637 44.3461C25.6867 44.3429 25.8248 44.1995 25.9067 44.004C26.6558 42.2143 27.3966 40.4211 28.1582 38.6368C28.2769 38.3586 28.257 38.1443 28.0911 37.9138C28.0142 37.9598 28.0016 38.0263 27.9766 38.0857C27.2355 39.8482 26.4945 41.6108 25.7521 43.3728C25.7027 43.4899 25.6877 43.6559 25.5208 43.6593C25.3439 43.663 25.3122 43.491 25.2509 43.3692C24.7422 42.3578 24.231 41.3476 23.7336 40.3306C23.6446 40.1486 23.5601 40.106 23.3682 40.1731C22.8175 40.3657 22.2604 40.5398 21.7051 40.7187C21.1407 40.9005 20.5751 41.0784 20.011 41.2608C19.9168 41.2913 19.8259 41.3184 19.7501 41.2334C19.6849 41.1602 19.7044 41.0766 19.7386 40.9943C19.7675 40.9247 19.7915 40.8531 19.8206 40.7836C20.5816 38.9682 21.343 37.1529 22.1043 35.3375C22.7404 35.5049 23.392 35.488 24.0354 35.448C24.886 35.3951 25.6121 35.6661 26.3035 36.1289C26.8642 36.5041 27.4413 36.8663 28.1535 36.8812C29.1342 39.2268 30.1164 41.5719 31.0936 43.919C31.186 44.1409 31.2937 44.3384 31.5597 44.3455C31.8253 44.3527 31.9521 44.1622 32.0534 43.9463C32.506 42.9823 32.9556 42.0169 33.4187 41.058C33.6348 40.6104 33.5283 40.5818 34.1064 40.781C35.1208 41.1308 36.1359 41.4785 37.148 41.8345C37.3706 41.9128 37.5698 41.9289 37.7415 41.7419C37.9155 41.5524 37.8658 41.3537 37.7759 41.1402C36.8841 39.0226 35.9972 36.903 35.109 34.7839C35.1999 34.6582 35.2736 34.5182 35.4051 34.4263Z" fill="#FCCDD3"/>
<mask id="mask0_2199_20745" style="mask-type:alpha" maskUnits="userSpaceOnUse" x="15" y="11" width="26" height="26">
<path d="M15.3999 11.2568H40.9999V36.8899H15.3999V11.2568Z" fill="white"/>
</mask>
<g mask="url(#mask0_2199_20745)">
<path fill-rule="evenodd" clip-rule="evenodd" d="M23.9854 13.191C23.5273 13.191 23.2154 13.1784 22.9049 13.1937C22.3399 13.2217 21.8688 13.4325 21.532 13.9144C21.2714 14.2873 21.0559 14.6847 20.8515 15.0879C20.4845 15.812 19.9446 16.3528 19.2196 16.7173C18.9 16.878 18.5923 17.0627 18.2808 17.2394C17.6292 17.6088 17.3233 18.1748 17.3298 18.9188C17.3339 19.4003 17.3298 19.8819 17.3373 20.3633C17.3456 20.8966 17.2094 21.389 16.9394 21.8457C16.7234 22.2109 16.508 22.5766 16.2841 22.9369C15.8214 23.6817 15.798 24.4239 16.2773 25.1709C16.3893 25.3453 16.4797 25.5346 16.6005 25.7023C17.1693 26.4924 17.423 27.3654 17.3396 28.3398C17.3139 28.6399 17.3284 28.9438 17.331 29.2458C17.3364 29.8898 17.5587 30.4263 18.1189 30.7851C18.333 30.9222 18.545 31.0696 18.7757 31.1724C19.8093 31.633 20.5837 32.349 21.0448 33.3943C21.1395 33.609 21.2697 33.8083 21.3874 34.0125C21.7563 34.6523 22.3207 34.9473 23.049 34.947C23.549 34.9468 24.0491 34.9457 24.5491 34.9407C25.0826 34.9355 25.571 35.0882 26.0263 35.3563C26.3919 35.5716 26.7569 35.7879 27.117 36.0121C27.8361 36.46 28.5525 36.4656 29.2731 36.018C29.5454 35.8489 29.8261 35.6932 30.0944 35.518C30.7119 35.1148 31.3761 34.8963 32.1228 34.9376C32.5274 34.9599 32.934 34.946 33.3396 34.9472C34.0793 34.9494 34.6515 34.6524 35.0215 33.9987C35.198 33.6869 35.3831 33.3793 35.5436 33.0593C35.9075 32.3342 36.4407 31.7872 37.1691 31.4247C37.4978 31.261 37.8162 31.0754 38.1318 30.8871C38.6441 30.5819 38.9878 30.1601 39.0464 29.5395C39.1007 28.9642 39.0631 28.3889 39.0614 27.8138C39.0598 27.2306 39.2053 26.6964 39.5065 26.2004C39.7268 25.8377 39.942 25.472 40.1609 25.1085C40.5663 24.4353 40.5867 23.7561 40.1893 23.0732C40.0138 22.7716 39.8372 22.4704 39.6479 22.1775C39.2424 21.5504 39.0173 20.8785 39.0611 20.1206C39.0852 19.7066 39.0756 19.29 39.0698 18.8747C39.061 18.2435 38.8424 17.7181 38.2961 17.3552C37.9261 17.1092 37.5372 16.8979 37.1429 16.6964C36.4478 16.3411 35.9263 15.8185 35.5688 15.1241C35.3919 14.7806 35.1997 14.4446 35.0042 14.1112C34.7 13.5924 34.2615 13.2622 33.6496 13.2062C33.4155 13.1848 33.1788 13.1927 32.9431 13.1885C32.4343 13.1793 31.923 13.2306 31.4168 13.1615C30.7915 13.0762 30.2553 12.7601 29.7638 12.3972C28.7139 11.6218 27.6999 11.6109 26.6499 12.3935C25.821 13.0114 24.8952 13.3475 23.9854 13.191ZM21.746 35.1725C21.6654 35.0567 21.5476 34.9928 21.4218 34.9403C20.8802 34.3031 20.5505 33.5346 20.1144 32.832C19.8408 32.3911 19.4204 32.1232 18.9774 31.8816C18.5474 31.6471 18.1045 31.4342 17.711 31.1368C17.1394 30.7047 16.8451 30.1279 16.823 29.4149C16.8125 29.0753 16.796 28.7327 16.8281 28.3958C16.9136 27.497 16.6664 26.7033 16.1546 25.9714C15.9609 25.6944 15.7958 25.394 15.6465 25.09C15.3089 24.4026 15.3241 23.7089 15.6542 23.0188C15.842 22.626 16.081 22.2633 16.3129 21.8972C16.6657 21.3404 16.868 20.7497 16.8297 20.08C16.8066 19.6752 16.8242 19.2682 16.8192 18.8623C16.8079 17.9476 17.2147 17.2703 17.9888 16.806C18.2877 16.6267 18.5898 16.4504 18.9025 16.2974C19.5893 15.9614 20.0944 15.4574 20.4337 14.7697C20.6667 14.2974 20.9086 13.8271 21.2582 13.4224C21.6871 12.9258 22.2357 12.7002 22.878 12.6817C23.2079 12.6723 23.5412 12.6515 23.8678 12.6853C24.7895 12.7806 25.5944 12.5064 26.3398 11.9849C26.586 11.8128 26.8551 11.6713 27.1221 11.532C27.8438 11.1554 28.5671 11.1743 29.2922 11.534C29.6651 11.719 30.0142 11.9434 30.3623 12.1677C30.9267 12.5315 31.5322 12.718 32.2072 12.6886C32.6121 12.671 33.0183 12.6827 33.4238 12.6791C34.3397 12.671 35.0091 13.0898 35.467 13.8668C35.6536 14.1834 35.84 14.5014 36.003 14.8305C36.3209 15.4723 36.7984 15.9427 37.4369 16.262C37.8329 16.46 38.2231 16.6705 38.5889 16.9225C39.2434 17.3733 39.5727 17.9975 39.581 18.7909C39.5843 19.1024 39.6046 19.4163 39.5746 19.725C39.4862 20.6335 39.735 21.4379 40.2565 22.1752C40.4192 22.4052 40.5538 22.6565 40.6882 22.9051C41.1356 23.7328 41.0909 24.5509 40.6218 25.3546C40.3889 25.7536 40.1518 26.1502 39.9156 26.5472C39.6782 26.9465 39.5695 27.3785 39.5749 27.8422C39.5804 28.3142 39.5748 28.7864 39.5828 29.2584C39.5984 30.1738 39.1933 30.8526 38.4237 31.3211C38.0937 31.5219 37.7542 31.7081 37.4115 31.8864C36.8537 32.1765 36.3953 32.5643 36.1005 33.1317C35.8746 33.5663 35.6374 33.9951 35.405 34.4264C35.2732 34.5183 35.1995 34.6583 35.1086 34.784C34.989 34.8515 34.8978 34.9506 34.8101 35.0537C34.305 35.3928 33.7414 35.4815 33.1459 35.4609C32.7227 35.4463 32.2986 35.4578 31.8749 35.4567C31.5801 35.4558 31.2962 35.5103 31.0265 35.6288C30.1884 35.9972 29.4847 36.6259 28.5924 36.8899C28.4467 36.8483 28.2996 36.8807 28.1531 36.8813C27.441 36.8665 26.8638 36.5042 26.3032 36.129C25.6118 35.6662 24.8856 35.3952 24.035 35.4481C23.3916 35.4881 22.74 35.505 22.1039 35.3376C21.9962 35.2574 21.882 35.1913 21.746 35.1725Z" fill="#6534FF"/>
</g>
<path fill-rule="evenodd" clip-rule="evenodd" d="M31.8181 26.7355C32.0474 26.7423 32.2017 26.5525 32.1347 26.3176C31.7268 24.8883 31.313 23.4608 30.9004 22.0329C30.8368 21.8129 30.6692 21.7685 30.4768 21.8142C30.3197 21.8515 30.2782 21.9999 30.2374 22.1377C29.9728 23.0306 29.7079 23.9234 29.4427 24.8161C29.298 25.303 29.1466 25.7879 29.01 26.277C28.9538 26.4786 28.9966 26.666 29.23 26.7243C29.4333 26.775 29.5732 26.6933 29.628 26.4741C29.6804 26.2645 29.7593 26.0614 29.812 25.8519C29.8484 25.7073 29.9234 25.6556 30.0709 25.6594C30.4004 25.668 30.7304 25.6678 31.0599 25.6595C31.2153 25.6557 31.3007 25.6969 31.3336 25.8648C31.3733 26.0671 31.4435 26.2637 31.506 26.4609C31.5542 26.6126 31.6308 26.7389 31.8181 26.7355ZM24.4092 24.2813C24.3869 24.5156 24.4546 24.737 24.5641 24.9517C24.774 25.363 24.9832 25.7749 25.1824 26.1915C25.3428 26.5269 25.5853 26.7259 25.9682 26.7389C26.3713 26.7528 26.6181 26.5416 26.7836 26.199C27.0007 25.7492 27.2266 25.3037 27.4381 24.8514C27.6201 24.4622 27.6189 24.0665 27.4297 23.6778C27.1946 23.1948 26.9625 22.7102 26.7159 22.2331C26.4203 21.6615 25.599 21.6204 25.2783 22.1805C24.9793 22.7027 24.7355 23.2569 24.4755 23.8009C24.4059 23.9464 24.394 24.11 24.4092 24.2813ZM33.5786 24.1845C33.5786 24.9016 33.5814 25.6189 33.577 26.336C33.5756 26.5696 33.6583 26.7299 33.9084 26.7329C34.1937 26.7362 34.237 26.5194 34.2417 26.3022C34.2504 25.8966 34.2514 25.4905 34.2413 25.085C34.237 24.9117 34.2952 24.8555 34.4678 24.8593C34.9108 24.8691 35.3543 24.8698 35.7972 24.8602C36.3246 24.8488 36.7251 24.4529 36.7413 23.9244C36.7533 23.5285 36.7541 23.1315 36.741 22.7356C36.7232 22.1965 36.3071 21.8039 35.7693 21.8024C35.1281 21.8006 34.4867 21.81 33.8457 21.7973C33.6395 21.7932 33.5689 21.8427 33.5733 22.0613C33.5875 22.7688 33.5786 23.4767 33.5786 24.1845ZM19.8199 24.1933C19.8199 24.8916 19.8195 25.5899 19.8204 26.2882C19.8206 26.3633 19.8103 26.4449 19.8352 26.5122C19.8933 26.6691 20.0119 26.7508 20.1867 26.7347C20.4048 26.7146 20.472 26.5536 20.4781 26.3781C20.4925 25.9634 20.4952 25.5476 20.4814 25.1329C20.4746 24.927 20.5263 24.849 20.7463 24.8575C21.1794 24.8744 21.6138 24.8703 22.0474 24.8597C22.5602 24.8472 22.9618 24.4567 22.9816 23.9439C22.9972 23.5387 22.9967 23.1321 22.9819 22.7268C22.9622 22.1891 22.5443 21.8035 22.0018 21.8023C21.3606 21.8009 20.7192 21.8117 20.0783 21.7966C19.8584 21.7914 19.8119 21.8651 19.8154 22.0701C19.8272 22.7776 19.8199 23.4855 19.8199 24.1933ZM23.9848 13.1909C24.8946 13.3475 25.8204 13.0113 26.6493 12.3934C27.6992 11.6108 28.7133 11.6218 29.7631 12.3971C30.2547 12.76 30.7908 13.0761 31.4162 13.1615C31.9223 13.2305 32.4337 13.1793 32.9425 13.1884C33.1782 13.1926 33.4149 13.1847 33.649 13.2061C34.2609 13.2621 34.6994 13.5924 35.0036 14.1112C35.1991 14.4446 35.3913 14.7805 35.5682 15.124C35.9257 15.8184 36.4472 16.341 37.1423 16.6963C37.5366 16.8979 37.9255 17.1092 38.2955 17.3551C38.8418 17.7181 39.0604 18.2435 39.0691 18.8746C39.075 19.2899 39.0846 19.7065 39.0605 20.1206C39.0167 20.8784 39.2418 21.5503 39.6472 22.1774C39.8366 22.4703 40.0132 22.7716 40.1887 23.0731C40.586 23.756 40.5657 24.4352 40.1603 25.1084C39.9414 25.4719 39.7262 25.8376 39.5059 26.2003C39.2047 26.6964 39.0592 27.2305 39.0608 27.8138C39.0625 28.3888 39.1001 28.9641 39.0458 29.5395C38.9872 30.1601 38.6435 30.5817 38.1312 30.8871C37.8156 31.0753 37.4972 31.261 37.1685 31.4246C36.4401 31.7872 35.9069 32.3341 35.543 33.0593C35.3825 33.3792 35.1974 33.6868 35.0208 33.9986C34.6509 34.6523 34.0787 34.9493 33.339 34.9471C32.9334 34.946 32.5268 34.9598 32.1222 34.9375C31.3755 34.8962 30.7113 35.1147 30.0937 35.5179C29.8255 35.6931 29.5448 35.8488 29.2725 36.018C28.5518 36.4655 27.8355 36.4599 27.1164 36.012C26.7563 35.7878 26.3913 35.5715 26.0257 35.3563C25.5704 35.0882 25.082 34.9354 24.5484 34.9407C24.0485 34.9456 23.5484 34.9467 23.0484 34.9469C22.3201 34.9472 21.7557 34.6522 21.3868 34.0124C21.2691 33.8083 21.1388 33.609 21.0442 33.3943C20.5831 32.349 19.8087 31.633 18.7751 31.1723C18.5443 31.0695 18.3324 30.9221 18.1183 30.785C17.5581 30.4262 17.3358 29.8897 17.3304 29.2457C17.3278 28.9437 17.3133 28.6399 17.339 28.3398C17.4224 27.3654 17.1687 26.4924 16.5999 25.7023C16.4791 25.5345 16.3887 25.3453 16.2767 25.1708C15.7974 24.4239 15.8208 23.6817 16.2835 22.9368C16.5074 22.5765 16.7228 22.2108 16.9388 21.8456C17.2088 21.3889 17.345 20.8964 17.3367 20.3632C17.3292 19.8818 17.3333 19.4003 17.3292 18.9188C17.3227 18.1748 17.6286 17.6087 18.2802 17.2393C18.5917 17.0626 18.8994 16.8779 19.219 16.7172C19.944 16.3527 20.4839 15.8119 20.8509 15.0878C21.0553 14.6846 21.2708 14.2872 21.5314 13.9143C21.8682 13.4324 22.3392 13.2216 22.9043 13.1937C23.2148 13.1783 23.5267 13.1909 23.9848 13.1909Z" fill="#FEFEFE"/>
<path fill-rule="evenodd" clip-rule="evenodd" d="M34.8095 35.0537C35.5063 36.7213 36.2032 38.3888 36.9 40.0564C37.0198 40.3431 37.1431 40.6283 37.258 40.9169C37.2982 41.018 37.3686 41.1293 37.2732 41.2348C37.1757 41.3425 37.0646 41.2759 36.9589 41.2419C35.8664 40.8904 34.7719 40.545 33.6832 40.1819C33.4665 40.1095 33.3777 40.156 33.2797 40.3572C32.7843 41.3744 32.2721 42.3833 31.7647 43.3947C31.7109 43.5018 31.6761 43.6276 31.5149 43.6266C31.3471 43.6256 31.3258 43.4869 31.2814 43.3812C30.4023 41.29 29.5264 39.1973 28.6514 37.1043C28.623 37.0363 28.6113 36.9614 28.5918 36.8898C29.4841 36.6259 30.1877 35.9972 31.0259 35.6288C31.2955 35.5104 31.5795 35.4559 31.8742 35.4567C32.298 35.4578 32.7221 35.4464 33.1452 35.4609C33.7407 35.4816 34.3044 35.3928 34.8095 35.0537Z" fill="#FCCDD3"/>
<path fill-rule="evenodd" clip-rule="evenodd" d="M20.4585 23.3224C20.4585 23.5578 20.4629 23.7934 20.4568 24.0287C20.4533 24.1647 20.4857 24.2375 20.6436 24.2347C21.0858 24.2269 21.5283 24.2332 21.9706 24.2313C22.2119 24.2302 22.3399 24.0929 22.348 23.8638C22.3603 23.5157 22.3623 23.1666 22.3487 22.8187C22.3395 22.5812 22.2156 22.4363 21.9537 22.4395C21.5302 22.4445 21.1065 22.4464 20.6832 22.4382C20.5084 22.4348 20.4494 22.5048 20.4564 22.6726C20.4654 22.8888 20.4586 23.1057 20.4585 23.3224ZM19.8202 24.1933C19.8202 23.4855 19.8274 22.7777 19.8156 22.0701C19.8121 21.8651 19.8586 21.7914 20.0786 21.7966C20.7194 21.8118 21.3609 21.8009 22.0021 21.8024C22.5446 21.8036 22.9624 22.1892 22.9821 22.7269C22.997 23.1321 22.9974 23.5388 22.9819 23.944C22.9621 24.4568 22.5604 24.8473 22.0476 24.8598C21.6141 24.8704 21.1796 24.8745 20.7465 24.8576C20.5266 24.849 20.4748 24.9271 20.4817 25.133C20.4954 25.5476 20.4927 25.9635 20.4783 26.3782C20.4723 26.5537 20.4051 26.7147 20.1869 26.7348C20.0121 26.7508 19.8936 26.6692 19.8355 26.5123C19.8106 26.4449 19.8208 26.3634 19.8206 26.2883C19.8198 25.5899 19.8202 24.8916 19.8202 24.1933Z" fill="#6534FF"/>
<path fill-rule="evenodd" clip-rule="evenodd" d="M34.2171 23.3339C34.2171 23.5694 34.2233 23.805 34.2149 24.0402C34.2096 24.1895 34.2693 24.2365 34.4137 24.2344C34.8465 24.2279 35.2795 24.2313 35.7124 24.2321C35.9673 24.2326 36.1002 24.0959 36.1077 23.8523C36.1183 23.5041 36.1219 23.1549 36.1061 22.8072C36.0952 22.5671 35.9594 22.4345 35.7007 22.4389C35.2867 22.4459 34.8723 22.4475 34.4585 22.4377C34.2733 22.4333 34.2049 22.5005 34.2144 22.6841C34.2256 22.9002 34.217 23.1173 34.2171 23.3339ZM33.5788 24.1845C33.5788 23.4768 33.5876 22.7689 33.5734 22.0614C33.5691 21.8428 33.6396 21.7933 33.8458 21.7973C34.4868 21.81 35.1282 21.8006 35.7694 21.8024C36.3073 21.8039 36.7234 22.1965 36.7411 22.7356C36.7543 23.1315 36.7535 23.5285 36.7414 23.9245C36.7253 24.4529 36.3248 24.8488 35.7974 24.8602C35.3544 24.8698 34.9109 24.8691 34.4679 24.8593C34.2954 24.8555 34.2372 24.9117 34.2415 25.085C34.2515 25.4906 34.2506 25.8966 34.2419 26.3022C34.2372 26.5195 34.1939 26.7363 33.9085 26.7329C33.6585 26.73 33.5758 26.5697 33.5771 26.3361C33.5815 25.6189 33.5788 24.9017 33.5788 24.1845Z" fill="#6534FF"/>
<path fill-rule="evenodd" clip-rule="evenodd" d="M26.9141 24.2739C26.8958 24.1823 26.8952 24.0823 26.8561 24.0006C26.6284 23.5248 26.3984 23.0497 26.1547 22.5819C26.0486 22.3782 25.8813 22.3802 25.7743 22.5881C25.5415 23.0403 25.3234 23.5001 25.1068 23.9604C24.995 24.198 25.0248 24.4387 25.1384 24.6691C25.3425 25.0832 25.5507 25.4954 25.7566 25.9087C25.8037 26.0033 25.8515 26.1041 25.976 26.0986C26.083 26.0939 26.1311 26.0064 26.1747 25.9192C26.3897 25.4894 26.6071 25.0608 26.8221 24.631C26.8777 24.52 26.9101 24.4023 26.9141 24.2739ZM24.4091 24.2814C24.394 24.1101 24.4059 23.9465 24.4754 23.801C24.7354 23.257 24.9792 22.7028 25.2782 22.1806C25.599 21.6204 26.4202 21.6616 26.7158 22.2332C26.9624 22.7102 27.1946 23.1949 27.4296 23.6779C27.6188 24.0665 27.6201 24.4623 27.438 24.8515C27.2265 25.3037 27.0006 25.7493 26.7835 26.199C26.6181 26.5417 26.3713 26.7528 25.9682 26.739C25.5853 26.7259 25.3427 26.5269 25.1823 26.1916C24.9832 25.775 24.774 25.3631 24.5641 24.9517C24.4546 24.7371 24.3868 24.5157 24.4091 24.2814Z" fill="#6534FF"/>
<path fill-rule="evenodd" clip-rule="evenodd" d="M30.6176 23.4038C30.5933 23.4044 30.569 23.4049 30.5447 23.4054C30.458 23.6994 30.3641 23.9916 30.2867 24.288C30.2235 24.5301 29.9862 24.8548 30.1508 24.9934C30.3115 25.1285 30.6701 25.0263 30.9418 25.0322C31.0599 25.0348 31.0825 24.9953 31.0479 24.8808C30.8995 24.39 30.7602 23.8963 30.6176 23.4038ZM31.8182 26.7354C31.6308 26.739 31.5542 26.6127 31.506 26.461C31.4434 26.2638 31.3733 26.0671 31.3336 25.8649C31.3007 25.697 31.2152 25.6558 31.0599 25.6596C30.7304 25.6679 30.4004 25.6681 30.0709 25.6596C29.9234 25.6557 29.8484 25.7075 29.812 25.8519C29.7592 26.0615 29.6803 26.2645 29.6279 26.4742C29.5732 26.6934 29.4332 26.7751 29.2299 26.7243C28.9966 26.6662 28.9537 26.4788 29.01 26.2771C29.1466 25.788 29.298 25.3031 29.4427 24.8162C29.7079 23.9235 29.9728 23.0307 30.2373 22.1378C30.2782 22 30.3196 21.8516 30.4768 21.8143C30.6691 21.7686 30.8368 21.813 30.9004 22.033C31.313 23.4609 31.7267 24.8884 32.1347 26.3176C32.2017 26.5526 32.0473 26.7424 31.8182 26.7354Z" fill="#6534FF"/>
<path fill-rule="evenodd" clip-rule="evenodd" d="M20.4583 23.3222C20.4583 23.1056 20.4651 22.8887 20.4561 22.6725C20.4491 22.5047 20.5081 22.4347 20.6829 22.4381C21.1063 22.4463 21.5299 22.4444 21.9534 22.4394C22.2153 22.4362 22.3392 22.5811 22.3484 22.8186C22.3619 23.1665 22.36 23.5156 22.3477 23.8637C22.3396 24.0928 22.2117 24.2301 21.9703 24.2311C21.528 24.2331 21.0855 24.2268 20.6434 24.2346C20.4854 24.2374 20.453 24.1646 20.4565 24.0286C20.4627 23.7933 20.4583 23.5577 20.4583 23.3222Z" fill="#FEFEFE"/>
<path fill-rule="evenodd" clip-rule="evenodd" d="M34.2174 23.3339C34.2173 23.1172 34.2259 22.9002 34.2147 22.6841C34.2052 22.5004 34.2736 22.4333 34.4588 22.4377C34.8727 22.4475 35.2871 22.4459 35.701 22.4389C35.9596 22.4345 36.0955 22.5671 36.1064 22.8072C36.1223 23.1549 36.1186 23.5041 36.108 23.8522C36.1005 24.0958 35.9676 24.2326 35.7127 24.2321C35.2798 24.2313 34.8468 24.2279 34.414 24.2344C34.2696 24.2365 34.2099 24.1895 34.2152 24.0401C34.2236 23.805 34.2174 23.5693 34.2174 23.3339Z" fill="#FEFEFE"/>
<path fill-rule="evenodd" clip-rule="evenodd" d="M26.9142 24.2739C26.9102 24.4023 26.8778 24.5201 26.8222 24.6311C26.6072 25.0608 26.3898 25.4894 26.1748 25.9192C26.1312 26.0065 26.0831 26.0939 25.9761 26.0986C25.8516 26.1041 25.8039 26.0033 25.7567 25.9087C25.5508 25.4954 25.3426 25.0832 25.1385 24.6691C25.0249 24.4388 24.9951 24.198 25.1069 23.9604C25.3235 23.5001 25.5417 23.0403 25.7744 22.5882C25.8814 22.3802 26.0487 22.3782 26.1548 22.5819C26.3985 23.0497 26.6285 23.5248 26.8562 24.0007C26.8953 24.0823 26.8959 24.1824 26.9142 24.2739Z" fill="#FEFEFE"/>
<path fill-rule="evenodd" clip-rule="evenodd" d="M30.6181 23.4038C30.7608 23.8964 30.9 24.39 31.0484 24.8808C31.083 24.9954 31.0604 25.0348 30.9423 25.0322C30.6707 25.0263 30.312 25.1286 30.1514 24.9934C29.9867 24.8548 30.2241 24.5301 30.2872 24.288C30.3646 23.9916 30.4585 23.6995 30.5452 23.4055C30.5695 23.4049 30.5938 23.4044 30.6181 23.4038Z" fill="#FEFEFE"/>
</svg>
