<svg width="56" height="56" viewBox="0 0 56 56" fill="none" xmlns="http://www.w3.org/2000/svg">
<rect width="56" height="56" transform="translate(0 0.000244141)" fill="url(#paint0_linear_1125_16898)"/>
<mask id="mask0_1125_16898" style="mask-type:alpha" maskUnits="userSpaceOnUse" x="11" y="11" width="34" height="34">
<path d="M11.1997 28.2772V14.3378C11.1997 12.605 12.6333 11.2002 14.3662 11.2002C31.0209 11.2002 44.7997 24.979 44.7997 41.6337C44.7997 43.3666 43.3949 44.8002 41.6621 44.8002H27.5791C25.8463 44.8002 24.4415 43.3954 24.4415 41.6626V41.1763C24.4415 35.7852 20.0712 31.4148 14.6801 31.4148H14.3373C12.6045 31.4148 11.1997 30.0101 11.1997 28.2772Z" fill="#C4C4C4"/>
</mask>
<g mask="url(#mask0_1125_16898)">
<path d="M11.1997 28.2772V14.3378C11.1997 12.605 12.6333 11.2002 14.3662 11.2002C31.0209 11.2002 44.7997 24.979 44.7997 41.6337C44.7997 43.3666 43.3949 44.8002 41.6621 44.8002H27.5791C25.8463 44.8002 24.4415 43.3954 24.4415 41.6626V41.1763C24.4415 35.7852 20.0712 31.4148 14.6801 31.4148H14.3373C12.6045 31.4148 11.1997 30.0101 11.1997 28.2772Z" fill="url(#paint1_radial_1125_16898)"/>
<ellipse cx="13.6318" cy="42.433" rx="24.3217" ry="24.5854" fill="url(#paint2_radial_1125_16898)"/>
<ellipse cx="13.6323" cy="42.4331" rx="17.8359" ry="18.0293" fill="url(#paint3_radial_1125_16898)"/>
</g>
<defs>
<linearGradient id="paint0_linear_1125_16898" x1="28" y1="0" x2="28" y2="56" gradientUnits="userSpaceOnUse">
<stop stop-color="#174298"/>
<stop offset="1" stop-color="#001F5A"/>
</linearGradient>
<radialGradient id="paint1_radial_1125_16898" cx="0" cy="0" r="1" gradientUnits="userSpaceOnUse" gradientTransform="translate(14.893 41.6132) rotate(-50.1166) scale(31.3273 31.6081)">
<stop offset="0.764955" stop-color="#F62C00"/>
<stop offset="0.976385" stop-color="#8D54CD"/>
</radialGradient>
<radialGradient id="paint2_radial_1125_16898" cx="0" cy="0" r="1" gradientUnits="userSpaceOnUse" gradientTransform="translate(11.8302 44.5273) rotate(-46.5332) scale(26.9743 27.2191)">
<stop offset="0.82768" stop-color="#EDFC04"/>
<stop offset="1" stop-color="#FF8F14"/>
</radialGradient>
<radialGradient id="paint3_radial_1125_16898" cx="0" cy="0" r="1" gradientUnits="userSpaceOnUse" gradientTransform="translate(12.2811 43.89) rotate(-49.4177) scale(19.6628 19.8198)">
<stop offset="0.722199" stop-color="#12B1E6"/>
<stop offset="1" stop-color="#0CDC02"/>
</radialGradient>
</defs>
</svg>
