<svg width="56" height="56" viewBox="0 0 56 56" fill="none" xmlns="http://www.w3.org/2000/svg">
<rect width="56" height="56" transform="translate(0 0.000244141)" fill="#FEDA03"/>
<path d="M40.4331 27.9175C42.5499 27.369 44.4331 25.7903 44.4331 22.6157C44.433 17.3307 39.9329 16.1006 34.1663 16.1005L11.1997 16.1001L11.2001 39.9001L20.8667 39.9003L20.8665 31.823L32.3332 31.8232C34.0999 31.8232 35.1333 32.5211 35.1333 34.2497L35.1334 39.9005L44.8001 39.9007L44.8 33.9507C44.8 30.7098 42.9665 28.6654 40.4331 27.9175ZM32.4997 25.4078L20.8664 25.4076L20.8664 23.0807L32.4997 23.0809C33.7664 23.081 34.533 23.2472 34.533 24.2445C34.533 25.2416 33.7665 25.4078 32.4997 25.4078Z" fill="black"/>
</svg>
