<svg width="56" height="56" viewBox="0 0 56 56" fill="none" xmlns="http://www.w3.org/2000/svg">
<rect width="56" height="56" fill="#FBFBFB"/>
<g clip-path="url(#clip0_8419_23800)">
<path d="M45.5401 28.8571L33.0389 41.3583C32.779 41.618 32.3228 41.618 32.0629 41.3583L23.7077 33C23.3179 32.6132 23.1063 32.0965 23.1063 31.5495C23.1063 31.0026 23.3209 30.4859 23.7077 30.0991L24.0673 29.7395C24.0945 29.7093 24.1337 29.6942 24.17 29.6942C24.2093 29.6942 24.2456 29.7093 24.2728 29.7365L32.1686 37.6354C32.3742 37.8379 32.7276 37.8379 32.9332 37.6354L41.8141 28.7514C42.0226 28.5429 42.0226 28.1984 41.8141 27.9899L32.9332 19.1058C32.7276 18.9034 32.3742 18.9004 32.1717 19.1058L13.0891 38.1823C12.9411 38.3303 12.7356 38.3697 12.5422 38.2911C12.3488 38.2096 12.231 38.0312 12.231 37.8227V18.9125C12.231 18.704 12.3488 18.5257 12.5422 18.4471C12.7326 18.3655 12.9441 18.4078 13.0922 18.5559L18.2715 23.7352C18.6583 24.122 18.8728 24.6387 18.8728 25.1857C18.8728 25.7326 18.6583 26.2524 18.2715 26.6392L17.9149 26.9957C17.8636 27.0471 17.7638 27.0471 17.7094 26.9957L15.434 24.7203C15.3343 24.6206 15.2044 24.6206 15.1198 24.6568C15.0321 24.6931 14.9385 24.7838 14.9385 24.9258V31.8063C14.9385 31.9485 15.0321 32.0391 15.1198 32.0753C15.2044 32.1086 15.3343 32.1115 15.434 32.0119L32.0629 15.386C32.3107 15.1382 32.7912 15.1382 33.0389 15.386L45.5401 27.8871C45.809 28.1531 45.809 28.5912 45.5401 28.8601V28.8571Z" fill="#2D29D7"/>
</g>
<defs>
<clipPath id="clip0_8419_23800">
<rect width="33.6" height="33.6" fill="white" transform="translate(12 11)"/>
</clipPath>
</defs>
</svg>
