<svg width="56" height="56" viewBox="0 0 56 56" fill="none" xmlns="http://www.w3.org/2000/svg">
<rect width="56" height="56" fill="#FBFBFB"/>
<path d="M26.0917 17.1008L30.0543 14.0231L21.1613 15.9899L26.0917 17.1008ZM29.1596 17.7928L30.6569 14.7515L27.2969 17.374L29.1596 17.7928ZM31.5335 18.321V15.1704L30.1456 18.0114L31.5335 18.321ZM34.3639 18.9402L32.5013 15.1704V18.5395L34.3639 18.9402ZM23.6265 19.013L25.1239 17.8475L20.9422 16.9187L23.6265 19.013ZM40.5178 20.3242L33.3778 14.7515L35.5691 19.2133L40.5178 20.3242ZM21.7274 20.5063L22.8413 19.6322L20.3213 17.6654L21.7274 20.5063ZM27.1874 21.7994L28.7396 18.667L26.3291 18.1389L24.4117 19.6322C24.4117 19.6322 27.1874 21.7994 27.1874 21.7994ZM36.9569 21.9997L40.2987 21.253L36.1169 20.3242C36.1169 20.3242 36.9569 21.9997 36.9569 21.9997ZM19.4448 22.2728L20.9422 21.1073L19.4448 18.0842V22.2728ZM32.5013 23.0013L35.9709 22.2364L34.8935 20.0693L32.5013 19.5411C32.5013 19.5047 32.5013 23.0013 32.5013 23.0013ZM29.5613 23.6569L31.5335 23.2198V19.3044L29.7074 18.8855L27.9726 22.4185C27.9726 22.4185 29.5613 23.6569 29.5613 23.6569ZM37.9978 24.1486L40.5178 22.1818L37.3769 22.8738L37.9978 24.1486ZM27.0778 24.2032L28.3378 23.9301L27.5343 23.2927L27.0778 24.2032ZM23.9004 24.9135L25.8726 24.4764L26.7491 22.6917L23.6265 20.2514L22.1656 21.3987L23.9004 24.9135ZM31.5335 25.1867V24.185L30.5291 24.4036L31.5335 25.1867ZM19.4448 25.9151L22.9143 25.1502L21.3622 22.0179L19.4448 23.5112C19.4448 23.493 19.4448 25.9151 19.4448 25.9151ZM14.5143 26.1337L18.4769 23.0377V18.0842L14.5143 26.1337ZM24.7769 26.6982L25.343 25.5691L24.3387 25.7876L24.7769 26.6982ZM39.2578 26.6982L41.1204 22.9285L38.4361 25.0228L39.2578 26.6982ZM15.1169 26.8803L18.4769 26.1337V24.2761C18.4769 24.2579 15.1169 26.8803 15.1169 26.8803ZM34.09 27.1899L37.2126 24.7496L36.3909 23.0924L32.483 23.9665V25.9515C32.5013 25.9515 34.09 27.1899 34.09 27.1899ZM32.5013 28.4283L33.3048 27.7909L32.5013 27.1535V28.4283ZM18.4769 28.5011V27.0989L15.3361 27.7909L18.4769 28.5011ZM23.3526 29.5938L24.2291 27.8091L23.3526 26.0244L19.4448 26.8803V28.7197L23.3526 29.5938ZM37.6509 29.9763L38.7283 27.8091L37.6691 25.642L34.8935 27.8091L37.6509 29.9763ZM25.3248 30.0309L24.7769 28.9018L24.3387 29.8124C24.3204 29.8124 25.3248 30.0309 25.3248 30.0309ZM29.3056 30.9233L31.5335 29.1932V26.4068L29.3239 24.6767L26.5483 25.2959L25.3065 27.7909L26.53 30.2859L29.3056 30.9233ZM18.4769 31.3421V29.4846L15.1352 28.7379L18.4769 31.3421ZM31.5335 31.415V30.4133L30.5291 31.1964L31.5335 31.415ZM41.9969 32.2709V23.3473L39.8056 27.8091L41.9969 32.2709ZM27.5343 32.3073L28.3378 31.6699L27.0778 31.3967L27.5343 32.3073ZM36.4091 32.5076L37.2309 30.8504L34.1083 28.4101L32.5196 29.6485V31.6335C32.5013 31.6335 36.4091 32.5076 36.4091 32.5076ZM41.1204 32.6898L39.2578 28.9018L38.4361 30.5772L41.1204 32.6898ZM40.5178 33.4364L37.9978 31.4696L37.3769 32.7262L40.5178 33.4364ZM21.3804 33.6185L22.9326 30.4862L19.463 29.7031V32.107C19.4448 32.107 21.3804 33.6185 21.3804 33.6185ZM36.1169 35.294L40.2987 34.3652L36.9387 33.6185C36.9569 33.6185 36.1169 35.294 36.1169 35.294ZM23.6265 35.3668L26.7491 32.9265L25.8726 31.1418L23.9004 30.6865L22.1656 34.2195L23.6265 35.3668ZM32.5013 36.0953L34.9117 35.5672L35.9891 33.4L32.5196 32.6169L32.5013 36.0953ZM29.7074 36.7327L31.5335 36.332V32.4166L29.5613 31.9795L27.9726 33.2179L29.7074 36.7327ZM26.3291 37.4794L28.7213 36.9512L27.1874 33.8007L24.4117 35.9678C24.3935 35.9678 26.3291 37.4794 26.3291 37.4794ZM18.4769 37.5158V32.5623L14.5143 29.4663L18.4769 37.5158ZM19.4448 37.5158L20.9422 34.4927L19.4448 33.3272V37.5158ZM20.3213 37.9346L22.8413 35.9678L21.7274 35.0937C21.7274 35.1119 20.3213 37.9346 20.3213 37.9346ZM20.9422 38.6813L25.1239 37.7525L23.6265 36.587L20.9422 38.6813ZM31.5335 40.4478V37.2972L30.1456 37.6068C30.1274 37.6068 31.5335 40.4478 31.5335 40.4478ZM32.5013 40.4478L34.3639 36.6598L32.5013 37.0787V40.4478ZM30.6569 40.8485L29.1596 37.8254L27.2969 38.2442L30.6569 40.8485ZM33.3778 40.8485L40.5178 35.2758L35.5874 36.3867L33.3778 40.8485ZM30.0361 41.5951L26.0735 38.4992L21.143 39.5919L30.0361 41.5951ZM32.0083 44.6C31.3509 44.6 30.7483 44.3086 30.3465 43.8169C30.0543 43.4527 29.89 42.9974 29.89 42.5421L20.8509 40.5206C20.7048 40.7938 20.5222 41.0306 20.2665 41.2309C19.883 41.5223 19.4265 41.6862 18.9517 41.6862C18.2943 41.6862 17.6917 41.3948 17.29 40.9031C16.943 40.466 16.7787 39.9197 16.8335 39.3733C16.8883 38.827 17.1622 38.3353 17.6004 37.9893L13.583 29.8124C13.4369 29.8488 13.2726 29.867 13.1265 29.867C12.4691 29.867 11.8848 29.5756 11.4648 29.0839C10.7343 28.1915 10.8804 26.8803 11.7935 26.1701C12.1769 25.8787 12.6335 25.7148 13.1083 25.7148C13.2543 25.7148 13.4187 25.733 13.5648 25.7694L17.6369 17.5925C17.5091 17.5015 17.3996 17.3922 17.3083 17.2829C16.9613 16.8459 16.7969 16.3177 16.87 15.7532C16.9248 15.2068 17.2169 14.7151 17.6552 14.3691C18.0387 14.0777 18.4952 13.9138 18.97 13.9138C19.6274 13.9138 20.23 14.2052 20.6317 14.6969C20.723 14.8062 20.8143 14.9337 20.8691 15.0793L29.9083 13.0579C29.9083 12.4205 30.2004 11.8559 30.6935 11.4553C31.0769 11.1639 31.5335 11 32.0083 11C32.6656 11 33.2683 11.2914 33.67 11.7831C34.1813 12.4023 34.2726 13.24 33.9256 13.9502L41.1752 19.614C41.5587 19.3226 41.9969 19.1769 42.4717 19.1769C43.1291 19.1769 43.7317 19.4683 44.1335 19.96C44.8639 20.8524 44.7178 22.1636 43.8048 22.8738C43.5674 23.0741 43.2752 23.2016 42.9648 23.2745V32.3437C43.4213 32.453 43.8413 32.708 44.1335 33.0722C44.4804 33.5093 44.6448 34.0374 44.59 34.602C44.5352 35.1483 44.243 35.64 43.8048 35.986C43.4213 36.2774 42.9648 36.4413 42.49 36.4413C42.0152 36.4413 41.5587 36.2774 41.1752 36.0042L33.9256 41.668C34.3456 42.5239 34.09 43.5802 33.323 44.1629C32.9578 44.4543 32.5013 44.6 32.0083 44.6Z" fill="#2EA836"/>
</svg>
