<svg width="56" height="56" viewBox="0 0 56 56" fill="none" xmlns="http://www.w3.org/2000/svg">
<rect width="56" height="56" transform="translate(0 0.000244141)" fill="url(#paint0_linear_1125_17190)"/>
<g clip-path="url(#clip0_1125_17190)">
<path d="M18.1998 14.4202L44.2398 32.2002L37.7998 41.7202L11.7598 23.8002L18.1998 14.4202Z" fill="url(#paint1_linear_1125_17190)"/>
<path d="M44.2397 32.2001C41.9997 35.4201 34.4397 34.1601 27.2997 29.1201C20.0197 24.2201 16.0997 17.6401 18.1997 14.4201C20.4397 11.2001 27.9997 12.4601 35.1397 17.5001C42.4197 22.2601 46.3397 28.9801 44.2397 32.2001Z" fill="url(#paint2_linear_1125_17190)"/>
<path d="M37.8 41.5801C35.56 44.8001 28 43.5401 20.86 38.5001C13.72 33.4601 9.65999 27.0201 11.9 23.6601C14.14 20.4401 21.7 21.7001 28.84 26.7401C35.98 31.7801 39.9 38.3601 37.8 41.5801Z" fill="url(#paint3_linear_1125_17190)"/>
<path d="M44.2399 32.2002L37.7999 41.7201C35.5599 44.9401 27.9999 43.5402 20.8599 38.6402C19.4599 37.6602 18.1999 36.6802 16.9399 35.5601C17.9199 35.4201 19.1799 34.8601 20.4399 33.4601C22.6799 31.0801 23.7999 30.5201 24.7799 30.6601C25.7599 30.6601 26.8799 31.6401 28.6999 34.0201C30.5199 36.4001 33.0399 37.1002 34.5799 35.8402C34.7199 35.7002 34.8599 35.7001 34.9999 35.5601C36.2599 34.5801 36.6799 34.1602 39.0599 29.6801C39.6199 28.5601 41.5799 26.7401 44.2399 27.5801C44.9399 29.4001 44.9399 30.9402 44.2399 32.2002Z" fill="#0E0F23"/>
<path fill-rule="evenodd" clip-rule="evenodd" d="M43.2596 31.6402C41.2996 34.4402 34.4396 33.0402 27.8596 28.4202C21.1396 23.8002 17.2196 17.9202 19.1796 15.1202C21.1396 12.3202 27.9996 13.7202 34.5796 18.3402C41.1596 22.9602 45.0796 28.8402 43.2596 31.6402ZM37.0996 27.4402C36.1196 28.8402 32.7596 28.1402 29.3996 25.9002C26.1796 23.6602 24.2196 20.7202 25.1996 19.3202C26.1796 17.9202 29.5396 18.6202 32.8996 20.8602C36.1196 23.1002 38.0796 26.0402 37.0996 27.4402Z" fill="white"/>
<path d="M17.6396 17.6404C17.6396 17.5004 17.4996 17.3604 17.3596 17.5004C17.2196 17.6404 17.0796 17.6404 17.0796 17.7804C17.2196 18.2004 17.3596 18.4804 17.3596 18.7604C17.3596 18.9004 17.4996 19.0404 17.6396 18.9004C17.7796 18.9004 17.9196 18.7604 17.7796 18.6204C17.7796 18.3404 17.7796 18.0604 17.6396 17.6404Z" fill="white"/>
<path d="M18.3394 19.8801C18.3394 19.7401 18.1994 19.6001 18.0594 19.7401C17.9194 19.8801 17.9194 19.8801 17.9194 20.0201C19.4594 23.5201 22.6794 27.3001 26.8794 30.1001C27.0194 30.2401 27.1594 30.1001 27.2994 30.1001C27.4394 29.9601 27.2994 29.8201 27.2994 29.6801C22.9594 26.8801 19.8794 23.2401 18.3394 19.8801Z" fill="white"/>
<path d="M35.2795 33.6001C35.1395 33.6001 34.9995 33.6001 34.9995 33.7401C34.9995 33.8801 34.9995 34.0201 35.1395 34.0201C35.5595 34.1601 36.1195 34.3001 36.5395 34.4401C36.6795 34.4401 36.8195 34.4401 36.8195 34.3001C36.8195 34.1601 36.8195 34.0201 36.6795 34.0201C36.2595 33.8801 35.6995 33.7401 35.2795 33.6001Z" fill="white"/>
<path d="M37.8 34.1602C37.66 34.1602 37.52 34.3002 37.52 34.4402C37.52 34.5802 37.66 34.7202 37.8 34.7202C38.92 34.8602 40.18 35.0002 41.16 34.8602C41.3 34.8602 41.44 34.7202 41.44 34.5802C41.44 34.4402 41.3 34.3002 41.16 34.3002C40.04 34.4402 38.92 34.3002 37.8 34.1602Z" fill="white"/>
</g>
<defs>
<linearGradient id="paint0_linear_1125_17190" x1="1.14091e-06" y1="2.94737" x2="48.8484" y2="58.6346" gradientUnits="userSpaceOnUse">
<stop stop-color="#5E4376"/>
<stop offset="1" stop-color="#585F9B"/>
</linearGradient>
<linearGradient id="paint1_linear_1125_17190" x1="23.3016" y1="11.8922" x2="28.4657" y2="29.6249" gradientUnits="userSpaceOnUse">
<stop stop-color="#03B8FF"/>
<stop offset="1" stop-color="#FA52A0"/>
</linearGradient>
<linearGradient id="paint2_linear_1125_17190" x1="27.5542" y1="10.6536" x2="32.7184" y2="28.3864" gradientUnits="userSpaceOnUse">
<stop stop-color="#03B8FF"/>
<stop offset="1" stop-color="#FA52A0"/>
</linearGradient>
<linearGradient id="paint3_linear_1125_17190" x1="19.0624" y1="13.1266" x2="24.2266" y2="30.8595" gradientUnits="userSpaceOnUse">
<stop stop-color="#03B8FF"/>
<stop offset="1" stop-color="#FA52A0"/>
</linearGradient>
<clipPath id="clip0_1125_17190">
<rect width="33.6" height="33.6" fill="white" transform="translate(11.1997 11.2002)"/>
</clipPath>
</defs>
</svg>
