<svg width="56" height="56" viewBox="0 0 56 56" fill="none" xmlns="http://www.w3.org/2000/svg">
<rect width="56" height="56" fill="url(#paint0_linear_6925_23634)"/>
<g clip-path="url(#clip0_6925_23634)">
<path d="M43.9753 26.0357L36.5911 18.6274L36.567 18.6033C36.5187 18.555 36.4946 18.5309 36.4464 18.4826C36.4222 18.4585 36.3981 18.4585 36.374 18.4344C36.3498 18.4102 36.3016 18.3861 36.2774 18.362C36.2533 18.3378 36.2292 18.3378 36.205 18.3137C36.1809 18.2896 36.1327 18.2654 36.1085 18.2654C36.0844 18.2413 36.0603 18.2413 36.0361 18.2172C36.012 18.193 35.9637 18.1931 35.9396 18.1689C35.9155 18.1689 35.8913 18.1448 35.8672 18.1448C35.8189 18.1207 35.7948 18.1207 35.7466 18.0965C35.7224 18.0965 35.6983 18.0724 35.6742 18.0724C35.6259 18.0724 35.6018 18.0483 35.5535 18.0483C35.5294 18.0483 35.5052 18.0483 35.457 18.0241C35.4087 18.0241 35.3846 18 35.3363 18C35.2881 18 35.2398 18 35.1915 18C35.1674 18 35.1433 18 35.1191 18C35.095 18 35.095 18 35.0709 18C35.0226 18 34.9744 18 34.9261 18C34.902 18 34.8537 18 34.8296 18.0241C34.8054 18.0241 34.7572 18.0241 34.733 18.0483C34.6848 18.0483 34.6606 18.0724 34.6365 18.0724C34.6124 18.0724 34.5641 18.0965 34.54 18.0965C34.5159 18.0965 34.4676 18.1207 34.4435 18.1207C34.4193 18.1207 34.3711 18.1448 34.3469 18.1448C34.3228 18.1689 34.2987 18.1689 34.2504 18.1931C34.2263 18.2172 34.178 18.2172 34.1539 18.2413C34.1298 18.2654 34.1056 18.2654 34.0815 18.2896C34.0574 18.3137 34.0091 18.3378 33.985 18.362C33.9608 18.3861 33.9367 18.4102 33.9126 18.4102C33.8884 18.4344 33.8643 18.4585 33.8161 18.4826C33.7678 18.5068 33.7437 18.555 33.6954 18.6033L33.6713 18.6274L22.4985 29.8002V20.1236C22.4985 18.9653 21.5574 18 20.375 18C19.2167 18 18.2514 18.9411 18.2514 20.1236V29.8726L14.6076 26.2287C13.7872 25.4083 12.4358 25.4083 11.6153 26.2287C10.7949 27.0492 10.7949 28.4005 11.6153 29.221L18.8306 36.4362C19.2408 36.8465 19.7958 37.0637 20.3267 37.0637H20.3508H20.375C21.0748 37.0637 21.7022 36.7258 22.0883 36.1708L33.0439 25.2152V34.9401C33.0439 36.0984 33.985 37.0637 35.1674 37.0637C36.3257 37.0637 37.2909 36.1225 37.2909 34.9401V25.2152L41.0554 28.9797C41.8759 29.8002 43.2272 29.8002 44.0477 28.9797C44.7958 28.1834 44.7958 26.8562 43.9753 26.0357Z" fill="white"/>
</g>
<defs>
<linearGradient id="paint0_linear_6925_23634" x1="0" y1="0" x2="56" y2="56" gradientUnits="userSpaceOnUse">
<stop stop-color="#348BED"/>
<stop offset="1" stop-color="#1155CB"/>
</linearGradient>
<clipPath id="clip0_6925_23634">
<rect width="33.6" height="33.6" fill="white" transform="translate(11 11)"/>
</clipPath>
</defs>
</svg>
