<svg width="56" height="56" viewBox="0 0 56 56" fill="none" xmlns="http://www.w3.org/2000/svg">
<rect width="56" height="56" transform="translate(0 0.000244141)" fill="#2962EF"/>
<g clip-path="url(#clip0_1125_16764)">
<path d="M32.6789 17.5492H31.4172C27.4453 17.5492 23.4733 17.5182 19.5014 17.5492C19.1545 17.5653 18.8083 17.5054 18.486 17.3737C18.1636 17.2421 17.8725 17.0415 17.6322 16.7856C16.1603 15.3109 15.2469 14.2219 13.7562 12.7664C13.4945 12.511 12.2552 11.2044 12.2552 11.2044L13.7467 11.2043C13.7467 11.2043 33.2046 11.2043 42.9335 11.2043C43.59 11.2043 44.3353 11.1065 44.6718 11.8677C44.9872 12.5596 44.6718 13.1729 44.2746 13.748C42.069 16.9264 39.8798 20.1144 37.6531 23.2737C37.4382 23.5815 37.361 23.7907 37.0222 23.7955C34.4942 23.8337 28.7665 23.7955 28.7665 23.7955L32.805 17.8355L32.6789 17.5492Z" fill="white"/>
<path d="M27.5524 32.1978C27.5524 32.1978 24.5574 36.2528 23.0948 38.4123H24.6205C28.4335 38.4123 32.2443 38.4266 36.0573 38.398C36.3835 38.3821 36.7095 38.4335 37.0158 38.5491C37.322 38.6647 37.6024 38.8422 37.84 39.0709C39.4755 40.5933 41.1601 42.0704 42.819 43.5737C43.0946 43.8123 44.0637 44.8002 44.0637 44.8002L42.583 44.8002C42.583 44.8002 22.7451 44.8002 12.8262 44.8002C11.3729 44.8002 10.7771 43.6548 11.5201 42.2493C11.8991 41.5983 12.3173 40.9719 12.7724 40.3738C14.5061 37.8802 16.2537 35.3986 17.9686 32.8907C18.3121 32.3919 18.6705 32.1954 19.2967 32.1978C21.6331 32.2169 26.306 32.1978 26.306 32.1978H27.5524Z" fill="white"/>
</g>
<defs>
<clipPath id="clip0_1125_16764">
<rect width="33.6" height="33.6" fill="white" transform="translate(11.1997 11.2002)"/>
</clipPath>
</defs>
</svg>
