<svg width="24" height="24" viewBox="0 0 24 24" fill="none" xmlns="http://www.w3.org/2000/svg">
<path d="M9 21.8399C9.48 21.8399 10.176 21.6239 10.632 21.4319C11.256 21.1919 11.88 21.0479 12.432 21.0479C12.936 21.0479 13.512 21.1919 14.184 21.4319C14.808 21.6959 15.336 21.8399 15.792 21.8399C16.416 21.8399 16.992 21.5519 17.544 21.0479C17.88 20.7839 18.336 20.2079 18.888 19.4159C19.296 18.8639 19.656 18.2159 19.968 17.5199L20.304 16.6079C18.768 15.9599 17.616 14.4959 17.616 12.5999C17.568 10.9679 18.312 9.69591 19.8 8.80791C18.936 7.60791 17.712 6.95991 16.08 6.83991C15.432 6.79191 14.688 6.93591 13.824 7.24791C12.888 7.58391 12.312 7.75191 12.144 7.75191C11.952 7.75191 11.424 7.60791 10.68 7.29591C9.864 7.03191 9.264 6.88791 8.784 6.88791C7.92 6.91191 7.128 7.10391 6.384 7.55991C5.616 7.99191 5.04 8.59191 4.584 9.38391C4.008 10.3199 3.696 11.4719 3.696 12.7919C3.696 13.9199 3.912 15.1199 4.368 16.3679C4.752 17.4959 5.256 18.4799 5.856 19.3439C6.456 20.1839 6.912 20.7359 7.296 21.0479C7.848 21.5759 8.424 21.8399 9 21.8399ZM12.024 6.45591C12.024 6.57591 12.024 6.69591 12.048 6.81591C14.136 7.00791 16.152 4.72791 16.152 2.54391V2.15991C15.648 2.18391 15.096 2.32791 14.544 2.61591C13.008 3.38391 12.024 4.91991 12.024 6.45591Z" fill="black"/>
</svg>
