<svg width="24" height="24" viewBox="0 0 24 24" fill="none" xmlns="http://www.w3.org/2000/svg">
<path d="M3.21582 19.3919L7.94382 22.1519L11.9998 19.7999L16.0558 22.1519L20.7838 19.3919V13.9679L17.4238 11.9999L20.7838 10.0319V4.6079L16.0558 1.8479L11.9998 4.1999L7.94382 1.8479L3.21582 4.6079V10.0319L6.57582 11.9999L3.21582 13.9679V19.3919ZM4.55982 18.6239V15.3839L7.39182 16.9919V20.2559L4.55982 18.6239ZM4.55982 9.2639V6.0239L7.39182 7.6319V10.8959L4.55982 9.2639ZM5.11182 14.4239L8.06382 12.7199L10.8958 14.3519L7.94382 16.0559L5.11182 14.4239ZM5.11182 5.0639L7.94382 3.4319L10.7758 5.0639L7.94382 6.6959L5.11182 5.0639ZM8.49582 20.2559V16.9919L11.4478 15.3119V18.5279L8.49582 20.2559ZM8.49582 11.0399V7.6319L11.4478 5.9519V9.3359L8.49582 11.0399ZM9.04782 11.9999L11.9998 10.2719L14.9518 11.9999L11.9998 13.7279L9.04782 11.9999ZM12.5518 18.5279V15.3119L15.5038 16.9919V20.2559L12.5518 18.5279ZM12.5518 9.3359V5.9519L15.5038 7.6319V11.0399L12.5518 9.3359ZM13.1038 14.3519L15.9358 12.7199L18.8878 14.4239L16.0558 16.0559L13.1038 14.3519ZM13.2238 5.0639L16.0558 3.4319L18.8878 5.0639L16.0558 6.6959L13.2238 5.0639ZM16.6078 20.2559V16.9919L19.4398 15.3839V18.6239L16.6078 20.2559ZM16.6078 10.8959V7.6319L19.4398 6.0239V9.2639L16.6078 10.8959Z" fill="black"/>
</svg>
