<svg width="24" height="24" viewBox="0 0 24 24" fill="none" xmlns="http://www.w3.org/2000/svg">
<path d="M3.21594 19.3919L7.94394 22.1519L11.9999 19.7999L16.0559 22.1519L20.7839 19.3919V13.9679L17.4239 11.9999L20.7839 10.0319V4.6079L16.0559 1.8479L11.9999 4.1999L7.94394 1.8479L3.21594 4.6079V10.0319L6.57594 11.9999L3.21594 13.9679V19.3919ZM4.55994 18.6239V15.3839L7.39194 16.9919V20.2559L4.55994 18.6239ZM4.55994 9.2639V6.0239L7.39194 7.6319V10.8959L4.55994 9.2639ZM5.11194 14.4239L8.06394 12.7199L10.8959 14.3519L7.94394 16.0559L5.11194 14.4239ZM5.11194 5.0639L7.94394 3.4319L10.7759 5.0639L7.94394 6.6959L5.11194 5.0639ZM8.49594 20.2559V16.9919L11.4479 15.3119V18.5279L8.49594 20.2559ZM8.49594 11.0399V7.6319L11.4479 5.9519V9.3359L8.49594 11.0399ZM9.04794 11.9999L11.9999 10.2719L14.9519 11.9999L11.9999 13.7279L9.04794 11.9999ZM12.5519 18.5279V15.3119L15.5039 16.9919V20.2559L12.5519 18.5279ZM12.5519 9.3359V5.9519L15.5039 7.6319V11.0399L12.5519 9.3359ZM13.1039 14.3519L15.9359 12.7199L18.8879 14.4239L16.0559 16.0559L13.1039 14.3519ZM13.2239 5.0639L16.0559 3.4319L18.8879 5.0639L16.0559 6.6959L13.2239 5.0639ZM16.6079 20.2559V16.9919L19.4399 15.3839V18.6239L16.6079 20.2559ZM16.6079 10.8959V7.6319L19.4399 6.0239V9.2639L16.6079 10.8959Z" fill="black"/>
</svg>
