<svg width="24" height="24" viewBox="0 0 24 24" fill="none" xmlns="http://www.w3.org/2000/svg">
<path d="M12 22.3199C17.424 22.3199 19.896 19.1279 19.944 11.9999C19.896 4.87193 17.424 1.67993 12 1.67993C6.57603 1.67993 4.10403 4.87193 4.05603 11.9999C4.10403 19.1279 6.57603 22.3199 12 22.3199ZM7.53603 15.7679L11.28 11.9999L7.53603 8.23193L8.54403 7.22393L11.52 10.2959V3.09593L16.728 8.47193L13.2 11.9999L16.728 15.5279L11.52 20.9039V13.7039L8.54403 16.7759L7.53603 15.7679ZM12.936 17.3519L14.688 15.5279L12.936 13.7039V17.3519ZM12.936 10.2959L14.688 8.47193L12.936 6.64793V10.2959Z" fill="black"/>
</svg>
