<svg width="24" height="24" viewBox="0 0 24 24" fill="none" xmlns="http://www.w3.org/2000/svg">
<path d="M2.64005 12H4.12805V6.83995H19.7281C19.2241 7.29595 18.7441 7.75195 18.2641 8.20795L17.0161 9.47995L17.9761 10.464L22.3201 6.09595L17.9761 1.75195L17.0161 2.73595L18.2641 3.98395C18.7201 4.43995 19.2001 4.89595 19.6801 5.35195H2.64005V12ZM1.68005 17.904L6.02405 22.248L6.98405 21.264L5.73605 19.992C5.28005 19.56 4.80005 19.08 4.32005 18.648H21.3601V12H19.8721V17.16H4.29605C4.77605 16.704 5.28005 16.248 5.73605 15.792L6.98405 14.496L6.02405 13.536L1.68005 17.904Z" fill="black"/>
</svg>
