<svg width="24" height="24" viewBox="0 0 24 24" fill="none" xmlns="http://www.w3.org/2000/svg">
<path d="M2.64018 12H4.12818V6.83995H19.7282C19.2242 7.29595 18.7442 7.75195 18.2642 8.20795L17.0162 9.47995L17.9762 10.464L22.3202 6.09595L17.9762 1.75195L17.0162 2.73595L18.2642 3.98395C18.7202 4.43995 19.2002 4.89595 19.6802 5.35195H2.64018V12ZM1.68018 17.904L6.02418 22.248L6.98418 21.264L5.73618 19.992C5.28018 19.56 4.80018 19.08 4.32018 18.648H21.3602V12H19.8722V17.16H4.29618C4.77618 16.704 5.28018 16.248 5.73618 15.792L6.98418 14.496L6.02418 13.536L1.68018 17.904Z" fill="black"/>
</svg>
