<svg width="24" height="24" viewBox="0 0 24 24" fill="none" xmlns="http://www.w3.org/2000/svg">
<path d="M11.9998 21.24C17.1838 21.24 21.2398 17.04 21.2398 12C21.2398 6.84001 17.1598 2.76001 11.9998 2.76001C6.83977 2.76001 2.75977 6.84001 2.75977 12C2.75977 17.16 6.83977 21.24 11.9998 21.24ZM4.31977 12C4.31977 7.68001 7.70377 4.32001 11.9998 4.32001C16.3198 4.32001 19.6798 7.68001 19.6798 12C19.6798 16.176 16.3198 19.68 11.9998 19.68C7.70377 19.68 4.31977 16.296 4.31977 12ZM8.27977 13.416C8.25577 15.264 9.55177 16.584 11.4478 16.8V17.976H12.5758V16.8C14.3998 16.584 15.6958 15.408 15.6958 13.848C15.6958 12.408 14.6638 11.592 13.0318 11.352L11.4718 11.136C10.4398 11.016 10.0078 10.68 10.0078 9.86401C10.0078 8.83201 10.7278 8.44801 12.0238 8.44801C13.4638 8.44801 13.9918 8.95201 13.9918 10.272H15.4798C15.4798 8.66401 14.2558 7.39201 12.5758 7.17601V5.97601H11.4478V7.15201C9.76777 7.36801 8.56777 8.49601 8.56777 9.96001C8.56777 11.352 9.45577 12.168 10.9678 12.384L12.5278 12.576C13.7038 12.744 14.1598 13.08 14.1598 13.968C14.1598 15.072 13.4878 15.48 12.0238 15.48C10.3438 15.48 9.74377 14.928 9.74377 13.416H8.27977Z" fill="black"/>
</svg>
