<svg width="24" height="24" viewBox="0 0 24 24" fill="none" xmlns="http://www.w3.org/2000/svg">
<path d="M12 21.24C17.184 21.24 21.24 17.04 21.24 12C21.24 6.84001 17.16 2.76001 12 2.76001C6.83999 2.76001 2.75999 6.84001 2.75999 12C2.75999 17.16 6.83999 21.24 12 21.24ZM4.31999 12C4.31999 7.68001 7.70399 4.32001 12 4.32001C16.32 4.32001 19.68 7.68001 19.68 12C19.68 16.176 16.32 19.68 12 19.68C7.70399 19.68 4.31999 16.296 4.31999 12ZM7.89599 12.12L11.184 15.432L16.8 9.79201L15.696 8.71201L11.184 13.2L8.97599 11.016L7.89599 12.12Z" fill="black"/>
</svg>
