<svg width="24" height="24" viewBox="0 0 24 24" fill="none" xmlns="http://www.w3.org/2000/svg">
<path d="M5.20792 18.1801H18.7919V16.8121H16.9679C18.9599 15.3721 20.1599 13.0681 20.1599 10.5001C20.1599 6.01209 16.4879 2.34009 11.9999 2.34009C7.51192 2.34009 3.83992 6.01209 3.83992 10.5001C3.83992 13.0681 5.03992 15.3481 7.03192 16.8121H5.20792V18.1801ZM1.91992 21.6601H22.0799V14.8201H20.5199V20.1961H3.47992V14.8201H1.91992V21.6601ZM5.39992 10.5001C5.39992 6.85209 8.35192 3.90009 11.9999 3.90009C15.6479 3.90009 18.5999 6.85209 18.5999 10.5001C18.5999 13.5721 16.4399 16.1641 13.5839 16.8121H10.4399C7.55992 16.1641 5.39992 13.5721 5.39992 10.5001ZM8.99992 11.5561C8.97592 13.0201 10.0079 14.0761 11.4959 14.2921V15.2281H12.5039V14.2921C13.9679 14.1241 14.9999 13.1641 14.9999 11.9401C14.9999 10.7641 14.1839 10.0681 12.8399 9.90009L11.5679 9.73209C10.7759 9.63609 10.4639 9.37209 10.4639 8.74809C10.4639 7.98009 11.0159 7.66809 12.0239 7.66809C13.1519 7.66809 13.5599 8.02809 13.5359 9.08409H14.8319C14.8319 7.78809 13.8719 6.78009 12.5039 6.56409V5.62809H11.4959V6.58809C10.1759 6.75609 9.23992 7.66809 9.23992 8.84409C9.23992 9.97209 9.95992 10.6441 11.2079 10.7881L12.4319 10.9321C13.3199 11.0281 13.6799 11.3161 13.6799 12.0121C13.6799 12.8521 13.1759 13.1881 12.0239 13.1881C10.7039 13.1881 10.2719 12.7801 10.2479 11.5561H8.99992Z" fill="black"/>
</svg>
