<svg width="24" height="24" viewBox="0 0 24 24" fill="none" xmlns="http://www.w3.org/2000/svg">
<path d="M17.9881 15.8761V17.3641C20.4361 17.0521 22.2121 15.0841 22.2121 12.6601C22.2121 10.3081 20.5081 8.4601 18.3001 8.0521C17.8921 5.2441 15.3721 3.2041 12.5161 3.2041C10.4041 3.2041 8.46009 4.3081 7.45209 6.1081C4.45209 6.1561 1.78809 8.5561 1.78809 11.7481C1.78809 14.2441 3.42009 16.3801 5.82009 17.1481V15.5401C4.35609 14.9161 3.34809 13.4761 3.34809 11.7481C3.34809 9.0361 5.91609 7.0681 8.48409 7.7161C8.98809 5.8441 10.6441 4.6681 12.5161 4.6681C15.0121 4.6681 17.1481 6.7561 16.7641 9.4681C18.8281 9.1801 20.6521 10.5721 20.6521 12.6601C20.6521 14.2681 19.5481 15.5881 17.9881 15.8761ZM7.62009 16.4521L11.9881 20.7961L16.3321 16.4521L15.3481 15.4921L14.1001 16.7401C13.6441 17.1961 13.1881 17.6761 12.7321 18.1561V11.4361H11.2441V18.1801C10.7881 17.7001 10.3321 17.1961 9.87609 16.7401L8.60409 15.4921L7.62009 16.4521Z" fill="black"/>
</svg>
