<svg width="24" height="24" viewBox="0 0 24 24" fill="none" xmlns="http://www.w3.org/2000/svg">
<path d="M9.63612 21.3481C13.5001 21.3481 16.5241 20.0761 16.5241 17.9401V16.3561C19.2601 15.9961 21.2761 14.8441 21.2761 13.0921V6.0361C21.2761 3.9001 18.3481 2.6521 14.3641 2.6521C10.5481 2.6521 7.45212 3.8761 7.45212 6.0361V7.6441C4.69212 8.0281 2.72412 9.1561 2.72412 10.8601V17.9401C2.72412 20.0761 5.67612 21.3481 9.63612 21.3481ZM4.09212 17.9401V16.5721C5.29212 17.3881 7.28412 17.8201 9.63612 17.8201C11.9401 17.8201 13.9561 17.3641 15.1561 16.5481V17.9401C15.1561 19.0681 13.0921 19.9561 9.63612 19.9561C6.08412 19.9561 4.09212 19.0921 4.09212 17.9401ZM4.09212 14.4361V12.9961C5.29212 13.8121 7.28412 14.2441 9.63612 14.2441C11.9401 14.2441 13.9561 13.7881 15.1561 12.9721V14.4361C15.1561 15.5641 13.0921 16.4521 9.63612 16.4521C6.08412 16.4521 4.09212 15.5641 4.09212 14.4361ZM4.09212 10.8601C4.09212 9.7561 6.15612 8.8681 9.63612 8.8681C13.1881 8.8681 15.1561 9.7321 15.1561 10.8601C15.1561 11.9881 13.0921 12.8761 9.63612 12.8761C6.08412 12.8761 4.09212 11.9881 4.09212 10.8601ZM8.84412 6.0361C8.84412 4.9081 10.9081 4.0441 14.3641 4.0441C17.9401 4.0441 19.8841 4.8841 19.8841 6.0361C19.8841 7.1641 17.4601 8.2441 13.6441 8.0281C12.7321 7.7401 11.6521 7.5721 10.4761 7.5241C9.39612 7.1641 8.84412 6.6361 8.84412 6.0361ZM15.8281 9.3481C17.5321 9.2041 18.9721 8.7961 19.8841 8.1481V9.6121C19.8841 10.4761 18.7081 11.1721 16.5241 11.4601V10.8601C16.5241 10.2841 16.2841 9.7801 15.8281 9.3481ZM16.5241 14.9641V12.8521C17.9161 12.6601 19.0921 12.2761 19.8841 11.7241V13.0921C19.8841 13.9561 18.7081 14.6761 16.5241 14.9641Z" fill="black"/>
</svg>
