<svg width="24" height="24" viewBox="0 0 24 24" fill="none" xmlns="http://www.w3.org/2000/svg">
<path d="M9.636 21.3481C13.5 21.3481 16.524 20.0761 16.524 17.9401V16.3561C19.26 15.9961 21.276 14.8441 21.276 13.0921V6.0361C21.276 3.9001 18.348 2.6521 14.364 2.6521C10.548 2.6521 7.452 3.8761 7.452 6.0361V7.6441C4.692 8.0281 2.724 9.1561 2.724 10.8601V17.9401C2.724 20.0761 5.676 21.3481 9.636 21.3481ZM4.092 17.9401V16.5721C5.292 17.3881 7.284 17.8201 9.636 17.8201C11.94 17.8201 13.956 17.3641 15.156 16.5481V17.9401C15.156 19.0681 13.092 19.9561 9.636 19.9561C6.084 19.9561 4.092 19.0921 4.092 17.9401ZM4.092 14.4361V12.9961C5.292 13.8121 7.284 14.2441 9.636 14.2441C11.94 14.2441 13.956 13.7881 15.156 12.9721V14.4361C15.156 15.5641 13.092 16.4521 9.636 16.4521C6.084 16.4521 4.092 15.5641 4.092 14.4361ZM4.092 10.8601C4.092 9.7561 6.156 8.8681 9.636 8.8681C13.188 8.8681 15.156 9.7321 15.156 10.8601C15.156 11.9881 13.092 12.8761 9.636 12.8761C6.084 12.8761 4.092 11.9881 4.092 10.8601ZM8.844 6.0361C8.844 4.9081 10.908 4.0441 14.364 4.0441C17.94 4.0441 19.884 4.8841 19.884 6.0361C19.884 7.1641 17.46 8.2441 13.644 8.0281C12.732 7.7401 11.652 7.5721 10.476 7.5241C9.396 7.1641 8.844 6.6361 8.844 6.0361ZM15.828 9.3481C17.532 9.2041 18.972 8.7961 19.884 8.1481V9.6121C19.884 10.4761 18.708 11.1721 16.524 11.4601V10.8601C16.524 10.2841 16.284 9.7801 15.828 9.3481ZM16.524 14.9641V12.8521C17.916 12.6601 19.092 12.2761 19.884 11.7241V13.0921C19.884 13.9561 18.708 14.6761 16.524 14.9641Z" fill="black"/>
</svg>
