<svg width="24" height="24" viewBox="0 0 24 24" fill="none" xmlns="http://www.w3.org/2000/svg">
<path d="M2.64001 4.83589V17.3159L6.93602 14.0039H17.592V4.83589C17.592 3.85189 16.752 3.03589 15.792 3.03589H4.44001C3.45601 3.03589 2.64001 3.85189 2.64001 4.83589ZM4.20001 14.2199V4.85989C4.20001 4.66789 4.36801 4.49989 4.56001 4.49989H15.648C15.864 4.49989 16.032 4.66789 16.032 4.85989V12.5399H6.38401L4.20001 14.2199ZM7.80002 15.8759C7.80002 16.8599 8.61602 17.6759 9.60002 17.6759H17.064L21.36 20.9639V8.74789C21.36 7.71589 20.496 6.85189 19.464 6.85189V8.41189C19.656 8.41189 19.8 8.65189 19.8 9.10789V17.8919L17.616 16.2119H10.056C9.50402 16.2119 9.36002 16.0439 9.36002 15.8759H7.80002Z" fill="black"/>
</svg>
