<svg width="24" height="24" viewBox="0 0 24 24" fill="none" xmlns="http://www.w3.org/2000/svg">
<path d="M2.64014 4.83589V17.3159L6.93614 14.0039H17.5921V4.83589C17.5921 3.85189 16.7521 3.03589 15.7921 3.03589H4.44014C3.45614 3.03589 2.64014 3.85189 2.64014 4.83589ZM4.20014 14.2199V4.85989C4.20014 4.66789 4.36814 4.49989 4.56014 4.49989H15.6481C15.8641 4.49989 16.0321 4.66789 16.0321 4.85989V12.5399H6.38414L4.20014 14.2199ZM7.80014 15.8759C7.80014 16.8599 8.61614 17.6759 9.60014 17.6759H17.0641L21.3601 20.9639V8.74789C21.3601 7.71589 20.4961 6.85189 19.4641 6.85189V8.41189C19.6561 8.41189 19.8001 8.65189 19.8001 9.10789V17.8919L17.6161 16.2119H10.0561C9.50414 16.2119 9.36014 16.0439 9.36014 15.8759H7.80014Z" fill="black"/>
</svg>
