<svg width="24" height="24" viewBox="0 0 24 24" fill="none" xmlns="http://www.w3.org/2000/svg">
<path d="M2.64014 4.38008V17.7481L6.93614 14.4601H17.5921V4.38008C17.5921 3.39608 16.7521 2.58008 15.7921 2.58008H4.44014C3.45614 2.58008 2.64014 3.39608 2.64014 4.38008ZM4.20014 14.6521V4.40408C4.20014 4.21208 4.36814 4.04408 4.56014 4.04408H15.6481C15.8641 4.04408 16.0321 4.21208 16.0321 4.40408V12.9961H6.40814L4.20014 14.6521ZM7.75214 9.30008C7.75214 10.4041 8.56814 11.2441 9.74414 11.3881V12.1081H10.4881V11.3881C11.6161 11.2441 12.4561 10.5241 12.4561 9.58808C12.4561 8.70008 11.8081 8.14808 10.7521 8.00408L9.79214 7.88408C9.21614 7.81208 8.95214 7.62008 8.95214 7.18808C8.95214 6.66008 9.36014 6.42008 10.1281 6.42008C10.9681 6.42008 11.2801 6.68408 11.2561 7.42808H12.3121C12.3121 6.44408 11.5441 5.65208 10.4881 5.50808V4.78808H9.74414V5.50808C8.68814 5.65208 7.94414 6.34808 7.94414 7.26008C7.94414 8.12408 8.47214 8.65208 9.45614 8.77208L10.4401 8.89208C11.1121 8.96408 11.3521 9.15608 11.3521 9.63608C11.3521 10.2121 10.9921 10.4761 10.1041 10.4761C9.14414 10.4761 8.80814 10.1641 8.78414 9.27608L7.75214 9.30008ZM7.80014 16.3081C7.80014 17.2921 8.61614 18.1081 9.60014 18.1081H17.0641L21.3601 21.4201V8.46008C21.3601 7.45208 20.4961 6.56408 19.4641 6.56408V8.12408C19.6561 8.12408 19.8001 8.36408 19.8001 8.82008V18.3241L17.5921 16.6441H10.0561C9.50414 16.6441 9.36014 16.5001 9.36014 16.3081H7.80014Z" fill="black"/>
</svg>
