<svg width="24" height="24" viewBox="0 0 24 24" fill="none" xmlns="http://www.w3.org/2000/svg">
<path d="M5.23214 20.4001H18.7921C18.6241 19.6321 17.9281 19.0081 17.0401 19.0081H14.8801L14.3281 16.3201H19.5601C20.5441 16.3201 21.3601 15.5041 21.3601 14.5201V5.4001C21.3601 4.4161 20.5441 3.6001 19.5601 3.6001H4.44014C3.45614 3.6001 2.64014 4.4161 2.64014 5.4001V14.5201C2.64014 15.5041 3.45614 16.3201 4.44014 16.3201H9.67214L9.12014 19.0081H6.96014C6.12014 19.0081 5.40014 19.6321 5.23214 20.4001ZM4.20014 14.4721V5.4241C4.20014 5.2081 4.34414 5.0641 4.56014 5.0641H19.4401C19.6561 5.0641 19.8001 5.2081 19.8001 5.4241V14.4721C19.8001 14.6881 19.6561 14.8561 19.4401 14.8561H4.56014C4.34414 14.8561 4.20014 14.6881 4.20014 14.4721ZM10.4401 19.0081L11.0161 16.3201H12.9841L13.5601 19.0081H10.4401Z" fill="black"/>
</svg>
