<svg width="24" height="24" viewBox="0 0 24 24" fill="none" xmlns="http://www.w3.org/2000/svg">
<path d="M5.52022 21.3599H12.2162V19.8959H5.64022C5.42421 19.8959 5.28022 19.7279 5.28022 19.5119V4.46389C5.28022 4.24789 5.42421 4.10389 5.64022 4.10389H15.6002C15.8162 4.10389 15.9602 4.24789 15.9602 4.46389V6.57589H17.5202V4.43989C17.5202 3.45589 16.7042 2.63989 15.7202 2.63989H5.52022C4.53621 2.63989 3.72021 3.45589 3.72021 4.43989V19.5599C3.72021 20.5439 4.53621 21.3599 5.52022 21.3599ZM14.1602 21.3599H20.2802V8.51989H14.1602V21.3599ZM15.6242 19.8959V9.98389H18.8162V19.8959H15.6242Z" fill="black"/>
</svg>
