<svg width="24" height="24" viewBox="0 0 24 24" fill="none" xmlns="http://www.w3.org/2000/svg">
<path d="M5.81982 14.4959C5.89182 17.8079 8.02782 20.0159 11.2918 20.3519L11.2678 22.3199H12.9238L12.9478 20.3519C15.8998 20.0879 18.1798 18.2159 18.1798 15.4079C18.1798 12.8399 16.3558 11.4719 13.5718 11.1119L11.1238 10.7759C9.20382 10.4879 8.26782 9.79193 8.26782 8.30393V8.03993C8.26782 6.26393 9.49182 5.32793 11.7718 5.32793H12.2998C14.8198 5.32793 15.8998 6.50393 15.9238 8.99993H17.8918C17.8438 6.04793 15.8758 3.95993 12.9478 3.64793V1.67993H11.2918V3.64793C8.57982 3.93593 6.39582 5.66393 6.39582 8.27993C6.39582 10.6799 8.02782 12.0719 10.6918 12.4559L13.0438 12.7439C15.2278 13.0559 16.2598 13.7759 16.2598 15.4319V15.7679C16.2598 17.7119 14.9158 18.6719 12.3958 18.6719H11.9638C8.96382 18.6719 7.81182 17.2799 7.78782 14.4959H5.81982Z" fill="black"/>
</svg>
