<svg width="24" height="24" viewBox="0 0 24 24" fill="none" xmlns="http://www.w3.org/2000/svg">
<path d="M5.82001 14.4959C5.89201 17.8079 8.02801 20.0159 11.292 20.3519L11.268 22.3199H12.924L12.948 20.3519C15.9 20.0879 18.18 18.2159 18.18 15.4079C18.18 12.8399 16.356 11.4719 13.572 11.1119L11.124 10.7759C9.20401 10.4879 8.26801 9.79193 8.26801 8.30393V8.03993C8.26801 6.26393 9.49201 5.32793 11.772 5.32793H12.3C14.82 5.32793 15.9 6.50393 15.924 8.99993H17.892C17.844 6.04793 15.876 3.95993 12.948 3.64793V1.67993H11.292V3.64793C8.58001 3.93593 6.39601 5.66393 6.39601 8.27993C6.39601 10.6799 8.02801 12.0719 10.692 12.4559L13.044 12.7439C15.228 13.0559 16.26 13.7759 16.26 15.4319V15.7679C16.26 17.7119 14.916 18.6719 12.396 18.6719H11.964C8.96401 18.6719 7.81201 17.2799 7.78801 14.4959H5.82001Z" fill="black"/>
</svg>
