<svg width="24" height="24" viewBox="0 0 24 24" fill="none" xmlns="http://www.w3.org/2000/svg">
<path d="M13.368 16.704H13.416C15.384 16.704 16.848 15.552 16.848 14.016C16.848 13.056 16.272 12.264 15.336 11.976V11.736C16.08 11.448 16.56 10.728 16.56 9.88801C16.56 8.44801 15.168 7.34401 13.392 7.34401H13.368C11.616 7.34401 10.224 8.44801 10.224 9.88801C10.224 10.752 10.704 11.472 11.472 11.76V11.976C10.536 12.24 9.95998 13.056 9.95998 14.016C9.95998 15.552 11.424 16.704 13.368 16.704ZM4.15198 12C4.15198 17.16 8.23198 21.24 13.392 21.24H19.848V19.68H13.392C9.09598 19.68 5.71198 16.296 5.71198 12C5.71198 7.80001 9.09598 4.32001 13.392 4.32001H19.848V2.76001H13.392C8.20798 2.76001 4.15198 6.96001 4.15198 12ZM11.592 14.184V13.752C11.592 12.984 12.144 12.6 13.32 12.6H13.512C14.712 12.6 15.24 12.984 15.24 13.752V14.184C15.24 14.952 14.688 15.312 13.512 15.312H13.32C12.144 15.312 11.592 14.952 11.592 14.184ZM11.736 10.248V9.79201C11.736 9.09601 12.216 8.73601 13.296 8.73601H13.464C14.544 8.73601 15.048 9.09601 15.048 9.79201V10.248C15.048 10.944 14.544 11.28 13.464 11.28H13.296C12.216 11.28 11.736 10.944 11.736 10.248Z" fill="black"/>
</svg>
