<svg width="24" height="24" viewBox="0 0 24 24" fill="none" xmlns="http://www.w3.org/2000/svg">
<path d="M12 21.24C17.184 21.24 21.24 17.04 21.24 12C21.24 6.84001 17.16 2.76001 12 2.76001C6.84001 2.76001 2.76001 6.84001 2.76001 12C2.76001 17.16 6.84001 21.24 12 21.24ZM4.32001 12C4.32001 7.68001 7.70401 4.32001 12 4.32001C16.32 4.32001 19.68 7.68001 19.68 12C19.68 16.176 16.32 19.68 12 19.68C7.70401 19.68 4.32001 16.296 4.32001 12ZM8.56801 14.016C8.56801 15.552 10.032 16.704 11.976 16.704H12.024C13.992 16.704 15.456 15.552 15.456 14.016C15.456 13.056 14.88 12.264 13.944 11.976V11.736C14.688 11.448 15.168 10.728 15.168 9.88801C15.168 8.44801 13.776 7.34401 12 7.34401H11.976C10.224 7.34401 8.83201 8.44801 8.83201 9.88801C8.83201 10.752 9.31201 11.472 10.08 11.76V11.976C9.14401 12.24 8.56801 13.056 8.56801 14.016ZM10.2 14.184V13.752C10.2 12.984 10.752 12.6 11.928 12.6H12.12C13.32 12.6 13.848 12.984 13.848 13.752V14.184C13.848 14.952 13.296 15.312 12.12 15.312H11.928C10.752 15.312 10.2 14.952 10.2 14.184ZM10.344 10.248V9.79201C10.344 9.09601 10.824 8.73601 11.904 8.73601H12.072C13.152 8.73601 13.656 9.09601 13.656 9.79201V10.248C13.656 10.944 13.152 11.28 12.072 11.28H11.904C10.824 11.28 10.344 10.944 10.344 10.248Z" fill="black"/>
</svg>
