<svg width="24" height="24" viewBox="0 0 24 24" fill="none" xmlns="http://www.w3.org/2000/svg">
<path d="M1.68018 21.3599H7.68018V15.3599H5.37618V12.6959H11.3042V15.3599H9.00018V21.3599H15.0002V15.3599H12.6962V12.6959H18.6242V15.3599H16.3202V21.3599H22.3202V15.3599H20.0162V11.3039H12.6962V8.63989H15.0002V2.63989H9.00018V8.63989H11.3042V11.3039H3.98418V15.3599H1.68018V21.3599ZM3.07218 20.0399V16.6799H6.31218V20.0399H3.07218ZM10.3922 20.0399V16.6799H13.6322V20.0399H10.3922ZM10.3922 7.31989V3.95989H13.6322V7.31989H10.3922ZM17.7122 20.0399V16.6799H20.9522V20.0399H17.7122Z" fill="black"/>
</svg>
