<svg width="24" height="24" viewBox="0 0 24 24" fill="none" xmlns="http://www.w3.org/2000/svg">
<path fill-rule="evenodd" clip-rule="evenodd" d="M10.1132 8.33707C9.43076 8.33618 8.77649 8.06474 8.29384 7.58225C7.97323 7.26174 7.74572 6.86547 7.62877 6.43548H4.06885V5.08743H7.62922C7.74623 4.65836 7.97335 4.26292 8.29325 3.94292C8.77594 3.46007 9.43047 3.18839 10.1132 3.1875C10.796 3.18839 11.4506 3.46004 11.9335 3.94287C12.2535 4.26287 12.4807 4.65832 12.5978 5.08743H19.9313V6.43548H12.5985C12.4815 6.86561 12.2539 7.26199 11.9331 7.58255C11.4503 8.06506 10.7958 8.33641 10.1132 8.33707ZM10.1132 4.53471C9.78771 4.53516 9.4757 4.66478 9.24569 4.8951C9.01568 5.12543 8.88648 5.43763 8.88648 5.76313C8.8867 6.08841 9.01601 6.4003 9.24602 6.63031C9.47602 6.86032 9.78793 6.98964 10.1132 6.98986C10.4386 6.98964 10.7506 6.86035 10.9807 6.63036C11.2108 6.40038 11.3403 6.08849 11.3408 5.76313C11.3406 5.43755 11.2112 5.12535 10.9811 4.89505C10.7509 4.66475 10.4388 4.53516 10.1132 4.53471Z" fill="black"/>
<path fill-rule="evenodd" clip-rule="evenodd" d="M14.4371 14.5752C13.7539 14.5745 13.0989 14.3027 12.616 13.8195C12.2958 13.4991 12.0686 13.1032 11.9518 12.6736H4.06885V11.3256H11.9516C12.0684 10.8952 12.296 10.4987 12.6169 10.1779C13.0997 9.69524 13.7543 9.42378 14.4371 9.42311C15.1197 9.424 15.7741 9.69556 16.2567 10.1782C16.5774 10.4989 16.8049 10.8954 16.9217 11.3256H19.9312V12.6736H16.9215C16.8047 13.103 16.5776 13.4989 16.2576 13.8192C15.7749 14.3024 15.1201 14.5743 14.4371 14.5752ZM14.4371 10.7729C14.112 10.7731 13.8003 10.9021 13.5702 11.1318C13.3401 11.3614 13.2104 11.6728 13.2095 11.9979C13.21 12.3233 13.3394 12.6353 13.5695 12.8654C13.7997 13.0955 14.1116 13.225 14.4371 13.2255C14.7624 13.225 15.0743 13.0955 15.3043 12.8654C15.5343 12.6352 15.6636 12.3233 15.6638 11.9979C15.6631 11.6729 15.5336 11.3614 15.3037 11.1318C15.0737 10.9022 14.7621 10.7731 14.4371 10.7729Z" fill="black"/>
<path fill-rule="evenodd" clip-rule="evenodd" d="M8.29354 20.0574C8.77621 20.5401 9.43061 20.8116 10.1132 20.8125C10.796 20.8118 11.4506 20.5404 11.9334 20.0577C12.2538 19.7374 12.4813 19.3414 12.5983 18.9117H19.9313V17.5637H12.5983C12.4812 17.134 12.2538 16.7381 11.9334 16.4178C11.4506 15.9351 10.796 15.6636 10.1132 15.6629C9.43061 15.6638 8.77621 15.9354 8.29354 16.4181C7.97328 16.7383 7.74597 17.1342 7.629 17.5637H4.06885V18.9117H7.62899C7.74597 19.3413 7.97328 19.7371 8.29354 20.0574ZM9.24602 17.3705C9.47602 17.1405 9.78793 17.0112 10.1132 17.011C10.4386 17.0112 10.7506 17.1405 10.9807 17.3705C11.2108 17.6005 11.3403 17.9124 11.3408 18.2377C11.3403 18.5631 11.2108 18.875 10.9807 19.105C10.7506 19.3349 10.4386 19.4642 10.1132 19.4645C9.78793 19.4642 9.47602 19.3349 9.24602 19.1049C9.01601 18.8749 8.8867 18.563 8.88648 18.2377C8.8867 17.9124 9.01601 17.6005 9.24602 17.3705Z" fill="black"/>
</svg>
