<svg width="24" height="24" viewBox="0 0 24 24" fill="none" xmlns="http://www.w3.org/2000/svg">
<path d="M10.6079 16.704C12.5519 16.704 13.8719 15.408 13.8719 13.632C13.8719 11.88 12.6239 10.56 10.9439 10.56C10.2239 10.56 9.62386 10.824 9.23986 11.232H9.02386L9.31186 8.92801H13.3679V7.58401H8.08786L7.63186 12.744H9.02386C9.26385 12.168 9.67185 11.88 10.5599 11.88H10.6559C11.8079 11.88 12.3119 12.336 12.3119 13.344V13.872C12.3119 14.88 11.8319 15.336 10.6559 15.336H10.5599C9.33586 15.336 8.85585 14.856 8.83186 13.752H7.29586C7.29586 15.432 8.66386 16.704 10.6079 16.704ZM4.15186 21.24H10.6079C15.7919 21.24 19.8479 17.016 19.8479 12C19.8479 6.84001 15.7679 2.76001 10.6079 2.76001H4.15186V4.32001H10.6079C14.9279 4.32001 18.2879 7.68001 18.2879 12C18.2879 16.176 14.9279 19.68 10.6079 19.68H4.15186V21.24Z" fill="black"/>
</svg>
