<svg width="24" height="24" viewBox="0 0 24 24" fill="none" xmlns="http://www.w3.org/2000/svg">
<path d="M10.608 16.704C12.552 16.704 13.872 15.408 13.872 13.632C13.872 11.88 12.624 10.56 10.944 10.56C10.224 10.56 9.62398 10.824 9.23998 11.232H9.02398L9.31198 8.92801H13.368V7.58401H8.08798L7.63198 12.744H9.02398C9.26398 12.168 9.67198 11.88 10.56 11.88H10.656C11.808 11.88 12.312 12.336 12.312 13.344V13.872C12.312 14.88 11.832 15.336 10.656 15.336H10.56C9.33598 15.336 8.85598 14.856 8.83198 13.752H7.29598C7.29598 15.432 8.66398 16.704 10.608 16.704ZM4.15198 21.24H10.608C15.792 21.24 19.848 17.016 19.848 12C19.848 6.84001 15.768 2.76001 10.608 2.76001H4.15198V4.32001H10.608C14.928 4.32001 18.288 7.68001 18.288 12C18.288 16.176 14.928 19.68 10.608 19.68H4.15198V21.24Z" fill="black"/>
</svg>
