<svg width="24" height="24" viewBox="0 0 24 24" fill="none" xmlns="http://www.w3.org/2000/svg">
<path d="M13.3919 16.704C15.3359 16.704 16.6559 15.408 16.6559 13.632C16.6559 11.88 15.4079 10.56 13.7279 10.56C13.0079 10.56 12.4079 10.824 12.0239 11.232H11.8079L12.0959 8.92801H16.1519V7.58401H10.8719L10.4159 12.744H11.8079C12.0479 12.168 12.4559 11.88 13.3439 11.88H13.4399C14.5919 11.88 15.0959 12.336 15.0959 13.344V13.872C15.0959 14.88 14.6159 15.336 13.4399 15.336H13.3439C12.1199 15.336 11.6399 14.856 11.6159 13.752H10.0799C10.0799 15.432 11.4479 16.704 13.3919 16.704ZM4.15186 12C4.15186 17.16 8.23186 21.24 13.3919 21.24H19.8479V19.68H13.3919C9.09586 19.68 5.71186 16.296 5.71186 12C5.71186 7.80001 9.09586 4.32001 13.3919 4.32001H19.8479V2.76001H13.3919C8.20786 2.76001 4.15186 6.96001 4.15186 12Z" fill="black"/>
</svg>
