<svg width="24" height="24" viewBox="0 0 24 24" fill="none" xmlns="http://www.w3.org/2000/svg">
<path d="M13.392 16.704C15.336 16.704 16.656 15.408 16.656 13.632C16.656 11.88 15.408 10.56 13.728 10.56C13.008 10.56 12.408 10.824 12.024 11.232H11.808L12.096 8.92801H16.152V7.58401H10.872L10.416 12.744H11.808C12.048 12.168 12.456 11.88 13.344 11.88H13.44C14.592 11.88 15.096 12.336 15.096 13.344V13.872C15.096 14.88 14.616 15.336 13.44 15.336H13.344C12.12 15.336 11.64 14.856 11.616 13.752H10.08C10.08 15.432 11.448 16.704 13.392 16.704ZM4.15198 12C4.15198 17.16 8.23198 21.24 13.392 21.24H19.848V19.68H13.392C9.09598 19.68 5.71198 16.296 5.71198 12C5.71198 7.80001 9.09598 4.32001 13.392 4.32001H19.848V2.76001H13.392C8.20798 2.76001 4.15198 6.96001 4.15198 12Z" fill="black"/>
</svg>
