<svg width="24" height="24" viewBox="0 0 24 24" fill="none" xmlns="http://www.w3.org/2000/svg">
<path d="M11.9998 16.704C13.9438 16.704 15.2638 15.408 15.2638 13.632C15.2638 11.88 14.0158 10.56 12.3358 10.56C11.6158 10.56 11.0158 10.824 10.6318 11.232H10.4158L10.7038 8.92801H14.7598V7.58401H9.47977L9.02377 12.744H10.4158C10.6558 12.168 11.0638 11.88 11.9518 11.88H12.0478C13.1998 11.88 13.7038 12.336 13.7038 13.344V13.872C13.7038 14.88 13.2238 15.336 12.0478 15.336H11.9518C10.7278 15.336 10.2478 14.856 10.2238 13.752H8.68777C8.68777 15.432 10.0558 16.704 11.9998 16.704ZM5.75977 21.24H18.2398V19.68H5.75977V21.24ZM5.75977 4.32001H18.2398V2.76001H5.75977V4.32001Z" fill="black"/>
</svg>
