<svg width="24" height="24" viewBox="0 0 24 24" fill="none" xmlns="http://www.w3.org/2000/svg">
<path d="M11.9998 21.24C17.1838 21.24 21.2398 17.04 21.2398 12C21.2398 6.84001 17.1598 2.76001 11.9998 2.76001C6.83977 2.76001 2.75977 6.84001 2.75977 12C2.75977 17.16 6.83977 21.24 11.9998 21.24ZM4.31977 12C4.31977 7.68001 7.70377 4.32001 11.9998 4.32001C16.3198 4.32001 19.6798 7.68001 19.6798 12C19.6798 16.176 16.3198 19.68 11.9998 19.68C7.70377 19.68 4.31977 16.296 4.31977 12ZM8.68777 13.752C8.68777 15.432 10.0558 16.704 11.9998 16.704C13.9438 16.704 15.2638 15.408 15.2638 13.632C15.2638 11.88 14.0158 10.56 12.3358 10.56C11.6158 10.56 11.0158 10.824 10.6318 11.232H10.4158L10.7038 8.92801H14.7598V7.58401H9.47977L9.02377 12.744H10.4158C10.6558 12.168 11.0638 11.88 11.9518 11.88H12.0478C13.1998 11.88 13.7038 12.336 13.7038 13.344V13.872C13.7038 14.88 13.2238 15.336 12.0478 15.336H11.9518C10.7278 15.336 10.2478 14.856 10.2238 13.752H8.68777Z" fill="black"/>
</svg>
