<svg width="24" height="24" viewBox="0 0 24 24" fill="none" xmlns="http://www.w3.org/2000/svg">
<path d="M13.584 12.216V13.296H10.872L13.512 9.28801H13.632C13.608 10.176 13.584 11.232 13.584 12.216ZM4.15198 12C4.15198 17.16 8.23198 21.24 13.392 21.24H19.848V19.68H13.392C9.09598 19.68 5.71198 16.296 5.71198 12C5.71198 7.80001 9.09598 4.32001 13.392 4.32001H19.848V2.76001H13.392C8.20798 2.76001 4.15198 6.96001 4.15198 12ZM9.40798 14.568H13.584V16.464H15.072V14.568H16.464V13.296H15.072V7.58401H13.272L9.40798 13.416V14.568Z" fill="black"/>
</svg>
