<svg width="24" height="24" viewBox="0 0 24 24" fill="none" xmlns="http://www.w3.org/2000/svg">
<path d="M13.5839 12.216V13.296H10.8719L13.5119 9.28801H13.6319C13.6079 10.176 13.5839 11.232 13.5839 12.216ZM4.15186 12C4.15186 17.16 8.23186 21.24 13.3919 21.24H19.8479V19.68H13.3919C9.09586 19.68 5.71186 16.296 5.71186 12C5.71186 7.80001 9.09586 4.32001 13.3919 4.32001H19.8479V2.76001H13.3919C8.20786 2.76001 4.15186 6.96001 4.15186 12ZM9.40786 14.568H13.5839V16.464H15.0719V14.568H16.4639V13.296H15.0719V7.58401H13.2719L9.40786 13.416V14.568Z" fill="black"/>
</svg>
