<svg width="24" height="24" viewBox="0 0 24 24" fill="none" xmlns="http://www.w3.org/2000/svg">
<path d="M10.7999 12.216V13.296H8.08786L10.7279 9.28801H10.8479C10.8239 10.176 10.7999 11.232 10.7999 12.216ZM4.15186 21.24H10.6079C15.7919 21.24 19.8479 17.016 19.8479 12C19.8479 6.84001 15.7679 2.76001 10.6079 2.76001H4.15186V4.32001H10.6079C14.9279 4.32001 18.2879 7.68001 18.2879 12C18.2879 16.176 14.9279 19.68 10.6079 19.68H4.15186V21.24ZM6.62386 14.568H10.7999V16.464H12.2879V14.568H13.6799V13.296H12.2879V7.58401H10.4879L6.62386 13.416V14.568Z" fill="black"/>
</svg>
