<svg width="24" height="24" viewBox="0 0 24 24" fill="none" xmlns="http://www.w3.org/2000/svg">
<path d="M11.3041 21.3599H12.6961L12.6481 18.3119L14.3761 20.0639L15.2881 19.1519L12.6961 16.5599L12.6481 13.5359L17.8081 18.7199L18.7201 17.8079L13.5361 12.6479L16.5601 12.6959L19.1521 15.2879L20.0641 14.3759L18.3121 12.6479L21.3601 12.6959V11.3039L18.3121 11.3519L20.0641 9.62389L19.1521 8.71189L16.5601 11.3039L13.5361 11.3519L18.7201 6.19189L17.8081 5.27989L12.6481 10.4639L12.6961 7.43989L15.2881 4.84789L14.3761 3.93589L12.6481 5.68789L12.6961 2.63989H11.3041L11.3521 5.68789L9.62414 3.93589L8.71214 4.84789L11.3041 7.43989L11.3521 10.4639L6.19214 5.27989L5.28014 6.19189L10.4641 11.3519L7.44014 11.3039L4.84814 8.71189L3.93614 9.62389L5.68814 11.3519L2.64014 11.3039V12.6959L5.68814 12.6479L3.93614 14.3759L4.84814 15.2879L7.44014 12.6959L10.4641 12.6479L5.28014 17.8079L6.19214 18.7199L11.3521 13.5359L11.3041 16.5599L8.71214 19.1519L9.62414 20.0639L11.3521 18.3119L11.3041 21.3599Z" fill="black"/>
</svg>
