<svg width="24" height="24" viewBox="0 0 24 24" fill="none" xmlns="http://www.w3.org/2000/svg">
<path d="M11.3039 21.3599H12.6959L12.6479 18.3119L14.3759 20.0639L15.2879 19.1519L12.6959 16.5599L12.6479 13.5359L17.8079 18.7199L18.7199 17.8079L13.5359 12.6479L16.5599 12.6959L19.1519 15.2879L20.0639 14.3759L18.3119 12.6479L21.3599 12.6959V11.3039L18.3119 11.3519L20.0639 9.62389L19.1519 8.71189L16.5599 11.3039L13.5359 11.3519L18.7199 6.19189L17.8079 5.27989L12.6479 10.4639L12.6959 7.43989L15.2879 4.84789L14.3759 3.93589L12.6479 5.68789L12.6959 2.63989H11.3039L11.3519 5.68789L9.62389 3.93589L8.71189 4.84789L11.3039 7.43989L11.3519 10.4639L6.19189 5.27989L5.27989 6.19189L10.4639 11.3519L7.43989 11.3039L4.84789 8.71189L3.93589 9.62389L5.68789 11.3519L2.63989 11.3039V12.6959L5.68789 12.6479L3.93589 14.3759L4.84789 15.2879L7.43989 12.6959L10.4639 12.6479L5.27989 17.8079L6.19189 18.7199L11.3519 13.5359L11.3039 16.5599L8.71189 19.1519L9.62389 20.0639L11.3519 18.3119L11.3039 21.3599Z" fill="black"/>
</svg>
