<svg width="24" height="24" viewBox="0 0 24 24" fill="none" xmlns="http://www.w3.org/2000/svg">
<path d="M10.7162 20.664C11.0042 20.664 11.2442 20.64 11.5322 20.64L9.9722 19.08L9.1082 19.008C6.22821 18.816 4.57221 18 4.57221 16.992V15.384C5.84421 16.296 8.0762 16.8 10.7162 16.8C11.0522 16.8 11.3642 16.776 11.6762 16.776L13.0922 15.384L14.1482 16.392C16.3802 15.936 17.9642 14.976 18.3242 13.68L18.4202 13.584V5.66404C18.4202 3.36004 15.1322 2.04004 10.7162 2.04004C6.44421 2.04004 3.01221 3.36004 3.01221 5.66404V16.992C3.01221 19.32 6.37221 20.76 10.7162 20.664ZM4.57221 13.224V11.616C5.84421 12.528 8.0762 13.032 10.7162 13.032C13.3322 13.032 15.5642 12.528 16.8602 11.616V13.224C16.8602 14.904 12.9482 15.408 10.7162 15.408C6.82821 15.408 4.57221 14.448 4.57221 13.224ZM4.57221 9.45604V7.84804C5.84421 8.76004 8.0762 9.26404 10.7162 9.26404C13.3082 9.26404 15.5642 8.76004 16.8602 7.84804V9.45604C16.8602 10.68 14.5322 11.664 10.7162 11.664C6.82821 11.664 4.57221 10.68 4.57221 9.45604ZM4.57221 5.66404C4.57221 4.51204 6.85221 3.60004 10.7162 3.60004C14.7002 3.60004 16.8602 4.51204 16.8602 5.66404C16.8602 6.93604 14.5322 7.87204 10.7162 7.87204C6.82821 7.87204 4.57221 6.93604 4.57221 5.66404ZM12.0842 18.648L15.3722 21.96L20.9882 16.32L19.8842 15.24L15.3722 19.728L13.1642 17.544L12.0842 18.648Z" fill="black"/>
</svg>
