<svg width="24" height="24" viewBox="0 0 24 24" fill="none" xmlns="http://www.w3.org/2000/svg">
<path d="M12 21.312C16.272 21.312 19.704 19.968 19.704 17.64V6.31199C19.704 4.00799 16.416 2.68799 12 2.68799C7.728 2.68799 4.296 4.00799 4.296 6.31199V17.64C4.296 19.968 7.632 21.312 12 21.312ZM5.856 17.64V16.032C7.128 16.92 9.36 17.448 12 17.448C14.616 17.448 16.848 16.92 18.144 16.032V17.64C18.144 18.816 15.864 19.728 12 19.728C8.064 19.728 5.856 18.816 5.856 17.64ZM5.856 13.872V12.264C7.128 13.176 9.36 13.68 12 13.68C14.616 13.68 16.848 13.176 18.144 12.264V13.872C18.144 15.096 15.816 16.056 12 16.056C8.112 16.056 5.856 15.096 5.856 13.872ZM5.856 10.104V8.49599C7.128 9.40799 9.36 9.91199 12 9.91199C14.592 9.91199 16.848 9.40799 18.144 8.49599V10.104C18.144 11.328 15.816 12.312 12 12.312C8.112 12.312 5.856 11.328 5.856 10.104ZM5.856 6.31199C5.856 5.15999 8.136 4.24799 12 4.24799C15.984 4.24799 18.144 5.15999 18.144 6.31199C18.144 7.58399 15.816 8.51999 12 8.51999C8.112 8.51999 5.856 7.58399 5.856 6.31199Z" fill="black"/>
</svg>
