<svg width="24" height="24" viewBox="0 0 24 24" fill="none" xmlns="http://www.w3.org/2000/svg">
<path d="M10.7157 20.664C11.0037 20.664 11.2437 20.64 11.5317 20.64L9.97172 19.08L9.10772 19.008C6.22772 18.816 4.57172 18 4.57172 16.992V15.384C5.84372 16.296 8.07572 16.8 10.7157 16.8C11.0517 16.8 11.3637 16.776 11.6757 16.776L13.0917 15.384L14.1477 16.392C16.3797 15.936 17.9637 14.976 18.3237 13.68L18.4197 13.584V5.66404C18.4197 3.36004 15.1317 2.04004 10.7157 2.04004C6.44372 2.04004 3.01172 3.36004 3.01172 5.66404V16.992C3.01172 19.32 6.37172 20.76 10.7157 20.664ZM4.57172 13.224V11.616C5.84372 12.528 8.07572 13.032 10.7157 13.032C13.3317 13.032 15.5637 12.528 16.8597 11.616V13.224C16.8597 14.904 12.9477 15.408 10.7157 15.408C6.82772 15.408 4.57172 14.448 4.57172 13.224ZM4.57172 9.45604V7.84804C5.84372 8.76004 8.07572 9.26404 10.7157 9.26404C13.3077 9.26404 15.5637 8.76004 16.8597 7.84804V9.45604C16.8597 10.68 14.5317 11.664 10.7157 11.664C6.82772 11.664 4.57172 10.68 4.57172 9.45604ZM4.57172 5.66404C4.57172 4.51204 6.85172 3.60004 10.7157 3.60004C14.6997 3.60004 16.8597 4.51204 16.8597 5.66404C16.8597 6.93604 14.5317 7.87204 10.7157 7.87204C6.82772 7.87204 4.57172 6.93604 4.57172 5.66404ZM12.0837 18.648L15.3717 21.96L20.9877 16.32L19.8837 15.24L15.3717 19.728L13.1637 17.544L12.0837 18.648Z" fill="black"/>
</svg>
