<svg width="24" height="24" viewBox="0 0 24 24" fill="none" xmlns="http://www.w3.org/2000/svg">
<path d="M10.8358 20.7361C11.0758 20.7361 11.2918 20.7121 11.5078 20.7121L13.1878 19.0321C12.4918 19.1041 11.6998 19.1521 10.8358 19.1521C6.89984 19.1521 4.69184 18.2401 4.69184 17.0641V15.4561C5.96384 16.3441 8.19584 16.8721 10.8358 16.8721C11.3638 16.8721 11.8678 16.8481 12.3718 16.8001L11.6998 16.1281L12.3718 15.4321C11.8918 15.4561 11.3638 15.4801 10.8358 15.4801C6.94784 15.4801 4.69184 14.5201 4.69184 13.2961V11.6881C5.96384 12.6001 8.19584 13.1041 10.8358 13.1041C13.4518 13.1041 15.6838 12.6001 16.9798 11.6881V13.7281L17.6998 14.4481L18.5398 13.6081V5.73606C18.5398 3.40806 15.2278 2.11206 10.8358 2.11206C6.56384 2.11206 3.13184 3.40806 3.13184 5.73606V17.0641C3.13184 19.3921 6.49184 20.7361 10.8358 20.7361ZM4.69184 9.52806V7.92006C5.96384 8.83206 8.19584 9.33606 10.8358 9.33606C13.4278 9.33606 15.6838 8.80806 16.9798 7.89606V9.52806C16.9798 10.7521 14.6518 11.7361 10.8358 11.7361C6.94784 11.7361 4.69184 10.7521 4.69184 9.52806ZM4.69184 5.73606C4.69184 4.58406 6.97184 3.67206 10.8358 3.67206C14.8198 3.67206 16.9798 4.58406 16.9798 5.73606C16.9798 7.00806 14.6518 7.94406 10.8358 7.94406C6.94784 7.94406 4.69184 7.00806 4.69184 5.73606ZM14.1238 20.8321L15.1558 21.8881L17.5078 19.5361L19.8358 21.8881L20.8678 20.8321L18.5398 18.5041L20.8678 16.1761L19.8358 15.1201L17.5078 17.4481L15.1558 15.1201L14.1238 16.1761L16.4518 18.5041L14.1238 20.8321Z" fill="black"/>
</svg>
