<svg width="24" height="24" viewBox="0 0 24 24" fill="none" xmlns="http://www.w3.org/2000/svg">
<path d="M4.67977 20.7841H19.3198C20.4238 20.7841 21.2398 19.9681 21.2398 18.8641V9.98406C21.2398 8.88006 20.4238 8.06406 19.3198 8.06406H18.3598C18.7918 7.56006 18.9838 6.91206 18.9838 6.31206C18.9838 4.65606 17.6398 3.21606 15.9118 3.21606C15.3598 3.21606 14.7838 3.36006 14.3278 3.64806C13.5358 4.12806 12.9118 4.99206 12.4078 5.97606L11.9998 6.76806L11.5918 5.97606C11.0878 4.99206 10.4638 4.12806 9.67177 3.64806C9.21577 3.36006 8.63977 3.21606 8.08777 3.21606C6.35977 3.21606 5.01577 4.65606 5.01577 6.31206C5.01577 6.91206 5.20777 7.56006 5.63977 8.06406H4.67977C3.57577 8.06406 2.75977 8.88006 2.75977 9.98406V18.8641C2.75977 19.9681 3.57577 20.7841 4.67977 20.7841ZM4.31977 18.9121V13.7041H19.6798V18.9121C19.6798 19.1521 19.5358 19.3201 19.2958 19.3201H4.72777C4.46377 19.3201 4.31977 19.1521 4.31977 18.9121ZM4.31977 11.7841V9.93606C4.31977 9.67206 4.46377 9.52806 4.72777 9.52806H19.2958C19.5358 9.52806 19.6798 9.67206 19.6798 9.93606V11.7841H4.31977ZM5.87977 17.4721H9.47977V15.5521H5.87977V17.4721ZM6.40777 6.31206C6.40777 5.40006 7.12777 4.58406 8.08777 4.58406C9.19177 4.58406 9.83977 5.59206 10.3678 6.60006L11.1838 8.16006H9.40777C8.61577 8.16006 7.77577 8.13606 7.17577 7.75206C6.62377 7.44006 6.40777 6.84006 6.40777 6.31206ZM12.8158 8.16006L13.6318 6.60006C14.1598 5.59206 14.8078 4.58406 15.9118 4.58406C16.8718 4.58406 17.5918 5.40006 17.5918 6.31206C17.5918 6.84006 17.3758 7.44006 16.8238 7.75206C16.2478 8.13606 15.3838 8.16006 14.5918 8.16006H12.8158Z" fill="black"/>
</svg>
