<svg width="24" height="24" viewBox="0 0 24 24" fill="none" xmlns="http://www.w3.org/2000/svg">
<path fill-rule="evenodd" clip-rule="evenodd" d="M5.55658 9.33945L0.946167 7.51874L12.003 3.1875L23.0538 7.51605L18.6196 9.28527V15.3686L20.3883 17.6041L18.2193 20.8125L16.0106 17.6034L17.5432 15.697V14.2264L12.003 16.2983L5.55658 13.8723V9.33945ZM6.633 9.76454L12.0534 11.9051L17.5432 9.71476V13.0771L12.0043 15.1485L6.633 13.1275V9.76454ZM16.4377 8.99653L12.0514 10.7466L3.88748 7.52277L12.003 4.3433L20.1246 7.52547L17.9683 8.38581L12.264 6.41675L11.9122 7.43396L16.4377 8.99653ZM17.3561 17.6552L18.2146 18.9025L19.0596 17.6546L18.2146 16.5869L17.3561 17.6552Z" fill="black"/>
</svg>
