<svg width="24" height="24" viewBox="0 0 24 24" fill="none" xmlns="http://www.w3.org/2000/svg">
<path d="M2.83211 14.8321L7.77611 9.86412H15.4801L19.8721 5.49612C19.8481 6.21612 19.8481 6.93612 19.8481 7.63212V9.28812H21.1921V3.12012H15.0481V4.48812H16.6801C17.3761 4.48812 18.0961 4.48812 18.7921 4.46412L14.8561 8.40012H7.20011L2.83211 12.7441V14.8321ZM2.80811 20.8801H4.46411V17.9521H2.80811V20.8801ZM6.98411 20.8801H8.64011V16.0561H6.98411V20.8801ZM11.1841 20.8801H12.8161V12.9601H11.1841V20.8801ZM15.3601 20.8801H17.0161V15.1201H15.3601V20.8801ZM19.5121 20.8801H21.1681V12.0001H19.5121V20.8801Z" fill="black"/>
</svg>
