<svg width="24" height="24" viewBox="0 0 24 24" fill="none" xmlns="http://www.w3.org/2000/svg">
<path d="M5.83218 17.8919V19.6199H18.1682V17.8919C18.1682 14.6759 15.9842 13.0679 13.5842 13.0679H10.4162C7.68018 13.0679 5.83218 14.9879 5.83218 17.8919ZM1.68018 19.6199H3.24018V18.2519C3.24018 17.2439 3.62418 16.6439 4.39218 16.4519C4.51218 15.8759 4.65618 15.3719 4.89618 14.9159C3.12018 15.0359 1.68018 16.3799 1.68018 18.8039V19.6199ZM1.75218 10.3799C1.75218 12.0119 3.04818 13.3079 4.68018 13.3079C6.31218 13.3079 7.63218 12.0119 7.63218 10.3799C7.63218 8.74788 6.31218 7.42788 4.68018 7.42788C3.04818 7.42788 1.75218 8.74788 1.75218 10.3799ZM3.02418 10.3799C3.02418 9.46788 3.76818 8.72388 4.68018 8.72388C5.59218 8.72388 6.33618 9.46788 6.33618 10.3799C6.33618 11.2919 5.59218 12.0359 4.68018 12.0359C3.76818 12.0359 3.02418 11.2919 3.02418 10.3799ZM7.44018 18.2759V17.0759C7.44018 15.3959 8.32818 14.5319 10.1042 14.5319H13.8962C15.6722 14.5319 16.5602 15.3959 16.5602 17.0759V18.2759H7.44018ZM8.18418 8.07588C8.18418 10.1639 9.91218 11.7959 12.0002 11.7959C14.0882 11.7959 15.8162 10.1639 15.8162 8.07588C15.8162 5.98788 14.0882 4.37988 12.0002 4.37988C9.91218 4.37988 8.18418 5.98788 8.18418 8.07588ZM9.67218 8.07588C9.67218 6.77988 10.7042 5.74788 12.0002 5.74788C13.2962 5.74788 14.3522 6.77988 14.3522 8.07588C14.3522 9.39588 13.2962 10.4039 12.0002 10.4039C10.7042 10.4039 9.67218 9.39588 9.67218 8.07588ZM16.3922 10.3799C16.3922 12.0119 17.6882 13.3079 19.3202 13.3079C20.9522 13.3079 22.2722 12.0119 22.2722 10.3799C22.2722 8.74788 20.9522 7.42788 19.3202 7.42788C17.6882 7.42788 16.3922 8.74788 16.3922 10.3799ZM17.6642 10.3799C17.6642 9.46788 18.4082 8.72388 19.3202 8.72388C20.2322 8.72388 20.9762 9.46788 20.9762 10.3799C20.9762 11.2919 20.2322 12.0359 19.3202 12.0359C18.4082 12.0359 17.6642 11.2919 17.6642 10.3799ZM19.1042 14.9159C19.3442 15.3719 19.4882 15.8759 19.6082 16.4519C20.3762 16.6439 20.7602 17.2439 20.7602 18.2519V19.6199H22.3202V18.8039C22.3202 16.3799 20.9042 15.0359 19.1042 14.9159Z" fill="black"/>
</svg>
