<svg width="24" height="24" viewBox="0 0 24 24" fill="none" xmlns="http://www.w3.org/2000/svg">
<path d="M5.83199 17.8919V19.6199H18.168V17.8919C18.168 14.6759 15.984 13.0679 13.584 13.0679H10.416C7.67999 13.0679 5.83199 14.9879 5.83199 17.8919ZM1.67999 19.6199H3.23999V18.2519C3.23999 17.2439 3.62399 16.6439 4.39199 16.4519C4.51199 15.8759 4.65599 15.3719 4.89599 14.9159C3.11999 15.0359 1.67999 16.3799 1.67999 18.8039V19.6199ZM1.75199 10.3799C1.75199 12.0119 3.04799 13.3079 4.67999 13.3079C6.31199 13.3079 7.63199 12.0119 7.63199 10.3799C7.63199 8.74788 6.31199 7.42788 4.67999 7.42788C3.04799 7.42788 1.75199 8.74788 1.75199 10.3799ZM3.02399 10.3799C3.02399 9.46788 3.76799 8.72388 4.67999 8.72388C5.59199 8.72388 6.33599 9.46788 6.33599 10.3799C6.33599 11.2919 5.59199 12.0359 4.67999 12.0359C3.76799 12.0359 3.02399 11.2919 3.02399 10.3799ZM7.43999 18.2759V17.0759C7.43999 15.3959 8.32799 14.5319 10.104 14.5319H13.896C15.672 14.5319 16.56 15.3959 16.56 17.0759V18.2759H7.43999ZM8.18399 8.07588C8.18399 10.1639 9.91199 11.7959 12 11.7959C14.088 11.7959 15.816 10.1639 15.816 8.07588C15.816 5.98788 14.088 4.37988 12 4.37988C9.91199 4.37988 8.18399 5.98788 8.18399 8.07588ZM9.67199 8.07588C9.67199 6.77988 10.704 5.74788 12 5.74788C13.296 5.74788 14.352 6.77988 14.352 8.07588C14.352 9.39588 13.296 10.4039 12 10.4039C10.704 10.4039 9.67199 9.39588 9.67199 8.07588ZM16.392 10.3799C16.392 12.0119 17.688 13.3079 19.32 13.3079C20.952 13.3079 22.272 12.0119 22.272 10.3799C22.272 8.74788 20.952 7.42788 19.32 7.42788C17.688 7.42788 16.392 8.74788 16.392 10.3799ZM17.664 10.3799C17.664 9.46788 18.408 8.72388 19.32 8.72388C20.232 8.72388 20.976 9.46788 20.976 10.3799C20.976 11.2919 20.232 12.0359 19.32 12.0359C18.408 12.0359 17.664 11.2919 17.664 10.3799ZM19.104 14.9159C19.344 15.3719 19.488 15.8759 19.608 16.4519C20.376 16.6439 20.76 17.2439 20.76 18.2519V19.6199H22.32V18.8039C22.32 16.3799 20.904 15.0359 19.104 14.9159Z" fill="black"/>
</svg>
