<svg width="24" height="24" viewBox="0 0 24 24" fill="none" xmlns="http://www.w3.org/2000/svg">
<path d="M7.99214 20.6424C9.07214 21.2664 10.4401 21.3624 12.0721 20.5944L20.8321 16.5624C21.6241 16.2024 22.1521 15.3864 22.1521 14.4984C22.1521 13.2264 21.0961 12.2904 19.9201 12.2904C19.6801 12.2904 19.4641 12.3384 19.0561 12.5064L18.9841 12.3384C18.4561 11.3304 17.2561 10.9464 16.2001 11.4024L14.3521 12.2424C14.6881 12.5544 14.9521 12.9384 15.1441 13.3944L16.7761 12.6744C17.1601 12.4824 17.6161 12.6504 17.8081 13.0584L17.9041 13.2984L13.9201 15.0984C14.0401 14.1384 13.5121 13.1784 12.6481 12.7704L8.80814 10.9944C6.24014 9.7944 3.81614 10.2504 1.84814 12.5544V18.7944H3.31214V13.1304C4.75214 11.6904 6.33614 11.4744 8.18414 12.3144L12.0001 14.0904C12.3121 14.2344 12.5041 14.5464 12.5041 14.9064C12.5041 15.5304 11.8321 15.9624 11.2801 15.6984L8.08814 14.2344L7.60814 15.3144L11.0401 16.9224C11.6161 17.1864 12.2881 17.1384 13.2721 16.7064L19.6081 13.8504C20.1121 13.6104 20.6641 13.9704 20.6641 14.4984C20.6641 14.7864 20.4961 15.0984 20.2321 15.2184L11.4481 19.2744C10.3921 19.7544 9.50414 19.8024 8.71214 19.3464L6.12014 17.9064L5.40014 19.2024L7.99214 20.6424ZM8.71214 6.1944C8.71214 8.0424 10.2001 9.5304 12.0481 9.5304C13.8961 9.5304 15.3841 8.0424 15.3841 6.1944C15.3841 4.3464 13.8961 2.8584 12.0481 2.8584C10.2001 2.8584 8.71214 4.3464 8.71214 6.1944ZM10.1041 6.1944C10.1041 5.1144 10.9681 4.2504 12.0481 4.2504C13.1281 4.2504 13.9921 5.1144 13.9921 6.1944C13.9921 7.2744 13.1281 8.1384 12.0481 8.1384C10.9681 8.1384 10.1041 7.2744 10.1041 6.1944Z" fill="black"/>
</svg>
