<svg width="24" height="24" viewBox="0 0 24 24" fill="none" xmlns="http://www.w3.org/2000/svg">
<path d="M7.99202 20.6424C9.07202 21.2664 10.44 21.3624 12.072 20.5944L20.832 16.5624C21.624 16.2024 22.152 15.3864 22.152 14.4984C22.152 13.2264 21.096 12.2904 19.92 12.2904C19.68 12.2904 19.464 12.3384 19.056 12.5064L18.984 12.3384C18.456 11.3304 17.256 10.9464 16.2 11.4024L14.352 12.2424C14.688 12.5544 14.952 12.9384 15.144 13.3944L16.776 12.6744C17.16 12.4824 17.616 12.6504 17.808 13.0584L17.904 13.2984L13.92 15.0984C14.04 14.1384 13.512 13.1784 12.648 12.7704L8.80802 10.9944C6.24002 9.7944 3.81602 10.2504 1.84802 12.5544V18.7944H3.31202V13.1304C4.75202 11.6904 6.33602 11.4744 8.18402 12.3144L12 14.0904C12.312 14.2344 12.504 14.5464 12.504 14.9064C12.504 15.5304 11.832 15.9624 11.28 15.6984L8.08802 14.2344L7.60802 15.3144L11.04 16.9224C11.616 17.1864 12.288 17.1384 13.272 16.7064L19.608 13.8504C20.112 13.6104 20.664 13.9704 20.664 14.4984C20.664 14.7864 20.496 15.0984 20.232 15.2184L11.448 19.2744C10.392 19.7544 9.50402 19.8024 8.71202 19.3464L6.12002 17.9064L5.40002 19.2024L7.99202 20.6424ZM8.71202 6.1944C8.71202 8.0424 10.2 9.5304 12.048 9.5304C13.896 9.5304 15.384 8.0424 15.384 6.1944C15.384 4.3464 13.896 2.8584 12.048 2.8584C10.2 2.8584 8.71202 4.3464 8.71202 6.1944ZM10.104 6.1944C10.104 5.1144 10.968 4.2504 12.048 4.2504C13.128 4.2504 13.992 5.1144 13.992 6.1944C13.992 7.2744 13.128 8.1384 12.048 8.1384C10.968 8.1384 10.104 7.2744 10.104 6.1944Z" fill="black"/>
</svg>
