<svg width="24" height="24" viewBox="0 0 24 24" fill="none" xmlns="http://www.w3.org/2000/svg">
<path d="M11.112 13.464H12.048C14.544 13.464 15.768 11.784 15.768 9.93601C15.768 8.06401 14.496 6.28801 12.144 6.28801C10.032 6.28801 8.52001 7.92001 8.52001 9.69601V9.84001H10.08V9.50401C10.08 8.28001 10.656 7.75201 12.024 7.75201H12.24C13.632 7.75201 14.208 8.28001 14.208 9.52801V10.488C14.208 11.64 13.68 12.096 12.384 12.096H11.112V13.464ZM2.76001 12C2.76001 17.16 6.84001 21.24 12 21.24C17.184 21.24 21.24 17.04 21.24 12C21.24 6.84001 17.16 2.76001 12 2.76001C6.84001 2.76001 2.76001 6.84001 2.76001 12ZM4.32001 12C4.32001 7.68001 7.70401 4.32001 12 4.32001C16.32 4.32001 19.68 7.68001 19.68 12C19.68 16.176 16.32 19.68 12 19.68C7.70401 19.68 4.32001 16.296 4.32001 12ZM10.968 17.16H13.056V15.072H10.968V17.16Z" fill="black"/>
</svg>
