<svg width="24" height="24" viewBox="0 0 24 24" fill="none" xmlns="http://www.w3.org/2000/svg">
<path d="M9.26401 17.04H14.904V15.744H12.936V10.224H9.50401V11.52H11.448V15.744H9.26401V17.04ZM2.76001 12C2.76001 17.16 6.84001 21.24 12 21.24C17.184 21.24 21.24 17.04 21.24 12C21.24 6.84001 17.16 2.76001 12 2.76001C6.84001 2.76001 2.76001 6.84001 2.76001 12ZM4.32001 12C4.32001 7.68001 7.70401 4.32001 12 4.32001C16.32 4.32001 19.68 7.68001 19.68 12C19.68 16.176 16.32 19.68 12 19.68C7.70401 19.68 4.32001 16.296 4.32001 12ZM11.112 8.61601H13.2V6.52801H11.112V8.61601Z" fill="black"/>
</svg>
