<svg width="24" height="24" viewBox="0 0 24 24" fill="none" xmlns="http://www.w3.org/2000/svg">
<path fill-rule="evenodd" clip-rule="evenodd" d="M16.0177 10.2111H14.9403L13.4064 15.5241H14.196L14.5531 14.2356H16.3595L16.6939 15.5241H17.5057L16.0177 10.2111ZM15.522 11.0762L16.1674 13.5355H14.7409L15.4158 11.0762H15.522Z" fill="black"/>
<path fill-rule="evenodd" clip-rule="evenodd" d="M8.72599 15.4087L3.14551 10.448V3.1875H13.9303V8.47774H20.8546V15.8511L15.3453 20.8125L16.2859 17.2672H10.0519V11.8285H7.859L8.72599 15.4087ZM12.9486 4.16922V8.47774H10.0519V8.72923C9.89415 8.70569 9.74523 8.67054 9.60537 8.62383C10.1377 7.94869 10.3168 7.15744 10.3766 6.6536H10.8299V5.67188H9.22483V4.85706H8.24311V5.67188H6.63798V6.6536H9.38616C9.32526 7.05449 9.16839 7.63552 8.76616 8.09736C8.73717 8.06671 8.70905 8.03501 8.68181 8.00226C8.49773 7.78387 8.36295 7.52833 8.28667 7.25308L7.80623 7.35432L7.32518 7.45127C7.4263 7.86641 7.61873 8.25377 7.88846 8.58516C7.91032 8.61256 7.93324 8.64027 7.95725 8.66819C7.58744 8.81849 7.15036 8.88913 6.64842 8.87965L6.62817 9.86138H6.74351C7.54718 9.86138 8.23448 9.68729 8.79715 9.34243C9.13213 9.52289 9.54541 9.66447 10.0519 9.72124V10.8468H6.61099L7.03313 12.5906L4.12723 10.0068V4.16922H12.9486ZM11.0337 16.2855H17.5621L17.1406 17.8747L19.8728 15.4136V9.46192H11.0337V16.2855Z" fill="black"/>
</svg>
