<svg width="24" height="24" viewBox="0 0 24 24" fill="none" xmlns="http://www.w3.org/2000/svg">
<path d="M5.2198 22.2001H17.9398C19.0438 22.2001 19.8598 21.3841 19.8598 20.2801V8.40005H20.6998V5.04005H19.8598V3.72005C19.8598 2.61605 19.0438 1.80005 17.9398 1.80005H5.2198C4.1158 1.80005 3.2998 2.61605 3.2998 3.72005V20.2801C3.2998 21.3841 4.1158 22.2001 5.2198 22.2001ZM4.7638 20.3281V3.67205C4.7638 3.40805 4.9318 3.26405 5.1718 3.26405H17.9878C18.2518 3.26405 18.3958 3.40805 18.3958 3.67205V20.3281C18.3958 20.5921 18.2518 20.736 17.9878 20.736H5.1718C4.9318 20.736 4.7638 20.5921 4.7638 20.3281ZM6.41981 19.08H16.7398V4.92005H6.41981V19.08ZM7.71581 17.784V6.21605H15.4438V17.784H7.71581Z" fill="black"/>
</svg>
