<svg width="24" height="24" viewBox="0 0 24 24" fill="none" xmlns="http://www.w3.org/2000/svg">
<path d="M2.83211 13.5601V15.0241C9.67211 14.1361 15.4321 10.5601 19.8721 5.42412C19.8481 6.14412 19.8481 6.86412 19.8481 7.56012V9.28812H21.1921V3.12012H15.0481V4.48812H16.6801C17.3521 4.48812 18.0721 4.48812 18.7441 4.46412C14.5441 9.33612 9.24011 12.6721 2.83211 13.5601ZM2.80811 20.8801H4.46411V17.9521H2.80811V20.8801ZM6.98411 20.8801H8.64011V16.6081H6.98411V20.8801ZM11.1841 20.8801H12.8161V15.1921H11.1841V20.8801ZM15.3601 20.8801H17.0161V13.8241H15.3601V20.8801ZM19.5121 20.8801H21.1681V12.4801H19.5121V20.8801Z" fill="black"/>
</svg>
