<svg width="24" height="24" viewBox="0 0 24 24" fill="none" xmlns="http://www.w3.org/2000/svg">
<path d="M2.83198 13.5601V15.0241C9.67198 14.1361 15.432 10.5601 19.872 5.42412C19.848 6.14412 19.848 6.86412 19.848 7.56012V9.28812H21.192V3.12012H15.048V4.48812H16.68C17.352 4.48812 18.072 4.48812 18.744 4.46412C14.544 9.33612 9.23998 12.6721 2.83198 13.5601ZM2.80798 20.8801H4.46398V17.9521H2.80798V20.8801ZM6.98398 20.8801H8.63998V16.6081H6.98398V20.8801ZM11.184 20.8801H12.816V15.1921H11.184V20.8801ZM15.36 20.8801H17.016V13.8241H15.36V20.8801ZM19.512 20.8801H21.168V12.4801H19.512V20.8801Z" fill="black"/>
</svg>
