<svg width="24" height="24" viewBox="0 0 24 24" fill="none" xmlns="http://www.w3.org/2000/svg">
<path d="M11.9998 14.52C10.6078 14.52 9.47977 13.392 9.47977 12C9.47977 10.608 10.6078 9.48001 11.9998 9.48001C13.3918 9.48001 14.5198 10.608 14.5198 12C14.5198 13.392 13.3918 14.52 11.9998 14.52ZM2.75977 12C2.75977 17.16 6.83977 21.24 11.9998 21.24C17.1838 21.24 21.2398 17.04 21.2398 12C21.2398 6.84001 17.1598 2.76001 11.9998 2.76001C6.83977 2.76001 2.75977 6.84001 2.75977 12ZM4.31977 12C4.31977 10.128 4.94377 8.44801 6.02377 7.12801L8.75977 9.86401C8.35177 10.464 8.11177 11.208 8.11177 12C8.11177 12.792 8.35177 13.536 8.75977 14.136L6.02377 16.872C4.94377 15.552 4.31977 13.872 4.31977 12ZM7.12777 6.02401C8.44777 4.94401 10.1278 4.32001 11.9998 4.32001C13.8718 4.32001 15.5518 4.94401 16.8718 6.02401L14.1358 8.76001C13.5358 8.35201 12.7918 8.11201 11.9998 8.11201C11.2078 8.11201 10.4638 8.35201 9.86377 8.76001L7.12777 6.02401ZM7.12777 17.976L9.86377 15.24C10.4638 15.648 11.2078 15.888 11.9998 15.888C12.7918 15.888 13.5358 15.648 14.1358 15.24L16.8478 17.952C15.5518 19.032 13.8478 19.68 11.9998 19.68C10.1278 19.68 8.44777 19.056 7.12777 17.976ZM15.2398 14.136C15.6478 13.536 15.8878 12.792 15.8878 12C15.8878 11.208 15.6478 10.464 15.2398 9.86401L17.9758 7.12801C19.0558 8.44801 19.6798 10.128 19.6798 12C19.6798 13.824 19.0318 15.528 17.9518 16.848L15.2398 14.136Z" fill="black"/>
</svg>
