<svg width="24" height="24" viewBox="0 0 24 24" fill="none" xmlns="http://www.w3.org/2000/svg">
<path d="M19.848 20.9519L20.952 19.8479L4.15201 3.04789L3.04801 4.15189L19.848 20.9519ZM3.88801 20.1119C5.71201 21.9839 8.73601 21.9839 10.608 20.1119L13.488 17.2559L12.312 16.0799L9.43201 18.9599C7.89601 20.4719 6.57601 20.4719 5.04001 18.9599C3.52801 17.4239 3.52801 16.1039 5.04001 14.5679L7.92001 11.6879L6.74401 10.5119L3.88801 13.4159C2.01601 15.2639 2.01601 18.2879 3.88801 20.1119ZM10.512 6.74389L11.688 7.91989L14.568 5.03989C16.104 3.52789 17.424 3.52789 18.96 5.03989C20.472 6.57589 20.472 7.89589 18.96 9.43189L16.08 12.3119L17.256 13.4879L20.112 10.6079C21.984 8.73589 21.984 5.71189 20.112 3.88789C18.288 2.01589 15.264 2.01589 13.416 3.88789L10.512 6.74389Z" fill="black"/>
</svg>
