<svg width="24" height="24" viewBox="0 0 24 24" fill="none" xmlns="http://www.w3.org/2000/svg">
<path d="M10.08 13.9439C11.976 15.7679 14.952 15.7919 16.8 13.9199L20.112 10.6079C21.984 8.75993 21.984 5.71193 20.112 3.88793C18.288 2.01593 15.264 2.03993 13.416 3.88793L10.944 6.31193L12.096 7.48793L14.568 5.03993C16.128 3.50393 17.424 3.50393 18.96 5.03993C20.496 6.57593 20.52 7.89593 18.96 9.43193L15.624 12.7679C14.088 14.3279 12.72 14.3519 11.16 12.8399L10.44 12.1439L9.38401 13.2719L10.08 13.9439ZM3.88801 20.1119C5.71201 21.9839 8.73601 21.9599 10.584 20.1119L13.056 17.6879L11.928 16.5119L9.43201 18.9599C7.89601 20.4959 6.57601 20.4959 5.04001 18.9599C3.50401 17.3999 3.50401 16.1039 5.04001 14.5679L8.37601 11.2319C9.93601 9.67193 11.28 9.64793 12.84 11.1599L13.56 11.8559L14.616 10.7279L13.92 10.0559C12.024 8.23193 9.04801 8.20793 7.20001 10.0799L3.88801 13.3919C2.01601 15.2399 2.01601 18.2879 3.88801 20.1119Z" fill="black"/>
</svg>
