<svg width="24" height="24" viewBox="0 0 24 24" fill="none" xmlns="http://www.w3.org/2000/svg">
<path d="M19.8479 20.9519L20.9519 19.8479L4.15189 3.04789L3.04789 4.15189L19.8479 20.9519ZM3.88789 20.1119C5.71189 21.9839 8.73589 21.9839 10.6079 20.1119L13.4879 17.2559L12.3119 16.0799L9.43189 18.9599C7.89589 20.4719 6.57589 20.4719 5.03989 18.9599C3.52789 17.4239 3.52789 16.1039 5.03989 14.5679L7.91989 11.6879L6.74389 10.5119L3.88789 13.4159C2.01589 15.2639 2.01589 18.2879 3.88789 20.1119ZM10.5119 6.74389L11.6879 7.91989L14.5679 5.03989C16.1039 3.52789 17.4239 3.52789 18.9599 5.03989C20.4719 6.57589 20.4719 7.89589 18.9599 9.43189L16.0799 12.3119L17.2559 13.4879L20.1119 10.6079C21.9839 8.73589 21.9839 5.71189 20.1119 3.88789C18.2879 2.01589 15.2639 2.01589 13.4159 3.88789L10.5119 6.74389Z" fill="black"/>
</svg>
