<svg width="24" height="24" viewBox="0 0 24 24" fill="none" xmlns="http://www.w3.org/2000/svg">
<path d="M3.96001 21.3599H20.04C20.784 21.3599 21.36 20.7599 21.36 20.0399V3.95989C21.36 3.23989 20.784 2.63989 20.04 2.63989H3.96001C3.24001 2.63989 2.64001 3.23989 2.64001 3.95989V20.0399C2.64001 20.7599 3.24001 21.3599 3.96001 21.3599ZM5.30401 6.91189C5.30401 6.02389 6.02401 5.30389 6.91202 5.30389C7.80002 5.30389 8.52002 6.02389 8.52002 6.91189C8.52002 7.79989 7.80002 8.51989 6.91202 8.51989C6.02401 8.51989 5.30401 7.79989 5.30401 6.91189ZM5.52001 18.6959V9.74389H8.32802V18.6959H5.52001ZM10.056 18.6959V9.74389H12.72V10.9439H12.744C13.176 10.1519 14.136 9.52789 15.408 9.52789C17.808 9.52789 18.696 11.1119 18.696 13.7999V18.6959H15.936V14.3279C15.936 13.1279 15.864 11.9519 14.472 11.9519C13.2 11.9519 12.84 12.8879 12.84 14.2559V18.6959H10.056Z" fill="black"/>
</svg>
