<svg width="24" height="24" viewBox="0 0 24 24" fill="none" xmlns="http://www.w3.org/2000/svg">
<path d="M7.67976 16.3441L11.9998 22.1281L16.3198 16.3441C17.9758 14.1121 19.3438 11.8321 19.3438 9.33607C19.3198 4.72807 15.7918 1.87207 11.9998 1.87207C8.20776 1.87207 4.67976 4.72807 4.65576 9.33607C4.65576 11.8321 6.02376 14.1121 7.67976 16.3441ZM6.21576 9.33607C6.23976 5.66407 8.99976 3.43207 11.9998 3.43207C14.9998 3.43207 17.7598 5.66407 17.7838 9.33607C17.7838 11.3521 16.6558 13.2961 15.0718 15.4081L11.9998 19.5121L8.92776 15.4081C7.36776 13.2961 6.21576 11.3521 6.21576 9.33607ZM8.51976 9.24007C8.51976 11.1841 10.0798 12.7201 11.9998 12.7201C13.9198 12.7201 15.4798 11.1841 15.4798 9.24007C15.4798 7.32007 13.9198 5.76007 11.9998 5.76007C10.0798 5.76007 8.51976 7.32007 8.51976 9.24007ZM9.91176 9.24007C9.91176 8.08807 10.8478 7.15207 11.9998 7.15207C13.1518 7.15207 14.1118 8.08807 14.1118 9.24007C14.1118 10.4161 13.1518 11.3521 11.9998 11.3521C10.8478 11.3521 9.91176 10.4161 9.91176 9.24007Z" fill="black"/>
</svg>
