<svg width="24" height="24" viewBox="0 0 24 24" fill="none" xmlns="http://www.w3.org/2000/svg">
<path d="M6.89999 13.776V21.72L11.988 18.864L17.1 21.72V13.776C18.18 12.552 18.876 10.92 18.876 9.14403C18.876 5.37603 15.78 2.28003 11.988 2.28003C8.19599 2.28003 5.12399 5.37603 5.12399 9.14403C5.12399 10.92 5.79599 12.552 6.89999 13.776ZM6.68399 9.14403C6.68399 6.21603 9.05999 3.84003 11.988 3.84003C14.916 3.84003 17.316 6.21603 17.316 9.14403C17.316 12.096 14.916 14.472 11.988 14.472C9.05999 14.472 6.68399 12.096 6.68399 9.14403ZM8.36399 19.296V14.952C9.39599 15.624 10.644 16.032 11.988 16.032C13.332 16.032 14.58 15.624 15.612 14.952V19.296L11.988 17.28L8.36399 19.296Z" fill="black"/>
</svg>
