<svg width="24" height="24" viewBox="0 0 24 24" fill="none" xmlns="http://www.w3.org/2000/svg">
<path d="M6.9001 22.3199H17.1001C18.0841 22.3199 18.9001 21.5039 18.9001 20.5199V3.47993C18.9001 2.49593 18.0841 1.67993 17.1001 1.67993H6.9001C5.9161 1.67993 5.1001 2.49593 5.1001 3.47993V20.5199C5.1001 21.5039 5.9161 22.3199 6.9001 22.3199ZM6.6601 20.4959V3.50393C6.6601 3.28793 6.8041 3.14393 7.0201 3.14393H16.9561C17.1721 3.14393 17.3401 3.28793 17.3401 3.50393V20.4959C17.3401 20.7119 17.1721 20.8559 16.9561 20.8559H7.0201C6.8041 20.8559 6.6601 20.7119 6.6601 20.4959ZM10.7161 18.3119C10.7161 18.9839 11.2681 19.5839 11.9881 19.5839C12.6841 19.5839 13.2361 18.9839 13.2361 18.3119C13.2361 17.6159 12.6841 17.0639 11.9881 17.0639C11.2681 17.0639 10.7161 17.6159 10.7161 18.3119Z" fill="black"/>
</svg>
