<svg width="24" height="24" viewBox="0 0 24 24" fill="none" xmlns="http://www.w3.org/2000/svg">
<path d="M6.89998 22.3199H17.1C18.084 22.3199 18.9 21.5039 18.9 20.5199V3.47993C18.9 2.49593 18.084 1.67993 17.1 1.67993H6.89998C5.91598 1.67993 5.09998 2.49593 5.09998 3.47993V20.5199C5.09998 21.5039 5.91598 22.3199 6.89998 22.3199ZM6.65998 20.4959V3.50393C6.65998 3.28793 6.80398 3.14393 7.01998 3.14393H16.956C17.172 3.14393 17.34 3.28793 17.34 3.50393V20.4959C17.34 20.7119 17.172 20.8559 16.956 20.8559H7.01998C6.80398 20.8559 6.65998 20.7119 6.65998 20.4959ZM10.716 18.3119C10.716 18.9839 11.268 19.5839 11.988 19.5839C12.684 19.5839 13.236 18.9839 13.236 18.3119C13.236 17.6159 12.684 17.0639 11.988 17.0639C11.268 17.0639 10.716 17.6159 10.716 18.3119Z" fill="black"/>
</svg>
