<svg width="24" height="24" viewBox="0 0 24 24" fill="none" xmlns="http://www.w3.org/2000/svg">
<path d="M8.00394 20.8801H10.9559C12.5639 20.8801 13.9559 20.2801 14.9399 18.9841C15.0599 18.8401 15.1799 18.6721 15.2759 18.5041H16.1159C18.9479 18.5041 21.0599 16.6321 21.0599 14.0161C21.0599 11.3521 18.9479 9.48012 16.1159 9.48012H2.93994V15.0001C2.93994 16.8241 3.27594 18.0241 4.04394 18.9841C5.05194 20.2801 6.39594 20.8801 8.00394 20.8801ZM4.59594 15.9841V10.9441H14.3639V15.9841C14.3639 18.2641 13.4519 19.3201 11.1239 19.3201H7.85994C5.55594 19.3201 4.59594 18.2881 4.59594 15.9841ZM6.61194 7.92012H8.26794C8.24394 6.88812 8.74794 6.48012 10.0919 6.28812L11.8199 6.07212C13.6919 5.85612 14.8679 4.87212 14.7719 3.12012H13.1399C13.1399 4.15212 12.6359 4.56012 11.3159 4.75212L9.58794 4.96812C7.69194 5.18412 6.51594 6.16812 6.61194 7.92012ZM15.8279 17.0401C15.9719 16.4641 16.0199 15.7921 16.0199 15.0001V10.9441C18.4679 10.9441 19.4039 11.6641 19.4039 13.5841V14.4241C19.4039 16.2721 18.5159 17.0401 16.2119 17.0401H15.8279Z" fill="black"/>
</svg>
