<svg width="24" height="24" viewBox="0 0 24 24" fill="none" xmlns="http://www.w3.org/2000/svg">
<path d="M17.6642 22.3199L22.3202 17.6639L12.9842 8.32793L13.5602 7.72793L11.8322 5.99993L11.2322 6.59993L9.31218 4.65593L9.91218 4.05593L8.18418 2.32793L7.58418 2.95193L6.31218 1.67993L1.68018 6.33593L17.6642 22.3199ZM3.62418 6.33593L6.31218 3.62393L12.7682 10.0559C12.0962 10.1039 11.4482 10.4159 10.8962 10.9199C10.3922 11.4239 10.1042 12.0959 10.0562 12.7439L3.62418 6.33593ZM11.8322 14.5439C11.1362 13.8239 11.1602 12.6239 11.8802 11.8799C12.6482 11.1599 13.8242 11.1599 14.5202 11.8319L20.3762 17.6639L17.6642 20.3759L11.8322 14.5439ZM12.3122 13.3439C12.3122 13.8959 12.7682 14.3759 13.3442 14.3759C13.8962 14.3759 14.3762 13.8959 14.3762 13.3439C14.3762 12.7679 13.8962 12.3119 13.3442 12.3119C12.7682 12.3119 12.3122 12.7679 12.3122 13.3439Z" fill="black"/>
</svg>
