<svg width="24" height="24" viewBox="0 0 24 24" fill="none" xmlns="http://www.w3.org/2000/svg">
<path d="M14.8681 19.8479L4.81212 9.76791L8.41212 6.19191L18.4681 16.2719C19.0681 16.8239 19.2841 17.4719 19.2841 18.1199C19.2841 19.5359 18.1561 20.6639 16.7401 20.6639C16.0921 20.6639 15.4441 20.4239 14.8681 19.8479ZM2.72412 9.76791L13.1401 20.1839V21.8399H20.4361V11.9279H21.2761V9.47991H20.4361V6.74391H21.2761V4.29591H20.4361V2.15991H13.3081V8.99991L8.38812 4.10391L2.72412 9.76791ZM15.3481 18.1199C15.3481 18.8639 15.9481 19.5359 16.7641 19.5359C17.5321 19.5359 18.1321 18.8639 18.1321 18.1199C18.1321 17.3519 17.5081 16.7519 16.7641 16.7519C15.9481 16.7519 15.3481 17.3519 15.3481 18.1199Z" fill="black"/>
</svg>
