<svg width="24" height="24" viewBox="0 0 24 24" fill="none" xmlns="http://www.w3.org/2000/svg">
<path d="M13.56 21.8399H20.856V2.15991H13.728V8.99991L8.80804 4.10391L3.14404 9.76791L13.56 20.1839V21.8399ZM5.23204 9.76791L8.83204 6.19191L18.888 16.2719C19.488 16.8479 19.704 17.4719 19.704 18.1199C19.704 19.5359 18.576 20.6639 17.16 20.6639C16.512 20.6639 15.864 20.4239 15.288 19.8479L5.23204 9.76791ZM15.168 5.80791C15.168 4.63191 16.104 3.69591 17.328 3.69591C18.456 3.69591 19.392 4.63191 19.392 5.80791C19.392 6.86391 18.456 7.91991 17.328 7.91991C16.128 7.91991 15.168 6.86391 15.168 5.80791ZM15.768 18.1199C15.768 18.8639 16.368 19.5359 17.184 19.5359C17.952 19.5359 18.552 18.8639 18.552 18.1199C18.552 17.3519 17.928 16.7519 17.184 16.7519C16.368 16.7519 15.768 17.3519 15.768 18.1199ZM16.032 5.80791C16.032 6.45591 16.56 7.07991 17.328 7.07991C18.024 7.07991 18.576 6.47991 18.576 5.80791C18.552 5.08791 18.024 4.53591 17.328 4.51191C16.584 4.51191 16.032 5.08791 16.032 5.80791Z" fill="black"/>
</svg>
