<svg width="24" height="24" viewBox="0 0 24 24" fill="none" xmlns="http://www.w3.org/2000/svg">
<path d="M17.6641 22.3199L22.3201 17.6639L6.31205 1.67993L1.68005 6.33593L17.6641 22.3199ZM3.62405 6.33593L6.31205 3.62393L12.7681 10.0559C12.0961 10.1039 11.4481 10.4159 10.8961 10.9199C10.3921 11.4239 10.1041 12.0959 10.0561 12.7439L3.62405 6.33593ZM5.32805 6.35993C5.32805 6.91193 5.78405 7.36793 6.33605 7.36793C6.91205 7.36793 7.39205 6.91193 7.39205 6.35993C7.39205 5.78393 6.91205 5.30393 6.33605 5.30393C5.78405 5.30393 5.32805 5.78393 5.32805 6.35993ZM11.8321 14.5439C11.1361 13.8239 11.1601 12.6239 11.8801 11.8799C12.6481 11.1599 13.8241 11.1599 14.5201 11.8319L20.3761 17.6639L17.6641 20.3759L11.8321 14.5439ZM12.3121 13.3439C12.3121 13.8959 12.7681 14.3759 13.3441 14.3759C13.8961 14.3759 14.3761 13.8959 14.3761 13.3439C14.3761 12.7679 13.8961 12.3119 13.3441 12.3119C12.7681 12.3119 12.3121 12.7679 12.3121 13.3439Z" fill="black"/>
</svg>
