<svg width="24" height="24" viewBox="0 0 24 24" fill="none" xmlns="http://www.w3.org/2000/svg">
<path d="M2.64001 9.27595H21.36V2.69995H2.66401L2.64001 9.27595ZM4.03201 7.88395V4.06795H10.56C10.128 4.57195 9.88802 5.24395 9.86402 5.98795C9.88802 6.70795 10.128 7.37995 10.56 7.88395H4.03201ZM7.63202 16.956L12 21.2999L16.344 16.956L15.36 15.996L14.112 17.22L12.744 18.66V10.98H11.256V18.684C10.8 18.18 10.344 17.7 9.86402 17.22L8.61602 15.996L7.63202 16.956ZM11.256 5.98795C11.256 4.93195 12.12 4.06795 13.104 4.06795H19.992V7.88395H13.104C12.12 7.88395 11.256 7.01995 11.256 5.98795ZM12.264 5.98795C12.264 6.53995 12.72 7.01995 13.296 7.01995C13.848 7.01995 14.328 6.53995 14.328 5.98795C14.328 5.41195 13.848 4.95595 13.296 4.95595C12.72 4.95595 12.264 5.41195 12.264 5.98795Z" fill="black"/>
</svg>
