<svg width="24" height="24" viewBox="0 0 24 24" fill="none" xmlns="http://www.w3.org/2000/svg">
<path d="M5.62304 21.1863C4.92768 21.1856 4.261 20.9085 3.76931 20.4158C3.27761 19.9231 3.00107 19.2551 3.00037 18.5583V2.81396H18.8835V7.15727H8.24571V18.5603C8.24448 19.2567 7.96769 19.9242 7.47605 20.4165C6.98442 20.9088 6.31805 21.1856 5.62304 21.1863ZM4.39258 4.20571V18.5549C4.39293 18.8818 4.52268 19.1952 4.75336 19.4264C4.98403 19.6575 5.29681 19.7876 5.62304 19.7879C5.94926 19.7876 6.26204 19.6575 6.49272 19.4264C6.72339 19.1952 6.85314 18.8818 6.85349 18.5549V5.76021H17.4913V4.20571H4.39258Z" fill="black"/>
<path d="M18.6462 21.1861L5.62304 21.1863L5.62303 19.7911H18.6462C18.9011 19.7909 19.1455 19.6894 19.3257 19.5087C19.506 19.3281 19.6073 19.0832 19.6075 18.8278V7.15511H18.1874V5.76005H20.9997V18.8278C20.9992 19.4531 20.7511 20.0527 20.3098 20.4948C19.8686 20.937 19.2702 21.1856 18.6462 21.1861Z" fill="black"/>
<path d="M17.6471 9.25701H10.098V10.6521H17.6471V9.25701Z" fill="black"/>
<path d="M17.6471 12.9234H10.098V14.3184H17.6471V12.9234Z" fill="black"/>
</svg>
