<svg width="24" height="24" viewBox="0 0 24 24" fill="none" xmlns="http://www.w3.org/2000/svg">
<path d="M5.62316 21.1863C4.9278 21.1856 4.26112 20.9085 3.76943 20.4158C3.27774 19.9231 3.00119 19.2551 3.00049 18.5583V2.81396H18.8837V7.15727H8.24583V18.5603C8.2446 19.2567 7.96781 19.9242 7.47617 20.4165C6.98454 20.9088 6.31817 21.1856 5.62316 21.1863ZM4.3927 4.20571V18.5549C4.39305 18.8818 4.5228 19.1952 4.75348 19.4264C4.98416 19.6575 5.29693 19.7876 5.62316 19.7879C5.94939 19.7876 6.26216 19.6575 6.49284 19.4264C6.72352 19.1952 6.85326 18.8818 6.85361 18.5549V5.76021H17.4915V4.20571H4.3927Z" fill="black"/>
<path d="M18.6463 21.1861L5.62316 21.1863L5.62315 19.7911H18.6463C18.9012 19.7909 19.1456 19.6894 19.3258 19.5087C19.5061 19.3281 19.6074 19.0832 19.6076 18.8278V7.15511H18.1876V5.76005H20.9998V18.8278C20.9993 19.4531 20.7512 20.0527 20.3099 20.4948C19.8687 20.937 19.2703 21.1856 18.6463 21.1861Z" fill="black"/>
<path d="M17.6472 9.25701H10.0981V10.6521H17.6472V9.25701Z" fill="black"/>
<path d="M17.6472 12.9234H10.0981V14.3184H17.6472V12.9234Z" fill="black"/>
</svg>
