<svg width="24" height="24" viewBox="0 0 24 24" fill="none" xmlns="http://www.w3.org/2000/svg">
<path d="M12.0958 16.704C14.4238 16.704 15.6958 14.832 15.6718 11.904C15.6478 9.04801 14.3278 7.34401 12.0958 7.34401C10.3678 7.34401 8.90377 8.66401 8.90377 10.488C8.90377 12.216 10.1998 13.512 11.8558 13.512C12.7438 13.512 13.5358 13.128 13.9438 12.432H14.1358C14.1598 14.28 13.5838 15.336 12.0718 15.336C10.9918 15.336 10.4398 14.832 10.3438 13.848H8.80777C8.92777 15.576 10.2958 16.704 12.0958 16.704ZM5.75977 21.24H18.2398V19.68H5.75977V21.24ZM5.75977 4.32001H18.2398V2.76001H5.75977V4.32001ZM10.4398 10.704V10.152C10.4398 9.21601 10.9678 8.73601 12.0478 8.73601H12.2398C13.3438 8.73601 13.8718 9.24001 13.8718 10.152V10.704C13.8718 11.64 13.3438 12.12 12.2398 12.12H12.0478C10.9678 12.12 10.4398 11.64 10.4398 10.704Z" fill="black"/>
</svg>
