<svg width="24" height="24" viewBox="0 0 24 24" fill="none" xmlns="http://www.w3.org/2000/svg">
<path d="M10.7039 16.704C13.0319 16.704 14.3039 14.832 14.2799 11.904C14.2559 9.04801 12.9359 7.34401 10.7039 7.34401C8.97586 7.34401 7.51186 8.66401 7.51186 10.488C7.51186 12.216 8.80786 13.512 10.4639 13.512C11.3519 13.512 12.1439 13.128 12.5519 12.432H12.7439C12.7679 14.28 12.1919 15.336 10.6799 15.336C9.59985 15.336 9.04785 14.832 8.95186 13.848H7.41586C7.53586 15.576 8.90386 16.704 10.7039 16.704ZM4.15186 21.24H10.6079C15.7919 21.24 19.8479 17.016 19.8479 12C19.8479 6.84001 15.7679 2.76001 10.6079 2.76001H4.15186V4.32001H10.6079C14.9279 4.32001 18.2879 7.68001 18.2879 12C18.2879 16.176 14.9279 19.68 10.6079 19.68H4.15186V21.24ZM9.04785 10.704V10.152C9.04785 9.21601 9.57586 8.73601 10.6559 8.73601H10.8479C11.9519 8.73601 12.4799 9.24001 12.4799 10.152V10.704C12.4799 11.64 11.9519 12.12 10.8479 12.12H10.6559C9.57586 12.12 9.04785 11.64 9.04785 10.704Z" fill="black"/>
</svg>
