<svg width="24" height="24" viewBox="0 0 24 24" fill="none" xmlns="http://www.w3.org/2000/svg">
<path d="M13.4879 16.704C15.8159 16.704 17.0879 14.832 17.0639 11.904C17.0399 9.04801 15.7199 7.34401 13.4879 7.34401C11.7599 7.34401 10.2959 8.66401 10.2959 10.488C10.2959 12.216 11.5919 13.512 13.2479 13.512C14.1359 13.512 14.9279 13.128 15.3119 12.432H15.5279C15.5519 14.28 14.9759 15.336 13.4639 15.336C12.3839 15.336 11.8319 14.832 11.7359 13.848H10.1999C10.3199 15.576 11.6879 16.704 13.4879 16.704ZM4.15186 12C4.15186 17.16 8.23186 21.24 13.3919 21.24H19.8479V19.68H13.3919C9.09586 19.68 5.71186 16.296 5.71186 12C5.71186 7.80001 9.09586 4.32001 13.3919 4.32001H19.8479V2.76001H13.3919C8.20786 2.76001 4.15186 6.96001 4.15186 12ZM11.8319 10.704V10.152C11.8319 9.21601 12.3599 8.73601 13.4399 8.73601H13.6319C14.7359 8.73601 15.2639 9.24001 15.2639 10.152V10.704C15.2639 11.64 14.7359 12.12 13.6319 12.12H13.4399C12.3599 12.12 11.8319 11.64 11.8319 10.704Z" fill="black"/>
</svg>
