<svg width="24" height="24" viewBox="0 0 24 24" fill="none" xmlns="http://www.w3.org/2000/svg">
<path d="M11.9998 21.24C17.1838 21.24 21.2398 17.04 21.2398 12C21.2398 6.84001 17.1598 2.76001 11.9998 2.76001C6.83977 2.76001 2.75977 6.84001 2.75977 12C2.75977 17.16 6.83977 21.24 11.9998 21.24ZM4.31977 12C4.31977 7.68001 7.70377 4.32001 11.9998 4.32001C16.3198 4.32001 19.6798 7.68001 19.6798 12C19.6798 16.176 16.3198 19.68 11.9998 19.68C7.70377 19.68 4.31977 16.296 4.31977 12ZM8.80777 13.848C8.92777 15.576 10.2958 16.704 12.0958 16.704C14.4238 16.704 15.6958 14.832 15.6718 11.904C15.6478 9.04801 14.3278 7.34401 12.0958 7.34401C10.3678 7.34401 8.90377 8.66401 8.90377 10.488C8.90377 12.216 10.1998 13.512 11.8558 13.512C12.7438 13.512 13.5358 13.128 13.9198 12.432H14.1358C14.1598 14.28 13.5838 15.336 12.0718 15.336C10.9918 15.336 10.4398 14.832 10.3438 13.848H8.80777ZM10.4398 10.704V10.152C10.4398 9.21601 10.9678 8.73601 12.0478 8.73601H12.2398C13.3438 8.73601 13.8718 9.24001 13.8718 10.152V10.704C13.8718 11.64 13.3438 12.12 12.2398 12.12H12.0478C10.9678 12.12 10.4398 11.64 10.4398 10.704Z" fill="black"/>
</svg>
