<svg width="24" height="24" viewBox="0 0 24 24" fill="none" xmlns="http://www.w3.org/2000/svg">
<path d="M11.9998 21.24C17.1838 21.24 21.2398 17.04 21.2398 12C21.2398 6.84001 17.1598 2.76001 11.9998 2.76001C6.83977 2.76001 2.75977 6.84001 2.75977 12C2.75977 17.16 6.83977 21.24 11.9998 21.24ZM4.31977 12C4.31977 7.68001 7.70377 4.32001 11.9998 4.32001C13.8718 4.32001 15.5758 4.94401 16.8958 6.02401L6.04777 16.872C4.96777 15.552 4.31977 13.872 4.31977 12ZM7.12777 17.952L17.9758 7.10401C19.0558 8.42401 19.6798 10.128 19.6798 12C19.6798 16.176 16.3198 19.68 11.9998 19.68C10.1278 19.68 8.44777 19.032 7.12777 17.952Z" fill="black"/>
</svg>
