<svg width="24" height="24" viewBox="0 0 24 24" fill="none" xmlns="http://www.w3.org/2000/svg">
<path d="M18.0719 21.5999L21.5999 17.9279L15.9839 12.8639L11.7119 17.0399C10.8239 16.3919 9.9599 15.6479 9.1439 14.8559C8.3519 14.0399 7.6079 13.1759 6.9599 12.2879L11.1359 8.0159L6.0719 2.3999L2.3999 5.9519C3.1199 9.5999 5.3039 13.1519 8.0639 15.9359C10.8719 18.7199 14.3759 20.9039 18.0719 21.5999ZM4.1039 6.4559L5.9999 4.6319L8.9999 7.9919L6.0719 10.9679C5.1839 9.5279 4.5119 8.0159 4.1039 6.4559ZM13.0319 17.9279L16.0079 14.9999L19.3679 17.9999L17.5439 19.8959C15.9599 19.4879 14.4479 18.8159 13.0319 17.9279Z" fill="black"/>
</svg>
