<svg width="24" height="24" viewBox="0 0 24 24" fill="none" xmlns="http://www.w3.org/2000/svg">
<path d="M11.9997 14.8125C11.1546 14.8115 10.3444 14.4665 9.74687 13.8533C9.14935 13.2401 8.81331 12.4087 8.8125 11.5415V6.08346C8.81331 5.21631 9.14935 4.38491 9.74687 3.77168C10.3444 3.15845 11.1546 2.8135 11.9997 2.8125C12.8449 2.8135 13.6551 3.15843 14.2527 3.77164C14.8504 4.38485 15.1865 5.21625 15.1875 6.08346V11.5415C15.1865 12.4087 14.8504 13.2401 14.2527 13.8534C13.6551 14.4666 12.8449 14.8115 11.9997 14.8125ZM11.9997 4.37965C11.5595 4.38015 11.1375 4.55984 10.8263 4.87927C10.5151 5.19871 10.3401 5.63179 10.3398 6.08346V11.5415C10.3401 11.9932 10.5151 12.4263 10.8263 12.7457C11.1375 13.0652 11.5595 13.2448 11.9997 13.2453C12.44 13.2448 12.862 13.0652 13.1733 12.7458C13.4846 12.4263 13.6597 11.9933 13.6602 11.5415V6.08346C13.6597 5.63174 13.4846 5.19865 13.1733 4.87924C12.862 4.55982 12.44 4.38015 11.9997 4.37965Z" fill="black"/>
<path d="M11.9997 17.8125C10.3593 17.8105 8.78655 17.158 7.62664 15.998C6.46673 14.838 5.81431 13.2654 5.8125 11.625H7.36879C7.37011 12.8528 7.8584 14.0299 8.72656 14.8981C9.59472 15.7664 10.7719 16.2548 11.9997 16.2563C13.2276 16.255 14.4049 15.7666 15.2732 14.8984C16.1415 14.0301 16.6299 12.8529 16.6312 11.625H18.1875C18.1857 13.2655 17.5332 14.8382 16.3731 15.9982C15.2131 17.1582 13.6402 17.8107 11.9997 17.8125Z" fill="black"/>
<path d="M12.75 17.0625H11.25V20.0625H12.75V17.0625Z" fill="black"/>
<path d="M14.4375 19.6875H9.5625V21.1875H14.4375V19.6875Z" fill="black"/>
</svg>
