<svg width="24" height="24" viewBox="0 0 24 24" fill="none" xmlns="http://www.w3.org/2000/svg">
<path d="M2.63999 8.18395V12H4.12799V8.18395C4.12799 7.51195 4.77599 6.83995 5.47199 6.83995H19.728C19.224 7.29595 18.744 7.75195 18.264 8.20795L17.016 9.47995L17.976 10.464L22.32 6.09595L17.976 1.75195L17.016 2.73595L18.264 3.98395C18.72 4.43995 19.2 4.89595 19.68 5.35195H5.47199C4.05599 5.35195 2.63999 6.81595 2.63999 8.18395ZM1.67999 17.904L6.02399 22.248L6.98399 21.264L5.73599 19.992C5.27999 19.56 4.79999 19.08 4.31999 18.648H18.528C19.944 18.648 21.36 17.16 21.36 15.816V12H19.872V15.816C19.872 16.488 19.224 17.16 18.528 17.16H4.29599C4.77599 16.704 5.27999 16.248 5.73599 15.792L6.98399 14.496L6.02399 13.536L1.67999 17.904Z" fill="black"/>
</svg>
