<svg width="24" height="24" viewBox="0 0 24 24" fill="none" xmlns="http://www.w3.org/2000/svg">
<path d="M2.75977 11.8799V12.6479H4.31977V11.8799C4.31977 7.65589 7.72777 4.31989 11.9758 4.31989C14.5438 4.31989 16.7758 5.54389 18.1678 7.46389C17.4958 7.41589 16.7518 7.39189 16.0798 7.39189H14.2798V8.78389H20.4238V2.63989H19.0318V4.43989C19.0318 5.03989 19.0558 5.66389 19.0798 6.28789C17.2318 3.93589 14.5918 2.75989 11.9758 2.75989C6.86377 2.75989 2.75977 6.79189 2.75977 11.8799ZM3.59977 21.3599H4.99177V19.5599C4.99177 18.9599 4.96777 18.3359 4.94377 17.7119C6.79177 20.0639 9.43177 21.2399 12.0238 21.2399C17.1358 21.2399 21.2398 17.1839 21.2398 12.1199V11.3519H19.6798V12.1199C19.6798 16.3439 16.2958 19.6799 12.0238 19.6799C9.47977 19.6799 7.24777 18.4319 5.85577 16.5359C6.52777 16.5839 7.27177 16.5839 7.94377 16.5839H9.74377V15.2159H3.59977V21.3599Z" fill="black"/>
</svg>
