<svg width="24" height="24" viewBox="0 0 24 24" fill="none" xmlns="http://www.w3.org/2000/svg">
<path d="M12 21.2999C17.064 21.2999 21.24 17.124 21.24 12.06C21.24 6.99595 17.064 2.81995 12 2.81995C9.12001 2.81995 6.62401 4.16395 4.94401 6.34795C4.94401 5.72395 4.96801 5.09995 4.96801 4.49995V2.69995H3.60001V8.84395H9.74401V7.45195H7.94401C7.24801 7.45195 6.52801 7.47595 5.85601 7.52395C7.22401 5.60395 9.45601 4.37995 12 4.37995C16.224 4.37995 19.68 7.85995 19.68 12.06C19.68 16.26 16.224 19.7399 12 19.7399C7.80001 19.7399 4.32001 16.26 4.32001 12.06H2.76001C2.76001 17.124 6.93601 21.2999 12 21.2999Z" fill="black"/>
</svg>
