<svg width="24" height="24" viewBox="0 0 24 24" fill="none" xmlns="http://www.w3.org/2000/svg">
<path d="M5.20792 18.1801H18.7919V16.8121H16.9679C18.9599 15.3721 20.1599 13.0681 20.1599 10.5001C20.1599 6.01209 16.4879 2.34009 11.9999 2.34009C7.51192 2.34009 3.83992 6.01209 3.83992 10.5001C3.83992 13.0681 5.03992 15.3481 7.03192 16.8121H5.20792V18.1801ZM1.91992 21.6601H22.0799V14.8201H20.5199V20.1961H3.47992V14.8201H1.91992V21.6601ZM5.39992 10.5001C5.39992 6.85209 8.35192 3.90009 11.9999 3.90009C15.6479 3.90009 18.5999 6.85209 18.5999 10.5001C18.5999 13.5721 16.4399 16.1641 13.5839 16.8121H10.4399C7.55992 16.1641 5.39992 13.5721 5.39992 10.5001Z" fill="black"/>
</svg>
