<svg width="24" height="24" viewBox="0 0 24 24" fill="none" xmlns="http://www.w3.org/2000/svg">
<path d="M15.2281 16.4039L20.9161 22.0679L22.0681 20.9159L16.4041 15.2279C17.5561 13.8359 18.2521 12.0359 18.2521 10.0919C18.2521 5.60389 14.5801 1.93188 10.0921 1.93188C5.60413 1.93188 1.93213 5.60389 1.93213 10.0919C1.93213 14.5799 5.60413 18.2519 10.0921 18.2519C12.0361 18.2519 13.8361 17.5559 15.2281 16.4039ZM3.49213 10.0919C3.49213 6.44389 6.46813 3.49188 10.0921 3.49188C13.7401 3.49188 16.6921 6.44389 16.6921 10.0919C16.6921 13.7159 13.7401 16.6919 10.0921 16.6919C6.46813 16.6919 3.49213 13.7159 3.49213 10.0919ZM7.09213 11.1479C7.06813 12.6119 8.10013 13.6679 9.58813 13.8839V14.8199H10.5961V13.8839C12.0601 13.7159 13.0921 12.7559 13.0921 11.5319C13.0921 10.3559 12.2761 9.65989 10.9321 9.49189L9.66013 9.32389C8.86813 9.22789 8.55613 8.96389 8.55613 8.33989C8.55613 7.57189 9.10813 7.25989 10.1161 7.25989C11.2681 7.25989 11.6521 7.61989 11.6281 8.67589H12.9241C12.9241 7.37989 11.9641 6.37189 10.5961 6.15589V5.21989H9.58813V6.17988C8.26813 6.34789 7.33213 7.25989 7.33213 8.43589C7.33213 9.56389 8.05213 10.2359 9.30013 10.3799L10.5241 10.5239C11.4121 10.6199 11.7721 10.9079 11.7721 11.6039C11.7721 12.4439 11.2921 12.7799 10.1161 12.7799C8.79613 12.7799 8.36413 12.3479 8.36413 11.1479H7.09213Z" fill="black"/>
</svg>
