<svg width="24" height="24" viewBox="0 0 24 24" fill="none" xmlns="http://www.w3.org/2000/svg">
<path d="M15.228 16.4039L20.916 22.0679L22.068 20.9159L16.404 15.2279C17.556 13.8359 18.252 12.0359 18.252 10.0919C18.252 5.60389 14.58 1.93188 10.092 1.93188C5.60401 1.93188 1.93201 5.60389 1.93201 10.0919C1.93201 14.5799 5.60401 18.2519 10.092 18.2519C12.036 18.2519 13.836 17.5559 15.228 16.4039ZM3.49201 10.0919C3.49201 6.44389 6.46801 3.49188 10.092 3.49188C13.74 3.49188 16.692 6.44389 16.692 10.0919C16.692 13.7159 13.74 16.6919 10.092 16.6919C6.46801 16.6919 3.49201 13.7159 3.49201 10.0919Z" fill="black"/>
</svg>
