<svg width="24" height="24" viewBox="0 0 24 24" fill="none" xmlns="http://www.w3.org/2000/svg">
<path d="M15.2281 16.4039L20.9161 22.0679L22.0681 20.9159L16.4041 15.2279C17.5561 13.8359 18.2521 12.0359 18.2521 10.0919C18.2521 5.60389 14.5801 1.93188 10.0921 1.93188C5.60413 1.93188 1.93213 5.60389 1.93213 10.0919C1.93213 14.5799 5.60413 18.2519 10.0921 18.2519C12.0361 18.2519 13.8361 17.5559 15.2281 16.4039ZM3.49213 10.0919C3.49213 6.44389 6.46813 3.49188 10.0921 3.49188C13.7401 3.49188 16.6921 6.44389 16.6921 10.0919C16.6921 13.7159 13.7401 16.6919 10.0921 16.6919C6.46813 16.6919 3.49213 13.7159 3.49213 10.0919Z" fill="black"/>
</svg>
