<svg width="24" height="24" viewBox="0 0 24 24" fill="none" xmlns="http://www.w3.org/2000/svg">
<path d="M12.0001 21.8399C18.2401 19.3679 21.3601 15.4319 21.3601 10.1279V5.08791C18.6961 3.16791 15.4561 2.15991 12.0001 2.15991C8.54414 2.15991 5.30414 3.16791 2.64014 5.08791V10.1279C2.64014 15.4319 5.76014 19.3679 12.0001 21.8399ZM4.20014 10.1279V5.83191C6.50414 4.34391 9.07214 3.62391 12.0001 3.62391C14.9281 3.62391 17.4961 4.34391 19.8001 5.83191V10.1279C19.8001 14.7839 17.4001 17.9519 12.0001 20.2319C6.60014 17.9519 4.20014 14.7839 4.20014 10.1279ZM7.32014 11.0639C7.32014 11.1839 7.34414 11.2799 7.41614 11.3759L9.52814 14.8079C10.0561 15.7199 11.0161 16.2959 12.1201 16.2959C13.7521 16.2959 15.0481 15.0479 15.1441 13.4159L15.2641 7.82391C15.2641 7.53591 15.0481 7.29591 14.7601 7.29591C14.4721 7.29591 14.2561 7.53591 14.2561 7.79991L14.1841 10.7999H13.6561L13.6801 6.79191C13.6801 6.50391 13.4881 6.26391 13.1761 6.26391C12.8881 6.26391 12.6721 6.50391 12.6721 6.76791L12.6481 10.5599H12.1201L12.0961 6.26391C12.0961 5.99991 11.9041 5.75991 11.5921 5.75991C11.3041 5.75991 11.0881 5.99991 11.0881 6.28791L11.1121 10.7999H10.5601L10.5121 7.29591C10.5121 7.03191 10.3201 6.76791 10.0081 6.76791C9.69614 6.76791 9.50414 7.03191 9.50414 7.31991L9.57614 12.5279L8.47214 10.7279C8.37614 10.5359 8.16014 10.4159 7.94414 10.4159C7.58414 10.4159 7.32014 10.6799 7.32014 11.0639Z" fill="black"/>
</svg>
