<svg width="24" height="24" viewBox="0 0 24 24" fill="none" xmlns="http://www.w3.org/2000/svg">
<path d="M12 21.8399C18.24 19.3679 21.36 15.4319 21.36 10.1279V5.08791C18.696 3.16791 15.456 2.15991 12 2.15991C8.54402 2.15991 5.30401 3.16791 2.64001 5.08791V10.1279C2.64001 15.4319 5.76001 19.3679 12 21.8399ZM4.20001 10.1279V5.83191C6.50401 4.34391 9.07202 3.62391 12 3.62391C14.928 3.62391 17.496 4.34391 19.8 5.83191V10.1279C19.8 14.7839 17.4 17.9519 12 20.2319C6.60001 17.9519 4.20001 14.7839 4.20001 10.1279ZM7.99202 11.2559L11.28 14.5679L16.896 8.92791L15.792 7.84791L11.28 12.3359L9.07202 10.1519L7.99202 11.2559Z" fill="black"/>
</svg>
