<svg width="24" height="24" viewBox="0 0 24 24" fill="none" xmlns="http://www.w3.org/2000/svg">
<path d="M12.0001 21.8399C18.2401 19.3679 21.3601 15.4319 21.3601 10.1279V5.08791C18.6961 3.16791 15.4561 2.15991 12.0001 2.15991C8.54414 2.15991 5.30414 3.16791 2.64014 5.08791V10.1279C2.64014 15.4319 5.76014 19.3679 12.0001 21.8399ZM4.20014 10.1279V5.83191C6.50414 4.34391 9.07214 3.62391 12.0001 3.62391C14.9281 3.62391 17.4961 4.34391 19.8001 5.83191V10.1279C19.8001 14.7839 17.4001 17.9519 12.0001 20.2319C6.60014 17.9519 4.20014 14.7839 4.20014 10.1279ZM7.99214 11.2559L11.2801 14.5679L16.8961 8.92791L15.7921 7.84791L11.2801 12.3359L9.07214 10.1519L7.99214 11.2559Z" fill="black"/>
</svg>
