<svg width="24" height="24" viewBox="0 0 24 24" fill="none" xmlns="http://www.w3.org/2000/svg">
<path d="M18.9959 17.3281V15.8641H8.96395L8.57995 13.8481H19.8599L21.8519 4.84811L6.80395 4.82411L6.39595 2.80811H2.14795V4.29611H5.09995L7.66795 17.3281H18.9959ZM7.09195 6.31211H19.9319L18.6119 12.3841H8.29195L7.09195 6.31211ZM7.23595 19.8721C7.23595 20.5681 7.81195 21.1921 8.55595 21.1921C9.25195 21.1921 9.85195 20.5681 9.85195 19.8721C9.85195 19.1521 9.25195 18.5761 8.55595 18.5761C7.81195 18.5761 7.23595 19.1521 7.23595 19.8721ZM16.7399 19.8721C16.7399 20.5681 17.3159 21.1921 18.0599 21.1921C18.7799 21.1921 19.3559 20.5681 19.3559 19.8721C19.3559 19.1521 18.7799 18.5761 18.0599 18.5761C17.3159 18.5761 16.7399 19.1521 16.7399 19.8721Z" fill="black"/>
</svg>
