<svg width="24" height="24" viewBox="0 0 24 24" fill="none" xmlns="http://www.w3.org/2000/svg">
<path d="M3.72021 20.8199H20.2802V9.05993H16.8002V8.09993C16.8002 6.70793 16.5122 5.72393 15.9122 4.95593C15.0002 3.80393 13.5122 3.17993 12.0002 3.17993C10.4882 3.17993 9.00022 3.80393 8.08822 4.95593C7.48822 5.74793 7.20022 6.73193 7.20022 8.09993V9.05993H3.72021V20.8199ZM5.28022 19.3559V10.5239H7.20022V12.9719H8.76022V10.5239H15.2402V12.9719H16.8002V10.5239H18.7202V19.3559H5.28022ZM8.76022 9.05993V7.35593C8.76022 5.60393 9.67222 4.69193 11.5202 4.69193H12.5042C14.3042 4.69193 15.2402 5.60393 15.2402 7.35593V9.05993H8.76022Z" fill="black"/>
</svg>
