<svg width="24" height="24" viewBox="0 0 24 24" fill="none" xmlns="http://www.w3.org/2000/svg">
<path d="M3.71997 20.8199H20.28V9.05993H16.8V8.09993C16.8 6.70793 16.512 5.72393 15.912 4.95593C15 3.80393 13.512 3.17993 12 3.17993C10.488 3.17993 8.99997 3.80393 8.08797 4.95593C7.48797 5.74793 7.19997 6.73193 7.19997 8.09993V9.05993H3.71997V20.8199ZM5.27997 19.3559V10.5239H7.19997V12.9719H8.75997V10.5239H15.24V12.9719H16.8V10.5239H18.72V19.3559H5.27997ZM8.75997 9.05993V7.35593C8.75997 5.60393 9.67197 4.69193 11.52 4.69193H12.504C14.304 4.69193 15.24 5.60393 15.24 7.35593V9.05993H8.75997Z" fill="black"/>
</svg>
