<svg width="24" height="24" viewBox="0 0 24 24" fill="none" xmlns="http://www.w3.org/2000/svg">
<path d="M13.3439 16.704C15.2639 16.704 16.5839 15.384 16.5839 13.608C16.5839 11.832 15.2399 10.536 13.5839 10.536C12.7199 10.536 11.9279 10.92 11.5199 11.592H11.2799C11.3039 9.79201 11.8319 8.71201 13.3919 8.71201C14.3759 8.71201 14.9999 9.12001 15.1199 9.98401H16.5599C16.3199 8.37601 15.1199 7.34401 13.3919 7.34401C11.0879 7.34401 9.76786 9.21601 9.79185 12.144C9.81586 15 11.1119 16.704 13.3439 16.704ZM4.15186 12C4.15186 17.16 8.23186 21.24 13.3919 21.24H19.8479V19.68H13.3919C9.09586 19.68 5.71186 16.296 5.71186 12C5.71186 7.80001 9.09586 4.32001 13.3919 4.32001H19.8479V2.76001H13.3919C8.20786 2.76001 4.15186 6.96001 4.15186 12ZM11.5439 13.872V13.272C11.5439 12.336 12.0959 11.832 13.2239 11.832H13.4159C14.5439 11.832 15.0719 12.336 15.0719 13.272V13.872C15.0719 14.808 14.5439 15.312 13.4159 15.312H13.2239C12.0719 15.312 11.5439 14.784 11.5439 13.872Z" fill="black"/>
</svg>
