<svg width="24" height="24" viewBox="0 0 24 24" fill="none" xmlns="http://www.w3.org/2000/svg">
<path d="M11.9998 21.24C17.1838 21.24 21.2398 17.04 21.2398 12C21.2398 6.84001 17.1598 2.76001 11.9998 2.76001C6.83977 2.76001 2.75977 6.84001 2.75977 12C2.75977 17.16 6.83977 21.24 11.9998 21.24ZM4.31977 12C4.31977 7.68001 7.70377 4.32001 11.9998 4.32001C16.3198 4.32001 19.6798 7.68001 19.6798 12C19.6798 16.176 16.3198 19.68 11.9998 19.68C7.70377 19.68 4.31977 16.296 4.31977 12ZM8.39977 12.144C8.42377 15 9.71977 16.704 11.9518 16.704C13.8718 16.704 15.1918 15.384 15.1918 13.608C15.1918 11.832 13.8478 10.536 12.1918 10.536C11.3278 10.536 10.5358 10.92 10.1278 11.592H9.88777C9.91177 9.79201 10.4398 8.71201 11.9998 8.71201C12.9838 8.71201 13.6078 9.12001 13.7278 9.98401H15.1678C14.9278 8.37601 13.7278 7.34401 11.9998 7.34401C9.69577 7.34401 8.37577 9.21601 8.39977 12.144ZM10.1518 13.872V13.272C10.1518 12.336 10.7038 11.832 11.8318 11.832H12.0238C13.1518 11.832 13.6798 12.336 13.6798 13.272V13.872C13.6798 14.808 13.1518 15.312 12.0238 15.312H11.8318C10.6798 15.312 10.1518 14.784 10.1518 13.872Z" fill="black"/>
</svg>
