<svg width="24" height="24" viewBox="0 0 24 24" fill="none" xmlns="http://www.w3.org/2000/svg">
<path d="M10.5599 16.704C12.4799 16.704 13.7999 15.384 13.7999 13.608C13.7999 11.832 12.4559 10.536 10.7999 10.536C9.93585 10.536 9.14386 10.92 8.73586 11.592H8.51986C8.51986 9.79201 9.04785 8.71201 10.6079 8.71201C11.5919 8.71201 12.2159 9.12001 12.3359 9.98401H13.7759C13.5359 8.37601 12.3359 7.34401 10.6079 7.34401C8.30386 7.34401 6.98386 9.21601 7.00786 12.144C7.03186 15 8.32786 16.704 10.5599 16.704ZM4.15186 21.24H10.6079C15.7919 21.24 19.8479 17.016 19.8479 12C19.8479 6.84001 15.7679 2.76001 10.6079 2.76001H4.15186V4.32001H10.6079C14.9279 4.32001 18.2879 7.68001 18.2879 12C18.2879 16.176 14.9279 19.68 10.6079 19.68H4.15186V21.24ZM8.75986 13.872V13.272C8.75986 12.336 9.31186 11.832 10.4399 11.832H10.6319C11.7599 11.832 12.2879 12.336 12.2879 13.272V13.872C12.2879 14.808 11.7599 15.312 10.6319 15.312H10.4399C9.28786 15.312 8.75986 14.784 8.75986 13.872Z" fill="black"/>
</svg>
