<svg width="24" height="24" viewBox="0 0 24 24" fill="none" xmlns="http://www.w3.org/2000/svg">
<path d="M12.3121 6.98389L7.9441 2.63989L3.6001 6.98389L4.5841 7.94389L5.8561 6.69589C6.2881 6.23989 6.7681 5.75989 7.2001 5.27989V20.3999H8.6881V5.23189C9.1441 5.73589 9.6001 6.21589 10.0561 6.69589L11.3521 7.94389L12.3121 6.98389ZM11.6881 17.0159L16.0561 21.3599L20.4001 17.0159L19.4161 16.0559L18.1681 17.3039C17.7121 17.7599 17.2561 18.2399 16.8001 18.7199V3.59989H15.3121V18.7439C14.8561 18.2639 14.4001 17.7599 13.9441 17.3039L12.6721 16.0559L11.6881 17.0159Z" fill="black"/>
</svg>
