<svg width="24" height="24" viewBox="0 0 24 24" fill="none" xmlns="http://www.w3.org/2000/svg">
<path d="M11.9998 21.9001C16.4878 21.9001 20.1598 18.2281 20.1598 13.7401C20.1598 11.7961 19.4638 9.9961 18.3118 8.6041L19.5358 7.3561L18.3838 6.2041L17.1358 7.4281C15.9358 6.4201 14.4238 5.7721 12.7918 5.6281V3.6601H14.6398V2.1001H9.35984V3.6601H11.2318V5.6281C7.10384 6.0121 3.83984 9.5161 3.83984 13.7401C3.83984 18.2281 7.51184 21.9001 11.9998 21.9001ZM5.39984 13.7401C5.39984 10.0921 8.37584 7.1401 11.9998 7.1401C15.6478 7.1401 18.5998 10.0921 18.5998 13.7401C18.5998 17.3641 15.6478 20.3401 11.9998 20.3401C8.37584 20.3401 5.39984 17.3641 5.39984 13.7401ZM11.2318 14.2201C11.2318 14.6521 11.5678 14.9881 11.9998 14.9881C12.4318 14.9881 12.7918 14.6521 12.7918 14.2201V8.8681H11.2318V14.2201Z" fill="black"/>
</svg>
