<svg width="24" height="24" viewBox="0 0 24 24" fill="none" xmlns="http://www.w3.org/2000/svg">
<path d="M11.9878 21.1921C17.1478 21.1921 21.1798 19.5121 21.1798 16.7761V7.17611C21.1798 4.46411 17.2918 2.80811 11.9878 2.80811C6.85182 2.80811 2.81982 4.46411 2.81982 7.17611V16.7761C2.81982 19.5121 6.75582 21.1921 11.9878 21.1921ZM4.37982 16.7761V14.5201C5.89182 15.7201 8.67582 16.4161 11.9878 16.4161C15.2758 16.4161 18.0598 15.6961 19.6198 14.4961V16.7761C19.6198 18.4561 16.6918 19.7041 11.9878 19.7041C7.21182 19.7041 4.37982 18.4561 4.37982 16.7761ZM4.37982 12.0481V9.64811C5.89182 10.8481 8.67582 11.5441 11.9878 11.5441C15.2758 11.5441 18.0598 10.8481 19.6198 9.64811V12.0481C19.5958 13.6561 16.6678 14.9281 11.9878 14.9281C7.23582 14.9281 4.37982 13.6561 4.37982 12.0481ZM4.37982 7.17611C4.37982 5.52011 7.30782 4.29611 11.9878 4.29611C16.8358 4.29611 19.6198 5.49611 19.6198 7.17611C19.5958 8.80811 16.6678 10.0561 11.9878 10.0561C7.23582 10.0561 4.37982 8.80811 4.37982 7.17611Z" fill="black"/>
</svg>
