<svg width="24" height="24" viewBox="0 0 24 24" fill="none" xmlns="http://www.w3.org/2000/svg">
<path d="M11.988 21.1921C17.148 21.1921 21.18 19.5121 21.18 16.7761V7.17611C21.18 4.46411 17.292 2.80811 11.988 2.80811C6.85201 2.80811 2.82001 4.46411 2.82001 7.17611V16.7761C2.82001 19.5121 6.75601 21.1921 11.988 21.1921ZM4.38001 16.7761V14.5201C5.89201 15.7201 8.67601 16.4161 11.988 16.4161C15.276 16.4161 18.06 15.6961 19.62 14.4961V16.7761C19.62 18.4561 16.692 19.7041 11.988 19.7041C7.21201 19.7041 4.38001 18.4561 4.38001 16.7761ZM4.38001 12.0481V9.64811C5.89201 10.8481 8.67601 11.5441 11.988 11.5441C15.276 11.5441 18.06 10.8481 19.62 9.64811V12.0481C19.596 13.6561 16.668 14.9281 11.988 14.9281C7.23601 14.9281 4.38001 13.6561 4.38001 12.0481ZM4.38001 7.17611C4.38001 5.52011 7.30801 4.29611 11.988 4.29611C16.836 4.29611 19.62 5.49611 19.62 7.17611C19.596 8.80811 16.668 10.0561 11.988 10.0561C7.23601 10.0561 4.38001 8.80811 4.38001 7.17611Z" fill="black"/>
</svg>
