<svg width="24" height="24" viewBox="0 0 24 24" fill="none" xmlns="http://www.w3.org/2000/svg">
<path d="M10.536 21.24H13.464C14.184 21.24 14.76 20.736 14.832 19.992C16.8 19.128 18.24 17.376 18.648 15.264H19.056C20.76 15.264 22.08 13.968 22.08 12.24V11.256C22.08 9.55201 20.76 8.23201 19.056 8.23201H18.648C18.072 5.16001 15.336 2.76001 12 2.76001C8.66398 2.76001 5.92798 5.16001 5.35198 8.23201H4.94398C3.23998 8.23201 1.91998 9.55201 1.91998 11.256V12.24C1.91998 13.968 3.23998 15.264 4.94398 15.264H6.79198V9.48001C6.79198 6.60001 9.11998 4.22401 12 4.22401C14.904 4.22401 17.208 6.60001 17.208 9.48001V13.992C17.208 15.816 16.248 17.424 14.808 18.312C14.688 17.64 14.136 17.184 13.464 17.184H10.536C9.74398 17.184 9.14398 17.784 9.14398 18.576V19.848C9.14398 20.64 9.74398 21.24 10.536 21.24ZM3.31198 12.24V11.256C3.31198 10.128 3.81598 9.62401 4.94398 9.62401H5.23198V13.896H4.94398C3.81598 13.896 3.31198 13.392 3.31198 12.24ZM10.44 19.728V18.696C10.44 18.552 10.512 18.48 10.656 18.48H13.344C13.488 18.48 13.56 18.552 13.56 18.696V19.728C13.56 19.872 13.488 19.944 13.344 19.944H10.656C10.512 19.944 10.44 19.872 10.44 19.728ZM18.768 13.896V9.62401H19.056C20.184 9.62401 20.712 10.128 20.712 11.256V12.24C20.712 13.392 20.184 13.896 19.056 13.896H18.768Z" fill="black"/>
</svg>
