<svg width="24" height="24" viewBox="0 0 24 24" fill="none" xmlns="http://www.w3.org/2000/svg">
<path d="M4.06801 20.136H19.908C21.228 18.456 22.068 16.296 22.068 13.968C22.068 9.24001 18.756 5.23201 14.34 4.17601V5.80801C17.892 6.81601 20.508 10.104 20.508 13.968C20.508 15.672 19.98 17.256 19.116 18.576H4.86001C3.99601 17.256 3.49201 15.672 3.49201 13.968C3.49201 10.104 6.08401 6.81601 9.63601 5.80801V4.17601C5.22001 5.23201 1.93201 9.24001 1.93201 13.968C1.93201 16.296 2.74801 18.456 4.06801 20.136ZM11.22 13.968C11.22 14.4 11.556 14.736 11.988 14.736C12.42 14.736 12.78 14.4 12.78 13.968V3.86401H11.22V13.968Z" fill="black"/>
</svg>
