<svg width="24" height="24" viewBox="0 0 24 24" fill="none" xmlns="http://www.w3.org/2000/svg">
<path d="M4.10397 20.124H19.92C21.24 18.444 22.056 16.284 22.056 13.956C22.056 8.41198 17.544 3.87598 12 3.87598C10.08 3.87598 8.25597 4.42798 6.74397 5.38798L7.89597 6.51598C9.09597 5.84398 10.512 5.43598 12 5.43598C16.704 5.43598 20.496 9.25198 20.496 13.956C20.496 15.66 19.992 17.244 19.128 18.564H4.87197C4.00797 17.244 3.50397 15.66 3.50397 13.956C3.50397 12.468 3.88797 11.052 4.58397 9.85198L3.43197 8.69998C2.47197 10.212 1.94397 12.012 1.94397 13.956C1.94397 16.284 2.75997 18.444 4.10397 20.124ZM4.31997 7.35598L11.448 14.508C11.592 14.652 11.784 14.724 12 14.724C12.432 14.724 12.792 14.388 12.792 13.956C12.792 13.74 12.696 13.548 12.552 13.404L5.39997 6.27598L4.31997 7.35598Z" fill="black"/>
</svg>
