<svg width="24" height="24" viewBox="0 0 24 24" fill="none" xmlns="http://www.w3.org/2000/svg">
<path d="M4.06801 20.124H19.86C20.7 19.188 21.444 17.7 21.78 16.284H20.148C19.908 17.1 19.548 17.892 19.116 18.564H4.86001C3.99601 17.244 3.49201 15.66 3.49201 13.956C3.49201 9.25198 7.30801 5.43598 11.988 5.43598C15.876 5.43598 19.14 8.05198 20.148 11.604H21.78C20.724 7.18798 16.74 3.87598 11.988 3.87598C6.44401 3.87598 1.93201 8.41198 1.93201 13.956C1.93201 16.284 2.74801 18.444 4.06801 20.124ZM11.22 13.956C11.22 14.388 11.556 14.724 11.988 14.724H22.068V13.164H11.988C11.556 13.164 11.22 13.524 11.22 13.956Z" fill="black"/>
</svg>
