<svg width="24" height="24" viewBox="0 0 24 24" fill="none" xmlns="http://www.w3.org/2000/svg">
<path d="M13.392 16.68C15.36 16.68 16.824 15.528 16.824 13.992C16.824 13.008 16.2 12.216 15.264 11.952V11.688C16.08 11.424 16.512 10.728 16.512 9.91201C16.512 8.44801 15.144 7.32001 13.392 7.32001C11.52 7.32001 10.128 8.56801 10.128 10.128V10.296H11.688C11.688 9.12001 12.096 8.68801 13.368 8.68801C14.592 8.68801 15 9.07201 15 10.056C15 10.968 14.736 11.232 13.488 11.232H12.576V12.6H13.512C14.832 12.6 15.216 12.936 15.216 13.92C15.216 14.952 14.76 15.288 13.368 15.288C11.952 15.288 11.568 14.904 11.568 13.56H9.98398V13.68C9.98398 15.408 11.376 16.68 13.392 16.68ZM4.15198 12C4.15198 17.16 8.23198 21.24 13.392 21.24H19.848V19.68H13.392C9.09598 19.68 5.71198 16.296 5.71198 12C5.71198 7.80001 9.09598 4.32001 13.392 4.32001H19.848V2.76001H13.392C8.20798 2.76001 4.15198 6.96001 4.15198 12Z" fill="black"/>
</svg>
