<svg width="24" height="24" viewBox="0 0 24 24" fill="none" xmlns="http://www.w3.org/2000/svg">
<path d="M12 21.24C17.184 21.24 21.24 17.04 21.24 12C21.24 6.84001 17.16 2.76001 12 2.76001C6.84001 2.76001 2.76001 6.84001 2.76001 12C2.76001 17.16 6.84001 21.24 12 21.24ZM4.32001 12C4.32001 7.68001 7.70401 4.32001 12 4.32001C16.32 4.32001 19.68 7.68001 19.68 12C19.68 16.176 16.32 19.68 12 19.68C7.70401 19.68 4.32001 16.296 4.32001 12ZM8.59201 13.68C8.59201 15.408 9.98401 16.68 12 16.68C13.968 16.68 15.432 15.528 15.432 13.992C15.432 13.008 14.808 12.216 13.872 11.952V11.688C14.688 11.424 15.12 10.728 15.12 9.91201C15.12 8.44801 13.752 7.32001 12 7.32001C10.128 7.32001 8.73601 8.56801 8.73601 10.128V10.296H10.296C10.296 9.12001 10.704 8.68801 11.976 8.68801C13.2 8.68801 13.608 9.07201 13.608 10.056C13.608 10.968 13.344 11.232 12.096 11.232H11.184V12.6H12.12C13.44 12.6 13.824 12.936 13.824 13.92C13.824 14.952 13.368 15.288 11.976 15.288C10.56 15.288 10.176 14.904 10.176 13.56H8.59201V13.68Z" fill="black"/>
</svg>
