<svg width="24" height="24" viewBox="0 0 24 24" fill="none" xmlns="http://www.w3.org/2000/svg">
<path d="M10.608 16.68C12.576 16.68 14.04 15.528 14.04 13.992C14.04 13.008 13.416 12.216 12.48 11.952V11.688C13.296 11.424 13.728 10.728 13.728 9.91201C13.728 8.44801 12.36 7.32001 10.608 7.32001C8.73598 7.32001 7.34398 8.56801 7.34398 10.128V10.296H8.90398C8.90398 9.12001 9.31198 8.68801 10.584 8.68801C11.808 8.68801 12.216 9.07201 12.216 10.056C12.216 10.968 11.952 11.232 10.704 11.232H9.79198V12.6H10.728C12.048 12.6 12.432 12.936 12.432 13.92C12.432 14.952 11.976 15.288 10.584 15.288C9.16798 15.288 8.78398 14.904 8.78398 13.56H7.19998V13.68C7.19998 15.408 8.59198 16.68 10.608 16.68ZM4.15198 21.24H10.608C15.792 21.24 19.848 17.016 19.848 12C19.848 6.84001 15.768 2.76001 10.608 2.76001H4.15198V4.32001H10.608C14.928 4.32001 18.288 7.68001 18.288 12C18.288 16.176 14.928 19.68 10.608 19.68H4.15198V21.24Z" fill="black"/>
</svg>
