<svg width="24" height="24" viewBox="0 0 24 24" fill="none" xmlns="http://www.w3.org/2000/svg">
<path d="M2.75977 20.22H21.2398V11.1L18.5998 8.46003H16.8238V5.55603C16.8238 4.54803 16.0558 3.78003 15.0718 3.78003H8.92777C7.94377 3.78003 7.17577 4.54803 7.17577 5.55603V8.46003H5.39977L2.75977 11.1V20.22ZM4.29577 18.756V15.444H7.77577V16.716H9.26377V15.444H14.7358V16.716H16.2238V15.444H19.7278V18.756H4.29577ZM4.29577 13.956V11.7L6.04777 9.92403H17.9518L19.7278 11.7V13.956H16.2238V12.636H14.7358V13.956H9.26377V12.636H7.77577V13.956H4.29577ZM8.63977 8.46003V5.60403C8.63977 5.38803 8.78377 5.24403 8.99977 5.24403H14.9998C15.2158 5.24403 15.3598 5.38803 15.3598 5.60403V8.46003H8.63977Z" fill="black"/>
</svg>
