<svg width="24" height="24" viewBox="0 0 24 24" fill="none" xmlns="http://www.w3.org/2000/svg">
<path d="M4.53604 22.0799C5.20804 22.0799 5.88004 21.8399 6.38404 21.3119L15.864 11.8079C16.272 11.9279 16.656 11.9759 17.064 11.9759C19.824 11.9759 22.08 9.71992 22.08 6.93592C22.08 4.17592 19.824 1.91992 17.064 1.91992C14.28 1.91992 12.024 4.17592 12.024 6.93592C12.024 7.34392 12.072 7.72792 12.192 8.13592L2.68804 17.6159C2.18404 18.1199 1.92004 18.7919 1.92004 19.4639C1.92004 20.9039 3.09604 22.0799 4.53604 22.0799ZM3.38404 19.4639C3.38404 19.1759 3.50404 18.8879 3.72004 18.6479L13.872 8.51992C13.632 8.03992 13.512 7.51192 13.512 6.93592C13.512 4.99192 15.096 3.38392 17.064 3.38392C17.64 3.38392 18.216 3.52792 18.696 3.81592L16.08 6.43192L17.568 7.91992L20.184 5.30392C20.472 5.78392 20.616 6.35992 20.616 6.93592C20.616 8.90392 19.008 10.4879 17.064 10.4879C16.488 10.4879 15.96 10.3679 15.48 10.1279L5.35204 20.2799C5.11204 20.5199 4.82404 20.6159 4.53604 20.6159C3.88804 20.6159 3.38404 20.0879 3.38404 19.4639Z" fill="black"/>
</svg>
