<svg width="24" height="24" viewBox="0 0 24 24" fill="none" xmlns="http://www.w3.org/2000/svg">
<path d="M4.80022 21.816C5.49622 21.816 6.14422 21.552 6.64822 21.048L15.8642 11.808C16.2722 11.928 16.6562 11.976 17.0642 11.976C19.8242 11.976 22.0802 9.71998 22.0802 6.93598C22.0802 4.17597 19.8242 1.91997 17.0642 1.91997C14.2802 1.91997 12.0242 4.17597 12.0242 6.93598C12.0242 7.34398 12.0722 7.72797 12.1922 8.13598L2.95222 17.352C2.44822 17.856 2.18422 18.504 2.18422 19.2C2.18422 20.64 3.36022 21.816 4.80022 21.816ZM1.82422 6.11998L6.76822 11.064L7.75222 10.08L7.58422 9.88798L8.73622 8.73598L8.08822 8.08798L6.91222 9.23998L5.68822 8.01597L6.84022 6.83997L6.19222 6.16797L5.01622 7.34398L3.79222 6.11998L6.12022 3.76797L10.0802 7.72797L10.3202 7.48798C10.2722 6.79198 10.2962 6.43197 10.3682 6.07197L6.12022 1.82397L1.82422 6.11998ZM3.67222 19.2C3.67222 18.888 3.76822 18.624 4.00822 18.384L13.8722 8.51998C13.6322 8.03998 13.5122 7.51198 13.5122 6.93598C13.5122 4.99197 15.0962 3.38397 17.0642 3.38397C17.6402 3.38397 18.2162 3.52797 18.6962 3.81597L16.0802 6.43197L17.5682 7.91998L20.1842 5.30397C20.4722 5.78397 20.6162 6.35997 20.6162 6.93598C20.6162 8.90398 19.0082 10.488 17.0642 10.488C16.4882 10.488 15.9602 10.368 15.4802 10.128L5.61622 20.016C5.37622 20.232 5.11222 20.328 4.80022 20.328C4.17622 20.328 3.67222 19.824 3.67222 19.2ZM12.9362 17.232L17.8802 22.176L22.1762 17.88L17.9282 13.632C17.5682 13.704 17.2082 13.728 16.5122 13.68L16.2722 13.92L20.2082 17.88L17.8802 20.208L16.6562 18.984L17.8322 17.832L17.1602 17.16L15.9842 18.312L14.7602 17.088L15.9122 15.912L15.2642 15.264L14.1122 16.416L13.9202 16.248L12.9362 17.232Z" fill="black"/>
</svg>
