<svg width="24" height="24" viewBox="0 0 24 24" fill="none" xmlns="http://www.w3.org/2000/svg">
<path d="M4.53592 22.0799C5.20792 22.0799 5.87992 21.8399 6.38392 21.3119L15.8639 11.8079C16.2719 11.9279 16.6559 11.9759 17.0639 11.9759C19.8239 11.9759 22.0799 9.71992 22.0799 6.93592C22.0799 4.17592 19.8239 1.91992 17.0639 1.91992C14.2799 1.91992 12.0239 4.17592 12.0239 6.93592C12.0239 7.34392 12.0719 7.72792 12.1919 8.13592L2.68792 17.6159C2.18392 18.1199 1.91992 18.7919 1.91992 19.4639C1.91992 20.9039 3.09592 22.0799 4.53592 22.0799ZM3.38392 19.4639C3.38392 19.1759 3.50392 18.8879 3.71992 18.6479L13.8719 8.51992C13.6319 8.03992 13.5119 7.51192 13.5119 6.93592C13.5119 4.99192 15.0959 3.38392 17.0639 3.38392C17.6399 3.38392 18.2159 3.52792 18.6959 3.81592L16.0799 6.43192L17.5679 7.91992L20.1839 5.30392C20.4719 5.78392 20.6159 6.35992 20.6159 6.93592C20.6159 8.90392 19.0079 10.4879 17.0639 10.4879C16.4879 10.4879 15.9599 10.3679 15.4799 10.1279L5.35192 20.2799C5.11192 20.5199 4.82392 20.6159 4.53592 20.6159C3.88792 20.6159 3.38392 20.0879 3.38392 19.4639Z" fill="black"/>
</svg>
