<svg width="24" height="24" viewBox="0 0 24 24" fill="none" xmlns="http://www.w3.org/2000/svg">
<path d="M11.9998 21.228C17.0878 21.228 21.2398 17.1 21.2398 12.012C21.2398 6.92397 17.0878 2.77197 11.9998 2.77197C6.91177 2.77197 2.75977 6.92397 2.75977 12.012C2.75977 17.1 6.91177 21.228 11.9998 21.228ZM5.54377 9.37197V8.07597H11.9758V9.37197H9.47977V16.428H8.08777V9.37197H5.54377ZM12.9838 16.428V8.07597H16.0078C17.6878 8.07597 18.8398 9.20397 18.8398 10.74C18.8398 12.276 17.6878 13.38 16.0078 13.38H14.3998V16.428H12.9838ZM14.3998 12.084H16.1278C17.0158 12.084 17.3758 11.7 17.3758 10.908V10.548C17.3758 9.73197 17.0158 9.37197 16.1278 9.37197H14.3998V12.084Z" fill="black"/>
</svg>
