<svg width="24" height="24" viewBox="0 0 24 24" fill="none" xmlns="http://www.w3.org/2000/svg">
<path d="M17.016 12.3121L21.36 7.9441L17.016 3.6001L16.056 4.5841L17.304 5.8321C17.76 6.2881 18.24 6.7441 18.72 7.2001H3.60001V8.6881H18.768C18.264 9.1441 17.784 9.6001 17.304 10.0561L16.056 11.3281L17.016 12.3121ZM2.64001 16.0561L6.98402 20.4001L7.94402 19.4161L6.69601 18.1441C6.24001 17.7121 5.76001 17.2321 5.28001 16.8001H20.4V15.3121H5.25601C5.73601 14.8561 6.24001 14.4001 6.69601 13.9441L7.94402 12.6481L6.98402 11.6881L2.64001 16.0561Z" fill="black"/>
</svg>
