<svg width="24" height="24" viewBox="0 0 24 24" fill="none" xmlns="http://www.w3.org/2000/svg">
<path d="M17.0161 12.3121L21.3601 7.9441L17.0161 3.6001L16.0561 4.5841L17.3041 5.8321C17.7601 6.2881 18.2401 6.7441 18.7201 7.2001H3.60014V8.6881H18.7681C18.2641 9.1441 17.7841 9.6001 17.3041 10.0561L16.0561 11.3281L17.0161 12.3121ZM2.64014 16.0561L6.98414 20.4001L7.94414 19.4161L6.69614 18.1441C6.24014 17.7121 5.76014 17.2321 5.28014 16.8001H20.4001V15.3121H5.25614C5.73614 14.8561 6.24014 14.4001 6.69614 13.9441L7.94414 12.6481L6.98414 11.6881L2.64014 16.0561Z" fill="black"/>
</svg>
