<svg width="24" height="24" viewBox="0 0 24 24" fill="none" xmlns="http://www.w3.org/2000/svg">
<path d="M7.02016 21.3599H16.9802C17.9642 21.3599 18.7802 20.5439 18.7802 19.5599V9.28789H17.2202V19.5119C17.2202 19.7279 17.0522 19.8959 16.8362 19.8959H7.14016C6.92416 19.8959 6.78016 19.7279 6.78016 19.5119V9.28789H5.22016V19.5599C5.22016 20.5439 6.03616 21.3599 7.02016 21.3599ZM3.66016 7.65589H20.3402V6.19189H16.0682V4.17589C16.0682 3.31189 15.3962 2.63989 14.5322 2.63989H9.44416C8.58016 2.63989 7.90816 3.31189 7.90816 4.17589V6.19189H3.66016V7.65589ZM9.30016 6.19189V4.31989C9.30016 4.12789 9.39616 4.00789 9.58816 4.00789H14.3882C14.5802 4.00789 14.7002 4.12789 14.7002 4.31989V6.19189H9.30016ZM9.32416 17.2799H10.8122V10.6079H9.32416V17.2799ZM13.1642 17.2799H14.6522V10.6079H13.1642V17.2799Z" fill="black"/>
</svg>
