<svg width="24" height="24" viewBox="0 0 24 24" fill="none" xmlns="http://www.w3.org/2000/svg">
<path d="M11.9998 21.24C17.1838 21.24 21.2398 17.04 21.2398 12C21.2398 6.84001 17.1598 2.76001 11.9998 2.76001C6.83977 2.76001 2.75977 6.84001 2.75977 12C2.75977 17.16 6.83977 21.24 11.9998 21.24ZM4.31977 12C4.31977 7.68001 7.70377 4.32001 11.9998 4.32001C16.3198 4.32001 19.6798 7.68001 19.6798 12C19.6798 16.176 16.3198 19.68 11.9998 19.68C7.70377 19.68 4.31977 16.296 4.31977 12ZM8.73577 10.464H10.2718V10.2C10.2718 9.24001 10.7038 8.71201 11.9518 8.71201H12.0718C13.1758 8.71201 13.6798 9.14401 13.6798 10.224C13.6798 10.968 13.4398 11.52 11.8318 12.552L8.92777 14.472V16.464H15.1678V15.096L10.7518 15.12V14.76L13.1758 13.176C14.6638 12.216 15.2398 11.304 15.2398 10.176C15.2398 8.37601 13.7998 7.34401 12.0238 7.34401C10.0558 7.34401 8.73577 8.66401 8.73577 10.176V10.464Z" fill="black"/>
</svg>
