<svg width="24" height="24" viewBox="0 0 24 24" fill="none" xmlns="http://www.w3.org/2000/svg">
<path d="M8.92777 16.464H15.1678V15.096L10.7518 15.12V14.76L13.1998 13.176C14.6638 12.216 15.2398 11.304 15.2398 10.176C15.2398 8.37601 13.7998 7.34401 12.0238 7.34401C10.0558 7.34401 8.73577 8.66401 8.73577 10.176V10.464H10.2718V10.2C10.2718 9.24001 10.7038 8.71201 11.9518 8.71201H12.0718C13.1758 8.71201 13.6798 9.14401 13.6798 10.224C13.6798 10.968 13.4398 11.496 11.8318 12.552L8.92777 14.472V16.464ZM5.75977 21.24H18.2398V19.68H5.75977V21.24ZM5.75977 4.32001H18.2398V2.76001H5.75977V4.32001Z" fill="black"/>
</svg>
