<svg width="24" height="24" viewBox="0 0 24 24" fill="none" xmlns="http://www.w3.org/2000/svg">
<path d="M7.53586 16.464H13.7759V15.096L9.35986 15.12V14.76L11.8079 13.176C13.2719 12.216 13.8479 11.304 13.8479 10.176C13.8479 8.37601 12.4079 7.34401 10.6319 7.34401C8.66386 7.34401 7.34386 8.66401 7.34386 10.176V10.464H8.87986V10.2C8.87986 9.24001 9.31186 8.71201 10.5599 8.71201H10.6799C11.7839 8.71201 12.2879 9.14401 12.2879 10.224C12.2879 10.968 12.0479 11.496 10.4399 12.552L7.53586 14.472V16.464ZM4.15186 21.24H10.6079C15.7919 21.24 19.8479 17.016 19.8479 12C19.8479 6.84001 15.7679 2.76001 10.6079 2.76001H4.15186V4.32001H10.6079C14.9279 4.32001 18.2879 7.68001 18.2879 12C18.2879 16.176 14.9279 19.68 10.6079 19.68H4.15186V21.24Z" fill="black"/>
</svg>
