<svg width="24" height="24" viewBox="0 0 24 24" fill="none" xmlns="http://www.w3.org/2000/svg">
<path d="M10.3199 16.464H16.5599V15.096L12.1439 15.12V14.76L14.5679 13.176C16.0559 12.216 16.6319 11.304 16.6319 10.176C16.6319 8.37601 15.1919 7.34401 13.4159 7.34401C11.4479 7.34401 10.1279 8.66401 10.1279 10.176V10.464H11.6639V10.2C11.6639 9.24001 12.0959 8.71201 13.3439 8.71201H13.4639C14.5679 8.71201 15.0719 9.14401 15.0719 10.224C15.0719 10.968 14.8319 11.52 13.2239 12.552L10.3199 14.472V16.464ZM4.15186 12C4.15186 17.16 8.23186 21.24 13.3919 21.24H19.8479V19.68H13.3919C9.09586 19.68 5.71186 16.296 5.71186 12C5.71186 7.80001 9.09586 4.32001 13.3919 4.32001H19.8479V2.76001H13.3919C8.20786 2.76001 4.15186 6.96001 4.15186 12Z" fill="black"/>
</svg>
