<svg width="24" height="24" viewBox="0 0 24 24" fill="none" xmlns="http://www.w3.org/2000/svg">
<path d="M11.9402 22.3199C13.1882 22.3199 14.1962 21.3119 14.1962 20.0639C14.1962 19.1039 13.5722 18.2879 12.7322 17.9759V15.1439L17.0762 13.7759C17.8442 13.5359 18.3242 12.9119 18.3242 12.1439V8.59193H19.0922V5.71193H16.1162V8.59193H16.9322V12.0959C16.9322 12.3119 16.8362 12.4079 16.6202 12.4799L12.7322 13.7039V5.49593H14.2442L11.9402 1.67993L9.6362 5.49593H11.1722V15.3119L7.5962 14.1119C7.3562 14.0399 7.2602 13.9199 7.2602 13.6799V10.0799C7.8122 9.81593 8.2202 9.23993 8.2202 8.59193C8.2202 7.67993 7.4762 6.93593 6.5642 6.93593C5.6522 6.93593 4.9082 7.67993 4.9082 8.59193C4.9082 9.23993 5.2922 9.81593 5.8682 10.0799V13.7999C5.8682 14.5679 6.3482 15.1679 7.0922 15.4079L11.1722 16.7519V17.9759C10.3082 18.2879 9.6842 19.1039 9.6842 20.0639C9.6842 21.3119 10.6922 22.3199 11.9402 22.3199Z" fill="black"/>
</svg>
