<svg width="24" height="24" viewBox="0 0 24 24" fill="none" xmlns="http://www.w3.org/2000/svg">
<path d="M11.94 22.3199C13.188 22.3199 14.196 21.3119 14.196 20.0639C14.196 19.1039 13.572 18.2879 12.732 17.9759V15.1439L17.076 13.7759C17.844 13.5359 18.324 12.9119 18.324 12.1439V8.59193H19.092V5.71193H16.116V8.59193H16.932V12.0959C16.932 12.3119 16.836 12.4079 16.62 12.4799L12.732 13.7039V5.49593H14.244L11.94 1.67993L9.63599 5.49593H11.172V15.3119L7.59599 14.1119C7.35599 14.0399 7.25999 13.9199 7.25999 13.6799V10.0799C7.81199 9.81593 8.21999 9.23993 8.21999 8.59193C8.21999 7.67993 7.47599 6.93593 6.56399 6.93593C5.65199 6.93593 4.90799 7.67993 4.90799 8.59193C4.90799 9.23993 5.29199 9.81593 5.86799 10.0799V13.7999C5.86799 14.5679 6.34799 15.1679 7.09199 15.4079L11.172 16.7519V17.9759C10.308 18.2879 9.68399 19.1039 9.68399 20.0639C9.68399 21.3119 10.692 22.3199 11.94 22.3199Z" fill="black"/>
</svg>
