<svg width="24" height="24" viewBox="0 0 24 24" fill="none" xmlns="http://www.w3.org/2000/svg">
<path d="M4.54785 19.4879V21.3599H19.4519V19.4879C19.4519 17.1119 18.4919 15.2879 16.6199 14.4479V11.1119H7.35585V14.4479C5.48385 15.2879 4.54785 17.1119 4.54785 19.4879ZM5.74785 7.72789H9.20385C8.93985 7.96789 8.77185 8.30389 8.77185 8.68789C8.77185 9.38389 9.34785 10.0079 10.0679 10.0079C10.8119 10.0079 11.3879 9.38389 11.3879 8.68789C11.3879 8.30389 11.2199 7.96789 10.9559 7.72789H13.0199C12.7559 7.96789 12.5879 8.30389 12.5879 8.68789C12.5879 9.38389 13.1639 10.0079 13.9079 10.0079C14.6279 10.0079 15.2039 9.38389 15.2039 8.68789C15.2039 8.30389 15.0359 7.96789 14.7719 7.72789H18.2279V6.23989H16.0679V4.17589C16.0679 3.31189 15.3959 2.63989 14.5319 2.63989H9.44385C8.57985 2.63989 7.90785 3.31189 7.90785 4.17589V6.23989H5.74785V7.72789ZM6.17985 19.8959V18.5759C6.17985 16.7039 6.97185 15.7919 8.81985 15.5519V12.4799H11.3399V19.8959H6.17985ZM9.29985 6.23989V4.31989C9.29985 4.12789 9.39585 4.00789 9.58785 4.00789H14.3879C14.5799 4.00789 14.6999 4.12789 14.6999 4.31989V6.23989H9.29985ZM12.6359 19.8959V12.4799H15.1559V15.5519C17.0039 15.7919 17.7959 16.7039 17.7959 18.5759V19.8959H12.6359Z" fill="black"/>
</svg>
