<svg width="24" height="24" viewBox="0 0 24 24" fill="none" xmlns="http://www.w3.org/2000/svg">
<path d="M4.548 19.428V21.2999H19.452V19.428C19.428 17.82 19.092 16.668 18.372 15.756C17.388 14.484 15.78 13.74 13.98 13.74H9.996C8.196 13.74 6.636 14.484 5.628 15.756C4.908 16.692 4.548 17.844 4.548 19.428ZM6.18 19.8359V18.54C6.18 16.404 7.284 15.396 9.492 15.396H14.508C16.692 15.396 17.796 16.404 17.796 18.54V19.8359H6.18ZM7.284 7.30795C7.284 9.87595 9.42 11.916 11.988 11.916C14.556 11.916 16.692 9.87595 16.692 7.30795C16.692 4.73995 14.556 2.69995 11.988 2.69995C9.42 2.69995 7.284 4.73995 7.284 7.30795ZM8.844 7.30795C8.844 5.55595 10.236 4.16395 11.988 4.16395C13.74 4.16395 15.132 5.55595 15.132 7.30795C15.132 9.05995 13.74 10.452 11.988 10.452C10.236 10.452 8.844 9.05995 8.844 7.30795Z" fill="black"/>
</svg>
