<svg width="24" height="24" viewBox="0 0 24 24" fill="none" xmlns="http://www.w3.org/2000/svg">
<path d="M3.14401 19.428V21.2999H18.048V17.916L16.392 19.548V19.8359H4.77601V18.54C4.77601 16.404 5.88001 15.396 8.08801 15.396H10.56L8.90401 13.74H8.42401C6.62401 13.74 5.23201 14.484 4.22401 15.756C3.50401 16.692 3.14401 17.844 3.14401 19.428ZM5.88001 7.30795C5.88001 9.87595 8.01601 11.916 10.584 11.916C13.152 11.916 15.288 9.87595 15.288 7.30795C15.288 4.73995 13.152 2.69995 10.584 2.69995C8.01601 2.69995 5.88001 4.73995 5.88001 7.30795ZM7.44001 7.30795C7.44001 5.55595 8.83201 4.16395 10.584 4.16395C12.336 4.16395 13.728 5.55595 13.728 7.30795C13.728 9.05995 12.336 10.452 10.584 10.452C8.83201 10.452 7.44001 9.05995 7.44001 7.30795ZM11.952 14.268L15.24 17.58L20.856 11.94L19.752 10.86L15.24 15.348L13.032 13.164L11.952 14.268Z" fill="black"/>
</svg>
