<svg width="24" height="24" viewBox="0 0 24 24" fill="none" xmlns="http://www.w3.org/2000/svg">
<path d="M4.548 19.4879V21.3599H19.452V19.4879C19.452 17.1119 18.492 15.2879 16.62 14.4479V11.1119H7.356V14.4479C5.484 15.2879 4.548 17.1119 4.548 19.4879ZM5.748 7.72789H9.204C8.94 7.96789 8.772 8.30389 8.772 8.68789C8.772 9.38389 9.348 10.0079 10.068 10.0079C10.812 10.0079 11.388 9.38389 11.388 8.68789C11.388 8.30389 11.22 7.96789 10.956 7.72789H13.02C12.756 7.96789 12.588 8.30389 12.588 8.68789C12.588 9.38389 13.164 10.0079 13.908 10.0079C14.628 10.0079 15.204 9.38389 15.204 8.68789C15.204 8.30389 15.036 7.96789 14.772 7.72789H18.228V6.23989H16.068V4.17589C16.068 3.31189 15.396 2.63989 14.532 2.63989H9.444C8.58 2.63989 7.908 3.31189 7.908 4.17589V6.23989H5.748V7.72789ZM6.18 19.8959V18.5759C6.18 16.7039 6.972 15.7919 8.82 15.5519V12.4799H11.34V19.8959H6.18ZM9.3 6.23989V4.31989C9.3 4.12789 9.396 4.00789 9.588 4.00789H14.388C14.58 4.00789 14.7 4.12789 14.7 4.31989V6.23989H9.3ZM12.636 19.8959V12.4799H15.156V15.5519C17.004 15.7919 17.796 16.7039 17.796 18.5759V19.8959H12.636Z" fill="black"/>
</svg>
