<svg width="24" height="24" viewBox="0 0 24 24" fill="none" xmlns="http://www.w3.org/2000/svg">
<path fill-rule="evenodd" clip-rule="evenodd" d="M3.53212 9.43888C4.03634 9.943 4.66482 10.2943 5.34559 10.463H2.29492V21.1875H17.8483V17.7299L21.705 20.9359V9.99962L17.8483 13.4387V10.463H14.8017C15.4825 10.2943 16.111 9.943 16.6152 9.43888C17.3431 8.71115 17.7526 7.72442 17.7539 6.69515C17.7526 5.6658 17.3431 4.67899 16.6152 3.95113C15.8874 3.22327 14.9006 2.81379 13.8712 2.8125C12.8419 2.81379 11.8552 3.2233 11.1275 3.95118C10.5915 4.48722 10.2283 5.1637 10.0737 5.89414C9.91899 5.1637 9.55577 4.48722 9.01984 3.95118C8.29211 3.2233 7.30537 2.81379 6.2761 2.8125C5.24675 2.81379 4.25994 3.22327 3.53208 3.95113C2.80422 4.67899 2.39473 5.6658 2.39343 6.69515C2.39473 7.72442 2.80424 8.71115 3.53212 9.43888ZM11.1278 9.4386C11.632 9.94286 12.2606 10.2943 12.9415 10.463H7.2058C7.8867 10.2943 8.51529 9.94286 9.01956 9.4386C9.55564 8.90252 9.91896 8.22593 10.0737 7.49535C10.2283 8.22593 10.5917 8.90252 11.1278 9.4386ZM4.45264 4.87171C4.93629 4.38805 5.5921 4.11605 6.2761 4.1154C6.95995 4.11627 7.61552 4.38836 8.099 4.87199C8.58248 5.35563 8.85438 6.0113 8.85503 6.69515C8.85416 7.37886 8.58218 8.03432 8.09872 8.51778C7.61527 9.00124 6.95981 9.27322 6.2761 9.27408C5.59225 9.27344 4.93659 9.00155 4.45296 8.51807C3.96932 8.03459 3.6972 7.379 3.69634 6.69515C3.69698 6.01116 3.96898 5.35536 4.45264 4.87171ZM12.0483 4.87199C12.5318 4.38836 13.1874 4.11627 13.8712 4.1154C14.5552 4.11605 15.211 4.38805 15.6947 4.87171C16.1783 5.35536 16.4503 6.01116 16.451 6.69515C16.4501 7.379 16.178 8.03459 15.6944 8.51807C15.2107 9.00155 14.5551 9.27344 13.8712 9.27408C13.1875 9.27322 12.532 9.00124 12.0486 8.51778C11.5651 8.03432 11.2931 7.37886 11.2923 6.69515C11.2929 6.0113 11.5648 5.35563 12.0483 4.87199ZM3.59782 19.8846H16.5454V11.7659H3.59782V19.8846ZM20.4021 18.1607L17.8484 16.0353V15.1901L20.4021 12.91V18.1607Z" fill="black"/>
</svg>
