<svg width="24" height="24" viewBox="0 0 24 24" fill="none" xmlns="http://www.w3.org/2000/svg">
<path d="M12.0602 19.7399H21.3002V6.65993H6.4202V8.12393H19.7402V18.2759H12.0602V19.7399ZM2.7002 17.4839H6.0362V20.8199H7.5242V17.4839H10.8602V15.9959H7.5242V12.6599H6.0362V15.9959H2.7002V17.4839ZM2.8202 11.5799H4.2842V5.09993C4.2842 4.78793 4.4282 4.64393 4.7402 4.64393H19.3562C19.2362 3.77993 18.4922 3.17993 17.5802 3.17993H4.7402C3.6362 3.17993 2.8202 3.99593 2.8202 5.09993V11.5799ZM15.2282 13.3079C15.2282 13.9319 15.7322 14.4839 16.3802 14.4839C17.0282 14.4839 17.5322 13.9319 17.5322 13.3079C17.5322 12.6839 17.0282 12.1799 16.3802 12.1799C15.7322 12.1799 15.2282 12.6839 15.2282 13.3079Z" fill="black"/>
</svg>
