<svg width="24" height="24" viewBox="0 0 24 24" fill="none" xmlns="http://www.w3.org/2000/svg">
<path d="M19.464 21.312L20.496 20.28L7.53598 7.31999L6.31197 6.07199L2.90397 2.68799L1.87197 3.71999L4.89597 6.74399C3.76797 7.39199 2.71197 8.13599 1.82397 9.02399L2.97597 10.2C3.91197 9.28799 4.94397 8.54399 6.09597 7.94399L8.61598 10.464C7.29598 10.896 6.09597 11.616 5.03997 12.504L6.14397 13.752C7.27198 12.768 8.49598 12.096 9.93598 11.784L13.128 14.976C12.768 14.904 12.384 14.856 12 14.856C10.584 14.856 9.33598 15.36 8.35198 16.2L12 20.232L15.024 16.872L19.464 21.312ZM8.54398 5.35199L9.91198 6.71999C10.584 6.62399 11.28 6.57599 12 6.57599C15.672 6.57599 18.696 7.94399 21.048 10.2L22.176 9.02399C19.632 6.57599 16.032 4.91999 12 4.91999C10.8 4.91999 9.64798 5.06399 8.54398 5.35199ZM13.152 9.95999L15.504 12.336C16.368 12.648 17.16 13.128 17.88 13.752L18.96 12.504C17.376 11.136 15.384 10.2 13.152 9.95999Z" fill="black"/>
</svg>
