<svg width="24" height="24" viewBox="0 0 24 24" fill="none" xmlns="http://www.w3.org/2000/svg">
<path d="M13.392 16.704C15.792 16.704 17.064 14.856 17.064 12.024C17.064 9.16801 15.816 7.34401 13.392 7.34401C10.992 7.34401 9.71998 9.19201 9.71998 12.024C9.71998 14.856 10.992 16.704 13.392 16.704ZM4.15198 12C4.15198 17.16 8.23198 21.24 13.392 21.24H19.848V19.68H13.392C9.09598 19.68 5.71198 16.296 5.71198 12C5.71198 7.80001 9.09598 4.32001 13.392 4.32001H19.848V2.76001H13.392C8.20798 2.76001 4.15198 6.96001 4.15198 12ZM11.328 12.888V11.208C11.328 9.26401 11.928 8.66401 13.368 8.66401C14.184 8.66401 14.736 8.85601 15.072 9.33601L11.352 13.536C11.328 13.344 11.328 13.128 11.328 12.888ZM11.688 14.712L15.432 10.488C15.456 10.704 15.456 10.944 15.456 11.208V12.888C15.456 14.808 14.808 15.408 13.368 15.408C12.552 15.408 12.024 15.216 11.688 14.712Z" fill="black"/>
</svg>
