<svg width="24" height="24" viewBox="0 0 24 24" fill="none" xmlns="http://www.w3.org/2000/svg">
<path d="M11.9998 16.704C14.3998 16.704 15.6718 14.856 15.6718 12.024C15.6718 9.16801 14.4238 7.34401 11.9998 7.34401C9.59977 7.34401 8.32777 9.19201 8.32777 12.024C8.32777 14.856 9.59977 16.704 11.9998 16.704ZM5.75977 21.24H18.2398V19.68H5.75977V21.24ZM5.75977 4.32001H18.2398V2.76001H5.75977V4.32001ZM9.93577 12.888V11.208C9.93577 9.26401 10.5358 8.66401 11.9758 8.66401C12.7918 8.66401 13.3438 8.85601 13.6798 9.33601L9.95977 13.536C9.93577 13.344 9.93577 13.128 9.93577 12.888ZM10.2958 14.712L14.0398 10.488C14.0638 10.704 14.0638 10.944 14.0638 11.208V12.888C14.0638 14.808 13.4158 15.408 11.9758 15.408C11.1598 15.408 10.6318 15.216 10.2958 14.712Z" fill="black"/>
</svg>
