<svg width="38" height="30" viewBox="0 0 38 30" fill="none" xmlns="http://www.w3.org/2000/svg">
<g filter="url(#filter0_d)">
<mask id="mask0" mask-type="alpha" maskUnits="userSpaceOnUse" x="3" y="1" width="32" height="24">
<rect x="3" y="1" width="32" height="24" fill="white"/>
</mask>
<g mask="url(#mask0)">
<path fill-rule="evenodd" clip-rule="evenodd" d="M25 1H35V25H25V1Z" fill="#F50100"/>
<path fill-rule="evenodd" clip-rule="evenodd" d="M3 1H15V25H3V1Z" fill="#2E42A5"/>
<path fill-rule="evenodd" clip-rule="evenodd" d="M13 1H25V25H13V1Z" fill="#F7FCFF"/>
</g>
<rect x="3" y="1" width="32" height="24" fill="url(#paint0_linear)" style="mix-blend-mode:overlay"/>
<path d="M5 2H33V0H5V2ZM34 3V23H36V3H34ZM33 24H5V26H33V24ZM4 23V3H2V23H4ZM5 24C4.44772 24 4 23.5523 4 23H2C2 24.6569 3.34315 26 5 26V24ZM34 23C34 23.5523 33.5523 24 33 24V26C34.6569 26 36 24.6569 36 23H34ZM33 2C33.5523 2 34 2.44772 34 3H36C36 1.34315 34.6569 0 33 0V2ZM5 0C3.34315 0 2 1.34314 2 3H4C4 2.44772 4.44771 2 5 2V0Z" fill="black" fill-opacity="0.1" style="mix-blend-mode:multiply"/>
</g>
<defs>
<filter id="filter0_d" x="0" y="0" width="38" height="30" filterUnits="userSpaceOnUse" color-interpolation-filters="sRGB">
<feFlood flood-opacity="0" result="BackgroundImageFix"/>
<feColorMatrix in="SourceAlpha" type="matrix" values="0 0 0 0 0 0 0 0 0 0 0 0 0 0 0 0 0 0 127 0"/>
<feOffset dy="2"/>
<feGaussianBlur stdDeviation="1.5"/>
<feColorMatrix type="matrix" values="0 0 0 0 0 0 0 0 0 0 0 0 0 0 0 0 0 0 0.1 0"/>
<feBlend mode="normal" in2="BackgroundImageFix" result="effect1_dropShadow"/>
<feBlend mode="normal" in="SourceGraphic" in2="effect1_dropShadow" result="shape"/>
</filter>
<linearGradient id="paint0_linear" x1="19" y1="1" x2="19" y2="25" gradientUnits="userSpaceOnUse">
<stop stop-color="white" stop-opacity="0.7"/>
<stop offset="1" stop-opacity="0.3"/>
</linearGradient>
</defs>
</svg>
