<svg width="14" height="14" viewBox="0 0 14 14" fill="none" xmlns="http://www.w3.org/2000/svg">
<g clip-path="url(#clip0_usd_coin)">
<path fill-rule="evenodd" clip-rule="evenodd" d="M5.31578 12.8555C5.31578 13.066 5.14736 13.1853 4.95087 13.1221C2.22807 12.252 0.263153 9.71161 0.263153 6.70108C0.263153 3.69757 2.22807 1.1502 4.95087 0.280026C5.15438 0.216868 5.31578 0.336166 5.31578 0.546693V1.07301C5.31578 1.21336 5.21052 1.37476 5.07719 1.42389C2.9228 2.21687 1.38596 4.28704 1.38596 6.70108C1.38596 9.12213 2.9228 11.1853 5.07719 11.9713C5.21052 12.0204 5.31578 12.1818 5.31578 12.3221V12.8555ZM7.5614 10.9116C7.5614 11.066 7.43508 11.1923 7.28069 11.1923H6.71929C6.5649 11.1923 6.43859 11.066 6.43859 10.9116V10.0274C5.21052 9.859 4.61403 9.1783 4.45262 8.23795C4.42455 8.07654 4.55087 7.93619 4.71227 7.93619H5.35087C5.4842 7.93619 5.59648 8.03444 5.62455 8.16076C5.74385 8.71514 6.06666 9.14321 7.04911 9.14321C7.77192 9.14321 8.29122 8.73619 8.29122 8.13268C8.29122 7.52917 7.98947 7.2976 6.9228 7.12216C5.35087 6.91163 4.60701 6.43444 4.60701 5.20637C4.60701 4.259 5.32982 3.51514 6.43859 3.36075V2.49058C6.43859 2.33619 6.5649 2.20988 6.71929 2.20988H7.28069C7.43508 2.20988 7.5614 2.33619 7.5614 2.49058V3.38181C8.46666 3.54321 9.0421 4.05549 9.23157 4.91163C9.26666 5.07304 9.14034 5.2204 8.97192 5.2204H8.38245C8.25613 5.2204 8.15087 5.13619 8.11578 5.01689C7.95438 4.47654 7.56841 4.23795 6.89473 4.23795C6.15087 4.23795 5.7649 4.59584 5.7649 5.1011C5.7649 5.63444 5.98245 5.9011 7.12631 6.06251C8.67017 6.27304 9.47017 6.71514 9.47017 8.02742C9.47017 9.02391 8.72631 9.83093 7.56841 10.0134V10.9116H7.5614ZM8.68421 12.8555C8.68421 13.066 8.84561 13.1853 9.04912 13.1221C11.7719 12.252 13.7368 9.71162 13.7368 6.7011C13.7368 3.69759 11.7719 1.15022 9.04912 0.294077C8.85263 0.230919 8.68421 0.350217 8.68421 0.560744V1.08706C8.68421 1.22741 8.78947 1.38881 8.9228 1.43794C11.0772 2.2239 12.614 4.28706 12.614 6.70811C12.614 9.12215 11.0702 11.1923 8.9228 11.9783C8.77543 12.0274 8.68421 12.1748 8.68421 12.3292V12.8555Z" fill="currentColor"/>
</g>
<defs>
<clipPath id="clip0_usd_coin">
<rect width="13.4737" height="13.4737" fill="white" transform="translate(0.263153 0.263153)"/>
</clipPath>
</defs>
</svg>
