<svg width="14" height="14" viewBox="0 0 14 14" fill="none" xmlns="http://www.w3.org/2000/svg">
<path d="M8.12842 4.0021V2.52H12.0189V0.263153H1.98105V2.52H5.87157V4.0021C2.93263 4.11157 0.263153 4.65473 0.263153 5.59368C0.263153 6.53263 2.93263 7.07579 5.87157 7.18947V13.7368H8.12842V7.18947C11.0758 7.07579 13.7368 6.53684 13.7368 5.59368C13.7368 4.65052 11.0674 4.11157 8.12842 4.0021ZM8.4021 6.83157H8.26315H8.11579C7.74105 6.83157 7.36631 6.85684 6.98736 6.85684C6.60842 6.85684 6.23368 6.85684 5.85894 6.85684L5.24 6.82736H5.08421C2.28 6.61263 0.604206 6.03579 0.604206 5.59368C0.604206 5.15157 2.58315 4.46947 5.87157 4.33052V6.06105C6.23368 6.06105 6.60421 6.08631 7 6.08631C7.39579 6.08631 7.76631 6.08631 8.12842 6.08631V4.34736C11.4168 4.46947 13.3958 5.11789 13.3958 5.61052C13.3958 6.10315 11.5221 6.68421 8.4021 6.83157Z" fill="currentColor"/>
</svg>
