<svg width="12" height="12" viewBox="0 0 12 12" fill="none" xmlns="http://www.w3.org/2000/svg">
<g clip-path="url(#clip0_dai)">
<path d="M6.12057 6.42319H9.05746C9.12007 6.42319 9.14963 6.4232 9.15415 6.34111C9.17815 6.04235 9.17815 5.74184 9.15415 5.44272C9.15415 5.38464 9.12529 5.36064 9.06233 5.36064H3.21741C3.14507 5.36064 3.12559 5.38464 3.12559 5.45246V6.31224C3.12559 6.42319 3.12559 6.42319 3.24141 6.42319H6.12057ZM8.82617 4.35582C8.83452 4.33391 8.83452 4.30991 8.82617 4.28835C8.77713 4.18157 8.71905 4.07966 8.65157 3.98401C8.55001 3.82054 8.43036 3.66994 8.29402 3.53465C8.22968 3.45291 8.15525 3.37952 8.07177 3.31727C7.65371 2.96146 7.15669 2.70964 6.62246 2.58304C6.3529 2.52252 6.07744 2.49365 5.80128 2.49609H3.20732C3.13498 2.49609 3.12524 2.52496 3.12524 2.58791V4.30261C3.12524 4.37495 3.12524 4.39443 3.21706 4.39443H8.79139C8.79139 4.39443 8.83973 4.38469 8.84947 4.35582H8.82617ZM8.82617 7.42801C8.74409 7.41897 8.66131 7.41897 8.57923 7.42801H3.22228C3.14994 7.42801 3.12559 7.42801 3.12559 7.5247V9.20114C3.12559 9.27835 3.12559 9.29783 3.22228 9.29783H5.69555C5.8138 9.30687 5.93206 9.29853 6.04788 9.27383C6.40681 9.2481 6.75984 9.17019 7.09652 9.04185C7.21895 8.99941 7.3372 8.94411 7.44885 8.87768H7.48259C8.06238 8.57613 8.53332 8.10241 8.83034 7.52088C8.83034 7.52088 8.86408 7.44784 8.82617 7.42871V7.42801ZM2.15486 10.167V10.1381V9.01263V8.63108V7.49584C2.15486 7.43288 2.15486 7.42349 2.07764 7.42349H1.02935C0.971264 7.42349 0.947266 7.42349 0.947266 7.34628V6.42841H2.0679C2.13051 6.42841 2.15486 6.42841 2.15486 6.34633V5.4382C2.15486 5.38012 2.15486 5.36586 2.07764 5.36586H1.02935C0.971264 5.36586 0.947266 5.36586 0.947266 5.28864V4.4386C0.947266 4.38539 0.947266 4.37112 1.02448 4.37112H2.06304C2.13538 4.37112 2.15486 4.37113 2.15486 4.2793V1.67561C2.15486 1.5984 2.15486 1.57892 2.25155 1.57892H5.87432C6.13726 1.58935 6.39847 1.61822 6.65689 1.66587C7.18938 1.7643 7.70101 1.95455 8.16881 2.22619C8.47906 2.40879 8.76461 2.6293 9.01886 2.8832C9.21015 3.0818 9.38266 3.29674 9.5357 3.5256C9.68769 3.75759 9.81395 4.00558 9.91307 4.2647C9.92525 4.33217 9.98994 4.37773 10.0574 4.36626H10.9221C11.033 4.36626 11.033 4.36626 11.0379 4.47269V5.26499C11.0379 5.34221 11.009 5.36168 10.9315 5.36168H10.2647C10.1972 5.36168 10.1778 5.36168 10.1826 5.44864C10.2091 5.74288 10.2091 6.03817 10.1826 6.33242C10.1826 6.4145 10.1826 6.42424 10.2748 6.42424H11.0375C11.0713 6.46771 11.0375 6.51119 11.0375 6.55501C11.0424 6.61101 11.0424 6.6677 11.0375 6.7237V7.30837C11.0375 7.39045 11.0135 7.4148 10.9408 7.4148H10.0278C9.9642 7.40262 9.90229 7.44332 9.88768 7.50662C9.6703 8.07181 9.32249 8.57856 8.87312 8.9848C8.70896 9.13262 8.53645 9.27175 8.35628 9.40009C8.1629 9.51139 7.97473 9.62721 7.77648 9.71903C7.41163 9.88319 7.02904 10.0042 6.63637 10.0811C6.26352 10.1479 5.88545 10.1781 5.50599 10.1729H2.15347V10.168L2.15486 10.167Z" fill="currentColor"/>
</g>
<defs>
<clipPath id="clip0_dai">
<rect width="10.1053" height="10.1053" fill="white" transform="translate(0.947266 0.947357)"/>
</clipPath>
</defs>
</svg>
