<svg xmlns="http://www.w3.org/2000/svg" width="52" height="52" fill="none" viewBox="0 0 52 52"><rect width="52" height="52" fill="#fff" fill-opacity=".01" rx="13.619"/><rect width="52" height="52" fill="url(#a)" rx="13.5"/><rect width="51.5" height="51.5" x=".25" y=".25" stroke="url(#b)" stroke-opacity=".16" stroke-width=".5" rx="13.25"/><rect width="37.741" height="37.741" x="7.259" y="7.256" fill="#bbb0ff" fill-opacity=".08" rx="8.709"/><path stroke="#bbb0ff" stroke-linecap="round" stroke-linejoin="round" stroke-width="2.286" d="M36.28 26.167a10.12 10.12 0 0 1-2.966 7.144c-3.968 3.968-10.402 3.968-14.37 0a10.2 10.2 0 0 1-1.735-2.325m-1.236-5.025a10.12 10.12 0 0 1 2.971-7.02c3.968-3.967 10.403-3.967 14.37 0a10.2 10.2 0 0 1 1.735 2.326m-3.899.001h4.49v-4.49M21.108 30.984h-4.49v4.49"/><defs><linearGradient id="a" x1="26.361" x2="26.361" y1="0" y2="52" gradientUnits="userSpaceOnUse"><stop stop-color="#fff" stop-opacity=".05"/><stop offset="1" stop-color="#1d1c1f" stop-opacity="0"/></linearGradient><linearGradient id="b" x1="26.361" x2="26.361" y1="0" y2="52" gradientUnits="userSpaceOnUse"><stop stop-color="#fff"/><stop offset="1" stop-opacity=".5"/></linearGradient></defs></svg>