<svg width="24" height="24" viewBox="0 0 24 24" fill="none" xmlns="http://www.w3.org/2000/svg">
<path d="M2.3999 18.96H2.8799V14.76H21.1199V18.96H21.5999V11.16C21.5999 9.69601 20.4959 8.59201 19.0319 8.59201H11.2559V14.28H2.8799V5.04001H2.3999V18.96ZM4.1759 10.104C4.1759 11.712 5.4719 12.984 7.0559 12.984C8.6639 12.984 9.9599 11.712 9.9599 10.104C9.9599 8.49601 8.6639 7.22401 7.0559 7.22401C5.4719 7.22401 4.1759 8.49601 4.1759 10.104ZM4.6559 10.104C4.6559 8.76001 5.7359 7.70401 7.0559 7.70401C8.3999 7.70401 9.4799 8.76001 9.4799 10.104C9.4799 11.448 8.3999 12.504 7.0559 12.504C5.7359 12.504 4.6559 11.448 4.6559 10.104ZM11.7359 14.28V9.07201H19.0319C20.2799 9.07201 21.1199 9.91201 21.1199 11.16V14.28H11.7359Z" fill="black"/>
</svg>
