<svg width="24" height="24" viewBox="0 0 24 24" fill="none" xmlns="http://www.w3.org/2000/svg">
<path d="M9.624 21.228C13.296 21.228 16.104 20.052 16.104 18.18V16.092C18.888 15.804 20.88 14.7 20.88 13.14V5.79597C20.88 3.94797 18.168 2.77197 14.4 2.77197C10.728 2.77197 7.896 3.92397 7.896 5.79597V7.90797C5.112 8.19597 3.12 9.27597 3.12 10.812V18.18C3.12 20.028 5.88 21.228 9.624 21.228ZM3.6 18.18V15.78C4.536 16.908 6.792 17.58 9.624 17.58C12.408 17.58 14.664 16.908 15.624 15.78V18.18C15.624 19.668 13.2 20.748 9.624 20.748C5.976 20.748 3.6 19.692 3.6 18.18ZM3.6 14.532V12.06C4.536 13.188 6.792 13.86 9.624 13.86C12.408 13.86 14.664 13.188 15.624 12.06V14.532C15.624 16.02 13.2 17.1 9.624 17.1C5.976 17.1 3.6 16.044 3.6 14.532ZM3.6 10.812C3.6 9.32397 6.048 8.26797 9.624 8.26797C13.296 8.26797 15.624 9.29997 15.624 10.812C15.624 12.3 13.2 13.38 9.624 13.38C5.976 13.38 3.6 12.324 3.6 10.812ZM8.376 7.85997V7.04397C8.616 7.33197 8.952 7.59597 9.336 7.81197C9 7.81197 8.688 7.83597 8.376 7.85997ZM8.376 5.79597C8.376 4.30797 10.824 3.25197 14.4 3.25197C18.072 3.25197 20.4 4.28397 20.4 5.79597C20.4 7.28397 17.88 8.45997 13.68 8.36397C12.768 8.07597 11.736 7.88397 10.632 7.83597C9.168 7.37997 8.376 6.65997 8.376 5.79597ZM14.712 8.84397C17.328 8.79597 19.488 8.09997 20.4 7.01997V9.51597C20.4 10.74 18.744 11.7 16.104 11.988V10.812C16.104 10.02 15.6 9.34797 14.712 8.84397ZM16.104 15.612V12.468C18.072 12.252 19.656 11.652 20.4 10.764V13.14C20.4 14.364 18.744 15.348 16.104 15.612Z" fill="black"/>
</svg>
