<svg width="24" height="24" viewBox="0 0 24 24" fill="none" xmlns="http://www.w3.org/2000/svg">
<path d="M9.62412 21.228C13.2961 21.228 16.1041 20.052 16.1041 18.18V16.092C18.8881 15.804 20.8801 14.7 20.8801 13.14V5.796C20.8801 3.948 18.1681 2.772 14.4001 2.772C10.7281 2.772 7.89612 3.924 7.89612 5.796V7.908C5.11212 8.196 3.12012 9.276 3.12012 10.812V18.18C3.12012 20.028 5.88012 21.228 9.62412 21.228ZM3.60012 18.18V15.78C4.53612 16.908 6.79212 17.58 9.62412 17.58C12.4081 17.58 14.6641 16.908 15.6241 15.78V18.18C15.6241 19.668 13.2001 20.748 9.62412 20.748C5.97612 20.748 3.60012 19.692 3.60012 18.18ZM3.60012 14.532V12.06C4.53612 13.188 6.79212 13.86 9.62412 13.86C12.4081 13.86 14.6641 13.188 15.6241 12.06V14.532C15.6241 16.02 13.2001 17.1 9.62412 17.1C5.97612 17.1 3.60012 16.044 3.60012 14.532ZM3.60012 10.812C3.60012 9.324 6.04812 8.268 9.62412 8.268C13.2961 8.268 15.6241 9.3 15.6241 10.812C15.6241 12.3 13.2001 13.38 9.62412 13.38C5.97612 13.38 3.60012 12.324 3.60012 10.812ZM8.37612 7.86V7.044C8.61612 7.332 8.95212 7.596 9.33612 7.812C9.00012 7.812 8.68812 7.836 8.37612 7.86ZM8.37612 5.796C8.37612 4.308 10.8241 3.252 14.4001 3.252C18.0721 3.252 20.4001 4.284 20.4001 5.796C20.4001 7.284 17.8801 8.46 13.6801 8.364C12.7681 8.076 11.7361 7.884 10.6321 7.836C9.16812 7.38 8.37612 6.66 8.37612 5.796ZM14.7121 8.844C17.3281 8.796 19.4881 8.1 20.4001 7.02V9.516C20.4001 10.74 18.7441 11.7 16.1041 11.988V10.812C16.1041 10.02 15.6001 9.348 14.7121 8.844ZM16.1041 15.612V12.468C18.0721 12.252 19.6561 11.652 20.4001 10.764V13.14C20.4001 14.364 18.7441 15.348 16.1041 15.612Z" fill="black"/>
</svg>
