<svg width="24" height="24" viewBox="0 0 24 24" fill="none" xmlns="http://www.w3.org/2000/svg">
<path d="M2.64001 5.00398V17.316L6.45601 14.364H17.76V5.00398C17.76 4.01998 16.944 3.20398 15.96 3.20398H4.44001C3.45601 3.20398 2.64001 4.01998 2.64001 5.00398ZM3.12001 16.332V5.00398C3.12001 4.28398 3.72001 3.68398 4.44001 3.68398H15.96C16.68 3.68398 17.28 4.28398 17.28 5.00398V13.884H6.28801L3.12001 16.332ZM7.44002 16.044C7.44002 17.028 8.25602 17.844 9.24002 17.844H17.52L21.36 20.796V8.74798C21.36 7.76398 20.544 6.94798 19.56 6.94798V7.42798C20.28 7.42798 20.88 8.02798 20.88 8.74798V19.812L17.688 17.364H9.24002C8.52002 17.364 7.92002 16.764 7.92002 16.044H7.44002ZM7.77602 9.58798C7.80002 10.908 8.64002 11.724 9.86402 11.844V12.516H10.344V11.844C11.544 11.772 12.36 11.076 12.36 10.044C12.36 9.10798 11.64 8.55598 10.632 8.43598L10.344 8.38798V6.03598C11.304 6.10798 11.784 6.68398 11.784 7.64398H12.264C12.264 6.46798 11.544 5.65198 10.344 5.55598V4.88398H9.86402V5.57998C8.85602 5.67598 8.04002 6.32398 8.04002 7.28398C8.04002 8.14798 8.66402 8.67598 9.62402 8.79598L9.86402 8.81998V11.364C8.88002 11.268 8.28002 10.644 8.25602 9.58798H7.77602ZM8.52002 7.28398C8.52002 6.58798 9.04802 6.13198 9.86402 6.05998V8.33998L9.67202 8.31598C8.88002 8.21998 8.52002 7.90798 8.52002 7.28398ZM10.344 11.364V8.89198L10.584 8.91598C11.424 9.01198 11.88 9.37198 11.88 10.044C11.88 10.812 11.328 11.292 10.344 11.364Z" fill="black"/>
</svg>
