<svg width="24" height="24" viewBox="0 0 24 24" fill="none" xmlns="http://www.w3.org/2000/svg">
<path d="M2.64014 5.00398V17.316L6.45614 14.364H17.7601V5.00398C17.7601 4.01998 16.9441 3.20398 15.9601 3.20398H4.44014C3.45614 3.20398 2.64014 4.01998 2.64014 5.00398ZM3.12014 16.332V5.00398C3.12014 4.28398 3.72014 3.68398 4.44014 3.68398H15.9601C16.6801 3.68398 17.2801 4.28398 17.2801 5.00398V13.884H6.28814L3.12014 16.332ZM7.44014 16.044C7.44014 17.028 8.25614 17.844 9.24014 17.844H17.5201L21.3601 20.796V8.74798C21.3601 7.76398 20.5441 6.94798 19.5601 6.94798V7.42798C20.2801 7.42798 20.8801 8.02798 20.8801 8.74798V19.812L17.6881 17.364H9.24014C8.52014 17.364 7.92014 16.764 7.92014 16.044H7.44014ZM7.77614 9.58798C7.80014 10.908 8.64014 11.724 9.86414 11.844V12.516H10.3441V11.844C11.5441 11.772 12.3601 11.076 12.3601 10.044C12.3601 9.10798 11.6401 8.55598 10.6321 8.43598L10.3441 8.38798V6.03598C11.3041 6.10798 11.7841 6.68398 11.7841 7.64398H12.2641C12.2641 6.46798 11.5441 5.65198 10.3441 5.55598V4.88398H9.86414V5.57998C8.85614 5.67598 8.04014 6.32398 8.04014 7.28398C8.04014 8.14798 8.66414 8.67598 9.62414 8.79598L9.86414 8.81998V11.364C8.88014 11.268 8.28014 10.644 8.25614 9.58798H7.77614ZM8.52014 7.28398C8.52014 6.58798 9.04814 6.13198 9.86414 6.05998V8.33998L9.67214 8.31598C8.88014 8.21998 8.52014 7.90798 8.52014 7.28398ZM10.3441 11.364V8.89198L10.5841 8.91598C11.4241 9.01198 11.8801 9.37198 11.8801 10.044C11.8801 10.812 11.3281 11.292 10.3441 11.364Z" fill="black"/>
</svg>
