<svg width="24" height="24" viewBox="0 0 24 24" fill="none" xmlns="http://www.w3.org/2000/svg">
<path d="M2.64014 5.00401V17.316L6.45614 14.364H17.7601V5.00401C17.7601 4.02001 16.9441 3.20401 15.9601 3.20401H4.44014C3.45614 3.20401 2.64014 4.02001 2.64014 5.00401ZM3.12014 16.332V5.00401C3.12014 4.28401 3.72014 3.68401 4.44014 3.68401H15.9601C16.6801 3.68401 17.2801 4.28401 17.2801 5.00401V13.884H6.28814L3.12014 16.332ZM7.44014 16.044C7.44014 17.028 8.25614 17.844 9.24014 17.844H17.5201L21.3601 20.796V8.74801C21.3601 7.76401 20.5441 6.94801 19.5601 6.94801V7.42801C20.2801 7.42801 20.8801 8.02801 20.8801 8.74801V19.812L17.6881 17.364H9.24014C8.52014 17.364 7.92014 16.764 7.92014 16.044H7.44014Z" fill="black"/>
</svg>
