<svg width="24" height="24" viewBox="0 0 24 24" fill="none" xmlns="http://www.w3.org/2000/svg">
<path d="M2.64014 5.00401V17.316L6.45614 14.364H17.7601V5.00401C17.7601 4.02001 16.9441 3.20401 15.9601 3.20401H4.44014C3.45614 3.20401 2.64014 4.02001 2.64014 5.00401ZM3.12014 16.332V5.00401C3.12014 4.28401 3.72014 3.68401 4.44014 3.68401H15.9601C16.6801 3.68401 17.2801 4.28401 17.2801 5.00401V13.884H6.28814L3.12014 16.332ZM7.44014 16.044C7.44014 17.028 8.25614 17.844 9.24014 17.844H17.5201L21.3601 20.796V8.74801C21.3601 7.76401 20.5441 6.94801 19.5601 6.94801V7.42801C20.2801 7.42801 20.8801 8.02801 20.8801 8.74801V19.812L17.6881 17.364H9.24014C8.52014 17.364 7.92014 16.764 7.92014 16.044H7.44014ZM7.77614 9.58801C7.80014 10.908 8.64014 11.724 9.86414 11.844V12.516H10.3441V11.844C11.5441 11.772 12.3601 11.076 12.3601 10.044C12.3601 9.10801 11.6401 8.55601 10.6321 8.43601L10.3441 8.38801V6.03601C11.3041 6.10801 11.7841 6.68401 11.7841 7.64401H12.2641C12.2641 6.46801 11.5441 5.65201 10.3441 5.55601V4.88401H9.86414V5.58001C8.85614 5.67601 8.04014 6.32401 8.04014 7.28401C8.04014 8.14801 8.66414 8.67601 9.62414 8.79601L9.86414 8.82001V11.364C8.88014 11.268 8.28014 10.644 8.25614 9.58801H7.77614ZM8.52014 7.28401C8.52014 6.58801 9.04814 6.13201 9.86414 6.06001V8.34001L9.67214 8.31601C8.88014 8.22001 8.52014 7.90801 8.52014 7.28401ZM10.3441 11.364V8.89201L10.5841 8.91601C11.4241 9.01201 11.8801 9.37201 11.8801 10.044C11.8801 10.812 11.3281 11.292 10.3441 11.364Z" fill="black"/>
</svg>
