<svg width="24" height="24" viewBox="0 0 24 24" fill="none" xmlns="http://www.w3.org/2000/svg">
<path d="M5.32801 20.4H18.672C18.336 20.112 17.904 19.92 17.4 19.92H14.616L13.848 16.32H19.56C20.544 16.32 21.36 15.504 21.36 14.52V5.39998C21.36 4.41598 20.544 3.59998 19.56 3.59998H4.44001C3.45601 3.59998 2.64001 4.41598 2.64001 5.39998V14.52C2.64001 15.504 3.45601 16.32 4.44001 16.32H10.152L9.38402 19.92H6.60001C6.12001 19.92 5.66401 20.112 5.32801 20.4ZM3.12001 14.52V5.39998C3.12001 4.60798 3.64801 4.07998 4.44001 4.07998H19.56C20.352 4.07998 20.88 4.60798 20.88 5.39998V14.52C20.88 15.312 20.352 15.84 19.56 15.84H4.44001C3.64801 15.84 3.12001 15.312 3.12001 14.52ZM9.88802 19.92L10.656 16.32H13.344L14.112 19.92H9.88802Z" fill="black"/>
</svg>
