<svg width="24" height="24" viewBox="0 0 24 24" fill="none" xmlns="http://www.w3.org/2000/svg">
<path d="M5.32814 20.4H18.6721C18.3361 20.112 17.9041 19.92 17.4001 19.92H14.6161L13.8481 16.32H19.5601C20.5441 16.32 21.3601 15.504 21.3601 14.52V5.40001C21.3601 4.41601 20.5441 3.60001 19.5601 3.60001H4.44014C3.45614 3.60001 2.64014 4.41601 2.64014 5.40001V14.52C2.64014 15.504 3.45614 16.32 4.44014 16.32H10.1521L9.38414 19.92H6.60014C6.12014 19.92 5.66414 20.112 5.32814 20.4ZM3.12014 14.52V5.40001C3.12014 4.60801 3.64814 4.08001 4.44014 4.08001H19.5601C20.3521 4.08001 20.8801 4.60801 20.8801 5.40001V14.52C20.8801 15.312 20.3521 15.84 19.5601 15.84H4.44014C3.64814 15.84 3.12014 15.312 3.12014 14.52ZM9.88814 19.92L10.6561 16.32H13.3441L14.1121 19.92H9.88814Z" fill="black"/>
</svg>
