<svg width="24" height="24" viewBox="0 0 24 24" fill="none" xmlns="http://www.w3.org/2000/svg">
<path d="M4.848 19.92H12.36V19.44H9.408L10.176 15.84H12.36V15.36H3.96C3.168 15.36 2.64 14.832 2.64 14.04V4.92C2.64 4.128 3.168 3.6 3.96 3.6H19.08C19.872 3.6 20.4 4.128 20.4 4.92V6.12H20.88V4.92C20.88 3.936 20.064 3.12 19.08 3.12H3.96C2.976 3.12 2.16 3.936 2.16 4.92V14.04C2.16 15.024 2.976 15.84 3.96 15.84H9.672L8.904 19.44H6.12C5.64 19.44 5.184 19.632 4.848 19.92ZM14.04 19.08C14.04 20.064 14.856 20.88 15.84 20.88H20.04C21.024 20.88 21.84 20.064 21.84 19.08V9.6C21.84 8.616 21.024 7.8 20.04 7.8H15.84C14.856 7.8 14.04 8.616 14.04 9.6V19.08ZM14.52 19.08V9.6C14.52 8.808 15.048 8.28 15.84 8.28H20.04C20.832 8.28 21.36 8.808 21.36 9.6V19.08C21.36 19.872 20.832 20.4 20.04 20.4H15.84C15.048 20.4 14.52 19.872 14.52 19.08ZM17.16 18.528C17.16 18.96 17.496 19.32 17.952 19.32C18.384 19.32 18.72 18.96 18.72 18.528C18.72 18.096 18.384 17.76 17.952 17.76C17.496 17.76 17.16 18.096 17.16 18.528Z" fill="black"/>
</svg>
