<svg width="24" height="24" viewBox="0 0 24 24" fill="none" xmlns="http://www.w3.org/2000/svg">
<path d="M5.88 21.36H12.84V20.88H5.88C5.088 20.88 4.56 20.352 4.56 19.56V4.44001C4.56 3.64801 5.088 3.12001 5.88 3.12001H15.36C16.152 3.12001 16.68 3.64801 16.68 4.44001V7.20002H17.16V4.44001C17.16 3.45601 16.344 2.64001 15.36 2.64001H5.88C4.896 2.64001 4.08 3.45601 4.08 4.44001V19.56C4.08 20.544 4.896 21.36 5.88 21.36ZM14.52 21.36H19.92V8.88002H14.52V21.36ZM15 20.88V9.36002H19.44V20.88H15Z" fill="black"/>
</svg>
