<svg width="24" height="24" viewBox="0 0 24 24" fill="none" xmlns="http://www.w3.org/2000/svg">
<path d="M11.976 22.32H12.456V20.4C15.24 20.328 17.784 18.72 17.784 15.792C17.784 13.416 16.056 12.096 13.512 11.736L12.456 11.592V4.07999C15.264 4.17599 17.016 6.04799 17.04 8.99999H17.52C17.496 5.80799 15.48 3.71999 12.456 3.59999V1.67999H11.976V3.59999C9.528 3.69599 6.888 5.11199 6.888 7.96799C6.888 10.224 8.352 11.52 10.824 11.856L11.976 12.024V19.92C8.76 19.824 6.768 17.808 6.696 14.496H6.216C6.288 18.096 8.592 20.28 11.976 20.4V22.32ZM7.368 7.99199V7.94399C7.368 5.66399 9.336 4.15199 11.976 4.07999V11.52L10.872 11.376C8.616 11.064 7.368 9.98399 7.368 7.99199ZM12.456 19.92V12.072L13.464 12.216C15.84 12.528 17.304 13.68 17.304 15.768V15.816C17.304 18.288 15.264 19.848 12.456 19.92Z" fill="black"/>
</svg>
