<svg width="24" height="24" viewBox="0 0 24 24" fill="none" xmlns="http://www.w3.org/2000/svg">
<path d="M12.888 16.704H12.936C14.784 16.704 16.032 15.6 16.032 14.112C16.032 13.08 15.408 12.24 14.328 11.856V11.808C15.264 11.448 15.816 10.704 15.816 9.768C15.816 8.4 14.64 7.344 12.936 7.344H12.888C11.184 7.344 10.008 8.4 10.008 9.768C10.008 10.704 10.56 11.448 11.496 11.808V11.856C10.416 12.24 9.79198 13.08 9.79198 14.112C9.79198 15.6 11.04 16.704 12.888 16.704ZM4.03198 12C4.03198 16.968 7.94398 20.88 12.912 20.88H19.968V20.4H12.912C8.20798 20.4 4.51198 16.704 4.51198 12C4.51198 7.416 8.20798 3.6 12.912 3.6H19.968V3.12H12.912C7.94398 3.12 4.03198 7.152 4.03198 12ZM10.272 14.136V14.088C10.272 12.864 11.184 12.072 12.888 12.072H12.936C14.64 12.072 15.552 12.864 15.552 14.088V14.136C15.552 15.384 14.592 16.224 12.936 16.224H12.888C11.232 16.224 10.272 15.384 10.272 14.136ZM10.488 9.792V9.744C10.488 8.592 11.376 7.824 12.888 7.824H12.936C14.448 7.824 15.336 8.592 15.336 9.744V9.792C15.336 10.92 14.496 11.64 12.936 11.64H12.888C11.328 11.64 10.488 10.92 10.488 9.792Z" fill="black"/>
</svg>
