<svg width="24" height="24" viewBox="0 0 24 24" fill="none" xmlns="http://www.w3.org/2000/svg">
<path d="M12.0001 20.7188C9.68851 20.7162 7.47234 19.7967 5.83786 18.1621C4.20338 16.5275 3.2841 14.3112 3.28174 11.9996C3.2843 9.68816 4.20366 7.47209 5.83812 5.83763C7.47258 4.20317 9.68864 3.28381 12.0001 3.28125C14.3116 3.28381 16.5276 4.20317 18.1621 5.83763C19.7966 7.47209 20.7159 9.68816 20.7185 11.9996C20.7161 14.3112 19.7969 16.5275 18.1624 18.1621C16.5279 19.7967 14.3117 20.7162 12.0001 20.7188ZM12.0001 3.72793C9.80711 3.73049 7.70465 4.60279 6.15396 6.15348C4.60327 7.70417 3.73098 9.80662 3.72841 11.9996C3.73078 14.1928 4.603 16.2954 6.15371 17.8463C7.70442 19.3971 9.80698 20.2695 12.0001 20.2721C14.1932 20.2695 16.2958 19.3971 17.8465 17.8463C19.3972 16.2954 20.2695 14.1928 20.2718 11.9996C20.2693 9.80662 19.3969 7.70417 17.8463 6.15348C16.2956 4.60279 14.1931 3.73049 12.0001 3.72793Z" fill="black"/>
<path d="M8.68429 11.1807C9.36804 11.1807 9.92232 10.6264 9.92232 9.94268C9.92232 9.25893 9.36804 8.70464 8.68429 8.70464C8.00054 8.70464 7.44625 9.25893 7.44625 9.94268C7.44625 10.6264 8.00054 11.1807 8.68429 11.1807Z" fill="black"/>
<path d="M15.2512 11.1807C15.9349 11.1807 16.4892 10.6264 16.4892 9.94268C16.4892 9.25893 15.9349 8.70464 15.2512 8.70464C14.5674 8.70464 14.0131 9.25893 14.0131 9.94268C14.0131 10.6264 14.5674 11.1807 15.2512 11.1807Z" fill="black"/>
<path d="M15.6688 15.917C15.3611 15.188 14.8451 14.566 14.1855 14.129C13.5258 13.692 12.7519 13.4594 11.9607 13.4603C11.1694 13.4594 10.3955 13.692 9.73583 14.129C9.0762 14.566 8.56021 15.188 8.2525 15.917L7.84081 15.7435C8.18254 14.9334 8.75575 14.2422 9.48862 13.7564C10.2215 13.2707 11.0814 13.012 11.9607 13.0128C12.8398 13.0121 13.6995 13.2709 14.4323 13.7566C15.165 14.2424 15.7381 14.9335 16.0798 15.7435L15.6688 15.917Z" fill="black"/>
</svg>
