<svg width="24" height="24" viewBox="0 0 24 24" fill="none" xmlns="http://www.w3.org/2000/svg">
<path d="M21.192 21.528L21.528 21.192L2.80805 2.47198L2.47205 2.80798L6.67205 7.00798C4.99205 8.25598 3.57605 10.008 2.64005 12C4.48805 15.984 8.37605 18.984 12 18.984C13.656 18.984 15.384 18.336 16.944 17.28L21.192 21.528ZM3.16805 12C4.08005 10.128 5.42405 8.51998 7.00805 7.34398L9.62405 9.95998C9.16805 10.512 8.88005 11.232 8.88005 12C8.88005 13.728 10.272 15.12 12 15.12C12.768 15.12 13.488 14.856 14.04 14.376L16.584 16.92C15.096 17.928 13.536 18.504 12 18.504C8.59205 18.504 4.99205 15.768 3.16805 12ZM9.36005 12C9.36005 11.352 9.57605 10.752 9.96005 10.296L13.704 14.04C13.224 14.424 12.624 14.64 12 14.64C10.536 14.64 9.36005 13.464 9.36005 12ZM9.45605 5.47198L9.84005 5.85598C10.56 5.61598 11.28 5.49598 12 5.49598C15.408 5.49598 19.008 8.23198 20.832 12C20.304 13.056 19.656 14.04 18.888 14.904L19.224 15.24C20.088 14.28 20.808 13.176 21.36 12C19.512 8.01598 15.624 5.01598 12 5.01598C11.16 5.01598 10.296 5.18398 9.45605 5.47198Z" fill="black"/>
</svg>
