<svg width="24" height="24" viewBox="0 0 24 24" fill="none" xmlns="http://www.w3.org/2000/svg">
<path d="M7.56021 12.24H13.5602V11.76H7.56021V12.24ZM4.51221 12C4.51221 17.352 7.22421 21.84 10.7522 21.84H13.3442C16.7762 21.84 19.4882 17.352 19.4882 12C19.4882 6.648 16.7762 2.16 13.3442 2.16H10.7522C7.22421 2.16 4.51221 6.648 4.51221 12ZM4.99221 12C4.99221 6.84 7.56021 2.64 10.7522 2.64C13.8482 2.64 16.4642 6.84 16.4642 12C16.4642 17.16 13.8482 21.36 10.7522 21.36C7.56021 21.36 4.99221 17.16 4.99221 12ZM12.6722 21.36C15.1442 20.064 16.9442 16.32 16.9442 12C16.9442 7.68 15.1442 3.936 12.6722 2.64H13.3442C16.4402 2.64 19.0082 6.84 19.0082 12C19.0082 17.16 16.4402 21.36 13.3442 21.36H12.6722Z" fill="black"/>
</svg>
