<svg width="24" height="24" viewBox="0 0 24 24" fill="none" xmlns="http://www.w3.org/2000/svg">
<path fill-rule="evenodd" clip-rule="evenodd" d="M10.0185 7.71077C9.41902 7.71006 8.84429 7.47168 8.42033 7.04789C8.05901 6.68671 7.83233 6.21598 7.77265 5.7137H3.67065V5.1828H7.77286C7.83283 4.68149 8.05918 4.2117 8.41973 3.85101C8.84374 3.42683 9.41871 3.1882 10.0185 3.1875C10.6182 3.1882 11.1932 3.42683 11.6172 3.85101C11.9778 4.2117 12.2041 4.68149 12.2641 5.1828H20.3286V5.7137H12.2643C12.2046 6.21598 11.9779 6.68671 11.6166 7.04789C11.1927 7.47168 10.6179 7.71006 10.0185 7.71077ZM10.0185 3.71751C9.55929 3.71798 9.1191 3.90072 8.79457 4.22558C8.47005 4.55044 8.28774 4.99084 8.28774 5.45002C8.2882 5.90889 8.4707 6.34884 8.79518 6.67331C9.11965 6.99779 9.5596 7.18028 10.0185 7.18075C10.4774 7.18028 10.9173 6.99779 11.2418 6.67331C11.5662 6.34884 11.7487 5.90889 11.7492 5.45002C11.7492 4.99084 11.5669 4.55044 11.2424 4.22558C10.9179 3.90072 10.4777 3.71798 10.0185 3.71751Z" fill="black"/>
<path fill-rule="evenodd" clip-rule="evenodd" d="M14.5585 14.2621C13.9582 14.2616 13.3826 14.0228 12.9583 13.5983C12.5973 13.2372 12.3708 12.7669 12.311 12.265H3.67065V11.7341H12.3108C12.3703 11.2317 12.5969 10.7607 12.9583 10.3993C13.3823 9.97534 13.9571 9.73683 14.5567 9.73613C15.1567 9.73636 15.7321 9.97463 16.1566 10.3986C16.5185 10.7601 16.7455 11.2313 16.8052 11.7341H20.3294V12.265H16.8051C16.7453 12.7667 16.519 13.237 16.1582 13.598C15.734 14.0225 15.1587 14.2614 14.5585 14.2621ZM14.5585 10.2688C14.0997 10.269 13.6597 10.4512 13.335 10.7752C13.0102 11.0993 12.8272 11.539 12.826 11.9978C12.8265 12.4567 13.009 12.8968 13.3334 13.2214C13.6579 13.546 14.0978 13.7287 14.5567 13.7294C15.0162 13.7294 15.4568 13.547 15.7818 13.2223C16.1068 12.8976 16.2896 12.4572 16.2901 11.9978C16.2889 11.5391 16.1061 11.0996 15.7815 10.7756C15.4569 10.4515 15.0172 10.2693 14.5585 10.2688Z" fill="black"/>
<path fill-rule="evenodd" clip-rule="evenodd" d="M8.41977 20.1496C8.84381 20.5736 9.4188 20.812 10.0185 20.8125C10.6182 20.812 11.1931 20.5736 11.6172 20.1496C11.9782 19.7886 12.2046 19.3182 12.2643 18.8163H20.3286V18.2854H12.2643C12.2046 17.7835 11.9782 17.3132 11.6172 16.9522C11.1931 16.5281 10.6182 16.2897 10.0185 16.2892C9.4188 16.2897 8.84381 16.5281 8.41977 16.9522C8.05879 17.3132 7.83232 17.7835 7.77266 18.2854H3.67065V18.8163H7.77265C7.83231 19.3182 8.05878 19.7886 8.41977 20.1496ZM8.79518 17.3276C9.11965 17.0031 9.5596 16.8206 10.0185 16.8201C10.4774 16.8206 10.9173 17.0031 11.2418 17.3276C11.5662 17.6521 11.7487 18.092 11.7492 18.5509C11.7487 19.0098 11.5662 19.4497 11.2418 19.7742C10.9173 20.0986 10.4774 20.2811 10.0185 20.2816C9.5596 20.2811 9.11965 20.0986 8.79518 19.7742C8.4707 19.4497 8.2882 19.0098 8.28774 18.5509C8.2882 18.092 8.4707 17.6521 8.79518 17.3276Z" fill="black"/>
</svg>
