<svg width="24" height="24" viewBox="0 0 24 24" fill="none" xmlns="http://www.w3.org/2000/svg">
<path d="M11.0882 16.704C12.9842 16.704 14.1602 15.384 14.1602 13.608C14.1602 11.784 12.9122 10.512 11.1602 10.512C10.2002 10.512 9.40823 10.944 8.92823 11.64H8.90423L9.24023 8.064H13.6562V7.584H8.80823L8.32823 12.744H8.80823C9.12023 11.688 9.88823 10.992 11.1362 10.992H11.1842C12.7202 10.992 13.6802 12 13.6802 13.584V13.632C13.6802 15.216 12.7682 16.224 11.1122 16.224H11.0642C9.40823 16.224 8.49623 15.192 8.49623 13.752H8.01623C8.01623 15.384 9.19223 16.704 11.0882 16.704ZM4.03223 20.88H11.0882C16.0562 20.88 19.9682 16.848 19.9682 12C19.9682 7.032 16.0562 3.12 11.0882 3.12H4.03223V3.6H11.0882C15.7922 3.6 19.4882 7.296 19.4882 12C19.4882 16.584 15.7922 20.4 11.0882 20.4H4.03223V20.88Z" fill="black"/>
</svg>
