<svg width="24" height="24" viewBox="0 0 24 24" fill="none" xmlns="http://www.w3.org/2000/svg">
<path d="M12 20.88C16.968 20.88 20.88 16.848 20.88 12C20.88 7.032 16.968 3.12 12 3.12C7.032 3.12 3.12 7.032 3.12 12C3.12 16.968 7.032 20.88 12 20.88ZM3.6 12C3.6 7.296 7.296 3.6 12 3.6C16.704 3.6 20.4 7.296 20.4 12C20.4 16.584 16.704 20.4 12 20.4C7.296 20.4 3.6 16.704 3.6 12ZM8.928 13.752C8.928 15.384 10.104 16.704 12 16.704C13.896 16.704 15.072 15.384 15.072 13.608C15.072 11.784 13.824 10.512 12.072 10.512C11.112 10.512 10.32 10.944 9.84 11.64H9.816L10.152 8.064H14.568V7.584H9.72L9.24 12.744H9.72C10.032 11.688 10.8 10.992 12.048 10.992H12.096C13.632 10.992 14.592 12 14.592 13.584V13.632C14.592 15.216 13.68 16.224 12.024 16.224H11.976C10.32 16.224 9.408 15.192 9.408 13.752H8.928Z" fill="black"/>
</svg>
