<svg width="24" height="24" viewBox="0 0 24 24" fill="none" xmlns="http://www.w3.org/2000/svg">
<path d="M12.9122 16.704C14.8082 16.704 15.9842 15.384 15.9842 13.608C15.9842 11.784 14.7362 10.512 12.9842 10.512C12.0242 10.512 11.2322 10.944 10.7522 11.64H10.7282L11.0642 8.064H15.4802V7.584H10.6322L10.1522 12.744H10.6322C10.9442 11.688 11.7122 10.992 12.9602 10.992H13.0082C14.5442 10.992 15.5042 12 15.5042 13.584V13.632C15.5042 15.216 14.5922 16.224 12.9362 16.224H12.8882C11.2322 16.224 10.3202 15.192 10.3202 13.752H9.84023C9.84023 15.384 11.0162 16.704 12.9122 16.704ZM4.03223 12C4.03223 16.968 7.94423 20.88 12.9122 20.88H19.9682V20.4H12.9122C8.20823 20.4 4.51223 16.704 4.51223 12C4.51223 7.416 8.20823 3.6 12.9122 3.6H19.9682V3.12H12.9122C7.94423 3.12 4.03223 7.152 4.03223 12Z" fill="black"/>
</svg>
