<svg width="24" height="24" viewBox="0 0 24 24" fill="none" xmlns="http://www.w3.org/2000/svg">
<path d="M11.9998 16.704C13.8958 16.704 15.0718 15.384 15.0718 13.608C15.0718 11.784 13.8238 10.512 12.0718 10.512C11.1118 10.512 10.3198 10.944 9.83977 11.64H9.81577L10.1518 8.064H14.5678V7.584H9.71977L9.23977 12.744H9.71977C10.0318 11.688 10.7998 10.992 12.0478 10.992H12.0958C13.6318 10.992 14.5918 12 14.5918 13.584V13.632C14.5918 15.216 13.6798 16.224 12.0238 16.224H11.9758C10.3198 16.224 9.40777 15.192 9.40777 13.752H8.92777C8.92777 15.384 10.1038 16.704 11.9998 16.704ZM5.75977 20.88H18.2398V20.4H5.75977V20.88ZM5.75977 3.6H18.2398V3.12H5.75977V3.6Z" fill="black"/>
</svg>
