<svg width="24" height="24" viewBox="0 0 24 24" fill="none" xmlns="http://www.w3.org/2000/svg">
<path d="M11.7601 21.36H12.2401V17.28L14.6641 19.776L15.0001 19.44L12.2401 16.68L12.2161 12.528L18.0961 18.432L18.4321 18.096L12.5281 12.216L16.6801 12.24L19.4401 15L19.7761 14.664L17.2801 12.24H21.3601V11.76H17.2801L19.7761 9.33602L19.4401 9.00002L16.6801 11.76L12.5281 11.784L18.4321 5.90401L18.0961 5.56801L12.2161 11.472L12.2401 7.32001L15.0001 4.56001L14.6641 4.22401L12.2401 6.72002V2.64001H11.7601V6.72002L9.33614 4.22401L9.00014 4.56001L11.7601 7.32001L11.7841 11.472L5.90414 5.56801L5.56814 5.90401L11.4721 11.784L7.32014 11.76L4.56014 9.00002L4.22414 9.33602L6.72014 11.76H2.64014V12.24H6.72014L4.22414 14.664L4.56014 15L7.32014 12.24L11.4721 12.216L5.56814 18.096L5.90414 18.432L11.7841 12.528L11.7601 16.68L9.00014 19.44L9.33614 19.776L11.7601 17.28V21.36Z" fill="black"/>
</svg>
