<svg width="24" height="24" viewBox="0 0 24 24" fill="none" xmlns="http://www.w3.org/2000/svg">
<path d="M11.0521 20.628C11.7001 20.628 12.3001 20.604 12.9001 20.556L13.4281 20.028C12.6841 20.1 11.8921 20.148 11.0521 20.148C6.70814 20.148 3.82814 18.996 3.82814 17.412V14.7C4.88414 15.948 7.62014 16.716 11.0521 16.716C11.6761 16.716 12.3001 16.692 12.9001 16.644L12.6601 16.404L12.9001 16.164C12.3001 16.212 11.6761 16.236 11.0521 16.236C6.70814 16.236 3.82814 15.036 3.82814 13.476V10.764C4.88414 12.036 7.62014 12.804 11.0521 12.804C14.4361 12.804 17.1961 12.036 18.2761 10.74V14.388L18.5161 14.652L18.7561 14.412V5.58C18.7561 3.612 15.5401 2.388 11.0521 2.388C6.68414 2.388 3.34814 3.612 3.34814 5.58V17.412C3.34814 19.38 6.61214 20.628 11.0521 20.628ZM3.82814 9.516V6.828C4.88414 8.1 7.62014 8.82 11.0521 8.82C14.4361 8.82 17.1961 8.076 18.2761 6.804V9.516C18.2761 11.124 15.3241 12.324 11.0521 12.324C6.70814 12.324 3.82814 11.124 3.82814 9.516ZM3.82814 5.58C3.82814 3.996 6.78014 2.868 11.0521 2.868C15.4441 2.868 18.2761 3.996 18.2761 5.58C18.2761 7.212 15.3241 8.34 11.0521 8.34C6.70814 8.34 3.82814 7.212 3.82814 5.58ZM14.6041 21.276L14.9401 21.612L17.6281 18.924L20.3161 21.612L20.6521 21.276L17.9641 18.588L20.6521 15.9L20.3161 15.564L17.6281 18.252L14.9401 15.564L14.6041 15.9L17.2921 18.588L14.6041 21.276Z" fill="black"/>
</svg>
