<svg width="24" height="24" viewBox="0 0 24 24" fill="none" xmlns="http://www.w3.org/2000/svg">
<path d="M10.7997 20.556C11.1837 20.556 11.5677 20.556 11.9277 20.532L11.4717 20.076H10.7997C6.4557 20.076 3.5757 18.924 3.5757 17.34V14.628C4.6317 15.876 7.3677 16.644 10.7997 16.644C11.3037 16.644 11.7837 16.62 12.2397 16.596L12.4077 16.572H12.5757C15.1677 16.356 17.1597 15.684 18.0237 14.652V16.068L18.5037 15.588V5.50801C18.5037 3.54001 15.2877 2.31601 10.7997 2.31601C6.4317 2.31601 3.0957 3.54001 3.0957 5.50801V17.34C3.0957 19.308 6.3597 20.556 10.7997 20.556ZM3.5757 13.404V10.692C4.6317 11.964 7.3677 12.732 10.7997 12.732C14.1837 12.732 16.9437 11.964 18.0237 10.668V13.404C18.0237 14.964 15.0717 16.164 10.7997 16.164C6.4557 16.164 3.5757 14.964 3.5757 13.404ZM3.5757 9.44401V6.75601C4.6317 8.02801 7.3677 8.74801 10.7997 8.74801C14.1837 8.74801 16.9437 8.00401 18.0237 6.73201V9.44401C18.0237 11.052 15.0717 12.252 10.7997 12.252C6.4557 12.252 3.5757 11.052 3.5757 9.44401ZM3.5757 5.50801C3.5757 3.92401 6.5277 2.79601 10.7997 2.79601C15.1917 2.79601 18.0237 3.92401 18.0237 5.50801C18.0237 7.14001 15.0717 8.26801 10.7997 8.26801C6.4557 8.26801 3.5757 7.14001 3.5757 5.50801ZM12.3357 18.564L15.4557 21.684L20.9037 16.236L20.5677 15.9L15.4557 21.012L12.6717 18.228L12.3357 18.564Z" fill="black"/>
</svg>
