<svg width="24" height="24" viewBox="0 0 24 24" fill="none" xmlns="http://www.w3.org/2000/svg">
<path d="M10.8002 20.556C11.1842 20.556 11.5682 20.556 11.9282 20.532L11.4722 20.076H10.8002C6.45619 20.076 3.57619 18.924 3.57619 17.34V14.628C4.63219 15.876 7.36819 16.644 10.8002 16.644C11.3042 16.644 11.7842 16.62 12.2402 16.596L12.4082 16.572H12.5762C15.1682 16.356 17.1602 15.684 18.0242 14.652V16.068L18.5042 15.588V5.50798C18.5042 3.53998 15.2882 2.31598 10.8002 2.31598C6.43219 2.31598 3.09619 3.53998 3.09619 5.50798V17.34C3.09619 19.308 6.36019 20.556 10.8002 20.556ZM3.57619 13.404V10.692C4.63219 11.964 7.36819 12.732 10.8002 12.732C14.1842 12.732 16.9442 11.964 18.0242 10.668V13.404C18.0242 14.964 15.0722 16.164 10.8002 16.164C6.45619 16.164 3.57619 14.964 3.57619 13.404ZM3.57619 9.44398V6.75598C4.63219 8.02798 7.36819 8.74798 10.8002 8.74798C14.1842 8.74798 16.9442 8.00398 18.0242 6.73198V9.44398C18.0242 11.052 15.0722 12.252 10.8002 12.252C6.45619 12.252 3.57619 11.052 3.57619 9.44398ZM3.57619 5.50798C3.57619 3.92398 6.52819 2.79598 10.8002 2.79598C15.1922 2.79598 18.0242 3.92398 18.0242 5.50798C18.0242 7.13998 15.0722 8.26798 10.8002 8.26798C6.45619 8.26798 3.57619 7.13998 3.57619 5.50798ZM12.3362 18.564L15.4562 21.684L20.9042 16.236L20.5682 15.9L15.4562 21.012L12.6722 18.228L12.3362 18.564Z" fill="black"/>
</svg>
