<svg width="24" height="24" viewBox="0 0 24 24" fill="none" xmlns="http://www.w3.org/2000/svg">
<path d="M12 20.88C17.016 20.88 20.88 16.824 20.88 12C20.88 7.032 16.992 3.12 12 3.12C7.008 3.12 3.12 7.032 3.12 12C3.12 16.968 7.008 20.88 12 20.88ZM3.6 12.24H7.008C7.032 14.04 7.344 15.696 7.872 17.064H5.232C4.248 15.72 3.648 14.064 3.6 12.24ZM3.6 11.76C3.648 9.936 4.248 8.28 5.232 6.936H7.872C7.344 8.304 7.032 9.96 7.008 11.76H3.6ZM5.592 17.544H8.064C8.592 18.744 9.312 19.704 10.152 20.256C8.328 19.872 6.744 18.888 5.592 17.544ZM5.592 6.456C6.744 5.112 8.328 4.128 10.152 3.744C9.312 4.296 8.592 5.256 8.064 6.456H5.592ZM7.488 12.24H11.76V17.064H8.376C7.824 15.72 7.512 14.064 7.488 12.24ZM7.488 11.76C7.512 9.936 7.824 8.28 8.376 6.936H11.76V11.76H7.488ZM8.568 17.544H11.76V20.448C10.464 20.328 9.336 19.224 8.568 17.544ZM8.568 6.456C9.336 4.776 10.464 3.672 11.76 3.552V6.456H8.568ZM12.24 20.448V17.544H15.432C14.664 19.224 13.536 20.328 12.24 20.448ZM12.24 17.064V12.24H16.512C16.488 14.064 16.176 15.72 15.624 17.064H12.24ZM12.24 11.76V6.936H15.624C16.176 8.28 16.488 9.936 16.512 11.76H12.24ZM12.24 6.456V3.552C13.536 3.672 14.664 4.776 15.432 6.456H12.24ZM13.848 3.744C15.672 4.128 17.256 5.112 18.408 6.456H15.936C15.408 5.256 14.688 4.296 13.848 3.744ZM13.848 20.232C14.688 19.68 15.408 18.744 15.936 17.544H18.36C17.208 18.864 15.648 19.848 13.848 20.232ZM16.128 17.064C16.656 15.696 16.968 14.04 16.992 12.24H20.4C20.352 14.04 19.728 15.696 18.744 17.064H16.128ZM16.128 6.936H18.768C19.752 8.28 20.352 9.936 20.4 11.76H16.992C16.968 9.96 16.656 8.304 16.128 6.936Z" fill="black"/>
</svg>
