<svg width="24" height="24" viewBox="0 0 24 24" fill="none" xmlns="http://www.w3.org/2000/svg">
<path fill-rule="evenodd" clip-rule="evenodd" d="M5.53903 9.06757L1.27917 7.38545L12.0018 3.1875L22.7208 7.38545L18.6823 8.99643V15.8578L20.4311 18.0682L18.5733 20.8125L16.6857 18.0682L18.2739 16.0926H18.2554V13.9505L12.0018 16.2894L5.53903 13.8574V9.06757ZM5.96594 9.23615L12.0544 11.6403L18.2161 9.18237V13.5095L12.0018 15.8333L5.96594 13.5621V9.23615ZM17.7199 8.92058L12.0544 11.1807L2.44891 7.38688L12.0053 3.64358L21.561 7.3883L18.3272 8.67832L12.2003 6.5625L12.0609 6.96664L17.7199 8.92058ZM17.2179 18.0881L18.5698 20.0547L19.9032 18.0874L18.5712 16.4039L17.2179 18.0881Z" fill="black"/>
</svg>
