<svg width="24" height="24" viewBox="0 0 24 24" fill="none" xmlns="http://www.w3.org/2000/svg">
<path d="M13.776 7.70397L11.16 10.32C10.824 10.656 10.584 10.752 10.296 10.752C9.69599 10.752 9.21599 10.272 9.21599 9.67197C9.21599 9.40797 9.35999 9.09597 9.55199 8.90397L12.264 6.21597C12.648 5.85597 13.152 5.63997 13.656 5.63997H15.768C16.296 5.63997 16.776 5.85597 17.16 6.21597L18.744 7.77597C19.128 8.13597 19.632 8.32797 20.136 8.32797H22.32V7.84797H20.136C19.728 7.84797 19.368 7.72797 19.08 7.43997L17.496 5.87997C17.04 5.42397 16.416 5.15997 15.768 5.15997H8.23199C7.58399 5.15997 6.95999 5.42397 6.50399 5.87997L4.91999 7.43997C4.63199 7.72797 4.27199 7.84797 3.86399 7.84797H1.67999V8.32797H3.86399C4.36799 8.32797 4.87199 8.13597 5.25599 7.77597L6.83999 6.21597C7.22399 5.85597 7.70399 5.63997 8.23199 5.63997H12.216C12.12 5.71197 12.024 5.78397 11.928 5.87997L9.21599 8.56797C8.92799 8.83197 8.73599 9.23997 8.73599 9.71997C8.73599 10.512 9.35999 11.232 10.296 11.232C10.68 11.232 11.064 11.088 11.376 10.776L12.624 9.52797L17.808 14.736L14.712 17.784C14.352 18.144 13.848 18.36 13.344 18.36H8.99999C8.47199 18.36 7.99199 18.144 7.63199 17.784L4.75199 14.976C4.36799 14.616 3.88799 14.4 3.35999 14.4H1.67999V14.88H3.35999C3.79199 14.88 4.10399 15.024 4.41599 15.312L7.29599 18.12C7.72799 18.552 8.35199 18.84 8.99999 18.84H13.344C13.968 18.84 14.616 18.552 15.048 18.12L18.336 14.88H22.32V14.4H18.144L12.96 9.19197L14.112 8.03997L13.776 7.70397Z" fill="black"/>
</svg>
