<svg width="24" height="24" viewBox="0 0 24 24" fill="none" xmlns="http://www.w3.org/2000/svg">
<path d="M12 21.12C16.848 21.12 20.88 17.088 20.88 12.24C20.88 7.392 16.848 3.36 12 3.36C8.592 3.36 5.616 5.352 4.08 8.256V5.64V2.88H3.6V9.024H9.024V8.544H6.744H4.488C5.928 5.76 8.76 3.84 12 3.84C16.584 3.84 20.4 7.656 20.4 12.24C20.4 16.824 16.584 20.64 12 20.64C7.416 20.64 3.6 16.824 3.6 12.24H3.12C3.12 17.088 7.152 21.12 12 21.12ZM11.76 12.24C11.76 12.312 11.784 12.36 11.832 12.408L15.288 15.864L15.624 15.528L12.24 12.144V6.72H11.76V12.24Z" fill="black"/>
</svg>
