<svg width="24" height="24" viewBox="0 0 24 24" fill="none" xmlns="http://www.w3.org/2000/svg">
<path fill-rule="evenodd" clip-rule="evenodd" d="M16.8151 14.5374L17.1737 15.9213H17.6359L16.1492 10.6122H15.288L13.7563 15.9213H14.1944L14.5771 14.5374H16.8151ZM16.7135 14.1787H14.6735L15.5516 10.9891H15.8771L16.7135 14.1787Z" fill="black"/>
<path fill-rule="evenodd" clip-rule="evenodd" d="M7.70379 14.9865L2.67004 10.5113V3.28125H14.1768V8.89307H21.33V15.9812L16.3933 20.7188L17.2291 17.5669H10.0622V11.7969H6.93178L7.70379 14.9865ZM13.7862 3.67182V8.89307H10.0622V9.61811C9.56029 9.57756 9.16127 9.44647 8.84481 9.27146C8.8704 9.24736 8.8956 9.22276 8.92041 9.19766C9.75307 8.35303 9.89172 7.19804 9.91388 6.73645H10.6936V6.34589H8.66525V5.15598H8.27468V6.34589H6.24634V6.73645H9.52242C9.4985 7.15602 9.36431 8.19323 8.64051 8.92622C8.59845 8.96873 8.55503 9.0096 8.51025 9.04883C7.8431 8.51981 7.68656 7.81495 7.6771 7.76884L7.29435 7.8463C7.3914 8.23591 7.57322 8.59931 7.82683 8.9106C7.92483 9.03268 8.04528 9.16142 8.19171 9.28623C7.67834 9.60954 7.02858 9.76497 6.25153 9.74966L6.24375 10.1402H6.3583C7.22695 10.1402 7.95376 9.93586 8.5266 9.5315C8.9063 9.76901 9.40773 9.95895 10.0622 10.0074V11.4063H6.4351L7.03072 13.865L3.06061 10.3362V3.67182H13.7862ZM10.4527 17.1763H17.7368L17.1282 19.4716L20.9368 15.8146V9.28363H10.4527V17.1763Z" fill="black"/>
</svg>
