<svg width="24" height="24" viewBox="0 0 24 24" fill="none" xmlns="http://www.w3.org/2000/svg">
<path d="M12 11.904L21.36 7.488L12 3.12L2.64001 7.488L12 11.904ZM2.64001 16.488L12 20.88L21.36 16.488L19.2 15.456L18.624 15.72L20.232 16.488L12 20.352L3.76801 16.488L5.37601 15.72L4.80001 15.456L2.64001 16.488ZM2.64001 12L12 16.392L21.36 12L19.2 10.968L18.624 11.232L20.232 12L12 15.864L3.76801 12L5.37601 11.232L4.80001 10.968L2.64001 12ZM3.76801 7.488L12 3.648L20.232 7.488L12 11.376L3.76801 7.488Z" fill="black"/>
</svg>
