<svg width="24" height="24" viewBox="0 0 24 24" fill="none" xmlns="http://www.w3.org/2000/svg">
<path d="M5.75984 21.84H17.7598C18.8638 21.84 19.6798 21.024 19.6798 19.92V8.39997H20.1598V5.03997H19.6798V4.07997C19.6798 2.97597 18.8638 2.15997 17.7598 2.15997H5.75984C4.65584 2.15997 3.83984 2.97597 3.83984 4.07997V19.92C3.83984 21.024 4.65584 21.84 5.75984 21.84ZM4.31984 19.92V4.07997C4.31984 3.16797 4.84784 2.63997 5.75984 2.63997H17.7598C18.6718 2.63997 19.1998 3.16797 19.1998 4.07997V19.92C19.1998 20.832 18.6718 21.36 17.7598 21.36H5.75984C4.84784 21.36 4.31984 20.832 4.31984 19.92ZM6.23984 19.44H17.2798V4.55997H6.23984V19.44ZM6.71984 18.96V5.03997H16.7998V18.96H6.71984Z" fill="black"/>
</svg>
