<svg width="24" height="24" viewBox="0 0 24 24" fill="none" xmlns="http://www.w3.org/2000/svg">
<path d="M9.50413 18.144V21.36H14.4961V18.144C14.4961 16.8 14.9281 16.056 16.1521 14.64L16.7521 13.944C18.0001 12.504 18.6721 11.016 18.6721 9.28802C18.6721 5.30401 15.5281 2.64001 12.0001 2.64001C8.47213 2.64001 5.32812 5.30401 5.32812 9.28802C5.32812 11.016 6.00013 12.504 7.24813 13.944L7.84813 14.64C9.07213 16.056 9.50413 16.8 9.50413 18.144ZM5.80813 9.28802C5.80813 5.59201 8.71213 3.12001 12.0001 3.12001C15.2881 3.12001 18.1921 5.59201 18.1921 9.28802C18.1921 10.896 17.5681 12.264 16.3921 13.632L15.7921 14.328C14.5441 15.768 14.0161 16.68 14.0161 18.408H12.2401V12.528H11.7601V18.408H9.98413C9.98413 16.68 9.45613 15.768 8.20813 14.328L7.60813 13.632C6.43213 12.264 5.80813 10.896 5.80813 9.28802ZM9.98413 20.88V18.888H14.0161V20.88H9.98413Z" fill="black"/>
</svg>
