<svg width="24" height="24" viewBox="0 0 24 24" fill="none" xmlns="http://www.w3.org/2000/svg">
<path d="M3.96014 21.36H20.0401C20.7841 21.36 21.3601 20.76 21.3601 20.04V3.96001C21.3601 3.24001 20.7841 2.64001 20.0401 2.64001H3.96014C3.24014 2.64001 2.64014 3.24001 2.64014 3.96001V20.04C2.64014 20.76 3.24014 21.36 3.96014 21.36ZM5.30414 6.91201C5.30414 6.02401 6.02414 5.30401 6.91214 5.30401C7.80014 5.30401 8.52014 6.02401 8.52014 6.91201C8.52014 7.80001 7.80014 8.52002 6.91214 8.52002C6.02414 8.52002 5.30414 7.80001 5.30414 6.91201ZM5.52014 18.696V9.74402H8.32814V18.696H5.52014ZM10.0561 18.696V9.74402H12.7201V10.944H12.7441C13.1761 10.152 14.1361 9.52802 15.4081 9.52802C17.8081 9.52802 18.6961 11.112 18.6961 13.8V18.696H15.9361V14.328C15.9361 13.128 15.8641 11.952 14.4721 11.952C13.2001 11.952 12.8401 12.888 12.8401 14.256V18.696H10.0561Z" fill="black"/>
</svg>
