<svg width="24" height="24" viewBox="0 0 24 24" fill="none" xmlns="http://www.w3.org/2000/svg">
<path d="M15.804 22.32C16.668 22.32 17.484 21.792 17.988 21.12C18.588 20.352 20.58 19.992 20.58 19.008C20.58 18.528 20.196 18.192 19.932 17.808C19.572 17.376 19.74 16.608 19.212 16.152C19.116 16.056 18.972 15.984 18.876 15.912C18.972 15.528 19.044 15.096 19.044 14.688C19.044 11.112 15.492 9.52799 15.492 6.93599V6.16799C15.492 3.98399 15.132 1.67999 12.42 1.67999C10.068 1.67999 9.20404 2.99999 9.20404 5.20799C9.20404 5.83199 9.30004 6.43199 9.30004 7.03199C9.30004 10.032 5.36404 11.952 5.77204 15.624C5.53204 15.888 5.34004 16.2 5.10004 16.464C4.62004 16.944 3.51604 16.728 3.51604 17.952C3.51604 18.288 3.66004 18.624 3.66004 18.984C3.66004 19.344 3.42004 19.704 3.42004 20.112C3.42004 20.616 3.73204 20.952 4.21204 21.072C5.05204 21.312 5.94004 21.192 6.75604 21.6C7.33204 21.888 7.90804 22.08 8.53204 22.08C9.13204 22.08 10.02 21.792 10.188 21.12C10.836 21.048 11.436 20.832 12.084 20.832C12.756 20.832 13.428 21.048 14.124 21C14.364 21.816 14.94 22.32 15.804 22.32ZM3.92404 20.088C3.92404 19.704 4.11604 19.392 4.11604 18.984C4.11604 18.624 3.99604 18.288 3.99604 17.928C3.99604 17.808 4.02004 17.712 4.06804 17.616C4.33204 17.136 5.05204 17.184 5.43604 16.8C5.60404 16.632 5.74804 16.392 5.91604 16.2C6.08404 16.008 6.15604 15.888 6.44404 15.84C6.92404 15.84 7.16404 16.032 7.45204 16.44C7.76404 16.872 7.98004 17.376 8.22004 17.832C8.41204 18.192 8.67604 18.528 8.91604 18.84C9.22804 19.296 9.85204 19.92 9.85204 20.496C9.85204 21.192 9.25204 21.6 8.58004 21.6C8.02804 21.6 7.50004 21.432 6.97204 21.192C6.42004 20.904 5.77204 20.808 5.14804 20.736C4.83604 20.688 4.16404 20.664 3.97204 20.376C3.92404 20.28 3.92404 20.184 3.92404 20.088ZM7.09204 14.232C7.09204 13.176 7.71604 11.976 8.26804 11.088C7.98004 12.12 7.33204 12.624 7.33204 13.848C7.33204 14.352 7.50004 14.832 7.78804 15.216C7.86004 12.72 9.70804 10.776 9.90004 8.30399C10.308 8.68799 10.932 9.16799 11.532 9.16799C12.084 9.16799 13.524 8.37599 13.932 7.96799C14.268 9.26399 14.772 10.584 15.396 11.76C15.828 12.576 16.164 13.44 16.332 14.352C16.5 14.328 16.62 14.376 16.764 14.4C16.884 14.112 16.932 13.8 16.932 13.512C16.932 12.12 15.732 10.824 15.732 10.776C15.732 10.776 15.708 10.752 15.732 10.728C16.548 11.448 17.22 12.72 17.22 13.824C17.22 14.064 17.22 14.28 17.148 14.52C17.58 14.616 18.444 15.216 18.444 15.72L18.42 15.84L18.252 15.816L18.276 15.72C18.276 15.12 16.884 14.664 16.38 14.664C16.044 14.664 15.852 14.976 15.804 15.264L15.564 15.384H15.54C14.676 15.864 14.7 17.184 14.652 18.072C14.628 18.384 14.46 19.008 14.34 19.344C13.596 19.8 12.732 20.136 11.844 20.136C11.22 20.136 10.596 19.968 10.068 19.632C9.87604 19.32 9.70804 19.008 9.44404 18.744C9.75604 18.672 10.02 18.552 10.02 18.192C10.02 16.584 7.09204 16.272 7.09204 14.232ZM9.66004 5.75999C9.66004 5.35199 9.87604 4.75199 10.332 4.75199C10.884 4.75199 11.124 5.49599 11.124 5.92799V6.02399C10.956 6.04799 10.812 6.11999 10.692 6.19199C10.692 5.99999 10.62 5.49599 10.308 5.49599C10.116 5.49599 10.02 5.83199 10.02 5.99999C10.02 6.19199 10.068 6.43199 10.212 6.59999C10.164 6.62399 10.02 6.74399 9.94804 6.79199C9.70804 6.50399 9.66004 6.11999 9.66004 5.75999ZM9.68404 7.51199C9.68404 7.24799 10.38 6.79199 10.428 6.81599C10.692 6.52799 11.028 6.26399 11.508 6.26399C11.892 6.26399 13.836 7.00799 13.836 7.39199C13.836 7.89599 13.332 8.13599 12.924 8.27999C12.372 8.49599 12.18 8.87999 11.508 8.87999C11.052 8.87999 9.68404 7.96799 9.68404 7.51199ZM9.85204 7.58399C10.356 7.84799 10.86 8.37599 11.388 8.37599C12.228 8.37599 13.188 7.51199 13.5 7.51199L13.476 7.34399C13.044 7.34399 12.252 8.18399 11.364 8.18399C10.932 8.18399 10.404 7.63199 9.85204 7.36799V7.58399ZM11.868 5.99999C11.868 5.39999 12.108 4.53599 12.852 4.53599C13.5 4.53599 13.908 5.23199 13.908 5.80799C13.908 6.14399 13.812 6.47999 13.62 6.74399C13.452 6.71999 13.284 6.59999 13.116 6.55199C13.212 6.38399 13.236 6.16799 13.236 5.97599C13.236 5.71199 13.116 5.32799 12.78 5.32799C12.372 5.32799 12.324 5.87999 12.324 6.19199C12.156 6.09599 12.012 6.02399 11.868 5.99999ZM14.556 20.616C14.556 19.776 15.084 18.96 15.132 18.072C15.132 17.424 15.18 16.488 15.564 15.936C15.66 15.888 15.732 15.84 15.78 15.792C15.924 16.296 16.092 16.872 16.74 16.872C17.148 16.872 17.7 16.608 17.964 16.32H18.18C18.348 16.32 18.54 16.32 18.708 16.392C18.78 16.392 18.852 16.44 18.9 16.488C19.284 16.752 19.188 17.712 19.572 18.144C19.788 18.384 20.1 18.696 20.1 19.032C20.1 19.416 18.132 20.208 17.604 20.856C17.172 21.384 16.548 21.84 15.828 21.84C15.132 21.84 14.556 21.336 14.556 20.616Z" fill="black"/>
</svg>
