<svg width="24" height="24" viewBox="0 0 24 24" fill="none" xmlns="http://www.w3.org/2000/svg">
<path d="M7.08001 13.704V21.36L12 18.624L16.92 21.36V13.704C17.976 12.528 18.624 10.968 18.624 9.26402C18.624 5.61601 15.648 2.64001 12 2.64001C8.35201 2.64001 5.37601 5.61601 5.37601 9.26402C5.37601 10.968 6.02401 12.528 7.08001 13.704ZM5.85601 9.26402C5.85601 5.88001 8.61601 3.12001 12 3.12001C15.384 3.12001 18.144 5.88001 18.144 9.26402C18.144 12.648 15.384 15.408 12 15.408C8.61601 15.408 5.85601 12.648 5.85601 9.26402ZM7.56001 20.544V14.16C8.76001 15.216 10.296 15.888 12 15.888C13.704 15.888 15.24 15.216 16.44 14.16V20.544L12 18.072L7.56001 20.544Z" fill="black"/>
</svg>
