<svg width="24" height="24" viewBox="0 0 24 24" fill="none" xmlns="http://www.w3.org/2000/svg">
<path d="M8.28 20.88H8.76V17.52H11.76V20.88H12.24V17.52H15.24V20.88H15.72V17.52H17.52V15.72H20.88V15.24H17.52V12.24H20.88V11.76H17.52V8.76H20.88V8.28H17.52V6.48H15.72V3.12H15.24V6.48H12.24V3.12H11.76V6.48H8.76V3.12H8.28V6.48H6.48V8.28H3.12V8.76H6.48V11.76H3.12V12.24H6.48V15.24H3.12V15.72H6.48V17.52H8.28V20.88ZM6.96 17.04V6.96H17.04V17.04H6.96ZM9.48 14.52H14.52V9.48H9.48V14.52ZM9.96 14.04V9.96H14.04V14.04H9.96Z" fill="black"/>
</svg>
