<svg width="24" height="24" viewBox="0 0 24 24" fill="none" xmlns="http://www.w3.org/2000/svg">
<path d="M7.44001 22.32H16.56C17.544 22.32 18.36 21.504 18.36 20.52V3.47999C18.36 2.49599 17.544 1.67999 16.56 1.67999H7.44001C6.45601 1.67999 5.64001 2.49599 5.64001 3.47999V20.52C5.64001 21.504 6.45601 22.32 7.44001 22.32ZM6.12001 20.52V3.47999C6.12001 2.68799 6.64801 2.15999 7.44001 2.15999H16.56C17.352 2.15999 17.88 2.68799 17.88 3.47999V20.52C17.88 21.312 17.352 21.84 16.56 21.84H7.44001C6.64801 21.84 6.12001 21.312 6.12001 20.52ZM10.728 19.488C10.728 20.16 11.28 20.76 12 20.76C12.696 20.76 13.248 20.16 13.248 19.488C13.248 18.792 12.696 18.24 12 18.24C11.28 18.24 10.728 18.792 10.728 19.488ZM11.208 19.488C11.208 19.056 11.544 18.72 12 18.72C12.432 18.72 12.768 19.056 12.768 19.488C12.768 19.92 12.432 20.28 12 20.28C11.544 20.28 11.208 19.92 11.208 19.488Z" fill="black"/>
</svg>
