<svg width="24" height="24" viewBox="0 0 24 24" fill="none" xmlns="http://www.w3.org/2000/svg">
<path d="M2.64001 8.64H21.36V2.88H2.64001V8.64ZM3.12001 8.16V3.36H11.616C10.848 3.864 10.344 4.752 10.32 5.736C10.344 6.744 10.848 7.632 11.616 8.16H3.12001ZM7.65602 16.776L12 21.12L16.344 16.776L16.008 16.44L14.208 18.24L12.24 20.208V10.8H11.76V20.208L9.79202 18.24L7.99202 16.44L7.65602 16.776ZM10.8 5.736C10.824 4.44 11.88 3.36 13.176 3.36H20.88V8.16H13.176C11.88 8.16 10.824 7.08 10.8 5.736ZM11.808 5.76C11.808 6.552 12.456 7.2 13.248 7.2C14.04 7.2 14.688 6.552 14.688 5.76C14.688 4.968 14.04 4.32 13.248 4.32C12.456 4.32 11.808 4.968 11.808 5.76ZM12.288 5.76C12.288 5.232 12.72 4.8 13.248 4.8C13.776 4.8 14.208 5.232 14.208 5.76C14.208 6.288 13.776 6.72 13.248 6.72C12.72 6.72 12.288 6.288 12.288 5.76Z" fill="black"/>
</svg>
