<svg width="24" height="24" viewBox="0 0 24 24" fill="none" xmlns="http://www.w3.org/2000/svg">
<path d="M2.15997 20.928H18.24C20.184 20.928 21.84 19.296 21.84 17.304C21.84 16.176 21.336 15.288 20.496 14.448L15.792 9.71999L16.104 9.40799L14.28 7.60799L13.968 7.91999L11.976 5.90399L12.288 5.59199L10.512 3.81599L10.2 4.12799L9.11997 3.07199L4.10397 8.06399L9.76797 13.704H2.15997V20.928ZM2.63997 20.448V14.184H18.24C19.968 14.184 21.36 15.552 21.36 17.304C21.36 19.08 19.968 20.448 18.24 20.448H2.63997ZM4.77597 8.06399L9.11997 3.74399L19.152 13.824C18.864 13.752 18.552 13.704 18.24 13.704H10.44L4.77597 8.06399ZM16.296 17.304C16.296 18.264 17.088 19.128 18.12 19.128C19.08 19.128 19.872 18.264 19.872 17.304C19.872 16.32 19.08 15.528 18.12 15.528C17.088 15.528 16.296 16.32 16.296 17.304ZM16.776 17.304C16.776 16.584 17.352 16.008 18.12 16.008C18.816 16.008 19.392 16.584 19.392 17.304C19.392 18.024 18.816 18.648 18.12 18.648C17.352 18.648 16.776 18.024 16.776 17.304Z" fill="black"/>
</svg>
