<svg width="24" height="24" viewBox="0 0 24 24" fill="none" xmlns="http://www.w3.org/2000/svg">
<path d="M13.6322 21.84H20.7602V2.16H13.8002V9.768L8.32823 4.296L3.24023 9.408L13.6322 19.8V21.84ZM3.91223 9.408L8.32823 4.968L19.3682 16.008C19.9922 16.632 20.2802 17.376 20.2802 18.24C20.2802 19.944 18.8402 21.36 17.1602 21.36C16.3442 21.36 15.5522 21.048 14.9282 20.424L3.91223 9.408ZM15.3602 18.216C15.3602 19.2 16.1522 20.04 17.1842 20.04C18.1682 20.04 18.9362 19.2 18.9362 18.216C18.9362 17.232 18.1442 16.44 17.1842 16.44C16.1522 16.44 15.3602 17.232 15.3602 18.216ZM15.5042 5.64C15.5042 4.656 16.2962 3.864 17.3282 3.864C18.2882 3.864 19.0802 4.656 19.0802 5.64C19.0802 6.6 18.2882 7.464 17.3282 7.464C16.2962 7.464 15.5042 6.6 15.5042 5.64ZM15.8402 18.216C15.8402 17.496 16.4162 16.92 17.1842 16.92C17.8802 16.92 18.4562 17.496 18.4562 18.216C18.4562 18.936 17.8802 19.56 17.1842 19.56C16.4162 19.56 15.8402 18.936 15.8402 18.216ZM15.9842 5.64C15.9842 6.36 16.5602 6.984 17.3282 6.984C18.0242 6.984 18.6002 6.36 18.6002 5.64C18.6002 4.92 18.0242 4.344 17.3282 4.344C16.5602 4.344 15.9842 4.92 15.9842 5.64Z" fill="black"/>
</svg>
