<svg width="24" height="24" viewBox="0 0 24 24" fill="none" xmlns="http://www.w3.org/2000/svg">
<path d="M5.58105 20.8118C4.99619 20.8111 4.43548 20.578 4.02192 20.1636C3.60836 19.7492 3.37571 19.1874 3.375 18.6014V3.1875H18.493V6.68977H7.7871V18.6014C7.78639 19.1874 7.55374 19.7492 7.14018 20.1636C6.72662 20.578 6.16591 20.8111 5.58105 20.8118ZM3.90883 3.7224V18.6014C3.90936 19.0456 4.08571 19.4715 4.39919 19.7856C4.71268 20.0997 5.13771 20.2764 5.58105 20.2769C6.02439 20.2764 6.44942 20.0997 6.76291 19.7856C7.07639 19.4715 7.25274 19.0456 7.25327 18.6014V6.15487H17.9592V3.7224H3.90883Z" fill="black"/>
<path d="M18.6932 20.8118L5.58105 20.8118V20.2769L18.6932 20.2769C19.0649 20.2769 19.4213 20.129 19.6841 19.8657C19.9469 19.6023 20.0945 19.2452 20.0945 18.8728V6.68976H18.2261V6.15486H20.6283V18.8728C20.6283 19.3871 20.4245 19.8803 20.0616 20.2439C19.6986 20.6075 19.2064 20.8118 18.6932 20.8118Z" fill="black"/>
<path d="M17.6836 9.67451H10.0852V10.2094H17.6836V9.67451Z" fill="black"/>
<path d="M17.6836 13.3647H10.0852V13.8996H17.6836V13.3647Z" fill="black"/>
</svg>
