<svg width="24" height="24" viewBox="0 0 24 24" fill="none" xmlns="http://www.w3.org/2000/svg">
<path d="M11.0642 16.704C13.2242 16.704 14.4722 14.832 14.4482 11.904C14.4242 9.048 13.2002 7.344 11.1122 7.344C9.36023 7.344 8.11223 8.664 8.11223 10.44C8.11223 12.216 9.36023 13.536 11.1122 13.536C12.5282 13.536 13.5842 12.672 13.9202 11.4H13.9442C14.0642 13.92 13.5362 16.224 11.0642 16.224C9.67223 16.224 8.83223 15.456 8.61623 14.04H8.13623C8.35223 15.648 9.48023 16.704 11.0642 16.704ZM4.03223 20.88H11.0882C16.0562 20.88 19.9682 16.848 19.9682 12C19.9682 7.032 16.0562 3.12 11.0882 3.12H4.03223V3.6H11.0882C15.7922 3.6 19.4882 7.296 19.4882 12C19.4882 16.584 15.7922 20.4 11.0882 20.4H4.03223V20.88ZM8.59223 10.464V10.416C8.59223 8.856 9.55223 7.824 11.0882 7.824H11.1362C12.7442 7.824 13.6562 9 13.6562 10.416V10.464C13.6562 12 12.7202 13.056 11.1362 13.056H11.0882C9.55223 13.056 8.59223 12.024 8.59223 10.464Z" fill="black"/>
</svg>
