<svg width="24" height="24" viewBox="0 0 24 24" fill="none" xmlns="http://www.w3.org/2000/svg">
<path d="M12.8882 16.704C15.0482 16.704 16.2962 14.832 16.2722 11.904C16.2482 9.048 15.0242 7.344 12.9362 7.344C11.1842 7.344 9.93623 8.664 9.93623 10.44C9.93623 12.216 11.1842 13.536 12.9362 13.536C14.3522 13.536 15.4082 12.672 15.7442 11.4H15.7682C15.8882 13.92 15.3602 16.224 12.8882 16.224C11.4962 16.224 10.6562 15.456 10.4402 14.04H9.96023C10.1762 15.648 11.3042 16.704 12.8882 16.704ZM4.03223 12C4.03223 16.968 7.94423 20.88 12.9122 20.88H19.9682V20.4H12.9122C8.20823 20.4 4.51223 16.704 4.51223 12C4.51223 7.416 8.20823 3.6 12.9122 3.6H19.9682V3.12H12.9122C7.94423 3.12 4.03223 7.152 4.03223 12ZM10.4162 10.464V10.416C10.4162 8.856 11.3762 7.824 12.9122 7.824H12.9602C14.5682 7.824 15.4802 9 15.4802 10.416V10.464C15.4802 12 14.5442 13.056 12.9602 13.056H12.9122C11.3762 13.056 10.4162 12.024 10.4162 10.464Z" fill="black"/>
</svg>
