<svg width="24" height="24" viewBox="0 0 24 24" fill="none" xmlns="http://www.w3.org/2000/svg">
<path d="M11.9758 16.704C14.1358 16.704 15.3838 14.832 15.3598 11.904C15.3358 9.048 14.1118 7.344 12.0238 7.344C10.2718 7.344 9.02377 8.664 9.02377 10.44C9.02377 12.216 10.2718 13.536 12.0238 13.536C13.4398 13.536 14.4958 12.672 14.8318 11.4H14.8558C14.9758 13.92 14.4478 16.224 11.9758 16.224C10.5838 16.224 9.74377 15.456 9.52777 14.04H9.04777C9.26377 15.648 10.3918 16.704 11.9758 16.704ZM5.75977 20.88H18.2398V20.4H5.75977V20.88ZM5.75977 3.6H18.2398V3.12H5.75977V3.6ZM9.50377 10.464V10.416C9.50377 8.856 10.4638 7.824 11.9998 7.824H12.0478C13.6558 7.824 14.5678 9 14.5678 10.416V10.464C14.5678 12 13.6318 13.056 12.0478 13.056H11.9998C10.4638 13.056 9.50377 12.024 9.50377 10.464Z" fill="black"/>
</svg>
