<svg width="24" height="24" viewBox="0 0 24 24" fill="none" xmlns="http://www.w3.org/2000/svg">
<path d="M17.964 20.916L20.916 17.844L16.092 13.5L11.868 17.652C10.812 16.908 9.804 16.068 8.868 15.132C7.932 14.196 7.092 13.188 6.348 12.132L10.5 7.90801L6.156 3.08401L3.084 6.03601C3.828 9.49201 5.892 12.804 8.532 15.468C11.22 18.132 14.508 20.196 17.964 20.916ZM3.612 6.18001L6.108 3.75601L9.828 7.90801L6.084 11.724C4.932 9.99601 4.068 8.12401 3.612 6.18001ZM12.276 17.916L16.092 14.172L20.244 17.892L17.82 20.388C15.852 19.932 14.004 19.092 12.276 17.916Z" fill="black"/>
</svg>
