<svg width="24" height="24" viewBox="0 0 24 24" fill="none" xmlns="http://www.w3.org/2000/svg">
<path d="M3.12 11.856V12.096H3.6V11.856C3.6 7.24802 7.32 3.60001 11.976 3.60001C15.192 3.60001 18.048 5.52001 19.512 8.30402H16.92H14.256V8.78402H20.4V2.64001H19.92V5.30401V8.04002C18.384 5.13601 15.384 3.12001 11.976 3.12001C7.056 3.12001 3.12 6.98402 3.12 11.856ZM3.6 21.36H4.08V18.696V15.96C5.616 18.864 8.616 20.88 12.024 20.88C16.944 20.88 20.88 17.016 20.88 12.144V11.904H20.4V12.144C20.4 16.752 16.68 20.4 12.024 20.4C8.808 20.4 5.952 18.48 4.488 15.696H7.08H9.744V15.216H3.6V21.36Z" fill="black"/>
</svg>
