<svg width="24" height="24" viewBox="0 0 24 24" fill="none" xmlns="http://www.w3.org/2000/svg">
<path d="M15.4439 15.804L21.3479 21.684L21.6839 21.348L15.8039 15.444C17.0999 14.052 17.9159 12.18 17.9159 10.116C17.9159 5.81998 14.4119 2.31598 10.1159 2.31598C5.81992 2.31598 2.31592 5.81998 2.31592 10.116C2.31592 14.412 5.81992 17.916 10.1159 17.916C12.1799 17.916 14.0519 17.1 15.4439 15.804ZM2.79592 10.116C2.79592 6.08398 6.08392 2.79598 10.1159 2.79598C14.1479 2.79598 17.4359 6.08398 17.4359 10.116C17.4359 14.148 14.1479 17.436 10.1159 17.436C6.08392 17.436 2.79592 14.148 2.79592 10.116ZM7.28392 11.172C7.30792 12.804 8.33992 13.812 9.87592 13.932V14.844H10.3559V13.932C11.8439 13.86 12.8759 13.02 12.8759 11.748C12.8759 10.596 12.0359 9.92398 10.7879 9.77998L10.3559 9.73198V6.63598C11.6039 6.70798 12.2759 7.45198 12.2759 8.69998H12.7559C12.7559 7.23598 11.8199 6.22798 10.3559 6.15598V5.24398H9.87592V6.15598C8.60392 6.27598 7.59592 7.09198 7.59592 8.26798C7.59592 9.32398 8.31592 9.97198 9.51592 10.116L9.87592 10.164V13.452C8.57992 13.332 7.78792 12.54 7.76392 11.172H7.28392ZM8.07592 8.26798C8.07592 7.33198 8.79592 6.73198 9.87592 6.63598V9.68398L9.56392 9.63598C8.55592 9.51598 8.07592 9.08398 8.07592 8.26798ZM10.3559 13.452V10.212L10.7399 10.26C11.8199 10.38 12.3959 10.86 12.3959 11.748C12.3959 12.756 11.6279 13.38 10.3559 13.452Z" fill="black"/>
</svg>
