<svg width="24" height="24" viewBox="0 0 24 24" fill="none" xmlns="http://www.w3.org/2000/svg">
<path d="M15.444 15.804L21.348 21.684L21.684 21.348L15.804 15.444C17.1 14.052 17.916 12.18 17.916 10.116C17.916 5.82001 14.412 2.31601 10.116 2.31601C5.82004 2.31601 2.31604 5.82001 2.31604 10.116C2.31604 14.412 5.82004 17.916 10.116 17.916C12.18 17.916 14.052 17.1 15.444 15.804ZM2.79604 10.116C2.79604 6.08401 6.08404 2.79601 10.116 2.79601C14.148 2.79601 17.436 6.08401 17.436 10.116C17.436 14.148 14.148 17.436 10.116 17.436C6.08404 17.436 2.79604 14.148 2.79604 10.116Z" fill="black"/>
</svg>
