<svg width="24" height="24" viewBox="0 0 24 24" fill="none" xmlns="http://www.w3.org/2000/svg">
<path d="M12.0001 21.84C18.2401 19.368 21.3601 15.432 21.3601 10.128V5.08797C18.6961 3.16797 15.4561 2.15997 12.0001 2.15997C8.54414 2.15997 5.30414 3.16797 2.64014 5.08797V10.128C2.64014 15.432 5.76014 19.368 12.0001 21.84ZM3.12014 10.128V5.32797C5.68814 3.55197 8.71214 2.63997 12.0001 2.63997C15.2881 2.63997 18.3121 3.55197 20.8801 5.32797V10.128C20.8801 15.216 18.0001 18.888 12.0001 21.312C6.00014 18.888 3.12014 15.216 3.12014 10.128ZM8.16014 11.088L11.2801 14.208L16.7281 8.75997L16.3921 8.42397L11.2801 13.536L8.49614 10.752L8.16014 11.088Z" fill="black"/>
</svg>
