<svg width="24" height="24" viewBox="0 0 24 24" fill="none" xmlns="http://www.w3.org/2000/svg">
<path d="M12.0001 21.84C18.2401 19.368 21.3601 15.432 21.3601 10.128V5.088C18.6961 3.168 15.4561 2.16 12.0001 2.16C8.54414 2.16 5.30414 3.168 2.64014 5.088V10.128C2.64014 15.432 5.76014 19.368 12.0001 21.84ZM3.12014 10.128V5.328C5.68814 3.552 8.71214 2.64 12.0001 2.64C15.2881 2.64 18.3121 3.552 20.8801 5.328V10.128C20.8801 15.216 18.0001 18.888 12.0001 21.312C6.00014 18.888 3.12014 15.216 3.12014 10.128ZM7.32014 11.064C7.32014 11.184 7.34414 11.28 7.41614 11.376L9.52814 14.808C10.0561 15.696 11.0161 16.272 12.1201 16.272C13.7521 16.272 15.0481 15.048 15.1441 13.416L15.2641 7.824C15.2641 7.536 15.0481 7.296 14.7601 7.296C14.4721 7.296 14.2561 7.536 14.2561 7.8L14.1841 10.8H13.6561L13.6801 6.816C13.6801 6.528 13.4881 6.288 13.1761 6.288C12.8881 6.288 12.6721 6.528 12.6721 6.792L12.6481 10.56H12.1201L12.0961 6.288C12.0961 6.024 11.9041 5.784 11.5921 5.784C11.3041 5.784 11.0881 6.024 11.0881 6.312L11.1121 10.8H10.5601L10.5121 7.296C10.5121 7.032 10.3201 6.792 10.0081 6.792C9.69614 6.792 9.50414 7.032 9.50414 7.32L9.57614 12.528L8.47214 10.728C8.37614 10.536 8.16014 10.416 7.94414 10.416C7.58414 10.416 7.32014 10.68 7.32014 11.064Z" fill="black"/>
</svg>
