<svg width="24" height="24" viewBox="0 0 24 24" fill="none" xmlns="http://www.w3.org/2000/svg">
<path d="M18.648 16.272V15.792H8.44803L7.99203 13.416H19.944L21.84 4.77599L6.26403 4.75199L5.95203 3.23999H2.16003V3.71999H5.56803L8.06403 16.272H18.648ZM6.36003 5.23199L21.24 5.25599L19.56 12.936H7.89603L6.36003 5.23199ZM7.29603 19.32C7.29603 20.112 7.94403 20.76 8.73603 20.76C9.52803 20.76 10.176 20.112 10.176 19.32C10.176 18.528 9.52803 17.88 8.73603 17.88C7.94403 17.88 7.29603 18.528 7.29603 19.32ZM7.77603 19.32C7.77603 18.792 8.20803 18.36 8.73603 18.36C9.26403 18.36 9.69603 18.792 9.69603 19.32C9.69603 19.848 9.26403 20.28 8.73603 20.28C8.20803 20.28 7.77603 19.848 7.77603 19.32ZM16.272 19.32C16.272 20.112 16.92 20.76 17.712 20.76C18.504 20.76 19.152 20.112 19.152 19.32C19.152 18.528 18.504 17.88 17.712 17.88C16.92 17.88 16.272 18.528 16.272 19.32ZM16.752 19.32C16.752 18.792 17.184 18.36 17.712 18.36C18.24 18.36 18.672 18.792 18.672 19.32C18.672 19.848 18.24 20.28 17.712 20.28C17.184 20.28 16.752 19.848 16.752 19.32Z" fill="black"/>
</svg>
