<svg width="24" height="24" viewBox="0 0 24 24" fill="none" xmlns="http://www.w3.org/2000/svg">
<path d="M18.6482 16.272V15.792H8.44816L7.99216 13.416H19.9442L21.8402 4.77599L6.26416 4.75199L5.95216 3.23999H2.16016V3.71999H5.56816L8.06416 16.272H18.6482ZM6.36016 5.23199L21.2402 5.25599L19.5602 12.936H7.89616L6.36016 5.23199ZM7.29616 19.32C7.29616 20.112 7.94416 20.76 8.73616 20.76C9.52816 20.76 10.1762 20.112 10.1762 19.32C10.1762 18.528 9.52816 17.88 8.73616 17.88C7.94416 17.88 7.29616 18.528 7.29616 19.32ZM7.77616 19.32C7.77616 18.792 8.20816 18.36 8.73616 18.36C9.26416 18.36 9.69616 18.792 9.69616 19.32C9.69616 19.848 9.26416 20.28 8.73616 20.28C8.20816 20.28 7.77616 19.848 7.77616 19.32ZM16.2722 19.32C16.2722 20.112 16.9202 20.76 17.7122 20.76C18.5042 20.76 19.1522 20.112 19.1522 19.32C19.1522 18.528 18.5042 17.88 17.7122 17.88C16.9202 17.88 16.2722 18.528 16.2722 19.32ZM16.7522 19.32C16.7522 18.792 17.1842 18.36 17.7122 18.36C18.2402 18.36 18.6722 18.792 18.6722 19.32C18.6722 19.848 18.2402 20.28 17.7122 20.28C17.1842 20.28 16.7522 19.848 16.7522 19.32Z" fill="black"/>
</svg>
