<svg width="24" height="24" viewBox="0 0 24 24" fill="none" xmlns="http://www.w3.org/2000/svg">
<path d="M4.08008 20.652H19.9201V9.61202H16.8001V8.00402C16.8001 6.99602 16.4641 6.06002 15.8881 5.29202C15.0001 4.11602 13.5601 3.34802 12.0001 3.34802C10.4401 3.34802 9.00008 4.11602 8.11208 5.29202C7.53608 6.06002 7.20008 6.99602 7.20008 8.00402V9.61202H4.08008V20.652ZM4.56008 20.172V10.092H7.20008V12.996H7.68008V10.092H16.3201V12.996H16.8001V10.092H19.4401V20.172H4.56008ZM7.68008 9.61202V8.00402C7.68008 5.62802 9.60008 3.82802 11.9761 3.82802H12.0241C14.4001 3.82802 16.3201 5.62802 16.3201 8.00402V9.61202H7.68008Z" fill="black"/>
</svg>
