<svg width="24" height="24" viewBox="0 0 24 24" fill="none" xmlns="http://www.w3.org/2000/svg">
<path d="M11.9758 16.704C13.7278 16.704 14.9758 15.384 14.9758 13.608C14.9758 11.832 13.7278 10.512 11.9758 10.512C10.5598 10.512 9.50377 11.376 9.16777 12.648H9.14377C9.02377 10.128 9.55177 7.824 12.0238 7.824C13.4158 7.824 14.2558 8.592 14.4718 10.008H14.9518C14.7358 8.4 13.6078 7.344 12.0238 7.344C9.86377 7.344 8.61577 9.216 8.63977 12.144C8.66377 15 9.88777 16.704 11.9758 16.704ZM5.75977 20.88H18.2398V20.4H5.75977V20.88ZM5.75977 3.6H18.2398V3.12H5.75977V3.6ZM9.43177 13.632V13.584C9.43177 12.048 10.3678 10.992 11.9518 10.992H11.9998C13.5358 10.992 14.4958 12.024 14.4958 13.584V13.632C14.4958 15.192 13.5358 16.224 11.9998 16.224H11.9518C10.3438 16.224 9.43177 15.048 9.43177 13.632Z" fill="black"/>
</svg>
