<svg width="24" height="24" viewBox="0 0 24 24" fill="none" xmlns="http://www.w3.org/2000/svg">
<path d="M12.8882 16.704C14.6402 16.704 15.8882 15.384 15.8882 13.608C15.8882 11.832 14.6402 10.512 12.8882 10.512C11.4722 10.512 10.4162 11.376 10.0802 12.648H10.0562C9.93623 10.128 10.4642 7.824 12.9362 7.824C14.3282 7.824 15.1682 8.592 15.3842 10.008H15.8642C15.6482 8.4 14.5202 7.344 12.9362 7.344C10.7762 7.344 9.52823 9.216 9.55223 12.144C9.57623 15 10.8002 16.704 12.8882 16.704ZM4.03223 12C4.03223 16.968 7.94423 20.88 12.9122 20.88H19.9682V20.4H12.9122C8.20823 20.4 4.51223 16.704 4.51223 12C4.51223 7.416 8.20823 3.6 12.9122 3.6H19.9682V3.12H12.9122C7.94423 3.12 4.03223 7.152 4.03223 12ZM10.3442 13.632V13.584C10.3442 12.048 11.2802 10.992 12.8642 10.992H12.9122C14.4482 10.992 15.4082 12.024 15.4082 13.584V13.632C15.4082 15.192 14.4482 16.224 12.9122 16.224H12.8642C11.2562 16.224 10.3442 15.048 10.3442 13.632Z" fill="black"/>
</svg>
