<svg width="24" height="24" viewBox="0 0 24 24" fill="none" xmlns="http://www.w3.org/2000/svg">
<path d="M11.0642 16.704C12.8162 16.704 14.0642 15.384 14.0642 13.608C14.0642 11.832 12.8162 10.512 11.0642 10.512C9.64823 10.512 8.59223 11.376 8.25623 12.648H8.23223C8.11223 10.128 8.64023 7.824 11.1122 7.824C12.5042 7.824 13.3442 8.592 13.5602 10.008H14.0402C13.8242 8.4 12.6962 7.344 11.1122 7.344C8.95223 7.344 7.70423 9.216 7.72823 12.144C7.75223 15 8.97623 16.704 11.0642 16.704ZM4.03223 20.88H11.0882C16.0562 20.88 19.9682 16.848 19.9682 12C19.9682 7.032 16.0562 3.12 11.0882 3.12H4.03223V3.6H11.0882C15.7922 3.6 19.4882 7.296 19.4882 12C19.4882 16.584 15.7922 20.4 11.0882 20.4H4.03223V20.88ZM8.52023 13.632V13.584C8.52023 12.048 9.45623 10.992 11.0402 10.992H11.0882C12.6242 10.992 13.5842 12.024 13.5842 13.584V13.632C13.5842 15.192 12.6242 16.224 11.0882 16.224H11.0402C9.43223 16.224 8.52023 15.048 8.52023 13.632Z" fill="black"/>
</svg>
