<svg width="24" height="24" viewBox="0 0 24 24" fill="none" xmlns="http://www.w3.org/2000/svg">
<path d="M4.30803 19.284H19.62C20.364 18.18 20.94 16.836 21.156 15.468H20.676C20.484 16.668 20.004 17.796 19.356 18.804H4.57203C3.68403 17.436 3.15603 15.78 3.15603 14.028C3.15603 9.156 7.09203 5.196 11.964 5.196C16.332 5.196 19.98 8.388 20.676 12.588H21.156C20.46 8.124 16.62 4.716 11.964 4.716C6.82803 4.716 2.67603 8.892 2.67603 14.028C2.67603 15.972 3.30003 17.82 4.30803 19.284ZM11.724 14.028C11.724 14.172 11.82 14.268 11.964 14.268H21.324V13.788H11.964C11.82 13.788 11.724 13.884 11.724 14.028Z" fill="black"/>
</svg>
