<svg width="24" height="24" viewBox="0 0 24 24" fill="none" xmlns="http://www.w3.org/2000/svg">
<path d="M4.33201 19.308H19.644C20.652 17.844 21.3 15.996 21.3 14.052C21.3 9.39599 17.892 5.55599 13.428 4.85999V5.33999C17.628 6.03599 20.82 9.68399 20.82 14.052C20.82 15.804 20.268 17.46 19.38 18.828H4.59601C3.70801 17.46 3.18001 15.804 3.18001 14.052C3.18001 9.68399 6.37201 6.03599 10.548 5.33999V4.85999C6.10801 5.55599 2.70001 9.39599 2.70001 14.052C2.70001 15.996 3.32401 17.844 4.33201 19.308ZM11.748 14.052C11.748 14.196 11.844 14.292 11.988 14.292C12.132 14.292 12.228 14.196 12.228 14.052V4.69199H11.748V14.052Z" fill="black"/>
</svg>
