<svg width="24" height="24" viewBox="0 0 24 24" fill="none" xmlns="http://www.w3.org/2000/svg">
<path d="M4.35601 19.284H19.668C20.676 17.82 21.3 15.972 21.3 14.028C21.3 8.892 17.148 4.716 12.012 4.716C9.97201 4.716 8.07601 5.388 6.51601 6.516L6.87601 6.852C8.31601 5.82 10.092 5.196 12.012 5.196C16.884 5.196 20.82 9.156 20.82 14.028C20.82 15.78 20.292 17.436 19.404 18.804H4.62001C3.73201 17.436 3.18001 15.78 3.18001 14.028C3.18001 12.108 3.80401 10.332 4.83601 8.892L4.50001 8.532C3.37201 10.092 2.70001 11.988 2.70001 14.028C2.70001 15.972 3.34801 17.82 4.35601 19.284ZM5.24401 7.596L11.844 14.196C11.892 14.244 11.94 14.268 12.012 14.268C12.156 14.268 12.252 14.172 12.252 14.028C12.252 13.956 12.228 13.908 12.18 13.86L5.58001 7.26L5.24401 7.596Z" fill="black"/>
</svg>
