<svg width="24" height="24" viewBox="0 0 24 24" fill="none" xmlns="http://www.w3.org/2000/svg">
<path d="M12.888 16.68C14.688 16.68 16.032 15.6 16.032 14.04C16.032 13.008 15.456 12.192 14.16 11.856V11.808C15.408 11.472 15.768 10.704 15.768 9.888C15.768 8.4 14.544 7.32 12.912 7.32C11.136 7.32 9.95998 8.568 9.95998 10.128V10.296H10.44C10.44 8.76 11.352 7.8 12.912 7.8C14.352 7.8 15.288 8.616 15.288 9.888C15.288 10.848 14.856 11.592 12.72 11.592H12.12V12.072H12.72C14.808 12.072 15.552 12.816 15.552 14.04C15.552 15.36 14.52 16.2 12.888 16.2C11.136 16.2 10.296 15.24 10.296 13.56H9.81598V13.68C9.81598 15.408 10.92 16.68 12.888 16.68ZM4.03198 12C4.03198 16.968 7.94398 20.88 12.912 20.88H19.968V20.4H12.912C8.20798 20.4 4.51198 16.704 4.51198 12C4.51198 7.416 8.20798 3.6 12.912 3.6H19.968V3.12H12.912C7.94398 3.12 4.03198 7.152 4.03198 12Z" fill="black"/>
</svg>
