<svg width="24" height="24" viewBox="0 0 24 24" fill="none" xmlns="http://www.w3.org/2000/svg">
<path d="M12 20.88C16.968 20.88 20.88 16.848 20.88 12C20.88 7.032 16.968 3.12 12 3.12C7.032 3.12 3.12 7.032 3.12 12C3.12 16.968 7.032 20.88 12 20.88ZM3.6 12C3.6 7.296 7.296 3.6 12 3.6C16.704 3.6 20.4 7.296 20.4 12C20.4 16.584 16.704 20.4 12 20.4C7.296 20.4 3.6 16.704 3.6 12ZM8.904 13.68C8.904 15.408 10.008 16.68 11.976 16.68C13.776 16.68 15.12 15.6 15.12 14.04C15.12 13.008 14.544 12.192 13.248 11.856V11.808C14.496 11.472 14.856 10.704 14.856 9.888C14.856 8.4 13.632 7.32 12 7.32C10.224 7.32 9.048 8.568 9.048 10.128V10.296H9.528C9.528 8.76 10.44 7.8 12 7.8C13.44 7.8 14.376 8.616 14.376 9.888C14.376 10.848 13.944 11.592 11.808 11.592H11.208V12.072H11.808C13.896 12.072 14.64 12.816 14.64 14.04C14.64 15.36 13.608 16.2 11.976 16.2C10.224 16.2 9.384 15.24 9.384 13.56H8.904V13.68Z" fill="black"/>
</svg>
