<svg width="24" height="24" viewBox="0 0 24 24" fill="none" xmlns="http://www.w3.org/2000/svg">
<path d="M11.976 16.68C13.776 16.68 15.12 15.6 15.12 14.04C15.12 13.008 14.544 12.192 13.248 11.856V11.808C14.496 11.472 14.856 10.704 14.856 9.888C14.856 8.4 13.632 7.32 12 7.32C10.224 7.32 9.04801 8.568 9.04801 10.128V10.296H9.52801C9.52801 8.76 10.44 7.8 12 7.8C13.44 7.8 14.376 8.616 14.376 9.888C14.376 10.848 13.944 11.592 11.808 11.592H11.208V12.072H11.808C13.896 12.072 14.64 12.816 14.64 14.04C14.64 15.36 13.608 16.2 11.976 16.2C10.224 16.2 9.38401 15.24 9.38401 13.56H8.90401V13.68C8.90401 15.408 10.008 16.68 11.976 16.68ZM5.76001 20.88H18.24V20.4H5.76001V20.88ZM5.76001 3.6H18.24V3.12H5.76001V3.6Z" fill="black"/>
</svg>
