<svg width="24" height="24" viewBox="0 0 24 24" fill="none" xmlns="http://www.w3.org/2000/svg">
<path d="M11.064 16.68C12.864 16.68 14.208 15.6 14.208 14.04C14.208 13.008 13.632 12.192 12.336 11.856V11.808C13.584 11.472 13.944 10.704 13.944 9.888C13.944 8.4 12.72 7.32 11.088 7.32C9.31198 7.32 8.13598 8.568 8.13598 10.128V10.296H8.61598C8.61598 8.76 9.52798 7.8 11.088 7.8C12.528 7.8 13.464 8.616 13.464 9.888C13.464 10.848 13.032 11.592 10.896 11.592H10.296V12.072H10.896C12.984 12.072 13.728 12.816 13.728 14.04C13.728 15.36 12.696 16.2 11.064 16.2C9.31198 16.2 8.47198 15.24 8.47198 13.56H7.99198V13.68C7.99198 15.408 9.09598 16.68 11.064 16.68ZM4.03198 20.88H11.088C16.056 20.88 19.968 16.848 19.968 12C19.968 7.032 16.056 3.12 11.088 3.12H4.03198V3.6H11.088C15.792 3.6 19.488 7.296 19.488 12C19.488 16.584 15.792 20.4 11.088 20.4H4.03198V20.88Z" fill="black"/>
</svg>
