<svg width="24" height="24" viewBox="0 0 24 24" fill="none" xmlns="http://www.w3.org/2000/svg">
<path d="M4.43979 21.36C4.87178 21.36 5.32779 21.192 5.71178 20.832L15.6718 10.92C16.1038 11.064 16.6078 11.16 17.0878 11.16C19.4398 11.16 21.3598 9.24 21.3598 6.912C21.3598 6.072 21.0958 5.184 20.5918 4.632L17.6638 7.56L16.4398 6.336L19.3678 3.408C18.8158 2.904 17.9278 2.64 17.0878 2.64C14.7598 2.64 12.8398 4.56 12.8398 6.912C12.8398 7.392 12.9358 7.896 13.0798 8.328L3.19179 18.264C2.80779 18.648 2.63979 19.104 2.63979 19.536C2.63979 20.544 3.43179 21.36 4.43979 21.36ZM2.27979 6.456L7.51179 11.688L7.84778 11.352L7.10379 10.608L8.85578 8.856L8.51978 8.52L6.76779 10.272L5.01578 8.52L6.76779 6.768L6.43179 6.432L4.67979 8.184L2.95179 6.456L6.45578 2.952L11.2798 7.776L11.3038 7.752C11.2558 7.512 11.2558 7.272 11.2558 7.08L6.45578 2.28L2.27979 6.456ZM3.11979 19.56C3.11979 19.224 3.23979 18.888 3.52779 18.6L13.6558 8.448C13.4398 7.992 13.3198 7.464 13.3198 6.912C13.3198 4.824 15.0238 3.12 17.0878 3.12C17.6398 3.12 18.1678 3.24 18.6238 3.48L15.7678 6.336L17.6638 8.232L20.5198 5.376C20.7598 5.832 20.8798 6.36 20.8798 6.912C20.8798 8.976 19.1758 10.68 17.0878 10.68C16.5358 10.68 16.0078 10.56 15.5518 10.344L5.37578 20.496C5.08779 20.76 4.77578 20.88 4.43979 20.88C3.69579 20.88 3.11979 20.28 3.11979 19.56ZM12.3118 16.488L17.5438 21.72L21.7198 17.544L16.9198 12.744C16.7278 12.744 16.4878 12.744 16.2478 12.696L16.2238 12.72L21.0478 17.544L17.5438 21.048L15.8158 19.32L17.5678 17.568L17.2318 17.232L15.4798 18.984L13.7278 17.232L15.4798 15.48L15.1438 15.144L13.3918 16.896L12.6478 16.152L12.3118 16.488Z" fill="black"/>
</svg>
