<svg width="24" height="24" viewBox="0 0 24 24" fill="none" xmlns="http://www.w3.org/2000/svg">
<path d="M4.43979 21.36C4.87178 21.36 5.32779 21.192 5.71178 20.832L15.6718 10.92C16.1038 11.064 16.6078 11.16 17.0878 11.16C19.4398 11.16 21.3598 9.24003 21.3598 6.91203C21.3598 6.07203 21.0958 5.18403 20.5918 4.63203L17.6638 7.56003L16.4398 6.33603L19.3678 3.40803C18.8158 2.90403 17.9278 2.64003 17.0878 2.64003C14.7598 2.64003 12.8398 4.56003 12.8398 6.91203C12.8398 7.39203 12.9358 7.89603 13.0798 8.32803L3.19179 18.264C2.80779 18.648 2.63979 19.104 2.63979 19.536C2.63979 20.544 3.43179 21.36 4.43979 21.36ZM2.27979 6.45603L7.51179 11.688L7.84778 11.352L7.10379 10.608L8.85578 8.85603L8.51978 8.52003L6.76779 10.272L5.01578 8.52003L6.76779 6.76803L6.43179 6.43203L4.67979 8.18403L2.95179 6.45603L6.45578 2.95203L11.2798 7.77603L11.3038 7.75203C11.2558 7.51203 11.2558 7.27203 11.2558 7.08003L6.45578 2.28003L2.27979 6.45603ZM3.11979 19.56C3.11979 19.224 3.23979 18.888 3.52779 18.6L13.6558 8.44803C13.4398 7.99203 13.3198 7.46403 13.3198 6.91203C13.3198 4.82403 15.0238 3.12003 17.0878 3.12003C17.6398 3.12003 18.1678 3.24003 18.6238 3.48003L15.7678 6.33603L17.6638 8.23203L20.5198 5.37603C20.7598 5.83203 20.8798 6.36003 20.8798 6.91203C20.8798 8.97603 19.1758 10.68 17.0878 10.68C16.5358 10.68 16.0078 10.56 15.5518 10.344L5.37578 20.496C5.08779 20.76 4.77578 20.88 4.43979 20.88C3.69579 20.88 3.11979 20.28 3.11979 19.56ZM12.3118 16.488L17.5438 21.72L21.7198 17.544L16.9198 12.744C16.7278 12.744 16.4878 12.744 16.2478 12.696L16.2238 12.72L21.0478 17.544L17.5438 21.048L15.8158 19.32L17.5678 17.568L17.2318 17.232L15.4798 18.984L13.7278 17.232L15.4798 15.48L15.1438 15.144L13.3918 16.896L12.6478 16.152L12.3118 16.488Z" fill="black"/>
</svg>
