<svg width="24" height="24" viewBox="0 0 24 24" fill="none" xmlns="http://www.w3.org/2000/svg">
<path d="M12 20.868C16.896 20.868 20.88 16.908 20.88 12.012C20.88 7.11599 16.896 3.13199 12 3.13199C7.104 3.13199 3.12 7.11599 3.12 12.012C3.12 16.908 7.104 20.868 12 20.868ZM5.64 8.55599V8.07599H12.072V8.55599H9.096V16.428H8.616V8.55599H5.64ZM13.248 16.428V8.07599H16.224C17.784 8.07599 18.864 9.10799 18.864 10.548C18.864 11.964 17.784 12.996 16.224 12.996H13.728V16.428H13.248ZM13.728 12.516H16.224C17.592 12.516 18.384 11.748 18.384 10.572V10.524C18.384 9.32399 17.592 8.55599 16.224 8.55599H13.728V12.516Z" fill="black"/>
</svg>
