<svg width="24" height="24" viewBox="0 0 24 24" fill="none" xmlns="http://www.w3.org/2000/svg">
<path d="M7.55984 21.36H16.4398C17.4238 21.36 18.2398 20.544 18.2398 19.56V8.40002H17.7598V19.56C17.7598 20.352 17.2318 20.88 16.4398 20.88H7.55984C6.76784 20.88 6.23984 20.352 6.23984 19.56V8.40002H5.75984V19.56C5.75984 20.544 6.57584 21.36 7.55984 21.36ZM3.83984 6.62402H20.1598V6.14401H15.7198V4.17601C15.7198 3.31201 15.0478 2.64001 14.1838 2.64001H9.81584C8.95184 2.64001 8.27984 3.31201 8.27984 4.17601V6.14401H3.83984V6.62402ZM8.75984 6.14401V4.17601C8.75984 3.50401 9.14384 3.12001 9.81584 3.12001H14.1838C14.8558 3.12001 15.2398 3.50401 15.2398 4.17601V6.14401H8.75984ZM9.83984 17.64H10.3198V9.72002H9.83984V17.64ZM13.6798 17.64H14.1598V9.72002H13.6798V17.64Z" fill="black"/>
</svg>
