<svg width="24" height="24" viewBox="0 0 24 24" fill="none" xmlns="http://www.w3.org/2000/svg">
<path d="M9.16777 16.464H15.0478V15.984H9.64777V15.504L12.7198 13.248C14.3758 12.024 14.9278 11.184 14.9278 10.056C14.9278 8.28 13.5598 7.344 11.9998 7.344C10.0798 7.344 8.97577 8.712 8.97577 10.248V10.464H9.45577V10.248C9.45577 8.928 10.3198 7.824 11.9758 7.824H12.0238C13.3918 7.824 14.4478 8.568 14.4478 10.056C14.4478 11.016 14.0158 11.688 12.4318 12.864L9.16777 15.264V16.464ZM5.75977 20.88H18.2398V20.4H5.75977V20.88ZM5.75977 3.6H18.2398V3.12H5.75977V3.6Z" fill="black"/>
</svg>
