<svg width="24" height="24" viewBox="0 0 24 24" fill="none" xmlns="http://www.w3.org/2000/svg">
<path d="M8.25623 16.464H14.1362V15.984H8.73623V15.504L11.8082 13.248C13.4642 12.024 14.0162 11.184 14.0162 10.056C14.0162 8.28 12.6482 7.344 11.0882 7.344C9.16823 7.344 8.06423 8.712 8.06423 10.248V10.464H8.54423V10.248C8.54423 8.928 9.40823 7.824 11.0642 7.824H11.1122C12.4802 7.824 13.5362 8.568 13.5362 10.056C13.5362 11.016 13.1042 11.688 11.5202 12.864L8.25623 15.264V16.464ZM4.03223 20.88H11.0882C16.0562 20.88 19.9682 16.848 19.9682 12C19.9682 7.032 16.0562 3.12 11.0882 3.12H4.03223V3.6H11.0882C15.7922 3.6 19.4882 7.296 19.4882 12C19.4882 16.584 15.7922 20.4 11.0882 20.4H4.03223V20.88Z" fill="black"/>
</svg>
