<svg width="24" height="24" viewBox="0 0 24 24" fill="none" xmlns="http://www.w3.org/2000/svg">
<path d="M10.0802 16.464H15.9602V15.984H10.5602V15.504L13.6322 13.248C15.2882 12.024 15.8402 11.184 15.8402 10.056C15.8402 8.28 14.4722 7.344 12.9122 7.344C10.9922 7.344 9.88823 8.712 9.88823 10.248V10.464H10.3682V10.248C10.3682 8.928 11.2322 7.824 12.8882 7.824H12.9362C14.3042 7.824 15.3602 8.568 15.3602 10.056C15.3602 11.016 14.9282 11.688 13.3442 12.864L10.0802 15.264V16.464ZM4.03223 12C4.03223 16.968 7.94423 20.88 12.9122 20.88H19.9682V20.4H12.9122C8.20823 20.4 4.51223 16.704 4.51223 12C4.51223 7.416 8.20823 3.6 12.9122 3.6H19.9682V3.12H12.9122C7.94423 3.12 4.03223 7.152 4.03223 12Z" fill="black"/>
</svg>
