<svg width="24" height="24" viewBox="0 0 24 24" fill="none" xmlns="http://www.w3.org/2000/svg">
<path d="M7.76381 11.52V21.84H8.24381V11.52C10.1398 11.376 11.6038 9.79197 11.6038 7.91997V2.39997H11.1238V7.91997C11.1238 9.57597 9.89981 10.92 8.24381 11.04V2.39997H7.76381V11.04C6.13181 10.92 4.88381 9.57597 4.88381 7.91997V2.39997H4.40381V7.91997C4.40381 9.79197 5.89181 11.376 7.76381 11.52ZM14.3158 16.8H19.1158V21.84H19.5958V2.15997C16.6678 2.15997 14.3158 4.48797 14.3158 7.43997V16.8ZM14.7958 16.32V7.43997C14.7958 4.84797 16.6198 2.87997 19.1158 2.66397V16.32H14.7958Z" fill="black"/>
</svg>
