<svg width="24" height="24" viewBox="0 0 24 24" fill="none" xmlns="http://www.w3.org/2000/svg">
<path fill-rule="evenodd" clip-rule="evenodd" d="M3.81609 9.40432C4.43821 10.0263 5.26194 10.4003 6.13371 10.4627H2.32422V20.8125H17.6797V16.8006L21.6755 20.1224V10.4485L17.6797 14.0113V10.4627H13.8912C14.7632 10.4003 15.587 10.0262 16.2091 9.40402C16.892 8.7212 17.276 7.79542 17.2772 6.82977C17.276 5.86413 16.892 4.93835 16.2091 4.25553C15.5263 3.57271 14.6005 3.18862 13.6349 3.1875C12.6691 3.18839 11.7431 3.57239 11.0601 4.25523C10.4682 4.847 10.1007 5.62132 10.0125 6.44594C9.92424 5.62146 9.55686 4.84726 8.96512 4.25553C8.28231 3.57271 7.35652 3.18862 6.39088 3.1875C5.42508 3.18839 4.49909 3.57239 3.81609 4.25523C3.13309 4.93807 2.74886 5.86398 2.74774 6.82977C2.74886 7.79557 3.13309 8.72148 3.81609 9.40432ZM13.3777 10.4627H6.64721C7.51913 10.4003 8.34298 10.0262 8.96512 9.40402C9.55686 8.81229 9.92424 8.03809 10.0125 7.21361C10.1007 8.03823 10.4682 8.81255 11.0601 9.40432C11.6822 10.0263 12.506 10.4003 13.3777 10.4627ZM4.23345 4.6726C4.80574 4.10047 5.58165 3.77876 6.39088 3.77809C7.19996 3.77899 7.97565 4.10079 8.54776 4.6729C9.11987 5.24501 9.44166 6.02069 9.44255 6.82977C9.44166 7.63886 9.11987 8.41454 8.54776 8.98665C7.97565 9.55876 7.19996 9.88056 6.39088 9.88146C5.58165 9.88079 4.80574 9.55908 4.23345 8.98695C3.66116 8.41482 3.33923 7.639 3.33834 6.82977C3.33923 6.02055 3.66116 5.24473 4.23345 4.6726ZM11.4775 4.6726C12.0498 4.10047 12.8257 3.77876 13.6349 3.77809C14.444 3.77899 15.2197 4.10079 15.7918 4.6729C16.3639 5.24501 16.6857 6.02069 16.6866 6.82977C16.6857 7.63886 16.3639 8.41454 15.7918 8.98665C15.2197 9.55876 14.444 9.88056 13.6349 9.88146C12.8257 9.88079 12.0498 9.55908 11.4775 8.98695C10.9052 8.41482 10.5832 7.639 10.5824 6.82977C10.5832 6.02055 10.9052 5.24473 11.4775 4.6726ZM2.91481 20.2219H17.0891V11.0533H2.91481V20.2219ZM21.0849 18.8627L17.6797 16.0313V14.802L21.0849 11.7646V18.8627Z" fill="black"/>
</svg>
