<svg width="24" height="24" viewBox="0 0 24 24" fill="none" xmlns="http://www.w3.org/2000/svg">
<path d="M12.24 19.2H21.12V6.47999H6.6V6.95999H20.64V18.72H12.24V19.2ZM2.88 16.8H6.72V20.64H7.2V16.8H11.04V16.32H7.2V12.48H6.72V16.32H2.88V16.8ZM3.36 11.76H3.84V5.27999C3.84 4.36799 4.368 3.83999 5.28 3.83999H19.056C18.72 3.52799 18.264 3.35999 17.76 3.35999H5.28C4.176 3.35999 3.36 4.17599 3.36 5.27999V11.76ZM15.72 12.936C15.72 13.392 16.104 13.8 16.584 13.8C17.016 13.8 17.4 13.392 17.4 12.936C17.4 12.504 17.016 12.12 16.584 12.12C16.104 12.12 15.72 12.504 15.72 12.936Z" fill="black"/>
</svg>
