<svg width="24" height="24" viewBox="0 0 24 24" fill="none" xmlns="http://www.w3.org/2000/svg">
<path d="M2.23193 8.57998L2.56793 8.91598C4.96793 6.58798 8.20793 5.12398 11.9999 5.12398C15.7919 5.12398 19.0319 6.58798 21.4319 8.91598L21.7679 8.57998C19.2959 6.17998 15.9119 4.64398 11.9999 4.64398C8.08793 4.64398 4.70393 6.17998 2.23193 8.57998ZM5.18393 11.796L5.49593 12.156C7.27193 10.644 9.43193 9.73198 11.9999 9.73198C14.5679 9.73198 16.7279 10.644 18.4799 12.18L18.8159 11.796C16.9919 10.236 14.6639 9.25198 11.9999 9.25198C9.33593 9.25198 7.00793 10.236 5.18393 11.796ZM8.11193 15.06L8.42393 15.42C9.38393 14.604 10.6079 14.1 11.9999 14.1C13.3919 14.1 14.6159 14.604 15.5759 15.42L15.8639 15.036C14.8559 14.172 13.4879 13.62 11.9999 13.62C10.5119 13.62 9.14393 14.172 8.11193 15.06ZM10.7519 17.988L11.9999 19.356L13.2479 17.988C12.9359 17.7 12.5039 17.532 11.9999 17.532C11.4959 17.532 11.0639 17.7 10.7519 17.988Z" fill="black"/>
</svg>
