<svg width="24" height="24" viewBox="0 0 24 24" fill="none" xmlns="http://www.w3.org/2000/svg">
<path d="M19.812 20.964L20.148 20.628L2.55597 3.03601L2.21997 3.37201L5.81997 6.97201C4.47597 7.62001 3.29997 8.46001 2.24397 9.46801L2.57997 9.80401C3.63597 8.79601 4.81197 7.95601 6.15597 7.30801L9.34797 10.5C7.76397 10.908 6.39597 11.652 5.19597 12.684L5.50797 13.044C6.73197 11.988 8.12397 11.244 9.73197 10.884L13.548 14.7C13.068 14.58 12.54 14.508 12.012 14.508C10.524 14.508 9.15597 15.06 8.12397 15.948L8.43597 16.308C9.39597 15.492 10.62 14.988 12.012 14.988C12.852 14.988 13.644 15.18 14.34 15.492L19.812 20.964ZM9.03597 5.84401L9.44397 6.25201C10.26 6.08401 11.124 6.01201 12.012 6.01201C15.804 6.01201 19.044 7.47601 21.444 9.80401L21.78 9.46801C19.308 7.06801 15.924 5.53201 12.012 5.53201C10.98 5.53201 9.97197 5.62801 9.03597 5.84401ZM10.764 18.876L12.012 20.244L13.26 18.876C12.948 18.588 12.516 18.42 12.012 18.42C11.508 18.42 11.076 18.588 10.764 18.876ZM13.428 10.236L14.004 10.812C15.708 11.148 17.22 11.94 18.492 13.068L18.828 12.684C17.316 11.412 15.492 10.524 13.428 10.236Z" fill="black"/>
</svg>
