<svg width="24" height="24" viewBox="0 0 24 24" fill="none" xmlns="http://www.w3.org/2000/svg">
<path d="M12.0001 19.248C16.3201 19.248 19.0081 19.128 20.0641 18.864C21.0481 18.552 21.6481 17.952 21.8881 17.04C22.2721 15.624 22.3201 13.176 22.3201 12C22.3201 10.872 22.2481 8.35201 21.8881 6.96001C21.6481 6.04801 21.0481 5.44801 20.0641 5.13601C19.0081 4.87201 16.3201 4.75201 12.0001 4.75201C7.68005 4.75201 4.99205 4.87201 3.93605 5.13601C2.95205 5.44801 2.35205 6.04801 2.11205 6.96001C1.75205 8.35201 1.68005 10.872 1.68005 12C1.68005 13.176 1.72805 15.624 2.11205 17.04C2.35205 17.952 2.95205 18.552 3.93605 18.864C4.99205 19.128 7.68005 19.248 12.0001 19.248ZM9.88805 15.096V8.92801L15.3121 12L9.88805 15.096Z" fill="black"/>
</svg>
