<svg width="24" height="24" viewBox="0 0 24 24" fill="none" xmlns="http://www.w3.org/2000/svg">
<path d="M11.9998 16.704C14.2078 16.704 15.3598 14.856 15.3598 12.024C15.3598 9.192 14.2318 7.344 11.9998 7.344C9.79177 7.344 8.63977 9.192 8.63977 12.024C8.63977 14.856 9.79177 16.704 11.9998 16.704ZM5.75977 20.88H18.2398V20.4H5.75977V20.88ZM5.75977 3.6H18.2398V3.12H5.75977V3.6ZM9.11977 12.048V12C9.11977 9.312 10.0558 7.824 11.9998 7.824C13.0558 7.824 13.7998 8.256 14.2798 9.048L9.47977 14.472C9.23977 13.824 9.11977 13.008 9.11977 12.048ZM9.69577 14.952L14.4958 9.528C14.7598 10.176 14.8798 10.992 14.8798 12V12.048C14.8798 14.736 13.9438 16.224 11.9998 16.224C10.9438 16.224 10.1758 15.792 9.69577 14.952Z" fill="black"/>
</svg>
