<svg width="24" height="24" viewBox="0 0 24 24" fill="none" xmlns="http://www.w3.org/2000/svg">
<path d="M12 20.88C16.968 20.88 20.88 16.848 20.88 12C20.88 7.032 16.968 3.12 12 3.12C7.032 3.12 3.12 7.032 3.12 12C3.12 16.968 7.032 20.88 12 20.88ZM3.6 12C3.6 7.296 7.296 3.6 12 3.6C16.704 3.6 20.4 7.296 20.4 12C20.4 16.584 16.704 20.4 12 20.4C7.296 20.4 3.6 16.704 3.6 12ZM8.64 12.024C8.64 14.856 9.792 16.704 12 16.704C14.208 16.704 15.36 14.856 15.36 12.024C15.36 9.192 14.232 7.344 12 7.344C9.792 7.344 8.64 9.192 8.64 12.024ZM9.12 12.048V12C9.12 9.312 10.056 7.824 12 7.824C13.056 7.824 13.8 8.256 14.28 9.048L9.48 14.472C9.24 13.824 9.12 13.008 9.12 12.048ZM9.696 14.952L14.496 9.528C14.76 10.176 14.88 10.992 14.88 12V12.048C14.88 14.736 13.944 16.224 12 16.224C10.944 16.224 10.176 15.792 9.696 14.952Z" fill="black"/>
</svg>
