<svg width="24" height="24" viewBox="0 0 24 24" fill="none" xmlns="http://www.w3.org/2000/svg">
<path d="M11.088 16.704C13.296 16.704 14.448 14.856 14.448 12.024C14.448 9.192 13.32 7.344 11.088 7.344C8.87998 7.344 7.72798 9.192 7.72798 12.024C7.72798 14.856 8.87998 16.704 11.088 16.704ZM4.03198 20.88H11.088C16.056 20.88 19.968 16.848 19.968 12C19.968 7.032 16.056 3.12 11.088 3.12H4.03198V3.6H11.088C15.792 3.6 19.488 7.296 19.488 12C19.488 16.584 15.792 20.4 11.088 20.4H4.03198V20.88ZM8.20798 12.048V12C8.20798 9.312 9.14398 7.824 11.088 7.824C12.144 7.824 12.888 8.256 13.368 9.048L8.56798 14.472C8.32798 13.824 8.20798 13.008 8.20798 12.048ZM8.78398 14.952L13.584 9.528C13.848 10.176 13.968 10.992 13.968 12V12.048C13.968 14.736 13.032 16.224 11.088 16.224C10.032 16.224 9.26398 15.792 8.78398 14.952Z" fill="black"/>
</svg>
