<svg width="24" height="24" viewBox="0 0 24 24" fill="none" xmlns="http://www.w3.org/2000/svg">
<path d="M12.912 16.704C15.12 16.704 16.272 14.856 16.272 12.024C16.272 9.192 15.144 7.344 12.912 7.344C10.704 7.344 9.55198 9.192 9.55198 12.024C9.55198 14.856 10.704 16.704 12.912 16.704ZM4.03198 12C4.03198 16.968 7.94398 20.88 12.912 20.88H19.968V20.4H12.912C8.20798 20.4 4.51198 16.704 4.51198 12C4.51198 7.416 8.20798 3.6 12.912 3.6H19.968V3.12H12.912C7.94398 3.12 4.03198 7.152 4.03198 12ZM10.032 12.048V12C10.032 9.312 10.968 7.824 12.912 7.824C13.968 7.824 14.712 8.256 15.192 9.048L10.392 14.472C10.152 13.824 10.032 13.008 10.032 12.048ZM10.608 14.952L15.408 9.528C15.672 10.176 15.792 10.992 15.792 12V12.048C15.792 14.736 14.856 16.224 12.912 16.224C11.856 16.224 11.088 15.792 10.608 14.952Z" fill="black"/>
</svg>
