<svg width="24" height="24" viewBox="0 0 146 146" fill="none">
<g>
<path d="M86.2234+35.533C75.811+50.4746+62.7483+78.1118+57.7314+88.8541C58.8303+94.6209+59.7772+100.417+60.5712+106.237C59.5299+102.819+57.3528+97.2527+55.649+93.2487L55.649+93.3464C55.649+93.3464+55.649+93.1511+55.4596+92.6628L53.6611+88.4635C52.5253+86.022+50.7268+82.311+47.887+76.9399C29.7128+45.0058-0.104364+63.6584-0.104364+63.6584C4.72317+66.8811+15.4195+84.6548+19.7737+95.5925C24.128+106.53+30.47+122.839+42.8702+129.284C59.9086+136.902+71.7408+129.48+78.7454+122.644C78.3647+121.179+78.1737+119.668+78.1775+118.151C78.1775+109.46+84.4249+102.331+92.4708+101.159L120.395+44.4198C131.47+22.6421+145.952+14.9272+145.952+14.9272C116.703+3.20822+99.4754+16.5873+86.2234+35.533Z" opacity="1" fill="#31f793"/>
<path d="M76.5279+118.086C76.5279+107.727+84.6678+99.3287+94.7088+99.3287C104.75+99.3287+112.89+107.727+112.89+118.086C112.89+128.445+104.75+136.843+94.7088+136.843C84.6678+136.843+76.5279+128.445+76.5279+118.086Z" opacity="1" fill="#31f793"/>
</g>
</svg>
