<svg width="24" height="24" viewBox="0 0 24 24" fill="none">
<path d="M11.4473 18.642V19.7392H12V18.0975H10.9028V18.642H11.4473ZM5.94453 12.6195H5.40002V15.3585H5.94453V14.2612H6.49727V13.164H5.94453V12.6195ZM12.5528 15.903H13.0973V17.5447H12.5528V15.903ZM12 17.5447H12.5528V18.0975H12V17.5447ZM6.49727 17.0002H8.14727V18.642H6.49727V17.0002ZM5.40002 11.5222H5.95277V12.0667H5.40002V11.5222ZM8.70003 10.425H9.25277V10.9777H8.70003V10.425ZM12 9.87225H12.5528V10.9695H12V9.87225ZM4.84727 8.2305H6.49727V9.87225H4.84727V8.2305ZM9.79727 18.642H10.35V19.7392H9.79727V18.642ZM10.35 9.87225H9.80553V10.9695H10.35V10.425H10.9028V9.32775H10.35V9.87225ZM10.9028 8.78325H11.4473V9.32775H10.9028V8.78325ZM10.9028 10.425H11.4473V10.9695H10.9028V10.425ZM8.14727 11.5222H9.79727V12.0667H8.14727V11.5222Z" fill="#F1CB60"/>
<path d="M10.35 9.32776V8.78326H10.8945V8.23051H10.35V7.14151H8.7V7.68601H9.79725V8.23051H9.2445V8.77501H8.7V9.31951H8.1555V8.78326H7.5945V8.23876H8.14725V8.77501H8.7V8.23051H8.1555V7.14151H3.75V10.9778H8.1555V10.425H8.7V9.32776H9.25275V9.87226H9.8055V9.32776H10.35ZM7.05 10.425H4.30275V7.68601H7.05V10.425ZM7.5945 10.425V9.32776H8.14725V10.425H7.5945ZM9.79725 8.77501V8.23876H10.35V8.77501H9.79725ZM14.2027 14.8058V14.2613H13.0972V13.164H12.5527V13.7085H12.0082V13.164H12.5527V11.514H11.4555V12.0668H10.8945V13.164H10.35V13.7085H10.9027V13.164H11.4472V14.8058H10.35V14.2613H9.79725V13.164H9.25275V12.6195H8.14725V12.075H7.5945V11.5305H6.49725V12.075H5.9445V12.6195H6.49725V13.164H7.05V12.6195H7.60275V13.164H7.05V13.7085H7.60275V14.253H8.14725V13.7085H8.7V13.164H9.2445V13.7085H8.7V14.253H8.1555V15.3503H9.25275V15.903H8.14725V15.3585H7.5945V15.903H6.49725V15.3585H5.95275V15.903H5.4V19.7393H9.25275V16.4475H9.79725V18.0975H10.9027V17.553H11.4555V16.4475H10.9027V15.903H10.35V16.4475H9.8055V15.3503H11.4555V15.8948H12.0082V14.8058H13.0972V15.3585H13.65V14.8058H14.2027ZM8.7 19.1865H5.95275V16.4475H8.7V19.1865ZM9.25275 14.8058H8.7V14.2613H9.25275V14.8058ZM10.35 17.0003H10.9027V17.5448H10.35V17.0003ZM14.2027 7.14151H14.7472V8.23051H14.2027V7.14151ZM13.0972 7.14151H12.5527V8.78326H12V9.32776H12.5527V9.87226H13.0972V10.9695H13.65V9.87226H14.2027V10.9778H14.7472V10.425H15.3V9.32776H14.2027V8.23051H13.0972V7.14151Z" fill="#F1CB60"/>
<path fill-rule="evenodd" clip-rule="evenodd" d="M18.0473 13.164H16.95V13.7085H16.3973V14.2612H15.8528V12.6195H16.3973V12.0667H15.8528V12.6112H15.3V13.164H14.7473V12.0667H14.2028V13.164H13.65V13.7167L14.2028 13.7085H14.7473V14.8057H16.3973V15.3585H14.7473V15.903H14.2028V16.4475H13.65V17.0002H14.2028V17.5447H13.65V18.0975H14.2028V18.642H14.7473V19.1865H14.2028V19.7393H18.6V16.4475H18.0473V19.1865H15.3V16.4475H16.95V14.2612H17.5028V14.8057H18.6V13.7167H18.0555V13.164H18.6V11.5222H18.0473V13.164Z" fill="#F1CB60"/>
<path d="M13.65 15.3585H14.2028V15.903H13.65V15.3585ZM16.3973 12.6195H16.95V13.164H16.3973V12.6195ZM17.5028 15.3585H18.6V15.9112H17.5028V15.3585ZM17.5028 8.23875H19.1528V9.8805H17.5028V8.23875ZM15.3 10.425H15.8528V10.9777H15.3V10.425ZM13.0973 11.5222H13.65V12.0667H13.0973V11.5222ZM16.95 11.5222H17.5028V12.0667H16.95V11.5222ZM15.8528 17.0002H17.5028V18.642H15.8528V17.0002ZM15.3 11.5222H15.8528V12.0667H15.3V11.5222ZM11.4473 8.2305H12V8.78325H11.4473V8.2305Z" fill="#F1CB60"/>
<path d="M15.3 7.1415V7.686H16.3972V8.2305H15.8445V8.775H15.3V8.2305H14.7472V8.78325H15.3V9.3195H15.8527V9.864H16.4055V10.9613H20.25V7.1415H15.3ZM19.6972 10.425H16.95V7.686H19.6972V10.425ZM7.38823 6.17625C7.76773 6.432 8.19673 6.4815 8.53498 6.498C8.82373 6.5145 9.31048 6.5145 9.82198 6.5145C10.7707 6.5145 11.8845 6.531 12 6.531C12.3052 6.53925 13.2375 6.53925 14.0625 6.53925C14.574 6.53925 15.0525 6.531 15.3495 6.52275C15.6877 6.50625 16.1167 6.4485 16.4962 6.201C16.9747 5.87925 17.214 5.35125 17.214 4.6335C17.214 4.056 16.9747 3.7095 16.7767 3.5115C16.2405 2.99175 15.4155 3.02475 15.1432 3.033H15.1102C14.9452 3.033 14.3512 3.12375 13.65 3.51975C13.0312 3.86625 12.495 4.36125 12.0577 4.98L12.0082 5.10375L11.967 5.03775C11.505 4.34475 10.9027 3.8745 10.2345 3.495C9.54148 3.099 8.94748 3.0165 8.78248 3.0165H8.74949C8.47723 3.00825 7.65223 2.97525 7.11598 3.495C6.75298 3.8415 6.67873 4.29525 6.67873 4.617C6.67048 5.3265 6.90973 5.8545 7.38823 6.17625ZM14.0542 4.32825C14.64 3.99 15.0855 3.9405 15.1185 3.9405H15.1762C15.6465 3.924 15.9765 3.99825 16.1497 4.16325C16.257 4.2705 16.3147 4.419 16.3147 4.6335C16.3147 5.41725 15.9435 5.5905 15.3082 5.6235C14.772 5.64825 13.5262 5.64 12.7177 5.63175C13.0504 5.09485 13.5092 4.64737 14.0542 4.32825ZM7.73473 4.1385C7.89148 3.99 8.17198 3.91575 8.57624 3.91575H8.77424C8.80724 3.91575 9.25273 3.96525 9.83849 4.3035C10.3665 4.60875 10.8202 5.046 11.1832 5.607C10.3665 5.61525 9.12073 5.6235 8.58448 5.59875C7.94923 5.56575 7.57798 5.3925 7.57798 4.60875C7.57798 4.39425 7.62748 4.24575 7.73473 4.1385ZM13.0972 18.642H12.5527V19.7393H13.1055V18.642H13.65V18.0975H13.0972V18.642Z" fill="#F1CB60"/>
<path d="M11.4473 19.2659V20.3631H12V18.7214H10.9028V19.2659H11.4473ZM5.94453 13.2434H5.40002V15.9824H5.94453V14.8851H6.49727V13.7879H5.94453V13.2434ZM12.5528 16.5269H13.0973V18.1686H12.5528V16.5269ZM12 18.1686H12.5528V18.7214H12V18.1686ZM6.49727 17.6241H8.14727V19.2659H6.49727V17.6241ZM5.40002 12.1461H5.95277V12.6906H5.40002V12.1461ZM8.70003 11.0489H9.25277V11.6016H8.70003V11.0489ZM12 10.4961H12.5528V11.5934H12V10.4961ZM4.84727 8.85439H6.49727V10.4961H4.84727V8.85439ZM9.79727 19.2659H10.35V20.3631H9.79727V19.2659ZM10.35 10.4961H9.80553V11.5934H10.35V11.0489H10.9028V9.95164H10.35V10.4961ZM10.9028 9.40714H11.4473V9.95164H10.9028V9.40714ZM10.9028 11.0489H11.4473V11.5934H10.9028V11.0489ZM8.14727 12.1461H9.79727V12.6906H8.14727V12.1461Z" fill="#F1CB60"/>
<path d="M10.35 9.95165V9.40715H10.8945V8.8544H10.35V7.7654H8.7V8.3099H9.79725V8.8544H9.2445V9.3989H8.7V9.9434H8.1555V9.40715H7.5945V8.86265H8.14725V9.3989H8.7V8.8544H8.1555V7.7654H3.75V11.6016H8.1555V11.0489H8.7V9.95165H9.25275V10.4961H9.8055V9.95165H10.35ZM7.05 11.0489H4.30275V8.3099H7.05V11.0489ZM7.5945 11.0489V9.95165H8.14725V11.0489H7.5945ZM9.79725 9.3989V8.86265H10.35V9.3989H9.79725ZM14.2027 15.4296V14.8851H13.0972V13.7879H12.5527V14.3324H12.0082V13.7879H12.5527V12.1379H11.4555V12.6906H10.8945V13.7879H10.35V14.3324H10.9027V13.7879H11.4472V15.4296H10.35V14.8851H9.79725V13.7879H9.25275V13.2434H8.14725V12.6989H7.5945V12.1544H6.49725V12.6989H5.9445V13.2434H6.49725V13.7879H7.05V13.2434H7.60275V13.7879H7.05V14.3324H7.60275V14.8769H8.14725V14.3324H8.7V13.7879H9.2445V14.3324H8.7V14.8769H8.1555V15.9741H9.25275V16.5269H8.14725V15.9824H7.5945V16.5269H6.49725V15.9824H5.95275V16.5269H5.4V20.3631H9.25275V17.0714H9.79725V18.7214H10.9027V18.1769H11.4555V17.0714H10.9027V16.5269H10.35V17.0714H9.8055V15.9741H11.4555V16.5186H12.0082V15.4296H13.0972V15.9824H13.65V15.4296H14.2027ZM8.7 19.8104H5.95275V17.0714H8.7V19.8104ZM9.25275 15.4296H8.7V14.8851H9.25275V15.4296ZM10.35 17.6241H10.9027V18.1686H10.35V17.6241ZM14.2027 7.7654H14.7472V8.8544H14.2027V7.7654ZM13.0972 7.7654H12.5527V9.40715H12V9.95165H12.5527V10.4961H13.0972V11.5934H13.65V10.4961H14.2027V11.6016H14.7472V11.0489H15.3V9.95165H14.2027V8.8544H13.0972V7.7654Z" fill="#F1CB60"/>
<path fill-rule="evenodd" clip-rule="evenodd" d="M18.0473 13.7879H16.95V14.3324H16.3973V14.8851H15.8528V13.2434H16.3973V12.6906H15.8528V13.2351H15.3V13.7879H14.7473V12.6906H14.2028V13.7879H13.65V14.3406L14.2028 14.3324H14.7473V15.4296H16.3973V15.9824H14.7473V16.5269H14.2028V17.0714H13.65V17.6241H14.2028V18.1686H13.65V18.7214H14.2028V19.2659H14.7473V19.8104H14.2028V20.3631H18.6V17.0714H18.0473V19.8104H15.3V17.0714H16.95V14.8851H17.5028V15.4296H18.6V14.3406H18.0555V13.7879H18.6V12.1461H18.0473V13.7879Z" fill="#F1CB60"/>
<path d="M13.65 15.9824H14.2028V16.5269H13.65V15.9824ZM16.3973 13.2434H16.95V13.7879H16.3973V13.2434ZM17.5028 15.9824H18.6V16.5351H17.5028V15.9824ZM17.5028 8.86264H19.1528V10.5044H17.5028V8.86264ZM15.3 11.0489H15.8528V11.6016H15.3V11.0489ZM13.0973 12.1461H13.65V12.6906H13.0973V12.1461ZM16.95 12.1461H17.5028V12.6906H16.95V12.1461ZM15.8528 17.6241H17.5028V19.2659H15.8528V17.6241ZM15.3 12.1461H15.8528V12.6906H15.3V12.1461ZM11.4473 8.85439H12V9.40714H11.4473V8.85439Z" fill="#F1CB60"/>
<path d="M15.3 7.76539V8.30989H16.3972V8.85439H15.8445V9.39889H15.3V8.85439H14.7472V9.40714H15.3V9.94339H15.8527V10.4879H16.4055V11.5851H20.25V7.76539H15.3ZM19.6972 11.0489H16.95V8.30989H19.6972V11.0489ZM7.38823 6.80014C7.76773 7.05589 8.19673 7.10539 8.53498 7.12189C8.82373 7.13839 9.31048 7.13839 9.82198 7.13839C10.7707 7.13839 11.8845 7.15489 12 7.15489C12.3052 7.16314 13.2375 7.16314 14.0625 7.16314C14.574 7.16314 15.0525 7.15489 15.3495 7.14664C15.6877 7.13014 16.1167 7.07239 16.4962 6.82489C16.9747 6.50314 17.214 5.97514 17.214 5.25739C17.214 4.67989 16.9747 4.33339 16.7767 4.13539C16.2405 3.61564 15.4155 3.64864 15.1432 3.65689H15.1102C14.9452 3.65689 14.3512 3.74764 13.65 4.14364C13.0312 4.49014 12.495 4.98514 12.0577 5.60389L12.0082 5.72764L11.967 5.66164C11.505 4.96864 10.9027 4.49839 10.2345 4.11889C9.54148 3.72289 8.94748 3.64039 8.78248 3.64039H8.74949C8.47723 3.63214 7.65223 3.59914 7.11598 4.11889C6.75298 4.46539 6.67873 4.91914 6.67873 5.24089C6.67048 5.95039 6.90973 6.47839 7.38823 6.80014ZM14.0542 4.95214C14.64 4.61389 15.0855 4.56439 15.1185 4.56439H15.1762C15.6465 4.54789 15.9765 4.62214 16.1497 4.78714C16.257 4.89439 16.3147 5.04289 16.3147 5.25739C16.3147 6.04114 15.9435 6.21439 15.3082 6.24739C14.772 6.27214 13.5262 6.26389 12.7177 6.25564C13.0504 5.71874 13.5092 5.27126 14.0542 4.95214ZM7.73473 4.76239C7.89148 4.61389 8.17198 4.53964 8.57624 4.53964H8.77424C8.80724 4.53964 9.25273 4.58914 9.83849 4.92739C10.3665 5.23264 10.8202 5.66989 11.1832 6.23089C10.3665 6.23914 9.12073 6.24739 8.58448 6.22264C7.94923 6.18964 7.57798 6.01639 7.57798 5.23264C7.57798 5.01814 7.62748 4.86964 7.73473 4.76239ZM13.0972 19.2659H12.5527V20.3631H13.1055V19.2659H13.65V18.7214H13.0972V19.2659Z" fill="#F1CB60"/>
</svg>
