<svg width="24" height="24" viewBox="0 0 24 24" fill="none">
<rect width="24" height="24" fill="none"/>
<path fill-rule="evenodd" clip-rule="evenodd" d="M14.4347 6.59505C14.5063 6.59505 14.5779 6.57956 14.6432 6.5517C14.7086 6.52383 14.7677 6.48357 14.8175 6.43093L15.5829 5.63823C15.6296 5.58868 15.6856 5.54843 15.7509 5.52365C15.8131 5.49579 15.8816 5.4834 15.95 5.4834H15.9843C16.0558 5.4834 16.1274 5.49888 16.1927 5.52675C16.2581 5.55772 16.3172 5.60107 16.3639 5.65371L17.0111 6.37829C17.0733 6.44641 17.148 6.49905 17.232 6.53621C17.316 6.57337 17.4062 6.59195 17.4965 6.59195H19.2264C18.3863 5.47721 17.2942 4.57303 16.0403 3.94753C14.7863 3.32513 13.4048 3 12.0047 3C10.6045 3 9.22299 3.32513 7.96906 3.94753C6.71513 4.56993 5.6261 5.47411 4.78289 6.59195H14.441L14.4347 6.59505ZM15.3495 9.02271H20.5271C20.7791 9.738 20.9378 10.4843 21 11.2429H14.2885C14.1952 11.2429 14.1049 11.2243 14.0209 11.1872C13.9369 11.15 13.8622 11.0943 13.8031 11.0261L13.1559 10.3016C13.1061 10.2489 13.0501 10.2056 12.9848 10.1777C12.9194 10.1498 12.8479 10.1344 12.7763 10.1344H12.7452C12.6768 10.1344 12.6083 10.1467 12.5461 10.1746C12.4838 10.2025 12.4247 10.2396 12.378 10.2892L11.6095 11.085C11.5597 11.1376 11.5006 11.1779 11.4353 11.2057C11.3699 11.2336 11.2984 11.2491 11.2268 11.2491H3C3.06223 10.4935 3.22092 9.74729 3.47295 9.0289H12.1882C12.322 9.0289 12.4558 9.00103 12.5803 8.9453C12.7048 8.88956 12.8137 8.80905 12.9039 8.70686L13.4577 8.08447C13.5044 8.03183 13.5635 7.98847 13.6289 7.96061C13.6942 7.93274 13.7658 7.91726 13.8373 7.91726C13.9089 7.91726 13.9805 7.93274 14.0458 7.96061C14.1111 7.98847 14.1703 8.03183 14.2169 8.08447L14.8641 8.80905C14.9232 8.87717 14.9979 8.93291 15.0819 8.97007C15.1659 9.00723 15.2562 9.0289 15.3495 9.0289V9.02271ZM8.18686 15.866C8.12152 15.8939 8.04996 15.9093 7.97839 15.9093L3.865 15.9155C3.51962 15.2033 3.2707 14.4509 3.12446 13.6737H8.98341C9.12031 13.6737 9.25411 13.6458 9.37545 13.5901C9.49991 13.5343 9.60882 13.4538 9.69905 13.3547L10.2529 12.7323C10.2996 12.6797 10.3587 12.6363 10.424 12.6054C10.4894 12.5744 10.5609 12.5589 10.6325 12.562C10.7041 12.562 10.7756 12.5775 10.841 12.6085C10.9063 12.6394 10.9654 12.6828 11.0121 12.7354L11.6593 13.46C11.7184 13.5281 11.7931 13.5808 11.8771 13.6179C11.9611 13.6551 12.0513 13.6737 12.1416 13.6737H20.8787C20.7324 14.4478 20.4804 15.2002 20.135 15.9093H11.0339C10.9405 15.9093 10.8503 15.8877 10.7663 15.8505C10.6823 15.8134 10.6076 15.7576 10.5485 15.6895L9.90441 14.9649C9.85462 14.9123 9.79862 14.8689 9.73328 14.841C9.66793 14.8132 9.59637 14.7977 9.52481 14.7977H9.49058C9.42213 14.7977 9.35367 14.8132 9.29144 14.838C9.22921 14.8658 9.17009 14.903 9.12342 14.9525L8.35799 15.7483C8.30821 15.801 8.24909 15.8412 8.18375 15.8691L8.18686 15.866ZM8.59447 18.1295H10.9623L18.6104 18.1419C17.764 19.043 16.7435 19.7645 15.6078 20.2537C14.4721 20.7461 13.2462 21 12.0078 21C10.7694 21 9.54347 20.7461 8.40778 20.2537C7.27208 19.7614 6.2484 19.043 5.40519 18.1419H5.43941C5.57321 18.1419 5.707 18.1141 5.83146 18.0583C5.95592 18.0026 6.06482 17.9221 6.15506 17.8199L6.71201 17.1851C6.75869 17.1325 6.81781 17.0891 6.88315 17.0612C6.94849 17.0334 7.02005 17.0179 7.09162 17.0179C7.16318 17.0179 7.23475 17.0334 7.30009 17.0612C7.36543 17.0891 7.42455 17.1325 7.47122 17.1851L8.1153 17.9097C8.17442 17.9778 8.24909 18.0335 8.3331 18.0707C8.41711 18.1079 8.50735 18.1295 8.59758 18.1295H8.59447Z" fill="white"/>
</svg>
