<svg width="24" height="24" viewBox="0 0 24 24" fill="none">
<path d="m 7.6467772,19.863555 h -3.02661 c -0.63599,0 -0.95013,0 -1.1417,-0.12272 -0.20687,-0.13399 -0.33331,-0.35645 -0.34863,-0.60161 -0.0115,-0.22609 0.14559,-0.50202 0.45973,-1.05384 L 11.062647,4.9096049 c 0.31799,-0.55949 0.4789,-0.83924 0.68196,-0.9427 0.21836,-0.11113 0.47888,-0.11113 0.69726,0 0.20307,0.10346 0.36397,0.38321 0.68194,0.9427 l 1.53631,2.68253 c 0.34863,0.60931 0.52486,0.91588 0.6015,1.23778 0.0843,0.34872 0.0843,0.71661 0,1.06533 -0.0766,0.3219001 -0.24905,0.6284801 -0.59768,1.2377901 l -3.92543,6.94085 c -0.35245,0.61698 -0.52868,0.92738 -0.77388,1.16103 -0.2643598,0.25296 -0.5823298,0.43693 -0.9309798,0.54041 -0.31797,0.0882 -0.67427,0.0882 -1.38687,0.0882 z" fill="#ffffff" id="path4" style="stroke-width:0.0234625"/>
<path d="m 19.626817,19.863555 h -4.33691 c -0.63981,0 -0.96162,0 -1.14934,-0.12249 -0.20689,-0.13422 -0.33332,-0.36043 -0.34863,-0.60557 -0.0115,-0.22612 0.14941,-0.50202 0.47122,-1.05769 l 2.16451,-3.71719 c 0.3181,-0.54799 0.47904,-0.82007 0.67821,-0.92355 0.2184,-0.11114 0.47505,-0.11114 0.69346,0 0.20315,0.10348 0.3601,0.37556 0.68196,0.91973 l 2.17234,3.71719 c 0.32162,0.55566 0.48654,0.83157 0.47505,1.05766 -0.0115,0.24524 -0.14193,0.47144 -0.34861,0.60543 -0.19166,0.12648 -0.51352,0.12648 -1.15326,0.12648 z" fill="#ffffff" id="path6" style="stroke-width:0.0234625"/>
</svg>