<svg width="385" height="385" viewBox="0 0 385 385" fill="none" xmlns="http://www.w3.org/2000/svg">
<path d="M192.3 373C292.761 373 374.2 291.561 374.2 191.1C374.2 90.6396 292.761 9.2002 192.3 9.2002C91.8394 9.2002 10.4 90.6396 10.4 191.1C10.4 291.561 91.8394 373 192.3 373Z" fill="black"/>
<path d="M238 354.1C237.523 352.927 237.418 351.635 237.7 350.4C237.874 349.939 238.155 349.527 238.52 349.196C238.886 348.866 239.324 348.627 239.8 348.5C240.264 348.331 240.762 348.28 241.25 348.349C241.738 348.419 242.202 348.608 242.6 348.9C243.511 349.677 244.143 350.731 244.4 351.9L244.9 353.7C245.354 354.847 245.424 356.11 245.1 357.3C244.926 357.761 244.645 358.174 244.28 358.504C243.914 358.834 243.476 359.073 243 359.2C242.54 359.357 242.05 359.411 241.567 359.36C241.083 359.308 240.617 359.151 240.2 358.9C239.3 358.114 238.671 357.064 238.4 355.9L238 354.1ZM239.9 355.5C240.064 356.369 240.481 357.169 241.1 357.8C241.331 357.997 241.61 358.129 241.909 358.182C242.208 358.235 242.516 358.206 242.8 358.1C243.098 358.046 243.373 357.902 243.588 357.688C243.802 357.473 243.946 357.199 244 356.9C244.117 356.062 244.049 355.209 243.8 354.4L243.2 352.3C242.994 351.447 242.582 350.657 242 350C241.765 349.809 241.49 349.674 241.196 349.605C240.901 349.536 240.595 349.534 240.3 349.6C240.009 349.671 239.743 349.82 239.531 350.032C239.32 350.243 239.171 350.509 239.1 350.8C238.931 351.636 239 352.502 239.3 353.3L239.9 355.5Z" fill="#D8D8D8"/>
<path d="M229.8 351.4L231.1 351.1L233.3 360L235.7 358.4L236 359.6L232.5 362H232.3L229.8 351.4Z" fill="#D8D8D8"/>
<path d="M219.4 358.2C219.091 356.975 219.16 355.685 219.6 354.5C219.845 354.084 220.176 353.726 220.572 353.451C220.968 353.175 221.419 352.988 221.893 352.903C222.368 352.817 222.856 352.835 223.323 352.956C223.79 353.076 224.226 353.296 224.6 353.6C225.431 354.478 225.956 355.6 226.1 356.8L226.4 358.6C226.715 359.791 226.645 361.051 226.2 362.2C225.986 362.642 225.662 363.021 225.259 363.301C224.857 363.581 224.388 363.753 223.9 363.8C223.435 363.924 222.947 363.934 222.477 363.83C222.007 363.725 221.569 363.509 221.2 363.2C220.408 362.297 219.888 361.187 219.7 360L219.4 358.2ZM221.1 359.8C221.186 360.665 221.497 361.492 222 362.2C222.226 362.408 222.497 362.562 222.792 362.649C223.086 362.735 223.397 362.753 223.7 362.7C224.01 362.657 224.303 362.532 224.548 362.339C224.794 362.146 224.985 361.891 225.1 361.6C225.356 360.786 225.356 359.914 225.1 359.1L224.7 356.9C224.61 355.989 224.263 355.122 223.7 354.4C223.505 354.149 223.235 353.966 222.93 353.877C222.625 353.787 222.3 353.795 222 353.9C221.712 353.929 221.437 354.037 221.207 354.214C220.977 354.391 220.802 354.629 220.7 354.9C220.5 355.718 220.466 356.568 220.6 357.4L221.1 359.8Z" fill="#D8D8D8"/>
<path d="M209.9 359.5C209.638 358.255 209.778 356.96 210.3 355.8C210.531 355.359 210.875 354.988 211.297 354.724C211.718 354.461 212.203 354.314 212.7 354.3C213.181 354.216 213.676 354.244 214.144 354.383C214.613 354.521 215.042 354.767 215.4 355.1C216.139 356.054 216.59 357.199 216.7 358.4L216.9 360.2C217.168 361.411 217.028 362.677 216.5 363.8C216.242 364.218 215.892 364.571 215.475 364.831C215.059 365.091 214.588 365.252 214.1 365.3C213.619 365.392 213.123 365.367 212.653 365.228C212.183 365.089 211.754 364.839 211.4 364.5C210.661 363.546 210.21 362.401 210.1 361.2L209.9 359.5ZM211.5 361.2C211.534 362.091 211.811 362.955 212.3 363.7C212.481 363.943 212.728 364.129 213.012 364.235C213.296 364.341 213.604 364.364 213.9 364.3C214.206 364.292 214.503 364.192 214.753 364.014C215.002 363.836 215.193 363.587 215.3 363.3C215.538 362.489 215.606 361.638 215.5 360.8L215.2 358.6C215.183 357.706 214.905 356.837 214.4 356.1C214.219 355.857 213.972 355.671 213.688 355.565C213.404 355.459 213.096 355.436 212.8 355.5C212.498 355.523 212.207 355.628 211.96 355.805C211.714 355.981 211.52 356.221 211.4 356.5C211.112 357.301 211.042 358.164 211.2 359L211.5 361.2Z" fill="#D8D8D8"/>
<path d="M200.4 360.3C200.232 359.067 200.441 357.812 201 356.7C201.267 356.276 201.635 355.927 202.072 355.682C202.509 355.437 203 355.306 203.5 355.3C203.983 355.218 204.48 355.267 204.937 355.443C205.395 355.619 205.796 355.915 206.1 356.3C206.823 357.285 207.209 358.478 207.2 359.7L207.3 361.5C207.468 362.733 207.259 363.988 206.7 365.1C206.422 365.505 206.048 365.835 205.612 366.062C205.176 366.288 204.691 366.404 204.2 366.4C203.726 366.485 203.238 366.447 202.782 366.29C202.327 366.132 201.92 365.86 201.6 365.5C200.877 364.514 200.491 363.322 200.5 362.1L200.4 360.3ZM201.9 362C201.892 362.883 202.135 363.75 202.6 364.5C202.789 364.739 203.034 364.927 203.313 365.049C203.592 365.171 203.896 365.223 204.2 365.2C204.508 365.198 204.809 365.113 205.073 364.955C205.337 364.796 205.553 364.57 205.7 364.3C206.037 363.512 206.141 362.645 206 361.8L205.9 359.6C205.908 358.717 205.665 357.85 205.2 357.1C205.026 356.844 204.784 356.643 204.501 356.519C204.218 356.395 203.906 356.354 203.6 356.4C203.299 356.368 202.996 356.44 202.742 356.604C202.487 356.767 202.296 357.013 202.2 357.3C201.863 358.087 201.759 358.955 201.9 359.8V362Z" fill="#D8D8D8"/>
<path d="M190.9 360.4C190.782 359.146 191.062 357.886 191.7 356.8C191.99 356.389 192.383 356.062 192.839 355.851C193.295 355.64 193.799 355.554 194.3 355.6C194.788 355.58 195.274 355.669 195.723 355.859C196.173 356.049 196.575 356.336 196.9 356.7C197.563 357.705 197.879 358.899 197.8 360.1V361.9C197.933 363.123 197.651 364.356 197 365.4C196.688 365.786 196.291 366.095 195.84 366.303C195.389 366.511 194.896 366.613 194.4 366.6C193.911 366.63 193.422 366.546 192.971 366.355C192.52 366.165 192.119 365.872 191.8 365.5C191.122 364.502 190.805 363.303 190.9 362.1V360.4ZM192.2 362.3C192.145 363.163 192.317 364.025 192.7 364.8C192.875 365.06 193.115 365.27 193.395 365.41C193.675 365.55 193.987 365.616 194.3 365.6C194.599 365.615 194.897 365.549 195.161 365.408C195.425 365.267 195.646 365.057 195.8 364.8C196.171 364.021 196.343 363.162 196.3 362.3V360.1C196.34 359.206 196.169 358.315 195.8 357.5C195.617 357.248 195.376 357.044 195.098 356.905C194.819 356.765 194.511 356.695 194.2 356.7C193.901 356.685 193.603 356.751 193.339 356.892C193.075 357.033 192.854 357.243 192.7 357.5C192.329 358.279 192.157 359.138 192.2 360V362.3Z" fill="#D8D8D8"/>
<path d="M183.8 355.6L185.2 355.7L184.8 364.8L187.6 363.9L187.5 365.1L183.5 366.4H183.3L183.8 355.6Z" fill="#D8D8D8"/>
<path d="M171.8 359.2C171.868 357.945 172.284 356.733 173 355.7C173.34 355.338 173.765 355.066 174.236 354.909C174.708 354.752 175.211 354.715 175.7 354.8C176.186 354.81 176.662 354.944 177.081 355.189C177.501 355.434 177.852 355.782 178.1 356.2C178.614 357.29 178.789 358.509 178.6 359.7L178.4 361.5C178.335 362.725 177.918 363.905 177.2 364.9C176.86 365.262 176.435 365.533 175.964 365.69C175.492 365.848 174.989 365.885 174.5 365.8C174.011 365.804 173.53 365.676 173.108 365.429C172.685 365.183 172.337 364.827 172.1 364.4C171.637 363.295 171.464 362.09 171.6 360.9L171.8 359.2ZM173 361.2C172.889 362.071 172.957 362.956 173.2 363.8C173.342 364.082 173.554 364.323 173.818 364.499C174.081 364.674 174.385 364.778 174.7 364.8C174.996 364.864 175.304 364.841 175.588 364.735C175.872 364.628 176.119 364.443 176.3 364.2C176.752 363.481 176.995 362.649 177 361.8L177.2 359.6C177.311 358.729 177.243 357.844 177 357C176.868 356.73 176.671 356.497 176.426 356.323C176.182 356.148 175.898 356.037 175.6 356C175.304 355.936 174.996 355.959 174.712 356.065C174.428 356.171 174.181 356.357 174 356.6C173.553 357.328 173.279 358.149 173.2 359L173 361.2Z" fill="#D8D8D8"/>
<path d="M157.8 356.9C157.949 355.642 158.472 354.458 159.3 353.5C159.67 353.157 160.121 352.914 160.61 352.791C161.1 352.669 161.612 352.672 162.1 352.8C162.582 352.867 163.042 353.046 163.442 353.324C163.841 353.602 164.17 353.971 164.4 354.4C164.836 355.516 164.906 356.742 164.6 357.9L164.3 359.7C164.176 360.935 163.649 362.095 162.8 363C162.43 363.343 161.979 363.587 161.49 363.709C161 363.831 160.488 363.828 160 363.7C159.512 363.653 159.043 363.481 158.641 363.201C158.238 362.921 157.914 362.542 157.7 362.1C157.259 360.985 157.189 359.758 157.5 358.6L157.8 356.9ZM158.8 359C158.596 359.855 158.596 360.745 158.8 361.6C158.919 361.889 159.11 362.141 159.355 362.334C159.601 362.527 159.892 362.653 160.2 362.7C160.502 362.773 160.819 362.766 161.117 362.678C161.416 362.59 161.686 362.425 161.9 362.2C162.429 361.544 162.744 360.741 162.8 359.9L163.2 357.7C163.404 356.845 163.404 355.955 163.2 355.1C163.097 354.801 162.911 354.539 162.662 354.344C162.414 354.148 162.114 354.029 161.8 354C161.514 353.92 161.21 353.925 160.926 354.013C160.642 354.102 160.39 354.271 160.2 354.5C159.715 355.191 159.374 355.974 159.2 356.8L158.8 359Z" fill="#D8D8D8"/>
<path d="M151.8 350.7L153.1 351L150.9 359.9L153.8 359.6L153.5 360.8L149.3 361.3H149.1L151.8 350.7Z" fill="#D8D8D8"/>
<path d="M139.4 351.9C139.706 350.67 140.367 349.558 141.3 348.7C141.698 348.408 142.162 348.219 142.65 348.149C143.138 348.08 143.636 348.131 144.1 348.3C144.583 348.411 145.03 348.644 145.398 348.976C145.765 349.309 146.042 349.73 146.2 350.2C146.474 351.361 146.404 352.577 146 353.7L145.5 355.5C145.212 356.685 144.587 357.762 143.7 358.6C143.303 358.897 142.834 359.081 142.341 359.134C141.848 359.187 141.351 359.106 140.9 358.9C140.431 358.79 139.996 358.57 139.63 358.256C139.265 357.943 138.98 357.546 138.8 357.1C138.526 355.939 138.596 354.723 139 353.6L139.4 351.9ZM140.1 354.1C139.828 354.938 139.726 355.822 139.8 356.7C139.871 356.991 140.02 357.257 140.232 357.468C140.443 357.68 140.709 357.829 141 357.9C141.284 358.006 141.592 358.035 141.891 357.982C142.19 357.929 142.469 357.797 142.7 357.6C143.32 357.01 143.739 356.241 143.9 355.4L144.5 353.3C144.772 352.462 144.874 351.578 144.8 350.7C144.729 350.409 144.58 350.143 144.368 349.931C144.157 349.72 143.891 349.571 143.6 349.5C143.315 349.399 143.008 349.373 142.71 349.426C142.412 349.478 142.133 349.607 141.9 349.8C141.28 350.39 140.861 351.159 140.7 352L140.1 354.1Z" fill="#D8D8D8"/>
<path d="M130.4 348.7C130.774 347.505 131.465 346.433 132.4 345.6C132.815 345.341 133.287 345.187 133.775 345.152C134.263 345.117 134.752 345.202 135.2 345.4C135.678 345.532 136.113 345.786 136.464 346.136C136.814 346.487 137.068 346.922 137.2 347.4C137.391 348.581 137.253 349.792 136.8 350.9L136.2 352.6C135.857 353.781 135.158 354.829 134.2 355.6C133.785 355.859 133.313 356.013 132.825 356.048C132.337 356.082 131.848 355.997 131.4 355.8C130.929 355.687 130.496 355.452 130.145 355.119C129.793 354.785 129.537 354.365 129.4 353.9C129.209 352.719 129.347 351.507 129.8 350.4L130.4 348.7ZM131 350.9C130.609 351.671 130.469 352.545 130.6 353.4C130.665 353.704 130.81 353.986 131.021 354.215C131.232 354.444 131.502 354.611 131.8 354.7C132.076 354.821 132.378 354.866 132.677 354.831C132.976 354.796 133.26 354.682 133.5 354.5C134.1 353.918 134.547 353.197 134.8 352.4L135.6 350.3C135.993 349.493 136.132 348.587 136 347.7C135.954 347.403 135.827 347.124 135.633 346.895C135.439 346.665 135.185 346.494 134.9 346.4C134.624 346.282 134.322 346.238 134.023 346.273C133.725 346.308 133.441 346.421 133.2 346.6C132.596 347.198 132.12 347.913 131.8 348.7L131 350.9Z" fill="#D8D8D8"/>
<path d="M121.6 344.9C122.007 343.697 122.775 342.649 123.8 341.9C124.225 341.653 124.708 341.523 125.2 341.523C125.692 341.523 126.175 341.653 126.6 341.9C127.073 342.053 127.497 342.328 127.83 342.696C128.164 343.065 128.395 343.514 128.5 344C128.658 345.201 128.449 346.421 127.9 347.5L127.2 349.2C126.796 350.377 126.025 351.394 125 352.1C124.575 352.347 124.092 352.477 123.6 352.477C123.108 352.477 122.625 352.347 122.2 352.1C121.751 351.935 121.346 351.669 121.016 351.322C120.687 350.975 120.442 350.557 120.3 350.1C120.142 348.9 120.351 347.679 120.9 346.6L121.6 344.9ZM122.1 347.2C121.67 347.961 121.462 348.827 121.5 349.7C121.552 349.999 121.676 350.281 121.861 350.521C122.045 350.762 122.285 350.954 122.56 351.082C122.835 351.21 123.137 351.269 123.44 351.255C123.743 351.24 124.038 351.153 124.3 351C124.959 350.491 125.447 349.793 125.7 349L126.6 347C127.042 346.208 127.25 345.306 127.2 344.4C127.148 344.101 127.024 343.82 126.84 343.579C126.655 343.338 126.415 343.146 126.14 343.018C125.865 342.891 125.563 342.831 125.26 342.846C124.957 342.86 124.662 342.947 124.4 343.1C123.737 343.668 123.223 344.389 122.9 345.2L122.1 347.2Z" fill="#D8D8D8"/>
<path d="M113.1 340.7C113.568 339.527 114.412 338.542 115.5 337.9C115.935 337.67 116.422 337.558 116.913 337.576C117.405 337.594 117.883 337.74 118.3 338C118.756 338.193 119.158 338.494 119.472 338.877C119.786 339.261 120.001 339.715 120.1 340.2C120.229 341.391 119.947 342.591 119.3 343.6L118.5 345.2C118.002 346.325 117.207 347.293 116.2 348C115.758 348.205 115.275 348.303 114.788 348.285C114.301 348.268 113.826 348.136 113.4 347.9C112.944 347.707 112.542 347.406 112.228 347.022C111.914 346.639 111.699 346.185 111.6 345.7C111.478 344.477 111.759 343.248 112.4 342.2L113.1 340.7ZM113.4 343C112.939 343.752 112.697 344.618 112.7 345.5C112.737 345.798 112.848 346.082 113.023 346.326C113.198 346.571 113.43 346.768 113.7 346.9C113.959 347.047 114.252 347.125 114.55 347.125C114.848 347.125 115.141 347.047 115.4 346.9C116.071 346.356 116.617 345.674 117 344.9L118 342.9C118.461 342.148 118.703 341.282 118.7 340.4C118.663 340.102 118.552 339.818 118.377 339.573C118.202 339.329 117.97 339.132 117.7 339C117.441 338.853 117.148 338.775 116.85 338.775C116.552 338.775 116.259 338.853 116 339C115.302 339.516 114.751 340.206 114.4 341L113.4 343Z" fill="#D8D8D8"/>
<path d="M109 333.1L110.2 333.8L105.6 341.7L108.5 342.2L107.9 343.3L103.8 342.6L103.6 342.5L109 333.1Z" fill="#D8D8D8"/>
<path d="M101.2 328.2L102.4 329L97.4 336.6L100.3 337.3L99.6 338.3L95.5 337.4L95.3 337.3L101.2 328.2Z" fill="#D8D8D8"/>
<path d="M85.4 322.2C86.0944 321.141 87.1113 320.335 88.3 319.9C88.7885 319.78 89.2988 319.781 89.7868 319.903C90.2747 320.025 90.7255 320.264 91.1 320.6C91.5049 320.878 91.8351 321.252 92.0618 321.688C92.2885 322.124 92.4046 322.608 92.4 323.1C92.2733 324.285 91.7844 325.402 91 326.3L89.9 327.7C89.1875 328.702 88.2211 329.495 87.1 330C86.6116 330.12 86.1012 330.119 85.6133 329.997C85.1253 329.875 84.6745 329.636 84.3 329.3C83.8795 329.038 83.537 328.667 83.3084 328.227C83.0797 327.788 82.9732 327.295 83 326.8C83.1262 325.595 83.6546 324.468 84.5 323.6L85.4 322.2ZM85.3 324.5C84.7267 325.163 84.3159 325.95 84.1 326.8C84.0741 327.104 84.1246 327.409 84.2468 327.689C84.3691 327.968 84.5593 328.213 84.8 328.4C85.0351 328.589 85.3142 328.716 85.6115 328.768C85.9087 328.821 86.2143 328.797 86.5 328.7C87.2535 328.328 87.9055 327.779 88.4 327.1L89.8 325.4C90.3967 324.714 90.8096 323.888 91 323C91.0246 322.698 90.9743 322.395 90.8536 322.117C90.7329 321.839 90.5456 321.596 90.3082 321.408C90.0708 321.22 89.7907 321.094 89.4927 321.04C89.1947 320.986 88.8881 321.007 88.6 321.1C87.8465 321.471 87.1945 322.021 86.7 322.7L85.3 324.5Z" fill="#D8D8D8"/>
<path d="M82.9 314L83.9 314.9L77.8 321.8L80.6 322.9L79.8 323.8L75.9 322.3L75.7 322.2L82.9 314Z" fill="#D8D8D8"/>
<path d="M71.3 309.3C72.1359 308.368 73.2064 307.677 74.4 307.3C74.8974 307.236 75.4029 307.293 75.8732 307.467C76.3434 307.642 76.7644 307.927 77.1 308.3C77.476 308.611 77.7655 309.013 77.9407 309.469C78.1159 309.924 78.1707 310.417 78.1 310.9C77.8467 312.071 77.214 313.125 76.3 313.9L75 315.2C74.2083 316.162 73.1168 316.831 71.9 317.1C71.4027 317.164 70.8971 317.107 70.4269 316.932C69.9566 316.758 69.5356 316.473 69.2 316.1C68.824 315.789 68.5345 315.386 68.3593 314.931C68.1842 314.476 68.1293 313.983 68.2 313.5C68.4953 312.346 69.1209 311.303 70 310.5L71.3 309.3ZM71 311.6C70.3413 312.151 69.8553 312.88 69.6 313.7C69.5345 314.002 69.5459 314.317 69.6332 314.614C69.7206 314.911 69.8811 315.181 70.1 315.4C70.3042 315.639 70.5737 315.814 70.8756 315.903C71.1775 315.992 71.4987 315.991 71.8 315.9C72.62 315.645 73.349 315.159 73.9 314.5L75.5 312.9C76.1554 312.286 76.6675 311.534 77 310.7C77.0908 310.399 77.0919 310.077 77.0031 309.775C76.9143 309.474 76.7395 309.204 76.5 309C76.3011 308.783 76.0483 308.622 75.7673 308.535C75.4863 308.447 75.1871 308.435 74.9 308.5C74.0801 308.755 73.351 309.241 72.8 309.9L71 311.6Z" fill="#D8D8D8"/>
<path d="M64.9 302.3C65.7605 301.391 66.8761 300.763 68.1 300.5C68.5886 300.473 69.0768 300.558 69.5274 300.749C69.9781 300.939 70.3791 301.231 70.7 301.6C71.0618 301.94 71.3335 302.365 71.4906 302.836C71.6477 303.308 71.6853 303.811 71.6 304.3C71.2735 305.462 70.5699 306.482 69.6 307.2L68.2 308.4C67.3257 309.291 66.2159 309.916 65 310.2C64.5115 310.227 64.0232 310.142 63.5726 309.951C63.122 309.761 62.7209 309.469 62.4 309.1C62.0382 308.76 61.7665 308.335 61.6095 307.863C61.4524 307.392 61.4148 306.889 61.5 306.4C61.8266 305.238 62.5301 304.218 63.5 303.5L64.9 302.3ZM64.4 304.5C63.6971 305.053 63.1465 305.776 62.8 306.6C62.7092 306.901 62.7082 307.223 62.797 307.524C62.8858 307.826 63.0606 308.096 63.3 308.3C63.4926 308.529 63.741 308.705 64.0213 308.81C64.3016 308.915 64.6042 308.946 64.9 308.9C65.7379 308.675 66.4986 308.225 67.1 307.6L68.7 306.1C69.4029 305.547 69.9535 304.824 70.3 304C70.4092 303.709 70.4294 303.392 70.3582 303.089C70.287 302.787 70.1275 302.512 69.9 302.3C69.7075 302.071 69.459 301.895 69.1787 301.79C68.8985 301.685 68.5958 301.654 68.3 301.7C67.4621 301.925 66.7015 302.375 66.1 303L64.4 304.5Z" fill="#D8D8D8"/>
<path d="M58.8 294.8C59.7271 293.966 60.8711 293.412 62.1 293.2C62.582 293.229 63.0526 293.358 63.4813 293.58C63.9101 293.802 64.2875 294.112 64.5891 294.489C64.8907 294.866 65.1098 295.302 65.2323 295.769C65.3548 296.236 65.3778 296.724 65.3 297.2C64.8719 298.309 64.1451 299.279 63.2 300L61.8 301.1C60.8844 301.951 59.7351 302.508 58.5 302.7C58.018 302.672 57.5474 302.542 57.1187 302.32C56.6899 302.098 56.3125 301.789 56.0109 301.411C55.7093 301.034 55.4901 300.598 55.3677 300.131C55.2452 299.664 55.2222 299.177 55.3 298.7C55.7245 297.561 56.4935 296.582 57.5 295.9L58.8 294.8ZM58.2 297.1C57.4613 297.599 56.8734 298.291 56.5 299.1C56.4068 299.388 56.3862 299.695 56.44 299.993C56.4937 300.291 56.6202 300.571 56.8081 300.808C56.9961 301.046 57.2397 301.233 57.5174 301.354C57.795 301.474 58.0982 301.525 58.4 301.5C59.1979 301.28 59.9452 300.907 60.6 300.4L62.3 299C63.0387 298.501 63.6266 297.81 64 297C64.1012 296.715 64.1268 296.409 64.0742 296.111C64.0216 295.813 63.8927 295.533 63.7 295.3C63.5263 295.045 63.284 294.843 63.0009 294.72C62.7178 294.596 62.4055 294.554 62.1 294.6C61.2944 294.8 60.5431 295.176 59.9 295.7L58.2 297.1Z" fill="#D8D8D8"/>
<path d="M58.3 286.3L59.1 287.4L51.6 292.7L54 294.4L53 295.1L49.5 292.8L49.4 292.6L58.3 286.3Z" fill="#D8D8D8"/>
<path d="M48.1 279.1C49.0985 278.318 50.3316 277.895 51.6 277.9C52.0912 277.938 52.566 278.095 52.9838 278.356C53.4017 278.617 53.7503 278.975 54 279.4C54.2993 279.794 54.4931 280.258 54.5631 280.748C54.633 281.238 54.5769 281.738 54.4 282.2C53.8315 283.255 53.006 284.149 52 284.8L50.5 285.8C49.514 286.535 48.3286 286.953 47.1 287C46.6 286.949 46.1201 286.776 45.7018 286.497C45.2836 286.218 44.9397 285.842 44.7 285.4C44.4007 285.006 44.2069 284.542 44.1369 284.052C44.0669 283.562 44.123 283.062 44.3 282.6C44.8602 281.532 45.7322 280.66 46.8 280.1L48.1 279.1ZM47.2 281.3C46.4103 281.71 45.7518 282.334 45.3 283.1C45.1601 283.371 45.1044 283.678 45.14 283.981C45.1756 284.283 45.301 284.569 45.5 284.8C45.6499 285.068 45.8671 285.292 46.1302 285.449C46.3934 285.607 46.6932 285.694 47 285.7C47.8355 285.62 48.632 285.308 49.3 284.8L51.2 283.6C51.9897 283.19 52.6481 282.566 53.1 281.8C53.2319 281.515 53.2918 281.201 53.2744 280.887C53.2569 280.574 53.1627 280.269 53 280C52.8594 279.724 52.6443 279.494 52.3791 279.335C52.1138 279.176 51.8092 279.094 51.5 279.1C50.6367 279.192 49.8109 279.502 49.1 280L47.2 281.3Z" fill="#D8D8D8"/>
<path d="M48.5 270.6L49.2 271.8L41.2 276.2L43.4 278.1L42.3 278.7L39.1 276L39 275.8L48.5 270.6Z" fill="#D8D8D8"/>
<path d="M37.3 257.9C38.3937 257.286 39.656 257.041 40.9 257.2C41.3857 257.305 41.8352 257.536 42.2037 257.87C42.5722 258.203 42.8468 258.627 43 259.1C43.2468 259.525 43.3767 260.008 43.3767 260.5C43.3767 260.992 43.2468 261.475 43 261.9C42.2837 262.874 41.3157 263.635 40.2 264.1L38.5 264.9C37.3917 265.473 36.1423 265.716 34.9 265.6C34.4206 265.481 33.9781 265.245 33.6117 264.914C33.2454 264.582 32.9665 264.165 32.8 263.7C32.5533 263.275 32.4233 262.792 32.4233 262.3C32.4233 261.808 32.5533 261.325 32.8 260.9C33.5164 259.926 34.4843 259.166 35.6 258.7L37.3 257.9ZM36.2 260C35.3738 260.294 34.6463 260.814 34.1 261.5C33.9363 261.75 33.8409 262.039 33.8234 262.337C33.8058 262.635 33.8667 262.933 34 263.2C34.1083 263.477 34.2839 263.723 34.5108 263.915C34.7378 264.107 35.009 264.239 35.3 264.3C36.1295 264.34 36.9556 264.168 37.7 263.8L39.7 262.9C40.5379 262.574 41.2903 262.061 41.9 261.4C42.0895 261.142 42.1998 260.835 42.2176 260.515C42.2353 260.195 42.1597 259.878 42 259.6C41.8917 259.323 41.7162 259.078 41.4892 258.886C41.2622 258.694 40.991 258.561 40.7 258.5C39.8388 258.466 38.982 258.638 38.2 259L36.2 260Z" fill="#D8D8D8"/>
<path d="M38.9 249.5L39.4 250.8L30.9 254.1L32.8 256.3L31.6 256.7L28.8 253.6L28.7 253.4L38.9 249.5Z" fill="#D8D8D8"/>
<path d="M30.9 240C32.0733 239.523 33.3651 239.418 34.6 239.7C35.0607 239.874 35.4734 240.155 35.8038 240.52C36.1342 240.886 36.3729 241.324 36.5 241.8C36.6569 242.26 36.7113 242.749 36.6595 243.233C36.6077 243.717 36.4509 244.183 36.2 244.6C35.4246 245.533 34.3748 246.198 33.2 246.5L31.4 247.1C30.2617 247.577 29.0016 247.682 27.8 247.4C27.3392 247.226 26.9266 246.945 26.5962 246.58C26.2658 246.214 26.0271 245.776 25.9 245.3C25.717 244.844 25.6487 244.351 25.701 243.863C25.7533 243.374 25.9247 242.906 26.2 242.5C26.9587 241.568 28.0203 240.931 29.2 240.7L30.9 240ZM29.5 241.9C28.6631 242.148 27.8821 242.555 27.2 243.1C26.9989 243.329 26.8645 243.608 26.8116 243.908C26.7587 244.208 26.7893 244.516 26.9 244.8C26.9541 245.098 27.098 245.373 27.3124 245.588C27.5269 245.802 27.8016 245.946 28.1 246C28.9452 246.125 29.8083 246.021 30.6 245.7L32.7 245C33.5634 244.766 34.3543 244.319 35 243.7C35.1927 243.467 35.3216 243.187 35.3742 242.89C35.4268 242.592 35.4012 242.285 35.3 242C35.2294 241.709 35.0801 241.443 34.8685 241.231C34.6568 241.02 34.3909 240.871 34.1 240.8C33.2644 240.631 32.398 240.7 31.6 241L29.5 241.9Z" fill="#D8D8D8"/>
<path d="M33.4 231.8L33.7 233.1L24.8 235.4L26.5 237.8L25.3 238.1L22.9 234.7V234.5L33.4 231.8Z" fill="#D8D8D8"/>
<path d="M26.4 221.5C27.616 221.166 28.9037 221.201 30.1 221.6C30.5503 221.802 30.9371 222.123 31.2189 222.528C31.5008 222.933 31.6671 223.407 31.7 223.9C31.8166 224.366 31.8231 224.852 31.7189 225.321C31.6148 225.789 31.4029 226.227 31.1 226.6C30.222 227.43 29.1 227.956 27.9 228.1L26.1 228.5C24.9181 228.836 23.6614 228.801 22.5 228.4C22.0709 228.17 21.7024 227.841 21.4243 227.442C21.1463 227.042 20.9666 226.582 20.9 226.1C20.776 225.635 20.7658 225.147 20.8703 224.677C20.9747 224.207 21.1907 223.769 21.5 223.4C22.378 222.569 23.5 222.044 24.7 221.9L26.4 221.5ZM24.9 223.2C24.0305 223.333 23.2066 223.676 22.5 224.2C22.2693 224.411 22.1008 224.68 22.0126 224.98C21.9245 225.28 21.9201 225.598 22 225.9C22.0433 226.21 22.1679 226.502 22.3611 226.748C22.5544 226.994 22.8093 227.185 23.1 227.3C23.9137 227.556 24.7863 227.556 25.6 227.3L27.7 226.9C28.5752 226.788 29.4041 226.442 30.1 225.9C30.3083 225.674 30.4618 225.403 30.5485 225.108C30.6352 224.814 30.6529 224.503 30.6 224.2C30.57 223.897 30.4488 223.611 30.2524 223.379C30.0559 223.147 29.7935 222.98 29.5 222.9C28.6792 222.695 27.8208 222.695 27 222.9L24.9 223.2Z" fill="#D8D8D8"/>
<path d="M25 212C26.2378 211.765 27.5161 211.869 28.7 212.3C29.1536 212.515 29.536 212.855 29.8019 213.28C30.0678 213.706 30.206 214.198 30.2 214.7C30.3079 215.181 30.2911 215.682 30.1511 216.154C30.0111 216.627 29.7525 217.056 29.4 217.4C28.4699 218.18 27.3118 218.636 26.1 218.7L24.3 219C23.0957 219.241 21.8478 219.137 20.7 218.7C20.2718 218.454 19.9108 218.107 19.6492 217.688C19.3875 217.269 19.2332 216.793 19.2 216.3C19.084 215.819 19.0969 215.317 19.2374 214.843C19.3778 214.369 19.6409 213.94 20 213.6C20.9536 212.861 22.0986 212.41 23.3 212.3L25 212ZM23.4 213.6C22.5184 213.682 21.6653 213.955 20.9 214.4C20.6571 214.581 20.4714 214.828 20.365 215.112C20.2586 215.396 20.2361 215.704 20.3 216C20.3084 216.306 20.4081 216.603 20.5863 216.853C20.7644 217.102 21.0129 217.293 21.3 217.4C22.1114 217.645 22.9716 217.679 23.8 217.5L26 217.2C26.9047 217.157 27.7756 216.844 28.5 216.3C28.7292 216.108 28.9048 215.859 29.0099 215.579C29.115 215.299 29.1461 214.996 29.1 214.7C29.0771 214.398 28.9718 214.107 28.7955 213.86C28.6192 213.614 28.3787 213.42 28.1 213.3C27.2893 213.062 26.4382 212.994 25.6 213.1L23.4 213.6Z" fill="#D8D8D8"/>
<path d="M28.9 204.4L29 205.8L19.9 206.6L21.1 209.3L19.9 209.4L18.1 205.6V205.4L28.9 204.4Z" fill="#D8D8D8"/>
<path d="M23.8 193C25.0409 192.909 26.2836 193.151 27.4 193.7C27.8006 193.976 28.1221 194.352 28.3326 194.79C28.5431 195.229 28.6353 195.715 28.6 196.2C28.6441 196.69 28.5668 197.184 28.375 197.638C28.1831 198.091 27.8826 198.49 27.5 198.8C26.4954 199.463 25.3012 199.78 24.1 199.7L22.3 199.8C21.0591 199.891 19.8165 199.649 18.7 199.1C18.2891 198.81 17.9619 198.418 17.7512 197.961C17.5405 197.505 17.4539 197.001 17.5 196.5C17.4539 196.019 17.5202 195.534 17.6937 195.082C17.8673 194.631 18.1433 194.226 18.5 193.9C19.4982 193.223 20.6974 192.905 21.9 193H23.8ZM22 194.4C21.1234 194.32 20.2446 194.53 19.5 195C19.2481 195.183 19.0438 195.424 18.9046 195.702C18.7654 195.981 18.6952 196.289 18.7 196.6C18.6847 196.899 18.751 197.197 18.892 197.461C19.0329 197.725 19.2431 197.946 19.5 198.1C20.2899 198.43 21.1468 198.567 22 198.5L24.2 198.4C25.1072 198.465 26.013 198.256 26.8 197.8C27.052 197.617 27.2562 197.376 27.3954 197.098C27.5347 196.819 27.6049 196.511 27.6 196.2C27.6154 195.901 27.549 195.603 27.4081 195.339C27.2671 195.075 27.0569 194.854 26.8 194.7C26.0248 194.322 25.1546 194.183 24.3 194.3L22 194.4Z" fill="#D8D8D8"/>
<path d="M24.3 178.7C25.5415 178.668 26.7631 179.017 27.8 179.7C28.1645 180.02 28.4459 180.424 28.6201 180.877C28.7943 181.33 28.856 181.818 28.8 182.3C28.7954 182.79 28.6753 183.271 28.4494 183.706C28.2235 184.14 27.8982 184.515 27.5 184.8C26.4168 185.342 25.2083 185.584 24 185.5L22.2 185.4C20.9585 185.433 19.7369 185.084 18.7 184.4C18.3576 184.059 18.0915 183.65 17.9193 183.199C17.747 182.747 17.6727 182.265 17.701 181.782C17.7294 181.3 17.8599 180.83 18.0838 180.402C18.3077 179.974 18.62 179.598 19 179.3C20.0755 178.74 21.2993 178.53 22.5 178.7H24.3ZM22.4 180C21.5219 179.912 20.6351 180.014 19.8 180.3C19.2 180.5 19 181.1 18.9 181.8C18.8768 182.104 18.9285 182.408 19.0506 182.687C19.1726 182.966 19.3613 183.211 19.6 183.4C20.3119 183.859 21.1557 184.07 22 184L24.2 184.1C25.0871 184.215 25.9886 184.077 26.8 183.7C27.0836 183.57 27.3213 183.357 27.4818 183.089C27.6424 182.822 27.7185 182.512 27.7 182.2C27.7232 181.896 27.6715 181.592 27.5495 181.313C27.4274 181.034 27.2388 180.789 27 180.6C26.2809 180.148 25.4496 179.905 24.6 179.9L22.4 180Z" fill="#D8D8D8"/>
<path d="M29.7 172L29.5 173.4L20.4 172.3L21.1 175.2L19.9 175.1L18.9 171V170.8L29.7 172Z" fill="#D8D8D8"/>
<path d="M26.9 159.8C28.135 159.966 29.3062 160.448 30.3 161.2C30.6442 161.548 30.8902 161.982 31.0131 162.456C31.136 162.93 31.1315 163.428 31 163.9C30.953 164.388 30.7811 164.856 30.5009 165.259C30.2207 165.662 29.8416 165.986 29.4 166.2C28.2844 166.625 27.0717 166.729 25.9 166.5L24.1 166.2C22.8649 166.034 21.6937 165.552 20.7 164.8C20.3558 164.451 20.1098 164.018 19.9869 163.544C19.8639 163.07 19.8685 162.572 20 162.1C20.0489 161.625 20.2105 161.168 20.4714 160.768C20.7323 160.368 21.0849 160.036 21.5 159.8C22.6149 159.359 23.8421 159.289 25 159.6L26.9 159.8ZM24.9 160.9C24.0433 160.668 23.1364 160.703 22.3 161C22.0213 161.12 21.7808 161.313 21.6045 161.56C21.4282 161.807 21.3229 162.097 21.3 162.4C21.2199 162.686 21.2245 162.99 21.3132 163.274C21.4019 163.558 21.571 163.81 21.8 164C22.4793 164.487 23.2701 164.797 24.1 164.9L26.3 165.3C27.1567 165.531 28.0636 165.496 28.9 165.2C29.1987 165.097 29.4614 164.91 29.6565 164.662C29.8516 164.414 29.9709 164.114 30 163.8C30.0572 163.513 30.0414 163.216 29.954 162.936C29.8667 162.656 29.7105 162.403 29.5 162.2C28.7918 161.696 27.9646 161.386 27.1 161.3L24.9 160.9Z" fill="#D8D8D8"/>
<path d="M33 153.8L32.7 155.2L23.8 153.1L24.2 156L23 155.7L22.5 151.5V151.3L33 153.8Z" fill="#D8D8D8"/>
<path d="M31.6 141.4C32.8191 141.675 33.9313 142.301 34.8 143.2C35.0918 143.598 35.2809 144.061 35.3507 144.55C35.4205 145.038 35.3687 145.536 35.2 146C35.1084 146.476 34.8942 146.92 34.5785 147.289C34.2629 147.657 33.8567 147.936 33.4 148.1C32.2493 148.415 31.0308 148.38 29.9 148L28.1 147.5C26.8655 147.265 25.7418 146.633 24.9 145.7C24.6082 145.302 24.4191 144.838 24.3493 144.35C24.2795 143.861 24.3313 143.363 24.5 142.9C24.5916 142.423 24.8058 141.979 25.1215 141.611C25.4371 141.243 25.8433 140.963 26.3 140.8C27.4565 140.476 28.6879 140.546 29.8 141L31.6 141.4ZM29.5 142.1C28.6673 141.799 27.7688 141.73 26.9 141.9C26.603 141.991 26.3355 142.16 26.1248 142.388C25.914 142.616 25.7674 142.896 25.7 143.2C25.5937 143.484 25.5654 143.792 25.6182 144.091C25.6709 144.39 25.8028 144.669 26 144.9C26.5901 145.52 27.3594 145.939 28.2 146.1L30.3 146.7C31.1327 147 32.0312 147.069 32.9 146.9C33.1833 146.814 33.441 146.659 33.6503 146.45C33.8596 146.241 34.0141 145.983 34.1 145.7C34.2012 145.415 34.2268 145.108 34.1742 144.81C34.1216 144.512 33.9927 144.233 33.8 144C33.1938 143.401 32.4314 142.985 31.6 142.8L29.5 142.1Z" fill="#D8D8D8"/>
<path d="M38.3 136L37.8 137.3L29.2 134.2V137.1L28 136.7L27.9 132.5L28 132.3L38.3 136Z" fill="#D8D8D8"/>
<path d="M38.4 123.5C39.6211 123.871 40.6793 124.647 41.4 125.7C41.6392 126.125 41.7731 126.6 41.7905 127.088C41.8079 127.575 41.7083 128.059 41.5 128.5C41.3514 128.958 41.0906 129.372 40.7413 129.704C40.392 130.036 39.9653 130.275 39.5 130.4C38.3096 130.549 37.101 130.376 36 129.9L34.3 129.2C33.1341 128.827 32.118 128.091 31.4 127.1C31.1608 126.675 31.0268 126.199 31.0095 125.712C30.9921 125.225 31.0917 124.741 31.3 124.3C31.4486 123.841 31.7094 123.428 32.0587 123.096C32.408 122.764 32.8347 122.525 33.3 122.4C34.5005 122.242 35.7206 122.451 36.8 123L38.4 123.5ZM36.1 124.1C35.318 123.737 34.4612 123.566 33.6 123.6C33.303 123.645 33.0243 123.772 32.7949 123.967C32.5655 124.161 32.3942 124.414 32.3 124.7C32.1647 124.967 32.1026 125.265 32.1202 125.563C32.1378 125.862 32.2343 126.151 32.4 126.4C32.9306 127.081 33.6672 127.572 34.5 127.8L36.5 128.6C37.3142 128.972 38.2058 129.143 39.1 129.1C39.4045 129.042 39.6907 128.912 39.9344 128.721C40.1781 128.529 40.3721 128.282 40.5 128C40.6333 127.732 40.6942 127.435 40.6767 127.136C40.6591 126.838 40.5637 126.55 40.4 126.3C39.8482 125.642 39.1194 125.156 38.3 124.9L36.1 124.1Z" fill="#D8D8D8"/>
<path d="M42.5 114.9C43.6686 115.37 44.6758 116.169 45.4 117.2C45.6297 117.634 45.7414 118.122 45.7239 118.613C45.7063 119.105 45.5602 119.583 45.3 120C45.107 120.456 44.8058 120.858 44.4225 121.172C44.0392 121.485 43.5853 121.701 43.1 121.8C41.8895 121.923 40.6702 121.679 39.6 121.1L37.9 120.3C36.7569 119.832 35.7812 119.03 35.1 118C34.8703 117.565 34.7586 117.078 34.7761 116.586C34.7937 116.095 34.9398 115.617 35.2 115.2C35.3701 114.747 35.6517 114.345 36.0189 114.03C36.386 113.715 36.8267 113.499 37.3 113.4C38.5227 113.278 39.7516 113.559 40.8 114.2L42.5 114.9ZM40.2 115.3C39.4277 114.887 38.5744 114.648 37.7 114.6C37.396 114.617 37.103 114.72 36.8552 114.897C36.6074 115.074 36.4149 115.318 36.3 115.6C36.1527 115.859 36.0753 116.152 36.0753 116.45C36.0753 116.748 36.1527 117.041 36.3 117.3C36.8258 117.964 37.5149 118.481 38.3 118.8L40.3 119.8C41.0723 120.213 41.9256 120.452 42.8 120.5C43.1025 120.477 43.3929 120.372 43.6397 120.195C43.8865 120.019 44.0803 119.778 44.2 119.5C44.3473 119.241 44.4247 118.948 44.4247 118.65C44.4247 118.352 44.3473 118.059 44.2 117.8C43.6563 117.129 42.9741 116.583 42.2 116.2L40.2 115.3Z" fill="#D8D8D8"/>
<path d="M49.6 102.5C50.7482 103.065 51.6919 103.974 52.3 105.1C52.4958 105.553 52.5711 106.049 52.5185 106.54C52.4659 107.03 52.2873 107.499 52 107.9C51.7758 108.334 51.4491 108.706 51.0483 108.985C50.6474 109.264 50.1846 109.441 49.7 109.5C48.4953 109.492 47.3171 109.146 46.3 108.5L44.7 107.6C43.6065 107.04 42.7021 106.171 42.1 105.1C41.9042 104.647 41.8289 104.151 41.8815 103.661C41.9341 103.17 42.1127 102.701 42.4 102.3C42.6242 101.866 42.9509 101.494 43.3517 101.215C43.7526 100.936 44.2154 100.76 44.7 100.7C45.9188 100.713 47.1047 101.097 48.1 101.8L49.6 102.5ZM47.3 102.8C46.589 102.302 45.7633 101.992 44.9 101.9C44.5932 101.906 44.2934 101.993 44.0303 102.151C43.7672 102.309 43.5499 102.532 43.4 102.8C43.2155 103.041 43.1074 103.332 43.0896 103.635C43.0718 103.938 43.145 104.239 43.3 104.5C43.7753 105.186 44.3883 105.765 45.1 106.2L47 107.3C47.7387 107.817 48.6016 108.127 49.5 108.2C49.8116 108.219 50.1215 108.143 50.3891 107.982C50.6567 107.821 50.8697 107.584 51 107.3C51.161 107.049 51.2547 106.761 51.2722 106.463C51.2897 106.166 51.2304 105.868 51.1 105.6C50.6387 104.867 49.9803 104.277 49.2 103.9L47.3 102.8Z" fill="#D8D8D8"/>
<path d="M57.4 98.9999L56.6 100.1L49 94.9999L48.3 97.8999L47.3 97.1999L48.3 93.0999L48.4 92.8999L57.4 98.9999Z" fill="#D8D8D8"/>
<path d="M62.9 91.5999L62.1 92.6999L54.8 87.0999L53.9 89.8999L52.9 89.0999L54.1 85.0999L54.2 84.8999L62.9 91.5999Z" fill="#D8D8D8"/>
<path d="M66.8 79.7002C67.7927 80.4814 68.5534 81.5186 69 82.7002C69.1051 83.1812 69.0868 83.681 68.947 84.153C68.8071 84.6251 68.5502 85.0541 68.2 85.4002C67.9186 85.7952 67.5417 86.1124 67.1045 86.3222C66.6674 86.532 66.1841 86.6277 65.7 86.6002C64.5024 86.3835 63.3919 85.8283 62.5 85.0002L61.1 83.8002C60.1146 83.0536 59.3535 82.0504 58.9 80.9002C58.7949 80.4192 58.8131 79.9195 58.953 79.4474C59.0929 78.9753 59.3498 78.5463 59.7 78.2002C59.9814 77.8053 60.3583 77.4881 60.7954 77.2782C61.2326 77.0684 61.7158 76.9727 62.2 77.0002C63.3976 77.2169 64.5081 77.7721 65.4 78.6002L66.8 79.7002ZM64.4 79.5002C63.7985 78.8749 63.0379 78.4254 62.2 78.2002C61.8938 78.1412 61.5769 78.1765 61.2912 78.3015C61.0055 78.4265 60.7645 78.6353 60.6 78.9002C60.3725 79.1121 60.213 79.3868 60.1418 79.6895C60.0706 79.9921 60.0908 80.3091 60.2 80.6002C60.5464 81.3693 61.0586 82.0523 61.7 82.6002L63.4 84.0002C64.0212 84.6515 64.8216 85.1039 65.7 85.3002C65.996 85.3547 66.3013 85.3276 66.5831 85.2219C66.865 85.1162 67.1128 84.9359 67.3 84.7002C67.5063 84.4746 67.6514 84.1999 67.7214 83.9023C67.7914 83.6047 67.784 83.2942 67.7 83.0002C67.3711 82.1929 66.8154 81.4983 66.1 81.0002L64.4 79.5002Z" fill="#D8D8D8"/>
<path d="M75.1 77.6L74.1 78.6L67.5 72.3L66.3 75L65.4 74.1L67.1 70.2L67.3 70L75.1 77.6Z" fill="#D8D8D8"/>
<path d="M80.3 66.2001C81.2279 67.046 81.8589 68.1679 82.1 69.4001C82.1505 69.891 82.0761 70.3868 81.8838 70.8413C81.6915 71.2958 81.3875 71.6944 81 72.0001C80.6677 72.3727 80.2436 72.6519 79.7699 72.8098C79.2962 72.9677 78.7895 72.9988 78.3 72.9001C77.1312 72.584 76.0854 71.9216 75.3 71.0001L74.1 69.7001C73.1721 68.8542 72.5411 67.7323 72.3 66.5001C72.2408 66.0084 72.3111 65.5098 72.5041 65.0537C72.697 64.5976 73.0059 64.1999 73.4 63.9001C73.7168 63.5358 74.1236 63.2609 74.5799 63.103C75.0361 62.9451 75.5258 62.9096 76 63.0001C77.1583 63.3398 78.1978 63.9981 79 64.9001L80.3 66.2001ZM78 65.8001C77.4483 65.1196 76.7226 64.6013 75.9 64.3001C75.5974 64.2345 75.2833 64.2459 74.9862 64.3333C74.6892 64.4207 74.4189 64.5812 74.2 64.8001C73.9708 64.9926 73.7952 65.2411 73.6901 65.5214C73.585 65.8016 73.5539 66.1043 73.6 66.4001C73.8509 67.1978 74.2979 67.9198 74.9 68.5001L76.4 70.1001C76.9529 70.803 77.6756 71.3536 78.5 71.7001C78.7939 71.7841 79.1045 71.7915 79.4021 71.7215C79.6997 71.6515 79.9744 71.5064 80.2 71.3001C80.4292 71.1075 80.6048 70.8591 80.7099 70.5788C80.815 70.2985 80.8461 69.9959 80.8 69.7001C80.5329 68.8805 80.0891 68.1294 79.5 67.5001L78 65.8001Z" fill="#D8D8D8"/>
<path d="M87.6 60.0999C88.474 61.0123 89.0645 62.1586 89.3 63.3999C89.3326 63.899 89.2398 64.3982 89.0303 64.8523C88.8207 65.3064 88.5009 65.7009 88.1 65.9999C87.7404 66.3297 87.3103 66.5732 86.8424 66.7118C86.3746 66.8504 85.8813 66.8805 85.4 66.7999C84.2509 66.4467 83.2608 65.7041 82.6 64.6999L81.4 63.2999C80.5108 62.4111 79.9471 61.2485 79.8 59.9999C79.7627 59.5145 79.854 59.0278 80.0647 58.5889C80.2753 58.15 80.5979 57.7744 81 57.4999C81.3597 57.1701 81.7898 56.9266 82.2576 56.788C82.7255 56.6494 83.2188 56.6193 83.7 56.6999C84.8354 57.0796 85.8176 57.8162 86.5 58.7999L87.6 60.0999ZM85.3 59.4999C84.7712 58.7886 84.0872 58.2072 83.3 57.7999C83.0089 57.6908 82.6919 57.6705 82.3893 57.7417C82.0866 57.8129 81.8119 57.9724 81.6 58.1999C81.3592 58.3871 81.1691 58.6316 81.0468 58.911C80.9246 59.1904 80.8741 59.496 80.9 59.7999C81.1216 60.6173 81.5327 61.371 82.1 61.9999L83.5 63.6999C83.9989 64.4386 84.6906 65.0265 85.5 65.3999C85.7851 65.5011 86.0916 65.5267 86.3896 65.4741C86.6875 65.4215 86.9668 65.2926 87.2 65.0999C87.4301 64.9035 87.6126 64.6575 87.7339 64.3803C87.8551 64.1032 87.9119 63.8022 87.9 63.4999C87.6997 62.6741 87.2858 61.9154 86.7 61.2999L85.3 59.4999Z" fill="#D8D8D8"/>
<path d="M96.1 59.4002L95 60.2002L89.6 52.8002L88 55.3002L87.3 54.3002L89.6 50.8002L89.8 50.7002L96.1 59.4002Z" fill="#D8D8D8"/>
<path d="M107.2 46.7002C107.895 47.7441 108.308 48.9497 108.4 50.2002C108.351 50.6881 108.179 51.1554 107.899 51.5579C107.619 51.9604 107.24 52.2847 106.8 52.5002C106.395 52.777 105.932 52.957 105.447 53.0264C104.961 53.0957 104.466 53.0525 104 52.9002C102.932 52.3399 102.06 51.468 101.5 50.4002L100.5 48.8002C99.7713 47.7798 99.3861 46.554 99.4 45.3002C99.4489 44.8123 99.6215 44.345 99.9015 43.9425C100.181 43.54 100.56 43.2157 101 43.0002C101.405 42.7234 101.868 42.5434 102.353 42.4741C102.839 42.4047 103.334 42.4479 103.8 42.6002C104.89 43.13 105.77 44.0104 106.3 45.1002L107.2 46.7002ZM105.1 45.8002C104.692 45.0412 104.109 44.3899 103.4 43.9002C103.132 43.7688 102.835 43.709 102.537 43.7265C102.239 43.7441 101.951 43.8383 101.7 44.0002C101.432 44.1501 101.208 44.3674 101.05 44.6305C100.893 44.8936 100.806 45.1934 100.8 45.5002C100.883 46.3189 101.157 47.1067 101.6 47.8002L102.8 49.7002C103.21 50.4899 103.834 51.1484 104.6 51.6002C104.879 51.7563 105.196 51.8298 105.515 51.8121C105.833 51.7944 106.141 51.6862 106.4 51.5002C106.684 51.3699 106.921 51.1569 107.082 50.8893C107.242 50.6217 107.318 50.3118 107.3 50.0002C107.207 49.1524 106.934 48.3343 106.5 47.6002L105.1 45.8002Z" fill="#D8D8D8"/>
<path d="M115.7 47.3002L114.5 48.0002L110.2 39.9002L108.2 42.1002L107.6 41.0002L110.4 37.8002L110.6 37.7002L115.7 47.3002Z" fill="#D8D8D8"/>
<path d="M124.1 43.1999L122.9 43.7999L119 35.4999L116.9 37.5999L116.4 36.4999L119.3 33.4999L119.5 33.3999L124.1 43.1999Z" fill="#D8D8D8"/>
<path d="M133 34.4002C133.544 35.5169 133.752 36.7675 133.6 38.0002C133.468 38.4779 133.214 38.9132 132.863 39.2637C132.513 39.6142 132.078 39.868 131.6 40.0002C131.16 40.2127 130.676 40.3146 130.188 40.2972C129.7 40.2798 129.223 40.1435 128.8 39.9002C127.831 39.1599 127.101 38.1516 126.7 37.0002L126 35.3002C125.429 34.192 125.252 32.9222 125.5 31.7002C125.632 31.2225 125.886 30.7872 126.237 30.4367C126.587 30.0863 127.022 29.8325 127.5 29.7002C127.94 29.4878 128.424 29.3859 128.912 29.4033C129.4 29.4207 129.877 29.557 130.3 29.8002C131.269 30.5406 131.999 31.5489 132.4 32.7002L133 34.4002ZM131.1 33.2002C130.841 32.3539 130.357 31.5936 129.7 31.0002C129.459 30.8214 129.175 30.7088 128.877 30.6737C128.578 30.6386 128.276 30.6823 128 30.8002C127.713 30.8914 127.457 31.0617 127.263 31.2917C127.068 31.5217 126.942 31.802 126.9 32.1002C126.821 32.954 126.958 33.8139 127.3 34.6002L128.1 36.6002C128.359 37.4466 128.843 38.2068 129.5 38.8002C129.73 39.0017 130.015 39.1287 130.319 39.1644C130.622 39.2001 130.93 39.1429 131.2 39.0002C131.485 38.906 131.739 38.7347 131.933 38.5053C132.127 38.2759 132.254 37.9973 132.3 37.7002C132.379 36.8465 132.242 35.9866 131.9 35.2002L131.1 33.2002Z" fill="#D8D8D8"/>
<path d="M141.4 36.4002L140.1 36.9002L137.1 28.3002L134.8 30.2002L134.4 29.0002L137.6 26.3002L137.8 26.2002L141.4 36.4002Z" fill="#D8D8D8"/>
<path d="M150.3 33.7998L149 34.1998L146.6 25.3998L144.2 27.0998L143.9 25.8998L147.3 23.3998L147.5 23.2998L150.3 33.7998Z" fill="#D8D8D8"/>
<path d="M159.3 31.6L157.9 31.9L156 22.9L153.5 24.5L153.2 23.3L156.7 21H156.9L159.3 31.6Z" fill="#D8D8D8"/>
<path d="M169.9 25.0998C170.185 26.3345 170.08 27.6271 169.6 28.7998C169.374 29.2446 169.032 29.6193 168.609 29.8836C168.186 30.148 167.699 30.2919 167.2 30.2998C166.726 30.4006 166.236 30.3898 165.767 30.2683C165.299 30.1468 164.865 29.9179 164.5 29.5998C163.743 28.6852 163.258 27.5765 163.1 26.3998L162.8 24.5998C162.559 23.3955 162.663 22.1476 163.1 20.9998C163.314 20.5462 163.655 20.1637 164.08 19.8978C164.505 19.6319 164.998 19.4938 165.5 19.4998C165.973 19.3891 166.466 19.395 166.936 19.5169C167.407 19.6388 167.84 19.8732 168.2 20.1998C168.953 21.1548 169.437 22.2944 169.6 23.4998L169.9 25.0998ZM168.3 23.4998C168.214 22.6352 167.903 21.808 167.4 21.0998C167.204 20.8491 166.935 20.6661 166.63 20.5764C166.325 20.4867 166 20.4949 165.7 20.5998C165.399 20.6279 165.111 20.7352 164.865 20.9109C164.619 21.0865 164.424 21.3242 164.3 21.5998C164.055 22.4112 164.021 23.2714 164.2 24.0998L164.5 26.2998C164.609 27.1899 164.917 28.0442 165.4 28.7998C165.598 29.0245 165.848 29.1969 166.128 29.3019C166.408 29.4069 166.71 29.4411 167.007 29.4015C167.304 29.362 167.586 29.2499 167.829 29.0751C168.072 28.9004 168.268 28.6684 168.4 28.3998C168.645 27.5884 168.679 26.7281 168.5 25.8998L168.3 23.4998Z" fill="#D8D8D8"/>
<path d="M184.2 23.7998C184.368 25.0329 184.159 26.288 183.6 27.3998C183.333 27.8232 182.965 28.1731 182.528 28.4176C182.091 28.6621 181.6 28.7935 181.1 28.7998C180.617 28.8819 180.12 28.8324 179.663 28.6564C179.205 28.4805 178.804 28.1846 178.5 27.7998C177.777 26.8144 177.391 25.622 177.4 24.3998L177.3 22.5998C177.132 21.3668 177.341 20.1117 177.9 18.9998C178.178 18.595 178.552 18.2647 178.988 18.0381C179.424 17.8114 179.909 17.6952 180.4 17.6998C180.874 17.6144 181.362 17.6523 181.818 17.8099C182.273 17.9675 182.68 18.2395 183 18.5998C183.723 19.5853 184.109 20.7777 184.1 21.9998L184.2 23.7998ZM182.7 21.9998C182.708 21.117 182.465 20.25 182 19.4998C181.811 19.2611 181.566 19.0724 181.287 18.9504C181.008 18.8283 180.704 18.7766 180.4 18.7998C180.092 18.802 179.791 18.8866 179.527 19.0449C179.263 19.2032 179.047 19.4294 178.9 19.6998C178.563 20.4874 178.459 21.355 178.6 22.1998L178.7 24.3998C178.692 25.2827 178.935 26.1496 179.4 26.8998C179.574 27.1554 179.816 27.3567 180.099 27.4805C180.382 27.6044 180.694 27.6457 181 27.5998C181.301 27.6315 181.604 27.5595 181.858 27.3959C182.113 27.2323 182.304 26.9867 182.4 26.6998C182.68 25.898 182.782 25.0451 182.7 24.1998V21.9998Z" fill="#D8D8D8"/>
<path d="M193.7 23.5998C193.818 24.854 193.538 26.1135 192.9 27.1998C192.601 27.6007 192.206 27.9204 191.752 28.13C191.298 28.3396 190.799 28.4323 190.3 28.3998C189.812 28.4194 189.326 28.331 188.877 28.1409C188.427 27.9507 188.025 27.6635 187.7 27.2998C187.037 26.2952 186.721 25.101 186.8 23.8998V22.0998C186.667 20.8764 186.949 19.6438 187.6 18.5998C187.89 18.1889 188.283 17.8616 188.739 17.6509C189.195 17.4403 189.699 17.3536 190.2 17.3998C190.689 17.3698 191.178 17.4535 191.629 17.6444C192.08 17.8352 192.481 18.128 192.8 18.4998C193.478 19.498 193.795 20.6971 193.7 21.8998V23.5998ZM192.3 21.7998C192.355 20.937 192.183 20.075 191.8 19.2998C191.625 19.0399 191.385 18.8298 191.105 18.6896C190.825 18.5495 190.513 18.4841 190.2 18.4998C189.901 18.4844 189.603 18.5508 189.339 18.6917C189.075 18.8327 188.854 19.0428 188.7 19.2998C188.329 20.0788 188.157 20.9379 188.2 21.7998V23.9998C188.16 24.8937 188.331 25.7846 188.7 26.5998C188.883 26.8517 189.124 27.0559 189.402 27.1952C189.681 27.3344 189.989 27.4046 190.3 27.3998C190.599 27.4151 190.897 27.3487 191.161 27.2078C191.425 27.0669 191.646 26.8567 191.8 26.5998C192.171 25.8207 192.343 24.9616 192.3 24.0998V21.7998Z" fill="#D8D8D8"/>
<path d="M200.8 28.5002L199.4 28.4002L199.8 19.3002L197 20.2002L197.1 19.0002L201.1 17.7002H201.3L200.8 28.5002Z" fill="#D8D8D8"/>
<path d="M212.7 24.8999C212.632 26.1551 212.216 27.3668 211.5 28.3999C211.16 28.7617 210.735 29.0333 210.264 29.1904C209.792 29.3475 209.289 29.3851 208.8 29.2999C208.314 29.2897 207.839 29.1559 207.419 28.9109C206.999 28.6659 206.648 28.318 206.4 27.8999C205.886 26.8099 205.711 25.5903 205.9 24.3999L206.1 22.5999C206.165 21.3749 206.582 20.1945 207.3 19.1999C207.64 18.8381 208.065 18.5664 208.536 18.4093C209.008 18.2522 209.511 18.2146 210 18.2999C210.489 18.296 210.97 18.4239 211.392 18.6703C211.815 18.9167 212.163 19.2723 212.4 19.6999C212.914 20.7898 213.089 22.0095 212.9 23.1999L212.7 24.8999ZM211.6 22.8999C211.711 22.0286 211.643 21.1439 211.4 20.2999C211.258 20.0173 211.046 19.7765 210.783 19.6011C210.52 19.4258 210.215 19.3219 209.9 19.2999C209.604 19.236 209.296 19.2585 209.012 19.3649C208.728 19.4713 208.481 19.657 208.3 19.8999C207.848 20.619 207.605 21.4503 207.6 22.2999L207.4 24.4999C207.289 25.3711 207.357 26.2558 207.6 27.0999C207.72 27.3786 207.914 27.6191 208.16 27.7954C208.407 27.9717 208.698 28.077 209 28.0999C209.296 28.1638 209.604 28.1412 209.888 28.0348C210.172 27.9285 210.419 27.7428 210.6 27.4999C211.047 26.7718 211.321 25.9506 211.4 25.0999L211.6 22.8999Z" fill="#D8D8D8"/>
<path d="M222.1 26.2999C222.025 27.5575 221.532 28.754 220.7 29.6999C220.342 30.033 219.913 30.2785 219.444 30.4173C218.976 30.5561 218.481 30.5844 218 30.4999C217.515 30.4382 217.05 30.2722 216.635 30.0132C216.221 29.7543 215.868 29.4086 215.6 28.9999C215.168 27.8858 215.064 26.6713 215.3 25.4999L215.6 23.6999C215.675 22.4424 216.168 21.2459 217 20.2999C217.352 19.9617 217.786 19.7196 218.258 19.5971C218.731 19.4745 219.228 19.4755 219.7 19.5999C220.185 19.6616 220.65 19.8277 221.065 20.0867C221.479 20.3456 221.832 20.6913 222.1 21.0999C222.532 22.2141 222.636 23.4286 222.4 24.5999L222.1 26.2999ZM221.1 24.1999C221.331 23.3432 221.297 22.4364 221 21.5999C220.88 21.3213 220.686 21.0807 220.44 20.9044C220.193 20.7281 219.902 20.6228 219.6 20.5999C219.313 20.5427 219.016 20.5585 218.736 20.6459C218.457 20.7333 218.204 20.8894 218 21.0999C217.512 21.7793 217.203 22.5701 217.1 23.3999L216.7 25.5999C216.519 26.4617 216.554 27.3546 216.8 28.1999C216.903 28.4986 217.089 28.7613 217.338 28.9565C217.586 29.1516 217.885 29.2709 218.2 29.2999C218.487 29.3571 218.784 29.3413 219.064 29.254C219.343 29.1666 219.596 29.0105 219.8 28.7999C220.303 28.0917 220.614 27.2646 220.7 26.3999L221.1 24.1999Z" fill="#D8D8D8"/>
<path d="M231.5 28.3001C231.348 29.5472 230.785 30.7082 229.9 31.6001C229.511 31.9087 229.056 32.1233 228.57 32.2274C228.084 32.3314 227.581 32.3221 227.1 32.2001C226.605 32.1306 226.136 31.9387 225.734 31.6418C225.333 31.345 225.012 30.9525 224.8 30.5001C224.404 29.3722 224.369 28.1488 224.7 27.0001L225.1 25.2001C225.299 23.9672 225.855 22.8198 226.7 21.9001C227.089 21.5916 227.544 21.3769 228.03 21.2729C228.515 21.1688 229.019 21.1781 229.5 21.3001C229.987 21.3526 230.452 21.5267 230.854 21.8062C231.256 22.0858 231.581 22.462 231.8 22.9001C232.2 24.0274 232.235 25.2519 231.9 26.4001L231.5 28.3001ZM230.5 26.1001C230.727 25.2518 230.762 24.3634 230.6 23.5001C230.512 23.1928 230.329 22.9212 230.078 22.7237C229.827 22.5262 229.519 22.413 229.2 22.4001C228.898 22.3267 228.581 22.3343 228.283 22.4221C227.984 22.5098 227.714 22.6747 227.5 22.9001C226.935 23.5439 226.586 24.348 226.5 25.2001L226 27.3001C225.773 28.1484 225.738 29.0369 225.9 29.9001C225.98 30.1936 226.147 30.456 226.379 30.6525C226.611 30.8489 226.897 30.9702 227.2 31.0001C227.486 31.0802 227.79 31.0756 228.074 30.9869C228.358 30.8982 228.61 30.7291 228.8 30.5001C229.345 29.8437 229.691 29.0461 229.8 28.2001L230.5 26.1001Z" fill="#D8D8D8"/>
<path d="M240.7 30.7999C240.465 32.0343 239.833 33.1581 238.9 33.9999C238.514 34.3159 238.049 34.5203 237.556 34.5908C237.062 34.6613 236.559 34.5953 236.1 34.3999C235.617 34.2948 235.166 34.0769 234.784 33.764C234.401 33.4512 234.099 33.0523 233.9 32.5999C233.585 31.4492 233.619 30.2307 234 29.0999L234.5 27.2999C234.735 26.0654 235.367 24.9416 236.3 24.0999C236.698 23.8081 237.161 23.619 237.65 23.5492C238.138 23.4794 238.636 23.5312 239.1 23.6999C239.583 23.805 240.034 24.0229 240.416 24.3357C240.798 24.6486 241.101 25.0475 241.3 25.4999C241.615 26.6505 241.581 27.8691 241.2 28.9999L240.7 30.7999ZM239.9 28.5999C240.2 27.7672 240.269 26.8687 240.1 25.9999C240.009 25.7029 239.84 25.4354 239.612 25.2247C239.383 25.0139 239.103 24.8673 238.8 24.7999C238.51 24.6852 238.191 24.662 237.887 24.7335C237.583 24.805 237.309 24.9677 237.1 25.1999C236.556 25.8302 236.178 26.5864 236 27.3999L235.4 29.4999C235.1 30.3326 235.031 31.2311 235.2 32.0999C235.312 32.3795 235.485 32.6304 235.707 32.8337C235.929 33.037 236.194 33.1875 236.483 33.274C236.771 33.3605 237.075 33.3808 237.373 33.3334C237.67 33.2859 237.953 33.1719 238.2 32.9999C238.798 32.3937 239.214 31.6313 239.4 30.7999L239.9 28.5999Z" fill="#D8D8D8"/>
<path d="M249.8 33.7999C249.483 34.9966 248.822 36.0742 247.9 36.8999C247.503 37.1966 247.034 37.3811 246.541 37.4339C246.048 37.4867 245.551 37.4058 245.1 37.1999C244.624 37.0728 244.186 36.8341 243.82 36.5037C243.455 36.1733 243.174 35.7606 243 35.2999C242.716 34.1317 242.822 32.9028 243.3 31.7999L243.9 30.0999C244.204 28.8977 244.867 27.8165 245.8 26.9999C246.207 26.7246 246.674 26.5533 247.163 26.501C247.651 26.4487 248.144 26.517 248.6 26.6999C249.076 26.827 249.514 27.0657 249.88 27.3961C250.245 27.7265 250.526 28.1392 250.7 28.5999C250.984 29.7681 250.878 30.997 250.4 32.0999L249.8 33.7999ZM249.1 31.5999C249.444 30.7789 249.581 29.8862 249.5 28.9999C249.435 28.6953 249.29 28.4137 249.079 28.1849C248.868 27.9561 248.599 27.7885 248.3 27.6999C248.02 27.6054 247.722 27.5743 247.428 27.6088C247.134 27.6434 246.851 27.7428 246.6 27.8999C245.977 28.4632 245.527 29.1913 245.3 29.9999L244.6 32.0999C244.256 32.9209 244.119 33.8136 244.2 34.6999C244.25 35.0106 244.391 35.2996 244.604 35.5309C244.817 35.7621 245.094 35.9252 245.4 35.9999C245.685 36.1011 245.992 36.1267 246.29 36.0741C246.588 36.0215 246.867 35.8926 247.1 35.6999C247.721 35.0951 248.17 34.3357 248.4 33.4999L249.1 31.5999Z" fill="#D8D8D8"/>
<path d="M262.9 39.2002C262.493 40.4031 261.725 41.4509 260.7 42.2002C260.275 42.447 259.792 42.5769 259.3 42.5769C258.808 42.5769 258.325 42.447 257.9 42.2002C257.435 42.0337 257.018 41.7549 256.687 41.3885C256.355 41.0222 256.119 40.5796 256 40.1002C255.842 38.8997 256.051 37.6796 256.6 36.6002L257.3 34.9002C257.704 33.7232 258.475 32.7068 259.5 32.0002C259.925 31.7535 260.408 31.6235 260.9 31.6235C261.392 31.6235 261.875 31.7535 262.3 32.0002C262.75 32.1629 263.157 32.4284 263.486 32.7756C263.816 33.1228 264.061 33.5421 264.2 34.0002C264.358 35.2007 264.149 36.4208 263.6 37.5002L262.9 39.2002ZM262.4 36.9002C262.83 36.1396 263.038 35.2733 263 34.4002C262.954 34.1032 262.827 33.8246 262.633 33.5951C262.439 33.3657 262.185 33.1944 261.9 33.1002C261.633 32.9669 261.335 32.906 261.037 32.9235C260.738 32.9411 260.45 33.0365 260.2 33.2002C259.541 33.7093 259.053 34.4069 258.8 35.2002L257.9 37.2002C257.458 37.9926 257.25 38.8942 257.3 39.8002C257.324 40.1163 257.441 40.4181 257.637 40.6674C257.833 40.9166 258.099 41.1021 258.4 41.2002C258.667 41.3335 258.965 41.3944 259.263 41.3769C259.562 41.3593 259.85 41.264 260.1 41.1002C260.786 40.5539 261.306 39.8265 261.6 39.0002L262.4 36.9002Z" fill="#D8D8D8"/>
<path d="M267.4 46.4998L266.2 45.8998L270.3 37.6998L267.4 37.3998L268 36.2998L272.2 36.7998L272.4 36.8998L267.4 46.4998Z" fill="#D8D8D8"/>
<path d="M279.8 48.2C279.27 49.3396 278.396 50.2841 277.3 50.9C276.84 51.0541 276.353 51.1076 275.871 51.0567C275.389 51.0059 274.923 50.8519 274.506 50.6053C274.089 50.3587 273.729 50.0252 273.452 49.6274C273.175 49.2297 272.987 48.7769 272.9 48.3C272.846 47.087 273.198 45.8906 273.9 44.9L274.8 43.3C275.33 42.1604 276.204 41.216 277.3 40.6C277.753 40.4042 278.249 40.3289 278.739 40.3815C279.23 40.4341 279.699 40.6127 280.1 40.9C280.552 41.1116 280.945 41.4327 281.242 41.8344C281.539 42.236 281.73 42.7054 281.8 43.2C281.842 44.4115 281.491 45.6042 280.8 46.6L279.8 48.2ZM279.5 45.9C280.016 45.1613 280.327 44.2984 280.4 43.4C280.394 43.0932 280.307 42.7934 280.15 42.5303C279.992 42.2672 279.768 42.0499 279.5 41.9C279.249 41.7391 278.961 41.6453 278.663 41.6278C278.365 41.6103 278.068 41.6696 277.8 41.8C277.091 42.2897 276.508 42.941 276.1 43.7L275 45.6C274.484 46.3387 274.173 47.2016 274.1 48.1C274.082 48.4116 274.158 48.7215 274.318 48.9891C274.479 49.2567 274.716 49.4697 275 49.6C275.251 49.7619 275.539 49.8561 275.837 49.8737C276.135 49.8912 276.432 49.8314 276.7 49.7C277.409 49.2103 277.992 48.5591 278.4 47.8L279.5 45.9Z" fill="#D8D8D8"/>
<path d="M283.3 55.9999L282.2 55.1999L287.2 47.5999L284.3 46.8999L285 45.8999L289.1 46.7999L289.3 46.8999L283.3 55.9999Z" fill="#D8D8D8"/>
<path d="M295.5 58.9999C294.817 60.0527 293.845 60.886 292.7 61.3999C292.22 61.5412 291.713 61.5603 291.224 61.4555C290.735 61.3507 290.28 61.1253 289.9 60.7999C289.483 60.5259 289.139 60.1558 288.895 59.7207C288.651 59.2856 288.516 58.7983 288.5 58.2999C288.641 57.0884 289.127 55.9429 289.9 54.9999L291 53.4999C291.651 52.4431 292.637 51.6337 293.8 51.1999C294.28 51.0586 294.787 51.0394 295.276 51.1442C295.765 51.249 296.22 51.4744 296.6 51.7999C297.005 52.0622 297.343 52.4162 297.586 52.833C297.829 53.2499 297.971 53.7181 298 54.1999C297.859 55.4114 297.373 56.5569 296.6 57.4999L295.5 58.9999ZM295.5 56.5999C296.091 55.9624 296.475 55.1603 296.6 54.2999C296.616 53.9869 296.55 53.6751 296.41 53.3948C296.27 53.1145 296.06 52.8751 295.8 52.6999C295.565 52.5106 295.286 52.3838 294.989 52.3314C294.691 52.2789 294.386 52.3025 294.1 52.3999C293.323 52.7819 292.666 53.37 292.2 54.0999L290.9 55.8999C290.287 56.562 289.901 57.403 289.8 58.2999C289.777 58.6035 289.828 58.9082 289.951 59.1871C290.073 59.4661 290.261 59.7108 290.5 59.8999C290.733 60.0926 291.012 60.2215 291.31 60.2741C291.608 60.3267 291.915 60.3011 292.2 60.1999C292.977 59.8178 293.634 59.2298 294.1 58.4999L295.5 56.5999Z" fill="#D8D8D8"/>
<path d="M298.1 67.1002L297 66.2002L302.9 59.2002L300.1 58.2002L300.9 57.2002L304.9 58.6002L305.1 58.7002L298.1 67.1002Z" fill="#D8D8D8"/>
<path d="M309.9 71.4998C309.128 72.4796 308.085 73.2101 306.9 73.5998C306.411 73.685 305.908 73.6474 305.437 73.4903C304.965 73.3333 304.54 73.0616 304.2 72.6998C303.831 72.3789 303.539 71.9778 303.349 71.5272C303.158 71.0766 303.073 70.5883 303.1 70.0998C303.342 68.9192 303.935 67.8389 304.8 66.9998L306 65.6998C306.771 64.7413 307.819 64.0431 309 63.6998C309.489 63.6145 309.992 63.6521 310.464 63.8092C310.935 63.9663 311.36 64.238 311.7 64.5998C312.088 64.9054 312.392 65.304 312.584 65.7586C312.776 66.2131 312.85 66.7088 312.8 67.1998C312.533 68.3713 311.944 69.445 311.1 70.2998L309.9 71.4998ZM310.2 69.1998C310.832 68.5856 311.311 67.8322 311.6 66.9998C311.678 66.7038 311.662 66.391 311.554 66.1044C311.447 65.8179 311.253 65.5717 311 65.3998C310.781 65.1808 310.511 65.0204 310.214 64.933C309.917 64.8456 309.603 64.8342 309.3 64.8998C308.539 65.2148 307.856 65.6927 307.3 66.2998L305.8 67.8998C305.134 68.4853 304.648 69.2484 304.4 70.0998C304.334 70.4023 304.346 70.7165 304.433 71.0135C304.521 71.3105 304.681 71.5809 304.9 71.7998C305.099 72.0167 305.352 72.1773 305.633 72.2651C305.914 72.3529 306.213 72.3649 306.5 72.2998C307.323 71.9986 308.048 71.4803 308.6 70.7998L310.2 69.1998Z" fill="#D8D8D8"/>
<path d="M316.5 78.3001C315.628 79.215 314.521 79.8723 313.3 80.2001C312.807 80.2829 312.3 80.2234 311.84 80.0285C311.379 79.8337 310.984 79.5117 310.7 79.1001C310.336 78.7833 310.061 78.3765 309.903 77.9203C309.745 77.464 309.71 76.9744 309.8 76.5001C310.14 75.3418 310.798 74.3023 311.7 73.5001L313 72.2001C313.81 71.279 314.898 70.647 316.1 70.4001C316.591 70.3497 317.087 70.424 317.541 70.6163C317.996 70.8086 318.394 71.1126 318.7 71.5001C319.057 71.8259 319.334 72.2306 319.507 72.6819C319.681 73.1332 319.747 73.6188 319.7 74.1001C319.36 75.2584 318.702 76.298 317.8 77.1001L316.5 78.3001ZM316.9 76.0001C317.549 75.4192 318.061 74.7021 318.4 73.9001C318.491 73.5988 318.492 73.2776 318.403 72.9757C318.314 72.6738 318.139 72.4043 317.9 72.2001C317.707 71.9709 317.459 71.7953 317.179 71.6902C316.898 71.5851 316.596 71.5541 316.3 71.6001C315.502 71.851 314.78 72.298 314.2 72.9001L312.6 74.4001C311.86 74.9372 311.33 75.7149 311.1 76.6001C311.009 76.9014 311.008 77.2227 311.097 77.5245C311.186 77.8264 311.361 78.0959 311.6 78.3001C311.793 78.5293 312.041 78.705 312.321 78.8101C312.602 78.9152 312.904 78.9462 313.2 78.9001C313.998 78.6492 314.72 78.2022 315.3 77.6001L316.9 76.0001Z" fill="#D8D8D8"/>
<path d="M325.7 89.2999C324.773 90.1339 323.629 90.6886 322.4 90.8999C321.918 90.8713 321.447 90.7418 321.019 90.5198C320.59 90.2978 320.213 89.9883 319.911 89.6112C319.609 89.2342 319.39 88.7981 319.268 88.331C319.145 87.864 319.122 87.3765 319.2 86.8999C319.617 85.7846 320.346 84.8126 321.3 84.1L322.7 82.8999C323.616 82.0491 324.765 81.4919 326 81.2999C326.495 81.2732 326.988 81.3797 327.428 81.6083C327.867 81.837 328.238 82.1794 328.5 82.6C328.838 82.9523 329.08 83.3857 329.203 83.8585C329.325 84.3313 329.324 84.8276 329.2 85.2999C328.775 86.4392 328.006 87.4179 327 88.1L325.7 89.2999ZM326.3 86.9999C327.039 86.5011 327.627 85.8094 328 84.9999C328.109 84.7088 328.129 84.3918 328.058 84.0892C327.987 83.7866 327.828 83.5119 327.6 83.2999C327.436 83.035 327.195 82.8262 326.909 82.7012C326.623 82.5762 326.306 82.5409 326 82.6C325.194 82.7997 324.443 83.1753 323.8 83.6999L322.1 85.1C321.361 85.5988 320.773 86.2905 320.4 87.1C320.299 87.3851 320.273 87.6916 320.326 87.9895C320.378 88.2875 320.507 88.5667 320.7 88.7999C320.874 89.0555 321.116 89.2568 321.399 89.3806C321.682 89.5045 321.994 89.5458 322.3 89.4999C323.166 89.3278 323.964 88.9114 324.6 88.2999L326.3 86.9999Z" fill="#D8D8D8"/>
<path d="M326.2 97.8L325.4 96.7L332.9 91.4L330.5 89.7L331.5 89L335 91.3L335.1 91.5L326.2 97.8Z" fill="#D8D8D8"/>
<path d="M331.3 105.5L330.6 104.3L338.3 99.3999L336 97.5999L337.1 96.8999L340.5 99.3999L340.6 99.5999L331.3 105.5Z" fill="#D8D8D8"/>
<path d="M341.1 113.3C340.063 113.984 338.841 114.333 337.6 114.3C337.105 114.231 336.636 114.039 336.234 113.742C335.833 113.445 335.512 113.053 335.3 112.6C335.026 112.191 334.863 111.718 334.828 111.227C334.793 110.736 334.887 110.244 335.1 109.8C335.712 108.762 336.617 107.928 337.7 107.4L339.3 106.5C340.337 105.817 341.558 105.468 342.8 105.5C343.277 105.607 343.726 105.811 344.12 106.1C344.514 106.389 344.843 106.756 345.088 107.179C345.332 107.602 345.486 108.071 345.54 108.557C345.594 109.043 345.546 109.534 345.4 110C344.76 111.015 343.863 111.843 342.8 112.4L341.1 113.3ZM342.1 111.2C342.906 110.822 343.597 110.235 344.1 109.5C344.247 109.241 344.325 108.948 344.325 108.65C344.325 108.352 344.247 108.059 344.1 107.8C343.968 107.53 343.771 107.298 343.526 107.123C343.282 106.949 342.998 106.838 342.7 106.8C341.835 106.8 340.992 107.081 340.3 107.6L338.4 108.7C337.594 109.079 336.903 109.665 336.4 110.4C336.252 110.677 336.175 110.986 336.175 111.3C336.175 111.614 336.252 111.923 336.4 112.2C336.519 112.471 336.716 112.7 336.965 112.86C337.214 113.02 337.504 113.104 337.8 113.1C338.657 113.054 339.487 112.778 340.2 112.3L342.1 111.2Z" fill="#D8D8D8"/>
<path d="M340.2 121.8L339.6 120.6L347.8 116.6L345.7 114.5L346.8 114L349.8 116.9L349.9 117.1L340.2 121.8Z" fill="#D8D8D8"/>
<path d="M343.9 130.3L343.4 129L351.9 125.5L349.9 123.3L351 122.8L353.9 125.9L354 126.1L343.9 130.3Z" fill="#D8D8D8"/>
<path d="M347.1 139L346.6 137.7L355.2 134.7L353.3 132.4L354.5 132L357.2 135.2L357.3 135.4L347.1 139Z" fill="#D8D8D8"/>
<path d="M349.9 147.9L349.5 146.6L358.3 144.1L356.6 141.7L357.8 141.3L360.3 144.7L360.4 144.9L349.9 147.9Z" fill="#D8D8D8"/>
<path d="M358 162.7C356.784 163.034 355.496 162.999 354.3 162.6C353.85 162.398 353.463 162.077 353.181 161.672C352.899 161.267 352.733 160.792 352.7 160.3C352.583 159.834 352.577 159.348 352.681 158.879C352.785 158.41 352.997 157.972 353.3 157.6C354.178 156.769 355.3 156.244 356.5 156.1L358.3 155.7C359.482 155.364 360.739 155.399 361.9 155.8C362.342 156.014 362.721 156.338 363.001 156.741C363.281 157.143 363.453 157.612 363.5 158.1C363.624 158.565 363.634 159.053 363.53 159.523C363.425 159.993 363.209 160.431 362.9 160.8C362.022 161.63 360.9 162.156 359.7 162.3L358 162.7ZM359.6 161C360.469 160.867 361.293 160.524 362 160C362.231 159.789 362.399 159.519 362.487 159.22C362.575 158.92 362.58 158.602 362.5 158.3C362.457 157.99 362.332 157.698 362.139 157.452C361.946 157.206 361.691 157.015 361.4 156.9C360.586 156.644 359.714 156.644 358.9 156.9L356.8 157.3C355.925 157.412 355.096 157.757 354.4 158.3C354.169 158.511 354.001 158.78 353.913 159.08C353.824 159.38 353.82 159.698 353.9 160C353.93 160.303 354.051 160.589 354.248 160.821C354.444 161.053 354.706 161.22 355 161.3C355.821 161.505 356.679 161.505 357.5 161.3L359.6 161Z" fill="#D8D8D8"/>
<path d="M354.6 170.6L354.4 169.2L363.5 167.9L362.1 165.3L363.3 165.1L365.3 168.8V169L354.6 170.6Z" fill="#D8D8D8"/>
<path d="M355.5 179.7L355.4 178.3L364.5 177.5L363.3 174.8L364.5 174.7L366.3 178.5V178.7L355.5 179.7Z" fill="#D8D8D8"/>
<path d="M360.6 191.2C359.359 191.291 358.116 191.049 357 190.5C356.599 190.224 356.278 189.848 356.067 189.41C355.857 188.971 355.765 188.485 355.8 188C355.756 187.51 355.833 187.016 356.025 186.563C356.217 186.109 356.517 185.71 356.9 185.4C357.905 184.737 359.099 184.421 360.3 184.5L362.1 184.4C363.341 184.309 364.584 184.551 365.7 185.1C366.111 185.39 366.438 185.783 366.649 186.239C366.86 186.695 366.946 187.199 366.9 187.7C366.946 188.181 366.88 188.667 366.706 189.118C366.533 189.569 366.257 189.974 365.9 190.3C364.902 190.978 363.703 191.295 362.5 191.2H360.6ZM362.5 189.7C363.377 189.781 364.255 189.57 365 189.1C365.26 188.925 365.47 188.685 365.61 188.405C365.75 188.125 365.816 187.813 365.8 187.5C365.815 187.201 365.749 186.903 365.608 186.639C365.467 186.375 365.257 186.154 365 186C364.21 185.67 363.353 185.533 362.5 185.6L360.3 185.7C359.393 185.635 358.487 185.844 357.7 186.3C357.448 186.483 357.244 186.724 357.105 187.002C356.965 187.281 356.895 187.589 356.9 187.9C356.885 188.199 356.951 188.497 357.092 188.761C357.233 189.025 357.443 189.246 357.7 189.4C358.475 189.778 359.345 189.917 360.2 189.8L362.5 189.7Z" fill="#D8D8D8"/>
<path d="M355.9 198.3V196.9L365 197.2L364.1 194.4H365.3L366.7 198.4V198.6L355.9 198.3Z" fill="#D8D8D8"/>
<path d="M359.7 210.2C358.447 210.208 357.223 209.823 356.2 209.1C355.838 208.759 355.567 208.335 355.409 207.863C355.252 207.392 355.215 206.889 355.3 206.4C355.31 205.914 355.444 205.438 355.689 205.018C355.934 204.598 356.282 204.248 356.7 204C357.779 203.451 359 203.242 360.2 203.4L362 203.6C363.25 203.611 364.468 203.994 365.5 204.7C365.862 205.04 366.133 205.465 366.291 205.936C366.448 206.407 366.485 206.91 366.4 207.4C366.405 207.891 366.288 208.376 366.062 208.812C365.835 209.248 365.505 209.621 365.1 209.9C364.024 210.46 362.79 210.636 361.6 210.4L359.7 210.2ZM361.7 209C362.578 209.139 363.477 209.035 364.3 208.7C364.584 208.569 364.821 208.356 364.982 208.089C365.142 207.821 365.218 207.511 365.2 207.2C365.223 206.896 365.172 206.591 365.049 206.313C364.927 206.034 364.739 205.789 364.5 205.6C363.781 205.147 362.95 204.905 362.1 204.9L359.9 204.7C359.022 204.561 358.123 204.664 357.3 205C357.032 205.146 356.803 205.353 356.63 205.605C356.458 205.856 356.348 206.145 356.309 206.448C356.27 206.75 356.303 207.058 356.406 207.345C356.509 207.632 356.678 207.891 356.9 208.1C357.619 208.552 358.45 208.795 359.3 208.8L361.7 209Z" fill="#D8D8D8"/>
<path d="M354.1 216.8L354.3 215.4L363.4 216.7L362.8 213.8L364 214L364.9 218.1V218.3L354.1 216.8Z" fill="#D8D8D8"/>
<path d="M352.5 225.9L352.8 224.5L361.8 226.3L361.4 223.4L362.6 223.6L363.3 227.7V227.9L352.5 225.9Z" fill="#D8D8D8"/>
<path d="M352.8 242.8C351.581 242.524 350.469 241.899 349.6 241C349.308 240.602 349.119 240.139 349.049 239.65C348.98 239.162 349.031 238.664 349.2 238.2C349.292 237.724 349.506 237.28 349.821 236.911C350.137 236.543 350.543 236.264 351 236.1C352.151 235.785 353.369 235.82 354.5 236.2L356.3 236.7C357.534 236.935 358.658 237.567 359.5 238.5C359.792 238.898 359.981 239.362 360.051 239.85C360.12 240.338 360.069 240.837 359.9 241.3C359.808 241.776 359.594 242.221 359.279 242.589C358.963 242.957 358.557 243.237 358.1 243.4C356.943 243.724 355.712 243.653 354.6 243.2L352.8 242.8ZM355 242C355.833 242.3 356.731 242.37 357.6 242.2C357.897 242.109 358.164 241.94 358.375 241.712C358.586 241.484 358.733 241.203 358.8 240.9C358.906 240.616 358.935 240.308 358.882 240.009C358.829 239.71 358.697 239.431 358.5 239.2C357.91 238.58 357.141 238.161 356.3 238L354.2 237.4C353.367 237.1 352.469 237.031 351.6 237.2C351.317 237.286 351.059 237.441 350.85 237.65C350.64 237.859 350.486 238.117 350.4 238.4C350.299 238.685 350.273 238.992 350.326 239.29C350.378 239.588 350.507 239.867 350.7 240.1C351.306 240.699 352.069 241.114 352.9 241.3L355 242Z" fill="#D8D8D8"/>
<path d="M346.1 248.1L346.6 246.8L355.2 249.9V247L356.4 247.4L356.5 251.6L356.4 251.8L346.1 248.1Z" fill="#D8D8D8"/>
<path d="M342.7 256.8L343.2 255.5L351.6 259.1L351.7 256.2L352.8 256.7L352.6 260.9L352.5 261.1L342.7 256.8Z" fill="#D8D8D8"/>
<path d="M341.9 269.2C340.748 268.701 339.748 267.908 339 266.9C338.77 266.465 338.659 265.978 338.676 265.487C338.694 264.995 338.84 264.517 339.1 264.1C339.293 263.644 339.594 263.242 339.977 262.928C340.361 262.614 340.815 262.399 341.3 262.3C342.51 262.177 343.73 262.421 344.8 263L346.4 263.8C347.543 264.268 348.519 265.07 349.2 266.1C349.43 266.535 349.541 267.022 349.524 267.513C349.506 268.005 349.36 268.483 349.1 268.9C348.914 269.343 348.627 269.736 348.263 270.048C347.898 270.361 347.466 270.584 347 270.7C345.777 270.822 344.548 270.541 343.5 269.9L341.9 269.2ZM344.2 268.8C344.972 269.213 345.826 269.452 346.7 269.5C347.004 269.483 347.297 269.38 347.545 269.203C347.793 269.026 347.985 268.782 348.1 268.5C348.247 268.241 348.325 267.948 348.325 267.65C348.325 267.352 348.247 267.059 348.1 266.8C347.574 266.135 346.885 265.619 346.1 265.3L344.1 264.3C343.328 263.887 342.474 263.648 341.6 263.6C341.296 263.617 341.003 263.72 340.755 263.897C340.507 264.074 340.315 264.318 340.2 264.6C340.053 264.859 339.975 265.152 339.975 265.45C339.975 265.748 340.053 266.041 340.2 266.3C340.726 266.965 341.415 267.481 342.2 267.8L344.2 268.8Z" fill="#D8D8D8"/>
<path d="M337.3 277.6C336.16 277.07 335.216 276.195 334.6 275.1C334.411 274.65 334.331 274.162 334.366 273.676C334.401 273.19 334.549 272.718 334.8 272.3C335.002 271.86 335.308 271.476 335.691 271.18C336.074 270.884 336.523 270.685 337 270.6C338.197 270.564 339.378 270.877 340.4 271.5L342 272.4C343.14 272.93 344.084 273.804 344.7 274.9C344.896 275.353 344.971 275.849 344.918 276.339C344.866 276.83 344.687 277.299 344.4 277.7C344.198 278.14 343.892 278.524 343.509 278.82C343.126 279.116 342.677 279.315 342.2 279.4C340.988 279.442 339.796 279.091 338.8 278.4L337.3 277.6ZM339.6 277.3C340.343 277.794 341.208 278.071 342.1 278.1C342.419 278.093 342.73 277.995 342.995 277.818C343.261 277.641 343.471 277.392 343.6 277.1C343.761 276.849 343.855 276.561 343.872 276.263C343.89 275.965 343.83 275.668 343.7 275.4C343.228 274.7 342.57 274.146 341.8 273.8L339.9 272.7C339.174 272.173 338.297 271.893 337.4 271.9C337.093 271.906 336.793 271.993 336.53 272.15C336.267 272.308 336.05 272.532 335.9 272.8C335.729 273.051 335.638 273.347 335.638 273.65C335.638 273.953 335.729 274.249 335.9 274.5C336.39 275.209 337.041 275.792 337.8 276.2L339.6 277.3Z" fill="#D8D8D8"/>
<path d="M329.6 281.3L330.3 280.1L338 285L338.6 282.1L339.6 282.8L338.7 286.9L338.6 287.1L329.6 281.3Z" fill="#D8D8D8"/>
<path d="M326.7 293.4C325.626 292.742 324.786 291.762 324.3 290.6C324.159 290.12 324.14 289.613 324.244 289.124C324.349 288.635 324.574 288.18 324.9 287.8C325.162 287.395 325.516 287.057 325.933 286.814C326.35 286.571 326.818 286.429 327.3 286.4C328.505 286.495 329.654 286.948 330.6 287.7L332.1 288.8C333.165 289.424 334.005 290.369 334.5 291.5C334.641 291.98 334.66 292.487 334.556 292.976C334.451 293.465 334.225 293.92 333.9 294.3C333.638 294.705 333.284 295.043 332.867 295.286C332.45 295.529 331.982 295.671 331.5 295.7C330.295 295.605 329.146 295.152 328.2 294.4L326.7 293.4ZM329 293.4C329.687 293.975 330.516 294.355 331.4 294.5C331.699 294.514 331.996 294.447 332.26 294.306C332.524 294.166 332.745 293.956 332.9 293.7C333.089 293.465 333.216 293.186 333.268 292.888C333.321 292.591 333.297 292.286 333.2 292C332.838 291.235 332.243 290.605 331.5 290.2L329.7 288.9C328.992 288.36 328.172 287.984 327.3 287.8C326.987 287.784 326.675 287.85 326.395 287.99C326.115 288.13 325.875 288.34 325.7 288.6C325.499 288.83 325.372 289.115 325.336 289.419C325.3 289.722 325.357 290.03 325.5 290.3C325.882 291.077 326.47 291.734 327.2 292.2L329 293.4Z" fill="#D8D8D8"/>
<path d="M318.6 296.2L319.5 295.1L326.6 300.9L327.6 298.1L328.6 298.9L327.3 302.9L327.2 303.1L318.6 296.2Z" fill="#D8D8D8"/>
<path d="M311.1 311.3C310.115 310.511 309.414 309.423 309.1 308.2C309.015 307.711 309.052 307.208 309.209 306.737C309.367 306.265 309.638 305.841 310 305.5C310.311 305.124 310.714 304.835 311.169 304.659C311.624 304.484 312.117 304.429 312.6 304.5C313.802 304.747 314.89 305.379 315.7 306.3L317 307.6C317.925 308.402 318.616 309.438 319 310.6C319.088 311.098 319.042 311.611 318.866 312.086C318.69 312.56 318.391 312.979 318 313.3C317.679 313.67 317.278 313.961 316.827 314.151C316.377 314.342 315.889 314.427 315.4 314.4C314.207 314.13 313.126 313.502 312.3 312.6L311.1 311.3ZM313.4 311.7C313.986 312.366 314.749 312.852 315.6 313.1C315.896 313.178 316.209 313.162 316.495 313.054C316.782 312.947 317.028 312.753 317.2 312.5C317.419 312.281 317.579 312.011 317.667 311.714C317.754 311.417 317.766 311.103 317.7 310.8C317.423 310.019 316.939 309.328 316.3 308.8L314.7 307.3C314.115 306.634 313.351 306.148 312.5 305.9C312.197 305.835 311.883 305.846 311.586 305.933C311.289 306.021 311.019 306.181 310.8 306.4C310.583 306.599 310.423 306.852 310.335 307.133C310.247 307.414 310.235 307.713 310.3 308C310.555 308.82 311.041 309.549 311.7 310.1L313.4 311.7Z" fill="#D8D8D8"/>
<path d="M302.7 313L303.7 312.1L309.9 318.8L311.2 316.2L312.1 317.1L310.2 320.9L310 321L302.7 313Z" fill="#D8D8D8"/>
<path d="M295.6 319L296.7 318.1L302.5 325.2L304 322.7L304.8 323.7L302.7 327.3L302.5 327.4L295.6 319Z" fill="#D8D8D8"/>
<path d="M289.2 329.8C288.384 328.834 287.863 327.654 287.7 326.4C287.672 325.893 287.788 325.389 288.036 324.946C288.284 324.503 288.653 324.14 289.1 323.9C289.459 323.574 289.897 323.347 290.37 323.242C290.844 323.137 291.337 323.157 291.8 323.3C292.903 323.742 293.845 324.509 294.5 325.5L295.6 327C296.373 327.943 296.859 329.088 297 330.3C296.973 330.796 296.833 331.279 296.59 331.712C296.348 332.146 296.009 332.518 295.6 332.8C295.239 333.123 294.801 333.347 294.328 333.452C293.856 333.557 293.364 333.539 292.9 333.4C291.773 332.949 290.824 332.141 290.2 331.1L289.2 329.8ZM291.4 330.4C291.898 331.129 292.545 331.742 293.3 332.2C293.586 332.297 293.891 332.321 294.189 332.268C294.486 332.216 294.765 332.089 295 331.9C295.256 331.745 295.466 331.524 295.607 331.26C295.747 330.996 295.814 330.699 295.8 330.4C295.674 329.559 295.33 328.765 294.8 328.1L293.5 326.3C293.002 325.571 292.355 324.957 291.6 324.5C291.33 324.357 291.022 324.3 290.719 324.336C290.415 324.371 290.13 324.498 289.9 324.7C289.659 324.871 289.462 325.095 289.323 325.355C289.184 325.616 289.108 325.905 289.1 326.2C289.225 327.041 289.57 327.834 290.1 328.5L291.4 330.4Z" fill="#D8D8D8"/>
<path d="M280.6 329.9L281.8 329.1L286.8 336.8L288.6 334.4L289.3 335.4L286.8 338.8L286.6 338.9L280.6 329.9Z" fill="#D8D8D8"/>
<path d="M272.7 334.7L273.9 334L278.4 342L280.3 339.7L280.9 340.8L278.2 344L278 344.1L272.7 334.7Z" fill="#D8D8D8"/>
<path d="M264.4 339L265.6 338.4L269.7 346.6L271.7 344.5L272.3 345.6L269.4 348.7L269.2 348.8L264.4 339Z" fill="#D8D8D8"/>
<path d="M255.8 348C255.234 346.889 254.992 345.642 255.1 344.4C255.219 343.921 255.455 343.478 255.787 343.112C256.118 342.745 256.535 342.467 257 342.3C257.433 342.077 257.913 341.961 258.4 341.961C258.887 341.961 259.367 342.077 259.8 342.3C260.768 342.998 261.501 343.975 261.9 345.1L262.6 346.8C263.15 347.915 263.359 349.167 263.2 350.4C263.081 350.879 262.845 351.322 262.513 351.688C262.182 352.055 261.765 352.333 261.3 352.5C260.875 352.747 260.392 352.877 259.9 352.877C259.408 352.877 258.925 352.747 258.5 352.5C257.532 351.802 256.799 350.825 256.4 349.7L255.8 348ZM257.8 349.1C258.3 350.2 258.7 350.9 259.3 351.2C259.54 351.387 259.831 351.497 260.134 351.515C260.438 351.532 260.74 351.458 261 351.3C261.277 351.192 261.522 351.016 261.715 350.789C261.907 350.562 262.039 350.291 262.1 350C262.14 349.17 261.968 348.344 261.6 347.6L260.7 345.6C260.374 344.762 259.861 344.01 259.2 343.4C258.959 343.221 258.675 343.109 258.377 343.073C258.078 343.038 257.776 343.082 257.5 343.2C257.223 343.308 256.978 343.484 256.786 343.711C256.593 343.938 256.461 344.209 256.4 344.5C256.366 345.361 256.538 346.218 256.9 347L257.8 349.1Z" fill="#D8D8D8"/>
<path d="M189.9 352.6C187.7 352.6 185.4 352.5 183.1 352.4C180.4 352.2 177.6 352 174.9 351.7L175.6 345.6C178.2 345.9 180.9 346.1 183.5 346.2C185.7 346.3 187.9 346.4 190 346.4L189.9 352.6ZM193.6 352.6L193.5 346.5C198.311 346.483 203.117 346.216 207.9 345.7L208.5 351.8C203.55 352.318 198.577 352.585 193.6 352.6V352.6ZM171.2 351.2C166.3 350.6 161.3 349.7 156.4 348.6L157.8 342.6C162.486 343.684 167.226 344.518 172 345.1L171.2 351.2ZM212.3 351.4L211.5 345.3C216.274 344.718 221.014 343.884 225.7 342.8L227 348.8C222.151 349.934 217.244 350.802 212.3 351.4V351.4ZM152.7 347.7C147.829 346.477 143.023 345.008 138.3 343.3L140.4 337.5C144.9 339.1 149.6 340.5 154.2 341.7L152.7 347.7ZM230.8 348L229.3 342C233.973 340.891 238.58 339.523 243.1 337.9L245.1 343.7C240.5 345.3 235.6 346.8 230.8 348V348ZM134.9 342C130.2 340.2 125.6 338.2 121.1 336L123.8 330.5C128.1 332.6 132.5 334.6 137 336.3L134.9 342ZM248.7 342.4L246.5 336.6C251 334.9 255.4 333 259.8 330.9L262.5 336.4C258.03 338.687 253.421 340.691 248.7 342.4V342.4ZM117.8 334.3C113.4 332 109 329.4 104.9 326.7L108.2 321.6C112.239 324.246 116.411 326.683 120.7 328.9L117.8 334.3ZM265.9 334.8L263.1 329.3C267.3 327.1 271.6 324.7 275.6 322.1L278.9 327.3C274.7 330 270.3 332.5 265.9 334.8ZM101.7 324.7C97.6 321.9 93.6 318.8 89.7 315.7L93.6 311C97.3 314.1 101.2 317 105.1 319.7L101.7 324.7ZM282 325.2L278.6 320.1C282.6 317.4 286.5 314.5 290.2 311.5L294.1 316.3C290.2 319.4 286.1 322.4 282 325.2ZM86.9 313.2C83.1 309.9 79.5 306.4 76.1 302.8L80.5 298.6C83.8 302.1 87.3 305.4 90.9 308.6L86.9 313.2ZM296.9 313.8L292.9 309.2C296.5 306.1 300.1 302.7 303.4 299.3L307.8 303.6C304.4 307.1 300.7 310.6 296.9 313.8ZM73.5 300.1C70.1 296.4 66.9 292.5 63.9 288.5L68.8 284.8C71.7 288.6 74.8 292.4 78 295.9L73.5 300.1ZM310.4 300.8L305.9 296.6C309.185 293.059 312.289 289.354 315.2 285.5L320.1 289.2C317.08 293.24 313.842 297.113 310.4 300.8V300.8ZM61.7 285.5C58.8 281.4 56 277.2 53.5 272.9L58.8 269.8C61.2103 273.975 63.8476 278.014 66.7 281.9L61.7 285.5ZM322.3 286.3L317.3 282.7C320.14 278.806 322.777 274.767 325.2 270.6L330.5 273.7C328 278 325.2 282.3 322.3 286.3ZM51.7 269.6C49.3 265.2 47.1 260.7 45.1 256.1L50.7 253.7C52.6117 258.106 54.7478 262.412 57.1 266.6L51.7 269.6ZM332.4 270.5L327 267.5C329.4 263.3 331.5 259 333.5 254.6L339.1 257.1C337.1 261.7 334.8 266.2 332.4 270.5ZM43.5 252.7C41.5966 248.087 39.9278 243.381 38.5 238.6L44.4 236.8C45.8 241.4 47.4 246 49.2 250.4L43.5 252.7ZM340.6 253.6L334.9 251.2C336.7 246.8 338.4 242.2 339.8 237.6L345.7 239.4C344.2 244.3 342.5 249 340.6 253.6ZM37.5 234.9C36.2 230.1 35.1 225.2 34.2 220.3L40.2 219.2C41.0282 223.951 42.0963 228.657 43.4 233.3L37.5 234.9ZM346.8 235.9L340.9 234.2C342.233 229.6 343.333 224.9 344.2 220.1L350.2 221.2C349.2 226.2 348.1 231.1 346.8 235.9ZM350.8 217.6L344.7 216.6C345.485 211.831 346.019 207.025 346.3 202.2L352.4 202.6C352.125 207.624 351.591 212.631 350.8 217.6V217.6ZM352.7 198.9L346.6 198.6C346.7 197.2 346.7 195.7 346.7 194.2C346.7 190.8 346.7 187.4 346.5 184.1L352.6 183.8C352.8 187.3 352.8 190.8 352.8 194.3C352.8 195.9 352.7 197.4 352.7 198.9ZM346.3 180.6C345.9 175.8 345.4 171 344.6 166.3L350.6 165.3C351.4 170.2 352 175.2 352.4 180.2L346.3 180.6ZM40 166L34 165C34.8169 160.049 35.8849 155.143 37.2 150.3L43.1 151.9C41.9 156.6 40.8 161.3 40 166ZM343.9 162.8C343.015 158.076 341.88 153.403 340.5 148.8L346.4 147.1C347.814 151.904 348.982 156.777 349.9 161.7L343.9 162.8ZM44.1 148.5L38.2 146.8C39.5779 141.982 41.2136 137.242 43.1 132.6L48.8 134.9C46.9804 139.342 45.4112 143.882 44.1 148.5V148.5ZM339.5 145.3C338 140.7 336.4 136.2 334.5 131.8L340.1 129.4C342.085 134.004 343.82 138.71 345.3 143.5L339.5 145.3ZM50.2 131.5L44.5 129.1C46.5 124.5 48.7 120 51 115.6L56.4 118.5C54.2 122.7 52 127.1 50.2 131.5ZM333 128.4C331 124 328.8 119.7 326.4 115.5L331.7 112.5C334.224 116.831 336.495 121.305 338.5 125.9L333 128.4ZM58.2 115.3L52.9 112.2C55.4 107.9 58.1 103.6 61 99.5L66 103C63.2 107.1 60.6 111.2 58.2 115.3ZM324.6 112.4C322.1 108.3 319.4 104.3 316.6 100.4L321.5 96.8C324.507 100.802 327.278 104.976 329.8 109.3L324.6 112.4ZM68.1 100.2L63.2 96.5C66.2 92.5 69.4 88.6 72.7 84.9L77.3 89C74.0372 92.5678 70.9662 96.3064 68.1 100.2V100.2ZM314.4 97.6C311.458 93.7738 308.321 90.1022 305 86.6L309.5 82.4C312.9 86 316.2 89.9 319.2 93.8L314.4 97.6ZM79.6 86.4L75.1 82.2C78.501 78.5324 82.1067 75.0602 85.9 71.8L90 76.4C86.3637 79.5522 82.8924 82.89 79.6 86.4V86.4ZM302.6 84C299.2 80.6 295.7 77.3 292 74.2L296 69.5C299.8 72.7 303.5 76.2 307 79.7L302.6 84ZM92.7 74L88.7 69.3C92.5123 66.07 96.484 63.0328 100.6 60.2L104.1 65.2C100.2 67.9 96.4 70.9 92.7 74ZM289.2 71.8C285.484 68.767 281.612 65.9298 277.6 63.3L281 58.2C285.2 61 289.2 63.9 293.1 67.1L289.2 71.8ZM107.2 63.2L103.8 58.1C108 55.3 112.3 52.8 116.7 50.4L119.6 55.8C115.321 58.014 111.18 60.4852 107.2 63.2V63.2ZM274.5 61.3C270.434 58.7026 266.228 56.3323 261.9 54.2L264.7 48.7C269.195 50.9326 273.568 53.4027 277.8 56.1L274.5 61.3ZM122.8 54.1L120 48.6C124.4 46.4 129.1 44.3 133.7 42.5L135.9 48.2C131.5 50 127.1 52 122.8 54.1ZM258.8 52.6C254.475 50.4866 250.034 48.617 245.5 47L247.6 41.2C252.3 42.9 256.9 44.9 261.4 47L258.8 52.6ZM139.3 46.9L137.2 41.1C141.9 39.4 146.7 37.9 151.5 36.6L153.1 42.5C148.5 43.8 143.8 45.3 139.3 46.9ZM242.1 45.8C237.6 44.3 232.9 42.9 228.2 41.8L229.6 35.8C234.472 36.9417 239.279 38.3437 244 40L242.1 45.8ZM156.6 41.8L155.2 35.8C160.083 34.6168 165.022 33.6822 170 33L170.8 39.1C166.1 39.8 161.3 40.7 156.6 41.8ZM224.7 41C220.009 39.9902 215.27 39.2225 210.5 38.7L211.2 32.6C216.2 33.2 221.1 34 226 35L224.7 41ZM174.4 38.6L173.7 32.5C178.68 31.9147 183.686 31.5809 188.7 31.5L188.8 37.6C184 37.8 179.1 38.1 174.4 38.6V38.6ZM206.8 38.3C204.9 38.1 203 38 201 37.9C198.1 37.7 195.2 37.7 192.3 37.6V31.5C195.3 31.5 198.3 31.6 201.3 31.8C203.3 31.9 205.3 32.1 207.3 32.3L206.8 38.3Z" fill="#D8D8D8"/>
<path d="M192.1 351.2C104.5 351.2 33.2 279.9 33.2 192.3C33.2 104.7 104.5 33.3999 192.1 33.3999C279.7 33.3999 351 104.7 351 192.3C351 279.9 279.7 351.2 192.1 351.2ZM192.1 34.5999C105.2 34.5999 34.5 105.3 34.5 192.3C34.5 279.3 105.2 349.9 192.1 349.9C279 349.9 349.8 279.2 349.8 192.3C349.8 105.4 279 34.5999 192.1 34.5999V34.5999Z" fill="#D8D8D8"/>
<path d="M40.7 172.8H30.4V176.7H40.7V172.8Z" fill="#D8D8D8"/>
<path d="M40.7 207.3H30.4V211.2H40.7V207.3Z" fill="#D8D8D8"/>
<path d="M82.9 198.2H72.6V202.1H82.9V198.2Z" fill="#D8D8D8"/>
<path d="M82.9 181.2H72.6V185.1H82.9V181.2Z" fill="#D8D8D8"/>
<path d="M57.1 190H30.4V193.9H57.1V190Z" fill="#D8D8D8"/>
<path d="M40.7 195.8H30.4V199.7H40.7V195.8Z" fill="#D8D8D8"/>
<path d="M82.9 187.2H72.6V191.1H82.9V187.2Z" fill="#D8D8D8"/>
<path d="M82.9 192.8H72.6V196.7H82.9V192.8Z" fill="#D8D8D8"/>
<path d="M68.9 166.4L52.7 163.7L53.7 158.1L54.4 153.8L70.6 156.6L68.9 166.4Z" fill="#D8D8D8"/>
<path d="M40.7 178.5H30.4V182.4H40.7V178.5Z" fill="#D8D8D8"/>
<path d="M40.7 184.3H30.4V188.2H40.7V184.3Z" fill="#D8D8D8"/>
<path d="M40.7 201.5H30.4V205.4H40.7V201.5Z" fill="#D8D8D8"/>
<path d="M76.7 196H65V188.5H77V189.7H66.2V194.7H76.7V196Z" fill="#D8D8D8"/>
<path d="M65.6 191.2H55.2V192.4H65.6V191.2Z" fill="#D8D8D8"/>
<path d="M47.1 176.4H33V175.1L46.8 175.2L52.2 172L53.7 163.1L54.9 163.3L53.4 172.8L47.1 176.4Z" fill="#D8D8D8"/>
<path d="M37.2 180.7L37.1 179.4L48.7 179.2L54.1 175.7L56.2 163.5L57.4 163.7L55.2 176.5L49.1 180.4L37.2 180.7Z" fill="#D8D8D8"/>
<path d="M40 181.4V180.2L51 179.9L56.9 176.1L59.3 162.7L60.5 163L58 176.8L51.4 181.1L40 181.4Z" fill="#D8D8D8"/>
<path d="M52.7 187L34.2 186.8V185.6L52.2 185.8L59.1 179.2L62.2 161L63.5 161.2L60.2 179.8L52.7 187Z" fill="#D8D8D8"/>
<path d="M56.1 188.1L37 187.5L37.1 186.3L55.7 186.9L62.2 181.7L66.1 161.4L67.3 161.6L63.3 182.4L56.1 188.1Z" fill="#D8D8D8"/>
<path d="M192.6 338H192.3C157.9 337.9 124.2 325.1 97.4 301.9C70.5099 278.504 52.6166 246.466 46.8 211.3L44.3 210.6L11.2 209.8V208.6L44.4 209.4L47.8 210.3L47.9 210.7C59.6 282.4 121.6 336.6 192.2 336.8H192.5C230.3 336.8 267.6 321.1 295.1 293.6C322.8 265.9 338 229.4 337.9 190.8C337.6 112.1 271.1 45.8 192.5 45.8H192.2C121.1 45.9 59 100.4 47.8 172.6V172.9L42 175.7L35.5 175.4H3.20001V174.2H35.5L41.7 174.5L46.6 172.1C58.1 99.5 120.6 44.7 192.3 44.5H192.6C230.2 44.5 267.5 60 295 87C308.912 100.484 319.989 116.612 327.579 134.438C335.17 152.263 339.121 171.426 339.2 190.8C339.3 229.7 324 266.5 296.1 294.5C268.4 322.2 230.7 338 192.6 338Z" fill="#D8D8D8"/>
<path d="M191.4 321.9H191.2C127.9 321.8 78.8 272.3 64.8 225.7C62.9354 219.496 61.6302 213.137 60.9 206.7L54.7 197.9L9.09998 197.6V196.4L55.4 196.7L62.1 206.5C62.8066 212.9 64.0782 219.225 65.9 225.4C79.8 271.5 128.4 320.6 191.2 320.7H191.4C224.7 320.7 258 306.6 282.7 281.9C307.4 257.2 321.1 224.7 321.1 190.6C321.1 121.6 265.7 63.4002 197.6 60.9002C137.3 58.5002 82.4 100.8 67 161.3L65.8 161C81.3 99.9002 136.8 57.2002 197.7 59.5002C266.4 62.1002 322.3 120.8 322.4 190.4C322.4 224.8 308.6 257.6 283.6 282.6C258.6 307.6 225.1 321.9 191.4 321.9Z" fill="#D8D8D8"/>
<path d="M192.1 315.5C163.291 315.515 135.371 305.519 113.117 287.224C90.8629 268.928 75.6569 243.468 70.1 215.2C69.4 211.5 68.8 207.4 68.8 207.3C68.6 205.7 68.4 204 68.2 202.4L54 192.6L54.6 191.7L54 190.8L68 181.1L68.3 177.6C68.3 177.6 68.5 175.3 68.8 173.5C73.1352 143.173 88.5028 115.509 111.961 95.8048C135.42 76.1005 165.321 65.7397 195.941 66.7055C226.562 67.6713 255.751 79.8958 277.921 101.039C300.091 122.183 313.685 150.76 316.1 181.3C318.698 214.213 308.116 246.81 286.68 271.921C265.245 297.032 234.713 312.6 201.8 315.2C198.8 315.4 195.4 315.5 192.1 315.5ZM55.1 191.8L69.5 201.8V202.1C69.7 203.8 69.8 205.5 70.1 207.3C70.1 207.3 70.6 211.2 71.4 215C75.9818 238.324 87.2111 259.824 103.735 276.911C120.258 293.998 141.371 305.941 164.528 311.302C187.685 316.662 211.898 315.211 234.249 307.123C256.6 299.036 276.135 284.657 290.5 265.719C304.864 246.781 313.446 224.093 315.209 200.39C316.973 176.686 311.844 152.978 300.439 132.123C289.035 111.268 271.843 94.1561 250.935 82.8499C230.027 71.5436 206.295 66.5254 182.6 68.4001C125.5 72.8001 78.3 117.1 70.3 173.7C70 175.7 69.8 177.7 69.8 177.8L69.4 181.9L55.1 191.8Z" fill="#D8D8D8"/>
<path d="M192.3 309.9C168.804 309.9 145.835 302.932 126.298 289.878C106.762 276.825 91.5348 258.271 82.5431 236.563C73.5514 214.855 71.1988 190.968 75.7827 167.923C80.3666 144.878 91.6812 123.71 108.296 107.096C124.91 90.4811 146.078 79.1665 169.123 74.5826C192.168 69.9986 216.055 72.3513 237.763 81.343C259.471 90.3347 278.025 105.562 291.079 125.098C304.132 144.635 311.1 167.603 311.1 191.1C311.063 222.596 298.535 252.792 276.263 275.063C253.992 297.335 223.796 309.863 192.3 309.9V309.9ZM192.3 73.4999C169.041 73.4999 146.304 80.397 126.965 93.319C107.626 106.241 92.5526 124.608 83.6518 146.096C74.7509 167.585 72.422 191.23 76.9596 214.042C81.4973 236.855 92.6976 257.809 109.144 274.256C125.591 290.702 146.545 301.903 169.357 306.44C192.17 310.978 215.815 308.649 237.304 299.748C258.792 290.847 277.159 275.774 290.081 256.435C303.003 237.096 309.9 214.359 309.9 191.1C309.866 159.921 297.465 130.029 275.418 107.982C253.371 85.9353 223.479 73.5343 192.3 73.4999V73.4999Z" fill="#D8D8D8"/>
<path d="M192.2 304.3C190.6 304.3 188.9 304.3 187.3 304.2C184.1 304.1 180.8 303.8 177.6 303.4C171.806 302.701 166.084 301.497 160.5 299.8C150.568 296.908 141.08 292.669 132.3 287.2C98.5 266.1 86 230.5 84.7 226.6C81.2626 216.028 79.3763 205.013 79.1 193.9H80.3C80.5509 204.877 82.4038 215.758 85.8 226.2C87.1 230.1 99.5 265.3 132.9 286.2C141.6 291.594 150.983 295.798 160.8 298.7C166.331 300.316 171.982 301.486 177.7 302.2C180.8 302.6 184.1 302.9 187.3 303C189.5 303.1 191.8 303.1 194 303.1L197.2 296.6L198.3 297.1L194.8 304.2H194.4C193.7 304.2 193 304.3 192.2 304.3Z" fill="#D8D8D8"/>
<path d="M246.9 290.2L234.6 286.8L234.9 285.6L246.7 288.9C249.3 287.4 251.9 285.9 254.3 284.2C256.9 282.4 259.5 280.6 262 278.6C262 278.6 264.7 276.4 267.2 274.1C273.324 268.447 278.853 262.18 283.7 255.4C289.909 246.296 294.885 236.41 298.5 226C298.6 225.8 304.9 206.2 304 185.8C302.3 148.9 262.5 80.0999 192.4 80.0999H192.3C131.6 80.1999 81.4 130.4 80.4 192.1H79.2C80.2 129.8 131 78.9999 192.4 78.8999H192.5C263.4 78.8999 303.7 148.4 305.3 185.7C306.2 206.3 299.8 226.1 299.7 226.3C298.3 230.7 293.9 242.2 284.8 256C279.851 262.82 274.259 269.149 268.1 274.9C265.6 277.2 262.8 279.4 262.8 279.4C260.3 281.4 257.7 283.3 255 285.1C252.4 286.8 249.7 288.5 247 290L246.9 290.2Z" fill="#D8D8D8"/>
<path d="M191.3 326.3C185.146 326.321 178.999 325.92 172.9 325.1C158.1 323 120.6 314.6 91 281.6C73.515 262.07 62.0541 237.898 58 212L52 204.5L34.4 204.3V203.1L52.5 203.3L59 211.5V211.7C63.0337 237.397 74.3866 261.387 91.7 280.8C121 313.5 158.2 321.8 172.9 323.9C187.4 325.9 225.1 328.3 262.5 305.4C275.5 297.4 307.2 274.3 320.5 231.6C338.2 174.7 309.8 126.8 303.9 117.8C296 105.7 266 65.6001 211.7 57.6001C161 50.1001 123 75.1002 109 86.1002C77.8 110.8 65.5 142.7 61 159.6L59.8 159.3C64.4 142.3 76.8 110.1 108.3 85.2002C122.5 73.8002 160.9 48.7002 212 56.2002C266.9 64.3002 297.1 104.8 305.1 117C311 126.1 339.8 174.4 321.9 231.8C308.5 274.9 276.5 298.3 263.3 306.3C241.6 319.47 216.684 326.391 191.3 326.3V326.3Z" fill="#D8D8D8"/>
<path d="M192 331.3C188.4 331.3 184.7 331.1 180.9 330.8C133.2 326.7 100.8 297.6 94.8 291.8C72.7775 270.398 58.2865 242.434 53.5 212.1L47 204.7L37.5 204.6L31.8 203.5L8.59998 203.6V202.4L31.9 202.3L37.6 203.4L47.5 203.5L54.6 211.6V211.8C57.3 229.2 66.2 262.7 95.6 291C101.5 296.7 133.6 325.6 180.9 329.7C184.7 330 188.5 330.2 192.1 330.2C236.5 330.1 280.1 307.6 306 271.4C315.947 257.467 323.205 241.798 327.4 225.2C330.731 212.039 332.146 198.466 331.6 184.9C329.4 133 296.8 97.5001 293 93.7001C255 54.1001 206.7 50.9001 192.3 50.9001H192C135.2 51.1001 98.8 86.1001 89 96.8001C74.8798 112.272 64.3613 130.68 58.2 150.7C57.3 153.7 56.4 156.8 55.7 159.9L54.5 159.6C55.3 156.5 56.1 153.4 57.1 150.3C63.304 130.106 73.8892 111.531 88.1 95.9001C98 85.1001 134.8 49.8001 192 49.6001C206.1 49.6001 255.3 52.6001 293.9 92.8001C297.7 96.7001 330.6 132.5 332.8 184.8C333.341 198.464 331.927 212.136 328.6 225.4C324.339 242.165 317.016 257.997 307 272.1C280.9 308.6 236.8 331.3 192.1 331.4C192.2 331.3 192.1 331.3 192 331.3Z" fill="#D8D8D8"/>
<path d="M10.3273 179.469L10.3036 180.668L32.0994 181.098L32.1231 179.899L10.3273 179.469Z" fill="#D8D8D8"/>
<path d="M34.2 185.6H9.09998V186.8H34.2V185.6Z" fill="#D8D8D8"/>
<path d="M36.5 191.2H8.5V192.4H36.5V191.2Z" fill="#D8D8D8"/>
<path d="M236.7 257L236 256C244.5 249.9 259.7 236.6 266.6 215.6C269.15 207.716 270.465 199.486 270.5 191.2C270.45 182.915 269.135 174.687 266.6 166.8C264.685 160.94 262.137 155.307 259 150L260 149.4C263.203 154.805 265.817 160.538 267.8 166.5C270.408 174.51 271.757 182.876 271.8 191.3C271.783 199.726 270.433 208.096 267.8 216.1C260.7 237.3 245.3 250.9 236.7 257Z" fill="#D8D8D8"/>
<path d="M231.8 253.2L231.1 252.2C239.5 246.5 254.6 234 261.2 213.9C263.565 206.565 264.78 198.907 264.8 191.2C264.802 183.491 263.587 175.83 261.2 168.5C260.056 165.129 258.652 161.853 257 158.7V158.7C256.4 157.6 255.8 156.4 255.1 155.3L256.2 154.7C256.9 155.8 257.5 157 258.1 158.1C259.757 161.32 261.161 164.663 262.3 168.1C264.781 175.548 266.031 183.35 266 191.2C265.96 199.044 264.712 206.836 262.3 214.3C255.6 234.7 240.3 247.4 231.8 253.2Z" fill="#D8D8D8"/>
<path d="M227.8 249.4L227.2 248.3C237.026 242.364 245.147 233.985 250.772 223.979C256.397 213.972 259.335 202.679 259.3 191.2C259.309 184.103 258.195 177.049 256 170.3C254.809 166.804 253.303 163.423 251.5 160.2L252.6 159.6C258.02 169.202 260.782 180.076 260.6 191.1C260.57 202.811 257.539 214.318 251.797 224.524C246.055 234.73 237.793 243.295 227.8 249.4V249.4Z" fill="#D8D8D8"/>
<path d="M192.3 253.7V252.5C201.375 252.495 210.336 250.477 218.536 246.59C226.737 242.704 233.973 237.045 239.722 230.024C245.471 223.002 249.59 214.793 251.783 205.986C253.975 197.18 254.186 187.997 252.4 179.1L253.6 178.9C254.405 182.984 254.807 187.137 254.8 191.3C254.755 207.853 248.153 223.714 236.438 235.409C224.724 247.104 208.853 253.681 192.3 253.7V253.7Z" fill="#D8D8D8"/>
<path d="M252.4 179.2L250.6 174.5L247.2 172.4L236.3 174.9L236 173.7L247.4 171.1L251.6 173.6L253.5 178.7L252.4 179.2Z" fill="#D8D8D8"/>
<path d="M192.3 248.3L192.2 247.1H192.3C198.214 247.122 204.092 246.176 209.7 244.3C213.145 243.185 216.464 241.71 219.6 239.9C225.141 236.757 230.111 232.7 234.3 227.9C238.838 222.699 242.365 216.696 244.7 210.2C246.419 205.435 247.462 200.454 247.8 195.4C248.202 189.97 247.797 184.511 246.6 179.2L247.8 178.9C248.981 184.315 249.418 189.866 249.1 195.4C248.739 200.59 247.662 205.705 245.9 210.6C241.303 223.459 232.211 234.221 220.3 240.9C217.051 242.721 213.636 244.228 210.1 245.4C204.359 247.31 198.35 248.289 192.3 248.3V248.3Z" fill="#D8D8D8"/>
<path d="M247.2 180.6C248.084 180.6 248.8 179.884 248.8 179C248.8 178.116 248.084 177.4 247.2 177.4C246.316 177.4 245.6 178.116 245.6 179C245.6 179.884 246.316 180.6 247.2 180.6Z" fill="#D8D8D8"/>
<path d="M214.4 237.4L213.9 236.3C219.482 233.641 224.505 229.942 228.7 225.4C233.297 220.279 236.832 214.297 239.1 207.8C242.521 198.213 243.247 187.871 241.2 177.9L208.7 209.8L216.6 217.5L215.7 218.4L206.8 209.8L241.8 175.5L242 176.6C243.181 182.015 243.618 187.566 243.3 193.1C242.919 198.287 241.842 203.399 240.1 208.3C237.881 215.012 234.268 221.18 229.5 226.4C225.165 230.941 220.051 234.667 214.4 237.4V237.4Z" fill="#D8D8D8"/>
<path d="M217 222.5C219.099 222.5 220.8 220.799 220.8 218.7C220.8 216.601 219.099 214.9 217 214.9C214.901 214.9 213.2 216.601 213.2 218.7C213.2 220.799 214.901 222.5 217 222.5Z" fill="#D8D8D8"/>
<path d="M87.7 185.9C88.1 183.5 88.5 181.2 88.8 178.8C91.8783 158.43 100.964 139.441 114.895 124.263C128.825 109.086 146.968 98.4091 167 93.5999C181.167 90.2551 195.869 89.8467 210.2 92.3999C210.537 92.4462 210.871 92.513 211.2 92.5999C210.75 93.1779 210.248 93.7135 209.7 94.1999C205.3 98.5999 200.8 102.9 196.4 107.3C195.886 107.87 195.251 108.319 194.542 108.613C193.833 108.907 193.067 109.039 192.3 109C172.792 108.698 153.771 115.096 138.412 127.126C123.052 139.155 112.282 156.089 107.9 175.1C97 221.8 127.9 269 175.3 277.7C175.622 277.814 175.959 277.882 176.3 277.9C180.5 277.8 183.4 280 186.1 283C190.1 287.4 194.4 291.5 198.6 295.7C198.959 296.268 199.261 296.871 199.5 297.5C185.347 298.528 171.136 296.552 157.8 291.7C119.7 277.8 95.2 242 88.7 209.4C88.1 206.4 87.8 204 87.5 202.3C87.7 197 87.7 191.4 87.7 185.9Z" fill="black"/>
<path d="M147.9 258.9C147.7 258.8 147.5 258.6 147.3 258.5V222.4C147.292 221.745 147.428 221.096 147.7 220.5C147.908 219.984 148.254 219.534 148.7 219.2C150.4 217.6 151.9 216 153.5 214.3C157 210.9 160.5 207.5 164 204C166.5 201.5 169 199 171.5 196.4C180.4 187.4 191.9 176.2 195.7 172.5C207.8 160.4 233.9 134.6 275.6 93.6001C275.8 112.7 275.9 126.6 275.8 128.4C275.718 129.388 275.517 130.361 275.2 131.3C274.969 131.87 274.667 132.407 274.3 132.9C271.7 136.7 196 210.7 192.4 214.3L189 217.7C185.4 221.3 179.7 226.9 172.9 233.7C162.2 244.4 153.5 253.2 147.9 258.9Z" fill="black"/>
<path d="M172.8 233.8C178.8 227.9 184.9 222 190.9 216C198.1 223.1 205.3 230.2 212.5 237.4C221.1 245.9 229.6 254.4 238.2 263C238.691 263.441 239.159 263.909 239.6 264.4C244.539 261.152 249.071 257.325 253.1 253C270.1 234.7 278 213.1 276.4 188.2C275.669 176.666 272.499 165.419 267.1 155.2C266.742 154.746 266.564 154.177 266.6 153.6C266.697 153.243 266.908 152.927 267.2 152.7C268.1 151.9 272.9 147 279.7 140.2C280.103 140.777 280.47 141.378 280.8 142C291.6 160.7 296.7 180.8 294.6 202.2C290.5 243.5 269 272.6 231.2 289.8C230.696 290.084 230.108 290.179 229.54 290.069C228.972 289.959 228.462 289.651 228.1 289.2C209.7 270.6 191.2 252.2 172.8 233.8Z" fill="black"/>
<path d="M147.3 206.2C147.3 193.9 147.2 181.5 147.3 169.2C147.449 168.304 147.91 167.49 148.6 166.9C165.933 149.6 183.3 132.3 200.7 115L255 61.0002C255.5 60.5002 256 60.0002 256.9 59.2002V96.1002C256.865 97.1805 256.439 98.2113 255.7 99.0002C226 128.6 196.267 158.134 166.5 187.6C165.8 188.3 165.2 189 164.6 189.7C163.3 190.9 162 192 160.8 193.2C156.1 197.6 151.7 201.9 147.3 206.2Z" fill="black"/>
<path d="M149.4 207.6C153.8 203.4 158.1 199.1 162.5 194.9C163.7 193.7 165 192.6 166.3 191.4C168.6 193.6 170.9 195.8 173.2 198.1C170.7 200.6 168.3 203.1 165.8 205.5C162.4 208.9 158.9 212.3 155.5 215.6C153.9 214.1 152.4 212.5 150.8 211.1C150.243 210.723 149.813 210.189 149.563 209.565C149.313 208.941 149.257 208.256 149.4 207.6V207.6Z" fill="black"/>
<path d="M205 298.5C199.082 299.034 193.133 299.134 187.2 298.8C182.1 298.5 178.3 298.1 177 297.9C173.401 297.418 169.83 296.751 166.3 295.9C125.4 285.9 94 251.1 88 209.5C87.8 207.9 87.5 206.4 87.2 204.8L86.8 202.1V185.2L87.2 183C87.5 181.4 87.7 179.8 88 178.3C91.1684 157.555 100.44 138.222 114.633 122.765C128.827 107.307 147.3 96.4232 167.7 91.5002C182.165 88.0985 197.172 87.6901 211.8 90.3002C212.042 90.3329 212.277 90.4003 212.5 90.5002L217.1 91.6002L213.7 95.3002C213.3 95.7002 213 96.1002 212.7 96.4002C211.4 97.7002 210 99.0002 208.7 100.3C205.7 103.3 202.5 106.3 199.5 109.4C198.759 110.189 197.858 110.811 196.858 111.224C195.858 111.638 194.782 111.834 193.7 111.8C174.843 111.456 156.441 117.609 141.583 129.226C126.725 140.843 116.315 157.217 112.1 175.6C109.564 186.331 109.259 197.469 111.203 208.323C113.146 219.177 117.298 229.516 123.4 238.7C130.421 249.501 139.873 258.508 151 265C159.7 270 173 273.7 177.2 274.7C177.3 274.7 177.9 274.9 178.7 275.1C178.7 275.1 185.1 276.9 189.3 280.7C189.552 280.95 189.819 281.184 190.1 281.4C190.5 281.9 190.9 282.2 191.1 282.5C195.8 287.9 202.1 295.1 205 298.5ZM187 294.2H195.6L193.6 292.2C190.9 289.6 188.2 286.8 185.6 284C183.587 281.711 180.819 280.22 177.8 279.8C177.2 279.7 176.6 279.6 176.2 279.5C164.663 277.336 153.682 272.866 143.913 266.358C134.144 259.85 125.788 251.438 119.346 241.626C112.904 231.814 108.508 220.802 106.421 209.251C104.334 197.7 104.599 185.847 107.2 174.4C111.679 154.932 122.701 137.59 138.426 125.268C154.15 112.947 173.626 106.393 193.6 106.7C194.013 106.757 194.435 106.704 194.821 106.546C195.207 106.388 195.545 106.131 195.8 105.8C198.9 102.7 202 99.6002 205 96.7002L207.1 94.6002C194.309 92.7076 181.274 93.2846 168.7 96.3002C129.1 105.7 98.6 138.9 92.7 179C92.5 180.6 92.2 182.2 91.9 183.8L91.6 185.8V201.9L91.9 203.9C92.2 205.5 92.4 207.1 92.7 208.7C95.5699 227.604 103.775 245.296 116.352 259.697C128.929 274.098 145.355 284.611 163.7 290C164.9 290.3 166.1 290.7 167.3 291C167.5 291 168.9 291.3 171.2 291.7C172.9 292 175.1 292.4 177.6 292.9C179 293.2 180.3 293.4 181.4 293.6C182.5 293.8 187 294.2 187 294.2Z" fill="#D8D8D8"/>
<path d="M149.5 261.4L146.1 259.2V222C146.037 220.965 146.244 219.931 146.7 219C147.11 218.214 147.651 217.504 148.3 216.9C149.4 215.9 150.5 214.8 151.6 213.6C152.1 213.1 152.5 212.6 153 212.1L156.2 209C158.6 206.6 161.1 204.2 163.5 201.9L168.6 196.8L170.9 194.4C179.6 185.6 190.7 174.8 195.1 170.6C207.3 158.4 234 132 274.7 92.2001L278.8 88.1001L278.9 93.9001C279.1 113 279.2 126.8 279.1 128.6C279.054 129.839 278.783 131.059 278.3 132.2C278.003 132.903 277.634 133.573 277.2 134.2C276.2 135.7 267 145.4 199.3 211.6C197.2 213.7 195.7 215.1 195.3 215.5L191.9 218.9C188.3 222.5 182.7 228 175.9 234.8C167.5 243.2 159.2 251.6 151.1 259.8L149.5 261.4ZM273.8 99.8001C235.5 137.4 210.2 162.4 198.4 174.2C194 178.4 182.9 189.2 174.3 197.9L172 200.3C170.3 202 168.6 203.8 166.9 205.5C164.5 207.9 162 210.3 159.6 212.7L156.5 215.8C156.042 216.243 155.608 216.711 155.2 217.2C154.1 218.4 152.9 219.6 151.7 220.7C151.537 220.841 151.402 221.01 151.3 221.2C151.223 221.46 151.19 221.73 151.2 222V253C158.1 246 165.2 238.8 172.4 231.7C179.2 224.9 184.8 219.3 188.5 215.8L191.9 212.4C192.3 212 193.7 210.6 195.9 208.5C260.8 145 272.1 133.2 273.1 131.8C273.4 131.3 273.7 130.7 273.7 130.7C273.95 130.028 274.086 129.318 274.1 128.6C274 127 274 116.5 273.8 99.8001Z" fill="#D8D8D8"/>
<path d="M230.8 291.6C230.117 291.57 229.447 291.405 228.829 291.113C228.211 290.821 227.657 290.409 227.2 289.9C212 274.7 196.767 259.5 181.5 244.3L170.4 233.2L191.9 212.1L199.7 219.8C204.9 224.9 210 230 215.2 235.1C220.9 240.7 226.6 246.4 232.3 252L240.8 260.4C244.938 257.51 248.759 254.192 252.2 250.5C268.6 232.8 276.2 211.7 274.7 187.9C273.981 176.783 270.914 165.945 265.7 156.1L265.6 155.9C265.051 155.038 264.805 154.018 264.9 153C265.044 152.051 265.545 151.193 266.3 150.6C267.2 149.8 273.1 143.8 278.6 138.2L280.8 136L282.8 139.2C283.1 139.6 283.3 140.1 283.6 140.5C295 160.1 299.7 180.8 297.7 201.9C293.6 243.4 271.9 273.4 233.1 291C232.403 291.408 231.607 291.616 230.8 291.6V291.6ZM177.5 233.3L185.1 240.9C200.3 256.1 215.6 271.3 230.8 286.5L231 286.7H231.1C268.1 269.9 288.9 241.2 292.8 201.6C294.7 181.9 290.4 162.6 279.9 144.2C274.8 149.3 271.5 152.7 270.1 154C275.619 164.469 278.857 175.989 279.6 187.8C281.2 213 273.2 235.4 255.8 254.1C251.665 258.585 246.997 262.548 241.9 265.9L240.3 267L238.4 265.2L237.5 264.3L229 255.8C223.3 250.2 217.6 244.5 211.9 238.9C206.8 233.8 201.6 228.7 196.4 223.6L192.1 219.4L177.5 233.3Z" fill="#D8D8D8"/>
<path d="M146.1 211.7V169C146.217 167.428 146.933 165.96 148.1 164.9C162.5 150.5 176.9 136.166 191.3 121.9L254 59.5998L255.1 58.4998L260.1 53.7998V68.8998C260.1 77.8998 260.1 87.1998 260 96.2998C259.937 98.0597 259.224 99.7339 258 101C234 124.866 210 148.7 186 172.5L169.2 189.1C168.8 189.5 168.4 190 168 190.4L167.2 191.2C166.825 191.593 166.424 191.961 166 192.3C165.1 193.1 164.3 193.8 163.5 194.6C160.4 197.6 157.3 200.7 154.1 203.7L146.1 211.7ZM151.1 169.2C151 179.1 151.1 189.2 151.1 199V200C154.1 197.1 157.1 194.1 160.1 191.2C161.015 190.418 161.883 189.583 162.7 188.7C163.089 188.392 163.456 188.058 163.8 187.7L164.3 187.1C164.8 186.6 165.2 186.1 165.7 185.6L182.5 169C206.5 145.2 230.6 121.3 254.5 97.4998C254.784 97.1593 254.958 96.741 255 96.2998C255.1 87.1998 255.1 77.8998 255.1 68.8998V65.4998L194.8 125.5C180.4 139.8 166 154.133 151.6 168.5C151.3 168.8 151.1 169 151.1 169.2Z" fill="#D8D8D8"/>
<path d="M154.7 217.4L153 215.7L151.6 214.3C150.5 213.2 149.5 212.2 148.4 211.2C147.552 210.519 146.907 209.618 146.536 208.595C146.166 207.572 146.084 206.466 146.3 205.4L146.4 204.6L150.8 200.3C153.9 197.2 157 194.2 160.2 191.2C161.115 190.418 161.983 189.584 162.8 188.7C163.2 188.3 163.6 188 164 187.6L165.7 186L176.1 196.1L172 200.2C170.3 201.9 168.6 203.7 166.8 205.4C164.4 207.8 161.9 210.2 159.5 212.6L154.7 217.4ZM151.1 206.9C151.23 207.128 151.399 207.331 151.6 207.5C152.7 208.5 153.7 209.5 154.7 210.5L156.1 209.1C158.5 206.7 161 204.3 163.4 202C165.1 200.3 166.8 198.6 168.5 196.8L169 196.2L165.5 192.8C164.786 193.381 164.117 194.016 163.5 194.7C160.4 197.7 157.3 200.8 154.1 203.8L151.1 206.9Z" fill="#D8D8D8"/>
<path d="M192.3 384.5C86.2 384.5 0 298.3 0 192.3C0 86.3 86.2 0 192.3 0C298.4 0 384.6 86.2 384.6 192.3C384.6 298.4 298.3 384.5 192.3 384.5ZM192.4 13.7C94.5 13.7 14.8 93.4 14.8 191.3C14.8 289.2 94.5 368.9 192.4 368.9C290.3 368.9 370 289.2 370 191.3C370 93.4 290.3 13.7 192.4 13.7V13.7Z" fill="#D8D8D8"/>
</svg>
