<?xml version="1.0" encoding="utf-8"?>
<!-- Generator: Adobe Illustrator 26.0.1, SVG Export Plug-In . SVG Version: 6.00 Build 0)  -->
<svg version="1.1" id="Capa_1" xmlns="http://www.w3.org/2000/svg" xmlns:xlink="http://www.w3.org/1999/xlink" x="0px" y="0px"
	 viewBox="0 0 384.5 384.7" style="enable-background:new 0 0 384.5 384.7;" xml:space="preserve">
<style type="text/css">
	.st0{display:none;}
	.st1{display:inline;fill:#EDEDED;}
	.st2{display:inline;fill:none;stroke:#F6F6F6;stroke-width:0.5099;stroke-miterlimit:10;}
	.st3{display:inline;fill:none;stroke:#F6F6F6;stroke-width:0.5353;stroke-miterlimit:10;}
	.st4{display:inline;fill:none;stroke:#F6F6F6;stroke-width:0.5316;stroke-miterlimit:10;}
	.st5{display:inline;fill:none;stroke:#F6F6F6;stroke-width:0.5442;stroke-miterlimit:10;}
	.st6{display:inline;fill:none;stroke:#F6F6F6;stroke-width:0.5429;stroke-miterlimit:10;}
	.st7{display:inline;fill:none;stroke:#FFFFFF;stroke-width:0.5316;stroke-miterlimit:10;}
	.st8{display:inline;}
	.st9{fill:none;stroke:#FFFFFF;stroke-width:0.5316;stroke-miterlimit:10;}
	.st10{display:inline;fill:#F6F6F6;}
	.st11{fill:none;stroke:#F6F6F6;stroke-width:0.5316;stroke-miterlimit:10;}
	.st12{fill:#F6F6F6;}
	.st13{fill:#EDEDED;}
	.st14{fill:#D5A940;}
	.st15{fill:#F7E6A4;}
	.st16{fill:#EACE76;}
	.st17{display:inline;opacity:0.56;fill:none;stroke:#E30613;stroke-width:1.0566;stroke-miterlimit:10;enable-background:new    ;}
	.st18{display:inline;opacity:0.56;fill:none;stroke:#F6F6F6;stroke-width:0.5316;stroke-miterlimit:10;enable-background:new    ;}
	.st19{display:inline;opacity:0.56;fill:none;stroke:#E30613;stroke-miterlimit:10;enable-background:new    ;}
</style>
<g id="outter_ring" class="st0">
	<path class="st1" d="M190.3,332.2c-1.8,0-3.7-0.1-5.5-0.2c-2.2-0.1-4.5-0.3-6.7-0.5l0.5-5c2.1,0.2,4.3,0.4,6.4,0.5
		c1.8,0.1,3.6,0.2,5.3,0.2L190.3,332.2z M193.4,332.2l0-5c3.9,0,7.9-0.2,11.7-0.6l0.5,5C201.5,332,197.4,332.2,193.4,332.2z
		 M175.1,331.1c-4-0.5-8.1-1.2-12-2.1l1.1-4.9c3.8,0.9,7.7,1.6,11.6,2.1L175.1,331.1z M208.6,331.2l-0.6-5c3.9-0.5,7.8-1.1,11.6-2
		l1.1,4.9C216.7,330,212.6,330.7,208.6,331.2z M160.1,328.2c-3.9-1-7.9-2.2-11.7-3.5l1.7-4.7c3.7,1.3,7.5,2.5,11.2,3.4L160.1,328.2z
		 M223.6,328.5l-1.2-4.9c3.8-0.9,7.6-2.1,11.3-3.4l1.6,4.7C231.5,326.3,227.6,327.5,223.6,328.5z M145.5,323.6
		c-3.8-1.5-7.6-3.1-11.2-4.9l2.2-4.5c3.5,1.7,7.1,3.3,10.8,4.7L145.5,323.6z M238.2,323.9l-1.8-4.7c3.7-1.4,7.3-2.9,10.8-4.6
		l2.2,4.5C245.8,320.9,242.1,322.5,238.2,323.9z M131.6,317.4c-3.6-1.9-7.2-4-10.6-6.2l2.7-4.2c3.3,2.1,6.7,4.1,10.1,5.9
		L131.6,317.4z M252.2,317.7l-2.3-4.4c3.5-1.8,6.9-3.8,10.2-5.9l2.7,4.2C259.4,313.8,255.8,315.9,252.2,317.7z M118.5,309.5
		c-3.3-2.3-6.6-4.8-9.8-7.4l3.2-3.9c3,2.5,6.2,4.9,9.4,7.1L118.5,309.5z M265.4,309.9l-2.8-4.1c3.2-2.2,6.4-4.5,9.4-7l3.2,3.9
		C272,305.2,268.7,307.7,265.4,309.9z M106.4,300.1c-3.1-2.7-6-5.5-8.8-8.5l3.6-3.5c2.7,2.8,5.6,5.6,8.5,8.1L106.4,300.1z
		 M277.5,300.7l-3.3-3.8c3-2.5,5.8-5.3,8.5-8.1l3.6,3.5C283.6,295.2,280.6,298,277.5,300.7z M95.5,289.5c-2.7-3-5.4-6.2-7.8-9.4l4-3
		c2.3,3.1,4.9,6.2,7.5,9.1L95.5,289.5z M288.5,290.1l-3.7-3.4c2.6-2.9,5.2-5.9,7.6-9l4,3C293.9,283.9,291.3,287.1,288.5,290.1z
		 M85.9,277.6c-2.4-3.3-4.6-6.8-6.7-10.3l4.3-2.5c2,3.4,4.1,6.7,6.4,9.9L85.9,277.6z M298.2,278.2l-4-2.9c2.3-3.2,4.5-6.5,6.5-9.8
		l4.3,2.5C302.8,271.5,300.6,275,298.2,278.2z M77.7,264.6c-2-3.6-3.8-7.2-5.4-11l4.6-2c1.6,3.6,3.3,7.1,5.2,10.6L77.7,264.6z
		 M306.4,265.4l-4.4-2.4c1.9-3.4,3.7-7,5.3-10.5l4.6,2C310.2,258.1,308.4,261.8,306.4,265.4z M71.1,250.8c-1.5-3.8-2.9-7.6-4.1-11.5
		l4.8-1.4c1.1,3.7,2.4,7.5,3.9,11.1L71.1,250.8z M313.1,251.6l-4.6-1.9c1.5-3.6,2.8-7.3,4-11.1l4.8,1.5
		C316,244,314.6,247.9,313.1,251.6z M66.2,236.4c-1.1-3.9-2-7.9-2.7-11.9l4.9-0.9c0.7,3.8,1.6,7.7,2.6,11.5L66.2,236.4z
		 M318.1,237.2l-4.8-1.4c1.1-3.8,2-7.6,2.7-11.4l4.9,0.9C320.1,229.3,319.2,233.3,318.1,237.2z M321.4,222.3l-4.9-0.8
		c0.6-3.9,1.1-7.8,1.3-11.7l5,0.3C322.5,214.2,322,218.3,321.4,222.3z M322.9,207.1l-5-0.2c0-1.2,0.1-2.4,0.1-3.5
		c0-2.7,0-5.5-0.1-8.2l5-0.2c0.1,2.8,0.2,5.7,0.1,8.5C323,204.6,323,205.8,322.9,207.1z M317.7,192.2c-0.3-3.9-0.8-7.8-1.4-11.7
		l4.9-0.8c0.7,4,1.2,8.1,1.5,12.1L317.7,192.2z M68.3,180.3l-4.9-0.8c0.7-4,1.6-8,2.6-11.9l4.8,1.3
		C69.8,172.5,68.9,176.4,68.3,180.3z M315.8,177.6c-0.7-3.8-1.7-7.7-2.8-11.4l4.8-1.4c1.1,3.9,2.1,7.9,2.9,11.9L315.8,177.6z
		 M71.6,165.9l-4.8-1.4c1.1-3.9,2.5-7.8,4-11.6l4.7,1.9C74,158.5,72.7,162.2,71.6,165.9z M312.2,163.3c-1.2-3.7-2.6-7.4-4.1-11
		l4.6-1.9c1.6,3.7,3,7.6,4.2,11.5L312.2,163.3z M76.5,152.1l-4.6-2c1.6-3.7,3.4-7.4,5.3-11l4.4,2.4C79.8,145,78.1,148.5,76.5,152.1z
		 M306.9,149.6c-1.6-3.6-3.4-7.1-5.4-10.5l4.3-2.5c2,3.5,3.9,7.2,5.6,10.9L306.9,149.6z M83.1,139l-4.3-2.5c2-3.5,4.2-7,6.6-10.3
		l4.1,2.9C87.1,132.2,85,135.6,83.1,139z M300.1,136.6c-2-3.3-4.2-6.6-6.5-9.8l4-3c2.4,3.3,4.7,6.7,6.8,10.2L300.1,136.6z
		 M91.1,126.7l-4-3c2.4-3.3,5-6.4,7.7-9.5l3.7,3.3C95.9,120.5,93.4,123.5,91.1,126.7z M291.8,124.5c-2.4-3.1-5-6.1-7.6-9l3.6-3.4
		c2.8,3,5.4,6.1,7.9,9.3L291.8,124.5z M100.5,115.4l-3.7-3.4c2.8-3,5.7-5.8,8.8-8.5l3.3,3.8C106,109.8,103.2,112.5,100.5,115.4z
		 M282.1,113.4c-2.7-2.8-5.6-5.5-8.6-8l3.2-3.8c3.1,2.6,6.1,5.4,9,8.3L282.1,113.4z M111.2,105.3l-3.2-3.8c3.1-2.6,6.4-5.1,9.7-7.4
		l2.8,4.1C117.3,100.3,114.2,102.7,111.2,105.3z M271.2,103.5c-3-2.4-6.2-4.8-9.5-6.9l2.8-4.2c3.4,2.2,6.7,4.7,9.9,7.2L271.2,103.5z
		 M122.9,96.5l-2.8-4.2c3.4-2.2,6.9-4.3,10.5-6.3l2.4,4.4C129.6,92.3,126.2,94.3,122.9,96.5z M259.3,95c-3.3-2.1-6.8-4-10.2-5.8
		l2.3-4.5c3.6,1.8,7.2,3.9,10.6,6L259.3,95z M135.7,89.1l-2.2-4.5c3.6-1.8,7.4-3.5,11.2-5l1.8,4.7C142.8,85.7,139.1,87.3,135.7,89.1
		z M246.4,87.9c-3.5-1.7-7.2-3.2-10.8-4.6l1.7-4.7c3.8,1.4,7.6,3,11.3,4.7L246.4,87.9z M149.1,83.2l-1.7-4.7
		c3.8-1.4,7.7-2.6,11.7-3.7l1.3,4.8C156.6,80.7,152.8,81.9,149.1,83.2z M232.8,82.3c-3.7-1.2-7.5-2.3-11.3-3.2l1.1-4.9
		c3.9,0.9,7.9,2.1,11.8,3.4L232.8,82.3z M163.2,79l-1.1-4.9c3.9-0.9,8-1.7,12-2.2l0.7,4.9C170.9,77.4,167,78.1,163.2,79z
		 M218.7,78.5c-3.8-0.8-7.7-1.4-11.6-1.9l0.6-5c4,0.5,8.1,1.1,12.1,2L218.7,78.5z M177.7,76.5l-0.6-5c4-0.5,8.1-0.7,12.2-0.8l0.1,5
		C185.5,75.8,181.6,76,177.7,76.5z M204.1,76.2c-1.5-0.1-3.1-0.3-4.7-0.3c-2.4-0.1-4.7-0.2-7.1-0.2l0-5c2.4,0,4.9,0.1,7.3,0.2
		c1.6,0.1,3.3,0.2,4.9,0.4L204.1,76.2z"/>
	<rect x="60.4" y="185.8" class="st1" width="8.4" height="3.1"/>
	<rect x="60.4" y="213.9" class="st1" width="8.4" height="3.1"/>
	<path class="st1" d="M192.1,331.1c-71.4,0-129.4-58.1-129.4-129.4S120.8,72.2,192.1,72.2s129.4,58.1,129.4,129.4
		S263.5,331.1,192.1,331.1z M192.1,73.2c-70.8,0-128.4,57.6-128.4,128.4S121.3,330,192.1,330s128.4-57.6,128.4-128.4
		S263,73.2,192.1,73.2z"/>
</g>
<g id="rings" class="st0">
	<path class="st2" d="M38.2,187.4c8.8,0,17.6,0,26.3,0c1.7,0.1,3.5,0.1,5.2,0.2c1.4-0.7,2.9-1.4,4.3-2.1
		c9.3-59.7,60.3-103.6,118.1-103.7c63.5-0.1,118.9,52.5,119.2,118.6c0.2,66.5-55.5,119.6-119.2,119.5
		c-57.5-0.1-108.4-43.6-118-103.1c-0.8-0.2-1.6-0.4-2.3-0.6c-9-0.2-18-0.4-27.1-0.6"/>
	<path class="st3" d="M89.7,176.3c12.7-50,58-84.1,106.9-82.3c55.5,2.1,101,49.9,101.1,106.2c0,59.6-50.8,106.6-106.3,106.5
		c-52.3-0.1-91.5-41.5-102.5-78c-1.8-6-2.7-11.4-3.2-15.5c-1.8-2.5-3.5-5-5.3-7.5c-12.5-0.1-25-0.1-37.4-0.2"/>
	<path class="st4" d="M80.1,200.9c3.9-2.7,7.7-5.4,11.6-8c0.1-1,0.2-2.1,0.3-3.1c0,0,0.2-1.7,0.4-3.3c6.5-45.8,43.9-82.5,91.9-86.3
		c55.6-4.4,104.1,37,108.5,92.6c4.4,55.6-37,104.1-92.6,108.5c-51.6,4.1-97.2-31.4-106.9-81c-0.6-3.1-1-6.3-1-6.3
		c-0.2-1.7-0.4-3.1-0.5-4.3c-3.9-2.7-7.8-5.4-11.7-8.1"/>
	<circle class="st4" cx="192.3" cy="200.7" r="96.3"/>
	<path class="st4" d="M196.8,286.8c-0.9,1.9-1.8,3.7-2.7,5.5c-1.6,0-3.6,0-5.8-0.1c-1.4-0.1-4.3-0.2-7.9-0.7
		c-4.7-0.6-9.4-1.6-13.8-2.9c-8.1-2.4-15.8-5.8-22.9-10.2c-27.6-17.2-37.7-46.5-38.6-49.1c-2-6.1-4.3-15.2-4.5-26.5"/>
	<circle class="st4" cx="192.3" cy="200.7" r="9.2"/>
	<circle class="st4" cx="192.3" cy="200.7" r="4.6"/>
	<path class="st4" d="M226.9,278.2c3.3,0.9,6.5,1.8,9.8,2.7c2.4-1.3,4.6-2.7,6.4-3.9c1.6-1,3.8-2.6,6.3-4.6c0,0,2.2-1.8,4.3-3.6
		c7.6-6.9,13.5-15.3,13.5-15.3c6.7-10,10.4-19,12.1-24.1c0,0,5.3-16,4.5-32.9c-1.3-28.4-32.8-86.6-91.5-86.5
		c-49.2,0.1-90.9,40.9-91.7,91.7"/>
	<rect x="94.8" y="206.5" class="st1" width="8.4" height="3.1"/>
	<rect x="94.8" y="192.6" class="st1" width="8.4" height="3.1"/>
	<polyline class="st4" points="98.4,199.1 89.1,199.1 89.1,204.2 98.1,204.2 	"/>
	<line class="st5" x1="80.6" y1="201.2" x2="89.1" y2="201.2"/>
	<rect x="60.4" y="199.8" class="st1" width="21.7" height="3.1"/>
	<rect x="60.4" y="204.5" class="st1" width="8.4" height="3.1"/>
	<path class="st6" d="M79.9,177.9c-0.4,2.5-0.8,5-1.2,7.5c-1.6,0.9-3.2,1.8-4.8,2.8c-3.8,0-7.6,0-11.3-0.1"/>
	<path class="st4" d="M81.9,178.3c-0.6,3.4-1.2,6.8-1.7,10.2c-1.6,1-3.1,2-4.7,3c-3.2,0.1-6.4,0.1-9.6,0.2"/>
	<path class="st4" d="M84.5,177.7c-0.7,3.7-1.3,7.4-2,11.1c-1.7,1.1-3.4,2.2-5.1,3.3c-3,0.1-6.1,0.1-9.1,0.2"/>
	<path class="st4" d="M86.8,176.2c-0.9,5-1.7,10-2.6,15c-1.9,1.9-3.9,3.7-5.8,5.6c-5,0-9.9-0.1-14.9-0.1"/>
	<path class="st4" d="M89.9,176.5c-1.1,5.6-2.1,11.2-3.2,16.7c-1.9,1.5-3.7,3-5.6,4.5c-5.1-0.2-10.2-0.3-15.3-0.5"/>
	<path class="st7" d="M84.9,174.7c2.7-10,11.8-38.3,39.3-60.1c7.9-6.3,40-29.8,84.1-23.3c46.7,6.9,70.9,42.2,75.5,49.3
		c3.7,5.6,28.5,45.2,13.6,93.1c-11.5,37-39.4,55.5-47.5,60.4c-32.5,19.9-64.6,16.4-73.3,15.2c-9-1.3-41-7-66.4-35.3
		c-20-22.2-25.2-46.5-26.8-56.5c-1.7-2.1-3.4-4.3-5.1-6.4c-4.8-0.1-9.7-0.1-14.5-0.2"/>
	<g class="st8">
		<path class="st9" d="M80.7,175c0.6-2.3,1.2-4.8,2.1-7.5c4-12.7,11.3-28.9,25.2-44.1c5.2-5.7,35.3-37.4,84.3-37.6
			c6.9,0,49.6,0.6,82.6,35c2.5,2.6,29.7,31.8,31.5,74.7c0.7,15.7-2.3,28.5-3.4,32.9c-2,7.8-6.7,22.7-17.5,37.9
			c-21.5,30.1-57.9,48-93.2,48.1c-1.6,0-4.9,0-9.2-0.4c-39.8-3.4-66.1-28-69.8-31.6c-26.1-25.2-32-55.1-33.5-64.8
			c-1.8-2.1-3.7-4.2-5.6-6.3c-2.7,0-5.3,0-8-0.1c-1.5-0.3-3-0.6-4.5-0.9c-6.3,0-12.6,0.1-19,0.1"/>
	</g>
	<rect x="94.8" y="197.5" class="st1" width="8.4" height="3.1"/>
	<rect x="94.8" y="202.1" class="st1" width="8.4" height="3.1"/>
	<polygon class="st10" points="91.8,180.6 78.6,178.3 79.3,173.8 79.9,170.3 93.2,172.6 	"/>
	<rect x="60.4" y="190.4" class="st1" width="8.4" height="3.1"/>
	<rect x="60.4" y="195.1" class="st1" width="8.4" height="3.1"/>
	<rect x="60.4" y="209.2" class="st1" width="8.4" height="3.1"/>
	<line class="st3" x1="61.8" y1="192" x2="44.1" y2="191.7"/>
	<line class="st3" x1="63.5" y1="196.7" x2="43.1" y2="196.7"/>
	<path class="st3" d="M65.4,201.3c-7.6,0-15.2,0-22.8,0"/>
</g>
<g id="inside_logo" class="st0">
	<g class="st8">
		<path class="st11" d="M247,166.9c2,3.3,4.4,8,6.3,13.8c2.9,8.9,3.2,16.4,3.2,20.1c0,2.5-0.1,10.8-3.2,20.1
			c-6,18.3-19.5,29.1-25.1,33.2"/>
		<path class="st11" d="M224.2,250.8c5.2-3.5,18.9-13.7,24.7-31.4c2.9-8.7,3-16.5,3-18.6c0-9.3-2.1-16.2-3-18.6
			c-1.4-4.2-3.4-8-3.4-8c-0.6-1.1-1.1-2.1-1.5-2.8"/>
		<path class="st11" d="M240.9,175.3c1.1,2,2.5,4.8,3.7,8.3c0.6,1.9,2.7,8.4,2.7,17.2c0,19.9-10.5,37.3-26.3,47"/>
		<path class="st11" d="M192.3,251.2c27.9,0,50.4-22.6,50.4-50.4c0-3.4-0.3-6.7-1-10"/>
		<path class="st11" d="M241.7,190.8c-0.5-1.3-1-2.7-1.5-4c-1-0.6-2.1-1.2-3.1-1.9c-3,0.7-6.1,1.4-9.1,2.1"/>
		<path class="st11" d="M237,190.9c0.7,3.2,1.4,7.8,1,13.3c-0.2,3-0.8,7.3-2.6,12.2c-1.9,5.4-4.9,10.3-8.6,14.6
			c-3.4,3.9-7.5,7.3-12.1,9.9c-3.3,1.8-6.2,2.9-8.2,3.6c-5.8,1.9-10.9,2.3-14.3,2.3"/>
		<circle class="st12" cx="237" cy="190.9" r="1.3"/>
		<path class="st11" d="M211.8,222.4c-2.3-2.2-4.6-4.4-6.8-6.6c9.2-9,18.3-18,27.5-27c0.7,3.2,1.4,7.8,1,13.3
			c-0.2,2.6-0.7,7-2.6,12.2c-1,2.9-3.2,8.8-8.6,14.6c-4.3,4.7-8.9,7.4-12.2,9"/>
	</g>
	<circle class="st10" cx="212.4" cy="223.2" r="3.1"/>
</g>
<g id="logo" class="st0">
	<g class="st8">
		<g>
			<path d="M107.5,197.1c0.3-1.9,0.7-3.8,0.9-5.8c4.9-33.7,30.4-61.5,63.7-69.4c11.7-2.8,23.4-3.1,35.2-0.9c0.2,0,0.4,0.1,0.8,0.2
				c-0.5,0.6-0.9,0.9-1.2,1.3c-3.6,3.6-7.2,7.1-10.8,10.7c-1,1-1.9,1.4-3.3,1.4c-33-0.4-61.2,21.8-68.7,53.8
				c-8.9,38.1,16.3,76.5,54.9,83.6c0.3,0,0.5,0.2,0.8,0.2c3.4-0.1,5.8,1.7,7.9,4.1c3.3,3.6,6.8,6.9,10.2,10.4c0.4,0.4,0.5,1,0.7,1.4
				c-15.5,1-27.2-2.2-34-4.7c-31.1-11.3-51-40.5-56.3-67c-0.5-2.4-0.8-4.4-0.9-5.7C107.5,206.1,107.5,201.6,107.5,197.1z"/>
			<path d="M156.5,256.5c-0.2-0.1-0.3-0.2-0.5-0.3c0-16.4,0-28.2,0-29.4c0-0.2,0-0.9,0.3-1.5c0.2-0.4,0.4-0.7,0.8-1.1
				c1.4-1.3,2.6-2.6,3.9-4c2.8-2.8,5.7-5.6,8.5-8.4c2.1-2,4.1-4.1,6.1-6.1c7.3-7.4,16.6-16.4,19.7-19.4l0,0
				c9.8-9.9,31.2-30.9,65.1-64.2c0.2,15.5,0.2,26.8,0.1,28.3c-0.1,1.2-0.5,2.3-0.5,2.3s-0.3,0.7-0.7,1.3
				c-2.1,3.1-63.8,63.4-66.7,66.3c-0.1,0.1-1.3,1.3-2.8,2.8c-2.9,2.9-7.5,7.5-13.1,13.1C168.2,244.7,161.1,251.9,156.5,256.5z"/>
			<path d="M176.8,236.1c4.9-4.8,9.8-9.6,14.7-14.5c5.9,5.8,11.7,11.6,17.6,17.4c7,6.9,14,13.9,20.9,20.8c0.4,0.4,0.7,0.7,1.2,1.1
				c4.1-2.7,7.7-5.8,11-9.3c13.8-14.9,20.2-32.5,19-52.8c-0.6-9.5-3.2-18.4-7.6-26.9c-0.2-0.4-0.5-0.8-0.4-1.3
				c0.1-0.4,0.4-0.7,0.5-0.7c0.7-0.6,4.7-4.6,10.2-10.2l0,0c0.3,0.5,0.6,1,0.9,1.4c8.8,15.2,13,31.6,11.2,49.1
				c-3.3,33.7-20.9,57.3-51.6,71.3c-1.1,0.5-1.7,0.3-2.5-0.5C206.9,266.1,191.8,251.1,176.8,236.1z"/>
			<path d="M156.1,213.6c0-10.1,0-20.1,0-30.1c0-0.6,0.5-1.4,1-1.9c14.1-14.1,28.3-28.2,42.4-42.2c14.7-14.7,29.5-29.3,44.2-44
				c0.4-0.4,0.9-0.8,1.5-1.5c0,0.8,0,1.2,0,1.7c0,9.4,0,18.9,0,28.3c0,0.8-0.4,1.8-1,2.4c-24.2,24.1-48.4,48.1-72.7,72.2
				c-0.5,0.5-1,1.1-1.6,1.7c-1,1-2.1,1.9-3.1,2.9C163.2,206.6,159.7,210.1,156.1,213.6z"/>
		</g>
		<path d="M157.8,214.7c3.5-3.5,7.1-6.9,10.6-10.4c1-1,2.1-1.9,3.1-2.8c1.9,1.8,3.7,3.6,5.6,5.4c-2,2-4,4.1-6,6.1
			c-2.8,2.8-5.6,5.5-8.4,8.2c-1.3-1.2-2.5-2.5-3.8-3.7C157.9,216.8,157.6,215.9,157.8,214.7z"/>
	</g>
	<g class="st8">
		<g>
			<path class="st13" d="M202.6,288.2c-5.8,0.5-10.7,0.5-14.5,0.3c-4.1-0.2-7.2-0.6-8.3-0.8c-2.9-0.5-5.8-0.9-8.7-1.6
				c-33.3-8.2-58.9-36.5-63.8-70.4c-0.2-1.3-0.4-2.6-0.6-3.8l-0.3-2.2l0-13.8l0.3-1.8c0.2-1.3,0.4-2.6,0.6-3.9
				c5-34.3,31.1-62.7,64.9-70.7c11.8-2.8,23.8-3.1,35.9-0.9c0.2,0,0.3,0.1,0.6,0.1l3.8,0.9l-2.8,3c-0.3,0.3-0.6,0.6-0.8,0.9
				c-1.1,1.1-2.2,2.1-3.2,3.2c-2.5,2.4-5,4.9-7.5,7.4c-1.4,1.4-2.9,2-4.7,2c-31.9-0.4-59.2,21-66.4,52c-4.2,17.7-0.9,36,9.2,51.4
				c5.9,9,13.5,16.2,22.4,21.4c7.1,4.1,17.9,7.1,21.4,7.9c0.1,0,0.6,0.1,1.2,0.3c0,0,5.2,1.5,8.6,4.6c0.3,0.3,0.6,0.6,0.6,0.6
				c0.4,0.4,0.6,0.7,0.8,0.9C195.1,279.5,200.3,285.4,202.6,288.2z M188,284.7h7c-0.6-0.5-1.1-1.1-1.7-1.6c-2.2-2.1-4.4-4.4-6.5-6.7
				c-2.5-2.7-4.9-3.1-6.4-3.5c-0.5-0.1-1-0.2-1.3-0.2c-19.1-3.5-35.6-14.5-46.4-31c-10.7-16.4-14.2-35.8-9.8-54.6
				c7.7-32.8,36.7-55.5,70.4-55.1c0.8,0,1.2-0.2,1.8-0.8c2.5-2.5,5.1-5,7.5-7.4c0.6-0.6,1.2-1.2,1.8-1.7
				c-10.5-1.5-21.1-1.1-31.3,1.4c-32.2,7.7-57.1,34.7-61.9,67.4c-0.2,1.3-0.4,2.6-0.6,3.9l-0.3,1.6v13.1l0.3,1.7
				c0.2,1.3,0.4,2.6,0.6,3.9c4.5,31.3,27.6,57.5,57.8,66.2c1,0.3,2,0.5,2.9,0.8c0.1,0,1.3,0.2,3.1,0.6c1.4,0.3,3.2,0.6,5.2,1
				c1.2,0.2,2.2,0.4,3.1,0.6C184.4,284.4,188,284.7,188,284.7z"/>
			<path class="st13" d="M157.4,257.9l-2.8-1.8v-6.9c0-13,0-22.4,0-23.3c0-0.3,0-1.3,0.5-2.4c0.3-0.6,0.7-1.2,1.3-1.7
				c0.9-0.8,1.8-1.7,2.7-2.7c0.4-0.4,0.8-0.8,1.1-1.2l2.6-2.5c2-1.9,4-3.9,5.9-5.8c1.4-1.4,2.8-2.8,4.2-4.2l1.9-1.9
				c7.1-7.2,16.1-15.9,19.7-19.4c9.9-9.9,31.7-31.4,64.8-63.9l3.4-3.3l0.1,4.7c0.2,15.5,0.2,26.8,0.1,28.3c-0.1,1.5-0.6,2.8-0.6,3
				c0,0.1-0.4,0.9-0.9,1.7c-0.8,1.2-8.3,9.1-63.4,63.1c-1.8,1.7-2.9,2.8-3.2,3.2c-0.1,0.1-1.3,1.3-2.8,2.8c-2.9,2.9-7.5,7.4-13.1,13
				c-6.8,6.8-13.6,13.6-20.2,20.3L157.4,257.9z M258.7,126.3c-31.2,30.6-51.8,51-61.4,60.6c-3.6,3.5-12.6,12.2-19.6,19.3l-1.9,1.9
				c-1.4,1.4-2.8,2.8-4.2,4.2c-2,1.9-4,3.9-5.9,5.8l-2.6,2.5c-0.4,0.4-0.7,0.7-1.1,1.1c-0.9,0.9-1.9,1.9-2.9,2.9
				c-0.2,0.1-0.3,0.3-0.3,0.4c-0.1,0.2-0.1,0.5-0.1,0.6c0,1.1,0,10,0,23.5v1.8c5.6-5.7,11.4-11.6,17.2-17.4
				c5.6-5.6,10.1-10.1,13.1-13c1.5-1.5,2.6-2.6,2.8-2.8c0.3-0.3,1.5-1.5,3.2-3.2c52.8-51.7,62.1-61.3,62.9-62.4
				c0.3-0.4,0.5-0.9,0.5-0.9l0,0c0,0,0.3-0.8,0.4-1.7C258.9,148.5,258.8,139.9,258.7,126.3z"/>
			<path class="st13" d="M223.7,282.6c-1.3,0-2.2-0.7-2.9-1.4c-12.4-12.4-24.8-24.8-37.2-37.1l-9.1-9.1l17.5-17.2l6.3,6.2
				c4.2,4.1,8.4,8.3,12.6,12.5c4.6,4.6,9.3,9.2,13.9,13.8l6.9,6.9c3.4-2.4,6.5-5.1,9.3-8.1c13.4-14.4,19.6-31.6,18.3-51
				c-0.6-8.9-3-17.7-7.3-25.9L252,172c-0.3-0.5-0.7-1.3-0.5-2.3c0.1-0.7,0.5-1.4,1.1-1.9c0.7-0.6,5.5-5.5,10-10.1l1.8-1.8l1.6,2.6
				c0.2,0.4,0.5,0.7,0.7,1.1c9.3,16,13.1,32.8,11.5,50c-3.3,33.8-21,58.2-52.6,72.6C224.8,282.5,224.2,282.6,223.7,282.6z
				 M180.2,235l6.2,6.2c12.4,12.4,24.8,24.8,37.2,37.2c0.1,0.1,0.1,0.1,0.2,0.1c0,0,0.1,0,0.1,0c30.2-13.7,47.1-37,50.2-69.3
				c1.6-16.1-1.9-31.8-10.5-46.8c-4.1,4.2-6.9,6.9-8,8c4.5,8.8,7.1,18,7.7,27.5c1.3,20.6-5.2,38.7-19.4,54
				c-3.4,3.6-7.2,6.9-11.3,9.6l-1.3,0.9l-1.6-1.5c-0.3-0.3-0.5-0.5-0.8-0.7l-6.9-6.9c-4.6-4.6-9.3-9.2-13.9-13.8
				c-4.2-4.2-8.4-8.3-12.6-12.5l-3.5-3.4L180.2,235z"/>
			<path class="st13" d="M154.7,217.5l0-10.4c0-8,0-16.3,0-24.4c0-1.5,1-2.7,1.6-3.3c11.7-11.7,23.5-23.4,35.2-35l51-50.8
				c0.3-0.3,0.6-0.6,0.9-0.9l4-3.8v12.3c0,7.3,0,14.9-0.1,22.3c0,1.3-0.6,2.8-1.6,3.8c-19.5,19.4-39.1,38.8-58.7,58.3l-13.7,13.6
				c-0.3,0.3-0.7,0.7-1,1.1l-0.6,0.7c-0.3,0.3-0.7,0.6-1,0.9c-0.7,0.6-1.4,1.3-2.1,1.9c-2.6,2.5-5.1,4.9-7.6,7.4L154.7,217.5z
				 M158.7,182.8c0,8.1,0,16.3,0,24.3v0.8c2.4-2.4,4.9-4.8,7.3-7.1c0.7-0.7,1.4-1.3,2.2-2c0.3-0.3,0.6-0.6,0.9-0.8l0.4-0.5
				c0.4-0.4,0.8-0.8,1.1-1.2l13.7-13.6c19.6-19.4,39.1-38.8,58.7-58.3c0.2-0.2,0.4-0.7,0.4-0.9c0.1-7.4,0.1-15,0.1-22.3v-2.8
				l-49.1,48.8c-11.7,11.7-23.5,23.3-35.2,35C158.9,182.5,158.8,182.7,158.7,182.8z M158.7,182.9L158.7,182.9L158.7,182.9z"/>
		</g>
		<path class="st13" d="M161.6,222.1l-1.4-1.4c-0.4-0.4-0.8-0.8-1.1-1.1c-0.9-0.9-1.7-1.7-2.6-2.5c-1.5-1.3-2.1-2.9-1.7-4.7l0.1-0.6
			l3.6-3.5c2.5-2.5,5.1-5,7.6-7.4c0.7-0.7,1.4-1.3,2.2-2c0.3-0.3,0.7-0.6,1-0.9l1.4-1.3l8.5,8.2l-3.3,3.3c-1.4,1.4-2.8,2.8-4.2,4.2
			c-2,1.9-4,3.9-5.9,5.8L161.6,222.1z M158.7,213.5c0.1,0.1,0.2,0.3,0.4,0.5c0.9,0.8,1.7,1.6,2.6,2.4l1.1-1.1c2-1.9,4-3.9,5.9-5.8
			c1.4-1.4,2.8-2.8,4.2-4.2l0.4-0.4l-2.8-2.8c-0.6,0.5-1.1,1-1.7,1.5c-2.6,2.5-5.1,4.9-7.6,7.4L158.7,213.5z"/>
	</g>
</g>
<g id="black">
</g>
<g id="gold">
	<g>
		<g>
			<g>
				<g>
					<circle class="st14" cx="192.3" cy="191.3" r="181.9"/>
				</g>
			</g>
			<g>
				<g>
					<path class="st15" d="M238,354.3c-0.5-1.5-0.6-2.8-0.3-3.7s1-1.5,2.1-1.9c1.1-0.3,2-0.2,2.8,0.4s1.4,1.6,1.8,3l0.5,1.8
						c0.5,1.5,0.5,2.7,0.2,3.6c-0.3,0.9-1,1.5-2.1,1.9c-1.1,0.3-2,0.2-2.8-0.3c-0.7-0.5-1.4-1.6-1.8-3L238,354.3z M239.9,355.7
						c0.3,1.1,0.7,1.9,1.2,2.3s1,0.5,1.7,0.3c0.7-0.2,1.1-0.6,1.2-1.2c0.1-0.6,0.1-1.4-0.2-2.5l-0.6-2.1c-0.3-1.1-0.8-1.9-1.2-2.3
						s-1.1-0.5-1.7-0.4c-0.6,0.2-1.1,0.6-1.2,1.2c-0.2,0.6-0.1,1.4,0.2,2.5L239.9,355.7z"/>
				</g>
				<g>
					<path class="st15" d="M229.8,351.6l1.3-0.3l2.2,8.9l2.4-1.6l0.3,1.2l-3.5,2.4l-0.2,0L229.8,351.6z"/>
				</g>
				<g>
					<path class="st15" d="M219.4,358.4c-0.3-1.6-0.2-2.8,0.2-3.7s1.2-1.4,2.3-1.6c1.1-0.2,2,0,2.7,0.7c0.7,0.6,1.2,1.7,1.5,3.2
						l0.3,1.8c0.3,1.6,0.2,2.8-0.2,3.6c-0.4,0.9-1.2,1.4-2.3,1.6c-1.1,0.2-2.1,0-2.7-0.6s-1.2-1.7-1.5-3.2L219.4,358.4z M221.1,360
						c0.2,1.1,0.5,2,0.9,2.4s1,0.6,1.7,0.5c0.7-0.1,1.1-0.5,1.4-1.1s0.2-1.4,0-2.5l-0.4-2.2c-0.2-1.1-0.5-2-1-2.5
						c-0.4-0.5-1-0.7-1.7-0.5c-0.7,0.1-1.1,0.5-1.3,1s-0.2,1.4-0.1,2.5L221.1,360z"/>
				</g>
				<g>
					<path class="st15" d="M209.9,359.7c-0.2-1.6-0.1-2.8,0.4-3.7c0.4-0.9,1.2-1.3,2.4-1.5c1.1-0.1,2,0.1,2.7,0.8
						c0.6,0.7,1.1,1.8,1.3,3.3l0.2,1.8c0.2,1.6,0.1,2.8-0.4,3.6s-1.2,1.3-2.4,1.5c-1.1,0.1-2.1-0.1-2.7-0.8s-1.1-1.8-1.3-3.3
						L209.9,359.7z M211.5,361.4c0.1,1.1,0.4,2,0.8,2.5c0.4,0.5,0.9,0.7,1.6,0.6s1.2-0.4,1.4-1c0.2-0.6,0.3-1.4,0.2-2.5l-0.3-2.2
						c-0.1-1.2-0.4-2-0.8-2.5s-0.9-0.7-1.6-0.6c-0.7,0.1-1.1,0.4-1.4,1s-0.3,1.4-0.2,2.5L211.5,361.4z"/>
				</g>
				<g>
					<path class="st15" d="M200.4,360.5c-0.1-1.6,0.1-2.8,0.6-3.6c0.5-0.8,1.3-1.3,2.5-1.4c1.1-0.1,2,0.2,2.6,1
						c0.6,0.7,1,1.8,1.1,3.4l0.1,1.8c0.1,1.6-0.1,2.8-0.6,3.6c-0.5,0.8-1.3,1.2-2.5,1.3c-1.2,0.1-2-0.2-2.6-0.9
						c-0.6-0.7-1-1.8-1.1-3.4L200.4,360.5z M201.9,362.2c0.1,1.2,0.3,2,0.7,2.5s0.9,0.7,1.6,0.7c0.7,0,1.2-0.4,1.5-0.9
						c0.3-0.5,0.4-1.4,0.3-2.5l-0.1-2.2c-0.1-1.2-0.3-2-0.7-2.5s-0.9-0.8-1.6-0.7c-0.7,0-1.2,0.3-1.4,0.9c-0.3,0.5-0.4,1.4-0.3,2.5
						L201.9,362.2z"/>
				</g>
				<g>
					<path class="st15" d="M190.9,360.6c0-1.6,0.2-2.8,0.8-3.6c0.5-0.8,1.4-1.2,2.6-1.2c1.1,0,2,0.4,2.6,1.1
						c0.6,0.8,0.9,1.9,0.9,3.4l0,1.8c0,1.6-0.2,2.8-0.8,3.5s-1.4,1.2-2.6,1.2c-1.2,0-2-0.4-2.6-1.1c-0.6-0.7-0.9-1.9-0.9-3.4
						L190.9,360.6z M192.2,362.5c0,1.2,0.2,2,0.5,2.5c0.3,0.5,0.9,0.8,1.6,0.8c0.7,0,1.2-0.3,1.5-0.8c0.3-0.5,0.5-1.4,0.5-2.5l0-2.2
						c0-1.2-0.2-2-0.5-2.6c-0.4-0.5-0.9-0.8-1.6-0.8c-0.7,0-1.2,0.3-1.5,0.8s-0.5,1.4-0.5,2.5L192.2,362.5z"/>
				</g>
				<g>
					<path class="st15" d="M183.8,355.8l1.4,0.1l-0.4,9.1l2.8-0.9l-0.1,1.2l-4,1.3l-0.2,0L183.8,355.8z"/>
				</g>
				<g>
					<path class="st15" d="M171.8,359.4c0.2-1.6,0.6-2.8,1.2-3.5c0.6-0.7,1.5-1,2.7-0.9c1.1,0.1,2,0.6,2.4,1.4
						c0.5,0.8,0.6,2,0.5,3.5l-0.2,1.8c-0.2,1.6-0.6,2.7-1.2,3.4c-0.6,0.7-1.5,1-2.7,0.9c-1.2-0.1-2-0.6-2.4-1.4s-0.6-2-0.5-3.5
						L171.8,359.4z M173,361.4c-0.1,1.2,0,2,0.2,2.6c0.3,0.6,0.8,0.9,1.5,1c0.7,0.1,1.2-0.1,1.6-0.6c0.4-0.5,0.6-1.3,0.7-2.4
						l0.2-2.2c0.1-1.2,0-2-0.2-2.6c-0.3-0.6-0.8-0.9-1.4-1c-0.7-0.1-1.2,0.1-1.6,0.6s-0.6,1.3-0.8,2.4L173,361.4z"/>
				</g>
				<g>
					<path class="st15" d="M157.8,357.1c0.3-1.6,0.8-2.7,1.5-3.4c0.7-0.7,1.6-0.9,2.8-0.7c1.1,0.2,1.9,0.8,2.3,1.6
						c0.4,0.9,0.5,2,0.2,3.5l-0.3,1.8c-0.3,1.6-0.8,2.7-1.5,3.3c-0.7,0.7-1.6,0.9-2.8,0.7c-1.1-0.2-1.9-0.7-2.3-1.6
						c-0.4-0.8-0.5-2-0.2-3.5L157.8,357.1z M158.8,359.2c-0.2,1.1-0.2,2,0,2.6s0.7,0.9,1.4,1.1c0.7,0.1,1.2,0,1.7-0.5
						s0.7-1.2,0.9-2.3l0.4-2.2c0.2-1.1,0.2-2,0-2.6c-0.2-0.6-0.7-1-1.4-1.1c-0.7-0.1-1.2,0-1.6,0.5c-0.4,0.5-0.7,1.2-1,2.3
						L158.8,359.2z"/>
				</g>
				<g>
					<path class="st15" d="M151.8,350.9l1.3,0.3l-2.2,8.9l2.9-0.3l-0.3,1.2l-4.2,0.5l-0.2,0L151.8,350.9z"/>
				</g>
				<g>
					<path class="st15" d="M139.4,352.1c0.5-1.5,1.1-2.6,1.9-3.2c0.8-0.6,1.7-0.7,2.8-0.4c1.1,0.3,1.8,1,2.1,1.9
						c0.3,0.9,0.2,2.1-0.2,3.5l-0.5,1.8c-0.5,1.5-1.1,2.6-1.8,3.1c-0.8,0.6-1.7,0.7-2.8,0.3c-1.1-0.3-1.8-1-2.1-1.8
						c-0.3-0.9-0.2-2.1,0.2-3.5L139.4,352.1z M140.1,354.3c-0.3,1.1-0.4,2-0.3,2.6c0.1,0.6,0.6,1,1.2,1.2c0.7,0.2,1.2,0.1,1.7-0.3
						c0.5-0.4,0.9-1.1,1.2-2.2l0.6-2.1c0.3-1.1,0.4-2,0.3-2.6s-0.6-1-1.2-1.2s-1.2-0.1-1.7,0.3c-0.5,0.4-0.9,1.1-1.2,2.2
						L140.1,354.3z"/>
				</g>
				<g>
					<path class="st15" d="M130.4,348.9c0.6-1.5,1.2-2.5,2-3.1c0.8-0.5,1.7-0.6,2.8-0.2c1.1,0.4,1.8,1.1,2,2s0.1,2.1-0.4,3.5
						l-0.6,1.7c-0.6,1.5-1.2,2.5-2,3s-1.7,0.6-2.8,0.2c-1.1-0.4-1.8-1-2-1.9c-0.2-0.9-0.1-2.1,0.4-3.5L130.4,348.9z M131,351.1
						c-0.4,1.1-0.6,1.9-0.4,2.5c0.1,0.6,0.5,1,1.2,1.3c0.7,0.2,1.2,0.2,1.7-0.2s0.9-1.1,1.3-2.1l0.8-2.1c0.4-1.1,0.6-2,0.4-2.6
						c-0.1-0.6-0.5-1.1-1.1-1.3c-0.6-0.2-1.2-0.2-1.7,0.2s-0.9,1.1-1.4,2.1L131,351.1z"/>
				</g>
				<g>
					<path class="st15" d="M121.6,345.1c0.6-1.5,1.4-2.5,2.2-3c0.8-0.5,1.8-0.5,2.8,0c1.1,0.5,1.7,1.1,1.9,2.1
						c0.2,0.9,0,2.1-0.6,3.5l-0.7,1.7c-0.6,1.5-1.4,2.4-2.2,2.9c-0.8,0.5-1.8,0.5-2.8,0s-1.7-1.1-1.9-2c-0.2-0.9,0-2.1,0.6-3.5
						L121.6,345.1z M122.1,347.4c-0.5,1.1-0.7,1.9-0.6,2.5c0.1,0.6,0.4,1.1,1.1,1.4c0.6,0.3,1.2,0.2,1.7-0.1s1-1,1.4-2l0.9-2
						c0.5-1.1,0.7-1.9,0.6-2.6c-0.1-0.6-0.4-1.1-1.1-1.4c-0.6-0.3-1.2-0.2-1.7,0.1c-0.5,0.4-1,1-1.5,2.1L122.1,347.4z"/>
				</g>
				<g>
					<path class="st15" d="M113.1,340.9c0.7-1.4,1.5-2.4,2.4-2.8c0.8-0.5,1.8-0.4,2.8,0.1c1,0.5,1.6,1.2,1.8,2.2
						c0.2,0.9-0.1,2.1-0.8,3.4l-0.8,1.6c-0.7,1.4-1.5,2.3-2.3,2.8c-0.8,0.4-1.8,0.4-2.8-0.1c-1-0.5-1.6-1.2-1.8-2.2
						c-0.2-0.9,0.1-2.1,0.8-3.5L113.1,340.9z M113.4,343.2c-0.5,1-0.8,1.9-0.7,2.5s0.4,1.1,1,1.4s1.2,0.3,1.7,0c0.5-0.3,1-1,1.6-2
						l1-2c0.5-1,0.8-1.9,0.7-2.5c-0.1-0.6-0.4-1.1-1-1.4c-0.6-0.3-1.2-0.3-1.7,0c-0.5,0.3-1.1,1-1.6,2L113.4,343.2z"/>
				</g>
				<g>
					<path class="st15" d="M109,333.3l1.2,0.7l-4.6,7.9l2.9,0.5l-0.6,1.1l-4.1-0.7l-0.2-0.1L109,333.3z"/>
				</g>
				<g>
					<path class="st15" d="M101.2,328.4l1.2,0.8l-5,7.6l2.9,0.7l-0.7,1l-4.1-0.9l-0.2-0.1L101.2,328.4z"/>
				</g>
				<g>
					<path class="st15" d="M85.4,322.4c1-1.3,1.9-2,2.9-2.3c0.9-0.3,1.8,0,2.8,0.7c0.9,0.7,1.3,1.5,1.3,2.5c0,0.9-0.5,2-1.4,3.2
						l-1.1,1.4c-1,1.2-1.9,2-2.8,2.3c-0.9,0.3-1.8,0-2.8-0.7c-0.9-0.7-1.4-1.5-1.3-2.5c0-0.9,0.5-2,1.5-3.2L85.4,322.4z M85.3,324.7
						c-0.7,0.9-1.1,1.7-1.2,2.3c-0.1,0.6,0.2,1.1,0.7,1.6c0.6,0.4,1.1,0.5,1.7,0.3c0.6-0.2,1.2-0.8,1.9-1.6l1.4-1.7
						c0.7-0.9,1.1-1.7,1.2-2.4c0.1-0.6-0.2-1.2-0.7-1.6c-0.5-0.4-1.1-0.5-1.7-0.3c-0.6,0.2-1.2,0.8-1.9,1.6L85.3,324.7z"/>
				</g>
				<g>
					<path class="st15" d="M82.9,314.2l1,0.9l-6.1,6.9l2.8,1.1l-0.8,0.9l-3.9-1.5l-0.2-0.1L82.9,314.2z"/>
				</g>
				<g>
					<path class="st15" d="M71.3,309.5c1.1-1.1,2.2-1.8,3.1-2s1.8,0.2,2.7,1c0.8,0.8,1.2,1.7,1,2.6c-0.1,0.9-0.7,1.9-1.8,3l-1.3,1.3
						c-1.1,1.1-2.1,1.8-3.1,1.9c-0.9,0.2-1.8-0.2-2.7-1c-0.8-0.8-1.2-1.7-1-2.6s0.7-1.9,1.8-3L71.3,309.5z M71,311.8
						c-0.8,0.8-1.3,1.5-1.4,2.1s0,1.2,0.5,1.7c0.5,0.5,1.1,0.7,1.7,0.5c0.6-0.1,1.3-0.6,2.1-1.4l1.6-1.6c0.8-0.8,1.3-1.6,1.5-2.2
						c0.2-0.6,0-1.2-0.5-1.7c-0.5-0.5-1-0.6-1.6-0.5c-0.6,0.1-1.3,0.6-2.1,1.4L71,311.8z"/>
				</g>
				<g>
					<path class="st15" d="M64.9,302.5c1.2-1.1,2.3-1.7,3.2-1.8c0.9-0.1,1.8,0.3,2.6,1.1c0.8,0.9,1.1,1.8,0.9,2.7s-0.8,1.9-2,2.9
						l-1.4,1.2c-1.2,1.1-2.2,1.6-3.2,1.8c-0.9,0.1-1.8-0.3-2.6-1.1c-0.8-0.9-1.1-1.8-0.9-2.7c0.2-0.9,0.8-1.9,2-2.9L64.9,302.5z
						 M64.4,304.7c-0.9,0.8-1.4,1.5-1.6,2.1s0,1.2,0.5,1.7c0.5,0.5,1,0.7,1.6,0.6c0.6-0.1,1.3-0.5,2.2-1.3l1.6-1.5
						c0.9-0.8,1.4-1.5,1.6-2.1c0.2-0.6,0.1-1.2-0.4-1.7c-0.5-0.5-1-0.7-1.6-0.6c-0.6,0.1-1.3,0.5-2.2,1.3L64.4,304.7z"/>
				</g>
				<g>
					<path class="st15" d="M58.8,295c1.2-1,2.4-1.5,3.3-1.6s1.8,0.4,2.5,1.3c0.7,0.9,1,1.8,0.7,2.7s-1,1.9-2.1,2.8l-1.4,1.1
						c-1.2,1-2.3,1.5-3.3,1.6c-0.9,0.1-1.8-0.4-2.5-1.3c-0.7-0.9-1-1.8-0.7-2.7c0.2-0.9,1-1.8,2.2-2.8L58.8,295z M58.2,297.3
						c-0.9,0.7-1.5,1.4-1.7,2s-0.1,1.2,0.3,1.7s1,0.8,1.6,0.7s1.3-0.5,2.2-1.1l1.7-1.4c0.9-0.7,1.5-1.4,1.7-2
						c0.2-0.6,0.1-1.2-0.3-1.7c-0.4-0.5-0.9-0.8-1.6-0.7c-0.6,0.1-1.4,0.5-2.2,1.1L58.2,297.3z"/>
				</g>
				<g>
					<path class="st15" d="M58.3,286.5l0.8,1.1l-7.5,5.3l2.4,1.7l-1,0.7l-3.5-2.3l-0.1-0.2L58.3,286.5z"/>
				</g>
				<g>
					<path class="st15" d="M48.1,279.3c1.4-0.9,2.5-1.3,3.5-1.2c1,0,1.7,0.6,2.4,1.5c0.6,1,0.8,1.9,0.4,2.8s-1.2,1.7-2.4,2.6l-1.5,1
						c-1.3,0.9-2.5,1.2-3.4,1.2c-0.9,0-1.7-0.6-2.4-1.6c-0.6-1-0.8-1.9-0.4-2.8s1.2-1.7,2.5-2.5L48.1,279.3z M47.2,281.5
						c-1,0.6-1.6,1.2-1.9,1.8c-0.3,0.6-0.2,1.1,0.2,1.7c0.4,0.6,0.9,0.9,1.5,0.9c0.6,0,1.4-0.3,2.3-0.9l1.9-1.2
						c1-0.6,1.6-1.2,1.9-1.8c0.3-0.6,0.2-1.2-0.1-1.8c-0.4-0.6-0.8-0.9-1.5-0.9c-0.6,0-1.4,0.3-2.4,0.9L47.2,281.5z"/>
				</g>
				<g>
					<path class="st15" d="M48.5,270.8l0.7,1.2l-8,4.4l2.2,1.9l-1.1,0.6l-3.2-2.7L39,276L48.5,270.8z"/>
				</g>
				<g>
					<path class="st15" d="M37.3,258.1c1.5-0.7,2.7-0.9,3.6-0.7s1.7,0.8,2.1,1.9c0.5,1,0.5,2,0,2.8s-1.4,1.5-2.8,2.2l-1.7,0.8
						c-1.5,0.6-2.6,0.9-3.6,0.7c-0.9-0.2-1.6-0.8-2.1-1.9c-0.5-1.1-0.5-2,0-2.8s1.4-1.5,2.8-2.2L37.3,258.1z M36.2,260.2
						c-1.1,0.5-1.8,1-2.1,1.5s-0.4,1.1-0.1,1.7c0.3,0.6,0.7,1,1.3,1.1c0.6,0.1,1.4-0.1,2.4-0.5l2-0.9c1.1-0.5,1.8-1,2.2-1.5
						c0.4-0.5,0.4-1.1,0.1-1.8c-0.3-0.6-0.7-1-1.3-1.1c-0.6-0.1-1.4,0.1-2.5,0.5L36.2,260.2z"/>
				</g>
				<g>
					<path class="st15" d="M38.9,249.7l0.5,1.3l-8.5,3.3l1.9,2.2l-1.2,0.4l-2.8-3.1l-0.1-0.2L38.9,249.7z"/>
				</g>
				<g>
					<path class="st15" d="M30.9,240.2c1.5-0.5,2.8-0.6,3.7-0.3c0.9,0.3,1.5,1,1.9,2.1c0.3,1.1,0.2,2-0.3,2.8s-1.6,1.4-3,1.9
						l-1.8,0.6c-1.5,0.5-2.7,0.6-3.6,0.3c-0.9-0.3-1.5-1-1.9-2.1c-0.4-1.1-0.2-2,0.3-2.8c0.5-0.8,1.6-1.4,3-1.8L30.9,240.2z
						 M29.5,242.1c-1.1,0.4-1.9,0.8-2.3,1.2s-0.5,1-0.3,1.7c0.2,0.7,0.6,1.1,1.2,1.2c0.6,0.1,1.4,0.1,2.5-0.3l2.1-0.7
						c1.1-0.4,1.9-0.8,2.3-1.3c0.4-0.5,0.5-1.1,0.3-1.7c-0.2-0.6-0.6-1.1-1.2-1.2c-0.6-0.2-1.4-0.1-2.5,0.2L29.5,242.1z"/>
				</g>
				<g>
					<path class="st15" d="M33.4,232l0.3,1.3l-8.9,2.3l1.7,2.4l-1.2,0.3l-2.4-3.4l0-0.2L33.4,232z"/>
				</g>
				<g>
					<path class="st15" d="M26.4,221.7c1.6-0.3,2.8-0.3,3.7,0.1c0.9,0.4,1.4,1.1,1.6,2.3c0.2,1.1,0,2-0.6,2.7
						c-0.6,0.7-1.7,1.2-3.2,1.5l-1.8,0.4c-1.6,0.3-2.8,0.3-3.6-0.1s-1.4-1.2-1.6-2.3c-0.2-1.1,0-2.1,0.6-2.7
						c0.6-0.7,1.7-1.2,3.2-1.5L26.4,221.7z M24.9,223.4c-1.1,0.2-1.9,0.6-2.4,1c-0.5,0.4-0.6,1-0.5,1.7c0.1,0.7,0.5,1.1,1.1,1.4
						s1.4,0.2,2.5,0l2.1-0.4c1.1-0.2,2-0.6,2.4-1s0.6-1,0.5-1.7c-0.1-0.7-0.5-1.1-1.1-1.3s-1.4-0.2-2.5,0L24.9,223.4z"/>
				</g>
				<g>
					<path class="st15" d="M25,212.2c1.6-0.2,2.8-0.1,3.7,0.3s1.4,1.2,1.5,2.4c0.2,1.1-0.1,2-0.8,2.7c-0.7,0.7-1.8,1.1-3.3,1.3
						l-1.8,0.3c-1.6,0.2-2.8,0.1-3.6-0.3s-1.3-1.2-1.5-2.4c-0.2-1.1,0.1-2.1,0.8-2.7c0.7-0.6,1.8-1.1,3.3-1.3L25,212.2z M23.4,213.8
						c-1.1,0.2-2,0.4-2.5,0.8c-0.5,0.4-0.7,0.9-0.6,1.6c0.1,0.7,0.4,1.2,1,1.4c0.6,0.2,1.4,0.3,2.5,0.1l2.2-0.3
						c1.2-0.2,2-0.4,2.5-0.9s0.7-1,0.6-1.6c-0.1-0.7-0.4-1.1-1-1.4c-0.6-0.2-1.4-0.3-2.5-0.2L23.4,213.8z"/>
				</g>
				<g>
					<path class="st15" d="M28.9,204.6l0.1,1.4l-9.1,0.8l1.2,2.7l-1.2,0.1l-1.8-3.8l0-0.2L28.9,204.6z"/>
				</g>
				<g>
					<path class="st15" d="M23.8,193.2c1.6,0,2.8,0.2,3.6,0.7c0.8,0.5,1.2,1.4,1.2,2.5c0,1.1-0.3,2-1.1,2.6
						c-0.8,0.6-1.9,0.9-3.4,0.9l-1.8,0.1c-1.6,0-2.8-0.2-3.6-0.7c-0.8-0.5-1.2-1.4-1.2-2.6c0-1.2,0.3-2,1-2.6s1.9-0.9,3.4-0.9
						L23.8,193.2z M22,194.6c-1.2,0-2,0.2-2.5,0.6s-0.8,0.9-0.8,1.6c0,0.7,0.3,1.2,0.8,1.5c0.5,0.3,1.4,0.4,2.5,0.4l2.2-0.1
						c1.2,0,2-0.2,2.6-0.6c0.5-0.4,0.8-0.9,0.8-1.6c0-0.7-0.3-1.2-0.8-1.5c-0.5-0.3-1.4-0.5-2.5-0.4L22,194.6z"/>
				</g>
				<g>
					<path class="st15" d="M24.3,178.9c1.6,0.1,2.8,0.4,3.5,1s1.1,1.5,1,2.6c-0.1,1.1-0.5,2-1.3,2.5c-0.8,0.5-2,0.7-3.5,0.7
						l-1.8-0.1c-1.6-0.1-2.8-0.4-3.5-1s-1.1-1.5-1-2.6c0.1-1.2,0.5-2,1.3-2.5c0.8-0.5,1.9-0.7,3.5-0.6L24.3,178.9z M22.4,180.2
						c-1.2-0.1-2,0.1-2.6,0.3s-0.8,0.8-0.9,1.5c0,0.7,0.2,1.2,0.7,1.6s1.3,0.6,2.4,0.6l2.2,0.1c1.2,0.1,2-0.1,2.6-0.4
						c0.6-0.3,0.9-0.8,0.9-1.5c0-0.7-0.2-1.2-0.7-1.6c-0.5-0.4-1.3-0.6-2.4-0.7L22.4,180.2z"/>
				</g>
				<g>
					<path class="st15" d="M29.7,172.2l-0.2,1.4l-9.1-1.1l0.7,2.9l-1.2-0.1l-1-4.1l0-0.2L29.7,172.2z"/>
				</g>
				<g>
					<path class="st15" d="M26.9,160c1.6,0.3,2.7,0.8,3.4,1.4s0.9,1.6,0.7,2.7c-0.2,1.1-0.7,1.9-1.6,2.3s-2,0.5-3.5,0.3l-1.8-0.3
						c-1.6-0.3-2.7-0.8-3.4-1.4s-0.9-1.6-0.7-2.7c0.2-1.1,0.7-1.9,1.5-2.3c0.8-0.4,2-0.5,3.5-0.2L26.9,160z M24.9,161.1
						c-1.1-0.2-2-0.2-2.6,0.1s-0.9,0.7-1,1.4c-0.1,0.7,0,1.2,0.5,1.6c0.5,0.4,1.2,0.7,2.3,0.9l2.2,0.4c1.1,0.2,2,0.2,2.6-0.1
						c0.6-0.2,1-0.7,1.1-1.4s-0.1-1.2-0.5-1.6c-0.5-0.4-1.2-0.7-2.4-0.9L24.9,161.1z"/>
				</g>
				<g>
					<path class="st15" d="M33,154l-0.3,1.4l-8.9-2.1l0.4,2.9l-1.2-0.3l-0.5-4.2l0-0.2L33,154z"/>
				</g>
				<g>
					<path class="st15" d="M31.6,141.6c1.5,0.4,2.6,1.1,3.2,1.8c0.6,0.8,0.7,1.7,0.4,2.8c-0.3,1.1-0.9,1.8-1.8,2.1s-2.1,0.3-3.5-0.1
						l-1.8-0.5c-1.5-0.4-2.6-1-3.2-1.8c-0.6-0.8-0.7-1.7-0.4-2.8c0.3-1.1,0.9-1.8,1.8-2.1s2-0.3,3.5,0.2L31.6,141.6z M29.5,142.3
						c-1.1-0.3-2-0.4-2.6-0.2c-0.6,0.2-1,0.6-1.2,1.3c-0.2,0.7-0.1,1.2,0.3,1.7s1.1,0.9,2.2,1.2l2.1,0.6c1.1,0.3,2,0.4,2.6,0.2
						c0.6-0.2,1-0.6,1.2-1.2c0.2-0.6,0.1-1.2-0.3-1.7c-0.4-0.5-1.2-0.9-2.2-1.2L29.5,142.3z"/>
				</g>
				<g>
					<path class="st15" d="M38.3,136.2l-0.5,1.3l-8.6-3.1l0,2.9l-1.2-0.4l-0.1-4.2l0.1-0.2L38.3,136.2z"/>
				</g>
				<g>
					<path class="st15" d="M38.4,123.7c1.5,0.6,2.5,1.3,3,2.2c0.5,0.8,0.5,1.8,0.1,2.8c-0.5,1.1-1.1,1.7-2,1.9s-2.1,0-3.5-0.5
						l-1.7-0.7c-1.5-0.6-2.4-1.3-2.9-2.1c-0.5-0.8-0.5-1.8-0.1-2.8c0.5-1.1,1.1-1.7,2-1.9c0.9-0.2,2.1,0,3.5,0.6L38.4,123.7z
						 M36.1,124.3c-1.1-0.4-1.9-0.6-2.5-0.5c-0.6,0.1-1.1,0.5-1.3,1.1c-0.3,0.7-0.2,1.2,0.1,1.7s1,1,2.1,1.4l2,0.8
						c1.1,0.4,1.9,0.6,2.6,0.5c0.6-0.1,1.1-0.5,1.4-1.1c0.3-0.6,0.2-1.2-0.1-1.7c-0.4-0.5-1-1-2.1-1.4L36.1,124.3z"/>
				</g>
				<g>
					<path class="st15" d="M42.5,115.1c1.5,0.7,2.4,1.5,2.9,2.3s0.4,1.8-0.1,2.8c-0.5,1-1.2,1.6-2.2,1.8s-2.1-0.1-3.5-0.7l-1.7-0.8
						c-1.4-0.7-2.4-1.5-2.8-2.3c-0.5-0.8-0.4-1.8,0.1-2.8c0.5-1,1.2-1.7,2.1-1.8c0.9-0.2,2.1,0.1,3.5,0.8L42.5,115.1z M40.2,115.5
						c-1-0.5-1.9-0.7-2.5-0.7s-1.1,0.4-1.4,1s-0.3,1.2,0,1.7c0.3,0.5,1,1,2,1.5l2,1c1,0.5,1.9,0.7,2.5,0.7c0.7-0.1,1.1-0.4,1.4-1
						c0.3-0.6,0.3-1.2,0-1.7c-0.3-0.5-1-1-2-1.6L40.2,115.5z"/>
				</g>
				<g>
					<path class="st15" d="M49.6,102.7c1.4,0.8,2.3,1.7,2.7,2.6c0.4,0.9,0.3,1.8-0.3,2.8c-0.6,1-1.4,1.5-2.3,1.6s-2.1-0.3-3.4-1
						l-1.6-0.9c-1.4-0.8-2.2-1.7-2.6-2.5c-0.4-0.9-0.3-1.8,0.3-2.8c0.6-1,1.4-1.5,2.3-1.6s2,0.3,3.4,1.1L49.6,102.7z M47.3,103
						c-1-0.6-1.8-0.9-2.4-0.9s-1.1,0.3-1.5,0.9c-0.4,0.6-0.4,1.2-0.1,1.7s0.9,1.1,1.8,1.7l1.9,1.1c1,0.6,1.8,0.9,2.5,0.9
						c0.7,0,1.2-0.3,1.5-0.9c0.3-0.6,0.4-1.2,0.1-1.7c-0.3-0.6-0.9-1.1-1.9-1.7L47.3,103z"/>
				</g>
				<g>
					<path class="st15" d="M57.4,99.2l-0.8,1.1l-7.6-5.1l-0.7,2.9l-1-0.7l1-4.1l0.1-0.2L57.4,99.2z"/>
				</g>
				<g>
					<path class="st15" d="M62.9,91.8l-0.8,1.1l-7.3-5.6l-0.9,2.8l-1-0.8l1.2-4l0.1-0.2L62.9,91.8z"/>
				</g>
				<g>
					<path class="st15" d="M66.8,79.9c1.2,1.1,1.9,2,2.2,3c0.2,0.9,0,1.8-0.8,2.7c-0.8,0.9-1.6,1.3-2.5,1.2c-0.9-0.1-2-0.6-3.2-1.6
						L61.1,84c-1.2-1-1.9-2-2.2-2.9c-0.2-0.9,0-1.8,0.8-2.7c0.8-0.9,1.6-1.3,2.5-1.2c0.9,0.1,2,0.6,3.2,1.6L66.8,79.9z M64.4,79.7
						c-0.9-0.8-1.6-1.2-2.2-1.3s-1.2,0.1-1.6,0.7c-0.5,0.5-0.6,1.1-0.4,1.7c0.2,0.6,0.7,1.2,1.5,2l1.7,1.4c0.9,0.8,1.6,1.2,2.3,1.3
						c0.6,0.1,1.2-0.1,1.6-0.6c0.4-0.5,0.6-1.1,0.4-1.7c-0.2-0.6-0.7-1.3-1.6-2L64.4,79.7z"/>
				</g>
				<g>
					<path class="st15" d="M75.1,77.8l-1,1l-6.6-6.3l-1.2,2.7l-0.9-0.9l1.7-3.9l0.2-0.2L75.1,77.8z"/>
				</g>
				<g>
					<path class="st15" d="M80.3,66.4c1.1,1.2,1.7,2.2,1.8,3.2c0.1,0.9-0.2,1.8-1.1,2.6c-0.8,0.8-1.7,1.1-2.7,0.9s-1.9-0.8-3-1.9
						l-1.2-1.3c-1.1-1.2-1.7-2.2-1.8-3.2s0.2-1.8,1.1-2.6c0.8-0.8,1.7-1.1,2.6-0.9c0.9,0.2,1.9,0.8,3,1.9L80.3,66.4z M78,66
						c-0.8-0.8-1.5-1.4-2.1-1.5s-1.2,0-1.7,0.5s-0.7,1-0.6,1.6s0.6,1.3,1.3,2.1l1.5,1.6c0.8,0.9,1.5,1.4,2.1,1.6s1.2,0,1.7-0.4
						c0.5-0.5,0.7-1,0.6-1.6c-0.1-0.6-0.6-1.3-1.3-2.2L78,66z"/>
				</g>
				<g>
					<path class="st15" d="M87.6,60.3c1,1.2,1.6,2.3,1.7,3.3c0.1,0.9-0.3,1.8-1.2,2.6c-0.9,0.7-1.8,1-2.7,0.8
						c-0.9-0.2-1.9-0.9-2.8-2.1l-1.2-1.4c-1-1.2-1.6-2.3-1.6-3.3c-0.1-0.9,0.3-1.8,1.2-2.5c0.9-0.7,1.8-1,2.7-0.8
						c0.9,0.2,1.8,0.9,2.8,2.1L87.6,60.3z M85.3,59.7c-0.7-0.9-1.4-1.4-2-1.7c-0.6-0.2-1.2-0.1-1.7,0.4c-0.5,0.5-0.8,1-0.7,1.6
						s0.5,1.3,1.2,2.2l1.4,1.7c0.7,0.9,1.4,1.5,2,1.7c0.6,0.2,1.2,0.1,1.7-0.3c0.5-0.4,0.7-1,0.7-1.6c-0.1-0.6-0.5-1.4-1.2-2.2
						L85.3,59.7z"/>
				</g>
				<g>
					<path class="st15" d="M96.1,59.6L95,60.4L89.6,53L88,55.5l-0.7-1l2.3-3.5l0.2-0.1L96.1,59.6z"/>
				</g>
				<g>
					<path class="st15" d="M107.2,46.9c0.8,1.4,1.2,2.5,1.2,3.5c-0.1,1-0.6,1.7-1.6,2.3c-1,0.6-1.9,0.7-2.8,0.4
						c-0.9-0.4-1.7-1.2-2.5-2.5l-1-1.6c-0.8-1.3-1.2-2.5-1.1-3.5s0.6-1.7,1.6-2.3c1-0.6,1.9-0.7,2.8-0.4c0.9,0.3,1.7,1.2,2.5,2.5
						L107.2,46.9z M105.1,46c-0.6-1-1.2-1.6-1.7-1.9c-0.6-0.3-1.1-0.2-1.7,0.1c-0.6,0.4-0.9,0.9-0.9,1.5s0.3,1.4,0.8,2.3l1.2,1.9
						c0.6,1,1.2,1.6,1.8,1.9s1.2,0.3,1.8-0.1c0.6-0.3,0.9-0.8,0.9-1.5c0-0.6-0.3-1.4-0.8-2.4L105.1,46z"/>
				</g>
				<g>
					<path class="st15" d="M115.7,47.5l-1.2,0.7l-4.3-8.1l-2,2.2l-0.6-1.1l2.8-3.2l0.2-0.1L115.7,47.5z"/>
				</g>
				<g>
					<path class="st15" d="M124.1,43.4l-1.2,0.6l-3.9-8.3l-2.1,2.1l-0.5-1.1l2.9-3l0.2-0.1L124.1,43.4z"/>
				</g>
				<g>
					<path class="st15" d="M133,34.6c0.6,1.5,0.8,2.7,0.6,3.6s-0.9,1.6-2,2c-1.1,0.4-2,0.4-2.8-0.1c-0.8-0.5-1.5-1.5-2.1-2.9
						l-0.7-1.7c-0.6-1.5-0.8-2.7-0.5-3.6c0.2-0.9,0.9-1.6,2-2c1.1-0.4,2-0.4,2.8,0.1s1.5,1.5,2.1,2.9L133,34.6z M131.1,33.4
						c-0.4-1.1-0.9-1.8-1.4-2.2s-1.1-0.4-1.7-0.2c-0.7,0.3-1,0.7-1.1,1.3c-0.1,0.6,0,1.4,0.4,2.5l0.8,2c0.4,1.1,0.9,1.8,1.4,2.2
						c0.5,0.4,1.1,0.5,1.7,0.2c0.6-0.2,1-0.7,1.1-1.3s0-1.4-0.4-2.5L131.1,33.4z"/>
				</g>
				<g>
					<path class="st15" d="M141.4,36.6l-1.3,0.5l-3-8.6l-2.3,1.9l-0.4-1.2l3.2-2.7l0.2-0.1L141.4,36.6z"/>
				</g>
				<g>
					<path class="st15" d="M150.3,34l-1.3,0.4l-2.4-8.8l-2.4,1.7l-0.3-1.2l3.4-2.5l0.2-0.1L150.3,34z"/>
				</g>
				<g>
					<path class="st15" d="M159.3,31.8l-1.4,0.3l-1.9-9l-2.5,1.6l-0.3-1.2l3.5-2.3l0.2,0L159.3,31.8z"/>
				</g>
				<g>
					<path class="st15" d="M169.9,25.3c0.2,1.6,0.2,2.8-0.3,3.7s-1.2,1.4-2.4,1.5c-1.1,0.2-2-0.1-2.7-0.7c-0.7-0.7-1.1-1.8-1.4-3.2
						l-0.3-1.8c-0.2-1.6-0.1-2.8,0.3-3.6c0.4-0.9,1.2-1.4,2.4-1.5c1.1-0.2,2.1,0.1,2.7,0.7s1.1,1.8,1.4,3.3L169.9,25.3z M168.3,23.7
						c-0.2-1.1-0.5-2-0.9-2.4c-0.4-0.5-1-0.7-1.7-0.5c-0.7,0.1-1.2,0.5-1.4,1c-0.2,0.6-0.3,1.4-0.1,2.5l0.3,2.2
						c0.2,1.1,0.5,2,0.9,2.5s1,0.7,1.6,0.6c0.7-0.1,1.1-0.4,1.4-1c0.2-0.6,0.3-1.4,0.1-2.5L168.3,23.7z"/>
				</g>
				<g>
					<path class="st15" d="M184.2,24c0.1,1.6-0.1,2.8-0.6,3.6c-0.5,0.8-1.3,1.3-2.5,1.4c-1.1,0.1-2-0.2-2.6-1
						c-0.6-0.7-1-1.8-1.1-3.4l-0.1-1.8c-0.1-1.6,0.1-2.8,0.6-3.6s1.3-1.2,2.5-1.3c1.2-0.1,2,0.2,2.6,0.9c0.6,0.7,1,1.8,1.1,3.4
						L184.2,24z M182.7,22.2c-0.1-1.2-0.3-2-0.7-2.5s-0.9-0.7-1.6-0.7c-0.7,0-1.2,0.4-1.5,0.9c-0.3,0.5-0.4,1.4-0.3,2.5l0.1,2.2
						c0.1,1.2,0.3,2,0.7,2.5c0.4,0.5,0.9,0.8,1.6,0.7c0.7,0,1.2-0.3,1.4-0.9s0.4-1.4,0.3-2.5L182.7,22.2z"/>
				</g>
				<g>
					<path class="st15" d="M193.7,23.8c0,1.6-0.2,2.8-0.8,3.6s-1.4,1.2-2.6,1.2c-1.1,0-2-0.4-2.6-1.1c-0.6-0.8-0.9-1.9-0.9-3.4
						l0-1.8c0-1.6,0.2-2.8,0.8-3.5c0.5-0.8,1.4-1.2,2.6-1.2c1.2,0,2,0.4,2.6,1.1c0.6,0.7,0.9,1.9,0.9,3.4L193.7,23.8z M192.3,22
						c0-1.2-0.2-2-0.5-2.5s-0.9-0.8-1.6-0.8c-0.7,0-1.2,0.3-1.5,0.8c-0.3,0.5-0.5,1.4-0.5,2.5l0,2.2c0,1.2,0.2,2,0.5,2.6
						c0.4,0.5,0.9,0.8,1.6,0.8c0.7,0,1.2-0.3,1.5-0.8c0.3-0.5,0.5-1.4,0.5-2.5L192.3,22z"/>
				</g>
				<g>
					<path class="st15" d="M200.8,28.7l-1.4-0.1l0.4-9.1l-2.8,0.9l0.1-1.2l4-1.3l0.2,0L200.8,28.7z"/>
				</g>
				<g>
					<path class="st15" d="M212.7,25.1c-0.2,1.6-0.6,2.8-1.2,3.5c-0.6,0.7-1.5,1-2.7,0.9c-1.1-0.1-2-0.6-2.4-1.4
						c-0.5-0.8-0.6-2-0.5-3.5l0.2-1.8c0.2-1.6,0.6-2.7,1.2-3.4c0.6-0.7,1.5-1,2.7-0.9c1.2,0.1,2,0.6,2.4,1.4c0.5,0.8,0.6,2,0.5,3.5
						L212.7,25.1z M211.6,23.1c0.1-1.2,0-2-0.2-2.6c-0.3-0.6-0.8-0.9-1.5-1c-0.7-0.1-1.2,0.1-1.6,0.6c-0.4,0.5-0.6,1.3-0.7,2.4
						l-0.2,2.2c-0.1,1.2,0,2,0.2,2.6s0.8,0.9,1.4,1c0.7,0.1,1.2-0.1,1.6-0.6s0.6-1.3,0.8-2.4L211.6,23.1z"/>
				</g>
				<g>
					<path class="st15" d="M222.1,26.5c-0.2,1.6-0.7,2.7-1.4,3.4c-0.7,0.7-1.6,0.9-2.7,0.8c-1.1-0.2-1.9-0.7-2.4-1.5
						c-0.4-0.8-0.5-2-0.3-3.5l0.3-1.8c0.2-1.6,0.7-2.7,1.4-3.4c0.7-0.7,1.6-0.9,2.7-0.7c1.1,0.2,1.9,0.7,2.4,1.5
						c0.4,0.8,0.5,2,0.3,3.5L222.1,26.5z M221.1,24.4c0.2-1.1,0.2-2-0.1-2.6s-0.7-0.9-1.4-1c-0.7-0.1-1.2,0.1-1.6,0.5
						c-0.4,0.5-0.7,1.2-0.9,2.3l-0.4,2.2c-0.2,1.1-0.1,2,0.1,2.6c0.2,0.6,0.7,1,1.4,1.1c0.7,0.1,1.2-0.1,1.6-0.5
						c0.4-0.5,0.7-1.2,0.9-2.4L221.1,24.4z"/>
				</g>
				<g>
					<path class="st15" d="M231.5,28.5c-0.3,1.6-0.9,2.7-1.6,3.3c-0.7,0.6-1.6,0.8-2.8,0.6c-1.1-0.2-1.9-0.8-2.3-1.7
						c-0.4-0.9-0.4-2-0.1-3.5l0.4-1.8c0.3-1.5,0.9-2.6,1.6-3.3c0.7-0.6,1.6-0.8,2.8-0.6s1.9,0.8,2.3,1.6s0.4,2,0.1,3.5L231.5,28.5z
						 M230.5,26.3c0.2-1.1,0.3-2,0.1-2.6s-0.6-1-1.4-1.1c-0.7-0.1-1.2,0-1.7,0.5s-0.8,1.2-1,2.3l-0.5,2.1c-0.2,1.1-0.3,2-0.1,2.6
						c0.2,0.6,0.6,1,1.3,1.1c0.7,0.1,1.2,0,1.6-0.5c0.4-0.4,0.8-1.2,1-2.3L230.5,26.3z"/>
				</g>
				<g>
					<path class="st15" d="M240.7,31c-0.4,1.5-1,2.6-1.8,3.2c-0.7,0.6-1.7,0.8-2.8,0.4c-1.1-0.3-1.8-0.9-2.2-1.8
						c-0.3-0.9-0.3-2.1,0.1-3.5l0.5-1.8c0.4-1.5,1-2.6,1.8-3.2s1.7-0.7,2.8-0.4c1.1,0.3,1.8,0.9,2.2,1.8c0.3,0.9,0.3,2-0.1,3.5
						L240.7,31z M239.9,28.8c0.3-1.1,0.4-2,0.2-2.6s-0.6-1-1.3-1.2s-1.2-0.1-1.7,0.4s-0.8,1.2-1.1,2.2l-0.6,2.1
						c-0.3,1.1-0.4,2-0.2,2.6c0.2,0.6,0.6,1,1.3,1.2c0.6,0.2,1.2,0.1,1.7-0.3c0.5-0.4,0.9-1.2,1.2-2.2L239.9,28.8z"/>
				</g>
				<g>
					<path class="st15" d="M249.8,34c-0.5,1.5-1.2,2.6-1.9,3.1c-0.8,0.6-1.7,0.7-2.8,0.3c-1.1-0.4-1.8-1-2.1-1.9s-0.2-2.1,0.3-3.5
						l0.6-1.7c0.5-1.5,1.1-2.5,1.9-3.1s1.7-0.6,2.8-0.3c1.1,0.4,1.8,1,2.1,1.9c0.3,0.9,0.2,2.1-0.3,3.5L249.8,34z M249.1,31.8
						c0.4-1.1,0.5-2,0.4-2.6c-0.1-0.6-0.5-1-1.2-1.3c-0.7-0.2-1.2-0.1-1.7,0.2s-0.9,1.1-1.3,2.1l-0.7,2.1c-0.4,1.1-0.5,2-0.4,2.6
						c0.1,0.6,0.5,1.1,1.2,1.3c0.6,0.2,1.2,0.1,1.7-0.3s0.9-1.1,1.3-2.2L249.1,31.8z"/>
				</g>
				<g>
					<path class="st15" d="M262.9,39.4c-0.6,1.5-1.4,2.5-2.2,3c-0.8,0.5-1.8,0.5-2.8,0c-1.1-0.5-1.7-1.2-1.9-2.1
						c-0.2-0.9,0-2.1,0.6-3.5l0.7-1.7c0.6-1.5,1.4-2.4,2.2-2.9c0.8-0.5,1.8-0.5,2.8,0c1.1,0.5,1.7,1.2,1.9,2c0.2,0.9,0,2.1-0.6,3.5
						L262.9,39.4z M262.4,37.1c0.5-1.1,0.7-1.9,0.6-2.5c-0.1-0.6-0.5-1.1-1.1-1.3c-0.6-0.3-1.2-0.2-1.7,0.1s-1,1-1.4,2l-0.9,2
						c-0.5,1.1-0.7,1.9-0.6,2.6c0.1,0.7,0.4,1.1,1.1,1.4c0.6,0.3,1.2,0.2,1.7-0.1s1-1,1.5-2.1L262.4,37.1z"/>
				</g>
				<g>
					<path class="st15" d="M267.4,46.7l-1.2-0.6l4.1-8.2l-2.9-0.3l0.6-1.1l4.2,0.5l0.2,0.1L267.4,46.7z"/>
				</g>
				<g>
					<path class="st15" d="M279.8,48.4c-0.8,1.4-1.6,2.3-2.5,2.7c-0.9,0.4-1.8,0.3-2.8-0.3c-1-0.6-1.5-1.3-1.6-2.3s0.2-2.1,1-3.4
						l0.9-1.6c0.8-1.4,1.6-2.3,2.5-2.7c0.9-0.4,1.8-0.3,2.8,0.3s1.6,1.3,1.7,2.3s-0.2,2-1,3.4L279.8,48.4z M279.5,46.1
						c0.6-1,0.9-1.8,0.9-2.5c0-0.6-0.3-1.1-0.9-1.5c-0.6-0.3-1.2-0.4-1.7-0.1c-0.5,0.3-1.1,0.9-1.7,1.9l-1.1,1.9
						c-0.6,1-0.9,1.8-0.9,2.5s0.3,1.2,0.9,1.5c0.6,0.3,1.1,0.4,1.7,0.1c0.5-0.3,1.1-0.9,1.7-1.9L279.5,46.1z"/>
				</g>
				<g>
					<path class="st15" d="M283.3,56.2l-1.1-0.8l5-7.6l-2.9-0.7l0.7-1l4.1,0.9l0.2,0.1L283.3,56.2z"/>
				</g>
				<g>
					<path class="st15" d="M295.5,59.2c-1,1.3-1.9,2.1-2.8,2.4c-0.9,0.3-1.8,0.1-2.8-0.6c-0.9-0.7-1.4-1.5-1.4-2.5
						c0-0.9,0.5-2,1.4-3.3l1.1-1.5c1-1.3,1.9-2.1,2.8-2.3c0.9-0.3,1.8-0.1,2.8,0.6c0.9,0.7,1.4,1.5,1.4,2.4c0,0.9-0.5,2-1.4,3.3
						L295.5,59.2z M295.5,56.8c0.7-0.9,1.1-1.7,1.1-2.3c0-0.6-0.2-1.2-0.8-1.6c-0.6-0.4-1.1-0.5-1.7-0.3c-0.6,0.2-1.2,0.8-1.9,1.7
						l-1.3,1.8c-0.7,0.9-1.1,1.7-1.1,2.4s0.2,1.2,0.7,1.6c0.5,0.4,1.1,0.5,1.7,0.3s1.2-0.8,1.9-1.7L295.5,56.8z"/>
				</g>
				<g>
					<path class="st15" d="M298.1,67.3l-1.1-0.9l5.9-7l-2.8-1l0.8-1l4,1.4l0.2,0.1L298.1,67.3z"/>
				</g>
				<g>
					<path class="st15" d="M309.9,71.7c-1.1,1.2-2.1,1.9-3,2.1s-1.8-0.1-2.7-0.9c-0.8-0.8-1.2-1.7-1.1-2.6c0.1-0.9,0.7-2,1.7-3.1
						l1.2-1.3c1.1-1.2,2.1-1.8,3-2s1.8,0.1,2.7,0.9c0.9,0.8,1.2,1.7,1.1,2.6c-0.1,0.9-0.7,1.9-1.7,3.1L309.9,71.7z M310.2,69.4
						c0.8-0.8,1.2-1.6,1.4-2.2s-0.1-1.2-0.6-1.6c-0.5-0.5-1.1-0.6-1.7-0.5c-0.6,0.2-1.3,0.7-2,1.4l-1.5,1.6
						c-0.8,0.8-1.3,1.6-1.4,2.2c-0.1,0.6,0,1.2,0.5,1.7c0.5,0.5,1,0.6,1.6,0.5c0.6-0.2,1.3-0.6,2.1-1.5L310.2,69.4z"/>
				</g>
				<g>
					<path class="st15" d="M316.5,78.5c-1.2,1.1-2.2,1.7-3.2,1.9s-1.8-0.2-2.6-1.1c-0.8-0.8-1.1-1.7-0.9-2.6c0.2-0.9,0.8-1.9,1.9-3
						l1.3-1.3c1.1-1.1,2.2-1.7,3.1-1.8c0.9-0.1,1.8,0.2,2.6,1.1c0.8,0.8,1.1,1.7,1,2.6c-0.2,0.9-0.8,1.9-1.9,3L316.5,78.5z
						 M316.9,76.2c0.8-0.8,1.3-1.5,1.5-2.1c0.2-0.6,0-1.2-0.5-1.7c-0.5-0.5-1-0.7-1.6-0.6c-0.6,0.1-1.3,0.6-2.1,1.3l-1.6,1.5
						c-0.9,0.8-1.4,1.5-1.5,2.2c-0.2,0.6,0,1.2,0.5,1.7c0.5,0.5,1,0.7,1.6,0.6c0.6-0.1,1.3-0.6,2.1-1.3L316.9,76.2z"/>
				</g>
				<g>
					<path class="st15" d="M325.7,89.5c-1.2,1-2.4,1.5-3.3,1.6s-1.8-0.4-2.5-1.3c-0.7-0.9-1-1.8-0.7-2.7c0.2-0.9,1-1.8,2.1-2.8
						l1.4-1.2c1.2-1,2.3-1.5,3.3-1.6s1.8,0.4,2.5,1.3c0.7,0.9,1,1.8,0.7,2.7c-0.2,0.9-1,1.8-2.2,2.8L325.7,89.5z M326.3,87.2
						c0.9-0.7,1.5-1.4,1.7-2c0.2-0.6,0.1-1.2-0.4-1.7c-0.4-0.6-1-0.8-1.6-0.7s-1.4,0.5-2.2,1.1l-1.7,1.4c-0.9,0.7-1.5,1.4-1.7,2
						s-0.1,1.2,0.3,1.7c0.4,0.5,0.9,0.8,1.6,0.7c0.6-0.1,1.4-0.4,2.3-1.2L326.3,87.2z"/>
				</g>
				<g>
					<path class="st15" d="M326.2,98l-0.8-1.1l7.5-5.3l-2.4-1.7l1-0.7l3.5,2.3l0.1,0.2L326.2,98z"/>
				</g>
				<g>
					<path class="st15" d="M331.3,105.7l-0.7-1.2l7.7-4.9l-2.3-1.8l1.1-0.7l3.4,2.5l0.1,0.2L331.3,105.7z"/>
				</g>
				<g>
					<path class="st15" d="M341.1,113.5c-1.4,0.8-2.6,1.1-3.5,1c-1-0.1-1.7-0.7-2.3-1.7c-0.6-1-0.6-1.9-0.2-2.8
						c0.4-0.8,1.3-1.7,2.6-2.4l1.6-0.9c1.4-0.8,2.6-1.1,3.5-1s1.7,0.7,2.3,1.7c0.6,1,0.6,1.9,0.3,2.8c-0.4,0.8-1.3,1.6-2.6,2.4
						L341.1,113.5z M342.1,111.4c1-0.6,1.7-1.1,2-1.7c0.3-0.5,0.3-1.1,0-1.7s-0.8-0.9-1.4-1s-1.4,0.2-2.4,0.8l-1.9,1.1
						c-1,0.6-1.7,1.1-2,1.7c-0.3,0.6-0.3,1.2,0,1.8c0.3,0.6,0.8,0.9,1.4,0.9c0.6,0,1.4-0.2,2.4-0.8L342.1,111.4z"/>
				</g>
				<g>
					<path class="st15" d="M340.2,122l-0.6-1.2l8.2-4l-2.1-2.1l1.1-0.5l3,2.9l0.1,0.2L340.2,122z"/>
				</g>
				<g>
					<path class="st15" d="M343.9,130.5l-0.5-1.3l8.5-3.5l-2-2.2l1.1-0.5l2.9,3.1l0.1,0.2L343.9,130.5z"/>
				</g>
				<g>
					<path class="st15" d="M347.1,139.2l-0.5-1.3l8.6-3l-1.9-2.3l1.2-0.4l2.7,3.2l0.1,0.2L347.1,139.2z"/>
				</g>
				<g>
					<path class="st15" d="M349.9,148.1l-0.4-1.3l8.8-2.5l-1.7-2.4l1.2-0.4l2.5,3.4l0.1,0.2L349.9,148.1z"/>
				</g>
				<g>
					<path class="st15" d="M358,162.9c-1.6,0.3-2.8,0.3-3.7-0.1s-1.4-1.1-1.6-2.3c-0.2-1.1,0-2,0.6-2.7c0.6-0.7,1.7-1.2,3.2-1.5
						l1.8-0.4c1.6-0.3,2.8-0.3,3.6,0.1c0.9,0.4,1.4,1.2,1.6,2.3c0.2,1.1,0,2.1-0.6,2.7c-0.6,0.7-1.7,1.2-3.2,1.5L358,162.9z
						 M359.6,161.2c1.1-0.2,1.9-0.6,2.4-1c0.5-0.4,0.6-1,0.5-1.7c-0.1-0.7-0.5-1.1-1.1-1.4s-1.4-0.2-2.5,0l-2.1,0.4
						c-1.1,0.2-2,0.6-2.4,1c-0.5,0.4-0.6,1-0.5,1.7c0.1,0.7,0.5,1.1,1.1,1.3c0.6,0.2,1.4,0.2,2.5,0L359.6,161.2z"/>
				</g>
				<g>
					<path class="st15" d="M354.6,170.8l-0.2-1.4l9.1-1.3l-1.4-2.6l1.2-0.2l2,3.7l0,0.2L354.6,170.8z"/>
				</g>
				<g>
					<path class="st15" d="M355.5,179.9l-0.1-1.4l9.1-0.8l-1.2-2.7l1.2-0.1l1.8,3.8l0,0.2L355.5,179.9z"/>
				</g>
				<g>
					<path class="st15" d="M360.6,191.4c-1.6,0-2.8-0.2-3.6-0.7c-0.8-0.5-1.2-1.4-1.2-2.5c0-1.1,0.3-2,1.1-2.6
						c0.8-0.6,1.9-0.9,3.4-0.9l1.8-0.1c1.6,0,2.8,0.2,3.6,0.7c0.8,0.5,1.2,1.4,1.2,2.6c0,1.2-0.3,2-1,2.6c-0.7,0.6-1.9,0.9-3.4,0.9
						L360.6,191.4z M362.5,189.9c1.2,0,2-0.2,2.5-0.6c0.5-0.3,0.8-0.9,0.8-1.6c0-0.7-0.3-1.2-0.8-1.5c-0.5-0.3-1.4-0.4-2.5-0.4
						l-2.2,0.1c-1.2,0-2,0.2-2.6,0.6c-0.5,0.4-0.8,0.9-0.8,1.6c0,0.7,0.3,1.2,0.8,1.5c0.5,0.3,1.4,0.5,2.5,0.4L362.5,189.9z"/>
				</g>
				<g>
					<path class="st15" d="M355.9,198.5l0-1.4l9.1,0.3l-0.9-2.8l1.2,0l1.4,4l0,0.2L355.9,198.5z"/>
				</g>
				<g>
					<path class="st15" d="M359.7,210.4c-1.6-0.1-2.8-0.5-3.5-1.1s-1-1.5-0.9-2.7c0.1-1.1,0.6-2,1.4-2.4c0.8-0.5,2-0.7,3.5-0.6
						l1.8,0.2c1.6,0.1,2.7,0.5,3.5,1.1c0.7,0.6,1,1.5,0.9,2.7c-0.1,1.2-0.5,2-1.3,2.5c-0.8,0.5-2,0.7-3.5,0.5L359.7,210.4z
						 M361.7,209.2c1.2,0.1,2,0,2.6-0.3s0.9-0.8,0.9-1.5s-0.2-1.2-0.7-1.6c-0.5-0.4-1.3-0.6-2.4-0.7l-2.2-0.2c-1.2-0.1-2,0-2.6,0.3
						c-0.6,0.3-0.9,0.8-1,1.5c-0.1,0.7,0.2,1.2,0.6,1.6c0.5,0.4,1.3,0.6,2.4,0.7L361.7,209.2z"/>
				</g>
				<g>
					<path class="st15" d="M354.1,217l0.2-1.4l9.1,1.3l-0.6-2.9l1.2,0.2l0.9,4.1l0,0.2L354.1,217z"/>
				</g>
				<g>
					<path class="st15" d="M352.5,226.1l0.3-1.4l9,1.8l-0.4-2.9l1.2,0.2l0.7,4.1l0,0.2L352.5,226.1z"/>
				</g>
				<g>
					<path class="st15" d="M352.8,243c-1.5-0.4-2.6-1.1-3.2-1.8c-0.6-0.8-0.7-1.7-0.4-2.8c0.3-1.1,0.9-1.8,1.8-2.1
						c0.9-0.3,2.1-0.3,3.5,0.1l1.8,0.5c1.5,0.4,2.6,1,3.2,1.8c0.6,0.7,0.7,1.7,0.4,2.8c-0.3,1.1-0.9,1.8-1.8,2.1
						c-0.9,0.3-2,0.3-3.5-0.2L352.8,243z M355,242.2c1.1,0.3,2,0.4,2.6,0.2c0.6-0.2,1-0.6,1.2-1.3c0.2-0.7,0.1-1.2-0.3-1.7
						c-0.4-0.5-1.1-0.9-2.2-1.2l-2.1-0.6c-1.1-0.3-2-0.4-2.6-0.2s-1,0.6-1.2,1.2c-0.2,0.6-0.1,1.2,0.3,1.7c0.4,0.5,1.2,0.9,2.2,1.2
						L355,242.2z"/>
				</g>
				<g>
					<path class="st15" d="M346.1,248.3l0.5-1.3l8.6,3.1l0-2.9l1.2,0.4l0.1,4.2l-0.1,0.2L346.1,248.3z"/>
				</g>
				<g>
					<path class="st15" d="M342.7,257l0.5-1.3l8.4,3.6l0.1-2.9l1.1,0.5l-0.2,4.2l-0.1,0.2L342.7,257z"/>
				</g>
				<g>
					<path class="st15" d="M341.9,269.4c-1.4-0.7-2.4-1.5-2.9-2.3s-0.4-1.8,0.1-2.8c0.5-1,1.2-1.6,2.2-1.8s2.1,0.1,3.5,0.7l1.6,0.8
						c1.4,0.7,2.4,1.5,2.8,2.3c0.5,0.8,0.4,1.8-0.1,2.8c-0.5,1-1.2,1.6-2.1,1.8c-0.9,0.2-2.1-0.1-3.5-0.8L341.9,269.4z M344.2,269
						c1,0.5,1.9,0.7,2.5,0.7s1.1-0.4,1.4-1s0.3-1.2,0-1.7c-0.3-0.5-1-1-2-1.5l-2-1c-1-0.5-1.9-0.7-2.5-0.7s-1.1,0.4-1.4,1
						c-0.3,0.6-0.3,1.2,0,1.7c0.3,0.5,1,1,2,1.5L344.2,269z"/>
				</g>
				<g>
					<path class="st15" d="M337.3,277.8c-1.4-0.8-2.3-1.6-2.7-2.5c-0.4-0.9-0.3-1.8,0.2-2.8c0.6-1,1.3-1.6,2.2-1.7
						c0.9-0.1,2.1,0.2,3.4,0.9l1.6,0.9c1.4,0.8,2.3,1.6,2.7,2.5c0.4,0.9,0.3,1.8-0.3,2.8c-0.6,1-1.3,1.6-2.2,1.7
						c-0.9,0.1-2.1-0.2-3.4-1L337.3,277.8z M339.6,277.5c1,0.6,1.8,0.8,2.5,0.8c0.6,0,1.1-0.3,1.5-1c0.3-0.6,0.4-1.2,0.1-1.7
						s-0.9-1.1-1.9-1.6l-1.9-1.1c-1-0.6-1.9-0.9-2.5-0.8c-0.6,0-1.1,0.3-1.5,0.9c-0.3,0.6-0.4,1.2,0,1.7c0.3,0.5,0.9,1.1,1.9,1.7
						L339.6,277.5z"/>
				</g>
				<g>
					<path class="st15" d="M329.6,281.5l0.7-1.2l7.7,4.9l0.6-2.9l1,0.7l-0.9,4.1l-0.1,0.2L329.6,281.5z"/>
				</g>
				<g>
					<path class="st15" d="M326.7,293.6c-1.3-0.9-2.1-1.9-2.4-2.8c-0.3-0.9-0.1-1.8,0.6-2.8c0.7-0.9,1.5-1.4,2.4-1.4
						c0.9,0,2,0.4,3.3,1.3l1.5,1.1c1.3,0.9,2.1,1.8,2.4,2.7c0.3,0.9,0.1,1.8-0.6,2.8c-0.7,0.9-1.5,1.4-2.4,1.4c-0.9,0-2-0.4-3.3-1.3
						L326.7,293.6z M329,293.6c0.9,0.7,1.7,1,2.4,1.1c0.6,0,1.1-0.2,1.5-0.8c0.4-0.6,0.5-1.1,0.3-1.7c-0.2-0.6-0.8-1.2-1.7-1.8
						l-1.8-1.3c-1-0.7-1.8-1-2.4-1.1c-0.6,0-1.2,0.2-1.6,0.8c-0.4,0.5-0.5,1.1-0.2,1.7c0.2,0.6,0.8,1.2,1.7,1.9L329,293.6z"/>
				</g>
				<g>
					<path class="st15" d="M318.6,296.4l0.9-1.1l7.1,5.8l1-2.8l1,0.8l-1.3,4l-0.1,0.2L318.6,296.4z"/>
				</g>
				<g>
					<path class="st15" d="M311.1,311.5c-1.2-1.1-1.8-2.1-2-3.1c-0.2-0.9,0.1-1.8,0.9-2.7c0.8-0.8,1.7-1.2,2.6-1
						c0.9,0.1,2,0.7,3.1,1.8l1.3,1.3c1.1,1.1,1.8,2.1,2,3c0.2,0.9-0.1,1.8-1,2.7c-0.8,0.8-1.7,1.2-2.6,1.1c-0.9-0.1-1.9-0.7-3.1-1.8
						L311.1,311.5z M313.4,311.9c0.8,0.8,1.6,1.3,2.2,1.4c0.6,0.1,1.2,0,1.6-0.6c0.5-0.5,0.6-1.1,0.5-1.7c-0.2-0.6-0.6-1.3-1.4-2
						l-1.6-1.5c-0.8-0.8-1.6-1.3-2.2-1.4c-0.6-0.1-1.2,0-1.7,0.5c-0.5,0.5-0.6,1-0.5,1.6s0.6,1.3,1.4,2.1L313.4,311.9z"/>
				</g>
				<g>
					<path class="st15" d="M302.7,313.2l1-0.9l6.2,6.7l1.3-2.6l0.9,0.9l-1.9,3.8l-0.2,0.1L302.7,313.2z"/>
				</g>
				<g>
					<path class="st15" d="M295.6,319.2l1.1-0.9l5.8,7.1l1.5-2.5l0.8,1l-2.1,3.6l-0.2,0.1L295.6,319.2z"/>
				</g>
				<g>
					<path class="st15" d="M289.2,330c-1-1.3-1.4-2.4-1.5-3.4s0.4-1.8,1.4-2.5c0.9-0.7,1.8-0.9,2.7-0.6s1.8,1,2.7,2.2l1.1,1.5
						c0.9,1.3,1.4,2.4,1.4,3.3c0,0.9-0.5,1.8-1.4,2.5c-0.9,0.7-1.9,0.9-2.7,0.6c-0.9-0.3-1.8-1-2.7-2.3L289.2,330z M291.4,330.6
						c0.7,0.9,1.3,1.5,1.9,1.8c0.6,0.2,1.1,0.1,1.7-0.3c0.6-0.4,0.8-0.9,0.8-1.5c0-0.6-0.4-1.4-1-2.3l-1.3-1.8
						c-0.7-0.9-1.3-1.5-1.9-1.8s-1.2-0.2-1.7,0.2c-0.5,0.4-0.8,0.9-0.8,1.5c0,0.6,0.4,1.4,1,2.3L291.4,330.6z"/>
				</g>
				<g>
					<path class="st15" d="M280.6,330.1l1.2-0.8l5,7.7l1.8-2.4l0.7,1l-2.5,3.4l-0.2,0.1L280.6,330.1z"/>
				</g>
				<g>
					<path class="st15" d="M272.7,334.9l1.2-0.7l4.5,8l1.9-2.3l0.6,1.1l-2.7,3.2l-0.2,0.1L272.7,334.9z"/>
				</g>
				<g>
					<path class="st15" d="M264.4,339.2l1.2-0.6l4.1,8.2l2-2.1l0.6,1.1l-2.9,3.1l-0.2,0.1L264.4,339.2z"/>
				</g>
				<g>
					<path class="st15" d="M255.8,348.2c-0.6-1.5-0.9-2.7-0.7-3.6c0.2-0.9,0.8-1.6,1.9-2.1c1.1-0.5,2-0.4,2.8,0
						c0.8,0.5,1.5,1.4,2.1,2.8l0.7,1.7c0.6,1.5,0.8,2.6,0.6,3.6c-0.2,0.9-0.8,1.6-1.9,2.1c-1.1,0.5-2,0.5-2.8,0s-1.5-1.4-2.1-2.8
						L255.8,348.2z M257.8,349.3c0.5,1.1,0.9,1.8,1.5,2.1c0.5,0.4,1.1,0.4,1.7,0.1c0.6-0.3,1-0.7,1.1-1.3c0.1-0.6-0.1-1.4-0.5-2.4
						l-0.9-2c-0.5-1.1-1-1.8-1.5-2.2s-1.1-0.4-1.7-0.2c-0.6,0.3-1,0.7-1.1,1.3c-0.1,0.6,0.1,1.4,0.5,2.5L257.8,349.3z"/>
				</g>
			</g>
			<g>
				<g>
					<path class="st13" d="M192.3,4.3c-103.9,0-188,84.1-188,188c0,103.9,84.1,188,188,188s188-84.1,188-188
						C380.2,88.4,296.2,4.3,192.3,4.3z M192.4,373.2c-100.6,0-181.9-81.4-181.9-181.9C10.5,90.7,91.8,9.4,192.4,9.4
						c100.5,0,181.9,81.3,181.9,181.9C374.3,291.8,293,373.2,192.4,373.2z"/>
				</g>
				<g>
					<path class="st13" d="M192.3,384.5C86.2,384.5,0,298.3,0,192.3S86.2,0,192.3,0s192.3,86.2,192.3,192.3S298.3,384.5,192.3,384.5
						z M192.4,13.7c-97.9,0-177.6,79.7-177.6,177.6s79.7,177.6,177.6,177.6S370,289.2,370,191.3C370,93.3,290.3,13.7,192.4,13.7z"/>
				</g>
			</g>
			<g>
				<g>
					<path class="st15" d="M189.9,352.8c-2.2,0-4.5-0.1-6.8-0.2c-2.7-0.2-5.5-0.4-8.2-0.7l0.7-6.1c2.6,0.3,5.3,0.5,7.9,0.6
						c2.2,0.1,4.4,0.2,6.5,0.2L189.9,352.8z M193.6,352.8l-0.1-6.1c4.8,0,9.6-0.3,14.4-0.8l0.6,6.1
						C203.6,352.5,198.6,352.8,193.6,352.8z M171.2,351.4c-4.9-0.6-9.9-1.5-14.8-2.6l1.4-6c4.7,1.1,9.4,1.9,14.2,2.5L171.2,351.4z
						 M212.3,351.6l-0.8-6.1c4.8-0.6,9.5-1.4,14.2-2.5l1.3,6C222.3,350.1,217.3,351,212.3,351.6z M152.7,347.9
						c-4.8-1.2-9.7-2.7-14.4-4.4l2.1-5.8c4.5,1.6,9.2,3,13.8,4.2L152.7,347.9z M230.8,348.2l-1.5-6c4.7-1.1,9.3-2.5,13.8-4.1l2,5.8
						C240.5,345.5,235.6,347,230.8,348.2z M134.9,342.2c-4.7-1.8-9.3-3.8-13.8-6l2.7-5.5c4.3,2.1,8.7,4.1,13.2,5.8L134.9,342.2z
						 M248.7,342.6l-2.2-5.8c4.5-1.7,8.9-3.6,13.3-5.7l2.7,5.5C258,338.9,253.4,340.9,248.7,342.6z M117.8,334.5
						c-4.4-2.3-8.8-4.9-12.9-7.6l3.3-5.1c4,2.6,8.2,5.1,12.5,7.3L117.8,334.5z M265.9,335l-2.8-5.5c4.2-2.2,8.5-4.6,12.5-7.2
						l3.3,5.2C274.7,330.2,270.3,332.7,265.9,335z M101.7,324.9c-4.1-2.8-8.1-5.9-12-9l3.9-4.7c3.7,3.1,7.6,6,11.5,8.7L101.7,324.9z
						 M282,325.4l-3.4-5.1c4-2.7,7.9-5.6,11.6-8.6l3.9,4.8C290.2,319.6,286.1,322.6,282,325.4z M86.9,313.4
						c-3.8-3.3-7.4-6.8-10.8-10.4l4.4-4.2c3.3,3.5,6.8,6.8,10.4,10L86.9,313.4z M296.9,314l-4-4.6c3.6-3.1,7.2-6.5,10.5-9.9l4.4,4.3
						C304.4,307.3,300.7,310.8,296.9,314z M73.5,300.3c-3.4-3.7-6.6-7.6-9.6-11.6l4.9-3.7c2.9,3.8,6,7.6,9.2,11.1L73.5,300.3z
						 M310.4,301l-4.5-4.2c3.2-3.5,6.4-7.2,9.3-11.1l4.9,3.7C317,293.5,313.8,297.4,310.4,301z M61.7,285.7
						c-2.9-4.1-5.7-8.3-8.2-12.6l5.3-3.1c2.4,4.1,5,8.2,7.9,12.1L61.7,285.7z M322.3,286.5l-5-3.6c2.8-3.9,5.5-7.9,7.9-12.1l5.3,3.1
						C328,278.2,325.2,282.5,322.3,286.5z M51.7,269.8c-2.4-4.4-4.6-8.9-6.6-13.5l5.6-2.4c1.9,4.4,4.1,8.8,6.4,12.9L51.7,269.8z
						 M332.4,270.7l-5.4-3c2.4-4.2,4.5-8.5,6.5-12.9l5.6,2.5C337.1,261.9,334.8,266.4,332.4,270.7z M43.5,252.9
						c-1.9-4.6-3.6-9.4-5-14.1l5.9-1.8c1.4,4.6,3,9.2,4.8,13.6L43.5,252.9z M340.6,253.8l-5.7-2.4c1.8-4.4,3.5-9,4.9-13.6l5.9,1.8
						C344.2,244.5,342.5,249.2,340.6,253.8z M37.5,235.1c-1.3-4.8-2.4-9.7-3.3-14.6l6-1.1c0.8,4.7,1.9,9.4,3.2,14.1L37.5,235.1z
						 M346.8,236.1l-5.9-1.7c1.3-4.6,2.4-9.3,3.3-14.1l6,1.1C349.2,226.4,348.1,231.3,346.8,236.1z M350.8,217.8l-6.1-1
						c0.8-4.7,1.3-9.6,1.6-14.4l6.1,0.4C352.1,207.9,351.6,212.9,350.8,217.8z M352.7,199.1l-6.1-0.3c0.1-1.4,0.1-2.9,0.1-4.4
						c0-3.4,0-6.8-0.2-10.1l6.1-0.3c0.2,3.5,0.2,7,0.2,10.5C352.8,196.1,352.7,197.6,352.7,199.1z M346.3,180.8
						c-0.4-4.8-0.9-9.6-1.7-14.3l6-1c0.8,4.9,1.4,9.9,1.8,14.9L346.3,180.8z M40,166.2l-6-1c0.8-4.9,1.9-9.9,3.2-14.7l5.9,1.6
						C41.9,156.8,40.8,161.5,40,166.2z M343.9,163c-0.9-4.7-2-9.4-3.4-14l5.9-1.7c1.4,4.8,2.6,9.7,3.5,14.6L343.9,163z M44.1,148.7
						l-5.9-1.7c1.4-4.8,3-9.6,4.9-14.2l5.7,2.3C47,139.5,45.4,144.1,44.1,148.7z M339.5,145.5c-1.5-4.6-3.1-9.1-5-13.5l5.6-2.4
						c2,4.6,3.7,9.3,5.2,14.1L339.5,145.5z M50.2,131.7l-5.7-2.4c2-4.6,4.2-9.1,6.5-13.5l5.4,2.9C54.2,122.9,52,127.3,50.2,131.7z
						 M333,128.6c-2-4.4-4.2-8.7-6.6-12.9l5.3-3c2.5,4.3,4.8,8.8,6.8,13.4L333,128.6z M58.2,115.5l-5.3-3.1
						c2.5-4.3,5.2-8.6,8.1-12.7l5,3.5C63.2,107.3,60.6,111.4,58.2,115.5z M324.6,112.6c-2.5-4.1-5.2-8.1-8-12l4.9-3.6
						c3,4,5.8,8.2,8.3,12.5L324.6,112.6z M68.1,100.4l-4.9-3.7c3-4,6.2-7.9,9.5-11.6l4.6,4.1C74,92.8,70.9,96.6,68.1,100.4z
						 M314.4,97.8c-2.9-3.8-6.1-7.5-9.4-11l4.5-4.2c3.4,3.6,6.7,7.5,9.7,11.4L314.4,97.8z M79.6,86.6l-4.5-4.2
						c3.4-3.6,7-7.2,10.8-10.4l4.1,4.6C86.4,79.7,82.9,83.1,79.6,86.6z M302.6,84.2c-3.4-3.4-6.9-6.7-10.6-9.8l4-4.7
						c3.8,3.2,7.5,6.7,11,10.2L302.6,84.2z M92.7,74.2l-4-4.7c3.8-3.2,7.8-6.3,11.9-9.1l3.5,5C100.2,68.1,96.4,71.1,92.7,74.2z
						 M289.2,72c-3.7-3-7.6-5.9-11.6-8.5l3.4-5.1c4.2,2.8,8.2,5.7,12.1,8.9L289.2,72z M107.2,63.4l-3.4-5.1
						c4.2-2.8,8.5-5.3,12.9-7.7l2.9,5.4C115.3,58.2,111.2,60.7,107.2,63.4z M274.5,61.5c-4.1-2.6-8.3-5-12.6-7.1l2.8-5.5
						c4.5,2.2,8.8,4.7,13.1,7.4L274.5,61.5z M122.8,54.3l-2.8-5.5c4.4-2.2,9.1-4.3,13.7-6.1l2.2,5.7
						C131.5,50.2,127.1,52.2,122.8,54.3z M258.8,52.8c-4.3-2.1-8.8-4-13.3-5.6l2.1-5.8c4.7,1.7,9.3,3.7,13.8,5.8L258.8,52.8z
						 M139.3,47.1l-2.1-5.8c4.7-1.7,9.5-3.2,14.3-4.5l1.6,5.9C148.5,44,143.8,45.5,139.3,47.1z M242.1,46c-4.5-1.5-9.2-2.9-13.9-4
						l1.4-6c4.9,1.2,9.7,2.5,14.4,4.2L242.1,46z M156.6,42l-1.4-6c4.9-1.2,9.8-2.1,14.8-2.8l0.8,6.1C166.1,40,161.3,40.9,156.6,42z
						 M224.7,41.2c-4.7-1-9.5-1.8-14.2-2.3l0.7-6.1c5,0.6,9.9,1.4,14.8,2.4L224.7,41.2z M174.4,38.8l-0.7-6.1c4.9-0.6,10-0.9,15-1
						l0.1,6.1C184,38,179.1,38.3,174.4,38.8z M206.8,38.5c-1.9-0.2-3.8-0.3-5.8-0.4c-2.9-0.2-5.8-0.2-8.7-0.3l0-6.1c3,0,6,0.1,9,0.3
						c2,0.1,4,0.3,6,0.5L206.8,38.5z"/>
				</g>
			</g>
			<g>
				<g>
					<path class="st15" d="M192.1,351.4c-87.6,0-158.9-71.3-158.9-158.9S104.5,33.6,192.1,33.6S351,104.9,351,192.5
						C351,280.1,279.7,351.4,192.1,351.4z M192.1,34.8c-86.9,0-157.6,70.7-157.6,157.7s70.7,157.6,157.6,157.6
						s157.7-70.7,157.7-157.6S279,34.8,192.1,34.8z"/>
				</g>
			</g>
			<g>
				<path class="st12" d="M192.3,202.9c-6.4,0-11.6-5.2-11.6-11.6c0-6.4,5.2-11.6,11.6-11.6s11.6,5.2,11.6,11.6
					C203.9,197.7,198.7,202.9,192.3,202.9z M192.3,180.4c-6,0-10.9,4.9-10.9,10.9s4.9,10.9,10.9,10.9s10.9-4.9,10.9-10.9
					C203.2,185.3,198.3,180.4,192.3,180.4z"/>
			</g>
			<g>
				<path class="st12" d="M192.3,197.2c-3.3,0-5.9-2.7-5.9-5.9s2.7-6,5.9-6s5.9,2.7,5.9,6C198.2,194.6,195.6,197.2,192.3,197.2z
					 M192.3,186c-2.9,0-5.3,2.4-5.3,5.3s2.4,5.3,5.3,5.3s5.3-2.4,5.3-5.3S195.2,186,192.3,186z"/>
			</g>
			<g>
				<g>
					<rect x="30.4" y="173" class="st15" width="10.3" height="3.9"/>
				</g>
				<g>
					<rect x="30.4" y="207.5" class="st15" width="10.3" height="3.9"/>
				</g>
				<g>
					<rect x="72.6" y="198.4" class="st15" width="10.3" height="3.9"/>
				</g>
				<g>
					<rect x="72.6" y="181.4" class="st15" width="10.3" height="3.9"/>
				</g>
				<g>
					<rect x="30.4" y="190.2" class="st15" width="26.7" height="3.9"/>
				</g>
				<g>
					<rect x="30.4" y="196" class="st15" width="10.3" height="3.9"/>
				</g>
				<g>
					<rect x="72.6" y="187.4" class="st15" width="10.3" height="3.9"/>
				</g>
				<g>
					<rect x="72.6" y="193" class="st15" width="10.3" height="3.9"/>
				</g>
				<g>
					<polygon class="st15" points="68.9,166.6 52.7,163.9 53.7,158.3 54.4,154 70.6,156.8 					"/>
				</g>
				<g>
					<rect x="30.4" y="178.7" class="st15" width="10.3" height="3.9"/>
				</g>
				<g>
					<rect x="30.4" y="184.5" class="st15" width="10.3" height="3.9"/>
				</g>
				<g>
					<rect x="30.4" y="201.7" class="st15" width="10.3" height="3.9"/>
				</g>
			</g>
			<g>
				<g>
					<polygon class="st15" points="76.7,196.2 65,196.2 65,188.7 77,188.7 77,189.9 66.2,189.9 66.2,194.9 76.7,194.9 					"/>
				</g>
				<g>
					<rect x="55.2" y="191.4" class="st15" width="10.4" height="1.2"/>
				</g>
				<g>
					<g>
						<g>
							<polygon class="st15" points="47.1,176.6 33,176.6 33,175.3 46.8,175.4 52.2,172.2 53.7,163.3 54.9,163.5 53.4,173 							
								"/>
						</g>
						<g>
							<polygon class="st15" points="37.2,180.9 37.1,179.6 48.7,179.4 54.1,175.9 56.2,163.7 57.4,163.9 55.2,176.7 49.1,180.6 
															"/>
						</g>
						<g>
							<polygon class="st15" points="40,181.6 40,180.4 51,180.1 56.9,176.3 59.3,162.9 60.5,163.2 58,177 51.4,181.3 							"/>
						</g>
						<g>
							<polygon class="st15" points="52.7,187.2 34.2,187 34.2,185.8 52.2,186 59.1,179.4 62.2,161.2 63.5,161.4 60.2,180 							
								"/>
						</g>
						<g>
							<polygon class="st15" points="56.1,188.3 37,187.7 37.1,186.5 55.7,187.1 62.2,181.9 66.1,161.6 67.3,161.8 63.3,182.6 
															"/>
						</g>
						<g>
							<g>
								<g>
									<path class="st15" d="M192.6,338.2c-0.1,0-0.2,0-0.3,0c-34.4-0.1-68.1-12.9-94.9-36.1c-26.8-23.3-44.8-55.4-50.6-90.6
										l-2.5-0.7L11.2,210l0-1.2l33.2,0.8l3.4,0.9l0.1,0.4c11.7,71.7,73.7,125.9,144.3,126.1c0.1,0,0.2,0,0.3,0
										c37.8,0,75.1-15.7,102.6-43.2c27.7-27.7,42.9-64.2,42.8-102.8c-0.3-78.7-66.8-145-145.4-145c-0.1,0-0.2,0-0.3,0
										C121.1,46.1,59,100.6,47.8,172.8l0,0.3l-5.8,2.8l-6.5-0.3H3.2v-1.2h32.3l6.2,0.3l4.9-2.4C58.1,99.7,120.6,44.9,192.3,44.7
										c0.1,0,0.2,0,0.3,0c37.6,0,74.9,15.5,102.4,42.5c28.4,27.8,44,64.7,44.2,103.8c0.1,38.9-15.2,75.7-43.1,103.7
										C268.4,322.4,230.7,338.2,192.6,338.2z"/>
								</g>
							</g>
							<g>
								<g>
									<path class="st15" d="M191.4,322.1c-0.1,0-0.1,0-0.2,0c-63.3-0.1-112.4-49.6-126.4-96.2c-1.8-6.1-3.2-12.5-3.9-19l-6.2-8.8
										l-45.6-0.3l0-1.2l46.3,0.3l6.7,9.8c0.7,6.4,2,12.8,3.8,18.9c13.9,46.1,62.5,95.2,125.3,95.3c0.1,0,0.1,0,0.2,0
										c33.3,0,66.6-14.1,91.3-38.8c24.8-24.8,38.4-57.2,38.4-91.3c0-69-55.4-127.2-123.5-129.7C137.3,58.7,82.4,101,67,161.5
										l-1.2-0.3c15.5-61.1,71-103.8,131.9-101.5c68.7,2.6,124.6,61.3,124.7,130.9c0,34.4-13.8,67.2-38.8,92.2
										C258.6,307.8,225.1,322.1,191.4,322.1z"/>
								</g>
							</g>
							<g>
								<g>
									<path class="st15" d="M192.1,315.7c-59,0-110.5-41.6-122-100.3c-0.7-3.7-1.3-7.8-1.3-7.9c-0.2-1.6-0.4-3.3-0.6-4.9
										l-14.2-9.8l0.6-0.9l-0.6-0.9l14-9.7l0.3-3.5c0,0,0.2-2.3,0.5-4.1c3.9-27.6,17.2-53.4,37.5-72.7
										c20.6-19.6,47.5-31.6,75.9-33.8c33.2-2.6,65.3,7.8,90.6,29.4c25.3,21.6,40.6,51.7,43.3,84.9s-7.8,65.3-29.4,90.6
										s-51.7,40.6-84.9,43.3C198.8,315.6,195.4,315.7,192.1,315.7z M55.1,192l14.4,10l0,0.3c0.2,1.7,0.3,3.4,0.6,5.2
										c0,0,0.5,3.9,1.3,7.7c12,61.4,68.2,103.9,130.6,99c32.8-2.6,62.7-17.8,84-42.8s31.7-56.9,29.1-89.7s-17.8-62.7-42.8-84
										s-56.9-31.7-89.7-29.1C125.5,73,78.3,117.3,70.3,173.9c-0.3,2-0.5,4-0.5,4.1l-0.4,4.1L55.1,192z"/>
								</g>
							</g>
							<g>
								<g>
									<path class="st15" d="M192.3,310.1c-65.5,0-118.8-53.3-118.8-118.8S126.8,72.5,192.3,72.5s118.8,53.3,118.8,118.8
										S257.8,310.1,192.3,310.1z M192.3,73.7c-64.8,0-117.6,52.7-117.6,117.6s52.7,117.6,117.6,117.6s117.6-52.7,117.6-117.6
										S257.1,73.7,192.3,73.7z"/>
								</g>
							</g>
							<g>
								<g>
									<path class="st15" d="M192.2,304.5c-1.6,0-3.3,0-4.9-0.1c-3.2-0.1-6.5-0.4-9.7-0.8c-5.8-0.7-11.5-1.9-17.1-3.6
										c-9.9-2.9-19.4-7.1-28.2-12.6c-33.8-21.1-46.3-56.7-47.6-60.6c-3.4-10.4-5.3-21.4-5.6-32.7l1.2,0c0.3,11.1,2.1,22,5.5,32.3
										c1.3,3.9,13.7,39.1,47.1,60c8.7,5.4,18.1,9.6,27.9,12.5c5.5,1.6,11.2,2.8,16.9,3.5c3.1,0.4,6.4,0.7,9.6,0.8
										c2.2,0.1,4.5,0.1,6.7,0.1l3.2-6.5l1.1,0.5l-3.5,7.1l-0.4,0C193.7,304.4,193,304.5,192.2,304.5z"/>
								</g>
							</g>
							<g>
								<g>
									<path class="st15" d="M246.9,290.4l-12.3-3.4l0.3-1.2l11.8,3.3c2.6-1.5,5.2-3,7.6-4.7c2.6-1.8,5.2-3.6,7.7-5.6
										c0,0,2.7-2.2,5.2-4.5c9.2-8.3,16.5-18.6,16.5-18.7c9.1-13.6,13.4-25.1,14.8-29.4c0.1-0.2,6.4-19.8,5.5-40.2
										c-1.7-36.9-41.5-105.7-111.6-105.7c-0.1,0-0.1,0-0.1,0c-60.7,0.1-110.9,50.3-111.9,112l-1.2,0
										c1-62.3,51.8-113.1,113.2-113.2c0,0,0.1,0,0.1,0c70.9,0,111.2,69.5,112.8,106.8c0.9,20.6-5.5,40.4-5.6,40.6
										c-1.4,4.4-5.8,15.9-14.9,29.7c-0.1,0.1-7.4,10.5-16.7,18.9c-2.5,2.3-5.3,4.5-5.3,4.5c-2.5,2-5.1,3.9-7.8,5.7
										c-2.6,1.7-5.3,3.4-8,4.9L246.9,290.4z"/>
								</g>
							</g>
							<g>
								<g>
									<path class="st15" d="M191.3,326.5c-7.8,0-14.1-0.6-18.4-1.2c-14.8-2.1-52.3-10.5-81.9-43.5c-22-24.5-30.1-51.3-33-69.6
										l-6-7.5l-17.6-0.2l0-1.2l18.1,0.2l6.5,8.2l0,0.2c2.9,18.1,10.9,44.8,32.7,69.1c29.3,32.7,66.5,41,81.2,43.1
										c14.5,2,52.2,4.4,89.6-18.5c13-8,44.7-31.1,58-73.8c17.7-56.9-10.7-104.8-16.6-113.8c-7.9-12.1-37.9-52.2-92.2-60.2
										c-50.7-7.5-88.7,17.5-102.7,28.5c-31.2,24.7-43.5,56.6-48,73.5l-1.2-0.3c4.6-17,17-49.2,48.5-74.1
										C122.5,74,160.9,48.9,212,56.4c54.9,8.1,85.1,48.6,93.1,60.8c5.9,9.1,34.7,57.4,16.8,114.8c-13.4,43.1-45.4,66.5-58.6,74.5
										C236.7,322.8,209.9,326.5,191.3,326.5z"/>
								</g>
							</g>
							<g>
								<g>
									<g>
										<path class="st15" d="M192,331.5c-3.6,0-7.3-0.2-11.1-0.5c-47.7-4.1-80.1-33.2-86.1-39c-29.5-28.5-38.6-62.1-41.3-79.7
											l-6.5-7.4l-9.5-0.1l-5.7-1.1l-23.2,0.1v-1.2l23.3-0.1l5.7,1.1l9.9,0.1l7.1,8.1l0,0.2c2.7,17.4,11.6,50.9,41,79.2
											c5.9,5.7,38,34.6,85.3,38.7c3.8,0.3,7.6,0.5,11.2,0.5c44.4-0.1,88-22.6,113.9-58.8c12.4-17.2,18.5-34.7,21.4-46.2
											c1.9-7.4,5-22.5,4.2-40.3c-2.2-51.9-34.8-87.4-38.6-91.2c-38-39.6-86.3-42.8-100.7-42.8c-0.1,0-0.2,0-0.3,0
											c-56.8,0.2-93.2,35.2-103,45.9c-14.1,15.4-24.4,33.5-30.8,53.9c-0.9,3-1.8,6.1-2.5,9.2l-1.2-0.3c0.8-3.1,1.6-6.2,2.6-9.3
											c6.4-20.6,16.9-38.9,31-54.4c9.9-10.8,46.7-46.1,103.9-46.3c14.1,0,63.3,3,101.9,43.2c3.8,3.9,36.7,39.7,38.9,92
											c0.8,17.9-2.3,33.1-4.2,40.6c-3,11.7-9.1,29.3-21.6,46.7c-26.1,36.5-70.2,59.2-114.9,59.3
											C192.2,331.5,192.1,331.5,192,331.5z"/>
									</g>
								</g>
							</g>
						</g>
						<g>
							
								<rect x="20.6" y="169.5" transform="matrix(1.980008e-02 -0.9998 0.9998 1.980008e-02 -159.5738 198.1144)" class="st15" width="1.2" height="21.8"/>
						</g>
						<g>
							<rect x="9.1" y="185.8" class="st15" width="25.1" height="1.2"/>
						</g>
						<g>
							<rect x="8.5" y="191.4" class="st15" width="28" height="1.2"/>
						</g>
						<g>
							<g>
								<path class="st15" d="M236.7,257.2l-0.7-1c8.5-6.1,23.7-19.4,30.6-40.4c3.4-10.3,3.9-19.8,3.9-24.4c0-8.1-1.4-16.6-3.9-24.4
									c-1.9-5.9-4.5-11.5-7.6-16.8l1-0.6c3.2,5.4,5.8,11.1,7.8,17.1c2.6,8,4,16.6,4,24.8c0,4.8-0.5,14.4-4,24.8
									C260.7,237.5,245.3,251.1,236.7,257.2z"/>
							</g>
							<g>
								<path class="st15" d="M231.8,253.4l-0.7-1c8.4-5.7,23.5-18.2,30.1-38.3c3.3-9.9,3.6-19.2,3.6-22.7c0-9.9-2-17.8-3.6-22.7
									c-1.6-4.8-3.9-9.3-4.2-9.8l0,0c-0.6-1.1-1.2-2.3-1.9-3.4l1.1-0.6c0.7,1.1,1.3,2.3,1.9,3.4c0.3,0.5,2.6,5.1,4.2,10
									c1.7,5,3.7,13,3.7,23.1c0,4.4-0.5,13.4-3.7,23.1C255.6,234.9,240.3,247.6,231.8,253.4z"/>
							</g>
							<g>
								<path class="st15" d="M227.8,249.6l-0.6-1.1c20.1-12.3,32.1-33.6,32.1-57.1c0-9.7-2.1-17.3-3.3-20.9
									c-1.2-3.5-2.7-6.9-4.5-10.1l1.1-0.6c1.8,3.3,3.4,6.7,4.6,10.2c1.3,3.7,3.4,11.4,3.4,21.3
									C260.4,215.3,248.2,237.1,227.8,249.6z"/>
							</g>
							<g>
								<path class="st15" d="M192.3,253.9v-1.2c33.8,0,61.3-27.5,61.3-61.3c0-4.1-0.4-8.1-1.2-12.1l1.2-0.2c0.8,4,1.2,8.2,1.2,12.4
									C254.8,225.9,226.7,253.9,192.3,253.9z"/>
							</g>
							<g>
								<polygon class="st15" points="252.4,179.4 250.6,174.7 247.2,172.6 236.3,175.1 236,173.9 247.4,171.3 251.6,173.8 
									253.5,178.9 								"/>
							</g>
							<g>
								<path class="st15" d="M192.3,248.5C192.3,248.5,192.3,248.5,192.3,248.5l-0.1-1.2c0,0,0,0,0.1,0c5.9,0,11.8-0.9,17.4-2.8
									c3.4-1.1,6.8-2.6,9.9-4.4c5.5-3.1,10.5-7.2,14.7-12c4.6-5.2,8-11.2,10.4-17.7c1.7-4.8,2.8-9.8,3.1-14.8
									c0.4-5.4,0-10.9-1.2-16.2l1.2-0.3c1.2,5.4,1.6,11,1.3,16.5c-0.4,5.2-1.4,10.3-3.2,15.2c-2.4,6.6-5.9,12.7-10.6,18.1
									c-4.3,4.9-9.3,9-15,12.2c-3.2,1.8-6.6,3.3-10.2,4.5C204.3,247.5,198.4,248.5,192.3,248.5z"/>
							</g>
							<g>
								<circle class="st15" cx="247.2" cy="179.2" r="1.6"/>
							</g>
							<g>
								<path class="st15" d="M214.4,237.6l-0.5-1.1c5.7-2.7,10.6-6.4,14.8-10.9c6.6-7.2,9.2-14.5,10.4-17.6
									c1.7-4.8,2.8-9.8,3.1-14.8c0.4-5.1,0-10.1-1-15.1l-32.5,31.9l7.9,7.7l-0.9,0.9l-8.9-8.6l35-34.3l0.2,1.1
									c1.2,5.4,1.6,11,1.3,16.5c-0.4,5.1-1.4,10.2-3.2,15.2c-1.1,3.2-3.8,10.7-10.6,18.1C225.3,231,220.2,234.8,214.4,237.6z"/>
							</g>
						</g>
					</g>
					<g>
						<circle class="st15" cx="217" cy="218.9" r="3.8"/>
					</g>
				</g>
			</g>
			<g>
				<g>
					<g>
						<g>
							<path class="st14" d="M87.7,186.1c0.4-2.4,0.8-4.7,1.1-7.1c6.1-41.4,37.3-75.5,78.2-85.2c14.3-3.4,28.8-3.7,43.2-1.2
								c0.2,0,0.5,0.1,1,0.2c-0.6,0.7-1,1.2-1.5,1.6c-4.4,4.4-8.9,8.7-13.3,13.1c-1.2,1.2-2.3,1.7-4.1,1.7
								c-40.5-0.4-75.2,26.8-84.4,66.1c-10.9,46.7,20,93.9,67.4,102.6c0.3,0.1,0.7,0.2,1,0.2c4.2-0.1,7.1,2.1,9.8,5.1
								c4,4.4,8.3,8.5,12.5,12.7c0.4,0.5,0.6,1.2,0.9,1.8c-19.1,1.2-33.4-2.7-41.7-5.8c-38.1-13.9-62.6-49.7-69.1-82.3
								c-0.6-3-0.9-5.4-1.2-7.1C87.7,197.2,87.7,191.6,87.7,186.1z"/>
						</g>
					</g>
					<g>
						<path class="st14" d="M147.9,259.1c-0.2-0.1-0.4-0.3-0.6-0.4c0-20.1,0-34.7,0-36.1c0-0.3,0-1,0.4-1.9c0.2-0.5,0.5-0.9,1-1.3
							c1.7-1.6,3.2-3.2,4.8-4.9c3.5-3.4,7-6.8,10.5-10.3c2.5-2.5,5-5,7.5-7.6c8.9-9,20.4-20.2,24.2-23.9l0,0
							c12.1-12.1,38.2-37.9,79.9-78.9c0.2,19.1,0.3,33,0.2,34.8c-0.1,1.5-0.6,2.9-0.6,2.9s-0.3,0.8-0.9,1.6
							c-2.6,3.8-78.3,77.8-81.9,81.4c-0.2,0.2-1.6,1.6-3.4,3.4c-3.6,3.6-9.3,9.2-16.1,16C162.2,244.6,153.5,253.4,147.9,259.1z"/>
					</g>
					<g>
						<path class="st14" d="M172.8,234c6-5.9,12.1-11.8,18.1-17.8c7.2,7.1,14.4,14.2,21.6,21.4c8.6,8.5,17.1,17,25.7,25.6
							c0.4,0.4,0.9,0.8,1.4,1.4c5-3.3,9.5-7.1,13.5-11.4c17-18.3,24.9-39.9,23.3-64.8c-0.7-11.6-3.9-22.6-9.3-33
							c-0.3-0.5-0.6-1-0.5-1.6c0.1-0.5,0.5-0.8,0.6-0.9c0.9-0.8,5.7-5.7,12.5-12.5l0,0c0.4,0.6,0.8,1.2,1.1,1.8
							c10.8,18.7,15.9,38.8,13.8,60.2c-4.1,41.3-25.6,70.4-63.4,87.6c-1.4,0.6-2.1,0.3-3.1-0.6C209.7,270.8,191.2,252.4,172.8,234z"
							/>
					</g>
					<g>
						<path class="st14" d="M147.3,206.4c0-12.3-0.1-24.7,0-37c0-0.8,0.7-1.7,1.3-2.3c17.3-17.3,34.7-34.6,52.1-51.9
							c18.1-18,36.2-36,54.3-54c0.5-0.5,1-1,1.9-1.8c0,1,0,1.5,0,2.1c0,11.6,0,23.2,0,34.8c0,1-0.5,2.2-1.2,2.9
							c-29.7,29.6-59.5,59.1-89.2,88.6c-0.7,0.7-1.3,1.4-1.9,2.1c-1.3,1.2-2.6,2.3-3.8,3.5C156.1,197.8,151.7,202.1,147.3,206.4z"/>
					</g>
				</g>
				<g>
					<path class="st14" d="M149.4,207.8c4.4-4.2,8.7-8.5,13.1-12.7c1.2-1.2,2.5-2.3,3.8-3.5c2.3,2.2,4.6,4.4,6.9,6.7
						c-2.5,2.5-4.9,5-7.4,7.4c-3.4,3.4-6.9,6.8-10.3,10.1c-1.6-1.5-3.1-3.1-4.7-4.5C149.6,210.3,149.1,209.2,149.4,207.8z"/>
				</g>
			</g>
			<g>
				<g>
					<g>
						<g>
							<path class="st15" d="M205,298.7c-7.1,0.6-13.2,0.6-17.8,0.3c-5.1-0.3-8.9-0.7-10.2-0.9c-3.5-0.5-7.1-1.1-10.7-2
								c-40.9-10-72.3-44.8-78.3-86.4c-0.2-1.6-0.5-3.1-0.8-4.7l-0.4-2.7l0-16.9l0.4-2.2c0.3-1.6,0.5-3.2,0.8-4.7
								c6.2-42.1,38.2-77,79.7-86.8c14.4-3.4,29.2-3.8,44.1-1.2c0.2,0,0.4,0.1,0.7,0.2l4.6,1.1l-3.4,3.7c-0.4,0.4-0.7,0.8-1,1.1
								c-1.3,1.3-2.7,2.6-4,3.9c-3,3-6.2,6-9.2,9.1c-1.7,1.7-3.5,2.4-5.8,2.4c-39.2-0.5-72.7,25.8-81.6,63.8
								c-5.1,21.8-1.1,44.2,11.3,63.1c7.2,11,16.6,19.9,27.6,26.3c8.7,5,22,8.7,26.2,9.7c0.1,0,0.7,0.2,1.5,0.4
								c0,0,6.4,1.8,10.6,5.6c0.4,0.4,0.8,0.7,0.8,0.7c0.4,0.5,0.8,0.8,1,1.1C195.8,288.1,202.1,295.3,205,298.7z M187,294.4h8.6
								c-0.7-0.7-1.4-1.4-2-2c-2.7-2.6-5.4-5.4-8-8.2c-3.1-3.4-6-3.8-7.8-4.2c-0.6-0.1-1.2-0.2-1.6-0.3c-23.5-4.3-43.8-17.9-57-38.1
								c-13.2-20.1-17.4-43.9-12-67c9.4-40.3,45-68.1,86.4-67.7c1,0.1,1.5-0.2,2.2-0.9c3.1-3.1,6.2-6.2,9.2-9.1
								c0.7-0.7,1.4-1.4,2.1-2.1c-12.9-1.9-25.9-1.3-38.4,1.7c-39.6,9.4-70.1,42.6-76,82.7c-0.2,1.6-0.5,3.2-0.8,4.8l-0.3,2v16.1
								l0.3,2c0.3,1.6,0.5,3.2,0.8,4.8c5.6,38.4,33.9,70.6,71,81.3c1.2,0.3,2.4,0.7,3.6,1c0.2,0,1.6,0.3,3.9,0.7
								c1.7,0.3,3.9,0.7,6.4,1.2c1.4,0.3,2.7,0.5,3.8,0.7C182.6,294.1,187,294.4,187,294.4z"/>
						</g>
					</g>
					<g>
						<path class="st15" d="M149.5,261.6l-3.4-2.2v-8.5c0-15.9,0-27.4,0-28.7c0-0.4-0.1-1.6,0.6-3c0.4-0.8,0.9-1.4,1.6-2.1
							c1.1-1,2.2-2.1,3.3-3.3c0.5-0.5,0.9-1,1.4-1.5l3.2-3.1c2.4-2.4,4.9-4.8,7.3-7.1c1.7-1.7,3.4-3.4,5.1-5.1l2.3-2.4
							c8.7-8.8,19.8-19.6,24.2-23.8c12.2-12.2,38.9-38.6,79.6-78.4l4.1-4.1l0.1,5.8c0.2,19.1,0.3,32.9,0.2,34.7
							c-0.1,1.9-0.7,3.5-0.8,3.6c0,0.1-0.5,1.1-1.1,2c-1,1.5-10.2,11.2-77.9,77.4c-2.1,2.1-3.6,3.5-4,3.9c-0.2,0.2-1.6,1.6-3.4,3.4
							c-3.6,3.6-9.2,9.1-16,15.9c-8.4,8.4-16.7,16.8-24.8,25L149.5,261.6z M273.8,100c-38.3,37.6-63.6,62.6-75.4,74.4
							c-4.4,4.2-15.5,15-24.1,23.7l-2.3,2.4c-1.7,1.7-3.4,3.5-5.1,5.2c-2.4,2.4-4.9,4.8-7.3,7.2l-3.1,3.1c-0.4,0.4-0.9,0.9-1.3,1.4
							c-1.1,1.2-2.3,2.4-3.5,3.5c-0.2,0.2-0.3,0.3-0.4,0.5c-0.1,0.3-0.1,0.6-0.1,0.8c0,1.3,0,12.2,0,28.8v2.2
							c6.9-7,14-14.2,21.2-21.3c6.8-6.8,12.4-12.4,16.1-15.9c1.8-1.8,3.2-3.2,3.4-3.4c0.4-0.4,1.8-1.8,4-3.9
							c64.9-63.5,76.2-75.3,77.2-76.7c0.3-0.5,0.6-1.1,0.6-1.1l0,0c0,0,0.4-1,0.4-2.1C274,127.2,274,116.7,273.8,100z"/>
					</g>
					<g>
						<path class="st15" d="M230.8,291.8c-1.6,0-2.8-0.9-3.6-1.7c-15.2-15.2-30.4-30.4-45.7-45.6l-11.1-11.1l21.5-21.1l7.8,7.7
							c5.2,5.1,10.3,10.2,15.5,15.3c5.7,5.6,11.4,11.3,17.1,16.9l8.5,8.4c4.1-2.9,8-6.2,11.4-9.9c16.4-17.7,24-38.8,22.5-62.6
							c-0.7-11-3.7-21.7-9-31.8l-0.1-0.2c-0.3-0.6-0.9-1.6-0.7-2.9c0.1-0.9,0.6-1.7,1.4-2.4c0.9-0.8,6.8-6.8,12.3-12.4l2.2-2.2
							l2,3.2c0.3,0.4,0.5,0.9,0.8,1.3c11.4,19.6,16.1,40.3,14.1,61.4c-4.1,41.5-25.8,71.5-64.6,89.1
							C232.2,291.7,231.5,291.8,230.8,291.8z M177.5,233.5l7.6,7.6c15.2,15.2,30.5,30.4,45.7,45.6c0.1,0.1,0.1,0.1,0.2,0.2
							c0,0,0.1,0,0.1,0c37-16.8,57.8-45.5,61.7-85.1c1.9-19.7-2.4-39-12.9-57.4c-5.1,5.1-8.4,8.5-9.8,9.8
							c5.6,10.8,8.8,22.1,9.5,33.8c1.6,25.2-6.4,47.6-23.8,66.3c-4.1,4.5-8.8,8.4-13.9,11.8l-1.6,1.1l-1.9-1.8
							c-0.3-0.3-0.6-0.6-0.9-0.9l-8.5-8.5c-5.7-5.6-11.4-11.3-17.1-16.9c-5.1-5.1-10.3-10.2-15.5-15.3l-4.3-4.2L177.5,233.5z"/>
					</g>
					<g>
						<path class="st15" d="M146.1,211.9l0-12.7c0-9.8,0-20,0-30c0-1.8,1.2-3.3,2-4.1c14.4-14.4,28.8-28.7,43.2-43L254,59.8
							c0.3-0.3,0.7-0.7,1.1-1.1l5-4.7v15.1c0,9,0,18.3-0.1,27.4c0,1.6-0.8,3.5-2,4.7c-24,23.9-48,47.7-72,71.5l-16.8,16.6
							c-0.4,0.4-0.8,0.9-1.2,1.3l-0.8,0.8c-0.4,0.4-0.8,0.8-1.2,1.1c-0.9,0.8-1.7,1.5-2.5,2.3c-3.1,3-6.2,6.1-9.4,9.1L146.1,211.9z
							 M151.1,169.4c-0.1,9.9,0,20,0,29.8v1c3-2.9,6-5.9,9-8.8c0.9-0.8,1.8-1.6,2.6-2.5c0.4-0.3,0.8-0.7,1.1-1l0.5-0.6
							c0.5-0.5,0.9-1,1.4-1.5l16.8-16.6c24-23.8,48.1-47.7,72-71.5c0.2-0.2,0.5-0.8,0.5-1.2c0.1-9.1,0.1-18.4,0.1-27.4v-3.4
							l-60.3,60c-14.4,14.3-28.8,28.6-43.2,43C151.3,169,151.1,169.2,151.1,169.4z M151.1,169.4L151.1,169.4L151.1,169.4z"/>
					</g>
				</g>
				<g>
					<path class="st15" d="M154.7,217.6l-1.7-1.7c-0.5-0.5-0.9-0.9-1.4-1.4c-1.1-1.1-2.1-2.1-3.2-3.1c-1.8-1.6-2.5-3.5-2.1-5.8
						l0.1-0.8l4.4-4.3c3.1-3.1,6.2-6.1,9.4-9.1c0.9-0.8,1.8-1.6,2.6-2.5c0.4-0.4,0.8-0.7,1.2-1.1l1.7-1.6l10.4,10.1l-4.1,4.1
						c-1.7,1.7-3.4,3.5-5.2,5.2c-2.4,2.4-4.9,4.8-7.3,7.2L154.7,217.6z M151.1,207.1c0.1,0.2,0.2,0.3,0.5,0.6c1.1,1,2.1,2,3.1,3
						l1.4-1.4c2.4-2.4,4.9-4.8,7.3-7.1c1.7-1.7,3.4-3.4,5.1-5.2l0.5-0.6l-3.5-3.4c-0.7,0.6-1.4,1.2-2,1.9c-3.1,3-6.2,6.1-9.4,9.1
						L151.1,207.1z"/>
				</g>
			</g>
			<g>
				<g>
					<path class="st13" d="M192.3,4.5c-103.9,0-188,84.1-188,188c0,103.9,84.1,188,188,188s188-84.1,188-188
						C380.2,88.6,296.2,4.5,192.3,4.5z M192.4,373.4C91.8,373.4,10.5,292,10.5,191.5C10.5,90.9,91.8,9.6,192.4,9.6
						c100.5,0,181.9,81.3,181.9,181.9C374.3,292,293,373.4,192.4,373.4z"/>
				</g>
				<g>
					<path class="st16" d="M192.3,384.7C86.2,384.7,0,298.5,0,192.5C0,86.5,86.2,0.2,192.3,0.2s192.3,86.2,192.3,192.3
						S298.3,384.7,192.3,384.7z M192.4,13.9c-97.9,0-177.6,79.7-177.6,177.6s79.7,177.6,177.6,177.6S370,289.4,370,191.5
						S290.3,13.9,192.4,13.9z"/>
				</g>
			</g>
		</g>
	</g>
</g>
<g id="Layer_7" class="st0">
	<line class="st17" x1="16.4" y1="196.4" x2="358.9" y2="196.4"/>
	<line class="st18" x1="351.7" y1="203.9" x2="352.7" y2="203.9"/>
	<line class="st19" x1="188.8" y1="28.5" x2="188.8" y2="371.1"/>
	<line class="st17" x1="16.4" y1="201.2" x2="358.9" y2="201.2"/>
	<line class="st17" x1="15.5" y1="192" x2="358" y2="192"/>
	<line class="st17" x1="16.4" y1="187.4" x2="358.9" y2="187.4"/>
	<line class="st17" x1="0.1" y1="205.8" x2="342.6" y2="205.8"/>
	<line class="st17" x1="-16.6" y1="210.3" x2="325.9" y2="210.3"/>
	<line class="st17" x1="-76.5" y1="215.4" x2="266" y2="215.4"/>
</g>
</svg>
