<svg width="360" height="360" viewBox="0 0 360 360">
<path d="M183,9.87C91.47,9.87,17,84.34,17,175.87s74.47,166,166,166,166-74.47,166-166S274.53,9.87,183,9.87Zm.12,318.39c-84.5,0-153.25-68.74-153.25-153.24S98.62,21.77,183.12,21.77s153.23,68.75,153.23,153.25-68.74,153.24-153.23,153.24Z" fill="black"/>
<path d="M195.97,266.72c-6.16,.53-11.38,.48-15.39,.28-4.37-.22-7.64-.63-8.8-.81-3.03-.48-6.17-.97-9.23-1.73-35.26-8.67-62.44-38.64-67.63-74.56-.2-1.36-.43-2.71-.65-4.06l-.36-2.3,.03-14.58,.32-1.93c.23-1.36,.46-2.73,.66-4.09,5.31-36.32,32.96-66.44,68.82-74.95,12.46-2.96,25.25-3.3,38.02-1.01,.17,.03,.34,.07,.59,.13l3.99,.94-2.98,3.21c-.32,.36-.6,.65-.88,.94-1.14,1.13-2.29,2.25-3.44,3.38-2.62,2.56-5.32,5.21-7.93,7.85-1.44,1.46-3.03,2.07-5.02,2.08-33.8-.4-62.72,22.29-70.4,55.1-4.4,18.77-.92,38.12,9.79,54.49,6.22,9.51,14.34,17.19,23.78,22.67,7.49,4.35,18.97,7.51,22.64,8.34,.12,.03,.61,.14,1.29,.33,0,0,5.53,1.56,9.14,4.88,.33,.31,.65,.63,.65,.63,.38,.39,.66,.7,.86,.92,4.21,4.75,9.63,10.98,12.13,13.87Zm-15.53-3.69h7.41c-.58-.58-1.17-1.17-1.76-1.75-2.3-2.28-4.67-4.64-6.91-7.09-2.67-2.91-5.16-3.31-6.74-3.67-.55-.12-1.02-.19-1.33-.23-20.29-3.74-37.78-15.41-49.2-32.87-11.36-17.36-15.04-37.89-10.37-57.81,8.15-34.78,38.85-58.77,74.61-58.41,.88,.04,1.31-.18,1.93-.81,2.64-2.66,5.35-5.32,7.98-7.89,.62-.61,1.24-1.21,1.86-1.82-11.16-1.61-22.31-1.12-33.18,1.46-34.17,8.11-60.52,36.8-65.57,71.4-.2,1.4-.44,2.79-.67,4.18l-.29,1.74v13.89l.29,1.76c.24,1.39,.47,2.77,.67,4.16,4.79,33.14,29.23,60.96,61.29,70.18,1.03,.3,2.08,.58,3.13,.83,.14,.04,1.37,.26,3.33,.62,1.48,.27,3.38,.63,5.55,1.04,1.22,.23,2.34,.45,3.31,.63,.88,.17,4.68,.44,4.68,.44Z" fill="black"/>
<path d="M148.1,234.7l-2.97-1.94v-7.36c0-13.75,0-23.69-.02-24.73,0-.35-.04-1.39,.5-2.56,.3-.66,.74-1.24,1.33-1.79,.97-.89,1.89-1.84,2.85-2.85,.41-.42,.81-.84,1.22-1.26l2.74-2.68c2.1-2.05,4.19-4.1,6.28-6.16,1.48-1.47,2.94-2.95,4.41-4.43l2.01-2.03c7.52-7.58,17.09-16.88,20.85-20.52,10.5-10.5,33.61-33.29,68.66-67.72l3.58-3.51,.06,5.01c.21,16.45,.25,28.38,.16,30-.09,1.63-.62,2.99-.68,3.14-.04,.09-.38,.94-.94,1.76-.89,1.32-8.82,9.68-67.21,66.83-1.86,1.82-3.07,3.01-3.44,3.36-.15,.15-1.38,1.36-2.95,2.91-3.11,3.07-7.95,7.87-13.84,13.75-7.22,7.21-14.41,14.46-21.38,21.53l-1.23,1.25ZM255.37,95.24c-33.03,32.44-54.91,54.03-65.08,64.2-3.79,3.67-13.36,12.96-20.81,20.48l-2,2.03c-1.48,1.5-2.95,2.99-4.44,4.47-2.09,2.07-4.19,4.12-6.3,6.18l-2.71,2.64c-.37,.38-.76,.79-1.16,1.2-.97,1.01-1.97,2.05-3.05,3.04-.17,.15-.28,.29-.34,.42-.12,.26-.11,.52-.11,.64,.03,1.11,.03,10.56,.03,24.86v1.87c5.99-6.07,12.12-12.24,18.27-18.38,5.89-5.89,10.74-10.69,13.86-13.77,1.57-1.55,2.81-2.77,2.95-2.92,.36-.36,1.58-1.55,3.44-3.37,55.99-54.79,65.79-64.97,66.66-66.17,.3-.44,.51-.96,.51-.97h0s.32-.85,.38-1.77c.06-1.21,.06-10.3-.11-24.7Z" fill="black"/>
<path d="M218.26,260.81c-1.4,0-2.39-.78-3.07-1.46-13.13-13.13-26.27-26.24-39.42-39.35l-9.62-9.6,18.58-18.24,6.7,6.61c4.46,4.4,8.91,8.8,13.36,13.21,4.91,4.87,9.82,9.75,14.73,14.63l7.3,7.26c3.58-2.5,6.88-5.37,9.83-8.55,14.2-15.28,20.74-33.46,19.44-54.04-.6-9.47-3.2-18.72-7.73-27.48l-.09-.17c-.28-.51-.74-1.37-.58-2.46,.12-.78,.51-1.48,1.17-2.06,.75-.67,5.88-5.85,10.63-10.66l1.9-1.92,1.74,2.75c.24,.37,.48,.74,.7,1.13,9.85,16.95,13.93,34.79,12.14,53.01-3.53,35.83-22.27,61.71-55.71,76.93-.74,.34-1.39,.47-1.98,.47Zm-46.03-50.39l6.56,6.54c13.15,13.11,26.3,26.23,39.42,39.36,.07,.07,.12,.12,.17,.16,.03-.01,.05-.02,.09-.04,31.95-14.54,49.86-39.25,53.23-73.45,1.67-17.01-2.06-33.68-11.09-49.59-4.37,4.42-7.26,7.33-8.43,8.46,4.8,9.28,7.55,19.09,8.19,29.15,1.38,21.79-5.55,41.05-20.58,57.22-3.56,3.84-7.6,7.25-12.01,10.16l-1.42,.94-1.67-1.59c-.3-.28-.56-.53-.82-.79l-7.36-7.32c-4.91-4.88-9.81-9.75-14.72-14.63-4.44-4.41-8.9-8.8-13.35-13.2l-3.7-3.65-12.49,12.26Z" fill="black"/>
<path d="M145.17,191.81v-10.97c-.03-8.48-.04-17.25,0-25.88,0-1.56,1.08-2.86,1.72-3.5,12.42-12.38,24.85-24.75,37.29-37.12l54.08-53.78c.3-.3,.6-.58,.99-.94l4.28-4.05v13c0,7.75,.01,15.77-.05,23.66-.01,1.4-.69,3.01-1.7,4.01-20.71,20.59-41.44,41.16-62.18,61.73l-14.47,14.36c-.36,.36-.7,.74-1.04,1.12l-.66,.72c-.36,.33-.72,.65-1.07,.98-.73,.67-1.47,1.33-2.18,2.02-2.7,2.62-5.39,5.25-8.08,7.88l-6.93,6.77Zm4.28-36.7c-.05,8.57-.03,17.29-.02,25.73v.83c2.58-2.53,5.17-5.05,7.76-7.57,.75-.72,1.52-1.42,2.29-2.12,.33-.3,.65-.59,.98-.89l.44-.48c.4-.45,.8-.89,1.22-1.31l14.48-14.36c20.74-20.57,41.47-41.13,62.18-61.73,.21-.21,.43-.73,.43-1.01,.06-7.87,.05-15.88,.05-23.62v-2.95s-52.05,51.76-52.05,51.76c-12.44,12.36-24.87,24.73-37.29,37.11-.26,.25-.41,.5-.46,.61Zm-.02,.05h0Z" fill="black"/>
<path d="M152.54,196.7l-1.5-1.46c-.41-.4-.82-.81-1.22-1.22-.94-.94-1.83-1.83-2.77-2.66-1.57-1.37-2.19-3.05-1.85-5l.12-.68,3.79-3.71c2.69-2.63,5.39-5.27,8.09-7.89,.75-.72,1.52-1.42,2.29-2.12,.35-.32,.7-.64,1.05-.96l1.49-1.37,8.98,8.74-3.5,3.54c-1.48,1.5-2.96,3.01-4.47,4.49-2.09,2.07-4.19,4.12-6.3,6.18l-4.2,4.11Zm-3.1-9.06c.06,.14,.19,.3,.41,.49,.95,.83,1.84,1.71,2.7,2.57l1.2-1.17c2.1-2.05,4.19-4.1,6.28-6.16,1.49-1.47,2.96-2.96,4.43-4.46l.47-.48-2.99-2.91c-.59,.54-1.18,1.08-1.76,1.64-2.7,2.62-5.39,5.25-8.08,7.88l-2.66,2.6Z" fill="black"/>
</svg>
