<svg width="24" height="24" viewBox="0 0 24 24" fill="none" xmlns="http://www.w3.org/2000/svg">
<g id="CPOOL">
<g id="favicon" clip-path="url(#clip0_1_4)">
<g id="Logo icon">
<path id="Vector" d="M16.5428 14.4388C15.671 16.0518 13.9638 17.1504 12.0057 17.1504C9.16392 17.1504 6.85207 14.8383 6.85207 11.9968C6.85207 9.1553 9.1638 6.84322 12.0057 6.84322C13.9638 6.84322 15.6711 7.94182 16.5429 9.55496L19.1027 8.17762C17.7411 5.65415 15.0738 3.93909 12.0057 3.93909C7.55549 3.93909 3.94794 7.54664 3.94794 11.9968C3.94794 16.447 7.55537 20.0545 12.0057 20.0545C15.0739 20.0545 17.7413 18.3395 19.1022 15.816L16.5428 14.4388Z" fill="#1A1A1F"/>
<path id="Rectangle" d="M1 11.9998C1 5.92466 5.9308 0.999756 12.006 0.999756V0.999756V22.9999V22.9999C5.9308 22.9999 1 18.075 1 11.9998V11.9998Z" fill="#6077EB"/>
<path id="Intersect" fill-rule="evenodd" clip-rule="evenodd" d="M12.0059 17.1504V20.0545C12.0058 20.0545 12.0057 20.0545 12.0057 20.0545C7.55537 20.0545 3.94794 16.447 3.94794 11.9968C3.94794 7.54664 7.55549 3.93909 12.0057 3.93909C12.0057 3.93909 12.0058 3.93909 12.0059 3.93909V6.84322C12.0058 6.84322 12.0057 6.84322 12.0057 6.84322C9.1638 6.84322 6.85207 9.1553 6.85207 11.9968C6.85207 14.8383 9.16392 17.1504 12.0057 17.1504C12.0057 17.1504 12.0058 17.1504 12.0059 17.1504Z" fill="white"/>
</g>
</g>
</g>
<defs>
<clipPath id="clip0_1_4">
<rect width="22" height="22" fill="white" transform="translate(1 1)"/>
</clipPath>
</defs>
</svg>
