<svg width="24" height="24" viewBox="0 0 24 24" fill="none">
<path fill-rule="evenodd" d="m8.96,2.94c0,.82,0,1.64,0,2.46,0,.06-.05.16-.1.19-.96.53-1.68,1.3-2.22,2.24-.52.91-.82,1.9-.96,2.93-.18,1.26-.09,2.5.29,3.72.27.88.67,1.7,1.23,2.43.45.58.99,1.05,1.61,1.43.12.07.17.14.17.29,0,1.65,0,3.29,0,4.94,0,.14-.03.16-.16.12-1.21-.31-2.32-.83-3.33-1.56-.57-.41-1.12-.85-1.63-1.33-.95-.88-1.68-1.93-2.3-3.06-.74-1.34-1.2-2.76-1.42-4.28-.11-.74-.15-1.48-.11-2.22.08-1.51.43-2.95,1.06-4.32.55-1.22,1.28-2.32,2.19-3.3.83-.9,1.79-1.62,2.86-2.2.86-.46,1.75-.84,2.7-1.07.13-.03.15,0,.15.12,0,.82,0,1.64,0,2.46h0Z" fill= "#bfffff"/>
<path fill-rule="evenodd" d="m15,23.63v-.18c0-1.66,0-3.33,0-4.99,0-.06.05-.15.1-.19.62-.39,1.16-.85,1.55-1.47.03-.05.05-.16.02-.22-.31-.62-.64-1.23-.96-1.85,0-.02-.02-.03-.04-.06-.16.21-.31.41-.48.6-.13.14-.16.29-.15.48,0,.54,0,1.08,0,1.63,0,.12-.04.15-.15.15-.46,0-.93,0-1.4,0-.14,0-.18-.03-.18-.18,0-2.8,0-5.61,0-8.41v-1.2c0-.1.03-.12.12-.12.48,0,.96,0,1.44,0,.12,0,.19.03.19.18,0,1.79,0,3.58,0,5.36v.19c.22-.33.41-.62.6-.91.43-.66.87-1.31,1.3-1.97.02-.03.08-.06.12-.06.57,0,1.14,0,1.74,0-.04.06-.06.11-.09.15-.63.93-1.26,1.87-1.88,2.81-.04.05-.04.17,0,.22.47.87.96,1.74,1.43,2.61.09.16.15.35.28.48.12.13.29.22.44.31.84.49,1.68.99,2.52,1.48.04.02.07.11.05.15-.3.71-.7,1.35-1.23,1.92-1.07,1.16-2.38,1.95-3.82,2.54-.49.2-.99.36-1.52.54h0Z" fill= "#bfffff"/>
<path fill-rule="evenodd" d="m10.68,6.55c.46-.46.96-.83,1.52-1.09.68-.31,1.38-.53,2.12-.59.19-.02.37-.04.56-.04.1,0,.12-.04.12-.13V.35c.35.11.68.19,1,.31.41.15.82.32,1.21.52.83.42,1.59.95,2.28,1.58.69.63,1.27,1.36,1.73,2.17.04.06.08.13.09.19,0,.04-.03.1-.07.12-.37.26-.75.52-1.12.78-.76.53-1.51,1.06-2.27,1.59-.2.14-.41.28-.61.42-.08.06-.12.04-.16-.05-.25-.59-.59-1.13-1.07-1.57-.27-.25-.59-.46-.9-.68-.04-.03-.13-.01-.19,0-.69.03-1.38.16-2.04.36-.77.24-1.47.61-1.98,1.27-.07.1-.12.24-.12.36,0,1.38,0,2.77,0,4.15,0,.13-.03.17-.16.17-.47,0-.95,0-1.42,0-.1,0-.12-.03-.12-.12v-6.94c0-.09.03-.12.12-.12.45,0,.91,0,1.36,0,.11,0,.13.04.13.14,0,.51,0,1.03,0,1.57h0Z" fill= "#bfffff"/>
<path fill-rule="evenodd" d="m13.16,2.52v2.34c0,.13-.05.15-.16.12-.69-.13-1.38-.15-2.07-.07-.09.01-.13,0-.13-.11V.16c0-.1.03-.14.13-.14.41,0,.82-.02,1.22-.02.31,0,.61.02.92.05.03,0,.08.08.08.13,0,.78,0,1.56,0,2.34h0Z" fill= "#bfffff"/>
<path fill-rule="evenodd" d="m13.16,19.03v4.77c0,.11-.01.16-.14.16-.71,0-1.43.03-2.14.04-.03,0-.08-.08-.08-.12,0-.5,0-1,0-1.51v-3.14c0-.11.03-.15.14-.13.72.12,1.43.08,2.14-.06.02,0,.04,0,.08-.01h0Z" fill= "#bfffff"/>
</svg>