<svg xmlns="http://www.w3.org/2000/svg" width="100" height="100" viewBox="0 0 100 100">
  <defs>
    <style>
      .cls-1 {
        fill: #72d9ff;
      }

      .cls-1, .cls-2 {
        fill-rule: evenodd;
      }

      .cls-2 {
        fill: #2400ff;
      }
    </style>
  </defs>
  <path id="Color_Fill_1" data-name="Color Fill 1" class="cls-1" d="M57.74,10.54q0.01-.45.02-0.9L58.04,9.7a0.322,0.322,0,0,0,.08.2,0.2,0.2,0,0,1,.28.1l0.02,0.08-0.18.08,0.02,0.08a0.927,0.927,0,0,1,.44.14,3.771,3.771,0,0,1,.48-0.04,4.359,4.359,0,0,0,1.98.14c0.146-.021.327,0.07,0.46,0.06V10.4h0.02a2.363,2.363,0,0,0,.78-0.16l-0.04-.06a0.247,0.247,0,0,1-.08-0.2h0.06a1.754,1.754,0,0,0,.58-0.16,0.9,0.9,0,0,0,.1-0.26l0.18,0.02V9.6l-0.04.08a0.659,0.659,0,0,1,.3-0.02,0.634,0.634,0,0,0,.02-0.28l0.2,0.06c-0.006-.094-0.031-0.092.02-0.14l0.1-.02v2.26l1.52,0.42a39.577,39.577,0,0,1,4.04,1.48,31.436,31.436,0,0,1,11.94,8.88,37.08,37.08,0,0,1,2.74,3.9,6.411,6.411,0,0,1,.68,1.22L70.88,37.1l-0.04-.02a7.037,7.037,0,0,0-.78-1.64,15.466,15.466,0,0,0-4.04-4.9c-0.464-.347-1.541-1.38-2.2-1.34v6.34h0.24q0.01,9.419.02,18.84V54.34l6.36-9.64H76.5L69.72,54.78l5.92,10.78,9.98,5.88a7.053,7.053,0,0,1-.78,1.7c-0.334.57-.577,1.152-0.92,1.7A28.524,28.524,0,0,1,82.2,77.2c-3,3.855-7.621,6.8-12.4,8.88a43.017,43.017,0,0,1-4.3,1.6l-1.68.48q-0.01,2.99-.02,5.98H63.72l-0.02-.08-0.16.08,0.06-.18a1.056,1.056,0,0,1-.48-0.32l-0.2.02a0.178,0.178,0,0,1-.08.14H62.78l-0.02-.12-0.14.04a0.41,0.41,0,0,0-.14-0.18v0.12a0.361,0.361,0,0,1-.22-0.12s-0.6-.036-0.62-0.04V93.44a0.436,0.436,0,0,1,.18-0.1l-0.18-.1-0.24.08V93.24a0.639,0.639,0,0,1-.42.16l-0.06-.12a2.67,2.67,0,0,1-.84.38c-0.031-.084,0-0.049-0.08-0.08v0.04l-0.02.14a0.1,0.1,0,0,1,.1.1,1.184,1.184,0,0,0-.56.44H59.46l-0.06-.08a0.208,0.208,0,0,1-.1.18l-0.08-.12-0.04.02v0.22l-0.14.02V94.7h-0.1a0.106,0.106,0,0,0-.08-0.08c-0.018.105-.006,0.091-0.1,0.12l-0.04-.14-0.04.04c0.01,0.109-.1.319-0.22,0.26V95l-0.1-.04a0.346,0.346,0,0,1,.08.2H58.38c-0.073-.061-0.147.007-0.2,0.08a3.273,3.273,0,0,1,.02.44,0.482,0.482,0,0,1-.24.2,0.168,0.168,0,0,1,.02.14l-0.14.04c-0.029-.1-0.021-0.063-0.1-0.1V89.34l-2.1.2-1.72.08H52.96c-1.038,0-1.989-.093-2.96-0.1v2.02a1.93,1.93,0,0,1-.04.76c-0.039.041-.008,0.021-0.08,0.04-0.039-.041-0.008-0.021-0.08-0.04l0.06-.12a4.132,4.132,0,0,0-.4-0.3l0.04-.16-0.2.06-0.04-.08a0.259,0.259,0,0,1-.22.12V91.76l0.06-.08-0.12.02,0.04-.18c-0.23.037-.269-0.145-0.38-0.28a0.453,0.453,0,0,1-.28.08,2.1,2.1,0,0,0-.12-0.24L48.42,91a4.508,4.508,0,0,0-.66-0.16l-0.02-.1-0.28-.08c-0.03.1-.066,0.093-0.18,0.1a1.809,1.809,0,0,0-.94-0.14l-0.04.08-0.16-.06,0.02,0.1a2.8,2.8,0,0,1-.38-0.08l0.02,0.08-0.1-.02a0.554,0.554,0,0,0,.16.16v0.04l-0.02.02a0.719,0.719,0,0,1-.44.02,0.478,0.478,0,0,1-.3.32V91.14l-0.08.02a0.221,0.221,0,0,1-.12.14l0.04,0.12H44.8a0.212,0.212,0,0,0-.24-0.12l-0.06.12-0.1-.04a0.317,0.317,0,0,1-.26.3l0.04,0.18a0.4,0.4,0,0,0-.26.06V88.56l-1.06-.28c-0.846-.255-1.664-0.477-2.44-0.78a38.666,38.666,0,0,1-8.46-4.48A41.635,41.635,0,0,1,17.14,63.98a47.812,47.812,0,0,1-1.54-5,40.324,40.324,0,0,1-.26-18.24c2.977-11.7,9.224-19.848,18.46-25.28a35.231,35.231,0,0,1,7.32-3.26,18.861,18.861,0,0,1,2.8-.78V9.66l0.06-.08a3.124,3.124,0,0,1,1.42.12h0.04a0.664,0.664,0,0,1-.14.22c0.1-.025.051-0.035,0.14,0.02,0.029-.1-0.014-0.05.08-0.08a1.986,1.986,0,0,0,1.22-.26L46.8,9.7a0.225,0.225,0,0,0,.16-0.06c0.039-.051.019-0.024,0.02-0.12l0.38-.06c-0.042-.04-0.027-0.02-0.04-0.1h0.24c0.125-.113.578-0.283,0.62-0.36h0.04c-0.05-.1-0.112-0.1-0.16-0.18a0.079,0.079,0,0,1,.1-0.02l0.06-.04a0.209,0.209,0,0,1,.26-0.2l0.08-.02a0.242,0.242,0,0,1,.1-0.22,0.737,0.737,0,0,0,.22.04c0.032-.175.056-0.206,0.08-0.36h0.06a0.539,0.539,0,0,0,.34.04,0.8,0.8,0,0,1,0-.3l0.18-.06-0.06-.12a0.152,0.152,0,0,0,.16-0.1c-0.038-.139.1-0.1,0.18-0.22V7.22A0.264,0.264,0,0,1,49.66,7a0.168,0.168,0,0,0,.18-0.08c-0.089-.026-0.04.013-0.08-0.06,0.1-.042.1-0.1,0.2-0.14A24.973,24.973,0,0,1,50,10.5,42.488,42.488,0,0,1,57.74,10.54Zm1.36-.14-0.02.04,0.04-.04H59.1ZM50,26.64V31.6l0.74-.72a15.945,15.945,0,0,1,1.76-1.34,23.645,23.645,0,0,1,5.24-2.34V26.92l-1.88-.32-1.9-.16H53.08C51.975,26.44,50.985,26.594,50,26.64Zm-6.12,2-1.28.74A24.206,24.206,0,0,0,40.42,31c-2.736,2.184-5.077,6.172-6.26,9.92a42.163,42.163,0,0,0-1.1,4.88L32.8,48.66v1.9q0.02,0.65.04,1.3c0.151,0.929.16,1.884,0.34,2.74,0.185,0.88.276,1.7,0.52,2.52a27.19,27.19,0,0,0,3.62,8c0.565,0.8,1.237,1.492,1.84,2.24a16.129,16.129,0,0,0,3.32,2.86,7.473,7.473,0,0,0,1.44.92V29.38A1.776,1.776,0,0,0,43.88,28.64Zm13.84,1.54-1.88.62a12.808,12.808,0,0,0-4.8,3.04A4.488,4.488,0,0,0,50,35.12V73.28a18.247,18.247,0,0,0,5.14.2c0.89-.144,1.768-0.272,2.6-0.4Q57.73,51.632,57.72,30.18Zm6.34,37.96H63.82v2.64a15.2,15.2,0,0,0,5.72-5.38l-3.46-6.64-0.06.04-1.96,2.5v6.84ZM49.56,91.82v0.04C49.58,91.825,49.578,91.856,49.56,91.82Z"/>
  <path id="Color_Fill_2" data-name="Color Fill 2" class="cls-2" d="M63.82,26.3v2.9a19.6,19.6,0,0,0-4.24.56,14.77,14.77,0,0,0-1.84.44q0.01-1.51.02-3.02l1.8-.44A18.54,18.54,0,0,1,63.82,26.3Zm-19.48.12h5.22v5.62L50,31.6a15.272,15.272,0,0,1-.12,3.72V50H44.34V26.42Zm13.98,9.12h5.5v32.6h-5.5V35.54Z"/>
</svg>
