<?xml version="1.0" encoding="UTF-8"?>
<svg xmlns="http://www.w3.org/2000/svg" xmlns:xlink="http://www.w3.org/1999/xlink" width="24px" height="24px" viewBox="0 0 24 24" version="1.1">
<g id="surface1">
<path style=" stroke:none;fill-rule:nonzero;fill:rgb(100%,100%,100%);fill-opacity:1;" d="M 22.605469 18.570312 C 21.949219 18.570312 21.390625 18.96875 21.25 19.527344 L 16.027344 19.308594 C 16.046875 19.222656 16.058594 19.136719 16.058594 19.050781 C 16.058594 18.890625 16.027344 18.734375 15.980469 18.578125 L 17.878906 17.625 C 18.347656 18.128906 19.191406 18.230469 19.800781 17.851562 C 20.40625 17.46875 20.566406 16.738281 20.15625 16.191406 C 19.75 15.644531 18.921875 15.46875 18.277344 15.792969 C 17.628906 16.113281 17.382812 16.824219 17.71875 17.40625 L 15.878906 18.335938 C 15.441406 17.527344 14.359375 17.164062 13.414062 17.503906 C 12.46875 17.839844 11.988281 18.769531 12.328125 19.613281 L 8.90625 20.335938 C 8.886719 19.925781 8.6875 19.542969 8.359375 19.25 L 8.976562 18.5 C 9.671875 18.710938 10.4375 18.40625 10.714844 17.808594 C 10.996094 17.207031 10.6875 16.519531 10.019531 16.25 C 9.355469 15.972656 8.546875 16.207031 8.199219 16.773438 C 7.851562 17.335938 8.070312 18.050781 8.699219 18.390625 L 8.128906 19.074219 C 7.734375 18.8125 7.226562 18.703125 6.726562 18.753906 L 6.140625 15.828125 C 6.875 15.6875 7.445312 15.183594 7.601562 14.550781 C 7.761719 13.90625 7.484375 13.246094 6.886719 12.855469 C 6.289062 12.457031 5.484375 12.402344 4.828125 12.707031 L 3.34375 10.179688 C 3.664062 10.042969 3.921875 9.824219 4.113281 9.5625 L 5.34375 9.851562 C 5.335938 9.910156 5.324219 9.964844 5.324219 10.023438 C 5.324219 10.648438 5.871094 11.179688 6.589844 11.238281 C 7.304688 11.300781 7.960938 10.875 8.089844 10.25 C 8.21875 9.625 7.792969 9.023438 7.097656 8.859375 C 6.398438 8.6875 5.671875 9.007812 5.414062 9.597656 L 4.25 9.328125 C 4.410156 9 4.441406 8.632812 4.339844 8.285156 L 7.773438 6.90625 C 8.410156 7.601562 9.5625 7.75 10.398438 7.226562 C 11.234375 6.707031 11.453125 5.707031 10.894531 4.960938 L 13.085938 3.09375 C 13.351562 3.238281 13.660156 3.335938 13.96875 3.351562 L 13.96875 4.179688 C 13.242188 4.246094 12.695312 4.804688 12.734375 5.445312 C 12.777344 6.089844 13.382812 6.59375 14.117188 6.59375 C 14.855469 6.59375 15.460938 6.089844 15.5 5.445312 C 15.542969 4.804688 15.003906 4.246094 14.269531 4.179688 L 14.269531 3.351562 C 14.546875 3.335938 14.804688 3.265625 15.042969 3.152344 L 17.441406 5.542969 C 16.882812 6.183594 16.925781 7.078125 17.53125 7.679688 C 18.148438 8.277344 19.164062 8.417969 19.957031 8 C 20.753906 7.582031 21.09375 6.742188 20.785156 5.984375 L 21.53125 5.621094 C 22.007812 6.105469 22.832031 6.191406 23.421875 5.800781 C 24.007812 5.421875 24.144531 4.699219 23.738281 4.167969 C 23.332031 3.640625 22.515625 3.472656 21.886719 3.804688 C 21.261719 4.132812 21.03125 4.828125 21.371094 5.402344 L 20.664062 5.75 C 20.375 5.289062 19.859375 4.976562 19.273438 4.898438 C 18.683594 4.820312 18.078125 4.984375 17.648438 5.351562 L 15.300781 3.015625 C 15.53125 2.859375 15.71875 2.648438 15.851562 2.421875 L 17.910156 2.71875 C 18.066406 3.34375 18.765625 3.753906 19.480469 3.640625 C 20.207031 3.535156 20.703125 2.953125 20.625 2.320312 C 20.546875 1.683594 19.910156 1.207031 19.183594 1.242188 C 18.445312 1.277344 17.878906 1.796875 17.867188 2.441406 L 15.960938 2.164062 C 16.226562 1.363281 15.789062 0.511719 14.925781 0.15625 C 14.058594 -0.199219 13.035156 0.0625 12.507812 0.753906 C 11.980469 1.449219 12.121094 2.378906 12.835938 2.9375 L 10.707031 4.75 C 10.378906 4.421875 9.910156 4.210938 9.414062 4.179688 L 9.414062 2.910156 C 10.140625 2.839844 10.6875 2.285156 10.648438 1.640625 C 10.605469 1 10.011719 0.503906 9.273438 0.503906 C 8.539062 0.503906 7.929688 1.007812 7.890625 1.648438 C 7.851562 2.292969 8.390625 2.847656 9.125 2.917969 L 9.125 4.179688 C 8.46875 4.222656 7.882812 4.558594 7.574219 5.0625 C 7.265625 5.578125 7.273438 6.183594 7.601562 6.6875 L 4.261719 8.027344 C 4.140625 7.773438 3.953125 7.558594 3.714844 7.382812 L 5.015625 5.332031 C 5.136719 5.359375 5.246094 5.375 5.363281 5.375 C 6.070312 5.375 6.65625 4.917969 6.746094 4.308594 C 6.835938 3.699219 6.378906 3.136719 5.703125 2.988281 C 5.015625 2.839844 4.320312 3.160156 4.070312 3.734375 C 3.824219 4.308594 4.113281 4.949219 4.726562 5.238281 L 3.464844 7.234375 C 2.699219 6.835938 1.734375 6.949219 1.105469 7.503906 C 0.492188 8.0625 0.382812 8.902344 0.847656 9.5625 C 1.316406 10.222656 2.230469 10.519531 3.078125 10.285156 L 4.578125 12.847656 C 4.199219 13.089844 3.933594 13.453125 3.84375 13.855469 L 2.75 13.578125 C 2.777344 13.480469 2.789062 13.375 2.789062 13.28125 C 2.789062 12.664062 2.261719 12.152344 1.566406 12.082031 C 0.867188 12.011719 0.222656 12.402344 0.0546875 13.003906 C -0.117188 13.601562 0.261719 14.210938 0.929688 14.417969 C 1.585938 14.628906 2.320312 14.375 2.640625 13.828125 L 3.804688 14.125 C 3.804688 14.148438 3.804688 14.175781 3.804688 14.203125 C 3.804688 14.773438 4.132812 15.304688 4.6875 15.609375 L 3.941406 16.460938 C 3.394531 16.035156 2.558594 16.0625 2.042969 16.519531 C 1.523438 16.980469 1.503906 17.703125 2.003906 18.179688 C 2.5 18.65625 3.324219 18.710938 3.902344 18.300781 C 4.480469 17.894531 4.578125 17.171875 4.152344 16.652344 L 4.957031 15.730469 C 5.195312 15.828125 5.464844 15.871094 5.734375 15.871094 C 5.773438 15.871094 5.8125 15.871094 5.851562 15.859375 L 6.449219 18.804688 C 5.652344 19.015625 5.097656 19.648438 5.066406 20.371094 C 5.046875 21.097656 5.5625 21.75 6.351562 21.992188 C 7.136719 22.238281 8.011719 22.011719 8.519531 21.429688 L 11.304688 22.515625 C 11.285156 22.601562 11.265625 22.695312 11.265625 22.785156 C 11.265625 23.402344 11.792969 23.921875 12.496094 23.992188 C 13.203125 24.0625 13.851562 23.660156 14.007812 23.0625 C 14.167969 22.460938 13.78125 21.855469 13.113281 21.644531 C 12.449219 21.4375 11.710938 21.707031 11.402344 22.261719 L 8.6875 21.203125 C 8.808594 21.011719 8.886719 20.804688 8.90625 20.585938 L 12.449219 19.832031 C 12.714844 20.265625 13.195312 20.570312 13.75 20.671875 C 14.308594 20.769531 14.886719 20.648438 15.324219 20.34375 L 16.644531 21.34375 C 16.335938 21.933594 16.605469 22.628906 17.261719 22.921875 C 17.917969 23.226562 18.726562 23.027344 19.101562 22.472656 C 19.480469 21.914062 19.300781 21.203125 18.695312 20.839844 C 18.078125 20.472656 17.253906 20.59375 16.804688 21.109375 L 15.542969 20.160156 C 15.730469 19.988281 15.871094 19.769531 15.960938 19.542969 L 21.222656 19.769531 C 21.230469 20.4375 21.847656 20.96875 22.613281 20.96875 C 23.378906 20.96875 23.996094 20.421875 23.988281 19.761719 C 23.988281 19.109375 23.371094 18.570312 22.605469 18.570312 Z M 22.605469 18.570312 "/>
</g>
</svg>
