<?xml version="1.0" standalone="no"?>
<!DOCTYPE svg PUBLIC "-//W3C//DTD SVG 20010904//EN"
 "http://www.w3.org/TR/2001/REC-SVG-20010904/DTD/svg10.dtd">
<svg version="1.0" xmlns="http://www.w3.org/2000/svg"
 width="200.000000pt" height="200.000000pt" viewBox="0 0 200.000000 200.000000"
 preserveAspectRatio="xMidYMid meet">

<g transform="translate(0.000000,200.000000) scale(0.100000,-0.100000)"
fill="#000000" stroke="none">
<path d="M872 1980 c-223 -31 -430 -137 -583 -297 -93 -98 -129 -150 -184
-266 -72 -153 -90 -235 -89 -422 0 -135 3 -173 23 -245 164 -610 830 -918
1396 -645 372 179 596 578 555 985 -14 129 -42 226 -100 345 -132 271 -385
466 -685 531 -87 19 -250 26 -333 14z m196 -128 c9 -6 212 -511 212 -528 0 -2
76 -4 169 -4 123 0 171 -3 178 -12 14 -18 213 -561 213 -581 0 -9 -10 -23 -22
-31 -18 -13 -55 -16 -193 -16 l-170 0 -91 -103 c-175 -197 -387 -422 -406
-429 -10 -4 -24 -5 -32 -2 -8 3 -58 124 -113 270 l-98 264 -166 0 c-121 0
-169 3 -176 13 -16 19 -213 561 -213 584 0 12 7 24 16 27 9 3 93 6 187 7 l172
0 182 202 c329 364 322 357 351 339z"/>
<path d="M843 1527 l-181 -202 134 -5 c98 -4 137 -9 143 -19 5 -7 23 -55 41
-107 18 -52 36 -94 40 -94 4 0 46 42 93 93 l86 94 -80 214 c-44 118 -84 217
-88 221 -4 5 -88 -83 -188 -195z"/>
<path d="M285 1163 c14 -38 53 -141 87 -230 l62 -163 146 0 147 0 99 108 c135
146 127 133 110 173 -7 19 -26 67 -40 107 l-28 72 -304 0 -304 0 25 -67z"/>
<path d="M1164 1114 l-108 -116 39 -114 39 -114 303 0 c210 0 303 3 303 11 0
6 -37 109 -82 230 l-83 219 -151 0 -152 0 -108 -116z"/>
<path d="M930 853 c-31 -32 -71 -75 -89 -95 l-34 -37 77 -209 c43 -115 82
-215 86 -222 8 -13 7 -14 259 258 l123 132 -130 0 c-154 0 -143 -8 -194 137
-18 51 -35 93 -38 93 -3 0 -30 -26 -60 -57z"/>
</g>
</svg>
