<svg width="24" height="24" stroke-miterlimit="10" version="1.1" viewBox="0 0 24 24" xml:space="preserve" xmlns="http://www.w3.org/2000/svg" xmlns:xlink="http://www.w3.org/1999/xlink">
<path d="M9.12663 15.3716C8.80597 15.3716 8.53111 15.1426 8.47513 14.8219L7.42828 8.67423L6.63768 4.03138C6.60714 3.85832 6.64786 3.68527 6.74966 3.53766C6.85145 3.39006 7.00415 3.29844 7.17721 3.2679C7.5335 3.20682 7.87452 3.45113 7.9356 3.80743L9.77305 14.598C9.80358 14.771 9.76287 14.9441 9.66107 15.0917C9.55927 15.2342 9.40657 15.3309 9.23352 15.3615C9.20298 15.3716 9.16226 15.3716 9.12663 15.3716Z" fill="#000000" fill-rule="nonzero" opacity="1" stroke="none"/>
<path d="M12.2009 10.3937C11.1524 10.3937 10.1751 10.7093 9.36077 11.2488L9.58472 12.5569C10.2871 11.9461 11.2033 11.5746 12.206 11.5746C14.4099 11.5746 16.2016 13.3662 16.2016 15.5701C16.2016 17.7741 14.4099 19.5657 12.206 19.5657C10.0021 19.5657 8.21045 17.7741 8.21045 15.5701C8.21045 15.2749 8.24099 14.9899 8.30207 14.715L7.94578 12.6333C7.37062 13.468 7.0296 14.4809 7.0296 15.5701C7.0296 18.4205 9.35059 20.7415 12.2009 20.7415C15.0513 20.7415 17.3722 18.4205 17.3722 15.5701C17.3722 13.5476 16.2062 11.7891 14.5088 10.9382C13.814 10.5899 13.0302 10.3937 12.2009 10.3937Z" fill="#000000" fill-rule="nonzero" opacity="1" stroke="none"/>
<path d="M11.2186 17.881C11.2186 17.493 11.533 17.1785 11.921 17.1785C12.3089 17.1785 12.6234 17.493 12.6234 17.881C12.6234 18.2689 12.3089 18.5834 11.921 18.5834C11.533 18.5834 11.2186 18.2689 11.2186 17.881Z" fill="#000000" fill-opacity="0.6" fill-rule="nonzero" opacity="1" stroke="none"/>
<path d="M13.4174 17.0615C13.4174 16.6736 13.7319 16.3591 14.1198 16.3591C14.5077 16.3591 14.8222 16.6736 14.8222 17.0615C14.8222 17.4494 14.5077 17.7639 14.1198 17.7639C13.7319 17.7639 13.4174 17.4494 13.4174 17.0615Z" fill="#000000" fill-opacity="0.6" fill-rule="nonzero" opacity="1" stroke="none"/>
<path d="M11.6868 15.5498C11.6868 15.1619 12.0013 14.8474 12.3892 14.8474C12.7772 14.8474 13.0916 15.1619 13.0916 15.5498C13.0916 15.9377 12.7772 16.2522 12.3892 16.2522C12.0013 16.2522 11.6868 15.9377 11.6868 15.5498Z" fill="#000000" fill-opacity="0.6" fill-rule="nonzero" opacity="1" stroke="none"/>
<path d="M9.50328 16.2675C9.50328 15.8795 9.81776 15.5651 10.2057 15.5651C10.5936 15.5651 10.9081 15.8795 10.9081 16.2675C10.9081 16.6554 10.5936 16.9699 10.2057 16.9699C9.81776 16.9699 9.50328 16.6554 9.50328 16.2675Z" fill="#000000" fill-opacity="0.6" fill-rule="nonzero" opacity="1" stroke="none"/>
<path d="M13.8704 14.827C13.8704 14.4391 14.1849 14.1246 14.5728 14.1246C14.9607 14.1246 15.2752 14.4391 15.2752 14.827C15.2752 15.2149 14.9607 15.5294 14.5728 15.5294C14.1849 15.5294 13.8704 15.2149 13.8704 14.827Z" fill="#000000" fill-opacity="0.6" fill-rule="nonzero" opacity="1" stroke="none"/>
<path d="M12.1602 13.2186C12.1602 12.8307 12.4747 12.5162 12.8626 12.5162C13.2505 12.5162 13.565 12.8307 13.565 13.2186C13.565 13.6065 13.2505 13.921 12.8626 13.921C12.4747 13.921 12.1602 13.6065 12.1602 13.2186Z" fill="#000000" fill-opacity="0.6" fill-rule="nonzero" opacity="1" stroke="none"/>
<path d="M9.95119 14.0381C9.95119 13.6502 10.2657 13.3357 10.6536 13.3357C11.0415 13.3357 11.356 13.6502 11.356 14.0381C11.356 14.426 11.0415 14.7405 10.6536 14.7405C10.2657 14.7405 9.95119 14.426 9.95119 14.0381Z" fill="#000000" fill-opacity="0.6" fill-rule="nonzero" opacity="1" stroke="none"/>
</svg>
