<svg id="DominiumIcon" xmlns="http://www.w3.org/2000/svg" viewBox="0 0 58.81 81.15" fill="#265477">
    <polygon points="35.17 16.67 38.05 11.68 32.29 11.68 29.41 6.69 26.53 11.68 20.77 11.68 23.65 16.67 20.77 21.66 26.53 21.66 29.41 26.64 32.29 21.66 38.05 21.66 35.17 16.67" />
    <path d="M31.35,64.97c-1.61-2.87-1.46-6.25,.1-8.89-1.51-.02-3.05,.34-4.47,1.13-4.28,2.41-5.8,7.83-3.39,12.12,2.41,4.28,7.83,5.8,12.11,3.39,1.41-.8,2.52-1.92,3.29-3.23-3.07-.04-6.04-1.66-7.65-4.53Z" />
    <path d="M56.72,81.15H2.1c-1.7,0-2.69-1.92-1.71-3.31L50.31,7.5c.98-1.39,0-3.31-1.71-3.31H10.23c-1.7,0-2.7,1.93-1.7,3.31l18.73,26.19c.53,.74,.52,1.74-.03,2.47h0c-.85,1.14-2.56,1.12-3.38-.04L.41,3.31c-.99-1.39,0-3.31,1.71-3.31H56.72c1.7,0,2.69,1.92,1.71,3.31L8.51,73.65c-.98,1.39,0,3.31,1.71,3.31H48.6c1.7,0,2.69-1.92,1.71-3.31l-18.61-26.22c-.51-.71-.52-1.67-.02-2.39h0c.82-1.21,2.6-1.23,3.44-.03l23.31,32.84c.98,1.39,0,3.31-1.71,3.31Z" />
</svg>