<svg width="24" height="24" viewBox="0 0 24 24">
<path d="M0 12C0 5.373 5.373 0 12 0s12 5.373 12 12-5.373 12-12 12S0 18.627 0 12Z" fill="#2775C9"/>
<path fill="#fff" d="m7.741 12.55-.434.587a.306.306 0 0 0 .273.444h1.423c.45 1.86 1.746 3.129 3.481 3.102 1.233 0 2.162-.613 2.782-1.833a.306.306 0 0 0-.149-.417l-.679-.303a.305.305 0 0 0-.398.143c-.32.65-.852 1.064-1.555 1.064-.637 0-1.148-.312-1.539-.941a3.452 3.452 0 0 1-.367-.815h1.822a.307.307 0 0 0 .274-.168l.435-.587a.306.306 0 0 0-.274-.444h-2.462a6.919 6.919 0 0 1-.002-.775h2.029a.309.309 0 0 0 .274-.168l.435-.587a.306.306 0 0 0-.274-.444h-2.259c.331-1.077 1.02-1.783 1.908-1.769.677 0 1.202.371 1.538.977a.303.303 0 0 0 .388.125l.682-.301a.306.306 0 0 0 .147-.426c-.63-1.137-1.548-1.709-2.755-1.709-1.101 0-1.982.438-2.652 1.307-.392.512-.664 1.112-.826 1.796h-.991a.309.309 0 0 0-.274.168l-.434.587a.306.306 0 0 0 .274.444h1.262a8.079 8.079 0 0 0-.005.775h-.823a.307.307 0 0 0-.273.168Z"/>
<path fill="#fff" d="M4.104 11.494c.247-3.945 3.422-7.13 7.367-7.389a7.875 7.875 0 0 1 5.472 1.724c.144.115.35.11.488-.013l.581-.518a.379.379 0 0 0-.01-.574 9.397 9.397 0 0 0-6.408-2.152c-4.83.204-8.76 4.089-9.017 8.916a9.39 9.39 0 0 0 1.513 5.653.378.378 0 0 0 .568.073l.581-.518a.376.376 0 0 0 .068-.481 7.871 7.871 0 0 1-1.203-4.719ZM19.91 6.859a.378.378 0 0 0-.568-.073l-.581.518a.376.376 0 0 0-.069.481 7.87 7.87 0 0 1 1.204 4.719c-.247 3.945-3.423 7.13-7.367 7.389a7.875 7.875 0 0 1-5.472-1.723.377.377 0 0 0-.488.012l-.581.518a.379.379 0 0 0 .009.574 9.397 9.397 0 0 0 6.409 2.152c4.83-.204 8.76-4.09 9.016-8.917a9.398 9.398 0 0 0-1.513-5.652Z"/>
</svg>