<svg width="24" height="24" viewBox="0 0 24 24" fill="none">
  <path fill-rule="evenodd" clip-rule="evenodd" d="m9.44687,5.34318c-3.9747,1.52579 -4.33881,5.43332 -5.47852,7.25824c-1.15321,1.84658 -3.79516,2.86544 -3.43388,3.80646s3.00637,-0.06968 5.09903,0.53078c2.06786,0.59324 4.95308,3.25371 8.92778,1.72793c2.02486,-0.77718 3.49101,-2.37704 4.16523,-4.27195c0.07251,-0.2034 -0.06309,-0.42092 -0.2781,-0.44101l0,0c-0.13371,-0.01256 -0.26209,0.05744 -0.32236,0.17734c-0.60988,1.21473 -1.65605,2.21507 -3.02521,2.74052c-2.26027,0.86757 -4.73336,0.18645 -6.25224,-1.52202c-0.34496,-0.38796 -0.64001,-0.82959 -0.87291,-1.31768c-0.06403,-0.13434 -0.12493,-0.27088 -0.17891,-0.41213c-0.0543,-0.14125 -0.10044,-0.28344 -0.14282,-0.42625c1.19464,-0.55683 2.57322,-1.14662 4.13604,-1.74645c1.53238,-0.58822 2.92696,-1.06532 4.16868,-1.447c0.83995,-0.25801 1.60991,-0.47271 2.30516,-0.64817c0.05022,-0.01256 0.09981,-0.02511 0.14909,-0.03735c0.10515,-0.02605 0.21313,0.03013 0.25205,0.1312l0.00063,0.00188c0.02291,0.05995 0.04269,0.12022 0.06403,0.18048c0.13748,0.3889 0.24043,0.78188 0.30855,1.17581c0.02982,0.17232 0.21815,0.26617 0.37258,0.18331c0.57064,-0.30635 1.09263,-0.60517 1.55906,-0.89268c1.73797,-1.07034 2.70159,-1.97809 2.50385,-2.49255c-0.19743,-0.51477 -1.52076,-0.54427 -3.52868,-0.17703c-0.63812,0.11676 -1.34562,0.27371 -2.10804,0.468c-0.13183,0.03359 -0.26523,0.06843 -0.4002,0.10421c-0.64158,0.17012 -1.31831,0.36505 -2.02298,0.5832c-1.31046,0.40585 -2.71635,0.89206 -4.16774,1.4492c-1.35786,0.52136 -2.64478,1.06187 -3.82498,1.60049c-0.01444,-2.28601 1.36759,-4.4471 3.62786,-5.31467c1.36885,-0.52544 2.81585,-0.48244 4.08205,0.01256c0.12493,0.04897 0.26711,0.01507 0.35845,-0.08381l0,0c0.14627,-0.15851 0.10138,-0.41087 -0.08852,-0.51383c-1.76905,-0.9564 -3.92919,-1.16419 -5.95405,-0.38702z" fill="#000"/>
</svg>