<svg width="24" height="24" viewBox="0 0 24 24" fill="none">
<path stroke="null" fill-rule="nonzero" fill="#000" d="m11.01334,0.90337c0.54818,-0.289 1.38228,-0.289 1.93045,0l5.59366,2.94895c0.33015,0.17404 0.51147,0.4334 0.54395,0.70114l0.00534,0l0,14.82281c-0.00728,0.29207 -0.1903,0.58217 -0.54929,0.77142l-5.59366,2.94895c-0.54818,0.28899 -1.38228,0.28899 -1.93045,0l-5.59365,-2.94895c-0.35748,-0.18846 -0.52904,-0.48058 -0.53754,-0.77142c-0.00087,-0.02984 -0.00095,-0.05443 -0.00003,-0.07468l0.00003,-14.64833c-0.00083,-0.0206 -0.00084,-0.04112 -0.00002,-0.06155l0.00002,-0.03825l0.0025,0c0.02484,-0.2707 0.19793,-0.52343 0.53504,-0.70114l5.59365,-2.94895zm7.18359,11.89111l-5.25485,2.7794c-0.54738,0.28954 -1.38027,0.28954 -1.92765,0l-5.24314,-2.77321l0,6.5298l5.24314,2.7585c0.30985,0.16578 0.63201,0.3273 0.94573,0.33435l0.01809,0.00024c0.3131,0.00102 0.61709,-0.15818 0.92532,-0.3089l5.29335,-2.80797l0,-6.51221zm-14.19181,6.26049c0,0.56823 0.06546,0.94171 0.19542,1.20482c0.10772,0.21809 0.26935,0.38474 0.56446,0.58756l0.01685,0.0115c0.06477,0.04408 0.13611,0.09023 0.22296,0.14445l0.10241,0.06328l0.31449,0.19149l-0.45106,0.75236l-0.352,-0.21448l-0.05917,-0.03666c-0.10177,-0.0634 -0.18613,-0.11783 -0.26481,-0.17138c-0.84109,-0.5721 -1.15478,-1.19584 -1.16097,-2.49342l-0.00009,-0.03953l0.87151,0zm7.54997,-10.2011c-0.0407,0.014 -0.07885,0.03023 -0.11363,0.04863l-5.58512,2.95843c-0.00586,0.00309 -0.01145,0.00617 -0.01677,0.0092l-0.00473,0.00273l0.00877,0.00506l0.01273,0.00691l5.58512,2.95843c0.03478,0.01841 0.07293,0.03464 0.11363,0.04863l0,-6.03804zm0.88982,0l0,6.03804c0.04073,-0.014 0.07888,-0.03023 0.11365,-0.04863l5.58507,-2.95843c0.00586,-0.00309 0.01146,-0.00617 0.01677,-0.0092l0.00475,-0.00276l-0.00877,-0.00503l-0.01276,-0.00691l-5.58507,-2.95843c-0.03478,-0.01841 -0.07293,-0.03464 -0.11365,-0.04863zm5.75202,-3.24147l-5.0211,2.63767l5.0211,2.63767l0,-5.27534zm-12.42564,0l0,5.27534l5.0211,-2.63767l-5.0211,-2.63767zm6.78238,-3.92068c-0.29069,-0.15369 -0.81665,-0.15369 -1.10734,0l-5.58997,2.95535c-0.00587,0.00311 -0.01146,0.00617 -0.01678,0.00922l-0.00473,0.00273l0.00878,0.00502l0.01274,0.00693l5.58997,2.95534c0.29069,0.15371 0.81665,0.15371 1.10734,0l5.58994,-2.95534c0.00587,-0.00311 0.01148,-0.00617 0.01679,-0.00919l0.00475,-0.00276l-0.00878,-0.00502l-0.01277,-0.00693l-5.58994,-2.95535zm6.47568,0.29786l0.352,0.21449l0.05916,0.03665c0.10177,0.06338 0.18613,0.11784 0.26482,0.17136c0.84109,0.57211 1.15478,1.19586 1.16097,2.49344l0.00009,0.03953l-0.8715,0c0,-0.56826 -0.06546,-0.94171 -0.19543,-1.20485c-0.1077,-0.21807 -0.26933,-0.38473 -0.56444,-0.58752l-0.01686,-0.01152c-0.06477,-0.04405 -0.1361,-0.09021 -0.22296,-0.14444l-0.10241,-0.06329l-0.3145,-0.19148l0.45107,-0.75236z"/>
</svg>