<?xml version="1.0" encoding="UTF-8" standalone="no"?>
<!-- Created with Inkscape (http://www.inkscape.org/) -->

<svg
   width="6000"
   height="6000"
   viewBox="0 0 1587.5 1587.5"
   version="1.1"
   id="svg5"
   sodipodi:docname="dibujo.svg"
   inkscape:version="1.2.1 (9c6d41e410, 2022-07-14)"
   xmlns:inkscape="http://www.inkscape.org/namespaces/inkscape"
   xmlns:sodipodi="http://sodipodi.sourceforge.net/DTD/sodipodi-0.dtd"
   xmlns="http://www.w3.org/2000/svg"
   xmlns:svg="http://www.w3.org/2000/svg">
  <sodipodi:namedview
     id="namedview7"
     pagecolor="#ffffff"
     bordercolor="#000000"
     borderopacity="0.25"
     inkscape:showpageshadow="2"
     inkscape:pageopacity="0.0"
     inkscape:pagecheckerboard="0"
     inkscape:deskcolor="#d1d1d1"
     inkscape:document-units="mm"
     showgrid="false"
     inkscape:zoom="0.088388348"
     inkscape:cx="3099.9561"
     inkscape:cy="2398.5062"
     inkscape:window-width="1920"
     inkscape:window-height="986"
     inkscape:window-x="-11"
     inkscape:window-y="-11"
     inkscape:window-maximized="1"
     inkscape:current-layer="layer1" />
  <defs
     id="defs2" />
  <g
     inkscape:label="Capa 1"
     inkscape:groupmode="layer"
     id="layer1">
    <circle
       style="fill:#00bf87;stroke:#00bf87;stroke-opacity:1;fill-opacity:1;stroke-width:0;stroke-dasharray:none"
       id="path3018"
       cx="793.75287"
       cy="793.74957"
       r="793.75" />
    <path
       style="fill:#00bf87;fill-opacity:1;stroke:#00bf87;stroke-width:0;stroke-dasharray:none;stroke-opacity:1"
       d="M 2749.2311,5983.8942 C 1419.5775,5869.343 317.20271,4879.2898 61.784717,3570.2734 18.766147,3349.8034 8.0982586,3203.817 14.41078,2921.9772 20.809564,2636.2859 35.233354,2523.3737 97.178414,2274.0554 150.28557,2060.3082 209.03415,1900.1759 310.94049,1691.3994 465.29169,1375.1785 630.80855,1144.5056 887.6571,887.6571 1374.0691,401.24505 1965.8395,111.38121 2642.8248,27.932284 2812.8215,6.9775509 3153.6221,4.3421651 3320.5734,22.691303 3786.8867,73.942458 4261.7298,245.92918 4649.9342,504.18162 5641.7289,1163.972 6150.1839,2337.4554 5950.495,3505.7972 c -145.2658,849.9216 -665.0801,1610.6559 -1405.3331,2056.6673 -539.7737,325.2201 -1177.0028,474.751 -1795.9308,421.4297 z"
       id="path4847"
       transform="scale(0.26458333)" />
    <path
       style="fill:#00bf87;fill-opacity:1;stroke:#00bf87;stroke-width:0;stroke-dasharray:none;stroke-opacity:1"
       d="M 2647.8027,5967.2104 C 2110.907,5898.2989 1619.935,5696.312 1182.2825,5364.2924 1025.2888,5245.191 738.53569,4955.7694 619.32622,4796.0972 298.44258,4366.2977 97.985744,3874.2355 34.478044,3360.4682 19.197654,3236.8522 19.181993,2797.0796 34.452594,2645.778 66.565131,2327.606 182.54629,1955.8551 350.93158,1631.3777 499.32847,1345.4177 652.21703,1137.3176 887.11536,901.56545 1343.9016,443.11904 1872.2134,165.96289 2498.6853,56.124306 c 283.8171,-49.7612995 708.3081,-52.0699636 980.28,-5.331413 501.6536,86.209487 988.1578,302.929187 1380.2725,614.860457 121.8757,96.95333 359.9854,334.3324 461.4769,460.06065 343.7111,425.7916 557.8986,923.0008 643.3299,1493.4095 23.5845,157.4695 20.0643,632.31 -5.9551,803.2733 -25.8973,170.1615 -94.2281,441.8744 -148.1351,589.05 -61.9775,169.2097 -219.4912,480.717 -316.9453,626.8079 -169.7072,254.4038 -400.1788,509.7152 -616.8008,683.2787 -366.9024,293.9724 -827.14,510.6369 -1286.5973,605.6874 -275.2385,56.9401 -676.8774,73.9938 -941.8083,39.9896 z"
       id="path4849"
       transform="scale(0.26458333)" />
    <path
       style="fill:#00bf87;fill-opacity:1;stroke:#00bf87;stroke-width:0;stroke-dasharray:none;stroke-opacity:1"
       d="M 2647.8027,5967.8858 C 1948.9341,5874.1979 1341.2353,5569.7445 858.81781,5071.6153 441.04612,4640.2373 179.40321,4135.8204 59.422991,3530.4756 30.18462,3382.9572 29.0257,3362.9824 28.865087,3003.7896 28.678845,2587.2763 32.197658,2555.5763 113.32364,2242.9264 163.5291,2049.4405 232.97708,1864.8726 325.10561,1680.0857 483.43358,1362.5192 645.08713,1140.0977 902.68624,885.38368 1391.1972,402.34423 1965.4747,121.8875 2647.4078,33.323826 2784.4396,15.527294 3234.3764,15.097494 3360.1714,32.642961 3925.9538,111.5564 4447.2036,333.40956 4870.5515,675.48754 c 136.7783,110.52103 380.7668,358.03936 482.8391,489.82446 326.1397,421.0773 527.9322,901.494 610.654,1453.8115 9.7444,65.0615 15.1523,203.9396 14.9788,384.6661 -0.3112,324.2457 -14.8799,448.8461 -84.748,724.8145 -56.8618,224.5964 -105.7639,355.142 -220.1044,587.5757 -153.9977,313.0496 -330.3095,558.7306 -576.9942,804.0099 -450.0214,447.4578 -1022.5917,734.5357 -1669.1231,836.8726 -164.2903,26.0049 -619.8635,32.3245 -780.251,10.8235 z"
       id="path4851"
       transform="scale(0.26458333)" />
    <path
       style="fill:#00bf87;fill-opacity:1;stroke:#00bf87;stroke-width:0;stroke-dasharray:none;stroke-opacity:1"
       d="M 2681.3489,5973.0161 C 2468.429,5947.2748 2188.8111,5881.1832 1991.2127,5809.8928 1408.6106,5599.6992 877.76136,5186.4194 529.00188,4671.524 267.50828,4285.4647 97.798696,3840.4904 37.492649,3382.7988 14.451311,3207.927 22.195095,2668.1607 49.909569,2517.3001 103.91178,2223.3451 200.00441,1931.0076 325.10561,1680.0857 482.14225,1365.1093 642.55466,1143.7695 899.0656,888.12611 1364.4413,424.32429 1927.7922,140.40571 2573.8687,44.056009 2764.4309,15.637376 3186.2779,9.6347729 3360.1714,32.867443 3900.1317,105.00766 4407.74,315.56966 4830.9535,642.96539 c 131.5827,101.79169 379.159,345.79167 489.8244,482.74861 364.2108,450.7389 601.1581,1032.3389 653.8816,1604.9871 16.569,179.9625 7.9033,519.5708 -17.7942,697.3526 -23.1584,160.2143 -91.9093,433.2291 -146.9109,583.3931 -103.7086,283.1428 -295.1264,620.9696 -489.9768,864.7435 -101.4224,126.8878 -312.9002,340.72 -432.4556,437.27 -416.2273,336.1353 -932.0182,563.6038 -1459.4683,643.639 -149.7365,22.7209 -609.381,32.5188 -746.7048,15.9168 z"
       id="path4853"
       transform="scale(0.26458333)" />
    <g
       id="g4759"
       transform="matrix(107.98335,0,0,-107.98335,149.33459,1518.3167)"
       inkscape:label="Earth_symbol_%28alchemical%29.svg"
       style="fill:#ffffff">
      <g
         id="g1785"
         style="fill:#ffffff">
        <g
           id="g1779"
           transform="translate(11.59322,-2.1190598)"
           style="fill:#ffffff">
          <path
             sodipodi:nodetypes="cc"
             style="fill:#ffffff;stroke:#ffffff;stroke-width:0.6;stroke-linecap:round;stroke-linejoin:round;stroke-miterlimit:10;stroke-dasharray:none;stroke-opacity:1"
             d="M -0.5929713,12.449403 -5.5932209,3.7887161"
             id="path4-3-6-56"
             inkscape:connector-curvature="0" />
          <path
             sodipodi:nodetypes="cc"
             style="fill:#ffffff;stroke:#ffffff;stroke-width:0.6;stroke-linecap:round;stroke-linejoin:round;stroke-miterlimit:10;stroke-dasharray:none;stroke-opacity:1"
             d="M -0.59297,12.449403 H -10.593471"
             id="path4-3-7-3"
             inkscape:connector-curvature="0" />
          <path
             sodipodi:nodetypes="cc"
             style="fill:#ffffff;stroke:#ffffff;stroke-width:0.6;stroke-linecap:round;stroke-linejoin:round;stroke-miterlimit:10;stroke-dasharray:none;stroke-opacity:1"
             d="M -10.593471,12.449403 -5.5932209,3.7887161"
             id="path4-3-6-56-7"
             inkscape:connector-curvature="0" />
        </g>
      </g>
      <path
         sodipodi:nodetypes="cc"
         inkscape:connector-curvature="0"
         id="path4751"
         d="m 0.99975,6 h 10.0005"
         style="fill:#ffffff;stroke:#ffffff;stroke-width:0.6;stroke-linecap:round;stroke-linejoin:round;stroke-miterlimit:4;stroke-dasharray:none;stroke-opacity:1" />
    </g>
  </g>
</svg>
