<svg width="24" height="24" viewBox="0 0 24 24" fill="none">
  <rect width="24" height="24" fill="black"/>
  <path fill="#8c6df2" d="M12.01,8.43c-1.16,0-2.32,0-3.48,0-.53,0-.94,.4-.94,.94,.01,1.75,0,3.5,0,5.25,0,.04,0,.08,0,.12,.03,.55,.57,.93,1.09,.78,.4-.11,.64-.44,.64-.88,0-1.23,0-2.46,0-3.69,0-.43,.32-.8,.73-.86,.45-.06,.86,.19,.98,.62,.04,.15,.02,.31,.04,.46,.01,.11,.02,.22,.05,.33,.13,.39,.46,.58,.91,.58,.4,0,.75-.29,.83-.68,.03-.14,.02-.29,.02-.44,0-.25,.1-.47,.29-.64,.28-.24,.6-.3,.94-.15,.34,.15,.52,.43,.52,.81,0,1.23,0,2.45,0,3.68,0,.2,.05,.37,.16,.53,.22,.32,.62,.45,.99,.33,.37-.12,.61-.45,.61-.86,0-1.77,0-3.55,0-5.32,0-.54-.37-.91-.91-.91-1.16,0-2.33,0-3.49,0h0Zm.9,6.16c0-.06,0-.1,0-.14,0-.46-.34-.84-.79-.88-.52-.05-.93,.24-1.01,.72-.02,.12-.02,.25-.02,.38,0,.35,.15,.62,.45,.79,.31,.17,.64,.17,.95-.02,.32-.19,.44-.49,.42-.84h0Z" />
</svg>