<svg width="24" height="24" viewBox="0 0 24 24" fill="none">
<path d="M 23.199219 12 C 23.199219 18.1875 18.1875 23.199219 12 23.199219 C 5.8125 23.199219 0.800781 18.1875 0.800781 12 C 0.800781 5.8125 5.8125 0.800781 12 0.800781 C 18.1875 0.800781 23.199219 5.8125 23.199219 12 Z M 23.199219 12" fill="#0e142a"/>
<path d="M 12.015625 19.164062 C 11.914062 19.164062 11.816406 19.136719 11.726562 19.085938 L 6.160156 15.871094 C 5.980469 15.769531 5.871094 15.578125 5.871094 15.371094 L 5.871094 8.941406 C 5.871094 8.738281 5.980469 8.546875 6.160156 8.445312 L 11.726562 5.230469 C 11.90625 5.128906 12.125 5.128906 12.300781 5.230469 L 17.871094 8.445312 C 18.050781 8.546875 18.160156 8.738281 18.160156 8.941406 L 18.160156 15.371094 C 18.160156 15.578125 18.050781 15.765625 17.871094 15.871094 L 12.300781 19.085938 C 12.214844 19.136719 12.117188 19.164062 12.015625 19.164062 Z M 12.027344 6.632812 C 11.925781 6.632812 11.828125 6.660156 11.738281 6.710938 L 7.4375 9.195312 C 7.257812 9.296875 7.148438 9.488281 7.148438 9.691406 L 7.140625 14.640625 C 7.140625 14.847656 7.25 15.039062 7.429688 15.140625 L 11.71875 17.605469 C 11.894531 17.710938 12.113281 17.710938 12.292969 17.605469 L 16.597656 15.121094 C 16.773438 15.019531 16.882812 14.832031 16.882812 14.625 L 16.890625 9.675781 C 16.890625 9.46875 16.78125 9.28125 16.605469 9.175781 L 12.3125 6.710938 C 12.226562 6.660156 12.128906 6.632812 12.027344 6.632812 Z M 12.003906 16.09375 C 11.902344 16.09375 11.804688 16.066406 11.71875 16.015625 L 11.292969 15.769531 L 11.292969 12.902344 L 12.703125 12.546875 L 12.703125 14.390625 L 14.195312 13.53125 L 14.195312 9.402344 L 15.203125 9.984375 C 15.378906 10.085938 15.488281 10.277344 15.488281 10.480469 L 15.488281 13.839844 C 15.488281 14.042969 15.378906 14.234375 15.199219 14.335938 L 12.292969 16.015625 C 12.203125 16.066406 12.105469 16.09375 12.003906 16.09375 Z M 9.800781 14.910156 L 8.808594 14.335938 C 8.632812 14.234375 8.523438 14.046875 8.523438 13.839844 L 8.523438 10.484375 C 8.523438 10.277344 8.632812 10.085938 8.8125 9.984375 L 11.71875 8.304688 C 11.898438 8.203125 12.117188 8.203125 12.292969 8.304688 L 12.703125 8.542969 L 12.703125 11.113281 L 11.292969 11.445312 L 11.292969 9.828125 L 9.800781 10.691406 Z M 9.800781 14.910156" fill="#ffffff"/>
</svg>
