<svg width="24" height="24" viewBox="0 0 24 24" fill="none" xmlns="http://www.w3.org/2000/svg">
<path d="M13.9948 8.40111C14.4316 7.9644 15.1428 7.9644 15.5795 8.40111C16.0163 8.83782 16.0163 9.54882 15.5795 9.98553C15.3265 10.2385 14.9803 10.353 14.6287 10.3024C14.6128 10.2998 14.5941 10.2998 14.5781 10.3024C14.4742 10.2891 14.365 10.3024 14.2612 10.3503C14.1147 10.4169 14.0108 10.5394 13.9602 10.6805C13.9096 10.819 13.9123 10.9761 13.9789 11.1173C14.3544 11.9294 14.1813 12.9014 13.5474 13.5352C12.9135 14.1689 11.9414 14.342 11.1291 13.9665C10.9826 13.9 10.8255 13.8973 10.6843 13.9506C10.5458 14.0012 10.4286 14.105 10.362 14.2488C10.3194 14.342 10.3034 14.4379 10.3088 14.5337C10.3061 14.5524 10.3061 14.571 10.3088 14.5897C10.3674 14.9465 10.2502 15.3113 9.9945 15.5669C9.5577 16.0037 8.84658 16.0037 8.40981 15.5669C8.19672 15.3539 8.08221 15.0743 8.08221 14.7734C8.08221 14.4752 8.19939 14.1929 8.40981 13.9799C8.66283 13.7269 9.00906 13.6124 9.36063 13.663C9.36594 13.663 9.37128 13.663 9.37926 13.663C9.41655 13.6709 9.45384 13.6763 9.4938 13.6763C9.57636 13.6763 9.65892 13.6603 9.73614 13.623C9.87996 13.5565 9.98118 13.4393 10.0345 13.3035C10.0877 13.1624 10.0877 13.0026 10.0185 12.8561C9.64293 12.0439 9.81606 11.072 10.4499 10.4382C11.0838 9.80445 12.0559 9.63138 12.8683 10.0068C13.0121 10.0734 13.1719 10.0761 13.3104 10.0255C13.4488 9.97488 13.5687 9.87102 13.6353 9.72723C13.6859 9.61539 13.6992 9.49557 13.6806 9.38106V9.37839C13.622 9.02157 13.7392 8.65674 13.9948 8.40111ZM12.8869 12.8747C13.3716 12.3901 13.3716 11.6046 12.8869 11.1199C12.4022 10.6353 11.6165 10.6353 11.1317 11.1199C10.647 11.6046 10.647 12.3901 11.1317 12.8747C11.6165 13.3594 12.4022 13.3594 12.8869 12.8747ZM12 4.5C16.1415 4.5 19.5 7.8579 19.5 11.9987C19.5 16.1394 16.1442 19.5 12 19.5C7.85583 19.5 4.5 16.1421 4.5 11.9987C4.5 7.85523 7.8585 4.5 12 4.5ZM15.9977 10.4036C16.6609 9.74055 16.6609 8.66739 15.9977 8.00436C15.3345 7.34129 14.2612 7.34129 13.598 8.00436C13.353 8.24934 13.1985 8.55291 13.1346 8.86977C11.9334 8.4171 10.5538 8.70468 9.63495 9.62337C8.71608 10.5421 8.42844 11.9214 8.88387 13.1251C8.56428 13.189 8.26065 13.3434 8.01297 13.5911C7.34979 14.2541 7.34979 15.3273 8.01297 15.9903C8.67615 16.6534 9.74946 16.6534 10.4126 15.9903C10.6603 15.7427 10.8175 15.4338 10.8787 15.1142C11.2516 15.2527 11.6404 15.3219 12.0266 15.3219C12.8869 15.3219 13.7365 14.9891 14.3677 14.358C15.2812 13.4446 15.5716 12.0732 15.1268 10.8723C15.4437 10.8057 15.75 10.6513 15.9977 10.4036Z" fill="#474DFF"/>
</svg>
