<svg width="24" height="24" viewBox="0 0 24 24" fill="none" xmlns="http://www.w3.org/2000/svg">
<path d="M15.4562 6.09292C16.126 5.4233 17.2163 5.4233 17.8861 6.09292C18.5559 6.76255 18.5559 7.85271 17.8861 8.52234C17.4981 8.91026 16.9672 9.08581 16.4282 9.00825C16.4037 9.00417 16.3751 9.00417 16.3506 9.00825C16.1913 8.98781 16.0239 9.00825 15.8646 9.08172C15.64 9.1838 15.4807 9.37162 15.4031 9.58805C15.3256 9.80036 15.3296 10.0412 15.4317 10.2577C16.0076 11.503 15.7421 12.9933 14.7702 13.9651C13.7982 14.9369 12.3076 15.2023 11.0621 14.6266C10.8374 14.5245 10.5965 14.5204 10.3801 14.602C10.1677 14.6796 9.988 14.8389 9.88593 15.0594C9.82059 15.2023 9.79606 15.3493 9.80426 15.4963C9.80015 15.5248 9.80015 15.5534 9.80426 15.582C9.89409 16.1292 9.7144 16.6885 9.32236 17.0805C8.65261 17.7501 7.56225 17.7501 6.89249 17.0805C6.56579 16.7538 6.39018 16.3251 6.39018 15.8637C6.39018 15.4064 6.56988 14.9736 6.89249 14.647C7.28045 14.2591 7.81136 14.0835 8.3504 14.1611C8.35856 14.1611 8.36676 14.1611 8.379 14.1611C8.43618 14.1733 8.49336 14.1815 8.55458 14.1815C8.68121 14.1815 8.80781 14.157 8.92621 14.0998C9.14675 13.9978 9.30192 13.8181 9.38362 13.6099C9.46529 13.3935 9.46529 13.1485 9.3591 12.9239C8.78329 11.6786 9.04873 10.1883 10.0207 9.21649C10.9926 8.24472 12.4832 7.97931 13.7288 8.55502C13.9493 8.6571 14.1943 8.66118 14.4067 8.5836C14.6191 8.50601 14.8028 8.34679 14.9049 8.12629C14.9825 7.95482 15.0029 7.77108 14.9743 7.5955V7.59142C14.8845 7.04428 15.0642 6.48489 15.4562 6.09292ZM13.7574 12.9525C14.5006 12.2094 14.5006 11.0049 13.7574 10.2618C13.0141 9.51863 11.8094 9.51863 11.0662 10.2618C10.3229 11.0049 10.3229 12.2094 11.0662 12.9525C11.8094 13.6956 13.0141 13.6956 13.7574 12.9525ZM12.3975 0.111206C18.7478 0.111206 23.8975 5.25997 23.8975 11.6092C23.8975 17.9584 18.7519 23.1112 12.3975 23.1112C6.04305 23.1112 0.897461 17.9624 0.897461 11.6092C0.897461 5.25588 6.04713 0.111206 12.3975 0.111206ZM18.5273 9.16339C19.5441 8.14673 19.5441 6.50122 18.5273 5.48456C17.5104 4.46786 15.8646 4.46786 14.8477 5.48456C14.472 5.86017 14.2352 6.32564 14.1372 6.81156C12.2954 6.11741 10.18 6.5584 8.77104 7.96707C7.36211 9.3757 6.92106 11.4908 7.61942 13.3363C7.12936 13.4343 6.66379 13.6711 6.284 14.0509C5.26714 15.0675 5.26714 16.713 6.284 17.7297C7.30086 18.7464 8.94665 18.7464 9.96351 17.7297C10.3433 17.35 10.5843 16.8763 10.6782 16.3864C11.2499 16.5987 11.8461 16.7049 12.4383 16.7049C13.7574 16.7049 15.0601 16.1945 16.028 15.2268C17.4287 13.8263 17.8739 11.7235 17.1919 9.88203C17.6778 9.77995 18.1475 9.54312 18.5273 9.16339Z" fill="white"/>
</svg>
