<svg width="24" height="24" viewBox="0 0 24 24" fill="none">
<path fill="#F1B32B" d="M 11.801902 1.125 C 14.136433 1.124744 16.418636 1.784327 18.359842 3.020336 C 20.301048 4.256344 21.814112 6.013275 22.707699 8.068912 C 23.601246 10.124551 23.835188 12.386587 23.379934 14.568975 C 22.924643 16.751326 21.800617 18.756001 20.149929 20.3295 C 18.499279 21.902964 16.396132 22.974562 14.106492 23.408737 C 11.816853 23.842913 9.443528 23.620201 7.286675 22.768763 C 5.129823 21.917326 3.286328 20.475376 1.989305 18.625313 C 0.692286 16.775211 0 14.600101 0 12.375 C 0.003244 9.392475 1.247654 6.532988 3.460202 4.423923 C 5.672734 2.314846 8.672734 1.128437 11.801902 1.125 Z M 11.801902 3.405897 C 9.940681 3.405897 8.121285 3.931959 6.573757 4.917562 C 5.026229 5.903137 3.820084 7.304026 3.10789 8.942963 C 2.395692 10.581937 2.209416 12.385388 2.572623 14.125276 C 2.93583 15.865125 3.832198 17.463263 5.148393 18.717564 C 6.464538 19.971863 8.14143 20.826 9.966925 21.171938 C 11.79238 21.517838 13.684525 21.34005 15.403986 20.660999 C 17.123449 19.981949 18.593037 18.832163 19.626884 17.357025 C 20.660734 15.881887 21.212379 14.147663 21.212105 12.373687 C 21.212105 11.195926 20.968721 10.029675 20.495764 8.941575 C 20.022846 7.853476 19.329679 6.864788 18.455843 6.032063 C 17.582006 5.199301 16.544617 4.538755 15.402925 4.088156 C 14.261232 3.63756 13.037625 3.405725 11.801902 3.405897 Z M 15.887961 6.344963 C 16.019291 6.352987 16.147514 6.386625 16.264643 6.443813 C 16.381809 6.500963 16.485363 6.580425 16.568972 6.677288 L 16.586676 6.700651 L 18.357325 9.228226 C 18.423698 9.335738 18.463514 9.456301 18.473665 9.580725 C 18.483816 9.705113 18.464027 9.8301 18.415907 9.946126 L 18.402256 9.974662 L 14.756144 16.465538 L 17.990952 14.831139 L 18.018177 14.818162 C 18.245625 14.7195 18.335527 14.8065 18.225206 15.019388 L 18.225206 15.032363 L 18.218399 15.046651 L 17.161455 16.929001 L 17.147842 16.951088 C 16.975082 17.216999 16.734766 17.437126 16.449129 17.591063 L 14.073758 18.812662 L 14.073758 18.821737 L 11.801902 19.904438 L 11.763777 19.88625 L 9.534138 18.823051 L 9.534138 18.813938 L 7.157429 17.592375 C 6.872341 17.437687 6.632184 17.217751 6.458714 16.952362 L 6.451908 16.940701 L 6.451908 16.930313 L 5.394964 15.047925 C 5.389456 15.039113 5.384459 15.030038 5.379974 15.0207 C 5.271029 14.807775 5.359554 14.720813 5.587003 14.819475 L 5.600616 14.819475 L 5.614269 14.819475 L 8.85179 16.455151 L 5.204302 9.964275 C 5.151462 9.850238 5.126479 9.726262 5.1312 9.601687 C 5.135921 9.47715 5.170229 9.355201 5.231528 9.245101 L 5.249233 9.217838 L 7.004892 6.707174 C 7.085665 6.606976 7.187213 6.523726 7.3032 6.462524 C 7.419187 6.401363 7.547135 6.363525 7.679095 6.35145 L 15.890715 6.35145 L 15.887961 6.344963 Z M 14.934569 9.039974 L 8.669272 9.039974 C 7.970557 9.039974 7.658636 9.498224 7.965089 10.061663 L 7.980079 10.0902 L 11.199895 15.694425 C 11.52543 16.261726 12.05524 16.270838 12.388957 15.723001 L 12.406662 15.694425 L 15.625101 10.0902 C 15.956066 9.512512 15.645522 9.043876 14.935908 9.043876 L 14.934569 9.039974 Z"/>
</svg>