<svg viewBox="0 0 1.24 1.24" width="24" height="24" fill="#fff" style="padding: 2px"><path d="M.939.299C.87.299.794.337.714.411a.985.985 0 0 0-.095.103S.658.559.7.607C.723.578.756.539.794.503.865.437.911.423.938.423c.1 0 .18.084.18.187a.185.185 0 0 1-.18.187L.921.795c.029.013.06.023.09.023.182 0 .218-.126.221-.135A.338.338 0 0 0 1.24.611.306.306 0 0 0 .939.3zM.301.941C.37.941.446.903.526.829A.985.985 0 0 0 .621.726S.582.681.54.633a1.013 1.013 0 0 1-.094.104C.375.803.328.817.302.817c-.1 0-.18-.084-.18-.187 0-.102.081-.186.18-.187l.017.002a.226.226 0 0 0-.09-.023C.046.422.01.548.008.557A.355.355 0 0 0 0 .63c0 .172.135.311.301.311zM.44.516C.42.496.323.417.229.414.063.41.014.531.009.547A.306.306 0 0 1 .301.309c.115 0 .232.113.318.215S.658.569.7.617c0 0 .048.057.1.107.02.019.117.098.211.1.171.005.218-.123.221-.133A.304.304 0 0 1 .94.93C.825.93.708.817.622.715v.001L.541.623S.493.566.441.516zM.009.548V.547v.001z"/></svg>