<svg width="24" height="24" viewBox="0 0 24 24" fill="none">
<path d="M10.0845 9.21526C9.51452 9.21526 9.05327 8.76451 9.05327 8.20876C9.05327 7.65301 9.51452 7.20151 10.0845 7.20151C10.6538 7.20151 11.1158 7.65226 11.1158 8.20876C11.1158 8.76526 10.6538 9.21526 10.0845 9.21526ZM13.0298 8.06476C12.4605 8.06476 11.9985 7.61401 11.9985 7.05826C11.9985 6.50176 12.4605 6.05101 13.0298 6.05101C13.5998 6.05101 14.061 6.50176 14.061 7.05826C14.061 7.61401 13.5998 8.06476 13.0298 8.06476ZM14.2095 14.9685C13.6395 14.9685 13.1783 14.5185 13.1783 13.962C13.1783 13.4055 13.6395 12.9548 14.2095 12.9548C14.7788 12.9548 15.2408 13.4055 15.2408 13.962C15.2408 14.5185 14.7788 14.9685 14.2095 14.9685ZM4.33952 13.53C4.26302 13.531 4.18709 13.5169 4.11605 13.4885C4.04501 13.4601 3.98026 13.418 3.92551 13.3646C3.87076 13.3112 3.82708 13.2475 3.79696 13.1771C3.76685 13.1068 3.7509 13.0313 3.75002 12.9548C3.75002 12.6375 4.01402 12.3795 4.33877 12.3795C4.66352 12.3795 4.92827 12.6375 4.92827 12.9548C4.92739 13.0313 4.91143 13.1068 4.88132 13.1771C4.85121 13.2475 4.80753 13.3112 4.75278 13.3646C4.69803 13.418 4.63328 13.4601 4.56224 13.4885C4.4912 13.5169 4.41526 13.531 4.33877 13.53H4.33952ZM5.95952 17.271C5.9021 17.2717 5.8451 17.2611 5.79178 17.2397C5.73847 17.2184 5.68988 17.1868 5.64879 17.1467C5.6077 17.1065 5.57491 17.0587 5.5523 17.0059C5.52969 16.9532 5.5177 16.8964 5.51702 16.839C5.51702 16.6005 5.71502 16.4078 5.95952 16.4078C6.20402 16.4078 6.40202 16.6005 6.40202 16.839C6.40133 16.8964 6.38934 16.9532 6.36673 17.0059C6.34412 17.0587 6.31134 17.1065 6.27025 17.1467C6.22916 17.1868 6.18057 17.2184 6.12725 17.2397C6.07393 17.2611 6.01694 17.2717 5.95952 17.271ZM10.6733 20.1473C10.4288 20.1473 10.2308 19.9538 10.2308 19.7153C10.2308 19.4768 10.4288 19.284 10.6733 19.284C10.9178 19.284 11.1158 19.4768 11.1158 19.7153C11.1158 19.9538 10.9178 20.1473 10.6733 20.1473ZM18.3345 17.5583C18.09 17.5583 17.892 17.3648 17.892 17.1263C17.892 16.8878 18.09 16.6943 18.3345 16.6943C18.5783 16.6943 18.777 16.8878 18.777 17.1263C18.777 17.3648 18.5783 17.5583 18.3345 17.5583ZM13.62 16.6958C13.5626 16.6964 13.5056 16.6858 13.4523 16.6645C13.399 16.6432 13.3504 16.6115 13.3093 16.5714C13.2682 16.5313 13.2354 16.4835 13.2128 16.4307C13.1902 16.3779 13.1782 16.3212 13.1775 16.2638C13.1775 16.0253 13.3763 15.8325 13.62 15.8325C13.8638 15.8325 14.0625 16.0253 14.0625 16.2638C14.0618 16.3212 14.0498 16.3779 14.0272 16.4307C14.0046 16.4835 13.9718 16.5313 13.9307 16.5714C13.8897 16.6115 13.8411 16.6432 13.7878 16.6645C13.7344 16.6858 13.6774 16.6964 13.62 16.6958ZM16.272 14.682C16.0275 14.682 15.8295 14.4885 15.8295 14.25C15.8295 14.0115 16.0275 13.8188 16.272 13.8188C16.5158 13.8188 16.7145 14.0115 16.7145 14.25C16.7145 14.4885 16.5158 14.682 16.272 14.682ZM13.1783 20.1473C12.8528 20.1473 12.5888 19.8893 12.5888 19.572C12.5888 19.2548 12.8528 18.9968 13.1783 18.9968C13.503 18.9968 13.767 19.254 13.767 19.572C13.767 19.89 13.503 20.1473 13.1783 20.1473ZM15.8295 12.9548C15.7531 12.9556 15.6772 12.9415 15.6063 12.913C15.5353 12.8846 15.4707 12.8425 15.416 12.7891C15.3613 12.7357 15.3177 12.672 15.2876 12.6017C15.2576 12.5314 15.2416 12.4559 15.2408 12.3795C15.2408 12.0623 15.504 11.8043 15.8295 11.8043C16.155 11.8043 16.4183 12.0623 16.4183 12.3795C16.4174 12.4559 16.4015 12.5314 16.3714 12.6017C16.3413 12.672 16.2977 12.7357 16.243 12.7891C16.1884 12.8425 16.1237 12.8846 16.0528 12.913C15.9818 12.9415 15.9059 12.9556 15.8295 12.9548ZM16.7145 18.7088C16.638 18.7097 16.5621 18.6956 16.491 18.6673C16.42 18.6389 16.3553 18.5968 16.3005 18.5433C16.2458 18.4899 16.2021 18.4262 16.172 18.3559C16.1419 18.2856 16.1259 18.21 16.125 18.1335C16.125 17.8155 16.389 17.5583 16.7138 17.5583C17.0393 17.5583 17.3033 17.8155 17.3033 18.1335C17.3024 18.21 17.2864 18.2856 17.2563 18.3559C17.2262 18.4262 17.1825 18.4899 17.1278 18.5433C17.073 18.5968 17.0083 18.6389 16.9372 18.6673C16.8662 18.6956 16.7903 18.7097 16.7138 18.7088H16.7145ZM5.07377 15.8325C4.66727 15.8325 4.33727 15.51 4.33727 15.1133C4.33727 14.7165 4.66727 14.3948 5.07377 14.3948C5.48027 14.3948 5.81027 14.7173 5.81027 15.1133C5.81027 15.5093 5.48027 15.8325 5.07377 15.8325ZM12.1463 18.7088C11.5763 18.7088 11.115 18.258 11.115 17.7015C11.115 17.145 11.5763 16.6943 12.1463 16.6943C12.7155 16.6943 13.1775 17.1458 13.1775 17.7015C13.1775 18.2573 12.7155 18.7088 12.1463 18.7088ZM6.54752 13.8188C5.97752 13.8188 5.51627 13.3673 5.51627 12.8115C5.51627 12.2558 5.97752 11.8043 6.54752 11.8043C7.11752 11.8043 7.57877 12.255 7.57877 12.8115C7.57877 13.368 7.11677 13.8188 6.54752 13.8188ZM12.1463 16.119C11.739 16.119 11.409 15.7973 11.409 15.4005C11.409 15.0038 11.739 14.682 12.1463 14.682C12.5528 14.682 12.8828 15.0038 12.8828 15.4005C12.8828 15.7973 12.5528 16.119 12.1463 16.119ZM8.61002 9.79201C8.36552 9.79201 8.16752 9.59851 8.16752 9.36001C8.16752 9.12151 8.36552 8.92801 8.61002 8.92801C8.85452 8.92801 9.05252 9.12151 9.05252 9.36001C9.05252 9.59851 8.85452 9.79201 8.61002 9.79201ZM11.409 11.517C10.9215 11.517 10.5255 11.1308 10.5255 10.6545C10.5255 10.1775 10.9215 9.79051 11.409 9.79051C11.8965 9.79051 12.2925 10.1775 12.2925 10.6538C12.2925 11.1308 11.8973 11.5178 11.409 11.5178V11.517ZM13.4715 12.3795C13.3951 12.3804 13.3192 12.3662 13.2483 12.3378C13.1773 12.3094 13.1127 12.2672 13.058 12.2138C13.0033 12.1604 12.9597 12.0967 12.9296 12.0265C12.8996 11.9562 12.8836 11.8807 12.8828 11.8043C12.8828 11.487 13.146 11.229 13.4715 11.229C13.797 11.229 14.0603 11.487 14.0603 11.8043C14.0594 11.8807 14.0435 11.9562 14.0134 12.0265C13.9833 12.0967 13.9397 12.1604 13.885 12.2138C13.8304 12.2672 13.7657 12.3094 13.6948 12.3378C13.6238 12.3662 13.5479 12.3804 13.4715 12.3795ZM14.5028 5.18851C14.2583 5.18851 14.0603 4.99576 14.0603 4.75726C14.0603 4.51876 14.2583 4.32526 14.5028 4.32526C14.7473 4.32526 14.9453 4.51876 14.9453 4.75726C14.9453 4.99576 14.7473 5.18851 14.5028 5.18851ZM12.4403 5.18775C12.3447 5.18894 12.2498 5.17128 12.161 5.13576C12.0722 5.10025 11.9913 5.04759 11.9229 4.98079C11.8545 4.91399 11.8 4.83436 11.7624 4.74646C11.7248 4.65856 11.7048 4.56411 11.7038 4.46851C11.7049 4.37297 11.7249 4.27859 11.7626 4.19078C11.8002 4.10296 11.8548 4.02342 11.9232 3.9567C11.9916 3.88998 12.0725 3.83739 12.1612 3.80192C12.2499 3.76646 12.3447 3.74882 12.4403 3.75001C12.5359 3.74872 12.6308 3.76629 12.7196 3.80171C12.8084 3.83713 12.8894 3.88971 12.9578 3.95644C13.0263 4.02317 13.0809 4.10274 13.1186 4.1906C13.1563 4.27847 13.1763 4.3729 13.1775 4.46851C13.1764 4.56417 13.1565 4.65869 13.1189 4.74664C13.0812 4.83459 13.0266 4.91425 12.9581 4.98106C12.8896 5.04787 12.8086 5.10051 12.7198 5.13598C12.6309 5.17145 12.5359 5.18904 12.4403 5.18775ZM12.8828 9.79051C12.5573 9.79051 12.294 9.53326 12.294 9.21526C12.294 8.89726 12.5573 8.64001 12.8828 8.64001C13.2083 8.64001 13.4715 8.89801 13.4715 9.21526C13.4715 9.53251 13.2083 9.79051 12.8828 9.79051ZM7.28402 16.1205C6.79652 16.1205 6.40052 15.7343 6.40052 15.2573C6.40052 14.7803 6.79652 14.394 7.28402 14.394C7.77152 14.394 8.16752 14.7803 8.16752 15.2565C8.16752 15.7343 7.77227 16.1205 7.28402 16.1205ZM15.8288 16.983C15.3413 16.983 14.9453 16.596 14.9453 16.119C14.9453 15.6428 15.3405 15.2565 15.8288 15.2565C16.317 15.2565 16.7123 15.6428 16.7123 16.119C16.7123 16.596 16.3163 16.983 15.8288 16.983ZM14.6513 18.9968C14.163 18.9968 13.767 18.6098 13.767 18.1335C13.767 17.6565 14.163 17.2695 14.6505 17.2695C15.138 17.2695 15.534 17.6565 15.534 18.1335C15.534 18.6098 15.1388 18.996 14.6505 18.996L14.6513 18.9968ZM7.72652 18.9968C7.15652 18.9968 6.69527 18.546 6.69527 17.9895C6.69527 17.433 7.15727 16.983 7.72652 16.983C8.29577 16.983 8.75777 17.433 8.75777 17.9895C8.75777 18.546 8.29577 18.9968 7.72652 18.9968ZM4.63277 11.5178C4.14527 11.5178 3.74927 11.1308 3.74927 10.6538C3.74927 10.1775 4.14452 9.79126 4.63277 9.79126C5.12102 9.79126 5.51627 10.1775 5.51627 10.6538C5.51627 11.1308 5.12027 11.5178 4.63277 11.5178Z" fill="white"/>
<path opacity="0.5" d="M9.05253 12.9548C8.40153 12.9548 7.87353 12.4403 7.87353 11.8043C7.87353 11.169 8.40153 10.6538 9.05328 10.6538C9.70503 10.6538 10.2323 11.169 10.2323 11.8043C10.2323 12.4403 9.70428 12.9548 9.05328 12.9548H9.05253ZM15.24 11.2298C14.589 11.2298 14.061 10.7145 14.061 10.0785C14.061 9.44325 14.589 8.92801 15.2408 8.92801C15.8918 8.92801 16.4198 9.44325 16.4198 10.0785C16.4198 10.7145 15.8918 11.229 15.2408 11.229L15.24 11.2298ZM18.4808 16.1205C17.9933 16.1205 17.5973 15.7343 17.5973 15.2573C17.5973 14.7803 17.9933 14.394 18.4808 14.394C18.9683 14.394 19.3643 14.7803 19.3643 15.2565C19.3643 15.7343 18.969 16.1205 18.4808 16.1205ZM19.3658 12.6683C19.251 12.6695 19.1372 12.6482 19.0307 12.6055C18.9242 12.5628 18.8271 12.4995 18.7451 12.4192C18.663 12.339 18.5976 12.2434 18.5525 12.1379C18.5074 12.0324 18.4836 11.919 18.4823 11.8043C18.4823 11.328 18.8775 10.9418 19.3658 10.9418C19.8533 10.9418 20.2485 11.328 20.2485 11.8043C20.2485 12.2813 19.8533 12.6683 19.3658 12.6683ZM15.9773 8.64076C15.8816 8.64194 15.7867 8.62425 15.6978 8.58869C15.609 8.55313 15.5281 8.5004 15.4597 8.43353C15.3913 8.36665 15.3367 8.28693 15.2992 8.19894C15.2616 8.11095 15.2418 8.01642 15.2408 7.92076C15.242 7.82522 15.2619 7.73084 15.2996 7.64303C15.3372 7.55521 15.3918 7.47567 15.4602 7.40895C15.5286 7.34223 15.6095 7.28964 15.6982 7.25417C15.7869 7.21871 15.8817 7.20107 15.9773 7.20226C16.0729 7.20107 16.1678 7.21873 16.2565 7.25425C16.3453 7.28976 16.4262 7.34242 16.4946 7.40922C16.563 7.47602 16.6176 7.55565 16.6552 7.64355C16.6928 7.73145 16.7127 7.8259 16.7138 7.92151C16.7126 8.01704 16.6926 8.11142 16.655 8.19923C16.6173 8.28705 16.5627 8.36659 16.4944 8.43331C16.426 8.50003 16.3451 8.55262 16.2564 8.58809C16.1677 8.62355 16.0728 8.64119 15.9773 8.64001V8.64076ZM16.1235 6.339C15.7988 6.339 15.5348 6.08176 15.5348 5.76376C15.5348 5.44576 15.7988 5.18851 16.1235 5.18851C16.449 5.18851 16.713 5.44651 16.713 5.76376C16.713 6.08101 16.449 6.339 16.1235 6.339ZM17.4495 6.91426C17.205 6.91426 17.007 6.72076 17.007 6.48301C17.007 6.24526 17.205 6.05101 17.4495 6.05101C17.694 6.05101 17.892 6.24451 17.892 6.48301C17.892 6.72151 17.694 6.91426 17.4495 6.91426ZM19.8075 10.3673C19.5638 10.3673 19.365 10.1738 19.365 9.93526C19.365 9.69675 19.5638 9.50325 19.8075 9.50325C20.0513 9.50325 20.25 9.69675 20.25 9.93526C20.25 10.1738 20.052 10.3673 19.8075 10.3673ZM7.13703 6.62701C6.89253 6.62701 6.69453 6.43426 6.69453 6.19576C6.69453 5.95726 6.89253 5.76376 7.13703 5.76376C7.38153 5.76376 7.57953 5.95726 7.57953 6.19576C7.57953 6.43426 7.38153 6.62701 7.13703 6.62701ZM6.54828 10.3673C6.30378 10.3673 6.10578 10.1738 6.10578 9.93526C6.10578 9.69675 6.30378 9.50325 6.54828 9.50325C6.79278 9.50325 6.99078 9.69675 6.99078 9.93526C6.99078 10.1738 6.79278 10.3673 6.54828 10.3673ZM7.72728 10.9425C7.48278 10.9425 7.28478 10.749 7.28478 10.5105C7.28478 10.272 7.48278 10.0785 7.72728 10.0785C7.97178 10.0785 8.16978 10.272 8.16978 10.5105C8.16978 10.749 7.97178 10.9425 7.72728 10.9425ZM9.19953 5.47501C8.95503 5.47501 8.75703 5.28151 8.75703 5.04301C8.75703 4.80451 8.95503 4.61176 9.19953 4.61176C9.44403 4.61176 9.64203 4.80451 9.64203 5.04301C9.64203 5.28151 9.44403 5.47501 9.19953 5.47501ZM19.8075 14.1068C19.5638 14.1068 19.365 13.9133 19.365 13.6748C19.365 13.4363 19.5638 13.2435 19.8075 13.2435C20.0513 13.2435 20.25 13.4363 20.25 13.6748C20.25 13.9133 20.052 14.1068 19.8075 14.1068ZM18.3345 9.50325C17.7645 9.50325 17.3033 9.05326 17.3033 8.49676C17.3033 7.94026 17.7645 7.48951 18.3345 7.48951C18.9038 7.48951 19.3658 7.94026 19.3658 8.49676C19.3658 9.05251 18.9038 9.50325 18.3345 9.50325ZM17.4495 11.8043C17.354 11.8054 17.2592 11.7878 17.1704 11.7523C17.0817 11.7169 17.0009 11.6643 16.9325 11.5976C16.8641 11.5308 16.8095 11.4513 16.7718 11.3635C16.7342 11.2757 16.7142 11.1813 16.713 11.0858C16.713 10.6883 17.043 10.3673 17.4495 10.3673C17.5451 10.3661 17.6399 10.3837 17.7286 10.4192C17.8173 10.4546 17.8982 10.5072 17.9666 10.574C18.035 10.6407 18.0896 10.7202 18.1272 10.808C18.1649 10.8958 18.1849 10.9902 18.186 11.0858C18.1849 11.1813 18.1649 11.2757 18.1272 11.3635C18.0896 11.4513 18.035 11.5308 17.9666 11.5976C17.8982 11.6643 17.8173 11.7169 17.7286 11.7523C17.6399 11.7878 17.5451 11.8054 17.4495 11.8043ZM7.43253 8.64001C7.33699 8.64119 7.24216 8.62355 7.15344 8.58809C7.06472 8.55262 6.98385 8.50003 6.91546 8.43331C6.84707 8.36659 6.79249 8.28705 6.75484 8.19923C6.71719 8.11142 6.69721 8.01704 6.69603 7.92151C6.69603 7.52401 7.02603 7.20226 7.43253 7.20226C7.83903 7.20226 8.16978 7.52476 8.16978 7.92151C8.16861 8.01711 8.1486 8.11154 8.11091 8.19941C8.07321 8.28727 8.01856 8.36684 7.95009 8.43357C7.88162 8.5003 7.80067 8.55288 7.71186 8.5883C7.62305 8.62372 7.52813 8.64129 7.43253 8.64001ZM10.6725 6.62626C10.577 6.62744 10.4822 6.6098 10.3934 6.57434C10.3047 6.53887 10.2239 6.48628 10.1555 6.41956C10.0871 6.35284 10.0325 6.2733 9.99484 6.18548C9.95719 6.09767 9.93721 6.00329 9.93603 5.90776C9.93603 5.51026 10.266 5.18851 10.6733 5.18851C11.0805 5.18851 11.4098 5.51101 11.4098 5.90776C11.4086 6.00329 11.3886 6.09767 11.351 6.18548C11.3133 6.2733 11.2587 6.35284 11.1904 6.41956C11.122 6.48628 11.0411 6.53887 10.9524 6.57434C10.8637 6.6098 10.7688 6.62744 10.6733 6.62626H10.6725ZM8.75853 6.91426C8.43303 6.91426 8.16978 6.65701 8.16978 6.339C8.16978 6.02101 8.43303 5.76376 8.75853 5.76376C9.08403 5.76376 9.34728 6.02175 9.34728 6.339C9.34728 6.65626 9.08403 6.91426 8.75853 6.91426ZM5.51703 9.21525C5.4406 9.21615 5.36475 9.20197 5.29379 9.17355C5.22284 9.14512 5.15818 9.10299 5.10351 9.04958C5.04884 8.99616 5.00522 8.93249 4.97516 8.86222C4.94509 8.79194 4.92916 8.71644 4.92828 8.64001C4.92828 8.32276 5.19153 8.06476 5.51703 8.06476C5.84253 8.06476 6.10578 8.32276 6.10578 8.64001C6.1049 8.71644 6.08897 8.79194 6.05891 8.86222C6.02884 8.93249 5.98523 8.99616 5.93056 9.04958C5.87589 9.10299 5.81123 9.14512 5.74028 9.17355C5.66932 9.20197 5.59346 9.21615 5.51703 9.21525ZM17.892 13.8188C17.8156 13.8196 17.7397 13.8055 17.6688 13.777C17.5978 13.7486 17.5332 13.7065 17.4785 13.6531C17.4238 13.5997 17.3802 13.536 17.3502 13.4657C17.3201 13.3954 17.3042 13.3199 17.3033 13.2435C17.3033 12.9255 17.5665 12.6683 17.892 12.6683C18.2175 12.6683 18.4808 12.9255 18.4808 13.2435C18.4799 13.3199 18.464 13.3954 18.4339 13.4657C18.4038 13.536 18.3602 13.5997 18.3056 13.6531C18.2509 13.7065 18.1862 13.7486 18.1153 13.777C18.0443 13.8055 17.9685 13.8196 17.892 13.8188ZM11.5575 14.1068C10.9875 14.1068 10.5263 13.656 10.5263 13.0995C10.5263 12.543 10.9883 12.093 11.5575 12.093C12.1275 12.093 12.5888 12.543 12.5888 13.0995C12.5888 13.656 12.1275 14.1068 11.5575 14.1068ZM9.64203 14.682C9.5656 14.6829 9.48974 14.6687 9.41879 14.6403C9.34784 14.6119 9.28318 14.5697 9.22851 14.5163C9.17384 14.4629 9.13022 14.3992 9.10016 14.329C9.07009 14.2587 9.05416 14.1832 9.05328 14.1068C9.05328 13.7888 9.31653 13.5315 9.64203 13.5315C9.96753 13.5315 10.2308 13.7888 10.2308 14.1068C10.2299 14.1832 10.214 14.2587 10.1839 14.329C10.1538 14.3992 10.1102 14.4629 10.0556 14.5163C10.0009 14.5697 9.93623 14.6119 9.86527 14.6403C9.79432 14.6687 9.71846 14.6829 9.64203 14.682ZM9.93603 16.983C9.44853 16.983 9.05328 16.596 9.05328 16.119C9.05328 15.6428 9.44853 15.2565 9.93603 15.2565C10.4235 15.2565 10.8195 15.6428 10.8195 16.119C10.8195 16.596 10.4243 16.983 9.93603 16.983ZM9.93603 18.708C9.7818 18.7098 9.63316 18.6503 9.52277 18.5426C9.41238 18.4349 9.34926 18.2877 9.34728 18.1335C9.34728 17.8155 9.61128 17.5583 9.93603 17.5583C10.2608 17.5583 10.5255 17.8155 10.5255 18.1335C10.5247 18.21 10.5087 18.2856 10.4786 18.3559C10.4485 18.4262 10.4048 18.4899 10.35 18.5433C10.2953 18.5968 10.2305 18.6389 10.1595 18.6673C10.0885 18.6956 10.0125 18.7097 9.93603 18.7088V18.708Z" fill="white"/>
<path d="M10.0849 9.26665C9.51488 9.26665 9.05363 8.8159 9.05363 8.26015C9.05363 7.7044 9.51488 7.2529 10.0849 7.2529C10.6541 7.2529 11.1161 7.70365 11.1161 8.26015C11.1161 8.81665 10.6541 9.26665 10.0849 9.26665ZM13.0301 8.11615C12.4609 8.11615 11.9989 7.6654 11.9989 7.10965C11.9989 6.55315 12.4609 6.1024 13.0301 6.1024C13.6001 6.1024 14.0614 6.55315 14.0614 7.10965C14.0614 7.6654 13.6001 8.11615 13.0301 8.11615ZM14.2099 15.0199C13.6399 15.0199 13.1786 14.5699 13.1786 14.0134C13.1786 13.4569 13.6399 13.0061 14.2099 13.0061C14.7791 13.0061 15.2411 13.4569 15.2411 14.0134C15.2411 14.5699 14.7791 15.0199 14.2099 15.0199ZM4.33988 13.5814C4.26339 13.5824 4.18745 13.5683 4.11641 13.5399C4.04537 13.5115 3.98063 13.4694 3.92587 13.416C3.87112 13.3626 3.82744 13.2989 3.79733 13.2285C3.76722 13.1582 3.75126 13.0826 3.75038 13.0061C3.75038 12.6889 4.01438 12.4309 4.33913 12.4309C4.66388 12.4309 4.92863 12.6889 4.92863 13.0061C4.92775 13.0826 4.9118 13.1582 4.88169 13.2285C4.85158 13.2989 4.80789 13.3626 4.75314 13.416C4.69839 13.4694 4.63364 13.5115 4.56261 13.5399C4.49157 13.5683 4.41563 13.5824 4.33913 13.5814H4.33988ZM5.95988 17.3224C5.90246 17.3231 5.84547 17.3125 5.79215 17.2911C5.73884 17.2698 5.69025 17.2382 5.64915 17.1981C5.60806 17.1579 5.57528 17.1101 5.55267 17.0573C5.53006 17.0045 5.51807 16.9478 5.51738 16.8904C5.51738 16.6519 5.71538 16.4591 5.95988 16.4591C6.20438 16.4591 6.40238 16.6519 6.40238 16.8904C6.4017 16.9478 6.38971 17.0045 6.3671 17.0573C6.34449 17.1101 6.3117 17.1579 6.27061 17.1981C6.22952 17.2382 6.18093 17.2698 6.12762 17.2911C6.0743 17.3125 6.01731 17.3231 5.95988 17.3224ZM10.6736 20.1986C10.4291 20.1986 10.2311 20.0051 10.2311 19.7666C10.2311 19.5281 10.4291 19.3354 10.6736 19.3354C10.9181 19.3354 11.1161 19.5281 11.1161 19.7666C11.1161 20.0051 10.9181 20.1986 10.6736 20.1986ZM18.3349 17.6096C18.0904 17.6096 17.8924 17.4161 17.8924 17.1776C17.8924 16.9391 18.0904 16.7456 18.3349 16.7456C18.5786 16.7456 18.7774 16.9391 18.7774 17.1776C18.7774 17.4161 18.5786 17.6096 18.3349 17.6096ZM13.6204 16.7471C13.563 16.7478 13.506 16.7372 13.4527 16.7159C13.3993 16.6945 13.3507 16.6629 13.3097 16.6228C13.2686 16.5827 13.2358 16.5349 13.2132 16.4821C13.1906 16.4293 13.1786 16.3726 13.1779 16.3151C13.1779 16.0766 13.3766 15.8839 13.6204 15.8839C13.8641 15.8839 14.0629 16.0766 14.0629 16.3151C14.0622 16.3726 14.0502 16.4293 14.0276 16.4821C14.005 16.5349 13.9722 16.5827 13.9311 16.6228C13.89 16.6629 13.8414 16.6945 13.7881 16.7159C13.7348 16.7372 13.6778 16.7478 13.6204 16.7471ZM16.2724 14.7334C16.0279 14.7334 15.8299 14.5399 15.8299 14.3014C15.8299 14.0629 16.0279 13.8701 16.2724 13.8701C16.5161 13.8701 16.7149 14.0629 16.7149 14.3014C16.7149 14.5399 16.5161 14.7334 16.2724 14.7334ZM13.1786 20.1986C12.8531 20.1986 12.5891 19.9406 12.5891 19.6234C12.5891 19.3061 12.8531 19.0481 13.1786 19.0481C13.5034 19.0481 13.7674 19.3054 13.7674 19.6234C13.7674 19.9414 13.5034 20.1986 13.1786 20.1986ZM15.8299 13.0061C15.7535 13.007 15.6776 12.9929 15.6066 12.9644C15.5357 12.936 15.471 12.8939 15.4164 12.8405C15.3617 12.787 15.3181 12.7234 15.288 12.6531C15.2579 12.5828 15.242 12.5073 15.2411 12.4309C15.2411 12.1136 15.5044 11.8556 15.8299 11.8556C16.1554 11.8556 16.4186 12.1136 16.4186 12.4309C16.4178 12.5073 16.4018 12.5828 16.3718 12.6531C16.3417 12.7234 16.2981 12.787 16.2434 12.8405C16.1887 12.8939 16.1241 12.936 16.0531 12.9644C15.9822 12.9929 15.9063 13.007 15.8299 13.0061ZM16.7149 18.7601C16.6384 18.7611 16.5625 18.747 16.4914 18.7187C16.4204 18.6903 16.3556 18.6482 16.3009 18.5947C16.2461 18.5413 16.2024 18.4776 16.1723 18.4073C16.1422 18.337 16.1263 18.2614 16.1254 18.1849C16.1254 17.8669 16.3894 17.6096 16.7141 17.6096C17.0396 17.6096 17.3036 17.8669 17.3036 18.1849C17.3028 18.2614 17.2868 18.337 17.2567 18.4073C17.2266 18.4776 17.1829 18.5413 17.1281 18.5947C17.0734 18.6482 17.0086 18.6903 16.9376 18.7187C16.8666 18.747 16.7906 18.7611 16.7141 18.7601H16.7149ZM5.07413 15.8839C4.66763 15.8839 4.33763 15.5614 4.33763 15.1646C4.33763 14.7679 4.66763 14.4461 5.07413 14.4461C5.48063 14.4461 5.81063 14.7686 5.81063 15.1646C5.81063 15.5606 5.48063 15.8839 5.07413 15.8839ZM12.1466 18.7601C11.5766 18.7601 11.1154 18.3094 11.1154 17.7529C11.1154 17.1964 11.5766 16.7456 12.1466 16.7456C12.7159 16.7456 13.1779 17.1971 13.1779 17.7529C13.1779 18.3086 12.7159 18.7601 12.1466 18.7601ZM6.54788 13.8701C5.97788 13.8701 5.51663 13.4186 5.51663 12.8629C5.51663 12.3071 5.97788 11.8556 6.54788 11.8556C7.11788 11.8556 7.57913 12.3064 7.57913 12.8629C7.57913 13.4194 7.11713 13.8701 6.54788 13.8701ZM12.1466 16.1704C11.7394 16.1704 11.4094 15.8486 11.4094 15.4519C11.4094 15.0551 11.7394 14.7334 12.1466 14.7334C12.5531 14.7334 12.8831 15.0551 12.8831 15.4519C12.8831 15.8486 12.5531 16.1704 12.1466 16.1704ZM8.61038 9.8434C8.36588 9.8434 8.16788 9.6499 8.16788 9.4114C8.16788 9.1729 8.36588 8.9794 8.61038 8.9794C8.85488 8.9794 9.05288 9.1729 9.05288 9.4114C9.05288 9.6499 8.85488 9.8434 8.61038 9.8434ZM11.4094 11.5684C10.9219 11.5684 10.5259 11.1821 10.5259 10.7059C10.5259 10.2289 10.9219 9.8419 11.4094 9.8419C11.8969 9.8419 12.2929 10.2289 12.2929 10.7051C12.2929 11.1821 11.8976 11.5691 11.4094 11.5691V11.5684ZM13.4719 12.4309C13.3955 12.4318 13.3196 12.4176 13.2486 12.3892C13.1777 12.3608 13.113 12.3186 13.0584 12.2652C13.0037 12.2118 12.9601 12.1481 12.93 12.0779C12.8999 12.0076 12.884 11.9321 12.8831 11.8556C12.8831 11.5384 13.1464 11.2804 13.4719 11.2804C13.7974 11.2804 14.0606 11.5384 14.0606 11.8556C14.0598 11.9321 14.0438 12.0076 14.0138 12.0779C13.9837 12.1481 13.9401 12.2118 13.8854 12.2652C13.8307 12.3186 13.7661 12.3608 13.6951 12.3892C13.6242 12.4176 13.5483 12.4318 13.4719 12.4309ZM14.5031 5.2399C14.2586 5.2399 14.0606 5.04715 14.0606 4.80865C14.0606 4.57015 14.2586 4.37665 14.5031 4.37665C14.7476 4.37665 14.9456 4.57015 14.9456 4.80865C14.9456 5.04715 14.7476 5.2399 14.5031 5.2399ZM12.4406 5.23915C12.345 5.24034 12.2501 5.22267 12.1614 5.18716C12.0726 5.15164 11.9917 5.09898 11.9233 5.03218C11.8549 4.96538 11.8003 4.88576 11.7627 4.79785C11.7251 4.70995 11.7052 4.6155 11.7041 4.5199C11.7053 4.42436 11.7253 4.32999 11.7629 4.24217C11.8006 4.15436 11.8552 4.07482 11.9236 4.0081C11.992 3.94138 12.0728 3.88878 12.1615 3.85332C12.2503 3.81785 12.3451 3.80021 12.4406 3.8014C12.5362 3.80011 12.6312 3.81768 12.72 3.8531C12.8088 3.88852 12.8897 3.9411 12.9582 4.00783C13.0267 4.07456 13.0813 4.15413 13.119 4.242C13.1567 4.32986 13.1767 4.42429 13.1779 4.5199C13.1768 4.61556 13.1569 4.71008 13.1192 4.79803C13.0816 4.88598 13.0269 4.96564 12.9585 5.03245C12.89 5.09926 12.809 5.15191 12.7201 5.18737C12.6313 5.22284 12.5363 5.24043 12.4406 5.23915ZM12.8831 9.8419C12.5576 9.8419 12.2944 9.58465 12.2944 9.26665C12.2944 8.94865 12.5576 8.6914 12.8831 8.6914C13.2086 8.6914 13.4719 8.9494 13.4719 9.26665C13.4719 9.5839 13.2086 9.8419 12.8831 9.8419ZM7.28438 16.1719C6.79688 16.1719 6.40088 15.7856 6.40088 15.3086C6.40088 14.8316 6.79688 14.4454 7.28438 14.4454C7.77188 14.4454 8.16788 14.8316 8.16788 15.3079C8.16788 15.7856 7.77263 16.1719 7.28438 16.1719ZM15.8291 17.0344C15.3416 17.0344 14.9456 16.6474 14.9456 16.1704C14.9456 15.6941 15.3409 15.3079 15.8291 15.3079C16.3174 15.3079 16.7126 15.6941 16.7126 16.1704C16.7126 16.6474 16.3166 17.0344 15.8291 17.0344ZM14.6516 19.0481C14.1634 19.0481 13.7674 18.6611 13.7674 18.1849C13.7674 17.7079 14.1634 17.3209 14.6509 17.3209C15.1384 17.3209 15.5344 17.7079 15.5344 18.1849C15.5344 18.6611 15.1391 19.0474 14.6509 19.0474L14.6516 19.0481ZM7.72688 19.0481C7.15688 19.0481 6.69563 18.5974 6.69563 18.0409C6.69563 17.4844 7.15763 17.0344 7.72688 17.0344C8.29613 17.0344 8.75813 17.4844 8.75813 18.0409C8.75813 18.5974 8.29613 19.0481 7.72688 19.0481ZM4.63313 11.5691C4.14563 11.5691 3.74963 11.1821 3.74963 10.7051C3.74963 10.2289 4.14488 9.84265 4.63313 9.84265C5.12138 9.84265 5.51663 10.2289 5.51663 10.7051C5.51663 11.1821 5.12063 11.5691 4.63313 11.5691Z" fill="#B2A3F6"/>
<path opacity="0.5" d="M9.0529 13.0061C8.4019 13.0061 7.8739 12.4916 7.8739 11.8556C7.8739 11.2204 8.4019 10.7051 9.05365 10.7051C9.7054 10.7051 10.2326 11.2204 10.2326 11.8556C10.2326 12.4916 9.70465 13.0061 9.05365 13.0061H9.0529ZM15.2404 11.2811C14.5894 11.2811 14.0614 10.7659 14.0614 10.1299C14.0614 9.49465 14.5894 8.9794 15.2411 8.9794C15.8921 8.9794 16.4201 9.49465 16.4201 10.1299C16.4201 10.7659 15.8921 11.2804 15.2411 11.2804L15.2404 11.2811ZM18.4811 16.1719C17.9936 16.1719 17.5976 15.7856 17.5976 15.3086C17.5976 14.8316 17.9936 14.4454 18.4811 14.4454C18.9686 14.4454 19.3646 14.8316 19.3646 15.3079C19.3646 15.7856 18.9694 16.1719 18.4811 16.1719ZM19.3661 12.7196C19.2514 12.7209 19.1375 12.6996 19.031 12.6569C18.9245 12.6142 18.8275 12.5509 18.7454 12.4706C18.6634 12.3904 18.598 12.2948 18.5529 12.1893C18.5078 12.0838 18.4839 11.9704 18.4826 11.8556C18.4826 11.3794 18.8779 10.9931 19.3661 10.9931C19.8536 10.9931 20.2489 11.3794 20.2489 11.8556C20.2489 12.3326 19.8536 12.7196 19.3661 12.7196ZM15.9776 8.69215C15.882 8.69334 15.787 8.67564 15.6982 8.64008C15.6094 8.60452 15.5285 8.5518 15.46 8.48492C15.3916 8.41804 15.3371 8.33832 15.2995 8.25033C15.262 8.16235 15.2421 8.06781 15.2411 7.97215C15.2423 7.87661 15.2623 7.78224 15.3 7.69442C15.3376 7.60661 15.3922 7.52707 15.4606 7.46035C15.529 7.39363 15.6098 7.34103 15.6986 7.30557C15.7873 7.2701 15.8821 7.25246 15.9776 7.25365C16.0732 7.25246 16.1681 7.27013 16.2569 7.30564C16.3457 7.34115 16.4266 7.39381 16.495 7.46061C16.5634 7.52741 16.6179 7.60704 16.6556 7.69494C16.6932 7.78284 16.7131 7.87729 16.7141 7.9729C16.713 8.06844 16.693 8.16281 16.6553 8.25062C16.6177 8.33844 16.5631 8.41798 16.4947 8.4847C16.4263 8.55142 16.3455 8.60401 16.2567 8.63948C16.168 8.67494 16.0732 8.69259 15.9776 8.6914V8.69215ZM16.1239 6.3904C15.7991 6.3904 15.5351 6.13315 15.5351 5.81515C15.5351 5.49715 15.7991 5.2399 16.1239 5.2399C16.4494 5.2399 16.7134 5.4979 16.7134 5.81515C16.7134 6.1324 16.4494 6.3904 16.1239 6.3904ZM17.4499 6.96565C17.2054 6.96565 17.0074 6.77215 17.0074 6.5344C17.0074 6.29665 17.2054 6.1024 17.4499 6.1024C17.6944 6.1024 17.8924 6.2959 17.8924 6.5344C17.8924 6.7729 17.6944 6.96565 17.4499 6.96565ZM19.8079 10.4186C19.5641 10.4186 19.3654 10.2251 19.3654 9.98665C19.3654 9.74815 19.5641 9.55465 19.8079 9.55465C20.0516 9.55465 20.2504 9.74815 20.2504 9.98665C20.2504 10.2251 20.0524 10.4186 19.8079 10.4186ZM7.1374 6.6784C6.8929 6.6784 6.6949 6.48565 6.6949 6.24715C6.6949 6.00865 6.8929 5.81515 7.1374 5.81515C7.3819 5.81515 7.5799 6.00865 7.5799 6.24715C7.5799 6.48565 7.3819 6.6784 7.1374 6.6784ZM6.54865 10.4186C6.30415 10.4186 6.10615 10.2251 6.10615 9.98665C6.10615 9.74815 6.30415 9.55465 6.54865 9.55465C6.79315 9.55465 6.99115 9.74815 6.99115 9.98665C6.99115 10.2251 6.79315 10.4186 6.54865 10.4186ZM7.72765 10.9939C7.48315 10.9939 7.28515 10.8004 7.28515 10.5619C7.28515 10.3234 7.48315 10.1299 7.72765 10.1299C7.97215 10.1299 8.17015 10.3234 8.17015 10.5619C8.17015 10.8004 7.97215 10.9939 7.72765 10.9939ZM9.1999 5.5264C8.9554 5.5264 8.7574 5.3329 8.7574 5.0944C8.7574 4.8559 8.9554 4.66315 9.1999 4.66315C9.4444 4.66315 9.6424 4.8559 9.6424 5.0944C9.6424 5.3329 9.4444 5.5264 9.1999 5.5264ZM19.8079 14.1581C19.5641 14.1581 19.3654 13.9646 19.3654 13.7261C19.3654 13.4876 19.5641 13.2949 19.8079 13.2949C20.0516 13.2949 20.2504 13.4876 20.2504 13.7261C20.2504 13.9646 20.0524 14.1581 19.8079 14.1581ZM18.3349 9.55465C17.7649 9.55465 17.3036 9.10465 17.3036 8.54815C17.3036 7.99165 17.7649 7.5409 18.3349 7.5409C18.9041 7.5409 19.3661 7.99165 19.3661 8.54815C19.3661 9.1039 18.9041 9.55465 18.3349 9.55465ZM17.4499 11.8556C17.3544 11.8568 17.2595 11.8392 17.1708 11.8037C17.0821 11.7683 17.0012 11.7157 16.9328 11.6489C16.8644 11.5822 16.8099 11.5027 16.7722 11.4149C16.7346 11.3271 16.7146 11.2327 16.7134 11.1371C16.7134 10.7396 17.0434 10.4186 17.4499 10.4186C17.5454 10.4175 17.6403 10.4351 17.729 10.4706C17.8177 10.506 17.8986 10.5586 17.967 10.6253C18.0354 10.6921 18.0899 10.7716 18.1276 10.8594C18.1652 10.9472 18.1852 11.0416 18.1864 11.1371C18.1852 11.2327 18.1652 11.3271 18.1276 11.4149C18.0899 11.5027 18.0354 11.5822 17.967 11.6489C17.8986 11.7157 17.8177 11.7683 17.729 11.8037C17.6403 11.8392 17.5454 11.8568 17.4499 11.8556ZM7.4329 8.6914C7.33736 8.69259 7.24252 8.67494 7.1538 8.63948C7.06508 8.60401 6.98422 8.55142 6.91583 8.4847C6.84744 8.41798 6.79286 8.33844 6.75521 8.25062C6.71756 8.16281 6.69757 8.06844 6.6964 7.9729C6.6964 7.5754 7.0264 7.25365 7.4329 7.25365C7.8394 7.25365 8.17015 7.57615 8.17015 7.9729C8.16897 8.0685 8.14897 8.16293 8.11127 8.2508C8.07357 8.33866 8.01893 8.41824 7.95046 8.48497C7.88199 8.5517 7.80103 8.60427 7.71223 8.6397C7.62342 8.67512 7.5285 8.69269 7.4329 8.6914ZM10.6729 6.67765C10.5774 6.67884 10.4825 6.66119 10.3938 6.62573C10.3051 6.59026 10.2242 6.53767 10.1558 6.47095C10.0874 6.40423 10.0329 6.32469 9.99521 6.23687C9.95756 6.14906 9.93757 6.05469 9.9364 5.95915C9.9364 5.56165 10.2664 5.2399 10.6736 5.2399C11.0809 5.2399 11.4101 5.5624 11.4101 5.95915C11.409 6.05469 11.389 6.14906 11.3513 6.23687C11.3137 6.32469 11.2591 6.40423 11.1907 6.47095C11.1223 6.53767 11.0415 6.59026 10.9527 6.62573C10.864 6.66119 10.7692 6.67884 10.6736 6.67765H10.6729ZM8.7589 6.96565C8.4334 6.96565 8.17015 6.7084 8.17015 6.3904C8.17015 6.0724 8.4334 5.81515 8.7589 5.81515C9.0844 5.81515 9.34765 6.07315 9.34765 6.3904C9.34765 6.70765 9.0844 6.96565 8.7589 6.96565ZM5.5174 9.26665C5.44097 9.26754 5.36511 9.25337 5.29416 9.22494C5.22321 9.19651 5.15855 9.15439 5.10388 9.10097C5.0492 9.04755 5.00559 8.98389 4.97552 8.91361C4.94546 8.84334 4.92953 8.76783 4.92865 8.6914C4.92865 8.37415 5.1919 8.11615 5.5174 8.11615C5.8429 8.11615 6.10615 8.37415 6.10615 8.6914C6.10527 8.76783 6.08934 8.84334 6.05927 8.91361C6.02921 8.98389 5.9856 9.04755 5.93092 9.10097C5.87625 9.15439 5.81159 9.19651 5.74064 9.22494C5.66969 9.25337 5.59383 9.26754 5.5174 9.26665ZM17.8924 13.8701C17.816 13.871 17.7401 13.8569 17.6692 13.8284C17.5982 13.8 17.5335 13.7579 17.4789 13.7045C17.4242 13.651 17.3806 13.5874 17.3505 13.5171C17.3205 13.4468 17.3045 13.3713 17.3036 13.2949C17.3036 12.9769 17.5669 12.7196 17.8924 12.7196C18.2179 12.7196 18.4811 12.9769 18.4811 13.2949C18.4803 13.3713 18.4643 13.4468 18.4343 13.5171C18.4042 13.5874 18.3606 13.651 18.3059 13.7045C18.2513 13.7579 18.1866 13.8 18.1156 13.8284C18.0447 13.8569 17.9688 13.871 17.8924 13.8701ZM11.5579 14.1581C10.9879 14.1581 10.5266 13.7074 10.5266 13.1509C10.5266 12.5944 10.9886 12.1444 11.5579 12.1444C12.1279 12.1444 12.5891 12.5944 12.5891 13.1509C12.5891 13.7074 12.1279 14.1581 11.5579 14.1581ZM9.6424 14.7334C9.56597 14.7343 9.49011 14.7201 9.41916 14.6917C9.3482 14.6633 9.28355 14.6211 9.22887 14.5677C9.1742 14.5143 9.13059 14.4506 9.10052 14.3804C9.07046 14.3101 9.05453 14.2346 9.05365 14.1581C9.05365 13.8401 9.3169 13.5829 9.6424 13.5829C9.9679 13.5829 10.2311 13.8401 10.2311 14.1581C10.2303 14.2346 10.2143 14.3101 10.1843 14.3804C10.1542 14.4506 10.1106 14.5143 10.0559 14.5677C10.0013 14.6211 9.93659 14.6633 9.86564 14.6917C9.79469 14.7201 9.71883 14.7343 9.6424 14.7334ZM9.9364 17.0344C9.4489 17.0344 9.05365 16.6474 9.05365 16.1704C9.05365 15.6941 9.4489 15.3079 9.9364 15.3079C10.4239 15.3079 10.8199 15.6941 10.8199 16.1704C10.8199 16.6474 10.4246 17.0344 9.9364 17.0344ZM9.9364 18.7594C9.78217 18.7612 9.63353 18.7017 9.52314 18.594C9.41274 18.4863 9.34963 18.3391 9.34765 18.1849C9.34765 17.8669 9.61165 17.6096 9.9364 17.6096C10.2611 17.6096 10.5259 17.8669 10.5259 18.1849C10.525 18.2614 10.5091 18.337 10.479 18.4073C10.4488 18.4776 10.4052 18.5413 10.3504 18.5947C10.2957 18.6482 10.2309 18.6903 10.1599 18.7187C10.0888 18.747 10.0129 18.7611 9.9364 18.7601V18.7594Z" fill="#B2A3F6"/>
</svg>
