<svg xmlns="http://www.w3.org/2000/svg" width="18.691" height="21.455" viewBox="0 0 18.691 21.455">
  <g id="Group_14257" data-name="Group 14257" transform="translate(0 0)">
    <path id="Path_381" data-name="Path 381" d="M403.492,271.875a1.258,1.258,0,0,1-1.018-.525v13.875a.23.23,0,0,0,.227.233h1.545a.23.23,0,0,0,.227-.233V271.4a1.256,1.256,0,0,1-.981.475" transform="translate(-394.582 -264.003)" fill="#fff"/>
    <path id="Path_382" data-name="Path 382" d="M443.964,231.617a1.257,1.257,0,0,1-1-.5v18.4a.23.23,0,0,0,.227.233h1.545a.23.23,0,0,0,.227-.233v-18.4a1.257,1.257,0,0,1-1,.5" transform="translate(-430.516 -228.298)" fill="#fff"/>
    <path id="Path_383" data-name="Path 383" d="M445.031,206.389l-.527-.27a.011.011,0,0,0-.015.012l.14.587a.011.011,0,0,1,0,.01l-.413.431a.011.011,0,0,0,.007.019l.587.044a.011.011,0,0,1,.009.006l.271.536a.011.011,0,0,0,.02,0l.223-.559a.011.011,0,0,1,.008-.007l.581-.1a.011.011,0,0,0,.005-.019l-.45-.39a.012.012,0,0,1,0-.01l.088-.6a.011.011,0,0,0-.016-.011l-.5.318a.01.01,0,0,1-.011,0" transform="translate(-431.621 -206.068)" fill="#fff"/>
    <path id="Path_384" data-name="Path 384" d="M404.54,250.32l-.527-.27a.011.011,0,0,0-.015.012l.14.587a.012.012,0,0,1,0,.01l-.413.431a.011.011,0,0,0,.007.019l.588.044a.011.011,0,0,1,.009.006l.271.536a.011.011,0,0,0,.02,0l.223-.559a.011.011,0,0,1,.008-.007l.581-.1a.011.011,0,0,0,.005-.02l-.45-.39a.012.012,0,0,1,0-.01l.088-.6a.011.011,0,0,0-.016-.011l-.5.318a.01.01,0,0,1-.011,0" transform="translate(-395.687 -245.055)" fill="#fff"/>
    <path id="Path_385" data-name="Path 385" d="M342,208.63a9.477,9.477,0,0,1,1.974.208.112.112,0,0,1,.086.12.11.11,0,0,1-.106.1,8.245,8.245,0,0,0,.214,16.476,7.968,7.968,0,0,0,6.681-3.671.107.107,0,0,1,.14-.038.113.113,0,0,1,.053.139,9.845,9.845,0,0,1-3.477,4.641A9.41,9.41,0,0,1,342,228.42a9.9,9.9,0,0,1,0-19.79" transform="translate(-332.355 -208.342)" fill="#fff"/>
  </g>
</svg>
