<?xml version="1.0" encoding="UTF-8"?>
<svg xmlns="http://www.w3.org/2000/svg" xmlns:xlink="http://www.w3.org/1999/xlink" width="19pt" height="19pt" viewBox="0 0 19 19" version="1.1">
<g id="surface127096">
<path style=" stroke:none;fill-rule:nonzero;fill:rgb(100%,100%,100%);fill-opacity:1;" d="M 18.664062 9.476562 C 18.664062 14.414062 14.558594 18.417969 9.5 18.417969 C 4.441406 18.417969 0.335938 14.414062 0.335938 9.476562 C 0.335938 4.539062 4.441406 0.539062 9.5 0.539062 C 14.558594 0.539062 18.664062 4.539062 18.664062 9.476562 Z M 18.664062 9.476562 "/>
<path style="fill-rule:nonzero;fill:rgb(0%,0%,0%);fill-opacity:1;stroke-width:6.84095;stroke-linecap:butt;stroke-linejoin:miter;stroke:rgb(100%,100%,100%);stroke-opacity:1;stroke-miterlimit:4;" d="M 223.480358 167.491576 C 223.480358 217.567752 181.842652 258.17541 130.538342 258.17541 C 79.234031 258.17541 37.596325 217.567752 37.596325 167.491576 C 37.596325 117.4154 79.234031 76.847358 130.538342 76.847358 C 181.842652 76.847358 223.480358 117.4154 223.480358 167.491576 Z M 223.480358 167.491576 " transform="matrix(0.0985998,0,0,0.0985998,-3.371052,-7.237289)"/>
<path style=" stroke:none;fill-rule:evenodd;fill:rgb(100%,100%,100%);fill-opacity:1;" d="M 9.847656 6.148438 C 9.847656 5.976562 9.714844 5.835938 9.550781 5.835938 C 9.390625 5.835938 9.257812 5.976562 9.257812 6.148438 C 9.257812 7.402344 9.257812 12.074219 9.257812 13.328125 C 9.257812 13.5 9.390625 13.640625 9.550781 13.640625 C 9.714844 13.640625 9.847656 13.5 9.847656 13.328125 C 9.847656 12.074219 9.847656 7.402344 9.847656 6.148438 Z M 9.847656 6.148438 "/>
<path style=" stroke:none;fill-rule:evenodd;fill:rgb(100%,100%,100%);fill-opacity:1;" d="M 8.660156 12.066406 C 8.496094 12.066406 8.363281 12.203125 8.363281 12.375 C 8.363281 12.546875 8.496094 12.6875 8.65625 12.6875 C 9.109375 12.6875 9.96875 12.6875 10.421875 12.6875 C 10.582031 12.6875 10.714844 12.550781 10.714844 12.378906 C 10.714844 12.207031 10.582031 12.066406 10.421875 12.066406 C 9.96875 12.066406 9.109375 12.066406 8.660156 12.066406 Z M 8.660156 12.066406 "/>
<path style=" stroke:none;fill-rule:evenodd;fill:rgb(100%,100%,100%);fill-opacity:1;" d="M 7.203125 7.996094 C 7.042969 7.996094 6.910156 8.136719 6.910156 8.308594 C 6.910156 8.480469 7.042969 8.621094 7.203125 8.621094 C 8.128906 8.621094 10.960938 8.621094 11.882812 8.625 C 12.046875 8.625 12.179688 8.484375 12.179688 8.3125 C 12.179688 8.140625 12.046875 8 11.886719 8 C 10.960938 8 8.128906 8 7.203125 7.996094 Z M 7.203125 7.996094 "/>
<path style=" stroke:none;fill-rule:evenodd;fill:rgb(100%,100%,100%);fill-opacity:1;" d="M 8.175781 6.425781 C 8.058594 6.304688 7.871094 6.304688 7.757812 6.425781 C 7.644531 6.546875 7.644531 6.746094 7.757812 6.867188 C 8.390625 7.535156 10.289062 9.539062 10.925781 10.207031 C 11.039062 10.328125 11.226562 10.328125 11.339844 10.207031 C 11.339844 10.207031 11.339844 10.203125 11.339844 10.203125 C 11.453125 10.082031 11.453125 9.886719 11.339844 9.765625 C 10.707031 9.097656 8.808594 7.09375 8.175781 6.425781 Z M 8.175781 6.425781 "/>
<path style=" stroke:none;fill-rule:evenodd;fill:rgb(100%,100%,100%);fill-opacity:1;" d="M 7.761719 9.769531 C 7.648438 9.890625 7.648438 10.089844 7.761719 10.210938 C 7.878906 10.332031 8.066406 10.332031 8.179688 10.210938 C 8.8125 9.539062 10.703125 7.53125 11.335938 6.859375 C 11.449219 6.738281 11.449219 6.542969 11.335938 6.421875 C 11.21875 6.300781 11.035156 6.300781 10.917969 6.421875 C 10.289062 7.089844 8.394531 9.101562 7.761719 9.769531 Z M 7.761719 9.769531 "/>
<path style="fill:none;stroke-width:3.92991;stroke-linecap:butt;stroke-linejoin:miter;stroke:rgb(94.117647%,50.980395%,49.019608%);stroke-opacity:1;stroke-miterlimit:4;" d="M 212.466769 168.125451 C 212.466769 212.219426 175.781216 247.993783 130.577959 247.993783 C 85.335085 247.993783 48.689149 212.219426 48.689149 168.125451 C 48.689149 123.991859 85.335085 88.217503 130.577959 88.217503 C 175.781216 88.217503 212.466769 123.991859 212.466769 168.125451 Z M 212.466769 168.125451 " transform="matrix(0.0985998,0,0,0.0985998,-3.371052,-7.237289)"/>
</g>
</svg>
