<svg width="24" height="24" version="1.1" viewBox="0 0 24 24" xmlns="http://www.w3.org/2000/svg"><g transform="matrix(.046758 0 0 .047109 .6843 .19968)"><g fill-rule="evenodd"><path d="m107.81 49.601c-55.187 11.853-84.572 74.567-58.499 124.85 3.344 6.448 6.842 10.772 18.524 22.895 24.998 25.941 33.427 42.412 33.346 65.155-.062 17.247-6.054 29.574-21.079 43.369-19.974 18.339-26.438 25.375-31.368 34.146-24.03 42.751-9.115 96.852 33.29 120.76 12.765 7.197 34.005 12.07 47.239 10.84 23.34-2.169 38.52-9.414 58.574-27.958 16.352-15.121 33.712-26.522 47.323-31.079 6.959-2.33 22.652-3.172 30.142-1.617 3.184.661 9.401 3.01 13.815 5.219 6.957 3.482 10.378 6.307 25.705 21.224 19.683 19.157 23.914 22.407 35.571 27.323 11.385 4.801 20.115 6.459 34.11 6.475 23.512.027 42.944-7.786 59.774-24.033 24.631-23.78 32.604-62.484 19.595-95.12-9.942-24.94-32.106-44.367-58.869-51.6-9.079-2.453-27.094-2.96-37.205-1.046-9.987 1.89-20.416 5.879-28.024 10.717-2.899 1.843-11.571 9.44-19.271 16.882-15.79 15.261-20.783 19.148-31.5 24.52-11.901 5.966-17.56 7.588-28.5 8.172-11.684.623-19.045-.919-29.413-6.16-7.804-3.945-13.464-8.825-29.646-25.56-28.831-29.816-40.46-50.793-40.429-72.931.027-19.521 7.11-32.325 29.4-53.149 22.088-20.635 31.66-40.783 31.656-66.63-.001-11.797-.985-18.38-4.221-28.261-9.614-29.358-33.917-51.035-64.478-57.51-8.647-1.832-26.78-1.776-35.562.111" fill="#ec0c8c"/><path d="m370.92 47.981c-26.298 3.388-50.351 20.864-62.653 45.519-6.075 12.175-8.361 22.317-8.373 37.144-.029 35.888 22.709 67.158 57.101 78.528 8.159 2.697 11.348 3.205 22.592 3.595 15.609.543 24.795-1.333 38.408-7.844 29.129-13.933 46.926-42.046 46.983-74.215.09-50.902-43.502-89.242-94.058-82.727" fill="#2ca4d4"/></g></g></svg>
