<?xml version="1.0" encoding="utf-8"?>
<!-- Generator: Adobe Illustrator 25.0.0, SVG Export Plug-In . SVG Version: 6.00 Build 0)  -->
<svg version="1.1" id="Layer_1" xmlns="http://www.w3.org/2000/svg" xmlns:xlink="http://www.w3.org/1999/xlink" x="0px" y="0px"
	 viewBox="0 0 750 750" style="enable-background:new 0 0 750 750;" xml:space="preserve">
<style type="text/css">
	.st0{fill:#E51B44;}
	.st1{fill:#FFFFFF;}
	.st2{fill-rule:evenodd;clip-rule:evenodd;fill:#FFFFFF;}
</style>
<g>
	<path class="st0" d="M375.1,0C167.9,0,0,167.9,0,375.1C0,582.1,167.9,750,375.1,750S750,582.1,750,375.1C750,167.9,582.1,0,375.1,0
		z"/>
	<g>
		<path class="st1" d="M374.8,407.4l-62.6-179.3c-4.7-12.6-16.8-20.9-30.2-20.7h-0.2c-13.5-0.1-25.6,8.2-30.2,20.9l-0.9,2.6
			c-0.1,0.4-0.2,0.9-0.4,1.6c-0.3,1.7-0.5,3.5-0.5,5.2c0,3.1,0.5,6.2,1.4,9.2l31,86.4l62.3,178.8c4.7,12.6,16.8,20.9,30.2,20.7
			c13.7,0,25.7-8.2,30.2-20.7l35-100.7l-33.5-94.6L374.8,407.4z"/>
		<path class="st1" d="M619.6,388.7c0-16.9-14.3-30.6-31.9-30.6l-44-0.2L498,228.2c-4.5-12.4-16.5-20.7-30.2-20.9h-0.2
			c-13.7,0-25.7,8.2-30.2,20.7c-0.9,2.6-1.6,5.2-1.6,5.2c-0.3,1.7-0.5,3.4-0.5,5.2c0,3.1,0.5,6.2,1.4,9.1l30.5,85.7v0L530.2,512
			c5.6,16,23.7,24.7,40.5,19.2c16.7-5.3,25.7-22.7,20-38.9l-25.5-73h22.4C605.3,419.3,619.6,405.6,619.6,388.7z"/>
	</g>
	<path class="st2" d="M227.4,333.3L227.4,333.3l-6.2-17.4l-15,42.1h-43.8c-17.6,0-31.9,13.7-31.9,30.6s14.3,30.6,31.9,30.6h22.4
		L159,492.2c-5.6,16,3.3,33.4,20,38.9c3.3,1.1,6.7,1.6,10.2,1.7c13.3,0,25.7-8.1,30.2-20.9l35.4-100.7L227.4,333.3z"/>
</g>
</svg>
