<svg width="24" height="24" viewBox="0 0 24 24" fill="none">
<path d="M15.7515 14.2691C16.3534 14.2691 16.9307 14.03 17.3563 13.6044C17.7819 13.1788 18.021 12.6016 18.021 11.9997C18.021 11.3977 17.7819 10.8205 17.3563 10.3949C16.9307 9.96926 16.3534 9.73015 15.7515 9.73015C15.1496 9.73015 14.5724 9.96926 14.1467 10.3949C13.7211 10.8205 13.482 11.3977 13.482 11.9997C13.482 12.6016 13.7211 13.1788 14.1467 13.6044C14.5724 14.03 15.1496 14.2691 15.7515 14.2691ZM15.7515 6.7654C16.6158 6.76489 17.4667 6.97836 18.2284 7.38676C18.9901 7.79517 19.6388 8.38581 20.1167 9.10595C20.5945 9.8261 20.8867 10.6534 20.967 11.5139C21.0473 12.3744 20.9133 13.2414 20.577 14.0376C20.2407 14.8337 19.7125 15.5342 19.0395 16.0765C18.3666 16.6188 17.5698 16.9861 16.7204 17.1455C15.871 17.305 14.9953 17.2516 14.1715 16.9903C13.3477 16.7289 12.6014 16.2676 11.9993 15.6476C12.9511 14.6721 13.4834 13.3627 13.482 11.9997C13.4834 10.6366 12.9512 9.32718 11.9993 8.35165C12.4864 7.84912 13.0696 7.44971 13.7142 7.1772C14.3588 6.90469 15.0517 6.76465 15.7515 6.7654ZM8.24777 14.2691C8.84967 14.2691 9.42693 14.03 9.85254 13.6044C10.2782 13.1788 10.5173 12.6016 10.5173 11.9997C10.5173 11.3977 10.2782 10.8205 9.85254 10.3949C9.42693 9.96926 8.84967 9.73015 8.24777 9.73015C7.64586 9.73015 7.0686 9.96926 6.64299 10.3949C6.21737 10.8205 5.97827 11.3977 5.97827 11.9997C5.97827 12.6016 6.21737 13.1788 6.64299 13.6044C7.0686 14.03 7.64586 14.2691 8.24777 14.2691ZM12 8.35165C11.0484 9.32734 10.5165 10.6367 10.518 11.9997C10.518 13.4187 11.0835 14.7049 12 15.6476C11.274 16.3949 10.3416 16.9085 9.32208 17.1227C8.30255 17.337 7.24227 17.2422 6.27691 16.8505C5.31156 16.4587 4.48505 15.7879 3.90313 14.9237C3.32122 14.0596 3.01038 13.0415 3.01038 11.9997C3.01038 10.9578 3.32122 9.93973 3.90313 9.07558C4.48505 8.21144 5.31156 7.54058 6.27691 7.14884C7.24227 6.7571 8.30255 6.6623 9.32208 6.87657C10.3416 7.09085 11.274 7.60445 12 8.35165ZM10.5173 12.0004C10.5173 13.4194 11.0828 14.7056 12 15.6484C12.9517 14.6727 13.4836 13.3633 13.482 12.0004C13.4836 10.6375 12.9517 9.32805 12 8.3524C11.0481 9.32793 10.5158 10.6374 10.5173 12.0004Z" fill="#DA1157"/>
</svg>
