<svg width="24" height="24" viewBox="0 0 24 24" fill="none" xmlns="http://www.w3.org/2000/svg">
<path fill-rule="evenodd" clip-rule="evenodd" d="M11.6025 23.1112C17.9538 23.1112 23.1025 17.9625 23.1025 11.6112C23.1025 5.25993 17.9538 0.111206 11.6025 0.111206C5.25126 0.111206 0.102539 5.25993 0.102539 11.6112C0.102539 17.9625 5.25126 23.1112 11.6025 23.1112ZM7.54166 7.99279C7.54166 7.51287 7.15261 7.12382 6.67269 7.12382C6.19276 7.12382 5.80371 7.51287 5.80371 7.99279V15.2297C5.80371 15.7096 6.19276 16.0987 6.67269 16.0987C7.15261 16.0987 7.54166 15.7096 7.54166 15.2297V7.99279ZM17.4012 7.99279C17.4012 7.51287 17.0122 7.12382 16.5323 7.12382C16.0523 7.12382 15.6633 7.51287 15.6633 7.99279V15.2297C15.6633 15.7096 16.0523 16.0987 16.5323 16.0987C17.0122 16.0987 17.4012 15.7096 17.4012 15.2297V7.99279ZM14.0672 9.93217C14.5471 9.93217 14.9362 10.3212 14.9362 10.8011V15.2297C14.9362 15.7096 14.5471 16.0987 14.0672 16.0987C13.5873 16.0987 13.1982 15.7096 13.1982 15.2297V10.8011C13.1982 10.3212 13.5873 9.93217 14.0672 9.93217ZM10.0065 10.8011C10.0065 10.3212 9.61745 9.93217 9.13753 9.93217C8.65761 9.93217 8.26855 10.3212 8.26855 10.8011V15.2297C8.26855 15.7096 8.65761 16.0987 9.13753 16.0987C9.61745 16.0987 10.0065 15.7096 10.0065 15.2297L10.0065 10.8011ZM11.6024 12.5245C12.0823 12.5245 12.4714 12.9136 12.4714 13.3935L12.4714 15.2297C12.4714 15.7097 12.0823 16.0987 11.6024 16.0987C11.1225 16.0987 10.7334 15.7097 10.7334 15.2297V13.3935C10.7334 12.9136 11.1225 12.5245 11.6024 12.5245Z" fill="#009FF9"/>
</svg>
