<svg width="24" height="24" fill="none" xmlns="http://www.w3.org/2000/svg">
  <circle cx="12" cy="12" r="12" fill="#292674"/>
  <path d="m20.724 6.688-.566-.208-.208-.566-.208.566-.566.208.566.208.208.566.208-.566.566-.208ZM22.214 10.879l-.566-.208-.208-.566-.208.566-.566.208.566.208.208.566.208-.566.566-.208ZM21.586 15.282l-.566-.208-.208-.566-.208.566-.566.208.566.208.208.566.208-.566.566-.208ZM18.21 19.663l.208-.566.566-.208-.566-.208-.208-.567-.208.567-.566.208.566.208.208.566ZM5.114 18.632l.566.208.208.566.208-.566.567-.208-.567-.208-.208-.566-.208.566-.566.208ZM2.665 14.92l.566.208.208.566.208-.566.566-.208-.566-.208-.208-.566-.208.566-.566.208ZM2.22 10.494l.566.208.208.567.208-.567.567-.208-.567-.208-.208-.566-.208.566-.566.208ZM3.74 6.445l.566.208.208.567.208-.567.566-.208-.566-.208-.208-.566-.208.566-.566.208Z" fill="#fff" style="mix-blend-mode:overlay"/>
  <path d="m12.195 19.024 6.83-6.896V8.777l-6.83 6.896v3.351Z" fill="url(#a)"/>
  <path d="m12.195 19.024-6.83-6.896V8.777l6.83 6.896v3.351Z" fill="url(#b)"/>
  <path d="m12.195 19.024 6.83-6.896V8.777l-6.83 6.896v3.351Z" fill="#fff"/>
  <path d="m19.024 12.117-3.38-3.404V5.366l3.38 3.404v3.347ZM12.195 19.024l-6.83-6.896V8.777l6.83 6.896v3.351Z" fill="#fff"/>
  <path d="m12.209 8.82-3.464 3.488v3.349l3.464-3.488V8.821Z" fill="#fff"/>
  <path d="m12.195 8.82 3.45 3.488v3.349l-3.45-3.488V8.821ZM5.366 12.117l3.38-3.404V5.366L5.365 8.77v3.347Z" fill="#fff"/>
  <path d="m12.181 12.202 3.464-3.487v-3.35L12.18 8.854v3.35Z" fill="#fff"/>
  <path d="m12.195 12.202-3.45-3.487v-3.35l3.45 3.488v3.35Z" fill="#fff"/>
  <path fill-rule="evenodd" clip-rule="evenodd" d="m8.669 5.19 3.529 3.53 3.528-3.53v3.582l-1.66 1.74 1.66 1.818v3.58l-3.528-3.528-3.529 3.528v-3.58l1.7-1.819-1.7-1.739V5.19Zm.146.354v3.168l1.756 1.797-1.756 1.878v3.17l3.383-3.382 3.382 3.382v-3.17l-1.714-1.878 1.714-1.796v-3.17l-3.382 3.383-3.383-3.382Z" fill="#fff" style="mix-blend-mode:overlay"/>
</svg>
