<svg width="24" height="24" viewBox="0 0 24 24">
<path d="m 17.4475,3.9137503 -3.7625,5.586249 a 0.4,0.39999999 0 0 0 0.59375,0.5249997 L 17.9825,6.8124993 a 0.15,0.15 0 0 1 0.25,0.11375 V 16.983749 a 0.15,0.15 0 0 1 -0.265,0.09625 L 6.7725,3.6787503 A 1.91875,1.9187499 0 0 0 5.30875,3.0000003 H 4.9175 A 1.9175,1.9174999 0 0 0 3,4.9174993 V 19.082499 a 1.9175,1.9174999 0 0 0 1.9175,1.9175 v 0 a 1.91875,1.9187499 0 0 0 1.635,-0.91375 l 3.7625,-5.58625 a 0.4,0.39999999 0 0 0 -0.59375,-0.525 l -3.70375,3.2125 a 0.15,0.15 0 0 1 -0.25,-0.11375 V 7.0137493 a 0.15,0.15 0 0 1 0.265,-0.09625 L 17.22625,20.321249 a 1.91875,1.9187499 0 0 0 1.46375,0.67875 h 0.39125 A 1.9175,1.9174999 0 0 0 21,19.082499 V 4.9174993 a 1.9175,1.9174999 0 0 0 -1.9175,-1.917499 v 0 a 1.91875,1.9187499 0 0 0 -1.635,0.91375 z" fill="#FFF"/>
</svg>
