<svg width="24pt" height="24pt" viewBox="0 0 24 24">
<defs>
<linearGradient id="nyxgradient" gradientUnits="userSpaceOnUse" x1="16" y1="0" x2="16" y2="32" >
<stop offset="0" style="stop-color:rgb(95.686275%,45.098039%,10.588235%);stop-opacity:1;"/>
<stop offset="1" style="stop-color:rgb(94.509804%,18.431373%,30.588235%);stop-opacity:1;"/>
</linearGradient>
</defs>
<g id="surface1">
<path style="fill-rule:nonzero;fill:url(#nyxgradient);stroke-width:0.5;stroke-linecap:butt;stroke-linejoin:miter;stroke:rgb(100%,100%,100%);stroke-opacity:1;stroke-miterlimit:4;" d="M 31.75 16 C 31.75 24.697917 24.697917 31.75 16 31.75 C 7.302083 31.75 0.25 24.697917 0.25 16 C 0.25 7.302083 7.302083 0.25 16 0.25 C 24.697917 0.25 31.75 7.302083 31.75 16 Z M 31.75 16 " transform="matrix(0.75,0,0,0.75,0,0)"/>
<path style=" stroke:none;fill-rule:nonzero;fill:rgb(100%,100%,100%);fill-opacity:1;" d="M 17.300781 6.699219 C 14.378906 3.765625 9.625 3.765625 6.699219 6.699219 C 3.765625 9.628906 3.765625 14.375 6.699219 17.300781 C 9.628906 20.234375 14.375 20.234375 17.300781 17.300781 C 20.234375 14.378906 20.234375 9.621094 17.300781 6.699219 Z M 16.65625 16.65625 C 14.085938 19.226562 9.90625 19.226562 7.335938 16.65625 C 4.765625 14.085938 4.765625 9.90625 7.335938 7.335938 C 9.90625 4.765625 14.085938 4.765625 16.65625 7.335938 C 19.238281 9.914062 19.238281 14.085938 16.65625 16.65625 Z M 16.65625 16.65625 "/>
<path style=" stroke:none;fill-rule:nonzero;fill:rgb(100%,100%,100%);fill-opacity:1;" d="M 16.050781 16.371094 L 16.050781 7.628906 C 15.667969 7.269531 15.242188 6.957031 14.78125 6.707031 L 14.78125 15.066406 L 9.265625 6.675781 C 8.785156 6.929688 8.34375 7.246094 7.953125 7.621094 L 7.953125 16.371094 C 8.332031 16.734375 8.757812 17.042969 9.21875 17.296875 L 9.21875 8.933594 L 14.738281 17.324219 C 15.214844 17.070312 15.65625 16.75 16.050781 16.371094 Z M 16.050781 16.371094 "/>
</g>
</svg>
