<?xml version="1.0" encoding="UTF-8"?><svg id="a" xmlns="http://www.w3.org/2000/svg" viewBox="0 0 17.89 19.5"><defs><style>.b{fill:#fff;}</style></defs><path class="b" d="M17.84,3.44c-.2-.77-.85-1.54-1.98-2.38-.93-.65-1.9-1.05-2.67-1.05-.16,0-.28,0-.44,.04-.36,.08-.65,.32-.85,.73-.24,.44-.28,1.09-.12,1.45,.04,.12,.12,.24,.2,.4-.32,.19-.57,.33-.77,.42-.89-.33-1.85-.52-2.85-.52C3.72,2.53,0,6.32,0,11.01s3.72,8.49,8.37,8.49,8.37-3.8,8.37-8.49c0-1.67-.49-3.22-1.32-4.54,.07-.35,.16-.71,.28-1.1v-.04c.21,.04,.42,.08,.62,.08,.53,0,.97-.2,1.25-.61,.28-.44,.4-.93,.28-1.37Zm-4.12-1.54c.28,.12,.65,.32,1.09,.61,.53,.36,1.01,.77,1.29,1.09-.25,.33-.46,.74-.62,1.14,0,0-.01,0-.02,0-.12,.32-.28,.65-.36,1.05-.84-1.16-1.97-2.05-3.25-2.65,.02,0,.04,.02,.05,.03,.4-.24,1.05-.69,1.82-1.25Zm-.81-.12s.16-.08,.32-.04c-.12,.12-.28,.2-.4,.32-.04-.08-.04-.2,.08-.28Zm3.48,2.14c.04,.08,.04,.16,.04,.2,0,.12-.04,.16-.08,.2-.04,.04-.16,.08-.28,.08,.12-.2,.2-.32,.32-.48Zm-8.02,15.09C4,19.02,.48,15.46,.48,11.01S4,2.97,8.37,2.97s7.88,3.6,7.88,8.04-3.56,8-7.88,8ZM15.88,4.87l.02-.06h.2c.16,0,.36-.04,.53-.16,.12-.08,.24-.24,.24-.53s-.2-.61-.65-1.05c-.32-.28-.77-.65-1.17-.93-1.21-.81-2.06-1.05-2.43-.65-.24,.24-.24,.57-.12,.81-.05,.03-.11,.07-.16,.1-.1-.15-.19-.28-.24-.38-.2-.4,0-1.41,.69-1.58,.69-.16,1.74,.16,2.79,.93,1.05,.77,1.62,1.45,1.82,2.14,.2,.67-.3,1.63-1.52,1.35Z"/><path class="b" d="M7.8,10c-1.46,.44-2.75,.36-3.68,.24-2.04-.24-3.19-.27-3.26,.69h-.01s0,.04,0,.06c0,0,0,.01,0,.02,0,.02,0,.04,0,.06,.07,4.14,3.43,7.5,7.51,7.5s7.42-3.38,7.47-7.54c0,0,0-.01,0-.02v-.02s0-.04,0-.07h-.02c-.09-.84-1.54-1.3-3.46-1.45-1.45-.12-2.91,.04-4.57,.53Z"/><ellipse class="b" cx="10.79" cy="6.08" rx="1.25" ry="1.29"/><path class="b" d="M12.89,8.35c.28,0,.53-.24,.53-.53s-.24-.53-.53-.53-.53,.24-.53,.53,.2,.53,.53,.53Z"/></svg>