<?xml version="1.0" encoding="UTF-8"?>
<svg xmlns="http://www.w3.org/2000/svg" xmlns:xlink="http://www.w3.org/1999/xlink" width="19pt" height="19pt" viewBox="0 0 19 19" version="1.1">
<g id="surface80909">
<path style=" stroke:none;fill-rule:nonzero;fill:rgb(8.235294%,10.196079%,12.54902%);fill-opacity:1;" d="M 16.21875 2.785156 C 14.421875 0.988281 12.039062 0 9.5 0 C 4.261719 0 0 4.261719 0 9.5 C 0 14.738281 4.261719 19 9.5 19 C 12.039062 19 14.425781 18.011719 16.21875 16.214844 C 18.011719 14.421875 19 12.035156 19 9.5 C 19 6.964844 18.011719 4.578125 16.21875 2.785156 Z M 9.5 18.34375 C 4.625 18.34375 0.65625 14.375 0.65625 9.5 C 0.65625 4.625 4.625 0.65625 9.5 0.65625 C 14.375 0.65625 18.34375 4.625 18.34375 9.5 C 18.34375 14.375 14.375 18.34375 9.5 18.34375 Z M 9.5 18.34375 "/>
<path style=" stroke:none;fill-rule:nonzero;fill:rgb(8.235294%,10.196079%,12.54902%);fill-opacity:1;" d="M 9.5 18.34375 C 4.625 18.34375 0.65625 14.375 0.65625 9.5 C 0.65625 4.625 4.625 0.65625 9.5 0.65625 C 14.375 0.65625 18.34375 4.625 18.34375 9.5 C 18.34375 14.375 14.375 18.34375 9.5 18.34375 Z M 9.5 18.34375 "/>
<path style=" stroke:none;fill-rule:nonzero;fill:rgb(100%,100%,100%);fill-opacity:1;" d="M 16.21875 2.785156 C 14.421875 0.988281 12.039062 0 9.5 0 C 4.261719 0 0 4.261719 0 9.5 C 0 14.738281 4.261719 19 9.5 19 C 12.039062 19 14.425781 18.011719 16.21875 16.214844 C 18.011719 14.421875 19 12.035156 19 9.5 C 19 6.964844 18.011719 4.578125 16.21875 2.785156 Z M 9.5 18.34375 C 4.625 18.34375 0.65625 14.375 0.65625 9.5 C 0.65625 4.625 4.625 0.65625 9.5 0.65625 C 14.375 0.65625 18.34375 4.625 18.34375 9.5 C 18.34375 14.375 14.375 18.34375 9.5 18.34375 Z M 9.5 18.34375 "/>
<path style=" stroke:none;fill-rule:nonzero;fill:rgb(100%,100%,100%);fill-opacity:1;" d="M 12.613281 9.722656 C 12.007812 9.179688 11.210938 8.816406 10.4375 8.464844 L 10.433594 8.464844 C 9.074219 7.84375 7.898438 7.304688 7.980469 6.035156 C 8.015625 5.550781 8.367188 5.257812 8.65625 5.097656 C 8.980469 4.921875 9.414062 4.8125 9.8125 4.8125 C 9.859375 4.8125 9.90625 4.816406 9.953125 4.816406 C 11.113281 4.894531 12.027344 5.386719 12.921875 6.410156 L 12.976562 6.472656 L 13.039062 6.417969 L 13.390625 6.117188 L 13.453125 6.058594 L 13.394531 5.996094 C 12.398438 4.855469 11.316406 4.277344 9.992188 4.1875 C 9.933594 4.183594 9.875 4.183594 9.808594 4.183594 C 9.769531 4.183594 9.726562 4.183594 9.679688 4.183594 L 9.621094 4.183594 C 8.753906 4.183594 7.800781 4.46875 7.078125 4.945312 C 6.214844 5.519531 5.730469 6.304688 5.71875 7.160156 C 5.683594 9.246094 7.386719 9.945312 8.890625 10.566406 L 8.894531 10.570312 L 8.90625 10.574219 C 10.238281 11.125 11.382812 11.601562 11.359375 12.875 C 11.347656 13.714844 10.148438 14.175781 9.324219 14.175781 L 9.207031 14.175781 L 9.207031 14.179688 C 7.980469 14.140625 6.882812 13.613281 5.945312 12.609375 L 5.886719 12.546875 L 5.828125 12.601562 L 5.488281 12.917969 L 5.425781 12.972656 L 5.484375 13.035156 C 6.546875 14.179688 7.859375 14.796875 9.28125 14.8125 L 9.34375 14.8125 C 10.261719 14.8125 11.257812 14.566406 12.011719 14.148438 C 12.953125 13.636719 13.503906 12.886719 13.558594 12.039062 C 13.625 11.105469 13.316406 10.347656 12.613281 9.722656 Z M 8.203125 7.910156 C 8.746094 8.375 9.476562 8.707031 10.1875 9.027344 L 10.199219 9.03125 C 10.949219 9.378906 11.660156 9.707031 12.175781 10.160156 C 12.746094 10.660156 12.984375 11.242188 12.933594 11.988281 C 12.886719 12.726562 12.339844 13.222656 11.839844 13.519531 C 11.9375 13.320312 11.988281 13.105469 11.996094 12.878906 C 12.007812 12.113281 11.710938 11.5 11.09375 11 C 10.550781 10.566406 9.832031 10.269531 9.136719 9.984375 C 7.691406 9.390625 6.328125 8.828125 6.351562 7.167969 C 6.359375 6.53125 6.742188 5.925781 7.433594 5.46875 C 7.453125 5.453125 7.476562 5.4375 7.503906 5.421875 C 7.421875 5.601562 7.375 5.785156 7.363281 5.980469 C 7.308594 6.75 7.582031 7.382812 8.203125 7.910156 Z M 8.203125 7.910156 "/>
</g>
</svg>
