<svg width="19" height="19" viewBox="0 0 19 19" fill="none">
<path fill="#89395b" d="M 9.476562 19 C 12.296875 19 14.832031 17.777344 16.578125 15.832031 C 15.765625 15.128906 14.542969 15.085938 13.679688 15.78125 L 13.515625 15.914062 C 11.933594 17.183594 9.628906 16.996094 8.277344 15.484375 C 7.539062 14.660156 6.273438 14.574219 5.433594 15.296875 L 3.53125 16.921875 C 5.160156 18.222656 7.226562 19 9.476562 19 Z M 12.5625 14.398438 C 14.070312 13.1875 16.1875 13.230469 17.636719 14.402344 C 18.5 12.972656 19 11.292969 19 9.5 C 19 7.507812 18.386719 5.65625 17.332031 4.128906 C 16.65625 3.984375 15.921875 4.15625 15.363281 4.648438 L 15.207031 4.789062 C 13.683594 6.132812 11.375 6.050781 9.953125 4.601562 C 9.175781 3.8125 7.910156 3.785156 7.101562 4.542969 L 4.890625 6.621094 L 3.671875 5.328125 L 5.886719 3.253906 C 7.398438 1.832031 9.769531 1.882812 11.222656 3.363281 C 11.980469 4.132812 13.214844 4.179688 14.027344 3.460938 L 14.183594 3.320312 C 14.679688 2.886719 15.25 2.589844 15.84375 2.4375 C 14.15625 0.921875 11.925781 0 9.476562 0 C 4.640625 0 0.648438 3.59375 0.0351562 8.25 C 1.503906 7.546875 3.3125 7.816406 4.511719 9.039062 C 5.265625 9.8125 6.484375 9.894531 7.335938 9.230469 L 8.574219 8.265625 C 10.128906 7.050781 12.328125 7.109375 13.816406 8.402344 L 16.226562 10.5 L 15.058594 11.835938 L 12.648438 9.742188 C 11.804688 9.003906 10.554688 8.972656 9.667969 9.660156 L 8.429688 10.625 C 6.863281 11.847656 4.628906 11.695312 3.238281 10.277344 C 2.429688 9.453125 1.109375 9.425781 0.269531 10.214844 L 0 10.464844 C 0.199219 12.449219 1.011719 14.253906 2.246094 15.683594 L 4.277344 13.949219 C 5.851562 12.601562 8.21875 12.757812 9.601562 14.304688 C 10.324219 15.113281 11.554688 15.210938 12.398438 14.53125 Z M 12.5625 14.398438 "/>
</svg>
