<svg width="24" height="24" viewBox="0 0 24 24" fill="none" xmlns="http://www.w3.org/2000/svg">
<path d="M12 24C18.6274 24 24 18.6274 24 12C24 5.37258 18.6274 0 12 0C5.37258 0 0 5.37258 0 12C0 18.6274 5.37258 24 12 24Z" fill="#B92100"/>
<path d="M6.45813 17.0996L6.45813 9.08984H8.36511V7.84277H6.45813L5.21106 7.84277L2.37512 7.84277V9.08984H5.21106L5.21106 17.0996H6.45813ZM8.36705 15.8933C10.2566 15.8933 11.7884 14.3615 11.7884 12.4719C11.7884 10.7951 10.5822 9.42848 8.99012 9.13555V7.93652C11.2866 8.24126 13.0584 10.0922 13.0584 12.4719C13.0584 15.0629 11.1507 17.0237 8.55972 17.0237C8.43377 17.0237 8.30035 17.0291 8.16161 17.0347L8.16157 17.0347C7.86723 17.0466 7.54893 17.0594 7.22717 17.0239V15.8933H8.36705ZM19.5748 17.1004L21.137 17.0997L17.7149 12.3423L20.8426 7.97506L19.3087 7.97506L16.941 11.2665L14.5734 7.97506L13.0395 7.97506L16.1672 12.3423L12.7451 17.0997L14.3073 17.1004L16.941 13.4228L19.5748 17.1004Z" fill="white"/>
</svg>
