<?xml version="1.0" encoding="UTF-8"?>
<svg xmlns="http://www.w3.org/2000/svg" xmlns:xlink="http://www.w3.org/1999/xlink" width="19pt" height="19pt" viewBox="0 0 19 19" version="1.1">
<defs>
<linearGradient id="umeelinear0" gradientUnits="userSpaceOnUse" x1="-76.300003" y1="812.700012" x2="1190.599976" y2="150.199997" gradientTransform="matrix(0.0191532,0,0,0.0191532,0.00191544,-3.868952)">
<stop offset="0" style="stop-color:rgb(100%,64.313728%,100%);stop-opacity:1;"/>
<stop offset="0" style="stop-color:rgb(97.254902%,65.098041%,100%);stop-opacity:1;"/>
<stop offset="0.2" style="stop-color:rgb(85.882354%,69.411767%,100%);stop-opacity:1;"/>
<stop offset="0.4" style="stop-color:rgb(81.960785%,71.372551%,100%);stop-opacity:1;"/>
<stop offset="0.9" style="stop-color:rgb(0%,100%,89.803922%);stop-opacity:1;"/>
</linearGradient>
<linearGradient id="umeelinear1" gradientUnits="userSpaceOnUse" x1="440.700012" y1="605" x2="571.200012" y2="126.300003" gradientTransform="matrix(0.0191532,0,0,0.0191532,0.00191544,-3.868952)">
<stop offset="0" style="stop-color:rgb(8.627451%,9.019608%,24.313726%);stop-opacity:0.3;"/>
<stop offset="0.3" style="stop-color:rgb(8.627451%,9.019608%,24.313726%);stop-opacity:0.2;"/>
<stop offset="0.9" style="stop-color:rgb(8.627451%,9.019608%,24.313726%);stop-opacity:0;"/>
</linearGradient>
<linearGradient id="umeelinear2" gradientUnits="userSpaceOnUse" x1="-34.299999" y1="848.599976" x2="1102" y2="345.700012" gradientTransform="matrix(0.0191532,0,0,0.0191532,0.00191544,-3.868952)">
<stop offset="0" style="stop-color:rgb(100%,64.313728%,100%);stop-opacity:1;"/>
<stop offset="0" style="stop-color:rgb(97.254902%,65.098041%,100%);stop-opacity:1;"/>
<stop offset="0.2" style="stop-color:rgb(85.882354%,69.411767%,100%);stop-opacity:1;"/>
<stop offset="0.4" style="stop-color:rgb(81.960785%,71.372551%,100%);stop-opacity:1;"/>
<stop offset="0.9" style="stop-color:rgb(0%,100%,89.803922%);stop-opacity:1;"/>
</linearGradient>
<linearGradient id="umeelinear3" gradientUnits="userSpaceOnUse" x1="382.200012" y1="739.400024" x2="556.299988" y2="381.600006" gradientTransform="matrix(0.0191532,0,0,0.0191532,0.00191544,-3.868952)">
<stop offset="0" style="stop-color:rgb(8.627451%,9.019608%,24.313726%);stop-opacity:0.3;"/>
<stop offset="0.3" style="stop-color:rgb(8.627451%,9.019608%,24.313726%);stop-opacity:0.2;"/>
<stop offset="0.9" style="stop-color:rgb(8.627451%,9.019608%,24.313726%);stop-opacity:0;"/>
</linearGradient>
<linearGradient id="umeelinear4" gradientUnits="userSpaceOnUse" x1="-83" y1="921" x2="937.299988" y2="529.299988" gradientTransform="matrix(0.0191532,0,0,0.0191532,0.00191544,-3.868952)">
<stop offset="0" style="stop-color:rgb(100%,64.313728%,100%);stop-opacity:1;"/>
<stop offset="0" style="stop-color:rgb(97.254902%,65.098041%,100%);stop-opacity:1;"/>
<stop offset="0.2" style="stop-color:rgb(85.882354%,69.411767%,100%);stop-opacity:1;"/>
<stop offset="0.4" style="stop-color:rgb(81.960785%,71.372551%,100%);stop-opacity:1;"/>
<stop offset="0.9" style="stop-color:rgb(0%,100%,89.803922%);stop-opacity:1;"/>
</linearGradient>
</defs>
<g id="surface229629">
<path style=" stroke:none;fill-rule:nonzero;fill:url(#umeelinear0);" d="M 0.0078125 0.320312 L 0.0078125 5.976562 C 0.0507812 11.007812 4.285156 15.3125 9.503906 15.3125 C 14.722656 15.3125 18.957031 11.242188 18.996094 6.210938 L 18.996094 5.976562 C 18.996094 5.976562 18.996094 0.320312 18.996094 0.320312 C 18.996094 0.320312 17.679688 -0.320312 16.179688 1.207031 C 15.21875 2.191406 14.449219 5.726562 12.390625 5.757812 C 9.640625 5.800781 7.769531 2.144531 5.535156 0.78125 C 3.199219 -0.644531 0.0078125 0.320312 0.0078125 0.320312 Z M 0.0078125 0.320312 "/>
<path style=" stroke:none;fill-rule:nonzero;fill:url(#umeelinear1);" d="M 0.0078125 0.320312 L 0.0078125 5.976562 C 0.0507812 11.007812 4.285156 15.3125 9.503906 15.3125 C 14.722656 15.3125 18.957031 11.242188 18.996094 6.210938 L 18.996094 5.976562 C 18.996094 5.976562 18.996094 0.320312 18.996094 0.320312 C 18.996094 0.320312 17.679688 -0.320312 16.179688 1.207031 C 15.21875 2.191406 14.449219 5.726562 12.390625 5.757812 C 9.640625 5.800781 7.769531 2.144531 5.535156 0.78125 C 3.199219 -0.644531 0.0078125 0.320312 0.0078125 0.320312 Z M 0.0078125 0.320312 "/>
<path style=" stroke:none;fill-rule:nonzero;fill:url(#umeelinear2);" d="M 18.996094 6.792969 L 18.996094 6.542969 C 18.996094 6.542969 18.996094 2.699219 18.996094 2.699219 C 18.460938 2.789062 17.800781 3.050781 17.105469 3.691406 C 16.027344 4.6875 15.164062 8.261719 12.855469 8.296875 C 9.769531 8.335938 7.671875 4.640625 5.160156 3.261719 C 3.421875 2.300781 1.257812 2.410156 0 2.589844 L 0 6.539062 C 0.0429688 11.925781 4.277344 16.527344 9.5 16.527344 C 14.722656 16.527344 18.957031 12.175781 18.996094 6.792969 Z M 18.996094 6.792969 "/>
<path style=" stroke:none;fill-rule:nonzero;fill:url(#umeelinear3);" d="M 18.996094 6.792969 L 18.996094 6.542969 C 18.996094 6.542969 18.996094 2.699219 18.996094 2.699219 C 18.460938 2.789062 17.800781 3.050781 17.105469 3.691406 C 16.027344 4.6875 15.164062 8.261719 12.855469 8.296875 C 9.769531 8.335938 7.671875 4.640625 5.160156 3.261719 C 3.421875 2.300781 1.257812 2.410156 0 2.589844 L 0 6.539062 C 0.0429688 11.925781 4.277344 16.527344 9.5 16.527344 C 14.722656 16.527344 18.957031 12.175781 18.996094 6.792969 Z M 18.996094 6.792969 "/>
<path style=" stroke:none;fill-rule:nonzero;fill:url(#umeelinear4);" d="M 18.996094 6.792969 L 18.996094 6.542969 C 18.996094 6.542969 18.996094 5.863281 18.996094 5.863281 C 18.585938 6.023438 18.136719 6.273438 17.675781 6.667969 C 16.515625 7.664062 15.585938 11.238281 13.101562 11.273438 C 9.78125 11.3125 7.519531 7.617188 4.820312 6.234375 C 3.253906 5.433594 1.367188 5.378906 0 5.488281 L 0 6.542969 C 0.0429688 11.925781 4.277344 16.527344 9.5 16.527344 C 14.722656 16.527344 18.957031 12.175781 18.996094 6.792969 Z M 18.996094 6.792969 "/>
</g>
</svg>
