<svg width="132" height="132" viewBox="0 0 132 132" fill="none" xmlns="http://www.w3.org/2000/svg">
<path d="M126 66C126 99.1371 99.1371 126 66 126C32.8629 126 6 99.1371 6 66C6 32.8629 32.8629 6 66 6C99.1371 6 126 32.8629 126 66Z" stroke="#19042D" stroke-width="12"/>
<path d="M66.6748 95.9202C64.3918 95.9227 62.1401 95.3901 60.1002 94.3652C58.0603 93.3402 56.289 91.8514 54.9284 90.0183L41.1893 71.6003C40.3177 70.4304 39.9463 68.9624 40.1567 67.5188C40.367 66.0753 41.142 64.7743 42.3111 63.9018C42.8901 63.4698 43.5486 63.156 44.2489 62.9785C44.9492 62.801 45.6775 62.7631 46.3925 62.8672C47.1074 62.9712 47.7948 63.215 48.4154 63.5848C49.036 63.9545 49.5778 64.4429 50.0096 65.0221L63.7456 83.4416C64.1101 83.9375 64.5949 84.3323 65.1543 84.5888C65.7137 84.8453 66.3292 84.9551 66.9427 84.9078C67.5564 84.8689 68.15 84.6746 68.6679 84.3432C69.1857 84.0117 69.6108 83.5541 69.9031 83.0132L90.8436 44.859C91.1906 44.2252 91.6591 43.6659 92.2224 43.2131C92.7856 42.7604 93.4326 42.4231 94.1263 42.2205C94.82 42.018 95.5468 41.9541 96.2651 42.0325C96.9835 42.111 97.6794 42.3302 98.313 42.6777C98.947 43.0244 99.5064 43.4927 99.9592 44.0558C100.412 44.6189 100.749 45.2658 100.952 45.9594C101.155 46.653 101.218 47.3797 101.14 48.0981C101.061 48.8164 100.842 49.5122 100.494 50.1456L79.5538 88.2997C78.3764 90.4567 76.6741 92.2819 74.6044 93.6065C72.5346 94.9312 70.1642 95.7125 67.7124 95.8782C67.365 95.9078 67.0175 95.9202 66.6748 95.9202Z" fill="#19042D"/>
<path d="M57.2453 62.995C56.6332 62.9957 56.027 62.8755 55.4615 62.6413C54.896 62.4071 54.3823 62.0634 53.95 61.6301C52.378 60.0498 50.5084 58.7966 48.4491 57.9433C46.3899 57.0899 44.1819 56.6531 41.9528 56.6583C39.7238 56.6534 37.5159 57.0903 35.4567 57.9436C33.3975 58.797 31.5278 60.05 29.9556 61.6301C29.5231 62.0633 29.0095 62.4069 28.444 62.6413C27.8786 62.8758 27.2725 62.9964 26.6603 62.9964C26.0482 62.9964 25.4421 62.8758 24.8767 62.6413C24.3112 62.4069 23.7976 62.0633 23.365 61.6301C22.9323 61.1974 22.589 60.6837 22.3548 60.1183C22.1205 59.5528 22 58.9468 22 58.3348C22 57.7228 22.1205 57.1168 22.3548 56.5514C22.589 55.986 22.9323 55.4722 23.365 55.0395C25.8009 52.5898 28.6987 50.6477 31.8904 49.3257C35.0821 48.0037 38.5044 47.328 41.9591 47.3379C45.4135 47.3283 48.8355 48.004 52.0269 49.326C55.2184 50.648 58.1158 52.5899 60.5516 55.0395C60.9847 55.472 61.3283 55.9857 61.5628 56.5512C61.7972 57.1166 61.9178 57.7227 61.9178 58.3348C61.9178 58.9469 61.7972 59.5531 61.5628 60.1185C61.3283 60.6839 60.9847 61.1976 60.5516 61.6301C60.118 62.0649 59.6026 62.4093 59.0351 62.6436C58.4676 62.8779 57.8593 62.9973 57.2453 62.995V62.995Z" fill="#19042D"/>
</svg>
