<?xml version="1.0" standalone="no"?>
<!DOCTYPE svg PUBLIC "-//W3C//DTD SVG 20010904//EN"
 "http://www.w3.org/TR/2001/REC-SVG-20010904/DTD/svg10.dtd">
<svg version="1.0" xmlns="http://www.w3.org/2000/svg"
 width="300.000000pt" height="302.000000pt" viewBox="0 0 300.000000 302.000000"
 preserveAspectRatio="xMidYMid meet">
<metadata>
Created by potrace 1.10, written by Peter Selinger 2001-2011
</metadata>
<g transform="translate(0.000000,302.000000) scale(0.100000,-0.100000)"
fill="#000000" stroke="none">
<path d="M1305 2963 c-422 -62 -808 -324 -1039 -704 -81 -135 -137 -284 -178
-474 -19 -92 -23 -139 -22 -285 0 -170 2 -191 44 -380 4 -19 15 -55 24 -80 10
-25 21 -58 26 -74 18 -57 100 -213 161 -306 41 -63 99 -132 173 -205 102 -102
231 -205 254 -205 6 0 12 -4 14 -9 2 -4 35 -24 73 -44 157 -79 244 -112 380
-145 98 -23 131 -26 300 -26 117 0 211 4 246 12 30 7 69 15 85 18 70 12 246
79 343 130 235 123 439 315 575 541 60 101 125 246 141 318 2 6 10 35 19 65
38 133 50 224 49 400 0 189 -15 290 -69 455 -153 465 -517 820 -985 959 -172
51 -421 67 -614 39z m515 -41 c280 -66 496 -186 701 -391 215 -215 345 -457
406 -757 28 -139 25 -435 -5 -573 -133 -594 -570 -1024 -1157 -1137 -124 -24
-369 -24 -490 -1 -204 40 -383 112 -553 224 -113 75 -308 270 -384 384 -116
173 -196 374 -235 584 -25 137 -22 371 5 512 120 607 578 1062 1177 1168 117
21 422 13 535 -13z"/>
<path d="M1348 2900 c-451 -52 -847 -328 -1057 -738 -81 -159 -153 -408 -149
-514 1 -40 1 -40 5 -8 37 349 217 689 483 912 186 156 383 252 622 305 131 28
419 26 558 -5 420 -94 772 -374 960 -762 23 -47 38 -74 34 -60 -13 49 -90 196
-148 285 -76 115 -242 281 -360 359 -228 151 -457 224 -726 231 -80 2 -180 0
-222 -5z"/>
<path d="M1385 2809 c-293 -32 -555 -155 -769 -360 -359 -342 -492 -859 -345
-1336 11 -36 22 -63 25 -61 2 3 -3 24 -11 48 -35 99 -55 240 -55 389 0 214 33
373 111 537 16 34 29 67 29 73 0 6 5 11 10 11 6 0 10 6 10 13 0 16 68 123 76
119 3 -2 15 14 26 35 11 21 28 46 37 56 16 17 19 14 65 -57 53 -84 123 -151
200 -191 l51 -26 -39 35 c-22 20 -45 36 -53 36 -7 0 -13 4 -13 8 0 4 -13 16
-30 25 -16 10 -39 31 -50 47 -19 27 -19 29 -3 24 10 -4 -1 12 -23 33 -51 49
-66 74 -54 93 7 12 19 10 67 -13 32 -15 67 -28 78 -30 11 -1 25 -6 31 -9 21
-13 190 -12 199 2 11 17 25 11 26 -12 1 -18 2 -19 6 -5 4 14 11 17 34 12 22
-5 29 -3 29 8 0 8 12 17 26 20 26 5 26 5 20 -52 -4 -34 0 -77 8 -111 l14 -55
1 40 c1 23 8 67 16 98 8 32 15 66 15 76 0 15 12 19 83 25 45 3 125 17 177 31
52 13 95 23 97 22 1 -1 3 -14 5 -27 2 -14 9 -34 16 -45 11 -18 12 -16 8 16 -3
20 -8 43 -11 51 -5 13 5 19 50 29 64 14 84 30 28 23 l-38 -5 30 14 c21 10 34
11 43 4 9 -7 17 -5 28 9 15 18 15 18 10 1 -5 -16 -2 -18 27 -12 17 4 38 14 45
23 10 14 14 14 21 4 7 -11 15 -11 46 2 50 21 49 21 68 -19 9 -19 21 -35 27
-35 16 0 12 15 -10 35 -40 36 -27 52 53 60 39 4 81 9 92 11 11 3 60 5 108 5
97 1 117 -7 202 -84 22 -20 43 -37 48 -37 4 0 7 -5 7 -10 0 -15 -71 -120 -81
-120 -5 0 -9 -7 -9 -15 0 -8 -4 -15 -8 -15 -4 0 -39 -30 -77 -66 -58 -54 -64
-63 -35 -48 51 25 156 130 197 196 35 56 58 76 47 41 -5 -15 -4 -16 5 -3 10
14 12 13 15 -10 1 -8 33 -45 116 -135 27 -29 103 -163 119 -210 8 -22 17 -42
20 -45 10 -8 51 -135 51 -158 0 -34 -32 -37 -58 -5 -81 100 -98 103 -156 26
-46 -63 -81 -71 -116 -25 -13 17 -17 19 -11 6 8 -16 7 -21 -5 -21 -7 0 -14 5
-14 10 0 6 -38 -29 -84 -77 -51 -53 -87 -83 -91 -76 -4 6 -14 9 -22 6 -9 -4
-21 -2 -28 4 -10 8 -13 6 -11 -6 3 -35 -20 -22 -60 34 -23 31 -51 76 -63 100
-26 51 -36 56 -15 7 7 -19 14 -37 14 -39 0 -9 -35 7 -56 26 -11 10 -23 16 -26
12 -4 -3 -17 2 -31 11 -20 13 -26 13 -31 3 -3 -7 -4 3 -1 21 3 23 -7 78 -30
161 -19 69 -39 152 -44 185 l-9 60 -2 -45 c-3 -68 -1 -84 36 -238 41 -168 40
-213 -1 -92 -24 68 -30 79 -33 57 -3 -23 -7 -28 -24 -24 -19 5 -19 5 -2 -14
15 -17 16 -26 7 -66 -6 -26 -9 -52 -6 -56 3 -5 45 -6 93 -2 69 5 93 4 117 -8
42 -22 99 -89 130 -152 l27 -55 -29 -175 c-25 -151 -32 -175 -47 -175 -10 0
-18 -4 -18 -10 0 -5 7 -7 15 -4 9 4 15 0 15 -10 0 -12 -11 -16 -49 -16 -26 0
-63 6 -82 12 l-34 13 35 5 34 5 -40 10 -39 11 -3 -77 c-2 -42 2 -115 8 -162
12 -99 2 -137 -36 -137 -13 0 -26 5 -29 10 -3 6 -1 10 5 10 6 0 9 4 6 8 -3 5
2 28 11 53 12 35 14 68 8 161 -7 114 -2 163 14 153 5 -2 11 19 14 48 4 41 1
59 -15 84 -10 18 -25 60 -33 95 -7 35 -14 52 -14 38 -1 -14 -4 -36 -7 -50 -3
-15 -2 -20 3 -14 5 8 16 -7 29 -41 20 -53 21 -54 2 -112 -16 -52 -17 -69 -7
-164 17 -165 -14 -271 -109 -368 -28 -28 -48 -51 -46 -51 25 0 78 37 109 74
26 32 44 46 56 43 36 -10 75 47 71 103 -13 209 -11 230 14 209 10 -8 14 -8 14
0 0 6 11 11 25 11 15 0 25 -6 25 -14 0 -9 7 -12 20 -9 17 5 20 0 21 -28 1 -32
2 -31 8 9 4 23 13 48 20 55 11 10 12 4 7 -33 -11 -80 -19 -115 -27 -120 -5 -3
4 -13 19 -22 19 -11 33 -14 42 -8 12 8 10 10 -7 10 -12 0 -24 4 -27 9 -3 5 3
58 14 117 38 216 80 469 79 484 0 8 -6 2 -13 -14 -7 -16 -16 -25 -19 -19 -10
16 5 93 18 93 23 0 45 -12 39 -21 -3 -5 10 -1 30 8 19 10 39 28 45 41 6 12 17
22 25 22 9 0 26 18 38 40 27 46 38 48 100 17 33 -17 48 -20 54 -12 5 6 28 39
50 73 l41 61 26 -27 c14 -15 35 -48 47 -74 l20 -46 45 25 c38 21 45 29 40 47
-46 165 -121 331 -202 445 -55 77 -196 226 -269 282 l-51 39 -104 0 c-172 0
-386 -40 -654 -121 -71 -22 -166 -51 -210 -64 -177 -53 -381 -68 -537 -40 -85
15 -168 43 -168 56 0 14 29 10 95 -10 93 -29 237 -44 345 -37 52 4 99 11 105
17 10 10 5 10 -150 10 -139 0 -325 29 -325 50 0 34 111 83 265 116 262 55 344
66 545 69 107 2 227 6 265 9 102 10 162 7 228 -7 l58 -14 -101 -23 c-56 -12
-100 -24 -97 -27 2 -2 39 3 83 13 50 11 126 17 206 17 70 1 124 4 120 8 -21
19 -228 120 -295 142 -172 59 -393 84 -562 65z m510 -82 c79 -24 242 -84 262
-97 15 -9 13 -10 -14 -5 -17 3 -95 14 -172 23 l-141 17 -20 38 c-11 20 -20 44
-20 52 0 14 3 14 28 1 15 -7 50 -21 77 -29z m-245 12 c101 -15 160 -37 160
-60 0 -16 -7 -19 -46 -19 -44 0 -64 10 -78 40 -3 9 -4 5 -2 -7 2 -13 -1 -26
-6 -29 -6 -4 -89 -8 -184 -9 l-174 -3 0 49 0 48 48 4 c60 6 198 -1 282 -14z
m-340 -29 c0 -16 -7 -30 -15 -34 -8 -3 -15 -12 -15 -19 0 -10 -21 -16 -75 -20
-96 -9 -200 -30 -348 -73 -66 -19 -121 -33 -124 -31 -5 6 315 167 332 167 7 0
18 7 25 15 7 8 16 15 21 15 12 0 -2 -33 -18 -43 -7 -4 -13 -17 -13 -28 0 -18
2 -18 23 6 23 28 137 73 182 73 21 0 25 -5 25 -28z m-174 -387 c-3 -10 -8 -35
-12 -56 -10 -57 -27 -58 -19 -1 4 27 8 55 10 62 7 19 27 14 21 -5z"/>
<path d="M1654 2425 c4 -16 9 -60 13 -97 3 -38 10 -68 14 -68 5 0 9 10 9 23 0
44 -21 152 -32 162 -7 7 -9 1 -4 -20z"/>
<path d="M1911 2390 c0 -3 11 -36 25 -75 13 -38 21 -55 18 -37 -3 17 -3 32 -1
32 5 0 63 -57 85 -84 7 -9 18 -16 25 -16 6 0 -20 33 -60 73 -39 39 -75 81 -81
92 -6 11 -11 18 -11 15z"/>
<path d="M1967 2367 c38 -50 133 -148 126 -130 -4 10 -38 50 -76 88 -39 39
-61 58 -50 42z"/>
<path d="M1553 2326 c-8 -13 -45 -36 -58 -36 -3 0 -4 4 -1 9 3 5 -3 11 -14 14
-16 4 -20 0 -20 -18 0 -32 -17 -41 -39 -21 -24 22 -34 20 -20 -3 10 -15 8 -27
-10 -65 -13 -25 -26 -44 -31 -41 -4 2 -13 41 -21 85 -7 44 -16 80 -21 80 -8 0
-1 -75 13 -130 5 -19 9 -39 9 -44 0 -19 -32 20 -62 76 -17 32 -33 57 -35 55
-2 -3 2 -26 9 -53 10 -37 26 -63 71 -108 32 -32 61 -56 64 -52 4 3 2 11 -4 17
-8 8 -5 24 12 58 13 25 26 58 30 73 4 15 13 29 21 32 19 7 18 -27 -1 -90 -8
-27 -15 -51 -15 -53 0 -2 15 16 34 39 19 24 42 67 50 94 l16 51 -4 -49 c-4
-54 7 -46 24 17 12 42 35 49 44 13 3 -13 22 -38 41 -55 19 -17 35 -40 35 -51
0 -11 -13 -51 -30 -88 -16 -37 -23 -58 -14 -47 9 11 23 35 31 54 8 18 16 31
19 29 2 -3 -1 -41 -6 -86 -10 -80 -30 -151 -51 -181 -6 -9 5 2 25 24 48 53 46
35 -5 -37 -22 -32 -36 -58 -30 -58 6 0 15 9 21 21 7 11 14 18 17 16 6 -7 -16
-50 -31 -59 -6 -4 -17 -6 -24 -3 -7 3 -11 1 -8 -4 3 -4 -6 -23 -19 -41 -14
-19 -25 -29 -25 -23 0 6 7 16 15 23 26 22 16 27 -30 16 -27 -6 -45 -16 -45
-24 0 -10 7 -12 27 -7 23 5 25 4 14 -9 -15 -18 -91 -22 -91 -6 0 6 7 10 15 10
8 0 15 5 15 10 0 11 -7 14 -52 24 -21 5 -28 12 -28 31 0 19 -10 30 -42 46 -88
44 -142 100 -163 167 -7 23 -6 23 24 8 45 -24 44 -20 -4 30 -45 46 -55 64 -34
64 5 0 8 4 4 9 -3 6 4 15 17 22 16 9 23 9 26 0 2 -6 8 -9 13 -5 5 3 9 1 9 -5
0 -5 -5 -11 -11 -13 -6 -2 0 -12 12 -23 12 -11 19 -14 14 -6 -6 11 -3 13 13 9
12 -4 20 -2 16 3 -3 5 0 9 5 9 17 0 13 18 -9 40 -11 11 -18 20 -15 20 3 0 -1
15 -9 34 -11 26 -11 36 -3 40 9 3 9 5 0 5 -7 1 -13 12 -13 26 0 14 -5 25 -11
25 -7 0 -18 8 -25 18 -11 14 -11 11 -4 -23 5 -22 8 -41 7 -41 -1 -1 10 -20 25
-43 24 -36 25 -41 9 -41 -28 0 -41 23 -54 89 -6 34 -15 61 -20 61 -15 0 -1
-76 21 -117 l20 -39 -31 -12 c-16 -6 -34 -9 -38 -6 -5 3 -6 -2 -3 -10 3 -9 9
-16 13 -16 3 0 6 -11 6 -25 0 -14 -3 -25 -6 -25 -12 0 -38 36 -57 79 -15 33
-21 39 -24 25 -6 -27 10 -62 54 -116 21 -26 41 -62 45 -80 7 -39 48 -124 64
-133 13 -9 2 -100 -17 -135 l-13 -25 -1 30 c-1 26 -4 21 -24 -30 -33 -84 -86
-189 -101 -198 -17 -9 -55 -70 -55 -88 0 -8 12 4 26 26 46 68 50 62 17 -25 -4
-8 -5 -22 -4 -32 1 -9 -17 -36 -41 -60 l-43 -43 -3 36 c-2 19 9 84 23 144 14
59 23 110 21 112 -6 7 -67 -168 -82 -237 -7 -36 -14 -79 -14 -96 0 -39 27
-131 41 -140 8 -4 8 0 0 14 -12 23 -15 122 -3 137 4 6 16 17 26 25 19 15 19
15 0 -15 l-19 -30 43 34 c29 23 40 36 31 41 -18 12 69 71 202 137 78 40 120
67 132 86 27 46 97 33 97 -18 0 -25 -18 -45 -41 -45 -19 0 -24 -17 -36 -110
-7 -59 -8 -62 -14 -30 -4 23 -7 2 -8 -60 0 -58 3 -90 8 -81 6 9 11 -4 16 -40
8 -67 50 -254 64 -292 8 -21 8 -26 -1 -21 -8 5 -9 2 -5 -10 4 -10 7 -20 7 -22
0 -3 4 -2 10 1 6 3 7 -1 4 -10 -7 -16 24 -71 33 -61 4 3 15 -1 25 -11 24 -22
23 -12 -7 47 -14 27 -25 58 -25 70 0 11 -4 20 -9 20 -5 0 -11 15 -14 33 -16
103 -30 174 -38 192 -27 67 -30 266 -5 294 9 10 13 20 10 23 -9 10 15 48 31
48 8 0 20 -9 27 -20 7 -11 19 -20 26 -20 7 0 10 -4 7 -10 -3 -5 -2 -10 4 -10
5 0 12 -8 15 -17 4 -10 16 -29 27 -43 17 -21 19 -22 10 -3 -6 12 -9 28 -6 35
3 7 -20 46 -50 87 -31 40 -53 76 -50 79 3 3 5 -1 5 -8 0 -7 2 -11 5 -8 10 9
-17 58 -28 51 -12 -7 -3 34 19 85 20 48 28 35 9 -17 -8 -23 -10 -39 -5 -36 6
3 10 -2 10 -13 0 -10 10 -27 22 -38 l22 -19 -17 25 c-23 33 -21 69 5 97 12 13
16 23 10 23 -7 0 -12 -4 -12 -10 0 -5 -4 -10 -10 -10 -6 0 -6 9 -1 23 9 22 7
23 -31 23 -39 -1 -41 -3 -60 -51 -11 -27 -25 -52 -31 -54 -6 -2 -21 -15 -34
-27 -13 -13 -63 -40 -110 -60 -132 -54 -161 -71 -166 -96 -4 -21 -4 -21 -6 3
0 14 28 83 65 155 l66 128 81 40 c45 22 85 42 90 44 4 2 7 -8 7 -22 0 -33 13
-40 85 -41 113 -3 160 39 203 182 17 56 36 111 42 123 19 35 23 15 5 -22 l-16
-33 20 25 c14 16 19 33 16 48 -3 13 -2 21 3 18 24 -15 40 137 22 209 -6 22 -8
10 -9 -47 -1 -82 -25 -162 -61 -208 l-20 -25 15 45 c23 66 10 281 -15 265 -8
-5 -60 55 -60 68 0 4 10 8 23 8 13 1 9 4 -13 8 -19 3 -36 3 -38 -1 -7 -15 -24
-8 -18 7 7 19 0 20 -11 1z m-225 -578 c2 -12 -5 -19 -22 -24 -14 -3 -26 -9
-26 -13 0 -4 -7 -16 -16 -27 -15 -18 -15 -18 -9 4 4 15 2 22 -7 22 -10 0 -10
2 1 9 9 6 10 11 2 15 -6 4 -10 22 -8 41 l2 34 40 -22 c22 -12 41 -30 43 -39z"/>
<path d="M2340 2248 c-30 -34 -73 -74 -94 -90 -21 -15 -36 -28 -31 -28 16 0
104 72 137 112 70 86 63 89 -12 6z"/>
<path d="M580 2247 c0 -19 73 -115 122 -160 53 -48 160 -97 214 -97 13 0 25
-4 28 -8 3 -5 19 -7 37 -4 20 3 34 0 40 -9 7 -11 9 -10 9 4 0 11 -8 17 -23 17
-38 0 -170 40 -219 67 -51 28 -138 106 -181 163 -15 19 -27 31 -27 27z"/>
<path d="M1548 2170 c-45 -6 -88 -32 -88 -53 0 -6 6 -3 13 6 6 9 20 15 29 14
24 -4 35 -17 15 -17 -20 0 -22 -11 -6 -27 8 -8 17 -5 34 13 14 15 29 22 39 18
12 -4 16 0 16 15 0 14 5 19 15 15 8 -4 12 -11 8 -18 -3 -6 3 -2 15 8 12 11 21
20 20 21 -10 8 -71 11 -110 5z"/>
<path d="M1928 2120 c2 -8 6 -27 9 -42 4 -19 12 -28 25 -28 16 0 17 3 8 20 -6
11 -14 20 -18 20 -5 0 -13 10 -18 23 -6 12 -8 15 -6 7z"/>
<path d="M2170 2126 c0 -2 29 -33 65 -67 36 -35 78 -81 93 -103 15 -23 34 -42
41 -44 8 -2 -10 25 -40 59 -30 34 -72 83 -94 110 -33 40 -65 62 -65 45z"/>
<path d="M990 2088 c4 -18 11 -46 15 -62 3 -15 8 -26 11 -23 8 8 -17 117 -27
117 -4 0 -4 -15 1 -32z"/>
<path d="M2002 2089 c13 -38 66 -140 80 -154 5 -5 3 6 -5 25 -9 19 -21 50 -27
68 -7 17 -18 32 -24 32 -6 1 0 8 14 16 14 8 17 13 7 10 -11 -3 -22 2 -29 14
-19 30 -28 24 -16 -11z"/>
<path d="M1031 2037 c-1 -15 6 -41 14 -56 8 -16 11 -31 8 -35 -4 -3 -1 -6 6
-6 7 0 9 -5 5 -12 -4 -7 -3 -8 4 -4 9 5 8 15 -3 36 -8 16 -19 46 -24 67 -8 33
-9 35 -10 10z"/>
<path d="M1978 1984 c-3 -3 -4 -14 -1 -25 4 -15 8 -17 19 -8 18 15 18 39 1 39
-8 0 -16 -3 -19 -6z"/>
<path d="M1732 1909 c-23 -52 -29 -84 -13 -75 9 6 45 115 39 121 -2 2 -13 -19
-26 -46z"/>
<path d="M2040 1948 c0 -16 69 -177 83 -193 9 -11 24 -29 32 -40 9 -11 -12 36
-46 105 -61 124 -69 138 -69 128z"/>
<path d="M1605 1908 c-36 -43 -121 -114 -165 -138 l-35 -19 29 -1 c48 0 154
88 192 161 19 38 12 37 -21 -3z"/>
<path d="M1080 1913 c0 -15 62 -78 92 -94 18 -9 17 -5 -7 17 -16 16 -42 43
-57 59 -15 17 -28 25 -28 18z"/>
<path d="M1430 1893 c-19 -8 -47 -12 -63 -9 -17 3 -26 2 -22 -4 9 -15 62 -12
95 5 17 9 30 18 30 20 0 6 3 7 -40 -12z"/>
<path d="M993 1863 c-31 -69 -206 -273 -235 -273 -4 0 -10 12 -14 28 -23 101
-104 91 -104 -13 0 -45 -13 -65 -27 -43 -4 7 -39 41 -76 76 -51 46 -75 62 -97
62 -36 0 -47 -15 -17 -25 12 -4 24 -8 27 -9 25 -8 52 -31 66 -55 9 -16 41 -43
71 -61 74 -45 74 -52 -2 -27 -68 22 -94 18 -103 -14 -3 -12 -2 -12 6 0 8 11
15 -4 31 -56 12 -39 21 -75 21 -80 0 -14 30 -72 40 -78 5 -3 12 0 16 7 4 7 3
10 -1 5 -11 -10 -34 54 -44 123 -10 68 2 85 51 72 30 -7 33 -12 36 -51 l3 -42
-32 16 c-46 24 -43 14 8 -24 l45 -33 -7 40 c-8 52 5 59 41 22 16 -16 33 -30
38 -30 17 0 35 35 36 70 0 28 11 46 55 94 30 33 55 62 55 66 0 4 12 12 26 19
24 10 25 10 19 -10 -4 -12 -39 -88 -79 -170 -46 -98 -75 -148 -84 -144 -10 3
-10 0 -1 -16 10 -19 15 -13 61 67 27 49 62 114 78 145 29 56 103 259 97 265
-2 2 -22 -22 -45 -54 -46 -64 -199 -219 -207 -211 -3 3 30 43 72 90 130 144
200 242 191 270 -2 5 -9 -3 -15 -18z m-286 -196 c-4 -10 5 -63 28 -162 23 -97
16 -105 -41 -52 -34 31 -35 34 -26 75 6 23 8 60 5 81 -4 27 0 42 12 54 20 20
29 22 22 4z"/>
<path d="M1061 1838 c-1 -11 -6 -15 -16 -12 -9 4 -15 0 -15 -9 0 -8 6 -18 13
-20 10 -4 10 -6 0 -6 -7 -1 -13 -14 -13 -29 0 -15 -7 -54 -15 -87 -17 -65 -23
-92 -24 -115 -1 -13 -2 -13 -11 0 -5 8 -10 10 -10 4 0 -5 -16 -27 -35 -48 -40
-44 -96 -133 -126 -200 -15 -34 -17 -51 -10 -64 8 -14 11 -14 12 -2 5 57 11
76 33 115 24 44 128 176 134 171 1 -2 -15 -40 -38 -84 -22 -45 -40 -87 -40
-93 0 -17 -62 -119 -72 -119 -4 0 -8 -5 -8 -11 0 -11 55 18 71 37 5 7 16 38
25 70 19 75 73 194 88 194 29 0 79 244 63 306 -4 16 -5 16 -6 2z"/>
<path d="M1760 1758 c0 -17 -3 -19 -12 -10 -15 15 -28 15 -28 1 0 -5 5 -7 10
-4 16 10 12 -10 -15 -77 -13 -35 -31 -90 -40 -122 -8 -32 -16 -61 -19 -63 -2
-2 -11 3 -20 12 -22 23 -20 59 9 145 29 86 27 103 -4 28 l-21 -53 4 47 c4 59
-7 54 -30 -15 -31 -89 -20 -280 17 -302 5 -4 5 5 -1 20 -6 15 -10 56 -9 93 1
70 5 62 23 -39 9 -48 75 -150 117 -179 l34 -23 -27 29 c-78 85 -76 234 6 433
37 88 40 101 22 101 -10 0 -16 -9 -16 -22z"/>
<path d="M2814 1728 c4 -29 9 -69 12 -88 5 -32 1 -40 -53 -93 -48 -46 -66 -58
-94 -59 -20 0 -96 23 -189 59 -183 72 -229 87 -237 79 -7 -7 -103 -573 -102
-606 0 -23 1 -23 8 -5 26 63 62 236 90 428 11 77 21 141 24 143 6 6 70 -17 85
-31 10 -9 10 -23 -4 -71 -24 -90 -43 -176 -49 -235 -4 -29 -10 -60 -15 -69 -5
-10 -7 -28 -5 -41 3 -14 -1 -62 -8 -107 -8 -45 -11 -82 -7 -82 6 0 26 96 91
443 21 113 35 167 44 167 7 0 11 -8 9 -17 -2 -10 -26 -142 -54 -293 -27 -151
-52 -285 -55 -297 -4 -18 -1 -23 13 -23 10 0 44 -9 75 -19 32 -11 57 -18 57
-16 0 7 -60 33 -90 40 -26 6 -30 11 -30 41 0 19 7 65 14 102 30 138 76 384 76
407 0 52 7 56 63 33 29 -12 75 -29 102 -39 37 -13 49 -23 48 -36 -1 -10 -4
-40 -7 -68 -5 -46 -4 -45 11 18 16 67 16 67 51 67 l35 0 -7 -52 c-5 -36 -4
-50 3 -43 9 9 31 83 33 113 1 7 14 22 30 33 l28 20 0 -80 c0 -69 -3 -81 -16
-81 -24 0 -104 -52 -104 -67 0 -8 9 -4 21 8 17 17 23 18 37 7 9 -7 19 -14 21
-15 2 -2 -4 -13 -15 -25 l-19 -23 25 20 c14 11 28 25 32 30 11 15 10 2 -8 -75
-11 -51 -20 -71 -35 -75 -10 -4 -20 -9 -20 -13 -9 -56 -8 -68 10 -68 38 0 91
246 91 417 0 54 4 101 10 104 13 8 13 100 -1 148 -16 57 -33 47 -25 -15z"/>
<path d="M1882 1690 c-16 -90 -38 -144 -83 -195 -27 -31 -29 -36 -11 -26 61
33 115 147 110 236 l-3 60 -13 -75z"/>
<path d="M2581 1685 c30 -33 68 -81 83 -107 15 -27 30 -48 33 -48 19 0 -93
151 -141 190 -17 13 -6 -3 25 -35z"/>
<path d="M2620 1675 c35 -36 66 -65 67 -65 2 0 -5 13 -15 28 -30 50 -81 102
-99 102 -12 0 3 -21 47 -65z"/>
<path d="M2380 1698 c14 -6 53 -24 88 -39 34 -16 70 -26 80 -23 12 4 14 3 4
-4 -10 -7 -7 -13 14 -27 15 -10 46 -34 69 -54 23 -20 15 -10 -19 23 -47 45
-55 57 -36 52 64 -19 -44 34 -120 58 -82 26 -126 34 -80 14z"/>
<path d="M395 1588 c9 -123 13 -134 56 -169 21 -17 39 -28 39 -24 0 3 10 0 23
-6 19 -10 18 -7 -7 19 -15 17 -40 35 -55 41 -25 11 -26 13 -24 94 2 78 -9 127
-30 127 -5 0 -6 -35 -2 -82z"/>
<path d="M2355 1641 c78 -33 145 -59 145 -55 0 8 -101 50 -135 57 -21 5 -24 4
-10 -2z"/>
<path d="M1250 1617 c3 -3 29 -15 59 -26 60 -22 84 -21 30 2 -38 15 -97 31
-89 24z"/>
<path d="M1275 1399 c-33 -17 -64 -35 -70 -41 -12 -11 126 51 140 64 19 17
-11 7 -70 -23z"/>
<path d="M2482 1362 c-59 -9 -29 -68 58 -112 33 -16 63 -30 67 -30 4 1 -14 12
-41 27 -67 34 -81 49 -56 56 11 3 20 13 20 22 0 12 6 16 20 12 11 -3 18 -1 15
3 -8 13 -58 26 -83 22z"/>
<path d="M1587 1308 c-6 -17 34 -92 51 -96 8 -1 3 18 -14 50 -32 64 -30 62
-37 46z"/>
<path d="M1306 1281 c-52 -34 -122 -109 -149 -159 -37 -69 -59 -171 -52 -240
5 -40 2 -70 -9 -101 -18 -50 -13 -50 12 0 19 37 42 50 42 23 0 -10 -33 -50
-73 -89 -76 -75 -119 -95 -201 -95 -35 0 -86 17 -97 33 -3 5 -10 8 -15 6 -5
-1 -20 19 -32 44 -58 113 -13 260 125 409 46 50 53 68 26 68 -9 0 -24 7 -34
16 -11 10 -19 12 -24 4 -4 -6 8 -16 27 -24 l33 -14 -25 -10 c-14 -5 -38 -29
-55 -52 -16 -23 -37 -50 -45 -59 -8 -9 -31 -56 -52 -104 l-36 -88 14 -60 c8
-33 21 -74 30 -90 l15 -30 -28 17 c-21 13 -18 8 12 -20 64 -61 107 -78 186
-75 37 2 71 0 76 -4 4 -5 9 -30 9 -55 1 -26 7 -71 14 -101 11 -53 11 -54 -19
-81 -24 -23 -27 -29 -15 -34 10 -4 23 3 36 19 11 14 28 25 38 25 18 0 18 2 3
37 -22 53 -32 246 -11 238 9 -4 14 2 15 17 1 13 7 24 13 26 6 2 31 29 55 59
34 41 45 50 45 34 0 -11 6 -24 14 -28 8 -4 15 -12 17 -18 5 -26 15 -37 62 -72
52 -38 54 -39 126 -49 31 -5 42 -3 37 5 -4 6 -2 11 3 11 6 0 11 -9 11 -20 0
-11 5 -20 10 -20 6 0 10 6 10 14 0 8 5 18 11 22 14 8 6 -34 -22 -128 -14 -43
-25 -65 -33 -62 -8 3 -18 -10 -25 -33 -7 -21 -15 -43 -17 -50 -4 -8 4 -11 22
-10 21 2 33 -6 51 -32 13 -19 24 -46 24 -60 2 -24 2 -24 6 -3 3 13 -5 39 -16
58 -12 19 -21 41 -21 49 0 7 -6 16 -12 18 -7 3 -1 6 14 6 35 1 65 -41 78 -110
6 -28 10 -54 10 -56 0 -2 5 -1 10 2 15 10 12 60 -7 102 -18 38 -45 69 -77 88
-16 9 -15 14 6 65 13 30 32 68 42 83 16 23 17 30 6 37 -21 13 4 37 51 52 22 6
38 13 36 14 -1 2 -36 -2 -77 -7 -82 -12 -130 -3 -212 37 -99 50 -158 148 -160
268 -3 121 52 235 148 308 47 35 61 48 52 48 -2 0 -16 -9 -32 -19z"/>
<path d="M617 1283 c-2 -5 6 -30 19 -58 21 -47 22 -48 19 -16 -2 19 -8 37 -13
40 -5 3 -8 14 -6 24 2 17 -11 24 -19 10z"/>
<path d="M2672 1243 c-24 -9 -41 -17 -39 -20 7 -7 85 16 92 27 8 12 1 11 -53
-7z"/>
<path d="M1596 1210 c3 -19 10 -44 14 -55 9 -19 31 -92 52 -165 8 -32 25 -102
47 -203 13 -58 21 -56 22 4 1 46 3 49 9 24 7 -28 8 -26 9 15 1 35 -2 41 -11
32 -10 -10 -17 11 -35 100 -12 61 -28 115 -35 119 -7 4 -10 11 -6 14 10 10
-20 87 -48 120 l-24 30 6 -35z"/>
<path d="M756 1179 c-14 -11 -31 -17 -37 -13 -6 3 -15 1 -19 -7 -7 -10 -11
-10 -24 0 -14 12 -15 10 -4 -20 6 -19 12 -35 13 -36 0 -2 25 20 54 47 55 52
63 65 17 29z"/>
<path d="M2426 1141 c-27 -10 -3 -25 26 -15 17 5 20 3 15 -10 -4 -9 -2 -16 3
-16 6 0 10 9 10 19 0 11 6 22 13 24 6 3 -1 5 -18 6 -16 0 -39 -4 -49 -8z"/>
<path d="M2734 1044 c-4 -10 -16 -32 -27 -48 l-20 -28 20 11 c20 10 48 69 38
79 -2 3 -8 -4 -11 -14z"/>
<path d="M1371 1017 c-1 -30 29 -160 36 -153 2 2 -3 30 -11 62 -8 33 -17 73
-19 89 l-4 30 -2 -28z"/>
<path d="M327 1003 c-3 -15 1 -39 9 -53 12 -23 13 -23 14 -4 0 11 -5 25 -12
32 -9 9 -8 12 5 12 9 0 17 5 17 11 0 5 -4 7 -10 4 -6 -3 -7 1 -4 9 3 9 2 16
-4 16 -5 0 -12 -12 -15 -27z"/>
<path d="M784 959 c-14 -28 -24 -53 -22 -55 2 -2 16 21 31 51 15 30 25 55 22
55 -3 0 -16 -23 -31 -51z"/>
<path d="M617 969 c-10 -36 -8 -141 2 -135 4 3 6 16 4 29 -3 13 -1 39 5 58 5
19 6 43 2 53 -6 18 -7 18 -13 -5z"/>
<path d="M2200 953 c0 -15 2 -16 10 -3 10 16 7 21 35 -59 9 -27 12 -47 6 -50
-5 -4 9 -26 31 -50 23 -24 38 -35 34 -25 -5 11 -22 55 -38 99 -28 73 -49 105
-70 105 -4 0 -8 -8 -8 -17z"/>
<path d="M2713 837 c-11 -18 -26 -42 -32 -55 -19 -37 -141 -183 -194 -232
-112 -103 -135 -123 -202 -169 -209 -145 -447 -224 -705 -236 -50 -2 -90 -2
-90 1 0 13 62 27 116 25 34 -1 101 8 148 19 48 11 101 20 119 20 18 0 41 7 51
15 10 8 22 12 26 10 5 -3 10 2 14 10 7 19 13 19 -98 -10 -141 -36 -255 -48
-396 -42 -143 6 -248 25 -370 68 -47 17 -94 33 -105 36 -43 12 19 -34 80 -60
33 -13 71 -30 85 -36 26 -11 24 -11 -60 3 -8 1 -31 9 -50 18 -19 8 -57 24 -85
33 -114 41 -298 170 -433 304 -60 59 -74 70 -44 34 173 -209 458 -376 751
-440 159 -35 385 -37 543 -5 394 81 725 315 924 654 37 65 43 88 7 35z"/>
<path d="M726 802 c-11 -18 12 -108 32 -124 14 -12 14 -10 2 11 -7 14 -15 47
-19 75 -4 33 -9 46 -15 38z"/>
<path d="M1659 424 c-16 -19 -21 -44 -9 -44 11 0 20 14 25 40 5 24 2 25 -16 4z"/>
<path d="M1743 404 c12 -14 36 -35 52 -47 23 -15 20 -9 -15 26 -47 50 -76 65
-37 21z"/>
<path d="M1869 287 c6 -8 7 -17 3 -22 -4 -4 3 -3 15 4 36 18 37 31 2 31 -25 0
-29 -3 -20 -13z"/>
</g>
</svg>
