<svg id="svg" version="1.1" xmlns="http://www.w3.org/2000/svg" xmlns:xlink="http://www.w3.org/1999/xlink" width="400" height="400" viewBox="0, 0, 400,400"><g id="svgg"><path id="path0" d="M187.898 36.335 C 70.974 46.068,1.052 169.534,53.510 273.633 C 103.311 372.457,234.374 394.684,313.976 317.806 C 382.880 251.260,380.219 140.200,308.203 76.841 C 275.400 47.980,230.322 32.803,187.898 36.335 M208.984 49.628 C 325.590 56.957,389.943 187.759,324.573 284.570 C 260.446 379.542,116.825 370.047,65.354 267.433 C 13.533 164.118,93.807 42.388,208.984 49.628 M143.359 138.481 L 143.359 168.369 157.520 168.267 L 171.680 168.164 171.782 152.220 L 171.884 136.276 191.118 136.431 C 212.172 136.602,212.851 136.667,220.813 139.278 C 274.846 156.998,274.846 243.002,220.813 260.722 C 212.851 263.333,212.172 263.398,191.118 263.569 L 171.884 263.724 171.782 247.780 L 171.680 231.836 157.520 231.733 L 143.359 231.631 143.359 261.519 L 143.359 291.406 173.926 291.406 C 209.486 291.406,214.800 291.065,226.563 288.031 C 266.728 277.670,288.435 246.785,288.435 200.000 C 288.435 153.215,266.728 122.330,226.563 111.969 C 214.800 108.935,209.486 108.594,173.926 108.594 L 143.359 108.594 143.359 138.481 M120.313 200.000 L 120.313 213.672 165.820 213.672 L 211.328 213.672 211.328 200.000 L 211.328 186.328 165.820 186.328 L 120.313 186.328 120.313 200.000 " stroke="none" fill="#2c2424" fill-rule="evenodd"></path><path id="path1" d="M186.133 14.701 C 159.252 17.379,139.663 22.687,118.555 33.011 C 44.059 69.445,2.997 150.030,17.045 232.227 C 30.086 308.539,91.461 369.914,167.773 382.955 C 192.953 387.259,220.796 386.275,244.988 380.229 C 339.641 356.572,399.474 264.435,382.955 167.773 C 369.182 87.179,303.821 25.646,221.094 15.392 C 216.086 14.771,190.502 14.266,186.133 14.701 M217.969 36.899 C 317.164 48.596,383.099 143.390,359.119 239.830 C 338.410 323.113,255.491 376.760,171.094 361.479 C 77.659 344.560,17.975 252.290,40.881 160.170 C 60.528 81.155,137.702 27.434,217.969 36.899 M190.234 49.642 C 103.274 55.135,38.584 134.520,50.776 220.781 C 62.418 303.143,138.755 360.818,220.781 349.224 C 303.140 337.583,360.817 261.243,349.224 179.219 C 338.174 101.041,269.003 44.666,190.234 49.642 M208.789 108.991 C 259.752 113.692,288.435 146.468,288.435 200.000 C 288.435 246.785,266.728 277.670,226.563 288.031 C 214.800 291.065,209.486 291.406,173.926 291.406 L 143.359 291.406 143.359 261.519 L 143.359 231.631 157.520 231.733 L 171.680 231.836 171.782 247.780 L 171.884 263.724 191.118 263.569 C 212.172 263.398,212.851 263.333,220.813 260.722 C 274.846 243.002,274.846 156.998,220.813 139.278 C 212.851 136.667,212.172 136.602,191.118 136.431 L 171.884 136.276 171.782 152.220 L 171.680 168.164 157.520 168.267 L 143.359 168.369 143.359 138.481 L 143.359 108.594 173.926 108.594 C 191.514 108.594,206.317 108.763,208.789 108.991 M211.328 200.000 L 211.328 213.672 165.820 213.672 L 120.313 213.672 120.313 200.000 L 120.313 186.328 165.820 186.328 L 211.328 186.328 211.328 200.000 " stroke="none" fill="#f3cb93" fill-rule="evenodd"></path></g></svg>