<?xml version="1.0" encoding="UTF-8" standalone="no"?>
<!-- Created with Inkscape (http://www.inkscape.org/) -->

<svg
   version="1.1"
   id="svg2"
   xml:space="preserve"
   width="1365.3333"
   height="1365.3333"
   viewBox="0 0 1365.3333 1365.3333"
   sodipodi:docname="WDoge Symbol.ai"
   xmlns:inkscape="http://www.inkscape.org/namespaces/inkscape"
   xmlns:sodipodi="http://sodipodi.sourceforge.net/DTD/sodipodi-0.dtd"
   xmlns="http://www.w3.org/2000/svg"
   xmlns:svg="http://www.w3.org/2000/svg"><defs
     id="defs6"><clipPath
       clipPathUnits="userSpaceOnUse"
       id="clipPath16"><path
         d="M 0,1024 H 1024 V 0 H 0 Z"
         id="path14" /></clipPath></defs><sodipodi:namedview
     id="namedview4"
     pagecolor="#ffffff"
     bordercolor="#666666"
     borderopacity="1.0"
     inkscape:pageshadow="2"
     inkscape:pageopacity="0.0"
     inkscape:pagecheckerboard="0" /><g
     id="g8"
     inkscape:groupmode="layer"
     inkscape:label="WDoge Symbol"
     transform="matrix(1.3333333,0,0,-1.3333333,0,1365.3333)"><g
       id="g10"><g
         id="g12"
         clip-path="url(#clipPath16)"><g
           id="g18"
           transform="translate(987,512)"><path
             d="m 0,0 c 0,-262.335 -212.665,-475 -475,-475 -262.335,0 -475,212.665 -475,475 0,262.335 212.665,475 475,475 C -212.665,475 0,262.335 0,0"
             style="fill:#f3ce92;fill-opacity:1;fill-rule:nonzero;stroke:none"
             id="path20" /></g><g
           id="g22"
           transform="translate(511.9988,897.9575)"><path
             d="m 0,0 c -212.818,0 -385.958,-173.14 -385.958,-385.958 0,-212.817 173.14,-385.957 385.958,-385.957 212.818,0 385.958,173.14 385.958,385.957 C 385.958,-173.14 212.818,0 0,0 m 0,-805.742 c -231.469,0 -419.785,188.315 -419.785,419.784 0,231.469 188.316,419.785 419.785,419.785 231.469,0 419.785,-188.316 419.785,-419.785 0,-231.469 -188.316,-419.784 -419.785,-419.784"
             style="fill:#282425;fill-opacity:1;fill-rule:nonzero;stroke:none"
             id="path24" /></g><g
           id="g26"
           transform="translate(539.4813,546.8459)"><path
             d="m 0,0 h -99.963 -72.747 -58.114 V -18.283 -34.846 -51.408 -69.692 H -172.71 -99.963 0 1.322 v 34.846 L 1.322,0 Z"
             style="fill:#282425;fill-opacity:1;fill-rule:nonzero;stroke:none"
             id="path28" /></g><g
           id="g30"
           transform="translate(504.8445,746.0495)"><path
             d="m 0,0 h -138.073 v -152.399 h 72.747 v 82.038 H 8.295 c 46.768,0 86.72,-17.183 115.534,-49.693 26.437,-29.826 40.995,-70.31 40.995,-113.995 0,-43.686 -14.558,-84.17 -40.995,-113.996 -28.814,-32.51 -68.766,-49.693 -115.534,-49.693 h -73.621 v 82.038 h -72.747 V -468.099 H 0 c 146.555,0 234.05,87.496 234.05,234.05 C 234.05,-87.495 146.555,0 0,0"
             style="fill:#282425;fill-opacity:1;fill-rule:nonzero;stroke:none"
             id="path32" /></g></g></g></g></svg>
