<svg width="360" height="360" viewBox="0 0 360 360" fill="none">
<path fill="#292325" d="M 11.3926,3.8150723 C 5.5368,4.304141 2.0351,10.485976 4.663,15.699455 c 2.4943,4.94938 9.0576,6.061198 13.0451,2.213852 C 21.1577,14.577856 21.024,9.0155075 17.418,5.8430791 15.7747,4.3986945 13.5184,3.6390066 11.3926,3.8150723 M 12.449,4.4802058 C 18.2885,4.8486385 21.5131,11.398905 18.2363,16.247212 15.0248,21.004226 7.8322,20.528198 5.2564,15.389711 2.6611,10.215357 6.6813,4.1182948 12.449,4.4802059 M 9.1625,8.9307354 v 1.4965506 l 0.7107,-0.0032 0.7076,-0.0066 0.01,-0.7988135 v -0.798813 l 0.9651,0.0098 c 1.0531,0.0066 1.0857,0.0098 1.4867,0.140201 2.7062,0.886845 2.7062,5.1971765 0,6.0840215 -0.401,0.130418 -0.4336,0.13368 -1.4867,0.1402 l -0.9651,0.0098 v -0.798813 l -0.01,-0.798813 -0.7076,-0.0066 -0.7107,-0.0032 v 2.993103 h 1.5324 c 1.7802,0 2.0443,-0.0163 2.6344,-0.169544 2.0117,-0.518414 3.0975,-2.063871 3.0975,-4.408144 0,-2.3442735 -1.0858,-3.8897315 -3.0975,-4.4081445 -0.5901,-0.153231 -0.8542,-0.169533 -2.6344,-0.169533 H 9.1625 v 1.496552 M 8.0083,12.011883 v 0.684696 h 4.5581 V 11.327175 H 8.0083 v 0.684697"/>
<path fill="#F7D592" d="M 11.8554,16.585373 H 9.1525 v -2.980062 h 1.4248 v 1.604148 h 1.4411 c 0.9129,0 1.6954,-0.335828 2.2595,-0.971618 0.5184,-0.583622 0.8021,-1.375915 0.8021,-2.230156 0,-0.854241 -0.2837,-1.646533 -0.8021,-2.2301575 -0.5641,-0.635791 -1.3466,-0.974878 -2.2595,-0.974878 H 10.5773 V 10.410059 H 9.1525 V 7.4267355 h 2.7029 c 2.8659,0 4.5777,1.711741 4.5777,4.5809495 0,2.865946 -1.7118,4.577688 -4.5777,4.577688 M 8.0146,12.330471 v -1.004222 h 4.545 v 1.362872 h -4.545 z m 3.981,-7.8772765 c -4.1636,0 -7.5545,3.3908799 -7.5545,7.5544895 0,4.163611 3.3909,7.55123 7.5545,7.55123 4.1636,0 7.5512,-3.387619 7.5512,-7.55123 0,-4.1636096 -3.3876,-7.5544894 -7.5512,-7.5544894"/>
<path fill="#F7D592" d="m 11.9956,20.220787 c -4.5288,0 -8.2164,-3.684321 -8.2164,-8.213103 0,-4.5287815 3.6876,-8.2163631 8.2164,-8.2163631 4.5288,0 8.2131,3.6875816 8.2131,8.2163631 0,4.528782 -3.6843,8.213103 -8.2131,8.213103 m 0,-17.5086787 C 6.8603,2.7121083 2.7,6.8724566 2.7,12.007684 2.7,17.139651 6.8603,21.3 11.9956,21.3 c 5.1319,0 9.2923,-4.160349 9.2923,-9.292316 0,-5.1352274 -4.1604,-9.2955757 -9.2923,-9.2955757"/>
</svg>