<svg id="body_1" width="24" height="24" viewBox="0 0 24 24">
  <g transform="matrix(0.06 0 0 0.06 0 0)">
    <g>
      <path d="M187.898 36.335C 70.974 46.068 1.052 169.534 53.51 273.633C 103.311 372.457 234.374 394.684 313.976 317.806C 382.88 251.26 380.219 140.2 308.203 76.841C 275.4 47.98 230.322 32.803 187.898 36.335M208.984 49.628C 325.59 56.957 389.943 187.759 324.573 284.57C 260.446 379.542 116.825 370.047 65.354 267.433C 13.533 164.118 93.807 42.388 208.984 49.628M143.359 138.481L143.359 168.369L157.52 168.267L171.68 168.164L171.782 152.22L171.884 136.276L191.118 136.431C 212.172 136.602 212.851 136.667 220.813 139.278C 274.846 156.998 274.846 243.002 220.813 260.722C 212.851 263.333 212.172 263.398 191.118 263.569L191.118 263.569L171.884 263.724L171.782 247.78L171.68 231.836L157.52 231.733L143.359 231.631L143.359 261.519L143.359 291.406L173.926 291.406C 209.486 291.406 214.8 291.065 226.563 288.031C 266.728 277.67 288.435 246.785 288.435 200C 288.435 153.215 266.728 122.33 226.563 111.969C 214.8 108.935 209.486 108.594 173.926 108.594L173.926 108.594L143.359 108.594L143.359 138.481zM120.313 200L120.313 213.672L165.82 213.672L211.328 213.672L211.328 200L211.328 186.328L165.82 186.328L120.313 186.328L120.313 200" stroke="none" fill="#2C2424" fill-rule="nonzero" />
      <path d="M186.133 14.701C 159.252 17.379 139.663 22.687 118.555 33.011C 44.059 69.445 2.997 150.03 17.045 232.227C 30.086 308.539 91.461 369.914 167.773 382.955C 192.953 387.259 220.796 386.275 244.988 380.229C 339.641 356.572 399.474 264.435 382.955 167.773C 369.182 87.179 303.821 25.646 221.094 15.392C 216.086 14.771 190.502 14.266 186.133 14.701M217.969 36.899C 317.164 48.596 383.099 143.39 359.119 239.83C 338.41 323.113 255.491 376.76 171.094 361.479C 77.659 344.56 17.975 252.29 40.881 160.17C 60.528 81.155 137.702 27.434 217.969 36.899M190.234 49.642C 103.274 55.135 38.584 134.52 50.776 220.781C 62.418 303.143 138.755 360.818 220.781 349.224C 303.14 337.583 360.817 261.243 349.224 179.219C 338.174 101.041 269.003 44.666 190.234 49.642M208.789 108.991C 259.752 113.692 288.435 146.468 288.435 200C 288.435 246.785 266.728 277.67 226.563 288.031C 214.8 291.065 209.486 291.406 173.926 291.406L173.926 291.406L143.359 291.406L143.359 261.519L143.359 231.631L157.52 231.733L171.68 231.836L171.782 247.78L171.884 263.724L191.118 263.569C 212.172 263.398 212.851 263.333 220.813 260.722C 274.846 243.002 274.846 156.998 220.813 139.278C 212.851 136.667 212.172 136.602 191.118 136.431L191.118 136.431L171.884 136.276L171.782 152.22L171.68 168.164L157.52 168.267L143.359 168.369L143.359 138.481L143.359 108.594L173.926 108.594C 191.514 108.594 206.317 108.763 208.789 108.991M211.328 200L211.328 213.672L165.82 213.672L120.313 213.672L120.313 200L120.313 186.328L165.82 186.328L211.328 186.328L211.328 200" stroke="none" fill="#F3CB93" fill-rule="nonzero" />
    </g>
  </g>
</svg>