<?xml version="1.0" standalone="no"?>
<!DOCTYPE svg PUBLIC "-//W3C//DTD SVG 20010904//EN"
 "http://www.w3.org/TR/2001/REC-SVG-20010904/DTD/svg10.dtd">
<svg version="1.0" xmlns="http://www.w3.org/2000/svg"
 width="50.000000pt" height="50.000000pt" viewBox="0 0 50.000000 50.000000"
 preserveAspectRatio="xMidYMid meet">

<g transform="translate(0.000000,50.000000) scale(0.100000,-0.100000)"
fill="#000000" stroke="none">
<path d="M0 250 l0 -250 250 0 250 0 0 250 0 250 -250 0 -250 0 0 -250z m274
209 c14 -7 30 -25 35 -41 9 -25 7 -37 -12 -69 -22 -39 -22 -40 -3 -54 17 -13
23 -12 51 5 41 26 70 25 96 -1 28 -28 22 -76 -14 -103 l-28 -21 -45 24 c-42
23 -46 23 -62 7 -14 -13 -14 -20 -4 -34 29 -41 36 -63 26 -90 -19 -55 -109
-54 -129 2 -8 22 -5 35 13 66 20 35 20 40 6 54 -20 21 -26 20 -57 -4 -28 -22
-49 -25 -78 -9 -47 25 -43 99 7 121 22 10 32 9 64 -10 21 -12 46 -19 54 -16
20 8 21 48 1 64 -33 28 -12 95 35 113 8 3 16 6 17 6 1 1 13 -4 27 -10z"/>
<path d="M226 427 c-28 -20 -18 -61 16 -65 37 -4 57 31 32 59 -20 23 -25 23
-48 6z m44 -27 c0 -24 -26 -38 -42 -22 -16 16 -2 42 22 42 13 0 20 -7 20 -20z"/>
<path d="M76 275 c-19 -20 -20 -26 -3 -49 26 -36 84 4 61 42 -15 23 -38 26
-58 7z m38 -1 c20 -8 21 -43 1 -50 -24 -10 -47 14 -34 37 11 21 11 21 33 13z"/>
<path d="M362 274 c-13 -23 -3 -52 20 -59 25 -8 48 11 48 40 0 35 -51 49 -68
19z m56 -18 c4 -21 -14 -37 -35 -29 -14 5 -18 35 -6 47 12 12 38 1 41 -18z"/>
<path d="M215 121 c-9 -31 5 -52 33 -49 33 4 50 31 33 52 -18 22 -58 20 -66
-3z m60 -16 c0 -22 -31 -33 -47 -17 -17 17 -1 44 24 40 15 -2 23 -10 23 -23z"/>
</g>
</svg>
