<svg width="24" height="24" viewBox="0 0 24 24" fill="none" xmlns="http://www.w3.org/2000/svg">
<path d="M9 21.84C9.48 21.84 10.176 21.624 10.632 21.432C11.256 21.192 11.88 21.048 12.432 21.048C12.936 21.048 13.512 21.192 14.184 21.432C14.808 21.696 15.336 21.84 15.792 21.84C16.416 21.84 16.992 21.552 17.544 21.048C17.88 20.784 18.336 20.208 18.888 19.416C19.296 18.864 19.656 18.216 19.968 17.52L20.304 16.608C18.768 15.96 17.616 14.496 17.616 12.6C17.568 10.968 18.312 9.69597 19.8 8.80797C18.936 7.60797 17.712 6.95997 16.08 6.83997C15.432 6.79197 14.688 6.93597 13.824 7.24797C12.888 7.58397 12.312 7.75197 12.144 7.75197C11.952 7.75197 11.424 7.60797 10.68 7.29597C9.864 7.03197 9.264 6.88797 8.784 6.88797C7.92 6.91197 7.128 7.10397 6.384 7.55997C5.616 7.99197 5.04 8.59197 4.584 9.38397C4.008 10.32 3.696 11.472 3.696 12.792C3.696 13.92 3.912 15.12 4.368 16.368C4.752 17.496 5.256 18.48 5.856 19.344C6.456 20.184 6.912 20.736 7.296 21.048C7.848 21.576 8.424 21.84 9 21.84ZM12.024 6.45597C12.024 6.57597 12.024 6.69597 12.048 6.81597C14.136 7.00797 16.152 4.72797 16.152 2.54397V2.15997C15.648 2.18397 15.096 2.32797 14.544 2.61597C13.008 3.38397 12.024 4.91997 12.024 6.45597Z" fill="black"/>
</svg>
