<svg width="24" height="24" viewBox="0 0 24 24" fill="none" xmlns="http://www.w3.org/2000/svg">
<path d="M2.40002 18.96H2.88002V14.76H21.12V18.96H21.6V11.16C21.6 9.69598 20.496 8.59198 19.032 8.59198H11.256V14.28H2.88002V5.03998H2.40002V18.96ZM4.17602 10.104C4.17602 11.712 5.47202 12.984 7.05602 12.984C8.66402 12.984 9.96002 11.712 9.96002 10.104C9.96002 8.49598 8.66402 7.22398 7.05602 7.22398C5.47202 7.22398 4.17602 8.49598 4.17602 10.104ZM4.65602 10.104C4.65602 8.75998 5.73602 7.70398 7.05602 7.70398C8.40002 7.70398 9.48002 8.75998 9.48002 10.104C9.48002 11.448 8.40002 12.504 7.05602 12.504C5.73602 12.504 4.65602 11.448 4.65602 10.104ZM11.736 14.28V9.07198H19.032C20.28 9.07198 21.12 9.91198 21.12 11.16V14.28H11.736Z" fill="black"/>
</svg>
