<svg width="24" height="24" viewBox="0 0 24 24" fill="none" xmlns="http://www.w3.org/2000/svg">
<path d="M12 20.88C16.968 20.88 20.88 16.848 20.88 12C20.88 7.032 16.968 3.12 12 3.12C7.032 3.12 3.12 7.032 3.12 12C3.12 16.968 7.032 20.88 12 20.88ZM3.6 12C3.6 7.296 7.296 3.6 12 3.6C16.704 3.6 20.4 7.296 20.4 12C20.4 16.584 16.704 20.4 12 20.4C7.296 20.4 3.6 16.704 3.6 12ZM8.4 13.416C8.448 15.456 9.768 16.728 11.76 16.824V17.976H12.24V16.824C14.064 16.728 15.384 15.672 15.384 14.112C15.384 12.72 14.328 11.928 12.768 11.712L12.24 11.64V7.608C13.824 7.704 14.736 8.688 14.736 10.272H15.216C15.216 8.472 14.04 7.224 12.24 7.128V5.976H11.76V7.128C10.128 7.224 8.784 8.232 8.784 9.696C8.784 11.016 9.72 11.808 11.16 12L11.76 12.072V16.344C10.008 16.248 8.928 15.192 8.88 13.416H8.4ZM9.264 9.696C9.264 8.496 10.296 7.704 11.76 7.608V11.592L11.208 11.52C9.936 11.352 9.264 10.752 9.264 9.696ZM12.24 16.344V12.144L12.72 12.192C14.112 12.384 14.904 12.984 14.904 14.112C14.904 15.408 13.848 16.272 12.24 16.344Z" fill="black"/>
</svg>
