<svg width="24" height="24" viewBox="0 0 24 24" fill="none" xmlns="http://www.w3.org/2000/svg">
<path d="M19.6561 20.016C20.8081 20.016 21.7681 19.056 21.7681 17.904C21.7681 16.752 20.8081 15.792 19.6561 15.792C18.9841 15.792 18.3841 16.104 18.0001 16.608L15.1201 14.904C15.3121 14.496 15.4321 14.04 15.4321 13.56C15.4321 11.904 14.0881 10.56 12.4321 10.56C12.0481 10.56 11.6881 10.632 11.3521 10.752L9.96006 7.87201C10.5601 7.48801 10.9441 6.84001 10.9441 6.09601C10.9441 4.94401 9.98406 3.98401 8.83206 3.98401C7.68006 3.98401 6.72006 4.94401 6.72006 6.09601C6.72006 7.24801 7.68006 8.20801 8.83206 8.20801C9.07206 8.20801 9.31206 8.16001 9.55206 8.08801L10.9201 10.968C10.0321 11.496 9.43206 12.456 9.43206 13.56C9.43206 15.24 10.7521 16.56 12.4321 16.56C13.4401 16.56 14.3281 16.08 14.8801 15.312L17.7361 17.016C17.6161 17.28 17.5441 17.592 17.5441 17.904C17.5441 19.056 18.5041 20.016 19.6561 20.016ZM2.23206 13.584C2.23206 14.376 2.88006 15.024 3.67206 15.024C4.46406 15.024 5.11206 14.376 5.11206 13.584C5.11206 12.792 4.46406 12.144 3.67206 12.144C2.88006 12.144 2.23206 12.792 2.23206 13.584ZM6.07206 13.824H8.47206V13.344H6.07206V13.824ZM7.20006 6.09601C7.20006 5.20801 7.94406 4.46401 8.83206 4.46401C9.72006 4.46401 10.4641 5.20801 10.4641 6.09601C10.4641 6.98401 9.72006 7.72801 8.83206 7.72801C7.94406 7.72801 7.20006 6.98401 7.20006 6.09601ZM9.91206 13.56C9.91206 12.168 11.0161 11.04 12.4321 11.04C13.8241 11.04 14.9521 12.168 14.9521 13.56C14.9521 14.976 13.8241 16.08 12.4321 16.08C11.0161 16.08 9.91206 14.976 9.91206 13.56ZM15.4801 11.016L15.7681 11.4L18.4081 9.48001L18.1201 9.09601L15.4801 11.016ZM18.0241 17.904C18.0241 17.016 18.7681 16.272 19.6561 16.272C20.5441 16.272 21.2881 17.016 21.2881 17.904C21.2881 18.792 20.5441 19.536 19.6561 19.536C18.7681 19.536 18.0241 18.792 18.0241 17.904ZM18.7441 7.87201C18.7441 8.66401 19.3921 9.31201 20.1841 9.31201C20.9761 9.31201 21.6241 8.66401 21.6241 7.87201C21.6241 7.08001 20.9761 6.43201 20.1841 6.43201C19.3921 6.43201 18.7441 7.08001 18.7441 7.87201Z" fill="black"/>
</svg>
