<svg width="24" height="24" viewBox="0 0 24 24" fill="none" xmlns="http://www.w3.org/2000/svg">
<path d="M8.52 15.816L12 12.336L15.48 15.816L15.816 15.48L12.336 12L15.816 8.52L15.48 8.184L12 11.664L8.52 8.184L8.184 8.52L11.664 12L8.184 15.48L8.52 15.816ZM3.12 12C3.12 16.968 7.032 20.88 12 20.88C16.968 20.88 20.88 16.848 20.88 12C20.88 7.032 16.968 3.12 12 3.12C7.032 3.12 3.12 7.032 3.12 12ZM3.6 12C3.6 7.296 7.296 3.6 12 3.6C16.704 3.6 20.4 7.296 20.4 12C20.4 16.584 16.704 20.4 12 20.4C7.296 20.4 3.6 16.704 3.6 12Z" fill="black"/>
</svg>
