<svg width="24" height="24" viewBox="0 0 24 24" fill="none" xmlns="http://www.w3.org/2000/svg">
<path d="M12.936 16.344L17.28 12L12.936 7.656L12.6 7.992L14.304 9.696L16.368 11.76H6.96V12.24H16.368L14.304 14.304L12.6 16.008L12.936 16.344ZM3.12 12C3.12 16.968 7.032 20.88 12 20.88C16.968 20.88 20.88 16.848 20.88 12C20.88 7.032 16.968 3.12 12 3.12C7.032 3.12 3.12 7.032 3.12 12ZM3.6 12C3.6 7.296 7.296 3.6 12 3.6C16.704 3.6 20.4 7.296 20.4 12C20.4 16.584 16.704 20.4 12 20.4C7.296 20.4 3.6 16.704 3.6 12Z" fill="black"/>
</svg>
