<svg width="24" height="24" viewBox="0 0 24 24" fill="none" xmlns="http://www.w3.org/2000/svg">
<path d="M5.30401 17.688H18.696V17.208H16.176C18.384 15.792 19.8 13.392 19.8 10.68C19.8 6.384 16.296 2.88 12 2.88C7.70402 2.88 4.20001 6.384 4.20001 10.68C4.20001 13.392 5.59201 15.792 7.80002 17.208H5.30401V17.688ZM2.64001 21.12H21.36V15H20.88V20.64H3.12001V15H2.64001V21.12ZM4.68001 10.68C4.68001 6.624 7.94402 3.36 12 3.36C16.056 3.36 19.32 6.624 19.32 10.68C19.32 13.536 17.688 16.008 15.312 17.208H8.68802C6.31201 16.008 4.68001 13.536 4.68001 10.68ZM9.16802 11.736C9.19202 13.368 10.224 14.376 11.76 14.496V15.408H12.24V14.496C13.728 14.424 14.76 13.584 14.76 12.312C14.76 11.16 13.92 10.488 12.672 10.344L12.24 10.296V7.2C13.488 7.272 14.16 8.016 14.16 9.264H14.64C14.64 7.8 13.704 6.792 12.24 6.72V5.808H11.76V6.72C10.488 6.84 9.48002 7.656 9.48002 8.832C9.48002 9.888 10.2 10.536 11.4 10.68L11.76 10.728V14.016C10.464 13.896 9.67202 13.104 9.64802 11.736H9.16802ZM9.96002 8.832C9.96002 7.896 10.68 7.296 11.76 7.2V10.248L11.448 10.2C10.44 10.08 9.96002 9.648 9.96002 8.832ZM12.24 14.016V10.776L12.624 10.824C13.704 10.944 14.28 11.424 14.28 12.312C14.28 13.32 13.512 13.944 12.24 14.016Z" fill="black"/>
</svg>
