<svg width="24" height="24" viewBox="0 0 24 24" fill="none" xmlns="http://www.w3.org/2000/svg">
<path d="M11.832 12.168L15.288 15.624L15.624 15.288L12.24 11.904V6.48H11.76V12C11.76 12.072 11.784 12.12 11.832 12.168ZM3.12 12C3.12 16.968 7.032 20.88 12 20.88C16.968 20.88 20.88 16.848 20.88 12C20.88 7.032 16.968 3.12 12 3.12C7.032 3.12 3.12 7.032 3.12 12ZM3.6 12C3.6 7.296 7.296 3.6 12 3.6C16.704 3.6 20.4 7.296 20.4 12C20.4 16.584 16.704 20.4 12 20.4C7.296 20.4 3.6 16.704 3.6 12Z" fill="black"/>
</svg>
