<svg width="24" height="24" viewBox="0 0 24 24" fill="none" xmlns="http://www.w3.org/2000/svg">
<path d="M17.496 16.764V17.244C20.04 17.052 21.816 15.132 21.816 12.828C21.816 10.572 20.16 8.72397 17.976 8.45997C17.712 5.62797 15.312 3.44397 12.48 3.44397C10.416 3.44397 8.61596 4.57197 7.65596 6.22797C4.65596 6.25197 2.18396 8.74797 2.18396 11.748C2.18396 14.34 3.98396 16.5 6.38396 17.124V16.644C4.22396 16.044 2.66396 14.124 2.66396 11.748C2.66396 8.84397 4.99196 6.58797 7.94396 6.70797C8.80796 5.02797 10.44 3.92397 12.48 3.92397C15.264 3.92397 17.472 6.05997 17.52 8.89197C19.728 8.98797 21.336 10.62 21.336 12.828C21.336 14.94 19.728 16.572 17.496 16.764ZM7.65596 16.212L12 20.556L16.344 16.212L16.008 15.876L14.136 17.748L12.24 19.644V11.196H11.76V19.644L9.86396 17.748L7.99196 15.876L7.65596 16.212Z" fill="black"/>
</svg>
