<svg width="24" height="24" viewBox="0 0 24 24" fill="none" xmlns="http://www.w3.org/2000/svg">
<path d="M8.82001 16.2H11.772C13.38 16.2 14.772 15.6 15.756 14.304C15.972 14.04 16.14 13.776 16.284 13.464H16.764C19.476 13.464 21.516 11.664 21.516 9.16799C21.516 6.59999 19.476 4.79999 16.764 4.79999H3.75601V10.32C3.75601 12.144 4.09201 13.344 4.86001 14.304C5.86801 15.6 7.21201 16.2 8.82001 16.2ZM2.48401 18.72C2.82001 19.008 3.27601 19.2 3.75601 19.2H17.916C18.42 19.2 18.852 19.008 19.188 18.72H2.48401ZM4.23601 10.32V5.27999H16.356V10.32C16.356 13.488 14.892 15.72 11.772 15.72H8.82001C5.82001 15.72 4.23601 13.584 4.23601 10.32ZM16.476 12.984C16.74 12.264 16.836 11.4 16.836 10.32V5.27999C19.308 5.30399 21.036 6.81599 21.036 9.14399V9.19199C21.036 11.472 19.284 12.984 16.764 12.984H16.476Z" fill="black"/>
</svg>
