<svg width="24" height="24" viewBox="0 0 24 24" fill="none" xmlns="http://www.w3.org/2000/svg">
<path d="M2.64001 5.00398V17.316L6.45601 14.364H17.76V5.00398C17.76 4.01998 16.944 3.20398 15.96 3.20398H4.44001C3.45601 3.20398 2.64001 4.01998 2.64001 5.00398ZM3.12001 16.332V5.00398C3.12001 4.28398 3.72001 3.68398 4.44001 3.68398H15.96C16.68 3.68398 17.28 4.28398 17.28 5.00398V13.884H6.28801L3.12001 16.332ZM7.44002 16.044C7.44002 17.028 8.25602 17.844 9.24002 17.844H17.52L21.36 20.796V8.74798C21.36 7.76398 20.544 6.94798 19.56 6.94798V7.42798C20.28 7.42798 20.88 8.02798 20.88 8.74798V19.812L17.688 17.364H9.24002C8.52002 17.364 7.92002 16.764 7.92002 16.044H7.44002Z" fill="black"/>
</svg>
