<svg width="20" height="14" viewBox="0 0 20 14" fill="none" xmlns="http://www.w3.org/2000/svg">
<path d="M16.9419 1.17248C15.6279 0.616848 14.2407 0.222666 12.8158 0C12.6208 0.321942 12.4443 0.653178 12.2872 0.99232C10.7694 0.781074 9.22584 0.781074 7.70801 0.99232C7.55079 0.653213 7.37437 0.321981 7.17946 0C5.75361 0.224546 4.3655 0.619664 3.05016 1.17538C0.43887 4.74367 -0.269009 8.22333 0.0849305 11.6536C1.61417 12.6971 3.32582 13.4908 5.14548 14C5.55522 13.491 5.91778 12.9511 6.22933 12.3858C5.63759 12.1817 5.06646 11.9299 4.52255 11.6332C4.6657 11.5374 4.8057 11.4386 4.94098 11.3427C6.52364 12.0301 8.25103 12.3865 9.99996 12.3865C11.7489 12.3865 13.4763 12.0301 15.0589 11.3427C15.1958 11.4458 15.3358 11.5446 15.4774 11.6332C14.9324 11.9304 14.3602 12.1827 13.7675 12.3873C14.0786 12.9523 14.4412 13.4918 14.8513 14C16.6725 13.4928 18.3855 12.6996 19.915 11.655C20.3303 7.67704 19.2055 4.22935 16.9419 1.17248ZM6.67765 9.544C5.69134 9.544 4.87649 8.71731 4.87649 7.70029C4.87649 6.68327 5.66302 5.84931 6.6745 5.84931C7.68598 5.84931 8.49454 6.68327 8.47724 7.70029C8.45993 8.71731 7.68284 9.544 6.67765 9.544ZM13.3223 9.544C12.3344 9.544 11.5227 8.71731 11.5227 7.70029C11.5227 6.68327 12.3092 5.84931 13.3223 5.84931C14.3353 5.84931 15.1376 6.68327 15.1203 7.70029C15.103 8.71731 14.3275 9.544 13.3223 9.544Z" fill="white"/>
</svg>