<svg width="24" height="24" viewBox="0 0 24 24" fill="none" xmlns="http://www.w3.org/2000/svg">
<path d="M11.5587 21.6335L13.8867 19.3055C14.7027 18.1295 13.4067 15.7535 11.0307 13.3055L13.1907 11.1455C15.6867 13.5455 18.1107 14.6015 19.2627 13.9295L21.5907 11.6015C22.4307 10.4015 21.0627 7.92954 18.5667 5.43354C16.0707 2.93754 13.5987 1.56955 12.3987 2.40955L10.0707 4.73754C9.39872 5.88954 10.4547 8.31354 12.8547 10.8095L10.6947 12.9695C8.24672 10.5935 5.87072 9.29754 4.69472 10.1135L2.36672 12.4415C1.67072 13.6175 2.79872 16.1375 5.31872 18.6815C7.86272 21.2015 10.3827 22.3295 11.5587 21.6335ZM2.75072 12.7295L4.43072 11.0495C4.40672 12.3455 5.77472 14.3855 7.69472 16.3055C9.61472 18.2255 11.6547 19.5935 12.9507 19.5695L11.2707 21.2495C10.3347 21.7055 8.03072 20.7215 5.65472 18.3455C3.27872 15.9695 2.29472 13.6655 2.75072 12.7295ZM5.00672 10.4735C5.87072 9.92154 8.03072 11.0495 10.3347 13.3055L9.06272 14.6015C9.01472 14.6255 9.06272 14.7455 9.15872 14.8415C9.25472 14.9375 9.37472 14.9855 9.39872 14.9375L10.6947 13.6655C12.9507 15.9695 14.0787 18.1295 13.5267 18.9935C12.8547 19.6655 10.4067 18.3455 8.03072 15.9695C5.65472 13.5935 4.33472 11.1455 5.00672 10.4735ZM10.4547 5.02554L12.1347 3.34554C12.1107 4.64154 13.4787 6.68155 15.3987 8.60154C17.3187 10.5215 19.3587 11.8895 20.6547 11.8655L18.9747 13.5455C18.0387 14.0015 15.7347 13.0175 13.3587 10.6415C10.9827 8.26554 9.99872 5.96154 10.4547 5.02554ZM12.7107 2.76955C13.5987 2.21755 15.8547 3.39354 18.2307 5.76954C20.6067 8.14554 21.7827 10.4015 21.2307 11.2895C20.5587 11.9615 18.1107 10.6415 15.7347 8.26554C13.3587 5.88954 12.0387 3.44155 12.7107 2.76955ZM16.7667 6.89754C16.7187 6.92154 16.7667 7.04154 16.8627 7.13754C16.9587 7.23354 17.0787 7.28154 17.1027 7.23354L17.6787 6.65754C17.7027 6.63354 17.6787 6.51354 17.5827 6.41754C17.4867 6.32154 17.3667 6.29754 17.3427 6.32154L16.7667 6.89754Z" fill="black"/>
</svg>
