<svg width="24" height="24" viewBox="0 0 24 24" fill="none" xmlns="http://www.w3.org/2000/svg">
<path d="M11.064 16.704H11.112C12.96 16.704 14.208 15.6 14.208 14.112C14.208 13.08 13.584 12.24 12.504 11.856V11.808C13.44 11.448 13.992 10.704 13.992 9.768C13.992 8.4 12.816 7.344 11.112 7.344H11.064C9.35998 7.344 8.18398 8.4 8.18398 9.768C8.18398 10.704 8.73598 11.448 9.67198 11.808V11.856C8.59198 12.24 7.96798 13.08 7.96798 14.112C7.96798 15.6 9.21598 16.704 11.064 16.704ZM4.03198 20.88H11.088C16.056 20.88 19.968 16.848 19.968 12C19.968 7.032 16.056 3.12 11.088 3.12H4.03198V3.6H11.088C15.792 3.6 19.488 7.296 19.488 12C19.488 16.584 15.792 20.4 11.088 20.4H4.03198V20.88ZM8.44798 14.136V14.088C8.44798 12.864 9.35998 12.072 11.064 12.072H11.112C12.816 12.072 13.728 12.864 13.728 14.088V14.136C13.728 15.384 12.768 16.224 11.112 16.224H11.064C9.40798 16.224 8.44798 15.384 8.44798 14.136ZM8.66398 9.792V9.744C8.66398 8.592 9.55198 7.824 11.064 7.824H11.112C12.624 7.824 13.512 8.592 13.512 9.744V9.792C13.512 10.92 12.672 11.64 11.112 11.64H11.064C9.50398 11.64 8.66398 10.92 8.66398 9.792Z" fill="black"/>
</svg>
