<svg width="24" height="24" viewBox="0 0 24 24" fill="none" xmlns="http://www.w3.org/2000/svg">
<path d="M12 20.88C16.968 20.88 20.88 16.848 20.88 12C20.88 7.032 16.968 3.12 12 3.12C7.032 3.12 3.12 7.032 3.12 12C3.12 16.968 7.032 20.88 12 20.88ZM3.6 12C3.6 7.296 7.296 3.6 12 3.6C16.704 3.6 20.4 7.296 20.4 12C20.4 16.584 16.704 20.4 12 20.4C7.296 20.4 3.6 16.704 3.6 12ZM8.88 14.112C8.88 15.6 10.128 16.704 11.976 16.704H12.024C13.872 16.704 15.12 15.6 15.12 14.112C15.12 13.08 14.496 12.24 13.416 11.856V11.808C14.352 11.448 14.904 10.704 14.904 9.768C14.904 8.4 13.728 7.344 12.024 7.344H11.976C10.272 7.344 9.096 8.4 9.096 9.768C9.096 10.704 9.648 11.448 10.584 11.808V11.856C9.504 12.24 8.88 13.08 8.88 14.112ZM9.36 14.136V14.088C9.36 12.864 10.272 12.072 11.976 12.072H12.024C13.728 12.072 14.64 12.864 14.64 14.088V14.136C14.64 15.384 13.68 16.224 12.024 16.224H11.976C10.32 16.224 9.36 15.384 9.36 14.136ZM9.576 9.792V9.744C9.576 8.592 10.464 7.824 11.976 7.824H12.024C13.536 7.824 14.424 8.592 14.424 9.744V9.792C14.424 10.92 13.584 11.64 12.024 11.64H11.976C10.416 11.64 9.576 10.92 9.576 9.792Z" fill="black"/>
</svg>
