<svg width="24" height="24" viewBox="0 0 24 24" fill="none" xmlns="http://www.w3.org/2000/svg">
<path d="M11.976 16.704H12.024C13.872 16.704 15.12 15.6 15.12 14.112C15.12 13.08 14.496 12.24 13.416 11.856V11.808C14.352 11.448 14.904 10.704 14.904 9.768C14.904 8.4 13.728 7.344 12.024 7.344H11.976C10.272 7.344 9.09601 8.4 9.09601 9.768C9.09601 10.704 9.64801 11.448 10.584 11.808V11.856C9.50401 12.24 8.88001 13.08 8.88001 14.112C8.88001 15.6 10.128 16.704 11.976 16.704ZM5.76001 20.88H18.24V20.4H5.76001V20.88ZM5.76001 3.6H18.24V3.12H5.76001V3.6ZM9.36001 14.136V14.088C9.36001 12.864 10.272 12.072 11.976 12.072H12.024C13.728 12.072 14.64 12.864 14.64 14.088V14.136C14.64 15.384 13.68 16.224 12.024 16.224H11.976C10.32 16.224 9.36001 15.384 9.36001 14.136ZM9.57601 9.792V9.744C9.57601 8.592 10.464 7.824 11.976 7.824H12.024C13.536 7.824 14.424 8.592 14.424 9.744V9.792C14.424 10.92 13.584 11.64 12.024 11.64H11.976C10.416 11.64 9.57601 10.92 9.57601 9.792Z" fill="black"/>
</svg>
