<svg width="24" height="24" viewBox="0 0 24 24" fill="none" xmlns="http://www.w3.org/2000/svg">
<path d="M1.67999 21.36H7.67999V15.36H4.91999V12.24H11.76V15.36H8.99999V21.36H15V15.36H12.24V12.24H19.08V15.36H16.32V21.36H22.32V15.36H19.56V11.76H12.24V8.64002H15V2.64001H8.99999V8.64002H11.76V11.76H4.43999V15.36H1.67999V21.36ZM2.15999 20.88V15.84H7.19999V20.88H2.15999ZM9.47999 20.88V15.84H14.52V20.88H9.47999ZM9.47999 8.16002V3.12001H14.52V8.16002H9.47999ZM16.8 20.88V15.84H21.84V20.88H16.8Z" fill="black"/>
</svg>
