<svg width="24" height="24" viewBox="0 0 24 24" fill="none" xmlns="http://www.w3.org/2000/svg">
<path d="M12 18.984C15.624 18.984 19.512 15.984 21.36 12C19.512 8.01599 15.624 5.01599 12 5.01599C8.37602 5.01599 4.48801 8.01599 2.64001 12C4.48801 15.984 8.37602 18.984 12 18.984ZM3.16801 12C4.99201 8.23199 8.59202 5.49599 12 5.49599C15.408 5.49599 19.008 8.23199 20.832 12C19.008 15.768 15.408 18.504 12 18.504C8.59202 18.504 4.99201 15.768 3.16801 12ZM8.88002 12C8.88002 13.728 10.272 15.12 12 15.12C13.728 15.12 15.12 13.728 15.12 12C15.12 10.272 13.728 8.87999 12 8.87999C10.272 8.87999 8.88002 10.272 8.88002 12ZM9.36002 12C9.36002 10.536 10.536 9.35999 12 9.35999C13.464 9.35999 14.64 10.536 14.64 12C14.64 13.464 13.464 14.64 12 14.64C10.536 14.64 9.36002 13.464 9.36002 12Z" fill="black"/>
</svg>
