<svg width="24" height="24" viewBox="0 0 24 24" fill="none" xmlns="http://www.w3.org/2000/svg">
<path d="M12 20.88C16.968 20.88 20.88 16.848 20.88 12C20.88 7.032 16.968 3.12 12 3.12C7.032 3.12 3.12 7.032 3.12 12C3.12 16.968 7.032 20.88 12 20.88ZM3.6 12C3.6 7.296 7.296 3.6 12 3.6C16.704 3.6 20.4 7.296 20.4 12C20.4 16.584 16.704 20.4 12 20.4C7.296 20.4 3.6 16.704 3.6 12ZM8.376 14.328H13.08V16.464H13.56V14.328H15.072V13.848H13.56V7.584H12.48L8.376 13.752V14.328ZM8.88 13.848L12.72 8.064H13.08V11.664V13.848H8.88Z" fill="black"/>
</svg>
