<svg width="24" height="24" viewBox="0 0 24 24" fill="none" xmlns="http://www.w3.org/2000/svg">
<path d="M12 21.12C16.368 21.12 19.704 19.872 19.704 17.904V6.072C19.704 4.104 16.488 2.88 12 2.88C7.632 2.88 4.296 4.104 4.296 6.072V17.904C4.296 19.872 7.56 21.12 12 21.12ZM4.776 17.904V15.192C5.832 16.44 8.568 17.208 12 17.208C15.384 17.208 18.144 16.44 19.224 15.168V17.904C19.224 19.488 16.272 20.64 12 20.64C7.656 20.64 4.776 19.488 4.776 17.904ZM4.776 13.968V11.256C5.832 12.528 8.568 13.296 12 13.296C15.384 13.296 18.144 12.528 19.224 11.232V13.968C19.224 15.528 16.272 16.728 12 16.728C7.656 16.728 4.776 15.528 4.776 13.968ZM4.776 10.008V7.32C5.832 8.592 8.568 9.312 12 9.312C15.384 9.312 18.144 8.568 19.224 7.296V10.008C19.224 11.616 16.272 12.816 12 12.816C7.656 12.816 4.776 11.616 4.776 10.008ZM4.776 6.072C4.776 4.488 7.728 3.36 12 3.36C16.392 3.36 19.224 4.488 19.224 6.072C19.224 7.704 16.272 8.832 12 8.832C7.656 8.832 4.776 7.704 4.776 6.072Z" fill="black"/>
</svg>
