<svg width="24" height="24" viewBox="0 0 24 24" fill="none" xmlns="http://www.w3.org/2000/svg">
<path d="M5.04 20.292H18.96C20.064 20.292 20.88 19.476 20.88 18.372V10.212C20.88 9.10801 20.064 8.29201 18.96 8.29201H17.04C17.904 7.78801 18.24 6.90001 18.24 6.18001C18.24 4.88401 17.208 3.70801 15.816 3.70801C15.384 3.70801 14.928 3.82801 14.592 4.04401C13.8 4.50001 13.224 5.43601 12.768 6.30001L12 7.78801L11.232 6.30001C10.776 5.43601 10.2 4.50001 9.408 4.04401C9.072 3.82801 8.616 3.70801 8.184 3.70801C6.792 3.70801 5.76 4.88401 5.76 6.18001C5.76 6.90001 6.096 7.78801 6.96 8.29201H5.04C3.936 8.29201 3.12 9.10801 3.12 10.212V18.372C3.12 19.476 3.936 20.292 5.04 20.292ZM3.6 18.372V13.572H20.4V18.372C20.4 19.284 19.872 19.812 18.96 19.812H5.04C4.128 19.812 3.6 19.284 3.6 18.372ZM3.6 11.652V10.212C3.6 9.30001 4.128 8.77201 5.04 8.77201H18.96C19.872 8.77201 20.4 9.30001 20.4 10.212V11.652H3.6ZM5.52 17.892H9.12V15.972H5.52V17.892ZM6.24 6.18001C6.24 5.12401 7.08 4.18801 8.184 4.18801C9.408 4.18801 10.152 5.26801 10.8 6.51601L11.736 8.29201H9.696C8.784 8.29201 7.8 8.26801 7.128 7.83601C6.504 7.47601 6.24 6.78001 6.24 6.18001ZM12.264 8.29201L13.2 6.51601C13.848 5.26801 14.592 4.18801 15.816 4.18801C16.92 4.18801 17.76 5.12401 17.76 6.18001C17.76 6.78001 17.496 7.47601 16.872 7.83601C16.2 8.26801 15.216 8.29201 14.304 8.29201H12.264Z" fill="black"/>
</svg>
