<svg width="24" height="24" viewBox="0 0 24 24" fill="none" xmlns="http://www.w3.org/2000/svg">
<path d="M9.072 21.0794C9.456 21.1994 9.696 20.9594 9.696 20.6474C9.696 20.6234 9.672 20.3114 9.672 19.6874C9.648 19.1114 9.648 18.6554 9.648 18.3434C9.336 18.4394 8.952 18.4634 8.688 18.4634C7.872 18.4634 6.816 18.2234 6.504 17.2154C6.12 16.5914 5.784 16.0154 5.448 15.8234C4.92 15.4394 4.968 15.2234 5.52 15.2234L5.736 15.2714C6.072 15.3434 6.648 15.6794 6.96 16.2074C7.272 16.8314 7.8 17.2394 8.616 17.2394C8.928 17.2394 9.312 17.1674 9.696 17.0474C9.768 16.4474 10.008 16.0394 10.296 15.7514C9.264 15.6554 8.808 15.5834 7.92 15.1994C7.488 15.0314 7.2 14.8154 6.96 14.5274C6.504 13.9754 6.072 12.9674 6.072 11.5274C6.072 10.7354 6.36 9.99139 6.96 9.34339C6.648 8.59939 6.696 7.73539 7.056 6.77539C7.728 6.58339 8.904 7.30339 9.648 7.83139C10.416 7.59139 11.208 7.47139 12.024 7.47139C12.84 7.47139 13.656 7.59139 14.424 7.83139L14.88 7.47139C15.48 7.01539 16.536 6.65539 17.016 6.77539C17.376 7.73539 17.4 8.59939 17.064 9.34339C17.808 10.1114 18.072 10.5914 18.072 11.5274C18.072 13.3514 17.544 14.6954 16.152 15.1994C15.264 15.5834 14.856 15.6074 13.752 15.7514C14.184 16.0874 14.376 16.6394 14.376 17.4794C14.376 17.9834 14.376 18.6314 14.376 19.4234V20.6474C14.376 20.9594 14.616 21.1994 15.024 21.0794C18.816 19.8314 21.36 16.2554 21.36 12.1034C21.36 6.82339 17.088 2.88739 12 2.88739C6.96 2.88739 2.64 6.84739 2.64 12.1034C2.64 16.2554 5.256 19.8314 9.072 21.0794ZM5.904 15.6074C5.88 15.6554 5.904 15.7034 6.024 15.7514C6.072 15.7994 6.12 15.7754 6.168 15.7034C6.192 15.6794 6.168 15.6314 6.072 15.5594C6.024 15.5354 5.952 15.5594 5.904 15.6074ZM6.288 15.8954C6.264 15.9434 6.264 15.9914 6.336 16.0874C6.432 16.1354 6.504 16.1594 6.528 16.1114C6.576 16.0634 6.576 15.9914 6.504 15.9194C6.432 15.8714 6.336 15.8474 6.288 15.8954ZM6.696 16.3754C6.576 16.3994 6.744 16.8074 6.912 16.6874C6.96 16.6154 6.96 16.5434 6.912 16.4474C6.84 16.3274 6.744 16.3034 6.696 16.3754ZM7.128 16.9274C7.056 16.9994 7.056 17.0714 7.2 17.1674C7.272 17.2874 7.368 17.2874 7.44 17.2154C7.488 17.1434 7.44 17.0714 7.368 16.9514C7.272 16.8554 7.2 16.8314 7.128 16.9274ZM7.896 17.5754C8.016 17.6234 8.088 17.5994 8.112 17.5034C8.136 17.4074 8.088 17.3354 7.968 17.3114C7.728 17.2394 7.608 17.5274 7.896 17.5754ZM8.496 17.5514C8.496 17.6714 8.592 17.7194 8.712 17.6954C8.856 17.6954 8.928 17.6234 8.928 17.5514C8.928 17.4554 8.832 17.4074 8.688 17.4314C8.568 17.4314 8.496 17.4794 8.496 17.5514ZM9.384 17.3114C9.144 17.3594 9.192 17.6714 9.432 17.5994C9.672 17.5274 9.624 17.3114 9.384 17.3114Z" fill="black"/>
</svg>
