<svg width="24" height="24" viewBox="0 0 24 24" fill="none" xmlns="http://www.w3.org/2000/svg">
<path d="M5.92799 17.652V19.452H18.072V17.652C18.072 15.276 16.032 13.188 13.584 13.188H10.416C7.96799 13.188 5.92799 15.276 5.92799 17.652ZM1.67999 19.452H2.15999V18.012C2.15999 16.764 3.04799 15.78 4.27199 15.636C4.36799 15.468 4.46399 15.3 4.58399 15.132C2.99999 15.132 1.67999 16.476 1.67999 18.012V19.452ZM1.91999 10.212C1.91999 11.748 3.14399 12.972 4.67999 12.972C6.21599 12.972 7.43999 11.748 7.43999 10.212C7.43999 8.67597 6.21599 7.45197 4.67999 7.45197C3.14399 7.45197 1.91999 8.67597 1.91999 10.212ZM2.39999 10.212C2.39999 8.93997 3.40799 7.93197 4.67999 7.93197C5.95199 7.93197 6.95999 8.93997 6.95999 10.212C6.95999 11.484 5.95199 12.492 4.67999 12.492C3.40799 12.492 2.39999 11.484 2.39999 10.212ZM6.40799 18.972V17.652C6.40799 15.54 8.23199 13.668 10.416 13.668H13.584C15.768 13.668 17.592 15.54 17.592 17.652V18.972H6.40799ZM8.63999 7.90797C8.63999 9.75597 10.152 11.268 12 11.268C13.848 11.268 15.36 9.75597 15.36 7.90797C15.36 6.05997 13.848 4.54797 12 4.54797C10.152 4.54797 8.63999 6.05997 8.63999 7.90797ZM9.11999 7.90797C9.11999 6.32397 10.416 5.02797 12 5.02797C13.584 5.02797 14.88 6.32397 14.88 7.90797C14.88 9.49197 13.584 10.788 12 10.788C10.416 10.788 9.11999 9.49197 9.11999 7.90797ZM16.56 10.212C16.56 11.748 17.784 12.972 19.32 12.972C20.856 12.972 22.08 11.748 22.08 10.212C22.08 8.67597 20.856 7.45197 19.32 7.45197C17.784 7.45197 16.56 8.67597 16.56 10.212ZM17.04 10.212C17.04 8.93997 18.048 7.93197 19.32 7.93197C20.592 7.93197 21.6 8.93997 21.6 10.212C21.6 11.484 20.592 12.492 19.32 12.492C18.048 12.492 17.04 11.484 17.04 10.212ZM19.416 15.132C19.536 15.3 19.632 15.468 19.728 15.636C20.952 15.78 21.84 16.764 21.84 18.012V19.452H22.32V18.012C22.32 16.476 21 15.132 19.416 15.132Z" fill="black"/>
</svg>
