<svg width="24" height="24" viewBox="0 0 24 24" fill="none" xmlns="http://www.w3.org/2000/svg">
<path d="M11.352 13.272H12.192C14.112 13.272 15.48 11.88 15.48 9.864C15.48 7.92 14.184 6.48 12.096 6.48C10.032 6.48 8.736 7.896 8.736 9.696V9.72H9.216V9.696C9.216 8.088 10.248 6.96 12.072 6.96H12.12C13.968 6.96 15 8.112 15 9.84V9.888C15 11.688 13.896 12.792 12.192 12.792H11.352V13.272ZM3.12 12C3.12 16.968 7.032 20.88 12 20.88C16.968 20.88 20.88 16.848 20.88 12C20.88 7.032 16.968 3.12 12 3.12C7.032 3.12 3.12 7.032 3.12 12ZM3.6 12C3.6 7.296 7.296 3.6 12 3.6C16.704 3.6 20.4 7.296 20.4 12C20.4 16.584 16.704 20.4 12 20.4C7.296 20.4 3.6 16.704 3.6 12ZM11.28 16.8H12.72V15.36H11.28V16.8Z" fill="black"/>
</svg>
