<svg width="24" height="24" viewBox="0 0 24 24" fill="none" xmlns="http://www.w3.org/2000/svg">
<path d="M8.35198 20.976L8.68798 20.64L5.95198 17.928L8.08798 15.792L10.8 18.504L11.136 18.168L8.42398 15.456L13.176 10.704C13.944 11.352 14.928 11.76 16.032 11.76C18.456 11.76 20.4 9.81599 20.4 7.39199C20.4 4.96799 18.456 3.02399 16.032 3.02399C13.608 3.02399 11.664 4.96799 11.664 7.39199C11.664 8.54399 12.096 9.59999 12.84 10.368L3.59998 19.608L3.93598 19.944L5.61598 18.264L8.35198 20.976ZM12.144 7.39199C12.144 5.23199 13.872 3.50399 16.032 3.50399C18.192 3.50399 19.92 5.23199 19.92 7.39199C19.92 9.55199 18.192 11.28 16.032 11.28C13.872 11.28 12.144 9.55199 12.144 7.39199Z" fill="black"/>
</svg>
