<svg width="24" height="24" viewBox="0 0 24 24" fill="none" xmlns="http://www.w3.org/2000/svg">
<path d="M5.75997 21.84H17.76C18.864 21.84 19.68 21.024 19.68 19.92V8.39997H20.16V5.03997H19.68V4.07997C19.68 2.97597 18.864 2.15997 17.76 2.15997H5.75997C4.65597 2.15997 3.83997 2.97597 3.83997 4.07997V19.92C3.83997 21.024 4.65597 21.84 5.75997 21.84ZM4.31997 19.92V4.07997C4.31997 3.16797 4.84797 2.63997 5.75997 2.63997H17.76C18.672 2.63997 19.2 3.16797 19.2 4.07997V19.92C19.2 20.832 18.672 21.36 17.76 21.36H5.75997C4.84797 21.36 4.31997 20.832 4.31997 19.92ZM6.23997 19.44H17.28V4.55997H6.23997V19.44ZM6.71997 18.96V5.03997H16.8V18.96H6.71997Z" fill="black"/>
</svg>
