<svg width="24" height="24" viewBox="0 0 24 24" fill="none" xmlns="http://www.w3.org/2000/svg">
<path d="M12 15.36C10.128 15.36 8.64 13.872 8.64 12C8.64 10.128 10.128 8.64 12 8.64C13.872 8.64 15.36 10.128 15.36 12C15.36 13.872 13.872 15.36 12 15.36ZM3.12 12C3.12 16.968 7.032 20.88 12 20.88C16.968 20.88 20.88 16.848 20.88 12C20.88 7.032 16.968 3.12 12 3.12C7.032 3.12 3.12 7.032 3.12 12ZM3.6 12C3.6 9.744 4.464 7.704 5.88 6.216L9.12 9.456C8.52 10.128 8.16 11.016 8.16 12C8.16 12.984 8.52 13.872 9.12 14.544L5.88 17.784C4.464 16.296 3.6 14.256 3.6 12ZM6.216 18.12L9.456 14.88C10.128 15.48 11.016 15.84 12 15.84C12.984 15.84 13.872 15.48 14.544 14.88L17.76 18.096C16.272 19.536 14.256 20.4 12 20.4C9.744 20.4 7.704 19.536 6.216 18.12ZM6.216 5.88C7.704 4.464 9.744 3.6 12 3.6C14.256 3.6 16.296 4.464 17.784 5.88L14.544 9.12C13.872 8.52 12.984 8.16 12 8.16C11.016 8.16 10.128 8.52 9.456 9.12L6.216 5.88ZM14.88 14.544C15.48 13.872 15.84 12.984 15.84 12C15.84 11.016 15.48 10.128 14.88 9.456L18.12 6.216C19.536 7.704 20.4 9.744 20.4 12C20.4 14.208 19.536 16.248 18.096 17.76L14.88 14.544Z" fill="black"/>
</svg>
