<svg width="24" height="24" viewBox="0 0 24 24" fill="none" xmlns="http://www.w3.org/2000/svg">
<path d="M9.504 18.144V21.36H14.496V18.144C14.496 16.8 14.928 16.056 16.152 14.64L16.752 13.944C18 12.504 18.672 11.016 18.672 9.28802C18.672 5.30401 15.528 2.64001 12 2.64001C8.472 2.64001 5.328 5.30401 5.328 9.28802C5.328 11.016 6 12.504 7.248 13.944L7.848 14.64C9.072 16.056 9.504 16.8 9.504 18.144ZM5.808 9.28802C5.808 5.59201 8.712 3.12001 12 3.12001C15.288 3.12001 18.192 5.59201 18.192 9.28802C18.192 10.896 17.568 12.264 16.392 13.632L15.792 14.328C14.544 15.768 14.016 16.68 14.016 18.408H12.24V12.528H11.76V18.408H9.984C9.984 16.68 9.456 15.768 8.208 14.328L7.608 13.632C6.432 12.264 5.808 10.896 5.808 9.28802ZM9.984 20.88V18.888H14.016V20.88H9.984Z" fill="black"/>
</svg>
