<svg width="24" height="24" viewBox="0 0 24 24" fill="none" xmlns="http://www.w3.org/2000/svg">
<path d="M3.96001 21.36H20.04C20.784 21.36 21.36 20.76 21.36 20.04V3.96001C21.36 3.24001 20.784 2.64001 20.04 2.64001H3.96001C3.24001 2.64001 2.64001 3.24001 2.64001 3.96001V20.04C2.64001 20.76 3.24001 21.36 3.96001 21.36ZM5.30401 6.91202C5.30401 6.02401 6.02401 5.30401 6.91202 5.30401C7.80002 5.30401 8.52002 6.02401 8.52002 6.91202C8.52002 7.80002 7.80002 8.52002 6.91202 8.52002C6.02401 8.52002 5.30401 7.80002 5.30401 6.91202ZM5.52001 18.696V9.74402H8.32802V18.696H5.52001ZM10.056 18.696V9.74402H12.72V10.944H12.744C13.176 10.152 14.136 9.52802 15.408 9.52802C17.808 9.52802 18.696 11.112 18.696 13.8V18.696H15.936V14.328C15.936 13.128 15.864 11.952 14.472 11.952C13.2 11.952 12.84 12.888 12.84 14.256V18.696H10.056Z" fill="black"/>
</svg>
