<svg width="24" height="24" viewBox="0 0 24 24" fill="none" xmlns="http://www.w3.org/2000/svg">
<path d="M8.27999 16.392L12 21.408L15.72 16.392C17.448 14.064 18.792 11.832 18.792 9.50401C18.768 5.20801 15.504 2.59201 12 2.59201C8.49599 2.59201 5.23199 5.20801 5.20799 9.50401C5.20799 11.832 6.55199 14.064 8.27999 16.392ZM5.68799 9.50401C5.71199 5.49601 8.73599 3.07201 12 3.07201C15.264 3.07201 18.288 5.49601 18.312 9.50401C18.312 11.688 17.04 13.8 15.336 16.104L12 20.592L8.66399 16.104C6.95999 13.8 5.68799 11.688 5.68799 9.50401ZM8.87999 9.43201C8.87999 11.16 10.272 12.552 12 12.552C13.728 12.552 15.12 11.16 15.12 9.43201C15.12 7.70401 13.728 6.31201 12 6.31201C10.272 6.31201 8.87999 7.70401 8.87999 9.43201ZM9.35999 9.43201C9.35999 7.96801 10.536 6.79201 12 6.79201C13.464 6.79201 14.64 7.96801 14.64 9.43201C14.64 10.896 13.464 12.072 12 12.072C10.536 12.072 9.35999 10.896 9.35999 9.43201Z" fill="black"/>
</svg>
