<svg width="24" height="24" viewBox="0 0 24 24" fill="none" xmlns="http://www.w3.org/2000/svg">
<path d="M8.184 20.88H11.136C12.744 20.88 14.136 20.28 15.12 18.984C15.336 18.72 15.504 18.456 15.648 18.144H16.128C18.84 18.144 20.88 16.344 20.88 13.848C20.88 11.28 18.84 9.48 16.128 9.48H3.12V15C3.12 16.824 3.456 18.024 4.224 18.984C5.232 20.28 6.576 20.88 8.184 20.88ZM3.6 15V9.96H15.72V15C15.72 18.168 14.256 20.4 11.136 20.4H8.184C5.184 20.4 3.6 18.264 3.6 15ZM7.056 7.92H7.536C7.392 6.672 8.232 6.024 9.72 5.832L11.424 5.616C13.032 5.4 14.136 4.584 14.04 3.12H13.56C13.656 4.32 12.816 4.944 11.376 5.136L9.672 5.352C8.016 5.568 6.912 6.408 7.056 7.92ZM15.84 17.664C16.104 16.944 16.2 16.08 16.2 15V9.96C18.672 9.984 20.4 11.496 20.4 13.824V13.872C20.4 16.152 18.648 17.664 16.128 17.664H15.84Z" fill="black"/>
</svg>
