<svg width="24" height="24" viewBox="0 0 24 24" fill="none" xmlns="http://www.w3.org/2000/svg">
<path d="M18.2401 22.32L22.3201 18.24L5.76005 1.67999L1.68005 5.75999L18.2401 22.32ZM2.35205 5.75999L5.76005 2.35199L13.4401 10.032C12.5281 9.83999 11.5441 10.104 10.8241 10.8C10.1041 11.52 9.84005 12.528 10.0321 13.44L2.35205 5.75999ZM4.27205 5.68799C4.27205 6.47999 4.92005 7.12799 5.71205 7.12799C6.50405 7.12799 7.15205 6.47999 7.15205 5.68799C7.15205 4.89599 6.50405 4.24799 5.71205 4.24799C4.92005 4.24799 4.27205 4.89599 4.27205 5.68799ZM4.75205 5.68799C4.75205 5.15999 5.18405 4.72799 5.71205 4.72799C6.24005 4.72799 6.67205 5.15999 6.67205 5.68799C6.67205 6.21599 6.24005 6.64799 5.71205 6.64799C5.18405 6.64799 4.75205 6.21599 4.75205 5.68799ZM11.1361 14.52C10.2241 13.608 10.2241 12.096 11.1601 11.136C12.0961 10.224 13.6081 10.224 14.5201 11.136L21.6481 18.24L18.2401 21.648L11.1361 14.52ZM11.4241 12.864C11.4241 13.656 12.0721 14.304 12.8641 14.304C13.6561 14.304 14.3041 13.656 14.3041 12.864C14.3041 12.072 13.6561 11.424 12.8641 11.424C12.0721 11.424 11.4241 12.072 11.4241 12.864ZM11.9041 12.864C11.9041 12.336 12.3361 11.904 12.8641 11.904C13.3921 11.904 13.8241 12.336 13.8241 12.864C13.8241 13.392 13.3921 13.824 12.8641 13.824C12.3361 13.824 11.9041 13.392 11.9041 12.864Z" fill="black"/>
</svg>
