<svg width="24" height="24" viewBox="0 0 24 24" fill="none" xmlns="http://www.w3.org/2000/svg">
<path d="M13.632 21.84H20.76V2.16H13.8V9.768L8.32799 4.296L3.23999 9.408L13.632 19.8V21.84ZM3.91199 9.408L8.32799 4.968L19.368 16.008C19.992 16.632 20.28 17.376 20.28 18.24C20.28 19.944 18.84 21.36 17.16 21.36C16.344 21.36 15.552 21.048 14.928 20.424L3.91199 9.408ZM15.36 18.216C15.36 19.2 16.152 20.04 17.184 20.04C18.168 20.04 18.936 19.2 18.936 18.216C18.936 17.232 18.144 16.44 17.184 16.44C16.152 16.44 15.36 17.232 15.36 18.216ZM15.504 5.64C15.504 4.656 16.296 3.864 17.328 3.864C18.288 3.864 19.08 4.656 19.08 5.64C19.08 6.6 18.288 7.464 17.328 7.464C16.296 7.464 15.504 6.6 15.504 5.64ZM15.84 18.216C15.84 17.496 16.416 16.92 17.184 16.92C17.88 16.92 18.456 17.496 18.456 18.216C18.456 18.936 17.88 19.56 17.184 19.56C16.416 19.56 15.84 18.936 15.84 18.216ZM15.984 5.64C15.984 6.36 16.56 6.984 17.328 6.984C18.024 6.984 18.6 6.36 18.6 5.64C18.6 4.92 18.024 4.344 17.328 4.344C16.56 4.344 15.984 4.92 15.984 5.64Z" fill="black"/>
</svg>
