<svg width="24" height="24" viewBox="0 0 24 24" fill="none" xmlns="http://www.w3.org/2000/svg">
<path d="M2.64001 21.12H21.36V15.36H2.64001V21.12ZM3.12001 20.64V15.84H11.616C10.848 16.344 10.344 17.232 10.32 18.216C10.344 19.224 10.848 20.112 11.616 20.64H3.12001ZM7.65602 8.856L12 13.2L16.344 8.856L16.008 8.52L14.208 10.32L12.24 12.288V2.88H11.76V12.288L9.79202 10.32L7.99202 8.52L7.65602 8.856ZM10.8 18.216C10.824 16.92 11.88 15.84 13.176 15.84H20.88V20.64H13.176C11.88 20.64 10.824 19.56 10.8 18.216ZM11.808 18.24C11.808 19.032 12.456 19.68 13.248 19.68C14.04 19.68 14.688 19.032 14.688 18.24C14.688 17.448 14.04 16.8 13.248 16.8C12.456 16.8 11.808 17.448 11.808 18.24ZM12.288 18.24C12.288 17.712 12.72 17.28 13.248 17.28C13.776 17.28 14.208 17.712 14.208 18.24C14.208 18.768 13.776 19.2 13.248 19.2C12.72 19.2 12.288 18.768 12.288 18.24Z" fill="black"/>
</svg>
