<svg width="24" height="24" viewBox="0 0 24 24" fill="none" xmlns="http://www.w3.org/2000/svg">
<path d="M12 20.88C16.968 20.88 20.88 16.848 20.88 12C20.88 7.032 16.968 3.12 12 3.12C7.032 3.12 3.12 7.032 3.12 12C3.12 16.968 7.032 20.88 12 20.88ZM3.6 12C3.6 7.296 7.296 3.6 12 3.6C16.704 3.6 20.4 7.296 20.4 12C20.4 16.584 16.704 20.4 12 20.4C7.296 20.4 3.6 16.704 3.6 12ZM9.024 10.44C9.024 12.216 10.272 13.536 12.024 13.536C13.44 13.536 14.496 12.672 14.832 11.4H14.856C14.976 13.92 14.448 16.224 11.976 16.224C10.584 16.224 9.744 15.456 9.528 14.04H9.048C9.264 15.648 10.392 16.704 11.976 16.704C14.136 16.704 15.384 14.832 15.36 11.904C15.336 9.048 14.112 7.344 12.024 7.344C10.272 7.344 9.024 8.664 9.024 10.44ZM9.504 10.464V10.416C9.504 8.856 10.464 7.824 12 7.824H12.048C13.656 7.824 14.568 9 14.568 10.416V10.464C14.568 12 13.632 13.056 12.048 13.056H12C10.464 13.056 9.504 12.024 9.504 10.464Z" fill="black"/>
</svg>
