<svg width="24" height="24" viewBox="0 0 24 24" fill="none" xmlns="http://www.w3.org/2000/svg">
<path d="M12 20.88C16.968 20.88 20.88 16.848 20.88 12C20.88 7.032 16.968 3.12 12 3.12C7.032 3.12 3.12 7.032 3.12 12C3.12 16.968 7.032 20.88 12 20.88ZM3.6 12C3.6 7.296 7.296 3.6 12 3.6C14.256 3.6 16.296 4.464 17.784 5.88L5.88 17.784C4.464 16.296 3.6 14.256 3.6 12ZM6.216 18.12L18.12 6.216C19.536 7.704 20.4 9.744 20.4 12C20.4 16.584 16.704 20.4 12 20.4C9.744 20.4 7.704 19.536 6.216 18.12Z" fill="black"/>
</svg>
