<svg width="24" height="24" viewBox="0 0 24 24" fill="none" xmlns="http://www.w3.org/2000/svg">
<path d="M9.636 21.432L11.58 19.68L10.404 16.248L14.196 12.48L18.348 20.4L19.644 18.864L17.484 9.19199L20.916 5.75999C21.252 5.44799 21.42 4.96799 21.42 4.48799C21.42 3.33599 20.532 2.56799 19.5 2.56799C18.924 2.56799 18.492 2.83199 17.988 3.35999L14.796 6.50399L5.1 4.31999L3.612 5.66399L11.532 9.79199L7.74 13.56L4.332 12.48L2.58 14.352L7.212 16.872L9.636 21.432ZM3.348 14.232L4.476 13.032L7.884 14.112L12.324 9.67199L4.452 5.56799L5.244 4.84799L14.94 7.03199L18.324 3.69599C18.78 3.23999 19.092 3.04799 19.5 3.04799C20.292 3.04799 20.94 3.62399 20.94 4.48799C20.94 4.87199 20.82 5.20799 20.58 5.42399L16.956 9.04799L19.116 18.744L18.444 19.536L14.316 11.688L9.852 16.128L11.028 19.536L9.78 20.664L7.572 16.512L3.348 14.232Z" fill="black"/>
</svg>
