<svg width="24" height="24" viewBox="0 0 24 24" fill="none" xmlns="http://www.w3.org/2000/svg">
<path d="M12.0937 14.4375C11.3481 14.4366 10.6332 14.1396 10.106 13.6114C9.57869 13.0833 9.2821 12.3672 9.28125 11.6203V6.00468C9.28227 5.25783 9.57891 4.54186 10.1061 4.01376C10.6334 3.48566 11.3481 3.18852 12.0937 3.1875C12.8394 3.18835 13.5543 3.48544 14.0816 4.01357C14.6088 4.54171 14.9054 5.25778 14.9063 6.00468V11.6203C14.9056 12.3673 14.609 13.0834 14.0817 13.6116C13.5544 14.1398 12.8394 14.4368 12.0937 14.4375ZM12.0937 3.70347C11.4847 3.70432 10.9008 3.94704 10.4702 4.37842C10.0395 4.80979 9.79721 5.39462 9.79636 6.00468V11.6203C9.79704 12.2304 10.0393 12.8154 10.47 13.2468C10.9007 13.6782 11.4846 13.9209 12.0937 13.9215C12.7029 13.921 13.2869 13.6784 13.7177 13.247C14.1484 12.8155 14.3906 12.2305 14.3911 11.6203V6.00468C14.3905 5.39457 14.1482 4.80964 13.7175 4.37823C13.2868 3.94682 12.7028 3.70415 12.0937 3.70347Z" fill="black"/>
<path d="M12.0016 17.25C10.4355 17.2486 8.93394 16.6359 7.82635 15.5462C6.71876 14.4565 6.09564 12.9788 6.09375 11.4375H6.61358C6.61547 12.8428 7.18354 14.19 8.19322 15.1837C9.2029 16.1774 10.5718 16.7365 11.9997 16.7384C13.4277 16.7367 14.7967 16.1777 15.8066 15.184C16.8164 14.1902 17.3845 12.8429 17.3864 11.4375H17.9063C17.9044 12.9783 17.2817 14.4554 16.1748 15.5451C15.0679 16.6347 13.5672 17.2478 12.0016 17.25Z" fill="black"/>
<path d="M12.2813 17.0625H11.9063V20.25H12.2813V17.0625Z" fill="black"/>
<path d="M14.7188 20.25H9.46875V20.8125H14.7188V20.25Z" fill="black"/>
</svg>
