<svg width="24" height="24" viewBox="0 0 24 24" fill="none" xmlns="http://www.w3.org/2000/svg">
<path d="M13.824 9.51601H19.752V3.58801H13.824V9.51601ZM2.64001 12.564H21.36V12.084H2.64001V12.564ZM4.24801 20.412H10.176V15.036H9.69602V19.932H4.72801V15.036H4.24801V20.412ZM4.24801 9.51601H10.176V3.58801H4.24801V9.51601ZM4.72801 9.03601V4.06801H9.69602V9.03601H4.72801ZM6.50401 18.132H7.94402V16.692H6.50401V18.132ZM6.50401 7.28401H7.94402V5.84401H6.50401V7.28401ZM13.824 20.388H15.168V19.044H13.824V20.388ZM13.824 16.38H16.512V15.036H13.824V16.38ZM14.304 9.03601V4.06801H19.272V9.03601H14.304ZM15.168 19.044H17.832V16.38H16.512V17.7H15.168V19.044ZM16.056 7.28401H17.496V5.84401H16.056V7.28401ZM18.408 20.388H19.752V17.7H18.408V20.388Z" fill="black"/>
</svg>
