<svg width="24" height="24" viewBox="0 0 24 24" fill="none" xmlns="http://www.w3.org/2000/svg">
<path d="M2.63999 8.18401V12H3.11999V8.18401C3.11999 7.32001 4.05599 6.33601 4.96799 6.33601H21.408L19.512 8.23201L17.64 10.104L17.976 10.44L22.32 6.09601L17.976 1.75201L17.64 2.08801L19.512 3.96001L21.408 5.85601H4.96799C3.81599 5.85601 2.63999 7.08001 2.63999 8.18401ZM1.67999 17.904L6.02399 22.248L6.35999 21.912L4.48799 20.04L2.59199 18.144H19.032C20.184 18.144 21.36 16.92 21.36 15.816V12H20.88V15.816C20.88 16.68 19.944 17.664 19.032 17.664H2.59199L4.48799 15.768L6.35999 13.896L6.02399 13.56L1.67999 17.904Z" fill="black"/>
</svg>
