<svg width="24" height="24" viewBox="0 0 24 24" fill="none" xmlns="http://www.w3.org/2000/svg">
<path d="M5.30401 17.688H18.696V17.208H16.176C18.384 15.792 19.8 13.392 19.8 10.68C19.8 6.384 16.296 2.88 12 2.88C7.70402 2.88 4.20001 6.384 4.20001 10.68C4.20001 13.392 5.59201 15.792 7.80002 17.208H5.30401V17.688ZM2.64001 21.12H21.36V15H20.88V20.64H3.12001V15H2.64001V21.12ZM4.68001 10.68C4.68001 6.624 7.94402 3.36 12 3.36C16.056 3.36 19.32 6.624 19.32 10.68C19.32 13.536 17.688 16.008 15.312 17.208H8.68802C6.31201 16.008 4.68001 13.536 4.68001 10.68Z" fill="black"/>
</svg>
