<svg width="24" height="24" viewBox="0 0 24 24" fill="none" xmlns="http://www.w3.org/2000/svg">
<path d="M15.444 15.804L21.348 21.684L21.684 21.348L15.804 15.444C17.1 14.052 17.916 12.18 17.916 10.116C17.916 5.82001 14.412 2.31601 10.116 2.31601C5.81998 2.31601 2.31598 5.82001 2.31598 10.116C2.31598 14.412 5.81998 17.916 10.116 17.916C12.18 17.916 14.052 17.1 15.444 15.804ZM2.79598 10.116C2.79598 6.08401 6.08398 2.79601 10.116 2.79601C14.148 2.79601 17.436 6.08401 17.436 10.116C17.436 14.148 14.148 17.436 10.116 17.436C6.08398 17.436 2.79598 14.148 2.79598 10.116ZM7.28398 11.172C7.30798 12.804 8.33998 13.812 9.87598 13.932V14.844H10.356V13.932C11.844 13.86 12.876 13.02 12.876 11.748C12.876 10.596 12.036 9.92401 10.788 9.78001L10.356 9.73201V6.63601C11.604 6.70801 12.276 7.45201 12.276 8.70001H12.756C12.756 7.23601 11.82 6.22801 10.356 6.15601V5.24401H9.87598V6.15601C8.60398 6.27601 7.59598 7.09201 7.59598 8.26801C7.59598 9.32401 8.31598 9.97201 9.51598 10.116L9.87598 10.164V13.452C8.57998 13.332 7.78798 12.54 7.76398 11.172H7.28398ZM8.07598 8.26801C8.07598 7.33201 8.79598 6.73201 9.87598 6.63601V9.68401L9.56398 9.63601C8.55598 9.51601 8.07598 9.08401 8.07598 8.26801ZM10.356 13.452V10.212L10.74 10.26C11.82 10.38 12.396 10.86 12.396 11.748C12.396 12.756 11.628 13.38 10.356 13.452Z" fill="black"/>
</svg>
