<svg width="24" height="24" viewBox="0 0 24 24" fill="none" xmlns="http://www.w3.org/2000/svg">
<path d="M12 20.88C16.968 20.88 20.88 16.848 20.88 12C20.88 7.032 16.968 3.12 12 3.12C7.032 3.12 3.12 7.032 3.12 12C3.12 16.968 7.032 20.88 12 20.88ZM3.6 12C3.6 7.296 7.296 3.6 12 3.6C16.704 3.6 20.4 7.296 20.4 12C20.4 16.584 16.704 20.4 12 20.4C7.296 20.4 3.6 16.704 3.6 12ZM8.76 8.064H14.64V8.424C12.408 10.392 11.064 13.2 10.68 16.44H11.208C11.592 13.176 12.96 10.464 15.12 8.64V7.584H8.76V8.064Z" fill="black"/>
</svg>
