<svg width="24" height="24" viewBox="0 0 24 24" fill="none" xmlns="http://www.w3.org/2000/svg">
<path d="M12 21.84C18.24 19.368 21.36 15.432 21.36 10.128V5.088C18.696 3.168 15.456 2.16 12 2.16C8.54402 2.16 5.30401 3.168 2.64001 5.088V10.128C2.64001 15.432 5.76001 19.368 12 21.84ZM3.12001 10.128V5.328C5.68801 3.552 8.71202 2.64 12 2.64C15.288 2.64 18.312 3.552 20.88 5.328V10.128C20.88 15.216 18 18.888 12 21.312C6.00001 18.888 3.12001 15.216 3.12001 10.128ZM7.32002 11.064C7.32002 11.184 7.34402 11.28 7.41602 11.376L9.52802 14.808C10.056 15.696 11.016 16.272 12.12 16.272C13.752 16.272 15.048 15.048 15.144 13.416L15.264 7.824C15.264 7.536 15.048 7.296 14.76 7.296C14.472 7.296 14.256 7.536 14.256 7.8L14.184 10.8H13.656L13.68 6.816C13.68 6.528 13.488 6.288 13.176 6.288C12.888 6.288 12.672 6.528 12.672 6.792L12.648 10.56H12.12L12.096 6.288C12.096 6.024 11.904 5.784 11.592 5.784C11.304 5.784 11.088 6.024 11.088 6.312L11.112 10.8H10.56L10.512 7.296C10.512 7.032 10.32 6.792 10.008 6.792C9.69602 6.792 9.50402 7.032 9.50402 7.32L9.57602 12.528L8.47202 10.728C8.37602 10.536 8.16002 10.416 7.94402 10.416C7.58402 10.416 7.32002 10.68 7.32002 11.064Z" fill="black"/>
</svg>
