<svg width="24" height="24" viewBox="0 0 24 24" fill="none" xmlns="http://www.w3.org/2000/svg">
<path d="M12 21.84C18.24 19.368 21.36 15.432 21.36 10.128V5.088C18.696 3.168 15.456 2.16 12 2.16C8.54402 2.16 5.30401 3.168 2.64001 5.088V10.128C2.64001 15.432 5.76001 19.368 12 21.84ZM3.12001 10.128V5.328C5.68801 3.552 8.71202 2.64 12 2.64C15.288 2.64 18.312 3.552 20.88 5.328V10.128C20.88 15.216 18 18.888 12 21.312C6.00001 18.888 3.12001 15.216 3.12001 10.128ZM8.16002 11.088L11.28 14.208L16.728 8.76L16.392 8.424L11.28 13.536L8.49602 10.752L8.16002 11.088Z" fill="black"/>
</svg>
