<svg width="24" height="24" viewBox="0 0 24 24" fill="none" xmlns="http://www.w3.org/2000/svg">
<path d="M4.07996 20.652H19.92V9.61199H16.8V8.00399C16.8 6.99599 16.464 6.05999 15.888 5.29199C15 4.11599 13.56 3.34799 12 3.34799C10.44 3.34799 8.99996 4.11599 8.11196 5.29199C7.53596 6.05999 7.19996 6.99599 7.19996 8.00399V9.61199H4.07996V20.652ZM4.55996 20.172V10.092H7.19996V12.996H7.67996V10.092H16.32V12.996H16.8V10.092H19.44V20.172H4.55996ZM7.67996 9.61199V8.00399C7.67996 5.62799 9.59996 3.82799 11.976 3.82799H12.024C14.4 3.82799 16.32 5.62799 16.32 8.00399V9.61199H7.67996Z" fill="black"/>
</svg>
