<svg width="24" height="24" viewBox="0 0 24 24" fill="none" xmlns="http://www.w3.org/2000/svg">
<path d="M12 21.36C16.296 21.36 19.8 17.856 19.8 13.56C19.8 11.496 18.984 9.62402 17.688 8.23202L19.128 6.76802L18.792 6.43201L17.328 7.87202C15.984 6.62401 14.208 5.83201 12.24 5.76001V3.12001H14.28V2.64001H9.72001V3.12001H11.76V5.76001C7.58401 5.88001 4.20001 9.33602 4.20001 13.56C4.20001 17.856 7.70401 21.36 12 21.36ZM4.68001 13.56C4.68001 9.52802 7.96801 6.24001 12 6.24001C16.032 6.24001 19.32 9.52802 19.32 13.56C19.32 17.592 16.032 20.88 12 20.88C7.96801 20.88 4.68001 17.592 4.68001 13.56ZM11.76 14.04C11.76 14.184 11.856 14.28 12 14.28C12.144 14.28 12.24 14.184 12.24 14.04V8.16002H11.76V14.04Z" fill="black"/>
</svg>
