<svg width="24" height="24" viewBox="0 0 24 24" fill="none" xmlns="http://www.w3.org/2000/svg">
<path d="M12 20.688C16.92 20.688 20.64 19.152 20.64 16.776V7.17601C20.64 4.82401 17.088 3.31201 12 3.31201C7.10399 3.31201 3.35999 4.82401 3.35999 7.17601V16.776C3.35999 19.152 7.00799 20.688 12 20.688ZM3.83999 16.776V13.416C4.99199 14.952 8.06399 15.912 12 15.912C15.888 15.912 19.008 14.952 20.16 13.416V16.776C20.16 18.768 16.824 20.208 12 20.208C7.10399 20.208 3.83999 18.768 3.83999 16.776ZM3.83999 12.048V8.54401C4.99199 10.08 8.06399 11.04 12 11.04C15.888 11.04 19.008 10.08 20.16 8.54401V12.048C20.16 13.968 16.824 15.432 12 15.432C7.10399 15.432 3.83999 13.992 3.83999 12.048ZM3.83999 7.17601C3.83999 5.20801 7.19999 3.79201 12 3.79201C16.968 3.79201 20.16 5.20801 20.16 7.17601C20.16 9.12001 16.824 10.56 12 10.56C7.10399 10.56 3.83999 9.12001 3.83999 7.17601Z" fill="black"/>
</svg>
