<svg width="24" height="24" viewBox="0 0 24 24" fill="none" xmlns="http://www.w3.org/2000/svg">
<path d="M10.776 20.88H13.224C13.896 20.88 14.448 20.4 14.4 19.512C16.344 18.816 17.784 17.088 18.072 15.024H18.552C20.136 15.024 21.36 13.8 21.36 12.216V11.304C21.36 9.72 20.136 8.496 18.552 8.496H18.096C17.688 5.472 15.12 3.12 12 3.12C8.88002 3.12 6.31201 5.472 5.90401 8.496H5.44801C3.86401 8.496 2.64001 9.72 2.64001 11.304V12.216C2.64001 13.8 3.86401 15.024 5.44801 15.024H6.33601V9.312C6.33601 6.168 8.85602 3.6 12 3.6C15.144 3.6 17.664 6.168 17.664 9.312V14.184C17.664 16.368 16.32 18.24 14.4 19.008C14.448 18.192 13.896 17.664 13.224 17.664H10.776C10.104 17.664 9.60002 18.168 9.60002 18.84V19.704C9.60002 20.376 10.104 20.88 10.776 20.88ZM3.12001 12.216V11.304C3.12001 9.912 4.05601 8.976 5.44801 8.976H5.85601V14.544H5.44801C4.05601 14.544 3.12001 13.608 3.12001 12.216ZM10.08 19.704V18.84C10.08 18.36 10.296 18.144 10.776 18.144H13.224C13.704 18.144 13.92 18.36 13.92 18.84V19.704C13.92 20.184 13.704 20.4 13.224 20.4H10.776C10.296 20.4 10.08 20.184 10.08 19.704ZM18.144 14.544V8.976H18.552C19.944 8.976 20.88 9.912 20.88 11.304V12.216C20.88 13.608 19.944 14.544 18.552 14.544H18.144Z" fill="black"/>
</svg>
