<svg width="24" height="24" viewBox="0 0 24 24" fill="none" xmlns="http://www.w3.org/2000/svg">
<path d="M4.33201 19.284H19.644C20.652 17.82 21.3 15.972 21.3 14.028C21.3 11.988 20.628 10.092 19.5 8.532L19.164 8.892C20.196 10.332 20.82 12.108 20.82 14.028C20.82 15.78 20.268 17.436 19.38 18.804H4.59601C3.70801 17.436 3.18001 15.78 3.18001 14.028C3.18001 9.156 7.11601 5.196 11.988 5.196C13.908 5.196 15.684 5.82 17.124 6.852L17.484 6.516C15.924 5.388 14.028 4.716 11.988 4.716C6.85201 4.716 2.70001 8.892 2.70001 14.028C2.70001 15.972 3.32401 17.82 4.33201 19.284ZM11.748 14.028C11.748 14.172 11.844 14.268 11.988 14.268C12.06 14.268 12.108 14.244 12.156 14.196L18.756 7.596L18.42 7.26L11.82 13.86C11.772 13.908 11.748 13.956 11.748 14.028Z" fill="black"/>
</svg>
