<svg width="18" height="20" viewBox="0 0 18 20" fill="none" xmlns="http://www.w3.org/2000/svg">
<path d="M15.3115 4.00888C14.1997 3.30628 13.397 2.1826 13.1468 0.872571C13.0927 0.589394 13.0631 0.298203 13.0631 0H9.51437L9.50851 13.7801C9.44889 15.3232 8.13824 16.5618 6.5312 16.5618C6.03182 16.5618 5.56139 16.4409 5.14749 16.2295C4.19801 15.7453 3.54837 14.7809 3.54837 13.6713C3.54837 12.0774 4.8866 10.7807 6.5312 10.7807C6.83827 10.7807 7.13259 10.8298 7.4114 10.9143V7.40399C7.12294 7.36593 6.83 7.34222 6.5312 7.34222C2.9301 7.34255 0 10.1817 0 13.6713C0 15.8125 1.10421 17.7072 2.78845 18.8529C3.84924 19.5746 5.1399 20 6.53154 20C10.133 20 13.0631 17.1609 13.0631 13.6713V6.6837C14.4547 7.65177 16.16 8.22213 18 8.22213V4.78361C17.0088 4.78361 16.0855 4.4981 15.3115 4.00888Z" fill="white"/>
</svg>
