<svg width="24" height="24" viewBox="0 0 24 24" fill="none" xmlns="http://www.w3.org/2000/svg">
<path d="M3.12 19.68H20.88V10.92L18.6 8.64001H16.824V6.09601C16.824 5.08801 16.056 4.32001 15.072 4.32001H8.928C7.944 4.32001 7.176 5.08801 7.176 6.09601V8.64001H5.4L3.12 10.92V19.68ZM3.6 19.2V14.76H8.28V16.536H8.76V14.76H15.24V16.536H15.72V14.76H20.4V19.2H3.6ZM3.6 14.28V11.112L5.592 9.12001H18.408L20.4 11.112V14.28H15.72V12.456H15.24V14.28H8.76V12.456H8.28V14.28H3.6ZM7.656 8.64001V6.09601C7.656 5.28001 8.136 4.80001 8.928 4.80001H15.072C15.864 4.80001 16.344 5.28001 16.344 6.09601V8.64001H7.656Z" fill="black"/>
</svg>
