<svg width="24" height="24" viewBox="0 0 24 24" fill="none" xmlns="http://www.w3.org/2000/svg">
<path d="M4.44001 21.36C4.87201 21.36 5.32801 21.192 5.71201 20.832L15.672 10.92C16.104 11.064 16.608 11.16 17.088 11.16C19.44 11.16 21.36 9.24002 21.36 6.91202C21.36 6.07201 21.096 5.18401 20.592 4.63201L17.664 7.56002L16.44 6.33601L19.368 3.40801C18.816 2.90401 17.928 2.64001 17.088 2.64001C14.76 2.64001 12.84 4.56001 12.84 6.91202C12.84 7.39202 12.936 7.89602 13.08 8.32802L3.19201 18.264C2.80801 18.648 2.64001 19.104 2.64001 19.536C2.64001 20.544 3.43201 21.36 4.44001 21.36ZM3.12001 19.56C3.12001 19.224 3.24001 18.888 3.52801 18.6L13.656 8.44802C13.44 7.99202 13.32 7.46402 13.32 6.91202C13.32 4.82401 15.024 3.12001 17.088 3.12001C17.64 3.12001 18.168 3.24001 18.624 3.48001L15.768 6.33601L17.664 8.23202L20.52 5.37601C20.76 5.83201 20.88 6.36001 20.88 6.91202C20.88 8.97602 19.176 10.68 17.088 10.68C16.536 10.68 16.008 10.56 15.552 10.344L5.37601 20.496C5.08801 20.76 4.77601 20.88 4.44001 20.88C3.69601 20.88 3.12001 20.28 3.12001 19.56Z" fill="black"/>
</svg>
