<svg width="24" height="24" viewBox="0 0 24 24" fill="none" xmlns="http://www.w3.org/2000/svg">
<path d="M7.55997 21.36H16.44C17.424 21.36 18.24 20.544 18.24 19.56V8.40002H17.76V19.56C17.76 20.352 17.232 20.88 16.44 20.88H7.55997C6.76797 20.88 6.23997 20.352 6.23997 19.56V8.40002H5.75997V19.56C5.75997 20.544 6.57597 21.36 7.55997 21.36ZM3.83997 6.62401H20.16V6.14401H15.72V4.17601C15.72 3.31201 15.048 2.64001 14.184 2.64001H9.81597C8.95197 2.64001 8.27997 3.31201 8.27997 4.17601V6.14401H3.83997V6.62401ZM8.75997 6.14401V4.17601C8.75997 3.50401 9.14397 3.12001 9.81597 3.12001H14.184C14.856 3.12001 15.24 3.50401 15.24 4.17601V6.14401H8.75997ZM9.83997 17.64H10.32V9.72002H9.83997V17.64ZM13.68 17.64H14.16V9.72002H13.68V17.64Z" fill="black"/>
</svg>
