<svg width="24" height="24" viewBox="0 0 24 24" fill="none" xmlns="http://www.w3.org/2000/svg">
<path d="M8.1 8.83198L20.796 21.528L21.132 21.192L2.412 2.47198L2.076 2.80798L7.764 8.49598C6.924 9.43198 6.42 10.656 6.42 12V20.4H6.9V12C6.9 10.776 7.332 9.69598 8.1 8.83198ZM10.572 6.88798L11.004 7.31998C11.196 7.29598 11.412 7.29598 11.604 7.29598H21.012L19.116 9.19198L17.244 11.064L17.58 11.4L21.924 7.05598L17.58 2.71198L17.244 3.04798L19.116 4.91998L21.012 6.81598H11.604C11.244 6.81598 10.908 6.83998 10.572 6.88798Z" fill="black"/>
</svg>
