<svg width="24" height="24" viewBox="0 0 24 24" fill="none" xmlns="http://www.w3.org/2000/svg">
<path d="M21.192 21.528L21.528 21.192L2.808 2.47198L2.472 2.80798L11.448 11.784L7.32 11.76L4.56 8.99998L4.224 9.33598L6.72 11.76H2.64V12.24H6.72L4.224 14.664L4.56 15L7.32 12.24L11.472 12.216L5.568 18.096L5.904 18.432L11.784 12.528L11.76 16.68L9 19.44L9.336 19.776L11.76 17.28V21.36H12.24V17.28L14.664 19.776L15 19.44L12.24 16.68L12.216 12.552L21.192 21.528ZM9 4.55998L12.24 7.79998V7.31998L15 4.55998L14.664 4.22398L12.24 6.71998V2.63998H11.76V6.71998L9.336 4.22398L9 4.55998ZM14.064 9.62398L14.376 9.93598L18.432 5.90398L18.096 5.56798L14.064 9.62398ZM16.2 11.76L19.44 15L19.776 14.664L17.28 12.24H21.36V11.76H17.28L19.776 9.33598L19.44 8.99998L16.68 11.76H16.2Z" fill="black"/>
</svg>
