<svg width="24" height="24" viewBox="0 0 24 24" fill="none" xmlns="http://www.w3.org/2000/svg">
<path d="M12.012 22.32C12.804 22.32 13.452 21.672 13.452 20.88C13.452 20.16 12.924 19.584 12.252 19.464V14.976L16.596 13.608C17.364 13.368 17.844 12.744 17.844 11.976V8.08799H18.3V6.64799H16.86V8.08799H17.364V11.976C17.364 12.576 17.076 12.96 16.452 13.152L12.252 14.472V3.59999H13.164L11.988 1.67999L10.836 3.59999H11.772V16.32L7.66801 14.952C7.06801 14.76 6.78001 14.4 6.78001 13.8V9.93599C7.11601 9.83999 7.38001 9.52799 7.38001 9.14399C7.38001 8.68799 6.99601 8.30399 6.54001 8.30399C6.08401 8.30399 5.70001 8.68799 5.70001 9.14399C5.70001 9.52799 5.96401 9.83999 6.30001 9.93599V13.8C6.30001 14.568 6.78001 15.168 7.52401 15.408L11.772 16.824V19.464C11.1 19.584 10.572 20.16 10.572 20.88C10.572 21.672 11.22 22.32 12.012 22.32Z" fill="black"/>
</svg>
