<svg width="24" height="24" viewBox="0 0 24 24" fill="none" xmlns="http://www.w3.org/2000/svg">
<path d="M4.728 19.08V21.12H19.272V19.08C19.272 17.928 18.864 16.848 18.192 15.984C17.232 14.736 15.696 13.92 14.04 13.92H9.96C8.304 13.92 6.768 14.736 5.808 15.984C5.136 16.848 4.728 17.928 4.728 19.08ZM5.208 20.64V19.08C5.208 16.464 7.344 14.4 9.96 14.4H14.04C16.656 14.4 18.792 16.464 18.792 19.08V20.64H5.208ZM7.752 7.128C7.752 9.48 9.648 11.376 12 11.376C14.352 11.376 16.248 9.48 16.248 7.128C16.248 4.776 14.352 2.88 12 2.88C9.648 2.88 7.752 4.776 7.752 7.128ZM8.232 7.128C8.232 5.04 9.912 3.36 12 3.36C14.088 3.36 15.768 5.04 15.768 7.128C15.768 9.216 14.088 10.896 12 10.896C9.912 10.896 8.232 9.216 8.232 7.128Z" fill="black"/>
</svg>
