<svg width="24" height="24" viewBox="0 0 24 24" fill="none" xmlns="http://www.w3.org/2000/svg">
<path d="M7.76399 11.52V21.84H8.24399V11.52C10.14 11.376 11.604 9.79197 11.604 7.91997V2.39997H11.124V7.91997C11.124 9.57597 9.89999 10.92 8.24399 11.04V2.39997H7.76399V11.04C6.13199 10.92 4.88399 9.57597 4.88399 7.91997V2.39997H4.40399V7.91997C4.40399 9.79197 5.89199 11.376 7.76399 11.52ZM14.316 16.8H19.116V21.84H19.596V2.15997C16.668 2.15997 14.316 4.48797 14.316 7.43997V16.8ZM14.796 16.32V7.43997C14.796 4.84797 16.62 2.87997 19.116 2.66397V16.32H14.796Z" fill="black"/>
</svg>
