<svg width="24" height="24" viewBox="0 0 24 24" fill="none" xmlns="http://www.w3.org/2000/svg">
<path d="M5.04 19.92H20.88V7.20002H6.36V7.68002H20.4V19.44H5.04C4.128 19.44 3.6 18.912 3.6 18V6.00002C3.6 5.08802 4.128 4.56002 5.04 4.56002H18.816C18.48 4.24802 18.024 4.08002 17.52 4.08002H5.04C3.936 4.08002 3.12 4.89602 3.12 6.00002V18C3.12 19.104 3.936 19.92 5.04 19.92ZM15.48 13.656C15.48 14.112 15.864 14.52 16.344 14.52C16.776 14.52 17.16 14.112 17.16 13.656C17.16 13.224 16.776 12.84 16.344 12.84C15.864 12.84 15.48 13.224 15.48 13.656Z" fill="black"/>
</svg>
