<svg width="24" height="24" viewBox="0 0 24 24" fill="none" xmlns="http://www.w3.org/2000/svg">
<path d="M2.23199 8.57998L2.56799 8.91598C4.96799 6.58798 8.20799 5.12398 12 5.12398C15.792 5.12398 19.032 6.58798 21.432 8.91598L21.768 8.57998C19.296 6.17998 15.912 4.64398 12 4.64398C8.08799 4.64398 4.70399 6.17998 2.23199 8.57998ZM5.18399 11.796L5.49599 12.156C7.27199 10.644 9.43199 9.73198 12 9.73198C14.568 9.73198 16.728 10.644 18.48 12.18L18.816 11.796C16.992 10.236 14.664 9.25198 12 9.25198C9.33599 9.25198 7.00799 10.236 5.18399 11.796ZM8.11199 15.06L8.42399 15.42C9.38399 14.604 10.608 14.1 12 14.1C13.392 14.1 14.616 14.604 15.576 15.42L15.864 15.036C14.856 14.172 13.488 13.62 12 13.62C10.512 13.62 9.14399 14.172 8.11199 15.06ZM10.752 17.988L12 19.356L13.248 17.988C12.936 17.7 12.504 17.532 12 17.532C11.496 17.532 11.064 17.7 10.752 17.988Z" fill="black"/>
</svg>
