<svg xmlns="http://www.w3.org/2000/svg" width="200" height="200" fill="none" viewBox="0 0 200 200"><path fill="#000" d="m103.476 94.433-.445.77 3.849 2.222.445-.77zm-6.736-3.889-.445.77 3.849 2.222.445-.77zm36.729 21.143-.443.771 3.853 2.216.443-.77zm-32.523 29.978-.444.77 3.849 2.222.444-.769zm-6.736-3.889-.444.77 3.849 2.223.444-.77zm33.68 19.444-.443.771.026.015.443-.771zm-6.737-3.888-.444.77 3.849 2.222.444-.77zm-13.471-7.778-.445.77 3.849 2.222.445-.77zm6.736 3.889-.445.77 3.849 2.222.445-.77zm-59.242-33.246-.444.77 3.849 2.223.444-.77zm6.736 3.889-.444.77 3.849 2.222.444-.77zm6.736 3.889-.445.77 3.85 2.222.444-.77zm6.736 3.889-.445.77 3.849 2.222.445-.77zm99.668-10.165.003.033q0 .155-.029.305c-.794-1.065-2.456-1.721-4.271-1.721s-3.477.656-4.271 1.721a1.6 1.6 0 0 1-.029-.305l.003-.033.002-.027-.002-.022-.002-.025c0-.315.115-.615.321-.89.642-.959 2.18-1.636 3.978-1.636s3.336.677 3.978 1.636c.206.275.321.575.321.89l-.002.025a.2.2 0 0 0 0 .049"/><path fill="#000" d="M166.965 118.977q.057-.151.172-.306l.007-.009.007-.01c.526-.786 1.887-1.436 3.604-1.436s3.078.65 3.604 1.436l.007.01.007.009q.115.154.172.306c-.726.826-2.151 1.387-3.79 1.387s-3.064-.561-3.79-1.387"/><path fill="#000" d="m183.444 115.367-7.808-4.632a.44.44 0 0 0-.255-.061 33.4 33.4 0 0 0-9.001 1.846c-2.682.964-9.711 3.724-18.279 8.905.014-1.848.028-3.776.027-3.906a18 18 0 0 1 .624-5.066c1.898-6.694 7.741-14.805 13.089-15.738 1.228-.215 2.19-.032 2.861.543 1.143.98 1.231 2.897 1.216 3.674l-.008 4.364h.012c.056 1.632 2.195 2.901 4.919 2.901 2.738 0 4.621-1.109 4.915-2.894l-.04-.007h.056v-3.865c0-.151-.014-3.732-1.57-7.373-1.455-3.406-4.578-7.467-11.189-7.467-4.074 0-10.209 1.573-16.298 9.068-4.002 4.925-7.036 11.397-8.116 17.314-.271 1.481-.459 4.336-.467 4.456l-.001.029v10.693c-2.29 1.795-4.996 4.203-8.247 7.338a.33.33 0 0 0-.14.127q-.004.006-.006.013l-.16.154.007.007v46.312c0 .161.086.309.226.388l8.898 5.018.001.006c14.244-3.982 25.668-10.692 32.744-15.619 7.671-5.342 12.039-9.81 12.082-9.854a.44.44 0 0 0 .126-.31V115.75a.45.45 0 0 0-.218-.383m-44.424 2.106c.015-.223.201-2.962.453-4.341 1.963-10.754 11.236-25.652 23.54-25.652 4.91 0 8.396 2.323 10.362 6.904 1.491 3.475 1.508 7.011 1.508 7.046v3.729h-.004c-.218 1.326-1.765 2.149-4.038 2.149-2.186 0-4.032-.951-4.032-2.077h-.01l.008-4.28c.022-1.123-.147-3.185-1.527-4.368-.882-.756-2.09-1.006-3.592-.744-4.648.812-11.299 7.584-13.793 16.376a18.9 18.9 0 0 0-.656 5.317c0 .061-.003.742-.032 4.612l.139.001-.141-.001c-.034 4.68-.085 11.23-.085 11.234 0 1.154-1.854 2.129-4.049 2.129s-4.051-.975-4.051-2.129v-4.793l.014-.011-.014-.019zm-.422 68.951-8.124-4.581v-45.399l8.124 4.885zm-7.813-50.57c2.849-2.736 5.268-4.899 7.346-6.569v4.093c0 1.692 2.17 3.018 4.94 3.018 2.769 0 4.938-1.326 4.938-3.015l.082-10.908c8.711-5.324 15.884-8.144 18.588-9.116a32.5 32.5 0 0 1 8.622-1.787l7.299 4.33c-1.188 1.181-5.173 4.989-11.437 9.405-6.924 4.882-18.12 11.521-32.184 15.476zm51.988 25.694c-1.597 1.586-18.154 17.56-43.509 24.882v-45.036c14.114-3.987 25.347-10.652 32.298-15.555 5.844-4.121 9.721-7.72 11.211-9.174z"/><path fill="#000" d="M169.453 143.961c-.06-1.565-.674-2.734-1.729-3.29-1.269-.669-3.048-.391-4.883.764-.392.248-.773.525-1.125.817-1.944 1.352-3.339 3.28-4.142 5.722a9.5 9.5 0 0 0-.742 3.797 5 5 0 0 0 .3 1.583l.027.115h.016c.605 1.483 1.976 2.179 3.696 1.884l-.151 11.869 4.987-3.139.151-11.818c2.283-2.464 3.693-5.719 3.595-8.304M129.923 90.3h-.29v.29h.29zm0 1.333h-.29v.29h.29zm0 1.334h-.29v.29h.29zm0 1.333h-.29v.29h.29zm0 1.333h-.29v.29h.29zm0 1.334h-.29v.29h.29zm0 1.333h-.29v.29h.29zm0 1.333h-.29v.29h.29zm0 1.333h-.29v.29h.29zm0 1.334h-.29v.289h.29zm0 1.333h-.29v.29h.29zm0 1.333h-.29v.29h.29zm0 1.334h-.29v.289h.29zm0 1.333h-.29v.29h.29zm0 1.333h-.29v.29h.29zm0 1.334h-.29v.289h.29zm0 1.333h-.29v.29h.29zm-1.334-20h-.289v.29h.289zm0 1.334h-.289v.29h.289zm0 1.333h-.289v.29h.289zm0 1.333h-.289v.29h.289zm0 1.334h-.289v.29h.289zm0 14.666h-.289v.29h.289zm-.289 1.383.086-.05h-.086zm-1.334-21.093h.29v-.29h-.229l-.061.035zm.29 1.044h-.29v.29h.29zm0 1.333h-.29v.29h.29zm0 1.333h-.29v.29h.29zm0 1.334h-.29v.29h.29zm0 14.666h-.29v.29h.29zm0 1.333h-.29v.29h.29zm-1.333-19.999h-.29v.29h.29zm0 1.333h-.29v.29h.29zm0 1.333h-.29v.29h.29zm0 1.334h-.29v.29h.29zm0 14.666h-.29v.29h.29zm0 1.333h-.29v.29h.29zm0 1.334h-.29v.242l.29-.165zM124.3 93.256h.289v-.192l-.289.17zm.289 1.044h-.289v.29h.289zm0 1.333h-.289v.29h.289zm0 1.334h-.289v.29h.289zm0 14.666h-.289v.29h.289zm0 1.333h-.289v.29h.289zm0 1.334h-.289v.289h.289zm-1.333-20h-.29v.29h.29zm0 1.333h-.29v.29h.29zm0 1.334h-.29v.29h.29zm0 14.666h-.29v.29h.29zm0 1.333h-.29v.29h.29zm0 1.334h-.29v.289h.29zm0 1.333h-.29v.29h.256l.034-.02zm-1.333-20h-.29v.29h.29zm0 1.334h-.29v.29h.29zm0 14.666h-.29v.29h.29zm0 1.333h-.29v.29h.29zm0 1.334h-.29v.289h.29zm0 1.333h-.29v.29h.29zm-1.334-20h-.289v.29h.289zm0 1.334h-.289v.29h.289zm0 14.666h-.289v.29h.289zm0 1.333h-.289v.29h.289zm0 1.334h-.289v.289h.289zm0 1.333h-.289v.29h.289zm0 1.333h-.289v.29h.289zm-1.333-19.999h-.29v.29h.29zm0 1.333h-.29v.29h.29zm0 1.333h-.29v.29h.29zm0 1.333h-.29v.29h.29zm0 1.334h-.29v.289h.29zm0 1.333h-.29v.29h.29zm0 1.333h-.29v.29h.29zm0 1.334h-.29v.289h.29zm0 1.333h-.29v.29h.29zm0 1.333h-.29v.29h.29zm0 1.334h-.29v.289h.29zm0 1.333h-.29v.29h.29zm0 1.333h-.29v.29h.29zm0 1.334h-.29v.289h.29zm0 1.333h-.29v.29h.29zm0 1.333h-.29v.29h.29zm-.29 1.334v.058l.103-.058zm-1.333-21.044h.29v-.279l-.29.17zm.29 1.044h-.29v.29h.29zm0 1.333h-.29v.29h.29zm0 1.333h-.29v.29h.29zm0 1.334h-.29v.289h.29zm0 16h-.29v.289h.29zm-1.334-20h-.289v.29h.289zm0 1.333h-.289v.29h.289zm0 1.333h-.289v.29h.289zm0 1.334h-.289v.289h.289zm0 16h-.289v.289h.289zm0 1.333h-.289v.252l.289-.166zm-1.333-21.043v-.047l-.079.046zm0 1.043h-.29v.29h.29zm0 1.333h-.29v.29h.29zm0 1.334h-.29v.289h.29zm0 16h-.29v.289h.29zm0 1.333h-.29v.29h.29zm-1.333-20h-.29v.29h.29zm0 1.333h-.29v.29h.29zm0 1.334h-.29v.289h.29zm0 16h-.29v.289h.29zm0 1.333h-.29v.29h.29zm0 1.333h-.29v.29h.271l.019-.01zm-1.334-20h-.289v.29h.289zm0 1.334h-.289v.289h.289zm0 16h-.289v.289h.289zm0 1.333h-.289v.29h.289zm0 1.333h-.289v.29h.289zm-1.623-19.71h.29v-.29h-.129l-.161.095zm.29 1.044h-.29v.289h.29zm0 16h-.29v.289h.29zm0 1.333h-.29v.29h.29zm0 1.333h-.29v.29h.29zm0 1.334h-.29v.289h.29zm-1.333-20h-.29v.289h.29zm0 1.333h-.29v.29h.29zm0 1.333h-.29v.29h.29zm0 1.334h-.29v.289h.29zm0 1.333h-.29v.29h.29zm0 1.333h-.29v.29h.29zm0 1.334h-.29v.289h.29zm0 1.333h-.29v.29h.29zm0 1.333h-.29v.29h.29zm0 1.334h-.29v.289h.29zm0 1.333h-.29v.29h.29zm0 1.333h-.29v.29h.29zm0 1.334h-.29v.289h.29zm0 1.333h-.29v.29h.29zm0 1.333h-.29v.29h.29zm0 1.334h-.29v.289h.29zm-.29 1.333v.068l.119-.068zm-1.044-21.044v-.133l-.226.133zm0 1.044h-.289v.29h.289zm0 1.333h-.289v.29h.289zm0 1.334h-.289v.289h.289zm0 1.333h-.289v.29h.289zm0 16h-.289v.29h.289zm-1.333-20h-.29v.29h.29zm0 1.333h-.29v.29h.29zm0 1.334h-.29v.289h.29zm0 1.333h-.29v.29h.29zm0 16h-.29v.29h.29zm0 1.333h-.29v.261l.29-.165zm-1.333-20h-.29v.29h.29zm0 1.334h-.29v.289h.29zm0 1.333h-.29v.29h.29zm0 16h-.29v.29h.29zm0 1.333h-.29v.29h.29zm-1.623-19.71h.289v-.29h-.276l-.013.008zm.289 1.044h-.289v.289h.289zm0 1.333h-.289v.29h.289zm0 16h-.289v.29h.289zm0 1.333h-.289v.29h.289zm0 1.334h-.289v.289h.287l.002-.001zm-1.333-20h-.29v.289h.29zm0 1.333h-.29v.29h.29zm0 16h-.29v.29h.29zm0 1.333h-.29v.29h.29zm0 1.334h-.29v.289h.29zm-1.623-19.711h.29v-.219l-.29.17zm.29 1.044h-.29v.29h.29zm0 16h-.29v.29h.29zm0 1.333h-.29v.29h.29zm0 1.334h-.29v.289h.29zm0 1.333h-.29v.29h.29zm-1.334-20h-.289v.29h.289zm0 1.333h-.289v.29h.289zm0 1.334h-.289v.289h.289zm0 1.333h-.289v.29h.289zm0 1.333h-.289v.29h.289zm0 1.334h-.289v.289h.289zm0 1.333h-.289v.29h.289zm0 1.333h-.289v.29h.289zm0 1.334h-.289v.289h.289zm0 1.333h-.289v.29h.289zm0 1.333h-.289v.29h.289zm0 1.334h-.289v.289h.289zm0 1.333h-.289v.29h.289zm0 1.333h-.289v.29h.289zm0 1.334h-.289v.289h.289zm0 1.333h-.289v.29h.289zm-.289 1.333v.077l.134-.077zm-1.044-20h-.29v.29h.29zm0 1.334h-.29v.289h.29zm0 1.333h-.29v.29h.29zm0 1.333h-.29v.29h.29zm0 1.334h-.29v.289h.29zm-1.333-5.334h-.29v.29h.29zm0 1.334h-.29v.289h.29zm0 1.333h-.29v.29h.29zm0 1.333h-.29v.29h.29zm0 1.334h-.29v.289h.29zm0 16h-.29v.27l.29-.166zm-1.333-20h-.29v.289h.29zm0 1.333h-.29v.29h.29zm0 1.333h-.29v.29h.29zm0 1.334h-.29v.289h.29zm0 16h-.29v.289h.29zm-1.624-19.711h.29v-.289h-.028l-.262.153zm.29 1.044h-.29v.29h.29zm0 1.333h-.29v.29h.29zm0 1.334h-.29v.289h.29zm0 16h-.29v.289h.29zm0 1.333h-.29v.29h.29zm-1.333-20h-.29v.29h.29zm0 1.333h-.29v.29h.29zm0 1.334h-.29v.289h.29zm0 16h-.29v.289h.29zm0 1.333h-.29v.29h.29zm-1.333-19.71v-.074l-.126.074zm0 1.043h-.29v.29h.29zm0 1.334h-.29v.289h.29zm0 16h-.29v.289h.29zm0 1.333h-.29v.29h.29zm0 1.333h-.29v.29h.29zm-1.334-20h-.29v.29h.29zm0 1.334h-.29v.289h.29zm0 16h-.29v.289h.29zm0 1.333h-.29v.29h.29zm0 1.333h-.29v.29h.29zm-.29 1.334v.086l.15-.086zm-1.043-20h-.29v.289h.29zm0 1.333h-.29v.29h.29zm0 1.333h-.29v.29h.29zm0 1.334h-.29v.289h.29zm0 1.333h-.29v.29h.29zm0 1.333h-.29v.29h.29zm0 1.334h-.29v.289h.29zm0 1.333h-.29v.29h.29zm0 1.333h-.29v.29h.29zm0 1.334h-.29v.289h.29zm0 1.333h-.29v.29h.29zm0 1.333h-.29v.29h.29zm0 1.334h-.29v.289h.29zm0 1.333h-.29v.29h.29zm0 1.333h-.29v.29h.29zm0 1.334h-.29v.289h.29zM88.3 114.589h.29v-.289h-.176l-.114.067zm.29 1.044h-.29v.29h.29zm0 1.333h-.29v.29h.29zm0 1.334h-.29v.289h.29zm0 1.333h-.29v.29h.29zm0 1.333h-.29v.29h.29zm0 1.334h-.29v.289h.29zm0 1.333h-.29v.29h.29zm0 1.333h-.29v.29h.29zm0 1.334h-.29v.289h.29zm0 1.333h-.29v.29h.29zm0 1.333h-.29v.29h.29zm0 1.334h-.29v.289h.29zm0 1.333h-.29v.29h.29zm0 1.333h-.29v.29h.29zm0 1.334h-.29v.289h.29zm0 1.447v-.114h-.29v.279zm10.666-20.114h-.29v.29h.29zm0 1.333h-.29v.29h.29zm0 1.334h-.29v.289h.29zm0 1.333h-.29v.29h.29zm0 1.333h-.29v.29h.29zm0 1.334h-.29v.289h.29zm0 1.333h-.29v.29h.29zm0 1.333h-.29v.29h.29zm0 1.334h-.29v.289h.29zm0 1.333h-.29v.29h.29zm0 1.333h-.29v.29h.29zm-1.623-13.325.014-.008h-.014zm0 9.615h.29v-.29h-.274l-.016.011zm.29 1.044h-.29v.289h.29zm0 1.333h-.29v.29h.29zm0 1.333h-.29v.29h.29zm-1.333-13.333h-.29v.29h.29zm0 10.667h-.29v.289h.29zm0 1.333h-.29v.29h.29zm0 1.333h-.29v.29h.29zm-1.334-13.333h-.29v.29h.29zm0 1.333h-.29v.29h.089l.201-.126zm0 9.511-.178.113h.178zm0 1.156h-.29v.29h.29zm0 1.333h-.29v.29h.29zm-1.333-13.333h-.29v.29h.29zm0 1.333h-.29v.29h.29zm0 10.667h-.29v.29h.29zm0 1.333h-.29v.29h.29zm-1.333-13.333h-.29v.29h.29zm0 1.333h-.29v.29h.29zm0 1.334h-.29v.289h.29zm0 10.666h-.29v.29h.29zm-1.334-13.333h-.29v.29h.29zm0 1.333h-.29v.29h.29zm0 1.334h-.29v.289h.29zm0 1.333h-.29v.29h.29zm0 1.333h-.29v.29h.29zm0 1.334h-.29v.289h.29zm0 1.333h-.29v.29h.29zm0 1.333h-.29v.29h.29zm0 1.334h-.29v.289h.29zm0 1.333h-.29v.29h.29zm0 1.333h-.29v.29h.29zm17.333-20h-.289v.29h.289zm0 8.278-.001.012h.001zm0 1.056h-.289v.289h.289zm0 1.333h-.289v.29h.289zm0 1.333h-.289v.29h.289zm0 1.334h-.289v.289h.289zm-1.333-13.334h-.29v.29h.29zm0 10.667h-.29v.29h.29zm0 1.333h-.29v.29h.29zm0 1.334h-.29v.289h.29zm-1.333-13.334h-.29v.29h.29zm0 1.334h-.29v.289h.29zm0 10.666h-.29v.29h.29zm0 1.334h-.29v.289h.29zm-1.334-13.334h-.289v.29h.289zm0 1.334h-.289v.289h.289zm-.289 1.429.153-.096h-.153zm0 9.527h.289v-.29h-.173l-.116.074zm.289 1.044h-.289v.289h.289zm-1.333-13.334h-.29v.29h.29zm0 1.334h-.29v.289h.29zm0 1.333h-.29v.29h.29zm0 10.667h-.29v.289h.29zm-1.333-13.334h-.29v.29h.29zm0 1.334h-.29v.289h.29zm0 1.333h-.29v.29h.29zm0 1.333h-.29v.29h.29zm0 9.455a.7.7 0 0 1-.29-.012v.18h.29zm15.71-18.671a.8.8 0 0 1 .29-.021v-.096h-.29zm.29 9.216h-.29v.29h.29zm0 1.334h-.29v.289h.29zm0 1.333h-.29v.29h.29zm0 1.333h-.29v.29h.29zm-1.334-13.333h-.289v.29h.289zm0 10.667h-.289v.289h.289zm0 1.333h-.289v.29h.289zm0 1.333h-.289v.29h.289zm-1.333-13.333h-.29v.29h.29zm0 1.333h-.29v.29h.14l.15-.094zm0 9.463-.253.16h.253zm0 1.204h-.29v.29h.29zm0 1.333h-.29v.29h.29zm-1.333-13.333h-.29v.29h.29zm0 1.333h-.29v.29h.29zm0 10.667h-.29v.29h.29zm0 1.333h-.29v.29h.29zm-1.334-13.333h-.289v.29h.289zm0 1.333h-.289v.29h.289zm0 1.334h-.289v.289h.289zm0 10.666h-.289v.29h.289zm-1.333-13.333h-.29v.29h.29zm0 1.333h-.29v.29h.29zm0 1.334h-.29v.289h.29zm0 1.333h-.29v.29h.29zm-.29 1.623h.129v-.215l.004-.075h-.133zm.129 1.044h-.129v.289h.129zm0 1.333h-.129v.29h.129zm0 1.333h-.129v.29h.129zm0 1.334h-.129v.289h.129zm0 1.333h-.129v.29h.138a1 1 0 0 1-.009-.14zm.161 1.333h-.29v.29h.29zM128.589 98.3h-.289v.29h.289zm0 1.333h-.289v.29h.289zm0 1.333h-.289v.29h.289zm0 1.334h-.289v.289h.289zm0 1.333h-.289v.29h.289zm0 1.333h-.289v.29h.289zm0 1.334h-.289v.289h.289zm0 1.333h-.289v.29h.289zm0 1.333h-.289v.29h.289zm0 1.334h-.289v.289h.289zm-1.333-2.667h-.29v.29h.29zm0 1.333h-.29v.29h.29zm0 1.334h-.29v.289h.29zm-1.333-12h-.29v.29h.29zm0 10.666h-.29v.29h.29zm0 1.334h-.29v.289h.29zm-1.334-12h-.289v.29h.289zm-.289 1.589.289-.182v-.074h-.289zm0 9.367h.289v-.29h-.046l-.243.154zm.289 1.044h-.289v.289h.289zm-1.333-12h-.29v.29h.29zm0 1.333h-.29v.29h.29zm0 10.667h-.29v.289h.29zm-1.333-12h-.29v.29h.29zm0 1.333h-.29v.29h.29zm0 1.333h-.29v.29h.29zm-1.334-2.666h-.289v.29h.289zm0 1.333h-.289v.29h.289zm0 1.333h-.289v.29h.289zm0 1.334h-.289v.289h.289zm0 1.333h-.289v.29h.289zm0 1.333h-.289v.29h.289zm0 1.334h-.289v.289h.289zm0 1.333h-.289v.29h.289zm0 1.333h-.289v.29h.289zm0 1.334h-.289v.289h.289z"/><path fill="#000" d="m131.34 88.439-2.55-1.403-43.684 25.362-.011 23.01 2.462 1.476.123-.105 43.624-24.97v-22.05l.036.041zm-42.85 46.853v-20.521l41.925-24.612v21.134z"/><path fill="#000" d="M98.651 115.313c-.308-.171-.728-.116-1.153.15l-4.985 3.124c-.754.472-1.345 1.459-1.345 2.247v6.799a.9.9 0 0 0 .422.842.8.8 0 0 0 .397.097c.272-.011.537-.098.763-.252l4.985-3.143c.75-.473 1.337-1.459 1.337-2.244v-6.777a.9.9 0 0 0-.421-.843m-.023 7.62c0 .626-.518 1.481-1.13 1.868l-4.986 3.143c-.281.178-.546.231-.707.142a.51.51 0 0 1-.192-.453v-6.799c0-.628.52-1.485 1.136-1.871l4.985-3.124c.153-.105.332-.168.518-.18a.4.4 0 0 1 .184.042c.137.109.21.28.192.455zm9.777-13.471c-.306-.169-.723-.115-1.144.148l-4.944 3.099c-.748.469-1.334 1.451-1.334 2.235v6.771a.9.9 0 0 0 .421.841.8.8 0 0 0 .394.097c.27-.011.532-.097.756-.25l4.944-3.118c.744-.469 1.327-1.45 1.327-2.232v-6.749a.9.9 0 0 0-.42-.842m-.024 7.591c0 .623-.513 1.473-1.12 1.856l-4.944 3.118c-.278.176-.539.228-.698.14a.51.51 0 0 1-.191-.452v-6.771c0-.625.515-1.476 1.126-1.859l4.943-3.098a1 1 0 0 1 .511-.178.4.4 0 0 1 .182.042.51.51 0 0 1 .191.453zm19.445-19.077c-.302-.168-.712-.115-1.125.144l-4.862 3.049c-.737.462-1.314 1.434-1.314 2.212v6.715a.9.9 0 0 0 .419.839c.12.065.254.098.39.096a1.4 1.4 0 0 0 .742-.245l4.862-3.068c.733-.462 1.307-1.433 1.307-2.209v-6.693a.9.9 0 0 0-.419-.84m-.026 7.533c0 .618-.503 1.457-1.099 1.833l-4.863 3.068c-.27.171-.524.222-.679.136a.51.51 0 0 1-.19-.45v-6.715c0-.619.507-1.46 1.106-1.836l4.862-3.048a1 1 0 0 1 .497-.174.36.36 0 0 1 .177.041.51.51 0 0 1 .189.451zm-9.567-1.912c-.304-.168-.717-.114-1.134.147l-4.902 3.073c-.743.465-1.324 1.442-1.324 2.224v6.742a.9.9 0 0 0 .42.841.8.8 0 0 0 .392.096 1.44 1.44 0 0 0 .748-.247l4.903-3.093c.738-.466 1.317-1.441 1.317-2.22v-6.722a.9.9 0 0 0-.42-.841m-.025 7.563c0 .62-.508 1.464-1.109 1.844l-4.903 3.093c-.274.173-.532.224-.689.137a.51.51 0 0 1-.19-.451v-6.742c0-.622.511-1.468 1.116-1.847l4.902-3.074c.149-.103.323-.163.504-.175a.4.4 0 0 1 .179.041.51.51 0 0 1 .19.452z"/><path fill="#000" d="m97.073 119.642-1.496 1.533.058-1.707-1.018.64.058 1.634-1.5.349-.304 1.209 1.535-.529-.984 1.915.82.102.878-1.921.89.808.818-1.132-.982-.677 1.531-1.399zm8.484-4.587.058-1.7-1.01.634.058 1.627-1.487.344-.302 1.203 1.522-.523-.976 1.905.814.103.87-1.91.882.807.812-1.126-.974-.676 1.518-1.389-.301-.822zm11.116-7.303-1.472 1.513.057-1.693-1.001.629.057 1.621-1.475.338-.299 1.198 1.509-.517-.968 1.895.807.104.864-1.9.874.806.805-1.119-.966-.676 1.506-1.38zm9.606-5.707-1.46 1.504.057-1.686-.993.624.057 1.614-1.463.334-.297 1.192 1.497-.511-.96 1.884.8.106.857-1.891.867.805.799-1.112-.958-.676 1.493-1.37zm-46.283-9.543c-3.056-5.39-9.09-3.551-10.772 3.418-.75 3.107-1.576 5.998-3.402 8.125a.3.3 0 0 0-.087.146c-.016.208-.08.498-.011.606a.47.47 0 0 0 .444.225c.158-.045.303-.265.437-.435 1.45-1.828 2.44-4.069 3.039-6.698.226-1.124.552-2.226.975-3.291 1.848-4.27 5.58-5.28 8.082-2.23 1.543 1.883 1.998 4.43 1.728 7.3-.167 1.778-.44 3.54-.59 4.703-.094 2.555-.094 4.478.537 6.215.086.24.39.306.593.452.04-.31.179-.681.11-.919-.8-2.815-.53-5.696-.043-8.572.558-3.294.457-6.404-1.04-9.045"/><path fill="#000" d="M82.465 98.925c-.13 1.041-.285 2.079-.387 3.126a92 92 0 0 0-.344 4.391c-.013.293.257.602.395.903.13-.321.338-.627.375-.964.169-1.518.305-3.045.422-4.571.117-1.522.313-3.062.271-4.573-.186-6.712-4.447-11.677-9.014-10.505-3.67.94-5.85 4.352-7.059 9.338-.3 1.246-.712 2.443-1.11 3.64-.14.421-.411.849-.006 1.114.146.096.57-.206.662-.469.451-1.3.899-2.618 1.229-3.985.98-4.067 2.706-7.098 5.62-8.231 4.88-1.897 9.152 3.36 8.946 10.786"/><path fill="#000" d="M79.856 113.501q.06-.419.018-.84a7 7 0 0 0-.374-.877c-1.057-2.816-.936-5.872-.623-8.964.17-1.68.51-3.372.478-5.034-.084-4.508-3.52-7.032-6.216-4.662-1.235 1.085-1.96 2.727-2.34 4.71-.737 3.85-2.282 6.873-4.538 9.199-.195.201-.253.69-.375 1.045.273-.034.607.07.808-.124a14.5 14.5 0 0 0 3.621-5.587c.607-1.689 1.016-3.522 1.514-5.288.908-3.211 3.267-4.582 5.164-3.007 1.364 1.133 1.885 3.44 1.455 6.198-.255 1.63-.44 3.281-.707 5.304.153 1.498.265 3.342.553 5.115.156.954.592 1.809.956 2.656.075.173.398.11.606.156"/><path fill="#000" d="M69.978 115.226c4.605-3.52 6.513-9.553 7.46-15.826.084-2.323-.371-3.56-1.241-4.061-1-.575-2.014-.29-2.701.96-.38.691-.608 1.57-.864 2.387-.478 1.532-.841 3.151-1.407 4.613a17.5 17.5 0 0 1-4.123 6.248c-.177.175-.216.656-.32.996q.359.031.713-.027c.14-.038.27-.227.397-.361 2.682-2.815 4.564-6.434 5.498-11.042a8 8 0 0 1 .713-2.06c.492-.936 1.415-1.071 2.022-.406.582.64.632 1.595.483 2.522a44 44 0 0 1-.889 4.459c-1.2 4.48-3.017 8.261-6.072 10.555-.335.252-1.02.333-.76 1.16.248.793.758.137 1.09-.117m8.308-.518c-.853-1.792-1.195-3.821-1.282-5.998-.016-.376-.212-.729-.324-1.092-.199.262-.468.472-.583.794-1.277 3.559-3.005 6.459-5.539 8.253-.169.12-.228.589-.339.895.232.042.535.242.683.097 1.113-1.087 2.263-2.125 3.26-3.41.791-1.021 1.383-2.371 2.116-3.668q.048.431.147.853c.394 1.324.779 2.656 1.228 3.935.081.228.453.227.691.332-.015-.334.053-.756-.058-.991"/><path fill="#000" d="M73.554 105.676c.778-2.032 1.368-4.209 2.045-6.328l-.405-.867c-.186.209-.463.367-.542.638-.354 1.222-.596 2.513-.98 3.715-1.268 3.967-3.048 7.287-5.856 9.234-.29.2-.75.352-.493.974.085.204.554.079.848.063.1-.005.2-.136.3-.209 2.222-1.626 3.892-4.113 5.082-7.22m1.703 9.304c-.62.849-1.29 1.622-1.903 2.482-.167.234-.203.666-.298 1.008.253-.027.57.08.747-.105.617-.643 1.186-1.386 1.82-2.148q.17.463.444.874c.156.174.399.187.603.271.02-.312.118-.677.045-.927-.142-.489-.392-.902-.575-1.368-.258-.661-.521-.584-.883-.087"/><path fill="#000" d="m93.304 66.528.12-.004-4.717-2.568c-1.268-.775-3.155-.623-5.257.635L53.748 82.436c-3.908 2.338-7.114 7.514-7.114 11.496v38.278c0 1.78.642 3.015 1.7 3.623l4.769 3.147-.1-.183c.693.532 1.568.826 2.585.826 1.276 0 2.71-.472 4.15-1.365l24.399-15.138v-1.046l-24.868 15.429c-1.344.834-2.605 1.231-3.681 1.231-1.762 0-3.026-1.067-3.349-3.021q-.016-.088-.027-.178a6 6 0 0 1-.036-.337l-.007-.104a7 7 0 0 1-.014-.411V96.275c0-3.235 2.117-7.259 5.007-9.908a13 13 0 0 1 2.107-1.589l28.244-16.902.001-.001q.703-.42 1.367-.677a7.6 7.6 0 0 1 1.41-.378 5 5 0 0 1 .675-.053c2.061 0 3.453 1.468 3.453 4.087v34.915l.89-.511V70.854c0-1.993-.745-3.516-2.005-4.326"/><path fill="#000" d="M69.404 16.403a7.3 7.3 0 0 0-.899-.801c-.969-.73-3.118-2.34-3.858-2.798-1.21-.904-2.876-.943-4.706.104L24 33.439c-3.811 2.176-6.942 8.045-6.942 13.041v117.695c0 2.401.728 4.133 1.906 5.025l4.249 2.734a.44.44 0 0 0 .464.006l.323-.209c1.198.548 2.734.371 4.397-.673l35.599-22.336c3.68-2.306 6.683-8.185 6.683-13.071v-2.809l-2.545 1.567v2.198c0 1.266-.302 2.629-.812 3.915l-.002.004q-.056.142-.117.284v.002a12.4 12.4 0 0 1-1.331 2.377l-.018.024a9.6 9.6 0 0 1-1.133 1.309l-.003.003q-.097.093-.197.181a6.6 6.6 0 0 1-.863.654l-2.922 1.829-.215.134-2.377 1.488-4 2.504-.262.163-3.798 2.377-.23.144-6.377 3.991-.247.155-3.798 2.377-.244.153-6.377 3.991-.233.146-3.798 2.377-.03.019a5 5 0 0 1-.23.135c-2.436 1.37-4.395-.068-4.395-3.302V48.695c0-.867.142-1.774.396-2.667l.05-.173c.744-2.475 2.341-4.817 4.179-5.868L33 37.546a1 1 0 0 1 .543-.152c.43.023.73.43.73 1.092.03 1.61 1.053 2.342 2.303 1.625l1.278-.736.29-.167 6.481-3.73.186-.107 2.377-1.367.257-.149 6.448-3.71.25-.145 2.011-1.156a3 3 0 0 0 .367-.255q.044-.032.086-.067c1.017-.861 1.787-2.487 1.809-3.914h.005a3.07 3.07 0 0 1 1.094-2.27l4.143-2.375c.797-.456 1.547-.603 2.196-.485h.004c.623.114 1.153.474 1.545 1.044l.074.11c.416.665.657 1.586.657 2.716v49.16l2.545-1.53V21.255c0-2.081-.368-3.854-1.276-4.852"/><path fill="#000" d="M67.404 20.522h-.215v.29h.29v-.18zm.074 1.333h-.29v.29h.29zm0 1.334h-.29v.29h.29zm0 1.333h-.29v.29h.29zm0 1.333h-.29v.29h.29zm0 1.334h-.29v.29h.29zm0 1.333h-.29v.29h.29zm0 1.333h-.29v.29h.29zm0 1.334h-.29v.29h.29zm0 1.333h-.29v.29h.29zm0 1.333h-.29v.29h.29zm0 1.334h-.29v.29h.29zm0 1.333h-.29v.29h.29zm0 1.333h-.29v.29h.29zm0 1.334h-.29v.29h.29zm0 1.333h-.29v.29h.29zm0 1.333h-.29v.29h.29zm0 1.334h-.29v.29h.29zm0 1.333h-.29v.29h.29zm0 1.333h-.29v.29h.29zm0 1.334h-.29v.29h.29zm0 1.333h-.29v.29h.29zm0 1.333h-.29v.29h.29zm0 1.334h-.29v.29h.29zm0 1.333h-.29v.29h.29zm0 1.333h-.29v.29h.29zm0 1.334h-.29v.29h.29zm0 1.333h-.29v.29h.29zm0 1.333h-.29v.29h.29zm0 1.334h-.29v.29h.29zm0 1.333h-.29v.29h.29zm0 1.333h-.29v.29h.29zm0 1.334h-.29v.29h.29zm0 1.333h-.29v.29h.29zm0 1.333h-.29v.29h.29zm0 1.334h-.29v.29h.29zm0 1.333h-.29v.29h.29zm0 1.333h-.29v.29h.29zm0 1.334h-.29v.29h.29zm0 1.333h-.29v.29h.29zm0 62.667h-.29v.289h.29zm0 1.333h-.29v.29h.29zm0 1.333h-.29v.29h.29zm0 1.334h-.29v.289h.29zm-.274 1.621q.06-.142.117-.284l.002-.004h-.134v.29h.015zM65.855 19.478h.004zm.29 1.044h-.29v.29h.29zm0 1.333h-.29v.29h.29zm0 1.334h-.29v.29h.29zm0 1.333h-.29v.29h.29zm0 1.333h-.29v.29h.29zm0 1.334h-.29v.29h.29zm0 1.333h-.29v.29h.29zm0 1.333h-.29v.29h.29zm0 1.334h-.29v.29h.29zm0 1.333h-.29v.29h.29zm0 1.333h-.29v.29h.29zm0 1.334h-.29v.29h.29zm0 1.333h-.29v.29h.29zm0 1.333h-.29v.29h.29zm0 1.334h-.29v.29h.29zm0 1.333h-.29v.29h.29zm0 1.333h-.29v.29h.29zm0 1.334h-.29v.29h.29zm0 1.333h-.29v.29h.29zm0 1.333h-.29v.29h.29zm0 1.334h-.29v.29h.29zm0 1.333h-.29v.29h.29zm0 1.333h-.29v.29h.29zm0 1.334h-.29v.29h.29zm0 1.333h-.29v.29h.29zm0 1.333h-.29v.29h.29zm0 1.334h-.29v.29h.29zm0 1.333h-.29v.29h.29zm0 1.333h-.29v.29h.29zm0 1.334h-.29v.29h.29zm0 1.333h-.29v.29h.29zm0 1.333h-.29v.29h.29zm0 1.334h-.29v.29h.29zm0 1.333h-.29v.29h.29zm0 1.333h-.29v.29h.29zm0 1.334h-.29v.29h.29zm0 1.333h-.29v.29h.29zm0 1.333h-.29v.29h.29zm0 1.334h-.29v.29h.29zm0 1.333h-.29v.29h.29zm-.29 1.355.036-.022h-.036zm.29 62.645h-.29v.29h.29zm0 1.333h-.29v.29h.29zm0 1.334h-.29v.289h.29zm0 1.333h-.29v.29h.29zm0 1.333h-.29v.29h.29zm-.272 1.334h-.018v.024zM64.811 20.522h-.289v.29h.29zm0 1.333h-.289v.29h.29zm0 1.334h-.289v.29h.29zm0 1.333h-.289v.29h.29zm0 1.333h-.289v.29h.29zm0 1.334h-.289v.29h.29zm0 1.333h-.289v.29h.29zm0 1.333h-.289v.29h.29zm0 1.334h-.289v.29h.29zm0 1.333h-.289v.29h.29zm0 1.333h-.289v.29h.29zm0 1.334h-.289v.29h.29zm0 1.333h-.289v.29h.29zm0 1.333h-.289v.29h.29zm0 1.334h-.289v.29h.29zm0 1.333h-.289v.29h.29zm0 1.333h-.289v.29h.29zm0 1.334h-.289v.29h.29zm0 1.333h-.289v.29h.29zm0 1.333h-.289v.29h.29zm0 1.334h-.289v.29h.29zm0 1.333h-.289v.29h.29zm0 1.333h-.289v.29h.29zm0 1.334h-.289v.29h.29zm0 1.333h-.289v.29h.29zm0 1.333h-.289v.29h.29zm0 1.334h-.289v.29h.29zm0 1.333h-.289v.29h.29zm0 1.333h-.289v.29h.29zm0 1.334h-.289v.29h.29zm0 1.333h-.289v.29h.29zm0 1.333h-.289v.29h.29zm0 1.334h-.289v.29h.29zm0 1.333h-.289v.29h.29zm0 1.333h-.289v.29h.29zm0 1.334h-.289v.29h.29zm0 1.333h-.289v.29h.29zm0 1.333h-.289v.29h.29zm0 1.334h-.289v.29h.29zm0 1.333h-.289v.29h.29zm0 1.333h-.289v.29h.29zm-.289 62.957h.29v-.29h-.11l-.18.111zm.289 1.043h-.289v.29h.29zm0 1.334h-.289v.289h.29zm0 1.333h-.289v.29h.29zm0 1.333h-.289v.29h.29zm0 1.334h-.289v.289h.29zm-.289 1.517q.1-.088.197-.181l.003-.003h-.2zM63.478 20.522h-.29v.29h.29zm0 1.333h-.29v.29h.29zm0 1.334h-.29v.29h.29zm0 1.333h-.29v.29h.29zm0 1.333h-.29v.29h.29zm0 1.334h-.29v.29h.29zm0 1.333h-.29v.29h.29zm0 1.333h-.29v.29h.29zm0 1.334h-.29v.29h.29zm0 1.333h-.29v.29h.29zm0 1.333h-.29v.29h.29zm0 1.334h-.29v.29h.29zm0 1.333h-.29v.29h.29zm0 1.333h-.29v.29h.29zm0 1.334h-.29v.29h.29zm0 1.333h-.29v.29h.29zm0 1.333h-.29v.29h.29zm0 1.334h-.29v.29h.29zm0 1.333h-.29v.29h.29zm0 1.333h-.29v.29h.29zm0 1.334h-.29v.29h.29zm0 1.333h-.29v.29h.29zm0 1.333h-.29v.29h.29zm0 1.334h-.29v.29h.29zm0 1.333h-.29v.29h.29zm0 1.333h-.29v.29h.29zm0 1.334h-.29v.29h.29zm0 1.333h-.29v.29h.29zm0 1.333h-.29v.29h.29zm0 1.334h-.29v.29h.29zm0 1.333h-.29v.29h.29zm0 1.333h-.29v.29h.29zm0 1.334h-.29v.29h.29zm0 1.333h-.29v.29h.29zm0 1.333h-.29v.29h.29zm0 1.334h-.29v.29h.29zm0 1.333h-.29v.29h.29zm0 1.333h-.29v.29h.29zm0 1.334h-.29v.29h.29zm0 1.333h-.29v.29h.29zm0 1.333h-.29v.29h.29zm0 1.334h-.29v.29h.002l.288-.174zm0 62.666h-.29v.29h.29zm0 1.334h-.29v.289h.29zm0 1.333h-.29v.29h.29zm0 1.333h-.29v.29h.29zm0 1.334h-.29v.289h.29zm0 1.333h-.29v.29h.29zM62.145 21.855h-.29v.29h.29zm0 1.334h-.29v.29h.29zm0 1.333h-.29v.29h.29zm0 1.333h-.29v.29h.29zm0 1.334h-.29v.29h.29zm0 1.333h-.29v.29h.29zm0 1.333h-.29v.29h.29zm0 1.334h-.29v.29h.29zm0 1.333h-.29v.29h.29zm0 1.333h-.29v.29h.29zm0 1.334h-.29v.29h.29zm0 1.333h-.29v.29h.29zm0 1.333h-.29v.29h.29zm0 1.334h-.29v.29h.29zm0 1.333h-.29v.29h.29zm0 1.333h-.29v.29h.29zm0 1.334h-.29v.29h.29zm0 1.333h-.29v.29h.29zm0 1.333h-.29v.29h.29zm0 1.334h-.29v.29h.29zm0 1.333h-.29v.29h.29zm0 1.333h-.29v.29h.29zm0 1.334h-.29v.29h.29zm0 1.333h-.29v.29h.29zm0 1.333h-.29v.29h.29zm0 1.334h-.29v.29h.29zm0 1.333h-.29v.29h.29zm0 1.333h-.29v.29h.29zm0 1.334h-.29v.29h.29zm0 1.333h-.29v.29h.29zm0 1.333h-.29v.29h.29zm0 1.334h-.29v.29h.29zm0 1.333h-.29v.29h.29zm0 1.333h-.29v.29h.29zm0 1.334h-.29v.29h.29zm0 1.333h-.29v.29h.29zm0 1.333h-.29v.29h.29zm0 1.334h-.29v.29h.29zm0 1.333h-.29v.29h.29zm0 1.333h-.29v.29h.29zm0 1.334h-.29v.29h.29zm0 62.907-.08.049h.08zm0 1.093h-.29v.289h.29zm0 1.333h-.29v.29h.29zm0 1.333h-.29v.29h.29zm0 1.334h-.29v.289h.29zm0 1.333h-.29v.29h.29zm0 1.333h-.29v.29h.29zm-1.333-124h-.29v.29h.29zm0 1.334h-.29v.29h.29zm0 1.333h-.29v.29h.29zm0 1.333h-.29v.29h.29zm0 1.334h-.29v.29h.29zm0 1.333h-.29v.29h.29zm0 1.333h-.29v.29h.29zm0 1.334h-.29v.29h.29zm0 1.333h-.29v.29h.29zm0 1.333h-.29v.29h.29zm0 1.334h-.29v.29h.29zm0 1.333h-.29v.29h.29zm0 1.333h-.29v.29h.29zm0 1.334h-.29v.29h.29zm0 1.333h-.29v.29h.29zm0 1.333h-.29v.29h.29zm0 1.334h-.29v.29h.29zm0 1.333h-.29v.29h.29zm0 1.333h-.29v.29h.29zm0 1.334h-.29v.29h.29zm0 1.333h-.29v.29h.29zm0 1.333h-.29v.29h.29zm0 1.334h-.29v.29h.29zm0 1.333h-.29v.29h.29zm0 1.333h-.29v.29h.29zm0 1.334h-.29v.29h.29zm0 1.333h-.29v.29h.29zm0 1.333h-.29v.29h.29zm0 1.334h-.29v.29h.29zm0 1.333h-.29v.29h.29zm0 1.333h-.29v.29h.29zm0 1.334h-.29v.29h.29zm0 1.333h-.29v.29h.29zm0 1.333h-.29v.29h.29zm0 1.334h-.29v.29h.29zm0 1.333h-.29v.29h.29zm0 1.333h-.29v.29h.29zm0 1.334h-.29v.29h.29zm0 1.333h-.29v.29h.29zm0 1.333h-.29v.29h.29zm0 1.334h-.29v.29h.29zm0 1.333h-.29v.29h.29zm0 62.667h-.29v.289h.29zm0 1.333h-.29v.29h.29zm0 1.333h-.29v.29h.29zm0 1.334h-.29v.289h.29zm0 1.333h-.29v.29h.29zm0 1.333h-.29v.29h.29zm-.075 1.334h-.215v.134zm-1.259-124h-.29v.29h.29zm0 1.333h-.29v.29h.29zm0 1.333h-.29v.29h.29zm0 1.334h-.29v.29h.29zm0 1.333h-.29v.29h.29zm0 1.333h-.29v.29h.29zm0 1.334h-.29v.29h.29zm0 1.333h-.29v.29h.29zm0 1.333h-.29v.29h.29zm0 1.334h-.29v.29h.29zm0 1.333h-.29v.29h.29zm0 1.333h-.29v.29h.29zm0 1.334h-.29v.29h.29zm0 1.333h-.29v.29h.29zm0 1.333h-.29v.29h.29zm0 1.334h-.29v.29h.29zm0 1.333h-.29v.29h.29zm0 1.333h-.29v.29h.29zm0 1.334h-.29v.29h.29zm0 1.333h-.29v.29h.29zm0 1.333h-.29v.29h.29zm0 1.334h-.29v.29h.29zm0 1.333h-.29v.29h.29zm0 1.333h-.29v.29h.29zm0 1.334h-.29v.29h.29zm0 1.333h-.29v.29h.29zm0 1.333h-.29v.29h.29zm0 1.334h-.29v.29h.29zm0 1.333h-.29v.29h.29zm0 1.333h-.29v.29h.29zm0 1.334h-.29v.29h.29zm0 1.333h-.29v.29h.29zm0 1.333h-.29v.29h.29zm0 1.334h-.29v.29h.29zm0 1.333h-.29v.29h.29zm0 1.333h-.29v.29h.29zm0 1.334h-.29v.29h.29zm0 1.333h-.29v.29h.29zm0 1.333h-.29v.29h.29zm0 1.334h-.29v.29h.29zm0 1.333h-.29v.29h.29zm-.289 1.36.044-.027h-.044zm.289 62.64h-.29v.29h.29zm0 1.333h-.29v.29h.29zm0 1.334h-.29v.289h.29zm0 1.333h-.29v.29h.29zm0 1.333h-.29v.29h.29zm0 1.334h-.29v.289h.29zM58.145 26.12l-.008.025h.008zm0 1.069h-.29v.29h.29zm0 1.333h-.29v.29h.29zm0 1.333h-.29v.29h.29zm0 1.334h-.29v.29h.29zm0 1.333h-.29v.29h.29zm0 1.333h-.29v.29h.29zm0 1.334h-.29v.29h.29zm0 1.333h-.29v.29h.29zm0 1.333h-.29v.29h.29zm0 1.334h-.29v.29h.29zm0 1.333h-.29v.29h.29zm0 1.333h-.29v.29h.29zm0 1.334h-.29v.29h.29zm0 1.333h-.29v.29h.29zm0 1.333h-.29v.29h.29zm0 1.334h-.29v.29h.29zm0 1.333h-.29v.29h.29zm0 1.333h-.29v.29h.29zm0 1.334h-.29v.29h.29zm0 1.333h-.29v.29h.29zm0 1.333h-.29v.29h.29zm0 1.334h-.29v.29h.29zm0 1.333h-.29v.29h.29zm0 1.333h-.29v.29h.29zm0 1.334h-.29v.29h.29zm0 1.333h-.29v.29h.29zm0 1.333h-.29v.29h.29zm0 1.334h-.29v.29h.29zm0 1.333h-.29v.29h.29zm0 1.333h-.29v.29h.29zm0 1.334h-.29v.29h.29zm0 1.333h-.29v.29h.29zm0 1.333h-.29v.29h.29zm0 1.334h-.29v.29h.29zm0 1.333h-.29v.29h.29zm0 1.333h-.29v.29h.29zm0 1.334h-.29v.29h.29zm0 1.333h-.29v.29h.29zm0 1.333h-.29v.29h.29zm-.29 62.957h.29v-.29h-.089q-.1.043-.2.082zm.29 1.043h-.29v.29h.29zm0 1.334h-.29v.289h.29zm0 1.333h-.29v.29h.29zm0 1.333h-.29v.29h.29zm0 1.334h-.29v.289h.29zm0 1.622v-.289h-.29v.29zM56.522 28.59v.222h.29v-.29h-.204q-.042.035-.086.067m.29 1.266h-.29v.29h.29zm0 1.334h-.29v.29h.29zm0 1.333h-.29v.29h.29zm0 1.333h-.29v.29h.29zm0 1.334h-.29v.29h.29zm0 1.333h-.29v.29h.29zm0 1.333h-.29v.29h.29zm0 1.334h-.29v.29h.29zm0 1.333h-.29v.29h.29zm0 1.333h-.29v.29h.29zm0 1.334h-.29v.29h.29zm0 1.333h-.29v.29h.29zm0 1.333h-.29v.29h.29zm0 1.334h-.29v.29h.29zm0 1.333h-.29v.29h.29zm0 1.333h-.29v.29h.29zm0 1.334h-.29v.29h.29zm0 1.333h-.29v.29h.29zm0 1.333h-.29v.29h.29zm0 1.334h-.29v.29h.29zm0 1.333h-.29v.29h.29zm0 1.333h-.29v.29h.29zm0 1.334h-.29v.29h.29zm0 1.333h-.29v.29h.29zm0 1.333h-.29v.29h.29zm0 1.334h-.29v.29h.29zm0 1.333h-.29v.29h.29zm0 1.333h-.29v.29h.29zm0 1.334h-.29v.29h.29zm0 1.333h-.29v.29h.29zm0 1.333h-.29v.29h.29zm0 1.334h-.29v.29h.29zm0 1.333h-.29v.29h.29zm0 1.333h-.29v.29h.29zm0 1.334h-.29v.29h.29zm0 1.333h-.29v.29h.29zm0 1.333h-.29v.29h.29zm0 1.334h-.29v.29h.01l.28-.169zm0 62.666h-.29v.29h.29zm0 1.334h-.29v.289h.29zm0 1.333h-.29v.29h.29zm0 1.333h-.29v.29h.29zm0 1.334h-.29v.289h.29zm0 1.333h-.29v.29h.29zM55.478 29.855h-.29v.29h.29zm0 1.334h-.29v.29h.29zm0 1.333h-.29v.29h.29zm0 1.333h-.29v.29h.29zm0 1.334h-.29v.29h.29zm0 1.333h-.29v.29h.29zm0 1.333h-.29v.29h.29zm0 1.334h-.29v.29h.29zm0 1.333h-.29v.29h.29zm0 1.333h-.29v.29h.29zm0 1.334h-.29v.29h.29zm0 1.333h-.29v.29h.29zm0 1.333h-.29v.29h.29zm0 1.334h-.29v.29h.29zm0 1.333h-.29v.29h.29zm0 1.333h-.29v.29h.29zm0 1.334h-.29v.29h.29zm0 1.333h-.29v.29h.29zm0 1.333h-.29v.29h.29zm0 1.334h-.29v.29h.29zm0 1.333h-.29v.29h.29zm0 1.333h-.29v.29h.29zm0 1.334h-.29v.29h.29zm0 1.333h-.29v.29h.29zm0 1.333h-.29v.29h.29zm0 1.334h-.29v.29h.29zm0 1.333h-.29v.29h.29zm0 1.333h-.29v.29h.29zm0 1.334h-.29v.29h.29zm0 1.333h-.29v.29h.29zm0 1.333h-.29v.29h.29zm0 1.334h-.29v.29h.29zm0 1.333h-.29v.29h.29zm0 1.333h-.29v.29h.29zm0 1.334h-.29v.29h.29zm0 1.333h-.29v.29h.29zm0 1.333h-.29v.29h.29zm0 1.334h-.29v.29h.29zm0 62.666h-.29v.29h.29zm0 1.334h-.29v.289h.29zm0 1.333h-.29v.29h.29zm0 1.333h-.29v.29h.29zm0 1.334h-.29v.289h.29zm0 1.333h-.29v.29h.29zm0 1.333h-.29v.29h.29zm-1.584-119.71h.251V30zm.251 1.044h-.29v.29h.29zm0 1.333h-.29v.29h.29zm0 1.333h-.29v.29h.29zm0 1.334h-.29v.29h.29zm0 1.333h-.29v.29h.29zm0 1.333h-.29v.29h.29zm0 1.334h-.29v.29h.29zm0 1.333h-.29v.29h.29zm0 1.333h-.29v.29h.29zm0 1.334h-.29v.29h.29zm0 1.333h-.29v.29h.29zm0 1.333h-.29v.29h.29zm0 1.334h-.29v.29h.29zm0 1.333h-.29v.29h.29zm0 1.333h-.29v.29h.29zm0 1.334h-.29v.29h.29zm0 1.333h-.29v.29h.29zm0 1.333h-.29v.29h.29zm0 1.334h-.29v.29h.29zm0 1.333h-.29v.29h.29zm0 1.333h-.29v.29h.29zm0 1.334h-.29v.29h.29zm0 1.333h-.29v.29h.29zm0 1.333h-.29v.29h.29zm0 1.334h-.29v.29h.29zm0 1.333h-.29v.29h.29zm0 1.333h-.29v.29h.29zm0 1.334h-.29v.29h.29zm0 1.333h-.29v.29h.29zm0 1.333h-.29v.29h.29zm0 1.334h-.29v.29h.29zm0 1.333h-.29v.29h.29zm0 1.333h-.29v.29h.29zm0 1.334h-.29v.29h.29zm0 1.333h-.29v.29h.29zm0 1.333h-.29v.29h.29zm0 1.334h-.29v.29h.29zm0 1.333h-.29v.29h.29zm-.29 60.289h.046l-.046-.011zm.29 1.044h-.29v.29h.29zm0 1.334h-.29v.289h.29zm0 1.333h-.29v.29h.29zm0 1.333h-.29v.29h.29zm0 1.334h-.29v.289h.29zm0 1.333h-.29v.29h.29zm0 1.333h-.29v.29h.29zm0 1.46v-.126h-.29v.289h.028zM52.812 31.189h-.29v.29h.29zm0 1.333h-.29v.29h.29zm0 1.333h-.29v.29h.29zm0 1.334h-.29v.29h.29zm0 1.333h-.29v.29h.29zm0 1.333h-.29v.29h.29zm0 1.334h-.29v.29h.29zm0 1.333h-.29v.29h.29zm0 1.333h-.29v.29h.29zm0 1.334h-.29v.29h.29zm0 1.333h-.29v.29h.29zm0 1.333h-.29v.29h.29zm0 1.334h-.29v.29h.29zm0 1.333h-.29v.29h.29zm0 1.333h-.29v.29h.29zm0 1.334h-.29v.29h.29zm0 1.333h-.29v.29h.29zm0 1.333h-.29v.29h.29zm0 1.334h-.29v.29h.29zm0 1.333h-.29v.29h.29zm0 1.333h-.29v.29h.29zm0 1.334h-.29v.29h.29zm0 1.333h-.29v.29h.29zm0 1.333h-.29v.29h.29zm0 1.334h-.29v.29h.29zm0 1.333h-.29v.29h.29zm0 1.333h-.29v.29h.29zm0 1.334h-.29v.29h.29zm0 1.333h-.29v.29h.29zm0 1.333h-.29v.29h.29zm0 1.334h-.29v.29h.29zm0 1.333h-.29v.29h.29zm0 1.333h-.29v.29h.29zm0 1.334h-.29v.29h.29zm0 1.333h-.29v.29h.29zm0 1.333h-.29v.29h.29zm0 1.334h-.29v.29h.29zm0 1.333h-.29v.29h.29zm-.29 1.37.06-.037h-.06zm.29 58.63h-.29v.29h.29zm0 1.333h-.29v.29h.29zm0 1.334h-.29v.289h.29zm0 1.333h-.29v.29h.29zm0 1.333h-.29v.29h.29zm0 1.334h-.29v.289h.29zm0 1.333h-.29v.29h.29zm0 1.333h-.29v.29h.29zm0 1.334h-.29v.289h.29zM51.478 32.522h-.29v.29h.29zm0 1.333h-.29v.29h.29zm0 1.334h-.29v.29h.29zm0 1.333h-.29v.29h.29zm0 1.333h-.29v.29h.29zm0 1.334h-.29v.29h.29zm0 1.333h-.29v.29h.29zm0 1.333h-.29v.29h.29zm0 1.334h-.29v.29h.29zm0 1.333h-.29v.29h.29zm0 1.333h-.29v.29h.29zm0 1.334h-.29v.29h.29zm0 1.333h-.29v.29h.29zm0 1.333h-.29v.29h.29zm0 1.334h-.29v.29h.29zm0 1.333h-.29v.29h.29zm0 1.333h-.29v.29h.29zm0 1.334h-.29v.29h.29zm0 1.333h-.29v.29h.29zm0 1.333h-.29v.29h.29zm0 1.334h-.29v.29h.29zm0 1.333h-.29v.29h.29zm0 1.333h-.29v.29h.29zm0 1.334h-.29v.29h.29zm0 1.333h-.29v.29h.29zm0 1.333h-.29v.29h.29zm0 1.334h-.29v.29h.29zm0 1.333h-.29v.29h.29zm0 1.333h-.29v.29h.29zm0 1.334h-.29v.29h.29zm0 1.333h-.29v.29h.29zm0 1.333h-.29v.29h.29zm0 1.334h-.29v.29h.29zm0 1.333h-.29v.29h.29zm0 1.333h-.29v.29h.29zm0 1.334h-.29v.29h.29zm0 1.333h-.29v.29h.29zm0 1.333h-.29v.29h.29zm0 57.568-.29-.202v.257h.29zm0 1.099h-.29v.29h.29zm0 1.333h-.29v.29h.29zm0 1.334h-.29v.289h.29zm0 1.333h-.29v.29h.29zm0 1.333h-.29v.29h.29zm0 1.334h-.29v.289h.29zm0 1.333h-.29v.29h.29zm0 1.333h-.29v.29h.29zm0 1.334h-.29v.289h.29zm0 1.333h-.29v.29h.29zm-1.333-120h-.29v.29h.29zm0 1.333h-.29v.29h.29zm0 1.334h-.29v.29h.29zm0 1.333h-.29v.29h.29zm0 1.333h-.29v.29h.29zm0 1.334h-.29v.29h.29zm0 1.333h-.29v.29h.29zm0 1.333h-.29v.29h.29zm0 1.334h-.29v.29h.29zm0 1.333h-.29v.29h.29zm0 1.333h-.29v.29h.29zm0 1.334h-.29v.29h.29zm0 1.333h-.29v.29h.29zm0 1.333h-.29v.29h.29zm0 1.334h-.29v.29h.29zm0 1.333h-.29v.29h.29zm0 1.333h-.29v.29h.29zm0 1.334h-.29v.29h.29zm0 1.333h-.29v.29h.29zm0 1.333h-.29v.29h.29zm0 1.334h-.29v.29h.29zm0 1.333h-.29v.29h.29zm0 1.333h-.29v.29h.29zm0 1.334h-.29v.29h.29zm0 1.333h-.29v.29h.29zm0 1.333h-.29v.29h.29zm0 1.334h-.29v.29h.29zm0 1.333h-.29v.29h.29zm0 1.333h-.29v.29h.29zm0 1.334h-.29v.29h.29zm0 1.333h-.29v.29h.29zm0 1.333h-.29v.29h.29zm0 1.334h-.29v.29h.29zm0 1.333h-.29v.29h.29zm0 1.333h-.29v.29h.29zm0 1.334h-.29v.29h.29zm0 1.333h-.29v.29h.29zm0 1.333h-.29v.29h.29zm0 1.334h-.29v.29h.29zm0 56h-.29v.289h.29zm0 1.333h-.29v.29h.29zm0 1.333h-.29v.29h.29zm0 1.334h-.29v.289h.29zm0 1.333h-.29v.29h.29zm0 1.333h-.29v.29h.29zm0 1.334h-.29v.289h.29zm0 1.333h-.29v.29h.29zm0 1.333h-.29v.29h.29zm0 1.334h-.29v.289h.29zm0 1.333h-.29v.29h.29zm-.06 1.333h-.23v.144zm-1.273-120h-.29v.29h.29zm0 1.334h-.29v.29h.29zm0 1.333h-.29v.29h.29zm0 1.333h-.29v.29h.29zm0 1.334h-.29v.29h.29zm0 1.333h-.29v.29h.29zm0 1.333h-.29v.29h.29zm0 1.334h-.29v.29h.29zm0 1.333h-.29v.29h.29zm0 1.333h-.29v.29h.29zm0 1.334h-.29v.29h.29zm0 1.333h-.29v.29h.29zm0 1.333h-.29v.29h.29zm0 1.334h-.29v.29h.29zm0 1.333h-.29v.29h.29zm0 1.333h-.29v.29h.29zm0 1.334h-.29v.29h.29zm0 1.333h-.29v.29h.29zm0 1.333h-.29v.29h.29zm0 1.334h-.29v.29h.29zm0 1.333h-.29v.29h.29zm0 1.333h-.29v.29h.29zm0 1.334h-.29v.29h.29zm0 1.333h-.29v.29h.29zm0 1.333h-.29v.29h.29zm0 1.334h-.29v.29h.29zm0 1.333h-.29v.29h.29zm0 1.333h-.29v.29h.29zm0 1.334h-.29v.29h.29zm0 1.333h-.29v.29h.29zm0 1.333h-.29v.29h.29zm0 1.334h-.29v.29h.29zm0 1.333h-.29v.29h.29zm0 1.333h-.29v.29h.29zm0 1.334h-.29v.29h.29zm0 1.333h-.29v.29h.29zm0 1.333h-.29v.29h.29zm0 1.334h-.29v.29h.29zm0 1.333h-.29v.29h.29zm0 53.333h-.29v.29h.29zm0 1.334h-.29v.289h.29zm0 1.333h-.29v.29h.29zm0 1.333h-.29v.29h.29zm0 1.334h-.29v.289h.29zm0 1.333h-.29v.29h.29zm0 1.333h-.29v.29h.29zm0 1.334h-.29v.289h.29zm0 1.333h-.29v.29h.29zm0 1.333h-.29v.29h.29zm0 1.334h-.29v.289h.29zm0 1.333h-.29v.29h.29zm0 1.333h-.29v.29h.29zM47.189 34.004v.14h.29v-.289h-.033zm.289 1.185h-.29v.29h.29zm0 1.333h-.29v.29h.29zm0 1.333h-.29v.29h.29zm0 1.334h-.29v.29h.29zm0 1.333h-.29v.29h.29zm0 1.333h-.29v.29h.29zm0 1.334h-.29v.29h.29zm0 1.333h-.29v.29h.29zm0 1.333h-.29v.29h.29zm0 1.334h-.29v.29h.29zm0 1.333h-.29v.29h.29zm0 1.333h-.29v.29h.29zm0 1.334h-.29v.29h.29zm0 1.333h-.29v.29h.29zm0 1.333h-.29v.29h.29zm0 1.334h-.29v.29h.29zm0 1.333h-.29v.29h.29zm0 1.333h-.29v.29h.29zm0 1.334h-.29v.29h.29zm0 1.333h-.29v.29h.29zm0 1.333h-.29v.29h.29zm0 1.334h-.29v.29h.29zm0 1.333h-.29v.29h.29zm0 1.333h-.29v.29h.29zm0 1.334h-.29v.29h.29zm0 1.333h-.29v.29h.29zm0 1.333h-.29v.29h.29zm0 1.334h-.29v.29h.29zm0 1.333h-.29v.29h.29zm0 1.333h-.29v.29h.29zm0 1.334h-.29v.29h.29zm0 1.333h-.29v.29h.29zm0 1.333h-.29v.29h.29zm0 1.334h-.29v.29h.29zm0 1.333h-.29v.29h.29zm0 1.333h-.29v.29h.29zm0 1.334h-.29v.29h.29zm0 1.333h-.29v.29h.29zm0 1.333h-.29v.29h.29zm-.289 1.334v.29h.105q.086-.147.174-.29zm.289 49.371-.055-.038h-.234v.29h.29zm0 1.295h-.29v.29h.29zm0 1.334h-.29v.289h.29zm0 1.333h-.29v.29h.29zm0 1.333h-.29v.29h.29zm0 1.334h-.29v.289h.29zm0 1.333h-.29v.29h.29zm0 1.333h-.29v.29h.29zm0 1.334h-.29v.289h.29zm0 1.333h-.29v.29h.29zm0 1.333h-.29v.29h.29zm0 1.334h-.29v.289h.29zm0 1.333h-.29v.29h.29zm0 1.333h-.29v.29h.29zm0 1.334h-.29v.289h.29zm-1.333-120h-.29v.29h.29zm0 1.333h-.29v.29h.29zm0 1.333h-.29v.29h.29zm0 1.334h-.29v.29h.29zm0 1.333h-.29v.29h.29zm0 1.333h-.29v.29h.29zm0 1.334h-.29v.29h.29zm0 1.333h-.29v.29h.29zm0 1.333h-.29v.29h.29zm0 1.334h-.29v.29h.29zm0 1.333h-.29v.29h.29zm0 1.333h-.29v.29h.29zm0 1.334h-.29v.29h.29zm0 1.333h-.29v.29h.29zm0 1.333h-.29v.29h.29zm0 1.334h-.29v.29h.29zm0 1.333h-.29v.29h.29zm0 1.333h-.29v.29h.29zm0 1.334h-.29v.29h.29zm0 1.333h-.29v.29h.29zm0 1.333h-.29v.29h.29zm0 1.334h-.29v.29h.29zm0 1.333h-.29v.29h.29zm0 1.333h-.29v.29h.29zm0 1.334h-.29v.29h.29zm0 1.333h-.29v.29h.29zm0 1.333h-.29v.29h.29zm0 1.334h-.29v.29h.29zm0 1.333h-.29v.29h.29zm0 1.333h-.29v.29h.29zm0 1.334h-.29v.29h.29zm0 1.333h-.29v.29h.29zm0 1.333h-.29v.29h.29zm0 1.334h-.29v.29h.29zm0 1.333h-.29v.29h.29zm0 1.333h-.29v.29h.29zm0 1.334h-.29v.29h.29zm0 1.333h-.29v.29h.29zm0 1.333h-.29v.29h.29zm0 1.334h-.29v.29h.29zm0 1.333h-.29v.29h.29zm0 1.333h-.29v.29h.19l.1-.27zm0 45.444-.067-.11h-.223v.289h.29zm0 1.223h-.29v.29h.29zm0 1.333h-.29v.29h.29zm0 1.334h-.29v.289h.29zm0 1.333h-.29v.29h.29zm0 1.333h-.29v.29h.29zm0 1.334h-.29v.289h.29zm0 1.333h-.29v.29h.29zm0 1.333h-.29v.29h.29zm0 1.334h-.29v.289h.29zm0 1.333h-.29v.29h.29zm0 1.333h-.29v.29h.29zm0 1.334h-.29v.289h.29zm0 1.333h-.29v.29h.29zm0 1.333h-.29v.29h.29zm0 1.334h-.29v.289h.29zM44.626 35.478h.185v-.107zm.186 1.044h-.29v.29h.29zm0 1.333h-.29v.29h.29zm0 1.334h-.29v.29h.29zm0 1.333h-.29v.29h.29zm0 1.333h-.29v.29h.29zm0 1.334h-.29v.29h.29zm0 1.333h-.29v.29h.29zm0 1.333h-.29v.29h.29zm0 1.334h-.29v.29h.29zm0 1.333h-.29v.29h.29zm0 1.333h-.29v.29h.29zm0 1.334h-.29v.29h.29zm0 1.333h-.29v.29h.29zm0 1.333h-.29v.29h.29zm0 1.334h-.29v.29h.29zm0 1.333h-.29v.29h.29zm0 1.333h-.29v.29h.29zm0 1.334h-.29v.29h.29zm0 1.333h-.29v.29h.29zm0 1.333h-.29v.29h.29zm0 1.334h-.29v.29h.29zm0 1.333h-.29v.29h.29zm0 1.333h-.29v.29h.29zm0 1.334h-.29v.29h.29zm0 1.333h-.29v.29h.29zm0 1.333h-.29v.29h.29zm0 1.334h-.29v.29h.29zm0 1.333h-.29v.29h.29zm0 1.333h-.29v.29h.29zm0 1.334h-.29v.29h.29zm0 1.333h-.29v.29h.29zm0 1.333h-.29v.29h.29zm0 1.334h-.29v.29h.29zm0 1.333h-.29v.29h.29zm0 1.333h-.29v.29h.29zm0 1.334h-.29v.29h.29zm0 1.333h-.29v.29h.29zm0 1.333h-.29v.29h.29zm0 1.334h-.29v.29h.29zm0 1.333h-.29v.29h.29zm0 1.333h-.29v.29h.29zm0 1.334h-.29v.29h.29zm0 1.333h-.29v.29h.29zm0 1.333h-.29v.29h.29zm0 1.334h-.29v.29h.29zm0 1.333h-.29v.29h.29zm0 1.333h-.29v.29h.29zm0 1.334h-.29v.29h.29zm0 1.333h-.29v.29h.29zm0 1.333h-.29v.29h.29zm0 1.334h-.29v.289h.29zm0 1.333h-.29v.29h.29zm0 1.333h-.29v.29h.29zm0 1.334h-.29v.289h.29zm0 1.333h-.29v.29h.29zm0 1.333h-.29v.29h.29zm0 1.334h-.29v.289h.29zm0 1.333h-.29v.29h.29zm0 1.333h-.29v.29h.29zm0 1.334h-.29v.289h.29zm0 1.333h-.29v.29h.29zm0 1.333h-.29v.29h.29zm0 1.334h-.29v.289h.29zm0 1.333h-.29v.29h.29zm0 1.333h-.29v.29h.29zm0 1.334h-.29v.289h.29zm0 1.333h-.29v.29h.29zm0 1.333h-.29v.29h.29zm0 1.334h-.29v.289h.29zm0 1.333h-.29v.29h.29zm0 1.333h-.29v.29h.29zm0 1.334h-.29v.289h.29zm0 1.333h-.29v.29h.29zm0 1.333h-.29v.29h.29zm0 1.334h-.29v.289h.29zm0 1.333h-.29v.29h.29zm0 1.333h-.29v.29h.29zm0 1.334h-.29v.289h.29zm0 1.333h-.29v.29h.29zm0 1.333h-.29v.29h.29zm0 1.334h-.29v.289h.29zm0 1.333h-.29v.29h.29zm0 1.333h-.29v.29h.29zm0 1.334h-.29v.289h.29zm0 1.333h-.29v.29h.29zm0 1.333h-.29v.29h.29zm0 1.334h-.29v.289h.29zm0 1.333h-.29v.29h.29zm0 1.333h-.29v.29h.29zm0 1.334h-.29v.289h.29zm0 1.333h-.29v.29h.29zm-1.334-120h-.29v.29h.29zm0 1.333h-.29v.29h.29zm0 1.334h-.29v.29h.29zm0 1.333h-.29v.29h.29zm0 1.333h-.29v.29h.29zm0 1.334h-.29v.29h.29zm0 1.333h-.29v.29h.29zm0 1.333h-.29v.29h.29zm0 1.334h-.29v.29h.29zm0 1.333h-.29v.29h.29zm0 1.333h-.29v.29h.29zm0 1.334h-.29v.29h.29zm0 1.333h-.29v.29h.29zm0 1.333h-.29v.29h.29zm0 1.334h-.29v.29h.29zm0 1.333h-.29v.29h.29zm0 1.333h-.29v.29h.29zm0 1.334h-.29v.29h.29zm0 1.333h-.29v.29h.29zm0 1.333h-.29v.29h.29zm0 1.334h-.29v.29h.29zm0 1.333h-.29v.29h.29zm0 1.333h-.29v.29h.29zm0 1.334h-.29v.29h.29zm0 1.333h-.29v.29h.29zm0 1.333h-.29v.29h.29zm0 1.334h-.29v.29h.29zm0 1.333h-.29v.29h.29zm0 1.333h-.29v.29h.29zm0 1.334h-.29v.29h.29zm0 1.333h-.29v.29h.29zm0 1.333h-.29v.29h.29zm0 1.334h-.29v.29h.29zm0 1.333h-.29v.29h.29zm0 1.333h-.29v.29h.29zm0 1.334h-.29v.29h.29zm0 1.333h-.29v.29h.29zm0 1.333h-.29v.29h.29zm0 1.334h-.29v.29h.29zm0 1.333h-.29v.29h.29zm0 1.333h-.29v.29h.29zm0 1.334h-.29v.29h.29zm0 1.333h-.29v.29h.29zm0 1.333h-.29v.29h.29zm0 1.334h-.29v.29h.29zm0 1.333h-.29v.29h.29zm0 1.333h-.29v.29h.29zm0 1.334h-.29v.29h.29zm0 1.333h-.29v.29h.29zm0 1.333h-.29v.29h.29zm0 1.334h-.29v.289h.29zm0 1.333h-.29v.29h.29zm0 1.333h-.29v.29h.29zm0 1.334h-.29v.289h.29zm0 1.333h-.29v.29h.29zm0 1.333h-.29v.29h.29zm0 1.334h-.29v.289h.29zm0 1.333h-.29v.29h.29zm0 1.333h-.29v.29h.29zm0 1.334h-.29v.289h.29zm0 1.333h-.29v.29h.29zm0 1.333h-.29v.29h.29zm0 1.334h-.29v.289h.29zm0 1.333h-.29v.29h.29zm0 1.333h-.29v.29h.29zm0 1.334h-.29v.289h.29zm0 1.333h-.29v.29h.29zm0 1.333h-.29v.29h.29zm0 1.334h-.29v.289h.29zm0 1.333h-.29v.29h.29zm0 1.333h-.29v.29h.29zm0 1.334h-.29v.289h.29zm0 1.333h-.29v.29h.29zm0 1.333h-.29v.29h.29zm0 1.334h-.29v.289h.29zm0 1.333h-.29v.29h.29zm0 1.333h-.29v.29h.29zm0 1.334h-.29v.289h.29zm0 1.333h-.29v.29h.29zm0 1.333h-.29v.29h.29zm0 1.334h-.29v.289h.29zm0 1.333h-.29v.29h.29zm0 1.333h-.29v.29h.29zm0 1.334h-.29v.289h.29zm0 1.333h-.29v.29h.29zm0 1.333h-.29v.29h.29zm0 1.334h-.29v.289h.29zm0 1.333h-.29v.29h.29zm0 1.333h-.29v.29h.29zm0 1.334h-.29v.289h.29zm0 1.333h-.29v.29h.29zm0 1.468v-.135h-.29v.29h.043zM42.145 37.855h-.29v.29h.29zm0 1.334h-.29v.29h.29zm0 1.333h-.29v.29h.29zm0 1.333h-.29v.29h.29zm0 1.334h-.29v.29h.29zm0 1.333h-.29v.29h.29zm0 1.333h-.29v.29h.29zm0 1.334h-.29v.29h.29zm0 1.333h-.29v.29h.29zm0 1.333h-.29v.29h.29zm0 1.334h-.29v.29h.29zm0 1.333h-.29v.29h.29zm0 1.333h-.29v.29h.29zm0 1.334h-.29v.29h.29zm0 1.333h-.29v.29h.29zm0 1.333h-.29v.29h.29zm0 1.334h-.29v.29h.29zm0 1.333h-.29v.29h.29zm0 1.333h-.29v.29h.29zm0 1.334h-.29v.29h.29zm0 1.333h-.29v.29h.29zm0 1.333h-.29v.29h.29zm0 1.334h-.29v.29h.29zm0 1.333h-.29v.29h.29zm0 1.333h-.29v.29h.29zm0 1.334h-.29v.29h.29zm0 1.333h-.29v.29h.29zm0 1.333h-.29v.29h.29zm0 1.334h-.29v.29h.29zm0 1.333h-.29v.29h.29zm0 1.333h-.29v.29h.29zm0 1.334h-.29v.29h.29zm0 1.333h-.29v.29h.29zm0 1.333h-.29v.29h.29zm0 1.334h-.29v.29h.29zm0 1.333h-.29v.29h.29zm0 1.333h-.29v.29h.29zm0 1.334h-.29v.29h.29zm0 1.333h-.29v.29h.29zm0 1.333h-.29v.29h.29zm0 1.334h-.29v.29h.29zm0 1.333h-.29v.29h.29zm0 1.333h-.29v.29h.29zm0 1.334h-.29v.29h.29zm0 1.333h-.29v.29h.29zm0 1.333h-.29v.29h.29zm0 1.334h-.29v.29h.29zm0 1.333h-.29v.29h.29zm0 1.333h-.29v.29h.29zm0 1.334h-.29v.289h.29zm0 1.333h-.29v.29h.29zm0 1.333h-.29v.29h.29zm0 1.334h-.29v.289h.29zm0 1.333h-.29v.29h.29zm0 1.333h-.29v.29h.29zm0 1.334h-.29v.289h.29zm0 1.333h-.29v.29h.29zm0 1.333h-.29v.29h.29zm0 1.334h-.29v.289h.29zm0 1.333h-.29v.29h.29zm0 1.333h-.29v.29h.29zm0 1.334h-.29v.289h.29zm0 1.333h-.29v.29h.29zm0 1.333h-.29v.29h.29zm0 1.334h-.29v.289h.29zm0 1.333h-.29v.29h.29zm0 1.333h-.29v.29h.29zm0 1.334h-.29v.289h.29zm0 1.333h-.29v.29h.29zm0 1.333h-.29v.29h.29zm0 1.334h-.29v.289h.29zm0 1.333h-.29v.29h.29zm0 1.333h-.29v.29h.29zm0 1.334h-.29v.289h.29zm0 1.333h-.29v.29h.29zm0 1.333h-.29v.29h.29zm0 1.334h-.29v.289h.29zm0 1.333h-.29v.29h.29zm0 1.333h-.29v.29h.29zm0 1.334h-.29v.289h.29zm0 1.333h-.29v.29h.29zm0 1.333h-.29v.29h.29zm0 1.334h-.29v.289h.29zm0 1.333h-.29v.29h.29zm0 1.333h-.29v.29h.29zm0 1.334h-.29v.289h.29zm0 1.333h-.29v.29h.29zm0 1.333h-.29v.29h.29zm0 1.334h-.29v.289h.29zm0 1.333h-.29v.29h.29zm0 1.333h-.29v.29h.29zm-1.333-120h-.29v.29h.29zm0 1.334h-.29v.29h.29zm0 1.333h-.29v.29h.29zm0 1.333h-.29v.29h.29zm0 1.334h-.29v.29h.29zm0 1.333h-.29v.29h.29zm0 1.333h-.29v.29h.29zm0 1.334h-.29v.29h.29zm0 1.333h-.29v.29h.29zm0 1.333h-.29v.29h.29zm0 1.334h-.29v.29h.29zm0 1.333h-.29v.29h.29zm0 1.333h-.29v.29h.29zm0 1.334h-.29v.29h.29zm0 1.333h-.29v.29h.29zm0 1.333h-.29v.29h.29zm0 1.334h-.29v.29h.29zm0 1.333h-.29v.29h.29zm0 1.333h-.29v.29h.29zm0 1.334h-.29v.29h.29zm0 1.333h-.29v.29h.29zm0 1.333h-.29v.29h.29zm0 1.334h-.29v.29h.29zm0 1.333h-.29v.29h.29zm0 1.333h-.29v.29h.29zm0 1.334h-.29v.29h.29zm0 1.333h-.29v.29h.29zm0 1.333h-.29v.29h.29zm0 1.334h-.29v.29h.29zm0 1.333h-.29v.29h.29zm0 1.333h-.29v.29h.29zm0 1.334h-.29v.29h.29zm0 1.333h-.29v.29h.29zm0 1.333h-.29v.29h.29zm0 1.334h-.29v.29h.29zm0 1.333h-.29v.29h.29zm0 1.333h-.29v.29h.29zm0 1.334h-.29v.29h.29zm0 1.333h-.29v.29h.29zm0 1.333h-.29v.29h.29zm0 1.334h-.29v.29h.29zm0 1.333h-.29v.29h.29zm0 1.333h-.29v.29h.29zm0 1.334h-.29v.29h.29zm0 1.333h-.29v.29h.29zm0 1.333h-.29v.29h.29zm0 1.334h-.29v.29h.29zm0 1.333h-.29v.29h.29zm0 1.333h-.29v.29h.29zm0 1.334h-.29v.289h.29zm0 1.333h-.29v.29h.29zm0 1.333h-.29v.29h.29zm0 1.334h-.29v.289h.29zm0 1.333h-.29v.29h.29zm0 1.333h-.29v.29h.29zm0 1.334h-.29v.289h.29zm0 1.333h-.29v.29h.29zm0 1.333h-.29v.29h.29zm0 1.334h-.29v.289h.29zm0 1.333h-.29v.29h.29zm0 1.333h-.29v.29h.29zm0 1.334h-.29v.289h.29zm0 1.333h-.29v.29h.29zm0 1.333h-.29v.29h.29zm0 1.334h-.29v.289h.29zm0 1.333h-.29v.29h.29zm0 1.333h-.29v.29h.29zm0 1.334h-.29v.289h.29zm0 1.333h-.29v.29h.29zm0 1.333h-.29v.29h.29zm0 1.334h-.29v.289h.29zm0 1.333h-.29v.29h.29zm0 1.333h-.29v.29h.29zm0 1.334h-.29v.289h.29zm0 1.333h-.29v.29h.29zm0 1.333h-.29v.29h.29zm0 1.334h-.29v.289h.29zm0 1.333h-.29v.29h.29zm0 1.333h-.29v.29h.29zm0 1.334h-.29v.289h.29zm0 1.333h-.29v.29h.29zm0 1.333h-.29v.29h.29zm0 1.334h-.29v.289h.29zm0 1.333h-.29v.29h.29zm0 1.333h-.29v.29h.29zm0 1.334h-.29v.289h.29zm0 1.333h-.29v.29h.29zm0 1.333h-.29v.29h.29zm0 1.334h-.29v.289h.29zm0 1.333h-.29v.29h.29zm0 1.333h-.29v.29h.29zm0 1.334h-.29v.289h.29zm-1.334-120h-.29v.29h.29zm0 1.333h-.29v.29h.29zm0 1.333h-.29v.29h.29zm0 1.334h-.29v.29h.29zm0 1.333h-.29v.29h.29zm0 1.333h-.29v.29h.29zm0 1.334h-.29v.29h.29zm0 1.333h-.29v.29h.29zm0 1.333h-.29v.29h.29zm0 1.334h-.29v.29h.29zm0 1.333h-.29v.29h.29zm0 1.333h-.29v.29h.29zm0 1.334h-.29v.29h.29zm0 1.333h-.29v.29h.29zm0 1.333h-.29v.29h.29zm0 1.334h-.29v.29h.29zm0 1.333h-.29v.29h.29zm0 1.333h-.29v.29h.29zm0 1.334h-.29v.29h.29zm0 1.333h-.29v.29h.29zm0 1.333h-.29v.29h.29zm0 1.334h-.29v.29h.29zm0 1.333h-.29v.29h.29zm0 1.333h-.29v.29h.29zm0 1.334h-.29v.29h.29zm0 1.333h-.29v.29h.29zm0 1.333h-.29v.29h.29zm0 1.334h-.29v.29h.29zm0 1.333h-.29v.29h.29zm0 1.333h-.29v.29h.29zm0 1.334h-.29v.29h.29zm0 1.333h-.29v.29h.29zm0 1.333h-.29v.29h.29zm0 1.334h-.29v.29h.29zm0 1.333h-.29v.29h.29zm0 1.333h-.29v.29h.29zm0 1.334h-.29v.29h.29zm0 1.333h-.29v.29h.29zm0 1.333h-.29v.29h.29zm0 1.334h-.29v.29h.29zm0 1.333h-.29v.29h.29zm0 1.333h-.29v.29h.29zm0 1.334h-.29v.29h.29zm0 1.333h-.29v.29h.29zm0 1.333h-.29v.29h.29zm0 1.334h-.29v.29h.29zm0 1.333h-.29v.29h.29zm0 1.333h-.29v.29h.29zm0 1.334h-.29v.289h.29zm0 1.333h-.29v.29h.29zm0 1.333h-.29v.29h.29zm0 1.334h-.29v.289h.29zm0 1.333h-.29v.29h.29zm0 1.333h-.29v.29h.29zm0 1.334h-.29v.289h.29zm0 1.333h-.29v.29h.29zm0 1.333h-.29v.29h.29zm0 1.334h-.29v.289h.29zm0 1.333h-.29v.29h.29zm0 1.333h-.29v.29h.29zm0 1.334h-.29v.289h.29zm0 1.333h-.29v.29h.29zm0 1.333h-.29v.29h.29zm0 1.334h-.29v.289h.29zm0 1.333h-.29v.29h.29zm0 1.333h-.29v.29h.29zm0 1.334h-.29v.289h.29zm0 1.333h-.29v.29h.29zm0 1.333h-.29v.29h.29zm0 1.334h-.29v.289h.29zm0 1.333h-.29v.29h.29zm0 1.333h-.29v.29h.29zm0 1.334h-.29v.289h.29zm0 1.333h-.29v.29h.29zm0 1.333h-.29v.29h.29zm0 1.334h-.29v.289h.29zm0 1.333h-.29v.29h.29zm0 1.333h-.29v.29h.29zm0 1.334h-.29v.289h.29zm0 1.333h-.29v.29h.29zm0 1.333h-.29v.29h.29zm0 1.334h-.29v.289h.29zm0 1.333h-.29v.29h.29zm0 1.333h-.29v.29h.29zm0 1.334h-.29v.289h.29zm0 1.333h-.29v.29h.29zm0 1.333h-.29v.29h.29zm0 1.334h-.29v.289h.29zm0 1.333h-.29v.29h.29zm0 1.333h-.29v.29h.29zm0 1.334h-.29v.289h.29zm-.045 1.333h-.244v.153zM37.855 39.375v.103h.29v-.27zm.29 1.147h-.29v.29h.29zm0 1.333h-.29v.29h.29zm0 1.334h-.29v.29h.29zm0 1.333h-.29v.29h.29zm0 1.333h-.29v.29h.29zm0 1.334h-.29v.29h.29zm0 1.333h-.29v.29h.29zm0 1.333h-.29v.29h.29zm0 1.334h-.29v.29h.29zm0 1.333h-.29v.29h.29zm0 1.333h-.29v.29h.29zm0 1.334h-.29v.29h.29zm0 1.333h-.29v.29h.29zm0 1.333h-.29v.29h.29zm0 1.334h-.29v.29h.29zm0 1.333h-.29v.29h.29zm0 1.333h-.29v.29h.29zm0 1.334h-.29v.29h.29zm0 1.333h-.29v.29h.29zm0 1.333h-.29v.29h.29zm0 1.334h-.29v.29h.29zm0 1.333h-.29v.29h.29zm0 1.333h-.29v.29h.29zm0 1.334h-.29v.29h.29zm0 1.333h-.29v.29h.29zm0 1.333h-.29v.29h.29zm0 1.334h-.29v.29h.29zm0 1.333h-.29v.29h.29zm0 1.333h-.29v.29h.29zm0 1.334h-.29v.29h.29zm0 1.333h-.29v.29h.29zm0 1.333h-.29v.29h.29zm0 1.334h-.29v.29h.29zm0 1.333h-.29v.29h.29zm0 1.333h-.29v.29h.29zm0 1.334h-.29v.29h.29zm0 1.333h-.29v.29h.29zm0 1.333h-.29v.29h.29zm0 1.334h-.29v.29h.29zm0 1.333h-.29v.29h.29zm0 1.333h-.29v.29h.29zm0 1.334h-.29v.29h.29zm0 1.333h-.29v.29h.29zm0 1.333h-.29v.29h.29zm0 1.334h-.29v.29h.29zm0 1.333h-.29v.29h.29zm0 1.333h-.29v.29h.29zm0 1.334h-.29v.289h.29zm0 1.333h-.29v.29h.29zm0 1.333h-.29v.29h.29zm0 1.334h-.29v.289h.29zm0 1.333h-.29v.29h.29zm0 1.333h-.29v.29h.29zm0 1.334h-.29v.289h.29zm0 1.333h-.29v.29h.29zm0 1.333h-.29v.29h.29zm0 1.334h-.29v.289h.29zm0 1.333h-.29v.29h.29zm0 1.333h-.29v.29h.29zm0 1.334h-.29v.289h.29zm0 1.333h-.29v.29h.29zm0 1.333h-.29v.29h.29zm0 1.334h-.29v.289h.29zm0 1.333h-.29v.29h.29zm0 1.333h-.29v.29h.29zm0 1.334h-.29v.289h.29zm0 1.333h-.29v.29h.29zm0 1.333h-.29v.29h.29zm0 1.334h-.29v.289h.29zm0 1.333h-.29v.29h.29zm0 1.333h-.29v.29h.29zm0 1.334h-.29v.289h.29zm0 1.333h-.29v.29h.29zm0 1.333h-.29v.29h.29zm0 1.334h-.29v.289h.29zm0 1.333h-.29v.29h.29zm0 1.333h-.29v.29h.29zm0 1.334h-.29v.289h.29zm0 1.333h-.29v.29h.29zm0 1.333h-.29v.29h.29zm0 1.334h-.29v.289h.29zm0 1.333h-.29v.29h.29zm0 1.333h-.29v.29h.29zm0 1.334h-.29v.289h.29zm0 1.333h-.29v.29h.29zm0 1.333h-.29v.29h.29zm0 1.334h-.29v.289h.29zm0 1.333h-.29v.29h.29zm0 1.333h-.29v.29h.29zm0 1.334h-.29v.289h.29zm0 1.333h-.29v.29h.29zm-1.333-120h-.29v.29h.29zm0 1.333h-.29v.29h.29zm0 1.334h-.29v.29h.29zm0 1.333h-.29v.29h.29zm0 1.333h-.29v.29h.29zm0 1.334h-.29v.29h.29zm0 1.333h-.29v.29h.29zm0 1.333h-.29v.29h.29zm0 1.334h-.29v.29h.29zm0 1.333h-.29v.29h.29zm0 1.333h-.29v.29h.29zm0 1.334h-.29v.29h.29zm0 1.333h-.29v.29h.29zm0 1.333h-.29v.29h.29zm0 1.334h-.29v.29h.29zm0 1.333h-.29v.29h.29zm0 1.333h-.29v.29h.29zm0 1.334h-.29v.29h.29zm0 1.333h-.29v.29h.29zm0 1.333h-.29v.29h.29zm0 1.334h-.29v.29h.29zm0 1.333h-.29v.29h.29zm0 1.333h-.29v.29h.29zm0 1.334h-.29v.29h.29zm0 1.333h-.29v.29h.29zm0 1.333h-.29v.29h.29zm0 1.334h-.29v.29h.29zm0 1.333h-.29v.29h.29zm0 1.333h-.29v.29h.29zm0 1.334h-.29v.29h.29zm0 1.333h-.29v.29h.29zm0 1.333h-.29v.29h.29zm0 1.334h-.29v.29h.29zm0 1.333h-.29v.29h.29zm0 1.333h-.29v.29h.29zm0 1.334h-.29v.29h.29zm0 1.333h-.29v.29h.29zm0 1.333h-.29v.29h.29zm0 1.334h-.29v.29h.29zm0 1.333h-.29v.29h.29zm0 1.333h-.29v.29h.29zm0 1.334h-.29v.29h.29zm0 1.333h-.29v.29h.29zm0 1.333h-.29v.29h.29zm0 1.334h-.29v.29h.29zm0 1.333h-.29v.29h.29zm0 1.333h-.29v.29h.29zm0 1.334h-.29v.289h.29zm0 1.333h-.29v.29h.29zm0 1.333h-.29v.29h.29zm0 1.334h-.29v.289h.29zm0 1.333h-.29v.29h.29zm0 1.333h-.29v.29h.29zm0 1.334h-.29v.289h.29zm0 1.333h-.29v.29h.29zm0 1.333h-.29v.29h.29zm0 1.334h-.29v.289h.29zm0 1.333h-.29v.29h.29zm0 1.333h-.29v.29h.29zm0 1.334h-.29v.289h.29zm0 1.333h-.29v.29h.29zm0 1.333h-.29v.29h.29zm0 1.334h-.29v.289h.29zm0 1.333h-.29v.29h.29zm0 1.333h-.29v.29h.29zm0 1.334h-.29v.289h.29zm0 1.333h-.29v.29h.29zm0 1.333h-.29v.29h.29zm0 1.334h-.29v.289h.29zm0 1.333h-.29v.29h.29zm0 1.333h-.29v.29h.29zm0 1.334h-.29v.289h.29zm0 1.333h-.29v.29h.29zm0 1.333h-.29v.29h.29zm0 1.334h-.29v.289h.29zm0 1.333h-.29v.29h.29zm0 1.333h-.29v.29h.29zm0 1.334h-.29v.289h.29zm0 1.333h-.29v.29h.29zm0 1.333h-.29v.29h.29zm0 1.334h-.29v.289h.29zm0 1.333h-.29v.29h.29zm0 1.333h-.29v.29h.29zm0 1.334h-.29v.289h.29zm0 1.333h-.29v.29h.29zm0 1.333h-.29v.29h.29zm0 1.334h-.29v.289h.29zm0 1.333h-.29v.29h.29zm0 1.333h-.29v.29h.29zm0 1.334h-.29v.289h.29zm0 1.333h-.29v.29h.29zm0 1.333h-.29v.29h.29zM35.478 40.522h-.29v.29h.29zm0 1.333h-.29v.29h.29zm0 1.334h-.29v.29h.29zm0 1.333h-.29v.29h.29zm0 1.333h-.29v.29h.29zm0 1.334h-.29v.29h.29zm0 1.333h-.29v.29h.29zm0 1.333h-.29v.29h.29zm0 1.334h-.29v.29h.29zm0 1.333h-.29v.29h.29zm0 1.333h-.29v.29h.29zm0 1.334h-.29v.29h.29zm0 1.333h-.29v.29h.29zm0 1.333h-.29v.29h.29zm0 1.334h-.29v.29h.29zm0 1.333h-.29v.29h.29zm0 1.333h-.29v.29h.29zm0 1.334h-.29v.29h.29zm0 1.333h-.29v.29h.29zm0 1.333h-.29v.29h.29zm0 1.334h-.29v.29h.29zm0 1.333h-.29v.29h.29zm0 1.333h-.29v.29h.29zm0 1.334h-.29v.29h.29zm0 1.333h-.29v.29h.29zm0 1.333h-.29v.29h.29zm0 1.334h-.29v.29h.29zm0 1.333h-.29v.29h.29zm0 1.333h-.29v.29h.29zm0 1.334h-.29v.29h.29zm0 1.333h-.29v.29h.29zm0 1.333h-.29v.29h.29zm0 1.334h-.29v.29h.29zm0 1.333h-.29v.29h.29zm0 1.333h-.29v.29h.29zm0 1.334h-.29v.29h.29zm0 1.333h-.29v.29h.29zm0 1.333h-.29v.29h.29zm0 1.334h-.29v.29h.29zm0 1.333h-.29v.29h.29zm0 1.333h-.29v.29h.29zm0 1.334h-.29v.29h.29zm0 1.333h-.29v.29h.29zm0 1.333h-.29v.29h.29zm0 1.334h-.29v.29h.29zm0 1.333h-.29v.29h.29zm0 1.333h-.29v.29h.29zm0 1.334h-.29v.289h.29zm0 1.333h-.29v.29h.29zm0 1.333h-.29v.29h.29zm0 1.334h-.29v.289h.29zm0 1.333h-.29v.29h.29zm0 1.333h-.29v.29h.29zm0 1.334h-.29v.289h.29zm0 1.333h-.29v.29h.29zm0 1.333h-.29v.29h.29zm0 1.334h-.29v.289h.29zm0 1.333h-.29v.29h.29zm0 1.333h-.29v.29h.29zm0 1.334h-.29v.289h.29zm0 1.333h-.29v.29h.29zm0 1.333h-.29v.29h.29zm0 1.334h-.29v.289h.29zm0 1.333h-.29v.29h.29zm0 1.333h-.29v.29h.29zm0 1.334h-.29v.289h.29zm0 1.333h-.29v.29h.29zm0 1.333h-.29v.29h.29zm0 1.334h-.29v.289h.29zm0 1.333h-.29v.29h.29zm0 1.333h-.29v.29h.29zm0 1.334h-.29v.289h.29zm0 1.333h-.29v.29h.29zm0 1.333h-.29v.29h.29zm0 1.334h-.29v.289h.29zm0 1.333h-.29v.29h.29zm0 1.333h-.29v.29h.29zm0 1.334h-.29v.289h.29zm0 1.333h-.29v.29h.29zm0 1.333h-.29v.29h.29zm0 1.334h-.29v.289h.29zm0 1.333h-.29v.29h.29zm0 1.333h-.29v.29h.29zm0 1.334h-.29v.289h.29zm0 1.333h-.29v.29h.29zm0 1.333h-.29v.29h.29zm0 1.334h-.29v.289h.29zm0 1.333h-.29v.29h.29zm0 1.333h-.29v.29h.29zm0 1.334h-.29v.289h.29zm0 1.333h-.29v.29h.29zm0 1.333h-.29v.29h.29zm-1.333-124h-.29v.29h.29zm0 1.334h-.29v.29h.29zm0 1.333h-.29v.29h.29zm0 1.333h-.29v.29h.29zm0 1.334h-.29v.29h.29zm0 1.333h-.29v.29h.29zm0 1.333h-.29v.29h.29zm0 1.334h-.29v.29h.29zm0 1.333h-.29v.29h.29zm0 1.333h-.29v.29h.29zm0 1.334h-.29v.29h.29zm0 1.333h-.29v.29h.29zm0 1.333h-.29v.29h.29zm0 1.334h-.29v.29h.29zm0 1.333h-.29v.29h.29zm0 1.333h-.29v.29h.29zm0 1.334h-.29v.29h.29zm0 1.333h-.29v.29h.29zm0 1.333h-.29v.29h.29zm0 1.334h-.29v.29h.29zm0 1.333h-.29v.29h.29zm0 1.333h-.29v.29h.29zm0 1.334h-.29v.29h.29zm0 1.333h-.29v.29h.29zm0 1.333h-.29v.29h.29zm0 1.334h-.29v.29h.29zm0 1.333h-.29v.29h.29zm0 1.333h-.29v.29h.29zm0 1.334h-.29v.29h.29zm0 1.333h-.29v.29h.29zm0 1.333h-.29v.29h.29zm0 1.334h-.29v.29h.29zm0 1.333h-.29v.29h.29zm0 1.333h-.29v.29h.29zm0 1.334h-.29v.29h.29zm0 1.333h-.29v.29h.29zm0 1.333h-.29v.29h.29zm0 1.334h-.29v.29h.29zm0 1.333h-.29v.29h.29zm0 1.333h-.29v.29h.29zm0 1.334h-.29v.29h.29zm0 1.333h-.29v.29h.29zm0 1.333h-.29v.29h.29zm0 1.334h-.29v.29h.29zm0 1.333h-.29v.29h.29zm0 1.333h-.29v.29h.29zm0 1.334h-.29v.29h.29zm0 1.333h-.29v.29h.29zm0 1.333h-.29v.29h.29zm0 1.334h-.29v.289h.29zm0 1.333h-.29v.29h.29zm0 1.333h-.29v.29h.29zm0 1.334h-.29v.289h.29zm0 1.333h-.29v.29h.29zm0 1.333h-.29v.29h.29zm0 1.334h-.29v.289h.29zm0 1.333h-.29v.29h.29zm0 1.333h-.29v.29h.29zm0 1.334h-.29v.289h.29zm0 1.333h-.29v.29h.29zm0 1.333h-.29v.29h.29zm0 1.334h-.29v.289h.29zm0 1.333h-.29v.29h.29zm0 1.333h-.29v.29h.29zm0 1.334h-.29v.289h.29zm0 1.333h-.29v.29h.29zm0 1.333h-.29v.29h.29zm0 1.334h-.29v.289h.29zm0 1.333h-.29v.29h.29zm0 1.333h-.29v.29h.29zm0 1.334h-.29v.289h.29zm0 1.333h-.29v.29h.29zm0 1.333h-.29v.29h.29zm0 1.334h-.29v.289h.29zm0 1.333h-.29v.29h.29zm0 1.333h-.29v.29h.29zm0 1.334h-.29v.289h.29zm0 1.333h-.29v.29h.29zm0 1.333h-.29v.29h.29zm0 1.334h-.29v.289h.29zm0 1.333h-.29v.29h.29zm0 1.333h-.29v.29h.29zm0 1.334h-.29v.289h.29zm0 1.333h-.29v.29h.29zm0 1.333h-.29v.29h.29zm0 1.334h-.29v.289h.29zm0 1.333h-.29v.29h.29zm0 1.333h-.29v.29h.29zm0 1.334h-.29v.289h.29zm0 1.333h-.29v.29h.29zm0 1.333h-.29v.29h.29zm0 1.334h-.29v.289h.29zm0 1.333h-.29v.29h.29zm0 1.333h-.29v.29h.29zm0 1.334h-.29v.289h.29zM32.812 37.855h-.29v.29h.29zm0 1.334h-.29v.29h.29zm0 1.333h-.29v.29h.29zm0 1.333h-.29v.29h.29zm0 1.334h-.29v.29h.29zm0 1.333h-.29v.29h.29zm0 1.333h-.29v.29h.29zm0 1.334h-.29v.29h.29zm0 1.333h-.29v.29h.29zm0 1.333h-.29v.29h.29zm0 1.334h-.29v.29h.29zm0 1.333h-.29v.29h.29zm0 1.333h-.29v.29h.29zm0 1.334h-.29v.29h.29zm0 1.333h-.29v.29h.29zm0 1.333h-.29v.29h.29zm0 1.334h-.29v.29h.29zm0 1.333h-.29v.29h.29zm0 1.333h-.29v.29h.29zm0 1.334h-.29v.29h.29zm0 1.333h-.29v.29h.29zm0 1.333h-.29v.29h.29zm0 1.334h-.29v.29h.29zm0 1.333h-.29v.29h.29zm0 1.333h-.29v.29h.29zm0 1.334h-.29v.29h.29zm0 1.333h-.29v.29h.29zm0 1.333h-.29v.29h.29zm0 1.334h-.29v.29h.29zm0 1.333h-.29v.29h.29zm0 1.333h-.29v.29h.29zm0 1.334h-.29v.29h.29zm0 1.333h-.29v.29h.29zm0 1.333h-.29v.29h.29zm0 1.334h-.29v.29h.29zm0 1.333h-.29v.29h.29zm0 1.333h-.29v.29h.29zm0 1.334h-.29v.29h.29zm0 1.333h-.29v.29h.29zm0 1.333h-.29v.29h.29zm0 1.334h-.29v.29h.29zm0 1.333h-.29v.29h.29zm0 1.333h-.29v.29h.29zm0 1.334h-.29v.29h.29zm0 1.333h-.29v.29h.29zm0 1.333h-.29v.29h.29zm0 1.334h-.29v.29h.29zm0 1.333h-.29v.29h.29zm0 1.333h-.29v.29h.29zm0 1.334h-.29v.289h.29zm0 1.333h-.29v.29h.29zm0 1.333h-.29v.29h.29zm0 1.334h-.29v.289h.29zm0 1.333h-.29v.29h.29zm0 1.333h-.29v.29h.29zm0 1.334h-.29v.289h.29zm0 1.333h-.29v.29h.29zm0 1.333h-.29v.29h.29zm0 1.334h-.29v.289h.29zm0 1.333h-.29v.29h.29zm0 1.333h-.29v.29h.29zm0 1.334h-.29v.289h.29zm0 1.333h-.29v.29h.29zm0 1.333h-.29v.29h.29zm0 1.334h-.29v.289h.29zm0 1.333h-.29v.29h.29zm0 1.333h-.29v.29h.29zm0 1.334h-.29v.289h.29zm0 1.333h-.29v.29h.29zm0 1.333h-.29v.29h.29zm0 1.334h-.29v.289h.29zm0 1.333h-.29v.29h.29zm0 1.333h-.29v.29h.29zm0 1.334h-.29v.289h.29zm0 1.333h-.29v.29h.29zm0 1.333h-.29v.29h.29zm0 1.334h-.29v.289h.29zm0 1.333h-.29v.29h.29zm0 1.333h-.29v.29h.29zm0 1.334h-.29v.289h.29zm0 1.333h-.29v.29h.29zm0 1.333h-.29v.29h.29zm0 1.334h-.29v.289h.29zm0 1.333h-.29v.29h.29zm0 1.333h-.29v.29h.29zm0 1.334h-.29v.289h.29zm0 1.333h-.29v.29h.29zm0 1.333h-.29v.29h.29zm0 1.334h-.29v.289h.29zm0 1.333h-.29v.29h.29zm0 1.333h-.29v.29h.29zm0 1.334h-.29v.289h.29zm0 1.333h-.29v.29h.29zm0 1.333h-.29v.29h.29zm0 1.334h-.29v.289h.29zm0 1.477v-.144h-.29v.29h.057zM31.478 39.189h-.29v.29h.29zm0 1.333h-.29v.29h.29zm0 1.333h-.29v.29h.29zm0 1.334h-.29v.29h.29zm0 1.333h-.29v.29h.29zm0 1.333h-.29v.29h.29zm0 1.334h-.29v.29h.29zm0 1.333h-.29v.29h.29zm0 1.333h-.29v.29h.29zm0 1.334h-.29v.29h.29zm0 1.333h-.29v.29h.29zm0 1.333h-.29v.29h.29zm0 1.334h-.29v.29h.29zm0 1.333h-.29v.29h.29zm0 1.333h-.29v.29h.29zm0 1.334h-.29v.29h.29zm0 1.333h-.29v.29h.29zm0 1.333h-.29v.29h.29zm0 1.334h-.29v.29h.29zm0 1.333h-.29v.29h.29zm0 1.333h-.29v.29h.29zm0 1.334h-.29v.29h.29zm0 1.333h-.29v.29h.29zm0 1.333h-.29v.29h.29zm0 1.334h-.29v.29h.29zm0 1.333h-.29v.29h.29zm0 1.333h-.29v.29h.29zm0 1.334h-.29v.29h.29zm0 1.333h-.29v.29h.29zm0 1.333h-.29v.29h.29zm0 1.334h-.29v.29h.29zm0 1.333h-.29v.29h.29zm0 1.333h-.29v.29h.29zm0 1.334h-.29v.29h.29zm0 1.333h-.29v.29h.29zm0 1.333h-.29v.29h.29zm0 1.334h-.29v.29h.29zm0 1.333h-.29v.29h.29zm0 1.333h-.29v.29h.29zm0 1.334h-.29v.29h.29zm0 1.333h-.29v.29h.29zm0 1.333h-.29v.29h.29zm0 1.334h-.29v.29h.29zm0 1.333h-.29v.29h.29zm0 1.333h-.29v.29h.29zm0 1.334h-.29v.29h.29zm0 1.333h-.29v.29h.29zm0 1.333h-.29v.29h.29zm0 1.334h-.29v.289h.29zm0 1.333h-.29v.29h.29zm0 1.333h-.29v.29h.29zm0 1.334h-.29v.289h.29zm0 1.333h-.29v.29h.29zm0 1.333h-.29v.29h.29zm0 1.334h-.29v.289h.29zm0 1.333h-.29v.29h.29zm0 1.333h-.29v.29h.29zm0 1.334h-.29v.289h.29zm0 1.333h-.29v.29h.29zm0 1.333h-.29v.29h.29zm0 1.334h-.29v.289h.29zm0 1.333h-.29v.29h.29zm0 1.333h-.29v.29h.29zm0 1.334h-.29v.289h.29zm0 1.333h-.29v.29h.29zm0 1.333h-.29v.29h.29zm0 1.334h-.29v.289h.29zm0 1.333h-.29v.29h.29zm0 1.333h-.29v.29h.29zm0 1.334h-.29v.289h.29zm0 1.333h-.29v.29h.29zm0 1.333h-.29v.29h.29zm0 1.334h-.29v.289h.29zm0 1.333h-.29v.29h.29zm0 1.333h-.29v.29h.29zm0 1.334h-.29v.289h.29zm0 1.333h-.29v.29h.29zm0 1.333h-.29v.29h.29zm0 1.334h-.29v.289h.29zm0 1.333h-.29v.29h.29zm0 1.333h-.29v.29h.29zm0 1.334h-.29v.289h.29zm0 1.333h-.29v.29h.29zm0 1.333h-.29v.29h.29zm0 1.334h-.29v.289h.29zm0 1.333h-.29v.29h.29zm0 1.333h-.29v.29h.29zm0 1.334h-.29v.289h.29zm0 1.333h-.29v.29h.29zm0 1.333h-.29v.29h.29zm0 1.334h-.29v.289h.29zm0 1.333h-.29v.29h.29zm0 1.333h-.29v.29h.29zm0 1.334h-.29v.289h.29zm0 1.333h-.29v.29h.29zM30.145 39.189h-.005l-.285.163v.126h.29zm0 1.333h-.29v.29h.29zm0 1.333h-.29v.29h.29zm0 1.334h-.29v.29h.29zm0 1.333h-.29v.29h.29zm0 1.333h-.29v.29h.29zm0 1.334h-.29v.29h.29zm0 1.333h-.29v.29h.29zm0 1.333h-.29v.29h.29zm0 1.334h-.29v.29h.29zm0 1.333h-.29v.29h.29zm0 1.333h-.29v.29h.29zm0 1.334h-.29v.29h.29zm0 1.333h-.29v.29h.29zm0 1.333h-.29v.29h.29zm0 1.334h-.29v.29h.29zm0 1.333h-.29v.29h.29zm0 1.333h-.29v.29h.29zm0 1.334h-.29v.29h.29zm0 1.333h-.29v.29h.29zm0 1.333h-.29v.29h.29zm0 1.334h-.29v.29h.29zm0 1.333h-.29v.29h.29zm0 1.333h-.29v.29h.29zm0 1.334h-.29v.29h.29zm0 1.333h-.29v.29h.29zm0 1.333h-.29v.29h.29zm0 1.334h-.29v.29h.29zm0 1.333h-.29v.29h.29zm0 1.333h-.29v.29h.29zm0 1.334h-.29v.29h.29zm0 1.333h-.29v.29h.29zm0 1.333h-.29v.29h.29zm0 1.334h-.29v.29h.29zm0 1.333h-.29v.29h.29zm0 1.333h-.29v.29h.29zm0 1.334h-.29v.29h.29zm0 1.333h-.29v.29h.29zm0 1.333h-.29v.29h.29zm0 1.334h-.29v.29h.29zm0 1.333h-.29v.29h.29zm0 1.333h-.29v.29h.29zm0 1.334h-.29v.29h.29zm0 1.333h-.29v.29h.29zm0 1.333h-.29v.29h.29zm0 1.334h-.29v.29h.29zm0 1.333h-.29v.29h.29zm0 1.333h-.29v.29h.29zm0 1.334h-.29v.289h.29zm0 1.333h-.29v.29h.29zm0 1.333h-.29v.29h.29zm0 1.334h-.29v.289h.29zm0 1.333h-.29v.29h.29zm0 1.333h-.29v.29h.29zm0 1.334h-.29v.289h.29zm0 1.333h-.29v.29h.29zm0 1.333h-.29v.29h.29zm0 1.334h-.29v.289h.29zm0 1.333h-.29v.29h.29zm0 1.333h-.29v.29h.29zm0 1.334h-.29v.289h.29zm0 1.333h-.29v.29h.29zm0 1.333h-.29v.29h.29zm0 1.334h-.29v.289h.29zm0 1.333h-.29v.29h.29zm0 1.333h-.29v.29h.29zm0 1.334h-.29v.289h.29zm0 1.333h-.29v.29h.29zm0 1.333h-.29v.29h.29zm0 1.334h-.29v.289h.29zm0 1.333h-.29v.29h.29zm0 1.333h-.29v.29h.29zm0 1.334h-.29v.289h.29zm0 1.333h-.29v.29h.29zm0 1.333h-.29v.29h.29zm0 1.334h-.29v.289h.29zm0 1.333h-.29v.29h.29zm0 1.333h-.29v.29h.29zm0 1.334h-.29v.289h.29zm0 1.333h-.29v.29h.29zm0 1.333h-.29v.29h.29zm0 1.334h-.29v.289h.29zm0 1.333h-.29v.29h.29zm0 1.333h-.29v.29h.29zm0 1.334h-.29v.289h.29zm0 1.333h-.29v.29h.29zm0 1.333h-.29v.29h.29zm0 1.334h-.29v.289h.29zm0 1.333h-.29v.29h.29zm0 1.333h-.29v.29h.29zm0 1.334h-.29v.289h.29zm0 1.333h-.29v.29h.29zm0 1.333h-.29v.29h.29zm0 1.334h-.29v.289h.29zm0 1.333h-.29v.29h.29zm0 1.333h-.29v.29h.29zM28.812 40.522h-.29v.29h.29zm0 1.333h-.29v.29h.29zm0 1.334h-.29v.29h.29zm0 1.333h-.29v.29h.29zm0 1.333h-.29v.29h.29zm0 1.334h-.29v.29h.29zm0 1.333h-.29v.29h.29zm0 1.333h-.29v.29h.29zm0 1.334h-.29v.29h.29zm0 1.333h-.29v.29h.29zm0 1.333h-.29v.29h.29zm0 1.334h-.29v.29h.29zm0 1.333h-.29v.29h.29zm0 1.333h-.29v.29h.29zm0 1.334h-.29v.29h.29zm0 1.333h-.29v.29h.29zm0 1.333h-.29v.29h.29zm0 1.334h-.29v.29h.29zm0 1.333h-.29v.29h.29zm0 1.333h-.29v.29h.29zm0 1.334h-.29v.29h.29zm0 1.333h-.29v.29h.29zm0 1.333h-.29v.29h.29zm0 1.334h-.29v.29h.29zm0 1.333h-.29v.29h.29zm0 1.333h-.29v.29h.29zm0 1.334h-.29v.29h.29zm0 1.333h-.29v.29h.29zm0 1.333h-.29v.29h.29zm0 1.334h-.29v.29h.29zm0 1.333h-.29v.29h.29zm0 1.333h-.29v.29h.29zm0 1.334h-.29v.29h.29zm0 1.333h-.29v.29h.29zm0 1.333h-.29v.29h.29zm0 1.334h-.29v.29h.29zm0 1.333h-.29v.29h.29zm0 1.333h-.29v.29h.29zm0 1.334h-.29v.29h.29zm0 1.333h-.29v.29h.29zm0 1.333h-.29v.29h.29zm0 1.334h-.29v.29h.29zm0 1.333h-.29v.29h.29zm0 1.333h-.29v.29h.29zm0 1.334h-.29v.29h.29zm0 1.333h-.29v.29h.29zm0 1.333h-.29v.29h.29zm0 1.334h-.29v.289h.29zm0 1.333h-.29v.29h.29zm0 1.333h-.29v.29h.29zm0 1.334h-.29v.289h.29zm0 1.333h-.29v.29h.29zm0 1.333h-.29v.29h.29zm0 1.334h-.29v.289h.29zm0 1.333h-.29v.29h.29zm0 1.333h-.29v.29h.29zm0 1.334h-.29v.289h.29zm0 1.333h-.29v.29h.29zm0 1.333h-.29v.29h.29zm0 1.334h-.29v.289h.29zm0 1.333h-.29v.29h.29zm0 1.333h-.29v.29h.29zm0 1.334h-.29v.289h.29zm0 1.333h-.29v.29h.29zm0 1.333h-.29v.29h.29zm0 1.334h-.29v.289h.29zm0 1.333h-.29v.29h.29zm0 1.333h-.29v.29h.29zm0 1.334h-.29v.289h.29zm0 1.333h-.29v.29h.29zm0 1.333h-.29v.29h.29zm0 1.334h-.29v.289h.29zm0 1.333h-.29v.29h.29zm0 1.333h-.29v.29h.29zm0 1.334h-.29v.289h.29zm0 1.333h-.29v.29h.29zm0 1.333h-.29v.29h.29zm0 1.334h-.29v.289h.29zm0 1.333h-.29v.29h.29zm0 1.333h-.29v.29h.29zm0 1.334h-.29v.289h.29zm0 1.333h-.29v.29h.29zm0 1.333h-.29v.29h.29zm0 1.334h-.29v.289h.29zm0 1.333h-.29v.29h.29zm0 1.333h-.29v.29h.29zm0 1.334h-.29v.289h.29zm0 1.333h-.29v.29h.29zm0 1.333h-.29v.29h.29zm0 1.334h-.29v.289h.29zm0 1.333h-.29v.29h.29zm0 1.333h-.29v.29h.29zm0 1.334h-.29v.289h.29zm0 1.333h-.29v.29h.29zm0 1.333h-.29v.29h.29zm-.062 1.353.031-.019h-.259v.154q.114-.063.229-.135M27.478 41.855h-.29v.29h.29zm0 1.334h-.29v.29h.29zm0 1.333h-.29v.29h.29zm0 1.333h-.29v.29h.29zm0 1.334h-.29v.29h.29zm0 1.333h-.29v.29h.29zm0 1.333h-.29v.29h.29zm0 1.334h-.29v.29h.29zm0 1.333h-.29v.29h.29zm0 1.333h-.29v.29h.29zm0 1.334h-.29v.29h.29zm0 1.333h-.29v.29h.29zm0 1.333h-.29v.29h.29zm0 1.334h-.29v.29h.29zm0 1.333h-.29v.29h.29zm0 1.333h-.29v.29h.29zm0 1.334h-.29v.29h.29zm0 1.333h-.29v.29h.29zm0 1.333h-.29v.29h.29zm0 1.334h-.29v.29h.29zm0 1.333h-.29v.29h.29zm0 1.333h-.29v.29h.29zm0 1.334h-.29v.29h.29zm0 1.333h-.29v.29h.29zm0 1.333h-.29v.29h.29zm0 1.334h-.29v.29h.29zm0 1.333h-.29v.29h.29zm0 1.333h-.29v.29h.29zm0 1.334h-.29v.29h.29zm0 1.333h-.29v.29h.29zm0 1.333h-.29v.29h.29zm0 1.334h-.29v.29h.29zm0 1.333h-.29v.29h.29zm0 1.333h-.29v.29h.29zm0 1.334h-.29v.29h.29zm0 1.333h-.29v.29h.29zm0 1.333h-.29v.29h.29zm0 1.334h-.29v.29h.29zm0 1.333h-.29v.29h.29zm0 1.333h-.29v.29h.29zm0 1.334h-.29v.29h.29zm0 1.333h-.29v.29h.29zm0 1.333h-.29v.29h.29zm0 1.334h-.29v.29h.29zm0 1.333h-.29v.29h.29zm0 1.333h-.29v.29h.29zm0 1.334h-.29v.289h.29zm0 1.333h-.29v.29h.29zm0 1.333h-.29v.29h.29zm0 1.334h-.29v.289h.29zm0 1.333h-.29v.29h.29zm0 1.333h-.29v.29h.29zm0 1.334h-.29v.289h.29zm0 1.333h-.29v.29h.29zm0 1.333h-.29v.29h.29zm0 1.334h-.29v.289h.29zm0 1.333h-.29v.29h.29zm0 1.333h-.29v.29h.29zm0 1.334h-.29v.289h.29zm0 1.333h-.29v.29h.29zm0 1.333h-.29v.29h.29zm0 1.334h-.29v.289h.29zm0 1.333h-.29v.29h.29zm0 1.333h-.29v.29h.29zm0 1.334h-.29v.289h.29zm0 1.333h-.29v.29h.29zm0 1.333h-.29v.29h.29zm0 1.334h-.29v.289h.29zm0 1.333h-.29v.29h.29zm0 1.333h-.29v.29h.29zm0 1.334h-.29v.289h.29zm0 1.333h-.29v.29h.29zm0 1.333h-.29v.29h.29zm0 1.334h-.29v.289h.29zm0 1.333h-.29v.29h.29zm0 1.333h-.29v.29h.29zm0 1.334h-.29v.289h.29zm0 1.333h-.29v.29h.29zm0 1.333h-.29v.29h.29zm0 1.334h-.29v.289h.29zm0 1.333h-.29v.29h.29zm0 1.333h-.29v.29h.29zm0 1.334h-.29v.289h.29zm0 1.333h-.29v.29h.29zm0 1.333h-.29v.29h.29zm0 1.334h-.29v.289h.29zm0 1.333h-.29v.29h.29zm0 1.333h-.29v.29h.29zm0 1.334h-.29v.289h.29zm0 1.333h-.29v.29h.29zm0 1.333h-.29v.29h.29zm0 1.334h-.29v.289h.29zm0 1.333h-.29v.29h.29zm0 1.333h-.29v.29h.29zm0 1.334h-.29v.289h.29zm-1.333-124h-.29v.29h.29zm0 1.333h-.29v.29h.29zm0 1.333h-.29v.29h.29zm0 1.334h-.29v.29h.29zm0 1.333h-.29v.29h.29zm0 1.333h-.29v.29h.29zm0 1.334h-.29v.29h.29zm0 1.333h-.29v.29h.29zm0 1.333h-.29v.29h.29zm0 1.334h-.29v.29h.29zm0 1.333h-.29v.29h.29zm0 1.333h-.29v.29h.29zm0 1.334h-.29v.29h.29zm0 1.333h-.29v.29h.29zm0 1.333h-.29v.29h.29zm0 1.334h-.29v.29h.29zm0 1.333h-.29v.29h.29zm0 1.333h-.29v.29h.29zm0 1.334h-.29v.29h.29zm0 1.333h-.29v.29h.29zm0 1.333h-.29v.29h.29zm0 1.334h-.29v.29h.29zm0 1.333h-.29v.29h.29zm0 1.333h-.29v.29h.29zm0 1.334h-.29v.29h.29zm0 1.333h-.29v.29h.29zm0 1.333h-.29v.29h.29zm0 1.334h-.29v.29h.29zm0 1.333h-.29v.29h.29zm0 1.333h-.29v.29h.29zm0 1.334h-.29v.29h.29zm0 1.333h-.29v.29h.29zm0 1.333h-.29v.29h.29zm0 1.334h-.29v.29h.29zm0 1.333h-.29v.29h.29zm0 1.333h-.29v.29h.29zm0 1.334h-.29v.29h.29zm0 1.333h-.29v.29h.29zm0 1.333h-.29v.29h.29zm0 1.334h-.29v.29h.29zm0 1.333h-.29v.29h.29zm0 1.333h-.29v.29h.29zm0 1.334h-.29v.29h.29zm0 1.333h-.29v.29h.29zm0 1.333h-.29v.29h.29zm0 1.334h-.29v.289h.29zm0 1.333h-.29v.29h.29zm0 1.333h-.29v.29h.29zm0 1.334h-.29v.289h.29zm0 1.333h-.29v.29h.29zm0 1.333h-.29v.29h.29zm0 1.334h-.29v.289h.29zm0 1.333h-.29v.29h.29zm0 1.333h-.29v.29h.29zm0 1.334h-.29v.289h.29zm0 1.333h-.29v.29h.29zm0 1.333h-.29v.29h.29zm0 1.334h-.29v.289h.29zm0 1.333h-.29v.29h.29zm0 1.333h-.29v.29h.29zm0 1.334h-.29v.289h.29zm0 1.333h-.29v.29h.29zm0 1.333h-.29v.29h.29zm0 1.334h-.29v.289h.29zm0 1.333h-.29v.29h.29zm0 1.333h-.29v.29h.29zm0 1.334h-.29v.289h.29zm0 1.333h-.29v.29h.29zm0 1.333h-.29v.29h.29zm0 1.334h-.29v.289h.29zm0 1.333h-.29v.29h.29zm0 1.333h-.29v.29h.29zm0 1.334h-.29v.289h.29zm0 1.333h-.29v.29h.29zm0 1.333h-.29v.29h.29zm0 1.334h-.29v.289h.29zm0 1.333h-.29v.29h.29zm0 1.333h-.29v.29h.29zm0 1.334h-.29v.289h.29zm0 1.333h-.29v.29h.29zm0 1.333h-.29v.29h.29zm0 1.334h-.29v.289h.29zm0 1.333h-.29v.29h.29zm0 1.333h-.29v.29h.29zm0 1.334h-.29v.289h.29zm0 1.333h-.29v.29h.29zm0 1.333h-.29v.29h.29zm0 1.334h-.29v.289h.29zm0 1.333h-.29v.29h.29zm0 1.333h-.29v.29h.29zm0 1.334h-.29v.289h.29zm0 1.333h-.29v.29h.29zm0 1.333h-.29v.29h.29zm0 1.334h-.29v.289h.29zM24.522 46.028v.117h.29v-.29h-.24zm.29 1.161h-.29v.29h.29zm0 1.333h-.29v.29h.29zm0 1.333h-.29v.29h.29zm0 1.334h-.29v.29h.29zm0 1.333h-.29v.29h.29zm0 1.333h-.29v.29h.29zm0 1.334h-.29v.29h.29zm0 1.333h-.29v.29h.29zm0 1.333h-.29v.29h.29zm0 1.334h-.29v.29h.29zm0 1.333h-.29v.29h.29zm0 1.333h-.29v.29h.29zm0 1.334h-.29v.29h.29zm0 1.333h-.29v.29h.29zm0 1.333h-.29v.29h.29zm0 1.334h-.29v.29h.29zm0 1.333h-.29v.29h.29zm0 1.333h-.29v.29h.29zm0 1.334h-.29v.29h.29zm0 1.333h-.29v.29h.29zm0 1.333h-.29v.29h.29zm0 1.334h-.29v.29h.29zm0 1.333h-.29v.29h.29zm0 1.333h-.29v.29h.29zm0 1.334h-.29v.29h.29zm0 1.333h-.29v.29h.29zm0 1.333h-.29v.29h.29zm0 1.334h-.29v.29h.29zm0 1.333h-.29v.29h.29zm0 1.333h-.29v.29h.29zm0 1.334h-.29v.29h.29zm0 1.333h-.29v.29h.29zm0 1.333h-.29v.29h.29zm0 1.334h-.29v.29h.29zm0 1.333h-.29v.29h.29zm0 1.333h-.29v.29h.29zm0 1.334h-.29v.29h.29zm0 1.333h-.29v.29h.29zm0 1.333h-.29v.29h.29zm0 1.334h-.29v.29h.29zm0 1.333h-.29v.29h.29zm0 1.333h-.29v.29h.29zm0 1.334h-.29v.289h.29zm0 1.333h-.29v.29h.29zm0 1.333h-.29v.29h.29zm0 1.334h-.29v.289h.29zm0 1.333h-.29v.29h.29zm0 1.333h-.29v.29h.29zm0 1.334h-.29v.289h.29zm0 1.333h-.29v.29h.29zm0 1.333h-.29v.29h.29zm0 1.334h-.29v.289h.29zm0 1.333h-.29v.29h.29zm0 1.333h-.29v.29h.29zm0 1.334h-.29v.289h.29zm0 1.333h-.29v.29h.29zm0 1.333h-.29v.29h.29zm0 1.334h-.29v.289h.29zm0 1.333h-.29v.29h.29zm0 1.333h-.29v.29h.29zm0 1.334h-.29v.289h.29zm0 1.333h-.29v.29h.29zm0 1.333h-.29v.29h.29zm0 1.334h-.29v.289h.29zm0 1.333h-.29v.29h.29zm0 1.333h-.29v.29h.29zm0 1.334h-.29v.289h.29zm0 1.333h-.29v.29h.29zm0 1.333h-.29v.29h.29zm0 1.334h-.29v.289h.29zm0 1.333h-.29v.29h.29zm0 1.333h-.29v.29h.29zm0 1.334h-.29v.289h.29zm0 1.333h-.29v.29h.29zm0 1.333h-.29v.29h.29zm0 1.334h-.29v.289h.29zm0 1.333h-.29v.29h.29zm0 1.333h-.29v.29h.29zm0 1.334h-.29v.289h.29zm0 1.333h-.29v.29h.29zm0 1.333h-.29v.29h.29zm0 1.334h-.29v.289h.29zm0 1.333h-.29v.29h.29zm0 1.333h-.29v.29h.29zm0 1.334h-.29v.289h.29zm0 1.333h-.29v.29h.29zm0 1.333h-.29v.29h.29zm0 1.334h-.29v.289h.29zm0 1.333h-.29v.29h.29zm0 1.333h-.29v.29h.29z"/></svg>