<svg width="51" height="32" viewBox="0 0 51 32" fill="none" xmlns="http://www.w3.org/2000/svg">
<rect x="1.83887" y="1.02271" width="47.9929" height="29.9545" rx="3" fill="#FBFBFB"/>
<path d="M11.4752 21.8182L12.3389 19.1648H16.5377L17.4014 21.8182H20.0377L16.0264 10.1818H12.8559L8.83887 21.8182H11.4752ZM12.9639 17.2443L14.3957 12.8409H14.4866L15.9184 17.2443H12.9639Z" fill="black"/>
<path d="M31.1585 14.2557C30.8346 11.5682 28.8005 10.0227 26.1073 10.0227C23.0335 10.0227 20.6869 12.1932 20.6869 16C20.6869 19.7954 22.9937 21.9773 26.1073 21.9773C29.0903 21.9773 30.8914 19.9943 31.1585 17.8523L28.6698 17.8409C28.4369 19.0852 27.4596 19.8011 26.1471 19.8011C24.3801 19.8011 23.1812 18.4886 23.1812 16C23.1812 13.5795 24.363 12.1988 26.1642 12.1988C27.5107 12.1988 28.4823 12.9773 28.6698 14.2557H31.1585Z" fill="black"/>
<path d="M32.9227 21.8182H35.3829V17.0113H40.3772V21.8182H42.8318V10.1818H40.3772V14.9829H35.3829V10.1818H32.9227V21.8182Z" fill="black"/>
<rect x="1.83887" y="1.02271" width="47.9929" height="29.9545" rx="3" stroke="#F4F4F4" stroke-width="2"/>
</svg>
