<svg width="25" height="16" viewBox="0 0 25 16" fill="none" xmlns="http://www.w3.org/2000/svg">
<rect x="0.5" y="0.511353" width="23.9964" height="14.9773" rx="1.5" fill="#FBFBFB"/>
<path d="M5.31818 10.9091L5.75 9.58238H7.84943L8.28125 10.9091H9.59943L7.59375 5.0909H6.00852L4 10.9091H5.31818ZM6.0625 8.62215L6.77841 6.42044H6.82386L7.53977 8.62215H6.0625Z" fill="black"/>
<path d="M15.1598 7.12783C14.9979 5.78408 13.9808 5.01135 12.6342 5.01135C11.0973 5.01135 9.92401 6.09658 9.92401 7.99999C9.92401 9.89772 11.0774 10.9886 12.6342 10.9886C14.1257 10.9886 15.0263 9.99715 15.1598 8.92613L13.9155 8.92044C13.799 9.5426 13.3104 9.90056 12.6541 9.90056C11.7706 9.90056 11.1712 9.24431 11.1712 7.99999C11.1712 6.78976 11.7621 6.09942 12.6626 6.09942C13.3359 6.09942 13.8217 6.48863 13.9155 7.12783H15.1598Z" fill="black"/>
<path d="M16.0419 10.9091H17.272V8.50567H19.7692V10.9091H20.9964V5.0909H19.7692V7.49147H17.272V5.0909H16.0419V10.9091Z" fill="black"/>
<rect x="0.5" y="0.511353" width="23.9964" height="14.9773" rx="1.5" stroke="#F4F4F4"/>
</svg>
