<svg width="23" height="14" viewBox="0 0 23 14" fill="none" xmlns="http://www.w3.org/2000/svg">
<rect y="0.0113525" width="22.9964" height="13.9773" rx="1" fill="white"/>
<path d="M4.31818 9.90908L4.75 8.58238H6.84943L7.28125 9.90908H8.59943L6.59375 4.0909H5.00852L3 9.90908H4.31818ZM5.0625 7.62215L5.77841 5.42044H5.82386L6.53977 7.62215H5.0625Z" fill="black"/>
<path d="M14.1598 6.12783C13.9979 4.78408 12.9808 4.01135 11.6342 4.01135C10.0973 4.01135 8.92401 5.09658 8.92401 6.99999C8.92401 8.89772 10.0774 9.98863 11.6342 9.98863C13.1257 9.98863 14.0263 8.99715 14.1598 7.92613L12.9155 7.92044C12.799 8.5426 12.3104 8.90056 11.6541 8.90056C10.7706 8.90056 10.1712 8.24431 10.1712 6.99999C10.1712 5.78976 10.7621 5.09942 11.6626 5.09942C12.3359 5.09942 12.8217 5.48863 12.9155 6.12783H14.1598Z" fill="black"/>
<path d="M15.0419 9.90908H16.272V7.50567H18.7692V9.90908H19.9964V4.0909H18.7692V6.49147H16.272V4.0909H15.0419V9.90908Z" fill="black"/>
</svg>
