<svg width="51" height="32" viewBox="0 0 51 32" fill="none" xmlns="http://www.w3.org/2000/svg">
<g clip-path="url(#clip0_8336_23741)">
<path d="M46.3437 0H5.31136C5.14046 0 4.96927 0 4.79868 0.000996555C4.65448 0.00202331 4.51061 0.00362383 4.36674 0.00754966C4.05298 0.0160355 3.73653 0.0345472 3.42669 0.0902335C3.1119 0.146886 2.81897 0.239294 2.5332 0.384791C2.25227 0.527661 1.99506 0.71453 1.77217 0.937516C1.54918 1.1605 1.36231 1.41728 1.21947 1.69852C1.07395 1.98429 0.981477 2.27731 0.925217 2.59234C0.869232 2.90227 0.850597 3.21866 0.842141 3.53209C0.838276 3.67596 0.836618 3.81982 0.835678 3.96366C0.834682 4.13461 0.835014 4.30545 0.835014 4.4767V27.5236C0.835014 27.6949 0.834682 27.8654 0.835678 28.0367C0.836618 28.1805 0.838276 28.3244 0.842141 28.4683C0.850597 28.7814 0.869232 29.0978 0.925217 29.4077C0.981477 29.7228 1.07395 30.0157 1.21947 30.3015C1.36231 30.5827 1.54918 30.8399 1.77217 31.0625C1.99506 31.2859 2.25227 31.4727 2.5332 31.6152C2.81897 31.7611 3.1119 31.8535 3.42669 31.9102C3.73653 31.9655 4.05298 31.9843 4.36674 31.9928C4.51061 31.9961 4.65448 31.998 4.79868 31.9987C4.96927 32 5.14046 32 5.31136 32H46.3437C46.5143 32 46.6855 32 46.856 31.9987C46.9999 31.998 47.1438 31.9961 47.2883 31.9928C47.6014 31.9843 47.9178 31.9655 48.2284 31.9102C48.5428 31.8535 48.8358 31.7611 49.1216 31.6152C49.4028 31.4727 49.6592 31.2859 49.8826 31.0625C50.1052 30.8399 50.2921 30.5827 50.4353 30.3015C50.5811 30.0157 50.6735 29.7228 50.7295 29.4077C50.7855 29.0978 50.8037 28.7814 50.8122 28.4683C50.8161 28.3244 50.8181 28.1805 50.8187 28.0367C50.82 27.8654 50.82 27.6949 50.82 27.5236V4.4767C50.82 4.30545 50.82 4.13461 50.8187 3.96366C50.8181 3.81982 50.8161 3.67596 50.8122 3.53209C50.8037 3.21866 50.7855 2.90227 50.7295 2.59234C50.6735 2.27731 50.5811 1.98429 50.4353 1.69852C50.2921 1.41728 50.1052 1.1605 49.8826 0.937516C49.6592 0.71453 49.4028 0.527661 49.1216 0.384791C48.8358 0.239294 48.5428 0.146886 48.2284 0.0902335C47.9178 0.0345472 47.6014 0.0160355 47.2883 0.00754966C47.1438 0.00362383 46.9999 0.00202331 46.856 0.000996555C46.6855 0 46.5143 0 46.3437 0Z" fill="black"/>
<path d="M46.3435 1.06665L46.8482 1.06762C46.985 1.06858 47.1217 1.07006 47.2592 1.07381C47.4984 1.08027 47.7782 1.09323 48.039 1.13997C48.2657 1.1808 48.4558 1.24289 48.6383 1.33578C48.8184 1.42731 48.9834 1.54726 49.1275 1.69116C49.2722 1.83602 49.3923 2.00133 49.485 2.18346C49.5774 2.3645 49.6391 2.55372 49.6797 2.78208C49.7263 3.04004 49.7392 3.32058 49.7458 3.56124C49.7495 3.69707 49.7513 3.8329 49.7519 3.97197C49.7532 4.14015 49.7532 4.30823 49.7532 4.47674V27.5237C49.7532 27.6922 49.7532 27.86 49.7519 28.0317C49.7513 28.1675 49.7495 28.3034 49.7457 28.4394C49.7392 28.6797 49.7263 28.9601 49.6791 29.2211C49.6391 29.4463 49.5774 29.6356 49.4846 29.8176C49.3921 29.9992 49.2722 30.1644 49.1281 30.3083C48.9832 30.4533 48.8187 30.5728 48.6365 30.6652C48.4554 30.7577 48.2655 30.8197 48.0411 30.8601C47.775 30.9075 47.4835 30.9206 47.264 30.9265C47.1258 30.9296 46.9884 30.9315 46.8475 30.9322C46.6797 30.9335 46.5113 30.9334 46.3435 30.9334H5.31112C5.30889 30.9334 5.30671 30.9334 5.30445 30.9334C5.13854 30.9334 4.9723 30.9334 4.80336 30.9321C4.66563 30.9315 4.52819 30.9296 4.39532 30.9266C4.17076 30.9206 3.87908 30.9075 3.61517 30.8604C3.38877 30.8197 3.19897 30.7577 3.01549 30.664C2.83493 30.5725 2.67056 30.453 2.52557 30.3078C2.38171 30.1641 2.26215 29.9995 2.16971 29.8176C2.07718 29.6358 2.01528 29.446 1.97457 29.2181C1.92752 28.9576 1.91459 28.6783 1.90813 28.4396C1.90445 28.303 1.90291 28.1664 1.90203 28.0305L1.90137 27.6295L1.9014 27.5237V4.47674L1.90137 4.37086L1.902 3.9707C1.90291 3.83405 1.90445 3.69743 1.90813 3.56091C1.91459 3.322 1.92752 3.04261 1.97496 2.77994C2.01531 2.55408 2.07718 2.36425 2.1702 2.18158C2.26191 2.00103 2.38168 1.8362 2.5263 1.69161C2.67035 1.5475 2.83526 1.42771 3.01696 1.3353C3.19849 1.24286 3.38865 1.1808 3.61505 1.14006C3.8759 1.09319 4.15588 1.08027 4.39565 1.07378C4.53233 1.07006 4.66901 1.06858 4.80466 1.06765L5.31112 1.06665H46.3435" fill="white"/>
<path d="M14.4803 10.7629C14.9083 10.2276 15.1987 9.50879 15.1221 8.77429C14.4956 8.80544 13.731 9.18762 13.2884 9.72336C12.891 10.1821 12.5392 10.931 12.6309 11.6347C13.3342 11.6957 14.0368 11.2832 14.4803 10.7629Z" fill="black"/>
<path d="M15.1146 11.7721C14.0933 11.7113 13.2249 12.3518 12.7371 12.3518C12.2491 12.3518 11.5022 11.8028 10.6944 11.8176C9.64291 11.833 8.66729 12.4275 8.13372 13.3731C7.03627 15.2646 7.84411 18.0704 8.91132 19.6109C9.42958 20.3731 10.0542 21.2122 10.8772 21.1821C11.6548 21.1516 11.9596 20.6786 12.9048 20.6786C13.8493 20.6786 14.1238 21.1821 14.947 21.1669C15.8006 21.1516 16.3342 20.4043 16.8525 19.6414C17.447 18.7726 17.6904 17.9337 17.7057 17.8876C17.6904 17.8724 16.0597 17.2468 16.0446 15.371C16.0292 13.8004 17.3249 13.0533 17.3858 13.007C16.6542 11.9248 15.5109 11.8028 15.1146 11.7721Z" fill="black"/>
<path d="M24.0071 9.64649C26.227 9.64649 27.7727 11.1767 27.7727 13.4045C27.7727 15.6403 26.1952 17.1784 23.9514 17.1784H21.4936V21.0871H19.7178V9.64648H24.0071V9.64649ZM21.4936 15.6879H23.5312C25.0773 15.6879 25.9572 14.8555 25.9572 13.4125C25.9572 11.9696 25.0773 11.145 23.5391 11.145H21.4936V15.6879V15.6879Z" fill="black"/>
<path d="M28.2373 18.7166C28.2373 17.2577 29.3552 16.3618 31.3374 16.2508L33.6206 16.1161V15.4739C33.6206 14.5463 32.9943 13.9913 31.9479 13.9913C30.9567 13.9913 30.3382 14.4669 30.1877 15.2123H28.5704C28.6655 13.7058 29.9498 12.5958 32.0112 12.5958C34.0329 12.5958 35.3252 13.6662 35.3252 15.339V21.0871H33.684V19.7155H33.6445C33.1609 20.6432 32.1064 21.2298 31.0123 21.2298C29.3791 21.2298 28.2373 20.215 28.2373 18.7166ZM33.6206 17.9634V17.3054L31.5671 17.4321C30.5444 17.5036 29.9657 17.9555 29.9657 18.669C29.9657 19.3983 30.5682 19.8741 31.4879 19.8741C32.685 19.8741 33.6206 19.0495 33.6206 17.9634Z" fill="black"/>
<path d="M36.8744 24.1554V22.7679C37.001 22.7996 37.2864 22.7996 37.4292 22.7996C38.222 22.7996 38.6502 22.4667 38.9117 21.6104C38.9117 21.5945 39.0625 21.103 39.0625 21.0951L36.0498 12.7465H37.9048L40.014 19.5332H40.0455L42.1547 12.7465H43.9623L40.8383 21.5231C40.125 23.5449 39.3004 24.195 37.572 24.195C37.4292 24.195 37.001 24.1791 36.8744 24.1554Z" fill="black"/>
</g>
<defs>
<clipPath id="clip0_8336_23741">
<rect width="49.9851" height="32" fill="white" transform="translate(0.834961)"/>
</clipPath>
</defs>
</svg>
