<svg width="26" height="16" viewBox="0 0 26 16" fill="none" xmlns="http://www.w3.org/2000/svg">
<g clip-path="url(#clip0_7283_26049)">
<path d="M23.7505 0H3.23429C3.14884 0 3.06325 0 2.97795 0.000498277C2.90585 0.00101165 2.83392 0.00181192 2.76198 0.00377483C2.6051 0.00801773 2.44688 0.0172736 2.29196 0.0451167C2.13456 0.073443 1.9881 0.119647 1.84522 0.192395C1.70475 0.26383 1.57615 0.357265 1.4647 0.468758C1.3532 0.580251 1.25977 0.708641 1.18835 0.849261C1.11559 0.992145 1.06935 1.13865 1.04122 1.29617C1.01323 1.45113 1.00391 1.60933 0.999684 1.76605C0.997751 1.83798 0.996922 1.90991 0.996453 1.98183C0.995954 2.06731 0.99612 2.15272 0.99612 2.23835V13.7618C0.99612 13.8474 0.995954 13.9327 0.996453 14.0184C0.996922 14.0903 0.997751 14.1622 0.999684 14.2341C1.00391 14.3907 1.01323 14.5489 1.04122 14.7038C1.06935 14.8614 1.11559 15.0079 1.18835 15.1508C1.25977 15.2914 1.3532 15.4199 1.4647 15.5313C1.57615 15.6429 1.70475 15.7364 1.84522 15.8076C1.9881 15.8805 2.13456 15.9268 2.29196 15.9551C2.44688 15.9827 2.6051 15.9922 2.76198 15.9964C2.83392 15.998 2.90585 15.999 2.97795 15.9993C3.06325 16 3.14884 16 3.23429 16H23.7505C23.8358 16 23.9214 16 24.0066 15.9993C24.0786 15.999 24.1505 15.998 24.2228 15.9964C24.3793 15.9922 24.5375 15.9827 24.6928 15.9551C24.85 15.9268 24.9965 15.8805 25.1394 15.8076C25.28 15.7364 25.4082 15.6429 25.5199 15.5313C25.6312 15.4199 25.7247 15.2914 25.7963 15.1508C25.8692 15.0079 25.9154 14.8614 25.9434 14.7038C25.9714 14.5489 25.9805 14.3907 25.9847 14.2341C25.9867 14.1622 25.9876 14.0903 25.988 14.0184C25.9886 13.9327 25.9886 13.8474 25.9886 13.7618V2.23835C25.9886 2.15272 25.9886 2.06731 25.988 1.98183C25.9876 1.90991 25.9867 1.83798 25.9847 1.76605C25.9805 1.60933 25.9714 1.45113 25.9434 1.29617C25.9154 1.13865 25.8692 0.992145 25.7963 0.849261C25.7247 0.708641 25.6312 0.580251 25.5199 0.468758C25.4082 0.357265 25.28 0.26383 25.1394 0.192395C24.9965 0.119647 24.85 0.073443 24.6928 0.0451167C24.5375 0.0172736 24.3793 0.00801773 24.2228 0.00377483C24.1505 0.00181192 24.0786 0.00101165 24.0066 0.000498277C23.9214 0 23.8358 0 23.7505 0Z" fill="black"/>
<path d="M23.7503 0.533295L24.0027 0.533778C24.0711 0.534261 24.1395 0.535001 24.2082 0.536873C24.3278 0.540104 24.4677 0.546582 24.5981 0.569956C24.7115 0.59037 24.8065 0.621414 24.8977 0.66786C24.9878 0.713626 25.0703 0.7736 25.1424 0.845548C25.2147 0.91798 25.2748 1.00063 25.3211 1.0917C25.3673 1.18222 25.3982 1.27683 25.4185 1.39101C25.4418 1.51999 25.4482 1.66026 25.4515 1.78059C25.4533 1.8485 25.4542 1.91642 25.4546 1.98595C25.4552 2.07004 25.4552 2.15408 25.4552 2.23834V13.7618C25.4552 13.8461 25.4552 13.9299 25.4546 14.0158C25.4542 14.0837 25.4533 14.1517 25.4515 14.2197C25.4482 14.3398 25.4418 14.48 25.4182 14.6105C25.3982 14.7231 25.3673 14.8178 25.3209 14.9087C25.2747 14.9996 25.2147 15.0821 25.1427 15.1541C25.0702 15.2266 24.988 15.2864 24.8968 15.3326C24.8063 15.3788 24.7114 15.4098 24.5992 15.43C24.4661 15.4537 24.3204 15.4602 24.2106 15.4632C24.1415 15.4648 24.0728 15.4657 24.0024 15.466C23.9185 15.4667 23.8343 15.4667 23.7503 15.4667H3.23418C3.23306 15.4667 3.23197 15.4667 3.23084 15.4667C3.14788 15.4667 3.06476 15.4667 2.9803 15.466C2.91143 15.4657 2.84271 15.4648 2.77627 15.4633C2.664 15.4602 2.51815 15.4537 2.3862 15.4302C2.273 15.4098 2.1781 15.3788 2.08636 15.332C1.99608 15.2862 1.91389 15.2265 1.8414 15.1539C1.76947 15.082 1.70969 14.9997 1.66347 14.9088C1.61721 14.8179 1.58625 14.723 1.5659 14.609C1.54237 14.4788 1.53591 14.3391 1.53268 14.2198C1.53084 14.1515 1.53007 14.0832 1.52963 14.0152L1.5293 13.8147L1.52931 13.7618V2.23834L1.5293 2.1854L1.52961 1.98532C1.53007 1.917 1.53084 1.84869 1.53268 1.78042C1.53591 1.66097 1.54237 1.52127 1.56609 1.38994C1.58627 1.27701 1.61721 1.1821 1.66371 1.09076C1.70957 1.00048 1.76945 0.91807 1.84176 0.845775C1.91379 0.773721 1.99624 0.713822 2.0871 0.667618C2.17786 0.621399 2.27294 0.59037 2.38614 0.570001C2.51657 0.546567 2.65655 0.540104 2.77644 0.536858C2.84478 0.535001 2.91312 0.534261 2.98094 0.533793L3.23418 0.533295H23.7503Z" fill="white"/>
<path d="M7.81875 5.38148C8.03274 5.11382 8.17795 4.75443 8.13965 4.38718C7.8264 4.40275 7.44413 4.59384 7.22281 4.86171C7.0241 5.0911 6.84821 5.46554 6.89407 5.81739C7.24571 5.84789 7.59703 5.64162 7.81875 5.38148Z" fill="black"/>
<path d="M8.13591 5.8861C7.62524 5.85568 7.19104 6.17593 6.94717 6.17593C6.70316 6.17593 6.32971 5.90143 5.92579 5.90883C5.40007 5.91655 4.91226 6.2138 4.64548 6.68656C4.09675 7.63232 4.50067 9.03522 5.03427 9.80548C5.2934 10.1866 5.6057 10.6062 6.0172 10.5911C6.406 10.5758 6.55839 10.3393 7.03099 10.3393C7.50325 10.3393 7.64052 10.5911 8.05209 10.5835C8.47889 10.5758 8.74572 10.2022 9.00485 9.82074C9.30212 9.38633 9.42382 8.96688 9.43147 8.94385C9.42381 8.93623 8.60847 8.62344 8.60091 7.68554C8.59321 6.90022 9.24105 6.52668 9.27154 6.50352C8.9057 5.96244 8.33408 5.90143 8.13591 5.8861Z" fill="black"/>
<path d="M12.5821 4.8233C13.6921 4.8233 14.465 5.5884 14.465 6.70232C14.465 7.82022 13.6762 8.58929 12.5543 8.58929H11.3254V10.5436H10.4375V4.8233H12.5821V4.8233ZM11.3254 7.844H12.3442C13.1172 7.844 13.5572 7.4278 13.5572 6.70629C13.5572 5.98486 13.1172 5.57257 12.3482 5.57257H11.3254V7.844Z" fill="black"/>
<path d="M14.6973 9.35835C14.6973 8.62889 15.2562 8.18097 16.2473 8.12545L17.3889 8.05809V7.73702C17.3889 7.27319 17.0757 6.9957 16.5526 6.9957C16.0569 6.9957 15.7477 7.23351 15.6725 7.60619H14.8638C14.9114 6.85295 15.5535 6.29797 16.5842 6.29797C17.5951 6.29797 18.2412 6.83314 18.2412 7.66958V10.5436H17.4206V9.85781H17.4009C17.1591 10.3216 16.6318 10.615 16.0848 10.615C15.2681 10.615 14.6973 10.1075 14.6973 9.35835ZM17.3889 8.98177V8.65275L16.3622 8.71613C15.8508 8.75184 15.5615 8.97779 15.5615 9.33457C15.5615 9.69923 15.8627 9.9371 16.3226 9.9371C16.9211 9.9371 17.3889 9.52481 17.3889 8.98177Z" fill="black"/>
<path d="M19.0158 12.0778V11.384C19.0791 11.3999 19.2218 11.3999 19.2932 11.3999C19.6896 11.3999 19.9037 11.2334 20.0345 10.8053C20.0345 10.7973 20.1098 10.5516 20.1098 10.5476L18.6035 6.37329H19.531L20.5856 9.76667H20.6014L21.6559 6.37329H22.5597L20.9977 10.7616C20.6411 11.7725 20.2288 12.0976 19.3646 12.0976C19.2932 12.0976 19.0791 12.0896 19.0158 12.0778Z" fill="black"/>
</g>
<defs>
<clipPath id="clip0_7283_26049">
<rect width="24.9925" height="16" fill="white" transform="translate(0.996094)"/>
</clipPath>
</defs>
</svg>
