<svg width="32" height="16" viewBox="0 0 32 16" fill="none" xmlns="http://www.w3.org/2000/svg">
<rect x="0.807617" width="30.9091" height="16" rx="1" fill="black"/>
<path d="M6.33373 5.15088L4.80762 9.63057H5.70704L6.13644 8.32496H7.37241L7.81342 9.63057H8.73025L7.20414 5.15088H6.33373ZM7.15771 7.58221H6.35694L6.6935 6.59575C6.71671 6.52612 6.73992 6.46229 6.75733 6.39266C6.78054 6.46229 6.79795 6.53192 6.82116 6.60156L7.15771 7.58221Z" fill="white"/>
<path d="M10.2449 7.5938C9.83291 7.43133 9.78649 7.35589 9.78649 7.23404C9.78649 7.08317 9.91415 6.99032 10.1172 6.99032C10.361 6.99032 10.5466 7.08897 10.6395 7.14119L10.8136 7.25144L11.0457 6.54351L10.9412 6.47388C10.7381 6.34042 10.4364 6.26498 10.123 6.26498C9.43833 6.26498 8.9393 6.70019 8.9393 7.29787C8.9393 7.84912 9.42672 8.14506 9.83872 8.29593C10.2507 8.4468 10.2797 8.55705 10.2797 8.68471C10.2797 8.92843 10.0244 8.96324 9.86773 8.96324C9.62982 8.96324 9.3745 8.8646 9.22943 8.77756L9.05535 8.67311L8.82324 9.39845L8.93349 9.46228C9.18301 9.60734 9.51957 9.69438 9.85612 9.69438C10.6163 9.69438 11.1269 9.26498 11.1269 8.63249C11.1269 7.99419 10.6221 7.73307 10.2449 7.5938Z" fill="white"/>
<path d="M12.4793 5.55127L11.6263 5.81239V6.32303H11.1621V7.05997H11.6263V8.52226C11.6263 8.92845 11.7076 9.22438 11.8758 9.41587C12.0383 9.59576 12.2936 9.6944 12.578 9.6944C12.8391 9.6944 13.0248 9.64218 13.1118 9.61317L13.2279 9.57255L13.1815 8.8298L12.9842 8.88783C12.9261 8.90523 12.8565 8.91684 12.7172 8.91684C12.6128 8.91684 12.4735 8.91684 12.4735 8.49905V7.05997H13.2511V6.32303H12.4735L12.4793 5.55127Z" fill="white"/>
<path d="M15.3337 6.294L15.177 6.27659C15.1306 6.27079 15.0841 6.26498 15.0261 6.26498C14.7534 6.26498 14.5039 6.37524 14.3182 6.57253L14.3066 6.32881H13.5L13.5116 6.5029C13.529 6.75821 13.5348 7.04835 13.5348 7.41972V9.63055H14.3994V7.87814C14.3994 7.7969 14.4052 7.71566 14.4168 7.65763C14.4807 7.31527 14.6954 7.10057 14.9855 7.10057C15.0551 7.10057 15.0957 7.10057 15.1364 7.10638L15.3337 7.147V6.294Z" fill="white"/>
<path d="M16.9176 6.26498C15.9543 6.26498 15.2754 6.97872 15.2754 8.0058C15.2754 9.00386 15.9311 9.70019 16.8653 9.70019C17.6603 9.70019 18.5133 9.15473 18.5133 7.95357C18.5133 6.95551 17.8576 6.26498 16.9176 6.26498ZM17.6371 7.97098C17.6371 8.54545 17.3237 8.96905 16.8943 8.96905C16.4649 8.96905 16.1574 8.55705 16.1574 7.98839C16.1574 7.62282 16.3141 6.99613 16.906 6.99613C17.4804 6.99613 17.6371 7.63442 17.6371 7.97098Z" fill="white"/>
<path d="M21.3568 5.51064C21.0725 5.25532 20.6431 5.12186 20.086 5.12186C19.7089 5.12186 19.3549 5.15087 19.0299 5.20309L18.8965 5.22631V9.62476H19.7553V7.9942C19.8423 8 19.9352 8.0058 20.0222 8.0058C20.6025 8.0058 21.0957 7.82592 21.4091 7.50097C21.6528 7.25145 21.7746 6.91489 21.7746 6.5029C21.7746 6.10251 21.6238 5.74855 21.3568 5.51064ZM20.91 6.53191C20.91 7.15861 20.3588 7.25145 20.0338 7.25145C19.9236 7.25145 19.8307 7.24565 19.7553 7.23404V5.88781C19.8365 5.87621 19.9526 5.87041 20.0976 5.87041C20.469 5.87041 20.91 5.98646 20.91 6.53191Z" fill="white"/>
<path d="M24.4095 8.75435V7.64023C24.4095 6.75241 23.9511 6.26498 23.1155 6.26498C22.7268 6.26498 22.3264 6.36943 22.042 6.54932L21.9318 6.61895L22.1639 7.30367L22.338 7.18181C22.5179 7.05995 22.7732 6.99032 23.0285 6.99032C23.2026 6.99032 23.3302 7.03094 23.4115 7.11218C23.4811 7.18181 23.5217 7.28046 23.5333 7.41392C22.8602 7.43133 22.3612 7.5938 22.0594 7.89554C21.8505 8.10444 21.7461 8.37137 21.7461 8.68471C21.7461 9.18955 22.1175 9.70019 22.8196 9.70019C23.1213 9.70019 23.4057 9.60154 23.6262 9.43326L23.6494 9.63055H24.4676L24.4385 9.44487C24.4211 9.26498 24.4095 9.03288 24.4095 8.75435ZM22.9647 8.97485C22.837 8.97485 22.6223 8.92843 22.6223 8.62088C22.6223 8.50483 22.6571 8.40618 22.7326 8.33655C22.8312 8.2379 23.0575 8.12185 23.5623 8.11025V8.46421C23.5623 8.48742 23.5623 8.53965 23.5449 8.58607C23.4869 8.76015 23.2954 8.97485 22.9647 8.97485Z" fill="white"/>
<path d="M26.7935 6.323L26.1668 8.17987C26.1494 8.22629 26.1377 8.27271 26.1203 8.31913C26.1029 8.27271 26.0855 8.22629 26.0739 8.18567L25.3892 6.3172H24.4434L25.6271 9.28819L25.6329 9.29399C25.6503 9.33461 25.6561 9.35202 25.6619 9.36362C25.6561 9.38103 25.6445 9.41004 25.6329 9.42745C25.5285 9.64795 25.3776 9.85105 25.2267 9.97291L25.2209 9.97871C25.0468 10.1238 24.8728 10.1934 24.8031 10.2108L24.6523 10.2572L24.8728 11L25.0178 10.9768C25.1049 10.9594 25.4124 10.8897 25.7606 10.5938C26.1842 10.2224 26.4627 9.63055 26.8283 8.66149L27.7161 6.323H26.7935Z" fill="white"/>
<path d="M7.9707 6.38685C8.52776 5.81818 9.4736 5.47582 10.5007 5.47582C10.9011 5.47582 11.2898 5.52805 11.6612 5.62669L11.6902 5.6325L12.3459 5.4352L12.05 5.32495C11.4871 5.11025 10.843 5 10.1757 5C9.21248 5 8.30726 5.23211 7.63995 5.65571L7.57031 5.70213L7.84884 6.51451L7.9707 6.38685Z" fill="#FF0000"/>
</svg>
