<svg width="47" height="12" viewBox="0 0 47 12" fill="none" xmlns="http://www.w3.org/2000/svg">
<path d="M3.2573 0.301727L0.205078 9.26111H2.00392L2.86272 6.64989H5.33467L6.21668 9.26111H8.05034L4.99811 0.301727H3.2573ZM4.90527 5.1644H3.30372L3.97684 3.19148C4.02326 3.05221 4.06968 2.92455 4.1045 2.78529C4.15092 2.92455 4.18574 3.06382 4.23216 3.20308L4.90527 5.1644Z" fill="white"/>
<path d="M11.0797 5.18761C10.2557 4.86266 10.1628 4.71179 10.1628 4.46807C10.1628 4.16633 10.4181 3.98065 10.8243 3.98065C11.3118 3.98065 11.6831 4.17794 11.8688 4.28239L12.217 4.50289L12.6812 3.08703L12.4723 2.94776C12.0661 2.68084 11.4626 2.52997 10.8359 2.52997C9.4665 2.52997 8.46844 3.40037 8.46844 4.59573C8.46844 5.69825 9.44329 6.29012 10.2673 6.59186C11.0913 6.8936 11.1493 7.11411 11.1493 7.36943C11.1493 7.85685 10.6386 7.92649 10.3253 7.92649C9.84948 7.92649 9.33884 7.72919 9.04871 7.55511L8.70054 7.34622L8.23633 8.79689L8.45683 8.92455C8.95586 9.21469 9.62898 9.38877 10.3021 9.38877C11.8224 9.38877 12.8437 8.52997 12.8437 7.26498C12.8437 5.98838 11.834 5.46614 11.0797 5.18761Z" fill="white"/>
<path d="M15.5475 1.10251L13.8415 1.62475V2.64603H12.9131V4.11992H13.8415V7.04448C13.8415 7.85686 14.004 8.44874 14.3406 8.83172C14.6655 9.19148 15.1761 9.38877 15.7448 9.38877C16.2671 9.38877 16.6384 9.28433 16.8125 9.2263L17.0446 9.14506L16.9518 7.65957L16.5572 7.77562C16.4411 7.81044 16.3019 7.83365 16.0233 7.83365C15.8144 7.83365 15.5359 7.83365 15.5359 6.99806V4.11992H17.091V2.64603H15.5359L15.5475 1.10251Z" fill="white"/>
<path d="M21.2572 2.588L20.9438 2.55318C20.851 2.54157 20.7581 2.52997 20.6421 2.52997C20.0966 2.52997 19.5976 2.75047 19.2262 3.14506L19.203 2.65763H17.5898L17.6131 3.00579C17.6479 3.51643 17.6595 4.0967 17.6595 4.83945V9.26111H19.3887V5.75627C19.3887 5.5938 19.4003 5.43132 19.4235 5.31527C19.5512 4.63055 19.9806 4.20115 20.5608 4.20115C20.7001 4.20115 20.7813 4.20115 20.8626 4.21275L21.2572 4.29399V2.588Z" fill="white"/>
<path d="M24.4259 2.52997C22.4994 2.52997 21.1416 3.95743 21.1416 6.01159C21.1416 8.00772 22.453 9.40037 24.3215 9.40037C25.9114 9.40037 27.6174 8.30946 27.6174 5.90714C27.6174 3.91101 26.306 2.52997 24.4259 2.52997ZM25.865 5.94196C25.865 7.0909 25.2383 7.93809 24.3795 7.93809C23.5207 7.93809 22.9056 7.11411 22.9056 5.97678C22.9056 5.24563 23.219 3.99225 24.4027 3.99225C25.5517 3.99225 25.865 5.26885 25.865 5.94196Z" fill="white"/>
<path d="M33.3035 1.02128C32.7348 0.510638 31.876 0.243713 30.7619 0.243713C30.0076 0.243713 29.2996 0.301741 28.6497 0.406189L28.3828 0.452611V9.24952H30.1004V5.98839C30.2745 6 30.4602 6.0116 30.6343 6.0116C31.7948 6.0116 32.7813 5.65184 33.408 5.00193C33.8954 4.5029 34.1391 3.82979 34.1391 3.0058C34.1391 2.20503 33.8374 1.4971 33.3035 1.02128ZM32.4099 3.06383C32.4099 4.31721 31.3074 4.5029 30.6575 4.5029C30.437 4.5029 30.2513 4.4913 30.1004 4.46808V1.77563C30.2629 1.75242 30.495 1.74081 30.7851 1.74081C31.5279 1.74081 32.4099 1.97292 32.4099 3.06383Z" fill="white"/>
<path d="M39.4079 7.50869V5.28045C39.4079 3.50482 38.4911 2.52997 36.8199 2.52997C36.0424 2.52997 35.2416 2.73887 34.6729 3.09863L34.4524 3.2379L34.9166 4.60734L35.2648 4.36362C35.6246 4.11991 36.1352 3.98065 36.6459 3.98065C36.994 3.98065 37.2493 4.06188 37.4118 4.22436C37.5511 4.36362 37.6323 4.56092 37.6555 4.82784C36.3093 4.86266 35.3112 5.18761 34.7077 5.79109C34.29 6.20888 34.0811 6.74273 34.0811 7.36943C34.0811 8.3791 34.8238 9.40037 36.2281 9.40037C36.8315 9.40037 37.4002 9.20308 37.8412 8.86652L37.8876 9.26111H39.524L39.466 8.88974C39.4311 8.52997 39.4079 8.06575 39.4079 7.50869ZM36.5182 7.9497C36.2629 7.9497 35.8335 7.85685 35.8335 7.24177C35.8335 7.00966 35.9031 6.81237 36.054 6.6731C36.2513 6.47581 36.7039 6.2437 37.7135 6.22049V6.92842C37.7135 6.97484 37.7135 7.07929 37.6787 7.17213C37.5627 7.5203 37.1797 7.9497 36.5182 7.9497Z" fill="white"/>
<path d="M44.1777 2.64604L42.9243 6.35977C42.8895 6.45261 42.8663 6.54545 42.8315 6.6383C42.7967 6.54545 42.7619 6.45261 42.7387 6.37137L41.3692 2.63443H39.4775L41.845 8.5764L41.8566 8.58801C41.8915 8.66925 41.9031 8.70406 41.9147 8.72727C41.9031 8.76209 41.8799 8.82012 41.8566 8.85493C41.6478 9.29594 41.346 9.70213 41.0443 9.94584L41.0327 9.95745C40.6845 10.2476 40.3363 10.3868 40.1971 10.4217L39.8953 10.5145L40.3363 12L40.6265 11.9536C40.8006 11.9188 41.4156 11.7795 42.112 11.1876C42.9592 10.4449 43.5162 9.26112 44.2474 7.32302L46.023 2.64604H44.1777Z" fill="white"/>
<path d="M6.53027 2.77369C7.64439 1.63636 9.53607 0.951644 11.5902 0.951644C12.391 0.951644 13.1686 1.05609 13.9113 1.25338L13.9693 1.26499L15.2807 0.870406L14.6889 0.649903C13.5631 0.220503 12.2749 0 10.9403 0C9.01382 0 7.20338 0.464217 5.86876 1.31141L5.72949 1.40426L6.28655 3.02901L6.53027 2.77369Z" fill="#FF0000"/>
</svg>
