<svg width="59" height="32" viewBox="0 0 59 32" fill="none" xmlns="http://www.w3.org/2000/svg">
<rect x="0.834961" y="2" width="57.8189" height="28" rx="2" fill="black"/>
<path d="M9.88718 10.3018L6.83496 19.2611H8.6338L9.4926 16.6499H11.9646L12.8466 19.2611H14.6802L11.628 10.3018H9.88718ZM11.5352 15.1644H9.93361L10.6067 13.1915C10.6531 13.0522 10.6996 12.9246 10.7344 12.7853C10.7808 12.9246 10.8156 13.0638 10.862 13.2031L11.5352 15.1644Z" fill="white"/>
<path d="M17.7095 15.1877C16.8856 14.8627 16.7927 14.7118 16.7927 14.4681C16.7927 14.1664 17.048 13.9807 17.4542 13.9807C17.9416 13.9807 18.313 14.178 18.4987 14.2824L18.8469 14.5029L19.3111 13.0871L19.1022 12.9478C18.696 12.6809 18.0925 12.53 17.4658 12.53C16.0964 12.53 15.0983 13.4004 15.0983 14.5958C15.0983 15.6983 16.0732 16.2902 16.8972 16.5919C17.7211 16.8937 17.7792 17.1142 17.7792 17.3695C17.7792 17.8569 17.2685 17.9265 16.9552 17.9265C16.4794 17.9265 15.9687 17.7293 15.6786 17.5552L15.3304 17.3463L14.8662 18.797L15.0867 18.9246C15.5857 19.2147 16.2589 19.3888 16.932 19.3888C18.4523 19.3888 19.4736 18.53 19.4736 17.265C19.4736 15.9884 18.4639 15.4662 17.7095 15.1877Z" fill="white"/>
<path d="M22.1764 11.1025L20.4704 11.6248V12.6461H19.542V14.1199H20.4704V17.0445C20.4704 17.8569 20.6329 18.4488 20.9695 18.8317C21.2944 19.1915 21.805 19.3888 22.3737 19.3888C22.896 19.3888 23.2673 19.2844 23.4414 19.2263L23.6735 19.1451L23.5807 17.6596L23.1861 17.7757C23.07 17.8105 22.9308 17.8337 22.6522 17.8337C22.4433 17.8337 22.1648 17.8337 22.1648 16.9981V14.1199H23.7199V12.6461H22.1648L22.1764 11.1025Z" fill="white"/>
<path d="M27.887 12.5881L27.5737 12.5532C27.4808 12.5416 27.388 12.53 27.272 12.53C26.7265 12.53 26.2275 12.7505 25.8561 13.1451L25.8329 12.6577H24.2197L24.2429 13.0059C24.2778 13.5165 24.2894 14.0968 24.2894 14.8395V19.2612H26.0186V15.7563C26.0186 15.5939 26.0302 15.4314 26.0534 15.3153C26.181 14.6306 26.6104 14.2012 27.1907 14.2012C27.33 14.2012 27.4112 14.2012 27.4925 14.2128L27.887 14.2941V12.5881V12.5881Z" fill="white"/>
<path d="M31.0568 12.53C29.1303 12.53 27.7725 13.9575 27.7725 16.0117C27.7725 18.0078 29.0839 19.4004 30.9523 19.4004C32.5423 19.4004 34.2483 18.3095 34.2483 15.9072C34.2483 13.9111 32.9369 12.53 31.0568 12.53ZM32.4959 15.942C32.4959 17.091 31.8692 17.9382 31.0104 17.9382C30.1516 17.9382 29.5365 17.1142 29.5365 15.9768C29.5365 15.2457 29.8498 13.9923 31.0336 13.9923C32.1825 13.9923 32.4959 15.2689 32.4959 15.942Z" fill="white"/>
<path d="M39.9334 11.0212C39.3647 10.5106 38.5059 10.2437 37.3918 10.2437C36.6375 10.2437 35.9295 10.3017 35.2796 10.4061L35.0127 10.4525V19.2495H36.7303V15.9883C36.9044 15.9999 37.0901 16.0115 37.2641 16.0115C38.4247 16.0115 39.4111 15.6518 40.0378 15.0019C40.5253 14.5028 40.769 13.8297 40.769 13.0057C40.769 12.205 40.4672 11.497 39.9334 11.0212ZM39.0398 13.0638C39.0398 14.3172 37.9373 14.5028 37.2874 14.5028C37.0669 14.5028 36.8812 14.4912 36.7303 14.468V11.7756C36.8928 11.7524 37.1249 11.7408 37.415 11.7408C38.1578 11.7408 39.0398 11.9729 39.0398 13.0638Z" fill="white"/>
<path d="M46.0368 17.5088V15.2805C46.0368 13.5049 45.12 12.53 43.4488 12.53C42.6713 12.53 41.8705 12.7389 41.3018 13.0987L41.0813 13.238L41.5455 14.6074L41.8937 14.3637C42.2535 14.12 42.7641 13.9807 43.2748 13.9807C43.6229 13.9807 43.8782 14.0619 44.0407 14.2244C44.18 14.3637 44.2612 14.561 44.2844 14.8279C42.9382 14.8627 41.9401 15.1877 41.3367 15.7912C40.9189 16.2089 40.71 16.7428 40.71 17.3695C40.71 18.3792 41.4527 19.4004 42.857 19.4004C43.4604 19.4004 44.0291 19.2031 44.4701 18.8666L44.5165 19.2612H46.1529L46.0949 18.8898C46.0601 18.53 46.0368 18.0658 46.0368 17.5088ZM43.1471 17.9498C42.8918 17.9498 42.4624 17.8569 42.4624 17.2418C42.4624 17.0097 42.532 16.8124 42.6829 16.6732C42.8802 16.4759 43.3328 16.2438 44.3425 16.2206V16.9285C44.3425 16.9749 44.3425 17.0794 44.3076 17.1722C44.1916 17.5204 43.8086 17.9498 43.1471 17.9498Z" fill="white"/>
<path d="M50.8086 12.646L49.5552 16.3597C49.5204 16.4526 49.4972 16.5454 49.4624 16.6383C49.4275 16.5454 49.3927 16.4526 49.3695 16.3713L48.0001 12.6344H46.1084L48.4759 18.5764L48.4875 18.588C48.5223 18.6692 48.5339 18.704 48.5455 18.7272C48.5339 18.7621 48.5107 18.8201 48.4875 18.8549C48.2786 19.2959 47.9769 19.7021 47.6751 19.9458L47.6635 19.9574C47.3154 20.2476 46.9672 20.3868 46.8279 20.4216L46.5262 20.5145L46.9672 22L47.2573 21.9535C47.4314 21.9187 48.0465 21.7795 48.7428 21.1876C49.59 20.4448 50.1471 19.2611 50.8782 17.323L52.6539 12.646H50.8086Z" fill="white"/>
<path d="M13.1592 12.7737C14.2733 11.6364 16.165 10.9516 18.2191 10.9516C19.0199 10.9516 19.7975 11.0561 20.5402 11.2534L20.5982 11.265L21.9097 10.8704L21.3178 10.6499C20.1921 10.2205 18.9039 10 17.5692 10C15.6427 10 13.8323 10.4642 12.4977 11.3114L12.3584 11.4043L12.9155 13.029L13.1592 12.7737Z" fill="#FF0000"/>
</svg>
