<svg width="111" height="32" viewBox="0 0 111 32" fill="none" xmlns="http://www.w3.org/2000/svg">
<g clip-path="url(#clip0_8336_23873)">
<path fill-rule="evenodd" clip-rule="evenodd" d="M104.741 24L101.376 19.0398L103.999 15.7257L110.033 24H104.741ZM101.492 12.6171L104.695 8H109.662L103.999 15.7257L101.492 12.6171ZM100.01 19.0398L96.6924 24H91.4475L97.3654 15.9085L91.7024 8H96.8776L100.127 12.6171L102.633 15.7257L100.01 19.0398ZM85.2253 8V24H81.4424L74.2712 15.4742V24H69.7689V8H73.5519L80.7231 16.5258V8H85.2253ZM56.4222 17.5543L54.3333 12.4343L52.2447 17.5543H56.4222ZM57.7682 20.8914H50.8986L49.6224 24H44.9341L52.1053 8H56.631L63.8255 24H59.0445L57.7682 20.8914ZM32.8641 17.5543L30.7751 12.4343L28.6864 17.5543H32.8641ZM34.21 20.8914H27.3405L26.0641 24H21.3759L28.5471 8H33.0726L40.2672 24H35.4863L34.21 20.8914ZM11.6498 19.1084C11.6498 18.0112 10.8144 17.4857 9.23616 17.4857H5.38353V20.7315H9.23616C10.8144 20.7315 11.6498 20.2056 11.6498 19.1084ZM5.38353 11.2685V14.3541H8.53977C10.0718 14.3541 10.8608 13.8285 10.8608 12.8C10.8608 11.7941 10.0718 11.2685 8.53977 11.2685H5.38353ZM16.2913 19.6113C16.2913 22.3772 13.9704 24 9.60746 24H4.77975C2.60107 24 0.834961 22.2605 0.834961 20.1148V8H9.14311C13.4137 8 15.5023 9.71398 15.5023 12.1828C15.5023 13.7143 14.713 14.9487 13.3207 15.6571C15.154 16.2969 16.2913 17.6686 16.2913 19.6113Z" fill="url(#paint0_linear_8336_23873)"/>
</g>
<defs>
<linearGradient id="paint0_linear_8336_23873" x1="0.834961" y1="24" x2="110.033" y2="24" gradientUnits="userSpaceOnUse">
<stop stop-color="#003EDD"/>
<stop offset="1" stop-color="#53C4FF"/>
</linearGradient>
<clipPath id="clip0_8336_23873">
<rect width="109.198" height="16" fill="white" transform="translate(0.834961 8)"/>
</clipPath>
</defs>
</svg>
