<svg width="56" height="12" viewBox="0 0 56 12" fill="none" xmlns="http://www.w3.org/2000/svg">
<g clip-path="url(#clip0_7283_26220)">
<path fill-rule="evenodd" clip-rule="evenodd" d="M52.6689 10L50.9866 7.51989L52.2976 5.86284L55.3148 10H52.6689ZM51.0443 4.30856L52.646 2H55.1291L52.2976 5.86284L51.0443 4.30856ZM50.3035 7.51989L48.6446 10H46.0221L48.981 5.95427L46.1495 2H48.7372L50.3617 4.30856L51.615 5.86284L50.3035 7.51989ZM42.911 2V10H41.0196L37.4339 5.73711V10H35.1828V2H37.0743L40.6599 6.26289V2H42.911ZM28.5094 6.77716L27.465 4.21714L26.4207 6.77716H28.5094ZM29.1824 8.44572H25.7477L25.1095 10H22.7654L26.351 2H28.6138L32.2111 10H29.8206L29.1824 8.44572ZM16.7304 6.77716L15.6859 4.21714L14.6416 6.77716H16.7304ZM17.4033 8.44572H13.9686L13.3304 10H10.9863L14.5719 2H16.8347L20.432 10H18.0415L17.4033 8.44572ZM6.12324 7.5542C6.12324 7.00561 5.70555 6.74285 4.91642 6.74285H2.99011V8.36576H4.91642C5.70555 8.36576 6.12324 8.10278 6.12324 7.5542ZM2.99011 3.63424V5.17706H4.56823C5.33424 5.17706 5.72874 4.91426 5.72874 4.39998C5.72874 3.89705 5.33424 3.63424 4.56823 3.63424H2.99011ZM8.444 7.80567C8.444 9.18861 7.28353 10 5.10207 10H2.68822C1.59887 10 0.71582 9.13024 0.71582 8.05739V2H4.8699C7.00519 2 8.04951 2.85699 8.04951 4.0914C8.04951 4.85714 7.65483 5.47435 6.95871 5.82853C7.87532 6.14845 8.444 6.83428 8.444 7.80567Z" fill="url(#paint0_linear_7283_26220)"/>
</g>
<defs>
<linearGradient id="paint0_linear_7283_26220" x1="0.71582" y1="10" x2="55.3148" y2="10" gradientUnits="userSpaceOnUse">
<stop stop-color="#003EDD"/>
<stop offset="1" stop-color="#53C4FF"/>
</linearGradient>
<clipPath id="clip0_7283_26220">
<rect width="54.5989" height="8" fill="white" transform="translate(0.71582 2)"/>
</clipPath>
</defs>
</svg>
