<svg width="55" height="12" viewBox="0 0 55 12" fill="none" xmlns="http://www.w3.org/2000/svg">
<g clip-path="url(#clip0_7283_26220)">
<path fill-rule="evenodd" clip-rule="evenodd" d="M52.3076 10L50.6252 7.51989L51.9363 5.86284L54.9534 10H52.3076ZM50.683 4.30856L52.2846 2H54.7678L51.9363 5.86284L50.683 4.30856ZM49.9422 7.51989L48.2832 10H45.6608L48.6197 5.95427L45.7882 2H48.3758L50.0004 4.30856L51.2536 5.86284L49.9422 7.51989ZM42.5497 2V10H40.6582L37.0726 5.73711V10H34.8215V2H36.713L40.2986 6.26289V2H42.5497ZM28.1481 6.77716L27.1037 4.21714L26.0593 6.77716H28.1481ZM28.8211 8.44572H25.3863L24.7482 10H22.4041L25.9897 2H28.2525L31.8498 10H29.4593L28.8211 8.44572ZM16.369 6.77716L15.3246 4.21714L14.2802 6.77716H16.369ZM17.042 8.44572H13.6073L12.9691 10H10.6249L14.2106 2H16.4733L20.0706 10H17.6802L17.042 8.44572ZM5.76191 7.5542C5.76191 7.00561 5.34422 6.74285 4.55509 6.74285H2.62878V8.36576H4.55509C5.34422 8.36576 5.76191 8.10278 5.76191 7.5542ZM2.62878 3.63424V5.17706H4.2069C4.97292 5.17706 5.36741 4.91426 5.36741 4.39998C5.36741 3.89705 4.97292 3.63424 4.2069 3.63424H2.62878ZM8.08267 7.80567C8.08267 9.18861 6.9222 10 4.74074 10H2.32689C1.23755 10 0.354492 9.13024 0.354492 8.05739V2H4.50857C6.64386 2 7.68818 2.85699 7.68818 4.0914C7.68818 4.85714 7.29351 5.47435 6.59738 5.82853C7.51399 6.14845 8.08267 6.83428 8.08267 7.80567Z" fill="url(#paint0_linear_7283_26220)"/>
</g>
<defs>
<linearGradient id="paint0_linear_7283_26220" x1="0.354492" y1="10" x2="54.9534" y2="10" gradientUnits="userSpaceOnUse">
<stop stop-color="#003EDD"/>
<stop offset="1" stop-color="#53C4FF"/>
</linearGradient>
<clipPath id="clip0_7283_26220">
<rect width="54.5989" height="8" fill="white" transform="translate(0.354492 2)"/>
</clipPath>
</defs>
</svg>
