<svg width="42" height="32" viewBox="0 0 42 32" fill="none" xmlns="http://www.w3.org/2000/svg">
<g clip-path="url(#clip0_8338_23710)">
<path d="M2.23496 2H40.1047C40.476 2 40.8321 2.1475 41.0947 2.41005C41.3572 2.6726 41.5047 3.0287 41.5047 3.4V28.6C41.5047 28.9713 41.3572 29.3274 41.0947 29.5899C40.8321 29.8525 40.476 30 40.1047 30H2.23496C1.86366 30 1.50756 29.8525 1.24501 29.5899C0.98246 29.3274 0.834961 28.9713 0.834961 28.6V3.4C0.834961 3.0287 0.98246 2.6726 1.24501 2.41005C1.50756 2.1475 1.86366 2 2.23496 2V2Z" fill="white"/>
<path d="M4.45605 26.296V21.4675H5.94598C7.02894 21.4675 7.72562 21.8745 7.72562 22.716C7.72562 23.192 7.50489 23.5231 7.19449 23.7162C7.64283 23.9231 7.90495 24.3232 7.90495 24.8681C7.90495 25.8407 7.19449 26.296 6.09084 26.296L4.45605 26.296ZM5.41485 23.4748H6.12533C6.55988 23.4748 6.74614 23.2609 6.74614 22.8678C6.74614 22.447 6.40813 22.3091 5.95287 22.3091H5.41485V23.4748ZM5.41485 25.4544H6.00805C6.58748 25.4544 6.92547 25.3096 6.92547 24.8544C6.92547 24.406 6.63577 24.2198 6.09084 24.2198H5.41485V25.4544ZM9.76431 26.3788C8.8193 26.3788 8.34334 25.9166 8.34334 25.2958C8.34334 24.6129 8.90208 24.2128 9.72981 24.2059C9.9355 24.2097 10.1407 24.2281 10.3437 24.2611V24.0956C10.3437 23.6748 10.1023 23.4748 9.64014 23.4748C9.32881 23.4709 9.01965 23.5271 8.72962 23.6403L8.55718 22.8954C8.85379 22.7712 9.32974 22.6884 9.75051 22.6884C10.7645 22.6884 11.268 23.2265 11.268 24.1577V26.0753C10.9852 26.2201 10.4541 26.3788 9.76431 26.3788V26.3788ZM10.3437 25.5993V24.8612C10.1829 24.8255 10.0187 24.807 9.85398 24.806C9.53667 24.806 9.28836 24.9302 9.28836 25.2544C9.28836 25.5441 9.49529 25.6959 9.86087 25.6959C10.0271 25.7013 10.1924 25.6683 10.3437 25.5993ZM11.9382 26.296V22.9919C12.4339 22.7928 12.9629 22.6898 13.4971 22.6884C14.5042 22.6884 15.0836 23.1851 15.0836 24.1025V26.296H14.1317V24.1715C14.1317 23.6955 13.911 23.4748 13.4902 23.4748C13.2813 23.4718 13.0742 23.5142 12.8832 23.599V26.296L11.9382 26.296ZM18.4101 22.8954L18.2308 23.6472C17.9844 23.5405 17.7198 23.4819 17.4513 23.4748C16.8926 23.4748 16.5891 23.868 16.5891 24.5164C16.5891 25.2268 16.9064 25.5924 17.4996 25.5924C17.7644 25.5852 18.0249 25.5242 18.2653 25.4131L18.417 26.1787C18.1047 26.3177 17.7655 26.386 17.4237 26.3788C16.2787 26.3788 15.6165 25.6683 15.6165 24.5439C15.6165 23.4265 16.2718 22.6884 17.3686 22.6884C17.7261 22.6867 18.0804 22.7571 18.4101 22.8954H18.4101ZM20.4665 26.3788C19.4043 26.3788 18.7421 25.6407 18.7421 24.5301C18.7421 23.4265 19.4043 22.6884 20.4665 22.6884C21.5357 22.6884 22.1841 23.4265 22.1841 24.5301C22.1841 25.6407 21.5357 26.3788 20.4665 26.3788H20.4665ZM20.4665 25.5924C20.9563 25.5924 21.2115 25.1854 21.2115 24.5301C21.2115 23.8817 20.9563 23.4748 20.4665 23.4748C19.9837 23.4748 19.7147 23.8817 19.7147 24.5301C19.7147 25.1854 19.9837 25.5924 20.4665 25.5924H20.4665ZM22.7349 26.296V22.9919C23.2306 22.7928 23.7597 22.6898 24.2938 22.6884C25.3009 22.6884 25.8803 23.1851 25.8803 24.1025V26.296H24.9284V24.1715C24.9284 23.6955 24.7077 23.4748 24.2869 23.4748C24.078 23.4718 23.8709 23.5142 23.6799 23.599V26.296L22.7349 26.296ZM28.0271 26.3788C27.2063 26.3788 26.7855 25.9304 26.7855 25.0199V23.53H26.3164V22.7712H26.7855V22.0055L27.7374 21.9573V22.7712H28.503V23.53H27.7374V25.0061C27.7374 25.4062 27.9029 25.5924 28.2133 25.5924C28.3363 25.5921 28.4589 25.5782 28.5789 25.551L28.6272 26.3167C28.4302 26.3603 28.2288 26.3811 28.0271 26.3788H28.0271ZM30.4297 26.3788C29.4847 26.3788 29.0088 25.9166 29.0088 25.2958C29.0088 24.6129 29.5675 24.2128 30.3953 24.2059C30.6009 24.2097 30.8061 24.2281 31.0092 24.2611V24.0956C31.0092 23.6748 30.7677 23.4748 30.3056 23.4748C29.9942 23.4709 29.6851 23.5271 29.3951 23.6403L29.2226 22.8954C29.5192 22.7712 29.9952 22.6884 30.4159 22.6884C31.4299 22.6884 31.9335 23.2265 31.9335 24.1577V26.0753C31.6506 26.2201 31.1195 26.3788 30.4297 26.3788H30.4297ZM31.0092 25.5993V24.8612C30.8483 24.8255 30.6842 24.807 30.5194 24.806C30.2021 24.806 29.9538 24.9302 29.9538 25.2544C29.9538 25.5441 30.1607 25.6959 30.5263 25.6959C30.6925 25.7013 30.8578 25.6683 31.0091 25.5993H31.0092ZM35.1902 22.8954L35.0109 23.6472C34.7645 23.5405 34.4999 23.4819 34.2314 23.4748C33.6727 23.4748 33.3692 23.868 33.3692 24.5164C33.3692 25.2268 33.6865 25.5924 34.2797 25.5924C34.5445 25.5852 34.805 25.5242 35.0454 25.4131L35.1971 26.1787C34.8848 26.3177 34.5456 26.386 34.2039 26.3788C33.0588 26.3788 32.3966 25.6683 32.3966 24.5439C32.3966 23.4265 33.0519 22.6884 34.1487 22.6884C34.5062 22.6867 34.8605 22.7571 35.1902 22.8954H35.1902ZM37.2831 26.3788C36.4623 26.3788 36.0415 25.9304 36.0415 25.0199V23.53H35.5724V22.7712H36.0415V22.0055L36.9934 21.9573V22.7712H37.759V23.53H36.9934V25.0061C36.9934 25.4062 37.1589 25.5924 37.4693 25.5924C37.5923 25.5921 37.7149 25.5782 37.8349 25.551L37.8832 26.3167C37.6862 26.3603 37.4848 26.3811 37.2831 26.3788H37.2831Z" fill="#1E3764"/>
<path d="M11.0957 19.0531C16.1327 19.0531 18.6511 15.6951 21.1696 12.3372H4.45605V19.0531H11.0957Z" fill="url(#paint0_linear_8338_23710)"/>
<path d="M31.2448 5.62134C26.2078 5.62134 23.6894 8.97931 21.1709 12.3373H37.8845V5.62134H31.2448Z" fill="url(#paint1_linear_8338_23710)"/>
</g>
<defs>
<linearGradient id="paint0_linear_8338_23710" x1="7.83668" y1="16.0052" x2="20.0634" y2="11.4638" gradientUnits="userSpaceOnUse">
<stop stop-color="#005AB9"/>
<stop offset="1" stop-color="#1E3764"/>
</linearGradient>
<linearGradient id="paint1_linear_8338_23710" x1="22.1829" y1="12.9198" x2="35.1651" y2="8.49055" gradientUnits="userSpaceOnUse">
<stop stop-color="#FBA900"/>
<stop offset="1" stop-color="#FFD800"/>
</linearGradient>
<clipPath id="clip0_8338_23710">
<rect width="40.6698" height="28" fill="white" transform="translate(0.834961 2)"/>
</clipPath>
</defs>
</svg>
