<svg width="22" height="14" viewBox="0 0 22 14" fill="none" xmlns="http://www.w3.org/2000/svg">
<g clip-path="url(#clip0_7283_26221)">
<path d="M1.65312 0H20.588C20.7737 0 20.9517 0.0737495 21.083 0.205025C21.2143 0.3363 21.288 0.514348 21.288 0.699999V13.3C21.288 13.4857 21.2143 13.6637 21.083 13.795C20.9517 13.9262 20.7737 14 20.588 14H1.65312C1.46747 14 1.28943 13.9262 1.15815 13.795C1.02687 13.6637 0.953125 13.4857 0.953125 13.3V0.7C0.953125 0.514349 1.02687 0.336301 1.15815 0.205025C1.28943 0.0737499 1.46747 8.80026e-08 1.65312 0Z" fill="white"/>
<path d="M2.76367 12.148V9.73373H3.50864C4.05011 9.73373 4.39845 9.93722 4.39845 10.358C4.39845 10.596 4.28809 10.7615 4.13289 10.8581C4.35706 10.9615 4.48812 11.1616 4.48812 11.434C4.48812 11.9203 4.13289 12.148 3.58106 12.148L2.76367 12.148ZM3.24307 10.7374H3.59831C3.81558 10.7374 3.90871 10.6304 3.90871 10.4339C3.90871 10.2235 3.73971 10.1545 3.51208 10.1545H3.24307V10.7374ZM3.24307 11.7272H3.53967C3.82938 11.7272 3.99838 11.6548 3.99838 11.4271C3.99838 11.203 3.85353 11.1098 3.58106 11.1098H3.24307V11.7272ZM5.4178 12.1893C4.94529 12.1893 4.70732 11.9583 4.70732 11.6479C4.70732 11.3064 4.98668 11.1064 5.40055 11.1029C5.50339 11.1048 5.60597 11.114 5.7075 11.1305V11.0478C5.7075 10.8374 5.58679 10.7374 5.35571 10.7374C5.20005 10.7354 5.04547 10.7635 4.90046 10.8201L4.81424 10.4477C4.96254 10.3856 5.20051 10.3442 5.4109 10.3442C5.91788 10.3442 6.16965 10.6132 6.16965 11.0788V12.0376C6.02825 12.11 5.76268 12.1893 5.4178 12.1893ZM5.7075 11.7996V11.4306C5.62709 11.4127 5.54501 11.4035 5.46263 11.403C5.30398 11.403 5.17982 11.4651 5.17982 11.6272C5.17982 11.772 5.28329 11.8479 5.46608 11.8479C5.5492 11.8506 5.63182 11.8341 5.7075 11.7996ZM6.50474 12.148V10.4959C6.75259 10.3964 7.01711 10.3449 7.28419 10.3442C7.78773 10.3442 8.07744 10.5925 8.07744 11.0512V12.148H7.60149V11.0857C7.60149 10.8477 7.49112 10.7374 7.28074 10.7374C7.17627 10.7359 7.07273 10.7571 6.97723 10.7994V12.148L6.50474 12.148ZM9.74071 10.4477L9.65104 10.8236C9.52783 10.7702 9.39554 10.7409 9.26131 10.7374C8.98196 10.7374 8.8302 10.9339 8.8302 11.2582C8.8302 11.6134 8.98885 11.7962 9.28546 11.7962C9.41783 11.7926 9.54808 11.762 9.66828 11.7065L9.74416 12.0893C9.58799 12.1588 9.41841 12.193 9.24751 12.1893C8.675 12.1893 8.3439 11.8341 8.3439 11.2719C8.3439 10.7132 8.67155 10.3442 9.21993 10.3442C9.39872 10.3433 9.57584 10.3785 9.74071 10.4477H9.74071ZM10.7689 12.1893C10.2378 12.1893 9.90669 11.8203 9.90669 11.265C9.90669 10.7132 10.2378 10.3442 10.7689 10.3442C11.3035 10.3442 11.6277 10.7132 11.6277 11.265C11.6277 11.8203 11.3035 12.1893 10.7689 12.1893H10.7689ZM10.7689 11.7962C11.0138 11.7962 11.1414 11.5927 11.1414 11.265C11.1414 10.9408 11.0138 10.7374 10.7689 10.7374C10.5275 10.7374 10.393 10.9408 10.393 11.265C10.393 11.5927 10.5275 11.7962 10.7689 11.7962H10.7689ZM11.9031 12.148V10.4959C12.151 10.3964 12.4155 10.3449 12.6826 10.3442C13.1861 10.3442 13.4758 10.5925 13.4758 11.0512V12.148H12.9999V11.0857C12.9999 10.8477 12.8895 10.7374 12.6791 10.7374C12.5746 10.7359 12.4711 10.7571 12.3756 10.7994V12.148L11.9031 12.148ZM14.5492 12.1893C14.1388 12.1893 13.9284 11.9652 13.9284 11.5099V10.765H13.6939V10.3856H13.9284V10.0027L14.4043 9.9786V10.3856H14.7872V10.765H14.4043V11.503C14.4043 11.7031 14.4871 11.7962 14.6423 11.7962C14.7038 11.796 14.7651 11.7891 14.8251 11.7755L14.8492 12.1583C14.7507 12.1801 14.6501 12.1905 14.5492 12.1893H14.5492ZM15.7505 12.1893C15.278 12.1893 15.04 11.9583 15.04 11.6479C15.04 11.3064 15.3194 11.1064 15.7333 11.1029C15.8361 11.1048 15.9387 11.114 16.0402 11.1305V11.0478C16.0402 10.8374 15.9195 10.7374 15.6884 10.7374C15.5328 10.7354 15.3782 10.7635 15.2332 10.8201L15.147 10.4477C15.2953 10.3856 15.5332 10.3442 15.7436 10.3442C16.2506 10.3442 16.5024 10.6132 16.5024 11.0788V12.0376C16.361 12.11 16.0954 12.1893 15.7505 12.1893H15.7505ZM16.0402 11.7996V11.4306C15.9598 11.4127 15.8777 11.4035 15.7953 11.403C15.6367 11.403 15.5125 11.4651 15.5125 11.6272C15.5125 11.772 15.616 11.8479 15.7988 11.8479C15.8819 11.8506 15.9645 11.8341 16.0402 11.7996H16.0402ZM18.1308 10.4477L18.0411 10.8236C17.9179 10.7702 17.7856 10.7409 17.6514 10.7374C17.372 10.7374 17.2203 10.9339 17.2203 11.2582C17.2203 11.6134 17.3789 11.7962 17.6755 11.7962C17.8079 11.7926 17.9381 11.762 18.0583 11.7065L18.1342 12.0893C17.9781 12.1588 17.8085 12.193 17.6376 12.1893C17.0651 12.1893 16.734 11.8341 16.734 11.2719C16.734 10.7132 17.0616 10.3442 17.61 10.3442C17.7888 10.3433 17.9659 10.3785 18.1308 10.4477H18.1308ZM19.1772 12.1893C18.7668 12.1893 18.5564 11.9652 18.5564 11.5099V10.765H18.3219V10.3856H18.5564V10.0027L19.0323 9.9786V10.3856H19.4152V10.765H19.0323V11.503C19.0323 11.7031 19.1151 11.7962 19.2703 11.7962C19.3318 11.796 19.3931 11.7891 19.4531 11.7755L19.4772 12.1583C19.3787 12.1801 19.2781 12.1905 19.1772 12.1893H19.1772Z" fill="#1E3764"/>
<path d="M6.08351 8.52661C8.60198 8.52661 9.86122 6.84763 11.1205 5.16864H2.76367V8.52661H6.08351Z" fill="url(#paint0_linear_7283_26221)"/>
<path d="M16.158 1.81067C13.6396 1.81067 12.3803 3.48966 11.1211 5.16864H19.4779V1.81067H16.158Z" fill="url(#paint1_linear_7283_26221)"/>
</g>
<defs>
<linearGradient id="paint0_linear_7283_26221" x1="4.45399" y1="7.00264" x2="10.5673" y2="4.73198" gradientUnits="userSpaceOnUse">
<stop stop-color="#005AB9"/>
<stop offset="1" stop-color="#1E3764"/>
</linearGradient>
<linearGradient id="paint1_linear_7283_26221" x1="11.6271" y1="5.45989" x2="18.1182" y2="3.24528" gradientUnits="userSpaceOnUse">
<stop stop-color="#FBA900"/>
<stop offset="1" stop-color="#FFD800"/>
</linearGradient>
<clipPath id="clip0_7283_26221">
<rect width="20.3349" height="14" fill="white" transform="translate(0.953125)"/>
</clipPath>
</defs>
</svg>
