<svg width="24" height="16" viewBox="0 0 24 16" fill="none" xmlns="http://www.w3.org/2000/svg">
<g clip-path="url(#clip0_7283_26221)">
<path d="M2.69316 1H21.628C21.8137 1 21.9917 1.07375 22.123 1.20502C22.2543 1.3363 22.328 1.51435 22.328 1.7V14.3C22.328 14.4857 22.2543 14.6637 22.123 14.795C21.9917 14.9262 21.8137 15 21.628 15H2.69316C2.50751 15 2.32946 14.9262 2.19819 14.795C2.06691 14.6637 1.99316 14.4857 1.99316 14.3V1.7C1.99316 1.51435 2.06691 1.3363 2.19819 1.20503C2.32946 1.07375 2.50751 1 2.69316 1Z" fill="white"/>
<path d="M3.80371 13.148V10.7337H4.54867C5.09015 10.7337 5.43849 10.9372 5.43849 11.358C5.43849 11.596 5.32813 11.7615 5.17293 11.8581C5.3971 11.9615 5.52816 12.1616 5.52816 12.434C5.52816 12.9203 5.17293 13.148 4.6211 13.148L3.80371 13.148ZM4.28311 11.7374H4.63835C4.85562 11.7374 4.94875 11.6304 4.94875 11.4339C4.94875 11.2235 4.77975 11.1545 4.55212 11.1545H4.28311V11.7374ZM4.28311 12.7272H4.57971C4.86942 12.7272 5.03842 12.6548 5.03842 12.4271C5.03842 12.203 4.89357 12.1098 4.6211 12.1098H4.28311V12.7272ZM6.45784 13.1893C5.98533 13.1893 5.74736 12.9583 5.74736 12.6479C5.74736 12.3064 6.02672 12.1064 6.44059 12.1029C6.54343 12.1048 6.64601 12.114 6.74754 12.1305V12.0478C6.74754 11.8374 6.62683 11.7374 6.39575 11.7374C6.24009 11.7354 6.08551 11.7635 5.94049 11.8201L5.85427 11.4477C6.00258 11.3856 6.24055 11.3442 6.45094 11.3442C6.95792 11.3442 7.20969 11.6132 7.20969 12.0788V13.0376C7.06829 13.11 6.80272 13.1893 6.45784 13.1893ZM6.74754 12.7996V12.4306C6.66713 12.4127 6.58504 12.4035 6.50267 12.403C6.34402 12.403 6.21986 12.4651 6.21986 12.6272C6.21986 12.772 6.32333 12.8479 6.50612 12.8479C6.58924 12.8506 6.67186 12.8341 6.74754 12.7996ZM7.54478 13.148V11.4959C7.79262 11.3964 8.05714 11.3449 8.32423 11.3442C8.82777 11.3442 9.11748 11.5925 9.11748 12.0512V13.148H8.64153V12.0857C8.64153 11.8477 8.53116 11.7374 8.32078 11.7374C8.21631 11.7359 8.11277 11.7571 8.01727 11.7994V13.148L7.54478 13.148ZM10.7808 11.4477L10.6911 11.8236C10.5679 11.7702 10.4356 11.7409 10.3014 11.7374C10.022 11.7374 9.87024 11.9339 9.87024 12.2582C9.87024 12.6134 10.0289 12.7962 10.3255 12.7962C10.4579 12.7926 10.5881 12.762 10.7083 12.7065L10.7842 13.0893C10.628 13.1588 10.4584 13.193 10.2876 13.1893C9.71504 13.1893 9.38394 12.8341 9.38394 12.2719C9.38394 11.7132 9.71159 11.3442 10.26 11.3442C10.4388 11.3433 10.6159 11.3785 10.7808 11.4477H10.7808ZM11.809 13.1893C11.2778 13.1893 10.9467 12.8203 10.9467 12.265C10.9467 11.7132 11.2778 11.3442 11.809 11.3442C12.3435 11.3442 12.6677 11.7132 12.6677 12.265C12.6677 12.8203 12.3435 13.1893 11.809 13.1893H11.809ZM11.809 12.7962C12.0538 12.7962 12.1814 12.5927 12.1814 12.265C12.1814 11.9408 12.0538 11.7374 11.809 11.7374C11.5675 11.7374 11.433 11.9408 11.433 12.265C11.433 12.5927 11.5675 12.7962 11.809 12.7962H11.809ZM12.9432 13.148V11.4959C13.191 11.3964 13.4555 11.3449 13.7226 11.3442C14.2261 11.3442 14.5159 11.5925 14.5159 12.0512V13.148H14.0399V12.0857C14.0399 11.8477 13.9295 11.7374 13.7192 11.7374C13.6147 11.7359 13.5111 11.7571 13.4156 11.7994V13.148L12.9432 13.148ZM15.5892 13.1893C15.1788 13.1893 14.9684 12.9652 14.9684 12.5099V11.765H14.7339V11.3856H14.9684V11.0027L15.4444 10.9786V11.3856H15.8272V11.765H15.4444V12.503C15.4444 12.7031 15.5272 12.7962 15.6823 12.7962C15.7439 12.796 15.8052 12.7891 15.8651 12.7755L15.8893 13.1583C15.7908 13.1801 15.6901 13.1905 15.5892 13.1893H15.5892ZM16.7906 13.1893C16.3181 13.1893 16.0801 12.9583 16.0801 12.6479C16.0801 12.3064 16.3594 12.1064 16.7733 12.1029C16.8762 12.1048 16.9787 12.114 17.0803 12.1305V12.0478C17.0803 11.8374 16.9595 11.7374 16.7285 11.7374C16.5728 11.7354 16.4182 11.7635 16.2732 11.8201L16.187 11.4477C16.3353 11.3856 16.5733 11.3442 16.7837 11.3442C17.2906 11.3442 17.5424 11.6132 17.5424 12.0788V13.0376C17.401 13.11 17.1354 13.1893 16.7906 13.1893H16.7906ZM17.0803 12.7996V12.4306C16.9998 12.4127 16.9178 12.4035 16.8354 12.403C16.6767 12.403 16.5526 12.4651 16.5526 12.6272C16.5526 12.772 16.656 12.8479 16.8388 12.8479C16.922 12.8506 17.0046 12.8341 17.0803 12.7996H17.0803ZM19.1708 11.4477L19.0811 11.8236C18.9579 11.7702 18.8256 11.7409 18.6914 11.7374C18.412 11.7374 18.2603 11.9339 18.2603 12.2582C18.2603 12.6134 18.4189 12.7962 18.7156 12.7962C18.8479 12.7926 18.9782 12.762 19.0984 12.7065L19.1743 13.0893C19.0181 13.1588 18.8485 13.193 18.6776 13.1893C18.1051 13.1893 17.774 12.8341 17.774 12.2719C17.774 11.7132 18.1016 11.3442 18.65 11.3442C18.8288 11.3433 19.0059 11.3785 19.1708 11.4477H19.1708ZM20.2172 13.1893C19.8068 13.1893 19.5964 12.9652 19.5964 12.5099V11.765H19.3619V11.3856H19.5964V11.0027L20.0724 10.9786V11.3856H20.4552V11.765H20.0724V12.503C20.0724 12.7031 20.1551 12.7962 20.3103 12.7962C20.3718 12.796 20.4332 12.7891 20.4931 12.7755L20.5173 13.1583C20.4188 13.1801 20.3181 13.1905 20.2172 13.1893H20.2172Z" fill="#1E3764"/>
<path d="M7.12355 9.52661C9.64202 9.52661 10.9013 7.84763 12.1605 6.16864H3.80371V9.52661H7.12355Z" fill="url(#paint0_linear_7283_26221)"/>
<path d="M17.1981 2.81067C14.6796 2.81067 13.4204 4.48966 12.1611 6.16864H20.5179V2.81067H17.1981Z" fill="url(#paint1_linear_7283_26221)"/>
</g>
<rect x="1.49316" y="0.5" width="21.3349" height="15" stroke="#F4F4F4"/>
<defs>
<linearGradient id="paint0_linear_7283_26221" x1="5.49402" y1="8.00264" x2="11.6074" y2="5.73198" gradientUnits="userSpaceOnUse">
<stop stop-color="#005AB9"/>
<stop offset="1" stop-color="#1E3764"/>
</linearGradient>
<linearGradient id="paint1_linear_7283_26221" x1="12.6671" y1="6.45989" x2="19.1582" y2="4.24528" gradientUnits="userSpaceOnUse">
<stop stop-color="#FBA900"/>
<stop offset="1" stop-color="#FFD800"/>
</linearGradient>
<clipPath id="clip0_7283_26221">
<rect x="1.99316" y="1" width="20.3349" height="14" fill="white"/>
</clipPath>
</defs>
</svg>
