<svg width="57" height="32" viewBox="0 0 57 32" fill="none" xmlns="http://www.w3.org/2000/svg">
<rect x="1.83496" y="3.18176" width="53.3565" height="25.6364" rx="1" fill="white"/>
<path d="M6.83496 21.8181H11.5452C14.21 21.8181 15.5168 20.4602 15.5168 18.6477C15.5168 16.8863 14.2668 15.8522 13.0281 15.7897V15.6761C14.1645 15.409 15.0622 14.6136 15.0622 13.1988C15.0622 11.4659 13.8122 10.1818 11.2895 10.1818H6.83496V21.8181ZM8.94292 20.0568V16.6477H11.2668C12.5679 16.6477 13.3747 17.4431 13.3747 18.4829C13.3747 19.409 12.7384 20.0568 11.21 20.0568H8.94292ZM8.94292 15.1306V11.9204H11.0736C12.3122 11.9204 12.9543 12.5738 12.9543 13.4715C12.9543 14.4943 12.1247 15.1306 11.0281 15.1306H8.94292Z" fill="black"/>
<path d="M18.8449 21.8181L19.8051 18.9488H24.1801L25.146 21.8181H27.396L23.2938 10.1818H20.6915L16.5949 21.8181H18.8449ZM20.3733 17.2556L21.9472 12.5681H22.0381L23.6119 17.2556H20.3733Z" fill="black"/>
<path d="M38.4912 10.1818H36.3946V18.1136H36.2923L30.8151 10.1818H28.9287V21.8181H31.0367V13.892H31.1333L36.6162 21.8181H38.4912V10.1818Z" fill="black"/>
<path d="M40.7881 21.8181H42.896V18.3522L44.1858 16.8295L47.6574 21.8181H50.1915L45.6517 15.4034L50.1517 10.1818H47.5779L43.0381 15.5284H42.896V10.1818H40.7881V21.8181Z" fill="black"/>
<rect x="1.83496" y="3.18176" width="53.3565" height="25.6364" rx="1" stroke="#F4F4F4" stroke-width="2"/>
</svg>
