<svg width="30" height="16" viewBox="0 0 30 16" fill="none" xmlns="http://www.w3.org/2000/svg">
<rect x="0.81543" y="0.590912" width="28.6783" height="14.8182" rx="1.5" fill="#FBFBFB"/>
<path d="M4.31543 10.9091H6.67054C8.00293 10.9091 8.65634 10.2301 8.65634 9.32387C8.65634 8.44318 8.03134 7.92614 7.41202 7.89489V7.83807C7.9802 7.70455 8.42907 7.30682 8.42907 6.59943C8.42907 5.73296 7.80407 5.09091 6.5427 5.09091H4.31543V10.9091ZM5.36941 10.0284V8.32387H6.53134C7.18191 8.32387 7.58532 8.72159 7.58532 9.24148C7.58532 9.70455 7.26713 10.0284 6.50293 10.0284H5.36941ZM5.36941 7.56534V5.96023H6.43475C7.05407 5.96023 7.37509 6.28693 7.37509 6.7358C7.37509 7.24716 6.96032 7.56534 6.41202 7.56534H5.36941Z" fill="black"/>
<path d="M10.3204 10.9091L10.8005 9.47443H12.988L13.471 10.9091H14.596L12.5448 5.09091H11.2437L9.1954 10.9091H10.3204ZM11.0846 8.62784L11.8715 6.28409H11.917L12.7039 8.62784H11.0846Z" fill="black"/>
<path d="M20.1436 5.09091H19.0953V9.05682H19.0441L16.3055 5.09091H15.3623V10.9091H16.4163V6.94603H16.4646L19.2061 10.9091H20.1436V5.09091Z" fill="black"/>
<path d="M21.292 10.9091H22.346V9.17614L22.9909 8.41478L24.7267 10.9091H25.9937L23.7238 7.70171L25.9738 5.09091H24.6869L22.417 7.76421H22.346V5.09091H21.292V10.9091Z" fill="black"/>
<rect x="0.81543" y="0.590912" width="28.6783" height="14.8182" rx="1.5" stroke="#F4F4F4"/>
</svg>
