<svg width="33" height="32" viewBox="0 0 33 32" fill="none" xmlns="http://www.w3.org/2000/svg">
<g clip-path="url(#clip0_8407_25423)">
<path d="M21.685 0C24.885 0 26.485 0 28.235 0.55C29.164 0.889848 30.0077 1.4283 30.7072 2.12779C31.4067 2.82729 31.9451 3.67098 32.285 4.6C32.835 6.35 32.835 7.95 32.835 11.155V20.84C32.835 24.05 32.835 25.66 32.285 27.39C31.9451 28.319 31.4067 29.1627 30.7072 29.8622C30.0077 30.5617 29.164 31.1002 28.235 31.44C26.485 32 24.885 32 21.685 32H11.985C8.77496 32 7.16496 32 5.43496 31.45C4.50594 31.1102 3.66225 30.5717 2.96276 29.8722C2.26326 29.1727 1.72481 28.329 1.38496 27.4C0.834961 25.65 0.834961 24.05 0.834961 20.845V11.15C0.834961 7.94 0.834961 6.33 1.38496 4.6C1.72481 3.67098 2.26326 2.82729 2.96276 2.12779C3.66225 1.4283 4.50594 0.889848 5.43496 0.55C7.18496 0 8.78496 0 11.985 0H21.685Z" fill="#00D632"/>
<path d="M22.0707 11.8999C22.3207 12.1499 22.7357 12.1499 22.9707 11.8999L24.2207 10.5999C24.4857 10.3499 24.4707 9.89988 24.1907 9.62988C23.2085 8.77433 22.0665 8.12177 20.8307 7.70988L21.2257 5.80988C21.3107 5.39488 21.0007 5.00488 20.5857 5.00488H18.1657C18.0145 5.00651 17.8683 5.06004 17.7518 5.15652C17.6353 5.253 17.5555 5.38658 17.5257 5.53488L17.1757 7.22488C13.9557 7.38988 11.2257 9.02488 11.2257 12.3749C11.2257 15.2749 13.4807 16.5199 15.8657 17.3749C18.1207 18.2349 19.3157 18.5549 19.3157 19.7649C19.3157 21.0099 18.1257 21.7399 16.3657 21.7399C14.7657 21.7399 13.0857 21.2049 11.7857 19.8999C11.7253 19.8394 11.6536 19.7914 11.5747 19.7587C11.4958 19.726 11.4112 19.7091 11.3257 19.7091C11.2403 19.7091 11.1557 19.726 11.0767 19.7587C10.9978 19.7914 10.9261 19.8394 10.8657 19.8999L9.51572 21.2499C9.3887 21.3773 9.31738 21.5499 9.31738 21.7299C9.31738 21.9098 9.3887 22.0824 9.51572 22.2099C10.5657 23.2449 11.8957 23.9949 13.4117 24.4099L13.0417 26.1949C12.9567 26.6099 13.2617 26.9949 13.6767 26.9999L16.1017 27.0199C16.2547 27.0206 16.4032 26.9681 16.5217 26.8714C16.6403 26.7747 16.7216 26.6399 16.7517 26.4899L17.1017 24.7949C20.9757 24.5349 23.3357 22.3999 23.3357 19.2849C23.3357 16.4149 20.9857 15.2049 18.1357 14.2199C16.5057 13.6149 15.0957 13.1999 15.0957 11.9549C15.0957 10.7449 16.4107 10.2649 17.7307 10.2649C19.4107 10.2649 21.0257 10.9599 22.0807 11.9099L22.0707 11.8999Z" fill="white"/>
</g>
<defs>
<clipPath id="clip0_8407_25423">
<rect width="32" height="32" fill="white" transform="translate(0.834961)"/>
</clipPath>
</defs>
</svg>
