<svg width="57" height="32" viewBox="0 0 57 32" fill="none" xmlns="http://www.w3.org/2000/svg">
<rect x="1.83496" y="3.02271" width="53.6207" height="25.9545" rx="1" fill="white"/>
<path d="M17.0906 14.1079C16.7327 11.5227 14.7441 10.0227 12.1645 10.0227C9.12473 10.0227 6.83496 12.2386 6.83496 16C6.83496 19.7557 9.09632 21.9773 12.1645 21.9773C14.9316 21.9773 16.7668 20.1875 17.0906 17.9659L14.9656 17.9545C14.6986 19.3182 13.585 20.0852 12.1929 20.0852C10.3066 20.0852 8.95428 18.6704 8.95428 16C8.95428 13.375 10.2952 11.9148 12.1986 11.9148C13.6134 11.9148 14.7213 12.7159 14.9656 14.1079H17.0906Z" fill="black"/>
<path d="M20.3747 21.8182L21.335 18.9488H25.71L26.6759 21.8182H28.9259L24.8236 10.1818H22.2213L18.1247 21.8182H20.3747ZM21.9031 17.2557L23.477 12.5682H23.5679L25.1418 17.2557H21.9031Z" fill="black"/>
<path d="M30.4585 21.8182H32.5665V17.5568H34.7142L36.9983 21.8182H39.3506L36.8335 17.2045C38.2029 16.6534 38.9244 15.4829 38.9244 13.9034C38.9244 11.6818 37.4926 10.1818 34.8222 10.1818H30.4585V21.8182ZM32.5665 15.8068V11.9432H34.4983C36.0722 11.9432 36.7767 12.6648 36.7767 13.9034C36.7767 15.142 36.0722 15.8068 34.5097 15.8068H32.5665Z" fill="black"/>
<path d="M44.808 21.8182C48.3534 21.8182 50.4557 19.625 50.4557 15.9886C50.4557 12.3636 48.3534 10.1818 44.8875 10.1818H40.8648V21.8182H44.808ZM42.9727 19.9943V12.0057H44.7682C47.1318 12.0057 48.3648 13.3238 48.3648 15.9886C48.3648 18.6648 47.1318 19.9943 44.7057 19.9943H42.9727Z" fill="black"/>
<rect x="1.83496" y="3.02271" width="53.6207" height="25.9545" rx="1" stroke="#F4F4F4" stroke-width="2"/>
</svg>
