<svg width="31" height="16" viewBox="0 0 31 16" fill="none" xmlns="http://www.w3.org/2000/svg">
<rect x="0.828125" y="0.511353" width="28.8104" height="14.9773" rx="1.5" fill="#FBFBFB"/>
<path d="M9.45597 7.05397C9.27699 5.76135 8.28267 5.01135 6.9929 5.01135C5.47301 5.01135 4.32812 6.11931 4.32812 7.99999C4.32812 9.87783 5.45881 10.9886 6.9929 10.9886C8.37642 10.9886 9.29403 10.0937 9.45597 8.98294L8.39347 8.97726C8.25994 9.65908 7.70313 10.0426 7.0071 10.0426C6.06392 10.0426 5.38778 9.33522 5.38778 7.99999C5.38778 6.68749 6.05824 5.95738 7.00994 5.95738C7.71733 5.95738 8.27131 6.35794 8.39347 7.05397H9.45597Z" fill="black"/>
<path d="M11.098 10.9091L11.5781 9.47442H13.7656L14.2486 10.9091H15.3736L13.3224 5.0909H12.0213L9.97301 10.9091H11.098ZM11.8622 8.62783L12.6491 6.28408H12.6946L13.4815 8.62783H11.8622Z" fill="black"/>
<path d="M16.1399 10.9091H17.1939V8.7784H18.2678L19.4098 10.9091H20.5859L19.3274 8.60226C20.0121 8.32669 20.3729 7.74147 20.3729 6.95169C20.3729 5.8409 19.657 5.0909 18.3217 5.0909H16.1399V10.9091ZM17.1939 7.9034V5.97158H18.1598C18.9467 5.97158 19.299 6.33238 19.299 6.95169C19.299 7.57101 18.9467 7.9034 18.1655 7.9034H17.1939Z" fill="black"/>
<path d="M23.3146 10.9091C25.0874 10.9091 26.1385 9.81249 26.1385 7.99431C26.1385 6.18181 25.0874 5.0909 23.3544 5.0909H21.343V10.9091H23.3146ZM22.397 9.99715V6.00283H23.2947C24.4766 6.00283 25.093 6.66192 25.093 7.99431C25.093 9.33238 24.4766 9.99715 23.2635 9.99715H22.397Z" fill="black"/>
<rect x="0.828125" y="0.511353" width="28.8104" height="14.9773" rx="1.5" stroke="#F4F4F4"/>
</svg>
