<svg width="15" height="14" viewBox="0 0 15 14" fill="none" xmlns="http://www.w3.org/2000/svg">
<g clip-path="url(#clip0_7283_26224)">
<path d="M1.06266 0H13.2121C13.7222 0 14.1361 0.413946 14.1361 0.923986V7.36301H0.138672V0.923986C0.138672 0.413946 0.552617 0 1.06266 0Z" fill="#FB0030"/>
<path d="M0.138672 7.36301H14.1361V13.076C14.1361 13.5861 13.7222 14 13.2121 14H1.06266C0.552617 14 0.138672 13.5861 0.138672 13.076V7.36301Z" fill="#005FB2"/>
<path d="M1.125 7.77743C1.19453 7.77743 1.24396 7.77743 1.29317 7.77743C2.04714 7.77743 2.80134 7.7802 3.55531 7.77581C3.9092 7.77373 4.19633 7.89847 4.38806 8.19854C4.45435 8.30249 4.51372 8.43046 4.5188 8.54988C4.53335 8.89106 4.52804 9.23363 4.51279 9.57504C4.49593 9.95203 4.05842 10.3142 3.67659 10.3135C3.12658 10.3126 2.57635 10.3161 2.02635 10.3186C1.98177 10.3186 1.93695 10.3249 1.87666 10.3292V11.7885H1.125V7.77743ZM1.88105 9.66675C1.909 9.67483 1.92332 9.68269 1.93765 9.68269C2.45254 9.68015 2.96766 9.682 3.48255 9.67068C3.67243 9.66652 3.77199 9.54779 3.77684 9.35467C3.78146 9.17034 3.77892 8.98554 3.77822 8.80121C3.77684 8.52332 3.67381 8.42006 3.39315 8.41937C2.93185 8.41798 2.47055 8.41868 2.00925 8.41937C1.96883 8.41937 1.92817 8.4263 1.88082 8.43046V9.66675H1.88105Z" fill="white"/>
<path d="M4.00328 2.44717V3.05793C3.94645 3.06163 3.90164 3.06671 3.85682 3.06671C3.27956 3.06694 2.7023 3.06463 2.12481 3.06671C1.78063 3.06786 1.69054 3.16326 1.69054 3.51138C1.69054 3.66915 1.68985 3.82692 1.69077 3.98469C1.691 4.0258 1.69608 4.06692 1.70001 4.12583H3.5265V4.76314H1.72242C1.70786 4.79294 1.69562 4.80634 1.69539 4.81974C1.69447 5.05443 1.68453 5.28959 1.69862 5.52335C1.7111 5.72802 1.83376 5.82342 2.04928 5.82365C2.64594 5.82457 3.24237 5.82365 3.83904 5.82342C3.88847 5.82342 3.9379 5.82342 4.00097 5.82342V6.44919C3.96054 6.45265 3.91989 6.45958 3.87923 6.45935C3.19802 6.45773 2.51681 6.45704 1.83584 6.45288C1.3519 6.44988 0.953892 6.06296 0.947193 5.57487C0.938646 4.94771 0.94419 4.32032 0.943728 3.69294C0.943728 3.58137 0.946269 3.46956 0.943035 3.35822C0.928713 2.87498 1.33942 2.43701 1.84184 2.43632C2.53067 2.43539 3.21974 2.43424 3.90857 2.43378C3.9349 2.43378 3.961 2.44094 4.00351 2.44694L4.00328 2.44717Z" fill="white"/>
<path d="M10.6646 3.56797H11.3308C11.335 3.61671 11.3419 3.66083 11.3419 3.70518C11.343 4.28267 11.3428 4.85993 11.3435 5.43742C11.344 5.78068 11.4225 5.86199 11.7637 5.86569C12.0139 5.86846 12.264 5.86708 12.5144 5.86661C12.5484 5.86661 12.5821 5.86176 12.6373 5.8576V3.56473C12.8741 3.54949 13.0901 3.55803 13.3174 3.5585C13.3227 3.61047 13.3303 3.6509 13.3303 3.69132C13.3289 4.69985 13.3285 5.70838 13.3241 6.71668C13.3218 7.25213 12.9311 7.63789 12.3952 7.63997C11.9217 7.64205 11.4484 7.64298 10.9748 7.64413C10.9333 7.64413 10.8917 7.64067 10.8395 7.63836C10.8141 7.46811 10.8194 7.30457 10.8446 7.14264C10.8492 7.11215 10.8986 7.07819 10.9344 7.06548C10.9799 7.04931 11.0324 7.04862 11.082 7.04862C11.4592 7.04747 11.8365 7.04885 12.2137 7.0477C12.2788 7.04747 12.3442 7.041 12.4086 7.03176C12.5193 7.01582 12.5964 6.94906 12.6168 6.8428C12.6394 6.72453 12.6396 6.60187 12.6507 6.46905C12.5844 6.46512 12.5396 6.46051 12.495 6.46004C12.1832 6.45704 11.8716 6.45057 11.5597 6.45381C11.0617 6.45912 10.6734 5.98073 10.6681 5.55061C10.6616 5.02324 10.6651 4.49588 10.6644 3.96875C10.6644 3.83916 10.6644 3.70934 10.6644 3.5682L10.6646 3.56797Z" fill="white"/>
<path d="M7.76959 8.90143H8.43024C8.43302 8.95156 8.43717 8.99268 8.4374 9.03379C8.43787 9.61498 8.43787 10.1962 8.43787 10.7774C8.43787 10.7889 8.43787 10.8005 8.43787 10.812C8.44202 11.1028 8.53558 11.2045 8.82363 11.2107C9.10059 11.2167 9.37779 11.2126 9.65499 11.2121C9.67739 11.2121 9.6998 11.2059 9.74046 11.1996V8.90097H10.4115C10.4164 8.94001 10.4249 8.97628 10.4249 9.01254C10.4254 10.0211 10.4272 11.0296 10.4237 12.0379C10.4221 12.4925 10.2043 12.7956 9.77903 12.9459C9.70812 12.9709 9.62865 12.9804 9.55289 12.9808C9.04469 12.9841 8.53673 12.9829 8.02854 12.9827C7.99897 12.9827 7.96917 12.9762 7.92505 12.9711C7.92505 12.8136 7.91997 12.6614 7.92736 12.5096C7.9306 12.4405 7.98742 12.404 8.05534 12.3976C8.11262 12.392 8.1706 12.3916 8.22835 12.3916C8.59795 12.3913 8.96754 12.392 9.3369 12.3918C9.62888 12.3918 9.74069 12.2811 9.74531 11.9882C9.74623 11.9349 9.74531 11.8815 9.74531 11.8148C9.69241 11.8094 9.64852 11.8011 9.60463 11.8011C9.29278 11.8002 8.98071 11.7914 8.66932 11.8034C8.16321 11.8228 7.7659 11.3209 7.7622 10.9194C7.7562 10.2729 7.75851 9.62607 7.75781 8.97951C7.75781 8.9571 7.76451 8.9347 7.76982 8.9012L7.76959 8.90143Z" fill="white"/>
<path d="M6.62915 9.99798C6.71139 9.68382 6.57672 9.49672 6.27342 9.49441C5.86941 9.4914 5.46539 9.49279 5.06138 9.49117C5.0205 9.49117 4.97938 9.4847 4.93133 9.48078V8.90213C4.97707 8.89797 5.01772 8.89058 5.05861 8.89081C5.52407 8.89428 5.98953 8.90768 6.45475 8.90075C6.85068 8.89474 7.25677 9.21282 7.31752 9.65056C7.33277 9.76075 7.34109 9.87255 7.34178 9.98366C7.34455 10.4415 7.34293 10.8993 7.34293 11.3572C7.34293 11.3726 7.34293 11.3879 7.34293 11.4034C7.33647 11.7025 7.23436 11.8018 6.93384 11.8018C6.38361 11.8018 5.83337 11.7974 5.28337 11.8034C4.88167 11.8078 4.59385 11.6318 4.43215 11.271C4.14456 10.63 4.64998 10.0118 5.18335 10.0081C5.62571 10.0051 6.06806 10.0051 6.51065 10.0033C6.55154 10.0033 6.59266 9.9996 6.62962 9.99775L6.62915 9.99798ZM6.64186 10.6016C6.45683 10.6016 6.28843 10.6016 6.12027 10.6016C5.86663 10.6016 5.613 10.5993 5.35937 10.6032C5.17596 10.606 5.0533 10.7155 5.04267 10.8744C5.03112 11.0467 5.13345 11.1714 5.31409 11.201C5.36306 11.2091 5.41365 11.2119 5.46332 11.2121C5.81674 11.2128 6.1704 11.2126 6.52382 11.2119C6.56124 11.2119 6.59843 11.2063 6.64186 11.2031V10.6018V10.6016Z" fill="white"/>
<path d="M6.57465 4.64835C6.57465 4.56172 6.58481 4.48411 6.57257 4.41019C6.54254 4.2284 6.43882 4.14893 6.22538 4.1457C5.90591 4.14108 5.58621 4.14362 5.26675 4.14339C5.14039 4.14339 5.01404 4.14339 4.8692 4.14339C4.84633 3.94519 4.85303 3.76086 4.86273 3.57375C4.89276 3.56636 4.91078 3.55804 4.9288 3.55804C5.43306 3.55966 5.93733 3.5622 6.44159 3.56405C6.80079 3.56544 7.17893 3.90477 7.23691 4.28037C7.24869 4.35614 7.25678 4.43352 7.25701 4.50998C7.25863 5.03365 7.25793 5.55709 7.25724 6.08076C7.25724 6.12303 7.25724 6.16599 7.24916 6.20734C7.22629 6.32631 7.15976 6.40946 7.03849 6.43926C6.9976 6.4492 6.95487 6.45636 6.91306 6.45636C6.32009 6.45613 5.72735 6.45335 5.13438 6.45335C4.68856 6.45335 4.37394 6.08284 4.30395 5.76106C4.1709 5.15007 4.6456 4.66382 5.12977 4.66336C5.56473 4.6629 5.99993 4.66151 6.43489 4.65967C6.47971 4.65967 6.52429 4.65274 6.57442 4.64858L6.57465 4.64835ZM6.57465 5.85854V5.26672C6.53099 5.26211 6.49403 5.25448 6.45684 5.25448C6.08008 5.25356 5.70356 5.25333 5.32681 5.25448C5.28107 5.25448 5.23441 5.26003 5.18982 5.27042C5.05469 5.30161 4.97615 5.39493 4.96714 5.52914C4.95721 5.67397 5.0272 5.78924 5.16234 5.8322C5.22701 5.85276 5.29747 5.86454 5.36538 5.86524C5.73821 5.86893 6.11104 5.86801 6.48387 5.86824C6.50997 5.86824 6.53584 5.8627 6.57465 5.85831V5.85854Z" fill="white"/>
<path d="M7.73205 6.4529V5.88072C7.79534 5.8761 7.85471 5.86802 7.91384 5.86779C8.35643 5.86548 8.79925 5.86571 9.24184 5.86247C9.31068 5.86201 9.37998 5.85208 9.44766 5.83914C9.56547 5.8165 9.61814 5.75598 9.62483 5.64672C9.63431 5.49334 9.5851 5.38639 9.477 5.35128C9.41601 5.33164 9.34903 5.32333 9.28458 5.32171C8.99606 5.31455 8.70732 5.31039 8.4188 5.30716C7.91962 5.30161 7.6348 4.94819 7.60154 4.50629C7.57359 4.13762 7.69417 3.82254 8.04343 3.65207C8.17602 3.58739 8.33934 3.56429 8.48949 3.56106C9.00507 3.5502 9.52112 3.5562 10.0367 3.55667C10.0665 3.55667 10.0965 3.56313 10.137 3.56775V4.13393C10.078 4.13716 10.033 4.14155 9.98773 4.14178C9.56431 4.1427 9.1409 4.14201 8.71748 4.14386C8.64472 4.14409 8.57103 4.14848 8.49919 4.16003C8.34558 4.18475 8.26889 4.28431 8.27281 4.44485C8.27651 4.60377 8.34627 4.69201 8.50727 4.7031C8.72949 4.71835 8.95333 4.71165 9.17578 4.72366C9.38621 4.73498 9.59712 4.75023 9.80571 4.77887C9.9912 4.80451 10.1106 4.93017 10.1982 5.08863C10.3723 5.40394 10.3423 6.00292 10.0004 6.29005C9.84474 6.42079 9.66387 6.45105 9.47215 6.45221C8.92954 6.45544 8.38669 6.45729 7.84385 6.45937C7.81013 6.45937 7.7764 6.45544 7.73182 6.45244L7.73205 6.4529Z" fill="white"/>
</g>
<defs>
<clipPath id="clip0_7283_26224">
<rect width="13.9975" height="14" fill="white" transform="translate(0.138672)"/>
</clipPath>
</defs>
</svg>
