<svg width="29" height="32" viewBox="0 0 29 32" fill="none" xmlns="http://www.w3.org/2000/svg">
<g clip-path="url(#clip0_8338_23889)">
<path d="M2.68293 2H26.9819C28.002 2 28.8299 2.82789 28.8299 3.84797V16.726H0.834961V3.84797C0.834961 2.82789 1.66285 2 2.68293 2Z" fill="#FB0030"/>
<path d="M0.834961 16.7261H28.8299V28.1521C28.8299 29.1722 28.002 30.0001 26.9819 30.0001H2.68293C1.66285 30.0001 0.834961 29.1722 0.834961 28.1521V16.7261V16.7261Z" fill="#005FB2"/>
<path d="M2.80762 17.5548C2.94668 17.5548 3.04554 17.5548 3.14395 17.5548C4.65189 17.5548 6.1603 17.5603 7.66824 17.5516C8.37602 17.5474 8.95027 17.7969 9.33373 18.397C9.46632 18.6049 9.58505 18.8609 9.59522 19.0997C9.62432 19.7821 9.6137 20.4672 9.5832 21.15C9.54948 21.904 8.67446 22.6284 7.91079 22.627C6.81078 22.6252 5.71032 22.6321 4.61031 22.6372C4.52115 22.6372 4.43152 22.6497 4.31094 22.6584V25.5768H2.80762V17.5548V17.5548ZM4.31972 21.3334C4.37562 21.3496 4.40426 21.3653 4.43291 21.3653C5.46269 21.3602 6.49293 21.3639 7.52272 21.3413C7.90247 21.333 8.10159 21.0955 8.11129 20.7093C8.12053 20.3406 8.11545 19.971 8.11407 19.6024C8.11129 19.0466 7.90525 18.8401 7.34392 18.8387C6.42133 18.8359 5.49873 18.8373 4.57613 18.8387C4.49528 18.8387 4.41397 18.8525 4.31926 18.8609V21.3334H4.31972Z" fill="white"/>
<path d="M8.56417 6.89447V8.11598C8.45052 8.12337 8.36089 8.13354 8.27126 8.13354C7.11674 8.134 5.96222 8.12938 4.80724 8.13354C4.11887 8.13585 3.9387 8.32665 3.9387 9.02287C3.9387 9.33841 3.93731 9.65395 3.93916 9.9695C3.93962 10.0517 3.94978 10.134 3.95764 10.2518H7.61061V11.5264H4.00245C3.97335 11.586 3.94886 11.6128 3.9484 11.6396C3.94655 12.109 3.92668 12.5793 3.95487 13.0468C3.97981 13.4562 4.22513 13.647 4.65617 13.6474C5.8495 13.6493 7.04236 13.6474 8.23569 13.647C8.33456 13.647 8.43342 13.647 8.55955 13.647V14.8985C8.4787 14.9054 8.39739 14.9193 8.31608 14.9188C6.95366 14.9156 5.59124 14.9142 4.22929 14.9059C3.26141 14.8999 2.4654 14.126 2.452 13.1499C2.43491 11.8955 2.446 10.6408 2.44507 9.386C2.44507 9.16286 2.45015 8.93925 2.44369 8.71657C2.41504 7.75008 3.23647 6.87414 4.2413 6.87276C5.61896 6.87091 6.99709 6.8686 8.37475 6.86768C8.42742 6.86768 8.47962 6.882 8.56463 6.89401L8.56417 6.89447Z" fill="white"/>
<path d="M21.8868 9.13587H23.2192C23.2275 9.23336 23.2414 9.3216 23.2414 9.4103C23.2437 10.5653 23.2433 11.7198 23.2446 12.8748C23.2456 13.5613 23.4026 13.7239 24.085 13.7313C24.5853 13.7369 25.0857 13.7341 25.5865 13.7332C25.6544 13.7332 25.7218 13.7235 25.8323 13.7151V9.12941C26.3058 9.09892 26.7378 9.11601 27.1924 9.11693C27.203 9.22088 27.2182 9.30173 27.2182 9.38258C27.2155 11.3996 27.2145 13.4167 27.2058 15.4333C27.2011 16.5042 26.4199 17.2757 25.3481 17.2799C24.401 17.284 23.4544 17.2859 22.5073 17.2882C22.4241 17.2882 22.341 17.2813 22.2366 17.2767C22.1858 16.9362 22.1964 16.6091 22.2467 16.2852C22.256 16.2242 22.3548 16.1563 22.4264 16.1309C22.5175 16.0986 22.6223 16.0972 22.7217 16.0972C23.4761 16.0949 24.2305 16.0976 24.985 16.0953C25.1152 16.0949 25.246 16.0819 25.3749 16.0635C25.5962 16.0316 25.7505 15.8981 25.7911 15.6855C25.8364 15.449 25.8369 15.2037 25.8591 14.938C25.7265 14.9302 25.6368 14.9209 25.5477 14.92C24.924 14.914 24.3008 14.9011 23.6771 14.9076C22.681 14.9182 21.9044 13.9614 21.8938 13.1012C21.8808 12.0464 21.8878 10.9917 21.8864 9.93743C21.8864 9.67825 21.8864 9.41861 21.8864 9.13634L21.8868 9.13587Z" fill="white"/>
<path d="M16.0968 19.8029H17.4181C17.4236 19.9032 17.432 19.9854 17.4324 20.0676C17.4333 21.23 17.4333 22.3924 17.4333 23.5548C17.4333 23.5779 17.4333 23.601 17.4333 23.6241C17.4417 24.2057 17.6288 24.409 18.2049 24.4215C18.7588 24.4335 19.3132 24.4252 19.8676 24.4242C19.9124 24.4242 19.9572 24.4118 20.0385 24.3993V19.802H21.3806C21.3903 19.8801 21.4074 19.9526 21.4074 20.0251C21.4083 22.0422 21.412 24.0593 21.4051 26.0759C21.4019 26.9851 20.9662 27.5912 20.1157 27.892C19.9738 27.9419 19.8149 27.9608 19.6634 27.9617C18.647 27.9682 17.6311 27.9659 16.6147 27.9654C16.5556 27.9654 16.496 27.9525 16.4077 27.9423C16.4077 27.6272 16.3976 27.3228 16.4123 27.0193C16.4188 26.8811 16.5325 26.8081 16.6683 26.7952C16.7829 26.7841 16.8988 26.7832 17.0143 26.7832C17.7535 26.7827 18.4927 26.7841 19.2314 26.7836C19.8154 26.7836 20.039 26.5623 20.0482 25.9765C20.0501 25.8698 20.0482 25.7631 20.0482 25.6296C19.9424 25.619 19.8547 25.6023 19.7669 25.6023C19.1432 25.6005 18.519 25.5829 17.8963 25.6069C16.884 25.6458 16.0894 24.6418 16.082 23.8389C16.07 22.5458 16.0746 21.2522 16.0732 19.9591C16.0732 19.9143 16.0866 19.8695 16.0973 19.8025L16.0968 19.8029Z" fill="white"/>
<path d="M13.8159 21.9961C13.9804 21.3678 13.7111 20.9936 13.1045 20.9889C12.2964 20.9829 11.4884 20.9857 10.6804 20.9825C10.5986 20.9825 10.5164 20.9695 10.4203 20.9617V19.8044C10.5118 19.7961 10.5931 19.7813 10.6748 19.7817C11.6058 19.7887 12.5367 19.8155 13.4671 19.8016C14.259 19.7896 15.0712 20.4258 15.1927 21.3012C15.2232 21.5216 15.2398 21.7452 15.2412 21.9674C15.2467 22.8831 15.2435 23.7988 15.2435 24.7144C15.2435 24.7454 15.2435 24.7759 15.2435 24.8068C15.2305 25.4051 15.0263 25.6038 14.4253 25.6038C13.3248 25.6038 12.2244 25.595 11.1244 25.607C10.3209 25.6158 9.74531 25.2638 9.42191 24.5421C8.84673 23.2601 9.85757 22.0238 10.9243 22.0164C11.809 22.0104 12.6937 22.0104 13.5789 22.0067C13.6607 22.0067 13.7429 21.9993 13.8169 21.9956L13.8159 21.9961ZM13.8413 23.2033C13.4713 23.2033 13.1345 23.2033 12.7982 23.2033C12.2909 23.2033 11.7836 23.1986 11.2764 23.2065C10.9095 23.212 10.6642 23.431 10.643 23.7489C10.6199 24.0935 10.8245 24.343 11.1858 24.4021C11.2837 24.4183 11.3849 24.4239 11.4842 24.4243C12.1911 24.4257 12.8984 24.4252 13.6053 24.4239C13.6801 24.4239 13.7545 24.4128 13.8413 24.4063V23.2037V23.2033Z" fill="white"/>
<path d="M13.7069 11.2966C13.7069 11.1233 13.7272 10.9681 13.7028 10.8203C13.6427 10.4567 13.4353 10.2977 13.0084 10.2913C12.3694 10.282 11.73 10.2871 11.0911 10.2867C10.8384 10.2867 10.5857 10.2867 10.296 10.2867C10.2503 9.89027 10.2637 9.5216 10.2831 9.14738C10.3431 9.1326 10.3792 9.11597 10.4152 9.11597C11.4237 9.1192 12.4323 9.12428 13.4408 9.12798C14.1592 9.13075 14.9155 9.80942 15.0314 10.5606C15.055 10.7122 15.0712 10.8669 15.0716 11.0198C15.0749 12.0672 15.0735 13.1141 15.0721 14.1614C15.0721 14.2459 15.0721 14.3319 15.0559 14.4146C15.0102 14.6525 14.8771 14.8188 14.6346 14.8784C14.5528 14.8983 14.4674 14.9126 14.3837 14.9126C13.1978 14.9121 12.0123 14.9066 10.8264 14.9066C9.93474 14.9066 9.30551 14.1655 9.16552 13.522C8.89942 12.3 9.84881 11.3275 10.8171 11.3266C11.6871 11.3257 12.5575 11.3229 13.4274 11.3192C13.517 11.3192 13.6062 11.3054 13.7065 11.297L13.7069 11.2966ZM13.7069 13.717V12.5333C13.6196 12.5241 13.5457 12.5088 13.4713 12.5088C12.7178 12.507 11.9647 12.5065 11.2112 12.5088C11.1198 12.5088 11.0264 12.5199 10.9373 12.5407C10.667 12.6031 10.5099 12.7897 10.4919 13.0582C10.472 13.3478 10.612 13.5784 10.8823 13.6643C11.0116 13.7054 11.1526 13.729 11.2884 13.7304C12.034 13.7377 12.7797 13.7359 13.5254 13.7364C13.5776 13.7364 13.6293 13.7253 13.7069 13.7165V13.717Z" fill="white"/>
<path d="M16.0217 14.9057V13.7614C16.1483 13.7521 16.267 13.736 16.3853 13.7355C17.2705 13.7309 18.1561 13.7314 19.0413 13.7249C19.179 13.724 19.3176 13.7041 19.4529 13.6782C19.6886 13.6329 19.7939 13.5119 19.8073 13.2934C19.8262 12.9866 19.7278 12.7727 19.5116 12.7025C19.3896 12.6632 19.2557 12.6466 19.1268 12.6434C18.5497 12.629 17.9723 12.6207 17.3952 12.6143C16.3969 12.6032 15.8272 11.8963 15.7607 11.0125C15.7048 10.2752 15.9459 9.64503 16.6445 9.30408C16.9097 9.17472 17.2363 9.12852 17.5366 9.12205C18.5678 9.10034 19.5999 9.11235 20.631 9.11327C20.6906 9.11327 20.7507 9.12621 20.8315 9.13545V10.2678C20.7137 10.2743 20.6236 10.283 20.5331 10.2835C19.6862 10.2853 18.8394 10.284 17.9926 10.2877C17.8471 10.2881 17.6997 10.2969 17.556 10.32C17.2488 10.3694 17.0954 10.5685 17.1032 10.8896C17.1106 11.2075 17.2502 11.384 17.5722 11.4061C18.0166 11.4366 18.4643 11.4232 18.9092 11.4473C19.33 11.4699 19.7518 11.5004 20.169 11.5577C20.54 11.609 20.7789 11.8603 20.954 12.1772C21.3023 12.8078 21.2422 14.0058 20.5585 14.58C20.2471 14.8415 19.8854 14.902 19.5019 14.9044C18.4167 14.9108 17.331 14.9145 16.2453 14.9187C16.1779 14.9187 16.1104 14.9108 16.0213 14.9048L16.0217 14.9057Z" fill="white"/>
</g>
<defs>
<clipPath id="clip0_8338_23889">
<rect width="27.9949" height="28" fill="white" transform="translate(0.834961 2)"/>
</clipPath>
</defs>
</svg>
