<svg width="15" height="14" viewBox="0 0 15 14" fill="none" xmlns="http://www.w3.org/2000/svg">
<g clip-path="url(#clip0_7283_26224)">
<path d="M0.947423 0H13.0969C13.607 0 14.0209 0.413946 14.0209 0.923986V7.36301H0.0234375V0.923986C0.0234375 0.413946 0.437383 0 0.947423 0Z" fill="#FB0030"/>
<path d="M0.0234375 7.36301H14.0209V13.076C14.0209 13.5861 13.607 14 13.0969 14H0.947423C0.437383 14 0.0234375 13.5861 0.0234375 13.076V7.36301Z" fill="#005FB2"/>
<path d="M1.00977 7.77743C1.0793 7.77743 1.12873 7.77743 1.17793 7.77743C1.9319 7.77743 2.68611 7.7802 3.44008 7.77581C3.79397 7.77373 4.08109 7.89847 4.27282 8.19854C4.33912 8.30249 4.39848 8.43046 4.40356 8.54988C4.41812 8.89106 4.4128 9.23363 4.39756 9.57504C4.3807 9.95203 3.94319 10.3142 3.56135 10.3135C3.01135 10.3126 2.46112 10.3161 1.91111 10.3186C1.86653 10.3186 1.82172 10.3249 1.76143 10.3292V11.7885H1.00977V7.77743ZM1.76582 9.66675C1.79377 9.67483 1.80809 9.68269 1.82241 9.68269C2.3373 9.68015 2.85242 9.682 3.36731 9.67068C3.55719 9.66652 3.65675 9.54779 3.6616 9.35467C3.66622 9.17034 3.66368 8.98554 3.66299 8.80121C3.6616 8.52332 3.55858 8.42006 3.27792 8.41937C2.81662 8.41798 2.35532 8.41868 1.89402 8.41937C1.8536 8.41937 1.81294 8.4263 1.76559 8.43046V9.66675H1.76582Z" fill="white"/>
<path d="M3.88804 2.44717V3.05793C3.83122 3.06163 3.7864 3.06671 3.74159 3.06671C3.16433 3.06694 2.58707 3.06463 2.00958 3.06671C1.66539 3.06786 1.5753 3.16326 1.5753 3.51138C1.5753 3.66915 1.57461 3.82692 1.57554 3.98469C1.57577 4.0258 1.58085 4.06692 1.58478 4.12583H3.41126V4.76314H1.60718C1.59263 4.79294 1.58039 4.80634 1.58016 4.81974C1.57923 5.05443 1.5693 5.28959 1.58339 5.52335C1.59586 5.72802 1.71852 5.82342 1.93404 5.82365C2.53071 5.82457 3.12714 5.82365 3.7238 5.82342C3.77324 5.82342 3.82267 5.82342 3.88573 5.82342V6.44919C3.84531 6.45265 3.80465 6.45958 3.764 6.45935C3.08279 6.45773 2.40158 6.45704 1.7206 6.45288C1.23666 6.44988 0.838657 6.06296 0.831959 5.57487C0.823412 4.94771 0.828956 4.32032 0.828494 3.69294C0.828494 3.58137 0.831035 3.46956 0.827801 3.35822C0.813479 2.87498 1.22419 2.43701 1.72661 2.43632C2.41544 2.43539 3.1045 2.43424 3.79333 2.43378C3.81967 2.43378 3.84577 2.44094 3.88827 2.44694L3.88804 2.44717Z" fill="white"/>
<path d="M10.5494 3.56797H11.2156C11.2197 3.61671 11.2267 3.66083 11.2267 3.70518C11.2278 4.28267 11.2276 4.85993 11.2283 5.43742C11.2287 5.78068 11.3073 5.86199 11.6485 5.86569C11.8986 5.86846 12.1488 5.86708 12.3992 5.86661C12.4332 5.86661 12.4669 5.86176 12.5221 5.8576V3.56473C12.7589 3.54949 12.9748 3.55803 13.2021 3.5585C13.2075 3.61047 13.2151 3.6509 13.2151 3.69132C13.2137 4.69985 13.2132 5.70838 13.2088 6.71668C13.2065 7.25213 12.8159 7.63789 12.28 7.63997C11.8065 7.64205 11.3331 7.64298 10.8596 7.64413C10.818 7.64413 10.7764 7.64067 10.7242 7.63836C10.6988 7.46811 10.7041 7.30457 10.7293 7.14264C10.7339 7.11215 10.7834 7.07819 10.8192 7.06548C10.8647 7.04931 10.9171 7.04862 10.9668 7.04862C11.344 7.04747 11.7212 7.04885 12.0984 7.0477C12.1636 7.04747 12.229 7.041 12.2934 7.03176C12.404 7.01582 12.4812 6.94906 12.5015 6.8428C12.5242 6.72453 12.5244 6.60187 12.5355 6.46905C12.4692 6.46512 12.4244 6.46051 12.3798 6.46004C12.0679 6.45704 11.7563 6.45057 11.4445 6.45381C10.9465 6.45912 10.5582 5.98073 10.5528 5.55061C10.5464 5.02324 10.5498 4.49588 10.5491 3.96875C10.5491 3.83916 10.5491 3.70934 10.5491 3.5682L10.5494 3.56797Z" fill="white"/>
<path d="M7.65436 8.90143H8.31501C8.31778 8.95156 8.32194 8.99268 8.32217 9.03379C8.32263 9.61498 8.32263 10.1962 8.32263 10.7774C8.32263 10.7889 8.32263 10.8005 8.32263 10.812C8.32679 11.1028 8.42034 11.2045 8.7084 11.2107C8.98536 11.2167 9.26256 11.2126 9.53975 11.2121C9.56216 11.2121 9.58457 11.2059 9.62522 11.1996V8.90097H10.2963C10.3011 8.94001 10.3097 8.97628 10.3097 9.01254C10.3101 10.0211 10.312 11.0296 10.3085 12.0379C10.3069 12.4925 10.0891 12.7956 9.6638 12.9459C9.59288 12.9709 9.51342 12.9804 9.43765 12.9808C8.92946 12.9841 8.4215 12.9829 7.91331 12.9827C7.88374 12.9827 7.85394 12.9762 7.80982 12.9711C7.80982 12.8136 7.80474 12.6614 7.81213 12.5096C7.81536 12.4405 7.87219 12.404 7.9401 12.3976C7.99739 12.392 8.05537 12.3916 8.11312 12.3916C8.48271 12.3913 8.85231 12.392 9.22167 12.3918C9.51365 12.3918 9.62545 12.2811 9.63007 11.9882C9.631 11.9349 9.63007 11.8815 9.63007 11.8148C9.57717 11.8094 9.53328 11.8011 9.48939 11.8011C9.17755 11.8002 8.86547 11.7914 8.55409 11.8034C8.04798 11.8228 7.65066 11.3209 7.64697 10.9194C7.64096 10.2729 7.64327 9.62607 7.64258 8.97951C7.64258 8.9571 7.64928 8.9347 7.65459 8.9012L7.65436 8.90143Z" fill="white"/>
<path d="M6.51392 9.99798C6.59615 9.68382 6.46148 9.49672 6.15819 9.49441C5.75417 9.4914 5.35016 9.49279 4.94615 9.49117C4.90526 9.49117 4.86414 9.4847 4.8161 9.48078V8.90213C4.86183 8.89797 4.90249 8.89058 4.94338 8.89081C5.40883 8.89428 5.87429 8.90768 6.33952 8.90075C6.73545 8.89474 7.14154 9.21282 7.20229 9.65056C7.21754 9.76075 7.22585 9.87255 7.22654 9.98366C7.22932 10.4415 7.2277 10.8993 7.2277 11.3572C7.2277 11.3726 7.2277 11.3879 7.2277 11.4034C7.22123 11.7025 7.11913 11.8018 6.8186 11.8018C6.26837 11.8018 5.71814 11.7974 5.16813 11.8034C4.76643 11.8078 4.47861 11.6318 4.31691 11.271C4.02932 10.63 4.53474 10.0118 5.06811 10.0081C5.51047 10.0051 5.95283 10.0051 6.39542 10.0033C6.4363 10.0033 6.47742 9.9996 6.51438 9.99775L6.51392 9.99798ZM6.52662 10.6016C6.3416 10.6016 6.1732 10.6016 6.00503 10.6016C5.7514 10.6016 5.49777 10.5993 5.24413 10.6032C5.06072 10.606 4.93806 10.7155 4.92744 10.8744C4.91589 11.0467 5.01822 11.1714 5.19886 11.201C5.24783 11.2091 5.29842 11.2119 5.34808 11.2121C5.70151 11.2128 6.05516 11.2126 6.40859 11.2119C6.44601 11.2119 6.4832 11.2063 6.52662 11.2031V10.6018V10.6016Z" fill="white"/>
<path d="M6.45941 4.64835C6.45941 4.56172 6.46958 4.48411 6.45733 4.41019C6.4273 4.2284 6.32359 4.14893 6.11015 4.1457C5.79068 4.14108 5.47098 4.14362 5.15151 4.14339C5.02516 4.14339 4.8988 4.14339 4.75397 4.14339C4.7311 3.94519 4.7378 3.76086 4.7475 3.57375C4.77753 3.56636 4.79555 3.55804 4.81356 3.55804C5.31783 3.55966 5.82209 3.5622 6.32636 3.56405C6.68556 3.56544 7.0637 3.90477 7.12168 4.28037C7.13346 4.35614 7.14155 4.43352 7.14178 4.50998C7.14339 5.03365 7.1427 5.55709 7.14201 6.08076C7.14201 6.12303 7.14201 6.16599 7.13392 6.20734C7.11105 6.32631 7.04453 6.40946 6.92325 6.43926C6.88237 6.4492 6.83963 6.45636 6.79782 6.45636C6.20486 6.45613 5.61212 6.45335 5.01915 6.45335C4.57333 6.45335 4.25871 6.08284 4.18872 5.76106C4.05566 5.15007 4.53036 4.66382 5.01453 4.66336C5.4495 4.6629 5.88469 4.66151 6.31966 4.65967C6.36447 4.65967 6.40906 4.65274 6.45918 4.64858L6.45941 4.64835ZM6.45941 5.85854V5.26672C6.41576 5.26211 6.3788 5.25448 6.34161 5.25448C5.96485 5.25356 5.58833 5.25333 5.21157 5.25448C5.16583 5.25448 5.11917 5.26003 5.07459 5.27042C4.93946 5.30161 4.86092 5.39493 4.85191 5.52914C4.84198 5.67397 4.91197 5.78924 5.0471 5.8322C5.11178 5.85276 5.18223 5.86454 5.25015 5.86524C5.62298 5.86893 5.9958 5.86801 6.36863 5.86824C6.39473 5.86824 6.42061 5.8627 6.45941 5.85831V5.85854Z" fill="white"/>
<path d="M7.61682 6.4529V5.88072C7.68011 5.8761 7.73947 5.86802 7.79861 5.86779C8.2412 5.86548 8.68402 5.86571 9.12661 5.86247C9.19545 5.86201 9.26474 5.85208 9.33243 5.83914C9.45023 5.8165 9.5029 5.75598 9.5096 5.64672C9.51907 5.49334 9.46987 5.38639 9.36176 5.35128C9.30078 5.33164 9.23379 5.32333 9.16934 5.32171C8.88083 5.31455 8.59208 5.31039 8.30357 5.30716C7.80438 5.30161 7.51957 4.94819 7.4863 4.50629C7.45835 4.13762 7.57893 3.82254 7.9282 3.65207C8.06079 3.58739 8.2241 3.56429 8.37425 3.56106C8.88984 3.5502 9.40588 3.5562 9.92147 3.55667C9.95127 3.55667 9.9813 3.56313 10.0217 3.56775V4.13393C9.96282 4.13716 9.91777 4.14155 9.8725 4.14178C9.44908 4.1427 9.02566 4.14201 8.60225 4.14386C8.52948 4.14409 8.45579 4.14848 8.38395 4.16003C8.23034 4.18475 8.15365 4.28431 8.15758 4.44485C8.16127 4.60377 8.23103 4.69201 8.39204 4.7031C8.61426 4.71835 8.83809 4.71165 9.06054 4.72366C9.27098 4.73498 9.48188 4.75023 9.69047 4.77887C9.87596 4.80451 9.99539 4.93017 10.0829 5.08863C10.2571 5.40394 10.2271 6.00292 9.8852 6.29005C9.72951 6.42079 9.54864 6.45105 9.35691 6.45221C8.8143 6.45544 8.27146 6.45729 7.72862 6.45937C7.69489 6.45937 7.66117 6.45544 7.61658 6.45244L7.61682 6.4529Z" fill="white"/>
</g>
<defs>
<clipPath id="clip0_7283_26224">
<rect width="13.9975" height="14" fill="white" transform="translate(0.0234375)"/>
</clipPath>
</defs>
</svg>
