<?xml version="1.0" encoding="UTF-8" standalone="no"?>
<svg width="110px" height="64px" viewBox="0 0 110 64" version="1.1" xmlns="http://www.w3.org/2000/svg" xmlns:xlink="http://www.w3.org/1999/xlink">
    <!-- Generator: Sketch 41.2 (35397) - http://www.bohemiancoding.com/sketch -->
    <title>eps</title>
    <desc>Created with Sketch.</desc>
    <defs></defs>
    <g id="Others" stroke="none" stroke-width="1" fill="none" fill-rule="evenodd">
        <g id="eps">
            <g transform="translate(14.000000, 7.000000)" id="eps-Logo-CMYK">
                <g>
                    <g id="Page-1">
                        <g id="eps-Logo-CMYK">
                            <path d="M64.2990897,25 L57.7676671,25 C57.04129,25 56.4502289,24.4274262 56.4502289,23.710654 C56.4502289,22.9938819 57.04129,22.3628692 57.7676671,22.3628692 L67.7113134,22.3628692 L67.7113134,17.5105485 L57.7676671,17.5105485 C54.2971157,17.5105485 51.473394,20.3094937 51.473394,23.7341772 C51.473394,27.1588608 54.2971157,29.9578059 57.7676671,29.9578059 L64.2103719,29.9578059 C64.9368557,29.9578059 65.5279168,30.5280591 65.5279168,31.2448312 C65.5279168,31.9616034 64.9368557,32.4894515 64.2103719,32.4894515 L50.3949181,32.4894515 C49.2219662,34.7046414 48.0814304,36.6033755 45.76613,37.5527426 L64.2990897,37.5527426 C67.7113134,37.5041139 70.5025124,34.6474684 70.5025124,31.2530591 C70.5025124,27.8587553 67.7113134,25.0486287 64.2990897,25" id="Fill-1" fill="#5F6360"></path>
                            <path d="M39.2615787,17.5105485 C33.7258856,17.5105485 29.2171651,21.9973629 29.2171651,27.5105485 L29.2171651,27.721519 L29.2171651,48.3122363 L34.2288687,48.3122363 L34.2288687,37.5527426 L39.2511287,37.5527426 C44.7869285,37.5527426 49.2797607,33.0062236 49.2797607,27.493038 C49.2797607,21.9798523 44.7973784,17.5105485 39.2615787,17.5105485 Z M39.2615787,32.4894515 L34.2288687,32.4894515 L34.2288687,27.493038 C34.2288687,24.7010549 36.4759246,22.4295359 39.2615787,22.4295359 C42.0472328,22.4295359 44.3134824,24.7010549 44.3134824,27.493038 C44.3134824,30.2850211 42.0472328,32.4894515 39.2615787,32.4894515 L39.2615787,32.4894515 Z" id="Fill-3" fill="#5F6360"></path>
                            <path d="M13.350645,37.5527426 C8.61191938,37.5527426 4.62793498,34.2123418 3.54988557,29.8484177 C3.54988557,29.8484177 3.23830689,28.4054852 3.23830689,27.4554852 C3.23830689,26.5053797 3.53325098,25.0476793 3.53325098,25.0476793 C4.61908453,20.6945148 8.59816385,17.4529536 13.3291053,17.4529536 C18.8931625,17.4529536 23.4590377,21.9274262 23.4590377,27.4316456 L23.4590377,29.8523207 L8.67611183,29.8523207 C9.54910793,31.5400844 11.3146138,32.4894515 13.350645,32.4894515 L26.6397633,32.4894515 L26.6579974,18.2152954 C26.6579974,16.0871308 24.8979298,14.3459916 22.7466294,14.3459916 L3.91136801,14.3459916 C1.76017425,14.3459916 0,16.0343882 0,18.1625527 L0,36.7952532 C0,38.9234177 1.76017425,40.7172996 3.91136801,40.7172996 L22.7466294,40.7172996 C24.6773082,40.7172996 26.2877711,39.3459916 26.5988166,37.5527426 L13.350645,37.5527426" id="Fill-4" fill="#A41760"></path>
                            <path d="M13.3291053,22.1894515 C11.3009649,22.1894515 9.53716515,23.4177215 8.6606502,25 L17.9977737,25 C17.1212588,23.4177215 15.357459,22.1894515 13.3291053,22.1894515" id="Fill-5" fill="#A41760"></path>
                            <path d="M21.8595579,8.28681435 C21.8595579,3.73924051 18.0391469,0.052742616 13.3265462,0.052742616 C8.692,0.052742616 4.9226658,3.61867089 4.79886606,8.06202532 C4.79684005,8.08080169 4.79843953,8.09905063 4.79843953,8.11835443 L4.79843953,10.592827 C4.79843953,10.8888186 5.04209363,11.1814346 5.34876723,11.1814346 L8.48811964,11.1814346 C8.79479324,11.1814346 9.06371912,10.8888186 9.06371912,10.592827 L9.06371912,8.28681435 C9.06371912,6.01592827 10.9756307,4.16835443 13.3289987,4.16835443 C15.6823667,4.16835443 17.5942783,6.01592827 17.5942783,8.28681435 L17.5942783,10.592827 C17.5942783,10.8888186 17.8430507,11.1814346 18.1497243,11.1814346 L21.2891834,11.1814346 C21.595857,11.1814346 21.8595579,10.8888186 21.8595579,10.592827 L21.8595579,8.28681435" id="Fill-6" fill="#A41760"></path>
                            <path d="M44.8843901,43.9873418 L44.4305644,46.5294304 C44.2036515,47.814135 43.3526216,48.4025316 42.1990767,48.4025316 C41.2220078,48.4025316 40.4655605,47.7726793 40.6863953,46.5314346 L41.1401144,43.9873418 L41.8398336,43.9873418 L41.3859012,46.5294304 C41.2472796,47.3216245 41.6066294,47.7727848 42.287368,47.7727848 C42.9870871,47.7727848 43.5858257,47.3609705 43.7308453,46.5314346 L44.184671,43.9873418 L44.8843901,43.9873418 Z M42.1359506,43.1915612 C42.1359506,43.403481 42.3000572,43.5031646 42.4765332,43.5031646 C42.6970481,43.5031646 42.9366502,43.3473629 42.9366502,43.0542194 C42.9366502,42.8486287 42.7978153,42.742616 42.6151547,42.742616 C42.3882419,42.742616 42.1359506,42.885865 42.1359506,43.1915612 Z M43.6489519,43.1852321 C43.6489519,43.403481 43.8191365,43.5031646 44.0020104,43.5031646 C44.1973602,43.5031646 44.4557295,43.3473629 44.4557295,43.060443 C44.4557295,42.8548523 44.3044187,42.742616 44.1342341,42.742616 C43.9073212,42.742616 43.6489519,42.885865 43.6489519,43.1852321 L43.6489519,43.1852321 Z" id="Fill-7" fill="#5F6360"></path>
                            <path d="M46.5754668,43.9873418 L46.2603693,45.7437764 C46.5313212,45.382384 47.0733316,45.1910338 47.4515553,45.1910338 C48.2332744,45.1910338 48.7752848,45.6441983 48.7752848,46.4859705 C48.7752848,47.6768987 47.9369441,48.3932489 46.8655059,48.3932489 C46.4493212,48.3932489 46.0963693,48.2402954 45.8821456,47.8537975 L45.7622913,48.3122363 L45.1508635,48.3122363 L45.9261847,43.9873418 L46.5754668,43.9873418 Z M46.0837867,46.9516878 C46.0586216,47.4629747 46.3926996,47.7933544 46.8779818,47.7933544 C47.4894096,47.7933544 48.081857,47.3256329 48.1198179,46.6149789 C48.1449831,46.0973629 47.8046138,45.7916667 47.3318075,45.7916667 C46.726671,45.7916667 46.1215345,46.2719409 46.0837867,46.9516878 L46.0837867,46.9516878 Z" id="Fill-8" fill="#5F6360"></path>
                            <path d="M50.0499636,47.0464135 C50.0247984,47.4683544 50.3587698,47.8128692 50.9261586,47.8128692 C51.2413628,47.8128692 51.6572276,47.6909283 51.8841404,47.4790084 L52.237199,47.8825949 C51.8527906,48.2314346 51.2854018,48.4052743 50.8064109,48.4052743 C49.9112354,48.4052743 49.3880988,47.875 49.3880988,47.064346 C49.3880988,45.9855485 50.2453134,45.1815401 51.34213,45.1815401 C52.3444707,45.1815401 52.9117529,45.7805907 52.5713836,47.0464135 L50.0499636,47.0464135 Z M52.0418492,46.5189873 C52.0921795,45.9915612 51.7770819,45.7768987 51.2538388,45.7768987 C50.7812458,45.7768987 50.3462939,45.9915612 50.1570221,46.5189873 L52.0418492,46.5189873 L52.0418492,46.5189873 Z" id="Fill-9" fill="#5F6360"></path>
                            <path d="M54.3058596,45.2531646 L54.2742965,45.6597046 C54.5769181,45.2665612 54.9424525,45.1862869 55.2765306,45.1862869 C55.5791521,45.1862869 55.850104,45.292616 55.9951235,45.4484177 L55.6043173,46.0097046 C55.4656957,45.8853376 55.3270741,45.8229958 55.087472,45.8229958 C54.6398309,45.8229958 54.1986944,46.0886076 54.0978205,46.6560127 L53.8015969,48.3122363 L53.1523147,48.3122363 L53.700723,45.2531646 L54.3058596,45.2531646" id="Fill-10" fill="#5F6360"></path>
                            <polyline id="Fill-11" fill="#5F6360" points="59.1226398 45.2531646 59.4503199 47.6723629 60.6353212 45.2531646 61.3603121 45.2531646 59.7340676 48.3122363 58.971329 48.3122363 58.6625228 46.2941983 58.1644447 47.29673 57.6224343 48.3122363 56.8658804 48.3122363 56.3175787 45.2531646 57.0487542 45.2531646 57.3702497 47.6723629 58.5615423 45.2531646 59.1226398 45.2531646"></polyline>
                            <path d="M62.193961,47.0464135 C62.1687958,47.4683544 62.5027672,47.8128692 63.0702627,47.8128692 C63.3854668,47.8128692 63.8013316,47.6909283 64.0282445,47.4790084 L64.381303,47.8825949 C63.9968947,48.2314346 63.4293992,48.4052743 62.9504083,48.4052743 C62.0553394,48.4052743 61.5322029,47.875 61.5322029,47.064346 C61.5322029,45.9855485 62.3894174,45.1815401 63.4862341,45.1815401 C64.4885748,45.1815401 65.055857,45.7805907 64.7154876,47.0464135 L62.193961,47.0464135 Z M64.1859532,46.5189873 C64.2362835,45.9915612 63.921186,45.7768987 63.3979428,45.7768987 C62.9252432,45.7768987 62.4902913,45.9915612 62.3011261,46.5189873 L64.1859532,46.5189873 L64.1859532,46.5189873 Z" id="Fill-12" fill="#5F6360"></path>
                            <path d="M66.4941092,45.2531646 L65.9459142,48.3122363 L65.2965254,48.3122363 L65.8449337,45.2531646 L66.4941092,45.2531646 Z M65.9205358,44.4198312 C65.9205358,44.6379747 66.0845358,44.7506329 66.2610117,44.7506329 C66.5131964,44.7506329 66.7464005,44.5881857 66.7464005,44.2828059 C66.7464005,44.0767932 66.5886918,43.9583333 66.4185072,43.9583333 C66.185303,43.9583333 65.9205358,44.1082278 65.9205358,44.4198312 L65.9205358,44.4198312 Z" id="Fill-13" fill="#5F6360"></path>
                            <path d="M69.3753056,46.0099156 C69.1736645,45.785443 68.9151886,45.7229958 68.6063823,45.7229958 C68.1776151,45.7229958 67.8751001,45.8666667 67.8751001,46.1345992 C67.8751001,46.3590717 68.1208869,46.4528481 68.4866346,46.4838608 C69.0538101,46.5337553 69.778801,46.7208861 69.6274902,47.5127637 C69.5203251,48.0864979 68.9403537,48.4232068 68.1335761,48.4232068 C67.62942,48.4232068 67.1438179,48.3109705 66.8161378,47.8558017 L67.2384005,47.4005274 C67.4717113,47.7184599 67.881498,47.8494726 68.2470325,47.8558017 C68.5558388,47.8558017 68.9215865,47.7435654 68.9783147,47.4566456 C69.0350429,47.182384 68.7890429,47.0763713 68.3352172,47.0324895 C67.8056827,46.9827004 67.2259246,46.789557 67.2259246,46.2095992 C67.2259246,45.4424051 68.0641586,45.1744726 68.6946736,45.1744726 C69.1736645,45.1744726 69.526723,45.2803797 69.8166554,45.5860759 L69.3753056,46.0099156" id="Fill-14" fill="#5F6360"></path>
                            <path d="M71.4247724,45.2531646 L71.1286554,46.9005274 C71.0339662,47.4244726 71.2735683,47.7864979 71.8156853,47.7864979 C72.3262393,47.7864979 72.7611912,47.368038 72.8491625,46.8566456 L73.1328036,45.2531646 L73.7821925,45.2531646 L73.2339974,48.3122363 L72.6477347,48.3122363 L72.6917737,47.8689873 C72.3262393,48.2119198 71.9667828,48.3736287 71.5320442,48.3736287 C70.769199,48.3736287 70.3154798,47.8327004 70.4792666,46.903903 L70.7755969,45.2531646 L71.4247724,45.2531646" id="Fill-15" fill="#5F6360"></path>
                            <path d="M76.6326788,48.3122363 L76.9290091,46.674789 C77.0233784,46.1447257 76.8409311,45.7935654 76.2482705,45.7935654 C75.7314252,45.7935654 75.2962601,46.2048523 75.2081821,46.7099156 L74.924541,48.3122363 L74.2751521,48.3122363 L74.8237737,45.2531646 L75.4160078,45.2531646 L75.3719688,45.700211 C75.7314252,45.3697257 76.1030377,45.2067511 76.5065332,45.2067511 C77.2629805,45.2067511 77.7548739,45.7272152 77.5846892,46.6689873 L77.2883589,48.3122363 L76.6326788,48.3122363" id="Fill-16" fill="#5F6360"></path>
                            <path d="M78.8333498,48.7341772 C78.7893108,49.1561181 79.1169909,49.3267932 79.6656125,49.3267932 C80.14471,49.3267932 80.6616619,49.0622363 80.7814096,48.3888186 L80.8758856,47.8635021 C80.5922445,48.2563291 80.0753992,48.4113924 79.6909909,48.4113924 C78.8964759,48.4113924 78.341883,47.9436709 78.341883,47.0952532 C78.341883,45.885865 79.2494278,45.1871308 80.2769337,45.1871308 C80.7119922,45.1871308 81.1027984,45.3914557 81.2415267,45.7407173 L81.3486918,45.2531646 L81.9789935,45.2531646 L81.4367698,48.4031646 C81.2352354,49.5694093 80.3589337,49.9313291 79.5584473,49.9313291 C78.6001456,49.9313291 78.0709311,49.4725738 78.2030481,48.7341772 L78.8333498,48.7341772 Z M79.0162237,46.9704641 C79.0162237,47.4939873 79.3628843,47.8122363 79.8611756,47.8122363 C81.2035657,47.8122363 81.5629155,45.7732068 80.2200988,45.7732068 C79.5835059,45.7732068 79.0162237,46.2406118 79.0162237,46.9704641 L79.0162237,46.9704641 Z" id="Fill-17" fill="#5F6360"></path>
                        </g>
                    </g>
                </g>
            </g>
        </g>
    </g>
</svg>