<svg width="53" height="32" viewBox="0 0 53 32" fill="none" xmlns="http://www.w3.org/2000/svg">
<g clip-path="url(#clip0_8407_25090)">
<path fill-rule="evenodd" clip-rule="evenodd" d="M41.332 16.0051H37.2183C36.7607 16.0051 36.3885 15.6378 36.3885 15.1779C36.3885 14.7181 36.7607 14.3132 37.2183 14.3132H43.4812V11.2002H37.2183C35.0324 11.2002 33.2539 12.9959 33.2539 15.193C33.2539 17.3901 35.0324 19.1858 37.2183 19.1858H41.2761C41.7337 19.1858 42.106 19.5517 42.106 20.0115C42.106 20.4714 41.7337 20.81 41.2761 20.81H32.5746C31.8358 22.2312 31.1175 23.4493 29.6592 24.0584H41.332C43.4812 24.0272 45.2392 22.1945 45.2392 20.0168C45.2392 17.8392 43.4812 16.0363 41.332 16.0051Z" fill="#71706F"/>
<path fill-rule="evenodd" clip-rule="evenodd" d="M25.5617 20.81H22.3919V17.6045C22.3919 15.8133 23.8072 14.356 25.5617 14.356C27.3163 14.356 28.7436 15.8133 28.7436 17.6045C28.7436 19.3958 27.3163 20.81 25.5617 20.81ZM25.5617 11.2002C22.0751 11.2002 19.2354 14.0787 19.2354 17.6158V17.7511V30.9613H22.3919V24.0584H25.5552C29.0418 24.0584 31.8716 21.1416 31.8716 17.6045C31.8716 14.0675 29.0484 11.2002 25.5617 11.2002Z" fill="#71706F"/>
<path fill-rule="evenodd" clip-rule="evenodd" d="M9.24376 24.0584C6.25911 24.0584 3.74983 21.9153 3.07083 19.1156C3.07083 19.1156 2.87465 18.19 2.87465 17.5804C2.87465 16.9709 3.06035 16.0357 3.06035 16.0357C3.74425 13.2429 6.25045 11.1632 9.23019 11.1632C12.7347 11.1632 15.6105 14.0339 15.6105 17.5651V19.1181H6.29954C6.84939 20.2009 7.96138 20.81 9.24376 20.81H17.6138L17.6253 11.6523C17.6253 10.287 16.5168 9.16992 15.1618 9.16992H3.29857C1.94359 9.16992 0.834961 10.2531 0.834961 11.6185V23.5724C0.834961 24.9378 1.94359 26.0886 3.29857 26.0886H15.1618C16.3778 26.0886 17.3921 25.2089 17.5881 24.0584H9.24376Z" fill="#C8036F"/>
<path fill-rule="evenodd" clip-rule="evenodd" d="M9.23238 14.2021C7.95497 14.2021 6.84406 14.9902 6.29199 16.0053H12.1729C11.6208 14.9902 10.51 14.2021 9.23238 14.2021Z" fill="#C8036F"/>
<path fill-rule="evenodd" clip-rule="evenodd" d="M14.6007 5.28263C14.6007 2.3651 12.1944 0 9.22623 0C6.3072 0 3.93311 2.28775 3.85514 5.13842C3.85386 5.15046 3.85487 5.16217 3.85487 5.17456V6.76207C3.85487 6.95197 4.00833 7.1397 4.20149 7.1397H6.17879C6.37194 7.1397 6.54132 6.95197 6.54132 6.76207V5.28263C6.54132 3.82573 7.74553 2.6404 9.22778 2.6404C10.71 2.6404 11.9142 3.82573 11.9142 5.28263V6.76207C11.9142 6.95197 12.0709 7.1397 12.2641 7.1397H14.2414C14.4346 7.1397 14.6007 6.95197 14.6007 6.76207V5.28263Z" fill="#C8036F"/>
<path fill-rule="evenodd" clip-rule="evenodd" d="M28.3268 27.6721C28.3268 27.8121 28.4339 27.8761 28.5491 27.8761C28.6722 27.8761 28.835 27.7761 28.835 27.5921C28.835 27.4602 28.7396 27.3882 28.6325 27.3882C28.4896 27.3882 28.3268 27.4801 28.3268 27.6721ZM27.3739 27.6761C27.3739 27.8121 27.4772 27.8761 27.5883 27.8761C27.7273 27.8761 27.8782 27.7761 27.8782 27.5881C27.8782 27.4561 27.7907 27.3882 27.6756 27.3882C27.5328 27.3882 27.3739 27.4801 27.3739 27.6761ZM29.1049 28.1867L28.819 29.8176C28.6761 30.6419 28.1401 31.0193 27.4136 31.0193C26.7982 31.0193 26.3218 30.6152 26.4608 29.8189L26.7466 28.1867H27.1874L26.9014 29.8176C26.8141 30.3259 27.0404 30.6153 27.4692 30.6153C27.9099 30.6153 28.2871 30.3511 28.3783 29.8189L28.6642 28.1867H29.1049Z" fill="#71706F"/>
<path fill-rule="evenodd" clip-rule="evenodd" d="M29.8601 30.0883C29.8443 30.4163 30.0546 30.6284 30.3603 30.6284C30.7454 30.6284 31.1186 30.3282 31.1424 29.8723C31.1583 29.5402 30.944 29.3442 30.6461 29.3442C30.265 29.3442 29.8838 29.6523 29.8601 30.0883ZM30.1698 28.1865L29.9713 29.3134C30.1419 29.0815 30.4834 28.9588 30.7216 28.9588C31.2139 28.9588 31.5553 29.2496 31.5553 29.7895C31.5553 30.5537 31.0273 31.0132 30.3524 31.0132C30.0904 31.0132 29.868 30.915 29.7331 30.6671L29.6576 30.9612H29.2725L29.7608 28.1865H30.1698Z" fill="#71706F"/>
<path fill-rule="evenodd" clip-rule="evenodd" d="M33.6158 29.8106C33.6475 29.4722 33.449 29.3345 33.1195 29.3345C32.8218 29.3345 32.5478 29.4722 32.4286 29.8106H33.6158ZM32.3612 30.149C32.3453 30.4197 32.5557 30.6407 32.9131 30.6407C33.1116 30.6407 33.3735 30.5625 33.5164 30.4265L33.7388 30.6855C33.4967 30.9093 33.1393 31.0208 32.8376 31.0208C32.2739 31.0208 31.9443 30.6806 31.9443 30.1605C31.9443 29.4684 32.4842 28.9526 33.1751 28.9526C33.8064 28.9526 34.1637 29.3369 33.9493 30.149H32.3612Z" fill="#71706F"/>
<path fill-rule="evenodd" clip-rule="evenodd" d="M35.0381 28.9989L35.0182 29.2598C35.2089 29.0075 35.4391 28.9561 35.6494 28.9561C35.84 28.9561 36.0107 29.0242 36.102 29.1242L35.856 29.4843C35.7686 29.4045 35.6813 29.3645 35.5304 29.3645C35.2484 29.3645 34.9706 29.5348 34.907 29.8989L34.7205 30.9615H34.3115L34.6569 28.9989H35.0381Z" fill="#71706F"/>
<path fill-rule="evenodd" clip-rule="evenodd" d="M38.0724 28.9985L38.2788 30.5506L39.0252 28.9985H39.4818L38.4575 30.9611H37.9771L37.7826 29.6664L37.4689 30.3096L37.1275 30.9611H36.6511L36.3057 28.9985H36.7662L36.9687 30.5506L37.719 28.9985H38.0724Z" fill="#71706F"/>
<path fill-rule="evenodd" clip-rule="evenodd" d="M41.2642 29.8106C41.2959 29.4722 41.0975 29.3345 40.7679 29.3345C40.4702 29.3345 40.1963 29.4722 40.0771 29.8106H41.2642ZM40.0096 30.149C39.9937 30.4197 40.2041 30.6407 40.5615 30.6407C40.76 30.6407 41.022 30.5625 41.1649 30.4265L41.3873 30.6855C41.1451 30.9093 40.7878 31.0208 40.4861 31.0208C39.9223 31.0208 39.5928 30.6806 39.5928 30.1605C39.5928 29.4684 40.1327 28.9526 40.8235 28.9526C41.4548 28.9526 41.8121 29.3369 41.5977 30.149H40.0096Z" fill="#71706F"/>
<path fill-rule="evenodd" clip-rule="evenodd" d="M42.3569 28.464C42.3569 28.604 42.4602 28.6763 42.5714 28.6763C42.7302 28.6763 42.8771 28.5721 42.8771 28.3762C42.8771 28.244 42.7777 28.168 42.6706 28.168C42.5237 28.168 42.3569 28.2641 42.3569 28.464ZM42.7182 28.9987L42.3729 30.9612H41.9639L42.3093 28.9987H42.7182Z" fill="#71706F"/>
<path fill-rule="evenodd" clip-rule="evenodd" d="M44.5328 29.4842C44.4057 29.3402 44.243 29.3002 44.0485 29.3002C43.7783 29.3002 43.5879 29.3923 43.5879 29.5643C43.5879 29.7083 43.7426 29.7685 43.973 29.7884C44.3303 29.8203 44.7868 29.9404 44.6915 30.4485C44.6241 30.8165 44.2588 31.0325 43.7506 31.0325C43.4331 31.0325 43.1273 30.9605 42.9209 30.6685L43.1869 30.3765C43.3337 30.5804 43.5918 30.6645 43.8221 30.6685C44.0166 30.6685 44.2469 30.5965 44.2827 30.4125C44.3184 30.2364 44.1635 30.1685 43.8777 30.1403C43.5442 30.1083 43.179 29.9845 43.179 29.6123C43.179 29.1202 43.7069 28.9482 44.104 28.9482C44.4057 28.9482 44.6281 29.0162 44.8108 29.2123L44.5328 29.4842Z" fill="#71706F"/>
<path fill-rule="evenodd" clip-rule="evenodd" d="M45.8226 28.9985L45.6361 30.0554C45.5765 30.3916 45.7274 30.6238 46.0688 30.6238C46.3904 30.6238 46.6643 30.3553 46.7198 30.0273L46.8984 28.9985H47.3074L46.9621 30.9611H46.5928L46.6206 30.6767C46.3904 30.8967 46.164 31.0005 45.8901 31.0005C45.4097 31.0005 45.1239 30.6535 45.2271 30.0576L45.4137 28.9985H45.8226Z" fill="#71706F"/>
<path fill-rule="evenodd" clip-rule="evenodd" d="M49.0991 30.9611L49.2857 29.9106C49.3451 29.5705 49.2302 29.3452 48.8569 29.3452C48.5314 29.3452 48.2573 29.6091 48.2019 29.9331L48.0232 30.9611H47.6143L47.9597 28.9985H48.3328L48.3051 29.2853C48.5314 29.0733 48.7655 28.9688 49.0196 28.9688C49.4961 28.9688 49.8059 29.3027 49.6987 29.9069L49.512 30.9611H49.0991Z" fill="#71706F"/>
<path fill-rule="evenodd" clip-rule="evenodd" d="M50.6019 30.1002C50.6019 30.436 50.8203 30.6402 51.1341 30.6402C51.9796 30.6402 52.206 29.3321 51.3602 29.3321C50.9592 29.3321 50.6019 29.6319 50.6019 30.1002ZM50.4868 31.2317C50.459 31.5024 50.6654 31.6119 51.011 31.6119C51.3127 31.6119 51.6383 31.4421 51.7137 31.0101L51.7732 30.6731C51.5946 30.9251 51.269 31.0246 51.0269 31.0246C50.5265 31.0246 50.1772 30.7245 50.1772 30.1802C50.1772 29.4043 50.7488 28.9561 51.3959 28.9561C51.67 28.9561 51.9162 29.0871 52.0035 29.3112L52.071 28.9984H52.468L52.1265 31.0193C51.9996 31.7675 51.4476 31.9997 50.9435 31.9997C50.3399 31.9997 50.0066 31.7054 50.0898 31.2317H50.4868Z" fill="#71706F"/>
</g>
<defs>
<clipPath id="clip0_8407_25090">
<rect width="51.6331" height="32" fill="white" transform="translate(0.834961)"/>
</clipPath>
</defs>
</svg>
