<svg width="46" height="32" viewBox="0 0 46 32" fill="none" xmlns="http://www.w3.org/2000/svg">
<g clip-path="url(#clip0_8408_23885)">
<path d="M3.90289 23.5087H3.50051L3.09922 25.7532H3.49006C4.41632 25.7532 4.8297 25.2716 4.8297 24.3685C4.8297 23.799 4.51692 23.5087 3.90289 23.5087ZM3.38891 26.9466H2.88648L2.39669 29.7578H0.834961L2.15042 22.3153H4.21458C5.43054 22.3153 6.47994 22.7847 6.47994 24.2343C6.47994 26.1094 5.23044 26.9466 3.38891 26.9466" fill="#176FC1"/>
<path d="M9.00508 25.8073C8.42843 25.8073 7.86223 26.7676 7.86223 27.8253C7.86223 28.37 7.99141 28.69 8.25747 28.69C8.71648 28.69 9.36844 27.6433 9.61361 26.2767L9.65648 26.042C9.56029 25.9661 9.39977 25.8073 9.00508 25.8073ZM10.436 29.7575H8.99463L9.12327 29.0093C8.87865 29.3941 8.51419 29.8652 7.69237 29.8652C7.00798 29.8652 6.34668 29.3298 6.34668 27.9858C6.34668 26.053 7.48953 24.632 8.81213 24.632C9.56029 24.632 9.83734 24.9415 9.93464 25.0382L9.98741 24.7397H11.3227L10.436 29.7575V29.7575Z" fill="#176FC1"/>
<path d="M14.4607 29.4488C13.7246 30.9209 12.9886 31.7856 11.2795 32L11.1201 30.9539C11.7715 30.7505 12.4328 30.4207 12.7967 29.6824L12.9446 29.3834L12.0706 24.74H13.5977L13.9814 27.4726L15.2413 24.74H16.8316L14.4607 29.4488Z" fill="#176FC1"/>
<path d="M23.8141 29.7578H22.3728L22.9599 26.448C23.0016 26.2353 22.9917 26.0209 22.7471 26.0209C22.298 26.0209 21.4965 27.089 21.2733 28.3703L21.0282 29.7578H19.5846L20.1739 26.448C20.2152 26.2353 20.2064 26.0209 19.9595 26.0209C19.511 26.0209 18.7111 27.089 18.4852 28.3703L18.2406 29.7578H16.7998L17.6854 24.7401H19.1262L18.9239 25.9148C19.2444 25.3904 19.7463 24.6323 20.6104 24.6323C21.3899 24.6323 21.7324 25.1347 21.6779 25.9362C21.9555 25.4756 22.4794 24.6323 23.3974 24.6323C24.2841 24.6323 24.604 25.2843 24.4221 26.3084L23.8141 29.7578Z" fill="#176FC1"/>
<path d="M28.0098 25.6577C27.5618 25.6577 27.1341 26.2244 26.9632 27.0358C27.9136 26.9077 28.4902 26.684 28.4902 26.1271C28.4902 25.8078 28.2973 25.6577 28.0098 25.6577ZM26.8884 27.8587C26.9104 28.4117 27.1457 28.6904 27.6256 28.6904C28.1808 28.6904 28.7134 28.4018 29.1098 28.1572L29.505 29.0961C29.1735 29.3418 28.4584 29.8657 27.4233 29.8657C26.3019 29.8657 25.4053 29.3215 25.4053 27.8049C25.4053 26.0425 26.3761 24.6325 28.0857 24.6325C29.3665 24.6325 29.9211 25.1888 29.9211 26.0425C29.9211 27.4305 28.7893 27.762 26.8884 27.8587" fill="#176FC1"/>
<path d="M34.7054 29.7578H33.264L33.8511 26.448C33.8945 26.2353 33.8835 26.0209 33.6384 26.0209C33.1898 26.0209 32.3883 27.089 32.1646 28.3703L31.92 29.7578H30.4775L31.3637 24.7401H32.8056L32.6033 25.9148C32.9232 25.3904 33.4245 24.6323 34.2892 24.6323C35.1754 24.6323 35.4953 25.2843 35.3155 26.3084L34.7054 29.7578Z" fill="#176FC1"/>
<path d="M39.1905 25.8073H38.4434L38.0064 28.2837C37.9613 28.4981 38.0366 28.6036 38.1972 28.6036C38.3467 28.6036 38.4649 28.5624 38.6039 28.4981L38.7524 29.4903C38.5385 29.6294 38.1328 29.8652 37.5562 29.8652C36.8097 29.8652 36.3727 29.3941 36.5524 28.381L37.0021 25.8073H36.4678L36.6585 24.7397H37.1934L37.4919 23.6508L38.881 23.3512L38.6342 24.7397H39.3823L39.1905 25.8073Z" fill="#176FC1"/>
<path d="M43.214 26.2668C42.9051 26.053 42.4131 25.8188 42.0305 25.8188C41.7303 25.8188 41.5269 25.9249 41.5269 26.1706C41.5269 26.3944 41.7523 26.4922 42.0514 26.6186L42.3284 26.7363C42.8408 26.9496 43.4075 27.2909 43.4075 28.1881C43.4075 29.2556 42.8408 29.8652 41.5594 29.8652C40.5138 29.8652 39.9037 29.4051 39.5205 29.1286L40.0856 28.1358C40.46 28.4118 41.0465 28.679 41.4318 28.679C41.7633 28.679 41.9002 28.5624 41.9002 28.3167C41.9002 28.071 41.666 27.9632 41.3675 27.8461L41.0789 27.7302C40.5677 27.5268 40.0218 27.1848 40.0218 26.2976C40.0218 25.1454 40.9096 24.6325 42.0184 24.6325C42.9155 24.6325 43.4718 25.0817 43.7269 25.2724L43.214 26.2668Z" fill="#176FC1"/>
<path d="M23.8301 16.1651H20.717L20.4147 17.8956H22.8257L22.602 19.1787H20.1926L19.6341 22.3252H18.0713L19.3895 14.8827H24.0637L23.8301 16.1651Z" fill="#176FC1"/>
<path d="M25.798 18.3742C25.2214 18.3742 24.6552 19.3356 24.6552 20.3922C24.6552 20.9375 24.7833 21.2574 25.0504 21.2574C25.5094 21.2574 26.1614 20.2118 26.4055 18.8447L26.4495 18.61C26.3538 18.5347 26.1938 18.3742 25.798 18.3742ZM27.2278 22.3249H25.7865L25.9151 21.5773C25.67 21.9621 25.3072 22.4321 24.4842 22.4321C23.8009 22.4321 23.1396 21.8978 23.1396 20.5538C23.1396 18.6204 24.2825 17.2 25.6045 17.2C26.3538 17.2 26.6303 17.51 26.7271 17.6057L26.7804 17.3072H28.1151L27.2278 22.3249V22.3249Z" fill="#176FC1"/>
<path d="M32.1107 18.8338C31.8002 18.6199 31.3093 18.3847 30.925 18.3847C30.626 18.3847 30.4226 18.4924 30.4226 18.737C30.4226 18.9613 30.648 19.057 30.9454 19.1856L31.223 19.3038C31.7358 19.5171 32.302 19.8573 32.302 20.755C32.302 21.8237 31.7358 22.4316 30.455 22.4316C29.4084 22.4316 28.8009 21.9726 28.415 21.6961L28.9823 20.7023C29.3545 20.9793 29.9427 21.2465 30.3269 21.2465C30.6562 21.2465 30.7969 21.1294 30.7969 20.8837C30.7969 20.6379 30.5617 20.5313 30.2626 20.4131L29.9746 20.2966C29.4628 20.0932 28.9175 19.7524 28.9175 18.8657C28.9175 17.7129 29.8042 17.2 30.914 17.2C31.81 17.2 32.3658 17.6481 32.6225 17.8394L32.1107 18.8338Z" fill="#176FC1"/>
<path d="M36.1135 18.3742H35.3664L34.9277 20.8528C34.886 21.0655 34.9596 21.1727 35.1196 21.1727C35.2702 21.1727 35.3873 21.1293 35.5258 21.0655L35.6742 22.0578C35.461 22.1974 35.0553 22.4321 34.4797 22.4321C33.7332 22.4321 33.294 21.9621 33.4765 20.9485L33.9251 18.3742H33.3896L33.5826 17.3072H34.1164L34.4154 16.2182L35.8034 15.9186L35.5572 17.3072H36.3053L36.1135 18.3742Z" fill="#176FC1"/>
<path d="M39.1334 18.2247C38.6854 18.2247 38.2572 18.7904 38.0878 19.6012C39.0377 19.4736 39.6138 19.2499 39.6138 18.6947C39.6138 18.3737 39.4225 18.2247 39.1334 18.2247ZM38.012 20.4241C38.034 20.9793 38.2687 21.2569 38.7497 21.2569C39.3055 21.2569 39.8381 20.9689 40.2339 20.7237L40.6286 21.6626C40.2971 21.9083 39.5814 22.4316 38.5463 22.4316C37.4254 22.4316 36.5283 21.8874 36.5283 20.3719C36.5283 18.6095 37.4997 17.2 39.2098 17.2C40.4895 17.2 41.0442 17.7553 41.0442 18.6095C41.0442 19.9975 39.9129 20.3284 38.012 20.4241" fill="#176FC1"/>
<path d="M45.1242 18.7587C44.3981 18.7587 43.5642 19.3777 43.2876 20.9372L43.0419 22.3247H41.6006L42.4873 17.3064H43.8962L43.7153 18.3635C44.0446 17.6164 44.4299 17.1998 45.4018 17.1998L45.1242 18.7587Z" fill="#176FC1"/>
<path d="M23.3603 10.3501V10.3754C23.3581 10.7338 23.075 11.0933 22.5143 11.3637L3.72301 20.4653C2.59336 21.0134 2.17558 20.567 2.79071 19.4742L6.22914 13.3647C6.72773 12.4731 7.01303 11.4451 7.01303 10.3501C7.01303 9.25451 6.72773 8.226 6.22914 7.33547L2.79071 1.22599C2.17558 0.132619 2.59336 -0.313747 3.72301 0.234315L22.5143 9.33532C23.075 9.60852 23.3581 9.96638 23.3603 10.3248V10.3501Z" fill="#176FC1"/>
</g>
<defs>
<clipPath id="clip0_8408_23885">
<rect width="44.5674" height="32" fill="white" transform="translate(0.834961)"/>
</clipPath>
</defs>
</svg>
