<svg width="76" height="32" viewBox="0 0 76 32" fill="none" xmlns="http://www.w3.org/2000/svg">
<g clip-path="url(#clip0_8402_24625)">
<path fill-rule="evenodd" clip-rule="evenodd" d="M0.834961 5.74156C0.834961 2.57081 3.44113 0 6.65433 0H70.0755C73.2901 0 75.8948 2.57081 75.8948 5.74156V26.2598C75.8948 29.4287 73.2901 32 70.0755 32H6.65433C3.44113 32 0.834961 29.4287 0.834961 26.2598V5.74156Z" fill="#000268"/>
<path fill-rule="evenodd" clip-rule="evenodd" d="M3.22363 5.93784V26.0651C3.22363 28.0461 4.85264 29.6528 6.86206 29.6528H40.089V2.3501H6.86206C4.85264 2.3501 3.22363 3.95678 3.22363 5.93784ZM48.6742 15.9009C48.6742 17.1824 48.0349 18.0631 46.9765 18.0631C46.0414 18.0631 45.2619 17.1824 45.2619 16.0088C45.2619 14.8043 45.9475 13.9088 46.9765 13.9088C48.0677 13.9088 48.6742 14.8353 48.6742 15.9009ZM42.4595 23.2506H45.2619V18.8803H45.2933C45.8241 19.838 46.884 20.1928 47.8648 20.1928C50.2785 20.1928 51.571 18.2169 51.571 15.8388C51.571 13.8939 50.3411 11.7771 48.0976 11.7771C46.8214 11.7771 45.6377 12.2872 45.0755 13.4149H45.0442V11.9639H42.4595V23.2506ZM55.3987 17.4599C55.3987 16.6885 56.1455 16.3962 57.0969 16.3962C57.517 16.3962 57.9226 16.4254 58.2806 16.442C58.2806 17.3834 57.6109 18.341 56.5511 18.341C55.8969 18.341 55.3987 18.0172 55.3987 17.4599ZM61.0517 20.008C60.9279 19.3756 60.8965 18.7413 60.8965 18.109V15.1133C60.8965 12.6583 59.1063 11.7771 57.0343 11.7771C55.8356 11.7771 54.7922 11.9472 53.7949 12.3493L53.8426 14.234C54.6188 13.8008 55.5239 13.6308 56.4272 13.6308C57.438 13.6308 58.2638 13.925 58.2806 15.0216C57.9226 14.9595 57.4231 14.9122 56.9717 14.9122C55.4777 14.9122 52.7827 15.2064 52.7827 17.661C52.7827 19.4066 54.215 20.1928 55.8193 20.1928C56.9717 20.1928 57.7511 19.7467 58.3895 18.7413H58.4208C58.4208 19.1597 58.4666 19.5748 58.4834 20.008H61.0517ZM62.3129 23.2506C62.8896 23.3747 63.4653 23.4373 64.0569 23.4373C66.6271 23.4373 67.2336 21.4757 68.0281 19.4525L71.0039 11.9639H68.1996L66.5332 17.2134H66.5018L64.7574 11.9639H61.7372L65.0228 20.1928C64.82 20.9035 64.291 21.3057 63.605 21.3057C63.2144 21.3057 62.8732 21.2584 62.4989 21.1356L62.3129 23.2506Z" fill="white"/>
<path fill-rule="evenodd" clip-rule="evenodd" d="M10.0692 15.9171C10.0692 14.8205 10.615 13.9087 11.6585 13.9087C12.9198 13.9087 13.4488 14.9122 13.4488 15.8077C13.4488 17.0433 12.6543 17.8768 11.6585 17.8768C10.8178 17.8768 10.0692 17.1675 10.0692 15.9171ZM16.1591 11.9638H13.6203V13.4148H13.5908C12.9973 12.4262 12.0309 11.7771 10.8328 11.7771C8.31025 11.7771 7.17285 13.57 7.17285 15.9629C7.17285 18.341 8.55933 20.0079 10.7846 20.0079C11.9076 20.0079 12.8422 19.5747 13.5114 18.6334H13.5427V19.0665C13.5427 20.6408 12.6707 21.3974 11.0519 21.3974C9.88321 21.3974 9.1659 21.1504 8.31025 20.7339L8.17007 22.9271C8.82291 23.1592 9.92902 23.4372 11.2697 23.4372C14.5404 23.4372 16.1591 22.3712 16.1591 19.0665V11.9638ZM20.8971 8.61328H18.0933V10.6513H20.8971V8.61328ZM18.0947 20.0079H20.8971V11.9638H18.0947V20.0079ZM28.703 11.8702C28.4226 11.8248 28.0796 11.7771 27.7534 11.7771C26.5384 11.7771 25.8379 12.4262 25.3547 13.4459H25.3234V11.9638H22.7696V20.0079H25.5725V16.612C25.5725 15.0364 26.3057 14.0949 27.6132 14.0949C27.9413 14.0949 28.2511 14.0949 28.5628 14.1862L28.703 11.8702ZM33.5298 18.2479C32.2373 18.2479 31.7083 17.1823 31.7083 15.994C31.7083 14.7894 32.2373 13.7239 33.5298 13.7239C34.8238 13.7239 35.3532 14.7894 35.3532 15.994C35.3532 17.1823 34.8238 18.2479 33.5298 18.2479ZM33.5298 20.1928C36.2089 20.1928 38.2496 18.65 38.2496 15.994C38.2496 13.3217 36.2089 11.7771 33.5298 11.7771C30.8512 11.7771 28.8119 13.3217 28.8119 15.994C28.8119 18.65 30.8512 20.1928 33.5298 20.1928Z" fill="#FF0007"/>
</g>
<defs>
<clipPath id="clip0_8402_24625">
<rect width="75.0599" height="32" fill="white" transform="translate(0.834961)"/>
</clipPath>
</defs>
</svg>
