<svg width="46" height="12" viewBox="0 0 46 12" fill="none" xmlns="http://www.w3.org/2000/svg">
<g clip-path="url(#clip0_7288_23671)">
<path d="M6.4444 2.96802V8.19404C6.4444 9.33812 6.25768 10.258 5.88578 10.9551C5.51388 11.6522 4.61829 12 3.20051 12C2.97281 12 2.75726 11.9914 2.55386 11.9741C2.34893 11.9569 2.14249 11.931 1.93301 11.8965C1.73264 11.862 1.52923 11.8189 1.31975 11.7672C1.11027 11.7154 0.893205 11.6507 0.665511 11.5731L0.788467 10.4506C1.0617 10.5627 1.31975 10.659 1.56566 10.7409C1.81157 10.8229 2.05141 10.8847 2.28821 10.9278C2.43394 10.9536 2.57966 10.9723 2.72387 10.9853C2.86959 10.9982 3.01835 11.004 3.17319 11.004C3.62706 11.004 4.01565 10.922 4.33898 10.7582C4.66079 10.5943 4.89456 10.3586 5.04028 10.0482C5.13136 9.87567 5.19056 9.69745 5.21788 9.51348C5.2452 9.32806 5.26342 9.1369 5.27253 8.93856C5.27253 8.89544 5.27253 8.85088 5.27253 8.80345C5.27253 8.75602 5.27253 8.70715 5.27253 8.65541C5.27253 8.58642 5.27253 8.51743 5.27253 8.44844C5.27253 8.37945 5.27708 8.31477 5.28619 8.2544C5.0418 8.59792 4.73061 8.85663 4.35264 9.02767C3.97619 9.20014 3.5466 9.28638 3.06541 9.28638C2.18499 9.28638 1.4761 9.00036 0.940263 8.42832C0.404422 7.85627 0.135742 7.10169 0.135742 6.16313C0.135742 5.19152 0.405939 4.39957 0.946334 3.78872C1.48673 3.17787 2.18347 2.87316 3.03809 2.87316C3.5466 2.87316 4.00503 2.98096 4.41488 3.19655C4.82321 3.41215 5.11466 3.70392 5.28619 4.07474C5.28619 4.05749 5.28619 4.04024 5.28619 4.023C5.28619 4.00575 5.29074 3.9885 5.29985 3.97125C5.29985 3.96263 5.29985 3.95401 5.29985 3.94538C5.29985 3.93676 5.29985 3.92814 5.29985 3.91951L5.28619 3.75135V2.96371H6.4444V2.96802ZM3.32346 3.87064C2.76941 3.87064 2.31705 4.08624 1.96792 4.51599C1.61879 4.94574 1.44271 5.49192 1.44271 6.15451C1.44271 6.78261 1.61272 7.2986 1.95426 7.70248C2.29429 8.10636 2.73753 8.30902 3.28248 8.30902C3.85475 8.30902 4.32228 8.10205 4.68659 7.68954C5.04939 7.27704 5.23154 6.74811 5.23154 6.10277C5.23154 5.46604 5.04787 4.93568 4.679 4.5088C4.31166 4.08336 3.8593 3.87064 3.32346 3.87064ZM9.50157 2.98096V9.29069H8.2614V2.98096H9.50157ZM9.52889 0.1811V1.47179H8.17943V0.1811H9.52889ZM10.8951 2.98096H12.0396L12.0943 4.10349C12.2946 3.70823 12.5572 3.40927 12.8851 3.20661C13.213 3.00395 13.5849 2.90334 14.0023 2.90334C14.057 2.90334 14.104 2.90334 14.145 2.90334C14.186 2.90334 14.2285 2.90765 14.274 2.91628C14.3287 2.91628 14.3879 2.92203 14.4516 2.93496C14.5154 2.9479 14.5883 2.96227 14.6687 2.97952V4.05031C14.5959 4.02443 14.5351 4.00575 14.485 3.99281C14.4349 3.97988 14.3833 3.96982 14.3287 3.96119C14.2923 3.96119 14.2543 3.95832 14.2133 3.95401C14.1723 3.94969 14.1298 3.94682 14.0843 3.94682C13.4938 3.94682 13.0536 4.14948 12.7622 4.55336C12.4707 4.95724 12.2946 5.39993 12.2309 5.88286C12.2218 5.96047 12.2142 6.03953 12.2096 6.12145C12.2051 6.20338 12.202 6.28243 12.202 6.36004V9.28926H10.9755V5.44448C10.9755 5.23751 10.974 5.03198 10.9694 4.82501C10.9649 4.61804 10.9588 4.4125 10.9497 4.20553C10.9406 4.00719 10.9315 3.80596 10.9224 3.59899C10.9133 3.39202 10.9042 3.18649 10.8951 2.97952V2.98096ZM21.703 6.15451C21.703 7.1175 21.3827 7.90658 20.7421 8.52174C20.1015 9.1369 19.2773 9.44448 18.2693 9.44448C17.2614 9.44448 16.4781 9.13547 15.8375 8.51599C15.197 7.89651 14.8767 7.11031 14.8767 6.15451C14.8767 5.19871 15.197 4.38232 15.8375 3.75422C16.4781 3.12612 17.2933 2.81279 18.283 2.81279C19.2818 2.81279 20.1 3.12469 20.736 3.74847C21.372 4.37226 21.6938 5.17427 21.7045 6.15451H21.703ZM20.3945 6.18038C20.3854 5.46604 20.188 4.88106 19.8009 4.42544C19.4154 3.96982 18.9129 3.74129 18.2951 3.74129C17.6864 3.74129 17.1825 3.96694 16.7817 4.41825C16.3825 4.86957 16.1821 5.44448 16.1821 6.14157C16.1821 6.84729 16.3795 7.42077 16.7741 7.86346C17.1688 8.30614 17.6758 8.52749 18.2936 8.52749C18.9114 8.52749 19.4048 8.30614 19.7994 7.86346C20.1941 7.42077 20.393 6.85879 20.393 6.17894L20.3945 6.18038ZM27.1115 3.16062L27.0295 4.1926C26.8473 4.08911 26.6591 4.01581 26.4633 3.97269C26.2675 3.92957 26.0519 3.90801 25.8166 3.90801C25.1533 3.90801 24.6129 4.11211 24.1954 4.5203C23.778 4.92849 23.5685 5.45167 23.5685 6.08839C23.5685 6.76824 23.7735 7.31872 24.1818 7.73985C24.5901 8.16098 25.126 8.37226 25.7893 8.37226C25.9259 8.37226 26.0519 8.36364 26.1703 8.34639C26.2887 8.32914 26.4071 8.30327 26.524 8.26877C26.6242 8.2429 26.7289 8.2041 26.8382 8.15235C26.9475 8.10061 27.0614 8.04024 27.1782 7.97125L27.2739 9.04204C27.028 9.15415 26.776 9.2332 26.5179 9.28063C26.2584 9.32806 25.9654 9.35106 25.639 9.35106C24.622 9.35106 23.8038 9.05641 23.186 8.46712C22.5682 7.87783 22.26 7.10169 22.26 6.1387C22.26 5.17571 22.5758 4.42688 23.2073 3.81603C23.8387 3.20517 24.6357 2.90047 25.598 2.90047C25.6436 2.90047 25.6861 2.90047 25.7271 2.90047C25.7681 2.90047 25.8106 2.90478 25.8561 2.9134C26.0747 2.92203 26.2902 2.9479 26.5028 2.99102C26.7168 3.03414 26.9187 3.09019 27.1084 3.15918L27.1115 3.16062ZM28.6188 3.45814C28.7281 3.39777 28.8343 3.34459 28.9391 3.29716C29.0438 3.24973 29.1501 3.20517 29.2594 3.16206C29.5129 3.06719 29.7709 2.99677 30.029 2.94934C30.2885 2.9019 30.5633 2.87891 30.8532 2.87891C31.471 2.87891 31.9902 2.99102 32.4137 3.2138C32.8357 3.43802 33.1332 3.75566 33.3063 4.16816C33.3791 4.35789 33.4307 4.58785 33.4626 4.85807C33.4945 5.12828 33.5097 5.48329 33.5097 5.9231V7.68379C33.5097 7.86058 33.5142 8.03881 33.5233 8.21847C33.5233 8.39957 33.5279 8.57779 33.537 8.75458C33.5461 8.93137 33.5598 9.10959 33.578 9.29069H32.4471C32.4471 9.2217 32.4441 9.16565 32.4395 9.12253C32.4349 9.07941 32.4319 9.03629 32.4319 8.99317C32.4319 8.95868 32.4319 8.92706 32.4319 8.89687C32.4319 8.86669 32.4319 8.83507 32.4319 8.80058C32.4319 8.75746 32.4319 8.72152 32.4319 8.69134C32.4319 8.66116 32.4319 8.62954 32.4319 8.59504C32.4319 8.53467 32.4349 8.47431 32.4395 8.41394C32.4441 8.35358 32.4471 8.28458 32.4471 8.20697C32.1921 8.61085 31.8854 8.90693 31.5272 9.09091C31.169 9.27632 30.7303 9.36831 30.2127 9.36831C29.5129 9.36831 28.9512 9.19871 28.5292 8.85807C28.1072 8.51886 27.8962 8.06037 27.8962 7.48401C27.8962 6.82142 28.1983 6.31261 28.8025 5.95473C29.4066 5.59828 30.2673 5.42005 31.3845 5.42005C31.4118 5.42005 31.4361 5.42005 31.4589 5.42005C31.4817 5.42005 31.5014 5.42005 31.5196 5.42005C31.6289 5.42005 31.7443 5.42149 31.8672 5.4258C31.9902 5.43011 32.1374 5.43586 32.3105 5.44448C32.3014 4.91125 32.1632 4.51599 31.8946 4.25728C31.6259 3.99856 31.2115 3.87064 30.6483 3.87064C30.4388 3.87064 30.2445 3.88645 30.0624 3.91664C29.8802 3.94682 29.6996 3.99569 29.5174 4.06468C29.3808 4.1078 29.2457 4.16385 29.1091 4.23284C28.9725 4.30183 28.8313 4.38376 28.6871 4.47862L28.6188 3.45958V3.45814ZM32.3393 6.30974C32.2756 6.30111 32.2164 6.29393 32.1617 6.28962C32.1071 6.2853 32.057 6.28243 32.0114 6.28243C31.9568 6.27381 31.9052 6.26949 31.8551 6.26949C31.805 6.26949 31.7443 6.26949 31.6714 6.26949C30.8532 6.26949 30.2385 6.36867 29.8256 6.56701C29.4127 6.76536 29.2062 7.06576 29.2062 7.46964C29.2062 7.76141 29.3246 7.99856 29.5599 8.17966C29.7967 8.36076 30.1049 8.44987 30.4859 8.44987C31.2039 8.44987 31.6927 8.23715 31.9507 7.81171C32.2088 7.38627 32.3393 6.88466 32.3393 6.3083V6.30974ZM34.9836 2.98096H36.1282L36.1828 4.10349C36.3832 3.70823 36.6458 3.40927 36.9737 3.20661C37.3015 3.00395 37.6734 2.90334 38.0909 2.90334C38.1455 2.90334 38.1926 2.90334 38.2336 2.90334C38.2746 2.90334 38.3171 2.90765 38.3626 2.91628C38.4172 2.91628 38.4764 2.92203 38.5402 2.93496C38.6039 2.9479 38.6768 2.96227 38.7573 2.97952V4.05031C38.6844 4.02443 38.6237 4.00575 38.5736 3.99281C38.5235 3.97988 38.4719 3.96982 38.4172 3.96119C38.3808 3.96119 38.3429 3.95832 38.3019 3.95401C38.2609 3.94969 38.2184 3.94682 38.1728 3.94682C37.5824 3.94682 37.1422 4.14948 36.8507 4.55336C36.5593 4.95724 36.3832 5.39993 36.3194 5.88286C36.3103 5.96047 36.3027 6.03953 36.2982 6.12145C36.2936 6.20338 36.2906 6.28243 36.2906 6.36004V9.28926H35.0641V5.44448C35.0641 5.23751 35.0625 5.03198 35.058 4.82501C35.0534 4.61804 35.0474 4.4125 35.0383 4.20553C35.0291 4.00719 35.02 3.80596 35.0109 3.59899C35.0018 3.39202 34.9927 3.18649 34.9836 2.97952V2.98096ZM45.0401 0V6.34854C45.0401 6.83866 45.0492 7.32878 45.0674 7.8189C45.0856 8.30902 45.1084 8.79914 45.1357 9.28926H43.9366V8.23141C43.6724 8.61804 43.3537 8.90406 42.9757 9.08947C42.5992 9.27488 42.1514 9.36687 41.6338 9.36687C40.7443 9.36687 40.0354 9.07941 39.5087 8.50305C38.9819 7.9267 38.7178 7.14768 38.7178 6.16745C38.7178 5.18721 38.9865 4.39382 39.5223 3.78728C40.0582 3.18074 40.7625 2.87747 41.6338 2.87747C42.1059 2.87747 42.5294 2.96946 42.9013 3.15487C43.2732 3.34028 43.5874 3.61337 43.8424 3.97413C43.8424 3.90514 43.8394 3.83471 43.8348 3.76141C43.8303 3.68811 43.8273 3.61337 43.8273 3.53575C43.8182 3.46676 43.8106 3.39634 43.806 3.32303C43.8015 3.24973 43.7984 3.1793 43.7984 3.11031V0H45.0386H45.0401ZM41.9328 3.87064C41.3788 3.87064 40.9219 4.08336 40.5636 4.5088C40.2054 4.93424 40.0248 5.48329 40.0248 6.15451C40.0248 6.80848 40.1978 7.34459 40.5424 7.76141C40.887 8.17823 41.3378 8.38663 41.8919 8.38663C42.4459 8.38663 42.918 8.17391 43.2823 7.74847C43.6451 7.32303 43.8273 6.78692 43.8273 6.14301C43.8273 5.49766 43.6451 4.95724 43.2823 4.52318C42.9195 4.08911 42.4687 3.87208 41.9328 3.87208V3.87064Z" fill="#2558F4"/>
</g>
<defs>
<clipPath id="clip0_7288_23671">
<rect width="45" height="12" fill="white" transform="translate(0.135742)"/>
</clipPath>
</defs>
</svg>
