<svg width="46" height="12" viewBox="0 0 46 12" fill="none" xmlns="http://www.w3.org/2000/svg">
<g clip-path="url(#clip0_7288_23671)">
<path d="M6.32916 2.96802V8.19404C6.32916 9.33812 6.14245 10.258 5.77055 10.9551C5.39865 11.6522 4.50305 12 3.08527 12C2.85758 12 2.64203 11.9914 2.43862 11.9741C2.2337 11.9569 2.02725 11.931 1.81777 11.8965C1.6174 11.862 1.414 11.8189 1.20452 11.7672C0.99504 11.7154 0.777971 11.6507 0.550276 11.5731L0.673232 10.4506C0.946465 10.5627 1.20452 10.659 1.45043 10.7409C1.69634 10.8229 1.93618 10.8847 2.17298 10.9278C2.3187 10.9536 2.46443 10.9723 2.60863 10.9853C2.75436 10.9982 2.90312 11.004 3.05795 11.004C3.51182 11.004 3.90042 10.922 4.22375 10.7582C4.54555 10.5943 4.77932 10.3586 4.92505 10.0482C5.01612 9.87567 5.07532 9.69745 5.10265 9.51348C5.12997 9.32806 5.14819 9.1369 5.15729 8.93856C5.15729 8.89544 5.15729 8.85088 5.15729 8.80345C5.15729 8.75602 5.15729 8.70715 5.15729 8.65541C5.15729 8.58642 5.15729 8.51743 5.15729 8.44844C5.15729 8.37945 5.16185 8.31477 5.17095 8.2544C4.92656 8.59792 4.61538 8.85663 4.23741 9.02767C3.86095 9.20014 3.43137 9.28638 2.95018 9.28638C2.06976 9.28638 1.36087 9.00036 0.825028 8.42832C0.289188 7.85627 0.0205078 7.10169 0.0205078 6.16313C0.0205078 5.19152 0.290705 4.39957 0.831099 3.78872C1.37149 3.17787 2.06824 2.87316 2.92285 2.87316C3.43137 2.87316 3.88979 2.98096 4.29964 3.19655C4.70798 3.41215 4.99942 3.70392 5.17095 4.07474C5.17095 4.05749 5.17095 4.04024 5.17095 4.023C5.17095 4.00575 5.17551 3.9885 5.18462 3.97125C5.18462 3.96263 5.18462 3.95401 5.18462 3.94538C5.18462 3.93676 5.18462 3.92814 5.18462 3.91951L5.17095 3.75135V2.96371H6.32916V2.96802ZM3.20823 3.87064C2.65417 3.87064 2.20182 4.08624 1.85269 4.51599C1.50356 4.94574 1.32747 5.49192 1.32747 6.15451C1.32747 6.78261 1.49749 7.2986 1.83903 7.70248C2.17905 8.10636 2.6223 8.30902 3.16724 8.30902C3.73952 8.30902 4.20705 8.10205 4.57136 7.68954C4.93415 7.27704 5.11631 6.74811 5.11631 6.10277C5.11631 5.46604 4.93263 4.93568 4.56377 4.5088C4.19642 4.08336 3.74407 3.87064 3.20823 3.87064ZM9.38634 2.98096V9.29069H8.14616V2.98096H9.38634ZM9.41366 0.1811V1.47179H8.06419V0.1811H9.41366ZM10.7798 2.98096H11.9244L11.979 4.10349C12.1794 3.70823 12.442 3.40927 12.7699 3.20661C13.0978 3.00395 13.4697 2.90334 13.8871 2.90334C13.9417 2.90334 13.9888 2.90334 14.0298 2.90334C14.0708 2.90334 14.1133 2.90765 14.1588 2.91628C14.2135 2.91628 14.2727 2.92203 14.3364 2.93496C14.4002 2.9479 14.473 2.96227 14.5535 2.97952V4.05031C14.4806 4.02443 14.4199 4.00575 14.3698 3.99281C14.3197 3.97988 14.2681 3.96982 14.2135 3.96119C14.177 3.96119 14.1391 3.95832 14.0981 3.95401C14.0571 3.94969 14.0146 3.94682 13.9691 3.94682C13.3786 3.94682 12.9384 4.14948 12.6469 4.55336C12.3555 4.95724 12.1794 5.39993 12.1156 5.88286C12.1065 5.96047 12.0989 6.03953 12.0944 6.12145C12.0898 6.20338 12.0868 6.28243 12.0868 6.36004V9.28926H10.8603V5.44448C10.8603 5.23751 10.8588 5.03198 10.8542 4.82501C10.8497 4.61804 10.8436 4.4125 10.8345 4.20553C10.8254 4.00719 10.8163 3.80596 10.8071 3.59899C10.798 3.39202 10.7889 3.18649 10.7798 2.97952V2.98096ZM21.5877 6.15451C21.5877 7.1175 21.2674 7.90658 20.6268 8.52174C19.9863 9.1369 19.162 9.44448 18.1541 9.44448C17.1462 9.44448 16.3629 9.13547 15.7223 8.51599C15.0817 7.89651 14.7614 7.11031 14.7614 6.15451C14.7614 5.19871 15.0817 4.38232 15.7223 3.75422C16.3629 3.12612 17.178 2.81279 18.1677 2.81279C19.1666 2.81279 19.9847 3.12469 20.6208 3.74847C21.2568 4.37226 21.5786 5.17427 21.5892 6.15451H21.5877ZM20.2792 6.18038C20.2701 5.46604 20.0728 4.88106 19.6857 4.42544C19.3001 3.96982 18.7977 3.74129 18.1799 3.74129C17.5712 3.74129 17.0672 3.96694 16.6665 4.41825C16.2673 4.86957 16.0669 5.44448 16.0669 6.14157C16.0669 6.84729 16.2642 7.42077 16.6589 7.86346C17.0536 8.30614 17.5606 8.52749 18.1784 8.52749C18.7962 8.52749 19.2895 8.30614 19.6842 7.86346C20.0789 7.42077 20.2777 6.85879 20.2777 6.17894L20.2792 6.18038ZM26.9962 3.16062L26.9143 4.1926C26.7321 4.08911 26.5439 4.01581 26.348 3.97269C26.1522 3.92957 25.9367 3.90801 25.7014 3.90801C25.038 3.90801 24.4977 4.11211 24.0802 4.5203C23.6628 4.92849 23.4533 5.45167 23.4533 6.08839C23.4533 6.76824 23.6582 7.31872 24.0666 7.73985C24.4749 8.16098 25.0107 8.37226 25.6741 8.37226C25.8107 8.37226 25.9367 8.36364 26.0551 8.34639C26.1735 8.32914 26.2919 8.30327 26.4088 8.26877C26.509 8.2429 26.6137 8.2041 26.723 8.15235C26.8323 8.10061 26.9461 8.04024 27.063 7.97125L27.1586 9.04204C26.9127 9.15415 26.6608 9.2332 26.4027 9.28063C26.1431 9.32806 25.8502 9.35106 25.5238 9.35106C24.5068 9.35106 23.6886 9.05641 23.0708 8.46712C22.453 7.87783 22.1448 7.10169 22.1448 6.1387C22.1448 5.17571 22.4605 4.42688 23.092 3.81603C23.7235 3.20517 24.5204 2.90047 25.4828 2.90047C25.5284 2.90047 25.5709 2.90047 25.6118 2.90047C25.6528 2.90047 25.6953 2.90478 25.7409 2.9134C25.9595 2.92203 26.175 2.9479 26.3875 2.99102C26.6016 3.03414 26.8034 3.09019 26.9932 3.15918L26.9962 3.16062ZM28.5036 3.45814C28.6129 3.39777 28.7191 3.34459 28.8238 3.29716C28.9286 3.24973 29.0348 3.20517 29.1441 3.16206C29.3976 3.06719 29.6557 2.99677 29.9137 2.94934C30.1733 2.9019 30.4481 2.87891 30.738 2.87891C31.3558 2.87891 31.875 2.99102 32.2985 3.2138C32.7205 3.43802 33.018 3.75566 33.191 4.16816C33.2639 4.35789 33.3155 4.58785 33.3474 4.85807C33.3793 5.12828 33.3944 5.48329 33.3944 5.9231V7.68379C33.3944 7.86058 33.399 8.03881 33.4081 8.21847C33.4081 8.39957 33.4126 8.57779 33.4218 8.75458C33.4309 8.93137 33.4445 9.10959 33.4627 9.29069H32.3319C32.3319 9.2217 32.3288 9.16565 32.3243 9.12253C32.3197 9.07941 32.3167 9.03629 32.3167 8.99317C32.3167 8.95868 32.3167 8.92706 32.3167 8.89687C32.3167 8.86669 32.3167 8.83507 32.3167 8.80058C32.3167 8.75746 32.3167 8.72152 32.3167 8.69134C32.3167 8.66116 32.3167 8.62954 32.3167 8.59504C32.3167 8.53467 32.3197 8.47431 32.3243 8.41394C32.3288 8.35358 32.3319 8.28458 32.3319 8.20697C32.0768 8.61085 31.7702 8.90693 31.412 9.09091C31.0537 9.27632 30.615 9.36831 30.0974 9.36831C29.3976 9.36831 28.836 9.19871 28.414 8.85807C27.992 8.51886 27.781 8.06037 27.781 7.48401C27.781 6.82142 28.0831 6.31261 28.6872 5.95473C29.2914 5.59828 30.1521 5.42005 31.2693 5.42005C31.2966 5.42005 31.3209 5.42005 31.3437 5.42005C31.3664 5.42005 31.3862 5.42005 31.4044 5.42005C31.5137 5.42005 31.629 5.42149 31.752 5.4258C31.875 5.43011 32.0222 5.43586 32.1952 5.44448C32.1861 4.91125 32.048 4.51599 31.7793 4.25728C31.5106 3.99856 31.0962 3.87064 30.5331 3.87064C30.3236 3.87064 30.1293 3.88645 29.9471 3.91664C29.765 3.94682 29.5843 3.99569 29.4022 4.06468C29.2656 4.1078 29.1305 4.16385 28.9939 4.23284C28.8572 4.30183 28.7161 4.38376 28.5719 4.47862L28.5036 3.45958V3.45814ZM32.2241 6.30974C32.1603 6.30111 32.1011 6.29393 32.0465 6.28962C31.9918 6.2853 31.9417 6.28243 31.8962 6.28243C31.8416 6.27381 31.7899 6.26949 31.7399 6.26949C31.6898 6.26949 31.629 6.26949 31.5562 6.26949C30.738 6.26949 30.1232 6.36867 29.7103 6.56701C29.2975 6.76536 29.091 7.06576 29.091 7.46964C29.091 7.76141 29.2094 7.99856 29.4447 8.17966C29.6815 8.36076 29.9896 8.44987 30.3707 8.44987C31.0886 8.44987 31.5774 8.23715 31.8355 7.81171C32.0935 7.38627 32.2241 6.88466 32.2241 6.3083V6.30974ZM34.8684 2.98096H36.0129L36.0676 4.10349C36.2679 3.70823 36.5305 3.40927 36.8584 3.20661C37.1863 3.00395 37.5582 2.90334 37.9756 2.90334C38.0303 2.90334 38.0773 2.90334 38.1183 2.90334C38.1593 2.90334 38.2018 2.90765 38.2474 2.91628C38.302 2.91628 38.3612 2.92203 38.425 2.93496C38.4887 2.9479 38.5616 2.96227 38.642 2.97952V4.05031C38.5692 4.02443 38.5084 4.00575 38.4584 3.99281C38.4083 3.97988 38.3567 3.96982 38.302 3.96119C38.2656 3.96119 38.2276 3.95832 38.1866 3.95401C38.1457 3.94969 38.1032 3.94682 38.0576 3.94682C37.4671 3.94682 37.0269 4.14948 36.7355 4.55336C36.444 4.95724 36.2679 5.39993 36.2042 5.88286C36.1951 5.96047 36.1875 6.03953 36.1829 6.12145C36.1784 6.20338 36.1753 6.28243 36.1753 6.36004V9.28926H34.9488V5.44448C34.9488 5.23751 34.9473 5.03198 34.9428 4.82501C34.9382 4.61804 34.9321 4.4125 34.923 4.20553C34.9139 4.00719 34.9048 3.80596 34.8957 3.59899C34.8866 3.39202 34.8775 3.18649 34.8684 2.97952V2.98096ZM44.9249 0V6.34854C44.9249 6.83866 44.934 7.32878 44.9522 7.8189C44.9704 8.30902 44.9932 8.79914 45.0205 9.28926H43.8213V8.23141C43.5572 8.61804 43.2384 8.90406 42.8604 9.08947C42.484 9.27488 42.0362 9.36687 41.5186 9.36687C40.629 9.36687 39.9202 9.07941 39.3934 8.50305C38.8667 7.9267 38.6026 7.14768 38.6026 6.16745C38.6026 5.18721 38.8712 4.39382 39.4071 3.78728C39.9429 3.18074 40.6473 2.87747 41.5186 2.87747C41.9907 2.87747 42.4142 2.96946 42.7861 3.15487C43.158 3.34028 43.4722 3.61337 43.7272 3.97413C43.7272 3.90514 43.7242 3.83471 43.7196 3.76141C43.7151 3.68811 43.712 3.61337 43.712 3.53575C43.7029 3.46676 43.6953 3.39634 43.6908 3.32303C43.6862 3.24973 43.6832 3.1793 43.6832 3.11031V0H44.9234H44.9249ZM41.8176 3.87064C41.2635 3.87064 40.8066 4.08336 40.4484 4.5088C40.0902 4.93424 39.9095 5.48329 39.9095 6.15451C39.9095 6.80848 40.0826 7.34459 40.4272 7.76141C40.7717 8.17823 41.2226 8.38663 41.7766 8.38663C42.3307 8.38663 42.8028 8.17391 43.1671 7.74847C43.5299 7.32303 43.712 6.78692 43.712 6.14301C43.712 5.49766 43.5299 4.95724 43.1671 4.52318C42.8043 4.08911 42.3534 3.87208 41.8176 3.87208V3.87064Z" fill="#2558F4"/>
</g>
<defs>
<clipPath id="clip0_7288_23671">
<rect width="45" height="12" fill="white" transform="translate(0.0205078)"/>
</clipPath>
</defs>
</svg>
