<svg width="91" height="24" viewBox="0 0 91 24" fill="none" xmlns="http://www.w3.org/2000/svg">
<g clip-path="url(#clip0_8339_23757)">
<path d="M13.4523 5.93604V16.3881C13.4523 18.6762 13.0788 20.516 12.335 21.9102C11.5912 23.3043 9.80005 24 6.96449 24C6.50911 24 6.078 23.9828 5.67119 23.9483C5.26134 23.9138 4.84845 23.862 4.4295 23.793C4.02875 23.724 3.62194 23.6378 3.20298 23.5343C2.78403 23.4308 2.34989 23.3015 1.8945 23.1462L2.14041 20.9012C2.68688 21.1254 3.20298 21.318 3.6948 21.4819C4.18662 21.6457 4.6663 21.7693 5.1399 21.8556C5.43135 21.9073 5.7228 21.9447 6.01121 21.9705C6.30266 21.9964 6.60018 22.0079 6.90985 22.0079C7.81759 22.0079 8.59479 21.8441 9.24144 21.5163C9.88505 21.1886 10.3526 20.7172 10.644 20.0963C10.8262 19.7513 10.9446 19.3949 10.9992 19.027C11.0539 18.6561 11.0903 18.2738 11.1085 17.8771C11.1085 17.7909 11.1085 17.7018 11.1085 17.6069C11.1085 17.512 11.1085 17.4143 11.1085 17.3108C11.1085 17.1728 11.1085 17.0349 11.1085 16.8969C11.1085 16.7589 11.1176 16.6295 11.1359 16.5088C10.6471 17.1958 10.0247 17.7133 9.26876 18.0553C8.51585 18.4003 7.65669 18.5728 6.6943 18.5728C4.93346 18.5728 3.51568 18.0007 2.444 16.8566C1.37232 15.7125 0.834961 14.2034 0.834961 12.3263C0.834961 10.383 1.37535 8.79914 2.45614 7.57743C3.53693 6.35573 4.93042 5.74632 6.63965 5.74632C7.65669 5.74632 8.57353 5.96191 9.39323 6.3931C10.2099 6.82429 10.7928 7.40783 11.1359 8.14948C11.1359 8.11498 11.1359 8.08049 11.1359 8.04599C11.1359 8.0115 11.145 7.977 11.1632 7.94251C11.1632 7.92526 11.1632 7.90801 11.1632 7.89077C11.1632 7.87352 11.1632 7.85627 11.1632 7.83902L11.1359 7.5027V5.92742H13.4523V5.93604ZM7.2104 7.74129C6.10229 7.74129 5.19759 8.17248 4.49932 9.03198C3.80106 9.89148 3.44889 10.9838 3.44889 12.309C3.44889 13.5652 3.78892 14.5972 4.472 15.405C5.15205 16.2127 6.03854 16.618 7.12843 16.618C8.27298 16.618 9.20804 16.2041 9.93667 15.3791C10.6623 14.5541 11.0266 13.4962 11.0266 12.2055C11.0266 10.9321 10.6592 9.87136 9.92148 9.01761C9.18679 8.16673 8.28209 7.74129 7.2104 7.74129ZM19.5666 5.96191V18.5814H17.0863V5.96191H19.5666ZM19.6213 0.362199V2.94359H16.9223V0.362199H19.6213V0.362199ZM22.3536 5.96191H24.6427L24.752 8.20697C25.1527 7.41646 25.6779 6.81854 26.3337 6.41322C26.9895 6.00791 27.7333 5.80668 28.5681 5.80668C28.6774 5.80668 28.7715 5.80668 28.8535 5.80668C28.9355 5.80668 29.0205 5.81531 29.1116 5.83256C29.2209 5.83256 29.3393 5.84405 29.4668 5.86992C29.5943 5.8958 29.74 5.92454 29.9009 5.95904V8.10061C29.7552 8.04887 29.6337 8.0115 29.5336 7.98563C29.4334 7.95976 29.3302 7.93963 29.2209 7.92239C29.148 7.92239 29.0721 7.91664 28.9901 7.90801C28.9082 7.89939 28.8232 7.89364 28.7321 7.89364C27.5511 7.89364 26.6707 8.29896 26.0878 9.10672C25.5049 9.91448 25.1527 10.7999 25.0252 11.7657C25.007 11.9209 24.9918 12.0791 24.9827 12.2429C24.9736 12.4068 24.9675 12.5649 24.9675 12.7201V18.5785H22.5145V10.889C22.5145 10.475 22.5115 10.064 22.5024 9.65002C22.4933 9.23608 22.4811 8.82501 22.4629 8.41107C22.4447 8.01437 22.4265 7.61193 22.4082 7.19799C22.39 6.78405 22.3718 6.37298 22.3536 5.95904V5.96191ZM43.9694 12.309C43.9694 14.235 43.3288 15.8132 42.0476 17.0435C40.7665 18.2738 39.118 18.889 37.1021 18.889C35.0863 18.889 33.5197 18.2709 32.2386 17.032C30.9574 15.793 30.3168 14.2206 30.3168 12.309C30.3168 10.3974 30.9574 8.76464 32.2386 7.50844C33.5197 6.25225 35.15 5.62558 37.1294 5.62558C39.1271 5.62558 40.7634 6.24937 42.0355 7.49695C43.3075 8.74452 43.9512 10.3485 43.9724 12.309H43.9694ZM41.3524 12.3608C41.3342 10.9321 40.9395 9.76213 40.1654 8.85088C39.3942 7.93963 38.3894 7.48257 37.1537 7.48257C35.9363 7.48257 34.9284 7.93388 34.1269 8.83651C33.3285 9.73913 32.9277 10.889 32.9277 12.2831C32.9277 13.6946 33.3224 14.8415 34.1117 15.7269C34.9011 16.6123 35.9151 17.055 37.1507 17.055C38.3863 17.055 39.373 16.6123 40.1623 15.7269C40.9517 14.8415 41.3494 13.7176 41.3494 12.3579L41.3524 12.3608ZM54.7864 6.32124L54.6224 8.3852C54.2581 8.17823 53.8817 8.03162 53.49 7.94538C53.0984 7.85914 52.6673 7.81603 52.1967 7.81603C50.87 7.81603 49.7893 8.22422 48.9544 9.0406C48.1195 9.85699 47.7005 10.9033 47.7005 12.1768C47.7005 13.5365 48.1104 14.6374 48.9271 15.4797C49.7437 16.322 50.8154 16.7445 52.1421 16.7445C52.4153 16.7445 52.6673 16.7273 52.9041 16.6928C53.1409 16.6583 53.3777 16.6065 53.6115 16.5375C53.8119 16.4858 54.0213 16.4082 54.2399 16.3047C54.4585 16.2012 54.6862 16.0805 54.92 15.9425L55.1112 18.0841C54.6194 18.3083 54.1155 18.4664 53.5993 18.5613C53.0802 18.6561 52.4943 18.7021 51.8415 18.7021C49.8075 18.7021 48.1711 18.1128 46.9355 16.9342C45.6999 15.7557 45.0836 14.2034 45.0836 12.2774C45.0836 10.3514 45.715 8.85375 46.978 7.63205C48.2409 6.41035 49.8348 5.80093 51.7596 5.80093C51.8507 5.80093 51.9356 5.80093 52.0176 5.80093C52.0996 5.80093 52.1846 5.80956 52.2757 5.82681C52.7128 5.84405 53.144 5.8958 53.569 5.98203C53.997 6.06827 54.4008 6.18038 54.7803 6.31836L54.7864 6.32124ZM57.8011 6.91628C58.0196 6.79554 58.2322 6.68918 58.4416 6.59432C58.6511 6.49946 58.8636 6.41035 59.0822 6.32411C59.5892 6.13439 60.1053 5.99353 60.6214 5.89867C61.1406 5.80381 61.6901 5.75782 62.2699 5.75782C63.5056 5.75782 64.5439 5.98203 65.3909 6.4276C66.2349 6.87603 66.8299 7.51132 67.176 8.33633C67.3217 8.71577 67.4249 9.17571 67.4887 9.71613C67.5525 10.2566 67.5828 10.9666 67.5828 11.8462V15.3676C67.5828 15.7212 67.5919 16.0776 67.6101 16.4369C67.6101 16.7991 67.6192 17.1556 67.6375 17.5092C67.6557 17.8627 67.683 18.2192 67.7194 18.5814H65.4577C65.4577 18.4434 65.4516 18.3313 65.4425 18.2451C65.4334 18.1588 65.4273 18.0726 65.4273 17.9863C65.4273 17.9174 65.4273 17.8541 65.4273 17.7937C65.4273 17.7334 65.4273 17.6701 65.4273 17.6012C65.4273 17.5149 65.4273 17.443 65.4273 17.3827C65.4273 17.3223 65.4273 17.2591 65.4273 17.1901C65.4273 17.0693 65.4334 16.9486 65.4425 16.8279C65.4516 16.7072 65.4577 16.5692 65.4577 16.4139C64.9476 17.2217 64.3344 17.8139 63.6179 18.1818C62.9014 18.5526 62.024 18.7366 60.9888 18.7366C59.5892 18.7366 58.4659 18.3974 57.6219 17.7161C56.778 17.0377 56.356 16.1207 56.356 14.968C56.356 13.6428 56.9601 12.6252 58.1684 11.9095C59.3767 11.1966 61.0981 10.8401 63.3325 10.8401C63.3872 10.8401 63.4357 10.8401 63.4813 10.8401C63.5268 10.8401 63.5663 10.8401 63.6027 10.8401C63.8213 10.8401 64.052 10.843 64.2979 10.8516C64.5439 10.8602 64.8383 10.8717 65.1844 10.889C65.1662 9.82249 64.8899 9.03198 64.3526 8.51455C63.8152 7.99713 62.9864 7.74129 61.8601 7.74129C61.4411 7.74129 61.0525 7.77291 60.6882 7.83327C60.3239 7.89364 59.9626 7.99138 59.5983 8.12936C59.3251 8.2156 59.0549 8.3277 58.7817 8.46568C58.5084 8.60367 58.2261 8.76752 57.9377 8.95724L57.8011 6.91915V6.91628ZM65.2421 12.6195C65.1146 12.6022 64.9962 12.5879 64.8869 12.5792C64.7776 12.5706 64.6774 12.5649 64.5864 12.5649C64.4771 12.5476 64.3738 12.539 64.2737 12.539C64.1735 12.539 64.052 12.539 63.9063 12.539C62.2699 12.539 61.0404 12.7373 60.2146 13.134C59.3888 13.5307 58.976 14.1315 58.976 14.9393C58.976 15.5228 59.2128 15.9971 59.6833 16.3593C60.1569 16.7215 60.7732 16.8997 61.5352 16.8997C62.9712 16.8997 63.9488 16.4743 64.4649 15.6234C64.981 14.7725 65.2421 13.7693 65.2421 12.6166V12.6195ZM70.5307 5.96191H72.8198L72.9291 8.20697C73.3298 7.41646 73.855 6.81854 74.5108 6.41322C75.1665 6.00791 75.9104 5.80668 76.7452 5.80668C76.8545 5.80668 76.9486 5.80668 77.0306 5.80668C77.1126 5.80668 77.1976 5.81531 77.2887 5.83256C77.398 5.83256 77.5164 5.84405 77.6439 5.86992C77.7714 5.8958 77.9171 5.92454 78.078 5.95904V8.10061C77.9323 8.04887 77.8108 8.0115 77.7107 7.98563C77.6105 7.95976 77.5072 7.93963 77.398 7.92239C77.3251 7.92239 77.2492 7.91664 77.1672 7.90801C77.0853 7.89939 77.0003 7.89364 76.9092 7.89364C75.7282 7.89364 74.8478 8.29896 74.2649 9.10672C73.682 9.91448 73.3298 10.7999 73.2023 11.7657C73.1841 11.9209 73.1689 12.0791 73.1598 12.2429C73.1507 12.4068 73.1446 12.5649 73.1446 12.7201V18.5785H70.6916V10.889C70.6916 10.475 70.6886 10.064 70.6795 9.65002C70.6703 9.23608 70.6582 8.82501 70.64 8.41107C70.6218 8.01437 70.6036 7.61193 70.5853 7.19799C70.5671 6.78405 70.5489 6.37298 70.5307 5.95904V5.96191ZM90.6437 0V12.6971C90.6437 13.6773 90.6619 14.6576 90.6983 15.6378C90.7348 16.618 90.7803 17.5983 90.835 18.5785H88.4366V16.4628C87.9083 17.2361 87.2708 17.8081 86.5148 18.1789C85.7619 18.5498 84.8663 18.7337 83.8311 18.7337C82.052 18.7337 80.6343 18.1588 79.5808 17.0061C78.5273 15.8534 77.9991 14.2954 77.9991 12.3349C77.9991 10.3744 78.5364 8.78764 79.6081 7.57456C80.6798 6.36148 82.0885 5.75494 83.8311 5.75494C84.7753 5.75494 85.6223 5.93892 86.3661 6.30974C87.1099 6.68056 87.7383 7.22673 88.2483 7.94826C88.2483 7.81028 88.2423 7.66942 88.2332 7.52282C88.2241 7.37621 88.218 7.22673 88.218 7.07151C88.1998 6.93353 88.1846 6.79267 88.1755 6.64607C88.1664 6.49946 88.1603 6.35861 88.1603 6.22063V0H90.6407H90.6437ZM84.4292 7.74129C83.321 7.74129 82.4072 8.16673 81.6908 9.01761C80.9743 9.86849 80.613 10.9666 80.613 12.309C80.613 13.617 80.9591 14.6892 81.6483 15.5228C82.3374 16.3565 83.2391 16.7733 84.3472 16.7733C85.4553 16.7733 86.3995 16.3478 87.1281 15.4969C87.8537 14.6461 88.218 13.5738 88.218 12.286C88.218 10.9953 87.8537 9.91448 87.1281 9.04635C86.4025 8.17822 85.5008 7.74416 84.4292 7.74416V7.74129Z" fill="#2558F4"/>
</g>
<defs>
<clipPath id="clip0_8339_23757">
<rect width="90" height="24" fill="white" transform="translate(0.834961)"/>
</clipPath>
</defs>
</svg>
