<svg width="31" height="16" viewBox="0 0 31 16" fill="none" xmlns="http://www.w3.org/2000/svg">
<g clip-path="url(#clip0_7283_26214)">
<path d="M22.2157 0H8.13574C3.73574 0 0.135742 3.6 0.135742 8C0.135742 12.4 3.73574 16 8.13574 16H22.2157C26.6157 16 30.2157 12.4 30.2157 8C30.2157 3.6 26.6157 0 22.2157 0Z" fill="white"/>
<path d="M22.2157 0.648C23.2037 0.648 24.1637 0.844 25.0677 1.228C25.9437 1.6 26.7277 2.132 27.4077 2.808C28.0837 3.484 28.6157 4.272 28.9877 5.148C29.3717 6.052 29.5677 7.012 29.5677 8C29.5677 8.988 29.3717 9.948 28.9877 10.852C28.6157 11.728 28.0837 12.512 27.4077 13.192C26.7317 13.868 25.9437 14.4 25.0677 14.772C24.1637 15.156 23.2037 15.352 22.2157 15.352H8.13574C7.14774 15.352 6.18774 15.156 5.28374 14.772C4.40774 14.4 3.62374 13.868 2.94374 13.192C2.26774 12.516 1.73574 11.728 1.36374 10.852C0.979742 9.948 0.783742 8.988 0.783742 8C0.783742 7.012 0.979742 6.052 1.36374 5.148C1.73574 4.272 2.26774 3.488 2.94374 2.808C3.61974 2.132 4.40774 1.6 5.28374 1.228C6.18774 0.844 7.14774 0.648 8.13574 0.648H22.2157ZM22.2157 0H8.13574C3.73574 0 0.135742 3.6 0.135742 8C0.135742 12.4 3.73574 16 8.13574 16H22.2157C26.6157 16 30.2157 12.4 30.2157 8C30.2157 3.6 26.6157 0 22.2157 0Z" fill="#3C4043"/>
<path d="M14.4799 8.56799V10.988H13.7119V5.01199H15.7479C16.2639 5.01199 16.7039 5.18399 17.0639 5.52799C17.4319 5.87199 17.6159 6.29199 17.6159 6.78799C17.6159 7.29599 17.4319 7.71599 17.0639 8.05599C16.7079 8.39599 16.2679 8.56399 15.7479 8.56399H14.4799V8.56799ZM14.4799 5.74799V7.83199H15.7639C16.0679 7.83199 16.3239 7.72799 16.5239 7.52399C16.7279 7.31999 16.8319 7.07199 16.8319 6.79199C16.8319 6.51599 16.7279 6.27199 16.5239 6.06799C16.3239 5.85599 16.0719 5.75199 15.7639 5.75199H14.4799V5.74799Z" fill="#3C4043"/>
<path d="M19.6238 6.76401C20.1918 6.76401 20.6398 6.91601 20.9678 7.22001C21.2958 7.52401 21.4598 7.94001 21.4598 8.46801V10.988H20.7278V10.42H20.6958C20.3798 10.888 19.9558 11.12 19.4278 11.12C18.9758 11.12 18.5998 10.988 18.2958 10.72C17.9918 10.452 17.8398 10.12 17.8398 9.72001C17.8398 9.29601 17.9998 8.96001 18.3198 8.71201C18.6398 8.46001 19.0678 8.33601 19.5998 8.33601C20.0558 8.33601 20.4318 8.42001 20.7238 8.58801V8.41201C20.7238 8.14401 20.6198 7.92001 20.4078 7.73201C20.1958 7.54401 19.9478 7.45201 19.6638 7.45201C19.2358 7.45201 18.8958 7.63201 18.6478 7.99601L17.9718 7.57201C18.3438 7.03201 18.8958 6.76401 19.6238 6.76401ZM18.6318 9.73201C18.6318 9.93201 18.7158 10.1 18.8878 10.232C19.0558 10.364 19.2558 10.432 19.4838 10.432C19.8078 10.432 20.0958 10.312 20.3478 10.072C20.5998 9.83201 20.7278 9.55201 20.7278 9.22801C20.4878 9.04001 20.1558 8.94401 19.7278 8.94401C19.4158 8.94401 19.1558 9.02001 18.9478 9.16801C18.7358 9.32401 18.6318 9.51201 18.6318 9.73201Z" fill="#3C4043"/>
<path d="M25.6359 6.896L23.0759 12.784H22.2839L23.2359 10.724L21.5479 6.896H22.3839L23.5999 9.832H23.6159L24.7999 6.896H25.6359Z" fill="#3C4043"/>
<path d="M11.4248 8.07999C11.4248 7.82959 11.4024 7.58999 11.3608 7.35959H8.1416V8.67959L9.9956 8.67999C9.9204 9.11919 9.6784 9.49359 9.3076 9.74319V10.5996H10.4112C11.0556 10.0032 11.4248 9.12159 11.4248 8.07999Z" fill="#4285F4"/>
<path d="M9.30808 9.7432C9.00088 9.9504 8.60528 10.0716 8.14248 10.0716C7.24848 10.0716 6.49008 9.4692 6.21848 8.6572H5.08008V9.5404C5.64408 10.6596 6.80328 11.4276 8.14248 11.4276C9.06808 11.4276 9.84568 11.1232 10.4117 10.5992L9.30808 9.7432Z" fill="#34A853"/>
<path d="M6.11142 8.002C6.11142 7.774 6.14942 7.5536 6.21862 7.3464V6.4632H5.08022C4.84702 6.926 4.71582 7.4484 4.71582 8.002C4.71582 8.5556 4.84742 9.078 5.08022 9.5408L6.21862 8.6576C6.14942 8.4504 6.11142 8.23 6.11142 8.002Z" fill="#FABB05"/>
<path d="M8.14248 5.93199C8.64768 5.93199 9.10008 6.10599 9.45728 6.44599L10.4353 5.46879C9.84128 4.91559 9.06688 4.57599 8.14248 4.57599C6.80368 4.57599 5.64408 5.34399 5.08008 6.46319L6.21848 7.34639C6.49008 6.53439 7.24848 5.93199 8.14248 5.93199Z" fill="#E94235"/>
</g>
<defs>
<clipPath id="clip0_7283_26214">
<rect width="30.08" height="16" fill="white" transform="translate(0.135742)"/>
</clipPath>
</defs>
</svg>
