<svg width="61" height="32" viewBox="0 0 61 32" fill="none" xmlns="http://www.w3.org/2000/svg">
<g clip-path="url(#clip0_8338_23977)">
<path d="M44.995 0H16.835C8.03496 0 0.834961 7.2 0.834961 16C0.834961 24.8 8.03496 32 16.835 32H44.995C53.795 32 60.995 24.8 60.995 16C60.995 7.2 53.795 0 44.995 0Z" fill="white"/>
<path d="M44.995 1.296C46.971 1.296 48.891 1.688 50.699 2.456C52.451 3.2 54.019 4.264 55.379 5.616C56.731 6.968 57.795 8.544 58.539 10.296C59.307 12.104 59.699 14.024 59.699 16C59.699 17.976 59.307 19.896 58.539 21.704C57.795 23.456 56.731 25.024 55.379 26.384C54.027 27.736 52.451 28.8 50.699 29.544C48.891 30.312 46.971 30.704 44.995 30.704H16.835C14.859 30.704 12.939 30.312 11.131 29.544C9.37896 28.8 7.81096 27.736 6.45096 26.384C5.09896 25.032 4.03496 23.456 3.29096 21.704C2.52296 19.896 2.13096 17.976 2.13096 16C2.13096 14.024 2.52296 12.104 3.29096 10.296C4.03496 8.544 5.09896 6.976 6.45096 5.616C7.80296 4.264 9.37896 3.2 11.131 2.456C12.939 1.688 14.859 1.296 16.835 1.296H44.995ZM44.995 0H16.835C8.03496 0 0.834961 7.2 0.834961 16C0.834961 24.8 8.03496 32 16.835 32H44.995C53.795 32 60.995 24.8 60.995 16C60.995 7.2 53.795 0 44.995 0Z" fill="#3C4043"/>
<path d="M29.5233 17.1362V21.9762H27.9873V10.0242H32.0593C33.0913 10.0242 33.9713 10.3682 34.6913 11.0562C35.4273 11.7442 35.7953 12.5842 35.7953 13.5762C35.7953 14.5922 35.4273 15.4322 34.6913 16.1122C33.9793 16.7922 33.0993 17.1282 32.0593 17.1282H29.5233V17.1362ZM29.5233 11.4962V15.6642H32.0913C32.6993 15.6642 33.2113 15.4562 33.6113 15.0482C34.0193 14.6402 34.2273 14.1442 34.2273 13.5842C34.2273 13.0322 34.0193 12.5442 33.6113 12.1362C33.2113 11.7122 32.7073 11.5042 32.0913 11.5042H29.5233V11.4962Z" fill="#3C4043"/>
<path d="M39.8112 13.5281C40.9472 13.5281 41.8432 13.8321 42.4992 14.4401C43.1552 15.0481 43.4832 15.8801 43.4832 16.9361V21.9761H42.0192V20.8401H41.9552C41.3232 21.7761 40.4752 22.2401 39.4192 22.2401C38.5152 22.2401 37.7632 21.9761 37.1552 21.4401C36.5472 20.9041 36.2432 20.2401 36.2432 19.4401C36.2432 18.5921 36.5632 17.9201 37.2032 17.4241C37.8432 16.9201 38.6992 16.6721 39.7632 16.6721C40.6752 16.6721 41.4272 16.8401 42.0112 17.1761V16.8241C42.0112 16.2881 41.8032 15.8401 41.3792 15.4641C40.9552 15.0881 40.4592 14.9041 39.8912 14.9041C39.0352 14.9041 38.3552 15.2641 37.8592 15.9921L36.5072 15.1441C37.2512 14.0641 38.3552 13.5281 39.8112 13.5281ZM37.8272 19.4641C37.8272 19.8641 37.9952 20.2001 38.3392 20.4641C38.6752 20.7281 39.0752 20.8641 39.5312 20.8641C40.1792 20.8641 40.7552 20.6241 41.2592 20.1441C41.7632 19.6641 42.0192 19.1041 42.0192 18.4561C41.5392 18.0801 40.8752 17.8881 40.0192 17.8881C39.3952 17.8881 38.8752 18.0401 38.4592 18.3361C38.0352 18.6481 37.8272 19.0241 37.8272 19.4641Z" fill="#3C4043"/>
<path d="M51.8352 13.7922L46.7152 25.5682H45.1312L47.0352 21.4482L43.6592 13.7922H45.3312L47.7632 19.6642H47.7952L50.1632 13.7922H51.8352Z" fill="#3C4043"/>
<path d="M23.4131 16.16C23.4131 15.6592 23.3683 15.18 23.2851 14.7192H16.8467V17.3592L20.5547 17.36C20.4043 18.2384 19.9203 18.9872 19.1787 19.4864V21.1992H21.3859C22.6747 20.0064 23.4131 18.2432 23.4131 16.16Z" fill="#4285F4"/>
<path d="M19.1796 19.4865C18.5652 19.9009 17.774 20.1433 16.8484 20.1433C15.0604 20.1433 13.5436 18.9385 13.0004 17.3145H10.7236V19.0809C11.8516 21.3193 14.17 22.8553 16.8484 22.8553C18.6996 22.8553 20.2548 22.2465 21.3868 21.1985L19.1796 19.4865Z" fill="#34A853"/>
<path d="M12.7863 16.0041C12.7863 15.5481 12.8623 15.1073 13.0007 14.6929V12.9265H10.7239C10.2575 13.8521 9.99512 14.8969 9.99512 16.0041C9.99512 17.1113 10.2583 18.1561 10.7239 19.0817L13.0007 17.3153C12.8623 16.9009 12.7863 16.4601 12.7863 16.0041Z" fill="#FABB05"/>
<path d="M16.8484 11.8641C17.8588 11.8641 18.7636 12.2121 19.478 12.8921L21.434 10.9377C20.246 9.8313 18.6972 9.1521 16.8484 9.1521C14.1708 9.1521 11.8516 10.6881 10.7236 12.9265L13.0004 14.6929C13.5436 13.0689 15.0604 11.8641 16.8484 11.8641Z" fill="#E94235"/>
</g>
<defs>
<clipPath id="clip0_8338_23977">
<rect width="60.16" height="32" fill="white" transform="translate(0.834961)"/>
</clipPath>
</defs>
</svg>
