<svg width="32" height="16" viewBox="0 0 32 16" fill="none" xmlns="http://www.w3.org/2000/svg">
<g clip-path="url(#clip0_7283_26214)">
<path d="M23.0693 0H8.98926C4.58926 0 0.989258 3.6 0.989258 8C0.989258 12.4 4.58926 16 8.98926 16H23.0693C27.4693 16 31.0693 12.4 31.0693 8C31.0693 3.6 27.4693 0 23.0693 0Z" fill="white"/>
<path d="M23.0693 0.648C24.0573 0.648 25.0173 0.844 25.9213 1.228C26.7973 1.6 27.5813 2.132 28.2613 2.808C28.9373 3.484 29.4693 4.272 29.8413 5.148C30.2253 6.052 30.4213 7.012 30.4213 8C30.4213 8.988 30.2253 9.948 29.8413 10.852C29.4693 11.728 28.9373 12.512 28.2613 13.192C27.5853 13.868 26.7973 14.4 25.9213 14.772C25.0173 15.156 24.0573 15.352 23.0693 15.352H8.98926C8.00126 15.352 7.04126 15.156 6.13726 14.772C5.26126 14.4 4.47726 13.868 3.79726 13.192C3.12126 12.516 2.58926 11.728 2.21726 10.852C1.83326 9.948 1.63726 8.988 1.63726 8C1.63726 7.012 1.83326 6.052 2.21726 5.148C2.58926 4.272 3.12126 3.488 3.79726 2.808C4.47326 2.132 5.26126 1.6 6.13726 1.228C7.04126 0.844 8.00126 0.648 8.98926 0.648H23.0693ZM23.0693 0H8.98926C4.58926 0 0.989258 3.6 0.989258 8C0.989258 12.4 4.58926 16 8.98926 16H23.0693C27.4693 16 31.0693 12.4 31.0693 8C31.0693 3.6 27.4693 0 23.0693 0Z" fill="#3C4043"/>
<path d="M15.3334 8.56799V10.988H14.5654V5.01199H16.6014C17.1174 5.01199 17.5574 5.18399 17.9174 5.52799C18.2854 5.87199 18.4694 6.29199 18.4694 6.78799C18.4694 7.29599 18.2854 7.71599 17.9174 8.05599C17.5614 8.39599 17.1214 8.56399 16.6014 8.56399H15.3334V8.56799ZM15.3334 5.74799V7.83199H16.6174C16.9214 7.83199 17.1774 7.72799 17.3774 7.52399C17.5814 7.31999 17.6854 7.07199 17.6854 6.79199C17.6854 6.51599 17.5814 6.27199 17.3774 6.06799C17.1774 5.85599 16.9254 5.75199 16.6174 5.75199H15.3334V5.74799Z" fill="#3C4043"/>
<path d="M20.4774 6.76401C21.0454 6.76401 21.4934 6.91601 21.8214 7.22001C22.1494 7.52401 22.3134 7.94001 22.3134 8.46801V10.988H21.5814V10.42H21.5494C21.2334 10.888 20.8094 11.12 20.2814 11.12C19.8294 11.12 19.4534 10.988 19.1494 10.72C18.8454 10.452 18.6934 10.12 18.6934 9.72001C18.6934 9.29601 18.8534 8.96001 19.1734 8.71201C19.4934 8.46001 19.9214 8.33601 20.4534 8.33601C20.9094 8.33601 21.2854 8.42001 21.5774 8.58801V8.41201C21.5774 8.14401 21.4734 7.92001 21.2614 7.73201C21.0494 7.54401 20.8014 7.45201 20.5174 7.45201C20.0894 7.45201 19.7494 7.63201 19.5014 7.99601L18.8254 7.57201C19.1974 7.03201 19.7494 6.76401 20.4774 6.76401ZM19.4854 9.73201C19.4854 9.93201 19.5694 10.1 19.7414 10.232C19.9094 10.364 20.1094 10.432 20.3374 10.432C20.6614 10.432 20.9494 10.312 21.2014 10.072C21.4534 9.83201 21.5814 9.55201 21.5814 9.22801C21.3414 9.04001 21.0094 8.94401 20.5814 8.94401C20.2694 8.94401 20.0094 9.02001 19.8014 9.16801C19.5894 9.32401 19.4854 9.51201 19.4854 9.73201Z" fill="#3C4043"/>
<path d="M26.4894 6.896L23.9294 12.784H23.1374L24.0894 10.724L22.4014 6.896H23.2374L24.4534 9.832H24.4694L25.6534 6.896H26.4894Z" fill="#3C4043"/>
<path d="M12.2783 8.07999C12.2783 7.82959 12.2559 7.58999 12.2143 7.35959H8.99512V8.67959L10.8491 8.67999C10.7739 9.11919 10.5319 9.49359 10.1611 9.74319V10.5996H11.2647C11.9091 10.0032 12.2783 9.12159 12.2783 8.07999Z" fill="#4285F4"/>
<path d="M10.1616 9.7432C9.85439 9.9504 9.45879 10.0716 8.99599 10.0716C8.10199 10.0716 7.34359 9.4692 7.07199 8.6572H5.93359V9.5404C6.49759 10.6596 7.65679 11.4276 8.99599 11.4276C9.92159 11.4276 10.6992 11.1232 11.2652 10.5992L10.1616 9.7432Z" fill="#34A853"/>
<path d="M6.96494 8.002C6.96494 7.774 7.00294 7.5536 7.07214 7.3464V6.4632H5.93374C5.70054 6.926 5.56934 7.4484 5.56934 8.002C5.56934 8.5556 5.70094 9.078 5.93374 9.5408L7.07214 8.6576C7.00294 8.4504 6.96494 8.23 6.96494 8.002Z" fill="#FABB05"/>
<path d="M8.99599 5.93199C9.50119 5.93199 9.95359 6.10599 10.3108 6.44599L11.2888 5.46879C10.6948 4.91559 9.92039 4.57599 8.99599 4.57599C7.65719 4.57599 6.49759 5.34399 5.93359 6.46319L7.07199 7.34639C7.34359 6.53439 8.10199 5.93199 8.99599 5.93199Z" fill="#E94235"/>
</g>
<defs>
<clipPath id="clip0_7283_26214">
<rect width="30.08" height="16" fill="white" transform="translate(0.989258)"/>
</clipPath>
</defs>
</svg>
