<svg width="37" height="32" viewBox="0 0 37 32" fill="none" xmlns="http://www.w3.org/2000/svg">
<path d="M22.2956 1.04499V1H21.2956H2.83301H1.83301V2V30V31H2.83301H21.2956H22.2956V30.9622C26.0352 30.7649 29.1387 29.7273 31.4385 27.7708C34.4936 25.1719 35.946 21.1387 35.946 16.0005C35.946 13.5294 35.563 11.2736 34.7823 9.31124L34.7822 9.31117C34.0341 7.43114 32.9218 5.81625 31.4703 4.52666C29.1197 2.43711 25.947 1.27266 22.2956 1.04499Z" fill="white" stroke="white" stroke-width="2"/>
<path d="M11.5492 17.7603H6.40332V26.3051H11.5492V17.7603Z" fill="black"/>
<path d="M11.9378 13.4884C11.9378 15.0973 10.6334 16.4017 9.02505 16.4017C7.41672 16.4017 6.1123 15.0968 6.1123 13.4884C6.1123 11.8801 7.41672 10.5757 9.02505 10.5757C10.6334 10.5757 11.9378 11.8801 11.9378 13.4884V13.4884Z" fill="black"/>
<path d="M21.2956 2H2.83301V30H21.2956V29.9947C25.3284 29.94 28.5233 28.9379 30.7905 27.0091C33.5481 24.6633 34.946 20.9594 34.946 16.0005C34.946 13.6303 34.5784 11.5039 33.8531 9.6809C33.1592 7.93708 32.1342 6.45413 30.8059 5.27405C28.4665 3.19443 25.1829 2.07014 21.2956 2.00638V2ZM20.946 3.85965C24.524 3.85965 27.5064 4.82933 29.57 6.66348C31.9031 8.73673 33.0858 11.8779 33.0858 16C33.0858 24.1692 29.1147 28.1403 20.9455 28.1403H4.69266V3.85965H20.9466H20.946Z" fill="black"/>
<path d="M20.4385 26.3146H13.9111V6.12354H20.175C25.6184 6.12354 31.4126 8.2717 31.4126 16.2454C31.4126 24.6749 25.6184 26.3146 20.175 26.3146H20.4385V26.3146Z" fill="#CD0067"/>
<path d="M12.7861 11.3355H14.5783C14.9826 11.3355 15.2908 11.3663 15.5028 11.4285C15.7876 11.5124 16.0315 11.6617 16.235 11.8759C16.438 12.09 16.5926 12.3525 16.6988 12.6628C16.8051 12.973 16.8577 13.3561 16.8577 13.811C16.8577 14.211 16.8078 14.5553 16.7084 14.8449C16.5867 15.1983 16.4135 15.4846 16.1882 15.703C16.0182 15.8688 15.7887 15.9979 15.4991 16.0909C15.2828 16.1594 14.9933 16.1934 14.6314 16.1934H12.7861V11.335V11.3355ZM13.7659 12.1591V15.3704H14.4997C14.7744 15.3704 14.9726 15.355 15.0942 15.3242C15.2536 15.2843 15.3859 15.2174 15.4911 15.1223C15.5963 15.0277 15.6819 14.8715 15.7483 14.6542C15.8147 14.4369 15.8477 14.1409 15.8477 13.7663C15.8477 13.3917 15.8147 13.1038 15.7483 12.9029C15.6819 12.7021 15.5889 12.5459 15.4693 12.4332C15.3498 12.3206 15.1984 12.2446 15.0145 12.2047C14.8774 12.1739 14.6081 12.1585 14.2074 12.1585H13.7659V12.1591Z" fill="white"/>
<path d="M12.6533 11.2026V16.3268H14.6315C15.0055 16.3268 15.311 16.2901 15.5395 16.2179C15.8477 16.119 16.0969 15.9782 16.2812 15.7986C16.5203 15.5664 16.7063 15.2599 16.8344 14.8885C16.938 14.5867 16.9906 14.2238 16.9906 13.8115C16.9906 13.3439 16.9348 12.9433 16.8243 12.6202C16.7127 12.2929 16.5464 12.0119 16.3312 11.7844C16.1128 11.5538 15.8466 11.3913 15.54 11.3009C15.3137 11.235 14.9991 11.2026 14.5783 11.2026H12.6533V11.2026ZM14.5783 11.4683C14.9678 11.4683 15.2664 11.4975 15.4656 11.556C15.726 11.6325 15.9523 11.7712 16.1383 11.9672C16.3275 12.1665 16.4736 12.4151 16.5729 12.7058C16.6739 13.0007 16.7249 13.3726 16.7249 13.8109C16.7249 14.194 16.6771 14.5277 16.583 14.8019C16.4688 15.1339 16.3051 15.4049 16.0958 15.6079C15.9412 15.7588 15.7271 15.8783 15.4587 15.9644C15.2568 16.0282 14.9784 16.0606 14.6315 16.0606H12.919V11.4678H14.5783V11.4683Z" fill="white"/>
<path d="M13.6324 12.0264V15.5034H14.499C14.7875 15.5034 14.9926 15.4869 15.1259 15.4529C15.3055 15.4083 15.458 15.3302 15.5792 15.2213C15.7035 15.1091 15.8002 14.9365 15.8746 14.6936C15.9458 14.4615 15.9798 14.1586 15.9798 13.767C15.9798 13.3754 15.9452 13.0784 15.8735 12.8621C15.8002 12.6411 15.6945 12.4647 15.5595 12.3377C15.4229 12.2091 15.2487 12.1209 15.0415 12.0763C14.8943 12.0434 14.6206 12.0269 14.2062 12.0269H13.6318L13.6324 12.0264ZM14.2067 12.292C14.6913 12.292 14.8969 12.3154 14.9846 12.3351C15.1445 12.3696 15.2763 12.4355 15.3778 12.5306C15.4803 12.6273 15.5627 12.7665 15.6217 12.945C15.6833 13.131 15.7146 13.4078 15.7146 13.7665C15.7146 14.1251 15.6833 14.412 15.6206 14.6155C15.5616 14.8084 15.4878 14.9455 15.4012 15.0236C15.313 15.1033 15.1987 15.1607 15.0611 15.1952C14.9501 15.2234 14.7609 15.2377 14.499 15.2377H13.898V12.292H14.2067V12.292Z" fill="white"/>
<path d="M17.9658 16.1939V11.3354H21.5624V12.159H18.9456V13.235H21.3796V14.0585H18.9456V15.3704H21.6554V16.1939H17.9658Z" fill="white"/>
<path d="M17.833 11.2026V16.3268H21.7882V15.2376H19.0784V14.1914H21.5125V13.1021H19.0784V12.2919H21.6952V11.2026H17.833ZM21.4296 11.4683V12.0262H18.8128V13.3678H21.2468V13.9257H18.8128V15.5032H21.5226V16.0611H18.0987V11.4683H21.4296Z" fill="white"/>
<path d="M27.1421 16.1939H26.0746L25.6506 15.0914H23.7097L23.3075 16.1939H22.2666L24.1544 11.3354H25.1985L27.1415 16.1939H27.1421ZM25.3361 14.2679L24.6666 12.4682L24.0104 14.2679H25.3366H25.3361Z" fill="white"/>
<path d="M24.0641 11.2026L22.0732 16.3268H23.401C23.401 16.3268 23.7491 15.3725 23.8033 15.2243H25.5598C25.6156 15.3693 25.9838 16.3268 25.9838 16.3268H27.3387L25.2894 11.2026H24.0647H24.0641ZM25.1093 11.4683C25.1714 11.6234 26.8132 15.7296 26.9461 16.0611H26.1661C26.1103 15.9161 25.7421 14.9586 25.7421 14.9586H23.6168C23.6168 14.9586 23.2687 15.9129 23.2145 16.0611H22.4606C22.5886 15.7317 24.1842 11.6256 24.2453 11.4683H25.1087H25.1093Z" fill="white"/>
<path d="M23.8199 14.4006H25.5265L24.6641 12.0835L23.8193 14.4006H23.8199ZM24.6673 12.8523C24.8129 13.2434 25.0589 13.9049 25.1445 14.135H24.1992C24.2827 13.906 24.5239 13.2445 24.6668 12.8523H24.6673Z" fill="white"/>
<path d="M27.9619 16.1941V11.3755H28.9417V15.3706H31.3826V16.1941H27.9624H27.9619Z" fill="white"/>
<path d="M27.8277 11.2427V16.327H31.5135V15.2377H29.0726V11.2427H27.8271H27.8277ZM28.8075 11.5083V15.5034H31.2484V16.0613H28.0939V11.5083H28.808H28.8075Z" fill="white"/>
</svg>
