<svg width="40" height="32" viewBox="0 0 40 32" fill="none" xmlns="http://www.w3.org/2000/svg">
<g clip-path="url(#clip0_8339_23810)">
<path d="M25.501 6.56567H15.001V25.4345H25.501V6.56567Z" fill="#7375CF"/>
<path d="M15.6673 16C15.6657 14.1828 16.0775 12.389 16.8715 10.7545C17.6656 9.11998 18.8211 7.68754 20.2506 6.56561C18.4804 5.17415 16.3544 4.30883 14.1156 4.06854C11.8768 3.82824 9.61556 4.22267 7.59035 5.20676C5.56513 6.19084 3.85765 7.72488 2.66305 9.63351C1.46846 11.5421 0.834961 13.7484 0.834961 16C0.834961 18.2516 1.46846 20.4579 2.66305 22.3665C3.85765 24.2751 5.56513 25.8092 7.59035 26.7932C9.61556 27.7773 11.8768 28.1718 14.1156 27.9315C16.3544 27.6912 18.4804 26.8258 20.2506 25.4344C18.8211 24.3125 17.6656 22.88 16.8715 21.2455C16.0775 19.611 15.6657 17.8172 15.6673 16V16Z" fill="#EB001B"/>
<path d="M38.5212 23.436V23.0497H38.677V22.971H38.2803V23.0497H38.4361V23.436H38.5212ZM39.2914 23.436V22.9702H39.1698L39.0299 23.2906L38.89 22.9702H38.7683V23.436H38.8542V23.0847L38.9854 23.3876H39.0744L39.2056 23.0839V23.436H39.2914Z" fill="#00A2E5"/>
<path d="M39.666 16C39.6661 18.2516 39.0327 20.4578 37.8382 22.3665C36.6436 24.2751 34.9362 25.8091 32.911 26.7932C30.8859 27.7773 28.6247 28.1717 26.3859 27.9315C24.1472 27.6912 22.0212 26.8258 20.251 25.4344C21.6792 24.3113 22.8339 22.8787 23.6278 21.2444C24.4217 19.6101 24.8342 17.8169 24.8342 16C24.8342 14.1831 24.4217 12.3899 23.6278 10.7556C22.8339 9.12134 21.6792 7.68866 20.251 6.5656C22.0212 5.17415 24.1472 4.30882 26.3859 4.06853C28.6247 3.82824 30.8859 4.22269 32.911 5.20679C34.9362 6.19088 36.6436 7.72491 37.8382 9.63354C39.0327 11.5422 39.6661 13.7484 39.666 16V16Z" fill="#00A2E5"/>
</g>
<defs>
<clipPath id="clip0_8339_23810">
<rect width="38.8307" height="24" fill="white" transform="translate(0.834961 4)"/>
</clipPath>
</defs>
</svg>
