<svg width="20" height="12" viewBox="0 0 20 12" fill="none" xmlns="http://www.w3.org/2000/svg">
<g clip-path="url(#clip0_7283_26216)">
<path d="M12.5488 1.28281H7.29883V10.7172H12.5488V1.28281Z" fill="#7375CF"/>
<path d="M7.632 6C7.63118 5.0914 7.83707 4.19452 8.2341 3.37725C8.63113 2.55999 9.2089 1.84377 9.92365 1.2828C9.03853 0.587075 7.97552 0.154413 6.85613 0.0342677C5.73673 -0.0858778 4.60612 0.111337 3.59351 0.60338C2.58091 1.09542 1.72716 1.86244 1.12987 2.81675C0.532571 3.77107 0.21582 4.87418 0.21582 6C0.21582 7.12582 0.532571 8.22893 1.12987 9.18325C1.72716 10.1376 2.58091 10.9046 3.59351 11.3966C4.60612 11.8887 5.73673 12.0859 6.85613 11.9657C7.97552 11.8456 9.03853 11.4129 9.92365 10.7172C9.2089 10.1562 8.63114 9.44 8.23411 8.62274C7.83707 7.80548 7.63118 6.9086 7.632 6Z" fill="#EB001B"/>
<path d="M19.0589 9.71796V9.52481H19.1368V9.48546H18.9385V9.52481H19.0164V9.71796H19.0589ZM19.444 9.71796V9.48508H19.3832L19.3133 9.64526L19.2433 9.48508H19.1825V9.71796H19.2254V9.5423L19.291 9.69375H19.3355L19.4011 9.54191V9.71796H19.444Z" fill="#00A2E5"/>
<path d="M19.6314 6C19.6314 7.12581 19.3147 8.22891 18.7174 9.18323C18.1202 10.1375 17.2664 10.9046 16.2539 11.3966C15.2413 11.8887 14.1107 12.0859 12.9913 11.9657C11.8719 11.8456 10.8089 11.4129 9.92383 10.7172C10.638 10.1557 11.2153 9.43933 11.6122 8.62219C12.0092 7.80506 12.2155 6.90845 12.2155 6C12.2155 5.09154 12.0092 4.19494 11.6122 3.37781C11.2153 2.56067 10.638 1.84433 9.92383 1.2828C10.8089 0.587073 11.8719 0.15441 12.9913 0.0342661C14.1107 -0.0858779 15.2413 0.111346 16.2539 0.603393C17.2664 1.09544 18.1202 1.86246 18.7174 2.81677C19.3147 3.77109 19.6314 4.87419 19.6314 6Z" fill="#00A2E5"/>
</g>
<defs>
<clipPath id="clip0_7283_26216">
<rect width="19.4154" height="12" fill="white" transform="translate(0.21582)"/>
</clipPath>
</defs>
</svg>
