<svg width="20" height="12" viewBox="0 0 20 12" fill="none" xmlns="http://www.w3.org/2000/svg">
<g clip-path="url(#clip0_7283_26216)">
<path d="M12.832 1.28281H7.58203V10.7172H12.832V1.28281Z" fill="#7375CF"/>
<path d="M7.91521 6C7.91438 5.0914 8.12027 4.19452 8.5173 3.37725C8.91434 2.55999 9.4921 1.84377 10.2069 1.2828C9.32173 0.587075 8.25872 0.154413 7.13933 0.0342677C6.01994 -0.0858778 4.88932 0.111337 3.87672 0.60338C2.86411 1.09542 2.01037 1.86244 1.41307 2.81675C0.815774 3.77107 0.499023 4.87418 0.499023 6C0.499023 7.12582 0.815774 8.22893 1.41307 9.18325C2.01037 10.1376 2.86411 10.9046 3.87672 11.3966C4.88932 11.8887 6.01994 12.0859 7.13933 11.9657C8.25872 11.8456 9.32173 11.4129 10.2069 10.7172C9.4921 10.1562 8.91434 9.44 8.51731 8.62274C8.12028 7.80548 7.91438 6.9086 7.91521 6Z" fill="#EB001B"/>
<path d="M19.3421 9.71796V9.52481H19.42V9.48546H19.2217V9.52481H19.2996V9.71796H19.3421ZM19.7272 9.71796V9.48508H19.6664L19.5965 9.64526L19.5265 9.48508H19.4657V9.71796H19.5086V9.5423L19.5742 9.69375H19.6187L19.6843 9.54191V9.71796H19.7272Z" fill="#00A2E5"/>
<path d="M19.9146 6C19.9146 7.12581 19.5979 8.22891 19.0006 9.18323C18.4034 10.1375 17.5496 10.9046 16.5371 11.3966C15.5245 11.8887 14.3939 12.0859 13.2745 11.9657C12.1551 11.8456 11.0921 11.4129 10.207 10.7172C10.9212 10.1557 11.4985 9.43933 11.8954 8.62219C12.2924 7.80506 12.4987 6.90845 12.4987 6C12.4987 5.09154 12.2924 4.19494 11.8954 3.37781C11.4985 2.56067 10.9212 1.84433 10.207 1.2828C11.0921 0.587073 12.1551 0.15441 13.2745 0.0342661C14.3939 -0.0858779 15.5245 0.111346 16.5371 0.603393C17.5496 1.09544 18.4034 1.86246 19.0006 2.81677C19.5979 3.77109 19.9146 4.87419 19.9146 6Z" fill="#00A2E5"/>
</g>
<defs>
<clipPath id="clip0_7283_26216">
<rect width="19.4154" height="12" fill="white" transform="translate(0.499023)"/>
</clipPath>
</defs>
</svg>
