<svg width="21" height="12" viewBox="0 0 21 12" fill="none" xmlns="http://www.w3.org/2000/svg">
<path d="M12.9648 1.28281H7.71484V10.7172H12.9648V1.28281Z" fill="#FF5F00"/>
<path d="M8.04802 6C8.04719 5.0914 8.25308 4.19452 8.65011 3.37725C9.04715 2.55999 9.62491 1.84377 10.3397 1.2828C9.45454 0.587075 8.39153 0.154413 7.27214 0.0342677C6.15274 -0.0858778 5.02213 0.111337 4.00953 0.60338C2.99692 1.09542 2.14317 1.86244 1.54588 2.81675C0.948582 3.77107 0.631836 4.87418 0.631836 6C0.631836 7.12582 0.948582 8.22893 1.54588 9.18325C2.14317 10.1376 2.99692 10.9046 4.00953 11.3966C5.02213 11.8887 6.15274 12.0859 7.27214 11.9657C8.39153 11.8456 9.45454 11.4129 10.3397 10.7172C9.62491 10.1562 9.04716 9.44 8.65012 8.62274C8.25309 7.80548 8.04719 6.9086 8.04802 6Z" fill="#EB001B"/>
<path d="M20.0474 6C20.0474 7.12581 19.7307 8.22891 19.1334 9.18323C18.5362 10.1375 17.6825 10.9046 16.6699 11.3966C15.6573 11.8887 14.5267 12.0859 13.4073 11.9657C12.2879 11.8456 11.2249 11.4129 10.3398 10.7172C11.054 10.1557 11.6313 9.43933 12.0282 8.62219C12.4252 7.80506 12.6315 6.90845 12.6315 6C12.6315 5.09154 12.4252 4.19494 12.0282 3.37781C11.6313 2.56067 11.054 1.84433 10.3398 1.2828C11.2249 0.587073 12.2879 0.15441 13.4073 0.0342661C14.5267 -0.0858779 15.6573 0.111346 16.6699 0.603393C17.6825 1.09544 18.5362 1.86246 19.1334 2.81677C19.7307 3.77109 20.0474 4.87419 20.0474 6Z" fill="#F79E1B"/>
<path d="M19.475 9.71796V9.52481H19.5528V9.48546H19.3545V9.52481H19.4324V9.71796H19.475ZM19.86 9.71796V9.48508H19.7992L19.7293 9.64526L19.6594 9.48508H19.5985V9.71796H19.6415V9.54229L19.707 9.69375H19.7516L19.8171 9.54191V9.71796H19.86Z" fill="#F79E1B"/>
</svg>
