<svg width="21" height="12" viewBox="0 0 21 12" fill="none" xmlns="http://www.w3.org/2000/svg">
<path d="M13.248 1.28281H7.99805V10.7172H13.248V1.28281Z" fill="#FF5F00"/>
<path d="M8.33122 6C8.33039 5.0914 8.53628 4.19452 8.93332 3.37725C9.33035 2.55999 9.90811 1.84377 10.6229 1.2828C9.73774 0.587075 8.67474 0.154413 7.55534 0.0342677C6.43595 -0.0858778 5.30534 0.111337 4.29273 0.60338C3.28012 1.09542 2.42638 1.86244 1.82908 2.81675C1.23179 3.77107 0.915039 4.87418 0.915039 6C0.915039 7.12582 1.23179 8.22893 1.82908 9.18325C2.42638 10.1376 3.28012 10.9046 4.29273 11.3966C5.30534 11.8887 6.43595 12.0859 7.55534 11.9657C8.67474 11.8456 9.73774 11.4129 10.6229 10.7172C9.90812 10.1562 9.33036 9.44 8.93333 8.62274C8.53629 7.80548 8.3304 6.9086 8.33122 6Z" fill="#EB001B"/>
<path d="M20.3306 6C20.3306 7.12581 20.0139 8.22891 19.4166 9.18323C18.8194 10.1375 17.9657 10.9046 16.9531 11.3966C15.9405 11.8887 14.8099 12.0859 13.6905 11.9657C12.5711 11.8456 11.5081 11.4129 10.623 10.7172C11.3372 10.1557 11.9145 9.43933 12.3115 8.62219C12.7084 7.80506 12.9147 6.90845 12.9147 6C12.9147 5.09154 12.7084 4.19494 12.3115 3.37781C11.9145 2.56067 11.3372 1.84433 10.623 1.2828C11.5081 0.587073 12.5711 0.15441 13.6905 0.0342661C14.8099 -0.0858779 15.9405 0.111346 16.9531 0.603393C17.9657 1.09544 18.8194 1.86246 19.4166 2.81677C20.0139 3.77109 20.3306 4.87419 20.3306 6Z" fill="#F79E1B"/>
<path d="M19.7582 9.71796V9.52481H19.836V9.48546H19.6377V9.52481H19.7156V9.71796H19.7582ZM20.1432 9.71796V9.48508H20.0824L20.0125 9.64526L19.9426 9.48508H19.8817V9.71796H19.9247V9.54229L19.9902 9.69375H20.0348L20.1003 9.54191V9.71796H20.1432Z" fill="#F79E1B"/>
</svg>
