<svg width="100" height="32" viewBox="0 0 100 32" fill="none" xmlns="http://www.w3.org/2000/svg">
<rect x="0.834961" width="98.9837" height="32" rx="2" fill="#102943"/>
<path d="M36.4703 21.6903V21.5382C36.4703 18.8993 38.3322 16.9369 40.8564 16.9369C43.3806 16.9369 45.2064 18.8658 45.2064 21.5215V21.6735C45.2064 24.3124 43.3445 26.2581 40.8203 26.2581C38.2961 26.2581 36.4703 24.3472 36.4703 21.6903V21.6903ZM43.1834 21.6568V21.555C43.1834 19.8799 42.199 18.6287 40.8203 18.6287C39.4416 18.6287 38.4932 19.8631 38.4932 21.5382V21.64C38.4932 23.3151 39.4777 24.583 40.8564 24.583C42.2351 24.583 43.1834 23.3318 43.1834 21.6568ZM48.0193 24.7183V26.0712H45.9963V13.8586H48.0193V18.545C48.6107 17.683 49.4341 16.9382 50.7947 16.9382C52.6927 16.9382 54.4825 18.4432 54.4825 21.4712V21.7083C54.4825 24.7196 52.7095 26.2426 50.7947 26.2426C49.416 26.2426 48.5926 25.5159 48.0193 24.7196V24.7183ZM52.4415 21.6735V21.5215C52.4415 19.7278 51.457 18.6287 50.2394 18.6287C49.0217 18.6287 47.9832 19.7459 47.9832 21.5047V21.6735C47.9832 23.4336 49.0217 24.5495 50.2394 24.5495C51.457 24.5495 52.4415 23.4671 52.4415 21.6735ZM55.3432 13.9256H57.4912V15.803H55.3432V13.9256ZM55.4154 17.1057H57.4383V26.0712H55.4154V17.1057V17.1057ZM58.9781 14.2297H61.0552V20.0487L65.9065 14.2297H68.4127L64.0446 19.322L68.6098 26.0712H66.1397L62.613 20.8785L61.0552 22.6554V26.0725H58.9781V14.231V14.2297ZM67.4836 17.1057H69.5607L71.1727 23.1618L72.9276 17.089H74.6465L76.4015 23.1618L78.0302 17.1057H80.0712L77.404 26.1395H75.542L73.769 20.1518L71.9793 26.1395H70.1354L67.4862 17.1057H67.4836ZM80.6446 13.9256H82.7925V15.803H80.6446V13.9256ZM80.7167 17.1057H82.7397V26.0712H80.7167V17.1057V17.1057ZM84.0656 13.8573H86.0886V21.0473L89.3292 17.1057H91.7284L88.578 20.7599L91.8186 26.0712H89.4735L87.1825 22.2314L86.0899 23.4826V26.0712H84.0669V13.8586L84.0656 13.8573ZM39.0177 13.5636C39.0177 13.9308 38.72 14.2272 38.3541 14.2272C37.9881 14.2272 37.6905 13.9295 37.6905 13.5636C37.6905 13.1976 37.9881 12.9 38.3541 12.9C38.72 12.9 39.0177 13.1976 39.0177 13.5636ZM38.1402 16.0723C38.1402 16.0723 37.0952 16.3751 35.7641 16.6045L34.9215 24.6925C34.9215 24.6925 34.8068 26.4166 33.5427 26.4166H32.0107L31.9939 26.5905C31.9939 26.5905 31.8019 27.7785 30.7686 27.9318C29.7339 28.0852 9.73733 27.9318 9.73733 27.9318C9.73733 27.9318 8.89464 27.7785 8.85598 26.9745C8.81217 26.1692 8.85083 9.88871 8.85083 9.88871C8.85083 9.88871 9.11884 8.85402 10.3069 8.70069C10.7669 8.64142 14.2304 8.06932 18.3008 7.39155L19.6628 4.80549C19.9849 4.19345 20.6756 3.89451 21.3224 4.03367C21.7541 4.10969 22.1213 4.37255 22.3403 4.73334C22.093 4.46919 21.7502 4.29524 21.3701 4.26432C21.3572 4.26432 21.3456 4.26432 21.3327 4.26303C21.3057 4.26174 21.2786 4.25916 21.2515 4.25916C21.2464 4.25916 21.2412 4.25916 21.2361 4.25916C20.6923 4.25916 20.164 4.55295 19.8947 5.06578L9.8417 24.15C9.45386 24.8871 9.73862 25.8071 10.4757 26.1949C11.2127 26.5828 12.1327 26.298 12.5205 25.561L19.7569 11.8266V23.1669C19.7569 23.989 20.4295 24.6629 21.2528 24.6629C22.1844 24.6629 22.7991 23.4993 22.8545 23.3911L26.8321 15.718V22.3551C26.8321 23.1772 27.5047 23.8511 28.3281 23.8511C29.1515 23.8511 29.8241 23.1785 29.8241 22.3551V9.56786C29.8241 8.74579 29.1515 8.07189 28.3281 8.07189C27.7006 8.07189 27.1607 8.4636 26.9404 9.01509C26.9326 9.02797 26.9249 9.03957 26.9185 9.05246L23.0142 16.5839L22.0569 18.6004L22.7488 16.0968V6.64937C27.8964 5.78864 32.6807 4.9846 32.6807 4.9846C32.6807 4.9846 33.9448 4.67793 34.0221 6.01928L33.9679 6.57334C34.4009 6.47928 36.4458 6.12752 36.5875 7.85671L36.3002 11.9941C36.3002 11.9941 36.6519 12.2428 38.1775 11.654C38.1775 11.654 40.3229 10.8023 40.5536 12.9283C40.5536 12.9283 40.9698 15.1098 38.1402 16.0749V16.0723ZM33.9602 6.63004L32.1653 24.8175C32.5699 24.8639 33.1948 24.8265 33.3095 24.1758C33.4822 23.1991 34.9756 7.97139 34.9756 7.97139C34.9756 7.97139 35.2475 7.25368 33.9602 6.63004V6.63004ZM39.5421 13.5649C39.5421 12.9064 39.0086 12.373 38.3502 12.373C37.6918 12.373 37.1583 12.9064 37.1583 13.5649C37.1583 14.2233 37.6918 14.7567 38.3502 14.7567C39.0086 14.7567 39.5421 14.2233 39.5421 13.5649ZM38.9519 13.5945C38.9519 13.9604 38.6556 14.2568 38.2896 14.2568C37.9237 14.2568 37.6273 13.9604 37.6273 13.5945C37.6273 13.2285 37.9237 12.9322 38.2896 12.9322C38.6556 12.9322 38.9519 13.2285 38.9519 13.5945ZM38.0758 16.0981C38.0758 16.0981 37.0333 16.3996 35.7049 16.629L34.8648 24.7002C34.8648 24.7002 34.7501 26.4204 33.4886 26.4204H31.9591L31.9424 26.5931C31.9424 26.5931 31.7517 27.7785 30.7196 27.9306C29.6875 28.0839 9.73218 27.9306 9.73218 27.9306C9.73218 27.9306 8.89077 27.7772 8.85341 26.9745C8.81346 26.173 8.85083 9.92607 8.85083 9.92607C8.85083 9.92607 9.11884 8.89397 10.303 8.74064C10.7617 8.68136 14.2188 8.11055 18.2802 7.43536L19.6396 4.85446C19.9617 4.2437 20.6498 3.94476 21.2954 4.08392C21.7257 4.15995 22.0917 4.42152 22.312 4.7823C22.0646 4.51944 21.7231 4.34549 21.343 4.31457C21.3301 4.31457 21.3186 4.31457 21.3057 4.31328C21.2786 4.31199 21.2515 4.30941 21.2245 4.30941C21.2193 4.30941 21.2142 4.30941 21.209 4.30941C20.6666 4.30941 20.1396 4.6032 19.8703 5.11474L9.84041 24.1578C9.45257 24.8935 9.73733 25.8109 10.4731 26.1988C11.2088 26.5866 12.1262 26.3019 12.5141 25.5661L19.7337 11.8601V23.1759C19.7337 23.9967 20.405 24.668 21.2258 24.668C22.1548 24.668 22.7681 23.5071 22.8248 23.3988L26.7935 15.7425V22.3654C26.7935 23.1862 27.4648 23.8576 28.2856 23.8576C29.1064 23.8576 29.7777 23.1862 29.7777 22.3654V9.60652C29.7777 8.78573 29.1064 8.11441 28.2856 8.11441C27.6594 8.11441 27.1208 8.50612 26.9004 9.05503C26.894 9.06792 26.885 9.07952 26.8785 9.0924L22.982 16.6083L22.0272 18.621L22.7179 16.1226V6.69447C27.8552 5.83502 32.6292 5.03227 32.6292 5.03227C32.6292 5.03227 33.8906 4.7269 33.9667 6.06438L33.9125 6.61715C34.3442 6.52309 36.3852 6.17133 36.527 7.89794L36.2396 12.0264C36.2396 12.0264 36.5901 12.2738 38.1131 11.6875C38.1131 11.6875 40.2546 10.8371 40.484 12.9592C40.484 12.9592 40.8989 15.1368 38.0758 16.0994V16.0981ZM33.9074 6.67514L32.1163 24.8252C32.5197 24.8716 33.1433 24.8342 33.258 24.1848C33.4306 23.2094 34.9215 8.01391 34.9215 8.01391C34.9215 8.01391 35.1933 7.29749 33.9074 6.67514V6.67514ZM39.4777 13.5945C39.4777 12.9373 38.9455 12.4052 38.2884 12.4052C37.6312 12.4052 37.0991 12.9373 37.0991 13.5945C37.0991 14.2516 37.6312 14.7838 38.2884 14.7838C38.9455 14.7838 39.4777 14.2516 39.4777 13.5945Z" fill="white"/>
</svg>
