<svg width="106" height="32" viewBox="0 0 106 32" fill="none" xmlns="http://www.w3.org/2000/svg">
<g clip-path="url(#clip0_8338_23821)">
<path d="M40.0433 8.92358H34.2406C33.8435 8.92358 33.5058 9.21207 33.4438 9.60407L31.0969 24.4839C31.0502 24.7775 31.2776 25.0422 31.5755 25.0422H34.3458C34.7429 25.0422 35.0805 24.7538 35.1425 24.3609L35.7755 20.3476C35.8365 19.9547 36.1751 19.6662 36.5713 19.6662H38.4083C42.2307 19.6662 44.4368 17.8166 45.0129 14.1511C45.2725 12.5475 45.0239 11.2875 44.273 10.405C43.4483 9.43607 41.9855 8.92358 40.0433 8.92358ZM40.7128 14.3581C40.3955 16.4403 38.8045 16.4403 37.2662 16.4403H36.3906L37.0049 12.5517C37.0414 12.3167 37.245 12.1436 37.4826 12.1436H37.8839C38.9318 12.1436 39.9203 12.1436 40.4311 12.7409C40.7357 13.0973 40.829 13.6267 40.7128 14.3581Z" fill="#253B80"/>
<path d="M57.3901 14.2911H54.6113C54.3746 14.2911 54.1701 14.4642 54.1336 14.6992L54.0106 15.4765L53.8163 15.1948C53.2147 14.3217 51.8732 14.0298 50.5343 14.0298C47.4637 14.0298 44.841 16.3555 44.3302 19.6179C44.0646 21.2453 44.4422 22.8014 45.3653 23.8866C46.2121 24.8845 47.4238 25.3002 48.8653 25.3002C51.3395 25.3002 52.7115 23.7093 52.7115 23.7093L52.5877 24.4814C52.541 24.7767 52.7684 25.0414 53.0645 25.0414H55.5675C55.9655 25.0414 56.3015 24.7529 56.3643 24.3601L57.8661 14.8494C57.9136 14.5567 57.687 14.2911 57.3901 14.2911ZM53.5167 19.6994C53.2486 21.2869 51.9886 22.3526 50.3816 22.3526C49.5747 22.3526 48.9298 22.0938 48.5158 21.6034C48.1051 21.1163 47.949 20.4231 48.0797 19.651C48.33 18.0771 49.6112 16.9766 51.1936 16.9766C51.9827 16.9766 52.6241 17.2388 53.0467 17.7334C53.4701 18.2332 53.6381 18.9306 53.5167 19.6994Z" fill="#253B80"/>
<path d="M72.1899 14.2913H69.3975C69.1311 14.2913 68.8808 14.4236 68.7298 14.6451L64.8785 20.318L63.246 14.8665C63.1433 14.5254 62.8285 14.2913 62.4722 14.2913H59.7282C59.3947 14.2913 59.1631 14.6171 59.2691 14.931L62.3449 23.9572L59.4533 28.0393C59.2259 28.3608 59.455 28.8029 59.8478 28.8029H62.6368C62.9015 28.8029 63.1493 28.6739 63.2994 28.4567L72.587 15.0507C72.8093 14.7299 72.581 14.2913 72.1899 14.2913Z" fill="#253B80"/>
<path d="M81.434 8.92358H75.6303C75.2341 8.92358 74.8964 9.21207 74.8344 9.60407L72.4875 24.4839C72.4409 24.7775 72.6683 25.0422 72.9644 25.0422H75.9426C76.2192 25.0422 76.4559 24.8403 76.4992 24.5654L77.1652 20.3476C77.2263 19.9547 77.5649 19.6662 77.9611 19.6662H79.7972C83.6205 19.6662 85.8257 17.8166 86.4027 14.1511C86.6632 12.5475 86.4129 11.2875 85.662 10.405C84.8381 9.43607 83.3761 8.92358 81.434 8.92358ZM82.1034 14.3581C81.7869 16.4403 80.196 16.4403 78.6569 16.4403H77.7821L78.3972 12.5517C78.4337 12.3167 78.6357 12.1436 78.8741 12.1436H79.2754C80.3224 12.1436 81.3118 12.1436 81.8226 12.7409C82.1272 13.0973 82.2197 13.6267 82.1034 14.3581Z" fill="#179BD7"/>
<path d="M98.779 14.2911H96.0019C95.7635 14.2911 95.5607 14.4642 95.5251 14.6992L95.4021 15.4765L95.2069 15.1948C94.6053 14.3217 93.2647 14.0298 91.9258 14.0298C88.8551 14.0298 86.2333 16.3555 85.7225 19.6179C85.4578 21.2453 85.8337 22.8014 86.7568 23.8866C87.6053 24.8845 88.8153 25.3002 90.2568 25.3002C92.731 25.3002 94.103 23.7093 94.103 23.7093L93.9791 24.4814C93.9325 24.7767 94.1599 25.0414 94.4577 25.0414H96.9599C97.3561 25.0414 97.6938 24.7529 97.7557 24.3601L99.2584 14.8494C99.3042 14.5567 99.0768 14.2911 98.779 14.2911ZM94.9057 19.6994C94.6393 21.2869 93.3776 22.3526 91.7705 22.3526C90.9653 22.3526 90.3188 22.0938 89.9047 21.6034C89.4941 21.1163 89.3396 20.4231 89.4686 19.651C89.7206 18.0771 91.0001 16.9766 92.5825 16.9766C93.3716 16.9766 94.0131 17.2388 94.4356 17.7334C94.8607 18.2332 95.0287 18.9306 94.9057 19.6994Z" fill="#179BD7"/>
<path d="M102.055 9.33182L99.6731 24.4841C99.6264 24.7776 99.8538 25.0424 100.15 25.0424H102.544C102.942 25.0424 103.28 24.7539 103.341 24.361L105.69 9.482C105.736 9.18843 105.509 8.92285 105.213 8.92285H102.532C102.295 8.9237 102.091 9.09679 102.055 9.33182Z" fill="#179BD7"/>
<path d="M7.0002 27.934L7.44396 25.1154L6.45547 25.0925H1.73535L5.01559 4.29356C5.02578 4.23077 5.05887 4.17222 5.10723 4.13065C5.15559 4.08907 5.21753 4.06616 5.28202 4.06616H13.2408C15.883 4.06616 17.7064 4.61598 18.6584 5.70119C19.1047 6.21028 19.3889 6.74228 19.5264 7.32774C19.6706 7.94204 19.6732 8.67598 19.5323 9.57113L19.5221 9.63647V10.21L19.9684 10.4629C20.3443 10.6623 20.643 10.8905 20.8721 11.1519C21.2539 11.5871 21.5008 12.1403 21.6052 12.7962C21.7129 13.4708 21.6773 14.2734 21.5008 15.1822C21.2972 16.2275 20.968 17.1379 20.5234 17.8829C20.1144 18.5693 19.5934 19.1386 18.9749 19.5799C18.3843 19.999 17.6826 20.3172 16.8893 20.5208C16.1206 20.7211 15.2441 20.822 14.2827 20.822H13.6634C13.2204 20.822 12.7903 20.9816 12.4526 21.2675C12.114 21.5594 11.89 21.9582 11.8213 22.3943L11.7746 22.648L10.9906 27.6159L10.955 27.7983C10.9457 27.856 10.9295 27.8848 10.9058 27.9043C10.8846 27.9222 10.854 27.934 10.8243 27.934H7.0002Z" fill="#253B80"/>
<path d="M20.3901 9.70264C20.3664 9.85452 20.3392 10.0098 20.3087 10.1693C19.2591 15.558 15.6683 17.4196 11.0823 17.4196H8.74722C8.18638 17.4196 7.71377 17.8269 7.62638 18.3801L6.43086 25.9622L6.09231 28.1114C6.03547 28.4745 6.31547 28.802 6.68201 28.802H10.8235C11.3139 28.802 11.7305 28.4457 11.8077 27.962L11.8484 27.7516L12.6282 22.8032L12.6783 22.5317C12.7546 22.0464 13.1721 21.69 13.6625 21.69H14.2819C18.2944 21.69 21.4355 20.0609 22.3535 15.3468C22.737 13.3774 22.5385 11.7331 21.5237 10.5766C21.2166 10.2278 20.8356 9.93852 20.3901 9.70264Z" fill="#179BD7"/>
<path d="M19.2937 9.26467C19.1334 9.218 18.9679 9.17558 18.7982 9.13739C18.6277 9.10006 18.4529 9.06697 18.273 9.03812C17.6434 8.9363 16.9536 8.88794 16.2146 8.88794H9.97653C9.82296 8.88794 9.67702 8.92273 9.54635 8.98552C9.25872 9.12382 9.0449 9.39618 8.99314 9.72964L7.66611 18.1347L7.62793 18.3799C7.71532 17.8267 8.18793 17.4195 8.74878 17.4195H11.0838C15.6699 17.4195 19.2607 15.557 20.3102 10.1692C20.3416 10.0096 20.3679 9.85436 20.3917 9.70248C20.1261 9.56164 19.8385 9.44115 19.5288 9.33848C19.4524 9.31303 19.3735 9.28842 19.2937 9.26467Z" fill="#222D65"/>
<path d="M8.99228 9.72975C9.04404 9.3963 9.25786 9.12393 9.54549 8.98648C9.67701 8.92369 9.8221 8.8889 9.97568 8.8889H16.2137C16.9528 8.8889 17.6426 8.93727 18.2722 9.03908C18.452 9.06793 18.6268 9.10102 18.7974 9.13836C18.9671 9.17654 19.1325 9.21896 19.2929 9.26563C19.3726 9.28939 19.4516 9.31399 19.5288 9.3386C19.8385 9.44127 20.1261 9.5626 20.3917 9.7026C20.7039 7.71121 20.3891 6.35533 19.3124 5.12757C18.1254 3.77593 15.9829 3.19727 13.2415 3.19727H5.28271C4.72271 3.19727 4.24501 3.60454 4.15847 4.1586L0.843436 25.1713C0.778103 25.5871 1.09883 25.9621 1.51798 25.9621H6.43156L7.66525 18.1348L8.99228 9.72975Z" fill="#253B80"/>
</g>
<defs>
<clipPath id="clip0_8338_23821">
<rect width="104.861" height="25.6056" fill="white" transform="translate(0.834961 3.19727)"/>
</clipPath>
</defs>
</svg>
