<svg width="53" height="14" viewBox="0 0 53 14" fill="none" xmlns="http://www.w3.org/2000/svg">
<g clip-path="url(#clip0_7283_26215)">
<path d="M19.6735 3.46182H16.7721C16.5736 3.46182 16.4047 3.60606 16.3738 3.80206L15.2003 11.242C15.177 11.3888 15.2907 11.5212 15.4396 11.5212H16.8247C17.0233 11.5212 17.1921 11.3769 17.2231 11.1805L17.5396 9.17382C17.5701 8.9774 17.7394 8.83316 17.9375 8.83316H18.856C20.7672 8.83316 21.8703 7.90831 22.1583 6.07558C22.2881 5.27376 22.1638 4.64376 21.7884 4.20255C21.376 3.71806 20.6446 3.46182 19.6735 3.46182ZM20.0083 6.1791C19.8496 7.22019 19.0541 7.22019 18.285 7.22019H17.8472L18.1543 5.27588C18.1726 5.15837 18.2744 5.07182 18.3932 5.07182H18.5938C19.1178 5.07182 19.612 5.07182 19.8674 5.37049C20.0197 5.54867 20.0664 5.8134 20.0083 6.1791Z" fill="#253B80"/>
<path d="M28.3469 6.14556H26.9575C26.8391 6.14556 26.7369 6.2321 26.7187 6.34962L26.6571 6.73823L26.56 6.59738C26.2592 6.16083 25.5885 6.01489 24.919 6.01489C23.3837 6.01489 22.0723 7.17774 21.817 8.80895C21.6842 9.62265 21.873 10.4007 22.3345 10.9433C22.7579 11.4422 23.3637 11.6501 24.0845 11.6501C25.3216 11.6501 26.0076 10.8547 26.0076 10.8547L25.9457 11.2407C25.9223 11.3883 26.036 11.5207 26.1841 11.5207H27.4356C27.6346 11.5207 27.8026 11.3765 27.834 11.18L28.5849 6.42471C28.6087 6.27835 28.4954 6.14556 28.3469 6.14556ZM26.4102 8.84968C26.2762 9.64344 25.6462 10.1763 24.8427 10.1763C24.4392 10.1763 24.1168 10.0469 23.9097 9.80168C23.7044 9.55817 23.6263 9.21156 23.6917 8.8255C23.8168 8.03853 24.4574 7.48829 25.2487 7.48829C25.6432 7.48829 25.9639 7.61938 26.1752 7.86671C26.3869 8.11659 26.4709 8.46532 26.4102 8.84968Z" fill="#253B80"/>
<path d="M35.7468 6.14557H34.3506C34.2174 6.14557 34.0922 6.21175 34.0167 6.32248L32.0911 9.15896L31.2749 6.43321C31.2235 6.26266 31.0661 6.14557 30.8879 6.14557H29.5159C29.3492 6.14557 29.2334 6.30848 29.2864 6.46545L30.8243 10.9785L29.3785 13.0196C29.2648 13.1804 29.3793 13.4014 29.5758 13.4014H30.9702C31.1026 13.4014 31.2265 13.3369 31.3016 13.2283L35.9453 6.52527C36.0565 6.3649 35.9424 6.14557 35.7468 6.14557Z" fill="#253B80"/>
<path d="M40.3688 3.46182H37.467C37.2689 3.46182 37.1 3.60606 37.0691 3.80206L35.8956 11.242C35.8723 11.3888 35.986 11.5212 36.1341 11.5212H37.6231C37.7614 11.5212 37.8798 11.4202 37.9014 11.2827L38.2345 9.17382C38.265 8.9774 38.4343 8.83316 38.6324 8.83316H39.5505C41.4621 8.83316 42.5647 7.90831 42.8532 6.07558C42.9834 5.27376 42.8583 4.64376 42.4828 4.20255C42.0709 3.71806 41.3399 3.46182 40.3688 3.46182ZM40.7036 6.1791C40.5453 7.22019 39.7499 7.22019 38.9803 7.22019H38.5429L38.8505 5.27588C38.8687 5.15837 38.9697 5.07182 39.0889 5.07182H39.2896C39.8131 5.07182 40.3077 5.07182 40.5631 5.37049C40.7154 5.54867 40.7617 5.8134 40.7036 6.1791Z" fill="#179BD7"/>
<path d="M49.0414 6.14556H47.6528C47.5336 6.14556 47.4322 6.2321 47.4144 6.34962L47.3529 6.73823L47.2553 6.59738C46.9545 6.16083 46.2842 6.01489 45.6148 6.01489C44.0794 6.01489 42.7685 7.17774 42.5131 8.80895C42.3808 9.62265 42.5687 10.4007 43.0303 10.9433C43.4545 11.4422 44.0595 11.6501 44.7803 11.6501C46.0174 11.6501 46.7034 10.8547 46.7034 10.8547L46.6414 11.2407C46.6181 11.3883 46.7318 11.5207 46.8807 11.5207H48.1318C48.3299 11.5207 48.4988 11.3765 48.5297 11.18L49.2811 6.42471C49.304 6.27835 49.1903 6.14556 49.0414 6.14556ZM47.1047 8.84968C46.9715 9.64344 46.3406 10.1763 45.5371 10.1763C45.1345 10.1763 44.8112 10.0469 44.6042 9.80168C44.3989 9.55817 44.3217 9.21156 44.3862 8.8255C44.5122 8.03853 45.1519 7.48829 45.9431 7.48829C46.3377 7.48829 46.6584 7.61938 46.8697 7.86671C47.0822 8.11659 47.1662 8.46532 47.1047 8.84968Z" fill="#179BD7"/>
<path d="M50.6792 3.66588L49.4884 11.242C49.4651 11.3888 49.5788 11.5212 49.7268 11.5212H50.924C51.123 11.5212 51.2919 11.3769 51.3224 11.1805L52.4967 3.74097C52.52 3.59418 52.4063 3.4614 52.2583 3.4614H50.9177C50.7993 3.46182 50.6975 3.54836 50.6792 3.66588Z" fill="#179BD7"/>
<path d="M3.15196 12.967L3.37383 11.5576L2.87959 11.5462H0.519531L2.15965 1.14672C2.16474 1.11532 2.18129 1.08605 2.20547 1.06526C2.22965 1.04447 2.26062 1.03302 2.29286 1.03302H6.27226C7.59335 1.03302 8.50505 1.30793 8.98105 1.85054C9.2042 2.10508 9.34632 2.37108 9.41505 2.66381C9.48717 2.97096 9.48844 3.33793 9.41802 3.7855L9.41292 3.81817V4.10496L9.63608 4.23138C9.82401 4.33108 9.97335 4.4452 10.0879 4.57587C10.2788 4.7935 10.4023 5.07011 10.4544 5.39805C10.5083 5.73532 10.4905 6.13666 10.4023 6.59102C10.3004 7.11369 10.1358 7.5689 9.91353 7.94138C9.70905 8.2846 9.44856 8.56926 9.13929 8.78987C8.84402 8.99944 8.49317 9.15854 8.0965 9.26035C7.71214 9.36047 7.27389 9.41096 6.79323 9.41096H6.48353C6.26208 9.41096 6.04699 9.49072 5.87814 9.63369C5.70886 9.77963 5.59686 9.97902 5.5625 10.1971L5.53917 10.3239L5.14717 12.8079L5.12935 12.8991C5.12468 12.9279 5.11662 12.9424 5.10474 12.9521C5.09414 12.961 5.07886 12.967 5.06402 12.967H3.15196Z" fill="#253B80"/>
<path d="M9.84692 3.85126C9.83504 3.9272 9.82147 4.00483 9.8062 4.08459C9.28141 6.77895 7.48601 7.70974 5.19298 7.70974H4.02547C3.74504 7.70974 3.50874 7.91338 3.46504 8.18998L2.86729 11.981L2.69801 13.0556C2.66959 13.2372 2.80959 13.401 2.99286 13.401H5.06359C5.3088 13.401 5.5171 13.2228 5.55571 12.981L5.57607 12.8757L5.96595 10.4016L5.99098 10.2658C6.02916 10.0231 6.23789 9.84495 6.4831 9.84495H6.7928C8.79904 9.84495 10.3696 9.03041 10.8286 6.67332C11.0204 5.68865 10.9211 4.86647 10.4137 4.28823C10.2601 4.11386 10.0697 3.9692 9.84692 3.85126Z" fill="#179BD7"/>
<path d="M9.29873 3.63236C9.21855 3.60903 9.13582 3.58782 9.05097 3.56873C8.9657 3.55006 8.8783 3.53352 8.78836 3.51909C8.47358 3.46818 8.12867 3.444 7.75915 3.444H4.64012C4.56334 3.444 4.49037 3.46139 4.42503 3.49279C4.28121 3.56194 4.17431 3.69812 4.14843 3.86485L3.48491 8.06739L3.46582 8.19C3.50952 7.91339 3.74582 7.70976 4.02624 7.70976H5.19376C7.48679 7.70976 9.28218 6.77855 9.80697 4.08461C9.82267 4.00485 9.83582 3.92721 9.8477 3.85127C9.71491 3.78085 9.57109 3.72061 9.41624 3.66927C9.37806 3.65655 9.33861 3.64424 9.29873 3.63236Z" fill="#222D65"/>
<path d="M4.148 3.86484C4.17388 3.69812 4.28078 3.56194 4.4246 3.49321C4.49036 3.46181 4.56291 3.44442 4.63969 3.44442H7.75872C8.12824 3.44442 8.47315 3.4686 8.78794 3.51951C8.87788 3.53394 8.96527 3.55048 9.05054 3.56915C9.13539 3.58824 9.21812 3.60945 9.2983 3.63278C9.33818 3.64466 9.37763 3.65697 9.41624 3.66927C9.57109 3.7206 9.7149 3.78127 9.84769 3.85127C10.0038 2.85557 9.84642 2.17763 9.30806 1.56375C8.71454 0.887936 7.64333 0.598602 6.2726 0.598602H2.29321C2.01321 0.598602 1.77436 0.802239 1.73109 1.07927L0.0735736 11.5856C0.040907 11.7935 0.201271 11.981 0.410846 11.981H2.86763L3.48448 8.06739L4.148 3.86484Z" fill="#253B80"/>
</g>
<defs>
<clipPath id="clip0_7283_26215">
<rect width="52.4305" height="12.8028" fill="white" transform="translate(0.0693359 0.598602)"/>
</clipPath>
</defs>
</svg>
