<svg width="53" height="14" viewBox="0 0 53 14" fill="none" xmlns="http://www.w3.org/2000/svg">
<g clip-path="url(#clip0_7283_26215)">
<path d="M19.6511 3.46182H16.7497C16.5511 3.46182 16.3823 3.60606 16.3513 3.80206L15.1779 11.242C15.1545 11.3888 15.2682 11.5212 15.4171 11.5212H16.8023C17.0008 11.5212 17.1697 11.3769 17.2006 11.1805L17.5171 9.17382C17.5477 8.9774 17.7169 8.83316 17.9151 8.83316H18.8335C20.7448 8.83316 21.8478 7.90831 22.1359 6.07558C22.2657 5.27376 22.1414 4.64376 21.7659 4.20255C21.3535 3.71806 20.6222 3.46182 19.6511 3.46182ZM19.9858 6.1791C19.8271 7.22019 19.0317 7.22019 18.2625 7.22019H17.8247L18.1319 5.27588C18.1501 5.15837 18.2519 5.07182 18.3707 5.07182H18.5714C19.0953 5.07182 19.5895 5.07182 19.8449 5.37049C19.9972 5.54867 20.0439 5.8134 19.9858 6.1791Z" fill="#253B80"/>
<path d="M28.3244 6.14556H26.935C26.8167 6.14556 26.7144 6.2321 26.6962 6.34962L26.6347 6.73823L26.5375 6.59738C26.2367 6.16083 25.566 6.01489 24.8966 6.01489C23.3612 6.01489 22.0499 7.17774 21.7945 8.80895C21.6617 9.62265 21.8505 10.4007 22.3121 10.9433C22.7355 11.4422 23.3413 11.6501 24.0621 11.6501C25.2992 11.6501 25.9852 10.8547 25.9852 10.8547L25.9232 11.2407C25.8999 11.3883 26.0136 11.5207 26.1616 11.5207H27.4132C27.6121 11.5207 27.7801 11.3765 27.8115 11.18L28.5624 6.42471C28.5862 6.27835 28.4729 6.14556 28.3244 6.14556ZM26.3878 8.84968C26.2537 9.64344 25.6237 10.1763 24.8202 10.1763C24.4167 10.1763 24.0943 10.0469 23.8873 9.80168C23.6819 9.55817 23.6039 9.21156 23.6692 8.8255C23.7944 8.03853 24.435 7.48829 25.2262 7.48829C25.6207 7.48829 25.9415 7.61938 26.1527 7.86671C26.3644 8.11659 26.4484 8.46532 26.3878 8.84968Z" fill="#253B80"/>
<path d="M35.7243 6.14557H34.3282C34.1949 6.14557 34.0698 6.21175 33.9943 6.32248L32.0686 9.15896L31.2524 6.43321C31.2011 6.26266 31.0437 6.14557 30.8655 6.14557H29.4935C29.3268 6.14557 29.2109 6.30848 29.264 6.46545L30.8018 10.9785L29.356 13.0196C29.2423 13.1804 29.3569 13.4014 29.5533 13.4014H30.9478C31.0801 13.4014 31.204 13.3369 31.2791 13.2283L35.9229 6.52527C36.034 6.3649 35.9199 6.14557 35.7243 6.14557Z" fill="#253B80"/>
<path d="M40.3464 3.46182H37.4446C37.2464 3.46182 37.0776 3.60606 37.0466 3.80206L35.8732 11.242C35.8498 11.3888 35.9635 11.5212 36.1116 11.5212H37.6007C37.739 11.5212 37.8573 11.4202 37.879 11.2827L38.212 9.17382C38.2426 8.9774 38.4118 8.83316 38.61 8.83316H39.528C41.4397 8.83316 42.5423 7.90831 42.8307 6.07558C42.961 5.27376 42.8358 4.64376 42.4604 4.20255C42.0484 3.71806 41.3175 3.46182 40.3464 3.46182ZM40.6811 6.1791C40.5229 7.22019 39.7274 7.22019 38.9578 7.22019H38.5204L38.828 5.27588C38.8463 5.15837 38.9472 5.07182 39.0664 5.07182H39.2671C39.7906 5.07182 40.2853 5.07182 40.5407 5.37049C40.693 5.54867 40.7392 5.8134 40.6811 6.1791Z" fill="#179BD7"/>
<path d="M49.0189 6.14556H47.6304C47.5112 6.14556 47.4098 6.2321 47.3919 6.34962L47.3304 6.73823L47.2328 6.59738C46.9321 6.16083 46.2618 6.01489 45.5923 6.01489C44.057 6.01489 42.7461 7.17774 42.4907 8.80895C42.3583 9.62265 42.5462 10.4007 43.0078 10.9433C43.4321 11.4422 44.037 11.6501 44.7578 11.6501C45.9949 11.6501 46.6809 10.8547 46.6809 10.8547L46.619 11.2407C46.5956 11.3883 46.7093 11.5207 46.8582 11.5207H48.1093C48.3075 11.5207 48.4763 11.3765 48.5073 11.18L49.2586 6.42471C49.2815 6.27835 49.1678 6.14556 49.0189 6.14556ZM47.0822 8.84968C46.949 9.64344 46.3182 10.1763 45.5147 10.1763C45.1121 10.1763 44.7888 10.0469 44.5818 9.80168C44.3764 9.55817 44.2992 9.21156 44.3637 8.8255C44.4897 8.03853 45.1295 7.48829 45.9207 7.48829C46.3152 7.48829 46.6359 7.61938 46.8472 7.86671C47.0598 8.11659 47.1438 8.46532 47.0822 8.84968Z" fill="#179BD7"/>
<path d="M50.6568 3.66588L49.4659 11.242C49.4426 11.3888 49.5563 11.5212 49.7044 11.5212H50.9016C51.1005 11.5212 51.2694 11.3769 51.2999 11.1805L52.4742 3.74097C52.4976 3.59418 52.3839 3.4614 52.2358 3.4614H50.8952C50.7768 3.46182 50.675 3.54836 50.6568 3.66588Z" fill="#179BD7"/>
<path d="M3.12949 12.967L3.35137 11.5576L2.85713 11.5462H0.49707L2.13719 1.14672C2.14228 1.11532 2.15883 1.08605 2.18301 1.06526C2.20719 1.04447 2.23816 1.03302 2.2704 1.03302H6.2498C7.57089 1.03302 8.48258 1.30793 8.95858 1.85054C9.18174 2.10508 9.32386 2.37108 9.39258 2.66381C9.46471 2.97096 9.46598 3.33793 9.39555 3.7855L9.39046 3.81817V4.10496L9.61362 4.23138C9.80155 4.33108 9.95089 4.4452 10.0654 4.57587C10.2563 4.7935 10.3798 5.07011 10.432 5.39805C10.4859 5.73532 10.468 6.13666 10.3798 6.59102C10.278 7.11369 10.1134 7.5689 9.89107 7.94138C9.68658 8.2846 9.4261 8.56926 9.11683 8.78987C8.82155 8.99944 8.47071 9.15854 8.07404 9.26035C7.68968 9.36047 7.25143 9.41096 6.77077 9.41096H6.46107C6.23962 9.41096 6.02452 9.49072 5.85568 9.63369C5.6864 9.77963 5.5744 9.97902 5.54004 10.1971L5.51671 10.3239L5.12471 12.8079L5.10689 12.8991C5.10222 12.9279 5.09416 12.9424 5.08228 12.9521C5.07168 12.961 5.0564 12.967 5.04155 12.967H3.12949Z" fill="#253B80"/>
<path d="M9.82446 3.85126C9.81258 3.9272 9.79901 4.00483 9.78373 4.08459C9.25895 6.77895 7.46355 7.70974 5.17052 7.70974H4.00301C3.72258 7.70974 3.48628 7.91338 3.44258 8.18998L2.84482 11.981L2.67555 13.0556C2.64713 13.2372 2.78713 13.401 2.9704 13.401H5.04113C5.28634 13.401 5.49464 13.2228 5.53325 12.981L5.55361 12.8757L5.94349 10.4016L5.96852 10.2658C6.0067 10.0231 6.21543 9.84495 6.46064 9.84495H6.77034C8.77658 9.84495 10.3471 9.03041 10.8062 6.67332C10.9979 5.68865 10.8986 4.86647 10.3913 4.28823C10.2377 4.11386 10.0472 3.9692 9.82446 3.85126Z" fill="#179BD7"/>
<path d="M9.27627 3.63236C9.19608 3.60903 9.11336 3.58782 9.02851 3.56873C8.94324 3.55006 8.85584 3.53352 8.7659 3.51909C8.45112 3.46818 8.10621 3.444 7.73669 3.444H4.61766C4.54087 3.444 4.4679 3.46139 4.40257 3.49279C4.25875 3.56194 4.15184 3.69812 4.12597 3.86485L3.46245 8.06739L3.44336 8.19C3.48706 7.91339 3.72336 7.70976 4.00378 7.70976H5.1713C7.46433 7.70976 9.25972 6.77855 9.78451 4.08461C9.80021 4.00485 9.81336 3.92721 9.82524 3.85127C9.69245 3.78085 9.54863 3.72061 9.39378 3.66927C9.3556 3.65655 9.31615 3.64424 9.27627 3.63236Z" fill="#222D65"/>
<path d="M4.12554 3.86484C4.15141 3.69812 4.25832 3.56194 4.40214 3.49321C4.4679 3.46181 4.54044 3.44442 4.61723 3.44442H7.73626C8.10578 3.44442 8.45069 3.4686 8.76548 3.51951C8.85541 3.53394 8.94281 3.55048 9.02808 3.56915C9.11293 3.58824 9.19566 3.60945 9.27584 3.63278C9.31572 3.64466 9.35517 3.65697 9.39378 3.66927C9.54863 3.7206 9.69244 3.78127 9.82523 3.85127C9.98135 2.85557 9.82396 2.17763 9.2856 1.56375C8.69208 0.887936 7.62087 0.598602 6.25014 0.598602H2.27075C1.99075 0.598602 1.7519 0.802239 1.70863 1.07927L0.0511127 11.5856C0.018446 11.7935 0.17881 11.981 0.388385 11.981H2.84517L3.46202 8.06739L4.12554 3.86484Z" fill="#253B80"/>
</g>
<defs>
<clipPath id="clip0_7283_26215">
<rect width="52.4305" height="12.8028" fill="white" transform="translate(0.046875 0.598602)"/>
</clipPath>
</defs>
</svg>
