<svg width="29" height="32" viewBox="0 0 29 32" fill="none" xmlns="http://www.w3.org/2000/svg">
<g clip-path="url(#clip0_8339_24029)">
<path d="M22.6716 23.4182C22.1317 23.4202 21.5967 23.3151 21.0976 23.1091C20.5984 22.9031 20.1451 22.6002 19.7637 22.218L15.5632 18.0148C15.4146 17.8727 15.217 17.7935 15.0114 17.7935C14.8059 17.7935 14.6082 17.8727 14.4596 18.0148L10.245 22.2295C9.86381 22.6123 9.41058 22.9158 8.91145 23.1224C8.41233 23.329 7.8772 23.4347 7.337 23.4333H6.51465L11.8373 28.756C12.6356 29.5526 13.7173 30 14.8451 30C15.9728 30 17.0546 29.5526 17.8528 28.756L23.1862 23.4218L22.6716 23.4182Z" fill="#32BCAD"/>
<path d="M7.33789 8.56443C7.8781 8.56299 8.41323 8.66863 8.91237 8.87526C9.4115 9.08188 9.86472 9.38539 10.2458 9.76824L14.4605 13.9838C14.607 14.1299 14.8054 14.2119 15.0123 14.2119C15.2192 14.2119 15.4176 14.1299 15.5641 13.9838L19.7637 9.78421C20.1445 9.40088 20.5977 9.097 21.0968 8.8902C21.596 8.6834 22.1313 8.57779 22.6716 8.57951H23.1773L17.844 3.24618C17.449 2.8511 16.9801 2.5377 16.4641 2.32388C15.948 2.11005 15.3948 2 14.8362 2C14.2776 2 13.7244 2.11005 13.2084 2.32388C12.6923 2.5377 12.2234 2.8511 11.8285 3.24618L6.51465 8.56443H7.33789Z" fill="#32BCAD"/>
<path d="M27.5888 12.992L24.3659 9.76908C24.2932 9.79879 24.2155 9.81444 24.137 9.81521H22.6715C21.9089 9.81711 21.1779 10.12 20.6374 10.658L16.4378 14.8549C16.0596 15.2324 15.547 15.4445 15.0126 15.4445C14.4782 15.4445 13.9657 15.2324 13.5875 14.8549L9.3719 10.642C8.83153 10.1037 8.10049 9.8005 7.33775 9.79835H5.53868C5.46454 9.79668 5.39127 9.78197 5.32223 9.75488L2.07894 12.992C1.28234 13.7903 0.834961 14.872 0.834961 15.9997C0.834961 17.1275 1.28234 18.2092 2.07894 19.0075L5.31513 22.2437C5.38402 22.2161 5.45739 22.2014 5.53159 22.2002H7.33775C8.10047 22.198 8.83148 21.8948 9.3719 21.3566L13.5866 17.1419C14.3486 16.3807 15.6766 16.3807 16.4378 17.1419L20.6374 21.3406C21.1779 21.8786 21.9089 22.1814 22.6715 22.1833H24.137C24.2156 22.1839 24.2933 22.1996 24.3659 22.2295L27.5888 19.0066C27.9839 18.6117 28.2973 18.1428 28.5111 17.6267C28.7249 17.1106 28.835 16.5575 28.835 15.9988C28.835 15.4402 28.7249 14.8871 28.5111 14.371C28.2973 13.8549 27.9839 13.386 27.5888 12.9911" fill="#32BCAD"/>
</g>
<defs>
<clipPath id="clip0_8339_24029">
<rect width="28" height="28" fill="white" transform="translate(0.834961 2)"/>
</clipPath>
</defs>
</svg>
