<svg width="15" height="14" viewBox="0 0 15 14" fill="none" xmlns="http://www.w3.org/2000/svg">
<g clip-path="url(#clip0_7283_26225)">
<path d="M10.9389 10.7091C10.6689 10.7101 10.4014 10.6576 10.1518 10.5546C9.90224 10.4516 9.67557 10.3001 9.48487 10.109L7.38463 8.00744C7.31034 7.9364 7.21152 7.89676 7.10874 7.89676C7.00596 7.89676 6.90713 7.9364 6.83285 8.00744L4.72551 10.1148C4.53493 10.3062 4.30832 10.4579 4.05875 10.5612C3.80919 10.6645 3.54163 10.7174 3.27153 10.7167H2.86035L5.52169 13.378C5.92084 13.7763 6.46169 14 7.02557 14C7.58945 14 8.1303 13.7763 8.52945 13.378L11.1961 10.7109L10.9389 10.7091Z" fill="#32BCAD"/>
<path d="M3.27197 3.28221C3.54208 3.28149 3.80964 3.33432 4.05921 3.43763C4.30878 3.54094 4.53539 3.6927 4.72595 3.88412L6.83329 5.9919C6.90654 6.06493 7.00575 6.10593 7.10918 6.10593C7.21261 6.10593 7.31182 6.06493 7.38507 5.9919L9.48487 3.8921C9.67528 3.70044 9.90185 3.5485 10.1514 3.4451C10.401 3.3417 10.6687 3.2889 10.9389 3.28975H11.1917L8.52502 0.623091C8.32755 0.425552 8.0931 0.268851 7.83506 0.161939C7.57702 0.0550274 7.30045 0 7.02114 0C6.74182 0 6.46525 0.0550274 6.20721 0.161939C5.94917 0.268851 5.71472 0.425552 5.51726 0.623091L2.86035 3.28221H3.27197Z" fill="#32BCAD"/>
<path d="M13.3974 5.49601L11.786 3.88457C11.7496 3.89942 11.7108 3.90725 11.6715 3.90763H10.9388C10.5575 3.90859 10.192 4.06002 9.92171 4.32901L7.82191 6.42748C7.6328 6.61624 7.37653 6.72226 7.10933 6.72226C6.84214 6.72226 6.58587 6.61624 6.39676 6.42748L4.28898 4.32103C4.01879 4.05188 3.65327 3.90028 3.2719 3.89921H2.37237C2.3353 3.89837 2.29866 3.89101 2.26414 3.87747L0.642498 5.49601C0.244199 5.89516 0.0205078 6.43601 0.0205078 6.99989C0.0205078 7.56377 0.244199 8.10462 0.642498 8.50377L2.26059 10.1219C2.29504 10.1081 2.33172 10.1007 2.36882 10.1001H3.2719C3.65326 10.099 4.01877 9.94742 4.28898 9.67831L6.39632 7.57097C6.77733 7.1904 7.44134 7.1904 7.82191 7.57097L9.92171 9.67032C10.192 9.93931 10.5575 10.0907 10.9388 10.0917H11.6715C11.7108 10.092 11.7497 10.0998 11.786 10.1148L13.3974 8.50333C13.595 8.30586 13.7517 8.07141 13.8586 7.81337C13.9655 7.55533 14.0205 7.27876 14.0205 6.99945C14.0205 6.72014 13.9655 6.44356 13.8586 6.18552C13.7517 5.92748 13.595 5.69303 13.3974 5.49557" fill="#32BCAD"/>
</g>
<defs>
<clipPath id="clip0_7283_26225">
<rect width="14" height="14" fill="white" transform="translate(0.0205078)"/>
</clipPath>
</defs>
</svg>
