<svg width="15" height="14" viewBox="0 0 15 14" fill="none" xmlns="http://www.w3.org/2000/svg">
<g clip-path="url(#clip0_7283_26225)">
<path d="M11.3598 10.7091C11.0898 10.7101 10.8223 10.6576 10.5727 10.5546C10.3231 10.4516 10.0965 10.3001 9.90577 10.109L7.80553 8.00744C7.73124 7.9364 7.63242 7.89676 7.52964 7.89676C7.42685 7.89676 7.32803 7.9364 7.25374 8.00744L5.14641 10.1148C4.95583 10.3062 4.72921 10.4579 4.47965 10.5612C4.23009 10.6645 3.96253 10.7174 3.69243 10.7167H3.28125L5.94259 13.378C6.34174 13.7763 6.88259 14 7.44647 14C8.01035 14 8.5512 13.7763 8.95035 13.378L11.617 10.7109L11.3598 10.7091Z" fill="#32BCAD"/>
<path d="M3.69287 3.28221C3.96297 3.28149 4.23054 3.33432 4.48011 3.43763C4.72967 3.54094 4.95629 3.6927 5.14685 3.88412L7.25419 5.9919C7.32744 6.06493 7.42665 6.10593 7.53008 6.10593C7.63351 6.10593 7.73272 6.06493 7.80597 5.9919L9.90577 3.8921C10.0962 3.70044 10.3228 3.5485 10.5723 3.4451C10.8219 3.3417 11.0896 3.2889 11.3597 3.28975H11.6126L8.94591 0.623091C8.74845 0.425552 8.514 0.268851 8.25596 0.161939C7.99792 0.0550274 7.72134 0 7.44203 0C7.16272 0 6.88615 0.0550274 6.62811 0.161939C6.37007 0.268851 6.13562 0.425552 5.93815 0.623091L3.28125 3.28221H3.69287Z" fill="#32BCAD"/>
<path d="M13.8183 5.49601L12.2069 3.88457C12.1705 3.89942 12.1317 3.90725 12.0924 3.90763H11.3597C10.9784 3.90859 10.6129 4.06002 10.3426 4.32901L8.24281 6.42748C8.0537 6.61624 7.79743 6.72226 7.53023 6.72226C7.26304 6.72226 7.00676 6.61624 6.81766 6.42748L4.70988 4.32103C4.43969 4.05188 4.07417 3.90028 3.6928 3.89921H2.79327C2.7562 3.89837 2.71956 3.89101 2.68504 3.87747L1.0634 5.49601C0.665097 5.89516 0.441406 6.43601 0.441406 6.99989C0.441406 7.56377 0.665097 8.10462 1.0634 8.50377L2.68149 10.1219C2.71594 10.1081 2.75262 10.1007 2.78972 10.1001H3.6928C4.07416 10.099 4.43967 9.94742 4.70988 9.67831L6.81721 7.57097C7.19823 7.1904 7.86223 7.1904 8.24281 7.57097L10.3426 9.67032C10.6129 9.93931 10.9784 10.0907 11.3597 10.0917H12.0924C12.1317 10.092 12.1706 10.0998 12.2069 10.1148L13.8183 8.50333C14.0159 8.30586 14.1726 8.07141 14.2795 7.81337C14.3864 7.55533 14.4414 7.27876 14.4414 6.99945C14.4414 6.72014 14.3864 6.44356 14.2795 6.18552C14.1726 5.92748 14.0159 5.69303 13.8183 5.49557" fill="#32BCAD"/>
</g>
<defs>
<clipPath id="clip0_7283_26225">
<rect width="14" height="14" fill="white" transform="translate(0.441406)"/>
</clipPath>
</defs>
</svg>
