<svg width="66" height="32" viewBox="0 0 66 32" fill="none" xmlns="http://www.w3.org/2000/svg">
<g clip-path="url(#clip0_8402_24487)">
<path d="M40.7813 14.4368C41.7141 15.1439 42.8041 15.3353 43.9302 15.3769C44.8107 15.4094 45.6659 15.2324 46.5049 14.9759C47.0052 14.8224 47.0133 14.8206 46.9555 14.3113C46.9158 13.9573 46.8507 13.606 46.7947 13.2393C45.6921 13.6683 44.5777 13.7857 43.4381 13.6349C42.5242 13.5139 41.8342 13.0551 41.5118 12.1665C41.0711 10.9519 41.0793 9.71649 41.4685 8.49013C41.7141 7.7144 42.2523 7.2105 43.0416 7.00821C43.7415 6.8294 44.4585 6.81766 45.171 6.92332C45.6975 7.00189 46.2186 7.11567 46.774 7.22043C46.8489 6.73368 46.9284 6.24512 46.9916 5.75566C46.9979 5.7069 46.9167 5.61749 46.858 5.59492C46.1409 5.32581 45.3923 5.19938 44.6319 5.15693C43.9221 5.1172 43.215 5.16958 42.5224 5.33574C41.0666 5.68432 40.0028 6.5052 39.4772 7.93656C39.0113 9.20717 38.9824 10.5166 39.2361 11.8324C39.4375 12.879 39.9107 13.7785 40.7813 14.4377V14.4368Z" fill="#5C2483"/>
<path d="M34.8732 13.5336C33.9936 13.8659 33.0905 13.7756 32.2055 13.5562C31.6032 13.4063 31.0189 13.1814 30.4003 12.9818C30.3235 13.4957 30.2414 14.0475 30.1592 14.5929C30.2034 14.6209 30.2269 14.639 30.254 14.6525C30.3217 14.6859 30.3886 14.7202 30.4581 14.7491C31.6176 15.2187 32.816 15.4436 34.0721 15.3506C34.7097 15.3036 35.3274 15.1907 35.9126 14.9343C37.2645 14.3419 37.8253 13.3386 37.6456 11.9253C37.5236 10.9689 37.0062 10.2718 36.1176 9.92408C35.3933 9.64052 34.623 9.47435 33.8825 9.22872C33.3994 9.06888 32.9198 8.88646 32.4638 8.6625C32.1577 8.51169 32.0755 8.17665 32.1513 7.83891C32.2407 7.44156 32.5171 7.22031 32.8666 7.08485C33.7642 6.73537 34.6889 6.82387 35.6074 6.96836C36.0878 7.04331 36.561 7.16793 37.0568 7.27359C37.12 6.85999 37.1724 6.44277 37.2518 6.03098C37.3223 5.66704 37.3223 5.6833 36.9836 5.61196C36.3018 5.46747 35.6155 5.33381 34.9246 5.2408C34.0189 5.11889 33.1203 5.20377 32.2453 5.47198C30.5592 5.99034 29.9948 7.45059 30.329 8.84763C30.5186 9.64323 31.0812 10.1616 31.8091 10.4506C32.4683 10.7125 33.1682 10.8759 33.8518 11.0755C34.4379 11.2471 35.0348 11.3943 35.5035 11.8205C35.881 12.1637 35.9388 12.6784 35.592 13.0514C35.3996 13.2582 35.1387 13.4352 34.8741 13.5354L34.8732 13.5336Z" fill="#5C2483"/>
<path d="M55.808 10.1429C55.7113 10.1112 55.6156 10.0751 55.5199 10.0408C55.5235 10.0182 55.5271 9.99566 55.5298 9.97308C55.5885 9.94689 55.6454 9.91709 55.7059 9.89632C56.2478 9.70758 56.6153 9.33913 56.8049 8.80181C56.9567 8.37195 57.0072 7.93216 56.9503 7.4716C56.8645 6.76811 56.5295 6.24072 55.9263 5.8804C55.1948 5.44332 54.3748 5.35663 53.553 5.34308C52.1162 5.3187 50.6795 5.33676 49.2427 5.33676H48.9971V15.2009C49.0756 15.2045 49.1352 15.209 49.1957 15.209C50.7608 15.2081 52.3267 15.2253 53.8917 15.1937C54.4281 15.1828 54.978 15.1079 55.4928 14.9607C57.1905 14.4757 57.6583 13.1853 57.3712 11.7485C57.2023 10.905 56.6117 10.4029 55.8062 10.1438L55.808 10.1429ZM50.9143 6.94421C51.0064 6.94421 51.0868 6.94421 51.1671 6.94421C51.9763 6.94511 52.7854 6.93518 53.5937 6.95414C53.8673 6.96047 54.1481 7.01284 54.4109 7.09322C54.848 7.22867 55.1036 7.61067 55.1063 8.07213C55.1072 8.25275 55.1189 8.43968 55.0792 8.61307C54.9663 9.10885 54.5699 9.43576 53.9793 9.45111C52.9678 9.4773 51.9546 9.45833 50.9143 9.45833V6.94331V6.94421ZM55.4485 12.6037C55.3257 13.2078 54.9446 13.5637 54.2908 13.5808C53.1882 13.6106 52.0837 13.5889 50.9793 13.5889C50.9657 13.5889 50.9522 13.579 50.9116 13.5637V10.8644C50.9928 10.8599 51.066 10.8518 51.1382 10.8518C51.8417 10.8509 52.5452 10.8409 53.2478 10.8554C53.6677 10.8635 54.094 10.8761 54.5067 10.9475C55.1307 11.0559 55.4648 11.4965 55.4684 12.1296C55.4684 12.2876 55.4783 12.4502 55.4467 12.6037H55.4485Z" fill="#5C2483"/>
<path d="M4.01004 23.5801C5.62472 24.3314 7.23307 25.0954 8.84594 25.8504C8.93083 25.8901 9.03468 25.9046 9.1295 25.9046C10.355 25.9082 11.5804 25.9019 12.805 25.9118C13.01 25.9136 13.0587 25.8459 13.0578 25.6517C13.0497 24.578 13.0542 23.5033 13.0533 22.4296C13.0533 22.3727 13.0434 22.3158 13.0352 22.2273C12.9395 22.2716 12.8673 22.3068 12.7932 22.3384C11.6644 22.8215 10.5193 23.2297 9.25774 23.0681C8.76737 23.0048 8.32397 22.8314 7.96184 22.4838C7.3297 21.876 7.13554 21.0858 7.12019 20.2595C7.10755 19.5705 7.17076 18.8751 7.25384 18.1897C7.35137 17.3806 7.55637 16.5931 7.90134 15.8481C8.84052 13.818 10.1888 12.0832 11.7999 10.5534C12.3327 10.0477 12.9621 9.64494 13.5464 9.19431C13.6909 9.08324 13.8299 9.08053 13.978 9.1907C14.444 9.53657 14.9389 9.84813 15.376 10.2274C16.512 11.2109 17.4792 12.3523 18.3326 13.5868C19.1869 14.8222 19.9103 16.1235 20.1848 17.6271C20.3853 18.7261 20.5496 19.8279 20.3383 20.9441C20.0538 22.4449 19.1725 23.0753 17.8133 23.1123C17.146 23.1304 16.4958 22.985 15.8663 22.77C15.4121 22.6147 14.9678 22.4323 14.4937 22.2517C14.4901 22.3167 14.4865 22.361 14.4865 22.4061C14.4865 23.4798 14.4937 24.5545 14.4801 25.6282C14.4774 25.8694 14.5578 25.9154 14.7782 25.9136C15.9657 25.9037 17.1532 25.9136 18.3407 25.9046C18.4934 25.9037 18.6568 25.8648 18.795 25.8007C20.3537 25.0738 21.9087 24.3378 23.4656 23.6045C23.7817 23.4555 23.7808 23.4573 23.695 23.1213C22.8271 19.7249 21.9602 16.3285 21.0888 12.9339C21.059 12.8174 20.9948 12.6919 20.909 12.6097C20.5559 12.2683 20.1893 11.9414 19.8263 11.6109C19.139 10.9851 18.4518 10.3602 17.7637 9.73615C16.8453 8.90443 15.925 8.07542 15.0066 7.2446C14.6427 6.91499 14.2779 6.58627 13.9184 6.25214C13.7983 6.14106 13.7107 6.14648 13.597 6.26749C13.447 6.42643 13.2746 6.56369 13.1129 6.7118C12.3932 7.36832 11.6743 8.02665 10.9528 8.68137C10.187 9.37673 9.41848 10.0703 8.64998 10.7629C8.08918 11.2686 7.52025 11.7653 6.96667 12.2792C6.74542 12.4842 6.49527 12.6594 6.41038 12.9962C5.55518 16.3872 4.68824 19.7764 3.81679 23.1638C3.7608 23.3823 3.80144 23.4844 4.00914 23.581L4.01004 23.5801Z" fill="#F7A823"/>
<path d="M0.834961 3.19995V28.8H26.6996V3.19995H0.834961ZM23.4657 23.6028C21.9097 24.3361 20.3546 25.0721 18.7951 25.7991C18.6569 25.8632 18.4934 25.902 18.3408 25.9029C17.1533 25.9111 15.9658 25.9029 14.7782 25.912C14.5579 25.9138 14.4775 25.8677 14.4802 25.6266C14.4938 24.5529 14.4865 23.4782 14.4865 22.4045C14.4865 22.3602 14.4902 22.3151 14.4938 22.25C14.9679 22.4298 15.4122 22.6131 15.8664 22.7684C16.4959 22.9833 17.1461 23.1287 17.8134 23.1107C19.1725 23.0736 20.053 22.4433 20.3384 20.9424C20.5497 19.8262 20.3863 18.7245 20.1849 17.6255C19.9103 16.1219 19.187 14.8206 18.3327 13.5852C17.4793 12.3507 16.513 11.2092 15.3761 10.2258C14.939 9.84739 14.4441 9.53493 13.9781 9.18906C13.8291 9.07888 13.6909 9.08069 13.5465 9.19267C12.9622 9.6433 12.3318 10.047 11.7999 10.5518C10.1889 12.0816 8.8406 13.8163 7.90142 15.8464C7.55645 16.5915 7.35146 17.3789 7.25392 18.1881C7.17175 18.8744 7.10853 19.5689 7.12027 20.2579C7.13472 21.0842 7.32978 21.8753 7.96192 22.4821C8.32405 22.8298 8.76746 23.0041 9.25782 23.0664C10.5194 23.2281 11.6645 22.8199 12.7933 22.3367C12.8674 22.3051 12.9396 22.2699 13.0353 22.2257C13.0435 22.3142 13.0534 22.3711 13.0534 22.4279C13.0543 23.5017 13.0498 24.5763 13.0579 25.6501C13.0597 25.8442 13.01 25.912 12.805 25.9102C11.5796 25.9011 10.3541 25.9065 9.12958 25.9029C9.03476 25.9029 8.93091 25.8885 8.84602 25.8487C7.23315 25.0929 5.6248 24.3289 4.01013 23.5784C3.80242 23.4818 3.76178 23.3789 3.81777 23.1612C4.68923 19.7738 5.55617 16.3856 6.41137 12.9937C6.49626 12.6577 6.7464 12.4825 6.96765 12.2766C7.52123 11.7628 8.09016 11.2661 8.65096 10.7604C9.41947 10.0677 10.1871 9.37419 10.9538 8.67883C11.6753 8.02411 12.3932 7.36578 13.1139 6.70925C13.2755 6.56205 13.448 6.42388 13.5979 6.26494C13.7117 6.14393 13.8002 6.13851 13.9194 6.24959C14.2797 6.58372 14.6437 6.91244 15.0076 7.24206C15.926 8.07287 16.8462 8.90188 17.7647 9.7336C18.4537 10.3576 19.14 10.9825 19.8273 11.6084C20.1903 11.9389 20.5569 12.2658 20.91 12.6071C20.9958 12.6893 21.0599 12.8149 21.0897 12.9313C21.9621 16.326 22.8281 19.7224 23.696 23.1188C23.7818 23.4547 23.7827 23.4529 23.4666 23.6019L23.4657 23.6028Z" fill="#5C2483"/>
<path d="M36.8762 25.3189L36.8365 26.9398H30.3115V17.054H36.6381L36.6649 18.7016H32.1308V21.0877H35.9799V22.5774H32.1308V25.3189H36.8762V25.3189Z" fill="#5C2483"/>
<path d="M44.0987 24.8177H40.1444L39.4853 26.9398H37.5479L41.0674 17.054H43.2421L46.7876 26.9398H44.7448L44.0987 24.8177V24.8177ZM41.8188 19.4133L40.6188 23.2753H43.6243L42.4381 19.4133L42.1612 18.385H42.1216L41.8188 19.4133V19.4133Z" fill="#5C2483"/>
<path d="M57.5497 17.054L59.4475 21.0877L59.8823 22.0495H59.9219L60.3308 21.0739L62.189 17.054H64.1791L60.7915 23.6971V26.9398H58.9334V23.6971L55.4932 17.054H57.5497V17.054Z" fill="#5C2483"/>
<path d="M52.2627 25.2776C51.3785 25.6114 50.4701 25.5208 49.5807 25.3C48.9751 25.149 48.3877 24.923 47.7649 24.722C47.6872 25.2388 47.6044 25.7934 47.5225 26.3421C47.5665 26.3705 47.5906 26.3887 47.6174 26.4016C47.6846 26.4352 47.7528 26.4697 47.8227 26.4982C48.9889 26.9701 50.1932 27.1961 51.457 27.1029C52.0979 27.0555 52.719 26.9425 53.3073 26.6845C54.6668 26.0893 55.2301 25.08 55.0498 23.6593C54.9273 22.6983 54.4072 21.997 53.5135 21.6476C52.7854 21.3629 52.0108 21.1956 51.2663 20.9489C50.7806 20.7875 50.2984 20.6047 49.8404 20.3795C49.5324 20.2277 49.4505 19.8904 49.5264 19.5514C49.6161 19.152 49.8939 18.9294 50.2458 18.7931C51.149 18.442 52.0781 18.5309 53.0019 18.6758C53.485 18.7517 53.9612 18.8759 54.4589 18.9829C54.5228 18.5671 54.5745 18.1479 54.6548 17.7338C54.7255 17.368 54.7255 17.3844 54.3847 17.312C53.6989 17.167 53.0088 17.0325 52.3144 16.9385C51.4035 16.816 50.5003 16.9005 49.6195 17.1714C47.9245 17.6924 47.3568 19.1606 47.6924 20.5658C47.8839 21.3664 48.4489 21.8865 49.1805 22.1781C49.8438 22.4421 50.5469 22.606 51.2344 22.8061C51.8236 22.9786 52.4231 23.1262 52.895 23.5549C53.2745 23.8999 53.3323 24.4175 52.9838 24.7919C52.7906 24.9998 52.5275 25.1784 52.2618 25.2784L52.2627 25.2776Z" fill="#5C2483"/>
</g>
<defs>
<clipPath id="clip0_8402_24487">
<rect width="64.9329" height="25.6" fill="white" transform="translate(0.834961 3.19995)"/>
</clipPath>
</defs>
</svg>
