<svg width="42" height="12" viewBox="0 0 42 12" fill="none" xmlns="http://www.w3.org/2000/svg">
<path d="M9.57439 3.9709H6.77078C6.77078 3.51177 6.71687 3.20344 6.60911 3.04587C6.44248 2.81314 5.98201 2.69677 5.22768 2.69677C4.49508 2.69677 4.01061 2.76379 3.77425 2.89781C3.5379 3.03365 3.41835 3.32433 3.41835 3.7753C3.41835 4.18281 3.52431 4.45448 3.7335 4.57945C3.91711 4.67989 4.12196 4.73529 4.33117 4.74109L4.89759 4.78048C6.10924 4.86017 6.86585 4.91677 7.1674 4.95028C8.12549 5.04627 8.82004 5.30073 9.25109 5.71367C9.59718 6.04906 9.81206 6.49707 9.85694 6.97692C9.89713 7.32681 9.91617 7.67881 9.91398 8.031C9.91398 8.93656 9.82796 9.59673 9.65591 10.0115C9.34349 10.7785 8.64167 11.2639 7.55047 11.4676C6.85672 11.5697 6.15556 11.6129 5.45453 11.5967C3.88428 11.5967 2.79035 11.5029 2.17275 11.3155C1.4148 11.0846 0.916736 10.6182 0.678572 9.91639C0.544548 9.52609 0.477539 8.87544 0.477539 7.96444H3.28117V8.19673C3.28117 8.68302 3.42062 8.99588 3.69954 9.13534C3.91898 9.23746 4.15842 9.28943 4.40045 9.28747H5.43143C5.95666 9.28747 6.29216 9.26031 6.43795 9.20597C6.55384 9.1677 6.65967 9.10389 6.7476 9.01925C6.83552 8.93461 6.90331 8.83132 6.94598 8.71697C6.99333 8.53988 7.01483 8.35688 7.00981 8.17363C7.00981 7.6801 6.8287 7.3799 6.46647 7.27305C6.33155 7.23139 5.70672 7.17252 4.59196 7.09646C3.69545 7.03216 3.07288 6.97058 2.72424 6.91172C1.80599 6.73876 1.19428 6.38514 0.889106 5.85086C0.617436 5.39808 0.481602 4.70893 0.481602 3.78344C0.463405 3.21264 0.536794 2.64262 0.69895 2.09503C0.820214 1.70487 1.06712 1.36579 1.40121 1.1306C1.87391 0.793733 2.47837 0.595414 3.2146 0.535647C3.82676 0.482218 4.50593 0.455492 5.25212 0.455492C6.42935 0.455492 7.26746 0.522518 7.76642 0.656542C8.98713 0.985262 9.59702 1.90349 9.59612 3.41126C9.60019 3.53894 9.59205 3.72368 9.57439 3.9709Z" fill="#0B4B8E"/>
<path d="M21.9 11.5968V0.399994H27.5141C28.2847 0.399994 28.8733 0.462933 29.2799 0.588806C29.7119 0.709513 30.1076 0.934746 30.4319 1.24462C30.7562 1.55449 30.9992 1.93945 31.1395 2.36552C31.3043 2.83551 31.3863 3.54275 31.3854 4.48726C31.3854 5.62284 31.2948 6.43784 31.1137 6.93228C30.7515 7.91482 30.0111 8.47989 28.8928 8.6275C28.7569 8.64923 28.2014 8.66961 27.2125 8.68455L26.7126 8.70221H24.9155V11.5928L21.9 11.5968ZM24.9128 6.10912H26.7901C27.3859 6.08738 27.7481 6.0421 27.8767 5.97328C28.0578 5.87548 28.1769 5.67943 28.234 5.38512C28.2787 5.0967 28.2979 4.80486 28.291 4.51306C28.3054 4.15799 28.2669 3.80277 28.1769 3.459C28.0683 3.13661 27.8084 2.94055 27.3972 2.87082C27.3157 2.85995 27.1256 2.85452 26.8131 2.85452H24.9114L24.9128 6.10912Z" fill="#0B4B8E"/>
<path d="M37.8158 9.6612H33.7869L33.2436 11.5968H30.1262L33.4908 0.399994H38.0359L41.4413 11.5968H38.3904L37.8158 9.6612ZM37.2168 7.4797L35.8055 2.62633L34.4349 7.4797H37.2168Z" fill="#0B4B8E"/>
<path d="M17.7418 1.97577C18.3325 1.9754 18.9158 2.10707 19.449 2.36112C19.9823 2.61518 20.452 2.98519 20.8239 3.44413L21.4732 2.05183C20.8046 1.42097 19.9934 0.961037 19.1088 0.711157C18.2241 0.461276 17.2922 0.42886 16.3923 0.616676C15.4925 0.804492 14.6513 1.20698 13.9405 1.78986C13.2297 2.37274 12.6702 3.11875 12.3098 3.96439H11.0438L10.2953 5.56723H11.9254C11.9131 5.71665 11.905 5.86472 11.905 6.01685C11.905 6.20023 11.9145 6.38225 11.9322 6.56019H11.1172L10.3687 8.16439H12.3519C12.7967 9.17092 13.5256 10.0257 14.4493 10.6239C15.373 11.2221 16.4512 11.5376 17.5516 11.5317C18.681 11.5361 19.7863 11.2052 20.7275 10.5809V8.61537C20.3242 9.0762 19.8197 9.43738 19.2535 9.67059C18.6874 9.9038 18.0748 10.0027 17.464 9.95954C16.8532 9.91638 16.2607 9.73233 15.7329 9.42182C15.2051 9.11131 14.7564 8.68279 14.422 8.16983H18.5745L19.3229 6.56563H13.8121C13.7827 6.37003 13.7677 6.17253 13.7673 5.97474C13.7673 5.8389 13.7754 5.70307 13.7877 5.56723H19.7861L20.5346 3.96439H14.3066C14.6544 3.36074 15.155 2.85922 15.7579 2.51017C16.3609 2.16112 17.0451 1.97682 17.7418 1.97577Z" fill="#F5BC27"/>
<path d="M17.7419 2.02325C18.3255 2.02272 18.9018 2.15287 19.4285 2.40414C19.9553 2.6554 20.4191 3.02142 20.7859 3.47533L20.8348 3.53509L20.8674 3.46581L21.5167 2.07214L21.5317 2.0409L21.5059 2.01646C20.5512 1.12197 19.3218 0.57716 18.0179 0.470846C16.714 0.364532 15.4125 0.702971 14.3256 1.43101C13.405 2.04629 12.6882 2.9215 12.2664 3.94531L12.3098 3.91543H11.0126L11.0004 3.94395L10.2519 5.54681L10.2207 5.61608H11.9254L11.8779 5.56311C11.8629 5.73018 11.8575 5.87824 11.8575 6.01679C11.8574 6.19824 11.8665 6.37959 11.8847 6.56013L11.9322 6.50715H11.0833L11.071 6.53431L10.3226 8.13853L10.2913 8.20645H12.3492L12.3044 8.17792C12.7522 9.19377 13.4872 10.0565 14.419 10.6599C15.3509 11.2632 16.4389 11.5809 17.549 11.5738C18.6884 11.5768 19.8031 11.2416 20.752 10.6107L20.7723 10.5971V8.47676L20.6895 8.57319C20.291 9.02835 19.7925 9.38503 19.2331 9.61528C18.6737 9.84554 18.0685 9.94311 17.4651 9.90035C16.8617 9.85759 16.2763 9.67565 15.755 9.3688C15.2336 9.06196 14.7904 8.63853 14.4601 8.13173L14.4193 8.20645H18.6031L18.6153 8.17928L19.3637 6.57507L19.3963 6.50715H13.8094L13.857 6.54791C13.8284 6.35452 13.8139 6.1593 13.8135 5.96381C13.8135 5.83089 13.8204 5.69804 13.8339 5.56581L13.785 5.60929H19.8147L19.8269 5.58077L20.5754 3.97791L20.6066 3.90863H14.3039L14.346 3.98063C14.6919 3.38635 15.1874 2.89298 15.7832 2.54959C16.379 2.20619 17.0542 2.02473 17.7419 2.02325ZM14.3039 4.01187H20.5319L20.4885 3.94395L19.74 5.54681L19.7835 5.51963H13.7415V5.56311C13.7279 5.69852 13.7212 5.83452 13.7212 5.97061C13.7214 6.17061 13.736 6.37033 13.7646 6.56827L13.7714 6.61039H19.3189L19.2754 6.54111L18.527 8.14533L18.5705 8.11679H14.3297L14.3786 8.19151C14.717 8.71106 15.1712 9.14515 15.7055 9.45973C16.2399 9.77431 16.8398 9.96083 17.4583 10.0046C18.0768 10.0485 18.697 9.9484 19.2704 9.7123C19.8437 9.4762 20.3545 9.11048 20.7628 8.64383L20.6786 8.61123V10.5768L20.699 10.5374C19.7667 11.1589 18.6709 11.4898 17.5503 11.4882C16.459 11.4956 15.3894 11.1833 14.4734 10.59C13.5574 9.99672 12.835 9.1483 12.3954 8.14939L12.3818 8.11951H10.3674L10.4109 8.18879L11.1593 6.58457L11.1159 6.61311H11.9838V6.55877C11.9648 6.37828 11.9553 6.19692 11.9553 6.01543C11.9553 5.8796 11.9621 5.73289 11.9757 5.56989V5.51827H10.2941L10.3375 5.58619L11.086 3.98335L11.0425 4.01051H12.3411L12.3533 3.98063C12.7678 2.97439 13.4723 2.11426 14.3773 1.50979C15.4464 0.793201 16.7267 0.460034 18.0095 0.56463C19.2923 0.669226 20.5018 1.20541 21.4407 2.08572L21.4298 2.03004L20.7819 3.42371L20.862 3.41283C20.4518 2.90636 19.9244 2.50741 19.3254 2.25044C18.7264 1.99348 18.0739 1.88624 17.4242 1.938C16.7744 1.98976 16.1471 2.19895 15.5964 2.5475C15.0456 2.89605 14.588 3.37348 14.2631 3.93851L14.221 4.01051L14.3039 4.01187Z" fill="#F5BC27"/>
</svg>
