<svg width="42" height="12" viewBox="0 0 42 12" fill="none" xmlns="http://www.w3.org/2000/svg">
<path d="M9.42693 3.9709H6.62332C6.62332 3.51177 6.56941 3.20344 6.46165 3.04587C6.29502 2.81314 5.83455 2.69677 5.08022 2.69677C4.34762 2.69677 3.86314 2.76379 3.62679 2.89781C3.39044 3.03365 3.27089 3.32433 3.27089 3.7753C3.27089 4.18281 3.37685 4.45448 3.58603 4.57945C3.76965 4.67989 3.9745 4.73529 4.18371 4.74109L4.75013 4.78048C5.96178 4.86017 6.71839 4.91677 7.01994 4.95028C7.97803 5.04627 8.67258 5.30073 9.10363 5.71367C9.44972 6.04906 9.6646 6.49707 9.70948 6.97692C9.74967 7.32681 9.76871 7.67881 9.76652 8.031C9.76652 8.93656 9.6805 9.59673 9.50845 10.0115C9.19603 10.7785 8.49421 11.2639 7.40301 11.4676C6.70926 11.5697 6.0081 11.6129 5.30707 11.5967C3.73682 11.5967 2.64289 11.5029 2.02529 11.3155C1.26734 11.0846 0.769275 10.6182 0.531111 9.91639C0.397087 9.52609 0.330078 8.87544 0.330078 7.96444H3.13371V8.19673C3.13371 8.68302 3.27316 8.99588 3.55208 9.13534C3.77152 9.23746 4.01095 9.28943 4.25299 9.28747H5.28397C5.8092 9.28747 6.1447 9.26031 6.29049 9.20597C6.40638 9.1677 6.51221 9.10389 6.60013 9.01925C6.68806 8.93461 6.75585 8.83132 6.79851 8.71697C6.84587 8.53988 6.86737 8.35688 6.86235 8.17363C6.86235 7.6801 6.68124 7.3799 6.31901 7.27305C6.18408 7.23139 5.55925 7.17252 4.4445 7.09646C3.54799 7.03216 2.92542 6.97058 2.57677 6.91172C1.65853 6.73876 1.04682 6.38514 0.741645 5.85086C0.469975 5.39808 0.334141 4.70893 0.334141 3.78344C0.315944 3.21264 0.389333 2.64262 0.55149 2.09503C0.672753 1.70487 0.919655 1.36579 1.25374 1.1306C1.72645 0.793733 2.33091 0.595414 3.06714 0.535647C3.6793 0.482218 4.35847 0.455492 5.10466 0.455492C6.28189 0.455492 7.12 0.522518 7.61896 0.656542C8.83966 0.985262 9.44956 1.90349 9.44865 3.41126C9.45273 3.53894 9.44459 3.72368 9.42693 3.9709Z" fill="#0B4B8E"/>
<path d="M21.7525 11.5968V0.399994H27.3666C28.1372 0.399994 28.7259 0.462933 29.1325 0.588806C29.5645 0.709513 29.9601 0.934746 30.2844 1.24462C30.6088 1.55449 30.8518 1.93945 30.992 2.36552C31.1568 2.83551 31.2388 3.54275 31.2379 4.48726C31.2379 5.62284 31.1473 6.43784 30.9662 6.93228C30.604 7.91482 29.8637 8.47989 28.7453 8.6275C28.6095 8.64923 28.0539 8.66961 27.0651 8.68455L26.5652 8.70221H24.7681V11.5928L21.7525 11.5968ZM24.7653 6.10912H26.6426C27.2385 6.08738 27.6007 6.0421 27.7293 5.97328C27.9104 5.87548 28.0295 5.67943 28.0865 5.38512C28.1313 5.0967 28.1504 4.80486 28.1436 4.51306C28.1579 4.15799 28.1195 3.80277 28.0295 3.459C27.9208 3.13661 27.6609 2.94055 27.2498 2.87082C27.1683 2.85995 26.9781 2.85452 26.6657 2.85452H24.764L24.7653 6.10912Z" fill="#0B4B8E"/>
<path d="M37.6683 9.6612H33.6395L33.0961 11.5968H29.9787L33.3434 0.399994H37.8884L41.2938 11.5968H38.2429L37.6683 9.6612ZM37.0693 7.4797L35.658 2.62633L34.2874 7.4797H37.0693Z" fill="#0B4B8E"/>
<path d="M17.5943 1.97577C18.185 1.9754 18.7683 2.10707 19.3016 2.36112C19.8348 2.61518 20.3046 2.98519 20.6764 3.44413L21.3257 2.05183C20.6571 1.42097 19.8459 0.961037 18.9613 0.711157C18.0767 0.461276 17.1447 0.42886 16.2449 0.616676C15.345 0.804492 14.5039 1.20698 13.793 1.78986C13.0822 2.37274 12.5227 3.11875 12.1623 3.96439H10.8963L10.1479 5.56723H11.7779C11.7657 5.71665 11.7575 5.86472 11.7575 6.01685C11.7575 6.20023 11.767 6.38225 11.7847 6.56019H10.9697L10.2212 8.16439H12.2044C12.6492 9.17092 13.3782 10.0257 14.3019 10.6239C15.2255 11.2221 16.3037 11.5376 17.4042 11.5317C18.5336 11.5361 19.6389 11.2052 20.58 10.5809V8.61537C20.1768 9.0762 19.6723 9.43738 19.1061 9.67059C18.5399 9.9038 17.9274 10.0027 17.3166 9.95954C16.7057 9.91638 16.1132 9.73233 15.5854 9.42182C15.0577 9.11131 14.609 8.68279 14.2745 8.16983H18.427L19.1755 6.56563H13.6646C13.6352 6.37003 13.6202 6.17253 13.6198 5.97474C13.6198 5.8389 13.628 5.70307 13.6402 5.56723H19.6387L20.3871 3.96439H14.1591C14.507 3.36074 15.0075 2.85922 15.6105 2.51017C16.2134 2.16112 16.8976 1.97682 17.5943 1.97577Z" fill="#F5BC27"/>
<path d="M17.5944 2.02325C18.178 2.02272 18.7543 2.15287 19.2811 2.40414C19.8078 2.6554 20.2716 3.02142 20.6385 3.47533L20.6874 3.53509L20.72 3.46581L21.3693 2.07214L21.3842 2.0409L21.3584 2.01646C20.4038 1.12197 19.1743 0.57716 17.8704 0.470846C16.5666 0.364532 15.2651 0.702971 14.1782 1.43101C13.2575 2.04629 12.5407 2.9215 12.1189 3.94531L12.1624 3.91543H10.8652L10.8529 3.94395L10.1045 5.54681L10.0732 5.61608H11.778L11.7304 5.56311C11.7155 5.73018 11.7101 5.87824 11.7101 6.01679C11.71 6.19824 11.719 6.37959 11.7372 6.56013L11.7848 6.50715H10.9358L10.9236 6.53431L10.1751 8.13853L10.1439 8.20645H12.2018L12.157 8.17792C12.6047 9.19377 13.3397 10.0565 14.2716 10.6599C15.2034 11.2632 16.2914 11.5809 17.4015 11.5738C18.541 11.5768 19.6557 11.2416 20.6045 10.6107L20.6249 10.5971V8.47676L20.542 8.57319C20.1435 9.02835 19.645 9.38503 19.0856 9.61528C18.5262 9.84554 17.9211 9.94311 17.3177 9.90035C16.7142 9.85759 16.1289 9.67565 15.6075 9.3688C15.0862 9.06196 14.643 8.63853 14.3126 8.13173L14.2719 8.20645H18.4556L18.4678 8.17928L19.2163 6.57507L19.2489 6.50715H13.662L13.7095 6.54791C13.6809 6.35452 13.6664 6.1593 13.6661 5.96381C13.6661 5.83089 13.6729 5.69804 13.6865 5.56581L13.6375 5.60929H19.6672L19.6795 5.58077L20.4279 3.97791L20.4592 3.90863H14.1564L14.1985 3.98063C14.5445 3.38635 15.04 2.89298 15.6357 2.54959C16.2315 2.20619 16.9068 2.02473 17.5944 2.02325ZM14.1564 4.01187H20.3844L20.341 3.94395L19.5926 5.54681L19.636 5.51963H13.5941V5.56311C13.5805 5.69852 13.5737 5.83452 13.5737 5.97061C13.574 6.17061 13.5885 6.37033 13.6172 6.56827L13.6239 6.61039H19.1715L19.128 6.54111L18.3795 8.14533L18.423 8.11679H14.1822L14.2311 8.19151C14.5695 8.71106 15.0237 9.14515 15.5581 9.45973C16.0924 9.77431 16.6923 9.96083 17.3108 10.0046C17.9293 10.0485 18.5496 9.9484 19.1229 9.7123C19.6962 9.4762 20.2071 9.11048 20.6154 8.64383L20.5312 8.61123V10.5768L20.5515 10.5374C19.6192 11.1589 18.5234 11.4898 17.4029 11.4882C16.3115 11.4956 15.2419 11.1833 14.3259 10.59C13.4099 9.99672 12.6876 9.1483 12.248 8.14939L12.2344 8.11951H10.22L10.2634 8.18879L11.0118 6.58457L10.9684 6.61311H11.8364V6.55877C11.8174 6.37828 11.8078 6.19692 11.8079 6.01543C11.8079 5.8796 11.8146 5.73289 11.8282 5.56989V5.51827H10.1466L10.19 5.58619L10.9385 3.98335L10.895 4.01051H12.1936L12.2058 3.98063C12.6203 2.97439 13.3249 2.11426 14.2298 1.50979C15.2989 0.793201 16.5792 0.460034 17.862 0.56463C19.1448 0.669226 20.3543 1.20541 21.2932 2.08572L21.2823 2.03004L20.6344 3.42371L20.7146 3.41283C20.3043 2.90636 19.7769 2.50741 19.1779 2.25044C18.5789 1.99348 17.9264 1.88624 17.2767 1.938C16.627 1.98976 15.9996 2.19895 15.4489 2.5475C14.8982 2.89605 14.4406 3.37348 14.1157 3.93851L14.0736 4.01051L14.1564 4.01187Z" fill="#F5BC27"/>
</svg>
