<svg width="83" height="32" viewBox="0 0 83 32" fill="none" xmlns="http://www.w3.org/2000/svg">
<path d="M19.0287 11.9419H13.4214C13.4214 11.0236 13.3136 10.4069 13.0981 10.0918C12.7649 9.62634 11.8439 9.39359 10.3352 9.39359C8.87004 9.39359 7.90109 9.52764 7.42839 9.79569C6.95568 10.0674 6.71658 10.6487 6.71658 11.5507C6.71658 12.3657 6.9285 12.909 7.34687 13.159C7.71411 13.3598 8.1238 13.4706 8.54223 13.4822L9.67507 13.561C12.0984 13.7204 13.6116 13.8336 14.2147 13.9006C16.1309 14.0926 17.52 14.6015 18.3821 15.4274C19.0742 16.0982 19.504 16.9942 19.5938 17.9539C19.6741 18.6537 19.7122 19.3577 19.7078 20.0621C19.7078 21.8732 19.5358 23.1935 19.1917 24.023C18.5669 25.557 17.1632 26.5278 14.9808 26.9353C13.5933 27.1395 12.191 27.2259 10.7889 27.1934C7.64844 27.1934 5.46058 27.0059 4.22539 26.631C2.70948 26.1692 1.71335 25.2365 1.23703 23.8328C0.968979 23.0522 0.834961 21.7509 0.834961 19.9289H6.44223V20.3935C6.44223 21.3661 6.72113 21.9918 7.27896 22.2707C7.71784 22.475 8.19671 22.5789 8.68078 22.575H10.7427C11.7932 22.575 12.4642 22.5207 12.7558 22.412C12.9876 22.3355 13.1992 22.2078 13.3751 22.0386C13.5509 21.8693 13.6865 21.6627 13.7718 21.434C13.8665 21.0798 13.9095 20.7138 13.8995 20.3473C13.8995 19.3603 13.5373 18.7599 12.8128 18.5462C12.543 18.4628 11.2933 18.3451 9.06381 18.193C7.27079 18.0644 6.02564 17.9412 5.32835 17.8235C3.49187 17.4776 2.26845 16.7704 1.65809 15.7018C1.11476 14.7962 0.843086 13.4179 0.843086 11.5669C0.806693 10.4253 0.95347 9.28529 1.27778 8.19012C1.52031 7.4098 2.01412 6.73163 2.68229 6.26127C3.6277 5.58753 4.83663 5.19089 6.30908 5.07135C7.5334 4.9645 8.89175 4.91105 10.3841 4.91105C12.7386 4.91105 14.4148 5.0451 15.4127 5.31314C17.8541 5.97058 19.0739 7.80705 19.0721 10.8226C19.0803 11.0779 19.064 11.4474 19.0287 11.9419Z" fill="#0B4B8E"/>
<path d="M43.6799 27.1937V4.80005H54.908C56.4493 4.80005 57.6265 4.92593 58.4397 5.17767C59.3037 5.41909 60.095 5.86955 60.7437 6.48929C61.3923 7.10904 61.8783 7.87897 62.1589 8.7311C62.4885 9.67107 62.6524 11.0856 62.6506 12.9746C62.6506 15.2457 62.4695 16.8757 62.1073 17.8646C61.3828 19.8297 59.9022 20.9598 57.6654 21.2551C57.3938 21.2985 56.2827 21.3393 54.3049 21.3692L53.3051 21.4045H49.7109V27.1856L43.6799 27.1937ZM49.7055 16.2183H53.46C54.6517 16.1748 55.3762 16.0843 55.6333 15.9466C55.9956 15.751 56.2337 15.3589 56.3478 14.7703C56.4374 14.1935 56.4756 13.6098 56.462 13.0262C56.4907 12.316 56.4137 11.6056 56.2337 10.9181C56.0164 10.2733 55.4966 9.88116 54.6743 9.7417C54.5113 9.71997 54.131 9.7091 53.5062 9.7091H49.7028L49.7055 16.2183Z" fill="#0B4B8E"/>
<path d="M75.5115 23.3225H67.4538L66.3671 27.1937H60.1323L66.8616 4.80005H75.9516L82.7624 27.1937H76.6606L75.5115 23.3225ZM74.3134 18.9595L71.4908 9.25272L68.7496 18.9595H74.3134Z" fill="#0B4B8E"/>
<path d="M35.3635 7.95172C36.5448 7.95099 37.7115 8.21431 38.778 8.72242C39.8445 9.23053 40.784 9.97057 41.5277 10.8885L42.8263 8.10384C41.4891 6.84212 39.8667 5.92226 38.0974 5.4225C36.3281 4.92274 34.4643 4.8579 32.6645 5.23354C30.8648 5.60917 29.1825 6.41414 27.7609 7.5799C26.3392 8.74566 25.2203 10.2377 24.4994 11.929H21.9675L20.4706 15.1346H23.7306C23.7062 15.4335 23.6898 15.7296 23.6898 16.0339C23.6898 16.4006 23.7089 16.7647 23.7442 17.1206H22.1142L20.6173 20.329H24.5836C25.4733 22.342 26.9312 24.0516 28.7785 25.248C30.6259 26.4443 32.7823 27.0753 34.9832 27.0637C37.2419 27.0724 39.4525 26.4106 41.3348 25.162V21.2309C40.5284 22.1526 39.5194 22.875 38.387 23.3414C37.2546 23.8078 36.0296 24.0056 34.8079 23.9193C33.5863 23.8329 32.4012 23.4648 31.3457 22.8438C30.2901 22.2228 29.3927 21.3658 28.7239 20.3398H37.0288L38.5257 17.1314H27.5041C27.4453 16.7403 27.4153 16.3452 27.4144 15.9497C27.4144 15.678 27.4307 15.4063 27.4552 15.1346H39.4521L40.949 11.929H28.493C29.1888 10.7217 30.1898 9.71863 31.3957 9.02052C32.6017 8.32242 33.97 7.95383 35.3635 7.95172Z" fill="#F5BC27"/>
<path d="M35.3636 8.04667C36.5308 8.04562 37.6835 8.30592 38.737 8.80846C39.7905 9.31099 40.7181 10.043 41.4518 10.9508L41.5495 11.0704L41.6147 10.9318L42.9133 8.14447L42.9432 8.08199L42.8916 8.03311C40.9824 6.24412 38.5235 5.1545 35.9157 4.94187C33.3079 4.72925 30.705 5.40613 28.5311 6.8622C26.6899 8.09275 25.2563 9.84318 24.4126 11.8908L24.4995 11.831H21.9051L21.8807 11.8881L20.3838 15.0938L20.3213 15.2324H23.7308L23.6356 15.1264C23.6058 15.4605 23.5949 15.7567 23.5949 16.0338C23.5948 16.3967 23.6129 16.7594 23.6492 17.1204L23.7444 17.0145H22.0464L22.0219 17.0688L20.525 20.2772L20.4626 20.4131H24.5783L24.4887 20.356C25.3842 22.3877 26.8543 24.1132 28.718 25.3199C30.5817 26.5267 32.7576 27.162 34.9778 27.1478C37.2567 27.1537 39.4861 26.4833 41.3838 25.2216L41.4246 25.1945V20.9537L41.2589 21.1466C40.4619 22.0569 39.4649 22.7702 38.3461 23.2307C37.2272 23.6913 36.017 23.8864 34.8101 23.8009C33.6032 23.7154 32.4325 23.3515 31.3898 22.7378C30.3471 22.1241 29.4607 21.2772 28.8001 20.2636L28.7186 20.4131H37.086L37.1105 20.3588L38.6074 17.1503L38.6726 17.0145H27.4988L27.5939 17.096C27.5367 16.7092 27.5076 16.3188 27.5069 15.9278C27.507 15.662 27.5206 15.3963 27.5477 15.1318L27.4499 15.2188H39.5093L39.5338 15.1617L41.0307 11.956L41.0931 11.8174H28.4877L28.5719 11.9614C29.2638 10.7729 30.2548 9.78615 31.4463 9.09936C32.6378 8.41257 33.9883 8.04964 35.3636 8.04667ZM28.4877 12.0239H40.9437L40.8568 11.8881L39.3599 15.0938L39.4468 15.0394H27.3629V15.1264C27.3358 15.3972 27.3222 15.6692 27.3222 15.9414C27.3228 16.3414 27.3518 16.7408 27.4092 17.1367L27.4227 17.221H38.5177L38.4308 17.0824L36.9339 20.2908L37.0208 20.2338H28.5393L28.6371 20.3832C29.3139 21.4223 30.2223 22.2905 31.2909 22.9197C32.3596 23.5488 33.5594 23.9218 34.7964 24.0095C36.0334 24.0971 37.2739 23.897 38.4206 23.4248C39.5673 22.9526 40.5889 22.2211 41.4055 21.2878L41.2371 21.2226V25.1537L41.2778 25.0749C39.4132 26.318 37.2216 26.9799 34.9806 26.9766C32.7979 26.9913 30.6586 26.3668 28.8266 25.1802C26.9946 23.9936 25.5499 22.2968 24.6707 20.299L24.6435 20.2392H20.6147L20.7016 20.3778L22.1985 17.1693L22.1116 17.2264H23.8476V17.1177C23.8095 16.7567 23.7905 16.394 23.7905 16.031C23.7905 15.7594 23.8041 15.466 23.8312 15.14V15.0367H20.468L20.5549 15.1726L22.0518 11.9669L21.9649 12.0212H24.562L24.5865 11.9614C25.4154 9.94897 26.8245 8.22871 28.6344 7.01976C30.7726 5.58659 33.3333 4.92025 35.8988 5.12944C38.4644 5.33864 40.8834 6.411 42.7612 8.17163L42.7395 8.06027L41.4436 10.8476L41.6039 10.8258C40.7834 9.8129 39.7286 9.015 38.5306 8.50107C37.3327 7.98714 36.0276 7.77267 34.7282 7.87618C33.4288 7.9797 32.1741 8.39808 31.0726 9.09518C29.9711 9.79229 29.0559 10.7471 28.4062 11.8772L28.3219 12.0212L28.4877 12.0239Z" fill="#F5BC27"/>
</svg>
