<svg width="42" height="16" viewBox="0 0 42 16" fill="none" xmlns="http://www.w3.org/2000/svg">
<g clip-path="url(#clip0_7283_26222)">
<path fill-rule="evenodd" clip-rule="evenodd" d="M38.7978 15.6059H0.441406L2.99626 0.394135H41.3582L38.7978 15.6059Z" fill="#2E3235"/>
<path fill-rule="evenodd" clip-rule="evenodd" d="M12.6739 9.25508C12.0198 9.25508 11.5614 8.8302 11.5614 8.16493C11.5614 7.42699 12.1316 6.73935 12.9534 6.73935C13.6075 6.73935 14.0659 7.18659 14.0659 7.85186C14.0715 8.58422 13.4957 9.25508 12.6739 9.25508ZM13.0596 5.46472C11.3377 5.46472 10.0352 6.72258 10.0352 8.22643C10.0352 9.59051 11.1085 10.5297 12.5732 10.5297C14.2951 10.5297 15.5977 9.23272 15.5977 7.72887C15.5921 6.37038 14.5243 5.46472 13.0596 5.46472Z" fill="white"/>
<path fill-rule="evenodd" clip-rule="evenodd" d="M23.0496 9.25508C22.3955 9.25508 21.9371 8.8302 21.9371 8.16493C21.9371 7.42699 22.5073 6.73935 23.3291 6.73935C23.9832 6.73935 24.4416 7.18659 24.4416 7.85186C24.4416 8.58422 23.8714 9.25508 23.0496 9.25508ZM23.4297 5.46472C21.7079 5.46472 20.4053 6.72258 20.4053 8.22643C20.4053 9.59051 21.4786 10.5297 22.9434 10.5297C24.6652 10.5297 25.9678 9.23272 25.9678 7.72887C25.9678 6.37038 24.8944 5.46472 23.4297 5.46472Z" fill="white"/>
<path fill-rule="evenodd" clip-rule="evenodd" d="M28.5843 7.86303H28.3607L28.5284 6.84556H28.7297C29.2049 6.84556 29.462 6.99091 29.462 7.29839C29.462 7.67855 29.0986 7.86303 28.5843 7.86303ZM31.033 7.06359C31.033 6.15234 30.3174 5.56534 29.026 5.56534H27.1979L26.3984 10.4291H27.9358L28.1874 8.89727H28.2601L29.0763 10.4291H30.8373L29.708 8.72956C30.5354 8.44444 31.033 7.8239 31.033 7.06359Z" fill="white"/>
<path fill-rule="evenodd" clip-rule="evenodd" d="M8.27416 7.50525C7.69275 7.21455 7.55858 7.13628 7.55858 6.97975C7.55858 6.78408 7.78779 6.68904 8.11204 6.68904C8.48101 6.68904 9.04565 6.72817 9.59352 7.24809C9.72769 6.8288 9.95131 6.45424 10.242 6.1244C9.46493 5.68834 8.74935 5.46472 8.08967 5.46472C6.77591 5.46472 6.02678 6.16353 6.02678 7.00211C6.02678 7.72328 6.57465 8.10344 7.22874 8.43327C7.81015 8.73516 7.96109 8.82461 7.96109 9.0091C7.96109 9.20476 7.71511 9.31657 7.39086 9.31657C6.82622 9.31657 6.17772 8.96437 5.79198 8.60658L5.56836 9.95948C5.97088 10.2446 6.5467 10.5409 7.41322 10.5409C8.76612 10.5409 9.49848 9.86444 9.49848 8.99232C9.4873 8.27674 9.01769 7.88541 8.27416 7.50525Z" fill="white"/>
<path fill-rule="evenodd" clip-rule="evenodd" d="M19.639 7.7009H17.8388L17.9786 6.85115H19.9073C20.1589 6.33682 20.5446 5.90076 21.0254 5.57092H17.8668C17.168 5.57092 16.5698 6.04612 16.4636 6.68902L15.8486 10.4347H17.386L17.6376 8.90286H19.4657L19.5999 8.06987C19.6054 7.94688 19.6166 7.82389 19.639 7.7009Z" fill="white"/>
<path fill-rule="evenodd" clip-rule="evenodd" d="M31.0664 5.56534C31.4745 5.87841 31.7317 6.31446 31.782 6.84556H33.0678L32.4752 10.4235H34.0126L34.6052 6.84556H36.0308L36.2432 5.56534H31.0664Z" fill="white"/>
</g>
<defs>
<clipPath id="clip0_7283_26222">
<rect width="40.9168" height="15.2117" fill="white" transform="translate(0.441406 0.394135)"/>
</clipPath>
</defs>
</svg>
