<svg width="42" height="16" viewBox="0 0 42 16" fill="none" xmlns="http://www.w3.org/2000/svg">
<g clip-path="url(#clip0_7283_26222)">
<path fill-rule="evenodd" clip-rule="evenodd" d="M38.6445 15.6059H0.288086L2.84294 0.394135H41.2049L38.6445 15.6059Z" fill="#2E3235"/>
<path fill-rule="evenodd" clip-rule="evenodd" d="M12.5205 9.25508C11.8665 9.25508 11.408 8.8302 11.408 8.16493C11.408 7.42699 11.9783 6.73935 12.8001 6.73935C13.4542 6.73935 13.9126 7.18659 13.9126 7.85186C13.9182 8.58422 13.3424 9.25508 12.5205 9.25508ZM12.9063 5.46472C11.1844 5.46472 9.88184 6.72258 9.88184 8.22643C9.88184 9.59051 10.9552 10.5297 12.4199 10.5297C14.1418 10.5297 15.4444 9.23272 15.4444 7.72887C15.4388 6.37038 14.371 5.46472 12.9063 5.46472Z" fill="white"/>
<path fill-rule="evenodd" clip-rule="evenodd" d="M22.8963 9.25508C22.2422 9.25508 21.7837 8.8302 21.7837 8.16493C21.7837 7.42699 22.354 6.73935 23.1758 6.73935C23.8299 6.73935 24.2883 7.18659 24.2883 7.85186C24.2883 8.58422 23.7181 9.25508 22.8963 9.25508ZM23.2764 5.46472C21.5545 5.46472 20.252 6.72258 20.252 8.22643C20.252 9.59051 21.3253 10.5297 22.79 10.5297C24.5119 10.5297 25.8145 9.23272 25.8145 7.72887C25.8145 6.37038 24.7411 5.46472 23.2764 5.46472Z" fill="white"/>
<path fill-rule="evenodd" clip-rule="evenodd" d="M28.431 7.86303H28.2074L28.3751 6.84556H28.5764C29.0515 6.84556 29.3087 6.99091 29.3087 7.29839C29.3087 7.67855 28.9453 7.86303 28.431 7.86303ZM30.8796 7.06359C30.8796 6.15234 30.1641 5.56534 28.8727 5.56534H27.0446L26.2451 10.4291H27.7825L28.0341 8.89727H28.1068L28.923 10.4291H30.684L29.5547 8.72956C30.3821 8.44444 30.8796 7.8239 30.8796 7.06359Z" fill="white"/>
<path fill-rule="evenodd" clip-rule="evenodd" d="M8.12084 7.50525C7.53943 7.21455 7.40526 7.13628 7.40526 6.97975C7.40526 6.78408 7.63447 6.68904 7.95871 6.68904C8.32769 6.68904 8.89233 6.72817 9.4402 7.24809C9.57437 6.8288 9.79799 6.45424 10.0887 6.1244C9.31161 5.68834 8.59603 5.46472 7.93635 5.46472C6.62259 5.46472 5.87346 6.16353 5.87346 7.00211C5.87346 7.72328 6.42133 8.10344 7.07542 8.43327C7.65683 8.73516 7.80777 8.82461 7.80777 9.0091C7.80777 9.20476 7.56179 9.31657 7.23754 9.31657C6.6729 9.31657 6.0244 8.96437 5.63866 8.60658L5.41504 9.95948C5.81755 10.2446 6.39338 10.5409 7.2599 10.5409C8.6128 10.5409 9.34516 9.86444 9.34516 8.99232C9.33398 8.27674 8.86437 7.88541 8.12084 7.50525Z" fill="white"/>
<path fill-rule="evenodd" clip-rule="evenodd" d="M19.4857 7.7009H17.6855L17.8253 6.85115H19.754C20.0056 6.33682 20.3913 5.90076 20.8721 5.57092H17.7135C17.0147 5.57092 16.4165 6.04612 16.3103 6.68902L15.6953 10.4347H17.2327L17.4843 8.90286H19.3124L19.4465 8.06987C19.4521 7.94688 19.4633 7.82389 19.4857 7.7009Z" fill="white"/>
<path fill-rule="evenodd" clip-rule="evenodd" d="M30.9131 5.56534C31.3212 5.87841 31.5784 6.31446 31.6287 6.84556H32.9145L32.3219 10.4235H33.8593L34.4519 6.84556H35.8774L36.0899 5.56534H30.9131Z" fill="white"/>
</g>
<defs>
<clipPath id="clip0_7283_26222">
<rect width="40.9168" height="15.2117" fill="white" transform="translate(0.288086 0.394135)"/>
</clipPath>
</defs>
</svg>
