<svg width="83" height="32" viewBox="0 0 83 32" fill="none" xmlns="http://www.w3.org/2000/svg">
<g clip-path="url(#clip0_8339_23982)">
<path fill-rule="evenodd" clip-rule="evenodd" d="M77.5478 31.2118H0.834961L5.94467 0.78833H82.6686L77.5478 31.2118Z" fill="#2E3235"/>
<path fill-rule="evenodd" clip-rule="evenodd" d="M25.2999 18.5102C23.9917 18.5102 23.0749 17.6604 23.0749 16.3299C23.0749 14.854 24.2153 13.4787 25.8589 13.4787C27.1671 13.4787 28.084 14.3732 28.084 15.7037C28.0951 17.1684 26.9435 18.5102 25.2999 18.5102ZM26.0714 10.9294C22.6276 10.9294 20.0225 13.4452 20.0225 16.4529C20.0225 19.181 22.1692 21.0594 25.0986 21.0594C28.5424 21.0594 31.1475 18.4654 31.1475 15.4577C31.1364 12.7408 29.0008 10.9294 26.0714 10.9294Z" fill="white"/>
<path fill-rule="evenodd" clip-rule="evenodd" d="M46.0513 18.5102C44.7431 18.5102 43.8263 17.6604 43.8263 16.3299C43.8263 14.854 44.9667 13.4787 46.6104 13.4787C47.9185 13.4787 48.8354 14.3732 48.8354 15.7037C48.8354 17.1684 47.6949 18.5102 46.0513 18.5102ZM46.8116 10.9294C43.3679 10.9294 40.7627 13.4452 40.7627 16.4529C40.7627 19.181 42.9094 21.0594 45.8389 21.0594C49.2826 21.0594 51.8878 18.4654 51.8878 15.4577C51.8878 12.7408 49.741 10.9294 46.8116 10.9294Z" fill="white"/>
<path fill-rule="evenodd" clip-rule="evenodd" d="M57.1208 15.726H56.6736L57.009 13.6911H57.4115C58.3619 13.6911 58.8762 13.9818 58.8762 14.5967C58.8762 15.357 58.1494 15.726 57.1208 15.726ZM62.0181 14.1271C62.0181 12.3046 60.5869 11.1306 58.0041 11.1306H54.3479L52.749 20.8581H55.8238L56.3269 17.7945H56.4723L58.1047 20.8581H61.6267L59.3682 17.4591C61.023 16.8888 62.0181 15.6477 62.0181 14.1271Z" fill="white"/>
<path fill-rule="evenodd" clip-rule="evenodd" d="M16.5005 15.0105C15.3376 14.4291 15.0693 14.2726 15.0693 13.9595C15.0693 13.5682 15.5277 13.3781 16.1762 13.3781C16.9142 13.3781 18.0434 13.4563 19.1392 14.4962C19.4075 13.6576 19.8548 12.9085 20.4362 12.2488C18.882 11.3767 17.4509 10.9294 16.1315 10.9294C13.504 10.9294 12.0057 12.3271 12.0057 14.0042C12.0057 15.4466 13.1014 16.2069 14.4096 16.8665C15.5724 17.4703 15.8743 17.6492 15.8743 18.0182C15.8743 18.4095 15.3824 18.6331 14.7339 18.6331C13.6046 18.6331 12.3076 17.9287 11.5361 17.2132L11.0889 19.919C11.8939 20.4892 13.0455 21.0818 14.7786 21.0818C17.4844 21.0818 18.9491 19.7289 18.9491 17.9846C18.9267 16.5535 17.9875 15.7708 16.5005 15.0105Z" fill="white"/>
<path fill-rule="evenodd" clip-rule="evenodd" d="M39.2301 15.4018H35.6298L35.9094 13.7023H39.7668C40.27 12.6736 41.0414 11.8015 42.003 11.1418H35.6857C34.2881 11.1418 33.0918 12.0922 32.8793 13.378L31.6494 20.8693H34.7242L35.2273 17.8057H38.8835L39.1519 16.1397C39.163 15.8938 39.1854 15.6478 39.2301 15.4018Z" fill="white"/>
<path fill-rule="evenodd" clip-rule="evenodd" d="M62.085 11.1306C62.9012 11.7568 63.4155 12.6289 63.5161 13.6911H66.0878L64.9026 20.8469H67.9773L69.1625 13.6911H72.0137L72.4386 11.1306H62.085Z" fill="white"/>
</g>
<defs>
<clipPath id="clip0_8339_23982">
<rect width="81.8337" height="30.4235" fill="white" transform="translate(0.834961 0.78833)"/>
</clipPath>
</defs>
</svg>
