<svg width="64" height="32" viewBox="0 0 64 32" fill="none" xmlns="http://www.w3.org/2000/svg">
<g clip-path="url(#clip0_8402_24078)">
<path d="M1.33978 23.8979H1.80593L1.37276 25.7072C1.30848 25.9756 1.32059 26.1777 1.40945 26.3125C1.49797 26.4475 1.66272 26.515 1.90354 26.515C2.14285 26.515 2.33907 26.4475 2.49238 26.3125C2.64586 26.1777 2.75474 25.9756 2.81903 25.7072L3.25203 23.8979H3.72425L3.28047 25.7519C3.18405 26.1548 3.01222 26.4564 2.76619 26.6563C2.51998 26.8566 2.1972 26.9565 1.79786 26.9565C1.39817 26.9565 1.12403 26.8567 0.97476 26.6573C0.82532 26.4581 0.799235 26.1562 0.896001 25.7519L1.33978 23.8979Z" fill="#696A6A"/>
<path d="M3.66113 26.8776L4.40261 23.7802L5.81152 25.6016C5.84921 25.6529 5.88725 25.7079 5.92478 25.7663C5.9623 25.8247 6.00067 25.8904 6.04005 25.9637L6.53465 23.8982H6.97102L6.23005 26.9932L4.79152 25.1393C4.75299 25.0893 4.71714 25.0365 4.68365 24.9808C4.64983 24.9251 4.61937 24.8667 4.59143 24.8058L4.09548 26.8776H3.66113Z" fill="#696A6A"/>
<path d="M6.93262 26.8774L7.64582 23.8981H8.1177L7.40467 26.8774H6.93262Z" fill="#696A6A"/>
<path d="M8.08301 26.8774L8.79621 23.8981H10.4168L10.3184 24.309H9.16981L8.99193 25.0519H10.1405L10.0389 25.4771H8.89012L8.55506 26.8774H8.08301Z" fill="#696A6A"/>
<path d="M10.2236 26.8774L10.9368 23.8981H11.4087L10.6957 26.8774H10.2236Z" fill="#696A6A"/>
<path d="M11.374 26.8774L12.0872 23.8981H13.7078L13.6094 24.309H12.4608L12.2819 25.0559H13.4305L13.3289 25.4813H12.1803L11.9497 26.4439H13.0983L12.9946 26.8774H11.374Z" fill="#696A6A"/>
<path d="M14.1129 26.4397H14.5097C14.7278 26.4397 14.8951 26.4247 15.0113 26.395C15.1276 26.3652 15.2343 26.3149 15.3321 26.2443C15.4649 26.1482 15.5758 26.0284 15.665 25.8852C15.754 25.7422 15.8215 25.5754 15.8669 25.3854C15.9122 25.1954 15.9246 25.0291 15.9041 24.8863C15.8834 24.7429 15.8299 24.6232 15.7432 24.5268C15.6781 24.4564 15.5921 24.406 15.4847 24.376C15.3772 24.3464 15.2022 24.3314 14.9588 24.3314H14.7882H14.6176L14.1129 26.4397ZM13.5361 26.8774L14.2493 23.8979H14.886C15.3 23.8979 15.5861 23.9191 15.7446 23.9619C15.9028 24.0048 16.0335 24.0765 16.1364 24.1768C16.2728 24.3084 16.3597 24.4773 16.397 24.6833C16.4342 24.8896 16.4211 25.1251 16.3578 25.3896C16.2945 25.6542 16.1951 25.8886 16.0594 26.0927C15.9241 26.297 15.7564 26.4655 15.5568 26.5984C15.4058 26.6989 15.2439 26.7704 15.0719 26.8133C14.8994 26.8559 14.6423 26.8774 14.2997 26.8774H14.1726H13.5361Z" fill="#696A6A"/>
<path d="M18.6576 25.1436H18.7787C19.0404 25.1436 19.222 25.1141 19.3233 25.0559C19.4248 24.9977 19.4929 24.8945 19.5283 24.7466C19.5663 24.5879 19.5466 24.4758 19.4689 24.4108C19.3911 24.3457 19.2275 24.3129 18.9776 24.3129H18.8565L18.6576 25.1436ZM18.5329 25.5401L18.2128 26.8774H17.7705L18.4839 23.8981H19.1979C19.4095 23.8981 19.5624 23.9098 19.6567 23.9336C19.7506 23.9571 19.8282 23.9963 19.8894 24.0507C19.964 24.1199 20.0129 24.2131 20.0365 24.3304C20.0599 24.4479 20.0549 24.5771 20.0212 24.718C19.9872 24.8592 19.9303 24.9894 19.8502 25.1089C19.7701 25.2282 19.6762 25.322 19.5688 25.3896C19.4817 25.444 19.3856 25.4827 19.2802 25.5056C19.1747 25.5288 19.0163 25.5401 18.8048 25.5401H18.7117H18.5329Z" fill="#696A6A"/>
<path d="M20.6032 25.7073H21.4125L21.2773 25.0275C21.2709 24.9842 21.2649 24.9344 21.2597 24.878C21.2548 24.8216 21.2514 24.7589 21.2492 24.6897C21.2179 24.7548 21.1865 24.8156 21.155 24.872C21.1237 24.9282 21.0932 24.98 21.0633 25.0275L20.6032 25.7073ZM21.6284 26.8774L21.4825 26.1102H20.3319L19.811 26.8774H19.3154L21.463 23.7801L22.1262 26.8774H21.6284Z" fill="#696A6A"/>
<path d="M22.803 26.8774L23.1291 25.5138L22.5381 23.8981H23.034L23.4009 24.9095C23.4093 24.9354 23.4194 24.9692 23.431 25.0113C23.4428 25.0534 23.4542 25.0986 23.465 25.1476C23.4946 25.1002 23.5251 25.055 23.5556 25.0131C23.586 24.9711 23.6168 24.9325 23.6479 24.8972L24.5118 23.8981H24.984L23.5973 25.5138L23.271 26.8774H22.803Z" fill="#696A6A"/>
<path d="M27.308 25.4059C27.3082 25.3828 27.3149 25.3192 27.3281 25.2147C27.3381 25.1279 27.3461 25.0559 27.3518 24.9988C27.3237 25.0668 27.2905 25.1348 27.2525 25.2024C27.2143 25.2702 27.1705 25.3394 27.1206 25.4101L25.9807 26.9976L25.6088 25.3776C25.593 25.311 25.5809 25.2465 25.5728 25.1843C25.5647 25.1218 25.5592 25.0601 25.5565 24.9988C25.5403 25.0614 25.5198 25.1267 25.4947 25.1954C25.4696 25.2639 25.4397 25.3355 25.4045 25.4101L24.7418 26.8774H24.3076L25.7372 23.7716L26.1441 25.6523C26.15 25.6821 26.1586 25.7317 26.1691 25.8009C26.1795 25.87 26.1918 25.9555 26.2061 26.0572C26.2542 25.9717 26.3235 25.8633 26.4148 25.7317C26.439 25.6964 26.4575 25.6693 26.47 25.6502L27.7569 23.7716L27.7156 26.8774H27.2771L27.308 25.4059Z" fill="#696A6A"/>
<path d="M28.0908 26.8774L28.8042 23.8981H30.4248L30.3264 24.309H29.1776L28.9989 25.0559H30.1475L30.0458 25.4813H28.8971L28.6667 26.4439H29.8153L29.7113 26.8774H28.0908Z" fill="#696A6A"/>
<path d="M30.2549 26.8776L30.9964 23.7802L32.4053 25.6016C32.443 25.6529 32.481 25.7079 32.5185 25.7663C32.5561 25.8247 32.5944 25.8904 32.6338 25.9637L33.1284 23.8982H33.5649L32.8238 26.9932L31.3853 25.1393C31.3467 25.0893 31.3109 25.0365 31.2774 24.9808C31.2436 24.9251 31.2131 24.8667 31.1852 24.8058L30.6892 26.8776H30.2549Z" fill="#696A6A"/>
<path d="M35.071 24.309L34.4562 26.8774H33.9842L34.5987 24.309H33.8271L33.9256 23.8981H35.937L35.8387 24.309H35.071Z" fill="#696A6A"/>
<path d="M35.5597 26.2809L35.9794 26.102C35.9836 26.2348 36.0247 26.3362 36.1031 26.4061C36.1815 26.4761 36.2948 26.5109 36.4432 26.5109C36.5832 26.5109 36.7044 26.4709 36.806 26.3908C36.9078 26.3108 36.975 26.2036 37.0071 26.0693C37.049 25.8941 36.9445 25.7381 36.6946 25.6013C36.6596 25.581 36.6327 25.566 36.6142 25.5564C36.3323 25.3963 36.1536 25.2514 36.0782 25.1219C36.0029 24.9923 35.9875 24.8339 36.0322 24.6468C36.0903 24.4039 36.2178 24.2072 36.4146 24.0566C36.6113 23.906 36.8398 23.8306 37.1005 23.8306C37.3148 23.8306 37.4839 23.873 37.6076 23.9578C37.7314 24.0428 37.8021 24.1645 37.8196 24.3232L37.4041 24.5186C37.3681 24.425 37.3206 24.3565 37.2617 24.3129C37.2027 24.2695 37.128 24.2478 37.0383 24.2478C36.9114 24.2478 36.8023 24.2819 36.7113 24.3494C36.6207 24.4174 36.5613 24.5083 36.5339 24.6224C36.4911 24.8014 36.6152 24.9682 36.9061 25.1229C36.9285 25.135 36.946 25.1448 36.9587 25.1515C37.2133 25.287 37.3789 25.4197 37.4548 25.5493C37.5308 25.6791 37.5458 25.8408 37.4992 26.0347C37.4317 26.317 37.2915 26.5412 37.0785 26.7073C36.8654 26.8734 36.6113 26.9565 36.3166 26.9565C36.0691 26.9565 35.8804 26.8983 35.7505 26.7815C35.6203 26.6649 35.5566 26.4981 35.5597 26.2809Z" fill="#696A6A"/>
<path d="M39.0479 26.8774L39.7611 23.8981H40.2331L39.5199 26.8774H39.0479Z" fill="#696A6A"/>
<path d="M40.1982 26.8776L40.9397 23.7802L42.3486 25.6016C42.3863 25.6529 42.4244 25.7079 42.4619 25.7663C42.4994 25.8247 42.5378 25.8904 42.5772 25.9637L43.0718 23.8982H43.5081L42.7672 26.9932L41.3286 25.1393C41.2901 25.0893 41.2541 25.0365 41.2206 24.9808C41.1869 24.9251 41.1563 24.8667 41.1284 24.8058L40.6326 26.8776H40.1982Z" fill="#696A6A"/>
<path d="M45.0143 24.309L44.3994 26.8774H43.9275L44.5421 24.309H43.7705L43.869 23.8981H45.8803L45.7821 24.309H45.0143Z" fill="#696A6A"/>
<path d="M45.5283 26.8774L46.2415 23.8981H47.8621L47.7639 24.309H46.6153L46.4364 25.0559H47.585L47.4832 25.4813H46.3346L46.1042 26.4439H47.2528L47.1489 26.8774H45.5283Z" fill="#696A6A"/>
<path d="M48.5718 25.1678H48.6572C48.907 25.1678 49.0802 25.1382 49.1764 25.0784C49.2727 25.0187 49.3393 24.913 49.3753 24.7609C49.4147 24.5968 49.3986 24.481 49.3264 24.414C49.2548 24.3466 49.0998 24.3131 48.8619 24.3131H48.7764L48.5718 25.1678ZM48.4519 25.5443L48.1327 26.8774H47.6904L48.4038 23.8981H49.0623C49.2553 23.8981 49.4021 23.9109 49.5022 23.9368C49.6025 23.9625 49.6833 24.0051 49.7444 24.065C49.8171 24.1367 49.8642 24.2299 49.8861 24.3439C49.9075 24.4576 49.9019 24.5825 49.8696 24.718C49.8125 24.9568 49.7116 25.1437 49.5668 25.2789C49.4221 25.4137 49.2367 25.495 49.0107 25.5219L49.6862 26.8774H49.1523L48.5054 25.5443H48.4519Z" fill="#696A6A"/>
<path d="M49.9658 26.8774L50.679 23.8981H52.2996L52.2014 24.309H51.0526L50.8747 25.0519H52.0235L51.9217 25.4771H50.7731L50.4379 26.8774H49.9658Z" fill="#696A6A"/>
<path d="M52.8473 25.7073H53.6568L53.5216 25.0275C53.5151 24.9842 53.5092 24.9344 53.504 24.878C53.4991 24.8216 53.4957 24.7589 53.4935 24.6897C53.4621 24.7548 53.4306 24.8156 53.3993 24.872C53.368 24.9282 53.3374 24.98 53.3074 25.0275L52.8473 25.7073ZM53.8727 26.8774L53.7268 26.1102H52.5762L52.0553 26.8774H51.5596L53.7071 23.7801L54.3705 26.8774H53.8727Z" fill="#696A6A"/>
<path d="M57.4433 24.6224C57.3377 24.5058 57.2176 24.4183 57.0826 24.3599C56.948 24.3018 56.7986 24.2723 56.6345 24.2723C56.3172 24.2723 56.0339 24.3769 55.785 24.5857C55.5357 24.7947 55.3715 25.0653 55.2919 25.3979C55.215 25.7195 55.2485 25.9845 55.3922 26.1934C55.5359 26.4024 55.7553 26.507 56.05 26.507C56.2222 26.507 56.3931 26.4757 56.5635 26.4133C56.7338 26.3509 56.9056 26.2566 57.0784 26.1302L56.9473 26.6779C56.798 26.7714 56.6431 26.8414 56.4827 26.8874C56.3221 26.9335 56.1547 26.9565 55.9802 26.9565C55.758 26.9565 55.5615 26.9194 55.391 26.8446C55.2203 26.7701 55.0808 26.6604 54.973 26.515C54.8656 26.3726 54.7968 26.2048 54.7673 26.0113C54.7374 25.8181 54.7486 25.6121 54.8008 25.3935C54.8531 25.1752 54.9405 24.9701 55.0625 24.7781C55.1843 24.586 55.335 24.4174 55.5137 24.2723C55.6931 24.1258 55.8849 24.015 56.0892 23.9395C56.2937 23.8644 56.5046 23.8266 56.7215 23.8266C56.8921 23.8266 57.0486 23.8521 57.1912 23.9031C57.3337 23.9538 57.4653 24.0307 57.5863 24.1342L57.4433 24.6224Z" fill="#696A6A"/>
<path d="M57.4893 26.8774L58.2025 23.8981H59.8231L59.7246 24.309H58.5762L58.3973 25.0559H59.5459L59.4441 25.4813H58.2955L58.0651 26.4439H59.2137L59.1099 26.8774H57.4893Z" fill="#696A6A"/>
<path d="M48.8789 21.3018H45.6338L50.1469 5.00221H53.3922L48.8789 21.3018Z" fill="#66686C"/>
<path d="M47.1943 5.51736C46.9693 5.2072 46.6223 5.0507 46.1509 5.0507H28.3063L27.4225 8.24312H30.6695V8.24127H43.6561L42.7113 11.6528H29.7243L29.7255 11.6457H26.4799L23.7861 21.3706H27.0334L28.8412 14.8434H43.4395C43.8954 14.8434 44.3245 14.6879 44.7281 14.3769C45.1308 14.0656 45.3958 13.6817 45.5229 13.2233L47.3305 6.6947C47.4624 6.22097 47.4168 5.82785 47.1943 5.51736Z" fill="#66686C"/>
<path d="M21.8944 20.2841C21.7152 20.9295 21.1275 21.376 20.4576 21.376H3.71441C3.25818 21.376 2.91908 21.2205 2.6961 20.9098C2.47329 20.5988 2.42549 20.2141 2.55289 19.7559L6.63825 5.04968H9.88638L6.23739 18.1846H19.2302L22.8792 5.04968H26.1267L21.8944 20.2841Z" fill="#66686C"/>
<path d="M58.9961 5.03247L63.1047 13.2034L54.4678 21.3721L58.9961 5.03247Z" fill="#27803B"/>
<path d="M56.1159 5.03247L60.2215 13.2034L51.5811 21.3721L56.1159 5.03247Z" fill="#E9661C"/>
</g>
<defs>
<clipPath id="clip0_8402_24078">
<rect width="62.2724" height="22" fill="white" transform="translate(0.834961 5)"/>
</clipPath>
</defs>
</svg>
