<svg width="88" height="32" viewBox="0 0 88 32" fill="none" xmlns="http://www.w3.org/2000/svg">
<g clip-path="url(#clip0_8407_25348)">
<path d="M15.1533 8C15.7415 8.93831 16.0066 9.90478 16.0066 11.1256C16.0066 15.0195 12.5654 20.0779 9.77254 23.6298H3.39337L0.834961 8.85255L6.42062 8.34029L7.77327 18.8553C9.03719 16.8663 10.5968 13.7407 10.5968 11.6097C10.5968 10.4433 10.39 9.64879 10.0667 8.99461L15.1533 8Z" fill="#008CFF"/>
<path d="M22.3931 14.5081C23.421 14.5081 26.0087 14.0539 26.0087 12.6332C26.0087 11.951 25.5094 11.6107 24.9209 11.6107C23.8914 11.6107 22.5404 12.8032 22.3931 14.5081ZM22.2754 17.3217C22.2754 19.0564 23.2739 19.737 24.5978 19.737C26.0394 19.737 27.4196 19.3967 29.2137 18.516L28.538 22.9484C27.2739 23.5449 25.304 23.943 23.3919 23.943C18.5416 23.943 16.8057 21.1016 16.8057 17.5495C16.8057 12.9456 19.6294 8.05713 25.4509 8.05713C28.6561 8.05713 30.4483 9.79169 30.4483 12.207C30.4486 16.1007 25.275 17.2935 22.2754 17.3217V17.3217Z" fill="#008CFF"/>
<path d="M46.5686 11.4112C46.5686 11.9795 46.4796 12.8037 46.3906 13.3424L44.7147 23.5733H39.2757L40.8046 14.1948C40.8336 13.9404 40.9227 13.4283 40.9227 13.1442C40.9227 12.462 40.4815 12.2918 39.951 12.2918C39.2465 12.2918 38.5402 12.604 38.0699 12.832L36.3358 23.5734H30.8662L33.365 8.25598H38.0989L38.1588 9.47858C39.2756 8.76824 40.7462 8 42.8326 8C45.5972 7.99971 46.5686 9.36422 46.5686 11.4112V11.4112Z" fill="#008CFF"/>
<path d="M62.714 9.73393C64.2718 8.65515 65.7427 8.05713 67.7705 8.05713C70.5632 8.05713 71.5347 9.42165 71.5347 11.4686C71.5347 12.0369 71.4457 12.8612 71.357 13.3998L69.6828 23.6307H64.2424L65.8007 14.054C65.8292 13.798 65.8897 13.4857 65.8897 13.2877C65.8897 12.5195 65.4483 12.3492 64.9178 12.3492C64.2424 12.3492 63.567 12.6333 63.0655 12.8895L61.3317 23.6309H55.8929L57.4508 14.0541C57.4793 13.7982 57.5381 13.4859 57.5381 13.2878C57.5381 12.5197 57.0963 12.3493 56.5679 12.3493C55.8619 12.3493 55.1571 12.6616 54.6866 12.8896L52.9512 23.631H47.4834L49.9821 8.31355H54.6581L54.8051 9.5923C55.8929 8.82596 57.3621 8.05771 59.332 8.05771C61.0377 8.05713 62.1541 8.76761 62.714 9.73393V9.73393Z" fill="#008CFF"/>
<path d="M82.3581 14.1956C82.3581 12.9451 82.0343 12.0926 81.0649 12.0926C78.9186 12.0926 78.4776 15.7582 78.4776 17.6333C78.4776 19.0559 78.8896 19.9363 79.859 19.9363C81.8877 19.9363 82.3581 16.0706 82.3581 14.1956V14.1956ZM72.9502 17.407C72.9502 12.5765 75.5959 8.05664 81.6827 8.05664C86.2693 8.05664 87.946 10.6718 87.946 14.2813C87.946 19.0557 85.3289 24.0001 79.095 24.0001C74.4791 24.0001 72.9502 21.0727 72.9502 17.407Z" fill="#008CFF"/>
</g>
<defs>
<clipPath id="clip0_8407_25348">
<rect width="87.1111" height="16" fill="white" transform="translate(0.834961 8)"/>
</clipPath>
</defs>
</svg>
