<svg width="35" height="12" viewBox="0 0 35 12" fill="none" xmlns="http://www.w3.org/2000/svg">
<g clip-path="url(#clip0_7283_26219)">
<path d="M13.2258 0.694427L8.76658 11.3336H5.85728L3.66306 2.84305C3.52983 2.32009 3.41399 2.1285 3.00882 1.90817C2.34749 1.5493 1.25508 1.21278 0.293945 1.00381L0.359227 0.694427H5.04232C5.63926 0.694427 6.17588 1.09179 6.31141 1.77921L7.47034 7.93557L10.3346 0.694427H13.2258ZM34.3541 11.3338H31.8086L31.4763 9.74448H27.9453L27.3714 11.3338H24.4814L28.6114 1.47515C28.8088 1.00203 29.2543 0.694604 29.7826 0.694604H32.132L34.3539 11.3338H34.3541ZM31.0201 7.56393L30.1863 3.56931L28.7377 7.56393H31.0199H31.0201ZM14.4071 0.694427L12.1304 11.3336H14.8825L17.1583 0.694427H14.4071ZM20.769 3.64293C20.7774 3.26118 21.1409 2.85529 21.9365 2.75169C22.3308 2.70007 23.4174 2.66069 24.6498 3.22783L25.1332 0.971697C24.471 0.731325 23.6189 0.5 22.5588 0.5C19.8384 0.5 17.924 1.94614 17.9078 4.01688C17.8903 5.54853 19.2743 6.40322 20.317 6.91217C21.3898 7.43336 21.7497 7.76829 21.7456 8.23449C21.738 8.94815 20.89 9.26321 20.0976 9.27563C18.7143 9.29691 17.9115 8.90132 17.2717 8.60383L16.7728 10.9346C17.4159 11.2296 18.6029 11.4871 19.8335 11.5C22.7248 11.5 24.6162 10.0718 24.6251 7.86C24.6368 5.05199 20.7423 4.8973 20.769 3.64293Z" fill="#1434CB"/>
</g>
<defs>
<clipPath id="clip0_7283_26219">
<rect width="34.0601" height="11" fill="white" transform="translate(0.293945 0.5)"/>
</clipPath>
</defs>
</svg>
