<svg width="35" height="12" viewBox="0 0 35 12" fill="none" xmlns="http://www.w3.org/2000/svg">
<g clip-path="url(#clip0_7283_26219)">
<path d="M13.2893 0.694427L8.83006 11.3336H5.92075L3.72654 2.84305C3.59331 2.32009 3.47747 2.1285 3.0723 1.90817C2.41096 1.5493 1.31856 1.21278 0.357422 1.00381L0.422704 0.694427H5.10579C5.70273 0.694427 6.23936 1.09179 6.37489 1.77921L7.53382 7.93557L10.3981 0.694427H13.2893ZM34.4175 11.3338H31.8721L31.5398 9.74448H28.0087L27.4349 11.3338H24.5449L28.6749 1.47515C28.8723 1.00203 29.3178 0.694604 29.846 0.694604H32.1955L34.4174 11.3338H34.4175ZM31.0836 7.56393L30.2498 3.56931L28.8012 7.56393H31.0834H31.0836ZM14.4706 0.694427L12.1938 11.3336H14.946L17.2218 0.694427H14.4706ZM20.8325 3.64293C20.8409 3.26118 21.2043 2.85529 22 2.75169C22.3943 2.70007 23.4809 2.66069 24.7132 3.22783L25.1967 0.971697C24.5344 0.731325 23.6824 0.5 22.6223 0.5C19.9019 0.5 17.9874 1.94614 17.9713 4.01688C17.9537 5.54853 19.3378 6.40322 20.3805 6.91217C21.4532 7.43336 21.8132 7.76829 21.8091 8.23449C21.8015 8.94815 20.9535 9.26321 20.1611 9.27563C18.7777 9.29691 17.975 8.90132 17.3352 8.60383L16.8363 10.9346C17.4794 11.2296 18.6663 11.4871 19.8969 11.5C22.7883 11.5 24.6797 10.0718 24.6886 7.86C24.7003 5.05199 20.8057 4.8973 20.8325 3.64293Z" fill="#1434CB"/>
</g>
<defs>
<clipPath id="clip0_7283_26219">
<rect width="34.0601" height="11" fill="white" transform="translate(0.357422 0.5)"/>
</clipPath>
</defs>
</svg>
