<svg width="69" height="32" viewBox="0 0 69 32" fill="none" xmlns="http://www.w3.org/2000/svg">
<g clip-path="url(#clip0_8339_23945)">
<path d="M26.6987 5.38885L17.7802 26.6672H11.9616L7.57319 9.6861C7.30674 8.64018 7.07506 8.257 6.26471 7.81635C4.94204 7.0986 2.75723 6.42556 0.834961 6.00761L0.965525 5.38885H10.3317C11.5256 5.38885 12.5988 6.18359 12.8699 7.55841L15.1878 19.8711L20.9162 5.38885H26.6987ZM68.9552 26.6676H63.8643L63.1998 23.489H56.1376L54.9898 26.6676H49.2099L57.4699 6.9503C57.8647 6.00406 58.7556 5.38921 59.8122 5.38921H64.5111L68.9549 26.6676H68.9552ZM62.2872 19.1279L60.6197 11.1386L57.7225 19.1279H62.2869H62.2872ZM29.0612 5.38885L24.5078 26.6672H30.0121L34.5637 5.38885H29.0612V5.38885ZM41.7852 11.2859C41.8018 10.5224 42.5288 9.71059 44.1201 9.50339C44.9088 9.40014 47.0819 9.32138 49.5466 10.4557L50.5134 5.94339C49.189 5.46265 47.4849 5 45.3647 5C39.9239 5 36.095 7.89227 36.0627 12.0338C36.0276 15.0971 38.7957 16.8064 40.8812 17.8243C43.0266 18.8667 43.7465 19.5366 43.7383 20.469C43.723 21.8963 42.0271 22.5264 40.4423 22.5513C37.6756 22.5938 36.0702 21.8026 34.7904 21.2077L33.7927 25.8693C35.0789 26.4593 37.4528 26.9741 39.914 27C45.6968 27 49.4796 24.1436 49.4973 19.72C49.5207 14.104 41.7316 13.7946 41.7852 11.2859V11.2859Z" fill="#1434CB"/>
</g>
<defs>
<clipPath id="clip0_8339_23945">
<rect width="68.1202" height="22" fill="white" transform="translate(0.834961 5)"/>
</clipPath>
</defs>
</svg>
