<svg width="24" height="24" viewBox="0 0 24 24" fill="none" xmlns="http://www.w3.org/2000/svg">
<path d="M2.35199 18.9H3.16799V15.06H20.832V18.9H21.648V11.388C21.648 9.73198 20.4 8.50798 18.744 8.50798H11.448V14.22H3.16799V5.09998H2.35199V18.9ZM4.39199 10.092C4.39199 11.724 5.71199 13.02 7.29599 13.02C8.92799 13.02 10.224 11.724 10.224 10.092C10.224 8.48398 8.92799 7.18798 7.29599 7.18798C5.71199 7.18798 4.39199 8.48398 4.39199 10.092ZM5.13599 10.092C5.13599 8.89198 6.11999 7.93198 7.29599 7.93198C8.51999 7.93198 9.47999 8.89198 9.47999 10.092C9.47999 11.316 8.51999 12.252 7.29599 12.252C6.11999 12.252 5.13599 11.316 5.13599 10.092ZM12.264 14.22V9.32398L18.888 9.29998C20.088 9.29998 20.832 10.068 20.832 11.244V14.22H12.264Z" fill="black"/>
</svg>
