<svg width="24" height="24" viewBox="0 0 24 24" fill="none" xmlns="http://www.w3.org/2000/svg">
<path d="M2.64005 12H3.45605V6.50395H20.8561C20.2561 7.07995 19.6801 7.65595 19.1041 8.23195L17.4241 9.88795L17.9761 10.44L22.3201 6.09595L17.9761 1.75195L17.4241 2.30395L19.1041 3.95995C19.6561 4.53595 20.2561 5.11195 20.8321 5.68795H2.64005V12ZM1.68005 17.904L6.02405 22.248L6.57605 21.696L4.89605 20.016C4.34405 19.464 3.74405 18.864 3.16805 18.312H21.3601V12H20.5441V17.496H3.16805C3.74405 16.92 4.34405 16.344 4.89605 15.768L6.57605 14.088L6.02405 13.56L1.68005 17.904Z" fill="black"/>
</svg>
