<svg width="24" height="24" viewBox="0 0 24 24" fill="none" xmlns="http://www.w3.org/2000/svg">
<path d="M17.652 16.464V17.28C20.172 17.064 21.948 15.12 21.948 12.768C21.948 10.488 20.268 8.63998 18.084 8.32799C17.772 5.49599 15.324 3.35999 12.492 3.35999C10.404 3.35999 8.556 4.48799 7.572 6.19199C4.572 6.21599 2.052 8.68798 2.052 11.76C2.052 14.304 3.78 16.464 6.18 17.136V16.272C4.26 15.672 2.892 13.92 2.892 11.76C2.892 8.90398 5.292 6.74399 8.124 7.05599C8.868 5.30399 10.5 4.17599 12.492 4.17599C15.18 4.17599 17.364 6.28799 17.268 9.09598C19.428 9.04798 21.108 10.608 21.108 12.768C21.108 14.712 19.668 16.248 17.652 16.464ZM7.644 16.296L11.988 20.64L16.332 16.296L15.78 15.744L14.124 17.424C13.548 17.976 12.972 18.576 12.396 19.152V11.28H11.58V19.152C11.004 18.576 10.428 17.976 9.852 17.424L8.196 15.744L7.644 16.296Z" fill="black"/>
</svg>
