<svg width="24" height="24" viewBox="0 0 24 24" fill="none" xmlns="http://www.w3.org/2000/svg">
<path d="M2.64001 4.94404V17.304L6.62401 14.232H17.712V4.94404C17.712 3.96004 16.872 3.14404 15.912 3.14404H4.44001C3.45601 3.14404 2.64001 3.96004 2.64001 4.94404ZM3.48001 15.624V4.94404C3.48001 4.41604 3.93601 3.96004 4.48801 3.96004H15.864C16.416 3.96004 16.872 4.41604 16.872 4.94404V13.44H6.31201L3.48001 15.624ZM7.56002 15.984C7.56002 16.968 8.37602 17.784 9.36002 17.784H17.376L21.36 20.856V8.73604C21.36 7.75204 20.52 6.91204 19.536 6.91204V7.75204C20.064 7.75204 20.52 8.23204 20.52 8.85604V19.176L17.664 16.968H9.50402C8.85602 16.968 8.40002 16.512 8.40002 15.984H7.56002Z" fill="black"/>
</svg>
