<svg width="24" height="24" viewBox="0 0 24 24" fill="none" xmlns="http://www.w3.org/2000/svg">
<path d="M5.76001 21.36H12.624V20.544H5.80801C5.20801 20.544 4.80001 20.136 4.80001 19.536V4.44001C4.80001 3.84001 5.20801 3.45601 5.80801 3.45601H15.432C16.032 3.45601 16.44 3.84001 16.44 4.44001V6.98402H17.28V4.44001C17.28 3.45601 16.464 2.64001 15.48 2.64001H5.76001C4.77601 2.64001 3.96001 3.45601 3.96001 4.44001V19.56C3.96001 20.544 4.77601 21.36 5.76001 21.36ZM14.4 21.36H20.04V8.76002H14.4V21.36ZM15.216 20.544V9.57602H19.224V20.544H15.216Z" fill="black"/>
</svg>
