<svg width="24" height="24" viewBox="0 0 24 24" fill="none" xmlns="http://www.w3.org/2000/svg">
<path d="M4.764 19.92H12.204V19.128H9.54L10.236 15.84H12.204V15.024H3.948C3.348 15.024 2.94 14.616 2.94 14.016V4.92C2.94 4.32 3.348 3.936 3.948 3.936H18.972C19.572 3.936 19.98 4.32 19.98 4.92V6.12H20.82V4.92C20.82 3.936 20.004 3.12 19.02 3.12H3.9C2.916 3.12 2.1 3.936 2.1 4.92V14.04C2.1 15.024 2.916 15.84 3.9 15.84H9.444L8.748 19.128H6.18C5.58 19.128 5.028 19.464 4.764 19.92ZM13.86 19.08C13.86 20.064 14.676 20.88 15.66 20.88H20.1C21.084 20.88 21.9 20.064 21.9 19.08V9.6C21.9 8.616 21.084 7.8 20.1 7.8H15.66C14.676 7.8 13.86 8.616 13.86 9.6V19.08ZM14.676 19.104V9.576C14.676 8.976 15.084 8.568 15.684 8.568H20.1C20.7 8.568 21.084 8.976 21.084 9.576V19.104C21.084 19.704 20.7 20.112 20.1 20.112H15.684C15.084 20.112 14.676 19.704 14.676 19.104ZM17.1 18.312C17.1 18.744 17.436 19.104 17.892 19.104C18.324 19.104 18.66 18.744 18.66 18.312C18.66 17.88 18.324 17.544 17.892 17.544C17.436 17.544 17.1 17.88 17.1 18.312Z" fill="black"/>
</svg>
