<svg width="14" height="10" viewBox="0 0 14 10" fill="none" xmlns="http://www.w3.org/2000/svg">
<path d="M11.6281 1.11497C10.7521 0.744545 9.82729 0.481757 8.87733 0.333313C8.74734 0.547941 8.62972 0.768765 8.52496 0.99486C7.51308 0.854029 6.48405 0.854029 5.47217 0.99486C5.36736 0.768788 5.24974 0.547967 5.1198 0.333313C4.16924 0.483011 3.24383 0.746423 2.36694 1.1169C0.626076 3.49576 0.154157 5.81553 0.390116 8.10237C1.40961 8.79807 2.55071 9.32716 3.76382 9.66665C4.03697 9.32733 4.27868 8.96735 4.48638 8.59054C4.09189 8.45446 3.71114 8.28657 3.34853 8.08881C3.44396 8.02489 3.5373 7.95902 3.62749 7.8951C4.68259 8.35338 5.83418 8.59099 7.00014 8.59099C8.16609 8.59099 9.31769 8.35338 10.3728 7.8951C10.464 7.96387 10.5574 8.02973 10.6517 8.08881C10.2884 8.28689 9.90699 8.4551 9.5118 8.59151C9.71924 8.96815 9.96097 9.32782 10.2344 9.66665C11.4485 9.32852 12.5905 8.79968 13.6102 8.10334C13.887 5.45134 13.1372 3.15288 11.6281 1.11497ZM4.78526 6.69598C4.12772 6.69598 3.58449 6.14485 3.58449 5.46684C3.58449 4.78883 4.10884 4.23286 4.78317 4.23286C5.45749 4.23286 5.99652 4.78883 5.98499 5.46684C5.97345 6.14485 5.45539 6.69598 4.78526 6.69598ZM9.21502 6.69598C8.55643 6.69598 8.01529 6.14485 8.01529 5.46684C8.01529 4.78883 8.53965 4.23286 9.21502 4.23286C9.89039 4.23286 10.4252 4.78883 10.4137 5.46684C10.4022 6.14485 9.88514 6.69598 9.21502 6.69598Z" fill="white"/>
</svg>