<svg width="24" height="24" viewBox="0 0 24 24" fill="none" xmlns="http://www.w3.org/2000/svg">
<path d="M11.748 22.3201H12.612V20.4001C15.468 20.2321 17.916 18.5281 17.916 15.6721C17.916 13.2241 16.164 11.8801 13.524 11.5201L12.612 11.4001V4.48805C15.204 4.63205 16.644 6.26405 16.668 9.00005H17.652C17.604 5.90405 15.612 3.79205 12.612 3.62405V1.68005H11.748V3.62405C9.17999 3.76805 6.73199 5.28005 6.73199 8.06405C6.73199 10.3681 8.24399 11.7121 10.788 12.0481L11.748 12.1681V19.5121C8.74799 19.3681 7.11599 17.5681 7.06799 14.4961H6.08398C6.15598 18.0001 8.38799 20.2081 11.748 20.3761V22.3201ZM7.66799 8.08805V7.96805C7.66799 5.90405 9.32399 4.58405 11.748 4.48805V11.2801L10.956 11.1601C8.81999 10.8721 7.66799 9.91205 7.66799 8.08805ZM12.612 19.5121V12.2881L13.332 12.3841C15.636 12.6961 16.956 13.7041 16.956 15.6481V15.7921C16.956 18.0241 15.228 19.4161 12.612 19.5121Z" fill="black"/>
</svg>
