<svg width="24" height="24" viewBox="0 0 24 24" fill="none" xmlns="http://www.w3.org/2000/svg">
<path d="M11.6855 21.6744L13.9895 19.3704C14.8295 18.1704 13.6775 15.7704 11.2775 13.2744L13.1495 11.4264C15.6695 13.8264 18.0935 14.8344 19.3415 14.0184L21.6455 11.7144C22.5815 10.4184 21.2855 7.89842 18.6935 5.30642C16.1015 2.71442 13.5815 1.41842 12.2855 2.35442L9.98148 4.65842C9.16548 5.90642 10.1735 8.33042 12.5735 10.8504L10.7255 12.7224C8.22948 10.3224 5.82948 9.17042 4.62948 10.0104L2.32548 12.3144C1.48548 13.6104 2.58948 16.1544 5.20548 18.7944C7.84548 21.4104 10.3895 22.5144 11.6855 21.6744ZM2.94948 12.8184L4.36548 11.3784C4.38948 12.6744 5.68548 14.5944 7.55748 16.4424C9.40548 18.3144 11.3255 19.6104 12.6215 19.6344L11.1815 21.0744C10.2935 21.5304 8.06148 20.5224 5.78148 18.2184C3.47748 15.9384 2.49348 13.7064 2.94948 12.8184ZM5.15748 10.6104C5.97348 10.1064 7.98948 11.1384 10.1735 13.2504L8.92548 14.4984C8.87748 14.5464 8.94948 14.7384 9.11748 14.8824C9.26148 15.0504 9.45348 15.1224 9.50148 15.0744L10.7495 13.8264C12.8615 16.0104 13.8935 18.0264 13.3895 18.8424C12.7415 19.4904 10.3655 18.2184 8.06148 15.9384C5.78148 13.6344 4.50948 11.2584 5.15748 10.6104ZM10.5815 5.16242L12.0215 3.74642C12.0455 5.04242 13.3415 6.96242 15.1895 8.81042C17.0375 10.6584 18.9575 11.9544 20.2535 11.9784L18.8375 13.4184C17.9495 13.8744 15.7175 12.8664 13.4135 10.5864C11.1335 8.28242 10.1255 6.05042 10.5815 5.16242ZM12.7895 2.95442C13.6535 2.42642 15.8375 3.57842 18.1415 5.85842C20.4215 8.16242 21.5735 10.3464 21.0455 11.2104C20.3735 11.8584 17.9975 10.5864 15.7175 8.28242C13.4135 6.00242 12.1415 3.62642 12.7895 2.95442ZM16.5335 6.84242C16.4855 6.89042 16.5575 7.08242 16.7255 7.27442C16.9175 7.44242 17.1095 7.51442 17.1575 7.46642L17.7575 6.86642C17.8055 6.81842 17.7335 6.62642 17.5415 6.45842C17.3735 6.26642 17.1815 6.19442 17.1335 6.24242L16.5335 6.84242Z" fill="black"/>
</svg>
