<svg width="24" height="24" viewBox="0 0 24 24" fill="none" xmlns="http://www.w3.org/2000/svg">
<path d="M11.976 16.704H12.024C13.92 16.704 15.24 15.576 15.24 14.088C15.24 13.08 14.616 12.24 13.584 11.88V11.784C14.472 11.448 15 10.704 15 9.816C15 8.424 13.752 7.344 12.024 7.344H11.976C10.248 7.344 9.00001 8.424 9.00001 9.816C9.00001 10.704 9.55201 11.448 10.416 11.784V11.88C9.38401 12.24 8.78401 13.056 8.78401 14.088C8.78401 15.576 10.104 16.704 11.976 16.704ZM5.76001 21H18.24V20.16H5.76001V21ZM5.76001 3.84H18.24V3H5.76001V3.84ZM9.64801 14.16V13.968C9.64801 12.912 10.44 12.24 11.952 12.24H12.048C13.584 12.24 14.376 12.912 14.376 13.968V14.16C14.376 15.24 13.56 15.912 12.048 15.912H11.952C10.464 15.912 9.64801 15.24 9.64801 14.16ZM9.84001 9.936V9.768C9.84001 8.76 10.584 8.136 11.952 8.136H12.048C13.416 8.136 14.16 8.76 14.16 9.768V9.936C14.16 10.92 13.44 11.52 12.048 11.52H11.952C10.56 11.52 9.84001 10.92 9.84001 9.936Z" fill="black"/>
</svg>
