<svg width="24" height="24" viewBox="0 0 24 24" fill="none" xmlns="http://www.w3.org/2000/svg">
<path d="M10.908 16.704H10.956C12.852 16.704 14.172 15.576 14.172 14.088C14.172 13.08 13.548 12.24 12.516 11.88V11.784C13.404 11.448 13.932 10.704 13.932 9.816C13.932 8.424 12.684 7.344 10.956 7.344H10.908C9.17999 7.344 7.93199 8.424 7.93199 9.816C7.93199 10.704 8.48399 11.448 9.34799 11.784V11.88C8.31599 12.24 7.71599 13.056 7.71599 14.088C7.71599 15.576 9.03599 16.704 10.908 16.704ZM4.06799 21H10.932C15.972 21 19.932 16.896 19.932 12C19.932 6.96 15.972 3 10.932 3H4.06799V3.84H10.932C15.516 3.84 19.092 7.416 19.092 12C19.092 16.44 15.516 20.16 10.932 20.16H4.06799V21ZM8.57999 14.16V13.968C8.57999 12.912 9.37199 12.24 10.884 12.24H10.98C12.516 12.24 13.308 12.912 13.308 13.968V14.16C13.308 15.24 12.492 15.912 10.98 15.912H10.884C9.39599 15.912 8.57999 15.24 8.57999 14.16ZM8.77199 9.936V9.768C8.77199 8.76 9.51599 8.136 10.884 8.136H10.98C12.348 8.136 13.092 8.76 13.092 9.768V9.936C13.092 10.92 12.372 11.52 10.98 11.52H10.884C9.49199 11.52 8.77199 10.92 8.77199 9.936Z" fill="black"/>
</svg>
