<svg width="24" height="24" viewBox="0 0 24 24" fill="none" xmlns="http://www.w3.org/2000/svg">
<path d="M12.0004 20.7188C9.68874 20.716 7.47258 19.7965 5.83802 18.162C4.20346 16.5274 3.28396 14.3113 3.28125 11.9996C3.28396 9.68808 4.20348 7.47199 5.83806 5.83754C7.47265 4.2031 9.68881 3.28377 12.0004 3.28125C14.3118 3.28377 16.5279 4.20312 18.1624 5.83759C19.7969 7.47206 20.7162 9.68815 20.7187 11.9996C20.7162 14.3112 19.7969 16.5274 18.1625 18.1619C16.528 19.7965 14.3119 20.716 12.0004 20.7188ZM12.0004 4.01321C9.88288 4.01554 7.85278 4.85768 6.35542 6.3549C4.85806 7.85212 4.01573 9.88215 4.01321 11.9996C4.01554 14.1172 4.85778 16.1475 6.35516 17.6448C7.85254 19.1422 9.88275 19.9845 12.0004 19.9868C14.1178 19.9843 16.1479 19.1419 17.6451 17.6446C19.1423 16.1472 19.9845 14.1171 19.9868 11.9996C19.9843 9.88228 19.142 7.85236 17.6448 6.35516C16.1476 4.85796 14.1177 4.01573 12.0004 4.01321Z" fill="black"/>
<path d="M8.74022 11.1945C9.41249 11.1945 9.95746 10.6495 9.95746 9.97722C9.95746 9.30496 9.41249 8.75997 8.74022 8.75997C8.06795 8.75997 7.52297 9.30496 7.52297 9.97722C7.52297 10.6495 8.06795 11.1945 8.74022 11.1945Z" fill="black"/>
<path d="M15.1968 11.1945C15.8691 11.1945 16.4141 10.6495 16.4141 9.97722C16.4141 9.30496 15.8691 8.75997 15.1968 8.75997C14.5246 8.75997 13.9796 9.30496 13.9796 9.97722C13.9796 10.6495 14.5246 11.1945 15.1968 11.1945Z" fill="black"/>
<path d="M8.45036 13.7869C8.74173 14.4777 9.23061 15.067 9.85566 15.481C10.4807 15.8949 11.2141 16.1151 11.9638 16.1138C12.7135 16.1151 13.4468 15.8949 14.0719 15.481C14.6969 15.067 15.1858 14.4777 15.4772 13.7869L16.1462 14.0709C15.7989 14.8946 15.216 15.5974 14.4708 16.091C13.7255 16.5847 12.8511 16.8473 11.9572 16.8458C11.0646 16.8457 10.1919 16.5824 9.44829 16.0888C8.70463 15.5952 8.12302 14.8933 7.77623 14.0709L8.45036 13.7869Z" fill="black"/>
</svg>
