<svg width="24" height="24" viewBox="0 0 24 24" fill="none" xmlns="http://www.w3.org/2000/svg">
<path d="M1.67999 21.36H7.67999V15.36H5.06399V12.384H11.616V15.36H8.99999V21.36H15V15.36H12.384V12.384H18.936V15.36H16.32V21.36H22.32V15.36H19.704V11.616H12.384V8.64002H15V2.64001H8.99999V8.64002H11.616V11.616H4.29599V15.36H1.67999V21.36ZM2.47199 20.592V16.128H6.91199V20.592H2.47199ZM9.79199 20.592V16.128H14.232V20.592H9.79199ZM9.79199 7.87202V3.40801H14.232V7.87202H9.79199ZM17.112 20.592V16.128H21.552V20.592H17.112Z" fill="black"/>
</svg>
