<svg width="24" height="24" viewBox="0 0 24 24" fill="none" xmlns="http://www.w3.org/2000/svg">
<path d="M21.0721 21.6481L21.6481 21.0721L2.92805 2.35205L2.35205 2.92805L6.40805 6.98405C4.75205 8.25605 3.31205 10.0321 2.40005 12.0001C4.29605 16.0801 8.28005 19.1521 12.0001 19.1521C13.6561 19.1521 15.3601 18.5281 16.9201 17.4961L21.0721 21.6481ZM3.31205 12.0001C4.17605 10.2241 5.47205 8.68805 6.98405 7.56005L9.43205 10.0081C9.00005 10.5601 8.76005 11.2561 8.76005 12.0001C8.76005 13.8001 10.2001 15.2401 12.0001 15.2401C12.7441 15.2401 13.4401 15.0001 13.9921 14.5681L16.3441 16.9201C14.9281 17.8561 13.4641 18.3361 12.0001 18.3361C8.66405 18.3361 5.16005 15.7201 3.31205 12.0001ZM9.33605 5.32805L9.96005 5.97605C10.6321 5.76005 11.3281 5.64005 12.0001 5.64005C15.3361 5.64005 18.8161 8.28005 20.6881 12.0001C20.1601 13.0321 19.5361 13.9681 18.7921 14.8081L19.3681 15.3841C20.2561 14.3761 21.0241 13.2241 21.6001 12.0001C19.7041 7.92005 15.7201 4.84805 12.0001 4.84805C11.1121 4.84805 10.2001 5.01605 9.33605 5.32805ZM9.55205 12.0001C9.55205 11.4481 9.72005 10.9681 10.0081 10.5841L13.4161 13.9921C13.0081 14.2801 12.5281 14.4481 12.0001 14.4481C10.6321 14.4481 9.55205 13.3681 9.55205 12.0001Z" fill="black"/>
</svg>
