<svg width="24" height="24" viewBox="0 0 24 24" fill="none" xmlns="http://www.w3.org/2000/svg">
<path d="M7.512 12.408H13.512V11.592H7.512V12.408ZM4.224 12C4.224 17.4 6.984 21.96 10.68 21.96H13.416C17.016 21.96 19.776 17.4 19.776 12C19.776 6.60004 17.016 2.04004 13.416 2.04004H10.68C6.984 2.04004 4.224 6.60004 4.224 12ZM5.064 12C5.064 6.96004 7.56 2.88004 10.68 2.88004C13.704 2.88004 16.248 6.96004 16.248 12C16.248 17.016 13.704 21.12 10.68 21.12C7.56 21.12 5.064 17.016 5.064 12ZM13.08 21.12C15.408 19.632 16.992 16.08 16.992 12C16.992 7.92004 15.408 4.36804 13.08 2.88004H13.416C16.44 2.88004 18.936 6.96004 18.936 12C18.936 17.016 16.44 21.12 13.416 21.12H13.08Z" fill="black"/>
</svg>
