<svg width="24" height="24" viewBox="0 0 24 24" fill="none" xmlns="http://www.w3.org/2000/svg">
<path d="M10.932 16.704C12.852 16.704 14.076 15.384 14.076 13.608C14.076 11.808 12.828 10.536 11.1 10.536C10.212 10.536 9.49199 10.896 9.03599 11.496H8.93999L9.27599 8.352H13.572V7.584H8.57999L8.09999 12.744H8.89199C9.17999 11.856 9.82799 11.28 10.956 11.28H11.004C12.42 11.28 13.236 12.12 13.236 13.512V13.704C13.236 15.096 12.468 15.936 10.956 15.936H10.908C9.39599 15.936 8.62799 15.072 8.60399 13.752H7.78799C7.78799 15.408 9.01199 16.704 10.932 16.704ZM4.06799 21H10.932C15.972 21 19.932 16.896 19.932 12C19.932 6.96 15.972 3 10.932 3H4.06799V3.84H10.932C15.516 3.84 19.092 7.416 19.092 12C19.092 16.44 15.516 20.16 10.932 20.16H4.06799V21Z" fill="black"/>
</svg>
