<svg width="24" height="24" viewBox="0 0 24 24" fill="none" xmlns="http://www.w3.org/2000/svg">
<path d="M10.776 20.604C11.136 20.604 11.472 20.58 11.808 20.58L10.968 19.74C10.728 19.74 10.488 19.74 10.248 19.716C6.38402 19.668 3.91202 18.612 3.91202 17.22V14.892C5.04002 16.02 7.60802 16.692 10.776 16.692C11.232 16.692 11.64 16.668 12.048 16.668L12.648 16.188L13.104 16.524C15.12 16.284 16.728 15.732 17.64 14.94V15.756L18.48 14.916V5.55597C18.48 3.49197 15.24 2.21997 10.776 2.21997C6.43202 2.21997 3.07202 3.49197 3.07202 5.55597V17.22C3.07202 19.308 6.36002 20.628 10.776 20.604ZM3.91202 13.356V11.004C5.04002 12.156 7.60802 12.828 10.776 12.828C13.896 12.828 16.488 12.156 17.64 10.98V13.356C17.64 14.94 14.376 15.924 10.776 15.924C6.57602 15.924 3.91202 14.796 3.91202 13.356ZM3.91202 9.44397V7.11597C5.04002 8.26797 7.60802 8.91597 10.776 8.91597C13.896 8.91597 16.488 8.26797 17.64 7.11597V9.44397C17.64 10.932 14.904 12.06 10.776 12.06C6.57602 12.06 3.91202 10.932 3.91202 9.44397ZM3.91202 5.55597C3.91202 4.11597 6.64802 3.05997 10.776 3.05997C15.024 3.05997 17.64 4.11597 17.64 5.55597C17.64 7.06797 14.904 8.14797 10.776 8.14797C6.57602 8.14797 3.91202 7.06797 3.91202 5.55597ZM12.264 18.588L15.432 21.78L20.928 16.26L20.352 15.684L15.432 20.604L12.84 18.012L12.264 18.588Z" fill="black"/>
</svg>
