<svg width="24" height="24" viewBox="0 0 24 24" fill="none" xmlns="http://www.w3.org/2000/svg">
<path d="M12 21.192C16.344 21.192 19.704 19.92 19.704 17.808V6.14398C19.704 4.07998 16.464 2.80798 12 2.80798C7.656 2.80798 4.296 4.05598 4.296 6.14398V17.808C4.296 19.896 7.584 21.192 12 21.192ZM5.136 17.808V15.456C6.264 16.608 8.832 17.28 12 17.28C15.12 17.28 17.712 16.584 18.864 15.456V17.808C18.864 19.272 16.128 20.328 12 20.328C7.8 20.328 5.136 19.272 5.136 17.808ZM5.136 13.944V11.592C6.264 12.744 8.832 13.416 12 13.416C15.12 13.416 17.712 12.744 18.864 11.568V13.944C18.864 15.384 16.128 16.512 12 16.512C7.8 16.512 5.136 15.384 5.136 13.944ZM5.136 10.032V7.70398C6.264 8.85598 8.832 9.50398 12 9.50398C15.12 9.50398 17.712 8.85598 18.864 7.70398V10.032C18.864 11.52 16.128 12.648 12 12.648C7.8 12.648 5.136 11.52 5.136 10.032ZM5.136 6.14398C5.136 4.70398 7.872 3.64798 12 3.64798C16.248 3.64798 18.864 4.70398 18.864 6.14398C18.864 7.65598 16.128 8.73598 12 8.73598C7.8 8.73598 5.136 7.65598 5.136 6.14398Z" fill="black"/>
</svg>
