<svg width="24" height="24" viewBox="0 0 24 24" fill="none" xmlns="http://www.w3.org/2000/svg">
<path d="M5.90399 17.736V19.512H18.096V17.736C18.096 15.072 16.008 13.152 13.584 13.152H10.416C7.87199 13.152 5.90399 15.192 5.90399 17.736ZM1.67999 19.512H2.51999V18.096C2.51999 16.92 3.23999 16.08 4.31999 15.912C4.41599 15.6 4.53599 15.336 4.67999 15.072C3.04799 15.096 1.67999 16.44 1.67999 18.288V19.512ZM1.87199 10.272C1.87199 11.832 3.11999 13.08 4.67999 13.08C6.23999 13.08 7.51199 11.832 7.51199 10.272C7.51199 8.71204 6.23999 7.44004 4.67999 7.44004C3.11999 7.44004 1.87199 8.71204 1.87199 10.272ZM2.61599 10.272C2.61599 9.12004 3.52799 8.20804 4.67999 8.20804C5.83199 8.20804 6.74399 9.12004 6.74399 10.272C6.74399 11.424 5.83199 12.336 4.67999 12.336C3.52799 12.336 2.61599 11.424 2.61599 10.272ZM6.74399 18.744V17.472C6.74399 15.504 8.25599 13.968 10.32 13.968H13.68C15.744 13.968 17.256 15.504 17.256 17.472V18.744H6.74399ZM8.49599 7.96804C8.49599 9.88804 10.08 11.448 12 11.448C13.92 11.448 15.504 9.88804 15.504 7.96804C15.504 6.04804 13.92 4.48804 12 4.48804C10.08 4.48804 8.49599 6.04804 8.49599 7.96804ZM9.31199 7.96804C9.31199 6.48004 10.512 5.28004 12 5.28004C13.488 5.28004 14.712 6.48004 14.712 7.96804C14.712 9.45604 13.488 10.656 12 10.656C10.512 10.656 9.31199 9.45604 9.31199 7.96804ZM16.512 10.272C16.512 11.832 17.76 13.08 19.32 13.08C20.88 13.08 22.152 11.832 22.152 10.272C22.152 8.71204 20.88 7.44004 19.32 7.44004C17.76 7.44004 16.512 8.71204 16.512 10.272ZM17.256 10.272C17.256 9.12004 18.168 8.20804 19.32 8.20804C20.472 8.20804 21.384 9.12004 21.384 10.272C21.384 11.424 20.472 12.336 19.32 12.336C18.168 12.336 17.256 11.424 17.256 10.272ZM19.32 15.072C19.464 15.336 19.584 15.6 19.68 15.912C20.76 16.08 21.48 16.92 21.48 18.096V19.512H22.32V18.288C22.32 16.44 20.976 15.096 19.32 15.072Z" fill="black"/>
</svg>
