<svg width="24" height="24" viewBox="0 0 24 24" fill="none" xmlns="http://www.w3.org/2000/svg">
<path d="M13.728 7.84799L11.16 10.392C10.872 10.68 10.632 10.8 10.344 10.8C9.74399 10.8 9.31199 10.32 9.31199 9.74399C9.31199 9.47999 9.43199 9.19199 9.62399 8.99999L12.264 6.38399C12.624 6.04799 13.128 5.83199 13.608 5.83199H15.648C16.176 5.83199 16.632 6.04799 17.016 6.38399L18.552 7.89599C18.912 8.25599 19.392 8.44799 19.896 8.44799H22.32V7.63199H19.944C19.632 7.63199 19.344 7.53599 19.104 7.29599L17.592 5.83199C17.088 5.32799 16.392 5.01599 15.648 5.01599H8.35199C7.60799 5.01599 6.91199 5.32799 6.40799 5.83199L4.89599 7.29599C4.65599 7.53599 4.39199 7.63199 4.05599 7.63199H1.67999V8.44799H4.10399C4.60799 8.44799 5.08799 8.25599 5.47199 7.89599L7.00799 6.38399C7.36799 6.04799 7.84799 5.83199 8.35199 5.83199H11.76L11.736 5.85599L9.09599 8.47199C8.75999 8.78399 8.56799 9.26399 8.56799 9.76799C8.56799 10.728 9.31199 11.544 10.344 11.544C10.8 11.544 11.232 11.376 11.592 11.016L12.6 10.008L17.424 14.856L14.64 17.616C14.28 17.952 13.8 18.168 13.296 18.168H9.09599C8.59199 18.168 8.11199 17.952 7.77599 17.616L4.96799 14.88C4.60799 14.544 4.12799 14.328 3.62399 14.328H1.67999V15.144H3.57599C3.91199 15.144 4.15199 15.264 4.41599 15.504L7.17599 18.192C7.65599 18.672 8.35199 18.984 9.09599 18.984H13.296C14.016 18.984 14.736 18.672 15.216 18.192L18.312 15.144H22.32V14.328H17.952L13.128 9.47999L14.256 8.37599L13.728 7.84799Z" fill="black"/>
</svg>
