<svg width="24" height="24" viewBox="0 0 24 24" fill="none" xmlns="http://www.w3.org/2000/svg">
<path fill-rule="evenodd" clip-rule="evenodd" d="M16.1449 10.3396H15.0325L13.4475 15.8256H14.2622L14.6309 14.4953H16.4978L16.8424 15.8256H17.6811L16.1449 10.3396ZM15.633 11.2328L16.2995 13.7725H14.8266L15.5234 11.2328H15.633Z" fill="black"/>
<path fill-rule="evenodd" clip-rule="evenodd" d="M8.29214 15.163L3.0481 10.5012V3.28125H13.8022V8.7426H20.9518V16.0803L15.8015 20.7188L16.672 17.4373H10.1787V11.822H7.48317L8.29214 15.163ZM13.1688 3.91474V8.7426H10.1787V9.027C9.79418 8.99445 9.47515 8.9048 9.21086 8.78262C9.93918 8.00386 10.1113 6.99055 10.1513 6.47913H10.7919V5.84564H8.94463V4.8143H8.31114V5.84564H6.46388V6.47913H9.515C9.47283 6.92728 9.31131 7.78128 8.70137 8.39797C8.69007 8.40933 8.67867 8.42057 8.66716 8.43168C8.12217 7.95594 7.98922 7.3684 7.98046 7.32802L7.35963 7.45472C7.36222 7.46726 7.51825 8.19097 8.14945 8.80853C7.69362 9.05388 7.13153 9.17126 6.47084 9.15816L6.45754 9.79166H6.57221C7.41318 9.79117 8.12184 9.59995 8.68949 9.22296C9.07202 9.44957 9.55953 9.61878 10.1787 9.66285V11.1885H6.67737L7.2 13.3443L3.68159 10.2167V3.91474H13.1688ZM10.8122 16.8038H17.4955L16.9596 18.8234L20.3171 15.7984V9.37609H10.8122V16.8038Z" fill="black"/>
</svg>
