<svg width="24" height="24" viewBox="0 0 24 24" fill="none" xmlns="http://www.w3.org/2000/svg">
<path d="M12 12.024L21.6 7.488L12 3L2.40002 7.488L12 12.024ZM2.40002 16.488L12 21L21.6 16.488L19.176 15.312L18.336 15.696L19.824 16.416L12 20.088L4.17602 16.416L5.66402 15.696L4.84802 15.312L2.40002 16.488ZM2.40002 12L12 16.512L21.6 12L19.176 10.824L18.336 11.208L19.824 11.928L12 15.6L4.17602 11.928L5.66402 11.208L4.84802 10.824L2.40002 12ZM4.32002 7.488L12 3.912L19.68 7.488L12 11.112L4.32002 7.488Z" fill="black"/>
</svg>
