<svg width="24" height="24" viewBox="0 0 24 24" fill="none" xmlns="http://www.w3.org/2000/svg">
<path d="M7.01999 13.728V21.48L11.988 18.696L16.98 21.48V13.728C18.036 12.528 18.708 10.944 18.708 9.21602C18.708 5.54402 15.684 2.52002 11.988 2.52002C8.29199 2.52002 5.29199 5.54402 5.29199 9.21602C5.29199 10.944 5.93999 12.528 7.01999 13.728ZM6.13199 9.21602C6.13199 6.00002 8.74799 3.36002 11.988 3.36002C15.228 3.36002 17.868 6.00002 17.868 9.21602C17.868 12.456 15.228 15.096 11.988 15.096C8.74799 15.096 6.13199 12.456 6.13199 9.21602ZM7.81199 20.136V14.424C8.96399 15.36 10.404 15.936 11.988 15.936C13.572 15.936 15.012 15.36 16.164 14.424V20.136L11.988 17.808L7.81199 20.136Z" fill="black"/>
</svg>
