<svg width="24" height="24" viewBox="0 0 24 24" fill="none" xmlns="http://www.w3.org/2000/svg">
<path d="M8.124 20.88H11.076C12.684 20.88 14.076 20.28 15.06 18.984C15.252 18.768 15.396 18.528 15.516 18.264H16.116C18.876 18.264 20.94 16.44 20.94 13.896C20.94 11.304 18.876 9.48 16.116 9.48H3.06V15C3.06 16.824 3.396 18.024 4.164 18.984C5.172 20.28 6.516 20.88 8.124 20.88ZM3.924 15.336V10.296H15.276V15.336C15.276 18.192 13.98 20.04 11.124 20.04H8.076C5.316 20.04 3.924 18.264 3.924 15.336ZM6.9 7.92H7.788C7.668 6.744 8.388 6.168 9.852 5.976L11.556 5.76C13.26 5.568 14.388 4.68 14.292 3.12H13.428C13.476 4.272 12.756 4.824 11.364 5.016L9.636 5.232C7.908 5.424 6.78 6.336 6.9 7.92ZM15.852 17.448C16.044 16.776 16.14 15.984 16.14 15V10.296C18.612 10.296 20.076 11.544 20.076 13.752V14.064C20.076 16.2 18.612 17.448 16.164 17.448H15.852Z" fill="black"/>
</svg>
