<svg width="24" height="24" viewBox="0 0 24 24" fill="none" xmlns="http://www.w3.org/2000/svg">
<path d="M2.90399 9.52803L13.32 19.92V21.84H20.496V12.144H21.096V9.60003H20.496V6.81603H21.096V4.32003H20.496V2.16003H13.488V9.50403L8.18399 4.22403L2.90399 9.52803ZM4.05599 9.52803L8.20799 5.37603L18.912 16.104C19.536 16.704 19.8 17.4 19.8 18.192C19.8 19.8 18.456 21.144 16.872 21.144C16.104 21.144 15.36 20.832 14.76 20.232L4.05599 9.52803ZM15.192 18.192C15.192 19.08 15.936 19.872 16.896 19.872C17.808 19.872 18.504 19.08 18.504 18.192C18.504 17.28 17.784 16.536 16.896 16.536C15.936 16.536 15.192 17.28 15.192 18.192ZM15.888 18.192C15.888 17.64 16.32 17.208 16.896 17.208C17.4 17.208 17.832 17.64 17.832 18.192C17.832 18.72 17.4 19.2 16.896 19.2C16.32 19.2 15.888 18.72 15.888 18.192Z" fill="black"/>
</svg>
