<svg width="24" height="24" viewBox="0 0 24 24" fill="none" xmlns="http://www.w3.org/2000/svg">
<path d="M13.62 21.84H20.796V2.16003H13.788V9.50403L8.48398 4.22403L3.20398 9.52803L13.62 19.92V21.84ZM4.35598 9.52803L8.50798 5.37603L19.212 16.104C19.836 16.704 20.1 17.4 20.1 18.192C20.1 19.8 18.756 21.144 17.172 21.144C16.404 21.144 15.66 20.832 15.06 20.232L4.35598 9.52803ZM15.396 5.68803C15.396 4.65603 16.236 3.81603 17.34 3.81603C18.348 3.81603 19.188 4.65603 19.188 5.68803C19.188 6.69603 18.348 7.60803 17.34 7.60803C16.236 7.60803 15.396 6.69603 15.396 5.68803ZM15.492 18.192C15.492 19.08 16.236 19.872 17.196 19.872C18.108 19.872 18.804 19.08 18.804 18.192C18.804 17.28 18.084 16.536 17.196 16.536C16.236 16.536 15.492 17.28 15.492 18.192ZM15.996 5.68803C15.996 6.38403 16.572 7.00803 17.34 7.00803C18.036 7.00803 18.588 6.40803 18.588 5.68803C18.588 4.96803 18.036 4.41603 17.34 4.39203C16.572 4.39203 15.996 4.96803 15.996 5.68803ZM16.188 18.192C16.188 17.64 16.62 17.208 17.196 17.208C17.7 17.208 18.132 17.64 18.132 18.192C18.132 18.72 17.7 19.2 17.196 19.2C16.62 19.2 16.188 18.72 16.188 18.192Z" fill="black"/>
</svg>
