<svg width="24" height="24" viewBox="0 0 24 24" fill="none" xmlns="http://www.w3.org/2000/svg">
<path d="M2.64001 8.84395H21.36V2.81995H2.64001V8.84395ZM3.43201 8.07595V3.58795H11.256C10.608 4.09195 10.2 4.90795 10.176 5.81995C10.2 6.73195 10.608 7.54795 11.256 8.07595H3.43201ZM7.65602 16.8359L12 21.1799L16.344 16.8359L15.792 16.2839L14.184 17.8919C13.608 18.4919 12.984 19.0919 12.408 19.6919V10.8599H11.592V19.6919C11.016 19.0919 10.416 18.4919 9.81602 17.8919L8.20802 16.2839L7.65602 16.8359ZM10.944 5.81995C10.968 4.59595 11.952 3.58795 13.152 3.58795H20.592V8.07595H13.152C11.952 8.07595 10.968 7.06795 10.944 5.81995ZM11.952 5.84395C11.952 6.53995 12.552 7.13995 13.272 7.13995C13.968 7.13995 14.568 6.53995 14.568 5.84395C14.568 5.12395 13.968 4.52395 13.272 4.52395C12.552 4.52395 11.952 5.12395 11.952 5.84395ZM12.552 5.84395C12.552 5.43595 12.864 5.12395 13.272 5.12395C13.656 5.12395 13.992 5.43595 13.992 5.84395C13.992 6.22795 13.656 6.56395 13.272 6.56395C12.864 6.56395 12.552 6.22795 12.552 5.84395Z" fill="black"/>
</svg>
