<svg width="24" height="24" viewBox="0 0 24 24" fill="none" xmlns="http://www.w3.org/2000/svg">
<path d="M10.956 16.704C13.164 16.704 14.412 14.832 14.388 11.904C14.364 9.048 13.116 7.344 10.98 7.344C9.22799 7.344 7.90799 8.664 7.90799 10.464C7.90799 12.216 9.17999 13.536 10.908 13.536C12.132 13.536 13.116 12.816 13.476 11.736H13.548C13.644 14.04 13.092 15.936 10.932 15.936C9.65999 15.936 8.91599 15.24 8.72399 13.968H7.90799C8.07599 15.624 9.29999 16.704 10.956 16.704ZM4.06799 21H10.932C15.972 21 19.932 16.896 19.932 12C19.932 6.96 15.972 3 10.932 3H4.06799V3.84H10.932C15.516 3.84 19.092 7.416 19.092 12C19.092 16.44 15.516 20.16 10.932 20.16H4.06799V21ZM8.74799 10.536V10.32C8.74799 8.976 9.56399 8.136 10.956 8.136H11.052C12.492 8.136 13.26 9.072 13.26 10.32V10.536C13.26 11.88 12.468 12.744 11.052 12.744H10.956C9.56399 12.744 8.74799 11.904 8.74799 10.536Z" fill="black"/>
</svg>
