<svg width="24" height="24" viewBox="0 0 24 24" fill="none" xmlns="http://www.w3.org/2000/svg">
<path d="M11.9059 14.625C11.1106 14.6241 10.3481 14.3098 9.78577 13.751C9.22345 13.1922 8.90726 12.4346 8.90658 11.6444V6.0245C8.90072 5.62943 8.97396 5.23715 9.12208 4.87046C9.27021 4.50378 9.49024 4.17001 9.76937 3.88857C10.0485 3.60714 10.3812 3.38365 10.748 3.2311C11.1149 3.07856 11.5086 3 11.9062 3C12.3039 3 12.6976 3.07856 13.0645 3.2311C13.4313 3.38365 13.764 3.60714 14.0431 3.88857C14.3223 4.17001 14.5423 4.50378 14.6904 4.87046C14.8385 5.23715 14.9118 5.62943 14.9059 6.0245V11.6444C14.9052 12.4347 14.589 13.1924 14.0265 13.7512C13.464 14.3101 12.7014 14.6243 11.9059 14.625ZM11.9059 3.88293C11.3346 3.88379 10.7869 4.10971 10.3829 4.51117C9.979 4.91262 9.75179 5.45685 9.7511 6.0245V11.6444C9.74613 11.9287 9.7982 12.2111 9.90428 12.4752C10.0104 12.7394 10.1683 12.9798 10.3689 13.1827C10.5695 13.3855 10.8088 13.5466 11.0727 13.6565C11.3367 13.7665 11.62 13.8231 11.9062 13.8231C12.1925 13.8231 12.4758 13.7665 12.7398 13.6565C13.0037 13.5466 13.243 13.3855 13.4436 13.1827C13.6442 12.9798 13.8021 12.7394 13.9082 12.4752C14.0143 12.2111 14.0664 11.9287 14.0614 11.6444V6.0245C14.0607 5.45673 13.8334 4.91241 13.4293 4.51094C13.0253 4.10946 12.4774 3.88362 11.9059 3.88293Z" fill="black"/>
<path d="M11.9997 17.4375C10.3841 17.4356 8.83518 16.8029 7.69283 15.678C6.55049 14.5532 5.90798 13.0282 5.90625 11.4375H6.75446C6.74672 12.1206 6.87669 12.7984 7.13683 13.4316C7.39697 14.0649 7.78213 14.6411 8.26999 15.1268C8.75785 15.6125 9.33873 15.9981 9.979 16.2613C10.6193 16.5245 11.3062 16.66 12 16.66C12.6938 16.66 13.3807 16.5245 14.021 16.2613C14.6613 15.9981 15.2421 15.6125 15.73 15.1268C16.2179 14.6411 16.603 14.0649 16.8632 13.4316C17.1233 12.7984 17.2533 12.1206 17.2455 11.4375H18.0938C18.0919 13.0282 17.4492 14.5533 16.3067 15.6781C15.1643 16.8029 13.6153 17.4356 11.9997 17.4375Z" fill="black"/>
<path d="M12.4688 17.0625H11.5312V20.25H12.4688V17.0625Z" fill="black"/>
<path d="M14.5312 20.0625H9.46875V21H14.5312V20.0625Z" fill="black"/>
</svg>
