<svg width="24" height="24" viewBox="0 0 24 24" fill="none" xmlns="http://www.w3.org/2000/svg">
<path d="M13.704 9.63602H19.872V3.46802H13.704V9.63602ZM2.64001 12.732H21.36V11.916H2.64001V12.732ZM4.12801 20.532H10.296V14.94H9.52802V19.764H4.89601V14.94H4.12801V20.532ZM4.12801 9.63602H10.296V3.46802H4.12801V9.63602ZM4.89601 8.86802V4.23602H9.52802V8.86802H4.89601ZM6.50401 18.156H7.96802V16.668H6.50401V18.156ZM6.50401 7.28402H7.96802V5.82002H6.50401V7.28402ZM13.704 20.508H15.096V19.116H13.704V20.508ZM13.704 16.332H16.512V14.94H13.704V16.332ZM14.472 8.86802V4.23602H19.104V8.86802H14.472ZM15.096 19.116H17.88V16.332H16.512V17.7H15.096V19.116ZM16.056 7.28402H17.52V5.82002H16.056V7.28402ZM18.312 20.508H19.872V17.7H18.312V20.508Z" fill="black"/>
</svg>
