<svg width="24" height="24" viewBox="0 0 24 24" fill="none" xmlns="http://www.w3.org/2000/svg">
<path d="M2.63999 8.18395V12H3.45599V8.18395C3.45599 7.39195 4.29599 6.50395 5.13599 6.50395H20.856C20.256 7.07995 19.68 7.65595 19.104 8.23195L17.424 9.88795L17.976 10.44L22.32 6.09595L17.976 1.75195L17.424 2.30395L19.104 3.95995C19.656 4.53595 20.256 5.11195 20.832 5.68795H5.13599C3.88799 5.68795 2.63999 6.98395 2.63999 8.18395ZM1.67999 17.904L6.02399 22.248L6.57599 21.696L4.89599 20.016C4.34399 19.464 3.74399 18.864 3.16799 18.312H18.864C20.112 18.312 21.36 16.992 21.36 15.816V12H20.544V15.816C20.544 16.608 19.704 17.496 18.864 17.496H3.16799C3.74399 16.92 4.34399 16.344 4.89599 15.768L6.57599 14.088L6.02399 13.56L1.67999 17.904Z" fill="black"/>
</svg>
