<svg width="24" height="24" viewBox="0 0 24 24" fill="none" xmlns="http://www.w3.org/2000/svg">
<path d="M12 21.1799C16.92 21.1799 21 17.0999 21 12.1799C21 7.25995 16.92 3.17995 12 3.17995C8.784 3.17995 5.952 4.97995 4.368 7.64395V5.19595V2.81995H3.6V8.96395H9.744V8.17195H7.368C6.552 8.17195 5.712 8.19595 4.944 8.19595C6.36 5.69995 9.024 4.01995 12 4.01995C16.464 4.01995 20.16 7.71595 20.16 12.1799C20.16 16.6439 16.464 20.3399 12 20.3399C7.536 20.3399 3.84 16.6439 3.84 12.1799H3C3 17.0999 7.08 21.1799 12 21.1799Z" fill="black"/>
</svg>
