<svg width="24" height="24" viewBox="0 0 24 24" fill="none" xmlns="http://www.w3.org/2000/svg">
<path d="M5.28002 17.844H18.72V17.076H16.44C18.576 15.66 19.92 13.284 19.92 10.62C19.92 6.25195 16.368 2.69995 12 2.69995C7.63202 2.69995 4.08002 6.25195 4.08002 10.62C4.08002 13.284 5.40002 15.636 7.53602 17.076H5.28002V17.844ZM2.40002 21.2999H21.6V14.94H20.76V20.4839H3.24002V14.94H2.40002V21.2999ZM4.92002 10.62C4.92002 6.70795 8.08802 3.53995 12 3.53995C15.912 3.53995 19.08 6.70795 19.08 10.62C19.08 13.572 17.256 16.092 14.712 17.076H9.31202C6.74402 16.092 4.92002 13.572 4.92002 10.62Z" fill="black"/>
</svg>
