<svg width="24" height="24" viewBox="0 0 24 24" fill="none" xmlns="http://www.w3.org/2000/svg">
<path d="M15.384 15.984L21.192 21.816L21.816 21.192L15.984 15.384C17.256 13.968 18.024 12.12 18.024 10.104C18.024 5.73596 14.472 2.18396 10.104 2.18396C5.73596 2.18396 2.18396 5.73596 2.18396 10.104C2.18396 14.472 5.73596 18.024 10.104 18.024C12.12 18.024 13.968 17.256 15.384 15.984ZM3.02396 10.104C3.02396 6.19196 6.21596 3.02396 10.104 3.02396C14.016 3.02396 17.184 6.19196 17.184 10.104C17.184 13.992 14.016 17.184 10.104 17.184C6.21596 17.184 3.02396 13.992 3.02396 10.104Z" fill="black"/>
</svg>
