<svg width="24" height="24" viewBox="0 0 24 24" fill="none" xmlns="http://www.w3.org/2000/svg">
<path d="M15.384 15.984L21.192 21.816L21.816 21.192L15.984 15.384C17.256 13.968 18.024 12.12 18.024 10.104C18.024 5.73596 14.472 2.18396 10.104 2.18396C5.73602 2.18396 2.18402 5.73596 2.18402 10.104C2.18402 14.472 5.73602 18.024 10.104 18.024C12.12 18.024 13.968 17.256 15.384 15.984ZM3.02402 10.104C3.02402 6.19196 6.21602 3.02396 10.104 3.02396C14.016 3.02396 17.184 6.19196 17.184 10.104C17.184 13.992 14.016 17.184 10.104 17.184C6.21602 17.184 3.02402 13.992 3.02402 10.104ZM7.22402 11.16C7.22402 12.744 8.25602 13.752 9.76802 13.896V14.832H10.44V13.92C11.904 13.8 12.936 12.936 12.936 11.664C12.936 10.512 12.12 9.83996 10.824 9.67196L10.44 9.62396V6.83996C11.544 6.93596 12.072 7.55996 12.048 8.68796H12.816C12.816 7.27196 11.856 6.26396 10.44 6.14396V5.23196H9.76802V6.16796C8.47202 6.31196 7.51202 7.15196 7.51202 8.32796C7.51202 9.40796 8.23202 10.056 9.43202 10.2L9.76802 10.248V13.2C8.59202 13.08 7.96802 12.408 7.96802 11.16H7.22402ZM8.23202 8.27996C8.23202 7.46396 8.80802 6.95996 9.76802 6.86396V9.55196L9.60002 9.52796C8.66402 9.40796 8.23202 9.04796 8.23202 8.27996ZM10.44 13.224V10.32L10.656 10.344C11.688 10.464 12.192 10.872 12.192 11.688C12.192 12.6 11.568 13.128 10.44 13.224Z" fill="black"/>
</svg>
