<svg width="24" height="24" viewBox="0 0 24 24" fill="none" xmlns="http://www.w3.org/2000/svg">
<path d="M12 21.84C18.24 19.368 21.36 15.432 21.36 10.128V5.08803C18.696 3.16803 15.456 2.16003 12 2.16003C8.54402 2.16003 5.30401 3.16803 2.64001 5.08803V10.128C2.64001 15.432 5.76001 19.368 12 21.84ZM3.48001 10.128V5.49603C5.95201 3.81603 8.83202 2.97603 12 2.97603C15.168 2.97603 18.048 3.81603 20.52 5.49603V10.128C20.52 15.072 17.808 18.576 12 20.952C6.19201 18.576 3.48001 15.072 3.48001 10.128ZM8.11202 11.136L11.28 14.328L16.776 8.80803L16.2 8.23203L11.28 13.128L8.68802 10.56L8.11202 11.136Z" fill="black"/>
</svg>
