<svg width="24" height="24" viewBox="0 0 24 24" fill="none" xmlns="http://www.w3.org/2000/svg">
<path d="M18.768 16.6319V15.8159H8.61603L8.18403 13.5599H19.92L21.84 4.79995L6.43203 4.77595L6.09603 3.09595H2.16003V3.91195H5.42403L7.94403 16.6319H18.768ZM6.60003 5.59195L20.808 5.61595L19.248 12.7439H8.01603L6.60003 5.59195ZM7.27203 19.5119C7.27203 20.2559 7.89603 20.9039 8.68803 20.9039C9.45603 20.9039 10.08 20.2559 10.08 19.5119C10.08 18.7439 9.45603 18.1199 8.68803 18.1199C7.89603 18.1199 7.27203 18.7439 7.27203 19.5119ZM7.96803 19.5119C7.96803 19.1039 8.28003 18.7919 8.68803 18.7919C9.07203 18.7919 9.40803 19.1039 9.40803 19.5119C9.40803 19.8959 9.07203 20.2319 8.68803 20.2319C8.28003 20.2319 7.96803 19.8959 7.96803 19.5119ZM16.44 19.5119C16.44 20.2559 17.064 20.9039 17.832 20.9039C18.6 20.9039 19.224 20.2559 19.224 19.5119C19.224 18.7439 18.6 18.1199 17.832 18.1199C17.064 18.1199 16.44 18.7439 16.44 19.5119ZM17.112 19.5119C17.112 19.1039 17.448 18.7919 17.832 18.7919C18.24 18.7919 18.552 19.1039 18.552 19.5119C18.552 19.8959 18.24 20.2319 17.832 20.2319C17.448 20.2319 17.112 19.8959 17.112 19.5119Z" fill="black"/>
</svg>
