<svg width="24" height="24" viewBox="0 0 24 24" fill="none" xmlns="http://www.w3.org/2000/svg">
<path d="M3.95996 20.712H20.04V9.43196H16.8V8.03996C16.8 6.91196 16.488 5.95196 15.888 5.18396C15 4.00796 13.536 3.28796 12 3.28796C10.464 3.28796 8.99996 4.00796 8.11196 5.18396C7.51196 5.95196 7.19996 6.91196 7.19996 8.03996V9.43196H3.95996V20.712ZM4.79996 19.896V10.248H7.19996V12.984H8.03996V10.248H15.96V12.984H16.8V10.248H19.2V19.896H4.79996ZM8.03996 9.43196V7.79996C8.03996 5.61596 9.62396 4.12796 11.832 4.12796H12.192C14.376 4.12796 15.96 5.61596 15.96 7.79996V9.43196H8.03996Z" fill="black"/>
</svg>
