<svg width="24" height="24" viewBox="0 0 24 24" fill="none" xmlns="http://www.w3.org/2000/svg">
<path d="M13.044 16.704C14.844 16.704 16.116 15.384 16.116 13.608C16.116 11.832 14.844 10.512 13.116 10.512C11.892 10.512 10.908 11.232 10.548 12.288H10.452C10.38 10.008 10.908 8.112 13.092 8.112C14.34 8.112 15.108 8.76 15.3 10.008H16.092C15.876 8.376 14.724 7.344 13.092 7.344C10.884 7.344 9.61199 9.216 9.63599 12.144C9.65999 15 10.908 16.704 13.044 16.704ZM4.06799 12C4.06799 17.04 8.02799 21 13.068 21H19.932V20.16H13.068C8.50799 20.16 4.90799 16.56 4.90799 12C4.90799 7.536 8.50799 3.84 13.068 3.84H19.932V3H13.068C8.02799 3 4.06799 7.08 4.06799 12ZM10.74 13.704V13.488C10.74 12.144 11.556 11.28 12.972 11.28H13.068C14.484 11.28 15.3 12.12 15.3 13.488V13.704C15.3 15.072 14.484 15.912 13.068 15.912H12.972C11.532 15.912 10.74 14.952 10.74 13.704Z" fill="black"/>
</svg>
