<svg width="24" height="24" viewBox="0 0 24 24" fill="none" xmlns="http://www.w3.org/2000/svg">
<path d="M12.288 6.98402L7.944 2.64001L3.6 6.98402L4.152 7.53602L5.832 5.85601C6.384 5.30401 6.984 4.70401 7.536 4.12801V20.4H8.352V4.10401C8.928 4.70401 9.504 5.28001 10.08 5.85601L11.76 7.53602L12.288 6.98402ZM11.712 17.016L16.056 21.36L20.4 17.016L19.848 16.464L18.192 18.144C17.616 18.696 17.04 19.296 16.464 19.872V3.60001H15.648V19.872C15.072 19.296 14.496 18.696 13.92 18.144L12.264 16.464L11.712 17.016Z" fill="black"/>
</svg>
