<svg width="24" height="24" viewBox="0 0 24 24" fill="none" xmlns="http://www.w3.org/2000/svg">
<path d="M12 21.54C16.368 21.54 19.92 17.988 19.92 13.62C19.92 11.604 19.152 9.75602 17.88 8.34002L19.272 6.97202L18.648 6.34802L17.28 7.74002C15.984 6.56402 14.28 5.79602 12.432 5.72402V3.30002H14.4V2.46002H9.59999V3.30002H11.592V5.72402C7.41599 5.94002 4.07999 9.39602 4.07999 13.62C4.07999 17.988 7.63199 21.54 12 21.54ZM4.91999 13.62C4.91999 9.70802 8.11199 6.54002 12 6.54002C15.912 6.54002 19.08 9.70802 19.08 13.62C19.08 17.508 15.912 20.7 12 20.7C8.11199 20.7 4.91999 17.508 4.91999 13.62ZM11.592 14.1C11.592 14.34 11.76 14.508 12 14.508C12.24 14.508 12.432 14.34 12.432 14.1V8.38802H11.592V14.1Z" fill="black"/>
</svg>
