<svg width="24" height="24" viewBox="0 0 24 24" fill="none" xmlns="http://www.w3.org/2000/svg">
<path d="M4.272 19.572H19.752C20.856 18.036 21.552 16.068 21.552 14.004C21.552 8.72398 17.28 4.42798 12 4.42798C10.008 4.42798 8.136 5.07598 6.576 6.13198L7.2 6.73198C8.568 5.81998 10.224 5.26798 12 5.26798C16.824 5.26798 20.712 9.17998 20.712 14.004C20.712 15.732 20.184 17.364 19.296 18.732H4.704C3.816 17.364 3.288 15.732 3.288 14.004C3.288 12.228 3.816 10.572 4.752 9.20398L4.128 8.57998C3.072 10.14 2.448 11.988 2.448 14.004C2.448 16.068 3.144 18.036 4.272 19.572ZM4.92 7.52398L11.712 14.292C11.784 14.388 11.88 14.412 12 14.412C12.24 14.412 12.432 14.244 12.432 14.004C12.432 13.884 12.384 13.788 12.288 13.716L5.52 6.92398L4.92 7.52398Z" fill="black"/>
</svg>
