<svg width="24" height="24" viewBox="0 0 24 24" fill="none" xmlns="http://www.w3.org/2000/svg">
<path d="M4.24801 19.572H19.704C20.472 18.516 21.12 17.124 21.36 15.732H20.496C20.304 16.812 19.848 17.844 19.272 18.732H4.68001C3.79201 17.364 3.26401 15.732 3.26401 14.004C3.26401 9.17998 7.17601 5.26798 11.976 5.26798C16.2 5.26798 19.704 8.29198 20.496 12.276H21.36C20.544 7.81198 16.656 4.42798 11.976 4.42798C6.69601 4.42798 2.42401 8.72398 2.42401 14.004C2.42401 16.068 3.12001 18.036 4.24801 19.572ZM11.568 14.004C11.568 14.244 11.736 14.412 11.976 14.412H21.576V13.572H11.976C11.736 13.572 11.568 13.764 11.568 14.004Z" fill="black"/>
</svg>
