<svg width="24" height="24" viewBox="0 0 24 24" fill="none" xmlns="http://www.w3.org/2000/svg">
<path d="M13.044 16.68C14.916 16.68 16.284 15.576 16.284 14.016C16.284 13.008 15.708 12.192 14.532 11.88V11.76C15.636 11.448 16.02 10.704 16.02 9.888C16.02 8.424 14.748 7.32 13.068 7.32C11.268 7.32 10.02 8.568 10.02 10.128V10.296H10.86C10.86 8.88 11.604 8.088 13.068 8.088C14.436 8.088 15.18 8.76 15.18 9.936C15.18 10.896 14.82 11.472 12.972 11.472H12.276V12.24H12.972C14.82 12.24 15.444 12.864 15.444 13.992C15.444 15.216 14.604 15.888 13.044 15.888C11.412 15.888 10.716 15.12 10.716 13.56H9.87599V13.68C9.87599 15.408 11.076 16.68 13.044 16.68ZM4.06799 12C4.06799 17.04 8.02799 21 13.068 21H19.932V20.16H13.068C8.50799 20.16 4.90799 16.56 4.90799 12C4.90799 7.536 8.50799 3.84 13.068 3.84H19.932V3H13.068C8.02799 3 4.06799 7.08 4.06799 12Z" fill="black"/>
</svg>
