<svg width="24" height="24" viewBox="0 0 24 24" fill="none" xmlns="http://www.w3.org/2000/svg">
<path d="M10.908 16.68C12.78 16.68 14.148 15.576 14.148 14.016C14.148 13.008 13.572 12.192 12.396 11.88V11.76C13.5 11.448 13.884 10.704 13.884 9.888C13.884 8.424 12.612 7.32 10.932 7.32C9.13199 7.32 7.88399 8.568 7.88399 10.128V10.296H8.72399C8.72399 8.88 9.46799 8.088 10.932 8.088C12.3 8.088 13.044 8.76 13.044 9.936C13.044 10.896 12.684 11.472 10.836 11.472H10.14V12.24H10.836C12.684 12.24 13.308 12.864 13.308 13.992C13.308 15.216 12.468 15.888 10.908 15.888C9.27599 15.888 8.57999 15.12 8.57999 13.56H7.73999V13.68C7.73999 15.408 8.93999 16.68 10.908 16.68ZM4.06799 21H10.932C15.972 21 19.932 16.896 19.932 12C19.932 6.96 15.972 3 10.932 3H4.06799V3.84H10.932C15.516 3.84 19.092 7.416 19.092 12C19.092 16.44 15.516 20.16 10.932 20.16H4.06799V21Z" fill="black"/>
</svg>
