<svg width="12" height="14" viewBox="0 0 12 14" fill="none" xmlns="http://www.w3.org/2000/svg">
<path d="M10.2077 2.80622C9.46647 2.3144 8.93136 1.52782 8.76456 0.610799C8.72848 0.412576 8.70873 0.208742 8.70873 0H6.34291L6.33901 9.6461C6.29926 10.7263 5.42549 11.5933 4.35413 11.5933C4.02121 11.5933 3.7076 11.5086 3.43166 11.3607C2.79868 11.0217 2.36558 10.3467 2.36558 9.56989C2.36558 8.45418 3.25773 7.54652 4.35413 7.54652C4.55885 7.54652 4.75506 7.58088 4.94093 7.64002V5.1828C4.74863 5.15615 4.55333 5.13955 4.35413 5.13955C1.9534 5.13979 0 7.12716 0 9.56989C0 11.0687 0.736143 12.395 1.85897 13.1971C2.56616 13.7022 3.4266 14 4.35436 14C6.75533 14 8.70873 12.0126 8.70873 9.56989V4.67859C9.63649 5.35624 10.7733 5.75549 12 5.75549V3.34853C11.3392 3.34853 10.7237 3.14867 10.2077 2.80622Z" fill="white"/>
</svg>
