<svg width="24" height="24" viewBox="0 0 24 24" fill="none" xmlns="http://www.w3.org/2000/svg">
<path d="M4.46402 21.6C4.99202 21.6 5.52002 21.408 5.92802 21L15.744 11.208C16.152 11.352 16.632 11.424 17.088 11.424C19.56 11.424 21.6 9.38402 21.6 6.91202C21.6 5.92802 21.24 4.89602 20.568 4.22402L17.616 7.17602L16.824 6.38402L19.776 3.43202C19.104 2.76002 18.072 2.40002 17.088 2.40002C14.616 2.40002 12.576 4.44002 12.576 6.91202C12.576 7.39202 12.648 7.84802 12.792 8.25602L3.02402 18.048C2.59202 18.48 2.40002 18.984 2.40002 19.512C2.40002 20.664 3.31202 21.6 4.46402 21.6ZM3.21602 19.536C3.21602 19.2 3.33602 18.888 3.60002 18.624L13.728 8.47202C13.512 8.01602 13.392 7.48802 13.392 6.91202C13.392 4.87202 15.048 3.21602 17.088 3.21602C17.64 3.21602 18.192 3.33602 18.648 3.57602L15.888 6.36002L17.64 8.11202L20.424 5.35202C20.664 5.80802 20.784 6.36002 20.784 6.91202C20.784 8.95202 19.128 10.608 17.088 10.608C16.512 10.608 15.984 10.488 15.528 10.272L5.37602 20.424C5.08802 20.688 4.80002 20.784 4.46402 20.784C3.76802 20.784 3.21602 20.208 3.21602 19.536Z" fill="black"/>
</svg>
