<svg width="24" height="24" viewBox="0 0 24 24" fill="none" xmlns="http://www.w3.org/2000/svg">
<path d="M12 20.988C16.968 20.988 21 16.98 21 12.012C21 7.04402 16.968 3.01202 12 3.01202C7.032 3.01202 3 7.04402 3 12.012C3 16.98 7.032 20.988 12 20.988ZM5.616 8.82002V8.07602H12.048V8.82002H9.216V16.428H8.448V8.82002H5.616ZM13.152 16.428V8.07602H16.152C17.76 8.07602 18.864 9.13202 18.864 10.62C18.864 12.06 17.76 13.116 16.152 13.116H13.944V16.428H13.152ZM13.944 12.372H16.2C17.4 12.372 18.048 11.724 18.048 10.692V10.524C18.048 9.46802 17.4 8.82002 16.2 8.82002H13.944V12.372Z" fill="black"/>
</svg>
