<svg width="24" height="24" viewBox="0 0 24 24" fill="none" xmlns="http://www.w3.org/2000/svg">
<path d="M17.016 12.288L21.36 7.94398L17.016 3.59998L16.464 4.15198L18.144 5.80798C18.696 6.38398 19.296 6.95998 19.872 7.53598H3.60001V8.35198H19.896C19.296 8.92798 18.72 9.50398 18.144 10.08L16.464 11.736L17.016 12.288ZM2.64001 16.056L6.98402 20.4L7.53602 19.848L5.85601 18.168C5.30401 17.616 4.70401 17.016 4.12801 16.464H20.4V15.648H4.12801C4.70401 15.072 5.30401 14.496 5.85601 13.92L7.53602 12.24L6.98402 11.712L2.64001 16.056Z" fill="black"/>
</svg>
