<svg width="24" height="24" viewBox="0 0 24 24" fill="none" xmlns="http://www.w3.org/2000/svg">
<path d="M10.164 16.464H16.164V15.696H11.076V15.264L13.932 13.224C15.54 12.072 16.092 11.208 16.092 10.104C16.092 8.304 14.7 7.344 13.068 7.344C11.148 7.344 9.97199 8.688 9.97199 10.224V10.464H10.788V10.224C10.788 9.024 11.508 8.112 13.044 8.112H13.116C14.388 8.112 15.252 8.76 15.252 10.104C15.252 10.992 14.892 11.64 13.308 12.768L10.164 15V16.464ZM4.06799 12C4.06799 17.04 8.02799 21 13.068 21H19.932V20.16H13.068C8.50799 20.16 4.90799 16.56 4.90799 12C4.90799 7.536 8.50799 3.84 13.068 3.84H19.932V3H13.068C8.02799 3 4.06799 7.08 4.06799 12Z" fill="black"/>
</svg>
