<svg width="24" height="24" viewBox="0 0 24 24" fill="none" xmlns="http://www.w3.org/2000/svg">
<path d="M8.02799 16.464H14.028V15.696H8.93999V15.264L11.82 13.224C13.404 12.096 13.956 11.232 13.956 10.104C13.956 8.304 12.564 7.344 10.932 7.344C9.01199 7.344 7.83599 8.688 7.83599 10.224V10.464H8.65199V10.224C8.65199 9.024 9.37199 8.112 10.908 8.112H10.98C12.252 8.112 13.116 8.76 13.116 10.104C13.116 10.992 12.756 11.616 11.172 12.768L8.02799 15V16.464ZM4.06799 21H10.932C15.972 21 19.932 16.896 19.932 12C19.932 6.96 15.972 3 10.932 3H4.06799V3.84H10.932C15.516 3.84 19.092 7.416 19.092 12C19.092 16.44 15.516 20.16 10.932 20.16H4.06799V21Z" fill="black"/>
</svg>
