<svg width="24" height="24" viewBox="0 0 24 24" fill="none" xmlns="http://www.w3.org/2000/svg">
<path d="M21.072 21.6481L21.648 21.0721L2.92801 2.35205L2.35201 2.92805L11.016 11.6161L7.39201 11.5921L4.68001 8.88005L4.15201 9.40805L6.40801 11.5921H2.66401V12.3601L6.40801 12.3361L4.15201 14.5441L4.68001 15.0721L7.39201 12.3601L11.16 12.3361L5.49601 17.9761L6.02401 18.5041L11.664 12.8401L11.64 16.6081L8.92801 19.3201L9.45601 19.8481L11.664 17.5921L11.64 21.3361H12.408V17.5921L14.592 19.8481L15.12 19.3201L12.408 16.6081L12.384 12.9841L21.072 21.6481ZM8.92801 4.63205L12.408 8.11205V7.34405L15.12 4.63205L14.592 4.10405L12.408 6.36005V2.61605H11.64L11.664 6.36005L9.45601 4.10405L8.92801 4.63205ZM13.896 9.60005L14.4 10.1041L18.552 5.97605L18.024 5.44805L13.896 9.60005ZM15.888 11.5921L19.368 15.0721L19.896 14.5441L17.64 12.3361L21.384 12.3601V11.5921H17.64L19.896 9.40805L19.368 8.88005L16.656 11.5921H15.888Z" fill="black"/>
</svg>
