<svg width="24" height="24" viewBox="0 0 24 24" fill="none" xmlns="http://www.w3.org/2000/svg">
<path d="M11.988 22.3201C12.924 22.3201 13.692 21.5521 13.692 20.6161C13.692 19.8241 13.14 19.1521 12.42 18.9601V15.0241L16.764 13.6561C17.532 13.4161 18.012 12.7921 18.012 12.0241V8.25605H18.564V6.33605H16.62V8.25605H17.22V12.0241C17.22 12.4801 17.004 12.7681 16.5 12.9361L12.42 14.2081V4.22405H13.524L11.964 1.68005L10.428 4.22405H11.58V15.9841L7.644 14.6641C7.164 14.5201 6.948 14.2321 6.948 13.7521V9.98405C7.356 9.84005 7.668 9.43205 7.668 8.95205C7.668 8.35205 7.164 7.84805 6.54 7.84805C5.94 7.84805 5.436 8.35205 5.436 8.95205C5.436 9.43205 5.748 9.84005 6.156 9.98405V13.8001C6.156 14.5681 6.636 15.1681 7.38 15.4081L11.58 16.8001V18.9601C10.836 19.1521 10.284 19.8241 10.284 20.6161C10.284 21.5521 11.052 22.3201 11.988 22.3201Z" fill="black"/>
</svg>
