<svg width="24" height="24" viewBox="0 0 24 24" fill="none" xmlns="http://www.w3.org/2000/svg">
<path d="M3.26401 19.1879V21.1799H17.928V18.2039L17.04 19.0679V20.3639H4.12801V18.8999C4.12801 16.4519 5.90401 14.7239 8.40001 14.7239H10.008L9.14401 13.8599H8.49601C6.79201 13.8599 5.30401 14.6519 4.34401 15.8999C3.64801 16.7879 3.26401 17.8919 3.26401 19.1879ZM6.19201 7.18795C6.19201 9.61195 8.16001 11.5559 10.584 11.5559C13.008 11.5559 14.976 9.61195 14.976 7.18795C14.976 4.76395 13.008 2.81995 10.584 2.81995C8.16001 2.81995 6.19201 4.76395 6.19201 7.18795ZM7.03201 7.18795C7.03201 5.21995 8.61601 3.63595 10.584 3.63595C12.552 3.63595 14.136 5.21995 14.136 7.18795C14.136 9.15595 12.552 10.7399 10.584 10.7399C8.61601 10.7399 7.03201 9.15595 7.03201 7.18795ZM12.072 14.0279L15.24 17.2199L20.736 11.6999L20.16 11.1239L15.24 16.0199L12.648 13.4519L12.072 14.0279Z" fill="black"/>
</svg>
