<svg width="24" height="24" viewBox="0 0 24 24" fill="none" xmlns="http://www.w3.org/2000/svg">
<path fill-rule="evenodd" clip-rule="evenodd" d="M3.48013 9.36233C3.99375 9.87584 4.6378 10.2289 5.33444 10.3893H2.01965V21.1875H17.912V17.2482L21.9805 20.6308V10.2183L17.912 13.8456V10.3893H14.5981C15.2948 10.2289 15.939 9.87569 16.4527 9.36203C17.1721 8.64263 17.5767 7.66724 17.5779 6.64986C17.5767 5.63248 17.1721 4.65709 16.4527 3.93769C15.7333 3.21829 14.7579 2.81364 13.7405 2.8125C12.7231 2.81364 11.7478 3.21829 11.0284 3.93769C10.4758 4.49023 10.109 5.19377 9.96798 5.95137C9.82692 5.19335 9.45971 4.48944 8.90668 3.93678C8.18672 3.21731 7.21067 2.81295 6.19284 2.8125C5.17531 2.81341 4.19971 3.21796 3.48013 3.93739C2.76055 4.65681 2.35578 5.63233 2.35464 6.64986C2.35578 7.66739 2.76055 8.64291 3.48013 9.36233ZM12.883 10.3893H7.05296C7.74931 10.229 8.39314 9.87613 8.90668 9.36294C9.45971 8.81027 9.82692 8.10637 9.96798 7.34835C10.109 8.10595 10.4758 8.80949 11.0284 9.36203C11.542 9.87569 12.1862 10.2289 12.883 10.3893ZM4.08733 4.54458C4.64587 3.98621 5.40307 3.67223 6.19284 3.67155C6.9829 3.67177 7.74061 3.98555 8.29951 4.54397C8.85842 5.10239 9.17283 5.85979 9.17374 6.64986C9.17283 7.43992 8.85842 8.19733 8.29951 8.75575C7.74061 9.31417 6.9829 9.62794 6.19284 9.62817C5.40307 9.62749 4.64587 9.31351 4.08733 8.75514C3.5288 8.19677 3.2146 7.43963 3.21369 6.64986C3.2146 5.86009 3.5288 5.10295 4.08733 4.54458ZM11.6355 4.54488C12.1939 3.98653 12.9509 3.67246 13.7405 3.67155C14.5301 3.67246 15.2871 3.98653 15.8455 4.54488C16.4038 5.10322 16.7179 5.86024 16.7188 6.64986C16.7179 7.43948 16.4038 8.1965 15.8455 8.75484C15.2871 9.31319 14.5301 9.62726 13.7405 9.62817C12.9509 9.62726 12.1939 9.31319 11.6355 8.75484C11.0772 8.1965 10.7631 7.43948 10.7622 6.64986C10.7631 5.86024 11.0772 5.10322 11.6355 4.54488ZM2.8787 20.3285H17.053V11.2484H2.8787V20.3285ZM21.1214 18.7993L17.912 16.1311V14.9963L21.1214 12.1348V18.7993Z" fill="black"/>
</svg>
