<svg width="24" height="24" viewBox="0 0 24 24" fill="none" xmlns="http://www.w3.org/2000/svg">
<path d="M2.08801 8.53197L2.71201 9.15597C5.08801 6.85197 8.23201 5.41197 12 5.41197C15.768 5.41197 18.912 6.85197 21.312 9.15597L21.912 8.53197C19.392 6.10797 15.96 4.54797 12 4.54797C8.04001 4.54797 4.60801 6.10797 2.08801 8.53197ZM5.13601 11.844L5.71201 12.492C7.44001 11.004 9.50401 10.14 12 10.14C14.496 10.14 16.56 11.004 18.288 12.492L18.864 11.844C17.016 10.26 14.664 9.27597 12 9.27597C9.33601 9.27597 6.98401 10.26 5.13601 11.844ZM8.18401 15.252L8.76001 15.876C9.62401 15.156 10.728 14.7 12 14.7C13.272 14.7 14.352 15.156 15.24 15.876L15.792 15.228C14.808 14.388 13.464 13.836 12 13.836C10.536 13.836 9.19201 14.388 8.18401 15.252ZM10.752 18.084L12 19.452L13.248 18.084C12.936 17.796 12.504 17.628 12 17.628C11.496 17.628 11.064 17.796 10.752 18.084Z" fill="black"/>
</svg>
