<svg width="24" height="24" viewBox="0 0 24 24" fill="none" xmlns="http://www.w3.org/2000/svg">
<path d="M10.932 16.704C13.212 16.704 14.388 14.856 14.388 12.024C14.388 9.192 13.236 7.344 10.932 7.344C8.65199 7.344 7.47599 9.192 7.47599 12.024C7.47599 14.856 8.65199 16.704 10.932 16.704ZM4.06799 21H10.932C15.972 21 19.932 16.896 19.932 12C19.932 6.96 15.972 3 10.932 3H4.06799V3.84H10.932C15.516 3.84 19.092 7.416 19.092 12C19.092 16.44 15.516 20.16 10.932 20.16H4.06799V21ZM8.31599 12.336V11.736C8.31599 9.288 9.15599 8.112 10.932 8.112C11.892 8.112 12.588 8.448 12.996 9.144L8.55599 14.184C8.38799 13.68 8.31599 13.056 8.31599 12.336ZM8.84399 14.88L13.308 9.816C13.476 10.344 13.548 10.968 13.548 11.736V12.336C13.548 14.76 12.708 15.96 10.932 15.96C9.94799 15.96 9.27599 15.6 8.84399 14.88Z" fill="black"/>
</svg>
